<?xml version="1.0" encoding="UTF-8" standalone="no"?>
<!DOCTYPE svg PUBLIC "-//W3C//DTD SVG 1.1//EN"
 "http://www.w3.org/Graphics/SVG/1.1/DTD/svg11.dtd">
<!-- Generated by graphviz version 12.2.1 (20241206.2353)
 -->
<!-- Title: Identify_Cells Pages: 1 -->
<svg width="462pt" height="82pt"
 viewBox="0.00 0.00 461.75 82.25" xmlns="http://www.w3.org/2000/svg" xmlns:xlink="http://www.w3.org/1999/xlink">
<g id="graph0" class="graph" transform="scale(1 1) rotate(0) translate(4 78.25)">
<title>Identify_Cells</title>
<!-- Node1 -->
<g id="Node000001" class="node">
<title>Node1</title>
<g id="a_Node000001"><a xlink:title=" ">
<polygon fill="#999999" stroke="#666666" points="76,-55.25 0,-55.25 0,-36 76,-36 76,-55.25"/>
<text text-anchor="middle" x="38" y="-41.75" font-family="Helvetica,sans-Serif" font-size="10.00">Identify_Cells</text>
</a>
</g>
</g>
<!-- Node2 -->
<g id="Node000002" class="node">
<title>Node2</title>
<g id="a_Node000002"><a xlink:href="../../d8/d40/_grid___computations_8cpp_a2d284e26ddef582519953e8b8300184e.html#a2d284e26ddef582519953e8b8300184e" target="_top" xlink:title=" ">
<polygon fill="white" stroke="#666666" points="221.38,-74.25 140.12,-74.25 140.12,-55 221.38,-55 221.38,-74.25"/>
<text text-anchor="middle" x="180.75" y="-60.75" font-family="Helvetica,sans-Serif" font-size="10.00">Construct_Cell</text>
</a>
</g>
</g>
<!-- Node1&#45;&gt;Node2 -->
<g id="edge1_Node000001_Node000002" class="edge">
<title>Node1&#45;&gt;Node2</title>
<g id="a_edge1_Node000001_Node000002"><a xlink:title=" ">
<path fill="none" stroke="#63b8ff" d="M76.35,-50.67C92.38,-52.83 111.37,-55.39 128.68,-57.73"/>
<polygon fill="#63b8ff" stroke="#63b8ff" points="127.88,-61.15 138.26,-59.02 128.82,-54.22 127.88,-61.15"/>
</a>
</g>
</g>
<!-- Node3 -->
<g id="Node000003" class="node">
<title>Node3</title>
<g id="a_Node000003"><a xlink:href="../../d8/d40/_grid___computations_8cpp_a614d9bfab5b0ee048b9e08a296757c42.html#a614d9bfab5b0ee048b9e08a296757c42" target="_top" xlink:title=" ">
<polygon fill="white" stroke="#666666" points="249.5,-37.25 112,-37.25 112,-18 249.5,-18 249.5,-37.25"/>
<text text-anchor="middle" x="180.75" y="-23.75" font-family="Helvetica,sans-Serif" font-size="10.00">Sort_Points_AntiClockWise</text>
</a>
</g>
</g>
<!-- Node1&#45;&gt;Node3 -->
<g id="edge2_Node000001_Node000003" class="edge">
<title>Node1&#45;&gt;Node3</title>
<g id="a_edge2_Node000001_Node000003"><a xlink:title=" ">
<path fill="none" stroke="#63b8ff" d="M76.35,-40.85C83.85,-39.89 92,-38.85 100.32,-37.78"/>
<polygon fill="#63b8ff" stroke="#63b8ff" points="100.76,-41.26 110.23,-36.52 99.87,-34.31 100.76,-41.26"/>
</a>
</g>
</g>
<!-- Node4 -->
<g id="Node000004" class="node">
<title>Node4</title>
<g id="a_Node000004"><a xlink:href="../../d8/d40/_grid___computations_8cpp_a0bdffb27693c14d6cb4ef62eb5bd5d7f.html#a0bdffb27693c14d6cb4ef62eb5bd5d7f" target="_top" xlink:title="Sorts a set of points in anti&#45;clockwise order around their centroid.">
<polygon fill="white" stroke="#666666" points="453.75,-56.25 285.5,-56.25 285.5,-37 453.75,-37 453.75,-56.25"/>
<text text-anchor="middle" x="369.62" y="-42.75" font-family="Helvetica,sans-Serif" font-size="10.00">Are_Points_Sorted_AntiClockWise</text>
</a>
</g>
</g>
<!-- Node3&#45;&gt;Node4 -->
<g id="edge3_Node000003_Node000004" class="edge">
<title>Node3&#45;&gt;Node4</title>
<g id="a_edge3_Node000003_Node000004"><a xlink:title=" ">
<path fill="none" stroke="#63b8ff" d="M249.74,-34.54C257.55,-35.33 265.61,-36.15 273.68,-36.97"/>
<polygon fill="#63b8ff" stroke="#63b8ff" points="273.27,-40.45 283.57,-37.98 273.98,-33.48 273.27,-40.45"/>
</a>
</g>
</g>
<!-- Node5 -->
<g id="Node000005" class="node">
<title>Node5</title>
<g id="a_Node000005"><a xlink:href="../../d8/d40/_grid___computations_8cpp_a4dd07afd2a0f939b4d47bfa1088912c4.html#a4dd07afd2a0f939b4d47bfa1088912c4" target="_top" xlink:title=" ">
<polygon fill="white" stroke="#666666" points="418.5,-19.25 320.75,-19.25 320.75,0 418.5,0 418.5,-19.25"/>
<text text-anchor="middle" x="369.62" y="-5.75" font-family="Helvetica,sans-Serif" font-size="10.00">Compute_Centroid</text>
</a>
</g>
</g>
<!-- Node3&#45;&gt;Node5 -->
<g id="edge4_Node000003_Node000005" class="edge">
<title>Node3&#45;&gt;Node5</title>
<g id="a_edge4_Node000003_Node000005"><a xlink:title=" ">
<path fill="none" stroke="#63b8ff" d="M249.74,-21.08C269.1,-19.21 290.04,-17.19 308.87,-15.38"/>
<polygon fill="#63b8ff" stroke="#63b8ff" points="309.16,-18.87 318.78,-14.43 308.49,-11.9 309.16,-18.87"/>
</a>
</g>
</g>
</g>
</svg>
