<?xml version="1.0" encoding="UTF-8" standalone="no"?>
<!DOCTYPE svg PUBLIC "-//W3C//DTD SVG 1.1//EN"
 "http://www.w3.org/Graphics/SVG/1.1/DTD/svg11.dtd">
<!-- Generated by graphviz version 12.2.1 (20241206.2353)
 -->
<!-- Title: mapFacesToCells Pages: 1 -->
<svg width="464pt" height="64pt"
 viewBox="0.00 0.00 464.25 64.25" xmlns="http://www.w3.org/2000/svg" xmlns:xlink="http://www.w3.org/1999/xlink">
<g id="graph0" class="graph" transform="scale(1 1) rotate(0) translate(4 60.25)">
<title>mapFacesToCells</title>
<!-- Node1 -->
<g id="Node000001" class="node">
<title>Node1</title>
<g id="a_Node000001"><a xlink:title=" ">
<polygon fill="#999999" stroke="#666666" points="456.25,-37.25 361.5,-37.25 361.5,-18 456.25,-18 456.25,-37.25"/>
<text text-anchor="middle" x="408.88" y="-23.75" font-family="Helvetica,sans-Serif" font-size="10.00">mapFacesToCells</text>
</a>
</g>
</g>
<!-- Node2 -->
<g id="Node000002" class="node">
<title>Node2</title>
<g id="a_Node000002"><a xlink:href="../../d0/ded/_read___gmsh___file_8cpp_a9ee7224f2c410fa22e26e50b31924869.html#a9ee7224f2c410fa22e26e50b31924869" target="_top" xlink:title=" ">
<polygon fill="white" stroke="#666666" points="325.5,-37.25 222.5,-37.25 222.5,-18 325.5,-18 325.5,-37.25"/>
<text text-anchor="middle" x="274" y="-23.75" font-family="Helvetica,sans-Serif" font-size="10.00">Identify_Neighbours</text>
</a>
</g>
</g>
<!-- Node1&#45;&gt;Node2 -->
<g id="edge1_Node000001_Node000002" class="edge">
<title>Node1&#45;&gt;Node2</title>
<g id="a_edge1_Node000001_Node000002"><a xlink:title=" ">
<path fill="none" stroke="#63b8ff" d="M349.63,-27.62C341.74,-27.62 333.69,-27.62 325.94,-27.62"/>
<polygon fill="#63b8ff" stroke="#63b8ff" points="349.51,-31.13 359.51,-27.63 349.51,-24.13 349.51,-31.13"/>
</a>
</g>
</g>
<!-- Node3 -->
<g id="Node000003" class="node">
<title>Node3</title>
<g id="a_Node000003"><a xlink:href="../../d6/da1/_half___cylinder_8cpp_ae66f6b31b5ad750f1fe042a706a4e3d4.html#ae66f6b31b5ad750f1fe042a706a4e3d4" target="_top" xlink:title=" ">
<polygon fill="white" stroke="#666666" points="148.25,-56.25 111.25,-56.25 111.25,-37 148.25,-37 148.25,-56.25"/>
<text text-anchor="middle" x="129.75" y="-42.75" font-family="Helvetica,sans-Serif" font-size="10.00">main</text>
</a>
</g>
</g>
<!-- Node2&#45;&gt;Node3 -->
<g id="edge2_Node000002_Node000003" class="edge">
<title>Node2&#45;&gt;Node3</title>
<g id="a_edge2_Node000002_Node000003"><a xlink:title=" ">
<path fill="none" stroke="#63b8ff" d="M210.72,-35.94C188.08,-38.97 164.23,-42.15 148.53,-44.25"/>
<polygon fill="#63b8ff" stroke="#63b8ff" points="211.1,-39.42 220.55,-34.63 210.17,-32.49 211.1,-39.42"/>
</a>
</g>
</g>
<!-- Node4 -->
<g id="Node000004" class="node">
<title>Node4</title>
<g id="a_Node000004"><a xlink:href="../../d0/ded/_read___gmsh___file_8cpp_a18c26bf3782f581573a5750c5b693fe2.html#a18c26bf3782f581573a5750c5b693fe2" target="_top" xlink:title=" ">
<polygon fill="white" stroke="#666666" points="186.5,-19.25 73,-19.25 73,0 186.5,0 186.5,-19.25"/>
<text text-anchor="middle" x="129.75" y="-5.75" font-family="Helvetica,sans-Serif" font-size="10.00">Read_GmshVTK_Grid</text>
</a>
</g>
</g>
<!-- Node2&#45;&gt;Node4 -->
<g id="edge3_Node000002_Node000004" class="edge">
<title>Node2&#45;&gt;Node4</title>
<g id="a_edge3_Node000002_Node000004"><a xlink:title=" ">
<path fill="none" stroke="#63b8ff" d="M210.82,-19.76C202.78,-18.74 194.58,-17.7 186.65,-16.7"/>
<polygon fill="#63b8ff" stroke="#63b8ff" points="210.18,-23.2 220.54,-20.99 211.06,-16.26 210.18,-23.2"/>
</a>
</g>
</g>
<!-- Node5 -->
<g id="Node000005" class="node">
<title>Node5</title>
<g id="a_Node000005"><a xlink:href="../../d7/d48/_test___gmsh___reader_8cpp_a0ddf1224851353fc92bfbff6f499fa97.html#a0ddf1224851353fc92bfbff6f499fa97" target="_top" xlink:title=" ">
<polygon fill="white" stroke="#666666" points="37,-19.25 0,-19.25 0,0 37,0 37,-19.25"/>
<text text-anchor="middle" x="18.5" y="-5.75" font-family="Helvetica,sans-Serif" font-size="10.00">main</text>
</a>
</g>
</g>
<!-- Node4&#45;&gt;Node5 -->
<g id="edge4_Node000004_Node000005" class="edge">
<title>Node4&#45;&gt;Node5</title>
<g id="a_edge4_Node000004_Node000005"><a xlink:title=" ">
<path fill="none" stroke="#63b8ff" d="M61.27,-9.62C52.52,-9.62 44.24,-9.62 37.39,-9.62"/>
<polygon fill="#63b8ff" stroke="#63b8ff" points="61.01,-13.13 71.01,-9.63 61.01,-6.13 61.01,-13.13"/>
</a>
</g>
</g>
</g>
</svg>
