<?xml version="1.0" encoding="UTF-8" standalone="no"?>
<!DOCTYPE svg PUBLIC "-//W3C//DTD SVG 1.1//EN"
 "http://www.w3.org/Graphics/SVG/1.1/DTD/svg11.dtd">
<!-- Generated by graphviz version 12.2.1 (20241206.2353)
 -->
<!-- Title: main Pages: 1 -->
<svg width="271pt" height="64pt"
 viewBox="0.00 0.00 270.50 64.25" xmlns="http://www.w3.org/2000/svg" xmlns:xlink="http://www.w3.org/1999/xlink">
<g id="graph0" class="graph" transform="scale(1 1) rotate(0) translate(4 60.25)">
<title>main</title>
<!-- Node1 -->
<g id="Node000001" class="node">
<title>Node1</title>
<g id="a_Node000001"><a xlink:title=" ">
<polygon fill="#999999" stroke="#666666" points="37,-37.25 0,-37.25 0,-18 37,-18 37,-37.25"/>
<text text-anchor="middle" x="18.5" y="-23.75" font-family="Helvetica,sans-Serif" font-size="10.00">main</text>
</a>
</g>
</g>
<!-- Node2 -->
<g id="Node000002" class="node">
<title>Node2</title>
<g id="a_Node000002"><a xlink:href="../../da/da8/2_d___grid___gen_8cpp_a15bc367cec55d1080a19a6090010021b.html#a15bc367cec55d1080a19a6090010021b" target="_top" xlink:title=" ">
<polygon fill="white" stroke="#666666" points="153.5,-56.25 74.5,-56.25 74.5,-37 153.5,-37 153.5,-56.25"/>
<text text-anchor="middle" x="114" y="-42.75" font-family="Helvetica,sans-Serif" font-size="10.00">define_regions</text>
</a>
</g>
</g>
<!-- Node1&#45;&gt;Node2 -->
<g id="edge1_Node000001_Node000002" class="edge">
<title>Node1&#45;&gt;Node2</title>
<g id="a_edge1_Node000001_Node000002"><a xlink:title=" ">
<path fill="none" stroke="#63b8ff" d="M37.09,-31.2C44.61,-32.73 53.82,-34.6 63.2,-36.5"/>
<polygon fill="#63b8ff" stroke="#63b8ff" points="62.2,-39.87 72.7,-38.44 63.6,-33.01 62.2,-39.87"/>
</a>
</g>
</g>
<!-- Node4 -->
<g id="Node000004" class="node">
<title>Node4</title>
<g id="a_Node000004"><a xlink:href="../../da/da8/2_d___grid___gen_8cpp_a79c1733c02301f8835c579c5777f5dd6.html#a79c1733c02301f8835c579c5777f5dd6" target="_top" xlink:title=" ">
<polygon fill="white" stroke="#666666" points="155,-19.25 73,-19.25 73,0 155,0 155,-19.25"/>
<text text-anchor="middle" x="114" y="-5.75" font-family="Helvetica,sans-Serif" font-size="10.00">grid_generation</text>
</a>
</g>
</g>
<!-- Node1&#45;&gt;Node4 -->
<g id="edge3_Node000001_Node000004" class="edge">
<title>Node1&#45;&gt;Node4</title>
<g id="a_edge3_Node000001_Node000004"><a xlink:title=" ">
<path fill="none" stroke="#63b8ff" d="M37.09,-24.24C44.15,-22.88 52.7,-21.23 61.48,-19.54"/>
<polygon fill="#63b8ff" stroke="#63b8ff" points="61.97,-23.01 71.13,-17.69 60.65,-16.14 61.97,-23.01"/>
</a>
</g>
</g>
<!-- Node3 -->
<g id="Node000003" class="node">
<title>Node3</title>
<g id="a_Node000003"><a xlink:href="../../da/da8/2_d___grid___gen_8cpp_a0b162194d8b1f6e552209b7ef4b93aa5.html#a0b162194d8b1f6e552209b7ef4b93aa5" target="_top" xlink:title=" ">
<polygon fill="white" stroke="#666666" points="262.5,-56.25 191,-56.25 191,-37 262.5,-37 262.5,-56.25"/>
<text text-anchor="middle" x="226.75" y="-42.75" font-family="Helvetica,sans-Serif" font-size="10.00">create_block</text>
</a>
</g>
</g>
<!-- Node2&#45;&gt;Node3 -->
<g id="edge2_Node000002_Node000003" class="edge">
<title>Node2&#45;&gt;Node3</title>
<g id="a_edge2_Node000002_Node000003"><a xlink:title=" ">
<path fill="none" stroke="#63b8ff" d="M153.73,-46.62C161.97,-46.62 170.74,-46.62 179.23,-46.62"/>
<polygon fill="#63b8ff" stroke="#63b8ff" points="179.04,-50.13 189.04,-46.63 179.04,-43.13 179.04,-50.13"/>
</a>
</g>
</g>
</g>
</svg>
