<?xml version="1.0" encoding="UTF-8" standalone="no"?>
<!DOCTYPE svg PUBLIC "-//W3C//DTD SVG 1.1//EN"
 "http://www.w3.org/Graphics/SVG/1.1/DTD/svg11.dtd">
<!-- Generated by graphviz version 12.2.1 (20241206.2353)
 -->
<!-- Title: Numerical_Methods/Parallel_Numerical_Method.cpp Pages: 1 -->
<svg width="2865pt" height="149pt"
 viewBox="0.00 0.00 2864.88 149.00" xmlns="http://www.w3.org/2000/svg" xmlns:xlink="http://www.w3.org/1999/xlink">
<g id="graph0" class="graph" transform="scale(1 1) rotate(0) translate(4 145)">
<title>Numerical_Methods/Parallel_Numerical_Method.cpp</title>
<!-- Node1 -->
<g id="Node000001" class="node">
<title>Node1</title>
<g id="a_Node000001"><a xlink:title=" ">
<polygon fill="#999999" stroke="#666666" points="1273.88,-141 1135.62,-141 1135.62,-110.5 1273.88,-110.5 1273.88,-141"/>
<text text-anchor="start" x="1143.62" y="-127.5" font-family="Helvetica,sans-Serif" font-size="10.00">Numerical_Methods/Parallel</text>
<text text-anchor="middle" x="1204.75" y="-116.25" font-family="Helvetica,sans-Serif" font-size="10.00">_Numerical_Method.cpp</text>
</a>
</g>
</g>
<!-- Node2 -->
<g id="Node000002" class="node">
<title>Node2</title>
<g id="a_Node000002"><a xlink:href="../../d6/dc2/definitions_8h.html" target="_top" xlink:title="Header file containing global constants, structures, and function declarations for the solver.">
<polygon fill="white" stroke="#666666" points="1208.5,-74.5 1077,-74.5 1077,-55.25 1208.5,-55.25 1208.5,-74.5"/>
<text text-anchor="middle" x="1142.75" y="-61" font-family="Helvetica,sans-Serif" font-size="10.00">../Basic_Files/definitions.h</text>
</a>
</g>
</g>
<!-- Node1&#45;&gt;Node2 -->
<g id="edge1_Node000001_Node000002" class="edge">
<title>Node1&#45;&gt;Node2</title>
<g id="a_edge1_Node000001_Node000002"><a xlink:title=" ">
<path fill="none" stroke="#63b8ff" d="M1189.42,-110.2C1180.71,-101.92 1169.75,-91.52 1160.65,-82.87"/>
<polygon fill="#63b8ff" stroke="#63b8ff" points="1163.07,-80.34 1153.41,-75.99 1158.25,-85.42 1163.07,-80.34"/>
</a>
</g>
</g>
<!-- Node37 -->
<g id="Node000037" class="node">
<title>Node37</title>
<g id="a_Node000037"><a xlink:title=" ">
<polygon fill="#e0e0e0" stroke="#999999" points="1309.12,-74.5 1226.38,-74.5 1226.38,-55.25 1309.12,-55.25 1309.12,-74.5"/>
<text text-anchor="middle" x="1267.75" y="-61" font-family="Helvetica,sans-Serif" font-size="10.00">cuda_runtime.h</text>
</a>
</g>
</g>
<!-- Node1&#45;&gt;Node37 -->
<g id="edge36_Node000001_Node000037" class="edge">
<title>Node1&#45;&gt;Node37</title>
<g id="a_edge36_Node000001_Node000037"><a xlink:title=" ">
<path fill="none" stroke="#63b8ff" d="M1220.32,-110.2C1229.27,-101.84 1240.54,-91.3 1249.85,-82.6"/>
<polygon fill="#63b8ff" stroke="#63b8ff" points="1252.02,-85.37 1256.93,-75.98 1247.24,-80.26 1252.02,-85.37"/>
</a>
</g>
</g>
<!-- Node3 -->
<g id="Node000003" class="node">
<title>Node3</title>
<g id="a_Node000003"><a xlink:title=" ">
<polygon fill="#e0e0e0" stroke="#999999" points="53.5,-19.25 0,-19.25 0,0 53.5,0 53.5,-19.25"/>
<text text-anchor="middle" x="26.75" y="-5.75" font-family="Helvetica,sans-Serif" font-size="10.00">iostream</text>
</a>
</g>
</g>
<!-- Node2&#45;&gt;Node3 -->
<g id="edge2_Node000002_Node000003" class="edge">
<title>Node2&#45;&gt;Node3</title>
<g id="a_edge2_Node000002_Node000003"><a xlink:title=" ">
<path fill="none" stroke="#63b8ff" d="M1076.84,-62.88C877.31,-59.62 280.8,-47.81 64.99,-19.39"/>
<polygon fill="#63b8ff" stroke="#63b8ff" points="65.66,-15.95 55.28,-18.06 64.71,-22.89 65.66,-15.95"/>
</a>
</g>
</g>
<!-- Node4 -->
<g id="Node000004" class="node">
<title>Node4</title>
<g id="a_Node000004"><a xlink:title=" ">
<polygon fill="#e0e0e0" stroke="#999999" points="120.25,-19.25 71.25,-19.25 71.25,0 120.25,0 120.25,-19.25"/>
<text text-anchor="middle" x="95.75" y="-5.75" font-family="Helvetica,sans-Serif" font-size="10.00">fstream</text>
</a>
</g>
</g>
<!-- Node2&#45;&gt;Node4 -->
<g id="edge3_Node000002_Node000004" class="edge">
<title>Node2&#45;&gt;Node4</title>
<g id="a_edge3_Node000002_Node000004"><a xlink:title=" ">
<path fill="none" stroke="#63b8ff" d="M1076.81,-62.8C885.93,-59.39 334.13,-47.46 131.88,-19.35"/>
<polygon fill="#63b8ff" stroke="#63b8ff" points="132.4,-15.89 122,-17.91 131.39,-22.82 132.4,-15.89"/>
</a>
</g>
</g>
<!-- Node5 -->
<g id="Node000005" class="node">
<title>Node5</title>
<g id="a_Node000005"><a xlink:title=" ">
<polygon fill="#e0e0e0" stroke="#999999" points="181.25,-19.25 138.25,-19.25 138.25,0 181.25,0 181.25,-19.25"/>
<text text-anchor="middle" x="159.75" y="-5.75" font-family="Helvetica,sans-Serif" font-size="10.00">vector</text>
</a>
</g>
</g>
<!-- Node2&#45;&gt;Node5 -->
<g id="edge4_Node000002_Node000005" class="edge">
<title>Node2&#45;&gt;Node5</title>
<g id="a_edge4_Node000002_Node000005"><a xlink:title=" ">
<path fill="none" stroke="#63b8ff" d="M1076.54,-62.7C893.59,-59.17 382.78,-47.19 192.86,-19.11"/>
<polygon fill="#63b8ff" stroke="#63b8ff" points="193.54,-15.67 183.13,-17.6 192.47,-22.59 193.54,-15.67"/>
</a>
</g>
</g>
<!-- Node6 -->
<g id="Node000006" class="node">
<title>Node6</title>
<g id="a_Node000006"><a xlink:title=" ">
<polygon fill="#e0e0e0" stroke="#999999" points="239.75,-19.25 199.75,-19.25 199.75,0 239.75,0 239.75,-19.25"/>
<text text-anchor="middle" x="219.75" y="-5.75" font-family="Helvetica,sans-Serif" font-size="10.00">string</text>
</a>
</g>
</g>
<!-- Node2&#45;&gt;Node6 -->
<g id="edge5_Node000002_Node000006" class="edge">
<title>Node2&#45;&gt;Node6</title>
<g id="a_edge5_Node000002_Node000006"><a xlink:title=" ">
<path fill="none" stroke="#63b8ff" d="M1076.73,-62.63C901.92,-59 428.87,-47.02 251.45,-19.22"/>
<polygon fill="#63b8ff" stroke="#63b8ff" points="252.13,-15.79 241.69,-17.61 250.99,-22.69 252.13,-15.79"/>
</a>
</g>
</g>
<!-- Node7 -->
<g id="Node000007" class="node">
<title>Node7</title>
<g id="a_Node000007"><a xlink:title=" ">
<polygon fill="#e0e0e0" stroke="#999999" points="301.25,-19.25 258.25,-19.25 258.25,0 301.25,0 301.25,-19.25"/>
<text text-anchor="middle" x="279.75" y="-5.75" font-family="Helvetica,sans-Serif" font-size="10.00">cmath</text>
</a>
</g>
</g>
<!-- Node2&#45;&gt;Node7 -->
<g id="edge6_Node000002_Node000007" class="edge">
<title>Node2&#45;&gt;Node7</title>
<g id="a_edge6_Node000002_Node000007"><a xlink:title=" ">
<path fill="none" stroke="#63b8ff" d="M1076.76,-62.19C910.74,-57.66 477.81,-43.98 312.59,-19.08"/>
<polygon fill="#63b8ff" stroke="#63b8ff" points="313.55,-15.69 303.13,-17.59 312.46,-22.61 313.55,-15.69"/>
</a>
</g>
</g>
<!-- Node8 -->
<g id="Node000008" class="node">
<title>Node8</title>
<g id="a_Node000008"><a xlink:title=" ">
<polygon fill="#e0e0e0" stroke="#999999" points="370,-19.25 319.5,-19.25 319.5,0 370,0 370,-19.25"/>
<text text-anchor="middle" x="344.75" y="-5.75" font-family="Helvetica,sans-Serif" font-size="10.00">typeinfo</text>
</a>
</g>
</g>
<!-- Node2&#45;&gt;Node8 -->
<g id="edge7_Node000002_Node000008" class="edge">
<title>Node2&#45;&gt;Node8</title>
<g id="a_edge7_Node000002_Node000008"><a xlink:title=" ">
<path fill="none" stroke="#63b8ff" d="M1076.64,-64.22C945.54,-64 643.35,-58.96 381.52,-19.38"/>
<polygon fill="#63b8ff" stroke="#63b8ff" points="382.17,-15.94 371.76,-17.88 381.11,-22.86 382.17,-15.94"/>
</a>
</g>
</g>
<!-- Node9 -->
<g id="Node000009" class="node">
<title>Node9</title>
<g id="a_Node000009"><a xlink:title=" ">
<polygon fill="#e0e0e0" stroke="#999999" points="437.62,-19.25 387.88,-19.25 387.88,0 437.62,0 437.62,-19.25"/>
<text text-anchor="middle" x="412.75" y="-5.75" font-family="Helvetica,sans-Serif" font-size="10.00">iomanip</text>
</a>
</g>
</g>
<!-- Node2&#45;&gt;Node9 -->
<g id="edge8_Node000002_Node000009" class="edge">
<title>Node2&#45;&gt;Node9</title>
<g id="a_edge8_Node000002_Node000009"><a xlink:title=" ">
<path fill="none" stroke="#63b8ff" d="M1076.57,-63.68C954.29,-62.44 684.69,-55.59 449.09,-19.3"/>
<polygon fill="#63b8ff" stroke="#63b8ff" points="449.81,-15.87 439.39,-17.79 448.73,-22.79 449.81,-15.87"/>
</a>
</g>
</g>
<!-- Node10 -->
<g id="Node000010" class="node">
<title>Node10</title>
<g id="a_Node000010"><a xlink:title=" ">
<polygon fill="#e0e0e0" stroke="#999999" points="497.88,-19.25 455.62,-19.25 455.62,0 497.88,0 497.88,-19.25"/>
<text text-anchor="middle" x="476.75" y="-5.75" font-family="Helvetica,sans-Serif" font-size="10.00">cstdio</text>
</a>
</g>
</g>
<!-- Node2&#45;&gt;Node10 -->
<g id="edge9_Node000002_Node000010" class="edge">
<title>Node2&#45;&gt;Node10</title>
<g id="a_edge9_Node000002_Node000010"><a xlink:title=" ">
<path fill="none" stroke="#63b8ff" d="M1076.73,-63.79C962.62,-62.64 721.16,-55.87 509.58,-19.38"/>
<polygon fill="#63b8ff" stroke="#63b8ff" points="510.2,-15.93 499.74,-17.65 508.99,-22.83 510.2,-15.93"/>
</a>
</g>
</g>
<!-- Node11 -->
<g id="Node000011" class="node">
<title>Node11</title>
<g id="a_Node000011"><a xlink:title=" ">
<polygon fill="#e0e0e0" stroke="#999999" points="560,-19.25 515.5,-19.25 515.5,0 560,0 560,-19.25"/>
<text text-anchor="middle" x="537.75" y="-5.75" font-family="Helvetica,sans-Serif" font-size="10.00">cstdlib</text>
</a>
</g>
</g>
<!-- Node2&#45;&gt;Node11 -->
<g id="edge10_Node000002_Node000011" class="edge">
<title>Node2&#45;&gt;Node11</title>
<g id="a_edge10_Node000002_Node000011"><a xlink:title=" ">
<path fill="none" stroke="#63b8ff" d="M1076.81,-62.89C971.62,-60.41 759.36,-51.7 571.52,-19.41"/>
<polygon fill="#63b8ff" stroke="#63b8ff" points="572.27,-15.99 561.81,-17.71 571.06,-22.88 572.27,-15.99"/>
</a>
</g>
</g>
<!-- Node12 -->
<g id="Node000012" class="node">
<title>Node12</title>
<g id="a_Node000012"><a xlink:title=" ">
<polygon fill="#e0e0e0" stroke="#999999" points="633.62,-19.25 577.88,-19.25 577.88,0 633.62,0 633.62,-19.25"/>
<text text-anchor="middle" x="605.75" y="-5.75" font-family="Helvetica,sans-Serif" font-size="10.00">algorithm</text>
</a>
</g>
</g>
<!-- Node2&#45;&gt;Node12 -->
<g id="edge11_Node000002_Node000012" class="edge">
<title>Node2&#45;&gt;Node12</title>
<g id="a_edge11_Node000002_Node000012"><a xlink:title=" ">
<path fill="none" stroke="#63b8ff" d="M1076.87,-60.94C983.04,-56.11 805.42,-44.56 644.98,-19.38"/>
<polygon fill="#63b8ff" stroke="#63b8ff" points="645.87,-15.98 635.45,-17.87 644.77,-22.9 645.87,-15.98"/>
</a>
</g>
</g>
<!-- Node13 -->
<g id="Node000013" class="node">
<title>Node13</title>
<g id="a_Node000013"><a xlink:title=" ">
<polygon fill="#e0e0e0" stroke="#999999" points="697.38,-19.25 652.12,-19.25 652.12,0 697.38,0 697.38,-19.25"/>
<text text-anchor="middle" x="674.75" y="-5.75" font-family="Helvetica,sans-Serif" font-size="10.00">chrono</text>
</a>
</g>
</g>
<!-- Node2&#45;&gt;Node13 -->
<g id="edge12_Node000002_Node000013" class="edge">
<title>Node2&#45;&gt;Node13</title>
<g id="a_edge12_Node000002_Node000013"><a xlink:title=" ">
<path fill="none" stroke="#63b8ff" d="M1076.54,-60.43C992.95,-55.34 844.65,-43.85 708.73,-19.31"/>
<polygon fill="#63b8ff" stroke="#63b8ff" points="709.68,-15.93 699.21,-17.57 708.41,-22.81 709.68,-15.93"/>
</a>
</g>
</g>
<!-- Node14 -->
<g id="Node000014" class="node">
<title>Node14</title>
<g id="a_Node000014"><a xlink:title=" ">
<polygon fill="#e0e0e0" stroke="#999999" points="755.75,-19.25 715.75,-19.25 715.75,0 755.75,0 755.75,-19.25"/>
<text text-anchor="middle" x="735.75" y="-5.75" font-family="Helvetica,sans-Serif" font-size="10.00">cfloat</text>
</a>
</g>
</g>
<!-- Node2&#45;&gt;Node14 -->
<g id="edge13_Node000002_Node000014" class="edge">
<title>Node2&#45;&gt;Node14</title>
<g id="a_edge13_Node000002_Node000014"><a xlink:title=" ">
<path fill="none" stroke="#63b8ff" d="M1076.65,-59.52C1003.13,-53.91 880.78,-42.29 767.2,-19.44"/>
<polygon fill="#63b8ff" stroke="#63b8ff" points="768.22,-16.07 757.72,-17.49 766.81,-22.93 768.22,-16.07"/>
</a>
</g>
</g>
<!-- Node15 -->
<g id="Node000015" class="node">
<title>Node15</title>
<g id="a_Node000015"><a xlink:title=" ">
<polygon fill="#e0e0e0" stroke="#999999" points="835.25,-19.25 774.25,-19.25 774.25,0 835.25,0 835.25,-19.25"/>
<text text-anchor="middle" x="804.75" y="-5.75" font-family="Helvetica,sans-Serif" font-size="10.00">filesystem</text>
</a>
</g>
</g>
<!-- Node2&#45;&gt;Node15 -->
<g id="edge14_Node000002_Node000015" class="edge">
<title>Node2&#45;&gt;Node15</title>
<g id="a_edge14_Node000002_Node000015"><a xlink:title=" ">
<path fill="none" stroke="#63b8ff" d="M1076.56,-55.2C1018.58,-47.31 931.8,-34.84 846.87,-19.54"/>
<polygon fill="#63b8ff" stroke="#63b8ff" points="847.67,-16.12 837.21,-17.78 846.42,-23.01 847.67,-16.12"/>
</a>
</g>
</g>
<!-- Node16 -->
<g id="Node000016" class="node">
<title>Node16</title>
<g id="a_Node000016"><a xlink:title=" ">
<polygon fill="#e0e0e0" stroke="#999999" points="888.12,-19.25 853.38,-19.25 853.38,0 888.12,0 888.12,-19.25"/>
<text text-anchor="middle" x="870.75" y="-5.75" font-family="Helvetica,sans-Serif" font-size="10.00">map</text>
</a>
</g>
</g>
<!-- Node2&#45;&gt;Node16 -->
<g id="edge15_Node000002_Node000016" class="edge">
<title>Node2&#45;&gt;Node16</title>
<g id="a_edge15_Node000002_Node000016"><a xlink:title=" ">
<path fill="none" stroke="#63b8ff" d="M1080.35,-54.79C1033.08,-47.39 966.39,-35.84 899.17,-19.31"/>
<polygon fill="#63b8ff" stroke="#63b8ff" points="900.39,-16.01 889.84,-16.98 898.7,-22.8 900.39,-16.01"/>
</a>
</g>
</g>
<!-- Node17 -->
<g id="Node000017" class="node">
<title>Node17</title>
<g id="a_Node000017"><a xlink:title=" ">
<polygon fill="#e0e0e0" stroke="#999999" points="965.12,-19.25 906.38,-19.25 906.38,0 965.12,0 965.12,-19.25"/>
<text text-anchor="middle" x="935.75" y="-5.75" font-family="Helvetica,sans-Serif" font-size="10.00">stdexcept</text>
</a>
</g>
</g>
<!-- Node2&#45;&gt;Node17 -->
<g id="edge16_Node000002_Node000017" class="edge">
<title>Node2&#45;&gt;Node17</title>
<g id="a_edge16_Node000002_Node000017"><a xlink:title=" ">
<path fill="none" stroke="#63b8ff" d="M1107.64,-54.84C1071.21,-45.47 1014.32,-30.84 976.07,-21"/>
<polygon fill="#63b8ff" stroke="#63b8ff" points="977.35,-17.71 966.79,-18.61 975.61,-24.49 977.35,-17.71"/>
</a>
</g>
</g>
<!-- Node18 -->
<g id="Node000018" class="node">
<title>Node18</title>
<g id="a_Node000018"><a xlink:title=" ">
<polygon fill="#e0e0e0" stroke="#999999" points="1034.38,-19.25 983.12,-19.25 983.12,0 1034.38,0 1034.38,-19.25"/>
<text text-anchor="middle" x="1008.75" y="-5.75" font-family="Helvetica,sans-Serif" font-size="10.00">sstream</text>
</a>
</g>
</g>
<!-- Node2&#45;&gt;Node18 -->
<g id="edge17_Node000002_Node000018" class="edge">
<title>Node2&#45;&gt;Node18</title>
<g id="a_edge17_Node000002_Node000018"><a xlink:title=" ">
<path fill="none" stroke="#63b8ff" d="M1120.02,-54.84C1098.65,-46.35 1066.41,-33.54 1042.12,-23.89"/>
<polygon fill="#63b8ff" stroke="#63b8ff" points="1043.59,-20.7 1033,-20.26 1041,-27.21 1043.59,-20.7"/>
</a>
</g>
</g>
<!-- Node19 -->
<g id="Node000019" class="node">
<title>Node19</title>
<g id="a_Node000019"><a xlink:title=" ">
<polygon fill="#e0e0e0" stroke="#999999" points="1135.12,-19.25 1052.38,-19.25 1052.38,0 1135.12,0 1135.12,-19.25"/>
<text text-anchor="middle" x="1093.75" y="-5.75" font-family="Helvetica,sans-Serif" font-size="10.00">unordered_map</text>
</a>
</g>
</g>
<!-- Node2&#45;&gt;Node19 -->
<g id="edge18_Node000002_Node000019" class="edge">
<title>Node2&#45;&gt;Node19</title>
<g id="a_edge18_Node000002_Node000019"><a xlink:title=" ">
<path fill="none" stroke="#63b8ff" d="M1134.66,-55.08C1127.89,-47.73 1118.03,-37.01 1109.69,-27.94"/>
<polygon fill="#63b8ff" stroke="#63b8ff" points="1112.39,-25.71 1103.04,-20.72 1107.24,-30.45 1112.39,-25.71"/>
</a>
</g>
</g>
<!-- Node20 -->
<g id="Node000020" class="node">
<title>Node20</title>
<g id="a_Node000020"><a xlink:title=" ">
<polygon fill="#e0e0e0" stroke="#999999" points="1230.5,-19.25 1153,-19.25 1153,0 1230.5,0 1230.5,-19.25"/>
<text text-anchor="middle" x="1191.75" y="-5.75" font-family="Helvetica,sans-Serif" font-size="10.00">unordered_set</text>
</a>
</g>
</g>
<!-- Node2&#45;&gt;Node20 -->
<g id="edge19_Node000002_Node000020" class="edge">
<title>Node2&#45;&gt;Node20</title>
<g id="a_edge19_Node000002_Node000020"><a xlink:title=" ">
<path fill="none" stroke="#63b8ff" d="M1150.84,-55.08C1157.61,-47.73 1167.47,-37.01 1175.81,-27.94"/>
<polygon fill="#63b8ff" stroke="#63b8ff" points="1178.26,-30.45 1182.46,-20.72 1173.11,-25.71 1178.26,-30.45"/>
</a>
</g>
</g>
<!-- Node21 -->
<g id="Node000021" class="node">
<title>Node21</title>
<g id="a_Node000021"><a xlink:title=" ">
<polygon fill="#e0e0e0" stroke="#999999" points="1285.25,-19.25 1248.25,-19.25 1248.25,0 1285.25,0 1285.25,-19.25"/>
<text text-anchor="middle" x="1266.75" y="-5.75" font-family="Helvetica,sans-Serif" font-size="10.00">tuple</text>
</a>
</g>
</g>
<!-- Node2&#45;&gt;Node21 -->
<g id="edge20_Node000002_Node000021" class="edge">
<title>Node2&#45;&gt;Node21</title>
<g id="a_edge20_Node000002_Node000021"><a xlink:title=" ">
<path fill="none" stroke="#63b8ff" d="M1163.78,-54.84C1184.09,-46.12 1215.01,-32.84 1237.67,-23.11"/>
<polygon fill="#63b8ff" stroke="#63b8ff" points="1238.85,-26.41 1246.66,-19.25 1236.09,-19.98 1238.85,-26.41"/>
</a>
</g>
</g>
<!-- Node22 -->
<g id="Node000022" class="node">
<title>Node22</title>
<g id="a_Node000022"><a xlink:title=" ">
<polygon fill="#e0e0e0" stroke="#999999" points="1332.5,-19.25 1303,-19.25 1303,0 1332.5,0 1332.5,-19.25"/>
<text text-anchor="middle" x="1317.75" y="-5.75" font-family="Helvetica,sans-Serif" font-size="10.00">set</text>
</a>
</g>
</g>
<!-- Node2&#45;&gt;Node22 -->
<g id="edge21_Node000002_Node000022" class="edge">
<title>Node2&#45;&gt;Node22</title>
<g id="a_edge21_Node000002_Node000022"><a xlink:title=" ">
<path fill="none" stroke="#63b8ff" d="M1176.18,-54.82C1204.82,-46.89 1247.4,-34.73 1291.96,-20.03"/>
<polygon fill="#63b8ff" stroke="#63b8ff" points="1292.9,-23.41 1301.28,-16.92 1290.68,-16.76 1292.9,-23.41"/>
</a>
</g>
</g>
<!-- Node23 -->
<g id="Node000023" class="node">
<title>Node23</title>
<g id="a_Node000023"><a xlink:title=" ">
<polygon fill="#e0e0e0" stroke="#999999" points="1444.75,-19.25 1350.75,-19.25 1350.75,0 1444.75,0 1444.75,-19.25"/>
<text text-anchor="middle" x="1397.75" y="-5.75" font-family="Helvetica,sans-Serif" font-size="10.00">vtkSmartPointer.h</text>
</a>
</g>
</g>
<!-- Node2&#45;&gt;Node23 -->
<g id="edge22_Node000002_Node000023" class="edge">
<title>Node2&#45;&gt;Node23</title>
<g id="a_edge22_Node000002_Node000023"><a xlink:title=" ">
<path fill="none" stroke="#63b8ff" d="M1186.3,-54.78C1229.66,-45.73 1296.35,-31.8 1343.22,-22.01"/>
<polygon fill="#63b8ff" stroke="#63b8ff" points="1343.83,-25.46 1352.9,-19.99 1342.4,-18.61 1343.83,-25.46"/>
</a>
</g>
</g>
<!-- Node24 -->
<g id="Node000024" class="node">
<title>Node24</title>
<g id="a_Node000024"><a xlink:title=" ">
<polygon fill="#e0e0e0" stroke="#999999" points="1574.75,-19.25 1462.75,-19.25 1462.75,0 1574.75,0 1574.75,-19.25"/>
<text text-anchor="middle" x="1518.75" y="-5.75" font-family="Helvetica,sans-Serif" font-size="10.00">vtkUnstructuredGrid.h</text>
</a>
</g>
</g>
<!-- Node2&#45;&gt;Node24 -->
<g id="edge23_Node000002_Node000024" class="edge">
<title>Node2&#45;&gt;Node24</title>
<g id="a_edge23_Node000002_Node000024"><a xlink:title=" ">
<path fill="none" stroke="#63b8ff" d="M1206.96,-54.78C1275.01,-45.14 1382.01,-29.99 1451.28,-20.18"/>
<polygon fill="#63b8ff" stroke="#63b8ff" points="1451.57,-23.67 1460.98,-18.81 1450.59,-16.74 1451.57,-23.67"/>
</a>
</g>
</g>
<!-- Node25 -->
<g id="Node000025" class="node">
<title>Node25</title>
<g id="a_Node000025"><a xlink:title=" ">
<polygon fill="#e0e0e0" stroke="#999999" points="1735.12,-19.25 1592.38,-19.25 1592.38,0 1735.12,0 1735.12,-19.25"/>
<text text-anchor="middle" x="1663.75" y="-5.75" font-family="Helvetica,sans-Serif" font-size="10.00">vtkUnstructuredGridReader.h</text>
</a>
</g>
</g>
<!-- Node2&#45;&gt;Node25 -->
<g id="edge24_Node000002_Node000025" class="edge">
<title>Node2&#45;&gt;Node25</title>
<g id="a_edge24_Node000002_Node000025"><a xlink:title=" ">
<path fill="none" stroke="#63b8ff" d="M1209,-56.2C1211.95,-55.87 1214.88,-55.56 1217.75,-55.25 1376.63,-38.3 1419.26,-36.1 1580.89,-19.54"/>
<polygon fill="#63b8ff" stroke="#63b8ff" points="1581.13,-23.03 1590.72,-18.52 1580.41,-16.07 1581.13,-23.03"/>
</a>
</g>
</g>
<!-- Node26 -->
<g id="Node000026" class="node">
<title>Node26</title>
<g id="a_Node000026"><a xlink:title=" ">
<polygon fill="#e0e0e0" stroke="#999999" points="1814.62,-19.25 1752.88,-19.25 1752.88,0 1814.62,0 1814.62,-19.25"/>
<text text-anchor="middle" x="1783.75" y="-5.75" font-family="Helvetica,sans-Serif" font-size="10.00">vtkIdList.h</text>
</a>
</g>
</g>
<!-- Node2&#45;&gt;Node26 -->
<g id="edge25_Node000002_Node000026" class="edge">
<title>Node2&#45;&gt;Node26</title>
<g id="a_edge25_Node000002_Node000026"><a xlink:title=" ">
<path fill="none" stroke="#63b8ff" d="M1208.99,-56.09C1211.95,-55.79 1214.88,-55.51 1217.75,-55.25 1447.45,-34.19 1509.79,-51.47 1741.23,-19.4"/>
<polygon fill="#63b8ff" stroke="#63b8ff" points="1741.47,-22.9 1750.88,-18.05 1740.5,-15.97 1741.47,-22.9"/>
</a>
</g>
</g>
<!-- Node27 -->
<g id="Node000027" class="node">
<title>Node27</title>
<g id="a_Node000027"><a xlink:title=" ">
<polygon fill="#e0e0e0" stroke="#999999" points="1908.75,-19.25 1832.75,-19.25 1832.75,0 1908.75,0 1908.75,-19.25"/>
<text text-anchor="middle" x="1870.75" y="-5.75" font-family="Helvetica,sans-Serif" font-size="10.00">vtkCellData.h</text>
</a>
</g>
</g>
<!-- Node2&#45;&gt;Node27 -->
<g id="edge26_Node000002_Node000027" class="edge">
<title>Node2&#45;&gt;Node27</title>
<g id="a_edge26_Node000002_Node000027"><a xlink:title=" ">
<path fill="none" stroke="#63b8ff" d="M1208.98,-56.06C1211.94,-55.77 1214.88,-55.5 1217.75,-55.25 1482.86,-32.15 1553.96,-51.13 1821.11,-19.42"/>
<polygon fill="#63b8ff" stroke="#63b8ff" points="1821.32,-22.92 1830.83,-18.25 1820.49,-15.97 1821.32,-22.92"/>
</a>
</g>
</g>
<!-- Node28 -->
<g id="Node000028" class="node">
<title>Node28</title>
<g id="a_Node000028"><a xlink:title=" ">
<polygon fill="#e0e0e0" stroke="#999999" points="1992.5,-19.25 1927,-19.25 1927,0 1992.5,0 1992.5,-19.25"/>
<text text-anchor="middle" x="1959.75" y="-5.75" font-family="Helvetica,sans-Serif" font-size="10.00">vtkPoints.h</text>
</a>
</g>
</g>
<!-- Node2&#45;&gt;Node28 -->
<g id="edge27_Node000002_Node000028" class="edge">
<title>Node2&#45;&gt;Node28</title>
<g id="a_edge27_Node000002_Node000028"><a xlink:title=" ">
<path fill="none" stroke="#63b8ff" d="M1208.98,-56.03C1211.94,-55.75 1214.88,-55.49 1217.75,-55.25 1524.56,-29.74 1606.82,-58.02 1915.73,-19.29"/>
<polygon fill="#63b8ff" stroke="#63b8ff" points="1915.83,-22.8 1925.31,-18.07 1914.95,-15.86 1915.83,-22.8"/>
</a>
</g>
</g>
<!-- Node29 -->
<g id="Node000029" class="node">
<title>Node29</title>
<g id="a_Node000029"><a xlink:title=" ">
<polygon fill="#e0e0e0" stroke="#999999" points="2109,-19.25 2010.5,-19.25 2010.5,0 2109,0 2109,-19.25"/>
<text text-anchor="middle" x="2059.75" y="-5.75" font-family="Helvetica,sans-Serif" font-size="10.00">vtkFeatureEdges.h</text>
</a>
</g>
</g>
<!-- Node2&#45;&gt;Node29 -->
<g id="edge28_Node000002_Node000029" class="edge">
<title>Node2&#45;&gt;Node29</title>
<g id="a_edge28_Node000002_Node000029"><a xlink:title=" ">
<path fill="none" stroke="#63b8ff" d="M1208.98,-56.01C1211.94,-55.74 1214.88,-55.48 1217.75,-55.25 1561.71,-27.61 1652.63,-52.4 1998.75,-19.44"/>
<polygon fill="#63b8ff" stroke="#63b8ff" points="1998.99,-22.93 2008.61,-18.49 1998.32,-15.96 1998.99,-22.93"/>
</a>
</g>
</g>
<!-- Node30 -->
<g id="Node000030" class="node">
<title>Node30</title>
<g id="a_Node000030"><a xlink:title=" ">
<polygon fill="#e0e0e0" stroke="#999999" points="2250.38,-19.25 2127.12,-19.25 2127.12,0 2250.38,0 2250.38,-19.25"/>
<text text-anchor="middle" x="2188.75" y="-5.75" font-family="Helvetica,sans-Serif" font-size="10.00">vtkXMLPolyDataWriter.h</text>
</a>
</g>
</g>
<!-- Node2&#45;&gt;Node30 -->
<g id="edge29_Node000002_Node000030" class="edge">
<title>Node2&#45;&gt;Node30</title>
<g id="a_edge29_Node000002_Node000030"><a xlink:title=" ">
<path fill="none" stroke="#63b8ff" d="M1208.98,-55.99C1211.94,-55.72 1214.88,-55.47 1217.75,-55.25 1613.17,-24.65 1716.81,-50.92 2115.54,-19.35"/>
<polygon fill="#63b8ff" stroke="#63b8ff" points="2115.63,-22.85 2125.32,-18.57 2115.07,-15.88 2115.63,-22.85"/>
</a>
</g>
</g>
<!-- Node31 -->
<g id="Node000031" class="node">
<title>Node31</title>
<g id="a_Node000031"><a xlink:title=" ">
<polygon fill="#e0e0e0" stroke="#999999" points="2346.88,-19.25 2268.62,-19.25 2268.62,0 2346.88,0 2346.88,-19.25"/>
<text text-anchor="middle" x="2307.75" y="-5.75" font-family="Helvetica,sans-Serif" font-size="10.00">vtkPolyData.h</text>
</a>
</g>
</g>
<!-- Node2&#45;&gt;Node31 -->
<g id="edge30_Node000002_Node000031" class="edge">
<title>Node2&#45;&gt;Node31</title>
<g id="a_edge30_Node000002_Node000031"><a xlink:title=" ">
<path fill="none" stroke="#63b8ff" d="M1208.98,-55.97C1211.94,-55.71 1214.87,-55.46 1217.75,-55.25 1676.13,-21.03 1797.03,-67.59 2256.99,-19.38"/>
<polygon fill="#63b8ff" stroke="#63b8ff" points="2257.18,-22.88 2266.76,-18.34 2256.44,-15.91 2257.18,-22.88"/>
</a>
</g>
</g>
<!-- Node32 -->
<g id="Node000032" class="node">
<title>Node32</title>
<g id="a_Node000032"><a xlink:title=" ">
<polygon fill="#e0e0e0" stroke="#999999" points="2450.62,-19.25 2364.88,-19.25 2364.88,0 2450.62,0 2450.62,-19.25"/>
<text text-anchor="middle" x="2407.75" y="-5.75" font-family="Helvetica,sans-Serif" font-size="10.00">boost/regex.hpp</text>
</a>
</g>
</g>
<!-- Node2&#45;&gt;Node32 -->
<g id="edge31_Node000002_Node000032" class="edge">
<title>Node2&#45;&gt;Node32</title>
<g id="a_edge31_Node000002_Node000032"><a xlink:title=" ">
<path fill="none" stroke="#63b8ff" d="M1208.98,-55.96C1211.94,-55.7 1214.87,-55.46 1217.75,-55.25 1718.73,-18.58 1850.23,-68.03 2353.2,-19.35"/>
<polygon fill="#63b8ff" stroke="#63b8ff" points="2353.28,-22.86 2362.89,-18.41 2352.6,-15.89 2353.28,-22.86"/>
</a>
</g>
</g>
<!-- Node33 -->
<g id="Node000033" class="node">
<title>Node33</title>
<g id="a_Node000033"><a xlink:title=" ">
<polygon fill="#e0e0e0" stroke="#999999" points="2547.25,-19.25 2468.25,-19.25 2468.25,0 2547.25,0 2547.25,-19.25"/>
<text text-anchor="middle" x="2507.75" y="-5.75" font-family="Helvetica,sans-Serif" font-size="10.00">jsoncpp/json.h</text>
</a>
</g>
</g>
<!-- Node2&#45;&gt;Node33 -->
<g id="edge32_Node000002_Node000033" class="edge">
<title>Node2&#45;&gt;Node33</title>
<g id="a_edge32_Node000002_Node000033"><a xlink:title=" ">
<path fill="none" stroke="#63b8ff" d="M1208.97,-55.95C1211.94,-55.69 1214.87,-55.46 1217.75,-55.25 1764.8,-15.94 1908.51,-75.42 2456.63,-19.41"/>
<polygon fill="#63b8ff" stroke="#63b8ff" points="2456.91,-22.9 2466.5,-18.39 2456.19,-15.94 2456.91,-22.9"/>
</a>
</g>
</g>
<!-- Node34 -->
<g id="Node000034" class="node">
<title>Node34</title>
<g id="a_Node000034"><a xlink:title=" ">
<polygon fill="#e0e0e0" stroke="#999999" points="2652.38,-19.25 2565.12,-19.25 2565.12,0 2652.38,0 2652.38,-19.25"/>
<text text-anchor="middle" x="2608.75" y="-5.75" font-family="Helvetica,sans-Serif" font-size="10.00">jsoncpp/reader.h</text>
</a>
</g>
</g>
<!-- Node2&#45;&gt;Node34 -->
<g id="edge33_Node000002_Node000034" class="edge">
<title>Node2&#45;&gt;Node34</title>
<g id="a_edge33_Node000002_Node000034"><a xlink:title=" ">
<path fill="none" stroke="#63b8ff" d="M1208.97,-55.94C1211.94,-55.69 1214.87,-55.45 1217.75,-55.25 1807.82,-13.47 1962.19,-75.3 2553.45,-19.43"/>
<polygon fill="#63b8ff" stroke="#63b8ff" points="2553.7,-22.92 2563.33,-18.49 2553.04,-15.95 2553.7,-22.92"/>
</a>
</g>
</g>
<!-- Node35 -->
<g id="Node000035" class="node">
<title>Node35</title>
<g id="a_Node000035"><a xlink:title=" ">
<polygon fill="#e0e0e0" stroke="#999999" points="2754.88,-19.25 2670.62,-19.25 2670.62,0 2754.88,0 2754.88,-19.25"/>
<text text-anchor="middle" x="2712.75" y="-5.75" font-family="Helvetica,sans-Serif" font-size="10.00">jsoncpp/value.h</text>
</a>
</g>
</g>
<!-- Node2&#45;&gt;Node35 -->
<g id="edge34_Node000002_Node000035" class="edge">
<title>Node2&#45;&gt;Node35</title>
<g id="a_edge34_Node000002_Node000035"><a xlink:title=" ">
<path fill="none" stroke="#63b8ff" d="M1208.97,-55.93C1211.94,-55.68 1214.87,-55.45 1217.75,-55.25 1854.42,-10.8 2020.8,-80.11 2658.9,-19.37"/>
<polygon fill="#63b8ff" stroke="#63b8ff" points="2659.11,-22.87 2668.73,-18.43 2658.44,-15.9 2659.11,-22.87"/>
</a>
</g>
</g>
<!-- Node36 -->
<g id="Node000036" class="node">
<title>Node36</title>
<g id="a_Node000036"><a xlink:title=" ">
<polygon fill="#e0e0e0" stroke="#999999" points="2856.88,-19.25 2772.62,-19.25 2772.62,0 2856.88,0 2856.88,-19.25"/>
<text text-anchor="middle" x="2814.75" y="-5.75" font-family="Helvetica,sans-Serif" font-size="10.00">jsoncpp/writer.h</text>
</a>
</g>
</g>
<!-- Node2&#45;&gt;Node36 -->
<g id="edge35_Node000002_Node000036" class="edge">
<title>Node2&#45;&gt;Node36</title>
<g id="a_edge35_Node000002_Node000036"><a xlink:title=" ">
<path fill="none" stroke="#63b8ff" d="M1208.97,-55.93C1211.94,-55.68 1214.87,-55.45 1217.75,-55.25 1899.65,-8.2 2077.63,-83.88 2760.87,-19.37"/>
<polygon fill="#63b8ff" stroke="#63b8ff" points="2761.1,-22.86 2770.73,-18.43 2760.44,-15.89 2761.1,-22.86"/>
</a>
</g>
</g>
</g>
</svg>
