<?xml version="1.0" encoding="UTF-8" standalone="no"?>
<!DOCTYPE svg PUBLIC "-//W3C//DTD SVG 1.1//EN"
 "http://www.w3.org/Graphics/SVG/1.1/DTD/svg11.dtd">
<!-- Generated by graphviz version 12.2.1 (20241206.2353)
 -->
<!-- Title: Calculate_Gradient_On_Face Pages: 1 -->
<svg width="744pt" height="150pt"
 viewBox="0.00 0.00 743.75 149.88" xmlns="http://www.w3.org/2000/svg" xmlns:xlink="http://www.w3.org/1999/xlink">
<g id="graph0" class="graph" transform="scale(1 1) rotate(0) translate(4 145.88)">
<title>Calculate_Gradient_On_Face</title>
<!-- Node1 -->
<g id="Node000001" class="node">
<title>Node1</title>
<g id="a_Node000001"><a xlink:title="Calculate the gradient on a face of a cell.">
<polygon fill="#999999" stroke="#666666" points="735.75,-79.88 636.5,-79.88 636.5,-49.38 735.75,-49.38 735.75,-79.88"/>
<text text-anchor="start" x="644.5" y="-66.38" font-family="Helvetica,sans-Serif" font-size="10.00">Calculate_Gradient</text>
<text text-anchor="middle" x="686.12" y="-55.12" font-family="Helvetica,sans-Serif" font-size="10.00">_On_Face</text>
</a>
</g>
</g>
<!-- Node2 -->
<g id="Node000002" class="node">
<title>Node2</title>
<g id="a_Node000002"><a xlink:href="../../db/d81/_viscous___calculations_8cpp_a5d9a0b19b8197154141a02ed0e831e26.html#a5d9a0b19b8197154141a02ed0e831e26" target="_top" xlink:title=" ">
<polygon fill="white" stroke="#666666" points="590.75,-141.88 487.75,-141.88 487.75,-111.38 590.75,-111.38 590.75,-141.88"/>
<text text-anchor="start" x="495.75" y="-128.38" font-family="Helvetica,sans-Serif" font-size="10.00">Evaluate_Wall_Skin</text>
<text text-anchor="middle" x="539.25" y="-117.12" font-family="Helvetica,sans-Serif" font-size="10.00">_Friction</text>
</a>
</g>
</g>
<!-- Node1&#45;&gt;Node2 -->
<g id="edge1_Node000001_Node000002" class="edge">
<title>Node1&#45;&gt;Node2</title>
<g id="a_edge1_Node000001_Node000002"><a xlink:title=" ">
<path fill="none" stroke="#63b8ff" d="M640.61,-85.05C627.72,-90.84 613.59,-97.08 600.5,-102.62 593.97,-105.39 587,-108.25 580.21,-110.99"/>
<polygon fill="#63b8ff" stroke="#63b8ff" points="642.05,-88.24 649.72,-80.93 639.16,-81.86 642.05,-88.24"/>
</a>
</g>
</g>
<!-- Node7 -->
<g id="Node000007" class="node">
<title>Node7</title>
<g id="a_Node000007"><a xlink:href="../../df/d57/_implicit___momentum_8cpp_a50230f674dde72ccf48cc520de73d726.html#a50230f674dde72ccf48cc520de73d726" target="_top" xlink:title=" ">
<polygon fill="white" stroke="#666666" points="600.5,-93.25 478,-93.25 478,-74 600.5,-74 600.5,-93.25"/>
<text text-anchor="middle" x="539.25" y="-79.75" font-family="Helvetica,sans-Serif" font-size="10.00">Velocity_Corrector_Step</text>
</a>
</g>
</g>
<!-- Node1&#45;&gt;Node7 -->
<g id="edge6_Node000001_Node000007" class="edge">
<title>Node1&#45;&gt;Node7</title>
<g id="a_edge6_Node000001_Node000007"><a xlink:title=" ">
<path fill="none" stroke="#63b8ff" d="M624.69,-72.55C616.8,-73.59 608.71,-74.65 600.81,-75.68"/>
<polygon fill="#63b8ff" stroke="#63b8ff" points="625.12,-76.03 634.58,-71.25 624.21,-69.08 625.12,-76.03"/>
</a>
</g>
</g>
<!-- Node9 -->
<g id="Node000009" class="node">
<title>Node9</title>
<g id="a_Node000009"><a xlink:href="../../df/d57/_implicit___momentum_8cpp_a720a0d00cec4bc0ffdc40e69de036355.html#a720a0d00cec4bc0ffdc40e69de036355" target="_top" xlink:title=" ">
<polygon fill="white" stroke="#666666" points="599.75,-56.25 478.75,-56.25 478.75,-37 599.75,-37 599.75,-56.25"/>
<text text-anchor="middle" x="539.25" y="-42.75" font-family="Helvetica,sans-Serif" font-size="10.00">Velocity_Predictor_Step</text>
</a>
</g>
</g>
<!-- Node1&#45;&gt;Node9 -->
<g id="edge8_Node000001_Node000009" class="edge">
<title>Node1&#45;&gt;Node9</title>
<g id="a_edge8_Node000001_Node000009"><a xlink:title=" ">
<path fill="none" stroke="#63b8ff" d="M624.72,-57.12C616.56,-56.11 608.19,-55.07 600.05,-54.05"/>
<polygon fill="#63b8ff" stroke="#63b8ff" points="624.22,-60.58 634.57,-58.34 625.08,-53.64 624.22,-60.58"/>
</a>
</g>
</g>
<!-- Node10 -->
<g id="Node000010" class="node">
<title>Node10</title>
<g id="a_Node000010"><a xlink:href="../../d4/d5d/_grid___refine___functions_8cpp_a3a0810f5dcad0d068c35cb8aa9180be4.html#a3a0810f5dcad0d068c35cb8aa9180be4" target="_top" xlink:title=" ">
<polygon fill="white" stroke="#666666" points="598.25,-19.25 480.25,-19.25 480.25,0 598.25,0 598.25,-19.25"/>
<text text-anchor="middle" x="539.25" y="-5.75" font-family="Helvetica,sans-Serif" font-size="10.00">Viscous_Flux_on_Face</text>
</a>
</g>
</g>
<!-- Node1&#45;&gt;Node10 -->
<g id="edge10_Node000001_Node000010" class="edge">
<title>Node1&#45;&gt;Node10</title>
<g id="a_edge10_Node000001_Node000010"><a xlink:title=" ">
<path fill="none" stroke="#63b8ff" d="M641.6,-44.38C628.52,-38.63 614.04,-32.59 600.5,-27.62 592.81,-24.81 584.46,-22.1 576.49,-19.67"/>
<polygon fill="#63b8ff" stroke="#63b8ff" points="639.8,-47.41 650.36,-48.29 642.65,-41.02 639.8,-47.41"/>
</a>
</g>
</g>
<!-- Node3 -->
<g id="Node000003" class="node">
<title>Node3</title>
<g id="a_Node000003"><a xlink:href="../../de/df0/_solver_8cpp_a313c308da18b517cb3cf0384db6d4d7e.html#a313c308da18b517cb3cf0384db6d4d7e" target="_top" xlink:title=" ">
<polygon fill="white" stroke="#666666" points="263.62,-99.25 179.38,-99.25 179.38,-80 263.62,-80 263.62,-99.25"/>
<text text-anchor="middle" x="221.5" y="-85.75" font-family="Helvetica,sans-Serif" font-size="10.00">Viscous_Solver</text>
</a>
</g>
</g>
<!-- Node2&#45;&gt;Node3 -->
<g id="edge2_Node000002_Node000003" class="edge">
<title>Node2&#45;&gt;Node3</title>
<g id="a_edge2_Node000002_Node000003"><a xlink:title=" ">
<path fill="none" stroke="#63b8ff" d="M475.87,-126.41C430.4,-125.43 367.43,-122.38 312.75,-113.62 292.9,-110.45 271.1,-104.72 253.91,-99.65"/>
<polygon fill="#63b8ff" stroke="#63b8ff" points="475.76,-129.91 485.82,-126.59 475.89,-122.91 475.76,-129.91"/>
</a>
</g>
</g>
<!-- Node6 -->
<g id="Node000006" class="node">
<title>Node6</title>
<g id="a_Node000006"><a xlink:href="../../d4/df3/_turbulence___integration_8cpp_a564537a29550f0d8ec11e8ef76cd2b3a.html#a564537a29550f0d8ec11e8ef76cd2b3a" target="_top" xlink:title="Modified viscous solver with turbulence model integration.">
<polygon fill="white" stroke="#666666" points="432.25,-104.88 322.5,-104.88 322.5,-74.38 432.25,-74.38 432.25,-104.88"/>
<text text-anchor="start" x="330.5" y="-91.38" font-family="Helvetica,sans-Serif" font-size="10.00">Viscous_Solver_With</text>
<text text-anchor="middle" x="377.38" y="-80.12" font-family="Helvetica,sans-Serif" font-size="10.00">_Turbulence</text>
</a>
</g>
</g>
<!-- Node2&#45;&gt;Node6 -->
<g id="edge5_Node000002_Node000006" class="edge">
<title>Node2&#45;&gt;Node6</title>
<g id="a_edge5_Node000002_Node000006"><a xlink:title=" ">
<path fill="none" stroke="#63b8ff" d="M476.72,-112.39C462.15,-109.01 446.72,-105.44 432.5,-102.15"/>
<polygon fill="#63b8ff" stroke="#63b8ff" points="475.66,-115.73 486.19,-114.58 477.24,-108.91 475.66,-115.73"/>
</a>
</g>
</g>
<!-- Node4 -->
<g id="Node000004" class="node">
<title>Node4</title>
<g id="a_Node000004"><a xlink:href="../../d5/d12/_main_8cpp_afed4dca88e059a8cbd2c7af524468fe5.html#afed4dca88e059a8cbd2c7af524468fe5" target="_top" xlink:title="Executes the appropriate solver based on the simulation configuration.">
<polygon fill="white" stroke="#666666" points="130.25,-99.25 73,-99.25 73,-80 130.25,-80 130.25,-99.25"/>
<text text-anchor="middle" x="101.62" y="-85.75" font-family="Helvetica,sans-Serif" font-size="10.00">runSolver</text>
</a>
</g>
</g>
<!-- Node3&#45;&gt;Node4 -->
<g id="edge3_Node000003_Node000004" class="edge">
<title>Node3&#45;&gt;Node4</title>
<g id="a_edge3_Node000003_Node000004"><a xlink:title=" ">
<path fill="none" stroke="#63b8ff" d="M167.81,-89.62C154.96,-89.62 141.7,-89.62 130.53,-89.62"/>
<polygon fill="#63b8ff" stroke="#63b8ff" points="167.43,-93.13 177.43,-89.63 167.43,-86.13 167.43,-93.13"/>
</a>
</g>
</g>
<!-- Node5 -->
<g id="Node000005" class="node">
<title>Node5</title>
<g id="a_Node000005"><a xlink:href="../../d5/d12/_main_8cpp_a0ddf1224851353fc92bfbff6f499fa97.html#a0ddf1224851353fc92bfbff6f499fa97" target="_top" xlink:title=" ">
<polygon fill="white" stroke="#666666" points="37,-99.25 0,-99.25 0,-80 37,-80 37,-99.25"/>
<text text-anchor="middle" x="18.5" y="-85.75" font-family="Helvetica,sans-Serif" font-size="10.00">main</text>
</a>
</g>
</g>
<!-- Node4&#45;&gt;Node5 -->
<g id="edge4_Node000004_Node000005" class="edge">
<title>Node4&#45;&gt;Node5</title>
<g id="a_edge4_Node000004_Node000005"><a xlink:title=" ">
<path fill="none" stroke="#63b8ff" d="M61.38,-89.62C52.95,-89.62 44.43,-89.62 37.3,-89.62"/>
<polygon fill="#63b8ff" stroke="#63b8ff" points="61.19,-93.13 71.19,-89.63 61.19,-86.13 61.19,-93.13"/>
</a>
</g>
</g>
<!-- Node8 -->
<g id="Node000008" class="node">
<title>Node8</title>
<g id="a_Node000008"><a xlink:href="../../d4/d86/_incompressible___n_s_8cpp_a5e9f0a5f022b6318f83dd5a762785d1f.html#a5e9f0a5f022b6318f83dd5a762785d1f" target="_top" xlink:title=" ">
<polygon fill="white" stroke="#666666" points="433.38,-56.25 321.38,-56.25 321.38,-37 433.38,-37 433.38,-56.25"/>
<text text-anchor="middle" x="377.38" y="-42.75" font-family="Helvetica,sans-Serif" font-size="10.00">InCompressibleSolver</text>
</a>
</g>
</g>
<!-- Node7&#45;&gt;Node8 -->
<g id="edge7_Node000007_Node000008" class="edge">
<title>Node7&#45;&gt;Node8</title>
<g id="a_edge7_Node000007_Node000008"><a xlink:title=" ">
<path fill="none" stroke="#63b8ff" d="M483.39,-70.93C463.34,-66.29 440.95,-61.11 422.01,-56.72"/>
<polygon fill="#63b8ff" stroke="#63b8ff" points="482.56,-74.33 493.09,-73.17 484.14,-67.51 482.56,-74.33"/>
</a>
</g>
</g>
<!-- Node9&#45;&gt;Node8 -->
<g id="edge9_Node000009_Node000008" class="edge">
<title>Node9&#45;&gt;Node8</title>
<g id="a_edge9_Node000009_Node000008"><a xlink:title=" ">
<path fill="none" stroke="#63b8ff" d="M466.8,-46.62C455.69,-46.62 444.36,-46.62 433.68,-46.62"/>
<polygon fill="#63b8ff" stroke="#63b8ff" points="466.75,-50.13 476.75,-46.63 466.75,-43.13 466.75,-50.13"/>
</a>
</g>
</g>
<!-- Node11 -->
<g id="Node000011" class="node">
<title>Node11</title>
<g id="a_Node000011"><a xlink:href="../../d4/d5d/_grid___refine___functions_8cpp_a23f2145125f9b089e43c4c69c4a8905c.html#a23f2145125f9b089e43c4c69c4a8905c" target="_top" xlink:title=" ">
<polygon fill="white" stroke="#666666" points="442,-19.25 312.75,-19.25 312.75,0 442,0 442,-19.25"/>
<text text-anchor="middle" x="377.38" y="-5.75" font-family="Helvetica,sans-Serif" font-size="10.00">Evaluate_Viscous_Fluxes</text>
</a>
</g>
</g>
<!-- Node10&#45;&gt;Node11 -->
<g id="edge11_Node000010_Node000011" class="edge">
<title>Node10&#45;&gt;Node11</title>
<g id="a_edge11_Node000010_Node000011"><a xlink:title=" ">
<path fill="none" stroke="#63b8ff" d="M468.73,-9.62C460,-9.62 451.09,-9.62 442.45,-9.62"/>
<polygon fill="#63b8ff" stroke="#63b8ff" points="468.57,-13.13 478.57,-9.63 468.57,-6.13 468.57,-13.13"/>
</a>
</g>
</g>
<!-- Node11&#45;&gt;Node3 -->
<g id="edge13_Node000011_Node000003" class="edge">
<title>Node11&#45;&gt;Node3</title>
<g id="a_edge13_Node000011_Node000003"><a xlink:title=" ">
<path fill="none" stroke="#63b8ff" d="M322.96,-23.33C319.45,-24.66 316.02,-26.09 312.75,-27.62 282.29,-41.92 250.81,-66.09 234.28,-79.64"/>
<polygon fill="#63b8ff" stroke="#63b8ff" points="323.84,-26.73 332.15,-20.15 321.55,-20.11 323.84,-26.73"/>
</a>
</g>
</g>
<!-- Node12 -->
<g id="Node000012" class="node">
<title>Node12</title>
<g id="a_Node000012"><a xlink:href="../../de/d22/_cuda___parallel___r_k_8cpp_a794f030971fbb7c9dd4bc08df03f50f1.html#a794f030971fbb7c9dd4bc08df03f50f1" target="_top" xlink:title=" ">
<polygon fill="white" stroke="#666666" points="276.75,-19.25 166.25,-19.25 166.25,0 276.75,0 276.75,-19.25"/>
<text text-anchor="middle" x="221.5" y="-5.75" font-family="Helvetica,sans-Serif" font-size="10.00">Runge_Kutta_Method</text>
</a>
</g>
</g>
<!-- Node11&#45;&gt;Node12 -->
<g id="edge12_Node000011_Node000012" class="edge">
<title>Node11&#45;&gt;Node12</title>
<g id="a_edge12_Node000011_Node000012"><a xlink:title=" ">
<path fill="none" stroke="#63b8ff" d="M301.1,-9.62C293.03,-9.62 284.93,-9.62 277.17,-9.62"/>
<polygon fill="#63b8ff" stroke="#63b8ff" points="300.94,-13.13 310.94,-9.63 300.94,-6.13 300.94,-13.13"/>
</a>
</g>
</g>
</g>
</svg>
