<?xml version="1.0" encoding="UTF-8" standalone="no"?>
<!DOCTYPE svg PUBLIC "-//W3C//DTD SVG 1.1//EN"
 "http://www.w3.org/Graphics/SVG/1.1/DTD/svg11.dtd">
<!-- Generated by graphviz version 12.2.1 (20241206.2353)
 -->
<!-- Title: Viscous_Flux_on_Face Pages: 1 -->
<svg width="604pt" height="64pt"
 viewBox="0.00 0.00 604.00 64.25" xmlns="http://www.w3.org/2000/svg" xmlns:xlink="http://www.w3.org/1999/xlink">
<g id="graph0" class="graph" transform="scale(1 1) rotate(0) translate(4 60.25)">
<title>Viscous_Flux_on_Face</title>
<!-- Node1 -->
<g id="Node000001" class="node">
<title>Node1</title>
<g id="a_Node000001"><a xlink:title=" ">
<polygon fill="#999999" stroke="#666666" points="596,-37.25 478,-37.25 478,-18 596,-18 596,-37.25"/>
<text text-anchor="middle" x="537" y="-23.75" font-family="Helvetica,sans-Serif" font-size="10.00">Viscous_Flux_on_Face</text>
</a>
</g>
</g>
<!-- Node2 -->
<g id="Node000002" class="node">
<title>Node2</title>
<g id="a_Node000002"><a xlink:href="../../d4/d5d/_grid___refine___functions_8cpp_a23f2145125f9b089e43c4c69c4a8905c.html#a23f2145125f9b089e43c4c69c4a8905c" target="_top" xlink:title=" ">
<polygon fill="white" stroke="#666666" points="442,-37.25 312.75,-37.25 312.75,-18 442,-18 442,-37.25"/>
<text text-anchor="middle" x="377.38" y="-23.75" font-family="Helvetica,sans-Serif" font-size="10.00">Evaluate_Viscous_Fluxes</text>
</a>
</g>
</g>
<!-- Node1&#45;&gt;Node2 -->
<g id="edge1_Node000001_Node000002" class="edge">
<title>Node1&#45;&gt;Node2</title>
<g id="a_edge1_Node000001_Node000002"><a xlink:title=" ">
<path fill="none" stroke="#63b8ff" d="M466.28,-27.62C458.36,-27.62 450.32,-27.62 442.48,-27.62"/>
<polygon fill="#63b8ff" stroke="#63b8ff" points="466.24,-31.13 476.24,-27.63 466.24,-24.13 466.24,-31.13"/>
</a>
</g>
</g>
<!-- Node3 -->
<g id="Node000003" class="node">
<title>Node3</title>
<g id="a_Node000003"><a xlink:href="../../de/d22/_cuda___parallel___r_k_8cpp_a794f030971fbb7c9dd4bc08df03f50f1.html#a794f030971fbb7c9dd4bc08df03f50f1" target="_top" xlink:title=" ">
<polygon fill="white" stroke="#666666" points="276.75,-56.25 166.25,-56.25 166.25,-37 276.75,-37 276.75,-56.25"/>
<text text-anchor="middle" x="221.5" y="-42.75" font-family="Helvetica,sans-Serif" font-size="10.00">Runge_Kutta_Method</text>
</a>
</g>
</g>
<!-- Node2&#45;&gt;Node3 -->
<g id="edge2_Node000002_Node000003" class="edge">
<title>Node2&#45;&gt;Node3</title>
<g id="a_edge2_Node000002_Node000003"><a xlink:title=" ">
<path fill="none" stroke="#63b8ff" d="M301.1,-36.92C293.03,-37.92 284.93,-38.92 277.17,-39.88"/>
<polygon fill="#63b8ff" stroke="#63b8ff" points="301.46,-40.4 310.95,-35.7 300.6,-33.46 301.46,-40.4"/>
</a>
</g>
</g>
<!-- Node4 -->
<g id="Node000004" class="node">
<title>Node4</title>
<g id="a_Node000004"><a xlink:href="../../de/df0/_solver_8cpp_a313c308da18b517cb3cf0384db6d4d7e.html#a313c308da18b517cb3cf0384db6d4d7e" target="_top" xlink:title=" ">
<polygon fill="white" stroke="#666666" points="263.62,-19.25 179.38,-19.25 179.38,0 263.62,0 263.62,-19.25"/>
<text text-anchor="middle" x="221.5" y="-5.75" font-family="Helvetica,sans-Serif" font-size="10.00">Viscous_Solver</text>
</a>
</g>
</g>
<!-- Node2&#45;&gt;Node4 -->
<g id="edge3_Node000002_Node000004" class="edge">
<title>Node2&#45;&gt;Node4</title>
<g id="a_edge3_Node000002_Node000004"><a xlink:title=" ">
<path fill="none" stroke="#63b8ff" d="M301.25,-18.84C288.45,-17.34 275.57,-15.83 264.05,-14.49"/>
<polygon fill="#63b8ff" stroke="#63b8ff" points="300.61,-22.29 310.95,-19.97 301.43,-15.33 300.61,-22.29"/>
</a>
</g>
</g>
<!-- Node5 -->
<g id="Node000005" class="node">
<title>Node5</title>
<g id="a_Node000005"><a xlink:href="../../d5/d12/_main_8cpp_afed4dca88e059a8cbd2c7af524468fe5.html#afed4dca88e059a8cbd2c7af524468fe5" target="_top" xlink:title="Executes the appropriate solver based on the simulation configuration.">
<polygon fill="white" stroke="#666666" points="130.25,-19.25 73,-19.25 73,0 130.25,0 130.25,-19.25"/>
<text text-anchor="middle" x="101.62" y="-5.75" font-family="Helvetica,sans-Serif" font-size="10.00">runSolver</text>
</a>
</g>
</g>
<!-- Node4&#45;&gt;Node5 -->
<g id="edge4_Node000004_Node000005" class="edge">
<title>Node4&#45;&gt;Node5</title>
<g id="a_edge4_Node000004_Node000005"><a xlink:title=" ">
<path fill="none" stroke="#63b8ff" d="M167.81,-9.62C154.96,-9.62 141.7,-9.62 130.53,-9.62"/>
<polygon fill="#63b8ff" stroke="#63b8ff" points="167.43,-13.13 177.43,-9.63 167.43,-6.13 167.43,-13.13"/>
</a>
</g>
</g>
<!-- Node6 -->
<g id="Node000006" class="node">
<title>Node6</title>
<g id="a_Node000006"><a xlink:href="../../d5/d12/_main_8cpp_a0ddf1224851353fc92bfbff6f499fa97.html#a0ddf1224851353fc92bfbff6f499fa97" target="_top" xlink:title=" ">
<polygon fill="white" stroke="#666666" points="37,-19.25 0,-19.25 0,0 37,0 37,-19.25"/>
<text text-anchor="middle" x="18.5" y="-5.75" font-family="Helvetica,sans-Serif" font-size="10.00">main</text>
</a>
</g>
</g>
<!-- Node5&#45;&gt;Node6 -->
<g id="edge5_Node000005_Node000006" class="edge">
<title>Node5&#45;&gt;Node6</title>
<g id="a_edge5_Node000005_Node000006"><a xlink:title=" ">
<path fill="none" stroke="#63b8ff" d="M61.38,-9.62C52.95,-9.62 44.43,-9.62 37.3,-9.62"/>
<polygon fill="#63b8ff" stroke="#63b8ff" points="61.19,-13.13 71.19,-9.63 61.19,-6.13 61.19,-13.13"/>
</a>
</g>
</g>
</g>
</svg>
