<?xml version="1.0" encoding="UTF-8" standalone="no"?>
<!DOCTYPE svg PUBLIC "-//W3C//DTD SVG 1.1//EN"
 "http://www.w3.org/Graphics/SVG/1.1/DTD/svg11.dtd">
<!-- Generated by graphviz version 12.2.1 (20241206.2353)
 -->
<!-- Title: Reference_Values Pages: 1 -->
<svg width="395pt" height="224pt"
 viewBox="0.00 0.00 395.00 223.88" xmlns="http://www.w3.org/2000/svg" xmlns:xlink="http://www.w3.org/1999/xlink">
<g id="graph0" class="graph" transform="scale(1 1) rotate(0) translate(4 219.88)">
<title>Reference_Values</title>
<!-- Node1 -->
<g id="Node000001" class="node">
<title>Node1</title>
<g id="a_Node000001"><a xlink:title=" ">
<polygon fill="#999999" stroke="#666666" points="387,-111.25 291.5,-111.25 291.5,-92 387,-92 387,-111.25"/>
<text text-anchor="middle" x="339.25" y="-97.75" font-family="Helvetica,sans-Serif" font-size="10.00">Reference_Values</text>
</a>
</g>
</g>
<!-- Node2 -->
<g id="Node000002" class="node">
<title>Node2</title>
<g id="a_Node000002"><a xlink:href="../../de/d81/_flat___plate___boundary___layer_8cpp_a787b29de4053181d716a19e7c4c9b705.html#a787b29de4053181d716a19e7c4c9b705" target="_top" xlink:title=" ">
<polygon fill="white" stroke="#666666" points="255.5,-215.88 148.75,-215.88 148.75,-185.38 255.5,-185.38 255.5,-215.88"/>
<text text-anchor="start" x="156.75" y="-202.38" font-family="Helvetica,sans-Serif" font-size="10.00">Flat_Plate_Boundary</text>
<text text-anchor="middle" x="202.12" y="-191.12" font-family="Helvetica,sans-Serif" font-size="10.00">_Layer</text>
</a>
</g>
</g>
<!-- Node1&#45;&gt;Node2 -->
<g id="edge1_Node000001_Node000002" class="edge">
<title>Node1&#45;&gt;Node2</title>
<g id="a_edge1_Node000001_Node000002"><a xlink:title=" ">
<path fill="none" stroke="#63b8ff" d="M321.31,-119.9C305.44,-136.26 280.49,-160.14 255.5,-176.62 250.99,-179.6 246.05,-182.39 241.07,-184.93"/>
<polygon fill="#63b8ff" stroke="#63b8ff" points="323.73,-122.43 328.08,-112.77 318.65,-117.61 323.73,-122.43"/>
</a>
</g>
</g>
<!-- Node4 -->
<g id="Node000004" class="node">
<title>Node4</title>
<g id="a_Node000004"><a xlink:href="../../da/d4b/_flow___over___bump_8cpp_abaa8184c0dd8aa3fdc37d585f0a7d0cc.html#abaa8184c0dd8aa3fdc37d585f0a7d0cc" target="_top" xlink:title=" ">
<polygon fill="white" stroke="#666666" points="249.12,-167.25 155.12,-167.25 155.12,-148 249.12,-148 249.12,-167.25"/>
<text text-anchor="middle" x="202.12" y="-153.75" font-family="Helvetica,sans-Serif" font-size="10.00">Flow_Over_Bump</text>
</a>
</g>
</g>
<!-- Node1&#45;&gt;Node4 -->
<g id="edge3_Node000001_Node000004" class="edge">
<title>Node1&#45;&gt;Node4</title>
<g id="a_edge3_Node000001_Node000004"><a xlink:title=" ">
<path fill="none" stroke="#63b8ff" d="M307.69,-116.54C292.21,-123.87 273.03,-132.61 255.5,-139.62 248.63,-142.38 241.15,-145.1 234.05,-147.57"/>
<polygon fill="#63b8ff" stroke="#63b8ff" points="308.88,-119.85 316.39,-112.38 305.86,-113.54 308.88,-119.85"/>
</a>
</g>
</g>
<!-- Node5 -->
<g id="Node000005" class="node">
<title>Node5</title>
<g id="a_Node000005"><a xlink:href="../../de/dc4/_o_e_d_8cpp_a1404a4711dcead4c50dd9eaa2ab7b7c0.html#a1404a4711dcead4c50dd9eaa2ab7b7c0" target="_top" xlink:title=" ">
<polygon fill="white" stroke="#666666" points="221,-130.25 183.25,-130.25 183.25,-111 221,-111 221,-130.25"/>
<text text-anchor="middle" x="202.12" y="-116.75" font-family="Helvetica,sans-Serif" font-size="10.00">OED</text>
</a>
</g>
</g>
<!-- Node1&#45;&gt;Node5 -->
<g id="edge5_Node000001_Node000005" class="edge">
<title>Node1&#45;&gt;Node5</title>
<g id="a_edge5_Node000001_Node000005"><a xlink:title=" ">
<path fill="none" stroke="#63b8ff" d="M280.14,-109.8C258.99,-112.77 236.59,-115.92 221.43,-118.05"/>
<polygon fill="#63b8ff" stroke="#63b8ff" points="280.46,-113.29 289.87,-108.43 279.48,-106.35 280.46,-113.29"/>
</a>
</g>
</g>
<!-- Node6 -->
<g id="Node000006" class="node">
<title>Node6</title>
<g id="a_Node000006"><a xlink:href="../../dd/de9/_ramp__15___degree_8cpp_af85931ed4e293dce5c8e4acafecd54b5.html#af85931ed4e293dce5c8e4acafecd54b5" target="_top" xlink:title=" ">
<polygon fill="white" stroke="#666666" points="249.5,-93.25 154.75,-93.25 154.75,-74 249.5,-74 249.5,-93.25"/>
<text text-anchor="middle" x="202.12" y="-79.75" font-family="Helvetica,sans-Serif" font-size="10.00">Ramp_15_Degree</text>
</a>
</g>
</g>
<!-- Node1&#45;&gt;Node6 -->
<g id="edge7_Node000001_Node000006" class="edge">
<title>Node1&#45;&gt;Node6</title>
<g id="a_edge7_Node000001_Node000006"><a xlink:title=" ">
<path fill="none" stroke="#63b8ff" d="M280.14,-93.88C270.05,-92.54 259.67,-91.16 249.92,-89.86"/>
<polygon fill="#63b8ff" stroke="#63b8ff" points="279.49,-97.33 289.87,-95.18 280.42,-90.39 279.49,-97.33"/>
</a>
</g>
</g>
<!-- Node7 -->
<g id="Node000007" class="node">
<title>Node7</title>
<g id="a_Node000007"><a xlink:href="../../d6/d4f/_shock___tube__2_d_8cpp_a634f5b7cf63cab96d3b48ed0b4df6ad4.html#a634f5b7cf63cab96d3b48ed0b4df6ad4" target="_top" xlink:title=" ">
<polygon fill="white" stroke="#666666" points="246.5,-56.25 157.75,-56.25 157.75,-37 246.5,-37 246.5,-56.25"/>
<text text-anchor="middle" x="202.12" y="-42.75" font-family="Helvetica,sans-Serif" font-size="10.00">Shock_Tube_2D</text>
</a>
</g>
</g>
<!-- Node1&#45;&gt;Node7 -->
<g id="edge9_Node000001_Node000007" class="edge">
<title>Node1&#45;&gt;Node7</title>
<g id="a_edge9_Node000001_Node000007"><a xlink:title=" ">
<path fill="none" stroke="#63b8ff" d="M307.02,-86.87C291.64,-79.81 272.75,-71.43 255.5,-64.62 248.61,-61.91 241.13,-59.2 234.03,-56.73"/>
<polygon fill="#63b8ff" stroke="#63b8ff" points="305.12,-89.85 315.67,-90.88 308.07,-83.49 305.12,-89.85"/>
</a>
</g>
</g>
<!-- Node8 -->
<g id="Node000008" class="node">
<title>Node8</title>
<g id="a_Node000008"><a xlink:href="../../d8/da5/_s_w_b_l_i_8cpp_aab1edbd94ae1737559f5140355148ed8.html#aab1edbd94ae1737559f5140355148ed8" target="_top" xlink:title=" ">
<polygon fill="white" stroke="#666666" points="225.88,-19.25 178.38,-19.25 178.38,0 225.88,0 225.88,-19.25"/>
<text text-anchor="middle" x="202.12" y="-5.75" font-family="Helvetica,sans-Serif" font-size="10.00">SWBLI</text>
</a>
</g>
</g>
<!-- Node1&#45;&gt;Node8 -->
<g id="edge11_Node000001_Node000008" class="edge">
<title>Node1&#45;&gt;Node8</title>
<g id="a_edge11_Node000001_Node000008"><a xlink:title=" ">
<path fill="none" stroke="#63b8ff" d="M321.88,-83.29C306.25,-66.75 281.31,-42.76 255.5,-27.62 246.46,-22.32 235.62,-18.27 226.16,-15.37"/>
<polygon fill="#63b8ff" stroke="#63b8ff" points="319.18,-85.52 328.53,-90.5 324.32,-80.78 319.18,-85.52"/>
</a>
</g>
</g>
<!-- Node3 -->
<g id="Node000003" class="node">
<title>Node3</title>
<g id="a_Node000003"><a xlink:href="../../dd/dbf/_euler___python___wrapper_8cpp_ac5ccb50c3be270f798e054dd36987442.html#ac5ccb50c3be270f798e054dd36987442" target="_top" xlink:title=" ">
<polygon fill="white" stroke="#666666" points="112.75,-111.25 0,-111.25 0,-92 112.75,-92 112.75,-111.25"/>
<text text-anchor="middle" x="56.38" y="-97.75" font-family="Helvetica,sans-Serif" font-size="10.00">PYBIND11_MODULE</text>
</a>
</g>
</g>
<!-- Node2&#45;&gt;Node3 -->
<g id="edge2_Node000002_Node000003" class="edge">
<title>Node2&#45;&gt;Node3</title>
<g id="a_edge2_Node000002_Node000003"><a xlink:title=" ">
<path fill="none" stroke="#63b8ff" d="M153.78,-179.63C152.07,-178.65 150.38,-177.65 148.75,-176.62 116.9,-156.72 83.89,-126.95 67.66,-111.59"/>
<polygon fill="#63b8ff" stroke="#63b8ff" points="152.06,-182.68 162.53,-184.29 155.35,-176.5 152.06,-182.68"/>
</a>
</g>
</g>
<!-- Node4&#45;&gt;Node3 -->
<g id="edge4_Node000004_Node000003" class="edge">
<title>Node4&#45;&gt;Node3</title>
<g id="a_edge4_Node000004_Node000003"><a xlink:title=" ">
<path fill="none" stroke="#63b8ff" d="M160.07,-143.79C156.23,-142.42 152.41,-141.01 148.75,-139.62 125.3,-130.73 98.87,-119.62 80.5,-111.72"/>
<polygon fill="#63b8ff" stroke="#63b8ff" points="158.8,-147.05 169.39,-147.07 161.12,-140.45 158.8,-147.05"/>
</a>
</g>
</g>
<!-- Node5&#45;&gt;Node3 -->
<g id="edge6_Node000005_Node000003" class="edge">
<title>Node5&#45;&gt;Node3</title>
<g id="a_edge6_Node000005_Node000003"><a xlink:title=" ">
<path fill="none" stroke="#63b8ff" d="M171.61,-116.72C154.78,-114.5 133.14,-111.64 113.22,-109.01"/>
<polygon fill="#63b8ff" stroke="#63b8ff" points="171.05,-120.18 181.42,-118.02 171.96,-113.24 171.05,-120.18"/>
</a>
</g>
</g>
<!-- Node6&#45;&gt;Node3 -->
<g id="edge8_Node000006_Node000003" class="edge">
<title>Node6&#45;&gt;Node3</title>
<g id="a_edge8_Node000006_Node000003"><a xlink:title=" ">
<path fill="none" stroke="#63b8ff" d="M143.06,-90.9C133.17,-92.13 122.91,-93.42 113.08,-94.65"/>
<polygon fill="#63b8ff" stroke="#63b8ff" points="143.46,-94.37 152.95,-89.66 142.59,-87.43 143.46,-94.37"/>
</a>
</g>
</g>
<!-- Node7&#45;&gt;Node3 -->
<g id="edge10_Node000007_Node000003" class="edge">
<title>Node7&#45;&gt;Node3</title>
<g id="a_edge10_Node000007_Node000003"><a xlink:title=" ">
<path fill="none" stroke="#63b8ff" d="M160.09,-60.49C156.25,-61.86 152.42,-63.25 148.75,-64.62 125.67,-73.26 99.64,-83.89 81.29,-91.53"/>
<polygon fill="#63b8ff" stroke="#63b8ff" points="161.13,-63.84 169.41,-57.23 158.81,-57.23 161.13,-63.84"/>
</a>
</g>
</g>
<!-- Node8&#45;&gt;Node3 -->
<g id="edge12_Node000008_Node000003" class="edge">
<title>Node8&#45;&gt;Node3</title>
<g id="a_edge12_Node000008_Node000003"><a xlink:title=" ">
<path fill="none" stroke="#63b8ff" d="M167.46,-19.24C161.07,-21.61 154.57,-24.4 148.75,-27.62 115.89,-45.83 83.06,-76.09 67.2,-91.68"/>
<polygon fill="#63b8ff" stroke="#63b8ff" points="168.18,-22.69 176.52,-16.16 165.93,-16.06 168.18,-22.69"/>
</a>
</g>
</g>
</g>
</svg>
