<?xml version="1.0" encoding="UTF-8" standalone="no"?>
<!DOCTYPE svg PUBLIC "-//W3C//DTD SVG 1.1//EN"
 "http://www.w3.org/Graphics/SVG/1.1/DTD/svg11.dtd">
<!-- Generated by graphviz version 12.2.1 (20241206.2353)
 -->
<!-- Title: Evaluate_Wall_Skin_Friction Pages: 1 -->
<svg width="398pt" height="39pt"
 viewBox="0.00 0.00 397.50 38.50" xmlns="http://www.w3.org/2000/svg" xmlns:xlink="http://www.w3.org/1999/xlink">
<g id="graph0" class="graph" transform="scale(1 1) rotate(0) translate(4 34.5)">
<title>Evaluate_Wall_Skin_Friction</title>
<!-- Node1 -->
<g id="Node000001" class="node">
<title>Node1</title>
<g id="a_Node000001"><a xlink:title=" ">
<polygon fill="#999999" stroke="#666666" points="389.5,-30.5 286.5,-30.5 286.5,0 389.5,0 389.5,-30.5"/>
<text text-anchor="start" x="294.5" y="-17" font-family="Helvetica,sans-Serif" font-size="10.00">Evaluate_Wall_Skin</text>
<text text-anchor="middle" x="338" y="-5.75" font-family="Helvetica,sans-Serif" font-size="10.00">_Friction</text>
</a>
</g>
</g>
<!-- Node2 -->
<g id="Node000002" class="node">
<title>Node2</title>
<g id="a_Node000002"><a xlink:href="../../de/df0/_solver_8cpp_a313c308da18b517cb3cf0384db6d4d7e.html#a313c308da18b517cb3cf0384db6d4d7e" target="_top" xlink:title=" ">
<polygon fill="white" stroke="#666666" points="250.5,-24.88 166.25,-24.88 166.25,-5.63 250.5,-5.63 250.5,-24.88"/>
<text text-anchor="middle" x="208.38" y="-11.38" font-family="Helvetica,sans-Serif" font-size="10.00">Viscous_Solver</text>
</a>
</g>
</g>
<!-- Node1&#45;&gt;Node2 -->
<g id="edge1_Node000001_Node000002" class="edge">
<title>Node1&#45;&gt;Node2</title>
<g id="a_edge1_Node000001_Node000002"><a xlink:title=" ">
<path fill="none" stroke="#63b8ff" d="M274.84,-15.25C266.75,-15.25 258.63,-15.25 250.99,-15.25"/>
<polygon fill="#63b8ff" stroke="#63b8ff" points="274.68,-18.75 284.68,-15.25 274.68,-11.75 274.68,-18.75"/>
</a>
</g>
</g>
<!-- Node3 -->
<g id="Node000003" class="node">
<title>Node3</title>
<g id="a_Node000003"><a xlink:href="../../d5/d12/_main_8cpp_afed4dca88e059a8cbd2c7af524468fe5.html#afed4dca88e059a8cbd2c7af524468fe5" target="_top" xlink:title="Executes the appropriate solver based on the simulation configuration.">
<polygon fill="white" stroke="#666666" points="130.25,-24.88 73,-24.88 73,-5.63 130.25,-5.63 130.25,-24.88"/>
<text text-anchor="middle" x="101.62" y="-11.38" font-family="Helvetica,sans-Serif" font-size="10.00">runSolver</text>
</a>
</g>
</g>
<!-- Node2&#45;&gt;Node3 -->
<g id="edge2_Node000002_Node000003" class="edge">
<title>Node2&#45;&gt;Node3</title>
<g id="a_edge2_Node000002_Node000003"><a xlink:title=" ">
<path fill="none" stroke="#63b8ff" d="M154.67,-15.25C146.33,-15.25 138,-15.25 130.52,-15.25"/>
<polygon fill="#63b8ff" stroke="#63b8ff" points="154.46,-18.75 164.46,-15.25 154.46,-11.75 154.46,-18.75"/>
</a>
</g>
</g>
<!-- Node4 -->
<g id="Node000004" class="node">
<title>Node4</title>
<g id="a_Node000004"><a xlink:href="../../d5/d12/_main_8cpp_a0ddf1224851353fc92bfbff6f499fa97.html#a0ddf1224851353fc92bfbff6f499fa97" target="_top" xlink:title=" ">
<polygon fill="white" stroke="#666666" points="37,-24.88 0,-24.88 0,-5.63 37,-5.63 37,-24.88"/>
<text text-anchor="middle" x="18.5" y="-11.38" font-family="Helvetica,sans-Serif" font-size="10.00">main</text>
</a>
</g>
</g>
<!-- Node3&#45;&gt;Node4 -->
<g id="edge3_Node000003_Node000004" class="edge">
<title>Node3&#45;&gt;Node4</title>
<g id="a_edge3_Node000003_Node000004"><a xlink:title=" ">
<path fill="none" stroke="#63b8ff" d="M61.38,-15.25C52.95,-15.25 44.43,-15.25 37.3,-15.25"/>
<polygon fill="#63b8ff" stroke="#63b8ff" points="61.19,-18.75 71.19,-15.25 61.19,-11.75 61.19,-18.75"/>
</a>
</g>
</g>
</g>
</svg>
