<?xml version="1.0" encoding="UTF-8" standalone="no"?>
<!DOCTYPE svg PUBLIC "-//W3C//DTD SVG 1.1//EN"
 "http://www.w3.org/Graphics/SVG/1.1/DTD/svg11.dtd">
<!-- Generated by graphviz version 12.2.1 (20241206.2353)
 -->
<!-- Title: Viscosity Pages: 1 -->
<svg width="1107pt" height="591pt"
 viewBox="0.00 0.00 1106.50 591.25" xmlns="http://www.w3.org/2000/svg" xmlns:xlink="http://www.w3.org/1999/xlink">
<g id="graph0" class="graph" transform="scale(1 1) rotate(0) translate(4 587.25)">
<title>Viscosity</title>
<!-- Node1 -->
<g id="Node000001" class="node">
<title>Node1</title>
<g id="a_Node000001"><a xlink:title=" ">
<polygon fill="#999999" stroke="#666666" points="1098.5,-267.25 1042,-267.25 1042,-248 1098.5,-248 1098.5,-267.25"/>
<text text-anchor="middle" x="1070.25" y="-253.75" font-family="Helvetica,sans-Serif" font-size="10.00">Viscosity</text>
</a>
</g>
</g>
<!-- Node2 -->
<g id="Node000002" class="node">
<title>Node2</title>
<g id="a_Node000002"><a xlink:href="../../df/d43/_basic___functions_8cpp_a1c199e756f8458978961b4d9ab4cbe63.html#a1c199e756f8458978961b4d9ab4cbe63" target="_top" xlink:title=" ">
<polygon fill="white" stroke="#666666" points="1006,-297.88 905.25,-297.88 905.25,-267.38 1006,-267.38 1006,-297.88"/>
<text text-anchor="start" x="913.25" y="-284.38" font-family="Helvetica,sans-Serif" font-size="10.00">Calculate_Primitive</text>
<text text-anchor="middle" x="955.62" y="-273.12" font-family="Helvetica,sans-Serif" font-size="10.00">_Variables</text>
</a>
</g>
</g>
<!-- Node1&#45;&gt;Node2 -->
<g id="edge1_Node000001_Node000002" class="edge">
<title>Node1&#45;&gt;Node2</title>
<g id="a_edge1_Node000001_Node000002"><a xlink:title=" ">
<path fill="none" stroke="#63b8ff" d="M1030.66,-266.19C1022.82,-267.93 1014.47,-269.79 1006.3,-271.6"/>
<polygon fill="#63b8ff" stroke="#63b8ff" points="1031.22,-269.65 1040.22,-264.07 1029.7,-262.82 1031.22,-269.65"/>
</a>
</g>
</g>
<!-- Node28 -->
<g id="Node000028" class="node">
<title>Node28</title>
<g id="a_Node000028"><a xlink:href="../../df/d43/_basic___functions_8cpp_a5a8dcaaf0c8799789175fc6945829471.html#a5a8dcaaf0c8799789175fc6945829471" target="_top" xlink:title=" ">
<polygon fill="white" stroke="#666666" points="1006,-248.88 905.25,-248.88 905.25,-218.38 1006,-218.38 1006,-248.88"/>
<text text-anchor="start" x="913.25" y="-235.38" font-family="Helvetica,sans-Serif" font-size="10.00">Calculate_Primitive</text>
<text text-anchor="middle" x="955.62" y="-224.12" font-family="Helvetica,sans-Serif" font-size="10.00">_Variables</text>
</a>
</g>
</g>
<!-- Node1&#45;&gt;Node28 -->
<g id="edge41_Node000001_Node000028" class="edge">
<title>Node1&#45;&gt;Node28</title>
<g id="a_edge41_Node000001_Node000028"><a xlink:title=" ">
<path fill="none" stroke="#63b8ff" d="M1030.66,-249.4C1022.82,-247.73 1014.47,-245.95 1006.3,-244.21"/>
<polygon fill="#63b8ff" stroke="#63b8ff" points="1029.71,-252.78 1040.22,-251.44 1031.17,-245.93 1029.71,-252.78"/>
</a>
</g>
</g>
<!-- Node3 -->
<g id="Node000003" class="node">
<title>Node3</title>
<g id="a_Node000003"><a xlink:href="../../d8/df4/_w_e_n_o2_d_8cpp_a27359f46a5902f1f50547f76408a48aa.html#a27359f46a5902f1f50547f76408a48aa" target="_top" xlink:title=" ">
<polygon fill="white" stroke="#666666" points="869.25,-330.25 724.25,-330.25 724.25,-311 869.25,-311 869.25,-330.25"/>
<text text-anchor="middle" x="796.75" y="-316.75" font-family="Helvetica,sans-Serif" font-size="10.00">Calculate_Face_WENO_Flux</text>
</a>
</g>
</g>
<!-- Node2&#45;&gt;Node3 -->
<g id="edge2_Node000002_Node000003" class="edge">
<title>Node2&#45;&gt;Node3</title>
<g id="a_edge2_Node000002_Node000003"><a xlink:title=" ">
<path fill="none" stroke="#63b8ff" d="M893.86,-297.34C875.66,-301.75 856.11,-306.49 839.43,-310.53"/>
<polygon fill="#63b8ff" stroke="#63b8ff" points="894.62,-300.76 903.52,-295 892.97,-293.96 894.62,-300.76"/>
</a>
</g>
</g>
<!-- Node11 -->
<g id="Node000011" class="node">
<title>Node11</title>
<g id="a_Node000011"><a xlink:href="../../d7/d6d/_initialize_8cpp_aa59beb74c9d4ef2bcd7e6d86f16dc682.html#aa59beb74c9d4ef2bcd7e6d86f16dc682" target="_top" xlink:title=" ">
<polygon fill="white" stroke="#666666" points="822.75,-216.25 770.75,-216.25 770.75,-197 822.75,-197 822.75,-216.25"/>
<text text-anchor="middle" x="796.75" y="-202.75" font-family="Helvetica,sans-Serif" font-size="10.00">Initialize</text>
</a>
</g>
</g>
<!-- Node2&#45;&gt;Node11 -->
<g id="edge11_Node000002_Node000011" class="edge">
<title>Node2&#45;&gt;Node11</title>
<g id="a_edge11_Node000002_Node000011"><a xlink:title=" ">
<path fill="none" stroke="#63b8ff" d="M911.81,-261.54C909.57,-260.25 907.37,-258.94 905.25,-257.62 888.26,-247.07 886.96,-239.93 869.25,-230.62 854.64,-222.95 837.1,-217.02 823.04,-212.97"/>
<polygon fill="#63b8ff" stroke="#63b8ff" points="910,-264.54 920.45,-266.28 913.37,-258.4 910,-264.54"/>
</a>
</g>
</g>
<!-- Node12 -->
<g id="Node000012" class="node">
<title>Node12</title>
<g id="a_Node000012"><a xlink:href="../../d3/db8/_initialize___test_case_8cpp_a4debd02bbc1736679fe1145738aba8c3.html#a4debd02bbc1736679fe1145738aba8c3" target="_top" xlink:title=" ">
<polygon fill="white" stroke="#666666" points="172.25,-274.25 73,-274.25 73,-255 172.25,-255 172.25,-274.25"/>
<text text-anchor="middle" x="122.62" y="-260.75" font-family="Helvetica,sans-Serif" font-size="10.00">Initialize_TestCase</text>
</a>
</g>
</g>
<!-- Node2&#45;&gt;Node12 -->
<g id="edge12_Node000002_Node000012" class="edge">
<title>Node2&#45;&gt;Node12</title>
<g id="a_edge12_Node000002_Node000012"><a xlink:title=" ">
<path fill="none" stroke="#63b8ff" d="M893.85,-271.84C825.17,-260.6 709.93,-244.62 610,-244.62 610,-244.62 610,-244.62 423.25,-244.62 334.75,-244.62 231.88,-253.42 172.6,-259.34"/>
<polygon fill="#63b8ff" stroke="#63b8ff" points="892.95,-275.24 903.38,-273.42 894.09,-268.33 892.95,-275.24"/>
</a>
</g>
</g>
<!-- Node13 -->
<g id="Node000013" class="node">
<title>Node13</title>
<g id="a_Node000013"><a xlink:href="../../df/d36/_wall___boundary___conditions_8cpp_a9e2645ad4f32bcba4ffb3a64134d2921.html#a9e2645ad4f32bcba4ffb3a64134d2921" target="_top" xlink:title=" ">
<polygon fill="white" stroke="#666666" points="669.88,-496.88 548.12,-496.88 548.12,-466.38 669.88,-466.38 669.88,-496.88"/>
<text text-anchor="start" x="556.12" y="-483.38" font-family="Helvetica,sans-Serif" font-size="10.00">InViscid_Wall_Boundary</text>
<text text-anchor="middle" x="609" y="-472.12" font-family="Helvetica,sans-Serif" font-size="10.00">_Condition</text>
</a>
</g>
</g>
<!-- Node2&#45;&gt;Node13 -->
<g id="edge14_Node000002_Node000013" class="edge">
<title>Node2&#45;&gt;Node13</title>
<g id="a_edge14_Node000002_Node000013"><a xlink:title=" ">
<path fill="none" stroke="#63b8ff" d="M949.68,-309.49C940.94,-348.59 918.78,-420.24 869.25,-454.62 810.89,-495.15 726.61,-496.12 670.14,-490.81"/>
<polygon fill="#63b8ff" stroke="#63b8ff" points="953.1,-310.24 951.71,-299.74 946.24,-308.81 953.1,-310.24"/>
</a>
</g>
</g>
<!-- Node15 -->
<g id="Node000015" class="node">
<title>Node15</title>
<g id="a_Node000015"><a xlink:href="../../de/d8d/_exit___boundary___conditions_8cpp_a59fe8a866adf086e11dc4391cf24254c.html#a59fe8a866adf086e11dc4391cf24254c" target="_top" xlink:title=" ">
<polygon fill="white" stroke="#666666" points="859.5,-178.88 734,-178.88 734,-148.38 859.5,-148.38 859.5,-178.88"/>
<text text-anchor="start" x="742" y="-165.38" font-family="Helvetica,sans-Serif" font-size="10.00">Subsonic_Exit_Boundary</text>
<text text-anchor="middle" x="796.75" y="-154.12" font-family="Helvetica,sans-Serif" font-size="10.00">_Condition</text>
</a>
</g>
</g>
<!-- Node2&#45;&gt;Node15 -->
<g id="edge19_Node000002_Node000015" class="edge">
<title>Node2&#45;&gt;Node15</title>
<g id="a_edge19_Node000002_Node000015"><a xlink:title=" ">
<path fill="none" stroke="#63b8ff" d="M908.01,-260.19C907.06,-259.36 906.14,-258.51 905.25,-257.62 880.43,-232.97 895.78,-210.42 869.25,-187.62 865.58,-184.47 861.47,-181.72 857.13,-179.33"/>
<polygon fill="#63b8ff" stroke="#63b8ff" points="905.94,-263.01 916.07,-266.11 910.08,-257.37 905.94,-263.01"/>
</a>
</g>
</g>
<!-- Node16 -->
<g id="Node000016" class="node">
<title>Node16</title>
<g id="a_Node000016"><a xlink:href="../../dd/d15/_inlet___boundary___conditions_8cpp_a92317da30905d779544dbc465c46f00c.html#a92317da30905d779544dbc465c46f00c" target="_top" xlink:title=" ">
<polygon fill="white" stroke="#666666" points="672.5,-448.25 545.5,-448.25 545.5,-429 672.5,-429 672.5,-448.25"/>
<text text-anchor="middle" x="609" y="-434.75" font-family="Helvetica,sans-Serif" font-size="10.00">Subsonic_Inlet_Condition</text>
</a>
</g>
</g>
<!-- Node2&#45;&gt;Node16 -->
<g id="edge20_Node000002_Node000016" class="edge">
<title>Node2&#45;&gt;Node16</title>
<g id="a_edge20_Node000002_Node000016"><a xlink:title=" ">
<path fill="none" stroke="#63b8ff" d="M947.31,-309.01C936.43,-342.67 912.48,-399.64 869.25,-425.62 803.98,-464.87 711.9,-457.96 656.86,-448.74"/>
<polygon fill="#63b8ff" stroke="#63b8ff" points="950.61,-310.2 950.18,-299.61 943.91,-308.15 950.61,-310.2"/>
</a>
</g>
</g>
<!-- Node17 -->
<g id="Node000017" class="node">
<title>Node17</title>
<g id="a_Node000017"><a xlink:href="../../d5/d2f/_far___field___boundary___condition_8cpp_a907b7b5ada3b6ad6cdb91ae6181b7227.html#a907b7b5ada3b6ad6cdb91ae6181b7227" target="_top" xlink:title=" ">
<polygon fill="white" stroke="#666666" points="848.25,-130.25 745.25,-130.25 745.25,-111 848.25,-111 848.25,-130.25"/>
<text text-anchor="middle" x="796.75" y="-116.75" font-family="Helvetica,sans-Serif" font-size="10.00">Super_Sonic_Inflow</text>
</a>
</g>
</g>
<!-- Node2&#45;&gt;Node17 -->
<g id="edge22_Node000002_Node000017" class="edge">
<title>Node2&#45;&gt;Node17</title>
<g id="a_edge22_Node000002_Node000017"><a xlink:title=" ">
<path fill="none" stroke="#63b8ff" d="M906.98,-259.56C906.38,-258.93 905.81,-258.29 905.25,-257.62 869.96,-215.66 908.72,-177.68 869.25,-139.62 863.43,-134.01 856.14,-130.01 848.46,-127.16"/>
<polygon fill="#63b8ff" stroke="#63b8ff" points="904.63,-262.16 914.53,-265.95 909.15,-256.82 904.63,-262.16"/>
</a>
</g>
</g>
<!-- Node18 -->
<g id="Node000018" class="node">
<title>Node18</title>
<g id="a_Node000018"><a xlink:href="../../de/d8d/_exit___boundary___conditions_8cpp_aee793388170b1f1282aa7ada9cb1985d.html#aee793388170b1f1282aa7ada9cb1985d" target="_top" xlink:title=" ">
<polygon fill="white" stroke="#666666" points="863.62,-416.88 729.88,-416.88 729.88,-386.38 863.62,-386.38 863.62,-416.88"/>
<text text-anchor="start" x="737.88" y="-403.38" font-family="Helvetica,sans-Serif" font-size="10.00">Supersonic_Exit_Boundary</text>
<text text-anchor="middle" x="796.75" y="-392.12" font-family="Helvetica,sans-Serif" font-size="10.00">_Condition</text>
</a>
</g>
</g>
<!-- Node2&#45;&gt;Node18 -->
<g id="edge23_Node000002_Node000018" class="edge">
<title>Node2&#45;&gt;Node18</title>
<g id="a_edge23_Node000002_Node000018"><a xlink:title=" ">
<path fill="none" stroke="#63b8ff" d="M936.14,-307.31C920.23,-327.14 895.7,-354.58 869.25,-372.62 861.72,-377.76 853.15,-382.21 844.62,-385.98"/>
<polygon fill="#63b8ff" stroke="#63b8ff" points="938.88,-309.47 942.29,-299.44 933.37,-305.16 938.88,-309.47"/>
</a>
</g>
</g>
<!-- Node20 -->
<g id="Node000020" class="node">
<title>Node20</title>
<g id="a_Node000020"><a xlink:href="../../dd/d15/_inlet___boundary___conditions_8cpp_a25cc0bf77642815d139d73ca5be9e3dc.html#a25cc0bf77642815d139d73ca5be9e3dc" target="_top" xlink:title=" ">
<polygon fill="white" stroke="#666666" points="676.62,-374.25 541.38,-374.25 541.38,-355 676.62,-355 676.62,-374.25"/>
<text text-anchor="middle" x="609" y="-360.75" font-family="Helvetica,sans-Serif" font-size="10.00">Supersonic_Inlet_Condition</text>
</a>
</g>
</g>
<!-- Node2&#45;&gt;Node20 -->
<g id="edge26_Node000002_Node000020" class="edge">
<title>Node2&#45;&gt;Node20</title>
<g id="a_edge26_Node000002_Node000020"><a xlink:title=" ">
<path fill="none" stroke="#63b8ff" d="M928.33,-305.17C912.33,-317.55 890.86,-331.92 869.25,-339.62 806.64,-361.94 730.45,-366.87 676.92,-367.03"/>
<polygon fill="#63b8ff" stroke="#63b8ff" points="930.27,-308.1 935.9,-299.12 925.9,-302.63 930.27,-308.1"/>
</a>
</g>
</g>
<!-- Node21 -->
<g id="Node000021" class="node">
<title>Node21</title>
<g id="a_Node000021"><a xlink:href="../../df/d36/_wall___boundary___conditions_8cpp_a4d3a822572d76209fad9b1faec4086f4.html#a4d3a822572d76209fad9b1faec4086f4" target="_top" xlink:title=" ">
<polygon fill="white" stroke="#666666" points="686,-583.25 532,-583.25 532,-564 686,-564 686,-583.25"/>
<text text-anchor="middle" x="609" y="-569.75" font-family="Helvetica,sans-Serif" font-size="10.00">Symmetry_Boundary_Condition</text>
</a>
</g>
</g>
<!-- Node2&#45;&gt;Node21 -->
<g id="edge28_Node000002_Node000021" class="edge">
<title>Node2&#45;&gt;Node21</title>
<g id="a_edge28_Node000002_Node000021"><a xlink:title=" ">
<path fill="none" stroke="#63b8ff" d="M953.55,-309.64C949.98,-360.32 934.68,-469.61 869.25,-525.62 819.09,-568.56 743.15,-578.35 686.4,-578.72"/>
<polygon fill="#63b8ff" stroke="#63b8ff" points="957.03,-310.06 954.12,-299.87 950.04,-309.64 957.03,-310.06"/>
</a>
</g>
</g>
<!-- Node22 -->
<g id="Node000022" class="node">
<title>Node22</title>
<g id="a_Node000022"><a xlink:href="../../d9/d1f/_error___estimate___update_8cpp_aec0783b5a136e042adcc47bae4fe5291.html#aec0783b5a136e042adcc47bae4fe5291" target="_top" xlink:title=" ">
<polygon fill="white" stroke="#666666" points="632.75,-296.25 585.25,-296.25 585.25,-277 632.75,-277 632.75,-296.25"/>
<text text-anchor="middle" x="609" y="-282.75" font-family="Helvetica,sans-Serif" font-size="10.00">Update</text>
</a>
</g>
</g>
<!-- Node2&#45;&gt;Node22 -->
<g id="edge30_Node000002_Node000022" class="edge">
<title>Node2&#45;&gt;Node22</title>
<g id="a_edge30_Node000002_Node000022"><a xlink:title=" ">
<path fill="none" stroke="#63b8ff" d="M893.82,-283.33C816.17,-284.23 685.54,-285.75 632.95,-286.36"/>
<polygon fill="#63b8ff" stroke="#63b8ff" points="893.41,-286.84 903.37,-283.22 893.33,-279.84 893.41,-286.84"/>
</a>
</g>
</g>
<!-- Node24 -->
<g id="Node000024" class="node">
<title>Node24</title>
<g id="a_Node000024"><a xlink:href="../../d9/d1f/_error___estimate___update_8cpp_a85083f46c6e2f45acd7b57694d88a9be.html#a85083f46c6e2f45acd7b57694d88a9be" target="_top" xlink:title=" ">
<polygon fill="white" stroke="#666666" points="820.5,-93.25 773,-93.25 773,-74 820.5,-74 820.5,-93.25"/>
<text text-anchor="middle" x="796.75" y="-79.75" font-family="Helvetica,sans-Serif" font-size="10.00">Update</text>
</a>
</g>
</g>
<!-- Node2&#45;&gt;Node24 -->
<g id="edge36_Node000002_Node000024" class="edge">
<title>Node2&#45;&gt;Node24</title>
<g id="a_edge36_Node000002_Node000024"><a xlink:title=" ">
<path fill="none" stroke="#63b8ff" d="M906.92,-259.62C906.34,-258.97 905.78,-258.31 905.25,-257.62 861.37,-201.61 919.06,-152.44 869.25,-101.62 856.7,-88.83 836.5,-84.64 820.76,-83.48"/>
<polygon fill="#63b8ff" stroke="#63b8ff" points="904.49,-262.14 914.3,-266.12 909.11,-256.89 904.49,-262.14"/>
</a>
</g>
</g>
<!-- Node25 -->
<g id="Node000025" class="node">
<title>Node25</title>
<g id="a_Node000025"><a xlink:href="../../d9/d1f/_error___estimate___update_8cpp_a3658b001ca4b1936550d8299999dd08b.html#a3658b001ca4b1936550d8299999dd08b" target="_top" xlink:title=" ">
<polygon fill="white" stroke="#666666" points="820.5,-56.25 773,-56.25 773,-37 820.5,-37 820.5,-56.25"/>
<text text-anchor="middle" x="796.75" y="-42.75" font-family="Helvetica,sans-Serif" font-size="10.00">Update</text>
</a>
</g>
</g>
<!-- Node2&#45;&gt;Node25 -->
<g id="edge37_Node000002_Node000025" class="edge">
<title>Node2&#45;&gt;Node25</title>
<g id="a_edge37_Node000002_Node000025"><a xlink:title=" ">
<path fill="none" stroke="#63b8ff" d="M906.54,-259.25C906.09,-258.72 905.66,-258.18 905.25,-257.62 852.91,-187.81 929,-128.21 869.25,-64.62 856.98,-51.57 836.75,-47.41 820.93,-46.32"/>
<polygon fill="#63b8ff" stroke="#63b8ff" points="903.98,-261.65 913.7,-265.87 908.73,-256.51 903.98,-261.65"/>
</a>
</g>
</g>
<!-- Node26 -->
<g id="Node000026" class="node">
<title>Node26</title>
<g id="a_Node000026"><a xlink:href="../../d9/d1f/_error___estimate___update_8cpp_a72ec9272a947862267874bef9f0f929c.html#a72ec9272a947862267874bef9f0f929c" target="_top" xlink:title=" ">
<polygon fill="white" stroke="#666666" points="820.5,-19.25 773,-19.25 773,0 820.5,0 820.5,-19.25"/>
<text text-anchor="middle" x="796.75" y="-5.75" font-family="Helvetica,sans-Serif" font-size="10.00">Update</text>
</a>
</g>
</g>
<!-- Node2&#45;&gt;Node26 -->
<g id="edge38_Node000002_Node000026" class="edge">
<title>Node2&#45;&gt;Node26</title>
<g id="a_edge38_Node000002_Node000026"><a xlink:title=" ">
<path fill="none" stroke="#63b8ff" d="M906.52,-259.27C906.08,-258.73 905.66,-258.18 905.25,-257.62 844.4,-173.94 938.99,-104.05 869.25,-27.62 857.08,-14.29 836.63,-10.19 820.71,-9.19"/>
<polygon fill="#63b8ff" stroke="#63b8ff" points="903.92,-261.63 913.6,-265.94 908.72,-256.53 903.92,-261.63"/>
</a>
</g>
</g>
<!-- Node27 -->
<g id="Node000027" class="node">
<title>Node27</title>
<g id="a_Node000027"><a xlink:href="../../df/d36/_wall___boundary___conditions_8cpp_a35cf6a79b3a50b10bf277b98c8d14ed7.html#a35cf6a79b3a50b10bf277b98c8d14ed7" target="_top" xlink:title=" ">
<polygon fill="white" stroke="#666666" points="669.88,-545.88 548.12,-545.88 548.12,-515.38 669.88,-515.38 669.88,-545.88"/>
<text text-anchor="start" x="556.12" y="-532.38" font-family="Helvetica,sans-Serif" font-size="10.00">Viscous_Wall_Boundary</text>
<text text-anchor="middle" x="609" y="-521.12" font-family="Helvetica,sans-Serif" font-size="10.00">_Condition</text>
</a>
</g>
</g>
<!-- Node2&#45;&gt;Node27 -->
<g id="edge39_Node000002_Node000027" class="edge">
<title>Node2&#45;&gt;Node27</title>
<g id="a_edge39_Node000002_Node000027"><a xlink:title=" ">
<path fill="none" stroke="#63b8ff" d="M951.67,-309.57C945.24,-354.17 925.72,-442.86 869.25,-487.62 812.85,-532.33 727.52,-538.27 670.32,-536.24"/>
<polygon fill="#63b8ff" stroke="#63b8ff" points="955.13,-310.1 952.95,-299.73 948.19,-309.19 955.13,-310.1"/>
</a>
</g>
</g>
<!-- Node4 -->
<g id="Node000004" class="node">
<title>Node4</title>
<g id="a_Node000004"><a xlink:href="../../d8/df4/_w_e_n_o2_d_8cpp_a74c2795e4a164178c69743947d6e6cf5.html#a74c2795e4a164178c69743947d6e6cf5" target="_top" xlink:title=" ">
<polygon fill="white" stroke="#666666" points="688.25,-337.25 529.75,-337.25 529.75,-318 688.25,-318 688.25,-337.25"/>
<text text-anchor="middle" x="609" y="-323.75" font-family="Helvetica,sans-Serif" font-size="10.00">Evaluate_Cell_Net_Flux_WENO</text>
</a>
</g>
</g>
<!-- Node3&#45;&gt;Node4 -->
<g id="edge3_Node000003_Node000004" class="edge">
<title>Node3&#45;&gt;Node4</title>
<g id="a_edge3_Node000003_Node000004"><a xlink:title=" ">
<path fill="none" stroke="#63b8ff" d="M712.46,-323.76C704.56,-324.06 696.57,-324.36 688.72,-324.66"/>
<polygon fill="#63b8ff" stroke="#63b8ff" points="712.56,-327.26 722.42,-323.39 712.3,-320.27 712.56,-327.26"/>
</a>
</g>
</g>
<!-- Node5 -->
<g id="Node000005" class="node">
<title>Node5</title>
<g id="a_Node000005"><a xlink:href="../../d0/d64/_numerical___method_8cpp_a8dda0c7e17babab9b6e49e8e199dc30e.html#a8dda0c7e17babab9b6e49e8e199dc30e" target="_top" xlink:title=" ">
<polygon fill="white" stroke="#666666" points="467.12,-367.25 381.38,-367.25 381.38,-348 467.12,-348 467.12,-367.25"/>
<text text-anchor="middle" x="424.25" y="-353.75" font-family="Helvetica,sans-Serif" font-size="10.00">Explicit_Method</text>
</a>
</g>
</g>
<!-- Node4&#45;&gt;Node5 -->
<g id="edge4_Node000004_Node000005" class="edge">
<title>Node4&#45;&gt;Node5</title>
<g id="a_edge4_Node000004_Node000005"><a xlink:title=" ">
<path fill="none" stroke="#63b8ff" d="M535.27,-339.56C512.31,-343.33 487.7,-347.37 467.6,-350.67"/>
<polygon fill="#63b8ff" stroke="#63b8ff" points="535.59,-343.06 544.89,-337.98 534.46,-336.15 535.59,-343.06"/>
</a>
</g>
</g>
<!-- Node10 -->
<g id="Node000010" class="node">
<title>Node10</title>
<g id="a_Node000010"><a xlink:href="../../de/d22/_cuda___parallel___r_k_8cpp_a794f030971fbb7c9dd4bc08df03f50f1.html#a794f030971fbb7c9dd4bc08df03f50f1" target="_top" xlink:title=" ">
<polygon fill="white" stroke="#666666" points="318.75,-462.25 208.25,-462.25 208.25,-443 318.75,-443 318.75,-462.25"/>
<text text-anchor="middle" x="263.5" y="-448.75" font-family="Helvetica,sans-Serif" font-size="10.00">Runge_Kutta_Method</text>
</a>
</g>
</g>
<!-- Node4&#45;&gt;Node10 -->
<g id="edge10_Node000004_Node000010" class="edge">
<title>Node4&#45;&gt;Node10</title>
<g id="a_edge10_Node000004_Node000010"><a xlink:title=" ">
<path fill="none" stroke="#63b8ff" d="M534.63,-342.53C532.95,-343.5 531.32,-344.53 529.75,-345.62 505.78,-362.33 517.74,-383.96 493.75,-400.62 441.8,-436.71 368.72,-448.17 319.13,-451.58"/>
<polygon fill="#63b8ff" stroke="#63b8ff" points="535.84,-345.83 543.29,-338.3 532.77,-339.54 535.84,-345.83"/>
</a>
</g>
</g>
<!-- Node6 -->
<g id="Node000006" class="node">
<title>Node6</title>
<g id="a_Node000006"><a xlink:href="../../de/df0/_solver_8cpp_a09703a294b5a4e270033b2d488f8f02a.html#a09703a294b5a4e270033b2d488f8f02a" target="_top" xlink:title=" ">
<polygon fill="white" stroke="#666666" points="304.88,-367.25 222.12,-367.25 222.12,-348 304.88,-348 304.88,-367.25"/>
<text text-anchor="middle" x="263.5" y="-353.75" font-family="Helvetica,sans-Serif" font-size="10.00">Inviscid_Solver</text>
</a>
</g>
</g>
<!-- Node5&#45;&gt;Node6 -->
<g id="edge5_Node000005_Node000006" class="edge">
<title>Node5&#45;&gt;Node6</title>
<g id="a_edge5_Node000005_Node000006"><a xlink:title=" ">
<path fill="none" stroke="#63b8ff" d="M369.73,-357.62C348.64,-357.62 324.82,-357.62 305.18,-357.62"/>
<polygon fill="#63b8ff" stroke="#63b8ff" points="369.61,-361.13 379.61,-357.63 369.61,-354.13 369.61,-361.13"/>
</a>
</g>
</g>
<!-- Node9 -->
<g id="Node000009" class="node">
<title>Node9</title>
<g id="a_Node000009"><a xlink:href="../../de/df0/_solver_8cpp_a313c308da18b517cb3cf0384db6d4d7e.html#a313c308da18b517cb3cf0384db6d4d7e" target="_top" xlink:title=" ">
<polygon fill="white" stroke="#666666" points="305.62,-330.25 221.38,-330.25 221.38,-311 305.62,-311 305.62,-330.25"/>
<text text-anchor="middle" x="263.5" y="-316.75" font-family="Helvetica,sans-Serif" font-size="10.00">Viscous_Solver</text>
</a>
</g>
</g>
<!-- Node5&#45;&gt;Node9 -->
<g id="edge8_Node000005_Node000009" class="edge">
<title>Node5&#45;&gt;Node9</title>
<g id="a_edge8_Node000005_Node000009"><a xlink:title=" ">
<path fill="none" stroke="#63b8ff" d="M370.16,-345.25C349.26,-340.38 325.61,-334.87 306,-330.3"/>
<polygon fill="#63b8ff" stroke="#63b8ff" points="369.12,-348.6 379.65,-347.46 370.71,-341.78 369.12,-348.6"/>
</a>
</g>
</g>
<!-- Node7 -->
<g id="Node000007" class="node">
<title>Node7</title>
<g id="a_Node000007"><a xlink:href="../../d5/d12/_main_8cpp_afed4dca88e059a8cbd2c7af524468fe5.html#afed4dca88e059a8cbd2c7af524468fe5" target="_top" xlink:title="Executes the appropriate solver based on the simulation configuration.">
<polygon fill="white" stroke="#666666" points="151.25,-330.25 94,-330.25 94,-311 151.25,-311 151.25,-330.25"/>
<text text-anchor="middle" x="122.62" y="-316.75" font-family="Helvetica,sans-Serif" font-size="10.00">runSolver</text>
</a>
</g>
</g>
<!-- Node6&#45;&gt;Node7 -->
<g id="edge6_Node000006_Node000007" class="edge">
<title>Node6&#45;&gt;Node7</title>
<g id="a_edge6_Node000006_Node000007"><a xlink:title=" ">
<path fill="none" stroke="#63b8ff" d="M213.62,-344.6C192.76,-339.04 169.18,-332.76 151.39,-328.02"/>
<polygon fill="#63b8ff" stroke="#63b8ff" points="212.53,-347.93 223.09,-347.12 214.33,-341.17 212.53,-347.93"/>
</a>
</g>
</g>
<!-- Node8 -->
<g id="Node000008" class="node">
<title>Node8</title>
<g id="a_Node000008"><a xlink:href="../../d5/d12/_main_8cpp_a0ddf1224851353fc92bfbff6f499fa97.html#a0ddf1224851353fc92bfbff6f499fa97" target="_top" xlink:title=" ">
<polygon fill="white" stroke="#666666" points="37,-292.25 0,-292.25 0,-273 37,-273 37,-292.25"/>
<text text-anchor="middle" x="18.5" y="-278.75" font-family="Helvetica,sans-Serif" font-size="10.00">main</text>
</a>
</g>
</g>
<!-- Node7&#45;&gt;Node8 -->
<g id="edge7_Node000007_Node000008" class="edge">
<title>Node7&#45;&gt;Node8</title>
<g id="a_edge7_Node000007_Node000008"><a xlink:title=" ">
<path fill="none" stroke="#63b8ff" d="M83.89,-306.58C67.98,-300.66 50.21,-294.05 37.38,-289.28"/>
<polygon fill="#63b8ff" stroke="#63b8ff" points="82.51,-309.81 93.11,-310.01 84.96,-303.25 82.51,-309.81"/>
</a>
</g>
</g>
<!-- Node9&#45;&gt;Node7 -->
<g id="edge9_Node000009_Node000007" class="edge">
<title>Node9&#45;&gt;Node7</title>
<g id="a_edge9_Node000009_Node000007"><a xlink:title=" ">
<path fill="none" stroke="#63b8ff" d="M209.78,-320.62C189.9,-320.62 168.07,-320.62 151.36,-320.62"/>
<polygon fill="#63b8ff" stroke="#63b8ff" points="209.7,-324.13 219.7,-320.63 209.7,-317.13 209.7,-324.13"/>
</a>
</g>
</g>
<!-- Node12&#45;&gt;Node8 -->
<g id="edge13_Node000012_Node000008" class="edge">
<title>Node12&#45;&gt;Node8</title>
<g id="a_edge13_Node000012_Node000008"><a xlink:title=" ">
<path fill="none" stroke="#63b8ff" d="M61.39,-275.24C52.58,-276.79 44.16,-278.28 37.2,-279.51"/>
<polygon fill="#63b8ff" stroke="#63b8ff" points="61.93,-278.7 71.17,-273.52 60.71,-271.81 61.93,-278.7"/>
</a>
</g>
</g>
<!-- Node14 -->
<g id="Node000014" class="node">
<title>Node14</title>
<g id="a_Node000014"><a xlink:href="../../d0/d1e/_boundary___conditions_8cpp_af3770504ee20d68a2295133e7aa72bfa.html#af3770504ee20d68a2295133e7aa72bfa" target="_top" xlink:title=" ">
<polygon fill="white" stroke="#666666" points="493.75,-481.25 354.75,-481.25 354.75,-462 493.75,-462 493.75,-481.25"/>
<text text-anchor="middle" x="424.25" y="-467.75" font-family="Helvetica,sans-Serif" font-size="10.00">Apply_Boundary_Conditions</text>
</a>
</g>
</g>
<!-- Node13&#45;&gt;Node14 -->
<g id="edge15_Node000013_Node000014" class="edge">
<title>Node13&#45;&gt;Node14</title>
<g id="a_edge15_Node000013_Node000014"><a xlink:title=" ">
<path fill="none" stroke="#63b8ff" d="M536.19,-477.7C522.33,-476.94 507.84,-476.14 494.07,-475.39"/>
<polygon fill="#63b8ff" stroke="#63b8ff" points="535.97,-481.19 546.14,-478.24 536.35,-474.2 535.97,-481.19"/>
</a>
</g>
</g>
<!-- Node14&#45;&gt;Node6 -->
<g id="edge16_Node000014_Node000006" class="edge">
<title>Node14&#45;&gt;Node6</title>
<g id="a_edge16_Node000014_Node000006"><a xlink:title=" ">
<path fill="none" stroke="#63b8ff" d="M400.1,-455C366.59,-430.94 305.61,-387.14 278.33,-367.56"/>
<polygon fill="#63b8ff" stroke="#63b8ff" points="397.77,-457.64 407.93,-460.63 401.85,-451.95 397.77,-457.64"/>
</a>
</g>
</g>
<!-- Node14&#45;&gt;Node9 -->
<g id="edge18_Node000014_Node000009" class="edge">
<title>Node14&#45;&gt;Node9</title>
<g id="a_edge18_Node000014_Node000009"><a xlink:title=" ">
<path fill="none" stroke="#63b8ff" d="M410.04,-452.13C387.39,-419.19 341.4,-354.55 318.75,-338.62 314.28,-335.49 309.23,-332.87 304.06,-330.69"/>
<polygon fill="#63b8ff" stroke="#63b8ff" points="407.13,-454.07 415.66,-460.36 412.91,-450.12 407.13,-454.07"/>
</a>
</g>
</g>
<!-- Node14&#45;&gt;Node10 -->
<g id="edge17_Node000014_Node000010" class="edge">
<title>Node14&#45;&gt;Node10</title>
<g id="a_edge17_Node000014_Node000010"><a xlink:title=" ">
<path fill="none" stroke="#63b8ff" d="M343.33,-462.06C335.08,-461.07 326.84,-460.09 318.96,-459.14"/>
<polygon fill="#63b8ff" stroke="#63b8ff" points="342.7,-465.51 353.04,-463.22 343.53,-458.56 342.7,-465.51"/>
</a>
</g>
</g>
<!-- Node16&#45;&gt;Node14 -->
<g id="edge21_Node000016_Node000014" class="edge">
<title>Node16&#45;&gt;Node14</title>
<g id="a_edge21_Node000016_Node000014"><a xlink:title=" ">
<path fill="none" stroke="#63b8ff" d="M541.1,-450.71C521.37,-454.27 500,-458.13 481.05,-461.55"/>
<polygon fill="#63b8ff" stroke="#63b8ff" points="541.47,-454.2 550.69,-448.97 540.22,-447.31 541.47,-454.2"/>
</a>
</g>
</g>
<!-- Node19 -->
<g id="Node000019" class="node">
<title>Node19</title>
<g id="a_Node000019"><a xlink:href="../../de/d8d/_exit___boundary___conditions_8cpp_a6b87687bb24cf8bae9b67030a9e66904.html#a6b87687bb24cf8bae9b67030a9e66904" target="_top" xlink:title=" ">
<polygon fill="white" stroke="#666666" points="675.88,-411.25 542.12,-411.25 542.12,-392 675.88,-392 675.88,-411.25"/>
<text text-anchor="middle" x="609" y="-397.75" font-family="Helvetica,sans-Serif" font-size="10.00">Supersonic_Exit_Condition</text>
</a>
</g>
</g>
<!-- Node18&#45;&gt;Node19 -->
<g id="edge24_Node000018_Node000019" class="edge">
<title>Node18&#45;&gt;Node19</title>
<g id="a_edge24_Node000018_Node000019"><a xlink:title=" ">
<path fill="none" stroke="#63b8ff" d="M718.38,-401.62C704.38,-401.62 689.89,-401.62 676.25,-401.62"/>
<polygon fill="#63b8ff" stroke="#63b8ff" points="717.96,-405.13 727.96,-401.63 717.96,-398.13 717.96,-405.13"/>
</a>
</g>
</g>
<!-- Node19&#45;&gt;Node14 -->
<g id="edge25_Node000019_Node000014" class="edge">
<title>Node19&#45;&gt;Node14</title>
<g id="a_edge25_Node000019_Node000014"><a xlink:title=" ">
<path fill="none" stroke="#63b8ff" d="M540.14,-415.26C536.57,-416.59 533.09,-418.04 529.75,-419.62 511.44,-428.32 511.55,-437.92 493.75,-447.62 483.57,-453.17 471.86,-457.83 461.04,-461.53"/>
<polygon fill="#63b8ff" stroke="#63b8ff" points="541.19,-418.6 549.58,-412.13 538.98,-411.96 541.19,-418.6"/>
</a>
</g>
</g>
<!-- Node20&#45;&gt;Node14 -->
<g id="edge27_Node000020_Node000014" class="edge">
<title>Node20&#45;&gt;Node14</title>
<g id="a_edge27_Node000020_Node000014"><a xlink:title=" ">
<path fill="none" stroke="#63b8ff" d="M533.85,-379.8C532.44,-380.69 531.07,-381.63 529.75,-382.62 503.37,-402.49 518.99,-426.33 493.75,-447.62 486.62,-453.64 477.89,-458.18 469.08,-461.6"/>
<polygon fill="#63b8ff" stroke="#63b8ff" points="535.08,-383.1 542.28,-375.33 531.8,-376.92 535.08,-383.1"/>
</a>
</g>
</g>
<!-- Node21&#45;&gt;Node14 -->
<g id="edge29_Node000021_Node000014" class="edge">
<title>Node21&#45;&gt;Node14</title>
<g id="a_edge29_Node000021_Node000014"><a xlink:title=" ">
<path fill="none" stroke="#63b8ff" d="M542.83,-560.13C538.32,-558.49 533.92,-556.66 529.75,-554.62 490.2,-535.29 451.8,-498.94 434.62,-481.48"/>
<polygon fill="#63b8ff" stroke="#63b8ff" points="541.44,-563.36 552.03,-563.15 543.62,-556.71 541.44,-563.36"/>
</a>
</g>
</g>
<!-- Node22&#45;&gt;Node6 -->
<g id="edge31_Node000022_Node000006" class="edge">
<title>Node22&#45;&gt;Node6</title>
<g id="a_edge31_Node000022_Node000006"><a xlink:title=" ">
<path fill="none" stroke="#63b8ff" d="M573.58,-290.19C558.81,-293.17 542.14,-298.63 529.75,-308.62 503.14,-330.1 523.05,-358.99 493.75,-376.62 427.72,-416.38 330.95,-385.39 287.32,-367.73"/>
<polygon fill="#63b8ff" stroke="#63b8ff" points="574.12,-293.65 583.41,-288.54 572.97,-286.74 574.12,-293.65"/>
</a>
</g>
</g>
<!-- Node22&#45;&gt;Node9 -->
<g id="edge35_Node000022_Node000009" class="edge">
<title>Node22&#45;&gt;Node9</title>
<g id="a_edge35_Node000022_Node000009"><a xlink:title=" ">
<path fill="none" stroke="#63b8ff" d="M573.37,-287.05C524.46,-288.03 432.42,-291.21 354.75,-301.62 338.72,-303.77 321.29,-307.19 306.06,-310.53"/>
<polygon fill="#63b8ff" stroke="#63b8ff" points="573.39,-290.55 583.33,-286.88 573.27,-283.55 573.39,-290.55"/>
</a>
</g>
</g>
<!-- Node23 -->
<g id="Node000023" class="node">
<title>Node23</title>
<g id="a_Node000023"><a xlink:href="../../d0/d64/_numerical___method_8cpp_a794f030971fbb7c9dd4bc08df03f50f1.html#a794f030971fbb7c9dd4bc08df03f50f1" target="_top" xlink:title=" ">
<polygon fill="white" stroke="#666666" points="479.5,-330.25 369,-330.25 369,-311 479.5,-311 479.5,-330.25"/>
<text text-anchor="middle" x="424.25" y="-316.75" font-family="Helvetica,sans-Serif" font-size="10.00">Runge_Kutta_Method</text>
</a>
</g>
</g>
<!-- Node22&#45;&gt;Node23 -->
<g id="edge32_Node000022_Node000023" class="edge">
<title>Node22&#45;&gt;Node23</title>
<g id="a_edge32_Node000022_Node000023"><a xlink:title=" ">
<path fill="none" stroke="#63b8ff" d="M573.86,-292.98C547.38,-297.9 510.16,-304.83 479.59,-310.52"/>
<polygon fill="#63b8ff" stroke="#63b8ff" points="574.18,-296.48 583.37,-291.21 572.9,-289.6 574.18,-296.48"/>
</a>
</g>
</g>
<!-- Node23&#45;&gt;Node6 -->
<g id="edge33_Node000023_Node000006" class="edge">
<title>Node23&#45;&gt;Node6</title>
<g id="a_edge33_Node000023_Node000006"><a xlink:title=" ">
<path fill="none" stroke="#63b8ff" d="M368.93,-333.29C348.11,-338.14 324.72,-343.59 305.37,-348.1"/>
<polygon fill="#63b8ff" stroke="#63b8ff" points="369.45,-336.76 378.4,-331.08 367.86,-329.94 369.45,-336.76"/>
</a>
</g>
</g>
<!-- Node23&#45;&gt;Node9 -->
<g id="edge34_Node000023_Node000009" class="edge">
<title>Node23&#45;&gt;Node9</title>
<g id="a_edge34_Node000023_Node000009"><a xlink:title=" ">
<path fill="none" stroke="#63b8ff" d="M357.34,-320.62C339.94,-320.62 321.64,-320.62 305.94,-320.62"/>
<polygon fill="#63b8ff" stroke="#63b8ff" points="357.1,-324.13 367.1,-320.63 357.1,-317.13 357.1,-324.13"/>
</a>
</g>
</g>
<!-- Node27&#45;&gt;Node14 -->
<g id="edge40_Node000027_Node000014" class="edge">
<title>Node27&#45;&gt;Node14</title>
<g id="a_edge40_Node000027_Node000014"><a xlink:title=" ">
<path fill="none" stroke="#63b8ff" d="M547.81,-511.43C541.71,-509.47 535.6,-507.51 529.75,-505.62 504.87,-497.6 476.69,-488.43 455.87,-481.64"/>
<polygon fill="#63b8ff" stroke="#63b8ff" points="546.7,-514.75 557.29,-514.47 548.83,-508.08 546.7,-514.75"/>
</a>
</g>
</g>
</g>
</svg>
