<?xml version="1.0" encoding="UTF-8" standalone="no"?>
<!DOCTYPE svg PUBLIC "-//W3C//DTD SVG 1.1//EN"
 "http://www.w3.org/Graphics/SVG/1.1/DTD/svg11.dtd">
<!-- Generated by graphviz version 12.2.1 (20241206.2353)
 -->
<!-- Title: Cell::Cal_Del2_Q Pages: 1 -->
<svg width="399pt" height="82pt"
 viewBox="0.00 0.00 398.75 82.25" xmlns="http://www.w3.org/2000/svg" xmlns:xlink="http://www.w3.org/1999/xlink">
<g id="graph0" class="graph" transform="scale(1 1) rotate(0) translate(4 78.25)">
<title>Cell::Cal_Del2_Q</title>
<!-- Node1 -->
<g id="Node000001" class="node">
<title>Node1</title>
<g id="a_Node000001"><a xlink:title=" ">
<polygon fill="#999999" stroke="#666666" points="92.5,-37.25 0,-37.25 0,-18 92.5,-18 92.5,-37.25"/>
<text text-anchor="middle" x="46.25" y="-23.75" font-family="Helvetica,sans-Serif" font-size="10.00">Cell::Cal_Del2_Q</text>
</a>
</g>
</g>
<!-- Node2 -->
<g id="Node000002" class="node">
<title>Node2</title>
<g id="a_Node000002"><a xlink:href="../../d5/d2a/class_face_afda30f7a29cec730b930ee11fb673e36.html#afda30f7a29cec730b930ee11fb673e36" target="_top" xlink:title=" ">
<polygon fill="white" stroke="#666666" points="236.75,-56.25 145,-56.25 145,-37 236.75,-37 236.75,-56.25"/>
<text text-anchor="middle" x="190.88" y="-42.75" font-family="Helvetica,sans-Serif" font-size="10.00">Face::Cal_Del2Q</text>
</a>
</g>
</g>
<!-- Node1&#45;&gt;Node2 -->
<g id="edge1_Node000001_Node000002" class="edge">
<title>Node1&#45;&gt;Node2</title>
<g id="a_edge1_Node000001_Node000002"><a xlink:title=" ">
<path fill="none" stroke="#63b8ff" d="M92.77,-33.69C105.76,-35.42 120.08,-37.33 133.63,-39.13"/>
<polygon fill="#63b8ff" stroke="#63b8ff" points="132.91,-42.57 143.29,-40.42 133.84,-35.63 132.91,-42.57"/>
</a>
</g>
</g>
<!-- Node5 -->
<g id="Node000005" class="node">
<title>Node5</title>
<g id="a_Node000005"><a xlink:href="../../d5/d2a/class_face_a6c7cb8b19bf4066c893b54919efccaf7.html#a6c7cb8b19bf4066c893b54919efccaf7" target="_top" xlink:title=" ">
<polygon fill="white" stroke="#666666" points="253.25,-19.25 128.5,-19.25 128.5,0 253.25,0 253.25,-19.25"/>
<text text-anchor="middle" x="190.88" y="-5.75" font-family="Helvetica,sans-Serif" font-size="10.00">Face::Get_DelQ_onFace</text>
</a>
</g>
</g>
<!-- Node1&#45;&gt;Node5 -->
<g id="edge4_Node000001_Node000005" class="edge">
<title>Node1&#45;&gt;Node5</title>
<g id="a_edge4_Node000001_Node000005"><a xlink:title=" ">
<path fill="none" stroke="#63b8ff" d="M92.77,-21.88C100.5,-20.9 108.71,-19.87 116.94,-18.83"/>
<polygon fill="#63b8ff" stroke="#63b8ff" points="117.15,-22.33 126.64,-17.61 116.28,-15.39 117.15,-22.33"/>
</a>
</g>
</g>
<!-- Node3 -->
<g id="Node000003" class="node">
<title>Node3</title>
<g id="a_Node000003"><a xlink:href="../../dd/d11/class_cell_aee0dee04d4819d58782f65d3071fa9e8.html#aee0dee04d4819d58782f65d3071fa9e8" target="_top" xlink:title=" ">
<polygon fill="white" stroke="#666666" points="387,-74.25 293,-74.25 293,-55 387,-55 387,-74.25"/>
<text text-anchor="middle" x="340" y="-60.75" font-family="Helvetica,sans-Serif" font-size="10.00">Cell::Get_Q_Grad</text>
</a>
</g>
</g>
<!-- Node2&#45;&gt;Node3 -->
<g id="edge2_Node000002_Node000003" class="edge">
<title>Node2&#45;&gt;Node3</title>
<g id="a_edge2_Node000002_Node000003"><a xlink:title=" ">
<path fill="none" stroke="#63b8ff" d="M237.22,-52.17C251.21,-53.88 266.81,-55.79 281.51,-57.59"/>
<polygon fill="#63b8ff" stroke="#63b8ff" points="280.68,-61.02 291.03,-58.76 281.53,-54.07 280.68,-61.02"/>
</a>
</g>
</g>
<!-- Node4 -->
<g id="Node000004" class="node">
<title>Node4</title>
<g id="a_Node000004"><a xlink:href="../../dd/d11/class_cell_a471d32a4d0f8ab85b129972f50417781.html#a471d32a4d0f8ab85b129972f50417781" target="_top" xlink:title=" ">
<polygon fill="white" stroke="#666666" points="390.75,-37.25 289.25,-37.25 289.25,-18 390.75,-18 390.75,-37.25"/>
<text text-anchor="middle" x="340" y="-23.75" font-family="Helvetica,sans-Serif" font-size="10.00">Cell::Is_Ghost_Cell</text>
</a>
</g>
</g>
<!-- Node2&#45;&gt;Node4 -->
<g id="edge3_Node000002_Node000004" class="edge">
<title>Node2&#45;&gt;Node4</title>
<g id="a_edge3_Node000002_Node000004"><a xlink:title=" ">
<path fill="none" stroke="#63b8ff" d="M237.22,-40.77C250.01,-39.12 264.15,-37.29 277.72,-35.54"/>
<polygon fill="#63b8ff" stroke="#63b8ff" points="277.97,-39.04 287.44,-34.28 277.07,-32.09 277.97,-39.04"/>
</a>
</g>
</g>
</g>
</svg>
