<?xml version="1.0" encoding="UTF-8" standalone="no"?>
<!DOCTYPE svg PUBLIC "-//W3C//DTD SVG 1.1//EN"
 "http://www.w3.org/Graphics/SVG/1.1/DTD/svg11.dtd">
<!-- Generated by graphviz version 12.2.1 (20241206.2353)
 -->
<!-- Title: Cell::Get_Grad_UatCenter Pages: 1 -->
<svg width="443pt" height="39pt"
 viewBox="0.00 0.00 443.00 38.50" xmlns="http://www.w3.org/2000/svg" xmlns:xlink="http://www.w3.org/1999/xlink">
<g id="graph0" class="graph" transform="scale(1 1) rotate(0) translate(4 34.5)">
<title>Cell::Get_Grad_UatCenter</title>
<!-- Node1 -->
<g id="Node000001" class="node">
<title>Node1</title>
<g id="a_Node000001"><a xlink:title=" ">
<polygon fill="#999999" stroke="#666666" points="435,-24.88 303.5,-24.88 303.5,-5.63 435,-5.63 435,-24.88"/>
<text text-anchor="middle" x="369.25" y="-11.38" font-family="Helvetica,sans-Serif" font-size="10.00">Cell::Get_Grad_UatCenter</text>
</a>
</g>
</g>
<!-- Node2 -->
<g id="Node000002" class="node">
<title>Node2</title>
<g id="a_Node000002"><a xlink:href="../../d5/d2a/class_face_acf8f42dee4b478f9a2ce69e7af80204f.html#acf8f42dee4b478f9a2ce69e7af80204f" target="_top" xlink:title=" ">
<polygon fill="white" stroke="#666666" points="267.5,-30.5 134.5,-30.5 134.5,0 267.5,0 267.5,-30.5"/>
<text text-anchor="start" x="142.5" y="-17" font-family="Helvetica,sans-Serif" font-size="10.00">Face::Cal_Viscous_Stress</text>
<text text-anchor="middle" x="201" y="-5.75" font-family="Helvetica,sans-Serif" font-size="10.00">_On_Face</text>
</a>
</g>
</g>
<!-- Node1&#45;&gt;Node2 -->
<g id="edge1_Node000001_Node000002" class="edge">
<title>Node1&#45;&gt;Node2</title>
<g id="a_edge1_Node000001_Node000002"><a xlink:title=" ">
<path fill="none" stroke="#63b8ff" d="M291.53,-15.25C283.62,-15.25 275.63,-15.25 267.86,-15.25"/>
<polygon fill="#63b8ff" stroke="#63b8ff" points="291.51,-18.75 301.51,-15.25 291.51,-11.75 291.51,-18.75"/>
</a>
</g>
</g>
<!-- Node3 -->
<g id="Node000003" class="node">
<title>Node3</title>
<g id="a_Node000003"><a xlink:href="../../dd/d11/class_cell_a5e21ff4d88e1f4fb854bdcd5b6505893.html#a5e21ff4d88e1f4fb854bdcd5b6505893" target="_top" xlink:title=" ">
<polygon fill="white" stroke="#666666" points="98.5,-24.88 0,-24.88 0,-5.63 98.5,-5.63 98.5,-24.88"/>
<text text-anchor="middle" x="49.25" y="-11.38" font-family="Helvetica,sans-Serif" font-size="10.00">Cell::Cal_Stresses</text>
</a>
</g>
</g>
<!-- Node2&#45;&gt;Node3 -->
<g id="edge2_Node000002_Node000003" class="edge">
<title>Node2&#45;&gt;Node3</title>
<g id="a_edge2_Node000002_Node000003"><a xlink:title=" ">
<path fill="none" stroke="#63b8ff" d="M123.06,-15.25C114.8,-15.25 106.57,-15.25 98.77,-15.25"/>
<polygon fill="#63b8ff" stroke="#63b8ff" points="122.8,-18.75 132.8,-15.25 122.8,-11.75 122.8,-18.75"/>
</a>
</g>
</g>
</g>
</svg>
