<?xml version="1.0" encoding="UTF-8" standalone="no"?>
<!DOCTYPE svg PUBLIC "-//W3C//DTD SVG 1.1//EN"
 "http://www.w3.org/Graphics/SVG/1.1/DTD/svg11.dtd">
<!-- Generated by graphviz version 12.2.1 (20241206.2353)
 -->
<!-- Title: Cell::Get_DelQ_fromCell Pages: 1 -->
<svg width="432pt" height="138pt"
 viewBox="0.00 0.00 431.75 138.25" xmlns="http://www.w3.org/2000/svg" xmlns:xlink="http://www.w3.org/1999/xlink">
<g id="graph0" class="graph" transform="scale(1 1) rotate(0) translate(4 134.25)">
<title>Cell::Get_DelQ_fromCell</title>
<!-- Node1 -->
<g id="Node000001" class="node">
<title>Node1</title>
<g id="a_Node000001"><a xlink:title=" ">
<polygon fill="#999999" stroke="#666666" points="423.75,-74.25 299,-74.25 299,-55 423.75,-55 423.75,-74.25"/>
<text text-anchor="middle" x="361.38" y="-60.75" font-family="Helvetica,sans-Serif" font-size="10.00">Cell::Get_DelQ_fromCell</text>
</a>
</g>
</g>
<!-- Node2 -->
<g id="Node000002" class="node">
<title>Node2</title>
<g id="a_Node000002"><a xlink:href="../../d5/d2a/class_face_aba5d690547d2449fd7cbcc0e7845edb9.html#aba5d690547d2449fd7cbcc0e7845edb9" target="_top" xlink:title=" ">
<polygon fill="white" stroke="#666666" points="263,-74.25 128.5,-74.25 128.5,-55 263,-55 263,-74.25"/>
<text text-anchor="middle" x="195.75" y="-60.75" font-family="Helvetica,sans-Serif" font-size="10.00">Face::Calculate_Grad_n_Q</text>
</a>
</g>
</g>
<!-- Node1&#45;&gt;Node2 -->
<g id="edge1_Node000001_Node000002" class="edge">
<title>Node1&#45;&gt;Node2</title>
<g id="a_edge1_Node000001_Node000002"><a xlink:title=" ">
<path fill="none" stroke="#63b8ff" d="M287.06,-64.62C279.16,-64.62 271.15,-64.62 263.34,-64.62"/>
<polygon fill="#63b8ff" stroke="#63b8ff" points="287,-68.13 297,-64.63 287,-61.13 287,-68.13"/>
</a>
</g>
</g>
<!-- Node3 -->
<g id="Node000003" class="node">
<title>Node3</title>
<g id="a_Node000003"><a xlink:href="../../dd/d11/class_cell_afd6d4c68c48b2848f978842b7d13f09f.html#afd6d4c68c48b2848f978842b7d13f09f" target="_top" xlink:title=" ">
<polygon fill="white" stroke="#666666" points="92.5,-130.25 0,-130.25 0,-111 92.5,-111 92.5,-130.25"/>
<text text-anchor="middle" x="46.25" y="-116.75" font-family="Helvetica,sans-Serif" font-size="10.00">Cell::Cal_Del3_Q</text>
</a>
</g>
</g>
<!-- Node2&#45;&gt;Node3 -->
<g id="edge2_Node000002_Node000003" class="edge">
<title>Node2&#45;&gt;Node3</title>
<g id="a_edge2_Node000002_Node000003"><a xlink:title=" ">
<path fill="none" stroke="#63b8ff" d="M157.76,-78.67C131.66,-88.58 97.32,-101.62 73.89,-110.51"/>
<polygon fill="#63b8ff" stroke="#63b8ff" points="158.86,-82 166.96,-75.17 156.37,-75.45 158.86,-82"/>
</a>
</g>
</g>
<!-- Node4 -->
<g id="Node000004" class="node">
<title>Node4</title>
<g id="a_Node000004"><a xlink:href="../../dd/d11/class_cell_a9383086109edbc81ee6462a68d1472b4.html#a9383086109edbc81ee6462a68d1472b4" target="_top" xlink:title=" ">
<polygon fill="white" stroke="#666666" points="92.5,-93.25 0,-93.25 0,-74 92.5,-74 92.5,-93.25"/>
<text text-anchor="middle" x="46.25" y="-79.75" font-family="Helvetica,sans-Serif" font-size="10.00">Cell::Cal_Del4_Q</text>
</a>
</g>
</g>
<!-- Node2&#45;&gt;Node4 -->
<g id="edge3_Node000002_Node000004" class="edge">
<title>Node2&#45;&gt;Node4</title>
<g id="a_edge3_Node000002_Node000004"><a xlink:title=" ">
<path fill="none" stroke="#63b8ff" d="M116.97,-74.64C108.64,-75.72 100.38,-76.78 92.61,-77.78"/>
<polygon fill="#63b8ff" stroke="#63b8ff" points="117.36,-78.12 126.83,-73.37 116.47,-71.18 117.36,-78.12"/>
</a>
</g>
</g>
<!-- Node5 -->
<g id="Node000005" class="node">
<title>Node5</title>
<g id="a_Node000005"><a xlink:href="../../dd/d11/class_cell_ae424723f8c9b85a3fe2fdf8894f95986.html#ae424723f8c9b85a3fe2fdf8894f95986" target="_top" xlink:title=" ">
<polygon fill="white" stroke="#666666" points="92.5,-56.25 0,-56.25 0,-37 92.5,-37 92.5,-56.25"/>
<text text-anchor="middle" x="46.25" y="-42.75" font-family="Helvetica,sans-Serif" font-size="10.00">Cell::Cal_Del5_Q</text>
</a>
</g>
</g>
<!-- Node2&#45;&gt;Node5 -->
<g id="edge4_Node000002_Node000005" class="edge">
<title>Node2&#45;&gt;Node5</title>
<g id="a_edge4_Node000002_Node000005"><a xlink:title=" ">
<path fill="none" stroke="#63b8ff" d="M116.97,-55.13C108.64,-54.12 100.38,-53.11 92.61,-52.16"/>
<polygon fill="#63b8ff" stroke="#63b8ff" points="116.48,-58.6 126.83,-56.34 117.33,-51.65 116.48,-58.6"/>
</a>
</g>
</g>
<!-- Node6 -->
<g id="Node000006" class="node">
<title>Node6</title>
<g id="a_Node000006"><a xlink:href="../../dd/d11/class_cell_a93c19ae506001f25aab9ae03c3701e3d.html#a93c19ae506001f25aab9ae03c3701e3d" target="_top" xlink:title=" ">
<polygon fill="white" stroke="#666666" points="92.5,-19.25 0,-19.25 0,0 92.5,0 92.5,-19.25"/>
<text text-anchor="middle" x="46.25" y="-5.75" font-family="Helvetica,sans-Serif" font-size="10.00">Cell::Cal_Del6_Q</text>
</a>
</g>
</g>
<!-- Node2&#45;&gt;Node6 -->
<g id="edge5_Node000002_Node000006" class="edge">
<title>Node2&#45;&gt;Node6</title>
<g id="a_edge5_Node000002_Node000006"><a xlink:title=" ">
<path fill="none" stroke="#63b8ff" d="M157.16,-50.61C131.32,-40.97 97.62,-28.41 74.38,-19.74"/>
<polygon fill="#63b8ff" stroke="#63b8ff" points="155.69,-53.79 166.28,-54.01 158.13,-47.24 155.69,-53.79"/>
</a>
</g>
</g>
</g>
</svg>
