<?xml version="1.0" encoding="UTF-8" standalone="no"?>
<!DOCTYPE svg PUBLIC "-//W3C//DTD SVG 1.1//EN"
 "http://www.w3.org/Graphics/SVG/1.1/DTD/svg11.dtd">
<!-- Generated by graphviz version 12.2.1 (20241206.2353)
 -->
<!-- Title: Cell::Evaluate_FluxonFaces Pages: 1 -->
<svg width="846pt" height="409pt"
 viewBox="0.00 0.00 846.25 409.25" xmlns="http://www.w3.org/2000/svg" xmlns:xlink="http://www.w3.org/1999/xlink">
<g id="graph0" class="graph" transform="scale(1 1) rotate(0) translate(4 405.25)">
<title>Cell::Evaluate_FluxonFaces</title>
<!-- Node1 -->
<g id="Node000001" class="node">
<title>Node1</title>
<g id="a_Node000001"><a xlink:title=" ">
<polygon fill="#999999" stroke="#666666" points="139,-204.25 0,-204.25 0,-185 139,-185 139,-204.25"/>
<text text-anchor="middle" x="69.5" y="-190.75" font-family="Helvetica,sans-Serif" font-size="10.00">Cell::Evaluate_FluxonFaces</text>
</a>
</g>
</g>
<!-- Node2 -->
<g id="Node000002" class="node">
<title>Node2</title>
<g id="a_Node000002"><a xlink:href="../../dd/d11/class_cell_a12ca155558738e6524acc1ebb38126b4.html#a12ca155558738e6524acc1ebb38126b4" target="_top" xlink:title=" ">
<polygon fill="white" stroke="#666666" points="289.62,-284.25 198.62,-284.25 198.62,-265 289.62,-265 289.62,-284.25"/>
<text text-anchor="middle" x="244.12" y="-270.75" font-family="Helvetica,sans-Serif" font-size="10.00">Cell::Add_Fluxes</text>
</a>
</g>
</g>
<!-- Node1&#45;&gt;Node2 -->
<g id="edge1_Node000001_Node000002" class="edge">
<title>Node1&#45;&gt;Node2</title>
<g id="a_edge1_Node000001_Node000002"><a xlink:title=" ">
<path fill="none" stroke="#63b8ff" d="M84.37,-204.57C103.79,-218.08 140.56,-242.19 175,-256.62 179.01,-258.31 183.22,-259.87 187.5,-261.31"/>
<polygon fill="#63b8ff" stroke="#63b8ff" points="186.16,-264.56 196.75,-264.2 188.25,-257.88 186.16,-264.56"/>
</a>
</g>
</g>
<!-- Node3 -->
<g id="Node000003" class="node">
<title>Node3</title>
<g id="a_Node000003"><a xlink:href="../../dd/d11/class_cell_af7944559b958e7f02bf804adfd482a70.html#af7944559b958e7f02bf804adfd482a70" target="_top" xlink:title=" ">
<polygon fill="white" stroke="#666666" points="298.62,-204.25 189.62,-204.25 189.62,-185 298.62,-185 298.62,-204.25"/>
<text text-anchor="middle" x="244.12" y="-190.75" font-family="Helvetica,sans-Serif" font-size="10.00">Cell::Cal_Q_Gradient</text>
</a>
</g>
</g>
<!-- Node1&#45;&gt;Node3 -->
<g id="edge2_Node000001_Node000003" class="edge">
<title>Node1&#45;&gt;Node3</title>
<g id="a_edge2_Node000001_Node000003"><a xlink:title=" ">
<path fill="none" stroke="#63b8ff" d="M139.22,-194.62C151.96,-194.62 165.24,-194.62 177.87,-194.62"/>
<polygon fill="#63b8ff" stroke="#63b8ff" points="177.75,-198.13 187.75,-194.63 177.75,-191.13 177.75,-198.13"/>
</a>
</g>
</g>
<!-- Node6 -->
<g id="Node000006" class="node">
<title>Node6</title>
<g id="a_Node000006"><a xlink:href="../../d5/d2a/class_face_a7edd7ef2c3e6faf1d13c186536039f60.html#a7edd7ef2c3e6faf1d13c186536039f60" target="_top" xlink:title=" ">
<polygon fill="white" stroke="#666666" points="302.75,-247.25 185.5,-247.25 185.5,-228 302.75,-228 302.75,-247.25"/>
<text text-anchor="middle" x="244.12" y="-233.75" font-family="Helvetica,sans-Serif" font-size="10.00">Face::Flux_From_Face</text>
</a>
</g>
</g>
<!-- Node1&#45;&gt;Node6 -->
<g id="edge5_Node000001_Node000006" class="edge">
<title>Node1&#45;&gt;Node6</title>
<g id="a_edge5_Node000001_Node000006"><a xlink:title=" ">
<path fill="none" stroke="#63b8ff" d="M110.97,-204.71C135.02,-210.7 165.75,-218.35 191.53,-224.77"/>
<polygon fill="#63b8ff" stroke="#63b8ff" points="190.59,-228.15 201.14,-227.17 192.28,-221.35 190.59,-228.15"/>
</a>
</g>
</g>
<!-- Node19 -->
<g id="Node000019" class="node">
<title>Node19</title>
<g id="a_Node000019"><a xlink:href="../../dd/d11/class_cell_aae926146b2f52f029d3d28ec9174136e.html#aae926146b2f52f029d3d28ec9174136e" target="_top" xlink:title=" ">
<polygon fill="white" stroke="#666666" points="305,-167.25 183.25,-167.25 183.25,-148 305,-148 305,-167.25"/>
<text text-anchor="middle" x="244.12" y="-153.75" font-family="Helvetica,sans-Serif" font-size="10.00">Cell::Get_Cell_Pressure</text>
</a>
</g>
</g>
<!-- Node1&#45;&gt;Node19 -->
<g id="edge23_Node000001_Node000019" class="edge">
<title>Node1&#45;&gt;Node19</title>
<g id="a_edge23_Node000001_Node000019"><a xlink:title=" ">
<path fill="none" stroke="#63b8ff" d="M117.67,-184.51C138.41,-180.07 162.98,-174.8 184.85,-170.11"/>
<polygon fill="#63b8ff" stroke="#63b8ff" points="185.49,-173.56 194.53,-168.04 184.02,-166.71 185.49,-173.56"/>
</a>
</g>
</g>
<!-- Node20 -->
<g id="Node000020" class="node">
<title>Node20</title>
<g id="a_Node000020"><a xlink:href="../../dd/d11/class_cell_a65a6f31fc7a451a50c9908c80e20033c.html#a65a6f31fc7a451a50c9908c80e20033c" target="_top" xlink:title=" ">
<polygon fill="white" stroke="#666666" points="313.25,-112.25 175,-112.25 175,-93 313.25,-93 313.25,-112.25"/>
<text text-anchor="middle" x="244.12" y="-98.75" font-family="Helvetica,sans-Serif" font-size="10.00">Cell::Velocity_GradatCenter</text>
</a>
</g>
</g>
<!-- Node1&#45;&gt;Node20 -->
<g id="edge24_Node000001_Node000020" class="edge">
<title>Node1&#45;&gt;Node20</title>
<g id="a_edge24_Node000001_Node000020"><a xlink:title=" ">
<path fill="none" stroke="#63b8ff" d="M88.98,-184.68C109.85,-173.46 144.84,-154.68 175,-138.62 187.79,-131.82 201.94,-124.33 214.03,-117.95"/>
<polygon fill="#63b8ff" stroke="#63b8ff" points="215.47,-121.15 222.68,-113.39 212.21,-114.96 215.47,-121.15"/>
</a>
</g>
</g>
<!-- Node4 -->
<g id="Node000004" class="node">
<title>Node4</title>
<g id="a_Node000004"><a xlink:href="../../d5/db2/class_vector_a65059ef72da0ea37db05d7235e91f3b6.html#a65059ef72da0ea37db05d7235e91f3b6" target="_top" xlink:title=" ">
<polygon fill="white" stroke="#666666" points="462,-167.25 388.25,-167.25 388.25,-148 462,-148 462,-167.25"/>
<text text-anchor="middle" x="425.12" y="-153.75" font-family="Helvetica,sans-Serif" font-size="10.00">Vector::Clear</text>
</a>
</g>
</g>
<!-- Node3&#45;&gt;Node4 -->
<g id="edge3_Node000003_Node000004" class="edge">
<title>Node3&#45;&gt;Node4</title>
<g id="a_edge3_Node000003_Node000004"><a xlink:title=" ">
<path fill="none" stroke="#63b8ff" d="M294.04,-184.51C319.71,-179.21 351.04,-172.73 376.51,-167.47"/>
<polygon fill="#63b8ff" stroke="#63b8ff" points="377.2,-170.9 386.28,-165.45 375.78,-164.04 377.2,-170.9"/>
</a>
</g>
</g>
<!-- Node5 -->
<g id="Node000005" class="node">
<title>Node5</title>
<g id="a_Node000005"><a xlink:href="../../d5/d2a/class_face_a19f810b927960c6f82aefb36395b5c81.html#a19f810b927960c6f82aefb36395b5c81" target="_top" xlink:title=" ">
<polygon fill="white" stroke="#666666" points="471,-204.25 379.25,-204.25 379.25,-185 471,-185 471,-204.25"/>
<text text-anchor="middle" x="425.12" y="-190.75" font-family="Helvetica,sans-Serif" font-size="10.00">Face::Get_QnDS</text>
</a>
</g>
</g>
<!-- Node3&#45;&gt;Node5 -->
<g id="edge4_Node000003_Node000005" class="edge">
<title>Node3&#45;&gt;Node5</title>
<g id="a_edge4_Node000003_Node000005"><a xlink:title=" ">
<path fill="none" stroke="#63b8ff" d="M298.83,-194.62C320.48,-194.62 345.47,-194.62 367.41,-194.62"/>
<polygon fill="#63b8ff" stroke="#63b8ff" points="367.4,-198.13 377.4,-194.63 367.4,-191.13 367.4,-198.13"/>
</a>
</g>
</g>
<!-- Node7 -->
<g id="Node000007" class="node">
<title>Node7</title>
<g id="a_Node000007"><a xlink:href="../../d5/d2a/class_face_a8bf8d82bb997ead9e413ffe50b53516b.html#a8bf8d82bb997ead9e413ffe50b53516b" target="_top" xlink:title=" ">
<polygon fill="white" stroke="#666666" points="501,-327.25 349.25,-327.25 349.25,-308 501,-308 501,-327.25"/>
<text text-anchor="middle" x="425.12" y="-313.75" font-family="Helvetica,sans-Serif" font-size="10.00">Face::Flux_From_Face_AUSM</text>
</a>
</g>
</g>
<!-- Node6&#45;&gt;Node7 -->
<g id="edge6_Node000006_Node000007" class="edge">
<title>Node6&#45;&gt;Node7</title>
<g id="a_edge6_Node000006_Node000007"><a xlink:title=" ">
<path fill="none" stroke="#63b8ff" d="M297.18,-247.67C302.83,-249.83 308.31,-252.45 313.25,-255.62 334.5,-269.3 327.85,-286.19 349.25,-299.62 351.24,-300.87 353.31,-302.04 355.44,-303.12"/>
<polygon fill="#63b8ff" stroke="#63b8ff" points="353.81,-306.23 364.37,-307.01 356.61,-299.81 353.81,-306.23"/>
</a>
</g>
</g>
<!-- Node16 -->
<g id="Node000016" class="node">
<title>Node16</title>
<g id="a_Node000016"><a xlink:href="../../d5/d2a/class_face_ac4c4a64de5a6e3a3fbc08a00392e251b.html#ac4c4a64de5a6e3a3fbc08a00392e251b" target="_top" xlink:title=" ">
<polygon fill="white" stroke="#666666" points="483.75,-252.88 366.5,-252.88 366.5,-222.38 483.75,-222.38 483.75,-252.88"/>
<text text-anchor="start" x="374.5" y="-239.38" font-family="Helvetica,sans-Serif" font-size="10.00">Face::Flux_From_Face</text>
<text text-anchor="middle" x="425.12" y="-228.12" font-family="Helvetica,sans-Serif" font-size="10.00">_Central</text>
</a>
</g>
</g>
<!-- Node6&#45;&gt;Node16 -->
<g id="edge15_Node000006_Node000016" class="edge">
<title>Node6&#45;&gt;Node16</title>
<g id="a_edge15_Node000006_Node000016"><a xlink:title=" ">
<path fill="none" stroke="#63b8ff" d="M303.24,-237.62C319.82,-237.62 338.05,-237.62 355.21,-237.62"/>
<polygon fill="#63b8ff" stroke="#63b8ff" points="354.79,-241.13 364.79,-237.63 354.79,-234.13 354.79,-241.13"/>
</a>
</g>
</g>
<!-- Node18 -->
<g id="Node000018" class="node">
<title>Node18</title>
<g id="a_Node000018"><a xlink:href="../../d5/d2a/class_face_a3560cd5db824a402bf5c380f8ada5bb2.html#a3560cd5db824a402bf5c380f8ada5bb2" target="_top" xlink:title=" ">
<polygon fill="white" stroke="#666666" points="492.38,-290.25 357.88,-290.25 357.88,-271 492.38,-271 492.38,-290.25"/>
<text text-anchor="middle" x="425.12" y="-276.75" font-family="Helvetica,sans-Serif" font-size="10.00">Face::Flux_From_Face_VL</text>
</a>
</g>
</g>
<!-- Node6&#45;&gt;Node18 -->
<g id="edge18_Node000006_Node000018" class="edge">
<title>Node6&#45;&gt;Node18</title>
<g id="a_edge18_Node000006_Node000018"><a xlink:title=" ">
<path fill="none" stroke="#63b8ff" d="M287.09,-247.71C312.14,-253.72 344.18,-261.42 370.98,-267.86"/>
<polygon fill="#63b8ff" stroke="#63b8ff" points="370.1,-271.25 380.64,-270.18 371.73,-264.44 370.1,-271.25"/>
</a>
</g>
</g>
<!-- Node8 -->
<g id="Node000008" class="node">
<title>Node8</title>
<g id="a_Node000008"><a xlink:href="../../d5/d2a/class_face_a28f4009e42e1ac60082a6952566a31aa.html#a28f4009e42e1ac60082a6952566a31aa" target="_top" xlink:title=" ">
<polygon fill="white" stroke="#666666" points="651.25,-253.25 549,-253.25 549,-234 651.25,-234 651.25,-253.25"/>
<text text-anchor="middle" x="600.12" y="-239.75" font-family="Helvetica,sans-Serif" font-size="10.00">Face::Cal_Primitive</text>
</a>
</g>
</g>
<!-- Node7&#45;&gt;Node8 -->
<g id="edge7_Node000007_Node000008" class="edge">
<title>Node7&#45;&gt;Node8</title>
<g id="a_edge7_Node000007_Node000008"><a xlink:title=" ">
<path fill="none" stroke="#63b8ff" d="M483.48,-307.51C489.59,-305.37 495.56,-302.77 501,-299.62 521.14,-287.98 517.13,-273.73 537,-261.62 539.02,-260.39 541.13,-259.24 543.31,-258.17"/>
<polygon fill="#63b8ff" stroke="#63b8ff" points="544.6,-261.42 552.41,-254.26 541.84,-254.99 544.6,-261.42"/>
</a>
</g>
</g>
<!-- Node9 -->
<g id="Node000009" class="node">
<title>Node9</title>
<g id="a_Node000009"><a xlink:href="../../d5/d2a/class_face_a80cd45164e8eda621558150d70999601.html#a80cd45164e8eda621558150d70999601" target="_top" xlink:title=" ">
<polygon fill="white" stroke="#666666" points="655.75,-364.25 544.5,-364.25 544.5,-345 655.75,-345 655.75,-364.25"/>
<text text-anchor="middle" x="600.12" y="-350.75" font-family="Helvetica,sans-Serif" font-size="10.00">Face::Evaluate_Mach</text>
</a>
</g>
</g>
<!-- Node7&#45;&gt;Node9 -->
<g id="edge8_Node000007_Node000009" class="edge">
<title>Node7&#45;&gt;Node9</title>
<g id="a_edge8_Node000007_Node000009"><a xlink:title=" ">
<path fill="none" stroke="#63b8ff" d="M473.4,-327.74C494.19,-332.18 518.81,-337.45 540.73,-342.14"/>
<polygon fill="#63b8ff" stroke="#63b8ff" points="539.92,-345.54 550.43,-344.21 541.38,-338.7 539.92,-345.54"/>
</a>
</g>
</g>
<!-- Node10 -->
<g id="Node000010" class="node">
<title>Node10</title>
<g id="a_Node000010"><a xlink:href="../../d5/d2a/class_face_a7b7a45322054b3094ca16809d72cc9f1.html#a7b7a45322054b3094ca16809d72cc9f1" target="_top" xlink:title=" ">
<polygon fill="white" stroke="#666666" points="663.25,-401.25 537,-401.25 537,-382 663.25,-382 663.25,-401.25"/>
<text text-anchor="middle" x="600.12" y="-387.75" font-family="Helvetica,sans-Serif" font-size="10.00">Face::Evaluate_Pressure</text>
</a>
</g>
</g>
<!-- Node7&#45;&gt;Node10 -->
<g id="edge9_Node000007_Node000010" class="edge">
<title>Node7&#45;&gt;Node10</title>
<g id="a_edge9_Node000007_Node000010"><a xlink:title=" ">
<path fill="none" stroke="#63b8ff" d="M443.33,-327.58C464.74,-339.67 502.68,-360.12 537,-373.62 541.06,-375.22 545.31,-376.75 549.61,-378.19"/>
<polygon fill="#63b8ff" stroke="#63b8ff" points="548.28,-381.44 558.87,-381.13 550.39,-374.76 548.28,-381.44"/>
</a>
</g>
</g>
<!-- Node11 -->
<g id="Node000011" class="node">
<title>Node11</title>
<g id="a_Node000011"><a xlink:href="../../d5/d2a/class_face_a1dcbb73e92699148519e558ae989117f.html#a1dcbb73e92699148519e558ae989117f" target="_top" xlink:title=" ">
<polygon fill="white" stroke="#666666" points="655,-327.25 545.25,-327.25 545.25,-308 655,-308 655,-327.25"/>
<text text-anchor="middle" x="600.12" y="-313.75" font-family="Helvetica,sans-Serif" font-size="10.00">Face::Find_Gradients</text>
</a>
</g>
</g>
<!-- Node7&#45;&gt;Node11 -->
<g id="edge10_Node000007_Node000011" class="edge">
<title>Node7&#45;&gt;Node11</title>
<g id="a_edge10_Node000007_Node000011"><a xlink:title=" ">
<path fill="none" stroke="#63b8ff" d="M501.25,-317.62C512.03,-317.62 523.05,-317.62 533.63,-317.62"/>
<polygon fill="#63b8ff" stroke="#63b8ff" points="533.38,-321.13 543.38,-317.63 533.38,-314.13 533.38,-321.13"/>
</a>
</g>
</g>
<!-- Node15 -->
<g id="Node000015" class="node">
<title>Node15</title>
<g id="a_Node000015"><a xlink:href="../../dd/d11/class_cell_af37bc52fb84ad9749bddb65f09d837b5.html#af37bc52fb84ad9749bddb65f09d837b5" target="_top" xlink:title=" ">
<polygon fill="white" stroke="#666666" points="661.38,-290.25 538.88,-290.25 538.88,-271 661.38,-271 661.38,-290.25"/>
<text text-anchor="middle" x="600.12" y="-276.75" font-family="Helvetica,sans-Serif" font-size="10.00">Cell::Get_QatCellCenter</text>
</a>
</g>
</g>
<!-- Node7&#45;&gt;Node15 -->
<g id="edge14_Node000007_Node000015" class="edge">
<title>Node7&#45;&gt;Node15</title>
<g id="a_edge14_Node000007_Node000015"><a xlink:title=" ">
<path fill="none" stroke="#63b8ff" d="M473.4,-307.51C494.19,-303.07 518.81,-297.8 540.73,-293.11"/>
<polygon fill="#63b8ff" stroke="#63b8ff" points="541.38,-296.55 550.43,-291.04 539.92,-289.71 541.38,-296.55"/>
</a>
</g>
</g>
<!-- Node12 -->
<g id="Node000012" class="node">
<title>Node12</title>
<g id="a_Node000012"><a xlink:href="../../d5/d2a/class_face_ae6a98fe15c04148426e9875ad29f03cc.html#ae6a98fe15c04148426e9875ad29f03cc" target="_top" xlink:title=" ">
<polygon fill="white" stroke="#666666" points="825.12,-364.25 712.38,-364.25 712.38,-345 825.12,-345 825.12,-364.25"/>
<text text-anchor="middle" x="768.75" y="-350.75" font-family="Helvetica,sans-Serif" font-size="10.00">Face::Scalar_dot_ndS</text>
</a>
</g>
</g>
<!-- Node11&#45;&gt;Node12 -->
<g id="edge11_Node000011_Node000012" class="edge">
<title>Node11&#45;&gt;Node12</title>
<g id="a_edge11_Node000011_Node000012"><a xlink:title=" ">
<path fill="none" stroke="#63b8ff" d="M646.66,-327.74C666.59,-332.16 690.17,-337.4 711.21,-342.07"/>
<polygon fill="#63b8ff" stroke="#63b8ff" points="710.28,-345.45 720.8,-344.2 711.79,-338.61 710.28,-345.45"/>
</a>
</g>
</g>
<!-- Node13 -->
<g id="Node000013" class="node">
<title>Node13</title>
<g id="a_Node000013"><a xlink:href="../../d5/d2a/class_face_a7dbfe0e14e693127d4d75dd68f879f99.html#a7dbfe0e14e693127d4d75dd68f879f99" target="_top" xlink:title=" ">
<polygon fill="white" stroke="#666666" points="838.25,-327.25 699.25,-327.25 699.25,-308 838.25,-308 838.25,-327.25"/>
<text text-anchor="middle" x="768.75" y="-313.75" font-family="Helvetica,sans-Serif" font-size="10.00">Face::Thermal_Conductivity</text>
</a>
</g>
</g>
<!-- Node11&#45;&gt;Node13 -->
<g id="edge12_Node000011_Node000013" class="edge">
<title>Node11&#45;&gt;Node13</title>
<g id="a_edge12_Node000011_Node000013"><a xlink:title=" ">
<path fill="none" stroke="#63b8ff" d="M655.22,-317.62C665.59,-317.62 676.65,-317.62 687.63,-317.62"/>
<polygon fill="#63b8ff" stroke="#63b8ff" points="687.51,-321.13 697.51,-317.63 687.51,-314.13 687.51,-321.13"/>
</a>
</g>
</g>
<!-- Node14 -->
<g id="Node000014" class="node">
<title>Node14</title>
<g id="a_Node000014"><a xlink:href="../../d5/d2a/class_face_a658f439bcdacbf424d659be66ae7bce7.html#a658f439bcdacbf424d659be66ae7bce7" target="_top" xlink:title=" ">
<polygon fill="white" stroke="#666666" points="810.88,-290.25 726.62,-290.25 726.62,-271 810.88,-271 810.88,-290.25"/>
<text text-anchor="middle" x="768.75" y="-276.75" font-family="Helvetica,sans-Serif" font-size="10.00">Face::Viscosity</text>
</a>
</g>
</g>
<!-- Node11&#45;&gt;Node14 -->
<g id="edge13_Node000011_Node000014" class="edge">
<title>Node11&#45;&gt;Node14</title>
<g id="a_edge13_Node000011_Node000014"><a xlink:title=" ">
<path fill="none" stroke="#63b8ff" d="M646.66,-307.51C667.83,-302.81 693.12,-297.2 715.11,-292.31"/>
<polygon fill="#63b8ff" stroke="#63b8ff" points="715.79,-295.75 724.79,-290.16 714.27,-288.92 715.79,-295.75"/>
</a>
</g>
</g>
<!-- Node16&#45;&gt;Node8 -->
<g id="edge16_Node000016_Node000008" class="edge">
<title>Node16&#45;&gt;Node8</title>
<g id="a_edge16_Node000016_Node000008"><a xlink:title=" ">
<path fill="none" stroke="#63b8ff" d="M484.21,-239.64C501.36,-240.23 520.19,-240.89 537.55,-241.49"/>
<polygon fill="#63b8ff" stroke="#63b8ff" points="537.09,-244.98 547.21,-241.82 537.33,-237.98 537.09,-244.98"/>
</a>
</g>
</g>
<!-- Node17 -->
<g id="Node000017" class="node">
<title>Node17</title>
<g id="a_Node000017"><a xlink:href="../../d3/d82/_c_type___elliptic___grid_8cpp_ab180cb902cf4be5a8d26b78172e9491f.html#ab180cb902cf4be5a8d26b78172e9491f" target="_top" xlink:title=" ">
<polygon fill="white" stroke="#666666" points="614.52,-216.25 585.73,-216.25 585.73,-197 614.52,-197 614.52,-216.25"/>
<text text-anchor="middle" x="600.12" y="-202.75" font-family="Helvetica,sans-Serif" font-size="10.00">Q</text>
</a>
</g>
</g>
<!-- Node16&#45;&gt;Node17 -->
<g id="edge17_Node000016_Node000017" class="edge">
<title>Node16&#45;&gt;Node17</title>
<g id="a_edge17_Node000016_Node000017"><a xlink:title=" ">
<path fill="none" stroke="#63b8ff" d="M484.21,-227.22C514.83,-221.73 550.8,-215.29 574.23,-211.09"/>
<polygon fill="#63b8ff" stroke="#63b8ff" points="574.83,-214.54 584.05,-209.33 573.59,-207.64 574.83,-214.54"/>
</a>
</g>
</g>
<!-- Node18&#45;&gt;Node8 -->
<g id="edge19_Node000018_Node000008" class="edge">
<title>Node18&#45;&gt;Node8</title>
<g id="a_edge19_Node000018_Node000008"><a xlink:title=" ">
<path fill="none" stroke="#63b8ff" d="M473.4,-270.51C494.19,-266.07 518.81,-260.8 540.73,-256.11"/>
<polygon fill="#63b8ff" stroke="#63b8ff" points="541.38,-259.55 550.43,-254.04 539.92,-252.71 541.38,-259.55"/>
</a>
</g>
</g>
<!-- Node18&#45;&gt;Node9 -->
<g id="edge20_Node000018_Node000009" class="edge">
<title>Node18&#45;&gt;Node9</title>
<g id="a_edge20_Node000018_Node000009"><a xlink:title=" ">
<path fill="none" stroke="#63b8ff" d="M483.48,-290.74C489.59,-292.88 495.56,-295.48 501,-298.62 521.14,-310.27 517.13,-324.52 537,-336.62 539.02,-337.86 541.13,-339.01 543.31,-340.08"/>
<polygon fill="#63b8ff" stroke="#63b8ff" points="541.84,-343.26 552.41,-343.99 544.6,-336.83 541.84,-343.26"/>
</a>
</g>
</g>
<!-- Node18&#45;&gt;Node11 -->
<g id="edge21_Node000018_Node000011" class="edge">
<title>Node18&#45;&gt;Node11</title>
<g id="a_edge21_Node000018_Node000011"><a xlink:title=" ">
<path fill="none" stroke="#63b8ff" d="M473.4,-290.74C494.19,-295.18 518.81,-300.45 540.73,-305.14"/>
<polygon fill="#63b8ff" stroke="#63b8ff" points="539.92,-308.54 550.43,-307.21 541.38,-301.7 539.92,-308.54"/>
</a>
</g>
</g>
<!-- Node18&#45;&gt;Node15 -->
<g id="edge22_Node000018_Node000015" class="edge">
<title>Node18&#45;&gt;Node15</title>
<g id="a_edge22_Node000018_Node000015"><a xlink:title=" ">
<path fill="none" stroke="#63b8ff" d="M492.52,-280.62C503.88,-280.62 515.73,-280.62 527.23,-280.62"/>
<polygon fill="#63b8ff" stroke="#63b8ff" points="527.07,-284.13 537.07,-280.63 527.07,-277.13 527.07,-284.13"/>
</a>
</g>
</g>
<!-- Node20&#45;&gt;Node4 -->
<g id="edge25_Node000020_Node000004" class="edge">
<title>Node20&#45;&gt;Node4</title>
<g id="a_edge25_Node000020_Node000004"><a xlink:title=" ">
<path fill="none" stroke="#63b8ff" d="M270.98,-112.67C291.9,-120.59 322.22,-131.6 349.25,-139.62 358.18,-142.28 367.79,-144.82 377.06,-147.11"/>
<polygon fill="#63b8ff" stroke="#63b8ff" points="376.11,-150.48 386.65,-149.43 377.75,-143.68 376.11,-150.48"/>
</a>
</g>
</g>
<!-- Node21 -->
<g id="Node000021" class="node">
<title>Node21</title>
<g id="a_Node000021"><a xlink:href="../../d5/d2a/class_face_a05485559cf65d981de1fb06208ca23ce.html#a05485559cf65d981de1fb06208ca23ce" target="_top" xlink:title=" ">
<polygon fill="white" stroke="#666666" points="482.62,-19.25 367.62,-19.25 367.62,0 482.62,0 482.62,-19.25"/>
<text text-anchor="middle" x="425.12" y="-5.75" font-family="Helvetica,sans-Serif" font-size="10.00">Face::Get_Face_TndS</text>
</a>
</g>
</g>
<!-- Node20&#45;&gt;Node21 -->
<g id="edge26_Node000020_Node000021" class="edge">
<title>Node20&#45;&gt;Node21</title>
<g id="a_edge26_Node000020_Node000021"><a xlink:title=" ">
<path fill="none" stroke="#63b8ff" d="M255.77,-92.74C273.69,-76.67 311.59,-44.9 349.25,-27.62 352.76,-26.02 356.43,-24.54 360.18,-23.19"/>
<polygon fill="#63b8ff" stroke="#63b8ff" points="361.03,-26.59 369.45,-20.17 358.86,-19.94 361.03,-26.59"/>
</a>
</g>
</g>
<!-- Node22 -->
<g id="Node000022" class="node">
<title>Node22</title>
<g id="a_Node000022"><a xlink:href="../../d5/d2a/class_face_aaa668000a8eb31366c9333d326f7a2d0.html#aaa668000a8eb31366c9333d326f7a2d0" target="_top" xlink:title=" ">
<polygon fill="white" stroke="#666666" points="482.25,-130.25 368,-130.25 368,-111 482.25,-111 482.25,-130.25"/>
<text text-anchor="middle" x="425.12" y="-116.75" font-family="Helvetica,sans-Serif" font-size="10.00">Face::Get_Face_undS</text>
</a>
</g>
</g>
<!-- Node20&#45;&gt;Node22 -->
<g id="edge27_Node000020_Node000022" class="edge">
<title>Node20&#45;&gt;Node22</title>
<g id="a_edge27_Node000020_Node000022"><a xlink:title=" ">
<path fill="none" stroke="#63b8ff" d="M313.56,-109.51C327.66,-110.92 342.49,-112.42 356.56,-113.83"/>
<polygon fill="#63b8ff" stroke="#63b8ff" points="355.84,-117.28 366.14,-114.79 356.54,-110.31 355.84,-117.28"/>
</a>
</g>
</g>
<!-- Node23 -->
<g id="Node000023" class="node">
<title>Node23</title>
<g id="a_Node000023"><a xlink:href="../../d5/d2a/class_face_af5ae2d774dbe2dd917de1ad630470a17.html#af5ae2d774dbe2dd917de1ad630470a17" target="_top" xlink:title=" ">
<polygon fill="white" stroke="#666666" points="482.25,-93.25 368,-93.25 368,-74 482.25,-74 482.25,-93.25"/>
<text text-anchor="middle" x="425.12" y="-79.75" font-family="Helvetica,sans-Serif" font-size="10.00">Face::Get_Face_vndS</text>
</a>
</g>
</g>
<!-- Node20&#45;&gt;Node23 -->
<g id="edge28_Node000020_Node000023" class="edge">
<title>Node20&#45;&gt;Node23</title>
<g id="a_edge28_Node000020_Node000023"><a xlink:title=" ">
<path fill="none" stroke="#63b8ff" d="M313.56,-95.36C327.66,-93.86 342.49,-92.29 356.56,-90.8"/>
<polygon fill="#63b8ff" stroke="#63b8ff" points="356.56,-94.32 366.14,-89.78 355.83,-87.36 356.56,-94.32"/>
</a>
</g>
</g>
<!-- Node24 -->
<g id="Node000024" class="node">
<title>Node24</title>
<g id="a_Node000024"><a xlink:href="../../d5/d2a/class_face_a944ff71ee4a44ca30b68175d5a5e2a08.html#a944ff71ee4a44ca30b68175d5a5e2a08" target="_top" xlink:title=" ">
<polygon fill="white" stroke="#666666" points="483.38,-56.25 366.88,-56.25 366.88,-37 483.38,-37 483.38,-56.25"/>
<text text-anchor="middle" x="425.12" y="-42.75" font-family="Helvetica,sans-Serif" font-size="10.00">Face::Get_Face_wndS</text>
</a>
</g>
</g>
<!-- Node20&#45;&gt;Node24 -->
<g id="edge29_Node000020_Node000024" class="edge">
<title>Node20&#45;&gt;Node24</title>
<g id="a_edge29_Node000020_Node000024"><a xlink:title=" ">
<path fill="none" stroke="#63b8ff" d="M270.1,-92.6C291.03,-84.42 321.8,-72.9 349.25,-64.62 355.09,-62.86 361.23,-61.16 367.37,-59.55"/>
<polygon fill="#63b8ff" stroke="#63b8ff" points="368.07,-62.98 376.9,-57.12 366.35,-56.19 368.07,-62.98"/>
</a>
</g>
</g>
</g>
</svg>
