<?xml version="1.0" encoding="UTF-8" standalone="no"?>
<!DOCTYPE svg PUBLIC "-//W3C//DTD SVG 1.1//EN"
 "http://www.w3.org/Graphics/SVG/1.1/DTD/svg11.dtd">
<!-- Generated by graphviz version 12.2.1 (20241206.2353)
 -->
<!-- Title: Cell::Add_Fluxes Pages: 1 -->
<svg width="367pt" height="64pt"
 viewBox="0.00 0.00 367.25 64.25" xmlns="http://www.w3.org/2000/svg" xmlns:xlink="http://www.w3.org/1999/xlink">
<g id="graph0" class="graph" transform="scale(1 1) rotate(0) translate(4 60.25)">
<title>Cell::Add_Fluxes</title>
<!-- Node1 -->
<g id="Node000001" class="node">
<title>Node1</title>
<g id="a_Node000001"><a xlink:title=" ">
<polygon fill="#999999" stroke="#666666" points="359.25,-37.25 268.25,-37.25 268.25,-18 359.25,-18 359.25,-37.25"/>
<text text-anchor="middle" x="313.75" y="-23.75" font-family="Helvetica,sans-Serif" font-size="10.00">Cell::Add_Fluxes</text>
</a>
</g>
</g>
<!-- Node2 -->
<g id="Node000002" class="node">
<title>Node2</title>
<g id="a_Node000002"><a xlink:href="../../dd/d11/class_cell_a5e21ff4d88e1f4fb854bdcd5b6505893.html#a5e21ff4d88e1f4fb854bdcd5b6505893" target="_top" xlink:title=" ">
<polygon fill="white" stroke="#666666" points="212,-56.25 113.5,-56.25 113.5,-37 212,-37 212,-56.25"/>
<text text-anchor="middle" x="162.75" y="-42.75" font-family="Helvetica,sans-Serif" font-size="10.00">Cell::Cal_Stresses</text>
</a>
</g>
</g>
<!-- Node1&#45;&gt;Node2 -->
<g id="edge1_Node000001_Node000002" class="edge">
<title>Node1&#45;&gt;Node2</title>
<g id="a_edge1_Node000001_Node000002"><a xlink:title=" ">
<path fill="none" stroke="#63b8ff" d="M257.05,-34.73C242.35,-36.6 226.61,-38.61 212.32,-40.43"/>
<polygon fill="#63b8ff" stroke="#63b8ff" points="257.07,-38.25 266.54,-33.52 256.18,-31.31 257.07,-38.25"/>
</a>
</g>
</g>
<!-- Node3 -->
<g id="Node000003" class="node">
<title>Node3</title>
<g id="a_Node000003"><a xlink:href="../../dd/d11/class_cell_a4a591da0b84980196864d92dea915c67.html#a4a591da0b84980196864d92dea915c67" target="_top" xlink:title=" ">
<polygon fill="white" stroke="#666666" points="232.25,-19.25 93.25,-19.25 93.25,0 232.25,0 232.25,-19.25"/>
<text text-anchor="middle" x="162.75" y="-5.75" font-family="Helvetica,sans-Serif" font-size="10.00">Cell::Evaluate_FluxonFaces</text>
</a>
</g>
</g>
<!-- Node1&#45;&gt;Node3 -->
<g id="edge2_Node000001_Node000003" class="edge">
<title>Node1&#45;&gt;Node3</title>
<g id="a_edge2_Node000001_Node000003"><a xlink:title=" ">
<path fill="none" stroke="#63b8ff" d="M256.78,-20.86C248.91,-19.91 240.75,-18.93 232.68,-17.95"/>
<polygon fill="#63b8ff" stroke="#63b8ff" points="256.19,-24.32 266.54,-22.04 257.03,-17.37 256.19,-24.32"/>
</a>
</g>
</g>
<!-- Node4 -->
<g id="Node000004" class="node">
<title>Node4</title>
<g id="a_Node000004"><a xlink:href="../../dd/d11/class_cell_aaf94e79f1a6eaba16660a81b86b5d4c1.html#aaf94e79f1a6eaba16660a81b86b5d4c1" target="_top" xlink:title=" ">
<polygon fill="white" stroke="#666666" points="57.25,-19.25 0,-19.25 0,0 57.25,0 57.25,-19.25"/>
<text text-anchor="middle" x="28.62" y="-5.75" font-family="Helvetica,sans-Serif" font-size="10.00">Cell::Rk4</text>
</a>
</g>
</g>
<!-- Node3&#45;&gt;Node4 -->
<g id="edge3_Node000003_Node000004" class="edge">
<title>Node3&#45;&gt;Node4</title>
<g id="a_edge3_Node000003_Node000004"><a xlink:title=" ">
<path fill="none" stroke="#63b8ff" d="M81.6,-9.62C73.06,-9.62 64.84,-9.62 57.56,-9.62"/>
<polygon fill="#63b8ff" stroke="#63b8ff" points="81.47,-13.13 91.47,-9.63 81.47,-6.13 81.47,-13.13"/>
</a>
</g>
</g>
</g>
</svg>
