<?xml version="1.0" encoding="UTF-8" standalone="no"?>
<!DOCTYPE svg PUBLIC "-//W3C//DTD SVG 1.1//EN"
 "http://www.w3.org/Graphics/SVG/1.1/DTD/svg11.dtd">
<!-- Generated by graphviz version 12.2.1 (20241206.2353)
 -->
<!-- Title: Form_Cells Pages: 1 -->
<svg width="470pt" height="212pt"
 viewBox="0.00 0.00 470.25 212.25" xmlns="http://www.w3.org/2000/svg" xmlns:xlink="http://www.w3.org/1999/xlink">
<g id="graph0" class="graph" transform="scale(1 1) rotate(0) translate(4 208.25)">
<title>Form_Cells</title>
<!-- Node1 -->
<g id="Node000001" class="node">
<title>Node1</title>
<g id="a_Node000001"><a xlink:title=" ">
<polygon fill="#999999" stroke="#666666" points="66.25,-94.25 0,-94.25 0,-75 66.25,-75 66.25,-94.25"/>
<text text-anchor="middle" x="33.12" y="-80.75" font-family="Helvetica,sans-Serif" font-size="10.00">Form_Cells</text>
</a>
</g>
</g>
<!-- Node2 -->
<g id="Node000002" class="node">
<title>Node2</title>
<g id="a_Node000002"><a xlink:href="../../d8/d40/_grid___computations_8cpp_a7e6f11445e90cefdcb91f369846ec691.html#a7e6f11445e90cefdcb91f369846ec691" target="_top" xlink:title=" ">
<polygon fill="white" stroke="#666666" points="219.5,-194.88 105.25,-194.88 105.25,-164.38 219.5,-164.38 219.5,-194.88"/>
<text text-anchor="start" x="113.25" y="-181.38" font-family="Helvetica,sans-Serif" font-size="10.00">Calculate_Cell_Center</text>
<text text-anchor="middle" x="162.38" y="-170.12" font-family="Helvetica,sans-Serif" font-size="10.00">_Distances</text>
</a>
</g>
</g>
<!-- Node1&#45;&gt;Node2 -->
<g id="edge1_Node000001_Node000002" class="edge">
<title>Node1&#45;&gt;Node2</title>
<g id="a_edge1_Node000001_Node000002"><a xlink:title=" ">
<path fill="none" stroke="#63b8ff" d="M44.87,-94.34C58.02,-106.06 81.13,-126.1 102.25,-141.62 109.8,-147.17 118.14,-152.81 126.11,-157.99"/>
<polygon fill="#63b8ff" stroke="#63b8ff" points="124,-160.79 134.31,-163.22 127.76,-154.89 124,-160.79"/>
</a>
</g>
</g>
<!-- Node5 -->
<g id="Node000005" class="node">
<title>Node5</title>
<g id="a_Node000005"><a xlink:href="../../d8/d40/_grid___computations_8cpp_a209db16fba143a9833c8d4021624afb0.html#a209db16fba143a9833c8d4021624afb0" target="_top" xlink:title=" ">
<polygon fill="white" stroke="#666666" points="360.38,-93.25 288.12,-93.25 288.12,-74 360.38,-74 360.38,-93.25"/>
<text text-anchor="middle" x="324.25" y="-79.75" font-family="Helvetica,sans-Serif" font-size="10.00">Check_Cells</text>
</a>
</g>
</g>
<!-- Node1&#45;&gt;Node5 -->
<g id="edge4_Node000001_Node000005" class="edge">
<title>Node1&#45;&gt;Node5</title>
<g id="a_edge4_Node000001_Node000005"><a xlink:title=" ">
<path fill="none" stroke="#63b8ff" d="M66.73,-84.51C118.1,-84.33 218.05,-83.99 276.88,-83.79"/>
<polygon fill="#63b8ff" stroke="#63b8ff" points="276.57,-87.29 286.55,-83.75 276.54,-80.29 276.57,-87.29"/>
</a>
</g>
</g>
<!-- Node6 -->
<g id="Node000006" class="node">
<title>Node6</title>
<g id="a_Node000006"><a xlink:href="../../df/daf/_co___volume___grid___computations_8cpp_a097cceef075e862683dd9f6e95d091d4.html#a097cceef075e862683dd9f6e95d091d4" target="_top" xlink:title=" ">
<polygon fill="white" stroke="#666666" points="222.5,-132.25 102.25,-132.25 102.25,-113 222.5,-113 222.5,-132.25"/>
<text text-anchor="middle" x="162.38" y="-118.75" font-family="Helvetica,sans-Serif" font-size="10.00">Construct_Co_Volumes</text>
</a>
</g>
</g>
<!-- Node1&#45;&gt;Node6 -->
<g id="edge5_Node000001_Node000006" class="edge">
<title>Node1&#45;&gt;Node6</title>
<g id="a_edge5_Node000001_Node000006"><a xlink:title=" ">
<path fill="none" stroke="#63b8ff" d="M66.56,-94.31C81.91,-98.89 100.46,-104.44 117.08,-109.4"/>
<polygon fill="#63b8ff" stroke="#63b8ff" points="115.63,-112.62 126.21,-112.12 117.63,-105.91 115.63,-112.62"/>
</a>
</g>
</g>
<!-- Node9 -->
<g id="Node000009" class="node">
<title>Node9</title>
<g id="a_Node000009"><a xlink:href="../../d8/d40/_grid___computations_8cpp_ae5f2b7a0fdbc48f8fdf897222b7ded04.html#ae5f2b7a0fdbc48f8fdf897222b7ded04" target="_top" xlink:title=" ">
<polygon fill="white" stroke="#666666" points="221.38,-19.25 103.38,-19.25 103.38,0 221.38,0 221.38,-19.25"/>
<text text-anchor="middle" x="162.38" y="-5.75" font-family="Helvetica,sans-Serif" font-size="10.00">Construct_Ghost_Cells</text>
</a>
</g>
</g>
<!-- Node1&#45;&gt;Node9 -->
<g id="edge8_Node000001_Node000009" class="edge">
<title>Node1&#45;&gt;Node9</title>
<g id="a_edge8_Node000001_Node000009"><a xlink:title=" ">
<path fill="none" stroke="#63b8ff" d="M43.35,-74.76C55.66,-62.14 78.65,-40.4 102.25,-27.62 104.73,-26.28 107.32,-25.03 109.97,-23.86"/>
<polygon fill="#63b8ff" stroke="#63b8ff" points="111,-27.21 119.02,-20.29 108.43,-20.7 111,-27.21"/>
</a>
</g>
</g>
<!-- Node11 -->
<g id="Node000011" class="node">
<title>Node11</title>
<g id="a_Node000011"><a xlink:href="../../d8/d40/_grid___computations_8cpp_a663d4b3ae06e638c2f2e82ad437e831e.html#a663d4b3ae06e638c2f2e82ad437e831e" target="_top" xlink:title="Reads the input grid file and constructs physical cells, evaluates face areas, normals,...">
<polygon fill="white" stroke="#666666" points="193.62,-56.25 131.12,-56.25 131.12,-37 193.62,-37 193.62,-56.25"/>
<text text-anchor="middle" x="162.38" y="-42.75" font-family="Helvetica,sans-Serif" font-size="10.00">Read_Grid</text>
</a>
</g>
</g>
<!-- Node1&#45;&gt;Node11 -->
<g id="edge10_Node000001_Node000011" class="edge">
<title>Node1&#45;&gt;Node11</title>
<g id="a_edge10_Node000001_Node000011"><a xlink:title=" ">
<path fill="none" stroke="#63b8ff" d="M66.56,-74.94C82.75,-70.1 102.52,-64.2 119.81,-59.04"/>
<polygon fill="#63b8ff" stroke="#63b8ff" points="120.72,-62.42 129.3,-56.2 118.71,-55.71 120.72,-62.42"/>
</a>
</g>
</g>
<!-- Node3 -->
<g id="Node000003" class="node">
<title>Node3</title>
<g id="a_Node000003"><a xlink:href="../../d8/d40/_grid___computations_8cpp_a1f273579608200866e02e34f16a3eb6b.html#a1f273579608200866e02e34f16a3eb6b" target="_top" xlink:title=" ">
<polygon fill="white" stroke="#666666" points="390,-204.25 258.5,-204.25 258.5,-185 390,-185 390,-204.25"/>
<text text-anchor="middle" x="324.25" y="-190.75" font-family="Helvetica,sans-Serif" font-size="10.00">Distance_Between_Points</text>
</a>
</g>
</g>
<!-- Node2&#45;&gt;Node3 -->
<g id="edge2_Node000002_Node000003" class="edge">
<title>Node2&#45;&gt;Node3</title>
<g id="a_edge2_Node000002_Node000003"><a xlink:title=" ">
<path fill="none" stroke="#63b8ff" d="M219.74,-184.91C228.46,-185.73 237.6,-186.59 246.68,-187.44"/>
<polygon fill="#63b8ff" stroke="#63b8ff" points="246.32,-190.92 256.6,-188.37 246.97,-183.95 246.32,-190.92"/>
</a>
</g>
</g>
<!-- Node4 -->
<g id="Node000004" class="node">
<title>Node4</title>
<g id="a_Node000004"><a xlink:href="../../dc/d3a/src_2_utility___files_8cpp_abf34e0b480f7580b0cd4237a76aed670.html#abf34e0b480f7580b0cd4237a76aed670" target="_top" xlink:title=" ">
<polygon fill="white" stroke="#666666" points="462.25,-204.25 426,-204.25 426,-185 462.25,-185 462.25,-204.25"/>
<text text-anchor="middle" x="444.12" y="-190.75" font-family="Helvetica,sans-Serif" font-size="10.00">Print</text>
</a>
</g>
</g>
<!-- Node3&#45;&gt;Node4 -->
<g id="edge3_Node000003_Node000004" class="edge">
<title>Node3&#45;&gt;Node4</title>
<g id="a_edge3_Node000003_Node000004"><a xlink:title=" ">
<path fill="none" stroke="#63b8ff" d="M390.39,-194.62C398.72,-194.62 406.87,-194.62 414.19,-194.62"/>
<polygon fill="#63b8ff" stroke="#63b8ff" points="414.07,-198.13 424.07,-194.63 414.07,-191.13 414.07,-198.13"/>
</a>
</g>
</g>
<!-- Node7 -->
<g id="Node000007" class="node">
<title>Node7</title>
<g id="a_Node000007"><a xlink:href="../../d8/d40/_grid___computations_8cpp_a0d19b951f556ac7a935819a38d2e1a6f.html#a0d19b951f556ac7a935819a38d2e1a6f" target="_top" xlink:title=" ">
<polygon fill="white" stroke="#666666" points="367.12,-167.25 281.38,-167.25 281.38,-148 367.12,-148 367.12,-167.25"/>
<text text-anchor="middle" x="324.25" y="-153.75" font-family="Helvetica,sans-Serif" font-size="10.00">Construct_Face</text>
</a>
</g>
</g>
<!-- Node6&#45;&gt;Node7 -->
<g id="edge6_Node000006_Node000007" class="edge">
<title>Node6&#45;&gt;Node7</title>
<g id="a_edge6_Node000006_Node000007"><a xlink:title=" ">
<path fill="none" stroke="#63b8ff" d="M209.62,-132.75C228.43,-136.87 250.28,-141.65 269.78,-145.92"/>
<polygon fill="#63b8ff" stroke="#63b8ff" points="268.94,-149.32 279.46,-148.04 270.44,-142.48 268.94,-149.32"/>
</a>
</g>
</g>
<!-- Node8 -->
<g id="Node000008" class="node">
<title>Node8</title>
<g id="a_Node000008"><a xlink:href="../../d8/d40/_grid___computations_8cpp_a29418163b6fbd0aa81c60026e430d0b8.html#a29418163b6fbd0aa81c60026e430d0b8" target="_top" xlink:title=" ">
<polygon fill="white" stroke="#666666" points="386.62,-130.25 261.88,-130.25 261.88,-111 386.62,-111 386.62,-130.25"/>
<text text-anchor="middle" x="324.25" y="-116.75" font-family="Helvetica,sans-Serif" font-size="10.00">Evaluate_Cross_Product</text>
</a>
</g>
</g>
<!-- Node6&#45;&gt;Node8 -->
<g id="edge7_Node000006_Node000008" class="edge">
<title>Node6&#45;&gt;Node8</title>
<g id="a_edge7_Node000006_Node000008"><a xlink:title=" ">
<path fill="none" stroke="#63b8ff" d="M222.91,-121.88C231.77,-121.77 240.99,-121.65 250.1,-121.54"/>
<polygon fill="#63b8ff" stroke="#63b8ff" points="250.06,-125.04 260.02,-121.42 249.97,-118.04 250.06,-125.04"/>
</a>
</g>
</g>
<!-- Node10 -->
<g id="Node000010" class="node">
<title>Node10</title>
<g id="a_Node000010"><a xlink:href="../../d8/d40/_grid___computations_8cpp_a2d284e26ddef582519953e8b8300184e.html#a2d284e26ddef582519953e8b8300184e" target="_top" xlink:title=" ">
<polygon fill="white" stroke="#666666" points="364.88,-19.25 283.62,-19.25 283.62,0 364.88,0 364.88,-19.25"/>
<text text-anchor="middle" x="324.25" y="-5.75" font-family="Helvetica,sans-Serif" font-size="10.00">Construct_Cell</text>
</a>
</g>
</g>
<!-- Node9&#45;&gt;Node10 -->
<g id="edge9_Node000009_Node000010" class="edge">
<title>Node9&#45;&gt;Node10</title>
<g id="a_edge9_Node000009_Node000010"><a xlink:title=" ">
<path fill="none" stroke="#63b8ff" d="M221.55,-9.62C238.07,-9.62 255.94,-9.62 272.02,-9.62"/>
<polygon fill="#63b8ff" stroke="#63b8ff" points="271.85,-13.13 281.85,-9.63 271.85,-6.13 271.85,-13.13"/>
</a>
</g>
</g>
<!-- Node11&#45;&gt;Node5 -->
<g id="edge11_Node000011_Node000005" class="edge">
<title>Node11&#45;&gt;Node5</title>
<g id="a_edge11_Node000011_Node000005"><a xlink:title=" ">
<path fill="none" stroke="#63b8ff" d="M193.82,-53.67C217.29,-59.1 250.13,-66.7 276.86,-72.89"/>
<polygon fill="#63b8ff" stroke="#63b8ff" points="275.89,-76.26 286.42,-75.1 277.47,-69.44 275.89,-76.26"/>
</a>
</g>
</g>
<!-- Node11&#45;&gt;Node10 -->
<g id="edge12_Node000011_Node000010" class="edge">
<title>Node11&#45;&gt;Node10</title>
<g id="a_edge12_Node000011_Node000010"><a xlink:title=" ">
<path fill="none" stroke="#63b8ff" d="M193.82,-39.58C215.92,-34.46 246.34,-27.43 272.13,-21.46"/>
<polygon fill="#63b8ff" stroke="#63b8ff" points="272.81,-24.89 281.76,-19.23 271.23,-18.07 272.81,-24.89"/>
</a>
</g>
</g>
<!-- Node12 -->
<g id="Node000012" class="node">
<title>Node12</title>
<g id="a_Node000012"><a xlink:href="../../d8/d40/_grid___computations_8cpp_aa376223dcb91990013ac6549090115ea.html#aa376223dcb91990013ac6549090115ea" target="_top" xlink:title=" ">
<polygon fill="white" stroke="#666666" points="373.5,-56.25 275,-56.25 275,-37 373.5,-37 373.5,-56.25"/>
<text text-anchor="middle" x="324.25" y="-42.75" font-family="Helvetica,sans-Serif" font-size="10.00">Conversion_Factor</text>
</a>
</g>
</g>
<!-- Node11&#45;&gt;Node12 -->
<g id="edge13_Node000011_Node000012" class="edge">
<title>Node11&#45;&gt;Node12</title>
<g id="a_edge13_Node000011_Node000012"><a xlink:title=" ">
<path fill="none" stroke="#63b8ff" d="M193.82,-46.62C213.44,-46.62 239.62,-46.62 263.3,-46.62"/>
<polygon fill="#63b8ff" stroke="#63b8ff" points="263.17,-50.13 273.17,-46.63 263.17,-43.13 263.17,-50.13"/>
</a>
</g>
</g>
</g>
</svg>
