<?xml version="1.0" encoding="UTF-8" standalone="no"?>
<!DOCTYPE svg PUBLIC "-//W3C//DTD SVG 1.1//EN"
 "http://www.w3.org/Graphics/SVG/1.1/DTD/svg11.dtd">
<!-- Generated by graphviz version 12.2.1 (20241206.2353)
 -->
<!-- Title: Write_Cell_Info Pages: 1 -->
<svg width="370pt" height="77pt"
 viewBox="0.00 0.00 370.25 77.26" xmlns="http://www.w3.org/2000/svg" xmlns:xlink="http://www.w3.org/1999/xlink">
<g id="graph0" class="graph" transform="scale(1 1) rotate(0) translate(4 73.26)">
<title>Write_Cell_Info</title>
<!-- Node1 -->
<g id="Node000001" class="node">
<title>Node1</title>
<g id="a_Node000001"><a xlink:title=" ">
<polygon fill="#999999" stroke="#666666" points="362.25,-56.25 279.5,-56.25 279.5,-37 362.25,-37 362.25,-56.25"/>
<text text-anchor="middle" x="320.88" y="-42.75" font-family="Helvetica,sans-Serif" font-size="10.00">Write_Cell_Info</text>
</a>
</g>
</g>
<!-- Node2 -->
<g id="Node000002" class="node">
<title>Node2</title>
<g id="a_Node000002"><a xlink:href="../../dd/dbf/_euler___python___wrapper_8cpp_ac5ccb50c3be270f798e054dd36987442.html#ac5ccb50c3be270f798e054dd36987442" target="_top" xlink:title=" ">
<polygon fill="white" stroke="#666666" points="112.75,-56.25 0,-56.25 0,-37 112.75,-37 112.75,-56.25"/>
<text text-anchor="middle" x="56.38" y="-42.75" font-family="Helvetica,sans-Serif" font-size="10.00">PYBIND11_MODULE</text>
</a>
</g>
</g>
<!-- Node1&#45;&gt;Node2 -->
<g id="edge1_Node000001_Node000002" class="edge">
<title>Node1&#45;&gt;Node2</title>
<g id="a_edge1_Node000001_Node000002"><a xlink:title=" ">
<path fill="none" stroke="#63b8ff" d="M275.73,-59.54C265.26,-62.07 254.06,-64.33 243.5,-65.62 201.7,-70.75 190.64,-69.93 148.75,-65.62 131.66,-63.87 113.06,-60.31 97.13,-56.74"/>
<polygon fill="#63b8ff" stroke="#63b8ff" points="276.45,-62.97 285.28,-57.11 274.72,-56.19 276.45,-62.97"/>
</a>
</g>
</g>
<!-- Node3 -->
<g id="Node000003" class="node">
<title>Node3</title>
<g id="a_Node000003"><a xlink:href="../../dd/de9/_ramp__15___degree_8cpp_af85931ed4e293dce5c8e4acafecd54b5.html#af85931ed4e293dce5c8e4acafecd54b5" target="_top" xlink:title=" ">
<polygon fill="white" stroke="#666666" points="243.5,-56.25 148.75,-56.25 148.75,-37 243.5,-37 243.5,-56.25"/>
<text text-anchor="middle" x="196.12" y="-42.75" font-family="Helvetica,sans-Serif" font-size="10.00">Ramp_15_Degree</text>
</a>
</g>
</g>
<!-- Node1&#45;&gt;Node3 -->
<g id="edge2_Node000001_Node000003" class="edge">
<title>Node1&#45;&gt;Node3</title>
<g id="a_edge2_Node000001_Node000003"><a xlink:title=" ">
<path fill="none" stroke="#63b8ff" d="M267.6,-46.62C259.68,-46.62 251.55,-46.62 243.76,-46.62"/>
<polygon fill="#63b8ff" stroke="#63b8ff" points="267.49,-50.13 277.49,-46.63 267.49,-43.13 267.49,-50.13"/>
</a>
</g>
</g>
<!-- Node4 -->
<g id="Node000004" class="node">
<title>Node4</title>
<g id="a_Node000004"><a xlink:href="../../d2/d72/_scram___jet___inlet___test___case_8cpp_a49bbbeed352ab44d6248954f9d5391b0.html#a49bbbeed352ab44d6248954f9d5391b0" target="_top" xlink:title=" ">
<polygon fill="white" stroke="#666666" points="239.75,-19.25 152.5,-19.25 152.5,0 239.75,0 239.75,-19.25"/>
<text text-anchor="middle" x="196.12" y="-5.75" font-family="Helvetica,sans-Serif" font-size="10.00">Scram_Jet_Inlet</text>
</a>
</g>
</g>
<!-- Node1&#45;&gt;Node4 -->
<g id="edge4_Node000001_Node000004" class="edge">
<title>Node1&#45;&gt;Node4</title>
<g id="a_edge4_Node000001_Node000004"><a xlink:title=" ">
<path fill="none" stroke="#63b8ff" d="M275.38,-33.21C260.61,-28.76 244.42,-23.88 230.63,-19.72"/>
<polygon fill="#63b8ff" stroke="#63b8ff" points="274.3,-36.54 284.88,-36.08 276.32,-29.84 274.3,-36.54"/>
</a>
</g>
</g>
<!-- Node3&#45;&gt;Node2 -->
<g id="edge3_Node000003_Node000002" class="edge">
<title>Node3&#45;&gt;Node2</title>
<g id="a_edge3_Node000003_Node000002"><a xlink:title=" ">
<path fill="none" stroke="#63b8ff" d="M137.03,-46.62C129.08,-46.62 120.93,-46.62 113.02,-46.62"/>
<polygon fill="#63b8ff" stroke="#63b8ff" points="136.98,-50.13 146.98,-46.63 136.98,-43.13 136.98,-50.13"/>
</a>
</g>
</g>
<!-- Node4&#45;&gt;Node2 -->
<g id="edge5_Node000004_Node000002" class="edge">
<title>Node4&#45;&gt;Node2</title>
<g id="a_edge5_Node000004_Node000002"><a xlink:title=" ">
<path fill="none" stroke="#63b8ff" d="M146.65,-22.65C129.69,-27.2 110.91,-32.25 94.97,-36.53"/>
<polygon fill="#63b8ff" stroke="#63b8ff" points="147.27,-26.1 156.02,-20.13 145.46,-19.34 147.27,-26.1"/>
</a>
</g>
</g>
</g>
</svg>
