<?xml version="1.0" encoding="UTF-8" standalone="no"?>
<!DOCTYPE svg PUBLIC "-//W3C//DTD SVG 1.1//EN"
 "http://www.w3.org/Graphics/SVG/1.1/DTD/svg11.dtd">
<!-- Generated by graphviz version 12.2.1 (20241206.2353)
 -->
<!-- Title: Form_Cells Pages: 1 -->
<svg width="462pt" height="670pt"
 viewBox="0.00 0.00 462.00 670.25" xmlns="http://www.w3.org/2000/svg" xmlns:xlink="http://www.w3.org/1999/xlink">
<g id="graph0" class="graph" transform="scale(1 1) rotate(0) translate(4 666.25)">
<title>Form_Cells</title>
<!-- Node1 -->
<g id="Node000001" class="node">
<title>Node1</title>
<g id="a_Node000001"><a xlink:title=" ">
<polygon fill="#999999" stroke="#666666" points="454,-333.25 387.75,-333.25 387.75,-314 454,-314 454,-333.25"/>
<text text-anchor="middle" x="420.88" y="-319.75" font-family="Helvetica,sans-Serif" font-size="10.00">Form_Cells</text>
</a>
</g>
</g>
<!-- Node2 -->
<g id="Node000002" class="node">
<title>Node2</title>
<g id="a_Node000002"><a xlink:href="../../d0/d3f/_channel___flow_8cpp_a986df1d2277d1fc7e22408557f29c135.html#a986df1d2277d1fc7e22408557f29c135" target="_top" xlink:title=" ">
<polygon fill="white" stroke="#666666" points="325.88,-625.25 247.62,-625.25 247.62,-606 325.88,-606 325.88,-625.25"/>
<text text-anchor="middle" x="286.75" y="-611.75" font-family="Helvetica,sans-Serif" font-size="10.00">Channel_Flow</text>
</a>
</g>
</g>
<!-- Node1&#45;&gt;Node2 -->
<g id="edge1_Node000001_Node000002" class="edge">
<title>Node1&#45;&gt;Node2</title>
<g id="a_edge1_Node000001_Node000002"><a xlink:title=" ">
<path fill="none" stroke="#63b8ff" d="M420.7,-345.1C421.44,-394.92 416.29,-519.57 351.75,-591.62 345.02,-599.14 335.7,-604.31 326.26,-607.86"/>
<polygon fill="#63b8ff" stroke="#63b8ff" points="424.2,-345.05 420.44,-335.14 417.21,-345.23 424.2,-345.05"/>
</a>
</g>
</g>
<!-- Node3 -->
<g id="Node000003" class="node">
<title>Node3</title>
<g id="a_Node000003"><a xlink:href="../../dd/dbf/_euler___python___wrapper_8cpp_ac5ccb50c3be270f798e054dd36987442.html#ac5ccb50c3be270f798e054dd36987442" target="_top" xlink:title=" ">
<polygon fill="white" stroke="#666666" points="185.75,-315.25 73,-315.25 73,-296 185.75,-296 185.75,-315.25"/>
<text text-anchor="middle" x="129.38" y="-301.75" font-family="Helvetica,sans-Serif" font-size="10.00">PYBIND11_MODULE</text>
</a>
</g>
</g>
<!-- Node1&#45;&gt;Node3 -->
<g id="edge18_Node000001_Node000003" class="edge">
<title>Node1&#45;&gt;Node3</title>
<g id="a_edge18_Node000001_Node000003"><a xlink:title=" ">
<path fill="none" stroke="#63b8ff" d="M416.94,-345.06C409.22,-398 386.5,-532.52 351.75,-558.62 305.56,-593.33 269.04,-591.82 221.75,-558.62 137.66,-499.59 130.62,-355.17 130.3,-315.73"/>
<polygon fill="#63b8ff" stroke="#63b8ff" points="420.4,-345.63 418.33,-335.24 413.47,-344.65 420.4,-345.63"/>
</a>
</g>
</g>
<!-- Node4 -->
<g id="Node000004" class="node">
<title>Node4</title>
<g id="a_Node000004"><a xlink:href="../../d8/d62/_ellinga___test_case_8cpp_ae7167da7e4a13ec20ea77342a492b6ee.html#ae7167da7e4a13ec20ea77342a492b6ee" target="_top" xlink:title=" ">
<polygon fill="white" stroke="#666666" points="334.12,-549.25 239.38,-549.25 239.38,-530 334.12,-530 334.12,-549.25"/>
<text text-anchor="middle" x="286.75" y="-535.75" font-family="Helvetica,sans-Serif" font-size="10.00">Ellinga_Carbuncle</text>
</a>
</g>
</g>
<!-- Node1&#45;&gt;Node4 -->
<g id="edge3_Node000001_Node000004" class="edge">
<title>Node1&#45;&gt;Node4</title>
<g id="a_edge3_Node000001_Node000004"><a xlink:title=" ">
<path fill="none" stroke="#63b8ff" d="M418.7,-344.71C415.33,-384.8 402.25,-472.32 351.75,-520.62 346.81,-525.35 340.75,-528.91 334.34,-531.59"/>
<polygon fill="#63b8ff" stroke="#63b8ff" points="422.18,-345.2 419.39,-334.98 415.19,-344.71 422.18,-345.2"/>
</a>
</g>
</g>
<!-- Node5 -->
<g id="Node000005" class="node">
<title>Node5</title>
<g id="a_Node000005"><a xlink:href="../../de/d81/_flat___plate___boundary___layer_8cpp_a787b29de4053181d716a19e7c4c9b705.html#a787b29de4053181d716a19e7c4c9b705" target="_top" xlink:title=" ">
<polygon fill="white" stroke="#666666" points="340.12,-511.88 233.38,-511.88 233.38,-481.38 340.12,-481.38 340.12,-511.88"/>
<text text-anchor="start" x="241.38" y="-498.38" font-family="Helvetica,sans-Serif" font-size="10.00">Flat_Plate_Boundary</text>
<text text-anchor="middle" x="286.75" y="-487.12" font-family="Helvetica,sans-Serif" font-size="10.00">_Layer</text>
</a>
</g>
</g>
<!-- Node1&#45;&gt;Node5 -->
<g id="edge5_Node000001_Node000005" class="edge">
<title>Node1&#45;&gt;Node5</title>
<g id="a_edge5_Node000001_Node000005"><a xlink:title=" ">
<path fill="none" stroke="#63b8ff" d="M415.67,-344.54C408.22,-376.41 389.77,-437.18 351.75,-472.62 348.36,-475.78 344.53,-478.53 340.45,-480.93"/>
<polygon fill="#63b8ff" stroke="#63b8ff" points="419.05,-345.49 417.75,-334.98 412.21,-344 419.05,-345.49"/>
</a>
</g>
</g>
<!-- Node6 -->
<g id="Node000006" class="node">
<title>Node6</title>
<g id="a_Node000006"><a xlink:href="../../da/d4b/_flow___over___bump_8cpp_abaa8184c0dd8aa3fdc37d585f0a7d0cc.html#abaa8184c0dd8aa3fdc37d585f0a7d0cc" target="_top" xlink:title=" ">
<polygon fill="white" stroke="#666666" points="333.75,-463.25 239.75,-463.25 239.75,-444 333.75,-444 333.75,-463.25"/>
<text text-anchor="middle" x="286.75" y="-449.75" font-family="Helvetica,sans-Serif" font-size="10.00">Flow_Over_Bump</text>
</a>
</g>
</g>
<!-- Node1&#45;&gt;Node6 -->
<g id="edge7_Node000001_Node000006" class="edge">
<title>Node1&#45;&gt;Node6</title>
<g id="a_edge7_Node000001_Node000006"><a xlink:title=" ">
<path fill="none" stroke="#63b8ff" d="M412.72,-344.33C402.92,-369.64 382.89,-411.99 351.75,-435.62 346.51,-439.6 340.43,-442.7 334.14,-445.12"/>
<polygon fill="#63b8ff" stroke="#63b8ff" points="415.93,-345.75 416.09,-335.16 409.36,-343.34 415.93,-345.75"/>
</a>
</g>
</g>
<!-- Node7 -->
<g id="Node000007" class="node">
<title>Node7</title>
<g id="a_Node000007"><a xlink:href="../../dc/d8c/_forward___facing___step_8cpp_a5f68d17ee33caeda5da8c4270441108c.html#a5f68d17ee33caeda5da8c4270441108c" target="_top" xlink:title=" ">
<polygon fill="white" stroke="#666666" points="342.38,-426.25 231.12,-426.25 231.12,-407 342.38,-407 342.38,-426.25"/>
<text text-anchor="middle" x="286.75" y="-412.75" font-family="Helvetica,sans-Serif" font-size="10.00">Forward_Facing_Step</text>
</a>
</g>
</g>
<!-- Node1&#45;&gt;Node7 -->
<g id="edge9_Node000001_Node000007" class="edge">
<title>Node1&#45;&gt;Node7</title>
<g id="a_edge9_Node000001_Node000007"><a xlink:title=" ">
<path fill="none" stroke="#63b8ff" d="M407.37,-342.58C395.15,-359.66 375.01,-384.24 351.75,-398.62 346.65,-401.78 340.97,-404.4 335.18,-406.56"/>
<polygon fill="#63b8ff" stroke="#63b8ff" points="409.97,-344.99 412.76,-334.77 404.2,-341.01 409.97,-344.99"/>
</a>
</g>
</g>
<!-- Node8 -->
<g id="Node000008" class="node">
<title>Node8</title>
<g id="a_Node000008"><a xlink:href="../../df/dee/_half___cylinder___test___case_8cpp_ad6cb651752c2dd1cb946428572cfb769.html#ad6cb651752c2dd1cb946428572cfb769" target="_top" xlink:title=" ">
<polygon fill="white" stroke="#666666" points="337.5,-389.25 236,-389.25 236,-370 337.5,-370 337.5,-389.25"/>
<text text-anchor="middle" x="286.75" y="-375.75" font-family="Helvetica,sans-Serif" font-size="10.00">Half_Cylinder_Flow</text>
</a>
</g>
</g>
<!-- Node1&#45;&gt;Node8 -->
<g id="edge11_Node000001_Node000008" class="edge">
<title>Node1&#45;&gt;Node8</title>
<g id="a_edge11_Node000001_Node000008"><a xlink:title=" ">
<path fill="none" stroke="#63b8ff" d="M394.7,-339.54C382.14,-346.98 366.52,-355.53 351.75,-361.62 344.6,-364.58 336.81,-367.21 329.2,-369.5"/>
<polygon fill="#63b8ff" stroke="#63b8ff" points="396.41,-342.59 403.14,-334.41 392.78,-336.61 396.41,-342.59"/>
</a>
</g>
</g>
<!-- Node9 -->
<g id="Node000009" class="node">
<title>Node9</title>
<g id="a_Node000009"><a xlink:href="../../d3/db8/_initialize___test_case_8cpp_a4debd02bbc1736679fe1145738aba8c3.html#a4debd02bbc1736679fe1145738aba8c3" target="_top" xlink:title=" ">
<polygon fill="white" stroke="#666666" points="336.38,-662.25 237.12,-662.25 237.12,-643 336.38,-643 336.38,-662.25"/>
<text text-anchor="middle" x="286.75" y="-648.75" font-family="Helvetica,sans-Serif" font-size="10.00">Initialize_TestCase</text>
</a>
</g>
</g>
<!-- Node1&#45;&gt;Node9 -->
<g id="edge13_Node000001_Node000009" class="edge">
<title>Node1&#45;&gt;Node9</title>
<g id="a_edge13_Node000001_Node000009"><a xlink:title=" ">
<path fill="none" stroke="#63b8ff" d="M418.05,-344.75C412.18,-407.68 391.84,-592.12 351.75,-634.62 347.55,-639.08 342.35,-642.45 336.74,-645.02"/>
<polygon fill="#63b8ff" stroke="#63b8ff" points="421.51,-345.35 418.92,-335.07 414.53,-344.72 421.51,-345.35"/>
</a>
</g>
</g>
<!-- Node12 -->
<g id="Node000012" class="node">
<title>Node12</title>
<g id="a_Node000012"><a xlink:href="../../de/dc4/_o_e_d_8cpp_a1404a4711dcead4c50dd9eaa2ab7b7c0.html#a1404a4711dcead4c50dd9eaa2ab7b7c0" target="_top" xlink:title=" ">
<polygon fill="white" stroke="#666666" points="305.62,-352.25 267.88,-352.25 267.88,-333 305.62,-333 305.62,-352.25"/>
<text text-anchor="middle" x="286.75" y="-338.75" font-family="Helvetica,sans-Serif" font-size="10.00">OED</text>
</a>
</g>
</g>
<!-- Node1&#45;&gt;Node12 -->
<g id="edge16_Node000001_Node000012" class="edge">
<title>Node1&#45;&gt;Node12</title>
<g id="a_edge16_Node000001_Node000012"><a xlink:title=" ">
<path fill="none" stroke="#63b8ff" d="M376.24,-329.9C352.33,-333.34 323.97,-337.42 305.92,-340.01"/>
<polygon fill="#63b8ff" stroke="#63b8ff" points="376.66,-333.38 386.06,-328.49 375.66,-326.45 376.66,-333.38"/>
</a>
</g>
</g>
<!-- Node13 -->
<g id="Node000013" class="node">
<title>Node13</title>
<g id="a_Node000013"><a xlink:href="../../dd/de9/_ramp__15___degree_8cpp_af85931ed4e293dce5c8e4acafecd54b5.html#af85931ed4e293dce5c8e4acafecd54b5" target="_top" xlink:title=" ">
<polygon fill="white" stroke="#666666" points="334.12,-315.25 239.38,-315.25 239.38,-296 334.12,-296 334.12,-315.25"/>
<text text-anchor="middle" x="286.75" y="-301.75" font-family="Helvetica,sans-Serif" font-size="10.00">Ramp_15_Degree</text>
</a>
</g>
</g>
<!-- Node1&#45;&gt;Node13 -->
<g id="edge19_Node000001_Node000013" class="edge">
<title>Node1&#45;&gt;Node13</title>
<g id="a_edge19_Node000001_Node000013"><a xlink:title=" ">
<path fill="none" stroke="#63b8ff" d="M376.21,-317.68C362.83,-315.85 348.05,-313.84 334.46,-311.99"/>
<polygon fill="#63b8ff" stroke="#63b8ff" points="375.67,-321.14 386.05,-319.02 376.62,-314.2 375.67,-321.14"/>
</a>
</g>
</g>
<!-- Node14 -->
<g id="Node000014" class="node">
<title>Node14</title>
<g id="a_Node000014"><a xlink:href="../../d2/d72/_scram___jet___inlet___test___case_8cpp_a49bbbeed352ab44d6248954f9d5391b0.html#a49bbbeed352ab44d6248954f9d5391b0" target="_top" xlink:title=" ">
<polygon fill="white" stroke="#666666" points="330.38,-278.25 243.12,-278.25 243.12,-259 330.38,-259 330.38,-278.25"/>
<text text-anchor="middle" x="286.75" y="-264.75" font-family="Helvetica,sans-Serif" font-size="10.00">Scram_Jet_Inlet</text>
</a>
</g>
</g>
<!-- Node1&#45;&gt;Node14 -->
<g id="edge21_Node000001_Node000014" class="edge">
<title>Node1&#45;&gt;Node14</title>
<g id="a_edge21_Node000001_Node000014"><a xlink:title=" ">
<path fill="none" stroke="#63b8ff" d="M394.15,-307.88C381.67,-300.71 366.27,-292.52 351.75,-286.62 344.48,-283.67 336.55,-281.02 328.84,-278.71"/>
<polygon fill="#63b8ff" stroke="#63b8ff" points="392.16,-310.77 402.55,-312.82 395.71,-304.74 392.16,-310.77"/>
</a>
</g>
</g>
<!-- Node15 -->
<g id="Node000015" class="node">
<title>Node15</title>
<g id="a_Node000015"><a xlink:href="../../d1/d48/_shock___bubble___interaction_8cpp_a4cb762eff7e59896e567775356bda66a.html#a4cb762eff7e59896e567775356bda66a" target="_top" xlink:title=" ">
<polygon fill="white" stroke="#666666" points="351.75,-241.25 221.75,-241.25 221.75,-222 351.75,-222 351.75,-241.25"/>
<text text-anchor="middle" x="286.75" y="-227.75" font-family="Helvetica,sans-Serif" font-size="10.00">Shock_Bubble_Interaction</text>
</a>
</g>
</g>
<!-- Node1&#45;&gt;Node15 -->
<g id="edge23_Node000001_Node000015" class="edge">
<title>Node1&#45;&gt;Node15</title>
<g id="a_edge23_Node000001_Node000015"><a xlink:title=" ">
<path fill="none" stroke="#63b8ff" d="M407.12,-304.65C394.84,-287.81 374.77,-263.75 351.75,-249.62 346.63,-246.49 340.96,-243.88 335.16,-241.72"/>
<polygon fill="#63b8ff" stroke="#63b8ff" points="403.93,-306.2 412.54,-312.37 409.65,-302.17 403.93,-306.2"/>
</a>
</g>
</g>
<!-- Node16 -->
<g id="Node000016" class="node">
<title>Node16</title>
<g id="a_Node000016"><a xlink:href="../../d5/d9f/_shock___diffraction_8cpp_a464d43fab5d32cc9ecee800dfab8e5c8.html#a464d43fab5d32cc9ecee800dfab8e5c8" target="_top" xlink:title=" ">
<polygon fill="white" stroke="#666666" points="333.75,-204.25 239.75,-204.25 239.75,-185 333.75,-185 333.75,-204.25"/>
<text text-anchor="middle" x="286.75" y="-190.75" font-family="Helvetica,sans-Serif" font-size="10.00">Shock_Diffraction</text>
</a>
</g>
</g>
<!-- Node1&#45;&gt;Node16 -->
<g id="edge25_Node000001_Node000016" class="edge">
<title>Node1&#45;&gt;Node16</title>
<g id="a_edge25_Node000001_Node000016"><a xlink:title=" ">
<path fill="none" stroke="#63b8ff" d="M412.67,-303.1C402.81,-278.02 382.74,-236.05 351.75,-212.62 346.5,-208.66 340.42,-205.56 334.13,-203.15"/>
<polygon fill="#63b8ff" stroke="#63b8ff" points="409.28,-304.04 416.06,-312.18 415.84,-301.59 409.28,-304.04"/>
</a>
</g>
</g>
<!-- Node17 -->
<g id="Node000017" class="node">
<title>Node17</title>
<g id="a_Node000017"><a xlink:href="../../d2/d58/_shock___reflection__2_d_8cpp_a286a95bfcac44ff19264008ffd9506ed.html#a286a95bfcac44ff19264008ffd9506ed" target="_top" xlink:title=" ">
<polygon fill="white" stroke="#666666" points="342.38,-167.25 231.12,-167.25 231.12,-148 342.38,-148 342.38,-167.25"/>
<text text-anchor="middle" x="286.75" y="-153.75" font-family="Helvetica,sans-Serif" font-size="10.00">Shock_Reflection_2D</text>
</a>
</g>
</g>
<!-- Node1&#45;&gt;Node17 -->
<g id="edge27_Node000001_Node000017" class="edge">
<title>Node1&#45;&gt;Node17</title>
<g id="a_edge27_Node000001_Node000017"><a xlink:title=" ">
<path fill="none" stroke="#63b8ff" d="M415.99,-302.45C408.96,-270.25 391.06,-209.19 351.75,-175.62 348.06,-172.48 343.86,-169.88 339.42,-167.73"/>
<polygon fill="#63b8ff" stroke="#63b8ff" points="412.53,-303.02 417.94,-312.13 419.39,-301.64 412.53,-303.02"/>
</a>
</g>
</g>
<!-- Node18 -->
<g id="Node000018" class="node">
<title>Node18</title>
<g id="a_Node000018"><a xlink:href="../../d6/d4f/_shock___tube__2_d_8cpp_a634f5b7cf63cab96d3b48ed0b4df6ad4.html#a634f5b7cf63cab96d3b48ed0b4df6ad4" target="_top" xlink:title=" ">
<polygon fill="white" stroke="#666666" points="331.12,-130.25 242.38,-130.25 242.38,-111 331.12,-111 331.12,-130.25"/>
<text text-anchor="middle" x="286.75" y="-116.75" font-family="Helvetica,sans-Serif" font-size="10.00">Shock_Tube_2D</text>
</a>
</g>
</g>
<!-- Node1&#45;&gt;Node18 -->
<g id="edge29_Node000001_Node000018" class="edge">
<title>Node1&#45;&gt;Node18</title>
<g id="a_edge29_Node000001_Node000018"><a xlink:title=" ">
<path fill="none" stroke="#63b8ff" d="M418.21,-302.45C414.04,-264.1 399.75,-182.99 351.75,-138.62 346.07,-133.38 338.98,-129.64 331.61,-126.99"/>
<polygon fill="#63b8ff" stroke="#63b8ff" points="414.73,-302.77 419.14,-312.4 421.69,-302.12 414.73,-302.77"/>
</a>
</g>
</g>
<!-- Node19 -->
<g id="Node000019" class="node">
<title>Node19</title>
<g id="a_Node000019"><a xlink:href="../../de/dda/_shock___wedge___reflection_8cpp_a951397acc5a124a5a006dbd5ae45029a.html#a951397acc5a124a5a006dbd5ae45029a" target="_top" xlink:title=" ">
<polygon fill="white" stroke="#666666" points="351,-93.25 222.5,-93.25 222.5,-74 351,-74 351,-93.25"/>
<text text-anchor="middle" x="286.75" y="-79.75" font-family="Helvetica,sans-Serif" font-size="10.00">Shock_Wedge_Reflection</text>
</a>
</g>
</g>
<!-- Node1&#45;&gt;Node19 -->
<g id="edge31_Node000001_Node000019" class="edge">
<title>Node1&#45;&gt;Node19</title>
<g id="a_edge31_Node000001_Node000019"><a xlink:title=" ">
<path fill="none" stroke="#63b8ff" d="M419.73,-302.26C418.24,-258.25 408.45,-157 351.75,-101.62 348.53,-98.48 344.81,-95.88 340.8,-93.72"/>
<polygon fill="#63b8ff" stroke="#63b8ff" points="416.23,-302.08 419.94,-312 423.23,-301.93 416.23,-302.08"/>
</a>
</g>
</g>
<!-- Node20 -->
<g id="Node000020" class="node">
<title>Node20</title>
<g id="a_Node000020"><a xlink:href="../../d8/d8f/_slip___flow__2_d_8cpp_a41030236ecf9b4d95159d7227a838eab.html#a41030236ecf9b4d95159d7227a838eab" target="_top" xlink:title=" ">
<polygon fill="white" stroke="#666666" points="325.12,-56.25 248.38,-56.25 248.38,-37 325.12,-37 325.12,-56.25"/>
<text text-anchor="middle" x="286.75" y="-42.75" font-family="Helvetica,sans-Serif" font-size="10.00">Slip_Flow_2D</text>
</a>
</g>
</g>
<!-- Node1&#45;&gt;Node20 -->
<g id="edge33_Node000001_Node000020" class="edge">
<title>Node1&#45;&gt;Node20</title>
<g id="a_edge33_Node000001_Node000020"><a xlink:title=" ">
<path fill="none" stroke="#63b8ff" d="M417.04,-302.47C409.18,-246.94 385.47,-98.92 351.75,-64.62 344.71,-57.46 335.06,-53.09 325.39,-50.44"/>
<polygon fill="#63b8ff" stroke="#63b8ff" points="413.54,-302.74 418.38,-312.17 420.48,-301.78 413.54,-302.74"/>
</a>
</g>
</g>
<!-- Node21 -->
<g id="Node000021" class="node">
<title>Node21</title>
<g id="a_Node000021"><a xlink:href="../../d8/da5/_s_w_b_l_i_8cpp_aab1edbd94ae1737559f5140355148ed8.html#aab1edbd94ae1737559f5140355148ed8" target="_top" xlink:title=" ">
<polygon fill="white" stroke="#666666" points="310.5,-19.25 263,-19.25 263,0 310.5,0 310.5,-19.25"/>
<text text-anchor="middle" x="286.75" y="-5.75" font-family="Helvetica,sans-Serif" font-size="10.00">SWBLI</text>
</a>
</g>
</g>
<!-- Node1&#45;&gt;Node21 -->
<g id="edge35_Node000001_Node000021" class="edge">
<title>Node1&#45;&gt;Node21</title>
<g id="a_edge35_Node000001_Node000021"><a xlink:title=" ">
<path fill="none" stroke="#63b8ff" d="M417.77,-302.32C411.33,-241.31 389.96,-67.72 351.75,-27.62 341.24,-16.6 324.55,-12.16 310.85,-10.44"/>
<polygon fill="#63b8ff" stroke="#63b8ff" points="414.27,-302.45 418.77,-312.04 421.23,-301.73 414.27,-302.45"/>
</a>
</g>
</g>
<!-- Node2&#45;&gt;Node3 -->
<g id="edge2_Node000002_Node000003" class="edge">
<title>Node2&#45;&gt;Node3</title>
<g id="a_edge2_Node000002_Node000003"><a xlink:title=" ">
<path fill="none" stroke="#63b8ff" d="M236.86,-602.79C231.27,-599.81 226.04,-596.14 221.75,-591.62 142.34,-508.18 131.94,-355.66 130.58,-315.52"/>
<polygon fill="#63b8ff" stroke="#63b8ff" points="235.27,-605.92 245.83,-606.84 238.15,-599.54 235.27,-605.92"/>
</a>
</g>
</g>
<!-- Node4&#45;&gt;Node3 -->
<g id="edge4_Node000004_Node000003" class="edge">
<title>Node4&#45;&gt;Node3</title>
<g id="a_edge4_Node000004_Node000003"><a xlink:title=" ">
<path fill="none" stroke="#63b8ff" d="M229.12,-526.08C226.5,-524.47 224.02,-522.65 221.75,-520.62 156.4,-462.29 136.28,-349.33 131.58,-315.46"/>
<polygon fill="#63b8ff" stroke="#63b8ff" points="227.26,-529.07 237.77,-530.46 230.43,-522.82 227.26,-529.07"/>
</a>
</g>
</g>
<!-- Node5&#45;&gt;Node3 -->
<g id="edge6_Node000005_Node000003" class="edge">
<title>Node5&#45;&gt;Node3</title>
<g id="a_edge6_Node000005_Node000003"><a xlink:title=" ">
<path fill="none" stroke="#63b8ff" d="M224.59,-474.94C223.62,-474.19 222.67,-473.42 221.75,-472.62 169.32,-427.15 141.42,-343.91 133.09,-315.46"/>
<polygon fill="#63b8ff" stroke="#63b8ff" points="222.37,-477.67 232.66,-480.19 226.19,-471.8 222.37,-477.67"/>
</a>
</g>
</g>
<!-- Node6&#45;&gt;Node3 -->
<g id="edge8_Node000006_Node000003" class="edge">
<title>Node6&#45;&gt;Node3</title>
<g id="a_edge8_Node000006_Node000003"><a xlink:title=" ">
<path fill="none" stroke="#63b8ff" d="M228.79,-439.95C226.34,-438.64 223.98,-437.2 221.75,-435.62 175.82,-403.1 145.07,-339.86 134.47,-315.51"/>
<polygon fill="#63b8ff" stroke="#63b8ff" points="227.32,-443.13 237.88,-444.05 230.2,-436.75 227.32,-443.13"/>
</a>
</g>
</g>
<!-- Node7&#45;&gt;Node3 -->
<g id="edge10_Node000007_Node000003" class="edge">
<title>Node7&#45;&gt;Node3</title>
<g id="a_edge10_Node000007_Node000003"><a xlink:title=" ">
<path fill="none" stroke="#63b8ff" d="M228.54,-402.23C226.21,-401.11 223.93,-399.91 221.75,-398.62 184.15,-376.38 151.31,-334.82 137.42,-315.71"/>
<polygon fill="#63b8ff" stroke="#63b8ff" points="227.14,-405.44 237.71,-406.04 229.82,-398.97 227.14,-405.44"/>
</a>
</g>
</g>
<!-- Node8&#45;&gt;Node3 -->
<g id="edge12_Node000008_Node000003" class="edge">
<title>Node8&#45;&gt;Node3</title>
<g id="a_edge12_Node000008_Node000003"><a xlink:title=" ">
<path fill="none" stroke="#63b8ff" d="M232.79,-365.98C229.01,-364.63 225.29,-363.17 221.75,-361.62 192.43,-348.81 161.26,-327.94 143.96,-315.62"/>
<polygon fill="#63b8ff" stroke="#63b8ff" points="231.48,-369.24 242.08,-369.06 233.68,-362.59 231.48,-369.24"/>
</a>
</g>
</g>
<!-- Node10 -->
<g id="Node000010" class="node">
<title>Node10</title>
<g id="a_Node000010"><a xlink:href="../../d0/de9/_configuration___read_8cpp_af498db18e73ae99cf5272ad58683fc97.html#af498db18e73ae99cf5272ad58683fc97" target="_top" xlink:title=" ">
<polygon fill="white" stroke="#666666" points="181.25,-662.25 77.5,-662.25 77.5,-643 181.25,-643 181.25,-662.25"/>
<text text-anchor="middle" x="129.38" y="-648.75" font-family="Helvetica,sans-Serif" font-size="10.00">readTestCaseJSON</text>
</a>
</g>
</g>
<!-- Node9&#45;&gt;Node10 -->
<g id="edge14_Node000009_Node000010" class="edge">
<title>Node9&#45;&gt;Node10</title>
<g id="a_edge14_Node000009_Node000010"><a xlink:title=" ">
<path fill="none" stroke="#63b8ff" d="M225.6,-652.62C211.07,-652.62 195.69,-652.62 181.62,-652.62"/>
<polygon fill="#63b8ff" stroke="#63b8ff" points="225.5,-656.13 235.5,-652.63 225.5,-649.13 225.5,-656.13"/>
</a>
</g>
</g>
<!-- Node11 -->
<g id="Node000011" class="node">
<title>Node11</title>
<g id="a_Node000011"><a xlink:href="../../d5/d12/_main_8cpp_a0ddf1224851353fc92bfbff6f499fa97.html#a0ddf1224851353fc92bfbff6f499fa97" target="_top" xlink:title=" ">
<polygon fill="white" stroke="#666666" points="37,-662.25 0,-662.25 0,-643 37,-643 37,-662.25"/>
<text text-anchor="middle" x="18.5" y="-648.75" font-family="Helvetica,sans-Serif" font-size="10.00">main</text>
</a>
</g>
</g>
<!-- Node10&#45;&gt;Node11 -->
<g id="edge15_Node000010_Node000011" class="edge">
<title>Node10&#45;&gt;Node11</title>
<g id="a_edge15_Node000010_Node000011"><a xlink:title=" ">
<path fill="none" stroke="#63b8ff" d="M65.8,-652.62C55.44,-652.62 45.48,-652.62 37.47,-652.62"/>
<polygon fill="#63b8ff" stroke="#63b8ff" points="65.61,-656.13 75.61,-652.63 65.61,-649.13 65.61,-656.13"/>
</a>
</g>
</g>
<!-- Node12&#45;&gt;Node3 -->
<g id="edge17_Node000012_Node000003" class="edge">
<title>Node12&#45;&gt;Node3</title>
<g id="a_edge17_Node000012_Node000003"><a xlink:title=" ">
<path fill="none" stroke="#63b8ff" d="M256.57,-335.68C232.91,-330.04 199.25,-322.03 172.64,-315.69"/>
<polygon fill="#63b8ff" stroke="#63b8ff" points="255.61,-339.05 266.15,-337.96 257.23,-332.24 255.61,-339.05"/>
</a>
</g>
</g>
<!-- Node13&#45;&gt;Node3 -->
<g id="edge20_Node000013_Node000003" class="edge">
<title>Node13&#45;&gt;Node3</title>
<g id="a_edge20_Node000013_Node000003"><a xlink:title=" ">
<path fill="none" stroke="#63b8ff" d="M227.87,-305.62C214.18,-305.62 199.6,-305.62 186,-305.62"/>
<polygon fill="#63b8ff" stroke="#63b8ff" points="227.62,-309.13 237.62,-305.63 227.62,-302.13 227.62,-309.13"/>
</a>
</g>
</g>
<!-- Node14&#45;&gt;Node3 -->
<g id="edge22_Node000014_Node000003" class="edge">
<title>Node14&#45;&gt;Node3</title>
<g id="a_edge22_Node000014_Node000003"><a xlink:title=" ">
<path fill="none" stroke="#63b8ff" d="M232.16,-281.39C212.75,-286.01 191.1,-291.16 172.78,-295.53"/>
<polygon fill="#63b8ff" stroke="#63b8ff" points="232.9,-284.81 241.82,-279.09 231.28,-278 232.9,-284.81"/>
</a>
</g>
</g>
<!-- Node15&#45;&gt;Node3 -->
<g id="edge24_Node000015_Node000003" class="edge">
<title>Node15&#45;&gt;Node3</title>
<g id="a_edge24_Node000015_Node000003"><a xlink:title=" ">
<path fill="none" stroke="#63b8ff" d="M232.79,-245.27C229.01,-246.62 225.29,-248.08 221.75,-249.62 192.43,-262.44 161.26,-283.31 143.96,-295.63"/>
<polygon fill="#63b8ff" stroke="#63b8ff" points="233.68,-248.66 242.08,-242.19 231.48,-242.01 233.68,-248.66"/>
</a>
</g>
</g>
<!-- Node16&#45;&gt;Node3 -->
<g id="edge26_Node000016_Node000003" class="edge">
<title>Node16&#45;&gt;Node3</title>
<g id="a_edge26_Node000016_Node000003"><a xlink:title=" ">
<path fill="none" stroke="#63b8ff" d="M228.95,-208.83C226.47,-210 224.06,-211.26 221.75,-212.62 184.15,-234.87 151.31,-276.43 137.42,-295.54"/>
<polygon fill="#63b8ff" stroke="#63b8ff" points="230.13,-212.13 238.05,-205.09 227.47,-205.65 230.13,-212.13"/>
</a>
</g>
</g>
<!-- Node17&#45;&gt;Node3 -->
<g id="edge28_Node000017_Node000003" class="edge">
<title>Node17&#45;&gt;Node3</title>
<g id="a_edge28_Node000017_Node000003"><a xlink:title=" ">
<path fill="none" stroke="#63b8ff" d="M226.59,-172.52C224.92,-173.49 223.3,-174.52 221.75,-175.62 175.82,-208.15 145.07,-271.39 134.47,-295.74"/>
<polygon fill="#63b8ff" stroke="#63b8ff" points="227.8,-175.82 235.25,-168.29 224.73,-169.54 227.8,-175.82"/>
</a>
</g>
</g>
<!-- Node18&#45;&gt;Node3 -->
<g id="edge30_Node000018_Node000003" class="edge">
<title>Node18&#45;&gt;Node3</title>
<g id="a_edge30_Node000018_Node000003"><a xlink:title=" ">
<path fill="none" stroke="#63b8ff" d="M231.77,-132.24C228.21,-134.07 224.82,-136.18 221.75,-138.62 167.44,-181.84 140.75,-266.53 132.91,-295.57"/>
<polygon fill="#63b8ff" stroke="#63b8ff" points="232.95,-135.54 240.78,-128.41 230.2,-129.1 232.95,-135.54"/>
</a>
</g>
</g>
<!-- Node19&#45;&gt;Node3 -->
<g id="edge32_Node000019_Node000003" class="edge">
<title>Node19&#45;&gt;Node3</title>
<g id="a_edge32_Node000019_Node000003"><a xlink:title=" ">
<path fill="none" stroke="#63b8ff" d="M224.23,-99.63C223.38,-100.27 222.55,-100.93 221.75,-101.62 158.58,-156.13 137.07,-262.97 131.79,-295.8"/>
<polygon fill="#63b8ff" stroke="#63b8ff" points="226,-102.64 232.75,-94.47 222.38,-96.65 226,-102.64"/>
</a>
</g>
</g>
<!-- Node20&#45;&gt;Node3 -->
<g id="edge34_Node000020_Node000003" class="edge">
<title>Node20&#45;&gt;Node3</title>
<g id="a_edge34_Node000020_Node000003"><a xlink:title=" ">
<path fill="none" stroke="#63b8ff" d="M237.4,-54.82C231.67,-57.29 226.27,-60.48 221.75,-64.62 149.8,-130.49 134.13,-258.94 131.06,-295.62"/>
<polygon fill="#63b8ff" stroke="#63b8ff" points="238.22,-58.24 246.49,-51.62 235.9,-51.64 238.22,-58.24"/>
</a>
</g>
</g>
<!-- Node21&#45;&gt;Node3 -->
<g id="edge36_Node000021_Node000003" class="edge">
<title>Node21&#45;&gt;Node3</title>
<g id="a_edge36_Node000021_Node000003"><a xlink:title=" ">
<path fill="none" stroke="#63b8ff" d="M251.45,-12.93C240.8,-15.5 229.77,-19.95 221.75,-27.62 140.84,-105.1 131.52,-255.36 130.49,-295.54"/>
<polygon fill="#63b8ff" stroke="#63b8ff" points="252.01,-16.39 261.2,-11.11 250.73,-9.51 252.01,-16.39"/>
</a>
</g>
</g>
</g>
</svg>
