<?xml version="1.0" encoding="UTF-8" standalone="no"?>
<!DOCTYPE svg PUBLIC "-//W3C//DTD SVG 1.1//EN"
 "http://www.w3.org/Graphics/SVG/1.1/DTD/svg11.dtd">
<!-- Generated by graphviz version 12.2.1 (20241206.2353)
 -->
<!-- Title: Check_Cells Pages: 1 -->
<svg width="760pt" height="140pt"
 viewBox="0.00 0.00 759.50 140.25" xmlns="http://www.w3.org/2000/svg" xmlns:xlink="http://www.w3.org/1999/xlink">
<g id="graph0" class="graph" transform="scale(1 1) rotate(0) translate(4 136.25)">
<title>Check_Cells</title>
<!-- Node1 -->
<g id="Node000001" class="node">
<title>Node1</title>
<g id="a_Node000001"><a xlink:title=" ">
<polygon fill="#999999" stroke="#666666" points="751.5,-75.25 679.25,-75.25 679.25,-56 751.5,-56 751.5,-75.25"/>
<text text-anchor="middle" x="715.38" y="-61.75" font-family="Helvetica,sans-Serif" font-size="10.00">Check_Cells</text>
</a>
</g>
</g>
<!-- Node2 -->
<g id="Node000002" class="node">
<title>Node2</title>
<g id="a_Node000002"><a xlink:href="../../dc/de7/_grid___optimization___integration___guide_8cpp_ac9d67fcbba41c27f9c5d5876429fe035.html#ac9d67fcbba41c27f9c5d5876429fe035" target="_top" xlink:title=" ">
<polygon fill="white" stroke="#666666" points="643.25,-132.25 514,-132.25 514,-113 643.25,-113 643.25,-132.25"/>
<text text-anchor="middle" x="578.62" y="-118.75" font-family="Helvetica,sans-Serif" font-size="10.00">example_main_integration</text>
</a>
</g>
</g>
<!-- Node1&#45;&gt;Node2 -->
<g id="edge1_Node000001_Node000002" class="edge">
<title>Node1&#45;&gt;Node2</title>
<g id="a_edge1_Node000001_Node000002"><a xlink:title=" ">
<path fill="none" stroke="#63b8ff" d="M683.42,-80.59C671.02,-86.43 656.55,-93.04 643.25,-98.62 631.71,-103.47 618.82,-108.42 607.67,-112.55"/>
<polygon fill="#63b8ff" stroke="#63b8ff" points="684.8,-83.81 692.34,-76.36 681.8,-77.49 684.8,-83.81"/>
</a>
</g>
</g>
<!-- Node3 -->
<g id="Node000003" class="node">
<title>Node3</title>
<g id="a_Node000003"><a xlink:href="../../d8/d40/_grid___computations_8cpp_a5214aea020c856108980e45d45cbc89b.html#a5214aea020c856108980e45d45cbc89b" target="_top" xlink:title=" ">
<polygon fill="white" stroke="#666666" points="344.25,-94.25 278,-94.25 278,-75 344.25,-75 344.25,-94.25"/>
<text text-anchor="middle" x="311.12" y="-80.75" font-family="Helvetica,sans-Serif" font-size="10.00">Form_Cells</text>
</a>
</g>
</g>
<!-- Node1&#45;&gt;Node3 -->
<g id="edge2_Node000001_Node000003" class="edge">
<title>Node1&#45;&gt;Node3</title>
<g id="a_edge2_Node000001_Node000003"><a xlink:title=" ">
<path fill="none" stroke="#63b8ff" d="M667.76,-67.83C585.33,-71.72 415.85,-79.73 344.7,-83.09"/>
<polygon fill="#63b8ff" stroke="#63b8ff" points="667.69,-71.33 677.52,-67.37 667.36,-64.34 667.69,-71.33"/>
</a>
</g>
</g>
<!-- Node6 -->
<g id="Node000006" class="node">
<title>Node6</title>
<g id="a_Node000006"><a xlink:href="../../df/db3/_mesh___loader_8cpp_a94f04e68ff03c16a3c553d5670e9b1ab.html#a94f04e68ff03c16a3c553d5670e9b1ab" target="_top" xlink:title=" ">
<polygon fill="white" stroke="#666666" points="626,-56.25 531.25,-56.25 531.25,-37 626,-37 626,-56.25"/>
<text text-anchor="middle" x="578.62" y="-42.75" font-family="Helvetica,sans-Serif" font-size="10.00">Read_CSV_Mesh</text>
</a>
</g>
</g>
<!-- Node1&#45;&gt;Node6 -->
<g id="edge5_Node000001_Node000006" class="edge">
<title>Node1&#45;&gt;Node6</title>
<g id="a_edge5_Node000001_Node000006"><a xlink:title=" ">
<path fill="none" stroke="#63b8ff" d="M667.63,-59.03C654.3,-57.15 639.78,-55.11 626.45,-53.23"/>
<polygon fill="#63b8ff" stroke="#63b8ff" points="667.08,-62.49 677.47,-60.42 668.06,-55.56 667.08,-62.49"/>
</a>
</g>
</g>
<!-- Node10 -->
<g id="Node000010" class="node">
<title>Node10</title>
<g id="a_Node000010"><a xlink:href="../../d8/d40/_grid___computations_8cpp_a663d4b3ae06e638c2f2e82ad437e831e.html#a663d4b3ae06e638c2f2e82ad437e831e" target="_top" xlink:title="Reads the input grid file and constructs physical cells, evaluates face areas, normals,...">
<polygon fill="white" stroke="#666666" points="609.88,-19.25 547.38,-19.25 547.38,0 609.88,0 609.88,-19.25"/>
<text text-anchor="middle" x="578.62" y="-5.75" font-family="Helvetica,sans-Serif" font-size="10.00">Read_Grid</text>
</a>
</g>
</g>
<!-- Node1&#45;&gt;Node10 -->
<g id="edge10_Node000001_Node000010" class="edge">
<title>Node1&#45;&gt;Node10</title>
<g id="a_edge10_Node000001_Node000010"><a xlink:title=" ">
<path fill="none" stroke="#63b8ff" d="M688.13,-49.86C674.98,-42.41 658.62,-33.82 643.25,-27.62 632.71,-23.38 620.81,-19.72 610.17,-16.84"/>
<polygon fill="#63b8ff" stroke="#63b8ff" points="686.19,-52.78 696.6,-54.76 689.7,-46.72 686.19,-52.78"/>
</a>
</g>
</g>
<!-- Node4 -->
<g id="Node000004" class="node">
<title>Node4</title>
<g id="a_Node000004"><a xlink:href="../../d8/d40/_grid___computations_8cpp_adbee522543afe92b4b1cd9b4e96a6c3f.html#adbee522543afe92b4b1cd9b4e96a6c3f" target="_top" xlink:title=" ">
<polygon fill="white" stroke="#666666" points="186.88,-94.25 96.62,-94.25 96.62,-75 186.88,-75 186.88,-94.25"/>
<text text-anchor="middle" x="141.75" y="-80.75" font-family="Helvetica,sans-Serif" font-size="10.00">initializeGridFiles</text>
</a>
</g>
</g>
<!-- Node3&#45;&gt;Node4 -->
<g id="edge3_Node000003_Node000004" class="edge">
<title>Node3&#45;&gt;Node4</title>
<g id="a_edge3_Node000003_Node000004"><a xlink:title=" ">
<path fill="none" stroke="#63b8ff" d="M266.42,-84.62C242.04,-84.62 211.76,-84.62 187.26,-84.62"/>
<polygon fill="#63b8ff" stroke="#63b8ff" points="266.34,-88.13 276.34,-84.63 266.34,-81.13 266.34,-88.13"/>
</a>
</g>
</g>
<!-- Node5 -->
<g id="Node000005" class="node">
<title>Node5</title>
<g id="a_Node000005"><a xlink:href="../../d5/d12/_main_8cpp_a0ddf1224851353fc92bfbff6f499fa97.html#a0ddf1224851353fc92bfbff6f499fa97" target="_top" xlink:title=" ">
<polygon fill="white" stroke="#666666" points="37,-94.25 0,-94.25 0,-75 37,-75 37,-94.25"/>
<text text-anchor="middle" x="18.5" y="-80.75" font-family="Helvetica,sans-Serif" font-size="10.00">main</text>
</a>
</g>
</g>
<!-- Node4&#45;&gt;Node5 -->
<g id="edge4_Node000004_Node000005" class="edge">
<title>Node4&#45;&gt;Node5</title>
<g id="a_edge4_Node000004_Node000005"><a xlink:title=" ">
<path fill="none" stroke="#63b8ff" d="M85.09,-84.62C67.84,-84.62 50.05,-84.62 37.36,-84.62"/>
<polygon fill="#63b8ff" stroke="#63b8ff" points="84.78,-88.13 94.78,-84.63 84.78,-81.13 84.78,-88.13"/>
</a>
</g>
</g>
<!-- Node7 -->
<g id="Node000007" class="node">
<title>Node7</title>
<g id="a_Node000007"><a xlink:href="../../df/db3/_mesh___loader_8cpp_a4ecb41d6b6dda1279d140f58dcf4d3fa.html#a4ecb41d6b6dda1279d140f58dcf4d3fa" target="_top" xlink:title=" ">
<polygon fill="white" stroke="#666666" points="478,-53.25 411.75,-53.25 411.75,-34 478,-34 478,-53.25"/>
<text text-anchor="middle" x="444.88" y="-39.75" font-family="Helvetica,sans-Serif" font-size="10.00">Load_Mesh</text>
</a>
</g>
</g>
<!-- Node6&#45;&gt;Node7 -->
<g id="edge6_Node000006_Node000007" class="edge">
<title>Node6&#45;&gt;Node7</title>
<g id="a_edge6_Node000006_Node000007"><a xlink:title=" ">
<path fill="none" stroke="#63b8ff" d="M519.65,-45.3C505.54,-44.98 490.94,-44.65 478.49,-44.37"/>
<polygon fill="#63b8ff" stroke="#63b8ff" points="519.21,-48.8 529.29,-45.52 519.37,-41.8 519.21,-48.8"/>
</a>
</g>
</g>
<!-- Node7&#45;&gt;Node3 -->
<g id="edge9_Node000007_Node000003" class="edge">
<title>Node7&#45;&gt;Node3</title>
<g id="a_edge9_Node000007_Node000003"><a xlink:title=" ">
<path fill="none" stroke="#63b8ff" d="M402.28,-57.22C393.53,-60.03 384.35,-62.95 375.75,-65.62 365.62,-68.77 354.56,-72.11 344.53,-75.1"/>
<polygon fill="#63b8ff" stroke="#63b8ff" points="403.18,-60.61 411.62,-54.2 401.03,-53.95 403.18,-60.61"/>
</a>
</g>
</g>
<!-- Node8 -->
<g id="Node000008" class="node">
<title>Node8</title>
<g id="a_Node000008"><a xlink:href="../../dc/de7/_grid___optimization___integration___guide_8cpp_ae6a5c597ffb845be2502d0afc0e1a695.html#ae6a5c597ffb845be2502d0afc0e1a695" target="_top" xlink:title=" ">
<polygon fill="white" stroke="#666666" points="375.75,-56.88 246.5,-56.88 246.5,-26.38 375.75,-26.38 375.75,-56.88"/>
<text text-anchor="start" x="254.5" y="-43.38" font-family="Helvetica,sans-Serif" font-size="10.00">demonstrate_performance</text>
<text text-anchor="middle" x="311.12" y="-32.12" font-family="Helvetica,sans-Serif" font-size="10.00">_aware_integration</text>
</a>
</g>
</g>
<!-- Node7&#45;&gt;Node8 -->
<g id="edge7_Node000007_Node000008" class="edge">
<title>Node7&#45;&gt;Node8</title>
<g id="a_edge7_Node000007_Node000008"><a xlink:title=" ">
<path fill="none" stroke="#63b8ff" d="M399.81,-42.96C392.23,-42.84 384.21,-42.72 376.22,-42.6"/>
<polygon fill="#63b8ff" stroke="#63b8ff" points="399.74,-46.46 409.79,-43.11 399.85,-39.46 399.74,-46.46"/>
</a>
</g>
</g>
<!-- Node9 -->
<g id="Node000009" class="node">
<title>Node9</title>
<g id="a_Node000009"><a xlink:href="../../dc/de7/_grid___optimization___integration___guide_8cpp_ad598130e8e89b3050bb9bd71f0ab1b25.html#ad598130e8e89b3050bb9bd71f0ab1b25" target="_top" xlink:title=" ">
<polygon fill="white" stroke="#666666" points="210.5,-51.25 73,-51.25 73,-32 210.5,-32 210.5,-51.25"/>
<text text-anchor="middle" x="141.75" y="-37.75" font-family="Helvetica,sans-Serif" font-size="10.00">integrate_grid_optimizations</text>
</a>
</g>
</g>
<!-- Node8&#45;&gt;Node9 -->
<g id="edge8_Node000008_Node000009" class="edge">
<title>Node8&#45;&gt;Node9</title>
<g id="a_edge8_Node000008_Node000009"><a xlink:title=" ">
<path fill="none" stroke="#63b8ff" d="M235.05,-41.62C226.97,-41.62 218.78,-41.62 210.78,-41.62"/>
<polygon fill="#63b8ff" stroke="#63b8ff" points="234.86,-45.13 244.86,-41.63 234.86,-38.13 234.86,-45.13"/>
</a>
</g>
</g>
<!-- Node10&#45;&gt;Node7 -->
<g id="edge11_Node000010_Node000007" class="edge">
<title>Node10&#45;&gt;Node7</title>
<g id="a_edge11_Node000010_Node000007"><a xlink:title=" ">
<path fill="none" stroke="#63b8ff" d="M536.15,-20.33C517.41,-25.16 495.59,-30.79 478.1,-35.31"/>
<polygon fill="#63b8ff" stroke="#63b8ff" points="536.79,-23.78 545.6,-17.89 535.04,-17 536.79,-23.78"/>
</a>
</g>
</g>
</g>
</svg>
