<?xml version="1.0" encoding="UTF-8" standalone="no"?>
<!DOCTYPE svg PUBLIC "-//W3C//DTD SVG 1.1//EN"
 "http://www.w3.org/Graphics/SVG/1.1/DTD/svg11.dtd">
<!-- Generated by graphviz version 12.2.1 (20241206.2353)
 -->
<!-- Title: Check_Cells Pages: 1 -->
<svg width="669pt" height="740pt"
 viewBox="0.00 0.00 668.75 740.47" xmlns="http://www.w3.org/2000/svg" xmlns:xlink="http://www.w3.org/1999/xlink">
<g id="graph0" class="graph" transform="scale(1 1) rotate(0) translate(4 736.47)">
<title>Check_Cells</title>
<!-- Node1 -->
<g id="Node000001" class="node">
<title>Node1</title>
<g id="a_Node000001"><a xlink:title=" ">
<polygon fill="#999999" stroke="#666666" points="660.75,-385.92 588.5,-385.92 588.5,-366.67 660.75,-366.67 660.75,-385.92"/>
<text text-anchor="middle" x="624.62" y="-372.42" font-family="Helvetica,sans-Serif" font-size="10.00">Check_Cells</text>
</a>
</g>
</g>
<!-- Node2 -->
<g id="Node000002" class="node">
<title>Node2</title>
<g id="a_Node000002"><a xlink:href="../../d8/d40/_grid___computations_8cpp_a831dcf7cbf36ddf425ce0753495ba3c6.html#a831dcf7cbf36ddf425ce0753495ba3c6" target="_top" xlink:title=" ">
<polygon fill="white" stroke="#666666" points="454,-366.92 387.75,-366.92 387.75,-347.67 454,-347.67 454,-366.92"/>
<text text-anchor="middle" x="420.88" y="-353.42" font-family="Helvetica,sans-Serif" font-size="10.00">Form_Cells</text>
</a>
</g>
</g>
<!-- Node1&#45;&gt;Node2 -->
<g id="edge1_Node000001_Node000002" class="edge">
<title>Node1&#45;&gt;Node2</title>
<g id="a_edge1_Node000001_Node000002"><a xlink:title=" ">
<path fill="none" stroke="#63b8ff" d="M576.87,-371.89C539.34,-368.36 487.62,-363.48 454.46,-360.36"/>
<polygon fill="#63b8ff" stroke="#63b8ff" points="576.23,-375.35 586.51,-372.8 576.89,-368.38 576.23,-375.35"/>
</a>
</g>
</g>
<!-- Node4 -->
<g id="Node000004" class="node">
<title>Node4</title>
<g id="a_Node000004"><a xlink:href="../../dd/dbf/_euler___python___wrapper_8cpp_ac5ccb50c3be270f798e054dd36987442.html#ac5ccb50c3be270f798e054dd36987442" target="_top" xlink:title=" ">
<polygon fill="white" stroke="#666666" points="185.75,-348.92 73,-348.92 73,-329.67 185.75,-329.67 185.75,-348.92"/>
<text text-anchor="middle" x="129.38" y="-335.42" font-family="Helvetica,sans-Serif" font-size="10.00">PYBIND11_MODULE</text>
</a>
</g>
</g>
<!-- Node1&#45;&gt;Node4 -->
<g id="edge38_Node000001_Node000004" class="edge">
<title>Node1&#45;&gt;Node4</title>
<g id="a_edge38_Node000001_Node000004"><a xlink:title=" ">
<path fill="none" stroke="#63b8ff" d="M613.79,-396.32C569.14,-484.65 380.89,-829.59 221.75,-705.29 162.65,-659.14 136.17,-402.69 131.24,-349.11"/>
<polygon fill="#63b8ff" stroke="#63b8ff" points="616.91,-397.91 618.24,-387.4 610.64,-394.78 616.91,-397.91"/>
</a>
</g>
</g>
<!-- Node23 -->
<g id="Node000023" class="node">
<title>Node23</title>
<g id="a_Node000023"><a xlink:href="../../d8/d40/_grid___computations_8cpp_a663d4b3ae06e638c2f2e82ad437e831e.html#a663d4b3ae06e638c2f2e82ad437e831e" target="_top" xlink:title="Reads the input grid file and constructs physical cells, evaluates face areas, normals,...">
<polygon fill="white" stroke="#666666" points="552.5,-347.92 490,-347.92 490,-328.67 552.5,-328.67 552.5,-347.92"/>
<text text-anchor="middle" x="521.25" y="-334.42" font-family="Helvetica,sans-Serif" font-size="10.00">Read_Grid</text>
</a>
</g>
</g>
<!-- Node1&#45;&gt;Node23 -->
<g id="edge39_Node000001_Node000023" class="edge">
<title>Node1&#45;&gt;Node23</title>
<g id="a_edge39_Node000001_Node000023"><a xlink:title=" ">
<path fill="none" stroke="#63b8ff" d="M586.22,-362.27C573.84,-357.63 560.33,-352.57 548.92,-348.29"/>
<polygon fill="#63b8ff" stroke="#63b8ff" points="584.71,-365.45 595.31,-365.68 587.17,-358.89 584.71,-365.45"/>
</a>
</g>
</g>
<!-- Node3 -->
<g id="Node000003" class="node">
<title>Node3</title>
<g id="a_Node000003"><a xlink:href="../../d0/d3f/_channel___flow_8cpp_a986df1d2277d1fc7e22408557f29c135.html#a986df1d2277d1fc7e22408557f29c135" target="_top" xlink:title=" ">
<polygon fill="white" stroke="#666666" points="325.88,-508.92 247.62,-508.92 247.62,-489.67 325.88,-489.67 325.88,-508.92"/>
<text text-anchor="middle" x="286.75" y="-495.42" font-family="Helvetica,sans-Serif" font-size="10.00">Channel_Flow</text>
</a>
</g>
</g>
<!-- Node2&#45;&gt;Node3 -->
<g id="edge2_Node000002_Node000003" class="edge">
<title>Node2&#45;&gt;Node3</title>
<g id="a_edge2_Node000002_Node000003"><a xlink:title=" ">
<path fill="none" stroke="#63b8ff" d="M413.99,-378.19C405.1,-405.9 385.59,-454.41 351.75,-481.29 344.43,-487.11 335.33,-491.05 326.32,-493.71"/>
<polygon fill="#63b8ff" stroke="#63b8ff" points="417.27,-379.43 416.81,-368.85 410.57,-377.41 417.27,-379.43"/>
</a>
</g>
</g>
<!-- Node2&#45;&gt;Node4 -->
<g id="edge19_Node000002_Node000004" class="edge">
<title>Node2&#45;&gt;Node4</title>
<g id="a_edge19_Node000002_Node000004"><a xlink:title=" ">
<path fill="none" stroke="#63b8ff" d="M418.13,-378.24C413.87,-414.15 399.5,-486.65 351.75,-518.29 303.59,-550.21 271.03,-548.46 221.75,-518.29 158.07,-479.3 137,-380.42 131.8,-349.02"/>
<polygon fill="#63b8ff" stroke="#63b8ff" points="421.57,-379 419.1,-368.7 414.6,-378.29 421.57,-379"/>
</a>
</g>
</g>
<!-- Node5 -->
<g id="Node000005" class="node">
<title>Node5</title>
<g id="a_Node000005"><a xlink:href="../../d8/d62/_ellinga___test_case_8cpp_ae7167da7e4a13ec20ea77342a492b6ee.html#ae7167da7e4a13ec20ea77342a492b6ee" target="_top" xlink:title=" ">
<polygon fill="white" stroke="#666666" points="334.12,-471.92 239.38,-471.92 239.38,-452.67 334.12,-452.67 334.12,-471.92"/>
<text text-anchor="middle" x="286.75" y="-458.42" font-family="Helvetica,sans-Serif" font-size="10.00">Ellinga_Carbuncle</text>
</a>
</g>
</g>
<!-- Node2&#45;&gt;Node5 -->
<g id="edge4_Node000002_Node000005" class="edge">
<title>Node2&#45;&gt;Node5</title>
<g id="a_edge4_Node000002_Node000005"><a xlink:title=" ">
<path fill="none" stroke="#63b8ff" d="M409.06,-377.15C397.4,-396.74 377.06,-426.17 351.75,-443.29 346.37,-446.93 340.29,-449.89 334.06,-452.28"/>
<polygon fill="#63b8ff" stroke="#63b8ff" points="412.09,-378.9 414.01,-368.48 406.01,-375.43 412.09,-378.9"/>
</a>
</g>
</g>
<!-- Node6 -->
<g id="Node000006" class="node">
<title>Node6</title>
<g id="a_Node000006"><a xlink:href="../../de/d81/_flat___plate___boundary___layer_8cpp_a787b29de4053181d716a19e7c4c9b705.html#a787b29de4053181d716a19e7c4c9b705" target="_top" xlink:title=" ">
<polygon fill="white" stroke="#666666" points="340.12,-434.54 233.38,-434.54 233.38,-404.04 340.12,-404.04 340.12,-434.54"/>
<text text-anchor="start" x="241.38" y="-421.04" font-family="Helvetica,sans-Serif" font-size="10.00">Flat_Plate_Boundary</text>
<text text-anchor="middle" x="286.75" y="-409.79" font-family="Helvetica,sans-Serif" font-size="10.00">_Layer</text>
</a>
</g>
</g>
<!-- Node2&#45;&gt;Node6 -->
<g id="edge6_Node000002_Node000006" class="edge">
<title>Node2&#45;&gt;Node6</title>
<g id="a_edge6_Node000002_Node000006"><a xlink:title=" ">
<path fill="none" stroke="#63b8ff" d="M393.7,-373.1C381.23,-380.32 365.96,-388.71 351.75,-395.29 345.5,-398.19 338.8,-401 332.18,-403.62"/>
<polygon fill="#63b8ff" stroke="#63b8ff" points="395.29,-376.23 402.14,-368.15 391.74,-370.2 395.29,-376.23"/>
</a>
</g>
</g>
<!-- Node7 -->
<g id="Node000007" class="node">
<title>Node7</title>
<g id="a_Node000007"><a xlink:href="../../da/d4b/_flow___over___bump_8cpp_abaa8184c0dd8aa3fdc37d585f0a7d0cc.html#abaa8184c0dd8aa3fdc37d585f0a7d0cc" target="_top" xlink:title=" ">
<polygon fill="white" stroke="#666666" points="333.75,-385.92 239.75,-385.92 239.75,-366.67 333.75,-366.67 333.75,-385.92"/>
<text text-anchor="middle" x="286.75" y="-372.42" font-family="Helvetica,sans-Serif" font-size="10.00">Flow_Over_Bump</text>
</a>
</g>
</g>
<!-- Node2&#45;&gt;Node7 -->
<g id="edge8_Node000002_Node000007" class="edge">
<title>Node2&#45;&gt;Node7</title>
<g id="a_edge8_Node000002_Node000007"><a xlink:title=" ">
<path fill="none" stroke="#63b8ff" d="M376.56,-363.52C363,-365.47 347.98,-367.63 334.21,-369.61"/>
<polygon fill="#63b8ff" stroke="#63b8ff" points="376.66,-367.04 386.06,-362.16 375.66,-360.12 376.66,-367.04"/>
</a>
</g>
</g>
<!-- Node8 -->
<g id="Node000008" class="node">
<title>Node8</title>
<g id="a_Node000008"><a xlink:href="../../dc/d8c/_forward___facing___step_8cpp_a5f68d17ee33caeda5da8c4270441108c.html#a5f68d17ee33caeda5da8c4270441108c" target="_top" xlink:title=" ">
<polygon fill="white" stroke="#666666" points="342.38,-348.92 231.12,-348.92 231.12,-329.67 342.38,-329.67 342.38,-348.92"/>
<text text-anchor="middle" x="286.75" y="-335.42" font-family="Helvetica,sans-Serif" font-size="10.00">Forward_Facing_Step</text>
</a>
</g>
</g>
<!-- Node2&#45;&gt;Node8 -->
<g id="edge10_Node000002_Node000008" class="edge">
<title>Node2&#45;&gt;Node8</title>
<g id="a_edge10_Node000002_Node000008"><a xlink:title=" ">
<path fill="none" stroke="#63b8ff" d="M376.3,-351.36C365.54,-349.89 353.87,-348.3 342.65,-346.77"/>
<polygon fill="#63b8ff" stroke="#63b8ff" points="375.67,-354.8 386.05,-352.69 376.62,-347.87 375.67,-354.8"/>
</a>
</g>
</g>
<!-- Node9 -->
<g id="Node000009" class="node">
<title>Node9</title>
<g id="a_Node000009"><a xlink:href="../../df/dee/_half___cylinder___test___case_8cpp_ad6cb651752c2dd1cb946428572cfb769.html#ad6cb651752c2dd1cb946428572cfb769" target="_top" xlink:title=" ">
<polygon fill="white" stroke="#666666" points="337.5,-311.92 236,-311.92 236,-292.67 337.5,-292.67 337.5,-311.92"/>
<text text-anchor="middle" x="286.75" y="-298.42" font-family="Helvetica,sans-Serif" font-size="10.00">Half_Cylinder_Flow</text>
</a>
</g>
</g>
<!-- Node2&#45;&gt;Node9 -->
<g id="edge12_Node000002_Node000009" class="edge">
<title>Node2&#45;&gt;Node9</title>
<g id="a_edge12_Node000002_Node000009"><a xlink:title=" ">
<path fill="none" stroke="#63b8ff" d="M394.15,-341.55C381.67,-334.37 366.27,-326.19 351.75,-320.29 344.48,-317.34 336.55,-314.69 328.84,-312.38"/>
<polygon fill="#63b8ff" stroke="#63b8ff" points="392.16,-344.44 402.55,-346.49 395.71,-338.41 392.16,-344.44"/>
</a>
</g>
</g>
<!-- Node10 -->
<g id="Node000010" class="node">
<title>Node10</title>
<g id="a_Node000010"><a xlink:href="../../d3/db8/_initialize___test_case_8cpp_a4debd02bbc1736679fe1145738aba8c3.html#a4debd02bbc1736679fe1145738aba8c3" target="_top" xlink:title=" ">
<polygon fill="white" stroke="#666666" points="336.38,-695.92 237.12,-695.92 237.12,-676.67 336.38,-676.67 336.38,-695.92"/>
<text text-anchor="middle" x="286.75" y="-682.42" font-family="Helvetica,sans-Serif" font-size="10.00">Initialize_TestCase</text>
</a>
</g>
</g>
<!-- Node2&#45;&gt;Node10 -->
<g id="edge14_Node000002_Node000010" class="edge">
<title>Node2&#45;&gt;Node10</title>
<g id="a_edge14_Node000002_Node000010"><a xlink:title=" ">
<path fill="none" stroke="#63b8ff" d="M418.05,-378.42C412.18,-441.35 391.84,-625.78 351.75,-668.29 347.55,-672.74 342.35,-676.12 336.74,-678.68"/>
<polygon fill="#63b8ff" stroke="#63b8ff" points="421.51,-379.01 418.92,-368.74 414.53,-378.39 421.51,-379.01"/>
</a>
</g>
</g>
<!-- Node13 -->
<g id="Node000013" class="node">
<title>Node13</title>
<g id="a_Node000013"><a xlink:href="../../de/dc4/_o_e_d_8cpp_a1404a4711dcead4c50dd9eaa2ab7b7c0.html#a1404a4711dcead4c50dd9eaa2ab7b7c0" target="_top" xlink:title=" ">
<polygon fill="white" stroke="#666666" points="305.62,-274.92 267.88,-274.92 267.88,-255.67 305.62,-255.67 305.62,-274.92"/>
<text text-anchor="middle" x="286.75" y="-261.42" font-family="Helvetica,sans-Serif" font-size="10.00">OED</text>
</a>
</g>
</g>
<!-- Node2&#45;&gt;Node13 -->
<g id="edge17_Node000002_Node000013" class="edge">
<title>Node2&#45;&gt;Node13</title>
<g id="a_edge17_Node000002_Node000013"><a xlink:title=" ">
<path fill="none" stroke="#63b8ff" d="M407.12,-338.32C394.84,-321.48 374.77,-297.42 351.75,-283.29 337.68,-274.66 319.36,-270.06 305.93,-267.67"/>
<polygon fill="#63b8ff" stroke="#63b8ff" points="403.93,-339.87 412.54,-346.04 409.65,-335.84 403.93,-339.87"/>
</a>
</g>
</g>
<!-- Node14 -->
<g id="Node000014" class="node">
<title>Node14</title>
<g id="a_Node000014"><a xlink:href="../../dd/de9/_ramp__15___degree_8cpp_af85931ed4e293dce5c8e4acafecd54b5.html#af85931ed4e293dce5c8e4acafecd54b5" target="_top" xlink:title=" ">
<polygon fill="white" stroke="#666666" points="334.12,-237.92 239.38,-237.92 239.38,-218.67 334.12,-218.67 334.12,-237.92"/>
<text text-anchor="middle" x="286.75" y="-224.42" font-family="Helvetica,sans-Serif" font-size="10.00">Ramp_15_Degree</text>
</a>
</g>
</g>
<!-- Node2&#45;&gt;Node14 -->
<g id="edge20_Node000002_Node000014" class="edge">
<title>Node2&#45;&gt;Node14</title>
<g id="a_edge20_Node000002_Node000014"><a xlink:title=" ">
<path fill="none" stroke="#63b8ff" d="M412.67,-336.77C402.81,-311.69 382.74,-269.72 351.75,-246.29 346.59,-242.4 340.63,-239.34 334.46,-236.95"/>
<polygon fill="#63b8ff" stroke="#63b8ff" points="409.28,-337.71 416.06,-345.85 415.84,-335.26 409.28,-337.71"/>
</a>
</g>
</g>
<!-- Node15 -->
<g id="Node000015" class="node">
<title>Node15</title>
<g id="a_Node000015"><a xlink:href="../../d2/d72/_scram___jet___inlet___test___case_8cpp_a49bbbeed352ab44d6248954f9d5391b0.html#a49bbbeed352ab44d6248954f9d5391b0" target="_top" xlink:title=" ">
<polygon fill="white" stroke="#666666" points="330.38,-200.92 243.12,-200.92 243.12,-181.67 330.38,-181.67 330.38,-200.92"/>
<text text-anchor="middle" x="286.75" y="-187.42" font-family="Helvetica,sans-Serif" font-size="10.00">Scram_Jet_Inlet</text>
</a>
</g>
</g>
<!-- Node2&#45;&gt;Node15 -->
<g id="edge22_Node000002_Node000015" class="edge">
<title>Node2&#45;&gt;Node15</title>
<g id="a_edge22_Node000002_Node000015"><a xlink:title=" ">
<path fill="none" stroke="#63b8ff" d="M415.99,-336.12C408.96,-303.92 391.06,-242.86 351.75,-209.29 345.69,-204.12 338.25,-200.43 330.61,-197.8"/>
<polygon fill="#63b8ff" stroke="#63b8ff" points="412.53,-336.69 417.94,-345.8 419.39,-335.3 412.53,-336.69"/>
</a>
</g>
</g>
<!-- Node16 -->
<g id="Node000016" class="node">
<title>Node16</title>
<g id="a_Node000016"><a xlink:href="../../d1/d48/_shock___bubble___interaction_8cpp_a4cb762eff7e59896e567775356bda66a.html#a4cb762eff7e59896e567775356bda66a" target="_top" xlink:title=" ">
<polygon fill="white" stroke="#666666" points="351.75,-163.92 221.75,-163.92 221.75,-144.67 351.75,-144.67 351.75,-163.92"/>
<text text-anchor="middle" x="286.75" y="-150.42" font-family="Helvetica,sans-Serif" font-size="10.00">Shock_Bubble_Interaction</text>
</a>
</g>
</g>
<!-- Node2&#45;&gt;Node16 -->
<g id="edge24_Node000002_Node000016" class="edge">
<title>Node2&#45;&gt;Node16</title>
<g id="a_edge24_Node000002_Node000016"><a xlink:title=" ">
<path fill="none" stroke="#63b8ff" d="M418.21,-336.12C414.04,-297.77 399.75,-216.65 351.75,-172.29 348.27,-169.08 344.27,-166.44 340,-164.26"/>
<polygon fill="#63b8ff" stroke="#63b8ff" points="414.73,-336.44 419.14,-346.07 421.69,-335.79 414.73,-336.44"/>
</a>
</g>
</g>
<!-- Node17 -->
<g id="Node000017" class="node">
<title>Node17</title>
<g id="a_Node000017"><a xlink:href="../../d5/d9f/_shock___diffraction_8cpp_a464d43fab5d32cc9ecee800dfab8e5c8.html#a464d43fab5d32cc9ecee800dfab8e5c8" target="_top" xlink:title=" ">
<polygon fill="white" stroke="#666666" points="333.75,-126.92 239.75,-126.92 239.75,-107.67 333.75,-107.67 333.75,-126.92"/>
<text text-anchor="middle" x="286.75" y="-113.42" font-family="Helvetica,sans-Serif" font-size="10.00">Shock_Diffraction</text>
</a>
</g>
</g>
<!-- Node2&#45;&gt;Node17 -->
<g id="edge26_Node000002_Node000017" class="edge">
<title>Node2&#45;&gt;Node17</title>
<g id="a_edge26_Node000002_Node000017"><a xlink:title=" ">
<path fill="none" stroke="#63b8ff" d="M419.73,-335.92C418.24,-291.92 408.45,-190.67 351.75,-135.29 346.8,-130.45 340.65,-126.9 334.14,-124.28"/>
<polygon fill="#63b8ff" stroke="#63b8ff" points="416.23,-335.75 419.94,-345.67 423.23,-335.6 416.23,-335.75"/>
</a>
</g>
</g>
<!-- Node18 -->
<g id="Node000018" class="node">
<title>Node18</title>
<g id="a_Node000018"><a xlink:href="../../d2/d58/_shock___reflection__2_d_8cpp_a286a95bfcac44ff19264008ffd9506ed.html#a286a95bfcac44ff19264008ffd9506ed" target="_top" xlink:title=" ">
<polygon fill="white" stroke="#666666" points="342.38,-89.92 231.12,-89.92 231.12,-70.67 342.38,-70.67 342.38,-89.92"/>
<text text-anchor="middle" x="286.75" y="-76.42" font-family="Helvetica,sans-Serif" font-size="10.00">Shock_Reflection_2D</text>
</a>
</g>
</g>
<!-- Node2&#45;&gt;Node18 -->
<g id="edge28_Node000002_Node000018" class="edge">
<title>Node2&#45;&gt;Node18</title>
<g id="a_edge28_Node000002_Node000018"><a xlink:title=" ">
<path fill="none" stroke="#63b8ff" d="M417.04,-336.14C409.18,-280.61 385.47,-132.59 351.75,-98.29 348.68,-95.17 345.1,-92.57 341.25,-90.42"/>
<polygon fill="#63b8ff" stroke="#63b8ff" points="413.54,-336.41 418.38,-345.84 420.48,-335.45 413.54,-336.41"/>
</a>
</g>
</g>
<!-- Node19 -->
<g id="Node000019" class="node">
<title>Node19</title>
<g id="a_Node000019"><a xlink:href="../../d6/d4f/_shock___tube__2_d_8cpp_a634f5b7cf63cab96d3b48ed0b4df6ad4.html#a634f5b7cf63cab96d3b48ed0b4df6ad4" target="_top" xlink:title=" ">
<polygon fill="white" stroke="#666666" points="331.12,-52.92 242.38,-52.92 242.38,-33.67 331.12,-33.67 331.12,-52.92"/>
<text text-anchor="middle" x="286.75" y="-39.42" font-family="Helvetica,sans-Serif" font-size="10.00">Shock_Tube_2D</text>
</a>
</g>
</g>
<!-- Node2&#45;&gt;Node19 -->
<g id="edge30_Node000002_Node000019" class="edge">
<title>Node2&#45;&gt;Node19</title>
<g id="a_edge30_Node000002_Node000019"><a xlink:title=" ">
<path fill="none" stroke="#63b8ff" d="M417.77,-335.99C411.33,-274.98 389.96,-101.38 351.75,-61.29 346.26,-55.53 339.07,-51.56 331.51,-48.85"/>
<polygon fill="#63b8ff" stroke="#63b8ff" points="414.27,-336.12 418.77,-345.71 421.23,-335.4 414.27,-336.12"/>
</a>
</g>
</g>
<!-- Node20 -->
<g id="Node000020" class="node">
<title>Node20</title>
<g id="a_Node000020"><a xlink:href="../../de/dda/_shock___wedge___reflection_8cpp_a951397acc5a124a5a006dbd5ae45029a.html#a951397acc5a124a5a006dbd5ae45029a" target="_top" xlink:title=" ">
<polygon fill="white" stroke="#666666" points="351,-658.92 222.5,-658.92 222.5,-639.67 351,-639.67 351,-658.92"/>
<text text-anchor="middle" x="286.75" y="-645.42" font-family="Helvetica,sans-Serif" font-size="10.00">Shock_Wedge_Reflection</text>
</a>
</g>
</g>
<!-- Node2&#45;&gt;Node20 -->
<g id="edge32_Node000002_Node000020" class="edge">
<title>Node2&#45;&gt;Node20</title>
<g id="a_edge32_Node000002_Node000020"><a xlink:title=" ">
<path fill="none" stroke="#63b8ff" d="M417.36,-378.51C410.09,-436.31 387.29,-594.66 351.75,-631.29 348.7,-634.44 345.14,-637.05 341.29,-639.21"/>
<polygon fill="#63b8ff" stroke="#63b8ff" points="420.82,-379.07 418.56,-368.72 413.87,-378.22 420.82,-379.07"/>
</a>
</g>
</g>
<!-- Node21 -->
<g id="Node000021" class="node">
<title>Node21</title>
<g id="a_Node000021"><a xlink:href="../../d8/d8f/_slip___flow__2_d_8cpp_a41030236ecf9b4d95159d7227a838eab.html#a41030236ecf9b4d95159d7227a838eab" target="_top" xlink:title=" ">
<polygon fill="white" stroke="#666666" points="325.12,-621.92 248.38,-621.92 248.38,-602.67 325.12,-602.67 325.12,-621.92"/>
<text text-anchor="middle" x="286.75" y="-608.42" font-family="Helvetica,sans-Serif" font-size="10.00">Slip_Flow_2D</text>
</a>
</g>
</g>
<!-- Node2&#45;&gt;Node21 -->
<g id="edge34_Node000002_Node000021" class="edge">
<title>Node2&#45;&gt;Node21</title>
<g id="a_edge34_Node000002_Node000021"><a xlink:title=" ">
<path fill="none" stroke="#63b8ff" d="M420.23,-378.49C419.81,-424.51 412.12,-534.27 351.75,-594.29 344.71,-601.29 335.18,-605.62 325.62,-608.28"/>
<polygon fill="#63b8ff" stroke="#63b8ff" points="423.73,-378.56 420.2,-368.57 416.73,-378.59 423.73,-378.56"/>
</a>
</g>
</g>
<!-- Node22 -->
<g id="Node000022" class="node">
<title>Node22</title>
<g id="a_Node000022"><a xlink:href="../../d8/da5/_s_w_b_l_i_8cpp_aab1edbd94ae1737559f5140355148ed8.html#aab1edbd94ae1737559f5140355148ed8" target="_top" xlink:title=" ">
<polygon fill="white" stroke="#666666" points="310.5,-584.92 263,-584.92 263,-565.67 310.5,-565.67 310.5,-584.92"/>
<text text-anchor="middle" x="286.75" y="-571.42" font-family="Helvetica,sans-Serif" font-size="10.00">SWBLI</text>
</a>
</g>
</g>
<!-- Node2&#45;&gt;Node22 -->
<g id="edge36_Node000002_Node000022" class="edge">
<title>Node2&#45;&gt;Node22</title>
<g id="a_edge36_Node000002_Node000022"><a xlink:title=" ">
<path fill="none" stroke="#63b8ff" d="M418.21,-378.56C414.01,-417.87 399.65,-502.38 351.75,-551.29 340.87,-562.4 324.37,-568.43 310.85,-571.66"/>
<polygon fill="#63b8ff" stroke="#63b8ff" points="421.67,-379.07 419.12,-368.78 414.7,-378.42 421.67,-379.07"/>
</a>
</g>
</g>
<!-- Node3&#45;&gt;Node4 -->
<g id="edge3_Node000003_Node000004" class="edge">
<title>Node3&#45;&gt;Node4</title>
<g id="a_edge3_Node000003_Node000004"><a xlink:title=" ">
<path fill="none" stroke="#63b8ff" d="M236.93,-489.66C231.53,-487.43 226.33,-484.68 221.75,-481.29 173.19,-445.39 143.61,-375.32 133.91,-349.32"/>
<polygon fill="#63b8ff" stroke="#63b8ff" points="235.43,-492.85 246.03,-492.85 237.75,-486.24 235.43,-492.85"/>
</a>
</g>
</g>
<!-- Node5&#45;&gt;Node4 -->
<g id="edge5_Node000005_Node000004" class="edge">
<title>Node5&#45;&gt;Node4</title>
<g id="a_edge5_Node000005_Node000004"><a xlink:title=" ">
<path fill="none" stroke="#63b8ff" d="M229.83,-447.82C227.03,-446.44 224.32,-444.94 221.75,-443.29 181.87,-417.77 149.26,-369.94 136.34,-349.25"/>
<polygon fill="#63b8ff" stroke="#63b8ff" points="228.32,-450.98 238.89,-451.69 231.06,-444.54 228.32,-450.98"/>
</a>
</g>
</g>
<!-- Node6&#45;&gt;Node4 -->
<g id="edge7_Node000006_Node000004" class="edge">
<title>Node6&#45;&gt;Node4</title>
<g id="a_edge7_Node000006_Node000004"><a xlink:title=" ">
<path fill="none" stroke="#63b8ff" d="M230.1,-399.17C227.25,-397.91 224.46,-396.62 221.75,-395.29 193.33,-381.41 162.36,-361.27 144.76,-349.31"/>
<polygon fill="#63b8ff" stroke="#63b8ff" points="228.56,-402.32 239.14,-402.99 231.29,-395.87 228.56,-402.32"/>
</a>
</g>
</g>
<!-- Node7&#45;&gt;Node4 -->
<g id="edge9_Node000007_Node000004" class="edge">
<title>Node7&#45;&gt;Node4</title>
<g id="a_edge9_Node000007_Node000004"><a xlink:title=" ">
<path fill="none" stroke="#63b8ff" d="M232.16,-363.53C212.75,-358.91 191.1,-353.75 172.78,-349.39"/>
<polygon fill="#63b8ff" stroke="#63b8ff" points="231.28,-366.92 241.82,-365.83 232.9,-360.11 231.28,-366.92"/>
</a>
</g>
</g>
<!-- Node8&#45;&gt;Node4 -->
<g id="edge11_Node000008_Node000004" class="edge">
<title>Node8&#45;&gt;Node4</title>
<g id="a_edge11_Node000008_Node000004"><a xlink:title=" ">
<path fill="none" stroke="#63b8ff" d="M219.56,-339.29C208.46,-339.29 197.04,-339.29 186.23,-339.29"/>
<polygon fill="#63b8ff" stroke="#63b8ff" points="219.46,-342.79 229.46,-339.29 219.46,-335.79 219.46,-342.79"/>
</a>
</g>
</g>
<!-- Node9&#45;&gt;Node4 -->
<g id="edge13_Node000009_Node000004" class="edge">
<title>Node9&#45;&gt;Node4</title>
<g id="a_edge13_Node000009_Node000004"><a xlink:title=" ">
<path fill="none" stroke="#63b8ff" d="M232.16,-315.06C212.75,-319.68 191.1,-324.83 172.78,-329.2"/>
<polygon fill="#63b8ff" stroke="#63b8ff" points="232.9,-318.48 241.82,-312.75 231.28,-311.67 232.9,-318.48"/>
</a>
</g>
</g>
<!-- Node11 -->
<g id="Node000011" class="node">
<title>Node11</title>
<g id="a_Node000011"><a xlink:href="../../d0/de9/_configuration___read_8cpp_af498db18e73ae99cf5272ad58683fc97.html#af498db18e73ae99cf5272ad58683fc97" target="_top" xlink:title=" ">
<polygon fill="white" stroke="#666666" points="181.25,-695.92 77.5,-695.92 77.5,-676.67 181.25,-676.67 181.25,-695.92"/>
<text text-anchor="middle" x="129.38" y="-682.42" font-family="Helvetica,sans-Serif" font-size="10.00">readTestCaseJSON</text>
</a>
</g>
</g>
<!-- Node10&#45;&gt;Node11 -->
<g id="edge15_Node000010_Node000011" class="edge">
<title>Node10&#45;&gt;Node11</title>
<g id="a_edge15_Node000010_Node000011"><a xlink:title=" ">
<path fill="none" stroke="#63b8ff" d="M225.6,-686.29C211.07,-686.29 195.69,-686.29 181.62,-686.29"/>
<polygon fill="#63b8ff" stroke="#63b8ff" points="225.5,-689.79 235.5,-686.29 225.5,-682.79 225.5,-689.79"/>
</a>
</g>
</g>
<!-- Node12 -->
<g id="Node000012" class="node">
<title>Node12</title>
<g id="a_Node000012"><a xlink:href="../../d5/d12/_main_8cpp_a0ddf1224851353fc92bfbff6f499fa97.html#a0ddf1224851353fc92bfbff6f499fa97" target="_top" xlink:title=" ">
<polygon fill="white" stroke="#666666" points="37,-695.92 0,-695.92 0,-676.67 37,-676.67 37,-695.92"/>
<text text-anchor="middle" x="18.5" y="-682.42" font-family="Helvetica,sans-Serif" font-size="10.00">main</text>
</a>
</g>
</g>
<!-- Node11&#45;&gt;Node12 -->
<g id="edge16_Node000011_Node000012" class="edge">
<title>Node11&#45;&gt;Node12</title>
<g id="a_edge16_Node000011_Node000012"><a xlink:title=" ">
<path fill="none" stroke="#63b8ff" d="M65.8,-686.29C55.44,-686.29 45.48,-686.29 37.47,-686.29"/>
<polygon fill="#63b8ff" stroke="#63b8ff" points="65.61,-689.79 75.61,-686.29 65.61,-682.79 65.61,-689.79"/>
</a>
</g>
</g>
<!-- Node13&#45;&gt;Node4 -->
<g id="edge18_Node000013_Node000004" class="edge">
<title>Node13&#45;&gt;Node4</title>
<g id="a_edge18_Node000013_Node000004"><a xlink:title=" ">
<path fill="none" stroke="#63b8ff" d="M256.7,-271.66C245.53,-274.57 232.82,-278.46 221.75,-283.29 192.43,-296.11 161.26,-316.98 143.96,-329.3"/>
<polygon fill="#63b8ff" stroke="#63b8ff" points="257.28,-275.12 266.17,-269.34 255.62,-268.32 257.28,-275.12"/>
</a>
</g>
</g>
<!-- Node14&#45;&gt;Node4 -->
<g id="edge21_Node000014_Node000004" class="edge">
<title>Node14&#45;&gt;Node4</title>
<g id="a_edge21_Node000014_Node000004"><a xlink:title=" ">
<path fill="none" stroke="#63b8ff" d="M228.54,-242.69C226.21,-243.8 223.93,-245 221.75,-246.29 184.15,-268.54 151.31,-310.1 137.42,-329.21"/>
<polygon fill="#63b8ff" stroke="#63b8ff" points="229.82,-245.95 237.71,-238.88 227.14,-239.48 229.82,-245.95"/>
</a>
</g>
</g>
<!-- Node15&#45;&gt;Node4 -->
<g id="edge23_Node000015_Node000004" class="edge">
<title>Node15&#45;&gt;Node4</title>
<g id="a_edge23_Node000015_Node000004"><a xlink:title=" ">
<path fill="none" stroke="#63b8ff" d="M232.57,-203.07C228.76,-204.86 225.1,-206.92 221.75,-209.29 175.82,-241.82 145.07,-305.06 134.47,-329.41"/>
<polygon fill="#63b8ff" stroke="#63b8ff" points="233.53,-206.45 241.52,-199.49 230.94,-199.95 233.53,-206.45"/>
</a>
</g>
</g>
<!-- Node16&#45;&gt;Node4 -->
<g id="edge25_Node000016_Node000004" class="edge">
<title>Node16&#45;&gt;Node4</title>
<g id="a_edge25_Node000016_Node000004"><a xlink:title=" ">
<path fill="none" stroke="#63b8ff" d="M225.22,-169.76C224.03,-170.56 222.87,-171.4 221.75,-172.29 167.44,-215.51 140.75,-300.2 132.91,-329.24"/>
<polygon fill="#63b8ff" stroke="#63b8ff" points="226.57,-173.01 233.62,-165.11 223.18,-166.89 226.57,-173.01"/>
</a>
</g>
</g>
<!-- Node17&#45;&gt;Node4 -->
<g id="edge27_Node000017_Node000004" class="edge">
<title>Node17&#45;&gt;Node4</title>
<g id="a_edge27_Node000017_Node000004"><a xlink:title=" ">
<path fill="none" stroke="#63b8ff" d="M229.32,-129.9C226.63,-131.49 224.09,-133.28 221.75,-135.29 158.58,-189.8 137.07,-296.64 131.79,-329.47"/>
<polygon fill="#63b8ff" stroke="#63b8ff" points="230.69,-133.12 238.18,-125.62 227.65,-126.81 230.69,-133.12"/>
</a>
</g>
</g>
<!-- Node18&#45;&gt;Node4 -->
<g id="edge29_Node000018_Node000004" class="edge">
<title>Node18&#45;&gt;Node4</title>
<g id="a_edge29_Node000018_Node000004"><a xlink:title=" ">
<path fill="none" stroke="#63b8ff" d="M224.11,-96.28C223.3,-96.92 222.51,-97.59 221.75,-98.29 149.8,-164.16 134.13,-292.61 131.06,-329.29"/>
<polygon fill="#63b8ff" stroke="#63b8ff" points="225.69,-99.42 232.26,-91.11 221.94,-93.51 225.69,-99.42"/>
</a>
</g>
</g>
<!-- Node19&#45;&gt;Node4 -->
<g id="edge31_Node000019_Node000004" class="edge">
<title>Node19&#45;&gt;Node4</title>
<g id="a_edge31_Node000019_Node000004"><a xlink:title=" ">
<path fill="none" stroke="#63b8ff" d="M231.88,-53.94C228.2,-55.98 224.76,-58.41 221.75,-61.29 140.84,-138.77 131.52,-289.03 130.49,-329.21"/>
<polygon fill="#63b8ff" stroke="#63b8ff" points="232.99,-57.27 240.69,-49.99 230.13,-50.89 232.99,-57.27"/>
</a>
</g>
</g>
<!-- Node20&#45;&gt;Node4 -->
<g id="edge33_Node000020_Node000004" class="edge">
<title>Node20&#45;&gt;Node4</title>
<g id="a_edge33_Node000020_Node000004"><a xlink:title=" ">
<path fill="none" stroke="#63b8ff" d="M223.3,-632.72C222.77,-632.26 222.25,-631.78 221.75,-631.29 137.35,-549.32 130.6,-390.6 130.31,-349.31"/>
<polygon fill="#63b8ff" stroke="#63b8ff" points="221.24,-635.56 231.47,-638.32 225.2,-629.78 221.24,-635.56"/>
</a>
</g>
</g>
<!-- Node21&#45;&gt;Node4 -->
<g id="edge35_Node000021_Node000004" class="edge">
<title>Node21&#45;&gt;Node4</title>
<g id="a_edge35_Node000021_Node000004"><a xlink:title=" ">
<path fill="none" stroke="#63b8ff" d="M237.53,-604.26C231.74,-601.77 226.29,-598.52 221.75,-594.29 146.42,-524.06 133.11,-387.38 130.83,-349.33"/>
<polygon fill="#63b8ff" stroke="#63b8ff" points="236.15,-607.49 246.74,-607.48 238.45,-600.88 236.15,-607.49"/>
</a>
</g>
</g>
<!-- Node22&#45;&gt;Node4 -->
<g id="edge37_Node000022_Node000004" class="edge">
<title>Node22&#45;&gt;Node4</title>
<g id="a_edge37_Node000022_Node000004"><a xlink:title=" ">
<path fill="none" stroke="#63b8ff" d="M251.83,-568.15C241.17,-564.55 230.04,-559.19 221.75,-551.29 159.37,-491.85 137.32,-382.72 131.86,-349.29"/>
<polygon fill="#63b8ff" stroke="#63b8ff" points="250.58,-571.43 261.16,-570.88 252.55,-564.72 250.58,-571.43"/>
</a>
</g>
</g>
<!-- Node23&#45;&gt;Node2 -->
<g id="edge40_Node000023_Node000002" class="edge">
<title>Node23&#45;&gt;Node2</title>
<g id="a_edge40_Node000023_Node000002"><a xlink:title=" ">
<path fill="none" stroke="#63b8ff" d="M478.56,-346.35C470.52,-347.9 462.2,-349.51 454.49,-350.99"/>
<polygon fill="#63b8ff" stroke="#63b8ff" points="479.02,-349.82 488.18,-344.49 477.69,-342.95 479.02,-349.82"/>
</a>
</g>
</g>
<!-- Node23&#45;&gt;Node4 -->
<g id="edge41_Node000023_Node000004" class="edge">
<title>Node23&#45;&gt;Node4</title>
<g id="a_edge41_Node000023_Node000004"><a xlink:title=" ">
<path fill="none" stroke="#63b8ff" d="M516.54,-317.27C504.86,-258.2 462.79,-90.73 351.75,-24.29 302.17,5.37 267.95,10.41 221.75,-24.29 170.19,-63.02 138.34,-279.8 131.68,-329.25"/>
<polygon fill="#63b8ff" stroke="#63b8ff" points="513.08,-317.77 518.36,-326.95 519.96,-316.48 513.08,-317.77"/>
</a>
</g>
</g>
</g>
</svg>
