<?xml version="1.0" encoding="UTF-8" standalone="no"?>
<!DOCTYPE svg PUBLIC "-//W3C//DTD SVG 1.1//EN"
 "http://www.w3.org/Graphics/SVG/1.1/DTD/svg11.dtd">
<!-- Generated by graphviz version 12.2.1 (20241206.2353)
 -->
<!-- Title: Are_Points_Sorted_AntiClockWise Pages: 1 -->
<svg width="684pt" height="64pt"
 viewBox="0.00 0.00 684.25 64.25" xmlns="http://www.w3.org/2000/svg" xmlns:xlink="http://www.w3.org/1999/xlink">
<g id="graph0" class="graph" transform="scale(1 1) rotate(0) translate(4 60.25)">
<title>Are_Points_Sorted_AntiClockWise</title>
<!-- Node1 -->
<g id="Node000001" class="node">
<title>Node1</title>
<g id="a_Node000001"><a xlink:title="Sorts a set of points in anti&#45;clockwise order around their centroid.">
<polygon fill="#999999" stroke="#666666" points="676.25,-37.25 508,-37.25 508,-18 676.25,-18 676.25,-37.25"/>
<text text-anchor="middle" x="592.12" y="-23.75" font-family="Helvetica,sans-Serif" font-size="10.00">Are_Points_Sorted_AntiClockWise</text>
</a>
</g>
</g>
<!-- Node2 -->
<g id="Node000002" class="node">
<title>Node2</title>
<g id="a_Node000002"><a xlink:href="../../d8/d40/_grid___computations_8cpp_a614d9bfab5b0ee048b9e08a296757c42.html#a614d9bfab5b0ee048b9e08a296757c42" target="_top" xlink:title=" ">
<polygon fill="white" stroke="#666666" points="472,-56.25 334.5,-56.25 334.5,-37 472,-37 472,-56.25"/>
<text text-anchor="middle" x="403.25" y="-42.75" font-family="Helvetica,sans-Serif" font-size="10.00">Sort_Points_AntiClockWise</text>
</a>
</g>
</g>
<!-- Node1&#45;&gt;Node2 -->
<g id="edge1_Node000001_Node000002" class="edge">
<title>Node1&#45;&gt;Node2</title>
<g id="a_edge1_Node000001_Node000002"><a xlink:title=" ">
<path fill="none" stroke="#63b8ff" d="M496.19,-37.28C488.16,-38.09 480.14,-38.91 472.38,-39.7"/>
<polygon fill="#63b8ff" stroke="#63b8ff" points="496.43,-40.77 506.02,-36.28 495.72,-33.81 496.43,-40.77"/>
</a>
</g>
</g>
<!-- Node6 -->
<g id="Node000006" class="node">
<title>Node6</title>
<g id="a_Node000006"><a xlink:href="../../d8/d40/_grid___computations_8cpp_af32bff521610f15eb01e76a3d7072011.html#af32bff521610f15eb01e76a3d7072011" target="_top" xlink:title=" ">
<polygon fill="white" stroke="#666666" points="472,-19.25 334.5,-19.25 334.5,0 472,0 472,-19.25"/>
<text text-anchor="middle" x="403.25" y="-5.75" font-family="Helvetica,sans-Serif" font-size="10.00">Sort_Points_AntiClockWise</text>
</a>
</g>
</g>
<!-- Node1&#45;&gt;Node6 -->
<g id="edge5_Node000001_Node000006" class="edge">
<title>Node1&#45;&gt;Node6</title>
<g id="a_edge5_Node000001_Node000006"><a xlink:title=" ">
<path fill="none" stroke="#63b8ff" d="M496.19,-18.48C488.16,-17.71 480.14,-16.93 472.38,-16.19"/>
<polygon fill="#63b8ff" stroke="#63b8ff" points="495.73,-21.95 506.02,-19.43 496.4,-14.98 495.73,-21.95"/>
</a>
</g>
</g>
<!-- Node3 -->
<g id="Node000003" class="node">
<title>Node3</title>
<g id="a_Node000003"><a xlink:href="../../d0/ded/_read___gmsh___file_8cpp_aa3cbdec71b7c56f603b53acd3ce5a070.html#aa3cbdec71b7c56f603b53acd3ce5a070" target="_top" xlink:title=" ">
<polygon fill="white" stroke="#666666" points="298.5,-56.25 222.5,-56.25 222.5,-37 298.5,-37 298.5,-56.25"/>
<text text-anchor="middle" x="260.5" y="-42.75" font-family="Helvetica,sans-Serif" font-size="10.00">Identify_Cells</text>
</a>
</g>
</g>
<!-- Node2&#45;&gt;Node3 -->
<g id="edge2_Node000002_Node000003" class="edge">
<title>Node2&#45;&gt;Node3</title>
<g id="a_edge2_Node000002_Node000003"><a xlink:title=" ">
<path fill="none" stroke="#63b8ff" d="M322.9,-46.62C314.54,-46.62 306.36,-46.62 298.83,-46.62"/>
<polygon fill="#63b8ff" stroke="#63b8ff" points="322.84,-50.13 332.84,-46.63 322.84,-43.13 322.84,-50.13"/>
</a>
</g>
</g>
<!-- Node4 -->
<g id="Node000004" class="node">
<title>Node4</title>
<g id="a_Node000004"><a xlink:href="../../d0/ded/_read___gmsh___file_8cpp_a18c26bf3782f581573a5750c5b693fe2.html#a18c26bf3782f581573a5750c5b693fe2" target="_top" xlink:title=" ">
<polygon fill="white" stroke="#666666" points="186.5,-56.25 73,-56.25 73,-37 186.5,-37 186.5,-56.25"/>
<text text-anchor="middle" x="129.75" y="-42.75" font-family="Helvetica,sans-Serif" font-size="10.00">Read_GmshVTK_Grid</text>
</a>
</g>
</g>
<!-- Node3&#45;&gt;Node4 -->
<g id="edge3_Node000003_Node000004" class="edge">
<title>Node3&#45;&gt;Node4</title>
<g id="a_edge3_Node000003_Node000004"><a xlink:title=" ">
<path fill="none" stroke="#63b8ff" d="M210.93,-46.62C202.98,-46.62 194.7,-46.62 186.59,-46.62"/>
<polygon fill="#63b8ff" stroke="#63b8ff" points="210.75,-50.13 220.75,-46.63 210.75,-43.13 210.75,-50.13"/>
</a>
</g>
</g>
<!-- Node5 -->
<g id="Node000005" class="node">
<title>Node5</title>
<g id="a_Node000005"><a xlink:href="../../d7/d48/_test___gmsh___reader_8cpp_a0ddf1224851353fc92bfbff6f499fa97.html#a0ddf1224851353fc92bfbff6f499fa97" target="_top" xlink:title=" ">
<polygon fill="white" stroke="#666666" points="37,-56.25 0,-56.25 0,-37 37,-37 37,-56.25"/>
<text text-anchor="middle" x="18.5" y="-42.75" font-family="Helvetica,sans-Serif" font-size="10.00">main</text>
</a>
</g>
</g>
<!-- Node4&#45;&gt;Node5 -->
<g id="edge4_Node000004_Node000005" class="edge">
<title>Node4&#45;&gt;Node5</title>
<g id="a_edge4_Node000004_Node000005"><a xlink:title=" ">
<path fill="none" stroke="#63b8ff" d="M61.27,-46.62C52.52,-46.62 44.24,-46.62 37.39,-46.62"/>
<polygon fill="#63b8ff" stroke="#63b8ff" points="61.01,-50.13 71.01,-46.63 61.01,-43.13 61.01,-50.13"/>
</a>
</g>
</g>
</g>
</svg>
