<?xml version="1.0" encoding="UTF-8" standalone="no"?>
<!DOCTYPE svg PUBLIC "-//W3C//DTD SVG 1.1//EN"
 "http://www.w3.org/Graphics/SVG/1.1/DTD/svg11.dtd">
<!-- Generated by graphviz version 12.2.1 (20241206.2353)
 -->
<!-- Title: Evaluate_Cross_Product Pages: 1 -->
<svg width="779pt" height="702pt"
 viewBox="0.00 0.00 779.00 701.77" xmlns="http://www.w3.org/2000/svg" xmlns:xlink="http://www.w3.org/1999/xlink">
<g id="graph0" class="graph" transform="scale(1 1) rotate(0) translate(4 697.77)">
<title>Evaluate_Cross_Product</title>
<!-- Node1 -->
<g id="Node000001" class="node">
<title>Node1</title>
<g id="a_Node000001"><a xlink:title=" ">
<polygon fill="#999999" stroke="#666666" points="771,-216.77 646.25,-216.77 646.25,-197.52 771,-197.52 771,-216.77"/>
<text text-anchor="middle" x="708.62" y="-203.27" font-family="Helvetica,sans-Serif" font-size="10.00">Evaluate_Cross_Product</text>
</a>
</g>
</g>
<!-- Node2 -->
<g id="Node000002" class="node">
<title>Node2</title>
<g id="a_Node000002"><a xlink:href="../../d8/d40/_grid___computations_8cpp_ad69c3f36bda9ae85def0da9c19653629.html#ad69c3f36bda9ae85def0da9c19653629" target="_top" xlink:title=" ">
<polygon fill="white" stroke="#666666" points="590.75,-253.77 509.5,-253.77 509.5,-234.52 590.75,-234.52 590.75,-253.77"/>
<text text-anchor="middle" x="550.12" y="-240.27" font-family="Helvetica,sans-Serif" font-size="10.00">Construct_Cell</text>
</a>
</g>
</g>
<!-- Node1&#45;&gt;Node2 -->
<g id="edge1_Node000001_Node000002" class="edge">
<title>Node1&#45;&gt;Node2</title>
<g id="a_edge1_Node000001_Node000002"><a xlink:title=" ">
<path fill="none" stroke="#63b8ff" d="M653.75,-219.88C633.21,-224.73 610.18,-230.18 591.15,-234.68"/>
<polygon fill="#63b8ff" stroke="#63b8ff" points="654.46,-223.31 663.39,-217.6 652.85,-216.49 654.46,-223.31"/>
</a>
</g>
</g>
<!-- Node3 -->
<g id="Node000003" class="node">
<title>Node3</title>
<g id="a_Node000003"><a xlink:href="../../d8/d40/_grid___computations_8cpp_a39196f5ea45036c9f3660cffe33ee491.html#a39196f5ea45036c9f3660cffe33ee491" target="_top" xlink:title=" ">
<polygon fill="white" stroke="#666666" points="590.75,-216.77 509.5,-216.77 509.5,-197.52 590.75,-197.52 590.75,-216.77"/>
<text text-anchor="middle" x="550.12" y="-203.27" font-family="Helvetica,sans-Serif" font-size="10.00">Construct_Cell</text>
</a>
</g>
</g>
<!-- Node1&#45;&gt;Node3 -->
<g id="edge2_Node000001_Node000003" class="edge">
<title>Node1&#45;&gt;Node3</title>
<g id="a_edge2_Node000001_Node000003"><a xlink:title=" ">
<path fill="none" stroke="#63b8ff" d="M634.41,-207.14C619.43,-207.14 604.21,-207.14 590.95,-207.14"/>
<polygon fill="#63b8ff" stroke="#63b8ff" points="634.26,-210.64 644.26,-207.14 634.26,-203.64 634.26,-210.64"/>
</a>
</g>
</g>
<!-- Node4 -->
<g id="Node000004" class="node">
<title>Node4</title>
<g id="a_Node000004"><a xlink:href="../../df/daf/_co___volume___grid___computations_8cpp_a097cceef075e862683dd9f6e95d091d4.html#a097cceef075e862683dd9f6e95d091d4" target="_top" xlink:title=" ">
<polygon fill="white" stroke="#666666" points="610.25,-179.77 490,-179.77 490,-160.52 610.25,-160.52 610.25,-179.77"/>
<text text-anchor="middle" x="550.12" y="-166.27" font-family="Helvetica,sans-Serif" font-size="10.00">Construct_Co_Volumes</text>
</a>
</g>
</g>
<!-- Node1&#45;&gt;Node4 -->
<g id="edge3_Node000001_Node000004" class="edge">
<title>Node1&#45;&gt;Node4</title>
<g id="a_edge3_Node000001_Node000004"><a xlink:title=" ">
<path fill="none" stroke="#63b8ff" d="M653.92,-194.44C634.3,-189.8 612.38,-184.62 593.84,-180.24"/>
<polygon fill="#63b8ff" stroke="#63b8ff" points="652.85,-197.79 663.39,-196.68 654.46,-190.97 652.85,-197.79"/>
</a>
</g>
</g>
<!-- Node5 -->
<g id="Node000005" class="node">
<title>Node5</title>
<g id="a_Node000005"><a xlink:href="../../d8/d40/_grid___computations_8cpp_a831dcf7cbf36ddf425ce0753495ba3c6.html#a831dcf7cbf36ddf425ce0753495ba3c6" target="_top" xlink:title=" ">
<polygon fill="white" stroke="#666666" points="454,-346.77 387.75,-346.77 387.75,-327.52 454,-327.52 454,-346.77"/>
<text text-anchor="middle" x="420.88" y="-333.27" font-family="Helvetica,sans-Serif" font-size="10.00">Form_Cells</text>
</a>
</g>
</g>
<!-- Node4&#45;&gt;Node5 -->
<g id="edge4_Node000004_Node000005" class="edge">
<title>Node4&#45;&gt;Node5</title>
<g id="a_edge4_Node000004_Node000005"><a xlink:title=" ">
<path fill="none" stroke="#63b8ff" d="M492.46,-186.13C491.62,-186.78 490.79,-187.44 490,-188.14 445.69,-226.91 428.49,-300.4 423.54,-327.11"/>
<polygon fill="#63b8ff" stroke="#63b8ff" points="494.22,-189.16 500.95,-180.97 490.59,-183.18 494.22,-189.16"/>
</a>
</g>
</g>
<!-- Node7 -->
<g id="Node000007" class="node">
<title>Node7</title>
<g id="a_Node000007"><a xlink:href="../../dd/dbf/_euler___python___wrapper_8cpp_ac5ccb50c3be270f798e054dd36987442.html#ac5ccb50c3be270f798e054dd36987442" target="_top" xlink:title=" ">
<polygon fill="white" stroke="#666666" points="185.75,-328.77 73,-328.77 73,-309.52 185.75,-309.52 185.75,-328.77"/>
<text text-anchor="middle" x="129.38" y="-315.27" font-family="Helvetica,sans-Serif" font-size="10.00">PYBIND11_MODULE</text>
</a>
</g>
</g>
<!-- Node4&#45;&gt;Node7 -->
<g id="edge41_Node000004_Node000007" class="edge">
<title>Node4&#45;&gt;Node7</title>
<g id="a_edge41_Node000004_Node000007"><a xlink:title=" ">
<path fill="none" stroke="#63b8ff" d="M533.02,-151.74C483.15,-96.95 328.23,56.5 221.75,-22.14 172.82,-58.28 139.19,-261.2 131.87,-309.04"/>
<polygon fill="#63b8ff" stroke="#63b8ff" points="530.3,-153.95 539.58,-159.06 535.52,-149.28 530.3,-153.95"/>
</a>
</g>
</g>
<!-- Node6 -->
<g id="Node000006" class="node">
<title>Node6</title>
<g id="a_Node000006"><a xlink:href="../../d0/d3f/_channel___flow_8cpp_a986df1d2277d1fc7e22408557f29c135.html#a986df1d2277d1fc7e22408557f29c135" target="_top" xlink:title=" ">
<polygon fill="white" stroke="#666666" points="325.88,-656.77 247.62,-656.77 247.62,-637.52 325.88,-637.52 325.88,-656.77"/>
<text text-anchor="middle" x="286.75" y="-643.27" font-family="Helvetica,sans-Serif" font-size="10.00">Channel_Flow</text>
</a>
</g>
</g>
<!-- Node5&#45;&gt;Node6 -->
<g id="edge5_Node000005_Node000006" class="edge">
<title>Node5&#45;&gt;Node6</title>
<g id="a_edge5_Node000005_Node000006"><a xlink:title=" ">
<path fill="none" stroke="#63b8ff" d="M417.41,-358.35C410.15,-417.59 387.06,-583.11 351.75,-623.14 345.08,-630.7 335.78,-635.89 326.34,-639.45"/>
<polygon fill="#63b8ff" stroke="#63b8ff" points="420.86,-358.96 418.58,-348.62 413.91,-358.13 420.86,-358.96"/>
</a>
</g>
</g>
<!-- Node5&#45;&gt;Node7 -->
<g id="edge22_Node000005_Node000007" class="edge">
<title>Node5&#45;&gt;Node7</title>
<g id="a_edge22_Node000005_Node000007"><a xlink:title=" ">
<path fill="none" stroke="#63b8ff" d="M417.44,-358.34C410.57,-413.92 389.1,-561.52 351.75,-590.14 305.89,-625.29 268.68,-623.84 221.75,-590.14 132.42,-525.99 129.27,-369.97 130.04,-329.08"/>
<polygon fill="#63b8ff" stroke="#63b8ff" points="420.89,-358.98 418.6,-348.63 413.94,-358.15 420.89,-358.98"/>
</a>
</g>
</g>
<!-- Node8 -->
<g id="Node000008" class="node">
<title>Node8</title>
<g id="a_Node000008"><a xlink:href="../../d8/d62/_ellinga___test_case_8cpp_ae7167da7e4a13ec20ea77342a492b6ee.html#ae7167da7e4a13ec20ea77342a492b6ee" target="_top" xlink:title=" ">
<polygon fill="white" stroke="#666666" points="334.12,-580.77 239.38,-580.77 239.38,-561.52 334.12,-561.52 334.12,-580.77"/>
<text text-anchor="middle" x="286.75" y="-567.27" font-family="Helvetica,sans-Serif" font-size="10.00">Ellinga_Carbuncle</text>
</a>
</g>
</g>
<!-- Node5&#45;&gt;Node8 -->
<g id="edge7_Node000005_Node000008" class="edge">
<title>Node5&#45;&gt;Node8</title>
<g id="a_edge7_Node000005_Node000008"><a xlink:title=" ">
<path fill="none" stroke="#63b8ff" d="M419.42,-358.34C417.32,-401.16 406.44,-498.44 351.75,-552.14 346.87,-556.93 340.84,-560.52 334.45,-563.21"/>
<polygon fill="#63b8ff" stroke="#63b8ff" points="422.91,-358.54 419.77,-348.42 415.92,-358.29 422.91,-358.54"/>
</a>
</g>
</g>
<!-- Node9 -->
<g id="Node000009" class="node">
<title>Node9</title>
<g id="a_Node000009"><a xlink:href="../../de/d81/_flat___plate___boundary___layer_8cpp_a787b29de4053181d716a19e7c4c9b705.html#a787b29de4053181d716a19e7c4c9b705" target="_top" xlink:title=" ">
<polygon fill="white" stroke="#666666" points="340.12,-543.39 233.38,-543.39 233.38,-512.89 340.12,-512.89 340.12,-543.39"/>
<text text-anchor="start" x="241.38" y="-529.89" font-family="Helvetica,sans-Serif" font-size="10.00">Flat_Plate_Boundary</text>
<text text-anchor="middle" x="286.75" y="-518.64" font-family="Helvetica,sans-Serif" font-size="10.00">_Layer</text>
</a>
</g>
</g>
<!-- Node5&#45;&gt;Node9 -->
<g id="edge9_Node000005_Node000009" class="edge">
<title>Node5&#45;&gt;Node9</title>
<g id="a_edge9_Node000005_Node000009"><a xlink:title=" ">
<path fill="none" stroke="#63b8ff" d="M416.85,-358.09C410.74,-393.01 393.75,-463.32 351.75,-504.14 348.43,-507.37 344.64,-510.17 340.59,-512.59"/>
<polygon fill="#63b8ff" stroke="#63b8ff" points="420.27,-358.86 418.4,-348.43 413.36,-357.76 420.27,-358.86"/>
</a>
</g>
</g>
<!-- Node10 -->
<g id="Node000010" class="node">
<title>Node10</title>
<g id="a_Node000010"><a xlink:href="../../da/d4b/_flow___over___bump_8cpp_abaa8184c0dd8aa3fdc37d585f0a7d0cc.html#abaa8184c0dd8aa3fdc37d585f0a7d0cc" target="_top" xlink:title=" ">
<polygon fill="white" stroke="#666666" points="333.75,-494.77 239.75,-494.77 239.75,-475.52 333.75,-475.52 333.75,-494.77"/>
<text text-anchor="middle" x="286.75" y="-481.27" font-family="Helvetica,sans-Serif" font-size="10.00">Flow_Over_Bump</text>
</a>
</g>
</g>
<!-- Node5&#45;&gt;Node10 -->
<g id="edge11_Node000005_Node000010" class="edge">
<title>Node5&#45;&gt;Node10</title>
<g id="a_edge11_Node000005_Node000010"><a xlink:title=" ">
<path fill="none" stroke="#63b8ff" d="M414.64,-357.8C406.26,-386.6 387.08,-438.5 351.75,-467.14 346.55,-471.36 340.42,-474.58 334.05,-477.06"/>
<polygon fill="#63b8ff" stroke="#63b8ff" points="417.93,-359.03 417.18,-348.46 411.18,-357.19 417.93,-359.03"/>
</a>
</g>
</g>
<!-- Node11 -->
<g id="Node000011" class="node">
<title>Node11</title>
<g id="a_Node000011"><a xlink:href="../../dc/d8c/_forward___facing___step_8cpp_a5f68d17ee33caeda5da8c4270441108c.html#a5f68d17ee33caeda5da8c4270441108c" target="_top" xlink:title=" ">
<polygon fill="white" stroke="#666666" points="342.38,-457.77 231.12,-457.77 231.12,-438.52 342.38,-438.52 342.38,-457.77"/>
<text text-anchor="middle" x="286.75" y="-444.27" font-family="Helvetica,sans-Serif" font-size="10.00">Forward_Facing_Step</text>
</a>
</g>
</g>
<!-- Node5&#45;&gt;Node11 -->
<g id="edge13_Node000005_Node000011" class="edge">
<title>Node5&#45;&gt;Node11</title>
<g id="a_edge13_Node000005_Node000011"><a xlink:title=" ">
<path fill="none" stroke="#63b8ff" d="M410.34,-357.12C399.21,-378.35 378.79,-411.38 351.75,-430.14 347.2,-433.3 342.1,-435.9 336.83,-438.05"/>
<polygon fill="#63b8ff" stroke="#63b8ff" points="413.4,-358.83 414.76,-348.32 407.15,-355.69 413.4,-358.83"/>
</a>
</g>
</g>
<!-- Node12 -->
<g id="Node000012" class="node">
<title>Node12</title>
<g id="a_Node000012"><a xlink:href="../../df/dee/_half___cylinder___test___case_8cpp_ad6cb651752c2dd1cb946428572cfb769.html#ad6cb651752c2dd1cb946428572cfb769" target="_top" xlink:title=" ">
<polygon fill="white" stroke="#666666" points="337.5,-420.77 236,-420.77 236,-401.52 337.5,-401.52 337.5,-420.77"/>
<text text-anchor="middle" x="286.75" y="-407.27" font-family="Helvetica,sans-Serif" font-size="10.00">Half_Cylinder_Flow</text>
</a>
</g>
</g>
<!-- Node5&#45;&gt;Node12 -->
<g id="edge15_Node000005_Node000012" class="edge">
<title>Node5&#45;&gt;Node12</title>
<g id="a_edge15_Node000005_Node000012"><a xlink:title=" ">
<path fill="none" stroke="#63b8ff" d="M402.67,-354.74C389.71,-367.09 370.94,-383.12 351.75,-393.14 345.82,-396.24 339.28,-398.86 332.73,-401.05"/>
<polygon fill="#63b8ff" stroke="#63b8ff" points="404.89,-357.47 409.57,-347.96 399.99,-352.48 404.89,-357.47"/>
</a>
</g>
</g>
<!-- Node13 -->
<g id="Node000013" class="node">
<title>Node13</title>
<g id="a_Node000013"><a xlink:href="../../d3/db8/_initialize___test_case_8cpp_a4debd02bbc1736679fe1145738aba8c3.html#a4debd02bbc1736679fe1145738aba8c3" target="_top" xlink:title=" ">
<polygon fill="white" stroke="#666666" points="336.38,-693.77 237.12,-693.77 237.12,-674.52 336.38,-674.52 336.38,-693.77"/>
<text text-anchor="middle" x="286.75" y="-680.27" font-family="Helvetica,sans-Serif" font-size="10.00">Initialize_TestCase</text>
</a>
</g>
</g>
<!-- Node5&#45;&gt;Node13 -->
<g id="edge17_Node000005_Node000013" class="edge">
<title>Node5&#45;&gt;Node13</title>
<g id="a_edge17_Node000005_Node000013"><a xlink:title=" ">
<path fill="none" stroke="#63b8ff" d="M418.33,-358.2C413.11,-423.47 394.08,-620.74 351.75,-666.14 347.58,-670.61 342.39,-674.01 336.79,-676.58"/>
<polygon fill="#63b8ff" stroke="#63b8ff" points="421.8,-358.73 419.07,-348.49 414.82,-358.2 421.8,-358.73"/>
</a>
</g>
</g>
<!-- Node16 -->
<g id="Node000016" class="node">
<title>Node16</title>
<g id="a_Node000016"><a xlink:href="../../de/dc4/_o_e_d_8cpp_a1404a4711dcead4c50dd9eaa2ab7b7c0.html#a1404a4711dcead4c50dd9eaa2ab7b7c0" target="_top" xlink:title=" ">
<polygon fill="white" stroke="#666666" points="305.62,-383.77 267.88,-383.77 267.88,-364.52 305.62,-364.52 305.62,-383.77"/>
<text text-anchor="middle" x="286.75" y="-370.27" font-family="Helvetica,sans-Serif" font-size="10.00">OED</text>
</a>
</g>
</g>
<!-- Node5&#45;&gt;Node16 -->
<g id="edge20_Node000005_Node000016" class="edge">
<title>Node5&#45;&gt;Node16</title>
<g id="a_edge20_Node000005_Node000016"><a xlink:title=" ">
<path fill="none" stroke="#63b8ff" d="M376.56,-349.27C352.59,-355.98 324.05,-363.97 305.92,-369.05"/>
<polygon fill="#63b8ff" stroke="#63b8ff" points="377.41,-352.67 386.1,-346.6 375.52,-345.93 377.41,-352.67"/>
</a>
</g>
</g>
<!-- Node17 -->
<g id="Node000017" class="node">
<title>Node17</title>
<g id="a_Node000017"><a xlink:href="../../dd/de9/_ramp__15___degree_8cpp_af85931ed4e293dce5c8e4acafecd54b5.html#af85931ed4e293dce5c8e4acafecd54b5" target="_top" xlink:title=" ">
<polygon fill="white" stroke="#666666" points="334.12,-346.77 239.38,-346.77 239.38,-327.52 334.12,-327.52 334.12,-346.77"/>
<text text-anchor="middle" x="286.75" y="-333.27" font-family="Helvetica,sans-Serif" font-size="10.00">Ramp_15_Degree</text>
</a>
</g>
</g>
<!-- Node5&#45;&gt;Node17 -->
<g id="edge23_Node000005_Node000017" class="edge">
<title>Node5&#45;&gt;Node17</title>
<g id="a_edge23_Node000005_Node000017"><a xlink:title=" ">
<path fill="none" stroke="#63b8ff" d="M376.21,-337.14C362.83,-337.14 348.05,-337.14 334.46,-337.14"/>
<polygon fill="#63b8ff" stroke="#63b8ff" points="376.04,-340.64 386.04,-337.14 376.04,-333.64 376.04,-340.64"/>
</a>
</g>
</g>
<!-- Node18 -->
<g id="Node000018" class="node">
<title>Node18</title>
<g id="a_Node000018"><a xlink:href="../../d2/d72/_scram___jet___inlet___test___case_8cpp_a49bbbeed352ab44d6248954f9d5391b0.html#a49bbbeed352ab44d6248954f9d5391b0" target="_top" xlink:title=" ">
<polygon fill="white" stroke="#666666" points="330.38,-309.77 243.12,-309.77 243.12,-290.52 330.38,-290.52 330.38,-309.77"/>
<text text-anchor="middle" x="286.75" y="-296.27" font-family="Helvetica,sans-Serif" font-size="10.00">Scram_Jet_Inlet</text>
</a>
</g>
</g>
<!-- Node5&#45;&gt;Node18 -->
<g id="edge25_Node000005_Node000018" class="edge">
<title>Node5&#45;&gt;Node18</title>
<g id="a_edge25_Node000005_Node000018"><a xlink:title=" ">
<path fill="none" stroke="#63b8ff" d="M376.64,-325.03C359.42,-320.21 339.84,-314.73 323.45,-310.14"/>
<polygon fill="#63b8ff" stroke="#63b8ff" points="375.52,-328.35 386.1,-327.68 377.41,-321.61 375.52,-328.35"/>
</a>
</g>
</g>
<!-- Node19 -->
<g id="Node000019" class="node">
<title>Node19</title>
<g id="a_Node000019"><a xlink:href="../../d1/d48/_shock___bubble___interaction_8cpp_a4cb762eff7e59896e567775356bda66a.html#a4cb762eff7e59896e567775356bda66a" target="_top" xlink:title=" ">
<polygon fill="white" stroke="#666666" points="351.75,-272.77 221.75,-272.77 221.75,-253.52 351.75,-253.52 351.75,-272.77"/>
<text text-anchor="middle" x="286.75" y="-259.27" font-family="Helvetica,sans-Serif" font-size="10.00">Shock_Bubble_Interaction</text>
</a>
</g>
</g>
<!-- Node5&#45;&gt;Node19 -->
<g id="edge27_Node000005_Node000019" class="edge">
<title>Node5&#45;&gt;Node19</title>
<g id="a_edge27_Node000005_Node000019"><a xlink:title=" ">
<path fill="none" stroke="#63b8ff" d="M402.67,-319.54C389.71,-307.19 370.94,-291.16 351.75,-281.14 345.82,-278.04 339.28,-275.42 332.73,-273.23"/>
<polygon fill="#63b8ff" stroke="#63b8ff" points="399.99,-321.81 409.57,-326.32 404.89,-316.81 399.99,-321.81"/>
</a>
</g>
</g>
<!-- Node20 -->
<g id="Node000020" class="node">
<title>Node20</title>
<g id="a_Node000020"><a xlink:href="../../d5/d9f/_shock___diffraction_8cpp_a464d43fab5d32cc9ecee800dfab8e5c8.html#a464d43fab5d32cc9ecee800dfab8e5c8" target="_top" xlink:title=" ">
<polygon fill="white" stroke="#666666" points="333.75,-235.77 239.75,-235.77 239.75,-216.52 333.75,-216.52 333.75,-235.77"/>
<text text-anchor="middle" x="286.75" y="-222.27" font-family="Helvetica,sans-Serif" font-size="10.00">Shock_Diffraction</text>
</a>
</g>
</g>
<!-- Node5&#45;&gt;Node20 -->
<g id="edge29_Node000005_Node000020" class="edge">
<title>Node5&#45;&gt;Node20</title>
<g id="a_edge29_Node000005_Node000020"><a xlink:title=" ">
<path fill="none" stroke="#63b8ff" d="M410.34,-317.16C399.21,-295.93 378.79,-262.9 351.75,-244.14 346.44,-240.46 340.39,-237.52 334.18,-235.19"/>
<polygon fill="#63b8ff" stroke="#63b8ff" points="407.15,-318.59 414.76,-325.96 413.4,-315.45 407.15,-318.59"/>
</a>
</g>
</g>
<!-- Node21 -->
<g id="Node000021" class="node">
<title>Node21</title>
<g id="a_Node000021"><a xlink:href="../../d2/d58/_shock___reflection__2_d_8cpp_a286a95bfcac44ff19264008ffd9506ed.html#a286a95bfcac44ff19264008ffd9506ed" target="_top" xlink:title=" ">
<polygon fill="white" stroke="#666666" points="342.38,-198.77 231.12,-198.77 231.12,-179.52 342.38,-179.52 342.38,-198.77"/>
<text text-anchor="middle" x="286.75" y="-185.27" font-family="Helvetica,sans-Serif" font-size="10.00">Shock_Reflection_2D</text>
</a>
</g>
</g>
<!-- Node5&#45;&gt;Node21 -->
<g id="edge31_Node000005_Node000021" class="edge">
<title>Node5&#45;&gt;Node21</title>
<g id="a_edge31_Node000005_Node000021"><a xlink:title=" ">
<path fill="none" stroke="#63b8ff" d="M414.64,-316.49C406.26,-287.68 387.08,-235.78 351.75,-207.14 347.8,-203.94 343.32,-201.31 338.61,-199.15"/>
<polygon fill="#63b8ff" stroke="#63b8ff" points="411.18,-317.09 417.18,-325.82 417.93,-315.25 411.18,-317.09"/>
</a>
</g>
</g>
<!-- Node22 -->
<g id="Node000022" class="node">
<title>Node22</title>
<g id="a_Node000022"><a xlink:href="../../d6/d4f/_shock___tube__2_d_8cpp_a634f5b7cf63cab96d3b48ed0b4df6ad4.html#a634f5b7cf63cab96d3b48ed0b4df6ad4" target="_top" xlink:title=" ">
<polygon fill="white" stroke="#666666" points="331.12,-161.77 242.38,-161.77 242.38,-142.52 331.12,-142.52 331.12,-161.77"/>
<text text-anchor="middle" x="286.75" y="-148.27" font-family="Helvetica,sans-Serif" font-size="10.00">Shock_Tube_2D</text>
</a>
</g>
</g>
<!-- Node5&#45;&gt;Node22 -->
<g id="edge33_Node000005_Node000022" class="edge">
<title>Node5&#45;&gt;Node22</title>
<g id="a_edge33_Node000005_Node000022"><a xlink:title=" ">
<path fill="none" stroke="#63b8ff" d="M417.22,-315.8C411.65,-280.29 395.44,-209.14 351.75,-170.14 345.98,-164.99 338.85,-161.3 331.46,-158.67"/>
<polygon fill="#63b8ff" stroke="#63b8ff" points="413.74,-316.23 418.61,-325.65 420.68,-315.25 413.74,-316.23"/>
</a>
</g>
</g>
<!-- Node23 -->
<g id="Node000023" class="node">
<title>Node23</title>
<g id="a_Node000023"><a xlink:href="../../de/dda/_shock___wedge___reflection_8cpp_a951397acc5a124a5a006dbd5ae45029a.html#a951397acc5a124a5a006dbd5ae45029a" target="_top" xlink:title=" ">
<polygon fill="white" stroke="#666666" points="351,-124.77 222.5,-124.77 222.5,-105.52 351,-105.52 351,-124.77"/>
<text text-anchor="middle" x="286.75" y="-111.27" font-family="Helvetica,sans-Serif" font-size="10.00">Shock_Wedge_Reflection</text>
</a>
</g>
</g>
<!-- Node5&#45;&gt;Node23 -->
<g id="edge35_Node000005_Node000023" class="edge">
<title>Node5&#45;&gt;Node23</title>
<g id="a_edge35_Node000005_Node000023"><a xlink:title=" ">
<path fill="none" stroke="#63b8ff" d="M419.07,-316.1C416.33,-274.9 404.3,-183.22 351.75,-133.14 348.41,-129.96 344.55,-127.33 340.41,-125.16"/>
<polygon fill="#63b8ff" stroke="#63b8ff" points="415.56,-316.07 419.58,-325.87 422.55,-315.7 415.56,-316.07"/>
</a>
</g>
</g>
<!-- Node24 -->
<g id="Node000024" class="node">
<title>Node24</title>
<g id="a_Node000024"><a xlink:href="../../d8/d8f/_slip___flow__2_d_8cpp_a41030236ecf9b4d95159d7227a838eab.html#a41030236ecf9b4d95159d7227a838eab" target="_top" xlink:title=" ">
<polygon fill="white" stroke="#666666" points="325.12,-87.77 248.38,-87.77 248.38,-68.52 325.12,-68.52 325.12,-87.77"/>
<text text-anchor="middle" x="286.75" y="-74.27" font-family="Helvetica,sans-Serif" font-size="10.00">Slip_Flow_2D</text>
</a>
</g>
</g>
<!-- Node5&#45;&gt;Node24 -->
<g id="edge37_Node000005_Node000024" class="edge">
<title>Node5&#45;&gt;Node24</title>
<g id="a_edge37_Node000005_Node000024"><a xlink:title=" ">
<path fill="none" stroke="#63b8ff" d="M420.35,-315.9C420.2,-269.29 413.05,-157.36 351.75,-96.14 344.64,-89.04 334.98,-84.69 325.31,-82.04"/>
<polygon fill="#63b8ff" stroke="#63b8ff" points="416.86,-315.67 420.26,-325.7 423.85,-315.73 416.86,-315.67"/>
</a>
</g>
</g>
<!-- Node25 -->
<g id="Node000025" class="node">
<title>Node25</title>
<g id="a_Node000025"><a xlink:href="../../d8/da5/_s_w_b_l_i_8cpp_aab1edbd94ae1737559f5140355148ed8.html#aab1edbd94ae1737559f5140355148ed8" target="_top" xlink:title=" ">
<polygon fill="white" stroke="#666666" points="310.5,-50.77 263,-50.77 263,-31.52 310.5,-31.52 310.5,-50.77"/>
<text text-anchor="middle" x="286.75" y="-37.27" font-family="Helvetica,sans-Serif" font-size="10.00">SWBLI</text>
</a>
</g>
</g>
<!-- Node5&#45;&gt;Node25 -->
<g id="edge39_Node000005_Node000025" class="edge">
<title>Node5&#45;&gt;Node25</title>
<g id="a_edge39_Node000005_Node000025"><a xlink:title=" ">
<path fill="none" stroke="#63b8ff" d="M417.45,-315.98C410.34,-257.66 387.79,-96.42 351.75,-59.14 341.16,-48.19 324.48,-43.74 310.8,-42.01"/>
<polygon fill="#63b8ff" stroke="#63b8ff" points="413.93,-316.05 418.58,-325.57 420.88,-315.23 413.93,-316.05"/>
</a>
</g>
</g>
<!-- Node6&#45;&gt;Node7 -->
<g id="edge6_Node000006_Node000007" class="edge">
<title>Node6&#45;&gt;Node7</title>
<g id="a_edge6_Node000006_Node000007"><a xlink:title=" ">
<path fill="none" stroke="#63b8ff" d="M236.99,-634.49C231.33,-631.47 226.06,-627.74 221.75,-623.14 138.18,-533.79 130.84,-370.79 130.36,-329.07"/>
<polygon fill="#63b8ff" stroke="#63b8ff" points="235.52,-637.66 246.07,-638.56 238.38,-631.28 235.52,-637.66"/>
</a>
</g>
</g>
<!-- Node8&#45;&gt;Node7 -->
<g id="edge8_Node000008_Node000007" class="edge">
<title>Node8&#45;&gt;Node7</title>
<g id="a_edge8_Node000008_Node000007"><a xlink:title=" ">
<path fill="none" stroke="#63b8ff" d="M228.79,-557.51C226.28,-555.91 223.92,-554.13 221.75,-552.14 151.98,-488.07 134.78,-364.16 131.21,-328.78"/>
<polygon fill="#63b8ff" stroke="#63b8ff" points="227.17,-560.61 237.66,-562.09 230.38,-554.39 227.17,-560.61"/>
</a>
</g>
</g>
<!-- Node9&#45;&gt;Node7 -->
<g id="edge10_Node000009_Node000007" class="edge">
<title>Node9&#45;&gt;Node7</title>
<g id="a_edge10_Node000009_Node000007"><a xlink:title=" ">
<path fill="none" stroke="#63b8ff" d="M224.12,-506.17C223.31,-505.51 222.52,-504.84 221.75,-504.14 165.43,-453.19 139.73,-359.76 132.55,-329.14"/>
<polygon fill="#63b8ff" stroke="#63b8ff" points="221.98,-508.94 232.21,-511.67 225.91,-503.15 221.98,-508.94"/>
</a>
</g>
</g>
<!-- Node10&#45;&gt;Node7 -->
<g id="edge12_Node000010_Node000007" class="edge">
<title>Node10&#45;&gt;Node7</title>
<g id="a_edge12_Node000010_Node000007"><a xlink:title=" ">
<path fill="none" stroke="#63b8ff" d="M229.07,-471.85C226.51,-470.44 224.05,-468.87 221.75,-467.14 171.83,-429.51 142.9,-355.97 133.65,-329.2"/>
<polygon fill="#63b8ff" stroke="#63b8ff" points="227.46,-474.96 238,-475.97 230.38,-468.61 227.46,-474.96"/>
</a>
</g>
</g>
<!-- Node11&#45;&gt;Node7 -->
<g id="edge14_Node000011_Node000007" class="edge">
<title>Node11&#45;&gt;Node7</title>
<g id="a_edge14_Node000011_Node000007"><a xlink:title=" ">
<path fill="none" stroke="#63b8ff" d="M227.4,-433.46C225.45,-432.43 223.56,-431.32 221.75,-430.14 180.15,-403 148.01,-350.98 135.76,-329.16"/>
<polygon fill="#63b8ff" stroke="#63b8ff" points="225.58,-436.48 236.13,-437.43 228.48,-430.11 225.58,-436.48"/>
</a>
</g>
</g>
<!-- Node12&#45;&gt;Node7 -->
<g id="edge16_Node000012_Node000007" class="edge">
<title>Node12&#45;&gt;Node7</title>
<g id="a_edge16_Node000012_Node000007"><a xlink:title=" ">
<path fill="none" stroke="#63b8ff" d="M230.6,-397.23C227.55,-395.97 224.59,-394.61 221.75,-393.14 188.21,-375.79 155.43,-344.87 139.82,-329.05"/>
<polygon fill="#63b8ff" stroke="#63b8ff" points="229.11,-400.41 239.71,-400.6 231.55,-393.85 229.11,-400.41"/>
</a>
</g>
</g>
<!-- Node14 -->
<g id="Node000014" class="node">
<title>Node14</title>
<g id="a_Node000014"><a xlink:href="../../d0/de9/_configuration___read_8cpp_af498db18e73ae99cf5272ad58683fc97.html#af498db18e73ae99cf5272ad58683fc97" target="_top" xlink:title=" ">
<polygon fill="white" stroke="#666666" points="181.25,-693.77 77.5,-693.77 77.5,-674.52 181.25,-674.52 181.25,-693.77"/>
<text text-anchor="middle" x="129.38" y="-680.27" font-family="Helvetica,sans-Serif" font-size="10.00">readTestCaseJSON</text>
</a>
</g>
</g>
<!-- Node13&#45;&gt;Node14 -->
<g id="edge18_Node000013_Node000014" class="edge">
<title>Node13&#45;&gt;Node14</title>
<g id="a_edge18_Node000013_Node000014"><a xlink:title=" ">
<path fill="none" stroke="#63b8ff" d="M225.6,-684.14C211.07,-684.14 195.69,-684.14 181.62,-684.14"/>
<polygon fill="#63b8ff" stroke="#63b8ff" points="225.5,-687.64 235.5,-684.14 225.5,-680.64 225.5,-687.64"/>
</a>
</g>
</g>
<!-- Node15 -->
<g id="Node000015" class="node">
<title>Node15</title>
<g id="a_Node000015"><a xlink:href="../../d5/d12/_main_8cpp_a0ddf1224851353fc92bfbff6f499fa97.html#a0ddf1224851353fc92bfbff6f499fa97" target="_top" xlink:title=" ">
<polygon fill="white" stroke="#666666" points="37,-693.77 0,-693.77 0,-674.52 37,-674.52 37,-693.77"/>
<text text-anchor="middle" x="18.5" y="-680.27" font-family="Helvetica,sans-Serif" font-size="10.00">main</text>
</a>
</g>
</g>
<!-- Node14&#45;&gt;Node15 -->
<g id="edge19_Node000014_Node000015" class="edge">
<title>Node14&#45;&gt;Node15</title>
<g id="a_edge19_Node000014_Node000015"><a xlink:title=" ">
<path fill="none" stroke="#63b8ff" d="M65.8,-684.14C55.44,-684.14 45.48,-684.14 37.47,-684.14"/>
<polygon fill="#63b8ff" stroke="#63b8ff" points="65.61,-687.64 75.61,-684.14 65.61,-680.64 65.61,-687.64"/>
</a>
</g>
</g>
<!-- Node16&#45;&gt;Node7 -->
<g id="edge21_Node000016_Node000007" class="edge">
<title>Node16&#45;&gt;Node7</title>
<g id="a_edge21_Node000016_Node000007"><a xlink:title=" ">
<path fill="none" stroke="#63b8ff" d="M256.6,-366.67C245.6,-363.66 233.02,-359.99 221.75,-356.14 197.94,-348 171.35,-337.01 153.02,-329.12"/>
<polygon fill="#63b8ff" stroke="#63b8ff" points="255.35,-369.96 265.92,-369.16 257.16,-363.2 255.35,-369.96"/>
</a>
</g>
</g>
<!-- Node17&#45;&gt;Node7 -->
<g id="edge24_Node000017_Node000007" class="edge">
<title>Node17&#45;&gt;Node7</title>
<g id="a_edge24_Node000017_Node000007"><a xlink:title=" ">
<path fill="none" stroke="#63b8ff" d="M227.87,-330.44C214.18,-328.85 199.6,-327.16 186,-325.58"/>
<polygon fill="#63b8ff" stroke="#63b8ff" points="227.29,-333.89 237.63,-331.57 228.1,-326.94 227.29,-333.89"/>
</a>
</g>
</g>
<!-- Node18&#45;&gt;Node7 -->
<g id="edge26_Node000018_Node000007" class="edge">
<title>Node18&#45;&gt;Node7</title>
<g id="a_edge26_Node000018_Node000007"><a xlink:title=" ">
<path fill="none" stroke="#63b8ff" d="M231.88,-306.73C217.12,-308.53 201.08,-310.49 186.21,-312.31"/>
<polygon fill="#63b8ff" stroke="#63b8ff" points="231.88,-310.25 241.38,-305.57 231.03,-303.31 231.88,-310.25"/>
</a>
</g>
</g>
<!-- Node19&#45;&gt;Node7 -->
<g id="edge28_Node000019_Node000007" class="edge">
<title>Node19&#45;&gt;Node7</title>
<g id="a_edge28_Node000019_Node000007"><a xlink:title=" ">
<path fill="none" stroke="#63b8ff" d="M236.22,-276.43C231.31,-277.94 226.41,-279.52 221.75,-281.14 197.57,-289.54 170.58,-301.03 152.25,-309.17"/>
<polygon fill="#63b8ff" stroke="#63b8ff" points="236.89,-279.88 245.49,-273.68 234.9,-273.17 236.89,-279.88"/>
</a>
</g>
</g>
<!-- Node20&#45;&gt;Node7 -->
<g id="edge30_Node000020_Node000007" class="edge">
<title>Node20&#45;&gt;Node7</title>
<g id="a_edge30_Node000020_Node000007"><a xlink:title=" ">
<path fill="none" stroke="#63b8ff" d="M230.13,-240.22C227.25,-241.43 224.44,-242.74 221.75,-244.14 188.09,-261.7 155.36,-293.05 139.79,-309.08"/>
<polygon fill="#63b8ff" stroke="#63b8ff" points="231.22,-243.55 239.35,-236.76 228.76,-237 231.22,-243.55"/>
</a>
</g>
</g>
<!-- Node21&#45;&gt;Node7 -->
<g id="edge32_Node000021_Node000007" class="edge">
<title>Node21&#45;&gt;Node7</title>
<g id="a_edge32_Node000021_Node000007"><a xlink:title=" ">
<path fill="none" stroke="#63b8ff" d="M227.39,-203.81C225.45,-204.84 223.56,-205.95 221.75,-207.14 179.99,-234.52 147.94,-287.01 135.74,-309.03"/>
<polygon fill="#63b8ff" stroke="#63b8ff" points="228.47,-207.16 236.12,-199.83 225.57,-200.79 228.47,-207.16"/>
</a>
</g>
</g>
<!-- Node22&#45;&gt;Node7 -->
<g id="edge34_Node000022_Node000007" class="edge">
<title>Node22&#45;&gt;Node7</title>
<g id="a_edge34_Node000022_Node000007"><a xlink:title=" ">
<path fill="none" stroke="#63b8ff" d="M231.42,-164.17C228.01,-165.9 224.74,-167.88 221.75,-170.14 171.65,-208.03 142.83,-282.06 133.63,-309.02"/>
<polygon fill="#63b8ff" stroke="#63b8ff" points="232.78,-167.4 240.63,-160.28 230.06,-160.95 232.78,-167.4"/>
</a>
</g>
</g>
<!-- Node23&#45;&gt;Node7 -->
<g id="edge36_Node000023_Node000007" class="edge">
<title>Node23&#45;&gt;Node7</title>
<g id="a_edge36_Node000023_Node000007"><a xlink:title=" ">
<path fill="none" stroke="#63b8ff" d="M224.7,-130.86C223.69,-131.59 222.7,-132.35 221.75,-133.14 162.85,-182.17 138.71,-278.37 132.26,-309.31"/>
<polygon fill="#63b8ff" stroke="#63b8ff" points="226.28,-134 233.17,-125.95 222.77,-127.94 226.28,-134"/>
</a>
</g>
</g>
<!-- Node24&#45;&gt;Node7 -->
<g id="edge38_Node000024_Node000007" class="edge">
<title>Node24&#45;&gt;Node7</title>
<g id="a_edge38_Node000024_Node000007"><a xlink:title=" ">
<path fill="none" stroke="#63b8ff" d="M237.5,-86.45C231.76,-88.9 226.33,-92.06 221.75,-96.14 153.98,-156.55 135.45,-274.78 131.37,-309.4"/>
<polygon fill="#63b8ff" stroke="#63b8ff" points="238.32,-89.87 246.61,-83.27 236.01,-83.26 238.32,-89.87"/>
</a>
</g>
</g>
<!-- Node25&#45;&gt;Node7 -->
<g id="edge40_Node000025_Node000007" class="edge">
<title>Node25&#45;&gt;Node7</title>
<g id="a_edge40_Node000025_Node000007"><a xlink:title=" ">
<path fill="none" stroke="#63b8ff" d="M251.54,-44.54C240.9,-47.11 229.85,-51.54 221.75,-59.14 145.16,-131 132.73,-270.78 130.75,-309.17"/>
<polygon fill="#63b8ff" stroke="#63b8ff" points="252.1,-48 261.27,-42.71 250.8,-41.12 252.1,-48"/>
</a>
</g>
</g>
</g>
</svg>
