<?xml version="1.0" encoding="UTF-8" standalone="no"?>
<!DOCTYPE svg PUBLIC "-//W3C//DTD SVG 1.1//EN"
 "http://www.w3.org/Graphics/SVG/1.1/DTD/svg11.dtd">
<!-- Generated by graphviz version 12.2.1 (20241206.2353)
 -->
<!-- Title: Read_GmshVTK_Grid Pages: 1 -->
<svg width="680pt" height="224pt"
 viewBox="0.00 0.00 680.25 224.25" xmlns="http://www.w3.org/2000/svg" xmlns:xlink="http://www.w3.org/1999/xlink">
<g id="graph0" class="graph" transform="scale(1 1) rotate(0) translate(4 220.25)">
<title>Read_GmshVTK_Grid</title>
<!-- Node1 -->
<g id="Node000001" class="node">
<title>Node1</title>
<g id="a_Node000001"><a xlink:title=" ">
<polygon fill="#999999" stroke="#666666" points="113.5,-114.25 0,-114.25 0,-95 113.5,-95 113.5,-114.25"/>
<text text-anchor="middle" x="56.75" y="-100.75" font-family="Helvetica,sans-Serif" font-size="10.00">Read_GmshVTK_Grid</text>
</a>
</g>
</g>
<!-- Node2 -->
<g id="Node000002" class="node">
<title>Node2</title>
<g id="a_Node000002"><a xlink:href="../../d0/ded/_read___gmsh___file_8cpp_ae9fe416efcf214282b13d235773a6bf6.html#ae9fe416efcf214282b13d235773a6bf6" target="_top" xlink:title=" ">
<polygon fill="white" stroke="#666666" points="258.88,-216.25 185.12,-216.25 185.12,-197 258.88,-197 258.88,-216.25"/>
<text text-anchor="middle" x="222" y="-202.75" font-family="Helvetica,sans-Serif" font-size="10.00">BoundingBox</text>
</a>
</g>
</g>
<!-- Node1&#45;&gt;Node2 -->
<g id="edge1_Node000001_Node000002" class="edge">
<title>Node1&#45;&gt;Node2</title>
<g id="a_edge1_Node000001_Node000002"><a xlink:title=" ">
<path fill="none" stroke="#63b8ff" d="M65.7,-114.62C80.33,-132.32 113.37,-169.17 149.5,-188.62 157.02,-192.68 165.48,-195.84 173.88,-198.3"/>
<polygon fill="#63b8ff" stroke="#63b8ff" points="172.78,-201.63 183.34,-200.77 174.54,-194.86 172.78,-201.63"/>
</a>
</g>
</g>
<!-- Node3 -->
<g id="Node000003" class="node">
<title>Node3</title>
<g id="a_Node000003"><a xlink:href="../../d0/ded/_read___gmsh___file_8cpp_ab9ea50ddf9e2981b178f5999ddfcb7b3.html#ab9ea50ddf9e2981b178f5999ddfcb7b3" target="_top" xlink:title=" ">
<polygon fill="white" stroke="#666666" points="294.5,-179.25 149.5,-179.25 149.5,-160 294.5,-160 294.5,-179.25"/>
<text text-anchor="middle" x="222" y="-165.75" font-family="Helvetica,sans-Serif" font-size="10.00">Classify_Domain_Boundaries</text>
</a>
</g>
</g>
<!-- Node1&#45;&gt;Node3 -->
<g id="edge2_Node000001_Node000003" class="edge">
<title>Node1&#45;&gt;Node3</title>
<g id="a_edge2_Node000001_Node000003"><a xlink:title=" ">
<path fill="none" stroke="#63b8ff" d="M75.19,-114.73C93.3,-124.89 122.67,-140.46 149.5,-150.62 154.92,-152.68 160.64,-154.6 166.4,-156.37"/>
<polygon fill="#63b8ff" stroke="#63b8ff" points="165.41,-159.72 175.99,-159.15 167.37,-153 165.41,-159.72"/>
</a>
</g>
</g>
<!-- Node5 -->
<g id="Node000005" class="node">
<title>Node5</title>
<g id="a_Node000005"><a xlink:href="../../d0/ded/_read___gmsh___file_8cpp_a4f897fcec439c37558a5d9fd94abf2e0.html#a4f897fcec439c37558a5d9fd94abf2e0" target="_top" xlink:title=" ">
<polygon fill="white" stroke="#666666" points="281.75,-141.88 162.25,-141.88 162.25,-111.38 281.75,-111.38 281.75,-141.88"/>
<text text-anchor="start" x="170.25" y="-128.38" font-family="Helvetica,sans-Serif" font-size="10.00">Create_Boundary_Cells</text>
<text text-anchor="middle" x="222" y="-117.12" font-family="Helvetica,sans-Serif" font-size="10.00">_Lists</text>
</a>
</g>
</g>
<!-- Node1&#45;&gt;Node5 -->
<g id="edge4_Node000001_Node000005" class="edge">
<title>Node1&#45;&gt;Node5</title>
<g id="a_edge4_Node000001_Node000005"><a xlink:title=" ">
<path fill="none" stroke="#63b8ff" d="M113.93,-112.2C125.79,-113.79 138.45,-115.5 150.76,-117.16"/>
<polygon fill="#63b8ff" stroke="#63b8ff" points="150.06,-120.6 160.43,-118.46 150.99,-113.66 150.06,-120.6"/>
</a>
</g>
</g>
<!-- Node6 -->
<g id="Node000006" class="node">
<title>Node6</title>
<g id="a_Node000006"><a xlink:href="../../d0/ded/_read___gmsh___file_8cpp_aa3cbdec71b7c56f603b53acd3ce5a070.html#aa3cbdec71b7c56f603b53acd3ce5a070" target="_top" xlink:title=" ">
<polygon fill="white" stroke="#666666" points="260,-93.25 184,-93.25 184,-74 260,-74 260,-93.25"/>
<text text-anchor="middle" x="222" y="-79.75" font-family="Helvetica,sans-Serif" font-size="10.00">Identify_Cells</text>
</a>
</g>
</g>
<!-- Node1&#45;&gt;Node6 -->
<g id="edge5_Node000001_Node000006" class="edge">
<title>Node1&#45;&gt;Node6</title>
<g id="a_edge5_Node000001_Node000006"><a xlink:title=" ">
<path fill="none" stroke="#63b8ff" d="M113.93,-97.4C132.94,-94.95 153.99,-92.25 172.36,-89.88"/>
<polygon fill="#63b8ff" stroke="#63b8ff" points="172.72,-93.36 182.2,-88.62 171.83,-86.42 172.72,-93.36"/>
</a>
</g>
</g>
<!-- Node11 -->
<g id="Node000011" class="node">
<title>Node11</title>
<g id="a_Node000011"><a xlink:href="../../d0/ded/_read___gmsh___file_8cpp_a9ee7224f2c410fa22e26e50b31924869.html#a9ee7224f2c410fa22e26e50b31924869" target="_top" xlink:title=" ">
<polygon fill="white" stroke="#666666" points="273.5,-56.25 170.5,-56.25 170.5,-37 273.5,-37 273.5,-56.25"/>
<text text-anchor="middle" x="222" y="-42.75" font-family="Helvetica,sans-Serif" font-size="10.00">Identify_Neighbours</text>
</a>
</g>
</g>
<!-- Node1&#45;&gt;Node11 -->
<g id="edge10_Node000001_Node000011" class="edge">
<title>Node1&#45;&gt;Node11</title>
<g id="a_edge10_Node000001_Node000011"><a xlink:title=" ">
<path fill="none" stroke="#63b8ff" d="M78.14,-94.58C96.48,-85.82 124.34,-73.21 149.5,-64.62 154.54,-62.91 159.82,-61.27 165.14,-59.74"/>
<polygon fill="#63b8ff" stroke="#63b8ff" points="165.87,-63.17 174.58,-57.14 164.01,-56.42 165.87,-63.17"/>
</a>
</g>
</g>
<!-- Node13 -->
<g id="Node000013" class="node">
<title>Node13</title>
<g id="a_Node000013"><a xlink:href="../../dc/d3a/src_2_utility___files_8cpp_abf34e0b480f7580b0cd4237a76aed670.html#abf34e0b480f7580b0cd4237a76aed670" target="_top" xlink:title=" ">
<polygon fill="white" stroke="#666666" points="240.12,-19.25 203.88,-19.25 203.88,0 240.12,0 240.12,-19.25"/>
<text text-anchor="middle" x="222" y="-5.75" font-family="Helvetica,sans-Serif" font-size="10.00">Print</text>
</a>
</g>
</g>
<!-- Node1&#45;&gt;Node13 -->
<g id="edge12_Node000001_Node000013" class="edge">
<title>Node1&#45;&gt;Node13</title>
<g id="a_edge12_Node000001_Node000013"><a xlink:title=" ">
<path fill="none" stroke="#63b8ff" d="M66.61,-94.72C81.88,-78.25 114.87,-45.32 149.5,-27.62 162.81,-20.82 178.86,-16.48 192.37,-13.77"/>
<polygon fill="#63b8ff" stroke="#63b8ff" points="192.75,-17.26 201.98,-12.05 191.52,-10.37 192.75,-17.26"/>
</a>
</g>
</g>
<!-- Node4 -->
<g id="Node000004" class="node">
<title>Node4</title>
<g id="a_Node000004"><a xlink:href="../../d0/ded/_read___gmsh___file_8cpp_a994cf9f1092af359f042b96b997c5adc.html#a994cf9f1092af359f042b96b997c5adc" target="_top" xlink:title=" ">
<polygon fill="white" stroke="#666666" points="451.5,-179.25 347,-179.25 347,-160 451.5,-160 451.5,-179.25"/>
<text text-anchor="middle" x="399.25" y="-165.75" font-family="Helvetica,sans-Serif" font-size="10.00">Get_Boundary_Type</text>
</a>
</g>
</g>
<!-- Node3&#45;&gt;Node4 -->
<g id="edge3_Node000003_Node000004" class="edge">
<title>Node3&#45;&gt;Node4</title>
<g id="a_edge3_Node000003_Node000004"><a xlink:title=" ">
<path fill="none" stroke="#63b8ff" d="M294.79,-169.62C308.24,-169.62 322.21,-169.62 335.36,-169.62"/>
<polygon fill="#63b8ff" stroke="#63b8ff" points="335.17,-173.13 345.17,-169.63 335.17,-166.13 335.17,-173.13"/>
</a>
</g>
</g>
<!-- Node7 -->
<g id="Node000007" class="node">
<title>Node7</title>
<g id="a_Node000007"><a xlink:href="../../d8/d40/_grid___computations_8cpp_a2d284e26ddef582519953e8b8300184e.html#a2d284e26ddef582519953e8b8300184e" target="_top" xlink:title=" ">
<polygon fill="white" stroke="#666666" points="439.88,-130.25 358.62,-130.25 358.62,-111 439.88,-111 439.88,-130.25"/>
<text text-anchor="middle" x="399.25" y="-116.75" font-family="Helvetica,sans-Serif" font-size="10.00">Construct_Cell</text>
</a>
</g>
</g>
<!-- Node6&#45;&gt;Node7 -->
<g id="edge6_Node000006_Node000007" class="edge">
<title>Node6&#45;&gt;Node7</title>
<g id="a_edge6_Node000006_Node000007"><a xlink:title=" ">
<path fill="none" stroke="#63b8ff" d="M260.17,-91.47C285.51,-96.82 319.4,-103.98 347.26,-109.86"/>
<polygon fill="#63b8ff" stroke="#63b8ff" points="346.41,-113.26 356.91,-111.9 347.85,-106.41 346.41,-113.26"/>
</a>
</g>
</g>
<!-- Node8 -->
<g id="Node000008" class="node">
<title>Node8</title>
<g id="a_Node000008"><a xlink:href="../../d8/d40/_grid___computations_8cpp_a614d9bfab5b0ee048b9e08a296757c42.html#a614d9bfab5b0ee048b9e08a296757c42" target="_top" xlink:title=" ">
<polygon fill="white" stroke="#666666" points="468,-93.25 330.5,-93.25 330.5,-74 468,-74 468,-93.25"/>
<text text-anchor="middle" x="399.25" y="-79.75" font-family="Helvetica,sans-Serif" font-size="10.00">Sort_Points_AntiClockWise</text>
</a>
</g>
</g>
<!-- Node6&#45;&gt;Node8 -->
<g id="edge7_Node000006_Node000008" class="edge">
<title>Node6&#45;&gt;Node8</title>
<g id="a_edge7_Node000006_Node000008"><a xlink:title=" ">
<path fill="none" stroke="#63b8ff" d="M260.17,-83.62C277.29,-83.62 298.32,-83.62 318.75,-83.62"/>
<polygon fill="#63b8ff" stroke="#63b8ff" points="318.49,-87.13 328.49,-83.63 318.49,-80.13 318.49,-87.13"/>
</a>
</g>
</g>
<!-- Node9 -->
<g id="Node000009" class="node">
<title>Node9</title>
<g id="a_Node000009"><a xlink:href="../../d8/d40/_grid___computations_8cpp_a0bdffb27693c14d6cb4ef62eb5bd5d7f.html#a0bdffb27693c14d6cb4ef62eb5bd5d7f" target="_top" xlink:title="Sorts a set of points in anti&#45;clockwise order around their centroid.">
<polygon fill="white" stroke="#666666" points="672.25,-111.25 504,-111.25 504,-92 672.25,-92 672.25,-111.25"/>
<text text-anchor="middle" x="588.12" y="-97.75" font-family="Helvetica,sans-Serif" font-size="10.00">Are_Points_Sorted_AntiClockWise</text>
</a>
</g>
</g>
<!-- Node8&#45;&gt;Node9 -->
<g id="edge8_Node000008_Node000009" class="edge">
<title>Node8&#45;&gt;Node9</title>
<g id="a_edge8_Node000008_Node000009"><a xlink:title=" ">
<path fill="none" stroke="#63b8ff" d="M468.24,-90.17C476.05,-90.93 484.11,-91.7 492.18,-92.48"/>
<polygon fill="#63b8ff" stroke="#63b8ff" points="491.78,-95.96 502.07,-93.43 492.45,-88.99 491.78,-95.96"/>
</a>
</g>
</g>
<!-- Node10 -->
<g id="Node000010" class="node">
<title>Node10</title>
<g id="a_Node000010"><a xlink:href="../../d8/d40/_grid___computations_8cpp_a4dd07afd2a0f939b4d47bfa1088912c4.html#a4dd07afd2a0f939b4d47bfa1088912c4" target="_top" xlink:title=" ">
<polygon fill="white" stroke="#666666" points="637,-74.25 539.25,-74.25 539.25,-55 637,-55 637,-74.25"/>
<text text-anchor="middle" x="588.12" y="-60.75" font-family="Helvetica,sans-Serif" font-size="10.00">Compute_Centroid</text>
</a>
</g>
</g>
<!-- Node8&#45;&gt;Node10 -->
<g id="edge9_Node000008_Node000010" class="edge">
<title>Node8&#45;&gt;Node10</title>
<g id="a_edge9_Node000008_Node000010"><a xlink:title=" ">
<path fill="none" stroke="#63b8ff" d="M468.24,-76.71C487.6,-74.74 508.54,-72.61 527.37,-70.7"/>
<polygon fill="#63b8ff" stroke="#63b8ff" points="527.69,-74.19 537.28,-69.69 526.98,-67.22 527.69,-74.19"/>
</a>
</g>
</g>
<!-- Node12 -->
<g id="Node000012" class="node">
<title>Node12</title>
<g id="a_Node000012"><a xlink:href="../../d0/ded/_read___gmsh___file_8cpp_adc1985827312d4d72fa6eb4ce492fc5e.html#adc1985827312d4d72fa6eb4ce492fc5e" target="_top" xlink:title=" ">
<polygon fill="white" stroke="#666666" points="446.62,-56.25 351.88,-56.25 351.88,-37 446.62,-37 446.62,-56.25"/>
<text text-anchor="middle" x="399.25" y="-42.75" font-family="Helvetica,sans-Serif" font-size="10.00">mapFacesToCells</text>
</a>
</g>
</g>
<!-- Node11&#45;&gt;Node12 -->
<g id="edge11_Node000011_Node000012" class="edge">
<title>Node11&#45;&gt;Node12</title>
<g id="a_edge11_Node000011_Node000012"><a xlink:title=" ">
<path fill="none" stroke="#63b8ff" d="M273.69,-46.62C294.51,-46.62 318.74,-46.62 340.26,-46.62"/>
<polygon fill="#63b8ff" stroke="#63b8ff" points="340.06,-50.13 350.06,-46.63 340.06,-43.13 340.06,-50.13"/>
</a>
</g>
</g>
</g>
</svg>
