<?xml version="1.0" encoding="UTF-8" standalone="no"?>
<!DOCTYPE svg PUBLIC "-//W3C//DTD SVG 1.1//EN"
 "http://www.w3.org/Graphics/SVG/1.1/DTD/svg11.dtd">
<!-- Generated by graphviz version 12.2.1 (20241206.2353)
 -->
<!-- Title: Compute_Centroid Pages: 1 -->
<svg width="1347pt" height="301pt"
 viewBox="0.00 0.00 1346.75 300.87" xmlns="http://www.w3.org/2000/svg" xmlns:xlink="http://www.w3.org/1999/xlink">
<g id="graph0" class="graph" transform="scale(1 1) rotate(0) translate(4 296.87)">
<title>Compute_Centroid</title>
<!-- Node1 -->
<g id="Node000001" class="node">
<title>Node1</title>
<g id="a_Node000001"><a xlink:title=" ">
<polygon fill="#999999" stroke="#666666" points="1338.75,-198.87 1241,-198.87 1241,-179.62 1338.75,-179.62 1338.75,-198.87"/>
<text text-anchor="middle" x="1289.88" y="-185.37" font-family="Helvetica,sans-Serif" font-size="10.00">Compute_Centroid</text>
</a>
</g>
</g>
<!-- Node2 -->
<g id="Node000002" class="node">
<title>Node2</title>
<g id="a_Node000002"><a xlink:href="../../d8/d40/_grid___computations_8cpp_aa505f9c8b76a867386279fb474d3c7d0.html#aa505f9c8b76a867386279fb474d3c7d0" target="_top" xlink:title=" ">
<polygon fill="white" stroke="#666666" points="1185.12,-292.87 1087.38,-292.87 1087.38,-273.62 1185.12,-273.62 1185.12,-292.87"/>
<text text-anchor="middle" x="1136.25" y="-279.37" font-family="Helvetica,sans-Serif" font-size="10.00">Compute_Centroid</text>
</a>
</g>
</g>
<!-- Node1&#45;&gt;Node2 -->
<g id="edge1_Node000001_Node000002" class="edge">
<title>Node1&#45;&gt;Node2</title>
<g id="a_edge1_Node000001_Node000002"><a xlink:title=" ">
<path fill="none" stroke="#63b8ff" d="M1271.49,-206.97C1255.43,-222.52 1230.31,-244.82 1205,-259.24 1195.13,-264.87 1183.72,-269.52 1173.11,-273.19"/>
<polygon fill="#63b8ff" stroke="#63b8ff" points="1273.7,-209.71 1278.34,-200.19 1268.77,-204.74 1273.7,-209.71"/>
</a>
</g>
</g>
<!-- Node3 -->
<g id="Node000003" class="node">
<title>Node3</title>
<g id="a_Node000003"><a xlink:href="../../d8/d40/_grid___computations_8cpp_ad69c3f36bda9ae85def0da9c19653629.html#ad69c3f36bda9ae85def0da9c19653629" target="_top" xlink:title=" ">
<polygon fill="white" stroke="#666666" points="1002.62,-264.87 921.38,-264.87 921.38,-245.62 1002.62,-245.62 1002.62,-264.87"/>
<text text-anchor="middle" x="962" y="-251.37" font-family="Helvetica,sans-Serif" font-size="10.00">Construct_Cell</text>
</a>
</g>
</g>
<!-- Node1&#45;&gt;Node3 -->
<g id="edge2_Node000001_Node000003" class="edge">
<title>Node1&#45;&gt;Node3</title>
<g id="a_edge2_Node000001_Node000003"><a xlink:title=" ">
<path fill="none" stroke="#63b8ff" d="M1260.27,-204.39C1244.41,-212.14 1224.08,-221.02 1205,-226.24 1135.62,-245.25 1051.67,-251.8 1003.09,-254.06"/>
<polygon fill="#63b8ff" stroke="#63b8ff" points="1261.76,-207.57 1269.12,-199.95 1258.61,-201.31 1261.76,-207.57"/>
</a>
</g>
</g>
<!-- Node4 -->
<g id="Node000004" class="node">
<title>Node4</title>
<g id="a_Node000004"><a xlink:href="../../d8/d40/_grid___computations_8cpp_a775c5c8091a251ccd3893d4d726a7a79.html#a775c5c8091a251ccd3893d4d726a7a79" target="_top" xlink:title=" ">
<polygon fill="white" stroke="#666666" points="1179.12,-198.87 1093.38,-198.87 1093.38,-179.62 1179.12,-179.62 1179.12,-198.87"/>
<text text-anchor="middle" x="1136.25" y="-185.37" font-family="Helvetica,sans-Serif" font-size="10.00">Construct_Face</text>
</a>
</g>
</g>
<!-- Node1&#45;&gt;Node4 -->
<g id="edge3_Node000001_Node000004" class="edge">
<title>Node1&#45;&gt;Node4</title>
<g id="a_edge3_Node000001_Node000004"><a xlink:title=" ">
<path fill="none" stroke="#63b8ff" d="M1229.56,-189.24C1212.85,-189.24 1195.03,-189.24 1179.54,-189.24"/>
<polygon fill="#63b8ff" stroke="#63b8ff" points="1229.39,-192.74 1239.39,-189.24 1229.39,-185.74 1229.39,-192.74"/>
</a>
</g>
</g>
<!-- Node10 -->
<g id="Node000010" class="node">
<title>Node10</title>
<g id="a_Node000010"><a xlink:href="../../d8/d40/_grid___computations_8cpp_a614d9bfab5b0ee048b9e08a296757c42.html#a614d9bfab5b0ee048b9e08a296757c42" target="_top" xlink:title=" ">
<polygon fill="white" stroke="#666666" points="1205,-125.87 1067.5,-125.87 1067.5,-106.62 1205,-106.62 1205,-125.87"/>
<text text-anchor="middle" x="1136.25" y="-112.37" font-family="Helvetica,sans-Serif" font-size="10.00">Sort_Points_AntiClockWise</text>
</a>
</g>
</g>
<!-- Node1&#45;&gt;Node10 -->
<g id="edge11_Node000001_Node000010" class="edge">
<title>Node1&#45;&gt;Node10</title>
<g id="a_edge11_Node000001_Node000010"><a xlink:title=" ">
<path fill="none" stroke="#63b8ff" d="M1257.87,-174.32C1228.14,-160 1184.08,-138.79 1158.25,-126.36"/>
<polygon fill="#63b8ff" stroke="#63b8ff" points="1256.22,-177.41 1266.75,-178.59 1259.25,-171.1 1256.22,-177.41"/>
</a>
</g>
</g>
<!-- Node22 -->
<g id="Node000022" class="node">
<title>Node22</title>
<g id="a_Node000022"><a xlink:href="../../d8/d40/_grid___computations_8cpp_af32bff521610f15eb01e76a3d7072011.html#af32bff521610f15eb01e76a3d7072011" target="_top" xlink:title=" ">
<polygon fill="white" stroke="#666666" points="1205,-88.87 1067.5,-88.87 1067.5,-69.62 1205,-69.62 1205,-88.87"/>
<text text-anchor="middle" x="1136.25" y="-75.37" font-family="Helvetica,sans-Serif" font-size="10.00">Sort_Points_AntiClockWise</text>
</a>
</g>
</g>
<!-- Node1&#45;&gt;Node22 -->
<g id="edge26_Node000001_Node000022" class="edge">
<title>Node1&#45;&gt;Node22</title>
<g id="a_edge26_Node000001_Node000022"><a xlink:title=" ">
<path fill="none" stroke="#63b8ff" d="M1276.2,-169.69C1261.55,-148.66 1235.5,-115.76 1205,-97.24 1199.8,-94.09 1194.04,-91.48 1188.15,-89.32"/>
<polygon fill="#63b8ff" stroke="#63b8ff" points="1273.28,-171.62 1281.77,-177.95 1279.08,-167.7 1273.28,-171.62"/>
</a>
</g>
</g>
<!-- Node4&#45;&gt;Node3 -->
<g id="edge4_Node000004_Node000003" class="edge">
<title>Node4&#45;&gt;Node3</title>
<g id="a_edge4_Node000004_Node000003"><a xlink:title=" ">
<path fill="none" stroke="#63b8ff" d="M1105.94,-204.49C1085.48,-214.72 1057.3,-227.97 1031.5,-237.24 1022.36,-240.53 1012.34,-243.5 1002.85,-246.04"/>
<polygon fill="#63b8ff" stroke="#63b8ff" points="1107.48,-207.64 1114.82,-200 1104.32,-201.39 1107.48,-207.64"/>
</a>
</g>
</g>
<!-- Node4&#45;&gt;Node4 -->
<g id="edge10_Node000004_Node000004" class="edge">
<title>Node4&#45;&gt;Node4</title>
<g id="a_edge10_Node000004_Node000004"><a xlink:title=" ">
<path fill="none" stroke="#63b8ff" d="M1163.8,-209.94C1160.62,-213.99 1151.44,-216.87 1136.25,-216.87 1109.25,-216.87 1101.23,-207.76 1112.2,-199.16"/>
<polygon fill="#63b8ff" stroke="#63b8ff" points="1167.18,-209.03 1160.77,-200.6 1160.52,-211.19 1167.18,-209.03"/>
</a>
</g>
</g>
<!-- Node5 -->
<g id="Node000005" class="node">
<title>Node5</title>
<g id="a_Node000005"><a xlink:href="../../d8/d40/_grid___computations_8cpp_a39196f5ea45036c9f3660cffe33ee491.html#a39196f5ea45036c9f3660cffe33ee491" target="_top" xlink:title=" ">
<polygon fill="white" stroke="#666666" points="1002.62,-227.87 921.38,-227.87 921.38,-208.62 1002.62,-208.62 1002.62,-227.87"/>
<text text-anchor="middle" x="962" y="-214.37" font-family="Helvetica,sans-Serif" font-size="10.00">Construct_Cell</text>
</a>
</g>
</g>
<!-- Node4&#45;&gt;Node5 -->
<g id="edge5_Node000004_Node000005" class="edge">
<title>Node4&#45;&gt;Node5</title>
<g id="a_edge5_Node000004_Node000005"><a xlink:title=" ">
<path fill="none" stroke="#63b8ff" d="M1081.77,-198.25C1056.3,-202.54 1026.37,-207.58 1002.93,-211.52"/>
<polygon fill="#63b8ff" stroke="#63b8ff" points="1082.34,-201.7 1091.62,-196.59 1081.18,-194.8 1082.34,-201.7"/>
</a>
</g>
</g>
<!-- Node6 -->
<g id="Node000006" class="node">
<title>Node6</title>
<g id="a_Node000006"><a xlink:href="../../df/daf/_co___volume___grid___computations_8cpp_a097cceef075e862683dd9f6e95d091d4.html#a097cceef075e862683dd9f6e95d091d4" target="_top" xlink:title=" ">
<polygon fill="white" stroke="#666666" points="532,-178.87 411.75,-178.87 411.75,-159.62 532,-159.62 532,-178.87"/>
<text text-anchor="middle" x="471.88" y="-165.37" font-family="Helvetica,sans-Serif" font-size="10.00">Construct_Co_Volumes</text>
</a>
</g>
</g>
<!-- Node4&#45;&gt;Node6 -->
<g id="edge6_Node000004_Node000006" class="edge">
<title>Node4&#45;&gt;Node6</title>
<g id="a_edge6_Node000004_Node000006"><a xlink:title=" ">
<path fill="none" stroke="#63b8ff" d="M1081.78,-187.63C959.42,-183.94 659.76,-174.89 532.06,-171.03"/>
<polygon fill="#63b8ff" stroke="#63b8ff" points="1081.45,-191.12 1091.55,-187.93 1081.66,-184.12 1081.45,-191.12"/>
</a>
</g>
</g>
<!-- Node7 -->
<g id="Node000007" class="node">
<title>Node7</title>
<g id="a_Node000007"><a xlink:href="../../d8/d40/_grid___computations_8cpp_a5214aea020c856108980e45d45cbc89b.html#a5214aea020c856108980e45d45cbc89b" target="_top" xlink:title=" ">
<polygon fill="white" stroke="#666666" points="344.25,-167.87 278,-167.87 278,-148.62 344.25,-148.62 344.25,-167.87"/>
<text text-anchor="middle" x="311.12" y="-154.37" font-family="Helvetica,sans-Serif" font-size="10.00">Form_Cells</text>
</a>
</g>
</g>
<!-- Node6&#45;&gt;Node7 -->
<g id="edge7_Node000006_Node000007" class="edge">
<title>Node6&#45;&gt;Node7</title>
<g id="a_edge7_Node000006_Node000007"><a xlink:title=" ">
<path fill="none" stroke="#63b8ff" d="M399.99,-164.33C380.56,-162.99 360.45,-161.59 344.38,-160.48"/>
<polygon fill="#63b8ff" stroke="#63b8ff" points="399.58,-167.81 409.8,-165.01 400.07,-160.83 399.58,-167.81"/>
</a>
</g>
</g>
<!-- Node8 -->
<g id="Node000008" class="node">
<title>Node8</title>
<g id="a_Node000008"><a xlink:href="../../d8/d40/_grid___computations_8cpp_adbee522543afe92b4b1cd9b4e96a6c3f.html#adbee522543afe92b4b1cd9b4e96a6c3f" target="_top" xlink:title=" ">
<polygon fill="white" stroke="#666666" points="186.88,-167.87 96.62,-167.87 96.62,-148.62 186.88,-148.62 186.88,-167.87"/>
<text text-anchor="middle" x="141.75" y="-154.37" font-family="Helvetica,sans-Serif" font-size="10.00">initializeGridFiles</text>
</a>
</g>
</g>
<!-- Node7&#45;&gt;Node8 -->
<g id="edge8_Node000007_Node000008" class="edge">
<title>Node7&#45;&gt;Node8</title>
<g id="a_edge8_Node000007_Node000008"><a xlink:title=" ">
<path fill="none" stroke="#63b8ff" d="M266.42,-158.24C242.04,-158.24 211.76,-158.24 187.26,-158.24"/>
<polygon fill="#63b8ff" stroke="#63b8ff" points="266.34,-161.74 276.34,-158.24 266.34,-154.74 266.34,-161.74"/>
</a>
</g>
</g>
<!-- Node9 -->
<g id="Node000009" class="node">
<title>Node9</title>
<g id="a_Node000009"><a xlink:href="../../d5/d12/_main_8cpp_a0ddf1224851353fc92bfbff6f499fa97.html#a0ddf1224851353fc92bfbff6f499fa97" target="_top" xlink:title=" ">
<polygon fill="white" stroke="#666666" points="37,-167.87 0,-167.87 0,-148.62 37,-148.62 37,-167.87"/>
<text text-anchor="middle" x="18.5" y="-154.37" font-family="Helvetica,sans-Serif" font-size="10.00">main</text>
</a>
</g>
</g>
<!-- Node8&#45;&gt;Node9 -->
<g id="edge9_Node000008_Node000009" class="edge">
<title>Node8&#45;&gt;Node9</title>
<g id="a_edge9_Node000008_Node000009"><a xlink:title=" ">
<path fill="none" stroke="#63b8ff" d="M85.09,-158.24C67.84,-158.24 50.05,-158.24 37.36,-158.24"/>
<polygon fill="#63b8ff" stroke="#63b8ff" points="84.78,-161.74 94.78,-158.24 84.78,-154.74 84.78,-161.74"/>
</a>
</g>
</g>
<!-- Node11 -->
<g id="Node000011" class="node">
<title>Node11</title>
<g id="a_Node000011"><a xlink:href="../../d3/de1/class_grid_performance_benchmark_ac103c54d6f481930ad560f597b7f3bce.html#ac103c54d6f481930ad560f597b7f3bce" target="_top" xlink:title=" ">
<polygon fill="white" stroke="#666666" points="1031.5,-152.49 892.5,-152.49 892.5,-121.99 1031.5,-121.99 1031.5,-152.49"/>
<text text-anchor="start" x="900.5" y="-138.99" font-family="Helvetica,sans-Serif" font-size="10.00">GridPerformanceBenchmark</text>
<text text-anchor="middle" x="962" y="-127.74" font-family="Helvetica,sans-Serif" font-size="10.00">::benchmark_point_sorting</text>
</a>
</g>
</g>
<!-- Node10&#45;&gt;Node11 -->
<g id="edge12_Node000010_Node000011" class="edge">
<title>Node10&#45;&gt;Node11</title>
<g id="a_edge12_Node000010_Node000011"><a xlink:title=" ">
<path fill="none" stroke="#63b8ff" d="M1055.95,-125.91C1047.95,-126.89 1039.87,-127.87 1031.99,-128.83"/>
<polygon fill="#63b8ff" stroke="#63b8ff" points="1056.17,-129.41 1065.67,-124.73 1055.32,-122.46 1056.17,-129.41"/>
</a>
</g>
</g>
<!-- Node14 -->
<g id="Node000014" class="node">
<title>Node14</title>
<g id="a_Node000014"><a xlink:href="../../d0/ded/_read___gmsh___file_8cpp_aa3cbdec71b7c56f603b53acd3ce5a070.html#aa3cbdec71b7c56f603b53acd3ce5a070" target="_top" xlink:title=" ">
<polygon fill="white" stroke="#666666" points="1000,-103.87 924,-103.87 924,-84.62 1000,-84.62 1000,-103.87"/>
<text text-anchor="middle" x="962" y="-90.37" font-family="Helvetica,sans-Serif" font-size="10.00">Identify_Cells</text>
</a>
</g>
</g>
<!-- Node10&#45;&gt;Node14 -->
<g id="edge15_Node000010_Node000014" class="edge">
<title>Node10&#45;&gt;Node14</title>
<g id="a_edge15_Node000010_Node000014"><a xlink:title=" ">
<path fill="none" stroke="#63b8ff" d="M1055.86,-106.1C1036.5,-103.63 1016.69,-101.1 1000.37,-99.02"/>
<polygon fill="#63b8ff" stroke="#63b8ff" points="1055.31,-109.56 1065.67,-107.36 1056.19,-102.62 1055.31,-109.56"/>
</a>
</g>
</g>
<!-- Node20 -->
<g id="Node000020" class="node">
<title>Node20</title>
<g id="a_Node000020"><a xlink:href="../../df/db3/_mesh___loader_8cpp_a94f04e68ff03c16a3c553d5670e9b1ab.html#a94f04e68ff03c16a3c553d5670e9b1ab" target="_top" xlink:title=" ">
<polygon fill="white" stroke="#666666" points="834.38,-65.87 739.62,-65.87 739.62,-46.62 834.38,-46.62 834.38,-65.87"/>
<text text-anchor="middle" x="787" y="-52.37" font-family="Helvetica,sans-Serif" font-size="10.00">Read_CSV_Mesh</text>
</a>
</g>
</g>
<!-- Node10&#45;&gt;Node20 -->
<g id="edge22_Node000010_Node000020" class="edge">
<title>Node10&#45;&gt;Node20</title>
<g id="a_edge22_Node000010_Node000020"><a xlink:title=" ">
<path fill="none" stroke="#63b8ff" d="M1078.59,-102.61C1074.79,-101.27 1071.06,-99.81 1067.5,-98.24 1050.12,-90.61 1049.5,-81.27 1031.5,-75.24 965.76,-53.23 884.67,-51.58 834.65,-53.27"/>
<polygon fill="#63b8ff" stroke="#63b8ff" points="1077.37,-105.9 1087.96,-105.66 1079.53,-99.24 1077.37,-105.9"/>
</a>
</g>
</g>
<!-- Node21 -->
<g id="Node000021" class="node">
<title>Node21</title>
<g id="a_Node000021"><a xlink:href="../../d8/d40/_grid___computations_8cpp_a663d4b3ae06e638c2f2e82ad437e831e.html#a663d4b3ae06e638c2f2e82ad437e831e" target="_top" xlink:title="Reads the input grid file and constructs physical cells, evaluates face areas, normals,...">
<polygon fill="white" stroke="#666666" points="656,-27.87 593.5,-27.87 593.5,-8.62 656,-8.62 656,-27.87"/>
<text text-anchor="middle" x="624.75" y="-14.37" font-family="Helvetica,sans-Serif" font-size="10.00">Read_Grid</text>
</a>
</g>
</g>
<!-- Node10&#45;&gt;Node21 -->
<g id="edge24_Node000010_Node000021" class="edge">
<title>Node10&#45;&gt;Node21</title>
<g id="a_edge24_Node000010_Node000021"><a xlink:title=" ">
<path fill="none" stroke="#63b8ff" d="M1072.44,-101.31C1070.74,-100.35 1069.09,-99.33 1067.5,-98.24 1045.17,-83.02 1055.13,-62.36 1031.5,-49.24 907.19,19.75 727.57,-0.57 656.43,-12.42"/>
<polygon fill="#63b8ff" stroke="#63b8ff" points="1070.71,-104.36 1081.25,-105.5 1073.72,-98.04 1070.71,-104.36"/>
</a>
</g>
</g>
<!-- Node12 -->
<g id="Node000012" class="node">
<title>Node12</title>
<g id="a_Node000012"><a xlink:href="../../d3/de1/class_grid_performance_benchmark_a6a31f6642222905776b59d5fc6ec1364.html#a6a31f6642222905776b59d5fc6ec1364" target="_top" xlink:title=" ">
<polygon fill="white" stroke="#666666" points="856.5,-152.49 717.5,-152.49 717.5,-121.99 856.5,-121.99 856.5,-152.49"/>
<text text-anchor="start" x="725.5" y="-138.99" font-family="Helvetica,sans-Serif" font-size="10.00">GridPerformanceBenchmark</text>
<text text-anchor="middle" x="787" y="-127.74" font-family="Helvetica,sans-Serif" font-size="10.00">::run_complete_benchmark</text>
</a>
</g>
</g>
<!-- Node11&#45;&gt;Node12 -->
<g id="edge13_Node000011_Node000012" class="edge">
<title>Node11&#45;&gt;Node12</title>
<g id="a_edge13_Node000011_Node000012"><a xlink:title=" ">
<path fill="none" stroke="#63b8ff" d="M880.88,-137.24C872.88,-137.24 864.8,-137.24 856.92,-137.24"/>
<polygon fill="#63b8ff" stroke="#63b8ff" points="880.62,-140.74 890.62,-137.24 880.62,-133.74 880.62,-140.74"/>
</a>
</g>
</g>
<!-- Node13 -->
<g id="Node000013" class="node">
<title>Node13</title>
<g id="a_Node000013"><a xlink:href="../../d1/db0/_grid___performance___benchmark_8cpp_a8eaebb5b60c50f0606cb4719e236b1bf.html#a8eaebb5b60c50f0606cb4719e236b1bf" target="_top" xlink:title=" ">
<polygon fill="white" stroke="#666666" points="679.62,-152.49 569.88,-152.49 569.88,-121.99 679.62,-121.99 679.62,-152.49"/>
<text text-anchor="start" x="577.88" y="-138.99" font-family="Helvetica,sans-Serif" font-size="10.00">run_grid_performance</text>
<text text-anchor="middle" x="624.75" y="-127.74" font-family="Helvetica,sans-Serif" font-size="10.00">_benchmark</text>
</a>
</g>
</g>
<!-- Node12&#45;&gt;Node13 -->
<g id="edge14_Node000012_Node000013" class="edge">
<title>Node12&#45;&gt;Node13</title>
<g id="a_edge14_Node000012_Node000013"><a xlink:title=" ">
<path fill="none" stroke="#63b8ff" d="M705.72,-137.24C697.03,-137.24 688.35,-137.24 680.07,-137.24"/>
<polygon fill="#63b8ff" stroke="#63b8ff" points="705.6,-140.74 715.6,-137.24 705.6,-133.74 705.6,-140.74"/>
</a>
</g>
</g>
<!-- Node15 -->
<g id="Node000015" class="node">
<title>Node15</title>
<g id="a_Node000015"><a xlink:href="../../d0/ded/_read___gmsh___file_8cpp_af5022e986434a24c3f27a650cf4aeb76.html#af5022e986434a24c3f27a650cf4aeb76" target="_top" xlink:title=" ">
<polygon fill="white" stroke="#666666" points="830.62,-103.87 743.38,-103.87 743.38,-84.62 830.62,-84.62 830.62,-103.87"/>
<text text-anchor="middle" x="787" y="-90.37" font-family="Helvetica,sans-Serif" font-size="10.00">Read_VTK_Grid</text>
</a>
</g>
</g>
<!-- Node14&#45;&gt;Node15 -->
<g id="edge16_Node000014_Node000015" class="edge">
<title>Node14&#45;&gt;Node15</title>
<g id="a_edge16_Node000014_Node000015"><a xlink:title=" ">
<path fill="none" stroke="#63b8ff" d="M912.53,-94.24C886.86,-94.24 855.62,-94.24 830.84,-94.24"/>
<polygon fill="#63b8ff" stroke="#63b8ff" points="912.37,-97.74 922.37,-94.24 912.37,-90.74 912.37,-97.74"/>
</a>
</g>
</g>
<!-- Node16 -->
<g id="Node000016" class="node">
<title>Node16</title>
<g id="a_Node000016"><a xlink:href="../../d0/ded/_read___gmsh___file_8cpp_abedd70744a46f756e74b49905be889d9.html#abedd70744a46f756e74b49905be889d9" target="_top" xlink:title=" ">
<polygon fill="white" stroke="#666666" points="681.5,-103.87 568,-103.87 568,-84.62 681.5,-84.62 681.5,-103.87"/>
<text text-anchor="middle" x="624.75" y="-90.37" font-family="Helvetica,sans-Serif" font-size="10.00">Read_GmshVTK_Grid</text>
</a>
</g>
</g>
<!-- Node15&#45;&gt;Node16 -->
<g id="edge17_Node000015_Node000016" class="edge">
<title>Node15&#45;&gt;Node16</title>
<g id="a_edge17_Node000015_Node000016"><a xlink:title=" ">
<path fill="none" stroke="#63b8ff" d="M731.67,-94.24C715.6,-94.24 697.97,-94.24 681.79,-94.24"/>
<polygon fill="#63b8ff" stroke="#63b8ff" points="731.54,-97.74 741.54,-94.24 731.54,-90.74 731.54,-97.74"/>
</a>
</g>
</g>
<!-- Node17 -->
<g id="Node000017" class="node">
<title>Node17</title>
<g id="a_Node000017"><a xlink:href="../../df/db3/_mesh___loader_8cpp_a4ecb41d6b6dda1279d140f58dcf4d3fa.html#a4ecb41d6b6dda1279d140f58dcf4d3fa" target="_top" xlink:title=" ">
<polygon fill="white" stroke="#666666" points="505,-84.87 438.75,-84.87 438.75,-65.62 505,-65.62 505,-84.87"/>
<text text-anchor="middle" x="471.88" y="-71.37" font-family="Helvetica,sans-Serif" font-size="10.00">Load_Mesh</text>
</a>
</g>
</g>
<!-- Node16&#45;&gt;Node17 -->
<g id="edge18_Node000016_Node000017" class="edge">
<title>Node16&#45;&gt;Node17</title>
<g id="a_edge18_Node000016_Node000017"><a xlink:title=" ">
<path fill="none" stroke="#63b8ff" d="M556.37,-85.76C538.67,-83.53 520.37,-81.23 505.43,-79.34"/>
<polygon fill="#63b8ff" stroke="#63b8ff" points="555.71,-89.2 566.07,-86.98 556.58,-82.26 555.71,-89.2"/>
</a>
</g>
</g>
<!-- Node17&#45;&gt;Node7 -->
<g id="edge21_Node000017_Node000007" class="edge">
<title>Node17&#45;&gt;Node7</title>
<g id="a_edge21_Node000017_Node000007"><a xlink:title=" ">
<path fill="none" stroke="#63b8ff" d="M441.6,-90.55C409.46,-107.35 358.79,-133.84 331.34,-148.2"/>
<polygon fill="#63b8ff" stroke="#63b8ff" points="443.14,-93.69 450.38,-85.96 439.9,-87.49 443.14,-93.69"/>
</a>
</g>
</g>
<!-- Node18 -->
<g id="Node000018" class="node">
<title>Node18</title>
<g id="a_Node000018"><a xlink:href="../../dc/de7/_grid___optimization___integration___guide_8cpp_ae6a5c597ffb845be2502d0afc0e1a695.html#ae6a5c597ffb845be2502d0afc0e1a695" target="_top" xlink:title=" ">
<polygon fill="white" stroke="#666666" points="375.75,-90.49 246.5,-90.49 246.5,-59.99 375.75,-59.99 375.75,-90.49"/>
<text text-anchor="start" x="254.5" y="-76.99" font-family="Helvetica,sans-Serif" font-size="10.00">demonstrate_performance</text>
<text text-anchor="middle" x="311.12" y="-65.74" font-family="Helvetica,sans-Serif" font-size="10.00">_aware_integration</text>
</a>
</g>
</g>
<!-- Node17&#45;&gt;Node18 -->
<g id="edge19_Node000017_Node000018" class="edge">
<title>Node17&#45;&gt;Node18</title>
<g id="a_edge19_Node000017_Node000018"><a xlink:title=" ">
<path fill="none" stroke="#63b8ff" d="M426.86,-75.24C411.15,-75.24 393.11,-75.24 376.06,-75.24"/>
<polygon fill="#63b8ff" stroke="#63b8ff" points="426.85,-78.74 436.85,-75.24 426.85,-71.74 426.85,-78.74"/>
</a>
</g>
</g>
<!-- Node19 -->
<g id="Node000019" class="node">
<title>Node19</title>
<g id="a_Node000019"><a xlink:href="../../dc/de7/_grid___optimization___integration___guide_8cpp_ad598130e8e89b3050bb9bd71f0ab1b25.html#ad598130e8e89b3050bb9bd71f0ab1b25" target="_top" xlink:title=" ">
<polygon fill="white" stroke="#666666" points="210.5,-84.87 73,-84.87 73,-65.62 210.5,-65.62 210.5,-84.87"/>
<text text-anchor="middle" x="141.75" y="-71.37" font-family="Helvetica,sans-Serif" font-size="10.00">integrate_grid_optimizations</text>
</a>
</g>
</g>
<!-- Node18&#45;&gt;Node19 -->
<g id="edge20_Node000018_Node000019" class="edge">
<title>Node18&#45;&gt;Node19</title>
<g id="a_edge20_Node000018_Node000019"><a xlink:title=" ">
<path fill="none" stroke="#63b8ff" d="M235.05,-75.24C226.97,-75.24 218.78,-75.24 210.78,-75.24"/>
<polygon fill="#63b8ff" stroke="#63b8ff" points="234.86,-78.74 244.86,-75.24 234.86,-71.74 234.86,-78.74"/>
</a>
</g>
</g>
<!-- Node20&#45;&gt;Node17 -->
<g id="edge23_Node000020_Node000017" class="edge">
<title>Node20&#45;&gt;Node17</title>
<g id="a_edge23_Node000020_Node000017"><a xlink:title=" ">
<path fill="none" stroke="#63b8ff" d="M728.09,-59.76C662.49,-63.74 557.9,-70.09 505.31,-73.28"/>
<polygon fill="#63b8ff" stroke="#63b8ff" points="728.18,-63.26 737.95,-59.16 727.76,-56.27 728.18,-63.26"/>
</a>
</g>
</g>
<!-- Node21&#45;&gt;Node17 -->
<g id="edge25_Node000021_Node000017" class="edge">
<title>Node21&#45;&gt;Node17</title>
<g id="a_edge25_Node000021_Node000017"><a xlink:title=" ">
<path fill="none" stroke="#63b8ff" d="M586.52,-32.31C559.52,-42.51 523.65,-56.06 499.49,-65.19"/>
<polygon fill="#63b8ff" stroke="#63b8ff" points="587.59,-35.65 595.71,-28.84 585.12,-29.1 587.59,-35.65"/>
</a>
</g>
</g>
</g>
</svg>
