<?xml version="1.0" encoding="UTF-8" standalone="no"?>
<!DOCTYPE svg PUBLIC "-//W3C//DTD SVG 1.1//EN"
 "http://www.w3.org/Graphics/SVG/1.1/DTD/svg11.dtd">
<!-- Generated by graphviz version 12.2.1 (20241206.2353)
 -->
<!-- Title: Construct_Face Pages: 1 -->
<svg width="740pt" height="768pt"
 viewBox="0.00 0.00 740.00 767.69" xmlns="http://www.w3.org/2000/svg" xmlns:xlink="http://www.w3.org/1999/xlink">
<g id="graph0" class="graph" transform="scale(1 1) rotate(0) translate(4 763.69)">
<title>Construct_Face</title>
<!-- Node1 -->
<g id="Node000001" class="node">
<title>Node1</title>
<g id="a_Node000001"><a xlink:title=" ">
<polygon fill="#999999" stroke="#666666" points="732,-59.69 646.25,-59.69 646.25,-40.44 732,-40.44 732,-59.69"/>
<text text-anchor="middle" x="689.12" y="-46.19" font-family="Helvetica,sans-Serif" font-size="10.00">Construct_Face</text>
</a>
</g>
</g>
<!-- Node2 -->
<g id="Node000002" class="node">
<title>Node2</title>
<g id="a_Node000002"><a xlink:href="../../df/daf/_co___volume___grid___computations_8cpp_a097cceef075e862683dd9f6e95d091d4.html#a097cceef075e862683dd9f6e95d091d4" target="_top" xlink:title=" ">
<polygon fill="white" stroke="#666666" points="610.25,-78.69 490,-78.69 490,-59.44 610.25,-59.44 610.25,-78.69"/>
<text text-anchor="middle" x="550.12" y="-65.19" font-family="Helvetica,sans-Serif" font-size="10.00">Construct_Co_Volumes</text>
</a>
</g>
</g>
<!-- Node1&#45;&gt;Node2 -->
<g id="edge1_Node000001_Node000002" class="edge">
<title>Node1&#45;&gt;Node2</title>
<g id="a_edge1_Node000001_Node000002"><a xlink:title=" ">
<path fill="none" stroke="#63b8ff" d="M634.61,-57.49C626.73,-58.58 618.57,-59.71 610.58,-60.82"/>
<polygon fill="#63b8ff" stroke="#63b8ff" points="634.98,-60.97 644.4,-56.13 634.02,-54.04 634.98,-60.97"/>
</a>
</g>
</g>
<!-- Node5 -->
<g id="Node000005" class="node">
<title>Node5</title>
<g id="a_Node000005"><a xlink:href="../../dd/dbf/_euler___python___wrapper_8cpp_ac5ccb50c3be270f798e054dd36987442.html#ac5ccb50c3be270f798e054dd36987442" target="_top" xlink:title=" ">
<polygon fill="white" stroke="#666666" points="185.75,-375.69 73,-375.69 73,-356.44 185.75,-356.44 185.75,-375.69"/>
<text text-anchor="middle" x="129.38" y="-362.19" font-family="Helvetica,sans-Serif" font-size="10.00">PYBIND11_MODULE</text>
</a>
</g>
</g>
<!-- Node1&#45;&gt;Node5 -->
<g id="edge40_Node000001_Node000005" class="edge">
<title>Node1&#45;&gt;Node5</title>
<g id="a_edge40_Node000001_Node000005"><a xlink:title=" ">
<path fill="none" stroke="#63b8ff" d="M648.06,-36.57C560.42,-9.78 349.32,39.44 221.75,-59.07 172.01,-97.47 138.88,-307.33 131.8,-355.99"/>
<polygon fill="#63b8ff" stroke="#63b8ff" points="646.83,-39.85 657.42,-39.5 648.92,-33.17 646.83,-39.85"/>
</a>
</g>
</g>
<!-- Node3 -->
<g id="Node000003" class="node">
<title>Node3</title>
<g id="a_Node000003"><a xlink:href="../../d8/d40/_grid___computations_8cpp_a831dcf7cbf36ddf425ce0753495ba3c6.html#a831dcf7cbf36ddf425ce0753495ba3c6" target="_top" xlink:title=" ">
<polygon fill="white" stroke="#666666" points="454,-412.69 387.75,-412.69 387.75,-393.44 454,-393.44 454,-412.69"/>
<text text-anchor="middle" x="420.88" y="-399.19" font-family="Helvetica,sans-Serif" font-size="10.00">Form_Cells</text>
</a>
</g>
</g>
<!-- Node2&#45;&gt;Node3 -->
<g id="edge2_Node000002_Node000003" class="edge">
<title>Node2&#45;&gt;Node3</title>
<g id="a_edge2_Node000002_Node000003"><a xlink:title=" ">
<path fill="none" stroke="#63b8ff" d="M541.24,-89.75C516.86,-153.75 443.24,-347 425.67,-393.11"/>
<polygon fill="#63b8ff" stroke="#63b8ff" points="544.49,-91.07 544.78,-80.48 537.95,-88.58 544.49,-91.07"/>
</a>
</g>
</g>
<!-- Node2&#45;&gt;Node5 -->
<g id="edge39_Node000002_Node000005" class="edge">
<title>Node2&#45;&gt;Node5</title>
<g id="a_edge39_Node000002_Node000005"><a xlink:title=" ">
<path fill="none" stroke="#63b8ff" d="M478.48,-64.19C394.4,-59.9 260.47,-58.29 221.75,-88.07 132.55,-156.67 129.3,-314.68 130.05,-356.02"/>
<polygon fill="#63b8ff" stroke="#63b8ff" points="478.06,-67.68 488.23,-64.72 478.44,-60.69 478.06,-67.68"/>
</a>
</g>
</g>
<!-- Node4 -->
<g id="Node000004" class="node">
<title>Node4</title>
<g id="a_Node000004"><a xlink:href="../../d0/d3f/_channel___flow_8cpp_a986df1d2277d1fc7e22408557f29c135.html#a986df1d2277d1fc7e22408557f29c135" target="_top" xlink:title=" ">
<polygon fill="white" stroke="#666666" points="325.88,-722.69 247.62,-722.69 247.62,-703.44 325.88,-703.44 325.88,-722.69"/>
<text text-anchor="middle" x="286.75" y="-709.19" font-family="Helvetica,sans-Serif" font-size="10.00">Channel_Flow</text>
</a>
</g>
</g>
<!-- Node3&#45;&gt;Node4 -->
<g id="edge3_Node000003_Node000004" class="edge">
<title>Node3&#45;&gt;Node4</title>
<g id="a_edge3_Node000003_Node000004"><a xlink:title=" ">
<path fill="none" stroke="#63b8ff" d="M417.41,-424.27C410.15,-483.51 387.06,-649.04 351.75,-689.07 345.08,-696.63 335.78,-701.82 326.34,-705.37"/>
<polygon fill="#63b8ff" stroke="#63b8ff" points="420.86,-424.89 418.58,-414.54 413.91,-424.06 420.86,-424.89"/>
</a>
</g>
</g>
<!-- Node3&#45;&gt;Node5 -->
<g id="edge20_Node000003_Node000005" class="edge">
<title>Node3&#45;&gt;Node5</title>
<g id="a_edge20_Node000003_Node000005"><a xlink:title=" ">
<path fill="none" stroke="#63b8ff" d="M417.44,-424.27C410.57,-479.85 389.1,-627.45 351.75,-656.07 305.89,-691.21 268.34,-690.24 221.75,-656.07 173.76,-620.87 139.41,-422.67 131.91,-375.94"/>
<polygon fill="#63b8ff" stroke="#63b8ff" points="420.89,-424.91 418.6,-414.56 413.94,-424.08 420.89,-424.91"/>
</a>
</g>
</g>
<!-- Node6 -->
<g id="Node000006" class="node">
<title>Node6</title>
<g id="a_Node000006"><a xlink:href="../../d8/d62/_ellinga___test_case_8cpp_ae7167da7e4a13ec20ea77342a492b6ee.html#ae7167da7e4a13ec20ea77342a492b6ee" target="_top" xlink:title=" ">
<polygon fill="white" stroke="#666666" points="334.12,-646.69 239.38,-646.69 239.38,-627.44 334.12,-627.44 334.12,-646.69"/>
<text text-anchor="middle" x="286.75" y="-633.19" font-family="Helvetica,sans-Serif" font-size="10.00">Ellinga_Carbuncle</text>
</a>
</g>
</g>
<!-- Node3&#45;&gt;Node6 -->
<g id="edge5_Node000003_Node000006" class="edge">
<title>Node3&#45;&gt;Node6</title>
<g id="a_edge5_Node000003_Node000006"><a xlink:title=" ">
<path fill="none" stroke="#63b8ff" d="M419.42,-424.27C417.32,-467.08 406.44,-564.37 351.75,-618.07 346.87,-622.86 340.84,-626.45 334.45,-629.14"/>
<polygon fill="#63b8ff" stroke="#63b8ff" points="422.91,-424.47 419.77,-414.35 415.92,-424.22 422.91,-424.47"/>
</a>
</g>
</g>
<!-- Node7 -->
<g id="Node000007" class="node">
<title>Node7</title>
<g id="a_Node000007"><a xlink:href="../../de/d81/_flat___plate___boundary___layer_8cpp_a787b29de4053181d716a19e7c4c9b705.html#a787b29de4053181d716a19e7c4c9b705" target="_top" xlink:title=" ">
<polygon fill="white" stroke="#666666" points="340.12,-609.32 233.38,-609.32 233.38,-578.82 340.12,-578.82 340.12,-609.32"/>
<text text-anchor="start" x="241.38" y="-595.82" font-family="Helvetica,sans-Serif" font-size="10.00">Flat_Plate_Boundary</text>
<text text-anchor="middle" x="286.75" y="-584.57" font-family="Helvetica,sans-Serif" font-size="10.00">_Layer</text>
</a>
</g>
</g>
<!-- Node3&#45;&gt;Node7 -->
<g id="edge7_Node000003_Node000007" class="edge">
<title>Node3&#45;&gt;Node7</title>
<g id="a_edge7_Node000003_Node000007"><a xlink:title=" ">
<path fill="none" stroke="#63b8ff" d="M416.85,-424.01C410.74,-458.94 393.75,-529.25 351.75,-570.07 348.43,-573.29 344.64,-576.09 340.59,-578.52"/>
<polygon fill="#63b8ff" stroke="#63b8ff" points="420.27,-424.79 418.4,-414.36 413.36,-423.68 420.27,-424.79"/>
</a>
</g>
</g>
<!-- Node8 -->
<g id="Node000008" class="node">
<title>Node8</title>
<g id="a_Node000008"><a xlink:href="../../da/d4b/_flow___over___bump_8cpp_abaa8184c0dd8aa3fdc37d585f0a7d0cc.html#abaa8184c0dd8aa3fdc37d585f0a7d0cc" target="_top" xlink:title=" ">
<polygon fill="white" stroke="#666666" points="333.75,-560.69 239.75,-560.69 239.75,-541.44 333.75,-541.44 333.75,-560.69"/>
<text text-anchor="middle" x="286.75" y="-547.19" font-family="Helvetica,sans-Serif" font-size="10.00">Flow_Over_Bump</text>
</a>
</g>
</g>
<!-- Node3&#45;&gt;Node8 -->
<g id="edge9_Node000003_Node000008" class="edge">
<title>Node3&#45;&gt;Node8</title>
<g id="a_edge9_Node000003_Node000008"><a xlink:title=" ">
<path fill="none" stroke="#63b8ff" d="M414.64,-423.72C406.26,-452.52 387.08,-504.43 351.75,-533.07 346.55,-537.28 340.42,-540.51 334.05,-542.99"/>
<polygon fill="#63b8ff" stroke="#63b8ff" points="417.93,-424.96 417.18,-414.39 411.18,-423.12 417.93,-424.96"/>
</a>
</g>
</g>
<!-- Node9 -->
<g id="Node000009" class="node">
<title>Node9</title>
<g id="a_Node000009"><a xlink:href="../../dc/d8c/_forward___facing___step_8cpp_a5f68d17ee33caeda5da8c4270441108c.html#a5f68d17ee33caeda5da8c4270441108c" target="_top" xlink:title=" ">
<polygon fill="white" stroke="#666666" points="342.38,-523.69 231.12,-523.69 231.12,-504.44 342.38,-504.44 342.38,-523.69"/>
<text text-anchor="middle" x="286.75" y="-510.19" font-family="Helvetica,sans-Serif" font-size="10.00">Forward_Facing_Step</text>
</a>
</g>
</g>
<!-- Node3&#45;&gt;Node9 -->
<g id="edge11_Node000003_Node000009" class="edge">
<title>Node3&#45;&gt;Node9</title>
<g id="a_edge11_Node000003_Node000009"><a xlink:title=" ">
<path fill="none" stroke="#63b8ff" d="M410.34,-423.05C399.21,-444.28 378.79,-477.31 351.75,-496.07 347.2,-499.23 342.1,-501.83 336.83,-503.98"/>
<polygon fill="#63b8ff" stroke="#63b8ff" points="413.4,-424.76 414.76,-414.25 407.15,-421.62 413.4,-424.76"/>
</a>
</g>
</g>
<!-- Node10 -->
<g id="Node000010" class="node">
<title>Node10</title>
<g id="a_Node000010"><a xlink:href="../../df/dee/_half___cylinder___test___case_8cpp_ad6cb651752c2dd1cb946428572cfb769.html#ad6cb651752c2dd1cb946428572cfb769" target="_top" xlink:title=" ">
<polygon fill="white" stroke="#666666" points="337.5,-486.69 236,-486.69 236,-467.44 337.5,-467.44 337.5,-486.69"/>
<text text-anchor="middle" x="286.75" y="-473.19" font-family="Helvetica,sans-Serif" font-size="10.00">Half_Cylinder_Flow</text>
</a>
</g>
</g>
<!-- Node3&#45;&gt;Node10 -->
<g id="edge13_Node000003_Node000010" class="edge">
<title>Node3&#45;&gt;Node10</title>
<g id="a_edge13_Node000003_Node000010"><a xlink:title=" ">
<path fill="none" stroke="#63b8ff" d="M402.67,-420.67C389.71,-433.02 370.94,-449.05 351.75,-459.07 345.82,-462.17 339.28,-464.78 332.73,-466.98"/>
<polygon fill="#63b8ff" stroke="#63b8ff" points="404.89,-423.4 409.57,-413.89 399.99,-418.4 404.89,-423.4"/>
</a>
</g>
</g>
<!-- Node11 -->
<g id="Node000011" class="node">
<title>Node11</title>
<g id="a_Node000011"><a xlink:href="../../d3/db8/_initialize___test_case_8cpp_a4debd02bbc1736679fe1145738aba8c3.html#a4debd02bbc1736679fe1145738aba8c3" target="_top" xlink:title=" ">
<polygon fill="white" stroke="#666666" points="336.38,-759.69 237.12,-759.69 237.12,-740.44 336.38,-740.44 336.38,-759.69"/>
<text text-anchor="middle" x="286.75" y="-746.19" font-family="Helvetica,sans-Serif" font-size="10.00">Initialize_TestCase</text>
</a>
</g>
</g>
<!-- Node3&#45;&gt;Node11 -->
<g id="edge15_Node000003_Node000011" class="edge">
<title>Node3&#45;&gt;Node11</title>
<g id="a_edge15_Node000003_Node000011"><a xlink:title=" ">
<path fill="none" stroke="#63b8ff" d="M418.33,-424.12C413.11,-489.39 394.08,-686.67 351.75,-732.07 347.58,-736.54 342.39,-739.94 336.79,-742.5"/>
<polygon fill="#63b8ff" stroke="#63b8ff" points="421.8,-424.66 419.07,-414.42 414.82,-424.12 421.8,-424.66"/>
</a>
</g>
</g>
<!-- Node14 -->
<g id="Node000014" class="node">
<title>Node14</title>
<g id="a_Node000014"><a xlink:href="../../de/dc4/_o_e_d_8cpp_a1404a4711dcead4c50dd9eaa2ab7b7c0.html#a1404a4711dcead4c50dd9eaa2ab7b7c0" target="_top" xlink:title=" ">
<polygon fill="white" stroke="#666666" points="305.62,-449.69 267.88,-449.69 267.88,-430.44 305.62,-430.44 305.62,-449.69"/>
<text text-anchor="middle" x="286.75" y="-436.19" font-family="Helvetica,sans-Serif" font-size="10.00">OED</text>
</a>
</g>
</g>
<!-- Node3&#45;&gt;Node14 -->
<g id="edge18_Node000003_Node000014" class="edge">
<title>Node3&#45;&gt;Node14</title>
<g id="a_edge18_Node000003_Node000014"><a xlink:title=" ">
<path fill="none" stroke="#63b8ff" d="M376.56,-415.2C352.59,-421.91 324.05,-429.9 305.92,-434.98"/>
<polygon fill="#63b8ff" stroke="#63b8ff" points="377.41,-418.59 386.1,-412.53 375.52,-411.85 377.41,-418.59"/>
</a>
</g>
</g>
<!-- Node15 -->
<g id="Node000015" class="node">
<title>Node15</title>
<g id="a_Node000015"><a xlink:href="../../dd/de9/_ramp__15___degree_8cpp_af85931ed4e293dce5c8e4acafecd54b5.html#af85931ed4e293dce5c8e4acafecd54b5" target="_top" xlink:title=" ">
<polygon fill="white" stroke="#666666" points="334.12,-412.69 239.38,-412.69 239.38,-393.44 334.12,-393.44 334.12,-412.69"/>
<text text-anchor="middle" x="286.75" y="-399.19" font-family="Helvetica,sans-Serif" font-size="10.00">Ramp_15_Degree</text>
</a>
</g>
</g>
<!-- Node3&#45;&gt;Node15 -->
<g id="edge21_Node000003_Node000015" class="edge">
<title>Node3&#45;&gt;Node15</title>
<g id="a_edge21_Node000003_Node000015"><a xlink:title=" ">
<path fill="none" stroke="#63b8ff" d="M376.21,-403.07C362.83,-403.07 348.05,-403.07 334.46,-403.07"/>
<polygon fill="#63b8ff" stroke="#63b8ff" points="376.04,-406.57 386.04,-403.07 376.04,-399.57 376.04,-406.57"/>
</a>
</g>
</g>
<!-- Node16 -->
<g id="Node000016" class="node">
<title>Node16</title>
<g id="a_Node000016"><a xlink:href="../../d2/d72/_scram___jet___inlet___test___case_8cpp_a49bbbeed352ab44d6248954f9d5391b0.html#a49bbbeed352ab44d6248954f9d5391b0" target="_top" xlink:title=" ">
<polygon fill="white" stroke="#666666" points="330.38,-375.69 243.12,-375.69 243.12,-356.44 330.38,-356.44 330.38,-375.69"/>
<text text-anchor="middle" x="286.75" y="-362.19" font-family="Helvetica,sans-Serif" font-size="10.00">Scram_Jet_Inlet</text>
</a>
</g>
</g>
<!-- Node3&#45;&gt;Node16 -->
<g id="edge23_Node000003_Node000016" class="edge">
<title>Node3&#45;&gt;Node16</title>
<g id="a_edge23_Node000003_Node000016"><a xlink:title=" ">
<path fill="none" stroke="#63b8ff" d="M376.64,-390.96C359.42,-386.14 339.84,-380.66 323.45,-376.07"/>
<polygon fill="#63b8ff" stroke="#63b8ff" points="375.52,-394.28 386.1,-393.61 377.41,-387.54 375.52,-394.28"/>
</a>
</g>
</g>
<!-- Node17 -->
<g id="Node000017" class="node">
<title>Node17</title>
<g id="a_Node000017"><a xlink:href="../../d1/d48/_shock___bubble___interaction_8cpp_a4cb762eff7e59896e567775356bda66a.html#a4cb762eff7e59896e567775356bda66a" target="_top" xlink:title=" ">
<polygon fill="white" stroke="#666666" points="351.75,-338.69 221.75,-338.69 221.75,-319.44 351.75,-319.44 351.75,-338.69"/>
<text text-anchor="middle" x="286.75" y="-325.19" font-family="Helvetica,sans-Serif" font-size="10.00">Shock_Bubble_Interaction</text>
</a>
</g>
</g>
<!-- Node3&#45;&gt;Node17 -->
<g id="edge25_Node000003_Node000017" class="edge">
<title>Node3&#45;&gt;Node17</title>
<g id="a_edge25_Node000003_Node000017"><a xlink:title=" ">
<path fill="none" stroke="#63b8ff" d="M402.67,-385.47C389.71,-373.12 370.94,-357.08 351.75,-347.07 345.82,-343.97 339.28,-341.35 332.73,-339.16"/>
<polygon fill="#63b8ff" stroke="#63b8ff" points="399.99,-387.73 409.57,-392.25 404.89,-382.74 399.99,-387.73"/>
</a>
</g>
</g>
<!-- Node18 -->
<g id="Node000018" class="node">
<title>Node18</title>
<g id="a_Node000018"><a xlink:href="../../d5/d9f/_shock___diffraction_8cpp_a464d43fab5d32cc9ecee800dfab8e5c8.html#a464d43fab5d32cc9ecee800dfab8e5c8" target="_top" xlink:title=" ">
<polygon fill="white" stroke="#666666" points="333.75,-301.69 239.75,-301.69 239.75,-282.44 333.75,-282.44 333.75,-301.69"/>
<text text-anchor="middle" x="286.75" y="-288.19" font-family="Helvetica,sans-Serif" font-size="10.00">Shock_Diffraction</text>
</a>
</g>
</g>
<!-- Node3&#45;&gt;Node18 -->
<g id="edge27_Node000003_Node000018" class="edge">
<title>Node3&#45;&gt;Node18</title>
<g id="a_edge27_Node000003_Node000018"><a xlink:title=" ">
<path fill="none" stroke="#63b8ff" d="M410.34,-383.09C399.21,-361.86 378.79,-328.82 351.75,-310.07 346.44,-306.38 340.39,-303.45 334.18,-301.12"/>
<polygon fill="#63b8ff" stroke="#63b8ff" points="407.15,-384.52 414.76,-391.89 413.4,-381.38 407.15,-384.52"/>
</a>
</g>
</g>
<!-- Node19 -->
<g id="Node000019" class="node">
<title>Node19</title>
<g id="a_Node000019"><a xlink:href="../../d2/d58/_shock___reflection__2_d_8cpp_a286a95bfcac44ff19264008ffd9506ed.html#a286a95bfcac44ff19264008ffd9506ed" target="_top" xlink:title=" ">
<polygon fill="white" stroke="#666666" points="342.38,-264.69 231.12,-264.69 231.12,-245.44 342.38,-245.44 342.38,-264.69"/>
<text text-anchor="middle" x="286.75" y="-251.19" font-family="Helvetica,sans-Serif" font-size="10.00">Shock_Reflection_2D</text>
</a>
</g>
</g>
<!-- Node3&#45;&gt;Node19 -->
<g id="edge29_Node000003_Node000019" class="edge">
<title>Node3&#45;&gt;Node19</title>
<g id="a_edge29_Node000003_Node000019"><a xlink:title=" ">
<path fill="none" stroke="#63b8ff" d="M414.64,-382.41C406.26,-353.61 387.08,-301.71 351.75,-273.07 347.8,-269.87 343.32,-267.24 338.61,-265.08"/>
<polygon fill="#63b8ff" stroke="#63b8ff" points="411.18,-383.02 417.18,-391.75 417.93,-381.18 411.18,-383.02"/>
</a>
</g>
</g>
<!-- Node20 -->
<g id="Node000020" class="node">
<title>Node20</title>
<g id="a_Node000020"><a xlink:href="../../d6/d4f/_shock___tube__2_d_8cpp_a634f5b7cf63cab96d3b48ed0b4df6ad4.html#a634f5b7cf63cab96d3b48ed0b4df6ad4" target="_top" xlink:title=" ">
<polygon fill="white" stroke="#666666" points="331.12,-227.69 242.38,-227.69 242.38,-208.44 331.12,-208.44 331.12,-227.69"/>
<text text-anchor="middle" x="286.75" y="-214.19" font-family="Helvetica,sans-Serif" font-size="10.00">Shock_Tube_2D</text>
</a>
</g>
</g>
<!-- Node3&#45;&gt;Node20 -->
<g id="edge31_Node000003_Node000020" class="edge">
<title>Node3&#45;&gt;Node20</title>
<g id="a_edge31_Node000003_Node000020"><a xlink:title=" ">
<path fill="none" stroke="#63b8ff" d="M417.22,-381.73C411.65,-346.22 395.44,-275.07 351.75,-236.07 345.98,-230.92 338.85,-227.23 331.46,-224.59"/>
<polygon fill="#63b8ff" stroke="#63b8ff" points="413.74,-382.16 418.61,-391.57 420.68,-381.18 413.74,-382.16"/>
</a>
</g>
</g>
<!-- Node21 -->
<g id="Node000021" class="node">
<title>Node21</title>
<g id="a_Node000021"><a xlink:href="../../de/dda/_shock___wedge___reflection_8cpp_a951397acc5a124a5a006dbd5ae45029a.html#a951397acc5a124a5a006dbd5ae45029a" target="_top" xlink:title=" ">
<polygon fill="white" stroke="#666666" points="351,-190.69 222.5,-190.69 222.5,-171.44 351,-171.44 351,-190.69"/>
<text text-anchor="middle" x="286.75" y="-177.19" font-family="Helvetica,sans-Serif" font-size="10.00">Shock_Wedge_Reflection</text>
</a>
</g>
</g>
<!-- Node3&#45;&gt;Node21 -->
<g id="edge33_Node000003_Node000021" class="edge">
<title>Node3&#45;&gt;Node21</title>
<g id="a_edge33_Node000003_Node000021"><a xlink:title=" ">
<path fill="none" stroke="#63b8ff" d="M419.07,-382.03C416.33,-340.83 404.3,-249.15 351.75,-199.07 348.41,-195.88 344.55,-193.25 340.41,-191.08"/>
<polygon fill="#63b8ff" stroke="#63b8ff" points="415.56,-382 419.58,-391.8 422.55,-381.63 415.56,-382"/>
</a>
</g>
</g>
<!-- Node22 -->
<g id="Node000022" class="node">
<title>Node22</title>
<g id="a_Node000022"><a xlink:href="../../d8/d8f/_slip___flow__2_d_8cpp_a41030236ecf9b4d95159d7227a838eab.html#a41030236ecf9b4d95159d7227a838eab" target="_top" xlink:title=" ">
<polygon fill="white" stroke="#666666" points="325.12,-153.69 248.38,-153.69 248.38,-134.44 325.12,-134.44 325.12,-153.69"/>
<text text-anchor="middle" x="286.75" y="-140.19" font-family="Helvetica,sans-Serif" font-size="10.00">Slip_Flow_2D</text>
</a>
</g>
</g>
<!-- Node3&#45;&gt;Node22 -->
<g id="edge35_Node000003_Node000022" class="edge">
<title>Node3&#45;&gt;Node22</title>
<g id="a_edge35_Node000003_Node000022"><a xlink:title=" ">
<path fill="none" stroke="#63b8ff" d="M420.35,-381.83C420.2,-335.22 413.05,-223.29 351.75,-162.07 344.64,-154.97 334.98,-150.62 325.31,-147.97"/>
<polygon fill="#63b8ff" stroke="#63b8ff" points="416.86,-381.6 420.26,-391.63 423.85,-381.66 416.86,-381.6"/>
</a>
</g>
</g>
<!-- Node23 -->
<g id="Node000023" class="node">
<title>Node23</title>
<g id="a_Node000023"><a xlink:href="../../d8/da5/_s_w_b_l_i_8cpp_aab1edbd94ae1737559f5140355148ed8.html#aab1edbd94ae1737559f5140355148ed8" target="_top" xlink:title=" ">
<polygon fill="white" stroke="#666666" points="310.5,-116.69 263,-116.69 263,-97.44 310.5,-97.44 310.5,-116.69"/>
<text text-anchor="middle" x="286.75" y="-103.19" font-family="Helvetica,sans-Serif" font-size="10.00">SWBLI</text>
</a>
</g>
</g>
<!-- Node3&#45;&gt;Node23 -->
<g id="edge37_Node000003_Node000023" class="edge">
<title>Node3&#45;&gt;Node23</title>
<g id="a_edge37_Node000003_Node000023"><a xlink:title=" ">
<path fill="none" stroke="#63b8ff" d="M417.45,-381.91C410.34,-323.59 387.79,-162.35 351.75,-125.07 341.16,-114.11 324.48,-109.67 310.8,-107.94"/>
<polygon fill="#63b8ff" stroke="#63b8ff" points="413.93,-381.98 418.58,-391.5 420.88,-381.15 413.93,-381.98"/>
</a>
</g>
</g>
<!-- Node4&#45;&gt;Node5 -->
<g id="edge4_Node000004_Node000005" class="edge">
<title>Node4&#45;&gt;Node5</title>
<g id="a_edge4_Node000004_Node000005"><a xlink:title=" ">
<path fill="none" stroke="#63b8ff" d="M236.92,-700.48C231.27,-697.45 226.02,-693.71 221.75,-689.07 133.75,-593.44 129.73,-419.32 130.15,-376.02"/>
<polygon fill="#63b8ff" stroke="#63b8ff" points="235.44,-703.65 245.99,-704.56 238.31,-697.27 235.44,-703.65"/>
</a>
</g>
</g>
<!-- Node6&#45;&gt;Node5 -->
<g id="edge6_Node000006_Node000005" class="edge">
<title>Node6&#45;&gt;Node5</title>
<g id="a_edge6_Node000006_Node000005"><a xlink:title=" ">
<path fill="none" stroke="#63b8ff" d="M228.72,-623.5C226.24,-621.89 223.89,-620.09 221.75,-618.07 147.58,-548.17 133.44,-413.44 130.9,-375.96"/>
<polygon fill="#63b8ff" stroke="#63b8ff" points="227.07,-626.59 237.56,-628.12 230.32,-620.39 227.07,-626.59"/>
</a>
</g>
</g>
<!-- Node7&#45;&gt;Node5 -->
<g id="edge8_Node000007_Node000005" class="edge">
<title>Node7&#45;&gt;Node5</title>
<g id="a_edge8_Node000007_Node000005"><a xlink:title=" ">
<path fill="none" stroke="#63b8ff" d="M223.69,-571.81C223.03,-571.24 222.38,-570.66 221.75,-570.07 161.22,-513.2 138.04,-408.86 132.06,-376.15"/>
<polygon fill="#63b8ff" stroke="#63b8ff" points="221.6,-574.61 231.79,-577.53 225.64,-568.9 221.6,-574.61"/>
</a>
</g>
</g>
<!-- Node8&#45;&gt;Node5 -->
<g id="edge10_Node000008_Node000005" class="edge">
<title>Node8&#45;&gt;Node5</title>
<g id="a_edge10_Node000008_Node000005"><a xlink:title=" ">
<path fill="none" stroke="#63b8ff" d="M229.37,-538.16C226.68,-536.65 224.12,-534.96 221.75,-533.07 167.44,-489.85 140.75,-405.16 132.91,-376.12"/>
<polygon fill="#63b8ff" stroke="#63b8ff" points="227.6,-541.2 238.15,-542.26 230.57,-534.86 227.6,-541.2"/>
</a>
</g>
</g>
<!-- Node9&#45;&gt;Node5 -->
<g id="edge12_Node000009_Node000005" class="edge">
<title>Node9&#45;&gt;Node5</title>
<g id="a_edge12_Node000009_Node000005"><a xlink:title=" ">
<path fill="none" stroke="#63b8ff" d="M226.59,-499.17C224.92,-498.2 223.3,-497.17 221.75,-496.07 175.82,-463.55 145.07,-400.3 134.47,-375.96"/>
<polygon fill="#63b8ff" stroke="#63b8ff" points="224.73,-502.16 235.25,-503.41 227.8,-495.87 224.73,-502.16"/>
</a>
</g>
</g>
<!-- Node10&#45;&gt;Node5 -->
<g id="edge14_Node000010_Node000005" class="edge">
<title>Node10&#45;&gt;Node5</title>
<g id="a_edge14_Node000010_Node000005"><a xlink:title=" ">
<path fill="none" stroke="#63b8ff" d="M228.54,-462.68C226.21,-461.56 223.93,-460.36 221.75,-459.07 184.15,-436.83 151.31,-395.26 137.42,-376.15"/>
<polygon fill="#63b8ff" stroke="#63b8ff" points="227.14,-465.88 237.71,-466.48 229.82,-459.41 227.14,-465.88"/>
</a>
</g>
</g>
<!-- Node12 -->
<g id="Node000012" class="node">
<title>Node12</title>
<g id="a_Node000012"><a xlink:href="../../d0/de9/_configuration___read_8cpp_af498db18e73ae99cf5272ad58683fc97.html#af498db18e73ae99cf5272ad58683fc97" target="_top" xlink:title=" ">
<polygon fill="white" stroke="#666666" points="181.25,-759.69 77.5,-759.69 77.5,-740.44 181.25,-740.44 181.25,-759.69"/>
<text text-anchor="middle" x="129.38" y="-746.19" font-family="Helvetica,sans-Serif" font-size="10.00">readTestCaseJSON</text>
</a>
</g>
</g>
<!-- Node11&#45;&gt;Node12 -->
<g id="edge16_Node000011_Node000012" class="edge">
<title>Node11&#45;&gt;Node12</title>
<g id="a_edge16_Node000011_Node000012"><a xlink:title=" ">
<path fill="none" stroke="#63b8ff" d="M225.6,-750.07C211.07,-750.07 195.69,-750.07 181.62,-750.07"/>
<polygon fill="#63b8ff" stroke="#63b8ff" points="225.5,-753.57 235.5,-750.07 225.5,-746.57 225.5,-753.57"/>
</a>
</g>
</g>
<!-- Node13 -->
<g id="Node000013" class="node">
<title>Node13</title>
<g id="a_Node000013"><a xlink:href="../../d5/d12/_main_8cpp_a0ddf1224851353fc92bfbff6f499fa97.html#a0ddf1224851353fc92bfbff6f499fa97" target="_top" xlink:title=" ">
<polygon fill="white" stroke="#666666" points="37,-759.69 0,-759.69 0,-740.44 37,-740.44 37,-759.69"/>
<text text-anchor="middle" x="18.5" y="-746.19" font-family="Helvetica,sans-Serif" font-size="10.00">main</text>
</a>
</g>
</g>
<!-- Node12&#45;&gt;Node13 -->
<g id="edge17_Node000012_Node000013" class="edge">
<title>Node12&#45;&gt;Node13</title>
<g id="a_edge17_Node000012_Node000013"><a xlink:title=" ">
<path fill="none" stroke="#63b8ff" d="M65.8,-750.07C55.44,-750.07 45.48,-750.07 37.47,-750.07"/>
<polygon fill="#63b8ff" stroke="#63b8ff" points="65.61,-753.57 75.61,-750.07 65.61,-746.57 65.61,-753.57"/>
</a>
</g>
</g>
<!-- Node14&#45;&gt;Node5 -->
<g id="edge19_Node000014_Node000005" class="edge">
<title>Node14&#45;&gt;Node5</title>
<g id="a_edge19_Node000014_Node000005"><a xlink:title=" ">
<path fill="none" stroke="#63b8ff" d="M256.7,-433.7C245.53,-430.8 232.82,-426.91 221.75,-422.07 192.43,-409.25 161.26,-388.38 143.96,-376.06"/>
<polygon fill="#63b8ff" stroke="#63b8ff" points="255.62,-437.04 266.17,-436.02 257.28,-430.25 255.62,-437.04"/>
</a>
</g>
</g>
<!-- Node15&#45;&gt;Node5 -->
<g id="edge22_Node000015_Node000005" class="edge">
<title>Node15&#45;&gt;Node5</title>
<g id="a_edge22_Node000015_Node000005"><a xlink:title=" ">
<path fill="none" stroke="#63b8ff" d="M232.16,-390.31C212.75,-385.68 191.1,-380.53 172.78,-376.17"/>
<polygon fill="#63b8ff" stroke="#63b8ff" points="231.28,-393.7 241.82,-392.61 232.9,-386.89 231.28,-393.7"/>
</a>
</g>
</g>
<!-- Node16&#45;&gt;Node5 -->
<g id="edge24_Node000016_Node000005" class="edge">
<title>Node16&#45;&gt;Node5</title>
<g id="a_edge24_Node000016_Node000005"><a xlink:title=" ">
<path fill="none" stroke="#63b8ff" d="M231.45,-366.07C216.8,-366.07 200.94,-366.07 186.21,-366.07"/>
<polygon fill="#63b8ff" stroke="#63b8ff" points="231.37,-369.57 241.37,-366.07 231.37,-362.57 231.37,-369.57"/>
</a>
</g>
</g>
<!-- Node17&#45;&gt;Node5 -->
<g id="edge26_Node000017_Node000005" class="edge">
<title>Node17&#45;&gt;Node5</title>
<g id="a_edge26_Node000017_Node000005"><a xlink:title=" ">
<path fill="none" stroke="#63b8ff" d="M232.16,-341.83C212.75,-346.45 191.1,-351.61 172.78,-355.97"/>
<polygon fill="#63b8ff" stroke="#63b8ff" points="232.9,-345.25 241.82,-339.53 231.28,-338.44 232.9,-345.25"/>
</a>
</g>
</g>
<!-- Node18&#45;&gt;Node5 -->
<g id="edge28_Node000018_Node000005" class="edge">
<title>Node18&#45;&gt;Node5</title>
<g id="a_edge28_Node000018_Node000005"><a xlink:title=" ">
<path fill="none" stroke="#63b8ff" d="M232.79,-305.71C229.01,-307.07 225.29,-308.52 221.75,-310.07 192.43,-322.88 161.26,-343.76 143.96,-356.08"/>
<polygon fill="#63b8ff" stroke="#63b8ff" points="233.68,-309.1 242.08,-302.64 231.48,-302.46 233.68,-309.1"/>
</a>
</g>
</g>
<!-- Node19&#45;&gt;Node5 -->
<g id="edge30_Node000019_Node000005" class="edge">
<title>Node19&#45;&gt;Node5</title>
<g id="a_edge30_Node000019_Node000005"><a xlink:title=" ">
<path fill="none" stroke="#63b8ff" d="M228.54,-269.46C226.21,-270.58 223.93,-271.78 221.75,-273.07 184.15,-295.31 151.31,-336.87 137.42,-355.98"/>
<polygon fill="#63b8ff" stroke="#63b8ff" points="229.82,-272.72 237.71,-265.66 227.14,-266.26 229.82,-272.72"/>
</a>
</g>
</g>
<!-- Node20&#45;&gt;Node5 -->
<g id="edge32_Node000020_Node000005" class="edge">
<title>Node20&#45;&gt;Node5</title>
<g id="a_edge32_Node000020_Node000005"><a xlink:title=" ">
<path fill="none" stroke="#63b8ff" d="M231.42,-230.39C228.03,-232.05 224.76,-233.93 221.75,-236.07 175.82,-268.59 145.07,-331.83 134.47,-356.18"/>
<polygon fill="#63b8ff" stroke="#63b8ff" points="232.62,-233.69 240.52,-226.63 229.95,-227.22 232.62,-233.69"/>
</a>
</g>
</g>
<!-- Node21&#45;&gt;Node5 -->
<g id="edge34_Node000021_Node000005" class="edge">
<title>Node21&#45;&gt;Node5</title>
<g id="a_edge34_Node000021_Node000005"><a xlink:title=" ">
<path fill="none" stroke="#63b8ff" d="M225.22,-196.53C224.03,-197.33 222.87,-198.18 221.75,-199.07 167.44,-242.28 140.75,-326.98 132.91,-356.02"/>
<polygon fill="#63b8ff" stroke="#63b8ff" points="226.57,-199.79 233.62,-191.88 223.18,-193.66 226.57,-199.79"/>
</a>
</g>
</g>
<!-- Node22&#45;&gt;Node5 -->
<g id="edge36_Node000022_Node000005" class="edge">
<title>Node22&#45;&gt;Node5</title>
<g id="a_edge36_Node000022_Node000005"><a xlink:title=" ">
<path fill="none" stroke="#63b8ff" d="M237.62,-152.52C231.86,-154.94 226.39,-158.06 221.75,-162.07 158.58,-216.58 137.07,-323.42 131.79,-356.24"/>
<polygon fill="#63b8ff" stroke="#63b8ff" points="238.45,-155.94 246.74,-149.35 236.15,-149.32 238.45,-155.94"/>
</a>
</g>
</g>
<!-- Node23&#45;&gt;Node5 -->
<g id="edge38_Node000023_Node000005" class="edge">
<title>Node23&#45;&gt;Node5</title>
<g id="a_edge38_Node000023_Node000005"><a xlink:title=" ">
<path fill="none" stroke="#63b8ff" d="M251.4,-110.65C240.84,-113.23 229.88,-117.63 221.75,-125.07 149.8,-190.94 134.13,-319.39 131.06,-356.07"/>
<polygon fill="#63b8ff" stroke="#63b8ff" points="251.9,-114.12 261.06,-108.78 250.57,-107.24 251.9,-114.12"/>
</a>
</g>
</g>
</g>
</svg>
