<?xml version="1.0" encoding="UTF-8" standalone="no"?>
<!DOCTYPE svg PUBLIC "-//W3C//DTD SVG 1.1//EN"
 "http://www.w3.org/Graphics/SVG/1.1/DTD/svg11.dtd">
<!-- Generated by graphviz version 12.2.1 (20241206.2353)
 -->
<!-- Title: Form_Cells Pages: 1 -->
<svg width="1182pt" height="684pt"
 viewBox="0.00 0.00 1182.30 683.80" xmlns="http://www.w3.org/2000/svg" xmlns:xlink="http://www.w3.org/1999/xlink">
<g id="graph0" class="graph" transform="scale(1 1) rotate(0) translate(4 679.8)">
<title>Form_Cells</title>
<!-- Node1 -->
<g id="Node000001" class="node">
<title>Node1</title>
<g id="a_Node000001"><a xlink:title=" ">
<polygon fill="#999999" stroke="#666666" points="66.25,-468.8 0,-468.8 0,-449.55 66.25,-449.55 66.25,-468.8"/>
<text text-anchor="middle" x="33.12" y="-455.3" font-family="Helvetica,sans-Serif" font-size="10.00">Form_Cells</text>
</a>
</g>
</g>
<!-- Node2 -->
<g id="Node000002" class="node">
<title>Node2</title>
<g id="a_Node000002"><a xlink:href="../../d8/d40/_grid___computations_8cpp_a7e6f11445e90cefdcb91f369846ec691.html#a7e6f11445e90cefdcb91f369846ec691" target="_top" xlink:title=" ">
<polygon fill="white" stroke="#666666" points="219.5,-423.42 105.25,-423.42 105.25,-392.92 219.5,-392.92 219.5,-423.42"/>
<text text-anchor="start" x="113.25" y="-409.92" font-family="Helvetica,sans-Serif" font-size="10.00">Calculate_Cell_Center</text>
<text text-anchor="middle" x="162.38" y="-398.67" font-family="Helvetica,sans-Serif" font-size="10.00">_Distances</text>
</a>
</g>
</g>
<!-- Node1&#45;&gt;Node2 -->
<g id="edge1_Node000001_Node000002" class="edge">
<title>Node1&#45;&gt;Node2</title>
<g id="a_edge1_Node000001_Node000002"><a xlink:title=" ">
<path fill="none" stroke="#63b8ff" d="M59.27,-449.1C74.21,-443.11 93.69,-435.3 111.63,-428.11"/>
<polygon fill="#63b8ff" stroke="#63b8ff" points="112.87,-431.39 120.85,-424.42 110.27,-424.89 112.87,-431.39"/>
</a>
</g>
</g>
<!-- Node5 -->
<g id="Node000005" class="node">
<title>Node5</title>
<g id="a_Node000005"><a xlink:href="../../d8/d40/_grid___computations_8cpp_a209db16fba143a9833c8d4021624afb0.html#a209db16fba143a9833c8d4021624afb0" target="_top" xlink:title=" ">
<polygon fill="white" stroke="#666666" points="872.62,-581.8 800.38,-581.8 800.38,-562.55 872.62,-562.55 872.62,-581.8"/>
<text text-anchor="middle" x="836.5" y="-568.3" font-family="Helvetica,sans-Serif" font-size="10.00">Check_Cells</text>
</a>
</g>
</g>
<!-- Node1&#45;&gt;Node5 -->
<g id="edge4_Node000001_Node000005" class="edge">
<title>Node1&#45;&gt;Node5</title>
<g id="a_edge4_Node000001_Node000005"><a xlink:title=" ">
<path fill="none" stroke="#63b8ff" d="M48.2,-469.29C88.43,-497.19 208.24,-573.17 319.88,-573.17 319.88,-573.17 319.88,-573.17 486,-573.17 594.33,-573.17 721.54,-572.69 788.61,-572.39"/>
<polygon fill="#63b8ff" stroke="#63b8ff" points="788.53,-575.89 798.51,-572.35 788.5,-568.89 788.53,-575.89"/>
</a>
</g>
</g>
<!-- Node6 -->
<g id="Node000006" class="node">
<title>Node6</title>
<g id="a_Node000006"><a xlink:href="../../df/daf/_co___volume___grid___computations_8cpp_a097cceef075e862683dd9f6e95d091d4.html#a097cceef075e862683dd9f6e95d091d4" target="_top" xlink:title=" ">
<polygon fill="white" stroke="#666666" points="222.5,-620.8 102.25,-620.8 102.25,-601.55 222.5,-601.55 222.5,-620.8"/>
<text text-anchor="middle" x="162.38" y="-607.3" font-family="Helvetica,sans-Serif" font-size="10.00">Construct_Co_Volumes</text>
</a>
</g>
</g>
<!-- Node1&#45;&gt;Node6 -->
<g id="edge5_Node000001_Node000006" class="edge">
<title>Node1&#45;&gt;Node6</title>
<g id="a_edge5_Node000001_Node000006"><a xlink:title=" ">
<path fill="none" stroke="#63b8ff" d="M36.8,-468.96C43.7,-492.52 64.29,-552.96 102.25,-587.17 106.06,-590.61 110.42,-593.58 115.01,-596.15"/>
<polygon fill="#63b8ff" stroke="#63b8ff" points="113.41,-599.27 123.94,-600.49 116.47,-592.97 113.41,-599.27"/>
</a>
</g>
</g>
<!-- Node12 -->
<g id="Node000012" class="node">
<title>Node12</title>
<g id="a_Node000012"><a xlink:href="../../d8/d40/_grid___computations_8cpp_ae5f2b7a0fdbc48f8fdf897222b7ded04.html#ae5f2b7a0fdbc48f8fdf897222b7ded04" target="_top" xlink:title=" ">
<polygon fill="white" stroke="#666666" points="544,-468.8 426,-468.8 426,-449.55 544,-449.55 544,-468.8"/>
<text text-anchor="middle" x="485" y="-455.3" font-family="Helvetica,sans-Serif" font-size="10.00">Construct_Ghost_Cells</text>
</a>
</g>
</g>
<!-- Node1&#45;&gt;Node12 -->
<g id="edge12_Node000001_Node000012" class="edge">
<title>Node1&#45;&gt;Node12</title>
<g id="a_edge12_Node000001_Node000012"><a xlink:title=" ">
<path fill="none" stroke="#63b8ff" d="M66.48,-459.17C138.96,-459.17 315.72,-459.17 414.43,-459.17"/>
<polygon fill="#63b8ff" stroke="#63b8ff" points="414.26,-462.67 424.26,-459.17 414.26,-455.67 414.26,-462.67"/>
</a>
</g>
</g>
<!-- Node14 -->
<g id="Node000014" class="node">
<title>Node14</title>
<g id="a_Node000014"><a xlink:href="../../df/db3/_mesh___loader_8cpp_a4ecb41d6b6dda1279d140f58dcf4d3fa.html#a4ecb41d6b6dda1279d140f58dcf4d3fa" target="_top" xlink:title=" ">
<polygon fill="white" stroke="#666666" points="195.5,-358.8 129.25,-358.8 129.25,-339.55 195.5,-339.55 195.5,-358.8"/>
<text text-anchor="middle" x="162.38" y="-345.3" font-family="Helvetica,sans-Serif" font-size="10.00">Load_Mesh</text>
</a>
</g>
</g>
<!-- Node1&#45;&gt;Node14 -->
<g id="edge14_Node000001_Node000014" class="edge">
<title>Node1&#45;&gt;Node14</title>
<g id="a_edge14_Node000001_Node000014"><a xlink:title=" ">
<path fill="none" stroke="#63b8ff" d="M41.69,-449.07C53.47,-433.78 77.44,-404.4 102.25,-384.17 111.01,-377.03 121.38,-370.39 130.97,-364.84"/>
<polygon fill="#63b8ff" stroke="#63b8ff" points="132.6,-367.94 139.64,-360.03 129.2,-361.82 132.6,-367.94"/>
</a>
</g>
</g>
<!-- Node3 -->
<g id="Node000003" class="node">
<title>Node3</title>
<g id="a_Node000003"><a xlink:href="../../d8/d40/_grid___computations_8cpp_a1f273579608200866e02e34f16a3eb6b.html#a1f273579608200866e02e34f16a3eb6b" target="_top" xlink:title=" ">
<polygon fill="white" stroke="#666666" points="550.75,-374.8 419.25,-374.8 419.25,-355.55 550.75,-355.55 550.75,-374.8"/>
<text text-anchor="middle" x="485" y="-361.3" font-family="Helvetica,sans-Serif" font-size="10.00">Distance_Between_Points</text>
</a>
</g>
</g>
<!-- Node2&#45;&gt;Node3 -->
<g id="edge2_Node000002_Node000003" class="edge">
<title>Node2&#45;&gt;Node3</title>
<g id="a_edge2_Node000002_Node000003"><a xlink:title=" ">
<path fill="none" stroke="#63b8ff" d="M219.96,-400.59C272.12,-393.59 349.96,-383.15 407.62,-375.42"/>
<polygon fill="#63b8ff" stroke="#63b8ff" points="407.93,-378.91 417.37,-374.11 407,-371.97 407.93,-378.91"/>
</a>
</g>
</g>
<!-- Node4 -->
<g id="Node000004" class="node">
<title>Node4</title>
<g id="a_Node000004"><a xlink:href="../../dc/d3a/src_2_utility___files_8cpp_abf34e0b480f7580b0cd4237a76aed670.html#abf34e0b480f7580b0cd4237a76aed670" target="_top" xlink:title=" ">
<polygon fill="white" stroke="#666666" points="677.38,-354.8 641.12,-354.8 641.12,-335.55 677.38,-335.55 677.38,-354.8"/>
<text text-anchor="middle" x="659.25" y="-341.3" font-family="Helvetica,sans-Serif" font-size="10.00">Print</text>
</a>
</g>
</g>
<!-- Node3&#45;&gt;Node4 -->
<g id="edge3_Node000003_Node000004" class="edge">
<title>Node3&#45;&gt;Node4</title>
<g id="a_edge3_Node000003_Node000004"><a xlink:title=" ">
<path fill="none" stroke="#63b8ff" d="M551.12,-357.61C578.16,-354.47 608.15,-350.99 629.5,-348.51"/>
<polygon fill="#63b8ff" stroke="#63b8ff" points="629.67,-352.02 639.19,-347.39 628.86,-345.06 629.67,-352.02"/>
</a>
</g>
</g>
<!-- Node7 -->
<g id="Node000007" class="node">
<title>Node7</title>
<g id="a_Node000007"><a xlink:href="../../d8/d40/_grid___computations_8cpp_a775c5c8091a251ccd3893d4d726a7a79.html#a775c5c8091a251ccd3893d4d726a7a79" target="_top" xlink:title=" ">
<polygon fill="white" stroke="#666666" points="363.75,-657.8 278,-657.8 278,-638.55 363.75,-638.55 363.75,-657.8"/>
<text text-anchor="middle" x="320.88" y="-644.3" font-family="Helvetica,sans-Serif" font-size="10.00">Construct_Face</text>
</a>
</g>
</g>
<!-- Node6&#45;&gt;Node7 -->
<g id="edge6_Node000006_Node000007" class="edge">
<title>Node6&#45;&gt;Node7</title>
<g id="a_edge6_Node000006_Node000007"><a xlink:title=" ">
<path fill="none" stroke="#63b8ff" d="M206.14,-621.29C224.84,-625.71 246.96,-630.94 266.71,-635.61"/>
<polygon fill="#63b8ff" stroke="#63b8ff" points="265.69,-638.96 276.23,-637.86 267.3,-632.15 265.69,-638.96"/>
</a>
</g>
</g>
<!-- Node11 -->
<g id="Node000011" class="node">
<title>Node11</title>
<g id="a_Node000011"><a xlink:href="../../d8/d40/_grid___computations_8cpp_a29418163b6fbd0aa81c60026e430d0b8.html#a29418163b6fbd0aa81c60026e430d0b8" target="_top" xlink:title=" ">
<polygon fill="white" stroke="#666666" points="383.25,-620.8 258.5,-620.8 258.5,-601.55 383.25,-601.55 383.25,-620.8"/>
<text text-anchor="middle" x="320.88" y="-607.3" font-family="Helvetica,sans-Serif" font-size="10.00">Evaluate_Cross_Product</text>
</a>
</g>
</g>
<!-- Node6&#45;&gt;Node11 -->
<g id="edge11_Node000006_Node000011" class="edge">
<title>Node6&#45;&gt;Node11</title>
<g id="a_edge11_Node000006_Node000011"><a xlink:title=" ">
<path fill="none" stroke="#63b8ff" d="M222.99,-611.17C230.71,-611.17 238.68,-611.17 246.59,-611.17"/>
<polygon fill="#63b8ff" stroke="#63b8ff" points="246.58,-614.67 256.58,-611.17 246.58,-607.67 246.58,-614.67"/>
</a>
</g>
</g>
<!-- Node7&#45;&gt;Node7 -->
<g id="edge10_Node000007_Node000007" class="edge">
<title>Node7&#45;&gt;Node7</title>
<g id="a_edge10_Node000007_Node000007"><a xlink:title=" ">
<path fill="none" stroke="#63b8ff" d="M296.06,-658.09C284.74,-666.69 293.01,-675.8 320.88,-675.8 336.55,-675.8 346.02,-672.92 349.3,-668.87"/>
<polygon fill="#63b8ff" stroke="#63b8ff" points="352.66,-667.9 346.17,-659.52 346.02,-670.12 352.66,-667.9"/>
</a>
</g>
</g>
<!-- Node8 -->
<g id="Node000008" class="node">
<title>Node8</title>
<g id="a_Node000008"><a xlink:href="../../d8/d40/_grid___computations_8cpp_a4dd07afd2a0f939b4d47bfa1088912c4.html#a4dd07afd2a0f939b4d47bfa1088912c4" target="_top" xlink:title=" ">
<polygon fill="white" stroke="#666666" points="1074.25,-505.8 976.5,-505.8 976.5,-486.55 1074.25,-486.55 1074.25,-505.8"/>
<text text-anchor="middle" x="1025.38" y="-492.3" font-family="Helvetica,sans-Serif" font-size="10.00">Compute_Centroid</text>
</a>
</g>
</g>
<!-- Node7&#45;&gt;Node8 -->
<g id="edge7_Node000007_Node000008" class="edge">
<title>Node7&#45;&gt;Node8</title>
<g id="a_edge7_Node000007_Node000008"><a xlink:title=" ">
<path fill="none" stroke="#63b8ff" d="M364.1,-652C462.92,-659.3 715.23,-668.24 905.25,-591.17 947.48,-574.05 986.82,-536.95 1008.03,-514.52"/>
<polygon fill="#63b8ff" stroke="#63b8ff" points="1010.5,-517.01 1014.7,-507.29 1005.35,-512.26 1010.5,-517.01"/>
</a>
</g>
</g>
<!-- Node9 -->
<g id="Node000009" class="node">
<title>Node9</title>
<g id="a_Node000009"><a xlink:href="../../d3/d82/_c_type___elliptic___grid_8cpp_a9d9acf133a5b966f0cbd16a2c57a7d79.html#a9d9acf133a5b966f0cbd16a2c57a7d79" target="_top" xlink:title=" ">
<polygon fill="white" stroke="#666666" points="1174.3,-505.8 1145.5,-505.8 1145.5,-486.55 1174.3,-486.55 1174.3,-505.8"/>
<text text-anchor="middle" x="1159.9" y="-492.3" font-family="Helvetica,sans-Serif" font-size="10.00">x</text>
</a>
</g>
</g>
<!-- Node8&#45;&gt;Node9 -->
<g id="edge8_Node000008_Node000009" class="edge">
<title>Node8&#45;&gt;Node9</title>
<g id="a_edge8_Node000008_Node000009"><a xlink:title=" ">
<path fill="none" stroke="#63b8ff" d="M1074.59,-496.17C1094.65,-496.17 1117.08,-496.17 1133.77,-496.17"/>
<polygon fill="#63b8ff" stroke="#63b8ff" points="1133.76,-499.67 1143.76,-496.17 1133.76,-492.67 1133.76,-499.67"/>
</a>
</g>
</g>
<!-- Node10 -->
<g id="Node000010" class="node">
<title>Node10</title>
<g id="a_Node000010"><a xlink:href="../../d3/d82/_c_type___elliptic___grid_8cpp_aae4b761a64c952b4c008655d1dc59a12.html#aae4b761a64c952b4c008655d1dc59a12" target="_top" xlink:title=" ">
<polygon fill="white" stroke="#666666" points="1174.3,-467.8 1145.5,-467.8 1145.5,-448.55 1174.3,-448.55 1174.3,-467.8"/>
<text text-anchor="middle" x="1159.9" y="-454.3" font-family="Helvetica,sans-Serif" font-size="10.00">y</text>
</a>
</g>
</g>
<!-- Node8&#45;&gt;Node10 -->
<g id="edge9_Node000008_Node000010" class="edge">
<title>Node8&#45;&gt;Node10</title>
<g id="a_edge9_Node000008_Node000010"><a xlink:title=" ">
<path fill="none" stroke="#63b8ff" d="M1061.54,-486.09C1084.49,-479.51 1113.87,-471.09 1134.33,-465.22"/>
<polygon fill="#63b8ff" stroke="#63b8ff" points="1135.12,-468.63 1143.77,-462.51 1133.19,-461.91 1135.12,-468.63"/>
</a>
</g>
</g>
<!-- Node13 -->
<g id="Node000013" class="node">
<title>Node13</title>
<g id="a_Node000013"><a xlink:href="../../d8/d40/_grid___computations_8cpp_a2d284e26ddef582519953e8b8300184e.html#a2d284e26ddef582519953e8b8300184e" target="_top" xlink:title=" ">
<polygon fill="white" stroke="#666666" points="877.12,-429.8 795.88,-429.8 795.88,-410.55 877.12,-410.55 877.12,-429.8"/>
<text text-anchor="middle" x="836.5" y="-416.3" font-family="Helvetica,sans-Serif" font-size="10.00">Construct_Cell</text>
</a>
</g>
</g>
<!-- Node12&#45;&gt;Node13 -->
<g id="edge13_Node000012_Node000013" class="edge">
<title>Node12&#45;&gt;Node13</title>
<g id="a_edge13_Node000012_Node000013"><a xlink:title=" ">
<path fill="none" stroke="#63b8ff" d="M544.18,-454.26C594.02,-449.86 667.7,-442.93 731.75,-435.17 748.93,-433.1 767.65,-430.49 784.41,-428.04"/>
<polygon fill="#63b8ff" stroke="#63b8ff" points="784.77,-431.52 794.15,-426.6 783.75,-424.6 784.77,-431.52"/>
</a>
</g>
</g>
<!-- Node15 -->
<g id="Node000015" class="node">
<title>Node15</title>
<g id="a_Node000015"><a xlink:href="../../df/db3/_mesh___loader_8cpp_a94f04e68ff03c16a3c553d5670e9b1ab.html#a94f04e68ff03c16a3c553d5670e9b1ab" target="_top" xlink:title=" ">
<polygon fill="white" stroke="#666666" points="532.38,-321.8 437.62,-321.8 437.62,-302.55 532.38,-302.55 532.38,-321.8"/>
<text text-anchor="middle" x="485" y="-308.3" font-family="Helvetica,sans-Serif" font-size="10.00">Read_CSV_Mesh</text>
</a>
</g>
</g>
<!-- Node14&#45;&gt;Node15 -->
<g id="edge15_Node000014_Node000015" class="edge">
<title>Node14&#45;&gt;Node15</title>
<g id="a_edge15_Node000014_Node000015"><a xlink:title=" ">
<path fill="none" stroke="#63b8ff" d="M195.88,-345.42C249.84,-339.2 358.59,-326.65 425.97,-318.87"/>
<polygon fill="#63b8ff" stroke="#63b8ff" points="426.19,-322.37 435.72,-317.75 425.39,-315.42 426.19,-322.37"/>
</a>
</g>
</g>
<!-- Node24 -->
<g id="Node000024" class="node">
<title>Node24</title>
<g id="a_Node000024"><a xlink:href="../../d0/ded/_read___gmsh___file_8cpp_abedd70744a46f756e74b49905be889d9.html#abedd70744a46f756e74b49905be889d9" target="_top" xlink:title=" ">
<polygon fill="white" stroke="#666666" points="377.62,-260.8 264.12,-260.8 264.12,-241.55 377.62,-241.55 377.62,-260.8"/>
<text text-anchor="middle" x="320.88" y="-247.3" font-family="Helvetica,sans-Serif" font-size="10.00">Read_GmshVTK_Grid</text>
</a>
</g>
</g>
<!-- Node14&#45;&gt;Node24 -->
<g id="edge27_Node000014_Node000024" class="edge">
<title>Node14&#45;&gt;Node24</title>
<g id="a_edge27_Node000014_Node000024"><a xlink:title=" ">
<path fill="none" stroke="#63b8ff" d="M179.53,-339.06C206.74,-322.02 261.88,-287.49 294.35,-267.16"/>
<polygon fill="#63b8ff" stroke="#63b8ff" points="296.14,-270.17 302.75,-261.9 292.42,-264.24 296.14,-270.17"/>
</a>
</g>
</g>
<!-- Node27 -->
<g id="Node000027" class="node">
<title>Node27</title>
<g id="a_Node000027"><a xlink:href="../../d8/d40/_grid___computations_8cpp_a663d4b3ae06e638c2f2e82ad437e831e.html#a663d4b3ae06e638c2f2e82ad437e831e" target="_top" xlink:title="Reads the input grid file and constructs physical cells, evaluates face areas, normals,...">
<polygon fill="white" stroke="#666666" points="690.5,-506.8 628,-506.8 628,-487.55 690.5,-487.55 690.5,-506.8"/>
<text text-anchor="middle" x="659.25" y="-493.3" font-family="Helvetica,sans-Serif" font-size="10.00">Read_Grid</text>
</a>
</g>
</g>
<!-- Node14&#45;&gt;Node27 -->
<g id="edge39_Node000014_Node000027" class="edge">
<title>Node14&#45;&gt;Node27</title>
<g id="a_edge39_Node000014_Node000027"><a xlink:title=" ">
<path fill="none" stroke="#63b8ff" d="M181.02,-359.2C230.32,-387.04 369.19,-464.15 419.25,-478.17 486.46,-497 568.16,-499.32 616.53,-498.67"/>
<polygon fill="#63b8ff" stroke="#63b8ff" points="616.35,-502.18 626.28,-498.49 616.21,-495.18 616.35,-502.18"/>
</a>
</g>
</g>
<!-- Node15&#45;&gt;Node5 -->
<g id="edge17_Node000015_Node000005" class="edge">
<title>Node15&#45;&gt;Node5</title>
<g id="a_edge17_Node000015_Node000005"><a xlink:title=" ">
<path fill="none" stroke="#63b8ff" d="M517.6,-322.16C529.66,-327.48 542.47,-335.24 550.75,-346.17 597.36,-407.75 532.49,-461.22 586.75,-516.17 600.9,-530.51 720.62,-552.76 788.68,-564.43"/>
<polygon fill="#63b8ff" stroke="#63b8ff" points="788,-567.87 798.45,-566.09 789.18,-560.96 788,-567.87"/>
</a>
</g>
</g>
<!-- Node15&#45;&gt;Node13 -->
<g id="edge20_Node000015_Node000013" class="edge">
<title>Node15&#45;&gt;Node13</title>
<g id="a_edge20_Node000015_Node000013"><a xlink:title=" ">
<path fill="none" stroke="#63b8ff" d="M510.38,-322.29C523.11,-328.21 538.54,-336.44 550.75,-346.17 569.98,-361.5 565.12,-376.49 586.75,-388.17 648.73,-421.64 731.7,-425.59 784.39,-423.96"/>
<polygon fill="#63b8ff" stroke="#63b8ff" points="784.44,-427.46 794.29,-423.57 784.16,-420.47 784.44,-427.46"/>
</a>
</g>
</g>
<!-- Node16 -->
<g id="Node000016" class="node">
<title>Node16</title>
<g id="a_Node000016"><a xlink:href="../../d0/ded/_read___gmsh___file_8cpp_ae9fe416efcf214282b13d235773a6bf6.html#ae9fe416efcf214282b13d235773a6bf6" target="_top" xlink:title=" ">
<polygon fill="white" stroke="#666666" points="696.12,-317.8 622.38,-317.8 622.38,-298.55 696.12,-298.55 696.12,-317.8"/>
<text text-anchor="middle" x="659.25" y="-304.3" font-family="Helvetica,sans-Serif" font-size="10.00">BoundingBox</text>
</a>
</g>
</g>
<!-- Node15&#45;&gt;Node16 -->
<g id="edge16_Node000015_Node000016" class="edge">
<title>Node15&#45;&gt;Node16</title>
<g id="a_edge16_Node000015_Node000016"><a xlink:title=" ">
<path fill="none" stroke="#63b8ff" d="M532.61,-311.09C556.76,-310.53 586.19,-309.85 610.5,-309.28"/>
<polygon fill="#63b8ff" stroke="#63b8ff" points="610.55,-312.78 620.47,-309.05 610.39,-305.79 610.55,-312.78"/>
</a>
</g>
</g>
<!-- Node17 -->
<g id="Node000017" class="node">
<title>Node17</title>
<g id="a_Node000017"><a xlink:href="../../d0/ded/_read___gmsh___file_8cpp_ab9ea50ddf9e2981b178f5999ddfcb7b3.html#ab9ea50ddf9e2981b178f5999ddfcb7b3" target="_top" xlink:title=" ">
<polygon fill="white" stroke="#666666" points="731.75,-194.8 586.75,-194.8 586.75,-175.55 731.75,-175.55 731.75,-194.8"/>
<text text-anchor="middle" x="659.25" y="-181.3" font-family="Helvetica,sans-Serif" font-size="10.00">Classify_Domain_Boundaries</text>
</a>
</g>
</g>
<!-- Node15&#45;&gt;Node17 -->
<g id="edge18_Node000015_Node000017" class="edge">
<title>Node15&#45;&gt;Node17</title>
<g id="a_edge18_Node000015_Node000017"><a xlink:title=" ">
<path fill="none" stroke="#63b8ff" d="M494.99,-302.3C519.16,-275.77 583.87,-204.88 586.75,-203.17 588.94,-201.87 591.22,-200.67 593.57,-199.55"/>
<polygon fill="#63b8ff" stroke="#63b8ff" points="594.88,-202.79 602.79,-195.75 592.21,-196.32 594.88,-202.79"/>
</a>
</g>
</g>
<!-- Node19 -->
<g id="Node000019" class="node">
<title>Node19</title>
<g id="a_Node000019"><a xlink:href="../../d0/ded/_read___gmsh___file_8cpp_a4f897fcec439c37558a5d9fd94abf2e0.html#a4f897fcec439c37558a5d9fd94abf2e0" target="_top" xlink:title=" ">
<polygon fill="white" stroke="#666666" points="719,-280.42 599.5,-280.42 599.5,-249.92 719,-249.92 719,-280.42"/>
<text text-anchor="start" x="607.5" y="-266.92" font-family="Helvetica,sans-Serif" font-size="10.00">Create_Boundary_Cells</text>
<text text-anchor="middle" x="659.25" y="-255.67" font-family="Helvetica,sans-Serif" font-size="10.00">_Lists</text>
</a>
</g>
</g>
<!-- Node15&#45;&gt;Node19 -->
<g id="edge21_Node000015_Node000019" class="edge">
<title>Node15&#45;&gt;Node19</title>
<g id="a_edge21_Node000015_Node000019"><a xlink:title=" ">
<path fill="none" stroke="#63b8ff" d="M522.95,-302.09C542.41,-296.78 566.89,-290.1 589.67,-283.89"/>
<polygon fill="#63b8ff" stroke="#63b8ff" points="590.5,-287.29 599.23,-281.28 588.66,-280.54 590.5,-287.29"/>
</a>
</g>
</g>
<!-- Node20 -->
<g id="Node000020" class="node">
<title>Node20</title>
<g id="a_Node000020"><a xlink:href="../../d0/ded/_read___gmsh___file_8cpp_a9ee7224f2c410fa22e26e50b31924869.html#a9ee7224f2c410fa22e26e50b31924869" target="_top" xlink:title=" ">
<polygon fill="white" stroke="#666666" points="710.75,-157.8 607.75,-157.8 607.75,-138.55 710.75,-138.55 710.75,-157.8"/>
<text text-anchor="middle" x="659.25" y="-144.3" font-family="Helvetica,sans-Serif" font-size="10.00">Identify_Neighbours</text>
</a>
</g>
</g>
<!-- Node15&#45;&gt;Node20 -->
<g id="edge22_Node000015_Node000020" class="edge">
<title>Node15&#45;&gt;Node20</title>
<g id="a_edge22_Node000015_Node000020"><a xlink:title=" ">
<path fill="none" stroke="#63b8ff" d="M496.68,-302.39C510.44,-289.39 534.52,-265.24 550.75,-241.17 571.43,-210.52 558.12,-189.57 586.75,-166.17 589.96,-163.55 593.51,-161.3 597.25,-159.38"/>
<polygon fill="#63b8ff" stroke="#63b8ff" points="598.3,-162.73 606.13,-155.59 595.56,-156.29 598.3,-162.73"/>
</a>
</g>
</g>
<!-- Node22 -->
<g id="Node000022" class="node">
<title>Node22</title>
<g id="a_Node000022"><a xlink:href="../../d8/d40/_grid___computations_8cpp_a614d9bfab5b0ee048b9e08a296757c42.html#a614d9bfab5b0ee048b9e08a296757c42" target="_top" xlink:title=" ">
<polygon fill="white" stroke="#666666" points="905.25,-392.8 767.75,-392.8 767.75,-373.55 905.25,-373.55 905.25,-392.8"/>
<text text-anchor="middle" x="836.5" y="-379.3" font-family="Helvetica,sans-Serif" font-size="10.00">Sort_Points_AntiClockWise</text>
</a>
</g>
</g>
<!-- Node15&#45;&gt;Node22 -->
<g id="edge24_Node000015_Node000022" class="edge">
<title>Node15&#45;&gt;Node22</title>
<g id="a_edge24_Node000015_Node000022"><a xlink:title=" ">
<path fill="none" stroke="#63b8ff" d="M505.38,-322.3C534.03,-337.25 584.58,-363.56 586.75,-364.17 641.93,-379.83 706.59,-384.37 756.15,-385.11"/>
<polygon fill="#63b8ff" stroke="#63b8ff" points="755.9,-388.6 765.94,-385.2 755.97,-381.6 755.9,-388.6"/>
</a>
</g>
</g>
<!-- Node18 -->
<g id="Node000018" class="node">
<title>Node18</title>
<g id="a_Node000018"><a xlink:href="../../d0/ded/_read___gmsh___file_8cpp_a994cf9f1092af359f042b96b997c5adc.html#a994cf9f1092af359f042b96b997c5adc" target="_top" xlink:title=" ">
<polygon fill="white" stroke="#666666" points="888.75,-194.8 784.25,-194.8 784.25,-175.55 888.75,-175.55 888.75,-194.8"/>
<text text-anchor="middle" x="836.5" y="-181.3" font-family="Helvetica,sans-Serif" font-size="10.00">Get_Boundary_Type</text>
</a>
</g>
</g>
<!-- Node17&#45;&gt;Node18 -->
<g id="edge19_Node000017_Node000018" class="edge">
<title>Node17&#45;&gt;Node18</title>
<g id="a_edge19_Node000017_Node000018"><a xlink:title=" ">
<path fill="none" stroke="#63b8ff" d="M732.04,-185.17C745.49,-185.17 759.46,-185.17 772.61,-185.17"/>
<polygon fill="#63b8ff" stroke="#63b8ff" points="772.42,-188.67 782.42,-185.17 772.42,-181.67 772.42,-188.67"/>
</a>
</g>
</g>
<!-- Node21 -->
<g id="Node000021" class="node">
<title>Node21</title>
<g id="a_Node000021"><a xlink:href="../../d0/ded/_read___gmsh___file_8cpp_adc1985827312d4d72fa6eb4ce492fc5e.html#adc1985827312d4d72fa6eb4ce492fc5e" target="_top" xlink:title=" ">
<polygon fill="white" stroke="#666666" points="883.88,-157.8 789.12,-157.8 789.12,-138.55 883.88,-138.55 883.88,-157.8"/>
<text text-anchor="middle" x="836.5" y="-144.3" font-family="Helvetica,sans-Serif" font-size="10.00">mapFacesToCells</text>
</a>
</g>
</g>
<!-- Node20&#45;&gt;Node21 -->
<g id="edge23_Node000020_Node000021" class="edge">
<title>Node20&#45;&gt;Node21</title>
<g id="a_edge23_Node000020_Node000021"><a xlink:title=" ">
<path fill="none" stroke="#63b8ff" d="M710.94,-148.17C731.76,-148.17 755.99,-148.17 777.51,-148.17"/>
<polygon fill="#63b8ff" stroke="#63b8ff" points="777.31,-151.67 787.31,-148.17 777.31,-144.67 777.31,-151.67"/>
</a>
</g>
</g>
<!-- Node22&#45;&gt;Node8 -->
<g id="edge26_Node000022_Node000008" class="edge">
<title>Node22&#45;&gt;Node8</title>
<g id="a_edge26_Node000022_Node000008"><a xlink:title=" ">
<path fill="none" stroke="#63b8ff" d="M885.44,-393.24C892.26,-395.43 899.05,-398.06 905.25,-401.17 945.54,-421.46 985,-456.87 1006.87,-478.25"/>
<polygon fill="#63b8ff" stroke="#63b8ff" points="1004.24,-480.57 1013.79,-485.15 1009.18,-475.61 1004.24,-480.57"/>
</a>
</g>
</g>
<!-- Node23 -->
<g id="Node000023" class="node">
<title>Node23</title>
<g id="a_Node000023"><a xlink:href="../../d8/d40/_grid___computations_8cpp_a0bdffb27693c14d6cb4ef62eb5bd5d7f.html#a0bdffb27693c14d6cb4ef62eb5bd5d7f" target="_top" xlink:title="Sorts a set of points in anti&#45;clockwise order around their centroid.">
<polygon fill="white" stroke="#666666" points="1109.5,-392.8 941.25,-392.8 941.25,-373.55 1109.5,-373.55 1109.5,-392.8"/>
<text text-anchor="middle" x="1025.38" y="-379.3" font-family="Helvetica,sans-Serif" font-size="10.00">Are_Points_Sorted_AntiClockWise</text>
</a>
</g>
</g>
<!-- Node22&#45;&gt;Node23 -->
<g id="edge25_Node000022_Node000023" class="edge">
<title>Node22&#45;&gt;Node23</title>
<g id="a_edge25_Node000022_Node000023"><a xlink:title=" ">
<path fill="none" stroke="#63b8ff" d="M905.49,-383.17C913.3,-383.17 921.36,-383.17 929.43,-383.17"/>
<polygon fill="#63b8ff" stroke="#63b8ff" points="929.32,-386.67 939.32,-383.17 929.32,-379.67 929.32,-386.67"/>
</a>
</g>
</g>
<!-- Node25 -->
<g id="Node000025" class="node">
<title>Node25</title>
<g id="a_Node000025"><a xlink:href="../../d0/ded/_read___gmsh___file_8cpp_af5022e986434a24c3f27a650cf4aeb76.html#af5022e986434a24c3f27a650cf4aeb76" target="_top" xlink:title=" ">
<polygon fill="white" stroke="#666666" points="528.62,-231.8 441.38,-231.8 441.38,-212.55 528.62,-212.55 528.62,-231.8"/>
<text text-anchor="middle" x="485" y="-218.3" font-family="Helvetica,sans-Serif" font-size="10.00">Read_VTK_Grid</text>
</a>
</g>
</g>
<!-- Node24&#45;&gt;Node25 -->
<g id="edge28_Node000024_Node000025" class="edge">
<title>Node24&#45;&gt;Node25</title>
<g id="a_edge28_Node000024_Node000025"><a xlink:title=" ">
<path fill="none" stroke="#63b8ff" d="M378.12,-241.11C394.84,-238.12 413.12,-234.85 429.71,-231.89"/>
<polygon fill="#63b8ff" stroke="#63b8ff" points="430.17,-235.36 439.4,-230.15 428.94,-228.47 430.17,-235.36"/>
</a>
</g>
</g>
<!-- Node25&#45;&gt;Node4 -->
<g id="edge36_Node000025_Node000004" class="edge">
<title>Node25&#45;&gt;Node4</title>
<g id="a_edge36_Node000025_Node000004"><a xlink:title=" ">
<path fill="none" stroke="#63b8ff" d="M495.07,-232.24C517.68,-257.25 575.55,-320.67 586.75,-327.17 599.76,-334.73 615.9,-339.15 629.55,-341.71"/>
<polygon fill="#63b8ff" stroke="#63b8ff" points="628.84,-345.14 639.27,-343.28 629.96,-338.23 628.84,-345.14"/>
</a>
</g>
</g>
<!-- Node25&#45;&gt;Node9 -->
<g id="edge37_Node000025_Node000009" class="edge">
<title>Node25&#45;&gt;Node9</title>
<g id="a_edge37_Node000025_Node000009"><a xlink:title=" ">
<path fill="none" stroke="#63b8ff" d="M492.63,-212.35C506.96,-192.12 543.08,-146.25 586.75,-129.17 718.59,-77.63 776.44,-70.47 905.25,-129.17 1031.17,-186.57 1041.71,-243.54 1109.5,-364.17 1133.71,-407.25 1123.54,-427.39 1145.98,-475.97"/>
<polygon fill="#63b8ff" stroke="#63b8ff" points="1142.72,-477.27 1150.26,-484.72 1149.01,-474.2 1142.72,-477.27"/>
</a>
</g>
</g>
<!-- Node25&#45;&gt;Node10 -->
<g id="edge38_Node000025_Node000010" class="edge">
<title>Node25&#45;&gt;Node10</title>
<g id="a_edge38_Node000025_Node000010"><a xlink:title=" ">
<path fill="none" stroke="#63b8ff" d="M490.24,-212.13C501.53,-186.89 535,-121.05 586.75,-96.17 796.14,4.49 934.46,56.6 1109.5,-96.17 1160.9,-141.04 1160.8,-366.1 1159.46,-436.85"/>
<polygon fill="#63b8ff" stroke="#63b8ff" points="1155.96,-436.6 1159.24,-446.68 1162.96,-436.76 1155.96,-436.6"/>
</a>
</g>
</g>
<!-- Node25&#45;&gt;Node16 -->
<g id="edge29_Node000025_Node000016" class="edge">
<title>Node25&#45;&gt;Node16</title>
<g id="a_edge29_Node000025_Node000016"><a xlink:title=" ">
<path fill="none" stroke="#63b8ff" d="M498.25,-232.28C516.47,-246.83 552.28,-273.64 586.75,-289.17 594.49,-292.66 602.99,-295.61 611.35,-298.07"/>
<polygon fill="#63b8ff" stroke="#63b8ff" points="610.15,-301.37 620.72,-300.63 612,-294.62 610.15,-301.37"/>
</a>
</g>
</g>
<!-- Node25&#45;&gt;Node17 -->
<g id="edge30_Node000025_Node000017" class="edge">
<title>Node25&#45;&gt;Node17</title>
<g id="a_edge30_Node000025_Node000017"><a xlink:title=" ">
<path fill="none" stroke="#63b8ff" d="M529.02,-212.93C550.52,-208.32 576.84,-202.66 600.1,-197.67"/>
<polygon fill="#63b8ff" stroke="#63b8ff" points="600.72,-201.11 609.76,-195.59 599.25,-194.27 600.72,-201.11"/>
</a>
</g>
</g>
<!-- Node25&#45;&gt;Node19 -->
<g id="edge31_Node000025_Node000019" class="edge">
<title>Node25&#45;&gt;Node19</title>
<g id="a_edge31_Node000025_Node000019"><a xlink:title=" ">
<path fill="none" stroke="#63b8ff" d="M526.38,-232.26C544.76,-236.84 567.05,-242.41 588.03,-247.65"/>
<polygon fill="#63b8ff" stroke="#63b8ff" points="587.17,-251.04 597.72,-250.06 588.86,-244.25 587.17,-251.04"/>
</a>
</g>
</g>
<!-- Node25&#45;&gt;Node20 -->
<g id="edge35_Node000025_Node000020" class="edge">
<title>Node25&#45;&gt;Node20</title>
<g id="a_edge35_Node000025_Node000020"><a xlink:title=" ">
<path fill="none" stroke="#63b8ff" d="M501.09,-212.14C520.27,-199.77 554.75,-178.84 586.75,-166.17 591.03,-164.48 595.53,-162.9 600.09,-161.45"/>
<polygon fill="#63b8ff" stroke="#63b8ff" points="600.74,-164.91 609.32,-158.7 598.74,-158.2 600.74,-164.91"/>
</a>
</g>
</g>
<!-- Node26 -->
<g id="Node000026" class="node">
<title>Node26</title>
<g id="a_Node000026"><a xlink:href="../../d0/ded/_read___gmsh___file_8cpp_aa3cbdec71b7c56f603b53acd3ce5a070.html#aa3cbdec71b7c56f603b53acd3ce5a070" target="_top" xlink:title=" ">
<polygon fill="white" stroke="#666666" points="697.25,-231.8 621.25,-231.8 621.25,-212.55 697.25,-212.55 697.25,-231.8"/>
<text text-anchor="middle" x="659.25" y="-218.3" font-family="Helvetica,sans-Serif" font-size="10.00">Identify_Cells</text>
</a>
</g>
</g>
<!-- Node25&#45;&gt;Node26 -->
<g id="edge32_Node000025_Node000026" class="edge">
<title>Node25&#45;&gt;Node26</title>
<g id="a_edge32_Node000025_Node000026"><a xlink:title=" ">
<path fill="none" stroke="#63b8ff" d="M529.02,-222.17C553.56,-222.17 584.4,-222.17 609.79,-222.17"/>
<polygon fill="#63b8ff" stroke="#63b8ff" points="609.52,-225.67 619.52,-222.17 609.52,-218.67 609.52,-225.67"/>
</a>
</g>
</g>
<!-- Node26&#45;&gt;Node13 -->
<g id="edge33_Node000026_Node000013" class="edge">
<title>Node26&#45;&gt;Node13</title>
<g id="a_edge33_Node000026_Node000013"><a xlink:title=" ">
<path fill="none" stroke="#63b8ff" d="M697.63,-224.43C709.99,-226.99 722.85,-231.91 731.75,-241.17 782.56,-294.04 716.94,-349.31 767.75,-402.17 772.45,-407.07 778.32,-410.68 784.61,-413.34"/>
<polygon fill="#63b8ff" stroke="#63b8ff" points="783.47,-416.65 794.06,-416.5 785.69,-410.01 783.47,-416.65"/>
</a>
</g>
</g>
<!-- Node26&#45;&gt;Node22 -->
<g id="edge34_Node000026_Node000022" class="edge">
<title>Node26&#45;&gt;Node22</title>
<g id="a_edge34_Node000026_Node000022"><a xlink:title=" ">
<path fill="none" stroke="#63b8ff" d="M697.57,-227.1C709.23,-229.9 721.68,-234.29 731.75,-241.17 777.99,-272.79 811.24,-332.03 826.37,-363.05"/>
<polygon fill="#63b8ff" stroke="#63b8ff" points="823.03,-364.19 830.47,-371.73 829.36,-361.2 823.03,-364.19"/>
</a>
</g>
</g>
<!-- Node27&#45;&gt;Node5 -->
<g id="edge40_Node000027_Node000005" class="edge">
<title>Node27&#45;&gt;Node5</title>
<g id="a_edge40_Node000027_Node000005"><a xlink:title=" ">
<path fill="none" stroke="#63b8ff" d="M690.7,-505.05C703.73,-509.01 718.88,-514.42 731.75,-521.17 749.46,-530.48 750.12,-538.73 767.75,-548.17 774.78,-551.94 782.52,-555.32 790.17,-558.28"/>
<polygon fill="#63b8ff" stroke="#63b8ff" points="788.85,-561.52 799.44,-561.65 791.24,-554.94 788.85,-561.52"/>
</a>
</g>
</g>
<!-- Node27&#45;&gt;Node9 -->
<g id="edge44_Node000027_Node000009" class="edge">
<title>Node27&#45;&gt;Node9</title>
<g id="a_edge44_Node000027_Node000009"><a xlink:title=" ">
<path fill="none" stroke="#63b8ff" d="M690.66,-503.65C712.1,-507.88 741.54,-513 767.75,-515.17 919.12,-527.76 960.16,-542.9 1109.5,-515.17 1117.88,-513.62 1126.67,-510.7 1134.47,-507.61"/>
<polygon fill="#63b8ff" stroke="#63b8ff" points="1135.82,-510.83 1143.64,-503.68 1133.07,-504.4 1135.82,-510.83"/>
</a>
</g>
</g>
<!-- Node27&#45;&gt;Node10 -->
<g id="edge45_Node000027_Node000010" class="edge">
<title>Node27&#45;&gt;Node10</title>
<g id="a_edge45_Node000027_Node000010"><a xlink:title=" ">
<path fill="none" stroke="#63b8ff" d="M690.66,-490.38C712.1,-485.87 741.54,-480.24 767.75,-477.17 905.48,-461.09 1072.02,-458.58 1134.05,-458.22"/>
<polygon fill="#63b8ff" stroke="#63b8ff" points="1133.84,-461.72 1143.82,-458.18 1133.81,-454.72 1133.84,-461.72"/>
</a>
</g>
</g>
<!-- Node27&#45;&gt;Node13 -->
<g id="edge41_Node000027_Node000013" class="edge">
<title>Node27&#45;&gt;Node13</title>
<g id="a_edge41_Node000027_Node000013"><a xlink:title=" ">
<path fill="none" stroke="#63b8ff" d="M690.81,-489.52C703.87,-485.59 719,-480.16 731.75,-473.17 749.77,-463.31 749.81,-454.19 767.75,-444.17 774.48,-440.41 781.92,-437.07 789.32,-434.16"/>
<polygon fill="#63b8ff" stroke="#63b8ff" points="790.45,-437.47 798.63,-430.74 788.04,-430.9 790.45,-437.47"/>
</a>
</g>
</g>
<!-- Node27&#45;&gt;Node22 -->
<g id="edge43_Node000027_Node000022" class="edge">
<title>Node27&#45;&gt;Node22</title>
<g id="a_edge43_Node000027_Node000022"><a xlink:title=" ">
<path fill="none" stroke="#63b8ff" d="M668.59,-487.06C685.32,-467.46 725.02,-424.2 767.75,-401.17 770.28,-399.81 772.92,-398.55 775.63,-397.37"/>
<polygon fill="#63b8ff" stroke="#63b8ff" points="776.82,-400.66 784.91,-393.83 774.32,-394.12 776.82,-400.66"/>
</a>
</g>
</g>
<!-- Node28 -->
<g id="Node000028" class="node">
<title>Node28</title>
<g id="a_Node000028"><a xlink:href="../../d8/d40/_grid___computations_8cpp_aa376223dcb91990013ac6549090115ea.html#aa376223dcb91990013ac6549090115ea" target="_top" xlink:title=" ">
<polygon fill="white" stroke="#666666" points="885.75,-505.8 787.25,-505.8 787.25,-486.55 885.75,-486.55 885.75,-505.8"/>
<text text-anchor="middle" x="836.5" y="-492.3" font-family="Helvetica,sans-Serif" font-size="10.00">Conversion_Factor</text>
</a>
</g>
</g>
<!-- Node27&#45;&gt;Node28 -->
<g id="edge42_Node000027_Node000028" class="edge">
<title>Node27&#45;&gt;Node28</title>
<g id="a_edge42_Node000027_Node000028"><a xlink:title=" ">
<path fill="none" stroke="#63b8ff" d="M690.78,-497C714.05,-496.87 746.84,-496.68 775.32,-496.52"/>
<polygon fill="#63b8ff" stroke="#63b8ff" points="775.32,-500.02 785.3,-496.46 775.28,-493.02 775.32,-500.02"/>
</a>
</g>
</g>
</g>
</svg>
