<?xml version="1.0" encoding="UTF-8" standalone="no"?>
<!DOCTYPE svg PUBLIC "-//W3C//DTD SVG 1.1//EN"
 "http://www.w3.org/Graphics/SVG/1.1/DTD/svg11.dtd">
<!-- Generated by graphviz version 12.2.1 (20241206.2353)
 -->
<!-- Title: Load_Mesh Pages: 1 -->
<svg width="978pt" height="502pt"
 viewBox="0.00 0.00 978.05 501.60" xmlns="http://www.w3.org/2000/svg" xmlns:xlink="http://www.w3.org/1999/xlink">
<g id="graph0" class="graph" transform="scale(1 1) rotate(0) translate(4 497.6)">
<title>Load_Mesh</title>
<!-- Node1 -->
<g id="Node000001" class="node">
<title>Node1</title>
<g id="a_Node000001"><a xlink:title=" ">
<polygon fill="#999999" stroke="#666666" points="66.25,-244.94 0,-244.94 0,-225.69 66.25,-225.69 66.25,-244.94"/>
<text text-anchor="middle" x="33.12" y="-231.44" font-family="Helvetica,sans-Serif" font-size="10.00">Load_Mesh</text>
</a>
</g>
</g>
<!-- Node2 -->
<g id="Node000002" class="node">
<title>Node2</title>
<g id="a_Node000002"><a xlink:href="../../df/db3/_mesh___loader_8cpp_a94f04e68ff03c16a3c553d5670e9b1ab.html#a94f04e68ff03c16a3c553d5670e9b1ab" target="_top" xlink:title=" ">
<polygon fill="white" stroke="#666666" points="346.5,-364.94 251.75,-364.94 251.75,-345.69 346.5,-345.69 346.5,-364.94"/>
<text text-anchor="middle" x="299.12" y="-351.44" font-family="Helvetica,sans-Serif" font-size="10.00">Read_CSV_Mesh</text>
</a>
</g>
</g>
<!-- Node1&#45;&gt;Node2 -->
<g id="edge1_Node000001_Node000002" class="edge">
<title>Node1&#45;&gt;Node2</title>
<g id="a_edge1_Node000001_Node000002"><a xlink:title=" ">
<path fill="none" stroke="#63b8ff" d="M56.18,-245.34C102.67,-266.47 210.93,-315.68 265.48,-340.48"/>
<polygon fill="#63b8ff" stroke="#63b8ff" points="264.02,-343.66 274.57,-344.61 266.91,-337.29 264.02,-343.66"/>
</a>
</g>
</g>
<!-- Node16 -->
<g id="Node000016" class="node">
<title>Node16</title>
<g id="a_Node000016"><a xlink:href="../../d0/ded/_read___gmsh___file_8cpp_abedd70744a46f756e74b49905be889d9.html#abedd70744a46f756e74b49905be889d9" target="_top" xlink:title=" ">
<polygon fill="white" stroke="#666666" points="215.75,-244.94 102.25,-244.94 102.25,-225.69 215.75,-225.69 215.75,-244.94"/>
<text text-anchor="middle" x="159" y="-231.44" font-family="Helvetica,sans-Serif" font-size="10.00">Read_GmshVTK_Grid</text>
</a>
</g>
</g>
<!-- Node1&#45;&gt;Node16 -->
<g id="edge15_Node000001_Node000016" class="edge">
<title>Node1&#45;&gt;Node16</title>
<g id="a_edge15_Node000001_Node000016"><a xlink:title=" ">
<path fill="none" stroke="#63b8ff" d="M66.67,-235.32C74.16,-235.32 82.4,-235.32 90.77,-235.32"/>
<polygon fill="#63b8ff" stroke="#63b8ff" points="90.69,-238.82 100.69,-235.32 90.69,-231.82 90.69,-238.82"/>
</a>
</g>
</g>
<!-- Node20 -->
<g id="Node000020" class="node">
<title>Node20</title>
<g id="a_Node000020"><a xlink:href="../../d8/d40/_grid___computations_8cpp_a663d4b3ae06e638c2f2e82ad437e831e.html#a663d4b3ae06e638c2f2e82ad437e831e" target="_top" xlink:title="Reads the input grid file and constructs physical cells, evaluates face areas, normals,...">
<polygon fill="white" stroke="#666666" points="486.25,-113.94 423.75,-113.94 423.75,-94.69 486.25,-94.69 486.25,-113.94"/>
<text text-anchor="middle" x="455" y="-100.44" font-family="Helvetica,sans-Serif" font-size="10.00">Read_Grid</text>
</a>
</g>
</g>
<!-- Node1&#45;&gt;Node20 -->
<g id="edge27_Node000001_Node000020" class="edge">
<title>Node1&#45;&gt;Node20</title>
<g id="a_edge27_Node000001_Node000020"><a xlink:title=" ">
<path fill="none" stroke="#63b8ff" d="M62.83,-225.28C122.15,-204.71 262.73,-156.77 382.5,-122.32 392.05,-119.57 402.38,-116.83 412.14,-114.35"/>
<polygon fill="#63b8ff" stroke="#63b8ff" points="412.94,-117.76 421.79,-111.94 411.24,-110.97 412.94,-117.76"/>
</a>
</g>
</g>
<!-- Node3 -->
<g id="Node000003" class="node">
<title>Node3</title>
<g id="a_Node000003"><a xlink:href="../../d0/ded/_read___gmsh___file_8cpp_ae9fe416efcf214282b13d235773a6bf6.html#ae9fe416efcf214282b13d235773a6bf6" target="_top" xlink:title=" ">
<polygon fill="white" stroke="#666666" points="491.88,-300.94 418.12,-300.94 418.12,-281.69 491.88,-281.69 491.88,-300.94"/>
<text text-anchor="middle" x="455" y="-287.44" font-family="Helvetica,sans-Serif" font-size="10.00">BoundingBox</text>
</a>
</g>
</g>
<!-- Node2&#45;&gt;Node3 -->
<g id="edge2_Node000002_Node000003" class="edge">
<title>Node2&#45;&gt;Node3</title>
<g id="a_edge2_Node000002_Node000003"><a xlink:title=" ">
<path fill="none" stroke="#63b8ff" d="M315.67,-345.34C331.83,-335.34 358.13,-320.04 382.5,-310.32 390.21,-307.24 398.58,-304.5 406.79,-302.14"/>
<polygon fill="#63b8ff" stroke="#63b8ff" points="407.62,-305.54 416.35,-299.53 405.78,-298.78 407.62,-305.54"/>
</a>
</g>
</g>
<!-- Node4 -->
<g id="Node000004" class="node">
<title>Node4</title>
<g id="a_Node000004"><a xlink:href="../../d8/d40/_grid___computations_8cpp_a209db16fba143a9833c8d4021624afb0.html#a209db16fba143a9833c8d4021624afb0" target="_top" xlink:title=" ">
<polygon fill="white" stroke="#666666" points="668.38,-363.94 596.12,-363.94 596.12,-344.69 668.38,-344.69 668.38,-363.94"/>
<text text-anchor="middle" x="632.25" y="-350.44" font-family="Helvetica,sans-Serif" font-size="10.00">Check_Cells</text>
</a>
</g>
</g>
<!-- Node2&#45;&gt;Node4 -->
<g id="edge3_Node000002_Node000004" class="edge">
<title>Node2&#45;&gt;Node4</title>
<g id="a_edge3_Node000002_Node000004"><a xlink:title=" ">
<path fill="none" stroke="#63b8ff" d="M303.5,-365.3C312.17,-389.13 337.74,-449.09 382.5,-472.32 439.7,-502 468.78,-498.88 527.5,-472.32 533.44,-469.63 588.34,-405.18 615.79,-372.69"/>
<polygon fill="#63b8ff" stroke="#63b8ff" points="618.29,-375.15 622.06,-365.25 612.94,-370.64 618.29,-375.15"/>
</a>
</g>
</g>
<!-- Node5 -->
<g id="Node000005" class="node">
<title>Node5</title>
<g id="a_Node000005"><a xlink:href="../../d0/ded/_read___gmsh___file_8cpp_ab9ea50ddf9e2981b178f5999ddfcb7b3.html#ab9ea50ddf9e2981b178f5999ddfcb7b3" target="_top" xlink:title=" ">
<polygon fill="white" stroke="#666666" points="527.5,-263.94 382.5,-263.94 382.5,-244.69 527.5,-244.69 527.5,-263.94"/>
<text text-anchor="middle" x="455" y="-250.44" font-family="Helvetica,sans-Serif" font-size="10.00">Classify_Domain_Boundaries</text>
</a>
</g>
</g>
<!-- Node2&#45;&gt;Node5 -->
<g id="edge4_Node000002_Node000005" class="edge">
<title>Node2&#45;&gt;Node5</title>
<g id="a_edge4_Node000002_Node000005"><a xlink:title=" ">
<path fill="none" stroke="#63b8ff" d="M307.04,-345.42C319.84,-327.88 348.99,-291.41 382.5,-272.32 384.85,-270.98 387.29,-269.74 389.8,-268.59"/>
<polygon fill="#63b8ff" stroke="#63b8ff" points="391.02,-271.88 399.01,-264.93 388.43,-265.37 391.02,-271.88"/>
</a>
</g>
</g>
<!-- Node7 -->
<g id="Node000007" class="node">
<title>Node7</title>
<g id="a_Node000007"><a xlink:href="../../d8/d40/_grid___computations_8cpp_a2d284e26ddef582519953e8b8300184e.html#a2d284e26ddef582519953e8b8300184e" target="_top" xlink:title=" ">
<polygon fill="white" stroke="#666666" points="672.88,-150.94 591.62,-150.94 591.62,-131.69 672.88,-131.69 672.88,-150.94"/>
<text text-anchor="middle" x="632.25" y="-137.44" font-family="Helvetica,sans-Serif" font-size="10.00">Construct_Cell</text>
</a>
</g>
</g>
<!-- Node2&#45;&gt;Node7 -->
<g id="edge6_Node000002_Node000007" class="edge">
<title>Node2&#45;&gt;Node7</title>
<g id="a_edge6_Node000002_Node000007"><a xlink:title=" ">
<path fill="none" stroke="#63b8ff" d="M326.19,-365.4C372.57,-381.46 469.93,-406.4 527.5,-358.32 596.48,-300.7 502.56,-225.38 563.5,-159.32 568.27,-154.15 574.33,-150.4 580.86,-147.69"/>
<polygon fill="#63b8ff" stroke="#63b8ff" points="581.55,-151.15 589.96,-144.7 579.36,-144.49 581.55,-151.15"/>
</a>
</g>
</g>
<!-- Node8 -->
<g id="Node000008" class="node">
<title>Node8</title>
<g id="a_Node000008"><a xlink:href="../../d0/ded/_read___gmsh___file_8cpp_a4f897fcec439c37558a5d9fd94abf2e0.html#a4f897fcec439c37558a5d9fd94abf2e0" target="_top" xlink:title=" ">
<polygon fill="white" stroke="#666666" points="514.75,-349.57 395.25,-349.57 395.25,-319.07 514.75,-319.07 514.75,-349.57"/>
<text text-anchor="start" x="403.25" y="-336.07" font-family="Helvetica,sans-Serif" font-size="10.00">Create_Boundary_Cells</text>
<text text-anchor="middle" x="455" y="-324.82" font-family="Helvetica,sans-Serif" font-size="10.00">_Lists</text>
</a>
</g>
</g>
<!-- Node2&#45;&gt;Node8 -->
<g id="edge7_Node000002_Node000008" class="edge">
<title>Node2&#45;&gt;Node8</title>
<g id="a_edge7_Node000002_Node000008"><a xlink:title=" ">
<path fill="none" stroke="#63b8ff" d="M346.71,-348.96C358.36,-347.37 371.11,-345.63 383.63,-343.92"/>
<polygon fill="#63b8ff" stroke="#63b8ff" points="384.09,-347.39 393.53,-342.57 383.15,-340.45 384.09,-347.39"/>
</a>
</g>
</g>
<!-- Node9 -->
<g id="Node000009" class="node">
<title>Node9</title>
<g id="a_Node000009"><a xlink:href="../../d0/ded/_read___gmsh___file_8cpp_a9ee7224f2c410fa22e26e50b31924869.html#a9ee7224f2c410fa22e26e50b31924869" target="_top" xlink:title=" ">
<polygon fill="white" stroke="#666666" points="506.5,-462.94 403.5,-462.94 403.5,-443.69 506.5,-443.69 506.5,-462.94"/>
<text text-anchor="middle" x="455" y="-449.44" font-family="Helvetica,sans-Serif" font-size="10.00">Identify_Neighbours</text>
</a>
</g>
</g>
<!-- Node2&#45;&gt;Node9 -->
<g id="edge8_Node000002_Node000009" class="edge">
<title>Node2&#45;&gt;Node9</title>
<g id="a_edge8_Node000002_Node000009"><a xlink:title=" ">
<path fill="none" stroke="#63b8ff" d="M308.76,-365.36C322.76,-381.07 351.94,-411.5 382.5,-429.32 389.11,-433.17 396.43,-436.52 403.79,-439.39"/>
<polygon fill="#63b8ff" stroke="#63b8ff" points="402.51,-442.64 413.1,-442.74 404.88,-436.06 402.51,-442.64"/>
</a>
</g>
</g>
<!-- Node11 -->
<g id="Node000011" class="node">
<title>Node11</title>
<g id="a_Node000011"><a xlink:href="../../d8/d40/_grid___computations_8cpp_a614d9bfab5b0ee048b9e08a296757c42.html#a614d9bfab5b0ee048b9e08a296757c42" target="_top" xlink:title=" ">
<polygon fill="white" stroke="#666666" points="701,-187.94 563.5,-187.94 563.5,-168.69 701,-168.69 701,-187.94"/>
<text text-anchor="middle" x="632.25" y="-174.44" font-family="Helvetica,sans-Serif" font-size="10.00">Sort_Points_AntiClockWise</text>
</a>
</g>
</g>
<!-- Node2&#45;&gt;Node11 -->
<g id="edge10_Node000002_Node000011" class="edge">
<title>Node2&#45;&gt;Node11</title>
<g id="a_edge10_Node000002_Node000011"><a xlink:title=" ">
<path fill="none" stroke="#63b8ff" d="M316.26,-365.28C356.67,-388.82 463.54,-442.2 527.5,-391.32 583.18,-347.02 526.36,-296.01 563.5,-235.32 573.67,-218.7 590.38,-204.56 604.65,-194.52"/>
<polygon fill="#63b8ff" stroke="#63b8ff" points="606.41,-197.56 612.78,-189.09 602.52,-191.74 606.41,-197.56"/>
</a>
</g>
</g>
<!-- Node6 -->
<g id="Node000006" class="node">
<title>Node6</title>
<g id="a_Node000006"><a xlink:href="../../d0/ded/_read___gmsh___file_8cpp_a994cf9f1092af359f042b96b997c5adc.html#a994cf9f1092af359f042b96b997c5adc" target="_top" xlink:title=" ">
<polygon fill="white" stroke="#666666" points="684.5,-263.94 580,-263.94 580,-244.69 684.5,-244.69 684.5,-263.94"/>
<text text-anchor="middle" x="632.25" y="-250.44" font-family="Helvetica,sans-Serif" font-size="10.00">Get_Boundary_Type</text>
</a>
</g>
</g>
<!-- Node5&#45;&gt;Node6 -->
<g id="edge5_Node000005_Node000006" class="edge">
<title>Node5&#45;&gt;Node6</title>
<g id="a_edge5_Node000005_Node000006"><a xlink:title=" ">
<path fill="none" stroke="#63b8ff" d="M527.79,-254.32C541.24,-254.32 555.21,-254.32 568.36,-254.32"/>
<polygon fill="#63b8ff" stroke="#63b8ff" points="568.17,-257.82 578.17,-254.32 568.17,-250.82 568.17,-257.82"/>
</a>
</g>
</g>
<!-- Node10 -->
<g id="Node000010" class="node">
<title>Node10</title>
<g id="a_Node000010"><a xlink:href="../../d0/ded/_read___gmsh___file_8cpp_adc1985827312d4d72fa6eb4ce492fc5e.html#adc1985827312d4d72fa6eb4ce492fc5e" target="_top" xlink:title=" ">
<polygon fill="white" stroke="#666666" points="679.62,-462.94 584.88,-462.94 584.88,-443.69 679.62,-443.69 679.62,-462.94"/>
<text text-anchor="middle" x="632.25" y="-449.44" font-family="Helvetica,sans-Serif" font-size="10.00">mapFacesToCells</text>
</a>
</g>
</g>
<!-- Node9&#45;&gt;Node10 -->
<g id="edge9_Node000009_Node000010" class="edge">
<title>Node9&#45;&gt;Node10</title>
<g id="a_edge9_Node000009_Node000010"><a xlink:title=" ">
<path fill="none" stroke="#63b8ff" d="M506.69,-453.32C527.51,-453.32 551.74,-453.32 573.26,-453.32"/>
<polygon fill="#63b8ff" stroke="#63b8ff" points="573.06,-456.82 583.06,-453.32 573.06,-449.82 573.06,-456.82"/>
</a>
</g>
</g>
<!-- Node12 -->
<g id="Node000012" class="node">
<title>Node12</title>
<g id="a_Node000012"><a xlink:href="../../d8/d40/_grid___computations_8cpp_a0bdffb27693c14d6cb4ef62eb5bd5d7f.html#a0bdffb27693c14d6cb4ef62eb5bd5d7f" target="_top" xlink:title="Sorts a set of points in anti&#45;clockwise order around their centroid.">
<polygon fill="white" stroke="#666666" points="905.25,-187.94 737,-187.94 737,-168.69 905.25,-168.69 905.25,-187.94"/>
<text text-anchor="middle" x="821.12" y="-174.44" font-family="Helvetica,sans-Serif" font-size="10.00">Are_Points_Sorted_AntiClockWise</text>
</a>
</g>
</g>
<!-- Node11&#45;&gt;Node12 -->
<g id="edge11_Node000011_Node000012" class="edge">
<title>Node11&#45;&gt;Node12</title>
<g id="a_edge11_Node000011_Node000012"><a xlink:title=" ">
<path fill="none" stroke="#63b8ff" d="M701.24,-178.32C709.05,-178.32 717.11,-178.32 725.18,-178.32"/>
<polygon fill="#63b8ff" stroke="#63b8ff" points="725.07,-181.82 735.07,-178.32 725.07,-174.82 725.07,-181.82"/>
</a>
</g>
</g>
<!-- Node13 -->
<g id="Node000013" class="node">
<title>Node13</title>
<g id="a_Node000013"><a xlink:href="../../d8/d40/_grid___computations_8cpp_a4dd07afd2a0f939b4d47bfa1088912c4.html#a4dd07afd2a0f939b4d47bfa1088912c4" target="_top" xlink:title=" ">
<polygon fill="white" stroke="#666666" points="870,-111.94 772.25,-111.94 772.25,-92.69 870,-92.69 870,-111.94"/>
<text text-anchor="middle" x="821.12" y="-98.44" font-family="Helvetica,sans-Serif" font-size="10.00">Compute_Centroid</text>
</a>
</g>
</g>
<!-- Node11&#45;&gt;Node13 -->
<g id="edge12_Node000011_Node000013" class="edge">
<title>Node11&#45;&gt;Node13</title>
<g id="a_edge12_Node000011_Node000013"><a xlink:title=" ">
<path fill="none" stroke="#63b8ff" d="M676.29,-168.22C684.58,-165.9 693.13,-163.25 701,-160.32 733.34,-148.28 768.69,-130.43 792.41,-117.72"/>
<polygon fill="#63b8ff" stroke="#63b8ff" points="793.99,-120.84 801.11,-113 790.65,-114.69 793.99,-120.84"/>
</a>
</g>
</g>
<!-- Node14 -->
<g id="Node000014" class="node">
<title>Node14</title>
<g id="a_Node000014"><a xlink:href="../../d3/d82/_c_type___elliptic___grid_8cpp_a9d9acf133a5b966f0cbd16a2c57a7d79.html#a9d9acf133a5b966f0cbd16a2c57a7d79" target="_top" xlink:title=" ">
<polygon fill="white" stroke="#666666" points="970.05,-73.94 941.25,-73.94 941.25,-54.69 970.05,-54.69 970.05,-73.94"/>
<text text-anchor="middle" x="955.65" y="-60.44" font-family="Helvetica,sans-Serif" font-size="10.00">x</text>
</a>
</g>
</g>
<!-- Node13&#45;&gt;Node14 -->
<g id="edge13_Node000013_Node000014" class="edge">
<title>Node13&#45;&gt;Node14</title>
<g id="a_edge13_Node000013_Node000014"><a xlink:title=" ">
<path fill="none" stroke="#63b8ff" d="M857.29,-92.23C880.24,-85.65 909.62,-77.23 930.08,-71.36"/>
<polygon fill="#63b8ff" stroke="#63b8ff" points="930.87,-74.78 939.52,-68.65 928.94,-68.05 930.87,-74.78"/>
</a>
</g>
</g>
<!-- Node15 -->
<g id="Node000015" class="node">
<title>Node15</title>
<g id="a_Node000015"><a xlink:href="../../d3/d82/_c_type___elliptic___grid_8cpp_aae4b761a64c952b4c008655d1dc59a12.html#aae4b761a64c952b4c008655d1dc59a12" target="_top" xlink:title=" ">
<polygon fill="white" stroke="#666666" points="970.05,-149.94 941.25,-149.94 941.25,-130.69 970.05,-130.69 970.05,-149.94"/>
<text text-anchor="middle" x="955.65" y="-136.44" font-family="Helvetica,sans-Serif" font-size="10.00">y</text>
</a>
</g>
</g>
<!-- Node13&#45;&gt;Node15 -->
<g id="edge14_Node000013_Node000015" class="edge">
<title>Node13&#45;&gt;Node15</title>
<g id="a_edge14_Node000013_Node000015"><a xlink:title=" ">
<path fill="none" stroke="#63b8ff" d="M857.29,-112.4C880.24,-118.98 909.62,-127.41 930.08,-133.27"/>
<polygon fill="#63b8ff" stroke="#63b8ff" points="928.94,-136.59 939.52,-135.98 930.87,-129.86 928.94,-136.59"/>
</a>
</g>
</g>
<!-- Node17 -->
<g id="Node000017" class="node">
<title>Node17</title>
<g id="a_Node000017"><a xlink:href="../../d0/ded/_read___gmsh___file_8cpp_af5022e986434a24c3f27a650cf4aeb76.html#af5022e986434a24c3f27a650cf4aeb76" target="_top" xlink:title=" ">
<polygon fill="white" stroke="#666666" points="342.75,-244.94 255.5,-244.94 255.5,-225.69 342.75,-225.69 342.75,-244.94"/>
<text text-anchor="middle" x="299.12" y="-231.44" font-family="Helvetica,sans-Serif" font-size="10.00">Read_VTK_Grid</text>
</a>
</g>
</g>
<!-- Node16&#45;&gt;Node17 -->
<g id="edge16_Node000016_Node000017" class="edge">
<title>Node16&#45;&gt;Node17</title>
<g id="a_edge16_Node000016_Node000017"><a xlink:title=" ">
<path fill="none" stroke="#63b8ff" d="M216.18,-235.32C225.32,-235.32 234.77,-235.32 243.86,-235.32"/>
<polygon fill="#63b8ff" stroke="#63b8ff" points="243.62,-238.82 253.62,-235.32 243.62,-231.82 243.62,-238.82"/>
</a>
</g>
</g>
<!-- Node17&#45;&gt;Node3 -->
<g id="edge17_Node000017_Node000003" class="edge">
<title>Node17&#45;&gt;Node3</title>
<g id="a_edge17_Node000017_Node000003"><a xlink:title=" ">
<path fill="none" stroke="#63b8ff" d="M319.34,-245.42C335.77,-253.76 360.22,-265.45 382.5,-273.32 390.3,-276.07 398.72,-278.58 406.95,-280.8"/>
<polygon fill="#63b8ff" stroke="#63b8ff" points="405.95,-284.15 416.51,-283.25 407.69,-277.37 405.95,-284.15"/>
</a>
</g>
</g>
<!-- Node17&#45;&gt;Node5 -->
<g id="edge18_Node000017_Node000005" class="edge">
<title>Node17&#45;&gt;Node5</title>
<g id="a_edge18_Node000017_Node000005"><a xlink:title=" ">
<path fill="none" stroke="#63b8ff" d="M342.99,-240.61C351.74,-241.69 361.24,-242.86 370.86,-244.05"/>
<polygon fill="#63b8ff" stroke="#63b8ff" points="370.33,-247.51 380.68,-245.26 371.19,-240.56 370.33,-247.51"/>
</a>
</g>
</g>
<!-- Node17&#45;&gt;Node8 -->
<g id="edge19_Node000017_Node000008" class="edge">
<title>Node17&#45;&gt;Node8</title>
<g id="a_edge19_Node000017_Node000008"><a xlink:title=" ">
<path fill="none" stroke="#63b8ff" d="M308.5,-245.24C322.37,-261.1 351.65,-292.19 382.5,-310.32 384.66,-311.58 386.89,-312.79 389.17,-313.95"/>
<polygon fill="#63b8ff" stroke="#63b8ff" points="387.53,-317.05 398.08,-318.05 390.46,-310.69 387.53,-317.05"/>
</a>
</g>
</g>
<!-- Node17&#45;&gt;Node9 -->
<g id="edge23_Node000017_Node000009" class="edge">
<title>Node17&#45;&gt;Node9</title>
<g id="a_edge23_Node000017_Node000009"><a xlink:title=" ">
<path fill="none" stroke="#63b8ff" d="M306.56,-245.33C320.2,-266.45 353.18,-317.04 382.5,-358.32 401.55,-385.13 424.59,-415.38 439.27,-434.39"/>
<polygon fill="#63b8ff" stroke="#63b8ff" points="436.48,-436.51 445.38,-442.27 442.02,-432.22 436.48,-436.51"/>
</a>
</g>
</g>
<!-- Node17&#45;&gt;Node14 -->
<g id="edge25_Node000017_Node000014" class="edge">
<title>Node17&#45;&gt;Node14</title>
<g id="a_edge25_Node000017_Node000014"><a xlink:title=" ">
<path fill="none" stroke="#63b8ff" d="M303.01,-225.47C311.18,-199.18 336.89,-126.58 382.5,-85.32 447.33,-26.67 477.84,-25.78 563.5,-8.32 701.16,19.75 868.9,-32.93 930.49,-55.12"/>
<polygon fill="#63b8ff" stroke="#63b8ff" points="929.03,-58.32 939.62,-58.48 931.44,-51.75 929.03,-58.32"/>
</a>
</g>
</g>
<!-- Node17&#45;&gt;Node15 -->
<g id="edge26_Node000017_Node000015" class="edge">
<title>Node17&#45;&gt;Node15</title>
<g id="a_edge26_Node000017_Node000015"><a xlink:title=" ">
<path fill="none" stroke="#63b8ff" d="M343.18,-234.53C473.07,-231.89 855.25,-222.07 905.25,-197.32 921.73,-189.16 935,-172.79 943.62,-159.68"/>
<polygon fill="#63b8ff" stroke="#63b8ff" points="946.47,-161.73 948.71,-151.38 940.5,-158.07 946.47,-161.73"/>
</a>
</g>
</g>
<!-- Node18 -->
<g id="Node000018" class="node">
<title>Node18</title>
<g id="a_Node000018"><a xlink:href="../../d0/ded/_read___gmsh___file_8cpp_aa3cbdec71b7c56f603b53acd3ce5a070.html#aa3cbdec71b7c56f603b53acd3ce5a070" target="_top" xlink:title=" ">
<polygon fill="white" stroke="#666666" points="493,-187.94 417,-187.94 417,-168.69 493,-168.69 493,-187.94"/>
<text text-anchor="middle" x="455" y="-174.44" font-family="Helvetica,sans-Serif" font-size="10.00">Identify_Cells</text>
</a>
</g>
</g>
<!-- Node17&#45;&gt;Node18 -->
<g id="edge20_Node000017_Node000018" class="edge">
<title>Node17&#45;&gt;Node18</title>
<g id="a_edge20_Node000017_Node000018"><a xlink:title=" ">
<path fill="none" stroke="#63b8ff" d="M324.13,-225.28C340.49,-218.54 362.69,-209.6 382.5,-202.32 392.05,-198.8 402.4,-195.21 412.17,-191.91"/>
<polygon fill="#63b8ff" stroke="#63b8ff" points="413.08,-195.3 421.46,-188.81 410.87,-188.66 413.08,-195.3"/>
</a>
</g>
</g>
<!-- Node19 -->
<g id="Node000019" class="node">
<title>Node19</title>
<g id="a_Node000019"><a xlink:href="../../dc/d3a/src_2_utility___files_8cpp_abf34e0b480f7580b0cd4237a76aed670.html#abf34e0b480f7580b0cd4237a76aed670" target="_top" xlink:title=" ">
<polygon fill="white" stroke="#666666" points="473.12,-150.94 436.88,-150.94 436.88,-131.69 473.12,-131.69 473.12,-150.94"/>
<text text-anchor="middle" x="455" y="-137.44" font-family="Helvetica,sans-Serif" font-size="10.00">Print</text>
</a>
</g>
</g>
<!-- Node17&#45;&gt;Node19 -->
<g id="edge24_Node000017_Node000019" class="edge">
<title>Node17&#45;&gt;Node19</title>
<g id="a_edge24_Node000017_Node000019"><a xlink:title=" ">
<path fill="none" stroke="#63b8ff" d="M308.09,-225.24C321.61,-208.85 350.67,-176.54 382.5,-159.32 395.74,-152.16 411.89,-147.78 425.5,-145.13"/>
<polygon fill="#63b8ff" stroke="#63b8ff" points="425.9,-148.62 435.17,-143.49 424.72,-141.72 425.9,-148.62"/>
</a>
</g>
</g>
<!-- Node18&#45;&gt;Node7 -->
<g id="edge21_Node000018_Node000007" class="edge">
<title>Node18&#45;&gt;Node7</title>
<g id="a_edge21_Node000018_Node000007"><a xlink:title=" ">
<path fill="none" stroke="#63b8ff" d="M493.17,-170.47C518.51,-165.12 552.4,-157.96 580.26,-152.08"/>
<polygon fill="#63b8ff" stroke="#63b8ff" points="580.85,-155.53 589.91,-150.04 579.41,-148.69 580.85,-155.53"/>
</a>
</g>
</g>
<!-- Node18&#45;&gt;Node11 -->
<g id="edge22_Node000018_Node000011" class="edge">
<title>Node18&#45;&gt;Node11</title>
<g id="a_edge22_Node000018_Node000011"><a xlink:title=" ">
<path fill="none" stroke="#63b8ff" d="M493.17,-178.32C510.29,-178.32 531.32,-178.32 551.75,-178.32"/>
<polygon fill="#63b8ff" stroke="#63b8ff" points="551.49,-181.82 561.49,-178.32 551.49,-174.82 551.49,-181.82"/>
</a>
</g>
</g>
<!-- Node20&#45;&gt;Node4 -->
<g id="edge28_Node000020_Node000004" class="edge">
<title>Node20&#45;&gt;Node4</title>
<g id="a_edge28_Node000020_Node000004"><a xlink:title=" ">
<path fill="none" stroke="#63b8ff" d="M486.68,-105C500.87,-106.9 516.89,-111.57 527.5,-122.32 575.98,-171.41 532.54,-211.66 563.5,-273.32 575.78,-297.79 596.79,-321.27 612.17,-336.59"/>
<polygon fill="#63b8ff" stroke="#63b8ff" points="609.33,-338.72 618.95,-343.17 614.2,-333.69 609.33,-338.72"/>
</a>
</g>
</g>
<!-- Node20&#45;&gt;Node7 -->
<g id="edge29_Node000020_Node000007" class="edge">
<title>Node20&#45;&gt;Node7</title>
<g id="a_edge29_Node000020_Node000007"><a xlink:title=" ">
<path fill="none" stroke="#63b8ff" d="M486.53,-110.76C512.27,-116.2 549.65,-124.09 579.97,-130.49"/>
<polygon fill="#63b8ff" stroke="#63b8ff" points="579.22,-133.91 589.73,-132.55 580.67,-127.06 579.22,-133.91"/>
</a>
</g>
</g>
<!-- Node20&#45;&gt;Node11 -->
<g id="edge31_Node000020_Node000011" class="edge">
<title>Node20&#45;&gt;Node11</title>
<g id="a_edge31_Node000020_Node000011"><a xlink:title=" ">
<path fill="none" stroke="#63b8ff" d="M486.67,-108.12C499.89,-110.72 515.13,-115.07 527.5,-122.32 547.58,-134.07 543.5,-148.43 563.5,-160.32 565.67,-161.6 567.93,-162.8 570.25,-163.91"/>
<polygon fill="#63b8ff" stroke="#63b8ff" points="568.78,-167.09 579.36,-167.69 571.47,-160.63 568.78,-167.09"/>
</a>
</g>
</g>
<!-- Node20&#45;&gt;Node14 -->
<g id="edge32_Node000020_Node000014" class="edge">
<title>Node20&#45;&gt;Node14</title>
<g id="a_edge32_Node000020_Node000014"><a xlink:title=" ">
<path fill="none" stroke="#63b8ff" d="M486.44,-101.87C577.35,-94.58 845.72,-73.05 929.42,-66.34"/>
<polygon fill="#63b8ff" stroke="#63b8ff" points="929.61,-69.84 939.3,-65.55 929.05,-62.86 929.61,-69.84"/>
</a>
</g>
</g>
<!-- Node20&#45;&gt;Node15 -->
<g id="edge33_Node000020_Node000015" class="edge">
<title>Node20&#45;&gt;Node15</title>
<g id="a_edge33_Node000020_Node000015"><a xlink:title=" ">
<path fill="none" stroke="#63b8ff" d="M486.44,-106.51C577.35,-113.08 845.72,-132.45 929.42,-138.5"/>
<polygon fill="#63b8ff" stroke="#63b8ff" points="929.07,-141.98 939.3,-139.21 929.57,-135 929.07,-141.98"/>
</a>
</g>
</g>
<!-- Node21 -->
<g id="Node000021" class="node">
<title>Node21</title>
<g id="a_Node000021"><a xlink:href="../../d8/d40/_grid___computations_8cpp_aa376223dcb91990013ac6549090115ea.html#aa376223dcb91990013ac6549090115ea" target="_top" xlink:title=" ">
<polygon fill="white" stroke="#666666" points="681.5,-36.94 583,-36.94 583,-17.69 681.5,-17.69 681.5,-36.94"/>
<text text-anchor="middle" x="632.25" y="-23.44" font-family="Helvetica,sans-Serif" font-size="10.00">Conversion_Factor</text>
</a>
</g>
</g>
<!-- Node20&#45;&gt;Node21 -->
<g id="edge30_Node000020_Node000021" class="edge">
<title>Node20&#45;&gt;Node21</title>
<g id="a_edge30_Node000020_Node000021"><a xlink:title=" ">
<path fill="none" stroke="#63b8ff" d="M474.72,-94.25C495.92,-83.04 531.68,-64.74 563.5,-51.32 571.83,-47.8 580.86,-44.36 589.54,-41.22"/>
<polygon fill="#63b8ff" stroke="#63b8ff" points="590.58,-44.57 598.84,-37.94 588.24,-37.97 590.58,-44.57"/>
</a>
</g>
</g>
</g>
</svg>
