<?xml version="1.0" encoding="UTF-8" standalone="no"?>
<!DOCTYPE svg PUBLIC "-//W3C//DTD SVG 1.1//EN"
 "http://www.w3.org/Graphics/SVG/1.1/DTD/svg11.dtd">
<!-- Generated by graphviz version 12.2.1 (20241206.2353)
 -->
<!-- Title: Calculate_Vertex_Average Pages: 1 -->
<svg width="945pt" height="150pt"
 viewBox="0.00 0.00 945.00 149.88" xmlns="http://www.w3.org/2000/svg" xmlns:xlink="http://www.w3.org/1999/xlink">
<g id="graph0" class="graph" transform="scale(1 1) rotate(0) translate(4 145.88)">
<title>Calculate_Vertex_Average</title>
<!-- Node1 -->
<g id="Node000001" class="node">
<title>Node1</title>
<g id="a_Node000001"><a xlink:title=" ">
<polygon fill="#999999" stroke="#666666" points="937,-52.25 804.75,-52.25 804.75,-33 937,-33 937,-52.25"/>
<text text-anchor="middle" x="870.88" y="-38.75" font-family="Helvetica,sans-Serif" font-size="10.00">Calculate_Vertex_Average</text>
</a>
</g>
</g>
<!-- Node2 -->
<g id="Node000002" class="node">
<title>Node2</title>
<g id="a_Node000002"><a xlink:href="../../d4/d5d/_grid___refine___functions_8cpp_a82a2c55106b4dfc3af8c36a285ee05b6.html#a82a2c55106b4dfc3af8c36a285ee05b6" target="_top" xlink:title="Calculate the gradient on a face of a cell.">
<polygon fill="white" stroke="#666666" points="752.25,-79.88 653,-79.88 653,-49.38 752.25,-49.38 752.25,-79.88"/>
<text text-anchor="start" x="661" y="-66.38" font-family="Helvetica,sans-Serif" font-size="10.00">Calculate_Gradient</text>
<text text-anchor="middle" x="702.62" y="-55.12" font-family="Helvetica,sans-Serif" font-size="10.00">_On_Face</text>
</a>
</g>
</g>
<!-- Node1&#45;&gt;Node2 -->
<g id="edge1_Node000001_Node000002" class="edge">
<title>Node1&#45;&gt;Node2</title>
<g id="a_edge1_Node000001_Node000002"><a xlink:title=" ">
<path fill="none" stroke="#63b8ff" d="M793.59,-52.72C779.71,-54.56 765.56,-56.43 752.73,-58.13"/>
<polygon fill="#63b8ff" stroke="#63b8ff" points="793.69,-56.24 803.15,-51.46 792.77,-49.3 793.69,-56.24"/>
</a>
</g>
</g>
<!-- Node14 -->
<g id="Node000014" class="node">
<title>Node14</title>
<g id="a_Node000014"><a xlink:href="../../d4/d5d/_grid___refine___functions_8cpp_ab537e55cc7776a6b3c3d56948b88b316.html#ab537e55cc7776a6b3c3d56948b88b316" target="_top" xlink:title=" ">
<polygon fill="white" stroke="#666666" points="768.75,-31.25 636.5,-31.25 636.5,-12 768.75,-12 768.75,-31.25"/>
<text text-anchor="middle" x="702.62" y="-17.75" font-family="Helvetica,sans-Serif" font-size="10.00">Calculate_Vertex_Average</text>
</a>
</g>
</g>
<!-- Node1&#45;&gt;Node14 -->
<g id="edge15_Node000001_Node000014" class="edge">
<title>Node1&#45;&gt;Node14</title>
<g id="a_edge15_Node000001_Node000014"><a xlink:title=" ">
<path fill="none" stroke="#63b8ff" d="M793.34,-32.96C785.28,-31.94 777.13,-30.91 769.21,-29.91"/>
<polygon fill="#63b8ff" stroke="#63b8ff" points="792.78,-36.41 803.14,-34.2 793.66,-29.47 792.78,-36.41"/>
</a>
</g>
</g>
<!-- Node3 -->
<g id="Node000003" class="node">
<title>Node3</title>
<g id="a_Node000003"><a xlink:href="../../db/d81/_viscous___calculations_8cpp_a5d9a0b19b8197154141a02ed0e831e26.html#a5d9a0b19b8197154141a02ed0e831e26" target="_top" xlink:title=" ">
<polygon fill="white" stroke="#666666" points="590.75,-141.88 487.75,-141.88 487.75,-111.38 590.75,-111.38 590.75,-141.88"/>
<text text-anchor="start" x="495.75" y="-128.38" font-family="Helvetica,sans-Serif" font-size="10.00">Evaluate_Wall_Skin</text>
<text text-anchor="middle" x="539.25" y="-117.12" font-family="Helvetica,sans-Serif" font-size="10.00">_Friction</text>
</a>
</g>
</g>
<!-- Node2&#45;&gt;Node3 -->
<g id="edge2_Node000002_Node000003" class="edge">
<title>Node2&#45;&gt;Node3</title>
<g id="a_edge2_Node000002_Node000003"><a xlink:title=" ">
<path fill="none" stroke="#63b8ff" d="M650.27,-84.35C627.98,-92.92 602.22,-102.82 581.24,-110.88"/>
<polygon fill="#63b8ff" stroke="#63b8ff" points="651.41,-87.67 659.49,-80.81 648.9,-81.13 651.41,-87.67"/>
</a>
</g>
</g>
<!-- Node8 -->
<g id="Node000008" class="node">
<title>Node8</title>
<g id="a_Node000008"><a xlink:href="../../df/d57/_implicit___momentum_8cpp_a50230f674dde72ccf48cc520de73d726.html#a50230f674dde72ccf48cc520de73d726" target="_top" xlink:title=" ">
<polygon fill="white" stroke="#666666" points="600.5,-93.25 478,-93.25 478,-74 600.5,-74 600.5,-93.25"/>
<text text-anchor="middle" x="539.25" y="-79.75" font-family="Helvetica,sans-Serif" font-size="10.00">Velocity_Corrector_Step</text>
</a>
</g>
</g>
<!-- Node2&#45;&gt;Node8 -->
<g id="edge7_Node000002_Node000008" class="edge">
<title>Node2&#45;&gt;Node8</title>
<g id="a_edge7_Node000002_Node000008"><a xlink:title=" ">
<path fill="none" stroke="#63b8ff" d="M641.39,-71.72C628.17,-73.27 614.17,-74.92 600.93,-76.48"/>
<polygon fill="#63b8ff" stroke="#63b8ff" points="641.74,-75.2 651.27,-70.55 640.93,-68.25 641.74,-75.2"/>
</a>
</g>
</g>
<!-- Node10 -->
<g id="Node000010" class="node">
<title>Node10</title>
<g id="a_Node000010"><a xlink:href="../../df/d57/_implicit___momentum_8cpp_a720a0d00cec4bc0ffdc40e69de036355.html#a720a0d00cec4bc0ffdc40e69de036355" target="_top" xlink:title=" ">
<polygon fill="white" stroke="#666666" points="599.75,-56.25 478.75,-56.25 478.75,-37 599.75,-37 599.75,-56.25"/>
<text text-anchor="middle" x="539.25" y="-42.75" font-family="Helvetica,sans-Serif" font-size="10.00">Velocity_Predictor_Step</text>
</a>
</g>
</g>
<!-- Node2&#45;&gt;Node10 -->
<g id="edge9_Node000002_Node000010" class="edge">
<title>Node2&#45;&gt;Node10</title>
<g id="a_edge9_Node000002_Node000010"><a xlink:title=" ">
<path fill="none" stroke="#63b8ff" d="M641.6,-57.93C628.03,-56.42 613.62,-54.81 600.05,-53.3"/>
<polygon fill="#63b8ff" stroke="#63b8ff" points="640.94,-61.38 651.27,-59.01 641.71,-54.42 640.94,-61.38"/>
</a>
</g>
</g>
<!-- Node11 -->
<g id="Node000011" class="node">
<title>Node11</title>
<g id="a_Node000011"><a xlink:href="../../d4/d5d/_grid___refine___functions_8cpp_a3a0810f5dcad0d068c35cb8aa9180be4.html#a3a0810f5dcad0d068c35cb8aa9180be4" target="_top" xlink:title=" ">
<polygon fill="white" stroke="#666666" points="598.25,-19.25 480.25,-19.25 480.25,0 598.25,0 598.25,-19.25"/>
<text text-anchor="middle" x="539.25" y="-5.75" font-family="Helvetica,sans-Serif" font-size="10.00">Viscous_Flux_on_Face</text>
</a>
</g>
</g>
<!-- Node2&#45;&gt;Node11 -->
<g id="edge11_Node000002_Node000011" class="edge">
<title>Node2&#45;&gt;Node11</title>
<g id="a_edge11_Node000002_Node000011"><a xlink:title=" ">
<path fill="none" stroke="#63b8ff" d="M648.6,-45.07C626.9,-37.09 605.65,-29.33 600.5,-27.62 592.42,-24.94 583.67,-22.22 575.41,-19.74"/>
<polygon fill="#63b8ff" stroke="#63b8ff" points="647.21,-48.28 657.8,-48.45 649.62,-41.71 647.21,-48.28"/>
</a>
</g>
</g>
<!-- Node4 -->
<g id="Node000004" class="node">
<title>Node4</title>
<g id="a_Node000004"><a xlink:href="../../de/df0/_solver_8cpp_a313c308da18b517cb3cf0384db6d4d7e.html#a313c308da18b517cb3cf0384db6d4d7e" target="_top" xlink:title=" ">
<polygon fill="white" stroke="#666666" points="263.62,-99.25 179.38,-99.25 179.38,-80 263.62,-80 263.62,-99.25"/>
<text text-anchor="middle" x="221.5" y="-85.75" font-family="Helvetica,sans-Serif" font-size="10.00">Viscous_Solver</text>
</a>
</g>
</g>
<!-- Node3&#45;&gt;Node4 -->
<g id="edge3_Node000003_Node000004" class="edge">
<title>Node3&#45;&gt;Node4</title>
<g id="a_edge3_Node000003_Node000004"><a xlink:title=" ">
<path fill="none" stroke="#63b8ff" d="M475.87,-126.41C430.4,-125.43 367.43,-122.38 312.75,-113.62 292.9,-110.45 271.1,-104.72 253.91,-99.65"/>
<polygon fill="#63b8ff" stroke="#63b8ff" points="475.76,-129.91 485.82,-126.59 475.89,-122.91 475.76,-129.91"/>
</a>
</g>
</g>
<!-- Node7 -->
<g id="Node000007" class="node">
<title>Node7</title>
<g id="a_Node000007"><a xlink:href="../../d4/df3/_turbulence___integration_8cpp_a564537a29550f0d8ec11e8ef76cd2b3a.html#a564537a29550f0d8ec11e8ef76cd2b3a" target="_top" xlink:title="Modified viscous solver with turbulence model integration.">
<polygon fill="white" stroke="#666666" points="432.25,-104.88 322.5,-104.88 322.5,-74.38 432.25,-74.38 432.25,-104.88"/>
<text text-anchor="start" x="330.5" y="-91.38" font-family="Helvetica,sans-Serif" font-size="10.00">Viscous_Solver_With</text>
<text text-anchor="middle" x="377.38" y="-80.12" font-family="Helvetica,sans-Serif" font-size="10.00">_Turbulence</text>
</a>
</g>
</g>
<!-- Node3&#45;&gt;Node7 -->
<g id="edge6_Node000003_Node000007" class="edge">
<title>Node3&#45;&gt;Node7</title>
<g id="a_edge6_Node000003_Node000007"><a xlink:title=" ">
<path fill="none" stroke="#63b8ff" d="M476.72,-112.39C462.15,-109.01 446.72,-105.44 432.5,-102.15"/>
<polygon fill="#63b8ff" stroke="#63b8ff" points="475.66,-115.73 486.19,-114.58 477.24,-108.91 475.66,-115.73"/>
</a>
</g>
</g>
<!-- Node5 -->
<g id="Node000005" class="node">
<title>Node5</title>
<g id="a_Node000005"><a xlink:href="../../d5/d12/_main_8cpp_afed4dca88e059a8cbd2c7af524468fe5.html#afed4dca88e059a8cbd2c7af524468fe5" target="_top" xlink:title="Executes the appropriate solver based on the simulation configuration.">
<polygon fill="white" stroke="#666666" points="130.25,-99.25 73,-99.25 73,-80 130.25,-80 130.25,-99.25"/>
<text text-anchor="middle" x="101.62" y="-85.75" font-family="Helvetica,sans-Serif" font-size="10.00">runSolver</text>
</a>
</g>
</g>
<!-- Node4&#45;&gt;Node5 -->
<g id="edge4_Node000004_Node000005" class="edge">
<title>Node4&#45;&gt;Node5</title>
<g id="a_edge4_Node000004_Node000005"><a xlink:title=" ">
<path fill="none" stroke="#63b8ff" d="M167.81,-89.62C154.96,-89.62 141.7,-89.62 130.53,-89.62"/>
<polygon fill="#63b8ff" stroke="#63b8ff" points="167.43,-93.13 177.43,-89.63 167.43,-86.13 167.43,-93.13"/>
</a>
</g>
</g>
<!-- Node6 -->
<g id="Node000006" class="node">
<title>Node6</title>
<g id="a_Node000006"><a xlink:href="../../d5/d12/_main_8cpp_a0ddf1224851353fc92bfbff6f499fa97.html#a0ddf1224851353fc92bfbff6f499fa97" target="_top" xlink:title=" ">
<polygon fill="white" stroke="#666666" points="37,-99.25 0,-99.25 0,-80 37,-80 37,-99.25"/>
<text text-anchor="middle" x="18.5" y="-85.75" font-family="Helvetica,sans-Serif" font-size="10.00">main</text>
</a>
</g>
</g>
<!-- Node5&#45;&gt;Node6 -->
<g id="edge5_Node000005_Node000006" class="edge">
<title>Node5&#45;&gt;Node6</title>
<g id="a_edge5_Node000005_Node000006"><a xlink:title=" ">
<path fill="none" stroke="#63b8ff" d="M61.38,-89.62C52.95,-89.62 44.43,-89.62 37.3,-89.62"/>
<polygon fill="#63b8ff" stroke="#63b8ff" points="61.19,-93.13 71.19,-89.63 61.19,-86.13 61.19,-93.13"/>
</a>
</g>
</g>
<!-- Node9 -->
<g id="Node000009" class="node">
<title>Node9</title>
<g id="a_Node000009"><a xlink:href="../../d4/d86/_incompressible___n_s_8cpp_a5e9f0a5f022b6318f83dd5a762785d1f.html#a5e9f0a5f022b6318f83dd5a762785d1f" target="_top" xlink:title=" ">
<polygon fill="white" stroke="#666666" points="433.38,-56.25 321.38,-56.25 321.38,-37 433.38,-37 433.38,-56.25"/>
<text text-anchor="middle" x="377.38" y="-42.75" font-family="Helvetica,sans-Serif" font-size="10.00">InCompressibleSolver</text>
</a>
</g>
</g>
<!-- Node8&#45;&gt;Node9 -->
<g id="edge8_Node000008_Node000009" class="edge">
<title>Node8&#45;&gt;Node9</title>
<g id="a_edge8_Node000008_Node000009"><a xlink:title=" ">
<path fill="none" stroke="#63b8ff" d="M483.39,-70.93C463.34,-66.29 440.95,-61.11 422.01,-56.72"/>
<polygon fill="#63b8ff" stroke="#63b8ff" points="482.56,-74.33 493.09,-73.17 484.14,-67.51 482.56,-74.33"/>
</a>
</g>
</g>
<!-- Node10&#45;&gt;Node9 -->
<g id="edge10_Node000010_Node000009" class="edge">
<title>Node10&#45;&gt;Node9</title>
<g id="a_edge10_Node000010_Node000009"><a xlink:title=" ">
<path fill="none" stroke="#63b8ff" d="M466.8,-46.62C455.69,-46.62 444.36,-46.62 433.68,-46.62"/>
<polygon fill="#63b8ff" stroke="#63b8ff" points="466.75,-50.13 476.75,-46.63 466.75,-43.13 466.75,-50.13"/>
</a>
</g>
</g>
<!-- Node12 -->
<g id="Node000012" class="node">
<title>Node12</title>
<g id="a_Node000012"><a xlink:href="../../d4/d5d/_grid___refine___functions_8cpp_a23f2145125f9b089e43c4c69c4a8905c.html#a23f2145125f9b089e43c4c69c4a8905c" target="_top" xlink:title=" ">
<polygon fill="white" stroke="#666666" points="442,-19.25 312.75,-19.25 312.75,0 442,0 442,-19.25"/>
<text text-anchor="middle" x="377.38" y="-5.75" font-family="Helvetica,sans-Serif" font-size="10.00">Evaluate_Viscous_Fluxes</text>
</a>
</g>
</g>
<!-- Node11&#45;&gt;Node12 -->
<g id="edge12_Node000011_Node000012" class="edge">
<title>Node11&#45;&gt;Node12</title>
<g id="a_edge12_Node000011_Node000012"><a xlink:title=" ">
<path fill="none" stroke="#63b8ff" d="M468.73,-9.62C460,-9.62 451.09,-9.62 442.45,-9.62"/>
<polygon fill="#63b8ff" stroke="#63b8ff" points="468.57,-13.13 478.57,-9.63 468.57,-6.13 468.57,-13.13"/>
</a>
</g>
</g>
<!-- Node12&#45;&gt;Node4 -->
<g id="edge14_Node000012_Node000004" class="edge">
<title>Node12&#45;&gt;Node4</title>
<g id="a_edge14_Node000012_Node000004"><a xlink:title=" ">
<path fill="none" stroke="#63b8ff" d="M322.96,-23.33C319.45,-24.66 316.02,-26.09 312.75,-27.62 282.29,-41.92 250.81,-66.09 234.28,-79.64"/>
<polygon fill="#63b8ff" stroke="#63b8ff" points="323.84,-26.73 332.15,-20.15 321.55,-20.11 323.84,-26.73"/>
</a>
</g>
</g>
<!-- Node13 -->
<g id="Node000013" class="node">
<title>Node13</title>
<g id="a_Node000013"><a xlink:href="../../de/d22/_cuda___parallel___r_k_8cpp_a794f030971fbb7c9dd4bc08df03f50f1.html#a794f030971fbb7c9dd4bc08df03f50f1" target="_top" xlink:title=" ">
<polygon fill="white" stroke="#666666" points="276.75,-19.25 166.25,-19.25 166.25,0 276.75,0 276.75,-19.25"/>
<text text-anchor="middle" x="221.5" y="-5.75" font-family="Helvetica,sans-Serif" font-size="10.00">Runge_Kutta_Method</text>
</a>
</g>
</g>
<!-- Node12&#45;&gt;Node13 -->
<g id="edge13_Node000012_Node000013" class="edge">
<title>Node12&#45;&gt;Node13</title>
<g id="a_edge13_Node000012_Node000013"><a xlink:title=" ">
<path fill="none" stroke="#63b8ff" d="M301.1,-9.62C293.03,-9.62 284.93,-9.62 277.17,-9.62"/>
<polygon fill="#63b8ff" stroke="#63b8ff" points="300.94,-13.13 310.94,-9.63 300.94,-6.13 300.94,-13.13"/>
</a>
</g>
</g>
</g>
</svg>
