<?xml version="1.0" encoding="UTF-8" standalone="no"?>
<!DOCTYPE svg PUBLIC "-//W3C//DTD SVG 1.1//EN"
 "http://www.w3.org/Graphics/SVG/1.1/DTD/svg11.dtd">
<!-- Generated by graphviz version 12.2.1 (20241206.2353)
 -->
<!-- Title: Read_CSV_Mesh Pages: 1 -->
<svg width="553pt" height="316pt"
 viewBox="0.00 0.00 552.80 316.25" xmlns="http://www.w3.org/2000/svg" xmlns:xlink="http://www.w3.org/1999/xlink">
<g id="graph0" class="graph" transform="scale(1 1) rotate(0) translate(4 312.25)">
<title>Read_CSV_Mesh</title>
<!-- Node1 -->
<g id="Node000001" class="node">
<title>Node1</title>
<g id="a_Node000001"><a xlink:title=" ">
<polygon fill="#999999" stroke="#666666" points="94.75,-197.25 0,-197.25 0,-178 94.75,-178 94.75,-197.25"/>
<text text-anchor="middle" x="47.37" y="-183.75" font-family="Helvetica,sans-Serif" font-size="10.00">Read_CSV_Mesh</text>
</a>
</g>
</g>
<!-- Node2 -->
<g id="Node000002" class="node">
<title>Node2</title>
<g id="a_Node000002"><a xlink:href="../../d0/ded/_read___gmsh___file_8cpp_ae9fe416efcf214282b13d235773a6bf6.html#ae9fe416efcf214282b13d235773a6bf6" target="_top" xlink:title=" ">
<polygon fill="white" stroke="#666666" points="240.12,-308.25 166.37,-308.25 166.37,-289 240.12,-289 240.12,-308.25"/>
<text text-anchor="middle" x="203.25" y="-294.75" font-family="Helvetica,sans-Serif" font-size="10.00">BoundingBox</text>
</a>
</g>
</g>
<!-- Node1&#45;&gt;Node2 -->
<g id="edge1_Node000001_Node000002" class="edge">
<title>Node1&#45;&gt;Node2</title>
<g id="a_edge1_Node000001_Node000002"><a xlink:title=" ">
<path fill="none" stroke="#63b8ff" d="M54.24,-197.52C66.13,-216.69 95,-258.89 130.75,-280.62 138.13,-285.11 146.58,-288.48 155.03,-291.01"/>
<polygon fill="#63b8ff" stroke="#63b8ff" points="154.02,-294.37 164.58,-293.5 155.79,-287.59 154.02,-294.37"/>
</a>
</g>
</g>
<!-- Node3 -->
<g id="Node000003" class="node">
<title>Node3</title>
<g id="a_Node000003"><a xlink:href="../../d8/d40/_grid___computations_8cpp_a209db16fba143a9833c8d4021624afb0.html#a209db16fba143a9833c8d4021624afb0" target="_top" xlink:title=" ">
<polygon fill="white" stroke="#666666" points="239.37,-271.25 167.12,-271.25 167.12,-252 239.37,-252 239.37,-271.25"/>
<text text-anchor="middle" x="203.25" y="-257.75" font-family="Helvetica,sans-Serif" font-size="10.00">Check_Cells</text>
</a>
</g>
</g>
<!-- Node1&#45;&gt;Node3 -->
<g id="edge2_Node000001_Node000003" class="edge">
<title>Node1&#45;&gt;Node3</title>
<g id="a_edge2_Node000001_Node000003"><a xlink:title=" ">
<path fill="none" stroke="#63b8ff" d="M60.13,-197.6C75.43,-210.11 103.46,-231.38 130.75,-243.62 138.63,-247.16 147.32,-250.08 155.84,-252.47"/>
<polygon fill="#63b8ff" stroke="#63b8ff" points="154.85,-255.83 165.41,-254.93 156.6,-249.05 154.85,-255.83"/>
</a>
</g>
</g>
<!-- Node4 -->
<g id="Node000004" class="node">
<title>Node4</title>
<g id="a_Node000004"><a xlink:href="../../d0/ded/_read___gmsh___file_8cpp_ab9ea50ddf9e2981b178f5999ddfcb7b3.html#ab9ea50ddf9e2981b178f5999ddfcb7b3" target="_top" xlink:title=" ">
<polygon fill="white" stroke="#666666" points="275.75,-234.25 130.75,-234.25 130.75,-215 275.75,-215 275.75,-234.25"/>
<text text-anchor="middle" x="203.25" y="-220.75" font-family="Helvetica,sans-Serif" font-size="10.00">Classify_Domain_Boundaries</text>
</a>
</g>
</g>
<!-- Node1&#45;&gt;Node4 -->
<g id="edge3_Node000001_Node000004" class="edge">
<title>Node1&#45;&gt;Node4</title>
<g id="a_edge3_Node000001_Node000004"><a xlink:title=" ">
<path fill="none" stroke="#63b8ff" d="M90.42,-197.74C108.57,-202.1 130.01,-207.25 149.23,-211.88"/>
<polygon fill="#63b8ff" stroke="#63b8ff" points="148.24,-215.24 158.78,-214.17 149.88,-208.43 148.24,-215.24"/>
</a>
</g>
</g>
<!-- Node6 -->
<g id="Node000006" class="node">
<title>Node6</title>
<g id="a_Node000006"><a xlink:href="../../d8/d40/_grid___computations_8cpp_a2d284e26ddef582519953e8b8300184e.html#a2d284e26ddef582519953e8b8300184e" target="_top" xlink:title=" ">
<polygon fill="white" stroke="#666666" points="243.87,-197.25 162.62,-197.25 162.62,-178 243.87,-178 243.87,-197.25"/>
<text text-anchor="middle" x="203.25" y="-183.75" font-family="Helvetica,sans-Serif" font-size="10.00">Construct_Cell</text>
</a>
</g>
</g>
<!-- Node1&#45;&gt;Node6 -->
<g id="edge5_Node000001_Node000006" class="edge">
<title>Node1&#45;&gt;Node6</title>
<g id="a_edge5_Node000001_Node000006"><a xlink:title=" ">
<path fill="none" stroke="#63b8ff" d="M94.96,-187.62C112.59,-187.62 132.76,-187.62 150.81,-187.62"/>
<polygon fill="#63b8ff" stroke="#63b8ff" points="150.81,-191.13 160.81,-187.63 150.81,-184.13 150.81,-191.13"/>
</a>
</g>
</g>
<!-- Node7 -->
<g id="Node000007" class="node">
<title>Node7</title>
<g id="a_Node000007"><a xlink:href="../../d0/ded/_read___gmsh___file_8cpp_a4f897fcec439c37558a5d9fd94abf2e0.html#a4f897fcec439c37558a5d9fd94abf2e0" target="_top" xlink:title=" ">
<polygon fill="white" stroke="#666666" points="263,-159.88 143.5,-159.88 143.5,-129.38 263,-129.38 263,-159.88"/>
<text text-anchor="start" x="151.5" y="-146.38" font-family="Helvetica,sans-Serif" font-size="10.00">Create_Boundary_Cells</text>
<text text-anchor="middle" x="203.25" y="-135.12" font-family="Helvetica,sans-Serif" font-size="10.00">_Lists</text>
</a>
</g>
</g>
<!-- Node1&#45;&gt;Node7 -->
<g id="edge6_Node000001_Node000007" class="edge">
<title>Node1&#45;&gt;Node7</title>
<g id="a_edge6_Node000001_Node000007"><a xlink:title=" ">
<path fill="none" stroke="#63b8ff" d="M84.45,-177.54C99.61,-173.31 117.74,-168.24 135.18,-163.37"/>
<polygon fill="#63b8ff" stroke="#63b8ff" points="135.78,-166.83 144.47,-160.77 133.89,-160.09 135.78,-166.83"/>
</a>
</g>
</g>
<!-- Node8 -->
<g id="Node000008" class="node">
<title>Node8</title>
<g id="a_Node000008"><a xlink:href="../../d0/ded/_read___gmsh___file_8cpp_a9ee7224f2c410fa22e26e50b31924869.html#a9ee7224f2c410fa22e26e50b31924869" target="_top" xlink:title=" ">
<polygon fill="white" stroke="#666666" points="254.75,-111.25 151.75,-111.25 151.75,-92 254.75,-92 254.75,-111.25"/>
<text text-anchor="middle" x="203.25" y="-97.75" font-family="Helvetica,sans-Serif" font-size="10.00">Identify_Neighbours</text>
</a>
</g>
</g>
<!-- Node1&#45;&gt;Node8 -->
<g id="edge7_Node000001_Node000008" class="edge">
<title>Node1&#45;&gt;Node8</title>
<g id="a_edge7_Node000001_Node000008"><a xlink:title=" ">
<path fill="none" stroke="#63b8ff" d="M57.55,-177.89C71.83,-163.3 100.86,-135.86 130.75,-120.62 134.46,-118.74 138.37,-117.02 142.38,-115.46"/>
<polygon fill="#63b8ff" stroke="#63b8ff" points="143.43,-118.81 151.72,-112.21 141.12,-112.2 143.43,-118.81"/>
</a>
</g>
</g>
<!-- Node10 -->
<g id="Node000010" class="node">
<title>Node10</title>
<g id="a_Node000010"><a xlink:href="../../d8/d40/_grid___computations_8cpp_a614d9bfab5b0ee048b9e08a296757c42.html#a614d9bfab5b0ee048b9e08a296757c42" target="_top" xlink:title=" ">
<polygon fill="white" stroke="#666666" points="272,-74.25 134.5,-74.25 134.5,-55 272,-55 272,-74.25"/>
<text text-anchor="middle" x="203.25" y="-60.75" font-family="Helvetica,sans-Serif" font-size="10.00">Sort_Points_AntiClockWise</text>
</a>
</g>
</g>
<!-- Node1&#45;&gt;Node10 -->
<g id="edge9_Node000001_Node000010" class="edge">
<title>Node1&#45;&gt;Node10</title>
<g id="a_edge9_Node000001_Node000010"><a xlink:title=" ">
<path fill="none" stroke="#63b8ff" d="M53.22,-177.75C64.04,-156.76 92.28,-107.62 130.75,-82.62 132.6,-81.42 134.53,-80.3 136.51,-79.25"/>
<polygon fill="#63b8ff" stroke="#63b8ff" points="137.75,-82.53 145.43,-75.24 134.88,-76.15 137.75,-82.53"/>
</a>
</g>
</g>
<!-- Node5 -->
<g id="Node000005" class="node">
<title>Node5</title>
<g id="a_Node000005"><a xlink:href="../../d0/ded/_read___gmsh___file_8cpp_a994cf9f1092af359f042b96b997c5adc.html#a994cf9f1092af359f042b96b997c5adc" target="_top" xlink:title=" ">
<polygon fill="white" stroke="#666666" points="448.12,-234.25 343.62,-234.25 343.62,-215 448.12,-215 448.12,-234.25"/>
<text text-anchor="middle" x="395.87" y="-220.75" font-family="Helvetica,sans-Serif" font-size="10.00">Get_Boundary_Type</text>
</a>
</g>
</g>
<!-- Node4&#45;&gt;Node5 -->
<g id="edge4_Node000004_Node000005" class="edge">
<title>Node4&#45;&gt;Node5</title>
<g id="a_edge4_Node000004_Node000005"><a xlink:title=" ">
<path fill="none" stroke="#63b8ff" d="M276.05,-224.62C294.4,-224.62 313.99,-224.62 331.87,-224.62"/>
<polygon fill="#63b8ff" stroke="#63b8ff" points="331.82,-228.13 341.82,-224.63 331.82,-221.13 331.82,-228.13"/>
</a>
</g>
</g>
<!-- Node9 -->
<g id="Node000009" class="node">
<title>Node9</title>
<g id="a_Node000009"><a xlink:href="../../d0/ded/_read___gmsh___file_8cpp_adc1985827312d4d72fa6eb4ce492fc5e.html#adc1985827312d4d72fa6eb4ce492fc5e" target="_top" xlink:title=" ">
<polygon fill="white" stroke="#666666" points="443.25,-111.25 348.5,-111.25 348.5,-92 443.25,-92 443.25,-111.25"/>
<text text-anchor="middle" x="395.87" y="-97.75" font-family="Helvetica,sans-Serif" font-size="10.00">mapFacesToCells</text>
</a>
</g>
</g>
<!-- Node8&#45;&gt;Node9 -->
<g id="edge8_Node000008_Node000009" class="edge">
<title>Node8&#45;&gt;Node9</title>
<g id="a_edge8_Node000008_Node000009"><a xlink:title=" ">
<path fill="none" stroke="#63b8ff" d="M255.08,-101.62C280.26,-101.62 310.76,-101.62 336.85,-101.62"/>
<polygon fill="#63b8ff" stroke="#63b8ff" points="336.59,-105.13 346.59,-101.63 336.59,-98.13 336.59,-105.13"/>
</a>
</g>
</g>
<!-- Node11 -->
<g id="Node000011" class="node">
<title>Node11</title>
<g id="a_Node000011"><a xlink:href="../../d8/d40/_grid___computations_8cpp_a0bdffb27693c14d6cb4ef62eb5bd5d7f.html#a0bdffb27693c14d6cb4ef62eb5bd5d7f" target="_top" xlink:title="Sorts a set of points in anti&#45;clockwise order around their centroid.">
<polygon fill="white" stroke="#666666" points="480,-74.25 311.75,-74.25 311.75,-55 480,-55 480,-74.25"/>
<text text-anchor="middle" x="395.87" y="-60.75" font-family="Helvetica,sans-Serif" font-size="10.00">Are_Points_Sorted_AntiClockWise</text>
</a>
</g>
</g>
<!-- Node10&#45;&gt;Node11 -->
<g id="edge10_Node000010_Node000011" class="edge">
<title>Node10&#45;&gt;Node11</title>
<g id="a_edge10_Node000010_Node000011"><a xlink:title=" ">
<path fill="none" stroke="#63b8ff" d="M272.26,-64.62C281.31,-64.62 290.71,-64.62 300.11,-64.62"/>
<polygon fill="#63b8ff" stroke="#63b8ff" points="300.03,-68.13 310.03,-64.63 300.03,-61.13 300.03,-68.13"/>
</a>
</g>
</g>
<!-- Node12 -->
<g id="Node000012" class="node">
<title>Node12</title>
<g id="a_Node000012"><a xlink:href="../../d8/d40/_grid___computations_8cpp_a4dd07afd2a0f939b4d47bfa1088912c4.html#a4dd07afd2a0f939b4d47bfa1088912c4" target="_top" xlink:title=" ">
<polygon fill="white" stroke="#666666" points="444.75,-37.25 347,-37.25 347,-18 444.75,-18 444.75,-37.25"/>
<text text-anchor="middle" x="395.87" y="-23.75" font-family="Helvetica,sans-Serif" font-size="10.00">Compute_Centroid</text>
</a>
</g>
</g>
<!-- Node10&#45;&gt;Node12 -->
<g id="edge11_Node000010_Node000012" class="edge">
<title>Node10&#45;&gt;Node12</title>
<g id="a_edge11_Node000010_Node000012"><a xlink:title=" ">
<path fill="none" stroke="#63b8ff" d="M256.34,-54.51C280.92,-49.74 310.37,-44.03 335.78,-39.09"/>
<polygon fill="#63b8ff" stroke="#63b8ff" points="336.14,-42.59 345.29,-37.25 334.8,-35.72 336.14,-42.59"/>
</a>
</g>
</g>
<!-- Node13 -->
<g id="Node000013" class="node">
<title>Node13</title>
<g id="a_Node000013"><a xlink:href="../../d3/d82/_c_type___elliptic___grid_8cpp_a9d9acf133a5b966f0cbd16a2c57a7d79.html#a9d9acf133a5b966f0cbd16a2c57a7d79" target="_top" xlink:title=" ">
<polygon fill="white" stroke="#666666" points="544.8,-56.25 516,-56.25 516,-37 544.8,-37 544.8,-56.25"/>
<text text-anchor="middle" x="530.4" y="-42.75" font-family="Helvetica,sans-Serif" font-size="10.00">x</text>
</a>
</g>
</g>
<!-- Node12&#45;&gt;Node13 -->
<g id="edge12_Node000012_Node000013" class="edge">
<title>Node12&#45;&gt;Node13</title>
<g id="a_edge12_Node000012_Node000013"><a xlink:title=" ">
<path fill="none" stroke="#63b8ff" d="M445.09,-34.54C465.34,-37.44 488.02,-40.69 504.76,-43.09"/>
<polygon fill="#63b8ff" stroke="#63b8ff" points="503.88,-46.5 514.27,-44.46 504.87,-39.57 503.88,-46.5"/>
</a>
</g>
</g>
<!-- Node14 -->
<g id="Node000014" class="node">
<title>Node14</title>
<g id="a_Node000014"><a xlink:href="../../d3/d82/_c_type___elliptic___grid_8cpp_aae4b761a64c952b4c008655d1dc59a12.html#aae4b761a64c952b4c008655d1dc59a12" target="_top" xlink:title=" ">
<polygon fill="white" stroke="#666666" points="544.8,-19.25 516,-19.25 516,0 544.8,0 544.8,-19.25"/>
<text text-anchor="middle" x="530.4" y="-5.75" font-family="Helvetica,sans-Serif" font-size="10.00">y</text>
</a>
</g>
</g>
<!-- Node12&#45;&gt;Node14 -->
<g id="edge13_Node000012_Node000014" class="edge">
<title>Node12&#45;&gt;Node14</title>
<g id="a_edge13_Node000012_Node000014"><a xlink:title=" ">
<path fill="none" stroke="#63b8ff" d="M445.09,-21.08C465.34,-18.33 488.02,-15.24 504.76,-12.97"/>
<polygon fill="#63b8ff" stroke="#63b8ff" points="504.83,-16.49 514.27,-11.68 503.89,-9.56 504.83,-16.49"/>
</a>
</g>
</g>
</g>
</svg>
