<?xml version="1.0" encoding="UTF-8" standalone="no"?>
<!DOCTYPE svg PUBLIC "-//W3C//DTD SVG 1.1//EN"
 "http://www.w3.org/Graphics/SVG/1.1/DTD/svg11.dtd">
<!-- Generated by graphviz version 12.2.1 (20241206.2353)
 -->
<!-- Title: Read_CSV_Mesh Pages: 1 -->
<svg width="488pt" height="298pt"
 viewBox="0.00 0.00 488.00 298.25" xmlns="http://www.w3.org/2000/svg" xmlns:xlink="http://www.w3.org/1999/xlink">
<g id="graph0" class="graph" transform="scale(1 1) rotate(0) translate(4 294.25)">
<title>Read_CSV_Mesh</title>
<!-- Node1 -->
<g id="Node000001" class="node">
<title>Node1</title>
<g id="a_Node000001"><a xlink:title=" ">
<polygon fill="#999999" stroke="#666666" points="94.75,-179.25 0,-179.25 0,-160 94.75,-160 94.75,-179.25"/>
<text text-anchor="middle" x="47.38" y="-165.75" font-family="Helvetica,sans-Serif" font-size="10.00">Read_CSV_Mesh</text>
</a>
</g>
</g>
<!-- Node2 -->
<g id="Node000002" class="node">
<title>Node2</title>
<g id="a_Node000002"><a xlink:href="../../d0/ded/_read___gmsh___file_8cpp_ae9fe416efcf214282b13d235773a6bf6.html#ae9fe416efcf214282b13d235773a6bf6" target="_top" xlink:title=" ">
<polygon fill="white" stroke="#666666" points="240.12,-290.25 166.38,-290.25 166.38,-271 240.12,-271 240.12,-290.25"/>
<text text-anchor="middle" x="203.25" y="-276.75" font-family="Helvetica,sans-Serif" font-size="10.00">BoundingBox</text>
</a>
</g>
</g>
<!-- Node1&#45;&gt;Node2 -->
<g id="edge1_Node000001_Node000002" class="edge">
<title>Node1&#45;&gt;Node2</title>
<g id="a_edge1_Node000001_Node000002"><a xlink:title=" ">
<path fill="none" stroke="#63b8ff" d="M54.24,-179.52C66.13,-198.69 95,-240.89 130.75,-262.62 138.13,-267.11 146.58,-270.48 155.03,-273.01"/>
<polygon fill="#63b8ff" stroke="#63b8ff" points="154.02,-276.37 164.58,-275.5 155.79,-269.59 154.02,-276.37"/>
</a>
</g>
</g>
<!-- Node3 -->
<g id="Node000003" class="node">
<title>Node3</title>
<g id="a_Node000003"><a xlink:href="../../d8/d40/_grid___computations_8cpp_a209db16fba143a9833c8d4021624afb0.html#a209db16fba143a9833c8d4021624afb0" target="_top" xlink:title=" ">
<polygon fill="white" stroke="#666666" points="239.38,-253.25 167.12,-253.25 167.12,-234 239.38,-234 239.38,-253.25"/>
<text text-anchor="middle" x="203.25" y="-239.75" font-family="Helvetica,sans-Serif" font-size="10.00">Check_Cells</text>
</a>
</g>
</g>
<!-- Node1&#45;&gt;Node3 -->
<g id="edge2_Node000001_Node000003" class="edge">
<title>Node1&#45;&gt;Node3</title>
<g id="a_edge2_Node000001_Node000003"><a xlink:title=" ">
<path fill="none" stroke="#63b8ff" d="M60.13,-179.6C75.43,-192.11 103.46,-213.38 130.75,-225.62 138.63,-229.16 147.32,-232.08 155.84,-234.47"/>
<polygon fill="#63b8ff" stroke="#63b8ff" points="154.85,-237.83 165.41,-236.93 156.6,-231.05 154.85,-237.83"/>
</a>
</g>
</g>
<!-- Node4 -->
<g id="Node000004" class="node">
<title>Node4</title>
<g id="a_Node000004"><a xlink:href="../../d0/ded/_read___gmsh___file_8cpp_ab9ea50ddf9e2981b178f5999ddfcb7b3.html#ab9ea50ddf9e2981b178f5999ddfcb7b3" target="_top" xlink:title=" ">
<polygon fill="white" stroke="#666666" points="275.75,-216.25 130.75,-216.25 130.75,-197 275.75,-197 275.75,-216.25"/>
<text text-anchor="middle" x="203.25" y="-202.75" font-family="Helvetica,sans-Serif" font-size="10.00">Classify_Domain_Boundaries</text>
</a>
</g>
</g>
<!-- Node1&#45;&gt;Node4 -->
<g id="edge3_Node000001_Node000004" class="edge">
<title>Node1&#45;&gt;Node4</title>
<g id="a_edge3_Node000001_Node000004"><a xlink:title=" ">
<path fill="none" stroke="#63b8ff" d="M90.42,-179.74C108.57,-184.1 130.01,-189.25 149.23,-193.88"/>
<polygon fill="#63b8ff" stroke="#63b8ff" points="148.24,-197.24 158.78,-196.17 149.88,-190.43 148.24,-197.24"/>
</a>
</g>
</g>
<!-- Node6 -->
<g id="Node000006" class="node">
<title>Node6</title>
<g id="a_Node000006"><a xlink:href="../../d8/d40/_grid___computations_8cpp_a2d284e26ddef582519953e8b8300184e.html#a2d284e26ddef582519953e8b8300184e" target="_top" xlink:title=" ">
<polygon fill="white" stroke="#666666" points="243.88,-179.25 162.62,-179.25 162.62,-160 243.88,-160 243.88,-179.25"/>
<text text-anchor="middle" x="203.25" y="-165.75" font-family="Helvetica,sans-Serif" font-size="10.00">Construct_Cell</text>
</a>
</g>
</g>
<!-- Node1&#45;&gt;Node6 -->
<g id="edge5_Node000001_Node000006" class="edge">
<title>Node1&#45;&gt;Node6</title>
<g id="a_edge5_Node000001_Node000006"><a xlink:title=" ">
<path fill="none" stroke="#63b8ff" d="M94.96,-169.62C112.59,-169.62 132.76,-169.62 150.81,-169.62"/>
<polygon fill="#63b8ff" stroke="#63b8ff" points="150.81,-173.13 160.81,-169.63 150.81,-166.13 150.81,-173.13"/>
</a>
</g>
</g>
<!-- Node7 -->
<g id="Node000007" class="node">
<title>Node7</title>
<g id="a_Node000007"><a xlink:href="../../d0/ded/_read___gmsh___file_8cpp_a4f897fcec439c37558a5d9fd94abf2e0.html#a4f897fcec439c37558a5d9fd94abf2e0" target="_top" xlink:title=" ">
<polygon fill="white" stroke="#666666" points="263,-141.88 143.5,-141.88 143.5,-111.38 263,-111.38 263,-141.88"/>
<text text-anchor="start" x="151.5" y="-128.38" font-family="Helvetica,sans-Serif" font-size="10.00">Create_Boundary_Cells</text>
<text text-anchor="middle" x="203.25" y="-117.12" font-family="Helvetica,sans-Serif" font-size="10.00">_Lists</text>
</a>
</g>
</g>
<!-- Node1&#45;&gt;Node7 -->
<g id="edge6_Node000001_Node000007" class="edge">
<title>Node1&#45;&gt;Node7</title>
<g id="a_edge6_Node000001_Node000007"><a xlink:title=" ">
<path fill="none" stroke="#63b8ff" d="M84.45,-159.54C99.61,-155.31 117.74,-150.24 135.18,-145.37"/>
<polygon fill="#63b8ff" stroke="#63b8ff" points="135.78,-148.83 144.47,-142.77 133.89,-142.09 135.78,-148.83"/>
</a>
</g>
</g>
<!-- Node8 -->
<g id="Node000008" class="node">
<title>Node8</title>
<g id="a_Node000008"><a xlink:href="../../d0/ded/_read___gmsh___file_8cpp_a9ee7224f2c410fa22e26e50b31924869.html#a9ee7224f2c410fa22e26e50b31924869" target="_top" xlink:title=" ">
<polygon fill="white" stroke="#666666" points="254.75,-93.25 151.75,-93.25 151.75,-74 254.75,-74 254.75,-93.25"/>
<text text-anchor="middle" x="203.25" y="-79.75" font-family="Helvetica,sans-Serif" font-size="10.00">Identify_Neighbours</text>
</a>
</g>
</g>
<!-- Node1&#45;&gt;Node8 -->
<g id="edge7_Node000001_Node000008" class="edge">
<title>Node1&#45;&gt;Node8</title>
<g id="a_edge7_Node000001_Node000008"><a xlink:title=" ">
<path fill="none" stroke="#63b8ff" d="M57.55,-159.89C71.83,-145.3 100.86,-117.86 130.75,-102.62 134.46,-100.74 138.37,-99.02 142.38,-97.46"/>
<polygon fill="#63b8ff" stroke="#63b8ff" points="143.43,-100.81 151.72,-94.21 141.12,-94.2 143.43,-100.81"/>
</a>
</g>
</g>
<!-- Node10 -->
<g id="Node000010" class="node">
<title>Node10</title>
<g id="a_Node000010"><a xlink:href="../../d8/d40/_grid___computations_8cpp_a614d9bfab5b0ee048b9e08a296757c42.html#a614d9bfab5b0ee048b9e08a296757c42" target="_top" xlink:title=" ">
<polygon fill="white" stroke="#666666" points="272,-56.25 134.5,-56.25 134.5,-37 272,-37 272,-56.25"/>
<text text-anchor="middle" x="203.25" y="-42.75" font-family="Helvetica,sans-Serif" font-size="10.00">Sort_Points_AntiClockWise</text>
</a>
</g>
</g>
<!-- Node1&#45;&gt;Node10 -->
<g id="edge9_Node000001_Node000010" class="edge">
<title>Node1&#45;&gt;Node10</title>
<g id="a_edge9_Node000001_Node000010"><a xlink:title=" ">
<path fill="none" stroke="#63b8ff" d="M53.22,-159.75C64.04,-138.76 92.28,-89.62 130.75,-64.62 132.6,-63.42 134.53,-62.3 136.51,-61.25"/>
<polygon fill="#63b8ff" stroke="#63b8ff" points="137.75,-64.53 145.43,-57.24 134.88,-58.15 137.75,-64.53"/>
</a>
</g>
</g>
<!-- Node5 -->
<g id="Node000005" class="node">
<title>Node5</title>
<g id="a_Node000005"><a xlink:href="../../d0/ded/_read___gmsh___file_8cpp_a994cf9f1092af359f042b96b997c5adc.html#a994cf9f1092af359f042b96b997c5adc" target="_top" xlink:title=" ">
<polygon fill="white" stroke="#666666" points="448.12,-216.25 343.62,-216.25 343.62,-197 448.12,-197 448.12,-216.25"/>
<text text-anchor="middle" x="395.88" y="-202.75" font-family="Helvetica,sans-Serif" font-size="10.00">Get_Boundary_Type</text>
</a>
</g>
</g>
<!-- Node4&#45;&gt;Node5 -->
<g id="edge4_Node000004_Node000005" class="edge">
<title>Node4&#45;&gt;Node5</title>
<g id="a_edge4_Node000004_Node000005"><a xlink:title=" ">
<path fill="none" stroke="#63b8ff" d="M276.05,-206.62C294.4,-206.62 313.99,-206.62 331.87,-206.62"/>
<polygon fill="#63b8ff" stroke="#63b8ff" points="331.82,-210.13 341.82,-206.63 331.82,-203.13 331.82,-210.13"/>
</a>
</g>
</g>
<!-- Node9 -->
<g id="Node000009" class="node">
<title>Node9</title>
<g id="a_Node000009"><a xlink:href="../../d0/ded/_read___gmsh___file_8cpp_adc1985827312d4d72fa6eb4ce492fc5e.html#adc1985827312d4d72fa6eb4ce492fc5e" target="_top" xlink:title=" ">
<polygon fill="white" stroke="#666666" points="443.25,-93.25 348.5,-93.25 348.5,-74 443.25,-74 443.25,-93.25"/>
<text text-anchor="middle" x="395.88" y="-79.75" font-family="Helvetica,sans-Serif" font-size="10.00">mapFacesToCells</text>
</a>
</g>
</g>
<!-- Node8&#45;&gt;Node9 -->
<g id="edge8_Node000008_Node000009" class="edge">
<title>Node8&#45;&gt;Node9</title>
<g id="a_edge8_Node000008_Node000009"><a xlink:title=" ">
<path fill="none" stroke="#63b8ff" d="M255.08,-83.62C280.26,-83.62 310.76,-83.62 336.85,-83.62"/>
<polygon fill="#63b8ff" stroke="#63b8ff" points="336.59,-87.13 346.59,-83.63 336.59,-80.13 336.59,-87.13"/>
</a>
</g>
</g>
<!-- Node11 -->
<g id="Node000011" class="node">
<title>Node11</title>
<g id="a_Node000011"><a xlink:href="../../d8/d40/_grid___computations_8cpp_a0bdffb27693c14d6cb4ef62eb5bd5d7f.html#a0bdffb27693c14d6cb4ef62eb5bd5d7f" target="_top" xlink:title="Sorts a set of points in anti&#45;clockwise order around their centroid.">
<polygon fill="white" stroke="#666666" points="480,-56.25 311.75,-56.25 311.75,-37 480,-37 480,-56.25"/>
<text text-anchor="middle" x="395.88" y="-42.75" font-family="Helvetica,sans-Serif" font-size="10.00">Are_Points_Sorted_AntiClockWise</text>
</a>
</g>
</g>
<!-- Node10&#45;&gt;Node11 -->
<g id="edge10_Node000010_Node000011" class="edge">
<title>Node10&#45;&gt;Node11</title>
<g id="a_edge10_Node000010_Node000011"><a xlink:title=" ">
<path fill="none" stroke="#63b8ff" d="M272.26,-46.62C281.31,-46.62 290.71,-46.62 300.11,-46.62"/>
<polygon fill="#63b8ff" stroke="#63b8ff" points="300.03,-50.13 310.03,-46.63 300.03,-43.13 300.03,-50.13"/>
</a>
</g>
</g>
<!-- Node12 -->
<g id="Node000012" class="node">
<title>Node12</title>
<g id="a_Node000012"><a xlink:href="../../d8/d40/_grid___computations_8cpp_a4dd07afd2a0f939b4d47bfa1088912c4.html#a4dd07afd2a0f939b4d47bfa1088912c4" target="_top" xlink:title=" ">
<polygon fill="white" stroke="#666666" points="444.75,-19.25 347,-19.25 347,0 444.75,0 444.75,-19.25"/>
<text text-anchor="middle" x="395.88" y="-5.75" font-family="Helvetica,sans-Serif" font-size="10.00">Compute_Centroid</text>
</a>
</g>
</g>
<!-- Node10&#45;&gt;Node12 -->
<g id="edge11_Node000010_Node000012" class="edge">
<title>Node10&#45;&gt;Node12</title>
<g id="a_edge11_Node000010_Node000012"><a xlink:title=" ">
<path fill="none" stroke="#63b8ff" d="M256.34,-36.51C280.92,-31.74 310.37,-26.03 335.78,-21.09"/>
<polygon fill="#63b8ff" stroke="#63b8ff" points="336.14,-24.59 345.29,-19.25 334.8,-17.72 336.14,-24.59"/>
</a>
</g>
</g>
</g>
</svg>
