<?xml version="1.0" encoding="UTF-8" standalone="no"?>
<!DOCTYPE svg PUBLIC "-//W3C//DTD SVG 1.1//EN"
 "http://www.w3.org/Graphics/SVG/1.1/DTD/svg11.dtd">
<!-- Generated by graphviz version 12.2.1 (20241206.2353)
 -->
<!-- Title: Construct_Co_Volumes Pages: 1 -->
<svg width="423pt" height="82pt"
 viewBox="0.00 0.00 422.75 82.25" xmlns="http://www.w3.org/2000/svg" xmlns:xlink="http://www.w3.org/1999/xlink">
<g id="graph0" class="graph" transform="scale(1 1) rotate(0) translate(4 78.25)">
<title>Construct_Co_Volumes</title>
<!-- Node1 -->
<g id="Node000001" class="node">
<title>Node1</title>
<g id="a_Node000001"><a xlink:title=" ">
<polygon fill="#999999" stroke="#666666" points="120.25,-37.25 0,-37.25 0,-18 120.25,-18 120.25,-37.25"/>
<text text-anchor="middle" x="60.12" y="-23.75" font-family="Helvetica,sans-Serif" font-size="10.00">Construct_Co_Volumes</text>
</a>
</g>
</g>
<!-- Node2 -->
<g id="Node000002" class="node">
<title>Node2</title>
<g id="a_Node000002"><a xlink:href="../../d8/d40/_grid___computations_8cpp_a775c5c8091a251ccd3893d4d726a7a79.html#a775c5c8091a251ccd3893d4d726a7a79" target="_top" xlink:title=" ">
<polygon fill="white" stroke="#666666" points="261.5,-56.25 175.75,-56.25 175.75,-37 261.5,-37 261.5,-56.25"/>
<text text-anchor="middle" x="218.62" y="-42.75" font-family="Helvetica,sans-Serif" font-size="10.00">Construct_Face</text>
</a>
</g>
</g>
<!-- Node1&#45;&gt;Node2 -->
<g id="edge1_Node000001_Node000002" class="edge">
<title>Node1&#45;&gt;Node2</title>
<g id="a_edge1_Node000001_Node000002"><a xlink:title=" ">
<path fill="none" stroke="#63b8ff" d="M120.74,-34.86C135.19,-36.62 150.54,-38.48 164.66,-40.19"/>
<polygon fill="#63b8ff" stroke="#63b8ff" points="163.82,-43.62 174.17,-41.35 164.67,-36.67 163.82,-43.62"/>
</a>
</g>
</g>
<!-- Node4 -->
<g id="Node000004" class="node">
<title>Node4</title>
<g id="a_Node000004"><a xlink:href="../../d8/d40/_grid___computations_8cpp_a29418163b6fbd0aa81c60026e430d0b8.html#a29418163b6fbd0aa81c60026e430d0b8" target="_top" xlink:title=" ">
<polygon fill="white" stroke="#666666" points="281,-19.25 156.25,-19.25 156.25,0 281,0 281,-19.25"/>
<text text-anchor="middle" x="218.62" y="-5.75" font-family="Helvetica,sans-Serif" font-size="10.00">Evaluate_Cross_Product</text>
</a>
</g>
</g>
<!-- Node1&#45;&gt;Node4 -->
<g id="edge4_Node000001_Node000004" class="edge">
<title>Node1&#45;&gt;Node4</title>
<g id="a_edge4_Node000001_Node000004"><a xlink:title=" ">
<path fill="none" stroke="#63b8ff" d="M120.74,-20.77C128.55,-19.87 136.62,-18.94 144.62,-18.02"/>
<polygon fill="#63b8ff" stroke="#63b8ff" points="144.8,-21.52 154.34,-16.9 144,-14.57 144.8,-21.52"/>
</a>
</g>
</g>
<!-- Node2&#45;&gt;Node2 -->
<g id="edge3_Node000002_Node000002" class="edge">
<title>Node2&#45;&gt;Node2</title>
<g id="a_edge3_Node000002_Node000002"><a xlink:title=" ">
<path fill="none" stroke="#63b8ff" d="M195.57,-56.54C185.06,-65.15 192.74,-74.25 218.62,-74.25 233.18,-74.25 241.99,-71.37 245.03,-67.32"/>
<polygon fill="#63b8ff" stroke="#63b8ff" points="248.44,-66.49 242.13,-57.98 241.75,-68.57 248.44,-66.49"/>
</a>
</g>
</g>
<!-- Node3 -->
<g id="Node000003" class="node">
<title>Node3</title>
<g id="a_Node000003"><a xlink:href="../../d8/d40/_grid___computations_8cpp_a4dd07afd2a0f939b4d47bfa1088912c4.html#a4dd07afd2a0f939b4d47bfa1088912c4" target="_top" xlink:title=" ">
<polygon fill="white" stroke="#666666" points="414.75,-56.25 317,-56.25 317,-37 414.75,-37 414.75,-56.25"/>
<text text-anchor="middle" x="365.88" y="-42.75" font-family="Helvetica,sans-Serif" font-size="10.00">Compute_Centroid</text>
</a>
</g>
</g>
<!-- Node2&#45;&gt;Node3 -->
<g id="edge2_Node000002_Node000003" class="edge">
<title>Node2&#45;&gt;Node3</title>
<g id="a_edge2_Node000002_Node000003"><a xlink:title=" ">
<path fill="none" stroke="#63b8ff" d="M261.64,-46.62C275.19,-46.62 290.48,-46.62 305.07,-46.62"/>
<polygon fill="#63b8ff" stroke="#63b8ff" points="305.05,-50.13 315.05,-46.63 305.05,-43.13 305.05,-50.13"/>
</a>
</g>
</g>
</g>
</svg>
