<?xml version="1.0" encoding="UTF-8" standalone="no"?>
<!DOCTYPE svg PUBLIC "-//W3C//DTD SVG 1.1//EN"
 "http://www.w3.org/Graphics/SVG/1.1/DTD/svg11.dtd">
<!-- Generated by graphviz version 12.2.1 (20241206.2353)
 -->
<!-- Title: Read_VTK_Grid Pages: 1 -->
<svg width="719pt" height="301pt"
 viewBox="0.00 0.00 718.80 301.25" xmlns="http://www.w3.org/2000/svg" xmlns:xlink="http://www.w3.org/1999/xlink">
<g id="graph0" class="graph" transform="scale(1 1) rotate(0) translate(4 297.25)">
<title>Read_VTK_Grid</title>
<!-- Node1 -->
<g id="Node000001" class="node">
<title>Node1</title>
<g id="a_Node000001"><a xlink:title=" ">
<polygon fill="#999999" stroke="#666666" points="87.25,-151.25 0,-151.25 0,-132 87.25,-132 87.25,-151.25"/>
<text text-anchor="middle" x="43.62" y="-137.75" font-family="Helvetica,sans-Serif" font-size="10.00">Read_VTK_Grid</text>
</a>
</g>
</g>
<!-- Node2 -->
<g id="Node000002" class="node">
<title>Node2</title>
<g id="a_Node000002"><a xlink:href="../../d0/ded/_read___gmsh___file_8cpp_ae9fe416efcf214282b13d235773a6bf6.html#ae9fe416efcf214282b13d235773a6bf6" target="_top" xlink:title=" ">
<polygon fill="white" stroke="#666666" points="232.62,-293.25 158.88,-293.25 158.88,-274 232.62,-274 232.62,-293.25"/>
<text text-anchor="middle" x="195.75" y="-279.75" font-family="Helvetica,sans-Serif" font-size="10.00">BoundingBox</text>
</a>
</g>
</g>
<!-- Node1&#45;&gt;Node2 -->
<g id="edge1_Node000001_Node000002" class="edge">
<title>Node1&#45;&gt;Node2</title>
<g id="a_edge1_Node000001_Node000002"><a xlink:title=" ">
<path fill="none" stroke="#63b8ff" d="M47.95,-151.47C56.45,-175.1 81.32,-235.3 123.25,-265.62 130.47,-270.85 139.05,-274.56 147.72,-277.2"/>
<polygon fill="#63b8ff" stroke="#63b8ff" points="146.62,-280.53 157.18,-279.62 148.36,-273.75 146.62,-280.53"/>
</a>
</g>
</g>
<!-- Node3 -->
<g id="Node000003" class="node">
<title>Node3</title>
<g id="a_Node000003"><a xlink:href="../../d0/ded/_read___gmsh___file_8cpp_ab9ea50ddf9e2981b178f5999ddfcb7b3.html#ab9ea50ddf9e2981b178f5999ddfcb7b3" target="_top" xlink:title=" ">
<polygon fill="white" stroke="#666666" points="268.25,-256.25 123.25,-256.25 123.25,-237 268.25,-237 268.25,-256.25"/>
<text text-anchor="middle" x="195.75" y="-242.75" font-family="Helvetica,sans-Serif" font-size="10.00">Classify_Domain_Boundaries</text>
</a>
</g>
</g>
<!-- Node1&#45;&gt;Node3 -->
<g id="edge2_Node000001_Node000003" class="edge">
<title>Node1&#45;&gt;Node3</title>
<g id="a_edge2_Node000001_Node000003"><a xlink:title=" ">
<path fill="none" stroke="#63b8ff" d="M50.87,-151.57C62.7,-169.58 90.21,-207.6 123.25,-227.62 126.03,-229.31 128.96,-230.85 131.98,-232.25"/>
<polygon fill="#63b8ff" stroke="#63b8ff" points="130.54,-235.45 141.13,-235.95 133.17,-228.96 130.54,-235.45"/>
</a>
</g>
</g>
<!-- Node5 -->
<g id="Node000005" class="node">
<title>Node5</title>
<g id="a_Node000005"><a xlink:href="../../d0/ded/_read___gmsh___file_8cpp_a4f897fcec439c37558a5d9fd94abf2e0.html#a4f897fcec439c37558a5d9fd94abf2e0" target="_top" xlink:title=" ">
<polygon fill="white" stroke="#666666" points="255.5,-218.88 136,-218.88 136,-188.38 255.5,-188.38 255.5,-218.88"/>
<text text-anchor="start" x="144" y="-205.38" font-family="Helvetica,sans-Serif" font-size="10.00">Create_Boundary_Cells</text>
<text text-anchor="middle" x="195.75" y="-194.12" font-family="Helvetica,sans-Serif" font-size="10.00">_Lists</text>
</a>
</g>
</g>
<!-- Node1&#45;&gt;Node5 -->
<g id="edge4_Node000001_Node000005" class="edge">
<title>Node1&#45;&gt;Node5</title>
<g id="a_edge4_Node000001_Node000005"><a xlink:title=" ">
<path fill="none" stroke="#63b8ff" d="M63.7,-151.69C79.44,-159.78 102.47,-171.16 123.25,-179.62 126.88,-181.1 130.63,-182.56 134.43,-183.99"/>
<polygon fill="#63b8ff" stroke="#63b8ff" points="133.2,-187.27 143.8,-187.39 135.59,-180.69 133.2,-187.27"/>
</a>
</g>
</g>
<!-- Node6 -->
<g id="Node000006" class="node">
<title>Node6</title>
<g id="a_Node000006"><a xlink:href="../../d0/ded/_read___gmsh___file_8cpp_aa3cbdec71b7c56f603b53acd3ce5a070.html#aa3cbdec71b7c56f603b53acd3ce5a070" target="_top" xlink:title=" ">
<polygon fill="white" stroke="#666666" points="233.75,-170.25 157.75,-170.25 157.75,-151 233.75,-151 233.75,-170.25"/>
<text text-anchor="middle" x="195.75" y="-156.75" font-family="Helvetica,sans-Serif" font-size="10.00">Identify_Cells</text>
</a>
</g>
</g>
<!-- Node1&#45;&gt;Node6 -->
<g id="edge5_Node000001_Node000006" class="edge">
<title>Node1&#45;&gt;Node6</title>
<g id="a_edge5_Node000001_Node000006"><a xlink:title=" ">
<path fill="none" stroke="#63b8ff" d="M87.64,-147.07C105.87,-149.38 127.2,-152.08 146,-154.46"/>
<polygon fill="#63b8ff" stroke="#63b8ff" points="145.47,-157.92 155.83,-155.7 146.35,-150.97 145.47,-157.92"/>
</a>
</g>
</g>
<!-- Node11 -->
<g id="Node000011" class="node">
<title>Node11</title>
<g id="a_Node000011"><a xlink:href="../../d3/d82/_c_type___elliptic___grid_8cpp_a9d9acf133a5b966f0cbd16a2c57a7d79.html#a9d9acf133a5b966f0cbd16a2c57a7d79" target="_top" xlink:title=" ">
<polygon fill="white" stroke="#666666" points="710.8,-151.25 682,-151.25 682,-132 710.8,-132 710.8,-151.25"/>
<text text-anchor="middle" x="696.4" y="-137.75" font-family="Helvetica,sans-Serif" font-size="10.00">x</text>
</a>
</g>
</g>
<!-- Node1&#45;&gt;Node11 -->
<g id="edge15_Node000001_Node000011" class="edge">
<title>Node1&#45;&gt;Node11</title>
<g id="a_edge15_Node000001_Node000011"><a xlink:title=" ">
<path fill="none" stroke="#63b8ff" d="M87.58,-141.62C212.3,-141.62 571.87,-141.62 670.25,-141.62"/>
<polygon fill="#63b8ff" stroke="#63b8ff" points="670.13,-145.13 680.13,-141.63 670.13,-138.13 670.13,-145.13"/>
</a>
</g>
</g>
<!-- Node12 -->
<g id="Node000012" class="node">
<title>Node12</title>
<g id="a_Node000012"><a xlink:href="../../d3/d82/_c_type___elliptic___grid_8cpp_aae4b761a64c952b4c008655d1dc59a12.html#aae4b761a64c952b4c008655d1dc59a12" target="_top" xlink:title=" ">
<polygon fill="white" stroke="#666666" points="710.8,-114.25 682,-114.25 682,-95 710.8,-95 710.8,-114.25"/>
<text text-anchor="middle" x="696.4" y="-100.75" font-family="Helvetica,sans-Serif" font-size="10.00">y</text>
</a>
</g>
</g>
<!-- Node1&#45;&gt;Node12 -->
<g id="edge16_Node000001_Node000012" class="edge">
<title>Node1&#45;&gt;Node12</title>
<g id="a_edge16_Node000001_Node000012"><a xlink:title=" ">
<path fill="none" stroke="#63b8ff" d="M87.58,-139.18C212.3,-132.09 571.87,-111.65 670.25,-106.05"/>
<polygon fill="#63b8ff" stroke="#63b8ff" points="670.35,-109.56 680.13,-105.49 669.95,-102.57 670.35,-109.56"/>
</a>
</g>
</g>
<!-- Node13 -->
<g id="Node000013" class="node">
<title>Node13</title>
<g id="a_Node000013"><a xlink:href="../../d0/ded/_read___gmsh___file_8cpp_a9ee7224f2c410fa22e26e50b31924869.html#a9ee7224f2c410fa22e26e50b31924869" target="_top" xlink:title=" ">
<polygon fill="white" stroke="#666666" points="247.25,-56.25 144.25,-56.25 144.25,-37 247.25,-37 247.25,-56.25"/>
<text text-anchor="middle" x="195.75" y="-42.75" font-family="Helvetica,sans-Serif" font-size="10.00">Identify_Neighbours</text>
</a>
</g>
</g>
<!-- Node1&#45;&gt;Node13 -->
<g id="edge12_Node000001_Node000013" class="edge">
<title>Node1&#45;&gt;Node13</title>
<g id="a_edge12_Node000001_Node000013"><a xlink:title=" ">
<path fill="none" stroke="#63b8ff" d="M53.07,-131.74C66.5,-116.6 94.2,-87.62 123.25,-70.62 129.86,-66.76 137.17,-63.41 144.53,-60.54"/>
<polygon fill="#63b8ff" stroke="#63b8ff" points="145.62,-63.87 153.84,-57.19 143.25,-57.28 145.62,-63.87"/>
</a>
</g>
</g>
<!-- Node15 -->
<g id="Node000015" class="node">
<title>Node15</title>
<g id="a_Node000015"><a xlink:href="../../dc/d3a/src_2_utility___files_8cpp_abf34e0b480f7580b0cd4237a76aed670.html#abf34e0b480f7580b0cd4237a76aed670" target="_top" xlink:title=" ">
<polygon fill="white" stroke="#666666" points="213.88,-19.25 177.62,-19.25 177.62,0 213.88,0 213.88,-19.25"/>
<text text-anchor="middle" x="195.75" y="-5.75" font-family="Helvetica,sans-Serif" font-size="10.00">Print</text>
</a>
</g>
</g>
<!-- Node1&#45;&gt;Node15 -->
<g id="edge14_Node000001_Node000015" class="edge">
<title>Node1&#45;&gt;Node15</title>
<g id="a_edge14_Node000001_Node000015"><a xlink:title=" ">
<path fill="none" stroke="#63b8ff" d="M48.6,-131.58C57.98,-109.2 83.75,-55.05 123.25,-27.62 135.69,-18.99 151.91,-14.49 165.75,-12.15"/>
<polygon fill="#63b8ff" stroke="#63b8ff" points="166.22,-15.62 175.65,-10.8 165.27,-8.68 166.22,-15.62"/>
</a>
</g>
</g>
<!-- Node4 -->
<g id="Node000004" class="node">
<title>Node4</title>
<g id="a_Node000004"><a xlink:href="../../d0/ded/_read___gmsh___file_8cpp_a994cf9f1092af359f042b96b997c5adc.html#a994cf9f1092af359f042b96b997c5adc" target="_top" xlink:title=" ">
<polygon fill="white" stroke="#666666" points="425.25,-256.25 320.75,-256.25 320.75,-237 425.25,-237 425.25,-256.25"/>
<text text-anchor="middle" x="373" y="-242.75" font-family="Helvetica,sans-Serif" font-size="10.00">Get_Boundary_Type</text>
</a>
</g>
</g>
<!-- Node3&#45;&gt;Node4 -->
<g id="edge3_Node000003_Node000004" class="edge">
<title>Node3&#45;&gt;Node4</title>
<g id="a_edge3_Node000003_Node000004"><a xlink:title=" ">
<path fill="none" stroke="#63b8ff" d="M268.54,-246.62C281.99,-246.62 295.96,-246.62 309.11,-246.62"/>
<polygon fill="#63b8ff" stroke="#63b8ff" points="308.92,-250.13 318.92,-246.63 308.92,-243.13 308.92,-250.13"/>
</a>
</g>
</g>
<!-- Node7 -->
<g id="Node000007" class="node">
<title>Node7</title>
<g id="a_Node000007"><a xlink:href="../../d8/d40/_grid___computations_8cpp_a2d284e26ddef582519953e8b8300184e.html#a2d284e26ddef582519953e8b8300184e" target="_top" xlink:title=" ">
<polygon fill="white" stroke="#666666" points="413.62,-207.25 332.37,-207.25 332.37,-188 413.62,-188 413.62,-207.25"/>
<text text-anchor="middle" x="373" y="-193.75" font-family="Helvetica,sans-Serif" font-size="10.00">Construct_Cell</text>
</a>
</g>
</g>
<!-- Node6&#45;&gt;Node7 -->
<g id="edge6_Node000006_Node000007" class="edge">
<title>Node6&#45;&gt;Node7</title>
<g id="a_edge6_Node000006_Node000007"><a xlink:title=" ">
<path fill="none" stroke="#63b8ff" d="M233.92,-168.47C259.26,-173.82 293.15,-180.98 321.01,-186.86"/>
<polygon fill="#63b8ff" stroke="#63b8ff" points="320.16,-190.26 330.66,-188.9 321.6,-183.41 320.16,-190.26"/>
</a>
</g>
</g>
<!-- Node8 -->
<g id="Node000008" class="node">
<title>Node8</title>
<g id="a_Node000008"><a xlink:href="../../d8/d40/_grid___computations_8cpp_a614d9bfab5b0ee048b9e08a296757c42.html#a614d9bfab5b0ee048b9e08a296757c42" target="_top" xlink:title=" ">
<polygon fill="white" stroke="#666666" points="441.75,-170.25 304.25,-170.25 304.25,-151 441.75,-151 441.75,-170.25"/>
<text text-anchor="middle" x="373" y="-156.75" font-family="Helvetica,sans-Serif" font-size="10.00">Sort_Points_AntiClockWise</text>
</a>
</g>
</g>
<!-- Node6&#45;&gt;Node8 -->
<g id="edge7_Node000006_Node000008" class="edge">
<title>Node6&#45;&gt;Node8</title>
<g id="a_edge7_Node000006_Node000008"><a xlink:title=" ">
<path fill="none" stroke="#63b8ff" d="M233.92,-160.62C251.04,-160.62 272.07,-160.62 292.5,-160.62"/>
<polygon fill="#63b8ff" stroke="#63b8ff" points="292.24,-164.13 302.24,-160.63 292.24,-157.13 292.24,-164.13"/>
</a>
</g>
</g>
<!-- Node9 -->
<g id="Node000009" class="node">
<title>Node9</title>
<g id="a_Node000009"><a xlink:href="../../d8/d40/_grid___computations_8cpp_a0bdffb27693c14d6cb4ef62eb5bd5d7f.html#a0bdffb27693c14d6cb4ef62eb5bd5d7f" target="_top" xlink:title="Sorts a set of points in anti&#45;clockwise order around their centroid.">
<polygon fill="white" stroke="#666666" points="646,-207.25 477.75,-207.25 477.75,-188 646,-188 646,-207.25"/>
<text text-anchor="middle" x="561.88" y="-193.75" font-family="Helvetica,sans-Serif" font-size="10.00">Are_Points_Sorted_AntiClockWise</text>
</a>
</g>
</g>
<!-- Node8&#45;&gt;Node9 -->
<g id="edge8_Node000008_Node000009" class="edge">
<title>Node8&#45;&gt;Node9</title>
<g id="a_edge8_Node000008_Node000009"><a xlink:title=" ">
<path fill="none" stroke="#63b8ff" d="M425.06,-170.74C447.83,-175.24 474.85,-180.59 498.77,-185.33"/>
<polygon fill="#63b8ff" stroke="#63b8ff" points="497.9,-188.72 508.39,-187.23 499.26,-181.86 497.9,-188.72"/>
</a>
</g>
</g>
<!-- Node10 -->
<g id="Node000010" class="node">
<title>Node10</title>
<g id="a_Node000010"><a xlink:href="../../d8/d40/_grid___computations_8cpp_a4dd07afd2a0f939b4d47bfa1088912c4.html#a4dd07afd2a0f939b4d47bfa1088912c4" target="_top" xlink:title=" ">
<polygon fill="white" stroke="#666666" points="610.75,-170.25 513,-170.25 513,-151 610.75,-151 610.75,-170.25"/>
<text text-anchor="middle" x="561.88" y="-156.75" font-family="Helvetica,sans-Serif" font-size="10.00">Compute_Centroid</text>
</a>
</g>
</g>
<!-- Node8&#45;&gt;Node10 -->
<g id="edge9_Node000008_Node000010" class="edge">
<title>Node8&#45;&gt;Node10</title>
<g id="a_edge9_Node000008_Node000010"><a xlink:title=" ">
<path fill="none" stroke="#63b8ff" d="M441.99,-160.62C461.35,-160.62 482.29,-160.62 501.12,-160.62"/>
<polygon fill="#63b8ff" stroke="#63b8ff" points="501.02,-164.13 511.02,-160.63 501.02,-157.13 501.02,-164.13"/>
</a>
</g>
</g>
<!-- Node10&#45;&gt;Node11 -->
<g id="edge10_Node000010_Node000011" class="edge">
<title>Node10&#45;&gt;Node11</title>
<g id="a_edge10_Node000010_Node000011"><a xlink:title=" ">
<path fill="none" stroke="#63b8ff" d="M611.09,-153.71C631.34,-150.81 654.02,-147.56 670.76,-145.16"/>
<polygon fill="#63b8ff" stroke="#63b8ff" points="670.87,-148.68 680.27,-143.79 669.88,-141.75 670.87,-148.68"/>
</a>
</g>
</g>
<!-- Node10&#45;&gt;Node12 -->
<g id="edge11_Node000010_Node000012" class="edge">
<title>Node10&#45;&gt;Node12</title>
<g id="a_edge11_Node000010_Node000012"><a xlink:title=" ">
<path fill="none" stroke="#63b8ff" d="M586.57,-150.61C610.48,-140.51 647.21,-124.99 671.27,-114.82"/>
<polygon fill="#63b8ff" stroke="#63b8ff" points="672.41,-118.14 680.26,-111.02 669.68,-111.69 672.41,-118.14"/>
</a>
</g>
</g>
<!-- Node14 -->
<g id="Node000014" class="node">
<title>Node14</title>
<g id="a_Node000014"><a xlink:href="../../d0/ded/_read___gmsh___file_8cpp_adc1985827312d4d72fa6eb4ce492fc5e.html#adc1985827312d4d72fa6eb4ce492fc5e" target="_top" xlink:title=" ">
<polygon fill="white" stroke="#666666" points="420.37,-56.25 325.62,-56.25 325.62,-37 420.37,-37 420.37,-56.25"/>
<text text-anchor="middle" x="373" y="-42.75" font-family="Helvetica,sans-Serif" font-size="10.00">mapFacesToCells</text>
</a>
</g>
</g>
<!-- Node13&#45;&gt;Node14 -->
<g id="edge13_Node000013_Node000014" class="edge">
<title>Node13&#45;&gt;Node14</title>
<g id="a_edge13_Node000013_Node000014"><a xlink:title=" ">
<path fill="none" stroke="#63b8ff" d="M247.44,-46.62C268.26,-46.62 292.49,-46.62 314.01,-46.62"/>
<polygon fill="#63b8ff" stroke="#63b8ff" points="313.81,-50.13 323.81,-46.63 313.81,-43.13 313.81,-50.13"/>
</a>
</g>
</g>
</g>
</svg>
