<?xml version="1.0" encoding="UTF-8" standalone="no"?>
<!DOCTYPE svg PUBLIC "-//W3C//DTD SVG 1.1//EN"
 "http://www.w3.org/Graphics/SVG/1.1/DTD/svg11.dtd">
<!-- Generated by graphviz version 12.2.1 (20241206.2353)
 -->
<!-- Title: main Pages: 1 -->
<svg width="344pt" height="461pt"
 viewBox="0.00 0.00 344.00 461.25" xmlns="http://www.w3.org/2000/svg" xmlns:xlink="http://www.w3.org/1999/xlink">
<g id="graph0" class="graph" transform="scale(1 1) rotate(0) translate(4 457.25)">
<title>main</title>
<!-- Node1 -->
<g id="Node000001" class="node">
<title>Node1</title>
<g id="a_Node000001"><a xlink:title=" ">
<polygon fill="#999999" stroke="#666666" points="37,-167.25 0,-167.25 0,-148 37,-148 37,-167.25"/>
<text text-anchor="middle" x="18.5" y="-153.75" font-family="Helvetica,sans-Serif" font-size="10.00">main</text>
</a>
</g>
</g>
<!-- Node2 -->
<g id="Node000002" class="node">
<title>Node2</title>
<g id="a_Node000002"><a xlink:href="../../dd/db4/class_line_a11ee9e238e8e0d712b52ae99077355ee.html#a11ee9e238e8e0d712b52ae99077355ee" target="_top" xlink:title=" ">
<polygon fill="white" stroke="#666666" points="163.25,-379.25 85.75,-379.25 85.75,-360 163.25,-360 163.25,-379.25"/>
<text text-anchor="middle" x="124.5" y="-365.75" font-family="Helvetica,sans-Serif" font-size="10.00">Line::generate</text>
</a>
</g>
</g>
<!-- Node1&#45;&gt;Node2 -->
<g id="edge1_Node000001_Node000002" class="edge">
<title>Node1&#45;&gt;Node2</title>
<g id="a_edge1_Node000001_Node000002"><a xlink:title=" ">
<path fill="none" stroke="#63b8ff" d="M23,-167.65C30.85,-189.8 50.95,-244.35 73,-287.62 84.27,-309.74 99.45,-333.79 110.22,-350.09"/>
<polygon fill="#63b8ff" stroke="#63b8ff" points="107.26,-351.96 115.73,-358.32 113.08,-348.06 107.26,-351.96"/>
</a>
</g>
</g>
<!-- Node7 -->
<g id="Node000007" class="node">
<title>Node7</title>
<g id="a_Node000007"><a xlink:href="../../d6/da1/_half___cylinder_8cpp_a6eca7711e7636a9e984e807fe0f64610.html#a6eca7711e7636a9e984e807fe0f64610" target="_top" xlink:title=" ">
<polygon fill="white" stroke="#666666" points="162.5,-278.25 86.5,-278.25 86.5,-259 162.5,-259 162.5,-278.25"/>
<text text-anchor="middle" x="124.5" y="-264.75" font-family="Helvetica,sans-Serif" font-size="10.00">Generate_Arc</text>
</a>
</g>
</g>
<!-- Node1&#45;&gt;Node7 -->
<g id="edge6_Node000001_Node000007" class="edge">
<title>Node1&#45;&gt;Node7</title>
<g id="a_edge6_Node000001_Node000007"><a xlink:title=" ">
<path fill="none" stroke="#63b8ff" d="M22.61,-167.56C29.01,-186.43 45.4,-227.59 73,-250.62 74.09,-251.53 75.22,-252.39 76.39,-253.21"/>
<polygon fill="#63b8ff" stroke="#63b8ff" points="74.27,-256.03 84.69,-257.95 77.74,-249.95 74.27,-256.03"/>
</a>
</g>
</g>
<!-- Node8 -->
<g id="Node000008" class="node">
<title>Node8</title>
<g id="a_Node000008"><a xlink:href="../../da/d74/class_grid_ab929318e5ef123712523299305dfe12f.html#ab929318e5ef123712523299305dfe12f" target="_top" xlink:title=" ">
<polygon fill="white" stroke="#666666" points="176,-241.25 73,-241.25 73,-222 176,-222 176,-241.25"/>
<text text-anchor="middle" x="124.5" y="-227.75" font-family="Helvetica,sans-Serif" font-size="10.00">Grid::Generate_Grid</text>
</a>
</g>
</g>
<!-- Node1&#45;&gt;Node8 -->
<g id="edge7_Node000001_Node000008" class="edge">
<title>Node1&#45;&gt;Node8</title>
<g id="a_edge7_Node000001_Node000008"><a xlink:title=" ">
<path fill="none" stroke="#63b8ff" d="M26.73,-167.69C36.12,-180.09 53.6,-201.04 73,-213.62 74.79,-214.78 76.66,-215.88 78.58,-216.91"/>
<polygon fill="#63b8ff" stroke="#63b8ff" points="76.62,-219.86 87.16,-220.94 79.59,-213.52 76.62,-219.86"/>
</a>
</g>
</g>
<!-- Node14 -->
<g id="Node000014" class="node">
<title>Node14</title>
<g id="a_Node000014"><a xlink:href="../../da/d74/class_grid_ada712360e862dad0f75e839a3c52fc14.html#ada712360e862dad0f75e839a3c52fc14" target="_top" xlink:title=" ">
<polygon fill="white" stroke="#666666" points="174.5,-204.25 74.5,-204.25 74.5,-185 174.5,-185 174.5,-204.25"/>
<text text-anchor="middle" x="124.5" y="-190.75" font-family="Helvetica,sans-Serif" font-size="10.00">Grid::Get_Grid_List</text>
</a>
</g>
</g>
<!-- Node1&#45;&gt;Node14 -->
<g id="edge13_Node000001_Node000014" class="edge">
<title>Node1&#45;&gt;Node14</title>
<g id="a_edge13_Node000001_Node000014"><a xlink:title=" ">
<path fill="none" stroke="#63b8ff" d="M37.14,-163.9C50.17,-168.54 68.4,-175.02 84.76,-180.84"/>
<polygon fill="#63b8ff" stroke="#63b8ff" points="83.14,-183.98 93.73,-184.04 85.49,-177.39 83.14,-183.98"/>
</a>
</g>
</g>
<!-- Node15 -->
<g id="Node000015" class="node">
<title>Node15</title>
<g id="a_Node000015"><a xlink:href="../../dd/db4/class_line_a11d1062afe4e7ccc91002d5a2b9b8b7d.html#a11d1062afe4e7ccc91002d5a2b9b8b7d" target="_top" xlink:title=" ">
<polygon fill="white" stroke="#666666" points="175.25,-167.25 73.75,-167.25 73.75,-148 175.25,-148 175.25,-167.25"/>
<text text-anchor="middle" x="124.5" y="-153.75" font-family="Helvetica,sans-Serif" font-size="10.00">Line::Get_Point_list</text>
</a>
</g>
</g>
<!-- Node1&#45;&gt;Node15 -->
<g id="edge14_Node000001_Node000015" class="edge">
<title>Node1&#45;&gt;Node15</title>
<g id="a_edge14_Node000001_Node000015"><a xlink:title=" ">
<path fill="none" stroke="#63b8ff" d="M37.14,-157.62C44.31,-157.62 53.06,-157.62 62.2,-157.62"/>
<polygon fill="#63b8ff" stroke="#63b8ff" points="61.95,-161.13 71.95,-157.63 61.95,-154.13 61.95,-161.13"/>
</a>
</g>
</g>
<!-- Node16 -->
<g id="Node000016" class="node">
<title>Node16</title>
<g id="a_Node000016"><a xlink:href="../../da/d2e/_geometry___header_8h_a2ac99b79a96c903fd960b3f472e9ab11.html#a2ac99b79a96c903fd960b3f472e9ab11" target="_top" xlink:title=" ">
<polygon fill="white" stroke="#666666" points="162.5,-130.25 86.5,-130.25 86.5,-111 162.5,-111 162.5,-130.25"/>
<text text-anchor="middle" x="124.5" y="-116.75" font-family="Helvetica,sans-Serif" font-size="10.00">Identify_Cells</text>
</a>
</g>
</g>
<!-- Node1&#45;&gt;Node16 -->
<g id="edge15_Node000001_Node000016" class="edge">
<title>Node1&#45;&gt;Node16</title>
<g id="a_edge15_Node000001_Node000016"><a xlink:title=" ">
<path fill="none" stroke="#63b8ff" d="M37.14,-151.35C50.17,-146.71 68.4,-140.23 84.76,-134.41"/>
<polygon fill="#63b8ff" stroke="#63b8ff" points="85.49,-137.86 93.73,-131.21 83.14,-131.27 85.49,-137.86"/>
</a>
</g>
</g>
<!-- Node17 -->
<g id="Node000017" class="node">
<title>Node17</title>
<g id="a_Node000017"><a xlink:href="../../da/d2e/_geometry___header_8h_ae140d7cd47fc17901100baa1c301a638.html#ae140d7cd47fc17901100baa1c301a638" target="_top" xlink:title=" ">
<polygon fill="white" stroke="#666666" points="176,-93.25 73,-93.25 73,-74 176,-74 176,-93.25"/>
<text text-anchor="middle" x="124.5" y="-79.75" font-family="Helvetica,sans-Serif" font-size="10.00">Identify_Neighbours</text>
</a>
</g>
</g>
<!-- Node1&#45;&gt;Node17 -->
<g id="edge16_Node000001_Node000017" class="edge">
<title>Node1&#45;&gt;Node17</title>
<g id="a_edge16_Node000001_Node000017"><a xlink:title=" ">
<path fill="none" stroke="#63b8ff" d="M26.73,-147.56C36.12,-135.16 53.6,-114.21 73,-101.62 74.79,-100.47 76.66,-99.37 78.58,-98.34"/>
<polygon fill="#63b8ff" stroke="#63b8ff" points="79.59,-101.73 87.16,-94.31 76.62,-95.39 79.59,-101.73"/>
</a>
</g>
</g>
<!-- Node18 -->
<g id="Node000018" class="node">
<title>Node18</title>
<g id="a_Node000018"><a xlink:href="../../da/d2e/_geometry___header_8h_a7baf55700c2b5381dad50d86595147ce.html#a7baf55700c2b5381dad50d86595147ce" target="_top" xlink:title=" ">
<polygon fill="white" stroke="#666666" points="162.5,-56.25 86.5,-56.25 86.5,-37 162.5,-37 162.5,-56.25"/>
<text text-anchor="middle" x="124.5" y="-42.75" font-family="Helvetica,sans-Serif" font-size="10.00">write_inputfile</text>
</a>
</g>
</g>
<!-- Node1&#45;&gt;Node18 -->
<g id="edge17_Node000001_Node000018" class="edge">
<title>Node1&#45;&gt;Node18</title>
<g id="a_edge17_Node000001_Node000018"><a xlink:title=" ">
<path fill="none" stroke="#63b8ff" d="M22.61,-147.69C29.01,-128.82 45.4,-87.66 73,-64.62 74.09,-63.72 75.22,-62.86 76.39,-62.04"/>
<polygon fill="#63b8ff" stroke="#63b8ff" points="77.74,-65.3 84.69,-57.3 74.27,-59.22 77.74,-65.3"/>
</a>
</g>
</g>
<!-- Node19 -->
<g id="Node000019" class="node">
<title>Node19</title>
<g id="a_Node000019"><a xlink:href="../../da/d2e/_geometry___header_8h_a9ea27b1ee84e8c88611feddac621c2a3.html#a9ea27b1ee84e8c88611feddac621c2a3" target="_top" xlink:title=" ">
<polygon fill="white" stroke="#666666" points="155.38,-19.25 93.62,-19.25 93.62,0 155.38,0 155.38,-19.25"/>
<text text-anchor="middle" x="124.5" y="-5.75" font-family="Helvetica,sans-Serif" font-size="10.00">write_VTK</text>
</a>
</g>
</g>
<!-- Node1&#45;&gt;Node19 -->
<g id="edge18_Node000001_Node000019" class="edge">
<title>Node1&#45;&gt;Node19</title>
<g id="a_edge18_Node000001_Node000019"><a xlink:title=" ">
<path fill="none" stroke="#63b8ff" d="M20.82,-147.61C24.51,-123.52 37.14,-61.81 73,-27.62 75.88,-24.88 79.21,-22.54 82.76,-20.57"/>
<polygon fill="#63b8ff" stroke="#63b8ff" points="84.09,-23.8 91.77,-16.5 81.21,-17.43 84.09,-23.8"/>
</a>
</g>
</g>
<!-- Node3 -->
<g id="Node000003" class="node">
<title>Node3</title>
<g id="a_Node000003"><a xlink:href="../../d0/d69/class_point_abbb39fe4de098ab24cd45d251656f080.html#abbb39fe4de098ab24cd45d251656f080" target="_top" xlink:title=" ">
<polygon fill="white" stroke="#666666" points="309.38,-453.25 238.62,-453.25 238.62,-434 309.38,-434 309.38,-453.25"/>
<text text-anchor="middle" x="274" y="-439.75" font-family="Helvetica,sans-Serif" font-size="10.00">Point::Get_x</text>
</a>
</g>
</g>
<!-- Node2&#45;&gt;Node3 -->
<g id="edge2_Node000002_Node000003" class="edge">
<title>Node2&#45;&gt;Node3</title>
<g id="a_edge2_Node000002_Node000003"><a xlink:title=" ">
<path fill="none" stroke="#63b8ff" d="M138.3,-379.61C154.6,-391.91 184.04,-412.78 212,-425.62 216.88,-427.87 222.12,-429.91 227.39,-431.75"/>
<polygon fill="#63b8ff" stroke="#63b8ff" points="226.14,-435.02 236.73,-434.76 228.28,-428.36 226.14,-435.02"/>
</a>
</g>
</g>
<!-- Node4 -->
<g id="Node000004" class="node">
<title>Node4</title>
<g id="a_Node000004"><a xlink:href="../../d0/d69/class_point_aa0c14d8298c960cc61ebeb5fbe33653b.html#aa0c14d8298c960cc61ebeb5fbe33653b" target="_top" xlink:title=" ">
<polygon fill="white" stroke="#666666" points="309.38,-416.25 238.62,-416.25 238.62,-397 309.38,-397 309.38,-416.25"/>
<text text-anchor="middle" x="274" y="-402.75" font-family="Helvetica,sans-Serif" font-size="10.00">Point::Get_y</text>
</a>
</g>
</g>
<!-- Node2&#45;&gt;Node4 -->
<g id="edge3_Node000002_Node000004" class="edge">
<title>Node2&#45;&gt;Node4</title>
<g id="a_edge3_Node000002_Node000004"><a xlink:title=" ">
<path fill="none" stroke="#63b8ff" d="M163.48,-379.15C182.93,-384.03 206.75,-390.01 227.21,-395.14"/>
<polygon fill="#63b8ff" stroke="#63b8ff" points="226.16,-398.48 236.71,-397.52 227.86,-391.69 226.16,-398.48"/>
</a>
</g>
</g>
<!-- Node5 -->
<g id="Node000005" class="node">
<title>Node5</title>
<g id="a_Node000005"><a xlink:href="../../d0/d69/class_point_ac06dbc3b4797e5c498b58c81a70c02a9.html#ac06dbc3b4797e5c498b58c81a70c02a9" target="_top" xlink:title=" ">
<polygon fill="white" stroke="#666666" points="309.38,-379.25 238.62,-379.25 238.62,-360 309.38,-360 309.38,-379.25"/>
<text text-anchor="middle" x="274" y="-365.75" font-family="Helvetica,sans-Serif" font-size="10.00">Point::Get_z</text>
</a>
</g>
</g>
<!-- Node2&#45;&gt;Node5 -->
<g id="edge4_Node000002_Node000005" class="edge">
<title>Node2&#45;&gt;Node5</title>
<g id="a_edge4_Node000002_Node000005"><a xlink:title=" ">
<path fill="none" stroke="#63b8ff" d="M163.48,-369.62C182.84,-369.62 206.53,-369.62 226.92,-369.62"/>
<polygon fill="#63b8ff" stroke="#63b8ff" points="226.66,-373.13 236.66,-369.63 226.66,-366.13 226.66,-373.13"/>
</a>
</g>
</g>
<!-- Node6 -->
<g id="Node000006" class="node">
<title>Node6</title>
<g id="a_Node000006"><a xlink:href="../../d0/d69/class_point_a006470547553ab6cfaacfea891970f8a.html#a006470547553ab6cfaacfea891970f8a" target="_top" xlink:title=" ">
<polygon fill="white" stroke="#666666" points="306.38,-342.25 241.62,-342.25 241.62,-323 306.38,-323 306.38,-342.25"/>
<text text-anchor="middle" x="274" y="-328.75" font-family="Helvetica,sans-Serif" font-size="10.00">Point::Print</text>
</a>
</g>
</g>
<!-- Node2&#45;&gt;Node6 -->
<g id="edge5_Node000002_Node000006" class="edge">
<title>Node2&#45;&gt;Node6</title>
<g id="a_edge5_Node000002_Node000006"><a xlink:title=" ">
<path fill="none" stroke="#63b8ff" d="M163.48,-360.1C183.89,-354.98 209.11,-348.65 230.21,-343.36"/>
<polygon fill="#63b8ff" stroke="#63b8ff" points="230.81,-346.82 239.66,-340.99 229.11,-340.03 230.81,-346.82"/>
</a>
</g>
</g>
<!-- Node9 -->
<g id="Node000009" class="node">
<title>Node9</title>
<g id="a_Node000009"><a xlink:href="../../da/d74/class_grid_a90c5271ba6fdba6112a562693bd9a0f2.html#a90c5271ba6fdba6112a562693bd9a0f2" target="_top" xlink:title=" ">
<polygon fill="white" stroke="#666666" points="308.62,-305.25 239.38,-305.25 239.38,-286 308.62,-286 308.62,-305.25"/>
<text text-anchor="middle" x="274" y="-291.75" font-family="Helvetica,sans-Serif" font-size="10.00">Grid::Elliptic</text>
</a>
</g>
</g>
<!-- Node8&#45;&gt;Node9 -->
<g id="edge8_Node000008_Node000009" class="edge">
<title>Node8&#45;&gt;Node9</title>
<g id="a_edge8_Node000008_Node000009"><a xlink:title=" ">
<path fill="none" stroke="#63b8ff" d="M158.45,-241.75C164.43,-244.03 170.51,-246.67 176,-249.62 193.62,-259.09 194.19,-267.52 212,-276.62 217.12,-279.24 222.66,-281.58 228.25,-283.64"/>
<polygon fill="#63b8ff" stroke="#63b8ff" points="226.92,-286.88 237.51,-286.78 229.16,-280.25 226.92,-286.88"/>
</a>
</g>
</g>
<!-- Node10 -->
<g id="Node000010" class="node">
<title>Node10</title>
<g id="a_Node000010"><a xlink:href="../../da/d74/class_grid_ac1e989c2a3c81fd365d9ae57e7f15b61.html#ac1e989c2a3c81fd365d9ae57e7f15b61" target="_top" xlink:title=" ">
<polygon fill="white" stroke="#666666" points="326.62,-267.88 221.38,-267.88 221.38,-237.38 326.62,-237.38 326.62,-267.88"/>
<text text-anchor="start" x="229.38" y="-254.38" font-family="Helvetica,sans-Serif" font-size="10.00">Grid::Estimate_Error</text>
<text text-anchor="middle" x="274" y="-243.12" font-family="Helvetica,sans-Serif" font-size="10.00">_and_Update</text>
</a>
</g>
</g>
<!-- Node8&#45;&gt;Node10 -->
<g id="edge9_Node000008_Node000010" class="edge">
<title>Node8&#45;&gt;Node10</title>
<g id="a_edge9_Node000008_Node000010"><a xlink:title=" ">
<path fill="none" stroke="#63b8ff" d="M176.26,-238.85C187.07,-240.39 198.62,-242.04 209.83,-243.63"/>
<polygon fill="#63b8ff" stroke="#63b8ff" points="209,-247.05 219.39,-244.99 209.99,-240.12 209,-247.05"/>
</a>
</g>
</g>
<!-- Node11 -->
<g id="Node000011" class="node">
<title>Node11</title>
<g id="a_Node000011"><a xlink:href="../../da/d74/class_grid_ab7768e9853f9b8e4530a25d242fdea1b.html#ab7768e9853f9b8e4530a25d242fdea1b" target="_top" xlink:title=" ">
<polygon fill="white" stroke="#666666" points="336,-219.25 212,-219.25 212,-200 336,-200 336,-219.25"/>
<text text-anchor="middle" x="274" y="-205.75" font-family="Helvetica,sans-Serif" font-size="10.00">Grid::Generate_Grid_List</text>
</a>
</g>
</g>
<!-- Node8&#45;&gt;Node11 -->
<g id="edge10_Node000008_Node000011" class="edge">
<title>Node8&#45;&gt;Node11</title>
<g id="a_edge10_Node000008_Node000011"><a xlink:title=" ">
<path fill="none" stroke="#63b8ff" d="M176.26,-224.05C184.11,-222.88 192.34,-221.65 200.56,-220.43"/>
<polygon fill="#63b8ff" stroke="#63b8ff" points="200.84,-223.93 210.21,-218.99 199.8,-217 200.84,-223.93"/>
</a>
</g>
</g>
<!-- Node12 -->
<g id="Node000012" class="node">
<title>Node12</title>
<g id="a_Node000012"><a xlink:href="../../da/d74/class_grid_a246dcc7405f9142fc624bafb817ed9fe.html#a246dcc7405f9142fc624bafb817ed9fe" target="_top" xlink:title=" ">
<polygon fill="white" stroke="#666666" points="334.88,-181.88 213.12,-181.88 213.12,-151.38 334.88,-151.38 334.88,-181.88"/>
<text text-anchor="start" x="221.12" y="-168.38" font-family="Helvetica,sans-Serif" font-size="10.00">Grid::Periodic_Boundary</text>
<text text-anchor="middle" x="274" y="-157.12" font-family="Helvetica,sans-Serif" font-size="10.00">_Condition</text>
</a>
</g>
</g>
<!-- Node8&#45;&gt;Node12 -->
<g id="edge11_Node000008_Node000012" class="edge">
<title>Node8&#45;&gt;Node12</title>
<g id="a_edge11_Node000008_Node000012"><a xlink:title=" ">
<path fill="none" stroke="#63b8ff" d="M157.2,-221.56C163.54,-219.21 170.07,-216.53 176,-213.62 193.05,-205.27 195.09,-199.25 212,-190.62 214.53,-189.34 217.14,-188.07 219.8,-186.83"/>
<polygon fill="#63b8ff" stroke="#63b8ff" points="221.08,-190.1 228.82,-182.85 218.25,-183.69 221.08,-190.1"/>
</a>
</g>
</g>
<!-- Node13 -->
<g id="Node000013" class="node">
<title>Node13</title>
<g id="a_Node000013"><a xlink:href="../../da/d74/class_grid_a908819a747032ceba240db6d955ff931.html#a908819a747032ceba240db6d955ff931" target="_top" xlink:title=" ">
<polygon fill="white" stroke="#666666" points="301.5,-133.25 246.5,-133.25 246.5,-114 301.5,-114 301.5,-133.25"/>
<text text-anchor="middle" x="274" y="-119.75" font-family="Helvetica,sans-Serif" font-size="10.00">Grid::TFI</text>
</a>
</g>
</g>
<!-- Node8&#45;&gt;Node13 -->
<g id="edge12_Node000008_Node000013" class="edge">
<title>Node8&#45;&gt;Node13</title>
<g id="a_edge12_Node000008_Node000013"><a xlink:title=" ">
<path fill="none" stroke="#63b8ff" d="M163.93,-221.52C168.29,-219.36 172.44,-216.76 176,-213.62 202.55,-190.24 184.98,-165.46 212,-142.62 218.66,-137 226.97,-133.04 235.3,-130.25"/>
<polygon fill="#63b8ff" stroke="#63b8ff" points="235.98,-133.69 244.67,-127.62 234.09,-126.95 235.98,-133.69"/>
</a>
</g>
</g>
</g>
</svg>
