<?xml version="1.0" encoding="UTF-8" standalone="no"?>
<!DOCTYPE svg PUBLIC "-//W3C//DTD SVG 1.1//EN"
 "http://www.w3.org/Graphics/SVG/1.1/DTD/svg11.dtd">
<!-- Generated by graphviz version 12.2.1 (20241206.2353)
 -->
<!-- Title: Assemble_A Pages: 1 -->
<svg width="352pt" height="76pt"
 viewBox="0.00 0.00 351.50 75.88" xmlns="http://www.w3.org/2000/svg" xmlns:xlink="http://www.w3.org/1999/xlink">
<g id="graph0" class="graph" transform="scale(1 1) rotate(0) translate(4 71.88)">
<title>Assemble_A</title>
<!-- Node1 -->
<g id="Node000001" class="node">
<title>Node1</title>
<g id="a_Node000001"><a xlink:title=" ">
<polygon fill="#999999" stroke="#666666" points="71.5,-45.88 0,-45.88 0,-26.62 71.5,-26.62 71.5,-45.88"/>
<text text-anchor="middle" x="35.75" y="-32.38" font-family="Helvetica,sans-Serif" font-size="10.00">Assemble_A</text>
</a>
</g>
</g>
<!-- Node2 -->
<g id="Node000002" class="node">
<title>Node2</title>
<g id="a_Node000002"><a xlink:href="../../d6/da5/_flux___jacobian_8cpp_afbbefa55a3532b90c1fa3d4740a0b8d3.html#afbbefa55a3532b90c1fa3d4740a0b8d3" target="_top" xlink:title=" ">
<polygon fill="white" stroke="#666666" points="231.5,-67.88 107.5,-67.88 107.5,-48.62 231.5,-48.62 231.5,-67.88"/>
<text text-anchor="middle" x="169.5" y="-54.38" font-family="Helvetica,sans-Serif" font-size="10.00">Compute_Flux_Jacobian</text>
</a>
</g>
</g>
<!-- Node1&#45;&gt;Node2 -->
<g id="edge1_Node000001_Node000002" class="edge">
<title>Node1&#45;&gt;Node2</title>
<g id="a_edge1_Node000001_Node000002"><a xlink:title=" ">
<path fill="none" stroke="#63b8ff" d="M71.71,-42.09C79.45,-43.38 87.92,-44.8 96.54,-46.23"/>
<polygon fill="#63b8ff" stroke="#63b8ff" points="95.96,-49.69 106.4,-47.88 97.12,-42.78 95.96,-49.69"/>
</a>
</g>
</g>
<!-- Node4 -->
<g id="Node000004" class="node">
<title>Node4</title>
<g id="a_Node000004"><a xlink:href="../../d6/da5/_flux___jacobian_8cpp_aacc73d4767c573d4db61bbf2e502d331.html#aacc73d4767c573d4db61bbf2e502d331" target="_top" xlink:title=" ">
<polygon fill="white" stroke="#666666" points="231.12,-30.5 107.88,-30.5 107.88,0 231.12,0 231.12,-30.5"/>
<text text-anchor="start" x="115.88" y="-17" font-family="Helvetica,sans-Serif" font-size="10.00">ComputeGhostCell_Flux</text>
<text text-anchor="middle" x="169.5" y="-5.75" font-family="Helvetica,sans-Serif" font-size="10.00">_Jacobian</text>
</a>
</g>
</g>
<!-- Node1&#45;&gt;Node4 -->
<g id="edge3_Node000001_Node000004" class="edge">
<title>Node1&#45;&gt;Node4</title>
<g id="a_edge3_Node000001_Node000004"><a xlink:title=" ">
<path fill="none" stroke="#63b8ff" d="M71.71,-30.68C79.34,-29.46 87.69,-28.13 96.19,-26.78"/>
<polygon fill="#63b8ff" stroke="#63b8ff" points="96.57,-30.26 105.89,-25.23 95.46,-23.35 96.57,-30.26"/>
</a>
</g>
</g>
<!-- Node3 -->
<g id="Node000003" class="node">
<title>Node3</title>
<g id="a_Node000003"><a xlink:href="../../dc/d3a/src_2_utility___files_8cpp_aa5fe1ffca7af96bc7295ff9492f6423d.html#aa5fe1ffca7af96bc7295ff9492f6423d" target="_top" xlink:title=" ">
<polygon fill="white" stroke="#666666" points="343.5,-45.88 267.5,-45.88 267.5,-26.62 343.5,-26.62 343.5,-45.88"/>
<text text-anchor="middle" x="305.5" y="-32.38" font-family="Helvetica,sans-Serif" font-size="10.00">Vector_Reset</text>
</a>
</g>
</g>
<!-- Node2&#45;&gt;Node3 -->
<g id="edge2_Node000002_Node000003" class="edge">
<title>Node2&#45;&gt;Node3</title>
<g id="a_edge2_Node000002_Node000003"><a xlink:title=" ">
<path fill="none" stroke="#63b8ff" d="M231.62,-48.22C239.78,-46.88 248.06,-45.52 255.97,-44.22"/>
<polygon fill="#63b8ff" stroke="#63b8ff" points="256.43,-47.69 265.74,-42.61 255.3,-40.78 256.43,-47.69"/>
</a>
</g>
</g>
<!-- Node4&#45;&gt;Node3 -->
<g id="edge4_Node000004_Node000003" class="edge">
<title>Node4&#45;&gt;Node3</title>
<g id="a_edge4_Node000004_Node000003"><a xlink:title=" ">
<path fill="none" stroke="#63b8ff" d="M231.62,-24.83C239.78,-26.11 248.06,-27.4 255.97,-28.64"/>
<polygon fill="#63b8ff" stroke="#63b8ff" points="255.31,-32.08 265.73,-30.17 256.4,-25.17 255.31,-32.08"/>
</a>
</g>
</g>
</g>
</svg>
