<?xml version="1.0" encoding="UTF-8" standalone="no"?>
<!DOCTYPE svg PUBLIC "-//W3C//DTD SVG 1.1//EN"
 "http://www.w3.org/Graphics/SVG/1.1/DTD/svg11.dtd">
<!-- Generated by graphviz version 12.2.1 (20241206.2353)
 -->
<!-- Title: GridPerformanceBenchmark::benchmark_cell_construction Pages: 1 -->
<svg width="495pt" height="64pt"
 viewBox="0.00 0.00 494.75 64.25" xmlns="http://www.w3.org/2000/svg" xmlns:xlink="http://www.w3.org/1999/xlink">
<g id="graph0" class="graph" transform="scale(1 1) rotate(0) translate(4 60.25)">
<title>GridPerformanceBenchmark::benchmark_cell_construction</title>
<!-- Node1 -->
<g id="Node000001" class="node">
<title>Node1</title>
<g id="a_Node000001"><a xlink:title=" ">
<polygon fill="#999999" stroke="#666666" points="148.75,-42.88 0,-42.88 0,-12.37 148.75,-12.37 148.75,-42.88"/>
<text text-anchor="start" x="8" y="-29.38" font-family="Helvetica,sans-Serif" font-size="10.00">GridPerformanceBenchmark</text>
<text text-anchor="middle" x="74.38" y="-18.12" font-family="Helvetica,sans-Serif" font-size="10.00">::benchmark_cell_construction</text>
</a>
</g>
</g>
<!-- Node2 -->
<g id="Node000002" class="node">
<title>Node2</title>
<g id="a_Node000002"><a xlink:href="../../d8/d40/_grid___computations_8cpp_a2d284e26ddef582519953e8b8300184e.html#a2d284e26ddef582519953e8b8300184e" target="_top" xlink:title=" ">
<polygon fill="white" stroke="#666666" points="290.75,-56.25 209.5,-56.25 209.5,-37 290.75,-37 290.75,-56.25"/>
<text text-anchor="middle" x="250.12" y="-42.75" font-family="Helvetica,sans-Serif" font-size="10.00">Construct_Cell</text>
</a>
</g>
</g>
<!-- Node1&#45;&gt;Node2 -->
<g id="edge1_Node000001_Node000002" class="edge">
<title>Node1&#45;&gt;Node2</title>
<g id="a_edge1_Node000001_Node000002"><a xlink:title=" ">
<path fill="none" stroke="#63b8ff" d="M149.06,-35.68C165.57,-37.49 182.73,-39.36 198.08,-41.04"/>
<polygon fill="#63b8ff" stroke="#63b8ff" points="197.6,-44.51 207.92,-42.12 198.36,-37.55 197.6,-44.51"/>
</a>
</g>
</g>
<!-- Node3 -->
<g id="Node000003" class="node">
<title>Node3</title>
<g id="a_Node000003"><a xlink:href="../../d8/d24/_grid___computations___optimized_8cpp_a092b66b03987591a3eee8d8d659c50f5.html#a092b66b03987591a3eee8d8d659c50f5" target="_top" xlink:title=" ">
<polygon fill="white" stroke="#666666" points="315.5,-19.25 184.75,-19.25 184.75,0 315.5,0 315.5,-19.25"/>
<text text-anchor="middle" x="250.12" y="-5.75" font-family="Helvetica,sans-Serif" font-size="10.00">Construct_Cell_Optimized</text>
</a>
</g>
</g>
<!-- Node1&#45;&gt;Node3 -->
<g id="edge2_Node000001_Node000003" class="edge">
<title>Node1&#45;&gt;Node3</title>
<g id="a_edge2_Node000001_Node000003"><a xlink:title=" ">
<path fill="none" stroke="#63b8ff" d="M149.06,-19.99C157.04,-19.16 165.18,-18.32 173.19,-17.49"/>
<polygon fill="#63b8ff" stroke="#63b8ff" points="173.31,-21 182.9,-16.49 172.59,-14.04 173.31,-21"/>
</a>
</g>
</g>
<!-- Node4 -->
<g id="Node000004" class="node">
<title>Node4</title>
<g id="a_Node000004"><a xlink:href="../../d8/d24/_grid___computations___optimized_8cpp_a0df6c9c73cc2b10f88b2fbdf05b3685d.html#a0df6c9c73cc2b10f88b2fbdf05b3685d" target="_top" xlink:title=" ">
<polygon fill="white" stroke="#666666" points="486.75,-19.25 351.5,-19.25 351.5,0 486.75,0 486.75,-19.25"/>
<text text-anchor="middle" x="419.12" y="-5.75" font-family="Helvetica,sans-Serif" font-size="10.00">Construct_Face_Optimized</text>
</a>
</g>
</g>
<!-- Node3&#45;&gt;Node4 -->
<g id="edge3_Node000003_Node000004" class="edge">
<title>Node3&#45;&gt;Node4</title>
<g id="a_edge3_Node000003_Node000004"><a xlink:title=" ">
<path fill="none" stroke="#63b8ff" d="M315.69,-9.62C323.61,-9.62 331.78,-9.62 339.87,-9.62"/>
<polygon fill="#63b8ff" stroke="#63b8ff" points="339.73,-13.13 349.73,-9.63 339.73,-6.13 339.73,-13.13"/>
</a>
</g>
</g>
</g>
</svg>
