<?xml version="1.0" encoding="UTF-8" standalone="no"?>
<!DOCTYPE svg PUBLIC "-//W3C//DTD SVG 1.1//EN"
 "http://www.w3.org/Graphics/SVG/1.1/DTD/svg11.dtd">
<!-- Generated by graphviz version 12.2.1 (20241206.2353)
 -->
<!-- Title: GridPerformanceBenchmark::benchmark_distance_calculations Pages: 1 -->
<svg width="691pt" height="125pt"
 viewBox="0.00 0.00 690.75 124.50" xmlns="http://www.w3.org/2000/svg" xmlns:xlink="http://www.w3.org/1999/xlink">
<g id="graph0" class="graph" transform="scale(1 1) rotate(0) translate(4 120.5)">
<title>GridPerformanceBenchmark::benchmark_distance_calculations</title>
<!-- Node1 -->
<g id="Node000001" class="node">
<title>Node1</title>
<g id="a_Node000001"><a xlink:title=" ">
<polygon fill="#999999" stroke="#666666" points="682.75,-51.5 513.75,-51.5 513.75,-21 682.75,-21 682.75,-51.5"/>
<text text-anchor="start" x="521.75" y="-38" font-family="Helvetica,sans-Serif" font-size="10.00">GridPerformanceBenchmark</text>
<text text-anchor="middle" x="598.25" y="-26.75" font-family="Helvetica,sans-Serif" font-size="10.00">::benchmark_distance_calculations</text>
</a>
</g>
</g>
<!-- Node2 -->
<g id="Node000002" class="node">
<title>Node2</title>
<g id="a_Node000002"><a xlink:href="../../d1/db0/_grid___performance___benchmark_8cpp_ac125861b22e1c75a647907d093758246.html#ac125861b22e1c75a647907d093758246" target="_top" xlink:title=" ">
<polygon fill="white" stroke="#666666" points="468.38,-67.88 348.12,-67.88 348.12,-48.62 468.38,-48.62 468.38,-67.88"/>
<text text-anchor="middle" x="408.25" y="-54.38" font-family="Helvetica,sans-Serif" font-size="10.00">quick_performance_test</text>
</a>
</g>
</g>
<!-- Node1&#45;&gt;Node2 -->
<g id="edge1_Node000001_Node000002" class="edge">
<title>Node1&#45;&gt;Node2</title>
<g id="a_edge1_Node000001_Node000002"><a xlink:title=" ">
<path fill="none" stroke="#63b8ff" d="M502.07,-47.39C490.7,-48.72 479.36,-50.05 468.7,-51.29"/>
<polygon fill="#63b8ff" stroke="#63b8ff" points="502.39,-50.87 511.92,-46.24 501.58,-43.92 502.39,-50.87"/>
</a>
</g>
</g>
<!-- Node6 -->
<g id="Node000006" class="node">
<title>Node6</title>
<g id="a_Node000006"><a xlink:href="../../d3/de1/class_grid_performance_benchmark_a6a31f6642222905776b59d5fc6ec1364.html#a6a31f6642222905776b59d5fc6ec1364" target="_top" xlink:title=" ">
<polygon fill="white" stroke="#666666" points="477.75,-30.5 338.75,-30.5 338.75,0 477.75,0 477.75,-30.5"/>
<text text-anchor="start" x="346.75" y="-17" font-family="Helvetica,sans-Serif" font-size="10.00">GridPerformanceBenchmark</text>
<text text-anchor="middle" x="408.25" y="-5.75" font-family="Helvetica,sans-Serif" font-size="10.00">::run_complete_benchmark</text>
</a>
</g>
</g>
<!-- Node1&#45;&gt;Node6 -->
<g id="edge5_Node000001_Node000006" class="edge">
<title>Node1&#45;&gt;Node6</title>
<g id="a_edge5_Node000001_Node000006"><a xlink:title=" ">
<path fill="none" stroke="#63b8ff" d="M501.99,-25.61C493.9,-24.71 485.82,-23.8 477.99,-22.93"/>
<polygon fill="#63b8ff" stroke="#63b8ff" points="501.59,-29.09 511.92,-26.72 502.37,-22.13 501.59,-29.09"/>
</a>
</g>
</g>
<!-- Node3 -->
<g id="Node000003" class="node">
<title>Node3</title>
<g id="a_Node000003"><a xlink:href="../../dc/de7/_grid___optimization___integration___guide_8cpp_a2700e9b3cb476604eadbef79c7aa63d5.html#a2700e9b3cb476604eadbef79c7aa63d5" target="_top" xlink:title=" ">
<polygon fill="white" stroke="#666666" points="290.38,-116.5 185.88,-116.5 185.88,-86 290.38,-86 290.38,-116.5"/>
<text text-anchor="start" x="193.88" y="-103" font-family="Helvetica,sans-Serif" font-size="10.00">demonstrate_testing</text>
<text text-anchor="middle" x="238.12" y="-91.75" font-family="Helvetica,sans-Serif" font-size="10.00">_validation</text>
</a>
</g>
</g>
<!-- Node2&#45;&gt;Node3 -->
<g id="edge2_Node000002_Node000003" class="edge">
<title>Node2&#45;&gt;Node3</title>
<g id="a_edge2_Node000002_Node000003"><a xlink:title=" ">
<path fill="none" stroke="#63b8ff" d="M356.92,-71.12C336.01,-76.47 311.76,-82.67 290.72,-88.05"/>
<polygon fill="#63b8ff" stroke="#63b8ff" points="357.54,-74.58 366.37,-68.71 355.81,-67.79 357.54,-74.58"/>
</a>
</g>
</g>
<!-- Node5 -->
<g id="Node000005" class="node">
<title>Node5</title>
<g id="a_Node000005"><a xlink:href="../../dc/de7/_grid___optimization___integration___guide_8cpp_ac9d67fcbba41c27f9c5d5876429fe035.html#ac9d67fcbba41c27f9c5d5876429fe035" target="_top" xlink:title=" ">
<polygon fill="white" stroke="#666666" points="302.75,-67.88 173.5,-67.88 173.5,-48.62 302.75,-48.62 302.75,-67.88"/>
<text text-anchor="middle" x="238.12" y="-54.38" font-family="Helvetica,sans-Serif" font-size="10.00">example_main_integration</text>
</a>
</g>
</g>
<!-- Node2&#45;&gt;Node5 -->
<g id="edge4_Node000002_Node000005" class="edge">
<title>Node2&#45;&gt;Node5</title>
<g id="a_edge4_Node000002_Node000005"><a xlink:title=" ">
<path fill="none" stroke="#63b8ff" d="M336.53,-58.25C325.41,-58.25 313.96,-58.25 303,-58.25"/>
<polygon fill="#63b8ff" stroke="#63b8ff" points="336.46,-61.75 346.46,-58.25 336.46,-54.75 336.46,-61.75"/>
</a>
</g>
</g>
<!-- Node4 -->
<g id="Node000004" class="node">
<title>Node4</title>
<g id="a_Node000004"><a xlink:href="../../dc/de7/_grid___optimization___integration___guide_8cpp_ad598130e8e89b3050bb9bd71f0ab1b25.html#ad598130e8e89b3050bb9bd71f0ab1b25" target="_top" xlink:title=" ">
<polygon fill="white" stroke="#666666" points="137.5,-110.88 0,-110.88 0,-91.62 137.5,-91.62 137.5,-110.88"/>
<text text-anchor="middle" x="68.75" y="-97.38" font-family="Helvetica,sans-Serif" font-size="10.00">integrate_grid_optimizations</text>
</a>
</g>
</g>
<!-- Node3&#45;&gt;Node4 -->
<g id="edge3_Node000003_Node000004" class="edge">
<title>Node3&#45;&gt;Node4</title>
<g id="a_edge3_Node000003_Node000004"><a xlink:title=" ">
<path fill="none" stroke="#63b8ff" d="M174.33,-101.25C162.41,-101.25 149.88,-101.25 137.81,-101.25"/>
<polygon fill="#63b8ff" stroke="#63b8ff" points="174.03,-104.75 184.03,-101.25 174.03,-97.75 174.03,-104.75"/>
</a>
</g>
</g>
<!-- Node7 -->
<g id="Node000007" class="node">
<title>Node7</title>
<g id="a_Node000007"><a xlink:href="../../d1/db0/_grid___performance___benchmark_8cpp_a8eaebb5b60c50f0606cb4719e236b1bf.html#a8eaebb5b60c50f0606cb4719e236b1bf" target="_top" xlink:title=" ">
<polygon fill="white" stroke="#666666" points="293,-30.5 183.25,-30.5 183.25,0 293,0 293,-30.5"/>
<text text-anchor="start" x="191.25" y="-17" font-family="Helvetica,sans-Serif" font-size="10.00">run_grid_performance</text>
<text text-anchor="middle" x="238.12" y="-5.75" font-family="Helvetica,sans-Serif" font-size="10.00">_benchmark</text>
</a>
</g>
</g>
<!-- Node6&#45;&gt;Node7 -->
<g id="edge6_Node000006_Node000007" class="edge">
<title>Node6&#45;&gt;Node7</title>
<g id="a_edge6_Node000006_Node000007"><a xlink:title=" ">
<path fill="none" stroke="#63b8ff" d="M327.07,-15.25C315.69,-15.25 304.21,-15.25 293.48,-15.25"/>
<polygon fill="#63b8ff" stroke="#63b8ff" points="326.87,-18.75 336.87,-15.25 326.87,-11.75 326.87,-18.75"/>
</a>
</g>
</g>
</g>
</svg>
