<?xml version="1.0" encoding="UTF-8" standalone="no"?>
<!DOCTYPE svg PUBLIC "-//W3C//DTD SVG 1.1//EN"
 "http://www.w3.org/Graphics/SVG/1.1/DTD/svg11.dtd">
<!-- Generated by graphviz version 12.2.1 (20241206.2353)
 -->
<!-- Title: GridPerformanceBenchmark::benchmark_distance_calculations Pages: 1 -->
<svg width="568pt" height="88pt"
 viewBox="0.00 0.00 567.75 87.50" xmlns="http://www.w3.org/2000/svg" xmlns:xlink="http://www.w3.org/1999/xlink">
<g id="graph0" class="graph" transform="scale(1 1) rotate(0) translate(4 83.5)">
<title>GridPerformanceBenchmark::benchmark_distance_calculations</title>
<!-- Node1 -->
<g id="Node000001" class="node">
<title>Node1</title>
<g id="a_Node000001"><a xlink:title=" ">
<polygon fill="#999999" stroke="#666666" points="169,-54.5 0,-54.5 0,-24 169,-24 169,-54.5"/>
<text text-anchor="start" x="8" y="-41" font-family="Helvetica,sans-Serif" font-size="10.00">GridPerformanceBenchmark</text>
<text text-anchor="middle" x="84.5" y="-29.75" font-family="Helvetica,sans-Serif" font-size="10.00">::benchmark_distance_calculations</text>
</a>
</g>
</g>
<!-- Node2 -->
<g id="Node000002" class="node">
<title>Node2</title>
<g id="a_Node000002"><a xlink:href="../../d8/d40/_grid___computations_8cpp_a7e6f11445e90cefdcb91f369846ec691.html#a7e6f11445e90cefdcb91f369846ec691" target="_top" xlink:title=" ">
<polygon fill="white" stroke="#666666" points="319.62,-79.5 205.38,-79.5 205.38,-49 319.62,-49 319.62,-79.5"/>
<text text-anchor="start" x="213.38" y="-66" font-family="Helvetica,sans-Serif" font-size="10.00">Calculate_Cell_Center</text>
<text text-anchor="middle" x="262.5" y="-54.75" font-family="Helvetica,sans-Serif" font-size="10.00">_Distances</text>
</a>
</g>
</g>
<!-- Node1&#45;&gt;Node2 -->
<g id="edge1_Node000001_Node000002" class="edge">
<title>Node1&#45;&gt;Node2</title>
<g id="a_edge1_Node000001_Node000002"><a xlink:title=" ">
<path fill="none" stroke="#63b8ff" d="M169.38,-51.16C177.47,-52.31 185.6,-53.47 193.51,-54.59"/>
<polygon fill="#63b8ff" stroke="#63b8ff" points="193.01,-58.06 203.41,-56 194,-51.13 193.01,-58.06"/>
</a>
</g>
</g>
<!-- Node5 -->
<g id="Node000005" class="node">
<title>Node5</title>
<g id="a_Node000005"><a xlink:href="../../d8/d24/_grid___computations___optimized_8cpp_a232a6cc799531f31fb5128af047a41d8.html#a232a6cc799531f31fb5128af047a41d8" target="_top" xlink:title=" ">
<polygon fill="white" stroke="#666666" points="320,-30.5 205,-30.5 205,0 320,0 320,-30.5"/>
<text text-anchor="start" x="213" y="-17" font-family="Helvetica,sans-Serif" font-size="10.00">Calculate_Cell_Center</text>
<text text-anchor="middle" x="262.5" y="-5.75" font-family="Helvetica,sans-Serif" font-size="10.00">_Distances_Optimized</text>
</a>
</g>
</g>
<!-- Node1&#45;&gt;Node5 -->
<g id="edge4_Node000001_Node000005" class="edge">
<title>Node1&#45;&gt;Node5</title>
<g id="a_edge4_Node000001_Node000005"><a xlink:title=" ">
<path fill="none" stroke="#63b8ff" d="M169.38,-27.81C177.41,-26.72 185.48,-25.62 193.34,-24.54"/>
<polygon fill="#63b8ff" stroke="#63b8ff" points="193.72,-28.03 203.15,-23.21 192.77,-21.09 193.72,-28.03"/>
</a>
</g>
</g>
<!-- Node3 -->
<g id="Node000003" class="node">
<title>Node3</title>
<g id="a_Node000003"><a xlink:href="../../d8/d40/_grid___computations_8cpp_a1f273579608200866e02e34f16a3eb6b.html#a1f273579608200866e02e34f16a3eb6b" target="_top" xlink:title=" ">
<polygon fill="white" stroke="#666666" points="487.5,-73.88 356,-73.88 356,-54.62 487.5,-54.62 487.5,-73.88"/>
<text text-anchor="middle" x="421.75" y="-60.38" font-family="Helvetica,sans-Serif" font-size="10.00">Distance_Between_Points</text>
</a>
</g>
</g>
<!-- Node2&#45;&gt;Node3 -->
<g id="edge2_Node000002_Node000003" class="edge">
<title>Node2&#45;&gt;Node3</title>
<g id="a_edge2_Node000002_Node000003"><a xlink:title=" ">
<path fill="none" stroke="#63b8ff" d="M319.83,-64.25C327.82,-64.25 336.16,-64.25 344.46,-64.25"/>
<polygon fill="#63b8ff" stroke="#63b8ff" points="344.2,-67.75 354.2,-64.25 344.2,-60.75 344.2,-67.75"/>
</a>
</g>
</g>
<!-- Node4 -->
<g id="Node000004" class="node">
<title>Node4</title>
<g id="a_Node000004"><a xlink:href="../../dc/d3a/src_2_utility___files_8cpp_abf34e0b480f7580b0cd4237a76aed670.html#abf34e0b480f7580b0cd4237a76aed670" target="_top" xlink:title=" ">
<polygon fill="white" stroke="#666666" points="559.75,-73.88 523.5,-73.88 523.5,-54.62 559.75,-54.62 559.75,-73.88"/>
<text text-anchor="middle" x="541.62" y="-60.38" font-family="Helvetica,sans-Serif" font-size="10.00">Print</text>
</a>
</g>
</g>
<!-- Node3&#45;&gt;Node4 -->
<g id="edge3_Node000003_Node000004" class="edge">
<title>Node3&#45;&gt;Node4</title>
<g id="a_edge3_Node000003_Node000004"><a xlink:title=" ">
<path fill="none" stroke="#63b8ff" d="M487.89,-64.25C496.22,-64.25 504.37,-64.25 511.69,-64.25"/>
<polygon fill="#63b8ff" stroke="#63b8ff" points="511.57,-67.75 521.57,-64.25 511.57,-60.75 511.57,-67.75"/>
</a>
</g>
</g>
<!-- Node6 -->
<g id="Node000006" class="node">
<title>Node6</title>
<g id="a_Node000006"><a xlink:href="../../d4/d7b/namespace_grid_performance_a2fdab3242d4062c9533d3b3d1be6fa54.html#a2fdab3242d4062c9533d3b3d1be6fa54" target="_top" xlink:title=" ">
<polygon fill="white" stroke="#666666" points="479.25,-30.5 364.25,-30.5 364.25,0 479.25,0 479.25,-30.5"/>
<text text-anchor="start" x="372.25" y="-17" font-family="Helvetica,sans-Serif" font-size="10.00">GridPerformance::start</text>
<text text-anchor="middle" x="421.75" y="-5.75" font-family="Helvetica,sans-Serif" font-size="10.00">_timer</text>
</a>
</g>
</g>
<!-- Node5&#45;&gt;Node6 -->
<g id="edge5_Node000005_Node000006" class="edge">
<title>Node5&#45;&gt;Node6</title>
<g id="a_edge5_Node000005_Node000006"><a xlink:title=" ">
<path fill="none" stroke="#63b8ff" d="M320.27,-15.25C330.67,-15.25 341.63,-15.25 352.33,-15.25"/>
<polygon fill="#63b8ff" stroke="#63b8ff" points="352.28,-18.75 362.28,-15.25 352.28,-11.75 352.28,-18.75"/>
</a>
</g>
</g>
</g>
</svg>
