<?xml version="1.0" encoding="UTF-8" standalone="no"?>
<!DOCTYPE svg PUBLIC "-//W3C//DTD SVG 1.1//EN"
 "http://www.w3.org/Graphics/SVG/1.1/DTD/svg11.dtd">
<!-- Generated by graphviz version 12.2.1 (20241206.2353)
 -->
<!-- Title: GridPerformanceBenchmark::generate_test_grid Pages: 1 -->
<svg width="683pt" height="149pt"
 viewBox="0.00 0.00 682.50 148.88" xmlns="http://www.w3.org/2000/svg" xmlns:xlink="http://www.w3.org/1999/xlink">
<g id="graph0" class="graph" transform="scale(1 1) rotate(0) translate(4 144.88)">
<title>GridPerformanceBenchmark::generate_test_grid</title>
<!-- Node1 -->
<g id="Node000001" class="node">
<title>Node1</title>
<g id="a_Node000001"><a xlink:title=" ">
<polygon fill="#999999" stroke="#666666" points="674.5,-97.88 535.5,-97.88 535.5,-67.38 674.5,-67.38 674.5,-97.88"/>
<text text-anchor="start" x="543.5" y="-84.38" font-family="Helvetica,sans-Serif" font-size="10.00">GridPerformanceBenchmark</text>
<text text-anchor="middle" x="605" y="-73.12" font-family="Helvetica,sans-Serif" font-size="10.00">::generate_test_grid</text>
</a>
</g>
</g>
<!-- Node2 -->
<g id="Node000002" class="node">
<title>Node2</title>
<g id="a_Node000002"><a xlink:href="../../d3/de1/class_grid_performance_benchmark_a7cf9619c8391e4f889ed9d1c52b003cc.html#a7cf9619c8391e4f889ed9d1c52b003cc" target="_top" xlink:title=" ">
<polygon fill="white" stroke="#666666" points="499.5,-140.88 348.5,-140.88 348.5,-110.38 499.5,-110.38 499.5,-140.88"/>
<text text-anchor="start" x="356.5" y="-127.38" font-family="Helvetica,sans-Serif" font-size="10.00">GridPerformanceBenchmark</text>
<text text-anchor="middle" x="424" y="-116.12" font-family="Helvetica,sans-Serif" font-size="10.00">::analyze_performance_scaling</text>
</a>
</g>
</g>
<!-- Node1&#45;&gt;Node2 -->
<g id="edge1_Node000001_Node000002" class="edge">
<title>Node1&#45;&gt;Node2</title>
<g id="a_edge1_Node000001_Node000002"><a xlink:title=" ">
<path fill="none" stroke="#63b8ff" d="M527.44,-101.02C515.15,-103.97 502.51,-107 490.51,-109.89"/>
<polygon fill="#63b8ff" stroke="#63b8ff" points="528.24,-104.42 537.15,-98.69 526.6,-97.62 528.24,-104.42"/>
</a>
</g>
</g>
<!-- Node3 -->
<g id="Node000003" class="node">
<title>Node3</title>
<g id="a_Node000003"><a xlink:href="../../d3/de1/class_grid_performance_benchmark_a6a31f6642222905776b59d5fc6ec1364.html#a6a31f6642222905776b59d5fc6ec1364" target="_top" xlink:title=" ">
<polygon fill="white" stroke="#666666" points="312.5,-132.88 173.5,-132.88 173.5,-102.38 312.5,-102.38 312.5,-132.88"/>
<text text-anchor="start" x="181.5" y="-119.38" font-family="Helvetica,sans-Serif" font-size="10.00">GridPerformanceBenchmark</text>
<text text-anchor="middle" x="243" y="-108.12" font-family="Helvetica,sans-Serif" font-size="10.00">::run_complete_benchmark</text>
</a>
</g>
</g>
<!-- Node1&#45;&gt;Node3 -->
<g id="edge8_Node000001_Node000003" class="edge">
<title>Node1&#45;&gt;Node3</title>
<g id="a_edge8_Node000001_Node000003"><a xlink:title=" ">
<path fill="none" stroke="#63b8ff" d="M523.53,-87C473.15,-90.14 406.93,-94.99 348.5,-101.62 336.92,-102.94 324.65,-104.59 312.76,-106.32"/>
<polygon fill="#63b8ff" stroke="#63b8ff" points="523.73,-90.5 533.49,-86.39 523.3,-83.51 523.73,-90.5"/>
</a>
</g>
</g>
<!-- Node5 -->
<g id="Node000005" class="node">
<title>Node5</title>
<g id="a_Node000005"><a xlink:href="../../d1/db0/_grid___performance___benchmark_8cpp_ac125861b22e1c75a647907d093758246.html#ac125861b22e1c75a647907d093758246" target="_top" xlink:title=" ">
<polygon fill="white" stroke="#666666" points="484.12,-54.25 363.88,-54.25 363.88,-35 484.12,-35 484.12,-54.25"/>
<text text-anchor="middle" x="424" y="-40.75" font-family="Helvetica,sans-Serif" font-size="10.00">quick_performance_test</text>
</a>
</g>
</g>
<!-- Node1&#45;&gt;Node5 -->
<g id="edge4_Node000001_Node000005" class="edge">
<title>Node1&#45;&gt;Node5</title>
<g id="a_edge4_Node000001_Node000005"><a xlink:title=" ">
<path fill="none" stroke="#63b8ff" d="M524.17,-65.68C506.55,-61.94 488.42,-58.09 472.57,-54.72"/>
<polygon fill="#63b8ff" stroke="#63b8ff" points="523.06,-69.02 533.57,-67.67 524.51,-62.17 523.06,-69.02"/>
</a>
</g>
</g>
<!-- Node2&#45;&gt;Node3 -->
<g id="edge2_Node000002_Node000003" class="edge">
<title>Node2&#45;&gt;Node3</title>
<g id="a_edge2_Node000002_Node000003"><a xlink:title=" ">
<path fill="none" stroke="#63b8ff" d="M336.82,-121.77C328.78,-121.41 320.71,-121.05 312.86,-120.7"/>
<polygon fill="#63b8ff" stroke="#63b8ff" points="336.47,-125.26 346.61,-122.21 336.78,-118.27 336.47,-125.26"/>
</a>
</g>
</g>
<!-- Node4 -->
<g id="Node000004" class="node">
<title>Node4</title>
<g id="a_Node000004"><a xlink:href="../../d1/db0/_grid___performance___benchmark_8cpp_a8eaebb5b60c50f0606cb4719e236b1bf.html#a8eaebb5b60c50f0606cb4719e236b1bf" target="_top" xlink:title=" ">
<polygon fill="white" stroke="#666666" points="123.62,-132.88 13.88,-132.88 13.88,-102.38 123.62,-102.38 123.62,-132.88"/>
<text text-anchor="start" x="21.88" y="-119.38" font-family="Helvetica,sans-Serif" font-size="10.00">run_grid_performance</text>
<text text-anchor="middle" x="68.75" y="-108.12" font-family="Helvetica,sans-Serif" font-size="10.00">_benchmark</text>
</a>
</g>
</g>
<!-- Node3&#45;&gt;Node4 -->
<g id="edge3_Node000003_Node000004" class="edge">
<title>Node3&#45;&gt;Node4</title>
<g id="a_edge3_Node000003_Node000004"><a xlink:title=" ">
<path fill="none" stroke="#63b8ff" d="M162.16,-117.62C149.25,-117.62 136.15,-117.62 124.03,-117.62"/>
<polygon fill="#63b8ff" stroke="#63b8ff" points="161.91,-121.13 171.91,-117.63 161.91,-114.13 161.91,-121.13"/>
</a>
</g>
</g>
<!-- Node6 -->
<g id="Node000006" class="node">
<title>Node6</title>
<g id="a_Node000006"><a xlink:href="../../dc/de7/_grid___optimization___integration___guide_8cpp_a2700e9b3cb476604eadbef79c7aa63d5.html#a2700e9b3cb476604eadbef79c7aa63d5" target="_top" xlink:title=" ">
<polygon fill="white" stroke="#666666" points="295.25,-67.88 190.75,-67.88 190.75,-37.38 295.25,-37.38 295.25,-67.88"/>
<text text-anchor="start" x="198.75" y="-54.38" font-family="Helvetica,sans-Serif" font-size="10.00">demonstrate_testing</text>
<text text-anchor="middle" x="243" y="-43.12" font-family="Helvetica,sans-Serif" font-size="10.00">_validation</text>
</a>
</g>
</g>
<!-- Node5&#45;&gt;Node6 -->
<g id="edge5_Node000005_Node000006" class="edge">
<title>Node5&#45;&gt;Node6</title>
<g id="a_edge5_Node000005_Node000006"><a xlink:title=" ">
<path fill="none" stroke="#63b8ff" d="M352.13,-47.79C333.23,-48.64 313.19,-49.53 295.55,-50.32"/>
<polygon fill="#63b8ff" stroke="#63b8ff" points="352.05,-51.3 361.88,-47.36 351.74,-44.31 352.05,-51.3"/>
</a>
</g>
</g>
<!-- Node8 -->
<g id="Node000008" class="node">
<title>Node8</title>
<g id="a_Node000008"><a xlink:href="../../dc/de7/_grid___optimization___integration___guide_8cpp_ac9d67fcbba41c27f9c5d5876429fe035.html#ac9d67fcbba41c27f9c5d5876429fe035" target="_top" xlink:title=" ">
<polygon fill="white" stroke="#666666" points="307.62,-19.25 178.38,-19.25 178.38,0 307.62,0 307.62,-19.25"/>
<text text-anchor="middle" x="243" y="-5.75" font-family="Helvetica,sans-Serif" font-size="10.00">example_main_integration</text>
</a>
</g>
</g>
<!-- Node5&#45;&gt;Node8 -->
<g id="edge7_Node000005_Node000008" class="edge">
<title>Node5&#45;&gt;Node8</title>
<g id="a_edge7_Node000005_Node000008"><a xlink:title=" ">
<path fill="none" stroke="#63b8ff" d="M360.1,-32.33C339.02,-28.2 315.78,-23.66 295.66,-19.73"/>
<polygon fill="#63b8ff" stroke="#63b8ff" points="359.25,-35.73 369.74,-34.21 360.6,-28.86 359.25,-35.73"/>
</a>
</g>
</g>
<!-- Node7 -->
<g id="Node000007" class="node">
<title>Node7</title>
<g id="a_Node000007"><a xlink:href="../../dc/de7/_grid___optimization___integration___guide_8cpp_ad598130e8e89b3050bb9bd71f0ab1b25.html#ad598130e8e89b3050bb9bd71f0ab1b25" target="_top" xlink:title=" ">
<polygon fill="white" stroke="#666666" points="137.5,-62.25 0,-62.25 0,-43 137.5,-43 137.5,-62.25"/>
<text text-anchor="middle" x="68.75" y="-48.75" font-family="Helvetica,sans-Serif" font-size="10.00">integrate_grid_optimizations</text>
</a>
</g>
</g>
<!-- Node6&#45;&gt;Node7 -->
<g id="edge6_Node000006_Node000007" class="edge">
<title>Node6&#45;&gt;Node7</title>
<g id="a_edge6_Node000006_Node000007"><a xlink:title=" ">
<path fill="none" stroke="#63b8ff" d="M178.86,-52.62C165.56,-52.62 151.46,-52.62 137.98,-52.62"/>
<polygon fill="#63b8ff" stroke="#63b8ff" points="178.81,-56.13 188.81,-52.63 178.81,-49.13 178.81,-56.13"/>
</a>
</g>
</g>
</g>
</svg>
