<?xml version="1.0" encoding="UTF-8" standalone="no"?>
<!DOCTYPE svg PUBLIC "-//W3C//DTD SVG 1.1//EN"
 "http://www.w3.org/Graphics/SVG/1.1/DTD/svg11.dtd">
<!-- Generated by graphviz version 12.2.1 (20241206.2353)
 -->
<!-- Title: dyld::throwf Pages: 1 -->
<svg width="198pt" height="138pt"
 viewBox="0.00 0.00 198.25 138.25" xmlns="http://www.w3.org/2000/svg" xmlns:xlink="http://www.w3.org/1999/xlink">
<g id="graph0" class="graph" transform="scale(1 1) rotate(0) translate(4 134.25)">
<title>dyld::throwf</title>
<!-- Node1 -->
<g id="Node000001" class="node">
<title>Node1</title>
<g id="a_Node000001"><a xlink:title=" ">
<polygon fill="#999999" stroke="#666666" points="67,-74.25 0,-74.25 0,-55 67,-55 67,-74.25"/>
<text text-anchor="middle" x="33.5" y="-60.75" font-family="Helvetica,sans-Serif" font-size="10.00">dyld::throwf</text>
</a>
</g>
</g>
<!-- Node2 -->
<g id="Node000002" class="node">
<title>Node2</title>
<g id="a_Node000002"><a xlink:href="../../dd/def/dyld_8h_aa7949c4d4b5511591b7d2745b72ab2a8.html#aa7949c4d4b5511591b7d2745b72ab2a8" target="_top" xlink:title=" ">
<polygon fill="white" stroke="#666666" points="186.88,-130.25 106.38,-130.25 106.38,-111 186.88,-111 186.88,-130.25"/>
<text text-anchor="middle" x="146.62" y="-116.75" font-family="Helvetica,sans-Serif" font-size="10.00">_simple_salloc</text>
</a>
</g>
</g>
<!-- Node1&#45;&gt;Node2 -->
<g id="edge1_Node000001_Node000002" class="edge">
<title>Node1&#45;&gt;Node2</title>
<g id="a_edge1_Node000001_Node000002"><a xlink:title=" ">
<path fill="none" stroke="#63b8ff" d="M51.4,-74.67C65.11,-82.64 85.03,-93.87 103,-102.62 105.38,-103.78 107.85,-104.94 110.35,-106.08"/>
<polygon fill="#63b8ff" stroke="#63b8ff" points="108.68,-109.17 119.25,-109.99 111.5,-102.76 108.68,-109.17"/>
</a>
</g>
</g>
<!-- Node3 -->
<g id="Node000003" class="node">
<title>Node3</title>
<g id="a_Node000003"><a xlink:href="../../dd/def/dyld_8h_a51b8d5cb1ebb0f85e1b5e33cb0cb1530.html#a51b8d5cb1ebb0f85e1b5e33cb0cb1530" target="_top" xlink:title=" ">
<polygon fill="white" stroke="#666666" points="185,-93.25 108.25,-93.25 108.25,-74 185,-74 185,-93.25"/>
<text text-anchor="middle" x="146.62" y="-79.75" font-family="Helvetica,sans-Serif" font-size="10.00">_simple_sfree</text>
</a>
</g>
</g>
<!-- Node1&#45;&gt;Node3 -->
<g id="edge2_Node000001_Node000003" class="edge">
<title>Node1&#45;&gt;Node3</title>
<g id="a_edge2_Node000001_Node000003"><a xlink:title=" ">
<path fill="none" stroke="#63b8ff" d="M67.24,-70.22C76.54,-71.81 86.88,-73.58 96.91,-75.3"/>
<polygon fill="#63b8ff" stroke="#63b8ff" points="96.1,-78.71 106.55,-76.94 97.28,-71.81 96.1,-78.71"/>
</a>
</g>
</g>
<!-- Node4 -->
<g id="Node000004" class="node">
<title>Node4</title>
<g id="a_Node000004"><a xlink:href="../../dd/def/dyld_8h_a6360c25e0a2d0d90e0b30cd97e61dcda.html#a6360c25e0a2d0d90e0b30cd97e61dcda" target="_top" xlink:title=" ">
<polygon fill="white" stroke="#666666" points="186.12,-56.25 107.12,-56.25 107.12,-37 186.12,-37 186.12,-56.25"/>
<text text-anchor="middle" x="146.62" y="-42.75" font-family="Helvetica,sans-Serif" font-size="10.00">_simple_string</text>
</a>
</g>
</g>
<!-- Node1&#45;&gt;Node4 -->
<g id="edge3_Node000001_Node000004" class="edge">
<title>Node1&#45;&gt;Node4</title>
<g id="a_edge3_Node000001_Node000004"><a xlink:title=" ">
<path fill="none" stroke="#63b8ff" d="M67.24,-59.32C76.17,-57.88 86.05,-56.28 95.69,-54.71"/>
<polygon fill="#63b8ff" stroke="#63b8ff" points="96.04,-58.2 105.35,-53.15 94.92,-51.29 96.04,-58.2"/>
</a>
</g>
</g>
<!-- Node5 -->
<g id="Node000005" class="node">
<title>Node5</title>
<g id="a_Node000005"><a xlink:href="../../dd/def/dyld_8h_a168167bd23f62558003c3a97922278aa.html#a168167bd23f62558003c3a97922278aa" target="_top" xlink:title=" ">
<polygon fill="white" stroke="#666666" points="190.25,-19.25 103,-19.25 103,0 190.25,0 190.25,-19.25"/>
<text text-anchor="middle" x="146.62" y="-5.75" font-family="Helvetica,sans-Serif" font-size="10.00">_simple_vsprintf</text>
</a>
</g>
</g>
<!-- Node1&#45;&gt;Node5 -->
<g id="edge4_Node000001_Node000005" class="edge">
<title>Node1&#45;&gt;Node5</title>
<g id="a_edge4_Node000001_Node000005"><a xlink:title=" ">
<path fill="none" stroke="#63b8ff" d="M52,-54.57C65.7,-46.85 85.33,-36.1 103,-27.62 105.38,-26.48 107.86,-25.33 110.36,-24.2"/>
<polygon fill="#63b8ff" stroke="#63b8ff" points="111.51,-27.52 119.27,-20.31 108.7,-21.11 111.51,-27.52"/>
</a>
</g>
</g>
</g>
</svg>
