<?xml version="1.0" encoding="UTF-8" standalone="no"?>
<!DOCTYPE svg PUBLIC "-//W3C//DTD SVG 1.1//EN"
 "http://www.w3.org/Graphics/SVG/1.1/DTD/svg11.dtd">
<!-- Generated by graphviz version 12.2.1 (20241206.2353)
 -->
<!-- Title: dyld::link Pages: 1 -->
<svg width="677pt" height="177pt"
 viewBox="0.00 0.00 676.75 177.25" xmlns="http://www.w3.org/2000/svg" xmlns:xlink="http://www.w3.org/1999/xlink">
<g id="graph0" class="graph" transform="scale(1 1) rotate(0) translate(4 173.25)">
<title>dyld::link</title>
<!-- Node1 -->
<g id="Node000001" class="node">
<title>Node1</title>
<g id="a_Node000001"><a xlink:title=" ">
<polygon fill="#999999" stroke="#666666" points="55,-76.25 0,-76.25 0,-57 55,-57 55,-76.25"/>
<text text-anchor="middle" x="27.5" y="-62.75" font-family="Helvetica,sans-Serif" font-size="10.00">dyld::link</text>
</a>
</g>
</g>
<!-- Node2 -->
<g id="Node000002" class="node">
<title>Node2</title>
<g id="a_Node000002"><a xlink:href="../../db/d2b/namespacedyld_aa60e038a9d913b248fff388b2167697b.html#aa60e038a9d913b248fff388b2167697b" target="_top" xlink:title=" ">
<polygon fill="white" stroke="#666666" points="228.5,-76.25 91,-76.25 91,-57 228.5,-57 228.5,-76.25"/>
<text text-anchor="middle" x="159.75" y="-62.75" font-family="Helvetica,sans-Serif" font-size="10.00">dyld::garbageCollectImages</text>
</a>
</g>
</g>
<!-- Node1&#45;&gt;Node2 -->
<g id="edge1_Node000001_Node000002" class="edge">
<title>Node1&#45;&gt;Node2</title>
<g id="a_edge1_Node000001_Node000002"><a xlink:title=" ">
<path fill="none" stroke="#63b8ff" d="M55.49,-66.62C62.69,-66.62 70.85,-66.62 79.36,-66.62"/>
<polygon fill="#63b8ff" stroke="#63b8ff" points="79.17,-70.13 89.17,-66.63 79.17,-63.13 79.17,-70.13"/>
</a>
</g>
</g>
<!-- Node3 -->
<g id="Node000003" class="node">
<title>Node3</title>
<g id="a_Node000003"><a xlink:href="../../db/d2b/namespacedyld_a2270ae9df42e73fab62a4111a9414dae.html#a2270ae9df42e73fab62a4111a9414dae" target="_top" xlink:title=" ">
<polygon fill="white" stroke="#666666" points="363.75,-113.25 264.5,-113.25 264.5,-94 363.75,-94 363.75,-113.25"/>
<text text-anchor="middle" x="314.12" y="-99.75" font-family="Helvetica,sans-Serif" font-size="10.00">dyld::removeImage</text>
</a>
</g>
</g>
<!-- Node2&#45;&gt;Node3 -->
<g id="edge2_Node000002_Node000003" class="edge">
<title>Node2&#45;&gt;Node3</title>
<g id="a_edge2_Node000002_Node000003"><a xlink:title=" ">
<path fill="none" stroke="#63b8ff" d="M202.39,-76.74C220.28,-81.08 241.39,-86.21 260.36,-90.81"/>
<polygon fill="#63b8ff" stroke="#63b8ff" points="259.52,-94.21 270.07,-93.17 261.18,-87.41 259.52,-94.21"/>
</a>
</g>
</g>
<!-- Node8 -->
<g id="Node000008" class="node">
<title>Node8</title>
<g id="a_Node000008"><a xlink:href="../../db/d2b/namespacedyld_a493684f6608096123f2849a0b47ce2b9.html#a493684f6608096123f2849a0b47ce2b9" target="_top" xlink:title=" ">
<polygon fill="white" stroke="#666666" points="344.62,-57.25 283.62,-57.25 283.62,-38 344.62,-38 344.62,-57.25"/>
<text text-anchor="middle" x="314.12" y="-43.75" font-family="Helvetica,sans-Serif" font-size="10.00">dyld::warn</text>
</a>
</g>
</g>
<!-- Node2&#45;&gt;Node8 -->
<g id="edge7_Node000002_Node000008" class="edge">
<title>Node2&#45;&gt;Node8</title>
<g id="a_edge7_Node000002_Node000008"><a xlink:title=" ">
<path fill="none" stroke="#63b8ff" d="M228.92,-58.13C243.62,-56.29 258.74,-54.41 272.03,-52.75"/>
<polygon fill="#63b8ff" stroke="#63b8ff" points="272.19,-56.26 281.68,-51.55 271.32,-49.31 272.19,-56.26"/>
</a>
</g>
</g>
<!-- Node4 -->
<g id="Node000004" class="node">
<title>Node4</title>
<g id="a_Node000004"><a xlink:href="../../db/d2b/namespacedyld_a72cc24ec115706df5218230fd85e620a.html#a72cc24ec115706df5218230fd85e620a" target="_top" xlink:title=" ">
<polygon fill="white" stroke="#666666" points="499,-169.25 446.25,-169.25 446.25,-150 499,-150 499,-169.25"/>
<text text-anchor="middle" x="472.62" y="-155.75" font-family="Helvetica,sans-Serif" font-size="10.00">dyld::log</text>
</a>
</g>
</g>
<!-- Node3&#45;&gt;Node4 -->
<g id="edge3_Node000003_Node000004" class="edge">
<title>Node3&#45;&gt;Node4</title>
<g id="a_edge3_Node000003_Node000004"><a xlink:title=" ">
<path fill="none" stroke="#63b8ff" d="M334.9,-113.7C351.79,-122.03 376.93,-133.71 399.75,-141.62 411.05,-145.54 423.63,-148.99 435.06,-151.79"/>
<polygon fill="#63b8ff" stroke="#63b8ff" points="434.02,-155.14 444.55,-154.02 435.62,-148.33 434.02,-155.14"/>
</a>
</g>
</g>
<!-- Node6 -->
<g id="Node000006" class="node">
<title>Node6</title>
<g id="a_Node000006"><a xlink:href="../../db/d2b/namespacedyld_a258d010acaeafd7a53a41962ade074c7.html#a258d010acaeafd7a53a41962ade074c7" target="_top" xlink:title=" ">
<polygon fill="white" stroke="#666666" points="545.5,-132.25 399.75,-132.25 399.75,-113 545.5,-113 545.5,-132.25"/>
<text text-anchor="middle" x="472.62" y="-118.75" font-family="Helvetica,sans-Serif" font-size="10.00">dyld::removedMappedRanges</text>
</a>
</g>
</g>
<!-- Node3&#45;&gt;Node6 -->
<g id="edge5_Node000003_Node000006" class="edge">
<title>Node3&#45;&gt;Node6</title>
<g id="a_edge5_Node000003_Node000006"><a xlink:title=" ">
<path fill="none" stroke="#63b8ff" d="M364.21,-109.58C371.92,-110.52 380.06,-111.51 388.28,-112.51"/>
<polygon fill="#63b8ff" stroke="#63b8ff" points="387.65,-115.96 398,-113.69 388.49,-109.01 387.65,-115.96"/>
</a>
</g>
</g>
<!-- Node7 -->
<g id="Node000007" class="node">
<title>Node7</title>
<g id="a_Node000007"><a xlink:href="../../dd/def/dyld_8h_ae127d0d5c98d074e837f2dd5bf6195b3.html#ae127d0d5c98d074e837f2dd5bf6195b3" target="_top" xlink:title=" ">
<polygon fill="white" stroke="#666666" points="543.25,-95.25 402,-95.25 402,-76 543.25,-76 543.25,-95.25"/>
<text text-anchor="middle" x="472.62" y="-81.75" font-family="Helvetica,sans-Serif" font-size="10.00">removeImageFromAllImages</text>
</a>
</g>
</g>
<!-- Node3&#45;&gt;Node7 -->
<g id="edge6_Node000003_Node000007" class="edge">
<title>Node3&#45;&gt;Node7</title>
<g id="a_edge6_Node000003_Node000007"><a xlink:title=" ">
<path fill="none" stroke="#63b8ff" d="M364.21,-97.98C372.53,-97.02 381.37,-96.01 390.25,-94.98"/>
<polygon fill="#63b8ff" stroke="#63b8ff" points="390.47,-98.48 400,-93.86 389.67,-91.53 390.47,-98.48"/>
</a>
</g>
</g>
<!-- Node5 -->
<g id="Node000005" class="node">
<title>Node5</title>
<g id="a_Node000005"><a xlink:href="../../dd/def/dyld_8h_a91ddfa69e5977270b9bd3fc1042ad53a.html#a91ddfa69e5977270b9bd3fc1042ad53a" target="_top" xlink:title=" ">
<polygon fill="white" stroke="#666666" points="668.75,-113.25 581.5,-113.25 581.5,-94 668.75,-94 668.75,-113.25"/>
<text text-anchor="middle" x="625.12" y="-99.75" font-family="Helvetica,sans-Serif" font-size="10.00">_simple_vdprintf</text>
</a>
</g>
</g>
<!-- Node4&#45;&gt;Node5 -->
<g id="edge4_Node000004_Node000005" class="edge">
<title>Node4&#45;&gt;Node5</title>
<g id="a_edge4_Node000004_Node000005"><a xlink:title=" ">
<path fill="none" stroke="#63b8ff" d="M499.29,-154.54C513.17,-151.45 530.5,-147.06 545.5,-141.62 562.82,-135.35 581.41,-126.47 596.16,-118.87"/>
<polygon fill="#63b8ff" stroke="#63b8ff" points="597.59,-122.07 604.82,-114.33 594.34,-115.88 597.59,-122.07"/>
</a>
</g>
</g>
<!-- Node8&#45;&gt;Node5 -->
<g id="edge9_Node000008_Node000005" class="edge">
<title>Node8&#45;&gt;Node5</title>
<g id="a_edge9_Node000008_Node000005"><a xlink:title=" ">
<path fill="none" stroke="#63b8ff" d="M344.79,-46.73C389.22,-46.14 475.32,-47.88 545.5,-66.62 563.56,-71.45 582.56,-80.27 597.36,-88.09"/>
<polygon fill="#63b8ff" stroke="#63b8ff" points="595.53,-91.09 605.99,-92.81 598.89,-84.95 595.53,-91.09"/>
</a>
</g>
</g>
<!-- Node9 -->
<g id="Node000009" class="node">
<title>Node9</title>
<g id="a_Node000009"><a xlink:href="../../dd/def/dyld_8h_a14784b2e835996ee9a62e6ae70fb170a.html#a14784b2e835996ee9a62e6ae70fb170a" target="_top" xlink:title=" ">
<polygon fill="white" stroke="#666666" points="513.62,-19.25 431.62,-19.25 431.62,0 513.62,0 513.62,-19.25"/>
<text text-anchor="middle" x="472.62" y="-5.75" font-family="Helvetica,sans-Serif" font-size="10.00">_simple_dprintf</text>
</a>
</g>
</g>
<!-- Node8&#45;&gt;Node9 -->
<g id="edge8_Node000008_Node000009" class="edge">
<title>Node8&#45;&gt;Node9</title>
<g id="a_edge8_Node000008_Node000009"><a xlink:title=" ">
<path fill="none" stroke="#63b8ff" d="M344.93,-40.39C366.16,-35.23 395.22,-28.18 420.16,-22.12"/>
<polygon fill="#63b8ff" stroke="#63b8ff" points="420.92,-25.54 429.82,-19.78 419.27,-18.74 420.92,-25.54"/>
</a>
</g>
</g>
</g>
</svg>
