<?xml version="1.0" encoding="UTF-8" standalone="no"?>
<!DOCTYPE svg PUBLIC "-//W3C//DTD SVG 1.1//EN"
 "http://www.w3.org/Graphics/SVG/1.1/DTD/svg11.dtd">
<!-- Generated by graphviz version 12.2.1 (20241206.2353)
 -->
<!-- Title: dyld::bindLazySymbol Pages: 1 -->
<svg width="584pt" height="354pt"
 viewBox="0.00 0.00 584.25 354.25" xmlns="http://www.w3.org/2000/svg" xmlns:xlink="http://www.w3.org/1999/xlink">
<g id="graph0" class="graph" transform="scale(1 1) rotate(0) translate(4 350.25)">
<title>dyld::bindLazySymbol</title>
<!-- Node1 -->
<g id="Node000001" class="node">
<title>Node1</title>
<g id="a_Node000001"><a xlink:title=" ">
<polygon fill="#999999" stroke="#666666" points="112,-260.25 0,-260.25 0,-241 112,-241 112,-260.25"/>
<text text-anchor="middle" x="56" y="-246.75" font-family="Helvetica,sans-Serif" font-size="10.00">dyld::bindLazySymbol</text>
</a>
</g>
</g>
<!-- Node2 -->
<g id="Node000002" class="node">
<title>Node2</title>
<g id="a_Node000002"><a xlink:href="../../db/d2b/namespacedyld_afb4b5153555e15efd331cf5db73a9cc3.html#afb4b5153555e15efd331cf5db73a9cc3" target="_top" xlink:title=" ">
<polygon fill="white" stroke="#666666" points="298.25,-346.25 148,-346.25 148,-327 298.25,-327 298.25,-346.25"/>
<text text-anchor="middle" x="223.12" y="-332.75" font-family="Helvetica,sans-Serif" font-size="10.00">dyld::findImageByMachHeader</text>
</a>
</g>
</g>
<!-- Node1&#45;&gt;Node2 -->
<g id="edge1_Node000001_Node000002" class="edge">
<title>Node1&#45;&gt;Node2</title>
<g id="a_edge1_Node000001_Node000002"><a xlink:title=" ">
<path fill="none" stroke="#63b8ff" d="M67.59,-260.59C83.71,-275.22 115.91,-302.41 148,-317.62 152.19,-319.61 156.61,-321.41 161.12,-323.03"/>
<polygon fill="#63b8ff" stroke="#63b8ff" points="159.73,-326.26 170.32,-326.04 161.9,-319.6 159.73,-326.26"/>
</a>
</g>
</g>
<!-- Node4 -->
<g id="Node000004" class="node">
<title>Node4</title>
<g id="a_Node000004"><a xlink:href="../../db/d2b/namespacedyld_aba23eb4274d879c572e4393d56c4fa5a.html#aba23eb4274d879c572e4393d56c4fa5a" target="_top" xlink:title=" ">
<polygon fill="white" stroke="#666666" points="287.75,-308.88 158.5,-308.88 158.5,-278.38 287.75,-278.38 287.75,-308.88"/>
<text text-anchor="start" x="166.5" y="-295.38" font-family="Helvetica,sans-Serif" font-size="10.00">dyld::findImageContaining</text>
<text text-anchor="middle" x="223.12" y="-284.12" font-family="Helvetica,sans-Serif" font-size="10.00">Address</text>
</a>
</g>
</g>
<!-- Node1&#45;&gt;Node4 -->
<g id="edge3_Node000001_Node000004" class="edge">
<title>Node1&#45;&gt;Node4</title>
<g id="a_edge3_Node000001_Node000004"><a xlink:title=" ">
<path fill="none" stroke="#63b8ff" d="M95.71,-260.71C112.13,-264.98 131.8,-270.1 150.68,-275.02"/>
<polygon fill="#63b8ff" stroke="#63b8ff" points="149.66,-278.37 160.22,-277.5 151.42,-271.6 149.66,-278.37"/>
</a>
</g>
</g>
<!-- Node5 -->
<g id="Node000005" class="node">
<title>Node5</title>
<g id="a_Node000005"><a xlink:href="../../db/d2b/namespacedyld_a9843a873de01c9993039f1e3bfc563b7.html#a9843a873de01c9993039f1e3bfc563b7" target="_top" xlink:title=" ">
<polygon fill="white" stroke="#666666" points="251,-222.25 195.25,-222.25 195.25,-203 251,-203 251,-222.25"/>
<text text-anchor="middle" x="223.12" y="-208.75" font-family="Helvetica,sans-Serif" font-size="10.00">dyld::halt</text>
</a>
</g>
</g>
<!-- Node1&#45;&gt;Node5 -->
<g id="edge5_Node000001_Node000005" class="edge">
<title>Node1&#45;&gt;Node5</title>
<g id="a_edge5_Node000001_Node000005"><a xlink:title=" ">
<path fill="none" stroke="#63b8ff" d="M100.82,-240.54C126.72,-234.58 159.19,-227.11 184.03,-221.39"/>
<polygon fill="#63b8ff" stroke="#63b8ff" points="184.76,-224.82 193.72,-219.16 183.19,-217.99 184.76,-224.82"/>
</a>
</g>
</g>
<!-- Node7 -->
<g id="Node000007" class="node">
<title>Node7</title>
<g id="a_Node000007"><a xlink:href="../../db/d2b/namespacedyld_a72cc24ec115706df5218230fd85e620a.html#a72cc24ec115706df5218230fd85e620a" target="_top" xlink:title=" ">
<polygon fill="white" stroke="#666666" points="420,-278.25 367.25,-278.25 367.25,-259 420,-259 420,-278.25"/>
<text text-anchor="middle" x="393.62" y="-264.75" font-family="Helvetica,sans-Serif" font-size="10.00">dyld::log</text>
</a>
</g>
</g>
<!-- Node1&#45;&gt;Node7 -->
<g id="edge11_Node000001_Node000007" class="edge">
<title>Node1&#45;&gt;Node7</title>
<g id="a_edge11_Node000001_Node000007"><a xlink:title=" ">
<path fill="none" stroke="#63b8ff" d="M112.42,-253.6C181.22,-257.29 296.68,-263.48 355.6,-266.64"/>
<polygon fill="#63b8ff" stroke="#63b8ff" points="355.25,-270.13 365.43,-267.17 355.63,-263.14 355.25,-270.13"/>
</a>
</g>
</g>
<!-- Node11 -->
<g id="Node000011" class="node">
<title>Node11</title>
<g id="a_Node000011"><a xlink:href="../../db/d2b/namespacedyld_a411fc4ccc8bc79a2e384ba95ff74fd38.html#a411fc4ccc8bc79a2e384ba95ff74fd38" target="_top" xlink:title=" ">
<polygon fill="white" stroke="#666666" points="256.62,-93.25 189.62,-93.25 189.62,-74 256.62,-74 256.62,-93.25"/>
<text text-anchor="middle" x="223.12" y="-79.75" font-family="Helvetica,sans-Serif" font-size="10.00">dyld::throwf</text>
</a>
</g>
</g>
<!-- Node1&#45;&gt;Node11 -->
<g id="edge12_Node000001_Node000011" class="edge">
<title>Node1&#45;&gt;Node11</title>
<g id="a_edge12_Node000001_Node000011"><a xlink:title=" ">
<path fill="none" stroke="#63b8ff" d="M66.83,-240.68C93.85,-213.36 169.46,-136.88 204.23,-101.72"/>
<polygon fill="#63b8ff" stroke="#63b8ff" points="206.53,-104.38 211.07,-94.81 201.55,-99.46 206.53,-104.38"/>
</a>
</g>
</g>
<!-- Node3 -->
<g id="Node000003" class="node">
<title>Node3</title>
<g id="a_Node000003"><a xlink:href="../../db/d2b/namespacedyld_aedae0bb12d87f54d25ac06af5d8b7ded.html#aedae0bb12d87f54d25ac06af5d8b7ded" target="_top" xlink:title=" ">
<polygon fill="white" stroke="#666666" points="453,-340.25 334.25,-340.25 334.25,-321 453,-321 453,-340.25"/>
<text text-anchor="middle" x="393.62" y="-326.75" font-family="Helvetica,sans-Serif" font-size="10.00">dyld::findMappedRange</text>
</a>
</g>
</g>
<!-- Node2&#45;&gt;Node3 -->
<g id="edge2_Node000002_Node000003" class="edge">
<title>Node2&#45;&gt;Node3</title>
<g id="a_edge2_Node000002_Node000003"><a xlink:title=" ">
<path fill="none" stroke="#63b8ff" d="M298.52,-333.98C306.46,-333.69 314.51,-333.41 322.4,-333.13"/>
<polygon fill="#63b8ff" stroke="#63b8ff" points="322.42,-336.63 332.29,-332.77 322.17,-329.63 322.42,-336.63"/>
</a>
</g>
</g>
<!-- Node4&#45;&gt;Node3 -->
<g id="edge4_Node000004_Node000003" class="edge">
<title>Node4&#45;&gt;Node3</title>
<g id="a_edge4_Node000004_Node000003"><a xlink:title=" ">
<path fill="none" stroke="#63b8ff" d="M287.83,-307.61C303.58,-311.07 320.35,-314.75 335.75,-318.14"/>
<polygon fill="#63b8ff" stroke="#63b8ff" points="334.69,-321.49 345.2,-320.21 336.19,-314.65 334.69,-321.49"/>
</a>
</g>
</g>
<!-- Node6 -->
<g id="Node000006" class="node">
<title>Node6</title>
<g id="a_Node000006"><a xlink:href="../../dd/def/dyld_8h_a86b57347a976db6a934f56b77aa0aed7.html#a86b57347a976db6a934f56b77aa0aed7" target="_top" xlink:title=" ">
<polygon fill="white" stroke="#666666" points="435,-241.25 352.25,-241.25 352.25,-222 435,-222 435,-241.25"/>
<text text-anchor="middle" x="393.62" y="-227.75" font-family="Helvetica,sans-Serif" font-size="10.00">dyld_fatal_error</text>
</a>
</g>
</g>
<!-- Node5&#45;&gt;Node6 -->
<g id="edge6_Node000005_Node000006" class="edge">
<title>Node5&#45;&gt;Node6</title>
<g id="a_edge6_Node000005_Node000006"><a xlink:title=" ">
<path fill="none" stroke="#63b8ff" d="M251.2,-215.68C275.18,-218.38 310.86,-222.41 340.39,-225.73"/>
<polygon fill="#63b8ff" stroke="#63b8ff" points="339.94,-229.21 350.27,-226.85 340.73,-222.25 339.94,-229.21"/>
</a>
</g>
</g>
<!-- Node5&#45;&gt;Node7 -->
<g id="edge7_Node000005_Node000007" class="edge">
<title>Node5&#45;&gt;Node7</title>
<g id="a_edge7_Node000005_Node000007"><a xlink:title=" ">
<path fill="none" stroke="#63b8ff" d="M251.36,-221.03C265.43,-225.47 282.83,-231.14 298.25,-236.62 314.42,-242.38 318.04,-244.98 334.25,-250.62 341.22,-253.05 348.71,-255.49 355.92,-257.75"/>
<polygon fill="#63b8ff" stroke="#63b8ff" points="354.89,-261.09 365.48,-260.69 356.95,-254.4 354.89,-261.09"/>
</a>
</g>
</g>
<!-- Node9 -->
<g id="Node000009" class="node">
<title>Node9</title>
<g id="a_Node000009"><a xlink:href="../../dd/def/dyld_8h_aa1c0531f62f5349124e433c3e5e59801.html#aa1c0531f62f5349124e433c3e5e59801" target="_top" xlink:title=" ">
<polygon fill="white" stroke="#666666" points="446.25,-204.25 341,-204.25 341,-185 446.25,-185 446.25,-204.25"/>
<text text-anchor="middle" x="393.62" y="-190.75" font-family="Helvetica,sans-Serif" font-size="10.00">setAlImageInfosHalt</text>
</a>
</g>
</g>
<!-- Node5&#45;&gt;Node9 -->
<g id="edge9_Node000005_Node000009" class="edge">
<title>Node5&#45;&gt;Node9</title>
<g id="a_edge9_Node000005_Node000009"><a xlink:title=" ">
<path fill="none" stroke="#63b8ff" d="M251.2,-209.73C272.28,-207.48 302.41,-204.26 329.44,-201.37"/>
<polygon fill="#63b8ff" stroke="#63b8ff" points="329.73,-204.86 339.3,-200.32 328.98,-197.9 329.73,-204.86"/>
</a>
</g>
</g>
<!-- Node10 -->
<g id="Node000010" class="node">
<title>Node10</title>
<g id="a_Node000010"><a xlink:href="../../db/d2b/namespacedyld_ab03b0942657235fbdf6ec129d8659be0.html#ab03b0942657235fbdf6ec129d8659be0" target="_top" xlink:title=" ">
<polygon fill="white" stroke="#666666" points="450.75,-167.25 336.5,-167.25 336.5,-148 450.75,-148 450.75,-167.25"/>
<text text-anchor="middle" x="393.62" y="-153.75" font-family="Helvetica,sans-Serif" font-size="10.00">dyld::setErrorMessage</text>
</a>
</g>
</g>
<!-- Node5&#45;&gt;Node10 -->
<g id="edge10_Node000005_Node000010" class="edge">
<title>Node5&#45;&gt;Node10</title>
<g id="a_edge10_Node000005_Node000010"><a xlink:title=" ">
<path fill="none" stroke="#63b8ff" d="M251.22,-203.31C273.47,-195.71 305.84,-184.78 334.25,-175.62 338.98,-174.1 343.93,-172.53 348.86,-170.99"/>
<polygon fill="#63b8ff" stroke="#63b8ff" points="349.59,-174.43 358.1,-168.12 347.51,-167.74 349.59,-174.43"/>
</a>
</g>
</g>
<!-- Node8 -->
<g id="Node000008" class="node">
<title>Node8</title>
<g id="a_Node000008"><a xlink:href="../../dd/def/dyld_8h_a91ddfa69e5977270b9bd3fc1042ad53a.html#a91ddfa69e5977270b9bd3fc1042ad53a" target="_top" xlink:title=" ">
<polygon fill="white" stroke="#666666" points="576.25,-278.25 489,-278.25 489,-259 576.25,-259 576.25,-278.25"/>
<text text-anchor="middle" x="532.62" y="-264.75" font-family="Helvetica,sans-Serif" font-size="10.00">_simple_vdprintf</text>
</a>
</g>
</g>
<!-- Node7&#45;&gt;Node8 -->
<g id="edge8_Node000007_Node000008" class="edge">
<title>Node7&#45;&gt;Node8</title>
<g id="a_edge8_Node000007_Node000008"><a xlink:title=" ">
<path fill="none" stroke="#63b8ff" d="M420.39,-268.62C436.46,-268.62 457.76,-268.62 477.41,-268.62"/>
<polygon fill="#63b8ff" stroke="#63b8ff" points="477.22,-272.13 487.22,-268.63 477.22,-265.13 477.22,-272.13"/>
</a>
</g>
</g>
<!-- Node12 -->
<g id="Node000012" class="node">
<title>Node12</title>
<g id="a_Node000012"><a xlink:href="../../dd/def/dyld_8h_aa7949c4d4b5511591b7d2745b72ab2a8.html#aa7949c4d4b5511591b7d2745b72ab2a8" target="_top" xlink:title=" ">
<polygon fill="white" stroke="#666666" points="433.88,-130.25 353.38,-130.25 353.38,-111 433.88,-111 433.88,-130.25"/>
<text text-anchor="middle" x="393.62" y="-116.75" font-family="Helvetica,sans-Serif" font-size="10.00">_simple_salloc</text>
</a>
</g>
</g>
<!-- Node11&#45;&gt;Node12 -->
<g id="edge13_Node000011_Node000012" class="edge">
<title>Node11&#45;&gt;Node12</title>
<g id="a_edge13_Node000011_Node000012"><a xlink:title=" ">
<path fill="none" stroke="#63b8ff" d="M257.01,-90.85C281.17,-96.15 314.44,-103.46 341.98,-109.5"/>
<polygon fill="#63b8ff" stroke="#63b8ff" points="341,-112.87 351.52,-111.6 342.51,-106.04 341,-112.87"/>
</a>
</g>
</g>
<!-- Node13 -->
<g id="Node000013" class="node">
<title>Node13</title>
<g id="a_Node000013"><a xlink:href="../../dd/def/dyld_8h_a51b8d5cb1ebb0f85e1b5e33cb0cb1530.html#a51b8d5cb1ebb0f85e1b5e33cb0cb1530" target="_top" xlink:title=" ">
<polygon fill="white" stroke="#666666" points="432,-93.25 355.25,-93.25 355.25,-74 432,-74 432,-93.25"/>
<text text-anchor="middle" x="393.62" y="-79.75" font-family="Helvetica,sans-Serif" font-size="10.00">_simple_sfree</text>
</a>
</g>
</g>
<!-- Node11&#45;&gt;Node13 -->
<g id="edge14_Node000011_Node000013" class="edge">
<title>Node11&#45;&gt;Node13</title>
<g id="a_edge14_Node000011_Node000013"><a xlink:title=" ">
<path fill="none" stroke="#63b8ff" d="M257.01,-83.62C281.57,-83.62 315.53,-83.62 343.33,-83.62"/>
<polygon fill="#63b8ff" stroke="#63b8ff" points="343.31,-87.13 353.31,-83.63 343.31,-80.13 343.31,-87.13"/>
</a>
</g>
</g>
<!-- Node14 -->
<g id="Node000014" class="node">
<title>Node14</title>
<g id="a_Node000014"><a xlink:href="../../dd/def/dyld_8h_a6360c25e0a2d0d90e0b30cd97e61dcda.html#a6360c25e0a2d0d90e0b30cd97e61dcda" target="_top" xlink:title=" ">
<polygon fill="white" stroke="#666666" points="433.12,-56.25 354.12,-56.25 354.12,-37 433.12,-37 433.12,-56.25"/>
<text text-anchor="middle" x="393.62" y="-42.75" font-family="Helvetica,sans-Serif" font-size="10.00">_simple_string</text>
</a>
</g>
</g>
<!-- Node11&#45;&gt;Node14 -->
<g id="edge15_Node000011_Node000014" class="edge">
<title>Node11&#45;&gt;Node14</title>
<g id="a_edge15_Node000011_Node000014"><a xlink:title=" ">
<path fill="none" stroke="#63b8ff" d="M257.01,-76.4C281.42,-71.04 315.14,-63.64 342.84,-57.56"/>
<polygon fill="#63b8ff" stroke="#63b8ff" points="343.42,-61.01 352.43,-55.45 341.92,-54.18 343.42,-61.01"/>
</a>
</g>
</g>
<!-- Node15 -->
<g id="Node000015" class="node">
<title>Node15</title>
<g id="a_Node000015"><a xlink:href="../../dd/def/dyld_8h_a168167bd23f62558003c3a97922278aa.html#a168167bd23f62558003c3a97922278aa" target="_top" xlink:title=" ">
<polygon fill="white" stroke="#666666" points="437.25,-19.25 350,-19.25 350,0 437.25,0 437.25,-19.25"/>
<text text-anchor="middle" x="393.62" y="-5.75" font-family="Helvetica,sans-Serif" font-size="10.00">_simple_vsprintf</text>
</a>
</g>
</g>
<!-- Node11&#45;&gt;Node15 -->
<g id="edge16_Node000011_Node000015" class="edge">
<title>Node11&#45;&gt;Node15</title>
<g id="a_edge16_Node000011_Node000015"><a xlink:title=" ">
<path fill="none" stroke="#63b8ff" d="M241.62,-73.55C262.98,-61.52 300.45,-41.31 334.25,-27.62 337.9,-26.15 341.72,-24.72 345.58,-23.36"/>
<polygon fill="#63b8ff" stroke="#63b8ff" points="346.67,-26.69 355.04,-20.19 344.45,-20.05 346.67,-26.69"/>
</a>
</g>
</g>
</g>
</svg>
