<?xml version="1.0" encoding="UTF-8" standalone="no"?>
<!DOCTYPE svg PUBLIC "-//W3C//DTD SVG 1.1//EN"
 "http://www.w3.org/Graphics/SVG/1.1/DTD/svg11.dtd">
<!-- Generated by graphviz version 12.2.1 (20241206.2353)
 -->
<!-- Title: dyld::mkstringf Pages: 1 -->
<svg width="212pt" height="138pt"
 viewBox="0.00 0.00 211.75 138.25" xmlns="http://www.w3.org/2000/svg" xmlns:xlink="http://www.w3.org/1999/xlink">
<g id="graph0" class="graph" transform="scale(1 1) rotate(0) translate(4 134.25)">
<title>dyld::mkstringf</title>
<!-- Node1 -->
<g id="Node000001" class="node">
<title>Node1</title>
<g id="a_Node000001"><a xlink:title=" ">
<polygon fill="#999999" stroke="#666666" points="80.5,-74.25 0,-74.25 0,-55 80.5,-55 80.5,-74.25"/>
<text text-anchor="middle" x="40.25" y="-60.75" font-family="Helvetica,sans-Serif" font-size="10.00">dyld::mkstringf</text>
</a>
</g>
</g>
<!-- Node2 -->
<g id="Node000002" class="node">
<title>Node2</title>
<g id="a_Node000002"><a xlink:href="../../dd/def/dyld_8h_aa7949c4d4b5511591b7d2745b72ab2a8.html#aa7949c4d4b5511591b7d2745b72ab2a8" target="_top" xlink:title=" ">
<polygon fill="white" stroke="#666666" points="200.38,-130.25 119.88,-130.25 119.88,-111 200.38,-111 200.38,-130.25"/>
<text text-anchor="middle" x="160.12" y="-116.75" font-family="Helvetica,sans-Serif" font-size="10.00">_simple_salloc</text>
</a>
</g>
</g>
<!-- Node1&#45;&gt;Node2 -->
<g id="edge1_Node000001_Node000002" class="edge">
<title>Node1&#45;&gt;Node2</title>
<g id="a_edge1_Node000001_Node000002"><a xlink:title=" ">
<path fill="none" stroke="#63b8ff" d="M60.25,-74.67C75.36,-82.55 97.11,-93.65 116.5,-102.62 118.96,-103.76 121.51,-104.92 124.09,-106.06"/>
<polygon fill="#63b8ff" stroke="#63b8ff" points="122.7,-109.27 133.27,-110.03 125.48,-102.84 122.7,-109.27"/>
</a>
</g>
</g>
<!-- Node3 -->
<g id="Node000003" class="node">
<title>Node3</title>
<g id="a_Node000003"><a xlink:href="../../dd/def/dyld_8h_a51b8d5cb1ebb0f85e1b5e33cb0cb1530.html#a51b8d5cb1ebb0f85e1b5e33cb0cb1530" target="_top" xlink:title=" ">
<polygon fill="white" stroke="#666666" points="198.5,-93.25 121.75,-93.25 121.75,-74 198.5,-74 198.5,-93.25"/>
<text text-anchor="middle" x="160.12" y="-79.75" font-family="Helvetica,sans-Serif" font-size="10.00">_simple_sfree</text>
</a>
</g>
</g>
<!-- Node1&#45;&gt;Node3 -->
<g id="edge2_Node000001_Node000003" class="edge">
<title>Node1&#45;&gt;Node3</title>
<g id="a_edge2_Node000001_Node000003"><a xlink:title=" ">
<path fill="none" stroke="#63b8ff" d="M80.83,-71C90.25,-72.52 100.42,-74.16 110.2,-75.74"/>
<polygon fill="#63b8ff" stroke="#63b8ff" points="109.52,-79.17 119.95,-77.31 110.64,-72.26 109.52,-79.17"/>
</a>
</g>
</g>
<!-- Node4 -->
<g id="Node000004" class="node">
<title>Node4</title>
<g id="a_Node000004"><a xlink:href="../../dd/def/dyld_8h_a6360c25e0a2d0d90e0b30cd97e61dcda.html#a6360c25e0a2d0d90e0b30cd97e61dcda" target="_top" xlink:title=" ">
<polygon fill="white" stroke="#666666" points="199.62,-56.25 120.62,-56.25 120.62,-37 199.62,-37 199.62,-56.25"/>
<text text-anchor="middle" x="160.12" y="-42.75" font-family="Helvetica,sans-Serif" font-size="10.00">_simple_string</text>
</a>
</g>
</g>
<!-- Node1&#45;&gt;Node4 -->
<g id="edge3_Node000001_Node000004" class="edge">
<title>Node1&#45;&gt;Node4</title>
<g id="a_edge3_Node000001_Node000004"><a xlink:title=" ">
<path fill="none" stroke="#63b8ff" d="M80.83,-58.58C89.86,-57.2 99.58,-55.72 108.99,-54.28"/>
<polygon fill="#63b8ff" stroke="#63b8ff" points="109.4,-57.76 118.76,-52.79 108.34,-50.84 109.4,-57.76"/>
</a>
</g>
</g>
<!-- Node5 -->
<g id="Node000005" class="node">
<title>Node5</title>
<g id="a_Node000005"><a xlink:href="../../dd/def/dyld_8h_a168167bd23f62558003c3a97922278aa.html#a168167bd23f62558003c3a97922278aa" target="_top" xlink:title=" ">
<polygon fill="white" stroke="#666666" points="203.75,-19.25 116.5,-19.25 116.5,0 203.75,0 203.75,-19.25"/>
<text text-anchor="middle" x="160.12" y="-5.75" font-family="Helvetica,sans-Serif" font-size="10.00">_simple_vsprintf</text>
</a>
</g>
</g>
<!-- Node1&#45;&gt;Node5 -->
<g id="edge4_Node000001_Node000005" class="edge">
<title>Node1&#45;&gt;Node5</title>
<g id="a_edge4_Node000001_Node000005"><a xlink:title=" ">
<path fill="none" stroke="#63b8ff" d="M60.91,-54.57C76,-46.95 97.43,-36.33 116.5,-27.62 118.97,-26.5 121.52,-25.36 124.1,-24.22"/>
<polygon fill="#63b8ff" stroke="#63b8ff" points="125.49,-27.44 133.29,-20.26 122.72,-21.01 125.49,-27.44"/>
</a>
</g>
</g>
</g>
</svg>
