<?xml version="1.0" encoding="UTF-8" standalone="no"?>
<!DOCTYPE svg PUBLIC "-//W3C//DTD SVG 1.1//EN"
 "http://www.w3.org/Graphics/SVG/1.1/DTD/svg11.dtd">
<!-- Generated by graphviz version 12.2.1 (20241206.2353)
 -->
<!-- Title: dyld::loadFromMemory Pages: 1 -->
<svg width="515pt" height="138pt"
 viewBox="0.00 0.00 514.50 138.25" xmlns="http://www.w3.org/2000/svg" xmlns:xlink="http://www.w3.org/1999/xlink">
<g id="graph0" class="graph" transform="scale(1 1) rotate(0) translate(4 134.25)">
<title>dyld::loadFromMemory</title>
<!-- Node1 -->
<g id="Node000001" class="node">
<title>Node1</title>
<g id="a_Node000001"><a xlink:title=" ">
<polygon fill="#999999" stroke="#666666" points="115.75,-74.25 0,-74.25 0,-55 115.75,-55 115.75,-74.25"/>
<text text-anchor="middle" x="57.88" y="-60.75" font-family="Helvetica,sans-Serif" font-size="10.00">dyld::loadFromMemory</text>
</a>
</g>
</g>
<!-- Node2 -->
<g id="Node000002" class="node">
<title>Node2</title>
<g id="a_Node000002"><a xlink:href="../../db/d2b/namespacedyld_ac04fc826d44a2479a7e44186af582fe8.html#ac04fc826d44a2479a7e44186af582fe8" target="_top" xlink:title=" ">
<polygon fill="white" stroke="#666666" points="280.25,-93.25 151.75,-93.25 151.75,-74 280.25,-74 280.25,-93.25"/>
<text text-anchor="middle" x="216" y="-79.75" font-family="Helvetica,sans-Serif" font-size="10.00">dyld::isCompatibleMachO</text>
</a>
</g>
</g>
<!-- Node1&#45;&gt;Node2 -->
<g id="edge1_Node000001_Node000002" class="edge">
<title>Node1&#45;&gt;Node2</title>
<g id="a_edge1_Node000001_Node000002"><a xlink:title=" ">
<path fill="none" stroke="#63b8ff" d="M116.12,-71.59C123.93,-72.54 132.04,-73.53 140.1,-74.51"/>
<polygon fill="#63b8ff" stroke="#63b8ff" points="139.58,-77.97 149.93,-75.71 140.43,-71.02 139.58,-77.97"/>
</a>
</g>
</g>
<!-- Node3 -->
<g id="Node000003" class="node">
<title>Node3</title>
<g id="a_Node000003"><a xlink:href="../../db/d2b/namespacedyld_a411fc4ccc8bc79a2e384ba95ff74fd38.html#a411fc4ccc8bc79a2e384ba95ff74fd38" target="_top" xlink:title=" ">
<polygon fill="white" stroke="#666666" points="383.25,-74.25 316.25,-74.25 316.25,-55 383.25,-55 383.25,-74.25"/>
<text text-anchor="middle" x="349.75" y="-60.75" font-family="Helvetica,sans-Serif" font-size="10.00">dyld::throwf</text>
</a>
</g>
</g>
<!-- Node1&#45;&gt;Node3 -->
<g id="edge7_Node000001_Node000003" class="edge">
<title>Node1&#45;&gt;Node3</title>
<g id="a_edge7_Node000001_Node000003"><a xlink:title=" ">
<path fill="none" stroke="#63b8ff" d="M116.14,-64.62C171.44,-64.62 254.01,-64.62 304.45,-64.62"/>
<polygon fill="#63b8ff" stroke="#63b8ff" points="304.42,-68.13 314.42,-64.63 304.42,-61.13 304.42,-68.13"/>
</a>
</g>
</g>
<!-- Node2&#45;&gt;Node3 -->
<g id="edge2_Node000002_Node000003" class="edge">
<title>Node2&#45;&gt;Node3</title>
<g id="a_edge2_Node000002_Node000003"><a xlink:title=" ">
<path fill="none" stroke="#63b8ff" d="M280.56,-74.46C288.69,-73.29 296.86,-72.11 304.59,-70.99"/>
<polygon fill="#63b8ff" stroke="#63b8ff" points="305.01,-74.47 314.41,-69.58 304.01,-67.54 305.01,-74.47"/>
</a>
</g>
</g>
<!-- Node4 -->
<g id="Node000004" class="node">
<title>Node4</title>
<g id="a_Node000004"><a xlink:href="../../dd/def/dyld_8h_aa7949c4d4b5511591b7d2745b72ab2a8.html#aa7949c4d4b5511591b7d2745b72ab2a8" target="_top" xlink:title=" ">
<polygon fill="white" stroke="#666666" points="503.12,-130.25 422.62,-130.25 422.62,-111 503.12,-111 503.12,-130.25"/>
<text text-anchor="middle" x="462.88" y="-116.75" font-family="Helvetica,sans-Serif" font-size="10.00">_simple_salloc</text>
</a>
</g>
</g>
<!-- Node3&#45;&gt;Node4 -->
<g id="edge3_Node000003_Node000004" class="edge">
<title>Node3&#45;&gt;Node4</title>
<g id="a_edge3_Node000003_Node000004"><a xlink:title=" ">
<path fill="none" stroke="#63b8ff" d="M367.65,-74.67C381.36,-82.64 401.28,-93.87 419.25,-102.62 421.63,-103.78 424.1,-104.94 426.6,-106.08"/>
<polygon fill="#63b8ff" stroke="#63b8ff" points="424.93,-109.17 435.5,-109.99 427.75,-102.76 424.93,-109.17"/>
</a>
</g>
</g>
<!-- Node5 -->
<g id="Node000005" class="node">
<title>Node5</title>
<g id="a_Node000005"><a xlink:href="../../dd/def/dyld_8h_a51b8d5cb1ebb0f85e1b5e33cb0cb1530.html#a51b8d5cb1ebb0f85e1b5e33cb0cb1530" target="_top" xlink:title=" ">
<polygon fill="white" stroke="#666666" points="501.25,-93.25 424.5,-93.25 424.5,-74 501.25,-74 501.25,-93.25"/>
<text text-anchor="middle" x="462.88" y="-79.75" font-family="Helvetica,sans-Serif" font-size="10.00">_simple_sfree</text>
</a>
</g>
</g>
<!-- Node3&#45;&gt;Node5 -->
<g id="edge4_Node000003_Node000005" class="edge">
<title>Node3&#45;&gt;Node5</title>
<g id="a_edge4_Node000003_Node000005"><a xlink:title=" ">
<path fill="none" stroke="#63b8ff" d="M383.49,-70.22C392.79,-71.81 403.13,-73.58 413.16,-75.3"/>
<polygon fill="#63b8ff" stroke="#63b8ff" points="412.35,-78.71 422.8,-76.94 413.53,-71.81 412.35,-78.71"/>
</a>
</g>
</g>
<!-- Node6 -->
<g id="Node000006" class="node">
<title>Node6</title>
<g id="a_Node000006"><a xlink:href="../../dd/def/dyld_8h_a6360c25e0a2d0d90e0b30cd97e61dcda.html#a6360c25e0a2d0d90e0b30cd97e61dcda" target="_top" xlink:title=" ">
<polygon fill="white" stroke="#666666" points="502.38,-56.25 423.38,-56.25 423.38,-37 502.38,-37 502.38,-56.25"/>
<text text-anchor="middle" x="462.88" y="-42.75" font-family="Helvetica,sans-Serif" font-size="10.00">_simple_string</text>
</a>
</g>
</g>
<!-- Node3&#45;&gt;Node6 -->
<g id="edge5_Node000003_Node000006" class="edge">
<title>Node3&#45;&gt;Node6</title>
<g id="a_edge5_Node000003_Node000006"><a xlink:title=" ">
<path fill="none" stroke="#63b8ff" d="M383.49,-59.32C392.42,-57.88 402.3,-56.28 411.94,-54.71"/>
<polygon fill="#63b8ff" stroke="#63b8ff" points="412.29,-58.2 421.6,-53.15 411.17,-51.29 412.29,-58.2"/>
</a>
</g>
</g>
<!-- Node7 -->
<g id="Node000007" class="node">
<title>Node7</title>
<g id="a_Node000007"><a xlink:href="../../dd/def/dyld_8h_a168167bd23f62558003c3a97922278aa.html#a168167bd23f62558003c3a97922278aa" target="_top" xlink:title=" ">
<polygon fill="white" stroke="#666666" points="506.5,-19.25 419.25,-19.25 419.25,0 506.5,0 506.5,-19.25"/>
<text text-anchor="middle" x="462.88" y="-5.75" font-family="Helvetica,sans-Serif" font-size="10.00">_simple_vsprintf</text>
</a>
</g>
</g>
<!-- Node3&#45;&gt;Node7 -->
<g id="edge6_Node000003_Node000007" class="edge">
<title>Node3&#45;&gt;Node7</title>
<g id="a_edge6_Node000003_Node000007"><a xlink:title=" ">
<path fill="none" stroke="#63b8ff" d="M368.25,-54.57C381.95,-46.85 401.58,-36.1 419.25,-27.62 421.63,-26.48 424.11,-25.33 426.61,-24.2"/>
<polygon fill="#63b8ff" stroke="#63b8ff" points="427.76,-27.52 435.52,-20.31 424.95,-21.11 427.76,-27.52"/>
</a>
</g>
</g>
</g>
</svg>
