<?xml version="1.0" encoding="UTF-8" standalone="no"?>
<!DOCTYPE svg PUBLIC "-//W3C//DTD SVG 1.1//EN"
 "http://www.w3.org/Graphics/SVG/1.1/DTD/svg11.dtd">
<!-- Generated by graphviz version 12.2.1 (20241206.2353)
 -->
<!-- Title: dyld::halt Pages: 1 -->
<svg width="337pt" height="138pt"
 viewBox="0.00 0.00 337.25 138.25" xmlns="http://www.w3.org/2000/svg" xmlns:xlink="http://www.w3.org/1999/xlink">
<g id="graph0" class="graph" transform="scale(1 1) rotate(0) translate(4 134.25)">
<title>dyld::halt</title>
<!-- Node1 -->
<g id="Node000001" class="node">
<title>Node1</title>
<g id="a_Node000001"><a xlink:title=" ">
<polygon fill="#999999" stroke="#666666" points="55.75,-74.25 0,-74.25 0,-55 55.75,-55 55.75,-74.25"/>
<text text-anchor="middle" x="27.88" y="-60.75" font-family="Helvetica,sans-Serif" font-size="10.00">dyld::halt</text>
</a>
</g>
</g>
<!-- Node2 -->
<g id="Node000002" class="node">
<title>Node2</title>
<g id="a_Node000002"><a xlink:href="../../dd/def/dyld_8h_a86b57347a976db6a934f56b77aa0aed7.html#a86b57347a976db6a934f56b77aa0aed7" target="_top" xlink:title=" ">
<polygon fill="white" stroke="#666666" points="190.25,-130.25 107.5,-130.25 107.5,-111 190.25,-111 190.25,-130.25"/>
<text text-anchor="middle" x="148.88" y="-116.75" font-family="Helvetica,sans-Serif" font-size="10.00">dyld_fatal_error</text>
</a>
</g>
</g>
<!-- Node1&#45;&gt;Node2 -->
<g id="edge1_Node000001_Node000002" class="edge">
<title>Node1&#45;&gt;Node2</title>
<g id="a_edge1_Node000001_Node000002"><a xlink:title=" ">
<path fill="none" stroke="#63b8ff" d="M43.33,-74.7C55.74,-83.02 74.34,-94.7 91.75,-102.62 94.86,-104.04 98.12,-105.39 101.43,-106.68"/>
<polygon fill="#63b8ff" stroke="#63b8ff" points="100.05,-109.9 110.65,-110.01 102.43,-103.32 100.05,-109.9"/>
</a>
</g>
</g>
<!-- Node3 -->
<g id="Node000003" class="node">
<title>Node3</title>
<g id="a_Node000003"><a xlink:href="../../db/d2b/namespacedyld_a72cc24ec115706df5218230fd85e620a.html#a72cc24ec115706df5218230fd85e620a" target="_top" xlink:title=" ">
<polygon fill="white" stroke="#666666" points="175.25,-93.25 122.5,-93.25 122.5,-74 175.25,-74 175.25,-93.25"/>
<text text-anchor="middle" x="148.88" y="-79.75" font-family="Helvetica,sans-Serif" font-size="10.00">dyld::log</text>
</a>
</g>
</g>
<!-- Node1&#45;&gt;Node3 -->
<g id="edge2_Node000001_Node000003" class="edge">
<title>Node1&#45;&gt;Node3</title>
<g id="a_edge2_Node000001_Node000003"><a xlink:title=" ">
<path fill="none" stroke="#63b8ff" d="M56.18,-68.98C72.5,-71.59 93.45,-74.94 111.2,-77.77"/>
<polygon fill="#63b8ff" stroke="#63b8ff" points="110.41,-81.19 120.83,-79.31 111.51,-74.27 110.41,-81.19"/>
</a>
</g>
</g>
<!-- Node5 -->
<g id="Node000005" class="node">
<title>Node5</title>
<g id="a_Node000005"><a xlink:href="../../dd/def/dyld_8h_aa1c0531f62f5349124e433c3e5e59801.html#aa1c0531f62f5349124e433c3e5e59801" target="_top" xlink:title=" ">
<polygon fill="white" stroke="#666666" points="201.5,-56.25 96.25,-56.25 96.25,-37 201.5,-37 201.5,-56.25"/>
<text text-anchor="middle" x="148.88" y="-42.75" font-family="Helvetica,sans-Serif" font-size="10.00">setAlImageInfosHalt</text>
</a>
</g>
</g>
<!-- Node1&#45;&gt;Node5 -->
<g id="edge4_Node000001_Node000005" class="edge">
<title>Node1&#45;&gt;Node5</title>
<g id="a_edge4_Node000001_Node000005"><a xlink:title=" ">
<path fill="none" stroke="#63b8ff" d="M56.18,-60.5C64.75,-59.2 74.6,-57.71 84.6,-56.2"/>
<polygon fill="#63b8ff" stroke="#63b8ff" points="85.02,-59.67 94.39,-54.72 83.98,-52.75 85.02,-59.67"/>
</a>
</g>
</g>
<!-- Node6 -->
<g id="Node000006" class="node">
<title>Node6</title>
<g id="a_Node000006"><a xlink:href="../../db/d2b/namespacedyld_ab03b0942657235fbdf6ec129d8659be0.html#ab03b0942657235fbdf6ec129d8659be0" target="_top" xlink:title=" ">
<polygon fill="white" stroke="#666666" points="206,-19.25 91.75,-19.25 91.75,0 206,0 206,-19.25"/>
<text text-anchor="middle" x="148.88" y="-5.75" font-family="Helvetica,sans-Serif" font-size="10.00">dyld::setErrorMessage</text>
</a>
</g>
</g>
<!-- Node1&#45;&gt;Node6 -->
<g id="edge5_Node000001_Node000006" class="edge">
<title>Node1&#45;&gt;Node6</title>
<g id="a_edge5_Node000001_Node000006"><a xlink:title=" ">
<path fill="none" stroke="#63b8ff" d="M43.87,-54.52C56.3,-46.46 74.64,-35.29 91.75,-27.62 94.92,-26.21 98.23,-24.85 101.59,-23.56"/>
<polygon fill="#63b8ff" stroke="#63b8ff" points="102.74,-26.87 110.97,-20.2 100.38,-20.28 102.74,-26.87"/>
</a>
</g>
</g>
<!-- Node4 -->
<g id="Node000004" class="node">
<title>Node4</title>
<g id="a_Node000004"><a xlink:href="../../dd/def/dyld_8h_a91ddfa69e5977270b9bd3fc1042ad53a.html#a91ddfa69e5977270b9bd3fc1042ad53a" target="_top" xlink:title=" ">
<polygon fill="white" stroke="#666666" points="329.25,-93.25 242,-93.25 242,-74 329.25,-74 329.25,-93.25"/>
<text text-anchor="middle" x="285.62" y="-79.75" font-family="Helvetica,sans-Serif" font-size="10.00">_simple_vdprintf</text>
</a>
</g>
</g>
<!-- Node3&#45;&gt;Node4 -->
<g id="edge3_Node000003_Node000004" class="edge">
<title>Node3&#45;&gt;Node4</title>
<g id="a_edge3_Node000003_Node000004"><a xlink:title=" ">
<path fill="none" stroke="#63b8ff" d="M175.54,-83.62C190.97,-83.62 211.21,-83.62 230.06,-83.62"/>
<polygon fill="#63b8ff" stroke="#63b8ff" points="230.05,-87.13 240.05,-83.63 230.05,-80.13 230.05,-87.13"/>
</a>
</g>
</g>
</g>
</svg>
