<?xml version="1.0" encoding="UTF-8" standalone="no"?>
<!DOCTYPE svg PUBLIC "-//W3C//DTD SVG 1.1//EN"
 "http://www.w3.org/Graphics/SVG/1.1/DTD/svg11.dtd">
<!-- Generated by graphviz version 12.2.1 (20241206.2353)
 -->
<!-- Title: dyld::findMappedRange Pages: 1 -->
<svg width="472pt" height="162pt"
 viewBox="0.00 0.00 471.50 161.88" xmlns="http://www.w3.org/2000/svg" xmlns:xlink="http://www.w3.org/1999/xlink">
<g id="graph0" class="graph" transform="scale(1 1) rotate(0) translate(4 157.88)">
<title>dyld::findMappedRange</title>
<!-- Node1 -->
<g id="Node000001" class="node">
<title>Node1</title>
<g id="a_Node000001"><a xlink:title=" ">
<polygon fill="#999999" stroke="#666666" points="463.5,-116.88 344.75,-116.88 344.75,-97.62 463.5,-97.62 463.5,-116.88"/>
<text text-anchor="middle" x="404.12" y="-103.38" font-family="Helvetica,sans-Serif" font-size="10.00">dyld::findMappedRange</text>
</a>
</g>
</g>
<!-- Node2 -->
<g id="Node000002" class="node">
<title>Node2</title>
<g id="a_Node000002"><a xlink:href="../../db/d2b/namespacedyld_ae2dbd92c157017dd38a2c3d9938734d6.html#ae2dbd92c157017dd38a2c3d9938734d6" target="_top" xlink:title=" ">
<polygon fill="white" stroke="#666666" points="298.62,-153.88 168.62,-153.88 168.62,-134.62 298.62,-134.62 298.62,-153.88"/>
<text text-anchor="middle" x="233.62" y="-140.38" font-family="Helvetica,sans-Serif" font-size="10.00">dyld::fastBindLazySymbol</text>
</a>
</g>
</g>
<!-- Node1&#45;&gt;Node2 -->
<g id="edge1_Node000001_Node000002" class="edge">
<title>Node1&#45;&gt;Node2</title>
<g id="a_edge1_Node000001_Node000002"><a xlink:title=" ">
<path fill="none" stroke="#63b8ff" d="M345.89,-119.82C324.61,-124.49 300.76,-129.73 280.61,-134.15"/>
<polygon fill="#63b8ff" stroke="#63b8ff" points="346.59,-123.25 355.6,-117.69 345.09,-116.41 346.59,-123.25"/>
</a>
</g>
</g>
<!-- Node3 -->
<g id="Node000003" class="node">
<title>Node3</title>
<g id="a_Node000003"><a xlink:href="../../db/d2b/namespacedyld_afb4b5153555e15efd331cf5db73a9cc3.html#afb4b5153555e15efd331cf5db73a9cc3" target="_top" xlink:title=" ">
<polygon fill="white" stroke="#666666" points="308.75,-116.88 158.5,-116.88 158.5,-97.62 308.75,-97.62 308.75,-116.88"/>
<text text-anchor="middle" x="233.62" y="-103.38" font-family="Helvetica,sans-Serif" font-size="10.00">dyld::findImageByMachHeader</text>
</a>
</g>
</g>
<!-- Node1&#45;&gt;Node3 -->
<g id="edge2_Node000001_Node000003" class="edge">
<title>Node1&#45;&gt;Node3</title>
<g id="a_edge2_Node000001_Node000003"><a xlink:title=" ">
<path fill="none" stroke="#63b8ff" d="M333.43,-107.25C325.37,-107.25 317.13,-107.25 309.01,-107.25"/>
<polygon fill="#63b8ff" stroke="#63b8ff" points="333.15,-110.75 343.15,-107.25 333.15,-103.75 333.15,-110.75"/>
</a>
</g>
</g>
<!-- Node5 -->
<g id="Node000005" class="node">
<title>Node5</title>
<g id="a_Node000005"><a xlink:href="../../db/d2b/namespacedyld_aba23eb4274d879c572e4393d56c4fa5a.html#aba23eb4274d879c572e4393d56c4fa5a" target="_top" xlink:title=" ">
<polygon fill="white" stroke="#666666" points="298.25,-79.5 169,-79.5 169,-49 298.25,-49 298.25,-79.5"/>
<text text-anchor="start" x="177" y="-66" font-family="Helvetica,sans-Serif" font-size="10.00">dyld::findImageContaining</text>
<text text-anchor="middle" x="233.62" y="-54.75" font-family="Helvetica,sans-Serif" font-size="10.00">Address</text>
</a>
</g>
</g>
<!-- Node1&#45;&gt;Node5 -->
<g id="edge4_Node000001_Node000005" class="edge">
<title>Node1&#45;&gt;Node5</title>
<g id="a_edge4_Node000001_Node000005"><a xlink:title=" ">
<path fill="none" stroke="#63b8ff" d="M352.65,-94.37C334.94,-89.85 314.83,-84.72 296.31,-79.99"/>
<polygon fill="#63b8ff" stroke="#63b8ff" points="351.6,-97.71 362.15,-96.79 353.33,-90.93 351.6,-97.71"/>
</a>
</g>
</g>
<!-- Node4 -->
<g id="Node000004" class="node">
<title>Node4</title>
<g id="a_Node000004"><a xlink:href="../../db/d2b/namespacedyld_af2cc8979f321d2738983b6466c820875.html#af2cc8979f321d2738983b6466c820875" target="_top" xlink:title=" ">
<polygon fill="white" stroke="#666666" points="117.25,-116.88 5.25,-116.88 5.25,-97.62 117.25,-97.62 117.25,-116.88"/>
<text text-anchor="middle" x="61.25" y="-103.38" font-family="Helvetica,sans-Serif" font-size="10.00">dyld::bindLazySymbol</text>
</a>
</g>
</g>
<!-- Node3&#45;&gt;Node4 -->
<g id="edge3_Node000003_Node000004" class="edge">
<title>Node3&#45;&gt;Node4</title>
<g id="a_edge3_Node000003_Node000004"><a xlink:title=" ">
<path fill="none" stroke="#63b8ff" d="M147.08,-107.25C137.04,-107.25 127,-107.25 117.53,-107.25"/>
<polygon fill="#63b8ff" stroke="#63b8ff" points="146.88,-110.75 156.88,-107.25 146.88,-103.75 146.88,-110.75"/>
</a>
</g>
</g>
<!-- Node5&#45;&gt;Node4 -->
<g id="edge5_Node000005_Node000004" class="edge">
<title>Node5&#45;&gt;Node4</title>
<g id="a_edge5_Node000005_Node000004"><a xlink:title=" ">
<path fill="none" stroke="#63b8ff" d="M159.51,-82.7C139.84,-87.67 119.29,-92.85 102.18,-97.17"/>
<polygon fill="#63b8ff" stroke="#63b8ff" points="160.33,-86.11 169.17,-80.27 158.61,-79.32 160.33,-86.11"/>
</a>
</g>
</g>
<!-- Node6 -->
<g id="Node000006" class="node">
<title>Node6</title>
<g id="a_Node000006"><a xlink:href="../../db/d2b/namespacedyld_aa80d3719605ad0025845f51e0b4dc38a.html#aa80d3719605ad0025845f51e0b4dc38a" target="_top" xlink:title=" ">
<polygon fill="white" stroke="#666666" points="122.5,-79.5 0,-79.5 0,-49 122.5,-49 122.5,-79.5"/>
<text text-anchor="start" x="8" y="-66" font-family="Helvetica,sans-Serif" font-size="10.00">dyld::registerImageState</text>
<text text-anchor="middle" x="61.25" y="-54.75" font-family="Helvetica,sans-Serif" font-size="10.00">BatchChangeHandler</text>
</a>
</g>
</g>
<!-- Node5&#45;&gt;Node6 -->
<g id="edge6_Node000005_Node000006" class="edge">
<title>Node5&#45;&gt;Node6</title>
<g id="a_edge6_Node000005_Node000006"><a xlink:title=" ">
<path fill="none" stroke="#63b8ff" d="M157.29,-64.25C145.78,-64.25 134.02,-64.25 122.87,-64.25"/>
<polygon fill="#63b8ff" stroke="#63b8ff" points="157.19,-67.75 167.19,-64.25 157.19,-60.75 157.19,-67.75"/>
</a>
</g>
</g>
<!-- Node7 -->
<g id="Node000007" class="node">
<title>Node7</title>
<g id="a_Node000007"><a xlink:href="../../db/d2b/namespacedyld_ac45e3acc455d5f6521742c0a3dab65aa.html#ac45e3acc455d5f6521742c0a3dab65aa" target="_top" xlink:title=" ">
<polygon fill="white" stroke="#666666" points="122.5,-30.5 0,-30.5 0,0 122.5,0 122.5,-30.5"/>
<text text-anchor="start" x="8" y="-17" font-family="Helvetica,sans-Serif" font-size="10.00">dyld::registerImageState</text>
<text text-anchor="middle" x="61.25" y="-5.75" font-family="Helvetica,sans-Serif" font-size="10.00">SingleChangeHandler</text>
</a>
</g>
</g>
<!-- Node5&#45;&gt;Node7 -->
<g id="edge7_Node000005_Node000007" class="edge">
<title>Node5&#45;&gt;Node7</title>
<g id="a_edge7_Node000005_Node000007"><a xlink:title=" ">
<path fill="none" stroke="#63b8ff" d="M167.48,-45.52C150.82,-40.72 133.07,-35.62 116.99,-30.99"/>
<polygon fill="#63b8ff" stroke="#63b8ff" points="166.22,-48.79 176.79,-48.19 168.15,-42.07 166.22,-48.79"/>
</a>
</g>
</g>
</g>
</svg>
