<?xml version="1.0" encoding="UTF-8" standalone="no"?>
<!DOCTYPE svg PUBLIC "-//W3C//DTD SVG 1.1//EN"
 "http://www.w3.org/Graphics/SVG/1.1/DTD/svg11.dtd">
<!-- Generated by graphviz version 12.2.1 (20241206.2353)
 -->
<!-- Title: dyld::fastBindLazySymbol Pages: 1 -->
<svg width="566pt" height="176pt"
 viewBox="0.00 0.00 566.25 176.25" xmlns="http://www.w3.org/2000/svg" xmlns:xlink="http://www.w3.org/1999/xlink">
<g id="graph0" class="graph" transform="scale(1 1) rotate(0) translate(4 172.25)">
<title>dyld::fastBindLazySymbol</title>
<!-- Node1 -->
<g id="Node000001" class="node">
<title>Node1</title>
<g id="a_Node000001"><a xlink:title=" ">
<polygon fill="#999999" stroke="#666666" points="130,-130.25 0,-130.25 0,-111 130,-111 130,-130.25"/>
<text text-anchor="middle" x="65" y="-116.75" font-family="Helvetica,sans-Serif" font-size="10.00">dyld::fastBindLazySymbol</text>
</a>
</g>
</g>
<!-- Node2 -->
<g id="Node000002" class="node">
<title>Node2</title>
<g id="a_Node000002"><a xlink:href="../../db/d2b/namespacedyld_aedae0bb12d87f54d25ac06af5d8b7ded.html#aedae0bb12d87f54d25ac06af5d8b7ded" target="_top" xlink:title=" ">
<polygon fill="white" stroke="#666666" points="284.75,-168.25 166,-168.25 166,-149 284.75,-149 284.75,-168.25"/>
<text text-anchor="middle" x="225.38" y="-154.75" font-family="Helvetica,sans-Serif" font-size="10.00">dyld::findMappedRange</text>
</a>
</g>
</g>
<!-- Node1&#45;&gt;Node2 -->
<g id="edge1_Node000001_Node000002" class="edge">
<title>Node1&#45;&gt;Node2</title>
<g id="a_edge1_Node000001_Node000002"><a xlink:title=" ">
<path fill="none" stroke="#63b8ff" d="M108.03,-130.71C127.43,-135.37 150.69,-140.95 171.3,-145.89"/>
<polygon fill="#63b8ff" stroke="#63b8ff" points="170.42,-149.28 180.96,-148.21 172.05,-142.47 170.42,-149.28"/>
</a>
</g>
</g>
<!-- Node3 -->
<g id="Node000003" class="node">
<title>Node3</title>
<g id="a_Node000003"><a xlink:href="../../db/d2b/namespacedyld_a9843a873de01c9993039f1e3bfc563b7.html#a9843a873de01c9993039f1e3bfc563b7" target="_top" xlink:title=" ">
<polygon fill="white" stroke="#666666" points="253.25,-92.25 197.5,-92.25 197.5,-73 253.25,-73 253.25,-92.25"/>
<text text-anchor="middle" x="225.38" y="-78.75" font-family="Helvetica,sans-Serif" font-size="10.00">dyld::halt</text>
</a>
</g>
</g>
<!-- Node1&#45;&gt;Node3 -->
<g id="edge2_Node000001_Node000003" class="edge">
<title>Node1&#45;&gt;Node3</title>
<g id="a_edge2_Node000001_Node000003"><a xlink:title=" ">
<path fill="none" stroke="#63b8ff" d="M108.03,-110.54C132.28,-104.72 162.55,-97.46 186.14,-91.8"/>
<polygon fill="#63b8ff" stroke="#63b8ff" points="186.74,-95.25 195.65,-89.52 185.11,-88.45 186.74,-95.25"/>
</a>
</g>
</g>
<!-- Node5 -->
<g id="Node000005" class="node">
<title>Node5</title>
<g id="a_Node000005"><a xlink:href="../../db/d2b/namespacedyld_a72cc24ec115706df5218230fd85e620a.html#a72cc24ec115706df5218230fd85e620a" target="_top" xlink:title=" ">
<polygon fill="white" stroke="#666666" points="404.25,-130.25 351.5,-130.25 351.5,-111 404.25,-111 404.25,-130.25"/>
<text text-anchor="middle" x="377.88" y="-116.75" font-family="Helvetica,sans-Serif" font-size="10.00">dyld::log</text>
</a>
</g>
</g>
<!-- Node1&#45;&gt;Node5 -->
<g id="edge8_Node000001_Node000005" class="edge">
<title>Node1&#45;&gt;Node5</title>
<g id="a_edge8_Node000001_Node000005"><a xlink:title=" ">
<path fill="none" stroke="#63b8ff" d="M130.41,-120.62C193.77,-120.62 288.28,-120.62 339.92,-120.62"/>
<polygon fill="#63b8ff" stroke="#63b8ff" points="339.66,-124.13 349.66,-120.63 339.66,-117.13 339.66,-124.13"/>
</a>
</g>
</g>
<!-- Node4 -->
<g id="Node000004" class="node">
<title>Node4</title>
<g id="a_Node000004"><a xlink:href="../../dd/def/dyld_8h_a86b57347a976db6a934f56b77aa0aed7.html#a86b57347a976db6a934f56b77aa0aed7" target="_top" xlink:title=" ">
<polygon fill="white" stroke="#666666" points="419.25,-93.25 336.5,-93.25 336.5,-74 419.25,-74 419.25,-93.25"/>
<text text-anchor="middle" x="377.88" y="-79.75" font-family="Helvetica,sans-Serif" font-size="10.00">dyld_fatal_error</text>
</a>
</g>
</g>
<!-- Node3&#45;&gt;Node4 -->
<g id="edge3_Node000003_Node000004" class="edge">
<title>Node3&#45;&gt;Node4</title>
<g id="a_edge3_Node000003_Node000004"><a xlink:title=" ">
<path fill="none" stroke="#63b8ff" d="M253.63,-82.81C273.43,-82.94 300.84,-83.12 324.78,-83.28"/>
<polygon fill="#63b8ff" stroke="#63b8ff" points="324.67,-86.78 334.7,-83.34 324.72,-79.78 324.67,-86.78"/>
</a>
</g>
</g>
<!-- Node3&#45;&gt;Node5 -->
<g id="edge4_Node000003_Node000005" class="edge">
<title>Node3&#45;&gt;Node5</title>
<g id="a_edge4_Node000003_Node000005"><a xlink:title=" ">
<path fill="none" stroke="#63b8ff" d="M253.63,-89.51C277.87,-95.63 313.5,-104.62 340.23,-111.37"/>
<polygon fill="#63b8ff" stroke="#63b8ff" points="339.06,-114.69 349.61,-113.74 340.77,-107.9 339.06,-114.69"/>
</a>
</g>
</g>
<!-- Node7 -->
<g id="Node000007" class="node">
<title>Node7</title>
<g id="a_Node000007"><a xlink:href="../../dd/def/dyld_8h_aa1c0531f62f5349124e433c3e5e59801.html#aa1c0531f62f5349124e433c3e5e59801" target="_top" xlink:title=" ">
<polygon fill="white" stroke="#666666" points="430.5,-56.25 325.25,-56.25 325.25,-37 430.5,-37 430.5,-56.25"/>
<text text-anchor="middle" x="377.88" y="-42.75" font-family="Helvetica,sans-Serif" font-size="10.00">setAlImageInfosHalt</text>
</a>
</g>
</g>
<!-- Node3&#45;&gt;Node7 -->
<g id="edge6_Node000003_Node000007" class="edge">
<title>Node3&#45;&gt;Node7</title>
<g id="a_edge6_Node000003_Node000007"><a xlink:title=" ">
<path fill="none" stroke="#63b8ff" d="M253.63,-76.11C273.15,-71.44 300.08,-65 323.78,-59.33"/>
<polygon fill="#63b8ff" stroke="#63b8ff" points="324.37,-62.78 333.29,-57.05 322.75,-55.97 324.37,-62.78"/>
</a>
</g>
</g>
<!-- Node8 -->
<g id="Node000008" class="node">
<title>Node8</title>
<g id="a_Node000008"><a xlink:href="../../db/d2b/namespacedyld_ab03b0942657235fbdf6ec129d8659be0.html#ab03b0942657235fbdf6ec129d8659be0" target="_top" xlink:title=" ">
<polygon fill="white" stroke="#666666" points="435,-19.25 320.75,-19.25 320.75,0 435,0 435,-19.25"/>
<text text-anchor="middle" x="377.88" y="-5.75" font-family="Helvetica,sans-Serif" font-size="10.00">dyld::setErrorMessage</text>
</a>
</g>
</g>
<!-- Node3&#45;&gt;Node8 -->
<g id="edge7_Node000003_Node000008" class="edge">
<title>Node3&#45;&gt;Node8</title>
<g id="a_edge7_Node000003_Node000008"><a xlink:title=" ">
<path fill="none" stroke="#63b8ff" d="M241.2,-72.62C259.35,-60.69 291.3,-40.74 320.75,-27.62 323.92,-26.21 327.23,-24.86 330.6,-23.57"/>
<polygon fill="#63b8ff" stroke="#63b8ff" points="331.74,-26.88 339.98,-20.22 329.39,-20.29 331.74,-26.88"/>
</a>
</g>
</g>
<!-- Node6 -->
<g id="Node000006" class="node">
<title>Node6</title>
<g id="a_Node000006"><a xlink:href="../../dd/def/dyld_8h_a91ddfa69e5977270b9bd3fc1042ad53a.html#a91ddfa69e5977270b9bd3fc1042ad53a" target="_top" xlink:title=" ">
<polygon fill="white" stroke="#666666" points="558.25,-130.25 471,-130.25 471,-111 558.25,-111 558.25,-130.25"/>
<text text-anchor="middle" x="514.62" y="-116.75" font-family="Helvetica,sans-Serif" font-size="10.00">_simple_vdprintf</text>
</a>
</g>
</g>
<!-- Node5&#45;&gt;Node6 -->
<g id="edge5_Node000005_Node000006" class="edge">
<title>Node5&#45;&gt;Node6</title>
<g id="a_edge5_Node000005_Node000006"><a xlink:title=" ">
<path fill="none" stroke="#63b8ff" d="M404.54,-120.62C419.97,-120.62 440.21,-120.62 459.06,-120.62"/>
<polygon fill="#63b8ff" stroke="#63b8ff" points="459.05,-124.13 469.05,-120.63 459.05,-117.13 459.05,-124.13"/>
</a>
</g>
</g>
</g>
</svg>
