<?xml version="1.0" encoding="UTF-8" standalone="no"?>
<!DOCTYPE svg PUBLIC "-//W3C//DTD SVG 1.1//EN"
 "http://www.w3.org/Graphics/SVG/1.1/DTD/svg11.dtd">
<!-- Generated by graphviz version 12.2.1 (20241206.2353)
 -->
<!-- Title: dyld::processDyldEnvironmentVariable Pages: 1 -->
<svg width="378pt" height="64pt"
 viewBox="0.00 0.00 377.75 64.25" xmlns="http://www.w3.org/2000/svg" xmlns:xlink="http://www.w3.org/1999/xlink">
<g id="graph0" class="graph" transform="scale(1 1) rotate(0) translate(4 60.25)">
<title>dyld::processDyldEnvironmentVariable</title>
<!-- Node1 -->
<g id="Node000001" class="node">
<title>Node1</title>
<g id="a_Node000001"><a xlink:title=" ">
<polygon fill="#999999" stroke="#666666" points="149.5,-42.88 0,-42.88 0,-12.37 149.5,-12.37 149.5,-42.88"/>
<text text-anchor="start" x="8" y="-29.38" font-family="Helvetica,sans-Serif" font-size="10.00">dyld::processDyldEnvironment</text>
<text text-anchor="middle" x="74.75" y="-18.12" font-family="Helvetica,sans-Serif" font-size="10.00">Variable</text>
</a>
</g>
</g>
<!-- Node2 -->
<g id="Node000002" class="node">
<title>Node2</title>
<g id="a_Node000002"><a xlink:href="../../db/d2b/namespacedyld_a493684f6608096123f2849a0b47ce2b9.html#a493684f6608096123f2849a0b47ce2b9" target="_top" xlink:title=" ">
<polygon fill="white" stroke="#666666" points="246.5,-37.25 185.5,-37.25 185.5,-18 246.5,-18 246.5,-37.25"/>
<text text-anchor="middle" x="216" y="-23.75" font-family="Helvetica,sans-Serif" font-size="10.00">dyld::warn</text>
</a>
</g>
</g>
<!-- Node1&#45;&gt;Node2 -->
<g id="edge1_Node000001_Node000002" class="edge">
<title>Node1&#45;&gt;Node2</title>
<g id="a_edge1_Node000001_Node000002"><a xlink:title=" ">
<path fill="none" stroke="#63b8ff" d="M149.86,-27.62C158.04,-27.62 166.14,-27.62 173.71,-27.62"/>
<polygon fill="#63b8ff" stroke="#63b8ff" points="173.57,-31.13 183.57,-27.63 173.57,-24.13 173.57,-31.13"/>
</a>
</g>
</g>
<!-- Node3 -->
<g id="Node000003" class="node">
<title>Node3</title>
<g id="a_Node000003"><a xlink:href="../../dd/def/dyld_8h_a14784b2e835996ee9a62e6ae70fb170a.html#a14784b2e835996ee9a62e6ae70fb170a" target="_top" xlink:title=" ">
<polygon fill="white" stroke="#666666" points="367.12,-56.25 285.12,-56.25 285.12,-37 367.12,-37 367.12,-56.25"/>
<text text-anchor="middle" x="326.12" y="-42.75" font-family="Helvetica,sans-Serif" font-size="10.00">_simple_dprintf</text>
</a>
</g>
</g>
<!-- Node2&#45;&gt;Node3 -->
<g id="edge2_Node000002_Node000003" class="edge">
<title>Node2&#45;&gt;Node3</title>
<g id="a_edge2_Node000002_Node000003"><a xlink:title=" ">
<path fill="none" stroke="#63b8ff" d="M246.83,-32.87C255.19,-34.34 264.51,-35.97 273.74,-37.6"/>
<polygon fill="#63b8ff" stroke="#63b8ff" points="272.92,-41 283.37,-39.29 274.13,-34.11 272.92,-41"/>
</a>
</g>
</g>
<!-- Node4 -->
<g id="Node000004" class="node">
<title>Node4</title>
<g id="a_Node000004"><a xlink:href="../../dd/def/dyld_8h_a91ddfa69e5977270b9bd3fc1042ad53a.html#a91ddfa69e5977270b9bd3fc1042ad53a" target="_top" xlink:title=" ">
<polygon fill="white" stroke="#666666" points="369.75,-19.25 282.5,-19.25 282.5,0 369.75,0 369.75,-19.25"/>
<text text-anchor="middle" x="326.12" y="-5.75" font-family="Helvetica,sans-Serif" font-size="10.00">_simple_vdprintf</text>
</a>
</g>
</g>
<!-- Node2&#45;&gt;Node4 -->
<g id="edge3_Node000002_Node000004" class="edge">
<title>Node2&#45;&gt;Node4</title>
<g id="a_edge3_Node000002_Node000004"><a xlink:title=" ">
<path fill="none" stroke="#63b8ff" d="M246.83,-22.66C254.31,-21.41 262.57,-20.04 270.83,-18.66"/>
<polygon fill="#63b8ff" stroke="#63b8ff" points="271.25,-22.14 280.54,-17.05 270.1,-15.24 271.25,-22.14"/>
</a>
</g>
</g>
</g>
</svg>
