<?xml version="1.0" encoding="UTF-8" standalone="no"?>
<!DOCTYPE svg PUBLIC "-//W3C//DTD SVG 1.1//EN"
 "http://www.w3.org/Graphics/SVG/1.1/DTD/svg11.dtd">
<!-- Generated by graphviz version 12.2.1 (20241206.2353)
 -->
<!-- Title: Assemble_b Pages: 1 -->
<svg width="433pt" height="39pt"
 viewBox="0.00 0.00 433.25 38.50" xmlns="http://www.w3.org/2000/svg" xmlns:xlink="http://www.w3.org/1999/xlink">
<g id="graph0" class="graph" transform="scale(1 1) rotate(0) translate(4 34.5)">
<title>Assemble_b</title>
<!-- Node1 -->
<g id="Node000001" class="node">
<title>Node1</title>
<g id="a_Node000001"><a xlink:title=" ">
<polygon fill="#999999" stroke="#666666" points="425.25,-24.88 355.25,-24.88 355.25,-5.63 425.25,-5.63 425.25,-24.88"/>
<text text-anchor="middle" x="390.25" y="-11.38" font-family="Helvetica,sans-Serif" font-size="10.00">Assemble_b</text>
</a>
</g>
</g>
<!-- Node2 -->
<g id="Node000002" class="node">
<title>Node2</title>
<g id="a_Node000002"><a xlink:href="../../d5/d81/_matrix___assembly___c_u_d_a___integration___example_8cpp_a3a3d77470391a4e87bd8c9864348d89f.html#a3a3d77470391a4e87bd8c9864348d89f" target="_top" xlink:title=" ">
<polygon fill="white" stroke="#666666" points="319.25,-24.88 164.5,-24.88 164.5,-5.63 319.25,-5.63 319.25,-24.88"/>
<text text-anchor="middle" x="241.88" y="-11.38" font-family="Helvetica,sans-Serif" font-size="10.00">validate_cuda_cpu_consistency</text>
</a>
</g>
</g>
<!-- Node1&#45;&gt;Node2 -->
<g id="edge1_Node000001_Node000002" class="edge">
<title>Node1&#45;&gt;Node2</title>
<g id="a_edge1_Node000001_Node000002"><a xlink:title=" ">
<path fill="none" stroke="#63b8ff" d="M343.64,-15.25C335.92,-15.25 327.72,-15.25 319.46,-15.25"/>
<polygon fill="#63b8ff" stroke="#63b8ff" points="343.42,-18.75 353.42,-15.25 343.42,-11.75 343.42,-18.75"/>
</a>
</g>
</g>
<!-- Node3 -->
<g id="Node000003" class="node">
<title>Node3</title>
<g id="a_Node000003"><a xlink:href="../../d5/d81/_matrix___assembly___c_u_d_a___integration___example_8cpp_a040fa30a7d9a31fc77785e00a27f6fa6.html#a040fa30a7d9a31fc77785e00a27f6fa6" target="_top" xlink:title=" ">
<polygon fill="white" stroke="#666666" points="128.5,-30.5 0,-30.5 0,0 128.5,0 128.5,-30.5"/>
<text text-anchor="start" x="8" y="-17" font-family="Helvetica,sans-Serif" font-size="10.00">demonstrate_cuda_matrix</text>
<text text-anchor="middle" x="64.25" y="-5.75" font-family="Helvetica,sans-Serif" font-size="10.00">_assembly</text>
</a>
</g>
</g>
<!-- Node2&#45;&gt;Node3 -->
<g id="edge2_Node000002_Node000003" class="edge">
<title>Node2&#45;&gt;Node3</title>
<g id="a_edge2_Node000002_Node000003"><a xlink:title=" ">
<path fill="none" stroke="#63b8ff" d="M152.78,-15.25C144.76,-15.25 136.74,-15.25 128.99,-15.25"/>
<polygon fill="#63b8ff" stroke="#63b8ff" points="152.59,-18.75 162.59,-15.25 152.59,-11.75 152.59,-18.75"/>
</a>
</g>
</g>
</g>
</svg>
