<?xml version="1.0" encoding="UTF-8" standalone="no"?>
<!DOCTYPE svg PUBLIC "-//W3C//DTD SVG 1.1//EN"
 "http://www.w3.org/Graphics/SVG/1.1/DTD/svg11.dtd">
<!-- Generated by graphviz version 12.2.1 (20241206.2353)
 -->
<!-- Title: main Pages: 1 -->
<svg width="265pt" height="138pt"
 viewBox="0.00 0.00 265.25 138.25" xmlns="http://www.w3.org/2000/svg" xmlns:xlink="http://www.w3.org/1999/xlink">
<g id="graph0" class="graph" transform="scale(1 1) rotate(0) translate(4 134.25)">
<title>main</title>
<!-- Node1 -->
<g id="Node000001" class="node">
<title>Node1</title>
<g id="a_Node000001"><a xlink:title=" ">
<polygon fill="#999999" stroke="#666666" points="37,-55.25 0,-55.25 0,-36 37,-36 37,-55.25"/>
<text text-anchor="middle" x="18.5" y="-41.75" font-family="Helvetica,sans-Serif" font-size="10.00">main</text>
</a>
</g>
</g>
<!-- Node2 -->
<g id="Node000002" class="node">
<title>Node2</title>
<g id="a_Node000002"><a xlink:href="../../dd/db4/class_line_a11ee9e238e8e0d712b52ae99077355ee.html#a11ee9e238e8e0d712b52ae99077355ee" target="_top" xlink:title=" ">
<polygon fill="white" stroke="#666666" points="150.5,-74.25 73,-74.25 73,-55 150.5,-55 150.5,-74.25"/>
<text text-anchor="middle" x="111.75" y="-60.75" font-family="Helvetica,sans-Serif" font-size="10.00">Line::generate</text>
</a>
</g>
</g>
<!-- Node1&#45;&gt;Node2 -->
<g id="edge1_Node000001_Node000002" class="edge">
<title>Node1&#45;&gt;Node2</title>
<g id="a_edge1_Node000001_Node000002"><a xlink:title=" ">
<path fill="none" stroke="#63b8ff" d="M37.09,-49.29C44.23,-50.77 52.86,-52.57 61.67,-54.4"/>
<polygon fill="#63b8ff" stroke="#63b8ff" points="60.83,-57.8 71.33,-56.42 62.25,-50.95 60.83,-57.8"/>
</a>
</g>
</g>
<!-- Node7 -->
<g id="Node000007" class="node">
<title>Node7</title>
<g id="a_Node000007"><a xlink:href="../../dd/db4/class_line_a5f815a42d6d889d86a2446b9c986c3ef.html#a5f815a42d6d889d86a2446b9c986c3ef" target="_top" xlink:title=" ">
<polygon fill="white" stroke="#666666" points="141.88,-37.25 81.62,-37.25 81.62,-18 141.88,-18 141.88,-37.25"/>
<text text-anchor="middle" x="111.75" y="-23.75" font-family="Helvetica,sans-Serif" font-size="10.00">Line::Print</text>
</a>
</g>
</g>
<!-- Node1&#45;&gt;Node7 -->
<g id="edge6_Node000001_Node000007" class="edge">
<title>Node1&#45;&gt;Node7</title>
<g id="a_edge6_Node000001_Node000007"><a xlink:title=" ">
<path fill="none" stroke="#63b8ff" d="M37.09,-42.15C46.59,-40.28 58.74,-37.89 70.41,-35.58"/>
<polygon fill="#63b8ff" stroke="#63b8ff" points="70.74,-39.08 79.87,-33.72 69.39,-32.22 70.74,-39.08"/>
</a>
</g>
</g>
<!-- Node3 -->
<g id="Node000003" class="node">
<title>Node3</title>
<g id="a_Node000003"><a xlink:href="../../d0/d69/class_point_abbb39fe4de098ab24cd45d251656f080.html#abbb39fe4de098ab24cd45d251656f080" target="_top" xlink:title=" ">
<polygon fill="white" stroke="#666666" points="257.25,-130.25 186.5,-130.25 186.5,-111 257.25,-111 257.25,-130.25"/>
<text text-anchor="middle" x="221.88" y="-116.75" font-family="Helvetica,sans-Serif" font-size="10.00">Point::Get_x</text>
</a>
</g>
</g>
<!-- Node2&#45;&gt;Node3 -->
<g id="edge2_Node000002_Node000003" class="edge">
<title>Node2&#45;&gt;Node3</title>
<g id="a_edge2_Node000002_Node000003"><a xlink:title=" ">
<path fill="none" stroke="#63b8ff" d="M132.08,-74.64C148.51,-83.14 172.35,-95.49 191.2,-105.25"/>
<polygon fill="#63b8ff" stroke="#63b8ff" points="189.51,-108.32 200,-109.82 192.73,-102.11 189.51,-108.32"/>
</a>
</g>
</g>
<!-- Node4 -->
<g id="Node000004" class="node">
<title>Node4</title>
<g id="a_Node000004"><a xlink:href="../../d0/d69/class_point_aa0c14d8298c960cc61ebeb5fbe33653b.html#aa0c14d8298c960cc61ebeb5fbe33653b" target="_top" xlink:title=" ">
<polygon fill="white" stroke="#666666" points="257.25,-93.25 186.5,-93.25 186.5,-74 257.25,-74 257.25,-93.25"/>
<text text-anchor="middle" x="221.88" y="-79.75" font-family="Helvetica,sans-Serif" font-size="10.00">Point::Get_y</text>
</a>
</g>
</g>
<!-- Node2&#45;&gt;Node4 -->
<g id="edge3_Node000002_Node000004" class="edge">
<title>Node2&#45;&gt;Node4</title>
<g id="a_edge3_Node000002_Node000004"><a xlink:title=" ">
<path fill="none" stroke="#63b8ff" d="M150.87,-71.32C158.72,-72.7 167.07,-74.17 175.16,-75.59"/>
<polygon fill="#63b8ff" stroke="#63b8ff" points="174.4,-79.01 184.85,-77.3 175.61,-72.12 174.4,-79.01"/>
</a>
</g>
</g>
<!-- Node5 -->
<g id="Node000005" class="node">
<title>Node5</title>
<g id="a_Node000005"><a xlink:href="../../d0/d69/class_point_ac06dbc3b4797e5c498b58c81a70c02a9.html#ac06dbc3b4797e5c498b58c81a70c02a9" target="_top" xlink:title=" ">
<polygon fill="white" stroke="#666666" points="257.25,-56.25 186.5,-56.25 186.5,-37 257.25,-37 257.25,-56.25"/>
<text text-anchor="middle" x="221.88" y="-42.75" font-family="Helvetica,sans-Serif" font-size="10.00">Point::Get_z</text>
</a>
</g>
</g>
<!-- Node2&#45;&gt;Node5 -->
<g id="edge4_Node000002_Node000005" class="edge">
<title>Node2&#45;&gt;Node5</title>
<g id="a_edge4_Node000002_Node000005"><a xlink:title=" ">
<path fill="none" stroke="#63b8ff" d="M150.87,-58.28C158.72,-56.97 167.07,-55.58 175.16,-54.24"/>
<polygon fill="#63b8ff" stroke="#63b8ff" points="175.56,-57.72 184.85,-52.62 174.41,-50.81 175.56,-57.72"/>
</a>
</g>
</g>
<!-- Node6 -->
<g id="Node000006" class="node">
<title>Node6</title>
<g id="a_Node000006"><a xlink:href="../../d0/d69/class_point_a006470547553ab6cfaacfea891970f8a.html#a006470547553ab6cfaacfea891970f8a" target="_top" xlink:title=" ">
<polygon fill="white" stroke="#666666" points="254.25,-19.25 189.5,-19.25 189.5,0 254.25,0 254.25,-19.25"/>
<text text-anchor="middle" x="221.88" y="-5.75" font-family="Helvetica,sans-Serif" font-size="10.00">Point::Print</text>
</a>
</g>
</g>
<!-- Node2&#45;&gt;Node6 -->
<g id="edge5_Node000002_Node000006" class="edge">
<title>Node2&#45;&gt;Node6</title>
<g id="a_edge5_Node000002_Node000006"><a xlink:title=" ">
<path fill="none" stroke="#63b8ff" d="M133.99,-54.68C139.39,-52.1 145.18,-49.3 150.5,-46.62 166.67,-38.51 170.49,-36.04 186.5,-27.62 188.18,-26.74 189.91,-25.83 191.65,-24.92"/>
<polygon fill="#63b8ff" stroke="#63b8ff" points="193.03,-28.15 200.26,-20.41 189.78,-21.95 193.03,-28.15"/>
</a>
</g>
</g>
</g>
</svg>
