<?xml version="1.0" encoding="UTF-8" standalone="no"?>
<!DOCTYPE svg PUBLIC "-//W3C//DTD SVG 1.1//EN"
 "http://www.w3.org/Graphics/SVG/1.1/DTD/svg11.dtd">
<!-- Generated by graphviz version 12.2.1 (20241206.2353)
 -->
<!-- Title: Construct_Face_Optimized Pages: 1 -->
<svg width="1011pt" height="125pt"
 viewBox="0.00 0.00 1010.75 124.88" xmlns="http://www.w3.org/2000/svg" xmlns:xlink="http://www.w3.org/1999/xlink">
<g id="graph0" class="graph" transform="scale(1 1) rotate(0) translate(4 120.88)">
<title>Construct_Face_Optimized</title>
<!-- Node1 -->
<g id="Node000001" class="node">
<title>Node1</title>
<g id="a_Node000001"><a xlink:title=" ">
<polygon fill="#999999" stroke="#666666" points="1002.75,-62.25 867.5,-62.25 867.5,-43 1002.75,-43 1002.75,-62.25"/>
<text text-anchor="middle" x="935.12" y="-48.75" font-family="Helvetica,sans-Serif" font-size="10.00">Construct_Face_Optimized</text>
</a>
</g>
</g>
<!-- Node2 -->
<g id="Node000002" class="node">
<title>Node2</title>
<g id="a_Node000002"><a xlink:href="../../d8/d24/_grid___computations___optimized_8cpp_a092b66b03987591a3eee8d8d659c50f5.html#a092b66b03987591a3eee8d8d659c50f5" target="_top" xlink:title=" ">
<polygon fill="white" stroke="#666666" points="831.5,-62.25 700.75,-62.25 700.75,-43 831.5,-43 831.5,-62.25"/>
<text text-anchor="middle" x="766.12" y="-48.75" font-family="Helvetica,sans-Serif" font-size="10.00">Construct_Cell_Optimized</text>
</a>
</g>
</g>
<!-- Node1&#45;&gt;Node2 -->
<g id="edge1_Node000001_Node000002" class="edge">
<title>Node1&#45;&gt;Node2</title>
<g id="a_edge1_Node000001_Node000002"><a xlink:title=" ">
<path fill="none" stroke="#63b8ff" d="M855.89,-52.62C847.87,-52.62 839.79,-52.62 831.93,-52.62"/>
<polygon fill="#63b8ff" stroke="#63b8ff" points="855.65,-56.13 865.65,-52.63 855.65,-49.13 855.65,-56.13"/>
</a>
</g>
</g>
<!-- Node3 -->
<g id="Node000003" class="node">
<title>Node3</title>
<g id="a_Node000003"><a xlink:href="../../d3/de1/class_grid_performance_benchmark_a7cf9619c8391e4f889ed9d1c52b003cc.html#a7cf9619c8391e4f889ed9d1c52b003cc" target="_top" xlink:title=" ">
<polygon fill="white" stroke="#666666" points="664.75,-116.88 513.75,-116.88 513.75,-86.38 664.75,-86.38 664.75,-116.88"/>
<text text-anchor="start" x="521.75" y="-103.38" font-family="Helvetica,sans-Serif" font-size="10.00">GridPerformanceBenchmark</text>
<text text-anchor="middle" x="589.25" y="-92.12" font-family="Helvetica,sans-Serif" font-size="10.00">::analyze_performance_scaling</text>
</a>
</g>
</g>
<!-- Node2&#45;&gt;Node3 -->
<g id="edge2_Node000002_Node000003" class="edge">
<title>Node2&#45;&gt;Node3</title>
<g id="a_edge2_Node000002_Node000003"><a xlink:title=" ">
<path fill="none" stroke="#63b8ff" d="M718.5,-65.69C696.31,-71.91 669.61,-79.39 646.33,-85.91"/>
<polygon fill="#63b8ff" stroke="#63b8ff" points="719.17,-69.14 727.86,-63.07 717.28,-62.4 719.17,-69.14"/>
</a>
</g>
</g>
<!-- Node6 -->
<g id="Node000006" class="node">
<title>Node6</title>
<g id="a_Node000006"><a xlink:href="../../d3/de1/class_grid_performance_benchmark_a6287a0ff24d43276bcedb01cc2493ab2.html#a6287a0ff24d43276bcedb01cc2493ab2" target="_top" xlink:title=" ">
<polygon fill="white" stroke="#666666" points="663.62,-67.88 514.88,-67.88 514.88,-37.38 663.62,-37.38 663.62,-67.88"/>
<text text-anchor="start" x="522.88" y="-54.38" font-family="Helvetica,sans-Serif" font-size="10.00">GridPerformanceBenchmark</text>
<text text-anchor="middle" x="589.25" y="-43.12" font-family="Helvetica,sans-Serif" font-size="10.00">::benchmark_cell_construction</text>
</a>
</g>
</g>
<!-- Node2&#45;&gt;Node6 -->
<g id="edge5_Node000002_Node000006" class="edge">
<title>Node2&#45;&gt;Node6</title>
<g id="a_edge5_Node000002_Node000006"><a xlink:title=" ">
<path fill="none" stroke="#63b8ff" d="M689.23,-52.62C680.87,-52.62 672.38,-52.62 664.05,-52.62"/>
<polygon fill="#63b8ff" stroke="#63b8ff" points="688.99,-56.13 698.99,-52.63 688.99,-49.13 688.99,-56.13"/>
</a>
</g>
</g>
<!-- Node11 -->
<g id="Node000011" class="node">
<title>Node11</title>
<g id="a_Node000011"><a xlink:href="../../dc/de7/_grid___optimization___integration___guide_8cpp_ad8ac88549c20d09515c033d5fc2e2d10.html#ad8ac88549c20d09515c033d5fc2e2d10" target="_top" xlink:title=" ">
<polygon fill="white" stroke="#666666" points="464.25,-19.25 352.25,-19.25 352.25,0 464.25,0 464.25,-19.25"/>
<text text-anchor="middle" x="408.25" y="-5.75" font-family="Helvetica,sans-Serif" font-size="10.00">Read_Grid_Optimized</text>
</a>
</g>
</g>
<!-- Node2&#45;&gt;Node11 -->
<g id="edge11_Node000002_Node000011" class="edge">
<title>Node2&#45;&gt;Node11</title>
<g id="a_edge11_Node000002_Node000011"><a xlink:title=" ">
<path fill="none" stroke="#63b8ff" d="M718.01,-39.71C701.31,-35.57 682.3,-31.36 664.75,-28.62 596.3,-17.97 516.56,-13.24 464.61,-11.18"/>
<polygon fill="#63b8ff" stroke="#63b8ff" points="717.14,-43.1 727.7,-42.17 718.87,-36.32 717.14,-43.1"/>
</a>
</g>
</g>
<!-- Node4 -->
<g id="Node000004" class="node">
<title>Node4</title>
<g id="a_Node000004"><a xlink:href="../../d3/de1/class_grid_performance_benchmark_a6a31f6642222905776b59d5fc6ec1364.html#a6a31f6642222905776b59d5fc6ec1364" target="_top" xlink:title=" ">
<polygon fill="white" stroke="#666666" points="477.75,-116.88 338.75,-116.88 338.75,-86.38 477.75,-86.38 477.75,-116.88"/>
<text text-anchor="start" x="346.75" y="-103.38" font-family="Helvetica,sans-Serif" font-size="10.00">GridPerformanceBenchmark</text>
<text text-anchor="middle" x="408.25" y="-92.12" font-family="Helvetica,sans-Serif" font-size="10.00">::run_complete_benchmark</text>
</a>
</g>
</g>
<!-- Node3&#45;&gt;Node4 -->
<g id="edge3_Node000003_Node000004" class="edge">
<title>Node3&#45;&gt;Node4</title>
<g id="a_edge3_Node000003_Node000004"><a xlink:title=" ">
<path fill="none" stroke="#63b8ff" d="M502.07,-101.62C494.03,-101.62 485.96,-101.62 478.11,-101.62"/>
<polygon fill="#63b8ff" stroke="#63b8ff" points="501.86,-105.13 511.86,-101.63 501.86,-98.13 501.86,-105.13"/>
</a>
</g>
</g>
<!-- Node5 -->
<g id="Node000005" class="node">
<title>Node5</title>
<g id="a_Node000005"><a xlink:href="../../d1/db0/_grid___performance___benchmark_8cpp_a8eaebb5b60c50f0606cb4719e236b1bf.html#a8eaebb5b60c50f0606cb4719e236b1bf" target="_top" xlink:title=" ">
<polygon fill="white" stroke="#666666" points="293,-116.88 183.25,-116.88 183.25,-86.38 293,-86.38 293,-116.88"/>
<text text-anchor="start" x="191.25" y="-103.38" font-family="Helvetica,sans-Serif" font-size="10.00">run_grid_performance</text>
<text text-anchor="middle" x="238.12" y="-92.12" font-family="Helvetica,sans-Serif" font-size="10.00">_benchmark</text>
</a>
</g>
</g>
<!-- Node4&#45;&gt;Node5 -->
<g id="edge4_Node000004_Node000005" class="edge">
<title>Node4&#45;&gt;Node5</title>
<g id="a_edge4_Node000004_Node000005"><a xlink:title=" ">
<path fill="none" stroke="#63b8ff" d="M327.07,-101.62C315.69,-101.62 304.21,-101.62 293.48,-101.62"/>
<polygon fill="#63b8ff" stroke="#63b8ff" points="326.87,-105.13 336.87,-101.63 326.87,-98.13 326.87,-105.13"/>
</a>
</g>
</g>
<!-- Node6&#45;&gt;Node4 -->
<g id="edge10_Node000006_Node000004" class="edge">
<title>Node6&#45;&gt;Node4</title>
<g id="a_edge10_Node000006_Node000004"><a xlink:title=" ">
<path fill="none" stroke="#63b8ff" d="M520.31,-71.22C502.66,-76.06 483.81,-81.21 466.76,-85.88"/>
<polygon fill="#63b8ff" stroke="#63b8ff" points="520.94,-74.68 529.66,-68.66 519.09,-67.93 520.94,-74.68"/>
</a>
</g>
</g>
<!-- Node7 -->
<g id="Node000007" class="node">
<title>Node7</title>
<g id="a_Node000007"><a xlink:href="../../d1/db0/_grid___performance___benchmark_8cpp_ac125861b22e1c75a647907d093758246.html#ac125861b22e1c75a647907d093758246" target="_top" xlink:title=" ">
<polygon fill="white" stroke="#666666" points="468.38,-62.25 348.12,-62.25 348.12,-43 468.38,-43 468.38,-62.25"/>
<text text-anchor="middle" x="408.25" y="-48.75" font-family="Helvetica,sans-Serif" font-size="10.00">quick_performance_test</text>
</a>
</g>
</g>
<!-- Node6&#45;&gt;Node7 -->
<g id="edge6_Node000006_Node000007" class="edge">
<title>Node6&#45;&gt;Node7</title>
<g id="a_edge6_Node000006_Node000007"><a xlink:title=" ">
<path fill="none" stroke="#63b8ff" d="M502.91,-52.62C491.35,-52.62 479.7,-52.62 468.73,-52.62"/>
<polygon fill="#63b8ff" stroke="#63b8ff" points="502.9,-56.13 512.9,-52.63 502.9,-49.13 502.9,-56.13"/>
</a>
</g>
</g>
<!-- Node8 -->
<g id="Node000008" class="node">
<title>Node8</title>
<g id="a_Node000008"><a xlink:href="../../dc/de7/_grid___optimization___integration___guide_8cpp_a2700e9b3cb476604eadbef79c7aa63d5.html#a2700e9b3cb476604eadbef79c7aa63d5" target="_top" xlink:title=" ">
<polygon fill="white" stroke="#666666" points="290.38,-67.88 185.88,-67.88 185.88,-37.38 290.38,-37.38 290.38,-67.88"/>
<text text-anchor="start" x="193.88" y="-54.38" font-family="Helvetica,sans-Serif" font-size="10.00">demonstrate_testing</text>
<text text-anchor="middle" x="238.12" y="-43.12" font-family="Helvetica,sans-Serif" font-size="10.00">_validation</text>
</a>
</g>
</g>
<!-- Node7&#45;&gt;Node8 -->
<g id="edge7_Node000007_Node000008" class="edge">
<title>Node7&#45;&gt;Node8</title>
<g id="a_edge7_Node000007_Node000008"><a xlink:title=" ">
<path fill="none" stroke="#63b8ff" d="M336.83,-52.62C321.33,-52.62 305.2,-52.62 290.61,-52.62"/>
<polygon fill="#63b8ff" stroke="#63b8ff" points="336.46,-56.13 346.46,-52.63 336.46,-49.13 336.46,-56.13"/>
</a>
</g>
</g>
<!-- Node10 -->
<g id="Node000010" class="node">
<title>Node10</title>
<g id="a_Node000010"><a xlink:href="../../dc/de7/_grid___optimization___integration___guide_8cpp_ac9d67fcbba41c27f9c5d5876429fe035.html#ac9d67fcbba41c27f9c5d5876429fe035" target="_top" xlink:title=" ">
<polygon fill="white" stroke="#666666" points="302.75,-19.25 173.5,-19.25 173.5,0 302.75,0 302.75,-19.25"/>
<text text-anchor="middle" x="238.12" y="-5.75" font-family="Helvetica,sans-Serif" font-size="10.00">example_main_integration</text>
</a>
</g>
</g>
<!-- Node7&#45;&gt;Node10 -->
<g id="edge9_Node000007_Node000010" class="edge">
<title>Node7&#45;&gt;Node10</title>
<g id="a_edge9_Node000007_Node000010"><a xlink:title=" ">
<path fill="none" stroke="#63b8ff" d="M356.71,-39.7C331.68,-33.3 301.91,-25.68 278.59,-19.72"/>
<polygon fill="#63b8ff" stroke="#63b8ff" points="355.81,-43.08 366.37,-42.17 357.54,-36.3 355.81,-43.08"/>
</a>
</g>
</g>
<!-- Node9 -->
<g id="Node000009" class="node">
<title>Node9</title>
<g id="a_Node000009"><a xlink:href="../../dc/de7/_grid___optimization___integration___guide_8cpp_ad598130e8e89b3050bb9bd71f0ab1b25.html#ad598130e8e89b3050bb9bd71f0ab1b25" target="_top" xlink:title=" ">
<polygon fill="white" stroke="#666666" points="137.5,-62.25 0,-62.25 0,-43 137.5,-43 137.5,-62.25"/>
<text text-anchor="middle" x="68.75" y="-48.75" font-family="Helvetica,sans-Serif" font-size="10.00">integrate_grid_optimizations</text>
</a>
</g>
</g>
<!-- Node8&#45;&gt;Node9 -->
<g id="edge8_Node000008_Node000009" class="edge">
<title>Node8&#45;&gt;Node9</title>
<g id="a_edge8_Node000008_Node000009"><a xlink:title=" ">
<path fill="none" stroke="#63b8ff" d="M174.33,-52.62C162.41,-52.62 149.88,-52.62 137.81,-52.62"/>
<polygon fill="#63b8ff" stroke="#63b8ff" points="174.03,-56.13 184.03,-52.63 174.03,-49.13 174.03,-56.13"/>
</a>
</g>
</g>
<!-- Node11&#45;&gt;Node10 -->
<g id="edge12_Node000011_Node000010" class="edge">
<title>Node11&#45;&gt;Node10</title>
<g id="a_edge12_Node000011_Node000010"><a xlink:title=" ">
<path fill="none" stroke="#63b8ff" d="M340.94,-9.62C328.47,-9.62 315.45,-9.62 303.06,-9.62"/>
<polygon fill="#63b8ff" stroke="#63b8ff" points="340.69,-13.13 350.69,-9.63 340.69,-6.13 340.69,-13.13"/>
</a>
</g>
</g>
</g>
</svg>
