<?xml version="1.0" encoding="UTF-8" standalone="no"?>
<!DOCTYPE svg PUBLIC "-//W3C//DTD SVG 1.1//EN"
 "http://www.w3.org/Graphics/SVG/1.1/DTD/svg11.dtd">
<!-- Generated by graphviz version 12.2.1 (20241206.2353)
 -->
<!-- Title: Calculate_Cell_Center_Distances_Optimized Pages: 1 -->
<svg width="842pt" height="198pt"
 viewBox="0.00 0.00 841.75 197.88" xmlns="http://www.w3.org/2000/svg" xmlns:xlink="http://www.w3.org/1999/xlink">
<g id="graph0" class="graph" transform="scale(1 1) rotate(0) translate(4 193.88)">
<title>Calculate_Cell_Center_Distances_Optimized</title>
<!-- Node1 -->
<g id="Node000001" class="node">
<title>Node1</title>
<g id="a_Node000001"><a xlink:title=" ">
<polygon fill="#999999" stroke="#666666" points="833.75,-100.88 718.75,-100.88 718.75,-70.38 833.75,-70.38 833.75,-100.88"/>
<text text-anchor="start" x="726.75" y="-87.38" font-family="Helvetica,sans-Serif" font-size="10.00">Calculate_Cell_Center</text>
<text text-anchor="middle" x="776.25" y="-76.12" font-family="Helvetica,sans-Serif" font-size="10.00">_Distances_Optimized</text>
</a>
</g>
</g>
<!-- Node2 -->
<g id="Node000002" class="node">
<title>Node2</title>
<g id="a_Node000002"><a xlink:href="../../d3/de1/class_grid_performance_benchmark_a8304b3cde0e7f9ad1d1b72c9354b8e8f.html#a8304b3cde0e7f9ad1d1b72c9354b8e8f" target="_top" xlink:title=" ">
<polygon fill="white" stroke="#666666" points="682.75,-181.88 513.75,-181.88 513.75,-151.38 682.75,-151.38 682.75,-181.88"/>
<text text-anchor="start" x="521.75" y="-168.38" font-family="Helvetica,sans-Serif" font-size="10.00">GridPerformanceBenchmark</text>
<text text-anchor="middle" x="598.25" y="-157.12" font-family="Helvetica,sans-Serif" font-size="10.00">::benchmark_distance_calculations</text>
</a>
</g>
</g>
<!-- Node1&#45;&gt;Node2 -->
<g id="edge1_Node000001_Node000002" class="edge">
<title>Node1&#45;&gt;Node2</title>
<g id="a_edge1_Node000001_Node000002"><a xlink:title=" ">
<path fill="none" stroke="#63b8ff" d="M744.62,-107.44C727.14,-119.12 704.44,-133.04 682.75,-142.62 675.85,-145.67 668.46,-148.45 661.04,-150.94"/>
<polygon fill="#63b8ff" stroke="#63b8ff" points="746.21,-110.59 752.5,-102.07 742.27,-104.81 746.21,-110.59"/>
</a>
</g>
</g>
<!-- Node9 -->
<g id="Node000009" class="node">
<title>Node9</title>
<g id="a_Node000009"><a xlink:href="../../d8/d24/_grid___computations___optimized_8cpp_a98379ebe8a042245852b8172374737d7.html#a98379ebe8a042245852b8172374737d7" target="_top" xlink:title=" ">
<polygon fill="white" stroke="#666666" points="663.25,-133.25 533.25,-133.25 533.25,-114 663.25,-114 663.25,-133.25"/>
<text text-anchor="middle" x="598.25" y="-119.75" font-family="Helvetica,sans-Serif" font-size="10.00">benchmark_grid_functions</text>
</a>
</g>
</g>
<!-- Node1&#45;&gt;Node9 -->
<g id="edge8_Node000001_Node000009" class="edge">
<title>Node1&#45;&gt;Node9</title>
<g id="a_edge8_Node000001_Node000009"><a xlink:title=" ">
<path fill="none" stroke="#63b8ff" d="M707.4,-100.27C686.91,-104.7 664.88,-109.45 646.08,-113.51"/>
<polygon fill="#63b8ff" stroke="#63b8ff" points="708.08,-103.71 717.11,-98.18 706.6,-96.87 708.08,-103.71"/>
</a>
</g>
</g>
<!-- Node10 -->
<g id="Node000010" class="node">
<title>Node10</title>
<g id="a_Node000010"><a xlink:href="../../dc/de7/_grid___optimization___integration___guide_8cpp_ae6a5c597ffb845be2502d0afc0e1a695.html#ae6a5c597ffb845be2502d0afc0e1a695" target="_top" xlink:title=" ">
<polygon fill="white" stroke="#666666" points="472.88,-57.88 343.62,-57.88 343.62,-27.38 472.88,-27.38 472.88,-57.88"/>
<text text-anchor="start" x="351.62" y="-44.38" font-family="Helvetica,sans-Serif" font-size="10.00">demonstrate_performance</text>
<text text-anchor="middle" x="408.25" y="-33.12" font-family="Helvetica,sans-Serif" font-size="10.00">_aware_integration</text>
</a>
</g>
</g>
<!-- Node1&#45;&gt;Node10 -->
<g id="edge9_Node000001_Node000010" class="edge">
<title>Node1&#45;&gt;Node10</title>
<g id="a_edge9_Node000001_Node000010"><a xlink:title=" ">
<path fill="none" stroke="#63b8ff" d="M707.2,-77.63C640.24,-69.76 538.78,-57.84 473.26,-50.14"/>
<polygon fill="#63b8ff" stroke="#63b8ff" points="706.62,-81.09 716.96,-78.78 707.44,-74.13 706.62,-81.09"/>
</a>
</g>
</g>
<!-- Node11 -->
<g id="Node000011" class="node">
<title>Node11</title>
<g id="a_Node000011"><a xlink:href="../../d8/d5a/namespace_optimized_grid_ab36369591fc8cdefa7449fec2f1d5d4f.html#ab36369591fc8cdefa7449fec2f1d5d4f" target="_top" xlink:title=" ">
<polygon fill="white" stroke="#666666" points="669.62,-19.25 526.88,-19.25 526.88,0 669.62,0 669.62,-19.25"/>
<text text-anchor="middle" x="598.25" y="-5.75" font-family="Helvetica,sans-Serif" font-size="10.00">OptimizedGrid::ProcessCells</text>
</a>
</g>
</g>
<!-- Node1&#45;&gt;Node11 -->
<g id="edge11_Node000001_Node000011" class="edge">
<title>Node1&#45;&gt;Node11</title>
<g id="a_edge11_Node000001_Node000011"><a xlink:title=" ">
<path fill="none" stroke="#63b8ff" d="M741.38,-64.08C724.28,-53.85 702.93,-42.06 682.75,-33.62 669.67,-28.16 654.94,-23.47 641.53,-19.72"/>
<polygon fill="#63b8ff" stroke="#63b8ff" points="739.26,-66.88 749.62,-69.09 742.9,-60.9 739.26,-66.88"/>
</a>
</g>
</g>
<!-- Node12 -->
<g id="Node000012" class="node">
<title>Node12</title>
<g id="a_Node000012"><a xlink:href="../../dc/de7/_grid___optimization___integration___guide_8cpp_ad8ac88549c20d09515c033d5fc2e2d10.html#ad8ac88549c20d09515c033d5fc2e2d10" target="_top" xlink:title=" ">
<polygon fill="white" stroke="#666666" points="464.25,-95.25 352.25,-95.25 352.25,-76 464.25,-76 464.25,-95.25"/>
<text text-anchor="middle" x="408.25" y="-81.75" font-family="Helvetica,sans-Serif" font-size="10.00">Read_Grid_Optimized</text>
</a>
</g>
</g>
<!-- Node1&#45;&gt;Node12 -->
<g id="edge13_Node000001_Node000012" class="edge">
<title>Node1&#45;&gt;Node12</title>
<g id="a_edge13_Node000001_Node000012"><a xlink:title=" ">
<path fill="none" stroke="#63b8ff" d="M707.14,-85.62C637.18,-85.62 529.6,-85.62 464.67,-85.62"/>
<polygon fill="#63b8ff" stroke="#63b8ff" points="706.95,-89.13 716.95,-85.63 706.95,-82.13 706.95,-89.13"/>
</a>
</g>
</g>
<!-- Node3 -->
<g id="Node000003" class="node">
<title>Node3</title>
<g id="a_Node000003"><a xlink:href="../../d1/db0/_grid___performance___benchmark_8cpp_ac125861b22e1c75a647907d093758246.html#ac125861b22e1c75a647907d093758246" target="_top" xlink:title=" ">
<polygon fill="white" stroke="#666666" points="468.38,-135.25 348.12,-135.25 348.12,-116 468.38,-116 468.38,-135.25"/>
<text text-anchor="middle" x="408.25" y="-121.75" font-family="Helvetica,sans-Serif" font-size="10.00">quick_performance_test</text>
</a>
</g>
</g>
<!-- Node2&#45;&gt;Node3 -->
<g id="edge2_Node000002_Node000003" class="edge">
<title>Node2&#45;&gt;Node3</title>
<g id="a_edge2_Node000002_Node000003"><a xlink:title=" ">
<path fill="none" stroke="#63b8ff" d="M514.02,-148.47C493.89,-144.08 473.11,-139.55 455.41,-135.69"/>
<polygon fill="#63b8ff" stroke="#63b8ff" points="513.11,-151.86 523.62,-150.57 514.6,-145.02 513.11,-151.86"/>
</a>
</g>
</g>
<!-- Node7 -->
<g id="Node000007" class="node">
<title>Node7</title>
<g id="a_Node000007"><a xlink:href="../../d3/de1/class_grid_performance_benchmark_a6a31f6642222905776b59d5fc6ec1364.html#a6a31f6642222905776b59d5fc6ec1364" target="_top" xlink:title=" ">
<polygon fill="white" stroke="#666666" points="477.75,-183.88 338.75,-183.88 338.75,-153.38 477.75,-153.38 477.75,-183.88"/>
<text text-anchor="start" x="346.75" y="-170.38" font-family="Helvetica,sans-Serif" font-size="10.00">GridPerformanceBenchmark</text>
<text text-anchor="middle" x="408.25" y="-159.12" font-family="Helvetica,sans-Serif" font-size="10.00">::run_complete_benchmark</text>
</a>
</g>
</g>
<!-- Node2&#45;&gt;Node7 -->
<g id="edge6_Node000002_Node000007" class="edge">
<title>Node2&#45;&gt;Node7</title>
<g id="a_edge6_Node000002_Node000007"><a xlink:title=" ">
<path fill="none" stroke="#63b8ff" d="M501.99,-167.64C493.9,-167.72 485.82,-167.81 477.99,-167.89"/>
<polygon fill="#63b8ff" stroke="#63b8ff" points="501.95,-171.14 511.91,-167.53 501.87,-164.14 501.95,-171.14"/>
</a>
</g>
</g>
<!-- Node4 -->
<g id="Node000004" class="node">
<title>Node4</title>
<g id="a_Node000004"><a xlink:href="../../dc/de7/_grid___optimization___integration___guide_8cpp_a2700e9b3cb476604eadbef79c7aa63d5.html#a2700e9b3cb476604eadbef79c7aa63d5" target="_top" xlink:title=" ">
<polygon fill="white" stroke="#666666" points="290.38,-140.88 185.88,-140.88 185.88,-110.38 290.38,-110.38 290.38,-140.88"/>
<text text-anchor="start" x="193.88" y="-127.38" font-family="Helvetica,sans-Serif" font-size="10.00">demonstrate_testing</text>
<text text-anchor="middle" x="238.12" y="-116.12" font-family="Helvetica,sans-Serif" font-size="10.00">_validation</text>
</a>
</g>
</g>
<!-- Node3&#45;&gt;Node4 -->
<g id="edge3_Node000003_Node000004" class="edge">
<title>Node3&#45;&gt;Node4</title>
<g id="a_edge3_Node000003_Node000004"><a xlink:title=" ">
<path fill="none" stroke="#63b8ff" d="M336.83,-125.62C321.33,-125.62 305.2,-125.62 290.61,-125.62"/>
<polygon fill="#63b8ff" stroke="#63b8ff" points="336.46,-129.13 346.46,-125.63 336.46,-122.13 336.46,-129.13"/>
</a>
</g>
</g>
<!-- Node6 -->
<g id="Node000006" class="node">
<title>Node6</title>
<g id="a_Node000006"><a xlink:href="../../dc/de7/_grid___optimization___integration___guide_8cpp_ac9d67fcbba41c27f9c5d5876429fe035.html#ac9d67fcbba41c27f9c5d5876429fe035" target="_top" xlink:title=" ">
<polygon fill="white" stroke="#666666" points="302.75,-92.25 173.5,-92.25 173.5,-73 302.75,-73 302.75,-92.25"/>
<text text-anchor="middle" x="238.12" y="-78.75" font-family="Helvetica,sans-Serif" font-size="10.00">example_main_integration</text>
</a>
</g>
</g>
<!-- Node3&#45;&gt;Node6 -->
<g id="edge5_Node000003_Node000006" class="edge">
<title>Node3&#45;&gt;Node6</title>
<g id="a_edge5_Node000003_Node000006"><a xlink:title=" ">
<path fill="none" stroke="#63b8ff" d="M356.71,-112.7C331.68,-106.3 301.91,-98.68 278.59,-92.72"/>
<polygon fill="#63b8ff" stroke="#63b8ff" points="355.81,-116.08 366.37,-115.17 357.54,-109.3 355.81,-116.08"/>
</a>
</g>
</g>
<!-- Node5 -->
<g id="Node000005" class="node">
<title>Node5</title>
<g id="a_Node000005"><a xlink:href="../../dc/de7/_grid___optimization___integration___guide_8cpp_ad598130e8e89b3050bb9bd71f0ab1b25.html#ad598130e8e89b3050bb9bd71f0ab1b25" target="_top" xlink:title=" ">
<polygon fill="white" stroke="#666666" points="137.5,-94.25 0,-94.25 0,-75 137.5,-75 137.5,-94.25"/>
<text text-anchor="middle" x="68.75" y="-80.75" font-family="Helvetica,sans-Serif" font-size="10.00">integrate_grid_optimizations</text>
</a>
</g>
</g>
<!-- Node4&#45;&gt;Node5 -->
<g id="edge4_Node000004_Node000005" class="edge">
<title>Node4&#45;&gt;Node5</title>
<g id="a_edge4_Node000004_Node000005"><a xlink:title=" ">
<path fill="none" stroke="#63b8ff" d="M174.61,-110.31C153.29,-105.09 130.01,-99.39 110.82,-94.68"/>
<polygon fill="#63b8ff" stroke="#63b8ff" points="173.53,-113.65 184.07,-112.63 175.19,-106.85 173.53,-113.65"/>
</a>
</g>
</g>
<!-- Node8 -->
<g id="Node000008" class="node">
<title>Node8</title>
<g id="a_Node000008"><a xlink:href="../../d1/db0/_grid___performance___benchmark_8cpp_a8eaebb5b60c50f0606cb4719e236b1bf.html#a8eaebb5b60c50f0606cb4719e236b1bf" target="_top" xlink:title=" ">
<polygon fill="white" stroke="#666666" points="293,-189.88 183.25,-189.88 183.25,-159.38 293,-159.38 293,-189.88"/>
<text text-anchor="start" x="191.25" y="-176.38" font-family="Helvetica,sans-Serif" font-size="10.00">run_grid_performance</text>
<text text-anchor="middle" x="238.12" y="-165.12" font-family="Helvetica,sans-Serif" font-size="10.00">_benchmark</text>
</a>
</g>
</g>
<!-- Node7&#45;&gt;Node8 -->
<g id="edge7_Node000007_Node000008" class="edge">
<title>Node7&#45;&gt;Node8</title>
<g id="a_edge7_Node000007_Node000008"><a xlink:title=" ">
<path fill="none" stroke="#63b8ff" d="M327.07,-171.49C315.69,-171.89 304.21,-172.3 293.48,-172.69"/>
<polygon fill="#63b8ff" stroke="#63b8ff" points="327,-174.99 336.87,-171.14 326.75,-168 327,-174.99"/>
</a>
</g>
</g>
<!-- Node10&#45;&gt;Node5 -->
<g id="edge10_Node000010_Node000005" class="edge">
<title>Node10&#45;&gt;Node5</title>
<g id="a_edge10_Node000010_Node000005"><a xlink:title=" ">
<path fill="none" stroke="#63b8ff" d="M332.16,-47.26C286.2,-50.62 226.28,-55.94 173.5,-63.62 153.86,-66.49 132.33,-70.67 113.99,-74.55"/>
<polygon fill="#63b8ff" stroke="#63b8ff" points="332.3,-50.76 342.02,-46.56 331.8,-43.78 332.3,-50.76"/>
</a>
</g>
</g>
<!-- Node11&#45;&gt;Node10 -->
<g id="edge12_Node000011_Node000010" class="edge">
<title>Node11&#45;&gt;Node10</title>
<g id="a_edge12_Node000011_Node000010"><a xlink:title=" ">
<path fill="none" stroke="#63b8ff" d="M528.73,-21.65C510.6,-24.83 491.1,-28.26 473.21,-31.4"/>
<polygon fill="#63b8ff" stroke="#63b8ff" points="529.09,-25.14 538.33,-19.97 527.88,-18.25 529.09,-25.14"/>
</a>
</g>
</g>
<!-- Node12&#45;&gt;Node6 -->
<g id="edge14_Node000012_Node000006" class="edge">
<title>Node12&#45;&gt;Node6</title>
<g id="a_edge14_Node000012_Node000006"><a xlink:title=" ">
<path fill="none" stroke="#63b8ff" d="M340.94,-84.44C328.47,-84.22 315.45,-83.99 303.06,-83.77"/>
<polygon fill="#63b8ff" stroke="#63b8ff" points="340.63,-87.94 350.69,-84.62 340.75,-80.94 340.63,-87.94"/>
</a>
</g>
</g>
</g>
</svg>
