<?xml version="1.0" encoding="UTF-8" standalone="no"?>
<!DOCTYPE svg PUBLIC "-//W3C//DTD SVG 1.1//EN"
 "http://www.w3.org/Graphics/SVG/1.1/DTD/svg11.dtd">
<!-- Generated by graphviz version 12.2.1 (20241206.2353)
 -->
<!-- Title: analyze_grid_performance Pages: 1 -->
<svg width="631pt" height="114pt"
 viewBox="0.00 0.00 630.75 113.88" xmlns="http://www.w3.org/2000/svg" xmlns:xlink="http://www.w3.org/1999/xlink">
<g id="graph0" class="graph" transform="scale(1 1) rotate(0) translate(4 109.88)">
<title>analyze_grid_performance</title>
<!-- Node1 -->
<g id="Node000001" class="node">
<title>Node1</title>
<g id="a_Node000001"><a xlink:title=" ">
<polygon fill="#999999" stroke="#666666" points="622.75,-105.88 492.75,-105.88 492.75,-86.62 622.75,-86.62 622.75,-105.88"/>
<text text-anchor="middle" x="557.75" y="-92.38" font-family="Helvetica,sans-Serif" font-size="10.00">analyze_grid_performance</text>
</a>
</g>
</g>
<!-- Node2 -->
<g id="Node000002" class="node">
<title>Node2</title>
<g id="a_Node000002"><a xlink:href="../../dc/de7/_grid___optimization___integration___guide_8cpp_ac9d67fcbba41c27f9c5d5876429fe035.html#ac9d67fcbba41c27f9c5d5876429fe035" target="_top" xlink:title=" ">
<polygon fill="white" stroke="#666666" points="133.38,-105.88 4.12,-105.88 4.12,-86.62 133.38,-86.62 133.38,-105.88"/>
<text text-anchor="middle" x="68.75" y="-92.38" font-family="Helvetica,sans-Serif" font-size="10.00">example_main_integration</text>
</a>
</g>
</g>
<!-- Node1&#45;&gt;Node2 -->
<g id="edge1_Node000001_Node000002" class="edge">
<title>Node1&#45;&gt;Node2</title>
<g id="a_edge1_Node000001_Node000002"><a xlink:title=" ">
<path fill="none" stroke="#63b8ff" d="M481.26,-98.36C403.97,-100.21 280.34,-102.31 173.5,-100.25 160.61,-100 146.83,-99.58 133.66,-99.1"/>
<polygon fill="#63b8ff" stroke="#63b8ff" points="480.9,-101.87 490.81,-98.13 480.73,-94.87 480.9,-101.87"/>
</a>
</g>
</g>
<!-- Node3 -->
<g id="Node000003" class="node">
<title>Node3</title>
<g id="a_Node000003"><a xlink:href="../../d8/d5a/namespace_optimized_grid_a5a1120c1c01937757b9ec8cad7afa9a3.html#a5a1120c1c01937757b9ec8cad7afa9a3" target="_top" xlink:title=" ">
<polygon fill="white" stroke="#666666" points="456.75,-86.88 338.75,-86.88 338.75,-67.62 456.75,-67.62 456.75,-86.88"/>
<text text-anchor="middle" x="397.75" y="-73.38" font-family="Helvetica,sans-Serif" font-size="10.00">OptimizedGrid::Finalize</text>
</a>
</g>
</g>
<!-- Node1&#45;&gt;Node3 -->
<g id="edge2_Node000001_Node000003" class="edge">
<title>Node1&#45;&gt;Node3</title>
<g id="a_edge2_Node000001_Node000003"><a xlink:title=" ">
<path fill="none" stroke="#63b8ff" d="M481.14,-87.16C473.06,-86.19 464.94,-85.21 457.11,-84.27"/>
<polygon fill="#63b8ff" stroke="#63b8ff" points="480.64,-90.62 490.98,-88.34 481.47,-83.67 480.64,-90.62"/>
</a>
</g>
</g>
<!-- Node3&#45;&gt;Node2 -->
<g id="edge5_Node000003_Node000002" class="edge">
<title>Node3&#45;&gt;Node2</title>
<g id="a_edge5_Node000003_Node000002"><a xlink:title=" ">
<path fill="none" stroke="#63b8ff" d="M326.81,-81.31C269.62,-84.64 189.41,-89.3 133.86,-92.53"/>
<polygon fill="#63b8ff" stroke="#63b8ff" points="327,-84.81 336.78,-80.73 326.59,-77.82 327,-84.81"/>
</a>
</g>
</g>
<!-- Node4 -->
<g id="Node000004" class="node">
<title>Node4</title>
<g id="a_Node000004"><a xlink:href="../../dc/de7/_grid___optimization___integration___guide_8cpp_ae6a5c597ffb845be2502d0afc0e1a695.html#ae6a5c597ffb845be2502d0afc0e1a695" target="_top" xlink:title=" ">
<polygon fill="white" stroke="#666666" points="302.75,-30.5 173.5,-30.5 173.5,0 302.75,0 302.75,-30.5"/>
<text text-anchor="start" x="181.5" y="-17" font-family="Helvetica,sans-Serif" font-size="10.00">demonstrate_performance</text>
<text text-anchor="middle" x="238.12" y="-5.75" font-family="Helvetica,sans-Serif" font-size="10.00">_aware_integration</text>
</a>
</g>
</g>
<!-- Node3&#45;&gt;Node4 -->
<g id="edge3_Node000003_Node000004" class="edge">
<title>Node3&#45;&gt;Node4</title>
<g id="a_edge3_Node000003_Node000004"><a xlink:title=" ">
<path fill="none" stroke="#63b8ff" d="M362.04,-62.99C344.34,-55.78 322.44,-46.94 302.75,-39.25 295.82,-36.54 288.45,-33.72 281.27,-30.99"/>
<polygon fill="#63b8ff" stroke="#63b8ff" points="360.48,-66.14 371.07,-66.68 363.13,-59.66 360.48,-66.14"/>
</a>
</g>
</g>
<!-- Node6 -->
<g id="Node000006" class="node">
<title>Node6</title>
<g id="a_Node000006"><a xlink:href="../../dc/de7/_grid___optimization___integration___guide_8cpp_ad8ac88549c20d09515c033d5fc2e2d10.html#ad8ac88549c20d09515c033d5fc2e2d10" target="_top" xlink:title=" ">
<polygon fill="white" stroke="#666666" points="294.12,-67.88 182.12,-67.88 182.12,-48.62 294.12,-48.62 294.12,-67.88"/>
<text text-anchor="middle" x="238.12" y="-54.38" font-family="Helvetica,sans-Serif" font-size="10.00">Read_Grid_Optimized</text>
</a>
</g>
</g>
<!-- Node3&#45;&gt;Node6 -->
<g id="edge6_Node000003_Node000006" class="edge">
<title>Node3&#45;&gt;Node6</title>
<g id="a_edge6_Node000003_Node000006"><a xlink:title=" ">
<path fill="none" stroke="#63b8ff" d="M327.22,-68.87C316.27,-67.55 305.08,-66.2 294.51,-64.93"/>
<polygon fill="#63b8ff" stroke="#63b8ff" points="326.65,-72.33 337,-70.05 327.49,-65.38 326.65,-72.33"/>
</a>
</g>
</g>
<!-- Node5 -->
<g id="Node000005" class="node">
<title>Node5</title>
<g id="a_Node000005"><a xlink:href="../../dc/de7/_grid___optimization___integration___guide_8cpp_ad598130e8e89b3050bb9bd71f0ab1b25.html#ad598130e8e89b3050bb9bd71f0ab1b25" target="_top" xlink:title=" ">
<polygon fill="white" stroke="#666666" points="137.5,-24.88 0,-24.88 0,-5.62 137.5,-5.62 137.5,-24.88"/>
<text text-anchor="middle" x="68.75" y="-11.38" font-family="Helvetica,sans-Serif" font-size="10.00">integrate_grid_optimizations</text>
</a>
</g>
</g>
<!-- Node4&#45;&gt;Node5 -->
<g id="edge4_Node000004_Node000005" class="edge">
<title>Node4&#45;&gt;Node5</title>
<g id="a_edge4_Node000004_Node000005"><a xlink:title=" ">
<path fill="none" stroke="#63b8ff" d="M162.05,-15.25C153.97,-15.25 145.78,-15.25 137.78,-15.25"/>
<polygon fill="#63b8ff" stroke="#63b8ff" points="161.86,-18.75 171.86,-15.25 161.86,-11.75 161.86,-18.75"/>
</a>
</g>
</g>
<!-- Node6&#45;&gt;Node2 -->
<g id="edge7_Node000006_Node000002" class="edge">
<title>Node6&#45;&gt;Node2</title>
<g id="a_edge7_Node000006_Node000002"><a xlink:title=" ">
<path fill="none" stroke="#63b8ff" d="M181.55,-70.87C159.61,-75.85 134.77,-81.49 114.08,-86.19"/>
<polygon fill="#63b8ff" stroke="#63b8ff" points="182.26,-74.3 191.24,-68.67 180.71,-67.47 182.26,-74.3"/>
</a>
</g>
</g>
</g>
</svg>
