<?xml version="1.0" encoding="UTF-8" standalone="no"?>
<!DOCTYPE svg PUBLIC "-//W3C//DTD SVG 1.1//EN"
 "http://www.w3.org/Graphics/SVG/1.1/DTD/svg11.dtd">
<!-- Generated by graphviz version 12.2.1 (20241206.2353)
 -->
<!-- Title: GridCudaProcessor::processGridOnGPU Pages: 1 -->
<svg width="441pt" height="211pt"
 viewBox="0.00 0.00 440.75 210.50" xmlns="http://www.w3.org/2000/svg" xmlns:xlink="http://www.w3.org/1999/xlink">
<g id="graph0" class="graph" transform="scale(1 1) rotate(0) translate(4 206.5)">
<title>GridCudaProcessor::processGridOnGPU</title>
<!-- Node1 -->
<g id="Node000001" class="node">
<title>Node1</title>
<g id="a_Node000001"><a xlink:title=" ">
<polygon fill="#999999" stroke="#666666" points="107.5,-122.5 0,-122.5 0,-92 107.5,-92 107.5,-122.5"/>
<text text-anchor="start" x="8" y="-109" font-family="Helvetica,sans-Serif" font-size="10.00">GridCudaProcessor::</text>
<text text-anchor="middle" x="53.75" y="-97.75" font-family="Helvetica,sans-Serif" font-size="10.00">processGridOnGPU</text>
</a>
</g>
</g>
<!-- Node2 -->
<g id="Node000002" class="node">
<title>Node2</title>
<g id="a_Node000002"><a xlink:href="../../db/d6b/_grid___cuda___host___wrappers_8cpp_a9aeaa73edc540712c54559ed0f7481f4.html#a9aeaa73edc540712c54559ed0f7481f4" target="_top" xlink:title=" ">
<polygon fill="white" stroke="#666666" points="265.62,-122.5 149.88,-122.5 149.88,-92 265.62,-92 265.62,-122.5"/>
<text text-anchor="start" x="157.88" y="-109" font-family="Helvetica,sans-Serif" font-size="10.00">launch_construct_cells</text>
<text text-anchor="middle" x="207.75" y="-97.75" font-family="Helvetica,sans-Serif" font-size="10.00">_from_vtk</text>
</a>
</g>
</g>
<!-- Node1&#45;&gt;Node2 -->
<g id="edge1_Node000001_Node000002" class="edge">
<title>Node1&#45;&gt;Node2</title>
<g id="a_edge1_Node000001_Node000002"><a xlink:title=" ">
<path fill="none" stroke="#63b8ff" d="M107.91,-107.25C117.68,-107.25 128,-107.25 138.14,-107.25"/>
<polygon fill="#63b8ff" stroke="#63b8ff" points="137.96,-110.75 147.96,-107.25 137.96,-103.75 137.96,-110.75"/>
</a>
</g>
</g>
<!-- Node6 -->
<g id="Node000006" class="node">
<title>Node6</title>
<g id="a_Node000006"><a xlink:href="../../db/d6b/_grid___cuda___host___wrappers_8cpp_a8d52372c6e54d935f7b2ce958b7c2e26.html#a8d52372c6e54d935f7b2ce958b7c2e26" target="_top" xlink:title=" ">
<polygon fill="white" stroke="#666666" points="257.38,-73.5 158.12,-73.5 158.12,-43 257.38,-43 257.38,-73.5"/>
<text text-anchor="start" x="166.12" y="-60" font-family="Helvetica,sans-Serif" font-size="10.00">launch_grid_quality</text>
<text text-anchor="middle" x="207.75" y="-48.75" font-family="Helvetica,sans-Serif" font-size="10.00">_assessment</text>
</a>
</g>
</g>
<!-- Node1&#45;&gt;Node6 -->
<g id="edge5_Node000001_Node000006" class="edge">
<title>Node1&#45;&gt;Node6</title>
<g id="a_edge5_Node000001_Node000006"><a xlink:title=" ">
<path fill="none" stroke="#63b8ff" d="M103.26,-91.61C117.18,-87.13 132.52,-82.18 147.02,-77.5"/>
<polygon fill="#63b8ff" stroke="#63b8ff" points="148.03,-80.86 156.48,-74.46 145.88,-74.19 148.03,-80.86"/>
</a>
</g>
</g>
<!-- Node8 -->
<g id="Node000008" class="node">
<title>Node8</title>
<g id="a_Node000008"><a xlink:href="../../db/d6b/_grid___cuda___host___wrappers_8cpp_a0ddfabd8d153bac9387220ae0097f581.html#a0ddfabd8d153bac9387220ae0097f581" target="_top" xlink:title=" ">
<polygon fill="white" stroke="#666666" points="272,-159.88 143.5,-159.88 143.5,-140.62 272,-140.62 272,-159.88"/>
<text text-anchor="middle" x="207.75" y="-146.38" font-family="Helvetica,sans-Serif" font-size="10.00">launch_identify_neighbors</text>
</a>
</g>
</g>
<!-- Node1&#45;&gt;Node8 -->
<g id="edge9_Node000001_Node000008" class="edge">
<title>Node1&#45;&gt;Node8</title>
<g id="a_edge9_Node000001_Node000008"><a xlink:title=" ">
<path fill="none" stroke="#63b8ff" d="M107.91,-122.29C124.88,-127.09 143.53,-132.37 160.01,-137.03"/>
<polygon fill="#63b8ff" stroke="#63b8ff" points="159,-140.38 169.57,-139.73 160.9,-133.64 159,-140.38"/>
</a>
</g>
</g>
<!-- Node3 -->
<g id="Node000003" class="node">
<title>Node3</title>
<g id="a_Node000003"><a xlink:href="../../d0/df8/_cuda___kernel___utilities_8h_a54c372187f54300d55c5415ca8084070.html#a54c372187f54300d55c5415ca8084070" target="_top" xlink:title=" ">
<polygon fill="white" stroke="#666666" points="420,-153.88 320.75,-153.88 320.75,-134.62 420,-134.62 420,-153.88"/>
<text text-anchor="middle" x="370.38" y="-140.38" font-family="Helvetica,sans-Serif" font-size="10.00">calculateBlockSize</text>
</a>
</g>
</g>
<!-- Node2&#45;&gt;Node3 -->
<g id="edge2_Node000002_Node000003" class="edge">
<title>Node2&#45;&gt;Node3</title>
<g id="a_edge2_Node000002_Node000003"><a xlink:title=" ">
<path fill="none" stroke="#63b8ff" d="M265.83,-120.4C281.65,-124.04 298.78,-127.99 314.48,-131.6"/>
<polygon fill="#63b8ff" stroke="#63b8ff" points="313.6,-134.99 324.13,-133.83 315.17,-128.17 313.6,-134.99"/>
</a>
</g>
</g>
<!-- Node4 -->
<g id="Node000004" class="node">
<title>Node4</title>
<g id="a_Node000004"><a xlink:href="../../d9/d04/_grid___cuda___kernels_8h_a6b5498a4244beee490d2294216e77f4f.html#a6b5498a4244beee490d2294216e77f4f" target="_top" xlink:title=" ">
<polygon fill="white" stroke="#666666" points="432.75,-116.88 308,-116.88 308,-97.62 432.75,-97.62 432.75,-116.88"/>
<text text-anchor="middle" x="370.38" y="-103.38" font-family="Helvetica,sans-Serif" font-size="10.00">calculateGridSizeForGrid</text>
</a>
</g>
</g>
<!-- Node2&#45;&gt;Node4 -->
<g id="edge3_Node000002_Node000004" class="edge">
<title>Node2&#45;&gt;Node4</title>
<g id="a_edge3_Node000002_Node000004"><a xlink:title=" ">
<path fill="none" stroke="#63b8ff" d="M265.83,-107.25C275.66,-107.25 286,-107.25 296.18,-107.25"/>
<polygon fill="#63b8ff" stroke="#63b8ff" points="296.06,-110.75 306.06,-107.25 296.06,-103.75 296.06,-110.75"/>
</a>
</g>
</g>
<!-- Node5 -->
<g id="Node000005" class="node">
<title>Node5</title>
<g id="a_Node000005"><a xlink:href="../../d8/d50/_grid___cuda___kernels_8cu_a5b61995519945bed54c617de6aaa5db7.html#a5b61995519945bed54c617de6aaa5db7" target="_top" xlink:title=" ">
<polygon fill="white" stroke="#666666" points="423.75,-79.5 317,-79.5 317,-49 423.75,-49 423.75,-79.5"/>
<text text-anchor="start" x="325" y="-66" font-family="Helvetica,sans-Serif" font-size="10.00">construct_cells_from</text>
<text text-anchor="middle" x="370.38" y="-54.75" font-family="Helvetica,sans-Serif" font-size="10.00">_vtk_kernel</text>
</a>
</g>
</g>
<!-- Node2&#45;&gt;Node5 -->
<g id="edge4_Node000002_Node000005" class="edge">
<title>Node2&#45;&gt;Node5</title>
<g id="a_edge4_Node000002_Node000005"><a xlink:title=" ">
<path fill="none" stroke="#63b8ff" d="M265.83,-91.97C278.72,-88.52 292.49,-84.83 305.64,-81.31"/>
<polygon fill="#63b8ff" stroke="#63b8ff" points="306.28,-84.76 315.04,-78.8 304.47,-78 306.28,-84.76"/>
</a>
</g>
</g>
<!-- Node6&#45;&gt;Node3 -->
<g id="edge7_Node000006_Node000003" class="edge">
<title>Node6&#45;&gt;Node3</title>
<g id="a_edge7_Node000006_Node000003"><a xlink:title=" ">
<path fill="none" stroke="#63b8ff" d="M256.08,-73.89C261.67,-76.61 267.12,-79.73 272,-83.25 292.21,-97.84 287.15,-112.6 308,-126.25 309.81,-127.44 311.7,-128.55 313.65,-129.58"/>
<polygon fill="#63b8ff" stroke="#63b8ff" points="311.84,-132.61 322.4,-133.57 314.75,-126.24 311.84,-132.61"/>
</a>
</g>
</g>
<!-- Node6&#45;&gt;Node4 -->
<g id="edge8_Node000006_Node000004" class="edge">
<title>Node6&#45;&gt;Node4</title>
<g id="a_edge8_Node000006_Node000004"><a xlink:title=" ">
<path fill="none" stroke="#63b8ff" d="M257.82,-73.22C279.4,-79.8 304.55,-87.48 325.5,-93.87"/>
<polygon fill="#63b8ff" stroke="#63b8ff" points="324.32,-97.16 334.9,-96.73 326.36,-90.47 324.32,-97.16"/>
</a>
</g>
</g>
<!-- Node7 -->
<g id="Node000007" class="node">
<title>Node7</title>
<g id="a_Node000007"><a xlink:href="../../d8/d50/_grid___cuda___kernels_8cu_a3e92611df82facd8f87baa8bad362889.html#a3e92611df82facd8f87baa8bad362889" target="_top" xlink:title=" ">
<polygon fill="white" stroke="#666666" points="425.25,-30.5 315.5,-30.5 315.5,0 425.25,0 425.25,-30.5"/>
<text text-anchor="start" x="323.5" y="-17" font-family="Helvetica,sans-Serif" font-size="10.00">calculate_grid_quality</text>
<text text-anchor="middle" x="370.38" y="-5.75" font-family="Helvetica,sans-Serif" font-size="10.00">_kernel</text>
</a>
</g>
</g>
<!-- Node6&#45;&gt;Node7 -->
<g id="edge6_Node000006_Node000007" class="edge">
<title>Node6&#45;&gt;Node7</title>
<g id="a_edge6_Node000006_Node000007"><a xlink:title=" ">
<path fill="none" stroke="#63b8ff" d="M257.82,-45.11C272.37,-41.22 288.54,-36.89 303.95,-32.76"/>
<polygon fill="#63b8ff" stroke="#63b8ff" points="304.79,-36.16 313.55,-30.2 302.98,-29.4 304.79,-36.16"/>
</a>
</g>
</g>
<!-- Node8&#45;&gt;Node3 -->
<g id="edge10_Node000008_Node000003" class="edge">
<title>Node8&#45;&gt;Node3</title>
<g id="a_edge10_Node000008_Node000003"><a xlink:title=" ">
<path fill="none" stroke="#63b8ff" d="M272.23,-147.88C284.46,-147.42 297.23,-146.94 309.35,-146.49"/>
<polygon fill="#63b8ff" stroke="#63b8ff" points="309.34,-149.99 319.21,-146.12 309.08,-143 309.34,-149.99"/>
</a>
</g>
</g>
<!-- Node8&#45;&gt;Node4 -->
<g id="edge11_Node000008_Node000004" class="edge">
<title>Node8&#45;&gt;Node4</title>
<g id="a_edge11_Node000008_Node000004"><a xlink:title=" ">
<path fill="none" stroke="#63b8ff" d="M246.41,-140.17C268.58,-134.23 296.87,-126.66 320.72,-120.28"/>
<polygon fill="#63b8ff" stroke="#63b8ff" points="321.46,-123.7 330.21,-117.73 319.65,-116.94 321.46,-123.7"/>
</a>
</g>
</g>
<!-- Node9 -->
<g id="Node000009" class="node">
<title>Node9</title>
<g id="a_Node000009"><a xlink:href="../../d8/d50/_grid___cuda___kernels_8cu_a04eaa64ce97e5e28dc60bf3e4d5634d3.html#a04eaa64ce97e5e28dc60bf3e4d5634d3" target="_top" xlink:title=" ">
<polygon fill="white" stroke="#666666" points="417.75,-202.5 323,-202.5 323,-172 417.75,-172 417.75,-202.5"/>
<text text-anchor="start" x="331" y="-189" font-family="Helvetica,sans-Serif" font-size="10.00">identify_neighbors</text>
<text text-anchor="middle" x="370.38" y="-177.75" font-family="Helvetica,sans-Serif" font-size="10.00">_kernel</text>
</a>
</g>
</g>
<!-- Node8&#45;&gt;Node9 -->
<g id="edge12_Node000008_Node000009" class="edge">
<title>Node8&#45;&gt;Node9</title>
<g id="a_edge12_Node000008_Node000009"><a xlink:title=" ">
<path fill="none" stroke="#63b8ff" d="M252.64,-160.36C270.81,-164.55 292.14,-169.46 311.55,-173.93"/>
<polygon fill="#63b8ff" stroke="#63b8ff" points="310.72,-177.33 321.25,-176.16 312.29,-170.51 310.72,-177.33"/>
</a>
</g>
</g>
</g>
</svg>
