<?xml version="1.0" encoding="UTF-8" standalone="no"?>
<!DOCTYPE svg PUBLIC "-//W3C//DTD SVG 1.1//EN"
 "http://www.w3.org/Graphics/SVG/1.1/DTD/svg11.dtd">
<!-- Generated by graphviz version 12.2.1 (20241206.2353)
 -->
<!-- Title: GridCudaProcessor::performGeometricComputations Pages: 1 -->
<svg width="516pt" height="138pt"
 viewBox="0.00 0.00 515.75 138.25" xmlns="http://www.w3.org/2000/svg" xmlns:xlink="http://www.w3.org/1999/xlink">
<g id="graph0" class="graph" transform="scale(1 1) rotate(0) translate(4 134.25)">
<title>GridCudaProcessor::performGeometricComputations</title>
<!-- Node1 -->
<g id="Node000001" class="node">
<title>Node1</title>
<g id="a_Node000001"><a xlink:title=" ">
<polygon fill="#999999" stroke="#666666" points="154.75,-79.88 0,-79.88 0,-49.38 154.75,-49.38 154.75,-79.88"/>
<text text-anchor="start" x="8" y="-66.38" font-family="Helvetica,sans-Serif" font-size="10.00">GridCudaProcessor::</text>
<text text-anchor="middle" x="77.38" y="-55.12" font-family="Helvetica,sans-Serif" font-size="10.00">performGeometricComputations</text>
</a>
</g>
</g>
<!-- Node2 -->
<g id="Node000002" class="node">
<title>Node2</title>
<g id="a_Node000002"><a xlink:href="../../db/d6b/_grid___cuda___host___wrappers_8cpp_a3aa43d809b866ca6eaa547aa04515ea2.html#a3aa43d809b866ca6eaa547aa04515ea2" target="_top" xlink:title=" ">
<polygon fill="white" stroke="#666666" points="347,-74.25 190.75,-74.25 190.75,-55 347,-55 347,-74.25"/>
<text text-anchor="middle" x="268.88" y="-60.75" font-family="Helvetica,sans-Serif" font-size="10.00">launch_geometric_computations</text>
</a>
</g>
</g>
<!-- Node1&#45;&gt;Node2 -->
<g id="edge1_Node000001_Node000002" class="edge">
<title>Node1&#45;&gt;Node2</title>
<g id="a_edge1_Node000001_Node000002"><a xlink:title=" ">
<path fill="none" stroke="#63b8ff" d="M155.18,-64.62C163.06,-64.62 171.11,-64.62 179.1,-64.62"/>
<polygon fill="#63b8ff" stroke="#63b8ff" points="178.83,-68.13 188.83,-64.63 178.83,-61.13 178.83,-68.13"/>
</a>
</g>
</g>
<!-- Node3 -->
<g id="Node000003" class="node">
<title>Node3</title>
<g id="a_Node000003"><a xlink:href="../../d0/df8/_cuda___kernel___utilities_8h_a54c372187f54300d55c5415ca8084070.html#a54c372187f54300d55c5415ca8084070" target="_top" xlink:title=" ">
<polygon fill="white" stroke="#666666" points="495,-130.25 395.75,-130.25 395.75,-111 495,-111 495,-130.25"/>
<text text-anchor="middle" x="445.38" y="-116.75" font-family="Helvetica,sans-Serif" font-size="10.00">calculateBlockSize</text>
</a>
</g>
</g>
<!-- Node2&#45;&gt;Node3 -->
<g id="edge2_Node000002_Node000003" class="edge">
<title>Node2&#45;&gt;Node3</title>
<g id="a_edge2_Node000002_Node000003"><a xlink:title=" ">
<path fill="none" stroke="#63b8ff" d="M298.6,-74.62C321.41,-82.47 354.14,-93.55 383,-102.62 388.03,-104.21 393.31,-105.82 398.57,-107.4"/>
<polygon fill="#63b8ff" stroke="#63b8ff" points="397.22,-110.65 407.8,-110.15 399.21,-103.94 397.22,-110.65"/>
</a>
</g>
</g>
<!-- Node4 -->
<g id="Node000004" class="node">
<title>Node4</title>
<g id="a_Node000004"><a xlink:href="../../d9/d04/_grid___cuda___kernels_8h_a6b5498a4244beee490d2294216e77f4f.html#a6b5498a4244beee490d2294216e77f4f" target="_top" xlink:title=" ">
<polygon fill="white" stroke="#666666" points="507.75,-93.25 383,-93.25 383,-74 507.75,-74 507.75,-93.25"/>
<text text-anchor="middle" x="445.38" y="-79.75" font-family="Helvetica,sans-Serif" font-size="10.00">calculateGridSizeForGrid</text>
</a>
</g>
</g>
<!-- Node2&#45;&gt;Node4 -->
<g id="edge3_Node000002_Node000004" class="edge">
<title>Node2&#45;&gt;Node4</title>
<g id="a_edge3_Node000002_Node000004"><a xlink:title=" ">
<path fill="none" stroke="#63b8ff" d="M347.43,-73.07C355.32,-73.93 363.32,-74.8 371.16,-75.65"/>
<polygon fill="#63b8ff" stroke="#63b8ff" points="370.68,-79.12 381,-76.72 371.44,-72.16 370.68,-79.12"/>
</a>
</g>
</g>
<!-- Node5 -->
<g id="Node000005" class="node">
<title>Node5</title>
<g id="a_Node000005"><a xlink:href="../../d8/d50/_grid___cuda___kernels_8cu_ac9b8d67625145aeb1956d36f9d017ae1.html#ac9b8d67625145aeb1956d36f9d017ae1" target="_top" xlink:title=" ">
<polygon fill="white" stroke="#666666" points="507.75,-56.25 383,-56.25 383,-37 507.75,-37 507.75,-56.25"/>
<text text-anchor="middle" x="445.38" y="-42.75" font-family="Helvetica,sans-Serif" font-size="10.00">cross_product_3d_kernel</text>
</a>
</g>
</g>
<!-- Node2&#45;&gt;Node5 -->
<g id="edge4_Node000002_Node000005" class="edge">
<title>Node2&#45;&gt;Node5</title>
<g id="a_edge4_Node000002_Node000005"><a xlink:title=" ">
<path fill="none" stroke="#63b8ff" d="M347.43,-56.63C355.32,-55.81 363.32,-54.99 371.16,-54.18"/>
<polygon fill="#63b8ff" stroke="#63b8ff" points="371.41,-57.67 381,-53.16 370.69,-50.71 371.41,-57.67"/>
</a>
</g>
</g>
<!-- Node6 -->
<g id="Node000006" class="node">
<title>Node6</title>
<g id="a_Node000006"><a xlink:href="../../d8/d50/_grid___cuda___kernels_8cu_a13e920ccde40e000c4c500be95bd3966.html#a13e920ccde40e000c4c500be95bd3966" target="_top" xlink:title=" ">
<polygon fill="white" stroke="#666666" points="502.5,-19.25 388.25,-19.25 388.25,0 502.5,0 502.5,-19.25"/>
<text text-anchor="middle" x="445.38" y="-5.75" font-family="Helvetica,sans-Serif" font-size="10.00">dot_product_3d_kernel</text>
</a>
</g>
</g>
<!-- Node2&#45;&gt;Node6 -->
<g id="edge5_Node000002_Node000006" class="edge">
<title>Node2&#45;&gt;Node6</title>
<g id="a_edge5_Node000002_Node000006"><a xlink:title=" ">
<path fill="none" stroke="#63b8ff" d="M299.57,-54.64C322.34,-47.04 354.58,-36.44 383,-27.62 388.04,-26.06 393.32,-24.46 398.58,-22.89"/>
<polygon fill="#63b8ff" stroke="#63b8ff" points="399.22,-26.35 407.81,-20.15 397.23,-19.64 399.22,-26.35"/>
</a>
</g>
</g>
</g>
</svg>
