<?xml version="1.0" encoding="UTF-8" standalone="no"?>
<!DOCTYPE svg PUBLIC "-//W3C//DTD SVG 1.1//EN"
 "http://www.w3.org/Graphics/SVG/1.1/DTD/svg11.dtd">
<!-- Generated by graphviz version 12.2.1 (20241206.2353)
 -->
<!-- Title: GridCudaProcessor::applyGridTransformations Pages: 1 -->
<svg width="536pt" height="175pt"
 viewBox="0.00 0.00 535.55 175.25" xmlns="http://www.w3.org/2000/svg" xmlns:xlink="http://www.w3.org/1999/xlink">
<g id="graph0" class="graph" transform="scale(1 1) rotate(0) translate(4 171.25)">
<title>GridCudaProcessor::applyGridTransformations</title>
<!-- Node1 -->
<g id="Node000001" class="node">
<title>Node1</title>
<g id="a_Node000001"><a xlink:title=" ">
<polygon fill="#999999" stroke="#666666" points="127.75,-98.88 0,-98.88 0,-68.38 127.75,-68.38 127.75,-98.88"/>
<text text-anchor="start" x="8" y="-85.38" font-family="Helvetica,sans-Serif" font-size="10.00">GridCudaProcessor::</text>
<text text-anchor="middle" x="63.87" y="-74.12" font-family="Helvetica,sans-Serif" font-size="10.00">applyGridTransformations</text>
</a>
</g>
</g>
<!-- Node2 -->
<g id="Node000002" class="node">
<title>Node2</title>
<g id="a_Node000002"><a xlink:href="../../db/d6b/_grid___cuda___host___wrappers_8cpp_ad537b1647f86d382379517dd9b7cad03.html#ad537b1647f86d382379517dd9b7cad03" target="_top" xlink:title=" ">
<polygon fill="white" stroke="#666666" points="302,-93.25 163.75,-93.25 163.75,-74 302,-74 302,-93.25"/>
<text text-anchor="middle" x="232.87" y="-79.75" font-family="Helvetica,sans-Serif" font-size="10.00">launch_grid_transformations</text>
</a>
</g>
</g>
<!-- Node1&#45;&gt;Node2 -->
<g id="edge1_Node000001_Node000002" class="edge">
<title>Node1&#45;&gt;Node2</title>
<g id="a_edge1_Node000001_Node000002"><a xlink:title=" ">
<path fill="none" stroke="#63b8ff" d="M128.01,-83.62C135.86,-83.62 143.96,-83.62 152.02,-83.62"/>
<polygon fill="#63b8ff" stroke="#63b8ff" points="151.84,-87.13 161.84,-83.63 151.84,-80.13 151.84,-87.13"/>
</a>
</g>
</g>
<!-- Node3 -->
<g id="Node000003" class="node">
<title>Node3</title>
<g id="a_Node000003"><a xlink:href="../../d0/df8/_cuda___kernel___utilities_8h_a54c372187f54300d55c5415ca8084070.html#a54c372187f54300d55c5415ca8084070" target="_top" xlink:title=" ">
<polygon fill="white" stroke="#666666" points="450,-167.25 350.75,-167.25 350.75,-148 450,-148 450,-167.25"/>
<text text-anchor="middle" x="400.37" y="-153.75" font-family="Helvetica,sans-Serif" font-size="10.00">calculateBlockSize</text>
</a>
</g>
</g>
<!-- Node2&#45;&gt;Node3 -->
<g id="edge2_Node000002_Node000003" class="edge">
<title>Node2&#45;&gt;Node3</title>
<g id="a_edge2_Node000002_Node000003"><a xlink:title=" ">
<path fill="none" stroke="#63b8ff" d="M249.95,-93.64C269.98,-105.79 305.53,-126.3 338,-139.62 341.82,-141.19 345.83,-142.68 349.88,-144.09"/>
<polygon fill="#63b8ff" stroke="#63b8ff" points="348.61,-147.36 359.21,-147.13 350.78,-140.7 348.61,-147.36"/>
</a>
</g>
</g>
<!-- Node4 -->
<g id="Node000004" class="node">
<title>Node4</title>
<g id="a_Node000004"><a xlink:href="../../d9/d04/_grid___cuda___kernels_8h_a6b5498a4244beee490d2294216e77f4f.html#a6b5498a4244beee490d2294216e77f4f" target="_top" xlink:title=" ">
<polygon fill="white" stroke="#666666" points="462.75,-130.25 338,-130.25 338,-111 462.75,-111 462.75,-130.25"/>
<text text-anchor="middle" x="400.37" y="-116.75" font-family="Helvetica,sans-Serif" font-size="10.00">calculateGridSizeForGrid</text>
</a>
</g>
</g>
<!-- Node2&#45;&gt;Node4 -->
<g id="edge3_Node000002_Node000004" class="edge">
<title>Node2&#45;&gt;Node4</title>
<g id="a_edge3_Node000002_Node000004"><a xlink:title=" ">
<path fill="none" stroke="#63b8ff" d="M279.1,-93.74C298.89,-98.16 322.32,-103.4 343.22,-108.07"/>
<polygon fill="#63b8ff" stroke="#63b8ff" points="342.21,-111.43 352.73,-110.2 343.73,-104.6 342.21,-111.43"/>
</a>
</g>
</g>
<!-- Node5 -->
<g id="Node000005" class="node">
<title>Node5</title>
<g id="a_Node000005"><a xlink:href="../../d8/d50/_grid___cuda___kernels_8cu_a1d78409b1a4fd49458856a77a0b72be2.html#a1d78409b1a4fd49458856a77a0b72be2" target="_top" xlink:title=" ">
<polygon fill="white" stroke="#666666" points="447,-93.25 353.75,-93.25 353.75,-74 447,-74 447,-93.25"/>
<text text-anchor="middle" x="400.37" y="-79.75" font-family="Helvetica,sans-Serif" font-size="10.00">rotate_grid_kernel</text>
</a>
</g>
</g>
<!-- Node2&#45;&gt;Node5 -->
<g id="edge4_Node000002_Node000005" class="edge">
<title>Node2&#45;&gt;Node5</title>
<g id="a_edge4_Node000002_Node000005"><a xlink:title=" ">
<path fill="none" stroke="#63b8ff" d="M302.15,-83.62C315.37,-83.62 329.11,-83.62 341.94,-83.62"/>
<polygon fill="#63b8ff" stroke="#63b8ff" points="341.92,-87.13 351.92,-83.63 341.92,-80.13 341.92,-87.13"/>
</a>
</g>
</g>
<!-- Node8 -->
<g id="Node000008" class="node">
<title>Node8</title>
<g id="a_Node000008"><a xlink:href="../../d8/d50/_grid___cuda___kernels_8cu_a9de70cf45b09526244fe4a294f207682.html#a9de70cf45b09526244fe4a294f207682" target="_top" xlink:title=" ">
<polygon fill="white" stroke="#666666" points="446.25,-56.25 354.5,-56.25 354.5,-37 446.25,-37 446.25,-56.25"/>
<text text-anchor="middle" x="400.37" y="-42.75" font-family="Helvetica,sans-Serif" font-size="10.00">scale_grid_kernel</text>
</a>
</g>
</g>
<!-- Node2&#45;&gt;Node8 -->
<g id="edge7_Node000002_Node000008" class="edge">
<title>Node2&#45;&gt;Node8</title>
<g id="a_edge7_Node000002_Node000008"><a xlink:title=" ">
<path fill="none" stroke="#63b8ff" d="M279.1,-73.51C298.89,-69.09 322.32,-63.85 343.22,-59.18"/>
<polygon fill="#63b8ff" stroke="#63b8ff" points="343.73,-62.65 352.73,-57.05 342.21,-55.82 343.73,-62.65"/>
</a>
</g>
</g>
<!-- Node9 -->
<g id="Node000009" class="node">
<title>Node9</title>
<g id="a_Node000009"><a xlink:href="../../d8/d50/_grid___cuda___kernels_8cu_a8b08583fb59c7ba500c99bba21ca6f7d.html#a8b08583fb59c7ba500c99bba21ca6f7d" target="_top" xlink:title=" ">
<polygon fill="white" stroke="#666666" points="453.37,-19.25 347.37,-19.25 347.37,0 453.37,0 453.37,-19.25"/>
<text text-anchor="middle" x="400.37" y="-5.75" font-family="Helvetica,sans-Serif" font-size="10.00">translate_grid_kernel</text>
</a>
</g>
</g>
<!-- Node2&#45;&gt;Node9 -->
<g id="edge8_Node000002_Node000009" class="edge">
<title>Node2&#45;&gt;Node9</title>
<g id="a_edge8_Node000002_Node000009"><a xlink:title=" ">
<path fill="none" stroke="#63b8ff" d="M249.95,-73.61C269.98,-61.46 305.53,-40.95 338,-27.62 341.82,-26.06 345.83,-24.57 349.88,-23.16"/>
<polygon fill="#63b8ff" stroke="#63b8ff" points="350.78,-26.55 359.21,-20.12 348.61,-19.89 350.78,-26.55"/>
</a>
</g>
</g>
<!-- Node6 -->
<g id="Node000006" class="node">
<title>Node6</title>
<g id="a_Node000006"><a xlink:href="../../d3/d82/_c_type___elliptic___grid_8cpp_a9d9acf133a5b966f0cbd16a2c57a7d79.html#a9d9acf133a5b966f0cbd16a2c57a7d79" target="_top" xlink:title=" ">
<polygon fill="white" stroke="#666666" points="527.55,-111.25 498.75,-111.25 498.75,-92 527.55,-92 527.55,-111.25"/>
<text text-anchor="middle" x="513.15" y="-97.75" font-family="Helvetica,sans-Serif" font-size="10.00">x</text>
</a>
</g>
</g>
<!-- Node5&#45;&gt;Node6 -->
<g id="edge5_Node000005_Node000006" class="edge">
<title>Node5&#45;&gt;Node6</title>
<g id="a_edge5_Node000005_Node000006"><a xlink:title=" ">
<path fill="none" stroke="#63b8ff" d="M447.39,-91.1C461.16,-93.34 475.72,-95.7 487.54,-97.63"/>
<polygon fill="#63b8ff" stroke="#63b8ff" points="486.79,-101.05 497.22,-99.2 487.91,-94.14 486.79,-101.05"/>
</a>
</g>
</g>
<!-- Node7 -->
<g id="Node000007" class="node">
<title>Node7</title>
<g id="a_Node000007"><a xlink:href="../../d3/d82/_c_type___elliptic___grid_8cpp_aae4b761a64c952b4c008655d1dc59a12.html#aae4b761a64c952b4c008655d1dc59a12" target="_top" xlink:title=" ">
<polygon fill="white" stroke="#666666" points="527.55,-74.25 498.75,-74.25 498.75,-55 527.55,-55 527.55,-74.25"/>
<text text-anchor="middle" x="513.15" y="-60.75" font-family="Helvetica,sans-Serif" font-size="10.00">y</text>
</a>
</g>
</g>
<!-- Node5&#45;&gt;Node7 -->
<g id="edge6_Node000005_Node000007" class="edge">
<title>Node5&#45;&gt;Node7</title>
<g id="a_edge6_Node000005_Node000007"><a xlink:title=" ">
<path fill="none" stroke="#63b8ff" d="M447.39,-75.73C461.16,-73.37 475.72,-70.87 487.54,-68.85"/>
<polygon fill="#63b8ff" stroke="#63b8ff" points="487.96,-72.33 497.22,-67.19 486.78,-65.43 487.96,-72.33"/>
</a>
</g>
</g>
</g>
</svg>
