<?xml version="1.0" encoding="UTF-8" standalone="no"?>
<!DOCTYPE svg PUBLIC "-//W3C//DTD SVG 1.1//EN"
 "http://www.w3.org/Graphics/SVG/1.1/DTD/svg11.dtd">
<!-- Generated by graphviz version 12.2.1 (20241206.2353)
 -->
<!-- Title: Ramp_15_Degree Pages: 1 -->
<svg width="664pt" height="386pt"
 viewBox="0.00 0.00 664.45 385.88" xmlns="http://www.w3.org/2000/svg" xmlns:xlink="http://www.w3.org/1999/xlink">
<g id="graph0" class="graph" transform="scale(1 1) rotate(0) translate(4 381.88)">
<title>Ramp_15_Degree</title>
<!-- Node1 -->
<g id="Node000001" class="node">
<title>Node1</title>
<g id="a_Node000001"><a xlink:title=" ">
<polygon fill="#999999" stroke="#666666" points="94.75,-187.25 0,-187.25 0,-168 94.75,-168 94.75,-187.25"/>
<text text-anchor="middle" x="47.38" y="-173.75" font-family="Helvetica,sans-Serif" font-size="10.00">Ramp_15_Degree</text>
</a>
</g>
</g>
<!-- Node2 -->
<g id="Node000002" class="node">
<title>Node2</title>
<g id="a_Node000002"><a xlink:href="../../df/d43/_basic___functions_8cpp_a9ca12fb8f920cab38313323cf0c4bf53.html#a9ca12fb8f920cab38313323cf0c4bf53" target="_top" xlink:title=" ">
<polygon fill="white" stroke="#666666" points="256.25,-377.88 130.75,-377.88 130.75,-347.38 256.25,-347.38 256.25,-377.88"/>
<text text-anchor="start" x="138.75" y="-364.38" font-family="Helvetica,sans-Serif" font-size="10.00">Calculate_Computational</text>
<text text-anchor="middle" x="193.5" y="-353.12" font-family="Helvetica,sans-Serif" font-size="10.00">_Variables</text>
</a>
</g>
</g>
<!-- Node1&#45;&gt;Node2 -->
<g id="edge1_Node000001_Node000002" class="edge">
<title>Node1&#45;&gt;Node2</title>
<g id="a_edge1_Node000001_Node000002"><a xlink:title=" ">
<path fill="none" stroke="#63b8ff" d="M50.81,-187.37C58.14,-214.81 82.53,-293.59 130.75,-337.62 131.98,-338.75 133.26,-339.82 134.59,-340.85"/>
<polygon fill="#63b8ff" stroke="#63b8ff" points="132.4,-343.6 142.68,-346.17 136.25,-337.75 132.4,-343.6"/>
</a>
</g>
</g>
<!-- Node3 -->
<g id="Node000003" class="node">
<title>Node3</title>
<g id="a_Node000003"><a xlink:href="../../df/d43/_basic___functions_8cpp_a1c199e756f8458978961b4d9ab4cbe63.html#a1c199e756f8458978961b4d9ab4cbe63" target="_top" xlink:title=" ">
<polygon fill="white" stroke="#666666" points="243.88,-328.88 143.12,-328.88 143.12,-298.38 243.88,-298.38 243.88,-328.88"/>
<text text-anchor="start" x="151.12" y="-315.38" font-family="Helvetica,sans-Serif" font-size="10.00">Calculate_Primitive</text>
<text text-anchor="middle" x="193.5" y="-304.12" font-family="Helvetica,sans-Serif" font-size="10.00">_Variables</text>
</a>
</g>
</g>
<!-- Node1&#45;&gt;Node3 -->
<g id="edge2_Node000001_Node000003" class="edge">
<title>Node1&#45;&gt;Node3</title>
<g id="a_edge2_Node000001_Node000003"><a xlink:title=" ">
<path fill="none" stroke="#63b8ff" d="M53.14,-187.47C63.99,-208.94 92.62,-260.42 130.75,-289.62 131.91,-290.51 133.1,-291.37 134.32,-292.19"/>
<polygon fill="#63b8ff" stroke="#63b8ff" points="132.48,-295.17 142.87,-297.24 136.03,-289.14 132.48,-295.17"/>
</a>
</g>
</g>
<!-- Node5 -->
<g id="Node000005" class="node">
<title>Node5</title>
<g id="a_Node000005"><a xlink:href="../../da/d3e/output__files_8cpp_ac7e61b153a6d26ffbefde7b5b86d55a7.html#ac7e61b153a6d26ffbefde7b5b86d55a7" target="_top" xlink:title=" ">
<polygon fill="white" stroke="#666666" points="237.12,-280.25 149.88,-280.25 149.88,-261 237.12,-261 237.12,-280.25"/>
<text text-anchor="middle" x="193.5" y="-266.75" font-family="Helvetica,sans-Serif" font-size="10.00">Directory_Name</text>
</a>
</g>
</g>
<!-- Node1&#45;&gt;Node5 -->
<g id="edge4_Node000001_Node000005" class="edge">
<title>Node1&#45;&gt;Node5</title>
<g id="a_edge4_Node000001_Node000005"><a xlink:title=" ">
<path fill="none" stroke="#63b8ff" d="M56.67,-187.69C70.42,-203.75 99.54,-235.12 130.75,-252.62 133.4,-254.11 136.18,-255.48 139.04,-256.75"/>
<polygon fill="#63b8ff" stroke="#63b8ff" points="137.62,-259.95 148.2,-260.34 140.17,-253.43 137.62,-259.95"/>
</a>
</g>
</g>
<!-- Node6 -->
<g id="Node000006" class="node">
<title>Node6</title>
<g id="a_Node000006"><a xlink:href="../../da/d3e/output__files_8cpp_a2a6bf38afe949ce5a6cd1b3641c49c25.html#a2a6bf38afe949ce5a6cd1b3641c49c25" target="_top" xlink:title=" ">
<polygon fill="white" stroke="#666666" points="225.12,-243.25 161.88,-243.25 161.88,-224 225.12,-224 225.12,-243.25"/>
<text text-anchor="middle" x="193.5" y="-229.75" font-family="Helvetica,sans-Serif" font-size="10.00">File_Name</text>
</a>
</g>
</g>
<!-- Node1&#45;&gt;Node6 -->
<g id="edge5_Node000001_Node000006" class="edge">
<title>Node1&#45;&gt;Node6</title>
<g id="a_edge5_Node000001_Node000006"><a xlink:title=" ">
<path fill="none" stroke="#63b8ff" d="M68,-187.68C84.47,-195.88 108.77,-207.4 130.75,-215.62 137.05,-217.98 143.8,-220.22 150.44,-222.28"/>
<polygon fill="#63b8ff" stroke="#63b8ff" points="149.39,-225.62 159.97,-225.11 151.38,-218.91 149.39,-225.62"/>
</a>
</g>
</g>
<!-- Node7 -->
<g id="Node000007" class="node">
<title>Node7</title>
<g id="a_Node000007"><a xlink:href="../../d8/d40/_grid___computations_8cpp_a831dcf7cbf36ddf425ce0753495ba3c6.html#a831dcf7cbf36ddf425ce0753495ba3c6" target="_top" xlink:title=" ">
<polygon fill="white" stroke="#666666" points="226.62,-206.25 160.38,-206.25 160.38,-187 226.62,-187 226.62,-206.25"/>
<text text-anchor="middle" x="193.5" y="-192.75" font-family="Helvetica,sans-Serif" font-size="10.00">Form_Cells</text>
</a>
</g>
</g>
<!-- Node1&#45;&gt;Node7 -->
<g id="edge6_Node000001_Node000007" class="edge">
<title>Node1&#45;&gt;Node7</title>
<g id="a_edge6_Node000001_Node000007"><a xlink:title=" ">
<path fill="none" stroke="#63b8ff" d="M95.17,-183.79C112.4,-186.07 131.84,-188.63 148.78,-190.86"/>
<polygon fill="#63b8ff" stroke="#63b8ff" points="148.19,-194.31 158.56,-192.15 149.1,-187.37 148.19,-194.31"/>
</a>
</g>
</g>
<!-- Node19 -->
<g id="Node000019" class="node">
<title>Node19</title>
<g id="a_Node000019"><a xlink:href="../../d7/d6d/_initialize_8cpp_ad59ff1b23c73f6427e8179ce53ee1f59.html#ad59ff1b23c73f6427e8179ce53ee1f59" target="_top" xlink:title=" ">
<polygon fill="white" stroke="#666666" points="412.12,-119.88 293.38,-119.88 293.38,-89.38 412.12,-89.38 412.12,-119.88"/>
<text text-anchor="start" x="301.38" y="-106.38" font-family="Helvetica,sans-Serif" font-size="10.00">Identify_Wall_Boundary</text>
<text text-anchor="middle" x="352.75" y="-95.12" font-family="Helvetica,sans-Serif" font-size="10.00">_Faces</text>
</a>
</g>
</g>
<!-- Node1&#45;&gt;Node19 -->
<g id="edge21_Node000001_Node000019" class="edge">
<title>Node1&#45;&gt;Node19</title>
<g id="a_edge21_Node000001_Node000019"><a xlink:title=" ">
<path fill="none" stroke="#63b8ff" d="M95.12,-171.41C137.59,-165.21 201.74,-154.48 256.25,-139.62 271.74,-135.4 288.28,-129.77 303.16,-124.25"/>
<polygon fill="#63b8ff" stroke="#63b8ff" points="304.13,-127.62 312.25,-120.81 301.66,-121.07 304.13,-127.62"/>
</a>
</g>
</g>
<!-- Node20 -->
<g id="Node000020" class="node">
<title>Node20</title>
<g id="a_Node000020"><a xlink:href="../../d7/d6d/_initialize_8cpp_acc3c3292e370176c51c654a01e651e24.html#acc3c3292e370176c51c654a01e651e24" target="_top" xlink:title=" ">
<polygon fill="white" stroke="#666666" points="219.5,-130.25 167.5,-130.25 167.5,-111 219.5,-111 219.5,-130.25"/>
<text text-anchor="middle" x="193.5" y="-116.75" font-family="Helvetica,sans-Serif" font-size="10.00">Initialize</text>
</a>
</g>
</g>
<!-- Node1&#45;&gt;Node20 -->
<g id="edge22_Node000001_Node000020" class="edge">
<title>Node1&#45;&gt;Node20</title>
<g id="a_edge22_Node000001_Node000020"><a xlink:title=" ">
<path fill="none" stroke="#63b8ff" d="M73.22,-167.59C89.55,-161.02 111.4,-152.26 130.75,-144.62 139.08,-141.34 148.06,-137.83 156.52,-134.54"/>
<polygon fill="#63b8ff" stroke="#63b8ff" points="157.77,-137.8 165.83,-130.92 155.24,-131.28 157.77,-137.8"/>
</a>
</g>
</g>
<!-- Node23 -->
<g id="Node000023" class="node">
<title>Node23</title>
<g id="a_Node000023"><a xlink:href="../../df/d43/_basic___functions_8cpp_ace6d77409787d1bc742eacb24948dfd1.html#ace6d77409787d1bc742eacb24948dfd1" target="_top" xlink:title=" ">
<polygon fill="white" stroke="#666666" points="241.25,-93.25 145.75,-93.25 145.75,-74 241.25,-74 241.25,-93.25"/>
<text text-anchor="middle" x="193.5" y="-79.75" font-family="Helvetica,sans-Serif" font-size="10.00">Reference_Values</text>
</a>
</g>
</g>
<!-- Node1&#45;&gt;Node23 -->
<g id="edge26_Node000001_Node000023" class="edge">
<title>Node1&#45;&gt;Node23</title>
<g id="a_edge26_Node000001_Node000023"><a xlink:title=" ">
<path fill="none" stroke="#63b8ff" d="M56.42,-167.68C70.03,-151.48 99.24,-119.43 130.75,-101.62 133.09,-100.3 135.53,-99.07 138.04,-97.92"/>
<polygon fill="#63b8ff" stroke="#63b8ff" points="139.24,-101.21 147.21,-94.23 136.63,-94.72 139.24,-101.21"/>
</a>
</g>
</g>
<!-- Node24 -->
<g id="Node000024" class="node">
<title>Node24</title>
<g id="a_Node000024"><a xlink:href="../../d8/d40/_grid___computations_8cpp_ac097b2ea0ec60a400fde4f705d759388.html#ac097b2ea0ec60a400fde4f705d759388" target="_top" xlink:title=" ">
<polygon fill="white" stroke="#666666" points="234.88,-56.25 152.12,-56.25 152.12,-37 234.88,-37 234.88,-56.25"/>
<text text-anchor="middle" x="193.5" y="-42.75" font-family="Helvetica,sans-Serif" font-size="10.00">Write_Cell_Info</text>
</a>
</g>
</g>
<!-- Node1&#45;&gt;Node24 -->
<g id="edge27_Node000001_Node000024" class="edge">
<title>Node1&#45;&gt;Node24</title>
<g id="a_edge27_Node000001_Node000024"><a xlink:title=" ">
<path fill="none" stroke="#63b8ff" d="M52.77,-167.77C63.09,-145.8 91.02,-92.53 130.75,-64.62 134,-62.34 137.54,-60.35 141.23,-58.6"/>
<polygon fill="#63b8ff" stroke="#63b8ff" points="142.5,-61.86 150.48,-54.88 139.89,-55.36 142.5,-61.86"/>
</a>
</g>
</g>
<!-- Node25 -->
<g id="Node000025" class="node">
<title>Node25</title>
<g id="a_Node000025"><a xlink:href="../../da/d3e/output__files_8cpp_ac49d22b87cab7fa46da37546b7af78b0.html#ac49d22b87cab7fa46da37546b7af78b0" target="_top" xlink:title=" ">
<polygon fill="white" stroke="#666666" points="233,-19.25 154,-19.25 154,0 233,0 233,-19.25"/>
<text text-anchor="middle" x="193.5" y="-5.75" font-family="Helvetica,sans-Serif" font-size="10.00">Write_Solution</text>
</a>
</g>
</g>
<!-- Node1&#45;&gt;Node25 -->
<g id="edge28_Node000001_Node000025" class="edge">
<title>Node1&#45;&gt;Node25</title>
<g id="a_edge28_Node000001_Node000025"><a xlink:title=" ">
<path fill="none" stroke="#63b8ff" d="M50.89,-167.86C58.29,-141.15 82.55,-66.3 130.75,-27.62 134.47,-24.64 138.68,-22.15 143.09,-20.07"/>
<polygon fill="#63b8ff" stroke="#63b8ff" points="144.22,-23.39 152.25,-16.48 141.67,-16.87 144.22,-23.39"/>
</a>
</g>
</g>
<!-- Node4 -->
<g id="Node000004" class="node">
<title>Node4</title>
<g id="a_Node000004"><a xlink:href="../../df/d43/_basic___functions_8cpp_ae9dc3225863fb110155bb3e9dea4e4d3.html#ae9dc3225863fb110155bb3e9dea4e4d3" target="_top" xlink:title=" ">
<polygon fill="white" stroke="#666666" points="381,-355.25 324.5,-355.25 324.5,-336 381,-336 381,-355.25"/>
<text text-anchor="middle" x="352.75" y="-341.75" font-family="Helvetica,sans-Serif" font-size="10.00">Viscosity</text>
</a>
</g>
</g>
<!-- Node3&#45;&gt;Node4 -->
<g id="edge3_Node000003_Node000004" class="edge">
<title>Node3&#45;&gt;Node4</title>
<g id="a_edge3_Node000003_Node000004"><a xlink:title=" ">
<path fill="none" stroke="#63b8ff" d="M244.25,-323.75C266.47,-328.27 292.26,-333.52 313.01,-337.74"/>
<polygon fill="#63b8ff" stroke="#63b8ff" points="312.29,-341.17 322.79,-339.73 313.68,-334.31 312.29,-341.17"/>
</a>
</g>
</g>
<!-- Node8 -->
<g id="Node000008" class="node">
<title>Node8</title>
<g id="a_Node000008"><a xlink:href="../../d8/d40/_grid___computations_8cpp_a7e6f11445e90cefdcb91f369846ec691.html#a7e6f11445e90cefdcb91f369846ec691" target="_top" xlink:title=" ">
<polygon fill="white" stroke="#666666" points="409.88,-168.88 295.62,-168.88 295.62,-138.38 409.88,-138.38 409.88,-168.88"/>
<text text-anchor="start" x="303.62" y="-155.38" font-family="Helvetica,sans-Serif" font-size="10.00">Calculate_Cell_Center</text>
<text text-anchor="middle" x="352.75" y="-144.12" font-family="Helvetica,sans-Serif" font-size="10.00">_Distances</text>
</a>
</g>
</g>
<!-- Node7&#45;&gt;Node8 -->
<g id="edge7_Node000007_Node000008" class="edge">
<title>Node7&#45;&gt;Node8</title>
<g id="a_edge7_Node000007_Node000008"><a xlink:title=" ">
<path fill="none" stroke="#63b8ff" d="M227.08,-187.72C243.71,-183.17 264.57,-177.47 284.44,-172.03"/>
<polygon fill="#63b8ff" stroke="#63b8ff" points="285.17,-175.46 293.89,-169.45 283.32,-168.71 285.17,-175.46"/>
</a>
</g>
</g>
<!-- Node11 -->
<g id="Node000011" class="node">
<title>Node11</title>
<g id="a_Node000011"><a xlink:href="../../d8/d40/_grid___computations_8cpp_a209db16fba143a9833c8d4021624afb0.html#a209db16fba143a9833c8d4021624afb0" target="_top" xlink:title=" ">
<polygon fill="white" stroke="#666666" points="551.12,-206.25 478.88,-206.25 478.88,-187 551.12,-187 551.12,-206.25"/>
<text text-anchor="middle" x="515" y="-192.75" font-family="Helvetica,sans-Serif" font-size="10.00">Check_Cells</text>
</a>
</g>
</g>
<!-- Node7&#45;&gt;Node11 -->
<g id="edge11_Node000007_Node000011" class="edge">
<title>Node7&#45;&gt;Node11</title>
<g id="a_edge11_Node000007_Node000011"><a xlink:title=" ">
<path fill="none" stroke="#63b8ff" d="M226.89,-196.62C283.76,-196.62 401.74,-196.62 467.38,-196.62"/>
<polygon fill="#63b8ff" stroke="#63b8ff" points="467.1,-200.13 477.1,-196.63 467.1,-193.13 467.1,-200.13"/>
</a>
</g>
</g>
<!-- Node12 -->
<g id="Node000012" class="node">
<title>Node12</title>
<g id="a_Node000012"><a xlink:href="../../df/daf/_co___volume___grid___computations_8cpp_a097cceef075e862683dd9f6e95d091d4.html#a097cceef075e862683dd9f6e95d091d4" target="_top" xlink:title=" ">
<polygon fill="white" stroke="#666666" points="412.88,-318.25 292.62,-318.25 292.62,-299 412.88,-299 412.88,-318.25"/>
<text text-anchor="middle" x="352.75" y="-304.75" font-family="Helvetica,sans-Serif" font-size="10.00">Construct_Co_Volumes</text>
</a>
</g>
</g>
<!-- Node7&#45;&gt;Node12 -->
<g id="edge12_Node000007_Node000012" class="edge">
<title>Node7&#45;&gt;Node12</title>
<g id="a_edge12_Node000007_Node000012"><a xlink:title=" ">
<path fill="none" stroke="#63b8ff" d="M226.83,-200.7C237.15,-203.31 248.01,-207.6 256.25,-214.62 284.69,-238.87 263.93,-266.23 292.25,-290.62 293.17,-291.42 294.12,-292.17 295.11,-292.9"/>
<polygon fill="#63b8ff" stroke="#63b8ff" points="292.93,-295.68 303.32,-297.78 296.51,-289.66 292.93,-295.68"/>
</a>
</g>
</g>
<!-- Node15 -->
<g id="Node000015" class="node">
<title>Node15</title>
<g id="a_Node000015"><a xlink:href="../../d8/d40/_grid___computations_8cpp_ae5f2b7a0fdbc48f8fdf897222b7ded04.html#ae5f2b7a0fdbc48f8fdf897222b7ded04" target="_top" xlink:title=" ">
<polygon fill="white" stroke="#666666" points="411.75,-281.25 293.75,-281.25 293.75,-262 411.75,-262 411.75,-281.25"/>
<text text-anchor="middle" x="352.75" y="-267.75" font-family="Helvetica,sans-Serif" font-size="10.00">Construct_Ghost_Cells</text>
</a>
</g>
</g>
<!-- Node7&#45;&gt;Node15 -->
<g id="edge15_Node000007_Node000015" class="edge">
<title>Node7&#45;&gt;Node15</title>
<g id="a_edge15_Node000007_Node000015"><a xlink:title=" ">
<path fill="none" stroke="#63b8ff" d="M226.98,-202.57C236.86,-205.29 247.42,-209.16 256.25,-214.62 276.3,-227.05 272.26,-241.1 292.25,-253.62 294.14,-254.81 296.11,-255.91 298.13,-256.95"/>
<polygon fill="#63b8ff" stroke="#63b8ff" points="296.67,-260.13 307.23,-260.98 299.5,-253.73 296.67,-260.13"/>
</a>
</g>
</g>
<!-- Node17 -->
<g id="Node000017" class="node">
<title>Node17</title>
<g id="a_Node000017"><a xlink:href="../../d8/d40/_grid___computations_8cpp_a663d4b3ae06e638c2f2e82ad437e831e.html#a663d4b3ae06e638c2f2e82ad437e831e" target="_top" xlink:title="Reads the input grid file and constructs physical cells, evaluates face areas, normals,...">
<polygon fill="white" stroke="#666666" points="384,-244.25 321.5,-244.25 321.5,-225 384,-225 384,-244.25"/>
<text text-anchor="middle" x="352.75" y="-230.75" font-family="Helvetica,sans-Serif" font-size="10.00">Read_Grid</text>
</a>
</g>
</g>
<!-- Node7&#45;&gt;Node17 -->
<g id="edge17_Node000007_Node000017" class="edge">
<title>Node7&#45;&gt;Node17</title>
<g id="a_edge17_Node000007_Node000017"><a xlink:title=" ">
<path fill="none" stroke="#63b8ff" d="M227.08,-204.5C251.14,-210.31 284.08,-218.27 310.06,-224.55"/>
<polygon fill="#63b8ff" stroke="#63b8ff" points="309.07,-227.91 319.61,-226.86 310.71,-221.11 309.07,-227.91"/>
</a>
</g>
</g>
<!-- Node9 -->
<g id="Node000009" class="node">
<title>Node9</title>
<g id="a_Node000009"><a xlink:href="../../d8/d40/_grid___computations_8cpp_a1f273579608200866e02e34f16a3eb6b.html#a1f273579608200866e02e34f16a3eb6b" target="_top" xlink:title=" ">
<polygon fill="white" stroke="#666666" points="580.75,-163.25 449.25,-163.25 449.25,-144 580.75,-144 580.75,-163.25"/>
<text text-anchor="middle" x="515" y="-149.75" font-family="Helvetica,sans-Serif" font-size="10.00">Distance_Between_Points</text>
</a>
</g>
</g>
<!-- Node8&#45;&gt;Node9 -->
<g id="edge8_Node000008_Node000009" class="edge">
<title>Node8&#45;&gt;Node9</title>
<g id="a_edge8_Node000008_Node000009"><a xlink:title=" ">
<path fill="none" stroke="#63b8ff" d="M410.25,-153.62C419.15,-153.62 428.49,-153.62 437.75,-153.62"/>
<polygon fill="#63b8ff" stroke="#63b8ff" points="437.47,-157.13 447.47,-153.63 437.47,-150.13 437.47,-157.13"/>
</a>
</g>
</g>
<!-- Node10 -->
<g id="Node000010" class="node">
<title>Node10</title>
<g id="a_Node000010"><a xlink:href="../../d8/d40/_grid___computations_8cpp_a079a3910785ad86cffe119a8e3d6a0d4.html#a079a3910785ad86cffe119a8e3d6a0d4" target="_top" xlink:title=" ">
<polygon fill="white" stroke="#666666" points="653,-163.25 616.75,-163.25 616.75,-144 653,-144 653,-163.25"/>
<text text-anchor="middle" x="634.88" y="-149.75" font-family="Helvetica,sans-Serif" font-size="10.00">Print</text>
</a>
</g>
</g>
<!-- Node9&#45;&gt;Node10 -->
<g id="edge9_Node000009_Node000010" class="edge">
<title>Node9&#45;&gt;Node10</title>
<g id="a_edge9_Node000009_Node000010"><a xlink:title=" ">
<path fill="none" stroke="#63b8ff" d="M581.14,-153.62C589.47,-153.62 597.62,-153.62 604.94,-153.62"/>
<polygon fill="#63b8ff" stroke="#63b8ff" points="604.82,-157.13 614.82,-153.63 604.82,-150.13 604.82,-157.13"/>
</a>
</g>
</g>
<!-- Node10&#45;&gt;Node10 -->
<g id="edge10_Node000010_Node000010" class="edge">
<title>Node10&#45;&gt;Node10</title>
<g id="a_edge10_Node000010_Node000010"><a xlink:title=" ">
<path fill="none" stroke="#63b8ff" d="M616.4,-163.25C607.41,-171.94 613.57,-181.25 634.88,-181.25 646.86,-181.25 654.05,-178.3 656.45,-174.18"/>
<polygon fill="#63b8ff" stroke="#63b8ff" points="659.86,-173.37 653.76,-164.71 653.13,-175.28 659.86,-173.37"/>
</a>
</g>
</g>
<!-- Node13 -->
<g id="Node000013" class="node">
<title>Node13</title>
<g id="a_Node000013"><a xlink:href="../../d8/d40/_grid___computations_8cpp_a0d19b951f556ac7a935819a38d2e1a6f.html#a0d19b951f556ac7a935819a38d2e1a6f" target="_top" xlink:title=" ">
<polygon fill="white" stroke="#666666" points="557.88,-318.25 472.12,-318.25 472.12,-299 557.88,-299 557.88,-318.25"/>
<text text-anchor="middle" x="515" y="-304.75" font-family="Helvetica,sans-Serif" font-size="10.00">Construct_Face</text>
</a>
</g>
</g>
<!-- Node12&#45;&gt;Node13 -->
<g id="edge13_Node000012_Node000013" class="edge">
<title>Node12&#45;&gt;Node13</title>
<g id="a_edge13_Node000012_Node000013"><a xlink:title=" ">
<path fill="none" stroke="#63b8ff" d="M412.97,-308.62C428.6,-308.62 445.37,-308.62 460.67,-308.62"/>
<polygon fill="#63b8ff" stroke="#63b8ff" points="460.52,-312.13 470.52,-308.63 460.52,-305.13 460.52,-312.13"/>
</a>
</g>
</g>
<!-- Node14 -->
<g id="Node000014" class="node">
<title>Node14</title>
<g id="a_Node000014"><a xlink:href="../../d8/d40/_grid___computations_8cpp_a29418163b6fbd0aa81c60026e430d0b8.html#a29418163b6fbd0aa81c60026e430d0b8" target="_top" xlink:title=" ">
<polygon fill="white" stroke="#666666" points="577.38,-355.25 452.62,-355.25 452.62,-336 577.38,-336 577.38,-355.25"/>
<text text-anchor="middle" x="515" y="-341.75" font-family="Helvetica,sans-Serif" font-size="10.00">Evaluate_Cross_Product</text>
</a>
</g>
</g>
<!-- Node12&#45;&gt;Node14 -->
<g id="edge14_Node000012_Node000014" class="edge">
<title>Node12&#45;&gt;Node14</title>
<g id="a_edge14_Node000012_Node000014"><a xlink:title=" ">
<path fill="none" stroke="#63b8ff" d="M397.54,-318.74C416.53,-323.12 438.97,-328.3 459.07,-332.94"/>
<polygon fill="#63b8ff" stroke="#63b8ff" points="458.26,-336.35 468.79,-335.19 459.83,-329.53 458.26,-336.35"/>
</a>
</g>
</g>
<!-- Node16 -->
<g id="Node000016" class="node">
<title>Node16</title>
<g id="a_Node000016"><a xlink:href="../../d8/d40/_grid___computations_8cpp_a2d284e26ddef582519953e8b8300184e.html#a2d284e26ddef582519953e8b8300184e" target="_top" xlink:title=" ">
<polygon fill="white" stroke="#666666" points="555.62,-281.25 474.38,-281.25 474.38,-262 555.62,-262 555.62,-281.25"/>
<text text-anchor="middle" x="515" y="-267.75" font-family="Helvetica,sans-Serif" font-size="10.00">Construct_Cell</text>
</a>
</g>
</g>
<!-- Node15&#45;&gt;Node16 -->
<g id="edge16_Node000015_Node000016" class="edge">
<title>Node15&#45;&gt;Node16</title>
<g id="a_edge16_Node000015_Node000016"><a xlink:title=" ">
<path fill="none" stroke="#63b8ff" d="M412.06,-271.62C428.62,-271.62 446.53,-271.62 462.65,-271.62"/>
<polygon fill="#63b8ff" stroke="#63b8ff" points="462.51,-275.13 472.51,-271.63 462.51,-268.13 462.51,-275.13"/>
</a>
</g>
</g>
<!-- Node17&#45;&gt;Node11 -->
<g id="edge18_Node000017_Node000011" class="edge">
<title>Node17&#45;&gt;Node11</title>
<g id="a_edge18_Node000017_Node000011"><a xlink:title=" ">
<path fill="none" stroke="#63b8ff" d="M384.27,-227.39C407.79,-221.81 440.71,-214 467.5,-207.65"/>
<polygon fill="#63b8ff" stroke="#63b8ff" points="468.17,-211.09 477.09,-205.38 466.56,-204.28 468.17,-211.09"/>
</a>
</g>
</g>
<!-- Node17&#45;&gt;Node16 -->
<g id="edge19_Node000017_Node000016" class="edge">
<title>Node17&#45;&gt;Node16</title>
<g id="a_edge19_Node000017_Node000016"><a xlink:title=" ">
<path fill="none" stroke="#63b8ff" d="M384.27,-241.67C406.42,-246.79 436.91,-253.82 462.76,-259.79"/>
<polygon fill="#63b8ff" stroke="#63b8ff" points="461.89,-263.18 472.42,-262.02 463.46,-256.36 461.89,-263.18"/>
</a>
</g>
</g>
<!-- Node18 -->
<g id="Node000018" class="node">
<title>Node18</title>
<g id="a_Node000018"><a xlink:href="../../d8/d40/_grid___computations_8cpp_aa376223dcb91990013ac6549090115ea.html#aa376223dcb91990013ac6549090115ea" target="_top" xlink:title=" ">
<polygon fill="white" stroke="#666666" points="564.25,-244.25 465.75,-244.25 465.75,-225 564.25,-225 564.25,-244.25"/>
<text text-anchor="middle" x="515" y="-230.75" font-family="Helvetica,sans-Serif" font-size="10.00">Conversion_Factor</text>
</a>
</g>
</g>
<!-- Node17&#45;&gt;Node18 -->
<g id="edge20_Node000017_Node000018" class="edge">
<title>Node17&#45;&gt;Node18</title>
<g id="a_edge20_Node000017_Node000018"><a xlink:title=" ">
<path fill="none" stroke="#63b8ff" d="M384.27,-234.62C403.94,-234.62 430.17,-234.62 453.91,-234.62"/>
<polygon fill="#63b8ff" stroke="#63b8ff" points="453.8,-238.13 463.8,-234.63 453.8,-231.13 453.8,-238.13"/>
</a>
</g>
</g>
<!-- Node20&#45;&gt;Node19 -->
<g id="edge25_Node000020_Node000019" class="edge">
<title>Node20&#45;&gt;Node19</title>
<g id="a_edge25_Node000020_Node000019"><a xlink:title=" ">
<path fill="none" stroke="#63b8ff" d="M219.76,-118.05C236.55,-116.35 259.47,-114.01 281.51,-111.77"/>
<polygon fill="#63b8ff" stroke="#63b8ff" points="281.81,-115.26 291.41,-110.77 281.1,-108.3 281.81,-115.26"/>
</a>
</g>
</g>
<!-- Node21 -->
<g id="Node000021" class="node">
<title>Node21</title>
<g id="a_Node000021"><a xlink:href="../../d4/d5d/_grid___refine___functions_8cpp_add867401ba6818c3d6480ec342cb0eaa.html#add867401ba6818c3d6480ec342cb0eaa" target="_top" xlink:title="Identifies the secondary neighbors of a given cell to evaluate second gradients.">
<polygon fill="white" stroke="#666666" points="413.25,-70.88 292.25,-70.88 292.25,-40.38 413.25,-40.38 413.25,-70.88"/>
<text text-anchor="start" x="300.25" y="-57.38" font-family="Helvetica,sans-Serif" font-size="10.00">Identify_Neighbours</text>
<text text-anchor="middle" x="352.75" y="-46.12" font-family="Helvetica,sans-Serif" font-size="10.00">_For_Second_Gradients</text>
</a>
</g>
</g>
<!-- Node20&#45;&gt;Node21 -->
<g id="edge23_Node000020_Node000021" class="edge">
<title>Node20&#45;&gt;Node21</title>
<g id="a_edge23_Node000020_Node000021"><a xlink:title=" ">
<path fill="none" stroke="#63b8ff" d="M219.97,-114.82C231.32,-111.83 244.71,-107.73 256.25,-102.62 273.4,-95.05 275.56,-89.17 292.25,-80.62 295.29,-79.07 298.46,-77.52 301.67,-76.02"/>
<polygon fill="#63b8ff" stroke="#63b8ff" points="302.95,-79.28 310.62,-71.97 300.07,-72.9 302.95,-79.28"/>
</a>
</g>
</g>
<!-- Node22 -->
<g id="Node000022" class="node">
<title>Node22</title>
<g id="a_Node000022"><a xlink:href="../../d3/dd4/_gradients_8cpp_a841d8b51ae49ac6ee37c9246228c1f89.html#a841d8b51ae49ac6ee37c9246228c1f89" target="_top" xlink:title="Identifies the secondary neighbors of a given cell to evaluate second gradients.">
<polygon fill="white" stroke="#666666" points="551.88,-65.25 478.12,-65.25 478.12,-46 551.88,-46 551.88,-65.25"/>
<text text-anchor="middle" x="515" y="-51.75" font-family="Helvetica,sans-Serif" font-size="10.00">getNeighbour</text>
</a>
</g>
</g>
<!-- Node21&#45;&gt;Node22 -->
<g id="edge24_Node000021_Node000022" class="edge">
<title>Node21&#45;&gt;Node22</title>
<g id="a_edge24_Node000021_Node000022"><a xlink:title=" ">
<path fill="none" stroke="#63b8ff" d="M413.42,-55.62C431.06,-55.62 450.12,-55.62 466.86,-55.62"/>
<polygon fill="#63b8ff" stroke="#63b8ff" points="466.51,-59.13 476.51,-55.63 466.51,-52.13 466.51,-59.13"/>
</a>
</g>
</g>
</g>
</svg>
