<?xml version="1.0" encoding="UTF-8" standalone="no"?>
<!DOCTYPE svg PUBLIC "-//W3C//DTD SVG 1.1//EN"
 "http://www.w3.org/Graphics/SVG/1.1/DTD/svg11.dtd">
<!-- Generated by graphviz version 12.2.1 (20241206.2353)
 -->
<!-- Title: LaunchKernel Pages: 1 -->
<svg width="238pt" height="64pt"
 viewBox="0.00 0.00 238.00 64.25" xmlns="http://www.w3.org/2000/svg" xmlns:xlink="http://www.w3.org/1999/xlink">
<g id="graph0" class="graph" transform="scale(1 1) rotate(0) translate(4 60.25)">
<title>LaunchKernel</title>
<!-- Node1 -->
<g id="Node000001" class="node">
<title>Node1</title>
<g id="a_Node000001"><a xlink:title=" ">
<polygon fill="#999999" stroke="#666666" points="75.25,-37.25 0,-37.25 0,-18 75.25,-18 75.25,-37.25"/>
<text text-anchor="middle" x="37.62" y="-23.75" font-family="Helvetica,sans-Serif" font-size="10.00">LaunchKernel</text>
</a>
</g>
</g>
<!-- Node2 -->
<g id="Node000002" class="node">
<title>Node2</title>
<g id="a_Node000002"><a xlink:href="../../db/d38/_parallel___numerical___method_8cpp_acdc0a5f0a968d5f65e9a50eb931198de.html#acdc0a5f0a968d5f65e9a50eb931198de" target="_top" xlink:title=" ">
<polygon fill="white" stroke="#666666" points="230,-56.25 111.25,-56.25 111.25,-37 230,-37 230,-56.25"/>
<text text-anchor="middle" x="170.62" y="-42.75" font-family="Helvetica,sans-Serif" font-size="10.00">Explicit_Method_Kernel</text>
</a>
</g>
</g>
<!-- Node1&#45;&gt;Node2 -->
<g id="edge1_Node000001_Node000002" class="edge">
<title>Node1&#45;&gt;Node2</title>
<g id="a_edge1_Node000001_Node000002"><a xlink:title=" ">
<path fill="none" stroke="#63b8ff" d="M75.46,-32.97C83.06,-34.07 91.3,-35.26 99.63,-36.47"/>
<polygon fill="#63b8ff" stroke="#63b8ff" points="99.11,-39.93 109.51,-37.91 100.11,-33.01 99.11,-39.93"/>
</a>
</g>
</g>
<!-- Node3 -->
<g id="Node000003" class="node">
<title>Node3</title>
<g id="a_Node000003"><a xlink:href="../../d0/d64/_numerical___method_8cpp_aab0dd8bb5a3ae3819eec8d9fef67bc83.html#aab0dd8bb5a3ae3819eec8d9fef67bc83" target="_top" xlink:title=" ">
<polygon fill="white" stroke="#666666" points="202.62,-19.25 138.62,-19.25 138.62,0 202.62,0 202.62,-19.25"/>
<text text-anchor="middle" x="170.62" y="-5.75" font-family="Helvetica,sans-Serif" font-size="10.00">get_Min_dt</text>
</a>
</g>
</g>
<!-- Node1&#45;&gt;Node3 -->
<g id="edge2_Node000001_Node000003" class="edge">
<title>Node1&#45;&gt;Node3</title>
<g id="a_edge2_Node000001_Node000003"><a xlink:title=" ">
<path fill="none" stroke="#63b8ff" d="M75.46,-22.56C91.57,-20.35 110.57,-17.74 127.26,-15.45"/>
<polygon fill="#63b8ff" stroke="#63b8ff" points="127.45,-18.95 136.88,-14.12 126.5,-12.02 127.45,-18.95"/>
</a>
</g>
</g>
</g>
</svg>
