<?xml version="1.0" encoding="UTF-8" standalone="no"?>
<!DOCTYPE svg PUBLIC "-//W3C//DTD SVG 1.1//EN"
 "http://www.w3.org/Graphics/SVG/1.1/DTD/svg11.dtd">
<!-- Generated by graphviz version 12.2.1 (20241206.2353)
 -->
<!-- Title: LaunchKernel Pages: 1 -->
<svg width="474pt" height="64pt"
 viewBox="0.00 0.00 474.00 64.25" xmlns="http://www.w3.org/2000/svg" xmlns:xlink="http://www.w3.org/1999/xlink">
<g id="graph0" class="graph" transform="scale(1 1) rotate(0) translate(4 60.25)">
<title>LaunchKernel</title>
<!-- Node1 -->
<g id="Node000001" class="node">
<title>Node1</title>
<g id="a_Node000001"><a xlink:title=" ">
<polygon fill="#999999" stroke="#666666" points="466,-37.25 390.75,-37.25 390.75,-18 466,-18 466,-37.25"/>
<text text-anchor="middle" x="428.38" y="-23.75" font-family="Helvetica,sans-Serif" font-size="10.00">LaunchKernel</text>
</a>
</g>
</g>
<!-- Node2 -->
<g id="Node000002" class="node">
<title>Node2</title>
<g id="a_Node000002"><a xlink:href="../../d0/d64/_numerical___method_8cpp_a8dda0c7e17babab9b6e49e8e199dc30e.html#a8dda0c7e17babab9b6e49e8e199dc30e" target="_top" xlink:title=" ">
<polygon fill="white" stroke="#666666" points="354.75,-37.25 269,-37.25 269,-18 354.75,-18 354.75,-37.25"/>
<text text-anchor="middle" x="311.88" y="-23.75" font-family="Helvetica,sans-Serif" font-size="10.00">Explicit_Method</text>
</a>
</g>
</g>
<!-- Node1&#45;&gt;Node2 -->
<g id="edge1_Node000001_Node000002" class="edge">
<title>Node1&#45;&gt;Node2</title>
<g id="a_edge1_Node000001_Node000002"><a xlink:title=" ">
<path fill="none" stroke="#63b8ff" d="M379.13,-27.62C371.19,-27.62 363.02,-27.62 355.24,-27.62"/>
<polygon fill="#63b8ff" stroke="#63b8ff" points="379,-31.13 389,-27.63 379,-24.13 379,-31.13"/>
</a>
</g>
</g>
<!-- Node3 -->
<g id="Node000003" class="node">
<title>Node3</title>
<g id="a_Node000003"><a xlink:href="../../de/df0/_solver_8cpp_ad0f49408a26339b5f7043bf867c3fa8d.html#ad0f49408a26339b5f7043bf867c3fa8d" target="_top" xlink:title=" ">
<polygon fill="white" stroke="#666666" points="232.25,-56.25 149.5,-56.25 149.5,-37 232.25,-37 232.25,-56.25"/>
<text text-anchor="middle" x="190.88" y="-42.75" font-family="Helvetica,sans-Serif" font-size="10.00">Inviscid_Solver</text>
</a>
</g>
</g>
<!-- Node2&#45;&gt;Node3 -->
<g id="edge2_Node000002_Node000003" class="edge">
<title>Node2&#45;&gt;Node3</title>
<g id="a_edge2_Node000002_Node000003"><a xlink:title=" ">
<path fill="none" stroke="#63b8ff" d="M257.34,-36.17C248.97,-37.51 240.45,-38.87 232.43,-40.15"/>
<polygon fill="#63b8ff" stroke="#63b8ff" points="257.77,-39.65 267.09,-34.62 256.66,-32.74 257.77,-39.65"/>
</a>
</g>
</g>
<!-- Node6 -->
<g id="Node000006" class="node">
<title>Node6</title>
<g id="a_Node000006"><a xlink:href="../../de/df0/_solver_8cpp_a2f37f06e8324a1ed6aa99efdbba81865.html#a2f37f06e8324a1ed6aa99efdbba81865" target="_top" xlink:title=" ">
<polygon fill="white" stroke="#666666" points="233,-19.25 148.75,-19.25 148.75,0 233,0 233,-19.25"/>
<text text-anchor="middle" x="190.88" y="-5.75" font-family="Helvetica,sans-Serif" font-size="10.00">Viscous_Solver</text>
</a>
</g>
</g>
<!-- Node2&#45;&gt;Node6 -->
<g id="edge5_Node000002_Node000006" class="edge">
<title>Node2&#45;&gt;Node6</title>
<g id="a_edge5_Node000002_Node000006"><a xlink:title=" ">
<path fill="none" stroke="#63b8ff" d="M257.32,-19.52C249.23,-18.3 241,-17.06 233.23,-15.88"/>
<polygon fill="#63b8ff" stroke="#63b8ff" points="256.68,-22.97 267.09,-21 257.72,-16.05 256.68,-22.97"/>
</a>
</g>
</g>
<!-- Node4 -->
<g id="Node000004" class="node">
<title>Node4</title>
<g id="a_Node000004"><a xlink:href="../../dd/dbf/_euler___python___wrapper_8cpp_ac5ccb50c3be270f798e054dd36987442.html#ac5ccb50c3be270f798e054dd36987442" target="_top" xlink:title=" ">
<polygon fill="white" stroke="#666666" points="112.75,-56.25 0,-56.25 0,-37 112.75,-37 112.75,-56.25"/>
<text text-anchor="middle" x="56.38" y="-42.75" font-family="Helvetica,sans-Serif" font-size="10.00">PYBIND11_MODULE</text>
</a>
</g>
</g>
<!-- Node3&#45;&gt;Node4 -->
<g id="edge3_Node000003_Node000004" class="edge">
<title>Node3&#45;&gt;Node4</title>
<g id="a_edge3_Node000003_Node000004"><a xlink:title=" ">
<path fill="none" stroke="#63b8ff" d="M137.77,-46.62C129.62,-46.62 121.17,-46.62 112.94,-46.62"/>
<polygon fill="#63b8ff" stroke="#63b8ff" points="137.53,-50.13 147.53,-46.63 137.53,-43.13 137.53,-50.13"/>
</a>
</g>
</g>
<!-- Node5 -->
<g id="Node000005" class="node">
<title>Node5</title>
<g id="a_Node000005"><a xlink:href="../../d5/d12/_main_8cpp_a35d775933750ace299102f06a1712663.html#a35d775933750ace299102f06a1712663" target="_top" xlink:title="Executes the appropriate solver based on the simulation configuration.">
<polygon fill="white" stroke="#666666" points="85,-19.25 27.75,-19.25 27.75,0 85,0 85,-19.25"/>
<text text-anchor="middle" x="56.38" y="-5.75" font-family="Helvetica,sans-Serif" font-size="10.00">runSolver</text>
</a>
</g>
</g>
<!-- Node3&#45;&gt;Node5 -->
<g id="edge4_Node000003_Node000005" class="edge">
<title>Node3&#45;&gt;Node5</title>
<g id="a_edge4_Node000003_Node000005"><a xlink:title=" ">
<path fill="none" stroke="#63b8ff" d="M142.65,-33.44C123.39,-28.06 101.78,-22.02 85.13,-17.38"/>
<polygon fill="#63b8ff" stroke="#63b8ff" points="141.64,-36.79 152.21,-36.11 143.52,-30.05 141.64,-36.79"/>
</a>
</g>
</g>
<!-- Node6&#45;&gt;Node4 -->
<g id="edge6_Node000006_Node000004" class="edge">
<title>Node6&#45;&gt;Node4</title>
<g id="a_edge6_Node000006_Node000004"><a xlink:title=" ">
<path fill="none" stroke="#63b8ff" d="M142.78,-22.78C126.59,-27.3 108.72,-32.29 93.54,-36.53"/>
<polygon fill="#63b8ff" stroke="#63b8ff" points="143.52,-26.2 152.21,-20.14 141.64,-19.46 143.52,-26.2"/>
</a>
</g>
</g>
<!-- Node6&#45;&gt;Node5 -->
<g id="edge7_Node000006_Node000005" class="edge">
<title>Node6&#45;&gt;Node5</title>
<g id="a_edge7_Node000006_Node000005"><a xlink:title=" ">
<path fill="none" stroke="#63b8ff" d="M136.97,-9.62C119.33,-9.62 100.37,-9.62 85.38,-9.62"/>
<polygon fill="#63b8ff" stroke="#63b8ff" points="136.8,-13.13 146.8,-9.63 136.8,-6.13 136.8,-13.13"/>
</a>
</g>
</g>
</g>
</svg>
