<?xml version="1.0" encoding="UTF-8" standalone="no"?>
<!DOCTYPE svg PUBLIC "-//W3C//DTD SVG 1.1//EN"
 "http://www.w3.org/Graphics/SVG/1.1/DTD/svg11.dtd">
<!-- Generated by graphviz version 12.2.1 (20241206.2353)
 -->
<!-- Title: main Pages: 1 -->
<svg width="180pt" height="101pt"
 viewBox="0.00 0.00 179.50 101.25" xmlns="http://www.w3.org/2000/svg" xmlns:xlink="http://www.w3.org/1999/xlink">
<g id="graph0" class="graph" transform="scale(1 1) rotate(0) translate(4 97.25)">
<title>main</title>
<!-- Node1 -->
<g id="Node000001" class="node">
<title>Node1</title>
<g id="a_Node000001"><a xlink:title=" ">
<polygon fill="#999999" stroke="#666666" points="37,-56.25 0,-56.25 0,-37 37,-37 37,-56.25"/>
<text text-anchor="middle" x="18.5" y="-42.75" font-family="Helvetica,sans-Serif" font-size="10.00">main</text>
</a>
</g>
</g>
<!-- Node2 -->
<g id="Node000002" class="node">
<title>Node2</title>
<g id="a_Node000002"><a xlink:href="../../d6/db3/_convert___tri__to___quad_8cpp_ae670073730ddfa9126ba8878a6e84a19.html#ae670073730ddfa9126ba8878a6e84a19" target="_top" xlink:title=" ">
<polygon fill="white" stroke="#666666" points="171.5,-93.25 73,-93.25 73,-74 171.5,-74 171.5,-93.25"/>
<text text-anchor="middle" x="122.25" y="-79.75" font-family="Helvetica,sans-Serif" font-size="10.00">convertAllToQuads</text>
</a>
</g>
</g>
<!-- Node1&#45;&gt;Node2 -->
<g id="edge1_Node000001_Node000002" class="edge">
<title>Node1&#45;&gt;Node2</title>
<g id="a_edge1_Node000001_Node000002"><a xlink:title=" ">
<path fill="none" stroke="#63b8ff" d="M37.22,-53.07C49.9,-57.68 67.44,-64.06 83.21,-69.79"/>
<polygon fill="#63b8ff" stroke="#63b8ff" points="81.76,-72.99 92.35,-73.12 84.15,-66.41 81.76,-72.99"/>
</a>
</g>
</g>
<!-- Node3 -->
<g id="Node000003" class="node">
<title>Node3</title>
<g id="a_Node000003"><a xlink:href="../../d6/db3/_convert___tri__to___quad_8cpp_abb22af1cb6e4987509c0e72a85fb303c.html#abb22af1cb6e4987509c0e72a85fb303c" target="_top" xlink:title=" ">
<polygon fill="white" stroke="#666666" points="149.38,-56.25 95.12,-56.25 95.12,-37 149.38,-37 149.38,-56.25"/>
<text text-anchor="middle" x="122.25" y="-42.75" font-family="Helvetica,sans-Serif" font-size="10.00">readVTK</text>
</a>
</g>
</g>
<!-- Node1&#45;&gt;Node3 -->
<g id="edge2_Node000001_Node000003" class="edge">
<title>Node1&#45;&gt;Node3</title>
<g id="a_edge2_Node000001_Node000003"><a xlink:title=" ">
<path fill="none" stroke="#63b8ff" d="M37.22,-46.62C50.05,-46.62 67.86,-46.62 83.79,-46.62"/>
<polygon fill="#63b8ff" stroke="#63b8ff" points="83.43,-50.13 93.43,-46.63 83.43,-43.13 83.43,-50.13"/>
</a>
</g>
</g>
<!-- Node4 -->
<g id="Node000004" class="node">
<title>Node4</title>
<g id="a_Node000004"><a xlink:href="../../d6/db3/_convert___tri__to___quad_8cpp_a773f0c6e4960f7c5fdf056e5a5d6398d.html#a773f0c6e4960f7c5fdf056e5a5d6398d" target="_top" xlink:title=" ">
<polygon fill="white" stroke="#666666" points="150.5,-19.25 94,-19.25 94,0 150.5,0 150.5,-19.25"/>
<text text-anchor="middle" x="122.25" y="-5.75" font-family="Helvetica,sans-Serif" font-size="10.00">writeVTK</text>
</a>
</g>
</g>
<!-- Node1&#45;&gt;Node4 -->
<g id="edge3_Node000001_Node000004" class="edge">
<title>Node1&#45;&gt;Node4</title>
<g id="a_edge3_Node000001_Node000004"><a xlink:title=" ">
<path fill="none" stroke="#63b8ff" d="M37.22,-40.18C49.9,-35.57 67.44,-29.19 83.21,-23.46"/>
<polygon fill="#63b8ff" stroke="#63b8ff" points="84.15,-26.84 92.35,-20.13 81.76,-20.26 84.15,-26.84"/>
</a>
</g>
</g>
</g>
</svg>
