<?xml version="1.0" encoding="UTF-8" standalone="no"?>
<!DOCTYPE svg PUBLIC "-//W3C//DTD SVG 1.1//EN"
 "http://www.w3.org/Graphics/SVG/1.1/DTD/svg11.dtd">
<!-- Generated by graphviz version 12.2.1 (20241206.2353)
 -->
<!-- Title: Vector::Find_UnitVector Pages: 1 -->
<svg width="250pt" height="64pt"
 viewBox="0.00 0.00 250.00 64.25" xmlns="http://www.w3.org/2000/svg" xmlns:xlink="http://www.w3.org/1999/xlink">
<g id="graph0" class="graph" transform="scale(1 1) rotate(0) translate(4 60.25)">
<title>Vector::Find_UnitVector</title>
<!-- Node1 -->
<g id="Node000001" class="node">
<title>Node1</title>
<g id="a_Node000001"><a xlink:title=" ">
<polygon fill="#999999" stroke="#666666" points="242,-37.25 121,-37.25 121,-18 242,-18 242,-37.25"/>
<text text-anchor="middle" x="181.5" y="-23.75" font-family="Helvetica,sans-Serif" font-size="10.00">Vector::Find_UnitVector</text>
</a>
</g>
</g>
<!-- Node2 -->
<g id="Node000002" class="node">
<title>Node2</title>
<g id="a_Node000002"><a xlink:href="../../d5/d2a/class_face_adcb31c77e29fb3defcd5d49a4e8f39e4.html#adcb31c77e29fb3defcd5d49a4e8f39e4" target="_top" xlink:title=" ">
<polygon fill="white" stroke="#666666" points="85,-56.25 0,-56.25 0,-37 85,-37 85,-56.25"/>
<text text-anchor="middle" x="42.5" y="-42.75" font-family="Helvetica,sans-Serif" font-size="10.00">Face::operator()</text>
</a>
</g>
</g>
<!-- Node1&#45;&gt;Node2 -->
<g id="edge1_Node000001_Node000002" class="edge">
<title>Node1&#45;&gt;Node2</title>
<g id="a_edge1_Node000001_Node000002"><a xlink:title=" ">
<path fill="none" stroke="#63b8ff" d="M109.53,-37.47C101.24,-38.62 93,-39.76 85.3,-40.83"/>
<polygon fill="#63b8ff" stroke="#63b8ff" points="109.88,-40.95 119.31,-36.11 108.92,-34.02 109.88,-40.95"/>
</a>
</g>
</g>
<!-- Node3 -->
<g id="Node000003" class="node">
<title>Node3</title>
<g id="a_Node000003"><a xlink:href="../../d5/d2a/class_face_a5c502c3373dcc429b304b2ea21967cad.html#a5c502c3373dcc429b304b2ea21967cad" target="_top" xlink:title=" ">
<polygon fill="white" stroke="#666666" points="85,-19.25 0,-19.25 0,0 85,0 85,-19.25"/>
<text text-anchor="middle" x="42.5" y="-5.75" font-family="Helvetica,sans-Serif" font-size="10.00">Face::operator()</text>
</a>
</g>
</g>
<!-- Node1&#45;&gt;Node3 -->
<g id="edge2_Node000001_Node000003" class="edge">
<title>Node1&#45;&gt;Node3</title>
<g id="a_edge2_Node000001_Node000003"><a xlink:title=" ">
<path fill="none" stroke="#63b8ff" d="M109.53,-18.3C101.24,-17.21 93,-16.13 85.3,-15.12"/>
<polygon fill="#63b8ff" stroke="#63b8ff" points="108.94,-21.75 119.31,-19.59 109.85,-14.81 108.94,-21.75"/>
</a>
</g>
</g>
</g>
</svg>
