<?xml version="1.0" encoding="UTF-8" standalone="no"?>
<!DOCTYPE svg PUBLIC "-//W3C//DTD SVG 1.1//EN"
 "http://www.w3.org/Graphics/SVG/1.1/DTD/svg11.dtd">
<!-- Generated by graphviz version 12.2.1 (20241206.2353)
 -->
<!-- Title: Vector::Clear Pages: 1 -->
<svg width="524pt" height="64pt"
 viewBox="0.00 0.00 524.25 64.25" xmlns="http://www.w3.org/2000/svg" xmlns:xlink="http://www.w3.org/1999/xlink">
<g id="graph0" class="graph" transform="scale(1 1) rotate(0) translate(4 60.25)">
<title>Vector::Clear</title>
<!-- Node1 -->
<g id="Node000001" class="node">
<title>Node1</title>
<g id="a_Node000001"><a xlink:title=" ">
<polygon fill="#999999" stroke="#666666" points="516.25,-37.25 442.5,-37.25 442.5,-18 516.25,-18 516.25,-37.25"/>
<text text-anchor="middle" x="479.38" y="-23.75" font-family="Helvetica,sans-Serif" font-size="10.00">Vector::Clear</text>
</a>
</g>
</g>
<!-- Node2 -->
<g id="Node000002" class="node">
<title>Node2</title>
<g id="a_Node000002"><a xlink:href="../../dd/d11/class_cell_af7944559b958e7f02bf804adfd482a70.html#af7944559b958e7f02bf804adfd482a70" target="_top" xlink:title=" ">
<polygon fill="white" stroke="#666666" points="391.88,-56.25 282.88,-56.25 282.88,-37 391.88,-37 391.88,-56.25"/>
<text text-anchor="middle" x="337.38" y="-42.75" font-family="Helvetica,sans-Serif" font-size="10.00">Cell::Cal_Q_Gradient</text>
</a>
</g>
</g>
<!-- Node1&#45;&gt;Node2 -->
<g id="edge1_Node000001_Node000002" class="edge">
<title>Node1&#45;&gt;Node2</title>
<g id="a_edge1_Node000001_Node000002"><a xlink:title=" ">
<path fill="none" stroke="#63b8ff" d="M431.2,-34.03C418.7,-35.72 405.1,-37.57 392.27,-39.31"/>
<polygon fill="#63b8ff" stroke="#63b8ff" points="431.38,-37.53 440.82,-32.72 430.44,-30.6 431.38,-37.53"/>
</a>
</g>
</g>
<!-- Node5 -->
<g id="Node000005" class="node">
<title>Node5</title>
<g id="a_Node000005"><a xlink:href="../../dd/d11/class_cell_a65a6f31fc7a451a50c9908c80e20033c.html#a65a6f31fc7a451a50c9908c80e20033c" target="_top" xlink:title=" ">
<polygon fill="white" stroke="#666666" points="406.5,-19.25 268.25,-19.25 268.25,0 406.5,0 406.5,-19.25"/>
<text text-anchor="middle" x="337.38" y="-5.75" font-family="Helvetica,sans-Serif" font-size="10.00">Cell::Velocity_GradatCenter</text>
</a>
</g>
</g>
<!-- Node1&#45;&gt;Node5 -->
<g id="edge4_Node000001_Node000005" class="edge">
<title>Node1&#45;&gt;Node5</title>
<g id="a_edge4_Node000001_Node000005"><a xlink:title=" ">
<path fill="none" stroke="#63b8ff" d="M430.95,-21.53C423.21,-20.53 415.06,-19.48 406.94,-18.44"/>
<polygon fill="#63b8ff" stroke="#63b8ff" points="430.46,-24.99 440.82,-22.8 431.35,-18.05 430.46,-24.99"/>
</a>
</g>
</g>
<!-- Node3 -->
<g id="Node000003" class="node">
<title>Node3</title>
<g id="a_Node000003"><a xlink:href="../../dd/d11/class_cell_a4a591da0b84980196864d92dea915c67.html#a4a591da0b84980196864d92dea915c67" target="_top" xlink:title=" ">
<polygon fill="white" stroke="#666666" points="232.25,-37.25 93.25,-37.25 93.25,-18 232.25,-18 232.25,-37.25"/>
<text text-anchor="middle" x="162.75" y="-23.75" font-family="Helvetica,sans-Serif" font-size="10.00">Cell::Evaluate_FluxonFaces</text>
</a>
</g>
</g>
<!-- Node2&#45;&gt;Node3 -->
<g id="edge2_Node000002_Node000003" class="edge">
<title>Node2&#45;&gt;Node3</title>
<g id="a_edge2_Node000002_Node000003"><a xlink:title=" ">
<path fill="none" stroke="#63b8ff" d="M271.32,-39.46C258.69,-38.07 245.41,-36.61 232.66,-35.21"/>
<polygon fill="#63b8ff" stroke="#63b8ff" points="270.87,-42.94 281.2,-40.55 271.64,-35.98 270.87,-42.94"/>
</a>
</g>
</g>
<!-- Node4 -->
<g id="Node000004" class="node">
<title>Node4</title>
<g id="a_Node000004"><a xlink:href="../../dd/d11/class_cell_aaf94e79f1a6eaba16660a81b86b5d4c1.html#aaf94e79f1a6eaba16660a81b86b5d4c1" target="_top" xlink:title=" ">
<polygon fill="white" stroke="#666666" points="57.25,-37.25 0,-37.25 0,-18 57.25,-18 57.25,-37.25"/>
<text text-anchor="middle" x="28.62" y="-23.75" font-family="Helvetica,sans-Serif" font-size="10.00">Cell::Rk4</text>
</a>
</g>
</g>
<!-- Node3&#45;&gt;Node4 -->
<g id="edge3_Node000003_Node000004" class="edge">
<title>Node3&#45;&gt;Node4</title>
<g id="a_edge3_Node000003_Node000004"><a xlink:title=" ">
<path fill="none" stroke="#63b8ff" d="M81.6,-27.62C73.06,-27.62 64.84,-27.62 57.56,-27.62"/>
<polygon fill="#63b8ff" stroke="#63b8ff" points="81.47,-31.13 91.47,-27.63 81.47,-24.13 81.47,-31.13"/>
</a>
</g>
</g>
<!-- Node5&#45;&gt;Node3 -->
<g id="edge5_Node000005_Node000003" class="edge">
<title>Node5&#45;&gt;Node3</title>
<g id="a_edge5_Node000005_Node000003"><a xlink:title=" ">
<path fill="none" stroke="#63b8ff" d="M256.81,-17.92C248.73,-18.76 240.57,-19.62 232.61,-20.44"/>
<polygon fill="#63b8ff" stroke="#63b8ff" points="257.06,-21.41 266.64,-16.9 256.33,-14.45 257.06,-21.41"/>
</a>
</g>
</g>
</g>
</svg>
