<?xml version="1.0" encoding="UTF-8" standalone="no"?>
<!DOCTYPE svg PUBLIC "-//W3C//DTD SVG 1.1//EN"
 "http://www.w3.org/Graphics/SVG/1.1/DTD/svg11.dtd">
<!-- Generated by graphviz version 12.2.1 (20241206.2353)
 -->
<!-- Title: Vector::Get_Component Pages: 1 -->
<svg width="433pt" height="162pt"
 viewBox="0.00 0.00 433.25 161.88" xmlns="http://www.w3.org/2000/svg" xmlns:xlink="http://www.w3.org/1999/xlink">
<g id="graph0" class="graph" transform="scale(1 1) rotate(0) translate(4 157.88)">
<title>Vector::Get_Component</title>
<!-- Node1 -->
<g id="Node000001" class="node">
<title>Node1</title>
<g id="a_Node000001"><a xlink:title=" ">
<polygon fill="#999999" stroke="#666666" points="425.25,-77.25 303.5,-77.25 303.5,-58 425.25,-58 425.25,-77.25"/>
<text text-anchor="middle" x="364.38" y="-63.75" font-family="Helvetica,sans-Serif" font-size="10.00">Vector::Get_Component</text>
</a>
</g>
</g>
<!-- Node2 -->
<g id="Node000002" class="node">
<title>Node2</title>
<g id="a_Node000002"><a xlink:href="../../d5/d2a/class_face_acf8f42dee4b478f9a2ce69e7af80204f.html#acf8f42dee4b478f9a2ce69e7af80204f" target="_top" xlink:title=" ">
<polygon fill="white" stroke="#666666" points="267.5,-153.88 134.5,-153.88 134.5,-123.38 267.5,-123.38 267.5,-153.88"/>
<text text-anchor="start" x="142.5" y="-140.38" font-family="Helvetica,sans-Serif" font-size="10.00">Face::Cal_Viscous_Stress</text>
<text text-anchor="middle" x="201" y="-129.12" font-family="Helvetica,sans-Serif" font-size="10.00">_On_Face</text>
</a>
</g>
</g>
<!-- Node1&#45;&gt;Node2 -->
<g id="edge1_Node000001_Node000002" class="edge">
<title>Node1&#45;&gt;Node2</title>
<g id="a_edge1_Node000001_Node000002"><a xlink:title=" ">
<path fill="none" stroke="#63b8ff" d="M333.48,-82.76C314.71,-92.06 289.9,-104 267.5,-113.62 260.12,-116.8 252.19,-120 244.49,-123"/>
<polygon fill="#63b8ff" stroke="#63b8ff" points="335.02,-85.9 342.41,-78.3 331.9,-79.63 335.02,-85.9"/>
</a>
</g>
</g>
<!-- Node4 -->
<g id="Node000004" class="node">
<title>Node4</title>
<g id="a_Node000004"><a xlink:href="../../d5/d2a/class_face_a815c3a1a53fb585298600426294aff41.html#a815c3a1a53fb585298600426294aff41" target="_top" xlink:title=" ">
<polygon fill="white" stroke="#666666" points="259.62,-104.88 142.38,-104.88 142.38,-74.38 259.62,-74.38 259.62,-104.88"/>
<text text-anchor="start" x="150.38" y="-91.38" font-family="Helvetica,sans-Serif" font-size="10.00">Face::Flux_From_Face</text>
<text text-anchor="middle" x="201" y="-80.12" font-family="Helvetica,sans-Serif" font-size="10.00">_Central</text>
</a>
</g>
</g>
<!-- Node1&#45;&gt;Node4 -->
<g id="edge3_Node000001_Node000004" class="edge">
<title>Node1&#45;&gt;Node4</title>
<g id="a_edge3_Node000001_Node000004"><a xlink:title=" ">
<path fill="none" stroke="#63b8ff" d="M292.19,-77.33C281.42,-78.8 270.43,-80.3 260,-81.72"/>
<polygon fill="#63b8ff" stroke="#63b8ff" points="292.35,-80.84 301.79,-76.02 291.4,-73.9 292.35,-80.84"/>
</a>
</g>
</g>
<!-- Node5 -->
<g id="Node000005" class="node">
<title>Node5</title>
<g id="a_Node000005"><a xlink:href="../../d5/d2a/class_face_adcb31c77e29fb3defcd5d49a4e8f39e4.html#adcb31c77e29fb3defcd5d49a4e8f39e4" target="_top" xlink:title=" ">
<polygon fill="white" stroke="#666666" points="243.5,-56.25 158.5,-56.25 158.5,-37 243.5,-37 243.5,-56.25"/>
<text text-anchor="middle" x="201" y="-42.75" font-family="Helvetica,sans-Serif" font-size="10.00">Face::operator()</text>
</a>
</g>
</g>
<!-- Node1&#45;&gt;Node5 -->
<g id="edge4_Node000001_Node000005" class="edge">
<title>Node1&#45;&gt;Node5</title>
<g id="a_edge4_Node000001_Node000005"><a xlink:title=" ">
<path fill="none" stroke="#63b8ff" d="M291.94,-58.33C275.38,-56.17 258.3,-53.95 243.53,-52.03"/>
<polygon fill="#63b8ff" stroke="#63b8ff" points="291.42,-61.79 301.78,-59.61 292.32,-54.85 291.42,-61.79"/>
</a>
</g>
</g>
<!-- Node6 -->
<g id="Node000006" class="node">
<title>Node6</title>
<g id="a_Node000006"><a xlink:href="../../d5/d2a/class_face_ad7a7697f7c7b7eb7fef9461143946645.html#ad7a7697f7c7b7eb7fef9461143946645" target="_top" xlink:title=" ">
<polygon fill="white" stroke="#666666" points="243.5,-19.25 158.5,-19.25 158.5,0 243.5,0 243.5,-19.25"/>
<text text-anchor="middle" x="201" y="-5.75" font-family="Helvetica,sans-Serif" font-size="10.00">Face::operator=</text>
</a>
</g>
</g>
<!-- Node1&#45;&gt;Node6 -->
<g id="edge5_Node000001_Node000006" class="edge">
<title>Node1&#45;&gt;Node6</title>
<g id="a_edge5_Node000001_Node000006"><a xlink:title=" ">
<path fill="none" stroke="#63b8ff" d="M331.14,-52.97C312.72,-44.9 289.07,-35.05 267.5,-27.62 259.25,-24.78 250.29,-22.08 241.73,-19.67"/>
<polygon fill="#63b8ff" stroke="#63b8ff" points="329.65,-56.14 340.21,-56.99 332.49,-49.74 329.65,-56.14"/>
</a>
</g>
</g>
<!-- Node3 -->
<g id="Node000003" class="node">
<title>Node3</title>
<g id="a_Node000003"><a xlink:href="../../dc/d9f/struct_cell_a5e21ff4d88e1f4fb854bdcd5b6505893.html#a5e21ff4d88e1f4fb854bdcd5b6505893" target="_top" xlink:title=" ">
<polygon fill="white" stroke="#666666" points="98.5,-148.25 0,-148.25 0,-129 98.5,-129 98.5,-148.25"/>
<text text-anchor="middle" x="49.25" y="-134.75" font-family="Helvetica,sans-Serif" font-size="10.00">Cell::Cal_Stresses</text>
</a>
</g>
</g>
<!-- Node2&#45;&gt;Node3 -->
<g id="edge2_Node000002_Node000003" class="edge">
<title>Node2&#45;&gt;Node3</title>
<g id="a_edge2_Node000002_Node000003"><a xlink:title=" ">
<path fill="none" stroke="#63b8ff" d="M123.06,-138.62C114.8,-138.62 106.57,-138.62 98.77,-138.62"/>
<polygon fill="#63b8ff" stroke="#63b8ff" points="122.8,-142.13 132.8,-138.63 122.8,-135.13 122.8,-142.13"/>
</a>
</g>
</g>
</g>
</svg>
