<?xml version="1.0" encoding="UTF-8" standalone="no"?>
<!DOCTYPE svg PUBLIC "-//W3C//DTD SVG 1.1//EN"
 "http://www.w3.org/Graphics/SVG/1.1/DTD/svg11.dtd">
<!-- Generated by graphviz version 12.2.1 (20241206.2353)
 -->
<!-- Title: Channel_Flow Pages: 1 -->
<svg width="645pt" height="331pt"
 viewBox="0.00 0.00 644.50 330.50" xmlns="http://www.w3.org/2000/svg" xmlns:xlink="http://www.w3.org/1999/xlink">
<g id="graph0" class="graph" transform="scale(1 1) rotate(0) translate(4 326.5)">
<title>Channel_Flow</title>
<!-- Node1 -->
<g id="Node000001" class="node">
<title>Node1</title>
<g id="a_Node000001"><a xlink:title=" ">
<polygon fill="#999999" stroke="#666666" points="78.25,-168.88 0,-168.88 0,-149.62 78.25,-149.62 78.25,-168.88"/>
<text text-anchor="middle" x="39.12" y="-155.38" font-family="Helvetica,sans-Serif" font-size="10.00">Channel_Flow</text>
</a>
</g>
</g>
<!-- Node2 -->
<g id="Node000002" class="node">
<title>Node2</title>
<g id="a_Node000002"><a xlink:href="../../df/d43/_basic___functions_8cpp_a9ca12fb8f920cab38313323cf0c4bf53.html#a9ca12fb8f920cab38313323cf0c4bf53" target="_top" xlink:title=" ">
<polygon fill="white" stroke="#666666" points="239.75,-322.5 114.25,-322.5 114.25,-292 239.75,-292 239.75,-322.5"/>
<text text-anchor="start" x="122.25" y="-309" font-family="Helvetica,sans-Serif" font-size="10.00">Calculate_Computational</text>
<text text-anchor="middle" x="177" y="-297.75" font-family="Helvetica,sans-Serif" font-size="10.00">_Variables</text>
</a>
</g>
</g>
<!-- Node1&#45;&gt;Node2 -->
<g id="edge1_Node000001_Node000002" class="edge">
<title>Node1&#45;&gt;Node2</title>
<g id="a_edge1_Node000001_Node000002"><a xlink:title=" ">
<path fill="none" stroke="#63b8ff" d="M43.64,-169.34C52.18,-192.44 76.13,-249.72 114.25,-282.25 115.54,-283.35 116.89,-284.41 118.28,-285.43"/>
<polygon fill="#63b8ff" stroke="#63b8ff" points="116.38,-288.37 126.72,-290.72 120.11,-282.44 116.38,-288.37"/>
</a>
</g>
</g>
<!-- Node3 -->
<g id="Node000003" class="node">
<title>Node3</title>
<g id="a_Node000003"><a xlink:href="../../df/d43/_basic___functions_8cpp_a1c199e756f8458978961b4d9ab4cbe63.html#a1c199e756f8458978961b4d9ab4cbe63" target="_top" xlink:title=" ">
<polygon fill="white" stroke="#666666" points="227.38,-273.5 126.62,-273.5 126.62,-243 227.38,-243 227.38,-273.5"/>
<text text-anchor="start" x="134.62" y="-260" font-family="Helvetica,sans-Serif" font-size="10.00">Calculate_Primitive</text>
<text text-anchor="middle" x="177" y="-248.75" font-family="Helvetica,sans-Serif" font-size="10.00">_Variables</text>
</a>
</g>
</g>
<!-- Node1&#45;&gt;Node3 -->
<g id="edge2_Node000001_Node000003" class="edge">
<title>Node1&#45;&gt;Node3</title>
<g id="a_edge2_Node000001_Node000003"><a xlink:title=" ">
<path fill="none" stroke="#63b8ff" d="M47.73,-169.32C60.12,-185.11 86.09,-215.76 114.25,-234.25 115.87,-235.31 117.54,-236.34 119.26,-237.33"/>
<polygon fill="#63b8ff" stroke="#63b8ff" points="117.58,-240.41 128.07,-241.92 120.82,-234.2 117.58,-240.41"/>
</a>
</g>
</g>
<!-- Node5 -->
<g id="Node000005" class="node">
<title>Node5</title>
<g id="a_Node000005"><a xlink:href="../../da/d3e/output__files_8cpp_ac7e61b153a6d26ffbefde7b5b86d55a7.html#ac7e61b153a6d26ffbefde7b5b86d55a7" target="_top" xlink:title=" ">
<polygon fill="white" stroke="#666666" points="220.62,-224.88 133.38,-224.88 133.38,-205.62 220.62,-205.62 220.62,-224.88"/>
<text text-anchor="middle" x="177" y="-211.38" font-family="Helvetica,sans-Serif" font-size="10.00">Directory_Name</text>
</a>
</g>
</g>
<!-- Node1&#45;&gt;Node5 -->
<g id="edge4_Node000001_Node000005" class="edge">
<title>Node1&#45;&gt;Node5</title>
<g id="a_edge4_Node000001_Node000005"><a xlink:title=" ">
<path fill="none" stroke="#63b8ff" d="M57.36,-169.28C72.11,-177.56 94.09,-189.23 114.25,-197.25 118.11,-198.79 122.15,-200.25 126.24,-201.64"/>
<polygon fill="#63b8ff" stroke="#63b8ff" points="125.05,-204.94 135.64,-204.66 127.19,-198.27 125.05,-204.94"/>
</a>
</g>
</g>
<!-- Node6 -->
<g id="Node000006" class="node">
<title>Node6</title>
<g id="a_Node000006"><a xlink:href="../../da/d3e/output__files_8cpp_a2a6bf38afe949ce5a6cd1b3641c49c25.html#a2a6bf38afe949ce5a6cd1b3641c49c25" target="_top" xlink:title=" ">
<polygon fill="white" stroke="#666666" points="208.62,-187.88 145.38,-187.88 145.38,-168.62 208.62,-168.62 208.62,-187.88"/>
<text text-anchor="middle" x="177" y="-174.38" font-family="Helvetica,sans-Serif" font-size="10.00">File_Name</text>
</a>
</g>
</g>
<!-- Node1&#45;&gt;Node6 -->
<g id="edge5_Node000001_Node000006" class="edge">
<title>Node1&#45;&gt;Node6</title>
<g id="a_edge5_Node000001_Node000006"><a xlink:title=" ">
<path fill="none" stroke="#63b8ff" d="M78.7,-164.64C95.86,-167.04 116.13,-169.88 133.71,-172.34"/>
<polygon fill="#63b8ff" stroke="#63b8ff" points="133.21,-175.8 143.59,-173.72 134.18,-168.87 133.21,-175.8"/>
</a>
</g>
</g>
<!-- Node7 -->
<g id="Node000007" class="node">
<title>Node7</title>
<g id="a_Node000007"><a xlink:href="../../d8/d40/_grid___computations_8cpp_a831dcf7cbf36ddf425ce0753495ba3c6.html#a831dcf7cbf36ddf425ce0753495ba3c6" target="_top" xlink:title=" ">
<polygon fill="white" stroke="#666666" points="210.12,-150.88 143.88,-150.88 143.88,-131.62 210.12,-131.62 210.12,-150.88"/>
<text text-anchor="middle" x="177" y="-137.38" font-family="Helvetica,sans-Serif" font-size="10.00">Form_Cells</text>
</a>
</g>
</g>
<!-- Node1&#45;&gt;Node7 -->
<g id="edge6_Node000001_Node000007" class="edge">
<title>Node1&#45;&gt;Node7</title>
<g id="a_edge6_Node000001_Node000007"><a xlink:title=" ">
<path fill="none" stroke="#63b8ff" d="M78.7,-154.14C95.56,-151.91 115.41,-149.28 132.77,-146.98"/>
<polygon fill="#63b8ff" stroke="#63b8ff" points="132.81,-150.5 142.26,-145.72 131.89,-143.56 132.81,-150.5"/>
</a>
</g>
</g>
<!-- Node19 -->
<g id="Node000019" class="node">
<title>Node19</title>
<g id="a_Node000019"><a xlink:href="../../d7/d6d/_initialize_8cpp_ad59ff1b23c73f6427e8179ce53ee1f59.html#ad59ff1b23c73f6427e8179ce53ee1f59" target="_top" xlink:title=" ">
<polygon fill="white" stroke="#666666" points="236.38,-113.5 117.62,-113.5 117.62,-83 236.38,-83 236.38,-113.5"/>
<text text-anchor="start" x="125.62" y="-100" font-family="Helvetica,sans-Serif" font-size="10.00">Identify_Wall_Boundary</text>
<text text-anchor="middle" x="177" y="-88.75" font-family="Helvetica,sans-Serif" font-size="10.00">_Faces</text>
</a>
</g>
</g>
<!-- Node1&#45;&gt;Node19 -->
<g id="edge20_Node000001_Node000019" class="edge">
<title>Node1&#45;&gt;Node19</title>
<g id="a_edge20_Node000001_Node000019"><a xlink:title=" ">
<path fill="none" stroke="#63b8ff" d="M59.09,-149.18C73.93,-141.44 95.18,-130.69 114.25,-122.25 117.21,-120.94 120.26,-119.63 123.35,-118.33"/>
<polygon fill="#63b8ff" stroke="#63b8ff" points="124.6,-121.6 132.53,-114.57 121.95,-115.12 124.6,-121.6"/>
</a>
</g>
</g>
<!-- Node20 -->
<g id="Node000020" class="node">
<title>Node20</title>
<g id="a_Node000020"><a xlink:href="../../d7/d6d/_initialize_8cpp_acc3c3292e370176c51c654a01e651e24.html#acc3c3292e370176c51c654a01e651e24" target="_top" xlink:title=" ">
<polygon fill="white" stroke="#666666" points="203,-64.88 151,-64.88 151,-45.62 203,-45.62 203,-64.88"/>
<text text-anchor="middle" x="177" y="-51.38" font-family="Helvetica,sans-Serif" font-size="10.00">Initialize</text>
</a>
</g>
</g>
<!-- Node1&#45;&gt;Node20 -->
<g id="edge21_Node000001_Node000020" class="edge">
<title>Node1&#45;&gt;Node20</title>
<g id="a_edge21_Node000001_Node000020"><a xlink:title=" ">
<path fill="none" stroke="#63b8ff" d="M46.14,-149.25C57.33,-131.52 83.05,-94.52 114.25,-74.25 121.92,-69.27 130.97,-65.53 139.75,-62.75"/>
<polygon fill="#63b8ff" stroke="#63b8ff" points="140.44,-66.19 149.13,-60.13 138.56,-59.45 140.44,-66.19"/>
</a>
</g>
</g>
<!-- Node22 -->
<g id="Node000022" class="node">
<title>Node22</title>
<g id="a_Node000022"><a xlink:href="../../da/d3e/output__files_8cpp_ac49d22b87cab7fa46da37546b7af78b0.html#ac49d22b87cab7fa46da37546b7af78b0" target="_top" xlink:title=" ">
<polygon fill="white" stroke="#666666" points="216.5,-27.88 137.5,-27.88 137.5,-8.62 216.5,-8.62 216.5,-27.88"/>
<text text-anchor="middle" x="177" y="-14.38" font-family="Helvetica,sans-Serif" font-size="10.00">Write_Solution</text>
</a>
</g>
</g>
<!-- Node1&#45;&gt;Node22 -->
<g id="edge23_Node000001_Node000022" class="edge">
<title>Node1&#45;&gt;Node22</title>
<g id="a_edge23_Node000001_Node000022"><a xlink:title=" ">
<path fill="none" stroke="#63b8ff" d="M43.3,-149.24C51.26,-125.79 74.34,-66.97 114.25,-36.25 118.03,-33.34 122.27,-30.9 126.72,-28.85"/>
<polygon fill="#63b8ff" stroke="#63b8ff" points="127.84,-32.17 135.91,-25.3 125.32,-25.64 127.84,-32.17"/>
</a>
</g>
</g>
<!-- Node4 -->
<g id="Node000004" class="node">
<title>Node4</title>
<g id="a_Node000004"><a xlink:href="../../db/d81/_viscous___calculations_8cpp_ae9dc3225863fb110155bb3e9dea4e4d3.html#ae9dc3225863fb110155bb3e9dea4e4d3" target="_top" xlink:title=" ">
<polygon fill="white" stroke="#666666" points="364.5,-267.88 308,-267.88 308,-248.62 364.5,-248.62 364.5,-267.88"/>
<text text-anchor="middle" x="336.25" y="-254.38" font-family="Helvetica,sans-Serif" font-size="10.00">Viscosity</text>
</a>
</g>
</g>
<!-- Node3&#45;&gt;Node4 -->
<g id="edge3_Node000003_Node000004" class="edge">
<title>Node3&#45;&gt;Node4</title>
<g id="a_edge3_Node000003_Node000004"><a xlink:title=" ">
<path fill="none" stroke="#63b8ff" d="M227.75,-258.25C249.97,-258.25 275.76,-258.25 296.51,-258.25"/>
<polygon fill="#63b8ff" stroke="#63b8ff" points="296.26,-261.75 306.26,-258.25 296.26,-254.75 296.26,-261.75"/>
</a>
</g>
</g>
<!-- Node8 -->
<g id="Node000008" class="node">
<title>Node8</title>
<g id="a_Node000008"><a xlink:href="../../d8/d40/_grid___computations_8cpp_a7e6f11445e90cefdcb91f369846ec691.html#a7e6f11445e90cefdcb91f369846ec691" target="_top" xlink:title=" ">
<polygon fill="white" stroke="#666666" points="393.38,-116.5 279.12,-116.5 279.12,-86 393.38,-86 393.38,-116.5"/>
<text text-anchor="start" x="287.12" y="-103" font-family="Helvetica,sans-Serif" font-size="10.00">Calculate_Cell_Center</text>
<text text-anchor="middle" x="336.25" y="-91.75" font-family="Helvetica,sans-Serif" font-size="10.00">_Distances</text>
</a>
</g>
</g>
<!-- Node7&#45;&gt;Node8 -->
<g id="edge7_Node000007_Node000008" class="edge">
<title>Node7&#45;&gt;Node8</title>
<g id="a_edge7_Node000007_Node000008"><a xlink:title=" ">
<path fill="none" stroke="#63b8ff" d="M210.58,-132.96C227.21,-128.73 248.07,-123.43 267.94,-118.37"/>
<polygon fill="#63b8ff" stroke="#63b8ff" points="268.56,-121.83 277.39,-115.97 266.83,-115.04 268.56,-121.83"/>
</a>
</g>
</g>
<!-- Node11 -->
<g id="Node000011" class="node">
<title>Node11</title>
<g id="a_Node000011"><a xlink:href="../../d8/d40/_grid___computations_8cpp_a209db16fba143a9833c8d4021624afb0.html#a209db16fba143a9833c8d4021624afb0" target="_top" xlink:title=" ">
<polygon fill="white" stroke="#666666" points="534.62,-153.88 462.38,-153.88 462.38,-134.62 534.62,-134.62 534.62,-153.88"/>
<text text-anchor="middle" x="498.5" y="-140.38" font-family="Helvetica,sans-Serif" font-size="10.00">Check_Cells</text>
</a>
</g>
</g>
<!-- Node7&#45;&gt;Node11 -->
<g id="edge10_Node000007_Node000011" class="edge">
<title>Node7&#45;&gt;Node11</title>
<g id="a_edge10_Node000007_Node000011"><a xlink:title=" ">
<path fill="none" stroke="#63b8ff" d="M210.39,-141.55C267.26,-142.09 385.24,-143.2 450.88,-143.81"/>
<polygon fill="#63b8ff" stroke="#63b8ff" points="450.57,-147.31 460.6,-143.9 450.63,-140.31 450.57,-147.31"/>
</a>
</g>
</g>
<!-- Node12 -->
<g id="Node000012" class="node">
<title>Node12</title>
<g id="a_Node000012"><a xlink:href="../../df/daf/_co___volume___grid___computations_8cpp_a097cceef075e862683dd9f6e95d091d4.html#a097cceef075e862683dd9f6e95d091d4" target="_top" xlink:title=" ">
<polygon fill="white" stroke="#666666" points="396.38,-67.88 276.12,-67.88 276.12,-48.62 396.38,-48.62 396.38,-67.88"/>
<text text-anchor="middle" x="336.25" y="-54.38" font-family="Helvetica,sans-Serif" font-size="10.00">Construct_Co_Volumes</text>
</a>
</g>
</g>
<!-- Node7&#45;&gt;Node12 -->
<g id="edge11_Node000007_Node000012" class="edge">
<title>Node7&#45;&gt;Node12</title>
<g id="a_edge11_Node000007_Node000012"><a xlink:title=" ">
<path fill="none" stroke="#63b8ff" d="M210.41,-135.18C220.39,-132.32 231.03,-128.18 239.75,-122.25 260.93,-107.85 254.65,-91.77 275.75,-77.25 277.94,-75.75 280.25,-74.36 282.64,-73.07"/>
<polygon fill="#63b8ff" stroke="#63b8ff" points="283.84,-76.37 291.45,-69 280.91,-70.02 283.84,-76.37"/>
</a>
</g>
</g>
<!-- Node15 -->
<g id="Node000015" class="node">
<title>Node15</title>
<g id="a_Node000015"><a xlink:href="../../d8/d40/_grid___computations_8cpp_ae5f2b7a0fdbc48f8fdf897222b7ded04.html#ae5f2b7a0fdbc48f8fdf897222b7ded04" target="_top" xlink:title=" ">
<polygon fill="white" stroke="#666666" points="395.25,-228.88 277.25,-228.88 277.25,-209.62 395.25,-209.62 395.25,-228.88"/>
<text text-anchor="middle" x="336.25" y="-215.38" font-family="Helvetica,sans-Serif" font-size="10.00">Construct_Ghost_Cells</text>
</a>
</g>
</g>
<!-- Node7&#45;&gt;Node15 -->
<g id="edge14_Node000007_Node000015" class="edge">
<title>Node7&#45;&gt;Node15</title>
<g id="a_edge14_Node000007_Node000015"><a xlink:title=" ">
<path fill="none" stroke="#63b8ff" d="M210.61,-147C220.49,-149.71 231.02,-153.62 239.75,-159.25 260.41,-172.58 255.16,-187.82 275.75,-201.25 277.55,-202.42 279.42,-203.52 281.36,-204.55"/>
<polygon fill="#63b8ff" stroke="#63b8ff" points="279.46,-207.53 290.01,-208.51 282.37,-201.16 279.46,-207.53"/>
</a>
</g>
</g>
<!-- Node17 -->
<g id="Node000017" class="node">
<title>Node17</title>
<g id="a_Node000017"><a xlink:href="../../d8/d40/_grid___computations_8cpp_a663d4b3ae06e638c2f2e82ad437e831e.html#a663d4b3ae06e638c2f2e82ad437e831e" target="_top" xlink:title="Reads the input grid file and constructs physical cells, evaluates face areas, normals,...">
<polygon fill="white" stroke="#666666" points="367.5,-191.88 305,-191.88 305,-172.62 367.5,-172.62 367.5,-191.88"/>
<text text-anchor="middle" x="336.25" y="-178.38" font-family="Helvetica,sans-Serif" font-size="10.00">Read_Grid</text>
</a>
</g>
</g>
<!-- Node7&#45;&gt;Node17 -->
<g id="edge16_Node000007_Node000017" class="edge">
<title>Node7&#45;&gt;Node17</title>
<g id="a_edge16_Node000007_Node000017"><a xlink:title=" ">
<path fill="none" stroke="#63b8ff" d="M210.58,-149.75C234.64,-156.02 267.58,-164.61 293.56,-171.38"/>
<polygon fill="#63b8ff" stroke="#63b8ff" points="292.56,-174.74 303.11,-173.87 294.32,-167.96 292.56,-174.74"/>
</a>
</g>
</g>
<!-- Node9 -->
<g id="Node000009" class="node">
<title>Node9</title>
<g id="a_Node000009"><a xlink:href="../../d8/d40/_grid___computations_8cpp_a1f273579608200866e02e34f16a3eb6b.html#a1f273579608200866e02e34f16a3eb6b" target="_top" xlink:title=" ">
<polygon fill="white" stroke="#666666" points="564.25,-110.88 432.75,-110.88 432.75,-91.62 564.25,-91.62 564.25,-110.88"/>
<text text-anchor="middle" x="498.5" y="-97.38" font-family="Helvetica,sans-Serif" font-size="10.00">Distance_Between_Points</text>
</a>
</g>
</g>
<!-- Node8&#45;&gt;Node9 -->
<g id="edge8_Node000008_Node000009" class="edge">
<title>Node8&#45;&gt;Node9</title>
<g id="a_edge8_Node000008_Node000009"><a xlink:title=" ">
<path fill="none" stroke="#63b8ff" d="M393.75,-101.25C402.65,-101.25 411.99,-101.25 421.25,-101.25"/>
<polygon fill="#63b8ff" stroke="#63b8ff" points="420.97,-104.75 430.97,-101.25 420.97,-97.75 420.97,-104.75"/>
</a>
</g>
</g>
<!-- Node10 -->
<g id="Node000010" class="node">
<title>Node10</title>
<g id="a_Node000010"><a xlink:href="../../dc/d3a/src_2_utility___files_8cpp_abf34e0b480f7580b0cd4237a76aed670.html#abf34e0b480f7580b0cd4237a76aed670" target="_top" xlink:title=" ">
<polygon fill="white" stroke="#666666" points="636.5,-110.88 600.25,-110.88 600.25,-91.62 636.5,-91.62 636.5,-110.88"/>
<text text-anchor="middle" x="618.38" y="-97.38" font-family="Helvetica,sans-Serif" font-size="10.00">Print</text>
</a>
</g>
</g>
<!-- Node9&#45;&gt;Node10 -->
<g id="edge9_Node000009_Node000010" class="edge">
<title>Node9&#45;&gt;Node10</title>
<g id="a_edge9_Node000009_Node000010"><a xlink:title=" ">
<path fill="none" stroke="#63b8ff" d="M564.64,-101.25C572.97,-101.25 581.12,-101.25 588.44,-101.25"/>
<polygon fill="#63b8ff" stroke="#63b8ff" points="588.32,-104.75 598.32,-101.25 588.32,-97.75 588.32,-104.75"/>
</a>
</g>
</g>
<!-- Node13 -->
<g id="Node000013" class="node">
<title>Node13</title>
<g id="a_Node000013"><a xlink:href="../../d8/d40/_grid___computations_8cpp_a0d19b951f556ac7a935819a38d2e1a6f.html#a0d19b951f556ac7a935819a38d2e1a6f" target="_top" xlink:title=" ">
<polygon fill="white" stroke="#666666" points="541.38,-70.88 455.62,-70.88 455.62,-51.62 541.38,-51.62 541.38,-70.88"/>
<text text-anchor="middle" x="498.5" y="-57.38" font-family="Helvetica,sans-Serif" font-size="10.00">Construct_Face</text>
</a>
</g>
</g>
<!-- Node12&#45;&gt;Node13 -->
<g id="edge12_Node000012_Node000013" class="edge">
<title>Node12&#45;&gt;Node13</title>
<g id="a_edge12_Node000012_Node000013"><a xlink:title=" ">
<path fill="none" stroke="#63b8ff" d="M396.47,-59.36C412.1,-59.65 428.87,-59.97 444.17,-60.25"/>
<polygon fill="#63b8ff" stroke="#63b8ff" points="443.96,-63.75 454.02,-60.44 444.09,-56.75 443.96,-63.75"/>
</a>
</g>
</g>
<!-- Node14 -->
<g id="Node000014" class="node">
<title>Node14</title>
<g id="a_Node000014"><a xlink:href="../../d8/d40/_grid___computations_8cpp_a29418163b6fbd0aa81c60026e430d0b8.html#a29418163b6fbd0aa81c60026e430d0b8" target="_top" xlink:title=" ">
<polygon fill="white" stroke="#666666" points="560.88,-33.88 436.12,-33.88 436.12,-14.62 560.88,-14.62 560.88,-33.88"/>
<text text-anchor="middle" x="498.5" y="-20.38" font-family="Helvetica,sans-Serif" font-size="10.00">Evaluate_Cross_Product</text>
</a>
</g>
</g>
<!-- Node12&#45;&gt;Node14 -->
<g id="edge13_Node000012_Node000014" class="edge">
<title>Node12&#45;&gt;Node14</title>
<g id="a_edge13_Node000012_Node000014"><a xlink:title=" ">
<path fill="none" stroke="#63b8ff" d="M384.9,-48.14C401.85,-44.54 421.15,-40.45 438.92,-36.68"/>
<polygon fill="#63b8ff" stroke="#63b8ff" points="439.5,-40.13 448.56,-34.63 438.05,-33.29 439.5,-40.13"/>
</a>
</g>
</g>
<!-- Node16 -->
<g id="Node000016" class="node">
<title>Node16</title>
<g id="a_Node000016"><a xlink:href="../../d8/d40/_grid___computations_8cpp_a2d284e26ddef582519953e8b8300184e.html#a2d284e26ddef582519953e8b8300184e" target="_top" xlink:title=" ">
<polygon fill="white" stroke="#666666" points="539.12,-228.88 457.88,-228.88 457.88,-209.62 539.12,-209.62 539.12,-228.88"/>
<text text-anchor="middle" x="498.5" y="-215.38" font-family="Helvetica,sans-Serif" font-size="10.00">Construct_Cell</text>
</a>
</g>
</g>
<!-- Node15&#45;&gt;Node16 -->
<g id="edge15_Node000015_Node000016" class="edge">
<title>Node15&#45;&gt;Node16</title>
<g id="a_edge15_Node000015_Node000016"><a xlink:title=" ">
<path fill="none" stroke="#63b8ff" d="M395.56,-219.25C412.12,-219.25 430.03,-219.25 446.15,-219.25"/>
<polygon fill="#63b8ff" stroke="#63b8ff" points="446.01,-222.75 456.01,-219.25 446.01,-215.75 446.01,-222.75"/>
</a>
</g>
</g>
<!-- Node17&#45;&gt;Node11 -->
<g id="edge17_Node000017_Node000011" class="edge">
<title>Node17&#45;&gt;Node11</title>
<g id="a_edge17_Node000017_Node000011"><a xlink:title=" ">
<path fill="none" stroke="#63b8ff" d="M367.77,-175.01C391.29,-169.44 424.21,-161.63 451,-155.28"/>
<polygon fill="#63b8ff" stroke="#63b8ff" points="451.67,-158.71 460.59,-153 450.06,-151.9 451.67,-158.71"/>
</a>
</g>
</g>
<!-- Node17&#45;&gt;Node16 -->
<g id="edge18_Node000017_Node000016" class="edge">
<title>Node17&#45;&gt;Node16</title>
<g id="a_edge18_Node000017_Node000016"><a xlink:title=" ">
<path fill="none" stroke="#63b8ff" d="M367.77,-189.3C389.92,-194.41 420.41,-201.45 446.26,-207.42"/>
<polygon fill="#63b8ff" stroke="#63b8ff" points="445.39,-210.81 455.92,-209.65 446.96,-203.99 445.39,-210.81"/>
</a>
</g>
</g>
<!-- Node18 -->
<g id="Node000018" class="node">
<title>Node18</title>
<g id="a_Node000018"><a xlink:href="../../d8/d40/_grid___computations_8cpp_aa376223dcb91990013ac6549090115ea.html#aa376223dcb91990013ac6549090115ea" target="_top" xlink:title=" ">
<polygon fill="white" stroke="#666666" points="547.75,-191.88 449.25,-191.88 449.25,-172.62 547.75,-172.62 547.75,-191.88"/>
<text text-anchor="middle" x="498.5" y="-178.38" font-family="Helvetica,sans-Serif" font-size="10.00">Conversion_Factor</text>
</a>
</g>
</g>
<!-- Node17&#45;&gt;Node18 -->
<g id="edge19_Node000017_Node000018" class="edge">
<title>Node17&#45;&gt;Node18</title>
<g id="a_edge19_Node000017_Node000018"><a xlink:title=" ">
<path fill="none" stroke="#63b8ff" d="M367.77,-182.25C387.44,-182.25 413.67,-182.25 437.41,-182.25"/>
<polygon fill="#63b8ff" stroke="#63b8ff" points="437.3,-185.75 447.3,-182.25 437.3,-178.75 437.3,-185.75"/>
</a>
</g>
</g>
<!-- Node21 -->
<g id="Node000021" class="node">
<title>Node21</title>
<g id="a_Node000021"><a xlink:href="../../d4/d5d/_grid___refine___functions_8cpp_add867401ba6818c3d6480ec342cb0eaa.html#add867401ba6818c3d6480ec342cb0eaa" target="_top" xlink:title="Identifies the secondary neighbors of a given cell to evaluate second gradients.">
<polygon fill="white" stroke="#666666" points="396.75,-30.5 275.75,-30.5 275.75,0 396.75,0 396.75,-30.5"/>
<text text-anchor="start" x="283.75" y="-17" font-family="Helvetica,sans-Serif" font-size="10.00">Identify_Neighbours</text>
<text text-anchor="middle" x="336.25" y="-5.75" font-family="Helvetica,sans-Serif" font-size="10.00">_For_Second_Gradients</text>
</a>
</g>
</g>
<!-- Node20&#45;&gt;Node21 -->
<g id="edge22_Node000020_Node000021" class="edge">
<title>Node20&#45;&gt;Node21</title>
<g id="a_edge22_Node000020_Node000021"><a xlink:title=" ">
<path fill="none" stroke="#63b8ff" d="M203.26,-48.82C219.9,-44.59 242.57,-38.82 264.43,-33.26"/>
<polygon fill="#63b8ff" stroke="#63b8ff" points="265.11,-36.7 273.94,-30.85 263.39,-29.92 265.11,-36.7"/>
</a>
</g>
</g>
</g>
</svg>
