<?xml version="1.0" encoding="UTF-8" standalone="no"?>
<!DOCTYPE svg PUBLIC "-//W3C//DTD SVG 1.1//EN"
 "http://www.w3.org/Graphics/SVG/1.1/DTD/svg11.dtd">
<!-- Generated by graphviz version 12.2.1 (20241206.2353)
 -->
<!-- Title: main Pages: 1 -->
<svg width="612pt" height="606pt"
 viewBox="0.00 0.00 612.00 606.25" xmlns="http://www.w3.org/2000/svg" xmlns:xlink="http://www.w3.org/1999/xlink">
<g id="graph0" class="graph" transform="scale(1 1) rotate(0) translate(4 602.25)">
<title>main</title>
<!-- Node1 -->
<g id="Node000001" class="node">
<title>Node1</title>
<g id="a_Node000001"><a xlink:title=" ">
<polygon fill="#999999" stroke="#666666" points="37,-283.25 0,-283.25 0,-264 37,-264 37,-283.25"/>
<text text-anchor="middle" x="18.5" y="-269.75" font-family="Helvetica,sans-Serif" font-size="10.00">main</text>
</a>
</g>
</g>
<!-- Node2 -->
<g id="Node000002" class="node">
<title>Node2</title>
<g id="a_Node000002"><a xlink:href="../../d4/d9e/_flow___over___cylinder_8cpp_a36606ab9028521932c9b05107d8e2c58.html#a36606ab9028521932c9b05107d8e2c58" target="_top" xlink:title=" ">
<polygon fill="white" stroke="#666666" points="180.88,-557.25 110.88,-557.25 110.88,-538 180.88,-538 180.88,-557.25"/>
<text text-anchor="middle" x="145.88" y="-543.75" font-family="Helvetica,sans-Serif" font-size="10.00">Append_List</text>
</a>
</g>
</g>
<!-- Node1&#45;&gt;Node2 -->
<g id="edge1_Node000001_Node000002" class="edge">
<title>Node1&#45;&gt;Node2</title>
<g id="a_edge1_Node000001_Node000002"><a xlink:title=" ">
<path fill="none" stroke="#63b8ff" d="M20.19,-283.47C23.36,-325.96 37.91,-493.13 73,-529.62 80.06,-536.97 89.63,-541.49 99.48,-544.24"/>
<polygon fill="#63b8ff" stroke="#63b8ff" points="98.61,-547.63 109.13,-546.32 100.09,-540.79 98.61,-547.63"/>
</a>
</g>
</g>
<!-- Node3 -->
<g id="Node000003" class="node">
<title>Node3</title>
<g id="a_Node000003"><a xlink:href="../../dd/db4/class_line_a11ee9e238e8e0d712b52ae99077355ee.html#a11ee9e238e8e0d712b52ae99077355ee" target="_top" xlink:title=" ">
<polygon fill="white" stroke="#666666" points="184.62,-520.25 107.12,-520.25 107.12,-501 184.62,-501 184.62,-520.25"/>
<text text-anchor="middle" x="145.88" y="-506.75" font-family="Helvetica,sans-Serif" font-size="10.00">Line::generate</text>
</a>
</g>
</g>
<!-- Node1&#45;&gt;Node3 -->
<g id="edge2_Node000001_Node000003" class="edge">
<title>Node1&#45;&gt;Node3</title>
<g id="a_edge2_Node000001_Node000003"><a xlink:title=" ">
<path fill="none" stroke="#63b8ff" d="M19.28,-283.45C19.08,-315.38 22.62,-417.62 73,-477.62 79.41,-485.27 87.98,-491.23 96.95,-495.85"/>
<polygon fill="#63b8ff" stroke="#63b8ff" points="95.24,-498.91 105.79,-499.88 98.15,-492.55 95.24,-498.91"/>
</a>
</g>
</g>
<!-- Node7 -->
<g id="Node000007" class="node">
<title>Node7</title>
<g id="a_Node000007"><a xlink:href="../../d0/d69/class_point_a006470547553ab6cfaacfea891970f8a.html#a006470547553ab6cfaacfea891970f8a" target="_top" xlink:title=" ">
<polygon fill="white" stroke="#666666" points="359.62,-487.25 294.88,-487.25 294.88,-468 359.62,-468 359.62,-487.25"/>
<text text-anchor="middle" x="327.25" y="-473.75" font-family="Helvetica,sans-Serif" font-size="10.00">Point::Print</text>
</a>
</g>
</g>
<!-- Node1&#45;&gt;Node7 -->
<g id="edge29_Node000001_Node000007" class="edge">
<title>Node1&#45;&gt;Node7</title>
<g id="a_edge29_Node000001_Node000007"><a xlink:title=" ">
<path fill="none" stroke="#63b8ff" d="M19.73,-283.37C20.95,-310.73 28.36,-388.81 73,-427.62 131.92,-478.85 227.93,-483.51 283.27,-481.26"/>
<polygon fill="#63b8ff" stroke="#63b8ff" points="283.44,-484.76 293.25,-480.75 283.08,-477.77 283.44,-484.76"/>
</a>
</g>
</g>
<!-- Node8 -->
<g id="Node000008" class="node">
<title>Node8</title>
<g id="a_Node000008"><a xlink:href="../../d4/d9e/_flow___over___cylinder_8cpp_a198e232411110d9bb41f8028ce67ccd7.html#a198e232411110d9bb41f8028ce67ccd7" target="_top" xlink:title=" ">
<polygon fill="white" stroke="#666666" points="183.88,-418.25 107.88,-418.25 107.88,-399 183.88,-399 183.88,-418.25"/>
<text text-anchor="middle" x="145.88" y="-404.75" font-family="Helvetica,sans-Serif" font-size="10.00">Generate_Arc</text>
</a>
</g>
</g>
<!-- Node1&#45;&gt;Node8 -->
<g id="edge7_Node000001_Node000008" class="edge">
<title>Node1&#45;&gt;Node8</title>
<g id="a_edge7_Node000001_Node000008"><a xlink:title=" ">
<path fill="none" stroke="#63b8ff" d="M21.47,-283.62C26.28,-305.39 40.69,-357.43 73,-385.62 79.8,-391.56 88.15,-395.97 96.72,-399.24"/>
<polygon fill="#63b8ff" stroke="#63b8ff" points="95.56,-402.54 106.15,-402.33 97.74,-395.89 95.56,-402.54"/>
</a>
</g>
</g>
<!-- Node9 -->
<g id="Node000009" class="node">
<title>Node9</title>
<g id="a_Node000009"><a xlink:href="../../da/d74/class_grid_ab929318e5ef123712523299305dfe12f.html#ab929318e5ef123712523299305dfe12f" target="_top" xlink:title=" ">
<polygon fill="white" stroke="#666666" points="197.38,-376.25 94.38,-376.25 94.38,-357 197.38,-357 197.38,-376.25"/>
<text text-anchor="middle" x="145.88" y="-362.75" font-family="Helvetica,sans-Serif" font-size="10.00">Grid::Generate_Grid</text>
</a>
</g>
</g>
<!-- Node1&#45;&gt;Node9 -->
<g id="edge9_Node000001_Node000009" class="edge">
<title>Node1&#45;&gt;Node9</title>
<g id="a_edge9_Node000001_Node000009"><a xlink:title=" ">
<path fill="none" stroke="#63b8ff" d="M23.8,-283.62C31.31,-299.87 48.42,-331.87 73,-348.62 76.29,-350.87 79.83,-352.83 83.52,-354.55"/>
<polygon fill="#63b8ff" stroke="#63b8ff" points="82.22,-357.79 92.8,-358.22 84.79,-351.29 82.22,-357.79"/>
</a>
</g>
</g>
<!-- Node15 -->
<g id="Node000015" class="node">
<title>Node15</title>
<g id="a_Node000015"><a xlink:href="../../da/d74/class_grid_ada712360e862dad0f75e839a3c52fc14.html#ada712360e862dad0f75e839a3c52fc14" target="_top" xlink:title=" ">
<polygon fill="white" stroke="#666666" points="195.88,-339.25 95.88,-339.25 95.88,-320 195.88,-320 195.88,-339.25"/>
<text text-anchor="middle" x="145.88" y="-325.75" font-family="Helvetica,sans-Serif" font-size="10.00">Grid::Get_Grid_List</text>
</a>
</g>
</g>
<!-- Node1&#45;&gt;Node15 -->
<g id="edge15_Node000001_Node000015" class="edge">
<title>Node1&#45;&gt;Node15</title>
<g id="a_edge15_Node000001_Node000015"><a xlink:title=" ">
<path fill="none" stroke="#63b8ff" d="M30.62,-283.42C40.94,-292.03 57.06,-304.29 73,-311.62 76.79,-313.37 80.77,-314.96 84.83,-316.41"/>
<polygon fill="#63b8ff" stroke="#63b8ff" points="83.67,-319.71 94.26,-319.45 85.82,-313.05 83.67,-319.71"/>
</a>
</g>
</g>
<!-- Node16 -->
<g id="Node000016" class="node">
<title>Node16</title>
<g id="a_Node000016"><a xlink:href="../../dd/db4/class_line_a11d1062afe4e7ccc91002d5a2b9b8b7d.html#a11d1062afe4e7ccc91002d5a2b9b8b7d" target="_top" xlink:title=" ">
<polygon fill="white" stroke="#666666" points="196.62,-302.25 95.12,-302.25 95.12,-283 196.62,-283 196.62,-302.25"/>
<text text-anchor="middle" x="145.88" y="-288.75" font-family="Helvetica,sans-Serif" font-size="10.00">Line::Get_Point_list</text>
</a>
</g>
</g>
<!-- Node1&#45;&gt;Node16 -->
<g id="edge16_Node000001_Node000016" class="edge">
<title>Node1&#45;&gt;Node16</title>
<g id="a_edge16_Node000001_Node000016"><a xlink:title=" ">
<path fill="none" stroke="#63b8ff" d="M37.46,-276.35C49.74,-278.21 66.79,-280.79 83.69,-283.35"/>
<polygon fill="#63b8ff" stroke="#63b8ff" points="82.82,-286.76 93.23,-284.8 83.87,-279.84 82.82,-286.76"/>
</a>
</g>
</g>
<!-- Node17 -->
<g id="Node000017" class="node">
<title>Node17</title>
<g id="a_Node000017"><a xlink:href="../../d0/ded/_read___gmsh___file_8cpp_aa3cbdec71b7c56f603b53acd3ce5a070.html#aa3cbdec71b7c56f603b53acd3ce5a070" target="_top" xlink:title=" ">
<polygon fill="white" stroke="#666666" points="183.88,-265.25 107.88,-265.25 107.88,-246 183.88,-246 183.88,-265.25"/>
<text text-anchor="middle" x="145.88" y="-251.75" font-family="Helvetica,sans-Serif" font-size="10.00">Identify_Cells</text>
</a>
</g>
</g>
<!-- Node1&#45;&gt;Node17 -->
<g id="edge17_Node000001_Node000017" class="edge">
<title>Node1&#45;&gt;Node17</title>
<g id="a_edge17_Node000001_Node000017"><a xlink:title=" ">
<path fill="none" stroke="#63b8ff" d="M37.46,-271.05C52.83,-268.84 75.68,-265.56 96.36,-262.59"/>
<polygon fill="#63b8ff" stroke="#63b8ff" points="96.67,-266.08 106.07,-261.2 95.67,-259.15 96.67,-266.08"/>
</a>
</g>
</g>
<!-- Node22 -->
<g id="Node000022" class="node">
<title>Node22</title>
<g id="a_Node000022"><a xlink:href="../../d8/da4/_basic___function___files_2_utility___files_8cpp_a2c3f9cb4a3f7f1208f6141e2c0524be9.html#a2c3f9cb4a3f7f1208f6141e2c0524be9" target="_top" xlink:title=" ">
<polygon fill="white" stroke="#666666" points="198.88,-227.88 92.88,-227.88 92.88,-197.38 198.88,-197.38 198.88,-227.88"/>
<text text-anchor="start" x="100.88" y="-214.38" font-family="Helvetica,sans-Serif" font-size="10.00">Identify_Cells_and</text>
<text text-anchor="middle" x="145.88" y="-203.12" font-family="Helvetica,sans-Serif" font-size="10.00">_Assign_Neighbours</text>
</a>
</g>
</g>
<!-- Node1&#45;&gt;Node22 -->
<g id="edge22_Node000001_Node000022" class="edge">
<title>Node1&#45;&gt;Node22</title>
<g id="a_edge22_Node000001_Node000022"><a xlink:title=" ">
<path fill="none" stroke="#63b8ff" d="M31.63,-263.74C42.09,-255.6 57.85,-244.2 73,-236.62 76.02,-235.11 79.16,-233.67 82.36,-232.28"/>
<polygon fill="#63b8ff" stroke="#63b8ff" points="83.37,-235.65 91.33,-228.65 80.75,-229.16 83.37,-235.65"/>
</a>
</g>
</g>
<!-- Node23 -->
<g id="Node000023" class="node">
<title>Node23</title>
<g id="a_Node000023"><a xlink:href="../../d8/da4/_basic___function___files_2_utility___files_8cpp_ae67cdf70a7e4627a8270c0159591a8e2.html#ae67cdf70a7e4627a8270c0159591a8e2" target="_top" xlink:title=" ">
<polygon fill="white" stroke="#666666" points="218.75,-178.88 73,-178.88 73,-148.38 218.75,-148.38 218.75,-178.88"/>
<text text-anchor="start" x="81" y="-165.38" font-family="Helvetica,sans-Serif" font-size="10.00">Identify_Cells_and</text>
<text text-anchor="middle" x="145.88" y="-154.12" font-family="Helvetica,sans-Serif" font-size="10.00">_Assign_Neighbours_Custom</text>
</a>
</g>
</g>
<!-- Node1&#45;&gt;Node23 -->
<g id="edge23_Node000001_Node000023" class="edge">
<title>Node1&#45;&gt;Node23</title>
<g id="a_edge23_Node000001_Node000023"><a xlink:title=" ">
<path fill="none" stroke="#63b8ff" d="M23.16,-263.7C30.16,-246.08 47.07,-209.25 73,-188.62 74.71,-187.27 76.49,-185.98 78.34,-184.76"/>
<polygon fill="#63b8ff" stroke="#63b8ff" points="79.76,-187.99 86.69,-179.97 76.27,-181.91 79.76,-187.99"/>
</a>
</g>
</g>
<!-- Node24 -->
<g id="Node000024" class="node">
<title>Node24</title>
<g id="a_Node000024"><a xlink:href="../../d0/ded/_read___gmsh___file_8cpp_a9ee7224f2c410fa22e26e50b31924869.html#a9ee7224f2c410fa22e26e50b31924869" target="_top" xlink:title=" ">
<polygon fill="white" stroke="#666666" points="197.38,-130.25 94.38,-130.25 94.38,-111 197.38,-111 197.38,-130.25"/>
<text text-anchor="middle" x="145.88" y="-116.75" font-family="Helvetica,sans-Serif" font-size="10.00">Identify_Neighbours</text>
</a>
</g>
</g>
<!-- Node1&#45;&gt;Node24 -->
<g id="edge24_Node000001_Node000024" class="edge">
<title>Node1&#45;&gt;Node24</title>
<g id="a_edge24_Node000001_Node000024"><a xlink:title=" ">
<path fill="none" stroke="#63b8ff" d="M20.45,-263.84C23.37,-239.12 34.55,-173.67 73,-139.62 76.18,-136.81 79.74,-134.4 83.51,-132.34"/>
<polygon fill="#63b8ff" stroke="#63b8ff" points="84.85,-135.58 92.55,-128.3 81.99,-129.19 84.85,-135.58"/>
</a>
</g>
</g>
<!-- Node29 -->
<g id="Node000029" class="node">
<title>Node29</title>
<g id="a_Node000029"><a xlink:href="../../d4/d9e/_flow___over___cylinder_8cpp_a8ee981e0b0c6268774eb6bd3bbd0ba13.html#a8ee981e0b0c6268774eb6bd3bbd0ba13" target="_top" xlink:title=" ">
<polygon fill="white" stroke="#666666" points="182.75,-93.25 109,-93.25 109,-74 182.75,-74 182.75,-93.25"/>
<text text-anchor="middle" x="145.88" y="-79.75" font-family="Helvetica,sans-Serif" font-size="10.00">Reverse_List</text>
</a>
</g>
</g>
<!-- Node1&#45;&gt;Node29 -->
<g id="edge30_Node000001_Node000029" class="edge">
<title>Node1&#45;&gt;Node29</title>
<g id="a_edge30_Node000001_Node000029"><a xlink:title=" ">
<path fill="none" stroke="#63b8ff" d="M19.43,-263.75C19.8,-234.41 25.05,-146.95 73,-101.62 79.85,-95.15 88.66,-90.91 97.75,-88.15"/>
<polygon fill="#63b8ff" stroke="#63b8ff" points="98.49,-91.58 107.39,-85.83 96.85,-84.77 98.49,-91.58"/>
</a>
</g>
</g>
<!-- Node30 -->
<g id="Node000030" class="node">
<title>Node30</title>
<g id="a_Node000030"><a xlink:href="../../da/d2e/_geometry___header_8h_a7baf55700c2b5381dad50d86595147ce.html#a7baf55700c2b5381dad50d86595147ce" target="_top" xlink:title=" ">
<polygon fill="white" stroke="#666666" points="183.88,-56.25 107.88,-56.25 107.88,-37 183.88,-37 183.88,-56.25"/>
<text text-anchor="middle" x="145.88" y="-42.75" font-family="Helvetica,sans-Serif" font-size="10.00">write_inputfile</text>
</a>
</g>
</g>
<!-- Node1&#45;&gt;Node30 -->
<g id="edge31_Node000001_Node000030" class="edge">
<title>Node1&#45;&gt;Node30</title>
<g id="a_edge31_Node000001_Node000030"><a xlink:title=" ">
<path fill="none" stroke="#63b8ff" d="M20.71,-263.6C25.44,-225.94 43.92,-93.55 73,-64.62 79.41,-58.25 87.72,-54.01 96.41,-51.23"/>
<polygon fill="#63b8ff" stroke="#63b8ff" points="97.19,-54.64 106.03,-48.8 95.47,-47.86 97.19,-54.64"/>
</a>
</g>
</g>
<!-- Node31 -->
<g id="Node000031" class="node">
<title>Node31</title>
<g id="a_Node000031"><a xlink:href="../../da/d2e/_geometry___header_8h_a9ea27b1ee84e8c88611feddac621c2a3.html#a9ea27b1ee84e8c88611feddac621c2a3" target="_top" xlink:title=" ">
<polygon fill="white" stroke="#666666" points="176.75,-19.25 115,-19.25 115,0 176.75,0 176.75,-19.25"/>
<text text-anchor="middle" x="145.88" y="-5.75" font-family="Helvetica,sans-Serif" font-size="10.00">write_VTK</text>
</a>
</g>
</g>
<!-- Node1&#45;&gt;Node31 -->
<g id="edge32_Node000001_Node000031" class="edge">
<title>Node1&#45;&gt;Node31</title>
<g id="a_edge32_Node000001_Node000031"><a xlink:title=" ">
<path fill="none" stroke="#63b8ff" d="M20.29,-263.6C23.8,-221.87 39.24,-62.46 73,-27.62 81.06,-19.31 92.33,-14.62 103.57,-12.03"/>
<polygon fill="#63b8ff" stroke="#63b8ff" points="103.93,-15.52 113.18,-10.34 102.72,-8.62 103.93,-15.52"/>
</a>
</g>
</g>
<!-- Node4 -->
<g id="Node000004" class="node">
<title>Node4</title>
<g id="a_Node000004"><a xlink:href="../../d0/d69/class_point_abbb39fe4de098ab24cd45d251656f080.html#abbb39fe4de098ab24cd45d251656f080" target="_top" xlink:title=" ">
<polygon fill="white" stroke="#666666" points="362.62,-598.25 291.88,-598.25 291.88,-579 362.62,-579 362.62,-598.25"/>
<text text-anchor="middle" x="327.25" y="-584.75" font-family="Helvetica,sans-Serif" font-size="10.00">Point::Get_x</text>
</a>
</g>
</g>
<!-- Node3&#45;&gt;Node4 -->
<g id="edge3_Node000003_Node000004" class="edge">
<title>Node3&#45;&gt;Node4</title>
<g id="a_edge3_Node000003_Node000004"><a xlink:title=" ">
<path fill="none" stroke="#63b8ff" d="M184.81,-515.57C196.31,-518.24 208.57,-522.33 218.75,-528.62 239.66,-541.55 233.85,-557.68 254.75,-570.62 262.48,-575.41 271.42,-578.93 280.31,-581.51"/>
<polygon fill="#63b8ff" stroke="#63b8ff" points="279.43,-584.89 289.98,-583.94 281.13,-578.11 279.43,-584.89"/>
</a>
</g>
</g>
<!-- Node5 -->
<g id="Node000005" class="node">
<title>Node5</title>
<g id="a_Node000005"><a xlink:href="../../d0/d69/class_point_aa0c14d8298c960cc61ebeb5fbe33653b.html#aa0c14d8298c960cc61ebeb5fbe33653b" target="_top" xlink:title=" ">
<polygon fill="white" stroke="#666666" points="362.62,-561.25 291.88,-561.25 291.88,-542 362.62,-542 362.62,-561.25"/>
<text text-anchor="middle" x="327.25" y="-547.75" font-family="Helvetica,sans-Serif" font-size="10.00">Point::Get_y</text>
</a>
</g>
</g>
<!-- Node3&#45;&gt;Node5 -->
<g id="edge4_Node000003_Node000005" class="edge">
<title>Node3&#45;&gt;Node5</title>
<g id="a_edge4_Node000003_Node000005"><a xlink:title=" ">
<path fill="none" stroke="#63b8ff" d="M184.92,-519.32C212.91,-525.72 251.09,-534.45 280.71,-541.22"/>
<polygon fill="#63b8ff" stroke="#63b8ff" points="279.6,-544.55 290.13,-543.37 281.16,-537.73 279.6,-544.55"/>
</a>
</g>
</g>
<!-- Node6 -->
<g id="Node000006" class="node">
<title>Node6</title>
<g id="a_Node000006"><a xlink:href="../../d0/d69/class_point_ac06dbc3b4797e5c498b58c81a70c02a9.html#ac06dbc3b4797e5c498b58c81a70c02a9" target="_top" xlink:title=" ">
<polygon fill="white" stroke="#666666" points="362.62,-524.25 291.88,-524.25 291.88,-505 362.62,-505 362.62,-524.25"/>
<text text-anchor="middle" x="327.25" y="-510.75" font-family="Helvetica,sans-Serif" font-size="10.00">Point::Get_z</text>
</a>
</g>
</g>
<!-- Node3&#45;&gt;Node6 -->
<g id="edge5_Node000003_Node000006" class="edge">
<title>Node3&#45;&gt;Node6</title>
<g id="a_edge5_Node000003_Node000006"><a xlink:title=" ">
<path fill="none" stroke="#63b8ff" d="M184.92,-511.47C212.79,-512.09 250.75,-512.94 280.32,-513.6"/>
<polygon fill="#63b8ff" stroke="#63b8ff" points="280.02,-517.09 290.09,-513.82 280.17,-510.1 280.02,-517.09"/>
</a>
</g>
</g>
<!-- Node3&#45;&gt;Node7 -->
<g id="edge6_Node000003_Node000007" class="edge">
<title>Node3&#45;&gt;Node7</title>
<g id="a_edge6_Node000003_Node000007"><a xlink:title=" ">
<path fill="none" stroke="#63b8ff" d="M184.92,-503.63C213.82,-498.31 253.59,-490.99 283.58,-485.48"/>
<polygon fill="#63b8ff" stroke="#63b8ff" points="283.86,-488.98 293.06,-483.73 282.59,-482.1 283.86,-488.98"/>
</a>
</g>
</g>
<!-- Node8&#45;&gt;Node7 -->
<g id="edge8_Node000008_Node000007" class="edge">
<title>Node8&#45;&gt;Node7</title>
<g id="a_edge8_Node000008_Node000007"><a xlink:title=" ">
<path fill="none" stroke="#63b8ff" d="M165.12,-418.6C186.2,-429.81 222.18,-447.95 254.75,-459.62 263.93,-462.92 273.98,-465.84 283.57,-468.33"/>
<polygon fill="#63b8ff" stroke="#63b8ff" points="282.51,-471.67 293.06,-470.68 284.19,-464.88 282.51,-471.67"/>
</a>
</g>
</g>
<!-- Node10 -->
<g id="Node000010" class="node">
<title>Node10</title>
<g id="a_Node000010"><a xlink:href="../../da/d74/class_grid_a90c5271ba6fdba6112a562693bd9a0f2.html#a90c5271ba6fdba6112a562693bd9a0f2" target="_top" xlink:title=" ">
<polygon fill="white" stroke="#666666" points="361.88,-450.25 292.62,-450.25 292.62,-431 361.88,-431 361.88,-450.25"/>
<text text-anchor="middle" x="327.25" y="-436.75" font-family="Helvetica,sans-Serif" font-size="10.00">Grid::Elliptic</text>
</a>
</g>
</g>
<!-- Node9&#45;&gt;Node10 -->
<g id="edge10_Node000009_Node000010" class="edge">
<title>Node9&#45;&gt;Node10</title>
<g id="a_edge10_Node000009_Node000010"><a xlink:title=" ">
<path fill="none" stroke="#63b8ff" d="M188.42,-376.68C198.69,-380.03 209.42,-384.3 218.75,-389.62 237.35,-400.23 235.89,-411.49 254.75,-421.62 262.95,-426.03 272.25,-429.47 281.35,-432.13"/>
<polygon fill="#63b8ff" stroke="#63b8ff" points="280.26,-435.46 290.82,-434.62 282.04,-428.69 280.26,-435.46"/>
</a>
</g>
</g>
<!-- Node11 -->
<g id="Node000011" class="node">
<title>Node11</title>
<g id="a_Node000011"><a xlink:href="../../da/d74/class_grid_ac1e989c2a3c81fd365d9ae57e7f15b61.html#ac1e989c2a3c81fd365d9ae57e7f15b61" target="_top" xlink:title=" ">
<polygon fill="white" stroke="#666666" points="379.88,-412.88 274.62,-412.88 274.62,-382.38 379.88,-382.38 379.88,-412.88"/>
<text text-anchor="start" x="282.62" y="-399.38" font-family="Helvetica,sans-Serif" font-size="10.00">Grid::Estimate_Error</text>
<text text-anchor="middle" x="327.25" y="-388.12" font-family="Helvetica,sans-Serif" font-size="10.00">_and_Update</text>
</a>
</g>
</g>
<!-- Node9&#45;&gt;Node11 -->
<g id="edge11_Node000009_Node000011" class="edge">
<title>Node9&#45;&gt;Node11</title>
<g id="a_edge11_Node000009_Node000011"><a xlink:title=" ">
<path fill="none" stroke="#63b8ff" d="M197.8,-375.43C218.08,-378.93 241.63,-383 262.99,-386.69"/>
<polygon fill="#63b8ff" stroke="#63b8ff" points="262.32,-390.13 272.77,-388.38 263.52,-383.23 262.32,-390.13"/>
</a>
</g>
</g>
<!-- Node12 -->
<g id="Node000012" class="node">
<title>Node12</title>
<g id="a_Node000012"><a xlink:href="../../da/d74/class_grid_ab7768e9853f9b8e4530a25d242fdea1b.html#ab7768e9853f9b8e4530a25d242fdea1b" target="_top" xlink:title=" ">
<polygon fill="white" stroke="#666666" points="389.25,-364.25 265.25,-364.25 265.25,-345 389.25,-345 389.25,-364.25"/>
<text text-anchor="middle" x="327.25" y="-350.75" font-family="Helvetica,sans-Serif" font-size="10.00">Grid::Generate_Grid_List</text>
</a>
</g>
</g>
<!-- Node9&#45;&gt;Node12 -->
<g id="edge12_Node000009_Node000012" class="edge">
<title>Node9&#45;&gt;Node12</title>
<g id="a_edge12_Node000009_Node000012"><a xlink:title=" ">
<path fill="none" stroke="#63b8ff" d="M197.8,-363.22C215.12,-362.06 234.84,-360.74 253.54,-359.49"/>
<polygon fill="#63b8ff" stroke="#63b8ff" points="253.76,-362.98 263.5,-358.82 253.29,-356 253.76,-362.98"/>
</a>
</g>
</g>
<!-- Node13 -->
<g id="Node000013" class="node">
<title>Node13</title>
<g id="a_Node000013"><a xlink:href="../../da/d74/class_grid_a246dcc7405f9142fc624bafb817ed9fe.html#a246dcc7405f9142fc624bafb817ed9fe" target="_top" xlink:title=" ">
<polygon fill="white" stroke="#666666" points="388.12,-326.88 266.38,-326.88 266.38,-296.38 388.12,-296.38 388.12,-326.88"/>
<text text-anchor="start" x="274.38" y="-313.38" font-family="Helvetica,sans-Serif" font-size="10.00">Grid::Periodic_Boundary</text>
<text text-anchor="middle" x="327.25" y="-302.12" font-family="Helvetica,sans-Serif" font-size="10.00">_Condition</text>
</a>
</g>
</g>
<!-- Node9&#45;&gt;Node13 -->
<g id="edge13_Node000009_Node000013" class="edge">
<title>Node9&#45;&gt;Node13</title>
<g id="a_edge13_Node000009_Node000013"><a xlink:title=" ">
<path fill="none" stroke="#63b8ff" d="M190.02,-356.57C199.53,-354.15 209.52,-351.44 218.75,-348.62 235.02,-343.66 238.69,-341.22 254.75,-335.62 259.13,-334.1 263.67,-332.53 268.24,-330.97"/>
<polygon fill="#63b8ff" stroke="#63b8ff" points="269.12,-334.37 277.46,-327.84 266.86,-327.74 269.12,-334.37"/>
</a>
</g>
</g>
<!-- Node14 -->
<g id="Node000014" class="node">
<title>Node14</title>
<g id="a_Node000014"><a xlink:href="../../da/d74/class_grid_a908819a747032ceba240db6d955ff931.html#a908819a747032ceba240db6d955ff931" target="_top" xlink:title=" ">
<polygon fill="white" stroke="#666666" points="354.75,-278.25 299.75,-278.25 299.75,-259 354.75,-259 354.75,-278.25"/>
<text text-anchor="middle" x="327.25" y="-264.75" font-family="Helvetica,sans-Serif" font-size="10.00">Grid::TFI</text>
</a>
</g>
</g>
<!-- Node9&#45;&gt;Node14 -->
<g id="edge14_Node000009_Node000014" class="edge">
<title>Node9&#45;&gt;Node14</title>
<g id="a_edge14_Node000009_Node000014"><a xlink:title=" ">
<path fill="none" stroke="#63b8ff" d="M197.51,-359.38C205.09,-356.8 212.46,-353.32 218.75,-348.62 243.97,-329.79 229.66,-306.64 254.75,-287.62 264.35,-280.35 276.5,-275.86 288.06,-273.08"/>
<polygon fill="#63b8ff" stroke="#63b8ff" points="288.69,-276.52 297.81,-271.14 287.32,-269.66 288.69,-276.52"/>
</a>
</g>
</g>
<!-- Node18 -->
<g id="Node000018" class="node">
<title>Node18</title>
<g id="a_Node000018"><a xlink:href="../../d8/d40/_grid___computations_8cpp_a2d284e26ddef582519953e8b8300184e.html#a2d284e26ddef582519953e8b8300184e" target="_top" xlink:title=" ">
<polygon fill="white" stroke="#666666" points="367.88,-241.25 286.62,-241.25 286.62,-222 367.88,-222 367.88,-241.25"/>
<text text-anchor="middle" x="327.25" y="-227.75" font-family="Helvetica,sans-Serif" font-size="10.00">Construct_Cell</text>
</a>
</g>
</g>
<!-- Node17&#45;&gt;Node18 -->
<g id="edge18_Node000017_Node000018" class="edge">
<title>Node17&#45;&gt;Node18</title>
<g id="a_edge18_Node000017_Node000018"><a xlink:title=" ">
<path fill="none" stroke="#63b8ff" d="M184.04,-250.65C210.4,-247.12 246.11,-242.35 275.15,-238.46"/>
<polygon fill="#63b8ff" stroke="#63b8ff" points="275.38,-241.96 284.83,-237.17 274.45,-235.02 275.38,-241.96"/>
</a>
</g>
</g>
<!-- Node19 -->
<g id="Node000019" class="node">
<title>Node19</title>
<g id="a_Node000019"><a xlink:href="../../d8/d40/_grid___computations_8cpp_a614d9bfab5b0ee048b9e08a296757c42.html#a614d9bfab5b0ee048b9e08a296757c42" target="_top" xlink:title=" ">
<polygon fill="white" stroke="#666666" points="396,-204.25 258.5,-204.25 258.5,-185 396,-185 396,-204.25"/>
<text text-anchor="middle" x="327.25" y="-190.75" font-family="Helvetica,sans-Serif" font-size="10.00">Sort_Points_AntiClockWise</text>
</a>
</g>
</g>
<!-- Node17&#45;&gt;Node19 -->
<g id="edge19_Node000017_Node000019" class="edge">
<title>Node17&#45;&gt;Node19</title>
<g id="a_edge19_Node000017_Node000019"><a xlink:title=" ">
<path fill="none" stroke="#63b8ff" d="M184.24,-248.23C195.6,-245.33 207.92,-241.5 218.75,-236.62 236.28,-228.73 237.17,-220.42 254.75,-212.62 258.48,-210.97 262.39,-209.45 266.38,-208.05"/>
<polygon fill="#63b8ff" stroke="#63b8ff" points="267.14,-211.49 275.6,-205.11 265.01,-204.82 267.14,-211.49"/>
</a>
</g>
</g>
<!-- Node20 -->
<g id="Node000020" class="node">
<title>Node20</title>
<g id="a_Node000020"><a xlink:href="../../d8/d40/_grid___computations_8cpp_a0bdffb27693c14d6cb4ef62eb5bd5d7f.html#a0bdffb27693c14d6cb4ef62eb5bd5d7f" target="_top" xlink:title="Sorts a set of points in anti&#45;clockwise order around their centroid.">
<polygon fill="white" stroke="#666666" points="604,-222.25 435.75,-222.25 435.75,-203 604,-203 604,-222.25"/>
<text text-anchor="middle" x="519.88" y="-208.75" font-family="Helvetica,sans-Serif" font-size="10.00">Are_Points_Sorted_AntiClockWise</text>
</a>
</g>
</g>
<!-- Node19&#45;&gt;Node20 -->
<g id="edge20_Node000019_Node000020" class="edge">
<title>Node19&#45;&gt;Node20</title>
<g id="a_edge20_Node000019_Node000020"><a xlink:title=" ">
<path fill="none" stroke="#63b8ff" d="M396.26,-201.05C405.31,-201.9 414.71,-202.79 424.11,-203.68"/>
<polygon fill="#63b8ff" stroke="#63b8ff" points="423.75,-207.16 434.04,-204.61 424.41,-200.19 423.75,-207.16"/>
</a>
</g>
</g>
<!-- Node21 -->
<g id="Node000021" class="node">
<title>Node21</title>
<g id="a_Node000021"><a xlink:href="../../d8/d40/_grid___computations_8cpp_a4dd07afd2a0f939b4d47bfa1088912c4.html#a4dd07afd2a0f939b4d47bfa1088912c4" target="_top" xlink:title=" ">
<polygon fill="white" stroke="#666666" points="568.75,-185.25 471,-185.25 471,-166 568.75,-166 568.75,-185.25"/>
<text text-anchor="middle" x="519.88" y="-171.75" font-family="Helvetica,sans-Serif" font-size="10.00">Compute_Centroid</text>
</a>
</g>
</g>
<!-- Node19&#45;&gt;Node21 -->
<g id="edge21_Node000019_Node000021" class="edge">
<title>Node19&#45;&gt;Node21</title>
<g id="a_edge21_Node000019_Node000021"><a xlink:title=" ">
<path fill="none" stroke="#63b8ff" d="M396.26,-187.85C416.82,-185.8 439.23,-183.56 459.2,-181.57"/>
<polygon fill="#63b8ff" stroke="#63b8ff" points="459.53,-185.06 469.14,-180.58 458.84,-178.09 459.53,-185.06"/>
</a>
</g>
</g>
<!-- Node25 -->
<g id="Node000025" class="node">
<title>Node25</title>
<g id="a_Node000025"><a xlink:href="../../d0/ded/_read___gmsh___file_8cpp_ae9fe416efcf214282b13d235773a6bf6.html#ae9fe416efcf214282b13d235773a6bf6" target="_top" xlink:title=" ">
<polygon fill="white" stroke="#666666" points="364.12,-167.25 290.38,-167.25 290.38,-148 364.12,-148 364.12,-167.25"/>
<text text-anchor="middle" x="327.25" y="-153.75" font-family="Helvetica,sans-Serif" font-size="10.00">BoundingBox</text>
</a>
</g>
</g>
<!-- Node24&#45;&gt;Node25 -->
<g id="edge25_Node000024_Node000025" class="edge">
<title>Node24&#45;&gt;Node25</title>
<g id="a_edge25_Node000024_Node000025"><a xlink:title=" ">
<path fill="none" stroke="#63b8ff" d="M195.89,-130.74C221.82,-136.08 253.51,-142.62 279.15,-147.91"/>
<polygon fill="#63b8ff" stroke="#63b8ff" points="278.12,-151.27 288.62,-149.86 279.53,-144.41 278.12,-151.27"/>
</a>
</g>
</g>
<!-- Node26 -->
<g id="Node000026" class="node">
<title>Node26</title>
<g id="a_Node000026"><a xlink:href="../../d0/ded/_read___gmsh___file_8cpp_a60baebfdb081653a59cb67c626911ad6.html#a60baebfdb081653a59cb67c626911ad6" target="_top" xlink:title=" ">
<polygon fill="white" stroke="#666666" points="399.75,-130.25 254.75,-130.25 254.75,-111 399.75,-111 399.75,-130.25"/>
<text text-anchor="middle" x="327.25" y="-116.75" font-family="Helvetica,sans-Serif" font-size="10.00">Classify_Domain_Boundaries</text>
</a>
</g>
</g>
<!-- Node24&#45;&gt;Node26 -->
<g id="edge26_Node000024_Node000026" class="edge">
<title>Node24&#45;&gt;Node26</title>
<g id="a_edge26_Node000024_Node000026"><a xlink:title=" ">
<path fill="none" stroke="#63b8ff" d="M197.8,-120.62C211.97,-120.62 227.73,-120.62 243.23,-120.62"/>
<polygon fill="#63b8ff" stroke="#63b8ff" points="242.93,-124.13 252.93,-120.63 242.93,-117.13 242.93,-124.13"/>
</a>
</g>
</g>
<!-- Node27 -->
<g id="Node000027" class="node">
<title>Node27</title>
<g id="a_Node000027"><a xlink:href="../../d0/ded/_read___gmsh___file_8cpp_adc1985827312d4d72fa6eb4ce492fc5e.html#adc1985827312d4d72fa6eb4ce492fc5e" target="_top" xlink:title=" ">
<polygon fill="white" stroke="#666666" points="374.62,-93.25 279.88,-93.25 279.88,-74 374.62,-74 374.62,-93.25"/>
<text text-anchor="middle" x="327.25" y="-79.75" font-family="Helvetica,sans-Serif" font-size="10.00">mapFacesToCells</text>
</a>
</g>
</g>
<!-- Node24&#45;&gt;Node27 -->
<g id="edge27_Node000024_Node000027" class="edge">
<title>Node24&#45;&gt;Node27</title>
<g id="a_edge27_Node000024_Node000027"><a xlink:title=" ">
<path fill="none" stroke="#63b8ff" d="M195.89,-110.51C218.26,-105.9 244.92,-100.4 268.29,-95.58"/>
<polygon fill="#63b8ff" stroke="#63b8ff" points="268.89,-99.03 277.98,-93.58 267.47,-92.18 268.89,-99.03"/>
</a>
</g>
</g>
<!-- Node28 -->
<g id="Node000028" class="node">
<title>Node28</title>
<g id="a_Node000028"><a xlink:href="../../d0/ded/_read___gmsh___file_8cpp_a611404ed219cd91fe765c665b1983e05.html#a611404ed219cd91fe765c665b1983e05" target="_top" xlink:title=" ">
<polygon fill="white" stroke="#666666" points="364.88,-56.25 289.62,-56.25 289.62,-37 364.88,-37 364.88,-56.25"/>
<text text-anchor="middle" x="327.25" y="-42.75" font-family="Helvetica,sans-Serif" font-size="10.00">printCellEntry</text>
</a>
</g>
</g>
<!-- Node24&#45;&gt;Node28 -->
<g id="edge28_Node000024_Node000028" class="edge">
<title>Node24&#45;&gt;Node28</title>
<g id="a_edge28_Node000024_Node000028"><a xlink:title=" ">
<path fill="none" stroke="#63b8ff" d="M197.79,-111.73C205.1,-109.37 212.31,-106.39 218.75,-102.62 238.84,-90.89 234.67,-76.38 254.75,-64.62 261.97,-60.4 270.15,-57.16 278.35,-54.68"/>
<polygon fill="#63b8ff" stroke="#63b8ff" points="279.2,-58.07 287.97,-52.13 277.41,-51.31 279.2,-58.07"/>
</a>
</g>
</g>
</g>
</svg>
