<?xml version="1.0" encoding="UTF-8" standalone="no"?>
<!DOCTYPE svg PUBLIC "-//W3C//DTD SVG 1.1//EN"
 "http://www.w3.org/Graphics/SVG/1.1/DTD/svg11.dtd">
<!-- Generated by graphviz version 12.2.1 (20241206.2353)
 -->
<!-- Title: Shock_Reflection_2D Pages: 1 -->
<svg width="433pt" height="64pt"
 viewBox="0.00 0.00 432.75 64.25" xmlns="http://www.w3.org/2000/svg" xmlns:xlink="http://www.w3.org/1999/xlink">
<g id="graph0" class="graph" transform="scale(1 1) rotate(0) translate(4 60.25)">
<title>Shock_Reflection_2D</title>
<!-- Node1 -->
<g id="Node000001" class="node">
<title>Node1</title>
<g id="a_Node000001"><a xlink:title=" ">
<polygon fill="#999999" stroke="#666666" points="424.75,-38.25 313.5,-38.25 313.5,-19 424.75,-19 424.75,-38.25"/>
<text text-anchor="middle" x="369.12" y="-24.75" font-family="Helvetica,sans-Serif" font-size="10.00">Shock_Reflection_2D</text>
</a>
</g>
</g>
<!-- Node2 -->
<g id="Node000002" class="node">
<title>Node2</title>
<g id="a_Node000002"><a xlink:href="../../dd/dbf/_euler___python___wrapper_8cpp_ac5ccb50c3be270f798e054dd36987442.html#ac5ccb50c3be270f798e054dd36987442" target="_top" xlink:title=" ">
<polygon fill="white" stroke="#666666" points="185.75,-56.25 73,-56.25 73,-37 185.75,-37 185.75,-56.25"/>
<text text-anchor="middle" x="129.38" y="-42.75" font-family="Helvetica,sans-Serif" font-size="10.00">PYBIND11_MODULE</text>
</a>
</g>
</g>
<!-- Node1&#45;&gt;Node2 -->
<g id="edge1_Node000001_Node000002" class="edge">
<title>Node1&#45;&gt;Node2</title>
<g id="a_edge1_Node000001_Node000002"><a xlink:title=" ">
<path fill="none" stroke="#63b8ff" d="M302.25,-33.61C265.77,-36.37 220.92,-39.77 186.18,-42.4"/>
<polygon fill="#63b8ff" stroke="#63b8ff" points="302.07,-37.14 311.77,-32.89 301.54,-30.16 302.07,-37.14"/>
</a>
</g>
</g>
<!-- Node3 -->
<g id="Node000003" class="node">
<title>Node3</title>
<g id="a_Node000003"><a xlink:href="../../d0/de9/_configuration___read_8cpp_a32d98c169e6f866c6411c53d5758292e.html#a32d98c169e6f866c6411c53d5758292e" target="_top" xlink:title=" ">
<polygon fill="white" stroke="#666666" points="277.5,-19.25 221.75,-19.25 221.75,0 277.5,0 277.5,-19.25"/>
<text text-anchor="middle" x="249.62" y="-5.75" font-family="Helvetica,sans-Serif" font-size="10.00">testCase</text>
</a>
</g>
</g>
<!-- Node1&#45;&gt;Node3 -->
<g id="edge2_Node000001_Node000003" class="edge">
<title>Node1&#45;&gt;Node3</title>
<g id="a_edge2_Node000001_Node000003"><a xlink:title=" ">
<path fill="none" stroke="#63b8ff" d="M301.91,-17.92C293.4,-16.54 285.11,-15.2 277.75,-14.01"/>
<polygon fill="#63b8ff" stroke="#63b8ff" points="301.23,-21.35 311.67,-19.5 302.35,-14.44 301.23,-21.35"/>
</a>
</g>
</g>
<!-- Node3&#45;&gt;Node2 -->
<g id="edge3_Node000003_Node000002" class="edge">
<title>Node3&#45;&gt;Node2</title>
<g id="a_edge3_Node000003_Node000002"><a xlink:title=" ">
<path fill="none" stroke="#63b8ff" d="M210.64,-21.51C195.09,-26.38 177.29,-31.94 162.41,-36.6"/>
<polygon fill="#63b8ff" stroke="#63b8ff" points="211.55,-24.89 220.05,-18.57 209.46,-18.21 211.55,-24.89"/>
</a>
</g>
</g>
<!-- Node4 -->
<g id="Node000004" class="node">
<title>Node4</title>
<g id="a_Node000004"><a xlink:href="../../d5/d12/_main_8cpp_a35d775933750ace299102f06a1712663.html#a35d775933750ace299102f06a1712663" target="_top" xlink:title=" ">
<polygon fill="white" stroke="#666666" points="158,-19.25 100.75,-19.25 100.75,0 158,0 158,-19.25"/>
<text text-anchor="middle" x="129.38" y="-5.75" font-family="Helvetica,sans-Serif" font-size="10.00">runSolver</text>
</a>
</g>
</g>
<!-- Node3&#45;&gt;Node4 -->
<g id="edge4_Node000003_Node000004" class="edge">
<title>Node3&#45;&gt;Node4</title>
<g id="a_edge4_Node000003_Node000004"><a xlink:title=" ">
<path fill="none" stroke="#63b8ff" d="M210.25,-9.62C193.29,-9.62 173.72,-9.62 158.2,-9.62"/>
<polygon fill="#63b8ff" stroke="#63b8ff" points="209.98,-13.13 219.98,-9.63 209.98,-6.13 209.98,-13.13"/>
</a>
</g>
</g>
<!-- Node5 -->
<g id="Node000005" class="node">
<title>Node5</title>
<g id="a_Node000005"><a xlink:href="../../d5/d12/_main_8cpp_a0ddf1224851353fc92bfbff6f499fa97.html#a0ddf1224851353fc92bfbff6f499fa97" target="_top" xlink:title=" ">
<polygon fill="white" stroke="#666666" points="37,-19.25 0,-19.25 0,0 37,0 37,-19.25"/>
<text text-anchor="middle" x="18.5" y="-5.75" font-family="Helvetica,sans-Serif" font-size="10.00">main</text>
</a>
</g>
</g>
<!-- Node4&#45;&gt;Node5 -->
<g id="edge5_Node000004_Node000005" class="edge">
<title>Node4&#45;&gt;Node5</title>
<g id="a_edge5_Node000004_Node000005"><a xlink:title=" ">
<path fill="none" stroke="#63b8ff" d="M88.84,-9.62C71.14,-9.62 51.16,-9.62 37.22,-9.62"/>
<polygon fill="#63b8ff" stroke="#63b8ff" points="88.82,-13.13 98.82,-9.63 88.82,-6.13 88.82,-13.13"/>
</a>
</g>
</g>
</g>
</svg>
