<?xml version="1.0" encoding="UTF-8" standalone="no"?>
<!DOCTYPE svg PUBLIC "-//W3C//DTD SVG 1.1//EN"
 "http://www.w3.org/Graphics/SVG/1.1/DTD/svg11.dtd">
<!-- Generated by graphviz version 12.2.1 (20241206.2353)
 -->
<!-- Title: Read_VTK_Grid Pages: 1 -->
<svg width="654pt" height="224pt"
 viewBox="0.00 0.00 654.00 224.25" xmlns="http://www.w3.org/2000/svg" xmlns:xlink="http://www.w3.org/1999/xlink">
<g id="graph0" class="graph" transform="scale(1 1) rotate(0) translate(4 220.25)">
<title>Read_VTK_Grid</title>
<!-- Node1 -->
<g id="Node000001" class="node">
<title>Node1</title>
<g id="a_Node000001"><a xlink:title=" ">
<polygon fill="#999999" stroke="#666666" points="87.25,-114.25 0,-114.25 0,-95 87.25,-95 87.25,-114.25"/>
<text text-anchor="middle" x="43.62" y="-100.75" font-family="Helvetica,sans-Serif" font-size="10.00">Read_VTK_Grid</text>
</a>
</g>
</g>
<!-- Node2 -->
<g id="Node000002" class="node">
<title>Node2</title>
<g id="a_Node000002"><a xlink:href="../../d0/ded/_read___gmsh___file_8cpp_ae9fe416efcf214282b13d235773a6bf6.html#ae9fe416efcf214282b13d235773a6bf6" target="_top" xlink:title=" ">
<polygon fill="white" stroke="#666666" points="232.62,-216.25 158.88,-216.25 158.88,-197 232.62,-197 232.62,-216.25"/>
<text text-anchor="middle" x="195.75" y="-202.75" font-family="Helvetica,sans-Serif" font-size="10.00">BoundingBox</text>
</a>
</g>
</g>
<!-- Node1&#45;&gt;Node2 -->
<g id="edge1_Node000001_Node000002" class="edge">
<title>Node1&#45;&gt;Node2</title>
<g id="a_edge1_Node000001_Node000002"><a xlink:title=" ">
<path fill="none" stroke="#63b8ff" d="M51.09,-114.65C63.08,-132.42 90.55,-169.36 123.25,-188.62 130.69,-193.01 139.17,-196.33 147.63,-198.85"/>
<polygon fill="#63b8ff" stroke="#63b8ff" points="146.62,-202.2 157.18,-201.33 148.38,-195.43 146.62,-202.2"/>
</a>
</g>
</g>
<!-- Node3 -->
<g id="Node000003" class="node">
<title>Node3</title>
<g id="a_Node000003"><a xlink:href="../../d0/ded/_read___gmsh___file_8cpp_ab9ea50ddf9e2981b178f5999ddfcb7b3.html#ab9ea50ddf9e2981b178f5999ddfcb7b3" target="_top" xlink:title=" ">
<polygon fill="white" stroke="#666666" points="268.25,-179.25 123.25,-179.25 123.25,-160 268.25,-160 268.25,-179.25"/>
<text text-anchor="middle" x="195.75" y="-165.75" font-family="Helvetica,sans-Serif" font-size="10.00">Classify_Domain_Boundaries</text>
</a>
</g>
</g>
<!-- Node1&#45;&gt;Node3 -->
<g id="edge2_Node000001_Node000003" class="edge">
<title>Node1&#45;&gt;Node3</title>
<g id="a_edge2_Node000001_Node000003"><a xlink:title=" ">
<path fill="none" stroke="#63b8ff" d="M59.08,-114.69C74.4,-124.97 99.6,-140.78 123.25,-150.62 128.18,-152.68 133.39,-154.56 138.67,-156.28"/>
<polygon fill="#63b8ff" stroke="#63b8ff" points="137.48,-159.58 148.06,-159.14 139.51,-152.88 137.48,-159.58"/>
</a>
</g>
</g>
<!-- Node5 -->
<g id="Node000005" class="node">
<title>Node5</title>
<g id="a_Node000005"><a xlink:href="../../d0/ded/_read___gmsh___file_8cpp_a4f897fcec439c37558a5d9fd94abf2e0.html#a4f897fcec439c37558a5d9fd94abf2e0" target="_top" xlink:title=" ">
<polygon fill="white" stroke="#666666" points="255.5,-141.88 136,-141.88 136,-111.38 255.5,-111.38 255.5,-141.88"/>
<text text-anchor="start" x="144" y="-128.38" font-family="Helvetica,sans-Serif" font-size="10.00">Create_Boundary_Cells</text>
<text text-anchor="middle" x="195.75" y="-117.12" font-family="Helvetica,sans-Serif" font-size="10.00">_Lists</text>
</a>
</g>
</g>
<!-- Node1&#45;&gt;Node5 -->
<g id="edge4_Node000001_Node000005" class="edge">
<title>Node1&#45;&gt;Node5</title>
<g id="a_edge4_Node000001_Node000005"><a xlink:title=" ">
<path fill="none" stroke="#63b8ff" d="M87.64,-110.93C99.05,-112.6 111.68,-114.45 124.14,-116.28"/>
<polygon fill="#63b8ff" stroke="#63b8ff" points="123.6,-119.74 134,-117.72 124.62,-112.81 123.6,-119.74"/>
</a>
</g>
</g>
<!-- Node6 -->
<g id="Node000006" class="node">
<title>Node6</title>
<g id="a_Node000006"><a xlink:href="../../d0/ded/_read___gmsh___file_8cpp_aa3cbdec71b7c56f603b53acd3ce5a070.html#aa3cbdec71b7c56f603b53acd3ce5a070" target="_top" xlink:title=" ">
<polygon fill="white" stroke="#666666" points="233.75,-93.25 157.75,-93.25 157.75,-74 233.75,-74 233.75,-93.25"/>
<text text-anchor="middle" x="195.75" y="-79.75" font-family="Helvetica,sans-Serif" font-size="10.00">Identify_Cells</text>
</a>
</g>
</g>
<!-- Node1&#45;&gt;Node6 -->
<g id="edge5_Node000001_Node000006" class="edge">
<title>Node1&#45;&gt;Node6</title>
<g id="a_edge5_Node000001_Node000006"><a xlink:title=" ">
<path fill="none" stroke="#63b8ff" d="M87.64,-98.61C105.87,-96.06 127.2,-93.07 146,-90.44"/>
<polygon fill="#63b8ff" stroke="#63b8ff" points="146.42,-93.92 155.84,-89.07 145.45,-86.99 146.42,-93.92"/>
</a>
</g>
</g>
<!-- Node11 -->
<g id="Node000011" class="node">
<title>Node11</title>
<g id="a_Node000011"><a xlink:href="../../d0/ded/_read___gmsh___file_8cpp_a9ee7224f2c410fa22e26e50b31924869.html#a9ee7224f2c410fa22e26e50b31924869" target="_top" xlink:title=" ">
<polygon fill="white" stroke="#666666" points="247.25,-56.25 144.25,-56.25 144.25,-37 247.25,-37 247.25,-56.25"/>
<text text-anchor="middle" x="195.75" y="-42.75" font-family="Helvetica,sans-Serif" font-size="10.00">Identify_Neighbours</text>
</a>
</g>
</g>
<!-- Node1&#45;&gt;Node11 -->
<g id="edge10_Node000001_Node000011" class="edge">
<title>Node1&#45;&gt;Node11</title>
<g id="a_edge10_Node000001_Node000011"><a xlink:title=" ">
<path fill="none" stroke="#63b8ff" d="M61.61,-94.58C77.2,-85.7 101.17,-72.9 123.25,-64.62 127.89,-62.88 132.77,-61.26 137.7,-59.75"/>
<polygon fill="#63b8ff" stroke="#63b8ff" points="138.41,-63.19 147.06,-57.07 136.48,-56.46 138.41,-63.19"/>
</a>
</g>
</g>
<!-- Node13 -->
<g id="Node000013" class="node">
<title>Node13</title>
<g id="a_Node000013"><a xlink:href="../../dc/d3a/src_2_utility___files_8cpp_abf34e0b480f7580b0cd4237a76aed670.html#abf34e0b480f7580b0cd4237a76aed670" target="_top" xlink:title=" ">
<polygon fill="white" stroke="#666666" points="213.88,-19.25 177.62,-19.25 177.62,0 213.88,0 213.88,-19.25"/>
<text text-anchor="middle" x="195.75" y="-5.75" font-family="Helvetica,sans-Serif" font-size="10.00">Print</text>
</a>
</g>
</g>
<!-- Node1&#45;&gt;Node13 -->
<g id="edge12_Node000001_Node000013" class="edge">
<title>Node1&#45;&gt;Node13</title>
<g id="a_edge12_Node000001_Node000013"><a xlink:title=" ">
<path fill="none" stroke="#63b8ff" d="M51.89,-94.67C64.5,-78.13 92.08,-45.09 123.25,-27.62 136.38,-20.27 152.53,-15.87 166.15,-13.27"/>
<polygon fill="#63b8ff" stroke="#63b8ff" points="166.55,-16.75 175.85,-11.66 165.41,-9.85 166.55,-16.75"/>
</a>
</g>
</g>
<!-- Node4 -->
<g id="Node000004" class="node">
<title>Node4</title>
<g id="a_Node000004"><a xlink:href="../../d0/ded/_read___gmsh___file_8cpp_a994cf9f1092af359f042b96b997c5adc.html#a994cf9f1092af359f042b96b997c5adc" target="_top" xlink:title=" ">
<polygon fill="white" stroke="#666666" points="425.25,-179.25 320.75,-179.25 320.75,-160 425.25,-160 425.25,-179.25"/>
<text text-anchor="middle" x="373" y="-165.75" font-family="Helvetica,sans-Serif" font-size="10.00">Get_Boundary_Type</text>
</a>
</g>
</g>
<!-- Node3&#45;&gt;Node4 -->
<g id="edge3_Node000003_Node000004" class="edge">
<title>Node3&#45;&gt;Node4</title>
<g id="a_edge3_Node000003_Node000004"><a xlink:title=" ">
<path fill="none" stroke="#63b8ff" d="M268.54,-169.62C281.99,-169.62 295.96,-169.62 309.11,-169.62"/>
<polygon fill="#63b8ff" stroke="#63b8ff" points="308.92,-173.13 318.92,-169.63 308.92,-166.13 308.92,-173.13"/>
</a>
</g>
</g>
<!-- Node7 -->
<g id="Node000007" class="node">
<title>Node7</title>
<g id="a_Node000007"><a xlink:href="../../d8/d40/_grid___computations_8cpp_a2d284e26ddef582519953e8b8300184e.html#a2d284e26ddef582519953e8b8300184e" target="_top" xlink:title=" ">
<polygon fill="white" stroke="#666666" points="413.62,-130.25 332.38,-130.25 332.38,-111 413.62,-111 413.62,-130.25"/>
<text text-anchor="middle" x="373" y="-116.75" font-family="Helvetica,sans-Serif" font-size="10.00">Construct_Cell</text>
</a>
</g>
</g>
<!-- Node6&#45;&gt;Node7 -->
<g id="edge6_Node000006_Node000007" class="edge">
<title>Node6&#45;&gt;Node7</title>
<g id="a_edge6_Node000006_Node000007"><a xlink:title=" ">
<path fill="none" stroke="#63b8ff" d="M233.92,-91.47C259.26,-96.82 293.15,-103.98 321.01,-109.86"/>
<polygon fill="#63b8ff" stroke="#63b8ff" points="320.16,-113.26 330.66,-111.9 321.6,-106.41 320.16,-113.26"/>
</a>
</g>
</g>
<!-- Node8 -->
<g id="Node000008" class="node">
<title>Node8</title>
<g id="a_Node000008"><a xlink:href="../../d8/d40/_grid___computations_8cpp_a614d9bfab5b0ee048b9e08a296757c42.html#a614d9bfab5b0ee048b9e08a296757c42" target="_top" xlink:title=" ">
<polygon fill="white" stroke="#666666" points="441.75,-93.25 304.25,-93.25 304.25,-74 441.75,-74 441.75,-93.25"/>
<text text-anchor="middle" x="373" y="-79.75" font-family="Helvetica,sans-Serif" font-size="10.00">Sort_Points_AntiClockWise</text>
</a>
</g>
</g>
<!-- Node6&#45;&gt;Node8 -->
<g id="edge7_Node000006_Node000008" class="edge">
<title>Node6&#45;&gt;Node8</title>
<g id="a_edge7_Node000006_Node000008"><a xlink:title=" ">
<path fill="none" stroke="#63b8ff" d="M233.92,-83.62C251.04,-83.62 272.07,-83.62 292.5,-83.62"/>
<polygon fill="#63b8ff" stroke="#63b8ff" points="292.24,-87.13 302.24,-83.63 292.24,-80.13 292.24,-87.13"/>
</a>
</g>
</g>
<!-- Node9 -->
<g id="Node000009" class="node">
<title>Node9</title>
<g id="a_Node000009"><a xlink:href="../../d8/d40/_grid___computations_8cpp_a0bdffb27693c14d6cb4ef62eb5bd5d7f.html#a0bdffb27693c14d6cb4ef62eb5bd5d7f" target="_top" xlink:title="Sorts a set of points in anti&#45;clockwise order around their centroid.">
<polygon fill="white" stroke="#666666" points="646,-111.25 477.75,-111.25 477.75,-92 646,-92 646,-111.25"/>
<text text-anchor="middle" x="561.88" y="-97.75" font-family="Helvetica,sans-Serif" font-size="10.00">Are_Points_Sorted_AntiClockWise</text>
</a>
</g>
</g>
<!-- Node8&#45;&gt;Node9 -->
<g id="edge8_Node000008_Node000009" class="edge">
<title>Node8&#45;&gt;Node9</title>
<g id="a_edge8_Node000008_Node000009"><a xlink:title=" ">
<path fill="none" stroke="#63b8ff" d="M441.99,-90.17C449.8,-90.93 457.86,-91.7 465.93,-92.48"/>
<polygon fill="#63b8ff" stroke="#63b8ff" points="465.53,-95.96 475.82,-93.43 466.2,-88.99 465.53,-95.96"/>
</a>
</g>
</g>
<!-- Node10 -->
<g id="Node000010" class="node">
<title>Node10</title>
<g id="a_Node000010"><a xlink:href="../../d8/d40/_grid___computations_8cpp_a4dd07afd2a0f939b4d47bfa1088912c4.html#a4dd07afd2a0f939b4d47bfa1088912c4" target="_top" xlink:title=" ">
<polygon fill="white" stroke="#666666" points="610.75,-74.25 513,-74.25 513,-55 610.75,-55 610.75,-74.25"/>
<text text-anchor="middle" x="561.88" y="-60.75" font-family="Helvetica,sans-Serif" font-size="10.00">Compute_Centroid</text>
</a>
</g>
</g>
<!-- Node8&#45;&gt;Node10 -->
<g id="edge9_Node000008_Node000010" class="edge">
<title>Node8&#45;&gt;Node10</title>
<g id="a_edge9_Node000008_Node000010"><a xlink:title=" ">
<path fill="none" stroke="#63b8ff" d="M441.99,-76.71C461.35,-74.74 482.29,-72.61 501.12,-70.7"/>
<polygon fill="#63b8ff" stroke="#63b8ff" points="501.44,-74.19 511.03,-69.69 500.73,-67.22 501.44,-74.19"/>
</a>
</g>
</g>
<!-- Node12 -->
<g id="Node000012" class="node">
<title>Node12</title>
<g id="a_Node000012"><a xlink:href="../../d0/ded/_read___gmsh___file_8cpp_adc1985827312d4d72fa6eb4ce492fc5e.html#adc1985827312d4d72fa6eb4ce492fc5e" target="_top" xlink:title=" ">
<polygon fill="white" stroke="#666666" points="420.38,-56.25 325.62,-56.25 325.62,-37 420.38,-37 420.38,-56.25"/>
<text text-anchor="middle" x="373" y="-42.75" font-family="Helvetica,sans-Serif" font-size="10.00">mapFacesToCells</text>
</a>
</g>
</g>
<!-- Node11&#45;&gt;Node12 -->
<g id="edge11_Node000011_Node000012" class="edge">
<title>Node11&#45;&gt;Node12</title>
<g id="a_edge11_Node000011_Node000012"><a xlink:title=" ">
<path fill="none" stroke="#63b8ff" d="M247.44,-46.62C268.26,-46.62 292.49,-46.62 314.01,-46.62"/>
<polygon fill="#63b8ff" stroke="#63b8ff" points="313.81,-50.13 323.81,-46.63 313.81,-43.13 313.81,-50.13"/>
</a>
</g>
</g>
</g>
</svg>
