<?xml version="1.0" encoding="UTF-8" standalone="no"?>
<!DOCTYPE svg PUBLIC "-//W3C//DTD SVG 1.1//EN"
 "http://www.w3.org/Graphics/SVG/1.1/DTD/svg11.dtd">
<!-- Generated by graphviz version 12.2.1 (20241206.2353)
 -->
<!-- Title: Read_GmshVTK_Grid Pages: 1 -->
<svg width="868pt" height="301pt"
 viewBox="0.00 0.00 868.30 301.25" xmlns="http://www.w3.org/2000/svg" xmlns:xlink="http://www.w3.org/1999/xlink">
<g id="graph0" class="graph" transform="scale(1 1) rotate(0) translate(4 297.25)">
<title>Read_GmshVTK_Grid</title>
<!-- Node1 -->
<g id="Node000001" class="node">
<title>Node1</title>
<g id="a_Node000001"><a xlink:title=" ">
<polygon fill="#999999" stroke="#666666" points="113.5,-151.25 0,-151.25 0,-132 113.5,-132 113.5,-151.25"/>
<text text-anchor="middle" x="56.75" y="-137.75" font-family="Helvetica,sans-Serif" font-size="10.00">Read_GmshVTK_Grid</text>
</a>
</g>
</g>
<!-- Node2 -->
<g id="Node000002" class="node">
<title>Node2</title>
<g id="a_Node000002"><a xlink:href="../../d0/ded/_read___gmsh___file_8cpp_af5022e986434a24c3f27a650cf4aeb76.html#af5022e986434a24c3f27a650cf4aeb76" target="_top" xlink:title=" ">
<polygon fill="white" stroke="#666666" points="236.75,-151.25 149.5,-151.25 149.5,-132 236.75,-132 236.75,-151.25"/>
<text text-anchor="middle" x="193.12" y="-137.75" font-family="Helvetica,sans-Serif" font-size="10.00">Read_VTK_Grid</text>
</a>
</g>
</g>
<!-- Node1&#45;&gt;Node2 -->
<g id="edge1_Node000001_Node000002" class="edge">
<title>Node1&#45;&gt;Node2</title>
<g id="a_edge1_Node000001_Node000002"><a xlink:title=" ">
<path fill="none" stroke="#63b8ff" d="M113.96,-141.62C121.88,-141.62 130.02,-141.62 137.9,-141.62"/>
<polygon fill="#63b8ff" stroke="#63b8ff" points="137.71,-145.13 147.71,-141.63 137.71,-138.13 137.71,-145.13"/>
</a>
</g>
</g>
<!-- Node3 -->
<g id="Node000003" class="node">
<title>Node3</title>
<g id="a_Node000003"><a xlink:href="../../d0/ded/_read___gmsh___file_8cpp_ae9fe416efcf214282b13d235773a6bf6.html#ae9fe416efcf214282b13d235773a6bf6" target="_top" xlink:title=" ">
<polygon fill="white" stroke="#666666" points="382.12,-293.25 308.38,-293.25 308.38,-274 382.12,-274 382.12,-293.25"/>
<text text-anchor="middle" x="345.25" y="-279.75" font-family="Helvetica,sans-Serif" font-size="10.00">BoundingBox</text>
</a>
</g>
</g>
<!-- Node2&#45;&gt;Node3 -->
<g id="edge2_Node000002_Node000003" class="edge">
<title>Node2&#45;&gt;Node3</title>
<g id="a_edge2_Node000002_Node000003"><a xlink:title=" ">
<path fill="none" stroke="#63b8ff" d="M197.45,-151.47C205.95,-175.1 230.82,-235.3 272.75,-265.62 279.97,-270.85 288.55,-274.56 297.22,-277.2"/>
<polygon fill="#63b8ff" stroke="#63b8ff" points="296.12,-280.53 306.68,-279.62 297.86,-273.75 296.12,-280.53"/>
</a>
</g>
</g>
<!-- Node4 -->
<g id="Node000004" class="node">
<title>Node4</title>
<g id="a_Node000004"><a xlink:href="../../d0/ded/_read___gmsh___file_8cpp_ab9ea50ddf9e2981b178f5999ddfcb7b3.html#ab9ea50ddf9e2981b178f5999ddfcb7b3" target="_top" xlink:title=" ">
<polygon fill="white" stroke="#666666" points="417.75,-256.25 272.75,-256.25 272.75,-237 417.75,-237 417.75,-256.25"/>
<text text-anchor="middle" x="345.25" y="-242.75" font-family="Helvetica,sans-Serif" font-size="10.00">Classify_Domain_Boundaries</text>
</a>
</g>
</g>
<!-- Node2&#45;&gt;Node4 -->
<g id="edge3_Node000002_Node000004" class="edge">
<title>Node2&#45;&gt;Node4</title>
<g id="a_edge3_Node000002_Node000004"><a xlink:title=" ">
<path fill="none" stroke="#63b8ff" d="M200.37,-151.57C212.2,-169.58 239.71,-207.6 272.75,-227.62 275.53,-229.31 278.46,-230.85 281.48,-232.25"/>
<polygon fill="#63b8ff" stroke="#63b8ff" points="280.04,-235.45 290.63,-235.95 282.67,-228.96 280.04,-235.45"/>
</a>
</g>
</g>
<!-- Node6 -->
<g id="Node000006" class="node">
<title>Node6</title>
<g id="a_Node000006"><a xlink:href="../../d0/ded/_read___gmsh___file_8cpp_a4f897fcec439c37558a5d9fd94abf2e0.html#a4f897fcec439c37558a5d9fd94abf2e0" target="_top" xlink:title=" ">
<polygon fill="white" stroke="#666666" points="405,-218.88 285.5,-218.88 285.5,-188.38 405,-188.38 405,-218.88"/>
<text text-anchor="start" x="293.5" y="-205.38" font-family="Helvetica,sans-Serif" font-size="10.00">Create_Boundary_Cells</text>
<text text-anchor="middle" x="345.25" y="-194.12" font-family="Helvetica,sans-Serif" font-size="10.00">_Lists</text>
</a>
</g>
</g>
<!-- Node2&#45;&gt;Node6 -->
<g id="edge5_Node000002_Node000006" class="edge">
<title>Node2&#45;&gt;Node6</title>
<g id="a_edge5_Node000002_Node000006"><a xlink:title=" ">
<path fill="none" stroke="#63b8ff" d="M213.2,-151.69C228.94,-159.78 251.97,-171.16 272.75,-179.62 276.38,-181.1 280.13,-182.56 283.93,-183.99"/>
<polygon fill="#63b8ff" stroke="#63b8ff" points="282.7,-187.27 293.3,-187.39 285.09,-180.69 282.7,-187.27"/>
</a>
</g>
</g>
<!-- Node7 -->
<g id="Node000007" class="node">
<title>Node7</title>
<g id="a_Node000007"><a xlink:href="../../d0/ded/_read___gmsh___file_8cpp_aa3cbdec71b7c56f603b53acd3ce5a070.html#aa3cbdec71b7c56f603b53acd3ce5a070" target="_top" xlink:title=" ">
<polygon fill="white" stroke="#666666" points="383.25,-170.25 307.25,-170.25 307.25,-151 383.25,-151 383.25,-170.25"/>
<text text-anchor="middle" x="345.25" y="-156.75" font-family="Helvetica,sans-Serif" font-size="10.00">Identify_Cells</text>
</a>
</g>
</g>
<!-- Node2&#45;&gt;Node7 -->
<g id="edge6_Node000002_Node000007" class="edge">
<title>Node2&#45;&gt;Node7</title>
<g id="a_edge6_Node000002_Node000007"><a xlink:title=" ">
<path fill="none" stroke="#63b8ff" d="M237.14,-147.07C255.37,-149.38 276.7,-152.08 295.5,-154.46"/>
<polygon fill="#63b8ff" stroke="#63b8ff" points="294.97,-157.92 305.33,-155.7 295.85,-150.97 294.97,-157.92"/>
</a>
</g>
</g>
<!-- Node12 -->
<g id="Node000012" class="node">
<title>Node12</title>
<g id="a_Node000012"><a xlink:href="../../d3/d82/_c_type___elliptic___grid_8cpp_a9d9acf133a5b966f0cbd16a2c57a7d79.html#a9d9acf133a5b966f0cbd16a2c57a7d79" target="_top" xlink:title=" ">
<polygon fill="white" stroke="#666666" points="860.3,-151.25 831.5,-151.25 831.5,-132 860.3,-132 860.3,-151.25"/>
<text text-anchor="middle" x="845.9" y="-137.75" font-family="Helvetica,sans-Serif" font-size="10.00">x</text>
</a>
</g>
</g>
<!-- Node2&#45;&gt;Node12 -->
<g id="edge16_Node000002_Node000012" class="edge">
<title>Node2&#45;&gt;Node12</title>
<g id="a_edge16_Node000002_Node000012"><a xlink:title=" ">
<path fill="none" stroke="#63b8ff" d="M237.08,-141.62C361.8,-141.62 721.37,-141.62 819.75,-141.62"/>
<polygon fill="#63b8ff" stroke="#63b8ff" points="819.63,-145.13 829.63,-141.63 819.63,-138.13 819.63,-145.13"/>
</a>
</g>
</g>
<!-- Node13 -->
<g id="Node000013" class="node">
<title>Node13</title>
<g id="a_Node000013"><a xlink:href="../../d3/d82/_c_type___elliptic___grid_8cpp_aae4b761a64c952b4c008655d1dc59a12.html#aae4b761a64c952b4c008655d1dc59a12" target="_top" xlink:title=" ">
<polygon fill="white" stroke="#666666" points="860.3,-114.25 831.5,-114.25 831.5,-95 860.3,-95 860.3,-114.25"/>
<text text-anchor="middle" x="845.9" y="-100.75" font-family="Helvetica,sans-Serif" font-size="10.00">y</text>
</a>
</g>
</g>
<!-- Node2&#45;&gt;Node13 -->
<g id="edge17_Node000002_Node000013" class="edge">
<title>Node2&#45;&gt;Node13</title>
<g id="a_edge17_Node000002_Node000013"><a xlink:title=" ">
<path fill="none" stroke="#63b8ff" d="M237.08,-139.18C361.8,-132.09 721.37,-111.65 819.75,-106.05"/>
<polygon fill="#63b8ff" stroke="#63b8ff" points="819.85,-109.56 829.63,-105.49 819.45,-102.57 819.85,-109.56"/>
</a>
</g>
</g>
<!-- Node14 -->
<g id="Node000014" class="node">
<title>Node14</title>
<g id="a_Node000014"><a xlink:href="../../d0/ded/_read___gmsh___file_8cpp_a9ee7224f2c410fa22e26e50b31924869.html#a9ee7224f2c410fa22e26e50b31924869" target="_top" xlink:title=" ">
<polygon fill="white" stroke="#666666" points="396.75,-56.25 293.75,-56.25 293.75,-37 396.75,-37 396.75,-56.25"/>
<text text-anchor="middle" x="345.25" y="-42.75" font-family="Helvetica,sans-Serif" font-size="10.00">Identify_Neighbours</text>
</a>
</g>
</g>
<!-- Node2&#45;&gt;Node14 -->
<g id="edge13_Node000002_Node000014" class="edge">
<title>Node2&#45;&gt;Node14</title>
<g id="a_edge13_Node000002_Node000014"><a xlink:title=" ">
<path fill="none" stroke="#63b8ff" d="M202.57,-131.74C216,-116.6 243.7,-87.62 272.75,-70.62 279.36,-66.76 286.67,-63.41 294.03,-60.54"/>
<polygon fill="#63b8ff" stroke="#63b8ff" points="295.12,-63.87 303.34,-57.19 292.75,-57.28 295.12,-63.87"/>
</a>
</g>
</g>
<!-- Node16 -->
<g id="Node000016" class="node">
<title>Node16</title>
<g id="a_Node000016"><a xlink:href="../../dc/d3a/src_2_utility___files_8cpp_abf34e0b480f7580b0cd4237a76aed670.html#abf34e0b480f7580b0cd4237a76aed670" target="_top" xlink:title=" ">
<polygon fill="white" stroke="#666666" points="363.38,-19.25 327.12,-19.25 327.12,0 363.38,0 363.38,-19.25"/>
<text text-anchor="middle" x="345.25" y="-5.75" font-family="Helvetica,sans-Serif" font-size="10.00">Print</text>
</a>
</g>
</g>
<!-- Node2&#45;&gt;Node16 -->
<g id="edge15_Node000002_Node000016" class="edge">
<title>Node2&#45;&gt;Node16</title>
<g id="a_edge15_Node000002_Node000016"><a xlink:title=" ">
<path fill="none" stroke="#63b8ff" d="M198.1,-131.58C207.48,-109.2 233.25,-55.05 272.75,-27.62 285.19,-18.99 301.41,-14.49 315.25,-12.15"/>
<polygon fill="#63b8ff" stroke="#63b8ff" points="315.72,-15.62 325.15,-10.8 314.77,-8.68 315.72,-15.62"/>
</a>
</g>
</g>
<!-- Node5 -->
<g id="Node000005" class="node">
<title>Node5</title>
<g id="a_Node000005"><a xlink:href="../../d0/ded/_read___gmsh___file_8cpp_a994cf9f1092af359f042b96b997c5adc.html#a994cf9f1092af359f042b96b997c5adc" target="_top" xlink:title=" ">
<polygon fill="white" stroke="#666666" points="574.75,-256.25 470.25,-256.25 470.25,-237 574.75,-237 574.75,-256.25"/>
<text text-anchor="middle" x="522.5" y="-242.75" font-family="Helvetica,sans-Serif" font-size="10.00">Get_Boundary_Type</text>
</a>
</g>
</g>
<!-- Node4&#45;&gt;Node5 -->
<g id="edge4_Node000004_Node000005" class="edge">
<title>Node4&#45;&gt;Node5</title>
<g id="a_edge4_Node000004_Node000005"><a xlink:title=" ">
<path fill="none" stroke="#63b8ff" d="M418.04,-246.62C431.49,-246.62 445.46,-246.62 458.61,-246.62"/>
<polygon fill="#63b8ff" stroke="#63b8ff" points="458.42,-250.13 468.42,-246.63 458.42,-243.13 458.42,-250.13"/>
</a>
</g>
</g>
<!-- Node8 -->
<g id="Node000008" class="node">
<title>Node8</title>
<g id="a_Node000008"><a xlink:href="../../d8/d40/_grid___computations_8cpp_a2d284e26ddef582519953e8b8300184e.html#a2d284e26ddef582519953e8b8300184e" target="_top" xlink:title=" ">
<polygon fill="white" stroke="#666666" points="563.12,-207.25 481.88,-207.25 481.88,-188 563.12,-188 563.12,-207.25"/>
<text text-anchor="middle" x="522.5" y="-193.75" font-family="Helvetica,sans-Serif" font-size="10.00">Construct_Cell</text>
</a>
</g>
</g>
<!-- Node7&#45;&gt;Node8 -->
<g id="edge7_Node000007_Node000008" class="edge">
<title>Node7&#45;&gt;Node8</title>
<g id="a_edge7_Node000007_Node000008"><a xlink:title=" ">
<path fill="none" stroke="#63b8ff" d="M383.42,-168.47C408.76,-173.82 442.65,-180.98 470.51,-186.86"/>
<polygon fill="#63b8ff" stroke="#63b8ff" points="469.66,-190.26 480.16,-188.9 471.1,-183.41 469.66,-190.26"/>
</a>
</g>
</g>
<!-- Node9 -->
<g id="Node000009" class="node">
<title>Node9</title>
<g id="a_Node000009"><a xlink:href="../../d8/d40/_grid___computations_8cpp_a614d9bfab5b0ee048b9e08a296757c42.html#a614d9bfab5b0ee048b9e08a296757c42" target="_top" xlink:title=" ">
<polygon fill="white" stroke="#666666" points="591.25,-170.25 453.75,-170.25 453.75,-151 591.25,-151 591.25,-170.25"/>
<text text-anchor="middle" x="522.5" y="-156.75" font-family="Helvetica,sans-Serif" font-size="10.00">Sort_Points_AntiClockWise</text>
</a>
</g>
</g>
<!-- Node7&#45;&gt;Node9 -->
<g id="edge8_Node000007_Node000009" class="edge">
<title>Node7&#45;&gt;Node9</title>
<g id="a_edge8_Node000007_Node000009"><a xlink:title=" ">
<path fill="none" stroke="#63b8ff" d="M383.42,-160.62C400.54,-160.62 421.57,-160.62 442,-160.62"/>
<polygon fill="#63b8ff" stroke="#63b8ff" points="441.74,-164.13 451.74,-160.63 441.74,-157.13 441.74,-164.13"/>
</a>
</g>
</g>
<!-- Node10 -->
<g id="Node000010" class="node">
<title>Node10</title>
<g id="a_Node000010"><a xlink:href="../../d8/d40/_grid___computations_8cpp_a0bdffb27693c14d6cb4ef62eb5bd5d7f.html#a0bdffb27693c14d6cb4ef62eb5bd5d7f" target="_top" xlink:title="Sorts a set of points in anti&#45;clockwise order around their centroid.">
<polygon fill="white" stroke="#666666" points="795.5,-207.25 627.25,-207.25 627.25,-188 795.5,-188 795.5,-207.25"/>
<text text-anchor="middle" x="711.38" y="-193.75" font-family="Helvetica,sans-Serif" font-size="10.00">Are_Points_Sorted_AntiClockWise</text>
</a>
</g>
</g>
<!-- Node9&#45;&gt;Node10 -->
<g id="edge9_Node000009_Node000010" class="edge">
<title>Node9&#45;&gt;Node10</title>
<g id="a_edge9_Node000009_Node000010"><a xlink:title=" ">
<path fill="none" stroke="#63b8ff" d="M574.56,-170.74C597.33,-175.24 624.35,-180.59 648.27,-185.33"/>
<polygon fill="#63b8ff" stroke="#63b8ff" points="647.4,-188.72 657.89,-187.23 648.76,-181.86 647.4,-188.72"/>
</a>
</g>
</g>
<!-- Node11 -->
<g id="Node000011" class="node">
<title>Node11</title>
<g id="a_Node000011"><a xlink:href="../../d8/d40/_grid___computations_8cpp_a4dd07afd2a0f939b4d47bfa1088912c4.html#a4dd07afd2a0f939b4d47bfa1088912c4" target="_top" xlink:title=" ">
<polygon fill="white" stroke="#666666" points="760.25,-170.25 662.5,-170.25 662.5,-151 760.25,-151 760.25,-170.25"/>
<text text-anchor="middle" x="711.38" y="-156.75" font-family="Helvetica,sans-Serif" font-size="10.00">Compute_Centroid</text>
</a>
</g>
</g>
<!-- Node9&#45;&gt;Node11 -->
<g id="edge10_Node000009_Node000011" class="edge">
<title>Node9&#45;&gt;Node11</title>
<g id="a_edge10_Node000009_Node000011"><a xlink:title=" ">
<path fill="none" stroke="#63b8ff" d="M591.49,-160.62C610.85,-160.62 631.79,-160.62 650.62,-160.62"/>
<polygon fill="#63b8ff" stroke="#63b8ff" points="650.52,-164.13 660.52,-160.63 650.52,-157.13 650.52,-164.13"/>
</a>
</g>
</g>
<!-- Node11&#45;&gt;Node12 -->
<g id="edge11_Node000011_Node000012" class="edge">
<title>Node11&#45;&gt;Node12</title>
<g id="a_edge11_Node000011_Node000012"><a xlink:title=" ">
<path fill="none" stroke="#63b8ff" d="M760.59,-153.71C780.84,-150.81 803.52,-147.56 820.26,-145.16"/>
<polygon fill="#63b8ff" stroke="#63b8ff" points="820.37,-148.68 829.77,-143.79 819.38,-141.75 820.37,-148.68"/>
</a>
</g>
</g>
<!-- Node11&#45;&gt;Node13 -->
<g id="edge12_Node000011_Node000013" class="edge">
<title>Node11&#45;&gt;Node13</title>
<g id="a_edge12_Node000011_Node000013"><a xlink:title=" ">
<path fill="none" stroke="#63b8ff" d="M736.07,-150.61C759.98,-140.51 796.71,-124.99 820.77,-114.82"/>
<polygon fill="#63b8ff" stroke="#63b8ff" points="821.91,-118.14 829.76,-111.02 819.18,-111.69 821.91,-118.14"/>
</a>
</g>
</g>
<!-- Node15 -->
<g id="Node000015" class="node">
<title>Node15</title>
<g id="a_Node000015"><a xlink:href="../../d0/ded/_read___gmsh___file_8cpp_adc1985827312d4d72fa6eb4ce492fc5e.html#adc1985827312d4d72fa6eb4ce492fc5e" target="_top" xlink:title=" ">
<polygon fill="white" stroke="#666666" points="569.88,-56.25 475.12,-56.25 475.12,-37 569.88,-37 569.88,-56.25"/>
<text text-anchor="middle" x="522.5" y="-42.75" font-family="Helvetica,sans-Serif" font-size="10.00">mapFacesToCells</text>
</a>
</g>
</g>
<!-- Node14&#45;&gt;Node15 -->
<g id="edge14_Node000014_Node000015" class="edge">
<title>Node14&#45;&gt;Node15</title>
<g id="a_edge14_Node000014_Node000015"><a xlink:title=" ">
<path fill="none" stroke="#63b8ff" d="M396.94,-46.62C417.76,-46.62 441.99,-46.62 463.51,-46.62"/>
<polygon fill="#63b8ff" stroke="#63b8ff" points="463.31,-50.13 473.31,-46.63 463.31,-43.13 463.31,-50.13"/>
</a>
</g>
</g>
</g>
</svg>
