<?xml version="1.0" encoding="UTF-8" standalone="no"?>
<!DOCTYPE svg PUBLIC "-//W3C//DTD SVG 1.1//EN"
 "http://www.w3.org/Graphics/SVG/1.1/DTD/svg11.dtd">
<!-- Generated by graphviz version 12.2.1 (20241206.2353)
 -->
<!-- Title: Incompressible_Solver/incompressible_globals.cpp Pages: 1 -->
<svg width="1510pt" height="216pt"
 viewBox="0.00 0.00 1510.38 215.50" xmlns="http://www.w3.org/2000/svg" xmlns:xlink="http://www.w3.org/1999/xlink">
<g id="graph0" class="graph" transform="scale(1 1) rotate(0) translate(4 211.5)">
<title>Incompressible_Solver/incompressible_globals.cpp</title>
<!-- Node1 -->
<g id="Node000001" class="node">
<title>Node1</title>
<g id="a_Node000001"><a xlink:title=" ">
<polygon fill="#999999" stroke="#666666" points="368,-207.5 229,-207.5 229,-177 368,-177 368,-207.5"/>
<text text-anchor="start" x="237" y="-194" font-family="Helvetica,sans-Serif" font-size="10.00">Incompressible_Solver</text>
<text text-anchor="middle" x="298.5" y="-182.75" font-family="Helvetica,sans-Serif" font-size="10.00">/incompressible_globals.cpp</text>
</a>
</g>
</g>
<!-- Node2 -->
<g id="Node000002" class="node">
<title>Node2</title>
<g id="a_Node000002"><a xlink:href="../../d0/d9b/_incompressible___solver_8h.html" target="_top" xlink:title="Header file for cell&#45;centered staggered grid based incompressible solver using finite volume method.">
<polygon fill="white" stroke="#666666" points="404.75,-141 282.25,-141 282.25,-121.75 404.75,-121.75 404.75,-141"/>
<text text-anchor="middle" x="343.5" y="-127.5" font-family="Helvetica,sans-Serif" font-size="10.00">Incompressible_Solver.h</text>
</a>
</g>
</g>
<!-- Node1&#45;&gt;Node2 -->
<g id="edge1_Node000001_Node000002" class="edge">
<title>Node1&#45;&gt;Node2</title>
<g id="a_edge1_Node000001_Node000002"><a xlink:title=" ">
<path fill="none" stroke="#63b8ff" d="M309.62,-176.7C315.68,-168.77 323.24,-158.88 329.68,-150.46"/>
<polygon fill="#63b8ff" stroke="#63b8ff" points="332.35,-152.72 335.64,-142.65 326.79,-148.47 332.35,-152.72"/>
</a>
</g>
</g>
<!-- Node26 -->
<g id="Node000026" class="node">
<title>Node26</title>
<g id="a_Node000026"><a xlink:href="../../db/d02/_incompressible___solver___standalone_8h.html" target="_top" xlink:title="Standalone incompressible flow solver with SIMPLE algorithm.">
<polygon fill="white" stroke="#666666" points="312,-85.75 197,-85.75 197,-55.25 312,-55.25 312,-85.75"/>
<text text-anchor="start" x="205" y="-72.25" font-family="Helvetica,sans-Serif" font-size="10.00">Incompressible_Solver</text>
<text text-anchor="middle" x="254.5" y="-61" font-family="Helvetica,sans-Serif" font-size="10.00">_Standalone.h</text>
</a>
</g>
</g>
<!-- Node1&#45;&gt;Node26 -->
<g id="edge27_Node000001_Node000026" class="edge">
<title>Node1&#45;&gt;Node26</title>
<g id="a_edge27_Node000001_Node000026"><a xlink:title=" ">
<path fill="none" stroke="#63b8ff" d="M290.28,-176.64C284.98,-166.79 278.22,-153.38 273.5,-141 268.11,-126.86 263.57,-110.57 260.28,-97.31"/>
<polygon fill="#63b8ff" stroke="#63b8ff" points="263.69,-96.53 257.98,-87.61 256.88,-98.15 263.69,-96.53"/>
</a>
</g>
</g>
<!-- Node3 -->
<g id="Node000003" class="node">
<title>Node3</title>
<g id="a_Node000003"><a xlink:href="../../d6/dc2/definitions_8h.html" target="_top" xlink:title="Header file containing global constants, structures, and function declarations for the solver.">
<polygon fill="white" stroke="#666666" points="711.75,-80.12 643.25,-80.12 643.25,-60.88 711.75,-60.88 711.75,-80.12"/>
<text text-anchor="middle" x="677.5" y="-66.62" font-family="Helvetica,sans-Serif" font-size="10.00">definitions.h</text>
</a>
</g>
</g>
<!-- Node2&#45;&gt;Node3 -->
<g id="edge2_Node000002_Node000003" class="edge">
<title>Node2&#45;&gt;Node3</title>
<g id="a_edge2_Node000002_Node000003"><a xlink:title=" ">
<path fill="none" stroke="#63b8ff" d="M394.96,-121.3C459.73,-109.89 569.98,-90.45 631.88,-79.54"/>
<polygon fill="#63b8ff" stroke="#63b8ff" points="632.12,-83.05 641.36,-77.87 630.9,-76.16 632.12,-83.05"/>
</a>
</g>
</g>
<!-- Node6 -->
<g id="Node000006" class="node">
<title>Node6</title>
<g id="a_Node000006"><a xlink:title=" ">
<polygon fill="#e0e0e0" stroke="#999999" points="43,-19.25 0,-19.25 0,0 43,0 43,-19.25"/>
<text text-anchor="middle" x="21.5" y="-5.75" font-family="Helvetica,sans-Serif" font-size="10.00">vector</text>
</a>
</g>
</g>
<!-- Node2&#45;&gt;Node6 -->
<g id="edge24_Node000002_Node000006" class="edge">
<title>Node2&#45;&gt;Node6</title>
<g id="a_edge24_Node000002_Node000006"><a xlink:title=" ">
<path fill="none" stroke="#63b8ff" d="M306.38,-121.28C274.68,-113.13 228.07,-100.26 188.5,-85.75 138.35,-67.36 82.1,-40.75 49.35,-24.63"/>
<polygon fill="#63b8ff" stroke="#63b8ff" points="51.06,-21.57 40.55,-20.27 47.95,-27.84 51.06,-21.57"/>
</a>
</g>
</g>
<!-- Node7 -->
<g id="Node000007" class="node">
<title>Node7</title>
<g id="a_Node000007"><a xlink:title=" ">
<polygon fill="#e0e0e0" stroke="#999999" points="306.5,-19.25 266.5,-19.25 266.5,0 306.5,0 306.5,-19.25"/>
<text text-anchor="middle" x="286.5" y="-5.75" font-family="Helvetica,sans-Serif" font-size="10.00">string</text>
</a>
</g>
</g>
<!-- Node2&#45;&gt;Node7 -->
<g id="edge25_Node000002_Node000007" class="edge">
<title>Node2&#45;&gt;Node7</title>
<g id="a_edge25_Node000002_Node000007"><a xlink:title=" ">
<path fill="none" stroke="#63b8ff" d="M342.06,-121.64C339.44,-107.2 333.06,-77.73 321.5,-55.25 316.51,-45.54 309.27,-35.87 302.67,-28.02"/>
<polygon fill="#63b8ff" stroke="#63b8ff" points="305.38,-25.8 296.14,-20.62 300.13,-30.43 305.38,-25.8"/>
</a>
</g>
</g>
<!-- Node25 -->
<g id="Node000025" class="node">
<title>Node25</title>
<g id="a_Node000025"><a xlink:title=" ">
<polygon fill="#e0e0e0" stroke="#999999" points="781.12,-80.12 729.88,-80.12 729.88,-60.88 781.12,-60.88 781.12,-80.12"/>
<text text-anchor="middle" x="755.5" y="-66.62" font-family="Helvetica,sans-Serif" font-size="10.00">memory</text>
</a>
</g>
</g>
<!-- Node2&#45;&gt;Node25 -->
<g id="edge26_Node000002_Node000025" class="edge">
<title>Node2&#45;&gt;Node25</title>
<g id="a_edge26_Node000002_Node000025"><a xlink:title=" ">
<path fill="none" stroke="#63b8ff" d="M405.15,-128.15C480.58,-124.28 611.68,-113.79 720.5,-85.75 722.09,-85.34 723.7,-84.88 725.32,-84.37"/>
<polygon fill="#63b8ff" stroke="#63b8ff" points="726.18,-87.78 734.4,-81.1 723.81,-81.19 726.18,-87.78"/>
</a>
</g>
</g>
<!-- Node4 -->
<g id="Node000004" class="node">
<title>Node4</title>
<g id="a_Node000004"><a xlink:title=" ">
<polygon fill="#e0e0e0" stroke="#999999" points="181.25,-19.25 127.75,-19.25 127.75,0 181.25,0 181.25,-19.25"/>
<text text-anchor="middle" x="154.5" y="-5.75" font-family="Helvetica,sans-Serif" font-size="10.00">iostream</text>
</a>
</g>
</g>
<!-- Node3&#45;&gt;Node4 -->
<g id="edge3_Node000003_Node000004" class="edge">
<title>Node3&#45;&gt;Node4</title>
<g id="a_edge3_Node000003_Node000004"><a xlink:title=" ">
<path fill="none" stroke="#63b8ff" d="M643.04,-67.52C564.76,-62.68 367.43,-48.59 192.75,-19.41"/>
<polygon fill="#63b8ff" stroke="#63b8ff" points="193.48,-15.98 183.04,-17.76 192.31,-22.88 193.48,-15.98"/>
</a>
</g>
</g>
<!-- Node5 -->
<g id="Node000005" class="node">
<title>Node5</title>
<g id="a_Node000005"><a xlink:title=" ">
<polygon fill="#e0e0e0" stroke="#999999" points="248,-19.25 199,-19.25 199,0 248,0 248,-19.25"/>
<text text-anchor="middle" x="223.5" y="-5.75" font-family="Helvetica,sans-Serif" font-size="10.00">fstream</text>
</a>
</g>
</g>
<!-- Node3&#45;&gt;Node5 -->
<g id="edge4_Node000003_Node000005" class="edge">
<title>Node3&#45;&gt;Node5</title>
<g id="a_edge4_Node000003_Node000005"><a xlink:title=" ">
<path fill="none" stroke="#63b8ff" d="M642.97,-66.89C572.66,-61.25 407.69,-46.37 259.4,-19.36"/>
<polygon fill="#63b8ff" stroke="#63b8ff" points="260.26,-15.96 249.79,-17.59 258.99,-22.84 260.26,-15.96"/>
</a>
</g>
</g>
<!-- Node3&#45;&gt;Node6 -->
<g id="edge5_Node000003_Node000006" class="edge">
<title>Node3&#45;&gt;Node6</title>
<g id="a_edge5_Node000003_Node000006"><a xlink:title=" ">
<path fill="none" stroke="#63b8ff" d="M642.99,-69.03C549.57,-67.28 283.91,-59.07 54.63,-19.26"/>
<polygon fill="#63b8ff" stroke="#63b8ff" points="55.34,-15.83 44.89,-17.54 54.13,-22.72 55.34,-15.83"/>
</a>
</g>
</g>
<!-- Node3&#45;&gt;Node7 -->
<g id="edge6_Node000003_Node000007" class="edge">
<title>Node3&#45;&gt;Node7</title>
<g id="a_edge6_Node000003_Node000007"><a xlink:title=" ">
<path fill="none" stroke="#63b8ff" d="M642.87,-66.33C580.07,-60.22 443.08,-45.29 317.67,-19.18"/>
<polygon fill="#63b8ff" stroke="#63b8ff" points="318.72,-15.82 308.22,-17.18 317.28,-22.67 318.72,-15.82"/>
</a>
</g>
</g>
<!-- Node8 -->
<g id="Node000008" class="node">
<title>Node8</title>
<g id="a_Node000008"><a xlink:title=" ">
<polygon fill="#e0e0e0" stroke="#999999" points="368,-19.25 325,-19.25 325,0 368,0 368,-19.25"/>
<text text-anchor="middle" x="346.5" y="-5.75" font-family="Helvetica,sans-Serif" font-size="10.00">cmath</text>
</a>
</g>
</g>
<!-- Node3&#45;&gt;Node8 -->
<g id="edge7_Node000003_Node000008" class="edge">
<title>Node3&#45;&gt;Node8</title>
<g id="a_edge7_Node000003_Node000008"><a xlink:title=" ">
<path fill="none" stroke="#63b8ff" d="M642.94,-65.04C588.69,-57.76 480.08,-42.05 379.36,-19.7"/>
<polygon fill="#63b8ff" stroke="#63b8ff" points="380.38,-16.34 369.86,-17.56 378.84,-23.17 380.38,-16.34"/>
</a>
</g>
</g>
<!-- Node9 -->
<g id="Node000009" class="node">
<title>Node9</title>
<g id="a_Node000009"><a xlink:title=" ">
<polygon fill="#e0e0e0" stroke="#999999" points="577.75,-19.25 527.25,-19.25 527.25,0 577.75,0 577.75,-19.25"/>
<text text-anchor="middle" x="552.5" y="-5.75" font-family="Helvetica,sans-Serif" font-size="10.00">typeinfo</text>
</a>
</g>
</g>
<!-- Node3&#45;&gt;Node9 -->
<g id="edge8_Node000003_Node000009" class="edge">
<title>Node3&#45;&gt;Node9</title>
<g id="a_edge8_Node000003_Node000009"><a xlink:title=" ">
<path fill="none" stroke="#63b8ff" d="M658.24,-60.43C637.81,-50.81 605.29,-35.49 581.71,-24.38"/>
<polygon fill="#63b8ff" stroke="#63b8ff" points="583.48,-21.35 572.94,-20.25 580.5,-27.68 583.48,-21.35"/>
</a>
</g>
</g>
<!-- Node10 -->
<g id="Node000010" class="node">
<title>Node10</title>
<g id="a_Node000010"><a xlink:title=" ">
<polygon fill="#e0e0e0" stroke="#999999" points="435.38,-19.25 385.62,-19.25 385.62,0 435.38,0 435.38,-19.25"/>
<text text-anchor="middle" x="410.5" y="-5.75" font-family="Helvetica,sans-Serif" font-size="10.00">iomanip</text>
</a>
</g>
</g>
<!-- Node3&#45;&gt;Node10 -->
<g id="edge9_Node000003_Node000010" class="edge">
<title>Node3&#45;&gt;Node10</title>
<g id="a_edge9_Node000003_Node000010"><a xlink:title=" ">
<path fill="none" stroke="#63b8ff" d="M643.07,-62.48C599.66,-53.54 522.48,-37.35 446.87,-19.74"/>
<polygon fill="#63b8ff" stroke="#63b8ff" points="447.73,-16.35 437.2,-17.48 446.14,-23.16 447.73,-16.35"/>
</a>
</g>
</g>
<!-- Node11 -->
<g id="Node000011" class="node">
<title>Node11</title>
<g id="a_Node000011"><a xlink:title=" ">
<polygon fill="#e0e0e0" stroke="#999999" points="637.62,-19.25 595.38,-19.25 595.38,0 637.62,0 637.62,-19.25"/>
<text text-anchor="middle" x="616.5" y="-5.75" font-family="Helvetica,sans-Serif" font-size="10.00">cstdio</text>
</a>
</g>
</g>
<!-- Node3&#45;&gt;Node11 -->
<g id="edge10_Node000003_Node000011" class="edge">
<title>Node3&#45;&gt;Node11</title>
<g id="a_edge10_Node000003_Node000011"><a xlink:title=" ">
<path fill="none" stroke="#63b8ff" d="M668.24,-60.56C659.19,-51.83 645.19,-38.32 634.04,-27.55"/>
<polygon fill="#63b8ff" stroke="#63b8ff" points="636.57,-25.13 626.94,-20.7 631.71,-30.17 636.57,-25.13"/>
</a>
</g>
</g>
<!-- Node12 -->
<g id="Node000012" class="node">
<title>Node12</title>
<g id="a_Node000012"><a xlink:title=" ">
<polygon fill="#e0e0e0" stroke="#999999" points="699.75,-19.25 655.25,-19.25 655.25,0 699.75,0 699.75,-19.25"/>
<text text-anchor="middle" x="677.5" y="-5.75" font-family="Helvetica,sans-Serif" font-size="10.00">cstdlib</text>
</a>
</g>
</g>
<!-- Node3&#45;&gt;Node12 -->
<g id="edge11_Node000003_Node000012" class="edge">
<title>Node3&#45;&gt;Node12</title>
<g id="a_edge11_Node000003_Node000012"><a xlink:title=" ">
<path fill="none" stroke="#63b8ff" d="M677.5,-60.56C677.5,-52.78 677.5,-41.2 677.5,-31.16"/>
<polygon fill="#63b8ff" stroke="#63b8ff" points="681,-31.16 677.5,-21.16 674,-31.16 681,-31.16"/>
</a>
</g>
</g>
<!-- Node13 -->
<g id="Node000013" class="node">
<title>Node13</title>
<g id="a_Node000013"><a xlink:title=" ">
<polygon fill="#e0e0e0" stroke="#999999" points="509.38,-19.25 453.62,-19.25 453.62,0 509.38,0 509.38,-19.25"/>
<text text-anchor="middle" x="481.5" y="-5.75" font-family="Helvetica,sans-Serif" font-size="10.00">algorithm</text>
</a>
</g>
</g>
<!-- Node3&#45;&gt;Node13 -->
<g id="edge12_Node000003_Node000013" class="edge">
<title>Node3&#45;&gt;Node13</title>
<g id="a_edge12_Node000003_Node000013"><a xlink:title=" ">
<path fill="none" stroke="#63b8ff" d="M647.3,-60.43C613.34,-50.23 558.07,-33.62 520.77,-22.42"/>
<polygon fill="#63b8ff" stroke="#63b8ff" points="521.85,-19.09 511.27,-19.57 519.84,-25.8 521.85,-19.09"/>
</a>
</g>
</g>
<!-- Node14 -->
<g id="Node000014" class="node">
<title>Node14</title>
<g id="a_Node000014"><a xlink:title=" ">
<polygon fill="#e0e0e0" stroke="#999999" points="763.12,-19.25 717.88,-19.25 717.88,0 763.12,0 763.12,-19.25"/>
<text text-anchor="middle" x="740.5" y="-5.75" font-family="Helvetica,sans-Serif" font-size="10.00">chrono</text>
</a>
</g>
</g>
<!-- Node3&#45;&gt;Node14 -->
<g id="edge13_Node000003_Node000014" class="edge">
<title>Node3&#45;&gt;Node14</title>
<g id="a_edge13_Node000003_Node000014"><a xlink:title=" ">
<path fill="none" stroke="#63b8ff" d="M687.07,-60.56C696.5,-51.74 711.15,-38.05 722.73,-27.23"/>
<polygon fill="#63b8ff" stroke="#63b8ff" points="724.82,-30.07 729.74,-20.68 720.04,-24.96 724.82,-30.07"/>
</a>
</g>
</g>
<!-- Node15 -->
<g id="Node000015" class="node">
<title>Node15</title>
<g id="a_Node000015"><a xlink:title=" ">
<polygon fill="#e0e0e0" stroke="#999999" points="821.5,-19.25 781.5,-19.25 781.5,0 821.5,0 821.5,-19.25"/>
<text text-anchor="middle" x="801.5" y="-5.75" font-family="Helvetica,sans-Serif" font-size="10.00">cfloat</text>
</a>
</g>
</g>
<!-- Node3&#45;&gt;Node15 -->
<g id="edge14_Node000003_Node000015" class="edge">
<title>Node3&#45;&gt;Node15</title>
<g id="a_edge14_Node000003_Node000015"><a xlink:title=" ">
<path fill="none" stroke="#63b8ff" d="M696.6,-60.43C716.78,-50.85 748.84,-35.63 772.21,-24.53"/>
<polygon fill="#63b8ff" stroke="#63b8ff" points="773.68,-27.71 781.21,-20.26 770.68,-21.39 773.68,-27.71"/>
</a>
</g>
</g>
<!-- Node16 -->
<g id="Node000016" class="node">
<title>Node16</title>
<g id="a_Node000016"><a xlink:title=" ">
<polygon fill="#e0e0e0" stroke="#999999" points="901,-19.25 840,-19.25 840,0 901,0 901,-19.25"/>
<text text-anchor="middle" x="870.5" y="-5.75" font-family="Helvetica,sans-Serif" font-size="10.00">filesystem</text>
</a>
</g>
</g>
<!-- Node3&#45;&gt;Node16 -->
<g id="edge15_Node000003_Node000016" class="edge">
<title>Node3&#45;&gt;Node16</title>
<g id="a_edge15_Node000003_Node000016"><a xlink:title=" ">
<path fill="none" stroke="#63b8ff" d="M704.3,-60.48C709.65,-58.71 715.25,-56.9 720.5,-55.25 756.93,-43.8 798.57,-31.47 828.72,-22.68"/>
<polygon fill="#63b8ff" stroke="#63b8ff" points="829.6,-26.07 838.22,-19.92 827.64,-19.35 829.6,-26.07"/>
</a>
</g>
</g>
<!-- Node17 -->
<g id="Node000017" class="node">
<title>Node17</title>
<g id="a_Node000017"><a xlink:title=" ">
<polygon fill="#e0e0e0" stroke="#999999" points="953.88,-19.25 919.12,-19.25 919.12,0 953.88,0 953.88,-19.25"/>
<text text-anchor="middle" x="936.5" y="-5.75" font-family="Helvetica,sans-Serif" font-size="10.00">map</text>
</a>
</g>
</g>
<!-- Node3&#45;&gt;Node17 -->
<g id="edge16_Node000003_Node000017" class="edge">
<title>Node3&#45;&gt;Node17</title>
<g id="a_edge16_Node000003_Node000017"><a xlink:title=" ">
<path fill="none" stroke="#63b8ff" d="M702.8,-60.5C708.57,-58.61 714.71,-56.75 720.5,-55.25 800.28,-34.57 825.27,-40.29 907.78,-19.67"/>
<polygon fill="#63b8ff" stroke="#63b8ff" points="908.41,-23.13 917.22,-17.26 906.67,-16.35 908.41,-23.13"/>
</a>
</g>
</g>
<!-- Node18 -->
<g id="Node000018" class="node">
<title>Node18</title>
<g id="a_Node000018"><a xlink:title=" ">
<polygon fill="#e0e0e0" stroke="#999999" points="1030.88,-19.25 972.12,-19.25 972.12,0 1030.88,0 1030.88,-19.25"/>
<text text-anchor="middle" x="1001.5" y="-5.75" font-family="Helvetica,sans-Serif" font-size="10.00">stdexcept</text>
</a>
</g>
</g>
<!-- Node3&#45;&gt;Node18 -->
<g id="edge17_Node000003_Node000018" class="edge">
<title>Node3&#45;&gt;Node18</title>
<g id="a_edge17_Node000003_Node000018"><a xlink:title=" ">
<path fill="none" stroke="#63b8ff" d="M702.3,-60.47C708.21,-58.55 714.53,-56.67 720.5,-55.25 822.77,-30.89 853.54,-38.45 960.44,-19.48"/>
<polygon fill="#63b8ff" stroke="#63b8ff" points="961.03,-22.93 970.24,-17.7 959.78,-16.05 961.03,-22.93"/>
</a>
</g>
</g>
<!-- Node19 -->
<g id="Node000019" class="node">
<title>Node19</title>
<g id="a_Node000019"><a xlink:title=" ">
<polygon fill="#e0e0e0" stroke="#999999" points="1100.12,-19.25 1048.88,-19.25 1048.88,0 1100.12,0 1100.12,-19.25"/>
<text text-anchor="middle" x="1074.5" y="-5.75" font-family="Helvetica,sans-Serif" font-size="10.00">sstream</text>
</a>
</g>
</g>
<!-- Node3&#45;&gt;Node19 -->
<g id="edge18_Node000003_Node000019" class="edge">
<title>Node3&#45;&gt;Node19</title>
<g id="a_edge18_Node000003_Node000019"><a xlink:title=" ">
<path fill="none" stroke="#63b8ff" d="M701.81,-60.47C707.85,-58.5 714.35,-56.6 720.5,-55.25 856.32,-25.42 897,-43.4 1037.41,-19.37"/>
<polygon fill="#63b8ff" stroke="#63b8ff" points="1037.85,-22.85 1047.1,-17.67 1036.64,-15.95 1037.85,-22.85"/>
</a>
</g>
</g>
<!-- Node20 -->
<g id="Node000020" class="node">
<title>Node20</title>
<g id="a_Node000020"><a xlink:title=" ">
<polygon fill="#e0e0e0" stroke="#999999" points="1200.88,-19.25 1118.12,-19.25 1118.12,0 1200.88,0 1200.88,-19.25"/>
<text text-anchor="middle" x="1159.5" y="-5.75" font-family="Helvetica,sans-Serif" font-size="10.00">unordered_map</text>
</a>
</g>
</g>
<!-- Node3&#45;&gt;Node20 -->
<g id="edge19_Node000003_Node000020" class="edge">
<title>Node3&#45;&gt;Node20</title>
<g id="a_edge19_Node000003_Node000020"><a xlink:title=" ">
<path fill="none" stroke="#63b8ff" d="M701.79,-60.38C707.83,-58.41 714.34,-56.54 720.5,-55.25 886.88,-20.46 935.35,-41.11 1106.61,-19.52"/>
<polygon fill="#63b8ff" stroke="#63b8ff" points="1106.83,-23.02 1116.29,-18.27 1105.93,-16.08 1106.83,-23.02"/>
</a>
</g>
</g>
<!-- Node21 -->
<g id="Node000021" class="node">
<title>Node21</title>
<g id="a_Node000021"><a xlink:title=" ">
<polygon fill="#e0e0e0" stroke="#999999" points="1296.25,-19.25 1218.75,-19.25 1218.75,0 1296.25,0 1296.25,-19.25"/>
<text text-anchor="middle" x="1257.5" y="-5.75" font-family="Helvetica,sans-Serif" font-size="10.00">unordered_set</text>
</a>
</g>
</g>
<!-- Node3&#45;&gt;Node21 -->
<g id="edge20_Node000003_Node000021" class="edge">
<title>Node3&#45;&gt;Node21</title>
<g id="a_edge20_Node000003_Node000021"><a xlink:title=" ">
<path fill="none" stroke="#63b8ff" d="M701.33,-60.45C707.49,-58.43 714.18,-56.51 720.5,-55.25 930.56,-13.38 991.23,-45.42 1206.87,-19.43"/>
<polygon fill="#63b8ff" stroke="#63b8ff" points="1207.26,-22.91 1216.76,-18.21 1206.4,-15.96 1207.26,-22.91"/>
</a>
</g>
</g>
<!-- Node22 -->
<g id="Node000022" class="node">
<title>Node22</title>
<g id="a_Node000022"><a xlink:title=" ">
<polygon fill="#e0e0e0" stroke="#999999" points="1351,-19.25 1314,-19.25 1314,0 1351,0 1351,-19.25"/>
<text text-anchor="middle" x="1332.5" y="-5.75" font-family="Helvetica,sans-Serif" font-size="10.00">tuple</text>
</a>
</g>
</g>
<!-- Node3&#45;&gt;Node22 -->
<g id="edge21_Node000003_Node000022" class="edge">
<title>Node3&#45;&gt;Node22</title>
<g id="a_edge21_Node000003_Node000022"><a xlink:title=" ">
<path fill="none" stroke="#63b8ff" d="M701.32,-60.39C707.48,-58.37 714.17,-56.47 720.5,-55.25 972.65,-6.57 1047.36,-65.53 1302.66,-19.32"/>
<polygon fill="#63b8ff" stroke="#63b8ff" points="1303.09,-22.8 1312.28,-17.54 1301.81,-15.92 1303.09,-22.8"/>
</a>
</g>
</g>
<!-- Node23 -->
<g id="Node000023" class="node">
<title>Node23</title>
<g id="a_Node000023"><a xlink:title=" ">
<polygon fill="#e0e0e0" stroke="#999999" points="1398.25,-19.25 1368.75,-19.25 1368.75,0 1398.25,0 1398.25,-19.25"/>
<text text-anchor="middle" x="1383.5" y="-5.75" font-family="Helvetica,sans-Serif" font-size="10.00">set</text>
</a>
</g>
</g>
<!-- Node3&#45;&gt;Node23 -->
<g id="edge22_Node000003_Node000023" class="edge">
<title>Node3&#45;&gt;Node23</title>
<g id="a_edge22_Node000003_Node000023"><a xlink:title=" ">
<path fill="none" stroke="#63b8ff" d="M700.86,-60.52C707.15,-58.44 714.01,-56.49 720.5,-55.25 996.68,-2.68 1079.54,-75.96 1357.12,-19.38"/>
<polygon fill="#63b8ff" stroke="#63b8ff" points="1357.79,-22.81 1366.87,-17.35 1356.37,-15.96 1357.79,-22.81"/>
</a>
</g>
</g>
<!-- Node24 -->
<g id="Node000024" class="node">
<title>Node24</title>
<g id="a_Node000024"><a xlink:title=" ">
<polygon fill="#e0e0e0" stroke="#999999" points="1502.38,-19.25 1416.62,-19.25 1416.62,0 1502.38,0 1502.38,-19.25"/>
<text text-anchor="middle" x="1459.5" y="-5.75" font-family="Helvetica,sans-Serif" font-size="10.00">boost/regex.hpp</text>
</a>
</g>
</g>
<!-- Node3&#45;&gt;Node24 -->
<g id="edge23_Node000003_Node000024" class="edge">
<title>Node3&#45;&gt;Node24</title>
<g id="a_edge23_Node000003_Node000024"><a xlink:title=" ">
<path fill="none" stroke="#63b8ff" d="M700.86,-60.5C707.15,-58.43 714.01,-56.47 720.5,-55.25 1017.3,0.66 1101.49,-51.02 1404.79,-19.4"/>
<polygon fill="#63b8ff" stroke="#63b8ff" points="1405.06,-22.89 1414.63,-18.35 1404.32,-15.93 1405.06,-22.89"/>
</a>
</g>
</g>
<!-- Node26&#45;&gt;Node4 -->
<g id="edge31_Node000026_Node000004" class="edge">
<title>Node26&#45;&gt;Node4</title>
<g id="a_edge31_Node000026_Node000004"><a xlink:title=" ">
<path fill="none" stroke="#63b8ff" d="M229.52,-54.8C214.29,-45.83 194.89,-34.41 179.63,-25.42"/>
<polygon fill="#63b8ff" stroke="#63b8ff" points="181.53,-22.48 171.14,-20.42 177.98,-28.51 181.53,-22.48"/>
</a>
</g>
</g>
<!-- Node26&#45;&gt;Node5 -->
<g id="edge32_Node000026_Node000005" class="edge">
<title>Node26&#45;&gt;Node5</title>
<g id="a_edge32_Node000026_Node000005"><a xlink:title=" ">
<path fill="none" stroke="#63b8ff" d="M246.84,-54.95C242.84,-47.36 237.91,-37.99 233.61,-29.82"/>
<polygon fill="#63b8ff" stroke="#63b8ff" points="236.74,-28.26 228.98,-21.04 230.55,-31.52 236.74,-28.26"/>
</a>
</g>
</g>
<!-- Node26&#45;&gt;Node6 -->
<g id="edge28_Node000026_Node000006" class="edge">
<title>Node26&#45;&gt;Node6</title>
<g id="a_edge28_Node000026_Node000006"><a xlink:title=" ">
<path fill="none" stroke="#63b8ff" d="M196.93,-55.62C159.06,-46.4 108.15,-33.8 54.6,-19.75"/>
<polygon fill="#63b8ff" stroke="#63b8ff" points="55.52,-16.37 44.96,-17.21 53.74,-23.14 55.52,-16.37"/>
</a>
</g>
</g>
<!-- Node26&#45;&gt;Node7 -->
<g id="edge29_Node000026_Node000007" class="edge">
<title>Node26&#45;&gt;Node7</title>
<g id="a_edge29_Node000026_Node000007"><a xlink:title=" ">
<path fill="none" stroke="#63b8ff" d="M262.41,-54.95C266.53,-47.36 271.63,-37.99 276.07,-29.82"/>
<polygon fill="#63b8ff" stroke="#63b8ff" points="279.14,-31.49 280.84,-21.03 272.99,-28.15 279.14,-31.49"/>
</a>
</g>
</g>
<!-- Node26&#45;&gt;Node8 -->
<g id="edge30_Node000026_Node000008" class="edge">
<title>Node26&#45;&gt;Node8</title>
<g id="a_edge30_Node000026_Node000008"><a xlink:title=" ">
<path fill="none" stroke="#63b8ff" d="M277.24,-54.95C291.11,-46.07 308.82,-34.74 322.85,-25.76"/>
<polygon fill="#63b8ff" stroke="#63b8ff" points="324.51,-28.86 331.04,-20.52 320.73,-22.96 324.51,-28.86"/>
</a>
</g>
</g>
<!-- Node26&#45;&gt;Node10 -->
<g id="edge33_Node000026_Node000010" class="edge">
<title>Node26&#45;&gt;Node10</title>
<g id="a_edge33_Node000026_Node000010"><a xlink:title=" ">
<path fill="none" stroke="#63b8ff" d="M293.46,-54.8C318.82,-45.23 351.59,-32.86 376,-23.64"/>
<polygon fill="#63b8ff" stroke="#63b8ff" points="377.04,-26.99 385.16,-20.19 374.57,-20.44 377.04,-26.99"/>
</a>
</g>
</g>
<!-- Node26&#45;&gt;Node13 -->
<g id="edge34_Node000026_Node000013" class="edge">
<title>Node26&#45;&gt;Node13</title>
<g id="a_edge34_Node000026_Node000013"><a xlink:title=" ">
<path fill="none" stroke="#63b8ff" d="M311.2,-54.8C352.08,-44.19 406.21,-30.15 442.36,-20.78"/>
<polygon fill="#63b8ff" stroke="#63b8ff" points="443.16,-24.19 451.96,-18.29 441.4,-17.41 443.16,-24.19"/>
</a>
</g>
</g>
<!-- Node27 -->
<g id="Node000027" class="node">
<title>Node27</title>
<g id="a_Node000027"><a xlink:title=" ">
<polygon fill="#e0e0e0" stroke="#999999" points="109.62,-19.25 61.38,-19.25 61.38,0 109.62,0 109.62,-19.25"/>
<text text-anchor="middle" x="85.5" y="-5.75" font-family="Helvetica,sans-Serif" font-size="10.00">cassert</text>
</a>
</g>
</g>
<!-- Node26&#45;&gt;Node27 -->
<g id="edge35_Node000026_Node000027" class="edge">
<title>Node26&#45;&gt;Node27</title>
<g id="a_edge35_Node000026_Node000027"><a xlink:title=" ">
<path fill="none" stroke="#63b8ff" d="M212.29,-54.8C184.06,-44.96 147.35,-32.17 120.69,-22.89"/>
<polygon fill="#63b8ff" stroke="#63b8ff" points="121.97,-19.62 111.37,-19.64 119.66,-26.23 121.97,-19.62"/>
</a>
</g>
</g>
</g>
</svg>
