<?xml version="1.0" encoding="UTF-8" standalone="no"?>
<!DOCTYPE svg PUBLIC "-//W3C//DTD SVG 1.1//EN"
 "http://www.w3.org/Graphics/SVG/1.1/DTD/svg11.dtd">
<!-- Generated by graphviz version 12.2.1 (20241206.2353)
 -->
<!-- Title: Line::Get_Point_list Pages: 1 -->
<svg width="237pt" height="101pt"
 viewBox="0.00 0.00 237.25 101.25" xmlns="http://www.w3.org/2000/svg" xmlns:xlink="http://www.w3.org/1999/xlink">
<g id="graph0" class="graph" transform="scale(1 1) rotate(0) translate(4 97.25)">
<title>Line::Get_Point_list</title>
<!-- Node1 -->
<g id="Node000001" class="node">
<title>Node1</title>
<g id="a_Node000001"><a xlink:title=" ">
<polygon fill="#999999" stroke="#666666" points="229.25,-56.25 127.75,-56.25 127.75,-37 229.25,-37 229.25,-56.25"/>
<text text-anchor="middle" x="178.5" y="-42.75" font-family="Helvetica,sans-Serif" font-size="10.00">Line::Get_Point_list</text>
</a>
</g>
</g>
<!-- Node2 -->
<g id="Node000002" class="node">
<title>Node2</title>
<g id="a_Node000002"><a xlink:href="../../d6/da1/_half___cylinder_8cpp_ae66f6b31b5ad750f1fe042a706a4e3d4.html#ae66f6b31b5ad750f1fe042a706a4e3d4" target="_top" xlink:title=" ">
<polygon fill="white" stroke="#666666" points="64.38,-93.25 27.38,-93.25 27.38,-74 64.38,-74 64.38,-93.25"/>
<text text-anchor="middle" x="45.88" y="-79.75" font-family="Helvetica,sans-Serif" font-size="10.00">main</text>
</a>
</g>
</g>
<!-- Node1&#45;&gt;Node2 -->
<g id="edge1_Node000001_Node000002" class="edge">
<title>Node1&#45;&gt;Node2</title>
<g id="a_edge1_Node000001_Node000002"><a xlink:title=" ">
<path fill="none" stroke="#63b8ff" d="M130.84,-59.84C107.85,-66.35 81.48,-73.82 64.53,-78.63"/>
<polygon fill="#63b8ff" stroke="#63b8ff" points="131.68,-63.24 140.35,-57.15 129.77,-56.51 131.68,-63.24"/>
</a>
</g>
</g>
<!-- Node3 -->
<g id="Node000003" class="node">
<title>Node3</title>
<g id="a_Node000003"><a xlink:href="../../dd/db4/class_line_a633777c10334434af21f2e2cef9c2353.html#a633777c10334434af21f2e2cef9c2353" target="_top" xlink:title=" ">
<polygon fill="white" stroke="#666666" points="79.38,-56.25 12.38,-56.25 12.38,-37 79.38,-37 79.38,-56.25"/>
<text text-anchor="middle" x="45.88" y="-42.75" font-family="Helvetica,sans-Serif" font-size="10.00">Line::Merge</text>
</a>
</g>
</g>
<!-- Node1&#45;&gt;Node3 -->
<g id="edge2_Node000001_Node000003" class="edge">
<title>Node1&#45;&gt;Node3</title>
<g id="a_edge2_Node000001_Node000003"><a xlink:title=" ">
<path fill="none" stroke="#63b8ff" d="M115.98,-46.62C103.47,-46.62 90.76,-46.62 79.72,-46.62"/>
<polygon fill="#63b8ff" stroke="#63b8ff" points="115.86,-50.13 125.86,-46.63 115.86,-43.13 115.86,-50.13"/>
</a>
</g>
</g>
<!-- Node4 -->
<g id="Node000004" class="node">
<title>Node4</title>
<g id="a_Node000004"><a xlink:href="../../d8/d83/class_object_a5eabd85c6d1cd266e8b068465c8cbc71.html#a5eabd85c6d1cd266e8b068465c8cbc71" target="_top" xlink:title=" ">
<polygon fill="white" stroke="#666666" points="91.75,-19.25 0,-19.25 0,0 91.75,0 91.75,-19.25"/>
<text text-anchor="middle" x="45.88" y="-5.75" font-family="Helvetica,sans-Serif" font-size="10.00">Object::operator()</text>
</a>
</g>
</g>
<!-- Node1&#45;&gt;Node4 -->
<g id="edge3_Node000001_Node000004" class="edge">
<title>Node1&#45;&gt;Node4</title>
<g id="a_edge3_Node000001_Node000004"><a xlink:title=" ">
<path fill="none" stroke="#63b8ff" d="M131.07,-33.47C115.11,-28.95 97.5,-23.96 82.53,-19.72"/>
<polygon fill="#63b8ff" stroke="#63b8ff" points="129.77,-36.74 140.35,-36.1 131.68,-30.01 129.77,-36.74"/>
</a>
</g>
</g>
</g>
</svg>
