<?xml version="1.0" encoding="UTF-8" standalone="no"?>
<!DOCTYPE svg PUBLIC "-//W3C//DTD SVG 1.1//EN"
 "http://www.w3.org/Graphics/SVG/1.1/DTD/svg11.dtd">
<!-- Generated by graphviz version 12.2.1 (20241206.2353)
 -->
<!-- Title: convergence_check_kernel Pages: 1 -->
<svg width="276pt" height="64pt"
 viewBox="0.00 0.00 276.25 64.25" xmlns="http://www.w3.org/2000/svg" xmlns:xlink="http://www.w3.org/1999/xlink">
<g id="graph0" class="graph" transform="scale(1 1) rotate(0) translate(4 60.25)">
<title>convergence_check_kernel</title>
<!-- Node1 -->
<g id="Node000001" class="node">
<title>Node1</title>
<g id="a_Node000001"><a xlink:title=" ">
<polygon fill="#999999" stroke="#666666" points="134.5,-37.25 0,-37.25 0,-18 134.5,-18 134.5,-37.25"/>
<text text-anchor="middle" x="67.25" y="-23.75" font-family="Helvetica,sans-Serif" font-size="10.00">convergence_check_kernel</text>
</a>
</g>
</g>
<!-- Node2 -->
<g id="Node000002" class="node">
<title>Node2</title>
<g id="a_Node000002"><a xlink:href="../../df/d31/_iterative___solver___cuda___kernels_8cu_aec115ed01e1e54d38ae9b8ae41df4066.html#aec115ed01e1e54d38ae9b8ae41df4066" target="_top" xlink:title=" ">
<polygon fill="white" stroke="#666666" points="267.5,-56.25 171.25,-56.25 171.25,-37 267.5,-37 267.5,-56.25"/>
<text text-anchor="middle" x="219.38" y="-42.75" font-family="Helvetica,sans-Serif" font-size="10.00">atomicAdd_double</text>
</a>
</g>
</g>
<!-- Node1&#45;&gt;Node2 -->
<g id="edge1_Node000001_Node000002" class="edge">
<title>Node1&#45;&gt;Node2</title>
<g id="a_edge1_Node000001_Node000002"><a xlink:title=" ">
<path fill="none" stroke="#63b8ff" d="M134.97,-36.07C143.17,-37.11 151.5,-38.16 159.57,-39.18"/>
<polygon fill="#63b8ff" stroke="#63b8ff" points="158.89,-42.62 169.26,-40.41 159.77,-35.68 158.89,-42.62"/>
</a>
</g>
</g>
<!-- Node3 -->
<g id="Node000003" class="node">
<title>Node3</title>
<g id="a_Node000003"><a xlink:href="../../df/d31/_iterative___solver___cuda___kernels_8cu_a72689557ba3aeb3c8dc98ccefefcab14.html#a72689557ba3aeb3c8dc98ccefefcab14" target="_top" xlink:title=" ">
<polygon fill="white" stroke="#666666" points="268.25,-19.25 170.5,-19.25 170.5,0 268.25,0 268.25,-19.25"/>
<text text-anchor="middle" x="219.38" y="-5.75" font-family="Helvetica,sans-Serif" font-size="10.00">atomicMax_double</text>
</a>
</g>
</g>
<!-- Node1&#45;&gt;Node3 -->
<g id="edge2_Node000001_Node000003" class="edge">
<title>Node1&#45;&gt;Node3</title>
<g id="a_edge2_Node000001_Node000003"><a xlink:title=" ">
<path fill="none" stroke="#63b8ff" d="M134.97,-19.63C142.97,-18.67 151.09,-17.69 158.98,-16.75"/>
<polygon fill="#63b8ff" stroke="#63b8ff" points="159.3,-20.23 168.81,-15.57 158.46,-13.28 159.3,-20.23"/>
</a>
</g>
</g>
</g>
</svg>
