<?xml version="1.0" encoding="UTF-8" standalone="no"?>
<!DOCTYPE svg PUBLIC "-//W3C//DTD SVG 1.1//EN"
 "http://www.w3.org/Graphics/SVG/1.1/DTD/svg11.dtd">
<!-- Generated by graphviz version 12.2.1 (20241206.2353)
 -->
<!-- Title: example_main_integration Pages: 1 -->
<svg width="918pt" height="404pt"
 viewBox="0.00 0.00 917.75 403.88" xmlns="http://www.w3.org/2000/svg" xmlns:xlink="http://www.w3.org/1999/xlink">
<g id="graph0" class="graph" transform="scale(1 1) rotate(0) translate(4 399.88)">
<title>example_main_integration</title>
<!-- Node1 -->
<g id="Node000001" class="node">
<title>Node1</title>
<g id="a_Node000001"><a xlink:title=" ">
<polygon fill="#999999" stroke="#666666" points="129.25,-241.88 0,-241.88 0,-222.62 129.25,-222.62 129.25,-241.88"/>
<text text-anchor="middle" x="64.62" y="-228.38" font-family="Helvetica,sans-Serif" font-size="10.00">example_main_integration</text>
</a>
</g>
</g>
<!-- Node2 -->
<g id="Node000002" class="node">
<title>Node2</title>
<g id="a_Node000002"><a xlink:href="../../d8/d24/_grid___computations___optimized_8cpp_a4efd9f60fc343a459b70cfe5087f87a3.html#a4efd9f60fc343a459b70cfe5087f87a3" target="_top" xlink:title=" ">
<polygon fill="white" stroke="#666666" points="661.38,-395.88 531.38,-395.88 531.38,-376.62 661.38,-376.62 661.38,-395.88"/>
<text text-anchor="middle" x="596.38" y="-382.38" font-family="Helvetica,sans-Serif" font-size="10.00">analyze_grid_performance</text>
</a>
</g>
</g>
<!-- Node1&#45;&gt;Node2 -->
<g id="edge1_Node000001_Node000002" class="edge">
<title>Node1&#45;&gt;Node2</title>
<g id="a_edge1_Node000001_Node000002"><a xlink:title=" ">
<path fill="none" stroke="#63b8ff" d="M78.54,-242.29C96.97,-256.26 132.23,-281.7 165.25,-298.25 231.2,-331.31 249.68,-337.42 321.5,-354.25 387.56,-369.73 464.42,-377.88 519.88,-382.07"/>
<polygon fill="#63b8ff" stroke="#63b8ff" points="519.29,-385.54 529.51,-382.77 519.79,-378.55 519.29,-385.54"/>
</a>
</g>
</g>
<!-- Node3 -->
<g id="Node000003" class="node">
<title>Node3</title>
<g id="a_Node000003"><a xlink:href="../../d8/d40/_grid___computations_8cpp_a209db16fba143a9833c8d4021624afb0.html#a209db16fba143a9833c8d4021624afb0" target="_top" xlink:title=" ">
<polygon fill="white" stroke="#666666" points="261.5,-122.88 189.25,-122.88 189.25,-103.62 261.5,-103.62 261.5,-122.88"/>
<text text-anchor="middle" x="225.38" y="-109.38" font-family="Helvetica,sans-Serif" font-size="10.00">Check_Cells</text>
</a>
</g>
</g>
<!-- Node1&#45;&gt;Node3 -->
<g id="edge2_Node000001_Node000003" class="edge">
<title>Node1&#45;&gt;Node3</title>
<g id="a_edge2_Node000001_Node000003"><a xlink:title=" ">
<path fill="none" stroke="#63b8ff" d="M72.67,-222.32C87.49,-202.16 123.94,-156.23 165.25,-131.25 169.28,-128.81 173.66,-126.68 178.16,-124.83"/>
<polygon fill="#63b8ff" stroke="#63b8ff" points="179.13,-128.2 187.34,-121.49 176.74,-121.62 179.13,-128.2"/>
</a>
</g>
</g>
<!-- Node4 -->
<g id="Node000004" class="node">
<title>Node4</title>
<g id="a_Node000004"><a xlink:href="../../dc/de7/_grid___optimization___integration___guide_8cpp_a120e50cd83a9c52266fecc99bf748026.html#a120e50cd83a9c52266fecc99bf748026" target="_top" xlink:title=" ">
<polygon fill="white" stroke="#666666" points="465,-289.5 347,-289.5 347,-259 465,-259 465,-289.5"/>
<text text-anchor="start" x="355" y="-276" font-family="Helvetica,sans-Serif" font-size="10.00">Construct_Ghost_Cells</text>
<text text-anchor="middle" x="406" y="-264.75" font-family="Helvetica,sans-Serif" font-size="10.00">_Optimized</text>
</a>
</g>
</g>
<!-- Node1&#45;&gt;Node4 -->
<g id="edge3_Node000001_Node000004" class="edge">
<title>Node1&#45;&gt;Node4</title>
<g id="a_edge3_Node000001_Node000004"><a xlink:title=" ">
<path fill="none" stroke="#63b8ff" d="M129.64,-241.47C141.47,-243.11 153.73,-244.77 165.25,-246.25 222.58,-253.63 287.74,-261.18 335.64,-266.58"/>
<polygon fill="#63b8ff" stroke="#63b8ff" points="334.99,-270.03 345.31,-267.67 335.77,-263.08 334.99,-270.03"/>
</a>
</g>
</g>
<!-- Node8 -->
<g id="Node000008" class="node">
<title>Node8</title>
<g id="a_Node000008"><a xlink:href="../../d8/d5a/namespace_optimized_grid_a5a1120c1c01937757b9ec8cad7afa9a3.html#a5a1120c1c01937757b9ec8cad7afa9a3" target="_top" xlink:title=" ">
<polygon fill="white" stroke="#666666" points="465,-344.88 347,-344.88 347,-325.62 465,-325.62 465,-344.88"/>
<text text-anchor="middle" x="406" y="-331.38" font-family="Helvetica,sans-Serif" font-size="10.00">OptimizedGrid::Finalize</text>
</a>
</g>
</g>
<!-- Node1&#45;&gt;Node8 -->
<g id="edge7_Node000001_Node000008" class="edge">
<title>Node1&#45;&gt;Node8</title>
<g id="a_edge7_Node000001_Node000008"><a xlink:title=" ">
<path fill="none" stroke="#63b8ff" d="M92.96,-242.36C112.89,-249.61 140.61,-259.44 165.25,-267.25 230.68,-288 307.08,-309.15 355.74,-322.23"/>
<polygon fill="#63b8ff" stroke="#63b8ff" points="354.56,-325.54 365.12,-324.74 356.37,-318.77 354.56,-325.54"/>
</a>
</g>
</g>
<!-- Node10 -->
<g id="Node000010" class="node">
<title>Node10</title>
<g id="a_Node000010"><a xlink:href="../../d8/d5a/namespace_optimized_grid_a8a1fcd3967e237f31964ad5f85d295a9.html#a8a1fcd3967e237f31964ad5f85d295a9" target="_top" xlink:title=" ">
<polygon fill="white" stroke="#666666" points="466.12,-240.88 345.88,-240.88 345.88,-221.62 466.12,-221.62 466.12,-240.88"/>
<text text-anchor="middle" x="406" y="-227.38" font-family="Helvetica,sans-Serif" font-size="10.00">OptimizedGrid::Initialize</text>
</a>
</g>
</g>
<!-- Node1&#45;&gt;Node10 -->
<g id="edge10_Node000001_Node000010" class="edge">
<title>Node1&#45;&gt;Node10</title>
<g id="a_edge10_Node000001_Node000010"><a xlink:title=" ">
<path fill="none" stroke="#63b8ff" d="M129.46,-232.06C187.72,-231.89 273.71,-231.64 334.09,-231.46"/>
<polygon fill="#63b8ff" stroke="#63b8ff" points="333.93,-234.96 343.92,-231.43 333.91,-227.96 333.93,-234.96"/>
</a>
</g>
</g>
<!-- Node12 -->
<g id="Node000012" class="node">
<title>Node12</title>
<g id="a_Node000012"><a xlink:href="../../d1/db0/_grid___performance___benchmark_8cpp_ac125861b22e1c75a647907d093758246.html#ac125861b22e1c75a647907d093758246" target="_top" xlink:title=" ">
<polygon fill="white" stroke="#666666" points="285.5,-159.88 165.25,-159.88 165.25,-140.62 285.5,-140.62 285.5,-159.88"/>
<text text-anchor="middle" x="225.38" y="-146.38" font-family="Helvetica,sans-Serif" font-size="10.00">quick_performance_test</text>
</a>
</g>
</g>
<!-- Node1&#45;&gt;Node12 -->
<g id="edge14_Node000001_Node000012" class="edge">
<title>Node1&#45;&gt;Node12</title>
<g id="a_edge14_Node000001_Node000012"><a xlink:title=" ">
<path fill="none" stroke="#63b8ff" d="M81.87,-222.15C101.32,-210.25 135.07,-190.2 165.25,-175.25 172.58,-171.62 180.57,-168.01 188.23,-164.72"/>
<polygon fill="#63b8ff" stroke="#63b8ff" points="189.5,-167.99 197.36,-160.89 186.78,-161.53 189.5,-167.99"/>
</a>
</g>
</g>
<!-- Node22 -->
<g id="Node000022" class="node">
<title>Node22</title>
<g id="a_Node000022"><a xlink:href="../../dc/de7/_grid___optimization___integration___guide_8cpp_ad8ac88549c20d09515c033d5fc2e2d10.html#ad8ac88549c20d09515c033d5fc2e2d10" target="_top" xlink:title=" ">
<polygon fill="white" stroke="#666666" points="281.38,-203.88 169.38,-203.88 169.38,-184.62 281.38,-184.62 281.38,-203.88"/>
<text text-anchor="middle" x="225.38" y="-190.38" font-family="Helvetica,sans-Serif" font-size="10.00">Read_Grid_Optimized</text>
</a>
</g>
</g>
<!-- Node1&#45;&gt;Node22 -->
<g id="edge26_Node000001_Node000022" class="edge">
<title>Node1&#45;&gt;Node22</title>
<g id="a_edge26_Node000001_Node000022"><a xlink:title=" ">
<path fill="none" stroke="#63b8ff" d="M107.75,-222.17C127.2,-217.51 150.52,-211.93 171.17,-206.99"/>
<polygon fill="#63b8ff" stroke="#63b8ff" points="171.95,-210.4 180.86,-204.67 170.32,-203.59 171.95,-210.4"/>
</a>
</g>
</g>
<!-- Node5 -->
<g id="Node000005" class="node">
<title>Node5</title>
<g id="a_Node000005"><a xlink:href="../../d8/d40/_grid___computations_8cpp_a2d284e26ddef582519953e8b8300184e.html#a2d284e26ddef582519953e8b8300184e" target="_top" xlink:title=" ">
<polygon fill="white" stroke="#666666" points="637,-196.88 555.75,-196.88 555.75,-177.62 637,-177.62 637,-196.88"/>
<text text-anchor="middle" x="596.38" y="-183.38" font-family="Helvetica,sans-Serif" font-size="10.00">Construct_Cell</text>
</a>
</g>
</g>
<!-- Node4&#45;&gt;Node5 -->
<g id="edge4_Node000004_Node000005" class="edge">
<title>Node4&#45;&gt;Node5</title>
<g id="a_edge4_Node000004_Node000005"><a xlink:title=" ">
<path fill="none" stroke="#63b8ff" d="M465.21,-262.57C474.1,-259.39 482.84,-255.35 490.5,-250.25 511.81,-236.04 505.02,-219.2 526.5,-205.25 532.01,-201.67 538.21,-198.8 544.56,-196.5"/>
<polygon fill="#63b8ff" stroke="#63b8ff" points="545.36,-199.92 553.87,-193.6 543.28,-193.24 545.36,-199.92"/>
</a>
</g>
</g>
<!-- Node6 -->
<g id="Node000006" class="node">
<title>Node6</title>
<g id="a_Node000006"><a xlink:href="../../d4/d7b/namespace_grid_performance_aaac03e00f6d3dcd501015a9143fb1814.html#aaac03e00f6d3dcd501015a9143fb1814" target="_top" xlink:title=" ">
<polygon fill="white" stroke="#666666" points="825.5,-301.5 714.25,-301.5 714.25,-271 825.5,-271 825.5,-301.5"/>
<text text-anchor="start" x="722.25" y="-288" font-family="Helvetica,sans-Serif" font-size="10.00">GridPerformance::end</text>
<text text-anchor="middle" x="769.88" y="-276.75" font-family="Helvetica,sans-Serif" font-size="10.00">_timer</text>
</a>
</g>
</g>
<!-- Node4&#45;&gt;Node6 -->
<g id="edge5_Node000004_Node000006" class="edge">
<title>Node4&#45;&gt;Node6</title>
<g id="a_edge5_Node000004_Node000006"><a xlink:title=" ">
<path fill="none" stroke="#63b8ff" d="M465.14,-276.18C529.92,-278.33 634.47,-281.79 702.43,-284.05"/>
<polygon fill="#63b8ff" stroke="#63b8ff" points="702.22,-287.54 712.33,-284.37 702.45,-280.55 702.22,-287.54"/>
</a>
</g>
</g>
<!-- Node7 -->
<g id="Node000007" class="node">
<title>Node7</title>
<g id="a_Node000007"><a xlink:href="../../d4/d7b/namespace_grid_performance_a2fdab3242d4062c9533d3b3d1be6fa54.html#a2fdab3242d4062c9533d3b3d1be6fa54" target="_top" xlink:title=" ">
<polygon fill="white" stroke="#666666" points="827.38,-239.5 712.38,-239.5 712.38,-209 827.38,-209 827.38,-239.5"/>
<text text-anchor="start" x="720.38" y="-226" font-family="Helvetica,sans-Serif" font-size="10.00">GridPerformance::start</text>
<text text-anchor="middle" x="769.88" y="-214.75" font-family="Helvetica,sans-Serif" font-size="10.00">_timer</text>
</a>
</g>
</g>
<!-- Node4&#45;&gt;Node7 -->
<g id="edge6_Node000004_Node000007" class="edge">
<title>Node4&#45;&gt;Node7</title>
<g id="a_edge6_Node000004_Node000007"><a xlink:title=" ">
<path fill="none" stroke="#63b8ff" d="M465.32,-268.36C517.96,-262.78 597.46,-253.72 666.25,-243.25 677.4,-241.55 689.2,-239.56 700.67,-237.51"/>
<polygon fill="#63b8ff" stroke="#63b8ff" points="701.29,-240.95 710.5,-235.72 700.03,-234.07 701.29,-240.95"/>
</a>
</g>
</g>
<!-- Node8&#45;&gt;Node2 -->
<g id="edge8_Node000008_Node000002" class="edge">
<title>Node8&#45;&gt;Node2</title>
<g id="a_edge8_Node000008_Node000002"><a xlink:title=" ">
<path fill="none" stroke="#63b8ff" d="M444.22,-345.33C473.76,-353.32 515.28,-364.56 547.33,-373.24"/>
<polygon fill="#63b8ff" stroke="#63b8ff" points="546.21,-376.56 556.77,-375.8 548.04,-369.81 546.21,-376.56"/>
</a>
</g>
</g>
<!-- Node9 -->
<g id="Node000009" class="node">
<title>Node9</title>
<g id="a_Node000009"><a xlink:href="../../d4/d7b/namespace_grid_performance_ab355c9dbf17affc9611ad6a01bdcd930.html#ab355c9dbf17affc9611ad6a01bdcd930" target="_top" xlink:title=" ">
<polygon fill="white" stroke="#666666" points="656.88,-358.5 535.88,-358.5 535.88,-328 656.88,-328 656.88,-358.5"/>
<text text-anchor="start" x="543.88" y="-345" font-family="Helvetica,sans-Serif" font-size="10.00">GridPerformance::print</text>
<text text-anchor="middle" x="596.38" y="-333.75" font-family="Helvetica,sans-Serif" font-size="10.00">_performance_summary</text>
</a>
</g>
</g>
<!-- Node8&#45;&gt;Node9 -->
<g id="edge9_Node000008_Node000009" class="edge">
<title>Node8&#45;&gt;Node9</title>
<g id="a_edge9_Node000008_Node000009"><a xlink:title=" ">
<path fill="none" stroke="#63b8ff" d="M465.31,-337.73C483.92,-338.52 504.72,-339.4 524.14,-340.22"/>
<polygon fill="#63b8ff" stroke="#63b8ff" points="523.73,-343.71 533.87,-340.64 524.03,-336.72 523.73,-343.71"/>
</a>
</g>
</g>
<!-- Node11 -->
<g id="Node000011" class="node">
<title>Node11</title>
<g id="a_Node000011"><a xlink:href="../../d8/d24/_grid___computations___optimized_8cpp_a52c142c38082da9508f85d41a5cfa81a.html#a52c142c38082da9508f85d41a5cfa81a" target="_top" xlink:title=" ">
<polygon fill="white" stroke="#666666" points="666.25,-233.88 526.5,-233.88 526.5,-214.62 666.25,-214.62 666.25,-233.88"/>
<text text-anchor="middle" x="596.38" y="-220.38" font-family="Helvetica,sans-Serif" font-size="10.00">optimize_memory_allocation</text>
</a>
</g>
</g>
<!-- Node10&#45;&gt;Node11 -->
<g id="edge11_Node000010_Node000011" class="edge">
<title>Node10&#45;&gt;Node11</title>
<g id="a_edge11_Node000010_Node000011"><a xlink:title=" ">
<path fill="none" stroke="#63b8ff" d="M466.6,-229.04C482.02,-228.46 498.87,-227.84 515.15,-227.23"/>
<polygon fill="#63b8ff" stroke="#63b8ff" points="514.93,-230.74 524.79,-226.87 514.67,-223.75 514.93,-230.74"/>
</a>
</g>
</g>
<!-- Node11&#45;&gt;Node6 -->
<g id="edge12_Node000011_Node000006" class="edge">
<title>Node11&#45;&gt;Node6</title>
<g id="a_edge12_Node000011_Node000006"><a xlink:title=" ">
<path fill="none" stroke="#63b8ff" d="M625.31,-234.35C649.49,-243.09 685.14,-255.98 714.87,-266.73"/>
<polygon fill="#63b8ff" stroke="#63b8ff" points="713.5,-269.95 724.1,-270.06 715.88,-263.37 713.5,-269.95"/>
</a>
</g>
</g>
<!-- Node11&#45;&gt;Node7 -->
<g id="edge13_Node000011_Node000007" class="edge">
<title>Node11&#45;&gt;Node7</title>
<g id="a_edge13_Node000011_Node000007"><a xlink:title=" ">
<path fill="none" stroke="#63b8ff" d="M666.64,-224.25C677.81,-224.25 689.38,-224.25 700.54,-224.25"/>
<polygon fill="#63b8ff" stroke="#63b8ff" points="700.46,-227.75 710.46,-224.25 700.46,-220.75 700.46,-227.75"/>
</a>
</g>
</g>
<!-- Node13 -->
<g id="Node000013" class="node">
<title>Node13</title>
<g id="a_Node000013"><a xlink:href="../../d3/de1/class_grid_performance_benchmark_a6287a0ff24d43276bcedb01cc2493ab2.html#a6287a0ff24d43276bcedb01cc2493ab2" target="_top" xlink:title=" ">
<polygon fill="white" stroke="#666666" points="480.38,-165.5 331.62,-165.5 331.62,-135 480.38,-135 480.38,-165.5"/>
<text text-anchor="start" x="339.62" y="-152" font-family="Helvetica,sans-Serif" font-size="10.00">GridPerformanceBenchmark</text>
<text text-anchor="middle" x="406" y="-140.75" font-family="Helvetica,sans-Serif" font-size="10.00">::benchmark_cell_construction</text>
</a>
</g>
</g>
<!-- Node12&#45;&gt;Node13 -->
<g id="edge15_Node000012_Node000013" class="edge">
<title>Node12&#45;&gt;Node13</title>
<g id="a_edge15_Node000012_Node000013"><a xlink:title=" ">
<path fill="none" stroke="#63b8ff" d="M285.85,-150.25C296.74,-150.25 308.29,-150.25 319.75,-150.25"/>
<polygon fill="#63b8ff" stroke="#63b8ff" points="319.65,-153.75 329.65,-150.25 319.65,-146.75 319.65,-153.75"/>
</a>
</g>
</g>
<!-- Node16 -->
<g id="Node000016" class="node">
<title>Node16</title>
<g id="a_Node000016"><a xlink:href="../../d3/de1/class_grid_performance_benchmark_a8304b3cde0e7f9ad1d1b72c9354b8e8f.html#a8304b3cde0e7f9ad1d1b72c9354b8e8f" target="_top" xlink:title=" ">
<polygon fill="white" stroke="#666666" points="490.5,-79.5 321.5,-79.5 321.5,-49 490.5,-49 490.5,-79.5"/>
<text text-anchor="start" x="329.5" y="-66" font-family="Helvetica,sans-Serif" font-size="10.00">GridPerformanceBenchmark</text>
<text text-anchor="middle" x="406" y="-54.75" font-family="Helvetica,sans-Serif" font-size="10.00">::benchmark_distance_calculations</text>
</a>
</g>
</g>
<!-- Node12&#45;&gt;Node16 -->
<g id="edge19_Node000012_Node000016" class="edge">
<title>Node12&#45;&gt;Node16</title>
<g id="a_edge19_Node000012_Node000016"><a xlink:title=" ">
<path fill="none" stroke="#63b8ff" d="M269.24,-140.19C274.92,-138.01 280.5,-135.39 285.5,-132.25 305.48,-119.71 301.77,-106.17 321.5,-93.25 326.35,-90.07 331.59,-87.2 336.99,-84.62"/>
<polygon fill="#63b8ff" stroke="#63b8ff" points="338.4,-87.82 346.15,-80.6 335.58,-81.41 338.4,-87.82"/>
</a>
</g>
</g>
<!-- Node21 -->
<g id="Node000021" class="node">
<title>Node21</title>
<g id="a_Node000021"><a xlink:href="../../d3/de1/class_grid_performance_benchmark_a317e26aa78d349818262ba23f31d99fc.html#a317e26aa78d349818262ba23f31d99fc" target="_top" xlink:title=" ">
<polygon fill="white" stroke="#666666" points="475.5,-30.5 336.5,-30.5 336.5,0 475.5,0 475.5,-30.5"/>
<text text-anchor="start" x="344.5" y="-17" font-family="Helvetica,sans-Serif" font-size="10.00">GridPerformanceBenchmark</text>
<text text-anchor="middle" x="406" y="-5.75" font-family="Helvetica,sans-Serif" font-size="10.00">::generate_test_grid</text>
</a>
</g>
</g>
<!-- Node12&#45;&gt;Node21 -->
<g id="edge25_Node000012_Node000021" class="edge">
<title>Node12&#45;&gt;Node21</title>
<g id="a_edge25_Node000012_Node000021"><a xlink:title=" ">
<path fill="none" stroke="#63b8ff" d="M273.73,-140.26C278.01,-138.09 282.03,-135.46 285.5,-132.25 317.73,-102.43 289.2,-70 321.5,-40.25 323.13,-38.75 324.84,-37.34 326.63,-36.02"/>
<polygon fill="#63b8ff" stroke="#63b8ff" points="328.2,-39.16 334.8,-30.87 324.47,-33.24 328.2,-39.16"/>
</a>
</g>
</g>
<!-- Node13&#45;&gt;Node5 -->
<g id="edge16_Node000013_Node000005" class="edge">
<title>Node13&#45;&gt;Node5</title>
<g id="a_edge16_Node000013_Node000005"><a xlink:title=" ">
<path fill="none" stroke="#63b8ff" d="M480.64,-164.71C501.95,-168.9 524.73,-173.37 544.33,-177.22"/>
<polygon fill="#63b8ff" stroke="#63b8ff" points="543.5,-180.63 553.98,-179.12 544.84,-173.76 543.5,-180.63"/>
</a>
</g>
</g>
<!-- Node14 -->
<g id="Node000014" class="node">
<title>Node14</title>
<g id="a_Node000014"><a xlink:href="../../d8/d24/_grid___computations___optimized_8cpp_a092b66b03987591a3eee8d8d659c50f5.html#a092b66b03987591a3eee8d8d659c50f5" target="_top" xlink:title=" ">
<polygon fill="white" stroke="#666666" points="661.75,-159.88 531,-159.88 531,-140.62 661.75,-140.62 661.75,-159.88"/>
<text text-anchor="middle" x="596.38" y="-146.38" font-family="Helvetica,sans-Serif" font-size="10.00">Construct_Cell_Optimized</text>
</a>
</g>
</g>
<!-- Node13&#45;&gt;Node14 -->
<g id="edge17_Node000013_Node000014" class="edge">
<title>Node13&#45;&gt;Node14</title>
<g id="a_edge17_Node000013_Node000014"><a xlink:title=" ">
<path fill="none" stroke="#63b8ff" d="M480.64,-150.25C493.41,-150.25 506.71,-150.25 519.54,-150.25"/>
<polygon fill="#63b8ff" stroke="#63b8ff" points="519.15,-153.75 529.15,-150.25 519.15,-146.75 519.15,-153.75"/>
</a>
</g>
</g>
<!-- Node15 -->
<g id="Node000015" class="node">
<title>Node15</title>
<g id="a_Node000015"><a xlink:href="../../d8/d24/_grid___computations___optimized_8cpp_a0df6c9c73cc2b10f88b2fbdf05b3685d.html#a0df6c9c73cc2b10f88b2fbdf05b3685d" target="_top" xlink:title=" ">
<polygon fill="white" stroke="#666666" points="837.5,-159.88 702.25,-159.88 702.25,-140.62 837.5,-140.62 837.5,-159.88"/>
<text text-anchor="middle" x="769.88" y="-146.38" font-family="Helvetica,sans-Serif" font-size="10.00">Construct_Face_Optimized</text>
</a>
</g>
</g>
<!-- Node14&#45;&gt;Node15 -->
<g id="edge18_Node000014_Node000015" class="edge">
<title>Node14&#45;&gt;Node15</title>
<g id="a_edge18_Node000014_Node000015"><a xlink:title=" ">
<path fill="none" stroke="#63b8ff" d="M662.21,-150.25C671.45,-150.25 681.03,-150.25 690.5,-150.25"/>
<polygon fill="#63b8ff" stroke="#63b8ff" points="690.44,-153.75 700.44,-150.25 690.44,-146.75 690.44,-153.75"/>
</a>
</g>
</g>
<!-- Node17 -->
<g id="Node000017" class="node">
<title>Node17</title>
<g id="a_Node000017"><a xlink:href="../../d8/d40/_grid___computations_8cpp_a7e6f11445e90cefdcb91f369846ec691.html#a7e6f11445e90cefdcb91f369846ec691" target="_top" xlink:title=" ">
<polygon fill="white" stroke="#666666" points="653.5,-73.5 539.25,-73.5 539.25,-43 653.5,-43 653.5,-73.5"/>
<text text-anchor="start" x="547.25" y="-60" font-family="Helvetica,sans-Serif" font-size="10.00">Calculate_Cell_Center</text>
<text text-anchor="middle" x="596.38" y="-48.75" font-family="Helvetica,sans-Serif" font-size="10.00">_Distances</text>
</a>
</g>
</g>
<!-- Node16&#45;&gt;Node17 -->
<g id="edge20_Node000016_Node000017" class="edge">
<title>Node16&#45;&gt;Node17</title>
<g id="a_edge20_Node000016_Node000017"><a xlink:title=" ">
<path fill="none" stroke="#63b8ff" d="M491,-61.57C503.26,-61.18 515.76,-60.79 527.65,-60.41"/>
<polygon fill="#63b8ff" stroke="#63b8ff" points="527.44,-63.92 537.32,-60.1 527.22,-56.92 527.44,-63.92"/>
</a>
</g>
</g>
<!-- Node20 -->
<g id="Node000020" class="node">
<title>Node20</title>
<g id="a_Node000020"><a xlink:href="../../d8/d24/_grid___computations___optimized_8cpp_a232a6cc799531f31fb5128af047a41d8.html#a232a6cc799531f31fb5128af047a41d8" target="_top" xlink:title=" ">
<polygon fill="white" stroke="#666666" points="653.88,-122.5 538.88,-122.5 538.88,-92 653.88,-92 653.88,-122.5"/>
<text text-anchor="start" x="546.88" y="-109" font-family="Helvetica,sans-Serif" font-size="10.00">Calculate_Cell_Center</text>
<text text-anchor="middle" x="596.38" y="-97.75" font-family="Helvetica,sans-Serif" font-size="10.00">_Distances_Optimized</text>
</a>
</g>
</g>
<!-- Node16&#45;&gt;Node20 -->
<g id="edge23_Node000016_Node000020" class="edge">
<title>Node16&#45;&gt;Node20</title>
<g id="a_edge23_Node000016_Node000020"><a xlink:title=" ">
<path fill="none" stroke="#63b8ff" d="M475.81,-79.96C492.71,-83.81 510.78,-87.94 527.63,-91.79"/>
<polygon fill="#63b8ff" stroke="#63b8ff" points="526.5,-95.12 537.02,-93.93 528.05,-88.29 526.5,-95.12"/>
</a>
</g>
</g>
<!-- Node18 -->
<g id="Node000018" class="node">
<title>Node18</title>
<g id="a_Node000018"><a xlink:href="../../d8/d40/_grid___computations_8cpp_a1f273579608200866e02e34f16a3eb6b.html#a1f273579608200866e02e34f16a3eb6b" target="_top" xlink:title=" ">
<polygon fill="white" stroke="#666666" points="835.62,-67.88 704.12,-67.88 704.12,-48.62 835.62,-48.62 835.62,-67.88"/>
<text text-anchor="middle" x="769.88" y="-54.38" font-family="Helvetica,sans-Serif" font-size="10.00">Distance_Between_Points</text>
</a>
</g>
</g>
<!-- Node17&#45;&gt;Node18 -->
<g id="edge21_Node000017_Node000018" class="edge">
<title>Node17&#45;&gt;Node18</title>
<g id="a_edge21_Node000017_Node000018"><a xlink:title=" ">
<path fill="none" stroke="#63b8ff" d="M653.53,-58.25C665.92,-58.25 679.25,-58.25 692.3,-58.25"/>
<polygon fill="#63b8ff" stroke="#63b8ff" points="692.14,-61.75 702.14,-58.25 692.14,-54.75 692.14,-61.75"/>
</a>
</g>
</g>
<!-- Node19 -->
<g id="Node000019" class="node">
<title>Node19</title>
<g id="a_Node000019"><a xlink:href="../../dc/d3a/src_2_utility___files_8cpp_abf34e0b480f7580b0cd4237a76aed670.html#abf34e0b480f7580b0cd4237a76aed670" target="_top" xlink:title=" ">
<polygon fill="white" stroke="#666666" points="909.75,-67.88 873.5,-67.88 873.5,-48.62 909.75,-48.62 909.75,-67.88"/>
<text text-anchor="middle" x="891.62" y="-54.38" font-family="Helvetica,sans-Serif" font-size="10.00">Print</text>
</a>
</g>
</g>
<!-- Node18&#45;&gt;Node19 -->
<g id="edge22_Node000018_Node000019" class="edge">
<title>Node18&#45;&gt;Node19</title>
<g id="a_edge22_Node000018_Node000019"><a xlink:title=" ">
<path fill="none" stroke="#63b8ff" d="M836.01,-58.25C845.08,-58.25 853.99,-58.25 861.89,-58.25"/>
<polygon fill="#63b8ff" stroke="#63b8ff" points="861.86,-61.75 871.86,-58.25 861.86,-54.75 861.86,-61.75"/>
</a>
</g>
</g>
<!-- Node20&#45;&gt;Node7 -->
<g id="edge24_Node000020_Node000007" class="edge">
<title>Node20&#45;&gt;Node7</title>
<g id="a_edge24_Node000020_Node000007"><a xlink:title=" ">
<path fill="none" stroke="#63b8ff" d="M650.86,-122.98C656.23,-125.41 661.46,-128.16 666.25,-131.25 685.79,-143.88 685.25,-153.37 702.25,-169.25 714.13,-180.35 727.89,-191.9 739.81,-201.54"/>
<polygon fill="#63b8ff" stroke="#63b8ff" points="737.33,-204.04 747.33,-207.56 741.71,-198.58 737.33,-204.04"/>
</a>
</g>
</g>
<!-- Node22&#45;&gt;Node8 -->
<g id="edge29_Node000022_Node000008" class="edge">
<title>Node22&#45;&gt;Node8</title>
<g id="a_edge29_Node000022_Node000008"><a xlink:title=" ">
<path fill="none" stroke="#63b8ff" d="M233.19,-204.1C247.49,-224.16 282.57,-270.25 321.5,-298.25 334.32,-307.47 349.81,-315.12 363.94,-321.02"/>
<polygon fill="#63b8ff" stroke="#63b8ff" points="362.43,-324.19 373.02,-324.63 365.02,-317.68 362.43,-324.19"/>
</a>
</g>
</g>
<!-- Node22&#45;&gt;Node10 -->
<g id="edge30_Node000022_Node000010" class="edge">
<title>Node22&#45;&gt;Node10</title>
<g id="a_edge30_Node000022_Node000010"><a xlink:title=" ">
<path fill="none" stroke="#63b8ff" d="M275.19,-204.36C296.75,-208.83 322.3,-214.12 345.01,-218.82"/>
<polygon fill="#63b8ff" stroke="#63b8ff" points="344.26,-222.24 354.77,-220.84 345.68,-215.39 344.26,-222.24"/>
</a>
</g>
</g>
<!-- Node22&#45;&gt;Node14 -->
<g id="edge28_Node000022_Node000014" class="edge">
<title>Node22&#45;&gt;Node14</title>
<g id="a_edge28_Node000022_Node000014"><a xlink:title=" ">
<path fill="none" stroke="#63b8ff" d="M281.79,-192.46C335.42,-190.16 418.89,-185.09 490.5,-174.25 508.98,-171.45 529.04,-167.17 546.62,-163"/>
<polygon fill="#63b8ff" stroke="#63b8ff" points="547.41,-166.41 556.3,-160.65 545.76,-159.61 547.41,-166.41"/>
</a>
</g>
</g>
<!-- Node22&#45;&gt;Node20 -->
<g id="edge27_Node000022_Node000020" class="edge">
<title>Node22&#45;&gt;Node20</title>
<g id="a_edge27_Node000022_Node000020"><a xlink:title=" ">
<path fill="none" stroke="#63b8ff" d="M257.63,-184.25C267.09,-180.4 277.17,-175.41 285.5,-169.25 305.54,-154.43 299.3,-137.57 321.5,-126.25 385.59,-93.57 469.31,-92.82 527.24,-97.71"/>
<polygon fill="#63b8ff" stroke="#63b8ff" points="526.67,-101.17 536.96,-98.62 527.32,-94.2 526.67,-101.17"/>
</a>
</g>
</g>
</g>
</svg>
