<?xml version="1.0" encoding="UTF-8" standalone="no"?>
<!DOCTYPE svg PUBLIC "-//W3C//DTD SVG 1.1//EN"
 "http://www.w3.org/Graphics/SVG/1.1/DTD/svg11.dtd">
<!-- Generated by graphviz version 12.2.1 (20241206.2353)
 -->
<!-- Title: demonstrate_performance_aware_integration Pages: 1 -->
<svg width="1266pt" height="567pt"
 viewBox="0.00 0.00 1266.30 566.94" xmlns="http://www.w3.org/2000/svg" xmlns:xlink="http://www.w3.org/1999/xlink">
<g id="graph0" class="graph" transform="scale(1 1) rotate(0) translate(4 562.94)">
<title>demonstrate_performance_aware_integration</title>
<!-- Node1 -->
<g id="Node000001" class="node">
<title>Node1</title>
<g id="a_Node000001"><a xlink:title=" ">
<polygon fill="#999999" stroke="#666666" points="129.25,-431.57 0,-431.57 0,-401.07 129.25,-401.07 129.25,-431.57"/>
<text text-anchor="start" x="8" y="-418.07" font-family="Helvetica,sans-Serif" font-size="10.00">demonstrate_performance</text>
<text text-anchor="middle" x="64.62" y="-406.82" font-family="Helvetica,sans-Serif" font-size="10.00">_aware_integration</text>
</a>
</g>
</g>
<!-- Node2 -->
<g id="Node000002" class="node">
<title>Node2</title>
<g id="a_Node000002"><a xlink:href="../../d8/d24/_grid___computations___optimized_8cpp_a232a6cc799531f31fb5128af047a41d8.html#a232a6cc799531f31fb5128af047a41d8" target="_top" xlink:title=" ">
<polygon fill="white" stroke="#666666" points="471.38,-531.57 356.38,-531.57 356.38,-501.07 471.38,-501.07 471.38,-531.57"/>
<text text-anchor="start" x="364.38" y="-518.07" font-family="Helvetica,sans-Serif" font-size="10.00">Calculate_Cell_Center</text>
<text text-anchor="middle" x="413.88" y="-506.82" font-family="Helvetica,sans-Serif" font-size="10.00">_Distances_Optimized</text>
</a>
</g>
</g>
<!-- Node1&#45;&gt;Node2 -->
<g id="edge1_Node000001_Node000002" class="edge">
<title>Node1&#45;&gt;Node2</title>
<g id="a_edge1_Node000001_Node000002"><a xlink:title=" ">
<path fill="none" stroke="#63b8ff" d="M81.71,-431.77C100.23,-448.55 132.35,-474.64 165.25,-487.32 223.07,-509.6 293.67,-516.03 344.67,-517.37"/>
<polygon fill="#63b8ff" stroke="#63b8ff" points="344.31,-520.86 354.38,-517.56 344.45,-513.86 344.31,-520.86"/>
</a>
</g>
</g>
<!-- Node3 -->
<g id="Node000003" class="node">
<title>Node3</title>
<g id="a_Node000003"><a xlink:href="../../d4/d7b/namespace_grid_performance_a2fdab3242d4062c9533d3b3d1be6fa54.html#a2fdab3242d4062c9533d3b3d1be6fa54" target="_top" xlink:title=" ">
<polygon fill="white" stroke="#666666" points="634.75,-488.57 519.75,-488.57 519.75,-458.07 634.75,-458.07 634.75,-488.57"/>
<text text-anchor="start" x="527.75" y="-475.07" font-family="Helvetica,sans-Serif" font-size="10.00">GridPerformance::start</text>
<text text-anchor="middle" x="577.25" y="-463.82" font-family="Helvetica,sans-Serif" font-size="10.00">_timer</text>
</a>
</g>
</g>
<!-- Node1&#45;&gt;Node3 -->
<g id="edge47_Node000001_Node000003" class="edge">
<title>Node1&#45;&gt;Node3</title>
<g id="a_edge47_Node000001_Node000003"><a xlink:title=" ">
<path fill="none" stroke="#63b8ff" d="M98.49,-431.89C117.54,-440.13 142.23,-449.52 165.25,-454.32 283.85,-479.01 425.68,-479.33 507.92,-476.72"/>
<polygon fill="#63b8ff" stroke="#63b8ff" points="507.98,-480.22 517.85,-476.38 507.74,-473.23 507.98,-480.22"/>
</a>
</g>
</g>
<!-- Node4 -->
<g id="Node000004" class="node">
<title>Node4</title>
<g id="a_Node000004"><a xlink:href="../../d4/d7b/namespace_grid_performance_aaac03e00f6d3dcd501015a9143fb1814.html#aaac03e00f6d3dcd501015a9143fb1814" target="_top" xlink:title=" ">
<polygon fill="white" stroke="#666666" points="632.88,-425.57 521.62,-425.57 521.62,-395.07 632.88,-395.07 632.88,-425.57"/>
<text text-anchor="start" x="529.62" y="-412.07" font-family="Helvetica,sans-Serif" font-size="10.00">GridPerformance::end</text>
<text text-anchor="middle" x="577.25" y="-400.82" font-family="Helvetica,sans-Serif" font-size="10.00">_timer</text>
</a>
</g>
</g>
<!-- Node1&#45;&gt;Node4 -->
<g id="edge3_Node000001_Node000004" class="edge">
<title>Node1&#45;&gt;Node4</title>
<g id="a_edge3_Node000001_Node000004"><a xlink:title=" ">
<path fill="none" stroke="#63b8ff" d="M129.52,-415.57C226.82,-414.42 411.22,-412.26 509.94,-411.1"/>
<polygon fill="#63b8ff" stroke="#63b8ff" points="509.78,-414.6 519.74,-410.98 509.7,-407.6 509.78,-414.6"/>
</a>
</g>
</g>
<!-- Node5 -->
<g id="Node000005" class="node">
<title>Node5</title>
<g id="a_Node000005"><a xlink:href="../../d8/d5a/namespace_optimized_grid_a5a1120c1c01937757b9ec8cad7afa9a3.html#a5a1120c1c01937757b9ec8cad7afa9a3" target="_top" xlink:title=" ">
<polygon fill="white" stroke="#666666" points="295.62,-363.94 177.62,-363.94 177.62,-344.69 295.62,-344.69 295.62,-363.94"/>
<text text-anchor="middle" x="236.62" y="-350.44" font-family="Helvetica,sans-Serif" font-size="10.00">OptimizedGrid::Finalize</text>
</a>
</g>
</g>
<!-- Node1&#45;&gt;Node5 -->
<g id="edge4_Node000001_Node000005" class="edge">
<title>Node1&#45;&gt;Node5</title>
<g id="a_edge4_Node000001_Node000005"><a xlink:title=" ">
<path fill="none" stroke="#63b8ff" d="M108.52,-400.67C135.81,-390.72 170.83,-377.95 197.2,-368.33"/>
<polygon fill="#63b8ff" stroke="#63b8ff" points="198.31,-371.65 206.51,-364.94 195.91,-365.07 198.31,-371.65"/>
</a>
</g>
</g>
<!-- Node8 -->
<g id="Node000008" class="node">
<title>Node8</title>
<g id="a_Node000008"><a xlink:href="../../d8/d5a/namespace_optimized_grid_a8a1fcd3967e237f31964ad5f85d295a9.html#a8a1fcd3967e237f31964ad5f85d295a9" target="_top" xlink:title=" ">
<polygon fill="white" stroke="#666666" points="296.75,-444.94 176.5,-444.94 176.5,-425.69 296.75,-425.69 296.75,-444.94"/>
<text text-anchor="middle" x="236.62" y="-431.44" font-family="Helvetica,sans-Serif" font-size="10.00">OptimizedGrid::Initialize</text>
</a>
</g>
</g>
<!-- Node1&#45;&gt;Node8 -->
<g id="edge7_Node000001_Node000008" class="edge">
<title>Node1&#45;&gt;Node8</title>
<g id="a_edge7_Node000001_Node000008"><a xlink:title=" ">
<path fill="none" stroke="#63b8ff" d="M129.41,-423.45C141.05,-424.75 153.25,-426.11 165.07,-427.43"/>
<polygon fill="#63b8ff" stroke="#63b8ff" points="164.43,-430.88 174.75,-428.51 165.2,-423.92 164.43,-430.88"/>
</a>
</g>
</g>
<!-- Node10 -->
<g id="Node000010" class="node">
<title>Node10</title>
<g id="a_Node000010"><a xlink:href="../../df/db3/_mesh___loader_8cpp_a4ecb41d6b6dda1279d140f58dcf4d3fa.html#a4ecb41d6b6dda1279d140f58dcf4d3fa" target="_top" xlink:title=" ">
<polygon fill="white" stroke="#666666" points="269.75,-282.94 203.5,-282.94 203.5,-263.69 269.75,-263.69 269.75,-282.94"/>
<text text-anchor="middle" x="236.62" y="-269.44" font-family="Helvetica,sans-Serif" font-size="10.00">Load_Mesh</text>
</a>
</g>
</g>
<!-- Node1&#45;&gt;Node10 -->
<g id="edge11_Node000001_Node000010" class="edge">
<title>Node1&#45;&gt;Node10</title>
<g id="a_edge11_Node000001_Node000010"><a xlink:title=" ">
<path fill="none" stroke="#63b8ff" d="M84.14,-400.74C116.23,-373.74 181.95,-318.47 215.27,-290.44"/>
<polygon fill="#63b8ff" stroke="#63b8ff" points="217.2,-293.39 222.6,-284.27 212.7,-288.03 217.2,-293.39"/>
</a>
</g>
</g>
<!-- Node31 -->
<g id="Node000031" class="node">
<title>Node31</title>
<g id="a_Node000031"><a xlink:href="../../d8/d5a/namespace_optimized_grid_ab36369591fc8cdefa7449fec2f1d5d4f.html#ab36369591fc8cdefa7449fec2f1d5d4f" target="_top" xlink:title=" ">
<polygon fill="white" stroke="#666666" points="308,-558.94 165.25,-558.94 165.25,-539.69 308,-539.69 308,-558.94"/>
<text text-anchor="middle" x="236.62" y="-545.44" font-family="Helvetica,sans-Serif" font-size="10.00">OptimizedGrid::ProcessCells</text>
</a>
</g>
</g>
<!-- Node1&#45;&gt;Node31 -->
<g id="edge45_Node000001_Node000031" class="edge">
<title>Node1&#45;&gt;Node31</title>
<g id="a_edge45_Node000001_Node000031"><a xlink:title=" ">
<path fill="none" stroke="#63b8ff" d="M76,-431.97C92.33,-455.45 126.21,-499.77 165.25,-525.32 171.13,-529.17 177.7,-532.47 184.39,-535.27"/>
<polygon fill="#63b8ff" stroke="#63b8ff" points="182.92,-538.46 193.51,-538.75 185.42,-531.92 182.92,-538.46"/>
</a>
</g>
</g>
<!-- Node32 -->
<g id="Node000032" class="node">
<title>Node32</title>
<g id="a_Node000032"><a xlink:href="../../d1/d6f/class_grid_optimization_exception_a9d9ade2164fadaecf32d7a528911795c.html#a9d9ade2164fadaecf32d7a528911795c" target="_top" xlink:title=" ">
<polygon fill="white" stroke="#666666" points="302.75,-245.57 170.5,-245.57 170.5,-215.07 302.75,-215.07 302.75,-245.57"/>
<text text-anchor="start" x="178.5" y="-232.07" font-family="Helvetica,sans-Serif" font-size="10.00">GridOptimizationException</text>
<text text-anchor="middle" x="236.62" y="-220.82" font-family="Helvetica,sans-Serif" font-size="10.00">::what</text>
</a>
</g>
</g>
<!-- Node1&#45;&gt;Node32 -->
<g id="edge48_Node000001_Node000032" class="edge">
<title>Node1&#45;&gt;Node32</title>
<g id="a_edge48_Node000001_Node000032"><a xlink:title=" ">
<path fill="none" stroke="#63b8ff" d="M70.96,-400.94C82.83,-368.96 114.43,-294.91 165.25,-254.32 166.36,-253.43 167.5,-252.58 168.67,-251.76"/>
<polygon fill="#63b8ff" stroke="#63b8ff" points="170.09,-254.99 176.84,-246.82 166.47,-249 170.09,-254.99"/>
</a>
</g>
</g>
<!-- Node2&#45;&gt;Node3 -->
<g id="edge2_Node000002_Node000003" class="edge">
<title>Node2&#45;&gt;Node3</title>
<g id="a_edge2_Node000002_Node000003"><a xlink:title=" ">
<path fill="none" stroke="#63b8ff" d="M471.77,-501.16C483.58,-498.01 496.14,-494.66 508.3,-491.42"/>
<polygon fill="#63b8ff" stroke="#63b8ff" points="509.1,-494.83 517.86,-488.87 507.3,-488.07 509.1,-494.83"/>
</a>
</g>
</g>
<!-- Node6 -->
<g id="Node000006" class="node">
<title>Node6</title>
<g id="a_Node000006"><a xlink:href="../../d8/d24/_grid___computations___optimized_8cpp_a4efd9f60fc343a459b70cfe5087f87a3.html#a4efd9f60fc343a459b70cfe5087f87a3" target="_top" xlink:title=" ">
<polygon fill="white" stroke="#666666" points="478.88,-320.94 348.88,-320.94 348.88,-301.69 478.88,-301.69 478.88,-320.94"/>
<text text-anchor="middle" x="413.88" y="-307.44" font-family="Helvetica,sans-Serif" font-size="10.00">analyze_grid_performance</text>
</a>
</g>
</g>
<!-- Node5&#45;&gt;Node6 -->
<g id="edge5_Node000005_Node000006" class="edge">
<title>Node5&#45;&gt;Node6</title>
<g id="a_edge5_Node000005_Node000006"><a xlink:title=" ">
<path fill="none" stroke="#63b8ff" d="M278.71,-344.23C303.23,-338.22 334.6,-330.52 360.84,-324.08"/>
<polygon fill="#63b8ff" stroke="#63b8ff" points="361.39,-327.55 370.27,-321.77 359.72,-320.75 361.39,-327.55"/>
</a>
</g>
</g>
<!-- Node7 -->
<g id="Node000007" class="node">
<title>Node7</title>
<g id="a_Node000007"><a xlink:href="../../d4/d7b/namespace_grid_performance_ab355c9dbf17affc9611ad6a01bdcd930.html#ab355c9dbf17affc9611ad6a01bdcd930" target="_top" xlink:title=" ">
<polygon fill="white" stroke="#666666" points="474.38,-369.57 353.38,-369.57 353.38,-339.07 474.38,-339.07 474.38,-369.57"/>
<text text-anchor="start" x="361.38" y="-356.07" font-family="Helvetica,sans-Serif" font-size="10.00">GridPerformance::print</text>
<text text-anchor="middle" x="413.88" y="-344.82" font-family="Helvetica,sans-Serif" font-size="10.00">_performance_summary</text>
</a>
</g>
</g>
<!-- Node5&#45;&gt;Node7 -->
<g id="edge6_Node000005_Node000007" class="edge">
<title>Node5&#45;&gt;Node7</title>
<g id="a_edge6_Node000005_Node000007"><a xlink:title=" ">
<path fill="none" stroke="#63b8ff" d="M295.98,-354.32C310.58,-354.32 326.4,-354.32 341.55,-354.32"/>
<polygon fill="#63b8ff" stroke="#63b8ff" points="341.46,-357.82 351.46,-354.32 341.46,-350.82 341.46,-357.82"/>
</a>
</g>
</g>
<!-- Node9 -->
<g id="Node000009" class="node">
<title>Node9</title>
<g id="a_Node000009"><a xlink:href="../../d8/d24/_grid___computations___optimized_8cpp_a52c142c38082da9508f85d41a5cfa81a.html#a52c142c38082da9508f85d41a5cfa81a" target="_top" xlink:title=" ">
<polygon fill="white" stroke="#666666" points="483.75,-444.94 344,-444.94 344,-425.69 483.75,-425.69 483.75,-444.94"/>
<text text-anchor="middle" x="413.88" y="-431.44" font-family="Helvetica,sans-Serif" font-size="10.00">optimize_memory_allocation</text>
</a>
</g>
</g>
<!-- Node8&#45;&gt;Node9 -->
<g id="edge8_Node000008_Node000009" class="edge">
<title>Node8&#45;&gt;Node9</title>
<g id="a_edge8_Node000008_Node000009"><a xlink:title=" ">
<path fill="none" stroke="#63b8ff" d="M296.96,-435.32C308.32,-435.32 320.39,-435.32 332.29,-435.32"/>
<polygon fill="#63b8ff" stroke="#63b8ff" points="332.11,-438.82 342.11,-435.32 332.11,-431.82 332.11,-438.82"/>
</a>
</g>
</g>
<!-- Node9&#45;&gt;Node3 -->
<g id="edge10_Node000009_Node000003" class="edge">
<title>Node9&#45;&gt;Node3</title>
<g id="a_edge10_Node000009_Node000003"><a xlink:title=" ">
<path fill="none" stroke="#63b8ff" d="M457.7,-445.4C473.25,-449.06 491.22,-453.29 508.4,-457.34"/>
<polygon fill="#63b8ff" stroke="#63b8ff" points="507.53,-460.73 518.07,-459.62 509.14,-453.92 507.53,-460.73"/>
</a>
</g>
</g>
<!-- Node9&#45;&gt;Node4 -->
<g id="edge9_Node000009_Node000004" class="edge">
<title>Node9&#45;&gt;Node4</title>
<g id="a_edge9_Node000009_Node000004"><a xlink:title=" ">
<path fill="none" stroke="#63b8ff" d="M480.05,-425.22C489.86,-423.7 499.98,-422.13 509.82,-420.61"/>
<polygon fill="#63b8ff" stroke="#63b8ff" points="510.35,-424.07 519.69,-419.08 509.28,-417.15 510.35,-424.07"/>
</a>
</g>
</g>
<!-- Node11 -->
<g id="Node000011" class="node">
<title>Node11</title>
<g id="a_Node000011"><a xlink:href="../../df/db3/_mesh___loader_8cpp_a94f04e68ff03c16a3c553d5670e9b1ab.html#a94f04e68ff03c16a3c553d5670e9b1ab" target="_top" xlink:title=" ">
<polygon fill="white" stroke="#666666" points="624.62,-343.94 529.88,-343.94 529.88,-324.69 624.62,-324.69 624.62,-343.94"/>
<text text-anchor="middle" x="577.25" y="-330.44" font-family="Helvetica,sans-Serif" font-size="10.00">Read_CSV_Mesh</text>
</a>
</g>
</g>
<!-- Node10&#45;&gt;Node11 -->
<g id="edge12_Node000010_Node000011" class="edge">
<title>Node10&#45;&gt;Node11</title>
<g id="a_edge12_Node000010_Node000011"><a xlink:title=" ">
<path fill="none" stroke="#63b8ff" d="M270.07,-272.27C317.71,-271.52 409.04,-273.11 483.75,-292.32 506.77,-298.24 531.2,-309.56 549.16,-318.97"/>
<polygon fill="#63b8ff" stroke="#63b8ff" points="547.39,-321.99 557.85,-323.65 550.71,-315.82 547.39,-321.99"/>
</a>
</g>
</g>
<!-- Node25 -->
<g id="Node000025" class="node">
<title>Node25</title>
<g id="a_Node000025"><a xlink:href="../../d0/ded/_read___gmsh___file_8cpp_abedd70744a46f756e74b49905be889d9.html#abedd70744a46f756e74b49905be889d9" target="_top" xlink:title=" ">
<polygon fill="white" stroke="#666666" points="470.62,-244.94 357.12,-244.94 357.12,-225.69 470.62,-225.69 470.62,-244.94"/>
<text text-anchor="middle" x="413.88" y="-231.44" font-family="Helvetica,sans-Serif" font-size="10.00">Read_GmshVTK_Grid</text>
</a>
</g>
</g>
<!-- Node10&#45;&gt;Node25 -->
<g id="edge26_Node000010_Node000025" class="edge">
<title>Node10&#45;&gt;Node25</title>
<g id="a_edge26_Node000010_Node000025"><a xlink:title=" ">
<path fill="none" stroke="#63b8ff" d="M270.18,-266.26C294.03,-261.09 327.05,-253.93 355.32,-247.8"/>
<polygon fill="#63b8ff" stroke="#63b8ff" points="355.78,-251.28 364.81,-245.74 354.29,-244.44 355.78,-251.28"/>
</a>
</g>
</g>
<!-- Node29 -->
<g id="Node000029" class="node">
<title>Node29</title>
<g id="a_Node000029"><a xlink:href="../../d8/d40/_grid___computations_8cpp_a663d4b3ae06e638c2f2e82ad437e831e.html#a663d4b3ae06e638c2f2e82ad437e831e" target="_top" xlink:title="Reads the input grid file and constructs physical cells, evaluates face areas, normals,...">
<polygon fill="white" stroke="#666666" points="774.5,-113.94 712,-113.94 712,-94.69 774.5,-94.69 774.5,-113.94"/>
<text text-anchor="middle" x="743.25" y="-100.44" font-family="Helvetica,sans-Serif" font-size="10.00">Read_Grid</text>
</a>
</g>
</g>
<!-- Node10&#45;&gt;Node29 -->
<g id="edge38_Node000010_Node000029" class="edge">
<title>Node10&#45;&gt;Node29</title>
<g id="a_edge38_Node000010_Node000029"><a xlink:title=" ">
<path fill="none" stroke="#63b8ff" d="M269.93,-268.47C282.44,-265.63 296.48,-261.19 308,-254.32 327.98,-242.39 324.12,-228.4 344,-216.32 461.04,-145.16 624.71,-117.86 700.59,-108.57"/>
<polygon fill="#63b8ff" stroke="#63b8ff" points="700.54,-112.1 710.06,-107.45 699.72,-105.15 700.54,-112.1"/>
</a>
</g>
</g>
<!-- Node12 -->
<g id="Node000012" class="node">
<title>Node12</title>
<g id="a_Node000012"><a xlink:href="../../d0/ded/_read___gmsh___file_8cpp_ae9fe416efcf214282b13d235773a6bf6.html#ae9fe416efcf214282b13d235773a6bf6" target="_top" xlink:title=" ">
<polygon fill="white" stroke="#666666" points="780.12,-300.94 706.38,-300.94 706.38,-281.69 780.12,-281.69 780.12,-300.94"/>
<text text-anchor="middle" x="743.25" y="-287.44" font-family="Helvetica,sans-Serif" font-size="10.00">BoundingBox</text>
</a>
</g>
</g>
<!-- Node11&#45;&gt;Node12 -->
<g id="edge13_Node000011_Node000012" class="edge">
<title>Node11&#45;&gt;Node12</title>
<g id="a_edge13_Node000011_Node000012"><a xlink:title=" ">
<path fill="none" stroke="#63b8ff" d="M616.7,-324.23C640.1,-318.1 670.16,-310.22 695,-303.7"/>
<polygon fill="#63b8ff" stroke="#63b8ff" points="695.76,-307.12 704.54,-301.2 693.98,-300.35 695.76,-307.12"/>
</a>
</g>
</g>
<!-- Node13 -->
<g id="Node000013" class="node">
<title>Node13</title>
<g id="a_Node000013"><a xlink:href="../../d8/d40/_grid___computations_8cpp_a209db16fba143a9833c8d4021624afb0.html#a209db16fba143a9833c8d4021624afb0" target="_top" xlink:title=" ">
<polygon fill="white" stroke="#666666" points="956.62,-363.94 884.38,-363.94 884.38,-344.69 956.62,-344.69 956.62,-363.94"/>
<text text-anchor="middle" x="920.5" y="-350.44" font-family="Helvetica,sans-Serif" font-size="10.00">Check_Cells</text>
</a>
</g>
</g>
<!-- Node11&#45;&gt;Node13 -->
<g id="edge14_Node000011_Node000013" class="edge">
<title>Node11&#45;&gt;Node13</title>
<g id="a_edge14_Node000011_Node000013"><a xlink:title=" ">
<path fill="none" stroke="#63b8ff" d="M591.91,-344.13C604.44,-353.71 622.81,-369.29 634.75,-386.32 658.54,-420.24 636.25,-449.36 670.75,-472.32 724.4,-508.02 757.03,-498.88 815.75,-472.32 821.69,-469.63 876.59,-405.18 904.04,-372.69"/>
<polygon fill="#63b8ff" stroke="#63b8ff" points="906.54,-375.15 910.31,-365.25 901.19,-370.64 906.54,-375.15"/>
</a>
</g>
</g>
<!-- Node14 -->
<g id="Node000014" class="node">
<title>Node14</title>
<g id="a_Node000014"><a xlink:href="../../d0/ded/_read___gmsh___file_8cpp_ab9ea50ddf9e2981b178f5999ddfcb7b3.html#ab9ea50ddf9e2981b178f5999ddfcb7b3" target="_top" xlink:title=" ">
<polygon fill="white" stroke="#666666" points="815.75,-263.94 670.75,-263.94 670.75,-244.69 815.75,-244.69 815.75,-263.94"/>
<text text-anchor="middle" x="743.25" y="-250.44" font-family="Helvetica,sans-Serif" font-size="10.00">Classify_Domain_Boundaries</text>
</a>
</g>
</g>
<!-- Node11&#45;&gt;Node14 -->
<g id="edge15_Node000011_Node000014" class="edge">
<title>Node11&#45;&gt;Node14</title>
<g id="a_edge15_Node000011_Node000014"><a xlink:title=" ">
<path fill="none" stroke="#63b8ff" d="M590.31,-324.22C607.23,-310.54 639.49,-286.22 670.75,-272.32 674.31,-270.73 678.03,-269.27 681.83,-267.93"/>
<polygon fill="#63b8ff" stroke="#63b8ff" points="682.77,-271.3 691.21,-264.9 680.62,-264.64 682.77,-271.3"/>
</a>
</g>
</g>
<!-- Node16 -->
<g id="Node000016" class="node">
<title>Node16</title>
<g id="a_Node000016"><a xlink:href="../../d8/d40/_grid___computations_8cpp_a2d284e26ddef582519953e8b8300184e.html#a2d284e26ddef582519953e8b8300184e" target="_top" xlink:title=" ">
<polygon fill="white" stroke="#666666" points="961.12,-150.94 879.88,-150.94 879.88,-131.69 961.12,-131.69 961.12,-150.94"/>
<text text-anchor="middle" x="920.5" y="-137.44" font-family="Helvetica,sans-Serif" font-size="10.00">Construct_Cell</text>
</a>
</g>
</g>
<!-- Node11&#45;&gt;Node16 -->
<g id="edge17_Node000011_Node000016" class="edge">
<title>Node11&#45;&gt;Node16</title>
<g id="a_edge17_Node000011_Node000016"><a xlink:title=" ">
<path fill="none" stroke="#63b8ff" d="M597.25,-344.4C641.32,-366.24 751.66,-411.85 815.75,-358.32 884.73,-300.7 790.81,-225.38 851.75,-159.32 856.52,-154.15 862.58,-150.4 869.11,-147.69"/>
<polygon fill="#63b8ff" stroke="#63b8ff" points="869.8,-151.15 878.21,-144.7 867.61,-144.49 869.8,-151.15"/>
</a>
</g>
</g>
<!-- Node17 -->
<g id="Node000017" class="node">
<title>Node17</title>
<g id="a_Node000017"><a xlink:href="../../d0/ded/_read___gmsh___file_8cpp_a4f897fcec439c37558a5d9fd94abf2e0.html#a4f897fcec439c37558a5d9fd94abf2e0" target="_top" xlink:title=" ">
<polygon fill="white" stroke="#666666" points="803,-349.57 683.5,-349.57 683.5,-319.07 803,-319.07 803,-349.57"/>
<text text-anchor="start" x="691.5" y="-336.07" font-family="Helvetica,sans-Serif" font-size="10.00">Create_Boundary_Cells</text>
<text text-anchor="middle" x="743.25" y="-324.82" font-family="Helvetica,sans-Serif" font-size="10.00">_Lists</text>
</a>
</g>
</g>
<!-- Node11&#45;&gt;Node17 -->
<g id="edge18_Node000011_Node000017" class="edge">
<title>Node11&#45;&gt;Node17</title>
<g id="a_edge18_Node000011_Node000017"><a xlink:title=" ">
<path fill="none" stroke="#63b8ff" d="M624.81,-334.32C639.44,-334.32 655.93,-334.32 671.83,-334.32"/>
<polygon fill="#63b8ff" stroke="#63b8ff" points="671.76,-337.82 681.76,-334.32 671.76,-330.82 671.76,-337.82"/>
</a>
</g>
</g>
<!-- Node18 -->
<g id="Node000018" class="node">
<title>Node18</title>
<g id="a_Node000018"><a xlink:href="../../d0/ded/_read___gmsh___file_8cpp_a9ee7224f2c410fa22e26e50b31924869.html#a9ee7224f2c410fa22e26e50b31924869" target="_top" xlink:title=" ">
<polygon fill="white" stroke="#666666" points="794.75,-462.94 691.75,-462.94 691.75,-443.69 794.75,-443.69 794.75,-462.94"/>
<text text-anchor="middle" x="743.25" y="-449.44" font-family="Helvetica,sans-Serif" font-size="10.00">Identify_Neighbours</text>
</a>
</g>
</g>
<!-- Node11&#45;&gt;Node18 -->
<g id="edge19_Node000011_Node000018" class="edge">
<title>Node11&#45;&gt;Node18</title>
<g id="a_edge19_Node000011_Node000018"><a xlink:title=" ">
<path fill="none" stroke="#63b8ff" d="M589.92,-344.26C601.64,-354.43 620.03,-370.88 634.75,-386.32 651.96,-404.35 650.16,-415.27 670.75,-429.32 676.43,-433.19 682.78,-436.49 689.3,-439.28"/>
<polygon fill="#63b8ff" stroke="#63b8ff" points="687.6,-442.37 698.19,-442.71 690.12,-435.84 687.6,-442.37"/>
</a>
</g>
</g>
<!-- Node20 -->
<g id="Node000020" class="node">
<title>Node20</title>
<g id="a_Node000020"><a xlink:href="../../d8/d40/_grid___computations_8cpp_a614d9bfab5b0ee048b9e08a296757c42.html#a614d9bfab5b0ee048b9e08a296757c42" target="_top" xlink:title=" ">
<polygon fill="white" stroke="#666666" points="989.25,-187.94 851.75,-187.94 851.75,-168.69 989.25,-168.69 989.25,-187.94"/>
<text text-anchor="middle" x="920.5" y="-174.44" font-family="Helvetica,sans-Serif" font-size="10.00">Sort_Points_AntiClockWise</text>
</a>
</g>
</g>
<!-- Node11&#45;&gt;Node20 -->
<g id="edge21_Node000011_Node000020" class="edge">
<title>Node11&#45;&gt;Node20</title>
<g id="a_edge21_Node000011_Node000020"><a xlink:title=" ">
<path fill="none" stroke="#63b8ff" d="M589.78,-344.42C606.34,-358.18 638.45,-382.16 670.75,-391.32 732.75,-408.89 765.32,-431.44 815.75,-391.32 871.43,-347.02 814.61,-296.01 851.75,-235.32 861.92,-218.7 878.63,-204.56 892.9,-194.52"/>
<polygon fill="#63b8ff" stroke="#63b8ff" points="894.66,-197.56 901.03,-189.09 890.77,-191.74 894.66,-197.56"/>
</a>
</g>
</g>
<!-- Node15 -->
<g id="Node000015" class="node">
<title>Node15</title>
<g id="a_Node000015"><a xlink:href="../../d0/ded/_read___gmsh___file_8cpp_a994cf9f1092af359f042b96b997c5adc.html#a994cf9f1092af359f042b96b997c5adc" target="_top" xlink:title=" ">
<polygon fill="white" stroke="#666666" points="972.75,-263.94 868.25,-263.94 868.25,-244.69 972.75,-244.69 972.75,-263.94"/>
<text text-anchor="middle" x="920.5" y="-250.44" font-family="Helvetica,sans-Serif" font-size="10.00">Get_Boundary_Type</text>
</a>
</g>
</g>
<!-- Node14&#45;&gt;Node15 -->
<g id="edge16_Node000014_Node000015" class="edge">
<title>Node14&#45;&gt;Node15</title>
<g id="a_edge16_Node000014_Node000015"><a xlink:title=" ">
<path fill="none" stroke="#63b8ff" d="M816.04,-254.32C829.49,-254.32 843.46,-254.32 856.61,-254.32"/>
<polygon fill="#63b8ff" stroke="#63b8ff" points="856.42,-257.82 866.42,-254.32 856.42,-250.82 856.42,-257.82"/>
</a>
</g>
</g>
<!-- Node19 -->
<g id="Node000019" class="node">
<title>Node19</title>
<g id="a_Node000019"><a xlink:href="../../d0/ded/_read___gmsh___file_8cpp_adc1985827312d4d72fa6eb4ce492fc5e.html#adc1985827312d4d72fa6eb4ce492fc5e" target="_top" xlink:title=" ">
<polygon fill="white" stroke="#666666" points="967.88,-462.94 873.12,-462.94 873.12,-443.69 967.88,-443.69 967.88,-462.94"/>
<text text-anchor="middle" x="920.5" y="-449.44" font-family="Helvetica,sans-Serif" font-size="10.00">mapFacesToCells</text>
</a>
</g>
</g>
<!-- Node18&#45;&gt;Node19 -->
<g id="edge20_Node000018_Node000019" class="edge">
<title>Node18&#45;&gt;Node19</title>
<g id="a_edge20_Node000018_Node000019"><a xlink:title=" ">
<path fill="none" stroke="#63b8ff" d="M794.94,-453.32C815.76,-453.32 839.99,-453.32 861.51,-453.32"/>
<polygon fill="#63b8ff" stroke="#63b8ff" points="861.31,-456.82 871.31,-453.32 861.31,-449.82 861.31,-456.82"/>
</a>
</g>
</g>
<!-- Node21 -->
<g id="Node000021" class="node">
<title>Node21</title>
<g id="a_Node000021"><a xlink:href="../../d8/d40/_grid___computations_8cpp_a0bdffb27693c14d6cb4ef62eb5bd5d7f.html#a0bdffb27693c14d6cb4ef62eb5bd5d7f" target="_top" xlink:title="Sorts a set of points in anti&#45;clockwise order around their centroid.">
<polygon fill="white" stroke="#666666" points="1193.5,-187.94 1025.25,-187.94 1025.25,-168.69 1193.5,-168.69 1193.5,-187.94"/>
<text text-anchor="middle" x="1109.38" y="-174.44" font-family="Helvetica,sans-Serif" font-size="10.00">Are_Points_Sorted_AntiClockWise</text>
</a>
</g>
</g>
<!-- Node20&#45;&gt;Node21 -->
<g id="edge22_Node000020_Node000021" class="edge">
<title>Node20&#45;&gt;Node21</title>
<g id="a_edge22_Node000020_Node000021"><a xlink:title=" ">
<path fill="none" stroke="#63b8ff" d="M989.49,-178.32C997.3,-178.32 1005.36,-178.32 1013.43,-178.32"/>
<polygon fill="#63b8ff" stroke="#63b8ff" points="1013.32,-181.82 1023.32,-178.32 1013.32,-174.82 1013.32,-181.82"/>
</a>
</g>
</g>
<!-- Node22 -->
<g id="Node000022" class="node">
<title>Node22</title>
<g id="a_Node000022"><a xlink:href="../../d8/d40/_grid___computations_8cpp_a4dd07afd2a0f939b4d47bfa1088912c4.html#a4dd07afd2a0f939b4d47bfa1088912c4" target="_top" xlink:title=" ">
<polygon fill="white" stroke="#666666" points="1158.25,-111.94 1060.5,-111.94 1060.5,-92.69 1158.25,-92.69 1158.25,-111.94"/>
<text text-anchor="middle" x="1109.38" y="-98.44" font-family="Helvetica,sans-Serif" font-size="10.00">Compute_Centroid</text>
</a>
</g>
</g>
<!-- Node20&#45;&gt;Node22 -->
<g id="edge23_Node000020_Node000022" class="edge">
<title>Node20&#45;&gt;Node22</title>
<g id="a_edge23_Node000020_Node000022"><a xlink:title=" ">
<path fill="none" stroke="#63b8ff" d="M964.54,-168.22C972.83,-165.9 981.38,-163.25 989.25,-160.32 1021.59,-148.28 1056.94,-130.43 1080.66,-117.72"/>
<polygon fill="#63b8ff" stroke="#63b8ff" points="1082.24,-120.84 1089.36,-113 1078.9,-114.69 1082.24,-120.84"/>
</a>
</g>
</g>
<!-- Node23 -->
<g id="Node000023" class="node">
<title>Node23</title>
<g id="a_Node000023"><a xlink:href="../../d3/d82/_c_type___elliptic___grid_8cpp_a9d9acf133a5b966f0cbd16a2c57a7d79.html#a9d9acf133a5b966f0cbd16a2c57a7d79" target="_top" xlink:title=" ">
<polygon fill="white" stroke="#666666" points="1258.3,-73.94 1229.5,-73.94 1229.5,-54.69 1258.3,-54.69 1258.3,-73.94"/>
<text text-anchor="middle" x="1243.9" y="-60.44" font-family="Helvetica,sans-Serif" font-size="10.00">x</text>
</a>
</g>
</g>
<!-- Node22&#45;&gt;Node23 -->
<g id="edge24_Node000022_Node000023" class="edge">
<title>Node22&#45;&gt;Node23</title>
<g id="a_edge24_Node000022_Node000023"><a xlink:title=" ">
<path fill="none" stroke="#63b8ff" d="M1145.54,-92.23C1168.49,-85.65 1197.87,-77.23 1218.33,-71.36"/>
<polygon fill="#63b8ff" stroke="#63b8ff" points="1219.12,-74.78 1227.77,-68.65 1217.19,-68.05 1219.12,-74.78"/>
</a>
</g>
</g>
<!-- Node24 -->
<g id="Node000024" class="node">
<title>Node24</title>
<g id="a_Node000024"><a xlink:href="../../d3/d82/_c_type___elliptic___grid_8cpp_aae4b761a64c952b4c008655d1dc59a12.html#aae4b761a64c952b4c008655d1dc59a12" target="_top" xlink:title=" ">
<polygon fill="white" stroke="#666666" points="1258.3,-149.94 1229.5,-149.94 1229.5,-130.69 1258.3,-130.69 1258.3,-149.94"/>
<text text-anchor="middle" x="1243.9" y="-136.44" font-family="Helvetica,sans-Serif" font-size="10.00">y</text>
</a>
</g>
</g>
<!-- Node22&#45;&gt;Node24 -->
<g id="edge25_Node000022_Node000024" class="edge">
<title>Node22&#45;&gt;Node24</title>
<g id="a_edge25_Node000022_Node000024"><a xlink:title=" ">
<path fill="none" stroke="#63b8ff" d="M1145.54,-112.4C1168.49,-118.98 1197.87,-127.41 1218.33,-133.27"/>
<polygon fill="#63b8ff" stroke="#63b8ff" points="1217.19,-136.59 1227.77,-135.98 1219.12,-129.86 1217.19,-136.59"/>
</a>
</g>
</g>
<!-- Node26 -->
<g id="Node000026" class="node">
<title>Node26</title>
<g id="a_Node000026"><a xlink:href="../../d0/ded/_read___gmsh___file_8cpp_af5022e986434a24c3f27a650cf4aeb76.html#af5022e986434a24c3f27a650cf4aeb76" target="_top" xlink:title=" ">
<polygon fill="white" stroke="#666666" points="620.88,-244.94 533.62,-244.94 533.62,-225.69 620.88,-225.69 620.88,-244.94"/>
<text text-anchor="middle" x="577.25" y="-231.44" font-family="Helvetica,sans-Serif" font-size="10.00">Read_VTK_Grid</text>
</a>
</g>
</g>
<!-- Node25&#45;&gt;Node26 -->
<g id="edge27_Node000025_Node000026" class="edge">
<title>Node25&#45;&gt;Node26</title>
<g id="a_edge27_Node000025_Node000026"><a xlink:title=" ">
<path fill="none" stroke="#63b8ff" d="M470.86,-235.32C487.51,-235.32 505.7,-235.32 522.21,-235.32"/>
<polygon fill="#63b8ff" stroke="#63b8ff" points="521.83,-238.82 531.83,-235.32 521.83,-231.82 521.83,-238.82"/>
</a>
</g>
</g>
<!-- Node26&#45;&gt;Node12 -->
<g id="edge28_Node000026_Node000012" class="edge">
<title>Node26&#45;&gt;Node12</title>
<g id="a_edge28_Node000026_Node000012"><a xlink:title=" ">
<path fill="none" stroke="#63b8ff" d="M600.34,-245.44C618.88,-253.68 646.18,-265.22 670.75,-273.32 678.52,-275.88 686.87,-278.28 695.03,-280.45"/>
<polygon fill="#63b8ff" stroke="#63b8ff" points="693.93,-283.78 704.49,-282.87 695.67,-277 693.93,-283.78"/>
</a>
</g>
</g>
<!-- Node26&#45;&gt;Node14 -->
<g id="edge29_Node000026_Node000014" class="edge">
<title>Node26&#45;&gt;Node14</title>
<g id="a_edge29_Node000026_Node000014"><a xlink:title=" ">
<path fill="none" stroke="#63b8ff" d="M621.34,-240.31C632.94,-241.65 645.89,-243.15 658.88,-244.66"/>
<polygon fill="#63b8ff" stroke="#63b8ff" points="658.44,-248.13 668.78,-245.8 659.25,-241.18 658.44,-248.13"/>
</a>
</g>
</g>
<!-- Node26&#45;&gt;Node17 -->
<g id="edge30_Node000026_Node000017" class="edge">
<title>Node26&#45;&gt;Node17</title>
<g id="a_edge30_Node000026_Node000017"><a xlink:title=" ">
<path fill="none" stroke="#63b8ff" d="M588.17,-245.43C604.21,-261.26 637.41,-291.99 670.75,-310.32 673.12,-311.62 675.58,-312.87 678.09,-314.07"/>
<polygon fill="#63b8ff" stroke="#63b8ff" points="676.68,-317.27 687.25,-318.07 679.49,-310.86 676.68,-317.27"/>
</a>
</g>
</g>
<!-- Node26&#45;&gt;Node18 -->
<g id="edge34_Node000026_Node000018" class="edge">
<title>Node26&#45;&gt;Node18</title>
<g id="a_edge34_Node000026_Node000018"><a xlink:title=" ">
<path fill="none" stroke="#63b8ff" d="M585.68,-245.2C601.39,-266.09 639.11,-316.25 670.75,-358.32 690.53,-384.6 713.39,-414.98 727.83,-434.16"/>
<polygon fill="#63b8ff" stroke="#63b8ff" points="725.01,-436.24 733.82,-442.12 730.61,-432.03 725.01,-436.24"/>
</a>
</g>
</g>
<!-- Node26&#45;&gt;Node23 -->
<g id="edge36_Node000026_Node000023" class="edge">
<title>Node26&#45;&gt;Node23</title>
<g id="a_edge36_Node000026_Node000023"><a xlink:title=" ">
<path fill="none" stroke="#63b8ff" d="M581.84,-225.47C591.89,-199.2 622.73,-126.61 670.75,-85.32 737.03,-28.32 766.09,-25.78 851.75,-8.32 989.41,19.75 1157.15,-32.93 1218.74,-55.12"/>
<polygon fill="#63b8ff" stroke="#63b8ff" points="1217.28,-58.32 1227.87,-58.48 1219.69,-51.75 1217.28,-58.32"/>
</a>
</g>
</g>
<!-- Node26&#45;&gt;Node24 -->
<g id="edge37_Node000026_Node000024" class="edge">
<title>Node26&#45;&gt;Node24</title>
<g id="a_edge37_Node000026_Node000024"><a xlink:title=" ">
<path fill="none" stroke="#63b8ff" d="M621.09,-234.58C752.25,-232.06 1142.54,-222.52 1193.5,-197.32 1209.99,-189.16 1223.25,-172.8 1231.87,-159.69"/>
<polygon fill="#63b8ff" stroke="#63b8ff" points="1234.72,-161.73 1236.96,-151.38 1228.75,-158.07 1234.72,-161.73"/>
</a>
</g>
</g>
<!-- Node27 -->
<g id="Node000027" class="node">
<title>Node27</title>
<g id="a_Node000027"><a xlink:href="../../d0/ded/_read___gmsh___file_8cpp_aa3cbdec71b7c56f603b53acd3ce5a070.html#aa3cbdec71b7c56f603b53acd3ce5a070" target="_top" xlink:title=" ">
<polygon fill="white" stroke="#666666" points="781.25,-187.94 705.25,-187.94 705.25,-168.69 781.25,-168.69 781.25,-187.94"/>
<text text-anchor="middle" x="743.25" y="-174.44" font-family="Helvetica,sans-Serif" font-size="10.00">Identify_Cells</text>
</a>
</g>
</g>
<!-- Node26&#45;&gt;Node27 -->
<g id="edge31_Node000026_Node000027" class="edge">
<title>Node26&#45;&gt;Node27</title>
<g id="a_edge31_Node000026_Node000027"><a xlink:title=" ">
<path fill="none" stroke="#63b8ff" d="M606.13,-225.22C624.46,-218.61 649,-209.85 670.75,-202.32 680.55,-198.92 691.13,-195.33 701.07,-191.99"/>
<polygon fill="#63b8ff" stroke="#63b8ff" points="702.13,-195.33 710.5,-188.83 699.91,-188.69 702.13,-195.33"/>
</a>
</g>
</g>
<!-- Node28 -->
<g id="Node000028" class="node">
<title>Node28</title>
<g id="a_Node000028"><a xlink:href="../../dc/d3a/src_2_utility___files_8cpp_abf34e0b480f7580b0cd4237a76aed670.html#abf34e0b480f7580b0cd4237a76aed670" target="_top" xlink:title=" ">
<polygon fill="white" stroke="#666666" points="761.38,-150.94 725.12,-150.94 725.12,-131.69 761.38,-131.69 761.38,-150.94"/>
<text text-anchor="middle" x="743.25" y="-137.44" font-family="Helvetica,sans-Serif" font-size="10.00">Print</text>
</a>
</g>
</g>
<!-- Node26&#45;&gt;Node28 -->
<g id="edge35_Node000026_Node000028" class="edge">
<title>Node26&#45;&gt;Node28</title>
<g id="a_edge35_Node000026_Node000028"><a xlink:title=" ">
<path fill="none" stroke="#63b8ff" d="M587.47,-225.28C603.04,-208.96 636.23,-176.73 670.75,-159.32 684.1,-152.58 700.15,-148.25 713.66,-145.52"/>
<polygon fill="#63b8ff" stroke="#63b8ff" points="714.03,-149.01 723.25,-143.79 712.79,-142.12 714.03,-149.01"/>
</a>
</g>
</g>
<!-- Node27&#45;&gt;Node16 -->
<g id="edge32_Node000027_Node000016" class="edge">
<title>Node27&#45;&gt;Node16</title>
<g id="a_edge32_Node000027_Node000016"><a xlink:title=" ">
<path fill="none" stroke="#63b8ff" d="M781.42,-170.47C806.76,-165.12 840.65,-157.96 868.51,-152.08"/>
<polygon fill="#63b8ff" stroke="#63b8ff" points="869.1,-155.53 878.16,-150.04 867.66,-148.69 869.1,-155.53"/>
</a>
</g>
</g>
<!-- Node27&#45;&gt;Node20 -->
<g id="edge33_Node000027_Node000020" class="edge">
<title>Node27&#45;&gt;Node20</title>
<g id="a_edge33_Node000027_Node000020"><a xlink:title=" ">
<path fill="none" stroke="#63b8ff" d="M781.42,-178.32C798.54,-178.32 819.57,-178.32 840,-178.32"/>
<polygon fill="#63b8ff" stroke="#63b8ff" points="839.74,-181.82 849.74,-178.32 839.74,-174.82 839.74,-181.82"/>
</a>
</g>
</g>
<!-- Node29&#45;&gt;Node13 -->
<g id="edge39_Node000029_Node000013" class="edge">
<title>Node29&#45;&gt;Node13</title>
<g id="a_edge39_Node000029_Node000013"><a xlink:title=" ">
<path fill="none" stroke="#63b8ff" d="M774.93,-105C789.12,-106.9 805.14,-111.57 815.75,-122.32 864.23,-171.41 820.79,-211.66 851.75,-273.32 864.03,-297.79 885.04,-321.27 900.42,-336.59"/>
<polygon fill="#63b8ff" stroke="#63b8ff" points="897.58,-338.72 907.2,-343.17 902.45,-333.69 897.58,-338.72"/>
</a>
</g>
</g>
<!-- Node29&#45;&gt;Node16 -->
<g id="edge40_Node000029_Node000016" class="edge">
<title>Node29&#45;&gt;Node16</title>
<g id="a_edge40_Node000029_Node000016"><a xlink:title=" ">
<path fill="none" stroke="#63b8ff" d="M774.78,-110.76C800.52,-116.2 837.9,-124.09 868.22,-130.49"/>
<polygon fill="#63b8ff" stroke="#63b8ff" points="867.47,-133.91 877.98,-132.55 868.92,-127.06 867.47,-133.91"/>
</a>
</g>
</g>
<!-- Node29&#45;&gt;Node20 -->
<g id="edge42_Node000029_Node000020" class="edge">
<title>Node29&#45;&gt;Node20</title>
<g id="a_edge42_Node000029_Node000020"><a xlink:title=" ">
<path fill="none" stroke="#63b8ff" d="M774.92,-108.12C788.14,-110.72 803.38,-115.07 815.75,-122.32 835.83,-134.07 831.75,-148.43 851.75,-160.32 853.92,-161.6 856.18,-162.8 858.5,-163.91"/>
<polygon fill="#63b8ff" stroke="#63b8ff" points="857.03,-167.09 867.61,-167.69 859.72,-160.63 857.03,-167.09"/>
</a>
</g>
</g>
<!-- Node29&#45;&gt;Node23 -->
<g id="edge43_Node000029_Node000023" class="edge">
<title>Node29&#45;&gt;Node23</title>
<g id="a_edge43_Node000029_Node000023"><a xlink:title=" ">
<path fill="none" stroke="#63b8ff" d="M774.69,-101.87C865.6,-94.58 1133.97,-73.05 1217.67,-66.34"/>
<polygon fill="#63b8ff" stroke="#63b8ff" points="1217.86,-69.84 1227.55,-65.55 1217.3,-62.86 1217.86,-69.84"/>
</a>
</g>
</g>
<!-- Node29&#45;&gt;Node24 -->
<g id="edge44_Node000029_Node000024" class="edge">
<title>Node29&#45;&gt;Node24</title>
<g id="a_edge44_Node000029_Node000024"><a xlink:title=" ">
<path fill="none" stroke="#63b8ff" d="M774.69,-106.51C865.6,-113.08 1133.97,-132.45 1217.67,-138.5"/>
<polygon fill="#63b8ff" stroke="#63b8ff" points="1217.32,-141.98 1227.55,-139.21 1217.82,-135 1217.32,-141.98"/>
</a>
</g>
</g>
<!-- Node30 -->
<g id="Node000030" class="node">
<title>Node30</title>
<g id="a_Node000030"><a xlink:href="../../d8/d40/_grid___computations_8cpp_aa376223dcb91990013ac6549090115ea.html#aa376223dcb91990013ac6549090115ea" target="_top" xlink:title=" ">
<polygon fill="white" stroke="#666666" points="969.75,-36.94 871.25,-36.94 871.25,-17.69 969.75,-17.69 969.75,-36.94"/>
<text text-anchor="middle" x="920.5" y="-23.44" font-family="Helvetica,sans-Serif" font-size="10.00">Conversion_Factor</text>
</a>
</g>
</g>
<!-- Node29&#45;&gt;Node30 -->
<g id="edge41_Node000029_Node000030" class="edge">
<title>Node29&#45;&gt;Node30</title>
<g id="a_edge41_Node000029_Node000030"><a xlink:title=" ">
<path fill="none" stroke="#63b8ff" d="M762.97,-94.25C784.17,-83.04 819.93,-64.74 851.75,-51.32 860.08,-47.8 869.11,-44.36 877.79,-41.22"/>
<polygon fill="#63b8ff" stroke="#63b8ff" points="878.83,-44.57 887.09,-37.94 876.49,-37.97 878.83,-44.57"/>
</a>
</g>
</g>
<!-- Node31&#45;&gt;Node2 -->
<g id="edge46_Node000031_Node000002" class="edge">
<title>Node31&#45;&gt;Node2</title>
<g id="a_edge46_Node000031_Node000002"><a xlink:title=" ">
<path fill="none" stroke="#63b8ff" d="M291.16,-539.24C308.08,-536.05 327.02,-532.48 344.82,-529.13"/>
<polygon fill="#63b8ff" stroke="#63b8ff" points="345.35,-532.59 354.53,-527.3 344.06,-525.71 345.35,-532.59"/>
</a>
</g>
</g>
</g>
</svg>
