<?xml version="1.0" encoding="UTF-8" standalone="no"?>
<!DOCTYPE svg PUBLIC "-//W3C//DTD SVG 1.1//EN"
 "http://www.w3.org/Graphics/SVG/1.1/DTD/svg11.dtd">
<!-- Generated by graphviz version 12.2.1 (20241206.2353)
 -->
<!-- Title: Construct_Ghost_Cells_Optimized Pages: 1 -->
<svg width="277pt" height="125pt"
 viewBox="0.00 0.00 277.00 124.88" xmlns="http://www.w3.org/2000/svg" xmlns:xlink="http://www.w3.org/1999/xlink">
<g id="graph0" class="graph" transform="scale(1 1) rotate(0) translate(4 120.88)">
<title>Construct_Ghost_Cells_Optimized</title>
<!-- Node1 -->
<g id="Node000001" class="node">
<title>Node1</title>
<g id="a_Node000001"><a xlink:title=" ">
<polygon fill="#999999" stroke="#666666" points="118,-79.5 0,-79.5 0,-49 118,-49 118,-79.5"/>
<text text-anchor="start" x="8" y="-66" font-family="Helvetica,sans-Serif" font-size="10.00">Construct_Ghost_Cells</text>
<text text-anchor="middle" x="59" y="-54.75" font-family="Helvetica,sans-Serif" font-size="10.00">_Optimized</text>
</a>
</g>
</g>
<!-- Node2 -->
<g id="Node000002" class="node">
<title>Node2</title>
<g id="a_Node000002"><a xlink:href="../../d8/d40/_grid___computations_8cpp_a2d284e26ddef582519953e8b8300184e.html#a2d284e26ddef582519953e8b8300184e" target="_top" xlink:title=" ">
<polygon fill="white" stroke="#666666" points="252.12,-116.88 170.88,-116.88 170.88,-97.62 252.12,-97.62 252.12,-116.88"/>
<text text-anchor="middle" x="211.5" y="-103.38" font-family="Helvetica,sans-Serif" font-size="10.00">Construct_Cell</text>
</a>
</g>
</g>
<!-- Node1&#45;&gt;Node2 -->
<g id="edge1_Node000001_Node000002" class="edge">
<title>Node1&#45;&gt;Node2</title>
<g id="a_edge1_Node000001_Node000002"><a xlink:title=" ">
<path fill="none" stroke="#63b8ff" d="M114.76,-79.9C130.99,-84.53 148.6,-89.56 164.24,-94.03"/>
<polygon fill="#63b8ff" stroke="#63b8ff" points="163.19,-97.37 173.77,-96.76 165.12,-90.64 163.19,-97.37"/>
</a>
</g>
</g>
<!-- Node3 -->
<g id="Node000003" class="node">
<title>Node3</title>
<g id="a_Node000003"><a xlink:href="../../d4/d7b/namespace_grid_performance_aaac03e00f6d3dcd501015a9143fb1814.html#aaac03e00f6d3dcd501015a9143fb1814" target="_top" xlink:title=" ">
<polygon fill="white" stroke="#666666" points="267.12,-79.5 155.88,-79.5 155.88,-49 267.12,-49 267.12,-79.5"/>
<text text-anchor="start" x="163.88" y="-66" font-family="Helvetica,sans-Serif" font-size="10.00">GridPerformance::end</text>
<text text-anchor="middle" x="211.5" y="-54.75" font-family="Helvetica,sans-Serif" font-size="10.00">_timer</text>
</a>
</g>
</g>
<!-- Node1&#45;&gt;Node3 -->
<g id="edge2_Node000001_Node000003" class="edge">
<title>Node1&#45;&gt;Node3</title>
<g id="a_edge2_Node000001_Node000003"><a xlink:title=" ">
<path fill="none" stroke="#63b8ff" d="M118.19,-64.25C126.7,-64.25 135.52,-64.25 144.18,-64.25"/>
<polygon fill="#63b8ff" stroke="#63b8ff" points="143.92,-67.75 153.92,-64.25 143.92,-60.75 143.92,-67.75"/>
</a>
</g>
</g>
<!-- Node4 -->
<g id="Node000004" class="node">
<title>Node4</title>
<g id="a_Node000004"><a xlink:href="../../d4/d7b/namespace_grid_performance_a2fdab3242d4062c9533d3b3d1be6fa54.html#a2fdab3242d4062c9533d3b3d1be6fa54" target="_top" xlink:title=" ">
<polygon fill="white" stroke="#666666" points="269,-30.5 154,-30.5 154,0 269,0 269,-30.5"/>
<text text-anchor="start" x="162" y="-17" font-family="Helvetica,sans-Serif" font-size="10.00">GridPerformance::start</text>
<text text-anchor="middle" x="211.5" y="-5.75" font-family="Helvetica,sans-Serif" font-size="10.00">_timer</text>
</a>
</g>
</g>
<!-- Node1&#45;&gt;Node4 -->
<g id="edge3_Node000001_Node000004" class="edge">
<title>Node1&#45;&gt;Node4</title>
<g id="a_edge3_Node000001_Node000004"><a xlink:title=" ">
<path fill="none" stroke="#63b8ff" d="M108.03,-48.61C121.81,-44.13 137,-39.18 151.36,-34.5"/>
<polygon fill="#63b8ff" stroke="#63b8ff" points="152.28,-37.88 160.71,-31.46 150.12,-31.23 152.28,-37.88"/>
</a>
</g>
</g>
</g>
</svg>
