<?xml version="1.0" encoding="UTF-8" standalone="no"?>
<!DOCTYPE svg PUBLIC "-//W3C//DTD SVG 1.1//EN"
 "http://www.w3.org/Graphics/SVG/1.1/DTD/svg11.dtd">
<!-- Generated by graphviz version 12.2.1 (20241206.2353)
 -->
<!-- Title: src/Grid_Computations_Optimized.cpp Pages: 1 -->
<svg width="1445pt" height="260pt"
 viewBox="0.00 0.00 1444.50 259.50" xmlns="http://www.w3.org/2000/svg" xmlns:xlink="http://www.w3.org/1999/xlink">
<g id="graph0" class="graph" transform="scale(1 1) rotate(0) translate(4 255.5)">
<title>src/Grid_Computations_Optimized.cpp</title>
<!-- Node1 -->
<g id="Node000001" class="node">
<title>Node1</title>
<g id="a_Node000001"><a xlink:title=" ">
<polygon fill="#999999" stroke="#666666" points="1018.12,-251.5 901.62,-251.5 901.62,-221 1018.12,-221 1018.12,-251.5"/>
<text text-anchor="start" x="909.62" y="-238" font-family="Helvetica,sans-Serif" font-size="10.00">src/Grid_Computations</text>
<text text-anchor="middle" x="959.88" y="-226.75" font-family="Helvetica,sans-Serif" font-size="10.00">_Optimized.cpp</text>
</a>
</g>
</g>
<!-- Node2 -->
<g id="Node000002" class="node">
<title>Node2</title>
<g id="a_Node000002"><a xlink:href="../../d6/dc2/definitions_8h.html" target="_top" xlink:title="Header file containing global constants, structures, and function declarations for the solver.">
<polygon fill="white" stroke="#666666" points="826.12,-74.5 757.62,-74.5 757.62,-55.25 826.12,-55.25 826.12,-74.5"/>
<text text-anchor="middle" x="791.88" y="-61" font-family="Helvetica,sans-Serif" font-size="10.00">definitions.h</text>
</a>
</g>
</g>
<!-- Node1&#45;&gt;Node2 -->
<g id="edge1_Node000001_Node000002" class="edge">
<title>Node1&#45;&gt;Node2</title>
<g id="a_edge1_Node000001_Node000002"><a xlink:title=" ">
<path fill="none" stroke="#63b8ff" d="M953.16,-220.87C940.85,-195.78 912.54,-143.53 875.88,-110.5 861.38,-97.44 842.38,-86.94 826.11,-79.4"/>
<polygon fill="#63b8ff" stroke="#63b8ff" points="827.84,-76.34 817.28,-75.5 825.01,-82.74 827.84,-76.34"/>
</a>
</g>
</g>
<!-- Node12 -->
<g id="Node000012" class="node">
<title>Node12</title>
<g id="a_Node000012"><a xlink:title=" ">
<polygon fill="#e0e0e0" stroke="#999999" points="1372.75,-19.25 1317,-19.25 1317,0 1372.75,0 1372.75,-19.25"/>
<text text-anchor="middle" x="1344.88" y="-5.75" font-family="Helvetica,sans-Serif" font-size="10.00">algorithm</text>
</a>
</g>
</g>
<!-- Node1&#45;&gt;Node12 -->
<g id="edge31_Node000001_Node000012" class="edge">
<title>Node1&#45;&gt;Node12</title>
<g id="a_edge31_Node000001_Node000012"><a xlink:title=" ">
<path fill="none" stroke="#63b8ff" d="M956.55,-220.55C949.73,-186.11 938.35,-99.79 983.88,-55.25 1033.38,-6.82 1219.11,-29.28 1305.42,-19.17"/>
<polygon fill="#63b8ff" stroke="#63b8ff" points="1305.76,-22.66 1315.16,-17.78 1304.77,-15.73 1305.76,-22.66"/>
</a>
</g>
</g>
<!-- Node13 -->
<g id="Node000013" class="node">
<title>Node13</title>
<g id="a_Node000013"><a xlink:title=" ">
<polygon fill="#e0e0e0" stroke="#999999" points="1436.5,-19.25 1391.25,-19.25 1391.25,0 1436.5,0 1436.5,-19.25"/>
<text text-anchor="middle" x="1413.88" y="-5.75" font-family="Helvetica,sans-Serif" font-size="10.00">chrono</text>
</a>
</g>
</g>
<!-- Node1&#45;&gt;Node13 -->
<g id="edge35_Node000001_Node000013" class="edge">
<title>Node1&#45;&gt;Node13</title>
<g id="a_edge35_Node000001_Node000013"><a xlink:title=" ">
<path fill="none" stroke="#63b8ff" d="M968.65,-220.6C978.6,-205.08 996.17,-180.79 1016.88,-165.75 1078.19,-121.21 1295.55,-48.63 1379.99,-21.4"/>
<polygon fill="#63b8ff" stroke="#63b8ff" points="1380.87,-24.79 1389.32,-18.4 1378.73,-18.13 1380.87,-24.79"/>
</a>
</g>
</g>
<!-- Node24 -->
<g id="Node000024" class="node">
<title>Node24</title>
<g id="a_Node000024"><a xlink:href="../../d8/dea/_grid_8h.html" target="_top" xlink:title=" ">
<polygon fill="white" stroke="#666666" points="894,-185 851.75,-185 851.75,-165.75 894,-165.75 894,-185"/>
<text text-anchor="middle" x="872.88" y="-171.5" font-family="Helvetica,sans-Serif" font-size="10.00">Grid.h</text>
</a>
</g>
</g>
<!-- Node1&#45;&gt;Node24 -->
<g id="edge23_Node000001_Node000024" class="edge">
<title>Node1&#45;&gt;Node24</title>
<g id="a_edge23_Node000001_Node000024"><a xlink:title=" ">
<path fill="none" stroke="#63b8ff" d="M938.37,-220.7C925.38,-211.9 908.83,-200.71 895.62,-191.77"/>
<polygon fill="#63b8ff" stroke="#63b8ff" points="897.78,-189.01 887.54,-186.3 893.86,-194.8 897.78,-189.01"/>
</a>
</g>
</g>
<!-- Node25 -->
<g id="Node000025" class="node">
<title>Node25</title>
<g id="a_Node000025"><a xlink:href="../../d8/d4d/_globals_8h.html" target="_top" xlink:title=" ">
<polygon fill="white" stroke="#666666" points="848.5,-129.75 791.25,-129.75 791.25,-110.5 848.5,-110.5 848.5,-129.75"/>
<text text-anchor="middle" x="819.88" y="-116.25" font-family="Helvetica,sans-Serif" font-size="10.00">Globals.h</text>
</a>
</g>
</g>
<!-- Node1&#45;&gt;Node25 -->
<g id="edge27_Node000001_Node000025" class="edge">
<title>Node1&#45;&gt;Node25</title>
<g id="a_edge27_Node000001_Node000025"><a xlink:title=" ">
<path fill="none" stroke="#63b8ff" d="M901.18,-220.62C880.47,-212.95 858.49,-201.58 842.88,-185 831.62,-173.04 825.8,-155.18 822.84,-141.38"/>
<polygon fill="#63b8ff" stroke="#63b8ff" points="826.3,-140.86 821.11,-131.63 819.41,-142.08 826.3,-140.86"/>
</a>
</g>
</g>
<!-- Node26 -->
<g id="Node000026" class="node">
<title>Node26</title>
<g id="a_Node000026"><a xlink:href="../../db/d72/_utilities_8h.html" target="_top" xlink:title=" ">
<polygon fill="white" stroke="#666666" points="795.5,-185 738.25,-185 738.25,-165.75 795.5,-165.75 795.5,-185"/>
<text text-anchor="middle" x="766.88" y="-171.5" font-family="Helvetica,sans-Serif" font-size="10.00">Utilities.h</text>
</a>
</g>
</g>
<!-- Node1&#45;&gt;Node26 -->
<g id="edge28_Node000001_Node000026" class="edge">
<title>Node1&#45;&gt;Node26</title>
<g id="a_edge28_Node000001_Node000026"><a xlink:title=" ">
<path fill="none" stroke="#63b8ff" d="M911.67,-220.55C879.25,-210.66 837.04,-197.78 806.56,-188.48"/>
<polygon fill="#63b8ff" stroke="#63b8ff" points="807.94,-185.24 797.36,-185.67 805.9,-191.94 807.94,-185.24"/>
</a>
</g>
</g>
<!-- Node27 -->
<g id="Node000027" class="node">
<title>Node27</title>
<g id="a_Node000027"><a xlink:title=" ">
<polygon fill="#e0e0e0" stroke="#999999" points="1083.88,-185 1025.88,-185 1025.88,-165.75 1083.88,-165.75 1083.88,-185"/>
<text text-anchor="middle" x="1054.88" y="-171.5" font-family="Helvetica,sans-Serif" font-size="10.00">execution</text>
</a>
</g>
</g>
<!-- Node1&#45;&gt;Node27 -->
<g id="edge32_Node000001_Node000027" class="edge">
<title>Node1&#45;&gt;Node27</title>
<g id="a_edge32_Node000001_Node000027"><a xlink:title=" ">
<path fill="none" stroke="#63b8ff" d="M983.36,-220.7C997.68,-211.82 1015.96,-200.49 1030.46,-191.51"/>
<polygon fill="#63b8ff" stroke="#63b8ff" points="1032.29,-194.49 1038.94,-186.25 1028.6,-188.54 1032.29,-194.49"/>
</a>
</g>
</g>
<!-- Node28 -->
<g id="Node000028" class="node">
<title>Node28</title>
<g id="a_Node000028"><a xlink:title=" ">
<polygon fill="#e0e0e0" stroke="#999999" points="1152.12,-185 1101.62,-185 1101.62,-165.75 1152.12,-165.75 1152.12,-185"/>
<text text-anchor="middle" x="1126.88" y="-171.5" font-family="Helvetica,sans-Serif" font-size="10.00">numeric</text>
</a>
</g>
</g>
<!-- Node1&#45;&gt;Node28 -->
<g id="edge33_Node000001_Node000028" class="edge">
<title>Node1&#45;&gt;Node28</title>
<g id="a_edge33_Node000001_Node000028"><a xlink:title=" ">
<path fill="none" stroke="#63b8ff" d="M1001.59,-220.55C1028.97,-210.89 1064.45,-198.38 1090.65,-189.15"/>
<polygon fill="#63b8ff" stroke="#63b8ff" points="1091.57,-192.53 1099.84,-185.91 1089.24,-185.93 1091.57,-192.53"/>
</a>
</g>
</g>
<!-- Node29 -->
<g id="Node000029" class="node">
<title>Node29</title>
<g id="a_Node000029"><a xlink:title=" ">
<polygon fill="#e0e0e0" stroke="#999999" points="1233.88,-185 1169.88,-185 1169.88,-165.75 1233.88,-165.75 1233.88,-185"/>
<text text-anchor="middle" x="1201.88" y="-171.5" font-family="Helvetica,sans-Serif" font-size="10.00">immintrin.h</text>
</a>
</g>
</g>
<!-- Node1&#45;&gt;Node29 -->
<g id="edge34_Node000001_Node000029" class="edge">
<title>Node1&#45;&gt;Node29</title>
<g id="a_edge34_Node000001_Node000029"><a xlink:title=" ">
<path fill="none" stroke="#63b8ff" d="M1018.46,-221C1061.62,-210.5 1119.37,-196.45 1158.45,-186.94"/>
<polygon fill="#63b8ff" stroke="#63b8ff" points="1159.09,-190.39 1167.98,-184.62 1157.43,-183.59 1159.09,-190.39"/>
</a>
</g>
</g>
<!-- Node3 -->
<g id="Node000003" class="node">
<title>Node3</title>
<g id="a_Node000003"><a xlink:title=" ">
<polygon fill="#e0e0e0" stroke="#999999" points="982.62,-19.25 929.12,-19.25 929.12,0 982.62,0 982.62,-19.25"/>
<text text-anchor="middle" x="955.88" y="-5.75" font-family="Helvetica,sans-Serif" font-size="10.00">iostream</text>
</a>
</g>
</g>
<!-- Node2&#45;&gt;Node3 -->
<g id="edge2_Node000002_Node000003" class="edge">
<title>Node2&#45;&gt;Node3</title>
<g id="a_edge2_Node000002_Node000003"><a xlink:title=" ">
<path fill="none" stroke="#63b8ff" d="M819.7,-54.84C846.68,-46.08 887.83,-32.72 917.84,-22.98"/>
<polygon fill="#63b8ff" stroke="#63b8ff" points="918.87,-26.32 927.3,-19.9 916.71,-19.66 918.87,-26.32"/>
</a>
</g>
</g>
<!-- Node4 -->
<g id="Node000004" class="node">
<title>Node4</title>
<g id="a_Node000004"><a xlink:title=" ">
<polygon fill="#e0e0e0" stroke="#999999" points="1049.38,-19.25 1000.38,-19.25 1000.38,0 1049.38,0 1049.38,-19.25"/>
<text text-anchor="middle" x="1024.88" y="-5.75" font-family="Helvetica,sans-Serif" font-size="10.00">fstream</text>
</a>
</g>
</g>
<!-- Node2&#45;&gt;Node4 -->
<g id="edge3_Node000002_Node000004" class="edge">
<title>Node2&#45;&gt;Node4</title>
<g id="a_edge3_Node000002_Node000004"><a xlink:title=" ">
<path fill="none" stroke="#63b8ff" d="M826.29,-56.59C864.03,-48.52 926.63,-34.87 989.18,-19.84"/>
<polygon fill="#63b8ff" stroke="#63b8ff" points="989.66,-23.33 998.56,-17.58 988.02,-16.52 989.66,-23.33"/>
</a>
</g>
</g>
<!-- Node5 -->
<g id="Node000005" class="node">
<title>Node5</title>
<g id="a_Node000005"><a xlink:title=" ">
<polygon fill="#e0e0e0" stroke="#999999" points="1110.38,-19.25 1067.38,-19.25 1067.38,0 1110.38,0 1110.38,-19.25"/>
<text text-anchor="middle" x="1088.88" y="-5.75" font-family="Helvetica,sans-Serif" font-size="10.00">vector</text>
</a>
</g>
</g>
<!-- Node2&#45;&gt;Node5 -->
<g id="edge4_Node000002_Node000005" class="edge">
<title>Node2&#45;&gt;Node5</title>
<g id="a_edge4_Node000002_Node000005"><a xlink:title=" ">
<path fill="none" stroke="#63b8ff" d="M826.26,-59.41C875.24,-52.77 968.12,-39.17 1055.78,-19.75"/>
<polygon fill="#63b8ff" stroke="#63b8ff" points="1056.53,-23.17 1065.52,-17.56 1054.99,-16.34 1056.53,-23.17"/>
</a>
</g>
</g>
<!-- Node6 -->
<g id="Node000006" class="node">
<title>Node6</title>
<g id="a_Node000006"><a xlink:title=" ">
<polygon fill="#e0e0e0" stroke="#999999" points="1168.88,-19.25 1128.88,-19.25 1128.88,0 1168.88,0 1168.88,-19.25"/>
<text text-anchor="middle" x="1148.88" y="-5.75" font-family="Helvetica,sans-Serif" font-size="10.00">string</text>
</a>
</g>
</g>
<!-- Node2&#45;&gt;Node6 -->
<g id="edge5_Node000002_Node000006" class="edge">
<title>Node2&#45;&gt;Node6</title>
<g id="a_edge5_Node000002_Node000006"><a xlink:title=" ">
<path fill="none" stroke="#63b8ff" d="M826.17,-60.96C884.26,-55.65 1005.81,-42.92 1117.28,-19.52"/>
<polygon fill="#63b8ff" stroke="#63b8ff" points="1117.85,-22.97 1126.9,-17.46 1116.39,-16.13 1117.85,-22.97"/>
</a>
</g>
</g>
<!-- Node7 -->
<g id="Node000007" class="node">
<title>Node7</title>
<g id="a_Node000007"><a xlink:title=" ">
<polygon fill="#e0e0e0" stroke="#999999" points="1230.38,-19.25 1187.38,-19.25 1187.38,0 1230.38,0 1230.38,-19.25"/>
<text text-anchor="middle" x="1208.88" y="-5.75" font-family="Helvetica,sans-Serif" font-size="10.00">cmath</text>
</a>
</g>
</g>
<!-- Node2&#45;&gt;Node7 -->
<g id="edge6_Node000002_Node000007" class="edge">
<title>Node2&#45;&gt;Node7</title>
<g id="a_edge6_Node000002_Node000007"><a xlink:title=" ">
<path fill="none" stroke="#63b8ff" d="M826.49,-61.69C892.6,-57.14 1041.48,-45.01 1176.06,-19.3"/>
<polygon fill="#63b8ff" stroke="#63b8ff" points="1176.33,-22.81 1185.48,-17.47 1174.99,-15.94 1176.33,-22.81"/>
</a>
</g>
</g>
<!-- Node8 -->
<g id="Node000008" class="node">
<title>Node8</title>
<g id="a_Node000008"><a xlink:title=" ">
<polygon fill="#e0e0e0" stroke="#999999" points="1299.12,-19.25 1248.62,-19.25 1248.62,0 1299.12,0 1299.12,-19.25"/>
<text text-anchor="middle" x="1273.88" y="-5.75" font-family="Helvetica,sans-Serif" font-size="10.00">typeinfo</text>
</a>
</g>
</g>
<!-- Node2&#45;&gt;Node8 -->
<g id="edge7_Node000002_Node000008" class="edge">
<title>Node2&#45;&gt;Node8</title>
<g id="a_edge7_Node000002_Node000008"><a xlink:title=" ">
<path fill="none" stroke="#63b8ff" d="M826.4,-62.19C900.18,-58.23 1078.8,-46.63 1237.44,-19.44"/>
<polygon fill="#63b8ff" stroke="#63b8ff" points="1237.6,-22.96 1246.85,-17.8 1236.4,-16.06 1237.6,-22.96"/>
</a>
</g>
</g>
<!-- Node9 -->
<g id="Node000009" class="node">
<title>Node9</title>
<g id="a_Node000009"><a xlink:title=" ">
<polygon fill="#e0e0e0" stroke="#999999" points="49.75,-19.25 0,-19.25 0,0 49.75,0 49.75,-19.25"/>
<text text-anchor="middle" x="24.88" y="-5.75" font-family="Helvetica,sans-Serif" font-size="10.00">iomanip</text>
</a>
</g>
</g>
<!-- Node2&#45;&gt;Node9 -->
<g id="edge8_Node000002_Node000009" class="edge">
<title>Node2&#45;&gt;Node9</title>
<g id="a_edge8_Node000002_Node000009"><a xlink:title=" ">
<path fill="none" stroke="#63b8ff" d="M757.28,-64.06C653.26,-64.15 334.19,-60.87 61.34,-19.31"/>
<polygon fill="#63b8ff" stroke="#63b8ff" points="61.93,-15.86 51.51,-17.79 60.86,-22.78 61.93,-15.86"/>
</a>
</g>
</g>
<!-- Node10 -->
<g id="Node000010" class="node">
<title>Node10</title>
<g id="a_Node000010"><a xlink:title=" ">
<polygon fill="#e0e0e0" stroke="#999999" points="110,-19.25 67.75,-19.25 67.75,0 110,0 110,-19.25"/>
<text text-anchor="middle" x="88.88" y="-5.75" font-family="Helvetica,sans-Serif" font-size="10.00">cstdio</text>
</a>
</g>
</g>
<!-- Node2&#45;&gt;Node10 -->
<g id="edge9_Node000002_Node000010" class="edge">
<title>Node2&#45;&gt;Node10</title>
<g id="a_edge9_Node000002_Node000010"><a xlink:title=" ">
<path fill="none" stroke="#63b8ff" d="M757.25,-64.17C658.84,-64.48 369.18,-61.58 121.4,-19.31"/>
<polygon fill="#63b8ff" stroke="#63b8ff" points="122.32,-15.92 111.87,-17.66 121.12,-22.82 122.32,-15.92"/>
</a>
</g>
</g>
<!-- Node11 -->
<g id="Node000011" class="node">
<title>Node11</title>
<g id="a_Node000011"><a xlink:title=" ">
<polygon fill="#e0e0e0" stroke="#999999" points="172.12,-19.25 127.62,-19.25 127.62,0 172.12,0 172.12,-19.25"/>
<text text-anchor="middle" x="149.88" y="-5.75" font-family="Helvetica,sans-Serif" font-size="10.00">cstdlib</text>
</a>
</g>
</g>
<!-- Node2&#45;&gt;Node11 -->
<g id="edge10_Node000002_Node000011" class="edge">
<title>Node2&#45;&gt;Node11</title>
<g id="a_edge10_Node000002_Node000011"><a xlink:title=" ">
<path fill="none" stroke="#63b8ff" d="M757.13,-63.74C664.95,-62.88 406.56,-57.16 183.7,-19.4"/>
<polygon fill="#63b8ff" stroke="#63b8ff" points="184.38,-15.97 173.94,-17.72 183.2,-22.87 184.38,-15.97"/>
</a>
</g>
</g>
<!-- Node2&#45;&gt;Node12 -->
<g id="edge11_Node000002_Node000012" class="edge">
<title>Node2&#45;&gt;Node12</title>
<g id="a_edge11_Node000002_Node000012"><a xlink:title=" ">
<path fill="none" stroke="#63b8ff" d="M826.48,-61.53C923.04,-54.89 1195.05,-35.48 1305.56,-19.34"/>
<polygon fill="#63b8ff" stroke="#63b8ff" points="1305.82,-22.84 1315.18,-17.86 1304.76,-15.92 1305.82,-22.84"/>
</a>
</g>
</g>
<!-- Node2&#45;&gt;Node13 -->
<g id="edge12_Node000002_Node000013" class="edge">
<title>Node2&#45;&gt;Node13</title>
<g id="a_edge12_Node000002_Node000013"><a xlink:title=" ">
<path fill="none" stroke="#63b8ff" d="M826.32,-62.12C932.31,-56.6 1253.52,-38.86 1379.68,-19.21"/>
<polygon fill="#63b8ff" stroke="#63b8ff" points="1380.12,-22.69 1389.42,-17.61 1378.99,-15.78 1380.12,-22.69"/>
</a>
</g>
</g>
<!-- Node14 -->
<g id="Node000014" class="node">
<title>Node14</title>
<g id="a_Node000014"><a xlink:title=" ">
<polygon fill="#e0e0e0" stroke="#999999" points="229.88,-19.25 189.88,-19.25 189.88,0 229.88,0 229.88,-19.25"/>
<text text-anchor="middle" x="209.88" y="-5.75" font-family="Helvetica,sans-Serif" font-size="10.00">cfloat</text>
</a>
</g>
</g>
<!-- Node2&#45;&gt;Node14 -->
<g id="edge13_Node000002_Node000014" class="edge">
<title>Node2&#45;&gt;Node14</title>
<g id="a_edge13_Node000002_Node000014"><a xlink:title=" ">
<path fill="none" stroke="#63b8ff" d="M757.25,-63.58C671.29,-62.31 441.24,-55.7 241.63,-19.38"/>
<polygon fill="#63b8ff" stroke="#63b8ff" points="242.3,-15.94 231.83,-17.56 241.02,-22.83 242.3,-15.94"/>
</a>
</g>
</g>
<!-- Node15 -->
<g id="Node000015" class="node">
<title>Node15</title>
<g id="a_Node000015"><a xlink:title=" ">
<polygon fill="#e0e0e0" stroke="#999999" points="309.38,-19.25 248.38,-19.25 248.38,0 309.38,0 309.38,-19.25"/>
<text text-anchor="middle" x="278.88" y="-5.75" font-family="Helvetica,sans-Serif" font-size="10.00">filesystem</text>
</a>
</g>
</g>
<!-- Node2&#45;&gt;Node15 -->
<g id="edge14_Node000002_Node000015" class="edge">
<title>Node2&#45;&gt;Node15</title>
<g id="a_edge14_Node000002_Node000015"><a xlink:title=" ">
<path fill="none" stroke="#63b8ff" d="M757.28,-62.02C680.62,-57.6 490.51,-45 321.2,-19.42"/>
<polygon fill="#63b8ff" stroke="#63b8ff" points="321.73,-15.96 311.31,-17.9 320.67,-22.88 321.73,-15.96"/>
</a>
</g>
</g>
<!-- Node16 -->
<g id="Node000016" class="node">
<title>Node16</title>
<g id="a_Node000016"><a xlink:title=" ">
<polygon fill="#e0e0e0" stroke="#999999" points="362.25,-19.25 327.5,-19.25 327.5,0 362.25,0 362.25,-19.25"/>
<text text-anchor="middle" x="344.88" y="-5.75" font-family="Helvetica,sans-Serif" font-size="10.00">map</text>
</a>
</g>
</g>
<!-- Node2&#45;&gt;Node16 -->
<g id="edge15_Node000002_Node000016" class="edge">
<title>Node2&#45;&gt;Node16</title>
<g id="a_edge15_Node000002_Node000016"><a xlink:title=" ">
<path fill="none" stroke="#63b8ff" d="M757.21,-62.57C686.64,-59.42 521.21,-49.44 373.78,-19.2"/>
<polygon fill="#63b8ff" stroke="#63b8ff" points="374.73,-15.83 364.23,-17.2 373.3,-22.68 374.73,-15.83"/>
</a>
</g>
</g>
<!-- Node17 -->
<g id="Node000017" class="node">
<title>Node17</title>
<g id="a_Node000017"><a xlink:title=" ">
<polygon fill="#e0e0e0" stroke="#999999" points="439.25,-19.25 380.5,-19.25 380.5,0 439.25,0 439.25,-19.25"/>
<text text-anchor="middle" x="409.88" y="-5.75" font-family="Helvetica,sans-Serif" font-size="10.00">stdexcept</text>
</a>
</g>
</g>
<!-- Node2&#45;&gt;Node17 -->
<g id="edge16_Node000002_Node000017" class="edge">
<title>Node2&#45;&gt;Node17</title>
<g id="a_edge16_Node000002_Node000017"><a xlink:title=" ">
<path fill="none" stroke="#63b8ff" d="M757.53,-60.5C697.33,-54.36 568.63,-40.19 450.7,-19.62"/>
<polygon fill="#63b8ff" stroke="#63b8ff" points="451.64,-16.23 441.18,-17.93 450.42,-23.12 451.64,-16.23"/>
</a>
</g>
</g>
<!-- Node18 -->
<g id="Node000018" class="node">
<title>Node18</title>
<g id="a_Node000018"><a xlink:title=" ">
<polygon fill="#e0e0e0" stroke="#999999" points="508.5,-19.25 457.25,-19.25 457.25,0 508.5,0 508.5,-19.25"/>
<text text-anchor="middle" x="482.88" y="-5.75" font-family="Helvetica,sans-Serif" font-size="10.00">sstream</text>
</a>
</g>
</g>
<!-- Node2&#45;&gt;Node18 -->
<g id="edge17_Node000002_Node000018" class="edge">
<title>Node2&#45;&gt;Node18</title>
<g id="a_edge17_Node000002_Node000018"><a xlink:title=" ">
<path fill="none" stroke="#63b8ff" d="M757.54,-59.19C707.52,-52.16 611.47,-37.93 519.95,-19.53"/>
<polygon fill="#63b8ff" stroke="#63b8ff" points="520.8,-16.13 510.3,-17.56 519.4,-22.99 520.8,-16.13"/>
</a>
</g>
</g>
<!-- Node19 -->
<g id="Node000019" class="node">
<title>Node19</title>
<g id="a_Node000019"><a xlink:title=" ">
<polygon fill="#e0e0e0" stroke="#999999" points="609.25,-19.25 526.5,-19.25 526.5,0 609.25,0 609.25,-19.25"/>
<text text-anchor="middle" x="567.88" y="-5.75" font-family="Helvetica,sans-Serif" font-size="10.00">unordered_map</text>
</a>
</g>
</g>
<!-- Node2&#45;&gt;Node19 -->
<g id="edge18_Node000002_Node000019" class="edge">
<title>Node2&#45;&gt;Node19</title>
<g id="a_edge18_Node000002_Node000019"><a xlink:title=" ">
<path fill="none" stroke="#63b8ff" d="M757.37,-55.67C719.85,-46.75 659.59,-32.43 617.11,-22.33"/>
<polygon fill="#63b8ff" stroke="#63b8ff" points="618.19,-18.99 607.65,-20.08 616.57,-25.8 618.19,-18.99"/>
</a>
</g>
</g>
<!-- Node20 -->
<g id="Node000020" class="node">
<title>Node20</title>
<g id="a_Node000020"><a xlink:title=" ">
<polygon fill="#e0e0e0" stroke="#999999" points="704.62,-19.25 627.12,-19.25 627.12,0 704.62,0 704.62,-19.25"/>
<text text-anchor="middle" x="665.88" y="-5.75" font-family="Helvetica,sans-Serif" font-size="10.00">unordered_set</text>
</a>
</g>
</g>
<!-- Node2&#45;&gt;Node20 -->
<g id="edge19_Node000002_Node000020" class="edge">
<title>Node2&#45;&gt;Node20</title>
<g id="a_edge19_Node000002_Node000020"><a xlink:title=" ">
<path fill="none" stroke="#63b8ff" d="M770.5,-54.84C750.59,-46.43 720.64,-33.77 697.87,-24.15"/>
<polygon fill="#63b8ff" stroke="#63b8ff" points="699.32,-20.96 688.75,-20.29 696.6,-27.41 699.32,-20.96"/>
</a>
</g>
</g>
<!-- Node21 -->
<g id="Node000021" class="node">
<title>Node21</title>
<g id="a_Node000021"><a xlink:title=" ">
<polygon fill="#e0e0e0" stroke="#999999" points="759.38,-19.25 722.38,-19.25 722.38,0 759.38,0 759.38,-19.25"/>
<text text-anchor="middle" x="740.88" y="-5.75" font-family="Helvetica,sans-Serif" font-size="10.00">tuple</text>
</a>
</g>
</g>
<!-- Node2&#45;&gt;Node21 -->
<g id="edge20_Node000002_Node000021" class="edge">
<title>Node2&#45;&gt;Node21</title>
<g id="a_edge20_Node000002_Node000021"><a xlink:title=" ">
<path fill="none" stroke="#63b8ff" d="M783.45,-55.08C776.34,-47.65 765.93,-36.79 757.19,-27.66"/>
<polygon fill="#63b8ff" stroke="#63b8ff" points="759.97,-25.5 750.53,-20.7 754.92,-30.35 759.97,-25.5"/>
</a>
</g>
</g>
<!-- Node22 -->
<g id="Node000022" class="node">
<title>Node22</title>
<g id="a_Node000022"><a xlink:title=" ">
<polygon fill="#e0e0e0" stroke="#999999" points="806.62,-19.25 777.12,-19.25 777.12,0 806.62,0 806.62,-19.25"/>
<text text-anchor="middle" x="791.88" y="-5.75" font-family="Helvetica,sans-Serif" font-size="10.00">set</text>
</a>
</g>
</g>
<!-- Node2&#45;&gt;Node22 -->
<g id="edge21_Node000002_Node000022" class="edge">
<title>Node2&#45;&gt;Node22</title>
<g id="a_edge21_Node000002_Node000022"><a xlink:title=" ">
<path fill="none" stroke="#63b8ff" d="M791.88,-55.08C791.88,-48.57 791.88,-39.42 791.88,-31.12"/>
<polygon fill="#63b8ff" stroke="#63b8ff" points="795.38,-31.12 791.88,-21.12 788.38,-31.12 795.38,-31.12"/>
</a>
</g>
</g>
<!-- Node23 -->
<g id="Node000023" class="node">
<title>Node23</title>
<g id="a_Node000023"><a xlink:title=" ">
<polygon fill="#e0e0e0" stroke="#999999" points="910.75,-19.25 825,-19.25 825,0 910.75,0 910.75,-19.25"/>
<text text-anchor="middle" x="867.88" y="-5.75" font-family="Helvetica,sans-Serif" font-size="10.00">boost/regex.hpp</text>
</a>
</g>
</g>
<!-- Node2&#45;&gt;Node23 -->
<g id="edge22_Node000002_Node000023" class="edge">
<title>Node2&#45;&gt;Node23</title>
<g id="a_edge22_Node000002_Node000023"><a xlink:title=" ">
<path fill="none" stroke="#63b8ff" d="M804.77,-54.84C815.9,-47.04 832.25,-35.59 845.51,-26.29"/>
<polygon fill="#63b8ff" stroke="#63b8ff" points="847.5,-29.18 853.68,-20.57 843.48,-23.44 847.5,-29.18"/>
</a>
</g>
</g>
<!-- Node24&#45;&gt;Node2 -->
<g id="edge24_Node000024_Node000002" class="edge">
<title>Node24&#45;&gt;Node2</title>
<g id="a_edge24_Node000024_Node000002"><a xlink:title=" ">
<path fill="none" stroke="#63b8ff" d="M872.77,-165.29C872.2,-152.1 869.51,-127.38 857.88,-110.5 849.08,-97.74 835.34,-87.6 822.67,-80.23"/>
<polygon fill="#63b8ff" stroke="#63b8ff" points="824.64,-77.32 814.18,-75.64 821.31,-83.48 824.64,-77.32"/>
</a>
</g>
</g>
<!-- Node24&#45;&gt;Node25 -->
<g id="edge25_Node000024_Node000025" class="edge">
<title>Node24&#45;&gt;Node25</title>
<g id="a_edge25_Node000024_Node000025"><a xlink:title=" ">
<path fill="none" stroke="#63b8ff" d="M864.12,-165.58C856.73,-158.15 845.91,-147.29 836.83,-138.16"/>
<polygon fill="#63b8ff" stroke="#63b8ff" points="839.42,-135.8 829.88,-131.18 834.46,-140.74 839.42,-135.8"/>
</a>
</g>
</g>
<!-- Node25&#45;&gt;Node2 -->
<g id="edge26_Node000025_Node000002" class="edge">
<title>Node25&#45;&gt;Node2</title>
<g id="a_edge26_Node000025_Node000002"><a xlink:title=" ">
<path fill="none" stroke="#63b8ff" d="M815.25,-110.33C811.63,-103.44 806.45,-93.59 801.88,-84.91"/>
<polygon fill="#63b8ff" stroke="#63b8ff" points="805.06,-83.42 797.3,-76.2 798.86,-86.68 805.06,-83.42"/>
</a>
</g>
</g>
<!-- Node26&#45;&gt;Node2 -->
<g id="edge29_Node000026_Node000002" class="edge">
<title>Node26&#45;&gt;Node2</title>
<g id="a_edge29_Node000026_Node000002"><a xlink:title=" ">
<path fill="none" stroke="#63b8ff" d="M768.92,-165.5C772.89,-148.25 781.75,-109.83 787.22,-86.06"/>
<polygon fill="#63b8ff" stroke="#63b8ff" points="790.63,-86.88 789.46,-76.35 783.81,-85.31 790.63,-86.88"/>
</a>
</g>
</g>
<!-- Node26&#45;&gt;Node25 -->
<g id="edge30_Node000026_Node000025" class="edge">
<title>Node26&#45;&gt;Node25</title>
<g id="a_edge30_Node000026_Node000025"><a xlink:title=" ">
<path fill="none" stroke="#63b8ff" d="M775.63,-165.58C783.02,-158.15 793.84,-147.29 802.92,-138.16"/>
<polygon fill="#63b8ff" stroke="#63b8ff" points="805.29,-140.74 809.87,-131.18 800.33,-135.8 805.29,-140.74"/>
</a>
</g>
</g>
</g>
</svg>
