<?xml version="1.0" encoding="UTF-8" standalone="no"?>
<!DOCTYPE svg PUBLIC "-//W3C//DTD SVG 1.1//EN"
 "http://www.w3.org/Graphics/SVG/1.1/DTD/svg11.dtd">
<!-- Generated by graphviz version 12.2.1 (20241206.2353)
 -->
<!-- Title: Second_Order_Limiter Pages: 1 -->
<svg width="447pt" height="101pt"
 viewBox="0.00 0.00 446.75 101.25" xmlns="http://www.w3.org/2000/svg" xmlns:xlink="http://www.w3.org/1999/xlink">
<g id="graph0" class="graph" transform="scale(1 1) rotate(0) translate(4 97.25)">
<title>Second_Order_Limiter</title>
<!-- Node1 -->
<g id="Node000001" class="node">
<title>Node1</title>
<g id="a_Node000001"><a xlink:title="Computes the second&#45;order limited slopes and reconstructs variables for a given cell and face.">
<polygon fill="#999999" stroke="#666666" points="438.75,-56.25 326,-56.25 326,-37 438.75,-37 438.75,-56.25"/>
<text text-anchor="middle" x="382.38" y="-42.75" font-family="Helvetica,sans-Serif" font-size="10.00">Second_Order_Limiter</text>
</a>
</g>
</g>
<!-- Node2 -->
<g id="Node000002" class="node">
<title>Node2</title>
<g id="a_Node000002"><a xlink:href="../../de/d88/_l_l_f_8cpp_a3f7724701b89e020e5e2cb9aee42ca55.html#a3f7724701b89e020e5e2cb9aee42ca55" target="_top" xlink:title=" ">
<polygon fill="white" stroke="#666666" points="258.12,-93.25 207.62,-93.25 207.62,-74 258.12,-74 258.12,-93.25"/>
<text text-anchor="middle" x="232.88" y="-79.75" font-family="Helvetica,sans-Serif" font-size="10.00">LLF_2O</text>
</a>
</g>
</g>
<!-- Node1&#45;&gt;Node2 -->
<g id="edge1_Node000001_Node000002" class="edge">
<title>Node1&#45;&gt;Node2</title>
<g id="a_edge1_Node000001_Node000002"><a xlink:title=" ">
<path fill="none" stroke="#63b8ff" d="M330.19,-59.46C305.87,-65.57 277.92,-72.58 258.42,-77.47"/>
<polygon fill="#63b8ff" stroke="#63b8ff" points="330.75,-62.93 339.6,-57.1 329.05,-56.14 330.75,-62.93"/>
</a>
</g>
</g>
<!-- Node4 -->
<g id="Node000004" class="node">
<title>Node4</title>
<g id="a_Node000004"><a xlink:href="../../d9/d99/_m_o_v_e_r_s___n_w_s_c_8cpp_a52270c83adc7b5111fd5b794d1d2f99a.html#a52270c83adc7b5111fd5b794d1d2f99a" target="_top" xlink:title=" ">
<polygon fill="white" stroke="#666666" points="290,-56.25 175.75,-56.25 175.75,-37 290,-37 290,-56.25"/>
<text text-anchor="middle" x="232.88" y="-42.75" font-family="Helvetica,sans-Serif" font-size="10.00">MOVERS_NWSC_2O</text>
</a>
</g>
</g>
<!-- Node1&#45;&gt;Node4 -->
<g id="edge3_Node000001_Node000004" class="edge">
<title>Node1&#45;&gt;Node4</title>
<g id="a_edge3_Node000001_Node000004"><a xlink:title=" ">
<path fill="none" stroke="#63b8ff" d="M314.33,-46.62C306.26,-46.62 298.09,-46.62 290.21,-46.62"/>
<polygon fill="#63b8ff" stroke="#63b8ff" points="314.1,-50.13 324.1,-46.63 314.1,-43.13 314.1,-50.13"/>
</a>
</g>
</g>
<!-- Node5 -->
<g id="Node000005" class="node">
<title>Node5</title>
<g id="a_Node000005"><a xlink:href="../../d6/d22/_r_i_c_c_a_8cpp_a8c2c0508c9bf49dfb9aab35d82f560ce.html#a8c2c0508c9bf49dfb9aab35d82f560ce" target="_top" xlink:title="Computes the dissipative flux for a given cell and face using the second&#45;order RICCA method.">
<polygon fill="white" stroke="#666666" points="266,-19.25 199.75,-19.25 199.75,0 266,0 266,-19.25"/>
<text text-anchor="middle" x="232.88" y="-5.75" font-family="Helvetica,sans-Serif" font-size="10.00">RICCA_2O</text>
</a>
</g>
</g>
<!-- Node1&#45;&gt;Node5 -->
<g id="edge5_Node000001_Node000005" class="edge">
<title>Node1&#45;&gt;Node5</title>
<g id="a_edge5_Node000001_Node000005"><a xlink:title=" ">
<path fill="none" stroke="#63b8ff" d="M329.96,-33.73C308.77,-28.41 284.86,-22.42 266.2,-17.73"/>
<polygon fill="#63b8ff" stroke="#63b8ff" points="329.05,-37.11 339.6,-36.15 330.75,-30.32 329.05,-37.11"/>
</a>
</g>
</g>
<!-- Node3 -->
<g id="Node000003" class="node">
<title>Node3</title>
<g id="a_Node000003"><a xlink:href="../../d9/ddd/_c_u_d_a___integrated___numerical___method_8cpp_a4db2fe24c2a78f98ac91e9d7d271430f.html#a4db2fe24c2a78f98ac91e9d7d271430f" target="_top" xlink:title=" ">
<polygon fill="white" stroke="#666666" points="139.75,-56.25 0,-56.25 0,-37 139.75,-37 139.75,-56.25"/>
<text text-anchor="middle" x="69.88" y="-42.75" font-family="Helvetica,sans-Serif" font-size="10.00">Evaluate_Cell_Net_Flux_2O</text>
</a>
</g>
</g>
<!-- Node2&#45;&gt;Node3 -->
<g id="edge2_Node000002_Node000003" class="edge">
<title>Node2&#45;&gt;Node3</title>
<g id="a_edge2_Node000002_Node000003"><a xlink:title=" ">
<path fill="none" stroke="#63b8ff" d="M196.31,-75.45C172.26,-69.93 140.35,-62.59 114.72,-56.7"/>
<polygon fill="#63b8ff" stroke="#63b8ff" points="195.42,-78.84 205.95,-77.67 196.99,-72.02 195.42,-78.84"/>
</a>
</g>
</g>
<!-- Node4&#45;&gt;Node3 -->
<g id="edge4_Node000004_Node000003" class="edge">
<title>Node4&#45;&gt;Node3</title>
<g id="a_edge4_Node000004_Node000003"><a xlink:title=" ">
<path fill="none" stroke="#63b8ff" d="M164.12,-46.62C156.21,-46.62 148.12,-46.62 140.18,-46.62"/>
<polygon fill="#63b8ff" stroke="#63b8ff" points="164.05,-50.13 174.05,-46.63 164.05,-43.13 164.05,-50.13"/>
</a>
</g>
</g>
<!-- Node5&#45;&gt;Node3 -->
<g id="edge6_Node000005_Node000003" class="edge">
<title>Node5&#45;&gt;Node3</title>
<g id="a_edge6_Node000005_Node000003"><a xlink:title=" ">
<path fill="none" stroke="#63b8ff" d="M188.21,-19.66C165.39,-24.9 137.54,-31.3 114.7,-36.55"/>
<polygon fill="#63b8ff" stroke="#63b8ff" points="188.86,-23.1 197.82,-17.45 187.29,-16.28 188.86,-23.1"/>
</a>
</g>
</g>
</g>
</svg>
