<?xml version="1.0" encoding="UTF-8" standalone="no"?>
<!DOCTYPE svg PUBLIC "-//W3C//DTD SVG 1.1//EN"
 "http://www.w3.org/Graphics/SVG/1.1/DTD/svg11.dtd">
<!-- Generated by graphviz version 12.2.1 (20241206.2353)
 -->
<!-- Title: Parallel_Method_Kernels/Parallel_Numerical_Method.cpp Pages: 1 -->
<svg width="240pt" height="94pt"
 viewBox="0.00 0.00 240.12 93.75" xmlns="http://www.w3.org/2000/svg" xmlns:xlink="http://www.w3.org/1999/xlink">
<g id="graph0" class="graph" transform="scale(1 1) rotate(0) translate(4 89.75)">
<title>Parallel_Method_Kernels/Parallel_Numerical_Method.cpp</title>
<!-- Node1 -->
<g id="Node000001" class="node">
<title>Node1</title>
<g id="a_Node000001"><a xlink:title=" ">
<polygon fill="#999999" stroke="#666666" points="206.25,-85.75 49.25,-85.75 49.25,-55.25 206.25,-55.25 206.25,-85.75"/>
<text text-anchor="start" x="57.25" y="-72.25" font-family="Helvetica,sans-Serif" font-size="10.00">Parallel_Method_Kernels</text>
<text text-anchor="middle" x="127.75" y="-61" font-family="Helvetica,sans-Serif" font-size="10.00">/Parallel_Numerical_Method.cpp</text>
</a>
</g>
</g>
<!-- Node2 -->
<g id="Node000002" class="node">
<title>Node2</title>
<g id="a_Node000002"><a xlink:title=" ">
<polygon fill="#e0e0e0" stroke="#999999" points="131.5,-19.25 0,-19.25 0,0 131.5,0 131.5,-19.25"/>
<text text-anchor="middle" x="65.75" y="-5.75" font-family="Helvetica,sans-Serif" font-size="10.00">../Basic_Files/definitions.h</text>
</a>
</g>
</g>
<!-- Node1&#45;&gt;Node2 -->
<g id="edge1_Node000001_Node000002" class="edge">
<title>Node1&#45;&gt;Node2</title>
<g id="a_edge1_Node000001_Node000002"><a xlink:title=" ">
<path fill="none" stroke="#63b8ff" d="M112.42,-54.95C103.71,-46.67 92.75,-36.27 83.65,-27.62"/>
<polygon fill="#63b8ff" stroke="#63b8ff" points="86.07,-25.09 76.41,-20.74 81.25,-30.17 86.07,-25.09"/>
</a>
</g>
</g>
<!-- Node3 -->
<g id="Node000003" class="node">
<title>Node3</title>
<g id="a_Node000003"><a xlink:title=" ">
<polygon fill="#e0e0e0" stroke="#999999" points="232.12,-19.25 149.38,-19.25 149.38,0 232.12,0 232.12,-19.25"/>
<text text-anchor="middle" x="190.75" y="-5.75" font-family="Helvetica,sans-Serif" font-size="10.00">cuda_runtime.h</text>
</a>
</g>
</g>
<!-- Node1&#45;&gt;Node3 -->
<g id="edge2_Node000001_Node000003" class="edge">
<title>Node1&#45;&gt;Node3</title>
<g id="a_edge2_Node000001_Node000003"><a xlink:title=" ">
<path fill="none" stroke="#63b8ff" d="M143.32,-54.95C152.27,-46.59 163.54,-36.05 172.85,-27.35"/>
<polygon fill="#63b8ff" stroke="#63b8ff" points="175.02,-30.12 179.93,-20.73 170.24,-25.01 175.02,-30.12"/>
</a>
</g>
</g>
</g>
</svg>
