<?xml version="1.0" encoding="UTF-8" standalone="no"?>
<!DOCTYPE svg PUBLIC "-//W3C//DTD SVG 1.1//EN"
 "http://www.w3.org/Graphics/SVG/1.1/DTD/svg11.dtd">
<!-- Generated by graphviz version 12.2.1 (20241206.2353)
 -->
<!-- Title: removeImageFromAllImages Pages: 1 -->
<svg width="651pt" height="27pt"
 viewBox="0.00 0.00 651.25 27.25" xmlns="http://www.w3.org/2000/svg" xmlns:xlink="http://www.w3.org/1999/xlink">
<g id="graph0" class="graph" transform="scale(1 1) rotate(0) translate(4 23.25)">
<title>removeImageFromAllImages</title>
<!-- Node1 -->
<g id="Node000001" class="node">
<title>Node1</title>
<g id="a_Node000001"><a xlink:title=" ">
<polygon fill="#999999" stroke="#666666" points="643.25,-19.25 502,-19.25 502,0 643.25,0 643.25,-19.25"/>
<text text-anchor="middle" x="572.62" y="-5.75" font-family="Helvetica,sans-Serif" font-size="10.00">removeImageFromAllImages</text>
</a>
</g>
</g>
<!-- Node2 -->
<g id="Node000002" class="node">
<title>Node2</title>
<g id="a_Node000002"><a xlink:href="../../db/d2b/namespacedyld_a2270ae9df42e73fab62a4111a9414dae.html#a2270ae9df42e73fab62a4111a9414dae" target="_top" xlink:title=" ">
<polygon fill="white" stroke="#666666" points="466,-19.25 366.75,-19.25 366.75,0 466,0 466,-19.25"/>
<text text-anchor="middle" x="416.38" y="-5.75" font-family="Helvetica,sans-Serif" font-size="10.00">dyld::removeImage</text>
</a>
</g>
</g>
<!-- Node1&#45;&gt;Node2 -->
<g id="edge1_Node000001_Node000002" class="edge">
<title>Node1&#45;&gt;Node2</title>
<g id="a_edge1_Node000001_Node000002"><a xlink:title=" ">
<path fill="none" stroke="#63b8ff" d="M490.48,-9.62C482.24,-9.62 474.05,-9.62 466.31,-9.62"/>
<polygon fill="#63b8ff" stroke="#63b8ff" points="490.21,-13.13 500.21,-9.63 490.21,-6.13 490.21,-13.13"/>
</a>
</g>
</g>
<!-- Node3 -->
<g id="Node000003" class="node">
<title>Node3</title>
<g id="a_Node000003"><a xlink:href="../../db/d2b/namespacedyld_aa60e038a9d913b248fff388b2167697b.html#aa60e038a9d913b248fff388b2167697b" target="_top" xlink:title=" ">
<polygon fill="white" stroke="#666666" points="330.75,-19.25 193.25,-19.25 193.25,0 330.75,0 330.75,-19.25"/>
<text text-anchor="middle" x="262" y="-5.75" font-family="Helvetica,sans-Serif" font-size="10.00">dyld::garbageCollectImages</text>
</a>
</g>
</g>
<!-- Node2&#45;&gt;Node3 -->
<g id="edge2_Node000002_Node000003" class="edge">
<title>Node2&#45;&gt;Node3</title>
<g id="a_edge2_Node000002_Node000003"><a xlink:title=" ">
<path fill="none" stroke="#63b8ff" d="M355.03,-9.62C347.17,-9.62 339.08,-9.62 331.11,-9.62"/>
<polygon fill="#63b8ff" stroke="#63b8ff" points="354.81,-13.13 364.81,-9.63 354.81,-6.13 354.81,-13.13"/>
</a>
</g>
</g>
<!-- Node4 -->
<g id="Node000004" class="node">
<title>Node4</title>
<g id="a_Node000004"><a xlink:href="../../db/d2b/namespacedyld_ae0c6e435c15c51dd9dc6908f0eb03f72.html#ae0c6e435c15c51dd9dc6908f0eb03f72" target="_top" xlink:title=" ">
<polygon fill="white" stroke="#666666" points="157.25,-19.25 102.25,-19.25 102.25,0 157.25,0 157.25,-19.25"/>
<text text-anchor="middle" x="129.75" y="-5.75" font-family="Helvetica,sans-Serif" font-size="10.00">dyld::link</text>
</a>
</g>
</g>
<!-- Node3&#45;&gt;Node4 -->
<g id="edge3_Node000003_Node000004" class="edge">
<title>Node3&#45;&gt;Node4</title>
<g id="a_edge3_Node000003_Node000004"><a xlink:title=" ">
<path fill="none" stroke="#63b8ff" d="M181.44,-9.62C172.9,-9.62 164.7,-9.62 157.48,-9.62"/>
<polygon fill="#63b8ff" stroke="#63b8ff" points="181.31,-13.13 191.31,-9.63 181.31,-6.13 181.31,-13.13"/>
</a>
</g>
</g>
<!-- Node5 -->
<g id="Node000005" class="node">
<title>Node5</title>
<g id="a_Node000005"><a xlink:href="../../db/d2b/namespacedyld_a2d754a57a39bd1febd871dbff9efe75d.html#a2d754a57a39bd1febd871dbff9efe75d" target="_top" xlink:title=" ">
<polygon fill="white" stroke="#666666" points="66.25,-19.25 0,-19.25 0,0 66.25,0 66.25,-19.25"/>
<text text-anchor="middle" x="33.12" y="-5.75" font-family="Helvetica,sans-Serif" font-size="10.00">dyld::_main</text>
</a>
</g>
</g>
<!-- Node4&#45;&gt;Node5 -->
<g id="edge4_Node000004_Node000005" class="edge">
<title>Node4&#45;&gt;Node5</title>
<g id="a_edge4_Node000004_Node000005"><a xlink:title=" ">
<path fill="none" stroke="#63b8ff" d="M90.54,-9.62C82.54,-9.62 74.19,-9.62 66.43,-9.62"/>
<polygon fill="#63b8ff" stroke="#63b8ff" points="90.37,-13.13 100.37,-9.63 90.37,-6.13 90.37,-13.13"/>
</a>
</g>
</g>
</g>
</svg>
