<?xml version="1.0" encoding="UTF-8" standalone="no"?>
<!DOCTYPE svg PUBLIC "-//W3C//DTD SVG 1.1//EN"
 "http://www.w3.org/Graphics/SVG/1.1/DTD/svg11.dtd">
<!-- Generated by graphviz version 12.2.1 (20241206.2353)
 -->
<!-- Title: Basic_Function_Files/gnuplot_i.cpp Pages: 1 -->
<svg width="765pt" height="149pt"
 viewBox="0.00 0.00 765.00 149.00" xmlns="http://www.w3.org/2000/svg" xmlns:xlink="http://www.w3.org/1999/xlink">
<g id="graph0" class="graph" transform="scale(1 1) rotate(0) translate(4 145)">
<title>Basic_Function_Files/gnuplot_i.cpp</title>
<!-- Node1 -->
<g id="Node000001" class="node">
<title>Node1</title>
<g id="a_Node000001"><a xlink:title=" ">
<polygon fill="#999999" stroke="#666666" points="431.5,-141 321.75,-141 321.75,-110.5 431.5,-110.5 431.5,-141"/>
<text text-anchor="start" x="329.75" y="-127.5" font-family="Helvetica,sans-Serif" font-size="10.00">Basic_Function_Files</text>
<text text-anchor="middle" x="376.62" y="-116.25" font-family="Helvetica,sans-Serif" font-size="10.00">/gnuplot_i.cpp</text>
</a>
</g>
</g>
<!-- Node2 -->
<g id="Node000002" class="node">
<title>Node2</title>
<g id="a_Node000002"><a xlink:href="../../d1/dd8/gnuplot__i_8hpp.html" target="_top" xlink:title=" ">
<polygon fill="white" stroke="#666666" points="413.5,-74.5 339.75,-74.5 339.75,-55.25 413.5,-55.25 413.5,-74.5"/>
<text text-anchor="middle" x="376.62" y="-61" font-family="Helvetica,sans-Serif" font-size="10.00">gnuplot_i.hpp</text>
</a>
</g>
</g>
<!-- Node1&#45;&gt;Node2 -->
<g id="edge1_Node000001_Node000002" class="edge">
<title>Node1&#45;&gt;Node2</title>
<g id="a_edge1_Node000001_Node000002"><a xlink:title=" ">
<path fill="none" stroke="#63b8ff" d="M376.62,-110.2C376.62,-102.96 376.62,-94.09 376.62,-86.19"/>
<polygon fill="#63b8ff" stroke="#63b8ff" points="380.13,-86.46 376.63,-76.46 373.13,-86.46 380.13,-86.46"/>
</a>
</g>
</g>
<!-- Node3 -->
<g id="Node000003" class="node">
<title>Node3</title>
<g id="a_Node000003"><a xlink:title=" ">
<polygon fill="#e0e0e0" stroke="#999999" points="51.25,-19.25 0,-19.25 0,0 51.25,0 51.25,-19.25"/>
<text text-anchor="middle" x="25.62" y="-5.75" font-family="Helvetica,sans-Serif" font-size="10.00">stdarg.h</text>
</a>
</g>
</g>
<!-- Node2&#45;&gt;Node3 -->
<g id="edge2_Node000002_Node000003" class="edge">
<title>Node2&#45;&gt;Node3</title>
<g id="a_edge2_Node000002_Node000003"><a xlink:title=" ">
<path fill="none" stroke="#63b8ff" d="M339.45,-59.86C282.2,-53.42 168.81,-39.59 62.78,-19.48"/>
<polygon fill="#63b8ff" stroke="#63b8ff" points="63.52,-16.06 53.04,-17.61 62.2,-22.94 63.52,-16.06"/>
</a>
</g>
</g>
<!-- Node4 -->
<g id="Node000004" class="node">
<title>Node4</title>
<g id="a_Node000004"><a xlink:title=" ">
<polygon fill="#e0e0e0" stroke="#999999" points="119.88,-19.25 69.38,-19.25 69.38,0 119.88,0 119.88,-19.25"/>
<text text-anchor="middle" x="94.62" y="-5.75" font-family="Helvetica,sans-Serif" font-size="10.00">unistd.h</text>
</a>
</g>
</g>
<!-- Node2&#45;&gt;Node4 -->
<g id="edge3_Node000002_Node000004" class="edge">
<title>Node2&#45;&gt;Node4</title>
<g id="a_edge3_Node000002_Node000004"><a xlink:title=" ">
<path fill="none" stroke="#63b8ff" d="M339.66,-57.94C293.32,-50.34 211.22,-36.34 130.99,-19.42"/>
<polygon fill="#63b8ff" stroke="#63b8ff" points="132.19,-16.1 121.68,-17.44 130.73,-22.94 132.19,-16.1"/>
</a>
</g>
</g>
<!-- Node5 -->
<g id="Node000005" class="node">
<title>Node5</title>
<g id="a_Node000005"><a xlink:title=" ">
<polygon fill="#e0e0e0" stroke="#999999" points="182.88,-19.25 138.38,-19.25 138.38,0 182.88,0 182.88,-19.25"/>
<text text-anchor="middle" x="160.62" y="-5.75" font-family="Helvetica,sans-Serif" font-size="10.00">cstdlib</text>
</a>
</g>
</g>
<!-- Node2&#45;&gt;Node5 -->
<g id="edge4_Node000002_Node000005" class="edge">
<title>Node2&#45;&gt;Node5</title>
<g id="a_edge4_Node000002_Node000005"><a xlink:title=" ">
<path fill="none" stroke="#63b8ff" d="M339.32,-55.28C304.23,-47.1 249.95,-34.23 194.41,-19.91"/>
<polygon fill="#63b8ff" stroke="#63b8ff" points="195.31,-16.53 184.75,-17.41 193.55,-23.3 195.31,-16.53"/>
</a>
</g>
</g>
<!-- Node6 -->
<g id="Node000006" class="node">
<title>Node6</title>
<g id="a_Node000006"><a xlink:title=" ">
<polygon fill="#e0e0e0" stroke="#999999" points="242.75,-19.25 200.5,-19.25 200.5,0 242.75,0 242.75,-19.25"/>
<text text-anchor="middle" x="221.62" y="-5.75" font-family="Helvetica,sans-Serif" font-size="10.00">cstdio</text>
</a>
</g>
</g>
<!-- Node2&#45;&gt;Node6 -->
<g id="edge5_Node000002_Node000006" class="edge">
<title>Node2&#45;&gt;Node6</title>
<g id="a_edge5_Node000002_Node000006"><a xlink:title=" ">
<path fill="none" stroke="#63b8ff" d="M350.33,-54.84C323.64,-45.67 282.29,-31.47 253.7,-21.64"/>
<polygon fill="#63b8ff" stroke="#63b8ff" points="255.07,-18.42 244.48,-18.48 252.8,-25.04 255.07,-18.42"/>
</a>
</g>
</g>
<!-- Node7 -->
<g id="Node000007" class="node">
<title>Node7</title>
<g id="a_Node000007"><a xlink:title=" ">
<polygon fill="#e0e0e0" stroke="#999999" points="306.25,-19.25 261,-19.25 261,0 306.25,0 306.25,-19.25"/>
<text text-anchor="middle" x="283.62" y="-5.75" font-family="Helvetica,sans-Serif" font-size="10.00">cstring</text>
</a>
</g>
</g>
<!-- Node2&#45;&gt;Node7 -->
<g id="edge6_Node000002_Node000007" class="edge">
<title>Node2&#45;&gt;Node7</title>
<g id="a_edge6_Node000002_Node000007"><a xlink:title=" ">
<path fill="none" stroke="#63b8ff" d="M360.85,-54.84C346.69,-46.73 325.64,-34.68 309.1,-25.21"/>
<polygon fill="#63b8ff" stroke="#63b8ff" points="311.21,-22.39 300.79,-20.45 307.73,-28.46 311.21,-22.39"/>
</a>
</g>
</g>
<!-- Node8 -->
<g id="Node000008" class="node">
<title>Node8</title>
<g id="a_Node000008"><a xlink:title=" ">
<polygon fill="#e0e0e0" stroke="#999999" points="364.62,-19.25 324.62,-19.25 324.62,0 364.62,0 364.62,-19.25"/>
<text text-anchor="middle" x="344.62" y="-5.75" font-family="Helvetica,sans-Serif" font-size="10.00">string</text>
</a>
</g>
</g>
<!-- Node2&#45;&gt;Node8 -->
<g id="edge7_Node000002_Node000008" class="edge">
<title>Node2&#45;&gt;Node8</title>
<g id="a_edge7_Node000002_Node000008"><a xlink:title=" ">
<path fill="none" stroke="#63b8ff" d="M371.34,-55.08C367.15,-48.11 361.15,-38.12 355.89,-29.37"/>
<polygon fill="#63b8ff" stroke="#63b8ff" points="358.95,-27.68 350.8,-20.91 352.95,-31.28 358.95,-27.68"/>
</a>
</g>
</g>
<!-- Node9 -->
<g id="Node000009" class="node">
<title>Node9</title>
<g id="a_Node000009"><a xlink:title=" ">
<polygon fill="#e0e0e0" stroke="#999999" points="436.38,-19.25 382.88,-19.25 382.88,0 436.38,0 436.38,-19.25"/>
<text text-anchor="middle" x="409.62" y="-5.75" font-family="Helvetica,sans-Serif" font-size="10.00">iostream</text>
</a>
</g>
</g>
<!-- Node2&#45;&gt;Node9 -->
<g id="edge8_Node000002_Node000009" class="edge">
<title>Node2&#45;&gt;Node9</title>
<g id="a_edge8_Node000002_Node000009"><a xlink:title=" ">
<path fill="none" stroke="#63b8ff" d="M382.07,-55.08C386.4,-48.11 392.59,-38.12 398.01,-29.37"/>
<polygon fill="#63b8ff" stroke="#63b8ff" points="400.97,-31.24 403.26,-20.9 395.02,-27.55 400.97,-31.24"/>
</a>
</g>
</g>
<!-- Node10 -->
<g id="Node000010" class="node">
<title>Node10</title>
<g id="a_Node000010"><a xlink:title=" ">
<polygon fill="#e0e0e0" stroke="#999999" points="503.12,-19.25 454.12,-19.25 454.12,0 503.12,0 503.12,-19.25"/>
<text text-anchor="middle" x="478.62" y="-5.75" font-family="Helvetica,sans-Serif" font-size="10.00">fstream</text>
</a>
</g>
</g>
<!-- Node2&#45;&gt;Node10 -->
<g id="edge9_Node000002_Node000010" class="edge">
<title>Node2&#45;&gt;Node10</title>
<g id="a_edge9_Node000002_Node000010"><a xlink:title=" ">
<path fill="none" stroke="#63b8ff" d="M393.93,-54.84C409.61,-46.66 432.98,-34.46 451.2,-24.94"/>
<polygon fill="#63b8ff" stroke="#63b8ff" points="452.65,-28.13 459.9,-20.4 449.41,-21.93 452.65,-28.13"/>
</a>
</g>
</g>
<!-- Node11 -->
<g id="Node000011" class="node">
<title>Node11</title>
<g id="a_Node000011"><a xlink:title=" ">
<polygon fill="#e0e0e0" stroke="#999999" points="572.25,-19.25 521,-19.25 521,0 572.25,0 572.25,-19.25"/>
<text text-anchor="middle" x="546.62" y="-5.75" font-family="Helvetica,sans-Serif" font-size="10.00">sstream</text>
</a>
</g>
</g>
<!-- Node2&#45;&gt;Node11 -->
<g id="edge10_Node000002_Node000011" class="edge">
<title>Node2&#45;&gt;Node11</title>
<g id="a_edge10_Node000002_Node000011"><a xlink:title=" ">
<path fill="none" stroke="#63b8ff" d="M405.46,-54.84C434.23,-45.83 478.54,-31.95 509.83,-22.15"/>
<polygon fill="#63b8ff" stroke="#63b8ff" points="510.77,-25.52 519.27,-19.19 508.68,-18.84 510.77,-25.52"/>
</a>
</g>
</g>
<!-- Node12 -->
<g id="Node000012" class="node">
<title>Node12</title>
<g id="a_Node000012"><a xlink:title=" ">
<polygon fill="#e0e0e0" stroke="#999999" points="619.02,-19.25 590.23,-19.25 590.23,0 619.02,0 619.02,-19.25"/>
<text text-anchor="middle" x="604.62" y="-5.75" font-family="Helvetica,sans-Serif" font-size="10.00">list</text>
</a>
</g>
</g>
<!-- Node2&#45;&gt;Node12 -->
<g id="edge11_Node000002_Node000012" class="edge">
<title>Node2&#45;&gt;Node12</title>
<g id="a_edge11_Node000002_Node000012"><a xlink:title=" ">
<path fill="none" stroke="#63b8ff" d="M413.69,-57.48C452.8,-50.36 516.37,-37.76 579.23,-19.63"/>
<polygon fill="#63b8ff" stroke="#63b8ff" points="580.07,-23.03 588.68,-16.85 578.1,-16.31 580.07,-23.03"/>
</a>
</g>
</g>
<!-- Node13 -->
<g id="Node000013" class="node">
<title>Node13</title>
<g id="a_Node000013"><a xlink:title=" ">
<polygon fill="#e0e0e0" stroke="#999999" points="680.12,-19.25 637.12,-19.25 637.12,0 680.12,0 680.12,-19.25"/>
<text text-anchor="middle" x="658.62" y="-5.75" font-family="Helvetica,sans-Serif" font-size="10.00">vector</text>
</a>
</g>
</g>
<!-- Node2&#45;&gt;Node13 -->
<g id="edge12_Node000002_Node000013" class="edge">
<title>Node2&#45;&gt;Node13</title>
<g id="a_edge12_Node000002_Node000013"><a xlink:title=" ">
<path fill="none" stroke="#63b8ff" d="M413.85,-58.39C460.94,-51.21 544.72,-37.61 625.78,-19.48"/>
<polygon fill="#63b8ff" stroke="#63b8ff" points="626.22,-22.97 635.2,-17.35 624.67,-16.14 626.22,-22.97"/>
</a>
</g>
</g>
<!-- Node14 -->
<g id="Node000014" class="node">
<title>Node14</title>
<g id="a_Node000014"><a xlink:title=" ">
<polygon fill="#e0e0e0" stroke="#999999" points="757,-19.25 698.25,-19.25 698.25,0 757,0 757,-19.25"/>
<text text-anchor="middle" x="727.62" y="-5.75" font-family="Helvetica,sans-Serif" font-size="10.00">stdexcept</text>
</a>
</g>
</g>
<!-- Node2&#45;&gt;Node14 -->
<g id="edge13_Node000002_Node000014" class="edge">
<title>Node2&#45;&gt;Node14</title>
<g id="a_edge13_Node000002_Node000014"><a xlink:title=" ">
<path fill="none" stroke="#63b8ff" d="M413.88,-59.56C470.69,-52.77 582.58,-38.54 686.77,-19.66"/>
<polygon fill="#63b8ff" stroke="#63b8ff" points="687.11,-23.15 696.31,-17.91 685.85,-16.27 687.11,-23.15"/>
</a>
</g>
</g>
</g>
</svg>
