<?xml version="1.0" encoding="UTF-8" standalone="no"?>
<!DOCTYPE svg PUBLIC "-//W3C//DTD SVG 1.1//EN"
 "http://www.w3.org/Graphics/SVG/1.1/DTD/svg11.dtd">
<!-- Generated by graphviz version 12.2.1 (20241206.2353)
 -->
<!-- Title: Shock_Reflection_2D Pages: 1 -->
<svg width="678pt" height="331pt"
 viewBox="0.00 0.00 677.50 330.50" xmlns="http://www.w3.org/2000/svg" xmlns:xlink="http://www.w3.org/1999/xlink">
<g id="graph0" class="graph" transform="scale(1 1) rotate(0) translate(4 326.5)">
<title>Shock_Reflection_2D</title>
<!-- Node1 -->
<g id="Node000001" class="node">
<title>Node1</title>
<g id="a_Node000001"><a xlink:title=" ">
<polygon fill="#999999" stroke="#666666" points="111.25,-168.88 0,-168.88 0,-149.62 111.25,-149.62 111.25,-168.88"/>
<text text-anchor="middle" x="55.62" y="-155.38" font-family="Helvetica,sans-Serif" font-size="10.00">Shock_Reflection_2D</text>
</a>
</g>
</g>
<!-- Node2 -->
<g id="Node000002" class="node">
<title>Node2</title>
<g id="a_Node000002"><a xlink:href="../../df/d43/_basic___functions_8cpp_a9ca12fb8f920cab38313323cf0c4bf53.html#a9ca12fb8f920cab38313323cf0c4bf53" target="_top" xlink:title=" ">
<polygon fill="white" stroke="#666666" points="272.75,-322.5 147.25,-322.5 147.25,-292 272.75,-292 272.75,-322.5"/>
<text text-anchor="start" x="155.25" y="-309" font-family="Helvetica,sans-Serif" font-size="10.00">Calculate_Computational</text>
<text text-anchor="middle" x="210" y="-297.75" font-family="Helvetica,sans-Serif" font-size="10.00">_Variables</text>
</a>
</g>
</g>
<!-- Node1&#45;&gt;Node2 -->
<g id="edge1_Node000001_Node000002" class="edge">
<title>Node1&#45;&gt;Node2</title>
<g id="a_edge1_Node000001_Node000002"><a xlink:title=" ">
<path fill="none" stroke="#63b8ff" d="M61.55,-169.31C73.29,-192.37 105.14,-249.55 147.25,-282.25 148.96,-283.58 150.76,-284.85 152.61,-286.06"/>
<polygon fill="#63b8ff" stroke="#63b8ff" points="150.55,-288.91 160.96,-290.87 154.04,-282.85 150.55,-288.91"/>
</a>
</g>
</g>
<!-- Node3 -->
<g id="Node000003" class="node">
<title>Node3</title>
<g id="a_Node000003"><a xlink:href="../../df/d43/_basic___functions_8cpp_a1c199e756f8458978961b4d9ab4cbe63.html#a1c199e756f8458978961b4d9ab4cbe63" target="_top" xlink:title=" ">
<polygon fill="white" stroke="#666666" points="260.38,-273.5 159.62,-273.5 159.62,-243 260.38,-243 260.38,-273.5"/>
<text text-anchor="start" x="167.62" y="-260" font-family="Helvetica,sans-Serif" font-size="10.00">Calculate_Primitive</text>
<text text-anchor="middle" x="210" y="-248.75" font-family="Helvetica,sans-Serif" font-size="10.00">_Variables</text>
</a>
</g>
</g>
<!-- Node1&#45;&gt;Node3 -->
<g id="edge2_Node000001_Node000003" class="edge">
<title>Node1&#45;&gt;Node3</title>
<g id="a_edge2_Node000001_Node000003"><a xlink:title=" ">
<path fill="none" stroke="#63b8ff" d="M66.41,-169.19C82.21,-184.8 114.85,-215.22 147.25,-234.25 149.26,-235.43 151.35,-236.58 153.48,-237.69"/>
<polygon fill="#63b8ff" stroke="#63b8ff" points="151.79,-240.76 162.32,-241.93 154.82,-234.45 151.79,-240.76"/>
</a>
</g>
</g>
<!-- Node5 -->
<g id="Node000005" class="node">
<title>Node5</title>
<g id="a_Node000005"><a xlink:href="../../da/d3e/output__files_8cpp_ac7e61b153a6d26ffbefde7b5b86d55a7.html#ac7e61b153a6d26ffbefde7b5b86d55a7" target="_top" xlink:title=" ">
<polygon fill="white" stroke="#666666" points="253.62,-224.88 166.38,-224.88 166.38,-205.62 253.62,-205.62 253.62,-224.88"/>
<text text-anchor="middle" x="210" y="-211.38" font-family="Helvetica,sans-Serif" font-size="10.00">Directory_Name</text>
</a>
</g>
</g>
<!-- Node1&#45;&gt;Node5 -->
<g id="edge4_Node000001_Node000005" class="edge">
<title>Node1&#45;&gt;Node5</title>
<g id="a_edge4_Node000001_Node000005"><a xlink:title=" ">
<path fill="none" stroke="#63b8ff" d="M78.7,-169.33C96.88,-177.44 123.45,-188.82 147.25,-197.25 151.69,-198.82 156.34,-200.37 161.02,-201.85"/>
<polygon fill="#63b8ff" stroke="#63b8ff" points="159.85,-205.15 170.44,-204.73 161.9,-198.45 159.85,-205.15"/>
</a>
</g>
</g>
<!-- Node6 -->
<g id="Node000006" class="node">
<title>Node6</title>
<g id="a_Node000006"><a xlink:href="../../da/d3e/output__files_8cpp_a2a6bf38afe949ce5a6cd1b3641c49c25.html#a2a6bf38afe949ce5a6cd1b3641c49c25" target="_top" xlink:title=" ">
<polygon fill="white" stroke="#666666" points="241.62,-187.88 178.38,-187.88 178.38,-168.62 241.62,-168.62 241.62,-187.88"/>
<text text-anchor="middle" x="210" y="-174.38" font-family="Helvetica,sans-Serif" font-size="10.00">File_Name</text>
</a>
</g>
</g>
<!-- Node1&#45;&gt;Node6 -->
<g id="edge5_Node000001_Node000006" class="edge">
<title>Node1&#45;&gt;Node6</title>
<g id="a_edge5_Node000001_Node000006"><a xlink:title=" ">
<path fill="none" stroke="#63b8ff" d="M111.64,-166.11C129.78,-168.37 149.67,-170.85 166.71,-172.98"/>
<polygon fill="#63b8ff" stroke="#63b8ff" points="166.15,-176.43 176.5,-174.2 167.01,-169.49 166.15,-176.43"/>
</a>
</g>
</g>
<!-- Node7 -->
<g id="Node000007" class="node">
<title>Node7</title>
<g id="a_Node000007"><a xlink:href="../../d8/d40/_grid___computations_8cpp_a831dcf7cbf36ddf425ce0753495ba3c6.html#a831dcf7cbf36ddf425ce0753495ba3c6" target="_top" xlink:title=" ">
<polygon fill="white" stroke="#666666" points="243.12,-150.88 176.88,-150.88 176.88,-131.62 243.12,-131.62 243.12,-150.88"/>
<text text-anchor="middle" x="210" y="-137.38" font-family="Helvetica,sans-Serif" font-size="10.00">Form_Cells</text>
</a>
</g>
</g>
<!-- Node1&#45;&gt;Node7 -->
<g id="edge6_Node000001_Node000007" class="edge">
<title>Node1&#45;&gt;Node7</title>
<g id="a_edge6_Node000001_Node000007"><a xlink:title=" ">
<path fill="none" stroke="#63b8ff" d="M111.64,-152.75C129.37,-150.66 148.76,-148.37 165.54,-146.38"/>
<polygon fill="#63b8ff" stroke="#63b8ff" points="165.66,-149.89 175.18,-145.24 164.84,-142.94 165.66,-149.89"/>
</a>
</g>
</g>
<!-- Node19 -->
<g id="Node000019" class="node">
<title>Node19</title>
<g id="a_Node000019"><a xlink:href="../../d7/d6d/_initialize_8cpp_ad59ff1b23c73f6427e8179ce53ee1f59.html#ad59ff1b23c73f6427e8179ce53ee1f59" target="_top" xlink:title=" ">
<polygon fill="white" stroke="#666666" points="269.38,-113.5 150.62,-113.5 150.62,-83 269.38,-83 269.38,-113.5"/>
<text text-anchor="start" x="158.62" y="-100" font-family="Helvetica,sans-Serif" font-size="10.00">Identify_Wall_Boundary</text>
<text text-anchor="middle" x="210" y="-88.75" font-family="Helvetica,sans-Serif" font-size="10.00">_Faces</text>
</a>
</g>
</g>
<!-- Node1&#45;&gt;Node19 -->
<g id="edge20_Node000001_Node000019" class="edge">
<title>Node1&#45;&gt;Node19</title>
<g id="a_edge20_Node000001_Node000019"><a xlink:title=" ">
<path fill="none" stroke="#63b8ff" d="M80.81,-149.24C99.04,-141.74 124.67,-131.25 147.25,-122.25 150.67,-120.89 154.2,-119.49 157.76,-118.09"/>
<polygon fill="#63b8ff" stroke="#63b8ff" points="159,-121.36 167.03,-114.45 156.44,-114.85 159,-121.36"/>
</a>
</g>
</g>
<!-- Node20 -->
<g id="Node000020" class="node">
<title>Node20</title>
<g id="a_Node000020"><a xlink:href="../../d7/d6d/_initialize_8cpp_acc3c3292e370176c51c654a01e651e24.html#acc3c3292e370176c51c654a01e651e24" target="_top" xlink:title=" ">
<polygon fill="white" stroke="#666666" points="236,-64.88 184,-64.88 184,-45.62 236,-45.62 236,-64.88"/>
<text text-anchor="middle" x="210" y="-51.38" font-family="Helvetica,sans-Serif" font-size="10.00">Initialize</text>
</a>
</g>
</g>
<!-- Node1&#45;&gt;Node20 -->
<g id="edge21_Node000001_Node000020" class="edge">
<title>Node1&#45;&gt;Node20</title>
<g id="a_edge21_Node000001_Node000020"><a xlink:title=" ">
<path fill="none" stroke="#63b8ff" d="M64.52,-149.32C79.05,-131.68 111.8,-94.83 147.25,-74.25 155.01,-69.75 163.94,-66.2 172.56,-63.46"/>
<polygon fill="#63b8ff" stroke="#63b8ff" points="173.49,-66.84 182.14,-60.72 171.56,-60.11 173.49,-66.84"/>
</a>
</g>
</g>
<!-- Node22 -->
<g id="Node000022" class="node">
<title>Node22</title>
<g id="a_Node000022"><a xlink:href="../../da/d3e/output__files_8cpp_ac49d22b87cab7fa46da37546b7af78b0.html#ac49d22b87cab7fa46da37546b7af78b0" target="_top" xlink:title=" ">
<polygon fill="white" stroke="#666666" points="249.5,-27.88 170.5,-27.88 170.5,-8.62 249.5,-8.62 249.5,-27.88"/>
<text text-anchor="middle" x="210" y="-14.38" font-family="Helvetica,sans-Serif" font-size="10.00">Write_Solution</text>
</a>
</g>
</g>
<!-- Node1&#45;&gt;Node22 -->
<g id="edge23_Node000001_Node000022" class="edge">
<title>Node1&#45;&gt;Node22</title>
<g id="a_edge23_Node000001_Node000022"><a xlink:title=" ">
<path fill="none" stroke="#63b8ff" d="M61.16,-149.24C72.29,-125.78 103.33,-66.93 147.25,-36.25 150.95,-33.66 155.03,-31.44 159.27,-29.54"/>
<polygon fill="#63b8ff" stroke="#63b8ff" points="160.51,-32.81 168.6,-25.97 158.01,-26.27 160.51,-32.81"/>
</a>
</g>
</g>
<!-- Node4 -->
<g id="Node000004" class="node">
<title>Node4</title>
<g id="a_Node000004"><a xlink:href="../../db/d81/_viscous___calculations_8cpp_ae9dc3225863fb110155bb3e9dea4e4d3.html#ae9dc3225863fb110155bb3e9dea4e4d3" target="_top" xlink:title=" ">
<polygon fill="white" stroke="#666666" points="397.5,-267.88 341,-267.88 341,-248.62 397.5,-248.62 397.5,-267.88"/>
<text text-anchor="middle" x="369.25" y="-254.38" font-family="Helvetica,sans-Serif" font-size="10.00">Viscosity</text>
</a>
</g>
</g>
<!-- Node3&#45;&gt;Node4 -->
<g id="edge3_Node000003_Node000004" class="edge">
<title>Node3&#45;&gt;Node4</title>
<g id="a_edge3_Node000003_Node000004"><a xlink:title=" ">
<path fill="none" stroke="#63b8ff" d="M260.75,-258.25C282.97,-258.25 308.76,-258.25 329.51,-258.25"/>
<polygon fill="#63b8ff" stroke="#63b8ff" points="329.26,-261.75 339.26,-258.25 329.26,-254.75 329.26,-261.75"/>
</a>
</g>
</g>
<!-- Node8 -->
<g id="Node000008" class="node">
<title>Node8</title>
<g id="a_Node000008"><a xlink:href="../../d8/d40/_grid___computations_8cpp_a7e6f11445e90cefdcb91f369846ec691.html#a7e6f11445e90cefdcb91f369846ec691" target="_top" xlink:title=" ">
<polygon fill="white" stroke="#666666" points="426.38,-116.5 312.12,-116.5 312.12,-86 426.38,-86 426.38,-116.5"/>
<text text-anchor="start" x="320.12" y="-103" font-family="Helvetica,sans-Serif" font-size="10.00">Calculate_Cell_Center</text>
<text text-anchor="middle" x="369.25" y="-91.75" font-family="Helvetica,sans-Serif" font-size="10.00">_Distances</text>
</a>
</g>
</g>
<!-- Node7&#45;&gt;Node8 -->
<g id="edge7_Node000007_Node000008" class="edge">
<title>Node7&#45;&gt;Node8</title>
<g id="a_edge7_Node000007_Node000008"><a xlink:title=" ">
<path fill="none" stroke="#63b8ff" d="M243.58,-132.96C260.21,-128.73 281.07,-123.43 300.94,-118.37"/>
<polygon fill="#63b8ff" stroke="#63b8ff" points="301.56,-121.83 310.39,-115.97 299.83,-115.04 301.56,-121.83"/>
</a>
</g>
</g>
<!-- Node11 -->
<g id="Node000011" class="node">
<title>Node11</title>
<g id="a_Node000011"><a xlink:href="../../d8/d40/_grid___computations_8cpp_a209db16fba143a9833c8d4021624afb0.html#a209db16fba143a9833c8d4021624afb0" target="_top" xlink:title=" ">
<polygon fill="white" stroke="#666666" points="567.62,-153.88 495.38,-153.88 495.38,-134.62 567.62,-134.62 567.62,-153.88"/>
<text text-anchor="middle" x="531.5" y="-140.38" font-family="Helvetica,sans-Serif" font-size="10.00">Check_Cells</text>
</a>
</g>
</g>
<!-- Node7&#45;&gt;Node11 -->
<g id="edge10_Node000007_Node000011" class="edge">
<title>Node7&#45;&gt;Node11</title>
<g id="a_edge10_Node000007_Node000011"><a xlink:title=" ">
<path fill="none" stroke="#63b8ff" d="M243.39,-141.55C300.26,-142.09 418.24,-143.2 483.88,-143.81"/>
<polygon fill="#63b8ff" stroke="#63b8ff" points="483.57,-147.31 493.6,-143.9 483.63,-140.31 483.57,-147.31"/>
</a>
</g>
</g>
<!-- Node12 -->
<g id="Node000012" class="node">
<title>Node12</title>
<g id="a_Node000012"><a xlink:href="../../df/daf/_co___volume___grid___computations_8cpp_a097cceef075e862683dd9f6e95d091d4.html#a097cceef075e862683dd9f6e95d091d4" target="_top" xlink:title=" ">
<polygon fill="white" stroke="#666666" points="429.38,-67.88 309.12,-67.88 309.12,-48.62 429.38,-48.62 429.38,-67.88"/>
<text text-anchor="middle" x="369.25" y="-54.38" font-family="Helvetica,sans-Serif" font-size="10.00">Construct_Co_Volumes</text>
</a>
</g>
</g>
<!-- Node7&#45;&gt;Node12 -->
<g id="edge11_Node000007_Node000012" class="edge">
<title>Node7&#45;&gt;Node12</title>
<g id="a_edge11_Node000007_Node000012"><a xlink:title=" ">
<path fill="none" stroke="#63b8ff" d="M243.41,-135.18C253.39,-132.32 264.03,-128.18 272.75,-122.25 293.93,-107.85 287.65,-91.77 308.75,-77.25 310.94,-75.75 313.25,-74.36 315.64,-73.07"/>
<polygon fill="#63b8ff" stroke="#63b8ff" points="316.84,-76.37 324.45,-69 313.91,-70.02 316.84,-76.37"/>
</a>
</g>
</g>
<!-- Node15 -->
<g id="Node000015" class="node">
<title>Node15</title>
<g id="a_Node000015"><a xlink:href="../../d8/d40/_grid___computations_8cpp_ae5f2b7a0fdbc48f8fdf897222b7ded04.html#ae5f2b7a0fdbc48f8fdf897222b7ded04" target="_top" xlink:title=" ">
<polygon fill="white" stroke="#666666" points="428.25,-228.88 310.25,-228.88 310.25,-209.62 428.25,-209.62 428.25,-228.88"/>
<text text-anchor="middle" x="369.25" y="-215.38" font-family="Helvetica,sans-Serif" font-size="10.00">Construct_Ghost_Cells</text>
</a>
</g>
</g>
<!-- Node7&#45;&gt;Node15 -->
<g id="edge14_Node000007_Node000015" class="edge">
<title>Node7&#45;&gt;Node15</title>
<g id="a_edge14_Node000007_Node000015"><a xlink:title=" ">
<path fill="none" stroke="#63b8ff" d="M243.61,-147C253.49,-149.71 264.02,-153.62 272.75,-159.25 293.41,-172.58 288.16,-187.82 308.75,-201.25 310.55,-202.42 312.42,-203.52 314.36,-204.55"/>
<polygon fill="#63b8ff" stroke="#63b8ff" points="312.46,-207.53 323.01,-208.51 315.37,-201.16 312.46,-207.53"/>
</a>
</g>
</g>
<!-- Node17 -->
<g id="Node000017" class="node">
<title>Node17</title>
<g id="a_Node000017"><a xlink:href="../../d8/d40/_grid___computations_8cpp_a663d4b3ae06e638c2f2e82ad437e831e.html#a663d4b3ae06e638c2f2e82ad437e831e" target="_top" xlink:title="Reads the input grid file and constructs physical cells, evaluates face areas, normals,...">
<polygon fill="white" stroke="#666666" points="400.5,-191.88 338,-191.88 338,-172.62 400.5,-172.62 400.5,-191.88"/>
<text text-anchor="middle" x="369.25" y="-178.38" font-family="Helvetica,sans-Serif" font-size="10.00">Read_Grid</text>
</a>
</g>
</g>
<!-- Node7&#45;&gt;Node17 -->
<g id="edge16_Node000007_Node000017" class="edge">
<title>Node7&#45;&gt;Node17</title>
<g id="a_edge16_Node000007_Node000017"><a xlink:title=" ">
<path fill="none" stroke="#63b8ff" d="M243.58,-149.75C267.64,-156.02 300.58,-164.61 326.56,-171.38"/>
<polygon fill="#63b8ff" stroke="#63b8ff" points="325.56,-174.74 336.11,-173.87 327.32,-167.96 325.56,-174.74"/>
</a>
</g>
</g>
<!-- Node9 -->
<g id="Node000009" class="node">
<title>Node9</title>
<g id="a_Node000009"><a xlink:href="../../d8/d40/_grid___computations_8cpp_a1f273579608200866e02e34f16a3eb6b.html#a1f273579608200866e02e34f16a3eb6b" target="_top" xlink:title=" ">
<polygon fill="white" stroke="#666666" points="597.25,-110.88 465.75,-110.88 465.75,-91.62 597.25,-91.62 597.25,-110.88"/>
<text text-anchor="middle" x="531.5" y="-97.38" font-family="Helvetica,sans-Serif" font-size="10.00">Distance_Between_Points</text>
</a>
</g>
</g>
<!-- Node8&#45;&gt;Node9 -->
<g id="edge8_Node000008_Node000009" class="edge">
<title>Node8&#45;&gt;Node9</title>
<g id="a_edge8_Node000008_Node000009"><a xlink:title=" ">
<path fill="none" stroke="#63b8ff" d="M426.75,-101.25C435.65,-101.25 444.99,-101.25 454.25,-101.25"/>
<polygon fill="#63b8ff" stroke="#63b8ff" points="453.97,-104.75 463.97,-101.25 453.97,-97.75 453.97,-104.75"/>
</a>
</g>
</g>
<!-- Node10 -->
<g id="Node000010" class="node">
<title>Node10</title>
<g id="a_Node000010"><a xlink:href="../../dc/d3a/src_2_utility___files_8cpp_abf34e0b480f7580b0cd4237a76aed670.html#abf34e0b480f7580b0cd4237a76aed670" target="_top" xlink:title=" ">
<polygon fill="white" stroke="#666666" points="669.5,-110.88 633.25,-110.88 633.25,-91.62 669.5,-91.62 669.5,-110.88"/>
<text text-anchor="middle" x="651.38" y="-97.38" font-family="Helvetica,sans-Serif" font-size="10.00">Print</text>
</a>
</g>
</g>
<!-- Node9&#45;&gt;Node10 -->
<g id="edge9_Node000009_Node000010" class="edge">
<title>Node9&#45;&gt;Node10</title>
<g id="a_edge9_Node000009_Node000010"><a xlink:title=" ">
<path fill="none" stroke="#63b8ff" d="M597.64,-101.25C605.97,-101.25 614.12,-101.25 621.44,-101.25"/>
<polygon fill="#63b8ff" stroke="#63b8ff" points="621.32,-104.75 631.32,-101.25 621.32,-97.75 621.32,-104.75"/>
</a>
</g>
</g>
<!-- Node13 -->
<g id="Node000013" class="node">
<title>Node13</title>
<g id="a_Node000013"><a xlink:href="../../d8/d40/_grid___computations_8cpp_a0d19b951f556ac7a935819a38d2e1a6f.html#a0d19b951f556ac7a935819a38d2e1a6f" target="_top" xlink:title=" ">
<polygon fill="white" stroke="#666666" points="574.38,-70.88 488.62,-70.88 488.62,-51.62 574.38,-51.62 574.38,-70.88"/>
<text text-anchor="middle" x="531.5" y="-57.38" font-family="Helvetica,sans-Serif" font-size="10.00">Construct_Face</text>
</a>
</g>
</g>
<!-- Node12&#45;&gt;Node13 -->
<g id="edge12_Node000012_Node000013" class="edge">
<title>Node12&#45;&gt;Node13</title>
<g id="a_edge12_Node000012_Node000013"><a xlink:title=" ">
<path fill="none" stroke="#63b8ff" d="M429.47,-59.36C445.1,-59.65 461.87,-59.97 477.17,-60.25"/>
<polygon fill="#63b8ff" stroke="#63b8ff" points="476.96,-63.75 487.02,-60.44 477.09,-56.75 476.96,-63.75"/>
</a>
</g>
</g>
<!-- Node14 -->
<g id="Node000014" class="node">
<title>Node14</title>
<g id="a_Node000014"><a xlink:href="../../d8/d40/_grid___computations_8cpp_a29418163b6fbd0aa81c60026e430d0b8.html#a29418163b6fbd0aa81c60026e430d0b8" target="_top" xlink:title=" ">
<polygon fill="white" stroke="#666666" points="593.88,-33.88 469.12,-33.88 469.12,-14.62 593.88,-14.62 593.88,-33.88"/>
<text text-anchor="middle" x="531.5" y="-20.38" font-family="Helvetica,sans-Serif" font-size="10.00">Evaluate_Cross_Product</text>
</a>
</g>
</g>
<!-- Node12&#45;&gt;Node14 -->
<g id="edge13_Node000012_Node000014" class="edge">
<title>Node12&#45;&gt;Node14</title>
<g id="a_edge13_Node000012_Node000014"><a xlink:title=" ">
<path fill="none" stroke="#63b8ff" d="M417.9,-48.14C434.85,-44.54 454.15,-40.45 471.92,-36.68"/>
<polygon fill="#63b8ff" stroke="#63b8ff" points="472.5,-40.13 481.56,-34.63 471.05,-33.29 472.5,-40.13"/>
</a>
</g>
</g>
<!-- Node16 -->
<g id="Node000016" class="node">
<title>Node16</title>
<g id="a_Node000016"><a xlink:href="../../d8/d40/_grid___computations_8cpp_a2d284e26ddef582519953e8b8300184e.html#a2d284e26ddef582519953e8b8300184e" target="_top" xlink:title=" ">
<polygon fill="white" stroke="#666666" points="572.12,-228.88 490.88,-228.88 490.88,-209.62 572.12,-209.62 572.12,-228.88"/>
<text text-anchor="middle" x="531.5" y="-215.38" font-family="Helvetica,sans-Serif" font-size="10.00">Construct_Cell</text>
</a>
</g>
</g>
<!-- Node15&#45;&gt;Node16 -->
<g id="edge15_Node000015_Node000016" class="edge">
<title>Node15&#45;&gt;Node16</title>
<g id="a_edge15_Node000015_Node000016"><a xlink:title=" ">
<path fill="none" stroke="#63b8ff" d="M428.56,-219.25C445.12,-219.25 463.03,-219.25 479.15,-219.25"/>
<polygon fill="#63b8ff" stroke="#63b8ff" points="479.01,-222.75 489.01,-219.25 479.01,-215.75 479.01,-222.75"/>
</a>
</g>
</g>
<!-- Node17&#45;&gt;Node11 -->
<g id="edge17_Node000017_Node000011" class="edge">
<title>Node17&#45;&gt;Node11</title>
<g id="a_edge17_Node000017_Node000011"><a xlink:title=" ">
<path fill="none" stroke="#63b8ff" d="M400.77,-175.01C424.29,-169.44 457.21,-161.63 484,-155.28"/>
<polygon fill="#63b8ff" stroke="#63b8ff" points="484.67,-158.71 493.59,-153 483.06,-151.9 484.67,-158.71"/>
</a>
</g>
</g>
<!-- Node17&#45;&gt;Node16 -->
<g id="edge18_Node000017_Node000016" class="edge">
<title>Node17&#45;&gt;Node16</title>
<g id="a_edge18_Node000017_Node000016"><a xlink:title=" ">
<path fill="none" stroke="#63b8ff" d="M400.77,-189.3C422.92,-194.41 453.41,-201.45 479.26,-207.42"/>
<polygon fill="#63b8ff" stroke="#63b8ff" points="478.39,-210.81 488.92,-209.65 479.96,-203.99 478.39,-210.81"/>
</a>
</g>
</g>
<!-- Node18 -->
<g id="Node000018" class="node">
<title>Node18</title>
<g id="a_Node000018"><a xlink:href="../../d8/d40/_grid___computations_8cpp_aa376223dcb91990013ac6549090115ea.html#aa376223dcb91990013ac6549090115ea" target="_top" xlink:title=" ">
<polygon fill="white" stroke="#666666" points="580.75,-191.88 482.25,-191.88 482.25,-172.62 580.75,-172.62 580.75,-191.88"/>
<text text-anchor="middle" x="531.5" y="-178.38" font-family="Helvetica,sans-Serif" font-size="10.00">Conversion_Factor</text>
</a>
</g>
</g>
<!-- Node17&#45;&gt;Node18 -->
<g id="edge19_Node000017_Node000018" class="edge">
<title>Node17&#45;&gt;Node18</title>
<g id="a_edge19_Node000017_Node000018"><a xlink:title=" ">
<path fill="none" stroke="#63b8ff" d="M400.77,-182.25C420.44,-182.25 446.67,-182.25 470.41,-182.25"/>
<polygon fill="#63b8ff" stroke="#63b8ff" points="470.3,-185.75 480.3,-182.25 470.3,-178.75 470.3,-185.75"/>
</a>
</g>
</g>
<!-- Node21 -->
<g id="Node000021" class="node">
<title>Node21</title>
<g id="a_Node000021"><a xlink:href="../../d4/d5d/_grid___refine___functions_8cpp_add867401ba6818c3d6480ec342cb0eaa.html#add867401ba6818c3d6480ec342cb0eaa" target="_top" xlink:title="Identifies the secondary neighbors of a given cell to evaluate second gradients.">
<polygon fill="white" stroke="#666666" points="429.75,-30.5 308.75,-30.5 308.75,0 429.75,0 429.75,-30.5"/>
<text text-anchor="start" x="316.75" y="-17" font-family="Helvetica,sans-Serif" font-size="10.00">Identify_Neighbours</text>
<text text-anchor="middle" x="369.25" y="-5.75" font-family="Helvetica,sans-Serif" font-size="10.00">_For_Second_Gradients</text>
</a>
</g>
</g>
<!-- Node20&#45;&gt;Node21 -->
<g id="edge22_Node000020_Node000021" class="edge">
<title>Node20&#45;&gt;Node21</title>
<g id="a_edge22_Node000020_Node000021"><a xlink:title=" ">
<path fill="none" stroke="#63b8ff" d="M236.26,-48.82C252.9,-44.59 275.57,-38.82 297.43,-33.26"/>
<polygon fill="#63b8ff" stroke="#63b8ff" points="298.11,-36.7 306.94,-30.85 296.39,-29.92 298.11,-36.7"/>
</a>
</g>
</g>
</g>
</svg>
