<?xml version="1.0" encoding="UTF-8" standalone="no"?>
<!DOCTYPE svg PUBLIC "-//W3C//DTD SVG 1.1//EN"
 "http://www.w3.org/Graphics/SVG/1.1/DTD/svg11.dtd">
<!-- Generated by graphviz version 12.2.1 (20241206.2353)
 -->
<!-- Title: Basic_Function_Files/gnuplot_i.hpp Pages: 1 -->
<svg width="765pt" height="94pt"
 viewBox="0.00 0.00 765.00 93.75" xmlns="http://www.w3.org/2000/svg" xmlns:xlink="http://www.w3.org/1999/xlink">
<g id="graph0" class="graph" transform="scale(1 1) rotate(0) translate(4 89.75)">
<title>Basic_Function_Files/gnuplot_i.hpp</title>
<!-- Node1 -->
<g id="Node000001" class="node">
<title>Node1</title>
<g id="a_Node000001"><a xlink:title=" ">
<polygon fill="#999999" stroke="#666666" points="431.5,-85.75 321.75,-85.75 321.75,-55.25 431.5,-55.25 431.5,-85.75"/>
<text text-anchor="start" x="329.75" y="-72.25" font-family="Helvetica,sans-Serif" font-size="10.00">Basic_Function_Files</text>
<text text-anchor="middle" x="376.62" y="-61" font-family="Helvetica,sans-Serif" font-size="10.00">/gnuplot_i.hpp</text>
</a>
</g>
</g>
<!-- Node2 -->
<g id="Node000002" class="node">
<title>Node2</title>
<g id="a_Node000002"><a xlink:title=" ">
<polygon fill="#e0e0e0" stroke="#999999" points="51.25,-19.25 0,-19.25 0,0 51.25,0 51.25,-19.25"/>
<text text-anchor="middle" x="25.62" y="-5.75" font-family="Helvetica,sans-Serif" font-size="10.00">stdarg.h</text>
</a>
</g>
</g>
<!-- Node1&#45;&gt;Node2 -->
<g id="edge1_Node000001_Node000002" class="edge">
<title>Node1&#45;&gt;Node2</title>
<g id="a_edge1_Node000001_Node000002"><a xlink:title=" ">
<path fill="none" stroke="#63b8ff" d="M321.29,-62.13C260.35,-53.7 159.27,-38.78 62.71,-19.52"/>
<polygon fill="#63b8ff" stroke="#63b8ff" points="63.54,-16.12 53.05,-17.57 62.16,-22.98 63.54,-16.12"/>
</a>
</g>
</g>
<!-- Node3 -->
<g id="Node000003" class="node">
<title>Node3</title>
<g id="a_Node000003"><a xlink:title=" ">
<polygon fill="#e0e0e0" stroke="#999999" points="119.88,-19.25 69.38,-19.25 69.38,0 119.88,0 119.88,-19.25"/>
<text text-anchor="middle" x="94.62" y="-5.75" font-family="Helvetica,sans-Serif" font-size="10.00">unistd.h</text>
</a>
</g>
</g>
<!-- Node1&#45;&gt;Node3 -->
<g id="edge2_Node000001_Node000003" class="edge">
<title>Node1&#45;&gt;Node3</title>
<g id="a_edge2_Node000001_Node000003"><a xlink:title=" ">
<path fill="none" stroke="#63b8ff" d="M321.55,-58.97C273.85,-49.69 202.74,-35.5 131.22,-19.53"/>
<polygon fill="#63b8ff" stroke="#63b8ff" points="132.21,-16.17 121.69,-17.39 130.68,-23 132.21,-16.17"/>
</a>
</g>
</g>
<!-- Node4 -->
<g id="Node000004" class="node">
<title>Node4</title>
<g id="a_Node000004"><a xlink:title=" ">
<polygon fill="#e0e0e0" stroke="#999999" points="182.88,-19.25 138.38,-19.25 138.38,0 182.88,0 182.88,-19.25"/>
<text text-anchor="middle" x="160.62" y="-5.75" font-family="Helvetica,sans-Serif" font-size="10.00">cstdlib</text>
</a>
</g>
</g>
<!-- Node1&#45;&gt;Node4 -->
<g id="edge3_Node000001_Node000004" class="edge">
<title>Node1&#45;&gt;Node4</title>
<g id="a_edge3_Node000001_Node000004"><a xlink:title=" ">
<path fill="none" stroke="#63b8ff" d="M322.36,-54.86C288.07,-45.58 242.54,-33.22 194.3,-19.97"/>
<polygon fill="#63b8ff" stroke="#63b8ff" points="195.34,-16.63 184.77,-17.35 193.48,-23.38 195.34,-16.63"/>
</a>
</g>
</g>
<!-- Node5 -->
<g id="Node000005" class="node">
<title>Node5</title>
<g id="a_Node000005"><a xlink:title=" ">
<polygon fill="#e0e0e0" stroke="#999999" points="242.75,-19.25 200.5,-19.25 200.5,0 242.75,0 242.75,-19.25"/>
<text text-anchor="middle" x="221.62" y="-5.75" font-family="Helvetica,sans-Serif" font-size="10.00">cstdio</text>
</a>
</g>
</g>
<!-- Node1&#45;&gt;Node5 -->
<g id="edge4_Node000001_Node000005" class="edge">
<title>Node1&#45;&gt;Node5</title>
<g id="a_edge4_Node000001_Node000005"><a xlink:title=" ">
<path fill="none" stroke="#63b8ff" d="M337.91,-54.8C311.94,-44.93 278.14,-32.09 253.68,-22.8"/>
<polygon fill="#63b8ff" stroke="#63b8ff" points="255.16,-19.62 244.57,-19.34 252.68,-26.16 255.16,-19.62"/>
</a>
</g>
</g>
<!-- Node6 -->
<g id="Node000006" class="node">
<title>Node6</title>
<g id="a_Node000006"><a xlink:title=" ">
<polygon fill="#e0e0e0" stroke="#999999" points="306.25,-19.25 261,-19.25 261,0 306.25,0 306.25,-19.25"/>
<text text-anchor="middle" x="283.62" y="-5.75" font-family="Helvetica,sans-Serif" font-size="10.00">cstring</text>
</a>
</g>
</g>
<!-- Node1&#45;&gt;Node6 -->
<g id="edge5_Node000001_Node000006" class="edge">
<title>Node1&#45;&gt;Node6</title>
<g id="a_edge5_Node000001_Node000006"><a xlink:title=" ">
<path fill="none" stroke="#63b8ff" d="M353.64,-54.95C339.61,-46.07 321.72,-34.74 307.53,-25.76"/>
<polygon fill="#63b8ff" stroke="#63b8ff" points="309.56,-22.9 299.24,-20.51 305.82,-28.82 309.56,-22.9"/>
</a>
</g>
</g>
<!-- Node7 -->
<g id="Node000007" class="node">
<title>Node7</title>
<g id="a_Node000007"><a xlink:title=" ">
<polygon fill="#e0e0e0" stroke="#999999" points="364.62,-19.25 324.62,-19.25 324.62,0 364.62,0 364.62,-19.25"/>
<text text-anchor="middle" x="344.62" y="-5.75" font-family="Helvetica,sans-Serif" font-size="10.00">string</text>
</a>
</g>
</g>
<!-- Node1&#45;&gt;Node7 -->
<g id="edge6_Node000001_Node000007" class="edge">
<title>Node1&#45;&gt;Node7</title>
<g id="a_edge6_Node000001_Node000007"><a xlink:title=" ">
<path fill="none" stroke="#63b8ff" d="M368.71,-54.95C364.59,-47.36 359.5,-37.99 355.06,-29.82"/>
<polygon fill="#63b8ff" stroke="#63b8ff" points="358.13,-28.15 350.28,-21.03 351.98,-31.49 358.13,-28.15"/>
</a>
</g>
</g>
<!-- Node8 -->
<g id="Node000008" class="node">
<title>Node8</title>
<g id="a_Node000008"><a xlink:title=" ">
<polygon fill="#e0e0e0" stroke="#999999" points="436.38,-19.25 382.88,-19.25 382.88,0 436.38,0 436.38,-19.25"/>
<text text-anchor="middle" x="409.62" y="-5.75" font-family="Helvetica,sans-Serif" font-size="10.00">iostream</text>
</a>
</g>
</g>
<!-- Node1&#45;&gt;Node8 -->
<g id="edge7_Node000001_Node000008" class="edge">
<title>Node1&#45;&gt;Node8</title>
<g id="a_edge7_Node000001_Node000008"><a xlink:title=" ">
<path fill="none" stroke="#63b8ff" d="M384.78,-54.95C389.08,-47.28 394.41,-37.77 399.02,-29.54"/>
<polygon fill="#63b8ff" stroke="#63b8ff" points="401.96,-31.46 403.8,-21.02 395.86,-28.03 401.96,-31.46"/>
</a>
</g>
</g>
<!-- Node9 -->
<g id="Node000009" class="node">
<title>Node9</title>
<g id="a_Node000009"><a xlink:title=" ">
<polygon fill="#e0e0e0" stroke="#999999" points="503.12,-19.25 454.12,-19.25 454.12,0 503.12,0 503.12,-19.25"/>
<text text-anchor="middle" x="478.62" y="-5.75" font-family="Helvetica,sans-Serif" font-size="10.00">fstream</text>
</a>
</g>
</g>
<!-- Node1&#45;&gt;Node9 -->
<g id="edge8_Node000001_Node000009" class="edge">
<title>Node1&#45;&gt;Node9</title>
<g id="a_edge8_Node000001_Node000009"><a xlink:title=" ">
<path fill="none" stroke="#63b8ff" d="M402.1,-54.8C417.78,-45.74 437.81,-34.19 453.44,-25.16"/>
<polygon fill="#63b8ff" stroke="#63b8ff" points="454.76,-28.44 461.67,-20.41 451.26,-22.38 454.76,-28.44"/>
</a>
</g>
</g>
<!-- Node10 -->
<g id="Node000010" class="node">
<title>Node10</title>
<g id="a_Node000010"><a xlink:title=" ">
<polygon fill="#e0e0e0" stroke="#999999" points="572.25,-19.25 521,-19.25 521,0 572.25,0 572.25,-19.25"/>
<text text-anchor="middle" x="546.62" y="-5.75" font-family="Helvetica,sans-Serif" font-size="10.00">sstream</text>
</a>
</g>
</g>
<!-- Node1&#45;&gt;Node10 -->
<g id="edge9_Node000001_Node000010" class="edge">
<title>Node1&#45;&gt;Node10</title>
<g id="a_edge9_Node000001_Node000010"><a xlink:title=" ">
<path fill="none" stroke="#63b8ff" d="M419.08,-54.8C446.97,-45.14 483.07,-32.63 509.75,-23.4"/>
<polygon fill="#63b8ff" stroke="#63b8ff" points="510.82,-26.73 519.12,-20.15 508.53,-20.11 510.82,-26.73"/>
</a>
</g>
</g>
<!-- Node11 -->
<g id="Node000011" class="node">
<title>Node11</title>
<g id="a_Node000011"><a xlink:title=" ">
<polygon fill="#e0e0e0" stroke="#999999" points="619.02,-19.25 590.23,-19.25 590.23,0 619.02,0 619.02,-19.25"/>
<text text-anchor="middle" x="604.62" y="-5.75" font-family="Helvetica,sans-Serif" font-size="10.00">list</text>
</a>
</g>
</g>
<!-- Node1&#45;&gt;Node11 -->
<g id="edge10_Node000001_Node000011" class="edge">
<title>Node1&#45;&gt;Node11</title>
<g id="a_edge10_Node000001_Node000011"><a xlink:title=" ">
<path fill="none" stroke="#63b8ff" d="M431.92,-57.81C470.86,-49.16 524.36,-36.43 579.14,-19.75"/>
<polygon fill="#63b8ff" stroke="#63b8ff" points="580.15,-23.1 588.67,-16.81 578.08,-16.42 580.15,-23.1"/>
</a>
</g>
</g>
<!-- Node12 -->
<g id="Node000012" class="node">
<title>Node12</title>
<g id="a_Node000012"><a xlink:title=" ">
<polygon fill="#e0e0e0" stroke="#999999" points="680.12,-19.25 637.12,-19.25 637.12,0 680.12,0 680.12,-19.25"/>
<text text-anchor="middle" x="658.62" y="-5.75" font-family="Helvetica,sans-Serif" font-size="10.00">vector</text>
</a>
</g>
</g>
<!-- Node1&#45;&gt;Node12 -->
<g id="edge11_Node000001_Node000012" class="edge">
<title>Node1&#45;&gt;Node12</title>
<g id="a_edge11_Node000001_Node000012"><a xlink:title=" ">
<path fill="none" stroke="#63b8ff" d="M431.72,-59.68C480.25,-50.76 553.08,-36.71 625.51,-19.61"/>
<polygon fill="#63b8ff" stroke="#63b8ff" points="626.27,-23.03 635.19,-17.3 624.65,-16.22 626.27,-23.03"/>
</a>
</g>
</g>
<!-- Node13 -->
<g id="Node000013" class="node">
<title>Node13</title>
<g id="a_Node000013"><a xlink:title=" ">
<polygon fill="#e0e0e0" stroke="#999999" points="757,-19.25 698.25,-19.25 698.25,0 757,0 757,-19.25"/>
<text text-anchor="middle" x="727.62" y="-5.75" font-family="Helvetica,sans-Serif" font-size="10.00">stdexcept</text>
</a>
</g>
</g>
<!-- Node1&#45;&gt;Node13 -->
<g id="edge12_Node000001_Node000013" class="edge">
<title>Node1&#45;&gt;Node13</title>
<g id="a_edge12_Node000001_Node000013"><a xlink:title=" ">
<path fill="none" stroke="#63b8ff" d="M431.94,-61.71C492.25,-52.98 591.85,-37.85 686.57,-19.75"/>
<polygon fill="#63b8ff" stroke="#63b8ff" points="687.15,-23.2 696.31,-17.87 685.82,-16.33 687.15,-23.2"/>
</a>
</g>
</g>
</g>
</svg>
