<?xml version="1.0" encoding="UTF-8" standalone="no"?>
<!DOCTYPE svg PUBLIC "-//W3C//DTD SVG 1.1//EN"
 "http://www.w3.org/Graphics/SVG/1.1/DTD/svg11.dtd">
<!-- Generated by graphviz version 12.2.1 (20241206.2353)
 -->
<!-- Title: include/Boundary_Conditions.h Pages: 1 -->
<svg width="1387pt" height="149pt"
 viewBox="0.00 0.00 1386.88 149.00" xmlns="http://www.w3.org/2000/svg" xmlns:xlink="http://www.w3.org/1999/xlink">
<g id="graph0" class="graph" transform="scale(1 1) rotate(0) translate(4 145)">
<title>include/Boundary_Conditions.h</title>
<!-- Node1 -->
<g id="Node000001" class="node">
<title>Node1</title>
<g id="a_Node000001"><a xlink:title=" ">
<polygon fill="#999999" stroke="#666666" points="908.25,-141 757.25,-141 757.25,-121.75 908.25,-121.75 908.25,-141"/>
<text text-anchor="middle" x="832.75" y="-127.5" font-family="Helvetica,sans-Serif" font-size="10.00">include/Boundary_Conditions.h</text>
</a>
</g>
</g>
<!-- Node2 -->
<g id="Node000002" class="node">
<title>Node2</title>
<g id="a_Node000002"><a xlink:href="../../d0/d1a/_directory___files_8h.html" target="_top" xlink:title=" ">
<polygon fill="white" stroke="#666666" points="344.75,-80.12 220.75,-80.12 220.75,-60.88 344.75,-60.88 344.75,-80.12"/>
<text text-anchor="middle" x="282.75" y="-66.62" font-family="Helvetica,sans-Serif" font-size="10.00">include/Directory_Files.h</text>
</a>
</g>
</g>
<!-- Node1&#45;&gt;Node2 -->
<g id="edge1_Node000001_Node000002" class="edge">
<title>Node1&#45;&gt;Node2</title>
<g id="a_edge1_Node000001_Node000002"><a xlink:title=" ">
<path fill="none" stroke="#63b8ff" d="M745.54,-125.02C649.29,-118.46 489.94,-105.7 353.75,-85.75 344.17,-84.35 333.93,-82.5 324.3,-80.6"/>
<polygon fill="#63b8ff" stroke="#63b8ff" points="745.24,-128.5 755.45,-125.68 745.71,-121.52 745.24,-128.5"/>
</a>
</g>
</g>
<!-- Node7 -->
<g id="Node000007" class="node">
<title>Node7</title>
<g id="a_Node000007"><a xlink:href="../../d0/d1e/_boundary___conditions_8cpp.html" target="_top" xlink:title=" ">
<polygon fill="white" stroke="#666666" points="506.88,-80.12 362.62,-80.12 362.62,-60.88 506.88,-60.88 506.88,-80.12"/>
<text text-anchor="middle" x="434.75" y="-66.62" font-family="Helvetica,sans-Serif" font-size="10.00">src/Boundary_Conditions.cpp</text>
</a>
</g>
</g>
<!-- Node1&#45;&gt;Node7 -->
<g id="edge6_Node000001_Node000007" class="edge">
<title>Node1&#45;&gt;Node7</title>
<g id="a_edge6_Node000001_Node000007"><a xlink:title=" ">
<path fill="none" stroke="#63b8ff" d="M752.41,-119.75C688.48,-111.12 596.78,-98.35 516.75,-85.75 506.62,-84.15 495.8,-82.35 485.45,-80.57"/>
<polygon fill="#63b8ff" stroke="#63b8ff" points="751.74,-123.19 762.11,-121.05 752.67,-116.25 751.74,-123.19"/>
</a>
</g>
</g>
<!-- Node8 -->
<g id="Node000008" class="node">
<title>Node8</title>
<g id="a_Node000008"><a xlink:href="../../de/d8d/_exit___boundary___conditions_8cpp.html" target="_top" xlink:title=" ">
<polygon fill="white" stroke="#666666" points="692.12,-80.12 525.38,-80.12 525.38,-60.88 692.12,-60.88 692.12,-80.12"/>
<text text-anchor="middle" x="608.75" y="-66.62" font-family="Helvetica,sans-Serif" font-size="10.00">src/Exit_Boundary_Conditions.cpp</text>
</a>
</g>
</g>
<!-- Node1&#45;&gt;Node8 -->
<g id="edge7_Node000001_Node000008" class="edge">
<title>Node1&#45;&gt;Node8</title>
<g id="a_edge7_Node000001_Node000008"><a xlink:title=" ">
<path fill="none" stroke="#63b8ff" d="M787.34,-118.44C744.73,-107.24 681.96,-90.74 643.3,-80.58"/>
<polygon fill="#63b8ff" stroke="#63b8ff" points="786.22,-121.76 796.78,-120.92 788,-114.99 786.22,-121.76"/>
</a>
</g>
</g>
<!-- Node9 -->
<g id="Node000009" class="node">
<title>Node9</title>
<g id="a_Node000009"><a xlink:href="../../d5/d2f/_far___field___boundary___condition_8cpp.html" target="_top" xlink:title=" ">
<polygon fill="white" stroke="#666666" points="829.5,-85.75 710,-85.75 710,-55.25 829.5,-55.25 829.5,-85.75"/>
<text text-anchor="start" x="718" y="-72.25" font-family="Helvetica,sans-Serif" font-size="10.00">src/Far_Field_Boundary</text>
<text text-anchor="middle" x="769.75" y="-61" font-family="Helvetica,sans-Serif" font-size="10.00">_Condition.cpp</text>
</a>
</g>
</g>
<!-- Node1&#45;&gt;Node9 -->
<g id="edge8_Node000001_Node000009" class="edge">
<title>Node1&#45;&gt;Node9</title>
<g id="a_edge8_Node000001_Node000009"><a xlink:title=" ">
<path fill="none" stroke="#63b8ff" d="M814.98,-113.77C805.64,-105.04 794.29,-94.43 785.3,-86.03"/>
<polygon fill="#63b8ff" stroke="#63b8ff" points="812.38,-116.13 822.08,-120.4 817.16,-111.01 812.38,-116.13"/>
</a>
</g>
</g>
<!-- Node10 -->
<g id="Node000010" class="node">
<title>Node10</title>
<g id="a_Node000010"><a xlink:href="../../dd/d15/_inlet___boundary___conditions_8cpp.html" target="_top" xlink:title=" ">
<polygon fill="white" stroke="#666666" points="945.62,-85.75 847.88,-85.75 847.88,-55.25 945.62,-55.25 945.62,-85.75"/>
<text text-anchor="start" x="855.88" y="-72.25" font-family="Helvetica,sans-Serif" font-size="10.00">src/Inlet_Boundary</text>
<text text-anchor="middle" x="896.75" y="-61" font-family="Helvetica,sans-Serif" font-size="10.00">_Conditions.cpp</text>
</a>
</g>
</g>
<!-- Node1&#45;&gt;Node10 -->
<g id="edge9_Node000001_Node000010" class="edge">
<title>Node1&#45;&gt;Node10</title>
<g id="a_edge9_Node000001_Node000010"><a xlink:title=" ">
<path fill="none" stroke="#63b8ff" d="M850.8,-113.77C860.29,-105.04 871.82,-94.43 880.95,-86.03"/>
<polygon fill="#63b8ff" stroke="#63b8ff" points="848.57,-111.06 843.58,-120.41 853.31,-116.21 848.57,-111.06"/>
</a>
</g>
</g>
<!-- Node11 -->
<g id="Node000011" class="node">
<title>Node11</title>
<g id="a_Node000011"><a xlink:href="../../d0/d64/_numerical___method_8cpp.html" target="_top" xlink:title=" ">
<polygon fill="white" stroke="#666666" points="1096.25,-80.12 963.25,-80.12 963.25,-60.88 1096.25,-60.88 1096.25,-80.12"/>
<text text-anchor="middle" x="1029.75" y="-66.62" font-family="Helvetica,sans-Serif" font-size="10.00">src/Numerical_Method.cpp</text>
</a>
</g>
</g>
<!-- Node1&#45;&gt;Node11 -->
<g id="edge10_Node000001_Node000011" class="edge">
<title>Node1&#45;&gt;Node11</title>
<g id="a_edge10_Node000001_Node000011"><a xlink:title=" ">
<path fill="none" stroke="#63b8ff" d="M873.65,-118.15C911.09,-106.96 965.66,-90.65 999.37,-80.58"/>
<polygon fill="#63b8ff" stroke="#63b8ff" points="873.13,-114.65 864.55,-120.87 875.13,-121.36 873.13,-114.65"/>
</a>
</g>
</g>
<!-- Node12 -->
<g id="Node000012" class="node">
<title>Node12</title>
<g id="a_Node000012"><a xlink:href="../../de/df0/_solver_8cpp.html" target="_top" xlink:title="This file contains the implementation of solvers for Euler equations and Navier&#45;Stokes equations.">
<polygon fill="white" stroke="#666666" points="1192.88,-80.12 1114.62,-80.12 1114.62,-60.88 1192.88,-60.88 1192.88,-80.12"/>
<text text-anchor="middle" x="1153.75" y="-66.62" font-family="Helvetica,sans-Serif" font-size="10.00">src/Solver.cpp</text>
</a>
</g>
</g>
<!-- Node1&#45;&gt;Node12 -->
<g id="edge11_Node000001_Node000012" class="edge">
<title>Node1&#45;&gt;Node12</title>
<g id="a_edge11_Node000001_Node000012"><a xlink:title=" ">
<path fill="none" stroke="#63b8ff" d="M915.26,-119.66C969.69,-111.92 1042.38,-100.27 1105.75,-85.75 1112.1,-84.29 1118.86,-82.47 1125.23,-80.61"/>
<polygon fill="#63b8ff" stroke="#63b8ff" points="914.85,-116.19 905.43,-121.04 915.82,-123.12 914.85,-116.19"/>
</a>
</g>
</g>
<!-- Node13 -->
<g id="Node000013" class="node">
<title>Node13</title>
<g id="a_Node000013"><a xlink:href="../../df/d36/_wall___boundary___conditions_8cpp.html" target="_top" xlink:title=" ">
<polygon fill="white" stroke="#666666" points="1378.88,-80.12 1210.62,-80.12 1210.62,-60.88 1378.88,-60.88 1378.88,-80.12"/>
<text text-anchor="middle" x="1294.75" y="-66.62" font-family="Helvetica,sans-Serif" font-size="10.00">src/Wall_Boundary_Conditions.cpp</text>
</a>
</g>
</g>
<!-- Node1&#45;&gt;Node13 -->
<g id="edge12_Node000001_Node000013" class="edge">
<title>Node1&#45;&gt;Node13</title>
<g id="a_edge12_Node000001_Node000013"><a xlink:title=" ">
<path fill="none" stroke="#63b8ff" d="M919.69,-120.65C994.53,-112.09 1105.37,-98.96 1201.75,-85.75 1213.24,-84.18 1225.51,-82.38 1237.24,-80.6"/>
<polygon fill="#63b8ff" stroke="#63b8ff" points="919.5,-117.15 909.96,-121.76 920.29,-124.1 919.5,-117.15"/>
</a>
</g>
</g>
<!-- Node3 -->
<g id="Node000003" class="node">
<title>Node3</title>
<g id="a_Node000003"><a xlink:href="../../d0/de9/_configuration___read_8cpp.html" target="_top" xlink:title=" ">
<polygon fill="white" stroke="#666666" points="137.5,-19.25 0,-19.25 0,0 137.5,0 137.5,-19.25"/>
<text text-anchor="middle" x="68.75" y="-5.75" font-family="Helvetica,sans-Serif" font-size="10.00">src/Configuration_Read.cpp</text>
</a>
</g>
</g>
<!-- Node2&#45;&gt;Node3 -->
<g id="edge2_Node000002_Node000003" class="edge">
<title>Node2&#45;&gt;Node3</title>
<g id="a_edge2_Node000002_Node000003"><a xlink:title=" ">
<path fill="none" stroke="#63b8ff" d="M238.84,-57.42C198.15,-46.23 138.53,-29.82 101.76,-19.71"/>
<polygon fill="#63b8ff" stroke="#63b8ff" points="237.75,-60.75 248.32,-60.03 239.61,-54 237.75,-60.75"/>
</a>
</g>
</g>
<!-- Node4 -->
<g id="Node000004" class="node">
<title>Node4</title>
<g id="a_Node000004"><a xlink:href="../../d3/db8/_initialize___test_case_8cpp.html" target="_top" xlink:title=" ">
<polygon fill="white" stroke="#666666" points="290,-19.25 155.5,-19.25 155.5,0 290,0 290,-19.25"/>
<text text-anchor="middle" x="222.75" y="-5.75" font-family="Helvetica,sans-Serif" font-size="10.00">src/Initialize_TestCase.cpp</text>
</a>
</g>
</g>
<!-- Node2&#45;&gt;Node4 -->
<g id="edge3_Node000002_Node000004" class="edge">
<title>Node2&#45;&gt;Node4</title>
<g id="a_edge3_Node000002_Node000004"><a xlink:title=" ">
<path fill="none" stroke="#63b8ff" d="M265.6,-52.68C254.65,-41.93 240.88,-28.41 231.95,-19.65"/>
<polygon fill="#63b8ff" stroke="#63b8ff" points="262.97,-54.99 272.56,-59.5 267.87,-50 262.97,-54.99"/>
</a>
</g>
</g>
<!-- Node5 -->
<g id="Node000005" class="node">
<title>Node5</title>
<g id="a_Node000005"><a xlink:href="../../d5/d12/_main_8cpp.html" target="_top" xlink:title="Main entry point for the simulation program. Contains the main function and initialization routines....">
<polygon fill="white" stroke="#666666" points="379.88,-19.25 307.62,-19.25 307.62,0 379.88,0 379.88,-19.25"/>
<text text-anchor="middle" x="343.75" y="-5.75" font-family="Helvetica,sans-Serif" font-size="10.00">src/Main.cpp</text>
</a>
</g>
</g>
<!-- Node2&#45;&gt;Node5 -->
<g id="edge4_Node000002_Node000005" class="edge">
<title>Node2&#45;&gt;Node5</title>
<g id="a_edge4_Node000002_Node000005"><a xlink:title=" ">
<path fill="none" stroke="#63b8ff" d="M300.18,-52.68C311.32,-41.93 325.32,-28.41 334.4,-19.65"/>
<polygon fill="#63b8ff" stroke="#63b8ff" points="297.87,-50.04 293.1,-59.51 302.73,-55.08 297.87,-50.04"/>
</a>
</g>
</g>
<!-- Node6 -->
<g id="Node000006" class="node">
<title>Node6</title>
<g id="a_Node000006"><a xlink:href="../../da/d3e/output__files_8cpp.html" target="_top" xlink:title=" ">
<polygon fill="white" stroke="#666666" points="499.5,-19.25 398,-19.25 398,0 499.5,0 499.5,-19.25"/>
<text text-anchor="middle" x="448.75" y="-5.75" font-family="Helvetica,sans-Serif" font-size="10.00">src/output_files.cpp</text>
</a>
</g>
</g>
<!-- Node2&#45;&gt;Node6 -->
<g id="edge5_Node000002_Node000006" class="edge">
<title>Node2&#45;&gt;Node6</title>
<g id="a_edge5_Node000002_Node000006"><a xlink:title=" ">
<path fill="none" stroke="#63b8ff" d="M318.85,-56.7C350.34,-45.53 395.23,-29.61 423.15,-19.71"/>
<polygon fill="#63b8ff" stroke="#63b8ff" points="318.01,-53.28 309.75,-59.92 320.34,-59.88 318.01,-53.28"/>
</a>
</g>
</g>
</g>
</svg>
