<?xml version="1.0" encoding="UTF-8" standalone="no"?>
<!DOCTYPE svg PUBLIC "-//W3C//DTD SVG 1.1//EN"
 "http://www.w3.org/Graphics/SVG/1.1/DTD/svg11.dtd">
<!-- Generated by graphviz version 12.2.1 (20241206.2353)
 -->
<!-- Title: ComputeGhostCell_Flux_Jacobian Pages: 1 -->
<svg width="599pt" height="125pt"
 viewBox="0.00 0.00 599.25 124.50" xmlns="http://www.w3.org/2000/svg" xmlns:xlink="http://www.w3.org/1999/xlink">
<g id="graph0" class="graph" transform="scale(1 1) rotate(0) translate(4 120.5)">
<title>ComputeGhostCell_Flux_Jacobian</title>
<!-- Node1 -->
<g id="Node000001" class="node">
<title>Node1</title>
<g id="a_Node000001"><a xlink:title=" ">
<polygon fill="#999999" stroke="#666666" points="591.25,-51.5 468,-51.5 468,-21 591.25,-21 591.25,-51.5"/>
<text text-anchor="start" x="476" y="-38" font-family="Helvetica,sans-Serif" font-size="10.00">ComputeGhostCell_Flux</text>
<text text-anchor="middle" x="529.62" y="-26.75" font-family="Helvetica,sans-Serif" font-size="10.00">_Jacobian</text>
</a>
</g>
</g>
<!-- Node2 -->
<g id="Node000002" class="node">
<title>Node2</title>
<g id="a_Node000002"><a xlink:href="../../db/dbe/_assemble___matrix_8cpp_ad90382595c8b02e815e463639d84baa7.html#ad90382595c8b02e815e463639d84baa7" target="_top" xlink:title=" ">
<polygon fill="white" stroke="#666666" points="429.38,-67.88 357.88,-67.88 357.88,-48.62 429.38,-48.62 429.38,-67.88"/>
<text text-anchor="middle" x="393.62" y="-54.38" font-family="Helvetica,sans-Serif" font-size="10.00">Assemble_A</text>
</a>
</g>
</g>
<!-- Node1&#45;&gt;Node2 -->
<g id="edge1_Node000001_Node000002" class="edge">
<title>Node1&#45;&gt;Node2</title>
<g id="a_edge1_Node000001_Node000002"><a xlink:title=" ">
<path fill="none" stroke="#63b8ff" d="M456.23,-48.14C447,-49.65 437.9,-51.14 429.65,-52.5"/>
<polygon fill="#63b8ff" stroke="#63b8ff" points="456.71,-51.6 466.01,-46.53 455.58,-44.7 456.71,-51.6"/>
</a>
</g>
</g>
<!-- Node6 -->
<g id="Node000006" class="node">
<title>Node6</title>
<g id="a_Node000006"><a xlink:href="../../db/dbe/_assemble___matrix_8cpp_ab40202302c5e7f6e97927b7fba467369.html#ab40202302c5e7f6e97927b7fba467369" target="_top" xlink:title=" ">
<polygon fill="white" stroke="#666666" points="432,-27.88 355.25,-27.88 355.25,-8.62 432,-8.62 432,-27.88"/>
<text text-anchor="middle" x="393.62" y="-14.38" font-family="Helvetica,sans-Serif" font-size="10.00">Assemble_A1</text>
</a>
</g>
</g>
<!-- Node1&#45;&gt;Node6 -->
<g id="edge6_Node000001_Node000006" class="edge">
<title>Node1&#45;&gt;Node6</title>
<g id="a_edge6_Node000001_Node000006"><a xlink:title=" ">
<path fill="none" stroke="#63b8ff" d="M456.22,-26.52C447.96,-25.41 439.81,-24.32 432.27,-23.31"/>
<polygon fill="#63b8ff" stroke="#63b8ff" points="455.63,-29.98 466.01,-27.84 456.56,-23.04 455.63,-29.98"/>
</a>
</g>
</g>
<!-- Node3 -->
<g id="Node000003" class="node">
<title>Node3</title>
<g id="a_Node000003"><a xlink:href="../../d5/d81/_matrix___assembly___c_u_d_a___integration___example_8cpp_ab733b6db749fdfbc6665f7e34b50e5ad.html#ab733b6db749fdfbc6665f7e34b50e5ad" target="_top" xlink:title=" ">
<polygon fill="white" stroke="#666666" points="313.62,-116.5 170.12,-116.5 170.12,-86 313.62,-86 313.62,-116.5"/>
<text text-anchor="start" x="178.12" y="-103" font-family="Helvetica,sans-Serif" font-size="10.00">benchmark_matrix_assembly</text>
<text text-anchor="middle" x="241.88" y="-91.75" font-family="Helvetica,sans-Serif" font-size="10.00">_cpu_vs_cuda</text>
</a>
</g>
</g>
<!-- Node2&#45;&gt;Node3 -->
<g id="edge2_Node000002_Node000003" class="edge">
<title>Node2&#45;&gt;Node3</title>
<g id="a_edge2_Node000002_Node000003"><a xlink:title=" ">
<path fill="none" stroke="#63b8ff" d="M346.64,-71.45C331.18,-75.89 313.77,-80.89 297.69,-85.51"/>
<polygon fill="#63b8ff" stroke="#63b8ff" points="347.41,-74.87 356.06,-68.75 345.48,-68.15 347.41,-74.87"/>
</a>
</g>
</g>
<!-- Node5 -->
<g id="Node000005" class="node">
<title>Node5</title>
<g id="a_Node000005"><a xlink:href="../../d5/d81/_matrix___assembly___c_u_d_a___integration___example_8cpp_a3a3d77470391a4e87bd8c9864348d89f.html#a3a3d77470391a4e87bd8c9864348d89f" target="_top" xlink:title=" ">
<polygon fill="white" stroke="#666666" points="319.25,-67.88 164.5,-67.88 164.5,-48.62 319.25,-48.62 319.25,-67.88"/>
<text text-anchor="middle" x="241.88" y="-54.38" font-family="Helvetica,sans-Serif" font-size="10.00">validate_cuda_cpu_consistency</text>
</a>
</g>
</g>
<!-- Node2&#45;&gt;Node5 -->
<g id="edge4_Node000002_Node000005" class="edge">
<title>Node2&#45;&gt;Node5</title>
<g id="a_edge4_Node000002_Node000005"><a xlink:title=" ">
<path fill="none" stroke="#63b8ff" d="M346.07,-58.25C337.67,-58.25 328.72,-58.25 319.73,-58.25"/>
<polygon fill="#63b8ff" stroke="#63b8ff" points="346,-61.75 356,-58.25 346,-54.75 346,-61.75"/>
</a>
</g>
</g>
<!-- Node4 -->
<g id="Node000004" class="node">
<title>Node4</title>
<g id="a_Node000004"><a xlink:href="../../d5/d81/_matrix___assembly___c_u_d_a___integration___example_8cpp_a040fa30a7d9a31fc77785e00a27f6fa6.html#a040fa30a7d9a31fc77785e00a27f6fa6" target="_top" xlink:title=" ">
<polygon fill="white" stroke="#666666" points="128.5,-73.5 0,-73.5 0,-43 128.5,-43 128.5,-73.5"/>
<text text-anchor="start" x="8" y="-60" font-family="Helvetica,sans-Serif" font-size="10.00">demonstrate_cuda_matrix</text>
<text text-anchor="middle" x="64.25" y="-48.75" font-family="Helvetica,sans-Serif" font-size="10.00">_assembly</text>
</a>
</g>
</g>
<!-- Node3&#45;&gt;Node4 -->
<g id="edge3_Node000003_Node000004" class="edge">
<title>Node3&#45;&gt;Node4</title>
<g id="a_edge3_Node000003_Node000004"><a xlink:title=" ">
<path fill="none" stroke="#63b8ff" d="M166.16,-82.96C153.73,-79.91 140.93,-76.78 128.81,-73.81"/>
<polygon fill="#63b8ff" stroke="#63b8ff" points="164.96,-86.27 175.5,-85.24 166.62,-79.47 164.96,-86.27"/>
</a>
</g>
</g>
<!-- Node5&#45;&gt;Node4 -->
<g id="edge5_Node000005_Node000004" class="edge">
<title>Node5&#45;&gt;Node4</title>
<g id="a_edge5_Node000005_Node000004"><a xlink:title=" ">
<path fill="none" stroke="#63b8ff" d="M152.78,-58.25C144.76,-58.25 136.74,-58.25 128.99,-58.25"/>
<polygon fill="#63b8ff" stroke="#63b8ff" points="152.59,-61.75 162.59,-58.25 152.59,-54.75 152.59,-61.75"/>
</a>
</g>
</g>
<!-- Node7 -->
<g id="Node000007" class="node">
<title>Node7</title>
<g id="a_Node000007"><a xlink:href="../../d5/d81/_matrix___assembly___c_u_d_a___integration___example_8cpp_a5c8a4e884792f59235b7ed2070521d14.html#a5c8a4e884792f59235b7ed2070521d14" target="_top" xlink:title=" ">
<polygon fill="white" stroke="#666666" points="307.25,-30.5 176.5,-30.5 176.5,0 307.25,0 307.25,-30.5"/>
<text text-anchor="start" x="184.5" y="-17" font-family="Helvetica,sans-Serif" font-size="10.00">benchmark_sparse_matrix</text>
<text text-anchor="middle" x="241.88" y="-5.75" font-family="Helvetica,sans-Serif" font-size="10.00">_assembly</text>
</a>
</g>
</g>
<!-- Node6&#45;&gt;Node7 -->
<g id="edge7_Node000006_Node000007" class="edge">
<title>Node6&#45;&gt;Node7</title>
<g id="a_edge7_Node000006_Node000007"><a xlink:title=" ">
<path fill="none" stroke="#63b8ff" d="M343.35,-17.26C331.97,-17.03 319.68,-16.79 307.75,-16.55"/>
<polygon fill="#63b8ff" stroke="#63b8ff" points="343.26,-20.76 353.32,-17.46 343.4,-13.76 343.26,-20.76"/>
</a>
</g>
</g>
<!-- Node7&#45;&gt;Node4 -->
<g id="edge8_Node000007_Node000004" class="edge">
<title>Node7&#45;&gt;Node4</title>
<g id="a_edge8_Node000007_Node000004"><a xlink:title=" ">
<path fill="none" stroke="#63b8ff" d="M166.16,-33.54C153.73,-36.59 140.93,-39.72 128.81,-42.69"/>
<polygon fill="#63b8ff" stroke="#63b8ff" points="166.62,-37.03 175.5,-31.26 164.96,-30.23 166.62,-37.03"/>
</a>
</g>
</g>
</g>
</svg>
