<?xml version="1.0" encoding="UTF-8" standalone="no"?>
<!DOCTYPE svg PUBLIC "-//W3C//DTD SVG 1.1//EN"
 "http://www.w3.org/Graphics/SVG/1.1/DTD/svg11.dtd">
<!-- Generated by graphviz version 12.2.1 (20241206.2353)
 -->
<!-- Title: Point::Get_y Pages: 1 -->
<svg width="299pt" height="483pt"
 viewBox="0.00 0.00 299.00 483.25" xmlns="http://www.w3.org/2000/svg" xmlns:xlink="http://www.w3.org/1999/xlink">
<g id="graph0" class="graph" transform="scale(1 1) rotate(0) translate(4 479.25)">
<title>Point::Get_y</title>
<!-- Node1 -->
<g id="Node000001" class="node">
<title>Node1</title>
<g id="a_Node000001"><a xlink:title=" ">
<polygon fill="#999999" stroke="#666666" points="291,-253.25 220.25,-253.25 220.25,-234 291,-234 291,-253.25"/>
<text text-anchor="middle" x="255.62" y="-239.75" font-family="Helvetica,sans-Serif" font-size="10.00">Point::Get_y</text>
</a>
</g>
</g>
<!-- Node2 -->
<g id="Node000002" class="node">
<title>Node2</title>
<g id="a_Node000002"><a xlink:href="../../dd/db4/class_line_a11ee9e238e8e0d712b52ae99077355ee.html#a11ee9e238e8e0d712b52ae99077355ee" target="_top" xlink:title=" ">
<polygon fill="white" stroke="#666666" points="167.38,-475.25 89.88,-475.25 89.88,-456 167.38,-456 167.38,-475.25"/>
<text text-anchor="middle" x="128.62" y="-461.75" font-family="Helvetica,sans-Serif" font-size="10.00">Line::generate</text>
</a>
</g>
</g>
<!-- Node1&#45;&gt;Node2 -->
<g id="edge1_Node000001_Node000002" class="edge">
<title>Node1&#45;&gt;Node2</title>
<g id="a_edge1_Node000001_Node000002"><a xlink:title=" ">
<path fill="none" stroke="#63b8ff" d="M253.35,-264.74C249.73,-305.75 236,-396.59 184.25,-447.62 179.63,-452.18 173.83,-455.59 167.76,-458.13"/>
<polygon fill="#63b8ff" stroke="#63b8ff" points="256.83,-265.04 254.09,-254.8 249.85,-264.52 256.83,-265.04"/>
</a>
</g>
</g>
<!-- Node4 -->
<g id="Node000004" class="node">
<title>Node4</title>
<g id="a_Node000004"><a xlink:href="../../dd/db4/class_line_a4a897127139cddef19d6a8ef4edc0c94.html#a4a897127139cddef19d6a8ef4edc0c94" target="_top" xlink:title=" ">
<polygon fill="white" stroke="#666666" points="167.38,-438.25 89.88,-438.25 89.88,-419 167.38,-419 167.38,-438.25"/>
<text text-anchor="middle" x="128.62" y="-424.75" font-family="Helvetica,sans-Serif" font-size="10.00">Line::generate</text>
</a>
</g>
</g>
<!-- Node1&#45;&gt;Node4 -->
<g id="edge3_Node000001_Node000004" class="edge">
<title>Node1&#45;&gt;Node4</title>
<g id="a_edge3_Node000001_Node000004"><a xlink:title=" ">
<path fill="none" stroke="#63b8ff" d="M251.47,-264.77C245.12,-299.99 227.5,-370.72 184.25,-410.62 179.55,-414.96 173.79,-418.25 167.79,-420.75"/>
<polygon fill="#63b8ff" stroke="#63b8ff" points="254.91,-265.45 253.08,-255.02 248,-264.31 254.91,-265.45"/>
</a>
</g>
</g>
<!-- Node5 -->
<g id="Node000005" class="node">
<title>Node5</title>
<g id="a_Node000005"><a xlink:href="../../df/db8/_flow___over___cylinder_01_07_r_a_m_e_s_h_01_k_o_l_l_u_r_u_0js_01conflicted_01copy_012024-02-29_011_08_8cpp_ab766fe53fa00a373d26fe7b0ea437c7e.html#ab766fe53fa00a373d26fe7b0ea437c7e" target="_top" xlink:title=" ">
<polygon fill="white" stroke="#666666" points="166.62,-401.25 90.62,-401.25 90.62,-382 166.62,-382 166.62,-401.25"/>
<text text-anchor="middle" x="128.62" y="-387.75" font-family="Helvetica,sans-Serif" font-size="10.00">Generate_Arc</text>
</a>
</g>
</g>
<!-- Node1&#45;&gt;Node5 -->
<g id="edge4_Node000001_Node000005" class="edge">
<title>Node1&#45;&gt;Node5</title>
<g id="a_edge4_Node000001_Node000005"><a xlink:title=" ">
<path fill="none" stroke="#63b8ff" d="M248.71,-264.5C239.54,-293.13 219.22,-344.38 184.25,-373.62 179.19,-377.85 173.12,-381.1 166.88,-383.58"/>
<polygon fill="#63b8ff" stroke="#63b8ff" points="251.98,-265.77 251.53,-255.19 245.28,-263.74 251.98,-265.77"/>
</a>
</g>
</g>
<!-- Node6 -->
<g id="Node000006" class="node">
<title>Node6</title>
<g id="a_Node000006"><a xlink:href="../../df/db8/_flow___over___cylinder_01_07_r_a_m_e_s_h_01_k_o_l_l_u_r_u_0js_01conflicted_01copy_012024-02-29_011_08_8cpp_ab650ab603fec98e6c793a154c525d9d9.html#ab650ab603fec98e6c793a154c525d9d9" target="_top" xlink:title=" ">
<polygon fill="white" stroke="#666666" points="166.62,-364.25 90.62,-364.25 90.62,-345 166.62,-345 166.62,-364.25"/>
<text text-anchor="middle" x="128.62" y="-350.75" font-family="Helvetica,sans-Serif" font-size="10.00">Generate_Arc</text>
</a>
</g>
</g>
<!-- Node1&#45;&gt;Node6 -->
<g id="edge5_Node000001_Node000006" class="edge">
<title>Node1&#45;&gt;Node6</title>
<g id="a_edge5_Node000001_Node000006"><a xlink:title=" ">
<path fill="none" stroke="#63b8ff" d="M244.27,-263.7C232.44,-284.74 211.2,-317.36 184.25,-336.62 179.05,-340.34 173.04,-343.32 166.94,-345.71"/>
<polygon fill="#63b8ff" stroke="#63b8ff" points="247.32,-265.41 248.99,-254.95 241.16,-262.09 247.32,-265.41"/>
</a>
</g>
</g>
<!-- Node7 -->
<g id="Node000007" class="node">
<title>Node7</title>
<g id="a_Node000007"><a xlink:href="../../d5/db2/class_vector_a3979edf34764d8dba3c1c36a866d5c1b.html#a3979edf34764d8dba3c1c36a866d5c1b" target="_top" xlink:title=" ">
<polygon fill="white" stroke="#666666" points="174.5,-327.25 82.75,-327.25 82.75,-308 174.5,-308 174.5,-327.25"/>
<text text-anchor="middle" x="128.62" y="-313.75" font-family="Helvetica,sans-Serif" font-size="10.00">Vector::operator()</text>
</a>
</g>
</g>
<!-- Node1&#45;&gt;Node7 -->
<g id="edge6_Node000001_Node000007" class="edge">
<title>Node1&#45;&gt;Node7</title>
<g id="a_edge6_Node000001_Node000007"><a xlink:title=" ">
<path fill="none" stroke="#63b8ff" d="M236.15,-261.37C222.66,-273.52 203.45,-289.26 184.25,-299.62 178.63,-302.66 172.4,-305.31 166.23,-307.56"/>
<polygon fill="#63b8ff" stroke="#63b8ff" points="238.43,-264.02 243.39,-254.66 233.67,-258.89 238.43,-264.02"/>
</a>
</g>
</g>
<!-- Node8 -->
<g id="Node000008" class="node">
<title>Node8</title>
<g id="a_Node000008"><a xlink:href="../../d5/db2/class_vector_aec4a927c7615bb46d38a1f28859c40f2.html#aec4a927c7615bb46d38a1f28859c40f2" target="_top" xlink:title=" ">
<polygon fill="white" stroke="#666666" points="174.5,-290.25 82.75,-290.25 82.75,-271 174.5,-271 174.5,-290.25"/>
<text text-anchor="middle" x="128.62" y="-276.75" font-family="Helvetica,sans-Serif" font-size="10.00">Vector::operator()</text>
</a>
</g>
</g>
<!-- Node1&#45;&gt;Node8 -->
<g id="edge7_Node000001_Node000008" class="edge">
<title>Node1&#45;&gt;Node8</title>
<g id="a_edge7_Node000001_Node000008"><a xlink:title=" ">
<path fill="none" stroke="#63b8ff" d="M209.75,-256.91C194.59,-261.39 177.93,-266.33 163.74,-270.53"/>
<polygon fill="#63b8ff" stroke="#63b8ff" points="210.42,-260.36 219.02,-254.17 208.43,-253.65 210.42,-260.36"/>
</a>
</g>
</g>
<!-- Node9 -->
<g id="Node000009" class="node">
<title>Node9</title>
<g id="a_Node000009"><a xlink:href="../../dd/d11/class_cell_a93b38c08968d1c15d67b73a3d4fa9f08.html#a93b38c08968d1c15d67b73a3d4fa9f08" target="_top" xlink:title=" ">
<polygon fill="white" stroke="#666666" points="181.62,-253.25 75.62,-253.25 75.62,-234 181.62,-234 181.62,-253.25"/>
<text text-anchor="middle" x="128.62" y="-239.75" font-family="Helvetica,sans-Serif" font-size="10.00">Cell::Write_Cell_Info</text>
</a>
</g>
</g>
<!-- Node1&#45;&gt;Node9 -->
<g id="edge8_Node000001_Node000009" class="edge">
<title>Node1&#45;&gt;Node9</title>
<g id="a_edge8_Node000001_Node000009"><a xlink:title=" ">
<path fill="none" stroke="#63b8ff" d="M208.43,-243.62C199.83,-243.62 190.79,-243.62 182.03,-243.62"/>
<polygon fill="#63b8ff" stroke="#63b8ff" points="208.29,-247.13 218.29,-243.63 208.29,-240.13 208.29,-247.13"/>
</a>
</g>
</g>
<!-- Node10 -->
<g id="Node000010" class="node">
<title>Node10</title>
<g id="a_Node000010"><a xlink:href="../../d6/db0/class_cylinder_aa10bb5bf68e4678c80cc3a047e027a73.html#aa10bb5bf68e4678c80cc3a047e027a73" target="_top" xlink:title=" ">
<polygon fill="white" stroke="#666666" points="180.5,-215.88 76.75,-215.88 76.75,-185.38 180.5,-185.38 180.5,-215.88"/>
<text text-anchor="start" x="84.75" y="-202.38" font-family="Helvetica,sans-Serif" font-size="10.00">Cylinder::Write_Grid</text>
<text text-anchor="middle" x="128.62" y="-191.12" font-family="Helvetica,sans-Serif" font-size="10.00">_Plane</text>
</a>
</g>
</g>
<!-- Node1&#45;&gt;Node10 -->
<g id="edge9_Node000001_Node000010" class="edge">
<title>Node1&#45;&gt;Node10</title>
<g id="a_edge9_Node000001_Node000010"><a xlink:title=" ">
<path fill="none" stroke="#63b8ff" d="M214.73,-229.9C202.21,-225.59 188.28,-220.8 175.38,-216.37"/>
<polygon fill="#63b8ff" stroke="#63b8ff" points="213.29,-233.11 223.89,-233.05 215.57,-226.49 213.29,-233.11"/>
</a>
</g>
</g>
<!-- Node11 -->
<g id="Node000011" class="node">
<title>Node11</title>
<g id="a_Node000011"><a xlink:href="../../d0/d88/class_circle_a1b51f4d689330fecc65f3aa5dabf5c12.html#a1b51f4d689330fecc65f3aa5dabf5c12" target="_top" xlink:title=" ">
<polygon fill="white" stroke="#666666" points="179,-167.25 78.25,-167.25 78.25,-148 179,-148 179,-167.25"/>
<text text-anchor="middle" x="128.62" y="-153.75" font-family="Helvetica,sans-Serif" font-size="10.00">Circle::write_output</text>
</a>
</g>
</g>
<!-- Node1&#45;&gt;Node11 -->
<g id="edge10_Node000001_Node000011" class="edge">
<title>Node1&#45;&gt;Node11</title>
<g id="a_edge10_Node000001_Node000011"><a xlink:title=" ">
<path fill="none" stroke="#63b8ff" d="M239.28,-225.17C226.04,-210.28 205.72,-189.72 184.25,-176.62 178.51,-173.12 172.03,-170.15 165.59,-167.67"/>
<polygon fill="#63b8ff" stroke="#63b8ff" points="236.38,-227.17 245.57,-232.45 241.68,-222.6 236.38,-227.17"/>
</a>
</g>
</g>
<!-- Node12 -->
<g id="Node000012" class="node">
<title>Node12</title>
<g id="a_Node000012"><a xlink:href="../../d6/db0/class_cylinder_ac07a14950a1788e07ea25bc4dccebe20.html#ac07a14950a1788e07ea25bc4dccebe20" target="_top" xlink:title=" ">
<polygon fill="white" stroke="#666666" points="184.25,-130.25 73,-130.25 73,-111 184.25,-111 184.25,-130.25"/>
<text text-anchor="middle" x="128.62" y="-116.75" font-family="Helvetica,sans-Serif" font-size="10.00">Cylinder::write_output</text>
</a>
</g>
</g>
<!-- Node1&#45;&gt;Node12 -->
<g id="edge11_Node000001_Node000012" class="edge">
<title>Node1&#45;&gt;Node12</title>
<g id="a_edge11_Node000001_Node000012"><a xlink:title=" ">
<path fill="none" stroke="#63b8ff" d="M246.06,-223.38C235.07,-199.76 213.84,-161.09 184.25,-138.62 180.11,-135.49 175.41,-132.88 170.53,-130.72"/>
<polygon fill="#63b8ff" stroke="#63b8ff" points="242.74,-224.53 250.01,-232.25 249.14,-221.69 242.74,-224.53"/>
</a>
</g>
</g>
<!-- Node13 -->
<g id="Node000013" class="node">
<title>Node13</title>
<g id="a_Node000013"><a xlink:href="../../dd/db4/class_line_a6d2d9575fbe7f3e98e236d0778e7ab01.html#a6d2d9575fbe7f3e98e236d0778e7ab01" target="_top" xlink:title=" ">
<polygon fill="white" stroke="#666666" points="175.25,-93.25 82,-93.25 82,-74 175.25,-74 175.25,-93.25"/>
<text text-anchor="middle" x="128.62" y="-79.75" font-family="Helvetica,sans-Serif" font-size="10.00">Line::write_output</text>
</a>
</g>
</g>
<!-- Node1&#45;&gt;Node13 -->
<g id="edge12_Node000001_Node000013" class="edge">
<title>Node1&#45;&gt;Node13</title>
<g id="a_edge12_Node000001_Node000013"><a xlink:title=" ">
<path fill="none" stroke="#63b8ff" d="M249.74,-222.63C241.49,-191.76 221.88,-134.27 184.25,-101.62 180.63,-98.48 176.45,-95.89 172.04,-93.74"/>
<polygon fill="#63b8ff" stroke="#63b8ff" points="246.33,-223.42 252.15,-232.27 253.12,-221.72 246.33,-223.42"/>
</a>
</g>
</g>
<!-- Node14 -->
<g id="Node000014" class="node">
<title>Node14</title>
<g id="a_Node000014"><a xlink:href="../../d8/d83/class_object_aa4340f6b0922bb0e01cd9cb7e0235401.html#aa4340f6b0922bb0e01cd9cb7e0235401" target="_top" xlink:title=" ">
<polygon fill="white" stroke="#666666" points="180.5,-56.25 76.75,-56.25 76.75,-37 180.5,-37 180.5,-56.25"/>
<text text-anchor="middle" x="128.62" y="-42.75" font-family="Helvetica,sans-Serif" font-size="10.00">Object::write_output</text>
</a>
</g>
</g>
<!-- Node1&#45;&gt;Node14 -->
<g id="edge13_Node000001_Node000014" class="edge">
<title>Node1&#45;&gt;Node14</title>
<g id="a_edge13_Node000001_Node000014"><a xlink:title=" ">
<path fill="none" stroke="#63b8ff" d="M252.17,-222.55C246.73,-185.4 230.27,-108.12 184.25,-64.62 180.91,-61.47 177.01,-58.87 172.85,-56.72"/>
<polygon fill="#63b8ff" stroke="#63b8ff" points="248.69,-222.93 253.46,-232.39 255.63,-222.02 248.69,-222.93"/>
</a>
</g>
</g>
<!-- Node15 -->
<g id="Node000015" class="node">
<title>Node15</title>
<g id="a_Node000015"><a xlink:href="../../d8/d83/class_object_a398cd1b96d69d414a801946ea5b7b436.html#a398cd1b96d69d414a801946ea5b7b436" target="_top" xlink:title=" ">
<polygon fill="white" stroke="#666666" points="180.5,-19.25 76.75,-19.25 76.75,0 180.5,0 180.5,-19.25"/>
<text text-anchor="middle" x="128.62" y="-5.75" font-family="Helvetica,sans-Serif" font-size="10.00">Object::write_output</text>
</a>
</g>
</g>
<!-- Node1&#45;&gt;Node15 -->
<g id="edge14_Node000001_Node000015" class="edge">
<title>Node1&#45;&gt;Node15</title>
<g id="a_edge14_Node000001_Node000015"><a xlink:title=" ">
<path fill="none" stroke="#63b8ff" d="M253.82,-222.45C251.05,-179.66 238.75,-82.31 184.25,-27.62 181.08,-24.44 177.33,-21.82 173.32,-19.67"/>
<polygon fill="#63b8ff" stroke="#63b8ff" points="250.32,-222.55 254.33,-232.36 257.31,-222.19 250.32,-222.55"/>
</a>
</g>
</g>
<!-- Node3 -->
<g id="Node000003" class="node">
<title>Node3</title>
<g id="a_Node000003"><a xlink:href="../../d6/da1/_half___cylinder_8cpp_ae66f6b31b5ad750f1fe042a706a4e3d4.html#ae66f6b31b5ad750f1fe042a706a4e3d4" target="_top" xlink:title=" ">
<polygon fill="white" stroke="#666666" points="37,-475.25 0,-475.25 0,-456 37,-456 37,-475.25"/>
<text text-anchor="middle" x="18.5" y="-461.75" font-family="Helvetica,sans-Serif" font-size="10.00">main</text>
</a>
</g>
</g>
<!-- Node2&#45;&gt;Node3 -->
<g id="edge2_Node000002_Node000003" class="edge">
<title>Node2&#45;&gt;Node3</title>
<g id="a_edge2_Node000002_Node000003"><a xlink:title=" ">
<path fill="none" stroke="#63b8ff" d="M78.01,-465.62C63.47,-465.62 48.49,-465.62 37.33,-465.62"/>
<polygon fill="#63b8ff" stroke="#63b8ff" points="77.99,-469.13 87.99,-465.63 77.99,-462.13 77.99,-469.13"/>
</a>
</g>
</g>
</g>
</svg>
