<?xml version="1.0" encoding="UTF-8" standalone="no"?>
<!DOCTYPE svg PUBLIC "-//W3C//DTD SVG 1.1//EN"
 "http://www.w3.org/Graphics/SVG/1.1/DTD/svg11.dtd">
<!-- Generated by graphviz version 12.2.1 (20241206.2353)
 -->
<!-- Title: Point::Get_z Pages: 1 -->
<svg width="306pt" height="520pt"
 viewBox="0.00 0.00 305.75 520.25" xmlns="http://www.w3.org/2000/svg" xmlns:xlink="http://www.w3.org/1999/xlink">
<g id="graph0" class="graph" transform="scale(1 1) rotate(0) translate(4 516.25)">
<title>Point::Get_z</title>
<!-- Node1 -->
<g id="Node000001" class="node">
<title>Node1</title>
<g id="a_Node000001"><a xlink:title=" ">
<polygon fill="#999999" stroke="#666666" points="297.75,-259.25 227,-259.25 227,-240 297.75,-240 297.75,-259.25"/>
<text text-anchor="middle" x="262.38" y="-245.75" font-family="Helvetica,sans-Serif" font-size="10.00">Point::Get_z</text>
</a>
</g>
</g>
<!-- Node2 -->
<g id="Node000002" class="node">
<title>Node2</title>
<g id="a_Node000002"><a xlink:href="../../dd/db4/class_line_a11ee9e238e8e0d712b52ae99077355ee.html#a11ee9e238e8e0d712b52ae99077355ee" target="_top" xlink:title=" ">
<polygon fill="white" stroke="#666666" points="170.75,-512.25 93.25,-512.25 93.25,-493 170.75,-493 170.75,-512.25"/>
<text text-anchor="middle" x="132" y="-498.75" font-family="Helvetica,sans-Serif" font-size="10.00">Line::generate</text>
</a>
</g>
</g>
<!-- Node1&#45;&gt;Node2 -->
<g id="edge1_Node000001_Node000002" class="edge">
<title>Node1&#45;&gt;Node2</title>
<g id="a_edge1_Node000001_Node000002"><a xlink:title=" ">
<path fill="none" stroke="#63b8ff" d="M261.33,-270.54C260.06,-315.98 250.58,-424.45 191,-484.62 185.58,-490.09 178.54,-493.91 171.24,-496.57"/>
<polygon fill="#63b8ff" stroke="#63b8ff" points="264.82,-270.83 261.48,-260.77 257.82,-270.72 264.82,-270.83"/>
</a>
</g>
</g>
<!-- Node4 -->
<g id="Node000004" class="node">
<title>Node4</title>
<g id="a_Node000004"><a xlink:href="../../dd/db4/class_line_a4a897127139cddef19d6a8ef4edc0c94.html#a4a897127139cddef19d6a8ef4edc0c94" target="_top" xlink:title=" ">
<polygon fill="white" stroke="#666666" points="170.75,-475.25 93.25,-475.25 93.25,-456 170.75,-456 170.75,-475.25"/>
<text text-anchor="middle" x="132" y="-461.75" font-family="Helvetica,sans-Serif" font-size="10.00">Line::generate</text>
</a>
</g>
</g>
<!-- Node1&#45;&gt;Node4 -->
<g id="edge3_Node000001_Node000004" class="edge">
<title>Node1&#45;&gt;Node4</title>
<g id="a_edge3_Node000001_Node000004"><a xlink:title=" ">
<path fill="none" stroke="#63b8ff" d="M259.92,-270.77C256.01,-310.99 241.81,-398.83 191,-447.62 185.45,-452.96 178.35,-456.71 171.03,-459.35"/>
<polygon fill="#63b8ff" stroke="#63b8ff" points="263.39,-271.26 260.74,-261.01 256.42,-270.68 263.39,-271.26"/>
</a>
</g>
</g>
<!-- Node5 -->
<g id="Node000005" class="node">
<title>Node5</title>
<g id="a_Node000005"><a xlink:href="../../d5/db2/class_vector_a3979edf34764d8dba3c1c36a866d5c1b.html#a3979edf34764d8dba3c1c36a866d5c1b" target="_top" xlink:title=" ">
<polygon fill="white" stroke="#666666" points="177.88,-438.25 86.12,-438.25 86.12,-419 177.88,-419 177.88,-438.25"/>
<text text-anchor="middle" x="132" y="-424.75" font-family="Helvetica,sans-Serif" font-size="10.00">Vector::operator()</text>
</a>
</g>
</g>
<!-- Node1&#45;&gt;Node5 -->
<g id="edge4_Node000001_Node000005" class="edge">
<title>Node1&#45;&gt;Node5</title>
<g id="a_edge4_Node000001_Node000005"><a xlink:title=" ">
<path fill="none" stroke="#63b8ff" d="M257.97,-270.59C251.3,-304.84 233.32,-372.77 191,-410.62 187.23,-414 182.83,-416.74 178.18,-418.97"/>
<polygon fill="#63b8ff" stroke="#63b8ff" points="261.35,-271.56 259.67,-261.1 254.46,-270.33 261.35,-271.56"/>
</a>
</g>
</g>
<!-- Node6 -->
<g id="Node000006" class="node">
<title>Node6</title>
<g id="a_Node000006"><a xlink:href="../../d5/db2/class_vector_aec4a927c7615bb46d38a1f28859c40f2.html#aec4a927c7615bb46d38a1f28859c40f2" target="_top" xlink:title=" ">
<polygon fill="white" stroke="#666666" points="177.88,-401.25 86.12,-401.25 86.12,-382 177.88,-382 177.88,-401.25"/>
<text text-anchor="middle" x="132" y="-387.75" font-family="Helvetica,sans-Serif" font-size="10.00">Vector::operator()</text>
</a>
</g>
</g>
<!-- Node1&#45;&gt;Node6 -->
<g id="edge5_Node000001_Node000006" class="edge">
<title>Node1&#45;&gt;Node6</title>
<g id="a_edge5_Node000001_Node000006"><a xlink:title=" ">
<path fill="none" stroke="#63b8ff" d="M254.99,-270.4C245.46,-297.96 224.93,-346.31 191,-373.62 187.06,-376.8 182.55,-379.41 177.84,-381.57"/>
<polygon fill="#63b8ff" stroke="#63b8ff" points="258.25,-271.7 258.03,-261.1 251.59,-269.52 258.25,-271.7"/>
</a>
</g>
</g>
<!-- Node7 -->
<g id="Node000007" class="node">
<title>Node7</title>
<g id="a_Node000007"><a xlink:href="../../dc/d9f/struct_cell_a93b38c08968d1c15d67b73a3d4fa9f08.html#a93b38c08968d1c15d67b73a3d4fa9f08" target="_top" xlink:title=" ">
<polygon fill="white" stroke="#666666" points="185,-364.25 79,-364.25 79,-345 185,-345 185,-364.25"/>
<text text-anchor="middle" x="132" y="-350.75" font-family="Helvetica,sans-Serif" font-size="10.00">Cell::Write_Cell_Info</text>
</a>
</g>
</g>
<!-- Node1&#45;&gt;Node7 -->
<g id="edge6_Node000001_Node000007" class="edge">
<title>Node1&#45;&gt;Node7</title>
<g id="a_edge6_Node000001_Node000007"><a xlink:title=" ">
<path fill="none" stroke="#63b8ff" d="M249.92,-269.36C237.67,-288.83 216.51,-318.14 191,-335.62 185.76,-339.22 179.78,-342.17 173.71,-344.59"/>
<polygon fill="#63b8ff" stroke="#63b8ff" points="252.81,-271.35 255,-260.99 246.82,-267.72 252.81,-271.35"/>
</a>
</g>
</g>
<!-- Node8 -->
<g id="Node000008" class="node">
<title>Node8</title>
<g id="a_Node000008"><a xlink:href="../../d6/db0/class_cylinder_aa10bb5bf68e4678c80cc3a047e027a73.html#aa10bb5bf68e4678c80cc3a047e027a73" target="_top" xlink:title=" ">
<polygon fill="white" stroke="#666666" points="183.88,-326.88 80.12,-326.88 80.12,-296.38 183.88,-296.38 183.88,-326.88"/>
<text text-anchor="start" x="88.12" y="-313.38" font-family="Helvetica,sans-Serif" font-size="10.00">Cylinder::Write_Grid</text>
<text text-anchor="middle" x="132" y="-302.12" font-family="Helvetica,sans-Serif" font-size="10.00">_Plane</text>
</a>
</g>
</g>
<!-- Node1&#45;&gt;Node8 -->
<g id="edge7_Node000001_Node000008" class="edge">
<title>Node1&#45;&gt;Node8</title>
<g id="a_edge7_Node000001_Node000008"><a xlink:title=" ">
<path fill="none" stroke="#63b8ff" d="M234.3,-265.09C221.36,-272.26 205.55,-280.71 191,-287.62 185.09,-290.43 178.77,-293.24 172.55,-295.9"/>
<polygon fill="#63b8ff" stroke="#63b8ff" points="235.66,-268.34 242.67,-260.4 232.24,-262.23 235.66,-268.34"/>
</a>
</g>
</g>
<!-- Node9 -->
<g id="Node000009" class="node">
<title>Node9</title>
<g id="a_Node000009"><a xlink:href="../../d6/db0/class_cylinder_adee82880ee1d056d1b99ac7bc1523ab5.html#adee82880ee1d056d1b99ac7bc1523ab5" target="_top" xlink:title=" ">
<polygon fill="white" stroke="#666666" points="191,-278.25 73,-278.25 73,-259 191,-259 191,-278.25"/>
<text text-anchor="middle" x="132" y="-264.75" font-family="Helvetica,sans-Serif" font-size="10.00">Cylinder::write_inputfile</text>
</a>
</g>
</g>
<!-- Node1&#45;&gt;Node9 -->
<g id="edge8_Node000001_Node000009" class="edge">
<title>Node1&#45;&gt;Node9</title>
<g id="a_edge8_Node000001_Node000009"><a xlink:title=" ">
<path fill="none" stroke="#63b8ff" d="M215.4,-256.43C207.5,-257.6 199.19,-258.83 191.02,-260.04"/>
<polygon fill="#63b8ff" stroke="#63b8ff" points="215.76,-259.91 225.14,-254.99 214.73,-252.99 215.76,-259.91"/>
</a>
</g>
</g>
<!-- Node10 -->
<g id="Node000010" class="node">
<title>Node10</title>
<g id="a_Node000010"><a xlink:href="../../d8/da4/_basic___function___files_2_utility___files_8cpp_a1806c9bdc33333618bf77f93d37e42cc.html#a1806c9bdc33333618bf77f93d37e42cc" target="_top" xlink:title=" ">
<polygon fill="white" stroke="#666666" points="170,-241.25 94,-241.25 94,-222 170,-222 170,-241.25"/>
<text text-anchor="middle" x="132" y="-227.75" font-family="Helvetica,sans-Serif" font-size="10.00">write_inputfile</text>
</a>
</g>
</g>
<!-- Node1&#45;&gt;Node10 -->
<g id="edge9_Node000001_Node000010" class="edge">
<title>Node1&#45;&gt;Node10</title>
<g id="a_edge9_Node000001_Node000010"><a xlink:title=" ">
<path fill="none" stroke="#63b8ff" d="M215.65,-243.21C200.84,-241.14 184.6,-238.86 170.47,-236.88"/>
<polygon fill="#63b8ff" stroke="#63b8ff" points="214.75,-246.62 225.14,-244.54 215.72,-239.69 214.75,-246.62"/>
</a>
</g>
</g>
<!-- Node11 -->
<g id="Node000011" class="node">
<title>Node11</title>
<g id="a_Node000011"><a xlink:href="../../d8/da4/_basic___function___files_2_utility___files_8cpp_a082ea797047ef6aa2db58d348a130bec.html#a082ea797047ef6aa2db58d348a130bec" target="_top" xlink:title=" ">
<polygon fill="white" stroke="#666666" points="170,-204.25 94,-204.25 94,-185 170,-185 170,-204.25"/>
<text text-anchor="middle" x="132" y="-190.75" font-family="Helvetica,sans-Serif" font-size="10.00">write_inputfile</text>
</a>
</g>
</g>
<!-- Node1&#45;&gt;Node11 -->
<g id="edge10_Node000001_Node000011" class="edge">
<title>Node1&#45;&gt;Node11</title>
<g id="a_edge10_Node000001_Node000011"><a xlink:title=" ">
<path fill="none" stroke="#63b8ff" d="M234.79,-234.17C221.84,-227.03 205.89,-218.79 191,-212.62 183.99,-209.72 176.33,-207.03 168.95,-204.65"/>
<polygon fill="#63b8ff" stroke="#63b8ff" points="232.69,-237.01 243.13,-238.86 236.12,-230.91 232.69,-237.01"/>
</a>
</g>
</g>
<!-- Node12 -->
<g id="Node000012" class="node">
<title>Node12</title>
<g id="a_Node000012"><a xlink:href="../../d6/db0/class_cylinder_ac07a14950a1788e07ea25bc4dccebe20.html#ac07a14950a1788e07ea25bc4dccebe20" target="_top" xlink:title=" ">
<polygon fill="white" stroke="#666666" points="187.62,-167.25 76.38,-167.25 76.38,-148 187.62,-148 187.62,-167.25"/>
<text text-anchor="middle" x="132" y="-153.75" font-family="Helvetica,sans-Serif" font-size="10.00">Cylinder::write_output</text>
</a>
</g>
</g>
<!-- Node1&#45;&gt;Node12 -->
<g id="edge11_Node000001_Node000012" class="edge">
<title>Node1&#45;&gt;Node12</title>
<g id="a_edge11_Node000001_Node000012"><a xlink:title=" ">
<path fill="none" stroke="#63b8ff" d="M247.97,-230.81C235.13,-214.08 214.29,-190.09 191,-175.62 185.98,-172.51 180.39,-169.9 174.7,-167.71"/>
<polygon fill="#63b8ff" stroke="#63b8ff" points="244.89,-232.54 253.67,-238.48 250.51,-228.37 244.89,-232.54"/>
</a>
</g>
</g>
<!-- Node13 -->
<g id="Node000013" class="node">
<title>Node13</title>
<g id="a_Node000013"><a xlink:href="../../dd/db4/class_line_a6d2d9575fbe7f3e98e236d0778e7ab01.html#a6d2d9575fbe7f3e98e236d0778e7ab01" target="_top" xlink:title=" ">
<polygon fill="white" stroke="#666666" points="178.62,-130.25 85.38,-130.25 85.38,-111 178.62,-111 178.62,-130.25"/>
<text text-anchor="middle" x="132" y="-116.75" font-family="Helvetica,sans-Serif" font-size="10.00">Line::write_output</text>
</a>
</g>
</g>
<!-- Node1&#45;&gt;Node13 -->
<g id="edge12_Node000001_Node000013" class="edge">
<title>Node1&#45;&gt;Node13</title>
<g id="a_edge12_Node000001_Node000013"><a xlink:title=" ">
<path fill="none" stroke="#63b8ff" d="M253.64,-229.23C243.17,-204.29 222.13,-162.45 191,-138.62 186.9,-135.48 182.24,-132.89 177.39,-130.74"/>
<polygon fill="#63b8ff" stroke="#63b8ff" points="250.3,-230.28 257.26,-238.27 256.79,-227.68 250.3,-230.28"/>
</a>
</g>
</g>
<!-- Node14 -->
<g id="Node000014" class="node">
<title>Node14</title>
<g id="a_Node000014"><a xlink:href="../../d6/db0/class_cylinder_aac12822694a04950940a5f86e8580b29.html#aac12822694a04950940a5f86e8580b29" target="_top" xlink:title=" ">
<polygon fill="white" stroke="#666666" points="183.88,-93.25 80.12,-93.25 80.12,-74 183.88,-74 183.88,-93.25"/>
<text text-anchor="middle" x="132" y="-79.75" font-family="Helvetica,sans-Serif" font-size="10.00">Cylinder::write_VTK</text>
</a>
</g>
</g>
<!-- Node1&#45;&gt;Node14 -->
<g id="edge13_Node000001_Node000014" class="edge">
<title>Node1&#45;&gt;Node14</title>
<g id="a_edge13_Node000001_Node000014"><a xlink:title=" ">
<path fill="none" stroke="#63b8ff" d="M257.04,-228.57C249.35,-196.53 230.3,-135.67 191,-101.62 187.33,-98.45 183.11,-95.83 178.66,-93.68"/>
<polygon fill="#63b8ff" stroke="#63b8ff" points="253.59,-229.2 259.19,-238.2 260.42,-227.67 253.59,-229.2"/>
</a>
</g>
</g>
<!-- Node15 -->
<g id="Node000015" class="node">
<title>Node15</title>
<g id="a_Node000015"><a xlink:href="../../d8/da4/_basic___function___files_2_utility___files_8cpp_a1c3d0314e803d8d2211bd8d8e247df39.html#a1c3d0314e803d8d2211bd8d8e247df39" target="_top" xlink:title=" ">
<polygon fill="white" stroke="#666666" points="162.88,-56.25 101.12,-56.25 101.12,-37 162.88,-37 162.88,-56.25"/>
<text text-anchor="middle" x="132" y="-42.75" font-family="Helvetica,sans-Serif" font-size="10.00">write_VTK</text>
</a>
</g>
</g>
<!-- Node1&#45;&gt;Node15 -->
<g id="edge14_Node000001_Node000015" class="edge">
<title>Node1&#45;&gt;Node15</title>
<g id="a_edge14_Node000001_Node000015"><a xlink:title=" ">
<path fill="none" stroke="#63b8ff" d="M259.28,-228.27C254.38,-189.98 238.71,-109.44 191,-64.62 183.39,-57.48 172.99,-53.17 163.1,-50.57"/>
<polygon fill="#63b8ff" stroke="#63b8ff" points="255.78,-228.48 260.39,-238.02 262.74,-227.69 255.78,-228.48"/>
</a>
</g>
</g>
<!-- Node16 -->
<g id="Node000016" class="node">
<title>Node16</title>
<g id="a_Node000016"><a xlink:href="../../d8/da4/_basic___function___files_2_utility___files_8cpp_a84a5b7ce041d820bbec26077adcb24f5.html#a84a5b7ce041d820bbec26077adcb24f5" target="_top" xlink:title=" ">
<polygon fill="white" stroke="#666666" points="162.88,-19.25 101.12,-19.25 101.12,0 162.88,0 162.88,-19.25"/>
<text text-anchor="middle" x="132" y="-5.75" font-family="Helvetica,sans-Serif" font-size="10.00">write_VTK</text>
</a>
</g>
</g>
<!-- Node1&#45;&gt;Node16 -->
<g id="edge15_Node000001_Node000016" class="edge">
<title>Node1&#45;&gt;Node16</title>
<g id="a_edge15_Node000001_Node000016"><a xlink:title=" ">
<path fill="none" stroke="#63b8ff" d="M260.86,-228.08C258.62,-184.12 247.25,-83.54 191,-27.62 183.6,-20.27 173.25,-15.91 163.33,-13.33"/>
<polygon fill="#63b8ff" stroke="#63b8ff" points="257.36,-228.2 261.24,-238.06 264.35,-227.93 257.36,-228.2"/>
</a>
</g>
</g>
<!-- Node3 -->
<g id="Node000003" class="node">
<title>Node3</title>
<g id="a_Node000003"><a xlink:href="../../d7/d19/_test___line_8cpp_ae66f6b31b5ad750f1fe042a706a4e3d4.html#ae66f6b31b5ad750f1fe042a706a4e3d4" target="_top" xlink:title=" ">
<polygon fill="white" stroke="#666666" points="37,-512.25 0,-512.25 0,-493 37,-493 37,-512.25"/>
<text text-anchor="middle" x="18.5" y="-498.75" font-family="Helvetica,sans-Serif" font-size="10.00">main</text>
</a>
</g>
</g>
<!-- Node2&#45;&gt;Node3 -->
<g id="edge2_Node000002_Node000003" class="edge">
<title>Node2&#45;&gt;Node3</title>
<g id="a_edge2_Node000002_Node000003"><a xlink:title=" ">
<path fill="none" stroke="#63b8ff" d="M81.66,-502.62C65.89,-502.62 49.43,-502.62 37.41,-502.62"/>
<polygon fill="#63b8ff" stroke="#63b8ff" points="81.43,-506.13 91.43,-502.63 81.43,-499.13 81.43,-506.13"/>
</a>
</g>
</g>
</g>
</svg>
