<?xml version="1.0" encoding="UTF-8" standalone="no"?>
<!DOCTYPE svg PUBLIC "-//W3C//DTD SVG 1.1//EN"
 "http://www.w3.org/Graphics/SVG/1.1/DTD/svg11.dtd">
<!-- Generated by graphviz version 12.2.1 (20241206.2353)
 -->
<!-- Title: Point::Get_x Pages: 1 -->
<svg width="306pt" height="631pt"
 viewBox="0.00 0.00 305.75 631.25" xmlns="http://www.w3.org/2000/svg" xmlns:xlink="http://www.w3.org/1999/xlink">
<g id="graph0" class="graph" transform="scale(1 1) rotate(0) translate(4 627.25)">
<title>Point::Get_x</title>
<!-- Node1 -->
<g id="Node000001" class="node">
<title>Node1</title>
<g id="a_Node000001"><a xlink:title=" ">
<polygon fill="#999999" stroke="#666666" points="297.75,-315.25 227,-315.25 227,-296 297.75,-296 297.75,-315.25"/>
<text text-anchor="middle" x="262.38" y="-301.75" font-family="Helvetica,sans-Serif" font-size="10.00">Point::Get_x</text>
</a>
</g>
</g>
<!-- Node2 -->
<g id="Node000002" class="node">
<title>Node2</title>
<g id="a_Node000002"><a xlink:href="../../dd/db4/class_line_a11ee9e238e8e0d712b52ae99077355ee.html#a11ee9e238e8e0d712b52ae99077355ee" target="_top" xlink:title=" ">
<polygon fill="white" stroke="#666666" points="170.75,-623.25 93.25,-623.25 93.25,-604 170.75,-604 170.75,-623.25"/>
<text text-anchor="middle" x="132" y="-609.75" font-family="Helvetica,sans-Serif" font-size="10.00">Line::generate</text>
</a>
</g>
</g>
<!-- Node1&#45;&gt;Node2 -->
<g id="edge1_Node000001_Node000002" class="edge">
<title>Node1&#45;&gt;Node2</title>
<g id="a_edge1_Node000001_Node000002"><a xlink:title=" ">
<path fill="none" stroke="#63b8ff" d="M258.94,-326.84C251.65,-386.84 228.17,-556.04 191,-595.62 185.66,-601.31 178.56,-605.22 171.16,-607.89"/>
<polygon fill="#63b8ff" stroke="#63b8ff" points="262.41,-327.33 260.11,-316.99 255.46,-326.51 262.41,-327.33"/>
</a>
</g>
</g>
<!-- Node4 -->
<g id="Node000004" class="node">
<title>Node4</title>
<g id="a_Node000004"><a xlink:href="../../dd/db4/class_line_a4a897127139cddef19d6a8ef4edc0c94.html#a4a897127139cddef19d6a8ef4edc0c94" target="_top" xlink:title=" ">
<polygon fill="white" stroke="#666666" points="170.75,-586.25 93.25,-586.25 93.25,-567 170.75,-567 170.75,-586.25"/>
<text text-anchor="middle" x="132" y="-572.75" font-family="Helvetica,sans-Serif" font-size="10.00">Line::generate</text>
</a>
</g>
</g>
<!-- Node1&#45;&gt;Node4 -->
<g id="edge3_Node000001_Node000004" class="edge">
<title>Node1&#45;&gt;Node4</title>
<g id="a_edge3_Node000001_Node000004"><a xlink:title=" ">
<path fill="none" stroke="#63b8ff" d="M261.86,-327.15C261.75,-375.41 254.56,-493.15 191,-558.62 185.57,-564.22 178.43,-568.09 171.02,-570.76"/>
<polygon fill="#63b8ff" stroke="#63b8ff" points="265.36,-327.2 261.77,-317.23 258.36,-327.27 265.36,-327.2"/>
</a>
</g>
</g>
<!-- Node5 -->
<g id="Node000005" class="node">
<title>Node5</title>
<g id="a_Node000005"><a xlink:href="../../d5/db2/class_vector_a3979edf34764d8dba3c1c36a866d5c1b.html#a3979edf34764d8dba3c1c36a866d5c1b" target="_top" xlink:title=" ">
<polygon fill="white" stroke="#666666" points="177.88,-549.25 86.12,-549.25 86.12,-530 177.88,-530 177.88,-549.25"/>
<text text-anchor="middle" x="132" y="-535.75" font-family="Helvetica,sans-Serif" font-size="10.00">Vector::operator()</text>
</a>
</g>
</g>
<!-- Node1&#45;&gt;Node5 -->
<g id="edge4_Node000001_Node000005" class="edge">
<title>Node1&#45;&gt;Node5</title>
<g id="a_edge4_Node000001_Node000005"><a xlink:title=" ">
<path fill="none" stroke="#63b8ff" d="M260.65,-326.88C258.02,-369.82 245.97,-467.42 191,-521.62 187.32,-525.25 182.93,-528.15 178.22,-530.47"/>
<polygon fill="#63b8ff" stroke="#63b8ff" points="264.14,-327.08 261.13,-316.93 257.15,-326.75 264.14,-327.08"/>
</a>
</g>
</g>
<!-- Node6 -->
<g id="Node000006" class="node">
<title>Node6</title>
<g id="a_Node000006"><a xlink:href="../../d5/db2/class_vector_aec4a927c7615bb46d38a1f28859c40f2.html#aec4a927c7615bb46d38a1f28859c40f2" target="_top" xlink:title=" ">
<polygon fill="white" stroke="#666666" points="177.88,-512.25 86.12,-512.25 86.12,-493 177.88,-493 177.88,-512.25"/>
<text text-anchor="middle" x="132" y="-498.75" font-family="Helvetica,sans-Serif" font-size="10.00">Vector::operator()</text>
</a>
</g>
</g>
<!-- Node1&#45;&gt;Node6 -->
<g id="edge5_Node000001_Node000006" class="edge">
<title>Node1&#45;&gt;Node6</title>
<g id="a_edge5_Node000001_Node000006"><a xlink:title=" ">
<path fill="none" stroke="#63b8ff" d="M258.99,-326.78C253.67,-364.05 237.4,-441.53 191,-484.62 187.29,-488.07 182.94,-490.85 178.3,-493.11"/>
<polygon fill="#63b8ff" stroke="#63b8ff" points="262.46,-327.27 260.26,-316.9 255.52,-326.38 262.46,-327.27"/>
</a>
</g>
</g>
<!-- Node7 -->
<g id="Node000007" class="node">
<title>Node7</title>
<g id="a_Node000007"><a xlink:href="../../dc/d9f/struct_cell_a93b38c08968d1c15d67b73a3d4fa9f08.html#a93b38c08968d1c15d67b73a3d4fa9f08" target="_top" xlink:title=" ">
<polygon fill="white" stroke="#666666" points="185,-475.25 79,-475.25 79,-456 185,-456 185,-475.25"/>
<text text-anchor="middle" x="132" y="-461.75" font-family="Helvetica,sans-Serif" font-size="10.00">Cell::Write_Cell_Info</text>
</a>
</g>
</g>
<!-- Node1&#45;&gt;Node7 -->
<g id="edge6_Node000001_Node000007" class="edge">
<title>Node1&#45;&gt;Node7</title>
<g id="a_edge6_Node000001_Node000007"><a xlink:title=" ">
<path fill="none" stroke="#63b8ff" d="M256.45,-326.48C248.15,-357.14 228.49,-414.25 191,-446.62 186.83,-450.23 181.96,-453.15 176.85,-455.52"/>
<polygon fill="#63b8ff" stroke="#63b8ff" points="259.81,-327.47 258.88,-316.91 253.03,-325.74 259.81,-327.47"/>
</a>
</g>
</g>
<!-- Node8 -->
<g id="Node000008" class="node">
<title>Node8</title>
<g id="a_Node000008"><a xlink:href="../../d6/db0/class_cylinder_aa10bb5bf68e4678c80cc3a047e027a73.html#aa10bb5bf68e4678c80cc3a047e027a73" target="_top" xlink:title=" ">
<polygon fill="white" stroke="#666666" points="183.88,-437.88 80.12,-437.88 80.12,-407.38 183.88,-407.38 183.88,-437.88"/>
<text text-anchor="start" x="88.12" y="-424.38" font-family="Helvetica,sans-Serif" font-size="10.00">Cylinder::Write_Grid</text>
<text text-anchor="middle" x="132" y="-413.12" font-family="Helvetica,sans-Serif" font-size="10.00">_Plane</text>
</a>
</g>
</g>
<!-- Node1&#45;&gt;Node8 -->
<g id="edge7_Node000001_Node000008" class="edge">
<title>Node1&#45;&gt;Node8</title>
<g id="a_edge7_Node000001_Node000008"><a xlink:title=" ">
<path fill="none" stroke="#63b8ff" d="M250.55,-325.64C238.44,-346.36 217.08,-378.48 191,-398.62 186.95,-401.76 182.43,-404.55 177.75,-407.02"/>
<polygon fill="#63b8ff" stroke="#63b8ff" points="253.54,-327.45 255.4,-317.02 247.44,-324.01 253.54,-327.45"/>
</a>
</g>
</g>
<!-- Node9 -->
<g id="Node000009" class="node">
<title>Node9</title>
<g id="a_Node000009"><a xlink:href="../../d6/db0/class_cylinder_adee82880ee1d056d1b99ac7bc1523ab5.html#adee82880ee1d056d1b99ac7bc1523ab5" target="_top" xlink:title=" ">
<polygon fill="white" stroke="#666666" points="191,-389.25 73,-389.25 73,-370 191,-370 191,-389.25"/>
<text text-anchor="middle" x="132" y="-375.75" font-family="Helvetica,sans-Serif" font-size="10.00">Cylinder::write_inputfile</text>
</a>
</g>
</g>
<!-- Node1&#45;&gt;Node9 -->
<g id="edge8_Node000001_Node000009" class="edge">
<title>Node1&#45;&gt;Node9</title>
<g id="a_edge8_Node000001_Node000009"><a xlink:title=" ">
<path fill="none" stroke="#63b8ff" d="M242.95,-323.47C229.49,-335.67 210.29,-351.42 191,-361.62 185.22,-364.68 178.84,-367.31 172.49,-369.55"/>
<polygon fill="#63b8ff" stroke="#63b8ff" points="245.25,-326.11 250.18,-316.73 240.48,-320.99 245.25,-326.11"/>
</a>
</g>
</g>
<!-- Node10 -->
<g id="Node000010" class="node">
<title>Node10</title>
<g id="a_Node000010"><a xlink:href="../../d8/da4/_basic___function___files_2_utility___files_8cpp_a1806c9bdc33333618bf77f93d37e42cc.html#a1806c9bdc33333618bf77f93d37e42cc" target="_top" xlink:title=" ">
<polygon fill="white" stroke="#666666" points="170,-352.25 94,-352.25 94,-333 170,-333 170,-352.25"/>
<text text-anchor="middle" x="132" y="-338.75" font-family="Helvetica,sans-Serif" font-size="10.00">write_inputfile</text>
</a>
</g>
</g>
<!-- Node1&#45;&gt;Node10 -->
<g id="edge9_Node000001_Node000010" class="edge">
<title>Node1&#45;&gt;Node10</title>
<g id="a_edge9_Node000001_Node000010"><a xlink:title=" ">
<path fill="none" stroke="#63b8ff" d="M215.98,-318.71C200.14,-323.27 182.61,-328.33 167.77,-332.6"/>
<polygon fill="#63b8ff" stroke="#63b8ff" points="216.54,-322.19 225.18,-316.06 214.6,-315.46 216.54,-322.19"/>
</a>
</g>
</g>
<!-- Node11 -->
<g id="Node000011" class="node">
<title>Node11</title>
<g id="a_Node000011"><a xlink:href="../../d8/da4/_basic___function___files_2_utility___files_8cpp_a082ea797047ef6aa2db58d348a130bec.html#a082ea797047ef6aa2db58d348a130bec" target="_top" xlink:title=" ">
<polygon fill="white" stroke="#666666" points="170,-315.25 94,-315.25 94,-296 170,-296 170,-315.25"/>
<text text-anchor="middle" x="132" y="-301.75" font-family="Helvetica,sans-Serif" font-size="10.00">write_inputfile</text>
</a>
</g>
</g>
<!-- Node1&#45;&gt;Node11 -->
<g id="edge10_Node000001_Node000011" class="edge">
<title>Node1&#45;&gt;Node11</title>
<g id="a_edge10_Node000001_Node000011"><a xlink:title=" ">
<path fill="none" stroke="#63b8ff" d="M215.21,-305.62C200.53,-305.62 184.47,-305.62 170.47,-305.62"/>
<polygon fill="#63b8ff" stroke="#63b8ff" points="215.12,-309.13 225.12,-305.63 215.12,-302.13 215.12,-309.13"/>
</a>
</g>
</g>
<!-- Node12 -->
<g id="Node000012" class="node">
<title>Node12</title>
<g id="a_Node000012"><a xlink:href="../../d0/d88/class_circle_a1b51f4d689330fecc65f3aa5dabf5c12.html#a1b51f4d689330fecc65f3aa5dabf5c12" target="_top" xlink:title=" ">
<polygon fill="white" stroke="#666666" points="182.38,-278.25 81.62,-278.25 81.62,-259 182.38,-259 182.38,-278.25"/>
<text text-anchor="middle" x="132" y="-264.75" font-family="Helvetica,sans-Serif" font-size="10.00">Circle::write_output</text>
</a>
</g>
</g>
<!-- Node1&#45;&gt;Node12 -->
<g id="edge11_Node000001_Node000012" class="edge">
<title>Node1&#45;&gt;Node12</title>
<g id="a_edge11_Node000001_Node000012"><a xlink:title=" ">
<path fill="none" stroke="#63b8ff" d="M215.98,-292.54C200.14,-287.98 182.61,-282.92 167.77,-278.65"/>
<polygon fill="#63b8ff" stroke="#63b8ff" points="214.6,-295.79 225.18,-295.19 216.54,-289.06 214.6,-295.79"/>
</a>
</g>
</g>
<!-- Node13 -->
<g id="Node000013" class="node">
<title>Node13</title>
<g id="a_Node000013"><a xlink:href="../../d6/db0/class_cylinder_ac07a14950a1788e07ea25bc4dccebe20.html#ac07a14950a1788e07ea25bc4dccebe20" target="_top" xlink:title=" ">
<polygon fill="white" stroke="#666666" points="187.62,-241.25 76.38,-241.25 76.38,-222 187.62,-222 187.62,-241.25"/>
<text text-anchor="middle" x="132" y="-227.75" font-family="Helvetica,sans-Serif" font-size="10.00">Cylinder::write_output</text>
</a>
</g>
</g>
<!-- Node1&#45;&gt;Node13 -->
<g id="edge12_Node000001_Node000013" class="edge">
<title>Node1&#45;&gt;Node13</title>
<g id="a_edge12_Node000001_Node000013"><a xlink:title=" ">
<path fill="none" stroke="#63b8ff" d="M242.95,-287.78C229.49,-275.58 210.29,-259.83 191,-249.62 185.22,-246.57 178.84,-243.94 172.49,-241.7"/>
<polygon fill="#63b8ff" stroke="#63b8ff" points="240.48,-290.26 250.18,-294.52 245.25,-285.14 240.48,-290.26"/>
</a>
</g>
</g>
<!-- Node14 -->
<g id="Node000014" class="node">
<title>Node14</title>
<g id="a_Node000014"><a xlink:href="../../dd/db4/class_line_a6d2d9575fbe7f3e98e236d0778e7ab01.html#a6d2d9575fbe7f3e98e236d0778e7ab01" target="_top" xlink:title=" ">
<polygon fill="white" stroke="#666666" points="178.62,-204.25 85.38,-204.25 85.38,-185 178.62,-185 178.62,-204.25"/>
<text text-anchor="middle" x="132" y="-190.75" font-family="Helvetica,sans-Serif" font-size="10.00">Line::write_output</text>
</a>
</g>
</g>
<!-- Node1&#45;&gt;Node14 -->
<g id="edge13_Node000001_Node000014" class="edge">
<title>Node1&#45;&gt;Node14</title>
<g id="a_edge13_Node000001_Node000014"><a xlink:title=" ">
<path fill="none" stroke="#63b8ff" d="M251.08,-285.46C239.31,-264.34 218.11,-231.65 191,-212.62 186.51,-209.48 181.45,-206.86 176.24,-204.7"/>
<polygon fill="#63b8ff" stroke="#63b8ff" points="247.98,-287.08 255.78,-294.24 254.15,-283.78 247.98,-287.08"/>
</a>
</g>
</g>
<!-- Node15 -->
<g id="Node000015" class="node">
<title>Node15</title>
<g id="a_Node000015"><a xlink:href="../../d8/d83/class_object_aa4340f6b0922bb0e01cd9cb7e0235401.html#aa4340f6b0922bb0e01cd9cb7e0235401" target="_top" xlink:title=" ">
<polygon fill="white" stroke="#666666" points="183.88,-167.25 80.12,-167.25 80.12,-148 183.88,-148 183.88,-167.25"/>
<text text-anchor="middle" x="132" y="-153.75" font-family="Helvetica,sans-Serif" font-size="10.00">Object::write_output</text>
</a>
</g>
</g>
<!-- Node1&#45;&gt;Node15 -->
<g id="edge14_Node000001_Node000015" class="edge">
<title>Node1&#45;&gt;Node15</title>
<g id="a_edge14_Node000001_Node000015"><a xlink:title=" ">
<path fill="none" stroke="#63b8ff" d="M255.66,-285.09C246.65,-256.44 226.4,-204.71 191,-175.62 187.17,-172.48 182.79,-169.88 178.2,-167.74"/>
<polygon fill="#63b8ff" stroke="#63b8ff" points="252.22,-285.79 258.42,-294.38 258.93,-283.79 252.22,-285.79"/>
</a>
</g>
</g>
<!-- Node16 -->
<g id="Node000016" class="node">
<title>Node16</title>
<g id="a_Node000016"><a xlink:href="../../d8/d83/class_object_a398cd1b96d69d414a801946ea5b7b436.html#a398cd1b96d69d414a801946ea5b7b436" target="_top" xlink:title=" ">
<polygon fill="white" stroke="#666666" points="183.88,-130.25 80.12,-130.25 80.12,-111 183.88,-111 183.88,-130.25"/>
<text text-anchor="middle" x="132" y="-116.75" font-family="Helvetica,sans-Serif" font-size="10.00">Object::write_output</text>
</a>
</g>
</g>
<!-- Node1&#45;&gt;Node16 -->
<g id="edge15_Node000001_Node000016" class="edge">
<title>Node1&#45;&gt;Node16</title>
<g id="a_edge15_Node000001_Node000016"><a xlink:title=" ">
<path fill="none" stroke="#63b8ff" d="M258.3,-284.4C252.05,-249.06 234.6,-178.15 191,-138.62 187.49,-135.44 183.41,-132.82 179.09,-130.66"/>
<polygon fill="#63b8ff" stroke="#63b8ff" points="254.83,-284.88 259.88,-294.19 261.74,-283.76 254.83,-284.88"/>
</a>
</g>
</g>
<!-- Node17 -->
<g id="Node000017" class="node">
<title>Node17</title>
<g id="a_Node000017"><a xlink:href="../../d6/db0/class_cylinder_aac12822694a04950940a5f86e8580b29.html#aac12822694a04950940a5f86e8580b29" target="_top" xlink:title=" ">
<polygon fill="white" stroke="#666666" points="183.88,-93.25 80.12,-93.25 80.12,-74 183.88,-74 183.88,-93.25"/>
<text text-anchor="middle" x="132" y="-79.75" font-family="Helvetica,sans-Serif" font-size="10.00">Cylinder::write_VTK</text>
</a>
</g>
</g>
<!-- Node1&#45;&gt;Node17 -->
<g id="edge16_Node000001_Node000017" class="edge">
<title>Node1&#45;&gt;Node17</title>
<g id="a_edge16_Node000001_Node000017"><a xlink:title=" ">
<path fill="none" stroke="#63b8ff" d="M260.2,-284.69C256.75,-243.68 243.31,-152.32 191,-101.62 187.74,-98.47 183.95,-95.87 179.88,-93.72"/>
<polygon fill="#63b8ff" stroke="#63b8ff" points="256.69,-284.68 260.88,-294.41 263.67,-284.19 256.69,-284.68"/>
</a>
</g>
</g>
<!-- Node18 -->
<g id="Node000018" class="node">
<title>Node18</title>
<g id="a_Node000018"><a xlink:href="../../d8/da4/_basic___function___files_2_utility___files_8cpp_a1c3d0314e803d8d2211bd8d8e247df39.html#a1c3d0314e803d8d2211bd8d8e247df39" target="_top" xlink:title=" ">
<polygon fill="white" stroke="#666666" points="162.88,-56.25 101.12,-56.25 101.12,-37 162.88,-37 162.88,-56.25"/>
<text text-anchor="middle" x="132" y="-42.75" font-family="Helvetica,sans-Serif" font-size="10.00">write_VTK</text>
</a>
</g>
</g>
<!-- Node1&#45;&gt;Node18 -->
<g id="edge17_Node000001_Node000018" class="edge">
<title>Node1&#45;&gt;Node18</title>
<g id="a_edge17_Node000001_Node000018"><a xlink:title=" ">
<path fill="none" stroke="#63b8ff" d="M261.51,-284.49C260.63,-238.09 251.9,-126.55 191,-64.62 183.61,-57.11 173.14,-52.72 163.13,-50.16"/>
<polygon fill="#63b8ff" stroke="#63b8ff" points="258.01,-284.26 261.58,-294.24 265.01,-284.21 258.01,-284.26"/>
</a>
</g>
</g>
<!-- Node19 -->
<g id="Node000019" class="node">
<title>Node19</title>
<g id="a_Node000019"><a xlink:href="../../d8/da4/_basic___function___files_2_utility___files_8cpp_a84a5b7ce041d820bbec26077adcb24f5.html#a84a5b7ce041d820bbec26077adcb24f5" target="_top" xlink:title=" ">
<polygon fill="white" stroke="#666666" points="162.88,-19.25 101.12,-19.25 101.12,0 162.88,0 162.88,-19.25"/>
<text text-anchor="middle" x="132" y="-5.75" font-family="Helvetica,sans-Serif" font-size="10.00">write_VTK</text>
</a>
</g>
</g>
<!-- Node1&#45;&gt;Node19 -->
<g id="edge18_Node000001_Node000019" class="edge">
<title>Node1&#45;&gt;Node19</title>
<g id="a_edge18_Node000001_Node000019"><a xlink:title=" ">
<path fill="none" stroke="#63b8ff" d="M258.72,-284.51C250.98,-226.3 226.75,-65.32 191,-27.62 183.74,-19.97 173.31,-15.55 163.28,-13.01"/>
<polygon fill="#63b8ff" stroke="#63b8ff" points="255.2,-284.61 259.96,-294.08 262.14,-283.71 255.2,-284.61"/>
</a>
</g>
</g>
<!-- Node3 -->
<g id="Node000003" class="node">
<title>Node3</title>
<g id="a_Node000003"><a xlink:href="../../d7/d19/_test___line_8cpp_ae66f6b31b5ad750f1fe042a706a4e3d4.html#ae66f6b31b5ad750f1fe042a706a4e3d4" target="_top" xlink:title=" ">
<polygon fill="white" stroke="#666666" points="37,-623.25 0,-623.25 0,-604 37,-604 37,-623.25"/>
<text text-anchor="middle" x="18.5" y="-609.75" font-family="Helvetica,sans-Serif" font-size="10.00">main</text>
</a>
</g>
</g>
<!-- Node2&#45;&gt;Node3 -->
<g id="edge2_Node000002_Node000003" class="edge">
<title>Node2&#45;&gt;Node3</title>
<g id="a_edge2_Node000002_Node000003"><a xlink:title=" ">
<path fill="none" stroke="#63b8ff" d="M81.66,-613.62C65.89,-613.62 49.43,-613.62 37.41,-613.62"/>
<polygon fill="#63b8ff" stroke="#63b8ff" points="81.43,-617.13 91.43,-613.63 81.43,-610.13 81.43,-617.13"/>
</a>
</g>
</g>
</g>
</svg>
