<?xml version="1.0" encoding="UTF-8" standalone="no"?>
<!DOCTYPE svg PUBLIC "-//W3C//DTD SVG 1.1//EN"
 "http://www.w3.org/Graphics/SVG/1.1/DTD/svg11.dtd">
<!-- Generated by graphviz version 12.2.1 (20241206.2353)
 -->
<!-- Title: Point::Get_y Pages: 1 -->
<svg width="299pt" height="409pt"
 viewBox="0.00 0.00 299.00 409.25" xmlns="http://www.w3.org/2000/svg" xmlns:xlink="http://www.w3.org/1999/xlink">
<g id="graph0" class="graph" transform="scale(1 1) rotate(0) translate(4 405.25)">
<title>Point::Get_y</title>
<!-- Node1 -->
<g id="Node000001" class="node">
<title>Node1</title>
<g id="a_Node000001"><a xlink:title=" ">
<polygon fill="#999999" stroke="#666666" points="291,-210.25 220.25,-210.25 220.25,-191 291,-191 291,-210.25"/>
<text text-anchor="middle" x="255.62" y="-196.75" font-family="Helvetica,sans-Serif" font-size="10.00">Point::Get_y</text>
</a>
</g>
</g>
<!-- Node2 -->
<g id="Node000002" class="node">
<title>Node2</title>
<g id="a_Node000002"><a xlink:href="../../dd/db4/class_line_a11ee9e238e8e0d712b52ae99077355ee.html#a11ee9e238e8e0d712b52ae99077355ee" target="_top" xlink:title=" ">
<polygon fill="white" stroke="#666666" points="167.38,-401.25 89.88,-401.25 89.88,-382 167.38,-382 167.38,-401.25"/>
<text text-anchor="middle" x="128.62" y="-387.75" font-family="Helvetica,sans-Serif" font-size="10.00">Line::generate</text>
</a>
</g>
</g>
<!-- Node1&#45;&gt;Node2 -->
<g id="edge1_Node000001_Node000002" class="edge">
<title>Node1&#45;&gt;Node2</title>
<g id="a_edge1_Node000001_Node000002"><a xlink:title=" ">
<path fill="none" stroke="#63b8ff" d="M251.87,-221.52C246,-257.63 228.97,-331.85 184.25,-373.62 179.58,-377.99 173.83,-381.29 167.83,-383.8"/>
<polygon fill="#63b8ff" stroke="#63b8ff" points="255.28,-222.35 253.28,-211.95 248.36,-221.33 255.28,-222.35"/>
</a>
</g>
</g>
<!-- Node4 -->
<g id="Node000004" class="node">
<title>Node4</title>
<g id="a_Node000004"><a xlink:href="../../dd/db4/class_line_a4a897127139cddef19d6a8ef4edc0c94.html#a4a897127139cddef19d6a8ef4edc0c94" target="_top" xlink:title=" ">
<polygon fill="white" stroke="#666666" points="167.38,-364.25 89.88,-364.25 89.88,-345 167.38,-345 167.38,-364.25"/>
<text text-anchor="middle" x="128.62" y="-350.75" font-family="Helvetica,sans-Serif" font-size="10.00">Line::generate</text>
</a>
</g>
</g>
<!-- Node1&#45;&gt;Node4 -->
<g id="edge3_Node000001_Node000004" class="edge">
<title>Node1&#45;&gt;Node4</title>
<g id="a_edge3_Node000001_Node000004"><a xlink:title=" ">
<path fill="none" stroke="#63b8ff" d="M249.36,-221.17C240.71,-250.85 220.71,-305.56 184.25,-336.62 179.46,-340.71 173.72,-343.87 167.79,-346.32"/>
<polygon fill="#63b8ff" stroke="#63b8ff" points="252.62,-222.49 251.9,-211.92 245.87,-220.63 252.62,-222.49"/>
</a>
</g>
</g>
<!-- Node5 -->
<g id="Node000005" class="node">
<title>Node5</title>
<g id="a_Node000005"><a xlink:href="../../d5/db2/class_vector_a3979edf34764d8dba3c1c36a866d5c1b.html#a3979edf34764d8dba3c1c36a866d5c1b" target="_top" xlink:title=" ">
<polygon fill="white" stroke="#666666" points="174.5,-327.25 82.75,-327.25 82.75,-308 174.5,-308 174.5,-327.25"/>
<text text-anchor="middle" x="128.62" y="-313.75" font-family="Helvetica,sans-Serif" font-size="10.00">Vector::operator()</text>
</a>
</g>
</g>
<!-- Node1&#45;&gt;Node5 -->
<g id="edge4_Node000001_Node000005" class="edge">
<title>Node1&#45;&gt;Node5</title>
<g id="a_edge4_Node000001_Node000005"><a xlink:title=" ">
<path fill="none" stroke="#63b8ff" d="M245.26,-220.7C233.86,-243.04 212.56,-278.74 184.25,-299.62 179.99,-302.77 175.15,-305.38 170.16,-307.55"/>
<polygon fill="#63b8ff" stroke="#63b8ff" points="248.26,-222.53 249.51,-212.01 241.97,-219.45 248.26,-222.53"/>
</a>
</g>
</g>
<!-- Node6 -->
<g id="Node000006" class="node">
<title>Node6</title>
<g id="a_Node000006"><a xlink:href="../../d5/db2/class_vector_aec4a927c7615bb46d38a1f28859c40f2.html#aec4a927c7615bb46d38a1f28859c40f2" target="_top" xlink:title=" ">
<polygon fill="white" stroke="#666666" points="174.5,-290.25 82.75,-290.25 82.75,-271 174.5,-271 174.5,-290.25"/>
<text text-anchor="middle" x="128.62" y="-276.75" font-family="Helvetica,sans-Serif" font-size="10.00">Vector::operator()</text>
</a>
</g>
</g>
<!-- Node1&#45;&gt;Node6 -->
<g id="edge5_Node000001_Node000006" class="edge">
<title>Node1&#45;&gt;Node6</title>
<g id="a_edge5_Node000001_Node000006"><a xlink:title=" ">
<path fill="none" stroke="#63b8ff" d="M238.24,-218.58C224.87,-232.3 204.88,-250.81 184.25,-262.62 178.88,-265.7 172.9,-268.35 166.94,-270.58"/>
<polygon fill="#63b8ff" stroke="#63b8ff" points="240.64,-221.14 244.97,-211.47 235.55,-216.33 240.64,-221.14"/>
</a>
</g>
</g>
<!-- Node7 -->
<g id="Node000007" class="node">
<title>Node7</title>
<g id="a_Node000007"><a xlink:href="../../dc/d9f/struct_cell_a93b38c08968d1c15d67b73a3d4fa9f08.html#a93b38c08968d1c15d67b73a3d4fa9f08" target="_top" xlink:title=" ">
<polygon fill="white" stroke="#666666" points="181.62,-253.25 75.62,-253.25 75.62,-234 181.62,-234 181.62,-253.25"/>
<text text-anchor="middle" x="128.62" y="-239.75" font-family="Helvetica,sans-Serif" font-size="10.00">Cell::Write_Cell_Info</text>
</a>
</g>
</g>
<!-- Node1&#45;&gt;Node7 -->
<g id="edge6_Node000001_Node000007" class="edge">
<title>Node1&#45;&gt;Node7</title>
<g id="a_edge6_Node000001_Node000007"><a xlink:title=" ">
<path fill="none" stroke="#63b8ff" d="M214.47,-214.44C196.34,-220.67 175.33,-227.9 158.75,-233.61"/>
<polygon fill="#63b8ff" stroke="#63b8ff" points="215.57,-217.76 223.89,-211.2 213.29,-211.14 215.57,-217.76"/>
</a>
</g>
</g>
<!-- Node8 -->
<g id="Node000008" class="node">
<title>Node8</title>
<g id="a_Node000008"><a xlink:href="../../d6/db0/class_cylinder_aa10bb5bf68e4678c80cc3a047e027a73.html#aa10bb5bf68e4678c80cc3a047e027a73" target="_top" xlink:title=" ">
<polygon fill="white" stroke="#666666" points="180.5,-215.88 76.75,-215.88 76.75,-185.38 180.5,-185.38 180.5,-215.88"/>
<text text-anchor="start" x="84.75" y="-202.38" font-family="Helvetica,sans-Serif" font-size="10.00">Cylinder::Write_Grid</text>
<text text-anchor="middle" x="128.62" y="-191.12" font-family="Helvetica,sans-Serif" font-size="10.00">_Plane</text>
</a>
</g>
</g>
<!-- Node1&#45;&gt;Node8 -->
<g id="edge7_Node000001_Node000008" class="edge">
<title>Node1&#45;&gt;Node8</title>
<g id="a_edge7_Node000001_Node000008"><a xlink:title=" ">
<path fill="none" stroke="#63b8ff" d="M208.3,-200.62C199.28,-200.62 189.77,-200.62 180.61,-200.62"/>
<polygon fill="#63b8ff" stroke="#63b8ff" points="208.29,-204.13 218.29,-200.63 208.29,-197.13 208.29,-204.13"/>
</a>
</g>
</g>
<!-- Node9 -->
<g id="Node000009" class="node">
<title>Node9</title>
<g id="a_Node000009"><a xlink:href="../../d0/d88/class_circle_a1b51f4d689330fecc65f3aa5dabf5c12.html#a1b51f4d689330fecc65f3aa5dabf5c12" target="_top" xlink:title=" ">
<polygon fill="white" stroke="#666666" points="179,-167.25 78.25,-167.25 78.25,-148 179,-148 179,-167.25"/>
<text text-anchor="middle" x="128.62" y="-153.75" font-family="Helvetica,sans-Serif" font-size="10.00">Circle::write_output</text>
</a>
</g>
</g>
<!-- Node1&#45;&gt;Node9 -->
<g id="edge8_Node000001_Node000009" class="edge">
<title>Node1&#45;&gt;Node9</title>
<g id="a_edge8_Node000001_Node000009"><a xlink:title=" ">
<path fill="none" stroke="#63b8ff" d="M214.47,-186.81C196.34,-180.58 175.33,-173.35 158.75,-167.64"/>
<polygon fill="#63b8ff" stroke="#63b8ff" points="213.29,-190.11 223.89,-190.05 215.57,-183.49 213.29,-190.11"/>
</a>
</g>
</g>
<!-- Node10 -->
<g id="Node000010" class="node">
<title>Node10</title>
<g id="a_Node000010"><a xlink:href="../../d6/db0/class_cylinder_ac07a14950a1788e07ea25bc4dccebe20.html#ac07a14950a1788e07ea25bc4dccebe20" target="_top" xlink:title=" ">
<polygon fill="white" stroke="#666666" points="184.25,-130.25 73,-130.25 73,-111 184.25,-111 184.25,-130.25"/>
<text text-anchor="middle" x="128.62" y="-116.75" font-family="Helvetica,sans-Serif" font-size="10.00">Cylinder::write_output</text>
</a>
</g>
</g>
<!-- Node1&#45;&gt;Node10 -->
<g id="edge9_Node000001_Node000010" class="edge">
<title>Node1&#45;&gt;Node10</title>
<g id="a_edge9_Node000001_Node000010"><a xlink:title=" ">
<path fill="none" stroke="#63b8ff" d="M238.24,-182.67C224.87,-168.95 204.88,-150.44 184.25,-138.62 178.88,-135.55 172.9,-132.9 166.94,-130.67"/>
<polygon fill="#63b8ff" stroke="#63b8ff" points="235.55,-184.92 244.97,-189.78 240.64,-180.11 235.55,-184.92"/>
</a>
</g>
</g>
<!-- Node11 -->
<g id="Node000011" class="node">
<title>Node11</title>
<g id="a_Node000011"><a xlink:href="../../dd/db4/class_line_a6d2d9575fbe7f3e98e236d0778e7ab01.html#a6d2d9575fbe7f3e98e236d0778e7ab01" target="_top" xlink:title=" ">
<polygon fill="white" stroke="#666666" points="175.25,-93.25 82,-93.25 82,-74 175.25,-74 175.25,-93.25"/>
<text text-anchor="middle" x="128.62" y="-79.75" font-family="Helvetica,sans-Serif" font-size="10.00">Line::write_output</text>
</a>
</g>
</g>
<!-- Node1&#45;&gt;Node11 -->
<g id="edge10_Node000001_Node000011" class="edge">
<title>Node1&#45;&gt;Node11</title>
<g id="a_edge10_Node000001_Node000011"><a xlink:title=" ">
<path fill="none" stroke="#63b8ff" d="M245.26,-180.55C233.86,-158.21 212.56,-122.51 184.25,-101.62 179.99,-98.48 175.15,-95.87 170.16,-93.7"/>
<polygon fill="#63b8ff" stroke="#63b8ff" points="241.97,-181.8 249.51,-189.24 248.26,-178.72 241.97,-181.8"/>
</a>
</g>
</g>
<!-- Node12 -->
<g id="Node000012" class="node">
<title>Node12</title>
<g id="a_Node000012"><a xlink:href="../../d8/d83/class_object_aa4340f6b0922bb0e01cd9cb7e0235401.html#aa4340f6b0922bb0e01cd9cb7e0235401" target="_top" xlink:title=" ">
<polygon fill="white" stroke="#666666" points="180.5,-56.25 76.75,-56.25 76.75,-37 180.5,-37 180.5,-56.25"/>
<text text-anchor="middle" x="128.62" y="-42.75" font-family="Helvetica,sans-Serif" font-size="10.00">Object::write_output</text>
</a>
</g>
</g>
<!-- Node1&#45;&gt;Node12 -->
<g id="edge11_Node000001_Node000012" class="edge">
<title>Node1&#45;&gt;Node12</title>
<g id="a_edge11_Node000001_Node000012"><a xlink:title=" ">
<path fill="none" stroke="#63b8ff" d="M249.36,-180.08C240.71,-150.4 220.71,-95.69 184.25,-64.62 180.53,-61.45 176.23,-58.83 171.71,-56.67"/>
<polygon fill="#63b8ff" stroke="#63b8ff" points="245.87,-180.62 251.9,-189.33 252.62,-178.76 245.87,-180.62"/>
</a>
</g>
</g>
<!-- Node13 -->
<g id="Node000013" class="node">
<title>Node13</title>
<g id="a_Node000013"><a xlink:href="../../d8/d83/class_object_a398cd1b96d69d414a801946ea5b7b436.html#a398cd1b96d69d414a801946ea5b7b436" target="_top" xlink:title=" ">
<polygon fill="white" stroke="#666666" points="180.5,-19.25 76.75,-19.25 76.75,0 180.5,0 180.5,-19.25"/>
<text text-anchor="middle" x="128.62" y="-5.75" font-family="Helvetica,sans-Serif" font-size="10.00">Object::write_output</text>
</a>
</g>
</g>
<!-- Node1&#45;&gt;Node13 -->
<g id="edge12_Node000001_Node000013" class="edge">
<title>Node1&#45;&gt;Node13</title>
<g id="a_edge12_Node000001_Node000013"><a xlink:title=" ">
<path fill="none" stroke="#63b8ff" d="M251.87,-179.73C246,-143.62 228.97,-69.4 184.25,-27.62 180.82,-24.42 176.81,-21.79 172.55,-19.62"/>
<polygon fill="#63b8ff" stroke="#63b8ff" points="248.36,-179.92 253.28,-189.3 255.28,-178.9 248.36,-179.92"/>
</a>
</g>
</g>
<!-- Node3 -->
<g id="Node000003" class="node">
<title>Node3</title>
<g id="a_Node000003"><a xlink:href="../../d7/d19/_test___line_8cpp_ae66f6b31b5ad750f1fe042a706a4e3d4.html#ae66f6b31b5ad750f1fe042a706a4e3d4" target="_top" xlink:title=" ">
<polygon fill="white" stroke="#666666" points="37,-401.25 0,-401.25 0,-382 37,-382 37,-401.25"/>
<text text-anchor="middle" x="18.5" y="-387.75" font-family="Helvetica,sans-Serif" font-size="10.00">main</text>
</a>
</g>
</g>
<!-- Node2&#45;&gt;Node3 -->
<g id="edge2_Node000002_Node000003" class="edge">
<title>Node2&#45;&gt;Node3</title>
<g id="a_edge2_Node000002_Node000003"><a xlink:title=" ">
<path fill="none" stroke="#63b8ff" d="M78.01,-391.62C63.47,-391.62 48.49,-391.62 37.33,-391.62"/>
<polygon fill="#63b8ff" stroke="#63b8ff" points="77.99,-395.13 87.99,-391.63 77.99,-388.13 77.99,-395.13"/>
</a>
</g>
</g>
</g>
</svg>
