<?xml version="1.0" encoding="UTF-8" standalone="no"?>
<!DOCTYPE svg PUBLIC "-//W3C//DTD SVG 1.1//EN"
 "http://www.w3.org/Graphics/SVG/1.1/DTD/svg11.dtd">
<!-- Generated by graphviz version 12.2.1 (20241206.2353)
 -->
<!-- Title: Point::Convert_Cartesian Pages: 1 -->
<svg width="256pt" height="64pt"
 viewBox="0.00 0.00 256.00 64.25" xmlns="http://www.w3.org/2000/svg" xmlns:xlink="http://www.w3.org/1999/xlink">
<g id="graph0" class="graph" transform="scale(1 1) rotate(0) translate(4 60.25)">
<title>Point::Convert_Cartesian</title>
<!-- Node1 -->
<g id="Node000001" class="node">
<title>Node1</title>
<g id="a_Node000001"><a xlink:title=" ">
<polygon fill="#999999" stroke="#666666" points="248,-37.25 121.75,-37.25 121.75,-18 248,-18 248,-37.25"/>
<text text-anchor="middle" x="184.88" y="-23.75" font-family="Helvetica,sans-Serif" font-size="10.00">Point::Convert_Cartesian</text>
</a>
</g>
</g>
<!-- Node2 -->
<g id="Node000002" class="node">
<title>Node2</title>
<g id="a_Node000002"><a xlink:href="../../d0/d69/class_point_a0144504b165744baafcd884b777acd4c.html#a0144504b165744baafcd884b777acd4c" target="_top" xlink:title=" ">
<polygon fill="white" stroke="#666666" points="85.75,-56.25 0,-56.25 0,-37 85.75,-37 85.75,-56.25"/>
<text text-anchor="middle" x="42.88" y="-42.75" font-family="Helvetica,sans-Serif" font-size="10.00">Point::operator()</text>
</a>
</g>
</g>
<!-- Node1&#45;&gt;Node2 -->
<g id="edge1_Node000001_Node000002" class="edge">
<title>Node1&#45;&gt;Node2</title>
<g id="a_edge1_Node000001_Node000002"><a xlink:title=" ">
<path fill="none" stroke="#63b8ff" d="M110.38,-37.6C102.11,-38.72 93.9,-39.84 86.23,-40.88"/>
<polygon fill="#63b8ff" stroke="#63b8ff" points="110.72,-41.09 120.15,-36.27 109.77,-34.15 110.72,-41.09"/>
</a>
</g>
</g>
<!-- Node3 -->
<g id="Node000003" class="node">
<title>Node3</title>
<g id="a_Node000003"><a xlink:href="../../d0/d69/class_point_a7f3068f454875008f045102c1b7d8b12.html#a7f3068f454875008f045102c1b7d8b12" target="_top" xlink:title=" ">
<polygon fill="white" stroke="#666666" points="85.75,-19.25 0,-19.25 0,0 85.75,0 85.75,-19.25"/>
<text text-anchor="middle" x="42.88" y="-5.75" font-family="Helvetica,sans-Serif" font-size="10.00">Point::operator()</text>
</a>
</g>
</g>
<!-- Node1&#45;&gt;Node3 -->
<g id="edge2_Node000001_Node000003" class="edge">
<title>Node1&#45;&gt;Node3</title>
<g id="a_edge2_Node000001_Node000003"><a xlink:title=" ">
<path fill="none" stroke="#63b8ff" d="M110.38,-18.18C102.11,-17.11 93.9,-16.06 86.23,-15.07"/>
<polygon fill="#63b8ff" stroke="#63b8ff" points="109.79,-21.63 120.15,-19.43 110.68,-14.69 109.79,-21.63"/>
</a>
</g>
</g>
</g>
</svg>
