<?xml version="1.0" encoding="UTF-8" standalone="no"?>
<!DOCTYPE svg PUBLIC "-//W3C//DTD SVG 1.1//EN"
 "http://www.w3.org/Graphics/SVG/1.1/DTD/svg11.dtd">
<!-- Generated by graphviz version 12.2.1 (20241206.2353)
 -->
<!-- Title: Point::operator() Pages: 1 -->
<svg width="301pt" height="27pt"
 viewBox="0.00 0.00 301.30 27.25" xmlns="http://www.w3.org/2000/svg" xmlns:xlink="http://www.w3.org/1999/xlink">
<g id="graph0" class="graph" transform="scale(1 1) rotate(0) translate(4 23.25)">
<title>Point::operator()</title>
<!-- Node1 -->
<g id="Node000001" class="node">
<title>Node1</title>
<g id="a_Node000001"><a xlink:title=" ">
<polygon fill="#999999" stroke="#666666" points="85.75,-19.25 0,-19.25 0,0 85.75,0 85.75,-19.25"/>
<text text-anchor="middle" x="42.88" y="-5.75" font-family="Helvetica,sans-Serif" font-size="10.00">Point::operator()</text>
</a>
</g>
</g>
<!-- Node2 -->
<g id="Node000002" class="node">
<title>Node2</title>
<g id="a_Node000002"><a xlink:href="../../d0/d69/class_point_a953cdbcfe790112d08384eb8cfdbc519.html#a953cdbcfe790112d08384eb8cfdbc519" target="_top" xlink:title=" ">
<polygon fill="white" stroke="#666666" points="228.5,-19.25 121.75,-19.25 121.75,0 228.5,0 228.5,-19.25"/>
<text text-anchor="middle" x="175.12" y="-5.75" font-family="Helvetica,sans-Serif" font-size="10.00">Point::Convert_Polar</text>
</a>
</g>
</g>
<!-- Node1&#45;&gt;Node2 -->
<g id="edge1_Node000001_Node000002" class="edge">
<title>Node1&#45;&gt;Node2</title>
<g id="a_edge1_Node000001_Node000002"><a xlink:title=" ">
<path fill="none" stroke="#63b8ff" d="M86.16,-9.62C93.84,-9.62 102,-9.62 110.13,-9.62"/>
<polygon fill="#63b8ff" stroke="#63b8ff" points="110.05,-13.13 120.05,-9.63 110.05,-6.13 110.05,-13.13"/>
</a>
</g>
</g>
<!-- Node3 -->
<g id="Node000003" class="node">
<title>Node3</title>
<g id="a_Node000003"><a xlink:href="../../d3/d82/_c_type___elliptic___grid_8cpp_aae4b761a64c952b4c008655d1dc59a12.html#aae4b761a64c952b4c008655d1dc59a12" target="_top" xlink:title=" ">
<polygon fill="white" stroke="#666666" points="293.3,-19.25 264.5,-19.25 264.5,0 293.3,0 293.3,-19.25"/>
<text text-anchor="middle" x="278.9" y="-5.75" font-family="Helvetica,sans-Serif" font-size="10.00">y</text>
</a>
</g>
</g>
<!-- Node2&#45;&gt;Node3 -->
<g id="edge2_Node000002_Node000003" class="edge">
<title>Node2&#45;&gt;Node3</title>
<g id="a_edge2_Node000002_Node000003"><a xlink:title=" ">
<path fill="none" stroke="#63b8ff" d="M228.8,-9.62C237.25,-9.62 245.64,-9.62 253.02,-9.62"/>
<polygon fill="#63b8ff" stroke="#63b8ff" points="252.83,-13.13 262.83,-9.63 252.83,-6.13 252.83,-13.13"/>
</a>
</g>
</g>
</g>
</svg>
