<?xml version="1.0" encoding="UTF-8" standalone="no"?>
<!DOCTYPE svg PUBLIC "-//W3C//DTD SVG 1.1//EN"
 "http://www.w3.org/Graphics/SVG/1.1/DTD/svg11.dtd">
<!-- Generated by graphviz version 12.2.1 (20241206.2353)
 -->
<!-- Title: IncompressibleSolver::IncompressibleFlowSolver::momentum_predictor_step Pages: 1 -->
<svg width="731pt" height="410pt"
 viewBox="0.00 0.00 730.50 409.75" xmlns="http://www.w3.org/2000/svg" xmlns:xlink="http://www.w3.org/1999/xlink">
<g id="graph0" class="graph" transform="scale(1 1) rotate(0) translate(4 405.75)">
<title>IncompressibleSolver::IncompressibleFlowSolver::momentum_predictor_step</title>
<!-- Node1 -->
<g id="Node000001" class="node">
<title>Node1</title>
<g id="a_Node000001"><a xlink:title=" ">
<polygon fill="#999999" stroke="#666666" points="137.5,-161.75 0,-161.75 0,-120 137.5,-120 137.5,-161.75"/>
<text text-anchor="start" x="8" y="-148.25" font-family="Helvetica,sans-Serif" font-size="10.00">IncompressibleSolver</text>
<text text-anchor="start" x="8" y="-137" font-family="Helvetica,sans-Serif" font-size="10.00">::IncompressibleFlowSolver</text>
<text text-anchor="middle" x="68.75" y="-125.75" font-family="Helvetica,sans-Serif" font-size="10.00">::momentum_predictor_step</text>
</a>
</g>
</g>
<!-- Node2 -->
<g id="Node000002" class="node">
<title>Node2</title>
<g id="a_Node000002"><a xlink:href="../../de/d50/class_incompressible_solver_1_1_incompressible_flow_solver_aab2f937907f72e877aae62e73acb7302.html#aab2f937907f72e877aae62e73acb7302" target="_top" xlink:title=" ">
<polygon fill="white" stroke="#666666" points="324.5,-317.38 187.75,-317.38 187.75,-264.38 324.5,-264.38 324.5,-317.38"/>
<text text-anchor="start" x="195.75" y="-303.88" font-family="Helvetica,sans-Serif" font-size="10.00">IncompressibleSolver</text>
<text text-anchor="start" x="195.75" y="-292.62" font-family="Helvetica,sans-Serif" font-size="10.00">::IncompressibleFlowSolver</text>
<text text-anchor="start" x="195.75" y="-281.38" font-family="Helvetica,sans-Serif" font-size="10.00">::apply_velocity_boundary</text>
<text text-anchor="middle" x="256.12" y="-270.12" font-family="Helvetica,sans-Serif" font-size="10.00">_conditions</text>
</a>
</g>
</g>
<!-- Node1&#45;&gt;Node2 -->
<g id="edge1_Node000001_Node000002" class="edge">
<title>Node1&#45;&gt;Node2</title>
<g id="a_edge1_Node000001_Node000002"><a xlink:title=" ">
<path fill="none" stroke="#63b8ff" d="M95.92,-162.05C126.37,-186.69 177.07,-227.72 213.07,-256.85"/>
<polygon fill="#63b8ff" stroke="#63b8ff" points="210.74,-259.46 220.71,-263.03 215.14,-254.02 210.74,-259.46"/>
</a>
</g>
</g>
<!-- Node6 -->
<g id="Node000006" class="node">
<title>Node6</title>
<g id="a_Node000006"><a xlink:href="../../de/d50/class_incompressible_solver_1_1_incompressible_flow_solver_a63f7ce1207f5c032ce5adc2f494d44f1.html#a63f7ce1207f5c032ce5adc2f494d44f1" target="_top" xlink:title=" ">
<polygon fill="white" stroke="#666666" points="338.75,-161.75 173.5,-161.75 173.5,-120 338.75,-120 338.75,-161.75"/>
<text text-anchor="start" x="181.5" y="-148.25" font-family="Helvetica,sans-Serif" font-size="10.00">IncompressibleSolver</text>
<text text-anchor="start" x="181.5" y="-137" font-family="Helvetica,sans-Serif" font-size="10.00">::IncompressibleFlowSolver</text>
<text text-anchor="middle" x="256.12" y="-125.75" font-family="Helvetica,sans-Serif" font-size="10.00">::assemble_momentum_equations</text>
</a>
</g>
</g>
<!-- Node1&#45;&gt;Node6 -->
<g id="edge5_Node000001_Node000006" class="edge">
<title>Node1&#45;&gt;Node6</title>
<g id="a_edge5_Node000001_Node000006"><a xlink:title=" ">
<path fill="none" stroke="#63b8ff" d="M137.99,-140.88C145.78,-140.88 153.81,-140.88 161.85,-140.88"/>
<polygon fill="#63b8ff" stroke="#63b8ff" points="161.69,-144.38 171.69,-140.88 161.69,-137.38 161.69,-144.38"/>
</a>
</g>
</g>
<!-- Node11 -->
<g id="Node000011" class="node">
<title>Node11</title>
<g id="a_Node000011"><a xlink:href="../../de/d50/class_incompressible_solver_1_1_incompressible_flow_solver_a5b38ff795525fd6a41a1cb199f2385d3.html#a5b38ff795525fd6a41a1cb199f2385d3" target="_top" xlink:title=" ">
<polygon fill="white" stroke="#666666" points="331.25,-71.75 181,-71.75 181,-30 331.25,-30 331.25,-71.75"/>
<text text-anchor="start" x="189" y="-58.25" font-family="Helvetica,sans-Serif" font-size="10.00">IncompressibleSolver</text>
<text text-anchor="start" x="189" y="-47" font-family="Helvetica,sans-Serif" font-size="10.00">::IncompressibleFlowSolver</text>
<text text-anchor="middle" x="256.12" y="-35.75" font-family="Helvetica,sans-Serif" font-size="10.00">::solve_linear_system_velocity</text>
</a>
</g>
</g>
<!-- Node1&#45;&gt;Node11 -->
<g id="edge10_Node000001_Node000011" class="edge">
<title>Node1&#45;&gt;Node11</title>
<g id="a_edge10_Node000001_Node000011"><a xlink:title=" ">
<path fill="none" stroke="#63b8ff" d="M113.68,-119.55C139.79,-106.87 173.11,-90.69 200.86,-77.22"/>
<polygon fill="#63b8ff" stroke="#63b8ff" points="202.36,-80.38 209.83,-72.87 199.3,-74.09 202.36,-80.38"/>
</a>
</g>
</g>
<!-- Node3 -->
<g id="Node000003" class="node">
<title>Node3</title>
<g id="a_Node000003"><a xlink:href="../../de/d50/class_incompressible_solver_1_1_incompressible_flow_solver_afef36f71393d2a8603221b0eb3f471a9.html#afef36f71393d2a8603221b0eb3f471a9" target="_top" xlink:title=" ">
<polygon fill="white" stroke="#666666" points="535.5,-401.75 377.75,-401.75 377.75,-360 535.5,-360 535.5,-401.75"/>
<text text-anchor="start" x="385.75" y="-388.25" font-family="Helvetica,sans-Serif" font-size="10.00">IncompressibleSolver</text>
<text text-anchor="start" x="385.75" y="-377" font-family="Helvetica,sans-Serif" font-size="10.00">::IncompressibleFlowSolver</text>
<text text-anchor="middle" x="456.62" y="-365.75" font-family="Helvetica,sans-Serif" font-size="10.00">::apply_inlet_boundary_condition</text>
</a>
</g>
</g>
<!-- Node2&#45;&gt;Node3 -->
<g id="edge2_Node000002_Node000003" class="edge">
<title>Node2&#45;&gt;Node3</title>
<g id="a_edge2_Node000002_Node000003"><a xlink:title=" ">
<path fill="none" stroke="#63b8ff" d="M306.59,-317.72C327.37,-328.58 351.97,-340.88 374.75,-350.88 378.11,-352.35 381.57,-353.82 385.07,-355.26"/>
<polygon fill="#63b8ff" stroke="#63b8ff" points="383.7,-358.48 394.28,-358.97 386.31,-351.99 383.7,-358.48"/>
</a>
</g>
</g>
<!-- Node4 -->
<g id="Node000004" class="node">
<title>Node4</title>
<g id="a_Node000004"><a xlink:href="../../de/d50/class_incompressible_solver_1_1_incompressible_flow_solver_ad5a68290cb0c969ab34f4f62be543702.html#ad5a68290cb0c969ab34f4f62be543702" target="_top" xlink:title=" ">
<polygon fill="white" stroke="#666666" points="538.5,-341.75 374.75,-341.75 374.75,-300 538.5,-300 538.5,-341.75"/>
<text text-anchor="start" x="382.75" y="-328.25" font-family="Helvetica,sans-Serif" font-size="10.00">IncompressibleSolver</text>
<text text-anchor="start" x="382.75" y="-317" font-family="Helvetica,sans-Serif" font-size="10.00">::IncompressibleFlowSolver</text>
<text text-anchor="middle" x="456.62" y="-305.75" font-family="Helvetica,sans-Serif" font-size="10.00">::apply_outlet_boundary_condition</text>
</a>
</g>
</g>
<!-- Node2&#45;&gt;Node4 -->
<g id="edge3_Node000002_Node000004" class="edge">
<title>Node2&#45;&gt;Node4</title>
<g id="a_edge3_Node000002_Node000004"><a xlink:title=" ">
<path fill="none" stroke="#63b8ff" d="M324.88,-301.12C337.22,-302.98 350.28,-304.95 363.18,-306.9"/>
<polygon fill="#63b8ff" stroke="#63b8ff" points="362.55,-310.35 372.96,-308.38 363.6,-303.43 362.55,-310.35"/>
</a>
</g>
</g>
<!-- Node5 -->
<g id="Node000005" class="node">
<title>Node5</title>
<g id="a_Node000005"><a xlink:href="../../de/d50/class_incompressible_solver_1_1_incompressible_flow_solver_ab669a12c535519d16abe1e5ab52d30e7.html#ab669a12c535519d16abe1e5ab52d30e7" target="_top" xlink:title=" ">
<polygon fill="white" stroke="#666666" points="535.12,-281.75 378.12,-281.75 378.12,-240 535.12,-240 535.12,-281.75"/>
<text text-anchor="start" x="386.12" y="-268.25" font-family="Helvetica,sans-Serif" font-size="10.00">IncompressibleSolver</text>
<text text-anchor="start" x="386.12" y="-257" font-family="Helvetica,sans-Serif" font-size="10.00">::IncompressibleFlowSolver</text>
<text text-anchor="middle" x="456.62" y="-245.75" font-family="Helvetica,sans-Serif" font-size="10.00">::apply_wall_boundary_condition</text>
</a>
</g>
</g>
<!-- Node2&#45;&gt;Node5 -->
<g id="edge4_Node000002_Node000005" class="edge">
<title>Node2&#45;&gt;Node5</title>
<g id="a_edge4_Node000002_Node000005"><a xlink:title=" ">
<path fill="none" stroke="#63b8ff" d="M324.88,-280.63C338.35,-278.6 352.69,-276.43 366.74,-274.31"/>
<polygon fill="#63b8ff" stroke="#63b8ff" points="367.07,-277.8 376.43,-272.84 366.02,-270.88 367.07,-277.8"/>
</a>
</g>
</g>
<!-- Node7 -->
<g id="Node000007" class="node">
<title>Node7</title>
<g id="a_Node000007"><a xlink:href="../../de/d50/class_incompressible_solver_1_1_incompressible_flow_solver_a9138f7cb731165dd4903b3f1376ee74b.html#a9138f7cb731165dd4903b3f1376ee74b" target="_top" xlink:title=" ">
<polygon fill="white" stroke="#666666" points="527.25,-221.75 386,-221.75 386,-180 527.25,-180 527.25,-221.75"/>
<text text-anchor="start" x="394" y="-208.25" font-family="Helvetica,sans-Serif" font-size="10.00">IncompressibleSolver</text>
<text text-anchor="start" x="394" y="-197" font-family="Helvetica,sans-Serif" font-size="10.00">::IncompressibleFlowSolver</text>
<text text-anchor="middle" x="456.62" y="-185.75" font-family="Helvetica,sans-Serif" font-size="10.00">::discretize_convection_term</text>
</a>
</g>
</g>
<!-- Node6&#45;&gt;Node7 -->
<g id="edge6_Node000006_Node000007" class="edge">
<title>Node6&#45;&gt;Node7</title>
<g id="a_edge6_Node000006_Node000007"><a xlink:title=" ">
<path fill="none" stroke="#63b8ff" d="M327.67,-162.2C342.97,-166.82 359.27,-171.75 374.93,-176.48"/>
<polygon fill="#63b8ff" stroke="#63b8ff" points="373.61,-179.74 384.19,-179.28 375.64,-173.04 373.61,-179.74"/>
</a>
</g>
</g>
<!-- Node9 -->
<g id="Node000009" class="node">
<title>Node9</title>
<g id="a_Node000009"><a xlink:href="../../de/d50/class_incompressible_solver_1_1_incompressible_flow_solver_a967c666dddd624e7f781d0068cb59fc7.html#a967c666dddd624e7f781d0068cb59fc7" target="_top" xlink:title=" ">
<polygon fill="white" stroke="#666666" points="525,-161.75 388.25,-161.75 388.25,-120 525,-120 525,-161.75"/>
<text text-anchor="start" x="396.25" y="-148.25" font-family="Helvetica,sans-Serif" font-size="10.00">IncompressibleSolver</text>
<text text-anchor="start" x="396.25" y="-137" font-family="Helvetica,sans-Serif" font-size="10.00">::IncompressibleFlowSolver</text>
<text text-anchor="middle" x="456.62" y="-125.75" font-family="Helvetica,sans-Serif" font-size="10.00">::discretize_diffusion_term</text>
</a>
</g>
</g>
<!-- Node6&#45;&gt;Node9 -->
<g id="edge8_Node000006_Node000009" class="edge">
<title>Node6&#45;&gt;Node9</title>
<g id="a_edge8_Node000006_Node000009"><a xlink:title=" ">
<path fill="none" stroke="#63b8ff" d="M339.01,-140.88C351.44,-140.88 364.24,-140.88 376.61,-140.88"/>
<polygon fill="#63b8ff" stroke="#63b8ff" points="376.3,-144.38 386.3,-140.88 376.3,-137.38 376.3,-144.38"/>
</a>
</g>
</g>
<!-- Node10 -->
<g id="Node000010" class="node">
<title>Node10</title>
<g id="a_Node000010"><a xlink:href="../../de/d50/class_incompressible_solver_1_1_incompressible_flow_solver_a787b8583bd866140485ceb926c2eebee.html#a787b8583bd866140485ceb926c2eebee" target="_top" xlink:title=" ">
<polygon fill="white" stroke="#666666" points="529.88,-101.75 383.38,-101.75 383.38,-60 529.88,-60 529.88,-101.75"/>
<text text-anchor="start" x="391.38" y="-88.25" font-family="Helvetica,sans-Serif" font-size="10.00">IncompressibleSolver</text>
<text text-anchor="start" x="391.38" y="-77" font-family="Helvetica,sans-Serif" font-size="10.00">::IncompressibleFlowSolver</text>
<text text-anchor="middle" x="456.62" y="-65.75" font-family="Helvetica,sans-Serif" font-size="10.00">::discretize_pressure_gradient</text>
</a>
</g>
</g>
<!-- Node6&#45;&gt;Node10 -->
<g id="edge9_Node000006_Node000010" class="edge">
<title>Node6&#45;&gt;Node10</title>
<g id="a_edge9_Node000006_Node000010"><a xlink:title=" ">
<path fill="none" stroke="#63b8ff" d="M327.67,-119.55C342.79,-114.98 358.88,-110.12 374.37,-105.44"/>
<polygon fill="#63b8ff" stroke="#63b8ff" points="374.97,-108.91 383.53,-102.67 372.94,-102.21 374.97,-108.91"/>
</a>
</g>
</g>
<!-- Node8 -->
<g id="Node000008" class="node">
<title>Node8</title>
<g id="a_Node000008"><a xlink:href="../../de/d50/class_incompressible_solver_1_1_incompressible_flow_solver_a5cfbfbc44536bdc27e164dc6d1547713.html#a5cfbfbc44536bdc27e164dc6d1547713" target="_top" xlink:title=" ">
<polygon fill="white" stroke="#666666" points="722.5,-221.75 574.5,-221.75 574.5,-180 722.5,-180 722.5,-221.75"/>
<text text-anchor="start" x="582.5" y="-208.25" font-family="Helvetica,sans-Serif" font-size="10.00">IncompressibleSolver</text>
<text text-anchor="start" x="582.5" y="-197" font-family="Helvetica,sans-Serif" font-size="10.00">::IncompressibleFlowSolver</text>
<text text-anchor="middle" x="648.5" y="-185.75" font-family="Helvetica,sans-Serif" font-size="10.00">::compute_face_value_upwind</text>
</a>
</g>
</g>
<!-- Node7&#45;&gt;Node8 -->
<g id="edge7_Node000007_Node000008" class="edge">
<title>Node7&#45;&gt;Node8</title>
<g id="a_edge7_Node000007_Node000008"><a xlink:title=" ">
<path fill="none" stroke="#63b8ff" d="M527.52,-200.88C539.06,-200.88 551.13,-200.88 562.98,-200.88"/>
<polygon fill="#63b8ff" stroke="#63b8ff" points="562.74,-204.38 572.74,-200.88 562.74,-197.38 562.74,-204.38"/>
</a>
</g>
</g>
<!-- Node12 -->
<g id="Node000012" class="node">
<title>Node12</title>
<g id="a_Node000012"><a xlink:href="../../de/d50/class_incompressible_solver_1_1_incompressible_flow_solver_a1dfda7f9f44340c56f54cbade9fb4624.html#a1dfda7f9f44340c56f54cbade9fb4624" target="_top" xlink:title=" ">
<polygon fill="white" stroke="#666666" points="525,-41.75 388.25,-41.75 388.25,0 525,0 525,-41.75"/>
<text text-anchor="start" x="396.25" y="-28.25" font-family="Helvetica,sans-Serif" font-size="10.00">IncompressibleSolver</text>
<text text-anchor="start" x="396.25" y="-17" font-family="Helvetica,sans-Serif" font-size="10.00">::IncompressibleFlowSolver</text>
<text text-anchor="middle" x="456.62" y="-5.75" font-family="Helvetica,sans-Serif" font-size="10.00">::gauss_seidel_solver</text>
</a>
</g>
</g>
<!-- Node11&#45;&gt;Node12 -->
<g id="edge11_Node000011_Node000012" class="edge">
<title>Node11&#45;&gt;Node12</title>
<g id="a_edge11_Node000011_Node000012"><a xlink:title=" ">
<path fill="none" stroke="#63b8ff" d="M331.6,-39.62C346.33,-37.39 361.84,-35.05 376.71,-32.8"/>
<polygon fill="#63b8ff" stroke="#63b8ff" points="377.07,-36.29 386.43,-31.33 376.02,-29.37 377.07,-36.29"/>
</a>
</g>
</g>
<!-- Node13 -->
<g id="Node000013" class="node">
<title>Node13</title>
<g id="a_Node000013"><a xlink:href="../../d3/d82/_c_type___elliptic___grid_8cpp_a9d9acf133a5b966f0cbd16a2c57a7d79.html#a9d9acf133a5b966f0cbd16a2c57a7d79" target="_top" xlink:title=" ">
<polygon fill="white" stroke="#666666" points="662.9,-30.5 634.1,-30.5 634.1,-11.25 662.9,-11.25 662.9,-30.5"/>
<text text-anchor="middle" x="648.5" y="-17" font-family="Helvetica,sans-Serif" font-size="10.00">x</text>
</a>
</g>
</g>
<!-- Node12&#45;&gt;Node13 -->
<g id="edge12_Node000012_Node000013" class="edge">
<title>Node12&#45;&gt;Node13</title>
<g id="a_edge12_Node000012_Node000013"><a xlink:title=" ">
<path fill="none" stroke="#63b8ff" d="M525.37,-20.88C559.08,-20.88 597.79,-20.88 622.43,-20.88"/>
<polygon fill="#63b8ff" stroke="#63b8ff" points="622.11,-24.38 632.11,-20.88 622.11,-17.38 622.11,-24.38"/>
</a>
</g>
</g>
</g>
</svg>
