<?xml version="1.0" encoding="UTF-8" standalone="no"?>
<!DOCTYPE svg PUBLIC "-//W3C//DTD SVG 1.1//EN"
 "http://www.w3.org/Graphics/SVG/1.1/DTD/svg11.dtd">
<!-- Generated by graphviz version 12.2.1 (20241206.2353)
 -->
<!-- Title: IncompressibleSolver::IncompressibleFlowSolver::write_solution_vtk Pages: 1 -->
<svg width="723pt" height="207pt"
 viewBox="0.00 0.00 723.25 206.64" xmlns="http://www.w3.org/2000/svg" xmlns:xlink="http://www.w3.org/1999/xlink">
<g id="graph0" class="graph" transform="scale(1 1) rotate(0) translate(4 202.64)">
<title>IncompressibleSolver::IncompressibleFlowSolver::write_solution_vtk</title>
<!-- Node1 -->
<g id="Node000001" class="node">
<title>Node1</title>
<g id="a_Node000001"><a xlink:title=" ">
<polygon fill="#999999" stroke="#666666" points="715.25,-100.42 578.5,-100.42 578.5,-58.67 715.25,-58.67 715.25,-100.42"/>
<text text-anchor="start" x="586.5" y="-86.92" font-family="Helvetica,sans-Serif" font-size="10.00">IncompressibleSolver</text>
<text text-anchor="start" x="586.5" y="-75.67" font-family="Helvetica,sans-Serif" font-size="10.00">::IncompressibleFlowSolver</text>
<text text-anchor="middle" x="646.88" y="-64.42" font-family="Helvetica,sans-Serif" font-size="10.00">::write_solution_vtk</text>
</a>
</g>
</g>
<!-- Node2 -->
<g id="Node000002" class="node">
<title>Node2</title>
<g id="a_Node000002"><a xlink:href="../../d1/dfd/test__standalone_8cpp_ae66f6b31b5ad750f1fe042a706a4e3d4.html#ae66f6b31b5ad750f1fe042a706a4e3d4" target="_top" xlink:title=" ">
<polygon fill="white" stroke="#666666" points="153.5,-181.17 116.5,-181.17 116.5,-161.92 153.5,-161.92 153.5,-181.17"/>
<text text-anchor="middle" x="135" y="-167.67" font-family="Helvetica,sans-Serif" font-size="10.00">main</text>
</a>
</g>
</g>
<!-- Node1&#45;&gt;Node2 -->
<g id="edge1_Node000001_Node000002" class="edge">
<title>Node1&#45;&gt;Node2</title>
<g id="a_edge1_Node000001_Node000002"><a xlink:title=" ">
<path fill="none" stroke="#63b8ff" d="M622.04,-109.44C603.06,-130.68 574.45,-157.5 542.5,-169.55 401.19,-222.84 212.07,-188.43 153.82,-175.71"/>
<polygon fill="#63b8ff" stroke="#63b8ff" points="624.68,-111.73 628.58,-101.88 619.39,-107.15 624.68,-111.73"/>
</a>
</g>
</g>
<!-- Node3 -->
<g id="Node000003" class="node">
<title>Node3</title>
<g id="a_Node000003"><a xlink:href="../../d3/d1b/_incompressible___main_8cpp_a0ddf1224851353fc92bfbff6f499fa97.html#a0ddf1224851353fc92bfbff6f499fa97" target="_top" xlink:title=" ">
<polygon fill="white" stroke="#666666" points="37,-88.17 0,-88.17 0,-68.92 37,-68.92 37,-88.17"/>
<text text-anchor="middle" x="18.5" y="-74.67" font-family="Helvetica,sans-Serif" font-size="10.00">main</text>
</a>
</g>
</g>
<!-- Node1&#45;&gt;Node3 -->
<g id="edge2_Node000001_Node000003" class="edge">
<title>Node1&#45;&gt;Node3</title>
<g id="a_edge2_Node000001_Node000003"><a xlink:title=" ">
<path fill="none" stroke="#63b8ff" d="M599.04,-53.25C581.79,-44.81 561.75,-36.39 542.5,-31.55 393.33,5.95 350.75,-16 197,-11.55 141.91,-9.96 122.66,12.35 73,-11.55 48.32,-23.43 31.48,-52.84 23.96,-68.45"/>
<polygon fill="#63b8ff" stroke="#63b8ff" points="596.99,-56.14 607.49,-57.52 600.14,-49.89 596.99,-56.14"/>
</a>
</g>
</g>
<!-- Node4 -->
<g id="Node000004" class="node">
<title>Node4</title>
<g id="a_Node000004"><a xlink:href="../../d3/d1b/_incompressible___main_8cpp_afe0b7b309a59208f44fafe33ff9bb6df.html#afe0b7b309a59208f44fafe33ff9bb6df" target="_top" xlink:title=" ">
<polygon fill="white" stroke="#666666" points="185,-50.8 85,-50.8 85,-20.3 185,-20.3 185,-50.8"/>
<text text-anchor="start" x="93" y="-37.3" font-family="Helvetica,sans-Serif" font-size="10.00">run_incompressible</text>
<text text-anchor="middle" x="135" y="-26.05" font-family="Helvetica,sans-Serif" font-size="10.00">_solver</text>
</a>
</g>
</g>
<!-- Node1&#45;&gt;Node4 -->
<g id="edge3_Node000001_Node000004" class="edge">
<title>Node1&#45;&gt;Node4</title>
<g id="a_edge3_Node000001_Node000004"><a xlink:title=" ">
<path fill="none" stroke="#63b8ff" d="M570.69,-55.39C561.27,-53.06 551.72,-51.02 542.5,-49.55 415.07,-29.19 262.42,-30.76 185.5,-33.33"/>
<polygon fill="#63b8ff" stroke="#63b8ff" points="569.62,-58.73 580.18,-57.86 571.38,-51.96 569.62,-58.73"/>
</a>
</g>
</g>
<!-- Node5 -->
<g id="Node000005" class="node">
<title>Node5</title>
<g id="a_Node000005"><a xlink:href="../../de/d50/class_incompressible_solver_1_1_incompressible_flow_solver_a362b0bdf0aa7cdf150b12c627951b9ad.html#a362b0bdf0aa7cdf150b12c627951b9ad" target="_top" xlink:title=" ">
<polygon fill="white" stroke="#666666" points="542.5,-100.42 405.75,-100.42 405.75,-58.67 542.5,-58.67 542.5,-100.42"/>
<text text-anchor="start" x="413.75" y="-86.92" font-family="Helvetica,sans-Serif" font-size="10.00">IncompressibleSolver</text>
<text text-anchor="start" x="413.75" y="-75.67" font-family="Helvetica,sans-Serif" font-size="10.00">::IncompressibleFlowSolver</text>
<text text-anchor="middle" x="474.12" y="-64.42" font-family="Helvetica,sans-Serif" font-size="10.00">::solve_steady_state</text>
</a>
</g>
</g>
<!-- Node1&#45;&gt;Node5 -->
<g id="edge4_Node000001_Node000005" class="edge">
<title>Node1&#45;&gt;Node5</title>
<g id="a_edge4_Node000001_Node000005"><a xlink:title=" ">
<path fill="none" stroke="#63b8ff" d="M567.08,-79.55C559.02,-79.55 550.88,-79.55 542.96,-79.55"/>
<polygon fill="#63b8ff" stroke="#63b8ff" points="566.88,-83.05 576.88,-79.55 566.88,-76.05 566.88,-83.05"/>
</a>
</g>
</g>
<!-- Node8 -->
<g id="Node000008" class="node">
<title>Node8</title>
<g id="a_Node000008"><a xlink:href="../../de/d50/class_incompressible_solver_1_1_incompressible_flow_solver_a0cf82b07bd118480642d65ec4abf5bdd.html#a0cf82b07bd118480642d65ec4abf5bdd" target="_top" xlink:title=" ">
<polygon fill="white" stroke="#666666" points="542.5,-160.42 405.75,-160.42 405.75,-118.67 542.5,-118.67 542.5,-160.42"/>
<text text-anchor="start" x="413.75" y="-146.92" font-family="Helvetica,sans-Serif" font-size="10.00">IncompressibleSolver</text>
<text text-anchor="start" x="413.75" y="-135.67" font-family="Helvetica,sans-Serif" font-size="10.00">::IncompressibleFlowSolver</text>
<text text-anchor="middle" x="474.12" y="-124.42" font-family="Helvetica,sans-Serif" font-size="10.00">::solve_transient</text>
</a>
</g>
</g>
<!-- Node1&#45;&gt;Node8 -->
<g id="edge11_Node000001_Node000008" class="edge">
<title>Node1&#45;&gt;Node8</title>
<g id="a_edge11_Node000001_Node000008"><a xlink:title=" ">
<path fill="none" stroke="#63b8ff" d="M574.53,-104.62C561.69,-109.13 548.41,-113.8 535.9,-118.19"/>
<polygon fill="#63b8ff" stroke="#63b8ff" points="575.49,-107.99 583.77,-101.37 573.17,-101.39 575.49,-107.99"/>
</a>
</g>
</g>
<!-- Node6 -->
<g id="Node000006" class="node">
<title>Node6</title>
<g id="a_Node000006"><a xlink:href="../../de/d50/class_incompressible_solver_1_1_incompressible_flow_solver_a1591ddd9ecfffecb34c0d8c1f60a56d8.html#a1591ddd9ecfffecb34c0d8c1f60a56d8" target="_top" xlink:title=" ">
<polygon fill="white" stroke="#666666" points="369.75,-119.42 233,-119.42 233,-77.67 369.75,-77.67 369.75,-119.42"/>
<text text-anchor="start" x="241" y="-105.92" font-family="Helvetica,sans-Serif" font-size="10.00">IncompressibleSolver</text>
<text text-anchor="start" x="241" y="-94.67" font-family="Helvetica,sans-Serif" font-size="10.00">::IncompressibleFlowSolver</text>
<text text-anchor="middle" x="301.38" y="-83.42" font-family="Helvetica,sans-Serif" font-size="10.00">::solve</text>
</a>
</g>
</g>
<!-- Node5&#45;&gt;Node6 -->
<g id="edge5_Node000005_Node000006" class="edge">
<title>Node5&#45;&gt;Node6</title>
<g id="a_edge5_Node000005_Node000006"><a xlink:title=" ">
<path fill="none" stroke="#63b8ff" d="M394.33,-88.32C386.27,-89.21 378.13,-90.12 370.21,-91"/>
<polygon fill="#63b8ff" stroke="#63b8ff" points="394.58,-91.81 404.14,-87.23 393.81,-84.85 394.58,-91.81"/>
</a>
</g>
</g>
<!-- Node6&#45;&gt;Node2 -->
<g id="edge6_Node000006_Node000002" class="edge">
<title>Node6&#45;&gt;Node2</title>
<g id="a_edge6_Node000006_Node000002"><a xlink:title=" ">
<path fill="none" stroke="#63b8ff" d="M242.03,-124.46C210.84,-138.31 174.64,-154.39 153.62,-163.72"/>
<polygon fill="#63b8ff" stroke="#63b8ff" points="243.29,-127.73 251.01,-120.47 240.45,-121.34 243.29,-127.73"/>
</a>
</g>
</g>
<!-- Node6&#45;&gt;Node3 -->
<g id="edge7_Node000006_Node000003" class="edge">
<title>Node6&#45;&gt;Node3</title>
<g id="a_edge7_Node000006_Node000003"><a xlink:title=" ">
<path fill="none" stroke="#63b8ff" d="M221.56,-92.94C158.16,-88.42 73.87,-82.42 37.48,-79.83"/>
<polygon fill="#63b8ff" stroke="#63b8ff" points="221.01,-96.41 231.23,-93.63 221.51,-89.42 221.01,-96.41"/>
</a>
</g>
</g>
<!-- Node6&#45;&gt;Node4 -->
<g id="edge8_Node000006_Node000004" class="edge">
<title>Node6&#45;&gt;Node4</title>
<g id="a_edge8_Node000006_Node000004"><a xlink:title=" ">
<path fill="none" stroke="#63b8ff" d="M234.15,-73.17C214.84,-65.77 194.31,-57.9 177.04,-51.28"/>
<polygon fill="#63b8ff" stroke="#63b8ff" points="232.72,-76.37 243.31,-76.68 235.23,-69.83 232.72,-76.37"/>
</a>
</g>
</g>
<!-- Node7 -->
<g id="Node000007" class="node">
<title>Node7</title>
<g id="a_Node000007"><a xlink:href="../../d3/d1b/_incompressible___main_8cpp_a10cfe68fcf009fcb40d92f8e6681b50b.html#a10cfe68fcf009fcb40d92f8e6681b50b" target="_top" xlink:title=" ">
<polygon fill="white" stroke="#666666" points="197,-126.17 73,-126.17 73,-106.92 197,-106.92 197,-126.17"/>
<text text-anchor="middle" x="135" y="-112.67" font-family="Helvetica,sans-Serif" font-size="10.00">run_validation_test_case</text>
</a>
</g>
</g>
<!-- Node6&#45;&gt;Node7 -->
<g id="edge9_Node000006_Node000007" class="edge">
<title>Node6&#45;&gt;Node7</title>
<g id="a_edge9_Node000006_Node000007"><a xlink:title=" ">
<path fill="none" stroke="#63b8ff" d="M221.26,-107.21C213.22,-108.09 205.14,-108.98 197.33,-109.83"/>
<polygon fill="#63b8ff" stroke="#63b8ff" points="221.5,-110.71 231.06,-106.14 220.74,-103.75 221.5,-110.71"/>
</a>
</g>
</g>
<!-- Node7&#45;&gt;Node3 -->
<g id="edge10_Node000007_Node000003" class="edge">
<title>Node7&#45;&gt;Node3</title>
<g id="a_edge10_Node000007_Node000003"><a xlink:title=" ">
<path fill="none" stroke="#63b8ff" d="M92.74,-102.86C73.64,-96.52 51.96,-89.32 37.17,-84.41"/>
<polygon fill="#63b8ff" stroke="#63b8ff" points="91.59,-106.16 102.18,-105.99 93.79,-99.52 91.59,-106.16"/>
</a>
</g>
</g>
<!-- Node8&#45;&gt;Node6 -->
<g id="edge12_Node000008_Node000006" class="edge">
<title>Node8&#45;&gt;Node6</title>
<g id="a_edge12_Node000008_Node000006"><a xlink:title=" ">
<path fill="none" stroke="#63b8ff" d="M394.61,-120.7C386.46,-118.74 378.23,-116.76 370.21,-114.84"/>
<polygon fill="#63b8ff" stroke="#63b8ff" points="393.63,-124.06 404.17,-122.99 395.26,-117.25 393.63,-124.06"/>
</a>
</g>
</g>
</g>
</svg>
