<?xml version="1.0" encoding="UTF-8" standalone="no"?>
<!DOCTYPE svg PUBLIC "-//W3C//DTD SVG 1.1//EN"
 "http://www.w3.org/Graphics/SVG/1.1/DTD/svg11.dtd">
<!-- Generated by graphviz version 12.2.1 (20241206.2353)
 -->
<!-- Title: IncompressibleSolver::IncompressibleFlowSolver::set_fluid_properties Pages: 1 -->
<svg width="542pt" height="132pt"
 viewBox="0.00 0.00 541.50 131.62" xmlns="http://www.w3.org/2000/svg" xmlns:xlink="http://www.w3.org/1999/xlink">
<g id="graph0" class="graph" transform="scale(1 1) rotate(0) translate(4 127.62)">
<title>IncompressibleSolver::IncompressibleFlowSolver::set_fluid_properties</title>
<!-- Node1 -->
<g id="Node000001" class="node">
<title>Node1</title>
<g id="a_Node000001"><a xlink:title=" ">
<polygon fill="#999999" stroke="#666666" points="533.5,-68.5 396.75,-68.5 396.75,-26.75 533.5,-26.75 533.5,-68.5"/>
<text text-anchor="start" x="404.75" y="-55" font-family="Helvetica,sans-Serif" font-size="10.00">IncompressibleSolver</text>
<text text-anchor="start" x="404.75" y="-43.75" font-family="Helvetica,sans-Serif" font-size="10.00">::IncompressibleFlowSolver</text>
<text text-anchor="middle" x="465.12" y="-32.5" font-family="Helvetica,sans-Serif" font-size="10.00">::set_fluid_properties</text>
</a>
</g>
</g>
<!-- Node2 -->
<g id="Node000002" class="node">
<title>Node2</title>
<g id="a_Node000002"><a xlink:href="../../d6/d0b/namespace_incompressible_solver_a7e6587392f2aec765684b93ba7a5aad6.html#a7e6587392f2aec765684b93ba7a5aad6" target="_top" xlink:title="Initialize incompressible solver with grid data from existing infrastructure.">
<polygon fill="white" stroke="#666666" points="360.75,-117.5 233,-117.5 233,-75.75 360.75,-75.75 360.75,-117.5"/>
<text text-anchor="start" x="241" y="-104" font-family="Helvetica,sans-Serif" font-size="10.00">IncompressibleSolver</text>
<text text-anchor="start" x="241" y="-92.75" font-family="Helvetica,sans-Serif" font-size="10.00">::initialize_incompressible</text>
<text text-anchor="middle" x="296.88" y="-81.5" font-family="Helvetica,sans-Serif" font-size="10.00">_solver_with_grid</text>
</a>
</g>
</g>
<!-- Node1&#45;&gt;Node2 -->
<g id="edge1_Node000001_Node000002" class="edge">
<title>Node1&#45;&gt;Node2</title>
<g id="a_edge1_Node000001_Node000002"><a xlink:title=" ">
<path fill="none" stroke="#63b8ff" d="M385.73,-70.73C377.49,-73.16 369.18,-75.61 361.14,-77.98"/>
<polygon fill="#63b8ff" stroke="#63b8ff" points="386.45,-74.17 395.05,-67.98 384.47,-67.45 386.45,-74.17"/>
</a>
</g>
</g>
<!-- Node5 -->
<g id="Node000005" class="node">
<title>Node5</title>
<g id="a_Node000005"><a xlink:href="../../d3/d1b/_incompressible___main_8cpp_a10cfe68fcf009fcb40d92f8e6681b50b.html#a10cfe68fcf009fcb40d92f8e6681b50b" target="_top" xlink:title=" ">
<polygon fill="white" stroke="#666666" points="197,-60.25 73,-60.25 73,-41 197,-41 197,-60.25"/>
<text text-anchor="middle" x="135" y="-46.75" font-family="Helvetica,sans-Serif" font-size="10.00">run_validation_test_case</text>
</a>
</g>
</g>
<!-- Node1&#45;&gt;Node5 -->
<g id="edge7_Node000001_Node000005" class="edge">
<title>Node1&#45;&gt;Node5</title>
<g id="a_edge7_Node000001_Node000005"><a xlink:title=" ">
<path fill="none" stroke="#63b8ff" d="M385.28,-48.35C327.62,-48.87 250.52,-49.58 197.41,-50.06"/>
<polygon fill="#63b8ff" stroke="#63b8ff" points="385.05,-51.85 395.02,-48.26 384.99,-44.85 385.05,-51.85"/>
</a>
</g>
</g>
<!-- Node6 -->
<g id="Node000006" class="node">
<title>Node6</title>
<g id="a_Node000006"><a xlink:href="../../d1/dfd/test__standalone_8cpp_ae66f6b31b5ad750f1fe042a706a4e3d4.html#ae66f6b31b5ad750f1fe042a706a4e3d4" target="_top" xlink:title=" ">
<polygon fill="white" stroke="#666666" points="315.38,-19.25 278.38,-19.25 278.38,0 315.38,0 315.38,-19.25"/>
<text text-anchor="middle" x="296.88" y="-5.75" font-family="Helvetica,sans-Serif" font-size="10.00">main</text>
</a>
</g>
</g>
<!-- Node1&#45;&gt;Node6 -->
<g id="edge6_Node000001_Node000006" class="edge">
<title>Node1&#45;&gt;Node6</title>
<g id="a_edge6_Node000001_Node000006"><a xlink:title=" ">
<path fill="none" stroke="#63b8ff" d="M385.42,-29.64C359.4,-23.69 332.81,-17.61 315.86,-13.74"/>
<polygon fill="#63b8ff" stroke="#63b8ff" points="384.5,-33.02 395.03,-31.83 386.06,-26.19 384.5,-33.02"/>
</a>
</g>
</g>
<!-- Node3 -->
<g id="Node000003" class="node">
<title>Node3</title>
<g id="a_Node000003"><a xlink:href="../../d3/d1b/_incompressible___main_8cpp_a0ddf1224851353fc92bfbff6f499fa97.html#a0ddf1224851353fc92bfbff6f499fa97" target="_top" xlink:title=" ">
<polygon fill="white" stroke="#666666" points="37,-103.25 0,-103.25 0,-84 37,-84 37,-103.25"/>
<text text-anchor="middle" x="18.5" y="-89.75" font-family="Helvetica,sans-Serif" font-size="10.00">main</text>
</a>
</g>
</g>
<!-- Node2&#45;&gt;Node3 -->
<g id="edge2_Node000002_Node000003" class="edge">
<title>Node2&#45;&gt;Node3</title>
<g id="a_edge2_Node000002_Node000003"><a xlink:title=" ">
<path fill="none" stroke="#63b8ff" d="M221.73,-114.79C178.05,-122.72 121.95,-128.1 73,-117.62 60.26,-114.9 46.88,-108.9 36.69,-103.58"/>
<polygon fill="#63b8ff" stroke="#63b8ff" points="222.18,-118.26 231.35,-112.95 220.87,-111.39 222.18,-118.26"/>
</a>
</g>
</g>
<!-- Node4 -->
<g id="Node000004" class="node">
<title>Node4</title>
<g id="a_Node000004"><a xlink:href="../../d3/d1b/_incompressible___main_8cpp_afe0b7b309a59208f44fafe33ff9bb6df.html#afe0b7b309a59208f44fafe33ff9bb6df" target="_top" xlink:title=" ">
<polygon fill="white" stroke="#666666" points="185,-108.88 85,-108.88 85,-78.38 185,-78.38 185,-108.88"/>
<text text-anchor="start" x="93" y="-95.38" font-family="Helvetica,sans-Serif" font-size="10.00">run_incompressible</text>
<text text-anchor="middle" x="135" y="-84.12" font-family="Helvetica,sans-Serif" font-size="10.00">_solver</text>
</a>
</g>
</g>
<!-- Node2&#45;&gt;Node4 -->
<g id="edge3_Node000002_Node000004" class="edge">
<title>Node2&#45;&gt;Node4</title>
<g id="a_edge3_Node000002_Node000004"><a xlink:title=" ">
<path fill="none" stroke="#63b8ff" d="M221.53,-95.23C209.28,-95 196.86,-94.77 185.42,-94.55"/>
<polygon fill="#63b8ff" stroke="#63b8ff" points="221.11,-98.72 231.17,-95.41 221.24,-91.72 221.11,-98.72"/>
</a>
</g>
</g>
<!-- Node2&#45;&gt;Node5 -->
<g id="edge4_Node000002_Node000005" class="edge">
<title>Node2&#45;&gt;Node5</title>
<g id="a_edge4_Node000002_Node000005"><a xlink:title=" ">
<path fill="none" stroke="#63b8ff" d="M221.78,-75.3C204.12,-70.23 186.08,-65.04 171.13,-60.73"/>
<polygon fill="#63b8ff" stroke="#63b8ff" points="220.66,-78.62 231.23,-78.03 222.59,-71.9 220.66,-78.62"/>
</a>
</g>
</g>
<!-- Node5&#45;&gt;Node3 -->
<g id="edge5_Node000005_Node000003" class="edge">
<title>Node5&#45;&gt;Node3</title>
<g id="a_edge5_Node000005_Node000003"><a xlink:title=" ">
<path fill="none" stroke="#63b8ff" d="M88.52,-64.13C83.26,-65.89 77.99,-67.74 73,-69.62 60.81,-74.24 47.44,-80.24 37.11,-85.08"/>
<polygon fill="#63b8ff" stroke="#63b8ff" points="89.36,-67.54 97.8,-61.13 87.2,-60.88 89.36,-67.54"/>
</a>
</g>
</g>
</g>
</svg>
