<?xml version="1.0" encoding="UTF-8" standalone="no"?>
<!DOCTYPE svg PUBLIC "-//W3C//DTD SVG 1.1//EN"
 "http://www.w3.org/Graphics/SVG/1.1/DTD/svg11.dtd">
<!-- Generated by graphviz version 12.2.1 (20241206.2353)
 -->
<!-- Title: IncompressibleSolver::IncompressibleFlowSolver::compute_pressure_residual Pages: 1 -->
<svg width="901pt" height="151pt"
 viewBox="0.00 0.00 900.50 151.25" xmlns="http://www.w3.org/2000/svg" xmlns:xlink="http://www.w3.org/1999/xlink">
<g id="graph0" class="graph" transform="scale(1 1) rotate(0) translate(4 147.25)">
<title>IncompressibleSolver::IncompressibleFlowSolver::compute_pressure_residual</title>
<!-- Node1 -->
<g id="Node000001" class="node">
<title>Node1</title>
<g id="a_Node000001"><a xlink:title=" ">
<polygon fill="#999999" stroke="#666666" points="892.5,-94.5 751.25,-94.5 751.25,-52.75 892.5,-52.75 892.5,-94.5"/>
<text text-anchor="start" x="759.25" y="-81" font-family="Helvetica,sans-Serif" font-size="10.00">IncompressibleSolver</text>
<text text-anchor="start" x="759.25" y="-69.75" font-family="Helvetica,sans-Serif" font-size="10.00">::IncompressibleFlowSolver</text>
<text text-anchor="middle" x="821.88" y="-58.5" font-family="Helvetica,sans-Serif" font-size="10.00">::compute_pressure_residual</text>
</a>
</g>
</g>
<!-- Node2 -->
<g id="Node000002" class="node">
<title>Node2</title>
<g id="a_Node000002"><a xlink:href="../../de/d50/class_incompressible_solver_1_1_incompressible_flow_solver_a594c862b16677598e183493df7d51292.html#a594c862b16677598e183493df7d51292" target="_top" xlink:title=" ">
<polygon fill="white" stroke="#666666" points="715.25,-94.5 578.5,-94.5 578.5,-52.75 715.25,-52.75 715.25,-94.5"/>
<text text-anchor="start" x="586.5" y="-81" font-family="Helvetica,sans-Serif" font-size="10.00">IncompressibleSolver</text>
<text text-anchor="start" x="586.5" y="-69.75" font-family="Helvetica,sans-Serif" font-size="10.00">::IncompressibleFlowSolver</text>
<text text-anchor="middle" x="646.88" y="-58.5" font-family="Helvetica,sans-Serif" font-size="10.00">::check_convergence</text>
</a>
</g>
</g>
<!-- Node1&#45;&gt;Node2 -->
<g id="edge1_Node000001_Node000002" class="edge">
<title>Node1&#45;&gt;Node2</title>
<g id="a_edge1_Node000001_Node000002"><a xlink:title=" ">
<path fill="none" stroke="#63b8ff" d="M739.64,-73.62C731.55,-73.62 723.4,-73.62 715.48,-73.62"/>
<polygon fill="#63b8ff" stroke="#63b8ff" points="739.49,-77.13 749.49,-73.63 739.49,-70.13 739.49,-77.13"/>
</a>
</g>
</g>
<!-- Node3 -->
<g id="Node000003" class="node">
<title>Node3</title>
<g id="a_Node000003"><a xlink:href="../../de/d50/class_incompressible_solver_1_1_incompressible_flow_solver_a362b0bdf0aa7cdf150b12c627951b9ad.html#a362b0bdf0aa7cdf150b12c627951b9ad" target="_top" xlink:title=" ">
<polygon fill="white" stroke="#666666" points="542.5,-124.5 405.75,-124.5 405.75,-82.75 542.5,-82.75 542.5,-124.5"/>
<text text-anchor="start" x="413.75" y="-111" font-family="Helvetica,sans-Serif" font-size="10.00">IncompressibleSolver</text>
<text text-anchor="start" x="413.75" y="-99.75" font-family="Helvetica,sans-Serif" font-size="10.00">::IncompressibleFlowSolver</text>
<text text-anchor="middle" x="474.12" y="-88.5" font-family="Helvetica,sans-Serif" font-size="10.00">::solve_steady_state</text>
</a>
</g>
</g>
<!-- Node2&#45;&gt;Node3 -->
<g id="edge2_Node000002_Node000003" class="edge">
<title>Node2&#45;&gt;Node3</title>
<g id="a_edge2_Node000002_Node000003"><a xlink:title=" ">
<path fill="none" stroke="#63b8ff" d="M567.08,-87.47C559.02,-88.88 550.88,-90.31 542.96,-91.71"/>
<polygon fill="#63b8ff" stroke="#63b8ff" points="567.66,-90.92 576.9,-85.74 566.44,-84.03 567.66,-90.92"/>
</a>
</g>
</g>
<!-- Node9 -->
<g id="Node000009" class="node">
<title>Node9</title>
<g id="a_Node000009"><a xlink:href="../../de/d50/class_incompressible_solver_1_1_incompressible_flow_solver_a0cf82b07bd118480642d65ec4abf5bdd.html#a0cf82b07bd118480642d65ec4abf5bdd" target="_top" xlink:title=" ">
<polygon fill="white" stroke="#666666" points="542.5,-64.5 405.75,-64.5 405.75,-22.75 542.5,-22.75 542.5,-64.5"/>
<text text-anchor="start" x="413.75" y="-51" font-family="Helvetica,sans-Serif" font-size="10.00">IncompressibleSolver</text>
<text text-anchor="start" x="413.75" y="-39.75" font-family="Helvetica,sans-Serif" font-size="10.00">::IncompressibleFlowSolver</text>
<text text-anchor="middle" x="474.12" y="-28.5" font-family="Helvetica,sans-Serif" font-size="10.00">::solve_transient</text>
</a>
</g>
</g>
<!-- Node2&#45;&gt;Node9 -->
<g id="edge9_Node000002_Node000009" class="edge">
<title>Node2&#45;&gt;Node9</title>
<g id="a_edge9_Node000002_Node000009"><a xlink:title=" ">
<path fill="none" stroke="#63b8ff" d="M567.08,-59.78C559.02,-58.37 550.88,-56.94 542.96,-55.54"/>
<polygon fill="#63b8ff" stroke="#63b8ff" points="566.44,-63.22 576.9,-61.51 567.66,-56.33 566.44,-63.22"/>
</a>
</g>
</g>
<!-- Node4 -->
<g id="Node000004" class="node">
<title>Node4</title>
<g id="a_Node000004"><a xlink:href="../../de/d50/class_incompressible_solver_1_1_incompressible_flow_solver_a1591ddd9ecfffecb34c0d8c1f60a56d8.html#a1591ddd9ecfffecb34c0d8c1f60a56d8" target="_top" xlink:title=" ">
<polygon fill="white" stroke="#666666" points="369.75,-94.5 233,-94.5 233,-52.75 369.75,-52.75 369.75,-94.5"/>
<text text-anchor="start" x="241" y="-81" font-family="Helvetica,sans-Serif" font-size="10.00">IncompressibleSolver</text>
<text text-anchor="start" x="241" y="-69.75" font-family="Helvetica,sans-Serif" font-size="10.00">::IncompressibleFlowSolver</text>
<text text-anchor="middle" x="301.38" y="-58.5" font-family="Helvetica,sans-Serif" font-size="10.00">::solve</text>
</a>
</g>
</g>
<!-- Node3&#45;&gt;Node4 -->
<g id="edge3_Node000003_Node000004" class="edge">
<title>Node3&#45;&gt;Node4</title>
<g id="a_edge3_Node000003_Node000004"><a xlink:title=" ">
<path fill="none" stroke="#63b8ff" d="M394.33,-89.78C386.27,-88.37 378.13,-86.94 370.21,-85.54"/>
<polygon fill="#63b8ff" stroke="#63b8ff" points="393.69,-93.22 404.15,-91.51 394.91,-86.33 393.69,-93.22"/>
</a>
</g>
</g>
<!-- Node5 -->
<g id="Node000005" class="node">
<title>Node5</title>
<g id="a_Node000005"><a xlink:href="../../d1/dfd/test__standalone_8cpp_ae66f6b31b5ad750f1fe042a706a4e3d4.html#ae66f6b31b5ad750f1fe042a706a4e3d4" target="_top" xlink:title=" ">
<polygon fill="white" stroke="#666666" points="153.5,-143.25 116.5,-143.25 116.5,-124 153.5,-124 153.5,-143.25"/>
<text text-anchor="middle" x="135" y="-129.75" font-family="Helvetica,sans-Serif" font-size="10.00">main</text>
</a>
</g>
</g>
<!-- Node4&#45;&gt;Node5 -->
<g id="edge4_Node000004_Node000005" class="edge">
<title>Node4&#45;&gt;Node5</title>
<g id="a_edge4_Node000004_Node000005"><a xlink:title=" ">
<path fill="none" stroke="#63b8ff" d="M231.26,-98.85C203,-109.17 172.63,-120.26 153.96,-127.07"/>
<polygon fill="#63b8ff" stroke="#63b8ff" points="232.34,-102.18 240.54,-95.47 229.94,-95.61 232.34,-102.18"/>
</a>
</g>
</g>
<!-- Node6 -->
<g id="Node000006" class="node">
<title>Node6</title>
<g id="a_Node000006"><a xlink:href="../../d3/d1b/_incompressible___main_8cpp_a0ddf1224851353fc92bfbff6f499fa97.html#a0ddf1224851353fc92bfbff6f499fa97" target="_top" xlink:title=" ">
<polygon fill="white" stroke="#666666" points="37,-62.25 0,-62.25 0,-43 37,-43 37,-62.25"/>
<text text-anchor="middle" x="18.5" y="-48.75" font-family="Helvetica,sans-Serif" font-size="10.00">main</text>
</a>
</g>
</g>
<!-- Node4&#45;&gt;Node6 -->
<g id="edge5_Node000004_Node000006" class="edge">
<title>Node4&#45;&gt;Node6</title>
<g id="a_edge5_Node000004_Node000006"><a xlink:title=" ">
<path fill="none" stroke="#63b8ff" d="M221.44,-83.23C177.3,-86.47 121.56,-87.02 73,-76.62 60.26,-73.9 46.88,-67.9 36.69,-62.58"/>
<polygon fill="#63b8ff" stroke="#63b8ff" points="221.5,-86.74 231.18,-82.45 220.94,-79.76 221.5,-86.74"/>
</a>
</g>
</g>
<!-- Node7 -->
<g id="Node000007" class="node">
<title>Node7</title>
<g id="a_Node000007"><a xlink:href="../../d3/d1b/_incompressible___main_8cpp_afe0b7b309a59208f44fafe33ff9bb6df.html#afe0b7b309a59208f44fafe33ff9bb6df" target="_top" xlink:title=" ">
<polygon fill="white" stroke="#666666" points="185,-67.88 85,-67.88 85,-37.38 185,-37.38 185,-67.88"/>
<text text-anchor="start" x="93" y="-54.38" font-family="Helvetica,sans-Serif" font-size="10.00">run_incompressible</text>
<text text-anchor="middle" x="135" y="-43.12" font-family="Helvetica,sans-Serif" font-size="10.00">_solver</text>
</a>
</g>
</g>
<!-- Node4&#45;&gt;Node7 -->
<g id="edge6_Node000004_Node000007" class="edge">
<title>Node4&#45;&gt;Node7</title>
<g id="a_edge6_Node000004_Node000007"><a xlink:title=" ">
<path fill="none" stroke="#63b8ff" d="M221.29,-63.52C208.94,-61.94 196.49,-60.35 185.07,-58.89"/>
<polygon fill="#63b8ff" stroke="#63b8ff" points="220.7,-66.97 231.07,-64.77 221.59,-60.03 220.7,-66.97"/>
</a>
</g>
</g>
<!-- Node8 -->
<g id="Node000008" class="node">
<title>Node8</title>
<g id="a_Node000008"><a xlink:href="../../d3/d1b/_incompressible___main_8cpp_a10cfe68fcf009fcb40d92f8e6681b50b.html#a10cfe68fcf009fcb40d92f8e6681b50b" target="_top" xlink:title=" ">
<polygon fill="white" stroke="#666666" points="197,-19.25 73,-19.25 73,0 197,0 197,-19.25"/>
<text text-anchor="middle" x="135" y="-5.75" font-family="Helvetica,sans-Serif" font-size="10.00">run_validation_test_case</text>
</a>
</g>
</g>
<!-- Node4&#45;&gt;Node8 -->
<g id="edge7_Node000004_Node000008" class="edge">
<title>Node4&#45;&gt;Node8</title>
<g id="a_edge7_Node000004_Node000008"><a xlink:title=" ">
<path fill="none" stroke="#63b8ff" d="M244,-47.77C228.87,-41.19 212.43,-34.37 197,-28.62 188.58,-25.49 179.38,-22.44 170.74,-19.73"/>
<polygon fill="#63b8ff" stroke="#63b8ff" points="242.29,-50.84 252.86,-51.66 245.11,-44.43 242.29,-50.84"/>
</a>
</g>
</g>
<!-- Node8&#45;&gt;Node6 -->
<g id="edge8_Node000008_Node000006" class="edge">
<title>Node8&#45;&gt;Node6</title>
<g id="a_edge8_Node000008_Node000006"><a xlink:title=" ">
<path fill="none" stroke="#63b8ff" d="M88.52,-23.13C83.26,-24.89 77.99,-26.74 73,-28.62 60.81,-33.24 47.44,-39.24 37.11,-44.08"/>
<polygon fill="#63b8ff" stroke="#63b8ff" points="89.36,-26.54 97.8,-20.13 87.2,-19.88 89.36,-26.54"/>
</a>
</g>
</g>
<!-- Node9&#45;&gt;Node4 -->
<g id="edge10_Node000009_Node000004" class="edge">
<title>Node9&#45;&gt;Node4</title>
<g id="a_edge10_Node000009_Node000004"><a xlink:title=" ">
<path fill="none" stroke="#63b8ff" d="M394.33,-57.47C386.27,-58.88 378.13,-60.31 370.21,-61.71"/>
<polygon fill="#63b8ff" stroke="#63b8ff" points="394.91,-60.92 404.15,-55.74 393.69,-54.03 394.91,-60.92"/>
</a>
</g>
</g>
</g>
</svg>
