<?xml version="1.0" encoding="UTF-8" standalone="no"?>
<!DOCTYPE svg PUBLIC "-//W3C//DTD SVG 1.1//EN"
 "http://www.w3.org/Graphics/SVG/1.1/DTD/svg11.dtd">
<!-- Generated by graphviz version 12.2.1 (20241206.2353)
 -->
<!-- Title: IncompressibleSolver::IncompressibleFlowSolver::solve_transient Pages: 1 -->
<svg width="903pt" height="742pt"
 viewBox="0.00 0.00 903.25 741.75" xmlns="http://www.w3.org/2000/svg" xmlns:xlink="http://www.w3.org/1999/xlink">
<g id="graph0" class="graph" transform="scale(1 1) rotate(0) translate(4 737.75)">
<title>IncompressibleSolver::IncompressibleFlowSolver::solve_transient</title>
<!-- Node1 -->
<g id="Node000001" class="node">
<title>Node1</title>
<g id="a_Node000001"><a xlink:title=" ">
<polygon fill="#999999" stroke="#666666" points="136.75,-221.75 0,-221.75 0,-180 136.75,-180 136.75,-221.75"/>
<text text-anchor="start" x="8" y="-208.25" font-family="Helvetica,sans-Serif" font-size="10.00">IncompressibleSolver</text>
<text text-anchor="start" x="8" y="-197" font-family="Helvetica,sans-Serif" font-size="10.00">::IncompressibleFlowSolver</text>
<text text-anchor="middle" x="68.38" y="-185.75" font-family="Helvetica,sans-Serif" font-size="10.00">::solve_transient</text>
</a>
</g>
</g>
<!-- Node2 -->
<g id="Node000002" class="node">
<title>Node2</title>
<g id="a_Node000002"><a xlink:href="../../de/d50/class_incompressible_solver_1_1_incompressible_flow_solver_a594c862b16677598e183493df7d51292.html#a594c862b16677598e183493df7d51292" target="_top" xlink:title=" ">
<polygon fill="white" stroke="#666666" points="309.88,-643.75 173.12,-643.75 173.12,-602 309.88,-602 309.88,-643.75"/>
<text text-anchor="start" x="181.12" y="-630.25" font-family="Helvetica,sans-Serif" font-size="10.00">IncompressibleSolver</text>
<text text-anchor="start" x="181.12" y="-619" font-family="Helvetica,sans-Serif" font-size="10.00">::IncompressibleFlowSolver</text>
<text text-anchor="middle" x="241.5" y="-607.75" font-family="Helvetica,sans-Serif" font-size="10.00">::check_convergence</text>
</a>
</g>
</g>
<!-- Node1&#45;&gt;Node2 -->
<g id="edge1_Node000001_Node000002" class="edge">
<title>Node1&#45;&gt;Node2</title>
<g id="a_edge1_Node000001_Node000002"><a xlink:title=" ">
<path fill="none" stroke="#63b8ff" d="M77.98,-222.09C105.94,-291.04 194.35,-509.07 227.65,-591.18"/>
<polygon fill="#63b8ff" stroke="#63b8ff" points="224.31,-592.26 231.31,-600.21 230.8,-589.63 224.31,-592.26"/>
</a>
</g>
</g>
<!-- Node6 -->
<g id="Node000006" class="node">
<title>Node6</title>
<g id="a_Node000006"><a xlink:href="../../de/d50/class_incompressible_solver_1_1_incompressible_flow_solver_a757838fbb33efca31bb7101cf1e3723b.html#a757838fbb33efca31bb7101cf1e3723b" target="_top" xlink:title=" ">
<polygon fill="white" stroke="#666666" points="310.25,-408.75 172.75,-408.75 172.75,-367 310.25,-367 310.25,-408.75"/>
<text text-anchor="start" x="180.75" y="-395.25" font-family="Helvetica,sans-Serif" font-size="10.00">IncompressibleSolver</text>
<text text-anchor="start" x="180.75" y="-384" font-family="Helvetica,sans-Serif" font-size="10.00">::IncompressibleFlowSolver</text>
<text text-anchor="middle" x="241.5" y="-372.75" font-family="Helvetica,sans-Serif" font-size="10.00">::momentum_predictor_step</text>
</a>
</g>
</g>
<!-- Node1&#45;&gt;Node6 -->
<g id="edge5_Node000001_Node000006" class="edge">
<title>Node1&#45;&gt;Node6</title>
<g id="a_edge5_Node000001_Node000006"><a xlink:title=" ">
<path fill="none" stroke="#63b8ff" d="M88.67,-221.96C119.23,-255.35 178.83,-320.49 213.58,-358.45"/>
<polygon fill="#63b8ff" stroke="#63b8ff" points="210.66,-360.45 219.99,-365.46 215.82,-355.72 210.66,-360.45"/>
</a>
</g>
</g>
<!-- Node19 -->
<g id="Node000019" class="node">
<title>Node19</title>
<g id="a_Node000019"><a xlink:href="../../de/d50/class_incompressible_solver_1_1_incompressible_flow_solver_af0afa9590cc888a11be27cce3c221a47.html#af0afa9590cc888a11be27cce3c221a47" target="_top" xlink:title=" ">
<polygon fill="white" stroke="#666666" points="309.88,-281.75 173.12,-281.75 173.12,-240 309.88,-240 309.88,-281.75"/>
<text text-anchor="start" x="181.12" y="-268.25" font-family="Helvetica,sans-Serif" font-size="10.00">IncompressibleSolver</text>
<text text-anchor="start" x="181.12" y="-257" font-family="Helvetica,sans-Serif" font-size="10.00">::IncompressibleFlowSolver</text>
<text text-anchor="middle" x="241.5" y="-245.75" font-family="Helvetica,sans-Serif" font-size="10.00">::pressure_correction_step</text>
</a>
</g>
</g>
<!-- Node1&#45;&gt;Node19 -->
<g id="edge18_Node000001_Node000019" class="edge">
<title>Node1&#45;&gt;Node19</title>
<g id="a_edge18_Node000001_Node000019"><a xlink:title=" ">
<path fill="none" stroke="#63b8ff" d="M130.19,-222.2C142.72,-226.59 156.03,-231.26 168.91,-235.77"/>
<polygon fill="#63b8ff" stroke="#63b8ff" points="167.57,-239.01 178.17,-239.02 169.89,-232.41 167.57,-239.01"/>
</a>
</g>
</g>
<!-- Node25 -->
<g id="Node000025" class="node">
<title>Node25</title>
<g id="a_Node000025"><a xlink:href="../../de/d50/class_incompressible_solver_1_1_incompressible_flow_solver_acc9ed30aa8633eb369b7363af91076c1.html#acc9ed30aa8633eb369b7363af91076c1" target="_top" xlink:title=" ">
<polygon fill="white" stroke="#666666" points="309.88,-221.75 173.12,-221.75 173.12,-180 309.88,-180 309.88,-221.75"/>
<text text-anchor="start" x="181.12" y="-208.25" font-family="Helvetica,sans-Serif" font-size="10.00">IncompressibleSolver</text>
<text text-anchor="start" x="181.12" y="-197" font-family="Helvetica,sans-Serif" font-size="10.00">::IncompressibleFlowSolver</text>
<text text-anchor="middle" x="241.5" y="-185.75" font-family="Helvetica,sans-Serif" font-size="10.00">::print_iteration_info</text>
</a>
</g>
</g>
<!-- Node1&#45;&gt;Node25 -->
<g id="edge25_Node000001_Node000025" class="edge">
<title>Node1&#45;&gt;Node25</title>
<g id="a_edge25_Node000001_Node000025"><a xlink:title=" ">
<path fill="none" stroke="#63b8ff" d="M137.01,-200.88C145.01,-200.88 153.23,-200.88 161.37,-200.88"/>
<polygon fill="#63b8ff" stroke="#63b8ff" points="161.28,-204.38 171.28,-200.88 161.28,-197.38 161.28,-204.38"/>
</a>
</g>
</g>
<!-- Node26 -->
<g id="Node000026" class="node">
<title>Node26</title>
<g id="a_Node000026"><a xlink:href="../../de/d50/class_incompressible_solver_1_1_incompressible_flow_solver_ac941e2bf4ef7ded45cb7f4fa6921dd5f.html#ac941e2bf4ef7ded45cb7f4fa6921dd5f" target="_top" xlink:title=" ">
<polygon fill="white" stroke="#666666" points="309.88,-161.75 173.12,-161.75 173.12,-120 309.88,-120 309.88,-161.75"/>
<text text-anchor="start" x="181.12" y="-148.25" font-family="Helvetica,sans-Serif" font-size="10.00">IncompressibleSolver</text>
<text text-anchor="start" x="181.12" y="-137" font-family="Helvetica,sans-Serif" font-size="10.00">::IncompressibleFlowSolver</text>
<text text-anchor="middle" x="241.5" y="-125.75" font-family="Helvetica,sans-Serif" font-size="10.00">::update_face_velocities</text>
</a>
</g>
</g>
<!-- Node1&#45;&gt;Node26 -->
<g id="edge26_Node000001_Node000026" class="edge">
<title>Node1&#45;&gt;Node26</title>
<g id="a_edge26_Node000001_Node000026"><a xlink:title=" ">
<path fill="none" stroke="#63b8ff" d="M130.19,-179.55C142.72,-175.16 156.03,-170.49 168.91,-165.98"/>
<polygon fill="#63b8ff" stroke="#63b8ff" points="169.89,-169.34 178.17,-162.73 167.57,-162.74 169.89,-169.34"/>
</a>
</g>
</g>
<!-- Node28 -->
<g id="Node000028" class="node">
<title>Node28</title>
<g id="a_Node000028"><a xlink:href="../../de/d50/class_incompressible_solver_1_1_incompressible_flow_solver_ae916dfd442dcab1b99198b0c8f1f8fb9.html#ae916dfd442dcab1b99198b0c8f1f8fb9" target="_top" xlink:title=" ">
<polygon fill="white" stroke="#666666" points="309.88,-101.75 173.12,-101.75 173.12,-60 309.88,-60 309.88,-101.75"/>
<text text-anchor="start" x="181.12" y="-88.25" font-family="Helvetica,sans-Serif" font-size="10.00">IncompressibleSolver</text>
<text text-anchor="start" x="181.12" y="-77" font-family="Helvetica,sans-Serif" font-size="10.00">::IncompressibleFlowSolver</text>
<text text-anchor="middle" x="241.5" y="-65.75" font-family="Helvetica,sans-Serif" font-size="10.00">::velocity_corrector_step</text>
</a>
</g>
</g>
<!-- Node1&#45;&gt;Node28 -->
<g id="edge28_Node000001_Node000028" class="edge">
<title>Node1&#45;&gt;Node28</title>
<g id="a_edge28_Node000001_Node000028"><a xlink:title=" ">
<path fill="none" stroke="#63b8ff" d="M90.04,-179.53C109.89,-159.86 141.43,-130.8 172.75,-110.88 174.58,-109.71 176.47,-108.57 178.39,-107.45"/>
<polygon fill="#63b8ff" stroke="#63b8ff" points="179.81,-110.66 186.92,-102.81 176.46,-104.52 179.81,-110.66"/>
</a>
</g>
</g>
<!-- Node29 -->
<g id="Node000029" class="node">
<title>Node29</title>
<g id="a_Node000029"><a xlink:href="../../de/d50/class_incompressible_solver_1_1_incompressible_flow_solver_a188f0228519b9ff9cd3cef4571e52aa0.html#a188f0228519b9ff9cd3cef4571e52aa0" target="_top" xlink:title=" ">
<polygon fill="white" stroke="#666666" points="309.88,-41.75 173.12,-41.75 173.12,0 309.88,0 309.88,-41.75"/>
<text text-anchor="start" x="181.12" y="-28.25" font-family="Helvetica,sans-Serif" font-size="10.00">IncompressibleSolver</text>
<text text-anchor="start" x="181.12" y="-17" font-family="Helvetica,sans-Serif" font-size="10.00">::IncompressibleFlowSolver</text>
<text text-anchor="middle" x="241.5" y="-5.75" font-family="Helvetica,sans-Serif" font-size="10.00">::write_solution_vtk</text>
</a>
</g>
</g>
<!-- Node1&#45;&gt;Node29 -->
<g id="edge29_Node000001_Node000029" class="edge">
<title>Node1&#45;&gt;Node29</title>
<g id="a_edge29_Node000001_Node000029"><a xlink:title=" ">
<path fill="none" stroke="#63b8ff" d="M79.19,-179.73C94.88,-147.93 128.43,-87.61 172.75,-50.88 173.84,-49.97 174.95,-49.1 176.1,-48.24"/>
<polygon fill="#63b8ff" stroke="#63b8ff" points="177.67,-51.4 184.05,-42.94 173.79,-45.57 177.67,-51.4"/>
</a>
</g>
</g>
<!-- Node3 -->
<g id="Node000003" class="node">
<title>Node3</title>
<g id="a_Node000003"><a xlink:href="../../de/d50/class_incompressible_solver_1_1_incompressible_flow_solver_a7de6f0689a3218057110716876925f94.html#a7de6f0689a3218057110716876925f94" target="_top" xlink:title=" ">
<polygon fill="white" stroke="#666666" points="501.75,-733.75 356,-733.75 356,-692 501.75,-692 501.75,-733.75"/>
<text text-anchor="start" x="364" y="-720.25" font-family="Helvetica,sans-Serif" font-size="10.00">IncompressibleSolver</text>
<text text-anchor="start" x="364" y="-709" font-family="Helvetica,sans-Serif" font-size="10.00">::IncompressibleFlowSolver</text>
<text text-anchor="middle" x="428.88" y="-697.75" font-family="Helvetica,sans-Serif" font-size="10.00">::compute_continuity_residual</text>
</a>
</g>
</g>
<!-- Node2&#45;&gt;Node3 -->
<g id="edge2_Node000002_Node000003" class="edge">
<title>Node2&#45;&gt;Node3</title>
<g id="a_edge2_Node000002_Node000003"><a xlink:title=" ">
<path fill="none" stroke="#63b8ff" d="M275.82,-644.11C295.79,-656.34 321.95,-671.48 346.25,-682.88 349.36,-684.33 352.57,-685.77 355.82,-687.18"/>
<polygon fill="#63b8ff" stroke="#63b8ff" points="354.37,-690.36 364.94,-690.98 357.06,-683.9 354.37,-690.36"/>
</a>
</g>
</g>
<!-- Node4 -->
<g id="Node000004" class="node">
<title>Node4</title>
<g id="a_Node000004"><a xlink:href="../../de/d50/class_incompressible_solver_1_1_incompressible_flow_solver_a84530e5502c4c912f131bff4ef0ba0b4.html#a84530e5502c4c912f131bff4ef0ba0b4" target="_top" xlink:title=" ">
<polygon fill="white" stroke="#666666" points="499.5,-673.75 358.25,-673.75 358.25,-632 499.5,-632 499.5,-673.75"/>
<text text-anchor="start" x="366.25" y="-660.25" font-family="Helvetica,sans-Serif" font-size="10.00">IncompressibleSolver</text>
<text text-anchor="start" x="366.25" y="-649" font-family="Helvetica,sans-Serif" font-size="10.00">::IncompressibleFlowSolver</text>
<text text-anchor="middle" x="428.88" y="-637.75" font-family="Helvetica,sans-Serif" font-size="10.00">::compute_pressure_residual</text>
</a>
</g>
</g>
<!-- Node2&#45;&gt;Node4 -->
<g id="edge3_Node000002_Node000004" class="edge">
<title>Node2&#45;&gt;Node4</title>
<g id="a_edge3_Node000002_Node000004"><a xlink:title=" ">
<path fill="none" stroke="#63b8ff" d="M310.21,-633.83C322.09,-635.76 334.56,-637.77 346.76,-639.75"/>
<polygon fill="#63b8ff" stroke="#63b8ff" points="345.93,-643.16 356.36,-641.3 347.05,-636.25 345.93,-643.16"/>
</a>
</g>
</g>
<!-- Node5 -->
<g id="Node000005" class="node">
<title>Node5</title>
<g id="a_Node000005"><a xlink:href="../../de/d50/class_incompressible_solver_1_1_incompressible_flow_solver_ad4fdb522576aaa13181e44fc0b5bd4ad.html#ad4fdb522576aaa13181e44fc0b5bd4ad" target="_top" xlink:title=" ">
<polygon fill="white" stroke="#666666" points="497.62,-613.75 360.12,-613.75 360.12,-572 497.62,-572 497.62,-613.75"/>
<text text-anchor="start" x="368.12" y="-600.25" font-family="Helvetica,sans-Serif" font-size="10.00">IncompressibleSolver</text>
<text text-anchor="start" x="368.12" y="-589" font-family="Helvetica,sans-Serif" font-size="10.00">::IncompressibleFlowSolver</text>
<text text-anchor="middle" x="428.88" y="-577.75" font-family="Helvetica,sans-Serif" font-size="10.00">::compute_velocity_residual</text>
</a>
</g>
</g>
<!-- Node2&#45;&gt;Node5 -->
<g id="edge4_Node000002_Node000005" class="edge">
<title>Node2&#45;&gt;Node5</title>
<g id="a_edge4_Node000002_Node000005"><a xlink:title=" ">
<path fill="none" stroke="#63b8ff" d="M310.21,-611.92C322.69,-609.9 335.82,-607.77 348.61,-605.7"/>
<polygon fill="#63b8ff" stroke="#63b8ff" points="348.92,-609.2 358.23,-604.15 347.8,-602.29 348.92,-609.2"/>
</a>
</g>
</g>
<!-- Node7 -->
<g id="Node000007" class="node">
<title>Node7</title>
<g id="a_Node000007"><a xlink:href="../../de/d50/class_incompressible_solver_1_1_incompressible_flow_solver_aab2f937907f72e877aae62e73acb7302.html#aab2f937907f72e877aae62e73acb7302" target="_top" xlink:title=" ">
<polygon fill="white" stroke="#666666" points="497.25,-554.38 360.5,-554.38 360.5,-501.38 497.25,-501.38 497.25,-554.38"/>
<text text-anchor="start" x="368.5" y="-540.88" font-family="Helvetica,sans-Serif" font-size="10.00">IncompressibleSolver</text>
<text text-anchor="start" x="368.5" y="-529.62" font-family="Helvetica,sans-Serif" font-size="10.00">::IncompressibleFlowSolver</text>
<text text-anchor="start" x="368.5" y="-518.38" font-family="Helvetica,sans-Serif" font-size="10.00">::apply_velocity_boundary</text>
<text text-anchor="middle" x="428.88" y="-507.12" font-family="Helvetica,sans-Serif" font-size="10.00">_conditions</text>
</a>
</g>
</g>
<!-- Node6&#45;&gt;Node7 -->
<g id="edge6_Node000006_Node000007" class="edge">
<title>Node6&#45;&gt;Node7</title>
<g id="a_edge6_Node000006_Node000007"><a xlink:title=" ">
<path fill="none" stroke="#63b8ff" d="M270.65,-409.14C300.5,-431.68 348.07,-467.6 383.07,-494.04"/>
<polygon fill="#63b8ff" stroke="#63b8ff" points="380.84,-496.74 390.93,-499.97 385.06,-491.15 380.84,-496.74"/>
</a>
</g>
</g>
<!-- Node11 -->
<g id="Node000011" class="node">
<title>Node11</title>
<g id="a_Node000011"><a xlink:href="../../de/d50/class_incompressible_solver_1_1_incompressible_flow_solver_a63f7ce1207f5c032ce5adc2f494d44f1.html#a63f7ce1207f5c032ce5adc2f494d44f1" target="_top" xlink:title=" ">
<polygon fill="white" stroke="#666666" points="511.5,-438.75 346.25,-438.75 346.25,-397 511.5,-397 511.5,-438.75"/>
<text text-anchor="start" x="354.25" y="-425.25" font-family="Helvetica,sans-Serif" font-size="10.00">IncompressibleSolver</text>
<text text-anchor="start" x="354.25" y="-414" font-family="Helvetica,sans-Serif" font-size="10.00">::IncompressibleFlowSolver</text>
<text text-anchor="middle" x="428.88" y="-402.75" font-family="Helvetica,sans-Serif" font-size="10.00">::assemble_momentum_equations</text>
</a>
</g>
</g>
<!-- Node6&#45;&gt;Node11 -->
<g id="edge10_Node000006_Node000011" class="edge">
<title>Node6&#45;&gt;Node11</title>
<g id="a_edge10_Node000006_Node000011"><a xlink:title=" ">
<path fill="none" stroke="#63b8ff" d="M310.74,-398.92C318.53,-400.18 326.56,-401.48 334.6,-402.78"/>
<polygon fill="#63b8ff" stroke="#63b8ff" points="334.03,-406.23 344.46,-404.38 335.15,-399.32 334.03,-406.23"/>
</a>
</g>
</g>
<!-- Node16 -->
<g id="Node000016" class="node">
<title>Node16</title>
<g id="a_Node000016"><a xlink:href="../../de/d50/class_incompressible_solver_1_1_incompressible_flow_solver_a5b38ff795525fd6a41a1cb199f2385d3.html#a5b38ff795525fd6a41a1cb199f2385d3" target="_top" xlink:title=" ">
<polygon fill="white" stroke="#666666" points="504,-378.75 353.75,-378.75 353.75,-337 504,-337 504,-378.75"/>
<text text-anchor="start" x="361.75" y="-365.25" font-family="Helvetica,sans-Serif" font-size="10.00">IncompressibleSolver</text>
<text text-anchor="start" x="361.75" y="-354" font-family="Helvetica,sans-Serif" font-size="10.00">::IncompressibleFlowSolver</text>
<text text-anchor="middle" x="428.88" y="-342.75" font-family="Helvetica,sans-Serif" font-size="10.00">::solve_linear_system_velocity</text>
</a>
</g>
</g>
<!-- Node6&#45;&gt;Node16 -->
<g id="edge15_Node000006_Node000016" class="edge">
<title>Node6&#45;&gt;Node16</title>
<g id="a_edge15_Node000006_Node000016"><a xlink:title=" ">
<path fill="none" stroke="#63b8ff" d="M310.74,-376.83C320.97,-375.18 331.64,-373.45 342.18,-371.74"/>
<polygon fill="#63b8ff" stroke="#63b8ff" points="342.74,-375.2 352.05,-370.15 341.62,-368.29 342.74,-375.2"/>
</a>
</g>
</g>
<!-- Node8 -->
<g id="Node000008" class="node">
<title>Node8</title>
<g id="a_Node000008"><a xlink:href="../../de/d50/class_incompressible_solver_1_1_incompressible_flow_solver_afef36f71393d2a8603221b0eb3f471a9.html#afef36f71393d2a8603221b0eb3f471a9" target="_top" xlink:title=" ">
<polygon fill="white" stroke="#666666" points="708.25,-668.75 550.5,-668.75 550.5,-627 708.25,-627 708.25,-668.75"/>
<text text-anchor="start" x="558.5" y="-655.25" font-family="Helvetica,sans-Serif" font-size="10.00">IncompressibleSolver</text>
<text text-anchor="start" x="558.5" y="-644" font-family="Helvetica,sans-Serif" font-size="10.00">::IncompressibleFlowSolver</text>
<text text-anchor="middle" x="629.38" y="-632.75" font-family="Helvetica,sans-Serif" font-size="10.00">::apply_inlet_boundary_condition</text>
</a>
</g>
</g>
<!-- Node7&#45;&gt;Node8 -->
<g id="edge7_Node000007_Node000008" class="edge">
<title>Node7&#45;&gt;Node8</title>
<g id="a_edge7_Node000007_Node000008"><a xlink:title=" ">
<path fill="none" stroke="#63b8ff" d="M497.69,-553.09C502.58,-556.05 507.25,-559.31 511.5,-562.88 533.88,-581.65 524.66,-599.66 547.5,-617.88 548.78,-618.9 550.1,-619.89 551.45,-620.84"/>
<polygon fill="#63b8ff" stroke="#63b8ff" points="549.17,-623.54 559.5,-625.9 552.9,-617.62 549.17,-623.54"/>
</a>
</g>
</g>
<!-- Node9 -->
<g id="Node000009" class="node">
<title>Node9</title>
<g id="a_Node000009"><a xlink:href="../../de/d50/class_incompressible_solver_1_1_incompressible_flow_solver_ad5a68290cb0c969ab34f4f62be543702.html#ad5a68290cb0c969ab34f4f62be543702" target="_top" xlink:title=" ">
<polygon fill="white" stroke="#666666" points="711.25,-608.75 547.5,-608.75 547.5,-567 711.25,-567 711.25,-608.75"/>
<text text-anchor="start" x="555.5" y="-595.25" font-family="Helvetica,sans-Serif" font-size="10.00">IncompressibleSolver</text>
<text text-anchor="start" x="555.5" y="-584" font-family="Helvetica,sans-Serif" font-size="10.00">::IncompressibleFlowSolver</text>
<text text-anchor="middle" x="629.38" y="-572.75" font-family="Helvetica,sans-Serif" font-size="10.00">::apply_outlet_boundary_condition</text>
</a>
</g>
</g>
<!-- Node7&#45;&gt;Node9 -->
<g id="edge8_Node000007_Node000009" class="edge">
<title>Node7&#45;&gt;Node9</title>
<g id="a_edge8_Node000007_Node000009"><a xlink:title=" ">
<path fill="none" stroke="#63b8ff" d="M497.63,-548.36C513.57,-553.17 530.72,-558.36 547.18,-563.33"/>
<polygon fill="#63b8ff" stroke="#63b8ff" points="545.85,-566.59 556.43,-566.13 547.87,-559.88 545.85,-566.59"/>
</a>
</g>
</g>
<!-- Node10 -->
<g id="Node000010" class="node">
<title>Node10</title>
<g id="a_Node000010"><a xlink:href="../../de/d50/class_incompressible_solver_1_1_incompressible_flow_solver_ab669a12c535519d16abe1e5ab52d30e7.html#ab669a12c535519d16abe1e5ab52d30e7" target="_top" xlink:title=" ">
<polygon fill="white" stroke="#666666" points="707.88,-548.75 550.88,-548.75 550.88,-507 707.88,-507 707.88,-548.75"/>
<text text-anchor="start" x="558.88" y="-535.25" font-family="Helvetica,sans-Serif" font-size="10.00">IncompressibleSolver</text>
<text text-anchor="start" x="558.88" y="-524" font-family="Helvetica,sans-Serif" font-size="10.00">::IncompressibleFlowSolver</text>
<text text-anchor="middle" x="629.38" y="-512.75" font-family="Helvetica,sans-Serif" font-size="10.00">::apply_wall_boundary_condition</text>
</a>
</g>
</g>
<!-- Node7&#45;&gt;Node10 -->
<g id="edge9_Node000007_Node000010" class="edge">
<title>Node7&#45;&gt;Node10</title>
<g id="a_edge9_Node000007_Node000010"><a xlink:title=" ">
<path fill="none" stroke="#63b8ff" d="M497.63,-527.88C511.1,-527.88 525.44,-527.88 539.49,-527.88"/>
<polygon fill="#63b8ff" stroke="#63b8ff" points="539.17,-531.38 549.17,-527.88 539.17,-524.38 539.17,-531.38"/>
</a>
</g>
</g>
<!-- Node12 -->
<g id="Node000012" class="node">
<title>Node12</title>
<g id="a_Node000012"><a xlink:href="../../de/d50/class_incompressible_solver_1_1_incompressible_flow_solver_a9138f7cb731165dd4903b3f1376ee74b.html#a9138f7cb731165dd4903b3f1376ee74b" target="_top" xlink:title=" ">
<polygon fill="white" stroke="#666666" points="700,-488.75 558.75,-488.75 558.75,-447 700,-447 700,-488.75"/>
<text text-anchor="start" x="566.75" y="-475.25" font-family="Helvetica,sans-Serif" font-size="10.00">IncompressibleSolver</text>
<text text-anchor="start" x="566.75" y="-464" font-family="Helvetica,sans-Serif" font-size="10.00">::IncompressibleFlowSolver</text>
<text text-anchor="middle" x="629.38" y="-452.75" font-family="Helvetica,sans-Serif" font-size="10.00">::discretize_convection_term</text>
</a>
</g>
</g>
<!-- Node11&#45;&gt;Node12 -->
<g id="edge11_Node000011_Node000012" class="edge">
<title>Node11&#45;&gt;Node12</title>
<g id="a_edge11_Node000011_Node000012"><a xlink:title=" ">
<path fill="none" stroke="#63b8ff" d="M511.76,-438.5C523.49,-441.46 535.56,-444.5 547.28,-447.45"/>
<polygon fill="#63b8ff" stroke="#63b8ff" points="546.37,-450.83 556.92,-449.88 548.08,-444.04 546.37,-450.83"/>
</a>
</g>
</g>
<!-- Node14 -->
<g id="Node000014" class="node">
<title>Node14</title>
<g id="a_Node000014"><a xlink:href="../../de/d50/class_incompressible_solver_1_1_incompressible_flow_solver_a967c666dddd624e7f781d0068cb59fc7.html#a967c666dddd624e7f781d0068cb59fc7" target="_top" xlink:title=" ">
<polygon fill="white" stroke="#666666" points="697.75,-428.75 561,-428.75 561,-387 697.75,-387 697.75,-428.75"/>
<text text-anchor="start" x="569" y="-415.25" font-family="Helvetica,sans-Serif" font-size="10.00">IncompressibleSolver</text>
<text text-anchor="start" x="569" y="-404" font-family="Helvetica,sans-Serif" font-size="10.00">::IncompressibleFlowSolver</text>
<text text-anchor="middle" x="629.38" y="-392.75" font-family="Helvetica,sans-Serif" font-size="10.00">::discretize_diffusion_term</text>
</a>
</g>
</g>
<!-- Node11&#45;&gt;Node14 -->
<g id="edge13_Node000011_Node000014" class="edge">
<title>Node11&#45;&gt;Node14</title>
<g id="a_edge13_Node000011_Node000014"><a xlink:title=" ">
<path fill="none" stroke="#63b8ff" d="M511.76,-413.75C524.19,-413.12 536.99,-412.48 549.36,-411.86"/>
<polygon fill="#63b8ff" stroke="#63b8ff" points="549.24,-415.37 559.05,-411.37 548.89,-408.37 549.24,-415.37"/>
</a>
</g>
</g>
<!-- Node15 -->
<g id="Node000015" class="node">
<title>Node15</title>
<g id="a_Node000015"><a xlink:href="../../de/d50/class_incompressible_solver_1_1_incompressible_flow_solver_a787b8583bd866140485ceb926c2eebee.html#a787b8583bd866140485ceb926c2eebee" target="_top" xlink:title=" ">
<polygon fill="white" stroke="#666666" points="702.62,-368.75 556.12,-368.75 556.12,-327 702.62,-327 702.62,-368.75"/>
<text text-anchor="start" x="564.12" y="-355.25" font-family="Helvetica,sans-Serif" font-size="10.00">IncompressibleSolver</text>
<text text-anchor="start" x="564.12" y="-344" font-family="Helvetica,sans-Serif" font-size="10.00">::IncompressibleFlowSolver</text>
<text text-anchor="middle" x="629.38" y="-332.75" font-family="Helvetica,sans-Serif" font-size="10.00">::discretize_pressure_gradient</text>
</a>
</g>
</g>
<!-- Node11&#45;&gt;Node15 -->
<g id="edge14_Node000011_Node000015" class="edge">
<title>Node11&#45;&gt;Node15</title>
<g id="a_edge14_Node000011_Node000015"><a xlink:title=" ">
<path fill="none" stroke="#63b8ff" d="M490.24,-396.59C511.41,-389.12 535.39,-380.67 557.36,-372.92"/>
<polygon fill="#63b8ff" stroke="#63b8ff" points="558.26,-376.31 566.53,-369.69 555.93,-369.71 558.26,-376.31"/>
</a>
</g>
</g>
<!-- Node13 -->
<g id="Node000013" class="node">
<title>Node13</title>
<g id="a_Node000013"><a xlink:href="../../de/d50/class_incompressible_solver_1_1_incompressible_flow_solver_a5cfbfbc44536bdc27e164dc6d1547713.html#a5cfbfbc44536bdc27e164dc6d1547713" target="_top" xlink:title=" ">
<polygon fill="white" stroke="#666666" points="895.25,-488.75 747.25,-488.75 747.25,-447 895.25,-447 895.25,-488.75"/>
<text text-anchor="start" x="755.25" y="-475.25" font-family="Helvetica,sans-Serif" font-size="10.00">IncompressibleSolver</text>
<text text-anchor="start" x="755.25" y="-464" font-family="Helvetica,sans-Serif" font-size="10.00">::IncompressibleFlowSolver</text>
<text text-anchor="middle" x="821.25" y="-452.75" font-family="Helvetica,sans-Serif" font-size="10.00">::compute_face_value_upwind</text>
</a>
</g>
</g>
<!-- Node12&#45;&gt;Node13 -->
<g id="edge12_Node000012_Node000013" class="edge">
<title>Node12&#45;&gt;Node13</title>
<g id="a_edge12_Node000012_Node000013"><a xlink:title=" ">
<path fill="none" stroke="#63b8ff" d="M700.27,-467.88C711.81,-467.88 723.88,-467.88 735.73,-467.88"/>
<polygon fill="#63b8ff" stroke="#63b8ff" points="735.49,-471.38 745.49,-467.88 735.49,-464.38 735.49,-471.38"/>
</a>
</g>
</g>
<!-- Node17 -->
<g id="Node000017" class="node">
<title>Node17</title>
<g id="a_Node000017"><a xlink:href="../../de/d50/class_incompressible_solver_1_1_incompressible_flow_solver_a1dfda7f9f44340c56f54cbade9fb4624.html#a1dfda7f9f44340c56f54cbade9fb4624" target="_top" xlink:title=" ">
<polygon fill="white" stroke="#666666" points="697.75,-308.75 561,-308.75 561,-267 697.75,-267 697.75,-308.75"/>
<text text-anchor="start" x="569" y="-295.25" font-family="Helvetica,sans-Serif" font-size="10.00">IncompressibleSolver</text>
<text text-anchor="start" x="569" y="-284" font-family="Helvetica,sans-Serif" font-size="10.00">::IncompressibleFlowSolver</text>
<text text-anchor="middle" x="629.38" y="-272.75" font-family="Helvetica,sans-Serif" font-size="10.00">::gauss_seidel_solver</text>
</a>
</g>
</g>
<!-- Node16&#45;&gt;Node17 -->
<g id="edge16_Node000016_Node000017" class="edge">
<title>Node16&#45;&gt;Node17</title>
<g id="a_edge16_Node000016_Node000017"><a xlink:title=" ">
<path fill="none" stroke="#63b8ff" d="M490.24,-336.59C511.41,-329.12 535.39,-320.67 557.36,-312.92"/>
<polygon fill="#63b8ff" stroke="#63b8ff" points="558.26,-316.31 566.53,-309.69 555.93,-309.71 558.26,-316.31"/>
</a>
</g>
</g>
<!-- Node18 -->
<g id="Node000018" class="node">
<title>Node18</title>
<g id="a_Node000018"><a xlink:href="../../d3/d82/_c_type___elliptic___grid_8cpp_a9d9acf133a5b966f0cbd16a2c57a7d79.html#a9d9acf133a5b966f0cbd16a2c57a7d79" target="_top" xlink:title=" ">
<polygon fill="white" stroke="#666666" points="835.65,-237.5 806.85,-237.5 806.85,-218.25 835.65,-218.25 835.65,-237.5"/>
<text text-anchor="middle" x="821.25" y="-224" font-family="Helvetica,sans-Serif" font-size="10.00">x</text>
</a>
</g>
</g>
<!-- Node17&#45;&gt;Node18 -->
<g id="edge17_Node000017_Node000018" class="edge">
<title>Node17&#45;&gt;Node18</title>
<g id="a_edge17_Node000017_Node000018"><a xlink:title=" ">
<path fill="none" stroke="#63b8ff" d="M697.85,-266.55C731.93,-255.78 771.17,-243.38 795.84,-235.59"/>
<polygon fill="#63b8ff" stroke="#63b8ff" points="796.77,-238.97 805.25,-232.61 794.66,-232.29 796.77,-238.97"/>
</a>
</g>
</g>
<!-- Node20 -->
<g id="Node000020" class="node">
<title>Node20</title>
<g id="a_Node000020"><a xlink:href="../../de/d50/class_incompressible_solver_1_1_incompressible_flow_solver_afc86b360749f7cb6cf8c420a4a049bfd.html#afc86b360749f7cb6cf8c420a4a049bfd" target="_top" xlink:title=" ">
<polygon fill="white" stroke="#666666" points="497.25,-319.38 360.5,-319.38 360.5,-266.38 497.25,-266.38 497.25,-319.38"/>
<text text-anchor="start" x="368.5" y="-305.88" font-family="Helvetica,sans-Serif" font-size="10.00">IncompressibleSolver</text>
<text text-anchor="start" x="368.5" y="-294.62" font-family="Helvetica,sans-Serif" font-size="10.00">::IncompressibleFlowSolver</text>
<text text-anchor="start" x="368.5" y="-283.38" font-family="Helvetica,sans-Serif" font-size="10.00">::apply_pressure_boundary</text>
<text text-anchor="middle" x="428.88" y="-272.12" font-family="Helvetica,sans-Serif" font-size="10.00">_conditions</text>
</a>
</g>
</g>
<!-- Node19&#45;&gt;Node20 -->
<g id="edge19_Node000019_Node000020" class="edge">
<title>Node19&#45;&gt;Node20</title>
<g id="a_edge19_Node000019_Node000020"><a xlink:title=" ">
<path fill="none" stroke="#63b8ff" d="M310.21,-272.56C322.77,-274.73 335.99,-277.01 348.85,-279.23"/>
<polygon fill="#63b8ff" stroke="#63b8ff" points="348.1,-282.65 358.55,-280.91 349.29,-275.76 348.1,-282.65"/>
</a>
</g>
</g>
<!-- Node21 -->
<g id="Node000021" class="node">
<title>Node21</title>
<g id="a_Node000021"><a xlink:href="../../de/d50/class_incompressible_solver_1_1_incompressible_flow_solver_ad131a0695c180c9bbe5e1ef3bcbcd85d.html#ad131a0695c180c9bbe5e1ef3bcbcd85d" target="_top" xlink:title=" ">
<polygon fill="white" stroke="#666666" points="503.25,-248.75 354.5,-248.75 354.5,-207 503.25,-207 503.25,-248.75"/>
<text text-anchor="start" x="362.5" y="-235.25" font-family="Helvetica,sans-Serif" font-size="10.00">IncompressibleSolver</text>
<text text-anchor="start" x="362.5" y="-224" font-family="Helvetica,sans-Serif" font-size="10.00">::IncompressibleFlowSolver</text>
<text text-anchor="middle" x="428.88" y="-212.75" font-family="Helvetica,sans-Serif" font-size="10.00">::assemble_pressure_equation</text>
</a>
</g>
</g>
<!-- Node19&#45;&gt;Node21 -->
<g id="edge20_Node000019_Node000021" class="edge">
<title>Node19&#45;&gt;Node21</title>
<g id="a_edge20_Node000019_Node000021"><a xlink:title=" ">
<path fill="none" stroke="#63b8ff" d="M310.21,-248.82C320.8,-246.94 331.87,-244.97 342.79,-243.02"/>
<polygon fill="#63b8ff" stroke="#63b8ff" points="343.37,-246.47 352.6,-241.27 342.15,-239.58 343.37,-246.47"/>
</a>
</g>
</g>
<!-- Node23 -->
<g id="Node000023" class="node">
<title>Node23</title>
<g id="a_Node000023"><a xlink:href="../../de/d50/class_incompressible_solver_1_1_incompressible_flow_solver_a8950cc1c9ad1f0cff248fcfafd5580ba.html#a8950cc1c9ad1f0cff248fcfafd5580ba" target="_top" xlink:title=" ">
<polygon fill="white" stroke="#666666" points="505.88,-188.75 351.88,-188.75 351.88,-147 505.88,-147 505.88,-188.75"/>
<text text-anchor="start" x="359.88" y="-175.25" font-family="Helvetica,sans-Serif" font-size="10.00">IncompressibleSolver</text>
<text text-anchor="start" x="359.88" y="-164" font-family="Helvetica,sans-Serif" font-size="10.00">::IncompressibleFlowSolver</text>
<text text-anchor="middle" x="428.88" y="-152.75" font-family="Helvetica,sans-Serif" font-size="10.00">::solve_linear_system_pressure</text>
</a>
</g>
</g>
<!-- Node19&#45;&gt;Node23 -->
<g id="edge22_Node000019_Node000023" class="edge">
<title>Node19&#45;&gt;Node23</title>
<g id="a_edge22_Node000019_Node000023"><a xlink:title=" ">
<path fill="none" stroke="#63b8ff" d="M295.19,-239.6C300.4,-236.89 305.51,-233.97 310.25,-230.88 328.41,-218.99 327.71,-209.17 346.25,-197.88 348.26,-196.65 350.34,-195.46 352.45,-194.31"/>
<polygon fill="#63b8ff" stroke="#63b8ff" points="353.91,-197.5 361.27,-189.88 350.76,-191.24 353.91,-197.5"/>
</a>
</g>
</g>
<!-- Node22 -->
<g id="Node000022" class="node">
<title>Node22</title>
<g id="a_Node000022"><a xlink:href="../../de/d50/class_incompressible_solver_1_1_incompressible_flow_solver_ac3d66a69964f10365426cc665981db0d.html#ac3d66a69964f10365426cc665981db0d" target="_top" xlink:title=" ">
<polygon fill="white" stroke="#666666" points="706.38,-248.75 552.38,-248.75 552.38,-207 706.38,-207 706.38,-248.75"/>
<text text-anchor="start" x="560.38" y="-235.25" font-family="Helvetica,sans-Serif" font-size="10.00">IncompressibleSolver</text>
<text text-anchor="start" x="560.38" y="-224" font-family="Helvetica,sans-Serif" font-size="10.00">::IncompressibleFlowSolver</text>
<text text-anchor="middle" x="629.38" y="-212.75" font-family="Helvetica,sans-Serif" font-size="10.00">::discretize_mass_conservation</text>
</a>
</g>
</g>
<!-- Node21&#45;&gt;Node22 -->
<g id="edge21_Node000021_Node000022" class="edge">
<title>Node21&#45;&gt;Node22</title>
<g id="a_edge21_Node000021_Node000022"><a xlink:title=" ">
<path fill="none" stroke="#63b8ff" d="M503.51,-227.88C515.67,-227.88 528.39,-227.88 540.85,-227.88"/>
<polygon fill="#63b8ff" stroke="#63b8ff" points="540.69,-231.38 550.69,-227.88 540.69,-224.38 540.69,-231.38"/>
</a>
</g>
</g>
<!-- Node24 -->
<g id="Node000024" class="node">
<title>Node24</title>
<g id="a_Node000024"><a xlink:href="../../de/d50/class_incompressible_solver_1_1_incompressible_flow_solver_ad8cae5921c6fe718f527cc516d500b8b.html#ad8cae5921c6fe718f527cc516d500b8b" target="_top" xlink:title=" ">
<polygon fill="white" stroke="#666666" points="697.75,-188.75 561,-188.75 561,-147 697.75,-147 697.75,-188.75"/>
<text text-anchor="start" x="569" y="-175.25" font-family="Helvetica,sans-Serif" font-size="10.00">IncompressibleSolver</text>
<text text-anchor="start" x="569" y="-164" font-family="Helvetica,sans-Serif" font-size="10.00">::IncompressibleFlowSolver</text>
<text text-anchor="middle" x="629.38" y="-152.75" font-family="Helvetica,sans-Serif" font-size="10.00">::conjugate_gradient_solver</text>
</a>
</g>
</g>
<!-- Node23&#45;&gt;Node24 -->
<g id="edge23_Node000023_Node000024" class="edge">
<title>Node23&#45;&gt;Node24</title>
<g id="a_edge23_Node000023_Node000024"><a xlink:title=" ">
<path fill="none" stroke="#63b8ff" d="M506.34,-167.88C520.47,-167.88 535.25,-167.88 549.46,-167.88"/>
<polygon fill="#63b8ff" stroke="#63b8ff" points="549.19,-171.38 559.19,-167.88 549.19,-164.38 549.19,-171.38"/>
</a>
</g>
</g>
<!-- Node24&#45;&gt;Node18 -->
<g id="edge24_Node000024_Node000018" class="edge">
<title>Node24&#45;&gt;Node18</title>
<g id="a_edge24_Node000024_Node000018"><a xlink:title=" ">
<path fill="none" stroke="#63b8ff" d="M697.85,-189.2C731.93,-199.97 771.17,-212.37 795.84,-220.16"/>
<polygon fill="#63b8ff" stroke="#63b8ff" points="794.66,-223.46 805.25,-223.14 796.77,-216.78 794.66,-223.46"/>
</a>
</g>
</g>
<!-- Node27 -->
<g id="Node000027" class="node">
<title>Node27</title>
<g id="a_Node000027"><a xlink:href="../../de/d50/class_incompressible_solver_1_1_incompressible_flow_solver_a08f19b6a2adede3eb058d43f4e58311a.html#a08f19b6a2adede3eb058d43f4e58311a" target="_top" xlink:title=" ">
<polygon fill="white" stroke="#666666" points="497.25,-128.75 360.5,-128.75 360.5,-87 497.25,-87 497.25,-128.75"/>
<text text-anchor="start" x="368.5" y="-115.25" font-family="Helvetica,sans-Serif" font-size="10.00">IncompressibleSolver</text>
<text text-anchor="start" x="368.5" y="-104" font-family="Helvetica,sans-Serif" font-size="10.00">::IncompressibleFlowSolver</text>
<text text-anchor="middle" x="428.88" y="-92.75" font-family="Helvetica,sans-Serif" font-size="10.00">::interpolate_cell_to_face</text>
</a>
</g>
</g>
<!-- Node26&#45;&gt;Node27 -->
<g id="edge27_Node000026_Node000027" class="edge">
<title>Node26&#45;&gt;Node27</title>
<g id="a_edge27_Node000026_Node000027"><a xlink:title=" ">
<path fill="none" stroke="#63b8ff" d="M310.21,-128.82C322.77,-126.59 335.99,-124.23 348.85,-121.94"/>
<polygon fill="#63b8ff" stroke="#63b8ff" points="349.31,-125.42 358.55,-120.22 348.09,-118.52 349.31,-125.42"/>
</a>
</g>
</g>
</g>
</svg>
