<?xml version="1.0" encoding="UTF-8" standalone="no"?>
<!DOCTYPE svg PUBLIC "-//W3C//DTD SVG 1.1//EN"
 "http://www.w3.org/Graphics/SVG/1.1/DTD/svg11.dtd">
<!-- Generated by graphviz version 12.2.1 (20241206.2353)
 -->
<!-- Title: IncompressibleSolver::IncompressibleFlowSolver::set_solver_parameters Pages: 1 -->
<svg width="542pt" height="196pt"
 viewBox="0.00 0.00 541.50 195.60" xmlns="http://www.w3.org/2000/svg" xmlns:xlink="http://www.w3.org/1999/xlink">
<g id="graph0" class="graph" transform="scale(1 1) rotate(0) translate(4 191.6)">
<title>IncompressibleSolver::IncompressibleFlowSolver::set_solver_parameters</title>
<!-- Node1 -->
<g id="Node000001" class="node">
<title>Node1</title>
<g id="a_Node000001"><a xlink:title=" ">
<polygon fill="#999999" stroke="#666666" points="533.5,-117.5 396.75,-117.5 396.75,-75.75 533.5,-75.75 533.5,-117.5"/>
<text text-anchor="start" x="404.75" y="-104" font-family="Helvetica,sans-Serif" font-size="10.00">IncompressibleSolver</text>
<text text-anchor="start" x="404.75" y="-92.75" font-family="Helvetica,sans-Serif" font-size="10.00">::IncompressibleFlowSolver</text>
<text text-anchor="middle" x="465.12" y="-81.5" font-family="Helvetica,sans-Serif" font-size="10.00">::set_solver_parameters</text>
</a>
</g>
</g>
<!-- Node2 -->
<g id="Node000002" class="node">
<title>Node2</title>
<g id="a_Node000002"><a xlink:href="../../d6/d0b/namespace_incompressible_solver_a7e6587392f2aec765684b93ba7a5aad6.html#a7e6587392f2aec765684b93ba7a5aad6" target="_top" xlink:title="Initialize incompressible solver with grid data from existing infrastructure.">
<polygon fill="white" stroke="#666666" points="360.75,-117.5 233,-117.5 233,-75.75 360.75,-75.75 360.75,-117.5"/>
<text text-anchor="start" x="241" y="-104" font-family="Helvetica,sans-Serif" font-size="10.00">IncompressibleSolver</text>
<text text-anchor="start" x="241" y="-92.75" font-family="Helvetica,sans-Serif" font-size="10.00">::initialize_incompressible</text>
<text text-anchor="middle" x="296.88" y="-81.5" font-family="Helvetica,sans-Serif" font-size="10.00">_solver_with_grid</text>
</a>
</g>
</g>
<!-- Node1&#45;&gt;Node2 -->
<g id="edge1_Node000001_Node000002" class="edge">
<title>Node1&#45;&gt;Node2</title>
<g id="a_edge1_Node000001_Node000002"><a xlink:title=" ">
<path fill="none" stroke="#63b8ff" d="M385.18,-96.62C377.12,-96.62 369,-96.62 361.14,-96.62"/>
<polygon fill="#63b8ff" stroke="#63b8ff" points="384.99,-100.13 394.99,-96.63 384.99,-93.13 384.99,-100.13"/>
</a>
</g>
</g>
<!-- Node3 -->
<g id="Node000003" class="node">
<title>Node3</title>
<g id="a_Node000003"><a xlink:href="../../d3/d1b/_incompressible___main_8cpp_a0ddf1224851353fc92bfbff6f499fa97.html#a0ddf1224851353fc92bfbff6f499fa97" target="_top" xlink:title=" ">
<polygon fill="white" stroke="#666666" points="37,-106.25 0,-106.25 0,-87 37,-87 37,-106.25"/>
<text text-anchor="middle" x="18.5" y="-92.75" font-family="Helvetica,sans-Serif" font-size="10.00">main</text>
</a>
</g>
</g>
<!-- Node1&#45;&gt;Node3 -->
<g id="edge7_Node000001_Node000003" class="edge">
<title>Node1&#45;&gt;Node3</title>
<g id="a_edge7_Node000001_Node000003"><a xlink:title=" ">
<path fill="none" stroke="#63b8ff" d="M415.77,-122.89C339.21,-160.67 187.07,-220.02 73,-164.62 48,-152.49 31.19,-122.38 23.79,-106.61"/>
<polygon fill="#63b8ff" stroke="#63b8ff" points="416.9,-126.24 424.26,-118.62 413.76,-119.98 416.9,-126.24"/>
</a>
</g>
</g>
<!-- Node4 -->
<g id="Node000004" class="node">
<title>Node4</title>
<g id="a_Node000004"><a xlink:href="../../d3/d1b/_incompressible___main_8cpp_afe0b7b309a59208f44fafe33ff9bb6df.html#afe0b7b309a59208f44fafe33ff9bb6df" target="_top" xlink:title=" ">
<polygon fill="white" stroke="#666666" points="185,-155.88 85,-155.88 85,-125.38 185,-125.38 185,-155.88"/>
<text text-anchor="start" x="93" y="-142.38" font-family="Helvetica,sans-Serif" font-size="10.00">run_incompressible</text>
<text text-anchor="middle" x="135" y="-131.12" font-family="Helvetica,sans-Serif" font-size="10.00">_solver</text>
</a>
</g>
</g>
<!-- Node1&#45;&gt;Node4 -->
<g id="edge8_Node000001_Node000004" class="edge">
<title>Node1&#45;&gt;Node4</title>
<g id="a_edge8_Node000001_Node000004"><a xlink:title=" ">
<path fill="none" stroke="#63b8ff" d="M387.79,-120.81C378.74,-123.07 369.58,-125.09 360.75,-126.62 301.05,-137.02 231.25,-139.96 185.47,-140.66"/>
<polygon fill="#63b8ff" stroke="#63b8ff" points="388.48,-124.25 397.27,-118.33 386.71,-117.48 388.48,-124.25"/>
</a>
</g>
</g>
<!-- Node5 -->
<g id="Node000005" class="node">
<title>Node5</title>
<g id="a_Node000005"><a xlink:href="../../d3/d1b/_incompressible___main_8cpp_a10cfe68fcf009fcb40d92f8e6681b50b.html#a10cfe68fcf009fcb40d92f8e6681b50b" target="_top" xlink:title=" ">
<polygon fill="white" stroke="#666666" points="197,-68.25 73,-68.25 73,-49 197,-49 197,-68.25"/>
<text text-anchor="middle" x="135" y="-54.75" font-family="Helvetica,sans-Serif" font-size="10.00">run_validation_test_case</text>
</a>
</g>
</g>
<!-- Node1&#45;&gt;Node5 -->
<g id="edge9_Node000001_Node000005" class="edge">
<title>Node1&#45;&gt;Node5</title>
<g id="a_edge9_Node000001_Node000005"><a xlink:title=" ">
<path fill="none" stroke="#63b8ff" d="M388.73,-72.43C379.39,-70.12 369.9,-68.09 360.75,-66.62 306.01,-57.85 242.84,-56.34 197.45,-56.75"/>
<polygon fill="#63b8ff" stroke="#63b8ff" points="387.59,-75.75 398.15,-74.88 389.35,-68.97 387.59,-75.75"/>
</a>
</g>
</g>
<!-- Node6 -->
<g id="Node000006" class="node">
<title>Node6</title>
<g id="a_Node000006"><a xlink:href="../../d1/dfd/test__standalone_8cpp_ae66f6b31b5ad750f1fe042a706a4e3d4.html#ae66f6b31b5ad750f1fe042a706a4e3d4" target="_top" xlink:title=" ">
<polygon fill="white" stroke="#666666" points="315.38,-19.25 278.38,-19.25 278.38,0 315.38,0 315.38,-19.25"/>
<text text-anchor="middle" x="296.88" y="-5.75" font-family="Helvetica,sans-Serif" font-size="10.00">main</text>
</a>
</g>
</g>
<!-- Node1&#45;&gt;Node6 -->
<g id="edge6_Node000001_Node000006" class="edge">
<title>Node1&#45;&gt;Node6</title>
<g id="a_edge6_Node000001_Node000006"><a xlink:title=" ">
<path fill="none" stroke="#63b8ff" d="M423.22,-69.32C404.61,-57.52 382.02,-44.06 360.75,-33.62 346.06,-26.42 328.64,-19.92 315.86,-15.51"/>
<polygon fill="#63b8ff" stroke="#63b8ff" points="421.27,-72.22 431.57,-74.68 425.05,-66.33 421.27,-72.22"/>
</a>
</g>
</g>
<!-- Node2&#45;&gt;Node3 -->
<g id="edge2_Node000002_Node000003" class="edge">
<title>Node2&#45;&gt;Node3</title>
<g id="a_edge2_Node000002_Node000003"><a xlink:title=" ">
<path fill="none" stroke="#63b8ff" d="M221.4,-96.62C158.81,-96.62 73.88,-96.62 37.38,-96.62"/>
<polygon fill="#63b8ff" stroke="#63b8ff" points="221.3,-100.13 231.3,-96.63 221.3,-93.13 221.3,-100.13"/>
</a>
</g>
</g>
<!-- Node2&#45;&gt;Node4 -->
<g id="edge3_Node000002_Node000004" class="edge">
<title>Node2&#45;&gt;Node4</title>
<g id="a_edge3_Node000002_Node000004"><a xlink:title=" ">
<path fill="none" stroke="#63b8ff" d="M221.9,-116.98C209.54,-120.39 196.98,-123.84 185.42,-127.02"/>
<polygon fill="#63b8ff" stroke="#63b8ff" points="222.52,-120.44 231.23,-114.42 220.66,-113.7 222.52,-120.44"/>
</a>
</g>
</g>
<!-- Node2&#45;&gt;Node5 -->
<g id="edge4_Node000002_Node000005" class="edge">
<title>Node2&#45;&gt;Node5</title>
<g id="a_edge4_Node000002_Node000005"><a xlink:title=" ">
<path fill="none" stroke="#63b8ff" d="M221.51,-78.95C206.78,-75.45 191.8,-71.89 178.58,-68.75"/>
<polygon fill="#63b8ff" stroke="#63b8ff" points="220.68,-82.35 231.22,-81.26 222.3,-75.54 220.68,-82.35"/>
</a>
</g>
</g>
<!-- Node5&#45;&gt;Node3 -->
<g id="edge5_Node000005_Node000003" class="edge">
<title>Node5&#45;&gt;Node3</title>
<g id="a_edge5_Node000005_Node000003"><a xlink:title=" ">
<path fill="none" stroke="#63b8ff" d="M92.74,-72.32C73.64,-78.66 51.96,-85.85 37.17,-90.76"/>
<polygon fill="#63b8ff" stroke="#63b8ff" points="93.79,-75.66 102.18,-69.19 91.59,-69.01 93.79,-75.66"/>
</a>
</g>
</g>
</g>
</svg>
