<?xml version="1.0" encoding="UTF-8" standalone="no"?>
<!DOCTYPE svg PUBLIC "-//W3C//DTD SVG 1.1//EN"
 "http://www.w3.org/Graphics/SVG/1.1/DTD/svg11.dtd">
<!-- Generated by graphviz version 12.2.1 (20241206.2353)
 -->
<!-- Title: ComputeGhostCell_Flux_Jacobian Pages: 1 -->
<svg width="393pt" height="103pt"
 viewBox="0.00 0.00 392.75 103.25" xmlns="http://www.w3.org/2000/svg" xmlns:xlink="http://www.w3.org/1999/xlink">
<g id="graph0" class="graph" transform="scale(1 1) rotate(0) translate(4 99.25)">
<title>ComputeGhostCell_Flux_Jacobian</title>
<!-- Node1 -->
<g id="Node000001" class="node">
<title>Node1</title>
<g id="a_Node000001"><a xlink:title=" ">
<polygon fill="#999999" stroke="#666666" points="384.75,-62.88 261.5,-62.88 261.5,-32.38 384.75,-32.38 384.75,-62.88"/>
<text text-anchor="start" x="269.5" y="-49.38" font-family="Helvetica,sans-Serif" font-size="10.00">ComputeGhostCell_Flux</text>
<text text-anchor="middle" x="323.12" y="-38.12" font-family="Helvetica,sans-Serif" font-size="10.00">_Jacobian</text>
</a>
</g>
</g>
<!-- Node2 -->
<g id="Node000002" class="node">
<title>Node2</title>
<g id="a_Node000002"><a xlink:href="../../db/dbe/_assemble___matrix_8cpp_ad90382595c8b02e815e463639d84baa7.html#ad90382595c8b02e815e463639d84baa7" target="_top" xlink:title=" ">
<polygon fill="white" stroke="#666666" points="222.88,-95.25 151.38,-95.25 151.38,-76 222.88,-76 222.88,-95.25"/>
<text text-anchor="middle" x="187.12" y="-81.75" font-family="Helvetica,sans-Serif" font-size="10.00">Assemble_A</text>
</a>
</g>
</g>
<!-- Node1&#45;&gt;Node2 -->
<g id="edge1_Node000001_Node000002" class="edge">
<title>Node1&#45;&gt;Node2</title>
<g id="a_edge1_Node000001_Node000002"><a xlink:title=" ">
<path fill="none" stroke="#63b8ff" d="M256.07,-66.36C244.77,-69.56 233.43,-72.78 223.35,-75.64"/>
<polygon fill="#63b8ff" stroke="#63b8ff" points="256.73,-69.81 265.39,-63.71 254.82,-63.07 256.73,-69.81"/>
</a>
</g>
</g>
<!-- Node3 -->
<g id="Node000003" class="node">
<title>Node3</title>
<g id="a_Node000003"><a xlink:href="../../dd/dbf/_euler___python___wrapper_8cpp_ac5ccb50c3be270f798e054dd36987442.html#ac5ccb50c3be270f798e054dd36987442" target="_top" xlink:title=" ">
<polygon fill="white" stroke="#666666" points="112.75,-57.25 0,-57.25 0,-38 112.75,-38 112.75,-57.25"/>
<text text-anchor="middle" x="56.38" y="-43.75" font-family="Helvetica,sans-Serif" font-size="10.00">PYBIND11_MODULE</text>
</a>
</g>
</g>
<!-- Node1&#45;&gt;Node3 -->
<g id="edge5_Node000001_Node000003" class="edge">
<title>Node1&#45;&gt;Node3</title>
<g id="a_edge5_Node000001_Node000003"><a xlink:title=" ">
<path fill="none" stroke="#63b8ff" d="M249.79,-47.62C206.73,-47.62 152.93,-47.62 113.18,-47.62"/>
<polygon fill="#63b8ff" stroke="#63b8ff" points="249.54,-51.13 259.54,-47.63 249.54,-44.13 249.54,-51.13"/>
</a>
</g>
</g>
<!-- Node4 -->
<g id="Node000004" class="node">
<title>Node4</title>
<g id="a_Node000004"><a xlink:href="../../db/dbe/_assemble___matrix_8cpp_ab40202302c5e7f6e97927b7fba467369.html#ab40202302c5e7f6e97927b7fba467369" target="_top" xlink:title=" ">
<polygon fill="white" stroke="#666666" points="225.5,-19.25 148.75,-19.25 148.75,0 225.5,0 225.5,-19.25"/>
<text text-anchor="middle" x="187.12" y="-5.75" font-family="Helvetica,sans-Serif" font-size="10.00">Assemble_A1</text>
</a>
</g>
</g>
<!-- Node1&#45;&gt;Node4 -->
<g id="edge3_Node000001_Node000004" class="edge">
<title>Node1&#45;&gt;Node4</title>
<g id="a_edge3_Node000001_Node000004"><a xlink:title=" ">
<path fill="none" stroke="#63b8ff" d="M255.83,-28.82C244.75,-25.68 233.66,-22.54 223.74,-19.72"/>
<polygon fill="#63b8ff" stroke="#63b8ff" points="254.82,-32.18 265.39,-31.54 256.73,-25.44 254.82,-32.18"/>
</a>
</g>
</g>
<!-- Node2&#45;&gt;Node3 -->
<g id="edge2_Node000002_Node000003" class="edge">
<title>Node2&#45;&gt;Node3</title>
<g id="a_edge2_Node000002_Node000003"><a xlink:title=" ">
<path fill="none" stroke="#63b8ff" d="M140.99,-72.3C124.64,-67.48 106.47,-62.11 91.25,-57.62"/>
<polygon fill="#63b8ff" stroke="#63b8ff" points="139.93,-75.64 150.51,-75.11 141.91,-68.93 139.93,-75.64"/>
</a>
</g>
</g>
<!-- Node4&#45;&gt;Node3 -->
<g id="edge4_Node000004_Node000003" class="edge">
<title>Node4&#45;&gt;Node3</title>
<g id="a_edge4_Node000004_Node000003"><a xlink:title=" ">
<path fill="none" stroke="#63b8ff" d="M140.99,-22.95C124.64,-27.77 106.47,-33.14 91.25,-37.63"/>
<polygon fill="#63b8ff" stroke="#63b8ff" points="141.91,-26.32 150.51,-20.14 139.93,-19.61 141.91,-26.32"/>
</a>
</g>
</g>
</g>
</svg>
