<?xml version="1.0" encoding="UTF-8" standalone="no"?>
<!DOCTYPE svg PUBLIC "-//W3C//DTD SVG 1.1//EN"
 "http://www.w3.org/Graphics/SVG/1.1/DTD/svg11.dtd">
<!-- Generated by graphviz version 12.2.1 (20241206.2353)
 -->
<!-- Title: include/Turbulence_Models.h Pages: 1 -->
<svg width="602pt" height="94pt"
 viewBox="0.00 0.00 601.50 93.75" xmlns="http://www.w3.org/2000/svg" xmlns:xlink="http://www.w3.org/1999/xlink">
<g id="graph0" class="graph" transform="scale(1 1) rotate(0) translate(4 89.75)">
<title>include/Turbulence_Models.h</title>
<!-- Node1 -->
<g id="Node000001" class="node">
<title>Node1</title>
<g id="a_Node000001"><a xlink:title="Header file for RANS turbulence models implementation.">
<polygon fill="#999999" stroke="#666666" points="335.38,-85.75 237.62,-85.75 237.62,-55.25 335.38,-55.25 335.38,-85.75"/>
<text text-anchor="start" x="245.62" y="-72.25" font-family="Helvetica,sans-Serif" font-size="10.00">include/Turbulence</text>
<text text-anchor="middle" x="286.5" y="-61" font-family="Helvetica,sans-Serif" font-size="10.00">_Models.h</text>
</a>
</g>
</g>
<!-- Node2 -->
<g id="Node000002" class="node">
<title>Node2</title>
<g id="a_Node000002"><a xlink:href="../../da/d71/_k___epsilon___model_8cpp.html" target="_top" xlink:title="Implementation of K&#45;epsilon turbulence model for 2D compressible flows.">
<polygon fill="white" stroke="#666666" points="127,-19.25 0,-19.25 0,0 127,0 127,-19.25"/>
<text text-anchor="middle" x="63.5" y="-5.75" font-family="Helvetica,sans-Serif" font-size="10.00">src/K_Epsilon_Model.cpp</text>
</a>
</g>
</g>
<!-- Node1&#45;&gt;Node2 -->
<g id="edge1_Node000001_Node000002" class="edge">
<title>Node1&#45;&gt;Node2</title>
<g id="a_edge1_Node000001_Node000002"><a xlink:title=" ">
<path fill="none" stroke="#63b8ff" d="M226.31,-53.61C185.21,-42.76 132.23,-28.77 98.06,-19.75"/>
<polygon fill="#63b8ff" stroke="#63b8ff" points="225.26,-56.95 235.82,-56.12 227.05,-50.18 225.26,-56.95"/>
</a>
</g>
</g>
<!-- Node3 -->
<g id="Node000003" class="node">
<title>Node3</title>
<g id="a_Node000003"><a xlink:href="../../da/db6/_k___omega___model_8cpp.html" target="_top" xlink:title="Implementation of K&#45;omega turbulence model for 2D compressible flows.">
<polygon fill="white" stroke="#666666" points="271.62,-19.25 145.38,-19.25 145.38,0 271.62,0 271.62,-19.25"/>
<text text-anchor="middle" x="208.5" y="-5.75" font-family="Helvetica,sans-Serif" font-size="10.00">src/K_Omega_Model.cpp</text>
</a>
</g>
</g>
<!-- Node1&#45;&gt;Node3 -->
<g id="edge2_Node000001_Node000003" class="edge">
<title>Node1&#45;&gt;Node3</title>
<g id="a_edge2_Node000001_Node000003"><a xlink:title=" ">
<path fill="none" stroke="#63b8ff" d="M258.17,-48.12C245.21,-38.33 230.54,-27.26 220.52,-19.7"/>
<polygon fill="#63b8ff" stroke="#63b8ff" points="255.92,-50.8 266.01,-54.03 260.14,-45.22 255.92,-50.8"/>
</a>
</g>
</g>
<!-- Node4 -->
<g id="Node000004" class="node">
<title>Node4</title>
<g id="a_Node000004"><a xlink:href="../../d4/df3/_turbulence___integration_8cpp.html" target="_top" xlink:title="Integration of turbulence models into the main CFD solver.">
<polygon fill="white" stroke="#666666" points="439.62,-19.25 289.38,-19.25 289.38,0 439.62,0 439.62,-19.25"/>
<text text-anchor="middle" x="364.5" y="-5.75" font-family="Helvetica,sans-Serif" font-size="10.00">src/Turbulence_Integration.cpp</text>
</a>
</g>
</g>
<!-- Node1&#45;&gt;Node4 -->
<g id="edge3_Node000001_Node000004" class="edge">
<title>Node1&#45;&gt;Node4</title>
<g id="a_edge3_Node000001_Node000004"><a xlink:title=" ">
<path fill="none" stroke="#63b8ff" d="M314.83,-48.12C327.79,-38.33 342.46,-27.26 352.48,-19.7"/>
<polygon fill="#63b8ff" stroke="#63b8ff" points="312.86,-45.22 306.99,-54.03 317.08,-50.8 312.86,-45.22"/>
</a>
</g>
</g>
<!-- Node5 -->
<g id="Node000005" class="node">
<title>Node5</title>
<g id="a_Node000005"><a xlink:href="../../d5/d65/_turbulence___models_8cpp.html" target="_top" xlink:title="Main implementation file for turbulence models integration.">
<polygon fill="white" stroke="#666666" points="593.5,-19.25 457.5,-19.25 457.5,0 593.5,0 593.5,-19.25"/>
<text text-anchor="middle" x="525.5" y="-5.75" font-family="Helvetica,sans-Serif" font-size="10.00">src/Turbulence_Models.cpp</text>
</a>
</g>
</g>
<!-- Node1&#45;&gt;Node5 -->
<g id="edge4_Node000001_Node000005" class="edge">
<title>Node1&#45;&gt;Node5</title>
<g id="a_edge4_Node000001_Node000005"><a xlink:title=" ">
<path fill="none" stroke="#63b8ff" d="M346.76,-54.66C391.48,-43.64 451.03,-28.97 488.82,-19.66"/>
<polygon fill="#63b8ff" stroke="#63b8ff" points="346.07,-51.22 337.2,-57.01 347.75,-58.02 346.07,-51.22"/>
</a>
</g>
</g>
</g>
</svg>
