<?xml version="1.0" encoding="UTF-8" standalone="no"?>
<!DOCTYPE svg PUBLIC "-//W3C//DTD SVG 1.1//EN"
 "http://www.w3.org/Graphics/SVG/1.1/DTD/svg11.dtd">
<!-- Generated by graphviz version 12.2.1 (20241206.2353)
 -->
<!-- Title: Basic_Function_Files/Data_Analyze.cpp Pages: 1 -->
<svg width="765pt" height="149pt"
 viewBox="0.00 0.00 764.88 149.00" xmlns="http://www.w3.org/2000/svg" xmlns:xlink="http://www.w3.org/1999/xlink">
<g id="graph0" class="graph" transform="scale(1 1) rotate(0) translate(4 145)">
<title>Basic_Function_Files/Data_Analyze.cpp</title>
<!-- Node1 -->
<g id="Node000001" class="node">
<title>Node1</title>
<g id="a_Node000001"><a xlink:title=" ">
<polygon fill="#999999" stroke="#666666" points="244.62,-141 134.88,-141 134.88,-110.5 244.62,-110.5 244.62,-141"/>
<text text-anchor="start" x="142.88" y="-127.5" font-family="Helvetica,sans-Serif" font-size="10.00">Basic_Function_Files</text>
<text text-anchor="middle" x="189.75" y="-116.25" font-family="Helvetica,sans-Serif" font-size="10.00">/Data_Analyze.cpp</text>
</a>
</g>
</g>
<!-- Node2 -->
<g id="Node000002" class="node">
<title>Node2</title>
<g id="a_Node000002"><a xlink:title=" ">
<polygon fill="#e0e0e0" stroke="#999999" points="53.5,-19.25 0,-19.25 0,0 53.5,0 53.5,-19.25"/>
<text text-anchor="middle" x="26.75" y="-5.75" font-family="Helvetica,sans-Serif" font-size="10.00">iostream</text>
</a>
</g>
</g>
<!-- Node1&#45;&gt;Node2 -->
<g id="edge1_Node000001_Node000002" class="edge">
<title>Node1&#45;&gt;Node2</title>
<g id="a_edge1_Node000001_Node000002"><a xlink:title=" ">
<path fill="none" stroke="#63b8ff" d="M168.77,-110.06C137.89,-88.44 80.46,-48.23 48.91,-26.14"/>
<polygon fill="#63b8ff" stroke="#63b8ff" points="51.09,-23.39 40.89,-20.52 47.07,-29.13 51.09,-23.39"/>
</a>
</g>
</g>
<!-- Node3 -->
<g id="Node000003" class="node">
<title>Node3</title>
<g id="a_Node000003"><a xlink:title=" ">
<polygon fill="#e0e0e0" stroke="#999999" points="111.75,-19.25 71.75,-19.25 71.75,0 111.75,0 111.75,-19.25"/>
<text text-anchor="middle" x="91.75" y="-5.75" font-family="Helvetica,sans-Serif" font-size="10.00">string</text>
</a>
</g>
</g>
<!-- Node1&#45;&gt;Node3 -->
<g id="edge2_Node000001_Node000003" class="edge">
<title>Node1&#45;&gt;Node3</title>
<g id="a_edge2_Node000001_Node000003"><a xlink:title=" ">
<path fill="none" stroke="#63b8ff" d="M177.34,-110.3C159.4,-89.41 126.27,-50.82 106.91,-28.28"/>
<polygon fill="#63b8ff" stroke="#63b8ff" points="109.7,-26.15 100.53,-20.85 104.39,-30.71 109.7,-26.15"/>
</a>
</g>
</g>
<!-- Node4 -->
<g id="Node000004" class="node">
<title>Node4</title>
<g id="a_Node000004"><a xlink:title=" ">
<polygon fill="#e0e0e0" stroke="#999999" points="173.25,-19.25 130.25,-19.25 130.25,0 173.25,0 173.25,-19.25"/>
<text text-anchor="middle" x="151.75" y="-5.75" font-family="Helvetica,sans-Serif" font-size="10.00">vector</text>
</a>
</g>
</g>
<!-- Node1&#45;&gt;Node4 -->
<g id="edge3_Node000001_Node000004" class="edge">
<title>Node1&#45;&gt;Node4</title>
<g id="a_edge3_Node000001_Node000004"><a xlink:title=" ">
<path fill="none" stroke="#63b8ff" d="M184.94,-110.3C178.2,-90.06 165.93,-53.22 158.35,-30.44"/>
<polygon fill="#63b8ff" stroke="#63b8ff" points="161.73,-29.52 155.25,-21.13 155.09,-31.73 161.73,-29.52"/>
</a>
</g>
</g>
<!-- Node5 -->
<g id="Node000005" class="node">
<title>Node5</title>
<g id="a_Node000005"><a xlink:title=" ">
<polygon fill="#e0e0e0" stroke="#999999" points="240.25,-19.25 191.25,-19.25 191.25,0 240.25,0 240.25,-19.25"/>
<text text-anchor="middle" x="215.75" y="-5.75" font-family="Helvetica,sans-Serif" font-size="10.00">fstream</text>
</a>
</g>
</g>
<!-- Node1&#45;&gt;Node5 -->
<g id="edge4_Node000001_Node000005" class="edge">
<title>Node1&#45;&gt;Node5</title>
<g id="a_edge4_Node000001_Node000005"><a xlink:title=" ">
<path fill="none" stroke="#63b8ff" d="M193.04,-110.3C197.63,-90.15 205.97,-53.56 211.16,-30.75"/>
<polygon fill="#63b8ff" stroke="#63b8ff" points="214.54,-31.7 213.35,-21.17 207.71,-30.15 214.54,-31.7"/>
</a>
</g>
</g>
<!-- Node6 -->
<g id="Node000006" class="node">
<title>Node6</title>
<g id="a_Node000006"><a xlink:title=" ">
<polygon fill="#e0e0e0" stroke="#999999" points="411.25,-74.5 368.25,-74.5 368.25,-55.25 411.25,-55.25 411.25,-74.5"/>
<text text-anchor="middle" x="389.75" y="-61" font-family="Helvetica,sans-Serif" font-size="10.00">cmath</text>
</a>
</g>
</g>
<!-- Node1&#45;&gt;Node6 -->
<g id="edge5_Node000001_Node000006" class="edge">
<title>Node1&#45;&gt;Node6</title>
<g id="a_edge5_Node000001_Node000006"><a xlink:title=" ">
<path fill="none" stroke="#63b8ff" d="M239.7,-110.05C276.39,-99.25 325.18,-84.88 357.01,-75.51"/>
<polygon fill="#63b8ff" stroke="#63b8ff" points="357.86,-78.91 366.47,-72.73 355.89,-72.19 357.86,-78.91"/>
</a>
</g>
</g>
<!-- Node7 -->
<g id="Node000007" class="node">
<title>Node7</title>
<g id="a_Node000007"><a xlink:href="../../d1/dd8/gnuplot__i_8hpp.html" target="_top" xlink:title=" ">
<polygon fill="white" stroke="#666666" points="350.62,-74.5 276.88,-74.5 276.88,-55.25 350.62,-55.25 350.62,-74.5"/>
<text text-anchor="middle" x="313.75" y="-61" font-family="Helvetica,sans-Serif" font-size="10.00">gnuplot_i.hpp</text>
</a>
</g>
</g>
<!-- Node1&#45;&gt;Node7 -->
<g id="edge6_Node000001_Node000007" class="edge">
<title>Node1&#45;&gt;Node7</title>
<g id="a_edge6_Node000001_Node000007"><a xlink:title=" ">
<path fill="none" stroke="#63b8ff" d="M220.72,-110.05C240.24,-100.78 265.29,-88.88 284.48,-79.77"/>
<polygon fill="#63b8ff" stroke="#63b8ff" points="285.83,-83 293.37,-75.55 282.83,-76.68 285.83,-83"/>
</a>
</g>
</g>
<!-- Node7&#45;&gt;Node2 -->
<g id="edge13_Node000007_Node000002" class="edge">
<title>Node7&#45;&gt;Node2</title>
<g id="a_edge13_Node000007_Node000002"><a xlink:title=" ">
<path fill="none" stroke="#63b8ff" d="M276.62,-57.98C229.62,-50.36 145.95,-36.29 64.76,-19.57"/>
<polygon fill="#63b8ff" stroke="#63b8ff" points="65.82,-16.21 55.32,-17.6 64.4,-23.07 65.82,-16.21"/>
</a>
</g>
</g>
<!-- Node7&#45;&gt;Node3 -->
<g id="edge12_Node000007_Node000003" class="edge">
<title>Node7&#45;&gt;Node3</title>
<g id="a_edge12_Node000007_Node000003"><a xlink:title=" ">
<path fill="none" stroke="#63b8ff" d="M276.44,-55.8C239.93,-47.77 182.48,-34.78 123.14,-19.49"/>
<polygon fill="#63b8ff" stroke="#63b8ff" points="124.07,-16.12 113.51,-16.99 122.31,-22.89 124.07,-16.12"/>
</a>
</g>
</g>
<!-- Node7&#45;&gt;Node4 -->
<g id="edge17_Node000007_Node000004" class="edge">
<title>Node7&#45;&gt;Node4</title>
<g id="a_edge17_Node000007_Node000004"><a xlink:title=" ">
<path fill="none" stroke="#63b8ff" d="M286.27,-54.84C258.09,-45.58 214.28,-31.18 184.36,-21.35"/>
<polygon fill="#63b8ff" stroke="#63b8ff" points="185.67,-18.09 175.08,-18.29 183.48,-24.74 185.67,-18.09"/>
</a>
</g>
</g>
<!-- Node7&#45;&gt;Node5 -->
<g id="edge14_Node000007_Node000005" class="edge">
<title>Node7&#45;&gt;Node5</title>
<g id="a_edge14_Node000007_Node000005"><a xlink:title=" ">
<path fill="none" stroke="#63b8ff" d="M297.13,-54.84C282.06,-46.66 259.61,-34.46 242.1,-24.94"/>
<polygon fill="#63b8ff" stroke="#63b8ff" points="244.24,-22.12 233.79,-20.43 240.9,-28.27 244.24,-22.12"/>
</a>
</g>
</g>
<!-- Node8 -->
<g id="Node000008" class="node">
<title>Node8</title>
<g id="a_Node000008"><a xlink:title=" ">
<polygon fill="#e0e0e0" stroke="#999999" points="565.38,-19.25 514.12,-19.25 514.12,0 565.38,0 565.38,-19.25"/>
<text text-anchor="middle" x="539.75" y="-5.75" font-family="Helvetica,sans-Serif" font-size="10.00">stdarg.h</text>
</a>
</g>
</g>
<!-- Node7&#45;&gt;Node8 -->
<g id="edge7_Node000007_Node000008" class="edge">
<title>Node7&#45;&gt;Node8</title>
<g id="a_edge7_Node000007_Node000008"><a xlink:title=" ">
<path fill="none" stroke="#63b8ff" d="M351.11,-55.29C387.38,-46.92 444.28,-33.71 502.82,-19.69"/>
<polygon fill="#63b8ff" stroke="#63b8ff" points="503.39,-23.15 512.29,-17.42 501.75,-16.35 503.39,-23.15"/>
</a>
</g>
</g>
<!-- Node9 -->
<g id="Node000009" class="node">
<title>Node9</title>
<g id="a_Node000009"><a xlink:title=" ">
<polygon fill="#e0e0e0" stroke="#999999" points="634,-19.25 583.5,-19.25 583.5,0 634,0 634,-19.25"/>
<text text-anchor="middle" x="608.75" y="-5.75" font-family="Helvetica,sans-Serif" font-size="10.00">unistd.h</text>
</a>
</g>
</g>
<!-- Node7&#45;&gt;Node9 -->
<g id="edge8_Node000007_Node000009" class="edge">
<title>Node7&#45;&gt;Node9</title>
<g id="a_edge8_Node000007_Node000009"><a xlink:title=" ">
<path fill="none" stroke="#63b8ff" d="M350.9,-56.85C353.89,-56.3 356.87,-55.76 359.75,-55.25 451.61,-38.95 478,-39.14 572.01,-19.69"/>
<polygon fill="#63b8ff" stroke="#63b8ff" points="572.63,-23.13 581.7,-17.66 571.2,-16.28 572.63,-23.13"/>
</a>
</g>
</g>
<!-- Node10 -->
<g id="Node000010" class="node">
<title>Node10</title>
<g id="a_Node000010"><a xlink:title=" ">
<polygon fill="#e0e0e0" stroke="#999999" points="697,-19.25 652.5,-19.25 652.5,0 697,0 697,-19.25"/>
<text text-anchor="middle" x="674.75" y="-5.75" font-family="Helvetica,sans-Serif" font-size="10.00">cstdlib</text>
</a>
</g>
</g>
<!-- Node7&#45;&gt;Node10 -->
<g id="edge9_Node000007_Node000010" class="edge">
<title>Node7&#45;&gt;Node10</title>
<g id="a_edge9_Node000007_Node000010"><a xlink:title=" ">
<path fill="none" stroke="#63b8ff" d="M350.87,-56.72C353.87,-56.2 356.86,-55.7 359.75,-55.25 481.46,-36.12 516.4,-43.36 640.99,-19.32"/>
<polygon fill="#63b8ff" stroke="#63b8ff" points="641.49,-22.79 650.63,-17.43 640.14,-15.92 641.49,-22.79"/>
</a>
</g>
</g>
<!-- Node11 -->
<g id="Node000011" class="node">
<title>Node11</title>
<g id="a_Node000011"><a xlink:title=" ">
<polygon fill="#e0e0e0" stroke="#999999" points="756.88,-19.25 714.62,-19.25 714.62,0 756.88,0 756.88,-19.25"/>
<text text-anchor="middle" x="735.75" y="-5.75" font-family="Helvetica,sans-Serif" font-size="10.00">cstdio</text>
</a>
</g>
</g>
<!-- Node7&#45;&gt;Node11 -->
<g id="edge10_Node000007_Node000011" class="edge">
<title>Node7&#45;&gt;Node11</title>
<g id="a_edge10_Node000007_Node000011"><a xlink:title=" ">
<path fill="none" stroke="#63b8ff" d="M351.11,-56.61C354.03,-56.12 356.94,-55.66 359.75,-55.25 509.16,-33.51 551.98,-48.01 703.16,-19.44"/>
<polygon fill="#63b8ff" stroke="#63b8ff" points="703.59,-22.92 712.74,-17.59 702.26,-16.04 703.59,-22.92"/>
</a>
</g>
</g>
<!-- Node12 -->
<g id="Node000012" class="node">
<title>Node12</title>
<g id="a_Node000012"><a xlink:title=" ">
<polygon fill="#e0e0e0" stroke="#999999" points="303.38,-19.25 258.12,-19.25 258.12,0 303.38,0 303.38,-19.25"/>
<text text-anchor="middle" x="280.75" y="-5.75" font-family="Helvetica,sans-Serif" font-size="10.00">cstring</text>
</a>
</g>
</g>
<!-- Node7&#45;&gt;Node12 -->
<g id="edge11_Node000007_Node000012" class="edge">
<title>Node7&#45;&gt;Node12</title>
<g id="a_edge11_Node000007_Node000012"><a xlink:title=" ">
<path fill="none" stroke="#63b8ff" d="M308.3,-55.08C303.98,-48.11 297.79,-38.12 292.37,-29.37"/>
<polygon fill="#63b8ff" stroke="#63b8ff" points="295.36,-27.55 287.11,-20.9 289.41,-31.24 295.36,-27.55"/>
</a>
</g>
</g>
<!-- Node13 -->
<g id="Node000013" class="node">
<title>Node13</title>
<g id="a_Node000013"><a xlink:title=" ">
<polygon fill="#e0e0e0" stroke="#999999" points="372.38,-19.25 321.12,-19.25 321.12,0 372.38,0 372.38,-19.25"/>
<text text-anchor="middle" x="346.75" y="-5.75" font-family="Helvetica,sans-Serif" font-size="10.00">sstream</text>
</a>
</g>
</g>
<!-- Node7&#45;&gt;Node13 -->
<g id="edge15_Node000007_Node000013" class="edge">
<title>Node7&#45;&gt;Node13</title>
<g id="a_edge15_Node000007_Node000013"><a xlink:title=" ">
<path fill="none" stroke="#63b8ff" d="M319.2,-55.08C323.52,-48.11 329.71,-38.12 335.13,-29.37"/>
<polygon fill="#63b8ff" stroke="#63b8ff" points="338.09,-31.24 340.39,-20.9 332.14,-27.55 338.09,-31.24"/>
</a>
</g>
</g>
<!-- Node14 -->
<g id="Node000014" class="node">
<title>Node14</title>
<g id="a_Node000014"><a xlink:title=" ">
<polygon fill="#e0e0e0" stroke="#999999" points="419.15,-19.25 390.35,-19.25 390.35,0 419.15,0 419.15,-19.25"/>
<text text-anchor="middle" x="404.75" y="-5.75" font-family="Helvetica,sans-Serif" font-size="10.00">list</text>
</a>
</g>
</g>
<!-- Node7&#45;&gt;Node14 -->
<g id="edge16_Node000007_Node000014" class="edge">
<title>Node7&#45;&gt;Node14</title>
<g id="a_edge16_Node000007_Node000014"><a xlink:title=" ">
<path fill="none" stroke="#63b8ff" d="M329.19,-54.84C343.16,-46.66 363.99,-34.48 380.24,-24.97"/>
<polygon fill="#63b8ff" stroke="#63b8ff" points="381.97,-28.01 388.84,-19.94 378.44,-21.97 381.97,-28.01"/>
</a>
</g>
</g>
<!-- Node15 -->
<g id="Node000015" class="node">
<title>Node15</title>
<g id="a_Node000015"><a xlink:title=" ">
<polygon fill="#e0e0e0" stroke="#999999" points="496.12,-19.25 437.38,-19.25 437.38,0 496.12,0 496.12,-19.25"/>
<text text-anchor="middle" x="466.75" y="-5.75" font-family="Helvetica,sans-Serif" font-size="10.00">stdexcept</text>
</a>
</g>
</g>
<!-- Node7&#45;&gt;Node15 -->
<g id="edge18_Node000007_Node000015" class="edge">
<title>Node7&#45;&gt;Node15</title>
<g id="a_edge18_Node000007_Node000015"><a xlink:title=" ">
<path fill="none" stroke="#63b8ff" d="M339.7,-54.84C364.54,-46.2 402.25,-33.07 430.13,-23.37"/>
<polygon fill="#63b8ff" stroke="#63b8ff" points="430.94,-26.79 439.24,-20.2 428.64,-20.18 430.94,-26.79"/>
</a>
</g>
</g>
</g>
</svg>
