<?xml version="1.0" encoding="UTF-8" standalone="no"?>
<!DOCTYPE svg PUBLIC "-//W3C//DTD SVG 1.1//EN"
 "http://www.w3.org/Graphics/SVG/1.1/DTD/svg11.dtd">
<!-- Generated by graphviz version 12.2.1 (20241206.2353)
 -->
<!-- Title: Apply_KEpsilon_Wall_Functions Pages: 1 -->
<svg width="765pt" height="200pt"
 viewBox="0.00 0.00 765.25 199.88" xmlns="http://www.w3.org/2000/svg" xmlns:xlink="http://www.w3.org/1999/xlink">
<g id="graph0" class="graph" transform="scale(1 1) rotate(0) translate(4 195.88)">
<title>Apply_KEpsilon_Wall_Functions</title>
<!-- Node1 -->
<g id="Node000001" class="node">
<title>Node1</title>
<g id="a_Node000001"><a xlink:title="Apply wall functions for K&#45;epsilon model.">
<polygon fill="#999999" stroke="#666666" points="109,-110.88 0,-110.88 0,-80.38 109,-80.38 109,-110.88"/>
<text text-anchor="start" x="8" y="-97.38" font-family="Helvetica,sans-Serif" font-size="10.00">Apply_KEpsilon_Wall</text>
<text text-anchor="middle" x="54.5" y="-86.12" font-family="Helvetica,sans-Serif" font-size="10.00">_Functions</text>
</a>
</g>
</g>
<!-- Node2 -->
<g id="Node000002" class="node">
<title>Node2</title>
<g id="a_Node000002"><a xlink:href="../../da/d71/_k___epsilon___model_8cpp_a80bd2fbc9eee5585491d30c17bd73b77.html#a80bd2fbc9eee5585491d30c17bd73b77" target="_top" xlink:title="Calculate turbulent viscosity using K&#45;epsilon model.">
<polygon fill="white" stroke="#666666" points="261.5,-191.88 154,-191.88 154,-161.38 261.5,-161.38 261.5,-191.88"/>
<text text-anchor="start" x="162" y="-178.38" font-family="Helvetica,sans-Serif" font-size="10.00">Calculate_KEpsilon</text>
<text text-anchor="middle" x="207.75" y="-167.12" font-family="Helvetica,sans-Serif" font-size="10.00">_Turbulent_Viscosity</text>
</a>
</g>
</g>
<!-- Node1&#45;&gt;Node2 -->
<g id="edge1_Node000001_Node000002" class="edge">
<title>Node1&#45;&gt;Node2</title>
<g id="a_edge1_Node000001_Node000002"><a xlink:title=" ">
<path fill="none" stroke="#63b8ff" d="M81.02,-111.25C98.74,-121.9 123.03,-136.11 145,-147.62 150.38,-150.44 156.08,-153.29 161.75,-156.05"/>
<polygon fill="#63b8ff" stroke="#63b8ff" points="159.97,-159.08 170.5,-160.24 162.99,-152.77 159.97,-159.08"/>
</a>
</g>
</g>
<!-- Node3 -->
<g id="Node000003" class="node">
<title>Node3</title>
<g id="a_Node000003"><a xlink:href="../../da/d71/_k___epsilon___model_8cpp_ab6081c548f15e5cff5f3a7f797726bd0.html#ab6081c548f15e5cff5f3a7f797726bd0" target="_top" xlink:title="Calculate laminar viscosity for a given cell.">
<polygon fill="white" stroke="#666666" points="449.25,-103.25 306.5,-103.25 306.5,-84 449.25,-84 449.25,-103.25"/>
<text text-anchor="middle" x="377.88" y="-89.75" font-family="Helvetica,sans-Serif" font-size="10.00">Calculate_Laminar_Viscosity</text>
</a>
</g>
</g>
<!-- Node1&#45;&gt;Node3 -->
<g id="edge6_Node000001_Node000003" class="edge">
<title>Node1&#45;&gt;Node3</title>
<g id="a_edge6_Node000001_Node000003"><a xlink:title=" ">
<path fill="none" stroke="#63b8ff" d="M109.16,-108.92C120.9,-111.29 133.31,-113.4 145,-114.62 200.47,-120.45 214.99,-120.05 270.5,-114.62 288.25,-112.89 307.43,-109.56 324.56,-106.06"/>
<polygon fill="#63b8ff" stroke="#63b8ff" points="324.94,-109.56 333.99,-104.06 323.49,-102.71 324.94,-109.56"/>
</a>
</g>
</g>
<!-- Node7 -->
<g id="Node000007" class="node">
<title>Node7</title>
<g id="a_Node000007"><a xlink:href="../../d5/d65/_turbulence___models_8cpp_ad33c2f48ac725ecf6a5752998dc61bfb.html#ad33c2f48ac725ecf6a5752998dc61bfb" target="_top" xlink:title="Calculate wall distance for a specific cell.">
<polygon fill="white" stroke="#666666" points="270.5,-105.25 145,-105.25 145,-86 270.5,-86 270.5,-105.25"/>
<text text-anchor="middle" x="207.75" y="-91.75" font-family="Helvetica,sans-Serif" font-size="10.00">Calculate_Wall_Distance</text>
</a>
</g>
</g>
<!-- Node1&#45;&gt;Node7 -->
<g id="edge7_Node000001_Node000007" class="edge">
<title>Node1&#45;&gt;Node7</title>
<g id="a_edge7_Node000001_Node000007"><a xlink:title=" ">
<path fill="none" stroke="#63b8ff" d="M109.25,-95.62C117.04,-95.62 125.17,-95.62 133.27,-95.62"/>
<polygon fill="#63b8ff" stroke="#63b8ff" points="133.14,-99.13 143.14,-95.63 133.14,-92.13 133.14,-99.13"/>
</a>
</g>
</g>
<!-- Node8 -->
<g id="Node000008" class="node">
<title>Node8</title>
<g id="a_Node000008"><a xlink:href="../../d5/d65/_turbulence___models_8cpp_a03e51a3911d0c7d5e07923da61de56ac.html#a03e51a3911d0c7d5e07923da61de56ac" target="_top" xlink:title="Calculate wall shear stress for a specific cell.">
<polygon fill="white" stroke="#666666" points="263.75,-67.88 151.75,-67.88 151.75,-37.38 263.75,-37.38 263.75,-67.88"/>
<text text-anchor="start" x="159.75" y="-54.38" font-family="Helvetica,sans-Serif" font-size="10.00">Calculate_Wall_Shear</text>
<text text-anchor="middle" x="207.75" y="-43.12" font-family="Helvetica,sans-Serif" font-size="10.00">_Stress</text>
</a>
</g>
</g>
<!-- Node1&#45;&gt;Node8 -->
<g id="edge8_Node000001_Node000008" class="edge">
<title>Node1&#45;&gt;Node8</title>
<g id="a_edge8_Node000001_Node000008"><a xlink:title=" ">
<path fill="none" stroke="#63b8ff" d="M109.25,-80.34C119.4,-77.46 130.12,-74.41 140.59,-71.43"/>
<polygon fill="#63b8ff" stroke="#63b8ff" points="141.27,-74.88 149.93,-68.78 139.35,-68.15 141.27,-74.88"/>
</a>
</g>
</g>
<!-- Node9 -->
<g id="Node000009" class="node">
<title>Node9</title>
<g id="a_Node000009"><a xlink:href="../../d5/d65/_turbulence___models_8cpp_aafebbce81375f79224f4a424a54b29ee.html#aafebbce81375f79224f4a424a54b29ee" target="_top" xlink:title="Calculate y+ value for a specific cell.">
<polygon fill="white" stroke="#666666" points="254.75,-19.25 160.75,-19.25 160.75,0 254.75,0 254.75,-19.25"/>
<text text-anchor="middle" x="207.75" y="-5.75" font-family="Helvetica,sans-Serif" font-size="10.00">Calculate_Y_Plus</text>
</a>
</g>
</g>
<!-- Node1&#45;&gt;Node9 -->
<g id="edge10_Node000001_Node000009" class="edge">
<title>Node1&#45;&gt;Node9</title>
<g id="a_edge10_Node000001_Node000009"><a xlink:title=" ">
<path fill="none" stroke="#63b8ff" d="M72.46,-80.08C89.63,-65.07 117.49,-42.62 145,-28.62 148.51,-26.84 152.21,-25.19 155.99,-23.67"/>
<polygon fill="#63b8ff" stroke="#63b8ff" points="157.15,-26.97 165.33,-20.24 154.74,-20.4 157.15,-26.97"/>
</a>
</g>
</g>
<!-- Node2&#45;&gt;Node3 -->
<g id="edge2_Node000002_Node000003" class="edge">
<title>Node2&#45;&gt;Node3</title>
<g id="a_edge2_Node000002_Node000003"><a xlink:title=" ">
<path fill="none" stroke="#63b8ff" d="M242.49,-161.01C251.61,-156.73 261.45,-152.04 270.5,-147.62 296.77,-134.79 326.41,-119.69 347.72,-108.73"/>
<polygon fill="#63b8ff" stroke="#63b8ff" points="349.12,-111.95 356.4,-104.25 345.91,-105.72 349.12,-111.95"/>
</a>
</g>
</g>
<!-- Node4 -->
<g id="Node000004" class="node">
<title>Node4</title>
<g id="a_Node000004"><a xlink:href="../../da/d71/_k___epsilon___model_8cpp_a4ac5abbc0be034b167174ed0e6ea5814.html#a4ac5abbc0be034b167174ed0e6ea5814" target="_top" xlink:title="Calculate strain rate magnitude for a given cell.">
<polygon fill="white" stroke="#666666" points="435,-191.88 320.75,-191.88 320.75,-161.38 435,-161.38 435,-191.88"/>
<text text-anchor="start" x="328.75" y="-178.38" font-family="Helvetica,sans-Serif" font-size="10.00">Calculate_Strain_Rate</text>
<text text-anchor="middle" x="377.88" y="-167.12" font-family="Helvetica,sans-Serif" font-size="10.00">_Magnitude</text>
</a>
</g>
</g>
<!-- Node2&#45;&gt;Node4 -->
<g id="edge3_Node000002_Node000004" class="edge">
<title>Node2&#45;&gt;Node4</title>
<g id="a_edge3_Node000002_Node000004"><a xlink:title=" ">
<path fill="none" stroke="#63b8ff" d="M261.95,-176.62C276.96,-176.62 293.51,-176.62 309.25,-176.62"/>
<polygon fill="#63b8ff" stroke="#63b8ff" points="309.03,-180.13 319.03,-176.63 309.03,-173.13 309.03,-180.13"/>
</a>
</g>
</g>
<!-- Node5 -->
<g id="Node000005" class="node">
<title>Node5</title>
<g id="a_Node000005"><a xlink:href="../../d5/d65/_turbulence___models_8cpp_abcf5967a793b905ba24e0b6f02859f52.html#abcf5967a793b905ba24e0b6f02859f52" target="_top" xlink:title="Calculate strain rate tensor for a given cell.">
<polygon fill="white" stroke="#666666" points="599.5,-191.88 485.25,-191.88 485.25,-161.38 599.5,-161.38 599.5,-191.88"/>
<text text-anchor="start" x="493.25" y="-178.38" font-family="Helvetica,sans-Serif" font-size="10.00">Calculate_Strain_Rate</text>
<text text-anchor="middle" x="542.38" y="-167.12" font-family="Helvetica,sans-Serif" font-size="10.00">_Tensor</text>
</a>
</g>
</g>
<!-- Node4&#45;&gt;Node5 -->
<g id="edge4_Node000004_Node000005" class="edge">
<title>Node4&#45;&gt;Node5</title>
<g id="a_edge4_Node000004_Node000005"><a xlink:title=" ">
<path fill="none" stroke="#63b8ff" d="M435.25,-176.62C447.54,-176.62 460.66,-176.62 473.34,-176.62"/>
<polygon fill="#63b8ff" stroke="#63b8ff" points="473.31,-180.13 483.31,-176.63 473.31,-173.13 473.31,-180.13"/>
</a>
</g>
</g>
<!-- Node6 -->
<g id="Node000006" class="node">
<title>Node6</title>
<g id="a_Node000006"><a xlink:href="../../d5/db2/class_vector_a2ce47a84fc19c32a26ada5a3379c3f0a.html#a2ce47a84fc19c32a26ada5a3379c3f0a" target="_top" xlink:title=" ">
<polygon fill="white" stroke="#666666" points="757.25,-186.25 635.5,-186.25 635.5,-167 757.25,-167 757.25,-186.25"/>
<text text-anchor="middle" x="696.38" y="-172.75" font-family="Helvetica,sans-Serif" font-size="10.00">Vector::Get_Component</text>
</a>
</g>
</g>
<!-- Node5&#45;&gt;Node6 -->
<g id="edge5_Node000005_Node000006" class="edge">
<title>Node5&#45;&gt;Node6</title>
<g id="a_edge5_Node000005_Node000006"><a xlink:title=" ">
<path fill="none" stroke="#63b8ff" d="M599.97,-176.62C607.78,-176.62 615.87,-176.62 623.9,-176.62"/>
<polygon fill="#63b8ff" stroke="#63b8ff" points="623.65,-180.13 633.65,-176.63 623.65,-173.13 623.65,-180.13"/>
</a>
</g>
</g>
<!-- Node8&#45;&gt;Node3 -->
<g id="edge9_Node000008_Node000003" class="edge">
<title>Node8&#45;&gt;Node3</title>
<g id="a_edge9_Node000008_Node000003"><a xlink:title=" ">
<path fill="none" stroke="#63b8ff" d="M263.8,-66.05C283.33,-70.81 305.25,-76.16 324.55,-80.86"/>
<polygon fill="#63b8ff" stroke="#63b8ff" points="323.56,-84.23 334.1,-83.19 325.22,-77.42 323.56,-84.23"/>
</a>
</g>
</g>
<!-- Node9&#45;&gt;Node3 -->
<g id="edge11_Node000009_Node000003" class="edge">
<title>Node9&#45;&gt;Node3</title>
<g id="a_edge11_Node000009_Node000003"><a xlink:title=" ">
<path fill="none" stroke="#63b8ff" d="M246.86,-19.71C254.81,-22.27 263.04,-25.26 270.5,-28.62 300.68,-42.23 332.78,-62.78 353.72,-77.13"/>
<polygon fill="#63b8ff" stroke="#63b8ff" points="351.6,-79.91 361.81,-82.74 355.59,-74.16 351.6,-79.91"/>
</a>
</g>
</g>
</g>
</svg>
