<?xml version="1.0" encoding="UTF-8" standalone="no"?>
<!DOCTYPE svg PUBLIC "-//W3C//DTD SVG 1.1//EN"
 "http://www.w3.org/Graphics/SVG/1.1/DTD/svg11.dtd">
<!-- Generated by graphviz version 12.2.1 (20241206.2353)
 -->
<!-- Title: Calculate_KEpsilon_Turbulent_Viscosity Pages: 1 -->
<svg width="1169pt" height="274pt"
 viewBox="0.00 0.00 1168.50 274.36" xmlns="http://www.w3.org/2000/svg" xmlns:xlink="http://www.w3.org/1999/xlink">
<g id="graph0" class="graph" transform="scale(1 1) rotate(0) translate(4 270.36)">
<title>Calculate_KEpsilon_Turbulent_Viscosity</title>
<!-- Node1 -->
<g id="Node000001" class="node">
<title>Node1</title>
<g id="a_Node000001"><a xlink:title="Calculate turbulent viscosity using K&#45;epsilon model.">
<polygon fill="#999999" stroke="#666666" points="1160.5,-154.5 1053,-154.5 1053,-124 1160.5,-124 1160.5,-154.5"/>
<text text-anchor="start" x="1061" y="-141" font-family="Helvetica,sans-Serif" font-size="10.00">Calculate_KEpsilon</text>
<text text-anchor="middle" x="1106.75" y="-129.75" font-family="Helvetica,sans-Serif" font-size="10.00">_Turbulent_Viscosity</text>
</a>
</g>
</g>
<!-- Node2 -->
<g id="Node000002" class="node">
<title>Node2</title>
<g id="a_Node000002"><a xlink:href="../../da/d71/_k___epsilon___model_8cpp_a9b3a5337109b34589068a9866d726800.html#a9b3a5337109b34589068a9866d726800" target="_top" xlink:title="Apply inlet boundary conditions for K&#45;epsilon model.">
<polygon fill="white" stroke="#666666" points="1013.25,-228.88 884.75,-228.88 884.75,-209.62 1013.25,-209.62 1013.25,-228.88"/>
<text text-anchor="middle" x="949" y="-215.38" font-family="Helvetica,sans-Serif" font-size="10.00">Apply_KEpsilon_Inlet_BC</text>
</a>
</g>
</g>
<!-- Node1&#45;&gt;Node2 -->
<g id="edge1_Node000001_Node000002" class="edge">
<title>Node1&#45;&gt;Node2</title>
<g id="a_edge1_Node000001_Node000002"><a xlink:title=" ">
<path fill="none" stroke="#63b8ff" d="M1078.81,-161.79C1061.96,-174.91 1039.28,-190.87 1017,-201.25 1010.34,-204.35 1003.05,-207 995.81,-209.23"/>
<polygon fill="#63b8ff" stroke="#63b8ff" points="1080.71,-164.75 1086.35,-155.78 1076.35,-159.27 1080.71,-164.75"/>
</a>
</g>
</g>
<!-- Node9 -->
<g id="Node000009" class="node">
<title>Node9</title>
<g id="a_Node000009"><a xlink:href="../../da/d71/_k___epsilon___model_8cpp_a163b2ecb17217e9669102929a8f2f700.html#a163b2ecb17217e9669102929a8f2f700" target="_top" xlink:title="Apply outlet boundary conditions for K&#45;epsilon model.">
<polygon fill="white" stroke="#666666" points="1017,-191.88 881,-191.88 881,-172.62 1017,-172.62 1017,-191.88"/>
<text text-anchor="middle" x="949" y="-178.38" font-family="Helvetica,sans-Serif" font-size="10.00">Apply_KEpsilon_Outlet_BC</text>
</a>
</g>
</g>
<!-- Node1&#45;&gt;Node9 -->
<g id="edge10_Node000001_Node000009" class="edge">
<title>Node1&#45;&gt;Node9</title>
<g id="a_edge10_Node000001_Node000009"><a xlink:title=" ">
<path fill="none" stroke="#63b8ff" d="M1041.63,-156.95C1022.74,-162.17 1002.74,-167.69 986.26,-172.24"/>
<polygon fill="#63b8ff" stroke="#63b8ff" points="1042.42,-160.37 1051.13,-154.33 1040.56,-153.62 1042.42,-160.37"/>
</a>
</g>
</g>
<!-- Node11 -->
<g id="Node000011" class="node">
<title>Node11</title>
<g id="a_Node000011"><a xlink:href="../../da/d71/_k___epsilon___model_8cpp_aafaba955ffd8353debe7b95e753885d0.html#aafaba955ffd8353debe7b95e753885d0" target="_top" xlink:title="Apply wall functions for K&#45;epsilon model.">
<polygon fill="white" stroke="#666666" points="1003.5,-154.5 894.5,-154.5 894.5,-124 1003.5,-124 1003.5,-154.5"/>
<text text-anchor="start" x="902.5" y="-141" font-family="Helvetica,sans-Serif" font-size="10.00">Apply_KEpsilon_Wall</text>
<text text-anchor="middle" x="949" y="-129.75" font-family="Helvetica,sans-Serif" font-size="10.00">_Functions</text>
</a>
</g>
</g>
<!-- Node1&#45;&gt;Node11 -->
<g id="edge13_Node000001_Node000011" class="edge">
<title>Node1&#45;&gt;Node11</title>
<g id="a_edge13_Node000001_Node000011"><a xlink:title=" ">
<path fill="none" stroke="#63b8ff" d="M1041.35,-139.25C1028.93,-139.25 1016.03,-139.25 1003.98,-139.25"/>
<polygon fill="#63b8ff" stroke="#63b8ff" points="1041.07,-142.75 1051.07,-139.25 1041.07,-135.75 1041.07,-142.75"/>
</a>
</g>
</g>
<!-- Node13 -->
<g id="Node000013" class="node">
<title>Node13</title>
<g id="a_Node000013"><a xlink:href="../../d5/d65/_turbulence___models_8cpp_a88b199d9b9d00896bc2ed690e14f8ce6.html#a88b199d9b9d00896bc2ed690e14f8ce6" target="_top" xlink:title="Apply turbulence symmetry boundary conditions.">
<polygon fill="white" stroke="#666666" points="845,-265.88 681.25,-265.88 681.25,-246.62 845,-246.62 845,-265.88"/>
<text text-anchor="middle" x="763.12" y="-252.38" font-family="Helvetica,sans-Serif" font-size="10.00">Apply_Turbulence_Symmetry_BC</text>
</a>
</g>
</g>
<!-- Node1&#45;&gt;Node13 -->
<g id="edge16_Node000001_Node000013" class="edge">
<title>Node1&#45;&gt;Node13</title>
<g id="a_edge16_Node000001_Node000013"><a xlink:title=" ">
<path fill="none" stroke="#63b8ff" d="M1091.24,-164.37C1076.06,-188.02 1049.86,-222.15 1017,-238.25 963.94,-264.24 896.98,-267.92 845.3,-265.55"/>
<polygon fill="#63b8ff" stroke="#63b8ff" points="1094.18,-166.29 1096.45,-155.94 1088.22,-162.61 1094.18,-166.29"/>
</a>
</g>
</g>
<!-- Node14 -->
<g id="Node000014" class="node">
<title>Node14</title>
<g id="a_Node000014"><a xlink:href="../../da/d71/_k___epsilon___model_8cpp_a2745d49ba112386d4f3e7aea7752d415.html#a2745d49ba112386d4f3e7aea7752d415" target="_top" xlink:title="Initialize K&#45;epsilon model variables for all cells.">
<polygon fill="white" stroke="#666666" points="997.12,-30.5 900.88,-30.5 900.88,0 997.12,0 997.12,-30.5"/>
<text text-anchor="start" x="908.88" y="-17" font-family="Helvetica,sans-Serif" font-size="10.00">Initialize_KEpsilon</text>
<text text-anchor="middle" x="949" y="-5.75" font-family="Helvetica,sans-Serif" font-size="10.00">_Variables</text>
</a>
</g>
</g>
<!-- Node1&#45;&gt;Node14 -->
<g id="edge18_Node000001_Node000014" class="edge">
<title>Node1&#45;&gt;Node14</title>
<g id="a_edge18_Node000001_Node000014"><a xlink:title=" ">
<path fill="none" stroke="#63b8ff" d="M1087.51,-114.64C1070.99,-93.7 1045,-63.98 1017,-44.25 1009.75,-39.14 1001.45,-34.65 993.23,-30.84"/>
<polygon fill="#63b8ff" stroke="#63b8ff" points="1084.61,-116.6 1093.49,-122.37 1090.15,-112.32 1084.61,-116.6"/>
</a>
</g>
</g>
<!-- Node17 -->
<g id="Node000017" class="node">
<title>Node17</title>
<g id="a_Node000017"><a xlink:href="../../da/d71/_k___epsilon___model_8cpp_a1f8b4153dd164adfeb34b737d9a3392c.html#a1f8b4153dd164adfeb34b737d9a3392c" target="_top" xlink:title="Solve K&#45;epsilon transport equations using explicit time integration.">
<polygon fill="white" stroke="#666666" points="625.75,-93.5 494.25,-93.5 494.25,-63 625.75,-63 625.75,-93.5"/>
<text text-anchor="start" x="502.25" y="-80" font-family="Helvetica,sans-Serif" font-size="10.00">Solve_KEpsilon_Transport</text>
<text text-anchor="middle" x="560" y="-68.75" font-family="Helvetica,sans-Serif" font-size="10.00">_Equations</text>
</a>
</g>
</g>
<!-- Node1&#45;&gt;Node17 -->
<g id="edge21_Node000001_Node000017" class="edge">
<title>Node1&#45;&gt;Node17</title>
<g id="a_edge21_Node000001_Node000017"><a xlink:title=" ">
<path fill="none" stroke="#63b8ff" d="M1065.08,-118.86C1050.31,-112.38 1033.24,-105.95 1017,-102.25 880.57,-71.2 715.5,-71.56 626.14,-74.77"/>
<polygon fill="#63b8ff" stroke="#63b8ff" points="1063.46,-121.97 1074.02,-122.92 1066.36,-115.6 1063.46,-121.97"/>
</a>
</g>
</g>
<!-- Node18 -->
<g id="Node000018" class="node">
<title>Node18</title>
<g id="a_Node000018"><a xlink:href="../../d4/df3/_turbulence___integration_8cpp_a6f5c4a828a942de7bc3fe7b4f035154e.html#a6f5c4a828a942de7bc3fe7b4f035154e" target="_top" xlink:title="Update turbulence variables using RK4 method.">
<polygon fill="white" stroke="#666666" points="645.25,-137.88 474.75,-137.88 474.75,-118.62 645.25,-118.62 645.25,-137.88"/>
<text text-anchor="middle" x="560" y="-124.38" font-family="Helvetica,sans-Serif" font-size="10.00">Update_Turbulence_Variables_RK4</text>
</a>
</g>
</g>
<!-- Node1&#45;&gt;Node18 -->
<g id="edge23_Node000001_Node000018" class="edge">
<title>Node1&#45;&gt;Node18</title>
<g id="a_edge23_Node000001_Node000018"><a xlink:title=" ">
<path fill="none" stroke="#63b8ff" d="M1045.87,-120.76C1036.3,-118.48 1026.44,-116.5 1017,-115.25 869.05,-95.6 830.35,-114.67 681.25,-121.25 669.76,-121.76 657.66,-122.37 645.73,-123.02"/>
<polygon fill="#63b8ff" stroke="#63b8ff" points="1044.91,-124.13 1055.46,-123.2 1046.63,-117.35 1044.91,-124.13"/>
</a>
</g>
</g>
<!-- Node3 -->
<g id="Node000003" class="node">
<title>Node3</title>
<g id="a_Node000003"><a xlink:href="../../d5/d65/_turbulence___models_8cpp_a134e165674f67daba41b38ff2c1ce4c9.html#a134e165674f67daba41b38ff2c1ce4c9" target="_top" xlink:title="Apply turbulence inlet boundary conditions.">
<polygon fill="white" stroke="#666666" points="831.88,-227.88 694.38,-227.88 694.38,-208.62 831.88,-208.62 831.88,-227.88"/>
<text text-anchor="middle" x="763.12" y="-214.38" font-family="Helvetica,sans-Serif" font-size="10.00">Apply_Turbulence_Inlet_BC</text>
</a>
</g>
</g>
<!-- Node2&#45;&gt;Node3 -->
<g id="edge2_Node000002_Node000003" class="edge">
<title>Node2&#45;&gt;Node3</title>
<g id="a_edge2_Node000002_Node000003"><a xlink:title=" ">
<path fill="none" stroke="#63b8ff" d="M873.25,-218.84C859.73,-218.77 845.69,-218.69 832.37,-218.62"/>
<polygon fill="#63b8ff" stroke="#63b8ff" points="872.93,-222.34 882.95,-218.9 872.97,-215.34 872.93,-222.34"/>
</a>
</g>
</g>
<!-- Node4 -->
<g id="Node000004" class="node">
<title>Node4</title>
<g id="a_Node000004"><a xlink:href="../../d5/d65/_turbulence___models_8cpp_a1158808d85e3e5c5ec0b6cc6b7462a27.html#a1158808d85e3e5c5ec0b6cc6b7462a27" target="_top" xlink:title="Apply turbulence boundary conditions to all boundary cells.">
<polygon fill="white" stroke="#666666" points="617.12,-190.5 502.88,-190.5 502.88,-160 617.12,-160 617.12,-190.5"/>
<text text-anchor="start" x="510.88" y="-177" font-family="Helvetica,sans-Serif" font-size="10.00">Apply_All_Turbulence</text>
<text text-anchor="middle" x="560" y="-165.75" font-family="Helvetica,sans-Serif" font-size="10.00">_Boundary_Conditions</text>
</a>
</g>
</g>
<!-- Node3&#45;&gt;Node4 -->
<g id="edge3_Node000003_Node000004" class="edge">
<title>Node3&#45;&gt;Node4</title>
<g id="a_edge3_Node000003_Node000004"><a xlink:title=" ">
<path fill="none" stroke="#63b8ff" d="M704.04,-205.83C676.83,-200.01 644.53,-193.11 617.52,-187.33"/>
<polygon fill="#63b8ff" stroke="#63b8ff" points="702.98,-209.18 713.49,-207.85 704.44,-202.34 702.98,-209.18"/>
</a>
</g>
</g>
<!-- Node5 -->
<g id="Node000005" class="node">
<title>Node5</title>
<g id="a_Node000005"><a xlink:href="../../d4/df3/_turbulence___integration_8cpp_a5be3d179089fc076bb68c61f7cd17b7a.html#a5be3d179089fc076bb68c61f7cd17b7a" target="_top" xlink:title="Runge&#45;Kutta method with turbulence model integration.">
<polygon fill="white" stroke="#666666" points="421.12,-147.5 310.62,-147.5 310.62,-117 421.12,-117 421.12,-147.5"/>
<text text-anchor="start" x="318.62" y="-134" font-family="Helvetica,sans-Serif" font-size="10.00">Runge_Kutta_Method</text>
<text text-anchor="middle" x="365.88" y="-122.75" font-family="Helvetica,sans-Serif" font-size="10.00">_With_Turbulence</text>
</a>
</g>
</g>
<!-- Node4&#45;&gt;Node5 -->
<g id="edge4_Node000004_Node000005" class="edge">
<title>Node4&#45;&gt;Node5</title>
<g id="a_edge4_Node000004_Node000005"><a xlink:title=" ">
<path fill="none" stroke="#63b8ff" d="M491.37,-160.11C468.46,-154.99 443.18,-149.33 421.42,-144.46"/>
<polygon fill="#63b8ff" stroke="#63b8ff" points="490.4,-163.48 500.92,-162.25 491.92,-156.65 490.4,-163.48"/>
</a>
</g>
</g>
<!-- Node6 -->
<g id="Node000006" class="node">
<title>Node6</title>
<g id="a_Node000006"><a xlink:href="../../d4/df3/_turbulence___integration_8cpp_a564537a29550f0d8ec11e8ef76cd2b3a.html#a564537a29550f0d8ec11e8ef76cd2b3a" target="_top" xlink:title="Modified viscous solver with turbulence model integration.">
<polygon fill="white" stroke="#666666" points="109.75,-147.5 0,-147.5 0,-117 109.75,-117 109.75,-147.5"/>
<text text-anchor="start" x="8" y="-134" font-family="Helvetica,sans-Serif" font-size="10.00">Viscous_Solver_With</text>
<text text-anchor="middle" x="54.88" y="-122.75" font-family="Helvetica,sans-Serif" font-size="10.00">_Turbulence</text>
</a>
</g>
</g>
<!-- Node4&#45;&gt;Node6 -->
<g id="edge9_Node000004_Node000006" class="edge">
<title>Node4&#45;&gt;Node6</title>
<g id="a_edge9_Node000004_Node000006"><a xlink:title=" ">
<path fill="none" stroke="#63b8ff" d="M490.97,-172.24C408.93,-168.2 266.95,-159.92 145.75,-146.25 134.14,-144.94 121.73,-143.22 109.96,-141.43"/>
<polygon fill="#63b8ff" stroke="#63b8ff" points="490.71,-175.73 500.87,-172.72 491.05,-168.74 490.71,-175.73"/>
</a>
</g>
</g>
<!-- Node7 -->
<g id="Node000007" class="node">
<title>Node7</title>
<g id="a_Node000007"><a xlink:href="../../d5/d65/_turbulence___models_8cpp_afb9159b9dcb0534a88f1df9496ece4ad.html#afb9159b9dcb0534a88f1df9496ece4ad" target="_top" xlink:title="Update turbulence variables for all cells.">
<polygon fill="white" stroke="#666666" points="438.75,-98.88 293,-98.88 293,-79.62 438.75,-79.62 438.75,-98.88"/>
<text text-anchor="middle" x="365.88" y="-85.38" font-family="Helvetica,sans-Serif" font-size="10.00">Update_Turbulence_Variables</text>
</a>
</g>
</g>
<!-- Node4&#45;&gt;Node7 -->
<g id="edge6_Node000004_Node000007" class="edge">
<title>Node4&#45;&gt;Node7</title>
<g id="a_edge6_Node000004_Node000007"><a xlink:title=" ">
<path fill="none" stroke="#63b8ff" d="M492.33,-156.68C486.19,-153.91 480.23,-150.78 474.75,-147.25 454.93,-134.46 458.96,-120.42 438.75,-108.25 432.78,-104.66 426.13,-101.73 419.35,-99.36"/>
<polygon fill="#63b8ff" stroke="#63b8ff" points="490.81,-159.83 501.39,-160.41 493.48,-153.36 490.81,-159.83"/>
</a>
</g>
</g>
<!-- Node5&#45;&gt;Node6 -->
<g id="edge5_Node000005_Node000006" class="edge">
<title>Node5&#45;&gt;Node6</title>
<g id="a_edge5_Node000005_Node000006"><a xlink:title=" ">
<path fill="none" stroke="#63b8ff" d="M299.07,-132.25C242.79,-132.25 162.78,-132.25 110.12,-132.25"/>
<polygon fill="#63b8ff" stroke="#63b8ff" points="298.83,-135.75 308.83,-132.25 298.83,-128.75 298.83,-135.75"/>
</a>
</g>
</g>
<!-- Node8 -->
<g id="Node000008" class="node">
<title>Node8</title>
<g id="a_Node000008"><a xlink:href="../../d4/df3/_turbulence___integration_8cpp_ab169036ed9f440a82e87aa687850b80e.html#ab169036ed9f440a82e87aa687850b80e" target="_top" xlink:title="Explicit method with turbulence model integration.">
<polygon fill="white" stroke="#666666" points="257,-104.5 145.75,-104.5 145.75,-74 257,-74 257,-104.5"/>
<text text-anchor="start" x="153.75" y="-91" font-family="Helvetica,sans-Serif" font-size="10.00">Explicit_Method_With</text>
<text text-anchor="middle" x="201.38" y="-79.75" font-family="Helvetica,sans-Serif" font-size="10.00">_Turbulence</text>
</a>
</g>
</g>
<!-- Node7&#45;&gt;Node8 -->
<g id="edge7_Node000007_Node000008" class="edge">
<title>Node7&#45;&gt;Node8</title>
<g id="a_edge7_Node000007_Node000008"><a xlink:title=" ">
<path fill="none" stroke="#63b8ff" d="M281.2,-89.25C273.1,-89.25 265.02,-89.25 257.3,-89.25"/>
<polygon fill="#63b8ff" stroke="#63b8ff" points="281.14,-92.75 291.14,-89.25 281.14,-85.75 281.14,-92.75"/>
</a>
</g>
</g>
<!-- Node8&#45;&gt;Node6 -->
<g id="edge8_Node000008_Node000006" class="edge">
<title>Node8&#45;&gt;Node6</title>
<g id="a_edge8_Node000008_Node000006"><a xlink:title=" ">
<path fill="none" stroke="#63b8ff" d="M136.87,-108.15C127.45,-110.95 117.83,-113.81 108.65,-116.54"/>
<polygon fill="#63b8ff" stroke="#63b8ff" points="137.76,-111.53 146.35,-105.33 135.76,-104.82 137.76,-111.53"/>
</a>
</g>
</g>
<!-- Node10 -->
<g id="Node000010" class="node">
<title>Node10</title>
<g id="a_Node000010"><a xlink:href="../../d5/d65/_turbulence___models_8cpp_a3b4ea5d29901515353257738e5b15b13.html#a3b4ea5d29901515353257738e5b15b13" target="_top" xlink:title="Apply turbulence outlet boundary conditions.">
<polygon fill="white" stroke="#666666" points="835.62,-189.88 690.62,-189.88 690.62,-170.62 835.62,-170.62 835.62,-189.88"/>
<text text-anchor="middle" x="763.12" y="-176.38" font-family="Helvetica,sans-Serif" font-size="10.00">Apply_Turbulence_Outlet_BC</text>
</a>
</g>
</g>
<!-- Node9&#45;&gt;Node10 -->
<g id="edge11_Node000009_Node000010" class="edge">
<title>Node9&#45;&gt;Node10</title>
<g id="a_edge11_Node000009_Node000010"><a xlink:title=" ">
<path fill="none" stroke="#63b8ff" d="M869.17,-181.39C858.11,-181.27 846.79,-181.15 835.87,-181.03"/>
<polygon fill="#63b8ff" stroke="#63b8ff" points="869.02,-184.89 879.06,-181.5 869.1,-177.89 869.02,-184.89"/>
</a>
</g>
</g>
<!-- Node10&#45;&gt;Node4 -->
<g id="edge12_Node000010_Node000004" class="edge">
<title>Node10&#45;&gt;Node4</title>
<g id="a_edge12_Node000010_Node000004"><a xlink:title=" ">
<path fill="none" stroke="#63b8ff" d="M679,-178.18C658.32,-177.67 636.63,-177.13 617.56,-176.66"/>
<polygon fill="#63b8ff" stroke="#63b8ff" points="678.77,-181.68 688.85,-178.43 678.94,-174.68 678.77,-181.68"/>
</a>
</g>
</g>
<!-- Node12 -->
<g id="Node000012" class="node">
<title>Node12</title>
<g id="a_Node000012"><a xlink:href="../../d5/d65/_turbulence___models_8cpp_abebbec3a464f4c0094447be488398fd7.html#abebbec3a464f4c0094447be488398fd7" target="_top" xlink:title="Apply turbulence wall boundary conditions.">
<polygon fill="white" stroke="#666666" points="831.88,-149.88 694.38,-149.88 694.38,-130.62 831.88,-130.62 831.88,-149.88"/>
<text text-anchor="middle" x="763.12" y="-136.38" font-family="Helvetica,sans-Serif" font-size="10.00">Apply_Turbulence_Wall_BC</text>
</a>
</g>
</g>
<!-- Node11&#45;&gt;Node12 -->
<g id="edge14_Node000011_Node000012" class="edge">
<title>Node11&#45;&gt;Node12</title>
<g id="a_edge14_Node000011_Node000012"><a xlink:title=" ">
<path fill="none" stroke="#63b8ff" d="M883.15,-139.6C866.67,-139.69 848.92,-139.79 832.28,-139.88"/>
<polygon fill="#63b8ff" stroke="#63b8ff" points="882.83,-143.1 892.81,-139.55 882.79,-136.1 882.83,-143.1"/>
</a>
</g>
</g>
<!-- Node12&#45;&gt;Node4 -->
<g id="edge15_Node000012_Node000004" class="edge">
<title>Node12&#45;&gt;Node4</title>
<g id="a_edge15_Node000012_Node000004"><a xlink:title=" ">
<path fill="none" stroke="#63b8ff" d="M692.84,-152.31C668.19,-156.6 640.75,-161.37 617.31,-165.45"/>
<polygon fill="#63b8ff" stroke="#63b8ff" points="693.21,-155.8 702.46,-150.63 692.01,-148.9 693.21,-155.8"/>
</a>
</g>
</g>
<!-- Node13&#45;&gt;Node4 -->
<g id="edge17_Node000013_Node000004" class="edge">
<title>Node13&#45;&gt;Node4</title>
<g id="a_edge17_Node000013_Node000004"><a xlink:title=" ">
<path fill="none" stroke="#63b8ff" d="M699.93,-243.28C693.56,-241.47 687.23,-239.46 681.25,-237.25 647.31,-224.73 610.69,-204.84 586.9,-190.97"/>
<polygon fill="#63b8ff" stroke="#63b8ff" points="698.63,-246.56 709.19,-245.77 700.44,-239.8 698.63,-246.56"/>
</a>
</g>
</g>
<!-- Node15 -->
<g id="Node000015" class="node">
<title>Node15</title>
<g id="a_Node000015"><a xlink:href="../../d5/d65/_turbulence___models_8cpp_ae3b78318b928719081e7653fc5c9e8dd.html#ae3b78318b928719081e7653fc5c9e8dd" target="_top" xlink:title="Initialize the specified turbulence model.">
<polygon fill="white" stroke="#666666" points="815.75,-30.5 710.5,-30.5 710.5,0 815.75,0 815.75,-30.5"/>
<text text-anchor="start" x="718.5" y="-17" font-family="Helvetica,sans-Serif" font-size="10.00">Initialize_Turbulence</text>
<text text-anchor="middle" x="763.12" y="-5.75" font-family="Helvetica,sans-Serif" font-size="10.00">_Model</text>
</a>
</g>
</g>
<!-- Node14&#45;&gt;Node15 -->
<g id="edge19_Node000014_Node000015" class="edge">
<title>Node14&#45;&gt;Node15</title>
<g id="a_edge19_Node000014_Node000015"><a xlink:title=" ">
<path fill="none" stroke="#63b8ff" d="M889.4,-15.25C865.88,-15.25 838.99,-15.25 816.17,-15.25"/>
<polygon fill="#63b8ff" stroke="#63b8ff" points="889.13,-18.75 899.13,-15.25 889.13,-11.75 889.13,-18.75"/>
</a>
</g>
</g>
<!-- Node16 -->
<g id="Node000016" class="node">
<title>Node16</title>
<g id="a_Node000016"><a xlink:href="../../d4/df3/_turbulence___integration_8cpp_aac3a7b5e7a77b6d40a58fe9fa561e7cd.html#aac3a7b5e7a77b6d40a58fe9fa561e7cd" target="_top" xlink:title="Setup turbulence model from configuration file.">
<polygon fill="white" stroke="#666666" points="621.25,-30.5 498.75,-30.5 498.75,0 621.25,0 621.25,-30.5"/>
<text text-anchor="start" x="506.75" y="-17" font-family="Helvetica,sans-Serif" font-size="10.00">Setup_Turbulence_From</text>
<text text-anchor="middle" x="560" y="-5.75" font-family="Helvetica,sans-Serif" font-size="10.00">_Config</text>
</a>
</g>
</g>
<!-- Node15&#45;&gt;Node16 -->
<g id="edge20_Node000015_Node000016" class="edge">
<title>Node15&#45;&gt;Node16</title>
<g id="a_edge20_Node000015_Node000016"><a xlink:title=" ">
<path fill="none" stroke="#63b8ff" d="M698.63,-15.25C673.94,-15.25 645.78,-15.25 621.39,-15.25"/>
<polygon fill="#63b8ff" stroke="#63b8ff" points="698.56,-18.75 708.56,-15.25 698.56,-11.75 698.56,-18.75"/>
</a>
</g>
</g>
<!-- Node17&#45;&gt;Node7 -->
<g id="edge22_Node000017_Node000007" class="edge">
<title>Node17&#45;&gt;Node7</title>
<g id="a_edge22_Node000017_Node000007"><a xlink:title=" ">
<path fill="none" stroke="#63b8ff" d="M482.61,-82.62C468.27,-83.44 453.32,-84.3 439.12,-85.11"/>
<polygon fill="#63b8ff" stroke="#63b8ff" points="482.66,-86.13 492.44,-82.06 482.26,-79.14 482.66,-86.13"/>
</a>
</g>
</g>
<!-- Node18&#45;&gt;Node5 -->
<g id="edge24_Node000018_Node000005" class="edge">
<title>Node18&#45;&gt;Node5</title>
<g id="a_edge24_Node000018_Node000005"><a xlink:title=" ">
<path fill="none" stroke="#63b8ff" d="M463.06,-130.25C448.83,-130.54 434.6,-130.84 421.61,-131.11"/>
<polygon fill="#63b8ff" stroke="#63b8ff" points="463.01,-133.75 472.94,-130.04 462.87,-126.75 463.01,-133.75"/>
</a>
</g>
</g>
</g>
</svg>
