<?xml version="1.0" encoding="UTF-8" standalone="no"?>
<!DOCTYPE svg PUBLIC "-//W3C//DTD SVG 1.1//EN"
 "http://www.w3.org/Graphics/SVG/1.1/DTD/svg11.dtd">
<!-- Generated by graphviz version 12.2.1 (20241206.2353)
 -->
<!-- Title: Calculate_KEpsilon_Epsilon_Diffusion Pages: 1 -->
<svg width="288pt" height="64pt"
 viewBox="0.00 0.00 288.25 64.25" xmlns="http://www.w3.org/2000/svg" xmlns:xlink="http://www.w3.org/1999/xlink">
<g id="graph0" class="graph" transform="scale(1 1) rotate(0) translate(4 60.25)">
<title>Calculate_KEpsilon_Epsilon_Diffusion</title>
<!-- Node1 -->
<g id="Node000001" class="node">
<title>Node1</title>
<g id="a_Node000001"><a xlink:title="Calculate diffusion term for epsilon&#45;equation.">
<polygon fill="#999999" stroke="#666666" points="101.5,-42.88 0,-42.88 0,-12.37 101.5,-12.37 101.5,-42.88"/>
<text text-anchor="start" x="8" y="-29.38" font-family="Helvetica,sans-Serif" font-size="10.00">Calculate_KEpsilon</text>
<text text-anchor="middle" x="50.75" y="-18.12" font-family="Helvetica,sans-Serif" font-size="10.00">_Epsilon_Diffusion</text>
</a>
</g>
</g>
<!-- Node2 -->
<g id="Node000002" class="node">
<title>Node2</title>
<g id="a_Node000002"><a xlink:href="../../da/d71/_k___epsilon___model_8cpp_a28fb4717a48a0d6aa546eca5701feebf.html#a28fb4717a48a0d6aa546eca5701feebf" target="_top" xlink:title="Calculate distance between two cell centers.">
<polygon fill="white" stroke="#666666" points="270.88,-56.25 146.88,-56.25 146.88,-37 270.88,-37 270.88,-56.25"/>
<text text-anchor="middle" x="208.88" y="-42.75" font-family="Helvetica,sans-Serif" font-size="10.00">Calculate_Cell_Distance</text>
</a>
</g>
</g>
<!-- Node1&#45;&gt;Node2 -->
<g id="edge1_Node000001_Node000002" class="edge">
<title>Node1&#45;&gt;Node2</title>
<g id="a_edge1_Node000001_Node000002"><a xlink:title=" ">
<path fill="none" stroke="#63b8ff" d="M101.58,-33.69C112.29,-34.99 123.82,-36.4 135.19,-37.78"/>
<polygon fill="#63b8ff" stroke="#63b8ff" points="134.63,-41.24 144.98,-38.97 135.47,-34.29 134.63,-41.24"/>
</a>
</g>
</g>
<!-- Node3 -->
<g id="Node000003" class="node">
<title>Node3</title>
<g id="a_Node000003"><a xlink:href="../../da/d71/_k___epsilon___model_8cpp_ab6081c548f15e5cff5f3a7f797726bd0.html#ab6081c548f15e5cff5f3a7f797726bd0" target="_top" xlink:title="Calculate laminar viscosity for a given cell.">
<polygon fill="white" stroke="#666666" points="280.25,-19.25 137.5,-19.25 137.5,0 280.25,0 280.25,-19.25"/>
<text text-anchor="middle" x="208.88" y="-5.75" font-family="Helvetica,sans-Serif" font-size="10.00">Calculate_Laminar_Viscosity</text>
</a>
</g>
</g>
<!-- Node1&#45;&gt;Node3 -->
<g id="edge2_Node000001_Node000003" class="edge">
<title>Node1&#45;&gt;Node3</title>
<g id="a_edge2_Node000001_Node000003"><a xlink:title=" ">
<path fill="none" stroke="#63b8ff" d="M101.58,-21.88C109.37,-20.98 117.6,-20.03 125.88,-19.08"/>
<polygon fill="#63b8ff" stroke="#63b8ff" points="126.14,-22.57 135.68,-17.95 125.34,-15.62 126.14,-22.57"/>
</a>
</g>
</g>
</g>
</svg>
