<?xml version="1.0" encoding="UTF-8" standalone="no"?>
<!DOCTYPE svg PUBLIC "-//W3C//DTD SVG 1.1//EN"
 "http://www.w3.org/Graphics/SVG/1.1/DTD/svg11.dtd">
<!-- Generated by graphviz version 12.2.1 (20241206.2353)
 -->
<!-- Title: Calculate_Strain_Rate_Magnitude Pages: 1 -->
<svg width="1335pt" height="501pt"
 viewBox="0.00 0.00 1334.50 501.23" xmlns="http://www.w3.org/2000/svg" xmlns:xlink="http://www.w3.org/1999/xlink">
<g id="graph0" class="graph" transform="scale(1 1) rotate(0) translate(4 497.23)">
<title>Calculate_Strain_Rate_Magnitude</title>
<!-- Node1 -->
<g id="Node000001" class="node">
<title>Node1</title>
<g id="a_Node000001"><a xlink:title="Calculate strain rate magnitude for a given cell.">
<polygon fill="#999999" stroke="#666666" points="1326.5,-302.99 1212.25,-302.99 1212.25,-272.49 1326.5,-272.49 1326.5,-302.99"/>
<text text-anchor="start" x="1220.25" y="-289.49" font-family="Helvetica,sans-Serif" font-size="10.00">Calculate_Strain_Rate</text>
<text text-anchor="middle" x="1269.38" y="-278.24" font-family="Helvetica,sans-Serif" font-size="10.00">_Magnitude</text>
</a>
</g>
</g>
<!-- Node2 -->
<g id="Node000002" class="node">
<title>Node2</title>
<g id="a_Node000002"><a xlink:href="../../da/d71/_k___epsilon___model_8cpp_a80bd2fbc9eee5585491d30c17bd73b77.html#a80bd2fbc9eee5585491d30c17bd73b77" target="_top" xlink:title="Calculate turbulent viscosity using K&#45;epsilon model.">
<polygon fill="white" stroke="#666666" points="1156.75,-358.99 1049.25,-358.99 1049.25,-328.49 1156.75,-328.49 1156.75,-358.99"/>
<text text-anchor="start" x="1057.25" y="-345.49" font-family="Helvetica,sans-Serif" font-size="10.00">Calculate_KEpsilon</text>
<text text-anchor="middle" x="1103" y="-334.24" font-family="Helvetica,sans-Serif" font-size="10.00">_Turbulent_Viscosity</text>
</a>
</g>
</g>
<!-- Node1&#45;&gt;Node2 -->
<g id="edge1_Node000001_Node000002" class="edge">
<title>Node1&#45;&gt;Node2</title>
<g id="a_edge1_Node000001_Node000002"><a xlink:title=" ">
<path fill="none" stroke="#63b8ff" d="M1211.31,-307.18C1191.32,-313.99 1169.14,-321.54 1150.16,-328.01"/>
<polygon fill="#63b8ff" stroke="#63b8ff" points="1212.38,-310.51 1220.72,-303.97 1210.12,-303.88 1212.38,-310.51"/>
</a>
</g>
</g>
<!-- Node20 -->
<g id="Node000020" class="node">
<title>Node20</title>
<g id="a_Node000020"><a xlink:href="../../da/db6/_k___omega___model_8cpp_acbb6eb3b6b7d60663920ef36f7442e10.html#acbb6eb3b6b7d60663920ef36f7442e10" target="_top" xlink:title="Calculate turbulent viscosity using K&#45;omega model.">
<polygon fill="white" stroke="#666666" points="1176.25,-278.99 1029.75,-278.99 1029.75,-248.49 1176.25,-248.49 1176.25,-278.99"/>
<text text-anchor="start" x="1037.75" y="-265.49" font-family="Helvetica,sans-Serif" font-size="10.00">Calculate_KOmega_Turbulent</text>
<text text-anchor="middle" x="1103" y="-254.24" font-family="Helvetica,sans-Serif" font-size="10.00">_Viscosity</text>
</a>
</g>
</g>
<!-- Node1&#45;&gt;Node20 -->
<g id="edge26_Node000001_Node000020" class="edge">
<title>Node1&#45;&gt;Node20</title>
<g id="a_edge26_Node000001_Node000020"><a xlink:title=" ">
<path fill="none" stroke="#63b8ff" d="M1200.46,-277.82C1192.6,-276.67 1184.56,-275.5 1176.64,-274.34"/>
<polygon fill="#63b8ff" stroke="#63b8ff" points="1199.91,-281.28 1210.31,-279.26 1200.92,-274.35 1199.91,-281.28"/>
</a>
</g>
</g>
<!-- Node3 -->
<g id="Node000003" class="node">
<title>Node3</title>
<g id="a_Node000003"><a xlink:href="../../da/d71/_k___epsilon___model_8cpp_a9b3a5337109b34589068a9866d726800.html#a9b3a5337109b34589068a9866d726800" target="_top" xlink:title="Apply inlet boundary conditions for K&#45;epsilon model.">
<polygon fill="white" stroke="#666666" points="972.75,-310.36 844.25,-310.36 844.25,-291.11 972.75,-291.11 972.75,-310.36"/>
<text text-anchor="middle" x="908.5" y="-296.86" font-family="Helvetica,sans-Serif" font-size="10.00">Apply_KEpsilon_Inlet_BC</text>
</a>
</g>
</g>
<!-- Node2&#45;&gt;Node3 -->
<g id="edge2_Node000002_Node000003" class="edge">
<title>Node2&#45;&gt;Node3</title>
<g id="a_edge2_Node000002_Node000003"><a xlink:title=" ">
<path fill="none" stroke="#63b8ff" d="M1037.99,-328.77C1023.45,-325.42 1008.08,-321.92 993.75,-318.74 981.92,-316.11 969.15,-313.34 957.2,-310.78"/>
<polygon fill="#63b8ff" stroke="#63b8ff" points="1036.9,-332.11 1047.43,-330.95 1038.48,-325.29 1036.9,-332.11"/>
</a>
</g>
</g>
<!-- Node10 -->
<g id="Node000010" class="node">
<title>Node10</title>
<g id="a_Node000010"><a xlink:href="../../da/d71/_k___epsilon___model_8cpp_a163b2ecb17217e9669102929a8f2f700.html#a163b2ecb17217e9669102929a8f2f700" target="_top" xlink:title="Apply outlet boundary conditions for K&#45;epsilon model.">
<polygon fill="white" stroke="#666666" points="976.5,-421.36 840.5,-421.36 840.5,-402.11 976.5,-402.11 976.5,-421.36"/>
<text text-anchor="middle" x="908.5" y="-407.86" font-family="Helvetica,sans-Serif" font-size="10.00">Apply_KEpsilon_Outlet_BC</text>
</a>
</g>
</g>
<!-- Node2&#45;&gt;Node10 -->
<g id="edge11_Node000002_Node000010" class="edge">
<title>Node2&#45;&gt;Node10</title>
<g id="a_edge11_Node000002_Node000010"><a xlink:title=" ">
<path fill="none" stroke="#63b8ff" d="M1062.8,-364.41C1042.61,-374.39 1017.33,-385.88 993.75,-393.74 984.67,-396.76 974.86,-399.4 965.26,-401.65"/>
<polygon fill="#63b8ff" stroke="#63b8ff" points="1064.14,-367.65 1071.5,-360.03 1061,-361.4 1064.14,-367.65"/>
</a>
</g>
</g>
<!-- Node12 -->
<g id="Node000012" class="node">
<title>Node12</title>
<g id="a_Node000012"><a xlink:href="../../da/d71/_k___epsilon___model_8cpp_aafaba955ffd8353debe7b95e753885d0.html#aafaba955ffd8353debe7b95e753885d0" target="_top" xlink:title="Apply wall functions for K&#45;epsilon model.">
<polygon fill="white" stroke="#666666" points="963,-235.99 854,-235.99 854,-205.49 963,-205.49 963,-235.99"/>
<text text-anchor="start" x="862" y="-222.49" font-family="Helvetica,sans-Serif" font-size="10.00">Apply_KEpsilon_Wall</text>
<text text-anchor="middle" x="908.5" y="-211.24" font-family="Helvetica,sans-Serif" font-size="10.00">_Functions</text>
</a>
</g>
</g>
<!-- Node2&#45;&gt;Node12 -->
<g id="edge14_Node000002_Node000012" class="edge">
<title>Node2&#45;&gt;Node12</title>
<g id="a_edge14_Node000002_Node000012"><a xlink:title=" ">
<path fill="none" stroke="#63b8ff" d="M1070.08,-321.32C1057.06,-311.59 1042.17,-299.69 1029.75,-287.74 1011.8,-270.45 1014.66,-258.3 993.75,-244.74 984.56,-238.77 973.88,-234.27 963.27,-230.87"/>
<polygon fill="#63b8ff" stroke="#63b8ff" points="1067.82,-324 1077.96,-327.09 1071.97,-318.36 1067.82,-324"/>
</a>
</g>
</g>
<!-- Node14 -->
<g id="Node000014" class="node">
<title>Node14</title>
<g id="a_Node000014"><a xlink:href="../../d5/d65/_turbulence___models_8cpp_a88b199d9b9d00896bc2ed690e14f8ce6.html#a88b199d9b9d00896bc2ed690e14f8ce6" target="_top" xlink:title="Apply turbulence symmetry boundary conditions.">
<polygon fill="white" stroke="#666666" points="990.38,-384.36 826.62,-384.36 826.62,-365.11 990.38,-365.11 990.38,-384.36"/>
<text text-anchor="middle" x="908.5" y="-370.86" font-family="Helvetica,sans-Serif" font-size="10.00">Apply_Turbulence_Symmetry_BC</text>
</a>
</g>
</g>
<!-- Node2&#45;&gt;Node14 -->
<g id="edge17_Node000002_Node000014" class="edge">
<title>Node2&#45;&gt;Node14</title>
<g id="a_edge17_Node000002_Node000014"><a xlink:title=" ">
<path fill="none" stroke="#63b8ff" d="M1037.78,-354.08C1016.7,-357.47 993.31,-361.24 972.34,-364.62"/>
<polygon fill="#63b8ff" stroke="#63b8ff" points="1038.08,-357.57 1047.39,-352.53 1036.97,-350.66 1038.08,-357.57"/>
</a>
</g>
</g>
<!-- Node15 -->
<g id="Node000015" class="node">
<title>Node15</title>
<g id="a_Node000015"><a xlink:href="../../da/d71/_k___epsilon___model_8cpp_a2745d49ba112386d4f3e7aea7752d415.html#a2745d49ba112386d4f3e7aea7752d415" target="_top" xlink:title="Initialize K&#45;epsilon model variables for all cells.">
<polygon fill="white" stroke="#666666" points="956.62,-149.99 860.38,-149.99 860.38,-119.49 956.62,-119.49 956.62,-149.99"/>
<text text-anchor="start" x="868.38" y="-136.49" font-family="Helvetica,sans-Serif" font-size="10.00">Initialize_KEpsilon</text>
<text text-anchor="middle" x="908.5" y="-125.24" font-family="Helvetica,sans-Serif" font-size="10.00">_Variables</text>
</a>
</g>
</g>
<!-- Node2&#45;&gt;Node15 -->
<g id="edge19_Node000002_Node000015" class="edge">
<title>Node2&#45;&gt;Node15</title>
<g id="a_edge19_Node000002_Node000015"><a xlink:title=" ">
<path fill="none" stroke="#63b8ff" d="M1064.52,-321.69C1051.88,-312.61 1038.71,-301.07 1029.75,-287.74 996.54,-238.33 1035.73,-200.94 993.75,-158.74 983.88,-148.81 970.23,-142.93 956.78,-139.45"/>
<polygon fill="#63b8ff" stroke="#63b8ff" points="1062.53,-324.57 1072.77,-327.3 1066.47,-318.78 1062.53,-324.57"/>
</a>
</g>
</g>
<!-- Node18 -->
<g id="Node000018" class="node">
<title>Node18</title>
<g id="a_Node000018"><a xlink:href="../../da/d71/_k___epsilon___model_8cpp_a1f8b4153dd164adfeb34b737d9a3392c.html#a1f8b4153dd164adfeb34b737d9a3392c" target="_top" xlink:title="Solve K&#45;epsilon transport equations using explicit time integration.">
<polygon fill="white" stroke="#666666" points="606.25,-412.99 474.75,-412.99 474.75,-382.49 606.25,-382.49 606.25,-412.99"/>
<text text-anchor="start" x="482.75" y="-399.49" font-family="Helvetica,sans-Serif" font-size="10.00">Solve_KEpsilon_Transport</text>
<text text-anchor="middle" x="540.5" y="-388.24" font-family="Helvetica,sans-Serif" font-size="10.00">_Equations</text>
</a>
</g>
</g>
<!-- Node2&#45;&gt;Node18 -->
<g id="edge22_Node000002_Node000018" class="edge">
<title>Node2&#45;&gt;Node18</title>
<g id="a_edge22_Node000002_Node000018"><a xlink:title=" ">
<path fill="none" stroke="#63b8ff" d="M1088.79,-369.06C1071.54,-399.06 1038.2,-447.53 993.75,-467.74 846.01,-534.88 646.13,-450.32 571.36,-413.39"/>
<polygon fill="#63b8ff" stroke="#63b8ff" points="1091.69,-371.06 1093.48,-360.61 1085.57,-367.66 1091.69,-371.06"/>
</a>
</g>
</g>
<!-- Node19 -->
<g id="Node000019" class="node">
<title>Node19</title>
<g id="a_Node000019"><a xlink:href="../../d4/df3/_turbulence___integration_8cpp_a6f5c4a828a942de7bc3fe7b4f035154e.html#a6f5c4a828a942de7bc3fe7b4f035154e" target="_top" xlink:title="Update turbulence variables using RK4 method.">
<polygon fill="white" stroke="#666666" points="993.75,-458.36 823.25,-458.36 823.25,-439.11 993.75,-439.11 993.75,-458.36"/>
<text text-anchor="middle" x="908.5" y="-444.86" font-family="Helvetica,sans-Serif" font-size="10.00">Update_Turbulence_Variables_RK4</text>
</a>
</g>
</g>
<!-- Node2&#45;&gt;Node19 -->
<g id="edge24_Node000002_Node000019" class="edge">
<title>Node2&#45;&gt;Node19</title>
<g id="a_edge24_Node000002_Node000019"><a xlink:title=" ">
<path fill="none" stroke="#63b8ff" d="M1079.41,-367.26C1058.91,-387.19 1026.9,-414.98 993.75,-430.74 987.13,-433.88 979.96,-436.48 972.69,-438.63"/>
<polygon fill="#63b8ff" stroke="#63b8ff" points="1081.76,-369.85 1086.38,-360.32 1076.83,-364.89 1081.76,-369.85"/>
</a>
</g>
</g>
<!-- Node4 -->
<g id="Node000004" class="node">
<title>Node4</title>
<g id="a_Node000004"><a xlink:href="../../d5/d65/_turbulence___models_8cpp_a134e165674f67daba41b38ff2c1ce4c9.html#a134e165674f67daba41b38ff2c1ce4c9" target="_top" xlink:title="Apply turbulence inlet boundary conditions.">
<polygon fill="white" stroke="#666666" points="783.5,-291.36 646,-291.36 646,-272.11 783.5,-272.11 783.5,-291.36"/>
<text text-anchor="middle" x="714.75" y="-277.86" font-family="Helvetica,sans-Serif" font-size="10.00">Apply_Turbulence_Inlet_BC</text>
</a>
</g>
</g>
<!-- Node3&#45;&gt;Node4 -->
<g id="edge3_Node000003_Node000004" class="edge">
<title>Node3&#45;&gt;Node4</title>
<g id="a_edge3_Node000003_Node000004"><a xlink:title=" ">
<path fill="none" stroke="#63b8ff" d="M832.88,-293.34C816.7,-291.74 799.68,-290.05 783.77,-288.48"/>
<polygon fill="#63b8ff" stroke="#63b8ff" points="832.11,-296.78 842.41,-294.29 832.8,-289.82 832.11,-296.78"/>
</a>
</g>
</g>
<!-- Node5 -->
<g id="Node000005" class="node">
<title>Node5</title>
<g id="a_Node000005"><a xlink:href="../../d5/d65/_turbulence___models_8cpp_a1158808d85e3e5c5ec0b6cc6b7462a27.html#a1158808d85e3e5c5ec0b6cc6b7462a27" target="_top" xlink:title="Apply turbulence boundary conditions to all boundary cells.">
<polygon fill="white" stroke="#666666" points="597.62,-315.99 483.38,-315.99 483.38,-285.49 597.62,-285.49 597.62,-315.99"/>
<text text-anchor="start" x="491.38" y="-302.49" font-family="Helvetica,sans-Serif" font-size="10.00">Apply_All_Turbulence</text>
<text text-anchor="middle" x="540.5" y="-291.24" font-family="Helvetica,sans-Serif" font-size="10.00">_Boundary_Conditions</text>
</a>
</g>
</g>
<!-- Node4&#45;&gt;Node5 -->
<g id="edge4_Node000004_Node000005" class="edge">
<title>Node4&#45;&gt;Node5</title>
<g id="a_edge4_Node000004_Node000005"><a xlink:title=" ">
<path fill="none" stroke="#63b8ff" d="M634.45,-290.48C622.15,-291.84 609.66,-293.22 597.99,-294.5"/>
<polygon fill="#63b8ff" stroke="#63b8ff" points="634.61,-293.99 644.17,-289.41 633.84,-287.03 634.61,-293.99"/>
</a>
</g>
</g>
<!-- Node6 -->
<g id="Node000006" class="node">
<title>Node6</title>
<g id="a_Node000006"><a xlink:href="../../d4/df3/_turbulence___integration_8cpp_a5be3d179089fc076bb68c61f7cd17b7a.html#a5be3d179089fc076bb68c61f7cd17b7a" target="_top" xlink:title="Runge&#45;Kutta method with turbulence model integration.">
<polygon fill="white" stroke="#666666" points="421.12,-358.99 310.62,-358.99 310.62,-328.49 421.12,-328.49 421.12,-358.99"/>
<text text-anchor="start" x="318.62" y="-345.49" font-family="Helvetica,sans-Serif" font-size="10.00">Runge_Kutta_Method</text>
<text text-anchor="middle" x="365.88" y="-334.24" font-family="Helvetica,sans-Serif" font-size="10.00">_With_Turbulence</text>
</a>
</g>
</g>
<!-- Node5&#45;&gt;Node6 -->
<g id="edge5_Node000005_Node000006" class="edge">
<title>Node5&#45;&gt;Node6</title>
<g id="a_edge5_Node000005_Node000006"><a xlink:title=" ">
<path fill="none" stroke="#63b8ff" d="M472.12,-317.52C455.34,-321.7 437.55,-326.13 421.47,-330.14"/>
<polygon fill="#63b8ff" stroke="#63b8ff" points="472.65,-320.99 481.51,-315.18 470.96,-314.2 472.65,-320.99"/>
</a>
</g>
</g>
<!-- Node7 -->
<g id="Node000007" class="node">
<title>Node7</title>
<g id="a_Node000007"><a xlink:href="../../d4/df3/_turbulence___integration_8cpp_a564537a29550f0d8ec11e8ef76cd2b3a.html#a564537a29550f0d8ec11e8ef76cd2b3a" target="_top" xlink:title="Modified viscous solver with turbulence model integration.">
<polygon fill="white" stroke="#666666" points="109.75,-315.99 0,-315.99 0,-285.49 109.75,-285.49 109.75,-315.99"/>
<text text-anchor="start" x="8" y="-302.49" font-family="Helvetica,sans-Serif" font-size="10.00">Viscous_Solver_With</text>
<text text-anchor="middle" x="54.88" y="-291.24" font-family="Helvetica,sans-Serif" font-size="10.00">_Turbulence</text>
</a>
</g>
</g>
<!-- Node5&#45;&gt;Node7 -->
<g id="edge10_Node000005_Node000007" class="edge">
<title>Node5&#45;&gt;Node7</title>
<g id="a_edge10_Node000005_Node000007"><a xlink:title=" ">
<path fill="none" stroke="#63b8ff" d="M471.67,-300.74C374.81,-300.74 198.81,-300.74 110.09,-300.74"/>
<polygon fill="#63b8ff" stroke="#63b8ff" points="471.56,-304.24 481.56,-300.74 471.56,-297.24 471.56,-304.24"/>
</a>
</g>
</g>
<!-- Node8 -->
<g id="Node000008" class="node">
<title>Node8</title>
<g id="a_Node000008"><a xlink:href="../../d5/d65/_turbulence___models_8cpp_afb9159b9dcb0534a88f1df9496ece4ad.html#afb9159b9dcb0534a88f1df9496ece4ad" target="_top" xlink:title="Update turbulence variables for all cells.">
<polygon fill="white" stroke="#666666" points="438.75,-267.36 293,-267.36 293,-248.11 438.75,-248.11 438.75,-267.36"/>
<text text-anchor="middle" x="365.88" y="-253.86" font-family="Helvetica,sans-Serif" font-size="10.00">Update_Turbulence_Variables</text>
</a>
</g>
</g>
<!-- Node5&#45;&gt;Node8 -->
<g id="edge7_Node000005_Node000008" class="edge">
<title>Node5&#45;&gt;Node8</title>
<g id="a_edge7_Node000005_Node000008"><a xlink:title=" ">
<path fill="none" stroke="#63b8ff" d="M472.07,-283.94C450.21,-278.49 426.66,-272.63 407.39,-267.83"/>
<polygon fill="#63b8ff" stroke="#63b8ff" points="470.96,-287.27 481.51,-286.29 472.65,-280.48 470.96,-287.27"/>
</a>
</g>
</g>
<!-- Node6&#45;&gt;Node7 -->
<g id="edge6_Node000006_Node000007" class="edge">
<title>Node6&#45;&gt;Node7</title>
<g id="a_edge6_Node000006_Node000007"><a xlink:title=" ">
<path fill="none" stroke="#63b8ff" d="M299.04,-335.42C255.5,-329.83 197.18,-322.14 145.75,-314.74 134.18,-313.07 121.79,-311.2 110.02,-309.38"/>
<polygon fill="#63b8ff" stroke="#63b8ff" points="298.48,-338.88 308.85,-336.68 299.37,-331.94 298.48,-338.88"/>
</a>
</g>
</g>
<!-- Node9 -->
<g id="Node000009" class="node">
<title>Node9</title>
<g id="a_Node000009"><a xlink:href="../../d4/df3/_turbulence___integration_8cpp_ab169036ed9f440a82e87aa687850b80e.html#ab169036ed9f440a82e87aa687850b80e" target="_top" xlink:title="Explicit method with turbulence model integration.">
<polygon fill="white" stroke="#666666" points="257,-272.99 145.75,-272.99 145.75,-242.49 257,-242.49 257,-272.99"/>
<text text-anchor="start" x="153.75" y="-259.49" font-family="Helvetica,sans-Serif" font-size="10.00">Explicit_Method_With</text>
<text text-anchor="middle" x="201.38" y="-248.24" font-family="Helvetica,sans-Serif" font-size="10.00">_Turbulence</text>
</a>
</g>
</g>
<!-- Node8&#45;&gt;Node9 -->
<g id="edge8_Node000008_Node000009" class="edge">
<title>Node8&#45;&gt;Node9</title>
<g id="a_edge8_Node000008_Node000009"><a xlink:title=" ">
<path fill="none" stroke="#63b8ff" d="M281.2,-257.74C273.1,-257.74 265.02,-257.74 257.3,-257.74"/>
<polygon fill="#63b8ff" stroke="#63b8ff" points="281.14,-261.24 291.14,-257.74 281.14,-254.24 281.14,-261.24"/>
</a>
</g>
</g>
<!-- Node9&#45;&gt;Node7 -->
<g id="edge9_Node000009_Node000007" class="edge">
<title>Node9&#45;&gt;Node7</title>
<g id="a_edge9_Node000009_Node000007"><a xlink:title=" ">
<path fill="none" stroke="#63b8ff" d="M136.87,-276.63C127.45,-279.44 117.83,-282.3 108.65,-285.03"/>
<polygon fill="#63b8ff" stroke="#63b8ff" points="137.76,-280.02 146.35,-273.81 135.76,-273.31 137.76,-280.02"/>
</a>
</g>
</g>
<!-- Node11 -->
<g id="Node000011" class="node">
<title>Node11</title>
<g id="a_Node000011"><a xlink:href="../../d5/d65/_turbulence___models_8cpp_a3b4ea5d29901515353257738e5b15b13.html#a3b4ea5d29901515353257738e5b15b13" target="_top" xlink:title="Apply turbulence outlet boundary conditions.">
<polygon fill="white" stroke="#666666" points="787.25,-367.36 642.25,-367.36 642.25,-348.11 787.25,-348.11 787.25,-367.36"/>
<text text-anchor="middle" x="714.75" y="-353.86" font-family="Helvetica,sans-Serif" font-size="10.00">Apply_Turbulence_Outlet_BC</text>
</a>
</g>
</g>
<!-- Node10&#45;&gt;Node11 -->
<g id="edge12_Node000010_Node000011" class="edge">
<title>Node10&#45;&gt;Node11</title>
<g id="a_edge12_Node000010_Node000011"><a xlink:title=" ">
<path fill="none" stroke="#63b8ff" d="M844.96,-399.2C837.61,-397.48 830.24,-395.65 823.25,-393.74 795.53,-386.16 764.46,-375.52 742.88,-367.77"/>
<polygon fill="#63b8ff" stroke="#63b8ff" points="844.04,-402.58 854.56,-401.37 845.58,-395.75 844.04,-402.58"/>
</a>
</g>
</g>
<!-- Node11&#45;&gt;Node5 -->
<g id="edge13_Node000011_Node000005" class="edge">
<title>Node11&#45;&gt;Node5</title>
<g id="a_edge13_Node000011_Node000005"><a xlink:title=" ">
<path fill="none" stroke="#63b8ff" d="M672.67,-344.14C647.46,-335.8 615.08,-325.08 588.8,-316.39"/>
<polygon fill="#63b8ff" stroke="#63b8ff" points="671.32,-347.38 681.91,-347.2 673.52,-340.74 671.32,-347.38"/>
</a>
</g>
</g>
<!-- Node13 -->
<g id="Node000013" class="node">
<title>Node13</title>
<g id="a_Node000013"><a xlink:href="../../d5/d65/_turbulence___models_8cpp_abebbec3a464f4c0094447be488398fd7.html#abebbec3a464f4c0094447be488398fd7" target="_top" xlink:title="Apply turbulence wall boundary conditions.">
<polygon fill="white" stroke="#666666" points="783.5,-230.36 646,-230.36 646,-211.11 783.5,-211.11 783.5,-230.36"/>
<text text-anchor="middle" x="714.75" y="-216.86" font-family="Helvetica,sans-Serif" font-size="10.00">Apply_Turbulence_Wall_BC</text>
</a>
</g>
</g>
<!-- Node12&#45;&gt;Node13 -->
<g id="edge15_Node000012_Node000013" class="edge">
<title>Node12&#45;&gt;Node13</title>
<g id="a_edge15_Node000012_Node000013"><a xlink:title=" ">
<path fill="none" stroke="#63b8ff" d="M842.15,-220.74C823.4,-220.74 802.91,-220.74 783.99,-220.74"/>
<polygon fill="#63b8ff" stroke="#63b8ff" points="842.06,-224.24 852.06,-220.74 842.06,-217.24 842.06,-224.24"/>
</a>
</g>
</g>
<!-- Node13&#45;&gt;Node5 -->
<g id="edge16_Node000013_Node000005" class="edge">
<title>Node13&#45;&gt;Node5</title>
<g id="a_edge16_Node000013_Node000005"><a xlink:title=" ">
<path fill="none" stroke="#63b8ff" d="M681.84,-235.56C651.49,-249.65 606,-270.78 575.1,-285.13"/>
<polygon fill="#63b8ff" stroke="#63b8ff" points="683.31,-238.73 690.91,-231.34 680.37,-232.38 683.31,-238.73"/>
</a>
</g>
</g>
<!-- Node14&#45;&gt;Node5 -->
<g id="edge18_Node000014_Node000005" class="edge">
<title>Node14&#45;&gt;Node5</title>
<g id="a_edge18_Node000014_Node000005"><a xlink:title=" ">
<path fill="none" stroke="#63b8ff" d="M839.84,-361.87C834.18,-360.31 828.58,-358.6 823.25,-356.74 806.37,-350.82 804.29,-344.17 787.25,-338.74 724.11,-318.61 648.33,-308.96 597.78,-304.45"/>
<polygon fill="#63b8ff" stroke="#63b8ff" points="838.74,-365.2 849.29,-364.3 840.48,-358.42 838.74,-365.2"/>
</a>
</g>
</g>
<!-- Node16 -->
<g id="Node000016" class="node">
<title>Node16</title>
<g id="a_Node000016"><a xlink:href="../../d5/d65/_turbulence___models_8cpp_ae3b78318b928719081e7653fc5c9e8dd.html#ae3b78318b928719081e7653fc5c9e8dd" target="_top" xlink:title="Initialize the specified turbulence model.">
<polygon fill="white" stroke="#666666" points="767.38,-149.99 662.12,-149.99 662.12,-119.49 767.38,-119.49 767.38,-149.99"/>
<text text-anchor="start" x="670.12" y="-136.49" font-family="Helvetica,sans-Serif" font-size="10.00">Initialize_Turbulence</text>
<text text-anchor="middle" x="714.75" y="-125.24" font-family="Helvetica,sans-Serif" font-size="10.00">_Model</text>
</a>
</g>
</g>
<!-- Node15&#45;&gt;Node16 -->
<g id="edge20_Node000015_Node000016" class="edge">
<title>Node15&#45;&gt;Node16</title>
<g id="a_edge20_Node000015_Node000016"><a xlink:title=" ">
<path fill="none" stroke="#63b8ff" d="M848.91,-134.74C822.98,-134.74 792.75,-134.74 767.65,-134.74"/>
<polygon fill="#63b8ff" stroke="#63b8ff" points="848.59,-138.24 858.59,-134.74 848.59,-131.24 848.59,-138.24"/>
</a>
</g>
</g>
<!-- Node17 -->
<g id="Node000017" class="node">
<title>Node17</title>
<g id="a_Node000017"><a xlink:href="../../d4/df3/_turbulence___integration_8cpp_aac3a7b5e7a77b6d40a58fe9fa561e7cd.html#aac3a7b5e7a77b6d40a58fe9fa561e7cd" target="_top" xlink:title="Setup turbulence model from configuration file.">
<polygon fill="white" stroke="#666666" points="601.75,-149.99 479.25,-149.99 479.25,-119.49 601.75,-119.49 601.75,-149.99"/>
<text text-anchor="start" x="487.25" y="-136.49" font-family="Helvetica,sans-Serif" font-size="10.00">Setup_Turbulence_From</text>
<text text-anchor="middle" x="540.5" y="-125.24" font-family="Helvetica,sans-Serif" font-size="10.00">_Config</text>
</a>
</g>
</g>
<!-- Node16&#45;&gt;Node17 -->
<g id="edge21_Node000016_Node000017" class="edge">
<title>Node16&#45;&gt;Node17</title>
<g id="a_edge21_Node000016_Node000017"><a xlink:title=" ">
<path fill="none" stroke="#63b8ff" d="M650.77,-134.74C634.93,-134.74 617.97,-134.74 602.24,-134.74"/>
<polygon fill="#63b8ff" stroke="#63b8ff" points="650.56,-138.24 660.56,-134.74 650.56,-131.24 650.56,-138.24"/>
</a>
</g>
</g>
<!-- Node18&#45;&gt;Node8 -->
<g id="edge23_Node000018_Node000008" class="edge">
<title>Node18&#45;&gt;Node8</title>
<g id="a_edge23_Node000018_Node000008"><a xlink:title=" ">
<path fill="none" stroke="#63b8ff" d="M511.81,-375.27C473.75,-344.41 406.88,-290.18 379.3,-267.82"/>
<polygon fill="#63b8ff" stroke="#63b8ff" points="509.22,-377.68 519.19,-381.26 513.63,-372.25 509.22,-377.68"/>
</a>
</g>
</g>
<!-- Node19&#45;&gt;Node6 -->
<g id="edge25_Node000019_Node000006" class="edge">
<title>Node19&#45;&gt;Node6</title>
<g id="a_edge25_Node000019_Node000006"><a xlink:title=" ">
<path fill="none" stroke="#63b8ff" d="M811.72,-457.73C721.94,-462.72 585.35,-461.38 474.75,-421.74 437.55,-408.4 401.91,-378.08 382.35,-359.41"/>
<polygon fill="#63b8ff" stroke="#63b8ff" points="811.7,-461.23 821.47,-457.14 811.28,-454.25 811.7,-461.23"/>
</a>
</g>
</g>
<!-- Node20&#45;&gt;Node14 -->
<g id="edge33_Node000020_Node000014" class="edge">
<title>Node20&#45;&gt;Node14</title>
<g id="a_edge33_Node000020_Node000014"><a xlink:title=" ">
<path fill="none" stroke="#63b8ff" d="M1071.09,-286.19C1058,-296.08 1042.8,-308.08 1029.75,-319.74 1012.64,-335.02 1013.83,-345.64 993.75,-356.74 987.99,-359.92 981.72,-362.54 975.29,-364.7"/>
<polygon fill="#63b8ff" stroke="#63b8ff" points="1073.06,-289.09 1078.98,-280.3 1068.87,-283.48 1073.06,-289.09"/>
</a>
</g>
</g>
<!-- Node20&#45;&gt;Node19 -->
<g id="edge41_Node000020_Node000019" class="edge">
<title>Node20&#45;&gt;Node19</title>
<g id="a_edge41_Node000020_Node000019"><a xlink:title=" ">
<path fill="none" stroke="#63b8ff" d="M1065.5,-285.5C1052.68,-294.68 1039.15,-306.36 1029.75,-319.74 999.93,-362.17 1032.26,-396 993.75,-430.74 990.31,-433.84 986.46,-436.46 982.36,-438.66"/>
<polygon fill="#63b8ff" stroke="#63b8ff" points="1067.09,-288.65 1073.38,-280.12 1063.15,-282.87 1067.09,-288.65"/>
</a>
</g>
</g>
<!-- Node21 -->
<g id="Node000021" class="node">
<title>Node21</title>
<g id="a_Node000021"><a xlink:href="../../da/db6/_k___omega___model_8cpp_a971ae07e8300e4255c309a8a0f7b7f63.html#a971ae07e8300e4255c309a8a0f7b7f63" target="_top" xlink:title="Apply inlet boundary conditions for K&#45;omega model.">
<polygon fill="white" stroke="#666666" points="972.38,-273.36 844.62,-273.36 844.62,-254.11 972.38,-254.11 972.38,-273.36"/>
<text text-anchor="middle" x="908.5" y="-259.86" font-family="Helvetica,sans-Serif" font-size="10.00">Apply_KOmega_Inlet_BC</text>
</a>
</g>
</g>
<!-- Node20&#45;&gt;Node21 -->
<g id="edge27_Node000020_Node000021" class="edge">
<title>Node20&#45;&gt;Node21</title>
<g id="a_edge27_Node000020_Node000021"><a xlink:title=" ">
<path fill="none" stroke="#63b8ff" d="M1018,-263.74C1002.83,-263.74 987.24,-263.74 972.78,-263.74"/>
<polygon fill="#63b8ff" stroke="#63b8ff" points="1017.98,-267.24 1027.98,-263.74 1017.98,-260.24 1017.98,-267.24"/>
</a>
</g>
</g>
<!-- Node22 -->
<g id="Node000022" class="node">
<title>Node22</title>
<g id="a_Node000022"><a xlink:href="../../da/db6/_k___omega___model_8cpp_ae1f0a417766f5ee021c7d8cc8b328878.html#ae1f0a417766f5ee021c7d8cc8b328878" target="_top" xlink:title="Apply outlet boundary conditions for K&#45;omega model.">
<polygon fill="white" stroke="#666666" points="976.12,-347.36 840.88,-347.36 840.88,-328.11 976.12,-328.11 976.12,-347.36"/>
<text text-anchor="middle" x="908.5" y="-333.86" font-family="Helvetica,sans-Serif" font-size="10.00">Apply_KOmega_Outlet_BC</text>
</a>
</g>
</g>
<!-- Node20&#45;&gt;Node22 -->
<g id="edge29_Node000020_Node000022" class="edge">
<title>Node20&#45;&gt;Node22</title>
<g id="a_edge29_Node000020_Node000022"><a xlink:title=" ">
<path fill="none" stroke="#63b8ff" d="M1066.74,-285.03C1046.08,-296.72 1019.14,-310.64 993.75,-319.74 985.16,-322.81 975.88,-325.44 966.73,-327.67"/>
<polygon fill="#63b8ff" stroke="#63b8ff" points="1068.4,-288.11 1075.32,-280.09 1064.91,-282.05 1068.4,-288.11"/>
</a>
</g>
</g>
<!-- Node23 -->
<g id="Node000023" class="node">
<title>Node23</title>
<g id="a_Node000023"><a xlink:href="../../da/db6/_k___omega___model_8cpp_a30e02e22d1eda085cbd12bd4a60746c9.html#a30e02e22d1eda085cbd12bd4a60746c9" target="_top" xlink:title="Apply wall functions for K&#45;omega model.">
<polygon fill="white" stroke="#666666" points="986.62,-187.36 830.38,-187.36 830.38,-168.11 986.62,-168.11 986.62,-187.36"/>
<text text-anchor="middle" x="908.5" y="-173.86" font-family="Helvetica,sans-Serif" font-size="10.00">Apply_KOmega_Wall_Functions</text>
</a>
</g>
</g>
<!-- Node20&#45;&gt;Node23 -->
<g id="edge31_Node000020_Node000023" class="edge">
<title>Node20&#45;&gt;Node23</title>
<g id="a_edge31_Node000020_Node000023"><a xlink:title=" ">
<path fill="none" stroke="#63b8ff" d="M1072.26,-241.55C1051.29,-226.88 1022.01,-208.29 993.75,-196.74 985.01,-193.16 975.46,-190.2 966.04,-187.76"/>
<polygon fill="#63b8ff" stroke="#63b8ff" points="1070.15,-244.35 1080.33,-247.3 1074.22,-238.65 1070.15,-244.35"/>
</a>
</g>
</g>
<!-- Node24 -->
<g id="Node000024" class="node">
<title>Node24</title>
<g id="a_Node000024"><a xlink:href="../../da/db6/_k___omega___model_8cpp_ab515206bf252d3272ff152fc77f231e0.html#ab515206bf252d3272ff152fc77f231e0" target="_top" xlink:title="Initialize K&#45;omega model variables for all cells.">
<polygon fill="white" stroke="#666666" points="978.75,-101.36 838.25,-101.36 838.25,-82.11 978.75,-82.11 978.75,-101.36"/>
<text text-anchor="middle" x="908.5" y="-87.86" font-family="Helvetica,sans-Serif" font-size="10.00">Initialize_KOmega_Variables</text>
</a>
</g>
</g>
<!-- Node20&#45;&gt;Node24 -->
<g id="edge34_Node000020_Node000024" class="edge">
<title>Node20&#45;&gt;Node24</title>
<g id="a_edge34_Node000020_Node000024"><a xlink:title=" ">
<path fill="none" stroke="#63b8ff" d="M1091.08,-238.07C1075.01,-203.51 1041.62,-142.68 993.75,-110.74 988.26,-107.07 982.17,-104.11 975.85,-101.71"/>
<polygon fill="#63b8ff" stroke="#63b8ff" points="1087.77,-239.23 1095.07,-246.91 1094.15,-236.36 1087.77,-239.23"/>
</a>
</g>
</g>
<!-- Node25 -->
<g id="Node000025" class="node">
<title>Node25</title>
<g id="a_Node000025"><a xlink:href="../../da/db6/_k___omega___model_8cpp_a22e64f94144a50c6cbafc52e88da1a2d.html#a22e64f94144a50c6cbafc52e88da1a2d" target="_top" xlink:title="Solve K&#45;omega transport equations.">
<polygon fill="white" stroke="#666666" points="780.12,-63.99 649.38,-63.99 649.38,-33.49 780.12,-33.49 780.12,-63.99"/>
<text text-anchor="start" x="657.38" y="-50.49" font-family="Helvetica,sans-Serif" font-size="10.00">Solve_KOmega_Transport</text>
<text text-anchor="middle" x="714.75" y="-39.24" font-family="Helvetica,sans-Serif" font-size="10.00">_Equations</text>
</a>
</g>
</g>
<!-- Node20&#45;&gt;Node25 -->
<g id="edge36_Node000020_Node000025" class="edge">
<title>Node20&#45;&gt;Node25</title>
<g id="a_edge36_Node000020_Node000025"><a xlink:title=" ">
<path fill="none" stroke="#63b8ff" d="M1099.09,-236.86C1091.88,-185.13 1068,-72.61 993.75,-24.74 918.43,23.83 806.79,-10.33 750.66,-33.01"/>
<polygon fill="#63b8ff" stroke="#63b8ff" points="1095.59,-237.09 1100.33,-246.56 1102.53,-236.2 1095.59,-237.09"/>
</a>
</g>
</g>
<!-- Node26 -->
<g id="Node000026" class="node">
<title>Node26</title>
<g id="a_Node000026"><a xlink:href="../../da/db6/_k___omega___model_8cpp_acfc6e921fa69c7382cb5500e664b04ea.html#acfc6e921fa69c7382cb5500e664b04ea" target="_top" xlink:title="Solve SST K&#45;omega transport equations.">
<polygon fill="white" stroke="#666666" points="964.5,-63.99 852.5,-63.99 852.5,-33.49 964.5,-33.49 964.5,-63.99"/>
<text text-anchor="start" x="860.5" y="-50.49" font-family="Helvetica,sans-Serif" font-size="10.00">Solve_SST_Transport</text>
<text text-anchor="middle" x="908.5" y="-39.24" font-family="Helvetica,sans-Serif" font-size="10.00">_Equations</text>
</a>
</g>
</g>
<!-- Node20&#45;&gt;Node26 -->
<g id="edge38_Node000020_Node000026" class="edge">
<title>Node20&#45;&gt;Node26</title>
<g id="a_edge38_Node000020_Node000026"><a xlink:title=" ">
<path fill="none" stroke="#63b8ff" d="M1094.26,-237.36C1080.77,-196 1048.95,-116.14 993.75,-72.74 985.26,-66.06 975,-61.24 964.6,-57.76"/>
<polygon fill="#63b8ff" stroke="#63b8ff" points="1090.87,-238.24 1097.21,-246.73 1097.55,-236.14 1090.87,-238.24"/>
</a>
</g>
</g>
<!-- Node21&#45;&gt;Node4 -->
<g id="edge28_Node000021_Node000004" class="edge">
<title>Node21&#45;&gt;Node4</title>
<g id="a_edge28_Node000021_Node000004"><a xlink:title=" ">
<path fill="none" stroke="#63b8ff" d="M833.13,-270.72C816.94,-272.24 799.89,-273.84 783.95,-275.33"/>
<polygon fill="#63b8ff" stroke="#63b8ff" points="833.05,-274.24 842.68,-269.82 832.39,-267.27 833.05,-274.24"/>
</a>
</g>
</g>
<!-- Node22&#45;&gt;Node11 -->
<g id="edge30_Node000022_Node000011" class="edge">
<title>Node22&#45;&gt;Node11</title>
<g id="a_edge30_Node000022_Node000011"><a xlink:title=" ">
<path fill="none" stroke="#63b8ff" d="M829.07,-345.92C815.37,-347.34 801.18,-348.82 787.67,-350.23"/>
<polygon fill="#63b8ff" stroke="#63b8ff" points="829.35,-349.41 838.93,-344.89 828.62,-342.44 829.35,-349.41"/>
</a>
</g>
</g>
<!-- Node23&#45;&gt;Node13 -->
<g id="edge32_Node000023_Node000013" class="edge">
<title>Node23&#45;&gt;Node13</title>
<g id="a_edge32_Node000023_Node000013"><a xlink:title=" ">
<path fill="none" stroke="#63b8ff" d="M851.39,-190.32C822.53,-196.79 787.84,-204.57 760.76,-210.64"/>
<polygon fill="#63b8ff" stroke="#63b8ff" points="852.07,-193.75 861.07,-188.15 850.54,-186.92 852.07,-193.75"/>
</a>
</g>
</g>
<!-- Node24&#45;&gt;Node16 -->
<g id="edge35_Node000024_Node000016" class="edge">
<title>Node24&#45;&gt;Node16</title>
<g id="a_edge35_Node000024_Node000016"><a xlink:title=" ">
<path fill="none" stroke="#63b8ff" d="M851.51,-104.29C824.99,-110.24 793.51,-117.3 767.55,-123.12"/>
<polygon fill="#63b8ff" stroke="#63b8ff" points="852.07,-107.75 861.07,-102.15 850.54,-100.92 852.07,-107.75"/>
</a>
</g>
</g>
<!-- Node25&#45;&gt;Node8 -->
<g id="edge37_Node000025_Node000008" class="edge">
<title>Node25&#45;&gt;Node8</title>
<g id="a_edge37_Node000025_Node000008"><a xlink:title=" ">
<path fill="none" stroke="#63b8ff" d="M637.54,-41.49C587.48,-40.48 522.64,-46.64 474.75,-77.74 409.66,-119.99 378.21,-216.54 369.47,-247.78"/>
<polygon fill="#63b8ff" stroke="#63b8ff" points="637.33,-44.98 647.44,-41.8 637.55,-37.99 637.33,-44.98"/>
</a>
</g>
</g>
<!-- Node26&#45;&gt;Node8 -->
<g id="edge40_Node000026_Node000008" class="edge">
<title>Node26&#45;&gt;Node8</title>
<g id="a_edge40_Node000026_Node000008"><a xlink:title=" ">
<path fill="none" stroke="#63b8ff" d="M841.04,-62.94C823.59,-66.41 804.75,-69.93 787.25,-72.74 718.18,-83.81 535.13,-75.41 474.75,-110.74 417.92,-143.98 382.22,-220.25 370.84,-247.68"/>
<polygon fill="#63b8ff" stroke="#63b8ff" points="841.69,-66.38 850.8,-60.97 840.3,-59.52 841.69,-66.38"/>
</a>
</g>
</g>
<!-- Node26&#45;&gt;Node25 -->
<g id="edge39_Node000026_Node000025" class="edge">
<title>Node26&#45;&gt;Node25</title>
<g id="a_edge39_Node000026_Node000025"><a xlink:title=" ">
<path fill="none" stroke="#63b8ff" d="M840.78,-48.74C821.26,-48.74 799.96,-48.74 780.56,-48.74"/>
<polygon fill="#63b8ff" stroke="#63b8ff" points="840.52,-52.24 850.52,-48.74 840.52,-45.24 840.52,-52.24"/>
</a>
</g>
</g>
</g>
</svg>
