<?xml version="1.0" encoding="UTF-8" standalone="no"?>
<!DOCTYPE svg PUBLIC "-//W3C//DTD SVG 1.1//EN"
 "http://www.w3.org/Graphics/SVG/1.1/DTD/svg11.dtd">
<!-- Generated by graphviz version 12.2.1 (20241206.2353)
 -->
<!-- Title: Calculate_Cell_Distance Pages: 1 -->
<svg width="948pt" height="186pt"
 viewBox="0.00 0.00 947.75 185.50" xmlns="http://www.w3.org/2000/svg" xmlns:xlink="http://www.w3.org/1999/xlink">
<g id="graph0" class="graph" transform="scale(1 1) rotate(0) translate(4 181.5)">
<title>Calculate_Cell_Distance</title>
<!-- Node1 -->
<g id="Node000001" class="node">
<title>Node1</title>
<g id="a_Node000001"><a xlink:title="Calculate distance between two cell centers.">
<polygon fill="#999999" stroke="#666666" points="939.75,-97.88 815.75,-97.88 815.75,-78.62 939.75,-78.62 939.75,-97.88"/>
<text text-anchor="middle" x="877.75" y="-84.38" font-family="Helvetica,sans-Serif" font-size="10.00">Calculate_Cell_Distance</text>
</a>
</g>
</g>
<!-- Node2 -->
<g id="Node000002" class="node">
<title>Node2</title>
<g id="a_Node000002"><a xlink:href="../../da/d71/_k___epsilon___model_8cpp_a7fea9b36aaadf3917421ff4041b0e1b5.html#a7fea9b36aaadf3917421ff4041b0e1b5" target="_top" xlink:title="Calculate diffusion term for epsilon&#45;equation.">
<polygon fill="white" stroke="#666666" points="761.75,-128.5 660.25,-128.5 660.25,-98 761.75,-98 761.75,-128.5"/>
<text text-anchor="start" x="668.25" y="-115" font-family="Helvetica,sans-Serif" font-size="10.00">Calculate_KEpsilon</text>
<text text-anchor="middle" x="711" y="-103.75" font-family="Helvetica,sans-Serif" font-size="10.00">_Epsilon_Diffusion</text>
</a>
</g>
</g>
<!-- Node1&#45;&gt;Node2 -->
<g id="edge1_Node000001_Node000002" class="edge">
<title>Node1&#45;&gt;Node2</title>
<g id="a_edge1_Node000001_Node000002"><a xlink:title=" ">
<path fill="none" stroke="#63b8ff" d="M804.14,-99.27C789.95,-101.42 775.36,-103.64 762.1,-105.65"/>
<polygon fill="#63b8ff" stroke="#63b8ff" points="804.55,-102.75 813.91,-97.79 803.49,-95.83 804.55,-102.75"/>
</a>
</g>
</g>
<!-- Node10 -->
<g id="Node000010" class="node">
<title>Node10</title>
<g id="a_Node000010"><a xlink:href="../../da/d71/_k___epsilon___model_8cpp_afed3511ea4aaccb84fe33c49449a57db.html#afed3511ea4aaccb84fe33c49449a57db" target="_top" xlink:title="Calculate diffusion term for k&#45;equation.">
<polygon fill="white" stroke="#666666" points="761.75,-177.5 660.25,-177.5 660.25,-147 761.75,-147 761.75,-177.5"/>
<text text-anchor="start" x="668.25" y="-164" font-family="Helvetica,sans-Serif" font-size="10.00">Calculate_KEpsilon</text>
<text text-anchor="middle" x="711" y="-152.75" font-family="Helvetica,sans-Serif" font-size="10.00">_K_Diffusion</text>
</a>
</g>
</g>
<!-- Node1&#45;&gt;Node10 -->
<g id="edge10_Node000001_Node000010" class="edge">
<title>Node1&#45;&gt;Node10</title>
<g id="a_edge10_Node000001_Node000010"><a xlink:title=" ">
<path fill="none" stroke="#63b8ff" d="M848.32,-103.69C829.2,-113.81 803.29,-127 779.75,-137.25 772.39,-140.45 764.48,-143.62 756.75,-146.56"/>
<polygon fill="#63b8ff" stroke="#63b8ff" points="849.95,-106.79 857.12,-99 846.65,-100.62 849.95,-106.79"/>
</a>
</g>
</g>
<!-- Node11 -->
<g id="Node000011" class="node">
<title>Node11</title>
<g id="a_Node000011"><a xlink:href="../../da/db6/_k___omega___model_8cpp_ada45c714007d81d87408aa5ca76a59c4.html#ada45c714007d81d87408aa5ca76a59c4" target="_top" xlink:title="Calculate diffusion term for k&#45;equation in K&#45;omega model.">
<polygon fill="white" stroke="#666666" points="767.38,-30.5 654.62,-30.5 654.62,0 767.38,0 767.38,-30.5"/>
<text text-anchor="start" x="662.62" y="-17" font-family="Helvetica,sans-Serif" font-size="10.00">Calculate_KOmega_K</text>
<text text-anchor="middle" x="711" y="-5.75" font-family="Helvetica,sans-Serif" font-size="10.00">_Diffusion</text>
</a>
</g>
</g>
<!-- Node1&#45;&gt;Node11 -->
<g id="edge13_Node000001_Node000011" class="edge">
<title>Node1&#45;&gt;Node11</title>
<g id="a_edge13_Node000001_Node000011"><a xlink:title=" ">
<path fill="none" stroke="#63b8ff" d="M847.93,-72.99C828.83,-63.12 803.09,-50.3 779.75,-40.25 772.38,-37.08 764.46,-33.93 756.73,-30.99"/>
<polygon fill="#63b8ff" stroke="#63b8ff" points="846.24,-76.05 856.73,-77.57 849.48,-69.84 846.24,-76.05"/>
</a>
</g>
</g>
<!-- Node13 -->
<g id="Node000013" class="node">
<title>Node13</title>
<g id="a_Node000013"><a xlink:href="../../da/db6/_k___omega___model_8cpp_a69824aec41cff7c97f057bbb477ecf59.html#a69824aec41cff7c97f057bbb477ecf59" target="_top" xlink:title="Calculate diffusion term for omega&#45;equation in K&#45;omega model.">
<polygon fill="white" stroke="#666666" points="779.75,-79.5 642.25,-79.5 642.25,-49 779.75,-49 779.75,-79.5"/>
<text text-anchor="start" x="650.25" y="-66" font-family="Helvetica,sans-Serif" font-size="10.00">Calculate_KOmega_Omega</text>
<text text-anchor="middle" x="711" y="-54.75" font-family="Helvetica,sans-Serif" font-size="10.00">_Diffusion</text>
</a>
</g>
</g>
<!-- Node1&#45;&gt;Node13 -->
<g id="edge17_Node000001_Node000013" class="edge">
<title>Node1&#45;&gt;Node13</title>
<g id="a_edge17_Node000001_Node000013"><a xlink:title=" ">
<path fill="none" stroke="#63b8ff" d="M804.18,-77.68C796.16,-76.51 788.01,-75.32 780.04,-74.16"/>
<polygon fill="#63b8ff" stroke="#63b8ff" points="803.51,-81.12 813.91,-79.1 804.51,-74.19 803.51,-81.12"/>
</a>
</g>
</g>
<!-- Node3 -->
<g id="Node000003" class="node">
<title>Node3</title>
<g id="a_Node000003"><a xlink:href="../../d4/df3/_turbulence___integration_8cpp_aa80303a9b8e99702a12486f321f7021d.html#aa80303a9b8e99702a12486f321f7021d" target="_top" xlink:title="Calculate turbulence residual for a specific cell.">
<polygon fill="white" stroke="#666666" points="595.75,-103.5 485.25,-103.5 485.25,-73 595.75,-73 595.75,-103.5"/>
<text text-anchor="start" x="493.25" y="-90" font-family="Helvetica,sans-Serif" font-size="10.00">Calculate_Turbulence</text>
<text text-anchor="middle" x="540.5" y="-78.75" font-family="Helvetica,sans-Serif" font-size="10.00">_Cell_Residual</text>
</a>
</g>
</g>
<!-- Node2&#45;&gt;Node3 -->
<g id="edge2_Node000002_Node000003" class="edge">
<title>Node2&#45;&gt;Node3</title>
<g id="a_edge2_Node000002_Node000003"><a xlink:title=" ">
<path fill="none" stroke="#63b8ff" d="M648.81,-104.17C631.57,-101.61 612.94,-98.85 596.11,-96.35"/>
<polygon fill="#63b8ff" stroke="#63b8ff" points="648,-107.59 658.4,-105.59 649.03,-100.66 648,-107.59"/>
</a>
</g>
</g>
<!-- Node7 -->
<g id="Node000007" class="node">
<title>Node7</title>
<g id="a_Node000007"><a xlink:href="../../da/d71/_k___epsilon___model_8cpp_a1f8b4153dd164adfeb34b737d9a3392c.html#a1f8b4153dd164adfeb34b737d9a3392c" target="_top" xlink:title="Solve K&#45;epsilon transport equations using explicit time integration.">
<polygon fill="white" stroke="#666666" points="606.25,-152.5 474.75,-152.5 474.75,-122 606.25,-122 606.25,-152.5"/>
<text text-anchor="start" x="482.75" y="-139" font-family="Helvetica,sans-Serif" font-size="10.00">Solve_KEpsilon_Transport</text>
<text text-anchor="middle" x="540.5" y="-127.75" font-family="Helvetica,sans-Serif" font-size="10.00">_Equations</text>
</a>
</g>
</g>
<!-- Node2&#45;&gt;Node7 -->
<g id="edge6_Node000002_Node000007" class="edge">
<title>Node2&#45;&gt;Node7</title>
<g id="a_edge6_Node000002_Node000007"><a xlink:title=" ">
<path fill="none" stroke="#63b8ff" d="M648.68,-121.98C635.03,-123.93 620.51,-126 606.72,-127.96"/>
<polygon fill="#63b8ff" stroke="#63b8ff" points="649,-125.47 658.4,-120.6 648.01,-118.54 649,-125.47"/>
</a>
</g>
</g>
<!-- Node4 -->
<g id="Node000004" class="node">
<title>Node4</title>
<g id="a_Node000004"><a xlink:href="../../d4/df3/_turbulence___integration_8cpp_a114922edf827339838bde9697cd163a1.html#a114922edf827339838bde9697cd163a1" target="_top" xlink:title="Calculate residuals for turbulence equations.">
<polygon fill="white" stroke="#666666" points="421.12,-103.5 310.62,-103.5 310.62,-73 421.12,-73 421.12,-103.5"/>
<text text-anchor="start" x="318.62" y="-90" font-family="Helvetica,sans-Serif" font-size="10.00">Calculate_Turbulence</text>
<text text-anchor="middle" x="365.88" y="-78.75" font-family="Helvetica,sans-Serif" font-size="10.00">_Residuals</text>
</a>
</g>
</g>
<!-- Node3&#45;&gt;Node4 -->
<g id="edge3_Node000003_Node000004" class="edge">
<title>Node3&#45;&gt;Node4</title>
<g id="a_edge3_Node000003_Node000004"><a xlink:title=" ">
<path fill="none" stroke="#63b8ff" d="M473.73,-88.25C456.47,-88.25 438.04,-88.25 421.44,-88.25"/>
<polygon fill="#63b8ff" stroke="#63b8ff" points="473.37,-91.75 483.37,-88.25 473.37,-84.75 473.37,-91.75"/>
</a>
</g>
</g>
<!-- Node5 -->
<g id="Node000005" class="node">
<title>Node5</title>
<g id="a_Node000005"><a xlink:href="../../d4/df3/_turbulence___integration_8cpp_a5be3d179089fc076bb68c61f7cd17b7a.html#a5be3d179089fc076bb68c61f7cd17b7a" target="_top" xlink:title="Runge&#45;Kutta method with turbulence model integration.">
<polygon fill="white" stroke="#666666" points="256.62,-103.5 146.12,-103.5 146.12,-73 256.62,-73 256.62,-103.5"/>
<text text-anchor="start" x="154.12" y="-90" font-family="Helvetica,sans-Serif" font-size="10.00">Runge_Kutta_Method</text>
<text text-anchor="middle" x="201.38" y="-78.75" font-family="Helvetica,sans-Serif" font-size="10.00">_With_Turbulence</text>
</a>
</g>
</g>
<!-- Node4&#45;&gt;Node5 -->
<g id="edge4_Node000004_Node000005" class="edge">
<title>Node4&#45;&gt;Node5</title>
<g id="a_edge4_Node000004_Node000005"><a xlink:title=" ">
<path fill="none" stroke="#63b8ff" d="M298.84,-88.25C284.96,-88.25 270.48,-88.25 257.07,-88.25"/>
<polygon fill="#63b8ff" stroke="#63b8ff" points="298.8,-91.75 308.8,-88.25 298.8,-84.75 298.8,-91.75"/>
</a>
</g>
</g>
<!-- Node6 -->
<g id="Node000006" class="node">
<title>Node6</title>
<g id="a_Node000006"><a xlink:href="../../d4/df3/_turbulence___integration_8cpp_a564537a29550f0d8ec11e8ef76cd2b3a.html#a564537a29550f0d8ec11e8ef76cd2b3a" target="_top" xlink:title="Modified viscous solver with turbulence model integration.">
<polygon fill="white" stroke="#666666" points="109.75,-78.5 0,-78.5 0,-48 109.75,-48 109.75,-78.5"/>
<text text-anchor="start" x="8" y="-65" font-family="Helvetica,sans-Serif" font-size="10.00">Viscous_Solver_With</text>
<text text-anchor="middle" x="54.88" y="-53.75" font-family="Helvetica,sans-Serif" font-size="10.00">_Turbulence</text>
</a>
</g>
</g>
<!-- Node5&#45;&gt;Node6 -->
<g id="edge5_Node000005_Node000006" class="edge">
<title>Node5&#45;&gt;Node6</title>
<g id="a_edge5_Node000005_Node000006"><a xlink:title=" ">
<path fill="none" stroke="#63b8ff" d="M134.66,-76.88C126.44,-75.46 118.11,-74.02 110.1,-72.63"/>
<polygon fill="#63b8ff" stroke="#63b8ff" points="133.8,-80.28 144.25,-78.54 135,-73.39 133.8,-80.28"/>
</a>
</g>
</g>
<!-- Node8 -->
<g id="Node000008" class="node">
<title>Node8</title>
<g id="a_Node000008"><a xlink:href="../../d5/d65/_turbulence___models_8cpp_afb9159b9dcb0534a88f1df9496ece4ad.html#afb9159b9dcb0534a88f1df9496ece4ad" target="_top" xlink:title="Update turbulence variables for all cells.">
<polygon fill="white" stroke="#666666" points="438.75,-48.88 293,-48.88 293,-29.62 438.75,-29.62 438.75,-48.88"/>
<text text-anchor="middle" x="365.88" y="-35.38" font-family="Helvetica,sans-Serif" font-size="10.00">Update_Turbulence_Variables</text>
</a>
</g>
</g>
<!-- Node7&#45;&gt;Node8 -->
<g id="edge7_Node000007_Node000008" class="edge">
<title>Node7&#45;&gt;Node8</title>
<g id="a_edge7_Node000007_Node000008"><a xlink:title=" ">
<path fill="none" stroke="#63b8ff" d="M480.27,-116.07C478.36,-114.86 476.52,-113.59 474.75,-112.25 453.49,-96.16 460.28,-79.98 438.75,-64.25 430,-57.86 419.48,-53 409.23,-49.34"/>
<polygon fill="#63b8ff" stroke="#63b8ff" points="478.44,-119.06 488.87,-120.9 481.86,-112.95 478.44,-119.06"/>
</a>
</g>
</g>
<!-- Node9 -->
<g id="Node000009" class="node">
<title>Node9</title>
<g id="a_Node000009"><a xlink:href="../../d4/df3/_turbulence___integration_8cpp_ab169036ed9f440a82e87aa687850b80e.html#ab169036ed9f440a82e87aa687850b80e" target="_top" xlink:title="Explicit method with turbulence model integration.">
<polygon fill="white" stroke="#666666" points="257,-54.5 145.75,-54.5 145.75,-24 257,-24 257,-54.5"/>
<text text-anchor="start" x="153.75" y="-41" font-family="Helvetica,sans-Serif" font-size="10.00">Explicit_Method_With</text>
<text text-anchor="middle" x="201.38" y="-29.75" font-family="Helvetica,sans-Serif" font-size="10.00">_Turbulence</text>
</a>
</g>
</g>
<!-- Node8&#45;&gt;Node9 -->
<g id="edge8_Node000008_Node000009" class="edge">
<title>Node8&#45;&gt;Node9</title>
<g id="a_edge8_Node000008_Node000009"><a xlink:title=" ">
<path fill="none" stroke="#63b8ff" d="M281.2,-39.25C273.1,-39.25 265.02,-39.25 257.3,-39.25"/>
<polygon fill="#63b8ff" stroke="#63b8ff" points="281.14,-42.75 291.14,-39.25 281.14,-35.75 281.14,-42.75"/>
</a>
</g>
</g>
<!-- Node9&#45;&gt;Node6 -->
<g id="edge9_Node000009_Node000006" class="edge">
<title>Node9&#45;&gt;Node6</title>
<g id="a_edge9_Node000009_Node000006"><a xlink:title=" ">
<path fill="none" stroke="#63b8ff" d="M133.99,-50.28C125.89,-51.62 117.69,-52.98 109.81,-54.29"/>
<polygon fill="#63b8ff" stroke="#63b8ff" points="134.55,-53.73 143.84,-48.64 133.4,-46.83 134.55,-53.73"/>
</a>
</g>
</g>
<!-- Node10&#45;&gt;Node3 -->
<g id="edge11_Node000010_Node000003" class="edge">
<title>Node10&#45;&gt;Node3</title>
<g id="a_edge11_Node000010_Node000003"><a xlink:title=" ">
<path fill="none" stroke="#63b8ff" d="M652.81,-142.25C649.2,-140.65 645.65,-138.98 642.25,-137.25 625.11,-128.53 623.32,-122.1 606.25,-113.25 599.83,-109.92 592.86,-106.78 585.96,-103.92"/>
<polygon fill="#63b8ff" stroke="#63b8ff" points="651.13,-145.34 661.7,-146 653.84,-138.89 651.13,-145.34"/>
</a>
</g>
</g>
<!-- Node10&#45;&gt;Node7 -->
<g id="edge12_Node000010_Node000007" class="edge">
<title>Node10&#45;&gt;Node7</title>
<g id="a_edge12_Node000010_Node000007"><a xlink:title=" ">
<path fill="none" stroke="#63b8ff" d="M648.68,-153.15C635.03,-151.13 620.51,-148.97 606.72,-146.93"/>
<polygon fill="#63b8ff" stroke="#63b8ff" points="648,-156.59 658.4,-154.59 649.03,-149.66 648,-156.59"/>
</a>
</g>
</g>
<!-- Node11&#45;&gt;Node3 -->
<g id="edge14_Node000011_Node000003" class="edge">
<title>Node11&#45;&gt;Node3</title>
<g id="a_edge14_Node000011_Node000003"><a xlink:title=" ">
<path fill="none" stroke="#63b8ff" d="M653.03,-35.24C649.35,-36.85 645.72,-38.52 642.25,-40.25 625.25,-48.7 623.19,-54.68 606.25,-63.25 599.69,-66.57 592.58,-69.73 585.56,-72.61"/>
<polygon fill="#63b8ff" stroke="#63b8ff" points="654.23,-38.54 662.12,-31.47 651.54,-32.07 654.23,-38.54"/>
</a>
</g>
</g>
<!-- Node12 -->
<g id="Node000012" class="node">
<title>Node12</title>
<g id="a_Node000012"><a xlink:href="../../da/db6/_k___omega___model_8cpp_a22e64f94144a50c6cbafc52e88da1a2d.html#a22e64f94144a50c6cbafc52e88da1a2d" target="_top" xlink:title="Solve K&#45;omega transport equations.">
<polygon fill="white" stroke="#666666" points="605.88,-54.5 475.12,-54.5 475.12,-24 605.88,-24 605.88,-54.5"/>
<text text-anchor="start" x="483.12" y="-41" font-family="Helvetica,sans-Serif" font-size="10.00">Solve_KOmega_Transport</text>
<text text-anchor="middle" x="540.5" y="-29.75" font-family="Helvetica,sans-Serif" font-size="10.00">_Equations</text>
</a>
</g>
</g>
<!-- Node11&#45;&gt;Node12 -->
<g id="edge15_Node000011_Node000012" class="edge">
<title>Node11&#45;&gt;Node12</title>
<g id="a_edge15_Node000011_Node000012"><a xlink:title=" ">
<path fill="none" stroke="#63b8ff" d="M643.3,-24.75C631.06,-26.49 618.31,-28.31 606.14,-30.04"/>
<polygon fill="#63b8ff" stroke="#63b8ff" points="643.45,-28.26 652.86,-23.39 642.47,-21.33 643.45,-28.26"/>
</a>
</g>
</g>
<!-- Node12&#45;&gt;Node8 -->
<g id="edge16_Node000012_Node000008" class="edge">
<title>Node12&#45;&gt;Node8</title>
<g id="a_edge16_Node000012_Node000008"><a xlink:title=" ">
<path fill="none" stroke="#63b8ff" d="M463.37,-39.25C455.26,-39.25 447.02,-39.25 438.96,-39.25"/>
<polygon fill="#63b8ff" stroke="#63b8ff" points="463.22,-42.75 473.22,-39.25 463.22,-35.75 463.22,-42.75"/>
</a>
</g>
</g>
<!-- Node13&#45;&gt;Node3 -->
<g id="edge18_Node000013_Node000003" class="edge">
<title>Node13&#45;&gt;Node3</title>
<g id="a_edge18_Node000013_Node000003"><a xlink:title=" ">
<path fill="none" stroke="#63b8ff" d="M630.77,-75.54C619.03,-77.21 607.17,-78.9 596.08,-80.48"/>
<polygon fill="#63b8ff" stroke="#63b8ff" points="631.05,-79.03 640.45,-74.16 630.06,-72.1 631.05,-79.03"/>
</a>
</g>
</g>
<!-- Node13&#45;&gt;Node12 -->
<g id="edge19_Node000013_Node000012" class="edge">
<title>Node13&#45;&gt;Node12</title>
<g id="a_edge19_Node000013_Node000012"><a xlink:title=" ">
<path fill="none" stroke="#63b8ff" d="M630.81,-52.5C622.58,-51.28 614.29,-50.05 606.25,-48.86"/>
<polygon fill="#63b8ff" stroke="#63b8ff" points="630.05,-55.93 640.45,-53.93 631.08,-49 630.05,-55.93"/>
</a>
</g>
</g>
</g>
</svg>
