<?xml version="1.0" encoding="UTF-8" standalone="no"?>
<!DOCTYPE svg PUBLIC "-//W3C//DTD SVG 1.1//EN"
 "http://www.w3.org/Graphics/SVG/1.1/DTD/svg11.dtd">
<!-- Generated by graphviz version 12.2.1 (20241206.2353)
 -->
<!-- Title: include/Grid.h Pages: 1 -->
<svg width="1227pt" height="227pt"
 viewBox="0.00 0.00 1227.12 226.75" xmlns="http://www.w3.org/2000/svg" xmlns:xlink="http://www.w3.org/1999/xlink">
<g id="graph0" class="graph" transform="scale(1 1) rotate(0) translate(4 222.75)">
<title>include/Grid.h</title>
<!-- Node1 -->
<g id="Node000001" class="node">
<title>Node1</title>
<g id="a_Node000001"><a xlink:title=" ">
<polygon fill="#999999" stroke="#666666" points="559.62,-218.75 483.62,-218.75 483.62,-199.5 559.62,-199.5 559.62,-218.75"/>
<text text-anchor="middle" x="521.62" y="-205.25" font-family="Helvetica,sans-Serif" font-size="10.00">include/Grid.h</text>
</a>
</g>
</g>
<!-- Node2 -->
<g id="Node000002" class="node">
<title>Node2</title>
<g id="a_Node000002"><a xlink:href="../../d3/d11/_grid___c_u_d_a___integration___example_8cpp.html" target="_top" xlink:title=" ">
<polygon fill="white" stroke="#666666" points="153.25,-163.5 0,-163.5 0,-133 153.25,-133 153.25,-163.5"/>
<text text-anchor="start" x="8" y="-150" font-family="Helvetica,sans-Serif" font-size="10.00">CUDA_KERNELS/Grid_CUDA</text>
<text text-anchor="middle" x="76.62" y="-138.75" font-family="Helvetica,sans-Serif" font-size="10.00">_Integration_Example.cpp</text>
</a>
</g>
</g>
<!-- Node1&#45;&gt;Node2 -->
<g id="edge1_Node000001_Node000002" class="edge">
<title>Node1&#45;&gt;Node2</title>
<g id="a_edge1_Node000001_Node000002"><a xlink:title=" ">
<path fill="none" stroke="#63b8ff" d="M471.88,-202.59C402.5,-194.72 272.8,-179.47 162.62,-163.5 159.63,-163.07 156.58,-162.61 153.5,-162.15"/>
<polygon fill="#63b8ff" stroke="#63b8ff" points="471.47,-206.06 481.8,-203.71 472.25,-199.11 471.47,-206.06"/>
</a>
</g>
</g>
<!-- Node3 -->
<g id="Node000003" class="node">
<title>Node3</title>
<g id="a_Node000003"><a xlink:href="../../df/dd4/_grid___computations___optimized_8h.html" target="_top" xlink:title=" ">
<polygon fill="white" stroke="#666666" points="305.5,-163.5 171.75,-163.5 171.75,-133 305.5,-133 305.5,-163.5"/>
<text text-anchor="start" x="179.75" y="-150" font-family="Helvetica,sans-Serif" font-size="10.00">include/Grid_Computations</text>
<text text-anchor="middle" x="238.62" y="-138.75" font-family="Helvetica,sans-Serif" font-size="10.00">_Optimized.h</text>
</a>
</g>
</g>
<!-- Node1&#45;&gt;Node3 -->
<g id="edge2_Node000001_Node000003" class="edge">
<title>Node1&#45;&gt;Node3</title>
<g id="a_edge2_Node000001_Node000003"><a xlink:title=" ">
<path fill="none" stroke="#63b8ff" d="M471.96,-197.79C425.85,-188.2 356.83,-173.84 305.81,-163.23"/>
<polygon fill="#63b8ff" stroke="#63b8ff" points="471.18,-201.21 481.68,-199.82 472.6,-194.35 471.18,-201.21"/>
</a>
</g>
</g>
<!-- Node4 -->
<g id="Node000004" class="node">
<title>Node4</title>
<g id="a_Node000004"><a xlink:href="../../dc/de7/_grid___optimization___integration___guide_8cpp.html" target="_top" xlink:title=" ">
<polygon fill="white" stroke="#666666" points="345.88,-30.5 229.38,-30.5 229.38,0 345.88,0 345.88,-30.5"/>
<text text-anchor="start" x="237.38" y="-17" font-family="Helvetica,sans-Serif" font-size="10.00">src/Grid_Optimization</text>
<text text-anchor="middle" x="287.62" y="-5.75" font-family="Helvetica,sans-Serif" font-size="10.00">_Integration_Guide.cpp</text>
</a>
</g>
</g>
<!-- Node1&#45;&gt;Node4 -->
<g id="edge9_Node000001_Node000004" class="edge">
<title>Node1&#45;&gt;Node4</title>
<g id="a_edge9_Node000001_Node000004"><a xlink:title=" ">
<path fill="none" stroke="#63b8ff" d="M472.08,-201.6C445.03,-195.71 412.66,-184.56 390.62,-163.5 357.16,-131.51 380.39,-103.55 352.62,-66.5 341.85,-52.12 325.93,-39.72 312.55,-30.84"/>
<polygon fill="#63b8ff" stroke="#63b8ff" points="471.33,-205.01 481.82,-203.52 472.68,-198.15 471.33,-205.01"/>
</a>
</g>
</g>
<!-- Node5 -->
<g id="Node000005" class="node">
<title>Node5</title>
<g id="a_Node000005"><a xlink:href="../../d1/db0/_grid___performance___benchmark_8cpp.html" target="_top" xlink:title=" ">
<polygon fill="white" stroke="#666666" points="343.25,-97 232,-97 232,-66.5 343.25,-66.5 343.25,-97"/>
<text text-anchor="start" x="240" y="-83.5" font-family="Helvetica,sans-Serif" font-size="10.00">src/Grid_Performance</text>
<text text-anchor="middle" x="287.62" y="-72.25" font-family="Helvetica,sans-Serif" font-size="10.00">_Benchmark.cpp</text>
</a>
</g>
</g>
<!-- Node1&#45;&gt;Node5 -->
<g id="edge10_Node000001_Node000005" class="edge">
<title>Node1&#45;&gt;Node5</title>
<g id="a_edge10_Node000001_Node000005"><a xlink:title=" ">
<path fill="none" stroke="#63b8ff" d="M472.12,-202.39C437.88,-196.65 392.42,-185.37 357.62,-163.5 330.45,-146.42 308.04,-115.55 296.36,-97.32"/>
<polygon fill="#63b8ff" stroke="#63b8ff" points="471.35,-205.81 481.77,-203.9 472.43,-198.9 471.35,-205.81"/>
</a>
</g>
</g>
<!-- Node6 -->
<g id="Node000006" class="node">
<title>Node6</title>
<g id="a_Node000006"><a xlink:href="../../df/daf/_co___volume___grid___computations_8cpp.html" target="_top" xlink:title=" ">
<polygon fill="white" stroke="#666666" points="506,-163.5 399.25,-163.5 399.25,-133 506,-133 506,-163.5"/>
<text text-anchor="start" x="407.25" y="-150" font-family="Helvetica,sans-Serif" font-size="10.00">src/Co_Volume_Grid</text>
<text text-anchor="middle" x="452.62" y="-138.75" font-family="Helvetica,sans-Serif" font-size="10.00">_Computations.cpp</text>
</a>
</g>
</g>
<!-- Node1&#45;&gt;Node6 -->
<g id="edge6_Node000001_Node000006" class="edge">
<title>Node1&#45;&gt;Node6</title>
<g id="a_edge6_Node000001_Node000006"><a xlink:title=" ">
<path fill="none" stroke="#63b8ff" d="M502.48,-191.79C492.19,-183.01 479.61,-172.27 469.66,-163.78"/>
<polygon fill="#63b8ff" stroke="#63b8ff" points="500.12,-194.37 509.99,-198.2 504.66,-189.05 500.12,-194.37"/>
</a>
</g>
</g>
<!-- Node7 -->
<g id="Node000007" class="node">
<title>Node7</title>
<g id="a_Node000007"><a xlink:href="../../d8/d40/_grid___computations_8cpp.html" target="_top" xlink:title=" ">
<polygon fill="white" stroke="#666666" points="659.25,-157.88 524,-157.88 524,-138.62 659.25,-138.62 659.25,-157.88"/>
<text text-anchor="middle" x="591.62" y="-144.38" font-family="Helvetica,sans-Serif" font-size="10.00">src/Grid_Computations.cpp</text>
</a>
</g>
</g>
<!-- Node1&#45;&gt;Node7 -->
<g id="edge7_Node000001_Node000007" class="edge">
<title>Node1&#45;&gt;Node7</title>
<g id="a_edge7_Node000001_Node000007"><a xlink:title=" ">
<path fill="none" stroke="#63b8ff" d="M540.87,-191.94C553.77,-181.09 570.27,-167.21 580.89,-158.28"/>
<polygon fill="#63b8ff" stroke="#63b8ff" points="538.81,-189.09 533.41,-198.21 543.32,-194.45 538.81,-189.09"/>
</a>
</g>
</g>
<!-- Node8 -->
<g id="Node000008" class="node">
<title>Node8</title>
<g id="a_Node000008"><a xlink:href="../../d8/d24/_grid___computations___optimized_8cpp.html" target="_top" xlink:title=" ">
<polygon fill="white" stroke="#666666" points="793.88,-163.5 677.38,-163.5 677.38,-133 793.88,-133 793.88,-163.5"/>
<text text-anchor="start" x="685.38" y="-150" font-family="Helvetica,sans-Serif" font-size="10.00">src/Grid_Computations</text>
<text text-anchor="middle" x="735.62" y="-138.75" font-family="Helvetica,sans-Serif" font-size="10.00">_Optimized.cpp</text>
</a>
</g>
</g>
<!-- Node1&#45;&gt;Node8 -->
<g id="edge8_Node000001_Node000008" class="edge">
<title>Node1&#45;&gt;Node8</title>
<g id="a_edge8_Node000001_Node000008"><a xlink:title=" ">
<path fill="none" stroke="#63b8ff" d="M565.52,-196.05C599.33,-186.75 646.22,-173.85 682.21,-163.94"/>
<polygon fill="#63b8ff" stroke="#63b8ff" points="564.77,-192.63 556.05,-198.65 566.62,-199.38 564.77,-192.63"/>
</a>
</g>
</g>
<!-- Node9 -->
<g id="Node000009" class="node">
<title>Node9</title>
<g id="a_Node000009"><a xlink:href="../../d3/db8/_initialize___test_case_8cpp.html" target="_top" xlink:title=" ">
<polygon fill="white" stroke="#666666" points="946.88,-157.88 812.38,-157.88 812.38,-138.62 946.88,-138.62 946.88,-157.88"/>
<text text-anchor="middle" x="879.62" y="-144.38" font-family="Helvetica,sans-Serif" font-size="10.00">src/Initialize_TestCase.cpp</text>
</a>
</g>
</g>
<!-- Node1&#45;&gt;Node9 -->
<g id="edge11_Node000001_Node000009" class="edge">
<title>Node1&#45;&gt;Node9</title>
<g id="a_edge11_Node000001_Node000009"><a xlink:title=" ">
<path fill="none" stroke="#63b8ff" d="M570.9,-200.69C627.05,-192.12 721.56,-177.44 802.62,-163.5 812,-161.89 822.01,-160.09 831.6,-158.33"/>
<polygon fill="#63b8ff" stroke="#63b8ff" points="570.71,-197.18 561.35,-202.14 571.76,-204.1 570.71,-197.18"/>
</a>
</g>
</g>
<!-- Node10 -->
<g id="Node000010" class="node">
<title>Node10</title>
<g id="a_Node000010"><a xlink:href="../../df/db3/_mesh___loader_8cpp.html" target="_top" xlink:title=" ">
<polygon fill="white" stroke="#666666" points="1074.12,-157.88 965.12,-157.88 965.12,-138.62 1074.12,-138.62 1074.12,-157.88"/>
<text text-anchor="middle" x="1019.62" y="-144.38" font-family="Helvetica,sans-Serif" font-size="10.00">src/Mesh_Loader.cpp</text>
</a>
</g>
</g>
<!-- Node1&#45;&gt;Node10 -->
<g id="edge12_Node000001_Node000010" class="edge">
<title>Node1&#45;&gt;Node10</title>
<g id="a_edge12_Node000001_Node000010"><a xlink:title=" ">
<path fill="none" stroke="#63b8ff" d="M571.15,-204.92C651.99,-199.27 817.2,-185.95 955.62,-163.5 964.28,-162.1 973.51,-160.25 982.2,-158.35"/>
<polygon fill="#63b8ff" stroke="#63b8ff" points="571.09,-201.42 561.36,-205.6 571.57,-208.4 571.09,-201.42"/>
</a>
</g>
</g>
<!-- Node11 -->
<g id="Node000011" class="node">
<title>Node11</title>
<g id="a_Node000011"><a xlink:href="../../d0/ded/_read___gmsh___file_8cpp.html" target="_top" xlink:title=" ">
<polygon fill="white" stroke="#666666" points="1219.12,-157.88 1092.12,-157.88 1092.12,-138.62 1219.12,-138.62 1219.12,-157.88"/>
<text text-anchor="middle" x="1155.62" y="-144.38" font-family="Helvetica,sans-Serif" font-size="10.00">src/Read_Gmsh_File.cpp</text>
</a>
</g>
</g>
<!-- Node1&#45;&gt;Node11 -->
<g id="edge13_Node000001_Node000011" class="edge">
<title>Node1&#45;&gt;Node11</title>
<g id="a_edge13_Node000001_Node000011"><a xlink:title=" ">
<path fill="none" stroke="#63b8ff" d="M571.29,-206.12C669.52,-201.73 895.43,-189.51 1083.62,-163.5 1093.47,-162.14 1104,-160.29 1113.88,-158.36"/>
<polygon fill="#63b8ff" stroke="#63b8ff" points="571.3,-202.62 561.46,-206.55 571.61,-209.61 571.3,-202.62"/>
</a>
</g>
</g>
<!-- Node3&#45;&gt;Node4 -->
<g id="edge3_Node000003_Node000004" class="edge">
<title>Node3&#45;&gt;Node4</title>
<g id="a_edge3_Node000003_Node000004"><a xlink:title=" ">
<path fill="none" stroke="#63b8ff" d="M225.68,-122.04C219.09,-105.55 214.08,-83.91 222.62,-66.5 230.1,-51.26 244.68,-39.33 258.13,-30.93"/>
<polygon fill="#63b8ff" stroke="#63b8ff" points="222.47,-123.43 229.74,-131.14 228.86,-120.58 222.47,-123.43"/>
</a>
</g>
</g>
<!-- Node3&#45;&gt;Node5 -->
<g id="edge4_Node000003_Node000005" class="edge">
<title>Node3&#45;&gt;Node5</title>
<g id="a_edge4_Node000003_Node000005"><a xlink:title=" ">
<path fill="none" stroke="#63b8ff" d="M256.61,-123.57C263.29,-114.78 270.67,-105.07 276.55,-97.33"/>
<polygon fill="#63b8ff" stroke="#63b8ff" points="253.92,-121.33 250.66,-131.41 259.5,-125.56 253.92,-121.33"/>
</a>
</g>
</g>
<!-- Node5&#45;&gt;Node4 -->
<g id="edge5_Node000005_Node000004" class="edge">
<title>Node5&#45;&gt;Node4</title>
<g id="a_edge5_Node000005_Node000004"><a xlink:title=" ">
<path fill="none" stroke="#63b8ff" d="M287.62,-54.81C287.62,-46.64 287.62,-37.91 287.62,-30.83"/>
<polygon fill="#63b8ff" stroke="#63b8ff" points="284.13,-54.6 287.63,-64.6 291.13,-54.6 284.13,-54.6"/>
</a>
</g>
</g>
</g>
</svg>
