<?xml version="1.0" encoding="UTF-8" standalone="no"?>
<!DOCTYPE svg PUBLIC "-//W3C//DTD SVG 1.1//EN"
 "http://www.w3.org/Graphics/SVG/1.1/DTD/svg11.dtd">
<!-- Generated by graphviz version 12.2.1 (20241206.2353)
 -->
<!-- Title: Explicit_Method_Kernel Pages: 1 -->
<svg width="591pt" height="64pt"
 viewBox="0.00 0.00 590.50 64.25" xmlns="http://www.w3.org/2000/svg" xmlns:xlink="http://www.w3.org/1999/xlink">
<g id="graph0" class="graph" transform="scale(1 1) rotate(0) translate(4 60.25)">
<title>Explicit_Method_Kernel</title>
<!-- Node1 -->
<g id="Node000001" class="node">
<title>Node1</title>
<g id="a_Node000001"><a xlink:title=" ">
<polygon fill="#999999" stroke="#666666" points="582.5,-37.25 463.75,-37.25 463.75,-18 582.5,-18 582.5,-37.25"/>
<text text-anchor="middle" x="523.12" y="-23.75" font-family="Helvetica,sans-Serif" font-size="10.00">Explicit_Method_Kernel</text>
</a>
</g>
</g>
<!-- Node2 -->
<g id="Node000002" class="node">
<title>Node2</title>
<g id="a_Node000002"><a xlink:href="../../db/d38/_parallel___numerical___method_8cpp_a8dda0c7e17babab9b6e49e8e199dc30e.html#a8dda0c7e17babab9b6e49e8e199dc30e" target="_top" xlink:title=" ">
<polygon fill="white" stroke="#666666" points="427.75,-37.25 342,-37.25 342,-18 427.75,-18 427.75,-37.25"/>
<text text-anchor="middle" x="384.88" y="-23.75" font-family="Helvetica,sans-Serif" font-size="10.00">Explicit_Method</text>
</a>
</g>
</g>
<!-- Node1&#45;&gt;Node2 -->
<g id="edge1_Node000001_Node000002" class="edge">
<title>Node1&#45;&gt;Node2</title>
<g id="a_edge1_Node000001_Node000002"><a xlink:title=" ">
<path fill="none" stroke="#63b8ff" d="M452.26,-27.62C443.95,-27.62 435.69,-27.62 427.95,-27.62"/>
<polygon fill="#63b8ff" stroke="#63b8ff" points="452.04,-31.13 462.04,-27.63 452.04,-24.13 452.04,-31.13"/>
</a>
</g>
</g>
<!-- Node3 -->
<g id="Node000003" class="node">
<title>Node3</title>
<g id="a_Node000003"><a xlink:href="../../de/df0/_solver_8cpp_ad0f49408a26339b5f7043bf867c3fa8d.html#ad0f49408a26339b5f7043bf867c3fa8d" target="_top" xlink:title=" ">
<polygon fill="white" stroke="#666666" points="305.25,-56.25 222.5,-56.25 222.5,-37 305.25,-37 305.25,-56.25"/>
<text text-anchor="middle" x="263.88" y="-42.75" font-family="Helvetica,sans-Serif" font-size="10.00">Inviscid_Solver</text>
</a>
</g>
</g>
<!-- Node2&#45;&gt;Node3 -->
<g id="edge2_Node000002_Node000003" class="edge">
<title>Node2&#45;&gt;Node3</title>
<g id="a_edge2_Node000002_Node000003"><a xlink:title=" ">
<path fill="none" stroke="#63b8ff" d="M330.34,-36.17C321.97,-37.51 313.45,-38.87 305.43,-40.15"/>
<polygon fill="#63b8ff" stroke="#63b8ff" points="330.77,-39.65 340.09,-34.62 329.66,-32.74 330.77,-39.65"/>
</a>
</g>
</g>
<!-- Node7 -->
<g id="Node000007" class="node">
<title>Node7</title>
<g id="a_Node000007"><a xlink:href="../../de/df0/_solver_8cpp_a2f37f06e8324a1ed6aa99efdbba81865.html#a2f37f06e8324a1ed6aa99efdbba81865" target="_top" xlink:title=" ">
<polygon fill="white" stroke="#666666" points="306,-19.25 221.75,-19.25 221.75,0 306,0 306,-19.25"/>
<text text-anchor="middle" x="263.88" y="-5.75" font-family="Helvetica,sans-Serif" font-size="10.00">Viscous_Solver</text>
</a>
</g>
</g>
<!-- Node2&#45;&gt;Node7 -->
<g id="edge6_Node000002_Node000007" class="edge">
<title>Node2&#45;&gt;Node7</title>
<g id="a_edge6_Node000002_Node000007"><a xlink:title=" ">
<path fill="none" stroke="#63b8ff" d="M330.32,-19.52C322.23,-18.3 314,-17.06 306.23,-15.88"/>
<polygon fill="#63b8ff" stroke="#63b8ff" points="329.68,-22.97 340.09,-21 330.72,-16.05 329.68,-22.97"/>
</a>
</g>
</g>
<!-- Node4 -->
<g id="Node000004" class="node">
<title>Node4</title>
<g id="a_Node000004"><a xlink:href="../../dd/dbf/_euler___python___wrapper_8cpp_ac5ccb50c3be270f798e054dd36987442.html#ac5ccb50c3be270f798e054dd36987442" target="_top" xlink:title=" ">
<polygon fill="white" stroke="#666666" points="185.75,-56.25 73,-56.25 73,-37 185.75,-37 185.75,-56.25"/>
<text text-anchor="middle" x="129.38" y="-42.75" font-family="Helvetica,sans-Serif" font-size="10.00">PYBIND11_MODULE</text>
</a>
</g>
</g>
<!-- Node3&#45;&gt;Node4 -->
<g id="edge3_Node000003_Node000004" class="edge">
<title>Node3&#45;&gt;Node4</title>
<g id="a_edge3_Node000003_Node000004"><a xlink:title=" ">
<path fill="none" stroke="#63b8ff" d="M210.77,-46.62C202.62,-46.62 194.17,-46.62 185.94,-46.62"/>
<polygon fill="#63b8ff" stroke="#63b8ff" points="210.53,-50.13 220.53,-46.63 210.53,-43.13 210.53,-50.13"/>
</a>
</g>
</g>
<!-- Node5 -->
<g id="Node000005" class="node">
<title>Node5</title>
<g id="a_Node000005"><a xlink:href="../../d5/d12/_main_8cpp_a35d775933750ace299102f06a1712663.html#a35d775933750ace299102f06a1712663" target="_top" xlink:title=" ">
<polygon fill="white" stroke="#666666" points="158,-19.25 100.75,-19.25 100.75,0 158,0 158,-19.25"/>
<text text-anchor="middle" x="129.38" y="-5.75" font-family="Helvetica,sans-Serif" font-size="10.00">runSolver</text>
</a>
</g>
</g>
<!-- Node3&#45;&gt;Node5 -->
<g id="edge4_Node000003_Node000005" class="edge">
<title>Node3&#45;&gt;Node5</title>
<g id="a_edge4_Node000003_Node000005"><a xlink:title=" ">
<path fill="none" stroke="#63b8ff" d="M215.65,-33.44C196.39,-28.06 174.78,-22.02 158.13,-17.38"/>
<polygon fill="#63b8ff" stroke="#63b8ff" points="214.64,-36.79 225.21,-36.11 216.52,-30.05 214.64,-36.79"/>
</a>
</g>
</g>
<!-- Node6 -->
<g id="Node000006" class="node">
<title>Node6</title>
<g id="a_Node000006"><a xlink:href="../../d5/d12/_main_8cpp_a0ddf1224851353fc92bfbff6f499fa97.html#a0ddf1224851353fc92bfbff6f499fa97" target="_top" xlink:title=" ">
<polygon fill="white" stroke="#666666" points="37,-19.25 0,-19.25 0,0 37,0 37,-19.25"/>
<text text-anchor="middle" x="18.5" y="-5.75" font-family="Helvetica,sans-Serif" font-size="10.00">main</text>
</a>
</g>
</g>
<!-- Node5&#45;&gt;Node6 -->
<g id="edge5_Node000005_Node000006" class="edge">
<title>Node5&#45;&gt;Node6</title>
<g id="a_edge5_Node000005_Node000006"><a xlink:title=" ">
<path fill="none" stroke="#63b8ff" d="M88.84,-9.62C71.14,-9.62 51.16,-9.62 37.22,-9.62"/>
<polygon fill="#63b8ff" stroke="#63b8ff" points="88.82,-13.13 98.82,-9.63 88.82,-6.13 88.82,-13.13"/>
</a>
</g>
</g>
<!-- Node7&#45;&gt;Node4 -->
<g id="edge7_Node000007_Node000004" class="edge">
<title>Node7&#45;&gt;Node4</title>
<g id="a_edge7_Node000007_Node000004"><a xlink:title=" ">
<path fill="none" stroke="#63b8ff" d="M215.78,-22.78C199.59,-27.3 181.72,-32.29 166.54,-36.53"/>
<polygon fill="#63b8ff" stroke="#63b8ff" points="216.52,-26.2 225.21,-20.14 214.64,-19.46 216.52,-26.2"/>
</a>
</g>
</g>
<!-- Node7&#45;&gt;Node5 -->
<g id="edge8_Node000007_Node000005" class="edge">
<title>Node7&#45;&gt;Node5</title>
<g id="a_edge8_Node000007_Node000005"><a xlink:title=" ">
<path fill="none" stroke="#63b8ff" d="M209.97,-9.62C192.33,-9.62 173.37,-9.62 158.38,-9.62"/>
<polygon fill="#63b8ff" stroke="#63b8ff" points="209.8,-13.13 219.8,-9.63 209.8,-6.13 209.8,-13.13"/>
</a>
</g>
</g>
</g>
</svg>
