<?xml version="1.0" encoding="UTF-8" standalone="no"?>
<!DOCTYPE svg PUBLIC "-//W3C//DTD SVG 1.1//EN"
 "http://www.w3.org/Graphics/SVG/1.1/DTD/svg11.dtd">
<!-- Generated by graphviz version 12.2.1 (20241206.2353)
 -->
<!-- Title: Gnuplot::Gnuplot Pages: 1 -->
<svg width="344pt" height="138pt"
 viewBox="0.00 0.00 344.00 138.25" xmlns="http://www.w3.org/2000/svg" xmlns:xlink="http://www.w3.org/1999/xlink">
<g id="graph0" class="graph" transform="scale(1 1) rotate(0) translate(4 134.25)">
<title>Gnuplot::Gnuplot</title>
<!-- Node1 -->
<g id="Node000001" class="node">
<title>Node1</title>
<g id="a_Node000001"><a xlink:title=" ">
<polygon fill="#999999" stroke="#666666" points="89.5,-74.25 0,-74.25 0,-55 89.5,-55 89.5,-74.25"/>
<text text-anchor="middle" x="44.75" y="-60.75" font-family="Helvetica,sans-Serif" font-size="10.00">Gnuplot::Gnuplot</text>
</a>
</g>
</g>
<!-- Node2 -->
<g id="Node000002" class="node">
<title>Node2</title>
<g id="a_Node000002"><a xlink:href="../../d3/d27/class_gnuplot_a1e817a58ef3e40ceaeb128c7e6437e8a.html#a1e817a58ef3e40ceaeb128c7e6437e8a" target="_top" xlink:title=" ">
<polygon fill="white" stroke="#666666" points="219.12,-130.25 131.88,-130.25 131.88,-111 219.12,-111 219.12,-130.25"/>
<text text-anchor="middle" x="175.5" y="-116.75" font-family="Helvetica,sans-Serif" font-size="10.00">Gnuplot::plot_xy</text>
</a>
</g>
</g>
<!-- Node1&#45;&gt;Node2 -->
<g id="edge1_Node000001_Node000002" class="edge">
<title>Node1&#45;&gt;Node2</title>
<g id="a_edge1_Node000001_Node000002"><a xlink:title=" ">
<path fill="none" stroke="#63b8ff" d="M65.51,-74.67C81.51,-82.65 104.72,-93.88 125.5,-102.62 128.51,-103.89 131.65,-105.16 134.82,-106.41"/>
<polygon fill="#63b8ff" stroke="#63b8ff" points="133.56,-109.67 144.15,-109.96 136.05,-103.13 133.56,-109.67"/>
</a>
</g>
</g>
<!-- Node4 -->
<g id="Node000004" class="node">
<title>Node4</title>
<g id="a_Node000004"><a xlink:href="../../d3/d27/class_gnuplot_accdd7b69237ead4109c74e1e440c185f.html#accdd7b69237ead4109c74e1e440c185f" target="_top" xlink:title=" ">
<polygon fill="white" stroke="#666666" points="223.25,-93.25 127.75,-93.25 127.75,-74 223.25,-74 223.25,-93.25"/>
<text text-anchor="middle" x="175.5" y="-79.75" font-family="Helvetica,sans-Serif" font-size="10.00">Gnuplot::set_style</text>
</a>
</g>
</g>
<!-- Node1&#45;&gt;Node4 -->
<g id="edge3_Node000001_Node000004" class="edge">
<title>Node1&#45;&gt;Node4</title>
<g id="a_edge3_Node000001_Node000004"><a xlink:title=" ">
<path fill="none" stroke="#63b8ff" d="M89.7,-71.11C98.3,-72.38 107.45,-73.73 116.43,-75.06"/>
<polygon fill="#63b8ff" stroke="#63b8ff" points="115.77,-78.5 126.17,-76.49 116.79,-71.57 115.77,-78.5"/>
</a>
</g>
</g>
<!-- Node5 -->
<g id="Node000005" class="node">
<title>Node5</title>
<g id="a_Node000005"><a xlink:href="../../d3/d27/class_gnuplot_ac9b0c04d47e375eb82f50437eda5e46e.html#ac9b0c04d47e375eb82f50437eda5e46e" target="_top" xlink:title=" ">
<polygon fill="white" stroke="#666666" points="225.5,-56.25 125.5,-56.25 125.5,-37 225.5,-37 225.5,-56.25"/>
<text text-anchor="middle" x="175.5" y="-42.75" font-family="Helvetica,sans-Serif" font-size="10.00">Gnuplot::set_xlabel</text>
</a>
</g>
</g>
<!-- Node1&#45;&gt;Node5 -->
<g id="edge4_Node000001_Node000005" class="edge">
<title>Node1&#45;&gt;Node5</title>
<g id="a_edge4_Node000001_Node000005"><a xlink:title=" ">
<path fill="none" stroke="#63b8ff" d="M89.7,-58.48C97.42,-57.4 105.58,-56.26 113.67,-55.13"/>
<polygon fill="#63b8ff" stroke="#63b8ff" points="114.08,-58.61 123.5,-53.75 113.11,-51.67 114.08,-58.61"/>
</a>
</g>
</g>
<!-- Node6 -->
<g id="Node000006" class="node">
<title>Node6</title>
<g id="a_Node000006"><a xlink:href="../../d3/d27/class_gnuplot_af85dd1d368699914112460285ead0fde.html#af85dd1d368699914112460285ead0fde" target="_top" xlink:title=" ">
<polygon fill="white" stroke="#666666" points="225.5,-19.25 125.5,-19.25 125.5,0 225.5,0 225.5,-19.25"/>
<text text-anchor="middle" x="175.5" y="-5.75" font-family="Helvetica,sans-Serif" font-size="10.00">Gnuplot::set_ylabel</text>
</a>
</g>
</g>
<!-- Node1&#45;&gt;Node6 -->
<g id="edge6_Node000001_Node000006" class="edge">
<title>Node1&#45;&gt;Node6</title>
<g id="a_edge6_Node000001_Node000006"><a xlink:title=" ">
<path fill="none" stroke="#63b8ff" d="M66.2,-54.57C82.19,-46.85 105.06,-36.1 125.5,-27.62 128.66,-26.31 131.96,-25 135.28,-23.7"/>
<polygon fill="#63b8ff" stroke="#63b8ff" points="136.32,-27.05 144.43,-20.24 133.84,-20.51 136.32,-27.05"/>
</a>
</g>
</g>
<!-- Node3 -->
<g id="Node000003" class="node">
<title>Node3</title>
<g id="a_Node000003"><a xlink:href="../../d3/d27/class_gnuplot_a6f299285af0a0ee2cf1722c469aa1a57.html#a6f299285af0a0ee2cf1722c469aa1a57" target="_top" xlink:title=" ">
<polygon fill="white" stroke="#666666" points="336,-56.25 261.5,-56.25 261.5,-37 336,-37 336,-56.25"/>
<text text-anchor="middle" x="298.75" y="-42.75" font-family="Helvetica,sans-Serif" font-size="10.00">Gnuplot::cmd</text>
</a>
</g>
</g>
<!-- Node2&#45;&gt;Node3 -->
<g id="edge2_Node000002_Node000003" class="edge">
<title>Node2&#45;&gt;Node3</title>
<g id="a_edge2_Node000002_Node000003"><a xlink:title=" ">
<path fill="none" stroke="#63b8ff" d="M208.24,-110.59C214.12,-108.28 220.11,-105.61 225.5,-102.62 245.09,-91.78 265.03,-75.88 278.99,-63.79"/>
<polygon fill="#63b8ff" stroke="#63b8ff" points="280.93,-66.74 286.1,-57.49 276.29,-61.5 280.93,-66.74"/>
</a>
</g>
</g>
<!-- Node5&#45;&gt;Node3 -->
<g id="edge5_Node000005_Node000003" class="edge">
<title>Node5&#45;&gt;Node3</title>
<g id="a_edge5_Node000005_Node000003"><a xlink:title=" ">
<path fill="none" stroke="#63b8ff" d="M225.82,-46.62C233.75,-46.62 241.94,-46.62 249.84,-46.62"/>
<polygon fill="#63b8ff" stroke="#63b8ff" points="249.61,-50.13 259.61,-46.63 249.61,-43.13 249.61,-50.13"/>
</a>
</g>
</g>
<!-- Node6&#45;&gt;Node3 -->
<g id="edge7_Node000006_Node000003" class="edge">
<title>Node6&#45;&gt;Node3</title>
<g id="a_edge7_Node000006_Node000003"><a xlink:title=" ">
<path fill="none" stroke="#63b8ff" d="M209.63,-19.74C223.27,-23.9 239.25,-28.77 253.84,-33.23"/>
<polygon fill="#63b8ff" stroke="#63b8ff" points="252.62,-36.51 263.21,-36.09 254.67,-29.82 252.62,-36.51"/>
</a>
</g>
</g>
</g>
</svg>
