<?xml version="1.0" encoding="UTF-8" standalone="no"?>
<!DOCTYPE svg PUBLIC "-//W3C//DTD SVG 1.1//EN"
 "http://www.w3.org/Graphics/SVG/1.1/DTD/svg11.dtd">
<!-- Generated by graphviz version 12.2.1 (20241206.2353)
 -->
<!-- Title: Gnuplot::Gnuplot Pages: 1 -->
<svg width="344pt" height="215pt"
 viewBox="0.00 0.00 344.00 215.25" xmlns="http://www.w3.org/2000/svg" xmlns:xlink="http://www.w3.org/1999/xlink">
<g id="graph0" class="graph" transform="scale(1 1) rotate(0) translate(4 211.25)">
<title>Gnuplot::Gnuplot</title>
<!-- Node1 -->
<g id="Node000001" class="node">
<title>Node1</title>
<g id="a_Node000001"><a xlink:title=" ">
<polygon fill="#999999" stroke="#666666" points="89.5,-114.25 0,-114.25 0,-95 89.5,-95 89.5,-114.25"/>
<text text-anchor="middle" x="44.75" y="-100.75" font-family="Helvetica,sans-Serif" font-size="10.00">Gnuplot::Gnuplot</text>
</a>
</g>
</g>
<!-- Node2 -->
<g id="Node000002" class="node">
<title>Node2</title>
<g id="a_Node000002"><a xlink:href="../../d3/d27/class_gnuplot_a1e817a58ef3e40ceaeb128c7e6437e8a.html#a1e817a58ef3e40ceaeb128c7e6437e8a" target="_top" xlink:title=" ">
<polygon fill="white" stroke="#666666" points="219.12,-133.25 131.88,-133.25 131.88,-114 219.12,-114 219.12,-133.25"/>
<text text-anchor="middle" x="175.5" y="-119.75" font-family="Helvetica,sans-Serif" font-size="10.00">Gnuplot::plot_xy</text>
</a>
</g>
</g>
<!-- Node1&#45;&gt;Node2 -->
<g id="edge1_Node000001_Node000002" class="edge">
<title>Node1&#45;&gt;Node2</title>
<g id="a_edge1_Node000001_Node000002"><a xlink:title=" ">
<path fill="none" stroke="#63b8ff" d="M89.7,-111.11C99.54,-112.56 110.1,-114.12 120.3,-115.63"/>
<polygon fill="#63b8ff" stroke="#63b8ff" points="119.72,-119.08 130.12,-117.08 120.74,-112.15 119.72,-119.08"/>
</a>
</g>
</g>
<!-- Node4 -->
<g id="Node000004" class="node">
<title>Node4</title>
<g id="a_Node000004"><a xlink:href="../../d3/d82/_c_type___elliptic___grid_8cpp_a9d9acf133a5b966f0cbd16a2c57a7d79.html#a9d9acf133a5b966f0cbd16a2c57a7d79" target="_top" xlink:title=" ">
<polygon fill="white" stroke="#666666" points="313.15,-114.25 284.35,-114.25 284.35,-95 313.15,-95 313.15,-114.25"/>
<text text-anchor="middle" x="298.75" y="-100.75" font-family="Helvetica,sans-Serif" font-size="10.00">x</text>
</a>
</g>
</g>
<!-- Node1&#45;&gt;Node4 -->
<g id="edge10_Node000001_Node000004" class="edge">
<title>Node1&#45;&gt;Node4</title>
<g id="a_edge10_Node000001_Node000004"><a xlink:title=" ">
<path fill="none" stroke="#63b8ff" d="M89.93,-104.62C142.88,-104.62 229.78,-104.62 272.47,-104.62"/>
<polygon fill="#63b8ff" stroke="#63b8ff" points="272.47,-108.13 282.47,-104.63 272.47,-101.13 272.47,-108.13"/>
</a>
</g>
</g>
<!-- Node5 -->
<g id="Node000005" class="node">
<title>Node5</title>
<g id="a_Node000005"><a xlink:href="../../d3/d82/_c_type___elliptic___grid_8cpp_aae4b761a64c952b4c008655d1dc59a12.html#aae4b761a64c952b4c008655d1dc59a12" target="_top" xlink:title=" ">
<polygon fill="white" stroke="#666666" points="313.15,-77.25 284.35,-77.25 284.35,-58 313.15,-58 313.15,-77.25"/>
<text text-anchor="middle" x="298.75" y="-63.75" font-family="Helvetica,sans-Serif" font-size="10.00">y</text>
</a>
</g>
</g>
<!-- Node1&#45;&gt;Node5 -->
<g id="edge11_Node000001_Node000005" class="edge">
<title>Node1&#45;&gt;Node5</title>
<g id="a_edge11_Node000001_Node000005"><a xlink:title=" ">
<path fill="none" stroke="#63b8ff" d="M89.93,-98.14C142.99,-90.35 230.16,-77.55 272.75,-71.3"/>
<polygon fill="#63b8ff" stroke="#63b8ff" points="273.1,-74.78 282.49,-69.87 272.08,-67.86 273.1,-74.78"/>
</a>
</g>
</g>
<!-- Node6 -->
<g id="Node000006" class="node">
<title>Node6</title>
<g id="a_Node000006"><a xlink:href="../../d3/d27/class_gnuplot_accdd7b69237ead4109c74e1e440c185f.html#accdd7b69237ead4109c74e1e440c185f" target="_top" xlink:title=" ">
<polygon fill="white" stroke="#666666" points="223.25,-19.25 127.75,-19.25 127.75,0 223.25,0 223.25,-19.25"/>
<text text-anchor="middle" x="175.5" y="-5.75" font-family="Helvetica,sans-Serif" font-size="10.00">Gnuplot::set_style</text>
</a>
</g>
</g>
<!-- Node1&#45;&gt;Node6 -->
<g id="edge5_Node000001_Node000006" class="edge">
<title>Node1&#45;&gt;Node6</title>
<g id="a_edge5_Node000001_Node000006"><a xlink:title=" ">
<path fill="none" stroke="#63b8ff" d="M54.87,-94.97C69,-80.39 97.49,-52.44 125.5,-33.62 130.29,-30.41 135.58,-27.36 140.85,-24.59"/>
<polygon fill="#63b8ff" stroke="#63b8ff" points="142.1,-27.88 149.49,-20.29 138.98,-21.61 142.1,-27.88"/>
</a>
</g>
</g>
<!-- Node7 -->
<g id="Node000007" class="node">
<title>Node7</title>
<g id="a_Node000007"><a xlink:href="../../d3/d27/class_gnuplot_ac9b0c04d47e375eb82f50437eda5e46e.html#ac9b0c04d47e375eb82f50437eda5e46e" target="_top" xlink:title=" ">
<polygon fill="white" stroke="#666666" points="225.5,-207.25 125.5,-207.25 125.5,-188 225.5,-188 225.5,-207.25"/>
<text text-anchor="middle" x="175.5" y="-193.75" font-family="Helvetica,sans-Serif" font-size="10.00">Gnuplot::set_xlabel</text>
</a>
</g>
</g>
<!-- Node1&#45;&gt;Node7 -->
<g id="edge6_Node000001_Node000007" class="edge">
<title>Node1&#45;&gt;Node7</title>
<g id="a_edge6_Node000001_Node000007"><a xlink:title=" ">
<path fill="none" stroke="#63b8ff" d="M54.07,-114.72C67.57,-130.54 95.75,-161.25 125.5,-179.62 127.35,-180.77 129.28,-181.86 131.27,-182.89"/>
<polygon fill="#63b8ff" stroke="#63b8ff" points="129.56,-185.95 140.11,-186.95 132.48,-179.59 129.56,-185.95"/>
</a>
</g>
</g>
<!-- Node8 -->
<g id="Node000008" class="node">
<title>Node8</title>
<g id="a_Node000008"><a xlink:href="../../d3/d27/class_gnuplot_af85dd1d368699914112460285ead0fde.html#af85dd1d368699914112460285ead0fde" target="_top" xlink:title=" ">
<polygon fill="white" stroke="#666666" points="225.5,-170.25 125.5,-170.25 125.5,-151 225.5,-151 225.5,-170.25"/>
<text text-anchor="middle" x="175.5" y="-156.75" font-family="Helvetica,sans-Serif" font-size="10.00">Gnuplot::set_ylabel</text>
</a>
</g>
</g>
<!-- Node1&#45;&gt;Node8 -->
<g id="edge8_Node000001_Node000008" class="edge">
<title>Node1&#45;&gt;Node8</title>
<g id="a_edge8_Node000001_Node000008"><a xlink:title=" ">
<path fill="none" stroke="#63b8ff" d="M65.51,-114.67C81.51,-122.65 104.72,-133.88 125.5,-142.62 128.51,-143.89 131.65,-145.16 134.82,-146.41"/>
<polygon fill="#63b8ff" stroke="#63b8ff" points="133.56,-149.67 144.15,-149.96 136.05,-143.13 133.56,-149.67"/>
</a>
</g>
</g>
<!-- Node3 -->
<g id="Node000003" class="node">
<title>Node3</title>
<g id="a_Node000003"><a xlink:href="../../d3/d27/class_gnuplot_a6f299285af0a0ee2cf1722c469aa1a57.html#a6f299285af0a0ee2cf1722c469aa1a57" target="_top" xlink:title=" ">
<polygon fill="white" stroke="#666666" points="336,-170.25 261.5,-170.25 261.5,-151 336,-151 336,-170.25"/>
<text text-anchor="middle" x="298.75" y="-156.75" font-family="Helvetica,sans-Serif" font-size="10.00">Gnuplot::cmd</text>
</a>
</g>
</g>
<!-- Node2&#45;&gt;Node3 -->
<g id="edge2_Node000002_Node000003" class="edge">
<title>Node2&#45;&gt;Node3</title>
<g id="a_edge2_Node000002_Node000003"><a xlink:title=" ">
<path fill="none" stroke="#63b8ff" d="M209.63,-133.74C223.27,-137.9 239.25,-142.77 253.84,-147.23"/>
<polygon fill="#63b8ff" stroke="#63b8ff" points="252.62,-150.51 263.21,-150.09 254.67,-143.82 252.62,-150.51"/>
</a>
</g>
</g>
<!-- Node2&#45;&gt;Node4 -->
<g id="edge3_Node000002_Node000004" class="edge">
<title>Node2&#45;&gt;Node4</title>
<g id="a_edge3_Node000002_Node000004"><a xlink:title=" ">
<path fill="none" stroke="#63b8ff" d="M219.59,-116.87C237.42,-114.08 257.47,-110.94 272.79,-108.54"/>
<polygon fill="#63b8ff" stroke="#63b8ff" points="273.11,-112.03 282.45,-107.02 272.02,-105.11 273.11,-112.03"/>
</a>
</g>
</g>
<!-- Node2&#45;&gt;Node5 -->
<g id="edge4_Node000002_Node000005" class="edge">
<title>Node2&#45;&gt;Node5</title>
<g id="a_edge4_Node000002_Node000005"><a xlink:title=" ">
<path fill="none" stroke="#63b8ff" d="M198.18,-113.61C219.5,-103.76 251.98,-88.76 274,-78.59"/>
<polygon fill="#63b8ff" stroke="#63b8ff" points="275.17,-81.91 282.79,-74.54 272.24,-75.55 275.17,-81.91"/>
</a>
</g>
</g>
<!-- Node7&#45;&gt;Node3 -->
<g id="edge7_Node000007_Node000003" class="edge">
<title>Node7&#45;&gt;Node3</title>
<g id="a_edge7_Node000007_Node000003"><a xlink:title=" ">
<path fill="none" stroke="#63b8ff" d="M209.63,-187.51C223.27,-183.35 239.25,-178.48 253.84,-174.02"/>
<polygon fill="#63b8ff" stroke="#63b8ff" points="254.67,-177.43 263.21,-171.16 252.62,-170.74 254.67,-177.43"/>
</a>
</g>
</g>
<!-- Node8&#45;&gt;Node3 -->
<g id="edge9_Node000008_Node000003" class="edge">
<title>Node8&#45;&gt;Node3</title>
<g id="a_edge9_Node000008_Node000003"><a xlink:title=" ">
<path fill="none" stroke="#63b8ff" d="M225.82,-160.62C233.75,-160.62 241.94,-160.62 249.84,-160.62"/>
<polygon fill="#63b8ff" stroke="#63b8ff" points="249.61,-164.13 259.61,-160.63 249.61,-157.13 249.61,-164.13"/>
</a>
</g>
</g>
</g>
</svg>
