<?xml version="1.0" encoding="UTF-8" standalone="no"?>
<!DOCTYPE svg PUBLIC "-//W3C//DTD SVG 1.1//EN"
 "http://www.w3.org/Graphics/SVG/1.1/DTD/svg11.dtd">
<!-- Generated by graphviz version 12.2.1 (20241206.2353)
 -->
<!-- Title: Gnuplot::cmd Pages: 1 -->
<svg width="358pt" height="212pt"
 viewBox="0.00 0.00 357.50 212.25" xmlns="http://www.w3.org/2000/svg" xmlns:xlink="http://www.w3.org/1999/xlink">
<g id="graph0" class="graph" transform="scale(1 1) rotate(0) translate(4 208.25)">
<title>Gnuplot::cmd</title>
<!-- Node1 -->
<g id="Node000001" class="node">
<title>Node1</title>
<g id="a_Node000001"><a xlink:title=" ">
<polygon fill="#999999" stroke="#666666" points="349.5,-111.25 275,-111.25 275,-92 349.5,-92 349.5,-111.25"/>
<text text-anchor="middle" x="312.25" y="-97.75" font-family="Helvetica,sans-Serif" font-size="10.00">Gnuplot::cmd</text>
</a>
</g>
</g>
<!-- Node2 -->
<g id="Node000002" class="node">
<title>Node2</title>
<g id="a_Node000002"><a xlink:href="../../d3/d27/class_gnuplot_a55e6430f1329bf8a66f155dcacb9d112.html#a55e6430f1329bf8a66f155dcacb9d112" target="_top" xlink:title=" ">
<polygon fill="white" stroke="#666666" points="239,-204.25 125.5,-204.25 125.5,-185 239,-185 239,-204.25"/>
<text text-anchor="middle" x="182.25" y="-190.75" font-family="Helvetica,sans-Serif" font-size="10.00">Gnuplot::plot_equation</text>
</a>
</g>
</g>
<!-- Node1&#45;&gt;Node2 -->
<g id="edge1_Node000001_Node000002" class="edge">
<title>Node1&#45;&gt;Node2</title>
<g id="a_edge1_Node000001_Node000002"><a xlink:title=" ">
<path fill="none" stroke="#63b8ff" d="M297.4,-120.62C284.15,-137.53 262.72,-161.82 239,-176.62 234,-179.75 228.4,-182.38 222.73,-184.59"/>
<polygon fill="#63b8ff" stroke="#63b8ff" points="300.03,-122.93 303.29,-112.85 294.46,-118.7 300.03,-122.93"/>
</a>
</g>
</g>
<!-- Node3 -->
<g id="Node000003" class="node">
<title>Node3</title>
<g id="a_Node000003"><a xlink:href="../../d3/d27/class_gnuplot_a80c9d9e6bc3e64db073d9d39d6ec5d5f.html#a80c9d9e6bc3e64db073d9d39d6ec5d5f" target="_top" xlink:title=" ">
<polygon fill="white" stroke="#666666" points="232.25,-167.25 132.25,-167.25 132.25,-148 232.25,-148 232.25,-167.25"/>
<text text-anchor="middle" x="182.25" y="-153.75" font-family="Helvetica,sans-Serif" font-size="10.00">Gnuplot::plot_slope</text>
</a>
</g>
</g>
<!-- Node1&#45;&gt;Node3 -->
<g id="edge2_Node000001_Node000003" class="edge">
<title>Node1&#45;&gt;Node3</title>
<g id="a_edge2_Node000001_Node000003"><a xlink:title=" ">
<path fill="none" stroke="#63b8ff" d="M284.19,-117.27C270.85,-124.62 254.36,-133.16 239,-139.62 232.16,-142.5 224.68,-145.21 217.49,-147.6"/>
<polygon fill="#63b8ff" stroke="#63b8ff" points="285.8,-120.38 292.82,-112.44 282.38,-114.28 285.8,-120.38"/>
</a>
</g>
</g>
<!-- Node4 -->
<g id="Node000004" class="node">
<title>Node4</title>
<g id="a_Node000004"><a xlink:href="../../d3/d27/class_gnuplot_ae3b7c28efb53f636431b9655085906be.html#ae3b7c28efb53f636431b9655085906be" target="_top" xlink:title=" ">
<polygon fill="white" stroke="#666666" points="223.25,-19.25 141.25,-19.25 141.25,0 223.25,0 223.25,-19.25"/>
<text text-anchor="middle" x="182.25" y="-5.75" font-family="Helvetica,sans-Serif" font-size="10.00">Gnuplot::plot_x</text>
</a>
</g>
</g>
<!-- Node1&#45;&gt;Node4 -->
<g id="edge3_Node000001_Node000004" class="edge">
<title>Node1&#45;&gt;Node4</title>
<g id="a_edge3_Node000001_Node000004"><a xlink:title=" ">
<path fill="none" stroke="#63b8ff" d="M297.34,-82.89C284.05,-66.21 262.6,-42.25 239,-27.62 233.99,-24.52 228.38,-21.89 222.71,-19.69"/>
<polygon fill="#63b8ff" stroke="#63b8ff" points="294.37,-84.77 303.25,-90.55 299.91,-80.49 294.37,-84.77"/>
</a>
</g>
</g>
<!-- Node7 -->
<g id="Node000007" class="node">
<title>Node7</title>
<g id="a_Node000007"><a xlink:href="../../d3/d27/class_gnuplot_a1e817a58ef3e40ceaeb128c7e6437e8a.html#a1e817a58ef3e40ceaeb128c7e6437e8a" target="_top" xlink:title=" ">
<polygon fill="white" stroke="#666666" points="225.88,-56.25 138.62,-56.25 138.62,-37 225.88,-37 225.88,-56.25"/>
<text text-anchor="middle" x="182.25" y="-42.75" font-family="Helvetica,sans-Serif" font-size="10.00">Gnuplot::plot_xy</text>
</a>
</g>
</g>
<!-- Node1&#45;&gt;Node7 -->
<g id="edge6_Node000001_Node000007" class="edge">
<title>Node1&#45;&gt;Node7</title>
<g id="a_edge6_Node000001_Node000007"><a xlink:title=" ">
<path fill="none" stroke="#63b8ff" d="M283.61,-86.14C270.35,-79.06 254.1,-70.88 239,-64.62 232.14,-61.78 224.66,-59.1 217.47,-56.71"/>
<polygon fill="#63b8ff" stroke="#63b8ff" points="281.73,-89.11 292.19,-90.8 285.07,-82.96 281.73,-89.11"/>
</a>
</g>
</g>
<!-- Node9 -->
<g id="Node000009" class="node">
<title>Node9</title>
<g id="a_Node000009"><a xlink:href="../../d3/d27/class_gnuplot_ac9b0c04d47e375eb82f50437eda5e46e.html#ac9b0c04d47e375eb82f50437eda5e46e" target="_top" xlink:title=" ">
<polygon fill="white" stroke="#666666" points="232.25,-130.25 132.25,-130.25 132.25,-111 232.25,-111 232.25,-130.25"/>
<text text-anchor="middle" x="182.25" y="-116.75" font-family="Helvetica,sans-Serif" font-size="10.00">Gnuplot::set_xlabel</text>
</a>
</g>
</g>
<!-- Node1&#45;&gt;Node9 -->
<g id="edge9_Node000001_Node000009" class="edge">
<title>Node1&#45;&gt;Node9</title>
<g id="a_edge9_Node000001_Node000009"><a xlink:title=" ">
<path fill="none" stroke="#63b8ff" d="M263.42,-108.73C253.27,-110.23 242.54,-111.82 232.34,-113.34"/>
<polygon fill="#63b8ff" stroke="#63b8ff" points="263.7,-112.22 273.07,-107.29 262.67,-105.3 263.7,-112.22"/>
</a>
</g>
</g>
<!-- Node10 -->
<g id="Node000010" class="node">
<title>Node10</title>
<g id="a_Node000010"><a xlink:href="../../d3/d27/class_gnuplot_af85dd1d368699914112460285ead0fde.html#af85dd1d368699914112460285ead0fde" target="_top" xlink:title=" ">
<polygon fill="white" stroke="#666666" points="232.25,-93.25 132.25,-93.25 132.25,-74 232.25,-74 232.25,-93.25"/>
<text text-anchor="middle" x="182.25" y="-79.75" font-family="Helvetica,sans-Serif" font-size="10.00">Gnuplot::set_ylabel</text>
</a>
</g>
</g>
<!-- Node1&#45;&gt;Node10 -->
<g id="edge12_Node000001_Node000010" class="edge">
<title>Node1&#45;&gt;Node10</title>
<g id="a_edge12_Node000001_Node000010"><a xlink:title=" ">
<path fill="none" stroke="#63b8ff" d="M263.42,-94.9C253.27,-93.47 242.54,-91.96 232.34,-90.53"/>
<polygon fill="#63b8ff" stroke="#63b8ff" points="262.68,-98.33 273.07,-96.26 263.66,-91.4 262.68,-98.33"/>
</a>
</g>
</g>
<!-- Node5 -->
<g id="Node000005" class="node">
<title>Node5</title>
<g id="a_Node000005"><a xlink:href="../../d3/d27/class_gnuplot_a22ec497060171153b0ce321763e9c7f9.html#a22ec497060171153b0ce321763e9c7f9" target="_top" xlink:title=" ">
<polygon fill="white" stroke="#666666" points="89.5,-83.25 0,-83.25 0,-64 89.5,-64 89.5,-83.25"/>
<text text-anchor="middle" x="44.75" y="-69.75" font-family="Helvetica,sans-Serif" font-size="10.00">Gnuplot::Gnuplot</text>
</a>
</g>
</g>
<!-- Node4&#45;&gt;Node5 -->
<g id="edge4_Node000004_Node000005" class="edge">
<title>Node4&#45;&gt;Node5</title>
<g id="a_edge4_Node000004_Node000005"><a xlink:title=" ">
<path fill="none" stroke="#63b8ff" d="M135.29,-23.6C131.95,-24.88 128.65,-26.23 125.5,-27.62 113.01,-33.17 81.62,-51.83 62.16,-63.61"/>
<polygon fill="#63b8ff" stroke="#63b8ff" points="136.38,-26.93 144.61,-20.26 134.01,-20.34 136.38,-26.93"/>
</a>
</g>
</g>
<!-- Node6 -->
<g id="Node000006" class="node">
<title>Node6</title>
<g id="a_Node000006"><a xlink:href="../../d5/dee/_data___analyze_8cpp_ae66f6b31b5ad750f1fe042a706a4e3d4.html#ae66f6b31b5ad750f1fe042a706a4e3d4" target="_top" xlink:title=" ">
<polygon fill="white" stroke="#666666" points="63.25,-37.25 26.25,-37.25 26.25,-18 63.25,-18 63.25,-37.25"/>
<text text-anchor="middle" x="44.75" y="-23.75" font-family="Helvetica,sans-Serif" font-size="10.00">main</text>
</a>
</g>
</g>
<!-- Node4&#45;&gt;Node6 -->
<g id="edge5_Node000004_Node000006" class="edge">
<title>Node4&#45;&gt;Node6</title>
<g id="a_edge5_Node000004_Node000006"><a xlink:title=" ">
<path fill="none" stroke="#63b8ff" d="M129.78,-16.46C106.44,-19.56 80.35,-23.03 63.53,-25.26"/>
<polygon fill="#63b8ff" stroke="#63b8ff" points="130.01,-19.96 139.46,-15.18 129.09,-13.02 130.01,-19.96"/>
</a>
</g>
</g>
<!-- Node7&#45;&gt;Node6 -->
<g id="edge8_Node000007_Node000006" class="edge">
<title>Node7&#45;&gt;Node6</title>
<g id="a_edge8_Node000007_Node000006"><a xlink:title=" ">
<path fill="none" stroke="#63b8ff" d="M127.13,-39.04C104.49,-35.86 79.72,-32.39 63.53,-30.12"/>
<polygon fill="#63b8ff" stroke="#63b8ff" points="126.49,-42.48 136.88,-40.4 127.46,-35.55 126.49,-42.48"/>
</a>
</g>
</g>
<!-- Node8 -->
<g id="Node000008" class="node">
<title>Node8</title>
<g id="a_Node000008"><a xlink:href="../../d3/d27/class_gnuplot_a93344aa5bd86c3ee4ab37aaa6bff92e0.html#a93344aa5bd86c3ee4ab37aaa6bff92e0" target="_top" xlink:title=" ">
<polygon fill="white" stroke="#666666" points="89.5,-120.25 0,-120.25 0,-101 89.5,-101 89.5,-120.25"/>
<text text-anchor="middle" x="44.75" y="-106.75" font-family="Helvetica,sans-Serif" font-size="10.00">Gnuplot::Gnuplot</text>
</a>
</g>
</g>
<!-- Node7&#45;&gt;Node8 -->
<g id="edge7_Node000007_Node000008" class="edge">
<title>Node7&#45;&gt;Node8</title>
<g id="a_edge7_Node000007_Node000008"><a xlink:title=" ">
<path fill="none" stroke="#63b8ff" d="M133.34,-60.86C130.65,-62.04 128.02,-63.29 125.5,-64.62 107.58,-74.1 107.03,-82.45 89.5,-92.62 84.38,-95.59 78.69,-98.31 73.14,-100.69"/>
<polygon fill="#63b8ff" stroke="#63b8ff" points="134.5,-64.16 142.51,-57.23 131.93,-57.65 134.5,-64.16"/>
</a>
</g>
</g>
<!-- Node9&#45;&gt;Node5 -->
<g id="edge10_Node000009_Node000005" class="edge">
<title>Node9&#45;&gt;Node5</title>
<g id="a_edge10_Node000009_Node000005"><a xlink:title=" ">
<path fill="none" stroke="#63b8ff" d="M138.51,-107C134.11,-105.55 129.71,-104.07 125.5,-102.62 107.8,-96.55 88.04,-89.37 72.61,-83.67"/>
<polygon fill="#63b8ff" stroke="#63b8ff" points="137.31,-110.29 147.9,-110.07 139.49,-103.64 137.31,-110.29"/>
</a>
</g>
</g>
<!-- Node9&#45;&gt;Node8 -->
<g id="edge11_Node000009_Node000008" class="edge">
<title>Node9&#45;&gt;Node8</title>
<g id="a_edge11_Node000009_Node000008"><a xlink:title=" ">
<path fill="none" stroke="#63b8ff" d="M120.79,-116.16C110.38,-115.39 99.73,-114.61 89.85,-113.88"/>
<polygon fill="#63b8ff" stroke="#63b8ff" points="120.21,-119.63 130.44,-116.88 120.72,-112.65 120.21,-119.63"/>
</a>
</g>
</g>
<!-- Node10&#45;&gt;Node5 -->
<g id="edge13_Node000010_Node000005" class="edge">
<title>Node10&#45;&gt;Node5</title>
<g id="a_edge13_Node000010_Node000005"><a xlink:title=" ">
<path fill="none" stroke="#63b8ff" d="M120.79,-79.16C110.38,-78.39 99.73,-77.61 89.85,-76.88"/>
<polygon fill="#63b8ff" stroke="#63b8ff" points="120.21,-82.63 130.44,-79.88 120.72,-75.65 120.21,-82.63"/>
</a>
</g>
</g>
<!-- Node10&#45;&gt;Node8 -->
<g id="edge14_Node000010_Node000008" class="edge">
<title>Node10&#45;&gt;Node8</title>
<g id="a_edge14_Node000010_Node000008"><a xlink:title=" ">
<path fill="none" stroke="#63b8ff" d="M120.79,-95.67C110.38,-97.75 99.73,-99.87 89.85,-101.84"/>
<polygon fill="#63b8ff" stroke="#63b8ff" points="121.34,-99.13 130.46,-93.74 119.97,-92.27 121.34,-99.13"/>
</a>
</g>
</g>
</g>
</svg>
