<?xml version="1.0" encoding="UTF-8" standalone="no"?>
<!DOCTYPE svg PUBLIC "-//W3C//DTD SVG 1.1//EN"
 "http://www.w3.org/Graphics/SVG/1.1/DTD/svg11.dtd">
<!-- Generated by graphviz version 12.2.1 (20241206.2353)
 -->
<!-- Title: Gnuplot::Gnuplot Pages: 1 -->
<svg width="344pt" height="175pt"
 viewBox="0.00 0.00 344.00 175.25" xmlns="http://www.w3.org/2000/svg" xmlns:xlink="http://www.w3.org/1999/xlink">
<g id="graph0" class="graph" transform="scale(1 1) rotate(0) translate(4 171.25)">
<title>Gnuplot::Gnuplot</title>
<!-- Node1 -->
<g id="Node000001" class="node">
<title>Node1</title>
<g id="a_Node000001"><a xlink:title=" ">
<polygon fill="#999999" stroke="#666666" points="89.5,-93.25 0,-93.25 0,-74 89.5,-74 89.5,-93.25"/>
<text text-anchor="middle" x="44.75" y="-79.75" font-family="Helvetica,sans-Serif" font-size="10.00">Gnuplot::Gnuplot</text>
</a>
</g>
</g>
<!-- Node2 -->
<g id="Node000002" class="node">
<title>Node2</title>
<g id="a_Node000002"><a xlink:href="../../d3/d27/class_gnuplot_ae3b7c28efb53f636431b9655085906be.html#ae3b7c28efb53f636431b9655085906be" target="_top" xlink:title=" ">
<polygon fill="white" stroke="#666666" points="216.5,-167.25 134.5,-167.25 134.5,-148 216.5,-148 216.5,-167.25"/>
<text text-anchor="middle" x="175.5" y="-153.75" font-family="Helvetica,sans-Serif" font-size="10.00">Gnuplot::plot_x</text>
</a>
</g>
</g>
<!-- Node1&#45;&gt;Node2 -->
<g id="edge1_Node000001_Node000002" class="edge">
<title>Node1&#45;&gt;Node2</title>
<g id="a_edge1_Node000001_Node000002"><a xlink:title=" ">
<path fill="none" stroke="#63b8ff" d="M57.81,-93.61C72.9,-105.73 99.87,-126.21 125.5,-139.62 127.87,-140.87 130.35,-142.06 132.87,-143.2"/>
<polygon fill="#63b8ff" stroke="#63b8ff" points="131.41,-146.39 141.99,-147 134.11,-139.92 131.41,-146.39"/>
</a>
</g>
</g>
<!-- Node4 -->
<g id="Node000004" class="node">
<title>Node4</title>
<g id="a_Node000004"><a xlink:href="../../d3/d27/class_gnuplot_accdd7b69237ead4109c74e1e440c185f.html#accdd7b69237ead4109c74e1e440c185f" target="_top" xlink:title=" ">
<polygon fill="white" stroke="#666666" points="223.25,-130.25 127.75,-130.25 127.75,-111 223.25,-111 223.25,-130.25"/>
<text text-anchor="middle" x="175.5" y="-116.75" font-family="Helvetica,sans-Serif" font-size="10.00">Gnuplot::set_style</text>
</a>
</g>
</g>
<!-- Node1&#45;&gt;Node4 -->
<g id="edge3_Node000001_Node000004" class="edge">
<title>Node1&#45;&gt;Node4</title>
<g id="a_edge3_Node000001_Node000004"><a xlink:title=" ">
<path fill="none" stroke="#63b8ff" d="M80.93,-93.74C95.55,-97.94 112.72,-102.87 128.33,-107.36"/>
<polygon fill="#63b8ff" stroke="#63b8ff" points="127.33,-110.71 137.91,-110.11 129.26,-103.98 127.33,-110.71"/>
</a>
</g>
</g>
<!-- Node5 -->
<g id="Node000005" class="node">
<title>Node5</title>
<g id="a_Node000005"><a xlink:href="../../d3/d27/class_gnuplot_ac9b0c04d47e375eb82f50437eda5e46e.html#ac9b0c04d47e375eb82f50437eda5e46e" target="_top" xlink:title=" ">
<polygon fill="white" stroke="#666666" points="225.5,-93.25 125.5,-93.25 125.5,-74 225.5,-74 225.5,-93.25"/>
<text text-anchor="middle" x="175.5" y="-79.75" font-family="Helvetica,sans-Serif" font-size="10.00">Gnuplot::set_xlabel</text>
</a>
</g>
</g>
<!-- Node1&#45;&gt;Node5 -->
<g id="edge4_Node000001_Node000005" class="edge">
<title>Node1&#45;&gt;Node5</title>
<g id="a_edge4_Node000001_Node000005"><a xlink:title=" ">
<path fill="none" stroke="#63b8ff" d="M89.7,-83.62C97.42,-83.62 105.58,-83.62 113.67,-83.62"/>
<polygon fill="#63b8ff" stroke="#63b8ff" points="113.49,-87.13 123.49,-83.63 113.49,-80.13 113.49,-87.13"/>
</a>
</g>
</g>
<!-- Node6 -->
<g id="Node000006" class="node">
<title>Node6</title>
<g id="a_Node000006"><a xlink:href="../../d3/d27/class_gnuplot_af85dd1d368699914112460285ead0fde.html#af85dd1d368699914112460285ead0fde" target="_top" xlink:title=" ">
<polygon fill="white" stroke="#666666" points="225.5,-56.25 125.5,-56.25 125.5,-37 225.5,-37 225.5,-56.25"/>
<text text-anchor="middle" x="175.5" y="-42.75" font-family="Helvetica,sans-Serif" font-size="10.00">Gnuplot::set_ylabel</text>
</a>
</g>
</g>
<!-- Node1&#45;&gt;Node6 -->
<g id="edge6_Node000001_Node000006" class="edge">
<title>Node1&#45;&gt;Node6</title>
<g id="a_edge6_Node000001_Node000006"><a xlink:title=" ">
<path fill="none" stroke="#63b8ff" d="M80.93,-73.51C95.55,-69.31 112.72,-64.38 128.33,-59.89"/>
<polygon fill="#63b8ff" stroke="#63b8ff" points="129.26,-63.27 137.91,-57.14 127.33,-56.54 129.26,-63.27"/>
</a>
</g>
</g>
<!-- Node7 -->
<g id="Node000007" class="node">
<title>Node7</title>
<g id="a_Node000007"><a xlink:href="../../d3/d82/_c_type___elliptic___grid_8cpp_a9d9acf133a5b966f0cbd16a2c57a7d79.html#a9d9acf133a5b966f0cbd16a2c57a7d79" target="_top" xlink:title=" ">
<polygon fill="white" stroke="#666666" points="189.9,-19.25 161.1,-19.25 161.1,0 189.9,0 189.9,-19.25"/>
<text text-anchor="middle" x="175.5" y="-5.75" font-family="Helvetica,sans-Serif" font-size="10.00">x</text>
</a>
</g>
</g>
<!-- Node1&#45;&gt;Node7 -->
<g id="edge8_Node000001_Node000007" class="edge">
<title>Node1&#45;&gt;Node7</title>
<g id="a_edge8_Node000001_Node000007"><a xlink:title=" ">
<path fill="none" stroke="#63b8ff" d="M57.81,-73.64C72.9,-61.52 99.87,-41.04 125.5,-27.62 133.16,-23.62 141.92,-20.1 149.89,-17.26"/>
<polygon fill="#63b8ff" stroke="#63b8ff" points="150.98,-20.58 159.35,-14.09 148.76,-13.94 150.98,-20.58"/>
</a>
</g>
</g>
<!-- Node3 -->
<g id="Node000003" class="node">
<title>Node3</title>
<g id="a_Node000003"><a xlink:href="../../d3/d27/class_gnuplot_a6f299285af0a0ee2cf1722c469aa1a57.html#a6f299285af0a0ee2cf1722c469aa1a57" target="_top" xlink:title=" ">
<polygon fill="white" stroke="#666666" points="336,-93.25 261.5,-93.25 261.5,-74 336,-74 336,-93.25"/>
<text text-anchor="middle" x="298.75" y="-79.75" font-family="Helvetica,sans-Serif" font-size="10.00">Gnuplot::cmd</text>
</a>
</g>
</g>
<!-- Node2&#45;&gt;Node3 -->
<g id="edge2_Node000002_Node000003" class="edge">
<title>Node2&#45;&gt;Node3</title>
<g id="a_edge2_Node000002_Node000003"><a xlink:title=" ">
<path fill="none" stroke="#63b8ff" d="M208.24,-147.59C214.12,-145.28 220.11,-142.61 225.5,-139.62 245.09,-128.78 265.03,-112.88 278.99,-100.79"/>
<polygon fill="#63b8ff" stroke="#63b8ff" points="280.93,-103.74 286.1,-94.49 276.29,-98.5 280.93,-103.74"/>
</a>
</g>
</g>
<!-- Node5&#45;&gt;Node3 -->
<g id="edge5_Node000005_Node000003" class="edge">
<title>Node5&#45;&gt;Node3</title>
<g id="a_edge5_Node000005_Node000003"><a xlink:title=" ">
<path fill="none" stroke="#63b8ff" d="M225.82,-83.62C233.75,-83.62 241.94,-83.62 249.84,-83.62"/>
<polygon fill="#63b8ff" stroke="#63b8ff" points="249.61,-87.13 259.61,-83.63 249.61,-80.13 249.61,-87.13"/>
</a>
</g>
</g>
<!-- Node6&#45;&gt;Node3 -->
<g id="edge7_Node000006_Node000003" class="edge">
<title>Node6&#45;&gt;Node3</title>
<g id="a_edge7_Node000006_Node000003"><a xlink:title=" ">
<path fill="none" stroke="#63b8ff" d="M209.63,-56.74C223.27,-60.9 239.25,-65.77 253.84,-70.23"/>
<polygon fill="#63b8ff" stroke="#63b8ff" points="252.62,-73.51 263.21,-73.09 254.67,-66.82 252.62,-73.51"/>
</a>
</g>
</g>
</g>
</svg>
