<?xml version="1.0" encoding="UTF-8" standalone="no"?>
<!DOCTYPE svg PUBLIC "-//W3C//DTD SVG 1.1//EN"
 "http://www.w3.org/Graphics/SVG/1.1/DTD/svg11.dtd">
<!-- Generated by graphviz version 12.2.1 (20241206.2353)
 -->
<!-- Title: Gnuplot::plot_x Pages: 1 -->
<svg width="216pt" height="64pt"
 viewBox="0.00 0.00 215.50 64.25" xmlns="http://www.w3.org/2000/svg" xmlns:xlink="http://www.w3.org/1999/xlink">
<g id="graph0" class="graph" transform="scale(1 1) rotate(0) translate(4 60.25)">
<title>Gnuplot::plot_x</title>
<!-- Node1 -->
<g id="Node000001" class="node">
<title>Node1</title>
<g id="a_Node000001"><a xlink:title=" ">
<polygon fill="#999999" stroke="#666666" points="207.5,-37.25 125.5,-37.25 125.5,-18 207.5,-18 207.5,-37.25"/>
<text text-anchor="middle" x="166.5" y="-23.75" font-family="Helvetica,sans-Serif" font-size="10.00">Gnuplot::plot_x</text>
</a>
</g>
</g>
<!-- Node2 -->
<g id="Node000002" class="node">
<title>Node2</title>
<g id="a_Node000002"><a xlink:href="../../d3/d27/class_gnuplot_a22ec497060171153b0ce321763e9c7f9.html#a22ec497060171153b0ce321763e9c7f9" target="_top" xlink:title=" ">
<polygon fill="white" stroke="#666666" points="89.5,-56.25 0,-56.25 0,-37 89.5,-37 89.5,-56.25"/>
<text text-anchor="middle" x="44.75" y="-42.75" font-family="Helvetica,sans-Serif" font-size="10.00">Gnuplot::Gnuplot</text>
</a>
</g>
</g>
<!-- Node1&#45;&gt;Node2 -->
<g id="edge1_Node000001_Node000002" class="edge">
<title>Node1&#45;&gt;Node2</title>
<g id="a_edge1_Node000001_Node000002"><a xlink:title=" ">
<path fill="none" stroke="#63b8ff" d="M114.06,-35.79C105.97,-37.07 97.66,-38.39 89.76,-39.64"/>
<polygon fill="#63b8ff" stroke="#63b8ff" points="114.47,-39.27 123.8,-34.24 113.37,-32.35 114.47,-39.27"/>
</a>
</g>
</g>
<!-- Node3 -->
<g id="Node000003" class="node">
<title>Node3</title>
<g id="a_Node000003"><a xlink:href="../../d5/dee/_data___analyze_8cpp_ae66f6b31b5ad750f1fe042a706a4e3d4.html#ae66f6b31b5ad750f1fe042a706a4e3d4" target="_top" xlink:title=" ">
<polygon fill="white" stroke="#666666" points="63.25,-19.25 26.25,-19.25 26.25,0 63.25,0 63.25,-19.25"/>
<text text-anchor="middle" x="44.75" y="-5.75" font-family="Helvetica,sans-Serif" font-size="10.00">main</text>
</a>
</g>
</g>
<!-- Node1&#45;&gt;Node3 -->
<g id="edge2_Node000001_Node000003" class="edge">
<title>Node1&#45;&gt;Node3</title>
<g id="a_edge2_Node000001_Node000003"><a xlink:title=" ">
<path fill="none" stroke="#63b8ff" d="M113.99,-19.88C96,-17.18 76.98,-14.32 63.6,-12.31"/>
<polygon fill="#63b8ff" stroke="#63b8ff" points="113.39,-23.33 123.8,-21.36 114.43,-16.41 113.39,-23.33"/>
</a>
</g>
</g>
</g>
</svg>
