<?xml version="1.0" encoding="UTF-8" standalone="no"?>
<!DOCTYPE svg PUBLIC "-//W3C//DTD SVG 1.1//EN"
 "http://www.w3.org/Graphics/SVG/1.1/DTD/svg11.dtd">
<!-- Generated by graphviz version 12.2.1 (20241206.2353)
 -->
<!-- Title: Evaluate_Cell_Net_Flux_1O Pages: 1 -->
<svg width="561pt" height="397pt"
 viewBox="0.00 0.00 561.00 397.25" xmlns="http://www.w3.org/2000/svg" xmlns:xlink="http://www.w3.org/1999/xlink">
<g id="graph0" class="graph" transform="scale(1 1) rotate(0) translate(4 393.25)">
<title>Evaluate_Cell_Net_Flux_1O</title>
<!-- Node1 -->
<g id="Node000001" class="node">
<title>Node1</title>
<g id="a_Node000001"><a xlink:title=" ">
<polygon fill="#999999" stroke="#666666" points="139.75,-167.25 0,-167.25 0,-148 139.75,-148 139.75,-167.25"/>
<text text-anchor="middle" x="69.88" y="-153.75" font-family="Helvetica,sans-Serif" font-size="10.00">Evaluate_Cell_Net_Flux_1O</text>
</a>
</g>
</g>
<!-- Node2 -->
<g id="Node000002" class="node">
<title>Node2</title>
<g id="a_Node000002"><a xlink:href="../../d9/ddd/_c_u_d_a___integrated___numerical___method_8cpp_a7cee697783ecef13423db8d0fa585cbb.html#a7cee697783ecef13423db8d0fa585cbb" target="_top" xlink:title="Evaluates flux on a given face. This function calculates the flux for a given face by considering the...">
<polygon fill="white" stroke="#666666" points="279.5,-360.88 178.75,-360.88 178.75,-330.38 279.5,-330.38 279.5,-360.88"/>
<text text-anchor="start" x="186.75" y="-347.38" font-family="Helvetica,sans-Serif" font-size="10.00">Calculate_Flux_For</text>
<text text-anchor="middle" x="229.12" y="-336.12" font-family="Helvetica,sans-Serif" font-size="10.00">_All_Faces</text>
</a>
</g>
</g>
<!-- Node1&#45;&gt;Node2 -->
<g id="edge1_Node000001_Node000002" class="edge">
<title>Node1&#45;&gt;Node2</title>
<g id="a_edge1_Node000001_Node000002"><a xlink:title=" ">
<path fill="none" stroke="#63b8ff" d="M78.58,-167.56C95.69,-189.53 138.28,-243.74 175.75,-287.62 185.52,-299.07 196.66,-311.49 206.15,-321.89"/>
<polygon fill="#63b8ff" stroke="#63b8ff" points="203.3,-323.96 212.64,-328.97 208.46,-319.23 203.3,-323.96"/>
</a>
</g>
</g>
<!-- Node4 -->
<g id="Node000004" class="node">
<title>Node4</title>
<g id="a_Node000004"><a xlink:href="../../d8/dec/_time___step_8cpp_a1a130a004ad45d61258215e5579c3060.html#a1a130a004ad45d61258215e5579c3060" target="_top" xlink:title=" ">
<polygon fill="white" stroke="#666666" points="282.5,-278.25 175.75,-278.25 175.75,-259 282.5,-259 282.5,-278.25"/>
<text text-anchor="middle" x="229.12" y="-264.75" font-family="Helvetica,sans-Serif" font-size="10.00">Evaluate_Time_Step</text>
</a>
</g>
</g>
<!-- Node1&#45;&gt;Node4 -->
<g id="edge3_Node000001_Node000004" class="edge">
<title>Node1&#45;&gt;Node4</title>
<g id="a_edge3_Node000001_Node000004"><a xlink:title=" ">
<path fill="none" stroke="#63b8ff" d="M85.11,-167.67C112.24,-186.82 171.6,-228.73 204.68,-252.08"/>
<polygon fill="#63b8ff" stroke="#63b8ff" points="202.61,-254.9 212.8,-257.81 206.65,-249.18 202.61,-254.9"/>
</a>
</g>
</g>
<!-- Node11 -->
<g id="Node000011" class="node">
<title>Node11</title>
<g id="a_Node000011"><a xlink:href="../../de/d88/_l_l_f_8cpp_a7a64f3d31bd875b4b1c595db26e909e6.html#a7a64f3d31bd875b4b1c595db26e909e6" target="_top" xlink:title=" ">
<polygon fill="white" stroke="#666666" points="245.38,-204.25 212.88,-204.25 212.88,-185 245.38,-185 245.38,-204.25"/>
<text text-anchor="middle" x="229.12" y="-190.75" font-family="Helvetica,sans-Serif" font-size="10.00">LLF</text>
</a>
</g>
</g>
<!-- Node1&#45;&gt;Node11 -->
<g id="edge11_Node000001_Node000011" class="edge">
<title>Node1&#45;&gt;Node11</title>
<g id="a_edge11_Node000001_Node000011"><a xlink:title=" ">
<path fill="none" stroke="#63b8ff" d="M113.84,-167.74C141.85,-174.32 177.51,-182.72 201.49,-188.36"/>
<polygon fill="#63b8ff" stroke="#63b8ff" points="200.54,-191.73 211.07,-190.61 202.14,-184.91 200.54,-191.73"/>
</a>
</g>
</g>
<!-- Node13 -->
<g id="Node000013" class="node">
<title>Node13</title>
<g id="a_Node000013"><a xlink:href="../../dd/d30/_m_o_v_e_r_s_8cpp_ad9d16fef8d34a1b19bfdbf938bf033be.html#ad9d16fef8d34a1b19bfdbf938bf033be" target="_top" xlink:title=" ">
<polygon fill="white" stroke="#666666" points="258.88,-167.25 199.38,-167.25 199.38,-148 258.88,-148 258.88,-167.25"/>
<text text-anchor="middle" x="229.12" y="-153.75" font-family="Helvetica,sans-Serif" font-size="10.00">MOVERS</text>
</a>
</g>
</g>
<!-- Node1&#45;&gt;Node13 -->
<g id="edge13_Node000001_Node000013" class="edge">
<title>Node1&#45;&gt;Node13</title>
<g id="a_edge13_Node000001_Node000013"><a xlink:title=" ">
<path fill="none" stroke="#63b8ff" d="M139.85,-157.62C156.26,-157.62 173.23,-157.62 187.87,-157.62"/>
<polygon fill="#63b8ff" stroke="#63b8ff" points="187.53,-161.13 197.53,-157.63 187.53,-154.13 187.53,-161.13"/>
</a>
</g>
</g>
<!-- Node17 -->
<g id="Node000017" class="node">
<title>Node17</title>
<g id="a_Node000017"><a xlink:href="../../d9/d99/_m_o_v_e_r_s___n_w_s_c_8cpp_a416436566931a0de24fa118c38443219.html#a416436566931a0de24fa118c38443219" target="_top" xlink:title=" ">
<polygon fill="white" stroke="#666666" points="277.25,-130.25 181,-130.25 181,-111 277.25,-111 277.25,-130.25"/>
<text text-anchor="middle" x="229.12" y="-116.75" font-family="Helvetica,sans-Serif" font-size="10.00">MOVERS_NWSC</text>
</a>
</g>
</g>
<!-- Node1&#45;&gt;Node17 -->
<g id="edge18_Node000001_Node000017" class="edge">
<title>Node1&#45;&gt;Node17</title>
<g id="a_edge18_Node000001_Node000017"><a xlink:title=" ">
<path fill="none" stroke="#63b8ff" d="M113.84,-147.51C132.48,-143.13 154.5,-137.95 174.22,-133.31"/>
<polygon fill="#63b8ff" stroke="#63b8ff" points="174.8,-136.77 183.73,-131.07 173.2,-129.95 174.8,-136.77"/>
</a>
</g>
</g>
<!-- Node19 -->
<g id="Node000019" class="node">
<title>Node19</title>
<g id="a_Node000019"><a xlink:href="../../d6/d22/_r_i_c_c_a_8cpp_a6fba3f461237dd1fd4ba27d9504681e2.html#a6fba3f461237dd1fd4ba27d9504681e2" target="_top" xlink:title="Computes the dissipative flux for a given cell and face using the RICCA method.">
<polygon fill="white" stroke="#666666" points="253.25,-93.25 205,-93.25 205,-74 253.25,-74 253.25,-93.25"/>
<text text-anchor="middle" x="229.12" y="-79.75" font-family="Helvetica,sans-Serif" font-size="10.00">RICCA</text>
</a>
</g>
</g>
<!-- Node1&#45;&gt;Node19 -->
<g id="edge20_Node000001_Node000019" class="edge">
<title>Node1&#45;&gt;Node19</title>
<g id="a_edge20_Node000001_Node000019"><a xlink:title=" ">
<path fill="none" stroke="#63b8ff" d="M87.54,-147.66C107.89,-135.73 143.58,-115.64 175.75,-101.62 181.53,-99.11 187.8,-96.7 193.91,-94.5"/>
<polygon fill="#63b8ff" stroke="#63b8ff" points="194.87,-97.87 203.18,-91.31 192.59,-91.26 194.87,-97.87"/>
</a>
</g>
</g>
<!-- Node21 -->
<g id="Node000021" class="node">
<title>Node21</title>
<g id="a_Node000021"><a xlink:href="../../d2/d7e/_roe___scheme_8cpp_a9c59619af968242393e11841b8a177af.html#a9c59619af968242393e11841b8a177af" target="_top" xlink:title=" ">
<polygon fill="white" stroke="#666666" points="248,-56.25 210.25,-56.25 210.25,-37 248,-37 248,-56.25"/>
<text text-anchor="middle" x="229.12" y="-42.75" font-family="Helvetica,sans-Serif" font-size="10.00">ROE</text>
</a>
</g>
</g>
<!-- Node1&#45;&gt;Node21 -->
<g id="edge23_Node000001_Node000021" class="edge">
<title>Node1&#45;&gt;Node21</title>
<g id="a_edge23_Node000001_Node000021"><a xlink:title=" ">
<path fill="none" stroke="#63b8ff" d="M79.7,-147.51C96.58,-128.71 135.4,-88.17 175.75,-64.62 182.89,-60.46 191.15,-57.06 198.96,-54.38"/>
<polygon fill="#63b8ff" stroke="#63b8ff" points="199.96,-57.74 208.46,-51.42 197.88,-51.05 199.96,-57.74"/>
</a>
</g>
</g>
<!-- Node3 -->
<g id="Node000003" class="node">
<title>Node3</title>
<g id="a_Node000003"><a xlink:href="../../d7/d5e/_average___interface___flux_8cpp_a372e43b702d58e007c6c18bd482ce84d.html#a372e43b702d58e007c6c18bd482ce84d" target="_top" xlink:title="Calculates the average convective flux at a given face of a cell.">
<polygon fill="white" stroke="#666666" points="474.38,-389.25 324.88,-389.25 324.88,-370 474.38,-370 474.38,-389.25"/>
<text text-anchor="middle" x="399.62" y="-375.75" font-family="Helvetica,sans-Serif" font-size="10.00">Calculate_Face_Average_Flux</text>
</a>
</g>
</g>
<!-- Node2&#45;&gt;Node3 -->
<g id="edge2_Node000002_Node000003" class="edge">
<title>Node2&#45;&gt;Node3</title>
<g id="a_edge2_Node000002_Node000003"><a xlink:title=" ">
<path fill="none" stroke="#63b8ff" d="M279.77,-355.64C297.78,-359.28 318.35,-363.43 337.25,-367.24"/>
<polygon fill="#63b8ff" stroke="#63b8ff" points="336.48,-370.66 346.98,-369.2 337.87,-363.79 336.48,-370.66"/>
</a>
</g>
</g>
<!-- Node5 -->
<g id="Node000005" class="node">
<title>Node5</title>
<g id="a_Node000005"><a xlink:href="../../d8/dec/_time___step_8cpp_a47640e22da2b590d3d2ddce8b175467c.html#a47640e22da2b590d3d2ddce8b175467c" target="_top" xlink:title=" ">
<polygon fill="white" stroke="#666666" points="450.75,-352.25 348.5,-352.25 348.5,-333 450.75,-333 450.75,-352.25"/>
<text text-anchor="middle" x="399.62" y="-338.75" font-family="Helvetica,sans-Serif" font-size="10.00">Inviscid_Time_Step</text>
</a>
</g>
</g>
<!-- Node4&#45;&gt;Node5 -->
<g id="edge4_Node000004_Node000005" class="edge">
<title>Node4&#45;&gt;Node5</title>
<g id="a_edge4_Node000004_Node000005"><a xlink:title=" ">
<path fill="none" stroke="#63b8ff" d="M242.82,-278.67C259.32,-291.25 289.47,-312.59 318.5,-324.62 324.49,-327.11 330.88,-329.28 337.34,-331.16"/>
<polygon fill="#63b8ff" stroke="#63b8ff" points="336.19,-334.48 346.76,-333.69 338.01,-327.72 336.19,-334.48"/>
</a>
</g>
</g>
<!-- Node7 -->
<g id="Node000007" class="node">
<title>Node7</title>
<g id="a_Node000007"><a xlink:href="../../d8/dec/_time___step_8cpp_a36c2de590bd3f96d1bda12574ab41343.html#a36c2de590bd3f96d1bda12574ab41343" target="_top" xlink:title=" ">
<polygon fill="white" stroke="#666666" points="456.75,-315.25 342.5,-315.25 342.5,-296 456.75,-296 456.75,-315.25"/>
<text text-anchor="middle" x="399.62" y="-301.75" font-family="Helvetica,sans-Serif" font-size="10.00">Viscous_Time_Step_1</text>
</a>
</g>
</g>
<!-- Node4&#45;&gt;Node7 -->
<g id="edge6_Node000004_Node000007" class="edge">
<title>Node4&#45;&gt;Node7</title>
<g id="a_edge6_Node000004_Node000007"><a xlink:title=" ">
<path fill="none" stroke="#63b8ff" d="M276.17,-278.74C296.32,-283.16 320.18,-288.4 341.45,-293.07"/>
<polygon fill="#63b8ff" stroke="#63b8ff" points="340.64,-296.48 351.16,-295.2 342.14,-289.64 340.64,-296.48"/>
</a>
</g>
</g>
<!-- Node9 -->
<g id="Node000009" class="node">
<title>Node9</title>
<g id="a_Node000009"><a xlink:href="../../d8/dec/_time___step_8cpp_aae9689c4164406f72554331b4c337962.html#aae9689c4164406f72554331b4c337962" target="_top" xlink:title=" ">
<polygon fill="white" stroke="#666666" points="456.75,-278.25 342.5,-278.25 342.5,-259 456.75,-259 456.75,-278.25"/>
<text text-anchor="middle" x="399.62" y="-264.75" font-family="Helvetica,sans-Serif" font-size="10.00">Viscous_Time_Step_2</text>
</a>
</g>
</g>
<!-- Node4&#45;&gt;Node9 -->
<g id="edge8_Node000004_Node000009" class="edge">
<title>Node4&#45;&gt;Node9</title>
<g id="a_edge8_Node000004_Node000009"><a xlink:title=" ">
<path fill="none" stroke="#63b8ff" d="M282.98,-268.62C298.12,-268.62 314.85,-268.62 330.76,-268.62"/>
<polygon fill="#63b8ff" stroke="#63b8ff" points="330.65,-272.13 340.65,-268.63 330.65,-265.13 330.65,-272.13"/>
</a>
</g>
</g>
<!-- Node10 -->
<g id="Node000010" class="node">
<title>Node10</title>
<g id="a_Node000010"><a xlink:href="../../d8/dec/_time___step_8cpp_ae5382f866df266ef31ad0bc1440ccadc.html#ae5382f866df266ef31ad0bc1440ccadc" target="_top" xlink:title=" ">
<polygon fill="white" stroke="#666666" points="456.75,-241.25 342.5,-241.25 342.5,-222 456.75,-222 456.75,-241.25"/>
<text text-anchor="middle" x="399.62" y="-227.75" font-family="Helvetica,sans-Serif" font-size="10.00">Viscous_Time_Step_3</text>
</a>
</g>
</g>
<!-- Node4&#45;&gt;Node10 -->
<g id="edge10_Node000004_Node000010" class="edge">
<title>Node4&#45;&gt;Node10</title>
<g id="a_edge10_Node000004_Node000010"><a xlink:title=" ">
<path fill="none" stroke="#63b8ff" d="M276.17,-258.51C296.32,-254.09 320.18,-248.85 341.45,-244.18"/>
<polygon fill="#63b8ff" stroke="#63b8ff" points="342.14,-247.61 351.16,-242.05 340.64,-240.77 342.14,-247.61"/>
</a>
</g>
</g>
<!-- Node6 -->
<g id="Node000006" class="node">
<title>Node6</title>
<g id="a_Node000006"><a xlink:href="../../dc/d3a/src_2_utility___files_8cpp_abf34e0b480f7580b0cd4237a76aed670.html#abf34e0b480f7580b0cd4237a76aed670" target="_top" xlink:title=" ">
<polygon fill="white" stroke="#666666" points="553,-352.25 516.75,-352.25 516.75,-333 553,-333 553,-352.25"/>
<text text-anchor="middle" x="534.88" y="-338.75" font-family="Helvetica,sans-Serif" font-size="10.00">Print</text>
</a>
</g>
</g>
<!-- Node5&#45;&gt;Node6 -->
<g id="edge5_Node000005_Node000006" class="edge">
<title>Node5&#45;&gt;Node6</title>
<g id="a_edge5_Node000005_Node000006"><a xlink:title=" ">
<path fill="none" stroke="#63b8ff" d="M451,-342.62C469.32,-342.62 489.39,-342.62 505.19,-342.62"/>
<polygon fill="#63b8ff" stroke="#63b8ff" points="504.83,-346.13 514.83,-342.63 504.83,-339.13 504.83,-346.13"/>
</a>
</g>
</g>
<!-- Node8 -->
<g id="Node000008" class="node">
<title>Node8</title>
<g id="a_Node000008"><a xlink:href="../../dd/d6e/_source_8cpp_ad1286ce446bd24bcbdfecfe85808c943.html#ad1286ce446bd24bcbdfecfe85808c943" target="_top" xlink:title=" ">
<polygon fill="white" stroke="#666666" points="552.25,-278.25 517.5,-278.25 517.5,-259 552.25,-259 552.25,-278.25"/>
<text text-anchor="middle" x="534.88" y="-264.75" font-family="Helvetica,sans-Serif" font-size="10.00">max</text>
</a>
</g>
</g>
<!-- Node7&#45;&gt;Node8 -->
<g id="edge7_Node000007_Node000008" class="edge">
<title>Node7&#45;&gt;Node8</title>
<g id="a_edge7_Node000007_Node000008"><a xlink:title=" ">
<path fill="none" stroke="#63b8ff" d="M450.02,-295.53C460.24,-293.16 470.89,-290.48 480.75,-287.62 489.29,-285.15 498.45,-282.04 506.72,-279.06"/>
<polygon fill="#63b8ff" stroke="#63b8ff" points="507.71,-282.42 515.88,-275.67 505.29,-275.86 507.71,-282.42"/>
</a>
</g>
</g>
<!-- Node9&#45;&gt;Node8 -->
<g id="edge9_Node000009_Node000008" class="edge">
<title>Node9&#45;&gt;Node8</title>
<g id="a_edge9_Node000009_Node000008"><a xlink:title=" ">
<path fill="none" stroke="#63b8ff" d="M457.13,-268.62C473.92,-268.62 491.59,-268.62 505.73,-268.62"/>
<polygon fill="#63b8ff" stroke="#63b8ff" points="505.63,-272.13 515.63,-268.63 505.63,-265.13 505.63,-272.13"/>
</a>
</g>
</g>
<!-- Node12 -->
<g id="Node000012" class="node">
<title>Node12</title>
<g id="a_Node000012"><a xlink:href="../../dc/d3a/src_2_utility___files_8cpp_aa047730c4b45792e657f98e973a2695f.html#aa047730c4b45792e657f98e973a2695f" target="_top" xlink:title=" ">
<polygon fill="white" stroke="#666666" points="429,-204.25 370.25,-204.25 370.25,-185 429,-185 429,-204.25"/>
<text text-anchor="middle" x="399.62" y="-190.75" font-family="Helvetica,sans-Serif" font-size="10.00">Maximum</text>
</a>
</g>
</g>
<!-- Node11&#45;&gt;Node12 -->
<g id="edge12_Node000011_Node000012" class="edge">
<title>Node11&#45;&gt;Node12</title>
<g id="a_edge12_Node000011_Node000012"><a xlink:title=" ">
<path fill="none" stroke="#63b8ff" d="M245.68,-194.62C271.18,-194.62 322.7,-194.62 358.87,-194.62"/>
<polygon fill="#63b8ff" stroke="#63b8ff" points="358.5,-198.13 368.5,-194.63 358.5,-191.13 358.5,-198.13"/>
</a>
</g>
</g>
<!-- Node13&#45;&gt;Node12 -->
<g id="edge16_Node000013_Node000012" class="edge">
<title>Node13&#45;&gt;Node12</title>
<g id="a_edge16_Node000013_Node000012"><a xlink:title=" ">
<path fill="none" stroke="#63b8ff" d="M259.09,-163.99C286.54,-170.01 328.01,-179.12 358.61,-185.84"/>
<polygon fill="#63b8ff" stroke="#63b8ff" points="357.76,-189.23 368.28,-187.96 359.26,-182.4 357.76,-189.23"/>
</a>
</g>
</g>
<!-- Node14 -->
<g id="Node000014" class="node">
<title>Node14</title>
<g id="a_Node000014"><a xlink:href="../../dd/d30/_m_o_v_e_r_s_8cpp_a765da73e807a2a843735cf15bb4a6c24.html#a765da73e807a2a843735cf15bb4a6c24" target="_top" xlink:title=" ">
<polygon fill="white" stroke="#666666" points="462.38,-167.25 336.88,-167.25 336.88,-148 462.38,-148 462.38,-167.25"/>
<text text-anchor="middle" x="399.62" y="-153.75" font-family="Helvetica,sans-Serif" font-size="10.00">Condition_For_MOVERS</text>
</a>
</g>
</g>
<!-- Node13&#45;&gt;Node14 -->
<g id="edge14_Node000013_Node000014" class="edge">
<title>Node13&#45;&gt;Node14</title>
<g id="a_edge14_Node000013_Node000014"><a xlink:title=" ">
<path fill="none" stroke="#63b8ff" d="M259.09,-157.62C277.37,-157.62 301.85,-157.62 325.21,-157.62"/>
<polygon fill="#63b8ff" stroke="#63b8ff" points="325.04,-161.13 335.04,-157.63 325.04,-154.13 325.04,-161.13"/>
</a>
</g>
</g>
<!-- Node15 -->
<g id="Node000015" class="node">
<title>Node15</title>
<g id="a_Node000015"><a xlink:href="../../dd/d30/_m_o_v_e_r_s_8cpp_a1e63c211b46cd735876d3f0df5f7330f.html#a1e63c211b46cd735876d3f0df5f7330f" target="_top" xlink:title=" ">
<polygon fill="white" stroke="#666666" points="433.88,-130.25 365.38,-130.25 365.38,-111 433.88,-111 433.88,-130.25"/>
<text text-anchor="middle" x="399.62" y="-116.75" font-family="Helvetica,sans-Serif" font-size="10.00">Entropy_Fix</text>
</a>
</g>
</g>
<!-- Node13&#45;&gt;Node15 -->
<g id="edge15_Node000013_Node000015" class="edge">
<title>Node13&#45;&gt;Node15</title>
<g id="a_edge15_Node000013_Node000015"><a xlink:title=" ">
<path fill="none" stroke="#63b8ff" d="M259.09,-151.26C285.21,-145.53 324.01,-137.01 354.07,-130.41"/>
<polygon fill="#63b8ff" stroke="#63b8ff" points="354.63,-133.87 363.64,-128.31 353.13,-127.03 354.63,-133.87"/>
</a>
</g>
</g>
<!-- Node16 -->
<g id="Node000016" class="node">
<title>Node16</title>
<g id="a_Node000016"><a xlink:href="../../dc/d3a/src_2_utility___files_8cpp_a51be7d63194e92e29a4cd28e08d464bd.html#a51be7d63194e92e29a4cd28e08d464bd" target="_top" xlink:title=" ">
<polygon fill="white" stroke="#666666" points="427.5,-93.25 371.75,-93.25 371.75,-74 427.5,-74 427.5,-93.25"/>
<text text-anchor="middle" x="399.62" y="-79.75" font-family="Helvetica,sans-Serif" font-size="10.00">Minimum</text>
</a>
</g>
</g>
<!-- Node13&#45;&gt;Node16 -->
<g id="edge17_Node000013_Node000016" class="edge">
<title>Node13&#45;&gt;Node16</title>
<g id="a_edge17_Node000013_Node000016"><a xlink:title=" ">
<path fill="none" stroke="#63b8ff" d="M259.27,-150.37C267.16,-147.68 275.47,-144.15 282.5,-139.62 302.06,-127.04 298.27,-113.12 318.5,-101.62 331.19,-94.42 346.54,-90.09 360.39,-87.5"/>
<polygon fill="#63b8ff" stroke="#63b8ff" points="360.77,-90.99 370.09,-85.95 359.66,-84.08 360.77,-90.99"/>
</a>
</g>
</g>
<!-- Node18 -->
<g id="Node000018" class="node">
<title>Node18</title>
<g id="a_Node000018"><a xlink:href="../../d9/d99/_m_o_v_e_r_s___n_w_s_c_8cpp_aa1addb77100799eb21d8ea96fc1d718b.html#aa1addb77100799eb21d8ea96fc1d718b" target="_top" xlink:title=" ">
<polygon fill="white" stroke="#666666" points="480.75,-56.25 318.5,-56.25 318.5,-37 480.75,-37 480.75,-56.25"/>
<text text-anchor="middle" x="399.62" y="-42.75" font-family="Helvetica,sans-Serif" font-size="10.00">Condition_For_MOVERS_NWSC</text>
</a>
</g>
</g>
<!-- Node17&#45;&gt;Node18 -->
<g id="edge19_Node000017_Node000018" class="edge">
<title>Node17&#45;&gt;Node18</title>
<g id="a_edge19_Node000017_Node000018"><a xlink:title=" ">
<path fill="none" stroke="#63b8ff" d="M266.96,-110.51C272.38,-108.31 277.73,-105.69 282.5,-102.62 302.06,-90.04 298.27,-76.12 318.5,-64.62 320.85,-63.29 323.3,-62.05 325.81,-60.9"/>
<polygon fill="#63b8ff" stroke="#63b8ff" points="327.01,-64.19 335.02,-57.25 324.43,-57.68 327.01,-64.19"/>
</a>
</g>
</g>
<!-- Node20 -->
<g id="Node000020" class="node">
<title>Node20</title>
<g id="a_Node000020"><a xlink:href="../../d6/d22/_r_i_c_c_a_8cpp_aed1d8bf7f1afd6d7e89c781f4922d05c.html#aed1d8bf7f1afd6d7e89c781f4922d05c" target="_top" xlink:title="Computes the Alpha parameter for the RICCA condition based on input variables.">
<polygon fill="white" stroke="#666666" points="456.75,-19.25 342.5,-19.25 342.5,0 456.75,0 456.75,-19.25"/>
<text text-anchor="middle" x="399.62" y="-5.75" font-family="Helvetica,sans-Serif" font-size="10.00">Condition_For_RICCA</text>
</a>
</g>
</g>
<!-- Node19&#45;&gt;Node20 -->
<g id="edge21_Node000019_Node000020" class="edge">
<title>Node19&#45;&gt;Node20</title>
<g id="a_edge21_Node000019_Node000020"><a xlink:title=" ">
<path fill="none" stroke="#63b8ff" d="M253.64,-78.17C263.08,-75.33 273.77,-71.24 282.5,-65.62 302.06,-53.04 298.27,-39.12 318.5,-27.62 322.61,-25.29 327.01,-23.25 331.54,-21.48"/>
<polygon fill="#63b8ff" stroke="#63b8ff" points="332.53,-24.84 340.87,-18.3 330.27,-18.22 332.53,-24.84"/>
</a>
</g>
</g>
<!-- Node20&#45;&gt;Node8 -->
<g id="edge22_Node000020_Node000008" class="edge">
<title>Node20&#45;&gt;Node8</title>
<g id="a_edge22_Node000020_Node000008"><a xlink:title=" ">
<path fill="none" stroke="#63b8ff" d="M456.96,-13.77C465.83,-16.67 474.21,-21.06 480.75,-27.62 511.68,-58.68 527.11,-194.07 532.05,-247.16"/>
<polygon fill="#63b8ff" stroke="#63b8ff" points="528.56,-247.35 532.93,-257 535.53,-246.73 528.56,-247.35"/>
</a>
</g>
</g>
</g>
</svg>
