<?xml version="1.0" encoding="UTF-8" standalone="no"?>
<!DOCTYPE svg PUBLIC "-//W3C//DTD SVG 1.1//EN"
 "http://www.w3.org/Graphics/SVG/1.1/DTD/svg11.dtd">
<!-- Generated by graphviz version 12.2.1 (20241206.2353)
 -->
<!-- Title: Evaluate_Cell_Net_Flux_2O Pages: 1 -->
<svg width="581pt" height="103pt"
 viewBox="0.00 0.00 580.75 103.25" xmlns="http://www.w3.org/2000/svg" xmlns:xlink="http://www.w3.org/1999/xlink">
<g id="graph0" class="graph" transform="scale(1 1) rotate(0) translate(4 99.25)">
<title>Evaluate_Cell_Net_Flux_2O</title>
<!-- Node1 -->
<g id="Node000001" class="node">
<title>Node1</title>
<g id="a_Node000001"><a xlink:title=" ">
<polygon fill="#999999" stroke="#666666" points="572.75,-57.25 433,-57.25 433,-38 572.75,-38 572.75,-57.25"/>
<text text-anchor="middle" x="502.88" y="-43.75" font-family="Helvetica,sans-Serif" font-size="10.00">Evaluate_Cell_Net_Flux_2O</text>
</a>
</g>
</g>
<!-- Node2 -->
<g id="Node000002" class="node">
<title>Node2</title>
<g id="a_Node000002"><a xlink:href="../../d0/d64/_numerical___method_8cpp_a8dda0c7e17babab9b6e49e8e199dc30e.html#a8dda0c7e17babab9b6e49e8e199dc30e" target="_top" xlink:title=" ">
<polygon fill="white" stroke="#666666" points="384.62,-95.25 298.88,-95.25 298.88,-76 384.62,-76 384.62,-95.25"/>
<text text-anchor="middle" x="341.75" y="-81.75" font-family="Helvetica,sans-Serif" font-size="10.00">Explicit_Method</text>
</a>
</g>
</g>
<!-- Node1&#45;&gt;Node2 -->
<g id="edge1_Node000001_Node000002" class="edge">
<title>Node1&#45;&gt;Node2</title>
<g id="a_edge1_Node000001_Node000002"><a xlink:title=" ">
<path fill="none" stroke="#63b8ff" d="M448.46,-60.38C427.75,-65.33 404.38,-70.91 384.9,-75.56"/>
<polygon fill="#63b8ff" stroke="#63b8ff" points="449.26,-63.79 458.18,-58.06 447.64,-56.98 449.26,-63.79"/>
</a>
</g>
</g>
<!-- Node6 -->
<g id="Node000006" class="node">
<title>Node6</title>
<g id="a_Node000006"><a xlink:href="../../de/df0/_solver_8cpp_a313c308da18b517cb3cf0384db6d4d7e.html#a313c308da18b517cb3cf0384db6d4d7e" target="_top" xlink:title=" ">
<polygon fill="white" stroke="#666666" points="250.5,-58.25 166.25,-58.25 166.25,-39 250.5,-39 250.5,-58.25"/>
<text text-anchor="middle" x="208.38" y="-44.75" font-family="Helvetica,sans-Serif" font-size="10.00">Viscous_Solver</text>
</a>
</g>
</g>
<!-- Node1&#45;&gt;Node6 -->
<g id="edge8_Node000001_Node000006" class="edge">
<title>Node1&#45;&gt;Node6</title>
<g id="a_edge8_Node000001_Node000006"><a xlink:title=" ">
<path fill="none" stroke="#63b8ff" d="M421.36,-47.9C366.03,-48.09 294.84,-48.33 250.66,-48.48"/>
<polygon fill="#63b8ff" stroke="#63b8ff" points="421.06,-51.4 431.04,-47.87 421.03,-44.4 421.06,-51.4"/>
</a>
</g>
</g>
<!-- Node7 -->
<g id="Node000007" class="node">
<title>Node7</title>
<g id="a_Node000007"><a xlink:href="../../de/d22/_cuda___parallel___r_k_8cpp_a794f030971fbb7c9dd4bc08df03f50f1.html#a794f030971fbb7c9dd4bc08df03f50f1" target="_top" xlink:title=" ">
<polygon fill="white" stroke="#666666" points="397,-19.25 286.5,-19.25 286.5,0 397,0 397,-19.25"/>
<text text-anchor="middle" x="341.75" y="-5.75" font-family="Helvetica,sans-Serif" font-size="10.00">Runge_Kutta_Method</text>
</a>
</g>
</g>
<!-- Node1&#45;&gt;Node7 -->
<g id="edge7_Node000001_Node000007" class="edge">
<title>Node1&#45;&gt;Node7</title>
<g id="a_edge7_Node000001_Node000007"><a xlink:title=" ">
<path fill="none" stroke="#63b8ff" d="M448.46,-34.87C427.75,-29.92 404.38,-24.34 384.9,-19.69"/>
<polygon fill="#63b8ff" stroke="#63b8ff" points="447.64,-38.27 458.18,-37.19 449.26,-31.46 447.64,-38.27"/>
</a>
</g>
</g>
<!-- Node3 -->
<g id="Node000003" class="node">
<title>Node3</title>
<g id="a_Node000003"><a xlink:href="../../de/df0/_solver_8cpp_a09703a294b5a4e270033b2d488f8f02a.html#a09703a294b5a4e270033b2d488f8f02a" target="_top" xlink:title=" ">
<polygon fill="white" stroke="#666666" points="249.75,-95.25 167,-95.25 167,-76 249.75,-76 249.75,-95.25"/>
<text text-anchor="middle" x="208.38" y="-81.75" font-family="Helvetica,sans-Serif" font-size="10.00">Inviscid_Solver</text>
</a>
</g>
</g>
<!-- Node2&#45;&gt;Node3 -->
<g id="edge2_Node000002_Node000003" class="edge">
<title>Node2&#45;&gt;Node3</title>
<g id="a_edge2_Node000002_Node000003"><a xlink:title=" ">
<path fill="none" stroke="#63b8ff" d="M287.32,-85.62C274.95,-85.62 261.98,-85.62 250.24,-85.62"/>
<polygon fill="#63b8ff" stroke="#63b8ff" points="286.95,-89.13 296.95,-85.63 286.95,-82.13 286.95,-89.13"/>
</a>
</g>
</g>
<!-- Node2&#45;&gt;Node6 -->
<g id="edge5_Node000002_Node000006" class="edge">
<title>Node2&#45;&gt;Node6</title>
<g id="a_edge5_Node000002_Node000006"><a xlink:title=" ">
<path fill="none" stroke="#63b8ff" d="M294.05,-72.47C278,-67.95 260.29,-62.96 245.23,-58.72"/>
<polygon fill="#63b8ff" stroke="#63b8ff" points="292.82,-75.76 303.39,-75.1 294.72,-69.02 292.82,-75.76"/>
</a>
</g>
</g>
<!-- Node4 -->
<g id="Node000004" class="node">
<title>Node4</title>
<g id="a_Node000004"><a xlink:href="../../d5/d12/_main_8cpp_afed4dca88e059a8cbd2c7af524468fe5.html#afed4dca88e059a8cbd2c7af524468fe5" target="_top" xlink:title="Executes the appropriate solver based on the simulation configuration.">
<polygon fill="white" stroke="#666666" points="130.25,-76.25 73,-76.25 73,-57 130.25,-57 130.25,-76.25"/>
<text text-anchor="middle" x="101.62" y="-62.75" font-family="Helvetica,sans-Serif" font-size="10.00">runSolver</text>
</a>
</g>
</g>
<!-- Node3&#45;&gt;Node4 -->
<g id="edge3_Node000003_Node000004" class="edge">
<title>Node3&#45;&gt;Node4</title>
<g id="a_edge3_Node000003_Node000004"><a xlink:title=" ">
<path fill="none" stroke="#63b8ff" d="M155.39,-76.2C146.81,-74.64 138.22,-73.08 130.53,-71.69"/>
<polygon fill="#63b8ff" stroke="#63b8ff" points="154.62,-79.61 165.09,-77.95 155.87,-72.73 154.62,-79.61"/>
</a>
</g>
</g>
<!-- Node5 -->
<g id="Node000005" class="node">
<title>Node5</title>
<g id="a_Node000005"><a xlink:href="../../d5/d12/_main_8cpp_a0ddf1224851353fc92bfbff6f499fa97.html#a0ddf1224851353fc92bfbff6f499fa97" target="_top" xlink:title=" ">
<polygon fill="white" stroke="#666666" points="37,-76.25 0,-76.25 0,-57 37,-57 37,-76.25"/>
<text text-anchor="middle" x="18.5" y="-62.75" font-family="Helvetica,sans-Serif" font-size="10.00">main</text>
</a>
</g>
</g>
<!-- Node4&#45;&gt;Node5 -->
<g id="edge4_Node000004_Node000005" class="edge">
<title>Node4&#45;&gt;Node5</title>
<g id="a_edge4_Node000004_Node000005"><a xlink:title=" ">
<path fill="none" stroke="#63b8ff" d="M61.38,-66.62C52.95,-66.62 44.43,-66.62 37.3,-66.62"/>
<polygon fill="#63b8ff" stroke="#63b8ff" points="61.19,-70.13 71.19,-66.63 61.19,-63.13 61.19,-70.13"/>
</a>
</g>
</g>
<!-- Node6&#45;&gt;Node4 -->
<g id="edge6_Node000006_Node000004" class="edge">
<title>Node6&#45;&gt;Node4</title>
<g id="a_edge6_Node000006_Node000004"><a xlink:title=" ">
<path fill="none" stroke="#63b8ff" d="M154.67,-57.68C146.33,-59.11 138,-60.55 130.52,-61.83"/>
<polygon fill="#63b8ff" stroke="#63b8ff" points="155.22,-61.14 164.48,-56 154.04,-54.24 155.22,-61.14"/>
</a>
</g>
</g>
</g>
</svg>
