<?xml version="1.0" encoding="UTF-8" standalone="no"?>
<!DOCTYPE svg PUBLIC "-//W3C//DTD SVG 1.1//EN"
 "http://www.w3.org/Graphics/SVG/1.1/DTD/svg11.dtd">
<!-- Generated by graphviz version 12.2.1 (20241206.2353)
 -->
<!-- Title: LLF_2O Pages: 1 -->
<svg width="207pt" height="64pt"
 viewBox="0.00 0.00 207.25 64.25" xmlns="http://www.w3.org/2000/svg" xmlns:xlink="http://www.w3.org/1999/xlink">
<g id="graph0" class="graph" transform="scale(1 1) rotate(0) translate(4 60.25)">
<title>LLF_2O</title>
<!-- Node1 -->
<g id="Node000001" class="node">
<title>Node1</title>
<g id="a_Node000001"><a xlink:title=" ">
<polygon fill="#999999" stroke="#666666" points="50.5,-37.25 0,-37.25 0,-18 50.5,-18 50.5,-37.25"/>
<text text-anchor="middle" x="25.25" y="-23.75" font-family="Helvetica,sans-Serif" font-size="10.00">LLF_2O</text>
</a>
</g>
</g>
<!-- Node2 -->
<g id="Node000002" class="node">
<title>Node2</title>
<g id="a_Node000002"><a xlink:href="../../dc/d3a/src_2_utility___files_8cpp_aa047730c4b45792e657f98e973a2695f.html#aa047730c4b45792e657f98e973a2695f" target="_top" xlink:title=" ">
<polygon fill="white" stroke="#666666" points="172.25,-56.25 113.5,-56.25 113.5,-37 172.25,-37 172.25,-56.25"/>
<text text-anchor="middle" x="142.88" y="-42.75" font-family="Helvetica,sans-Serif" font-size="10.00">Maximum</text>
</a>
</g>
</g>
<!-- Node1&#45;&gt;Node2 -->
<g id="edge1_Node000001_Node000002" class="edge">
<title>Node1&#45;&gt;Node2</title>
<g id="a_edge1_Node000001_Node000002"><a xlink:title=" ">
<path fill="none" stroke="#63b8ff" d="M50.77,-31.65C65.64,-34.1 84.96,-37.27 101.98,-40.07"/>
<polygon fill="#63b8ff" stroke="#63b8ff" points="101.38,-43.52 111.82,-41.69 102.52,-36.61 101.38,-43.52"/>
</a>
</g>
</g>
<!-- Node3 -->
<g id="Node000003" class="node">
<title>Node3</title>
<g id="a_Node000003"><a xlink:href="../../d6/d29/_limiter_8h_acb22222e1b85c7aae820fda4167e47a9.html#acb22222e1b85c7aae820fda4167e47a9" target="_top" xlink:title=" ">
<polygon fill="white" stroke="#666666" points="199.25,-19.25 86.5,-19.25 86.5,0 199.25,0 199.25,-19.25"/>
<text text-anchor="middle" x="142.88" y="-5.75" font-family="Helvetica,sans-Serif" font-size="10.00">Second_Order_Limiter</text>
</a>
</g>
</g>
<!-- Node1&#45;&gt;Node3 -->
<g id="edge2_Node000001_Node000003" class="edge">
<title>Node1&#45;&gt;Node3</title>
<g id="a_edge2_Node000001_Node000003"><a xlink:title=" ">
<path fill="none" stroke="#63b8ff" d="M50.77,-23.81C58.14,-22.66 66.59,-21.34 75.32,-19.99"/>
<polygon fill="#63b8ff" stroke="#63b8ff" points="75.63,-23.48 84.97,-18.48 74.55,-16.56 75.63,-23.48"/>
</a>
</g>
</g>
</g>
</svg>
