<?xml version="1.0" encoding="UTF-8" standalone="no"?>
<!DOCTYPE svg PUBLIC "-//W3C//DTD SVG 1.1//EN"
 "http://www.w3.org/Graphics/SVG/1.1/DTD/svg11.dtd">
<!-- Generated by graphviz version 12.2.1 (20241206.2353)
 -->
<!-- Title: Initialize Pages: 1 -->
<svg width="379pt" height="162pt"
 viewBox="0.00 0.00 378.50 161.88" xmlns="http://www.w3.org/2000/svg" xmlns:xlink="http://www.w3.org/1999/xlink">
<g id="graph0" class="graph" transform="scale(1 1) rotate(0) translate(4 157.88)">
<title>Initialize</title>
<!-- Node1 -->
<g id="Node000001" class="node">
<title>Node1</title>
<g id="a_Node000001"><a xlink:title=" ">
<polygon fill="#999999" stroke="#666666" points="52,-77.25 0,-77.25 0,-58 52,-58 52,-77.25"/>
<text text-anchor="middle" x="26" y="-63.75" font-family="Helvetica,sans-Serif" font-size="10.00">Initialize</text>
</a>
</g>
</g>
<!-- Node2 -->
<g id="Node000002" class="node">
<title>Node2</title>
<g id="a_Node000002"><a xlink:href="../../df/d43/_basic___functions_8cpp_a9ca12fb8f920cab38313323cf0c4bf53.html#a9ca12fb8f920cab38313323cf0c4bf53" target="_top" xlink:title=" ">
<polygon fill="white" stroke="#666666" points="213.5,-153.88 88,-153.88 88,-123.38 213.5,-123.38 213.5,-153.88"/>
<text text-anchor="start" x="96" y="-140.38" font-family="Helvetica,sans-Serif" font-size="10.00">Calculate_Computational</text>
<text text-anchor="middle" x="150.75" y="-129.12" font-family="Helvetica,sans-Serif" font-size="10.00">_Variables</text>
</a>
</g>
</g>
<!-- Node1&#45;&gt;Node2 -->
<g id="edge1_Node000001_Node000002" class="edge">
<title>Node1&#45;&gt;Node2</title>
<g id="a_edge1_Node000001_Node000002"><a xlink:title=" ">
<path fill="none" stroke="#63b8ff" d="M38.07,-77.39C49.84,-87.43 69.3,-103.03 88,-113.62 90.78,-115.2 93.69,-116.73 96.65,-118.2"/>
<polygon fill="#63b8ff" stroke="#63b8ff" points="94.96,-121.28 105.5,-122.33 97.92,-114.93 94.96,-121.28"/>
</a>
</g>
</g>
<!-- Node3 -->
<g id="Node000003" class="node">
<title>Node3</title>
<g id="a_Node000003"><a xlink:href="../../df/d43/_basic___functions_8cpp_a1c199e756f8458978961b4d9ab4cbe63.html#a1c199e756f8458978961b4d9ab4cbe63" target="_top" xlink:title=" ">
<polygon fill="white" stroke="#666666" points="201.12,-104.88 100.38,-104.88 100.38,-74.38 201.12,-74.38 201.12,-104.88"/>
<text text-anchor="start" x="108.38" y="-91.38" font-family="Helvetica,sans-Serif" font-size="10.00">Calculate_Primitive</text>
<text text-anchor="middle" x="150.75" y="-80.12" font-family="Helvetica,sans-Serif" font-size="10.00">_Variables</text>
</a>
</g>
</g>
<!-- Node1&#45;&gt;Node3 -->
<g id="edge2_Node000001_Node000003" class="edge">
<title>Node1&#45;&gt;Node3</title>
<g id="a_edge2_Node000001_Node000003"><a xlink:title=" ">
<path fill="none" stroke="#63b8ff" d="M52.43,-72.18C63.08,-74.09 75.95,-76.4 88.8,-78.7"/>
<polygon fill="#63b8ff" stroke="#63b8ff" points="88.08,-82.13 98.54,-80.45 89.31,-75.24 88.08,-82.13"/>
</a>
</g>
</g>
<!-- Node5 -->
<g id="Node000005" class="node">
<title>Node5</title>
<g id="a_Node000005"><a xlink:href="../../d7/d6d/_initialize_8cpp_acc3c3292e370176c51c654a01e651e24.html#acc3c3292e370176c51c654a01e651e24" target="_top" xlink:title=" ">
<polygon fill="white" stroke="#666666" points="176.75,-56.25 124.75,-56.25 124.75,-37 176.75,-37 176.75,-56.25"/>
<text text-anchor="middle" x="150.75" y="-42.75" font-family="Helvetica,sans-Serif" font-size="10.00">Initialize</text>
</a>
</g>
</g>
<!-- Node1&#45;&gt;Node5 -->
<g id="edge4_Node000001_Node000005" class="edge">
<title>Node1&#45;&gt;Node5</title>
<g id="a_edge4_Node000001_Node000005"><a xlink:title=" ">
<path fill="none" stroke="#63b8ff" d="M52.43,-63.27C69.96,-60.28 93.53,-56.24 113.08,-52.9"/>
<polygon fill="#63b8ff" stroke="#63b8ff" points="113.59,-56.36 122.86,-51.23 112.41,-49.46 113.59,-56.36"/>
</a>
</g>
</g>
<!-- Node7 -->
<g id="Node000007" class="node">
<title>Node7</title>
<g id="a_Node000007"><a xlink:href="../../d3/d82/_c_type___elliptic___grid_8cpp_a6122be421b972a00ce8e6e636589966d.html#a6122be421b972a00ce8e6e636589966d" target="_top" xlink:title=" ">
<polygon fill="white" stroke="#666666" points="165.15,-19.25 136.35,-19.25 136.35,0 165.15,0 165.15,-19.25"/>
<text text-anchor="middle" x="150.75" y="-5.75" font-family="Helvetica,sans-Serif" font-size="10.00">P</text>
</a>
</g>
</g>
<!-- Node1&#45;&gt;Node7 -->
<g id="edge6_Node000001_Node000007" class="edge">
<title>Node1&#45;&gt;Node7</title>
<g id="a_edge6_Node000001_Node000007"><a xlink:title=" ">
<path fill="none" stroke="#63b8ff" d="M39.9,-57.52C51.81,-48.61 70.29,-35.79 88,-27.62 99.74,-22.21 113.49,-18.01 125.03,-15.04"/>
<polygon fill="#63b8ff" stroke="#63b8ff" points="125.71,-18.48 134.61,-12.73 124.07,-11.67 125.71,-18.48"/>
</a>
</g>
</g>
<!-- Node4 -->
<g id="Node000004" class="node">
<title>Node4</title>
<g id="a_Node000004"><a xlink:href="../../db/d81/_viscous___calculations_8cpp_ae9dc3225863fb110155bb3e9dea4e4d3.html#ae9dc3225863fb110155bb3e9dea4e4d3" target="_top" xlink:title=" ">
<polygon fill="white" stroke="#666666" points="338.25,-99.25 281.75,-99.25 281.75,-80 338.25,-80 338.25,-99.25"/>
<text text-anchor="middle" x="310" y="-85.75" font-family="Helvetica,sans-Serif" font-size="10.00">Viscosity</text>
</a>
</g>
</g>
<!-- Node3&#45;&gt;Node4 -->
<g id="edge3_Node000003_Node000004" class="edge">
<title>Node3&#45;&gt;Node4</title>
<g id="a_edge3_Node000003_Node000004"><a xlink:title=" ">
<path fill="none" stroke="#63b8ff" d="M201.5,-89.62C223.72,-89.62 249.51,-89.62 270.26,-89.62"/>
<polygon fill="#63b8ff" stroke="#63b8ff" points="270.01,-93.13 280.01,-89.63 270.01,-86.13 270.01,-93.13"/>
</a>
</g>
</g>
<!-- Node6 -->
<g id="Node000006" class="node">
<title>Node6</title>
<g id="a_Node000006"><a xlink:href="../../d4/d5d/_grid___refine___functions_8cpp_add867401ba6818c3d6480ec342cb0eaa.html#add867401ba6818c3d6480ec342cb0eaa" target="_top" xlink:title="Identifies the secondary neighbors of a given cell to evaluate second gradients.">
<polygon fill="white" stroke="#666666" points="370.5,-61.88 249.5,-61.88 249.5,-31.38 370.5,-31.38 370.5,-61.88"/>
<text text-anchor="start" x="257.5" y="-48.38" font-family="Helvetica,sans-Serif" font-size="10.00">Identify_Neighbours</text>
<text text-anchor="middle" x="310" y="-37.12" font-family="Helvetica,sans-Serif" font-size="10.00">_For_Second_Gradients</text>
</a>
</g>
</g>
<!-- Node5&#45;&gt;Node6 -->
<g id="edge5_Node000005_Node000006" class="edge">
<title>Node5&#45;&gt;Node6</title>
<g id="a_edge5_Node000005_Node000006"><a xlink:title=" ">
<path fill="none" stroke="#63b8ff" d="M177.01,-46.62C193.58,-46.62 216.12,-46.62 237.88,-46.62"/>
<polygon fill="#63b8ff" stroke="#63b8ff" points="237.64,-50.13 247.64,-46.63 237.64,-43.13 237.64,-50.13"/>
</a>
</g>
</g>
</g>
</svg>
