<?xml version="1.0" encoding="UTF-8" standalone="no"?>
<!DOCTYPE svg PUBLIC "-//W3C//DTD SVG 1.1//EN"
 "http://www.w3.org/Graphics/SVG/1.1/DTD/svg11.dtd">
<!-- Generated by graphviz version 12.2.1 (20241206.2353)
 -->
<!-- Title: Identify_Wall_Boundary_Faces Pages: 1 -->
<svg width="442pt" height="508pt"
 viewBox="0.00 0.00 441.50 508.25" xmlns="http://www.w3.org/2000/svg" xmlns:xlink="http://www.w3.org/1999/xlink">
<g id="graph0" class="graph" transform="scale(1 1) rotate(0) translate(4 504.25)">
<title>Identify_Wall_Boundary_Faces</title>
<!-- Node1 -->
<g id="Node000001" class="node">
<title>Node1</title>
<g id="a_Node000001"><a xlink:title=" ">
<polygon fill="#999999" stroke="#666666" points="433.5,-264.88 314.75,-264.88 314.75,-234.38 433.5,-234.38 433.5,-264.88"/>
<text text-anchor="start" x="322.75" y="-251.38" font-family="Helvetica,sans-Serif" font-size="10.00">Identify_Wall_Boundary</text>
<text text-anchor="middle" x="374.12" y="-240.12" font-family="Helvetica,sans-Serif" font-size="10.00">_Faces</text>
</a>
</g>
</g>
<!-- Node2 -->
<g id="Node000002" class="node">
<title>Node2</title>
<g id="a_Node000002"><a xlink:href="../../d0/d3f/_channel___flow_8cpp_a986df1d2277d1fc7e22408557f29c135.html#a986df1d2277d1fc7e22408557f29c135" target="_top" xlink:title=" ">
<polygon fill="white" stroke="#666666" points="252.88,-500.25 174.62,-500.25 174.62,-481 252.88,-481 252.88,-500.25"/>
<text text-anchor="middle" x="213.75" y="-486.75" font-family="Helvetica,sans-Serif" font-size="10.00">Channel_Flow</text>
</a>
</g>
</g>
<!-- Node1&#45;&gt;Node2 -->
<g id="edge1_Node000001_Node000002" class="edge">
<title>Node1&#45;&gt;Node2</title>
<g id="a_edge1_Node000001_Node000002"><a xlink:title=" ">
<path fill="none" stroke="#63b8ff" d="M369.38,-276.58C361.42,-323.48 338.4,-420.07 278.75,-472.62 271.56,-478.96 262.31,-483.08 253.08,-485.75"/>
<polygon fill="#63b8ff" stroke="#63b8ff" points="372.83,-277.19 370.93,-266.77 365.91,-276.1 372.83,-277.19"/>
</a>
</g>
</g>
<!-- Node4 -->
<g id="Node000004" class="node">
<title>Node4</title>
<g id="a_Node000004"><a xlink:href="../../d8/d62/_ellinga___test_case_8cpp_ae7167da7e4a13ec20ea77342a492b6ee.html#ae7167da7e4a13ec20ea77342a492b6ee" target="_top" xlink:title=" ">
<polygon fill="white" stroke="#666666" points="261.12,-463.25 166.38,-463.25 166.38,-444 261.12,-444 261.12,-463.25"/>
<text text-anchor="middle" x="213.75" y="-449.75" font-family="Helvetica,sans-Serif" font-size="10.00">Ellinga_Carbuncle</text>
</a>
</g>
</g>
<!-- Node1&#45;&gt;Node4 -->
<g id="edge3_Node000001_Node000004" class="edge">
<title>Node1&#45;&gt;Node4</title>
<g id="a_edge3_Node000001_Node000004"><a xlink:title=" ">
<path fill="none" stroke="#63b8ff" d="M366.89,-276.41C356.05,-316.97 329.83,-393.67 278.75,-435.62 273.67,-439.8 267.67,-443.01 261.43,-445.48"/>
<polygon fill="#63b8ff" stroke="#63b8ff" points="370.27,-277.32 369.34,-266.76 363.49,-275.59 370.27,-277.32"/>
</a>
</g>
</g>
<!-- Node5 -->
<g id="Node000005" class="node">
<title>Node5</title>
<g id="a_Node000005"><a xlink:href="../../dc/d8c/_forward___facing___step_8cpp_a5f68d17ee33caeda5da8c4270441108c.html#a5f68d17ee33caeda5da8c4270441108c" target="_top" xlink:title=" ">
<polygon fill="white" stroke="#666666" points="269.38,-426.25 158.12,-426.25 158.12,-407 269.38,-407 269.38,-426.25"/>
<text text-anchor="middle" x="213.75" y="-412.75" font-family="Helvetica,sans-Serif" font-size="10.00">Forward_Facing_Step</text>
</a>
</g>
</g>
<!-- Node1&#45;&gt;Node5 -->
<g id="edge5_Node000001_Node000005" class="edge">
<title>Node1&#45;&gt;Node5</title>
<g id="a_edge5_Node000001_Node000005"><a xlink:title=" ">
<path fill="none" stroke="#63b8ff" d="M363.5,-275.73C349.82,-309.21 321.55,-366.74 278.75,-398.62 274.49,-401.8 269.7,-404.41 264.7,-406.56"/>
<polygon fill="#63b8ff" stroke="#63b8ff" points="366.62,-277.36 367.03,-266.77 360.11,-274.8 366.62,-277.36"/>
</a>
</g>
</g>
<!-- Node6 -->
<g id="Node000006" class="node">
<title>Node6</title>
<g id="a_Node000006"><a xlink:href="../../df/dee/_half___cylinder___test___case_8cpp_ad6cb651752c2dd1cb946428572cfb769.html#ad6cb651752c2dd1cb946428572cfb769" target="_top" xlink:title=" ">
<polygon fill="white" stroke="#666666" points="264.5,-389.25 163,-389.25 163,-370 264.5,-370 264.5,-389.25"/>
<text text-anchor="middle" x="213.75" y="-375.75" font-family="Helvetica,sans-Serif" font-size="10.00">Half_Cylinder_Flow</text>
</a>
</g>
</g>
<!-- Node1&#45;&gt;Node6 -->
<g id="edge7_Node000001_Node000006" class="edge">
<title>Node1&#45;&gt;Node6</title>
<g id="a_edge7_Node000001_Node000006"><a xlink:title=" ">
<path fill="none" stroke="#63b8ff" d="M358.22,-274.95C341.87,-300.52 313.32,-339.35 278.75,-361.62 273.8,-364.81 268.28,-367.45 262.62,-369.62"/>
<polygon fill="#63b8ff" stroke="#63b8ff" points="361.16,-276.83 363.46,-266.49 355.22,-273.14 361.16,-276.83"/>
</a>
</g>
</g>
<!-- Node7 -->
<g id="Node000007" class="node">
<title>Node7</title>
<g id="a_Node000007"><a xlink:href="../../de/dc4/_o_e_d_8cpp_a1404a4711dcead4c50dd9eaa2ab7b7c0.html#a1404a4711dcead4c50dd9eaa2ab7b7c0" target="_top" xlink:title=" ">
<polygon fill="white" stroke="#666666" points="232.62,-352.25 194.88,-352.25 194.88,-333 232.62,-333 232.62,-352.25"/>
<text text-anchor="middle" x="213.75" y="-338.75" font-family="Helvetica,sans-Serif" font-size="10.00">OED</text>
</a>
</g>
</g>
<!-- Node1&#45;&gt;Node7 -->
<g id="edge9_Node000001_Node000007" class="edge">
<title>Node1&#45;&gt;Node7</title>
<g id="a_edge9_Node000001_Node000007"><a xlink:title=" ">
<path fill="none" stroke="#63b8ff" d="M349.31,-273.02C331.28,-289.56 305.17,-311.11 278.75,-324.62 264.26,-332.04 246.32,-336.74 233.12,-339.48"/>
<polygon fill="#63b8ff" stroke="#63b8ff" points="351.48,-275.78 356.38,-266.39 346.69,-270.68 351.48,-275.78"/>
</a>
</g>
</g>
<!-- Node8 -->
<g id="Node000008" class="node">
<title>Node8</title>
<g id="a_Node000008"><a xlink:href="../../dd/de9/_ramp__15___degree_8cpp_af85931ed4e293dce5c8e4acafecd54b5.html#af85931ed4e293dce5c8e4acafecd54b5" target="_top" xlink:title=" ">
<polygon fill="white" stroke="#666666" points="261.12,-315.25 166.38,-315.25 166.38,-296 261.12,-296 261.12,-315.25"/>
<text text-anchor="middle" x="213.75" y="-301.75" font-family="Helvetica,sans-Serif" font-size="10.00">Ramp_15_Degree</text>
</a>
</g>
</g>
<!-- Node1&#45;&gt;Node8 -->
<g id="edge11_Node000001_Node000008" class="edge">
<title>Node1&#45;&gt;Node8</title>
<g id="a_edge11_Node000001_Node000008"><a xlink:title=" ">
<path fill="none" stroke="#63b8ff" d="M326.14,-269.71C311.13,-275.81 294.36,-282.31 278.75,-287.62 270.56,-290.42 261.67,-293.12 253.2,-295.54"/>
<polygon fill="#63b8ff" stroke="#63b8ff" points="327.41,-272.98 335.32,-265.93 324.74,-266.5 327.41,-272.98"/>
</a>
</g>
</g>
<!-- Node9 -->
<g id="Node000009" class="node">
<title>Node9</title>
<g id="a_Node000009"><a xlink:href="../../d2/d72/_scram___jet___inlet___test___case_8cpp_a49bbbeed352ab44d6248954f9d5391b0.html#a49bbbeed352ab44d6248954f9d5391b0" target="_top" xlink:title=" ">
<polygon fill="white" stroke="#666666" points="257.38,-278.25 170.12,-278.25 170.12,-259 257.38,-259 257.38,-278.25"/>
<text text-anchor="middle" x="213.75" y="-264.75" font-family="Helvetica,sans-Serif" font-size="10.00">Scram_Jet_Inlet</text>
</a>
</g>
</g>
<!-- Node1&#45;&gt;Node9 -->
<g id="edge13_Node000001_Node000009" class="edge">
<title>Node1&#45;&gt;Node9</title>
<g id="a_edge13_Node000001_Node000009"><a xlink:title=" ">
<path fill="none" stroke="#63b8ff" d="M303.4,-257.99C287.84,-259.86 271.79,-261.78 257.69,-263.47"/>
<polygon fill="#63b8ff" stroke="#63b8ff" points="303.59,-261.49 313.1,-256.83 302.75,-254.54 303.59,-261.49"/>
</a>
</g>
</g>
<!-- Node10 -->
<g id="Node000010" class="node">
<title>Node10</title>
<g id="a_Node000010"><a xlink:href="../../d1/d48/_shock___bubble___interaction_8cpp_a4cb762eff7e59896e567775356bda66a.html#a4cb762eff7e59896e567775356bda66a" target="_top" xlink:title=" ">
<polygon fill="white" stroke="#666666" points="278.75,-241.25 148.75,-241.25 148.75,-222 278.75,-222 278.75,-241.25"/>
<text text-anchor="middle" x="213.75" y="-227.75" font-family="Helvetica,sans-Serif" font-size="10.00">Shock_Bubble_Interaction</text>
</a>
</g>
</g>
<!-- Node1&#45;&gt;Node10 -->
<g id="edge15_Node000001_Node000010" class="edge">
<title>Node1&#45;&gt;Node10</title>
<g id="a_edge15_Node000001_Node000010"><a xlink:title=" ">
<path fill="none" stroke="#63b8ff" d="M303.35,-241.69C295.31,-240.78 287.13,-239.85 279.16,-238.95"/>
<polygon fill="#63b8ff" stroke="#63b8ff" points="302.77,-245.15 313.1,-242.8 303.56,-238.2 302.77,-245.15"/>
</a>
</g>
</g>
<!-- Node11 -->
<g id="Node000011" class="node">
<title>Node11</title>
<g id="a_Node000011"><a xlink:href="../../d5/d9f/_shock___diffraction_8cpp_a464d43fab5d32cc9ecee800dfab8e5c8.html#a464d43fab5d32cc9ecee800dfab8e5c8" target="_top" xlink:title=" ">
<polygon fill="white" stroke="#666666" points="260.75,-204.25 166.75,-204.25 166.75,-185 260.75,-185 260.75,-204.25"/>
<text text-anchor="middle" x="213.75" y="-190.75" font-family="Helvetica,sans-Serif" font-size="10.00">Shock_Diffraction</text>
</a>
</g>
</g>
<!-- Node1&#45;&gt;Node11 -->
<g id="edge17_Node000001_Node000011" class="edge">
<title>Node1&#45;&gt;Node11</title>
<g id="a_edge17_Node000001_Node000011"><a xlink:title=" ">
<path fill="none" stroke="#63b8ff" d="M325.32,-229.82C310.51,-223.97 294.05,-217.76 278.75,-212.62 270.43,-209.83 261.42,-207.11 252.84,-204.67"/>
<polygon fill="#63b8ff" stroke="#63b8ff" points="323.79,-232.98 334.38,-233.43 326.39,-226.48 323.79,-232.98"/>
</a>
</g>
</g>
<!-- Node12 -->
<g id="Node000012" class="node">
<title>Node12</title>
<g id="a_Node000012"><a xlink:href="../../d2/d58/_shock___reflection__2_d_8cpp_a286a95bfcac44ff19264008ffd9506ed.html#a286a95bfcac44ff19264008ffd9506ed" target="_top" xlink:title=" ">
<polygon fill="white" stroke="#666666" points="269.38,-167.25 158.12,-167.25 158.12,-148 269.38,-148 269.38,-167.25"/>
<text text-anchor="middle" x="213.75" y="-153.75" font-family="Helvetica,sans-Serif" font-size="10.00">Shock_Reflection_2D</text>
</a>
</g>
</g>
<!-- Node1&#45;&gt;Node12 -->
<g id="edge19_Node000001_Node000012" class="edge">
<title>Node1&#45;&gt;Node12</title>
<g id="a_edge19_Node000001_Node000012"><a xlink:title=" ">
<path fill="none" stroke="#63b8ff" d="M349.26,-226.56C331.19,-210.25 305.08,-188.98 278.75,-175.62 272.68,-172.54 266,-169.93 259.33,-167.72"/>
<polygon fill="#63b8ff" stroke="#63b8ff" points="346.61,-228.88 356.33,-233.09 351.35,-223.73 346.61,-228.88"/>
</a>
</g>
</g>
<!-- Node13 -->
<g id="Node000013" class="node">
<title>Node13</title>
<g id="a_Node000013"><a xlink:href="../../d6/d4f/_shock___tube__2_d_8cpp_a634f5b7cf63cab96d3b48ed0b4df6ad4.html#a634f5b7cf63cab96d3b48ed0b4df6ad4" target="_top" xlink:title=" ">
<polygon fill="white" stroke="#666666" points="258.12,-130.25 169.38,-130.25 169.38,-111 258.12,-111 258.12,-130.25"/>
<text text-anchor="middle" x="213.75" y="-116.75" font-family="Helvetica,sans-Serif" font-size="10.00">Shock_Tube_2D</text>
</a>
</g>
</g>
<!-- Node1&#45;&gt;Node13 -->
<g id="edge21_Node000001_Node000013" class="edge">
<title>Node1&#45;&gt;Node13</title>
<g id="a_edge21_Node000001_Node000013"><a xlink:title=" ">
<path fill="none" stroke="#63b8ff" d="M358.16,-224.53C341.78,-199.18 313.19,-160.71 278.75,-138.62 272.63,-134.7 265.64,-131.62 258.59,-129.2"/>
<polygon fill="#63b8ff" stroke="#63b8ff" points="355.14,-226.3 363.42,-232.9 361.07,-222.57 355.14,-226.3"/>
</a>
</g>
</g>
<!-- Node14 -->
<g id="Node000014" class="node">
<title>Node14</title>
<g id="a_Node000014"><a xlink:href="../../de/dda/_shock___wedge___reflection_8cpp_a951397acc5a124a5a006dbd5ae45029a.html#a951397acc5a124a5a006dbd5ae45029a" target="_top" xlink:title=" ">
<polygon fill="white" stroke="#666666" points="278,-93.25 149.5,-93.25 149.5,-74 278,-74 278,-93.25"/>
<text text-anchor="middle" x="213.75" y="-79.75" font-family="Helvetica,sans-Serif" font-size="10.00">Shock_Wedge_Reflection</text>
</a>
</g>
</g>
<!-- Node1&#45;&gt;Node14 -->
<g id="edge23_Node000001_Node000014" class="edge">
<title>Node1&#45;&gt;Node14</title>
<g id="a_edge23_Node000001_Node000014"><a xlink:title=" ">
<path fill="none" stroke="#63b8ff" d="M363.45,-223.7C349.72,-190.44 321.4,-133.29 278.75,-101.62 274.49,-98.46 269.69,-95.85 264.69,-93.7"/>
<polygon fill="#63b8ff" stroke="#63b8ff" points="360.04,-224.59 366.99,-232.58 366.54,-222 360.04,-224.59"/>
</a>
</g>
</g>
<!-- Node15 -->
<g id="Node000015" class="node">
<title>Node15</title>
<g id="a_Node000015"><a xlink:href="../../d8/d8f/_slip___flow__2_d_8cpp_a41030236ecf9b4d95159d7227a838eab.html#a41030236ecf9b4d95159d7227a838eab" target="_top" xlink:title=" ">
<polygon fill="white" stroke="#666666" points="252.12,-56.25 175.38,-56.25 175.38,-37 252.12,-37 252.12,-56.25"/>
<text text-anchor="middle" x="213.75" y="-42.75" font-family="Helvetica,sans-Serif" font-size="10.00">Slip_Flow_2D</text>
</a>
</g>
</g>
<!-- Node1&#45;&gt;Node15 -->
<g id="edge25_Node000001_Node000015" class="edge">
<title>Node1&#45;&gt;Node15</title>
<g id="a_edge25_Node000001_Node000015"><a xlink:title=" ">
<path fill="none" stroke="#63b8ff" d="M366.85,-222.98C355.95,-182.64 329.65,-106.35 278.75,-64.62 271.25,-58.48 261.78,-54.43 252.45,-51.76"/>
<polygon fill="#63b8ff" stroke="#63b8ff" points="363.43,-223.76 369.31,-232.57 370.21,-222.02 363.43,-223.76"/>
</a>
</g>
</g>
<!-- Node16 -->
<g id="Node000016" class="node">
<title>Node16</title>
<g id="a_Node000016"><a xlink:href="../../d8/da5/_s_w_b_l_i_8cpp_aab1edbd94ae1737559f5140355148ed8.html#aab1edbd94ae1737559f5140355148ed8" target="_top" xlink:title=" ">
<polygon fill="white" stroke="#666666" points="237.5,-19.25 190,-19.25 190,0 237.5,0 237.5,-19.25"/>
<text text-anchor="middle" x="213.75" y="-5.75" font-family="Helvetica,sans-Serif" font-size="10.00">SWBLI</text>
</a>
</g>
</g>
<!-- Node1&#45;&gt;Node16 -->
<g id="edge27_Node000001_Node000016" class="edge">
<title>Node1&#45;&gt;Node16</title>
<g id="a_edge27_Node000001_Node000016"><a xlink:title=" ">
<path fill="none" stroke="#63b8ff" d="M369.34,-222.78C361.32,-176.1 338.21,-79.93 278.75,-27.62 267.48,-17.71 251.16,-13.23 237.81,-11.21"/>
<polygon fill="#63b8ff" stroke="#63b8ff" points="365.87,-223.23 370.9,-232.55 372.78,-222.13 365.87,-223.23"/>
</a>
</g>
</g>
<!-- Node3 -->
<g id="Node000003" class="node">
<title>Node3</title>
<g id="a_Node000003"><a xlink:href="../../dd/dbf/_euler___python___wrapper_8cpp_ac5ccb50c3be270f798e054dd36987442.html#ac5ccb50c3be270f798e054dd36987442" target="_top" xlink:title=" ">
<polygon fill="white" stroke="#666666" points="112.75,-259.25 0,-259.25 0,-240 112.75,-240 112.75,-259.25"/>
<text text-anchor="middle" x="56.38" y="-245.75" font-family="Helvetica,sans-Serif" font-size="10.00">PYBIND11_MODULE</text>
</a>
</g>
</g>
<!-- Node2&#45;&gt;Node3 -->
<g id="edge2_Node000002_Node000003" class="edge">
<title>Node2&#45;&gt;Node3</title>
<g id="a_edge2_Node000002_Node000003"><a xlink:title=" ">
<path fill="none" stroke="#63b8ff" d="M163.68,-481.96C158.24,-479.56 153.11,-476.51 148.75,-472.62 80.98,-412.21 62.45,-293.99 58.37,-259.37"/>
<polygon fill="#63b8ff" stroke="#63b8ff" points="162.35,-485.2 172.94,-485.3 164.72,-478.62 162.35,-485.2"/>
</a>
</g>
</g>
<!-- Node4&#45;&gt;Node3 -->
<g id="edge4_Node000004_Node000003" class="edge">
<title>Node4&#45;&gt;Node3</title>
<g id="a_edge4_Node000004_Node000003"><a xlink:title=" ">
<path fill="none" stroke="#63b8ff" d="M155.86,-440.6C153.35,-439.12 150.96,-437.47 148.75,-435.62 89.85,-386.6 65.71,-290.39 59.26,-259.46"/>
<polygon fill="#63b8ff" stroke="#63b8ff" points="154.14,-443.66 164.66,-444.87 157.19,-437.36 154.14,-443.66"/>
</a>
</g>
</g>
<!-- Node5&#45;&gt;Node3 -->
<g id="edge6_Node000005_Node000003" class="edge">
<title>Node5&#45;&gt;Node3</title>
<g id="a_edge6_Node000005_Node000003"><a xlink:title=" ">
<path fill="none" stroke="#63b8ff" d="M152.87,-401.46C151.45,-400.57 150.07,-399.63 148.75,-398.62 98.65,-360.74 69.83,-286.7 60.63,-259.75"/>
<polygon fill="#63b8ff" stroke="#63b8ff" points="150.93,-404.4 161.41,-405.92 154.17,-398.19 150.93,-404.4"/>
</a>
</g>
</g>
<!-- Node6&#45;&gt;Node3 -->
<g id="edge8_Node000006_Node000003" class="edge">
<title>Node6&#45;&gt;Node3</title>
<g id="a_edge8_Node000006_Node000003"><a xlink:title=" ">
<path fill="none" stroke="#63b8ff" d="M154.39,-364.96C152.45,-363.92 150.56,-362.81 148.75,-361.62 106.99,-334.24 74.94,-281.75 62.74,-259.74"/>
<polygon fill="#63b8ff" stroke="#63b8ff" points="152.57,-367.97 163.12,-368.94 155.47,-361.6 152.57,-367.97"/>
</a>
</g>
</g>
<!-- Node7&#45;&gt;Node3 -->
<g id="edge10_Node000007_Node000003" class="edge">
<title>Node7&#45;&gt;Node3</title>
<g id="a_edge10_Node000007_Node000003"><a xlink:title=" ">
<path fill="none" stroke="#63b8ff" d="M183.56,-337.11C172.29,-334.29 159.54,-330.25 148.75,-324.62 115.09,-307.07 82.36,-275.72 66.79,-259.68"/>
<polygon fill="#63b8ff" stroke="#63b8ff" points="182.62,-340.48 193.15,-339.27 184.16,-333.65 182.62,-340.48"/>
</a>
</g>
</g>
<!-- Node8&#45;&gt;Node3 -->
<g id="edge12_Node000008_Node000003" class="edge">
<title>Node8&#45;&gt;Node3</title>
<g id="a_edge12_Node000008_Node000003"><a xlink:title=" ">
<path fill="none" stroke="#63b8ff" d="M163.22,-292.34C158.31,-290.83 153.41,-289.24 148.75,-287.62 124.57,-279.23 97.58,-267.73 79.25,-259.59"/>
<polygon fill="#63b8ff" stroke="#63b8ff" points="161.9,-295.59 172.49,-295.08 163.89,-288.88 161.9,-295.59"/>
</a>
</g>
</g>
<!-- Node9&#45;&gt;Node3 -->
<g id="edge14_Node000009_Node000003" class="edge">
<title>Node9&#45;&gt;Node3</title>
<g id="a_edge14_Node000009_Node000003"><a xlink:title=" ">
<path fill="none" stroke="#63b8ff" d="M158.88,-262.04C144.12,-260.23 128.08,-258.27 113.21,-256.45"/>
<polygon fill="#63b8ff" stroke="#63b8ff" points="158.03,-265.46 168.38,-263.2 158.88,-258.51 158.03,-265.46"/>
</a>
</g>
</g>
<!-- Node10&#45;&gt;Node3 -->
<g id="edge16_Node000010_Node000003" class="edge">
<title>Node10&#45;&gt;Node3</title>
<g id="a_edge16_Node000010_Node000003"><a xlink:title=" ">
<path fill="none" stroke="#63b8ff" d="M137.43,-240.35C129.16,-241.31 120.86,-242.27 112.89,-243.19"/>
<polygon fill="#63b8ff" stroke="#63b8ff" points="137.62,-243.85 147.15,-239.22 136.82,-236.9 137.62,-243.85"/>
</a>
</g>
</g>
<!-- Node11&#45;&gt;Node3 -->
<g id="edge18_Node000011_Node000003" class="edge">
<title>Node11&#45;&gt;Node3</title>
<g id="a_edge18_Node000011_Node000003"><a xlink:title=" ">
<path fill="none" stroke="#63b8ff" d="M163.44,-207.9C158.45,-209.42 153.49,-211.01 148.75,-212.62 124.94,-220.76 98.35,-231.76 80.02,-239.64"/>
<polygon fill="#63b8ff" stroke="#63b8ff" points="164.24,-211.31 172.84,-205.12 162.26,-204.6 164.24,-211.31"/>
</a>
</g>
</g>
<!-- Node12&#45;&gt;Node3 -->
<g id="edge20_Node000012_Node000003" class="edge">
<title>Node12&#45;&gt;Node3</title>
<g id="a_edge20_Node000012_Node000003"><a xlink:title=" ">
<path fill="none" stroke="#63b8ff" d="M157.6,-171.54C154.55,-172.8 151.59,-174.16 148.75,-175.62 115.21,-192.98 82.43,-223.9 66.82,-239.71"/>
<polygon fill="#63b8ff" stroke="#63b8ff" points="158.55,-174.92 166.71,-168.16 156.11,-168.36 158.55,-174.92"/>
</a>
</g>
</g>
<!-- Node13&#45;&gt;Node3 -->
<g id="edge22_Node000013_Node000003" class="edge">
<title>Node13&#45;&gt;Node3</title>
<g id="a_edge22_Node000013_Node000003"><a xlink:title=" ">
<path fill="none" stroke="#63b8ff" d="M158.6,-133.22C155.16,-134.81 151.84,-136.61 148.75,-138.62 107.15,-165.77 75.01,-217.79 62.76,-239.6"/>
<polygon fill="#63b8ff" stroke="#63b8ff" points="159.79,-136.51 167.78,-129.56 157.2,-130.01 159.79,-136.51"/>
</a>
</g>
</g>
<!-- Node14&#45;&gt;Node3 -->
<g id="edge24_Node000014_Node000003" class="edge">
<title>Node14&#45;&gt;Node3</title>
<g id="a_edge24_Node000014_Node000003"><a xlink:title=" ">
<path fill="none" stroke="#63b8ff" d="M152.87,-98.79C151.45,-99.68 150.07,-100.63 148.75,-101.62 98.83,-139.25 69.9,-212.79 60.65,-239.57"/>
<polygon fill="#63b8ff" stroke="#63b8ff" points="154.17,-102.06 161.42,-94.34 150.94,-95.85 154.17,-102.06"/>
</a>
</g>
</g>
<!-- Node15&#45;&gt;Node3 -->
<g id="edge26_Node000015_Node000003" class="edge">
<title>Node15&#45;&gt;Node3</title>
<g id="a_edge26_Node000015_Node000003"><a xlink:title=" ">
<path fill="none" stroke="#63b8ff" d="M164.56,-55.32C158.85,-57.71 153.41,-60.75 148.75,-64.62 90.05,-113.38 65.77,-209.07 59.27,-239.85"/>
<polygon fill="#63b8ff" stroke="#63b8ff" points="165.28,-58.78 173.57,-52.19 162.98,-52.17 165.28,-58.78"/>
</a>
</g>
</g>
<!-- Node16&#45;&gt;Node3 -->
<g id="edge28_Node000016_Node000003" class="edge">
<title>Node16&#45;&gt;Node3</title>
<g id="a_edge28_Node000016_Node000003"><a xlink:title=" ">
<path fill="none" stroke="#63b8ff" d="M178.52,-13.34C167.97,-15.93 156.98,-20.3 148.75,-27.62 81.19,-87.75 62.51,-205.46 58.39,-239.92"/>
<polygon fill="#63b8ff" stroke="#63b8ff" points="179.02,-16.81 188.16,-11.46 177.67,-9.94 179.02,-16.81"/>
</a>
</g>
</g>
</g>
</svg>
