<?xml version="1.0" encoding="UTF-8" standalone="no"?>
<!DOCTYPE svg PUBLIC "-//W3C//DTD SVG 1.1//EN"
 "http://www.w3.org/Graphics/SVG/1.1/DTD/svg11.dtd">
<!-- Generated by graphviz version 12.2.1 (20241206.2353)
 -->
<!-- Title: Cylinder::Cluster_Grid_Cylinder_Plane Pages: 1 -->
<svg width="426pt" height="224pt"
 viewBox="0.00 0.00 425.75 224.25" xmlns="http://www.w3.org/2000/svg" xmlns:xlink="http://www.w3.org/1999/xlink">
<g id="graph0" class="graph" transform="scale(1 1) rotate(0) translate(4 220.25)">
<title>Cylinder::Cluster_Grid_Cylinder_Plane</title>
<!-- Node1 -->
<g id="Node000001" class="node">
<title>Node1</title>
<g id="a_Node000001"><a xlink:title=" ">
<polygon fill="#999999" stroke="#666666" points="112.75,-79.88 0,-79.88 0,-49.38 112.75,-49.38 112.75,-79.88"/>
<text text-anchor="start" x="8" y="-66.38" font-family="Helvetica,sans-Serif" font-size="10.00">Cylinder::Cluster_Grid</text>
<text text-anchor="middle" x="56.38" y="-55.12" font-family="Helvetica,sans-Serif" font-size="10.00">_Cylinder_Plane</text>
</a>
</g>
</g>
<!-- Node2 -->
<g id="Node000002" class="node">
<title>Node2</title>
<g id="a_Node000002"><a xlink:href="../../da/d74/class_grid_ab929318e5ef123712523299305dfe12f.html#ab929318e5ef123712523299305dfe12f" target="_top" xlink:title=" ">
<polygon fill="white" stroke="#666666" points="254.75,-130.25 151.75,-130.25 151.75,-111 254.75,-111 254.75,-130.25"/>
<text text-anchor="middle" x="203.25" y="-116.75" font-family="Helvetica,sans-Serif" font-size="10.00">Grid::Generate_Grid</text>
</a>
</g>
</g>
<!-- Node1&#45;&gt;Node2 -->
<g id="edge1_Node000001_Node000002" class="edge">
<title>Node1&#45;&gt;Node2</title>
<g id="a_edge1_Node000001_Node000002"><a xlink:title=" ">
<path fill="none" stroke="#63b8ff" d="M93.6,-80.37C110.29,-87.45 130.41,-95.74 148.75,-102.62 152.44,-104.01 156.29,-105.41 160.16,-106.77"/>
<polygon fill="#63b8ff" stroke="#63b8ff" points="158.98,-110.07 169.57,-110.02 161.26,-103.45 158.98,-110.07"/>
</a>
</g>
</g>
<!-- Node8 -->
<g id="Node000008" class="node">
<title>Node8</title>
<g id="a_Node000008"><a xlink:href="../../da/d74/class_grid_ada712360e862dad0f75e839a3c52fc14.html#ada712360e862dad0f75e839a3c52fc14" target="_top" xlink:title=" ">
<polygon fill="white" stroke="#666666" points="253.25,-93.25 153.25,-93.25 153.25,-74 253.25,-74 253.25,-93.25"/>
<text text-anchor="middle" x="203.25" y="-79.75" font-family="Helvetica,sans-Serif" font-size="10.00">Grid::Get_Grid_List</text>
</a>
</g>
</g>
<!-- Node1&#45;&gt;Node8 -->
<g id="edge7_Node000001_Node000008" class="edge">
<title>Node1&#45;&gt;Node8</title>
<g id="a_edge7_Node000001_Node000008"><a xlink:title=" ">
<path fill="none" stroke="#63b8ff" d="M112.97,-71.92C122.49,-73.17 132.43,-74.47 142.06,-75.73"/>
<polygon fill="#63b8ff" stroke="#63b8ff" points="141.32,-79.16 151.69,-76.99 142.23,-72.22 141.32,-79.16"/>
</a>
</g>
</g>
<!-- Node9 -->
<g id="Node000009" class="node">
<title>Node9</title>
<g id="a_Node000009"><a xlink:href="../../d0/d88/class_circle_a468a9fd60b528d2a89f442d0e95d7031.html#a468a9fd60b528d2a89f442d0e95d7031" target="_top" xlink:title=" ">
<polygon fill="white" stroke="#666666" points="257.75,-56.25 148.75,-56.25 148.75,-37 257.75,-37 257.75,-56.25"/>
<text text-anchor="middle" x="203.25" y="-42.75" font-family="Helvetica,sans-Serif" font-size="10.00">Circle::Get_Point_list</text>
</a>
</g>
</g>
<!-- Node1&#45;&gt;Node9 -->
<g id="edge8_Node000001_Node000009" class="edge">
<title>Node1&#45;&gt;Node9</title>
<g id="a_edge8_Node000001_Node000009"><a xlink:title=" ">
<path fill="none" stroke="#63b8ff" d="M112.97,-57.72C120.89,-56.73 129.09,-55.71 137.17,-54.71"/>
<polygon fill="#63b8ff" stroke="#63b8ff" points="137.48,-58.2 146.97,-53.49 136.61,-51.25 137.48,-58.2"/>
</a>
</g>
</g>
<!-- Node10 -->
<g id="Node000010" class="node">
<title>Node10</title>
<g id="a_Node000010"><a xlink:href="../../da/d74/class_grid_abeb69c2204f0debb7fe803fbc111d2bf.html#abeb69c2204f0debb7fe803fbc111d2bf" target="_top" xlink:title=" ">
<polygon fill="white" stroke="#666666" points="247.62,-19.25 158.88,-19.25 158.88,0 247.62,0 247.62,-19.25"/>
<text text-anchor="middle" x="203.25" y="-5.75" font-family="Helvetica,sans-Serif" font-size="10.00">Grid::Stack_Grid</text>
</a>
</g>
</g>
<!-- Node1&#45;&gt;Node10 -->
<g id="edge9_Node000001_Node000010" class="edge">
<title>Node1&#45;&gt;Node10</title>
<g id="a_edge9_Node000001_Node000010"><a xlink:title=" ">
<path fill="none" stroke="#63b8ff" d="M94.52,-48.99C111.04,-42.2 130.77,-34.28 148.75,-27.62 152.61,-26.2 156.64,-24.75 160.68,-23.34"/>
<polygon fill="#63b8ff" stroke="#63b8ff" points="161.55,-26.74 169.87,-20.18 159.28,-20.12 161.55,-26.74"/>
</a>
</g>
</g>
<!-- Node3 -->
<g id="Node000003" class="node">
<title>Node3</title>
<g id="a_Node000003"><a xlink:href="../../da/d74/class_grid_a90c5271ba6fdba6112a562693bd9a0f2.html#a90c5271ba6fdba6112a562693bd9a0f2" target="_top" xlink:title=" ">
<polygon fill="white" stroke="#666666" points="390.38,-216.25 321.12,-216.25 321.12,-197 390.38,-197 390.38,-216.25"/>
<text text-anchor="middle" x="355.75" y="-202.75" font-family="Helvetica,sans-Serif" font-size="10.00">Grid::Elliptic</text>
</a>
</g>
</g>
<!-- Node2&#45;&gt;Node3 -->
<g id="edge2_Node000002_Node000003" class="edge">
<title>Node2&#45;&gt;Node3</title>
<g id="a_edge2_Node000002_Node000003"><a xlink:title=" ">
<path fill="none" stroke="#63b8ff" d="M215,-130.63C231.03,-145.06 262.64,-171.73 293.75,-187.62 298.87,-190.24 304.41,-192.57 310,-194.63"/>
<polygon fill="#63b8ff" stroke="#63b8ff" points="308.67,-197.88 319.26,-197.77 310.92,-191.25 308.67,-197.88"/>
</a>
</g>
</g>
<!-- Node4 -->
<g id="Node000004" class="node">
<title>Node4</title>
<g id="a_Node000004"><a xlink:href="../../da/d74/class_grid_ac1e989c2a3c81fd365d9ae57e7f15b61.html#ac1e989c2a3c81fd365d9ae57e7f15b61" target="_top" xlink:title=" ">
<polygon fill="white" stroke="#666666" points="408.38,-178.88 303.12,-178.88 303.12,-148.38 408.38,-148.38 408.38,-178.88"/>
<text text-anchor="start" x="311.12" y="-165.38" font-family="Helvetica,sans-Serif" font-size="10.00">Grid::Estimate_Error</text>
<text text-anchor="middle" x="355.75" y="-154.12" font-family="Helvetica,sans-Serif" font-size="10.00">_and_Update</text>
</a>
</g>
</g>
<!-- Node2&#45;&gt;Node4 -->
<g id="edge3_Node000002_Node000004" class="edge">
<title>Node2&#45;&gt;Node4</title>
<g id="a_edge3_Node000002_Node000004"><a xlink:title=" ">
<path fill="none" stroke="#63b8ff" d="M239.54,-130.71C255.15,-135.17 273.99,-140.55 291.88,-145.66"/>
<polygon fill="#63b8ff" stroke="#63b8ff" points="290.82,-149 301.4,-148.38 292.75,-142.27 290.82,-149"/>
</a>
</g>
</g>
<!-- Node5 -->
<g id="Node000005" class="node">
<title>Node5</title>
<g id="a_Node000005"><a xlink:href="../../da/d74/class_grid_ab7768e9853f9b8e4530a25d242fdea1b.html#ab7768e9853f9b8e4530a25d242fdea1b" target="_top" xlink:title=" ">
<polygon fill="white" stroke="#666666" points="417.75,-130.25 293.75,-130.25 293.75,-111 417.75,-111 417.75,-130.25"/>
<text text-anchor="middle" x="355.75" y="-116.75" font-family="Helvetica,sans-Serif" font-size="10.00">Grid::Generate_Grid_List</text>
</a>
</g>
</g>
<!-- Node2&#45;&gt;Node5 -->
<g id="edge4_Node000002_Node000005" class="edge">
<title>Node2&#45;&gt;Node5</title>
<g id="a_edge4_Node000002_Node000005"><a xlink:title=" ">
<path fill="none" stroke="#63b8ff" d="M255.2,-120.62C263.84,-120.62 272.95,-120.62 282.01,-120.62"/>
<polygon fill="#63b8ff" stroke="#63b8ff" points="281.91,-124.13 291.91,-120.63 281.91,-117.13 281.91,-124.13"/>
</a>
</g>
</g>
<!-- Node6 -->
<g id="Node000006" class="node">
<title>Node6</title>
<g id="a_Node000006"><a xlink:href="../../da/d74/class_grid_a246dcc7405f9142fc624bafb817ed9fe.html#a246dcc7405f9142fc624bafb817ed9fe" target="_top" xlink:title=" ">
<polygon fill="white" stroke="#666666" points="416.62,-92.88 294.88,-92.88 294.88,-62.38 416.62,-62.38 416.62,-92.88"/>
<text text-anchor="start" x="302.88" y="-79.38" font-family="Helvetica,sans-Serif" font-size="10.00">Grid::Periodic_Boundary</text>
<text text-anchor="middle" x="355.75" y="-68.12" font-family="Helvetica,sans-Serif" font-size="10.00">_Condition</text>
</a>
</g>
</g>
<!-- Node2&#45;&gt;Node6 -->
<g id="edge5_Node000002_Node000006" class="edge">
<title>Node2&#45;&gt;Node6</title>
<g id="a_edge5_Node000002_Node000006"><a xlink:title=" ">
<path fill="none" stroke="#63b8ff" d="M239.54,-110.54C254.22,-106.35 271.76,-101.34 288.67,-96.5"/>
<polygon fill="#63b8ff" stroke="#63b8ff" points="289.55,-99.89 298.2,-93.78 287.63,-93.16 289.55,-99.89"/>
</a>
</g>
</g>
<!-- Node7 -->
<g id="Node000007" class="node">
<title>Node7</title>
<g id="a_Node000007"><a xlink:href="../../da/d74/class_grid_a908819a747032ceba240db6d955ff931.html#a908819a747032ceba240db6d955ff931" target="_top" xlink:title=" ">
<polygon fill="white" stroke="#666666" points="383.25,-44.25 328.25,-44.25 328.25,-25 383.25,-25 383.25,-44.25"/>
<text text-anchor="middle" x="355.75" y="-30.75" font-family="Helvetica,sans-Serif" font-size="10.00">Grid::TFI</text>
</a>
</g>
</g>
<!-- Node2&#45;&gt;Node7 -->
<g id="edge6_Node000002_Node000007" class="edge">
<title>Node2&#45;&gt;Node7</title>
<g id="a_edge6_Node000002_Node000007"><a xlink:title=" ">
<path fill="none" stroke="#63b8ff" d="M243.63,-110.52C248.63,-108.35 253.48,-105.75 257.75,-102.62 279.57,-86.69 271.75,-69.32 293.75,-53.62 300.64,-48.71 308.84,-45.04 316.97,-42.3"/>
<polygon fill="#63b8ff" stroke="#63b8ff" points="317.78,-45.71 326.4,-39.55 315.82,-38.99 317.78,-45.71"/>
</a>
</g>
</g>
</g>
</svg>
