<?xml version="1.0" encoding="UTF-8" standalone="no"?>
<!DOCTYPE svg PUBLIC "-//W3C//DTD SVG 1.1//EN"
 "http://www.w3.org/Graphics/SVG/1.1/DTD/svg11.dtd">
<!-- Generated by graphviz version 12.2.1 (20241206.2353)
 -->
<!-- Title: Cylinder::Grid_Cylinder_Plane Pages: 1 -->
<svg width="430pt" height="224pt"
 viewBox="0.00 0.00 430.25 224.25" xmlns="http://www.w3.org/2000/svg" xmlns:xlink="http://www.w3.org/1999/xlink">
<g id="graph0" class="graph" transform="scale(1 1) rotate(0) translate(4 220.25)">
<title>Cylinder::Grid_Cylinder_Plane</title>
<!-- Node1 -->
<g id="Node000001" class="node">
<title>Node1</title>
<g id="a_Node000001"><a xlink:title=" ">
<polygon fill="#999999" stroke="#666666" points="117.25,-79.88 0,-79.88 0,-49.38 117.25,-49.38 117.25,-79.88"/>
<text text-anchor="start" x="8" y="-66.38" font-family="Helvetica,sans-Serif" font-size="10.00">Cylinder::Grid_Cylinder</text>
<text text-anchor="middle" x="58.62" y="-55.12" font-family="Helvetica,sans-Serif" font-size="10.00">_Plane</text>
</a>
</g>
</g>
<!-- Node2 -->
<g id="Node000002" class="node">
<title>Node2</title>
<g id="a_Node000002"><a xlink:href="../../da/d74/class_grid_ab929318e5ef123712523299305dfe12f.html#ab929318e5ef123712523299305dfe12f" target="_top" xlink:title=" ">
<polygon fill="white" stroke="#666666" points="259.25,-130.25 156.25,-130.25 156.25,-111 259.25,-111 259.25,-130.25"/>
<text text-anchor="middle" x="207.75" y="-116.75" font-family="Helvetica,sans-Serif" font-size="10.00">Grid::Generate_Grid</text>
</a>
</g>
</g>
<!-- Node1&#45;&gt;Node2 -->
<g id="edge1_Node000001_Node000002" class="edge">
<title>Node1&#45;&gt;Node2</title>
<g id="a_edge1_Node000001_Node000002"><a xlink:title=" ">
<path fill="none" stroke="#63b8ff" d="M96.78,-80.31C113.88,-87.38 134.5,-95.67 153.25,-102.62 157.11,-104.05 161.14,-105.5 165.18,-106.92"/>
<polygon fill="#63b8ff" stroke="#63b8ff" points="163.77,-110.13 174.37,-110.08 166.05,-103.51 163.77,-110.13"/>
</a>
</g>
</g>
<!-- Node8 -->
<g id="Node000008" class="node">
<title>Node8</title>
<g id="a_Node000008"><a xlink:href="../../da/d74/class_grid_ada712360e862dad0f75e839a3c52fc14.html#ada712360e862dad0f75e839a3c52fc14" target="_top" xlink:title=" ">
<polygon fill="white" stroke="#666666" points="257.75,-93.25 157.75,-93.25 157.75,-74 257.75,-74 257.75,-93.25"/>
<text text-anchor="middle" x="207.75" y="-79.75" font-family="Helvetica,sans-Serif" font-size="10.00">Grid::Get_Grid_List</text>
</a>
</g>
</g>
<!-- Node1&#45;&gt;Node8 -->
<g id="edge7_Node000001_Node000008" class="edge">
<title>Node1&#45;&gt;Node8</title>
<g id="a_edge7_Node000001_Node000008"><a xlink:title=" ">
<path fill="none" stroke="#63b8ff" d="M117.35,-72.08C126.74,-73.29 136.48,-74.55 145.94,-75.77"/>
<polygon fill="#63b8ff" stroke="#63b8ff" points="145.42,-79.23 155.79,-77.04 146.32,-72.29 145.42,-79.23"/>
</a>
</g>
</g>
<!-- Node9 -->
<g id="Node000009" class="node">
<title>Node9</title>
<g id="a_Node000009"><a xlink:href="../../d0/d88/class_circle_a468a9fd60b528d2a89f442d0e95d7031.html#a468a9fd60b528d2a89f442d0e95d7031" target="_top" xlink:title=" ">
<polygon fill="white" stroke="#666666" points="262.25,-56.25 153.25,-56.25 153.25,-37 262.25,-37 262.25,-56.25"/>
<text text-anchor="middle" x="207.75" y="-42.75" font-family="Helvetica,sans-Serif" font-size="10.00">Circle::Get_Point_list</text>
</a>
</g>
</g>
<!-- Node1&#45;&gt;Node9 -->
<g id="edge8_Node000001_Node000009" class="edge">
<title>Node1&#45;&gt;Node9</title>
<g id="a_edge8_Node000001_Node000009"><a xlink:title=" ">
<path fill="none" stroke="#63b8ff" d="M117.35,-57.56C125.34,-56.59 133.59,-55.58 141.7,-54.58"/>
<polygon fill="#63b8ff" stroke="#63b8ff" points="142.03,-58.07 151.53,-53.38 141.18,-51.12 142.03,-58.07"/>
</a>
</g>
</g>
<!-- Node10 -->
<g id="Node000010" class="node">
<title>Node10</title>
<g id="a_Node000010"><a xlink:href="../../da/d74/class_grid_abeb69c2204f0debb7fe803fbc111d2bf.html#abeb69c2204f0debb7fe803fbc111d2bf" target="_top" xlink:title=" ">
<polygon fill="white" stroke="#666666" points="252.12,-19.25 163.38,-19.25 163.38,0 252.12,0 252.12,-19.25"/>
<text text-anchor="middle" x="207.75" y="-5.75" font-family="Helvetica,sans-Serif" font-size="10.00">Grid::Stack_Grid</text>
</a>
</g>
</g>
<!-- Node1&#45;&gt;Node10 -->
<g id="edge9_Node000001_Node000010" class="edge">
<title>Node1&#45;&gt;Node10</title>
<g id="a_edge9_Node000001_Node000010"><a xlink:title=" ">
<path fill="none" stroke="#63b8ff" d="M97.72,-49.05C114.65,-42.27 134.86,-34.35 153.25,-27.62 157.11,-26.21 161.15,-24.78 165.19,-23.37"/>
<polygon fill="#63b8ff" stroke="#63b8ff" points="166.06,-26.77 174.39,-20.22 163.79,-20.15 166.06,-26.77"/>
</a>
</g>
</g>
<!-- Node3 -->
<g id="Node000003" class="node">
<title>Node3</title>
<g id="a_Node000003"><a xlink:href="../../da/d74/class_grid_a90c5271ba6fdba6112a562693bd9a0f2.html#a90c5271ba6fdba6112a562693bd9a0f2" target="_top" xlink:title=" ">
<polygon fill="white" stroke="#666666" points="394.88,-216.25 325.62,-216.25 325.62,-197 394.88,-197 394.88,-216.25"/>
<text text-anchor="middle" x="360.25" y="-202.75" font-family="Helvetica,sans-Serif" font-size="10.00">Grid::Elliptic</text>
</a>
</g>
</g>
<!-- Node2&#45;&gt;Node3 -->
<g id="edge2_Node000002_Node000003" class="edge">
<title>Node2&#45;&gt;Node3</title>
<g id="a_edge2_Node000002_Node000003"><a xlink:title=" ">
<path fill="none" stroke="#63b8ff" d="M219.5,-130.63C235.53,-145.06 267.14,-171.73 298.25,-187.62 303.37,-190.24 308.91,-192.57 314.5,-194.63"/>
<polygon fill="#63b8ff" stroke="#63b8ff" points="313.17,-197.88 323.76,-197.77 315.42,-191.25 313.17,-197.88"/>
</a>
</g>
</g>
<!-- Node4 -->
<g id="Node000004" class="node">
<title>Node4</title>
<g id="a_Node000004"><a xlink:href="../../da/d74/class_grid_ac1e989c2a3c81fd365d9ae57e7f15b61.html#ac1e989c2a3c81fd365d9ae57e7f15b61" target="_top" xlink:title=" ">
<polygon fill="white" stroke="#666666" points="412.88,-178.88 307.62,-178.88 307.62,-148.38 412.88,-148.38 412.88,-178.88"/>
<text text-anchor="start" x="315.62" y="-165.38" font-family="Helvetica,sans-Serif" font-size="10.00">Grid::Estimate_Error</text>
<text text-anchor="middle" x="360.25" y="-154.12" font-family="Helvetica,sans-Serif" font-size="10.00">_and_Update</text>
</a>
</g>
</g>
<!-- Node2&#45;&gt;Node4 -->
<g id="edge3_Node000002_Node000004" class="edge">
<title>Node2&#45;&gt;Node4</title>
<g id="a_edge3_Node000002_Node000004"><a xlink:title=" ">
<path fill="none" stroke="#63b8ff" d="M244.04,-130.71C259.65,-135.17 278.49,-140.55 296.38,-145.66"/>
<polygon fill="#63b8ff" stroke="#63b8ff" points="295.32,-149 305.9,-148.38 297.25,-142.27 295.32,-149"/>
</a>
</g>
</g>
<!-- Node5 -->
<g id="Node000005" class="node">
<title>Node5</title>
<g id="a_Node000005"><a xlink:href="../../da/d74/class_grid_ab7768e9853f9b8e4530a25d242fdea1b.html#ab7768e9853f9b8e4530a25d242fdea1b" target="_top" xlink:title=" ">
<polygon fill="white" stroke="#666666" points="422.25,-130.25 298.25,-130.25 298.25,-111 422.25,-111 422.25,-130.25"/>
<text text-anchor="middle" x="360.25" y="-116.75" font-family="Helvetica,sans-Serif" font-size="10.00">Grid::Generate_Grid_List</text>
</a>
</g>
</g>
<!-- Node2&#45;&gt;Node5 -->
<g id="edge4_Node000002_Node000005" class="edge">
<title>Node2&#45;&gt;Node5</title>
<g id="a_edge4_Node000002_Node000005"><a xlink:title=" ">
<path fill="none" stroke="#63b8ff" d="M259.7,-120.62C268.34,-120.62 277.45,-120.62 286.51,-120.62"/>
<polygon fill="#63b8ff" stroke="#63b8ff" points="286.41,-124.13 296.41,-120.63 286.41,-117.13 286.41,-124.13"/>
</a>
</g>
</g>
<!-- Node6 -->
<g id="Node000006" class="node">
<title>Node6</title>
<g id="a_Node000006"><a xlink:href="../../da/d74/class_grid_a246dcc7405f9142fc624bafb817ed9fe.html#a246dcc7405f9142fc624bafb817ed9fe" target="_top" xlink:title=" ">
<polygon fill="white" stroke="#666666" points="421.12,-92.88 299.38,-92.88 299.38,-62.38 421.12,-62.38 421.12,-92.88"/>
<text text-anchor="start" x="307.38" y="-79.38" font-family="Helvetica,sans-Serif" font-size="10.00">Grid::Periodic_Boundary</text>
<text text-anchor="middle" x="360.25" y="-68.12" font-family="Helvetica,sans-Serif" font-size="10.00">_Condition</text>
</a>
</g>
</g>
<!-- Node2&#45;&gt;Node6 -->
<g id="edge5_Node000002_Node000006" class="edge">
<title>Node2&#45;&gt;Node6</title>
<g id="a_edge5_Node000002_Node000006"><a xlink:title=" ">
<path fill="none" stroke="#63b8ff" d="M244.04,-110.54C258.72,-106.35 276.26,-101.34 293.17,-96.5"/>
<polygon fill="#63b8ff" stroke="#63b8ff" points="294.05,-99.89 302.7,-93.78 292.13,-93.16 294.05,-99.89"/>
</a>
</g>
</g>
<!-- Node7 -->
<g id="Node000007" class="node">
<title>Node7</title>
<g id="a_Node000007"><a xlink:href="../../da/d74/class_grid_a908819a747032ceba240db6d955ff931.html#a908819a747032ceba240db6d955ff931" target="_top" xlink:title=" ">
<polygon fill="white" stroke="#666666" points="387.75,-44.25 332.75,-44.25 332.75,-25 387.75,-25 387.75,-44.25"/>
<text text-anchor="middle" x="360.25" y="-30.75" font-family="Helvetica,sans-Serif" font-size="10.00">Grid::TFI</text>
</a>
</g>
</g>
<!-- Node2&#45;&gt;Node7 -->
<g id="edge6_Node000002_Node000007" class="edge">
<title>Node2&#45;&gt;Node7</title>
<g id="a_edge6_Node000002_Node000007"><a xlink:title=" ">
<path fill="none" stroke="#63b8ff" d="M248.13,-110.52C253.13,-108.35 257.98,-105.75 262.25,-102.62 284.07,-86.69 276.25,-69.32 298.25,-53.62 305.14,-48.71 313.34,-45.04 321.47,-42.3"/>
<polygon fill="#63b8ff" stroke="#63b8ff" points="322.28,-45.71 330.9,-39.55 320.32,-38.99 322.28,-45.71"/>
</a>
</g>
</g>
</g>
</svg>
