<?xml version="1.0" encoding="UTF-8" standalone="no"?>
<!DOCTYPE svg PUBLIC "-//W3C//DTD SVG 1.1//EN"
 "http://www.w3.org/Graphics/SVG/1.1/DTD/svg11.dtd">
<!-- Generated by graphviz version 12.2.1 (20241206.2353)
 -->
<!-- Title: Cylinder::operator() Pages: 1 -->
<svg width="630pt" height="199pt"
 viewBox="0.00 0.00 630.30 199.25" xmlns="http://www.w3.org/2000/svg" xmlns:xlink="http://www.w3.org/1999/xlink">
<g id="graph0" class="graph" transform="scale(1 1) rotate(0) translate(4 195.25)">
<title>Cylinder::operator()</title>
<!-- Node1 -->
<g id="Node000001" class="node">
<title>Node1</title>
<g id="a_Node000001"><a xlink:title=" ">
<polygon fill="#999999" stroke="#666666" points="99.25,-99.25 0,-99.25 0,-80 99.25,-80 99.25,-99.25"/>
<text text-anchor="middle" x="49.62" y="-85.75" font-family="Helvetica,sans-Serif" font-size="10.00">Cylinder::operator()</text>
</a>
</g>
</g>
<!-- Node2 -->
<g id="Node000002" class="node">
<title>Node2</title>
<g id="a_Node000002"><a xlink:href="../../d6/db0/class_cylinder_a5f313be17ebbe1761b8fbeb6409c3f0d.html#a5f313be17ebbe1761b8fbeb6409c3f0d" target="_top" xlink:title=" ">
<polygon fill="white" stroke="#666666" points="250.25,-104.88 137.5,-104.88 137.5,-74.38 250.25,-74.38 250.25,-104.88"/>
<text text-anchor="start" x="145.5" y="-91.38" font-family="Helvetica,sans-Serif" font-size="10.00">Cylinder::Cluster_Grid</text>
<text text-anchor="middle" x="193.87" y="-80.12" font-family="Helvetica,sans-Serif" font-size="10.00">_Cylinder_Plane</text>
</a>
</g>
</g>
<!-- Node1&#45;&gt;Node2 -->
<g id="edge1_Node000001_Node000002" class="edge">
<title>Node1&#45;&gt;Node2</title>
<g id="a_edge1_Node000001_Node000002"><a xlink:title=" ">
<path fill="none" stroke="#63b8ff" d="M99.58,-89.62C108.17,-89.62 117.24,-89.62 126.21,-89.62"/>
<polygon fill="#63b8ff" stroke="#63b8ff" points="125.97,-93.13 135.97,-89.63 125.97,-86.13 125.97,-93.13"/>
</a>
</g>
</g>
<!-- Node13 -->
<g id="Node000013" class="node">
<title>Node13</title>
<g id="a_Node000013"><a xlink:href="../../d6/db0/class_cylinder_a7c7384f3bf92b22ab6536947bb2c2203.html#a7c7384f3bf92b22ab6536947bb2c2203" target="_top" xlink:title=" ">
<polygon fill="white" stroke="#666666" points="252.5,-153.88 135.25,-153.88 135.25,-123.38 252.5,-123.38 252.5,-153.88"/>
<text text-anchor="start" x="143.25" y="-140.38" font-family="Helvetica,sans-Serif" font-size="10.00">Cylinder::Grid_Cylinder</text>
<text text-anchor="middle" x="193.87" y="-129.12" font-family="Helvetica,sans-Serif" font-size="10.00">_Plane</text>
</a>
</g>
</g>
<!-- Node1&#45;&gt;Node13 -->
<g id="edge12_Node000001_Node000013" class="edge">
<title>Node1&#45;&gt;Node13</title>
<g id="a_edge12_Node000001_Node000013"><a xlink:title=" ">
<path fill="none" stroke="#63b8ff" d="M79.75,-99.66C96.15,-105.31 117.17,-112.55 136.64,-119.25"/>
<polygon fill="#63b8ff" stroke="#63b8ff" points="135.23,-122.47 145.83,-122.42 137.51,-115.85 135.23,-122.47"/>
</a>
</g>
</g>
<!-- Node14 -->
<g id="Node000014" class="node">
<title>Node14</title>
<g id="a_Node000014"><a xlink:href="../../d6/db0/class_cylinder_acb8db8fc0355f679a04c440d62109bde.html#acb8db8fc0355f679a04c440d62109bde" target="_top" xlink:title=" ">
<polygon fill="white" stroke="#666666" points="247.25,-56.25 140.5,-56.25 140.5,-37 247.25,-37 247.25,-56.25"/>
<text text-anchor="middle" x="193.87" y="-42.75" font-family="Helvetica,sans-Serif" font-size="10.00">Cylinder::Stack_Grid</text>
</a>
</g>
</g>
<!-- Node1&#45;&gt;Node14 -->
<g id="edge17_Node000001_Node000014" class="edge">
<title>Node1&#45;&gt;Node14</title>
<g id="a_edge17_Node000001_Node000014"><a xlink:title=" ">
<path fill="none" stroke="#63b8ff" d="M83.98,-79.54C103.33,-73.69 127.93,-66.26 148.86,-59.93"/>
<polygon fill="#63b8ff" stroke="#63b8ff" points="149.72,-63.33 158.28,-57.08 147.7,-56.62 149.72,-63.33"/>
</a>
</g>
</g>
<!-- Node3 -->
<g id="Node000003" class="node">
<title>Node3</title>
<g id="a_Node000003"><a xlink:href="../../da/d74/class_grid_ab929318e5ef123712523299305dfe12f.html#ab929318e5ef123712523299305dfe12f" target="_top" xlink:title=" ">
<polygon fill="white" stroke="#666666" points="394.5,-105.25 291.5,-105.25 291.5,-86 394.5,-86 394.5,-105.25"/>
<text text-anchor="middle" x="343" y="-91.75" font-family="Helvetica,sans-Serif" font-size="10.00">Grid::Generate_Grid</text>
</a>
</g>
</g>
<!-- Node2&#45;&gt;Node3 -->
<g id="edge2_Node000002_Node000003" class="edge">
<title>Node2&#45;&gt;Node3</title>
<g id="a_edge2_Node000002_Node000003"><a xlink:title=" ">
<path fill="none" stroke="#63b8ff" d="M250.5,-91.89C260.09,-92.28 270.11,-92.69 279.86,-93.09"/>
<polygon fill="#63b8ff" stroke="#63b8ff" points="279.5,-96.58 289.63,-93.49 279.78,-89.58 279.5,-96.58"/>
</a>
</g>
</g>
<!-- Node10 -->
<g id="Node000010" class="node">
<title>Node10</title>
<g id="a_Node000010"><a xlink:href="../../da/d74/class_grid_ada712360e862dad0f75e839a3c52fc14.html#ada712360e862dad0f75e839a3c52fc14" target="_top" xlink:title=" ">
<polygon fill="white" stroke="#666666" points="393,-68.25 293,-68.25 293,-49 393,-49 393,-68.25"/>
<text text-anchor="middle" x="343" y="-54.75" font-family="Helvetica,sans-Serif" font-size="10.00">Grid::Get_Grid_List</text>
</a>
</g>
</g>
<!-- Node2&#45;&gt;Node10 -->
<g id="edge9_Node000002_Node000010" class="edge">
<title>Node2&#45;&gt;Node10</title>
<g id="a_edge9_Node000002_Node000010"><a xlink:title=" ">
<path fill="none" stroke="#63b8ff" d="M250.5,-77.91C261.13,-75.67 272.29,-73.31 283.02,-71.05"/>
<polygon fill="#63b8ff" stroke="#63b8ff" points="283.46,-74.54 292.52,-69.05 282.02,-67.69 283.46,-74.54"/>
</a>
</g>
</g>
<!-- Node11 -->
<g id="Node000011" class="node">
<title>Node11</title>
<g id="a_Node000011"><a xlink:href="../../d0/d88/class_circle_a468a9fd60b528d2a89f442d0e95d7031.html#a468a9fd60b528d2a89f442d0e95d7031" target="_top" xlink:title=" ">
<polygon fill="white" stroke="#666666" points="397.5,-179.25 288.5,-179.25 288.5,-160 397.5,-160 397.5,-179.25"/>
<text text-anchor="middle" x="343" y="-165.75" font-family="Helvetica,sans-Serif" font-size="10.00">Circle::Get_Point_list</text>
</a>
</g>
</g>
<!-- Node2&#45;&gt;Node11 -->
<g id="edge10_Node000002_Node000011" class="edge">
<title>Node2&#45;&gt;Node11</title>
<g id="a_edge10_Node000002_Node000011"><a xlink:title=" ">
<path fill="none" stroke="#63b8ff" d="M236.53,-105.36C242.09,-108.12 247.56,-111.22 252.5,-114.62 271.38,-127.66 269.08,-139.4 288.5,-151.62 290.33,-152.78 292.25,-153.87 294.22,-154.9"/>
<polygon fill="#63b8ff" stroke="#63b8ff" points="292.48,-157.95 303.03,-158.9 295.37,-151.58 292.48,-157.95"/>
</a>
</g>
</g>
<!-- Node12 -->
<g id="Node000012" class="node">
<title>Node12</title>
<g id="a_Node000012"><a xlink:href="../../da/d74/class_grid_abeb69c2204f0debb7fe803fbc111d2bf.html#abeb69c2204f0debb7fe803fbc111d2bf" target="_top" xlink:title=" ">
<polygon fill="white" stroke="#666666" points="387.37,-142.25 298.62,-142.25 298.62,-123 387.37,-123 387.37,-142.25"/>
<text text-anchor="middle" x="343" y="-128.75" font-family="Helvetica,sans-Serif" font-size="10.00">Grid::Stack_Grid</text>
</a>
</g>
</g>
<!-- Node2&#45;&gt;Node12 -->
<g id="edge11_Node000002_Node000012" class="edge">
<title>Node2&#45;&gt;Node12</title>
<g id="a_edge11_Node000002_Node000012"><a xlink:title=" ">
<path fill="none" stroke="#63b8ff" d="M248.41,-105.27C264.27,-109.91 281.49,-114.94 296.77,-119.41"/>
<polygon fill="#63b8ff" stroke="#63b8ff" points="295.48,-122.68 306.06,-122.12 297.45,-115.96 295.48,-122.68"/>
</a>
</g>
</g>
<!-- Node4 -->
<g id="Node000004" class="node">
<title>Node4</title>
<g id="a_Node000004"><a xlink:href="../../da/d74/class_grid_a90c5271ba6fdba6112a562693bd9a0f2.html#a90c5271ba6fdba6112a562693bd9a0f2" target="_top" xlink:title=" ">
<polygon fill="white" stroke="#666666" points="530.12,-191.25 460.87,-191.25 460.87,-172 530.12,-172 530.12,-191.25"/>
<text text-anchor="middle" x="495.5" y="-177.75" font-family="Helvetica,sans-Serif" font-size="10.00">Grid::Elliptic</text>
</a>
</g>
</g>
<!-- Node3&#45;&gt;Node4 -->
<g id="edge3_Node000003_Node000004" class="edge">
<title>Node3&#45;&gt;Node4</title>
<g id="a_edge3_Node000003_Node000004"><a xlink:title=" ">
<path fill="none" stroke="#63b8ff" d="M383.38,-105.73C388.38,-107.9 393.23,-110.5 397.5,-113.62 419.32,-129.56 411.5,-146.93 433.5,-162.62 438.47,-166.17 444.11,-169.06 449.92,-171.43"/>
<polygon fill="#63b8ff" stroke="#63b8ff" points="448.41,-174.61 459.01,-174.64 450.74,-168.01 448.41,-174.61"/>
</a>
</g>
</g>
<!-- Node5 -->
<g id="Node000005" class="node">
<title>Node5</title>
<g id="a_Node000005"><a xlink:href="../../da/d74/class_grid_ac1e989c2a3c81fd365d9ae57e7f15b61.html#ac1e989c2a3c81fd365d9ae57e7f15b61" target="_top" xlink:title=" ">
<polygon fill="white" stroke="#666666" points="548.12,-153.88 442.87,-153.88 442.87,-123.38 548.12,-123.38 548.12,-153.88"/>
<text text-anchor="start" x="450.87" y="-140.38" font-family="Helvetica,sans-Serif" font-size="10.00">Grid::Estimate_Error</text>
<text text-anchor="middle" x="495.5" y="-129.12" font-family="Helvetica,sans-Serif" font-size="10.00">_and_Update</text>
</a>
</g>
</g>
<!-- Node3&#45;&gt;Node5 -->
<g id="edge4_Node000003_Node000005" class="edge">
<title>Node3&#45;&gt;Node5</title>
<g id="a_edge4_Node000003_Node000005"><a xlink:title=" ">
<path fill="none" stroke="#63b8ff" d="M379.29,-105.71C394.9,-110.17 413.74,-115.55 431.63,-120.66"/>
<polygon fill="#63b8ff" stroke="#63b8ff" points="430.57,-124 441.15,-123.38 432.5,-117.27 430.57,-124"/>
</a>
</g>
</g>
<!-- Node6 -->
<g id="Node000006" class="node">
<title>Node6</title>
<g id="a_Node000006"><a xlink:href="../../da/d74/class_grid_ab7768e9853f9b8e4530a25d242fdea1b.html#ab7768e9853f9b8e4530a25d242fdea1b" target="_top" xlink:title=" ">
<polygon fill="white" stroke="#666666" points="557.5,-105.25 433.5,-105.25 433.5,-86 557.5,-86 557.5,-105.25"/>
<text text-anchor="middle" x="495.5" y="-91.75" font-family="Helvetica,sans-Serif" font-size="10.00">Grid::Generate_Grid_List</text>
</a>
</g>
</g>
<!-- Node3&#45;&gt;Node6 -->
<g id="edge5_Node000003_Node000006" class="edge">
<title>Node3&#45;&gt;Node6</title>
<g id="a_edge5_Node000003_Node000006"><a xlink:title=" ">
<path fill="none" stroke="#63b8ff" d="M394.95,-95.62C403.59,-95.62 412.7,-95.62 421.76,-95.62"/>
<polygon fill="#63b8ff" stroke="#63b8ff" points="421.66,-99.13 431.66,-95.63 421.66,-92.13 421.66,-99.13"/>
</a>
</g>
</g>
<!-- Node7 -->
<g id="Node000007" class="node">
<title>Node7</title>
<g id="a_Node000007"><a xlink:href="../../da/d74/class_grid_a246dcc7405f9142fc624bafb817ed9fe.html#a246dcc7405f9142fc624bafb817ed9fe" target="_top" xlink:title=" ">
<polygon fill="white" stroke="#666666" points="556.38,-67.88 434.62,-67.88 434.62,-37.38 556.38,-37.38 556.38,-67.88"/>
<text text-anchor="start" x="442.62" y="-54.38" font-family="Helvetica,sans-Serif" font-size="10.00">Grid::Periodic_Boundary</text>
<text text-anchor="middle" x="495.5" y="-43.12" font-family="Helvetica,sans-Serif" font-size="10.00">_Condition</text>
</a>
</g>
</g>
<!-- Node3&#45;&gt;Node7 -->
<g id="edge6_Node000003_Node000007" class="edge">
<title>Node3&#45;&gt;Node7</title>
<g id="a_edge6_Node000003_Node000007"><a xlink:title=" ">
<path fill="none" stroke="#63b8ff" d="M379.29,-85.54C393.97,-81.35 411.51,-76.34 428.42,-71.5"/>
<polygon fill="#63b8ff" stroke="#63b8ff" points="429.3,-74.89 437.95,-68.78 427.38,-68.16 429.3,-74.89"/>
</a>
</g>
</g>
<!-- Node8 -->
<g id="Node000008" class="node">
<title>Node8</title>
<g id="a_Node000008"><a xlink:href="../../da/d74/class_grid_a908819a747032ceba240db6d955ff931.html#a908819a747032ceba240db6d955ff931" target="_top" xlink:title=" ">
<polygon fill="white" stroke="#666666" points="523,-19.25 468,-19.25 468,0 523,0 523,-19.25"/>
<text text-anchor="middle" x="495.5" y="-5.75" font-family="Helvetica,sans-Serif" font-size="10.00">Grid::TFI</text>
</a>
</g>
</g>
<!-- Node3&#45;&gt;Node8 -->
<g id="edge7_Node000003_Node000008" class="edge">
<title>Node3&#45;&gt;Node8</title>
<g id="a_edge7_Node000003_Node000008"><a xlink:title=" ">
<path fill="none" stroke="#63b8ff" d="M383.38,-85.52C388.38,-83.35 393.23,-80.75 397.5,-77.62 419.32,-61.69 411.5,-44.32 433.5,-28.62 440.39,-23.71 448.59,-20.04 456.72,-17.3"/>
<polygon fill="#63b8ff" stroke="#63b8ff" points="457.53,-20.71 466.15,-14.55 455.57,-13.99 457.53,-20.71"/>
</a>
</g>
</g>
<!-- Node9 -->
<g id="Node000009" class="node">
<title>Node9</title>
<g id="a_Node000009"><a xlink:href="../../d3/d82/_c_type___elliptic___grid_8cpp_aae4b761a64c952b4c008655d1dc59a12.html#aae4b761a64c952b4c008655d1dc59a12" target="_top" xlink:title=" ">
<polygon fill="white" stroke="#666666" points="622.3,-19.25 593.5,-19.25 593.5,0 622.3,0 622.3,-19.25"/>
<text text-anchor="middle" x="607.9" y="-5.75" font-family="Helvetica,sans-Serif" font-size="10.00">y</text>
</a>
</g>
</g>
<!-- Node8&#45;&gt;Node9 -->
<g id="edge8_Node000008_Node000009" class="edge">
<title>Node8&#45;&gt;Node9</title>
<g id="a_edge8_Node000008_Node000009"><a xlink:title=" ">
<path fill="none" stroke="#63b8ff" d="M523.22,-9.62C541.08,-9.62 564.4,-9.62 581.89,-9.62"/>
<polygon fill="#63b8ff" stroke="#63b8ff" points="581.67,-13.13 591.67,-9.63 581.67,-6.13 581.67,-13.13"/>
</a>
</g>
</g>
<!-- Node13&#45;&gt;Node3 -->
<g id="edge13_Node000013_Node000003" class="edge">
<title>Node13&#45;&gt;Node3</title>
<g id="a_edge13_Node000013_Node000003"><a xlink:title=" ">
<path fill="none" stroke="#63b8ff" d="M248.41,-122.98C264.27,-118.34 281.49,-113.31 296.77,-108.84"/>
<polygon fill="#63b8ff" stroke="#63b8ff" points="297.45,-112.29 306.06,-106.13 295.48,-105.57 297.45,-112.29"/>
</a>
</g>
</g>
<!-- Node13&#45;&gt;Node10 -->
<g id="edge14_Node000013_Node000010" class="edge">
<title>Node13&#45;&gt;Node10</title>
<g id="a_edge14_Node000013_Node000010"><a xlink:title=" ">
<path fill="none" stroke="#63b8ff" d="M236.53,-122.89C242.09,-120.13 247.56,-117.03 252.5,-113.62 271.38,-100.59 269.08,-88.85 288.5,-76.62 290.33,-75.47 292.25,-74.38 294.22,-73.35"/>
<polygon fill="#63b8ff" stroke="#63b8ff" points="295.37,-76.67 303.03,-69.35 292.48,-70.3 295.37,-76.67"/>
</a>
</g>
</g>
<!-- Node13&#45;&gt;Node11 -->
<g id="edge15_Node000013_Node000011" class="edge">
<title>Node13&#45;&gt;Node11</title>
<g id="a_edge15_Node000013_Node000011"><a xlink:title=" ">
<path fill="none" stroke="#63b8ff" d="M252.6,-150.79C262.66,-152.91 273.14,-155.12 283.22,-157.24"/>
<polygon fill="#63b8ff" stroke="#63b8ff" points="282.42,-160.65 292.93,-159.28 283.86,-153.8 282.42,-160.65"/>
</a>
</g>
</g>
<!-- Node13&#45;&gt;Node12 -->
<g id="edge16_Node000013_Node000012" class="edge">
<title>Node13&#45;&gt;Node12</title>
<g id="a_edge16_Node000013_Node000012"><a xlink:title=" ">
<path fill="none" stroke="#63b8ff" d="M252.6,-136.27C263.95,-135.81 275.83,-135.32 287.09,-134.86"/>
<polygon fill="#63b8ff" stroke="#63b8ff" points="287.19,-138.36 297.03,-134.46 286.9,-131.37 287.19,-138.36"/>
</a>
</g>
</g>
</g>
</svg>
