<?xml version="1.0" encoding="UTF-8" standalone="no"?>
<!DOCTYPE svg PUBLIC "-//W3C//DTD SVG 1.1//EN"
 "http://www.w3.org/Graphics/SVG/1.1/DTD/svg11.dtd">
<!-- Generated by graphviz version 12.2.1 (20241206.2353)
 -->
<!-- Title: include/Limiter.h Pages: 1 -->
<svg width="784pt" height="83pt"
 viewBox="0.00 0.00 784.38 82.50" xmlns="http://www.w3.org/2000/svg" xmlns:xlink="http://www.w3.org/1999/xlink">
<g id="graph0" class="graph" transform="scale(1 1) rotate(0) translate(4 78.5)">
<title>include/Limiter.h</title>
<!-- Node1 -->
<g id="Node000001" class="node">
<title>Node1</title>
<g id="a_Node000001"><a xlink:title=" ">
<polygon fill="#999999" stroke="#666666" points="409.38,-74.5 322.88,-74.5 322.88,-55.25 409.38,-55.25 409.38,-74.5"/>
<text text-anchor="middle" x="366.12" y="-61" font-family="Helvetica,sans-Serif" font-size="10.00">include/Limiter.h</text>
</a>
</g>
</g>
<!-- Node2 -->
<g id="Node000002" class="node">
<title>Node2</title>
<g id="a_Node000002"><a xlink:href="../../de/d88/_l_l_f_8cpp.html" target="_top" xlink:title=" ">
<polygon fill="white" stroke="#666666" points="66.25,-19.25 0,-19.25 0,0 66.25,0 66.25,-19.25"/>
<text text-anchor="middle" x="33.12" y="-5.75" font-family="Helvetica,sans-Serif" font-size="10.00">src/LLF.cpp</text>
</a>
</g>
</g>
<!-- Node1&#45;&gt;Node2 -->
<g id="edge1_Node000001_Node000002" class="edge">
<title>Node1&#45;&gt;Node2</title>
<g id="a_edge1_Node000001_Node000002"><a xlink:title=" ">
<path fill="none" stroke="#63b8ff" d="M311.42,-56.32C252.83,-48.04 157.19,-33.96 75.12,-19.25 72.34,-18.75 69.46,-18.21 66.57,-17.65"/>
<polygon fill="#63b8ff" stroke="#63b8ff" points="310.74,-59.76 321.13,-57.69 311.71,-52.83 310.74,-59.76"/>
</a>
</g>
</g>
<!-- Node3 -->
<g id="Node000003" class="node">
<title>Node3</title>
<g id="a_Node000003"><a xlink:href="../../d0/da3/_limiters_8cpp.html" target="_top" xlink:title=" ">
<polygon fill="white" stroke="#666666" points="170,-19.25 84.25,-19.25 84.25,0 170,0 170,-19.25"/>
<text text-anchor="middle" x="127.12" y="-5.75" font-family="Helvetica,sans-Serif" font-size="10.00">src/Limiters.cpp</text>
</a>
</g>
</g>
<!-- Node1&#45;&gt;Node3 -->
<g id="edge2_Node000001_Node000003" class="edge">
<title>Node1&#45;&gt;Node3</title>
<g id="a_edge2_Node000001_Node000003"><a xlink:title=" ">
<path fill="none" stroke="#63b8ff" d="M314.28,-52.32C270.33,-42.53 208.18,-28.69 167.77,-19.68"/>
<polygon fill="#63b8ff" stroke="#63b8ff" points="313.31,-55.69 323.83,-54.45 314.83,-48.86 313.31,-55.69"/>
</a>
</g>
</g>
<!-- Node4 -->
<g id="Node000004" class="node">
<title>Node4</title>
<g id="a_Node000004"><a xlink:href="../../dd/d30/_m_o_v_e_r_s_8cpp.html" target="_top" xlink:title=" ">
<polygon fill="white" stroke="#666666" points="282.5,-19.25 187.75,-19.25 187.75,0 282.5,0 282.5,-19.25"/>
<text text-anchor="middle" x="235.12" y="-5.75" font-family="Helvetica,sans-Serif" font-size="10.00">src/MOVERS.cpp</text>
</a>
</g>
</g>
<!-- Node1&#45;&gt;Node4 -->
<g id="edge3_Node000001_Node000004" class="edge">
<title>Node1&#45;&gt;Node4</title>
<g id="a_edge3_Node000001_Node000004"><a xlink:title=" ">
<path fill="none" stroke="#63b8ff" d="M333.3,-50.53C309.62,-40.91 278.29,-28.17 257.46,-19.7"/>
<polygon fill="#63b8ff" stroke="#63b8ff" points="331.92,-53.75 342.5,-54.27 334.55,-47.26 331.92,-53.75"/>
</a>
</g>
</g>
<!-- Node5 -->
<g id="Node000005" class="node">
<title>Node5</title>
<g id="a_Node000005"><a xlink:href="../../d9/d99/_m_o_v_e_r_s___n_w_s_c_8cpp.html" target="_top" xlink:title=" ">
<polygon fill="white" stroke="#666666" points="431.88,-19.25 300.38,-19.25 300.38,0 431.88,0 431.88,-19.25"/>
<text text-anchor="middle" x="366.12" y="-5.75" font-family="Helvetica,sans-Serif" font-size="10.00">src/MOVERS_NWSC.cpp</text>
</a>
</g>
</g>
<!-- Node1&#45;&gt;Node5 -->
<g id="edge4_Node000001_Node000005" class="edge">
<title>Node1&#45;&gt;Node5</title>
<g id="a_edge4_Node000001_Node000005"><a xlink:title=" ">
<path fill="none" stroke="#63b8ff" d="M366.12,-43.63C366.12,-35.34 366.12,-26.17 366.12,-19.61"/>
<polygon fill="#63b8ff" stroke="#63b8ff" points="362.63,-43.57 366.13,-53.57 369.63,-43.57 362.63,-43.57"/>
</a>
</g>
</g>
<!-- Node6 -->
<g id="Node000006" class="node">
<title>Node6</title>
<g id="a_Node000006"><a xlink:href="../../df/d0f/_p_v_u___plus_8cpp.html" target="_top" xlink:title=" ">
<polygon fill="white" stroke="#666666" points="546.62,-19.25 449.62,-19.25 449.62,0 546.62,0 546.62,-19.25"/>
<text text-anchor="middle" x="498.12" y="-5.75" font-family="Helvetica,sans-Serif" font-size="10.00">src/PVU_Plus.cpp</text>
</a>
</g>
</g>
<!-- Node1&#45;&gt;Node6 -->
<g id="edge5_Node000001_Node000006" class="edge">
<title>Node1&#45;&gt;Node6</title>
<g id="a_edge5_Node000001_Node000006"><a xlink:title=" ">
<path fill="none" stroke="#63b8ff" d="M398.88,-50.66C422.77,-41.02 454.54,-28.21 475.62,-19.7"/>
<polygon fill="#63b8ff" stroke="#63b8ff" points="397.89,-47.29 389.92,-54.28 400.5,-53.78 397.89,-47.29"/>
</a>
</g>
</g>
<!-- Node7 -->
<g id="Node000007" class="node">
<title>Node7</title>
<g id="a_Node000007"><a xlink:href="../../d6/d22/_r_i_c_c_a_8cpp.html" target="_top" xlink:title=" ">
<polygon fill="white" stroke="#666666" points="647.88,-19.25 564.38,-19.25 564.38,0 647.88,0 647.88,-19.25"/>
<text text-anchor="middle" x="606.12" y="-5.75" font-family="Helvetica,sans-Serif" font-size="10.00">src/RICCA.cpp</text>
</a>
</g>
</g>
<!-- Node1&#45;&gt;Node7 -->
<g id="edge6_Node000001_Node000007" class="edge">
<title>Node1&#45;&gt;Node7</title>
<g id="a_edge6_Node000001_Node000007"><a xlink:title=" ">
<path fill="none" stroke="#63b8ff" d="M418.19,-52.32C462.32,-42.53 524.73,-28.69 565.31,-19.68"/>
<polygon fill="#63b8ff" stroke="#63b8ff" points="417.59,-48.87 408.59,-54.45 419.11,-55.7 417.59,-48.87"/>
</a>
</g>
</g>
<!-- Node8 -->
<g id="Node000008" class="node">
<title>Node8</title>
<g id="a_Node000008"><a xlink:href="../../d2/d7e/_roe___scheme_8cpp.html" target="_top" xlink:title=" ">
<polygon fill="white" stroke="#666666" points="776.38,-19.25 665.88,-19.25 665.88,0 776.38,0 776.38,-19.25"/>
<text text-anchor="middle" x="721.12" y="-5.75" font-family="Helvetica,sans-Serif" font-size="10.00">src/Roe_Scheme.cpp</text>
</a>
</g>
</g>
<!-- Node1&#45;&gt;Node8 -->
<g id="edge7_Node000001_Node000008" class="edge">
<title>Node1&#45;&gt;Node8</title>
<g id="a_edge7_Node000001_Node000008"><a xlink:title=" ">
<path fill="none" stroke="#63b8ff" d="M420.71,-55.69C487.14,-45.72 598.69,-28.99 665.56,-18.96"/>
<polygon fill="#63b8ff" stroke="#63b8ff" points="420.52,-52.18 411.15,-57.12 421.56,-59.1 420.52,-52.18"/>
</a>
</g>
</g>
</g>
</svg>
