<?xml version="1.0" encoding="UTF-8" standalone="no"?>
<!DOCTYPE svg PUBLIC "-//W3C//DTD SVG 1.1//EN"
 "http://www.w3.org/Graphics/SVG/1.1/DTD/svg11.dtd">
<!-- Generated by graphviz version 12.2.1 (20241206.2353)
 -->
<!-- Title: dyld::garbageCollectImages Pages: 1 -->
<svg width="339pt" height="27pt"
 viewBox="0.00 0.00 338.75 27.25" xmlns="http://www.w3.org/2000/svg" xmlns:xlink="http://www.w3.org/1999/xlink">
<g id="graph0" class="graph" transform="scale(1 1) rotate(0) translate(4 23.25)">
<title>dyld::garbageCollectImages</title>
<!-- Node1 -->
<g id="Node000001" class="node">
<title>Node1</title>
<g id="a_Node000001"><a xlink:title=" ">
<polygon fill="#999999" stroke="#666666" points="330.75,-19.25 193.25,-19.25 193.25,0 330.75,0 330.75,-19.25"/>
<text text-anchor="middle" x="262" y="-5.75" font-family="Helvetica,sans-Serif" font-size="10.00">dyld::garbageCollectImages</text>
</a>
</g>
</g>
<!-- Node2 -->
<g id="Node000002" class="node">
<title>Node2</title>
<g id="a_Node000002"><a xlink:href="../../db/d2b/namespacedyld_ae0c6e435c15c51dd9dc6908f0eb03f72.html#ae0c6e435c15c51dd9dc6908f0eb03f72" target="_top" xlink:title=" ">
<polygon fill="white" stroke="#666666" points="157.25,-19.25 102.25,-19.25 102.25,0 157.25,0 157.25,-19.25"/>
<text text-anchor="middle" x="129.75" y="-5.75" font-family="Helvetica,sans-Serif" font-size="10.00">dyld::link</text>
</a>
</g>
</g>
<!-- Node1&#45;&gt;Node2 -->
<g id="edge1_Node000001_Node000002" class="edge">
<title>Node1&#45;&gt;Node2</title>
<g id="a_edge1_Node000001_Node000002"><a xlink:title=" ">
<path fill="none" stroke="#63b8ff" d="M181.44,-9.62C172.9,-9.62 164.7,-9.62 157.48,-9.62"/>
<polygon fill="#63b8ff" stroke="#63b8ff" points="181.31,-13.13 191.31,-9.63 181.31,-6.13 181.31,-13.13"/>
</a>
</g>
</g>
<!-- Node3 -->
<g id="Node000003" class="node">
<title>Node3</title>
<g id="a_Node000003"><a xlink:href="../../db/d2b/namespacedyld_a2d754a57a39bd1febd871dbff9efe75d.html#a2d754a57a39bd1febd871dbff9efe75d" target="_top" xlink:title=" ">
<polygon fill="white" stroke="#666666" points="66.25,-19.25 0,-19.25 0,0 66.25,0 66.25,-19.25"/>
<text text-anchor="middle" x="33.12" y="-5.75" font-family="Helvetica,sans-Serif" font-size="10.00">dyld::_main</text>
</a>
</g>
</g>
<!-- Node2&#45;&gt;Node3 -->
<g id="edge2_Node000002_Node000003" class="edge">
<title>Node2&#45;&gt;Node3</title>
<g id="a_edge2_Node000002_Node000003"><a xlink:title=" ">
<path fill="none" stroke="#63b8ff" d="M90.54,-9.62C82.54,-9.62 74.19,-9.62 66.43,-9.62"/>
<polygon fill="#63b8ff" stroke="#63b8ff" points="90.37,-13.13 100.37,-9.63 90.37,-6.13 90.37,-13.13"/>
</a>
</g>
</g>
</g>
</svg>
