<?xml version="1.0" encoding="UTF-8" standalone="no"?>
<!DOCTYPE svg PUBLIC "-//W3C//DTD SVG 1.1//EN"
 "http://www.w3.org/Graphics/SVG/1.1/DTD/svg11.dtd">
<!-- Generated by graphviz version 12.2.1 (20241206.2353)
 -->
<!-- Title: dyld::log Pages: 1 -->
<svg width="653pt" height="205pt"
 viewBox="0.00 0.00 652.75 204.78" xmlns="http://www.w3.org/2000/svg" xmlns:xlink="http://www.w3.org/1999/xlink">
<g id="graph0" class="graph" transform="scale(1 1) rotate(0) translate(4 200.78)">
<title>dyld::log</title>
<!-- Node1 -->
<g id="Node000001" class="node">
<title>Node1</title>
<g id="a_Node000001"><a xlink:title=" ">
<polygon fill="#999999" stroke="#666666" points="644.75,-95.25 592,-95.25 592,-76 644.75,-76 644.75,-95.25"/>
<text text-anchor="middle" x="618.38" y="-81.75" font-family="Helvetica,sans-Serif" font-size="10.00">dyld::log</text>
</a>
</g>
</g>
<!-- Node2 -->
<g id="Node000002" class="node">
<title>Node2</title>
<g id="a_Node000002"><a xlink:href="../../db/d2b/namespacedyld_a2d754a57a39bd1febd871dbff9efe75d.html#a2d754a57a39bd1febd871dbff9efe75d" target="_top" xlink:title=" ">
<polygon fill="white" stroke="#666666" points="66.25,-150.25 0,-150.25 0,-131 66.25,-131 66.25,-150.25"/>
<text text-anchor="middle" x="33.12" y="-136.75" font-family="Helvetica,sans-Serif" font-size="10.00">dyld::_main</text>
</a>
</g>
</g>
<!-- Node1&#45;&gt;Node2 -->
<g id="edge1_Node000001_Node000002" class="edge">
<title>Node1&#45;&gt;Node2</title>
<g id="a_edge1_Node000001_Node000002"><a xlink:title=" ">
<path fill="none" stroke="#63b8ff" d="M606.86,-105.55C596.44,-123.15 578.76,-147.94 556,-160.62 503.04,-190.16 481.26,-174.62 420.75,-178.62 279.5,-187.98 239.25,-214.25 102.25,-178.62 81.54,-173.24 60.44,-160.03 47.33,-150.7"/>
<polygon fill="#63b8ff" stroke="#63b8ff" points="609.81,-107.45 611.65,-97.01 603.71,-104.02 609.81,-107.45"/>
</a>
</g>
</g>
<!-- Node3 -->
<g id="Node000003" class="node">
<title>Node3</title>
<g id="a_Node000003"><a xlink:href="../../db/d2b/namespacedyld_af2cc8979f321d2738983b6466c820875.html#af2cc8979f321d2738983b6466c820875" target="_top" xlink:title=" ">
<polygon fill="white" stroke="#666666" points="408,-56.25 296,-56.25 296,-37 408,-37 408,-56.25"/>
<text text-anchor="middle" x="352" y="-42.75" font-family="Helvetica,sans-Serif" font-size="10.00">dyld::bindLazySymbol</text>
</a>
</g>
</g>
<!-- Node1&#45;&gt;Node3 -->
<g id="edge2_Node000001_Node000003" class="edge">
<title>Node1&#45;&gt;Node3</title>
<g id="a_edge2_Node000001_Node000003"><a xlink:title=" ">
<path fill="none" stroke="#63b8ff" d="M580.72,-72.96C572.65,-70.54 564.1,-68.26 556,-66.62 506.53,-56.64 449.24,-51.57 408.16,-49.04"/>
<polygon fill="#63b8ff" stroke="#63b8ff" points="579.66,-76.29 590.25,-75.95 581.76,-69.61 579.66,-76.29"/>
</a>
</g>
</g>
<!-- Node4 -->
<g id="Node000004" class="node">
<title>Node4</title>
<g id="a_Node000004"><a xlink:href="../../db/d2b/namespacedyld_ae2dbd92c157017dd38a2c3d9938734d6.html#ae2dbd92c157017dd38a2c3d9938734d6" target="_top" xlink:title=" ">
<polygon fill="white" stroke="#666666" points="417,-19.25 287,-19.25 287,0 417,0 417,-19.25"/>
<text text-anchor="middle" x="352" y="-5.75" font-family="Helvetica,sans-Serif" font-size="10.00">dyld::fastBindLazySymbol</text>
</a>
</g>
</g>
<!-- Node1&#45;&gt;Node4 -->
<g id="edge3_Node000001_Node000004" class="edge">
<title>Node1&#45;&gt;Node4</title>
<g id="a_edge3_Node000001_Node000004"><a xlink:title=" ">
<path fill="none" stroke="#63b8ff" d="M594.07,-69.45C582.98,-62.42 569.26,-54.66 556,-49.62 511.16,-32.62 457.88,-22.47 417.16,-16.65"/>
<polygon fill="#63b8ff" stroke="#63b8ff" points="591.89,-72.2 602.17,-74.77 595.73,-66.35 591.89,-72.2"/>
</a>
</g>
</g>
<!-- Node5 -->
<g id="Node000005" class="node">
<title>Node5</title>
<g id="a_Node000005"><a xlink:href="../../db/d2b/namespacedyld_a9843a873de01c9993039f1e3bfc563b7.html#a9843a873de01c9993039f1e3bfc563b7" target="_top" xlink:title=" ">
<polygon fill="white" stroke="#666666" points="534.25,-95.25 478.5,-95.25 478.5,-76 534.25,-76 534.25,-95.25"/>
<text text-anchor="middle" x="506.38" y="-81.75" font-family="Helvetica,sans-Serif" font-size="10.00">dyld::halt</text>
</a>
</g>
</g>
<!-- Node1&#45;&gt;Node5 -->
<g id="edge4_Node000001_Node000005" class="edge">
<title>Node1&#45;&gt;Node5</title>
<g id="a_edge4_Node000001_Node000005"><a xlink:title=" ">
<path fill="none" stroke="#63b8ff" d="M580.12,-85.62C565.18,-85.62 548.28,-85.62 534.54,-85.62"/>
<polygon fill="#63b8ff" stroke="#63b8ff" points="580.07,-89.13 590.07,-85.63 580.07,-82.13 580.07,-89.13"/>
</a>
</g>
</g>
<!-- Node8 -->
<g id="Node000008" class="node">
<title>Node8</title>
<g id="a_Node000008"><a xlink:href="../../db/d2b/namespacedyld_a2270ae9df42e73fab62a4111a9414dae.html#a2270ae9df42e73fab62a4111a9414dae" target="_top" xlink:title=" ">
<polygon fill="white" stroke="#666666" points="556,-151.25 456.75,-151.25 456.75,-132 556,-132 556,-151.25"/>
<text text-anchor="middle" x="506.38" y="-137.75" font-family="Helvetica,sans-Serif" font-size="10.00">dyld::removeImage</text>
</a>
</g>
</g>
<!-- Node1&#45;&gt;Node8 -->
<g id="edge11_Node000001_Node000008" class="edge">
<title>Node1&#45;&gt;Node8</title>
<g id="a_edge11_Node000001_Node000008"><a xlink:title=" ">
<path fill="none" stroke="#63b8ff" d="M587.68,-100.74C568.51,-110.5 544.09,-122.93 527.24,-131.51"/>
<polygon fill="#63b8ff" stroke="#63b8ff" points="589.04,-103.98 596.36,-96.32 585.86,-97.74 589.04,-103.98"/>
</a>
</g>
</g>
<!-- Node5&#45;&gt;Node2 -->
<g id="edge5_Node000005_Node000002" class="edge">
<title>Node5&#45;&gt;Node2</title>
<g id="a_edge5_Node000005_Node000002"><a xlink:title=" ">
<path fill="none" stroke="#63b8ff" d="M467,-94.18C452.56,-97.18 435.95,-100.36 420.75,-102.62 290.17,-122.11 133.23,-134.01 66.59,-138.54"/>
<polygon fill="#63b8ff" stroke="#63b8ff" points="467.52,-97.65 476.58,-92.15 466.07,-90.8 467.52,-97.65"/>
</a>
</g>
</g>
<!-- Node5&#45;&gt;Node3 -->
<g id="edge6_Node000005_Node000003" class="edge">
<title>Node5&#45;&gt;Node3</title>
<g id="a_edge6_Node000005_Node000003"><a xlink:title=" ">
<path fill="none" stroke="#63b8ff" d="M467.14,-75.84C444.3,-69.99 415.35,-62.58 392.32,-56.69"/>
<polygon fill="#63b8ff" stroke="#63b8ff" points="466.11,-79.19 476.67,-78.28 467.85,-72.41 466.11,-79.19"/>
</a>
</g>
</g>
<!-- Node5&#45;&gt;Node4 -->
<g id="edge7_Node000005_Node000004" class="edge">
<title>Node5&#45;&gt;Node4</title>
<g id="a_edge7_Node000005_Node000004"><a xlink:title=" ">
<path fill="none" stroke="#63b8ff" d="M484.83,-68.56C468.4,-55.68 444.3,-38.43 420.75,-27.62 414,-24.53 406.62,-21.89 399.3,-19.66"/>
<polygon fill="#63b8ff" stroke="#63b8ff" points="482.39,-71.09 492.38,-74.62 486.77,-65.63 482.39,-71.09"/>
</a>
</g>
</g>
<!-- Node6 -->
<g id="Node000006" class="node">
<title>Node6</title>
<g id="a_Node000006"><a xlink:href="../../db/d2b/namespacedyld_ac00504fe40c9a66182fbb0efe68b09a6.html#ac00504fe40c9a66182fbb0efe68b09a6" target="_top" xlink:title=" ">
<polygon fill="white" stroke="#666666" points="404.25,-93.25 299.75,-93.25 299.75,-74 404.25,-74 404.25,-93.25"/>
<text text-anchor="middle" x="352" y="-79.75" font-family="Helvetica,sans-Serif" font-size="10.00">dyld::runTerminators</text>
</a>
</g>
</g>
<!-- Node5&#45;&gt;Node6 -->
<g id="edge8_Node000005_Node000006" class="edge">
<title>Node5&#45;&gt;Node6</title>
<g id="a_edge8_Node000005_Node000006"><a xlink:title=" ">
<path fill="none" stroke="#63b8ff" d="M466.7,-85.12C447.87,-84.87 424.96,-84.57 404.65,-84.3"/>
<polygon fill="#63b8ff" stroke="#63b8ff" points="466.57,-88.62 476.62,-85.25 466.67,-81.62 466.57,-88.62"/>
</a>
</g>
</g>
<!-- Node7 -->
<g id="Node000007" class="node">
<title>Node7</title>
<g id="a_Node000007"><a xlink:href="../../db/d2b/namespacedyld_ae9db6b6be18f59732c4d994839fb92ca.html#ae9db6b6be18f59732c4d994839fb92ca" target="_top" xlink:title=" ">
<polygon fill="white" stroke="#666666" points="247.25,-93.25 102.25,-93.25 102.25,-74 247.25,-74 247.25,-93.25"/>
<text text-anchor="middle" x="174.75" y="-79.75" font-family="Helvetica,sans-Serif" font-size="10.00">dyld::initializeMainExecutable</text>
</a>
</g>
</g>
<!-- Node6&#45;&gt;Node7 -->
<g id="edge9_Node000006_Node000007" class="edge">
<title>Node6&#45;&gt;Node7</title>
<g id="a_edge9_Node000006_Node000007"><a xlink:title=" ">
<path fill="none" stroke="#63b8ff" d="M288.04,-83.62C274.88,-83.62 260.92,-83.62 247.47,-83.62"/>
<polygon fill="#63b8ff" stroke="#63b8ff" points="287.85,-87.13 297.85,-83.63 287.85,-80.13 287.85,-87.13"/>
</a>
</g>
</g>
<!-- Node7&#45;&gt;Node2 -->
<g id="edge10_Node000007_Node000002" class="edge">
<title>Node7&#45;&gt;Node2</title>
<g id="a_edge10_Node000007_Node000002"><a xlink:title=" ">
<path fill="none" stroke="#63b8ff" d="M130.33,-97.21C120.99,-100.41 111.22,-103.96 102.25,-107.62 85.34,-114.53 66.71,-123.66 53.21,-130.57"/>
<polygon fill="#63b8ff" stroke="#63b8ff" points="131.23,-100.6 139.6,-94.11 129.01,-93.96 131.23,-100.6"/>
</a>
</g>
</g>
<!-- Node9 -->
<g id="Node000009" class="node">
<title>Node9</title>
<g id="a_Node000009"><a xlink:href="../../db/d2b/namespacedyld_aa60e038a9d913b248fff388b2167697b.html#aa60e038a9d913b248fff388b2167697b" target="_top" xlink:title=" ">
<polygon fill="white" stroke="#666666" points="420.75,-169.25 283.25,-169.25 283.25,-150 420.75,-150 420.75,-169.25"/>
<text text-anchor="middle" x="352" y="-155.75" font-family="Helvetica,sans-Serif" font-size="10.00">dyld::garbageCollectImages</text>
</a>
</g>
</g>
<!-- Node8&#45;&gt;Node9 -->
<g id="edge12_Node000008_Node000009" class="edge">
<title>Node8&#45;&gt;Node9</title>
<g id="a_edge12_Node000008_Node000009"><a xlink:title=" ">
<path fill="none" stroke="#63b8ff" d="M445.03,-148.75C437.17,-149.68 429.08,-150.64 421.11,-151.58"/>
<polygon fill="#63b8ff" stroke="#63b8ff" points="445.3,-152.25 454.82,-147.6 444.48,-145.29 445.3,-152.25"/>
</a>
</g>
</g>
<!-- Node10 -->
<g id="Node000010" class="node">
<title>Node10</title>
<g id="a_Node000010"><a xlink:href="../../db/d2b/namespacedyld_ae0c6e435c15c51dd9dc6908f0eb03f72.html#ae0c6e435c15c51dd9dc6908f0eb03f72" target="_top" xlink:title=" ">
<polygon fill="white" stroke="#666666" points="202.25,-169.25 147.25,-169.25 147.25,-150 202.25,-150 202.25,-169.25"/>
<text text-anchor="middle" x="174.75" y="-155.75" font-family="Helvetica,sans-Serif" font-size="10.00">dyld::link</text>
</a>
</g>
</g>
<!-- Node9&#45;&gt;Node10 -->
<g id="edge13_Node000009_Node000010" class="edge">
<title>Node9&#45;&gt;Node10</title>
<g id="a_edge13_Node000009_Node000010"><a xlink:title=" ">
<path fill="none" stroke="#63b8ff" d="M271.68,-159.62C246.85,-159.62 221.13,-159.62 202.57,-159.62"/>
<polygon fill="#63b8ff" stroke="#63b8ff" points="271.48,-163.13 281.48,-159.63 271.48,-156.13 271.48,-163.13"/>
</a>
</g>
</g>
<!-- Node10&#45;&gt;Node2 -->
<g id="edge14_Node000010_Node000002" class="edge">
<title>Node10&#45;&gt;Node2</title>
<g id="a_edge14_Node000010_Node000002"><a xlink:title=" ">
<path fill="none" stroke="#63b8ff" d="M135.43,-154.41C113.84,-151.47 87.16,-147.84 66.61,-145.05"/>
<polygon fill="#63b8ff" stroke="#63b8ff" points="134.95,-157.88 145.33,-155.76 135.89,-150.94 134.95,-157.88"/>
</a>
</g>
</g>
</g>
</svg>
