<?xml version="1.0" encoding="UTF-8" standalone="no"?>
<!DOCTYPE svg PUBLIC "-//W3C//DTD SVG 1.1//EN"
 "http://www.w3.org/Graphics/SVG/1.1/DTD/svg11.dtd">
<!-- Generated by graphviz version 12.2.1 (20241206.2353)
 -->
<!-- Title: CUDA_KERNELS/Matrix_Assembly_CUDA_Integration_Example.cpp Pages: 1 -->
<svg width="1444pt" height="282pt"
 viewBox="0.00 0.00 1444.12 282.00" xmlns="http://www.w3.org/2000/svg" xmlns:xlink="http://www.w3.org/1999/xlink">
<g id="graph0" class="graph" transform="scale(1 1) rotate(0) translate(4 278)">
<title>CUDA_KERNELS/Matrix_Assembly_CUDA_Integration_Example.cpp</title>
<!-- Node1 -->
<g id="Node000001" class="node">
<title>Node1</title>
<g id="a_Node000001"><a xlink:title=" ">
<polygon fill="#999999" stroke="#666666" points="1012.62,-274 862.38,-274 862.38,-232.25 1012.62,-232.25 1012.62,-274"/>
<text text-anchor="start" x="870.38" y="-260.5" font-family="Helvetica,sans-Serif" font-size="10.00">CUDA_KERNELS/Matrix</text>
<text text-anchor="start" x="870.38" y="-249.25" font-family="Helvetica,sans-Serif" font-size="10.00">_Assembly_CUDA_Integration</text>
<text text-anchor="middle" x="937.5" y="-238" font-family="Helvetica,sans-Serif" font-size="10.00">_Example.cpp</text>
</a>
</g>
</g>
<!-- Node2 -->
<g id="Node000002" class="node">
<title>Node2</title>
<g id="a_Node000002"><a xlink:href="../../db/d98/_matrix___assembly___cuda___kernels_8h.html" target="_top" xlink:title=" ">
<polygon fill="white" stroke="#666666" points="433.62,-196.25 313.38,-196.25 313.38,-165.75 433.62,-165.75 433.62,-196.25"/>
<text text-anchor="start" x="321.38" y="-182.75" font-family="Helvetica,sans-Serif" font-size="10.00">Matrix_Assembly_Cuda</text>
<text text-anchor="middle" x="373.5" y="-171.5" font-family="Helvetica,sans-Serif" font-size="10.00">_Kernels.h</text>
</a>
</g>
</g>
<!-- Node1&#45;&gt;Node2 -->
<g id="edge1_Node000001_Node000002" class="edge">
<title>Node1&#45;&gt;Node2</title>
<g id="a_edge1_Node000001_Node000002"><a xlink:title=" ">
<path fill="none" stroke="#63b8ff" d="M862.02,-242.74C752.84,-229.16 552.22,-204.22 445.2,-190.91"/>
<polygon fill="#63b8ff" stroke="#63b8ff" points="445.74,-187.45 435.38,-189.69 444.87,-194.4 445.74,-187.45"/>
</a>
</g>
</g>
<!-- Node5 -->
<g id="Node000005" class="node">
<title>Node5</title>
<g id="a_Node000005"><a xlink:href="../../d6/dc2/definitions_8h.html" target="_top" xlink:title="Header file containing global constants, structures, and function declarations for the solver.">
<polygon fill="white" stroke="#666666" points="846.75,-74.5 778.25,-74.5 778.25,-55.25 846.75,-55.25 846.75,-74.5"/>
<text text-anchor="middle" x="812.5" y="-61" font-family="Helvetica,sans-Serif" font-size="10.00">definitions.h</text>
</a>
</g>
</g>
<!-- Node1&#45;&gt;Node5 -->
<g id="edge4_Node000001_Node000005" class="edge">
<title>Node1&#45;&gt;Node5</title>
<g id="a_edge4_Node000001_Node000005"><a xlink:title=" ">
<path fill="none" stroke="#63b8ff" d="M905.51,-231.93C892,-222.3 876.8,-209.9 865.5,-196.25 837.92,-162.95 823.14,-113.38 816.65,-85.96"/>
<polygon fill="#63b8ff" stroke="#63b8ff" points="820.07,-85.23 814.5,-76.22 813.24,-86.74 820.07,-85.23"/>
</a>
</g>
</g>
<!-- Node6 -->
<g id="Node000006" class="node">
<title>Node6</title>
<g id="a_Node000006"><a xlink:title=" ">
<polygon fill="#e0e0e0" stroke="#999999" points="1298.25,-19.25 1244.75,-19.25 1244.75,0 1298.25,0 1298.25,-19.25"/>
<text text-anchor="middle" x="1271.5" y="-5.75" font-family="Helvetica,sans-Serif" font-size="10.00">iostream</text>
</a>
</g>
</g>
<!-- Node1&#45;&gt;Node6 -->
<g id="edge32_Node000001_Node000006" class="edge">
<title>Node1&#45;&gt;Node6</title>
<g id="a_edge32_Node000001_Node000006"><a xlink:title=" ">
<path fill="none" stroke="#63b8ff" d="M958.93,-232.05C1009.64,-184.67 1134.4,-68.84 1156.5,-55.25 1180.64,-40.41 1210.56,-28.98 1233.83,-21.41"/>
<polygon fill="#63b8ff" stroke="#63b8ff" points="1234.73,-24.8 1243.22,-18.46 1232.63,-18.12 1234.73,-24.8"/>
</a>
</g>
</g>
<!-- Node14 -->
<g id="Node000014" class="node">
<title>Node14</title>
<g id="a_Node000014"><a xlink:title=" ">
<polygon fill="#e0e0e0" stroke="#999999" points="1372.38,-19.25 1316.62,-19.25 1316.62,0 1372.38,0 1372.38,-19.25"/>
<text text-anchor="middle" x="1344.5" y="-5.75" font-family="Helvetica,sans-Serif" font-size="10.00">algorithm</text>
</a>
</g>
</g>
<!-- Node1&#45;&gt;Node14 -->
<g id="edge33_Node000001_Node000014" class="edge">
<title>Node1&#45;&gt;Node14</title>
<g id="a_edge33_Node000001_Node000014"><a xlink:title=" ">
<path fill="none" stroke="#63b8ff" d="M971.5,-231.95C1051.46,-184.51 1249.92,-66.74 1319.73,-25.32"/>
<polygon fill="#63b8ff" stroke="#63b8ff" points="1321.32,-28.45 1328.13,-20.34 1317.75,-22.43 1321.32,-28.45"/>
</a>
</g>
</g>
<!-- Node15 -->
<g id="Node000015" class="node">
<title>Node15</title>
<g id="a_Node000015"><a xlink:title=" ">
<polygon fill="#e0e0e0" stroke="#999999" points="1436.12,-19.25 1390.88,-19.25 1390.88,0 1436.12,0 1436.12,-19.25"/>
<text text-anchor="middle" x="1413.5" y="-5.75" font-family="Helvetica,sans-Serif" font-size="10.00">chrono</text>
</a>
</g>
</g>
<!-- Node1&#45;&gt;Node15 -->
<g id="edge31_Node000001_Node000015" class="edge">
<title>Node1&#45;&gt;Node15</title>
<g id="a_edge31_Node000001_Node000015"><a xlink:title=" ">
<path fill="none" stroke="#63b8ff" d="M990.32,-231.78C1015.48,-221.7 1045.83,-208.98 1072.5,-196.25 1193.64,-138.41 1332.69,-58.21 1388.45,-25.46"/>
<polygon fill="#63b8ff" stroke="#63b8ff" points="1390.03,-28.59 1396.87,-20.5 1386.47,-22.56 1390.03,-28.59"/>
</a>
</g>
</g>
<!-- Node26 -->
<g id="Node000026" class="node">
<title>Node26</title>
<g id="a_Node000026"><a xlink:href="../../d8/d4d/_globals_8h.html" target="_top" xlink:title=" ">
<polygon fill="white" stroke="#666666" points="898.12,-129.75 840.88,-129.75 840.88,-110.5 898.12,-110.5 898.12,-129.75"/>
<text text-anchor="middle" x="869.5" y="-116.25" font-family="Helvetica,sans-Serif" font-size="10.00">Globals.h</text>
</a>
</g>
</g>
<!-- Node1&#45;&gt;Node26 -->
<g id="edge26_Node000001_Node000026" class="edge">
<title>Node1&#45;&gt;Node26</title>
<g id="a_edge26_Node000001_Node000026"><a xlink:title=" ">
<path fill="none" stroke="#63b8ff" d="M908.62,-231.86C897.34,-222.38 885.47,-210.11 878.5,-196.25 869.84,-179.03 868.15,-156.86 868.29,-141.08"/>
<polygon fill="#63b8ff" stroke="#63b8ff" points="871.77,-141.64 868.63,-131.52 864.77,-141.39 871.77,-141.64"/>
</a>
</g>
</g>
<!-- Node27 -->
<g id="Node000027" class="node">
<title>Node27</title>
<g id="a_Node000027"><a xlink:href="../../d6/de5/_assemble___matrix_8h.html" target="_top" xlink:title=" ">
<polygon fill="white" stroke="#666666" points="987.5,-190.62 887.5,-190.62 887.5,-171.38 987.5,-171.38 987.5,-190.62"/>
<text text-anchor="middle" x="937.5" y="-177.12" font-family="Helvetica,sans-Serif" font-size="10.00">Assemble_Matrix.h</text>
</a>
</g>
</g>
<!-- Node1&#45;&gt;Node27 -->
<g id="edge28_Node000001_Node000027" class="edge">
<title>Node1&#45;&gt;Node27</title>
<g id="a_edge28_Node000001_Node000027"><a xlink:title=" ">
<path fill="none" stroke="#63b8ff" d="M937.5,-231.84C937.5,-222.5 937.5,-211.44 937.5,-202.12"/>
<polygon fill="#63b8ff" stroke="#63b8ff" points="941,-202.32 937.5,-192.32 934,-202.32 941,-202.32"/>
</a>
</g>
</g>
<!-- Node3 -->
<g id="Node000003" class="node">
<title>Node3</title>
<g id="a_Node000003"><a xlink:title=" ">
<polygon fill="#e0e0e0" stroke="#999999" points="345.88,-129.75 263.12,-129.75 263.12,-110.5 345.88,-110.5 345.88,-129.75"/>
<text text-anchor="middle" x="304.5" y="-116.25" font-family="Helvetica,sans-Serif" font-size="10.00">cuda_runtime.h</text>
</a>
</g>
</g>
<!-- Node2&#45;&gt;Node3 -->
<g id="edge2_Node000002_Node000003" class="edge">
<title>Node2&#45;&gt;Node3</title>
<g id="a_edge2_Node000002_Node000003"><a xlink:title=" ">
<path fill="none" stroke="#63b8ff" d="M356.44,-165.45C346.54,-157 334.04,-146.33 323.79,-137.58"/>
<polygon fill="#63b8ff" stroke="#63b8ff" points="326.17,-135.01 316.29,-131.18 321.62,-140.34 326.17,-135.01"/>
</a>
</g>
</g>
<!-- Node4 -->
<g id="Node000004" class="node">
<title>Node4</title>
<g id="a_Node000004"><a xlink:title=" ">
<polygon fill="#e0e0e0" stroke="#999999" points="43,-19.25 0,-19.25 0,0 43,0 43,-19.25"/>
<text text-anchor="middle" x="21.5" y="-5.75" font-family="Helvetica,sans-Serif" font-size="10.00">vector</text>
</a>
</g>
</g>
<!-- Node2&#45;&gt;Node4 -->
<g id="edge3_Node000002_Node000004" class="edge">
<title>Node2&#45;&gt;Node4</title>
<g id="a_edge3_Node000002_Node000004"><a xlink:title=" ">
<path fill="none" stroke="#63b8ff" d="M373.47,-165.5C372.64,-149.87 368.91,-125.27 354.5,-110.5 351.79,-107.72 137.69,-44.71 54.27,-20.23"/>
<polygon fill="#63b8ff" stroke="#63b8ff" points="55.43,-16.92 44.85,-17.47 53.46,-23.64 55.43,-16.92"/>
</a>
</g>
</g>
<!-- Node5&#45;&gt;Node4 -->
<g id="edge7_Node000005_Node000004" class="edge">
<title>Node5&#45;&gt;Node4</title>
<g id="a_edge7_Node000005_Node000004"><a xlink:title=" ">
<path fill="none" stroke="#63b8ff" d="M777.91,-62.86C651.7,-59.02 215.31,-44.34 54.42,-19.32"/>
<polygon fill="#63b8ff" stroke="#63b8ff" points="55.25,-15.91 44.82,-17.75 54.12,-22.82 55.25,-15.91"/>
</a>
</g>
</g>
<!-- Node5&#45;&gt;Node6 -->
<g id="edge5_Node000005_Node000006" class="edge">
<title>Node5&#45;&gt;Node6</title>
<g id="a_edge5_Node000005_Node000006"><a xlink:title=" ">
<path fill="none" stroke="#63b8ff" d="M846.98,-61.76C917.59,-57.11 1083.92,-44.49 1233.27,-19.41"/>
<polygon fill="#63b8ff" stroke="#63b8ff" points="1233.69,-22.89 1242.96,-17.76 1232.51,-15.99 1233.69,-22.89"/>
</a>
</g>
</g>
<!-- Node7 -->
<g id="Node000007" class="node">
<title>Node7</title>
<g id="a_Node000007"><a xlink:title=" ">
<polygon fill="#e0e0e0" stroke="#999999" points="581,-19.25 532,-19.25 532,0 581,0 581,-19.25"/>
<text text-anchor="middle" x="556.5" y="-5.75" font-family="Helvetica,sans-Serif" font-size="10.00">fstream</text>
</a>
</g>
</g>
<!-- Node5&#45;&gt;Node7 -->
<g id="edge6_Node000005_Node000007" class="edge">
<title>Node5&#45;&gt;Node7</title>
<g id="a_edge6_Node000005_Node000007"><a xlink:title=" ">
<path fill="none" stroke="#63b8ff" d="M777.78,-57.45C736.12,-49.63 663.93,-35.68 592.36,-19.58"/>
<polygon fill="#63b8ff" stroke="#63b8ff" points="593.35,-16.21 582.82,-17.42 591.8,-23.04 593.35,-16.21"/>
</a>
</g>
</g>
<!-- Node8 -->
<g id="Node000008" class="node">
<title>Node8</title>
<g id="a_Node000008"><a xlink:title=" ">
<polygon fill="#e0e0e0" stroke="#999999" points="639.5,-19.25 599.5,-19.25 599.5,0 639.5,0 639.5,-19.25"/>
<text text-anchor="middle" x="619.5" y="-5.75" font-family="Helvetica,sans-Serif" font-size="10.00">string</text>
</a>
</g>
</g>
<!-- Node5&#45;&gt;Node8 -->
<g id="edge8_Node000005_Node000008" class="edge">
<title>Node5&#45;&gt;Node8</title>
<g id="a_edge8_Node000005_Node000008"><a xlink:title=" ">
<path fill="none" stroke="#63b8ff" d="M778.2,-54.79C747.24,-46.54 700.19,-33.86 650.69,-19.83"/>
<polygon fill="#63b8ff" stroke="#63b8ff" points="651.8,-16.5 641.22,-17.13 649.88,-23.23 651.8,-16.5"/>
</a>
</g>
</g>
<!-- Node9 -->
<g id="Node000009" class="node">
<title>Node9</title>
<g id="a_Node000009"><a xlink:title=" ">
<polygon fill="#e0e0e0" stroke="#999999" points="701,-19.25 658,-19.25 658,0 701,0 701,-19.25"/>
<text text-anchor="middle" x="679.5" y="-5.75" font-family="Helvetica,sans-Serif" font-size="10.00">cmath</text>
</a>
</g>
</g>
<!-- Node5&#45;&gt;Node9 -->
<g id="edge9_Node000005_Node000009" class="edge">
<title>Node5&#45;&gt;Node9</title>
<g id="a_edge9_Node000005_Node000009"><a xlink:title=" ">
<path fill="none" stroke="#63b8ff" d="M789.94,-54.84C768.47,-46.25 735.95,-33.23 711.75,-23.54"/>
<polygon fill="#63b8ff" stroke="#63b8ff" points="713.28,-20.38 702.69,-19.91 710.68,-26.88 713.28,-20.38"/>
</a>
</g>
</g>
<!-- Node10 -->
<g id="Node000010" class="node">
<title>Node10</title>
<g id="a_Node000010"><a xlink:title=" ">
<polygon fill="#e0e0e0" stroke="#999999" points="769.75,-19.25 719.25,-19.25 719.25,0 769.75,0 769.75,-19.25"/>
<text text-anchor="middle" x="744.5" y="-5.75" font-family="Helvetica,sans-Serif" font-size="10.00">typeinfo</text>
</a>
</g>
</g>
<!-- Node5&#45;&gt;Node10 -->
<g id="edge10_Node000005_Node000010" class="edge">
<title>Node5&#45;&gt;Node10</title>
<g id="a_edge10_Node000005_Node000010"><a xlink:title=" ">
<path fill="none" stroke="#63b8ff" d="M800.96,-54.84C791.04,-47.07 776.49,-35.67 764.64,-26.4"/>
<polygon fill="#63b8ff" stroke="#63b8ff" points="767.09,-23.87 757.06,-20.46 762.77,-29.38 767.09,-23.87"/>
</a>
</g>
</g>
<!-- Node11 -->
<g id="Node000011" class="node">
<title>Node11</title>
<g id="a_Node000011"><a xlink:title=" ">
<polygon fill="#e0e0e0" stroke="#999999" points="837.38,-19.25 787.62,-19.25 787.62,0 837.38,0 837.38,-19.25"/>
<text text-anchor="middle" x="812.5" y="-5.75" font-family="Helvetica,sans-Serif" font-size="10.00">iomanip</text>
</a>
</g>
</g>
<!-- Node5&#45;&gt;Node11 -->
<g id="edge11_Node000005_Node000011" class="edge">
<title>Node5&#45;&gt;Node11</title>
<g id="a_edge11_Node000005_Node000011"><a xlink:title=" ">
<path fill="none" stroke="#63b8ff" d="M812.5,-55.08C812.5,-48.57 812.5,-39.42 812.5,-31.12"/>
<polygon fill="#63b8ff" stroke="#63b8ff" points="816,-31.12 812.5,-21.12 809,-31.12 816,-31.12"/>
</a>
</g>
</g>
<!-- Node12 -->
<g id="Node000012" class="node">
<title>Node12</title>
<g id="a_Node000012"><a xlink:title=" ">
<polygon fill="#e0e0e0" stroke="#999999" points="897.62,-19.25 855.38,-19.25 855.38,0 897.62,0 897.62,-19.25"/>
<text text-anchor="middle" x="876.5" y="-5.75" font-family="Helvetica,sans-Serif" font-size="10.00">cstdio</text>
</a>
</g>
</g>
<!-- Node5&#45;&gt;Node12 -->
<g id="edge12_Node000005_Node000012" class="edge">
<title>Node5&#45;&gt;Node12</title>
<g id="a_edge12_Node000005_Node000012"><a xlink:title=" ">
<path fill="none" stroke="#63b8ff" d="M823.36,-54.84C832.61,-47.15 846.12,-35.9 857.21,-26.68"/>
<polygon fill="#63b8ff" stroke="#63b8ff" points="859.19,-29.58 864.64,-20.49 854.71,-24.2 859.19,-29.58"/>
</a>
</g>
</g>
<!-- Node13 -->
<g id="Node000013" class="node">
<title>Node13</title>
<g id="a_Node000013"><a xlink:title=" ">
<polygon fill="#e0e0e0" stroke="#999999" points="959.75,-19.25 915.25,-19.25 915.25,0 959.75,0 959.75,-19.25"/>
<text text-anchor="middle" x="937.5" y="-5.75" font-family="Helvetica,sans-Serif" font-size="10.00">cstdlib</text>
</a>
</g>
</g>
<!-- Node5&#45;&gt;Node13 -->
<g id="edge13_Node000005_Node000013" class="edge">
<title>Node5&#45;&gt;Node13</title>
<g id="a_edge13_Node000005_Node000013"><a xlink:title=" ">
<path fill="none" stroke="#63b8ff" d="M833.7,-54.84C853.46,-46.43 883.17,-33.77 905.75,-24.15"/>
<polygon fill="#63b8ff" stroke="#63b8ff" points="906.97,-27.43 914.8,-20.3 904.23,-20.99 906.97,-27.43"/>
</a>
</g>
</g>
<!-- Node5&#45;&gt;Node14 -->
<g id="edge14_Node000005_Node000014" class="edge">
<title>Node5&#45;&gt;Node14</title>
<g id="a_edge14_Node000005_Node000014"><a xlink:title=" ">
<path fill="none" stroke="#63b8ff" d="M847.21,-62.41C926.59,-58.7 1127.58,-47.3 1305.18,-19.4"/>
<polygon fill="#63b8ff" stroke="#63b8ff" points="1305.48,-22.9 1314.8,-17.86 1304.38,-15.98 1305.48,-22.9"/>
</a>
</g>
</g>
<!-- Node5&#45;&gt;Node15 -->
<g id="edge15_Node000005_Node000015" class="edge">
<title>Node5&#45;&gt;Node15</title>
<g id="a_edge15_Node000005_Node000015"><a xlink:title=" ">
<path fill="none" stroke="#63b8ff" d="M847.09,-63.38C934.71,-61.67 1172.52,-54.09 1379.46,-19.25"/>
<polygon fill="#63b8ff" stroke="#63b8ff" points="1379.78,-22.75 1389.05,-17.61 1378.6,-15.85 1379.78,-22.75"/>
</a>
</g>
</g>
<!-- Node16 -->
<g id="Node000016" class="node">
<title>Node16</title>
<g id="a_Node000016"><a xlink:title=" ">
<polygon fill="#e0e0e0" stroke="#999999" points="1017.5,-19.25 977.5,-19.25 977.5,0 1017.5,0 1017.5,-19.25"/>
<text text-anchor="middle" x="997.5" y="-5.75" font-family="Helvetica,sans-Serif" font-size="10.00">cfloat</text>
</a>
</g>
</g>
<!-- Node5&#45;&gt;Node16 -->
<g id="edge16_Node000005_Node000016" class="edge">
<title>Node5&#45;&gt;Node16</title>
<g id="a_edge16_Node000005_Node000016"><a xlink:title=" ">
<path fill="none" stroke="#63b8ff" d="M844.5,-54.83C873.83,-46.51 918.75,-33.72 966.38,-19.85"/>
<polygon fill="#63b8ff" stroke="#63b8ff" points="967.15,-23.27 975.77,-17.11 965.19,-16.55 967.15,-23.27"/>
</a>
</g>
</g>
<!-- Node17 -->
<g id="Node000017" class="node">
<title>Node17</title>
<g id="a_Node000017"><a xlink:title=" ">
<polygon fill="#e0e0e0" stroke="#999999" points="1097,-19.25 1036,-19.25 1036,0 1097,0 1097,-19.25"/>
<text text-anchor="middle" x="1066.5" y="-5.75" font-family="Helvetica,sans-Serif" font-size="10.00">filesystem</text>
</a>
</g>
</g>
<!-- Node5&#45;&gt;Node17 -->
<g id="edge17_Node000005_Node000017" class="edge">
<title>Node5&#45;&gt;Node17</title>
<g id="a_edge17_Node000005_Node000017"><a xlink:title=" ">
<path fill="none" stroke="#63b8ff" d="M846.98,-56.76C887.14,-48.46 955.77,-34.22 1024.84,-19.59"/>
<polygon fill="#63b8ff" stroke="#63b8ff" points="1025.39,-23.05 1034.45,-17.55 1023.94,-16.2 1025.39,-23.05"/>
</a>
</g>
</g>
<!-- Node18 -->
<g id="Node000018" class="node">
<title>Node18</title>
<g id="a_Node000018"><a xlink:title=" ">
<polygon fill="#e0e0e0" stroke="#999999" points="1149.88,-19.25 1115.12,-19.25 1115.12,0 1149.88,0 1149.88,-19.25"/>
<text text-anchor="middle" x="1132.5" y="-5.75" font-family="Helvetica,sans-Serif" font-size="10.00">map</text>
</a>
</g>
</g>
<!-- Node5&#45;&gt;Node18 -->
<g id="edge18_Node000005_Node000018" class="edge">
<title>Node5&#45;&gt;Node18</title>
<g id="a_edge18_Node000005_Node000018"><a xlink:title=" ">
<path fill="none" stroke="#63b8ff" d="M846.82,-60.58C900.06,-55.05 1005.87,-42.43 1103.74,-19.58"/>
<polygon fill="#63b8ff" stroke="#63b8ff" points="1104.32,-23.04 1113.24,-17.32 1102.7,-16.23 1104.32,-23.04"/>
</a>
</g>
</g>
<!-- Node19 -->
<g id="Node000019" class="node">
<title>Node19</title>
<g id="a_Node000019"><a xlink:title=" ">
<polygon fill="#e0e0e0" stroke="#999999" points="1226.88,-19.25 1168.12,-19.25 1168.12,0 1226.88,0 1226.88,-19.25"/>
<text text-anchor="middle" x="1197.5" y="-5.75" font-family="Helvetica,sans-Serif" font-size="10.00">stdexcept</text>
</a>
</g>
</g>
<!-- Node5&#45;&gt;Node19 -->
<g id="edge19_Node000005_Node000019" class="edge">
<title>Node5&#45;&gt;Node19</title>
<g id="a_edge19_Node000005_Node000019"><a xlink:title=" ">
<path fill="none" stroke="#63b8ff" d="M847.03,-60.46C907.57,-54.24 1036.99,-39.95 1156.58,-19.43"/>
<polygon fill="#63b8ff" stroke="#63b8ff" points="1157,-22.91 1166.25,-17.75 1155.8,-16.02 1157,-22.91"/>
</a>
</g>
</g>
<!-- Node20 -->
<g id="Node000020" class="node">
<title>Node20</title>
<g id="a_Node000020"><a xlink:title=" ">
<polygon fill="#e0e0e0" stroke="#999999" points="112.12,-19.25 60.88,-19.25 60.88,0 112.12,0 112.12,-19.25"/>
<text text-anchor="middle" x="86.5" y="-5.75" font-family="Helvetica,sans-Serif" font-size="10.00">sstream</text>
</a>
</g>
</g>
<!-- Node5&#45;&gt;Node20 -->
<g id="edge20_Node000005_Node000020" class="edge">
<title>Node5&#45;&gt;Node20</title>
<g id="a_edge20_Node000005_Node000020"><a xlink:title=" ">
<path fill="none" stroke="#63b8ff" d="M777.75,-63.8C677.59,-63.12 379.6,-57.89 123.4,-19.23"/>
<polygon fill="#63b8ff" stroke="#63b8ff" points="124.3,-15.83 113.89,-17.78 123.24,-22.75 124.3,-15.83"/>
</a>
</g>
</g>
<!-- Node21 -->
<g id="Node000021" class="node">
<title>Node21</title>
<g id="a_Node000021"><a xlink:title=" ">
<polygon fill="#e0e0e0" stroke="#999999" points="212.88,-19.25 130.12,-19.25 130.12,0 212.88,0 212.88,-19.25"/>
<text text-anchor="middle" x="171.5" y="-5.75" font-family="Helvetica,sans-Serif" font-size="10.00">unordered_map</text>
</a>
</g>
</g>
<!-- Node5&#45;&gt;Node21 -->
<g id="edge21_Node000005_Node000021" class="edge">
<title>Node5&#45;&gt;Node21</title>
<g id="a_edge21_Node000005_Node000021"><a xlink:title=" ">
<path fill="none" stroke="#63b8ff" d="M778.08,-62.43C688.53,-58.41 440.78,-45.75 224.45,-19.51"/>
<polygon fill="#63b8ff" stroke="#63b8ff" points="225.05,-16.05 214.7,-18.31 224.2,-23 225.05,-16.05"/>
</a>
</g>
</g>
<!-- Node22 -->
<g id="Node000022" class="node">
<title>Node22</title>
<g id="a_Node000022"><a xlink:title=" ">
<polygon fill="#e0e0e0" stroke="#999999" points="308.25,-19.25 230.75,-19.25 230.75,0 308.25,0 308.25,-19.25"/>
<text text-anchor="middle" x="269.5" y="-5.75" font-family="Helvetica,sans-Serif" font-size="10.00">unordered_set</text>
</a>
</g>
</g>
<!-- Node5&#45;&gt;Node22 -->
<g id="edge22_Node000005_Node000022" class="edge">
<title>Node5&#45;&gt;Node22</title>
<g id="a_edge22_Node000005_Node000022"><a xlink:title=" ">
<path fill="none" stroke="#63b8ff" d="M777.8,-61.85C698.47,-56.99 497.57,-43.36 320.08,-19.64"/>
<polygon fill="#63b8ff" stroke="#63b8ff" points="320.57,-16.17 310.19,-18.3 319.63,-23.11 320.57,-16.17"/>
</a>
</g>
</g>
<!-- Node23 -->
<g id="Node000023" class="node">
<title>Node23</title>
<g id="a_Node000023"><a xlink:title=" ">
<polygon fill="#e0e0e0" stroke="#999999" points="363,-19.25 326,-19.25 326,0 363,0 363,-19.25"/>
<text text-anchor="middle" x="344.5" y="-5.75" font-family="Helvetica,sans-Serif" font-size="10.00">tuple</text>
</a>
</g>
</g>
<!-- Node5&#45;&gt;Node23 -->
<g id="edge23_Node000005_Node000023" class="edge">
<title>Node5&#45;&gt;Node23</title>
<g id="a_edge23_Node000005_Node000023"><a xlink:title=" ">
<path fill="none" stroke="#63b8ff" d="M777.82,-62.82C704.66,-60.07 529.16,-50.72 374.36,-19.45"/>
<polygon fill="#63b8ff" stroke="#63b8ff" points="375.23,-16.06 364.73,-17.47 373.82,-22.92 375.23,-16.06"/>
</a>
</g>
</g>
<!-- Node24 -->
<g id="Node000024" class="node">
<title>Node24</title>
<g id="a_Node000024"><a xlink:title=" ">
<polygon fill="#e0e0e0" stroke="#999999" points="410.25,-19.25 380.75,-19.25 380.75,0 410.25,0 410.25,-19.25"/>
<text text-anchor="middle" x="395.5" y="-5.75" font-family="Helvetica,sans-Serif" font-size="10.00">set</text>
</a>
</g>
</g>
<!-- Node5&#45;&gt;Node24 -->
<g id="edge24_Node000005_Node000024" class="edge">
<title>Node5&#45;&gt;Node24</title>
<g id="a_edge24_Node000005_Node000024"><a xlink:title=" ">
<path fill="none" stroke="#63b8ff" d="M777.87,-62.64C710.67,-59.66 557.91,-50.1 421.61,-19.2"/>
<polygon fill="#63b8ff" stroke="#63b8ff" points="422.58,-15.83 412.05,-16.98 421,-22.65 422.58,-15.83"/>
</a>
</g>
</g>
<!-- Node25 -->
<g id="Node000025" class="node">
<title>Node25</title>
<g id="a_Node000025"><a xlink:title=" ">
<polygon fill="#e0e0e0" stroke="#999999" points="514.38,-19.25 428.62,-19.25 428.62,0 514.38,0 514.38,-19.25"/>
<text text-anchor="middle" x="471.5" y="-5.75" font-family="Helvetica,sans-Serif" font-size="10.00">boost/regex.hpp</text>
</a>
</g>
</g>
<!-- Node5&#45;&gt;Node25 -->
<g id="edge25_Node000005_Node000025" class="edge">
<title>Node5&#45;&gt;Node25</title>
<g id="a_edge25_Node000005_Node000025"><a xlink:title=" ">
<path fill="none" stroke="#63b8ff" d="M778.1,-58.75C725.78,-50.92 622.79,-35.36 525.8,-19.77"/>
<polygon fill="#63b8ff" stroke="#63b8ff" points="526.54,-16.34 516.11,-18.2 525.43,-23.25 526.54,-16.34"/>
</a>
</g>
</g>
<!-- Node26&#45;&gt;Node5 -->
<g id="edge27_Node000026_Node000005" class="edge">
<title>Node26&#45;&gt;Node5</title>
<g id="a_edge27_Node000026_Node000005"><a xlink:title=" ">
<path fill="none" stroke="#63b8ff" d="M859.83,-110.09C851.76,-102.55 840.03,-91.6 830.28,-82.48"/>
<polygon fill="#63b8ff" stroke="#63b8ff" points="832.83,-80.08 823.13,-75.81 828.05,-85.19 832.83,-80.08"/>
</a>
</g>
</g>
<!-- Node27&#45;&gt;Node5 -->
<g id="edge29_Node000027_Node000005" class="edge">
<title>Node27&#45;&gt;Node5</title>
<g id="a_edge29_Node000027_Node000005"><a xlink:title=" ">
<path fill="none" stroke="#63b8ff" d="M935.81,-171.19C932.64,-156.79 924.51,-128.06 907.5,-110.5 893.64,-96.19 874.29,-85.97 856.68,-78.95"/>
<polygon fill="#63b8ff" stroke="#63b8ff" points="858.01,-75.71 847.41,-75.51 855.57,-82.27 858.01,-75.71"/>
</a>
</g>
</g>
<!-- Node27&#45;&gt;Node26 -->
<g id="edge30_Node000027_Node000026" class="edge">
<title>Node27&#45;&gt;Node26</title>
<g id="a_edge30_Node000027_Node000026"><a xlink:title=" ">
<path fill="none" stroke="#63b8ff" d="M927.17,-171.06C916.89,-162.15 900.87,-148.28 888.32,-137.42"/>
<polygon fill="#63b8ff" stroke="#63b8ff" points="890.92,-135.04 881.07,-131.14 886.34,-140.33 890.92,-135.04"/>
</a>
</g>
</g>
</g>
</svg>
