<?xml version="1.0" encoding="UTF-8" standalone="no"?>
<!DOCTYPE svg PUBLIC "-//W3C//DTD SVG 1.1//EN"
 "http://www.w3.org/Graphics/SVG/1.1/DTD/svg11.dtd">
<!-- Generated by graphviz version 12.2.1 (20241206.2353)
 -->
<!-- Title: include/Viscous_Functions.h Pages: 1 -->
<svg width="818pt" height="83pt"
 viewBox="0.00 0.00 817.88 82.50" xmlns="http://www.w3.org/2000/svg" xmlns:xlink="http://www.w3.org/1999/xlink">
<g id="graph0" class="graph" transform="scale(1 1) rotate(0) translate(4 78.5)">
<title>include/Viscous_Functions.h</title>
<!-- Node1 -->
<g id="Node000001" class="node">
<title>Node1</title>
<g id="a_Node000001"><a xlink:title=" ">
<polygon fill="#999999" stroke="#666666" points="489.62,-74.5 348.38,-74.5 348.38,-55.25 489.62,-55.25 489.62,-74.5"/>
<text text-anchor="middle" x="419" y="-61" font-family="Helvetica,sans-Serif" font-size="10.00">include/Viscous_Functions.h</text>
</a>
</g>
</g>
<!-- Node2 -->
<g id="Node000002" class="node">
<title>Node2</title>
<g id="a_Node000002"><a xlink:href="../../df/d43/_basic___functions_8cpp.html" target="_top" xlink:title=" ">
<polygon fill="white" stroke="#666666" points="124,-19.25 0,-19.25 0,0 124,0 124,-19.25"/>
<text text-anchor="middle" x="62" y="-5.75" font-family="Helvetica,sans-Serif" font-size="10.00">src/Basic_Functions.cpp</text>
</a>
</g>
</g>
<!-- Node1&#45;&gt;Node2 -->
<g id="edge1_Node000001_Node000002" class="edge">
<title>Node1&#45;&gt;Node2</title>
<g id="a_edge1_Node000001_Node000002"><a xlink:title=" ">
<path fill="none" stroke="#63b8ff" d="M346.94,-53.13C281.18,-43.32 185.06,-28.98 123.01,-19.73"/>
<polygon fill="#63b8ff" stroke="#63b8ff" points="346.13,-56.54 356.54,-54.56 347.16,-49.62 346.13,-56.54"/>
</a>
</g>
</g>
<!-- Node3 -->
<g id="Node000003" class="node">
<title>Node3</title>
<g id="a_Node000003"><a xlink:href="../../d4/d5d/_grid___refine___functions_8cpp.html" target="_top" xlink:title=" ">
<polygon fill="white" stroke="#666666" points="293.5,-19.25 142.5,-19.25 142.5,0 293.5,0 293.5,-19.25"/>
<text text-anchor="middle" x="218" y="-5.75" font-family="Helvetica,sans-Serif" font-size="10.00">src/Grid_Refine_Functions.cpp</text>
</a>
</g>
</g>
<!-- Node1&#45;&gt;Node3 -->
<g id="edge2_Node000001_Node000003" class="edge">
<title>Node1&#45;&gt;Node3</title>
<g id="a_edge2_Node000001_Node000003"><a xlink:title=" ">
<path fill="none" stroke="#63b8ff" d="M373.97,-51.95C337.13,-42.19 285.82,-28.59 252.26,-19.7"/>
<polygon fill="#63b8ff" stroke="#63b8ff" points="372.88,-55.28 383.44,-54.45 374.67,-48.51 372.88,-55.28"/>
</a>
</g>
</g>
<!-- Node4 -->
<g id="Node000004" class="node">
<title>Node4</title>
<g id="a_Node000004"><a xlink:href="../../d7/d6d/_initialize_8cpp.html" target="_top" xlink:title=" ">
<polygon fill="white" stroke="#666666" points="398.62,-19.25 311.38,-19.25 311.38,0 398.62,0 398.62,-19.25"/>
<text text-anchor="middle" x="355" y="-5.75" font-family="Helvetica,sans-Serif" font-size="10.00">src/Initialize.cpp</text>
</a>
</g>
</g>
<!-- Node1&#45;&gt;Node4 -->
<g id="edge3_Node000001_Node000004" class="edge">
<title>Node1&#45;&gt;Node4</title>
<g id="a_edge3_Node000001_Node000004"><a xlink:title=" ">
<path fill="none" stroke="#63b8ff" d="M399.52,-47.66C388.4,-38.42 374.9,-27.18 365.7,-19.52"/>
<polygon fill="#63b8ff" stroke="#63b8ff" points="397.05,-50.17 406.98,-53.87 401.53,-44.79 397.05,-50.17"/>
</a>
</g>
</g>
<!-- Node5 -->
<g id="Node000005" class="node">
<title>Node5</title>
<g id="a_Node000005"><a xlink:href="../../d0/d64/_numerical___method_8cpp.html" target="_top" xlink:title=" ">
<polygon fill="white" stroke="#666666" points="549.5,-19.25 416.5,-19.25 416.5,0 549.5,0 549.5,-19.25"/>
<text text-anchor="middle" x="483" y="-5.75" font-family="Helvetica,sans-Serif" font-size="10.00">src/Numerical_Method.cpp</text>
</a>
</g>
</g>
<!-- Node1&#45;&gt;Node5 -->
<g id="edge4_Node000001_Node000005" class="edge">
<title>Node1&#45;&gt;Node5</title>
<g id="a_edge4_Node000001_Node000005"><a xlink:title=" ">
<path fill="none" stroke="#63b8ff" d="M438.48,-47.66C449.6,-38.42 463.1,-27.18 472.3,-19.52"/>
<polygon fill="#63b8ff" stroke="#63b8ff" points="436.47,-44.79 431.02,-53.87 440.95,-50.17 436.47,-44.79"/>
</a>
</g>
</g>
<!-- Node6 -->
<g id="Node000006" class="node">
<title>Node6</title>
<g id="a_Node000006"><a xlink:href="../../de/df0/_solver_8cpp.html" target="_top" xlink:title="This file contains the implementation of solvers for Euler equations and Navier&#45;Stokes equations.">
<polygon fill="white" stroke="#666666" points="646.12,-19.25 567.88,-19.25 567.88,0 646.12,0 646.12,-19.25"/>
<text text-anchor="middle" x="607" y="-5.75" font-family="Helvetica,sans-Serif" font-size="10.00">src/Solver.cpp</text>
</a>
</g>
</g>
<!-- Node1&#45;&gt;Node6 -->
<g id="edge5_Node000001_Node000006" class="edge">
<title>Node1&#45;&gt;Node6</title>
<g id="a_edge5_Node000001_Node000006"><a xlink:title=" ">
<path fill="none" stroke="#63b8ff" d="M461.56,-51.82C495.98,-42.07 543.7,-28.55 574.95,-19.7"/>
<polygon fill="#63b8ff" stroke="#63b8ff" points="461.02,-48.34 452.35,-54.43 462.92,-55.07 461.02,-48.34"/>
</a>
</g>
</g>
<!-- Node7 -->
<g id="Node000007" class="node">
<title>Node7</title>
<g id="a_Node000007"><a xlink:href="../../db/d81/_viscous___calculations_8cpp.html" target="_top" xlink:title=" ">
<polygon fill="white" stroke="#666666" points="809.88,-19.25 664.12,-19.25 664.12,0 809.88,0 809.88,-19.25"/>
<text text-anchor="middle" x="737" y="-5.75" font-family="Helvetica,sans-Serif" font-size="10.00">src/Viscous_Calculations.cpp</text>
</a>
</g>
</g>
<!-- Node1&#45;&gt;Node7 -->
<g id="edge6_Node000001_Node000007" class="edge">
<title>Node1&#45;&gt;Node7</title>
<g id="a_edge6_Node000001_Node000007"><a xlink:title=" ">
<path fill="none" stroke="#63b8ff" d="M484.65,-52.88C543.18,-43.08 627.84,-28.9 682.65,-19.73"/>
<polygon fill="#63b8ff" stroke="#63b8ff" points="484.08,-49.43 474.8,-54.53 485.24,-56.33 484.08,-49.43"/>
</a>
</g>
</g>
</g>
</svg>
