<?xml version="1.0" encoding="UTF-8" standalone="no"?>
<!DOCTYPE svg PUBLIC "-//W3C//DTD SVG 1.1//EN"
 "http://www.w3.org/Graphics/SVG/1.1/DTD/svg11.dtd">
<!-- Generated by graphviz version 12.2.1 (20241206.2353)
 -->
<!-- Title: Gmsh_Grids/VTK_To_Text_File.cpp Pages: 1 -->
<svg width="846pt" height="94pt"
 viewBox="0.00 0.00 846.00 93.75" xmlns="http://www.w3.org/2000/svg" xmlns:xlink="http://www.w3.org/1999/xlink">
<g id="graph0" class="graph" transform="scale(1 1) rotate(0) translate(4 89.75)">
<title>Gmsh_Grids/VTK_To_Text_File.cpp</title>
<!-- Node1 -->
<g id="Node000001" class="node">
<title>Node1</title>
<g id="a_Node000001"><a xlink:title=" ">
<polygon fill="#999999" stroke="#666666" points="595.5,-85.75 462.5,-85.75 462.5,-55.25 595.5,-55.25 595.5,-85.75"/>
<text text-anchor="start" x="470.5" y="-72.25" font-family="Helvetica,sans-Serif" font-size="10.00">Gmsh_Grids/VTK_To_Text</text>
<text text-anchor="middle" x="529" y="-61" font-family="Helvetica,sans-Serif" font-size="10.00">_File.cpp</text>
</a>
</g>
</g>
<!-- Node2 -->
<g id="Node000002" class="node">
<title>Node2</title>
<g id="a_Node000002"><a xlink:title=" ">
<polygon fill="#e0e0e0" stroke="#999999" points="94,-19.25 0,-19.25 0,0 94,0 94,-19.25"/>
<text text-anchor="middle" x="47" y="-5.75" font-family="Helvetica,sans-Serif" font-size="10.00">vtkSmartPointer.h</text>
</a>
</g>
</g>
<!-- Node1&#45;&gt;Node2 -->
<g id="edge1_Node000001_Node000002" class="edge">
<title>Node1&#45;&gt;Node2</title>
<g id="a_edge1_Node000001_Node000002"><a xlink:title=" ">
<path fill="none" stroke="#63b8ff" d="M462.13,-62.35C380.46,-53.46 237.81,-37.39 105.47,-19.55"/>
<polygon fill="#63b8ff" stroke="#63b8ff" points="106.22,-16.11 95.84,-18.24 105.28,-23.05 106.22,-16.11"/>
</a>
</g>
</g>
<!-- Node3 -->
<g id="Node000003" class="node">
<title>Node3</title>
<g id="a_Node000003"><a xlink:title=" ">
<polygon fill="#e0e0e0" stroke="#999999" points="254.38,-19.25 111.62,-19.25 111.62,0 254.38,0 254.38,-19.25"/>
<text text-anchor="middle" x="183" y="-5.75" font-family="Helvetica,sans-Serif" font-size="10.00">vtkUnstructuredGridReader.h</text>
</a>
</g>
</g>
<!-- Node1&#45;&gt;Node3 -->
<g id="edge2_Node000001_Node000003" class="edge">
<title>Node1&#45;&gt;Node3</title>
<g id="a_edge2_Node000001_Node000003"><a xlink:title=" ">
<path fill="none" stroke="#63b8ff" d="M462.29,-58.15C400.36,-47.61 308.76,-32.02 247.53,-21.61"/>
<polygon fill="#63b8ff" stroke="#63b8ff" points="248.41,-18.2 237.96,-19.98 247.23,-25.11 248.41,-18.2"/>
</a>
</g>
</g>
<!-- Node4 -->
<g id="Node000004" class="node">
<title>Node4</title>
<g id="a_Node000004"><a xlink:title=" ">
<polygon fill="#e0e0e0" stroke="#999999" points="384,-19.25 272,-19.25 272,0 384,0 384,-19.25"/>
<text text-anchor="middle" x="328" y="-5.75" font-family="Helvetica,sans-Serif" font-size="10.00">vtkUnstructuredGrid.h</text>
</a>
</g>
</g>
<!-- Node1&#45;&gt;Node4 -->
<g id="edge3_Node000001_Node000004" class="edge">
<title>Node1&#45;&gt;Node4</title>
<g id="a_edge3_Node000001_Node000004"><a xlink:title=" ">
<path fill="none" stroke="#63b8ff" d="M478.8,-54.8C445.2,-44.95 401.5,-32.15 369.8,-22.87"/>
<polygon fill="#63b8ff" stroke="#63b8ff" points="371.15,-19.62 360.57,-20.17 369.19,-26.34 371.15,-19.62"/>
</a>
</g>
</g>
<!-- Node5 -->
<g id="Node000005" class="node">
<title>Node5</title>
<g id="a_Node000005"><a xlink:title=" ">
<polygon fill="#e0e0e0" stroke="#999999" points="478.38,-19.25 401.62,-19.25 401.62,0 478.38,0 478.38,-19.25"/>
<text text-anchor="middle" x="440" y="-5.75" font-family="Helvetica,sans-Serif" font-size="10.00">vtkCellArray.h</text>
</a>
</g>
</g>
<!-- Node1&#45;&gt;Node5 -->
<g id="edge4_Node000001_Node000005" class="edge">
<title>Node1&#45;&gt;Node5</title>
<g id="a_edge4_Node000001_Node000005"><a xlink:title=" ">
<path fill="none" stroke="#63b8ff" d="M507,-54.95C493.71,-46.15 476.79,-34.96 463.27,-26.02"/>
<polygon fill="#63b8ff" stroke="#63b8ff" points="465.25,-23.13 454.98,-20.54 461.39,-28.97 465.25,-23.13"/>
</a>
</g>
</g>
<!-- Node6 -->
<g id="Node000006" class="node">
<title>Node6</title>
<g id="a_Node000006"><a xlink:title=" ">
<polygon fill="#e0e0e0" stroke="#999999" points="561.75,-19.25 496.25,-19.25 496.25,0 561.75,0 561.75,-19.25"/>
<text text-anchor="middle" x="529" y="-5.75" font-family="Helvetica,sans-Serif" font-size="10.00">vtkPoints.h</text>
</a>
</g>
</g>
<!-- Node1&#45;&gt;Node6 -->
<g id="edge5_Node000001_Node000006" class="edge">
<title>Node1&#45;&gt;Node6</title>
<g id="a_edge5_Node000001_Node000006"><a xlink:title=" ">
<path fill="none" stroke="#63b8ff" d="M529,-54.95C529,-47.71 529,-38.84 529,-30.94"/>
<polygon fill="#63b8ff" stroke="#63b8ff" points="532.5,-31.21 529,-21.21 525.5,-31.21 532.5,-31.21"/>
</a>
</g>
</g>
<!-- Node7 -->
<g id="Node000007" class="node">
<title>Node7</title>
<g id="a_Node000007"><a xlink:title=" ">
<polygon fill="#e0e0e0" stroke="#999999" points="641.88,-19.25 580.12,-19.25 580.12,0 641.88,0 641.88,-19.25"/>
<text text-anchor="middle" x="611" y="-5.75" font-family="Helvetica,sans-Serif" font-size="10.00">vtkIdList.h</text>
</a>
</g>
</g>
<!-- Node1&#45;&gt;Node7 -->
<g id="edge6_Node000001_Node000007" class="edge">
<title>Node1&#45;&gt;Node7</title>
<g id="a_edge6_Node000001_Node000007"><a xlink:title=" ">
<path fill="none" stroke="#63b8ff" d="M549.27,-54.95C561.39,-46.24 576.8,-35.18 589.19,-26.28"/>
<polygon fill="#63b8ff" stroke="#63b8ff" points="591.05,-29.26 597.13,-20.58 586.96,-23.57 591.05,-29.26"/>
</a>
</g>
</g>
<!-- Node8 -->
<g id="Node000008" class="node">
<title>Node8</title>
<g id="a_Node000008"><a xlink:title=" ">
<polygon fill="#e0e0e0" stroke="#999999" points="708.5,-19.25 659.5,-19.25 659.5,0 708.5,0 708.5,-19.25"/>
<text text-anchor="middle" x="684" y="-5.75" font-family="Helvetica,sans-Serif" font-size="10.00">fstream</text>
</a>
</g>
</g>
<!-- Node1&#45;&gt;Node8 -->
<g id="edge7_Node000001_Node000008" class="edge">
<title>Node1&#45;&gt;Node8</title>
<g id="a_edge7_Node000001_Node000008"><a xlink:title=" ">
<path fill="none" stroke="#63b8ff" d="M567.71,-54.8C592.91,-45.23 625.47,-32.86 649.73,-23.64"/>
<polygon fill="#63b8ff" stroke="#63b8ff" points="650.71,-27.01 658.81,-20.19 648.22,-20.47 650.71,-27.01"/>
</a>
</g>
</g>
<!-- Node9 -->
<g id="Node000009" class="node">
<title>Node9</title>
<g id="a_Node000009"><a xlink:title=" ">
<polygon fill="#e0e0e0" stroke="#999999" points="779.75,-19.25 726.25,-19.25 726.25,0 779.75,0 779.75,-19.25"/>
<text text-anchor="middle" x="753" y="-5.75" font-family="Helvetica,sans-Serif" font-size="10.00">iostream</text>
</a>
</g>
</g>
<!-- Node1&#45;&gt;Node9 -->
<g id="edge8_Node000001_Node000009" class="edge">
<title>Node1&#45;&gt;Node9</title>
<g id="a_edge8_Node000001_Node000009"><a xlink:title=" ">
<path fill="none" stroke="#63b8ff" d="M584.95,-54.8C625.52,-44.13 679.32,-29.99 714.99,-20.61"/>
<polygon fill="#63b8ff" stroke="#63b8ff" points="715.65,-24.06 724.44,-18.13 713.87,-17.29 715.65,-24.06"/>
</a>
</g>
</g>
<!-- Node10 -->
<g id="Node000010" class="node">
<title>Node10</title>
<g id="a_Node000010"><a xlink:title=" ">
<polygon fill="#e0e0e0" stroke="#999999" points="838,-19.25 798,-19.25 798,0 838,0 838,-19.25"/>
<text text-anchor="middle" x="818" y="-5.75" font-family="Helvetica,sans-Serif" font-size="10.00">string</text>
</a>
</g>
</g>
<!-- Node1&#45;&gt;Node10 -->
<g id="edge9_Node000001_Node000010" class="edge">
<title>Node1&#45;&gt;Node10</title>
<g id="a_edge9_Node000001_Node000010"><a xlink:title=" ">
<path fill="none" stroke="#63b8ff" d="M595.92,-58.43C646.09,-49.71 716.62,-36.54 786.96,-19.56"/>
<polygon fill="#63b8ff" stroke="#63b8ff" points="787.43,-23.04 796.32,-17.27 785.77,-16.24 787.43,-23.04"/>
</a>
</g>
</g>
</g>
</svg>
