<?xml version="1.0" encoding="UTF-8" standalone="no"?>
<!DOCTYPE svg PUBLIC "-//W3C//DTD SVG 1.1//EN"
 "http://www.w3.org/Graphics/SVG/1.1/DTD/svg11.dtd">
<!-- Generated by graphviz version 12.2.1 (20241206.2353)
 -->
<!-- Title: Basic_Function_Files/headers.hpp Pages: 1 -->
<svg width="2016pt" height="194pt"
 viewBox="0.00 0.00 2015.62 194.00" xmlns="http://www.w3.org/2000/svg" xmlns:xlink="http://www.w3.org/1999/xlink">
<g id="graph0" class="graph" transform="scale(1 1) rotate(0) translate(4 190)">
<title>Basic_Function_Files/headers.hpp</title>
<!-- Node1 -->
<g id="Node000001" class="node">
<title>Node1</title>
<g id="a_Node000001"><a xlink:title=" ">
<polygon fill="#999999" stroke="#666666" points="987.75,-186 878,-186 878,-155.5 987.75,-155.5 987.75,-186"/>
<text text-anchor="start" x="886" y="-172.5" font-family="Helvetica,sans-Serif" font-size="10.00">Basic_Function_Files</text>
<text text-anchor="middle" x="932.88" y="-161.25" font-family="Helvetica,sans-Serif" font-size="10.00">/headers.hpp</text>
</a>
</g>
</g>
<!-- Node2 -->
<g id="Node000002" class="node">
<title>Node2</title>
<g id="a_Node000002"><a xlink:href="../../d4/d81/_a_u_s_m_8cpp.html" target="_top" xlink:title=" ">
<polygon fill="white" stroke="#666666" points="109.75,-119.5 0,-119.5 0,-89 109.75,-89 109.75,-119.5"/>
<text text-anchor="start" x="8" y="-106" font-family="Helvetica,sans-Serif" font-size="10.00">Basic_Function_Files</text>
<text text-anchor="middle" x="54.88" y="-94.75" font-family="Helvetica,sans-Serif" font-size="10.00">/AUSM.cpp</text>
</a>
</g>
</g>
<!-- Node1&#45;&gt;Node2 -->
<g id="edge1_Node000001_Node000002" class="edge">
<title>Node1&#45;&gt;Node2</title>
<g id="a_edge1_Node000001_Node000002"><a xlink:title=" ">
<path fill="none" stroke="#63b8ff" d="M866.51,-169.18C727.26,-167.22 394.67,-158.47 118.88,-119.5 115.94,-119.09 112.95,-118.61 109.93,-118.09"/>
<polygon fill="#63b8ff" stroke="#63b8ff" points="866.23,-172.68 876.28,-169.31 866.32,-165.68 866.23,-172.68"/>
</a>
</g>
</g>
<!-- Node3 -->
<g id="Node000003" class="node">
<title>Node3</title>
<g id="a_Node000003"><a xlink:href="../../d7/d23/_c_u_s_p_8cpp.html" target="_top" xlink:title=" ">
<polygon fill="white" stroke="#666666" points="237.75,-119.5 128,-119.5 128,-89 237.75,-89 237.75,-119.5"/>
<text text-anchor="start" x="136" y="-106" font-family="Helvetica,sans-Serif" font-size="10.00">Basic_Function_Files</text>
<text text-anchor="middle" x="182.88" y="-94.75" font-family="Helvetica,sans-Serif" font-size="10.00">/CUSP.cpp</text>
</a>
</g>
</g>
<!-- Node1&#45;&gt;Node3 -->
<g id="edge2_Node000001_Node000003" class="edge">
<title>Node1&#45;&gt;Node3</title>
<g id="a_edge2_Node000001_Node000003"><a xlink:title=" ">
<path fill="none" stroke="#63b8ff" d="M866.47,-168.1C743.58,-164.34 472.63,-152.72 246.88,-119.5 243.95,-119.07 240.95,-118.58 237.94,-118.05"/>
<polygon fill="#63b8ff" stroke="#63b8ff" points="866.28,-171.6 876.38,-168.4 866.49,-164.6 866.28,-171.6"/>
</a>
</g>
</g>
<!-- Node4 -->
<g id="Node000004" class="node">
<title>Node4</title>
<g id="a_Node000004"><a xlink:href="../../d2/d1b/_cell___viscous__functions_8cpp.html" target="_top" xlink:title="Contains the implementation of viscous stress calculations on a face.">
<polygon fill="white" stroke="#666666" points="396.12,-119.5 255.62,-119.5 255.62,-89 396.12,-89 396.12,-119.5"/>
<text text-anchor="start" x="263.62" y="-106" font-family="Helvetica,sans-Serif" font-size="10.00">Basic_Function_Files</text>
<text text-anchor="middle" x="325.88" y="-94.75" font-family="Helvetica,sans-Serif" font-size="10.00">/Cell_Viscous_functions.cpp</text>
</a>
</g>
</g>
<!-- Node1&#45;&gt;Node4 -->
<g id="edge3_Node000001_Node000004" class="edge">
<title>Node1&#45;&gt;Node4</title>
<g id="a_edge3_Node000001_Node000004"><a xlink:title=" ">
<path fill="none" stroke="#63b8ff" d="M866.12,-165.19C765.74,-157.94 570.06,-142.22 404.88,-119.5 402.11,-119.12 399.3,-118.71 396.46,-118.28"/>
<polygon fill="#63b8ff" stroke="#63b8ff" points="865.86,-168.68 876.08,-165.91 866.36,-161.7 865.86,-168.68"/>
</a>
</g>
</g>
<!-- Node5 -->
<g id="Node000005" class="node">
<title>Node5</title>
<g id="a_Node000005"><a xlink:href="../../d5/d8b/_edge_8cpp.html" target="_top" xlink:title=" ">
<polygon fill="white" stroke="#666666" points="523.75,-119.5 414,-119.5 414,-89 523.75,-89 523.75,-119.5"/>
<text text-anchor="start" x="422" y="-106" font-family="Helvetica,sans-Serif" font-size="10.00">Basic_Function_Files</text>
<text text-anchor="middle" x="468.88" y="-94.75" font-family="Helvetica,sans-Serif" font-size="10.00">/Edge.cpp</text>
</a>
</g>
</g>
<!-- Node1&#45;&gt;Node5 -->
<g id="edge4_Node000001_Node000005" class="edge">
<title>Node1&#45;&gt;Node5</title>
<g id="a_edge4_Node000001_Node000005"><a xlink:title=" ">
<path fill="none" stroke="#63b8ff" d="M866.31,-163.33C786.7,-155.19 649.54,-139.77 532.88,-119.5 529.96,-118.99 526.98,-118.44 523.97,-117.86"/>
<polygon fill="#63b8ff" stroke="#63b8ff" points="865.83,-166.79 876.13,-164.32 866.53,-159.83 865.83,-166.79"/>
</a>
</g>
</g>
<!-- Node6 -->
<g id="Node000006" class="node">
<title>Node6</title>
<g id="a_Node000006"><a xlink:href="../../d9/d60/_face_8cpp.html" target="_top" xlink:title=" ">
<polygon fill="white" stroke="#666666" points="651.75,-119.5 542,-119.5 542,-89 651.75,-89 651.75,-119.5"/>
<text text-anchor="start" x="550" y="-106" font-family="Helvetica,sans-Serif" font-size="10.00">Basic_Function_Files</text>
<text text-anchor="middle" x="596.88" y="-94.75" font-family="Helvetica,sans-Serif" font-size="10.00">/Face.cpp</text>
</a>
</g>
</g>
<!-- Node1&#45;&gt;Node6 -->
<g id="edge5_Node000001_Node000006" class="edge">
<title>Node1&#45;&gt;Node6</title>
<g id="a_edge5_Node000001_Node000006"><a xlink:title=" ">
<path fill="none" stroke="#63b8ff" d="M866.51,-158.19C811.36,-148.41 730.87,-133.75 660.88,-119.5 657.97,-118.91 655,-118.29 652.01,-117.66"/>
<polygon fill="#63b8ff" stroke="#63b8ff" points="865.59,-161.58 876.05,-159.87 866.81,-154.68 865.59,-161.58"/>
</a>
</g>
</g>
<!-- Node7 -->
<g id="Node000007" class="node">
<title>Node7</title>
<g id="a_Node000007"><a xlink:href="../../dc/d56/_face___functions_8cpp.html" target="_top" xlink:title=" ">
<polygon fill="white" stroke="#666666" points="779.75,-119.5 670,-119.5 670,-89 779.75,-89 779.75,-119.5"/>
<text text-anchor="start" x="678" y="-106" font-family="Helvetica,sans-Serif" font-size="10.00">Basic_Function_Files</text>
<text text-anchor="middle" x="724.88" y="-94.75" font-family="Helvetica,sans-Serif" font-size="10.00">/Face_Functions.cpp</text>
</a>
</g>
</g>
<!-- Node1&#45;&gt;Node7 -->
<g id="edge6_Node000001_Node000007" class="edge">
<title>Node1&#45;&gt;Node7</title>
<g id="a_edge6_Node000001_Node000007"><a xlink:title=" ">
<path fill="none" stroke="#63b8ff" d="M874.74,-151.72C842.37,-141.68 802.57,-129.34 772.13,-119.9"/>
<polygon fill="#63b8ff" stroke="#63b8ff" points="873.38,-154.97 883.97,-154.58 875.46,-148.28 873.38,-154.97"/>
</a>
</g>
</g>
<!-- Node8 -->
<g id="Node000008" class="node">
<title>Node8</title>
<g id="a_Node000008"><a xlink:href="../../da/d22/_face___functions___ver2_8cpp.html" target="_top" xlink:title=" ">
<polygon fill="white" stroke="#666666" points="930.38,-119.5 797.38,-119.5 797.38,-89 930.38,-89 930.38,-119.5"/>
<text text-anchor="start" x="805.38" y="-106" font-family="Helvetica,sans-Serif" font-size="10.00">Basic_Function_Files</text>
<text text-anchor="middle" x="863.88" y="-94.75" font-family="Helvetica,sans-Serif" font-size="10.00">/Face_Functions_Ver2.cpp</text>
</a>
</g>
</g>
<!-- Node1&#45;&gt;Node8 -->
<g id="edge7_Node000001_Node000008" class="edge">
<title>Node1&#45;&gt;Node8</title>
<g id="a_edge7_Node000001_Node000008"><a xlink:title=" ">
<path fill="none" stroke="#63b8ff" d="M909.03,-147.46C899.25,-138.32 888.19,-127.98 879.47,-119.83"/>
<polygon fill="#63b8ff" stroke="#63b8ff" points="906.42,-149.81 916.11,-154.08 911.2,-144.69 906.42,-149.81"/>
</a>
</g>
</g>
<!-- Node9 -->
<g id="Node000009" class="node">
<title>Node9</title>
<g id="a_Node000009"><a xlink:href="../../d1/dc2/_field___vectors_8cpp.html" target="_top" xlink:title=" ">
<polygon fill="white" stroke="#666666" points="1057.75,-119.5 948,-119.5 948,-89 1057.75,-89 1057.75,-119.5"/>
<text text-anchor="start" x="956" y="-106" font-family="Helvetica,sans-Serif" font-size="10.00">Basic_Function_Files</text>
<text text-anchor="middle" x="1002.88" y="-94.75" font-family="Helvetica,sans-Serif" font-size="10.00">/Field_Vectors.cpp</text>
</a>
</g>
</g>
<!-- Node1&#45;&gt;Node9 -->
<g id="edge8_Node000001_Node000009" class="edge">
<title>Node1&#45;&gt;Node9</title>
<g id="a_edge8_Node000001_Node000009"><a xlink:title=" ">
<path fill="none" stroke="#63b8ff" d="M957.06,-147.46C966.99,-138.32 978.2,-127.98 987.05,-119.83"/>
<polygon fill="#63b8ff" stroke="#63b8ff" points="954.85,-144.74 949.87,-154.09 959.6,-149.89 954.85,-144.74"/>
</a>
</g>
</g>
<!-- Node10 -->
<g id="Node000010" class="node">
<title>Node10</title>
<g id="a_Node000010"><a xlink:href="../../da/d2e/_geometry___header_8h.html" target="_top" xlink:title=" ">
<polygon fill="white" stroke="#666666" points="1185.75,-119.5 1076,-119.5 1076,-89 1185.75,-89 1185.75,-119.5"/>
<text text-anchor="start" x="1084" y="-106" font-family="Helvetica,sans-Serif" font-size="10.00">Basic_Function_Files</text>
<text text-anchor="middle" x="1130.88" y="-94.75" font-family="Helvetica,sans-Serif" font-size="10.00">/Geometry_Header.h</text>
</a>
</g>
</g>
<!-- Node1&#45;&gt;Node10 -->
<g id="edge9_Node000001_Node000010" class="edge">
<title>Node1&#45;&gt;Node10</title>
<g id="a_edge9_Node000001_Node000010"><a xlink:title=" ">
<path fill="none" stroke="#63b8ff" d="M988.36,-151.67C1019.12,-141.66 1056.86,-129.36 1085.78,-119.94"/>
<polygon fill="#63b8ff" stroke="#63b8ff" points="987.67,-148.22 979.24,-154.65 989.84,-154.88 987.67,-148.22"/>
</a>
</g>
</g>
<!-- Node23 -->
<g id="Node000023" class="node">
<title>Node23</title>
<g id="a_Node000023"><a xlink:href="../../db/df6/_global___functions_8cpp.html" target="_top" xlink:title=" ">
<polygon fill="white" stroke="#666666" points="1317.62,-119.5 1204.12,-119.5 1204.12,-89 1317.62,-89 1317.62,-119.5"/>
<text text-anchor="start" x="1212.12" y="-106" font-family="Helvetica,sans-Serif" font-size="10.00">Basic_Function_Files</text>
<text text-anchor="middle" x="1260.88" y="-94.75" font-family="Helvetica,sans-Serif" font-size="10.00">/Global_Functions.cpp</text>
</a>
</g>
</g>
<!-- Node1&#45;&gt;Node23 -->
<g id="edge22_Node000001_Node000023" class="edge">
<title>Node1&#45;&gt;Node23</title>
<g id="a_edge22_Node000001_Node000023"><a xlink:title=" ">
<path fill="none" stroke="#63b8ff" d="M999.43,-157.42C1052.44,-147.5 1128.5,-133.03 1194.88,-119.5 1197.75,-118.91 1200.69,-118.31 1203.65,-117.69"/>
<polygon fill="#63b8ff" stroke="#63b8ff" points="998.83,-153.98 989.64,-159.25 1000.11,-160.86 998.83,-153.98"/>
</a>
</g>
</g>
<!-- Node24 -->
<g id="Node000024" class="node">
<title>Node24</title>
<g id="a_Node000024"><a xlink:href="../../dd/dbc/_numerical___schemes_8cpp.html" target="_top" xlink:title=" ">
<polygon fill="white" stroke="#666666" points="1464.12,-119.5 1335.62,-119.5 1335.62,-89 1464.12,-89 1464.12,-119.5"/>
<text text-anchor="start" x="1343.62" y="-106" font-family="Helvetica,sans-Serif" font-size="10.00">Basic_Function_Files</text>
<text text-anchor="middle" x="1399.88" y="-94.75" font-family="Helvetica,sans-Serif" font-size="10.00">/Numerical_Schemes.cpp</text>
</a>
</g>
</g>
<!-- Node1&#45;&gt;Node24 -->
<g id="edge23_Node000001_Node000024" class="edge">
<title>Node1&#45;&gt;Node24</title>
<g id="a_edge23_Node000001_Node000024"><a xlink:title=" ">
<path fill="none" stroke="#63b8ff" d="M999.34,-162.63C1077.82,-153.9 1212.19,-137.99 1326.88,-119.5 1329.68,-119.05 1332.54,-118.57 1335.43,-118.07"/>
<polygon fill="#63b8ff" stroke="#63b8ff" points="999.24,-159.12 989.68,-163.69 1000.01,-166.07 999.24,-159.12"/>
</a>
</g>
</g>
<!-- Node25 -->
<g id="Node000025" class="node">
<title>Node25</title>
<g id="a_Node000025"><a xlink:href="../../d7/dd8/_point_8cpp.html" target="_top" xlink:title=" ">
<polygon fill="white" stroke="#666666" points="1591.75,-119.5 1482,-119.5 1482,-89 1591.75,-89 1591.75,-119.5"/>
<text text-anchor="start" x="1490" y="-106" font-family="Helvetica,sans-Serif" font-size="10.00">Basic_Function_Files</text>
<text text-anchor="middle" x="1536.88" y="-94.75" font-family="Helvetica,sans-Serif" font-size="10.00">/Point.cpp</text>
</a>
</g>
</g>
<!-- Node1&#45;&gt;Node25 -->
<g id="edge24_Node000001_Node000025" class="edge">
<title>Node1&#45;&gt;Node25</title>
<g id="a_edge24_Node000001_Node000025"><a xlink:title=" ">
<path fill="none" stroke="#63b8ff" d="M999.34,-166.27C1101.57,-160.32 1303.38,-146.15 1472.88,-119.5 1475.8,-119.04 1478.79,-118.53 1481.8,-117.98"/>
<polygon fill="#63b8ff" stroke="#63b8ff" points="999.26,-162.77 989.48,-166.84 999.66,-169.76 999.26,-162.77"/>
</a>
</g>
</g>
<!-- Node26 -->
<g id="Node000026" class="node">
<title>Node26</title>
<g id="a_Node000026"><a xlink:href="../../df/d16/_shape___generate_8cpp.html" target="_top" xlink:title=" ">
<polygon fill="white" stroke="#666666" points="1720.12,-119.5 1609.62,-119.5 1609.62,-89 1720.12,-89 1720.12,-119.5"/>
<text text-anchor="start" x="1617.62" y="-106" font-family="Helvetica,sans-Serif" font-size="10.00">Basic_Function_Files</text>
<text text-anchor="middle" x="1664.88" y="-94.75" font-family="Helvetica,sans-Serif" font-size="10.00">/Shape_Generate.cpp</text>
</a>
</g>
</g>
<!-- Node1&#45;&gt;Node26 -->
<g id="edge25_Node000001_Node000026" class="edge">
<title>Node1&#45;&gt;Node26</title>
<g id="a_edge25_Node000001_Node000026"><a xlink:title=" ">
<path fill="none" stroke="#63b8ff" d="M999.37,-167.92C1119.88,-163.89 1382.16,-151.9 1600.88,-119.5 1603.69,-119.08 1606.57,-118.61 1609.46,-118.1"/>
<polygon fill="#63b8ff" stroke="#63b8ff" points="999.55,-164.41 989.67,-168.23 999.78,-171.41 999.55,-164.41"/>
</a>
</g>
</g>
<!-- Node27 -->
<g id="Node000027" class="node">
<title>Node27</title>
<g id="a_Node000027"><a xlink:href="../../df/d6b/_vanleer___scheme_8cpp.html" target="_top" xlink:title=" ">
<polygon fill="white" stroke="#666666" points="1849.5,-119.5 1738.25,-119.5 1738.25,-89 1849.5,-89 1849.5,-119.5"/>
<text text-anchor="start" x="1746.25" y="-106" font-family="Helvetica,sans-Serif" font-size="10.00">Basic_Function_Files</text>
<text text-anchor="middle" x="1793.88" y="-94.75" font-family="Helvetica,sans-Serif" font-size="10.00">/Vanleer_Scheme.cpp</text>
</a>
</g>
</g>
<!-- Node1&#45;&gt;Node27 -->
<g id="edge26_Node000001_Node000027" class="edge">
<title>Node1&#45;&gt;Node27</title>
<g id="a_edge26_Node000001_Node000027"><a xlink:title=" ">
<path fill="none" stroke="#63b8ff" d="M999.28,-168.98C1136.32,-166.64 1460.12,-157.22 1728.88,-119.5 1731.85,-119.08 1734.89,-118.6 1737.95,-118.08"/>
<polygon fill="#63b8ff" stroke="#63b8ff" points="999.63,-165.47 989.69,-169.14 999.74,-172.47 999.63,-165.47"/>
</a>
</g>
</g>
<!-- Node11 -->
<g id="Node000011" class="node">
<title>Node11</title>
<g id="a_Node000011"><a xlink:href="../../d6/da1/_half___cylinder_8cpp.html" target="_top" xlink:title=" ">
<polygon fill="white" stroke="#666666" points="466,-41.75 327.75,-41.75 327.75,-11.25 466,-11.25 466,-41.75"/>
<text text-anchor="start" x="335.75" y="-28.25" font-family="Helvetica,sans-Serif" font-size="10.00">2D_Half_Cylinder_Generate</text>
<text text-anchor="middle" x="396.88" y="-17" font-family="Helvetica,sans-Serif" font-size="10.00">/Half_Cylinder.cpp</text>
</a>
</g>
</g>
<!-- Node10&#45;&gt;Node11 -->
<g id="edge10_Node000010_Node000011" class="edge">
<title>Node10&#45;&gt;Node11</title>
<g id="a_edge10_Node000010_Node000011"><a xlink:title=" ">
<path fill="none" stroke="#63b8ff" d="M1064.47,-88.84C803.78,-53.64 730.14,-101.66 474.88,-53 461.72,-50.49 447.71,-46.39 435.24,-42.2"/>
<polygon fill="#63b8ff" stroke="#63b8ff" points="1063.93,-92.3 1074.32,-90.2 1064.89,-85.37 1063.93,-92.3"/>
</a>
</g>
</g>
<!-- Node12 -->
<g id="Node000012" class="node">
<title>Node12</title>
<g id="a_Node000012"><a xlink:href="../../d4/d94/_circle_8cpp.html" target="_top" xlink:title=" ">
<polygon fill="white" stroke="#666666" points="593.75,-41.75 484,-41.75 484,-11.25 593.75,-11.25 593.75,-41.75"/>
<text text-anchor="start" x="492" y="-28.25" font-family="Helvetica,sans-Serif" font-size="10.00">Basic_Function_Files</text>
<text text-anchor="middle" x="538.88" y="-17" font-family="Helvetica,sans-Serif" font-size="10.00">/Circle.cpp</text>
</a>
</g>
</g>
<!-- Node10&#45;&gt;Node12 -->
<g id="edge11_Node000010_Node000012" class="edge">
<title>Node10&#45;&gt;Node12</title>
<g id="a_edge11_Node000010_Node000012"><a xlink:title=" ">
<path fill="none" stroke="#63b8ff" d="M1064.69,-88.85C860.22,-59.87 800.81,-98.99 602.88,-53 591.92,-50.46 580.39,-46.34 570.17,-42.15"/>
<polygon fill="#63b8ff" stroke="#63b8ff" points="1063.91,-92.27 1074.31,-90.25 1064.92,-85.34 1063.91,-92.27"/>
</a>
</g>
</g>
<!-- Node13 -->
<g id="Node000013" class="node">
<title>Node13</title>
<g id="a_Node000013"><a xlink:href="../../db/d4d/_cylinder_8cpp.html" target="_top" xlink:title=" ">
<polygon fill="white" stroke="#666666" points="721.75,-41.75 612,-41.75 612,-11.25 721.75,-11.25 721.75,-41.75"/>
<text text-anchor="start" x="620" y="-28.25" font-family="Helvetica,sans-Serif" font-size="10.00">Basic_Function_Files</text>
<text text-anchor="middle" x="666.88" y="-17" font-family="Helvetica,sans-Serif" font-size="10.00">/Cylinder.cpp</text>
</a>
</g>
</g>
<!-- Node10&#45;&gt;Node13 -->
<g id="edge12_Node000010_Node000013" class="edge">
<title>Node10&#45;&gt;Node13</title>
<g id="a_edge12_Node000010_Node000013"><a xlink:title=" ">
<path fill="none" stroke="#63b8ff" d="M1064.49,-88.76C916.56,-65.8 873.09,-88.25 730.88,-53 720.19,-50.35 708.92,-46.32 698.87,-42.23"/>
<polygon fill="#63b8ff" stroke="#63b8ff" points="1063.87,-92.21 1074.3,-90.33 1064.98,-85.3 1063.87,-92.21"/>
</a>
</g>
</g>
<!-- Node14 -->
<g id="Node000014" class="node">
<title>Node14</title>
<g id="a_Node000014"><a xlink:href="../../de/d5c/_grid___gen___functions_8cpp.html" target="_top" xlink:title=" ">
<polygon fill="white" stroke="#666666" points="866.38,-41.75 739.38,-41.75 739.38,-11.25 866.38,-11.25 866.38,-41.75"/>
<text text-anchor="start" x="747.38" y="-28.25" font-family="Helvetica,sans-Serif" font-size="10.00">Basic_Function_Files</text>
<text text-anchor="middle" x="802.88" y="-17" font-family="Helvetica,sans-Serif" font-size="10.00">/Grid_Gen_Functions.cpp</text>
</a>
</g>
</g>
<!-- Node10&#45;&gt;Node14 -->
<g id="edge13_Node000010_Node000014" class="edge">
<title>Node10&#45;&gt;Node14</title>
<g id="a_edge13_Node000010_Node000014"><a xlink:title=" ">
<path fill="none" stroke="#63b8ff" d="M1064.53,-88.59C979.83,-71.85 955.27,-74.63 874.88,-53 863.73,-50 851.85,-46.1 841.01,-42.25"/>
<polygon fill="#63b8ff" stroke="#63b8ff" points="1063.76,-92.01 1074.26,-90.55 1065.15,-85.14 1063.76,-92.01"/>
</a>
</g>
</g>
<!-- Node15 -->
<g id="Node000015" class="node">
<title>Node15</title>
<g id="a_Node000015"><a xlink:href="../../d0/d8a/_line_8cpp.html" target="_top" xlink:title=" ">
<polygon fill="white" stroke="#666666" points="993.75,-41.75 884,-41.75 884,-11.25 993.75,-11.25 993.75,-41.75"/>
<text text-anchor="start" x="892" y="-28.25" font-family="Helvetica,sans-Serif" font-size="10.00">Basic_Function_Files</text>
<text text-anchor="middle" x="938.88" y="-17" font-family="Helvetica,sans-Serif" font-size="10.00">/Line.cpp</text>
</a>
</g>
</g>
<!-- Node10&#45;&gt;Node15 -->
<g id="edge14_Node000010_Node000015" class="edge">
<title>Node10&#45;&gt;Node15</title>
<g id="a_edge14_Node000010_Node000015"><a xlink:title=" ">
<path fill="none" stroke="#63b8ff" d="M1082.72,-84.41C1058.71,-75 1029.25,-63.43 1002.88,-53 994.09,-49.52 984.63,-45.77 975.75,-42.23"/>
<polygon fill="#63b8ff" stroke="#63b8ff" points="1081.33,-87.63 1091.92,-88.02 1083.89,-81.11 1081.33,-87.63"/>
</a>
</g>
</g>
<!-- Node16 -->
<g id="Node000016" class="node">
<title>Node16</title>
<g id="a_Node000016"><a xlink:href="../../d7/d19/_test___line_8cpp.html" target="_top" xlink:title=" ">
<polygon fill="white" stroke="#666666" points="1121.75,-41.75 1012,-41.75 1012,-11.25 1121.75,-11.25 1121.75,-41.75"/>
<text text-anchor="start" x="1020" y="-28.25" font-family="Helvetica,sans-Serif" font-size="10.00">Basic_Function_Files</text>
<text text-anchor="middle" x="1066.88" y="-17" font-family="Helvetica,sans-Serif" font-size="10.00">/Test_Line.cpp</text>
</a>
</g>
</g>
<!-- Node10&#45;&gt;Node16 -->
<g id="edge15_Node000010_Node000016" class="edge">
<title>Node10&#45;&gt;Node16</title>
<g id="a_edge15_Node000010_Node000016"><a xlink:title=" ">
<path fill="none" stroke="#63b8ff" d="M1111.36,-80.15C1100.88,-67.75 1088.29,-52.84 1079.18,-42.06"/>
<polygon fill="#63b8ff" stroke="#63b8ff" points="1108.43,-82.11 1117.56,-87.49 1113.78,-77.59 1108.43,-82.11"/>
</a>
</g>
</g>
<!-- Node17 -->
<g id="Node000017" class="node">
<title>Node17</title>
<g id="a_Node000017"><a xlink:href="../../d8/da4/_basic___function___files_2_utility___files_8cpp.html" target="_top" xlink:title=" ">
<polygon fill="white" stroke="#666666" points="1249.75,-41.75 1140,-41.75 1140,-11.25 1249.75,-11.25 1249.75,-41.75"/>
<text text-anchor="start" x="1148" y="-28.25" font-family="Helvetica,sans-Serif" font-size="10.00">Basic_Function_Files</text>
<text text-anchor="middle" x="1194.88" y="-17" font-family="Helvetica,sans-Serif" font-size="10.00">/Utility_Files.cpp</text>
</a>
</g>
</g>
<!-- Node10&#45;&gt;Node17 -->
<g id="edge16_Node000010_Node000017" class="edge">
<title>Node10&#45;&gt;Node17</title>
<g id="a_edge16_Node000010_Node000017"><a xlink:title=" ">
<path fill="none" stroke="#63b8ff" d="M1150.39,-80.15C1160.87,-67.75 1173.46,-52.84 1182.57,-42.06"/>
<polygon fill="#63b8ff" stroke="#63b8ff" points="1147.97,-77.59 1144.19,-87.49 1153.32,-82.11 1147.97,-77.59"/>
</a>
</g>
</g>
<!-- Node18 -->
<g id="Node000018" class="node">
<title>Node18</title>
<g id="a_Node000018"><a xlink:href="../../da/d84/gridgen___elliptic___t_f_i_8cpp.html" target="_top" xlink:title=" ">
<polygon fill="white" stroke="#666666" points="1391.88,-41.75 1267.88,-41.75 1267.88,-11.25 1391.88,-11.25 1391.88,-41.75"/>
<text text-anchor="start" x="1275.88" y="-28.25" font-family="Helvetica,sans-Serif" font-size="10.00">Basic_Function_Files</text>
<text text-anchor="middle" x="1329.88" y="-17" font-family="Helvetica,sans-Serif" font-size="10.00">/gridgen_Elliptic_TFI.cpp</text>
</a>
</g>
</g>
<!-- Node10&#45;&gt;Node18 -->
<g id="edge17_Node000010_Node000018" class="edge">
<title>Node10&#45;&gt;Node18</title>
<g id="a_edge17_Node000010_Node000018"><a xlink:title=" ">
<path fill="none" stroke="#63b8ff" d="M1179.98,-84.56C1214.31,-71.49 1259.53,-54.28 1291.28,-42.19"/>
<polygon fill="#63b8ff" stroke="#63b8ff" points="1178.76,-81.28 1170.66,-88.11 1181.25,-87.82 1178.76,-81.28"/>
</a>
</g>
</g>
<!-- Node19 -->
<g id="Node000019" class="node">
<title>Node19</title>
<g id="a_Node000019"><a xlink:href="../../df/db8/_flow___over___cylinder_01_07_r_a_m_e_s_h_01_k_o_l_l_u_r_u_0js_01conflicted_01copy_012024-02-29_011_08_8cpp.html" target="_top" xlink:title=" ">
<polygon fill="white" stroke="#666666" points="1578,-53 1409.75,-53 1409.75,0 1578,0 1578,-53"/>
<text text-anchor="start" x="1417.75" y="-39.5" font-family="Helvetica,sans-Serif" font-size="10.00">Flow_Over_Cylinder</text>
<text text-anchor="start" x="1417.75" y="-28.25" font-family="Helvetica,sans-Serif" font-size="10.00">/Flow_Over_Cylinder</text>
<text text-anchor="start" x="1417.75" y="-17" font-family="Helvetica,sans-Serif" font-size="10.00"> (RAMESH KOLLURU&#39;s conflicted</text>
<text text-anchor="middle" x="1493.88" y="-5.75" font-family="Helvetica,sans-Serif" font-size="10.00"> copy 2024&#45;02&#45;29 1).cpp</text>
</a>
</g>
</g>
<!-- Node10&#45;&gt;Node19 -->
<g id="edge18_Node000010_Node000019" class="edge">
<title>Node10&#45;&gt;Node19</title>
<g id="a_edge18_Node000010_Node000019"><a xlink:title=" ">
<path fill="none" stroke="#63b8ff" d="M1197.11,-88.63C1287.97,-71.05 1313.63,-72.54 1400.88,-53 1403.65,-52.38 1406.47,-51.73 1409.31,-51.05"/>
<polygon fill="#63b8ff" stroke="#63b8ff" points="1196.62,-85.15 1187.48,-90.52 1197.97,-92.02 1196.62,-85.15"/>
</a>
</g>
</g>
<!-- Node20 -->
<g id="Node000020" class="node">
<title>Node20</title>
<g id="a_Node000020"><a xlink:href="../../d4/d9e/_flow___over___cylinder_8cpp.html" target="_top" xlink:title=" ">
<polygon fill="white" stroke="#666666" points="1721.62,-41.75 1596.12,-41.75 1596.12,-11.25 1721.62,-11.25 1721.62,-41.75"/>
<text text-anchor="start" x="1604.12" y="-28.25" font-family="Helvetica,sans-Serif" font-size="10.00">Flow_Over_Cylinder</text>
<text text-anchor="middle" x="1658.88" y="-17" font-family="Helvetica,sans-Serif" font-size="10.00">/Flow_Over_Cylinder.cpp</text>
</a>
</g>
</g>
<!-- Node10&#45;&gt;Node20 -->
<g id="edge19_Node000010_Node000020" class="edge">
<title>Node10&#45;&gt;Node20</title>
<g id="a_edge19_Node000010_Node000020"><a xlink:title=" ">
<path fill="none" stroke="#63b8ff" d="M1197.22,-88.79C1369.8,-63.1 1419.57,-89.71 1586.88,-53 1598.92,-50.36 1611.72,-46.27 1623.13,-42.13"/>
<polygon fill="#63b8ff" stroke="#63b8ff" points="1196.8,-85.32 1187.44,-90.29 1197.86,-92.24 1196.8,-85.32"/>
</a>
</g>
</g>
<!-- Node21 -->
<g id="Node000021" class="node">
<title>Node21</title>
<g id="a_Node000021"><a xlink:href="../../d2/daf/_flow___over___cylinder__1_8cpp.html" target="_top" xlink:title=" ">
<polygon fill="white" stroke="#666666" points="1876.25,-41.75 1739.5,-41.75 1739.5,-11.25 1876.25,-11.25 1876.25,-41.75"/>
<text text-anchor="start" x="1747.5" y="-28.25" font-family="Helvetica,sans-Serif" font-size="10.00">Flow_Over_Cylinder</text>
<text text-anchor="middle" x="1807.88" y="-17" font-family="Helvetica,sans-Serif" font-size="10.00">/Flow_Over_Cylinder_1.cpp</text>
</a>
</g>
</g>
<!-- Node10&#45;&gt;Node21 -->
<g id="edge20_Node000010_Node000021" class="edge">
<title>Node10&#45;&gt;Node21</title>
<g id="a_edge20_Node000010_Node000021"><a xlink:title=" ">
<path fill="none" stroke="#63b8ff" d="M1197.3,-88.83C1433.28,-56.31 1500.23,-98.18 1730.88,-53 1743.87,-50.46 1757.7,-46.34 1770,-42.15"/>
<polygon fill="#63b8ff" stroke="#63b8ff" points="1196.85,-85.36 1187.43,-90.22 1197.82,-92.29 1196.85,-85.36"/>
</a>
</g>
</g>
<!-- Node22 -->
<g id="Node000022" class="node">
<title>Node22</title>
<g id="a_Node000022"><a xlink:href="../../de/daf/_utility___files___scram___jet_8cpp.html" target="_top" xlink:title=" ">
<polygon fill="white" stroke="#666666" points="2007.62,-41.75 1894.12,-41.75 1894.12,-11.25 2007.62,-11.25 2007.62,-41.75"/>
<text text-anchor="start" x="1902.12" y="-28.25" font-family="Helvetica,sans-Serif" font-size="10.00">Test_Cases/Utility</text>
<text text-anchor="middle" x="1950.88" y="-17" font-family="Helvetica,sans-Serif" font-size="10.00">_Files_Scram_Jet.cpp</text>
</a>
</g>
</g>
<!-- Node10&#45;&gt;Node22 -->
<g id="edge21_Node000010_Node000022" class="edge">
<title>Node10&#45;&gt;Node22</title>
<g id="a_edge21_Node000010_Node000022"><a xlink:title=" ">
<path fill="none" stroke="#63b8ff" d="M1197.3,-88.86C1501.26,-49.17 1588.23,-116.36 1884.88,-53 1896.29,-50.56 1908.32,-46.42 1918.94,-42.18"/>
<polygon fill="#63b8ff" stroke="#63b8ff" points="1196.88,-85.38 1187.43,-90.18 1197.8,-92.32 1196.88,-85.38"/>
</a>
</g>
</g>
</g>
</svg>
