<?xml version="1.0" encoding="UTF-8" standalone="no"?>
<!DOCTYPE svg PUBLIC "-//W3C//DTD SVG 1.1//EN"
 "http://www.w3.org/Graphics/SVG/1.1/DTD/svg11.dtd">
<!-- Generated by graphviz version 12.2.1 (20241206.2353)
 -->
<!-- Title: Calculate_KOmega_Omega_Diffusion Pages: 1 -->
<svg width="787pt" height="88pt"
 viewBox="0.00 0.00 787.00 87.50" xmlns="http://www.w3.org/2000/svg" xmlns:xlink="http://www.w3.org/1999/xlink">
<g id="graph0" class="graph" transform="scale(1 1) rotate(0) translate(4 83.5)">
<title>Calculate_KOmega_Omega_Diffusion</title>
<!-- Node1 -->
<g id="Node000001" class="node">
<title>Node1</title>
<g id="a_Node000001"><a xlink:title="Calculate diffusion term for omega&#45;equation in K&#45;omega model.">
<polygon fill="#999999" stroke="#666666" points="779,-54.5 641.5,-54.5 641.5,-24 779,-24 779,-54.5"/>
<text text-anchor="start" x="649.5" y="-41" font-family="Helvetica,sans-Serif" font-size="10.00">Calculate_KOmega_Omega</text>
<text text-anchor="middle" x="710.25" y="-29.75" font-family="Helvetica,sans-Serif" font-size="10.00">_Diffusion</text>
</a>
</g>
</g>
<!-- Node2 -->
<g id="Node000002" class="node">
<title>Node2</title>
<g id="a_Node000002"><a xlink:href="../../d4/df3/_turbulence___integration_8cpp_aa80303a9b8e99702a12486f321f7021d.html#aa80303a9b8e99702a12486f321f7021d" target="_top" xlink:title="Calculate turbulence residual for a specific cell.">
<polygon fill="white" stroke="#666666" points="595.38,-79.5 484.88,-79.5 484.88,-49 595.38,-49 595.38,-79.5"/>
<text text-anchor="start" x="492.88" y="-66" font-family="Helvetica,sans-Serif" font-size="10.00">Calculate_Turbulence</text>
<text text-anchor="middle" x="540.12" y="-54.75" font-family="Helvetica,sans-Serif" font-size="10.00">_Cell_Residual</text>
</a>
</g>
</g>
<!-- Node1&#45;&gt;Node2 -->
<g id="edge1_Node000001_Node000002" class="edge">
<title>Node1&#45;&gt;Node2</title>
<g id="a_edge1_Node000001_Node000002"><a xlink:title=" ">
<path fill="none" stroke="#63b8ff" d="M630.26,-51C618.62,-52.73 606.85,-54.48 595.85,-56.11"/>
<polygon fill="#63b8ff" stroke="#63b8ff" points="630.48,-54.5 639.85,-49.57 629.45,-47.58 630.48,-54.5"/>
</a>
</g>
</g>
<!-- Node6 -->
<g id="Node000006" class="node">
<title>Node6</title>
<g id="a_Node000006"><a xlink:href="../../da/db6/_k___omega___model_8cpp_a22e64f94144a50c6cbafc52e88da1a2d.html#a22e64f94144a50c6cbafc52e88da1a2d" target="_top" xlink:title="Solve K&#45;omega transport equations.">
<polygon fill="white" stroke="#666666" points="605.5,-30.5 474.75,-30.5 474.75,0 605.5,0 605.5,-30.5"/>
<text text-anchor="start" x="482.75" y="-17" font-family="Helvetica,sans-Serif" font-size="10.00">Solve_KOmega_Transport</text>
<text text-anchor="middle" x="540.12" y="-5.75" font-family="Helvetica,sans-Serif" font-size="10.00">_Equations</text>
</a>
</g>
</g>
<!-- Node1&#45;&gt;Node6 -->
<g id="edge5_Node000001_Node000006" class="edge">
<title>Node1&#45;&gt;Node6</title>
<g id="a_edge5_Node000001_Node000006"><a xlink:title=" ">
<path fill="none" stroke="#63b8ff" d="M630.23,-27.97C622.03,-26.8 613.76,-25.62 605.73,-24.47"/>
<polygon fill="#63b8ff" stroke="#63b8ff" points="629.46,-31.4 639.85,-29.34 630.45,-24.47 629.46,-31.4"/>
</a>
</g>
</g>
<!-- Node3 -->
<g id="Node000003" class="node">
<title>Node3</title>
<g id="a_Node000003"><a xlink:href="../../d4/df3/_turbulence___integration_8cpp_a114922edf827339838bde9697cd163a1.html#a114922edf827339838bde9697cd163a1" target="_top" xlink:title="Calculate residuals for turbulence equations.">
<polygon fill="white" stroke="#666666" points="421.12,-79.5 310.62,-79.5 310.62,-49 421.12,-49 421.12,-79.5"/>
<text text-anchor="start" x="318.62" y="-66" font-family="Helvetica,sans-Serif" font-size="10.00">Calculate_Turbulence</text>
<text text-anchor="middle" x="365.88" y="-54.75" font-family="Helvetica,sans-Serif" font-size="10.00">_Residuals</text>
</a>
</g>
</g>
<!-- Node2&#45;&gt;Node3 -->
<g id="edge2_Node000002_Node000003" class="edge">
<title>Node2&#45;&gt;Node3</title>
<g id="a_edge2_Node000002_Node000003"><a xlink:title=" ">
<path fill="none" stroke="#63b8ff" d="M473.56,-64.25C456.42,-64.25 438.12,-64.25 421.61,-64.25"/>
<polygon fill="#63b8ff" stroke="#63b8ff" points="473.11,-67.75 483.11,-64.25 473.11,-60.75 473.11,-67.75"/>
</a>
</g>
</g>
<!-- Node4 -->
<g id="Node000004" class="node">
<title>Node4</title>
<g id="a_Node000004"><a xlink:href="../../d4/df3/_turbulence___integration_8cpp_a5be3d179089fc076bb68c61f7cd17b7a.html#a5be3d179089fc076bb68c61f7cd17b7a" target="_top" xlink:title="Runge&#45;Kutta method with turbulence model integration.">
<polygon fill="white" stroke="#666666" points="256.62,-79.5 146.12,-79.5 146.12,-49 256.62,-49 256.62,-79.5"/>
<text text-anchor="start" x="154.12" y="-66" font-family="Helvetica,sans-Serif" font-size="10.00">Runge_Kutta_Method</text>
<text text-anchor="middle" x="201.38" y="-54.75" font-family="Helvetica,sans-Serif" font-size="10.00">_With_Turbulence</text>
</a>
</g>
</g>
<!-- Node3&#45;&gt;Node4 -->
<g id="edge3_Node000003_Node000004" class="edge">
<title>Node3&#45;&gt;Node4</title>
<g id="a_edge3_Node000003_Node000004"><a xlink:title=" ">
<path fill="none" stroke="#63b8ff" d="M298.84,-64.25C284.96,-64.25 270.48,-64.25 257.07,-64.25"/>
<polygon fill="#63b8ff" stroke="#63b8ff" points="298.8,-67.75 308.8,-64.25 298.8,-60.75 298.8,-67.75"/>
</a>
</g>
</g>
<!-- Node5 -->
<g id="Node000005" class="node">
<title>Node5</title>
<g id="a_Node000005"><a xlink:href="../../d4/df3/_turbulence___integration_8cpp_a564537a29550f0d8ec11e8ef76cd2b3a.html#a564537a29550f0d8ec11e8ef76cd2b3a" target="_top" xlink:title="Modified viscous solver with turbulence model integration.">
<polygon fill="white" stroke="#666666" points="109.75,-54.5 0,-54.5 0,-24 109.75,-24 109.75,-54.5"/>
<text text-anchor="start" x="8" y="-41" font-family="Helvetica,sans-Serif" font-size="10.00">Viscous_Solver_With</text>
<text text-anchor="middle" x="54.88" y="-29.75" font-family="Helvetica,sans-Serif" font-size="10.00">_Turbulence</text>
</a>
</g>
</g>
<!-- Node4&#45;&gt;Node5 -->
<g id="edge4_Node000004_Node000005" class="edge">
<title>Node4&#45;&gt;Node5</title>
<g id="a_edge4_Node000004_Node000005"><a xlink:title=" ">
<path fill="none" stroke="#63b8ff" d="M134.66,-52.88C126.44,-51.46 118.11,-50.02 110.1,-48.63"/>
<polygon fill="#63b8ff" stroke="#63b8ff" points="133.8,-56.28 144.25,-54.54 135,-49.39 133.8,-56.28"/>
</a>
</g>
</g>
<!-- Node7 -->
<g id="Node000007" class="node">
<title>Node7</title>
<g id="a_Node000007"><a xlink:href="../../d5/d65/_turbulence___models_8cpp_afb9159b9dcb0534a88f1df9496ece4ad.html#afb9159b9dcb0534a88f1df9496ece4ad" target="_top" xlink:title="Update turbulence variables for all cells.">
<polygon fill="white" stroke="#666666" points="438.75,-24.88 293,-24.88 293,-5.63 438.75,-5.63 438.75,-24.88"/>
<text text-anchor="middle" x="365.88" y="-11.38" font-family="Helvetica,sans-Serif" font-size="10.00">Update_Turbulence_Variables</text>
</a>
</g>
</g>
<!-- Node6&#45;&gt;Node7 -->
<g id="edge6_Node000006_Node000007" class="edge">
<title>Node6&#45;&gt;Node7</title>
<g id="a_edge6_Node000006_Node000007"><a xlink:title=" ">
<path fill="none" stroke="#63b8ff" d="M463.26,-15.25C455.23,-15.25 447.08,-15.25 439.09,-15.25"/>
<polygon fill="#63b8ff" stroke="#63b8ff" points="462.98,-18.75 472.98,-15.25 462.98,-11.75 462.98,-18.75"/>
</a>
</g>
</g>
<!-- Node8 -->
<g id="Node000008" class="node">
<title>Node8</title>
<g id="a_Node000008"><a xlink:href="../../d4/df3/_turbulence___integration_8cpp_ab169036ed9f440a82e87aa687850b80e.html#ab169036ed9f440a82e87aa687850b80e" target="_top" xlink:title="Explicit method with turbulence model integration.">
<polygon fill="white" stroke="#666666" points="257,-30.5 145.75,-30.5 145.75,0 257,0 257,-30.5"/>
<text text-anchor="start" x="153.75" y="-17" font-family="Helvetica,sans-Serif" font-size="10.00">Explicit_Method_With</text>
<text text-anchor="middle" x="201.38" y="-5.75" font-family="Helvetica,sans-Serif" font-size="10.00">_Turbulence</text>
</a>
</g>
</g>
<!-- Node7&#45;&gt;Node8 -->
<g id="edge7_Node000007_Node000008" class="edge">
<title>Node7&#45;&gt;Node8</title>
<g id="a_edge7_Node000007_Node000008"><a xlink:title=" ">
<path fill="none" stroke="#63b8ff" d="M281.2,-15.25C273.1,-15.25 265.02,-15.25 257.3,-15.25"/>
<polygon fill="#63b8ff" stroke="#63b8ff" points="281.14,-18.75 291.14,-15.25 281.14,-11.75 281.14,-18.75"/>
</a>
</g>
</g>
<!-- Node8&#45;&gt;Node5 -->
<g id="edge8_Node000008_Node000005" class="edge">
<title>Node8&#45;&gt;Node5</title>
<g id="a_edge8_Node000008_Node000005"><a xlink:title=" ">
<path fill="none" stroke="#63b8ff" d="M133.99,-26.28C125.89,-27.62 117.69,-28.98 109.81,-30.29"/>
<polygon fill="#63b8ff" stroke="#63b8ff" points="134.55,-29.73 143.84,-24.64 133.4,-22.83 134.55,-29.73"/>
</a>
</g>
</g>
</g>
</svg>
