<?xml version="1.0" encoding="UTF-8" standalone="no"?>
<!DOCTYPE svg PUBLIC "-//W3C//DTD SVG 1.1//EN"
 "http://www.w3.org/Graphics/SVG/1.1/DTD/svg11.dtd">
<!-- Generated by graphviz version 12.2.1 (20241206.2353)
 -->
<!-- Title: Apply_KOmega_Outlet_BC Pages: 1 -->
<svg width="1011pt" height="174pt"
 viewBox="0.00 0.00 1010.75 173.88" xmlns="http://www.w3.org/2000/svg" xmlns:xlink="http://www.w3.org/1999/xlink">
<g id="graph0" class="graph" transform="scale(1 1) rotate(0) translate(4 169.88)">
<title>Apply_KOmega_Outlet_BC</title>
<!-- Node1 -->
<g id="Node000001" class="node">
<title>Node1</title>
<g id="a_Node000001"><a xlink:title="Apply outlet boundary conditions for K&#45;omega model.">
<polygon fill="#999999" stroke="#666666" points="135.25,-74.88 0,-74.88 0,-55.62 135.25,-55.62 135.25,-74.88"/>
<text text-anchor="middle" x="67.62" y="-61.38" font-family="Helvetica,sans-Serif" font-size="10.00">Apply_KOmega_Outlet_BC</text>
</a>
</g>
</g>
<!-- Node2 -->
<g id="Node000002" class="node">
<title>Node2</title>
<g id="a_Node000002"><a xlink:href="../../da/db6/_k___omega___model_8cpp_acbb6eb3b6b7d60663920ef36f7442e10.html#acbb6eb3b6b7d60663920ef36f7442e10" target="_top" xlink:title="Calculate turbulent viscosity using K&#45;omega model.">
<polygon fill="white" stroke="#666666" points="317.75,-102.5 171.25,-102.5 171.25,-72 317.75,-72 317.75,-102.5"/>
<text text-anchor="start" x="179.25" y="-89" font-family="Helvetica,sans-Serif" font-size="10.00">Calculate_KOmega_Turbulent</text>
<text text-anchor="middle" x="244.5" y="-77.75" font-family="Helvetica,sans-Serif" font-size="10.00">_Viscosity</text>
</a>
</g>
</g>
<!-- Node1&#45;&gt;Node2 -->
<g id="edge1_Node000001_Node000002" class="edge">
<title>Node1&#45;&gt;Node2</title>
<g id="a_edge1_Node000001_Node000002"><a xlink:title=" ">
<path fill="none" stroke="#63b8ff" d="M135.74,-73.69C143.53,-74.67 151.55,-75.68 159.53,-76.69"/>
<polygon fill="#63b8ff" stroke="#63b8ff" points="158.89,-80.13 169.25,-77.91 159.77,-73.19 158.89,-80.13"/>
</a>
</g>
</g>
<!-- Node13 -->
<g id="Node000013" class="node">
<title>Node13</title>
<g id="a_Node000013"><a xlink:href="../../da/d71/_k___epsilon___model_8cpp_a30666e8c0306be8539dfa79d0e1c0a58.html#a30666e8c0306be8539dfa79d0e1c0a58" target="_top" xlink:title="Find upstream neighbor for outlet boundary condition.">
<polygon fill="white" stroke="#666666" points="308,-53.88 181,-53.88 181,-34.62 308,-34.62 308,-53.88"/>
<text text-anchor="middle" x="244.5" y="-40.38" font-family="Helvetica,sans-Serif" font-size="10.00">Find_Upstream_Neighbor</text>
</a>
</g>
</g>
<!-- Node1&#45;&gt;Node13 -->
<g id="edge14_Node000001_Node000013" class="edge">
<title>Node1&#45;&gt;Node13</title>
<g id="a_edge14_Node000001_Node000013"><a xlink:title=" ">
<path fill="none" stroke="#63b8ff" d="M135.74,-57.19C146.67,-55.88 158.06,-54.51 169.16,-53.18"/>
<polygon fill="#63b8ff" stroke="#63b8ff" points="169.58,-56.65 179.09,-51.99 168.74,-49.7 169.58,-56.65"/>
</a>
</g>
</g>
<!-- Node3 -->
<g id="Node000003" class="node">
<title>Node3</title>
<g id="a_Node000003"><a xlink:href="../../da/d71/_k___epsilon___model_8cpp_ab6081c548f15e5cff5f3a7f797726bd0.html#ab6081c548f15e5cff5f3a7f797726bd0" target="_top" xlink:title="Calculate laminar viscosity for a given cell.">
<polygon fill="white" stroke="#666666" points="834.5,-165.88 691.75,-165.88 691.75,-146.62 834.5,-146.62 834.5,-165.88"/>
<text text-anchor="middle" x="763.12" y="-152.38" font-family="Helvetica,sans-Serif" font-size="10.00">Calculate_Laminar_Viscosity</text>
</a>
</g>
</g>
<!-- Node2&#45;&gt;Node3 -->
<g id="edge2_Node000002_Node000003" class="edge">
<title>Node2&#45;&gt;Node3</title>
<g id="a_edge2_Node000002_Node000003"><a xlink:title=" ">
<path fill="none" stroke="#63b8ff" d="M277.85,-102.79C298.95,-112.17 327.38,-123.41 353.75,-129.25 464.89,-153.88 596.87,-158.25 680.07,-158.08"/>
<polygon fill="#63b8ff" stroke="#63b8ff" points="679.98,-161.58 689.97,-158.04 679.95,-154.58 679.98,-161.58"/>
</a>
</g>
</g>
<!-- Node4 -->
<g id="Node000004" class="node">
<title>Node4</title>
<g id="a_Node000004"><a xlink:href="../../da/db6/_k___omega___model_8cpp_a133b20f2fbde5fe32f3bf8da3734a3df.html#a133b20f2fbde5fe32f3bf8da3734a3df" target="_top" xlink:title="Calculate F2 blending function for SST turbulent viscosity.">
<polygon fill="white" stroke="#666666" points="495,-119.88 353.75,-119.88 353.75,-100.62 495,-100.62 495,-119.88"/>
<text text-anchor="middle" x="424.38" y="-106.38" font-family="Helvetica,sans-Serif" font-size="10.00">Calculate_SST_F2_Function</text>
</a>
</g>
</g>
<!-- Node2&#45;&gt;Node4 -->
<g id="edge3_Node000002_Node000004" class="edge">
<title>Node2&#45;&gt;Node4</title>
<g id="a_edge3_Node000002_Node000004"><a xlink:title=" ">
<path fill="none" stroke="#63b8ff" d="M318.11,-96.64C326.01,-97.66 334.08,-98.7 342.08,-99.74"/>
<polygon fill="#63b8ff" stroke="#63b8ff" points="341.43,-103.18 351.8,-101 342.33,-96.24 341.43,-103.18"/>
</a>
</g>
</g>
<!-- Node8 -->
<g id="Node000008" class="node">
<title>Node8</title>
<g id="a_Node000008"><a xlink:href="../../da/d71/_k___epsilon___model_8cpp_a4ac5abbc0be034b167174ed0e6ea5814.html#a4ac5abbc0be034b167174ed0e6ea5814" target="_top" xlink:title="Calculate strain rate magnitude for a given cell.">
<polygon fill="white" stroke="#666666" points="481.5,-80.5 367.25,-80.5 367.25,-50 481.5,-50 481.5,-80.5"/>
<text text-anchor="start" x="375.25" y="-67" font-family="Helvetica,sans-Serif" font-size="10.00">Calculate_Strain_Rate</text>
<text text-anchor="middle" x="424.38" y="-55.75" font-family="Helvetica,sans-Serif" font-size="10.00">_Magnitude</text>
</a>
</g>
</g>
<!-- Node2&#45;&gt;Node8 -->
<g id="edge8_Node000002_Node000008" class="edge">
<title>Node2&#45;&gt;Node8</title>
<g id="a_edge8_Node000002_Node000008"><a xlink:title=" ">
<path fill="none" stroke="#63b8ff" d="M318.11,-78.27C330.53,-76.73 343.41,-75.14 355.7,-73.62"/>
<polygon fill="#63b8ff" stroke="#63b8ff" points="355.8,-77.13 365.3,-72.43 354.94,-70.19 355.8,-77.13"/>
</a>
</g>
</g>
<!-- Node11 -->
<g id="Node000011" class="node">
<title>Node11</title>
<g id="a_Node000011"><a xlink:href="../../da/db6/_k___omega___model_8cpp_af1e41ac929a629cbe45c3c594b4f972e.html#af1e41ac929a629cbe45c3c594b4f972e" target="_top" xlink:title="Calculate vorticity magnitude for SST model.">
<polygon fill="white" stroke="#666666" points="473.62,-31.5 375.12,-31.5 375.12,-1 473.62,-1 473.62,-31.5"/>
<text text-anchor="start" x="383.12" y="-18" font-family="Helvetica,sans-Serif" font-size="10.00">Calculate_Vorticity</text>
<text text-anchor="middle" x="424.38" y="-6.75" font-family="Helvetica,sans-Serif" font-size="10.00">_Magnitude</text>
</a>
</g>
</g>
<!-- Node2&#45;&gt;Node11 -->
<g id="edge11_Node000002_Node000011" class="edge">
<title>Node2&#45;&gt;Node11</title>
<g id="a_edge11_Node000002_Node000011"><a xlink:title=" ">
<path fill="none" stroke="#63b8ff" d="M297.37,-71.62C304.32,-69.06 311.28,-66.26 317.75,-63.25 334.76,-55.35 336.84,-49.35 353.75,-41.25 357.44,-39.48 361.29,-37.77 365.21,-36.12"/>
<polygon fill="#63b8ff" stroke="#63b8ff" points="366.28,-39.46 374.25,-32.48 363.66,-32.97 366.28,-39.46"/>
</a>
</g>
</g>
<!-- Node5 -->
<g id="Node000005" class="node">
<title>Node5</title>
<g id="a_Node000005"><a xlink:href="../../da/db6/_k___omega___model_8cpp_a31b6758cb80b88340974998c3c5361e2.html#a31b6758cb80b88340974998c3c5361e2" target="_top" xlink:title="Calculate SST blending functions F1 and F2.">
<polygon fill="white" stroke="#666666" points="655.75,-128.5 531,-128.5 531,-98 655.75,-98 655.75,-128.5"/>
<text text-anchor="start" x="539" y="-115" font-family="Helvetica,sans-Serif" font-size="10.00">Calculate_SST_Blending</text>
<text text-anchor="middle" x="593.38" y="-103.75" font-family="Helvetica,sans-Serif" font-size="10.00">_Functions</text>
</a>
</g>
</g>
<!-- Node4&#45;&gt;Node5 -->
<g id="edge4_Node000004_Node000005" class="edge">
<title>Node4&#45;&gt;Node5</title>
<g id="a_edge4_Node000004_Node000005"><a xlink:title=" ">
<path fill="none" stroke="#63b8ff" d="M495.23,-111.5C503.1,-111.65 511.13,-111.79 519.04,-111.93"/>
<polygon fill="#63b8ff" stroke="#63b8ff" points="518.93,-115.43 528.99,-112.11 519.06,-108.43 518.93,-115.43"/>
</a>
</g>
</g>
<!-- Node5&#45;&gt;Node3 -->
<g id="edge5_Node000005_Node000003" class="edge">
<title>Node5&#45;&gt;Node3</title>
<g id="a_edge5_Node000005_Node000003"><a xlink:title=" ">
<path fill="none" stroke="#63b8ff" d="M655.41,-128.9C673.94,-133.65 694.08,-138.81 711.82,-143.36"/>
<polygon fill="#63b8ff" stroke="#63b8ff" points="710.79,-146.7 721.34,-145.8 712.52,-139.92 710.79,-146.7"/>
</a>
</g>
</g>
<!-- Node6 -->
<g id="Node000006" class="node">
<title>Node6</title>
<g id="a_Node000006"><a xlink:href="../../da/db6/_k___omega___model_8cpp_a7fa3fb752505082634dc5acc883aa464.html#a7fa3fb752505082634dc5acc883aa464" target="_top" xlink:title="Calculate cross&#45;diffusion term for SST model.">
<polygon fill="white" stroke="#666666" points="819.88,-128.5 706.38,-128.5 706.38,-98 819.88,-98 819.88,-128.5"/>
<text text-anchor="start" x="714.38" y="-115" font-family="Helvetica,sans-Serif" font-size="10.00">Calculate_SST_Cross</text>
<text text-anchor="middle" x="763.12" y="-103.75" font-family="Helvetica,sans-Serif" font-size="10.00">_Diffusion</text>
</a>
</g>
</g>
<!-- Node5&#45;&gt;Node6 -->
<g id="edge6_Node000005_Node000006" class="edge">
<title>Node5&#45;&gt;Node6</title>
<g id="a_edge6_Node000005_Node000006"><a xlink:title=" ">
<path fill="none" stroke="#63b8ff" d="M655.89,-113.25C668.41,-113.25 681.66,-113.25 694.39,-113.25"/>
<polygon fill="#63b8ff" stroke="#63b8ff" points="694.39,-116.75 704.39,-113.25 694.39,-109.75 694.39,-116.75"/>
</a>
</g>
</g>
<!-- Node7 -->
<g id="Node000007" class="node">
<title>Node7</title>
<g id="a_Node000007"><a xlink:href="../../da/db6/_k___omega___model_8cpp_a7584c2aad761764bf65ccb3e3839a480.html#a7584c2aad761764bf65ccb3e3839a480" target="_top" xlink:title="Calculate scalar gradient for a given variable.">
<polygon fill="white" stroke="#666666" points="1002.75,-122.88 870.5,-122.88 870.5,-103.62 1002.75,-103.62 1002.75,-122.88"/>
<text text-anchor="middle" x="936.62" y="-109.38" font-family="Helvetica,sans-Serif" font-size="10.00">Calculate_Scalar_Gradient</text>
</a>
</g>
</g>
<!-- Node6&#45;&gt;Node7 -->
<g id="edge7_Node000006_Node000007" class="edge">
<title>Node6&#45;&gt;Node7</title>
<g id="a_edge7_Node000006_Node000007"><a xlink:title=" ">
<path fill="none" stroke="#63b8ff" d="M820.28,-113.25C832.6,-113.25 845.84,-113.25 858.81,-113.25"/>
<polygon fill="#63b8ff" stroke="#63b8ff" points="858.59,-116.75 868.59,-113.25 858.59,-109.75 858.59,-116.75"/>
</a>
</g>
</g>
<!-- Node9 -->
<g id="Node000009" class="node">
<title>Node9</title>
<g id="a_Node000009"><a xlink:href="../../d5/d65/_turbulence___models_8cpp_abcf5967a793b905ba24e0b6f02859f52.html#abcf5967a793b905ba24e0b6f02859f52" target="_top" xlink:title="Calculate strain rate tensor for a given cell.">
<polygon fill="white" stroke="#666666" points="650.5,-79.5 536.25,-79.5 536.25,-49 650.5,-49 650.5,-79.5"/>
<text text-anchor="start" x="544.25" y="-66" font-family="Helvetica,sans-Serif" font-size="10.00">Calculate_Strain_Rate</text>
<text text-anchor="middle" x="593.38" y="-54.75" font-family="Helvetica,sans-Serif" font-size="10.00">_Tensor</text>
</a>
</g>
</g>
<!-- Node8&#45;&gt;Node9 -->
<g id="edge9_Node000008_Node000009" class="edge">
<title>Node8&#45;&gt;Node9</title>
<g id="a_edge9_Node000008_Node000009"><a xlink:title=" ">
<path fill="none" stroke="#63b8ff" d="M481.91,-64.91C495.65,-64.83 510.48,-64.74 524.68,-64.66"/>
<polygon fill="#63b8ff" stroke="#63b8ff" points="524.4,-68.16 534.38,-64.6 524.36,-61.16 524.4,-68.16"/>
</a>
</g>
</g>
<!-- Node10 -->
<g id="Node000010" class="node">
<title>Node10</title>
<g id="a_Node000010"><a xlink:href="../../d5/db2/class_vector_a2ce47a84fc19c32a26ada5a3379c3f0a.html#a2ce47a84fc19c32a26ada5a3379c3f0a" target="_top" xlink:title=" ">
<polygon fill="white" stroke="#666666" points="824,-49.88 702.25,-49.88 702.25,-30.62 824,-30.62 824,-49.88"/>
<text text-anchor="middle" x="763.12" y="-36.38" font-family="Helvetica,sans-Serif" font-size="10.00">Vector::Get_Component</text>
</a>
</g>
</g>
<!-- Node9&#45;&gt;Node10 -->
<g id="edge10_Node000009_Node000010" class="edge">
<title>Node9&#45;&gt;Node10</title>
<g id="a_edge10_Node000009_Node000010"><a xlink:title=" ">
<path fill="none" stroke="#63b8ff" d="M650.7,-56.19C663.56,-54.35 677.4,-52.37 690.8,-50.45"/>
<polygon fill="#63b8ff" stroke="#63b8ff" points="691.02,-53.96 700.43,-49.08 690.03,-47.03 691.02,-53.96"/>
</a>
</g>
</g>
<!-- Node12 -->
<g id="Node000012" class="node">
<title>Node12</title>
<g id="a_Node000012"><a xlink:href="../../d5/d65/_turbulence___models_8cpp_a7682b4426768f92eca578dc8f7c68db3.html#a7682b4426768f92eca578dc8f7c68db3" target="_top" xlink:title="Calculate vorticity tensor for a given cell.">
<polygon fill="white" stroke="#666666" points="642.62,-30.5 544.12,-30.5 544.12,0 642.62,0 642.62,-30.5"/>
<text text-anchor="start" x="552.12" y="-17" font-family="Helvetica,sans-Serif" font-size="10.00">Calculate_Vorticity</text>
<text text-anchor="middle" x="593.38" y="-5.75" font-family="Helvetica,sans-Serif" font-size="10.00">_Tensor</text>
</a>
</g>
</g>
<!-- Node11&#45;&gt;Node12 -->
<g id="edge12_Node000011_Node000012" class="edge">
<title>Node11&#45;&gt;Node12</title>
<g id="a_edge12_Node000011_Node000012"><a xlink:title=" ">
<path fill="none" stroke="#63b8ff" d="M473.68,-15.96C492.03,-15.85 513.16,-15.72 532.46,-15.61"/>
<polygon fill="#63b8ff" stroke="#63b8ff" points="532.4,-19.11 542.38,-15.55 532.36,-12.11 532.4,-19.11"/>
</a>
</g>
</g>
<!-- Node12&#45;&gt;Node10 -->
<g id="edge13_Node000012_Node000010" class="edge">
<title>Node12&#45;&gt;Node10</title>
<g id="a_edge13_Node000012_Node000010"><a xlink:title=" ">
<path fill="none" stroke="#63b8ff" d="M642.9,-22.48C657.83,-24.71 674.6,-27.21 690.74,-29.61"/>
<polygon fill="#63b8ff" stroke="#63b8ff" points="689.88,-33.02 700.28,-31.03 690.91,-26.1 689.88,-33.02"/>
</a>
</g>
</g>
</g>
</svg>
