<?xml version="1.0" encoding="UTF-8" standalone="no"?>
<!DOCTYPE svg PUBLIC "-//W3C//DTD SVG 1.1//EN"
 "http://www.w3.org/Graphics/SVG/1.1/DTD/svg11.dtd">
<!-- Generated by graphviz version 12.2.1 (20241206.2353)
 -->
<!-- Title: Calculate_SST_Cross_Diffusion Pages: 1 -->
<svg width="1715pt" height="326pt"
 viewBox="0.00 0.00 1715.25 326.33" xmlns="http://www.w3.org/2000/svg" xmlns:xlink="http://www.w3.org/1999/xlink">
<g id="graph0" class="graph" transform="scale(1 1) rotate(0) translate(4 322.33)">
<title>Calculate_SST_Cross_Diffusion</title>
<!-- Node1 -->
<g id="Node000001" class="node">
<title>Node1</title>
<g id="a_Node000001"><a xlink:title="Calculate cross&#45;diffusion term for SST model.">
<polygon fill="#999999" stroke="#666666" points="1707.25,-51.5 1593.75,-51.5 1593.75,-21 1707.25,-21 1707.25,-51.5"/>
<text text-anchor="start" x="1601.75" y="-38" font-family="Helvetica,sans-Serif" font-size="10.00">Calculate_SST_Cross</text>
<text text-anchor="middle" x="1650.5" y="-26.75" font-family="Helvetica,sans-Serif" font-size="10.00">_Diffusion</text>
</a>
</g>
</g>
<!-- Node2 -->
<g id="Node000002" class="node">
<title>Node2</title>
<g id="a_Node000002"><a xlink:href="../../da/db6/_k___omega___model_8cpp_a31b6758cb80b88340974998c3c5361e2.html#a31b6758cb80b88340974998c3c5361e2" target="_top" xlink:title="Calculate SST blending functions F1 and F2.">
<polygon fill="white" stroke="#666666" points="1557.75,-73.5 1433,-73.5 1433,-43 1557.75,-43 1557.75,-73.5"/>
<text text-anchor="start" x="1441" y="-60" font-family="Helvetica,sans-Serif" font-size="10.00">Calculate_SST_Blending</text>
<text text-anchor="middle" x="1495.38" y="-48.75" font-family="Helvetica,sans-Serif" font-size="10.00">_Functions</text>
</a>
</g>
</g>
<!-- Node1&#45;&gt;Node2 -->
<g id="edge1_Node000001_Node000002" class="edge">
<title>Node1&#45;&gt;Node2</title>
<g id="a_edge1_Node000001_Node000002"><a xlink:title=" ">
<path fill="none" stroke="#63b8ff" d="M1582.2,-45.92C1574.21,-47.07 1566.1,-48.23 1558.2,-49.37"/>
<polygon fill="#63b8ff" stroke="#63b8ff" points="1582.45,-49.42 1591.85,-44.53 1581.46,-42.49 1582.45,-49.42"/>
</a>
</g>
</g>
<!-- Node21 -->
<g id="Node000021" class="node">
<title>Node21</title>
<g id="a_Node000021"><a xlink:href="../../da/db6/_k___omega___model_8cpp_acfc6e921fa69c7382cb5500e664b04ea.html#acfc6e921fa69c7382cb5500e664b04ea" target="_top" xlink:title="Solve SST K&#45;omega transport equations.">
<polygon fill="white" stroke="#666666" points="1015.12,-30.5 903.12,-30.5 903.12,0 1015.12,0 1015.12,-30.5"/>
<text text-anchor="start" x="911.12" y="-17" font-family="Helvetica,sans-Serif" font-size="10.00">Solve_SST_Transport</text>
<text text-anchor="middle" x="959.12" y="-5.75" font-family="Helvetica,sans-Serif" font-size="10.00">_Equations</text>
</a>
</g>
</g>
<!-- Node1&#45;&gt;Node21 -->
<g id="edge32_Node000001_Node000021" class="edge">
<title>Node1&#45;&gt;Node21</title>
<g id="a_edge32_Node000001_Node000021"><a xlink:title=" ">
<path fill="none" stroke="#63b8ff" d="M1581.91,-34.19C1445.74,-30.04 1140.73,-20.75 1015.45,-16.94"/>
<polygon fill="#63b8ff" stroke="#63b8ff" points="1581.76,-37.69 1591.87,-34.49 1581.98,-30.69 1581.76,-37.69"/>
</a>
</g>
</g>
<!-- Node3 -->
<g id="Node000003" class="node">
<title>Node3</title>
<g id="a_Node000003"><a xlink:href="../../da/db6/_k___omega___model_8cpp_a133b20f2fbde5fe32f3bf8da3734a3df.html#a133b20f2fbde5fe32f3bf8da3734a3df" target="_top" xlink:title="Calculate F2 blending function for SST turbulent viscosity.">
<polygon fill="white" stroke="#666666" points="1397,-121.88 1255.75,-121.88 1255.75,-102.62 1397,-102.62 1397,-121.88"/>
<text text-anchor="middle" x="1326.38" y="-108.38" font-family="Helvetica,sans-Serif" font-size="10.00">Calculate_SST_F2_Function</text>
</a>
</g>
</g>
<!-- Node2&#45;&gt;Node3 -->
<g id="edge2_Node000002_Node000003" class="edge">
<title>Node2&#45;&gt;Node3</title>
<g id="a_edge2_Node000002_Node000003"><a xlink:title=" ">
<path fill="none" stroke="#63b8ff" d="M1435.21,-77.38C1409.31,-85.76 1379.98,-95.24 1358.45,-102.2"/>
<polygon fill="#63b8ff" stroke="#63b8ff" points="1436.19,-80.74 1444.63,-74.33 1434.04,-74.08 1436.19,-80.74"/>
</a>
</g>
</g>
<!-- Node2&#45;&gt;Node21 -->
<g id="edge31_Node000002_Node000021" class="edge">
<title>Node2&#45;&gt;Node21</title>
<g id="a_edge31_Node000002_Node000021"><a xlink:title=" ">
<path fill="none" stroke="#63b8ff" d="M1421.09,-54.41C1337,-49.73 1195,-40.97 1073.25,-29.25 1054.44,-27.44 1033.92,-25.03 1015.58,-22.72"/>
<polygon fill="#63b8ff" stroke="#63b8ff" points="1420.87,-57.91 1431.05,-54.96 1421.26,-50.92 1420.87,-57.91"/>
</a>
</g>
</g>
<!-- Node4 -->
<g id="Node000004" class="node">
<title>Node4</title>
<g id="a_Node000004"><a xlink:href="../../da/db6/_k___omega___model_8cpp_acbb6eb3b6b7d60663920ef36f7442e10.html#acbb6eb3b6b7d60663920ef36f7442e10" target="_top" xlink:title="Calculate turbulent viscosity using K&#45;omega model.">
<polygon fill="white" stroke="#666666" points="1219.75,-148.5 1073.25,-148.5 1073.25,-118 1219.75,-118 1219.75,-148.5"/>
<text text-anchor="start" x="1081.25" y="-135" font-family="Helvetica,sans-Serif" font-size="10.00">Calculate_KOmega_Turbulent</text>
<text text-anchor="middle" x="1146.5" y="-123.75" font-family="Helvetica,sans-Serif" font-size="10.00">_Viscosity</text>
</a>
</g>
</g>
<!-- Node3&#45;&gt;Node4 -->
<g id="edge3_Node000003_Node000004" class="edge">
<title>Node3&#45;&gt;Node4</title>
<g id="a_edge3_Node000003_Node000004"><a xlink:title=" ">
<path fill="none" stroke="#63b8ff" d="M1244.1,-121.85C1236.1,-122.79 1228.02,-123.74 1220.11,-124.68"/>
<polygon fill="#63b8ff" stroke="#63b8ff" points="1244.31,-125.35 1253.83,-120.7 1243.48,-118.39 1244.31,-125.35"/>
</a>
</g>
</g>
<!-- Node5 -->
<g id="Node000005" class="node">
<title>Node5</title>
<g id="a_Node000005"><a xlink:href="../../da/db6/_k___omega___model_8cpp_a971ae07e8300e4255c309a8a0f7b7f63.html#a971ae07e8300e4255c309a8a0f7b7f63" target="_top" xlink:title="Apply inlet boundary conditions for K&#45;omega model.">
<polygon fill="white" stroke="#666666" points="1023,-142.88 895.25,-142.88 895.25,-123.62 1023,-123.62 1023,-142.88"/>
<text text-anchor="middle" x="959.12" y="-129.38" font-family="Helvetica,sans-Serif" font-size="10.00">Apply_KOmega_Inlet_BC</text>
</a>
</g>
</g>
<!-- Node4&#45;&gt;Node5 -->
<g id="edge4_Node000004_Node000005" class="edge">
<title>Node4&#45;&gt;Node5</title>
<g id="a_edge4_Node000004_Node000005"><a xlink:title=" ">
<path fill="none" stroke="#63b8ff" d="M1061.56,-133.25C1048.71,-133.25 1035.63,-133.25 1023.33,-133.25"/>
<polygon fill="#63b8ff" stroke="#63b8ff" points="1061.25,-136.75 1071.25,-133.25 1061.25,-129.75 1061.25,-136.75"/>
</a>
</g>
</g>
<!-- Node12 -->
<g id="Node000012" class="node">
<title>Node12</title>
<g id="a_Node000012"><a xlink:href="../../da/db6/_k___omega___model_8cpp_ae1f0a417766f5ee021c7d8cc8b328878.html#ae1f0a417766f5ee021c7d8cc8b328878" target="_top" xlink:title="Apply outlet boundary conditions for K&#45;omega model.">
<polygon fill="white" stroke="#666666" points="1026.75,-105.88 891.5,-105.88 891.5,-86.62 1026.75,-86.62 1026.75,-105.88"/>
<text text-anchor="middle" x="959.12" y="-92.38" font-family="Helvetica,sans-Serif" font-size="10.00">Apply_KOmega_Outlet_BC</text>
</a>
</g>
</g>
<!-- Node4&#45;&gt;Node12 -->
<g id="edge13_Node000004_Node000012" class="edge">
<title>Node4&#45;&gt;Node12</title>
<g id="a_edge13_Node000004_Node000012"><a xlink:title=" ">
<path fill="none" stroke="#63b8ff" d="M1061.94,-116.57C1044.43,-113.08 1026.48,-109.49 1010.63,-106.33"/>
<polygon fill="#63b8ff" stroke="#63b8ff" points="1060.79,-119.91 1071.28,-118.44 1062.16,-113.05 1060.79,-119.91"/>
</a>
</g>
</g>
<!-- Node14 -->
<g id="Node000014" class="node">
<title>Node14</title>
<g id="a_Node000014"><a xlink:href="../../da/db6/_k___omega___model_8cpp_a30e02e22d1eda085cbd12bd4a60746c9.html#a30e02e22d1eda085cbd12bd4a60746c9" target="_top" xlink:title="Apply wall functions for K&#45;omega model.">
<polygon fill="white" stroke="#666666" points="1037.25,-218.88 881,-218.88 881,-199.62 1037.25,-199.62 1037.25,-218.88"/>
<text text-anchor="middle" x="959.12" y="-205.38" font-family="Helvetica,sans-Serif" font-size="10.00">Apply_KOmega_Wall_Functions</text>
</a>
</g>
</g>
<!-- Node4&#45;&gt;Node14 -->
<g id="edge16_Node000004_Node000014" class="edge">
<title>Node4&#45;&gt;Node14</title>
<g id="a_edge16_Node000004_Node000014"><a xlink:title=" ">
<path fill="none" stroke="#63b8ff" d="M1106.06,-153.91C1085.8,-164.08 1060.55,-176.09 1037.25,-185.25 1024.07,-190.43 1009.28,-195.26 996.21,-199.21"/>
<polygon fill="#63b8ff" stroke="#63b8ff" points="1107.47,-157.12 1114.8,-149.47 1104.3,-150.88 1107.47,-157.12"/>
</a>
</g>
</g>
<!-- Node16 -->
<g id="Node000016" class="node">
<title>Node16</title>
<g id="a_Node000016"><a xlink:href="../../d5/d65/_turbulence___models_8cpp_a88b199d9b9d00896bc2ed690e14f8ce6.html#a88b199d9b9d00896bc2ed690e14f8ce6" target="_top" xlink:title="Apply turbulence symmetry boundary conditions.">
<polygon fill="white" stroke="#666666" points="845,-179.88 681.25,-179.88 681.25,-160.62 845,-160.62 845,-179.88"/>
<text text-anchor="middle" x="763.12" y="-166.38" font-family="Helvetica,sans-Serif" font-size="10.00">Apply_Turbulence_Symmetry_BC</text>
</a>
</g>
</g>
<!-- Node4&#45;&gt;Node16 -->
<g id="edge19_Node000004_Node000016" class="edge">
<title>Node4&#45;&gt;Node16</title>
<g id="a_edge19_Node000004_Node000016"><a xlink:title=" ">
<path fill="none" stroke="#63b8ff" d="M1061.68,-148.88C1053.44,-150.14 1045.19,-151.29 1037.25,-152.25 972.97,-159.99 899.74,-164.59 845.31,-167.2"/>
<polygon fill="#63b8ff" stroke="#63b8ff" points="1062.05,-152.37 1071.38,-147.34 1060.95,-145.45 1062.05,-152.37"/>
</a>
</g>
</g>
<!-- Node17 -->
<g id="Node000017" class="node">
<title>Node17</title>
<g id="a_Node000017"><a xlink:href="../../da/db6/_k___omega___model_8cpp_ab515206bf252d3272ff152fc77f231e0.html#ab515206bf252d3272ff152fc77f231e0" target="_top" xlink:title="Initialize K&#45;omega model variables for all cells.">
<polygon fill="white" stroke="#666666" points="1029.38,-257.88 888.88,-257.88 888.88,-238.62 1029.38,-238.62 1029.38,-257.88"/>
<text text-anchor="middle" x="959.12" y="-244.38" font-family="Helvetica,sans-Serif" font-size="10.00">Initialize_KOmega_Variables</text>
</a>
</g>
</g>
<!-- Node4&#45;&gt;Node17 -->
<g id="edge21_Node000004_Node000017" class="edge">
<title>Node4&#45;&gt;Node17</title>
<g id="a_edge21_Node000004_Node000017"><a xlink:title=" ">
<path fill="none" stroke="#63b8ff" d="M1124.46,-157.24C1104.2,-178.89 1071.63,-210.05 1037.25,-228.25 1029.55,-232.33 1020.97,-235.61 1012.4,-238.24"/>
<polygon fill="#63b8ff" stroke="#63b8ff" points="1126.91,-159.74 1131.09,-150.01 1121.75,-155.01 1126.91,-159.74"/>
</a>
</g>
</g>
<!-- Node20 -->
<g id="Node000020" class="node">
<title>Node20</title>
<g id="a_Node000020"><a xlink:href="../../da/db6/_k___omega___model_8cpp_a22e64f94144a50c6cbafc52e88da1a2d.html#a22e64f94144a50c6cbafc52e88da1a2d" target="_top" xlink:title="Solve K&#45;omega transport equations.">
<polygon fill="white" stroke="#666666" points="828.5,-68.5 697.75,-68.5 697.75,-38 828.5,-38 828.5,-68.5"/>
<text text-anchor="start" x="705.75" y="-55" font-family="Helvetica,sans-Serif" font-size="10.00">Solve_KOmega_Transport</text>
<text text-anchor="middle" x="763.12" y="-43.75" font-family="Helvetica,sans-Serif" font-size="10.00">_Equations</text>
</a>
</g>
</g>
<!-- Node4&#45;&gt;Node20 -->
<g id="edge24_Node000004_Node000020" class="edge">
<title>Node4&#45;&gt;Node20</title>
<g id="a_edge24_Node000004_Node000020"><a xlink:title=" ">
<path fill="none" stroke="#63b8ff" d="M1112.55,-111.9C1091.8,-99.57 1063.97,-85.01 1037.25,-77.25 967.99,-57.15 885.05,-52.43 828.88,-51.93"/>
<polygon fill="#63b8ff" stroke="#63b8ff" points="1110.47,-114.73 1120.84,-116.94 1114.12,-108.75 1110.47,-114.73"/>
</a>
</g>
</g>
<!-- Node4&#45;&gt;Node21 -->
<g id="edge26_Node000004_Node000021" class="edge">
<title>Node4&#45;&gt;Node21</title>
<g id="a_edge26_Node000004_Node000021"><a xlink:title=" ">
<path fill="none" stroke="#63b8ff" d="M1119.63,-110.31C1093.43,-87.38 1054.38,-54.15 1037.25,-44.25 1028.58,-39.24 1018.88,-34.8 1009.37,-31"/>
<polygon fill="#63b8ff" stroke="#63b8ff" points="1117.02,-112.67 1126.84,-116.65 1121.64,-107.42 1117.02,-112.67"/>
</a>
</g>
</g>
<!-- Node22 -->
<g id="Node000022" class="node">
<title>Node22</title>
<g id="a_Node000022"><a xlink:href="../../d4/df3/_turbulence___integration_8cpp_a6f5c4a828a942de7bc3fe7b4f035154e.html#a6f5c4a828a942de7bc3fe7b4f035154e" target="_top" xlink:title="Update turbulence variables using RK4 method.">
<polygon fill="white" stroke="#666666" points="645.25,-302.88 474.75,-302.88 474.75,-283.62 645.25,-283.62 645.25,-302.88"/>
<text text-anchor="middle" x="560" y="-289.38" font-family="Helvetica,sans-Serif" font-size="10.00">Update_Turbulence_Variables_RK4</text>
</a>
</g>
</g>
<!-- Node4&#45;&gt;Node22 -->
<g id="edge29_Node000004_Node000022" class="edge">
<title>Node4&#45;&gt;Node22</title>
<g id="a_edge29_Node000004_Node000022"><a xlink:title=" ">
<path fill="none" stroke="#63b8ff" d="M1133.38,-158.72C1116.71,-190.53 1083.42,-243.63 1037.25,-267.25 897.56,-338.72 703.72,-318.63 612.43,-303.37"/>
<polygon fill="#63b8ff" stroke="#63b8ff" points="1136.31,-160.68 1137.71,-150.18 1130.07,-157.51 1136.31,-160.68"/>
</a>
</g>
</g>
<!-- Node6 -->
<g id="Node000006" class="node">
<title>Node6</title>
<g id="a_Node000006"><a xlink:href="../../d5/d65/_turbulence___models_8cpp_a134e165674f67daba41b38ff2c1ce4c9.html#a134e165674f67daba41b38ff2c1ce4c9" target="_top" xlink:title="Apply turbulence inlet boundary conditions.">
<polygon fill="white" stroke="#666666" points="831.88,-142.88 694.38,-142.88 694.38,-123.62 831.88,-123.62 831.88,-142.88"/>
<text text-anchor="middle" x="763.12" y="-129.38" font-family="Helvetica,sans-Serif" font-size="10.00">Apply_Turbulence_Inlet_BC</text>
</a>
</g>
</g>
<!-- Node5&#45;&gt;Node6 -->
<g id="edge5_Node000005_Node000006" class="edge">
<title>Node5&#45;&gt;Node6</title>
<g id="a_edge5_Node000005_Node000006"><a xlink:title=" ">
<path fill="none" stroke="#63b8ff" d="M883.41,-133.25C866.6,-133.25 848.84,-133.25 832.31,-133.25"/>
<polygon fill="#63b8ff" stroke="#63b8ff" points="883.36,-136.75 893.36,-133.25 883.36,-129.75 883.36,-136.75"/>
</a>
</g>
</g>
<!-- Node7 -->
<g id="Node000007" class="node">
<title>Node7</title>
<g id="a_Node000007"><a xlink:href="../../d5/d65/_turbulence___models_8cpp_a1158808d85e3e5c5ec0b6cc6b7462a27.html#a1158808d85e3e5c5ec0b6cc6b7462a27" target="_top" xlink:title="Apply turbulence boundary conditions to all boundary cells.">
<polygon fill="white" stroke="#666666" points="617.12,-148.5 502.88,-148.5 502.88,-118 617.12,-118 617.12,-148.5"/>
<text text-anchor="start" x="510.88" y="-135" font-family="Helvetica,sans-Serif" font-size="10.00">Apply_All_Turbulence</text>
<text text-anchor="middle" x="560" y="-123.75" font-family="Helvetica,sans-Serif" font-size="10.00">_Boundary_Conditions</text>
</a>
</g>
</g>
<!-- Node6&#45;&gt;Node7 -->
<g id="edge6_Node000006_Node000007" class="edge">
<title>Node6&#45;&gt;Node7</title>
<g id="a_edge6_Node000006_Node000007"><a xlink:title=" ">
<path fill="none" stroke="#63b8ff" d="M682.75,-133.25C660.87,-133.25 637.59,-133.25 617.32,-133.25"/>
<polygon fill="#63b8ff" stroke="#63b8ff" points="682.52,-136.75 692.52,-133.25 682.52,-129.75 682.52,-136.75"/>
</a>
</g>
</g>
<!-- Node8 -->
<g id="Node000008" class="node">
<title>Node8</title>
<g id="a_Node000008"><a xlink:href="../../d4/df3/_turbulence___integration_8cpp_a5be3d179089fc076bb68c61f7cd17b7a.html#a5be3d179089fc076bb68c61f7cd17b7a" target="_top" xlink:title="Runge&#45;Kutta method with turbulence model integration.">
<polygon fill="white" stroke="#666666" points="421.12,-188.5 310.62,-188.5 310.62,-158 421.12,-158 421.12,-188.5"/>
<text text-anchor="start" x="318.62" y="-175" font-family="Helvetica,sans-Serif" font-size="10.00">Runge_Kutta_Method</text>
<text text-anchor="middle" x="365.88" y="-163.75" font-family="Helvetica,sans-Serif" font-size="10.00">_With_Turbulence</text>
</a>
</g>
</g>
<!-- Node7&#45;&gt;Node8 -->
<g id="edge7_Node000007_Node000008" class="edge">
<title>Node7&#45;&gt;Node8</title>
<g id="a_edge7_Node000007_Node000008"><a xlink:title=" ">
<path fill="none" stroke="#63b8ff" d="M491.37,-147.33C468.46,-152.1 443.18,-157.36 421.42,-161.89"/>
<polygon fill="#63b8ff" stroke="#63b8ff" points="491.84,-150.81 500.91,-145.34 490.41,-143.96 491.84,-150.81"/>
</a>
</g>
</g>
<!-- Node9 -->
<g id="Node000009" class="node">
<title>Node9</title>
<g id="a_Node000009"><a xlink:href="../../d4/df3/_turbulence___integration_8cpp_a564537a29550f0d8ec11e8ef76cd2b3a.html#a564537a29550f0d8ec11e8ef76cd2b3a" target="_top" xlink:title="Modified viscous solver with turbulence model integration.">
<polygon fill="white" stroke="#666666" points="109.75,-145.5 0,-145.5 0,-115 109.75,-115 109.75,-145.5"/>
<text text-anchor="start" x="8" y="-132" font-family="Helvetica,sans-Serif" font-size="10.00">Viscous_Solver_With</text>
<text text-anchor="middle" x="54.88" y="-120.75" font-family="Helvetica,sans-Serif" font-size="10.00">_Turbulence</text>
</a>
</g>
</g>
<!-- Node7&#45;&gt;Node9 -->
<g id="edge12_Node000007_Node000009" class="edge">
<title>Node7&#45;&gt;Node9</title>
<g id="a_edge12_Node000007_Node000009"><a xlink:title=" ">
<path fill="none" stroke="#63b8ff" d="M491.49,-132.85C390.68,-132.25 202.78,-131.13 110.24,-130.57"/>
<polygon fill="#63b8ff" stroke="#63b8ff" points="491.22,-136.35 501.24,-132.91 491.26,-129.35 491.22,-136.35"/>
</a>
</g>
</g>
<!-- Node10 -->
<g id="Node000010" class="node">
<title>Node10</title>
<g id="a_Node000010"><a xlink:href="../../d5/d65/_turbulence___models_8cpp_afb9159b9dcb0534a88f1df9496ece4ad.html#afb9159b9dcb0534a88f1df9496ece4ad" target="_top" xlink:title="Update turbulence variables for all cells.">
<polygon fill="white" stroke="#666666" points="438.75,-69.88 293,-69.88 293,-50.62 438.75,-50.62 438.75,-69.88"/>
<text text-anchor="middle" x="365.88" y="-56.38" font-family="Helvetica,sans-Serif" font-size="10.00">Update_Turbulence_Variables</text>
</a>
</g>
</g>
<!-- Node7&#45;&gt;Node10 -->
<g id="edge9_Node000007_Node000010" class="edge">
<title>Node7&#45;&gt;Node10</title>
<g id="a_edge9_Node000007_Node000010"><a xlink:title=" ">
<path fill="none" stroke="#63b8ff" d="M507.24,-113.58C470.43,-99.6 422.52,-81.39 393.27,-70.28"/>
<polygon fill="#63b8ff" stroke="#63b8ff" points="505.78,-116.77 516.37,-117.05 508.26,-110.23 505.78,-116.77"/>
</a>
</g>
</g>
<!-- Node8&#45;&gt;Node9 -->
<g id="edge8_Node000008_Node000009" class="edge">
<title>Node8&#45;&gt;Node9</title>
<g id="a_edge8_Node000008_Node000009"><a xlink:title=" ">
<path fill="none" stroke="#63b8ff" d="M299.04,-164.94C255.5,-159.34 197.18,-151.66 145.75,-144.25 134.18,-142.58 121.79,-140.71 110.02,-138.89"/>
<polygon fill="#63b8ff" stroke="#63b8ff" points="298.48,-168.39 308.85,-166.19 299.37,-161.45 298.48,-168.39"/>
</a>
</g>
</g>
<!-- Node11 -->
<g id="Node000011" class="node">
<title>Node11</title>
<g id="a_Node000011"><a xlink:href="../../d4/df3/_turbulence___integration_8cpp_ab169036ed9f440a82e87aa687850b80e.html#ab169036ed9f440a82e87aa687850b80e" target="_top" xlink:title="Explicit method with turbulence model integration.">
<polygon fill="white" stroke="#666666" points="257,-93.5 145.75,-93.5 145.75,-63 257,-63 257,-93.5"/>
<text text-anchor="start" x="153.75" y="-80" font-family="Helvetica,sans-Serif" font-size="10.00">Explicit_Method_With</text>
<text text-anchor="middle" x="201.38" y="-68.75" font-family="Helvetica,sans-Serif" font-size="10.00">_Turbulence</text>
</a>
</g>
</g>
<!-- Node10&#45;&gt;Node11 -->
<g id="edge10_Node000010_Node000011" class="edge">
<title>Node10&#45;&gt;Node11</title>
<g id="a_edge10_Node000010_Node000011"><a xlink:title=" ">
<path fill="none" stroke="#63b8ff" d="M281.48,-69.49C273.28,-70.4 265.11,-71.3 257.3,-72.17"/>
<polygon fill="#63b8ff" stroke="#63b8ff" points="281.6,-73 291.15,-68.42 280.82,-66.04 281.6,-73"/>
</a>
</g>
</g>
<!-- Node11&#45;&gt;Node9 -->
<g id="edge11_Node000011_Node000009" class="edge">
<title>Node11&#45;&gt;Node9</title>
<g id="a_edge11_Node000011_Node000009"><a xlink:title=" ">
<path fill="none" stroke="#63b8ff" d="M146.18,-97.75C130.76,-103.3 114.17,-109.27 99.47,-114.56"/>
<polygon fill="#63b8ff" stroke="#63b8ff" points="146.98,-101.18 155.2,-94.51 144.61,-94.6 146.98,-101.18"/>
</a>
</g>
</g>
<!-- Node13 -->
<g id="Node000013" class="node">
<title>Node13</title>
<g id="a_Node000013"><a xlink:href="../../d5/d65/_turbulence___models_8cpp_a3b4ea5d29901515353257738e5b15b13.html#a3b4ea5d29901515353257738e5b15b13" target="_top" xlink:title="Apply turbulence outlet boundary conditions.">
<polygon fill="white" stroke="#666666" points="835.62,-105.88 690.62,-105.88 690.62,-86.62 835.62,-86.62 835.62,-105.88"/>
<text text-anchor="middle" x="763.12" y="-92.38" font-family="Helvetica,sans-Serif" font-size="10.00">Apply_Turbulence_Outlet_BC</text>
</a>
</g>
</g>
<!-- Node12&#45;&gt;Node13 -->
<g id="edge14_Node000012_Node000013" class="edge">
<title>Node12&#45;&gt;Node13</title>
<g id="a_edge14_Node000012_Node000013"><a xlink:title=" ">
<path fill="none" stroke="#63b8ff" d="M879.62,-96.25C865.13,-96.25 850.07,-96.25 835.79,-96.25"/>
<polygon fill="#63b8ff" stroke="#63b8ff" points="879.58,-99.75 889.58,-96.25 879.58,-92.75 879.58,-99.75"/>
</a>
</g>
</g>
<!-- Node13&#45;&gt;Node7 -->
<g id="edge15_Node000013_Node000007" class="edge">
<title>Node13&#45;&gt;Node7</title>
<g id="a_edge15_Node000013_Node000007"><a xlink:title=" ">
<path fill="none" stroke="#63b8ff" d="M696.1,-108.4C670.62,-113.08 641.77,-118.39 617.29,-122.89"/>
<polygon fill="#63b8ff" stroke="#63b8ff" points="696.48,-111.89 705.68,-106.63 695.21,-105 696.48,-111.89"/>
</a>
</g>
</g>
<!-- Node15 -->
<g id="Node000015" class="node">
<title>Node15</title>
<g id="a_Node000015"><a xlink:href="../../d5/d65/_turbulence___models_8cpp_abebbec3a464f4c0094447be488398fd7.html#abebbec3a464f4c0094447be488398fd7" target="_top" xlink:title="Apply turbulence wall boundary conditions.">
<polygon fill="white" stroke="#666666" points="831.88,-216.88 694.38,-216.88 694.38,-197.62 831.88,-197.62 831.88,-216.88"/>
<text text-anchor="middle" x="763.12" y="-203.38" font-family="Helvetica,sans-Serif" font-size="10.00">Apply_Turbulence_Wall_BC</text>
</a>
</g>
</g>
<!-- Node14&#45;&gt;Node15 -->
<g id="edge17_Node000014_Node000015" class="edge">
<title>Node14&#45;&gt;Node15</title>
<g id="a_edge17_Node000014_Node000015"><a xlink:title=" ">
<path fill="none" stroke="#63b8ff" d="M869.24,-208.33C856.77,-208.21 844.12,-208.07 832.12,-207.95"/>
<polygon fill="#63b8ff" stroke="#63b8ff" points="869.07,-211.83 879.1,-208.44 869.14,-204.83 869.07,-211.83"/>
</a>
</g>
</g>
<!-- Node15&#45;&gt;Node7 -->
<g id="edge18_Node000015_Node000007" class="edge">
<title>Node15&#45;&gt;Node7</title>
<g id="a_edge18_Node000015_Node000007"><a xlink:title=" ">
<path fill="none" stroke="#63b8ff" d="M698.02,-194.34C692.31,-192.78 686.64,-191.08 681.25,-189.25 648.98,-178.29 613.83,-161.28 589.92,-148.89"/>
<polygon fill="#63b8ff" stroke="#63b8ff" points="697.01,-197.69 707.56,-196.79 698.75,-190.91 697.01,-197.69"/>
</a>
</g>
</g>
<!-- Node16&#45;&gt;Node7 -->
<g id="edge20_Node000016_Node000007" class="edge">
<title>Node16&#45;&gt;Node7</title>
<g id="a_edge20_Node000016_Node000007"><a xlink:title=" ">
<path fill="none" stroke="#63b8ff" d="M696.1,-158.1C670.62,-153.42 641.77,-148.11 617.29,-143.61"/>
<polygon fill="#63b8ff" stroke="#63b8ff" points="695.21,-161.5 705.68,-159.87 696.48,-154.61 695.21,-161.5"/>
</a>
</g>
</g>
<!-- Node18 -->
<g id="Node000018" class="node">
<title>Node18</title>
<g id="a_Node000018"><a xlink:href="../../d5/d65/_turbulence___models_8cpp_ae3b78318b928719081e7653fc5c9e8dd.html#ae3b78318b928719081e7653fc5c9e8dd" target="_top" xlink:title="Initialize the specified turbulence model.">
<polygon fill="white" stroke="#666666" points="815.75,-265.5 710.5,-265.5 710.5,-235 815.75,-235 815.75,-265.5"/>
<text text-anchor="start" x="718.5" y="-252" font-family="Helvetica,sans-Serif" font-size="10.00">Initialize_Turbulence</text>
<text text-anchor="middle" x="763.12" y="-240.75" font-family="Helvetica,sans-Serif" font-size="10.00">_Model</text>
</a>
</g>
</g>
<!-- Node17&#45;&gt;Node18 -->
<g id="edge22_Node000017_Node000018" class="edge">
<title>Node17&#45;&gt;Node18</title>
<g id="a_edge22_Node000017_Node000018"><a xlink:title=" ">
<path fill="none" stroke="#63b8ff" d="M877.27,-249.08C856.58,-249.3 834.88,-249.52 816.09,-249.71"/>
<polygon fill="#63b8ff" stroke="#63b8ff" points="877.16,-252.59 887.12,-248.98 877.09,-245.59 877.16,-252.59"/>
</a>
</g>
</g>
<!-- Node19 -->
<g id="Node000019" class="node">
<title>Node19</title>
<g id="a_Node000019"><a xlink:href="../../d4/df3/_turbulence___integration_8cpp_aac3a7b5e7a77b6d40a58fe9fa561e7cd.html#aac3a7b5e7a77b6d40a58fe9fa561e7cd" target="_top" xlink:title="Setup turbulence model from configuration file.">
<polygon fill="white" stroke="#666666" points="621.25,-265.5 498.75,-265.5 498.75,-235 621.25,-235 621.25,-265.5"/>
<text text-anchor="start" x="506.75" y="-252" font-family="Helvetica,sans-Serif" font-size="10.00">Setup_Turbulence_From</text>
<text text-anchor="middle" x="560" y="-240.75" font-family="Helvetica,sans-Serif" font-size="10.00">_Config</text>
</a>
</g>
</g>
<!-- Node18&#45;&gt;Node19 -->
<g id="edge23_Node000018_Node000019" class="edge">
<title>Node18&#45;&gt;Node19</title>
<g id="a_edge23_Node000018_Node000019"><a xlink:title=" ">
<path fill="none" stroke="#63b8ff" d="M698.63,-250.25C673.94,-250.25 645.78,-250.25 621.39,-250.25"/>
<polygon fill="#63b8ff" stroke="#63b8ff" points="698.56,-253.75 708.56,-250.25 698.56,-246.75 698.56,-253.75"/>
</a>
</g>
</g>
<!-- Node20&#45;&gt;Node10 -->
<g id="edge25_Node000020_Node000010" class="edge">
<title>Node20&#45;&gt;Node10</title>
<g id="a_edge25_Node000020_Node000010"><a xlink:title=" ">
<path fill="none" stroke="#63b8ff" d="M686.17,-54.6C614.92,-55.86 509.13,-57.73 439.11,-58.97"/>
<polygon fill="#63b8ff" stroke="#63b8ff" points="685.85,-58.1 695.79,-54.42 685.73,-51.1 685.85,-58.1"/>
</a>
</g>
</g>
<!-- Node21&#45;&gt;Node10 -->
<g id="edge28_Node000021_Node000010" class="edge">
<title>Node21&#45;&gt;Node10</title>
<g id="a_edge28_Node000021_Node000010"><a xlink:title=" ">
<path fill="none" stroke="#63b8ff" d="M891.44,-17.73C835.33,-20.03 752.98,-23.9 681.25,-29.25 598.12,-35.45 502.88,-45.21 439.21,-52.13"/>
<polygon fill="#63b8ff" stroke="#63b8ff" points="891.29,-21.24 901.14,-17.34 891.01,-14.24 891.29,-21.24"/>
</a>
</g>
</g>
<!-- Node21&#45;&gt;Node20 -->
<g id="edge27_Node000021_Node000020" class="edge">
<title>Node21&#45;&gt;Node20</title>
<g id="a_edge27_Node000021_Node000020"><a xlink:title=" ">
<path fill="none" stroke="#63b8ff" d="M891.72,-28.26C871.37,-32.24 849.02,-36.62 828.79,-40.58"/>
<polygon fill="#63b8ff" stroke="#63b8ff" points="892.17,-31.74 901.31,-26.38 890.82,-24.87 892.17,-31.74"/>
</a>
</g>
</g>
<!-- Node22&#45;&gt;Node8 -->
<g id="edge30_Node000022_Node000008" class="edge">
<title>Node22&#45;&gt;Node8</title>
<g id="a_edge30_Node000022_Node000008"><a xlink:title=" ">
<path fill="none" stroke="#63b8ff" d="M486.22,-279.5C482.26,-277.93 478.41,-276.19 474.75,-274.25 433.94,-252.63 397.19,-211.48 378.96,-188.95"/>
<polygon fill="#63b8ff" stroke="#63b8ff" points="484.87,-282.73 495.46,-282.74 487.18,-276.12 484.87,-282.73"/>
</a>
</g>
</g>
</g>
</svg>
