<?xml version="1.0" encoding="UTF-8" standalone="no"?>
<!DOCTYPE svg PUBLIC "-//W3C//DTD SVG 1.1//EN"
 "http://www.w3.org/Graphics/SVG/1.1/DTD/svg11.dtd">
<!-- Generated by graphviz version 12.2.1 (20241206.2353)
 -->
<!-- Title: Calculate_KOmega_K_Diffusion Pages: 1 -->
<svg width="300pt" height="64pt"
 viewBox="0.00 0.00 299.50 64.25" xmlns="http://www.w3.org/2000/svg" xmlns:xlink="http://www.w3.org/1999/xlink">
<g id="graph0" class="graph" transform="scale(1 1) rotate(0) translate(4 60.25)">
<title>Calculate_KOmega_K_Diffusion</title>
<!-- Node1 -->
<g id="Node000001" class="node">
<title>Node1</title>
<g id="a_Node000001"><a xlink:title="Calculate diffusion term for k&#45;equation in K&#45;omega model.">
<polygon fill="#999999" stroke="#666666" points="112.75,-42.88 0,-42.88 0,-12.37 112.75,-12.37 112.75,-42.88"/>
<text text-anchor="start" x="8" y="-29.38" font-family="Helvetica,sans-Serif" font-size="10.00">Calculate_KOmega_K</text>
<text text-anchor="middle" x="56.38" y="-18.12" font-family="Helvetica,sans-Serif" font-size="10.00">_Diffusion</text>
</a>
</g>
</g>
<!-- Node2 -->
<g id="Node000002" class="node">
<title>Node2</title>
<g id="a_Node000002"><a xlink:href="../../da/d71/_k___epsilon___model_8cpp_a28fb4717a48a0d6aa546eca5701feebf.html#a28fb4717a48a0d6aa546eca5701feebf" target="_top" xlink:title="Calculate distance between two cell centers.">
<polygon fill="white" stroke="#666666" points="282.12,-56.25 158.12,-56.25 158.12,-37 282.12,-37 282.12,-56.25"/>
<text text-anchor="middle" x="220.12" y="-42.75" font-family="Helvetica,sans-Serif" font-size="10.00">Calculate_Cell_Distance</text>
</a>
</g>
</g>
<!-- Node1&#45;&gt;Node2 -->
<g id="edge1_Node000001_Node000002" class="edge">
<title>Node1&#45;&gt;Node2</title>
<g id="a_edge1_Node000001_Node000002"><a xlink:title=" ">
<path fill="none" stroke="#63b8ff" d="M113.04,-34.16C123.87,-35.44 135.37,-36.79 146.65,-38.11"/>
<polygon fill="#63b8ff" stroke="#63b8ff" points="145.98,-41.56 156.32,-39.25 146.79,-34.6 145.98,-41.56"/>
</a>
</g>
</g>
<!-- Node3 -->
<g id="Node000003" class="node">
<title>Node3</title>
<g id="a_Node000003"><a xlink:href="../../da/d71/_k___epsilon___model_8cpp_ab6081c548f15e5cff5f3a7f797726bd0.html#ab6081c548f15e5cff5f3a7f797726bd0" target="_top" xlink:title="Calculate laminar viscosity for a given cell.">
<polygon fill="white" stroke="#666666" points="291.5,-19.25 148.75,-19.25 148.75,0 291.5,0 291.5,-19.25"/>
<text text-anchor="middle" x="220.12" y="-5.75" font-family="Helvetica,sans-Serif" font-size="10.00">Calculate_Laminar_Viscosity</text>
</a>
</g>
</g>
<!-- Node1&#45;&gt;Node3 -->
<g id="edge2_Node000001_Node000003" class="edge">
<title>Node1&#45;&gt;Node3</title>
<g id="a_edge2_Node000001_Node000003"><a xlink:title=" ">
<path fill="none" stroke="#63b8ff" d="M113.04,-21.43C120.89,-20.56 129.1,-19.64 137.32,-18.73"/>
<polygon fill="#63b8ff" stroke="#63b8ff" points="137.45,-22.24 147,-17.65 136.67,-15.28 137.45,-22.24"/>
</a>
</g>
</g>
</g>
</svg>
