<?xml version="1.0" encoding="UTF-8" standalone="no"?>
<!DOCTYPE svg PUBLIC "-//W3C//DTD SVG 1.1//EN"
 "http://www.w3.org/Graphics/SVG/1.1/DTD/svg11.dtd">
<!-- Generated by graphviz version 12.2.1 (20241206.2353)
 -->
<!-- Title: Calculate_KOmega_Production_Terms Pages: 1 -->
<svg width="635pt" height="88pt"
 viewBox="0.00 0.00 635.25 87.50" xmlns="http://www.w3.org/2000/svg" xmlns:xlink="http://www.w3.org/1999/xlink">
<g id="graph0" class="graph" transform="scale(1 1) rotate(0) translate(4 83.5)">
<title>Calculate_KOmega_Production_Terms</title>
<!-- Node1 -->
<g id="Node000001" class="node">
<title>Node1</title>
<g id="a_Node000001"><a xlink:title="Calculate production terms for K&#45;omega model.">
<polygon fill="#999999" stroke="#666666" points="627.25,-54.5 474.75,-54.5 474.75,-24 627.25,-24 627.25,-54.5"/>
<text text-anchor="start" x="482.75" y="-41" font-family="Helvetica,sans-Serif" font-size="10.00">Calculate_KOmega_Production</text>
<text text-anchor="middle" x="551" y="-29.75" font-family="Helvetica,sans-Serif" font-size="10.00">_Terms</text>
</a>
</g>
</g>
<!-- Node2 -->
<g id="Node000002" class="node">
<title>Node2</title>
<g id="a_Node000002"><a xlink:href="../../d4/df3/_turbulence___integration_8cpp_a114922edf827339838bde9697cd163a1.html#a114922edf827339838bde9697cd163a1" target="_top" xlink:title="Calculate residuals for turbulence equations.">
<polygon fill="white" stroke="#666666" points="421.12,-77.5 310.62,-77.5 310.62,-47 421.12,-47 421.12,-77.5"/>
<text text-anchor="start" x="318.62" y="-64" font-family="Helvetica,sans-Serif" font-size="10.00">Calculate_Turbulence</text>
<text text-anchor="middle" x="365.88" y="-52.75" font-family="Helvetica,sans-Serif" font-size="10.00">_Residuals</text>
</a>
</g>
</g>
<!-- Node1&#45;&gt;Node2 -->
<g id="edge1_Node000001_Node000002" class="edge">
<title>Node1&#45;&gt;Node2</title>
<g id="a_edge1_Node000001_Node000002"><a xlink:title=" ">
<path fill="none" stroke="#63b8ff" d="M463.15,-50.16C448.98,-51.94 434.66,-53.74 421.55,-55.38"/>
<polygon fill="#63b8ff" stroke="#63b8ff" points="463.47,-53.65 472.96,-48.93 462.6,-46.7 463.47,-53.65"/>
</a>
</g>
</g>
<!-- Node5 -->
<g id="Node000005" class="node">
<title>Node5</title>
<g id="a_Node000005"><a xlink:href="../../d5/d65/_turbulence___models_8cpp_afb9159b9dcb0534a88f1df9496ece4ad.html#afb9159b9dcb0534a88f1df9496ece4ad" target="_top" xlink:title="Update turbulence variables for all cells.">
<polygon fill="white" stroke="#666666" points="438.75,-27.88 293,-27.88 293,-8.62 438.75,-8.62 438.75,-27.88"/>
<text text-anchor="middle" x="365.88" y="-14.38" font-family="Helvetica,sans-Serif" font-size="10.00">Update_Turbulence_Variables</text>
</a>
</g>
</g>
<!-- Node1&#45;&gt;Node5 -->
<g id="edge4_Node000001_Node000005" class="edge">
<title>Node1&#45;&gt;Node5</title>
<g id="a_edge4_Node000001_Node000005"><a xlink:title=" ">
<path fill="none" stroke="#63b8ff" d="M463.11,-29.29C455.04,-28.36 446.92,-27.43 439,-26.52"/>
<polygon fill="#63b8ff" stroke="#63b8ff" points="462.62,-32.75 472.96,-30.41 463.42,-25.8 462.62,-32.75"/>
</a>
</g>
</g>
<!-- Node3 -->
<g id="Node000003" class="node">
<title>Node3</title>
<g id="a_Node000003"><a xlink:href="../../d4/df3/_turbulence___integration_8cpp_a5be3d179089fc076bb68c61f7cd17b7a.html#a5be3d179089fc076bb68c61f7cd17b7a" target="_top" xlink:title="Runge&#45;Kutta method with turbulence model integration.">
<polygon fill="white" stroke="#666666" points="256.62,-79.5 146.12,-79.5 146.12,-49 256.62,-49 256.62,-79.5"/>
<text text-anchor="start" x="154.12" y="-66" font-family="Helvetica,sans-Serif" font-size="10.00">Runge_Kutta_Method</text>
<text text-anchor="middle" x="201.38" y="-54.75" font-family="Helvetica,sans-Serif" font-size="10.00">_With_Turbulence</text>
</a>
</g>
</g>
<!-- Node2&#45;&gt;Node3 -->
<g id="edge2_Node000002_Node000003" class="edge">
<title>Node2&#45;&gt;Node3</title>
<g id="a_edge2_Node000002_Node000003"><a xlink:title=" ">
<path fill="none" stroke="#63b8ff" d="M298.84,-63.06C284.96,-63.23 270.48,-63.41 257.07,-63.58"/>
<polygon fill="#63b8ff" stroke="#63b8ff" points="298.84,-66.56 308.8,-62.94 298.76,-59.56 298.84,-66.56"/>
</a>
</g>
</g>
<!-- Node4 -->
<g id="Node000004" class="node">
<title>Node4</title>
<g id="a_Node000004"><a xlink:href="../../d4/df3/_turbulence___integration_8cpp_a564537a29550f0d8ec11e8ef76cd2b3a.html#a564537a29550f0d8ec11e8ef76cd2b3a" target="_top" xlink:title="Modified viscous solver with turbulence model integration.">
<polygon fill="white" stroke="#666666" points="109.75,-54.5 0,-54.5 0,-24 109.75,-24 109.75,-54.5"/>
<text text-anchor="start" x="8" y="-41" font-family="Helvetica,sans-Serif" font-size="10.00">Viscous_Solver_With</text>
<text text-anchor="middle" x="54.88" y="-29.75" font-family="Helvetica,sans-Serif" font-size="10.00">_Turbulence</text>
</a>
</g>
</g>
<!-- Node3&#45;&gt;Node4 -->
<g id="edge3_Node000003_Node000004" class="edge">
<title>Node3&#45;&gt;Node4</title>
<g id="a_edge3_Node000003_Node000004"><a xlink:title=" ">
<path fill="none" stroke="#63b8ff" d="M134.66,-52.88C126.44,-51.46 118.11,-50.02 110.1,-48.63"/>
<polygon fill="#63b8ff" stroke="#63b8ff" points="133.8,-56.28 144.25,-54.54 135,-49.39 133.8,-56.28"/>
</a>
</g>
</g>
<!-- Node6 -->
<g id="Node000006" class="node">
<title>Node6</title>
<g id="a_Node000006"><a xlink:href="../../d4/df3/_turbulence___integration_8cpp_ab169036ed9f440a82e87aa687850b80e.html#ab169036ed9f440a82e87aa687850b80e" target="_top" xlink:title="Explicit method with turbulence model integration.">
<polygon fill="white" stroke="#666666" points="257,-30.5 145.75,-30.5 145.75,0 257,0 257,-30.5"/>
<text text-anchor="start" x="153.75" y="-17" font-family="Helvetica,sans-Serif" font-size="10.00">Explicit_Method_With</text>
<text text-anchor="middle" x="201.38" y="-5.75" font-family="Helvetica,sans-Serif" font-size="10.00">_Turbulence</text>
</a>
</g>
</g>
<!-- Node5&#45;&gt;Node6 -->
<g id="edge5_Node000005_Node000006" class="edge">
<title>Node5&#45;&gt;Node6</title>
<g id="a_edge5_Node000005_Node000006"><a xlink:title=" ">
<path fill="none" stroke="#63b8ff" d="M281.2,-16.71C273.1,-16.56 265.02,-16.41 257.3,-16.26"/>
<polygon fill="#63b8ff" stroke="#63b8ff" points="281.08,-20.2 291.14,-16.89 281.21,-13.2 281.08,-20.2"/>
</a>
</g>
</g>
<!-- Node6&#45;&gt;Node4 -->
<g id="edge6_Node000006_Node000004" class="edge">
<title>Node6&#45;&gt;Node4</title>
<g id="a_edge6_Node000006_Node000004"><a xlink:title=" ">
<path fill="none" stroke="#63b8ff" d="M133.99,-26.28C125.89,-27.62 117.69,-28.98 109.81,-30.29"/>
<polygon fill="#63b8ff" stroke="#63b8ff" points="134.55,-29.73 143.84,-24.64 133.4,-22.83 134.55,-29.73"/>
</a>
</g>
</g>
</g>
</svg>
