<?xml version="1.0" encoding="UTF-8" standalone="no"?>
<!DOCTYPE svg PUBLIC "-//W3C//DTD SVG 1.1//EN"
 "http://www.w3.org/Graphics/SVG/1.1/DTD/svg11.dtd">
<!-- Generated by graphviz version 12.2.1 (20241206.2353)
 -->
<!-- Title: CUDA_KERNELS/Grid_Cuda_Host_Wrappers.cpp Pages: 1 -->
<svg width="1444pt" height="260pt"
 viewBox="0.00 0.00 1444.25 259.50" xmlns="http://www.w3.org/2000/svg" xmlns:xlink="http://www.w3.org/1999/xlink">
<g id="graph0" class="graph" transform="scale(1 1) rotate(0) translate(4 255.5)">
<title>CUDA_KERNELS/Grid_Cuda_Host_Wrappers.cpp</title>
<!-- Node1 -->
<g id="Node000001" class="node">
<title>Node1</title>
<g id="a_Node000001"><a xlink:title=" ">
<polygon fill="#999999" stroke="#666666" points="828.38,-251.5 681.12,-251.5 681.12,-221 828.38,-221 828.38,-251.5"/>
<text text-anchor="start" x="689.12" y="-238" font-family="Helvetica,sans-Serif" font-size="10.00">CUDA_KERNELS/Grid_Cuda</text>
<text text-anchor="middle" x="754.75" y="-226.75" font-family="Helvetica,sans-Serif" font-size="10.00">_Host_Wrappers.cpp</text>
</a>
</g>
</g>
<!-- Node2 -->
<g id="Node000002" class="node">
<title>Node2</title>
<g id="a_Node000002"><a xlink:href="../../d9/d04/_grid___cuda___kernels_8h.html" target="_top" xlink:title=" ">
<polygon fill="white" stroke="#666666" points="768.25,-129.75 659.25,-129.75 659.25,-110.5 768.25,-110.5 768.25,-129.75"/>
<text text-anchor="middle" x="713.75" y="-116.25" font-family="Helvetica,sans-Serif" font-size="10.00">Grid_Cuda_Kernels.h</text>
</a>
</g>
</g>
<!-- Node1&#45;&gt;Node2 -->
<g id="edge1_Node000001_Node000002" class="edge">
<title>Node1&#45;&gt;Node2</title>
<g id="a_edge1_Node000001_Node000002"><a xlink:title=" ">
<path fill="none" stroke="#63b8ff" d="M746.87,-220.61C741.78,-210.75 735.29,-197.34 730.75,-185 725.46,-170.62 721.06,-153.87 718.07,-141.13"/>
<polygon fill="#63b8ff" stroke="#63b8ff" points="721.5,-140.43 715.89,-131.44 714.67,-141.96 721.5,-140.43"/>
</a>
</g>
</g>
<!-- Node5 -->
<g id="Node000005" class="node">
<title>Node5</title>
<g id="a_Node000005"><a xlink:title=" ">
<polygon fill="#e0e0e0" stroke="#999999" points="53.5,-19.25 0,-19.25 0,0 53.5,0 53.5,-19.25"/>
<text text-anchor="middle" x="26.75" y="-5.75" font-family="Helvetica,sans-Serif" font-size="10.00">iostream</text>
</a>
</g>
</g>
<!-- Node1&#45;&gt;Node5 -->
<g id="edge28_Node000001_Node000005" class="edge">
<title>Node1&#45;&gt;Node5</title>
<g id="a_edge28_Node000001_Node000005"><a xlink:title=" ">
<path fill="none" stroke="#63b8ff" d="M706.98,-220.51C571.55,-178.72 186.98,-60.06 64.62,-22.31"/>
<polygon fill="#63b8ff" stroke="#63b8ff" points="65.98,-19.07 55.39,-19.46 63.92,-25.76 65.98,-19.07"/>
</a>
</g>
</g>
<!-- Node7 -->
<g id="Node000007" class="node">
<title>Node7</title>
<g id="a_Node000007"><a xlink:title=" ">
<polygon fill="#e0e0e0" stroke="#999999" points="1436.25,-19.25 1393.25,-19.25 1393.25,0 1436.25,0 1436.25,-19.25"/>
<text text-anchor="middle" x="1414.75" y="-5.75" font-family="Helvetica,sans-Serif" font-size="10.00">vector</text>
</a>
</g>
</g>
<!-- Node1&#45;&gt;Node7 -->
<g id="edge29_Node000001_Node000007" class="edge">
<title>Node1&#45;&gt;Node7</title>
<g id="a_edge29_Node000001_Node000007"><a xlink:title=" ">
<path fill="none" stroke="#63b8ff" d="M798.05,-220.51C921.59,-178.47 1273.77,-58.61 1382.43,-21.63"/>
<polygon fill="#63b8ff" stroke="#63b8ff" points="1383.25,-25.04 1391.59,-18.51 1381,-18.42 1383.25,-25.04"/>
</a>
</g>
</g>
<!-- Node26 -->
<g id="Node000026" class="node">
<title>Node26</title>
<g id="a_Node000026"><a xlink:href="../../d0/df8/_cuda___kernel___utilities_8h.html" target="_top" xlink:title=" ">
<polygon fill="white" stroke="#666666" points="858.12,-185 739.38,-185 739.38,-165.75 858.12,-165.75 858.12,-185"/>
<text text-anchor="middle" x="798.75" y="-171.5" font-family="Helvetica,sans-Serif" font-size="10.00">Cuda_Kernel_Utilities.h</text>
</a>
</g>
</g>
<!-- Node1&#45;&gt;Node26 -->
<g id="edge25_Node000001_Node000026" class="edge">
<title>Node1&#45;&gt;Node26</title>
<g id="a_edge25_Node000001_Node000026"><a xlink:title=" ">
<path fill="none" stroke="#63b8ff" d="M765.63,-220.7C771.55,-212.77 778.94,-202.88 785.23,-194.46"/>
<polygon fill="#63b8ff" stroke="#63b8ff" points="787.88,-196.77 791.06,-186.66 782.27,-192.58 787.88,-196.77"/>
</a>
</g>
</g>
<!-- Node3 -->
<g id="Node000003" class="node">
<title>Node3</title>
<g id="a_Node000003"><a xlink:title=" ">
<polygon fill="#e0e0e0" stroke="#999999" points="840.12,-74.5 757.38,-74.5 757.38,-55.25 840.12,-55.25 840.12,-74.5"/>
<text text-anchor="middle" x="798.75" y="-61" font-family="Helvetica,sans-Serif" font-size="10.00">cuda_runtime.h</text>
</a>
</g>
</g>
<!-- Node2&#45;&gt;Node3 -->
<g id="edge2_Node000002_Node000003" class="edge">
<title>Node2&#45;&gt;Node3</title>
<g id="a_edge2_Node000002_Node000003"><a xlink:title=" ">
<path fill="none" stroke="#63b8ff" d="M728.17,-110.09C740.87,-102.14 759.62,-90.39 774.61,-81"/>
<polygon fill="#63b8ff" stroke="#63b8ff" points="776.36,-84.03 782.98,-75.76 772.65,-78.1 776.36,-84.03"/>
</a>
</g>
</g>
<!-- Node4 -->
<g id="Node000004" class="node">
<title>Node4</title>
<g id="a_Node000004"><a xlink:href="../../d6/dc2/definitions_8h.html" target="_top" xlink:title="Header file containing global constants, structures, and function declarations for the solver.">
<polygon fill="white" stroke="#666666" points="739.38,-74.5 628.12,-74.5 628.12,-55.25 739.38,-55.25 739.38,-74.5"/>
<text text-anchor="middle" x="683.75" y="-61" font-family="Helvetica,sans-Serif" font-size="10.00">../include/definitions.h</text>
</a>
</g>
</g>
<!-- Node2&#45;&gt;Node4 -->
<g id="edge3_Node000002_Node000004" class="edge">
<title>Node2&#45;&gt;Node4</title>
<g id="a_edge3_Node000002_Node000004"><a xlink:title=" ">
<path fill="none" stroke="#63b8ff" d="M708.8,-110.33C704.87,-103.36 699.24,-93.37 694.31,-84.62"/>
<polygon fill="#63b8ff" stroke="#63b8ff" points="697.51,-83.17 689.55,-76.18 691.41,-86.61 697.51,-83.17"/>
</a>
</g>
</g>
<!-- Node4&#45;&gt;Node5 -->
<g id="edge4_Node000004_Node000005" class="edge">
<title>Node4&#45;&gt;Node5</title>
<g id="a_edge4_Node000004_Node000005"><a xlink:title=" ">
<path fill="none" stroke="#63b8ff" d="M627.63,-63.04C520.08,-60.74 277.4,-52.23 65.15,-19.55"/>
<polygon fill="#63b8ff" stroke="#63b8ff" points="65.71,-16.09 55.29,-18 64.62,-23.01 65.71,-16.09"/>
</a>
</g>
</g>
<!-- Node6 -->
<g id="Node000006" class="node">
<title>Node6</title>
<g id="a_Node000006"><a xlink:title=" ">
<polygon fill="#e0e0e0" stroke="#999999" points="1316.25,-19.25 1267.25,-19.25 1267.25,0 1316.25,0 1316.25,-19.25"/>
<text text-anchor="middle" x="1291.75" y="-5.75" font-family="Helvetica,sans-Serif" font-size="10.00">fstream</text>
</a>
</g>
</g>
<!-- Node4&#45;&gt;Node6 -->
<g id="edge5_Node000004_Node000006" class="edge">
<title>Node4&#45;&gt;Node6</title>
<g id="a_edge5_Node000004_Node000006"><a xlink:title=" ">
<path fill="none" stroke="#63b8ff" d="M739.74,-56.22C742.79,-55.88 745.81,-55.55 748.75,-55.25 971.18,-32.66 1032.57,-55.38 1255.89,-19.44"/>
<polygon fill="#63b8ff" stroke="#63b8ff" points="1256.19,-22.93 1265.5,-17.87 1255.06,-16.02 1256.19,-22.93"/>
</a>
</g>
</g>
<!-- Node4&#45;&gt;Node7 -->
<g id="edge6_Node000004_Node000007" class="edge">
<title>Node4&#45;&gt;Node7</title>
<g id="a_edge6_Node000004_Node000007"><a xlink:title=" ">
<path fill="none" stroke="#63b8ff" d="M739.74,-56.17C742.78,-55.84 745.8,-55.53 748.75,-55.25 1026.46,-28.99 1102.86,-64.44 1381.58,-19.2"/>
<polygon fill="#63b8ff" stroke="#63b8ff" points="1382.07,-22.66 1391.37,-17.59 1380.94,-15.76 1382.07,-22.66"/>
</a>
</g>
</g>
<!-- Node8 -->
<g id="Node000008" class="node">
<title>Node8</title>
<g id="a_Node000008"><a xlink:title=" ">
<polygon fill="#e0e0e0" stroke="#999999" points="1374.75,-19.25 1334.75,-19.25 1334.75,0 1374.75,0 1374.75,-19.25"/>
<text text-anchor="middle" x="1354.75" y="-5.75" font-family="Helvetica,sans-Serif" font-size="10.00">string</text>
</a>
</g>
</g>
<!-- Node4&#45;&gt;Node8 -->
<g id="edge7_Node000004_Node000008" class="edge">
<title>Node4&#45;&gt;Node8</title>
<g id="a_edge7_Node000004_Node000008"><a xlink:title=" ">
<path fill="none" stroke="#63b8ff" d="M739.74,-56.19C742.79,-55.85 745.8,-55.54 748.75,-55.25 1000.86,-30.69 1070.79,-63.22 1323.3,-19.28"/>
<polygon fill="#63b8ff" stroke="#63b8ff" points="1323.56,-22.78 1332.8,-17.6 1322.35,-15.89 1323.56,-22.78"/>
</a>
</g>
</g>
<!-- Node9 -->
<g id="Node000009" class="node">
<title>Node9</title>
<g id="a_Node000009"><a xlink:title=" ">
<polygon fill="#e0e0e0" stroke="#999999" points="114.25,-19.25 71.25,-19.25 71.25,0 114.25,0 114.25,-19.25"/>
<text text-anchor="middle" x="92.75" y="-5.75" font-family="Helvetica,sans-Serif" font-size="10.00">cmath</text>
</a>
</g>
</g>
<!-- Node4&#45;&gt;Node9 -->
<g id="edge8_Node000004_Node000009" class="edge">
<title>Node4&#45;&gt;Node9</title>
<g id="a_edge8_Node000004_Node000009"><a xlink:title=" ">
<path fill="none" stroke="#63b8ff" d="M627.66,-62.96C528.28,-60.56 314.77,-51.94 125.9,-19.26"/>
<polygon fill="#63b8ff" stroke="#63b8ff" points="126.59,-15.83 116.14,-17.54 125.38,-22.72 126.59,-15.83"/>
</a>
</g>
</g>
<!-- Node10 -->
<g id="Node000010" class="node">
<title>Node10</title>
<g id="a_Node000010"><a xlink:title=" ">
<polygon fill="#e0e0e0" stroke="#999999" points="183,-19.25 132.5,-19.25 132.5,0 183,0 183,-19.25"/>
<text text-anchor="middle" x="157.75" y="-5.75" font-family="Helvetica,sans-Serif" font-size="10.00">typeinfo</text>
</a>
</g>
</g>
<!-- Node4&#45;&gt;Node10 -->
<g id="edge9_Node000004_Node000010" class="edge">
<title>Node4&#45;&gt;Node10</title>
<g id="a_edge9_Node000004_Node000010"><a xlink:title=" ">
<path fill="none" stroke="#63b8ff" d="M627.67,-61.67C538.01,-57.52 356.74,-46.55 194.43,-19.45"/>
<polygon fill="#63b8ff" stroke="#63b8ff" points="195.21,-16.04 184.77,-17.81 194.04,-22.94 195.21,-16.04"/>
</a>
</g>
</g>
<!-- Node11 -->
<g id="Node000011" class="node">
<title>Node11</title>
<g id="a_Node000011"><a xlink:title=" ">
<polygon fill="#e0e0e0" stroke="#999999" points="250.62,-19.25 200.88,-19.25 200.88,0 250.62,0 250.62,-19.25"/>
<text text-anchor="middle" x="225.75" y="-5.75" font-family="Helvetica,sans-Serif" font-size="10.00">iomanip</text>
</a>
</g>
</g>
<!-- Node4&#45;&gt;Node11 -->
<g id="edge10_Node000004_Node000011" class="edge">
<title>Node4&#45;&gt;Node11</title>
<g id="a_edge10_Node000004_Node000011"><a xlink:title=" ">
<path fill="none" stroke="#63b8ff" d="M627.83,-60.56C548.52,-55.29 398.71,-43.25 261.99,-19.4"/>
<polygon fill="#63b8ff" stroke="#63b8ff" points="262.86,-16 252.4,-17.7 261.64,-22.89 262.86,-16"/>
</a>
</g>
</g>
<!-- Node12 -->
<g id="Node000012" class="node">
<title>Node12</title>
<g id="a_Node000012"><a xlink:title=" ">
<polygon fill="#e0e0e0" stroke="#999999" points="310.88,-19.25 268.62,-19.25 268.62,0 310.88,0 310.88,-19.25"/>
<text text-anchor="middle" x="289.75" y="-5.75" font-family="Helvetica,sans-Serif" font-size="10.00">cstdio</text>
</a>
</g>
</g>
<!-- Node4&#45;&gt;Node12 -->
<g id="edge11_Node000004_Node000012" class="edge">
<title>Node4&#45;&gt;Node12</title>
<g id="a_edge11_Node000004_Node000012"><a xlink:title=" ">
<path fill="none" stroke="#63b8ff" d="M627.81,-59.78C558.21,-54.07 435.64,-42.02 322.22,-19.47"/>
<polygon fill="#63b8ff" stroke="#63b8ff" points="323.26,-16.11 312.76,-17.56 321.87,-22.97 323.26,-16.11"/>
</a>
</g>
</g>
<!-- Node13 -->
<g id="Node000013" class="node">
<title>Node13</title>
<g id="a_Node000013"><a xlink:title=" ">
<polygon fill="#e0e0e0" stroke="#999999" points="373,-19.25 328.5,-19.25 328.5,0 373,0 373,-19.25"/>
<text text-anchor="middle" x="350.75" y="-5.75" font-family="Helvetica,sans-Serif" font-size="10.00">cstdlib</text>
</a>
</g>
</g>
<!-- Node4&#45;&gt;Node13 -->
<g id="edge12_Node000004_Node000013" class="edge">
<title>Node4&#45;&gt;Node13</title>
<g id="a_edge12_Node000004_Node000013"><a xlink:title=" ">
<path fill="none" stroke="#63b8ff" d="M627.72,-57.72C569.24,-50.82 474.72,-38.34 384.61,-19.64"/>
<polygon fill="#63b8ff" stroke="#63b8ff" points="385.34,-16.22 374.84,-17.58 383.9,-23.07 385.34,-16.22"/>
</a>
</g>
</g>
<!-- Node14 -->
<g id="Node000014" class="node">
<title>Node14</title>
<g id="a_Node000014"><a xlink:title=" ">
<polygon fill="#e0e0e0" stroke="#999999" points="446.62,-19.25 390.88,-19.25 390.88,0 446.62,0 446.62,-19.25"/>
<text text-anchor="middle" x="418.75" y="-5.75" font-family="Helvetica,sans-Serif" font-size="10.00">algorithm</text>
</a>
</g>
</g>
<!-- Node4&#45;&gt;Node14 -->
<g id="edge13_Node000004_Node000014" class="edge">
<title>Node4&#45;&gt;Node14</title>
<g id="a_edge13_Node000004_Node000014"><a xlink:title=" ">
<path fill="none" stroke="#63b8ff" d="M634.72,-54.8C590.92,-46.58 524.71,-33.87 458.13,-19.7"/>
<polygon fill="#63b8ff" stroke="#63b8ff" points="459,-16.31 448.49,-17.64 457.54,-23.15 459,-16.31"/>
</a>
</g>
</g>
<!-- Node15 -->
<g id="Node000015" class="node">
<title>Node15</title>
<g id="a_Node000015"><a xlink:title=" ">
<polygon fill="#e0e0e0" stroke="#999999" points="510.38,-19.25 465.12,-19.25 465.12,0 510.38,0 510.38,-19.25"/>
<text text-anchor="middle" x="487.75" y="-5.75" font-family="Helvetica,sans-Serif" font-size="10.00">chrono</text>
</a>
</g>
</g>
<!-- Node4&#45;&gt;Node15 -->
<g id="edge14_Node000004_Node000015" class="edge">
<title>Node4&#45;&gt;Node15</title>
<g id="a_edge14_Node000004_Node000015"><a xlink:title=" ">
<path fill="none" stroke="#63b8ff" d="M650.5,-54.84C614.63,-45.1 557.8,-29.66 521.67,-19.84"/>
<polygon fill="#63b8ff" stroke="#63b8ff" points="522.75,-16.51 512.18,-17.26 520.91,-23.26 522.75,-16.51"/>
</a>
</g>
</g>
<!-- Node16 -->
<g id="Node000016" class="node">
<title>Node16</title>
<g id="a_Node000016"><a xlink:title=" ">
<polygon fill="#e0e0e0" stroke="#999999" points="568.75,-19.25 528.75,-19.25 528.75,0 568.75,0 568.75,-19.25"/>
<text text-anchor="middle" x="548.75" y="-5.75" font-family="Helvetica,sans-Serif" font-size="10.00">cfloat</text>
</a>
</g>
</g>
<!-- Node4&#45;&gt;Node16 -->
<g id="edge15_Node000004_Node000016" class="edge">
<title>Node4&#45;&gt;Node16</title>
<g id="a_edge15_Node000004_Node000016"><a xlink:title=" ">
<path fill="none" stroke="#63b8ff" d="M660.85,-54.84C638.54,-46.04 604.46,-32.6 579.74,-22.85"/>
<polygon fill="#63b8ff" stroke="#63b8ff" points="581.1,-19.62 570.52,-19.21 578.54,-26.14 581.1,-19.62"/>
</a>
</g>
</g>
<!-- Node17 -->
<g id="Node000017" class="node">
<title>Node17</title>
<g id="a_Node000017"><a xlink:title=" ">
<polygon fill="#e0e0e0" stroke="#999999" points="648.25,-19.25 587.25,-19.25 587.25,0 648.25,0 648.25,-19.25"/>
<text text-anchor="middle" x="617.75" y="-5.75" font-family="Helvetica,sans-Serif" font-size="10.00">filesystem</text>
</a>
</g>
</g>
<!-- Node4&#45;&gt;Node17 -->
<g id="edge16_Node000004_Node000017" class="edge">
<title>Node4&#45;&gt;Node17</title>
<g id="a_edge16_Node000004_Node000017"><a xlink:title=" ">
<path fill="none" stroke="#63b8ff" d="M672.55,-54.84C663.01,-47.15 649.08,-35.9 637.64,-26.68"/>
<polygon fill="#63b8ff" stroke="#63b8ff" points="639.94,-24.03 629.96,-20.48 635.54,-29.48 639.94,-24.03"/>
</a>
</g>
</g>
<!-- Node18 -->
<g id="Node000018" class="node">
<title>Node18</title>
<g id="a_Node000018"><a xlink:title=" ">
<polygon fill="#e0e0e0" stroke="#999999" points="701.12,-19.25 666.38,-19.25 666.38,0 701.12,0 701.12,-19.25"/>
<text text-anchor="middle" x="683.75" y="-5.75" font-family="Helvetica,sans-Serif" font-size="10.00">map</text>
</a>
</g>
</g>
<!-- Node4&#45;&gt;Node18 -->
<g id="edge17_Node000004_Node000018" class="edge">
<title>Node4&#45;&gt;Node18</title>
<g id="a_edge17_Node000004_Node000018"><a xlink:title=" ">
<path fill="none" stroke="#63b8ff" d="M683.75,-55.08C683.75,-48.57 683.75,-39.42 683.75,-31.12"/>
<polygon fill="#63b8ff" stroke="#63b8ff" points="687.25,-31.12 683.75,-21.12 680.25,-31.12 687.25,-31.12"/>
</a>
</g>
</g>
<!-- Node19 -->
<g id="Node000019" class="node">
<title>Node19</title>
<g id="a_Node000019"><a xlink:title=" ">
<polygon fill="#e0e0e0" stroke="#999999" points="778.12,-19.25 719.38,-19.25 719.38,0 778.12,0 778.12,-19.25"/>
<text text-anchor="middle" x="748.75" y="-5.75" font-family="Helvetica,sans-Serif" font-size="10.00">stdexcept</text>
</a>
</g>
</g>
<!-- Node4&#45;&gt;Node19 -->
<g id="edge18_Node000004_Node000019" class="edge">
<title>Node4&#45;&gt;Node19</title>
<g id="a_edge18_Node000004_Node000019"><a xlink:title=" ">
<path fill="none" stroke="#63b8ff" d="M694.78,-54.84C704.17,-47.15 717.9,-35.9 729.16,-26.68"/>
<polygon fill="#63b8ff" stroke="#63b8ff" points="731.2,-29.53 736.72,-20.48 726.76,-24.11 731.2,-29.53"/>
</a>
</g>
</g>
<!-- Node20 -->
<g id="Node000020" class="node">
<title>Node20</title>
<g id="a_Node000020"><a xlink:title=" ">
<polygon fill="#e0e0e0" stroke="#999999" points="847.38,-19.25 796.12,-19.25 796.12,0 847.38,0 847.38,-19.25"/>
<text text-anchor="middle" x="821.75" y="-5.75" font-family="Helvetica,sans-Serif" font-size="10.00">sstream</text>
</a>
</g>
</g>
<!-- Node4&#45;&gt;Node20 -->
<g id="edge19_Node000004_Node000020" class="edge">
<title>Node4&#45;&gt;Node20</title>
<g id="a_edge19_Node000004_Node000020"><a xlink:title=" ">
<path fill="none" stroke="#63b8ff" d="M707.16,-54.84C729.27,-46.31 762.67,-33.42 787.72,-23.76"/>
<polygon fill="#63b8ff" stroke="#63b8ff" points="788.74,-27.11 796.81,-20.25 786.22,-20.58 788.74,-27.11"/>
</a>
</g>
</g>
<!-- Node21 -->
<g id="Node000021" class="node">
<title>Node21</title>
<g id="a_Node000021"><a xlink:title=" ">
<polygon fill="#e0e0e0" stroke="#999999" points="948.12,-19.25 865.38,-19.25 865.38,0 948.12,0 948.12,-19.25"/>
<text text-anchor="middle" x="906.75" y="-5.75" font-family="Helvetica,sans-Serif" font-size="10.00">unordered_map</text>
</a>
</g>
</g>
<!-- Node4&#45;&gt;Node21 -->
<g id="edge20_Node000004_Node000021" class="edge">
<title>Node4&#45;&gt;Node21</title>
<g id="a_edge20_Node000004_Node000021"><a xlink:title=" ">
<path fill="none" stroke="#63b8ff" d="M721.83,-54.78C759.35,-45.82 816.85,-32.09 857.76,-22.32"/>
<polygon fill="#63b8ff" stroke="#63b8ff" points="858.44,-25.76 867.35,-20.03 856.81,-18.95 858.44,-25.76"/>
</a>
</g>
</g>
<!-- Node22 -->
<g id="Node000022" class="node">
<title>Node22</title>
<g id="a_Node000022"><a xlink:title=" ">
<polygon fill="#e0e0e0" stroke="#999999" points="1043.5,-19.25 966,-19.25 966,0 1043.5,0 1043.5,-19.25"/>
<text text-anchor="middle" x="1004.75" y="-5.75" font-family="Helvetica,sans-Serif" font-size="10.00">unordered_set</text>
</a>
</g>
</g>
<!-- Node4&#45;&gt;Node22 -->
<g id="edge21_Node000004_Node000022" class="edge">
<title>Node4&#45;&gt;Node22</title>
<g id="a_edge21_Node000004_Node000022"><a xlink:title=" ">
<path fill="none" stroke="#63b8ff" d="M739.74,-54.99C792.47,-46.56 873.99,-33.37 954.39,-19.63"/>
<polygon fill="#63b8ff" stroke="#63b8ff" points="954.97,-23.08 964.23,-17.95 953.79,-16.18 954.97,-23.08"/>
</a>
</g>
</g>
<!-- Node23 -->
<g id="Node000023" class="node">
<title>Node23</title>
<g id="a_Node000023"><a xlink:title=" ">
<polygon fill="#e0e0e0" stroke="#999999" points="1098.25,-19.25 1061.25,-19.25 1061.25,0 1098.25,0 1098.25,-19.25"/>
<text text-anchor="middle" x="1079.75" y="-5.75" font-family="Helvetica,sans-Serif" font-size="10.00">tuple</text>
</a>
</g>
</g>
<!-- Node4&#45;&gt;Node23 -->
<g id="edge22_Node000004_Node000023" class="edge">
<title>Node4&#45;&gt;Node23</title>
<g id="a_edge22_Node000004_Node000023"><a xlink:title=" ">
<path fill="none" stroke="#63b8ff" d="M739.76,-56.39C742.8,-56 745.81,-55.62 748.75,-55.25 880.19,-38.75 917.82,-47.59 1050.04,-19.49"/>
<polygon fill="#63b8ff" stroke="#63b8ff" points="1050.48,-22.97 1059.51,-17.44 1049,-16.13 1050.48,-22.97"/>
</a>
</g>
</g>
<!-- Node24 -->
<g id="Node000024" class="node">
<title>Node24</title>
<g id="a_Node000024"><a xlink:title=" ">
<polygon fill="#e0e0e0" stroke="#999999" points="1145.5,-19.25 1116,-19.25 1116,0 1145.5,0 1145.5,-19.25"/>
<text text-anchor="middle" x="1130.75" y="-5.75" font-family="Helvetica,sans-Serif" font-size="10.00">set</text>
</a>
</g>
</g>
<!-- Node4&#45;&gt;Node24 -->
<g id="edge23_Node000004_Node000024" class="edge">
<title>Node4&#45;&gt;Node24</title>
<g id="a_edge23_Node000004_Node000024"><a xlink:title=" ">
<path fill="none" stroke="#63b8ff" d="M739.76,-56.33C742.8,-55.95 745.81,-55.59 748.75,-55.25 904.45,-37.12 949.58,-54.87 1104.71,-19.47"/>
<polygon fill="#63b8ff" stroke="#63b8ff" points="1105.16,-22.96 1114.11,-17.28 1103.57,-16.14 1105.16,-22.96"/>
</a>
</g>
</g>
<!-- Node25 -->
<g id="Node000025" class="node">
<title>Node25</title>
<g id="a_Node000025"><a xlink:title=" ">
<polygon fill="#e0e0e0" stroke="#999999" points="1249.62,-19.25 1163.88,-19.25 1163.88,0 1249.62,0 1249.62,-19.25"/>
<text text-anchor="middle" x="1206.75" y="-5.75" font-family="Helvetica,sans-Serif" font-size="10.00">boost/regex.hpp</text>
</a>
</g>
</g>
<!-- Node4&#45;&gt;Node25 -->
<g id="edge24_Node000004_Node000025" class="edge">
<title>Node4&#45;&gt;Node25</title>
<g id="a_edge24_Node000004_Node000025"><a xlink:title=" ">
<path fill="none" stroke="#63b8ff" d="M739.75,-56.29C742.79,-55.92 745.81,-55.58 748.75,-55.25 925.2,-35.73 973.14,-41.83 1152.5,-19.44"/>
<polygon fill="#63b8ff" stroke="#63b8ff" points="1152.67,-22.95 1162.16,-18.22 1151.8,-16 1152.67,-22.95"/>
</a>
</g>
</g>
<!-- Node26&#45;&gt;Node2 -->
<g id="edge27_Node000026_Node000002" class="edge">
<title>Node26&#45;&gt;Node2</title>
<g id="a_edge27_Node000026_Node000002"><a xlink:title=" ">
<path fill="none" stroke="#63b8ff" d="M784.33,-165.34C771.63,-157.39 752.88,-145.64 737.89,-136.25"/>
<polygon fill="#63b8ff" stroke="#63b8ff" points="739.85,-133.35 729.52,-131.01 736.14,-139.28 739.85,-133.35"/>
</a>
</g>
</g>
<!-- Node26&#45;&gt;Node3 -->
<g id="edge26_Node000026_Node000003" class="edge">
<title>Node26&#45;&gt;Node3</title>
<g id="a_edge26_Node000026_Node000003"><a xlink:title=" ">
<path fill="none" stroke="#63b8ff" d="M798.75,-165.5C798.75,-148.25 798.75,-109.83 798.75,-86.06"/>
<polygon fill="#63b8ff" stroke="#63b8ff" points="802.25,-86.39 798.75,-76.39 795.25,-86.39 802.25,-86.39"/>
</a>
</g>
</g>
</g>
</svg>
