<?xml version="1.0" encoding="UTF-8" standalone="no"?>
<!DOCTYPE svg PUBLIC "-//W3C//DTD SVG 1.1//EN"
 "http://www.w3.org/Graphics/SVG/1.1/DTD/svg11.dtd">
<!-- Generated by graphviz version 12.2.1 (20241206.2353)
 -->
<!-- Title: Incompressible_Solver/CType_Elliptic_Grid_Modified.cpp Pages: 1 -->
<svg width="250pt" height="105pt"
 viewBox="0.00 0.00 250.25 105.00" xmlns="http://www.w3.org/2000/svg" xmlns:xlink="http://www.w3.org/1999/xlink">
<g id="graph0" class="graph" transform="scale(1 1) rotate(0) translate(4 101)">
<title>Incompressible_Solver/CType_Elliptic_Grid_Modified.cpp</title>
<!-- Node1 -->
<g id="Node000001" class="node">
<title>Node1</title>
<g id="a_Node000001"><a xlink:title=" ">
<polygon fill="#999999" stroke="#666666" points="180.25,-97 65.25,-97 65.25,-55.25 180.25,-55.25 180.25,-97"/>
<text text-anchor="start" x="73.25" y="-83.5" font-family="Helvetica,sans-Serif" font-size="10.00">Incompressible_Solver</text>
<text text-anchor="start" x="73.25" y="-72.25" font-family="Helvetica,sans-Serif" font-size="10.00">/CType_Elliptic_Grid</text>
<text text-anchor="middle" x="122.75" y="-61" font-family="Helvetica,sans-Serif" font-size="10.00">_Modified.cpp</text>
</a>
</g>
</g>
<!-- Node2 -->
<g id="Node000002" class="node">
<title>Node2</title>
<g id="a_Node000002"><a xlink:title=" ">
<polygon fill="#e0e0e0" stroke="#999999" points="53.5,-19.25 0,-19.25 0,0 53.5,0 53.5,-19.25"/>
<text text-anchor="middle" x="26.75" y="-5.75" font-family="Helvetica,sans-Serif" font-size="10.00">iostream</text>
</a>
</g>
</g>
<!-- Node1&#45;&gt;Node2 -->
<g id="edge1_Node000001_Node000002" class="edge">
<title>Node1&#45;&gt;Node2</title>
<g id="a_edge1_Node000001_Node000002"><a xlink:title=" ">
<path fill="none" stroke="#63b8ff" d="M92.64,-54.89C78.75,-45.57 62.54,-34.67 49.67,-26.02"/>
<polygon fill="#63b8ff" stroke="#63b8ff" points="51.68,-23.16 41.43,-20.49 47.78,-28.97 51.68,-23.16"/>
</a>
</g>
</g>
<!-- Node3 -->
<g id="Node000003" class="node">
<title>Node3</title>
<g id="a_Node000003"><a xlink:title=" ">
<polygon fill="#e0e0e0" stroke="#999999" points="114.25,-19.25 71.25,-19.25 71.25,0 114.25,0 114.25,-19.25"/>
<text text-anchor="middle" x="92.75" y="-5.75" font-family="Helvetica,sans-Serif" font-size="10.00">vector</text>
</a>
</g>
</g>
<!-- Node1&#45;&gt;Node3 -->
<g id="edge2_Node000001_Node000003" class="edge">
<title>Node1&#45;&gt;Node3</title>
<g id="a_edge2_Node000001_Node000003"><a xlink:title=" ">
<path fill="none" stroke="#63b8ff" d="M113.42,-55.07C109.72,-47.12 105.49,-38.01 101.81,-30.11"/>
<polygon fill="#63b8ff" stroke="#63b8ff" points="105,-28.66 97.61,-21.07 98.65,-31.61 105,-28.66"/>
</a>
</g>
</g>
<!-- Node4 -->
<g id="Node000004" class="node">
<title>Node4</title>
<g id="a_Node000004"><a xlink:title=" ">
<polygon fill="#e0e0e0" stroke="#999999" points="175.25,-19.25 132.25,-19.25 132.25,0 175.25,0 175.25,-19.25"/>
<text text-anchor="middle" x="153.75" y="-5.75" font-family="Helvetica,sans-Serif" font-size="10.00">cmath</text>
</a>
</g>
</g>
<!-- Node1&#45;&gt;Node4 -->
<g id="edge3_Node000001_Node000004" class="edge">
<title>Node1&#45;&gt;Node4</title>
<g id="a_edge3_Node000001_Node000004"><a xlink:title=" ">
<path fill="none" stroke="#63b8ff" d="M132.39,-55.07C136.25,-47.03 140.69,-37.8 144.52,-29.84"/>
<polygon fill="#63b8ff" stroke="#63b8ff" points="147.56,-31.59 148.73,-21.06 141.25,-28.56 147.56,-31.59"/>
</a>
</g>
</g>
<!-- Node5 -->
<g id="Node000005" class="node">
<title>Node5</title>
<g id="a_Node000005"><a xlink:title=" ">
<polygon fill="#e0e0e0" stroke="#999999" points="242.25,-19.25 193.25,-19.25 193.25,0 242.25,0 242.25,-19.25"/>
<text text-anchor="middle" x="217.75" y="-5.75" font-family="Helvetica,sans-Serif" font-size="10.00">fstream</text>
</a>
</g>
</g>
<!-- Node1&#45;&gt;Node5 -->
<g id="edge4_Node000001_Node000005" class="edge">
<title>Node1&#45;&gt;Node5</title>
<g id="a_edge4_Node000001_Node000005"><a xlink:title=" ">
<path fill="none" stroke="#63b8ff" d="M152.55,-54.89C166.29,-45.57 182.33,-34.67 195.07,-26.02"/>
<polygon fill="#63b8ff" stroke="#63b8ff" points="196.91,-29.01 203.21,-20.49 192.97,-23.22 196.91,-29.01"/>
</a>
</g>
</g>
</g>
</svg>
