<?xml version="1.0" encoding="UTF-8" standalone="no"?>
<!DOCTYPE svg PUBLIC "-//W3C//DTD SVG 1.1//EN"
 "http://www.w3.org/Graphics/SVG/1.1/DTD/svg11.dtd">
<!-- Generated by graphviz version 12.2.1 (20241206.2353)
 -->
<!-- Title: Gmsh_Grids/Convert_Tri_to_Quad.cpp Pages: 1 -->
<svg width="359pt" height="94pt"
 viewBox="0.00 0.00 359.38 93.75" xmlns="http://www.w3.org/2000/svg" xmlns:xlink="http://www.w3.org/1999/xlink">
<g id="graph0" class="graph" transform="scale(1 1) rotate(0) translate(4 89.75)">
<title>Gmsh_Grids/Convert_Tri_to_Quad.cpp</title>
<!-- Node1 -->
<g id="Node000001" class="node">
<title>Node1</title>
<g id="a_Node000001"><a xlink:title=" ">
<polygon fill="#999999" stroke="#666666" points="227.88,-85.75 119.62,-85.75 119.62,-55.25 227.88,-55.25 227.88,-85.75"/>
<text text-anchor="start" x="127.62" y="-72.25" font-family="Helvetica,sans-Serif" font-size="10.00">Gmsh_Grids/Convert</text>
<text text-anchor="middle" x="173.75" y="-61" font-family="Helvetica,sans-Serif" font-size="10.00">_Tri_to_Quad.cpp</text>
</a>
</g>
</g>
<!-- Node2 -->
<g id="Node000002" class="node">
<title>Node2</title>
<g id="a_Node000002"><a xlink:title=" ">
<polygon fill="#e0e0e0" stroke="#999999" points="53.5,-19.25 0,-19.25 0,0 53.5,0 53.5,-19.25"/>
<text text-anchor="middle" x="26.75" y="-5.75" font-family="Helvetica,sans-Serif" font-size="10.00">iostream</text>
</a>
</g>
</g>
<!-- Node1&#45;&gt;Node2 -->
<g id="edge1_Node000001_Node000002" class="edge">
<title>Node1&#45;&gt;Node2</title>
<g id="a_edge1_Node000001_Node000002"><a xlink:title=" ">
<path fill="none" stroke="#63b8ff" d="M137.03,-54.8C113.36,-45.31 82.82,-33.08 59.88,-23.89"/>
<polygon fill="#63b8ff" stroke="#63b8ff" points="61.28,-20.69 50.7,-20.22 58.68,-27.18 61.28,-20.69"/>
</a>
</g>
</g>
<!-- Node3 -->
<g id="Node000003" class="node">
<title>Node3</title>
<g id="a_Node000003"><a xlink:title=" ">
<polygon fill="#e0e0e0" stroke="#999999" points="114.25,-19.25 71.25,-19.25 71.25,0 114.25,0 114.25,-19.25"/>
<text text-anchor="middle" x="92.75" y="-5.75" font-family="Helvetica,sans-Serif" font-size="10.00">vector</text>
</a>
</g>
</g>
<!-- Node1&#45;&gt;Node3 -->
<g id="edge2_Node000001_Node000003" class="edge">
<title>Node1&#45;&gt;Node3</title>
<g id="a_edge2_Node000001_Node000003"><a xlink:title=" ">
<path fill="none" stroke="#63b8ff" d="M153.73,-54.95C141.75,-46.24 126.53,-35.18 114.29,-26.28"/>
<polygon fill="#63b8ff" stroke="#63b8ff" points="116.61,-23.64 106.46,-20.59 112.49,-29.3 116.61,-23.64"/>
</a>
</g>
</g>
<!-- Node4 -->
<g id="Node000004" class="node">
<title>Node4</title>
<g id="a_Node000004"><a xlink:title=" ">
<polygon fill="#e0e0e0" stroke="#999999" points="215.12,-19.25 132.38,-19.25 132.38,0 215.12,0 215.12,-19.25"/>
<text text-anchor="middle" x="173.75" y="-5.75" font-family="Helvetica,sans-Serif" font-size="10.00">unordered_map</text>
</a>
</g>
</g>
<!-- Node1&#45;&gt;Node4 -->
<g id="edge3_Node000001_Node000004" class="edge">
<title>Node1&#45;&gt;Node4</title>
<g id="a_edge3_Node000001_Node000004"><a xlink:title=" ">
<path fill="none" stroke="#63b8ff" d="M173.75,-54.95C173.75,-47.71 173.75,-38.84 173.75,-30.94"/>
<polygon fill="#63b8ff" stroke="#63b8ff" points="177.25,-31.21 173.75,-21.21 170.25,-31.21 177.25,-31.21"/>
</a>
</g>
</g>
<!-- Node5 -->
<g id="Node000005" class="node">
<title>Node5</title>
<g id="a_Node000005"><a xlink:title=" ">
<polygon fill="#e0e0e0" stroke="#999999" points="282.25,-19.25 233.25,-19.25 233.25,0 282.25,0 282.25,-19.25"/>
<text text-anchor="middle" x="257.75" y="-5.75" font-family="Helvetica,sans-Serif" font-size="10.00">fstream</text>
</a>
</g>
</g>
<!-- Node1&#45;&gt;Node5 -->
<g id="edge4_Node000001_Node000005" class="edge">
<title>Node1&#45;&gt;Node5</title>
<g id="a_edge4_Node000001_Node000005"><a xlink:title=" ">
<path fill="none" stroke="#63b8ff" d="M194.51,-54.95C206.93,-46.24 222.72,-35.18 235.41,-26.28"/>
<polygon fill="#63b8ff" stroke="#63b8ff" points="237.38,-29.18 243.56,-20.57 233.36,-23.44 237.38,-29.18"/>
</a>
</g>
</g>
<!-- Node6 -->
<g id="Node000006" class="node">
<title>Node6</title>
<g id="a_Node000006"><a xlink:title=" ">
<polygon fill="#e0e0e0" stroke="#999999" points="351.38,-19.25 300.12,-19.25 300.12,0 351.38,0 351.38,-19.25"/>
<text text-anchor="middle" x="325.75" y="-5.75" font-family="Helvetica,sans-Serif" font-size="10.00">sstream</text>
</a>
</g>
</g>
<!-- Node1&#45;&gt;Node6 -->
<g id="edge5_Node000001_Node000006" class="edge">
<title>Node1&#45;&gt;Node6</title>
<g id="a_edge5_Node000001_Node000006"><a xlink:title=" ">
<path fill="none" stroke="#63b8ff" d="M211.71,-54.8C236.31,-45.27 268.06,-32.97 291.82,-23.77"/>
<polygon fill="#63b8ff" stroke="#63b8ff" points="292.97,-27.08 301.03,-20.2 290.44,-20.55 292.97,-27.08"/>
</a>
</g>
</g>
</g>
</svg>
