<?xml version="1.0" encoding="UTF-8" standalone="no"?>
<!DOCTYPE svg PUBLIC "-//W3C//DTD SVG 1.1//EN"
 "http://www.w3.org/Graphics/SVG/1.1/DTD/svg11.dtd">
<!-- Generated by graphviz version 12.2.1 (20241206.2353)
 -->
<!-- Title: RICCA Pages: 1 -->
<svg width="207pt" height="45pt"
 viewBox="0.00 0.00 206.50 45.25" xmlns="http://www.w3.org/2000/svg" xmlns:xlink="http://www.w3.org/1999/xlink">
<g id="graph0" class="graph" transform="scale(1 1) rotate(0) translate(4 41.25)">
<title>RICCA</title>
<!-- Node1 -->
<g id="Node000001" class="node">
<title>Node1</title>
<g id="a_Node000001"><a xlink:title="Computes the dissipative flux for a given cell and face using the RICCA method.">
<polygon fill="#999999" stroke="#666666" points="48.25,-19.25 0,-19.25 0,0 48.25,0 48.25,-19.25"/>
<text text-anchor="middle" x="24.12" y="-5.75" font-family="Helvetica,sans-Serif" font-size="10.00">RICCA</text>
</a>
</g>
</g>
<!-- Node1&#45;&gt;Node1 -->
<g id="edge3_Node000001_Node000001" class="edge">
<title>Node1&#45;&gt;Node1</title>
<g id="a_edge3_Node000001_Node000001"><a xlink:title=" ">
<path fill="none" stroke="#63b8ff" d="M5.77,-19.54C-2.6,-28.15 3.51,-37.25 24.12,-37.25 35.4,-37.25 42.33,-34.53 44.94,-30.65"/>
<polygon fill="#63b8ff" stroke="#63b8ff" points="48.38,-30.03 42.81,-21.02 41.55,-31.54 48.38,-30.03"/>
</a>
</g>
</g>
<!-- Node2 -->
<g id="Node000002" class="node">
<title>Node2</title>
<g id="a_Node000002"><a xlink:href="../../d6/d22/_r_i_c_c_a_8cpp_aed1d8bf7f1afd6d7e89c781f4922d05c.html#aed1d8bf7f1afd6d7e89c781f4922d05c" target="_top" xlink:title="Computes the Alpha parameter for the RICCA condition based on input variables.">
<polygon fill="white" stroke="#666666" points="198.5,-19.25 84.25,-19.25 84.25,0 198.5,0 198.5,-19.25"/>
<text text-anchor="middle" x="141.38" y="-5.75" font-family="Helvetica,sans-Serif" font-size="10.00">Condition_For_RICCA</text>
</a>
</g>
</g>
<!-- Node1&#45;&gt;Node2 -->
<g id="edge1_Node000001_Node000002" class="edge">
<title>Node1&#45;&gt;Node2</title>
<g id="a_edge1_Node000001_Node000002"><a xlink:title=" ">
<path fill="none" stroke="#63b8ff" d="M48.73,-9.62C55.87,-9.62 64.1,-9.62 72.63,-9.62"/>
<polygon fill="#63b8ff" stroke="#63b8ff" points="72.45,-13.13 82.45,-9.63 72.45,-6.13 72.45,-13.13"/>
</a>
</g>
</g>
<!-- Node2&#45;&gt;Node2 -->
<g id="edge2_Node000002_Node000002" class="edge">
<title>Node2&#45;&gt;Node2</title>
<g id="a_edge2_Node000002_Node000002"><a xlink:title=" ">
<path fill="none" stroke="#63b8ff" d="M123.02,-19.54C114.65,-28.15 120.76,-37.25 141.38,-37.25 152.65,-37.25 159.58,-34.53 162.19,-30.65"/>
<polygon fill="#63b8ff" stroke="#63b8ff" points="165.63,-30.03 160.06,-21.02 158.8,-31.54 165.63,-30.03"/>
</a>
</g>
</g>
</g>
</svg>
