<?xml version="1.0" encoding="UTF-8" standalone="no"?>
<!DOCTYPE svg PUBLIC "-//W3C//DTD SVG 1.1//EN"
 "http://www.w3.org/Graphics/SVG/1.1/DTD/svg11.dtd">
<!-- Generated by graphviz version 12.2.1 (20241206.2353)
 -->
<!-- Title: RICCA_2O Pages: 1 -->
<svg width="295pt" height="64pt"
 viewBox="0.00 0.00 295.25 64.25" xmlns="http://www.w3.org/2000/svg" xmlns:xlink="http://www.w3.org/1999/xlink">
<g id="graph0" class="graph" transform="scale(1 1) rotate(0) translate(4 60.25)">
<title>RICCA_2O</title>
<!-- Node1 -->
<g id="Node000001" class="node">
<title>Node1</title>
<g id="a_Node000001"><a xlink:title="Computes the dissipative flux for a given cell and face using the second&#45;order RICCA method.">
<polygon fill="#999999" stroke="#666666" points="66.25,-37.25 0,-37.25 0,-18 66.25,-18 66.25,-37.25"/>
<text text-anchor="middle" x="33.12" y="-23.75" font-family="Helvetica,sans-Serif" font-size="10.00">RICCA_2O</text>
</a>
</g>
</g>
<!-- Node2 -->
<g id="Node000002" class="node">
<title>Node2</title>
<g id="a_Node000002"><a xlink:href="../../d6/d22/_r_i_c_c_a_8cpp_aed1d8bf7f1afd6d7e89c781f4922d05c.html#aed1d8bf7f1afd6d7e89c781f4922d05c" target="_top" xlink:title="Computes the Alpha parameter for the RICCA condition based on input variables.">
<polygon fill="white" stroke="#666666" points="216.5,-56.25 102.25,-56.25 102.25,-37 216.5,-37 216.5,-56.25"/>
<text text-anchor="middle" x="159.38" y="-42.75" font-family="Helvetica,sans-Serif" font-size="10.00">Condition_For_RICCA</text>
</a>
</g>
</g>
<!-- Node1&#45;&gt;Node2 -->
<g id="edge1_Node000001_Node000002" class="edge">
<title>Node1&#45;&gt;Node2</title>
<g id="a_edge1_Node000001_Node000002"><a xlink:title=" ">
<path fill="none" stroke="#63b8ff" d="M66.45,-32.57C74.05,-33.73 82.42,-35.01 90.94,-36.31"/>
<polygon fill="#63b8ff" stroke="#63b8ff" points="90.24,-39.75 100.66,-37.8 91.3,-32.83 90.24,-39.75"/>
</a>
</g>
</g>
<!-- Node4 -->
<g id="Node000004" class="node">
<title>Node4</title>
<g id="a_Node000004"><a xlink:href="../../d6/dc2/definitions_8h_acb22222e1b85c7aae820fda4167e47a9.html#acb22222e1b85c7aae820fda4167e47a9" target="_top" xlink:title=" ">
<polygon fill="white" stroke="#666666" points="215.75,-19.25 103,-19.25 103,0 215.75,0 215.75,-19.25"/>
<text text-anchor="middle" x="159.38" y="-5.75" font-family="Helvetica,sans-Serif" font-size="10.00">Second_Order_Limiter</text>
</a>
</g>
</g>
<!-- Node1&#45;&gt;Node4 -->
<g id="edge3_Node000001_Node000004" class="edge">
<title>Node1&#45;&gt;Node4</title>
<g id="a_edge3_Node000001_Node000004"><a xlink:title=" ">
<path fill="none" stroke="#63b8ff" d="M66.45,-22.94C74.15,-21.83 82.64,-20.6 91.27,-19.35"/>
<polygon fill="#63b8ff" stroke="#63b8ff" points="91.74,-22.81 101.14,-17.92 90.74,-15.89 91.74,-22.81"/>
</a>
</g>
</g>
<!-- Node3 -->
<g id="Node000003" class="node">
<title>Node3</title>
<g id="a_Node000003"><a xlink:href="../../dd/d6e/_source_8cpp_ad1286ce446bd24bcbdfecfe85808c943.html#ad1286ce446bd24bcbdfecfe85808c943" target="_top" xlink:title=" ">
<polygon fill="white" stroke="#666666" points="287.25,-56.25 252.5,-56.25 252.5,-37 287.25,-37 287.25,-56.25"/>
<text text-anchor="middle" x="269.88" y="-42.75" font-family="Helvetica,sans-Serif" font-size="10.00">max</text>
</a>
</g>
</g>
<!-- Node2&#45;&gt;Node3 -->
<g id="edge2_Node000002_Node000003" class="edge">
<title>Node2&#45;&gt;Node3</title>
<g id="a_edge2_Node000002_Node000003"><a xlink:title=" ">
<path fill="none" stroke="#63b8ff" d="M216.85,-46.62C225.16,-46.62 233.41,-46.62 240.8,-46.62"/>
<polygon fill="#63b8ff" stroke="#63b8ff" points="240.78,-50.13 250.78,-46.63 240.78,-43.13 240.78,-50.13"/>
</a>
</g>
</g>
</g>
</svg>
