<?xml version="1.0" encoding="UTF-8" standalone="no"?>
<!DOCTYPE svg PUBLIC "-//W3C//DTD SVG 1.1//EN"
 "http://www.w3.org/Graphics/SVG/1.1/DTD/svg11.dtd">
<!-- Generated by graphviz version 12.2.1 (20241206.2353)
 -->
<!-- Title: MinMod Pages: 1 -->
<svg width="207pt" height="64pt"
 viewBox="0.00 0.00 207.25 64.25" xmlns="http://www.w3.org/2000/svg" xmlns:xlink="http://www.w3.org/1999/xlink">
<g id="graph0" class="graph" transform="scale(1 1) rotate(0) translate(4 60.25)">
<title>MinMod</title>
<!-- Node1 -->
<g id="Node000001" class="node">
<title>Node1</title>
<g id="a_Node000001"><a xlink:title="Computes the MinMod limiter for three input values and updates the result in the provided reference.">
<polygon fill="#999999" stroke="#666666" points="199.25,-37.25 148.75,-37.25 148.75,-18 199.25,-18 199.25,-37.25"/>
<text text-anchor="middle" x="174" y="-23.75" font-family="Helvetica,sans-Serif" font-size="10.00">MinMod</text>
</a>
</g>
</g>
<!-- Node1&#45;&gt;Node1 -->
<g id="edge2_Node000001_Node000001" class="edge">
<title>Node1&#45;&gt;Node1</title>
<g id="a_edge2_Node000001_Node000001"><a xlink:title=" ">
<path fill="none" stroke="#63b8ff" d="M194.88,-48.65C192.27,-52.53 185.31,-55.25 174,-55.25 153.32,-55.25 147.19,-46.15 155.59,-37.54"/>
<polygon fill="#63b8ff" stroke="#63b8ff" points="198.32,-48.02 192.74,-39.02 191.49,-49.54 198.32,-48.02"/>
</a>
</g>
</g>
<!-- Node2 -->
<g id="Node000002" class="node">
<title>Node2</title>
<g id="a_Node000002"><a xlink:href="../../d0/da3/_limiters_8cpp_a8f138aaa6da77082b207126101b2c525.html#a8f138aaa6da77082b207126101b2c525" target="_top" xlink:title="Computes the MinMod limiter for two input values.">
<polygon fill="white" stroke="#666666" points="81.62,-56.25 31.12,-56.25 31.12,-37 81.62,-37 81.62,-56.25"/>
<text text-anchor="middle" x="56.38" y="-42.75" font-family="Helvetica,sans-Serif" font-size="10.00">MinMod</text>
</a>
</g>
</g>
<!-- Node1&#45;&gt;Node2 -->
<g id="edge1_Node000001_Node000002" class="edge">
<title>Node1&#45;&gt;Node2</title>
<g id="a_edge1_Node000001_Node000002"><a xlink:title=" ">
<path fill="none" stroke="#63b8ff" d="M137.24,-33.5C119.27,-36.45 97.95,-39.96 81.86,-42.6"/>
<polygon fill="#63b8ff" stroke="#63b8ff" points="137.69,-36.98 146.99,-31.9 136.55,-30.07 137.69,-36.98"/>
</a>
</g>
</g>
<!-- Node3 -->
<g id="Node000003" class="node">
<title>Node3</title>
<g id="a_Node000003"><a xlink:href="../../d0/da3/_limiters_8cpp_a6bdb2d5e0ff963b9b5b395dc79a19acd.html#a6bdb2d5e0ff963b9b5b395dc79a19acd" target="_top" xlink:title="Computes the second&#45;order limited slopes and reconstructs variables for a given cell and face.">
<polygon fill="white" stroke="#666666" points="112.75,-19.25 0,-19.25 0,0 112.75,0 112.75,-19.25"/>
<text text-anchor="middle" x="56.38" y="-5.75" font-family="Helvetica,sans-Serif" font-size="10.00">Second_Order_Limiter</text>
</a>
</g>
</g>
<!-- Node1&#45;&gt;Node3 -->
<g id="edge3_Node000001_Node000003" class="edge">
<title>Node1&#45;&gt;Node3</title>
<g id="a_edge3_Node000001_Node000003"><a xlink:title=" ">
<path fill="none" stroke="#63b8ff" d="M137.26,-22.06C129.5,-20.85 121.11,-19.55 112.79,-18.25"/>
<polygon fill="#63b8ff" stroke="#63b8ff" points="136.56,-25.49 146.98,-23.57 137.64,-18.58 136.56,-25.49"/>
</a>
</g>
</g>
</g>
</svg>
