<?xml version="1.0" encoding="UTF-8" standalone="no"?>
<!DOCTYPE svg PUBLIC "-//W3C//DTD SVG 1.1//EN"
 "http://www.w3.org/Graphics/SVG/1.1/DTD/svg11.dtd">
<!-- Generated by graphviz version 12.2.1 (20241206.2353)
 -->
<!-- Title: Construct_Cell Pages: 1 -->
<svg width="929pt" height="906pt"
 viewBox="0.00 0.00 928.50 906.25" xmlns="http://www.w3.org/2000/svg" xmlns:xlink="http://www.w3.org/1999/xlink">
<g id="graph0" class="graph" transform="scale(1 1) rotate(0) translate(4 902.25)">
<title>Construct_Cell</title>
<!-- Node1 -->
<g id="Node000001" class="node">
<title>Node1</title>
<g id="a_Node000001"><a xlink:title=" ">
<polygon fill="#999999" stroke="#666666" points="920.5,-454.25 839.25,-454.25 839.25,-435 920.5,-435 920.5,-454.25"/>
<text text-anchor="middle" x="879.88" y="-440.75" font-family="Helvetica,sans-Serif" font-size="10.00">Construct_Cell</text>
</a>
</g>
</g>
<!-- Node2 -->
<g id="Node000002" class="node">
<title>Node2</title>
<g id="a_Node000002"><a xlink:href="../../d8/d40/_grid___computations_8cpp_a2a7d5e3797b95ac44cb8a15b997d7ef9.html#a2a7d5e3797b95ac44cb8a15b997d7ef9" target="_top" xlink:title=" ">
<polygon fill="white" stroke="#666666" points="784.5,-898.25 703.25,-898.25 703.25,-879 784.5,-879 784.5,-898.25"/>
<text text-anchor="middle" x="743.88" y="-884.75" font-family="Helvetica,sans-Serif" font-size="10.00">Construct_Cell</text>
</a>
</g>
</g>
<!-- Node1&#45;&gt;Node2 -->
<g id="edge1_Node000001_Node000002" class="edge">
<title>Node1&#45;&gt;Node2</title>
<g id="a_edge1_Node000001_Node000002"><a xlink:title=" ">
<path fill="none" stroke="#63b8ff" d="M877.69,-466.1C873.05,-542.79 853.86,-801.97 803.25,-864.62 798.36,-870.68 791.69,-875.22 784.61,-878.62"/>
<polygon fill="#63b8ff" stroke="#63b8ff" points="881.18,-466.39 878.26,-456.2 874.19,-465.98 881.18,-466.39"/>
</a>
</g>
</g>
<!-- Node3 -->
<g id="Node000003" class="node">
<title>Node3</title>
<g id="a_Node000003"><a xlink:href="../../d8/d40/_grid___computations_8cpp_ae5f2b7a0fdbc48f8fdf897222b7ded04.html#ae5f2b7a0fdbc48f8fdf897222b7ded04" target="_top" xlink:title=" ">
<polygon fill="white" stroke="#666666" points="802.88,-491.25 684.88,-491.25 684.88,-472 802.88,-472 802.88,-491.25"/>
<text text-anchor="middle" x="743.88" y="-477.75" font-family="Helvetica,sans-Serif" font-size="10.00">Construct_Ghost_Cells</text>
</a>
</g>
</g>
<!-- Node1&#45;&gt;Node3 -->
<g id="edge2_Node000001_Node000003" class="edge">
<title>Node1&#45;&gt;Node3</title>
<g id="a_edge2_Node000001_Node000003"><a xlink:title=" ">
<path fill="none" stroke="#63b8ff" d="M831.25,-457.78C814.87,-462.3 796.8,-467.29 781.45,-471.53"/>
<polygon fill="#63b8ff" stroke="#63b8ff" points="832.09,-461.17 840.8,-455.14 830.23,-454.43 832.09,-461.17"/>
</a>
</g>
</g>
<!-- Node6 -->
<g id="Node000006" class="node">
<title>Node6</title>
<g id="a_Node000006"><a xlink:href="../../dd/dbf/_euler___python___wrapper_8cpp_ac5ccb50c3be270f798e054dd36987442.html#ac5ccb50c3be270f798e054dd36987442" target="_top" xlink:title=" ">
<polygon fill="white" stroke="#666666" points="185.75,-474.25 73,-474.25 73,-455 185.75,-455 185.75,-474.25"/>
<text text-anchor="middle" x="129.38" y="-460.75" font-family="Helvetica,sans-Serif" font-size="10.00">PYBIND11_MODULE</text>
</a>
</g>
</g>
<!-- Node1&#45;&gt;Node6 -->
<g id="edge55_Node000001_Node000006" class="edge">
<title>Node1&#45;&gt;Node6</title>
<g id="a_edge55_Node000001_Node000006"><a xlink:title=" ">
<path fill="none" stroke="#63b8ff" d="M874.85,-465.94C857.72,-549.57 782.84,-850.62 592.75,-850.62 592.75,-850.62 592.75,-850.62 442.38,-850.62 343.64,-850.62 295.99,-889.71 221.75,-824.62 166.35,-776.06 137.05,-527.38 131.39,-474.51"/>
<polygon fill="#63b8ff" stroke="#63b8ff" points="878.28,-466.63 876.78,-456.15 871.41,-465.28 878.28,-466.63"/>
</a>
</g>
</g>
<!-- Node25 -->
<g id="Node000025" class="node">
<title>Node25</title>
<g id="a_Node000025"><a xlink:href="../../d0/ded/_read___gmsh___file_8cpp_aa3cbdec71b7c56f603b53acd3ce5a070.html#aa3cbdec71b7c56f603b53acd3ce5a070" target="_top" xlink:title=" ">
<polygon fill="white" stroke="#666666" points="781.88,-417.25 705.88,-417.25 705.88,-398 781.88,-398 781.88,-417.25"/>
<text text-anchor="middle" x="743.88" y="-403.75" font-family="Helvetica,sans-Serif" font-size="10.00">Identify_Cells</text>
</a>
</g>
</g>
<!-- Node1&#45;&gt;Node25 -->
<g id="edge50_Node000001_Node000025" class="edge">
<title>Node1&#45;&gt;Node25</title>
<g id="a_edge50_Node000001_Node000025"><a xlink:title=" ">
<path fill="none" stroke="#63b8ff" d="M831.25,-431.47C814.87,-426.95 796.8,-421.96 781.45,-417.72"/>
<polygon fill="#63b8ff" stroke="#63b8ff" points="830.23,-434.82 840.8,-434.11 832.09,-428.08 830.23,-434.82"/>
</a>
</g>
</g>
<!-- Node29 -->
<g id="Node000029" class="node">
<title>Node29</title>
<g id="a_Node000029"><a xlink:href="../../db/d73/_test___cell_8cpp_ae66f6b31b5ad750f1fe042a706a4e3d4.html#ae66f6b31b5ad750f1fe042a706a4e3d4" target="_top" xlink:title=" ">
<polygon fill="white" stroke="#666666" points="762.38,-380.25 725.38,-380.25 725.38,-361 762.38,-361 762.38,-380.25"/>
<text text-anchor="middle" x="743.88" y="-366.75" font-family="Helvetica,sans-Serif" font-size="10.00">main</text>
</a>
</g>
</g>
<!-- Node1&#45;&gt;Node29 -->
<g id="edge54_Node000001_Node000029" class="edge">
<title>Node1&#45;&gt;Node29</title>
<g id="a_edge54_Node000001_Node000029"><a xlink:title=" ">
<path fill="none" stroke="#63b8ff" d="M859.28,-427.19C844.69,-414.97 823.82,-399.03 803.25,-388.62 790.38,-382.12 774.71,-377.44 762.85,-374.49"/>
<polygon fill="#63b8ff" stroke="#63b8ff" points="856.88,-429.75 866.74,-433.6 861.44,-424.43 856.88,-429.75"/>
</a>
</g>
</g>
<!-- Node30 -->
<g id="Node000030" class="node">
<title>Node30</title>
<g id="a_Node000030"><a xlink:href="../../d8/d40/_grid___computations_8cpp_a663d4b3ae06e638c2f2e82ad437e831e.html#a663d4b3ae06e638c2f2e82ad437e831e" target="_top" xlink:title="Reads the input grid file and constructs physical cells, evaluates face areas, normals,...">
<polygon fill="white" stroke="#666666" points="775.12,-454.25 712.62,-454.25 712.62,-435 775.12,-435 775.12,-454.25"/>
<text text-anchor="middle" x="743.88" y="-440.75" font-family="Helvetica,sans-Serif" font-size="10.00">Read_Grid</text>
</a>
</g>
</g>
<!-- Node1&#45;&gt;Node30 -->
<g id="edge56_Node000001_Node000030" class="edge">
<title>Node1&#45;&gt;Node30</title>
<g id="a_edge56_Node000001_Node000030"><a xlink:title=" ">
<path fill="none" stroke="#63b8ff" d="M827.72,-444.62C810.08,-444.62 790.88,-444.62 775.41,-444.62"/>
<polygon fill="#63b8ff" stroke="#63b8ff" points="827.52,-448.13 837.52,-444.63 827.52,-441.13 827.52,-448.13"/>
</a>
</g>
</g>
<!-- Node31 -->
<g id="Node000031" class="node">
<title>Node31</title>
<g id="a_Node000031"><a xlink:href="../../d5/d64/_read___gmsh___grid_files_8cpp_af6740e8247624b261d740830bcaa0c9d.html#af6740e8247624b261d740830bcaa0c9d" target="_top" xlink:title=" ">
<polygon fill="white" stroke="#666666" points="803.25,-343.25 684.5,-343.25 684.5,-324 803.25,-324 803.25,-343.25"/>
<text text-anchor="middle" x="743.88" y="-329.75" font-family="Helvetica,sans-Serif" font-size="10.00">Read_OutputMeshData</text>
</a>
</g>
</g>
<!-- Node1&#45;&gt;Node31 -->
<g id="edge59_Node000001_Node000031" class="edge">
<title>Node1&#45;&gt;Node31</title>
<g id="a_edge59_Node000001_Node000031"><a xlink:title=" ">
<path fill="none" stroke="#63b8ff" d="M867.64,-424.76C854.72,-403.65 831.6,-370.76 803.25,-351.62 798.59,-348.48 793.36,-345.87 787.99,-343.7"/>
<polygon fill="#63b8ff" stroke="#63b8ff" points="864.57,-426.45 872.67,-433.28 870.6,-422.89 864.57,-426.45"/>
</a>
</g>
</g>
<!-- Node4 -->
<g id="Node000004" class="node">
<title>Node4</title>
<g id="a_Node000004"><a xlink:href="../../d8/d40/_grid___computations_8cpp_a831dcf7cbf36ddf425ce0753495ba3c6.html#a831dcf7cbf36ddf425ce0753495ba3c6" target="_top" xlink:title=" ">
<polygon fill="white" stroke="#666666" points="624.88,-472.25 558.62,-472.25 558.62,-453 624.88,-453 624.88,-472.25"/>
<text text-anchor="middle" x="591.75" y="-458.75" font-family="Helvetica,sans-Serif" font-size="10.00">Form_Cells</text>
</a>
</g>
</g>
<!-- Node3&#45;&gt;Node4 -->
<g id="edge3_Node000003_Node000004" class="edge">
<title>Node3&#45;&gt;Node4</title>
<g id="a_edge3_Node000003_Node000004"><a xlink:title=" ">
<path fill="none" stroke="#63b8ff" d="M673.45,-472.84C656.64,-470.71 639.45,-468.54 625.28,-466.74"/>
<polygon fill="#63b8ff" stroke="#63b8ff" points="672.54,-476.25 682.9,-474.03 673.42,-469.31 672.54,-476.25"/>
</a>
</g>
</g>
<!-- Node3&#45;&gt;Node6 -->
<g id="edge49_Node000003_Node000006" class="edge">
<title>Node3&#45;&gt;Node6</title>
<g id="a_edge49_Node000003_Node000006"><a xlink:title=" ">
<path fill="none" stroke="#63b8ff" d="M730,-500.72C669.73,-587.82 410.52,-937.11 221.75,-793.62 168.07,-752.82 137.63,-524.72 131.52,-474.43"/>
<polygon fill="#63b8ff" stroke="#63b8ff" points="732.73,-502.93 735.49,-492.7 726.95,-498.97 732.73,-502.93"/>
</a>
</g>
</g>
<!-- Node5 -->
<g id="Node000005" class="node">
<title>Node5</title>
<g id="a_Node000005"><a xlink:href="../../d0/d3f/_channel___flow_8cpp_a986df1d2277d1fc7e22408557f29c135.html#a986df1d2277d1fc7e22408557f29c135" target="_top" xlink:title=" ">
<polygon fill="white" stroke="#666666" points="482.5,-435.25 404.25,-435.25 404.25,-416 482.5,-416 482.5,-435.25"/>
<text text-anchor="middle" x="443.38" y="-421.75" font-family="Helvetica,sans-Serif" font-size="10.00">Channel_Flow</text>
</a>
</g>
</g>
<!-- Node4&#45;&gt;Node5 -->
<g id="edge4_Node000004_Node000005" class="edge">
<title>Node4&#45;&gt;Node5</title>
<g id="a_edge4_Node000004_Node000005"><a xlink:title=" ">
<path fill="none" stroke="#63b8ff" d="M547.31,-451.64C526.81,-446.46 502.55,-440.33 482.73,-435.32"/>
<polygon fill="#63b8ff" stroke="#63b8ff" points="546.24,-454.99 556.8,-454.04 547.96,-448.2 546.24,-454.99"/>
</a>
</g>
</g>
<!-- Node4&#45;&gt;Node6 -->
<g id="edge25_Node000004_Node000006" class="edge">
<title>Node4&#45;&gt;Node6</title>
<g id="a_edge25_Node000004_Node000006"><a xlink:title=" ">
<path fill="none" stroke="#63b8ff" d="M561.78,-477.78C544.1,-486.38 520.78,-496.6 499,-502.62 379.95,-535.54 340.49,-555.62 221.75,-521.62 189.75,-512.46 158.08,-488.49 141.74,-474.72"/>
<polygon fill="#63b8ff" stroke="#63b8ff" points="563.26,-480.95 570.64,-473.36 560.13,-474.69 563.26,-480.95"/>
</a>
</g>
</g>
<!-- Node10 -->
<g id="Node000010" class="node">
<title>Node10</title>
<g id="a_Node000010"><a xlink:href="../../d8/d62/_ellinga___test_case_8cpp_ae7167da7e4a13ec20ea77342a492b6ee.html#ae7167da7e4a13ec20ea77342a492b6ee" target="_top" xlink:title=" ">
<polygon fill="white" stroke="#666666" points="334.12,-512.25 239.38,-512.25 239.38,-493 334.12,-493 334.12,-512.25"/>
<text text-anchor="middle" x="286.75" y="-498.75" font-family="Helvetica,sans-Serif" font-size="10.00">Ellinga_Carbuncle</text>
</a>
</g>
</g>
<!-- Node4&#45;&gt;Node10 -->
<g id="edge10_Node000004_Node000010" class="edge">
<title>Node4&#45;&gt;Node10</title>
<g id="a_edge10_Node000004_Node000010"><a xlink:title=" ">
<path fill="none" stroke="#63b8ff" d="M547.06,-472.65C531.9,-475.87 514.76,-479.22 499,-481.62 442.71,-490.23 377.42,-496.09 334.5,-499.4"/>
<polygon fill="#63b8ff" stroke="#63b8ff" points="547.69,-476.09 556.72,-470.55 546.21,-469.25 547.69,-476.09"/>
</a>
</g>
</g>
<!-- Node11 -->
<g id="Node000011" class="node">
<title>Node11</title>
<g id="a_Node000011"><a xlink:href="../../de/d81/_flat___plate___boundary___layer_8cpp_a787b29de4053181d716a19e7c4c9b705.html#a787b29de4053181d716a19e7c4c9b705" target="_top" xlink:title=" ">
<polygon fill="white" stroke="#666666" points="340.12,-784.88 233.38,-784.88 233.38,-754.38 340.12,-754.38 340.12,-784.88"/>
<text text-anchor="start" x="241.38" y="-771.38" font-family="Helvetica,sans-Serif" font-size="10.00">Flat_Plate_Boundary</text>
<text text-anchor="middle" x="286.75" y="-760.12" font-family="Helvetica,sans-Serif" font-size="10.00">_Layer</text>
</a>
</g>
</g>
<!-- Node4&#45;&gt;Node11 -->
<g id="edge12_Node000004_Node000011" class="edge">
<title>Node4&#45;&gt;Node11</title>
<g id="a_edge12_Node000004_Node000011"><a xlink:title=" ">
<path fill="none" stroke="#63b8ff" d="M589.45,-483.78C585.31,-532.17 568.24,-651.64 499,-714.62 455.69,-754.03 387.71,-765.9 340.62,-769.12"/>
<polygon fill="#63b8ff" stroke="#63b8ff" points="592.92,-484.34 590.17,-474.11 585.94,-483.82 592.92,-484.34"/>
</a>
</g>
</g>
<!-- Node12 -->
<g id="Node000012" class="node">
<title>Node12</title>
<g id="a_Node000012"><a xlink:href="../../da/d4b/_flow___over___bump_8cpp_abaa8184c0dd8aa3fdc37d585f0a7d0cc.html#abaa8184c0dd8aa3fdc37d585f0a7d0cc" target="_top" xlink:title=" ">
<polygon fill="white" stroke="#666666" points="490.38,-398.25 396.38,-398.25 396.38,-379 490.38,-379 490.38,-398.25"/>
<text text-anchor="middle" x="443.38" y="-384.75" font-family="Helvetica,sans-Serif" font-size="10.00">Flow_Over_Bump</text>
</a>
</g>
</g>
<!-- Node4&#45;&gt;Node12 -->
<g id="edge14_Node000004_Node000012" class="edge">
<title>Node4&#45;&gt;Node12</title>
<g id="a_edge14_Node000004_Node000012"><a xlink:title=" ">
<path fill="none" stroke="#63b8ff" d="M567.29,-446.23C549.23,-434.13 523.33,-417.87 499,-406.62 492.66,-403.69 485.7,-401.02 478.93,-398.68"/>
<polygon fill="#63b8ff" stroke="#63b8ff" points="565.21,-449.05 575.45,-451.78 569.15,-443.26 565.21,-449.05"/>
</a>
</g>
</g>
<!-- Node13 -->
<g id="Node000013" class="node">
<title>Node13</title>
<g id="a_Node000013"><a xlink:href="../../dc/d8c/_forward___facing___step_8cpp_a5f68d17ee33caeda5da8c4270441108c.html#a5f68d17ee33caeda5da8c4270441108c" target="_top" xlink:title=" ">
<polygon fill="white" stroke="#666666" points="499,-360.25 387.75,-360.25 387.75,-341 499,-341 499,-360.25"/>
<text text-anchor="middle" x="443.38" y="-346.75" font-family="Helvetica,sans-Serif" font-size="10.00">Forward_Facing_Step</text>
</a>
</g>
</g>
<!-- Node4&#45;&gt;Node13 -->
<g id="edge17_Node000004_Node000013" class="edge">
<title>Node4&#45;&gt;Node13</title>
<g id="a_edge17_Node000004_Node000013"><a xlink:title=" ">
<path fill="none" stroke="#63b8ff" d="M576.69,-443.91C560.17,-423.11 530.95,-389.81 499,-369.62 493.4,-366.09 487.05,-363.11 480.72,-360.64"/>
<polygon fill="#63b8ff" stroke="#63b8ff" points="573.72,-445.79 582.61,-451.55 579.25,-441.5 573.72,-445.79"/>
</a>
</g>
</g>
<!-- Node14 -->
<g id="Node000014" class="node">
<title>Node14</title>
<g id="a_Node000014"><a xlink:href="../../df/dee/_half___cylinder___test___case_8cpp_ad6cb651752c2dd1cb946428572cfb769.html#ad6cb651752c2dd1cb946428572cfb769" target="_top" xlink:title=" ">
<polygon fill="white" stroke="#666666" points="494.12,-323.25 392.62,-323.25 392.62,-304 494.12,-304 494.12,-323.25"/>
<text text-anchor="middle" x="443.38" y="-309.75" font-family="Helvetica,sans-Serif" font-size="10.00">Half_Cylinder_Flow</text>
</a>
</g>
</g>
<!-- Node4&#45;&gt;Node14 -->
<g id="edge20_Node000004_Node000014" class="edge">
<title>Node4&#45;&gt;Node14</title>
<g id="a_edge20_Node000004_Node000014"><a xlink:title=" ">
<path fill="none" stroke="#63b8ff" d="M581.74,-442.39C567.95,-413.68 538.96,-361.32 499,-331.62 494.75,-328.47 489.92,-325.85 484.93,-323.68"/>
<polygon fill="#63b8ff" stroke="#63b8ff" points="578.54,-443.81 585.92,-451.41 584.89,-440.87 578.54,-443.81"/>
</a>
</g>
</g>
<!-- Node15 -->
<g id="Node000015" class="node">
<title>Node15</title>
<g id="a_Node000015"><a xlink:href="../../de/dc4/_o_e_d_8cpp_a1404a4711dcead4c50dd9eaa2ab7b7c0.html#a1404a4711dcead4c50dd9eaa2ab7b7c0" target="_top" xlink:title=" ">
<polygon fill="white" stroke="#666666" points="305.62,-736.25 267.88,-736.25 267.88,-717 305.62,-717 305.62,-736.25"/>
<text text-anchor="middle" x="286.75" y="-722.75" font-family="Helvetica,sans-Serif" font-size="10.00">OED</text>
</a>
</g>
</g>
<!-- Node4&#45;&gt;Node15 -->
<g id="edge23_Node000004_Node000015" class="edge">
<title>Node4&#45;&gt;Node15</title>
<g id="a_edge23_Node000004_Node000015"><a xlink:title=" ">
<path fill="none" stroke="#63b8ff" d="M588.15,-483.82C581.63,-527.4 560.45,-627.25 499,-678.62 441.58,-726.63 345.78,-729.01 305.96,-727.69"/>
<polygon fill="#63b8ff" stroke="#63b8ff" points="591.58,-484.55 589.47,-474.16 584.65,-483.6 591.58,-484.55"/>
</a>
</g>
</g>
<!-- Node16 -->
<g id="Node000016" class="node">
<title>Node16</title>
<g id="a_Node000016"><a xlink:href="../../dd/de9/_ramp__15___degree_8cpp_af85931ed4e293dce5c8e4acafecd54b5.html#af85931ed4e293dce5c8e4acafecd54b5" target="_top" xlink:title=" ">
<polygon fill="white" stroke="#666666" points="490.75,-286.25 396,-286.25 396,-267 490.75,-267 490.75,-286.25"/>
<text text-anchor="middle" x="443.38" y="-272.75" font-family="Helvetica,sans-Serif" font-size="10.00">Ramp_15_Degree</text>
</a>
</g>
</g>
<!-- Node4&#45;&gt;Node16 -->
<g id="edge26_Node000004_Node000016" class="edge">
<title>Node4&#45;&gt;Node16</title>
<g id="a_edge26_Node000004_Node000016"><a xlink:title=" ">
<path fill="none" stroke="#63b8ff" d="M584.9,-441.74C573.94,-406.36 546.96,-334.59 499,-294.62 495.16,-291.43 490.74,-288.8 486.11,-286.63"/>
<polygon fill="#63b8ff" stroke="#63b8ff" points="581.5,-442.58 587.69,-451.18 588.21,-440.59 581.5,-442.58"/>
</a>
</g>
</g>
<!-- Node17 -->
<g id="Node000017" class="node">
<title>Node17</title>
<g id="a_Node000017"><a xlink:href="../../d2/d72/_scram___jet___inlet___test___case_8cpp_a49bbbeed352ab44d6248954f9d5391b0.html#a49bbbeed352ab44d6248954f9d5391b0" target="_top" xlink:title=" ">
<polygon fill="white" stroke="#666666" points="487,-249.25 399.75,-249.25 399.75,-230 487,-230 487,-249.25"/>
<text text-anchor="middle" x="443.38" y="-235.75" font-family="Helvetica,sans-Serif" font-size="10.00">Scram_Jet_Inlet</text>
</a>
</g>
</g>
<!-- Node4&#45;&gt;Node17 -->
<g id="edge29_Node000004_Node000017" class="edge">
<title>Node4&#45;&gt;Node17</title>
<g id="a_edge29_Node000004_Node000017"><a xlink:title=" ">
<path fill="none" stroke="#63b8ff" d="M587.15,-441.56C579,-400.3 555.28,-308.41 499,-257.62 495.52,-254.48 491.47,-251.88 487.19,-249.74"/>
<polygon fill="#63b8ff" stroke="#63b8ff" points="583.7,-442.17 588.96,-451.37 590.58,-440.9 583.7,-442.17"/>
</a>
</g>
</g>
<!-- Node18 -->
<g id="Node000018" class="node">
<title>Node18</title>
<g id="a_Node000018"><a xlink:href="../../d1/d48/_shock___bubble___interaction_8cpp_a4cb762eff7e59896e567775356bda66a.html#a4cb762eff7e59896e567775356bda66a" target="_top" xlink:title=" ">
<polygon fill="white" stroke="#666666" points="351.75,-699.25 221.75,-699.25 221.75,-680 351.75,-680 351.75,-699.25"/>
<text text-anchor="middle" x="286.75" y="-685.75" font-family="Helvetica,sans-Serif" font-size="10.00">Shock_Bubble_Interaction</text>
</a>
</g>
</g>
<!-- Node4&#45;&gt;Node18 -->
<g id="edge32_Node000004_Node000018" class="edge">
<title>Node4&#45;&gt;Node18</title>
<g id="a_edge32_Node000004_Node000018"><a xlink:title=" ">
<path fill="none" stroke="#63b8ff" d="M586.36,-483.53C577.2,-521.66 552.34,-602.39 499,-643.62 457.13,-675.99 397.29,-686.66 351.99,-689.71"/>
<polygon fill="#63b8ff" stroke="#63b8ff" points="589.76,-484.35 588.55,-473.82 582.93,-482.81 589.76,-484.35"/>
</a>
</g>
</g>
<!-- Node19 -->
<g id="Node000019" class="node">
<title>Node19</title>
<g id="a_Node000019"><a xlink:href="../../d5/d9f/_shock___diffraction_8cpp_a464d43fab5d32cc9ecee800dfab8e5c8.html#a464d43fab5d32cc9ecee800dfab8e5c8" target="_top" xlink:title=" ">
<polygon fill="white" stroke="#666666" points="333.75,-662.25 239.75,-662.25 239.75,-643 333.75,-643 333.75,-662.25"/>
<text text-anchor="middle" x="286.75" y="-648.75" font-family="Helvetica,sans-Serif" font-size="10.00">Shock_Diffraction</text>
</a>
</g>
</g>
<!-- Node4&#45;&gt;Node19 -->
<g id="edge34_Node000004_Node000019" class="edge">
<title>Node4&#45;&gt;Node19</title>
<g id="a_edge34_Node000004_Node000019"><a xlink:title=" ">
<path fill="none" stroke="#63b8ff" d="M584.15,-482.98C572.49,-515.49 545.03,-578.72 499,-610.62 449.83,-644.71 379.6,-652.59 333.85,-653.71"/>
<polygon fill="#63b8ff" stroke="#63b8ff" points="587.31,-484.53 587.24,-473.94 580.69,-482.26 587.31,-484.53"/>
</a>
</g>
</g>
<!-- Node20 -->
<g id="Node000020" class="node">
<title>Node20</title>
<g id="a_Node000020"><a xlink:href="../../d2/d58/_shock___reflection__2_d_8cpp_a286a95bfcac44ff19264008ffd9506ed.html#a286a95bfcac44ff19264008ffd9506ed" target="_top" xlink:title=" ">
<polygon fill="white" stroke="#666666" points="499,-212.25 387.75,-212.25 387.75,-193 499,-193 499,-212.25"/>
<text text-anchor="middle" x="443.38" y="-198.75" font-family="Helvetica,sans-Serif" font-size="10.00">Shock_Reflection_2D</text>
</a>
</g>
</g>
<!-- Node4&#45;&gt;Node20 -->
<g id="edge36_Node000004_Node000020" class="edge">
<title>Node4&#45;&gt;Node20</title>
<g id="a_edge36_Node000004_Node000020"><a xlink:title=" ">
<path fill="none" stroke="#63b8ff" d="M588.76,-441.36C583.26,-394.68 563.69,-282.52 499,-220.62 495.68,-217.45 491.79,-214.83 487.64,-212.68"/>
<polygon fill="#63b8ff" stroke="#63b8ff" points="585.27,-441.61 589.8,-451.18 592.23,-440.87 585.27,-441.61"/>
</a>
</g>
</g>
<!-- Node21 -->
<g id="Node000021" class="node">
<title>Node21</title>
<g id="a_Node000021"><a xlink:href="../../d6/d4f/_shock___tube__2_d_8cpp_a634f5b7cf63cab96d3b48ed0b4df6ad4.html#a634f5b7cf63cab96d3b48ed0b4df6ad4" target="_top" xlink:title=" ">
<polygon fill="white" stroke="#666666" points="487.75,-175.25 399,-175.25 399,-156 487.75,-156 487.75,-175.25"/>
<text text-anchor="middle" x="443.38" y="-161.75" font-family="Helvetica,sans-Serif" font-size="10.00">Shock_Tube_2D</text>
</a>
</g>
</g>
<!-- Node4&#45;&gt;Node21 -->
<g id="edge39_Node000004_Node000021" class="edge">
<title>Node4&#45;&gt;Node21</title>
<g id="a_edge39_Node000004_Node000021"><a xlink:title=" ">
<path fill="none" stroke="#63b8ff" d="M590,-441.32C587.03,-389.73 572.27,-256.94 499,-183.62 495.82,-180.45 492.08,-177.83 488.06,-175.67"/>
<polygon fill="#63b8ff" stroke="#63b8ff" points="586.49,-441.27 590.46,-451.09 593.49,-440.94 586.49,-441.27"/>
</a>
</g>
</g>
<!-- Node22 -->
<g id="Node000022" class="node">
<title>Node22</title>
<g id="a_Node000022"><a xlink:href="../../de/dda/_shock___wedge___reflection_8cpp_a951397acc5a124a5a006dbd5ae45029a.html#a951397acc5a124a5a006dbd5ae45029a" target="_top" xlink:title=" ">
<polygon fill="white" stroke="#666666" points="351,-625.25 222.5,-625.25 222.5,-606 351,-606 351,-625.25"/>
<text text-anchor="middle" x="286.75" y="-611.75" font-family="Helvetica,sans-Serif" font-size="10.00">Shock_Wedge_Reflection</text>
</a>
</g>
</g>
<!-- Node4&#45;&gt;Node22 -->
<g id="edge42_Node000004_Node000022" class="edge">
<title>Node4&#45;&gt;Node22</title>
<g id="a_edge42_Node000004_Node000022"><a xlink:title=" ">
<path fill="none" stroke="#63b8ff" d="M581.08,-482.61C567,-509.39 538.2,-556.27 499,-579.62 454.41,-606.19 395.69,-614.49 351.48,-616.55"/>
<polygon fill="#63b8ff" stroke="#63b8ff" points="584.13,-484.34 585.52,-473.83 577.88,-481.18 584.13,-484.34"/>
</a>
</g>
</g>
<!-- Node23 -->
<g id="Node000023" class="node">
<title>Node23</title>
<g id="a_Node000023"><a xlink:href="../../d8/d8f/_slip___flow__2_d_8cpp_a41030236ecf9b4d95159d7227a838eab.html#a41030236ecf9b4d95159d7227a838eab" target="_top" xlink:title=" ">
<polygon fill="white" stroke="#666666" points="481.75,-472.25 405,-472.25 405,-453 481.75,-453 481.75,-472.25"/>
<text text-anchor="middle" x="443.38" y="-458.75" font-family="Helvetica,sans-Serif" font-size="10.00">Slip_Flow_2D</text>
</a>
</g>
</g>
<!-- Node4&#45;&gt;Node23 -->
<g id="edge44_Node000004_Node000023" class="edge">
<title>Node4&#45;&gt;Node23</title>
<g id="a_edge44_Node000004_Node000023"><a xlink:title=" ">
<path fill="none" stroke="#63b8ff" d="M546.94,-462.62C526.33,-462.62 502,-462.62 482.2,-462.62"/>
<polygon fill="#63b8ff" stroke="#63b8ff" points="546.75,-466.13 556.75,-462.63 546.75,-459.13 546.75,-466.13"/>
</a>
</g>
</g>
<!-- Node24 -->
<g id="Node000024" class="node">
<title>Node24</title>
<g id="a_Node000024"><a xlink:href="../../d8/da5/_s_w_b_l_i_8cpp_aab1edbd94ae1737559f5140355148ed8.html#aab1edbd94ae1737559f5140355148ed8" target="_top" xlink:title=" ">
<polygon fill="white" stroke="#666666" points="310.5,-588.25 263,-588.25 263,-569 310.5,-569 310.5,-588.25"/>
<text text-anchor="middle" x="286.75" y="-574.75" font-family="Helvetica,sans-Serif" font-size="10.00">SWBLI</text>
</a>
</g>
</g>
<!-- Node4&#45;&gt;Node24 -->
<g id="edge47_Node000004_Node000024" class="edge">
<title>Node4&#45;&gt;Node24</title>
<g id="a_edge47_Node000004_Node000024"><a xlink:title=" ">
<path fill="none" stroke="#63b8ff" d="M577.5,-481.65C561.55,-502.89 532.66,-536.4 499,-552.62 436.25,-582.87 351.38,-582.67 310.98,-580.46"/>
<polygon fill="#63b8ff" stroke="#63b8ff" points="580.14,-483.97 583.18,-473.82 574.48,-479.86 580.14,-483.97"/>
</a>
</g>
</g>
<!-- Node5&#45;&gt;Node6 -->
<g id="edge5_Node000005_Node000006" class="edge">
<title>Node5&#45;&gt;Node6</title>
<g id="a_edge5_Node000005_Node000006"><a xlink:title=" ">
<path fill="none" stroke="#63b8ff" d="M392.7,-431.83C336.43,-438.87 244.94,-450.3 186.23,-457.64"/>
<polygon fill="#63b8ff" stroke="#63b8ff" points="392.81,-435.35 402.3,-430.63 391.95,-428.4 392.81,-435.35"/>
</a>
</g>
</g>
<!-- Node7 -->
<g id="Node000007" class="node">
<title>Node7</title>
<g id="a_Node000007"><a xlink:href="../../d0/de9/_configuration___read_8cpp_a32d98c169e6f866c6411c53d5758292e.html#a32d98c169e6f866c6411c53d5758292e" target="_top" xlink:title=" ">
<polygon fill="white" stroke="#666666" points="314.62,-284.25 258.88,-284.25 258.88,-265 314.62,-265 314.62,-284.25"/>
<text text-anchor="middle" x="286.75" y="-270.75" font-family="Helvetica,sans-Serif" font-size="10.00">testCase</text>
</a>
</g>
</g>
<!-- Node5&#45;&gt;Node7 -->
<g id="edge6_Node000005_Node000007" class="edge">
<title>Node5&#45;&gt;Node7</title>
<g id="a_edge6_Node000005_Node000007"><a xlink:title=" ">
<path fill="none" stroke="#63b8ff" d="M393.75,-411.43C391.66,-410.25 389.65,-408.99 387.75,-407.62 339.86,-373.28 304.79,-309.21 292.52,-284.61"/>
<polygon fill="#63b8ff" stroke="#63b8ff" points="392.01,-414.47 402.54,-415.62 395.02,-408.16 392.01,-414.47"/>
</a>
</g>
</g>
<!-- Node7&#45;&gt;Node6 -->
<g id="edge7_Node000007_Node000006" class="edge">
<title>Node7&#45;&gt;Node6</title>
<g id="a_edge7_Node000007_Node000006"><a xlink:title=" ">
<path fill="none" stroke="#63b8ff" d="M247.9,-283.82C238.63,-287.35 229.23,-292.15 221.75,-298.62 169.5,-343.82 141.49,-426.57 133.1,-454.85"/>
<polygon fill="#63b8ff" stroke="#63b8ff" points="248.8,-287.21 257.17,-280.71 246.57,-280.57 248.8,-287.21"/>
</a>
</g>
</g>
<!-- Node8 -->
<g id="Node000008" class="node">
<title>Node8</title>
<g id="a_Node000008"><a xlink:href="../../d5/d12/_main_8cpp_a35d775933750ace299102f06a1712663.html#a35d775933750ace299102f06a1712663" target="_top" xlink:title=" ">
<polygon fill="white" stroke="#666666" points="158,-284.25 100.75,-284.25 100.75,-265 158,-265 158,-284.25"/>
<text text-anchor="middle" x="129.38" y="-270.75" font-family="Helvetica,sans-Serif" font-size="10.00">runSolver</text>
</a>
</g>
</g>
<!-- Node7&#45;&gt;Node8 -->
<g id="edge8_Node000007_Node000008" class="edge">
<title>Node7&#45;&gt;Node8</title>
<g id="a_edge8_Node000007_Node000008"><a xlink:title=" ">
<path fill="none" stroke="#63b8ff" d="M247.48,-274.62C219.91,-274.62 183.33,-274.62 158.44,-274.62"/>
<polygon fill="#63b8ff" stroke="#63b8ff" points="247.17,-278.13 257.17,-274.63 247.17,-271.13 247.17,-278.13"/>
</a>
</g>
</g>
<!-- Node9 -->
<g id="Node000009" class="node">
<title>Node9</title>
<g id="a_Node000009"><a xlink:href="../../d5/d12/_main_8cpp_a0ddf1224851353fc92bfbff6f499fa97.html#a0ddf1224851353fc92bfbff6f499fa97" target="_top" xlink:title=" ">
<polygon fill="white" stroke="#666666" points="37,-284.25 0,-284.25 0,-265 37,-265 37,-284.25"/>
<text text-anchor="middle" x="18.5" y="-270.75" font-family="Helvetica,sans-Serif" font-size="10.00">main</text>
</a>
</g>
</g>
<!-- Node8&#45;&gt;Node9 -->
<g id="edge9_Node000008_Node000009" class="edge">
<title>Node8&#45;&gt;Node9</title>
<g id="a_edge9_Node000008_Node000009"><a xlink:title=" ">
<path fill="none" stroke="#63b8ff" d="M88.84,-274.62C71.14,-274.62 51.16,-274.62 37.22,-274.62"/>
<polygon fill="#63b8ff" stroke="#63b8ff" points="88.82,-278.13 98.82,-274.63 88.82,-271.13 88.82,-278.13"/>
</a>
</g>
</g>
<!-- Node10&#45;&gt;Node6 -->
<g id="edge11_Node000010_Node000006" class="edge">
<title>Node10&#45;&gt;Node6</title>
<g id="a_edge11_Node000010_Node000006"><a xlink:title=" ">
<path fill="none" stroke="#63b8ff" d="M233.59,-489.87C213.37,-484.92 190.56,-479.34 171.53,-474.69"/>
<polygon fill="#63b8ff" stroke="#63b8ff" points="232.5,-493.21 243.05,-492.18 234.17,-486.41 232.5,-493.21"/>
</a>
</g>
</g>
<!-- Node11&#45;&gt;Node6 -->
<g id="edge13_Node000011_Node000006" class="edge">
<title>Node11&#45;&gt;Node6</title>
<g id="a_edge13_Node000011_Node000006"><a xlink:title=" ">
<path fill="none" stroke="#63b8ff" d="M223.98,-747.81C223.21,-747.1 222.47,-746.38 221.75,-745.62 143.56,-663.89 132.27,-514.49 130.65,-474.62"/>
<polygon fill="#63b8ff" stroke="#63b8ff" points="221.64,-750.43 231.74,-753.62 225.84,-744.83 221.64,-750.43"/>
</a>
</g>
</g>
<!-- Node12&#45;&gt;Node6 -->
<g id="edge15_Node000012_Node000006" class="edge">
<title>Node12&#45;&gt;Node6</title>
<g id="a_edge15_Node000012_Node000006"><a xlink:title=" ">
<path fill="none" stroke="#63b8ff" d="M384.67,-398.34C339.88,-406.37 276.42,-418.84 221.75,-433.62 199.6,-439.62 174.98,-448.07 156.89,-454.64"/>
<polygon fill="#63b8ff" stroke="#63b8ff" points="385.19,-401.8 394.43,-396.61 383.97,-394.91 385.19,-401.8"/>
</a>
</g>
</g>
<!-- Node12&#45;&gt;Node7 -->
<g id="edge16_Node000012_Node000007" class="edge">
<title>Node12&#45;&gt;Node7</title>
<g id="a_edge16_Node000012_Node000007"><a xlink:title=" ">
<path fill="none" stroke="#63b8ff" d="M395.94,-374.06C393.11,-372.69 390.35,-371.21 387.75,-369.62 348.28,-345.58 311.49,-303.79 295.77,-284.68"/>
<polygon fill="#63b8ff" stroke="#63b8ff" points="394.45,-377.23 405.02,-377.97 397.22,-370.8 394.45,-377.23"/>
</a>
</g>
</g>
<!-- Node13&#45;&gt;Node6 -->
<g id="edge18_Node000013_Node000006" class="edge">
<title>Node13&#45;&gt;Node6</title>
<g id="a_edge18_Node000013_Node000006"><a xlink:title=" ">
<path fill="none" stroke="#63b8ff" d="M376.43,-359.22C331.46,-366.66 271.32,-379.76 221.75,-401.62 190.19,-415.54 158.09,-440.8 141.64,-454.73"/>
<polygon fill="#63b8ff" stroke="#63b8ff" points="376.7,-362.72 386.02,-357.68 375.59,-355.81 376.7,-362.72"/>
</a>
</g>
</g>
<!-- Node13&#45;&gt;Node7 -->
<g id="edge19_Node000013_Node000007" class="edge">
<title>Node13&#45;&gt;Node7</title>
<g id="a_edge19_Node000013_Node000007"><a xlink:title=" ">
<path fill="none" stroke="#63b8ff" d="M397.49,-336.67C394.16,-335.38 390.88,-334.03 387.75,-332.62 356.26,-318.49 321.94,-297.17 302.81,-284.69"/>
<polygon fill="#63b8ff" stroke="#63b8ff" points="396.14,-339.91 406.74,-340.04 398.54,-333.33 396.14,-339.91"/>
</a>
</g>
</g>
<!-- Node14&#45;&gt;Node6 -->
<g id="edge21_Node000014_Node000006" class="edge">
<title>Node14&#45;&gt;Node6</title>
<g id="a_edge21_Node000014_Node000006"><a xlink:title=" ">
<path fill="none" stroke="#63b8ff" d="M380.82,-315.95C334.33,-320.1 270.45,-331.08 221.75,-359.62 180.47,-383.82 148.38,-433.4 135.96,-454.62"/>
<polygon fill="#63b8ff" stroke="#63b8ff" points="381.04,-319.45 390.73,-315.16 380.48,-312.47 381.04,-319.45"/>
</a>
</g>
</g>
<!-- Node14&#45;&gt;Node7 -->
<g id="edge22_Node000014_Node000007" class="edge">
<title>Node14&#45;&gt;Node7</title>
<g id="a_edge22_Node000014_Node000007"><a xlink:title=" ">
<path fill="none" stroke="#63b8ff" d="M391.52,-300.8C365.92,-294.34 335.92,-286.77 314.78,-281.44"/>
<polygon fill="#63b8ff" stroke="#63b8ff" points="390.54,-304.16 401.09,-303.21 392.25,-297.37 390.54,-304.16"/>
</a>
</g>
</g>
<!-- Node15&#45;&gt;Node6 -->
<g id="edge24_Node000015_Node000006" class="edge">
<title>Node15&#45;&gt;Node6</title>
<g id="a_edge24_Node000015_Node000006"><a xlink:title=" ">
<path fill="none" stroke="#63b8ff" d="M256.25,-724.14C244.29,-721.77 231.12,-717.24 221.75,-708.62 149.15,-641.89 133.94,-511.87 131.02,-474.75"/>
<polygon fill="#63b8ff" stroke="#63b8ff" points="255.71,-727.6 266.12,-725.63 256.76,-720.68 255.71,-727.6"/>
</a>
</g>
</g>
<!-- Node16&#45;&gt;Node6 -->
<g id="edge27_Node000016_Node000006" class="edge">
<title>Node16&#45;&gt;Node6</title>
<g id="a_edge27_Node000016_Node000006"><a xlink:title=" ">
<path fill="none" stroke="#63b8ff" d="M396.41,-263.84C382.21,-260.47 366.44,-257.3 351.75,-255.62 294.35,-249.06 270.1,-223.99 221.75,-255.62 185.38,-279.42 144.2,-416.06 133.2,-454.54"/>
<polygon fill="#63b8ff" stroke="#63b8ff" points="395.39,-267.19 405.94,-266.2 397.07,-260.4 395.39,-267.19"/>
</a>
</g>
</g>
<!-- Node16&#45;&gt;Node7 -->
<g id="edge28_Node000016_Node000007" class="edge">
<title>Node16&#45;&gt;Node7</title>
<g id="a_edge28_Node000016_Node000007"><a xlink:title=" ">
<path fill="none" stroke="#63b8ff" d="M384.17,-275.87C360.47,-275.57 334.2,-275.23 315.08,-274.98"/>
<polygon fill="#63b8ff" stroke="#63b8ff" points="384,-279.37 394.05,-276 384.1,-272.37 384,-279.37"/>
</a>
</g>
</g>
<!-- Node17&#45;&gt;Node6 -->
<g id="edge30_Node000017_Node000006" class="edge">
<title>Node17&#45;&gt;Node6</title>
<g id="a_edge30_Node000017_Node000006"><a xlink:title=" ">
<path fill="none" stroke="#63b8ff" d="M403.03,-226.31C355.68,-212.92 275.8,-198.99 221.75,-235.62 202.04,-248.98 147.57,-412.11 133.65,-454.57"/>
<polygon fill="#63b8ff" stroke="#63b8ff" points="402.02,-229.66 412.6,-229.15 404.01,-222.95 402.02,-229.66"/>
</a>
</g>
</g>
<!-- Node17&#45;&gt;Node7 -->
<g id="edge31_Node000017_Node000007" class="edge">
<title>Node17&#45;&gt;Node7</title>
<g id="a_edge31_Node000017_Node000007"><a xlink:title=" ">
<path fill="none" stroke="#63b8ff" d="M388.22,-251.88C363.48,-257.48 335.26,-263.87 315.04,-268.45"/>
<polygon fill="#63b8ff" stroke="#63b8ff" points="388.85,-255.33 397.83,-249.71 387.3,-248.5 388.85,-255.33"/>
</a>
</g>
</g>
<!-- Node18&#45;&gt;Node6 -->
<g id="edge33_Node000018_Node000006" class="edge">
<title>Node18&#45;&gt;Node6</title>
<g id="a_edge33_Node000018_Node000006"><a xlink:title=" ">
<path fill="none" stroke="#63b8ff" d="M224.22,-673.63C223.38,-672.99 222.55,-672.32 221.75,-671.62 157.96,-616.28 136.87,-507.89 131.75,-474.59"/>
<polygon fill="#63b8ff" stroke="#63b8ff" points="222.37,-676.6 232.73,-678.79 226,-670.61 222.37,-676.6"/>
</a>
</g>
</g>
<!-- Node19&#45;&gt;Node6 -->
<g id="edge35_Node000019_Node000006" class="edge">
<title>Node19&#45;&gt;Node6</title>
<g id="a_edge35_Node000019_Node000006"><a xlink:title=" ">
<path fill="none" stroke="#63b8ff" d="M229.35,-639.74C226.67,-638.22 224.12,-636.52 221.75,-634.62 166.59,-590.4 140.28,-503.59 132.74,-474.44"/>
<polygon fill="#63b8ff" stroke="#63b8ff" points="227.58,-642.77 238.12,-643.85 230.55,-636.44 227.58,-642.77"/>
</a>
</g>
</g>
<!-- Node20&#45;&gt;Node6 -->
<g id="edge37_Node000020_Node000006" class="edge">
<title>Node20&#45;&gt;Node6</title>
<g id="a_edge37_Node000020_Node000006"><a xlink:title=" ">
<path fill="none" stroke="#63b8ff" d="M396.55,-189.98C348.3,-179.58 272.43,-171.86 221.75,-208.62 211.01,-216.42 148.56,-408.27 133.6,-454.62"/>
<polygon fill="#63b8ff" stroke="#63b8ff" points="395.59,-193.35 406.12,-192.17 397.16,-186.53 395.59,-193.35"/>
</a>
</g>
</g>
<!-- Node20&#45;&gt;Node7 -->
<g id="edge38_Node000020_Node000007" class="edge">
<title>Node20&#45;&gt;Node7</title>
<g id="a_edge38_Node000020_Node000007"><a xlink:title=" ">
<path fill="none" stroke="#63b8ff" d="M398,-216.51C394.5,-217.82 391.05,-219.2 387.75,-220.62 357.31,-233.74 323.75,-252.9 304.28,-264.52"/>
<polygon fill="#63b8ff" stroke="#63b8ff" points="398.85,-219.92 407.09,-213.26 396.5,-213.33 398.85,-219.92"/>
</a>
</g>
</g>
<!-- Node21&#45;&gt;Node6 -->
<g id="edge40_Node000021_Node000006" class="edge">
<title>Node21&#45;&gt;Node6</title>
<g id="a_edge40_Node000021_Node000006"><a xlink:title=" ">
<path fill="none" stroke="#63b8ff" d="M392.29,-153.38C343.53,-144.59 269.92,-140.07 221.75,-177.62 179.18,-210.81 202.07,-242.17 185.75,-293.62 166.32,-354.9 142.3,-428.29 133.66,-454.62"/>
<polygon fill="#63b8ff" stroke="#63b8ff" points="391.54,-156.8 402.02,-155.26 392.87,-149.92 391.54,-156.8"/>
</a>
</g>
</g>
<!-- Node21&#45;&gt;Node7 -->
<g id="edge41_Node000021_Node000007" class="edge">
<title>Node21&#45;&gt;Node7</title>
<g id="a_edge41_Node000021_Node000007"><a xlink:title=" ">
<path fill="none" stroke="#63b8ff" d="M394.15,-180.23C391.95,-181.29 389.8,-182.43 387.75,-183.62 348.83,-206.34 312.04,-246.17 296.08,-264.67"/>
<polygon fill="#63b8ff" stroke="#63b8ff" points="395.52,-183.45 403.34,-176.3 392.77,-177.01 395.52,-183.45"/>
</a>
</g>
</g>
<!-- Node22&#45;&gt;Node6 -->
<g id="edge43_Node000022_Node000006" class="edge">
<title>Node22&#45;&gt;Node6</title>
<g id="a_edge43_Node000022_Node000006"><a xlink:title=" ">
<path fill="none" stroke="#63b8ff" d="M226.03,-600.43C224.56,-599.55 223.13,-598.61 221.75,-597.62 175.29,-564.35 144.85,-499.65 134.4,-474.74"/>
<polygon fill="#63b8ff" stroke="#63b8ff" points="224.39,-603.52 234.89,-604.86 227.52,-597.26 224.39,-603.52"/>
</a>
</g>
</g>
<!-- Node23&#45;&gt;Node6 -->
<g id="edge45_Node000023_Node000006" class="edge">
<title>Node23&#45;&gt;Node6</title>
<g id="a_edge45_Node000023_Node000006"><a xlink:title=" ">
<path fill="none" stroke="#63b8ff" d="M393.3,-462.94C337.02,-463.3 244.95,-463.89 186.04,-464.27"/>
<polygon fill="#63b8ff" stroke="#63b8ff" points="393.25,-466.44 403.23,-462.88 393.2,-459.44 393.25,-466.44"/>
</a>
</g>
</g>
<!-- Node23&#45;&gt;Node7 -->
<g id="edge46_Node000023_Node000007" class="edge">
<title>Node23&#45;&gt;Node7</title>
<g id="a_edge46_Node000023_Node000007"><a xlink:title=" ">
<path fill="none" stroke="#63b8ff" d="M394.48,-449.25C392.11,-447.85 389.85,-446.32 387.75,-444.62 331.78,-399.48 300.34,-314.01 290.85,-284.75"/>
<polygon fill="#63b8ff" stroke="#63b8ff" points="392.79,-452.32 403.32,-453.55 395.86,-446.02 392.79,-452.32"/>
</a>
</g>
</g>
<!-- Node24&#45;&gt;Node6 -->
<g id="edge48_Node000024_Node000006" class="edge">
<title>Node24&#45;&gt;Node6</title>
<g id="a_edge48_Node000024_Node000006"><a xlink:title=" ">
<path fill="none" stroke="#63b8ff" d="M252.11,-568.99C241.93,-565.31 231,-560.53 221.75,-554.62 185.91,-531.74 152.68,-492.9 138.12,-474.66"/>
<polygon fill="#63b8ff" stroke="#63b8ff" points="250.72,-572.22 261.31,-572.09 252.95,-565.58 250.72,-572.22"/>
</a>
</g>
</g>
<!-- Node26 -->
<g id="Node000026" class="node">
<title>Node26</title>
<g id="a_Node000026"><a xlink:href="../../d6/da1/_half___cylinder_8cpp_ae66f6b31b5ad750f1fe042a706a4e3d4.html#ae66f6b31b5ad750f1fe042a706a4e3d4" target="_top" xlink:title=" ">
<polygon fill="white" stroke="#666666" points="610.25,-56.25 573.25,-56.25 573.25,-37 610.25,-37 610.25,-56.25"/>
<text text-anchor="middle" x="591.75" y="-42.75" font-family="Helvetica,sans-Serif" font-size="10.00">main</text>
</a>
</g>
</g>
<!-- Node25&#45;&gt;Node26 -->
<g id="edge51_Node000025_Node000026" class="edge">
<title>Node25&#45;&gt;Node26</title>
<g id="a_edge51_Node000025_Node000026"><a xlink:title=" ">
<path fill="none" stroke="#63b8ff" d="M694.99,-398.3C691.02,-396 687.42,-393.15 684.5,-389.62 593.46,-279.77 733.52,-185.21 648.5,-70.62 639.52,-58.52 623.18,-52.45 610.5,-49.45"/>
<polygon fill="#63b8ff" stroke="#63b8ff" points="693.47,-401.46 704.03,-402.34 696.33,-395.07 693.47,-401.46"/>
</a>
</g>
</g>
<!-- Node27 -->
<g id="Node000027" class="node">
<title>Node27</title>
<g id="a_Node000027"><a xlink:href="../../d0/ded/_read___gmsh___file_8cpp_a18c26bf3782f581573a5750c5b693fe2.html#a18c26bf3782f581573a5750c5b693fe2" target="_top" xlink:title=" ">
<polygon fill="white" stroke="#666666" points="648.5,-19.25 535,-19.25 535,0 648.5,0 648.5,-19.25"/>
<text text-anchor="middle" x="591.75" y="-5.75" font-family="Helvetica,sans-Serif" font-size="10.00">Read_GmshVTK_Grid</text>
</a>
</g>
</g>
<!-- Node25&#45;&gt;Node27 -->
<g id="edge52_Node000025_Node000027" class="edge">
<title>Node25&#45;&gt;Node27</title>
<g id="a_edge52_Node000025_Node000027"><a xlink:title=" ">
<path fill="none" stroke="#63b8ff" d="M695.43,-398.63C691.28,-396.27 687.52,-393.32 684.5,-389.62 582.16,-264.46 750.01,-153.47 648.5,-27.62 645.95,-24.46 642.83,-21.84 639.39,-19.68"/>
<polygon fill="#63b8ff" stroke="#63b8ff" points="693.7,-401.69 704.27,-402.51 696.52,-395.28 693.7,-401.69"/>
</a>
</g>
</g>
<!-- Node28 -->
<g id="Node000028" class="node">
<title>Node28</title>
<g id="a_Node000028"><a xlink:href="../../d7/d48/_test___gmsh___reader_8cpp_a0ddf1224851353fc92bfbff6f499fa97.html#a0ddf1224851353fc92bfbff6f499fa97" target="_top" xlink:title=" ">
<polygon fill="white" stroke="#666666" points="461.88,-19.25 424.88,-19.25 424.88,0 461.88,0 461.88,-19.25"/>
<text text-anchor="middle" x="443.38" y="-5.75" font-family="Helvetica,sans-Serif" font-size="10.00">main</text>
</a>
</g>
</g>
<!-- Node27&#45;&gt;Node28 -->
<g id="edge53_Node000027_Node000028" class="edge">
<title>Node27&#45;&gt;Node28</title>
<g id="a_edge53_Node000027_Node000028"><a xlink:title=" ">
<path fill="none" stroke="#63b8ff" d="M523.32,-9.62C500.9,-9.62 477.75,-9.62 462.37,-9.62"/>
<polygon fill="#63b8ff" stroke="#63b8ff" points="523.06,-13.13 533.06,-9.63 523.06,-6.13 523.06,-13.13"/>
</a>
</g>
</g>
<!-- Node30&#45;&gt;Node4 -->
<g id="edge57_Node000030_Node000004" class="edge">
<title>Node30&#45;&gt;Node4</title>
<g id="a_edge57_Node000030_Node000004"><a xlink:title=" ">
<path fill="none" stroke="#63b8ff" d="M700.89,-449.66C676.96,-452.53 647.42,-456.07 625.27,-458.73"/>
<polygon fill="#63b8ff" stroke="#63b8ff" points="701.12,-453.16 710.63,-448.49 700.28,-446.21 701.12,-453.16"/>
</a>
</g>
</g>
<!-- Node30&#45;&gt;Node6 -->
<g id="edge58_Node000030_Node000006" class="edge">
<title>Node30&#45;&gt;Node6</title>
<g id="a_edge58_Node000030_Node000006"><a xlink:title=" ">
<path fill="none" stroke="#63b8ff" d="M701.39,-435.76C695.38,-433.39 689.54,-430.4 684.5,-426.62 564.98,-337.19 629.79,-218.59 499,-146.62 391.04,-87.22 318.52,-67.33 221.75,-143.62 167.91,-186.07 204.32,-227.63 185.75,-293.62 168.33,-355.5 143.09,-428.52 133.89,-454.69"/>
<polygon fill="#63b8ff" stroke="#63b8ff" points="700.19,-439.05 710.79,-438.9 702.41,-432.41 700.19,-439.05"/>
</a>
</g>
</g>
</g>
</svg>
