<?xml version="1.0" encoding="UTF-8" standalone="no"?>
<!DOCTYPE svg PUBLIC "-//W3C//DTD SVG 1.1//EN"
 "http://www.w3.org/Graphics/SVG/1.1/DTD/svg11.dtd">
<!-- Generated by graphviz version 12.2.1 (20241206.2353)
 -->
<!-- Title: Viscous_Time_Step_1 Pages: 1 -->
<svg width="948pt" height="322pt"
 viewBox="0.00 0.00 948.00 321.62" xmlns="http://www.w3.org/2000/svg" xmlns:xlink="http://www.w3.org/1999/xlink">
<g id="graph0" class="graph" transform="scale(1 1) rotate(0) translate(4 317.62)">
<title>Viscous_Time_Step_1</title>
<!-- Node1 -->
<g id="Node000001" class="node">
<title>Node1</title>
<g id="a_Node000001"><a xlink:title=" ">
<polygon fill="#999999" stroke="#666666" points="940,-247.25 825.75,-247.25 825.75,-228 940,-228 940,-247.25"/>
<text text-anchor="middle" x="882.88" y="-233.75" font-family="Helvetica,sans-Serif" font-size="10.00">Viscous_Time_Step_1</text>
</a>
</g>
</g>
<!-- Node2 -->
<g id="Node000002" class="node">
<title>Node2</title>
<g id="a_Node000002"><a xlink:href="../../de/df0/_solver_8cpp_a1a130a004ad45d61258215e5579c3060.html#a1a130a004ad45d61258215e5579c3060" target="_top" xlink:title=" ">
<polygon fill="white" stroke="#666666" points="789.75,-171.25 683,-171.25 683,-152 789.75,-152 789.75,-171.25"/>
<text text-anchor="middle" x="736.38" y="-157.75" font-family="Helvetica,sans-Serif" font-size="10.00">Evaluate_Time_Step</text>
</a>
</g>
</g>
<!-- Node1&#45;&gt;Node2 -->
<g id="edge1_Node000001_Node000002" class="edge">
<title>Node1&#45;&gt;Node2</title>
<g id="a_edge1_Node000001_Node000002"><a xlink:title=" ">
<path fill="none" stroke="#63b8ff" d="M852.79,-222.33C823.99,-207.18 780.74,-184.44 756.18,-171.52"/>
<polygon fill="#63b8ff" stroke="#63b8ff" points="850.87,-225.27 861.35,-226.83 854.13,-219.08 850.87,-225.27"/>
</a>
</g>
</g>
<!-- Node5 -->
<g id="Node000005" class="node">
<title>Node5</title>
<g id="a_Node000005"><a xlink:href="../../dd/dbf/_euler___python___wrapper_8cpp_ac5ccb50c3be270f798e054dd36987442.html#ac5ccb50c3be270f798e054dd36987442" target="_top" xlink:title=" ">
<polygon fill="white" stroke="#666666" points="185.75,-152.25 73,-152.25 73,-133 185.75,-133 185.75,-152.25"/>
<text text-anchor="middle" x="129.38" y="-138.75" font-family="Helvetica,sans-Serif" font-size="10.00">PYBIND11_MODULE</text>
</a>
</g>
</g>
<!-- Node1&#45;&gt;Node5 -->
<g id="edge29_Node000001_Node000005" class="edge">
<title>Node1&#45;&gt;Node5</title>
<g id="a_edge29_Node000001_Node000005"><a xlink:title=" ">
<path fill="none" stroke="#63b8ff" d="M847,-251.86C789.88,-273.87 672.33,-313.62 568.75,-313.62 568.75,-313.62 568.75,-313.62 396.25,-313.62 276.33,-313.62 167.43,-189.05 138.1,-152.56"/>
<polygon fill="#63b8ff" stroke="#63b8ff" points="848.16,-255.17 856.19,-248.27 845.61,-248.65 848.16,-255.17"/>
</a>
</g>
</g>
<!-- Node3 -->
<g id="Node000003" class="node">
<title>Node3</title>
<g id="a_Node000003"><a xlink:href="../../d7/db1/_net___flux_8cpp_ad25c9a53b380204dd243bc1351d6b098.html#ad25c9a53b380204dd243bc1351d6b098" target="_top" xlink:title="Evaluates the first&#45;order net flux for all cells in the computational domain.">
<polygon fill="white" stroke="#666666" points="637.62,-132.25 497.88,-132.25 497.88,-113 637.62,-113 637.62,-132.25"/>
<text text-anchor="middle" x="567.75" y="-118.75" font-family="Helvetica,sans-Serif" font-size="10.00">Evaluate_Cell_Net_Flux_1O</text>
</a>
</g>
</g>
<!-- Node2&#45;&gt;Node3 -->
<g id="edge2_Node000002_Node000003" class="edge">
<title>Node2&#45;&gt;Node3</title>
<g id="a_edge2_Node000002_Node000003"><a xlink:title=" ">
<path fill="none" stroke="#63b8ff" d="M681.36,-148.98C658.83,-143.71 633.02,-137.67 611.8,-132.7"/>
<polygon fill="#63b8ff" stroke="#63b8ff" points="680.46,-152.37 690.99,-151.24 682.05,-145.55 680.46,-152.37"/>
</a>
</g>
</g>
<!-- Node2&#45;&gt;Node5 -->
<g id="edge28_Node000002_Node000005" class="edge">
<title>Node2&#45;&gt;Node5</title>
<g id="a_edge28_Node000002_Node000005"><a xlink:title=" ">
<path fill="none" stroke="#63b8ff" d="M678.05,-174.07C667.72,-176.28 657.04,-178.54 647,-180.62 513.2,-208.42 478.32,-229.21 342,-219.62 288.16,-215.84 272.25,-221.68 221.75,-202.62 190.14,-190.7 158.31,-166.35 141.85,-152.62"/>
<polygon fill="#63b8ff" stroke="#63b8ff" points="678.55,-177.54 687.6,-172.02 677.08,-170.7 678.55,-177.54"/>
</a>
</g>
</g>
<!-- Node12 -->
<g id="Node000012" class="node">
<title>Node12</title>
<g id="a_Node000012"><a xlink:href="../../d7/db1/_net___flux_8cpp_a4db2fe24c2a78f98ac91e9d7d271430f.html#a4db2fe24c2a78f98ac91e9d7d271430f" target="_top" xlink:title="Evaluates the net flux for each cell using a second&#45;order flux calculation method.">
<polygon fill="white" stroke="#666666" points="637.62,-171.25 497.88,-171.25 497.88,-152 637.62,-152 637.62,-171.25"/>
<text text-anchor="middle" x="567.75" y="-157.75" font-family="Helvetica,sans-Serif" font-size="10.00">Evaluate_Cell_Net_Flux_2O</text>
</a>
</g>
</g>
<!-- Node2&#45;&gt;Node12 -->
<g id="edge19_Node000002_Node000012" class="edge">
<title>Node2&#45;&gt;Node12</title>
<g id="a_edge19_Node000002_Node000012"><a xlink:title=" ">
<path fill="none" stroke="#63b8ff" d="M671.43,-161.62C660.45,-161.62 649.01,-161.62 637.91,-161.62"/>
<polygon fill="#63b8ff" stroke="#63b8ff" points="671.14,-165.13 681.14,-161.63 671.14,-158.13 671.14,-165.13"/>
</a>
</g>
</g>
<!-- Node13 -->
<g id="Node000013" class="node">
<title>Node13</title>
<g id="a_Node000013"><a xlink:href="../../d8/df4/_w_e_n_o2_d_8cpp_a74c2795e4a164178c69743947d6e6cf5.html#a74c2795e4a164178c69743947d6e6cf5" target="_top" xlink:title=" ">
<polygon fill="white" stroke="#666666" points="647,-95.25 488.5,-95.25 488.5,-76 647,-76 647,-95.25"/>
<text text-anchor="middle" x="567.75" y="-81.75" font-family="Helvetica,sans-Serif" font-size="10.00">Evaluate_Cell_Net_Flux_WENO</text>
</a>
</g>
</g>
<!-- Node2&#45;&gt;Node13 -->
<g id="edge25_Node000002_Node000013" class="edge">
<title>Node2&#45;&gt;Node13</title>
<g id="a_edge25_Node000002_Node000013"><a xlink:title=" ">
<path fill="none" stroke="#63b8ff" d="M714.68,-144.97C697.5,-131.92 671.92,-114.26 647,-103.62 639.69,-100.51 631.76,-97.88 623.84,-95.69"/>
<polygon fill="#63b8ff" stroke="#63b8ff" points="712.06,-147.37 722.11,-150.74 716.36,-141.84 712.06,-147.37"/>
</a>
</g>
</g>
<!-- Node4 -->
<g id="Node000004" class="node">
<title>Node4</title>
<g id="a_Node000004"><a xlink:href="../../db/dbe/_assemble___matrix_8cpp_a19cccc9540fb68aa18547238ebc80951.html#a19cccc9540fb68aa18547238ebc80951" target="_top" xlink:title=" ">
<polygon fill="white" stroke="#666666" points="432.25,-171.25 362.25,-171.25 362.25,-152 432.25,-152 432.25,-171.25"/>
<text text-anchor="middle" x="397.25" y="-157.75" font-family="Helvetica,sans-Serif" font-size="10.00">Assemble_b</text>
</a>
</g>
</g>
<!-- Node3&#45;&gt;Node4 -->
<g id="edge3_Node000003_Node000004" class="edge">
<title>Node3&#45;&gt;Node4</title>
<g id="a_edge3_Node000003_Node000004"><a xlink:title=" ">
<path fill="none" stroke="#63b8ff" d="M512.45,-135.19C486.28,-141.25 455.67,-148.33 432.74,-153.64"/>
<polygon fill="#63b8ff" stroke="#63b8ff" points="512.93,-138.67 521.88,-133.01 511.35,-131.85 512.93,-138.67"/>
</a>
</g>
</g>
<!-- Node3&#45;&gt;Node5 -->
<g id="edge13_Node000003_Node000005" class="edge">
<title>Node3&#45;&gt;Node5</title>
<g id="a_edge13_Node000003_Node000005"><a xlink:title=" ">
<path fill="none" stroke="#63b8ff" d="M486.16,-126.32C398.92,-130.32 262.08,-136.59 186.04,-140.07"/>
<polygon fill="#63b8ff" stroke="#63b8ff" points="486.26,-129.82 496.09,-125.86 485.94,-122.82 486.26,-129.82"/>
</a>
</g>
</g>
<!-- Node6 -->
<g id="Node000006" class="node">
<title>Node6</title>
<g id="a_Node000006"><a xlink:href="../../db/d38/_parallel___numerical___method_8cpp_a8dda0c7e17babab9b6e49e8e199dc30e.html#a8dda0c7e17babab9b6e49e8e199dc30e" target="_top" xlink:title=" ">
<polygon fill="white" stroke="#666666" points="440.12,-19.25 354.38,-19.25 354.38,0 440.12,0 440.12,-19.25"/>
<text text-anchor="middle" x="397.25" y="-5.75" font-family="Helvetica,sans-Serif" font-size="10.00">Explicit_Method</text>
</a>
</g>
</g>
<!-- Node3&#45;&gt;Node6 -->
<g id="edge5_Node000003_Node000006" class="edge">
<title>Node3&#45;&gt;Node6</title>
<g id="a_edge5_Node000003_Node000006"><a xlink:title=" ">
<path fill="none" stroke="#63b8ff" d="M492.03,-107.18C490.82,-106.37 489.64,-105.52 488.5,-104.62 460.63,-82.83 478.17,-57.97 452.5,-33.62 446.3,-27.74 438.42,-23.15 430.59,-19.63"/>
<polygon fill="#63b8ff" stroke="#63b8ff" points="490.08,-110.1 500.53,-111.89 493.48,-103.98 490.08,-110.1"/>
</a>
</g>
</g>
<!-- Node10 -->
<g id="Node000010" class="node">
<title>Node10</title>
<g id="a_Node000010"><a xlink:href="../../de/df0/_solver_8cpp_a2f37f06e8324a1ed6aa99efdbba81865.html#a2f37f06e8324a1ed6aa99efdbba81865" target="_top" xlink:title=" ">
<polygon fill="white" stroke="#666666" points="306,-57.25 221.75,-57.25 221.75,-38 306,-38 306,-57.25"/>
<text text-anchor="middle" x="263.88" y="-43.75" font-family="Helvetica,sans-Serif" font-size="10.00">Viscous_Solver</text>
</a>
</g>
</g>
<!-- Node3&#45;&gt;Node10 -->
<g id="edge18_Node000003_Node000010" class="edge">
<title>Node3&#45;&gt;Node10</title>
<g id="a_edge18_Node000003_Node000010"><a xlink:title=" ">
<path fill="none" stroke="#63b8ff" d="M495.8,-108.36C493.29,-107.21 490.85,-105.97 488.5,-104.62 468.3,-93.08 473.38,-76.88 452.5,-66.62 406.22,-43.89 345.87,-41.94 306.28,-43.8"/>
<polygon fill="#63b8ff" stroke="#63b8ff" points="494.42,-111.58 505,-112.02 497.01,-105.07 494.42,-111.58"/>
</a>
</g>
</g>
<!-- Node11 -->
<g id="Node000011" class="node">
<title>Node11</title>
<g id="a_Node000011"><a xlink:href="../../d0/d64/_numerical___method_8cpp_a794f030971fbb7c9dd4bc08df03f50f1.html#a794f030971fbb7c9dd4bc08df03f50f1" target="_top" xlink:title=" ">
<polygon fill="white" stroke="#666666" points="452.5,-95.25 342,-95.25 342,-76 452.5,-76 452.5,-95.25"/>
<text text-anchor="middle" x="397.25" y="-81.75" font-family="Helvetica,sans-Serif" font-size="10.00">Runge_Kutta_Method</text>
</a>
</g>
</g>
<!-- Node3&#45;&gt;Node11 -->
<g id="edge14_Node000003_Node000011" class="edge">
<title>Node3&#45;&gt;Node11</title>
<g id="a_edge14_Node000003_Node000011"><a xlink:title=" ">
<path fill="none" stroke="#63b8ff" d="M509.52,-110.06C488.24,-105.38 464.38,-100.15 444.24,-95.72"/>
<polygon fill="#63b8ff" stroke="#63b8ff" points="508.71,-113.46 519.23,-112.19 510.21,-106.63 508.71,-113.46"/>
</a>
</g>
</g>
<!-- Node4&#45;&gt;Node5 -->
<g id="edge4_Node000004_Node000005" class="edge">
<title>Node4&#45;&gt;Node5</title>
<g id="a_edge4_Node000004_Node000005"><a xlink:title=" ">
<path fill="none" stroke="#63b8ff" d="M350.45,-158.35C304.88,-155.1 234.89,-150.09 186.12,-146.61"/>
<polygon fill="#63b8ff" stroke="#63b8ff" points="350.03,-161.83 360.25,-159.05 350.53,-154.85 350.03,-161.83"/>
</a>
</g>
</g>
<!-- Node7 -->
<g id="Node000007" class="node">
<title>Node7</title>
<g id="a_Node000007"><a xlink:href="../../de/df0/_solver_8cpp_ad0f49408a26339b5f7043bf867c3fa8d.html#ad0f49408a26339b5f7043bf867c3fa8d" target="_top" xlink:title=" ">
<polygon fill="white" stroke="#666666" points="305.25,-20.25 222.5,-20.25 222.5,-1 305.25,-1 305.25,-20.25"/>
<text text-anchor="middle" x="263.88" y="-6.75" font-family="Helvetica,sans-Serif" font-size="10.00">Inviscid_Solver</text>
</a>
</g>
</g>
<!-- Node6&#45;&gt;Node7 -->
<g id="edge6_Node000006_Node000007" class="edge">
<title>Node6&#45;&gt;Node7</title>
<g id="a_edge6_Node000006_Node000007"><a xlink:title=" ">
<path fill="none" stroke="#63b8ff" d="M342.82,-10.03C330.45,-10.13 317.48,-10.22 305.74,-10.31"/>
<polygon fill="#63b8ff" stroke="#63b8ff" points="342.47,-13.53 352.45,-9.96 342.42,-6.53 342.47,-13.53"/>
</a>
</g>
</g>
<!-- Node6&#45;&gt;Node10 -->
<g id="edge10_Node000006_Node000010" class="edge">
<title>Node6&#45;&gt;Node10</title>
<g id="a_edge10_Node000006_Node000010"><a xlink:title=" ">
<path fill="none" stroke="#63b8ff" d="M350.68,-22.81C333.87,-27.67 315.12,-33.09 299.44,-37.63"/>
<polygon fill="#63b8ff" stroke="#63b8ff" points="351.3,-26.27 359.93,-20.13 349.36,-19.55 351.3,-26.27"/>
</a>
</g>
</g>
<!-- Node7&#45;&gt;Node5 -->
<g id="edge7_Node000007_Node000005" class="edge">
<title>Node7&#45;&gt;Node5</title>
<g id="a_edge7_Node000007_Node000005"><a xlink:title=" ">
<path fill="none" stroke="#63b8ff" d="M225.22,-26.16C224.02,-26.95 222.86,-27.77 221.75,-28.62 181.68,-59.33 148.69,-111.18 135.99,-132.75"/>
<polygon fill="#63b8ff" stroke="#63b8ff" points="226.57,-29.42 233.54,-21.44 223.12,-23.33 226.57,-29.42"/>
</a>
</g>
</g>
<!-- Node8 -->
<g id="Node000008" class="node">
<title>Node8</title>
<g id="a_Node000008"><a xlink:href="../../d5/d12/_main_8cpp_a35d775933750ace299102f06a1712663.html#a35d775933750ace299102f06a1712663" target="_top" xlink:title=" ">
<polygon fill="white" stroke="#666666" points="158,-39.25 100.75,-39.25 100.75,-20 158,-20 158,-39.25"/>
<text text-anchor="middle" x="129.38" y="-25.75" font-family="Helvetica,sans-Serif" font-size="10.00">runSolver</text>
</a>
</g>
</g>
<!-- Node7&#45;&gt;Node8 -->
<g id="edge8_Node000007_Node000008" class="edge">
<title>Node7&#45;&gt;Node8</title>
<g id="a_edge8_Node000007_Node000008"><a xlink:title=" ">
<path fill="none" stroke="#63b8ff" d="M210.83,-18.09C192.9,-20.66 173.53,-23.44 158.28,-25.62"/>
<polygon fill="#63b8ff" stroke="#63b8ff" points="211.14,-21.58 220.54,-16.7 210.15,-14.65 211.14,-21.58"/>
</a>
</g>
</g>
<!-- Node9 -->
<g id="Node000009" class="node">
<title>Node9</title>
<g id="a_Node000009"><a xlink:href="../../d5/d12/_main_8cpp_a0ddf1224851353fc92bfbff6f499fa97.html#a0ddf1224851353fc92bfbff6f499fa97" target="_top" xlink:title=" ">
<polygon fill="white" stroke="#666666" points="37,-39.25 0,-39.25 0,-20 37,-20 37,-39.25"/>
<text text-anchor="middle" x="18.5" y="-25.75" font-family="Helvetica,sans-Serif" font-size="10.00">main</text>
</a>
</g>
</g>
<!-- Node8&#45;&gt;Node9 -->
<g id="edge9_Node000008_Node000009" class="edge">
<title>Node8&#45;&gt;Node9</title>
<g id="a_edge9_Node000008_Node000009"><a xlink:title=" ">
<path fill="none" stroke="#63b8ff" d="M88.84,-29.62C71.14,-29.62 51.16,-29.62 37.22,-29.62"/>
<polygon fill="#63b8ff" stroke="#63b8ff" points="88.82,-33.13 98.82,-29.63 88.82,-26.13 88.82,-33.13"/>
</a>
</g>
</g>
<!-- Node10&#45;&gt;Node5 -->
<g id="edge11_Node000010_Node000005" class="edge">
<title>Node10&#45;&gt;Node5</title>
<g id="a_edge11_Node000010_Node000005"><a xlink:title=" ">
<path fill="none" stroke="#63b8ff" d="M234.61,-63.45C230.25,-66.09 225.83,-68.86 221.75,-71.62 191.96,-91.76 159.15,-118.45 142.12,-132.68"/>
<polygon fill="#63b8ff" stroke="#63b8ff" points="236.38,-66.48 243.23,-58.4 232.84,-60.44 236.38,-66.48"/>
</a>
</g>
</g>
<!-- Node10&#45;&gt;Node8 -->
<g id="edge12_Node000010_Node000008" class="edge">
<title>Node10&#45;&gt;Node8</title>
<g id="a_edge12_Node000010_Node000008"><a xlink:title=" ">
<path fill="none" stroke="#63b8ff" d="M209.97,-40.44C192.33,-38.04 173.37,-35.47 158.38,-33.43"/>
<polygon fill="#63b8ff" stroke="#63b8ff" points="209.43,-43.9 219.81,-41.78 210.38,-36.96 209.43,-43.9"/>
</a>
</g>
</g>
<!-- Node11&#45;&gt;Node5 -->
<g id="edge16_Node000011_Node000005" class="edge">
<title>Node11&#45;&gt;Node5</title>
<g id="a_edge16_Node000011_Node000005"><a xlink:title=" ">
<path fill="none" stroke="#63b8ff" d="M330.52,-91.37C297.56,-95.08 257.21,-100.89 221.75,-109.62 198.17,-115.44 172.2,-125.15 154,-132.54"/>
<polygon fill="#63b8ff" stroke="#63b8ff" points="330.78,-94.86 340.34,-90.3 330.03,-87.9 330.78,-94.86"/>
</a>
</g>
</g>
<!-- Node11&#45;&gt;Node7 -->
<g id="edge15_Node000011_Node000007" class="edge">
<title>Node11&#45;&gt;Node7</title>
<g id="a_edge15_Node000011_Node000007"><a xlink:title=" ">
<path fill="none" stroke="#63b8ff" d="M372.62,-69.32C354.74,-57.33 329.37,-41.03 306,-28.62 300.77,-25.85 295.02,-23.13 289.52,-20.69"/>
<polygon fill="#63b8ff" stroke="#63b8ff" points="370.47,-72.09 380.71,-74.8 374.39,-66.29 370.47,-72.09"/>
</a>
</g>
</g>
<!-- Node11&#45;&gt;Node10 -->
<g id="edge17_Node000011_Node000010" class="edge">
<title>Node11&#45;&gt;Node10</title>
<g id="a_edge17_Node000011_Node000010"><a xlink:title=" ">
<path fill="none" stroke="#63b8ff" d="M350.68,-72.44C333.87,-67.58 315.12,-62.16 299.44,-57.62"/>
<polygon fill="#63b8ff" stroke="#63b8ff" points="349.36,-75.7 359.93,-75.12 351.3,-68.98 349.36,-75.7"/>
</a>
</g>
</g>
<!-- Node12&#45;&gt;Node4 -->
<g id="edge20_Node000012_Node000004" class="edge">
<title>Node12&#45;&gt;Node4</title>
<g id="a_edge20_Node000012_Node000004"><a xlink:title=" ">
<path fill="none" stroke="#63b8ff" d="M486.28,-161.62C467.26,-161.62 447.99,-161.62 432.34,-161.62"/>
<polygon fill="#63b8ff" stroke="#63b8ff" points="486.21,-165.13 496.21,-161.63 486.21,-158.13 486.21,-165.13"/>
</a>
</g>
</g>
<!-- Node12&#45;&gt;Node5 -->
<g id="edge22_Node000012_Node000005" class="edge">
<title>Node12&#45;&gt;Node5</title>
<g id="a_edge22_Node000012_Node000005"><a xlink:title=" ">
<path fill="none" stroke="#63b8ff" d="M536.03,-176.29C513.49,-186.2 481.82,-198.41 452.5,-203.62 339.86,-223.67 205.52,-174.63 152.99,-152.64"/>
<polygon fill="#63b8ff" stroke="#63b8ff" points="537.26,-179.57 544.93,-172.27 534.38,-173.19 537.26,-179.57"/>
</a>
</g>
</g>
<!-- Node12&#45;&gt;Node6 -->
<g id="edge21_Node000012_Node000006" class="edge">
<title>Node12&#45;&gt;Node6</title>
<g id="a_edge21_Node000012_Node000006"><a xlink:title=" ">
<path fill="none" stroke="#63b8ff" d="M495.17,-146.37C492.84,-144.93 490.6,-143.35 488.5,-141.62 459.91,-118.18 473.5,-97.06 452.5,-66.62 439.93,-48.41 421.54,-30.42 409.74,-19.67"/>
<polygon fill="#63b8ff" stroke="#63b8ff" points="493.41,-149.4 503.9,-150.89 496.63,-143.18 493.41,-149.4"/>
</a>
</g>
</g>
<!-- Node12&#45;&gt;Node10 -->
<g id="edge24_Node000012_Node000010" class="edge">
<title>Node12&#45;&gt;Node10</title>
<g id="a_edge24_Node000012_Node000010"><a xlink:title=" ">
<path fill="none" stroke="#63b8ff" d="M533.2,-175.71C486.86,-192.8 402.18,-215.3 342,-180.62 294.36,-153.18 273.45,-83.78 267.1,-57.72"/>
<polygon fill="#63b8ff" stroke="#63b8ff" points="534.35,-179.02 542.43,-172.17 531.84,-172.48 534.35,-179.02"/>
</a>
</g>
</g>
<!-- Node12&#45;&gt;Node11 -->
<g id="edge23_Node000012_Node000011" class="edge">
<title>Node12&#45;&gt;Node11</title>
<g id="a_edge23_Node000012_Node000011"><a xlink:title=" ">
<path fill="none" stroke="#63b8ff" d="M506.94,-148.37C500.62,-146.37 494.37,-144.13 488.5,-141.62 459.32,-129.19 428.61,-108.19 411.6,-95.74"/>
<polygon fill="#63b8ff" stroke="#63b8ff" points="505.53,-151.6 516.12,-151.07 507.51,-144.89 505.53,-151.6"/>
</a>
</g>
</g>
<!-- Node13&#45;&gt;Node6 -->
<g id="edge26_Node000013_Node000006" class="edge">
<title>Node13&#45;&gt;Node6</title>
<g id="a_edge26_Node000013_Node000006"><a xlink:title=" ">
<path fill="none" stroke="#63b8ff" d="M534.71,-70.93C511.83,-60.47 480.31,-46.1 452.5,-33.62 442.26,-29.03 430.9,-24 421.24,-19.73"/>
<polygon fill="#63b8ff" stroke="#63b8ff" points="532.95,-73.98 543.5,-74.96 535.87,-67.61 532.95,-73.98"/>
</a>
</g>
</g>
<!-- Node13&#45;&gt;Node11 -->
<g id="edge27_Node000013_Node000011" class="edge">
<title>Node13&#45;&gt;Node11</title>
<g id="a_edge27_Node000013_Node000011"><a xlink:title=" ">
<path fill="none" stroke="#63b8ff" d="M477.12,-85.62C468.85,-85.62 460.64,-85.62 452.83,-85.62"/>
<polygon fill="#63b8ff" stroke="#63b8ff" points="476.91,-89.13 486.91,-85.63 476.91,-82.13 476.91,-89.13"/>
</a>
</g>
</g>
</g>
</svg>
