<?xml version="1.0" encoding="UTF-8" standalone="no"?>
<!DOCTYPE svg PUBLIC "-//W3C//DTD SVG 1.1//EN"
 "http://www.w3.org/Graphics/SVG/1.1/DTD/svg11.dtd">
<!-- Generated by graphviz version 12.2.1 (20241206.2353)
 -->
<!-- Title: Write_Cell_Info Pages: 1 -->
<svg width="535pt" height="95pt"
 viewBox="0.00 0.00 535.00 94.83" xmlns="http://www.w3.org/2000/svg" xmlns:xlink="http://www.w3.org/1999/xlink">
<g id="graph0" class="graph" transform="scale(1 1) rotate(0) translate(4 90.83)">
<title>Write_Cell_Info</title>
<!-- Node1 -->
<g id="Node000001" class="node">
<title>Node1</title>
<g id="a_Node000001"><a xlink:title=" ">
<polygon fill="#999999" stroke="#666666" points="527,-73.4 444.25,-73.4 444.25,-54.15 527,-54.15 527,-73.4"/>
<text text-anchor="middle" x="485.62" y="-59.9" font-family="Helvetica,sans-Serif" font-size="10.00">Write_Cell_Info</text>
</a>
</g>
</g>
<!-- Node2 -->
<g id="Node000002" class="node">
<title>Node2</title>
<g id="a_Node000002"><a xlink:href="../../dd/dbf/_euler___python___wrapper_8cpp_ac5ccb50c3be270f798e054dd36987442.html#ac5ccb50c3be270f798e054dd36987442" target="_top" xlink:title=" ">
<polygon fill="white" stroke="#666666" points="185.75,-73.4 73,-73.4 73,-54.15 185.75,-54.15 185.75,-73.4"/>
<text text-anchor="middle" x="129.38" y="-59.9" font-family="Helvetica,sans-Serif" font-size="10.00">PYBIND11_MODULE</text>
</a>
</g>
</g>
<!-- Node1&#45;&gt;Node2 -->
<g id="edge1_Node000001_Node000002" class="edge">
<title>Node1&#45;&gt;Node2</title>
<g id="a_edge1_Node000001_Node000002"><a xlink:title=" ">
<path fill="none" stroke="#63b8ff" d="M440.48,-76.7C430.01,-79.22 418.81,-81.48 408.25,-82.78 331.58,-92.17 242.39,-82.44 186.16,-73.8"/>
<polygon fill="#63b8ff" stroke="#63b8ff" points="441.2,-80.12 450.03,-74.26 439.47,-73.34 441.2,-80.12"/>
</a>
</g>
</g>
<!-- Node3 -->
<g id="Node000003" class="node">
<title>Node3</title>
<g id="a_Node000003"><a xlink:href="../../dd/de9/_ramp__15___degree_8cpp_af85931ed4e293dce5c8e4acafecd54b5.html#af85931ed4e293dce5c8e4acafecd54b5" target="_top" xlink:title=" ">
<polygon fill="white" stroke="#666666" points="408.25,-36.4 313.5,-36.4 313.5,-17.15 408.25,-17.15 408.25,-36.4"/>
<text text-anchor="middle" x="360.88" y="-22.9" font-family="Helvetica,sans-Serif" font-size="10.00">Ramp_15_Degree</text>
</a>
</g>
</g>
<!-- Node1&#45;&gt;Node3 -->
<g id="edge2_Node000001_Node000003" class="edge">
<title>Node1&#45;&gt;Node3</title>
<g id="a_edge2_Node000001_Node000003"><a xlink:title=" ">
<path fill="none" stroke="#63b8ff" d="M440.13,-50.36C425.36,-45.91 409.17,-41.03 395.38,-36.88"/>
<polygon fill="#63b8ff" stroke="#63b8ff" points="439.05,-53.69 449.63,-53.23 441.07,-46.99 439.05,-53.69"/>
</a>
</g>
</g>
<!-- Node7 -->
<g id="Node000007" class="node">
<title>Node7</title>
<g id="a_Node000007"><a xlink:href="../../d2/d72/_scram___jet___inlet___test___case_8cpp_a49bbbeed352ab44d6248954f9d5391b0.html#a49bbbeed352ab44d6248954f9d5391b0" target="_top" xlink:title=" ">
<polygon fill="white" stroke="#666666" points="404.5,-73.4 317.25,-73.4 317.25,-54.15 404.5,-54.15 404.5,-73.4"/>
<text text-anchor="middle" x="360.88" y="-59.9" font-family="Helvetica,sans-Serif" font-size="10.00">Scram_Jet_Inlet</text>
</a>
</g>
</g>
<!-- Node1&#45;&gt;Node7 -->
<g id="edge8_Node000001_Node000007" class="edge">
<title>Node1&#45;&gt;Node7</title>
<g id="a_edge8_Node000001_Node000007"><a xlink:title=" ">
<path fill="none" stroke="#63b8ff" d="M432.29,-63.78C423.08,-63.78 413.59,-63.78 404.67,-63.78"/>
<polygon fill="#63b8ff" stroke="#63b8ff" points="432.24,-67.28 442.24,-63.78 432.24,-60.28 432.24,-67.28"/>
</a>
</g>
</g>
<!-- Node3&#45;&gt;Node2 -->
<g id="edge3_Node000003_Node000002" class="edge">
<title>Node3&#45;&gt;Node2</title>
<g id="a_edge3_Node000003_Node000002"><a xlink:title=" ">
<path fill="none" stroke="#63b8ff" d="M326.65,-12.69C297.82,-2.64 255.51,6.75 221.75,-7.78 200.38,-16.97 205.42,-33.35 185.75,-45.78 180.79,-48.91 175.24,-51.54 169.61,-53.75"/>
<polygon fill="#63b8ff" stroke="#63b8ff" points="325.36,-15.94 335.95,-16.14 327.8,-9.38 325.36,-15.94"/>
</a>
</g>
</g>
<!-- Node4 -->
<g id="Node000004" class="node">
<title>Node4</title>
<g id="a_Node000004"><a xlink:href="../../d0/de9/_configuration___read_8cpp_a32d98c169e6f866c6411c53d5758292e.html#a32d98c169e6f866c6411c53d5758292e" target="_top" xlink:title=" ">
<polygon fill="white" stroke="#666666" points="277.5,-36.4 221.75,-36.4 221.75,-17.15 277.5,-17.15 277.5,-36.4"/>
<text text-anchor="middle" x="249.62" y="-22.9" font-family="Helvetica,sans-Serif" font-size="10.00">testCase</text>
</a>
</g>
</g>
<!-- Node3&#45;&gt;Node4 -->
<g id="edge4_Node000003_Node000004" class="edge">
<title>Node3&#45;&gt;Node4</title>
<g id="a_edge4_Node000003_Node000004"><a xlink:title=" ">
<path fill="none" stroke="#63b8ff" d="M301.84,-26.78C293.48,-26.78 285.23,-26.78 277.87,-26.78"/>
<polygon fill="#63b8ff" stroke="#63b8ff" points="301.71,-30.28 311.71,-26.78 301.71,-23.28 301.71,-30.28"/>
</a>
</g>
</g>
<!-- Node4&#45;&gt;Node2 -->
<g id="edge5_Node000004_Node000002" class="edge">
<title>Node4&#45;&gt;Node2</title>
<g id="a_edge5_Node000004_Node000002"><a xlink:title=" ">
<path fill="none" stroke="#63b8ff" d="M210.64,-38.66C195.09,-43.53 177.29,-49.1 162.41,-53.75"/>
<polygon fill="#63b8ff" stroke="#63b8ff" points="211.55,-42.04 220.05,-35.72 209.46,-35.36 211.55,-42.04"/>
</a>
</g>
</g>
<!-- Node5 -->
<g id="Node000005" class="node">
<title>Node5</title>
<g id="a_Node000005"><a xlink:href="../../d5/d12/_main_8cpp_a35d775933750ace299102f06a1712663.html#a35d775933750ace299102f06a1712663" target="_top" xlink:title=" ">
<polygon fill="white" stroke="#666666" points="158,-36.4 100.75,-36.4 100.75,-17.15 158,-17.15 158,-36.4"/>
<text text-anchor="middle" x="129.38" y="-22.9" font-family="Helvetica,sans-Serif" font-size="10.00">runSolver</text>
</a>
</g>
</g>
<!-- Node4&#45;&gt;Node5 -->
<g id="edge6_Node000004_Node000005" class="edge">
<title>Node4&#45;&gt;Node5</title>
<g id="a_edge6_Node000004_Node000005"><a xlink:title=" ">
<path fill="none" stroke="#63b8ff" d="M210.25,-26.78C193.29,-26.78 173.72,-26.78 158.2,-26.78"/>
<polygon fill="#63b8ff" stroke="#63b8ff" points="209.98,-30.28 219.98,-26.78 209.98,-23.28 209.98,-30.28"/>
</a>
</g>
</g>
<!-- Node6 -->
<g id="Node000006" class="node">
<title>Node6</title>
<g id="a_Node000006"><a xlink:href="../../d5/d12/_main_8cpp_a0ddf1224851353fc92bfbff6f499fa97.html#a0ddf1224851353fc92bfbff6f499fa97" target="_top" xlink:title=" ">
<polygon fill="white" stroke="#666666" points="37,-36.4 0,-36.4 0,-17.15 37,-17.15 37,-36.4"/>
<text text-anchor="middle" x="18.5" y="-22.9" font-family="Helvetica,sans-Serif" font-size="10.00">main</text>
</a>
</g>
</g>
<!-- Node5&#45;&gt;Node6 -->
<g id="edge7_Node000005_Node000006" class="edge">
<title>Node5&#45;&gt;Node6</title>
<g id="a_edge7_Node000005_Node000006"><a xlink:title=" ">
<path fill="none" stroke="#63b8ff" d="M88.84,-26.78C71.14,-26.78 51.16,-26.78 37.22,-26.78"/>
<polygon fill="#63b8ff" stroke="#63b8ff" points="88.82,-30.28 98.82,-26.78 88.82,-23.28 88.82,-30.28"/>
</a>
</g>
</g>
<!-- Node7&#45;&gt;Node2 -->
<g id="edge9_Node000007_Node000002" class="edge">
<title>Node7&#45;&gt;Node2</title>
<g id="a_edge9_Node000007_Node000002"><a xlink:title=" ">
<path fill="none" stroke="#63b8ff" d="M305.7,-63.78C269.65,-63.78 222.44,-63.78 186.09,-63.78"/>
<polygon fill="#63b8ff" stroke="#63b8ff" points="305.46,-67.28 315.46,-63.78 305.46,-60.28 305.46,-67.28"/>
</a>
</g>
</g>
<!-- Node7&#45;&gt;Node4 -->
<g id="edge10_Node000007_Node000004" class="edge">
<title>Node7&#45;&gt;Node4</title>
<g id="a_edge10_Node000007_Node000004"><a xlink:title=" ">
<path fill="none" stroke="#63b8ff" d="M319.28,-50.03C305.46,-45.35 290.34,-40.23 277.82,-35.99"/>
<polygon fill="#63b8ff" stroke="#63b8ff" points="317.99,-53.29 328.59,-53.18 320.24,-46.66 317.99,-53.29"/>
</a>
</g>
</g>
</g>
</svg>
