<?xml version="1.0" encoding="UTF-8" standalone="no"?>
<!DOCTYPE svg PUBLIC "-//W3C//DTD SVG 1.1//EN"
 "http://www.w3.org/Graphics/SVG/1.1/DTD/svg11.dtd">
<!-- Generated by graphviz version 12.2.1 (20241206.2353)
 -->
<!-- Title: Calculate_Face_Average_Flux Pages: 1 -->
<svg width="470pt" height="64pt"
 viewBox="0.00 0.00 470.00 64.25" xmlns="http://www.w3.org/2000/svg" xmlns:xlink="http://www.w3.org/1999/xlink">
<g id="graph0" class="graph" transform="scale(1 1) rotate(0) translate(4 60.25)">
<title>Calculate_Face_Average_Flux</title>
<!-- Node1 -->
<g id="Node000001" class="node">
<title>Node1</title>
<g id="a_Node000001"><a xlink:title="Calculates the average convective flux at a given face of a cell.">
<polygon fill="#999999" stroke="#666666" points="462,-37.25 312.5,-37.25 312.5,-18 462,-18 462,-37.25"/>
<text text-anchor="middle" x="387.25" y="-23.75" font-family="Helvetica,sans-Serif" font-size="10.00">Calculate_Face_Average_Flux</text>
</a>
</g>
</g>
<!-- Node1&#45;&gt;Node1 -->
<g id="edge1_Node000001_Node000001" class="edge">
<title>Node1&#45;&gt;Node1</title>
<g id="a_edge1_Node000001_Node000001"><a xlink:title=" ">
<path fill="none" stroke="#63b8ff" d="M416.14,-48.32C412.81,-52.37 403.18,-55.25 387.25,-55.25 358.93,-55.25 350.52,-46.15 362.03,-37.54"/>
<polygon fill="#63b8ff" stroke="#63b8ff" points="419.5,-47.31 412.96,-38.97 412.87,-49.57 419.5,-47.31"/>
</a>
</g>
</g>
<!-- Node2 -->
<g id="Node000002" class="node">
<title>Node2</title>
<g id="a_Node000002"><a xlink:href="../../d7/db1/_net___flux_8cpp_a7cee697783ecef13423db8d0fa585cbb.html#a7cee697783ecef13423db8d0fa585cbb" target="_top" xlink:title="Evaluates flux on a given face. Removed unused variables Cells_DelT_invVol and Cell_Areas to avoid co...">
<polygon fill="white" stroke="#666666" points="276.5,-42.88 175.75,-42.88 175.75,-12.37 276.5,-12.37 276.5,-42.88"/>
<text text-anchor="start" x="183.75" y="-29.38" font-family="Helvetica,sans-Serif" font-size="10.00">Calculate_Flux_For</text>
<text text-anchor="middle" x="226.12" y="-18.12" font-family="Helvetica,sans-Serif" font-size="10.00">_All_Faces</text>
</a>
</g>
</g>
<!-- Node1&#45;&gt;Node2 -->
<g id="edge2_Node000001_Node000002" class="edge">
<title>Node1&#45;&gt;Node2</title>
<g id="a_edge2_Node000001_Node000002"><a xlink:title=" ">
<path fill="none" stroke="#63b8ff" d="M301,-27.62C292.74,-27.62 284.57,-27.62 276.83,-27.62"/>
<polygon fill="#63b8ff" stroke="#63b8ff" points="300.76,-31.13 310.76,-27.63 300.76,-24.13 300.76,-31.13"/>
</a>
</g>
</g>
<!-- Node3 -->
<g id="Node000003" class="node">
<title>Node3</title>
<g id="a_Node000003"><a xlink:href="../../d7/db1/_net___flux_8cpp_ad25c9a53b380204dd243bc1351d6b098.html#ad25c9a53b380204dd243bc1351d6b098" target="_top" xlink:title="Evaluates the first&#45;order net flux for all cells in the computational domain.">
<polygon fill="white" stroke="#666666" points="139.75,-56.25 0,-56.25 0,-37 139.75,-37 139.75,-56.25"/>
<text text-anchor="middle" x="69.88" y="-42.75" font-family="Helvetica,sans-Serif" font-size="10.00">Evaluate_Cell_Net_Flux_1O</text>
</a>
</g>
</g>
<!-- Node2&#45;&gt;Node3 -->
<g id="edge3_Node000002_Node000003" class="edge">
<title>Node2&#45;&gt;Node3</title>
<g id="a_edge3_Node000002_Node000003"><a xlink:title=" ">
<path fill="none" stroke="#63b8ff" d="M164.12,-35.14C156.24,-36.11 148.11,-37.11 140.1,-38.1"/>
<polygon fill="#63b8ff" stroke="#63b8ff" points="164.47,-38.62 173.97,-33.93 163.62,-31.68 164.47,-38.62"/>
</a>
</g>
</g>
<!-- Node4 -->
<g id="Node000004" class="node">
<title>Node4</title>
<g id="a_Node000004"><a xlink:href="../../d7/db1/_net___flux_8cpp_a4db2fe24c2a78f98ac91e9d7d271430f.html#a4db2fe24c2a78f98ac91e9d7d271430f" target="_top" xlink:title="Evaluates the net flux for each cell using a second&#45;order flux calculation method.">
<polygon fill="white" stroke="#666666" points="139.75,-19.25 0,-19.25 0,0 139.75,0 139.75,-19.25"/>
<text text-anchor="middle" x="69.88" y="-5.75" font-family="Helvetica,sans-Serif" font-size="10.00">Evaluate_Cell_Net_Flux_2O</text>
</a>
</g>
</g>
<!-- Node2&#45;&gt;Node4 -->
<g id="edge4_Node000002_Node000004" class="edge">
<title>Node2&#45;&gt;Node4</title>
<g id="a_edge4_Node000002_Node000004"><a xlink:title=" ">
<path fill="none" stroke="#63b8ff" d="M164.12,-20.51C156.24,-19.59 148.11,-18.64 140.1,-17.7"/>
<polygon fill="#63b8ff" stroke="#63b8ff" points="163.63,-23.97 173.97,-21.66 164.44,-17.02 163.63,-23.97"/>
</a>
</g>
</g>
</g>
</svg>
