<?xml version="1.0" encoding="UTF-8" standalone="no"?>
<!DOCTYPE svg PUBLIC "-//W3C//DTD SVG 1.1//EN"
 "http://www.w3.org/Graphics/SVG/1.1/DTD/svg11.dtd">
<!-- Generated by graphviz version 12.2.1 (20241206.2353)
 -->
<!-- Title: Calculate_Gradient_On_Face Pages: 1 -->
<svg width="920pt" height="293pt"
 viewBox="0.00 0.00 919.50 293.25" xmlns="http://www.w3.org/2000/svg" xmlns:xlink="http://www.w3.org/1999/xlink">
<g id="graph0" class="graph" transform="scale(1 1) rotate(0) translate(4 289.25)">
<title>Calculate_Gradient_On_Face</title>
<!-- Node1 -->
<g id="Node000001" class="node">
<title>Node1</title>
<g id="a_Node000001"><a xlink:title="Calculate the gradient on a face of a cell.">
<polygon fill="#999999" stroke="#666666" points="911.5,-116.88 812.25,-116.88 812.25,-86.38 911.5,-86.38 911.5,-116.88"/>
<text text-anchor="start" x="820.25" y="-103.38" font-family="Helvetica,sans-Serif" font-size="10.00">Calculate_Gradient</text>
<text text-anchor="middle" x="861.88" y="-92.12" font-family="Helvetica,sans-Serif" font-size="10.00">_On_Face</text>
</a>
</g>
</g>
<!-- Node2 -->
<g id="Node000002" class="node">
<title>Node2</title>
<g id="a_Node000002"><a xlink:href="../../df/d36/_wall___boundary___conditions_8cpp_a5d9a0b19b8197154141a02ed0e831e26.html#a5d9a0b19b8197154141a02ed0e831e26" target="_top" xlink:title=" ">
<polygon fill="white" stroke="#666666" points="604.62,-107.88 501.62,-107.88 501.62,-77.38 604.62,-77.38 604.62,-107.88"/>
<text text-anchor="start" x="509.62" y="-94.38" font-family="Helvetica,sans-Serif" font-size="10.00">Evaluate_Wall_Skin</text>
<text text-anchor="middle" x="553.12" y="-83.12" font-family="Helvetica,sans-Serif" font-size="10.00">_Friction</text>
</a>
</g>
</g>
<!-- Node1&#45;&gt;Node2 -->
<g id="edge1_Node000001_Node000002" class="edge">
<title>Node1&#45;&gt;Node2</title>
<g id="a_edge1_Node000001_Node000002"><a xlink:title=" ">
<path fill="none" stroke="#63b8ff" d="M800.54,-99.85C743.44,-98.18 658.68,-95.69 604.94,-94.12"/>
<polygon fill="#63b8ff" stroke="#63b8ff" points="800.32,-103.35 810.42,-100.14 800.52,-96.35 800.32,-103.35"/>
</a>
</g>
</g>
<!-- Node11 -->
<g id="Node000011" class="node">
<title>Node11</title>
<g id="a_Node000011"><a xlink:href="../../df/d57/_implicit___momentum_8cpp_a50230f674dde72ccf48cc520de73d726.html#a50230f674dde72ccf48cc520de73d726" target="_top" xlink:title=" ">
<polygon fill="white" stroke="#666666" points="776.25,-73.25 653.75,-73.25 653.75,-54 776.25,-54 776.25,-73.25"/>
<text text-anchor="middle" x="715" y="-59.75" font-family="Helvetica,sans-Serif" font-size="10.00">Velocity_Corrector_Step</text>
</a>
</g>
</g>
<!-- Node1&#45;&gt;Node11 -->
<g id="edge15_Node000001_Node000011" class="edge">
<title>Node1&#45;&gt;Node11</title>
<g id="a_edge15_Node000001_Node000011"><a xlink:title=" ">
<path fill="none" stroke="#63b8ff" d="M801.09,-85.94C785.34,-81.81 768.76,-77.46 754.47,-73.71"/>
<polygon fill="#63b8ff" stroke="#63b8ff" points="799.8,-89.22 810.36,-88.38 801.58,-82.45 799.8,-89.22"/>
</a>
</g>
</g>
<!-- Node13 -->
<g id="Node000013" class="node">
<title>Node13</title>
<g id="a_Node000013"><a xlink:href="../../df/d57/_implicit___momentum_8cpp_a720a0d00cec4bc0ffdc40e69de036355.html#a720a0d00cec4bc0ffdc40e69de036355" target="_top" xlink:title=" ">
<polygon fill="white" stroke="#666666" points="775.5,-36.25 654.5,-36.25 654.5,-17 775.5,-17 775.5,-36.25"/>
<text text-anchor="middle" x="715" y="-22.75" font-family="Helvetica,sans-Serif" font-size="10.00">Velocity_Predictor_Step</text>
</a>
</g>
</g>
<!-- Node1&#45;&gt;Node13 -->
<g id="edge17_Node000001_Node000013" class="edge">
<title>Node1&#45;&gt;Node13</title>
<g id="a_edge17_Node000001_Node000013"><a xlink:title=" ">
<path fill="none" stroke="#63b8ff" d="M832.19,-79.1C816.38,-67.54 796.01,-53.97 776.25,-44.62 769.83,-41.59 762.79,-38.94 755.86,-36.67"/>
<polygon fill="#63b8ff" stroke="#63b8ff" points="830.07,-81.89 840.18,-85.08 834.26,-76.29 830.07,-81.89"/>
</a>
</g>
</g>
<!-- Node14 -->
<g id="Node000014" class="node">
<title>Node14</title>
<g id="a_Node000014"><a xlink:href="../../d4/d5d/_grid___refine___functions_8cpp_a3a0810f5dcad0d068c35cb8aa9180be4.html#a3a0810f5dcad0d068c35cb8aa9180be4" target="_top" xlink:title=" ">
<polygon fill="white" stroke="#666666" points="774,-149.25 656,-149.25 656,-130 774,-130 774,-149.25"/>
<text text-anchor="middle" x="715" y="-135.75" font-family="Helvetica,sans-Serif" font-size="10.00">Viscous_Flux_on_Face</text>
</a>
</g>
</g>
<!-- Node1&#45;&gt;Node14 -->
<g id="edge19_Node000001_Node000014" class="edge">
<title>Node1&#45;&gt;Node14</title>
<g id="a_edge19_Node000001_Node000014"><a xlink:title=" ">
<path fill="none" stroke="#63b8ff" d="M800.66,-110.76C777.55,-116.49 752.72,-123.61 735.97,-129.56"/>
<polygon fill="#63b8ff" stroke="#63b8ff" points="801.45,-114.16 810.36,-108.42 799.81,-107.36 801.45,-114.16"/>
</a>
</g>
</g>
<!-- Node1&#45;&gt;Node14 -->
<g id="edge29_Node000001_Node000014" class="edge">
<title>Node1&#45;&gt;Node14</title>
<g id="a_edge29_Node000001_Node000014"><a xlink:title=" ">
<path fill="none" stroke="#63b8ff" d="M812.93,-120.6C800.56,-124.21 787.1,-127.82 774.26,-130.98"/>
<polygon fill="#63b8ff" stroke="#63b8ff" points="813.92,-123.95 822.49,-117.72 811.91,-117.25 813.92,-123.95"/>
</a>
</g>
</g>
<!-- Node3 -->
<g id="Node000003" class="node">
<title>Node3</title>
<g id="a_Node000003"><a xlink:href="../../de/d81/_flat___plate___boundary___layer_8cpp_a787b29de4053181d716a19e7c4c9b705.html#a787b29de4053181d716a19e7c4c9b705" target="_top" xlink:title=" ">
<polygon fill="white" stroke="#666666" points="450.62,-64.88 343.88,-64.88 343.88,-34.38 450.62,-34.38 450.62,-64.88"/>
<text text-anchor="start" x="351.88" y="-51.38" font-family="Helvetica,sans-Serif" font-size="10.00">Flat_Plate_Boundary</text>
<text text-anchor="middle" x="397.25" y="-40.12" font-family="Helvetica,sans-Serif" font-size="10.00">_Layer</text>
</a>
</g>
</g>
<!-- Node2&#45;&gt;Node3 -->
<g id="edge2_Node000002_Node000003" class="edge">
<title>Node2&#45;&gt;Node3</title>
<g id="a_edge2_Node000002_Node000003"><a xlink:title=" ">
<path fill="none" stroke="#63b8ff" d="M490.53,-75.41C477.48,-71.76 463.81,-67.95 451.12,-64.4"/>
<polygon fill="#63b8ff" stroke="#63b8ff" points="489.28,-78.7 499.86,-78.02 491.17,-71.96 489.28,-78.7"/>
</a>
</g>
</g>
<!-- Node5 -->
<g id="Node000005" class="node">
<title>Node5</title>
<g id="a_Node000005"><a xlink:href="../../da/d4b/_flow___over___bump_8cpp_abaa8184c0dd8aa3fdc37d585f0a7d0cc.html#abaa8184c0dd8aa3fdc37d585f0a7d0cc" target="_top" xlink:title=" ">
<polygon fill="white" stroke="#666666" points="444.25,-102.25 350.25,-102.25 350.25,-83 444.25,-83 444.25,-102.25"/>
<text text-anchor="middle" x="397.25" y="-88.75" font-family="Helvetica,sans-Serif" font-size="10.00">Flow_Over_Bump</text>
</a>
</g>
</g>
<!-- Node2&#45;&gt;Node5 -->
<g id="edge4_Node000002_Node000005" class="edge">
<title>Node2&#45;&gt;Node5</title>
<g id="a_edge4_Node000002_Node000005"><a xlink:title=" ">
<path fill="none" stroke="#63b8ff" d="M489.93,-92.62C474.79,-92.62 458.85,-92.62 444.59,-92.62"/>
<polygon fill="#63b8ff" stroke="#63b8ff" points="489.8,-96.13 499.8,-92.63 489.8,-89.13 489.8,-96.13"/>
</a>
</g>
</g>
<!-- Node9 -->
<g id="Node000009" class="node">
<title>Node9</title>
<g id="a_Node000009"><a xlink:href="../../d8/da5/_s_w_b_l_i_8cpp_aab1edbd94ae1737559f5140355148ed8.html#aab1edbd94ae1737559f5140355148ed8" target="_top" xlink:title=" ">
<polygon fill="white" stroke="#666666" points="287.62,-19.25 240.12,-19.25 240.12,0 287.62,0 287.62,-19.25"/>
<text text-anchor="middle" x="263.88" y="-5.75" font-family="Helvetica,sans-Serif" font-size="10.00">SWBLI</text>
</a>
</g>
</g>
<!-- Node2&#45;&gt;Node9 -->
<g id="edge10_Node000002_Node000009" class="edge">
<title>Node2&#45;&gt;Node9</title>
<g id="a_edge10_Node000002_Node000009"><a xlink:title=" ">
<path fill="none" stroke="#63b8ff" d="M504.55,-71.64C498.98,-68.55 493.5,-65.19 488.5,-61.62 470.08,-48.49 473.02,-35.17 452.5,-25.62 397.95,-0.26 324.89,-3.09 288.11,-6.69"/>
<polygon fill="#63b8ff" stroke="#63b8ff" points="502.78,-74.66 513.27,-76.2 506.03,-68.46 502.78,-74.66"/>
</a>
</g>
</g>
<!-- Node10 -->
<g id="Node000010" class="node">
<title>Node10</title>
<g id="a_Node000010"><a xlink:href="../../de/df0/_solver_8cpp_a2f37f06e8324a1ed6aa99efdbba81865.html#a2f37f06e8324a1ed6aa99efdbba81865" target="_top" xlink:title=" ">
<polygon fill="white" stroke="#666666" points="306,-285.25 221.75,-285.25 221.75,-266 306,-266 306,-285.25"/>
<text text-anchor="middle" x="263.88" y="-271.75" font-family="Helvetica,sans-Serif" font-size="10.00">Viscous_Solver</text>
</a>
</g>
</g>
<!-- Node2&#45;&gt;Node10 -->
<g id="edge12_Node000002_Node000010" class="edge">
<title>Node2&#45;&gt;Node10</title>
<g id="a_edge12_Node000002_Node000010"><a xlink:title=" ">
<path fill="none" stroke="#63b8ff" d="M507.39,-114.07C500.54,-118.58 493.96,-123.78 488.5,-129.62 463.81,-156.07 479.36,-178.39 452.5,-202.62 413.6,-237.71 390.76,-224.47 342,-243.62 323.92,-250.73 303.64,-259.16 288.41,-265.59"/>
<polygon fill="#63b8ff" stroke="#63b8ff" points="508.79,-117.31 515.5,-109.12 505.14,-111.34 508.79,-117.31"/>
</a>
</g>
</g>
<!-- Node4 -->
<g id="Node000004" class="node">
<title>Node4</title>
<g id="a_Node000004"><a xlink:href="../../dd/dbf/_euler___python___wrapper_8cpp_ac5ccb50c3be270f798e054dd36987442.html#ac5ccb50c3be270f798e054dd36987442" target="_top" xlink:title=" ">
<polygon fill="white" stroke="#666666" points="185.75,-154.25 73,-154.25 73,-135 185.75,-135 185.75,-154.25"/>
<text text-anchor="middle" x="129.38" y="-140.75" font-family="Helvetica,sans-Serif" font-size="10.00">PYBIND11_MODULE</text>
</a>
</g>
</g>
<!-- Node3&#45;&gt;Node4 -->
<g id="edge3_Node000003_Node000004" class="edge">
<title>Node3&#45;&gt;Node4</title>
<g id="a_edge3_Node000003_Node000004"><a xlink:title=" ">
<path fill="none" stroke="#63b8ff" d="M332.57,-62.05C298.97,-69.6 257.43,-80.52 221.75,-94.62 193.83,-105.66 163.7,-123.41 145.96,-134.52"/>
<polygon fill="#63b8ff" stroke="#63b8ff" points="333.14,-65.51 342.16,-59.95 331.64,-58.67 333.14,-65.51"/>
</a>
</g>
</g>
<!-- Node5&#45;&gt;Node4 -->
<g id="edge5_Node000005_Node000004" class="edge">
<title>Node5&#45;&gt;Node4</title>
<g id="a_edge5_Node000005_Node000004"><a xlink:title=" ">
<path fill="none" stroke="#63b8ff" d="M338.6,-95.44C304.31,-97.98 260.16,-102.73 221.75,-111.62 197.92,-117.14 171.77,-127 153.58,-134.5"/>
<polygon fill="#63b8ff" stroke="#63b8ff" points="338.58,-98.95 348.31,-94.77 338.1,-91.97 338.58,-98.95"/>
</a>
</g>
</g>
<!-- Node6 -->
<g id="Node000006" class="node">
<title>Node6</title>
<g id="a_Node000006"><a xlink:href="../../d0/de9/_configuration___read_8cpp_a32d98c169e6f866c6411c53d5758292e.html#a32d98c169e6f866c6411c53d5758292e" target="_top" xlink:title=" ">
<polygon fill="white" stroke="#666666" points="291.75,-211.25 236,-211.25 236,-192 291.75,-192 291.75,-211.25"/>
<text text-anchor="middle" x="263.88" y="-197.75" font-family="Helvetica,sans-Serif" font-size="10.00">testCase</text>
</a>
</g>
</g>
<!-- Node5&#45;&gt;Node6 -->
<g id="edge6_Node000005_Node000006" class="edge">
<title>Node5&#45;&gt;Node6</title>
<g id="a_edge6_Node000005_Node000006"><a xlink:title=" ">
<path fill="none" stroke="#63b8ff" d="M375.57,-109.78C347.83,-132.8 299.43,-172.95 276.97,-191.59"/>
<polygon fill="#63b8ff" stroke="#63b8ff" points="377.5,-112.73 382.96,-103.65 373.03,-107.34 377.5,-112.73"/>
</a>
</g>
</g>
<!-- Node6&#45;&gt;Node4 -->
<g id="edge7_Node000006_Node000004" class="edge">
<title>Node6&#45;&gt;Node4</title>
<g id="a_edge7_Node000006_Node000004"><a xlink:title=" ">
<path fill="none" stroke="#63b8ff" d="M229.2,-187.14C205.52,-176.95 174.45,-163.59 153.52,-154.58"/>
<polygon fill="#63b8ff" stroke="#63b8ff" points="227.53,-190.23 238.1,-190.97 230.3,-183.8 227.53,-190.23"/>
</a>
</g>
</g>
<!-- Node7 -->
<g id="Node000007" class="node">
<title>Node7</title>
<g id="a_Node000007"><a xlink:href="../../d5/d12/_main_8cpp_a35d775933750ace299102f06a1712663.html#a35d775933750ace299102f06a1712663" target="_top" xlink:title=" ">
<polygon fill="white" stroke="#666666" points="158,-248.25 100.75,-248.25 100.75,-229 158,-229 158,-248.25"/>
<text text-anchor="middle" x="129.38" y="-234.75" font-family="Helvetica,sans-Serif" font-size="10.00">runSolver</text>
</a>
</g>
</g>
<!-- Node6&#45;&gt;Node7 -->
<g id="edge8_Node000006_Node000007" class="edge">
<title>Node6&#45;&gt;Node7</title>
<g id="a_edge8_Node000006_Node000007"><a xlink:title=" ">
<path fill="none" stroke="#63b8ff" d="M224.84,-212.25C203.65,-218.16 177.71,-225.41 158.38,-230.8"/>
<polygon fill="#63b8ff" stroke="#63b8ff" points="225.59,-215.67 234.28,-209.61 223.71,-208.93 225.59,-215.67"/>
</a>
</g>
</g>
<!-- Node8 -->
<g id="Node000008" class="node">
<title>Node8</title>
<g id="a_Node000008"><a xlink:href="../../d5/d12/_main_8cpp_a0ddf1224851353fc92bfbff6f499fa97.html#a0ddf1224851353fc92bfbff6f499fa97" target="_top" xlink:title=" ">
<polygon fill="white" stroke="#666666" points="37,-248.25 0,-248.25 0,-229 37,-229 37,-248.25"/>
<text text-anchor="middle" x="18.5" y="-234.75" font-family="Helvetica,sans-Serif" font-size="10.00">main</text>
</a>
</g>
</g>
<!-- Node7&#45;&gt;Node8 -->
<g id="edge9_Node000007_Node000008" class="edge">
<title>Node7&#45;&gt;Node8</title>
<g id="a_edge9_Node000007_Node000008"><a xlink:title=" ">
<path fill="none" stroke="#63b8ff" d="M88.84,-238.62C71.14,-238.62 51.16,-238.62 37.22,-238.62"/>
<polygon fill="#63b8ff" stroke="#63b8ff" points="88.82,-242.13 98.82,-238.63 88.82,-235.13 88.82,-242.13"/>
</a>
</g>
</g>
<!-- Node9&#45;&gt;Node4 -->
<g id="edge11_Node000009_Node000004" class="edge">
<title>Node9&#45;&gt;Node4</title>
<g id="a_edge11_Node000009_Node000004"><a xlink:title=" ">
<path fill="none" stroke="#63b8ff" d="M234.71,-25.79C230.2,-28.83 225.72,-32.15 221.75,-35.62 185.31,-67.48 151.11,-114.45 137.08,-134.72"/>
<polygon fill="#63b8ff" stroke="#63b8ff" points="236.57,-28.75 243.14,-20.44 232.82,-22.84 236.57,-28.75"/>
</a>
</g>
</g>
<!-- Node10&#45;&gt;Node4 -->
<g id="edge13_Node000010_Node000004" class="edge">
<title>Node10&#45;&gt;Node4</title>
<g id="a_edge13_Node000010_Node000004"><a xlink:title=" ">
<path fill="none" stroke="#63b8ff" d="M225.22,-260.09C224.03,-259.3 222.87,-258.48 221.75,-257.62 201.19,-241.94 154.96,-178.91 137.36,-154.42"/>
<polygon fill="#63b8ff" stroke="#63b8ff" points="223.12,-262.92 233.55,-264.8 226.57,-256.83 223.12,-262.92"/>
</a>
</g>
</g>
<!-- Node10&#45;&gt;Node7 -->
<g id="edge14_Node000010_Node000007" class="edge">
<title>Node10&#45;&gt;Node7</title>
<g id="a_edge14_Node000010_Node000007"><a xlink:title=" ">
<path fill="none" stroke="#63b8ff" d="M215.65,-262.44C196.39,-257.06 174.78,-251.02 158.13,-246.38"/>
<polygon fill="#63b8ff" stroke="#63b8ff" points="214.64,-265.79 225.21,-265.11 216.52,-259.05 214.64,-265.79"/>
</a>
</g>
</g>
<!-- Node12 -->
<g id="Node000012" class="node">
<title>Node12</title>
<g id="a_Node000012"><a xlink:href="../../d4/d86/_incompressible___n_s_8cpp_a5e9f0a5f022b6318f83dd5a762785d1f.html#a5e9f0a5f022b6318f83dd5a762785d1f" target="_top" xlink:title=" ">
<polygon fill="white" stroke="#666666" points="609.12,-52.25 497.12,-52.25 497.12,-33 609.12,-33 609.12,-52.25"/>
<text text-anchor="middle" x="553.12" y="-38.75" font-family="Helvetica,sans-Serif" font-size="10.00">InCompressibleSolver</text>
</a>
</g>
</g>
<!-- Node11&#45;&gt;Node12 -->
<g id="edge16_Node000011_Node000012" class="edge">
<title>Node11&#45;&gt;Node12</title>
<g id="a_edge16_Node000011_Node000012"><a xlink:title=" ">
<path fill="none" stroke="#63b8ff" d="M642.2,-54.19C631.19,-52.75 619.97,-51.27 609.39,-49.88"/>
<polygon fill="#63b8ff" stroke="#63b8ff" points="641.69,-57.66 652.06,-55.49 642.6,-50.72 641.69,-57.66"/>
</a>
</g>
</g>
<!-- Node13&#45;&gt;Node12 -->
<g id="edge18_Node000013_Node000012" class="edge">
<title>Node13&#45;&gt;Node12</title>
<g id="a_edge18_Node000013_Node000012"><a xlink:title=" ">
<path fill="none" stroke="#63b8ff" d="M642.9,-33.74C631.68,-34.86 620.23,-36.01 609.43,-37.09"/>
<polygon fill="#63b8ff" stroke="#63b8ff" points="642.91,-37.26 652.51,-32.78 642.21,-30.29 642.91,-37.26"/>
</a>
</g>
</g>
<!-- Node15 -->
<g id="Node000015" class="node">
<title>Node15</title>
<g id="a_Node000015"><a xlink:href="../../d4/d5d/_grid___refine___functions_8cpp_a23f2145125f9b089e43c4c69c4a8905c.html#a23f2145125f9b089e43c4c69c4a8905c" target="_top" xlink:title=" ">
<polygon fill="white" stroke="#666666" points="617.75,-158.25 488.5,-158.25 488.5,-139 617.75,-139 617.75,-158.25"/>
<text text-anchor="middle" x="553.12" y="-144.75" font-family="Helvetica,sans-Serif" font-size="10.00">Evaluate_Viscous_Fluxes</text>
</a>
</g>
</g>
<!-- Node14&#45;&gt;Node15 -->
<g id="edge20_Node000014_Node000015" class="edge">
<title>Node14&#45;&gt;Node15</title>
<g id="a_edge20_Node000014_Node000015"><a xlink:title=" ">
<path fill="none" stroke="#63b8ff" d="M644.48,-143.54C635.75,-144.03 626.84,-144.53 618.2,-145.02"/>
<polygon fill="#63b8ff" stroke="#63b8ff" points="644.53,-147.04 654.32,-142.98 644.14,-140.05 644.53,-147.04"/>
</a>
</g>
</g>
<!-- Node15&#45;&gt;Node4 -->
<g id="edge21_Node000015_Node000004" class="edge">
<title>Node15&#45;&gt;Node4</title>
<g id="a_edge21_Node000015_Node000004"><a xlink:title=" ">
<path fill="none" stroke="#63b8ff" d="M476.62,-147.91C393.08,-147.12 260.46,-145.86 185.93,-145.15"/>
<polygon fill="#63b8ff" stroke="#63b8ff" points="476.52,-151.41 486.56,-148 476.59,-144.41 476.52,-151.41"/>
</a>
</g>
</g>
<!-- Node15&#45;&gt;Node10 -->
<g id="edge28_Node000015_Node000010" class="edge">
<title>Node15&#45;&gt;Node10</title>
<g id="a_edge28_Node000015_Node000010"><a xlink:title=" ">
<path fill="none" stroke="#63b8ff" d="M537.97,-167.76C520.49,-189.86 488.62,-225.49 452.5,-243.62 405.99,-266.98 345.69,-273.71 306.17,-275.43"/>
<polygon fill="#63b8ff" stroke="#63b8ff" points="540.71,-169.94 544.02,-159.87 535.16,-165.67 540.71,-169.94"/>
</a>
</g>
</g>
<!-- Node16 -->
<g id="Node000016" class="node">
<title>Node16</title>
<g id="a_Node000016"><a xlink:href="../../d0/d64/_numerical___method_8cpp_a794f030971fbb7c9dd4bc08df03f50f1.html#a794f030971fbb7c9dd4bc08df03f50f1" target="_top" xlink:title=" ">
<polygon fill="white" stroke="#666666" points="452.5,-193.25 342,-193.25 342,-174 452.5,-174 452.5,-193.25"/>
<text text-anchor="middle" x="397.25" y="-179.75" font-family="Helvetica,sans-Serif" font-size="10.00">Runge_Kutta_Method</text>
</a>
</g>
</g>
<!-- Node15&#45;&gt;Node16 -->
<g id="edge22_Node000015_Node000016" class="edge">
<title>Node15&#45;&gt;Node16</title>
<g id="a_edge22_Node000015_Node000016"><a xlink:title=" ">
<path fill="none" stroke="#63b8ff" d="M496.55,-161.27C478.83,-165.3 459.47,-169.7 442.66,-173.52"/>
<polygon fill="#63b8ff" stroke="#63b8ff" points="497.17,-164.71 506.14,-159.08 495.61,-157.89 497.17,-164.71"/>
</a>
</g>
</g>
<!-- Node16&#45;&gt;Node4 -->
<g id="edge26_Node000016_Node000004" class="edge">
<title>Node16&#45;&gt;Node4</title>
<g id="a_edge26_Node000016_Node000004"><a xlink:title=" ">
<path fill="none" stroke="#63b8ff" d="M330.54,-173.99C286.17,-167.48 228.24,-158.98 186.12,-152.8"/>
<polygon fill="#63b8ff" stroke="#63b8ff" points="329.91,-177.43 340.31,-175.42 330.92,-170.5 329.91,-177.43"/>
</a>
</g>
</g>
<!-- Node16&#45;&gt;Node10 -->
<g id="edge27_Node000016_Node000010" class="edge">
<title>Node16&#45;&gt;Node10</title>
<g id="a_edge27_Node000016_Node000010"><a xlink:title=" ">
<path fill="none" stroke="#63b8ff" d="M365.73,-199.26C357.65,-204.02 349.19,-209.6 342,-215.62 323.16,-231.42 325.76,-242.99 306,-257.62 301.87,-260.69 297.13,-263.37 292.38,-265.66"/>
<polygon fill="#63b8ff" stroke="#63b8ff" points="367.3,-202.39 374.3,-194.45 363.87,-196.29 367.3,-202.39"/>
</a>
</g>
</g>
<!-- Node17 -->
<g id="Node000017" class="node">
<title>Node17</title>
<g id="a_Node000017"><a xlink:href="../../de/df0/_solver_8cpp_ad0f49408a26339b5f7043bf867c3fa8d.html#ad0f49408a26339b5f7043bf867c3fa8d" target="_top" xlink:title=" ">
<polygon fill="white" stroke="#666666" points="305.25,-248.25 222.5,-248.25 222.5,-229 305.25,-229 305.25,-248.25"/>
<text text-anchor="middle" x="263.88" y="-234.75" font-family="Helvetica,sans-Serif" font-size="10.00">Inviscid_Solver</text>
</a>
</g>
</g>
<!-- Node16&#45;&gt;Node17 -->
<g id="edge23_Node000016_Node000017" class="edge">
<title>Node16&#45;&gt;Node17</title>
<g id="a_edge23_Node000016_Node000017"><a xlink:title=" ">
<path fill="none" stroke="#63b8ff" d="M361.81,-198.05C338.84,-207.66 309.24,-220.05 288.82,-228.6"/>
<polygon fill="#63b8ff" stroke="#63b8ff" points="362.89,-201.39 370.76,-194.3 360.18,-194.93 362.89,-201.39"/>
</a>
</g>
</g>
<!-- Node17&#45;&gt;Node4 -->
<g id="edge24_Node000017_Node000004" class="edge">
<title>Node17&#45;&gt;Node4</title>
<g id="a_edge24_Node000017_Node000004"><a xlink:title=" ">
<path fill="none" stroke="#63b8ff" d="M226.85,-223.58C225.1,-222.62 223.39,-221.64 221.75,-220.62 189.45,-200.68 156.37,-170.14 140.33,-154.54"/>
<polygon fill="#63b8ff" stroke="#63b8ff" points="225.21,-226.67 235.72,-227.99 228.33,-220.41 225.21,-226.67"/>
</a>
</g>
</g>
<!-- Node17&#45;&gt;Node7 -->
<g id="edge25_Node000017_Node000007" class="edge">
<title>Node17&#45;&gt;Node7</title>
<g id="a_edge25_Node000017_Node000007"><a xlink:title=" ">
<path fill="none" stroke="#63b8ff" d="M210.57,-238.62C192.72,-238.62 173.46,-238.62 158.28,-238.62"/>
<polygon fill="#63b8ff" stroke="#63b8ff" points="210.53,-242.13 220.53,-238.63 210.53,-235.13 210.53,-242.13"/>
</a>
</g>
</g>
</g>
</svg>
