<?xml version="1.0" encoding="UTF-8" standalone="no"?>
<!DOCTYPE svg PUBLIC "-//W3C//DTD SVG 1.1//EN"
 "http://www.w3.org/Graphics/SVG/1.1/DTD/svg11.dtd">
<!-- Generated by graphviz version 12.2.1 (20241206.2353)
 -->
<!-- Title: Check_Cells Pages: 1 -->
<svg width="816pt" height="725pt"
 viewBox="0.00 0.00 816.00 725.20" xmlns="http://www.w3.org/2000/svg" xmlns:xlink="http://www.w3.org/1999/xlink">
<g id="graph0" class="graph" transform="scale(1 1) rotate(0) translate(4 721.2)">
<title>Check_Cells</title>
<!-- Node1 -->
<g id="Node000001" class="node">
<title>Node1</title>
<g id="a_Node000001"><a xlink:title=" ">
<polygon fill="#999999" stroke="#666666" points="808,-540.2 735.75,-540.2 735.75,-520.95 808,-520.95 808,-540.2"/>
<text text-anchor="middle" x="771.88" y="-526.7" font-family="Helvetica,sans-Serif" font-size="10.00">Check_Cells</text>
</a>
</g>
</g>
<!-- Node2 -->
<g id="Node000002" class="node">
<title>Node2</title>
<g id="a_Node000002"><a xlink:href="../../d8/d40/_grid___computations_8cpp_a831dcf7cbf36ddf425ce0753495ba3c6.html#a831dcf7cbf36ddf425ce0753495ba3c6" target="_top" xlink:title=" ">
<polygon fill="white" stroke="#666666" points="601.25,-364.2 535,-364.2 535,-344.95 601.25,-344.95 601.25,-364.2"/>
<text text-anchor="middle" x="568.12" y="-350.7" font-family="Helvetica,sans-Serif" font-size="10.00">Form_Cells</text>
</a>
</g>
</g>
<!-- Node1&#45;&gt;Node2 -->
<g id="edge1_Node000001_Node000002" class="edge">
<title>Node1&#45;&gt;Node2</title>
<g id="a_edge1_Node000001_Node000002"><a xlink:title=" ">
<path fill="none" stroke="#63b8ff" d="M750.93,-513.17C709.09,-476.67 613.28,-393.09 580.42,-364.43"/>
<polygon fill="#63b8ff" stroke="#63b8ff" points="748.47,-515.67 758.31,-519.61 753.07,-510.4 748.47,-515.67"/>
</a>
</g>
</g>
<!-- Node4 -->
<g id="Node000004" class="node">
<title>Node4</title>
<g id="a_Node000004"><a xlink:href="../../dd/dbf/_euler___python___wrapper_8cpp_ac5ccb50c3be270f798e054dd36987442.html#ac5ccb50c3be270f798e054dd36987442" target="_top" xlink:title=" ">
<polygon fill="white" stroke="#666666" points="185.75,-347.2 73,-347.2 73,-327.95 185.75,-327.95 185.75,-347.2"/>
<text text-anchor="middle" x="129.38" y="-333.7" font-family="Helvetica,sans-Serif" font-size="10.00">PYBIND11_MODULE</text>
</a>
</g>
</g>
<!-- Node1&#45;&gt;Node4 -->
<g id="edge47_Node000001_Node000004" class="edge">
<title>Node1&#45;&gt;Node4</title>
<g id="a_edge47_Node000001_Node000004"><a xlink:title=" ">
<path fill="none" stroke="#63b8ff" d="M760.36,-550.43C734.48,-596.27 662.93,-705.57 569.12,-705.57 569.12,-705.57 569.12,-705.57 442.38,-705.57 343.64,-705.57 296.4,-744.19 221.75,-679.57 168.89,-633.82 137.82,-399.29 131.56,-347.64"/>
<polygon fill="#63b8ff" stroke="#63b8ff" points="763.34,-552.26 765.09,-541.81 757.21,-548.89 763.34,-552.26"/>
</a>
</g>
</g>
<!-- Node23 -->
<g id="Node000023" class="node">
<title>Node23</title>
<g id="a_Node000023"><a xlink:href="../../d8/d40/_grid___computations_8cpp_a663d4b3ae06e638c2f2e82ad437e831e.html#a663d4b3ae06e638c2f2e82ad437e831e" target="_top" xlink:title="Reads the input grid file and constructs physical cells, evaluates face areas, normals,...">
<polygon fill="white" stroke="#666666" points="699.75,-540.2 637.25,-540.2 637.25,-520.95 699.75,-520.95 699.75,-540.2"/>
<text text-anchor="middle" x="668.5" y="-526.7" font-family="Helvetica,sans-Serif" font-size="10.00">Read_Grid</text>
</a>
</g>
</g>
<!-- Node1&#45;&gt;Node23 -->
<g id="edge48_Node000001_Node000023" class="edge">
<title>Node1&#45;&gt;Node23</title>
<g id="a_edge48_Node000001_Node000023"><a xlink:title=" ">
<path fill="none" stroke="#63b8ff" d="M724.07,-530.57C715.91,-530.57 707.62,-530.57 700.05,-530.57"/>
<polygon fill="#63b8ff" stroke="#63b8ff" points="723.91,-534.07 733.91,-530.57 723.91,-527.07 723.91,-534.07"/>
</a>
</g>
</g>
<!-- Node3 -->
<g id="Node000003" class="node">
<title>Node3</title>
<g id="a_Node000003"><a xlink:href="../../d0/d3f/_channel___flow_8cpp_a986df1d2277d1fc7e22408557f29c135.html#a986df1d2277d1fc7e22408557f29c135" target="_top" xlink:title=" ">
<polygon fill="white" stroke="#666666" points="482.5,-103.2 404.25,-103.2 404.25,-83.95 482.5,-83.95 482.5,-103.2"/>
<text text-anchor="middle" x="443.38" y="-89.7" font-family="Helvetica,sans-Serif" font-size="10.00">Channel_Flow</text>
</a>
</g>
</g>
<!-- Node2&#45;&gt;Node3 -->
<g id="edge2_Node000002_Node000003" class="edge">
<title>Node2&#45;&gt;Node3</title>
<g id="a_edge2_Node000002_Node000003"><a xlink:title=" ">
<path fill="none" stroke="#63b8ff" d="M567.46,-333.36C567.02,-286.77 559.33,-174.68 499,-111.57 494.52,-106.88 488.79,-103.41 482.73,-100.85"/>
<polygon fill="#63b8ff" stroke="#63b8ff" points="563.96,-333.14 567.43,-343.15 570.96,-333.16 563.96,-333.14"/>
</a>
</g>
</g>
<!-- Node2&#45;&gt;Node4 -->
<g id="edge23_Node000002_Node000004" class="edge">
<title>Node2&#45;&gt;Node4</title>
<g id="a_edge23_Node000002_Node000004"><a xlink:title=" ">
<path fill="none" stroke="#63b8ff" d="M564.69,-375.41C559.38,-411.4 543.43,-485.33 499,-526.57 453.23,-569.06 273.3,-607.83 221.75,-572.57 142.63,-518.44 132.01,-384.95 130.59,-347.49"/>
<polygon fill="#63b8ff" stroke="#63b8ff" points="568.11,-376.25 565.95,-365.87 561.17,-375.33 568.11,-376.25"/>
</a>
</g>
</g>
<!-- Node8 -->
<g id="Node000008" class="node">
<title>Node8</title>
<g id="a_Node000008"><a xlink:href="../../d8/d62/_ellinga___test_case_8cpp_ae7167da7e4a13ec20ea77342a492b6ee.html#ae7167da7e4a13ec20ea77342a492b6ee" target="_top" xlink:title=" ">
<polygon fill="white" stroke="#666666" points="334.12,-563.2 239.38,-563.2 239.38,-543.95 334.12,-543.95 334.12,-563.2"/>
<text text-anchor="middle" x="286.75" y="-549.7" font-family="Helvetica,sans-Serif" font-size="10.00">Ellinga_Carbuncle</text>
</a>
</g>
</g>
<!-- Node2&#45;&gt;Node8 -->
<g id="edge8_Node000002_Node000008" class="edge">
<title>Node2&#45;&gt;Node8</title>
<g id="a_edge8_Node000002_Node000008"><a xlink:title=" ">
<path fill="none" stroke="#63b8ff" d="M561.89,-375.53C553.51,-404.78 534.32,-457.63 499,-487.57 451.96,-527.45 380.87,-543.27 334.37,-549.52"/>
<polygon fill="#63b8ff" stroke="#63b8ff" points="565.22,-376.6 564.44,-366.03 558.46,-374.78 565.22,-376.6"/>
</a>
</g>
</g>
<!-- Node9 -->
<g id="Node000009" class="node">
<title>Node9</title>
<g id="a_Node000009"><a xlink:href="../../de/d81/_flat___plate___boundary___layer_8cpp_a787b29de4053181d716a19e7c4c9b705.html#a787b29de4053181d716a19e7c4c9b705" target="_top" xlink:title=" ">
<polygon fill="white" stroke="#666666" points="340.12,-525.82 233.38,-525.82 233.38,-495.32 340.12,-495.32 340.12,-525.82"/>
<text text-anchor="start" x="241.38" y="-512.32" font-family="Helvetica,sans-Serif" font-size="10.00">Flat_Plate_Boundary</text>
<text text-anchor="middle" x="286.75" y="-501.07" font-family="Helvetica,sans-Serif" font-size="10.00">_Layer</text>
</a>
</g>
</g>
<!-- Node2&#45;&gt;Node9 -->
<g id="edge10_Node000002_Node000009" class="edge">
<title>Node2&#45;&gt;Node9</title>
<g id="a_edge10_Node000002_Node000009"><a xlink:title=" ">
<path fill="none" stroke="#63b8ff" d="M558.07,-374.54C547.14,-396.42 526.71,-430.99 499,-450.57 451.67,-484.02 386.07,-498.9 340.58,-505.47"/>
<polygon fill="#63b8ff" stroke="#63b8ff" points="561.11,-376.31 562.26,-365.77 554.79,-373.29 561.11,-376.31"/>
</a>
</g>
</g>
<!-- Node10 -->
<g id="Node000010" class="node">
<title>Node10</title>
<g id="a_Node000010"><a xlink:href="../../da/d4b/_flow___over___bump_8cpp_abaa8184c0dd8aa3fdc37d585f0a7d0cc.html#abaa8184c0dd8aa3fdc37d585f0a7d0cc" target="_top" xlink:title=" ">
<polygon fill="white" stroke="#666666" points="490.38,-66.2 396.38,-66.2 396.38,-46.95 490.38,-46.95 490.38,-66.2"/>
<text text-anchor="middle" x="443.38" y="-52.7" font-family="Helvetica,sans-Serif" font-size="10.00">Flow_Over_Bump</text>
</a>
</g>
</g>
<!-- Node2&#45;&gt;Node10 -->
<g id="edge12_Node000002_Node000010" class="edge">
<title>Node2&#45;&gt;Node10</title>
<g id="a_edge12_Node000002_Node000010"><a xlink:title=" ">
<path fill="none" stroke="#63b8ff" d="M564.63,-333.35C557.36,-274.82 534.41,-112.92 499,-74.57 496.09,-71.42 492.61,-68.81 488.84,-66.67"/>
<polygon fill="#63b8ff" stroke="#63b8ff" points="561.12,-333.46 565.8,-342.97 568.07,-332.62 561.12,-333.46"/>
</a>
</g>
</g>
<!-- Node11 -->
<g id="Node000011" class="node">
<title>Node11</title>
<g id="a_Node000011"><a xlink:href="../../dc/d8c/_forward___facing___step_8cpp_a5f68d17ee33caeda5da8c4270441108c.html#a5f68d17ee33caeda5da8c4270441108c" target="_top" xlink:title=" ">
<polygon fill="white" stroke="#666666" points="499,-29.2 387.75,-29.2 387.75,-9.95 499,-9.95 499,-29.2"/>
<text text-anchor="middle" x="443.38" y="-15.7" font-family="Helvetica,sans-Serif" font-size="10.00">Forward_Facing_Step</text>
</a>
</g>
</g>
<!-- Node2&#45;&gt;Node11 -->
<g id="edge15_Node000002_Node000011" class="edge">
<title>Node2&#45;&gt;Node11</title>
<g id="a_edge15_Node000002_Node000011"><a xlink:title=" ">
<path fill="none" stroke="#63b8ff" d="M565.27,-333.12C559.32,-269.22 538.78,-81.83 499,-37.57 496.13,-34.38 492.68,-31.75 488.93,-29.59"/>
<polygon fill="#63b8ff" stroke="#63b8ff" points="561.77,-333.33 566.15,-342.97 568.74,-332.7 561.77,-333.33"/>
</a>
</g>
</g>
<!-- Node12 -->
<g id="Node000012" class="node">
<title>Node12</title>
<g id="a_Node000012"><a xlink:href="../../df/dee/_half___cylinder___test___case_8cpp_ad6cb651752c2dd1cb946428572cfb769.html#ad6cb651752c2dd1cb946428572cfb769" target="_top" xlink:title=" ">
<polygon fill="white" stroke="#666666" points="494.12,-326.2 392.62,-326.2 392.62,-306.95 494.12,-306.95 494.12,-326.2"/>
<text text-anchor="middle" x="443.38" y="-312.7" font-family="Helvetica,sans-Serif" font-size="10.00">Half_Cylinder_Flow</text>
</a>
</g>
</g>
<!-- Node2&#45;&gt;Node12 -->
<g id="edge18_Node000002_Node000012" class="edge">
<title>Node2&#45;&gt;Node12</title>
<g id="a_edge18_Node000002_Node000012"><a xlink:title=" ">
<path fill="none" stroke="#63b8ff" d="M523.64,-341.11C508.17,-336.32 491.04,-331.02 476.67,-326.57"/>
<polygon fill="#63b8ff" stroke="#63b8ff" points="522.52,-344.43 533.11,-344.04 524.59,-337.74 522.52,-344.43"/>
</a>
</g>
</g>
<!-- Node13 -->
<g id="Node000013" class="node">
<title>Node13</title>
<g id="a_Node000013"><a xlink:href="../../de/dc4/_o_e_d_8cpp_a1404a4711dcead4c50dd9eaa2ab7b7c0.html#a1404a4711dcead4c50dd9eaa2ab7b7c0" target="_top" xlink:title=" ">
<polygon fill="white" stroke="#666666" points="305.62,-477.2 267.88,-477.2 267.88,-457.95 305.62,-457.95 305.62,-477.2"/>
<text text-anchor="middle" x="286.75" y="-463.7" font-family="Helvetica,sans-Serif" font-size="10.00">OED</text>
</a>
</g>
</g>
<!-- Node2&#45;&gt;Node13 -->
<g id="edge21_Node000002_Node000013" class="edge">
<title>Node2&#45;&gt;Node13</title>
<g id="a_edge21_Node000002_Node000013"><a xlink:title=" ">
<path fill="none" stroke="#63b8ff" d="M552.13,-372.86C539.43,-387.15 519.99,-406.39 499,-417.57 433.63,-452.38 344.15,-463.21 306.09,-466.37"/>
<polygon fill="#63b8ff" stroke="#63b8ff" points="554.61,-375.35 558.46,-365.48 549.29,-370.79 554.61,-375.35"/>
</a>
</g>
</g>
<!-- Node14 -->
<g id="Node000014" class="node">
<title>Node14</title>
<g id="a_Node000014"><a xlink:href="../../dd/de9/_ramp__15___degree_8cpp_af85931ed4e293dce5c8e4acafecd54b5.html#af85931ed4e293dce5c8e4acafecd54b5" target="_top" xlink:title=" ">
<polygon fill="white" stroke="#666666" points="490.75,-289.2 396,-289.2 396,-269.95 490.75,-269.95 490.75,-289.2"/>
<text text-anchor="middle" x="443.38" y="-275.7" font-family="Helvetica,sans-Serif" font-size="10.00">Ramp_15_Degree</text>
</a>
</g>
</g>
<!-- Node2&#45;&gt;Node14 -->
<g id="edge24_Node000002_Node000014" class="edge">
<title>Node2&#45;&gt;Node14</title>
<g id="a_edge24_Node000002_Node000014"><a xlink:title=" ">
<path fill="none" stroke="#63b8ff" d="M549.84,-336.9C536.84,-324.44 518.05,-308.17 499,-297.57 493.5,-294.51 487.4,-291.87 481.33,-289.63"/>
<polygon fill="#63b8ff" stroke="#63b8ff" points="547.19,-339.2 556.77,-343.73 552.11,-334.21 547.19,-339.2"/>
</a>
</g>
</g>
<!-- Node15 -->
<g id="Node000015" class="node">
<title>Node15</title>
<g id="a_Node000015"><a xlink:href="../../d2/d72/_scram___jet___inlet___test___case_8cpp_a49bbbeed352ab44d6248954f9d5391b0.html#a49bbbeed352ab44d6248954f9d5391b0" target="_top" xlink:title=" ">
<polygon fill="white" stroke="#666666" points="487,-252.2 399.75,-252.2 399.75,-232.95 487,-232.95 487,-252.2"/>
<text text-anchor="middle" x="443.38" y="-238.7" font-family="Helvetica,sans-Serif" font-size="10.00">Scram_Jet_Inlet</text>
</a>
</g>
</g>
<!-- Node2&#45;&gt;Node15 -->
<g id="edge27_Node000002_Node000015" class="edge">
<title>Node2&#45;&gt;Node15</title>
<g id="a_edge27_Node000002_Node000015"><a xlink:title=" ">
<path fill="none" stroke="#63b8ff" d="M557.31,-334.28C546.04,-313 525.62,-280.02 499,-260.57 494.73,-257.45 489.88,-254.85 484.88,-252.69"/>
<polygon fill="#63b8ff" stroke="#63b8ff" points="554.15,-335.78 561.8,-343.12 560.39,-332.61 554.15,-335.78"/>
</a>
</g>
</g>
<!-- Node16 -->
<g id="Node000016" class="node">
<title>Node16</title>
<g id="a_Node000016"><a xlink:href="../../d1/d48/_shock___bubble___interaction_8cpp_a4cb762eff7e59896e567775356bda66a.html#a4cb762eff7e59896e567775356bda66a" target="_top" xlink:title=" ">
<polygon fill="white" stroke="#666666" points="351.75,-440.2 221.75,-440.2 221.75,-420.95 351.75,-420.95 351.75,-440.2"/>
<text text-anchor="middle" x="286.75" y="-426.7" font-family="Helvetica,sans-Serif" font-size="10.00">Shock_Bubble_Interaction</text>
</a>
</g>
</g>
<!-- Node2&#45;&gt;Node16 -->
<g id="edge30_Node000002_Node000016" class="edge">
<title>Node2&#45;&gt;Node16</title>
<g id="a_edge30_Node000002_Node000016"><a xlink:title=" ">
<path fill="none" stroke="#63b8ff" d="M541.81,-370.28C529.32,-377.41 513.8,-385.39 499,-390.57 451.08,-407.34 394.46,-417.58 351.9,-423.5"/>
<polygon fill="#63b8ff" stroke="#63b8ff" points="543.36,-373.43 550.2,-365.34 539.8,-367.4 543.36,-373.43"/>
</a>
</g>
</g>
<!-- Node17 -->
<g id="Node000017" class="node">
<title>Node17</title>
<g id="a_Node000017"><a xlink:href="../../d5/d9f/_shock___diffraction_8cpp_a464d43fab5d32cc9ecee800dfab8e5c8.html#a464d43fab5d32cc9ecee800dfab8e5c8" target="_top" xlink:title=" ">
<polygon fill="white" stroke="#666666" points="333.75,-403.2 239.75,-403.2 239.75,-383.95 333.75,-383.95 333.75,-403.2"/>
<text text-anchor="middle" x="286.75" y="-389.7" font-family="Helvetica,sans-Serif" font-size="10.00">Shock_Diffraction</text>
</a>
</g>
</g>
<!-- Node2&#45;&gt;Node17 -->
<g id="edge32_Node000002_Node000017" class="edge">
<title>Node2&#45;&gt;Node17</title>
<g id="a_edge32_Node000002_Node000017"><a xlink:title=" ">
<path fill="none" stroke="#63b8ff" d="M523.5,-364.88C515.39,-366.6 506.96,-368.25 499,-369.57 442.56,-378.97 377.03,-385.78 334.1,-389.7"/>
<polygon fill="#63b8ff" stroke="#63b8ff" points="524.19,-368.31 533.21,-362.76 522.69,-361.47 524.19,-368.31"/>
</a>
</g>
</g>
<!-- Node18 -->
<g id="Node000018" class="node">
<title>Node18</title>
<g id="a_Node000018"><a xlink:href="../../d2/d58/_shock___reflection__2_d_8cpp_a286a95bfcac44ff19264008ffd9506ed.html#a286a95bfcac44ff19264008ffd9506ed" target="_top" xlink:title=" ">
<polygon fill="white" stroke="#666666" points="499,-214.2 387.75,-214.2 387.75,-194.95 499,-194.95 499,-214.2"/>
<text text-anchor="middle" x="443.38" y="-200.7" font-family="Helvetica,sans-Serif" font-size="10.00">Shock_Reflection_2D</text>
</a>
</g>
</g>
<!-- Node2&#45;&gt;Node18 -->
<g id="edge34_Node000002_Node000018" class="edge">
<title>Node2&#45;&gt;Node18</title>
<g id="a_edge34_Node000002_Node000018"><a xlink:title=" ">
<path fill="none" stroke="#63b8ff" d="M561.69,-334.05C553.08,-305.38 533.61,-253.5 499,-223.57 494.82,-219.96 489.92,-217.02 484.79,-214.64"/>
<polygon fill="#63b8ff" stroke="#63b8ff" points="558.23,-334.66 564.32,-343.33 564.96,-332.76 558.23,-334.66"/>
</a>
</g>
</g>
<!-- Node19 -->
<g id="Node000019" class="node">
<title>Node19</title>
<g id="a_Node000019"><a xlink:href="../../d6/d4f/_shock___tube__2_d_8cpp_a634f5b7cf63cab96d3b48ed0b4df6ad4.html#a634f5b7cf63cab96d3b48ed0b4df6ad4" target="_top" xlink:title=" ">
<polygon fill="white" stroke="#666666" points="487.75,-177.2 399,-177.2 399,-157.95 487.75,-157.95 487.75,-177.2"/>
<text text-anchor="middle" x="443.38" y="-163.7" font-family="Helvetica,sans-Serif" font-size="10.00">Shock_Tube_2D</text>
</a>
</g>
</g>
<!-- Node2&#45;&gt;Node19 -->
<g id="edge37_Node000002_Node000019" class="edge">
<title>Node2&#45;&gt;Node19</title>
<g id="a_edge37_Node000002_Node000019"><a xlink:title=" ">
<path fill="none" stroke="#63b8ff" d="M564.36,-333.19C558.62,-297.58 542.17,-226.03 499,-185.57 495.65,-182.43 491.74,-179.84 487.58,-177.7"/>
<polygon fill="#63b8ff" stroke="#63b8ff" points="560.89,-333.67 565.79,-343.07 567.82,-332.67 560.89,-333.67"/>
</a>
</g>
</g>
<!-- Node20 -->
<g id="Node000020" class="node">
<title>Node20</title>
<g id="a_Node000020"><a xlink:href="../../de/dda/_shock___wedge___reflection_8cpp_a951397acc5a124a5a006dbd5ae45029a.html#a951397acc5a124a5a006dbd5ae45029a" target="_top" xlink:title=" ">
<polygon fill="white" stroke="#666666" points="351,-366.2 222.5,-366.2 222.5,-346.95 351,-346.95 351,-366.2"/>
<text text-anchor="middle" x="286.75" y="-352.7" font-family="Helvetica,sans-Serif" font-size="10.00">Shock_Wedge_Reflection</text>
</a>
</g>
</g>
<!-- Node2&#45;&gt;Node20 -->
<g id="edge40_Node000002_Node000020" class="edge">
<title>Node2&#45;&gt;Node20</title>
<g id="a_edge40_Node000002_Node000020"><a xlink:title=" ">
<path fill="none" stroke="#63b8ff" d="M523.1,-354.89C476.88,-355.22 403.76,-355.74 351.29,-356.12"/>
<polygon fill="#63b8ff" stroke="#63b8ff" points="523.04,-358.39 533.02,-354.82 522.99,-351.39 523.04,-358.39"/>
</a>
</g>
</g>
<!-- Node21 -->
<g id="Node000021" class="node">
<title>Node21</title>
<g id="a_Node000021"><a xlink:href="../../d8/d8f/_slip___flow__2_d_8cpp_a41030236ecf9b4d95159d7227a838eab.html#a41030236ecf9b4d95159d7227a838eab" target="_top" xlink:title=" ">
<polygon fill="white" stroke="#666666" points="481.75,-140.2 405,-140.2 405,-120.95 481.75,-120.95 481.75,-140.2"/>
<text text-anchor="middle" x="443.38" y="-126.7" font-family="Helvetica,sans-Serif" font-size="10.00">Slip_Flow_2D</text>
</a>
</g>
</g>
<!-- Node2&#45;&gt;Node21 -->
<g id="edge42_Node000002_Node000021" class="edge">
<title>Node2&#45;&gt;Node21</title>
<g id="a_edge42_Node000002_Node000021"><a xlink:title=" ">
<path fill="none" stroke="#63b8ff" d="M566.19,-333.53C563.22,-292.29 550.81,-200.33 499,-148.57 494.27,-143.84 488.27,-140.36 481.99,-137.79"/>
<polygon fill="#63b8ff" stroke="#63b8ff" points="562.68,-333.53 566.76,-343.31 569.67,-333.12 562.68,-333.53"/>
</a>
</g>
</g>
<!-- Node22 -->
<g id="Node000022" class="node">
<title>Node22</title>
<g id="a_Node000022"><a xlink:href="../../d8/da5/_s_w_b_l_i_8cpp_aab1edbd94ae1737559f5140355148ed8.html#aab1edbd94ae1737559f5140355148ed8" target="_top" xlink:title=" ">
<polygon fill="white" stroke="#666666" points="310.5,-639.2 263,-639.2 263,-619.95 310.5,-619.95 310.5,-639.2"/>
<text text-anchor="middle" x="286.75" y="-625.7" font-family="Helvetica,sans-Serif" font-size="10.00">SWBLI</text>
</a>
</g>
</g>
<!-- Node2&#45;&gt;Node22 -->
<g id="edge45_Node000002_Node000022" class="edge">
<title>Node2&#45;&gt;Node22</title>
<g id="a_edge45_Node000002_Node000022"><a xlink:title=" ">
<path fill="none" stroke="#63b8ff" d="M564.43,-375.75C556.99,-430.62 534.36,-575.21 499,-605.57 445.23,-651.74 353.29,-642.15 310.68,-634.48"/>
<polygon fill="#63b8ff" stroke="#63b8ff" points="567.86,-376.53 565.69,-366.16 560.92,-375.62 567.86,-376.53"/>
</a>
</g>
</g>
<!-- Node3&#45;&gt;Node4 -->
<g id="edge3_Node000003_Node000004" class="edge">
<title>Node3&#45;&gt;Node4</title>
<g id="a_edge3_Node000003_Node000004"><a xlink:title=" ">
<path fill="none" stroke="#63b8ff" d="M403.55,-80.21C356.13,-66.52 275.57,-52.04 221.75,-89.57 200.67,-104.27 146.52,-283.12 133.31,-327.6"/>
<polygon fill="#63b8ff" stroke="#63b8ff" points="402.26,-83.48 412.84,-83.03 404.29,-76.78 402.26,-83.48"/>
</a>
</g>
</g>
<!-- Node5 -->
<g id="Node000005" class="node">
<title>Node5</title>
<g id="a_Node000005"><a xlink:href="../../d0/de9/_configuration___read_8cpp_a32d98c169e6f866c6411c53d5758292e.html#a32d98c169e6f866c6411c53d5758292e" target="_top" xlink:title=" ">
<polygon fill="white" stroke="#666666" points="314.62,-138.2 258.88,-138.2 258.88,-118.95 314.62,-118.95 314.62,-138.2"/>
<text text-anchor="middle" x="286.75" y="-124.7" font-family="Helvetica,sans-Serif" font-size="10.00">testCase</text>
</a>
</g>
</g>
<!-- Node3&#45;&gt;Node5 -->
<g id="edge4_Node000003_Node000005" class="edge">
<title>Node3&#45;&gt;Node5</title>
<g id="a_edge4_Node000003_Node000005"><a xlink:title=" ">
<path fill="none" stroke="#63b8ff" d="M392.63,-104.83C366.77,-110.69 336.17,-117.61 314.72,-122.47"/>
<polygon fill="#63b8ff" stroke="#63b8ff" points="393.3,-108.27 402.28,-102.65 391.75,-101.44 393.3,-108.27"/>
</a>
</g>
</g>
<!-- Node5&#45;&gt;Node4 -->
<g id="edge5_Node000005_Node000004" class="edge">
<title>Node5&#45;&gt;Node4</title>
<g id="a_edge5_Node000005_Node000004"><a xlink:title=" ">
<path fill="none" stroke="#63b8ff" d="M247.7,-137.54C238.43,-141.07 229.09,-145.93 221.75,-152.57 165.43,-203.52 139.73,-296.96 132.55,-327.57"/>
<polygon fill="#63b8ff" stroke="#63b8ff" points="248.6,-140.93 256.99,-134.45 246.39,-134.29 248.6,-140.93"/>
</a>
</g>
</g>
<!-- Node6 -->
<g id="Node000006" class="node">
<title>Node6</title>
<g id="a_Node000006"><a xlink:href="../../d5/d12/_main_8cpp_a35d775933750ace299102f06a1712663.html#a35d775933750ace299102f06a1712663" target="_top" xlink:title=" ">
<polygon fill="white" stroke="#666666" points="158,-138.2 100.75,-138.2 100.75,-118.95 158,-118.95 158,-138.2"/>
<text text-anchor="middle" x="129.38" y="-124.7" font-family="Helvetica,sans-Serif" font-size="10.00">runSolver</text>
</a>
</g>
</g>
<!-- Node5&#45;&gt;Node6 -->
<g id="edge6_Node000005_Node000006" class="edge">
<title>Node5&#45;&gt;Node6</title>
<g id="a_edge6_Node000005_Node000006"><a xlink:title=" ">
<path fill="none" stroke="#63b8ff" d="M247.48,-128.57C219.91,-128.57 183.33,-128.57 158.44,-128.57"/>
<polygon fill="#63b8ff" stroke="#63b8ff" points="247.17,-132.07 257.17,-128.57 247.17,-125.07 247.17,-132.07"/>
</a>
</g>
</g>
<!-- Node7 -->
<g id="Node000007" class="node">
<title>Node7</title>
<g id="a_Node000007"><a xlink:href="../../d5/d12/_main_8cpp_a0ddf1224851353fc92bfbff6f499fa97.html#a0ddf1224851353fc92bfbff6f499fa97" target="_top" xlink:title=" ">
<polygon fill="white" stroke="#666666" points="37,-138.2 0,-138.2 0,-118.95 37,-118.95 37,-138.2"/>
<text text-anchor="middle" x="18.5" y="-124.7" font-family="Helvetica,sans-Serif" font-size="10.00">main</text>
</a>
</g>
</g>
<!-- Node6&#45;&gt;Node7 -->
<g id="edge7_Node000006_Node000007" class="edge">
<title>Node6&#45;&gt;Node7</title>
<g id="a_edge7_Node000006_Node000007"><a xlink:title=" ">
<path fill="none" stroke="#63b8ff" d="M88.84,-128.57C71.14,-128.57 51.16,-128.57 37.22,-128.57"/>
<polygon fill="#63b8ff" stroke="#63b8ff" points="88.82,-132.07 98.82,-128.57 88.82,-125.07 88.82,-132.07"/>
</a>
</g>
</g>
<!-- Node8&#45;&gt;Node4 -->
<g id="edge9_Node000008_Node000004" class="edge">
<title>Node8&#45;&gt;Node4</title>
<g id="a_edge9_Node000008_Node000004"><a xlink:title=" ">
<path fill="none" stroke="#63b8ff" d="M228.8,-539.7C226.31,-538.16 223.94,-536.46 221.75,-534.57 160.7,-481.83 137.87,-379.6 132.02,-347.48"/>
<polygon fill="#63b8ff" stroke="#63b8ff" points="227.06,-542.74 237.57,-544.13 230.22,-536.49 227.06,-542.74"/>
</a>
</g>
</g>
<!-- Node9&#45;&gt;Node4 -->
<g id="edge11_Node000009_Node000004" class="edge">
<title>Node9&#45;&gt;Node4</title>
<g id="a_edge11_Node000009_Node000004"><a xlink:title=" ">
<path fill="none" stroke="#63b8ff" d="M224.72,-488.88C223.7,-488.13 222.71,-487.36 221.75,-486.57 173.29,-446.6 143.46,-373.85 133.81,-347.47"/>
<polygon fill="#63b8ff" stroke="#63b8ff" points="222.8,-491.8 233.13,-494.14 226.51,-485.87 222.8,-491.8"/>
</a>
</g>
</g>
<!-- Node10&#45;&gt;Node4 -->
<g id="edge13_Node000010_Node000004" class="edge">
<title>Node10&#45;&gt;Node4</title>
<g id="a_edge13_Node000010_Node000004"><a xlink:title=" ">
<path fill="none" stroke="#63b8ff" d="M398.05,-43.82C349.77,-32.8 272.65,-23.92 221.75,-61.57 210.26,-70.07 147.57,-279.59 133.28,-327.76"/>
<polygon fill="#63b8ff" stroke="#63b8ff" points="397.06,-47.18 407.6,-46.13 398.71,-40.38 397.06,-47.18"/>
</a>
</g>
</g>
<!-- Node10&#45;&gt;Node5 -->
<g id="edge14_Node000010_Node000005" class="edge">
<title>Node10&#45;&gt;Node5</title>
<g id="a_edge14_Node000010_Node000005"><a xlink:title=" ">
<path fill="none" stroke="#63b8ff" d="M398,-70.45C394.5,-71.77 391.05,-73.15 387.75,-74.57 357.31,-87.69 323.75,-106.84 304.28,-118.46"/>
<polygon fill="#63b8ff" stroke="#63b8ff" points="398.85,-73.87 407.09,-67.2 396.5,-67.28 398.85,-73.87"/>
</a>
</g>
</g>
<!-- Node11&#45;&gt;Node4 -->
<g id="edge16_Node000011_Node000004" class="edge">
<title>Node11&#45;&gt;Node4</title>
<g id="a_edge16_Node000011_Node000004"><a xlink:title=" ">
<path fill="none" stroke="#63b8ff" d="M393.5,-7.17C344.7,2.11 270.2,7.47 221.75,-30.57 218.63,-33.02 148.28,-275.68 133.2,-327.79"/>
<polygon fill="#63b8ff" stroke="#63b8ff" points="392.73,-10.59 403.23,-9.16 394.13,-3.73 392.73,-10.59"/>
</a>
</g>
</g>
<!-- Node11&#45;&gt;Node5 -->
<g id="edge17_Node000011_Node000005" class="edge">
<title>Node11&#45;&gt;Node5</title>
<g id="a_edge17_Node000011_Node000005"><a xlink:title=" ">
<path fill="none" stroke="#63b8ff" d="M394.15,-34.17C391.95,-35.24 389.8,-36.37 387.75,-37.57 348.83,-60.29 312.04,-100.12 296.08,-118.61"/>
<polygon fill="#63b8ff" stroke="#63b8ff" points="395.52,-37.39 403.34,-30.24 392.77,-30.96 395.52,-37.39"/>
</a>
</g>
</g>
<!-- Node12&#45;&gt;Node4 -->
<g id="edge19_Node000012_Node000004" class="edge">
<title>Node12&#45;&gt;Node4</title>
<g id="a_edge19_Node000012_Node000004"><a xlink:title=" ">
<path fill="none" stroke="#63b8ff" d="M380.94,-320.71C324.3,-324.52 240.95,-330.13 186.17,-333.82"/>
<polygon fill="#63b8ff" stroke="#63b8ff" points="380.99,-324.21 390.74,-320.05 380.52,-317.23 380.99,-324.21"/>
</a>
</g>
</g>
<!-- Node12&#45;&gt;Node5 -->
<g id="edge20_Node000012_Node000005" class="edge">
<title>Node12&#45;&gt;Node5</title>
<g id="a_edge20_Node000012_Node000005"><a xlink:title=" ">
<path fill="none" stroke="#63b8ff" d="M390.76,-300.82C389.73,-300.11 388.72,-299.36 387.75,-298.57 331.78,-253.43 300.34,-167.95 290.85,-138.69"/>
<polygon fill="#63b8ff" stroke="#63b8ff" points="388.99,-303.84 399.42,-305.71 392.43,-297.74 388.99,-303.84"/>
</a>
</g>
</g>
<!-- Node13&#45;&gt;Node4 -->
<g id="edge22_Node000013_Node000004" class="edge">
<title>Node13&#45;&gt;Node4</title>
<g id="a_edge22_Node000013_Node000004"><a xlink:title=" ">
<path fill="none" stroke="#63b8ff" d="M256.16,-463.19C244.74,-460.53 231.99,-456.29 221.75,-449.57 179.99,-422.19 147.94,-369.7 135.74,-347.68"/>
<polygon fill="#63b8ff" stroke="#63b8ff" points="255.44,-466.62 265.93,-465.14 256.81,-459.75 255.44,-466.62"/>
</a>
</g>
</g>
<!-- Node14&#45;&gt;Node4 -->
<g id="edge25_Node000014_Node000004" class="edge">
<title>Node14&#45;&gt;Node4</title>
<g id="a_edge25_Node000014_Node000004"><a xlink:title=" ">
<path fill="none" stroke="#63b8ff" d="M384.62,-289.29C340.06,-296.91 276.92,-307.96 221.75,-318.57 207.27,-321.36 191.54,-324.56 177.28,-327.54"/>
<polygon fill="#63b8ff" stroke="#63b8ff" points="385.05,-292.77 394.32,-287.64 383.88,-285.87 385.05,-292.77"/>
</a>
</g>
</g>
<!-- Node14&#45;&gt;Node5 -->
<g id="edge26_Node000014_Node000005" class="edge">
<title>Node14&#45;&gt;Node5</title>
<g id="a_edge26_Node000014_Node000005"><a xlink:title=" ">
<path fill="none" stroke="#63b8ff" d="M392.01,-264.37C390.55,-263.48 389.12,-262.55 387.75,-261.57 339.86,-227.22 304.79,-163.16 292.52,-138.55"/>
<polygon fill="#63b8ff" stroke="#63b8ff" points="390.34,-267.44 400.85,-268.82 393.5,-261.19 390.34,-267.44"/>
</a>
</g>
</g>
<!-- Node15&#45;&gt;Node4 -->
<g id="edge28_Node000015_Node000004" class="edge">
<title>Node15&#45;&gt;Node4</title>
<g id="a_edge28_Node000015_Node000004"><a xlink:title=" ">
<path fill="none" stroke="#63b8ff" d="M388.27,-250.73C342.95,-258.47 277,-271.88 221.75,-291.57 194.48,-301.29 164.89,-317.28 146.99,-327.62"/>
<polygon fill="#63b8ff" stroke="#63b8ff" points="388.84,-254.19 398.12,-249.09 387.68,-247.28 388.84,-254.19"/>
</a>
</g>
</g>
<!-- Node15&#45;&gt;Node5 -->
<g id="edge29_Node000015_Node000005" class="edge">
<title>Node15&#45;&gt;Node5</title>
<g id="a_edge29_Node000015_Node000005"><a xlink:title=" ">
<path fill="none" stroke="#63b8ff" d="M395.94,-228.01C393.11,-226.64 390.35,-225.16 387.75,-223.57 348.28,-199.52 311.49,-157.74 295.77,-138.63"/>
<polygon fill="#63b8ff" stroke="#63b8ff" points="394.45,-231.18 405.02,-231.92 397.22,-224.75 394.45,-231.18"/>
</a>
</g>
</g>
<!-- Node16&#45;&gt;Node4 -->
<g id="edge31_Node000016_Node000004" class="edge">
<title>Node16&#45;&gt;Node4</title>
<g id="a_edge31_Node000016_Node000004"><a xlink:title=" ">
<path fill="none" stroke="#63b8ff" d="M230.13,-416.49C227.25,-415.28 224.44,-413.97 221.75,-412.57 188.09,-395.01 155.36,-363.67 139.79,-347.63"/>
<polygon fill="#63b8ff" stroke="#63b8ff" points="228.76,-419.71 239.35,-419.95 231.22,-413.16 228.76,-419.71"/>
</a>
</g>
</g>
<!-- Node17&#45;&gt;Node4 -->
<g id="edge33_Node000017_Node000004" class="edge">
<title>Node17&#45;&gt;Node4</title>
<g id="a_edge33_Node000017_Node000004"><a xlink:title=" ">
<path fill="none" stroke="#63b8ff" d="M236.22,-380.28C231.31,-378.77 226.41,-377.19 221.75,-375.57 197.57,-367.18 170.58,-355.68 152.25,-347.54"/>
<polygon fill="#63b8ff" stroke="#63b8ff" points="234.9,-383.54 245.49,-383.03 236.89,-376.83 234.9,-383.54"/>
</a>
</g>
</g>
<!-- Node18&#45;&gt;Node4 -->
<g id="edge35_Node000018_Node000004" class="edge">
<title>Node18&#45;&gt;Node4</title>
<g id="a_edge35_Node000018_Node000004"><a xlink:title=" ">
<path fill="none" stroke="#63b8ff" d="M376.29,-210.14C330.76,-216.11 270.01,-228.39 221.75,-253.57 185.45,-272.51 152.7,-309.61 138.23,-327.48"/>
<polygon fill="#63b8ff" stroke="#63b8ff" points="376.52,-213.64 386.02,-208.94 375.67,-206.69 376.52,-213.64"/>
</a>
</g>
</g>
<!-- Node18&#45;&gt;Node5 -->
<g id="edge36_Node000018_Node000005" class="edge">
<title>Node18&#45;&gt;Node5</title>
<g id="a_edge36_Node000018_Node000005"><a xlink:title=" ">
<path fill="none" stroke="#63b8ff" d="M397.49,-190.62C394.16,-189.33 390.88,-187.98 387.75,-186.57 356.26,-172.43 321.94,-151.11 302.81,-138.64"/>
<polygon fill="#63b8ff" stroke="#63b8ff" points="396.14,-193.86 406.74,-193.99 398.54,-187.28 396.14,-193.86"/>
</a>
</g>
</g>
<!-- Node19&#45;&gt;Node4 -->
<g id="edge38_Node000019_Node000004" class="edge">
<title>Node19&#45;&gt;Node4</title>
<g id="a_edge38_Node000019_Node000004"><a xlink:title=" ">
<path fill="none" stroke="#63b8ff" d="M387.42,-167.25C340.08,-169.42 271.68,-178.58 221.75,-210.57 175.09,-240.46 144.77,-303.36 134.38,-327.68"/>
<polygon fill="#63b8ff" stroke="#63b8ff" points="387.3,-170.76 397.17,-166.91 387.05,-163.77 387.3,-170.76"/>
</a>
</g>
</g>
<!-- Node19&#45;&gt;Node5 -->
<g id="edge39_Node000019_Node000005" class="edge">
<title>Node19&#45;&gt;Node5</title>
<g id="a_edge39_Node000019_Node000005"><a xlink:title=" ">
<path fill="none" stroke="#63b8ff" d="M391.52,-154.75C365.92,-148.29 335.92,-140.72 314.78,-135.39"/>
<polygon fill="#63b8ff" stroke="#63b8ff" points="390.54,-158.11 401.09,-157.16 392.25,-151.32 390.54,-158.11"/>
</a>
</g>
</g>
<!-- Node20&#45;&gt;Node4 -->
<g id="edge41_Node000020_Node000004" class="edge">
<title>Node20&#45;&gt;Node4</title>
<g id="a_edge41_Node000020_Node000004"><a xlink:title=" ">
<path fill="none" stroke="#63b8ff" d="M210.85,-347.41C202.55,-346.4 194.21,-345.38 186.21,-344.4"/>
<polygon fill="#63b8ff" stroke="#63b8ff" points="210.25,-350.87 220.6,-348.61 211.1,-343.92 210.25,-350.87"/>
</a>
</g>
</g>
<!-- Node21&#45;&gt;Node4 -->
<g id="edge43_Node000021_Node000004" class="edge">
<title>Node21&#45;&gt;Node4</title>
<g id="a_edge43_Node000021_Node000004"><a xlink:title=" ">
<path fill="none" stroke="#63b8ff" d="M396.41,-117.79C382.21,-114.41 366.44,-111.25 351.75,-109.57 294.35,-103.01 269.6,-77.2 221.75,-109.57 182.63,-136.04 142.8,-287.39 132.78,-327.71"/>
<polygon fill="#63b8ff" stroke="#63b8ff" points="395.39,-121.14 405.94,-120.15 397.07,-114.34 395.39,-121.14"/>
</a>
</g>
</g>
<!-- Node21&#45;&gt;Node5 -->
<g id="edge44_Node000021_Node000005" class="edge">
<title>Node21&#45;&gt;Node5</title>
<g id="a_edge44_Node000021_Node000005"><a xlink:title=" ">
<path fill="none" stroke="#63b8ff" d="M393.07,-129.93C367.23,-129.6 336.56,-129.2 315,-128.92"/>
<polygon fill="#63b8ff" stroke="#63b8ff" points="392.99,-133.43 403.04,-130.06 393.08,-126.43 392.99,-133.43"/>
</a>
</g>
</g>
<!-- Node22&#45;&gt;Node4 -->
<g id="edge46_Node000022_Node000004" class="edge">
<title>Node22&#45;&gt;Node4</title>
<g id="a_edge46_Node000022_Node000004"><a xlink:title=" ">
<path fill="none" stroke="#63b8ff" d="M251.7,-622.88C240.95,-619.31 229.78,-613.85 221.75,-605.57 146.61,-528.13 133.15,-386.46 130.84,-347.64"/>
<polygon fill="#63b8ff" stroke="#63b8ff" points="250.59,-626.2 261.16,-625.56 252.49,-619.47 250.59,-626.2"/>
</a>
</g>
</g>
<!-- Node23&#45;&gt;Node2 -->
<g id="edge49_Node000023_Node000002" class="edge">
<title>Node23&#45;&gt;Node2</title>
<g id="a_edge49_Node000023_Node000002"><a xlink:title=" ">
<path fill="none" stroke="#63b8ff" d="M656.46,-510.81C635.42,-473.18 590.32,-392.49 574.63,-364.43"/>
<polygon fill="#63b8ff" stroke="#63b8ff" points="653.26,-512.26 661.19,-519.28 659.37,-508.85 653.26,-512.26"/>
</a>
</g>
</g>
<!-- Node23&#45;&gt;Node4 -->
<g id="edge50_Node000023_Node000004" class="edge">
<title>Node23&#45;&gt;Node4</title>
<g id="a_edge50_Node000023_Node000004"><a xlink:title=" ">
<path fill="none" stroke="#63b8ff" d="M646.04,-547.72C577.21,-600.5 358.58,-750.98 221.75,-648.57 170.73,-610.38 138.46,-396.32 131.7,-347.49"/>
<polygon fill="#63b8ff" stroke="#63b8ff" points="648.14,-550.51 653.88,-541.61 643.84,-544.99 648.14,-550.51"/>
</a>
</g>
</g>
</g>
</svg>
