<?xml version="1.0" encoding="UTF-8" standalone="no"?>
<!DOCTYPE svg PUBLIC "-//W3C//DTD SVG 1.1//EN"
 "http://www.w3.org/Graphics/SVG/1.1/DTD/svg11.dtd">
<!-- Generated by graphviz version 12.2.1 (20241206.2353)
 -->
<!-- Title: Shock_Wedge_Reflection Pages: 1 -->
<svg width="698pt" height="346pt"
 viewBox="0.00 0.00 698.20 345.50" xmlns="http://www.w3.org/2000/svg" xmlns:xlink="http://www.w3.org/1999/xlink">
<g id="graph0" class="graph" transform="scale(1 1) rotate(0) translate(4 341.5)">
<title>Shock_Wedge_Reflection</title>
<!-- Node1 -->
<g id="Node000001" class="node">
<title>Node1</title>
<g id="a_Node000001"><a xlink:title=" ">
<polygon fill="#999999" stroke="#666666" points="128.5,-183.88 0,-183.88 0,-164.62 128.5,-164.62 128.5,-183.88"/>
<text text-anchor="middle" x="64.25" y="-170.38" font-family="Helvetica,sans-Serif" font-size="10.00">Shock_Wedge_Reflection</text>
</a>
</g>
</g>
<!-- Node2 -->
<g id="Node000002" class="node">
<title>Node2</title>
<g id="a_Node000002"><a xlink:href="../../df/d43/_basic___functions_8cpp_a9ca12fb8f920cab38313323cf0c4bf53.html#a9ca12fb8f920cab38313323cf0c4bf53" target="_top" xlink:title=" ">
<polygon fill="white" stroke="#666666" points="290,-337.5 164.5,-337.5 164.5,-307 290,-307 290,-337.5"/>
<text text-anchor="start" x="172.5" y="-324" font-family="Helvetica,sans-Serif" font-size="10.00">Calculate_Computational</text>
<text text-anchor="middle" x="227.25" y="-312.75" font-family="Helvetica,sans-Serif" font-size="10.00">_Variables</text>
</a>
</g>
</g>
<!-- Node1&#45;&gt;Node2 -->
<g id="edge1_Node000001_Node000002" class="edge">
<title>Node1&#45;&gt;Node2</title>
<g id="a_edge1_Node000001_Node000002"><a xlink:title=" ">
<path fill="none" stroke="#63b8ff" d="M70.89,-184.29C84.28,-207.3 120.21,-264.39 164.5,-297.25 166.28,-298.57 168.13,-299.83 170.05,-301.03"/>
<polygon fill="#63b8ff" stroke="#63b8ff" points="168.23,-304.03 178.67,-305.85 171.65,-297.92 168.23,-304.03"/>
</a>
</g>
</g>
<!-- Node3 -->
<g id="Node000003" class="node">
<title>Node3</title>
<g id="a_Node000003"><a xlink:href="../../df/d43/_basic___functions_8cpp_a1c199e756f8458978961b4d9ab4cbe63.html#a1c199e756f8458978961b4d9ab4cbe63" target="_top" xlink:title=" ">
<polygon fill="white" stroke="#666666" points="277.62,-288.5 176.88,-288.5 176.88,-258 277.62,-258 277.62,-288.5"/>
<text text-anchor="start" x="184.88" y="-275" font-family="Helvetica,sans-Serif" font-size="10.00">Calculate_Primitive</text>
<text text-anchor="middle" x="227.25" y="-263.75" font-family="Helvetica,sans-Serif" font-size="10.00">_Variables</text>
</a>
</g>
</g>
<!-- Node1&#45;&gt;Node3 -->
<g id="edge2_Node000001_Node000003" class="edge">
<title>Node1&#45;&gt;Node3</title>
<g id="a_edge2_Node000001_Node000003"><a xlink:title=" ">
<path fill="none" stroke="#63b8ff" d="M76.44,-184.37C94.1,-199.94 129.99,-229.99 164.5,-249.25 166.66,-250.46 168.9,-251.63 171.18,-252.77"/>
<polygon fill="#63b8ff" stroke="#63b8ff" points="169.47,-255.83 180.01,-256.87 172.42,-249.48 169.47,-255.83"/>
</a>
</g>
</g>
<!-- Node5 -->
<g id="Node000005" class="node">
<title>Node5</title>
<g id="a_Node000005"><a xlink:href="../../da/d3e/output__files_8cpp_ac7e61b153a6d26ffbefde7b5b86d55a7.html#ac7e61b153a6d26ffbefde7b5b86d55a7" target="_top" xlink:title=" ">
<polygon fill="white" stroke="#666666" points="270.88,-239.88 183.62,-239.88 183.62,-220.62 270.88,-220.62 270.88,-239.88"/>
<text text-anchor="middle" x="227.25" y="-226.38" font-family="Helvetica,sans-Serif" font-size="10.00">Directory_Name</text>
</a>
</g>
</g>
<!-- Node1&#45;&gt;Node5 -->
<g id="edge4_Node000001_Node000005" class="edge">
<title>Node1&#45;&gt;Node5</title>
<g id="a_edge4_Node000001_Node000005"><a xlink:title=" ">
<path fill="none" stroke="#63b8ff" d="M89.93,-184.35C109.88,-192.35 138.79,-203.6 164.5,-212.25 169.21,-213.84 174.15,-215.41 179.1,-216.94"/>
<polygon fill="#63b8ff" stroke="#63b8ff" points="177.82,-220.21 188.4,-219.74 179.84,-213.51 177.82,-220.21"/>
</a>
</g>
</g>
<!-- Node6 -->
<g id="Node000006" class="node">
<title>Node6</title>
<g id="a_Node000006"><a xlink:href="../../da/d3e/output__files_8cpp_a2a6bf38afe949ce5a6cd1b3641c49c25.html#a2a6bf38afe949ce5a6cd1b3641c49c25" target="_top" xlink:title=" ">
<polygon fill="white" stroke="#666666" points="258.88,-202.88 195.62,-202.88 195.62,-183.62 258.88,-183.62 258.88,-202.88"/>
<text text-anchor="middle" x="227.25" y="-189.38" font-family="Helvetica,sans-Serif" font-size="10.00">File_Name</text>
</a>
</g>
</g>
<!-- Node1&#45;&gt;Node6 -->
<g id="edge5_Node000001_Node000006" class="edge">
<title>Node1&#45;&gt;Node6</title>
<g id="a_edge5_Node000001_Node000006"><a xlink:title=" ">
<path fill="none" stroke="#63b8ff" d="M128.88,-181.76C147.45,-183.95 167.27,-186.29 184.15,-188.28"/>
<polygon fill="#63b8ff" stroke="#63b8ff" points="183.47,-191.73 193.81,-189.42 184.29,-184.77 183.47,-191.73"/>
</a>
</g>
</g>
<!-- Node7 -->
<g id="Node000007" class="node">
<title>Node7</title>
<g id="a_Node000007"><a xlink:href="../../d8/d40/_grid___computations_8cpp_a831dcf7cbf36ddf425ce0753495ba3c6.html#a831dcf7cbf36ddf425ce0753495ba3c6" target="_top" xlink:title=" ">
<polygon fill="white" stroke="#666666" points="260.38,-165.88 194.12,-165.88 194.12,-146.62 260.38,-146.62 260.38,-165.88"/>
<text text-anchor="middle" x="227.25" y="-152.38" font-family="Helvetica,sans-Serif" font-size="10.00">Form_Cells</text>
</a>
</g>
</g>
<!-- Node1&#45;&gt;Node7 -->
<g id="edge6_Node000001_Node000007" class="edge">
<title>Node1&#45;&gt;Node7</title>
<g id="a_edge6_Node000001_Node000007"><a xlink:title=" ">
<path fill="none" stroke="#63b8ff" d="M128.88,-167.14C147.02,-165.11 166.36,-162.95 182.98,-161.09"/>
<polygon fill="#63b8ff" stroke="#63b8ff" points="182.95,-164.61 192.5,-160.02 182.17,-157.66 182.95,-164.61"/>
</a>
</g>
</g>
<!-- Node19 -->
<g id="Node000019" class="node">
<title>Node19</title>
<g id="a_Node000019"><a xlink:href="../../d7/d6d/_initialize_8cpp_ad59ff1b23c73f6427e8179ce53ee1f59.html#ad59ff1b23c73f6427e8179ce53ee1f59" target="_top" xlink:title=" ">
<polygon fill="white" stroke="#666666" points="445.88,-79.5 327.12,-79.5 327.12,-49 445.88,-49 445.88,-79.5"/>
<text text-anchor="start" x="335.12" y="-66" font-family="Helvetica,sans-Serif" font-size="10.00">Identify_Wall_Boundary</text>
<text text-anchor="middle" x="386.5" y="-54.75" font-family="Helvetica,sans-Serif" font-size="10.00">_Faces</text>
</a>
</g>
</g>
<!-- Node1&#45;&gt;Node19 -->
<g id="edge21_Node000001_Node000019" class="edge">
<title>Node1&#45;&gt;Node19</title>
<g id="a_edge21_Node000001_Node000019"><a xlink:title=" ">
<path fill="none" stroke="#63b8ff" d="M91.27,-164.24C111.24,-156.64 139.52,-146.03 164.5,-137.25 218.62,-118.23 280.68,-97.86 325.23,-83.48"/>
<polygon fill="#63b8ff" stroke="#63b8ff" points="326.28,-86.82 334.72,-80.42 324.13,-80.15 326.28,-86.82"/>
</a>
</g>
</g>
<!-- Node20 -->
<g id="Node000020" class="node">
<title>Node20</title>
<g id="a_Node000020"><a xlink:href="../../d7/d6d/_initialize_8cpp_acc3c3292e370176c51c654a01e651e24.html#acc3c3292e370176c51c654a01e651e24" target="_top" xlink:title=" ">
<polygon fill="white" stroke="#666666" points="253.25,-77.88 201.25,-77.88 201.25,-58.62 253.25,-58.62 253.25,-77.88"/>
<text text-anchor="middle" x="227.25" y="-64.38" font-family="Helvetica,sans-Serif" font-size="10.00">Initialize</text>
</a>
</g>
</g>
<!-- Node1&#45;&gt;Node20 -->
<g id="edge22_Node000001_Node000020" class="edge">
<title>Node1&#45;&gt;Node20</title>
<g id="a_edge22_Node000001_Node000020"><a xlink:title=" ">
<path fill="none" stroke="#63b8ff" d="M76.21,-164.18C93.84,-148.32 130.04,-117.19 164.5,-96.25 172.65,-91.3 181.83,-86.67 190.57,-82.67"/>
<polygon fill="#63b8ff" stroke="#63b8ff" points="191.79,-85.95 199.53,-78.72 188.97,-79.55 191.79,-85.95"/>
</a>
</g>
</g>
<!-- Node23 -->
<g id="Node000023" class="node">
<title>Node23</title>
<g id="a_Node000023"><a xlink:href="../../da/d3e/output__files_8cpp_ac49d22b87cab7fa46da37546b7af78b0.html#ac49d22b87cab7fa46da37546b7af78b0" target="_top" xlink:title=" ">
<polygon fill="white" stroke="#666666" points="266.75,-40.88 187.75,-40.88 187.75,-21.62 266.75,-21.62 266.75,-40.88"/>
<text text-anchor="middle" x="227.25" y="-27.38" font-family="Helvetica,sans-Serif" font-size="10.00">Write_Solution</text>
</a>
</g>
</g>
<!-- Node1&#45;&gt;Node23 -->
<g id="edge26_Node000001_Node000023" class="edge">
<title>Node1&#45;&gt;Node23</title>
<g id="a_edge26_Node000001_Node000023"><a xlink:title=" ">
<path fill="none" stroke="#63b8ff" d="M70.25,-164.43C82.76,-140.84 117.81,-80.62 164.5,-49.25 168.36,-46.66 172.59,-44.43 176.98,-42.52"/>
<polygon fill="#63b8ff" stroke="#63b8ff" points="177.84,-45.94 185.98,-39.15 175.39,-39.38 177.84,-45.94"/>
</a>
</g>
</g>
<!-- Node4 -->
<g id="Node000004" class="node">
<title>Node4</title>
<g id="a_Node000004"><a xlink:href="../../df/d43/_basic___functions_8cpp_ae9dc3225863fb110155bb3e9dea4e4d3.html#ae9dc3225863fb110155bb3e9dea4e4d3" target="_top" xlink:title=" ">
<polygon fill="white" stroke="#666666" points="414.75,-314.88 358.25,-314.88 358.25,-295.62 414.75,-295.62 414.75,-314.88"/>
<text text-anchor="middle" x="386.5" y="-301.38" font-family="Helvetica,sans-Serif" font-size="10.00">Viscosity</text>
</a>
</g>
</g>
<!-- Node3&#45;&gt;Node4 -->
<g id="edge3_Node000003_Node000004" class="edge">
<title>Node3&#45;&gt;Node4</title>
<g id="a_edge3_Node000003_Node000004"><a xlink:title=" ">
<path fill="none" stroke="#63b8ff" d="M278,-283.38C300.22,-287.9 326.01,-293.14 346.76,-297.37"/>
<polygon fill="#63b8ff" stroke="#63b8ff" points="346.04,-300.79 356.54,-299.36 347.43,-293.93 346.04,-300.79"/>
</a>
</g>
</g>
<!-- Node8 -->
<g id="Node000008" class="node">
<title>Node8</title>
<g id="a_Node000008"><a xlink:href="../../d8/d40/_grid___computations_8cpp_a7e6f11445e90cefdcb91f369846ec691.html#a7e6f11445e90cefdcb91f369846ec691" target="_top" xlink:title=" ">
<polygon fill="white" stroke="#666666" points="443.62,-128.5 329.38,-128.5 329.38,-98 443.62,-98 443.62,-128.5"/>
<text text-anchor="start" x="337.38" y="-115" font-family="Helvetica,sans-Serif" font-size="10.00">Calculate_Cell_Center</text>
<text text-anchor="middle" x="386.5" y="-103.75" font-family="Helvetica,sans-Serif" font-size="10.00">_Distances</text>
</a>
</g>
</g>
<!-- Node7&#45;&gt;Node8 -->
<g id="edge7_Node000007_Node000008" class="edge">
<title>Node7&#45;&gt;Node8</title>
<g id="a_edge7_Node000007_Node000008"><a xlink:title=" ">
<path fill="none" stroke="#63b8ff" d="M260.83,-147.34C277.46,-142.79 298.32,-137.09 318.19,-131.65"/>
<polygon fill="#63b8ff" stroke="#63b8ff" points="318.92,-135.08 327.64,-129.07 317.07,-128.33 318.92,-135.08"/>
</a>
</g>
</g>
<!-- Node11 -->
<g id="Node000011" class="node">
<title>Node11</title>
<g id="a_Node000011"><a xlink:href="../../d8/d40/_grid___computations_8cpp_a209db16fba143a9833c8d4021624afb0.html#a209db16fba143a9833c8d4021624afb0" target="_top" xlink:title=" ">
<polygon fill="white" stroke="#666666" points="584.88,-165.88 512.62,-165.88 512.62,-146.62 584.88,-146.62 584.88,-165.88"/>
<text text-anchor="middle" x="548.75" y="-152.38" font-family="Helvetica,sans-Serif" font-size="10.00">Check_Cells</text>
</a>
</g>
</g>
<!-- Node7&#45;&gt;Node11 -->
<g id="edge11_Node000007_Node000011" class="edge">
<title>Node7&#45;&gt;Node11</title>
<g id="a_edge11_Node000007_Node000011"><a xlink:title=" ">
<path fill="none" stroke="#63b8ff" d="M260.64,-156.25C317.51,-156.25 435.49,-156.25 501.13,-156.25"/>
<polygon fill="#63b8ff" stroke="#63b8ff" points="500.85,-159.75 510.85,-156.25 500.85,-152.75 500.85,-159.75"/>
</a>
</g>
</g>
<!-- Node12 -->
<g id="Node000012" class="node">
<title>Node12</title>
<g id="a_Node000012"><a xlink:href="../../df/daf/_co___volume___grid___computations_8cpp_a097cceef075e862683dd9f6e95d091d4.html#a097cceef075e862683dd9f6e95d091d4" target="_top" xlink:title=" ">
<polygon fill="white" stroke="#666666" points="446.62,-277.88 326.38,-277.88 326.38,-258.62 446.62,-258.62 446.62,-277.88"/>
<text text-anchor="middle" x="386.5" y="-264.38" font-family="Helvetica,sans-Serif" font-size="10.00">Construct_Co_Volumes</text>
</a>
</g>
</g>
<!-- Node7&#45;&gt;Node12 -->
<g id="edge12_Node000007_Node000012" class="edge">
<title>Node7&#45;&gt;Node12</title>
<g id="a_edge12_Node000007_Node000012"><a xlink:title=" ">
<path fill="none" stroke="#63b8ff" d="M260.58,-160.32C270.9,-162.94 281.76,-167.22 290,-174.25 318.44,-198.5 297.68,-225.86 326,-250.25 326.92,-251.04 327.87,-251.8 328.86,-252.52"/>
<polygon fill="#63b8ff" stroke="#63b8ff" points="326.68,-255.3 337.07,-257.41 330.26,-249.29 326.68,-255.3"/>
</a>
</g>
</g>
<!-- Node15 -->
<g id="Node000015" class="node">
<title>Node15</title>
<g id="a_Node000015"><a xlink:href="../../d8/d40/_grid___computations_8cpp_ae5f2b7a0fdbc48f8fdf897222b7ded04.html#ae5f2b7a0fdbc48f8fdf897222b7ded04" target="_top" xlink:title=" ">
<polygon fill="white" stroke="#666666" points="445.5,-240.88 327.5,-240.88 327.5,-221.62 445.5,-221.62 445.5,-240.88"/>
<text text-anchor="middle" x="386.5" y="-227.38" font-family="Helvetica,sans-Serif" font-size="10.00">Construct_Ghost_Cells</text>
</a>
</g>
</g>
<!-- Node7&#45;&gt;Node15 -->
<g id="edge15_Node000007_Node000015" class="edge">
<title>Node7&#45;&gt;Node15</title>
<g id="a_edge15_Node000007_Node000015"><a xlink:title=" ">
<path fill="none" stroke="#63b8ff" d="M260.73,-162.2C270.61,-164.91 281.17,-168.78 290,-174.25 310.05,-186.67 306.01,-200.73 326,-213.25 327.89,-214.43 329.86,-215.54 331.88,-216.58"/>
<polygon fill="#63b8ff" stroke="#63b8ff" points="330.42,-219.76 340.98,-220.6 333.25,-213.36 330.42,-219.76"/>
</a>
</g>
</g>
<!-- Node17 -->
<g id="Node000017" class="node">
<title>Node17</title>
<g id="a_Node000017"><a xlink:href="../../d8/d40/_grid___computations_8cpp_a663d4b3ae06e638c2f2e82ad437e831e.html#a663d4b3ae06e638c2f2e82ad437e831e" target="_top" xlink:title="Reads the input grid file and constructs physical cells, evaluates face areas, normals,...">
<polygon fill="white" stroke="#666666" points="417.75,-203.88 355.25,-203.88 355.25,-184.62 417.75,-184.62 417.75,-203.88"/>
<text text-anchor="middle" x="386.5" y="-190.38" font-family="Helvetica,sans-Serif" font-size="10.00">Read_Grid</text>
</a>
</g>
</g>
<!-- Node7&#45;&gt;Node17 -->
<g id="edge17_Node000007_Node000017" class="edge">
<title>Node7&#45;&gt;Node17</title>
<g id="a_edge17_Node000007_Node000017"><a xlink:title=" ">
<path fill="none" stroke="#63b8ff" d="M260.83,-164.12C284.89,-169.94 317.83,-177.9 343.81,-184.17"/>
<polygon fill="#63b8ff" stroke="#63b8ff" points="342.82,-187.54 353.36,-186.48 344.46,-180.73 342.82,-187.54"/>
</a>
</g>
</g>
<!-- Node9 -->
<g id="Node000009" class="node">
<title>Node9</title>
<g id="a_Node000009"><a xlink:href="../../d8/d40/_grid___computations_8cpp_a1f273579608200866e02e34f16a3eb6b.html#a1f273579608200866e02e34f16a3eb6b" target="_top" xlink:title=" ">
<polygon fill="white" stroke="#666666" points="614.5,-122.88 483,-122.88 483,-103.62 614.5,-103.62 614.5,-122.88"/>
<text text-anchor="middle" x="548.75" y="-109.38" font-family="Helvetica,sans-Serif" font-size="10.00">Distance_Between_Points</text>
</a>
</g>
</g>
<!-- Node8&#45;&gt;Node9 -->
<g id="edge8_Node000008_Node000009" class="edge">
<title>Node8&#45;&gt;Node9</title>
<g id="a_edge8_Node000008_Node000009"><a xlink:title=" ">
<path fill="none" stroke="#63b8ff" d="M444,-113.25C452.9,-113.25 462.24,-113.25 471.5,-113.25"/>
<polygon fill="#63b8ff" stroke="#63b8ff" points="471.22,-116.75 481.22,-113.25 471.22,-109.75 471.22,-116.75"/>
</a>
</g>
</g>
<!-- Node10 -->
<g id="Node000010" class="node">
<title>Node10</title>
<g id="a_Node000010"><a xlink:href="../../d8/d40/_grid___computations_8cpp_a079a3910785ad86cffe119a8e3d6a0d4.html#a079a3910785ad86cffe119a8e3d6a0d4" target="_top" xlink:title=" ">
<polygon fill="white" stroke="#666666" points="686.75,-122.88 650.5,-122.88 650.5,-103.62 686.75,-103.62 686.75,-122.88"/>
<text text-anchor="middle" x="668.62" y="-109.38" font-family="Helvetica,sans-Serif" font-size="10.00">Print</text>
</a>
</g>
</g>
<!-- Node9&#45;&gt;Node10 -->
<g id="edge9_Node000009_Node000010" class="edge">
<title>Node9&#45;&gt;Node10</title>
<g id="a_edge9_Node000009_Node000010"><a xlink:title=" ">
<path fill="none" stroke="#63b8ff" d="M614.89,-113.25C623.22,-113.25 631.37,-113.25 638.69,-113.25"/>
<polygon fill="#63b8ff" stroke="#63b8ff" points="638.57,-116.75 648.57,-113.25 638.57,-109.75 638.57,-116.75"/>
</a>
</g>
</g>
<!-- Node10&#45;&gt;Node10 -->
<g id="edge10_Node000010_Node000010" class="edge">
<title>Node10&#45;&gt;Node10</title>
<g id="a_edge10_Node000010_Node000010"><a xlink:title=" ">
<path fill="none" stroke="#63b8ff" d="M650.15,-122.88C641.16,-131.57 647.32,-140.88 668.62,-140.88 680.61,-140.88 687.8,-137.93 690.2,-133.81"/>
<polygon fill="#63b8ff" stroke="#63b8ff" points="693.61,-133 687.51,-124.33 686.88,-134.91 693.61,-133"/>
</a>
</g>
</g>
<!-- Node13 -->
<g id="Node000013" class="node">
<title>Node13</title>
<g id="a_Node000013"><a xlink:href="../../d8/d40/_grid___computations_8cpp_a0d19b951f556ac7a935819a38d2e1a6f.html#a0d19b951f556ac7a935819a38d2e1a6f" target="_top" xlink:title=" ">
<polygon fill="white" stroke="#666666" points="591.62,-277.88 505.88,-277.88 505.88,-258.62 591.62,-258.62 591.62,-277.88"/>
<text text-anchor="middle" x="548.75" y="-264.38" font-family="Helvetica,sans-Serif" font-size="10.00">Construct_Face</text>
</a>
</g>
</g>
<!-- Node12&#45;&gt;Node13 -->
<g id="edge13_Node000012_Node000013" class="edge">
<title>Node12&#45;&gt;Node13</title>
<g id="a_edge13_Node000012_Node000013"><a xlink:title=" ">
<path fill="none" stroke="#63b8ff" d="M446.72,-268.25C462.35,-268.25 479.12,-268.25 494.42,-268.25"/>
<polygon fill="#63b8ff" stroke="#63b8ff" points="494.27,-271.75 504.27,-268.25 494.27,-264.75 494.27,-271.75"/>
</a>
</g>
</g>
<!-- Node14 -->
<g id="Node000014" class="node">
<title>Node14</title>
<g id="a_Node000014"><a xlink:href="../../d8/d40/_grid___computations_8cpp_a29418163b6fbd0aa81c60026e430d0b8.html#a29418163b6fbd0aa81c60026e430d0b8" target="_top" xlink:title=" ">
<polygon fill="white" stroke="#666666" points="611.12,-314.88 486.38,-314.88 486.38,-295.62 611.12,-295.62 611.12,-314.88"/>
<text text-anchor="middle" x="548.75" y="-301.38" font-family="Helvetica,sans-Serif" font-size="10.00">Evaluate_Cross_Product</text>
</a>
</g>
</g>
<!-- Node12&#45;&gt;Node14 -->
<g id="edge14_Node000012_Node000014" class="edge">
<title>Node12&#45;&gt;Node14</title>
<g id="a_edge14_Node000012_Node000014"><a xlink:title=" ">
<path fill="none" stroke="#63b8ff" d="M431.29,-278.36C450.28,-282.75 472.72,-287.93 492.82,-292.57"/>
<polygon fill="#63b8ff" stroke="#63b8ff" points="492.01,-295.97 502.54,-294.81 493.58,-289.15 492.01,-295.97"/>
</a>
</g>
</g>
<!-- Node16 -->
<g id="Node000016" class="node">
<title>Node16</title>
<g id="a_Node000016"><a xlink:href="../../d8/d40/_grid___computations_8cpp_a2d284e26ddef582519953e8b8300184e.html#a2d284e26ddef582519953e8b8300184e" target="_top" xlink:title=" ">
<polygon fill="white" stroke="#666666" points="589.38,-240.88 508.12,-240.88 508.12,-221.62 589.38,-221.62 589.38,-240.88"/>
<text text-anchor="middle" x="548.75" y="-227.38" font-family="Helvetica,sans-Serif" font-size="10.00">Construct_Cell</text>
</a>
</g>
</g>
<!-- Node15&#45;&gt;Node16 -->
<g id="edge16_Node000015_Node000016" class="edge">
<title>Node15&#45;&gt;Node16</title>
<g id="a_edge16_Node000015_Node000016"><a xlink:title=" ">
<path fill="none" stroke="#63b8ff" d="M445.81,-231.25C462.37,-231.25 480.28,-231.25 496.4,-231.25"/>
<polygon fill="#63b8ff" stroke="#63b8ff" points="496.26,-234.75 506.26,-231.25 496.26,-227.75 496.26,-234.75"/>
</a>
</g>
</g>
<!-- Node17&#45;&gt;Node11 -->
<g id="edge18_Node000017_Node000011" class="edge">
<title>Node17&#45;&gt;Node11</title>
<g id="a_edge18_Node000017_Node000011"><a xlink:title=" ">
<path fill="none" stroke="#63b8ff" d="M418.02,-187.01C441.54,-181.44 474.46,-173.63 501.25,-167.28"/>
<polygon fill="#63b8ff" stroke="#63b8ff" points="501.92,-170.71 510.84,-165 500.31,-163.9 501.92,-170.71"/>
</a>
</g>
</g>
<!-- Node17&#45;&gt;Node16 -->
<g id="edge19_Node000017_Node000016" class="edge">
<title>Node17&#45;&gt;Node16</title>
<g id="a_edge19_Node000017_Node000016"><a xlink:title=" ">
<path fill="none" stroke="#63b8ff" d="M418.02,-201.3C440.17,-206.41 470.66,-213.45 496.51,-219.42"/>
<polygon fill="#63b8ff" stroke="#63b8ff" points="495.64,-222.81 506.17,-221.65 497.21,-215.99 495.64,-222.81"/>
</a>
</g>
</g>
<!-- Node18 -->
<g id="Node000018" class="node">
<title>Node18</title>
<g id="a_Node000018"><a xlink:href="../../d8/d40/_grid___computations_8cpp_aa376223dcb91990013ac6549090115ea.html#aa376223dcb91990013ac6549090115ea" target="_top" xlink:title=" ">
<polygon fill="white" stroke="#666666" points="598,-203.88 499.5,-203.88 499.5,-184.62 598,-184.62 598,-203.88"/>
<text text-anchor="middle" x="548.75" y="-190.38" font-family="Helvetica,sans-Serif" font-size="10.00">Conversion_Factor</text>
</a>
</g>
</g>
<!-- Node17&#45;&gt;Node18 -->
<g id="edge20_Node000017_Node000018" class="edge">
<title>Node17&#45;&gt;Node18</title>
<g id="a_edge20_Node000017_Node000018"><a xlink:title=" ">
<path fill="none" stroke="#63b8ff" d="M418.02,-194.25C437.69,-194.25 463.92,-194.25 487.66,-194.25"/>
<polygon fill="#63b8ff" stroke="#63b8ff" points="487.55,-197.75 497.55,-194.25 487.55,-190.75 487.55,-197.75"/>
</a>
</g>
</g>
<!-- Node20&#45;&gt;Node19 -->
<g id="edge25_Node000020_Node000019" class="edge">
<title>Node20&#45;&gt;Node19</title>
<g id="a_edge25_Node000020_Node000019"><a xlink:title=" ">
<path fill="none" stroke="#63b8ff" d="M253.51,-67.61C270.3,-67.18 293.22,-66.6 315.26,-66.04"/>
<polygon fill="#63b8ff" stroke="#63b8ff" points="315.24,-69.54 325.15,-65.79 315.06,-62.54 315.24,-69.54"/>
</a>
</g>
</g>
<!-- Node21 -->
<g id="Node000021" class="node">
<title>Node21</title>
<g id="a_Node000021"><a xlink:href="../../d4/d5d/_grid___refine___functions_8cpp_add867401ba6818c3d6480ec342cb0eaa.html#add867401ba6818c3d6480ec342cb0eaa" target="_top" xlink:title="Identifies the secondary neighbors of a given cell to evaluate second gradients.">
<polygon fill="white" stroke="#666666" points="447,-30.5 326,-30.5 326,0 447,0 447,-30.5"/>
<text text-anchor="start" x="334" y="-17" font-family="Helvetica,sans-Serif" font-size="10.00">Identify_Neighbours</text>
<text text-anchor="middle" x="386.5" y="-5.75" font-family="Helvetica,sans-Serif" font-size="10.00">_For_Second_Gradients</text>
</a>
</g>
</g>
<!-- Node20&#45;&gt;Node21 -->
<g id="edge23_Node000020_Node000021" class="edge">
<title>Node20&#45;&gt;Node21</title>
<g id="a_edge23_Node000020_Node000021"><a xlink:title=" ">
<path fill="none" stroke="#63b8ff" d="M253.61,-61.28C264.81,-58.09 278.12,-54.15 290,-50.25 304.44,-45.51 319.96,-40 334.21,-34.77"/>
<polygon fill="#63b8ff" stroke="#63b8ff" points="335.23,-38.13 343.4,-31.37 332.8,-31.56 335.23,-38.13"/>
</a>
</g>
</g>
<!-- Node22 -->
<g id="Node000022" class="node">
<title>Node22</title>
<g id="a_Node000022"><a xlink:href="../../d3/dd4/_gradients_8cpp_a841d8b51ae49ac6ee37c9246228c1f89.html#a841d8b51ae49ac6ee37c9246228c1f89" target="_top" xlink:title="Identifies the secondary neighbors of a given cell to evaluate second gradients.">
<polygon fill="white" stroke="#666666" points="585.62,-24.88 511.88,-24.88 511.88,-5.63 585.62,-5.63 585.62,-24.88"/>
<text text-anchor="middle" x="548.75" y="-11.38" font-family="Helvetica,sans-Serif" font-size="10.00">getNeighbour</text>
</a>
</g>
</g>
<!-- Node21&#45;&gt;Node22 -->
<g id="edge24_Node000021_Node000022" class="edge">
<title>Node21&#45;&gt;Node22</title>
<g id="a_edge24_Node000021_Node000022"><a xlink:title=" ">
<path fill="none" stroke="#63b8ff" d="M447.17,-15.25C464.81,-15.25 483.87,-15.25 500.61,-15.25"/>
<polygon fill="#63b8ff" stroke="#63b8ff" points="500.26,-18.75 510.26,-15.25 500.26,-11.75 500.26,-18.75"/>
</a>
</g>
</g>
</g>
</svg>
