<?xml version="1.0" encoding="UTF-8" standalone="no"?>
<!DOCTYPE svg PUBLIC "-//W3C//DTD SVG 1.1//EN"
 "http://www.w3.org/Graphics/SVG/1.1/DTD/svg11.dtd">
<!-- Generated by graphviz version 12.2.1 (20241206.2353)
 -->
<!-- Title: Calculate_Computational_Variables Pages: 1 -->
<svg width="1315pt" height="788pt"
 viewBox="0.00 0.00 1314.50 788.12" xmlns="http://www.w3.org/2000/svg" xmlns:xlink="http://www.w3.org/1999/xlink">
<g id="graph0" class="graph" transform="scale(1 1) rotate(0) translate(4 784.12)">
<title>Calculate_Computational_Variables</title>
<!-- Node1 -->
<g id="Node000001" class="node">
<title>Node1</title>
<g id="a_Node000001"><a xlink:title=" ">
<polygon fill="#999999" stroke="#666666" points="1306.5,-431.88 1181,-431.88 1181,-401.38 1306.5,-401.38 1306.5,-431.88"/>
<text text-anchor="start" x="1189" y="-418.38" font-family="Helvetica,sans-Serif" font-size="10.00">Calculate_Computational</text>
<text text-anchor="middle" x="1243.75" y="-407.12" font-family="Helvetica,sans-Serif" font-size="10.00">_Variables</text>
</a>
</g>
</g>
<!-- Node2 -->
<g id="Node000002" class="node">
<title>Node2</title>
<g id="a_Node000002"><a xlink:href="../../d0/d3f/_channel___flow_8cpp_a986df1d2277d1fc7e22408557f29c135.html#a986df1d2277d1fc7e22408557f29c135" target="_top" xlink:title=" ">
<polygon fill="white" stroke="#666666" points="436.75,-274.25 358.5,-274.25 358.5,-255 436.75,-255 436.75,-274.25"/>
<text text-anchor="middle" x="397.62" y="-260.75" font-family="Helvetica,sans-Serif" font-size="10.00">Channel_Flow</text>
</a>
</g>
</g>
<!-- Node1&#45;&gt;Node2 -->
<g id="edge1_Node000001_Node000002" class="edge">
<title>Node1&#45;&gt;Node2</title>
<g id="a_edge1_Node000001_Node000002"><a xlink:title=" ">
<path fill="none" stroke="#63b8ff" d="M1227.91,-391.69C1211.15,-365.87 1181.41,-326.43 1145,-305.62 1060.96,-257.61 1027.91,-264.62 931.12,-264.62 931.12,-264.62 931.12,-264.62 755.25,-264.62 639.47,-264.62 502.55,-264.62 437.15,-264.62"/>
<polygon fill="#63b8ff" stroke="#63b8ff" points="1224.79,-393.3 1233.08,-399.9 1230.71,-389.58 1224.79,-393.3"/>
</a>
</g>
</g>
<!-- Node3 -->
<g id="Node000003" class="node">
<title>Node3</title>
<g id="a_Node000003"><a xlink:href="../../dd/dbf/_euler___python___wrapper_8cpp_ac5ccb50c3be270f798e054dd36987442.html#ac5ccb50c3be270f798e054dd36987442" target="_top" xlink:title=" ">
<polygon fill="white" stroke="#666666" points="185.75,-398.25 73,-398.25 73,-379 185.75,-379 185.75,-398.25"/>
<text text-anchor="middle" x="129.38" y="-384.75" font-family="Helvetica,sans-Serif" font-size="10.00">PYBIND11_MODULE</text>
</a>
</g>
</g>
<!-- Node1&#45;&gt;Node3 -->
<g id="edge38_Node000001_Node000003" class="edge">
<title>Node1&#45;&gt;Node3</title>
<g id="a_edge38_Node000001_Node000003"><a xlink:title=" ">
<path fill="none" stroke="#63b8ff" d="M1234.49,-442.57C1221.54,-478.75 1192.88,-543.61 1145,-576.62 1065.39,-631.52 1027.83,-616.62 931.12,-616.62 931.12,-616.62 931.12,-616.62 396.62,-616.62 312.4,-616.62 285.25,-598.96 221.75,-543.62 172.76,-500.94 143.06,-425.29 133.64,-398.43"/>
<polygon fill="#63b8ff" stroke="#63b8ff" points="1237.72,-443.93 1237.65,-433.34 1231.1,-441.66 1237.72,-443.93"/>
</a>
</g>
</g>
<!-- Node7 -->
<g id="Node000007" class="node">
<title>Node7</title>
<g id="a_Node000007"><a xlink:href="../../d8/d62/_ellinga___test_case_8cpp_ae7167da7e4a13ec20ea77342a492b6ee.html#ae7167da7e4a13ec20ea77342a492b6ee" target="_top" xlink:title=" ">
<polygon fill="white" stroke="#666666" points="977.5,-586.25 882.75,-586.25 882.75,-567 977.5,-567 977.5,-586.25"/>
<text text-anchor="middle" x="930.12" y="-572.75" font-family="Helvetica,sans-Serif" font-size="10.00">Ellinga_Carbuncle</text>
</a>
</g>
</g>
<!-- Node1&#45;&gt;Node7 -->
<g id="edge7_Node000001_Node000007" class="edge">
<title>Node1&#45;&gt;Node7</title>
<g id="a_edge7_Node000001_Node000007"><a xlink:title=" ">
<path fill="none" stroke="#63b8ff" d="M1231.1,-442.47C1215.93,-472.85 1186.38,-522.23 1145,-546.62 1093.64,-576.9 1023.58,-581.14 977.85,-580.01"/>
<polygon fill="#63b8ff" stroke="#63b8ff" points="1234.19,-444.11 1235.37,-433.58 1227.88,-441.07 1234.19,-444.11"/>
</a>
</g>
</g>
<!-- Node8 -->
<g id="Node000008" class="node">
<title>Node8</title>
<g id="a_Node000008"><a xlink:href="../../de/d81/_flat___plate___boundary___layer_8cpp_a787b29de4053181d716a19e7c4c9b705.html#a787b29de4053181d716a19e7c4c9b705" target="_top" xlink:title=" ">
<polygon fill="white" stroke="#666666" points="809.62,-550.88 702.88,-550.88 702.88,-520.38 809.62,-520.38 809.62,-550.88"/>
<text text-anchor="start" x="710.88" y="-537.38" font-family="Helvetica,sans-Serif" font-size="10.00">Flat_Plate_Boundary</text>
<text text-anchor="middle" x="756.25" y="-526.12" font-family="Helvetica,sans-Serif" font-size="10.00">_Layer</text>
</a>
</g>
</g>
<!-- Node1&#45;&gt;Node8 -->
<g id="edge9_Node000001_Node000008" class="edge">
<title>Node1&#45;&gt;Node8</title>
<g id="a_edge9_Node000001_Node000008"><a xlink:title=" ">
<path fill="none" stroke="#63b8ff" d="M1224.45,-440.93C1206.74,-462.38 1177.81,-492.39 1145,-506.62 1033.53,-554.99 887.12,-549.68 810.01,-542.26"/>
<polygon fill="#63b8ff" stroke="#63b8ff" points="1227.09,-443.23 1230.6,-433.23 1221.62,-438.85 1227.09,-443.23"/>
</a>
</g>
</g>
<!-- Node9 -->
<g id="Node000009" class="node">
<title>Node9</title>
<g id="a_Node000009"><a xlink:href="../../da/d4b/_flow___over___bump_8cpp_abaa8184c0dd8aa3fdc37d585f0a7d0cc.html#abaa8184c0dd8aa3fdc37d585f0a7d0cc" target="_top" xlink:title=" ">
<polygon fill="white" stroke="#666666" points="444.62,-236.25 350.62,-236.25 350.62,-217 444.62,-217 444.62,-236.25"/>
<text text-anchor="middle" x="397.62" y="-222.75" font-family="Helvetica,sans-Serif" font-size="10.00">Flow_Over_Bump</text>
</a>
</g>
</g>
<!-- Node1&#45;&gt;Node9 -->
<g id="edge11_Node000001_Node000009" class="edge">
<title>Node1&#45;&gt;Node9</title>
<g id="a_edge11_Node000001_Node000009"><a xlink:title=" ">
<path fill="none" stroke="#63b8ff" d="M1234.15,-390.79C1220.95,-355.45 1192.14,-292.86 1145,-261.62 1064.71,-208.42 1027.44,-226.62 931.12,-226.62 931.12,-226.62 931.12,-226.62 755.25,-226.62 643.96,-226.62 513.13,-226.62 445.07,-226.62"/>
<polygon fill="#63b8ff" stroke="#63b8ff" points="1230.71,-391.58 1237.38,-399.81 1237.3,-389.22 1230.71,-391.58"/>
</a>
</g>
</g>
<!-- Node10 -->
<g id="Node000010" class="node">
<title>Node10</title>
<g id="a_Node000010"><a xlink:href="../../dc/d8c/_forward___facing___step_8cpp_a5f68d17ee33caeda5da8c4270441108c.html#a5f68d17ee33caeda5da8c4270441108c" target="_top" xlink:title=" ">
<polygon fill="white" stroke="#666666" points="453.25,-198.25 342,-198.25 342,-179 453.25,-179 453.25,-198.25"/>
<text text-anchor="middle" x="397.62" y="-184.75" font-family="Helvetica,sans-Serif" font-size="10.00">Forward_Facing_Step</text>
</a>
</g>
</g>
<!-- Node1&#45;&gt;Node10 -->
<g id="edge14_Node000001_Node000010" class="edge">
<title>Node1&#45;&gt;Node10</title>
<g id="a_edge14_Node000001_Node000010"><a xlink:title=" ">
<path fill="none" stroke="#63b8ff" d="M1237.72,-389.85C1228.05,-346.42 1202.51,-261.3 1145,-219.62 1067.22,-163.27 1027.17,-188.62 931.12,-188.62 931.12,-188.62 931.12,-188.62 755.25,-188.62 648.45,-188.62 523.65,-188.62 453.61,-188.62"/>
<polygon fill="#63b8ff" stroke="#63b8ff" points="1234.25,-390.37 1239.73,-399.44 1241.11,-388.93 1234.25,-390.37"/>
</a>
</g>
</g>
<!-- Node11 -->
<g id="Node000011" class="node">
<title>Node11</title>
<g id="a_Node000011"><a xlink:href="../../d8/df4/_w_e_n_o2_d_8cpp_a41800d52b7dfe3e64e37ea4c0abae5bb.html#a41800d52b7dfe3e64e37ea4c0abae5bb" target="_top" xlink:title=" ">
<polygon fill="white" stroke="#666666" points="1145,-122.25 1031.5,-122.25 1031.5,-103 1145,-103 1145,-122.25"/>
<text text-anchor="middle" x="1088.25" y="-108.75" font-family="Helvetica,sans-Serif" font-size="10.00">Get_Reconstructed_U</text>
</a>
</g>
</g>
<!-- Node1&#45;&gt;Node11 -->
<g id="edge17_Node000001_Node000011" class="edge">
<title>Node1&#45;&gt;Node11</title>
<g id="a_edge17_Node000001_Node000011"><a xlink:title=" ">
<path fill="none" stroke="#63b8ff" d="M1240.47,-389.65C1234.49,-335.05 1213.71,-210.37 1145,-136.62 1139.47,-130.69 1132.22,-126.15 1124.79,-122.71"/>
<polygon fill="#63b8ff" stroke="#63b8ff" points="1236.99,-389.97 1241.47,-399.57 1243.95,-389.27 1236.99,-389.97"/>
</a>
</g>
</g>
<!-- Node19 -->
<g id="Node000019" class="node">
<title>Node19</title>
<g id="a_Node000019"><a xlink:href="../../df/dee/_half___cylinder___test___case_8cpp_ad6cb651752c2dd1cb946428572cfb769.html#ad6cb651752c2dd1cb946428572cfb769" target="_top" xlink:title=" ">
<polygon fill="white" stroke="#666666" points="448.38,-160.25 346.88,-160.25 346.88,-141 448.38,-141 448.38,-160.25"/>
<text text-anchor="middle" x="397.62" y="-146.75" font-family="Helvetica,sans-Serif" font-size="10.00">Half_Cylinder_Flow</text>
</a>
</g>
</g>
<!-- Node1&#45;&gt;Node19 -->
<g id="edge32_Node000001_Node000019" class="edge">
<title>Node1&#45;&gt;Node19</title>
<g id="a_edge32_Node000001_Node000019"><a xlink:title=" ">
<path fill="none" stroke="#63b8ff" d="M1240.28,-389.73C1234.11,-339.34 1213.2,-231.08 1145,-178.62 1069.01,-120.18 1026.99,-150.62 931.12,-150.62 931.12,-150.62 931.12,-150.62 755.25,-150.62 645.97,-150.62 517.86,-150.62 448.83,-150.62"/>
<polygon fill="#63b8ff" stroke="#63b8ff" points="1236.78,-389.89 1241.36,-399.44 1243.74,-389.12 1236.78,-389.89"/>
</a>
</g>
</g>
<!-- Node20 -->
<g id="Node000020" class="node">
<title>Node20</title>
<g id="a_Node000020"><a xlink:href="../../d7/d6d/_initialize_8cpp_aa59beb74c9d4ef2bcd7e6d86f16dc682.html#aa59beb74c9d4ef2bcd7e6d86f16dc682" target="_top" xlink:title=" ">
<polygon fill="white" stroke="#666666" points="1114.25,-85.25 1062.25,-85.25 1062.25,-66 1114.25,-66 1114.25,-85.25"/>
<text text-anchor="middle" x="1088.25" y="-71.75" font-family="Helvetica,sans-Serif" font-size="10.00">Initialize</text>
</a>
</g>
</g>
<!-- Node1&#45;&gt;Node20 -->
<g id="edge35_Node000001_Node000020" class="edge">
<title>Node1&#45;&gt;Node20</title>
<g id="a_edge35_Node000001_Node000020"><a xlink:title=" ">
<path fill="none" stroke="#63b8ff" d="M1242.57,-389.64C1240.67,-328.36 1227.37,-177.52 1145,-93.62 1137.02,-85.5 1125.35,-81.03 1114.75,-78.59"/>
<polygon fill="#63b8ff" stroke="#63b8ff" points="1239.06,-389.55 1242.78,-399.47 1246.06,-389.39 1239.06,-389.55"/>
</a>
</g>
</g>
<!-- Node21 -->
<g id="Node000021" class="node">
<title>Node21</title>
<g id="a_Node000021"><a xlink:href="../../de/dc4/_o_e_d_8cpp_a1404a4711dcead4c50dd9eaa2ab7b7c0.html#a1404a4711dcead4c50dd9eaa2ab7b7c0" target="_top" xlink:title=" ">
<polygon fill="white" stroke="#666666" points="587.38,-507.25 549.62,-507.25 549.62,-488 587.38,-488 587.38,-507.25"/>
<text text-anchor="middle" x="568.5" y="-493.75" font-family="Helvetica,sans-Serif" font-size="10.00">OED</text>
</a>
</g>
</g>
<!-- Node1&#45;&gt;Node21 -->
<g id="edge36_Node000001_Node000021" class="edge">
<title>Node1&#45;&gt;Node21</title>
<g id="a_edge36_Node000001_Node000021"><a xlink:title=" ">
<path fill="none" stroke="#63b8ff" d="M1210.67,-438.32C1192.28,-449.53 1168.29,-462.19 1145,-468.62 932.86,-527.25 660.32,-506.53 587.86,-499.54"/>
<polygon fill="#63b8ff" stroke="#63b8ff" points="1212.38,-441.38 1218.98,-433.09 1208.65,-435.45 1212.38,-441.38"/>
</a>
</g>
</g>
<!-- Node22 -->
<g id="Node000022" class="node">
<title>Node22</title>
<g id="a_Node000022"><a xlink:href="../../dd/de9/_ramp__15___degree_8cpp_af85931ed4e293dce5c8e4acafecd54b5.html#af85931ed4e293dce5c8e4acafecd54b5" target="_top" xlink:title=" ">
<polygon fill="white" stroke="#666666" points="445,-464.25 350.25,-464.25 350.25,-445 445,-445 445,-464.25"/>
<text text-anchor="middle" x="397.62" y="-450.75" font-family="Helvetica,sans-Serif" font-size="10.00">Ramp_15_Degree</text>
</a>
</g>
</g>
<!-- Node1&#45;&gt;Node22 -->
<g id="edge39_Node000001_Node000022" class="edge">
<title>Node1&#45;&gt;Node22</title>
<g id="a_edge39_Node000001_Node000022"><a xlink:title=" ">
<path fill="none" stroke="#63b8ff" d="M1169.64,-430.62C1106.68,-441.46 1013.26,-454.62 931.12,-454.62 931.12,-454.62 931.12,-454.62 755.25,-454.62 644.11,-454.62 513.5,-454.62 445.36,-454.62"/>
<polygon fill="#63b8ff" stroke="#63b8ff" points="1169.91,-434.13 1179.15,-428.96 1168.7,-427.24 1169.91,-434.13"/>
</a>
</g>
</g>
<!-- Node23 -->
<g id="Node000023" class="node">
<title>Node23</title>
<g id="a_Node000023"><a xlink:href="../../d2/d72/_scram___jet___inlet___test___case_8cpp_a49bbbeed352ab44d6248954f9d5391b0.html#a49bbbeed352ab44d6248954f9d5391b0" target="_top" xlink:title=" ">
<polygon fill="white" stroke="#666666" points="441.25,-426.25 354,-426.25 354,-407 441.25,-407 441.25,-426.25"/>
<text text-anchor="middle" x="397.62" y="-412.75" font-family="Helvetica,sans-Serif" font-size="10.00">Scram_Jet_Inlet</text>
</a>
</g>
</g>
<!-- Node1&#45;&gt;Node23 -->
<g id="edge42_Node000001_Node000023" class="edge">
<title>Node1&#45;&gt;Node23</title>
<g id="a_edge42_Node000001_Node000023"><a xlink:title=" ">
<path fill="none" stroke="#63b8ff" d="M1169.24,-416.62C1106.09,-416.62 1012.62,-416.62 931.12,-416.62 931.12,-416.62 931.12,-416.62 755.25,-416.62 642.1,-416.62 508.76,-416.62 441.72,-416.62"/>
<polygon fill="#63b8ff" stroke="#63b8ff" points="1169.15,-420.13 1179.15,-416.63 1169.15,-413.13 1169.15,-420.13"/>
</a>
</g>
</g>
<!-- Node24 -->
<g id="Node000024" class="node">
<title>Node24</title>
<g id="a_Node000024"><a xlink:href="../../d1/d48/_shock___bubble___interaction_8cpp_a4cb762eff7e59896e567775356bda66a.html#a4cb762eff7e59896e567775356bda66a" target="_top" xlink:title=" ">
<polygon fill="white" stroke="#666666" points="995.12,-778.25 865.12,-778.25 865.12,-759 995.12,-759 995.12,-778.25"/>
<text text-anchor="middle" x="930.12" y="-764.75" font-family="Helvetica,sans-Serif" font-size="10.00">Shock_Bubble_Interaction</text>
</a>
</g>
</g>
<!-- Node1&#45;&gt;Node24 -->
<g id="edge45_Node000001_Node000024" class="edge">
<title>Node1&#45;&gt;Node24</title>
<g id="a_edge45_Node000001_Node000024"><a xlink:title=" ">
<path fill="none" stroke="#63b8ff" d="M1238.65,-443.23C1227.14,-514.16 1192.29,-705.08 1145,-744.62 1103.87,-779.02 1041.65,-782.4 994.9,-778.72"/>
<polygon fill="#63b8ff" stroke="#63b8ff" points="1242.05,-444.1 1240.17,-433.67 1235.14,-443 1242.05,-444.1"/>
</a>
</g>
</g>
<!-- Node25 -->
<g id="Node000025" class="node">
<title>Node25</title>
<g id="a_Node000025"><a xlink:href="../../d5/d9f/_shock___diffraction_8cpp_a464d43fab5d32cc9ecee800dfab8e5c8.html#a464d43fab5d32cc9ecee800dfab8e5c8" target="_top" xlink:title=" ">
<polygon fill="white" stroke="#666666" points="803.25,-740.25 709.25,-740.25 709.25,-721 803.25,-721 803.25,-740.25"/>
<text text-anchor="middle" x="756.25" y="-726.75" font-family="Helvetica,sans-Serif" font-size="10.00">Shock_Diffraction</text>
</a>
</g>
</g>
<!-- Node1&#45;&gt;Node25 -->
<g id="edge47_Node000001_Node000025" class="edge">
<title>Node1&#45;&gt;Node25</title>
<g id="a_edge47_Node000001_Node000025"><a xlink:title=" ">
<path fill="none" stroke="#63b8ff" d="M1242.86,-443.5C1241.48,-502.3 1229.06,-642.22 1145,-706.62 1092.73,-746.67 894.64,-739.59 803.56,-733.98"/>
<polygon fill="#63b8ff" stroke="#63b8ff" points="1246.36,-443.8 1242.99,-433.76 1239.36,-443.71 1246.36,-443.8"/>
</a>
</g>
</g>
<!-- Node26 -->
<g id="Node000026" class="node">
<title>Node26</title>
<g id="a_Node000026"><a xlink:href="../../d2/d58/_shock___reflection__2_d_8cpp_a286a95bfcac44ff19264008ffd9506ed.html#a286a95bfcac44ff19264008ffd9506ed" target="_top" xlink:title=" ">
<polygon fill="white" stroke="#666666" points="453.25,-388.25 342,-388.25 342,-369 453.25,-369 453.25,-388.25"/>
<text text-anchor="middle" x="397.62" y="-374.75" font-family="Helvetica,sans-Serif" font-size="10.00">Shock_Reflection_2D</text>
</a>
</g>
</g>
<!-- Node1&#45;&gt;Node26 -->
<g id="edge49_Node000001_Node000026" class="edge">
<title>Node1&#45;&gt;Node26</title>
<g id="a_edge49_Node000001_Node000026"><a xlink:title=" ">
<path fill="none" stroke="#63b8ff" d="M1169.64,-402.63C1106.68,-391.79 1013.26,-378.62 931.12,-378.62 931.12,-378.62 931.12,-378.62 755.25,-378.62 648.45,-378.62 523.65,-378.62 453.61,-378.62"/>
<polygon fill="#63b8ff" stroke="#63b8ff" points="1168.7,-406.01 1179.15,-404.29 1169.91,-399.12 1168.7,-406.01"/>
</a>
</g>
</g>
<!-- Node27 -->
<g id="Node000027" class="node">
<title>Node27</title>
<g id="a_Node000027"><a xlink:href="../../d6/d4f/_shock___tube__2_d_8cpp_a634f5b7cf63cab96d3b48ed0b4df6ad4.html#a634f5b7cf63cab96d3b48ed0b4df6ad4" target="_top" xlink:title=" ">
<polygon fill="white" stroke="#666666" points="442,-350.25 353.25,-350.25 353.25,-331 442,-331 442,-350.25"/>
<text text-anchor="middle" x="397.62" y="-336.75" font-family="Helvetica,sans-Serif" font-size="10.00">Shock_Tube_2D</text>
</a>
</g>
</g>
<!-- Node1&#45;&gt;Node27 -->
<g id="edge52_Node000001_Node000027" class="edge">
<title>Node1&#45;&gt;Node27</title>
<g id="a_edge52_Node000001_Node000027"><a xlink:title=" ">
<path fill="none" stroke="#63b8ff" d="M1193.72,-396.95C1133.09,-374.43 1026.21,-340.62 931.12,-340.62 931.12,-340.62 931.12,-340.62 755.25,-340.62 642.41,-340.62 509.49,-340.62 442.27,-340.62"/>
<polygon fill="#63b8ff" stroke="#63b8ff" points="1192.13,-400.09 1202.72,-400.34 1194.6,-393.54 1192.13,-400.09"/>
</a>
</g>
</g>
<!-- Node28 -->
<g id="Node000028" class="node">
<title>Node28</title>
<g id="a_Node000028"><a xlink:href="../../de/dda/_shock___wedge___reflection_8cpp_a951397acc5a124a5a006dbd5ae45029a.html#a951397acc5a124a5a006dbd5ae45029a" target="_top" xlink:title=" ">
<polygon fill="white" stroke="#666666" points="632.75,-702.25 504.25,-702.25 504.25,-683 632.75,-683 632.75,-702.25"/>
<text text-anchor="middle" x="568.5" y="-688.75" font-family="Helvetica,sans-Serif" font-size="10.00">Shock_Wedge_Reflection</text>
</a>
</g>
</g>
<!-- Node1&#45;&gt;Node28 -->
<g id="edge55_Node000001_Node000028" class="edge">
<title>Node1&#45;&gt;Node28</title>
<g id="a_edge55_Node000001_Node000028"><a xlink:title=" ">
<path fill="none" stroke="#63b8ff" d="M1241.69,-443.6C1237.95,-497.8 1221.04,-619.32 1145,-673.62 1064.61,-731.03 765.38,-711.13 633.09,-699.07"/>
<polygon fill="#63b8ff" stroke="#63b8ff" points="1245.18,-443.93 1242.26,-433.74 1238.19,-443.52 1245.18,-443.93"/>
</a>
</g>
</g>
<!-- Node29 -->
<g id="Node000029" class="node">
<title>Node29</title>
<g id="a_Node000029"><a xlink:href="../../d8/d8f/_slip___flow__2_d_8cpp_a41030236ecf9b4d95159d7227a838eab.html#a41030236ecf9b4d95159d7227a838eab" target="_top" xlink:title=" ">
<polygon fill="white" stroke="#666666" points="436,-312.25 359.25,-312.25 359.25,-293 436,-293 436,-312.25"/>
<text text-anchor="middle" x="397.62" y="-298.75" font-family="Helvetica,sans-Serif" font-size="10.00">Slip_Flow_2D</text>
</a>
</g>
</g>
<!-- Node1&#45;&gt;Node29 -->
<g id="edge57_Node000001_Node000029" class="edge">
<title>Node1&#45;&gt;Node29</title>
<g id="a_edge57_Node000001_Node000029"><a xlink:title=" ">
<path fill="none" stroke="#63b8ff" d="M1216.58,-393.65C1197.85,-378.4 1171.39,-359.13 1145,-347.62 1055.95,-308.81 1028.26,-302.62 931.12,-302.62 931.12,-302.62 931.12,-302.62 755.25,-302.62 639.01,-302.62 501.45,-302.62 436.37,-302.62"/>
<polygon fill="#63b8ff" stroke="#63b8ff" points="1214.29,-396.3 1224.21,-400.02 1218.77,-390.92 1214.29,-396.3"/>
</a>
</g>
</g>
<!-- Node30 -->
<g id="Node000030" class="node">
<title>Node30</title>
<g id="a_Node000030"><a xlink:href="../../d8/da5/_s_w_b_l_i_8cpp_aab1edbd94ae1737559f5140355148ed8.html#aab1edbd94ae1737559f5140355148ed8" target="_top" xlink:title=" ">
<polygon fill="white" stroke="#666666" points="1112,-664.25 1064.5,-664.25 1064.5,-645 1112,-645 1112,-664.25"/>
<text text-anchor="middle" x="1088.25" y="-650.75" font-family="Helvetica,sans-Serif" font-size="10.00">SWBLI</text>
</a>
</g>
</g>
<!-- Node1&#45;&gt;Node30 -->
<g id="edge60_Node000001_Node000030" class="edge">
<title>Node1&#45;&gt;Node30</title>
<g id="a_edge60_Node000001_Node000030"><a xlink:title=" ">
<path fill="none" stroke="#63b8ff" d="M1237.15,-443.34C1226.55,-487.77 1199.56,-577.25 1145,-630.62 1136.04,-639.39 1123.36,-645.2 1112.36,-648.9"/>
<polygon fill="#63b8ff" stroke="#63b8ff" points="1240.52,-444.32 1239.33,-433.79 1233.69,-442.76 1240.52,-444.32"/>
</a>
</g>
</g>
<!-- Node2&#45;&gt;Node3 -->
<g id="edge2_Node000002_Node000003" class="edge">
<title>Node2&#45;&gt;Node3</title>
<g id="a_edge2_Node000002_Node000003"><a xlink:title=" ">
<path fill="none" stroke="#63b8ff" d="M356.87,-251.53C319.71,-241.75 263.81,-233.49 221.75,-255.62 170.43,-282.63 142.36,-352.92 133.5,-378.84"/>
<polygon fill="#63b8ff" stroke="#63b8ff" points="355.73,-254.85 366.3,-254.17 357.62,-248.11 355.73,-254.85"/>
</a>
</g>
</g>
<!-- Node4 -->
<g id="Node000004" class="node">
<title>Node4</title>
<g id="a_Node000004"><a xlink:href="../../d0/de9/_configuration___read_8cpp_a32d98c169e6f866c6411c53d5758292e.html#a32d98c169e6f866c6411c53d5758292e" target="_top" xlink:title=" ">
<polygon fill="white" stroke="#666666" points="291.75,-284.25 236,-284.25 236,-265 291.75,-265 291.75,-284.25"/>
<text text-anchor="middle" x="263.88" y="-270.75" font-family="Helvetica,sans-Serif" font-size="10.00">testCase</text>
</a>
</g>
</g>
<!-- Node2&#45;&gt;Node4 -->
<g id="edge3_Node000002_Node000004" class="edge">
<title>Node2&#45;&gt;Node4</title>
<g id="a_edge3_Node000002_Node000004"><a xlink:title=" ">
<path fill="none" stroke="#63b8ff" d="M346.84,-268.4C328.19,-269.82 307.71,-271.37 291.88,-272.58"/>
<polygon fill="#63b8ff" stroke="#63b8ff" points="346.95,-271.91 356.65,-267.66 346.42,-264.93 346.95,-271.91"/>
</a>
</g>
</g>
<!-- Node4&#45;&gt;Node3 -->
<g id="edge4_Node000004_Node000003" class="edge">
<title>Node4&#45;&gt;Node3</title>
<g id="a_edge4_Node000004_Node000003"><a xlink:title=" ">
<path fill="none" stroke="#63b8ff" d="M233.82,-290.34C229.66,-292.95 225.52,-295.74 221.75,-298.62 188.33,-324.2 154.45,-361.06 139.01,-378.61"/>
<polygon fill="#63b8ff" stroke="#63b8ff" points="235.28,-293.55 242.1,-285.44 231.71,-287.53 235.28,-293.55"/>
</a>
</g>
</g>
<!-- Node5 -->
<g id="Node000005" class="node">
<title>Node5</title>
<g id="a_Node000005"><a xlink:href="../../d5/d12/_main_8cpp_a35d775933750ace299102f06a1712663.html#a35d775933750ace299102f06a1712663" target="_top" xlink:title=" ">
<polygon fill="white" stroke="#666666" points="158,-56.25 100.75,-56.25 100.75,-37 158,-37 158,-56.25"/>
<text text-anchor="middle" x="129.38" y="-42.75" font-family="Helvetica,sans-Serif" font-size="10.00">runSolver</text>
</a>
</g>
</g>
<!-- Node4&#45;&gt;Node5 -->
<g id="edge5_Node000004_Node000005" class="edge">
<title>Node4&#45;&gt;Node5</title>
<g id="a_edge5_Node000004_Node000005"><a xlink:title=" ">
<path fill="none" stroke="#63b8ff" d="M251.26,-254.64C223.94,-207.62 156.37,-91.36 136.17,-56.6"/>
<polygon fill="#63b8ff" stroke="#63b8ff" points="248.2,-256.34 256.25,-263.23 254.25,-252.82 248.2,-256.34"/>
</a>
</g>
</g>
<!-- Node6 -->
<g id="Node000006" class="node">
<title>Node6</title>
<g id="a_Node000006"><a xlink:href="../../d5/d12/_main_8cpp_a0ddf1224851353fc92bfbff6f499fa97.html#a0ddf1224851353fc92bfbff6f499fa97" target="_top" xlink:title=" ">
<polygon fill="white" stroke="#666666" points="37,-56.25 0,-56.25 0,-37 37,-37 37,-56.25"/>
<text text-anchor="middle" x="18.5" y="-42.75" font-family="Helvetica,sans-Serif" font-size="10.00">main</text>
</a>
</g>
</g>
<!-- Node5&#45;&gt;Node6 -->
<g id="edge6_Node000005_Node000006" class="edge">
<title>Node5&#45;&gt;Node6</title>
<g id="a_edge6_Node000005_Node000006"><a xlink:title=" ">
<path fill="none" stroke="#63b8ff" d="M88.84,-46.62C71.14,-46.62 51.16,-46.62 37.22,-46.62"/>
<polygon fill="#63b8ff" stroke="#63b8ff" points="88.82,-50.13 98.82,-46.63 88.82,-43.13 88.82,-50.13"/>
</a>
</g>
</g>
<!-- Node7&#45;&gt;Node3 -->
<g id="edge8_Node000007_Node000003" class="edge">
<title>Node7&#45;&gt;Node3</title>
<g id="a_edge8_Node000007_Node000003"><a xlink:title=" ">
<path fill="none" stroke="#63b8ff" d="M870.91,-577.15C799.8,-577.74 675.81,-578.62 569.5,-578.62 569.5,-578.62 569.5,-578.62 396.62,-578.62 311.16,-578.62 289.62,-550.58 221.75,-498.62 182.91,-468.9 149.74,-419.78 136.51,-398.72"/>
<polygon fill="#63b8ff" stroke="#63b8ff" points="870.8,-580.65 880.77,-577.06 870.74,-573.65 870.8,-580.65"/>
</a>
</g>
</g>
<!-- Node8&#45;&gt;Node3 -->
<g id="edge10_Node000008_Node000003" class="edge">
<title>Node8&#45;&gt;Node3</title>
<g id="a_edge10_Node000008_Node000003"><a xlink:title=" ">
<path fill="none" stroke="#63b8ff" d="M691.21,-541.14C586.64,-547.27 375.52,-547.42 221.75,-467.62 186.76,-449.47 153.88,-415.37 138.88,-398.54"/>
<polygon fill="#63b8ff" stroke="#63b8ff" points="691.24,-544.65 701,-540.53 690.8,-537.66 691.24,-544.65"/>
</a>
</g>
</g>
<!-- Node9&#45;&gt;Node3 -->
<g id="edge12_Node000009_Node000003" class="edge">
<title>Node9&#45;&gt;Node3</title>
<g id="a_edge12_Node000009_Node000003"><a xlink:title=" ">
<path fill="none" stroke="#63b8ff" d="M339.08,-217.35C302.89,-214.48 256.61,-216.5 221.75,-237.62 166.98,-270.81 140.74,-350.45 132.95,-378.58"/>
<polygon fill="#63b8ff" stroke="#63b8ff" points="338.66,-220.82 348.95,-218.29 339.32,-213.85 338.66,-220.82"/>
</a>
</g>
</g>
<!-- Node9&#45;&gt;Node4 -->
<g id="edge13_Node000009_Node000004" class="edge">
<title>Node9&#45;&gt;Node4</title>
<g id="a_edge13_Node000009_Node000004"><a xlink:title=" ">
<path fill="none" stroke="#63b8ff" d="M356.52,-240.44C351.63,-242.17 346.69,-243.93 342,-245.62 325.05,-251.76 306.1,-258.88 291.23,-264.53"/>
<polygon fill="#63b8ff" stroke="#63b8ff" points="357.38,-243.85 365.67,-237.25 355.07,-237.25 357.38,-243.85"/>
</a>
</g>
</g>
<!-- Node10&#45;&gt;Node3 -->
<g id="edge15_Node000010_Node000003" class="edge">
<title>Node10&#45;&gt;Node3</title>
<g id="a_edge15_Node000010_Node000003"><a xlink:title=" ">
<path fill="none" stroke="#63b8ff" d="M330.69,-183.71C295.47,-184.31 253.05,-190.55 221.75,-212.62 162.1,-254.69 138.58,-347.78 132.26,-378.54"/>
<polygon fill="#63b8ff" stroke="#63b8ff" points="330.33,-187.21 340.33,-183.7 330.33,-180.21 330.33,-187.21"/>
</a>
</g>
</g>
<!-- Node10&#45;&gt;Node4 -->
<g id="edge16_Node000010_Node000004" class="edge">
<title>Node10&#45;&gt;Node4</title>
<g id="a_edge16_Node000010_Node000004"><a xlink:title=" ">
<path fill="none" stroke="#63b8ff" d="M350.83,-203.06C347.78,-204.48 344.81,-206 342,-207.62 314.37,-223.63 287.47,-250.25 273.93,-264.65"/>
<polygon fill="#63b8ff" stroke="#63b8ff" points="352.08,-206.33 359.97,-199.25 349.39,-199.87 352.08,-206.33"/>
</a>
</g>
</g>
<!-- Node12 -->
<g id="Node000012" class="node">
<title>Node12</title>
<g id="a_Node000012"><a xlink:href="../../d8/df4/_w_e_n_o2_d_8cpp_a9ad30d54bcfdc4e146d0dff2d3c22cdb.html#a9ad30d54bcfdc4e146d0dff2d3c22cdb" target="_top" xlink:title=" ">
<polygon fill="white" stroke="#666666" points="995.5,-96.25 864.75,-96.25 864.75,-77 995.5,-77 995.5,-96.25"/>
<text text-anchor="middle" x="930.12" y="-82.75" font-family="Helvetica,sans-Serif" font-size="10.00">WENO_Reconstruction_X</text>
</a>
</g>
</g>
<!-- Node11&#45;&gt;Node12 -->
<g id="edge18_Node000011_Node000012" class="edge">
<title>Node11&#45;&gt;Node12</title>
<g id="a_edge18_Node000011_Node000012"><a xlink:title=" ">
<path fill="none" stroke="#63b8ff" d="M1019.99,-101.42C1010.58,-99.86 1000.96,-98.25 991.68,-96.71"/>
<polygon fill="#63b8ff" stroke="#63b8ff" points="1019.39,-104.87 1029.83,-103.06 1020.54,-97.97 1019.39,-104.87"/>
</a>
</g>
</g>
<!-- Node13 -->
<g id="Node000013" class="node">
<title>Node13</title>
<g id="a_Node000013"><a xlink:href="../../d8/df4/_w_e_n_o2_d_8cpp_a27359f46a5902f1f50547f76408a48aa.html#a27359f46a5902f1f50547f76408a48aa" target="_top" xlink:title=" ">
<polygon fill="white" stroke="#666666" points="828.75,-82.25 683.75,-82.25 683.75,-63 828.75,-63 828.75,-82.25"/>
<text text-anchor="middle" x="756.25" y="-68.75" font-family="Helvetica,sans-Serif" font-size="10.00">Calculate_Face_WENO_Flux</text>
</a>
</g>
</g>
<!-- Node12&#45;&gt;Node13 -->
<g id="edge19_Node000012_Node000013" class="edge">
<title>Node12&#45;&gt;Node13</title>
<g id="a_edge19_Node000012_Node000013"><a xlink:title=" ">
<path fill="none" stroke="#63b8ff" d="M853.33,-80.45C845.25,-79.79 837.05,-79.13 829.02,-78.47"/>
<polygon fill="#63b8ff" stroke="#63b8ff" points="852.88,-83.93 863.13,-81.25 853.44,-76.95 852.88,-83.93"/>
</a>
</g>
</g>
<!-- Node14 -->
<g id="Node000014" class="node">
<title>Node14</title>
<g id="a_Node000014"><a xlink:href="../../d8/df4/_w_e_n_o2_d_8cpp_a74c2795e4a164178c69743947d6e6cf5.html#a74c2795e4a164178c69743947d6e6cf5" target="_top" xlink:title=" ">
<polygon fill="white" stroke="#666666" points="647.75,-75.25 489.25,-75.25 489.25,-56 647.75,-56 647.75,-75.25"/>
<text text-anchor="middle" x="568.5" y="-61.75" font-family="Helvetica,sans-Serif" font-size="10.00">Evaluate_Cell_Net_Flux_WENO</text>
</a>
</g>
</g>
<!-- Node13&#45;&gt;Node14 -->
<g id="edge20_Node000013_Node000014" class="edge">
<title>Node13&#45;&gt;Node14</title>
<g id="a_edge20_Node000013_Node000014"><a xlink:title=" ">
<path fill="none" stroke="#63b8ff" d="M671.96,-69.49C664.06,-69.19 656.07,-68.89 648.22,-68.59"/>
<polygon fill="#63b8ff" stroke="#63b8ff" points="671.8,-72.98 681.92,-69.86 672.06,-65.99 671.8,-72.98"/>
</a>
</g>
</g>
<!-- Node15 -->
<g id="Node000015" class="node">
<title>Node15</title>
<g id="a_Node000015"><a xlink:href="../../db/d38/_parallel___numerical___method_8cpp_a8dda0c7e17babab9b6e49e8e199dc30e.html#a8dda0c7e17babab9b6e49e8e199dc30e" target="_top" xlink:title=" ">
<polygon fill="white" stroke="#666666" points="440.5,-38.25 354.75,-38.25 354.75,-19 440.5,-19 440.5,-38.25"/>
<text text-anchor="middle" x="397.62" y="-24.75" font-family="Helvetica,sans-Serif" font-size="10.00">Explicit_Method</text>
</a>
</g>
</g>
<!-- Node14&#45;&gt;Node15 -->
<g id="edge21_Node000014_Node000015" class="edge">
<title>Node14&#45;&gt;Node15</title>
<g id="a_edge21_Node000014_Node000015"><a xlink:title=" ">
<path fill="none" stroke="#63b8ff" d="M510.15,-53.06C487.48,-48.09 461.89,-42.49 440.95,-37.9"/>
<polygon fill="#63b8ff" stroke="#63b8ff" points="509.36,-56.47 519.88,-55.19 510.86,-49.63 509.36,-56.47"/>
</a>
</g>
</g>
<!-- Node18 -->
<g id="Node000018" class="node">
<title>Node18</title>
<g id="a_Node000018"><a xlink:href="../../d0/d64/_numerical___method_8cpp_a794f030971fbb7c9dd4bc08df03f50f1.html#a794f030971fbb7c9dd4bc08df03f50f1" target="_top" xlink:title=" ">
<polygon fill="white" stroke="#666666" points="452.88,-75.25 342.38,-75.25 342.38,-56 452.88,-56 452.88,-75.25"/>
<text text-anchor="middle" x="397.62" y="-61.75" font-family="Helvetica,sans-Serif" font-size="10.00">Runge_Kutta_Method</text>
</a>
</g>
</g>
<!-- Node14&#45;&gt;Node18 -->
<g id="edge28_Node000014_Node000018" class="edge">
<title>Node14&#45;&gt;Node18</title>
<g id="a_edge28_Node000014_Node000018"><a xlink:title=" ">
<path fill="none" stroke="#63b8ff" d="M477.67,-65.62C469.38,-65.62 461.16,-65.62 453.32,-65.62"/>
<polygon fill="#63b8ff" stroke="#63b8ff" points="477.48,-69.13 487.48,-65.63 477.48,-62.13 477.48,-69.13"/>
</a>
</g>
</g>
<!-- Node16 -->
<g id="Node000016" class="node">
<title>Node16</title>
<g id="a_Node000016"><a xlink:href="../../de/df0/_solver_8cpp_ad0f49408a26339b5f7043bf867c3fa8d.html#ad0f49408a26339b5f7043bf867c3fa8d" target="_top" xlink:title=" ">
<polygon fill="white" stroke="#666666" points="305.25,-19.25 222.5,-19.25 222.5,0 305.25,0 305.25,-19.25"/>
<text text-anchor="middle" x="263.88" y="-5.75" font-family="Helvetica,sans-Serif" font-size="10.00">Inviscid_Solver</text>
</a>
</g>
</g>
<!-- Node15&#45;&gt;Node16 -->
<g id="edge22_Node000015_Node000016" class="edge">
<title>Node15&#45;&gt;Node16</title>
<g id="a_edge22_Node000015_Node000016"><a xlink:title=" ">
<path fill="none" stroke="#63b8ff" d="M343.28,-20.93C330.72,-19.12 317.53,-17.22 305.63,-15.5"/>
<polygon fill="#63b8ff" stroke="#63b8ff" points="342.68,-24.38 353.08,-22.34 343.68,-17.45 342.68,-24.38"/>
</a>
</g>
</g>
<!-- Node17 -->
<g id="Node000017" class="node">
<title>Node17</title>
<g id="a_Node000017"><a xlink:href="../../de/df0/_solver_8cpp_a2f37f06e8324a1ed6aa99efdbba81865.html#a2f37f06e8324a1ed6aa99efdbba81865" target="_top" xlink:title=" ">
<polygon fill="white" stroke="#666666" points="306,-56.25 221.75,-56.25 221.75,-37 306,-37 306,-56.25"/>
<text text-anchor="middle" x="263.88" y="-42.75" font-family="Helvetica,sans-Serif" font-size="10.00">Viscous_Solver</text>
</a>
</g>
</g>
<!-- Node15&#45;&gt;Node17 -->
<g id="edge25_Node000015_Node000017" class="edge">
<title>Node15&#45;&gt;Node17</title>
<g id="a_edge25_Node000015_Node000017"><a xlink:title=" ">
<path fill="none" stroke="#63b8ff" d="M343.39,-35.9C330.95,-37.6 317.89,-39.38 306.07,-41"/>
<polygon fill="#63b8ff" stroke="#63b8ff" points="343.64,-39.4 353.08,-34.57 342.69,-32.46 343.64,-39.4"/>
</a>
</g>
</g>
<!-- Node16&#45;&gt;Node3 -->
<g id="edge23_Node000016_Node000003" class="edge">
<title>Node16&#45;&gt;Node3</title>
<g id="a_edge23_Node000016_Node000003"><a xlink:title=" ">
<path fill="none" stroke="#63b8ff" d="M222.8,-26.45C222.44,-26.83 222.09,-27.22 221.75,-27.62 127.91,-138.35 128.38,-332.5 129.92,-378.6"/>
<polygon fill="#63b8ff" stroke="#63b8ff" points="224.67,-29.43 230.36,-20.5 220.34,-23.93 224.67,-29.43"/>
</a>
</g>
</g>
<!-- Node16&#45;&gt;Node5 -->
<g id="edge24_Node000016_Node000005" class="edge">
<title>Node16&#45;&gt;Node5</title>
<g id="a_edge24_Node000016_Node000005"><a xlink:title=" ">
<path fill="none" stroke="#63b8ff" d="M215.65,-22.81C196.39,-28.19 174.78,-34.23 158.13,-38.87"/>
<polygon fill="#63b8ff" stroke="#63b8ff" points="216.52,-26.2 225.21,-20.14 214.64,-19.46 216.52,-26.2"/>
</a>
</g>
</g>
<!-- Node17&#45;&gt;Node3 -->
<g id="edge26_Node000017_Node000003" class="edge">
<title>Node17&#45;&gt;Node3</title>
<g id="a_edge26_Node000017_Node000003"><a xlink:title=" ">
<path fill="none" stroke="#63b8ff" d="M229.3,-63.05C226.5,-65.32 223.91,-67.84 221.75,-70.62 143.45,-171.27 132.24,-336.5 130.64,-378.61"/>
<polygon fill="#63b8ff" stroke="#63b8ff" points="231.19,-66 237.51,-57.5 227.26,-60.21 231.19,-66"/>
</a>
</g>
</g>
<!-- Node17&#45;&gt;Node5 -->
<g id="edge27_Node000017_Node000005" class="edge">
<title>Node17&#45;&gt;Node5</title>
<g id="a_edge27_Node000017_Node000005"><a xlink:title=" ">
<path fill="none" stroke="#63b8ff" d="M209.97,-46.62C192.33,-46.62 173.37,-46.62 158.38,-46.62"/>
<polygon fill="#63b8ff" stroke="#63b8ff" points="209.8,-50.13 219.8,-46.63 209.8,-43.13 209.8,-50.13"/>
</a>
</g>
</g>
<!-- Node18&#45;&gt;Node3 -->
<g id="edge30_Node000018_Node000003" class="edge">
<title>Node18&#45;&gt;Node3</title>
<g id="a_edge30_Node000018_Node000003"><a xlink:title=" ">
<path fill="none" stroke="#63b8ff" d="M342.34,-78.93C304.04,-90.85 253.99,-111.95 221.75,-146.62 155.09,-218.32 135.7,-343.4 131.41,-378.95"/>
<polygon fill="#63b8ff" stroke="#63b8ff" points="343.28,-82.3 351.86,-76.09 341.28,-75.59 343.28,-82.3"/>
</a>
</g>
</g>
<!-- Node18&#45;&gt;Node16 -->
<g id="edge29_Node000018_Node000016" class="edge">
<title>Node18&#45;&gt;Node16</title>
<g id="a_edge29_Node000018_Node000016"><a xlink:title=" ">
<path fill="none" stroke="#63b8ff" d="M352.23,-51.79C348.74,-50.46 345.29,-49.07 342,-47.62 325.23,-40.28 322.4,-35.75 306,-27.62 300.55,-24.93 294.61,-22.2 288.97,-19.72"/>
<polygon fill="#63b8ff" stroke="#63b8ff" points="350.72,-54.96 361.31,-55.05 353.09,-48.38 350.72,-54.96"/>
</a>
</g>
</g>
<!-- Node18&#45;&gt;Node17 -->
<g id="edge31_Node000018_Node000017" class="edge">
<title>Node18&#45;&gt;Node17</title>
<g id="a_edge31_Node000018_Node000017"><a xlink:title=" ">
<path fill="none" stroke="#63b8ff" d="M330.66,-56.11C322.39,-54.92 314.12,-53.73 306.38,-52.61"/>
<polygon fill="#63b8ff" stroke="#63b8ff" points="330,-59.55 340.4,-57.52 331,-52.62 330,-59.55"/>
</a>
</g>
</g>
<!-- Node19&#45;&gt;Node3 -->
<g id="edge33_Node000019_Node000003" class="edge">
<title>Node19&#45;&gt;Node3</title>
<g id="a_edge33_Node000019_Node000003"><a xlink:title=" ">
<path fill="none" stroke="#63b8ff" d="M335.23,-147.74C298.78,-149.13 253.6,-156.64 221.75,-181.62 154.99,-234 135.84,-345.36 131.48,-378.88"/>
<polygon fill="#63b8ff" stroke="#63b8ff" points="335.3,-151.24 345.22,-147.52 335.15,-144.24 335.3,-151.24"/>
</a>
</g>
</g>
<!-- Node19&#45;&gt;Node4 -->
<g id="edge34_Node000019_Node000004" class="edge">
<title>Node19&#45;&gt;Node4</title>
<g id="a_edge34_Node000019_Node000004"><a xlink:title=" ">
<path fill="none" stroke="#63b8ff" d="M347.98,-165.72C345.9,-166.93 343.89,-168.23 342,-169.62 306.15,-196.09 279.81,-244 269.56,-264.68"/>
<polygon fill="#63b8ff" stroke="#63b8ff" points="349.36,-168.94 356.76,-161.36 346.25,-162.67 349.36,-168.94"/>
</a>
</g>
</g>
<!-- Node21&#45;&gt;Node3 -->
<g id="edge37_Node000021_Node000003" class="edge">
<title>Node21&#45;&gt;Node3</title>
<g id="a_edge37_Node000021_Node000003"><a xlink:title=" ">
<path fill="none" stroke="#63b8ff" d="M538.02,-497.23C476.75,-495.47 332.18,-486.35 221.75,-440.62 193.42,-428.89 162.92,-410.16 145.3,-398.68"/>
<polygon fill="#63b8ff" stroke="#63b8ff" points="537.86,-500.73 547.94,-497.46 538.03,-493.73 537.86,-500.73"/>
</a>
</g>
</g>
<!-- Node22&#45;&gt;Node3 -->
<g id="edge40_Node000022_Node000003" class="edge">
<title>Node22&#45;&gt;Node3</title>
<g id="a_edge40_Node000022_Node000003"><a xlink:title=" ">
<path fill="none" stroke="#63b8ff" d="M338.78,-443.32C304.58,-436.32 260.5,-426.75 221.75,-416.62 201.36,-411.3 178.72,-404.36 161.07,-398.73"/>
<polygon fill="#63b8ff" stroke="#63b8ff" points="338,-446.73 348.5,-445.29 339.39,-439.87 338,-446.73"/>
</a>
</g>
</g>
<!-- Node22&#45;&gt;Node4 -->
<g id="edge41_Node000022_Node000004" class="edge">
<title>Node22&#45;&gt;Node4</title>
<g id="a_edge41_Node000022_Node000004"><a xlink:title=" ">
<path fill="none" stroke="#63b8ff" d="M345.99,-438.82C344.6,-437.82 343.26,-436.75 342,-435.62 293.71,-392.46 272.86,-312.46 266.84,-284.55"/>
<polygon fill="#63b8ff" stroke="#63b8ff" points="344.11,-441.77 354.51,-443.79 347.64,-435.73 344.11,-441.77"/>
</a>
</g>
</g>
<!-- Node23&#45;&gt;Node3 -->
<g id="edge43_Node000023_Node000003" class="edge">
<title>Node23&#45;&gt;Node3</title>
<g id="a_edge43_Node000023_Node000003"><a xlink:title=" ">
<path fill="none" stroke="#63b8ff" d="M342.1,-410.89C296.51,-406.1 231.74,-399.29 185.87,-394.46"/>
<polygon fill="#63b8ff" stroke="#63b8ff" points="341.73,-414.37 352.05,-411.94 342.47,-407.41 341.73,-414.37"/>
</a>
</g>
</g>
<!-- Node23&#45;&gt;Node4 -->
<g id="edge44_Node000023_Node000004" class="edge">
<title>Node23&#45;&gt;Node4</title>
<g id="a_edge44_Node000023_Node000004"><a xlink:title=" ">
<path fill="none" stroke="#63b8ff" d="M347.41,-401.43C345.52,-400.25 343.71,-398.99 342,-397.62 302.18,-365.9 277.18,-307.66 268.41,-284.5"/>
<polygon fill="#63b8ff" stroke="#63b8ff" points="345.49,-404.38 355.97,-405.92 348.74,-398.18 345.49,-404.38"/>
</a>
</g>
</g>
<!-- Node24&#45;&gt;Node3 -->
<g id="edge46_Node000024_Node000003" class="edge">
<title>Node24&#45;&gt;Node3</title>
<g id="a_edge46_Node000024_Node000003"><a xlink:title=" ">
<path fill="none" stroke="#63b8ff" d="M853.49,-768.62C780.71,-768.62 667.58,-768.62 569.5,-768.62 569.5,-768.62 569.5,-768.62 396.62,-768.62 316.48,-768.62 278.96,-780.75 221.75,-724.62 172.77,-676.57 138.81,-449.55 131.74,-398.73"/>
<polygon fill="#63b8ff" stroke="#63b8ff" points="853.3,-772.13 863.3,-768.63 853.3,-765.13 853.3,-772.13"/>
</a>
</g>
</g>
<!-- Node25&#45;&gt;Node3 -->
<g id="edge48_Node000025_Node000003" class="edge">
<title>Node25&#45;&gt;Node3</title>
<g id="a_edge48_Node000025_Node000003"><a xlink:title=" ">
<path fill="none" stroke="#63b8ff" d="M697.34,-735.08C574.15,-743.25 291.62,-754.75 221.75,-694.62 128.03,-613.98 128.25,-441.64 129.87,-398.55"/>
<polygon fill="#63b8ff" stroke="#63b8ff" points="697.5,-738.57 707.24,-734.4 697.03,-731.59 697.5,-738.57"/>
</a>
</g>
</g>
<!-- Node26&#45;&gt;Node3 -->
<g id="edge50_Node000026_Node000003" class="edge">
<title>Node26&#45;&gt;Node3</title>
<g id="a_edge50_Node000026_Node000003"><a xlink:title=" ">
<path fill="none" stroke="#63b8ff" d="M330.5,-381.11C286.06,-382.78 228.15,-384.95 186.06,-386.53"/>
<polygon fill="#63b8ff" stroke="#63b8ff" points="330.41,-384.61 340.27,-380.74 330.14,-377.62 330.41,-384.61"/>
</a>
</g>
</g>
<!-- Node26&#45;&gt;Node4 -->
<g id="edge51_Node000026_Node000004" class="edge">
<title>Node26&#45;&gt;Node4</title>
<g id="a_edge51_Node000026_Node000004"><a xlink:title=" ">
<path fill="none" stroke="#63b8ff" d="M349.12,-363.8C346.65,-362.51 344.26,-361.12 342,-359.62 310.42,-338.74 283.23,-302.03 271.31,-284.5"/>
<polygon fill="#63b8ff" stroke="#63b8ff" points="347.65,-366.98 358.2,-367.95 350.56,-360.61 347.65,-366.98"/>
</a>
</g>
</g>
<!-- Node27&#45;&gt;Node3 -->
<g id="edge53_Node000027_Node000003" class="edge">
<title>Node27&#45;&gt;Node3</title>
<g id="a_edge53_Node000027_Node000003"><a xlink:title=" ">
<path fill="none" stroke="#63b8ff" d="M341.82,-350.51C296.31,-358.71 231.86,-370.33 186.1,-378.58"/>
<polygon fill="#63b8ff" stroke="#63b8ff" points="342.25,-353.98 351.47,-348.77 341.01,-347.1 342.25,-353.98"/>
</a>
</g>
</g>
<!-- Node27&#45;&gt;Node4 -->
<g id="edge54_Node000027_Node000004" class="edge">
<title>Node27&#45;&gt;Node4</title>
<g id="a_edge54_Node000027_Node000004"><a xlink:title=" ">
<path fill="none" stroke="#63b8ff" d="M353.6,-326.64C349.64,-325.06 345.71,-323.38 342,-321.62 319.03,-310.78 294.25,-294.84 279.14,-284.6"/>
<polygon fill="#63b8ff" stroke="#63b8ff" points="352.1,-329.81 362.69,-330.06 354.56,-323.26 352.1,-329.81"/>
</a>
</g>
</g>
<!-- Node28&#45;&gt;Node3 -->
<g id="edge56_Node000028_Node000003" class="edge">
<title>Node28&#45;&gt;Node3</title>
<g id="a_edge56_Node000028_Node000003"><a xlink:title=" ">
<path fill="none" stroke="#63b8ff" d="M492.63,-696.88C403.75,-700.34 262.43,-700.35 221.75,-668.62 132.44,-598.97 129.27,-440.24 130.04,-398.72"/>
<polygon fill="#63b8ff" stroke="#63b8ff" points="492.64,-700.38 502.49,-696.47 492.35,-693.39 492.64,-700.38"/>
</a>
</g>
</g>
<!-- Node29&#45;&gt;Node3 -->
<g id="edge58_Node000029_Node000003" class="edge">
<title>Node29&#45;&gt;Node3</title>
<g id="a_edge58_Node000029_Node000003"><a xlink:title=" ">
<path fill="none" stroke="#63b8ff" d="M347.87,-315.69C312.61,-325.42 263.94,-339.42 221.75,-353.62 198.89,-361.32 173.28,-371.25 155,-378.56"/>
<polygon fill="#63b8ff" stroke="#63b8ff" points="348.65,-319.1 357.36,-313.08 346.79,-312.35 348.65,-319.1"/>
</a>
</g>
</g>
<!-- Node29&#45;&gt;Node4 -->
<g id="edge59_Node000029_Node000004" class="edge">
<title>Node29&#45;&gt;Node4</title>
<g id="a_edge59_Node000029_Node000004"><a xlink:title=" ">
<path fill="none" stroke="#63b8ff" d="M347.79,-292.25C329,-288.25 308.22,-283.84 292.17,-280.43"/>
<polygon fill="#63b8ff" stroke="#63b8ff" points="346.88,-295.63 357.39,-294.29 348.34,-288.78 346.88,-295.63"/>
</a>
</g>
</g>
<!-- Node30&#45;&gt;Node3 -->
<g id="edge61_Node000030_Node000003" class="edge">
<title>Node30&#45;&gt;Node3</title>
<g id="a_edge61_Node000030_Node000003"><a xlink:title=" ">
<path fill="none" stroke="#63b8ff" d="M1052.61,-654.62C992.5,-654.62 864.98,-654.62 757.25,-654.62 757.25,-654.62 757.25,-654.62 396.62,-654.62 318.17,-654.62 283.09,-679.53 221.75,-630.62 145.02,-569.45 132.71,-436.41 130.74,-398.74"/>
<polygon fill="#63b8ff" stroke="#63b8ff" points="1052.53,-658.13 1062.53,-654.63 1052.53,-651.13 1052.53,-658.13"/>
</a>
</g>
</g>
</g>
</svg>
