<?xml version="1.0" encoding="UTF-8" standalone="no"?>
<!DOCTYPE svg PUBLIC "-//W3C//DTD SVG 1.1//EN"
 "http://www.w3.org/Graphics/SVG/1.1/DTD/svg11.dtd">
<!-- Generated by graphviz version 12.2.1 (20241206.2353)
 -->
<!-- Title: Second_Order_Limiter Pages: 1 -->
<svg width="935pt" height="178pt"
 viewBox="0.00 0.00 935.25 178.25" xmlns="http://www.w3.org/2000/svg" xmlns:xlink="http://www.w3.org/1999/xlink">
<g id="graph0" class="graph" transform="scale(1 1) rotate(0) translate(4 174.25)">
<title>Second_Order_Limiter</title>
<!-- Node1 -->
<g id="Node000001" class="node">
<title>Node1</title>
<g id="a_Node000001"><a xlink:title=" ">
<polygon fill="#999999" stroke="#666666" points="927.25,-94.25 814.5,-94.25 814.5,-75 927.25,-75 927.25,-94.25"/>
<text text-anchor="middle" x="870.88" y="-80.75" font-family="Helvetica,sans-Serif" font-size="10.00">Second_Order_Limiter</text>
</a>
</g>
</g>
<!-- Node2 -->
<g id="Node000002" class="node">
<title>Node2</title>
<g id="a_Node000002"><a xlink:href="../../de/d88/_l_l_f_8cpp_a3f7724701b89e020e5e2cb9aee42ca55.html#a3f7724701b89e020e5e2cb9aee42ca55" target="_top" xlink:title=" ">
<polygon fill="white" stroke="#666666" points="746.62,-131.25 696.12,-131.25 696.12,-112 746.62,-112 746.62,-131.25"/>
<text text-anchor="middle" x="721.38" y="-117.75" font-family="Helvetica,sans-Serif" font-size="10.00">LLF_2O</text>
</a>
</g>
</g>
<!-- Node1&#45;&gt;Node2 -->
<g id="edge1_Node000001_Node000002" class="edge">
<title>Node1&#45;&gt;Node2</title>
<g id="a_edge1_Node000001_Node000002"><a xlink:title=" ">
<path fill="none" stroke="#63b8ff" d="M818.69,-97.46C794.37,-103.57 766.42,-110.58 746.92,-115.47"/>
<polygon fill="#63b8ff" stroke="#63b8ff" points="819.25,-100.93 828.1,-95.1 817.55,-94.14 819.25,-100.93"/>
</a>
</g>
</g>
<!-- Node12 -->
<g id="Node000012" class="node">
<title>Node12</title>
<g id="a_Node000012"><a xlink:href="../../d9/d99/_m_o_v_e_r_s___n_w_s_c_8cpp_a52270c83adc7b5111fd5b794d1d2f99a.html#a52270c83adc7b5111fd5b794d1d2f99a" target="_top" xlink:title=" ">
<polygon fill="white" stroke="#666666" points="778.5,-94.25 664.25,-94.25 664.25,-75 778.5,-75 778.5,-94.25"/>
<text text-anchor="middle" x="721.38" y="-80.75" font-family="Helvetica,sans-Serif" font-size="10.00">MOVERS_NWSC_2O</text>
</a>
</g>
</g>
<!-- Node1&#45;&gt;Node12 -->
<g id="edge19_Node000001_Node000012" class="edge">
<title>Node1&#45;&gt;Node12</title>
<g id="a_edge19_Node000001_Node000012"><a xlink:title=" ">
<path fill="none" stroke="#63b8ff" d="M802.83,-84.62C794.76,-84.62 786.59,-84.62 778.71,-84.62"/>
<polygon fill="#63b8ff" stroke="#63b8ff" points="802.6,-88.13 812.6,-84.63 802.6,-81.13 802.6,-88.13"/>
</a>
</g>
</g>
<!-- Node13 -->
<g id="Node000013" class="node">
<title>Node13</title>
<g id="a_Node000013"><a xlink:href="../../d6/d22/_r_i_c_c_a_8cpp_a8c2c0508c9bf49dfb9aab35d82f560ce.html#a8c2c0508c9bf49dfb9aab35d82f560ce" target="_top" xlink:title="Computes the dissipative flux for a given cell and face using the second&#45;order RICCA method.">
<polygon fill="white" stroke="#666666" points="754.5,-57.25 688.25,-57.25 688.25,-38 754.5,-38 754.5,-57.25"/>
<text text-anchor="middle" x="721.38" y="-43.75" font-family="Helvetica,sans-Serif" font-size="10.00">RICCA_2O</text>
</a>
</g>
</g>
<!-- Node1&#45;&gt;Node13 -->
<g id="edge21_Node000001_Node000013" class="edge">
<title>Node1&#45;&gt;Node13</title>
<g id="a_edge21_Node000001_Node000013"><a xlink:title=" ">
<path fill="none" stroke="#63b8ff" d="M818.46,-71.73C797.27,-66.41 773.36,-60.42 754.7,-55.73"/>
<polygon fill="#63b8ff" stroke="#63b8ff" points="817.55,-75.11 828.1,-74.15 819.25,-68.32 817.55,-75.11"/>
</a>
</g>
</g>
<!-- Node3 -->
<g id="Node000003" class="node">
<title>Node3</title>
<g id="a_Node000003"><a xlink:href="../../d7/db1/_net___flux_8cpp_a4db2fe24c2a78f98ac91e9d7d271430f.html#a4db2fe24c2a78f98ac91e9d7d271430f" target="_top" xlink:title="Evaluates the net flux for each cell using a second&#45;order flux calculation method.">
<polygon fill="white" stroke="#666666" points="628.25,-94.25 488.5,-94.25 488.5,-75 628.25,-75 628.25,-94.25"/>
<text text-anchor="middle" x="558.38" y="-80.75" font-family="Helvetica,sans-Serif" font-size="10.00">Evaluate_Cell_Net_Flux_2O</text>
</a>
</g>
</g>
<!-- Node2&#45;&gt;Node3 -->
<g id="edge2_Node000002_Node000003" class="edge">
<title>Node2&#45;&gt;Node3</title>
<g id="a_edge2_Node000002_Node000003"><a xlink:title=" ">
<path fill="none" stroke="#63b8ff" d="M684.81,-113.45C660.76,-107.93 628.85,-100.59 603.22,-94.7"/>
<polygon fill="#63b8ff" stroke="#63b8ff" points="683.92,-116.84 694.45,-115.67 685.49,-110.02 683.92,-116.84"/>
</a>
</g>
</g>
<!-- Node4 -->
<g id="Node000004" class="node">
<title>Node4</title>
<g id="a_Node000004"><a xlink:href="../../db/dbe/_assemble___matrix_8cpp_a19cccc9540fb68aa18547238ebc80951.html#a19cccc9540fb68aa18547238ebc80951" target="_top" xlink:title=" ">
<polygon fill="white" stroke="#666666" points="298.88,-170.25 228.88,-170.25 228.88,-151 298.88,-151 298.88,-170.25"/>
<text text-anchor="middle" x="263.88" y="-156.75" font-family="Helvetica,sans-Serif" font-size="10.00">Assemble_b</text>
</a>
</g>
</g>
<!-- Node3&#45;&gt;Node4 -->
<g id="edge3_Node000003_Node000004" class="edge">
<title>Node3&#45;&gt;Node4</title>
<g id="a_edge3_Node000003_Node000004"><a xlink:title=" ">
<path fill="none" stroke="#63b8ff" d="M531.49,-100.51C510.86,-112.41 480.83,-128.06 452.5,-136.62 400.48,-152.36 337.3,-157.78 299.14,-159.65"/>
<polygon fill="#63b8ff" stroke="#63b8ff" points="533.23,-103.55 540.06,-95.46 529.67,-97.52 533.23,-103.55"/>
</a>
</g>
</g>
<!-- Node5 -->
<g id="Node000005" class="node">
<title>Node5</title>
<g id="a_Node000005"><a xlink:href="../../dd/dbf/_euler___python___wrapper_8cpp_ac5ccb50c3be270f798e054dd36987442.html#ac5ccb50c3be270f798e054dd36987442" target="_top" xlink:title=" ">
<polygon fill="white" stroke="#666666" points="185.75,-94.25 73,-94.25 73,-75 185.75,-75 185.75,-94.25"/>
<text text-anchor="middle" x="129.38" y="-80.75" font-family="Helvetica,sans-Serif" font-size="10.00">PYBIND11_MODULE</text>
</a>
</g>
</g>
<!-- Node3&#45;&gt;Node5 -->
<g id="edge13_Node000003_Node000005" class="edge">
<title>Node3&#45;&gt;Node5</title>
<g id="a_edge13_Node000003_Node000005"><a xlink:title=" ">
<path fill="none" stroke="#63b8ff" d="M500.64,-96.82C485.11,-99.63 468.22,-102.21 452.5,-103.62 350.33,-112.81 323.85,-108.54 221.75,-98.62 210.09,-97.49 197.65,-95.87 185.82,-94.12"/>
<polygon fill="#63b8ff" stroke="#63b8ff" points="501,-100.31 510.18,-95.02 499.71,-93.43 501,-100.31"/>
</a>
</g>
</g>
<!-- Node6 -->
<g id="Node000006" class="node">
<title>Node6</title>
<g id="a_Node000006"><a xlink:href="../../db/d38/_parallel___numerical___method_8cpp_a8dda0c7e17babab9b6e49e8e199dc30e.html#a8dda0c7e17babab9b6e49e8e199dc30e" target="_top" xlink:title=" ">
<polygon fill="white" stroke="#666666" points="440.12,-57.25 354.38,-57.25 354.38,-38 440.12,-38 440.12,-57.25"/>
<text text-anchor="middle" x="397.25" y="-43.75" font-family="Helvetica,sans-Serif" font-size="10.00">Explicit_Method</text>
</a>
</g>
</g>
<!-- Node3&#45;&gt;Node6 -->
<g id="edge5_Node000003_Node000006" class="edge">
<title>Node3&#45;&gt;Node6</title>
<g id="a_edge5_Node000003_Node000006"><a xlink:title=" ">
<path fill="none" stroke="#63b8ff" d="M502.87,-71.95C482.5,-67.21 459.69,-61.91 440.58,-57.47"/>
<polygon fill="#63b8ff" stroke="#63b8ff" points="501.89,-75.32 512.42,-74.17 503.47,-68.5 501.89,-75.32"/>
</a>
</g>
</g>
<!-- Node10 -->
<g id="Node000010" class="node">
<title>Node10</title>
<g id="a_Node000010"><a xlink:href="../../de/df0/_solver_8cpp_a2f37f06e8324a1ed6aa99efdbba81865.html#a2f37f06e8324a1ed6aa99efdbba81865" target="_top" xlink:title=" ">
<polygon fill="white" stroke="#666666" points="306,-19.25 221.75,-19.25 221.75,0 306,0 306,-19.25"/>
<text text-anchor="middle" x="263.88" y="-5.75" font-family="Helvetica,sans-Serif" font-size="10.00">Viscous_Solver</text>
</a>
</g>
</g>
<!-- Node3&#45;&gt;Node10 -->
<g id="edge18_Node000003_Node000010" class="edge">
<title>Node3&#45;&gt;Node10</title>
<g id="a_edge18_Node000003_Node000010"><a xlink:title=" ">
<path fill="none" stroke="#63b8ff" d="M533.44,-68.34C512.91,-55.25 482.06,-37.63 452.5,-28.62 403.8,-13.79 345.04,-9.97 306.4,-9.25"/>
<polygon fill="#63b8ff" stroke="#63b8ff" points="531.34,-71.15 541.63,-73.69 535.17,-65.29 531.34,-71.15"/>
</a>
</g>
</g>
<!-- Node11 -->
<g id="Node000011" class="node">
<title>Node11</title>
<g id="a_Node000011"><a xlink:href="../../d0/d64/_numerical___method_8cpp_a794f030971fbb7c9dd4bc08df03f50f1.html#a794f030971fbb7c9dd4bc08df03f50f1" target="_top" xlink:title=" ">
<polygon fill="white" stroke="#666666" points="452.5,-94.25 342,-94.25 342,-75 452.5,-75 452.5,-94.25"/>
<text text-anchor="middle" x="397.25" y="-80.75" font-family="Helvetica,sans-Serif" font-size="10.00">Runge_Kutta_Method</text>
</a>
</g>
</g>
<!-- Node3&#45;&gt;Node11 -->
<g id="edge14_Node000003_Node000011" class="edge">
<title>Node3&#45;&gt;Node11</title>
<g id="a_edge14_Node000003_Node000011"><a xlink:title=" ">
<path fill="none" stroke="#63b8ff" d="M476.56,-84.62C468.41,-84.62 460.29,-84.62 452.52,-84.62"/>
<polygon fill="#63b8ff" stroke="#63b8ff" points="476.53,-88.13 486.53,-84.63 476.53,-81.13 476.53,-88.13"/>
</a>
</g>
</g>
<!-- Node4&#45;&gt;Node5 -->
<g id="edge4_Node000004_Node000005" class="edge">
<title>Node4&#45;&gt;Node5</title>
<g id="a_edge4_Node000004_Node000005"><a xlink:title=" ">
<path fill="none" stroke="#63b8ff" d="M235.51,-144.93C209.1,-129.78 169.94,-107.32 147.62,-94.52"/>
<polygon fill="#63b8ff" stroke="#63b8ff" points="233.55,-147.84 243.97,-149.78 237.03,-141.77 233.55,-147.84"/>
</a>
</g>
</g>
<!-- Node7 -->
<g id="Node000007" class="node">
<title>Node7</title>
<g id="a_Node000007"><a xlink:href="../../de/df0/_solver_8cpp_ad0f49408a26339b5f7043bf867c3fa8d.html#ad0f49408a26339b5f7043bf867c3fa8d" target="_top" xlink:title=" ">
<polygon fill="white" stroke="#666666" points="305.25,-56.25 222.5,-56.25 222.5,-37 305.25,-37 305.25,-56.25"/>
<text text-anchor="middle" x="263.88" y="-42.75" font-family="Helvetica,sans-Serif" font-size="10.00">Inviscid_Solver</text>
</a>
</g>
</g>
<!-- Node6&#45;&gt;Node7 -->
<g id="edge6_Node000006_Node000007" class="edge">
<title>Node6&#45;&gt;Node7</title>
<g id="a_edge6_Node000006_Node000007"><a xlink:title=" ">
<path fill="none" stroke="#63b8ff" d="M342.82,-47.22C330.45,-47.12 317.48,-47.03 305.74,-46.94"/>
<polygon fill="#63b8ff" stroke="#63b8ff" points="342.42,-50.72 352.45,-47.29 342.47,-43.72 342.42,-50.72"/>
</a>
</g>
</g>
<!-- Node6&#45;&gt;Node10 -->
<g id="edge10_Node000006_Node000010" class="edge">
<title>Node6&#45;&gt;Node10</title>
<g id="a_edge10_Node000006_Node000010"><a xlink:title=" ">
<path fill="none" stroke="#63b8ff" d="M350.68,-34.44C333.87,-29.58 315.12,-24.16 299.44,-19.62"/>
<polygon fill="#63b8ff" stroke="#63b8ff" points="349.36,-37.7 359.93,-37.12 351.3,-30.98 349.36,-37.7"/>
</a>
</g>
</g>
<!-- Node7&#45;&gt;Node5 -->
<g id="edge7_Node000007_Node000005" class="edge">
<title>Node7&#45;&gt;Node5</title>
<g id="a_edge7_Node000007_Node000005"><a xlink:title=" ">
<path fill="none" stroke="#63b8ff" d="M216.91,-59.81C199.96,-64.67 181.05,-70.09 165.24,-74.63"/>
<polygon fill="#63b8ff" stroke="#63b8ff" points="217.61,-63.25 226.26,-57.13 215.68,-56.52 217.61,-63.25"/>
</a>
</g>
</g>
<!-- Node8 -->
<g id="Node000008" class="node">
<title>Node8</title>
<g id="a_Node000008"><a xlink:href="../../d5/d12/_main_8cpp_a35d775933750ace299102f06a1712663.html#a35d775933750ace299102f06a1712663" target="_top" xlink:title=" ">
<polygon fill="white" stroke="#666666" points="158,-38.25 100.75,-38.25 100.75,-19 158,-19 158,-38.25"/>
<text text-anchor="middle" x="129.38" y="-24.75" font-family="Helvetica,sans-Serif" font-size="10.00">runSolver</text>
</a>
</g>
</g>
<!-- Node7&#45;&gt;Node8 -->
<g id="edge8_Node000007_Node000008" class="edge">
<title>Node7&#45;&gt;Node8</title>
<g id="a_edge8_Node000007_Node000008"><a xlink:title=" ">
<path fill="none" stroke="#63b8ff" d="M210.83,-39.55C192.9,-37.12 173.53,-34.49 158.28,-32.42"/>
<polygon fill="#63b8ff" stroke="#63b8ff" points="210.16,-43 220.54,-40.87 211.1,-36.06 210.16,-43"/>
</a>
</g>
</g>
<!-- Node9 -->
<g id="Node000009" class="node">
<title>Node9</title>
<g id="a_Node000009"><a xlink:href="../../d5/d12/_main_8cpp_a0ddf1224851353fc92bfbff6f499fa97.html#a0ddf1224851353fc92bfbff6f499fa97" target="_top" xlink:title=" ">
<polygon fill="white" stroke="#666666" points="37,-38.25 0,-38.25 0,-19 37,-19 37,-38.25"/>
<text text-anchor="middle" x="18.5" y="-24.75" font-family="Helvetica,sans-Serif" font-size="10.00">main</text>
</a>
</g>
</g>
<!-- Node8&#45;&gt;Node9 -->
<g id="edge9_Node000008_Node000009" class="edge">
<title>Node8&#45;&gt;Node9</title>
<g id="a_edge9_Node000008_Node000009"><a xlink:title=" ">
<path fill="none" stroke="#63b8ff" d="M88.84,-28.62C71.14,-28.62 51.16,-28.62 37.22,-28.62"/>
<polygon fill="#63b8ff" stroke="#63b8ff" points="88.82,-32.13 98.82,-28.63 88.82,-25.13 88.82,-32.13"/>
</a>
</g>
</g>
<!-- Node10&#45;&gt;Node5 -->
<g id="edge11_Node000010_Node000005" class="edge">
<title>Node10&#45;&gt;Node5</title>
<g id="a_edge11_Node000010_Node000005"><a xlink:title=" ">
<path fill="none" stroke="#63b8ff" d="M227.82,-24.55C225.75,-25.56 223.71,-26.59 221.75,-27.62 193.63,-42.45 162.56,-62.72 144.86,-74.67"/>
<polygon fill="#63b8ff" stroke="#63b8ff" points="229.27,-27.74 236.87,-20.35 226.33,-21.39 229.27,-27.74"/>
</a>
</g>
</g>
<!-- Node10&#45;&gt;Node8 -->
<g id="edge12_Node000010_Node000008" class="edge">
<title>Node10&#45;&gt;Node8</title>
<g id="a_edge12_Node000010_Node000008"><a xlink:title=" ">
<path fill="none" stroke="#63b8ff" d="M209.97,-17.21C192.33,-19.74 173.37,-22.46 158.38,-24.61"/>
<polygon fill="#63b8ff" stroke="#63b8ff" points="210.41,-20.68 219.82,-15.8 209.42,-13.75 210.41,-20.68"/>
</a>
</g>
</g>
<!-- Node11&#45;&gt;Node5 -->
<g id="edge16_Node000011_Node000005" class="edge">
<title>Node11&#45;&gt;Node5</title>
<g id="a_edge16_Node000011_Node000005"><a xlink:title=" ">
<path fill="none" stroke="#63b8ff" d="M330.54,-84.62C286.17,-84.62 228.24,-84.62 186.12,-84.62"/>
<polygon fill="#63b8ff" stroke="#63b8ff" points="330.29,-88.13 340.29,-84.63 330.29,-81.13 330.29,-88.13"/>
</a>
</g>
</g>
<!-- Node11&#45;&gt;Node7 -->
<g id="edge15_Node000011_Node000007" class="edge">
<title>Node11&#45;&gt;Node7</title>
<g id="a_edge15_Node000011_Node000007"><a xlink:title=" ">
<path fill="none" stroke="#63b8ff" d="M350.68,-71.44C333.87,-66.58 315.12,-61.16 299.44,-56.62"/>
<polygon fill="#63b8ff" stroke="#63b8ff" points="349.36,-74.7 359.93,-74.12 351.3,-67.98 349.36,-74.7"/>
</a>
</g>
</g>
<!-- Node11&#45;&gt;Node10 -->
<g id="edge17_Node000011_Node000010" class="edge">
<title>Node11&#45;&gt;Node10</title>
<g id="a_edge17_Node000011_Node000010"><a xlink:title=" ">
<path fill="none" stroke="#63b8ff" d="M347.66,-69.93C345.71,-68.9 343.81,-67.79 342,-66.62 322.18,-53.84 325.21,-41.31 306,-27.62 301.81,-24.64 297.05,-22 292.29,-19.72"/>
<polygon fill="#63b8ff" stroke="#63b8ff" points="345.85,-72.95 356.4,-73.94 348.77,-66.59 345.85,-72.95"/>
</a>
</g>
</g>
<!-- Node12&#45;&gt;Node3 -->
<g id="edge20_Node000012_Node000003" class="edge">
<title>Node12&#45;&gt;Node3</title>
<g id="a_edge20_Node000012_Node000003"><a xlink:title=" ">
<path fill="none" stroke="#63b8ff" d="M652.62,-84.62C644.71,-84.62 636.62,-84.62 628.68,-84.62"/>
<polygon fill="#63b8ff" stroke="#63b8ff" points="652.55,-88.13 662.55,-84.63 652.55,-81.13 652.55,-88.13"/>
</a>
</g>
</g>
<!-- Node13&#45;&gt;Node3 -->
<g id="edge22_Node000013_Node000003" class="edge">
<title>Node13&#45;&gt;Node3</title>
<g id="a_edge22_Node000013_Node000003"><a xlink:title=" ">
<path fill="none" stroke="#63b8ff" d="M676.71,-57.66C653.89,-62.9 626.04,-69.3 603.2,-74.55"/>
<polygon fill="#63b8ff" stroke="#63b8ff" points="677.36,-61.1 686.32,-55.45 675.79,-54.28 677.36,-61.1"/>
</a>
</g>
</g>
</g>
</svg>
