<?xml version="1.0" encoding="UTF-8" standalone="no"?>
<!DOCTYPE svg PUBLIC "-//W3C//DTD SVG 1.1//EN"
 "http://www.w3.org/Graphics/SVG/1.1/DTD/svg11.dtd">
<!-- Generated by graphviz version 12.2.1 (20241206.2353)
 -->
<!-- Title: Directory_Name Pages: 1 -->
<svg width="630pt" height="605pt"
 viewBox="0.00 0.00 630.25 604.75" xmlns="http://www.w3.org/2000/svg" xmlns:xlink="http://www.w3.org/1999/xlink">
<g id="graph0" class="graph" transform="scale(1 1) rotate(0) translate(4 600.75)">
<title>Directory_Name</title>
<!-- Node1 -->
<g id="Node000001" class="node">
<title>Node1</title>
<g id="a_Node000001"><a xlink:title=" ">
<polygon fill="#999999" stroke="#666666" points="622.25,-312.25 535,-312.25 535,-293 622.25,-293 622.25,-312.25"/>
<text text-anchor="middle" x="578.62" y="-298.75" font-family="Helvetica,sans-Serif" font-size="10.00">Directory_Name</text>
</a>
</g>
</g>
<!-- Node2 -->
<g id="Node000002" class="node">
<title>Node2</title>
<g id="a_Node000002"><a xlink:href="../../d0/d3f/_channel___flow_8cpp_a986df1d2277d1fc7e22408557f29c135.html#a986df1d2277d1fc7e22408557f29c135" target="_top" xlink:title=" ">
<polygon fill="white" stroke="#666666" points="482.5,-590.25 404.25,-590.25 404.25,-571 482.5,-571 482.5,-590.25"/>
<text text-anchor="middle" x="443.38" y="-576.75" font-family="Helvetica,sans-Serif" font-size="10.00">Channel_Flow</text>
</a>
</g>
</g>
<!-- Node1&#45;&gt;Node2 -->
<g id="edge1_Node000001_Node000002" class="edge">
<title>Node1&#45;&gt;Node2</title>
<g id="a_edge1_Node000001_Node000002"><a xlink:title=" ">
<path fill="none" stroke="#63b8ff" d="M577.46,-324.05C575.92,-373.15 565.2,-494.77 499,-562.62 494.54,-567.2 488.89,-570.61 482.93,-573.16"/>
<polygon fill="#63b8ff" stroke="#63b8ff" points="580.96,-324.3 577.66,-314.23 573.96,-324.16 580.96,-324.3"/>
</a>
</g>
</g>
<!-- Node3 -->
<g id="Node000003" class="node">
<title>Node3</title>
<g id="a_Node000003"><a xlink:href="../../dd/dbf/_euler___python___wrapper_8cpp_ac5ccb50c3be270f798e054dd36987442.html#ac5ccb50c3be270f798e054dd36987442" target="_top" xlink:title=" ">
<polygon fill="white" stroke="#666666" points="185.75,-330.25 73,-330.25 73,-311 185.75,-311 185.75,-330.25"/>
<text text-anchor="middle" x="129.38" y="-316.75" font-family="Helvetica,sans-Serif" font-size="10.00">PYBIND11_MODULE</text>
</a>
</g>
</g>
<!-- Node1&#45;&gt;Node3 -->
<g id="edge19_Node000001_Node000003" class="edge">
<title>Node1&#45;&gt;Node3</title>
<g id="a_edge19_Node000001_Node000003"><a xlink:title=" ">
<path fill="none" stroke="#63b8ff" d="M551.97,-286.97C492.02,-252.54 338.96,-177.1 221.75,-226.62 180.45,-244.08 148.6,-290.33 136.12,-310.73"/>
<polygon fill="#63b8ff" stroke="#63b8ff" points="550.03,-289.89 560.42,-291.93 553.57,-283.85 550.03,-289.89"/>
</a>
</g>
</g>
<!-- Node7 -->
<g id="Node000007" class="node">
<title>Node7</title>
<g id="a_Node000007"><a xlink:href="../../d8/d62/_ellinga___test_case_8cpp_ae7167da7e4a13ec20ea77342a492b6ee.html#ae7167da7e4a13ec20ea77342a492b6ee" target="_top" xlink:title=" ">
<polygon fill="white" stroke="#666666" points="334.12,-142.25 239.38,-142.25 239.38,-123 334.12,-123 334.12,-142.25"/>
<text text-anchor="middle" x="286.75" y="-128.75" font-family="Helvetica,sans-Serif" font-size="10.00">Ellinga_Carbuncle</text>
</a>
</g>
</g>
<!-- Node1&#45;&gt;Node7 -->
<g id="edge7_Node000001_Node000007" class="edge">
<title>Node1&#45;&gt;Node7</title>
<g id="a_edge7_Node000001_Node000007"><a xlink:title=" ">
<path fill="none" stroke="#63b8ff" d="M572.45,-281.52C563.41,-249.59 541.55,-189.64 499,-160.62 450.25,-127.38 380.24,-124.69 334.39,-127.39"/>
<polygon fill="#63b8ff" stroke="#63b8ff" points="569.05,-282.39 575,-291.16 575.82,-280.6 569.05,-282.39"/>
</a>
</g>
</g>
<!-- Node8 -->
<g id="Node000008" class="node">
<title>Node8</title>
<g id="a_Node000008"><a xlink:href="../../de/d81/_flat___plate___boundary___layer_8cpp_a787b29de4053181d716a19e7c4c9b705.html#a787b29de4053181d716a19e7c4c9b705" target="_top" xlink:title=" ">
<polygon fill="white" stroke="#666666" points="340.12,-104.88 233.38,-104.88 233.38,-74.38 340.12,-74.38 340.12,-104.88"/>
<text text-anchor="start" x="241.38" y="-91.38" font-family="Helvetica,sans-Serif" font-size="10.00">Flat_Plate_Boundary</text>
<text text-anchor="middle" x="286.75" y="-80.12" font-family="Helvetica,sans-Serif" font-size="10.00">_Layer</text>
</a>
</g>
</g>
<!-- Node1&#45;&gt;Node8 -->
<g id="edge9_Node000001_Node000008" class="edge">
<title>Node1&#45;&gt;Node8</title>
<g id="a_edge9_Node000001_Node000008"><a xlink:title=" ">
<path fill="none" stroke="#63b8ff" d="M574.95,-281.76C568.88,-243.71 550.38,-163.36 499,-123.62 453.89,-88.74 386.93,-83.47 340.53,-84.84"/>
<polygon fill="#63b8ff" stroke="#63b8ff" points="571.45,-282.02 576.34,-291.42 578.38,-281.02 571.45,-282.02"/>
</a>
</g>
</g>
<!-- Node9 -->
<g id="Node000009" class="node">
<title>Node9</title>
<g id="a_Node000009"><a xlink:href="../../da/d4b/_flow___over___bump_8cpp_abaa8184c0dd8aa3fdc37d585f0a7d0cc.html#abaa8184c0dd8aa3fdc37d585f0a7d0cc" target="_top" xlink:title=" ">
<polygon fill="white" stroke="#666666" points="490.38,-553.25 396.38,-553.25 396.38,-534 490.38,-534 490.38,-553.25"/>
<text text-anchor="middle" x="443.38" y="-539.75" font-family="Helvetica,sans-Serif" font-size="10.00">Flow_Over_Bump</text>
</a>
</g>
</g>
<!-- Node1&#45;&gt;Node9 -->
<g id="edge11_Node000001_Node000009" class="edge">
<title>Node1&#45;&gt;Node9</title>
<g id="a_edge11_Node000001_Node000009"><a xlink:title=" ">
<path fill="none" stroke="#63b8ff" d="M576.2,-323.95C572.13,-367.9 556.65,-469.15 499,-525.62 495.79,-528.77 492.02,-531.36 487.99,-533.51"/>
<polygon fill="#63b8ff" stroke="#63b8ff" points="579.67,-324.47 576.98,-314.22 572.69,-323.91 579.67,-324.47"/>
</a>
</g>
</g>
<!-- Node10 -->
<g id="Node000010" class="node">
<title>Node10</title>
<g id="a_Node000010"><a xlink:href="../../dc/d8c/_forward___facing___step_8cpp_a5f68d17ee33caeda5da8c4270441108c.html#a5f68d17ee33caeda5da8c4270441108c" target="_top" xlink:title=" ">
<polygon fill="white" stroke="#666666" points="499,-516.25 387.75,-516.25 387.75,-497 499,-497 499,-516.25"/>
<text text-anchor="middle" x="443.38" y="-502.75" font-family="Helvetica,sans-Serif" font-size="10.00">Forward_Facing_Step</text>
</a>
</g>
</g>
<!-- Node1&#45;&gt;Node10 -->
<g id="edge14_Node000001_Node000010" class="edge">
<title>Node1&#45;&gt;Node10</title>
<g id="a_edge14_Node000001_Node000010"><a xlink:title=" ">
<path fill="none" stroke="#63b8ff" d="M574.55,-323.51C567.85,-361.73 548.34,-443.16 499,-488.62 495.55,-491.81 491.52,-494.42 487.25,-496.58"/>
<polygon fill="#63b8ff" stroke="#63b8ff" points="577.98,-324.25 576.12,-313.82 571.07,-323.13 577.98,-324.25"/>
</a>
</g>
</g>
<!-- Node11 -->
<g id="Node000011" class="node">
<title>Node11</title>
<g id="a_Node000011"><a xlink:href="../../de/dc4/_o_e_d_8cpp_a1404a4711dcead4c50dd9eaa2ab7b7c0.html#a1404a4711dcead4c50dd9eaa2ab7b7c0" target="_top" xlink:title=" ">
<polygon fill="white" stroke="#666666" points="305.62,-56.25 267.88,-56.25 267.88,-37 305.62,-37 305.62,-56.25"/>
<text text-anchor="middle" x="286.75" y="-42.75" font-family="Helvetica,sans-Serif" font-size="10.00">OED</text>
</a>
</g>
</g>
<!-- Node1&#45;&gt;Node11 -->
<g id="edge17_Node000001_Node000011" class="edge">
<title>Node1&#45;&gt;Node11</title>
<g id="a_edge17_Node000001_Node000011"><a xlink:title=" ">
<path fill="none" stroke="#63b8ff" d="M576.8,-281.48C573.84,-237.1 560.36,-134.12 499,-82.62 442.29,-35.03 346.09,-39.68 306.07,-44.11"/>
<polygon fill="#63b8ff" stroke="#63b8ff" points="573.29,-281.49 577.32,-291.29 580.28,-281.12 573.29,-281.49"/>
</a>
</g>
</g>
<!-- Node12 -->
<g id="Node000012" class="node">
<title>Node12</title>
<g id="a_Node000012"><a xlink:href="../../dd/de9/_ramp__15___degree_8cpp_af85931ed4e293dce5c8e4acafecd54b5.html#af85931ed4e293dce5c8e4acafecd54b5" target="_top" xlink:title=" ">
<polygon fill="white" stroke="#666666" points="490.75,-479.25 396,-479.25 396,-460 490.75,-460 490.75,-479.25"/>
<text text-anchor="middle" x="443.38" y="-465.75" font-family="Helvetica,sans-Serif" font-size="10.00">Ramp_15_Degree</text>
</a>
</g>
</g>
<!-- Node1&#45;&gt;Node12 -->
<g id="edge20_Node000001_Node000012" class="edge">
<title>Node1&#45;&gt;Node12</title>
<g id="a_edge20_Node000001_Node000012"><a xlink:title=" ">
<path fill="none" stroke="#63b8ff" d="M572.15,-323.34C562.63,-355.41 540,-416.97 499,-451.62 495.26,-454.78 490.96,-457.39 486.43,-459.55"/>
<polygon fill="#63b8ff" stroke="#63b8ff" points="575.42,-324.65 574.76,-314.07 568.68,-322.75 575.42,-324.65"/>
</a>
</g>
</g>
<!-- Node13 -->
<g id="Node000013" class="node">
<title>Node13</title>
<g id="a_Node000013"><a xlink:href="../../d2/d72/_scram___jet___inlet___test___case_8cpp_a49bbbeed352ab44d6248954f9d5391b0.html#a49bbbeed352ab44d6248954f9d5391b0" target="_top" xlink:title=" ">
<polygon fill="white" stroke="#666666" points="487,-442.25 399.75,-442.25 399.75,-423 487,-423 487,-442.25"/>
<text text-anchor="middle" x="443.38" y="-428.75" font-family="Helvetica,sans-Serif" font-size="10.00">Scram_Jet_Inlet</text>
</a>
</g>
</g>
<!-- Node1&#45;&gt;Node13 -->
<g id="edge23_Node000001_Node000013" class="edge">
<title>Node1&#45;&gt;Node13</title>
<g id="a_edge23_Node000001_Node000013"><a xlink:title=" ">
<path fill="none" stroke="#63b8ff" d="M568.51,-322.77C556.19,-347.8 531.92,-390.19 499,-414.62 494.75,-417.78 489.92,-420.4 484.93,-422.57"/>
<polygon fill="#63b8ff" stroke="#63b8ff" points="571.55,-324.52 572.67,-313.99 565.22,-321.53 571.55,-324.52"/>
</a>
</g>
</g>
<!-- Node14 -->
<g id="Node000014" class="node">
<title>Node14</title>
<g id="a_Node000014"><a xlink:href="../../d1/d48/_shock___bubble___interaction_8cpp_a4cb762eff7e59896e567775356bda66a.html#a4cb762eff7e59896e567775356bda66a" target="_top" xlink:title=" ">
<polygon fill="white" stroke="#666666" points="351.75,-19.25 221.75,-19.25 221.75,0 351.75,0 351.75,-19.25"/>
<text text-anchor="middle" x="286.75" y="-5.75" font-family="Helvetica,sans-Serif" font-size="10.00">Shock_Bubble_Interaction</text>
</a>
</g>
</g>
<!-- Node1&#45;&gt;Node14 -->
<g id="edge26_Node000001_Node000014" class="edge">
<title>Node1&#45;&gt;Node14</title>
<g id="a_edge26_Node000001_Node000014"><a xlink:title=" ">
<path fill="none" stroke="#63b8ff" d="M578.34,-281.13C578.76,-230.35 572.1,-102.54 499,-39.62 458.99,-5.19 398.07,0.21 351.91,-1.78"/>
<polygon fill="#63b8ff" stroke="#63b8ff" points="574.85,-280.96 578.14,-291.03 581.84,-281.1 574.85,-280.96"/>
</a>
</g>
</g>
<!-- Node15 -->
<g id="Node000015" class="node">
<title>Node15</title>
<g id="a_Node000015"><a xlink:href="../../d5/d9f/_shock___diffraction_8cpp_a464d43fab5d32cc9ecee800dfab8e5c8.html#a464d43fab5d32cc9ecee800dfab8e5c8" target="_top" xlink:title=" ">
<polygon fill="white" stroke="#666666" points="333.75,-292.25 239.75,-292.25 239.75,-273 333.75,-273 333.75,-292.25"/>
<text text-anchor="middle" x="286.75" y="-278.75" font-family="Helvetica,sans-Serif" font-size="10.00">Shock_Diffraction</text>
</a>
</g>
</g>
<!-- Node1&#45;&gt;Node15 -->
<g id="edge28_Node000001_Node000015" class="edge">
<title>Node1&#45;&gt;Node15</title>
<g id="a_edge28_Node000001_Node000015"><a xlink:title=" ">
<path fill="none" stroke="#63b8ff" d="M523.35,-298.88C468.75,-295.11 385.48,-289.37 333.95,-285.81"/>
<polygon fill="#63b8ff" stroke="#63b8ff" points="522.81,-302.35 533.03,-299.55 523.3,-295.37 522.81,-302.35"/>
</a>
</g>
</g>
<!-- Node16 -->
<g id="Node000016" class="node">
<title>Node16</title>
<g id="a_Node000016"><a xlink:href="../../d2/d58/_shock___reflection__2_d_8cpp_a286a95bfcac44ff19264008ffd9506ed.html#a286a95bfcac44ff19264008ffd9506ed" target="_top" xlink:title=" ">
<polygon fill="white" stroke="#666666" points="499,-405.25 387.75,-405.25 387.75,-386 499,-386 499,-405.25"/>
<text text-anchor="middle" x="443.38" y="-391.75" font-family="Helvetica,sans-Serif" font-size="10.00">Shock_Reflection_2D</text>
</a>
</g>
</g>
<!-- Node1&#45;&gt;Node16 -->
<g id="edge30_Node000001_Node000016" class="edge">
<title>Node1&#45;&gt;Node16</title>
<g id="a_edge30_Node000001_Node000016"><a xlink:title=" ">
<path fill="none" stroke="#63b8ff" d="M562.59,-321.06C547.94,-337.92 524.26,-362.48 499,-377.62 493.86,-380.71 488.13,-383.33 482.37,-385.55"/>
<polygon fill="#63b8ff" stroke="#63b8ff" points="564.98,-323.64 568.77,-313.75 559.64,-319.13 564.98,-323.64"/>
</a>
</g>
</g>
<!-- Node17 -->
<g id="Node000017" class="node">
<title>Node17</title>
<g id="a_Node000017"><a xlink:href="../../d6/d4f/_shock___tube__2_d_8cpp_a634f5b7cf63cab96d3b48ed0b4df6ad4.html#a634f5b7cf63cab96d3b48ed0b4df6ad4" target="_top" xlink:title=" ">
<polygon fill="white" stroke="#666666" points="487.75,-368.25 399,-368.25 399,-349 487.75,-349 487.75,-368.25"/>
<text text-anchor="middle" x="443.38" y="-354.75" font-family="Helvetica,sans-Serif" font-size="10.00">Shock_Tube_2D</text>
</a>
</g>
</g>
<!-- Node1&#45;&gt;Node17 -->
<g id="edge33_Node000001_Node000017" class="edge">
<title>Node1&#45;&gt;Node17</title>
<g id="a_edge33_Node000001_Node000017"><a xlink:title=" ">
<path fill="none" stroke="#63b8ff" d="M548.58,-317.8C533.92,-325.16 515.74,-333.86 499,-340.62 492.06,-343.43 484.49,-346.14 477.27,-348.56"/>
<polygon fill="#63b8ff" stroke="#63b8ff" points="549.89,-321.06 557.21,-313.4 546.71,-314.82 549.89,-321.06"/>
</a>
</g>
</g>
<!-- Node18 -->
<g id="Node000018" class="node">
<title>Node18</title>
<g id="a_Node000018"><a xlink:href="../../de/dda/_shock___wedge___reflection_8cpp_a951397acc5a124a5a006dbd5ae45029a.html#a951397acc5a124a5a006dbd5ae45029a" target="_top" xlink:title=" ">
<polygon fill="white" stroke="#666666" points="351,-255.25 222.5,-255.25 222.5,-236 351,-236 351,-255.25"/>
<text text-anchor="middle" x="286.75" y="-241.75" font-family="Helvetica,sans-Serif" font-size="10.00">Shock_Wedge_Reflection</text>
</a>
</g>
</g>
<!-- Node1&#45;&gt;Node18 -->
<g id="edge36_Node000001_Node000018" class="edge">
<title>Node1&#45;&gt;Node18</title>
<g id="a_edge36_Node000001_Node000018"><a xlink:title=" ">
<path fill="none" stroke="#63b8ff" d="M523.71,-290.78C515.44,-289.01 507,-287.25 499,-285.62 446.14,-274.91 385.65,-263.54 342.98,-255.68"/>
<polygon fill="#63b8ff" stroke="#63b8ff" points="522.83,-294.17 533.34,-292.84 524.3,-287.32 522.83,-294.17"/>
</a>
</g>
</g>
<!-- Node19 -->
<g id="Node000019" class="node">
<title>Node19</title>
<g id="a_Node000019"><a xlink:href="../../d8/d8f/_slip___flow__2_d_8cpp_a41030236ecf9b4d95159d7227a838eab.html#a41030236ecf9b4d95159d7227a838eab" target="_top" xlink:title=" ">
<polygon fill="white" stroke="#666666" points="481.75,-331.25 405,-331.25 405,-312 481.75,-312 481.75,-331.25"/>
<text text-anchor="middle" x="443.38" y="-317.75" font-family="Helvetica,sans-Serif" font-size="10.00">Slip_Flow_2D</text>
</a>
</g>
</g>
<!-- Node1&#45;&gt;Node19 -->
<g id="edge38_Node000001_Node000019" class="edge">
<title>Node1&#45;&gt;Node19</title>
<g id="a_edge38_Node000001_Node000019"><a xlink:title=" ">
<path fill="none" stroke="#63b8ff" d="M523.36,-310.36C509.56,-312.33 495.03,-314.4 482.24,-316.23"/>
<polygon fill="#63b8ff" stroke="#63b8ff" points="523.83,-313.83 533.23,-308.95 522.84,-306.9 523.83,-313.83"/>
</a>
</g>
</g>
<!-- Node20 -->
<g id="Node000020" class="node">
<title>Node20</title>
<g id="a_Node000020"><a xlink:href="../../d8/da5/_s_w_b_l_i_8cpp_aab1edbd94ae1737559f5140355148ed8.html#aab1edbd94ae1737559f5140355148ed8" target="_top" xlink:title=" ">
<polygon fill="white" stroke="#666666" points="310.5,-179.25 263,-179.25 263,-160 310.5,-160 310.5,-179.25"/>
<text text-anchor="middle" x="286.75" y="-165.75" font-family="Helvetica,sans-Serif" font-size="10.00">SWBLI</text>
</a>
</g>
</g>
<!-- Node1&#45;&gt;Node20 -->
<g id="edge41_Node000001_Node000020" class="edge">
<title>Node1&#45;&gt;Node20</title>
<g id="a_edge41_Node000001_Node000020"><a xlink:title=" ">
<path fill="none" stroke="#63b8ff" d="M569.26,-282.3C557.62,-256.84 533.93,-214.07 499,-193.62 438.63,-158.29 351.88,-162.12 310.89,-166.49"/>
<polygon fill="#63b8ff" stroke="#63b8ff" points="565.96,-283.48 573.16,-291.26 572.38,-280.69 565.96,-283.48"/>
</a>
</g>
</g>
<!-- Node2&#45;&gt;Node3 -->
<g id="edge2_Node000002_Node000003" class="edge">
<title>Node2&#45;&gt;Node3</title>
<g id="a_edge2_Node000002_Node000003"><a xlink:title=" ">
<path fill="none" stroke="#63b8ff" d="M392.69,-591.6C343.92,-599.32 270.02,-602.46 221.75,-564.62 180.93,-532.63 203.73,-502.27 185.75,-453.62 168.49,-406.94 144.6,-352.47 134.82,-330.53"/>
<polygon fill="#63b8ff" stroke="#63b8ff" points="393.16,-595.07 402.42,-589.93 391.97,-588.17 393.16,-595.07"/>
</a>
</g>
</g>
<!-- Node4 -->
<g id="Node000004" class="node">
<title>Node4</title>
<g id="a_Node000004"><a xlink:href="../../d0/de9/_configuration___read_8cpp_a32d98c169e6f866c6411c53d5758292e.html#a32d98c169e6f866c6411c53d5758292e" target="_top" xlink:title=" ">
<polygon fill="white" stroke="#666666" points="314.62,-482.25 258.88,-482.25 258.88,-463 314.62,-463 314.62,-482.25"/>
<text text-anchor="middle" x="286.75" y="-468.75" font-family="Helvetica,sans-Serif" font-size="10.00">testCase</text>
</a>
</g>
</g>
<!-- Node2&#45;&gt;Node4 -->
<g id="edge3_Node000002_Node000004" class="edge">
<title>Node2&#45;&gt;Node4</title>
<g id="a_edge3_Node000002_Node000004"><a xlink:title=" ">
<path fill="none" stroke="#63b8ff" d="M394.16,-566.01C391.96,-564.95 389.81,-563.82 387.75,-562.62 348.96,-540.13 312.1,-500.75 296.1,-482.47"/>
<polygon fill="#63b8ff" stroke="#63b8ff" points="392.78,-569.23 403.36,-569.93 395.53,-562.79 392.78,-569.23"/>
</a>
</g>
</g>
<!-- Node4&#45;&gt;Node3 -->
<g id="edge4_Node000004_Node000003" class="edge">
<title>Node4&#45;&gt;Node3</title>
<g id="a_edge4_Node000004_Node000003"><a xlink:title=" ">
<path fill="none" stroke="#63b8ff" d="M247.62,-462.53C238.59,-459.04 229.38,-454.48 221.75,-448.62 177.79,-414.87 146.09,-354.16 134.85,-330.47"/>
<polygon fill="#63b8ff" stroke="#63b8ff" points="246.4,-465.81 256.99,-465.77 248.69,-459.19 246.4,-465.81"/>
</a>
</g>
</g>
<!-- Node5 -->
<g id="Node000005" class="node">
<title>Node5</title>
<g id="a_Node000005"><a xlink:href="../../d5/d12/_main_8cpp_a35d775933750ace299102f06a1712663.html#a35d775933750ace299102f06a1712663" target="_top" xlink:title=" ">
<polygon fill="white" stroke="#666666" points="158,-482.25 100.75,-482.25 100.75,-463 158,-463 158,-482.25"/>
<text text-anchor="middle" x="129.38" y="-468.75" font-family="Helvetica,sans-Serif" font-size="10.00">runSolver</text>
</a>
</g>
</g>
<!-- Node4&#45;&gt;Node5 -->
<g id="edge5_Node000004_Node000005" class="edge">
<title>Node4&#45;&gt;Node5</title>
<g id="a_edge5_Node000004_Node000005"><a xlink:title=" ">
<path fill="none" stroke="#63b8ff" d="M247.48,-472.62C219.91,-472.62 183.33,-472.62 158.44,-472.62"/>
<polygon fill="#63b8ff" stroke="#63b8ff" points="247.17,-476.13 257.17,-472.63 247.17,-469.13 247.17,-476.13"/>
</a>
</g>
</g>
<!-- Node6 -->
<g id="Node000006" class="node">
<title>Node6</title>
<g id="a_Node000006"><a xlink:href="../../d5/d12/_main_8cpp_a0ddf1224851353fc92bfbff6f499fa97.html#a0ddf1224851353fc92bfbff6f499fa97" target="_top" xlink:title=" ">
<polygon fill="white" stroke="#666666" points="37,-482.25 0,-482.25 0,-463 37,-463 37,-482.25"/>
<text text-anchor="middle" x="18.5" y="-468.75" font-family="Helvetica,sans-Serif" font-size="10.00">main</text>
</a>
</g>
</g>
<!-- Node5&#45;&gt;Node6 -->
<g id="edge6_Node000005_Node000006" class="edge">
<title>Node5&#45;&gt;Node6</title>
<g id="a_edge6_Node000005_Node000006"><a xlink:title=" ">
<path fill="none" stroke="#63b8ff" d="M88.84,-472.62C71.14,-472.62 51.16,-472.62 37.22,-472.62"/>
<polygon fill="#63b8ff" stroke="#63b8ff" points="88.82,-476.13 98.82,-472.63 88.82,-469.13 88.82,-476.13"/>
</a>
</g>
</g>
<!-- Node7&#45;&gt;Node3 -->
<g id="edge8_Node000007_Node000003" class="edge">
<title>Node7&#45;&gt;Node3</title>
<g id="a_edge8_Node000007_Node000003"><a xlink:title=" ">
<path fill="none" stroke="#63b8ff" d="M228.94,-145.75C226.41,-147.2 224,-148.82 221.75,-150.62 166.59,-194.85 140.28,-281.66 132.74,-310.81"/>
<polygon fill="#63b8ff" stroke="#63b8ff" points="230.27,-148.99 237.79,-141.53 227.26,-142.67 230.27,-148.99"/>
</a>
</g>
</g>
<!-- Node8&#45;&gt;Node3 -->
<g id="edge10_Node000008_Node000003" class="edge">
<title>Node8&#45;&gt;Node3</title>
<g id="a_edge10_Node000008_Node000003"><a xlink:title=" ">
<path fill="none" stroke="#63b8ff" d="M223.69,-111.88C223.03,-112.45 222.38,-113.03 221.75,-113.62 160.35,-171.62 137.63,-278.21 131.93,-310.86"/>
<polygon fill="#63b8ff" stroke="#63b8ff" points="225.64,-114.79 231.77,-106.15 221.59,-109.08 225.64,-114.79"/>
</a>
</g>
</g>
<!-- Node9&#45;&gt;Node3 -->
<g id="edge12_Node000009_Node000003" class="edge">
<title>Node9&#45;&gt;Node3</title>
<g id="a_edge12_Node000009_Node000003"><a xlink:title=" ">
<path fill="none" stroke="#63b8ff" d="M395.31,-556.04C347.31,-565.79 272.85,-572.56 221.75,-537.62 220.57,-536.82 152.11,-372.76 134.48,-330.47"/>
<polygon fill="#63b8ff" stroke="#63b8ff" points="395.8,-559.52 404.83,-553.98 394.32,-552.68 395.8,-559.52"/>
</a>
</g>
</g>
<!-- Node9&#45;&gt;Node4 -->
<g id="edge13_Node000009_Node000004" class="edge">
<title>Node9&#45;&gt;Node4</title>
<g id="a_edge13_Node000009_Node000004"><a xlink:title=" ">
<path fill="none" stroke="#63b8ff" d="M398.16,-529.77C394.61,-528.44 391.1,-527.05 387.75,-525.62 357.56,-512.76 324.21,-494.13 304.66,-482.72"/>
<polygon fill="#63b8ff" stroke="#63b8ff" points="396.8,-533 407.4,-533.05 399.15,-526.41 396.8,-533"/>
</a>
</g>
</g>
<!-- Node10&#45;&gt;Node3 -->
<g id="edge15_Node000010_Node000003" class="edge">
<title>Node10&#45;&gt;Node3</title>
<g id="a_edge15_Node000010_Node000003"><a xlink:title=" ">
<path fill="none" stroke="#63b8ff" d="M403.04,-519.98C356.03,-533.35 276.82,-547.4 221.75,-512.62 204.62,-501.81 149.69,-368.39 134.37,-330.56"/>
<polygon fill="#63b8ff" stroke="#63b8ff" points="403.95,-523.36 412.53,-517.15 401.95,-516.66 403.95,-523.36"/>
</a>
</g>
</g>
<!-- Node10&#45;&gt;Node4 -->
<g id="edge16_Node000010_Node000004" class="edge">
<title>Node10&#45;&gt;Node4</title>
<g id="a_edge16_Node000010_Node000004"><a xlink:title=" ">
<path fill="none" stroke="#63b8ff" d="M385.23,-494.06C361.18,-488.77 334.34,-482.87 314.92,-478.6"/>
<polygon fill="#63b8ff" stroke="#63b8ff" points="384.4,-497.46 394.92,-496.19 385.91,-490.62 384.4,-497.46"/>
</a>
</g>
</g>
<!-- Node11&#45;&gt;Node3 -->
<g id="edge18_Node000011_Node000003" class="edge">
<title>Node11&#45;&gt;Node3</title>
<g id="a_edge18_Node000011_Node000003"><a xlink:title=" ">
<path fill="none" stroke="#63b8ff" d="M256.54,-49.47C244.46,-52 231.13,-56.75 221.75,-65.62 146.93,-136.4 133.25,-272.7 130.86,-310.62"/>
<polygon fill="#63b8ff" stroke="#63b8ff" points="256.76,-52.98 266.06,-47.9 255.63,-46.07 256.76,-52.98"/>
</a>
</g>
</g>
<!-- Node12&#45;&gt;Node3 -->
<g id="edge21_Node000012_Node000003" class="edge">
<title>Node12&#45;&gt;Node3</title>
<g id="a_edge21_Node000012_Node000003"><a xlink:title=" ">
<path fill="none" stroke="#63b8ff" d="M398.34,-482.54C383.66,-486.25 367.12,-489.79 351.75,-491.62 294.38,-498.49 271.31,-521.33 221.75,-491.62 190.57,-472.93 146.96,-364.05 134.09,-330.48"/>
<polygon fill="#63b8ff" stroke="#63b8ff" points="398.91,-486.01 407.69,-480.09 397.13,-479.24 398.91,-486.01"/>
</a>
</g>
</g>
<!-- Node12&#45;&gt;Node4 -->
<g id="edge22_Node000012_Node000004" class="edge">
<title>Node12&#45;&gt;Node4</title>
<g id="a_edge22_Node000012_Node000004"><a xlink:title=" ">
<path fill="none" stroke="#63b8ff" d="M384.17,-470.75C360.47,-471.21 334.2,-471.72 315.08,-472.09"/>
<polygon fill="#63b8ff" stroke="#63b8ff" points="384.12,-474.26 394.05,-470.56 383.98,-467.26 384.12,-474.26"/>
</a>
</g>
</g>
<!-- Node13&#45;&gt;Node3 -->
<g id="edge24_Node000013_Node000003" class="edge">
<title>Node13&#45;&gt;Node3</title>
<g id="a_edge24_Node000013_Node000003"><a xlink:title=" ">
<path fill="none" stroke="#63b8ff" d="M388.21,-426.51C342.41,-419.97 275.8,-407.19 221.75,-383.62 190.13,-369.84 158.06,-344.53 141.62,-330.55"/>
<polygon fill="#63b8ff" stroke="#63b8ff" points="387.51,-429.95 397.89,-427.84 388.46,-423.01 387.51,-429.95"/>
</a>
</g>
</g>
<!-- Node13&#45;&gt;Node4 -->
<g id="edge25_Node000013_Node000004" class="edge">
<title>Node13&#45;&gt;Node4</title>
<g id="a_edge25_Node000013_Node000004"><a xlink:title=" ">
<path fill="none" stroke="#63b8ff" d="M392.31,-445.58C366.65,-452.21 336.4,-460.04 315.06,-465.56"/>
<polygon fill="#63b8ff" stroke="#63b8ff" points="393.09,-448.99 401.89,-443.1 391.33,-442.21 393.09,-448.99"/>
</a>
</g>
</g>
<!-- Node14&#45;&gt;Node3 -->
<g id="edge27_Node000014_Node000003" class="edge">
<title>Node14&#45;&gt;Node3</title>
<g id="a_edge27_Node000014_Node000003"><a xlink:title=" ">
<path fill="none" stroke="#63b8ff" d="M223.3,-26.19C222.77,-26.66 222.25,-27.13 221.75,-27.62 137.13,-109.9 130.54,-269.15 130.3,-310.58"/>
<polygon fill="#63b8ff" stroke="#63b8ff" points="225.2,-29.14 231.46,-20.59 221.24,-23.36 225.2,-29.14"/>
</a>
</g>
</g>
<!-- Node15&#45;&gt;Node3 -->
<g id="edge29_Node000015_Node000003" class="edge">
<title>Node15&#45;&gt;Node3</title>
<g id="a_edge29_Node000015_Node000003"><a xlink:title=" ">
<path fill="none" stroke="#63b8ff" d="M233.59,-295.38C213.37,-300.33 190.56,-305.91 171.53,-310.56"/>
<polygon fill="#63b8ff" stroke="#63b8ff" points="234.17,-298.84 243.05,-293.07 232.5,-292.04 234.17,-298.84"/>
</a>
</g>
</g>
<!-- Node16&#45;&gt;Node3 -->
<g id="edge31_Node000016_Node000003" class="edge">
<title>Node16&#45;&gt;Node3</title>
<g id="a_edge31_Node000016_Node000003"><a xlink:title=" ">
<path fill="none" stroke="#63b8ff" d="M376.09,-387.44C331.87,-381.13 272.72,-371.01 221.75,-356.62 197.3,-349.72 170.36,-338.66 152.11,-330.62"/>
<polygon fill="#63b8ff" stroke="#63b8ff" points="375.4,-390.88 385.79,-388.8 376.37,-383.95 375.4,-390.88"/>
</a>
</g>
</g>
<!-- Node16&#45;&gt;Node4 -->
<g id="edge32_Node000016_Node000004" class="edge">
<title>Node16&#45;&gt;Node4</title>
<g id="a_edge32_Node000016_Node000004"><a xlink:title=" ">
<path fill="none" stroke="#63b8ff" d="M397.47,-409.55C394.15,-410.85 390.88,-412.21 387.75,-413.62 355.99,-428.03 321.49,-449.91 302.45,-462.58"/>
<polygon fill="#63b8ff" stroke="#63b8ff" points="398.53,-412.89 406.72,-406.17 396.12,-406.32 398.53,-412.89"/>
</a>
</g>
</g>
<!-- Node17&#45;&gt;Node3 -->
<g id="edge34_Node000017_Node000003" class="edge">
<title>Node17&#45;&gt;Node3</title>
<g id="a_edge34_Node000017_Node000003"><a xlink:title=" ">
<path fill="none" stroke="#63b8ff" d="M387.55,-353.81C342.84,-349.67 278.11,-343.18 221.75,-335.62 210.12,-334.07 197.69,-332.18 185.87,-330.27"/>
<polygon fill="#63b8ff" stroke="#63b8ff" points="386.96,-357.27 397.24,-354.7 387.6,-350.3 386.96,-357.27"/>
</a>
</g>
</g>
<!-- Node17&#45;&gt;Node4 -->
<g id="edge35_Node000017_Node000004" class="edge">
<title>Node17&#45;&gt;Node4</title>
<g id="a_edge35_Node000017_Node000004"><a xlink:title=" ">
<path fill="none" stroke="#63b8ff" d="M394,-373.21C391.85,-374.28 389.76,-375.42 387.75,-376.62 347.74,-400.7 310.94,-443.41 295.47,-462.7"/>
<polygon fill="#63b8ff" stroke="#63b8ff" points="395.22,-376.5 402.99,-369.3 392.42,-370.09 395.22,-376.5"/>
</a>
</g>
</g>
<!-- Node18&#45;&gt;Node3 -->
<g id="edge37_Node000018_Node000003" class="edge">
<title>Node18&#45;&gt;Node3</title>
<g id="a_edge37_Node000018_Node000003"><a xlink:title=" ">
<path fill="none" stroke="#63b8ff" d="M232.77,-259.24C229,-260.6 225.29,-262.06 221.75,-263.62 192.16,-276.69 160.83,-298.13 143.63,-310.66"/>
<polygon fill="#63b8ff" stroke="#63b8ff" points="233.67,-262.63 242.06,-256.15 231.46,-255.99 233.67,-262.63"/>
</a>
</g>
</g>
<!-- Node19&#45;&gt;Node3 -->
<g id="edge39_Node000019_Node000003" class="edge">
<title>Node19&#45;&gt;Node3</title>
<g id="a_edge39_Node000019_Node000003"><a xlink:title=" ">
<path fill="none" stroke="#63b8ff" d="M393.3,-321.47C337.02,-321.29 244.95,-320.99 186.04,-320.8"/>
<polygon fill="#63b8ff" stroke="#63b8ff" points="393.22,-324.97 403.23,-321.5 393.24,-317.97 393.22,-324.97"/>
</a>
</g>
</g>
<!-- Node19&#45;&gt;Node4 -->
<g id="edge40_Node000019_Node000004" class="edge">
<title>Node19&#45;&gt;Node4</title>
<g id="a_edge40_Node000019_Node000004"><a xlink:title=" ">
<path fill="none" stroke="#63b8ff" d="M394.59,-335.36C392.2,-336.66 389.91,-338.08 387.75,-339.62 339.86,-373.97 304.79,-438.04 292.52,-462.64"/>
<polygon fill="#63b8ff" stroke="#63b8ff" points="395.79,-338.66 403.39,-331.28 392.84,-332.31 395.79,-338.66"/>
</a>
</g>
</g>
<!-- Node20&#45;&gt;Node3 -->
<g id="edge42_Node000020_Node000003" class="edge">
<title>Node20&#45;&gt;Node3</title>
<g id="a_edge42_Node000020_Node000003"><a xlink:title=" ">
<path fill="none" stroke="#63b8ff" d="M251.94,-178.15C241.59,-181.81 230.61,-186.85 221.75,-193.62 178.17,-226.96 146.47,-286.76 135.04,-310.51"/>
<polygon fill="#63b8ff" stroke="#63b8ff" points="252.89,-181.53 261.36,-175.16 250.77,-174.85 252.89,-181.53"/>
</a>
</g>
</g>
</g>
</svg>
