<?xml version="1.0" encoding="UTF-8" standalone="no"?>
<!DOCTYPE svg PUBLIC "-//W3C//DTD SVG 1.1//EN"
 "http://www.w3.org/Graphics/SVG/1.1/DTD/svg11.dtd">
<!-- Generated by graphviz version 12.2.1 (20241206.2353)
 -->
<!-- Title: Shock_Reflection_2D Pages: 1 -->
<svg width="681pt" height="346pt"
 viewBox="0.00 0.00 680.95 345.50" xmlns="http://www.w3.org/2000/svg" xmlns:xlink="http://www.w3.org/1999/xlink">
<g id="graph0" class="graph" transform="scale(1 1) rotate(0) translate(4 341.5)">
<title>Shock_Reflection_2D</title>
<!-- Node1 -->
<g id="Node000001" class="node">
<title>Node1</title>
<g id="a_Node000001"><a xlink:title=" ">
<polygon fill="#999999" stroke="#666666" points="111.25,-183.88 0,-183.88 0,-164.62 111.25,-164.62 111.25,-183.88"/>
<text text-anchor="middle" x="55.62" y="-170.38" font-family="Helvetica,sans-Serif" font-size="10.00">Shock_Reflection_2D</text>
</a>
</g>
</g>
<!-- Node2 -->
<g id="Node000002" class="node">
<title>Node2</title>
<g id="a_Node000002"><a xlink:href="../../df/d43/_basic___functions_8cpp_a9ca12fb8f920cab38313323cf0c4bf53.html#a9ca12fb8f920cab38313323cf0c4bf53" target="_top" xlink:title=" ">
<polygon fill="white" stroke="#666666" points="272.75,-337.5 147.25,-337.5 147.25,-307 272.75,-307 272.75,-337.5"/>
<text text-anchor="start" x="155.25" y="-324" font-family="Helvetica,sans-Serif" font-size="10.00">Calculate_Computational</text>
<text text-anchor="middle" x="210" y="-312.75" font-family="Helvetica,sans-Serif" font-size="10.00">_Variables</text>
</a>
</g>
</g>
<!-- Node1&#45;&gt;Node2 -->
<g id="edge1_Node000001_Node000002" class="edge">
<title>Node1&#45;&gt;Node2</title>
<g id="a_edge1_Node000001_Node000002"><a xlink:title=" ">
<path fill="none" stroke="#63b8ff" d="M61.55,-184.31C73.29,-207.37 105.14,-264.55 147.25,-297.25 148.96,-298.58 150.76,-299.85 152.61,-301.06"/>
<polygon fill="#63b8ff" stroke="#63b8ff" points="150.55,-303.91 160.96,-305.87 154.04,-297.85 150.55,-303.91"/>
</a>
</g>
</g>
<!-- Node3 -->
<g id="Node000003" class="node">
<title>Node3</title>
<g id="a_Node000003"><a xlink:href="../../df/d43/_basic___functions_8cpp_a1c199e756f8458978961b4d9ab4cbe63.html#a1c199e756f8458978961b4d9ab4cbe63" target="_top" xlink:title=" ">
<polygon fill="white" stroke="#666666" points="260.38,-288.5 159.62,-288.5 159.62,-258 260.38,-258 260.38,-288.5"/>
<text text-anchor="start" x="167.62" y="-275" font-family="Helvetica,sans-Serif" font-size="10.00">Calculate_Primitive</text>
<text text-anchor="middle" x="210" y="-263.75" font-family="Helvetica,sans-Serif" font-size="10.00">_Variables</text>
</a>
</g>
</g>
<!-- Node1&#45;&gt;Node3 -->
<g id="edge2_Node000001_Node000003" class="edge">
<title>Node1&#45;&gt;Node3</title>
<g id="a_edge2_Node000001_Node000003"><a xlink:title=" ">
<path fill="none" stroke="#63b8ff" d="M66.41,-184.19C82.21,-199.8 114.85,-230.22 147.25,-249.25 149.26,-250.43 151.35,-251.58 153.48,-252.69"/>
<polygon fill="#63b8ff" stroke="#63b8ff" points="151.79,-255.76 162.32,-256.93 154.82,-249.45 151.79,-255.76"/>
</a>
</g>
</g>
<!-- Node5 -->
<g id="Node000005" class="node">
<title>Node5</title>
<g id="a_Node000005"><a xlink:href="../../da/d3e/output__files_8cpp_ac7e61b153a6d26ffbefde7b5b86d55a7.html#ac7e61b153a6d26ffbefde7b5b86d55a7" target="_top" xlink:title=" ">
<polygon fill="white" stroke="#666666" points="253.62,-239.88 166.38,-239.88 166.38,-220.62 253.62,-220.62 253.62,-239.88"/>
<text text-anchor="middle" x="210" y="-226.38" font-family="Helvetica,sans-Serif" font-size="10.00">Directory_Name</text>
</a>
</g>
</g>
<!-- Node1&#45;&gt;Node5 -->
<g id="edge4_Node000001_Node000005" class="edge">
<title>Node1&#45;&gt;Node5</title>
<g id="a_edge4_Node000001_Node000005"><a xlink:title=" ">
<path fill="none" stroke="#63b8ff" d="M78.7,-184.33C96.88,-192.44 123.45,-203.82 147.25,-212.25 151.69,-213.82 156.34,-215.37 161.02,-216.85"/>
<polygon fill="#63b8ff" stroke="#63b8ff" points="159.85,-220.15 170.44,-219.73 161.9,-213.45 159.85,-220.15"/>
</a>
</g>
</g>
<!-- Node6 -->
<g id="Node000006" class="node">
<title>Node6</title>
<g id="a_Node000006"><a xlink:href="../../da/d3e/output__files_8cpp_a2a6bf38afe949ce5a6cd1b3641c49c25.html#a2a6bf38afe949ce5a6cd1b3641c49c25" target="_top" xlink:title=" ">
<polygon fill="white" stroke="#666666" points="241.62,-202.88 178.38,-202.88 178.38,-183.62 241.62,-183.62 241.62,-202.88"/>
<text text-anchor="middle" x="210" y="-189.38" font-family="Helvetica,sans-Serif" font-size="10.00">File_Name</text>
</a>
</g>
</g>
<!-- Node1&#45;&gt;Node6 -->
<g id="edge5_Node000001_Node000006" class="edge">
<title>Node1&#45;&gt;Node6</title>
<g id="a_edge5_Node000001_Node000006"><a xlink:title=" ">
<path fill="none" stroke="#63b8ff" d="M111.64,-181.11C129.78,-183.37 149.67,-185.85 166.71,-187.98"/>
<polygon fill="#63b8ff" stroke="#63b8ff" points="166.15,-191.43 176.5,-189.2 167.01,-184.49 166.15,-191.43"/>
</a>
</g>
</g>
<!-- Node7 -->
<g id="Node000007" class="node">
<title>Node7</title>
<g id="a_Node000007"><a xlink:href="../../d8/d40/_grid___computations_8cpp_a831dcf7cbf36ddf425ce0753495ba3c6.html#a831dcf7cbf36ddf425ce0753495ba3c6" target="_top" xlink:title=" ">
<polygon fill="white" stroke="#666666" points="243.12,-165.88 176.88,-165.88 176.88,-146.62 243.12,-146.62 243.12,-165.88"/>
<text text-anchor="middle" x="210" y="-152.38" font-family="Helvetica,sans-Serif" font-size="10.00">Form_Cells</text>
</a>
</g>
</g>
<!-- Node1&#45;&gt;Node7 -->
<g id="edge6_Node000001_Node000007" class="edge">
<title>Node1&#45;&gt;Node7</title>
<g id="a_edge6_Node000001_Node000007"><a xlink:title=" ">
<path fill="none" stroke="#63b8ff" d="M111.64,-167.75C129.37,-165.66 148.76,-163.37 165.54,-161.38"/>
<polygon fill="#63b8ff" stroke="#63b8ff" points="165.66,-164.89 175.18,-160.24 164.84,-157.94 165.66,-164.89"/>
</a>
</g>
</g>
<!-- Node19 -->
<g id="Node000019" class="node">
<title>Node19</title>
<g id="a_Node000019"><a xlink:href="../../d7/d6d/_initialize_8cpp_ad59ff1b23c73f6427e8179ce53ee1f59.html#ad59ff1b23c73f6427e8179ce53ee1f59" target="_top" xlink:title=" ">
<polygon fill="white" stroke="#666666" points="428.62,-79.5 309.88,-79.5 309.88,-49 428.62,-49 428.62,-79.5"/>
<text text-anchor="start" x="317.88" y="-66" font-family="Helvetica,sans-Serif" font-size="10.00">Identify_Wall_Boundary</text>
<text text-anchor="middle" x="369.25" y="-54.75" font-family="Helvetica,sans-Serif" font-size="10.00">_Faces</text>
</a>
</g>
</g>
<!-- Node1&#45;&gt;Node19 -->
<g id="edge21_Node000001_Node000019" class="edge">
<title>Node1&#45;&gt;Node19</title>
<g id="a_edge21_Node000001_Node000019"><a xlink:title=" ">
<path fill="none" stroke="#63b8ff" d="M79.92,-164.22C98.13,-156.51 124.13,-145.78 147.25,-137.25 200.55,-117.59 261.96,-97.51 306.49,-83.4"/>
<polygon fill="#63b8ff" stroke="#63b8ff" points="307.51,-86.75 316,-80.4 305.41,-80.07 307.51,-86.75"/>
</a>
</g>
</g>
<!-- Node20 -->
<g id="Node000020" class="node">
<title>Node20</title>
<g id="a_Node000020"><a xlink:href="../../d7/d6d/_initialize_8cpp_acc3c3292e370176c51c654a01e651e24.html#acc3c3292e370176c51c654a01e651e24" target="_top" xlink:title=" ">
<polygon fill="white" stroke="#666666" points="236,-77.88 184,-77.88 184,-58.62 236,-58.62 236,-77.88"/>
<text text-anchor="middle" x="210" y="-64.38" font-family="Helvetica,sans-Serif" font-size="10.00">Initialize</text>
</a>
</g>
</g>
<!-- Node1&#45;&gt;Node20 -->
<g id="edge22_Node000001_Node000020" class="edge">
<title>Node1&#45;&gt;Node20</title>
<g id="a_edge22_Node000001_Node000020"><a xlink:title=" ">
<path fill="none" stroke="#63b8ff" d="M66.2,-164.35C81.97,-148.45 114.88,-116.92 147.25,-96.25 155.29,-91.12 164.43,-86.43 173.17,-82.41"/>
<polygon fill="#63b8ff" stroke="#63b8ff" points="174.38,-85.7 182.13,-78.48 171.57,-79.29 174.38,-85.7"/>
</a>
</g>
</g>
<!-- Node23 -->
<g id="Node000023" class="node">
<title>Node23</title>
<g id="a_Node000023"><a xlink:href="../../da/d3e/output__files_8cpp_ac49d22b87cab7fa46da37546b7af78b0.html#ac49d22b87cab7fa46da37546b7af78b0" target="_top" xlink:title=" ">
<polygon fill="white" stroke="#666666" points="249.5,-40.88 170.5,-40.88 170.5,-21.62 249.5,-21.62 249.5,-40.88"/>
<text text-anchor="middle" x="210" y="-27.38" font-family="Helvetica,sans-Serif" font-size="10.00">Write_Solution</text>
</a>
</g>
</g>
<!-- Node1&#45;&gt;Node23 -->
<g id="edge26_Node000001_Node000023" class="edge">
<title>Node1&#45;&gt;Node23</title>
<g id="a_edge26_Node000001_Node000023"><a xlink:title=" ">
<path fill="none" stroke="#63b8ff" d="M60.95,-164.42C71.84,-140.82 102.76,-80.58 147.25,-49.25 151.1,-46.54 155.36,-44.23 159.79,-42.27"/>
<polygon fill="#63b8ff" stroke="#63b8ff" points="160.78,-45.63 168.9,-38.82 158.31,-39.09 160.78,-45.63"/>
</a>
</g>
</g>
<!-- Node4 -->
<g id="Node000004" class="node">
<title>Node4</title>
<g id="a_Node000004"><a xlink:href="../../df/d43/_basic___functions_8cpp_ae9dc3225863fb110155bb3e9dea4e4d3.html#ae9dc3225863fb110155bb3e9dea4e4d3" target="_top" xlink:title=" ">
<polygon fill="white" stroke="#666666" points="397.5,-314.88 341,-314.88 341,-295.62 397.5,-295.62 397.5,-314.88"/>
<text text-anchor="middle" x="369.25" y="-301.38" font-family="Helvetica,sans-Serif" font-size="10.00">Viscosity</text>
</a>
</g>
</g>
<!-- Node3&#45;&gt;Node4 -->
<g id="edge3_Node000003_Node000004" class="edge">
<title>Node3&#45;&gt;Node4</title>
<g id="a_edge3_Node000003_Node000004"><a xlink:title=" ">
<path fill="none" stroke="#63b8ff" d="M260.75,-283.38C282.97,-287.9 308.76,-293.14 329.51,-297.37"/>
<polygon fill="#63b8ff" stroke="#63b8ff" points="328.79,-300.79 339.29,-299.36 330.18,-293.93 328.79,-300.79"/>
</a>
</g>
</g>
<!-- Node8 -->
<g id="Node000008" class="node">
<title>Node8</title>
<g id="a_Node000008"><a xlink:href="../../d8/d40/_grid___computations_8cpp_a7e6f11445e90cefdcb91f369846ec691.html#a7e6f11445e90cefdcb91f369846ec691" target="_top" xlink:title=" ">
<polygon fill="white" stroke="#666666" points="426.38,-128.5 312.12,-128.5 312.12,-98 426.38,-98 426.38,-128.5"/>
<text text-anchor="start" x="320.12" y="-115" font-family="Helvetica,sans-Serif" font-size="10.00">Calculate_Cell_Center</text>
<text text-anchor="middle" x="369.25" y="-103.75" font-family="Helvetica,sans-Serif" font-size="10.00">_Distances</text>
</a>
</g>
</g>
<!-- Node7&#45;&gt;Node8 -->
<g id="edge7_Node000007_Node000008" class="edge">
<title>Node7&#45;&gt;Node8</title>
<g id="a_edge7_Node000007_Node000008"><a xlink:title=" ">
<path fill="none" stroke="#63b8ff" d="M243.58,-147.34C260.21,-142.79 281.07,-137.09 300.94,-131.65"/>
<polygon fill="#63b8ff" stroke="#63b8ff" points="301.67,-135.08 310.39,-129.07 299.82,-128.33 301.67,-135.08"/>
</a>
</g>
</g>
<!-- Node11 -->
<g id="Node000011" class="node">
<title>Node11</title>
<g id="a_Node000011"><a xlink:href="../../d8/d40/_grid___computations_8cpp_a209db16fba143a9833c8d4021624afb0.html#a209db16fba143a9833c8d4021624afb0" target="_top" xlink:title=" ">
<polygon fill="white" stroke="#666666" points="567.62,-165.88 495.38,-165.88 495.38,-146.62 567.62,-146.62 567.62,-165.88"/>
<text text-anchor="middle" x="531.5" y="-152.38" font-family="Helvetica,sans-Serif" font-size="10.00">Check_Cells</text>
</a>
</g>
</g>
<!-- Node7&#45;&gt;Node11 -->
<g id="edge11_Node000007_Node000011" class="edge">
<title>Node7&#45;&gt;Node11</title>
<g id="a_edge11_Node000007_Node000011"><a xlink:title=" ">
<path fill="none" stroke="#63b8ff" d="M243.39,-156.25C300.26,-156.25 418.24,-156.25 483.88,-156.25"/>
<polygon fill="#63b8ff" stroke="#63b8ff" points="483.6,-159.75 493.6,-156.25 483.6,-152.75 483.6,-159.75"/>
</a>
</g>
</g>
<!-- Node12 -->
<g id="Node000012" class="node">
<title>Node12</title>
<g id="a_Node000012"><a xlink:href="../../df/daf/_co___volume___grid___computations_8cpp_a097cceef075e862683dd9f6e95d091d4.html#a097cceef075e862683dd9f6e95d091d4" target="_top" xlink:title=" ">
<polygon fill="white" stroke="#666666" points="429.38,-277.88 309.12,-277.88 309.12,-258.62 429.38,-258.62 429.38,-277.88"/>
<text text-anchor="middle" x="369.25" y="-264.38" font-family="Helvetica,sans-Serif" font-size="10.00">Construct_Co_Volumes</text>
</a>
</g>
</g>
<!-- Node7&#45;&gt;Node12 -->
<g id="edge12_Node000007_Node000012" class="edge">
<title>Node7&#45;&gt;Node12</title>
<g id="a_edge12_Node000007_Node000012"><a xlink:title=" ">
<path fill="none" stroke="#63b8ff" d="M243.33,-160.32C253.65,-162.94 264.51,-167.22 272.75,-174.25 301.19,-198.5 280.43,-225.86 308.75,-250.25 309.67,-251.04 310.62,-251.8 311.61,-252.52"/>
<polygon fill="#63b8ff" stroke="#63b8ff" points="309.43,-255.3 319.82,-257.41 313.01,-249.29 309.43,-255.3"/>
</a>
</g>
</g>
<!-- Node15 -->
<g id="Node000015" class="node">
<title>Node15</title>
<g id="a_Node000015"><a xlink:href="../../d8/d40/_grid___computations_8cpp_ae5f2b7a0fdbc48f8fdf897222b7ded04.html#ae5f2b7a0fdbc48f8fdf897222b7ded04" target="_top" xlink:title=" ">
<polygon fill="white" stroke="#666666" points="428.25,-240.88 310.25,-240.88 310.25,-221.62 428.25,-221.62 428.25,-240.88"/>
<text text-anchor="middle" x="369.25" y="-227.38" font-family="Helvetica,sans-Serif" font-size="10.00">Construct_Ghost_Cells</text>
</a>
</g>
</g>
<!-- Node7&#45;&gt;Node15 -->
<g id="edge15_Node000007_Node000015" class="edge">
<title>Node7&#45;&gt;Node15</title>
<g id="a_edge15_Node000007_Node000015"><a xlink:title=" ">
<path fill="none" stroke="#63b8ff" d="M243.48,-162.2C253.36,-164.91 263.92,-168.78 272.75,-174.25 292.8,-186.67 288.76,-200.73 308.75,-213.25 310.64,-214.43 312.61,-215.54 314.63,-216.58"/>
<polygon fill="#63b8ff" stroke="#63b8ff" points="313.17,-219.76 323.73,-220.6 316,-213.36 313.17,-219.76"/>
</a>
</g>
</g>
<!-- Node17 -->
<g id="Node000017" class="node">
<title>Node17</title>
<g id="a_Node000017"><a xlink:href="../../d8/d40/_grid___computations_8cpp_a663d4b3ae06e638c2f2e82ad437e831e.html#a663d4b3ae06e638c2f2e82ad437e831e" target="_top" xlink:title="Reads the input grid file and constructs physical cells, evaluates face areas, normals,...">
<polygon fill="white" stroke="#666666" points="400.5,-203.88 338,-203.88 338,-184.62 400.5,-184.62 400.5,-203.88"/>
<text text-anchor="middle" x="369.25" y="-190.38" font-family="Helvetica,sans-Serif" font-size="10.00">Read_Grid</text>
</a>
</g>
</g>
<!-- Node7&#45;&gt;Node17 -->
<g id="edge17_Node000007_Node000017" class="edge">
<title>Node7&#45;&gt;Node17</title>
<g id="a_edge17_Node000007_Node000017"><a xlink:title=" ">
<path fill="none" stroke="#63b8ff" d="M243.58,-164.12C267.64,-169.94 300.58,-177.9 326.56,-184.17"/>
<polygon fill="#63b8ff" stroke="#63b8ff" points="325.57,-187.54 336.11,-186.48 327.21,-180.73 325.57,-187.54"/>
</a>
</g>
</g>
<!-- Node9 -->
<g id="Node000009" class="node">
<title>Node9</title>
<g id="a_Node000009"><a xlink:href="../../d8/d40/_grid___computations_8cpp_a1f273579608200866e02e34f16a3eb6b.html#a1f273579608200866e02e34f16a3eb6b" target="_top" xlink:title=" ">
<polygon fill="white" stroke="#666666" points="597.25,-122.88 465.75,-122.88 465.75,-103.62 597.25,-103.62 597.25,-122.88"/>
<text text-anchor="middle" x="531.5" y="-109.38" font-family="Helvetica,sans-Serif" font-size="10.00">Distance_Between_Points</text>
</a>
</g>
</g>
<!-- Node8&#45;&gt;Node9 -->
<g id="edge8_Node000008_Node000009" class="edge">
<title>Node8&#45;&gt;Node9</title>
<g id="a_edge8_Node000008_Node000009"><a xlink:title=" ">
<path fill="none" stroke="#63b8ff" d="M426.75,-113.25C435.65,-113.25 444.99,-113.25 454.25,-113.25"/>
<polygon fill="#63b8ff" stroke="#63b8ff" points="453.97,-116.75 463.97,-113.25 453.97,-109.75 453.97,-116.75"/>
</a>
</g>
</g>
<!-- Node10 -->
<g id="Node000010" class="node">
<title>Node10</title>
<g id="a_Node000010"><a xlink:href="../../d8/d40/_grid___computations_8cpp_a079a3910785ad86cffe119a8e3d6a0d4.html#a079a3910785ad86cffe119a8e3d6a0d4" target="_top" xlink:title=" ">
<polygon fill="white" stroke="#666666" points="669.5,-122.88 633.25,-122.88 633.25,-103.62 669.5,-103.62 669.5,-122.88"/>
<text text-anchor="middle" x="651.38" y="-109.38" font-family="Helvetica,sans-Serif" font-size="10.00">Print</text>
</a>
</g>
</g>
<!-- Node9&#45;&gt;Node10 -->
<g id="edge9_Node000009_Node000010" class="edge">
<title>Node9&#45;&gt;Node10</title>
<g id="a_edge9_Node000009_Node000010"><a xlink:title=" ">
<path fill="none" stroke="#63b8ff" d="M597.64,-113.25C605.97,-113.25 614.12,-113.25 621.44,-113.25"/>
<polygon fill="#63b8ff" stroke="#63b8ff" points="621.32,-116.75 631.32,-113.25 621.32,-109.75 621.32,-116.75"/>
</a>
</g>
</g>
<!-- Node10&#45;&gt;Node10 -->
<g id="edge10_Node000010_Node000010" class="edge">
<title>Node10&#45;&gt;Node10</title>
<g id="a_edge10_Node000010_Node000010"><a xlink:title=" ">
<path fill="none" stroke="#63b8ff" d="M632.9,-122.88C623.91,-131.57 630.07,-140.88 651.38,-140.88 663.36,-140.88 670.55,-137.93 672.95,-133.81"/>
<polygon fill="#63b8ff" stroke="#63b8ff" points="676.36,-133 670.26,-124.33 669.63,-134.91 676.36,-133"/>
</a>
</g>
</g>
<!-- Node13 -->
<g id="Node000013" class="node">
<title>Node13</title>
<g id="a_Node000013"><a xlink:href="../../d8/d40/_grid___computations_8cpp_a0d19b951f556ac7a935819a38d2e1a6f.html#a0d19b951f556ac7a935819a38d2e1a6f" target="_top" xlink:title=" ">
<polygon fill="white" stroke="#666666" points="574.38,-277.88 488.62,-277.88 488.62,-258.62 574.38,-258.62 574.38,-277.88"/>
<text text-anchor="middle" x="531.5" y="-264.38" font-family="Helvetica,sans-Serif" font-size="10.00">Construct_Face</text>
</a>
</g>
</g>
<!-- Node12&#45;&gt;Node13 -->
<g id="edge13_Node000012_Node000013" class="edge">
<title>Node12&#45;&gt;Node13</title>
<g id="a_edge13_Node000012_Node000013"><a xlink:title=" ">
<path fill="none" stroke="#63b8ff" d="M429.47,-268.25C445.1,-268.25 461.87,-268.25 477.17,-268.25"/>
<polygon fill="#63b8ff" stroke="#63b8ff" points="477.02,-271.75 487.02,-268.25 477.02,-264.75 477.02,-271.75"/>
</a>
</g>
</g>
<!-- Node14 -->
<g id="Node000014" class="node">
<title>Node14</title>
<g id="a_Node000014"><a xlink:href="../../d8/d40/_grid___computations_8cpp_a29418163b6fbd0aa81c60026e430d0b8.html#a29418163b6fbd0aa81c60026e430d0b8" target="_top" xlink:title=" ">
<polygon fill="white" stroke="#666666" points="593.88,-314.88 469.12,-314.88 469.12,-295.62 593.88,-295.62 593.88,-314.88"/>
<text text-anchor="middle" x="531.5" y="-301.38" font-family="Helvetica,sans-Serif" font-size="10.00">Evaluate_Cross_Product</text>
</a>
</g>
</g>
<!-- Node12&#45;&gt;Node14 -->
<g id="edge14_Node000012_Node000014" class="edge">
<title>Node12&#45;&gt;Node14</title>
<g id="a_edge14_Node000012_Node000014"><a xlink:title=" ">
<path fill="none" stroke="#63b8ff" d="M414.04,-278.36C433.03,-282.75 455.47,-287.93 475.57,-292.57"/>
<polygon fill="#63b8ff" stroke="#63b8ff" points="474.76,-295.97 485.29,-294.81 476.33,-289.15 474.76,-295.97"/>
</a>
</g>
</g>
<!-- Node16 -->
<g id="Node000016" class="node">
<title>Node16</title>
<g id="a_Node000016"><a xlink:href="../../d8/d40/_grid___computations_8cpp_a2d284e26ddef582519953e8b8300184e.html#a2d284e26ddef582519953e8b8300184e" target="_top" xlink:title=" ">
<polygon fill="white" stroke="#666666" points="572.12,-240.88 490.88,-240.88 490.88,-221.62 572.12,-221.62 572.12,-240.88"/>
<text text-anchor="middle" x="531.5" y="-227.38" font-family="Helvetica,sans-Serif" font-size="10.00">Construct_Cell</text>
</a>
</g>
</g>
<!-- Node15&#45;&gt;Node16 -->
<g id="edge16_Node000015_Node000016" class="edge">
<title>Node15&#45;&gt;Node16</title>
<g id="a_edge16_Node000015_Node000016"><a xlink:title=" ">
<path fill="none" stroke="#63b8ff" d="M428.56,-231.25C445.12,-231.25 463.03,-231.25 479.15,-231.25"/>
<polygon fill="#63b8ff" stroke="#63b8ff" points="479.01,-234.75 489.01,-231.25 479.01,-227.75 479.01,-234.75"/>
</a>
</g>
</g>
<!-- Node17&#45;&gt;Node11 -->
<g id="edge18_Node000017_Node000011" class="edge">
<title>Node17&#45;&gt;Node11</title>
<g id="a_edge18_Node000017_Node000011"><a xlink:title=" ">
<path fill="none" stroke="#63b8ff" d="M400.77,-187.01C424.29,-181.44 457.21,-173.63 484,-167.28"/>
<polygon fill="#63b8ff" stroke="#63b8ff" points="484.67,-170.71 493.59,-165 483.06,-163.9 484.67,-170.71"/>
</a>
</g>
</g>
<!-- Node17&#45;&gt;Node16 -->
<g id="edge19_Node000017_Node000016" class="edge">
<title>Node17&#45;&gt;Node16</title>
<g id="a_edge19_Node000017_Node000016"><a xlink:title=" ">
<path fill="none" stroke="#63b8ff" d="M400.77,-201.3C422.92,-206.41 453.41,-213.45 479.26,-219.42"/>
<polygon fill="#63b8ff" stroke="#63b8ff" points="478.39,-222.81 488.92,-221.65 479.96,-215.99 478.39,-222.81"/>
</a>
</g>
</g>
<!-- Node18 -->
<g id="Node000018" class="node">
<title>Node18</title>
<g id="a_Node000018"><a xlink:href="../../d8/d40/_grid___computations_8cpp_aa376223dcb91990013ac6549090115ea.html#aa376223dcb91990013ac6549090115ea" target="_top" xlink:title=" ">
<polygon fill="white" stroke="#666666" points="580.75,-203.88 482.25,-203.88 482.25,-184.62 580.75,-184.62 580.75,-203.88"/>
<text text-anchor="middle" x="531.5" y="-190.38" font-family="Helvetica,sans-Serif" font-size="10.00">Conversion_Factor</text>
</a>
</g>
</g>
<!-- Node17&#45;&gt;Node18 -->
<g id="edge20_Node000017_Node000018" class="edge">
<title>Node17&#45;&gt;Node18</title>
<g id="a_edge20_Node000017_Node000018"><a xlink:title=" ">
<path fill="none" stroke="#63b8ff" d="M400.77,-194.25C420.44,-194.25 446.67,-194.25 470.41,-194.25"/>
<polygon fill="#63b8ff" stroke="#63b8ff" points="470.3,-197.75 480.3,-194.25 470.3,-190.75 470.3,-197.75"/>
</a>
</g>
</g>
<!-- Node20&#45;&gt;Node19 -->
<g id="edge25_Node000020_Node000019" class="edge">
<title>Node20&#45;&gt;Node19</title>
<g id="a_edge25_Node000020_Node000019"><a xlink:title=" ">
<path fill="none" stroke="#63b8ff" d="M236.26,-67.61C253.05,-67.18 275.97,-66.6 298.01,-66.04"/>
<polygon fill="#63b8ff" stroke="#63b8ff" points="297.99,-69.54 307.9,-65.79 297.81,-62.54 297.99,-69.54"/>
</a>
</g>
</g>
<!-- Node21 -->
<g id="Node000021" class="node">
<title>Node21</title>
<g id="a_Node000021"><a xlink:href="../../d4/d5d/_grid___refine___functions_8cpp_add867401ba6818c3d6480ec342cb0eaa.html#add867401ba6818c3d6480ec342cb0eaa" target="_top" xlink:title="Identifies the secondary neighbors of a given cell to evaluate second gradients.">
<polygon fill="white" stroke="#666666" points="429.75,-30.5 308.75,-30.5 308.75,0 429.75,0 429.75,-30.5"/>
<text text-anchor="start" x="316.75" y="-17" font-family="Helvetica,sans-Serif" font-size="10.00">Identify_Neighbours</text>
<text text-anchor="middle" x="369.25" y="-5.75" font-family="Helvetica,sans-Serif" font-size="10.00">_For_Second_Gradients</text>
</a>
</g>
</g>
<!-- Node20&#45;&gt;Node21 -->
<g id="edge23_Node000020_Node000021" class="edge">
<title>Node20&#45;&gt;Node21</title>
<g id="a_edge23_Node000020_Node000021"><a xlink:title=" ">
<path fill="none" stroke="#63b8ff" d="M236.36,-61.28C247.56,-58.09 260.87,-54.15 272.75,-50.25 287.19,-45.51 302.71,-40 316.96,-34.77"/>
<polygon fill="#63b8ff" stroke="#63b8ff" points="317.98,-38.13 326.15,-31.37 315.55,-31.56 317.98,-38.13"/>
</a>
</g>
</g>
<!-- Node22 -->
<g id="Node000022" class="node">
<title>Node22</title>
<g id="a_Node000022"><a xlink:href="../../d3/dd4/_gradients_8cpp_a841d8b51ae49ac6ee37c9246228c1f89.html#a841d8b51ae49ac6ee37c9246228c1f89" target="_top" xlink:title="Identifies the secondary neighbors of a given cell to evaluate second gradients.">
<polygon fill="white" stroke="#666666" points="568.38,-24.88 494.62,-24.88 494.62,-5.63 568.38,-5.63 568.38,-24.88"/>
<text text-anchor="middle" x="531.5" y="-11.38" font-family="Helvetica,sans-Serif" font-size="10.00">getNeighbour</text>
</a>
</g>
</g>
<!-- Node21&#45;&gt;Node22 -->
<g id="edge24_Node000021_Node000022" class="edge">
<title>Node21&#45;&gt;Node22</title>
<g id="a_edge24_Node000021_Node000022"><a xlink:title=" ">
<path fill="none" stroke="#63b8ff" d="M429.92,-15.25C447.56,-15.25 466.62,-15.25 483.36,-15.25"/>
<polygon fill="#63b8ff" stroke="#63b8ff" points="483.01,-18.75 493.01,-15.25 483.01,-11.75 483.01,-18.75"/>
</a>
</g>
</g>
</g>
</svg>
