<?xml version="1.0" encoding="UTF-8" standalone="no"?>
<!DOCTYPE svg PUBLIC "-//W3C//DTD SVG 1.1//EN"
 "http://www.w3.org/Graphics/SVG/1.1/DTD/svg11.dtd">
<!-- Generated by graphviz version 12.2.1 (20241206.2353)
 -->
<!-- Title: readInitialConditions Pages: 1 -->
<svg width="564pt" height="96pt"
 viewBox="0.00 0.00 563.50 95.61" xmlns="http://www.w3.org/2000/svg" xmlns:xlink="http://www.w3.org/1999/xlink">
<g id="graph0" class="graph" transform="scale(1 1) rotate(0) translate(4 91.61)">
<title>readInitialConditions</title>
<!-- Node1 -->
<g id="Node000001" class="node">
<title>Node1</title>
<g id="a_Node000001"><a xlink:title=" ">
<polygon fill="#999999" stroke="#666666" points="555.5,-67.61 451,-67.61 451,-48.36 555.5,-48.36 555.5,-67.61"/>
<text text-anchor="middle" x="503.25" y="-54.11" font-family="Helvetica,sans-Serif" font-size="10.00">readInitialConditions</text>
</a>
</g>
</g>
<!-- Node2 -->
<g id="Node000002" class="node">
<title>Node2</title>
<g id="a_Node000002"><a xlink:href="../../d0/d3f/_channel___flow_8cpp_a986df1d2277d1fc7e22408557f29c135.html#a986df1d2277d1fc7e22408557f29c135" target="_top" xlink:title=" ">
<polygon fill="white" stroke="#666666" points="403.38,-30.61 325.12,-30.61 325.12,-11.36 403.38,-11.36 403.38,-30.61"/>
<text text-anchor="middle" x="364.25" y="-17.11" font-family="Helvetica,sans-Serif" font-size="10.00">Channel_Flow</text>
</a>
</g>
</g>
<!-- Node1&#45;&gt;Node2 -->
<g id="edge1_Node000001_Node000002" class="edge">
<title>Node1&#45;&gt;Node2</title>
<g id="a_edge1_Node000001_Node000002"><a xlink:title=" ">
<path fill="none" stroke="#63b8ff" d="M454.04,-44.96C437.17,-40.4 418.49,-35.36 402.64,-31.08"/>
<polygon fill="#63b8ff" stroke="#63b8ff" points="452.79,-48.25 463.35,-47.48 454.61,-41.49 452.79,-48.25"/>
</a>
</g>
</g>
<!-- Node6 -->
<g id="Node000006" class="node">
<title>Node6</title>
<g id="a_Node000006"><a xlink:href="../../d5/d12/_main_8cpp_a0ddf1224851353fc92bfbff6f499fa97.html#a0ddf1224851353fc92bfbff6f499fa97" target="_top" xlink:title=" ">
<polygon fill="white" stroke="#666666" points="37,-87.61 0,-87.61 0,-68.36 37,-68.36 37,-87.61"/>
<text text-anchor="middle" x="18.5" y="-74.11" font-family="Helvetica,sans-Serif" font-size="10.00">main</text>
</a>
</g>
</g>
<!-- Node1&#45;&gt;Node6 -->
<g id="edge10_Node000001_Node000006" class="edge">
<title>Node1&#45;&gt;Node6</title>
<g id="a_edge10_Node000001_Node000006"><a xlink:title=" ">
<path fill="none" stroke="#63b8ff" d="M453.25,-70.54C440.85,-73.2 427.51,-75.61 415,-76.98 269.96,-92.91 93.2,-83.08 37.31,-79.28"/>
<polygon fill="#63b8ff" stroke="#63b8ff" points="453.84,-74 462.84,-68.39 452.31,-67.16 453.84,-74"/>
</a>
</g>
</g>
<!-- Node7 -->
<g id="Node000007" class="node">
<title>Node7</title>
<g id="a_Node000007"><a xlink:href="../../df/dee/_half___cylinder___test___case_8cpp_ad6cb651752c2dd1cb946428572cfb769.html#ad6cb651752c2dd1cb946428572cfb769" target="_top" xlink:title=" ">
<polygon fill="white" stroke="#666666" points="415,-67.61 313.5,-67.61 313.5,-48.36 415,-48.36 415,-67.61"/>
<text text-anchor="middle" x="364.25" y="-54.11" font-family="Helvetica,sans-Serif" font-size="10.00">Half_Cylinder_Flow</text>
</a>
</g>
</g>
<!-- Node1&#45;&gt;Node7 -->
<g id="edge7_Node000001_Node000007" class="edge">
<title>Node1&#45;&gt;Node7</title>
<g id="a_edge7_Node000001_Node000007"><a xlink:title=" ">
<path fill="none" stroke="#63b8ff" d="M439.44,-57.98C431.29,-57.98 423.03,-57.98 415.12,-57.98"/>
<polygon fill="#63b8ff" stroke="#63b8ff" points="439.33,-61.48 449.33,-57.98 439.33,-54.48 439.33,-61.48"/>
</a>
</g>
</g>
<!-- Node3 -->
<g id="Node000003" class="node">
<title>Node3</title>
<g id="a_Node000003"><a xlink:href="../../dd/dbf/_euler___python___wrapper_8cpp_ac5ccb50c3be270f798e054dd36987442.html#ac5ccb50c3be270f798e054dd36987442" target="_top" xlink:title=" ">
<polygon fill="white" stroke="#666666" points="185.75,-30.61 73,-30.61 73,-11.36 185.75,-11.36 185.75,-30.61"/>
<text text-anchor="middle" x="129.38" y="-17.11" font-family="Helvetica,sans-Serif" font-size="10.00">PYBIND11_MODULE</text>
</a>
</g>
</g>
<!-- Node2&#45;&gt;Node3 -->
<g id="edge2_Node000002_Node000003" class="edge">
<title>Node2&#45;&gt;Node3</title>
<g id="a_edge2_Node000002_Node000003"><a xlink:title=" ">
<path fill="none" stroke="#63b8ff" d="M315.1,-8.38C302.92,-5.73 289.8,-3.33 277.5,-1.98 252.87,0.71 246.4,0.55 221.75,-1.98 204.66,-3.74 186.06,-7.3 170.13,-10.87"/>
<polygon fill="#63b8ff" stroke="#63b8ff" points="313.97,-11.72 324.5,-10.53 315.53,-4.89 313.97,-11.72"/>
</a>
</g>
</g>
<!-- Node4 -->
<g id="Node000004" class="node">
<title>Node4</title>
<g id="a_Node000004"><a xlink:href="../../d0/de9/_configuration___read_8cpp_a32d98c169e6f866c6411c53d5758292e.html#a32d98c169e6f866c6411c53d5758292e" target="_top" xlink:title=" ">
<polygon fill="white" stroke="#666666" points="277.5,-30.61 221.75,-30.61 221.75,-11.36 277.5,-11.36 277.5,-30.61"/>
<text text-anchor="middle" x="249.62" y="-17.11" font-family="Helvetica,sans-Serif" font-size="10.00">testCase</text>
</a>
</g>
</g>
<!-- Node2&#45;&gt;Node4 -->
<g id="edge3_Node000002_Node000004" class="edge">
<title>Node2&#45;&gt;Node4</title>
<g id="a_edge3_Node000002_Node000004"><a xlink:title=" ">
<path fill="none" stroke="#63b8ff" d="M313.33,-20.98C301.14,-20.98 288.56,-20.98 277.89,-20.98"/>
<polygon fill="#63b8ff" stroke="#63b8ff" points="313.29,-24.48 323.29,-20.98 313.29,-17.48 313.29,-24.48"/>
</a>
</g>
</g>
<!-- Node4&#45;&gt;Node3 -->
<g id="edge4_Node000004_Node000003" class="edge">
<title>Node4&#45;&gt;Node3</title>
<g id="a_edge4_Node000004_Node000003"><a xlink:title=" ">
<path fill="none" stroke="#63b8ff" d="M210.19,-20.98C202.41,-20.98 194.08,-20.98 185.85,-20.98"/>
<polygon fill="#63b8ff" stroke="#63b8ff" points="209.98,-24.48 219.98,-20.98 209.98,-17.48 209.98,-24.48"/>
</a>
</g>
</g>
<!-- Node5 -->
<g id="Node000005" class="node">
<title>Node5</title>
<g id="a_Node000005"><a xlink:href="../../d5/d12/_main_8cpp_a35d775933750ace299102f06a1712663.html#a35d775933750ace299102f06a1712663" target="_top" xlink:title=" ">
<polygon fill="white" stroke="#666666" points="158,-68.61 100.75,-68.61 100.75,-49.36 158,-49.36 158,-68.61"/>
<text text-anchor="middle" x="129.38" y="-55.11" font-family="Helvetica,sans-Serif" font-size="10.00">runSolver</text>
</a>
</g>
</g>
<!-- Node4&#45;&gt;Node5 -->
<g id="edge5_Node000004_Node000005" class="edge">
<title>Node4&#45;&gt;Node5</title>
<g id="a_edge5_Node000004_Node000005"><a xlink:title=" ">
<path fill="none" stroke="#63b8ff" d="M210.74,-33.16C193.67,-38.64 173.87,-45 158.2,-50.04"/>
<polygon fill="#63b8ff" stroke="#63b8ff" points="211.61,-36.55 220.06,-30.16 209.46,-29.89 211.61,-36.55"/>
</a>
</g>
</g>
<!-- Node5&#45;&gt;Node6 -->
<g id="edge6_Node000005_Node000006" class="edge">
<title>Node5&#45;&gt;Node6</title>
<g id="a_edge6_Node000005_Node000006"><a xlink:title=" ">
<path fill="none" stroke="#63b8ff" d="M89.09,-65.84C71.33,-68.94 51.23,-72.44 37.22,-74.89"/>
<polygon fill="#63b8ff" stroke="#63b8ff" points="89.6,-69.3 98.85,-64.14 88.39,-62.41 89.6,-69.3"/>
</a>
</g>
</g>
<!-- Node7&#45;&gt;Node3 -->
<g id="edge8_Node000007_Node000003" class="edge">
<title>Node7&#45;&gt;Node3</title>
<g id="a_edge8_Node000007_Node000003"><a xlink:title=" ">
<path fill="none" stroke="#63b8ff" d="M301.87,-51.24C276.94,-48.22 247.91,-44.36 221.75,-39.98 206.57,-37.44 190.07,-34.17 175.32,-31.06"/>
<polygon fill="#63b8ff" stroke="#63b8ff" points="301.17,-54.68 311.51,-52.38 301.99,-47.73 301.17,-54.68"/>
</a>
</g>
</g>
<!-- Node7&#45;&gt;Node4 -->
<g id="edge9_Node000007_Node000004" class="edge">
<title>Node7&#45;&gt;Node4</title>
<g id="a_edge9_Node000007_Node000004"><a xlink:title=" ">
<path fill="none" stroke="#63b8ff" d="M321.66,-44.32C307.05,-39.52 291.03,-34.26 277.91,-29.94"/>
<polygon fill="#63b8ff" stroke="#63b8ff" points="320.44,-47.6 331.04,-47.4 322.63,-40.95 320.44,-47.6"/>
</a>
</g>
</g>
</g>
</svg>
