<?xml version="1.0" encoding="UTF-8" standalone="no"?>
<!DOCTYPE svg PUBLIC "-//W3C//DTD SVG 1.1//EN"
 "http://www.w3.org/Graphics/SVG/1.1/DTD/svg11.dtd">
<!-- Generated by graphviz version 12.2.1 (20241206.2353)
 -->
<!-- Title: SWBLI Pages: 1 -->
<svg width="618pt" height="472pt"
 viewBox="0.00 0.00 618.02 472.25" xmlns="http://www.w3.org/2000/svg" xmlns:xlink="http://www.w3.org/1999/xlink">
<g id="graph0" class="graph" transform="scale(1 1) rotate(0) translate(4 468.25)">
<title>SWBLI</title>
<!-- Node1 -->
<g id="Node000001" class="node">
<title>Node1</title>
<g id="a_Node000001"><a xlink:title=" ">
<polygon fill="#999999" stroke="#666666" points="47.5,-207.25 0,-207.25 0,-188 47.5,-188 47.5,-207.25"/>
<text text-anchor="middle" x="23.75" y="-193.75" font-family="Helvetica,sans-Serif" font-size="10.00">SWBLI</text>
</a>
</g>
</g>
<!-- Node2 -->
<g id="Node000002" class="node">
<title>Node2</title>
<g id="a_Node000002"><a xlink:href="../../df/d43/_basic___functions_8cpp_a9ca12fb8f920cab38313323cf0c4bf53.html#a9ca12fb8f920cab38313323cf0c4bf53" target="_top" xlink:title=" ">
<polygon fill="white" stroke="#666666" points="209,-428.88 83.5,-428.88 83.5,-398.38 209,-398.38 209,-428.88"/>
<text text-anchor="start" x="91.5" y="-415.38" font-family="Helvetica,sans-Serif" font-size="10.00">Calculate_Computational</text>
<text text-anchor="middle" x="146.25" y="-404.12" font-family="Helvetica,sans-Serif" font-size="10.00">_Variables</text>
</a>
</g>
</g>
<!-- Node1&#45;&gt;Node2 -->
<g id="edge1_Node000001_Node000002" class="edge">
<title>Node1&#45;&gt;Node2</title>
<g id="a_edge1_Node000001_Node000002"><a xlink:title=" ">
<path fill="none" stroke="#63b8ff" d="M24.94,-207.37C26.05,-238.11 33.55,-334.17 83.5,-388.62 84.22,-389.41 84.96,-390.17 85.74,-390.9"/>
<polygon fill="#63b8ff" stroke="#63b8ff" points="83.57,-393.66 93.63,-397 87.86,-388.12 83.57,-393.66"/>
</a>
</g>
</g>
<!-- Node3 -->
<g id="Node000003" class="node">
<title>Node3</title>
<g id="a_Node000003"><a xlink:href="../../df/d43/_basic___functions_8cpp_a1c199e756f8458978961b4d9ab4cbe63.html#a1c199e756f8458978961b4d9ab4cbe63" target="_top" xlink:title=" ">
<polygon fill="white" stroke="#666666" points="196.62,-379.88 95.88,-379.88 95.88,-349.38 196.62,-349.38 196.62,-379.88"/>
<text text-anchor="start" x="103.88" y="-366.38" font-family="Helvetica,sans-Serif" font-size="10.00">Calculate_Primitive</text>
<text text-anchor="middle" x="146.25" y="-355.12" font-family="Helvetica,sans-Serif" font-size="10.00">_Variables</text>
</a>
</g>
</g>
<!-- Node1&#45;&gt;Node3 -->
<g id="edge2_Node000001_Node000003" class="edge">
<title>Node1&#45;&gt;Node3</title>
<g id="a_edge2_Node000001_Node000003"><a xlink:title=" ">
<path fill="none" stroke="#63b8ff" d="M26.08,-207.43C30.04,-232.9 44.03,-301.9 83.5,-340.62 84.38,-341.49 85.3,-342.33 86.25,-343.13"/>
<polygon fill="#63b8ff" stroke="#63b8ff" points="84.04,-345.86 94.24,-348.75 88.07,-340.14 84.04,-345.86"/>
</a>
</g>
</g>
<!-- Node5 -->
<g id="Node000005" class="node">
<title>Node5</title>
<g id="a_Node000005"><a xlink:href="../../da/d3e/output__files_8cpp_ac7e61b153a6d26ffbefde7b5b86d55a7.html#ac7e61b153a6d26ffbefde7b5b86d55a7" target="_top" xlink:title=" ">
<polygon fill="white" stroke="#666666" points="189.88,-331.25 102.62,-331.25 102.62,-312 189.88,-312 189.88,-331.25"/>
<text text-anchor="middle" x="146.25" y="-317.75" font-family="Helvetica,sans-Serif" font-size="10.00">Directory_Name</text>
</a>
</g>
</g>
<!-- Node1&#45;&gt;Node5 -->
<g id="edge4_Node000001_Node000005" class="edge">
<title>Node1&#45;&gt;Node5</title>
<g id="a_edge4_Node000001_Node000005"><a xlink:title=" ">
<path fill="none" stroke="#63b8ff" d="M27.57,-207.66C33.96,-228.53 51.49,-276.76 83.5,-302.62 86.08,-304.71 88.88,-306.56 91.82,-308.21"/>
<polygon fill="#63b8ff" stroke="#63b8ff" points="90.34,-311.38 100.88,-312.44 93.3,-305.04 90.34,-311.38"/>
</a>
</g>
</g>
<!-- Node6 -->
<g id="Node000006" class="node">
<title>Node6</title>
<g id="a_Node000006"><a xlink:href="../../df/d36/_wall___boundary___conditions_8cpp_a5d9a0b19b8197154141a02ed0e831e26.html#a5d9a0b19b8197154141a02ed0e831e26" target="_top" xlink:title=" ">
<polygon fill="white" stroke="#666666" points="197.75,-293.88 94.75,-293.88 94.75,-263.38 197.75,-263.38 197.75,-293.88"/>
<text text-anchor="start" x="102.75" y="-280.38" font-family="Helvetica,sans-Serif" font-size="10.00">Evaluate_Wall_Skin</text>
<text text-anchor="middle" x="146.25" y="-269.12" font-family="Helvetica,sans-Serif" font-size="10.00">_Friction</text>
</a>
</g>
</g>
<!-- Node1&#45;&gt;Node6 -->
<g id="edge5_Node000001_Node000006" class="edge">
<title>Node1&#45;&gt;Node6</title>
<g id="a_edge5_Node000001_Node000006"><a xlink:title=" ">
<path fill="none" stroke="#63b8ff" d="M32.93,-207.74C43.48,-220.23 62.93,-241.42 83.5,-254.62 85.13,-255.67 86.81,-256.68 88.54,-257.66"/>
<polygon fill="#63b8ff" stroke="#63b8ff" points="86.88,-260.75 97.38,-262.2 90.08,-254.52 86.88,-260.75"/>
</a>
</g>
</g>
<!-- Node10 -->
<g id="Node000010" class="node">
<title>Node10</title>
<g id="a_Node000010"><a xlink:href="../../da/d3e/output__files_8cpp_a2a6bf38afe949ce5a6cd1b3641c49c25.html#a2a6bf38afe949ce5a6cd1b3641c49c25" target="_top" xlink:title=" ">
<polygon fill="white" stroke="#666666" points="337.12,-65.25 273.88,-65.25 273.88,-46 337.12,-46 337.12,-65.25"/>
<text text-anchor="middle" x="305.5" y="-51.75" font-family="Helvetica,sans-Serif" font-size="10.00">File_Name</text>
</a>
</g>
</g>
<!-- Node1&#45;&gt;Node10 -->
<g id="edge9_Node000001_Node000010" class="edge">
<title>Node1&#45;&gt;Node10</title>
<g id="a_edge9_Node000001_Node000010"><a xlink:title=" ">
<path fill="none" stroke="#63b8ff" d="M25.79,-187.53C29.02,-162.12 41.31,-95.45 83.5,-66.62 136.54,-30.38 214.57,-36.79 262.33,-45.6"/>
<polygon fill="#63b8ff" stroke="#63b8ff" points="261.52,-49.01 272.01,-47.51 262.87,-42.14 261.52,-49.01"/>
</a>
</g>
</g>
<!-- Node11 -->
<g id="Node000011" class="node">
<title>Node11</title>
<g id="a_Node000011"><a xlink:href="../../d8/d40/_grid___computations_8cpp_a831dcf7cbf36ddf425ce0753495ba3c6.html#a831dcf7cbf36ddf425ce0753495ba3c6" target="_top" xlink:title=" ">
<polygon fill="white" stroke="#666666" points="179.38,-245.25 113.12,-245.25 113.12,-226 179.38,-226 179.38,-245.25"/>
<text text-anchor="middle" x="146.25" y="-231.75" font-family="Helvetica,sans-Serif" font-size="10.00">Form_Cells</text>
</a>
</g>
</g>
<!-- Node1&#45;&gt;Node11 -->
<g id="edge10_Node000001_Node000011" class="edge">
<title>Node1&#45;&gt;Node11</title>
<g id="a_edge10_Node000001_Node000011"><a xlink:title=" ">
<path fill="none" stroke="#63b8ff" d="M47.98,-204.95C63.46,-209.83 84.26,-216.39 102.65,-222.19"/>
<polygon fill="#63b8ff" stroke="#63b8ff" points="101.4,-225.47 111.99,-225.14 103.5,-218.79 101.4,-225.47"/>
</a>
</g>
</g>
<!-- Node23 -->
<g id="Node000023" class="node">
<title>Node23</title>
<g id="a_Node000023"><a xlink:href="../../d7/d6d/_initialize_8cpp_ad59ff1b23c73f6427e8179ce53ee1f59.html#ad59ff1b23c73f6427e8179ce53ee1f59" target="_top" xlink:title=" ">
<polygon fill="white" stroke="#666666" points="364.88,-166.88 246.12,-166.88 246.12,-136.38 364.88,-136.38 364.88,-166.88"/>
<text text-anchor="start" x="254.12" y="-153.38" font-family="Helvetica,sans-Serif" font-size="10.00">Identify_Wall_Boundary</text>
<text text-anchor="middle" x="305.5" y="-142.12" font-family="Helvetica,sans-Serif" font-size="10.00">_Faces</text>
</a>
</g>
</g>
<!-- Node1&#45;&gt;Node23 -->
<g id="edge25_Node000001_Node000023" class="edge">
<title>Node1&#45;&gt;Node23</title>
<g id="a_edge25_Node000001_Node000023"><a xlink:title=" ">
<path fill="none" stroke="#63b8ff" d="M47.92,-196.52C83.02,-194.56 151.68,-189.6 209,-178.62 220.54,-176.42 232.71,-173.47 244.36,-170.33"/>
<polygon fill="#63b8ff" stroke="#63b8ff" points="245.17,-173.74 253.86,-167.69 243.29,-166.99 245.17,-173.74"/>
</a>
</g>
</g>
<!-- Node24 -->
<g id="Node000024" class="node">
<title>Node24</title>
<g id="a_Node000024"><a xlink:href="../../d7/d6d/_initialize_8cpp_acc3c3292e370176c51c654a01e651e24.html#acc3c3292e370176c51c654a01e651e24" target="_top" xlink:title=" ">
<polygon fill="white" stroke="#666666" points="172.25,-169.25 120.25,-169.25 120.25,-150 172.25,-150 172.25,-169.25"/>
<text text-anchor="middle" x="146.25" y="-155.75" font-family="Helvetica,sans-Serif" font-size="10.00">Initialize</text>
</a>
</g>
</g>
<!-- Node1&#45;&gt;Node24 -->
<g id="edge26_Node000001_Node000024" class="edge">
<title>Node1&#45;&gt;Node24</title>
<g id="a_edge26_Node000001_Node000024"><a xlink:title=" ">
<path fill="none" stroke="#63b8ff" d="M47.98,-190.3C65.33,-184.83 89.36,-177.25 109.19,-171"/>
<polygon fill="#63b8ff" stroke="#63b8ff" points="110.08,-174.39 118.56,-168.04 107.97,-167.71 110.08,-174.39"/>
</a>
</g>
</g>
<!-- Node27 -->
<g id="Node000027" class="node">
<title>Node27</title>
<g id="a_Node000027"><a xlink:href="../../df/d43/_basic___functions_8cpp_ace6d77409787d1bc742eacb24948dfd1.html#ace6d77409787d1bc742eacb24948dfd1" target="_top" xlink:title=" ">
<polygon fill="white" stroke="#666666" points="194,-95.25 98.5,-95.25 98.5,-76 194,-76 194,-95.25"/>
<text text-anchor="middle" x="146.25" y="-81.75" font-family="Helvetica,sans-Serif" font-size="10.00">Reference_Values</text>
</a>
</g>
</g>
<!-- Node1&#45;&gt;Node27 -->
<g id="edge30_Node000001_Node000027" class="edge">
<title>Node1&#45;&gt;Node27</title>
<g id="a_edge30_Node000001_Node000027"><a xlink:title=" ">
<path fill="none" stroke="#63b8ff" d="M28.18,-187.72C35.34,-168.52 53.73,-126.16 83.5,-103.62 85.03,-102.47 86.63,-101.38 88.29,-100.37"/>
<polygon fill="#63b8ff" stroke="#63b8ff" points="89.61,-103.62 96.95,-95.97 86.44,-97.38 89.61,-103.62"/>
</a>
</g>
</g>
<!-- Node28 -->
<g id="Node000028" class="node">
<title>Node28</title>
<g id="a_Node000028"><a xlink:href="../../da/d3e/output__files_8cpp_a38d0be544847273a1bff3a28e3368e67.html#a38d0be544847273a1bff3a28e3368e67" target="_top" xlink:title=" ">
<polygon fill="white" stroke="#666666" points="185.38,-132.25 107.12,-132.25 107.12,-113 185.38,-113 185.38,-132.25"/>
<text text-anchor="middle" x="146.25" y="-118.75" font-family="Helvetica,sans-Serif" font-size="10.00">Write_CF_File</text>
</a>
</g>
</g>
<!-- Node1&#45;&gt;Node28 -->
<g id="edge31_Node000001_Node000028" class="edge">
<title>Node1&#45;&gt;Node28</title>
<g id="a_edge31_Node000001_Node000028"><a xlink:title=" ">
<path fill="none" stroke="#63b8ff" d="M32.39,-187.65C42.67,-174.92 62.13,-153.06 83.5,-140.62 87.52,-138.29 91.86,-136.23 96.32,-134.43"/>
<polygon fill="#63b8ff" stroke="#63b8ff" points="97.16,-137.85 105.4,-131.19 94.81,-131.26 97.16,-137.85"/>
</a>
</g>
</g>
<!-- Node29 -->
<g id="Node000029" class="node">
<title>Node29</title>
<g id="a_Node000029"><a xlink:href="../../da/d3e/output__files_8cpp_ac49d22b87cab7fa46da37546b7af78b0.html#ac49d22b87cab7fa46da37546b7af78b0" target="_top" xlink:title=" ">
<polygon fill="white" stroke="#666666" points="185.75,-19.25 106.75,-19.25 106.75,0 185.75,0 185.75,-19.25"/>
<text text-anchor="middle" x="146.25" y="-5.75" font-family="Helvetica,sans-Serif" font-size="10.00">Write_Solution</text>
</a>
</g>
</g>
<!-- Node1&#45;&gt;Node29 -->
<g id="edge33_Node000001_Node000029" class="edge">
<title>Node1&#45;&gt;Node29</title>
<g id="a_edge33_Node000001_Node000029"><a xlink:title=" ">
<path fill="none" stroke="#63b8ff" d="M25.5,-187.65C28.15,-159.56 39.4,-78.91 83.5,-33.62 87.22,-29.81 91.61,-26.59 96.31,-23.87"/>
<polygon fill="#63b8ff" stroke="#63b8ff" points="97.49,-27.19 104.92,-19.64 94.4,-20.91 97.49,-27.19"/>
</a>
</g>
</g>
<!-- Node4 -->
<g id="Node000004" class="node">
<title>Node4</title>
<g id="a_Node000004"><a xlink:href="../../df/d43/_basic___functions_8cpp_ae9dc3225863fb110155bb3e9dea4e4d3.html#ae9dc3225863fb110155bb3e9dea4e4d3" target="_top" xlink:title=" ">
<polygon fill="white" stroke="#666666" points="333.75,-464.25 277.25,-464.25 277.25,-445 333.75,-445 333.75,-464.25"/>
<text text-anchor="middle" x="305.5" y="-450.75" font-family="Helvetica,sans-Serif" font-size="10.00">Viscosity</text>
</a>
</g>
</g>
<!-- Node3&#45;&gt;Node4 -->
<g id="edge3_Node000003_Node000004" class="edge">
<title>Node3&#45;&gt;Node4</title>
<g id="a_edge3_Node000003_Node000004"><a xlink:title=" ">
<path fill="none" stroke="#63b8ff" d="M193.56,-380.22C199,-382.95 204.29,-386.08 209,-389.62 229.73,-405.25 223.69,-420.8 245,-435.62 251.27,-439.98 258.58,-443.38 265.9,-446.02"/>
<polygon fill="#63b8ff" stroke="#63b8ff" points="264.84,-449.35 275.43,-449.01 266.94,-442.68 264.84,-449.35"/>
</a>
</g>
</g>
<!-- Node7 -->
<g id="Node000007" class="node">
<title>Node7</title>
<g id="a_Node000007"><a xlink:href="../../d4/d5d/_grid___refine___functions_8cpp_a82a2c55106b4dfc3af8c36a285ee05b6.html#a82a2c55106b4dfc3af8c36a285ee05b6" target="_top" xlink:title="Calculate the gradient on a face of a cell.">
<polygon fill="white" stroke="#666666" points="355.12,-426.88 255.88,-426.88 255.88,-396.38 355.12,-396.38 355.12,-426.88"/>
<text text-anchor="start" x="263.88" y="-413.38" font-family="Helvetica,sans-Serif" font-size="10.00">Calculate_Gradient</text>
<text text-anchor="middle" x="305.5" y="-402.12" font-family="Helvetica,sans-Serif" font-size="10.00">_On_Face</text>
</a>
</g>
</g>
<!-- Node6&#45;&gt;Node7 -->
<g id="edge6_Node000006_Node000007" class="edge">
<title>Node6&#45;&gt;Node7</title>
<g id="a_edge6_Node000006_Node000007"><a xlink:title=" ">
<path fill="none" stroke="#63b8ff" d="M197.82,-294.29C201.86,-296.69 205.66,-299.46 209,-302.62 237.28,-329.47 217.86,-354.64 245,-382.62 247.44,-385.14 250.15,-387.47 253.02,-389.62"/>
<polygon fill="#63b8ff" stroke="#63b8ff" points="251.07,-392.53 261.36,-395.06 254.9,-386.67 251.07,-392.53"/>
</a>
</g>
</g>
<!-- Node8 -->
<g id="Node000008" class="node">
<title>Node8</title>
<g id="a_Node000008"><a xlink:href="../../d4/d5d/_grid___refine___functions_8cpp_a21a74c24cb35575f1574f39c39949aa2.html#a21a74c24cb35575f1574f39c39949aa2" target="_top" xlink:title=" ">
<polygon fill="white" stroke="#666666" points="517.75,-423.25 418.5,-423.25 418.5,-404 517.75,-404 517.75,-423.25"/>
<text text-anchor="middle" x="468.12" y="-409.75" font-family="Helvetica,sans-Serif" font-size="10.00">Calculate_Gradient</text>
</a>
</g>
</g>
<!-- Node7&#45;&gt;Node8 -->
<g id="edge7_Node000007_Node000008" class="edge">
<title>Node7&#45;&gt;Node8</title>
<g id="a_edge7_Node000007_Node000008"><a xlink:title=" ">
<path fill="none" stroke="#63b8ff" d="M355.57,-412.24C371.68,-412.44 389.79,-412.66 406.65,-412.87"/>
<polygon fill="#63b8ff" stroke="#63b8ff" points="406.53,-416.37 416.57,-413 406.61,-409.37 406.53,-416.37"/>
</a>
</g>
</g>
<!-- Node9 -->
<g id="Node000009" class="node">
<title>Node9</title>
<g id="a_Node000009"><a xlink:href="../../d4/d5d/_grid___refine___functions_8cpp_aea18493f007f54b110b46e03b4a012ac.html#aea18493f007f54b110b46e03b4a012ac" target="_top" xlink:title=" ">
<polygon fill="white" stroke="#666666" points="534.25,-460.25 402,-460.25 402,-441 534.25,-441 534.25,-460.25"/>
<text text-anchor="middle" x="468.12" y="-446.75" font-family="Helvetica,sans-Serif" font-size="10.00">Calculate_Vertex_Average</text>
</a>
</g>
</g>
<!-- Node7&#45;&gt;Node9 -->
<g id="edge8_Node000007_Node000009" class="edge">
<title>Node7&#45;&gt;Node9</title>
<g id="a_edge8_Node000007_Node000009"><a xlink:title=" ">
<path fill="none" stroke="#63b8ff" d="M355.57,-423.54C374.22,-428.07 395.54,-433.24 414.51,-437.85"/>
<polygon fill="#63b8ff" stroke="#63b8ff" points="413.65,-441.24 424.19,-440.2 415.3,-434.44 413.65,-441.24"/>
</a>
</g>
</g>
<!-- Node12 -->
<g id="Node000012" class="node">
<title>Node12</title>
<g id="a_Node000012"><a xlink:href="../../d8/d40/_grid___computations_8cpp_a7e6f11445e90cefdcb91f369846ec691.html#a7e6f11445e90cefdcb91f369846ec691" target="_top" xlink:title=" ">
<polygon fill="white" stroke="#666666" points="362.62,-373.88 248.38,-373.88 248.38,-343.38 362.62,-343.38 362.62,-373.88"/>
<text text-anchor="start" x="256.38" y="-360.38" font-family="Helvetica,sans-Serif" font-size="10.00">Calculate_Cell_Center</text>
<text text-anchor="middle" x="305.5" y="-349.12" font-family="Helvetica,sans-Serif" font-size="10.00">_Distances</text>
</a>
</g>
</g>
<!-- Node11&#45;&gt;Node12 -->
<g id="edge11_Node000011_Node000012" class="edge">
<title>Node11&#45;&gt;Node12</title>
<g id="a_edge11_Node000011_Node000012"><a xlink:title=" ">
<path fill="none" stroke="#63b8ff" d="M179.83,-240.46C190.05,-243.25 200.78,-247.66 209,-254.62 236.3,-277.75 220.08,-300.95 245,-326.62 248.69,-330.42 252.92,-333.88 257.4,-336.99"/>
<polygon fill="#63b8ff" stroke="#63b8ff" points="255.21,-339.75 265.54,-342.09 258.93,-333.82 255.21,-339.75"/>
</a>
</g>
</g>
<!-- Node15 -->
<g id="Node000015" class="node">
<title>Node15</title>
<g id="a_Node000015"><a xlink:href="../../d8/d40/_grid___computations_8cpp_a209db16fba143a9833c8d4021624afb0.html#a209db16fba143a9833c8d4021624afb0" target="_top" xlink:title=" ">
<polygon fill="white" stroke="#666666" points="504.25,-275.25 432,-275.25 432,-256 504.25,-256 504.25,-275.25"/>
<text text-anchor="middle" x="468.12" y="-261.75" font-family="Helvetica,sans-Serif" font-size="10.00">Check_Cells</text>
</a>
</g>
</g>
<!-- Node11&#45;&gt;Node15 -->
<g id="edge15_Node000011_Node000015" class="edge">
<title>Node11&#45;&gt;Node15</title>
<g id="a_edge15_Node000011_Node000015"><a xlink:title=" ">
<path fill="none" stroke="#63b8ff" d="M179.74,-241.32C198.72,-244.47 223.16,-248.22 245,-250.62 305.31,-257.28 375.17,-261.41 420.2,-263.61"/>
<polygon fill="#63b8ff" stroke="#63b8ff" points="419.98,-267.11 430.14,-264.09 420.32,-260.12 419.98,-267.11"/>
</a>
</g>
</g>
<!-- Node16 -->
<g id="Node000016" class="node">
<title>Node16</title>
<g id="a_Node000016"><a xlink:href="../../df/daf/_co___volume___grid___computations_8cpp_a097cceef075e862683dd9f6e95d091d4.html#a097cceef075e862683dd9f6e95d091d4" target="_top" xlink:title=" ">
<polygon fill="white" stroke="#666666" points="365.62,-317.25 245.38,-317.25 245.38,-298 365.62,-298 365.62,-317.25"/>
<text text-anchor="middle" x="305.5" y="-303.75" font-family="Helvetica,sans-Serif" font-size="10.00">Construct_Co_Volumes</text>
</a>
</g>
</g>
<!-- Node11&#45;&gt;Node16 -->
<g id="edge16_Node000011_Node000016" class="edge">
<title>Node11&#45;&gt;Node16</title>
<g id="a_edge16_Node000011_Node000016"><a xlink:title=" ">
<path fill="none" stroke="#63b8ff" d="M179.59,-243.07C189.35,-245.97 199.89,-249.78 209,-254.62 227.14,-264.26 227.28,-273.23 245,-283.62 251.05,-287.18 257.73,-290.43 264.36,-293.33"/>
<polygon fill="#63b8ff" stroke="#63b8ff" points="262.65,-296.41 273.23,-296.99 265.32,-289.94 262.65,-296.41"/>
</a>
</g>
</g>
<!-- Node19 -->
<g id="Node000019" class="node">
<title>Node19</title>
<g id="a_Node000019"><a xlink:href="../../d8/d40/_grid___computations_8cpp_ae5f2b7a0fdbc48f8fdf897222b7ded04.html#ae5f2b7a0fdbc48f8fdf897222b7ded04" target="_top" xlink:title=" ">
<polygon fill="white" stroke="#666666" points="364.5,-204.25 246.5,-204.25 246.5,-185 364.5,-185 364.5,-204.25"/>
<text text-anchor="middle" x="305.5" y="-190.75" font-family="Helvetica,sans-Serif" font-size="10.00">Construct_Ghost_Cells</text>
</a>
</g>
</g>
<!-- Node11&#45;&gt;Node19 -->
<g id="edge19_Node000011_Node000019" class="edge">
<title>Node11&#45;&gt;Node19</title>
<g id="a_edge19_Node000011_Node000019"><a xlink:title=" ">
<path fill="none" stroke="#63b8ff" d="M179.83,-227.13C201.52,-221.48 230.42,-213.94 254.94,-207.55"/>
<polygon fill="#63b8ff" stroke="#63b8ff" points="255.59,-210.99 264.39,-205.08 253.83,-204.22 255.59,-210.99"/>
</a>
</g>
</g>
<!-- Node21 -->
<g id="Node000021" class="node">
<title>Node21</title>
<g id="a_Node000021"><a xlink:href="../../d8/d40/_grid___computations_8cpp_a663d4b3ae06e638c2f2e82ad437e831e.html#a663d4b3ae06e638c2f2e82ad437e831e" target="_top" xlink:title="Reads the input grid file and constructs physical cells, evaluates face areas, normals,...">
<polygon fill="white" stroke="#666666" points="336.75,-241.25 274.25,-241.25 274.25,-222 336.75,-222 336.75,-241.25"/>
<text text-anchor="middle" x="305.5" y="-227.75" font-family="Helvetica,sans-Serif" font-size="10.00">Read_Grid</text>
</a>
</g>
</g>
<!-- Node11&#45;&gt;Node21 -->
<g id="edge21_Node000011_Node000021" class="edge">
<title>Node11&#45;&gt;Node21</title>
<g id="a_edge21_Node000011_Node000021"><a xlink:title=" ">
<path fill="none" stroke="#63b8ff" d="M179.83,-234.8C203.78,-234.19 236.53,-233.35 262.46,-232.69"/>
<polygon fill="#63b8ff" stroke="#63b8ff" points="262.41,-236.2 272.32,-232.44 262.23,-229.2 262.41,-236.2"/>
</a>
</g>
</g>
<!-- Node13 -->
<g id="Node000013" class="node">
<title>Node13</title>
<g id="a_Node000013"><a xlink:href="../../d8/d40/_grid___computations_8cpp_a1f273579608200866e02e34f16a3eb6b.html#a1f273579608200866e02e34f16a3eb6b" target="_top" xlink:title=" ">
<polygon fill="white" stroke="#666666" points="533.88,-386.25 402.38,-386.25 402.38,-367 533.88,-367 533.88,-386.25"/>
<text text-anchor="middle" x="468.12" y="-372.75" font-family="Helvetica,sans-Serif" font-size="10.00">Distance_Between_Points</text>
</a>
</g>
</g>
<!-- Node12&#45;&gt;Node13 -->
<g id="edge12_Node000012_Node000013" class="edge">
<title>Node12&#45;&gt;Node13</title>
<g id="a_edge12_Node000012_Node000013"><a xlink:title=" ">
<path fill="none" stroke="#63b8ff" d="M362.68,-364.92C371.68,-365.93 381.13,-366.99 390.52,-368.04"/>
<polygon fill="#63b8ff" stroke="#63b8ff" points="390.06,-371.51 400.39,-369.15 390.84,-364.55 390.06,-371.51"/>
</a>
</g>
</g>
<!-- Node14 -->
<g id="Node000014" class="node">
<title>Node14</title>
<g id="a_Node000014"><a xlink:href="../../d8/d40/_grid___computations_8cpp_a079a3910785ad86cffe119a8e3d6a0d4.html#a079a3910785ad86cffe119a8e3d6a0d4" target="_top" xlink:title=" ">
<polygon fill="white" stroke="#666666" points="606.5,-386.25 570.25,-386.25 570.25,-367 606.5,-367 606.5,-386.25"/>
<text text-anchor="middle" x="588.38" y="-372.75" font-family="Helvetica,sans-Serif" font-size="10.00">Print</text>
</a>
</g>
</g>
<!-- Node13&#45;&gt;Node14 -->
<g id="edge13_Node000013_Node000014" class="edge">
<title>Node13&#45;&gt;Node14</title>
<g id="a_edge13_Node000013_Node000014"><a xlink:title=" ">
<path fill="none" stroke="#63b8ff" d="M534.13,-376.62C542.76,-376.62 551.22,-376.62 558.77,-376.62"/>
<polygon fill="#63b8ff" stroke="#63b8ff" points="558.61,-380.13 568.61,-376.63 558.61,-373.13 558.61,-380.13"/>
</a>
</g>
</g>
<!-- Node14&#45;&gt;Node14 -->
<g id="edge14_Node000014_Node000014" class="edge">
<title>Node14&#45;&gt;Node14</title>
<g id="a_edge14_Node000014_Node000014"><a xlink:title=" ">
<path fill="none" stroke="#63b8ff" d="M569.84,-386.25C560.82,-394.94 567,-404.25 588.38,-404.25 600.4,-404.25 607.61,-401.3 610.02,-397.18"/>
<polygon fill="#63b8ff" stroke="#63b8ff" points="613.43,-396.37 607.32,-387.71 606.69,-398.28 613.43,-396.37"/>
</a>
</g>
</g>
<!-- Node17 -->
<g id="Node000017" class="node">
<title>Node17</title>
<g id="a_Node000017"><a xlink:href="../../d8/d40/_grid___computations_8cpp_a0d19b951f556ac7a935819a38d2e1a6f.html#a0d19b951f556ac7a935819a38d2e1a6f" target="_top" xlink:title=" ">
<polygon fill="white" stroke="#666666" points="511,-312.25 425.25,-312.25 425.25,-293 511,-293 511,-312.25"/>
<text text-anchor="middle" x="468.12" y="-298.75" font-family="Helvetica,sans-Serif" font-size="10.00">Construct_Face</text>
</a>
</g>
</g>
<!-- Node16&#45;&gt;Node17 -->
<g id="edge17_Node000016_Node000017" class="edge">
<title>Node16&#45;&gt;Node17</title>
<g id="a_edge17_Node000016_Node000017"><a xlink:title=" ">
<path fill="none" stroke="#63b8ff" d="M365.85,-305.78C381.52,-305.29 398.33,-304.77 413.67,-304.29"/>
<polygon fill="#63b8ff" stroke="#63b8ff" points="413.66,-307.79 423.55,-303.98 413.45,-300.79 413.66,-307.79"/>
</a>
</g>
</g>
<!-- Node18 -->
<g id="Node000018" class="node">
<title>Node18</title>
<g id="a_Node000018"><a xlink:href="../../d8/d40/_grid___computations_8cpp_a29418163b6fbd0aa81c60026e430d0b8.html#a29418163b6fbd0aa81c60026e430d0b8" target="_top" xlink:title=" ">
<polygon fill="white" stroke="#666666" points="530.5,-349.25 405.75,-349.25 405.75,-330 530.5,-330 530.5,-349.25"/>
<text text-anchor="middle" x="468.12" y="-335.75" font-family="Helvetica,sans-Serif" font-size="10.00">Evaluate_Cross_Product</text>
</a>
</g>
</g>
<!-- Node16&#45;&gt;Node18 -->
<g id="edge18_Node000016_Node000018" class="edge">
<title>Node16&#45;&gt;Node18</title>
<g id="a_edge18_Node000016_Node000018"><a xlink:title=" ">
<path fill="none" stroke="#63b8ff" d="M357.32,-317.75C372.48,-320.77 389.27,-324.12 405.07,-327.26"/>
<polygon fill="#63b8ff" stroke="#63b8ff" points="404.38,-330.69 414.87,-329.22 405.75,-323.83 404.38,-330.69"/>
</a>
</g>
</g>
<!-- Node20 -->
<g id="Node000020" class="node">
<title>Node20</title>
<g id="a_Node000020"><a xlink:href="../../d8/d40/_grid___computations_8cpp_a2d284e26ddef582519953e8b8300184e.html#a2d284e26ddef582519953e8b8300184e" target="_top" xlink:title=" ">
<polygon fill="white" stroke="#666666" points="508.75,-201.25 427.5,-201.25 427.5,-182 508.75,-182 508.75,-201.25"/>
<text text-anchor="middle" x="468.12" y="-187.75" font-family="Helvetica,sans-Serif" font-size="10.00">Construct_Cell</text>
</a>
</g>
</g>
<!-- Node19&#45;&gt;Node20 -->
<g id="edge20_Node000019_Node000020" class="edge">
<title>Node19&#45;&gt;Node20</title>
<g id="a_edge20_Node000019_Node000020"><a xlink:title=" ">
<path fill="none" stroke="#63b8ff" d="M364.94,-193.53C381.55,-193.22 399.5,-192.89 415.65,-192.59"/>
<polygon fill="#63b8ff" stroke="#63b8ff" points="415.61,-196.09 425.54,-192.4 415.48,-189.09 415.61,-196.09"/>
</a>
</g>
</g>
<!-- Node21&#45;&gt;Node15 -->
<g id="edge22_Node000021_Node000015" class="edge">
<title>Node21&#45;&gt;Node15</title>
<g id="a_edge22_Node000021_Node000015"><a xlink:title=" ">
<path fill="none" stroke="#63b8ff" d="M337.09,-238.1C360.67,-243.09 393.66,-250.08 420.52,-255.76"/>
<polygon fill="#63b8ff" stroke="#63b8ff" points="419.62,-259.15 430.13,-257.79 421.07,-252.3 419.62,-259.15"/>
</a>
</g>
</g>
<!-- Node21&#45;&gt;Node20 -->
<g id="edge23_Node000021_Node000020" class="edge">
<title>Node21&#45;&gt;Node20</title>
<g id="a_edge23_Node000021_Node000020"><a xlink:title=" ">
<path fill="none" stroke="#63b8ff" d="M337.09,-224.01C359.47,-218.43 390.34,-210.75 416.39,-204.26"/>
<polygon fill="#63b8ff" stroke="#63b8ff" points="416.89,-207.74 425.75,-201.93 415.2,-200.95 416.89,-207.74"/>
</a>
</g>
</g>
<!-- Node22 -->
<g id="Node000022" class="node">
<title>Node22</title>
<g id="a_Node000022"><a xlink:href="../../d8/d40/_grid___computations_8cpp_aa376223dcb91990013ac6549090115ea.html#aa376223dcb91990013ac6549090115ea" target="_top" xlink:title=" ">
<polygon fill="white" stroke="#666666" points="517.38,-238.25 418.88,-238.25 418.88,-219 517.38,-219 517.38,-238.25"/>
<text text-anchor="middle" x="468.12" y="-224.75" font-family="Helvetica,sans-Serif" font-size="10.00">Conversion_Factor</text>
</a>
</g>
</g>
<!-- Node21&#45;&gt;Node22 -->
<g id="edge24_Node000021_Node000022" class="edge">
<title>Node21&#45;&gt;Node22</title>
<g id="a_edge24_Node000021_Node000022"><a xlink:title=" ">
<path fill="none" stroke="#63b8ff" d="M337.09,-231.05C356.88,-230.68 383.31,-230.19 407.18,-229.74"/>
<polygon fill="#63b8ff" stroke="#63b8ff" points="407.2,-233.24 417.13,-229.56 407.07,-226.25 407.2,-233.24"/>
</a>
</g>
</g>
<!-- Node24&#45;&gt;Node23 -->
<g id="edge29_Node000024_Node000023" class="edge">
<title>Node24&#45;&gt;Node23</title>
<g id="a_edge29_Node000024_Node000023"><a xlink:title=" ">
<path fill="none" stroke="#63b8ff" d="M172.51,-158.34C189.3,-157.49 212.22,-156.32 234.26,-155.2"/>
<polygon fill="#63b8ff" stroke="#63b8ff" points="234.34,-158.7 244.15,-154.7 233.98,-151.71 234.34,-158.7"/>
</a>
</g>
</g>
<!-- Node25 -->
<g id="Node000025" class="node">
<title>Node25</title>
<g id="a_Node000025"><a xlink:href="../../d4/d5d/_grid___refine___functions_8cpp_add867401ba6818c3d6480ec342cb0eaa.html#add867401ba6818c3d6480ec342cb0eaa" target="_top" xlink:title="Identifies the secondary neighbors of a given cell to evaluate second gradients.">
<polygon fill="white" stroke="#666666" points="366,-117.88 245,-117.88 245,-87.38 366,-87.38 366,-117.88"/>
<text text-anchor="start" x="253" y="-104.38" font-family="Helvetica,sans-Serif" font-size="10.00">Identify_Neighbours</text>
<text text-anchor="middle" x="305.5" y="-93.12" font-family="Helvetica,sans-Serif" font-size="10.00">_For_Second_Gradients</text>
</a>
</g>
</g>
<!-- Node24&#45;&gt;Node25 -->
<g id="edge27_Node000024_Node000025" class="edge">
<title>Node24&#45;&gt;Node25</title>
<g id="a_edge27_Node000024_Node000025"><a xlink:title=" ">
<path fill="none" stroke="#63b8ff" d="M172.67,-152.86C183.9,-149.71 197.19,-145.74 209,-141.62 218.49,-138.31 238.01,-130.41 256.94,-122.58"/>
<polygon fill="#63b8ff" stroke="#63b8ff" points="258.04,-125.91 265.94,-118.85 255.36,-119.45 258.04,-125.91"/>
</a>
</g>
</g>
<!-- Node26 -->
<g id="Node000026" class="node">
<title>Node26</title>
<g id="a_Node000026"><a xlink:href="../../d3/dd4/_gradients_8cpp_a841d8b51ae49ac6ee37c9246228c1f89.html#a841d8b51ae49ac6ee37c9246228c1f89" target="_top" xlink:title="Identifies the secondary neighbors of a given cell to evaluate second gradients.">
<polygon fill="white" stroke="#666666" points="505,-112.25 431.25,-112.25 431.25,-93 505,-93 505,-112.25"/>
<text text-anchor="middle" x="468.12" y="-98.75" font-family="Helvetica,sans-Serif" font-size="10.00">getNeighbour</text>
</a>
</g>
</g>
<!-- Node25&#45;&gt;Node26 -->
<g id="edge28_Node000025_Node000026" class="edge">
<title>Node25&#45;&gt;Node26</title>
<g id="a_edge28_Node000025_Node000026"><a xlink:title=" ">
<path fill="none" stroke="#63b8ff" d="M366.31,-102.62C383.99,-102.62 403.1,-102.62 419.87,-102.62"/>
<polygon fill="#63b8ff" stroke="#63b8ff" points="419.55,-106.13 429.55,-102.63 419.55,-99.13 419.55,-106.13"/>
</a>
</g>
</g>
<!-- Node28&#45;&gt;Node10 -->
<g id="edge32_Node000028_Node000010" class="edge">
<title>Node28&#45;&gt;Node10</title>
<g id="a_edge32_Node000028_Node000010"><a xlink:title=" ">
<path fill="none" stroke="#63b8ff" d="M185.57,-113.67C193.51,-111.21 201.68,-108.2 209,-104.62 226.73,-95.96 227.65,-88.04 245,-78.62 250.8,-75.48 257.12,-72.55 263.41,-69.91"/>
<polygon fill="#63b8ff" stroke="#63b8ff" points="264.46,-73.26 272.46,-66.31 261.87,-66.76 264.46,-73.26"/>
</a>
</g>
</g>
</g>
</svg>
