<?xml version="1.0" encoding="UTF-8" standalone="no"?>
<!DOCTYPE svg PUBLIC "-//W3C//DTD SVG 1.1//EN"
 "http://www.w3.org/Graphics/SVG/1.1/DTD/svg11.dtd">
<!-- Generated by graphviz version 12.2.1 (20241206.2353)
 -->
<!-- Title: Read_Write_Grid Pages: 1 -->
<svg width="565pt" height="254pt"
 viewBox="0.00 0.00 565.00 254.25" xmlns="http://www.w3.org/2000/svg" xmlns:xlink="http://www.w3.org/1999/xlink">
<g id="graph0" class="graph" transform="scale(1 1) rotate(0) translate(4 250.25)">
<title>Read_Write_Grid</title>
<!-- Node1 -->
<g id="Node000001" class="node">
<title>Node1</title>
<g id="a_Node000001"><a xlink:title="void Write_Solution(const string &amp;);">
<polygon fill="#999999" stroke="#666666" points="557,-131.25 466.75,-131.25 466.75,-112 557,-112 557,-131.25"/>
<text text-anchor="middle" x="511.88" y="-117.75" font-family="Helvetica,sans-Serif" font-size="10.00">Read_Write_Grid</text>
</a>
</g>
</g>
<!-- Node2 -->
<g id="Node000002" class="node">
<title>Node2</title>
<g id="a_Node000002"><a xlink:href="../../de/df0/_solver_8cpp_ad0f49408a26339b5f7043bf867c3fa8d.html#ad0f49408a26339b5f7043bf867c3fa8d" target="_top" xlink:title=" ">
<polygon fill="white" stroke="#666666" points="305.25,-19.25 222.5,-19.25 222.5,0 305.25,0 305.25,-19.25"/>
<text text-anchor="middle" x="263.88" y="-5.75" font-family="Helvetica,sans-Serif" font-size="10.00">Inviscid_Solver</text>
</a>
</g>
</g>
<!-- Node1&#45;&gt;Node2 -->
<g id="edge1_Node000001_Node000002" class="edge">
<title>Node1&#45;&gt;Node2</title>
<g id="a_edge1_Node000001_Node000002"><a xlink:title=" ">
<path fill="none" stroke="#63b8ff" d="M493.38,-104.24C478.04,-89.89 454.54,-69.94 430.75,-57.62 390.55,-36.81 340.06,-23.85 305.41,-16.72"/>
<polygon fill="#63b8ff" stroke="#63b8ff" points="490.68,-106.5 500.31,-110.9 495.52,-101.45 490.68,-106.5"/>
</a>
</g>
</g>
<!-- Node3 -->
<g id="Node000003" class="node">
<title>Node3</title>
<g id="a_Node000003"><a xlink:href="../../dd/dbf/_euler___python___wrapper_8cpp_ac5ccb50c3be270f798e054dd36987442.html#ac5ccb50c3be270f798e054dd36987442" target="_top" xlink:title=" ">
<polygon fill="white" stroke="#666666" points="185.75,-132.25 73,-132.25 73,-113 185.75,-113 185.75,-132.25"/>
<text text-anchor="middle" x="129.38" y="-118.75" font-family="Helvetica,sans-Serif" font-size="10.00">PYBIND11_MODULE</text>
</a>
</g>
</g>
<!-- Node1&#45;&gt;Node3 -->
<g id="edge7_Node000001_Node000003" class="edge">
<title>Node1&#45;&gt;Node3</title>
<g id="a_edge7_Node000001_Node000003"><a xlink:title=" ">
<path fill="none" stroke="#63b8ff" d="M485.37,-137.31C470.12,-145.74 450.03,-155.28 430.75,-159.62 410.69,-164.14 227.64,-157.76 221.75,-156.62 196.65,-151.78 169.37,-140.82 151.22,-132.65"/>
<polygon fill="#63b8ff" stroke="#63b8ff" points="486.84,-140.5 493.76,-132.47 483.35,-134.43 486.84,-140.5"/>
</a>
</g>
</g>
<!-- Node6 -->
<g id="Node000006" class="node">
<title>Node6</title>
<g id="a_Node000006"><a xlink:href="../../de/dc4/_o_e_d_8cpp_a1404a4711dcead4c50dd9eaa2ab7b7c0.html#a1404a4711dcead4c50dd9eaa2ab7b7c0" target="_top" xlink:title=" ">
<polygon fill="white" stroke="#666666" points="405.25,-246.25 367.5,-246.25 367.5,-227 405.25,-227 405.25,-246.25"/>
<text text-anchor="middle" x="386.38" y="-232.75" font-family="Helvetica,sans-Serif" font-size="10.00">OED</text>
</a>
</g>
</g>
<!-- Node1&#45;&gt;Node6 -->
<g id="edge5_Node000001_Node000006" class="edge">
<title>Node1&#45;&gt;Node6</title>
<g id="a_edge5_Node000001_Node000006"><a xlink:title=" ">
<path fill="none" stroke="#63b8ff" d="M497.09,-140.85C482.29,-160.57 457.29,-191.29 430.75,-212.62 423.1,-218.77 413.67,-224.2 405.55,-228.34"/>
<polygon fill="#63b8ff" stroke="#63b8ff" points="499.86,-143 502.96,-132.87 494.22,-138.86 499.86,-143"/>
</a>
</g>
</g>
<!-- Node7 -->
<g id="Node000007" class="node">
<title>Node7</title>
<g id="a_Node000007"><a xlink:href="../../d6/d4f/_shock___tube__2_d_8cpp_a634f5b7cf63cab96d3b48ed0b4df6ad4.html#a634f5b7cf63cab96d3b48ed0b4df6ad4" target="_top" xlink:title=" ">
<polygon fill="white" stroke="#666666" points="430.75,-150.25 342,-150.25 342,-131 430.75,-131 430.75,-150.25"/>
<text text-anchor="middle" x="386.38" y="-136.75" font-family="Helvetica,sans-Serif" font-size="10.00">Shock_Tube_2D</text>
</a>
</g>
</g>
<!-- Node1&#45;&gt;Node7 -->
<g id="edge8_Node000001_Node000007" class="edge">
<title>Node1&#45;&gt;Node7</title>
<g id="a_edge8_Node000001_Node000007"><a xlink:title=" ">
<path fill="none" stroke="#63b8ff" d="M455.06,-130.21C447.01,-131.45 438.83,-132.71 431.07,-133.9"/>
<polygon fill="#63b8ff" stroke="#63b8ff" points="455.44,-133.69 464.79,-128.71 454.38,-126.78 455.44,-133.69"/>
</a>
</g>
</g>
<!-- Node9 -->
<g id="Node000009" class="node">
<title>Node9</title>
<g id="a_Node000009"><a xlink:href="../../d8/d8f/_slip___flow__2_d_8cpp_a41030236ecf9b4d95159d7227a838eab.html#a41030236ecf9b4d95159d7227a838eab" target="_top" xlink:title=" ">
<polygon fill="white" stroke="#666666" points="424.75,-113.25 348,-113.25 348,-94 424.75,-94 424.75,-113.25"/>
<text text-anchor="middle" x="386.38" y="-99.75" font-family="Helvetica,sans-Serif" font-size="10.00">Slip_Flow_2D</text>
</a>
</g>
</g>
<!-- Node1&#45;&gt;Node9 -->
<g id="edge13_Node000001_Node000009" class="edge">
<title>Node1&#45;&gt;Node9</title>
<g id="a_edge13_Node000001_Node000009"><a xlink:title=" ">
<path fill="none" stroke="#63b8ff" d="M454.97,-113.48C444.81,-112 434.44,-110.49 424.97,-109.11"/>
<polygon fill="#63b8ff" stroke="#63b8ff" points="454.39,-116.93 464.79,-114.91 455.4,-110 454.39,-116.93"/>
</a>
</g>
</g>
<!-- Node10 -->
<g id="Node000010" class="node">
<title>Node10</title>
<g id="a_Node000010"><a xlink:href="../../de/df0/_solver_8cpp_a2f37f06e8324a1ed6aa99efdbba81865.html#a2f37f06e8324a1ed6aa99efdbba81865" target="_top" xlink:title=" ">
<polygon fill="white" stroke="#666666" points="306,-56.25 221.75,-56.25 221.75,-37 306,-37 306,-56.25"/>
<text text-anchor="middle" x="263.88" y="-42.75" font-family="Helvetica,sans-Serif" font-size="10.00">Viscous_Solver</text>
</a>
</g>
</g>
<!-- Node1&#45;&gt;Node10 -->
<g id="edge16_Node000001_Node000010" class="edge">
<title>Node1&#45;&gt;Node10</title>
<g id="a_edge16_Node000001_Node000010"><a xlink:title=" ">
<path fill="none" stroke="#63b8ff" d="M481.76,-106.4C466.81,-99.05 448.14,-90.56 430.75,-84.62 389.37,-70.5 340.39,-60.01 306.44,-53.67"/>
<polygon fill="#63b8ff" stroke="#63b8ff" points="480.05,-109.46 490.55,-110.82 483.19,-103.21 480.05,-109.46"/>
</a>
</g>
</g>
<!-- Node2&#45;&gt;Node3 -->
<g id="edge2_Node000002_Node000003" class="edge">
<title>Node2&#45;&gt;Node3</title>
<g id="a_edge2_Node000002_Node000003"><a xlink:title=" ">
<path fill="none" stroke="#63b8ff" d="M225.97,-24.87C224.52,-25.75 223.11,-26.67 221.75,-27.62 202.71,-41 201.86,-48.84 185.75,-65.62 169.89,-82.15 151.32,-101.21 140.22,-112.57"/>
<polygon fill="#63b8ff" stroke="#63b8ff" points="227.42,-28.07 234.59,-20.27 224.12,-21.89 227.42,-28.07"/>
</a>
</g>
</g>
<!-- Node4 -->
<g id="Node000004" class="node">
<title>Node4</title>
<g id="a_Node000004"><a xlink:href="../../d5/d12/_main_8cpp_a35d775933750ace299102f06a1712663.html#a35d775933750ace299102f06a1712663" target="_top" xlink:title=" ">
<polygon fill="white" stroke="#666666" points="158,-56.25 100.75,-56.25 100.75,-37 158,-37 158,-56.25"/>
<text text-anchor="middle" x="129.38" y="-42.75" font-family="Helvetica,sans-Serif" font-size="10.00">runSolver</text>
</a>
</g>
</g>
<!-- Node2&#45;&gt;Node4 -->
<g id="edge3_Node000002_Node000004" class="edge">
<title>Node2&#45;&gt;Node4</title>
<g id="a_edge3_Node000002_Node000004"><a xlink:title=" ">
<path fill="none" stroke="#63b8ff" d="M215.65,-22.81C196.39,-28.19 174.78,-34.23 158.13,-38.87"/>
<polygon fill="#63b8ff" stroke="#63b8ff" points="216.52,-26.2 225.21,-20.14 214.64,-19.46 216.52,-26.2"/>
</a>
</g>
</g>
<!-- Node5 -->
<g id="Node000005" class="node">
<title>Node5</title>
<g id="a_Node000005"><a xlink:href="../../d5/d12/_main_8cpp_a0ddf1224851353fc92bfbff6f499fa97.html#a0ddf1224851353fc92bfbff6f499fa97" target="_top" xlink:title=" ">
<polygon fill="white" stroke="#666666" points="37,-56.25 0,-56.25 0,-37 37,-37 37,-56.25"/>
<text text-anchor="middle" x="18.5" y="-42.75" font-family="Helvetica,sans-Serif" font-size="10.00">main</text>
</a>
</g>
</g>
<!-- Node4&#45;&gt;Node5 -->
<g id="edge4_Node000004_Node000005" class="edge">
<title>Node4&#45;&gt;Node5</title>
<g id="a_edge4_Node000004_Node000005"><a xlink:title=" ">
<path fill="none" stroke="#63b8ff" d="M88.84,-46.62C71.14,-46.62 51.16,-46.62 37.22,-46.62"/>
<polygon fill="#63b8ff" stroke="#63b8ff" points="88.82,-50.13 98.82,-46.63 88.82,-43.13 88.82,-50.13"/>
</a>
</g>
</g>
<!-- Node6&#45;&gt;Node3 -->
<g id="edge6_Node000006_Node000003" class="edge">
<title>Node6&#45;&gt;Node3</title>
<g id="a_edge6_Node000006_Node000003"><a xlink:title=" ">
<path fill="none" stroke="#63b8ff" d="M355.63,-237.68C321.52,-237.71 264.79,-234.04 221.75,-212.62 183.08,-193.38 150.54,-151.62 137.05,-132.52"/>
<polygon fill="#63b8ff" stroke="#63b8ff" points="355.64,-241.19 365.59,-237.55 355.54,-234.19 355.64,-241.19"/>
</a>
</g>
</g>
<!-- Node7&#45;&gt;Node3 -->
<g id="edge9_Node000007_Node000003" class="edge">
<title>Node7&#45;&gt;Node3</title>
<g id="a_edge9_Node000007_Node000003"><a xlink:title=" ">
<path fill="none" stroke="#63b8ff" d="M330.33,-141.41C322.17,-141.5 313.87,-141.58 306,-141.62 268.56,-141.86 259,-145.46 221.75,-141.62 204.66,-139.87 186.06,-136.31 170.13,-132.74"/>
<polygon fill="#63b8ff" stroke="#63b8ff" points="330.24,-144.91 340.19,-141.29 330.15,-137.91 330.24,-144.91"/>
</a>
</g>
</g>
<!-- Node8 -->
<g id="Node000008" class="node">
<title>Node8</title>
<g id="a_Node000008"><a xlink:href="../../d0/de9/_configuration___read_8cpp_a32d98c169e6f866c6411c53d5758292e.html#a32d98c169e6f866c6411c53d5758292e" target="_top" xlink:title=" ">
<polygon fill="white" stroke="#666666" points="291.75,-132.25 236,-132.25 236,-113 291.75,-113 291.75,-132.25"/>
<text text-anchor="middle" x="263.88" y="-118.75" font-family="Helvetica,sans-Serif" font-size="10.00">testCase</text>
</a>
</g>
</g>
<!-- Node7&#45;&gt;Node8 -->
<g id="edge10_Node000007_Node000008" class="edge">
<title>Node7&#45;&gt;Node8</title>
<g id="a_edge10_Node000007_Node000008"><a xlink:title=" ">
<path fill="none" stroke="#63b8ff" d="M330.47,-132.42C317.13,-130.43 303.44,-128.39 292.04,-126.68"/>
<polygon fill="#63b8ff" stroke="#63b8ff" points="329.63,-135.84 340.03,-133.85 330.66,-128.91 329.63,-135.84"/>
</a>
</g>
</g>
<!-- Node8&#45;&gt;Node3 -->
<g id="edge11_Node000008_Node000003" class="edge">
<title>Node8&#45;&gt;Node3</title>
<g id="a_edge11_Node000008_Node000003"><a xlink:title=" ">
<path fill="none" stroke="#63b8ff" d="M224.37,-122.62C212.44,-122.62 199.04,-122.62 186.18,-122.62"/>
<polygon fill="#63b8ff" stroke="#63b8ff" points="224.23,-126.13 234.23,-122.63 224.23,-119.13 224.23,-126.13"/>
</a>
</g>
</g>
<!-- Node8&#45;&gt;Node4 -->
<g id="edge12_Node000008_Node000004" class="edge">
<title>Node8&#45;&gt;Node4</title>
<g id="a_edge12_Node000008_Node000004"><a xlink:title=" ">
<path fill="none" stroke="#63b8ff" d="M235.51,-106.93C209.1,-91.78 169.94,-69.32 147.62,-56.52"/>
<polygon fill="#63b8ff" stroke="#63b8ff" points="233.55,-109.84 243.97,-111.78 237.03,-103.77 233.55,-109.84"/>
</a>
</g>
</g>
<!-- Node9&#45;&gt;Node3 -->
<g id="edge14_Node000009_Node000003" class="edge">
<title>Node9&#45;&gt;Node3</title>
<g id="a_edge14_Node000009_Node000003"><a xlink:title=" ">
<path fill="none" stroke="#63b8ff" d="M336.11,-101C303.56,-99.92 260,-99.69 221.75,-103.62 204.66,-105.38 186.06,-108.94 170.13,-112.51"/>
<polygon fill="#63b8ff" stroke="#63b8ff" points="335.93,-104.5 346.06,-101.38 336.2,-97.5 335.93,-104.5"/>
</a>
</g>
</g>
<!-- Node9&#45;&gt;Node8 -->
<g id="edge15_Node000009_Node000008" class="edge">
<title>Node9&#45;&gt;Node8</title>
<g id="a_edge15_Node000009_Node000008"><a xlink:title=" ">
<path fill="none" stroke="#63b8ff" d="M336.32,-111.36C321.28,-113.73 305.26,-116.26 292.22,-118.31"/>
<polygon fill="#63b8ff" stroke="#63b8ff" points="336.75,-114.84 346.08,-109.82 335.66,-107.92 336.75,-114.84"/>
</a>
</g>
</g>
<!-- Node10&#45;&gt;Node3 -->
<g id="edge17_Node000010_Node000003" class="edge">
<title>Node10&#45;&gt;Node3</title>
<g id="a_edge17_Node000010_Node000003"><a xlink:title=" ">
<path fill="none" stroke="#63b8ff" d="M235.51,-62.32C209.1,-77.47 169.94,-99.93 147.62,-112.73"/>
<polygon fill="#63b8ff" stroke="#63b8ff" points="237.03,-65.48 243.97,-57.47 233.55,-59.41 237.03,-65.48"/>
</a>
</g>
</g>
<!-- Node10&#45;&gt;Node4 -->
<g id="edge18_Node000010_Node000004" class="edge">
<title>Node10&#45;&gt;Node4</title>
<g id="a_edge18_Node000010_Node000004"><a xlink:title=" ">
<path fill="none" stroke="#63b8ff" d="M209.97,-46.62C192.33,-46.62 173.37,-46.62 158.38,-46.62"/>
<polygon fill="#63b8ff" stroke="#63b8ff" points="209.8,-50.13 219.8,-46.63 209.8,-43.13 209.8,-50.13"/>
</a>
</g>
</g>
</g>
</svg>
