<?xml version="1.0" encoding="UTF-8" standalone="no"?>
<!DOCTYPE svg PUBLIC "-//W3C//DTD SVG 1.1//EN"
 "http://www.w3.org/Graphics/SVG/1.1/DTD/svg11.dtd">
<!-- Generated by graphviz version 12.2.1 (20241206.2353)
 -->
<!-- Title: Identify_Neighbours Pages: 1 -->
<svg width="292pt" height="138pt"
 viewBox="0.00 0.00 292.00 138.25" xmlns="http://www.w3.org/2000/svg" xmlns:xlink="http://www.w3.org/1999/xlink">
<g id="graph0" class="graph" transform="scale(1 1) rotate(0) translate(4 134.25)">
<title>Identify_Neighbours</title>
<!-- Node1 -->
<g id="Node000001" class="node">
<title>Node1</title>
<g id="a_Node000001"><a xlink:title=" ">
<polygon fill="#999999" stroke="#666666" points="103,-74.25 0,-74.25 0,-55 103,-55 103,-74.25"/>
<text text-anchor="middle" x="51.5" y="-60.75" font-family="Helvetica,sans-Serif" font-size="10.00">Identify_Neighbours</text>
</a>
</g>
</g>
<!-- Node2 -->
<g id="Node000002" class="node">
<title>Node2</title>
<g id="a_Node000002"><a xlink:href="../../d0/ded/_read___gmsh___file_8cpp_ae9fe416efcf214282b13d235773a6bf6.html#ae9fe416efcf214282b13d235773a6bf6" target="_top" xlink:title=" ">
<polygon fill="white" stroke="#666666" points="248.38,-130.25 174.62,-130.25 174.62,-111 248.38,-111 248.38,-130.25"/>
<text text-anchor="middle" x="211.5" y="-116.75" font-family="Helvetica,sans-Serif" font-size="10.00">BoundingBox</text>
</a>
</g>
</g>
<!-- Node1&#45;&gt;Node2 -->
<g id="edge1_Node000001_Node000002" class="edge">
<title>Node1&#45;&gt;Node2</title>
<g id="a_edge1_Node000001_Node000002"><a xlink:title=" ">
<path fill="none" stroke="#63b8ff" d="M72.74,-74.67C90.03,-82.97 115.73,-94.65 139,-102.62 146.74,-105.28 155.08,-107.73 163.23,-109.91"/>
<polygon fill="#63b8ff" stroke="#63b8ff" points="162.13,-113.25 172.68,-112.34 163.87,-106.47 162.13,-113.25"/>
</a>
</g>
</g>
<!-- Node3 -->
<g id="Node000003" class="node">
<title>Node3</title>
<g id="a_Node000003"><a xlink:href="../../d0/ded/_read___gmsh___file_8cpp_a60baebfdb081653a59cb67c626911ad6.html#a60baebfdb081653a59cb67c626911ad6" target="_top" xlink:title=" ">
<polygon fill="white" stroke="#666666" points="284,-93.25 139,-93.25 139,-74 284,-74 284,-93.25"/>
<text text-anchor="middle" x="211.5" y="-79.75" font-family="Helvetica,sans-Serif" font-size="10.00">Classify_Domain_Boundaries</text>
</a>
</g>
</g>
<!-- Node1&#45;&gt;Node3 -->
<g id="edge2_Node000001_Node000003" class="edge">
<title>Node1&#45;&gt;Node3</title>
<g id="a_edge2_Node000001_Node000003"><a xlink:title=" ">
<path fill="none" stroke="#63b8ff" d="M103.36,-70.74C111.11,-71.67 119.28,-72.66 127.51,-73.65"/>
<polygon fill="#63b8ff" stroke="#63b8ff" points="126.88,-77.09 137.23,-74.81 127.72,-70.14 126.88,-77.09"/>
</a>
</g>
</g>
<!-- Node4 -->
<g id="Node000004" class="node">
<title>Node4</title>
<g id="a_Node000004"><a xlink:href="../../d0/ded/_read___gmsh___file_8cpp_adc1985827312d4d72fa6eb4ce492fc5e.html#adc1985827312d4d72fa6eb4ce492fc5e" target="_top" xlink:title=" ">
<polygon fill="white" stroke="#666666" points="258.88,-56.25 164.12,-56.25 164.12,-37 258.88,-37 258.88,-56.25"/>
<text text-anchor="middle" x="211.5" y="-42.75" font-family="Helvetica,sans-Serif" font-size="10.00">mapFacesToCells</text>
</a>
</g>
</g>
<!-- Node1&#45;&gt;Node4 -->
<g id="edge3_Node000001_Node000004" class="edge">
<title>Node1&#45;&gt;Node4</title>
<g id="a_edge3_Node000001_Node000004"><a xlink:title=" ">
<path fill="none" stroke="#63b8ff" d="M103.36,-58.83C118.97,-57.05 136.26,-55.08 152.32,-53.25"/>
<polygon fill="#63b8ff" stroke="#63b8ff" points="152.71,-56.73 162.25,-52.12 151.92,-49.78 152.71,-56.73"/>
</a>
</g>
</g>
<!-- Node5 -->
<g id="Node000005" class="node">
<title>Node5</title>
<g id="a_Node000005"><a xlink:href="../../d0/ded/_read___gmsh___file_8cpp_a611404ed219cd91fe765c665b1983e05.html#a611404ed219cd91fe765c665b1983e05" target="_top" xlink:title=" ">
<polygon fill="white" stroke="#666666" points="249.12,-19.25 173.88,-19.25 173.88,0 249.12,0 249.12,-19.25"/>
<text text-anchor="middle" x="211.5" y="-5.75" font-family="Helvetica,sans-Serif" font-size="10.00">printCellEntry</text>
</a>
</g>
</g>
<!-- Node1&#45;&gt;Node5 -->
<g id="edge4_Node000001_Node000005" class="edge">
<title>Node1&#45;&gt;Node5</title>
<g id="a_edge4_Node000001_Node000005"><a xlink:title=" ">
<path fill="none" stroke="#63b8ff" d="M73.47,-54.55C90.76,-46.51 116.1,-35.35 139,-27.62 146.5,-25.09 154.55,-22.74 162.45,-20.61"/>
<polygon fill="#63b8ff" stroke="#63b8ff" points="163.16,-24.04 171.97,-18.16 161.41,-17.27 163.16,-24.04"/>
</a>
</g>
</g>
</g>
</svg>
