<?xml version="1.0" encoding="UTF-8" standalone="no"?>
<!DOCTYPE svg PUBLIC "-//W3C//DTD SVG 1.1//EN"
 "http://www.w3.org/Graphics/SVG/1.1/DTD/svg11.dtd">
<!-- Generated by graphviz version 12.2.1 (20241206.2353)
 -->
<!-- Title: InViscid_Wall_Boundary_Condition Pages: 1 -->
<svg width="793pt" height="146pt"
 viewBox="0.00 0.00 793.25 145.88" xmlns="http://www.w3.org/2000/svg" xmlns:xlink="http://www.w3.org/1999/xlink">
<g id="graph0" class="graph" transform="scale(1 1) rotate(0) translate(4 141.88)">
<title>InViscid_Wall_Boundary_Condition</title>
<!-- Node1 -->
<g id="Node000001" class="node">
<title>Node1</title>
<g id="a_Node000001"><a xlink:title=" ">
<polygon fill="#999999" stroke="#666666" points="785.25,-137.88 663.5,-137.88 663.5,-107.38 785.25,-107.38 785.25,-137.88"/>
<text text-anchor="start" x="671.5" y="-124.38" font-family="Helvetica,sans-Serif" font-size="10.00">InViscid_Wall_Boundary</text>
<text text-anchor="middle" x="724.38" y="-113.12" font-family="Helvetica,sans-Serif" font-size="10.00">_Condition</text>
</a>
</g>
</g>
<!-- Node2 -->
<g id="Node000002" class="node">
<title>Node2</title>
<g id="a_Node000002"><a xlink:href="../../d0/d1e/_boundary___conditions_8cpp_af3770504ee20d68a2295133e7aa72bfa.html#af3770504ee20d68a2295133e7aa72bfa" target="_top" xlink:title=" ">
<polygon fill="white" stroke="#666666" points="627.5,-94.25 488.5,-94.25 488.5,-75 627.5,-75 627.5,-94.25"/>
<text text-anchor="middle" x="558" y="-80.75" font-family="Helvetica,sans-Serif" font-size="10.00">Apply_Boundary_Conditions</text>
</a>
</g>
</g>
<!-- Node1&#45;&gt;Node2 -->
<g id="edge1_Node000001_Node000002" class="edge">
<title>Node1&#45;&gt;Node2</title>
<g id="a_edge1_Node000001_Node000002"><a xlink:title=" ">
<path fill="none" stroke="#63b8ff" d="M652.18,-106.17C635.39,-102.28 617.97,-98.26 602.8,-94.75"/>
<polygon fill="#63b8ff" stroke="#63b8ff" points="651.1,-109.51 661.63,-108.35 652.67,-102.69 651.1,-109.51"/>
</a>
</g>
</g>
<!-- Node4 -->
<g id="Node000004" class="node">
<title>Node4</title>
<g id="a_Node000004"><a xlink:href="../../dd/dbf/_euler___python___wrapper_8cpp_ac5ccb50c3be270f798e054dd36987442.html#ac5ccb50c3be270f798e054dd36987442" target="_top" xlink:title=" ">
<polygon fill="white" stroke="#666666" points="185.75,-94.25 73,-94.25 73,-75 185.75,-75 185.75,-94.25"/>
<text text-anchor="middle" x="129.38" y="-80.75" font-family="Helvetica,sans-Serif" font-size="10.00">PYBIND11_MODULE</text>
</a>
</g>
</g>
<!-- Node1&#45;&gt;Node4 -->
<g id="edge14_Node000001_Node000004" class="edge">
<title>Node1&#45;&gt;Node4</title>
<g id="a_edge14_Node000001_Node000004"><a xlink:title=" ">
<path fill="none" stroke="#63b8ff" d="M652.03,-129.43C554.06,-137.04 372.86,-144.91 221.75,-116.62 197.46,-112.08 170.94,-102.2 152.76,-94.62"/>
<polygon fill="#63b8ff" stroke="#63b8ff" points="652.07,-132.94 661.75,-128.65 651.51,-125.96 652.07,-132.94"/>
</a>
</g>
</g>
<!-- Node3 -->
<g id="Node000003" class="node">
<title>Node3</title>
<g id="a_Node000003"><a xlink:href="../../de/df0/_solver_8cpp_ad0f49408a26339b5f7043bf867c3fa8d.html#ad0f49408a26339b5f7043bf867c3fa8d" target="_top" xlink:title=" ">
<polygon fill="white" stroke="#666666" points="305.25,-19.25 222.5,-19.25 222.5,0 305.25,0 305.25,-19.25"/>
<text text-anchor="middle" x="263.88" y="-5.75" font-family="Helvetica,sans-Serif" font-size="10.00">Inviscid_Solver</text>
</a>
</g>
</g>
<!-- Node2&#45;&gt;Node3 -->
<g id="edge2_Node000002_Node000003" class="edge">
<title>Node2&#45;&gt;Node3</title>
<g id="a_edge2_Node000002_Node000003"><a xlink:title=" ">
<path fill="none" stroke="#63b8ff" d="M519.07,-70.77C499.37,-63.87 474.82,-55.72 452.5,-49.62 402.38,-35.94 343.67,-24.08 305.45,-16.9"/>
<polygon fill="#63b8ff" stroke="#63b8ff" points="517.74,-74.01 528.33,-74.05 520.07,-67.41 517.74,-74.01"/>
</a>
</g>
</g>
<!-- Node2&#45;&gt;Node4 -->
<g id="edge6_Node000002_Node000004" class="edge">
<title>Node2&#45;&gt;Node4</title>
<g id="a_edge6_Node000002_Node000004"><a xlink:title=" ">
<path fill="none" stroke="#63b8ff" d="M500.47,-96.82C484.99,-99.63 468.17,-102.21 452.5,-103.62 350.33,-112.84 323.85,-108.54 221.75,-98.62 210.09,-97.49 197.65,-95.87 185.82,-94.12"/>
<polygon fill="#63b8ff" stroke="#63b8ff" points="500.8,-100.32 509.98,-95.02 499.5,-93.44 500.8,-100.32"/>
</a>
</g>
</g>
<!-- Node7 -->
<g id="Node000007" class="node">
<title>Node7</title>
<g id="a_Node000007"><a xlink:href="../../d0/d64/_numerical___method_8cpp_a794f030971fbb7c9dd4bc08df03f50f1.html#a794f030971fbb7c9dd4bc08df03f50f1" target="_top" xlink:title=" ">
<polygon fill="white" stroke="#666666" points="452.5,-94.25 342,-94.25 342,-75 452.5,-75 452.5,-94.25"/>
<text text-anchor="middle" x="397.25" y="-80.75" font-family="Helvetica,sans-Serif" font-size="10.00">Runge_Kutta_Method</text>
</a>
</g>
</g>
<!-- Node2&#45;&gt;Node7 -->
<g id="edge7_Node000002_Node000007" class="edge">
<title>Node2&#45;&gt;Node7</title>
<g id="a_edge7_Node000002_Node000007"><a xlink:title=" ">
<path fill="none" stroke="#63b8ff" d="M476.79,-84.62C468.64,-84.62 460.5,-84.62 452.71,-84.62"/>
<polygon fill="#63b8ff" stroke="#63b8ff" points="476.78,-88.13 486.78,-84.63 476.78,-81.13 476.78,-88.13"/>
</a>
</g>
</g>
<!-- Node8 -->
<g id="Node000008" class="node">
<title>Node8</title>
<g id="a_Node000008"><a xlink:href="../../de/df0/_solver_8cpp_a2f37f06e8324a1ed6aa99efdbba81865.html#a2f37f06e8324a1ed6aa99efdbba81865" target="_top" xlink:title=" ">
<polygon fill="white" stroke="#666666" points="306,-56.25 221.75,-56.25 221.75,-37 306,-37 306,-56.25"/>
<text text-anchor="middle" x="263.88" y="-42.75" font-family="Helvetica,sans-Serif" font-size="10.00">Viscous_Solver</text>
</a>
</g>
</g>
<!-- Node2&#45;&gt;Node8 -->
<g id="edge13_Node000002_Node000008" class="edge">
<title>Node2&#45;&gt;Node8</title>
<g id="a_edge13_Node000002_Node000008"><a xlink:title=" ">
<path fill="none" stroke="#63b8ff" d="M495.1,-72.54C481.13,-70.04 466.33,-67.58 452.5,-65.62 402.41,-58.55 344.44,-53.09 306.35,-49.88"/>
<polygon fill="#63b8ff" stroke="#63b8ff" points="494.15,-75.92 504.62,-74.27 495.4,-69.04 494.15,-75.92"/>
</a>
</g>
</g>
<!-- Node3&#45;&gt;Node4 -->
<g id="edge3_Node000003_Node000004" class="edge">
<title>Node3&#45;&gt;Node4</title>
<g id="a_edge3_Node000003_Node000004"><a xlink:title=" ">
<path fill="none" stroke="#63b8ff" d="M227.82,-24.55C225.75,-25.56 223.71,-26.59 221.75,-27.62 193.63,-42.45 162.56,-62.72 144.86,-74.67"/>
<polygon fill="#63b8ff" stroke="#63b8ff" points="229.27,-27.74 236.87,-20.35 226.33,-21.39 229.27,-27.74"/>
</a>
</g>
</g>
<!-- Node5 -->
<g id="Node000005" class="node">
<title>Node5</title>
<g id="a_Node000005"><a xlink:href="../../d5/d12/_main_8cpp_a35d775933750ace299102f06a1712663.html#a35d775933750ace299102f06a1712663" target="_top" xlink:title=" ">
<polygon fill="white" stroke="#666666" points="158,-38.25 100.75,-38.25 100.75,-19 158,-19 158,-38.25"/>
<text text-anchor="middle" x="129.38" y="-24.75" font-family="Helvetica,sans-Serif" font-size="10.00">runSolver</text>
</a>
</g>
</g>
<!-- Node3&#45;&gt;Node5 -->
<g id="edge4_Node000003_Node000005" class="edge">
<title>Node3&#45;&gt;Node5</title>
<g id="a_edge4_Node000003_Node000005"><a xlink:title=" ">
<path fill="none" stroke="#63b8ff" d="M210.83,-17.09C192.9,-19.66 173.53,-22.44 158.28,-24.62"/>
<polygon fill="#63b8ff" stroke="#63b8ff" points="211.14,-20.58 220.54,-15.7 210.15,-13.65 211.14,-20.58"/>
</a>
</g>
</g>
<!-- Node6 -->
<g id="Node000006" class="node">
<title>Node6</title>
<g id="a_Node000006"><a xlink:href="../../d5/d12/_main_8cpp_a0ddf1224851353fc92bfbff6f499fa97.html#a0ddf1224851353fc92bfbff6f499fa97" target="_top" xlink:title=" ">
<polygon fill="white" stroke="#666666" points="37,-38.25 0,-38.25 0,-19 37,-19 37,-38.25"/>
<text text-anchor="middle" x="18.5" y="-24.75" font-family="Helvetica,sans-Serif" font-size="10.00">main</text>
</a>
</g>
</g>
<!-- Node5&#45;&gt;Node6 -->
<g id="edge5_Node000005_Node000006" class="edge">
<title>Node5&#45;&gt;Node6</title>
<g id="a_edge5_Node000005_Node000006"><a xlink:title=" ">
<path fill="none" stroke="#63b8ff" d="M88.84,-28.62C71.14,-28.62 51.16,-28.62 37.22,-28.62"/>
<polygon fill="#63b8ff" stroke="#63b8ff" points="88.82,-32.13 98.82,-28.63 88.82,-25.13 88.82,-32.13"/>
</a>
</g>
</g>
<!-- Node7&#45;&gt;Node3 -->
<g id="edge8_Node000007_Node000003" class="edge">
<title>Node7&#45;&gt;Node3</title>
<g id="a_edge8_Node000007_Node000003"><a xlink:title=" ">
<path fill="none" stroke="#63b8ff" d="M372.62,-68.32C354.74,-56.33 329.37,-40.03 306,-27.62 300.77,-24.85 295.02,-22.13 289.52,-19.69"/>
<polygon fill="#63b8ff" stroke="#63b8ff" points="370.47,-71.09 380.71,-73.8 374.39,-65.29 370.47,-71.09"/>
</a>
</g>
</g>
<!-- Node7&#45;&gt;Node4 -->
<g id="edge9_Node000007_Node000004" class="edge">
<title>Node7&#45;&gt;Node4</title>
<g id="a_edge9_Node000007_Node000004"><a xlink:title=" ">
<path fill="none" stroke="#63b8ff" d="M330.54,-84.62C286.17,-84.62 228.24,-84.62 186.12,-84.62"/>
<polygon fill="#63b8ff" stroke="#63b8ff" points="330.29,-88.13 340.29,-84.63 330.29,-81.13 330.29,-88.13"/>
</a>
</g>
</g>
<!-- Node7&#45;&gt;Node8 -->
<g id="edge10_Node000007_Node000008" class="edge">
<title>Node7&#45;&gt;Node8</title>
<g id="a_edge10_Node000007_Node000008"><a xlink:title=" ">
<path fill="none" stroke="#63b8ff" d="M350.68,-71.44C333.87,-66.58 315.12,-61.16 299.44,-56.62"/>
<polygon fill="#63b8ff" stroke="#63b8ff" points="349.36,-74.7 359.93,-74.12 351.3,-67.98 349.36,-74.7"/>
</a>
</g>
</g>
<!-- Node8&#45;&gt;Node4 -->
<g id="edge11_Node000008_Node000004" class="edge">
<title>Node8&#45;&gt;Node4</title>
<g id="a_edge11_Node000008_Node000004"><a xlink:title=" ">
<path fill="none" stroke="#63b8ff" d="M216.91,-59.81C199.96,-64.67 181.05,-70.09 165.24,-74.63"/>
<polygon fill="#63b8ff" stroke="#63b8ff" points="217.61,-63.25 226.26,-57.13 215.68,-56.52 217.61,-63.25"/>
</a>
</g>
</g>
<!-- Node8&#45;&gt;Node5 -->
<g id="edge12_Node000008_Node000005" class="edge">
<title>Node8&#45;&gt;Node5</title>
<g id="a_edge12_Node000008_Node000005"><a xlink:title=" ">
<path fill="none" stroke="#63b8ff" d="M209.97,-39.44C192.33,-37.04 173.37,-34.47 158.38,-32.43"/>
<polygon fill="#63b8ff" stroke="#63b8ff" points="209.43,-42.9 219.81,-40.78 210.38,-35.96 209.43,-42.9"/>
</a>
</g>
</g>
</g>
</svg>
