<?xml version="1.0" encoding="UTF-8" standalone="no"?>
<!DOCTYPE svg PUBLIC "-//W3C//DTD SVG 1.1//EN"
 "http://www.w3.org/Graphics/SVG/1.1/DTD/svg11.dtd">
<!-- Generated by graphviz version 12.2.1 (20241206.2353)
 -->
<!-- Title: Initialize Pages: 1 -->
<svg width="595pt" height="674pt"
 viewBox="0.00 0.00 595.00 673.79" xmlns="http://www.w3.org/2000/svg" xmlns:xlink="http://www.w3.org/1999/xlink">
<g id="graph0" class="graph" transform="scale(1 1) rotate(0) translate(4 669.79)">
<title>Initialize</title>
<!-- Node1 -->
<g id="Node000001" class="node">
<title>Node1</title>
<g id="a_Node000001"><a xlink:title=" ">
<polygon fill="#999999" stroke="#666666" points="587,-342.25 535,-342.25 535,-323 587,-323 587,-342.25"/>
<text text-anchor="middle" x="561" y="-328.75" font-family="Helvetica,sans-Serif" font-size="10.00">Initialize</text>
</a>
</g>
</g>
<!-- Node2 -->
<g id="Node000002" class="node">
<title>Node2</title>
<g id="a_Node000002"><a xlink:href="../../d0/d3f/_channel___flow_8cpp_a986df1d2277d1fc7e22408557f29c135.html#a986df1d2277d1fc7e22408557f29c135" target="_top" xlink:title=" ">
<polygon fill="white" stroke="#666666" points="482.5,-659.25 404.25,-659.25 404.25,-640 482.5,-640 482.5,-659.25"/>
<text text-anchor="middle" x="443.38" y="-645.75" font-family="Helvetica,sans-Serif" font-size="10.00">Channel_Flow</text>
</a>
</g>
</g>
<!-- Node1&#45;&gt;Node2 -->
<g id="edge1_Node000001_Node000002" class="edge">
<title>Node1&#45;&gt;Node2</title>
<g id="a_edge1_Node000001_Node000002"><a xlink:title=" ">
<path fill="none" stroke="#63b8ff" d="M558.42,-353.63C553.42,-414.61 536.06,-589.95 499,-631.62 494.62,-636.55 488.87,-640.13 482.74,-642.74"/>
<polygon fill="#63b8ff" stroke="#63b8ff" points="561.88,-354.2 559.18,-343.95 554.91,-353.65 561.88,-354.2"/>
</a>
</g>
</g>
<!-- Node3 -->
<g id="Node000003" class="node">
<title>Node3</title>
<g id="a_Node000003"><a xlink:href="../../dd/dbf/_euler___python___wrapper_8cpp_ac5ccb50c3be270f798e054dd36987442.html#ac5ccb50c3be270f798e054dd36987442" target="_top" xlink:title=" ">
<polygon fill="white" stroke="#666666" points="185.75,-379.25 73,-379.25 73,-360 185.75,-360 185.75,-379.25"/>
<text text-anchor="middle" x="129.38" y="-365.75" font-family="Helvetica,sans-Serif" font-size="10.00">PYBIND11_MODULE</text>
</a>
</g>
</g>
<!-- Node1&#45;&gt;Node3 -->
<g id="edge23_Node000001_Node000003" class="edge">
<title>Node1&#45;&gt;Node3</title>
<g id="a_edge23_Node000001_Node000003"><a xlink:title=" ">
<path fill="none" stroke="#63b8ff" d="M540.06,-315.53C528.7,-306.59 513.81,-296.19 499,-289.62 385.55,-239.34 333.73,-203.16 221.75,-256.62 175.76,-278.58 145.46,-336.24 134.72,-359.59"/>
<polygon fill="#63b8ff" stroke="#63b8ff" points="537.56,-318 547.52,-321.61 541.98,-312.58 537.56,-318"/>
</a>
</g>
</g>
<!-- Node7 -->
<g id="Node000007" class="node">
<title>Node7</title>
<g id="a_Node000007"><a xlink:href="../../d8/d62/_ellinga___test_case_8cpp_ae7167da7e4a13ec20ea77342a492b6ee.html#ae7167da7e4a13ec20ea77342a492b6ee" target="_top" xlink:title=" ">
<polygon fill="white" stroke="#666666" points="334.12,-172.25 239.38,-172.25 239.38,-153 334.12,-153 334.12,-172.25"/>
<text text-anchor="middle" x="286.75" y="-158.75" font-family="Helvetica,sans-Serif" font-size="10.00">Ellinga_Carbuncle</text>
</a>
</g>
</g>
<!-- Node1&#45;&gt;Node7 -->
<g id="edge7_Node000001_Node000007" class="edge">
<title>Node1&#45;&gt;Node7</title>
<g id="a_edge7_Node000001_Node000007"><a xlink:title=" ">
<path fill="none" stroke="#63b8ff" d="M557.6,-311.34C552.75,-279.1 538.61,-218.5 499,-188.62 451.65,-152.91 380.64,-151.76 334.24,-155.87"/>
<polygon fill="#63b8ff" stroke="#63b8ff" points="554.11,-311.58 558.88,-321.04 561.05,-310.67 554.11,-311.58"/>
</a>
</g>
</g>
<!-- Node8 -->
<g id="Node000008" class="node">
<title>Node8</title>
<g id="a_Node000008"><a xlink:href="../../de/d81/_flat___plate___boundary___layer_8cpp_a787b29de4053181d716a19e7c4c9b705.html#a787b29de4053181d716a19e7c4c9b705" target="_top" xlink:title=" ">
<polygon fill="white" stroke="#666666" points="340.12,-134.88 233.38,-134.88 233.38,-104.38 340.12,-104.38 340.12,-134.88"/>
<text text-anchor="start" x="241.38" y="-121.38" font-family="Helvetica,sans-Serif" font-size="10.00">Flat_Plate_Boundary</text>
<text text-anchor="middle" x="286.75" y="-110.12" font-family="Helvetica,sans-Serif" font-size="10.00">_Layer</text>
</a>
</g>
</g>
<!-- Node1&#45;&gt;Node8 -->
<g id="edge9_Node000001_Node000008" class="edge">
<title>Node1&#45;&gt;Node8</title>
<g id="a_edge9_Node000001_Node000008"><a xlink:title=" ">
<path fill="none" stroke="#63b8ff" d="M559.65,-311.5C557.79,-272.99 547.92,-191.54 499,-150.62 455.07,-113.88 387.22,-110.2 340.32,-113.05"/>
<polygon fill="#63b8ff" stroke="#63b8ff" points="556.15,-311.41 559.97,-321.29 563.14,-311.18 556.15,-311.41"/>
</a>
</g>
</g>
<!-- Node9 -->
<g id="Node000009" class="node">
<title>Node9</title>
<g id="a_Node000009"><a xlink:href="../../da/d4b/_flow___over___bump_8cpp_abaa8184c0dd8aa3fdc37d585f0a7d0cc.html#abaa8184c0dd8aa3fdc37d585f0a7d0cc" target="_top" xlink:title=" ">
<polygon fill="white" stroke="#666666" points="490.38,-622.25 396.38,-622.25 396.38,-603 490.38,-603 490.38,-622.25"/>
<text text-anchor="middle" x="443.38" y="-608.75" font-family="Helvetica,sans-Serif" font-size="10.00">Flow_Over_Bump</text>
</a>
</g>
</g>
<!-- Node1&#45;&gt;Node9 -->
<g id="edge11_Node000001_Node000009" class="edge">
<title>Node1&#45;&gt;Node9</title>
<g id="a_edge11_Node000001_Node000009"><a xlink:title=" ">
<path fill="none" stroke="#63b8ff" d="M557.73,-353.92C551.35,-409.83 531.6,-558.97 499,-594.62 496.1,-597.79 492.64,-600.41 488.88,-602.56"/>
<polygon fill="#63b8ff" stroke="#63b8ff" points="561.18,-354.48 558.81,-344.15 554.23,-353.71 561.18,-354.48"/>
</a>
</g>
</g>
<!-- Node10 -->
<g id="Node000010" class="node">
<title>Node10</title>
<g id="a_Node000010"><a xlink:href="../../dc/d8c/_forward___facing___step_8cpp_a5f68d17ee33caeda5da8c4270441108c.html#a5f68d17ee33caeda5da8c4270441108c" target="_top" xlink:title=" ">
<polygon fill="white" stroke="#666666" points="499,-585.25 387.75,-585.25 387.75,-566 499,-566 499,-585.25"/>
<text text-anchor="middle" x="443.38" y="-571.75" font-family="Helvetica,sans-Serif" font-size="10.00">Forward_Facing_Step</text>
</a>
</g>
</g>
<!-- Node1&#45;&gt;Node10 -->
<g id="edge14_Node000001_Node000010" class="edge">
<title>Node1&#45;&gt;Node10</title>
<g id="a_edge14_Node000001_Node000010"><a xlink:title=" ">
<path fill="none" stroke="#63b8ff" d="M560.51,-354.02C560.38,-398.13 553.74,-499.88 499,-557.62 495.98,-560.81 492.38,-563.44 488.5,-565.6"/>
<polygon fill="#63b8ff" stroke="#63b8ff" points="564.01,-354.22 560.42,-344.25 557.01,-354.29 564.01,-354.22"/>
</a>
</g>
</g>
<!-- Node11 -->
<g id="Node000011" class="node">
<title>Node11</title>
<g id="a_Node000011"><a xlink:href="../../df/dee/_half___cylinder___test___case_8cpp_ad6cb651752c2dd1cb946428572cfb769.html#ad6cb651752c2dd1cb946428572cfb769" target="_top" xlink:title=" ">
<polygon fill="white" stroke="#666666" points="494.12,-548.25 392.62,-548.25 392.62,-529 494.12,-529 494.12,-548.25"/>
<text text-anchor="middle" x="443.38" y="-534.75" font-family="Helvetica,sans-Serif" font-size="10.00">Half_Cylinder_Flow</text>
</a>
</g>
</g>
<!-- Node1&#45;&gt;Node11 -->
<g id="edge17_Node000001_Node000011" class="edge">
<title>Node1&#45;&gt;Node11</title>
<g id="a_edge17_Node000001_Node000011"><a xlink:title=" ">
<path fill="none" stroke="#63b8ff" d="M559.16,-353.63C556.48,-392.07 545.33,-474.09 499,-520.62 495.83,-523.81 492.09,-526.43 488.07,-528.59"/>
<polygon fill="#63b8ff" stroke="#63b8ff" points="562.64,-354.06 559.7,-343.88 555.65,-353.67 562.64,-354.06"/>
</a>
</g>
</g>
<!-- Node12 -->
<g id="Node000012" class="node">
<title>Node12</title>
<g id="a_Node000012"><a xlink:href="../../d7/d6d/_initialize_8cpp_aa59beb74c9d4ef2bcd7e6d86f16dc682.html#aa59beb74c9d4ef2bcd7e6d86f16dc682" target="_top" xlink:title=" ">
<polygon fill="white" stroke="#666666" points="469.38,-19.25 417.38,-19.25 417.38,0 469.38,0 469.38,-19.25"/>
<text text-anchor="middle" x="443.38" y="-5.75" font-family="Helvetica,sans-Serif" font-size="10.00">Initialize</text>
</a>
</g>
</g>
<!-- Node1&#45;&gt;Node12 -->
<g id="edge20_Node000001_Node000012" class="edge">
<title>Node1&#45;&gt;Node12</title>
<g id="a_edge20_Node000001_Node000012"><a xlink:title=" ">
<path fill="none" stroke="#63b8ff" d="M558.19,-311.38C552.61,-250.48 533.95,-76.93 499,-33.62 491.71,-24.6 480.35,-18.87 469.87,-15.29"/>
<polygon fill="#63b8ff" stroke="#63b8ff" points="554.68,-311.41 559.05,-321.07 561.65,-310.8 554.68,-311.41"/>
</a>
</g>
</g>
<!-- Node13 -->
<g id="Node000013" class="node">
<title>Node13</title>
<g id="a_Node000013"><a xlink:href="../../de/dc4/_o_e_d_8cpp_a1404a4711dcead4c50dd9eaa2ab7b7c0.html#a1404a4711dcead4c50dd9eaa2ab7b7c0" target="_top" xlink:title=" ">
<polygon fill="white" stroke="#666666" points="305.62,-86.25 267.88,-86.25 267.88,-67 305.62,-67 305.62,-86.25"/>
<text text-anchor="middle" x="286.75" y="-72.75" font-family="Helvetica,sans-Serif" font-size="10.00">OED</text>
</a>
</g>
</g>
<!-- Node1&#45;&gt;Node13 -->
<g id="edge21_Node000001_Node000013" class="edge">
<title>Node1&#45;&gt;Node13</title>
<g id="a_edge21_Node000001_Node000013"><a xlink:title=" ">
<path fill="none" stroke="#63b8ff" d="M557.13,-311.28C549.9,-260.9 529.35,-136.75 499,-109.62 443.79,-60.27 346.34,-67.8 306.01,-73.53"/>
<polygon fill="#63b8ff" stroke="#63b8ff" points="553.66,-311.73 558.5,-321.15 560.59,-310.76 553.66,-311.73"/>
</a>
</g>
</g>
<!-- Node14 -->
<g id="Node000014" class="node">
<title>Node14</title>
<g id="a_Node000014"><a xlink:href="../../dd/de9/_ramp__15___degree_8cpp_af85931ed4e293dce5c8e4acafecd54b5.html#af85931ed4e293dce5c8e4acafecd54b5" target="_top" xlink:title=" ">
<polygon fill="white" stroke="#666666" points="490.75,-511.25 396,-511.25 396,-492 490.75,-492 490.75,-511.25"/>
<text text-anchor="middle" x="443.38" y="-497.75" font-family="Helvetica,sans-Serif" font-size="10.00">Ramp_15_Degree</text>
</a>
</g>
</g>
<!-- Node1&#45;&gt;Node14 -->
<g id="edge24_Node000001_Node000014" class="edge">
<title>Node1&#45;&gt;Node14</title>
<g id="a_edge24_Node000001_Node000014"><a xlink:title=" ">
<path fill="none" stroke="#63b8ff" d="M557.14,-353.97C551.67,-386.47 536.71,-448.31 499,-483.62 495.57,-486.83 491.57,-489.47 487.3,-491.64"/>
<polygon fill="#63b8ff" stroke="#63b8ff" points="560.58,-354.61 558.62,-344.2 553.66,-353.57 560.58,-354.61"/>
</a>
</g>
</g>
<!-- Node15 -->
<g id="Node000015" class="node">
<title>Node15</title>
<g id="a_Node000015"><a xlink:href="../../d2/d72/_scram___jet___inlet___test___case_8cpp_a49bbbeed352ab44d6248954f9d5391b0.html#a49bbbeed352ab44d6248954f9d5391b0" target="_top" xlink:title=" ">
<polygon fill="white" stroke="#666666" points="487,-474.25 399.75,-474.25 399.75,-455 487,-455 487,-474.25"/>
<text text-anchor="middle" x="443.38" y="-460.75" font-family="Helvetica,sans-Serif" font-size="10.00">Scram_Jet_Inlet</text>
</a>
</g>
</g>
<!-- Node1&#45;&gt;Node15 -->
<g id="edge27_Node000001_Node000015" class="edge">
<title>Node1&#45;&gt;Node15</title>
<g id="a_edge27_Node000001_Node000015"><a xlink:title=" ">
<path fill="none" stroke="#63b8ff" d="M553.89,-353.55C545.5,-378.79 528.03,-420.91 499,-445.62 494.72,-449.27 489.7,-452.23 484.46,-454.63"/>
<polygon fill="#63b8ff" stroke="#63b8ff" points="557.2,-354.69 556.85,-344.1 550.52,-352.6 557.2,-354.69"/>
</a>
</g>
</g>
<!-- Node16 -->
<g id="Node000016" class="node">
<title>Node16</title>
<g id="a_Node000016"><a xlink:href="../../d1/d48/_shock___bubble___interaction_8cpp_a4cb762eff7e59896e567775356bda66a.html#a4cb762eff7e59896e567775356bda66a" target="_top" xlink:title=" ">
<polygon fill="white" stroke="#666666" points="351.75,-49.25 221.75,-49.25 221.75,-30 351.75,-30 351.75,-49.25"/>
<text text-anchor="middle" x="286.75" y="-35.75" font-family="Helvetica,sans-Serif" font-size="10.00">Shock_Bubble_Interaction</text>
</a>
</g>
</g>
<!-- Node1&#45;&gt;Node16 -->
<g id="edge30_Node000001_Node000016" class="edge">
<title>Node1&#45;&gt;Node16</title>
<g id="a_edge30_Node000001_Node000016"><a xlink:title=" ">
<path fill="none" stroke="#63b8ff" d="M558.21,-311.39C552.93,-254.31 535.47,-99.68 499,-66.62 459.82,-31.12 398.5,-26.86 351.99,-30.01"/>
<polygon fill="#63b8ff" stroke="#63b8ff" points="554.69,-311.41 559.06,-321.06 561.67,-310.79 554.69,-311.41"/>
</a>
</g>
</g>
<!-- Node17 -->
<g id="Node000017" class="node">
<title>Node17</title>
<g id="a_Node000017"><a xlink:href="../../d5/d9f/_shock___diffraction_8cpp_a464d43fab5d32cc9ecee800dfab8e5c8.html#a464d43fab5d32cc9ecee800dfab8e5c8" target="_top" xlink:title=" ">
<polygon fill="white" stroke="#666666" points="333.75,-322.25 239.75,-322.25 239.75,-303 333.75,-303 333.75,-322.25"/>
<text text-anchor="middle" x="286.75" y="-308.75" font-family="Helvetica,sans-Serif" font-size="10.00">Shock_Diffraction</text>
</a>
</g>
</g>
<!-- Node1&#45;&gt;Node17 -->
<g id="edge32_Node000001_Node000017" class="edge">
<title>Node1&#45;&gt;Node17</title>
<g id="a_edge32_Node000001_Node000017"><a xlink:title=" ">
<path fill="none" stroke="#63b8ff" d="M523.6,-329.95C474.7,-326.36 387.79,-319.97 334.22,-316.04"/>
<polygon fill="#63b8ff" stroke="#63b8ff" points="523.14,-333.43 533.37,-330.67 523.65,-326.45 523.14,-333.43"/>
</a>
</g>
</g>
<!-- Node18 -->
<g id="Node000018" class="node">
<title>Node18</title>
<g id="a_Node000018"><a xlink:href="../../d2/d58/_shock___reflection__2_d_8cpp_a286a95bfcac44ff19264008ffd9506ed.html#a286a95bfcac44ff19264008ffd9506ed" target="_top" xlink:title=" ">
<polygon fill="white" stroke="#666666" points="499,-436.25 387.75,-436.25 387.75,-417 499,-417 499,-436.25"/>
<text text-anchor="middle" x="443.38" y="-422.75" font-family="Helvetica,sans-Serif" font-size="10.00">Shock_Reflection_2D</text>
</a>
</g>
</g>
<!-- Node1&#45;&gt;Node18 -->
<g id="edge34_Node000001_Node000018" class="edge">
<title>Node1&#45;&gt;Node18</title>
<g id="a_edge34_Node000001_Node000018"><a xlink:title=" ">
<path fill="none" stroke="#63b8ff" d="M548.58,-352.05C537.76,-368.91 520.06,-392.87 499,-407.62 493.9,-411.2 488.07,-414.16 482.16,-416.58"/>
<polygon fill="#63b8ff" stroke="#63b8ff" points="551.33,-354.26 553.6,-343.91 545.37,-350.58 551.33,-354.26"/>
</a>
</g>
</g>
<!-- Node19 -->
<g id="Node000019" class="node">
<title>Node19</title>
<g id="a_Node000019"><a xlink:href="../../d6/d4f/_shock___tube__2_d_8cpp_a634f5b7cf63cab96d3b48ed0b4df6ad4.html#a634f5b7cf63cab96d3b48ed0b4df6ad4" target="_top" xlink:title=" ">
<polygon fill="white" stroke="#666666" points="487.75,-398.25 399,-398.25 399,-379 487.75,-379 487.75,-398.25"/>
<text text-anchor="middle" x="443.38" y="-384.75" font-family="Helvetica,sans-Serif" font-size="10.00">Shock_Tube_2D</text>
</a>
</g>
</g>
<!-- Node1&#45;&gt;Node19 -->
<g id="edge37_Node000001_Node000019" class="edge">
<title>Node1&#45;&gt;Node19</title>
<g id="a_edge37_Node000001_Node000019"><a xlink:title=" ">
<path fill="none" stroke="#63b8ff" d="M536.65,-349C525.59,-356.28 511.98,-364.55 499,-370.62 492.76,-373.55 485.92,-376.2 479.25,-378.52"/>
<polygon fill="#63b8ff" stroke="#63b8ff" points="538.42,-352.04 544.75,-343.54 534.5,-346.23 538.42,-352.04"/>
</a>
</g>
</g>
<!-- Node20 -->
<g id="Node000020" class="node">
<title>Node20</title>
<g id="a_Node000020"><a xlink:href="../../de/dda/_shock___wedge___reflection_8cpp_a951397acc5a124a5a006dbd5ae45029a.html#a951397acc5a124a5a006dbd5ae45029a" target="_top" xlink:title=" ">
<polygon fill="white" stroke="#666666" points="351,-285.25 222.5,-285.25 222.5,-266 351,-266 351,-285.25"/>
<text text-anchor="middle" x="286.75" y="-271.75" font-family="Helvetica,sans-Serif" font-size="10.00">Shock_Wedge_Reflection</text>
</a>
</g>
</g>
<!-- Node1&#45;&gt;Node20 -->
<g id="edge40_Node000001_Node000020" class="edge">
<title>Node1&#45;&gt;Node20</title>
<g id="a_edge40_Node000001_Node000020"><a xlink:title=" ">
<path fill="none" stroke="#63b8ff" d="M523.57,-322.66C515.5,-320.57 506.98,-318.44 499,-316.62 447.09,-304.79 387.52,-293.43 344.89,-285.68"/>
<polygon fill="#63b8ff" stroke="#63b8ff" points="522.54,-326.01 533.1,-325.17 524.33,-319.24 522.54,-326.01"/>
</a>
</g>
</g>
<!-- Node21 -->
<g id="Node000021" class="node">
<title>Node21</title>
<g id="a_Node000021"><a xlink:href="../../d8/d8f/_slip___flow__2_d_8cpp_a41030236ecf9b4d95159d7227a838eab.html#a41030236ecf9b4d95159d7227a838eab" target="_top" xlink:title=" ">
<polygon fill="white" stroke="#666666" points="481.75,-361.25 405,-361.25 405,-342 481.75,-342 481.75,-361.25"/>
<text text-anchor="middle" x="443.38" y="-347.75" font-family="Helvetica,sans-Serif" font-size="10.00">Slip_Flow_2D</text>
</a>
</g>
</g>
<!-- Node1&#45;&gt;Node21 -->
<g id="edge42_Node000001_Node000021" class="edge">
<title>Node1&#45;&gt;Node21</title>
<g id="a_edge42_Node000001_Node000021"><a xlink:title=" ">
<path fill="none" stroke="#63b8ff" d="M523.53,-338.62C510.29,-340.79 495.32,-343.25 481.99,-345.44"/>
<polygon fill="#63b8ff" stroke="#63b8ff" points="523.83,-342.12 533.13,-337.04 522.7,-335.21 523.83,-342.12"/>
</a>
</g>
</g>
<!-- Node22 -->
<g id="Node000022" class="node">
<title>Node22</title>
<g id="a_Node000022"><a xlink:href="../../d8/da5/_s_w_b_l_i_8cpp_aab1edbd94ae1737559f5140355148ed8.html#aab1edbd94ae1737559f5140355148ed8" target="_top" xlink:title=" ">
<polygon fill="white" stroke="#666666" points="310.5,-209.25 263,-209.25 263,-190 310.5,-190 310.5,-209.25"/>
<text text-anchor="middle" x="286.75" y="-195.75" font-family="Helvetica,sans-Serif" font-size="10.00">SWBLI</text>
</a>
</g>
</g>
<!-- Node1&#45;&gt;Node22 -->
<g id="edge45_Node000001_Node000022" class="edge">
<title>Node1&#45;&gt;Node22</title>
<g id="a_edge45_Node000001_Node000022"><a xlink:title=" ">
<path fill="none" stroke="#63b8ff" d="M554.62,-311.74C546.89,-286.32 530.04,-244.26 499,-223.62 440.6,-184.79 352.52,-190.38 310.99,-195.84"/>
<polygon fill="#63b8ff" stroke="#63b8ff" points="551.22,-312.57 557.3,-321.25 557.96,-310.68 551.22,-312.57"/>
</a>
</g>
</g>
<!-- Node2&#45;&gt;Node3 -->
<g id="edge2_Node000002_Node000003" class="edge">
<title>Node2&#45;&gt;Node3</title>
<g id="a_edge2_Node000002_Node000003"><a xlink:title=" ">
<path fill="none" stroke="#63b8ff" d="M392.67,-660.62C343.88,-668.36 269.97,-671.52 221.75,-633.62 180.64,-601.32 202.7,-571.09 185.75,-521.62 167.27,-467.69 143.28,-403.72 134.14,-379.54"/>
<polygon fill="#63b8ff" stroke="#63b8ff" points="393.14,-664.1 402.4,-658.95 391.95,-657.2 393.14,-664.1"/>
</a>
</g>
</g>
<!-- Node4 -->
<g id="Node000004" class="node">
<title>Node4</title>
<g id="a_Node000004"><a xlink:href="../../d0/de9/_configuration___read_8cpp_a32d98c169e6f866c6411c53d5758292e.html#a32d98c169e6f866c6411c53d5758292e" target="_top" xlink:title=" ">
<polygon fill="white" stroke="#666666" points="314.62,-550.25 258.88,-550.25 258.88,-531 314.62,-531 314.62,-550.25"/>
<text text-anchor="middle" x="286.75" y="-536.75" font-family="Helvetica,sans-Serif" font-size="10.00">testCase</text>
</a>
</g>
</g>
<!-- Node2&#45;&gt;Node4 -->
<g id="edge3_Node000002_Node000004" class="edge">
<title>Node2&#45;&gt;Node4</title>
<g id="a_edge3_Node000002_Node000004"><a xlink:title=" ">
<path fill="none" stroke="#63b8ff" d="M394.15,-635.02C391.95,-633.96 389.8,-632.82 387.75,-631.62 348.83,-608.91 312.04,-569.08 296.08,-550.58"/>
<polygon fill="#63b8ff" stroke="#63b8ff" points="392.77,-638.24 403.34,-638.95 395.52,-631.8 392.77,-638.24"/>
</a>
</g>
</g>
<!-- Node4&#45;&gt;Node3 -->
<g id="edge4_Node000004_Node000003" class="edge">
<title>Node4&#45;&gt;Node3</title>
<g id="a_edge4_Node000004_Node000003"><a xlink:title=" ">
<path fill="none" stroke="#63b8ff" d="M247.89,-531.07C238.69,-527.55 229.34,-522.84 221.75,-516.62 173.65,-477.19 143.59,-405.42 133.85,-379.39"/>
<polygon fill="#63b8ff" stroke="#63b8ff" points="246.47,-534.28 257.06,-534.19 248.72,-527.66 246.47,-534.28"/>
</a>
</g>
</g>
<!-- Node5 -->
<g id="Node000005" class="node">
<title>Node5</title>
<g id="a_Node000005"><a xlink:href="../../d5/d12/_main_8cpp_a35d775933750ace299102f06a1712663.html#a35d775933750ace299102f06a1712663" target="_top" xlink:title=" ">
<polygon fill="white" stroke="#666666" points="158,-550.25 100.75,-550.25 100.75,-531 158,-531 158,-550.25"/>
<text text-anchor="middle" x="129.38" y="-536.75" font-family="Helvetica,sans-Serif" font-size="10.00">runSolver</text>
</a>
</g>
</g>
<!-- Node4&#45;&gt;Node5 -->
<g id="edge5_Node000004_Node000005" class="edge">
<title>Node4&#45;&gt;Node5</title>
<g id="a_edge5_Node000004_Node000005"><a xlink:title=" ">
<path fill="none" stroke="#63b8ff" d="M247.48,-540.62C219.91,-540.62 183.33,-540.62 158.44,-540.62"/>
<polygon fill="#63b8ff" stroke="#63b8ff" points="247.17,-544.13 257.17,-540.63 247.17,-537.13 247.17,-544.13"/>
</a>
</g>
</g>
<!-- Node6 -->
<g id="Node000006" class="node">
<title>Node6</title>
<g id="a_Node000006"><a xlink:href="../../d5/d12/_main_8cpp_a0ddf1224851353fc92bfbff6f499fa97.html#a0ddf1224851353fc92bfbff6f499fa97" target="_top" xlink:title=" ">
<polygon fill="white" stroke="#666666" points="37,-550.25 0,-550.25 0,-531 37,-531 37,-550.25"/>
<text text-anchor="middle" x="18.5" y="-536.75" font-family="Helvetica,sans-Serif" font-size="10.00">main</text>
</a>
</g>
</g>
<!-- Node5&#45;&gt;Node6 -->
<g id="edge6_Node000005_Node000006" class="edge">
<title>Node5&#45;&gt;Node6</title>
<g id="a_edge6_Node000005_Node000006"><a xlink:title=" ">
<path fill="none" stroke="#63b8ff" d="M88.84,-540.62C71.14,-540.62 51.16,-540.62 37.22,-540.62"/>
<polygon fill="#63b8ff" stroke="#63b8ff" points="88.82,-544.13 98.82,-540.63 88.82,-537.13 88.82,-544.13"/>
</a>
</g>
</g>
<!-- Node7&#45;&gt;Node3 -->
<g id="edge8_Node000007_Node000003" class="edge">
<title>Node7&#45;&gt;Node3</title>
<g id="a_edge8_Node000007_Node000003"><a xlink:title=" ">
<path fill="none" stroke="#63b8ff" d="M228.85,-175.63C226.34,-177.12 223.96,-178.78 221.75,-180.62 162.24,-230.48 138.5,-328.21 132.21,-359.64"/>
<polygon fill="#63b8ff" stroke="#63b8ff" points="230.18,-178.87 237.64,-171.35 227.11,-172.58 230.18,-178.87"/>
</a>
</g>
</g>
<!-- Node8&#45;&gt;Node3 -->
<g id="edge10_Node000008_Node000003" class="edge">
<title>Node8&#45;&gt;Node3</title>
<g id="a_edge10_Node000008_Node000003"><a xlink:title=" ">
<path fill="none" stroke="#63b8ff" d="M223.66,-141.85C223.01,-142.43 222.37,-143.02 221.75,-143.62 155.99,-207.73 136.06,-325.54 131.51,-359.95"/>
<polygon fill="#63b8ff" stroke="#63b8ff" points="225.63,-144.75 231.67,-136.05 221.52,-139.08 225.63,-144.75"/>
</a>
</g>
</g>
<!-- Node9&#45;&gt;Node3 -->
<g id="edge12_Node000009_Node000003" class="edge">
<title>Node9&#45;&gt;Node3</title>
<g id="a_edge12_Node000009_Node000003"><a xlink:title=" ">
<path fill="none" stroke="#63b8ff" d="M395.91,-625.19C347.77,-635.29 272.6,-642.54 221.75,-606.62 216.71,-603.06 150.53,-424.28 134.06,-379.64"/>
<polygon fill="#63b8ff" stroke="#63b8ff" points="396.47,-628.65 405.46,-623.06 394.94,-621.82 396.47,-628.65"/>
</a>
</g>
</g>
<!-- Node9&#45;&gt;Node4 -->
<g id="edge13_Node000009_Node000004" class="edge">
<title>Node9&#45;&gt;Node4</title>
<g id="a_edge13_Node000009_Node000004"><a xlink:title=" ">
<path fill="none" stroke="#63b8ff" d="M398,-598.74C394.5,-597.43 391.05,-596.05 387.75,-594.62 357.31,-581.51 323.75,-562.35 304.28,-550.73"/>
<polygon fill="#63b8ff" stroke="#63b8ff" points="396.5,-601.92 407.09,-601.99 398.85,-595.33 396.5,-601.92"/>
</a>
</g>
</g>
<!-- Node10&#45;&gt;Node3 -->
<g id="edge15_Node000010_Node000003" class="edge">
<title>Node10&#45;&gt;Node3</title>
<g id="a_edge15_Node000010_Node000003"><a xlink:title=" ">
<path fill="none" stroke="#63b8ff" d="M403.59,-589.1C356.45,-602.88 276.46,-617.62 221.75,-581.62 203.25,-569.45 148.59,-420.3 133.99,-379.75"/>
<polygon fill="#63b8ff" stroke="#63b8ff" points="404.56,-592.47 413.1,-586.19 402.51,-585.77 404.56,-592.47"/>
</a>
</g>
</g>
<!-- Node10&#45;&gt;Node4 -->
<g id="edge16_Node000010_Node000004" class="edge">
<title>Node10&#45;&gt;Node4</title>
<g id="a_edge16_Node000010_Node000004"><a xlink:title=" ">
<path fill="none" stroke="#63b8ff" d="M386.69,-563.02C362.27,-557.49 334.73,-551.26 314.91,-546.77"/>
<polygon fill="#63b8ff" stroke="#63b8ff" points="385.65,-566.37 396.17,-565.17 387.19,-559.55 385.65,-566.37"/>
</a>
</g>
</g>
<!-- Node11&#45;&gt;Node3 -->
<g id="edge18_Node000011_Node000003" class="edge">
<title>Node11&#45;&gt;Node3</title>
<g id="a_edge18_Node000011_Node000003"><a xlink:title=" ">
<path fill="none" stroke="#63b8ff" d="M396.41,-551.41C382.21,-554.78 366.44,-557.95 351.75,-559.62 294.35,-566.19 270.66,-590.38 221.75,-559.62 187.97,-538.39 145.46,-415.54 133.58,-379.54"/>
<polygon fill="#63b8ff" stroke="#63b8ff" points="397.07,-554.85 405.94,-549.05 395.39,-548.06 397.07,-554.85"/>
</a>
</g>
</g>
<!-- Node11&#45;&gt;Node4 -->
<g id="edge19_Node000011_Node000004" class="edge">
<title>Node11&#45;&gt;Node4</title>
<g id="a_edge19_Node000011_Node000004"><a xlink:title=" ">
<path fill="none" stroke="#63b8ff" d="M380.76,-539.42C357.84,-539.72 333,-540.04 314.76,-540.28"/>
<polygon fill="#63b8ff" stroke="#63b8ff" points="380.71,-542.92 390.66,-539.29 380.61,-535.92 380.71,-542.92"/>
</a>
</g>
</g>
<!-- Node13&#45;&gt;Node3 -->
<g id="edge22_Node000013_Node000003" class="edge">
<title>Node13&#45;&gt;Node3</title>
<g id="a_edge22_Node000013_Node000003"><a xlink:title=" ">
<path fill="none" stroke="#63b8ff" d="M256.44,-79.37C244.35,-81.89 231.03,-86.65 221.75,-95.62 142.27,-172.5 131.92,-320.22 130.57,-359.71"/>
<polygon fill="#63b8ff" stroke="#63b8ff" points="256.68,-82.88 265.99,-77.82 255.56,-75.97 256.68,-82.88"/>
</a>
</g>
</g>
<!-- Node14&#45;&gt;Node3 -->
<g id="edge25_Node000014_Node000003" class="edge">
<title>Node14&#45;&gt;Node3</title>
<g id="a_edge25_Node000014_Node000003"><a xlink:title=" ">
<path fill="none" stroke="#63b8ff" d="M384.46,-495.77C338.33,-489.32 273.2,-476.1 221.75,-449.62 186.5,-431.49 153.75,-396.84 138.83,-379.72"/>
<polygon fill="#63b8ff" stroke="#63b8ff" points="383.88,-499.23 394.25,-497.07 384.8,-492.29 383.88,-499.23"/>
</a>
</g>
</g>
<!-- Node14&#45;&gt;Node4 -->
<g id="edge26_Node000014_Node000004" class="edge">
<title>Node14&#45;&gt;Node4</title>
<g id="a_edge26_Node000014_Node000004"><a xlink:title=" ">
<path fill="none" stroke="#63b8ff" d="M391.52,-514.45C365.92,-520.91 335.92,-528.48 314.78,-533.81"/>
<polygon fill="#63b8ff" stroke="#63b8ff" points="392.25,-517.88 401.09,-512.04 390.54,-511.09 392.25,-517.88"/>
</a>
</g>
</g>
<!-- Node15&#45;&gt;Node3 -->
<g id="edge28_Node000015_Node000003" class="edge">
<title>Node15&#45;&gt;Node3</title>
<g id="a_edge28_Node000015_Node000003"><a xlink:title=" ">
<path fill="none" stroke="#63b8ff" d="M388.12,-457.75C342.72,-450.95 276.72,-438.62 221.75,-418.62 193.67,-408.41 163.59,-390.84 145.9,-379.75"/>
<polygon fill="#63b8ff" stroke="#63b8ff" points="387.6,-461.21 398,-459.18 388.6,-454.28 387.6,-461.21"/>
</a>
</g>
</g>
<!-- Node15&#45;&gt;Node4 -->
<g id="edge29_Node000015_Node000004" class="edge">
<title>Node15&#45;&gt;Node4</title>
<g id="a_edge29_Node000015_Node000004"><a xlink:title=" ">
<path fill="none" stroke="#63b8ff" d="M397.49,-478.58C394.16,-479.87 390.88,-481.22 387.75,-482.62 356.26,-496.76 321.94,-518.08 302.81,-530.56"/>
<polygon fill="#63b8ff" stroke="#63b8ff" points="398.54,-481.92 406.74,-475.21 396.14,-475.34 398.54,-481.92"/>
</a>
</g>
</g>
<!-- Node16&#45;&gt;Node3 -->
<g id="edge31_Node000016_Node000003" class="edge">
<title>Node16&#45;&gt;Node3</title>
<g id="a_edge31_Node000016_Node000003"><a xlink:title=" ">
<path fill="none" stroke="#63b8ff" d="M223.29,-56.18C222.76,-56.65 222.25,-57.13 221.75,-57.62 132.47,-145.95 129.36,-316.43 130.07,-359.53"/>
<polygon fill="#63b8ff" stroke="#63b8ff" points="225.19,-59.12 231.41,-50.54 221.2,-53.37 225.19,-59.12"/>
</a>
</g>
</g>
<!-- Node17&#45;&gt;Node3 -->
<g id="edge33_Node000017_Node000003" class="edge">
<title>Node17&#45;&gt;Node3</title>
<g id="a_edge33_Node000017_Node000003"><a xlink:title=" ">
<path fill="none" stroke="#63b8ff" d="M247.78,-326.55C219.94,-336.77 182.77,-350.4 157.78,-359.57"/>
<polygon fill="#63b8ff" stroke="#63b8ff" points="248.73,-329.94 256.91,-323.21 246.32,-323.36 248.73,-329.94"/>
</a>
</g>
</g>
<!-- Node18&#45;&gt;Node3 -->
<g id="edge35_Node000018_Node000003" class="edge">
<title>Node18&#45;&gt;Node3</title>
<g id="a_edge35_Node000018_Node000003"><a xlink:title=" ">
<path fill="none" stroke="#63b8ff" d="M376.54,-418.68C332.51,-412.9 273.4,-404.24 221.75,-393.62 202.79,-389.73 181.9,-384.33 164.88,-379.63"/>
<polygon fill="#63b8ff" stroke="#63b8ff" points="375.82,-422.11 386.18,-419.93 376.72,-415.17 375.82,-422.11"/>
</a>
</g>
</g>
<!-- Node18&#45;&gt;Node4 -->
<g id="edge36_Node000018_Node000004" class="edge">
<title>Node18&#45;&gt;Node4</title>
<g id="a_edge36_Node000018_Node000004"><a xlink:title=" ">
<path fill="none" stroke="#63b8ff" d="M395.94,-441.19C393.11,-442.56 390.35,-444.04 387.75,-445.62 348.28,-469.67 311.49,-511.46 295.77,-530.57"/>
<polygon fill="#63b8ff" stroke="#63b8ff" points="397.22,-444.45 405.02,-437.28 394.45,-438.02 397.22,-444.45"/>
</a>
</g>
</g>
<!-- Node19&#45;&gt;Node3 -->
<g id="edge38_Node000019_Node000003" class="edge">
<title>Node19&#45;&gt;Node3</title>
<g id="a_edge38_Node000019_Node000003"><a xlink:title=" ">
<path fill="none" stroke="#63b8ff" d="M387.43,-385.28C330.83,-381.83 243.08,-376.49 186.17,-373.02"/>
<polygon fill="#63b8ff" stroke="#63b8ff" points="386.96,-388.76 397.15,-385.87 387.38,-381.77 386.96,-388.76"/>
</a>
</g>
</g>
<!-- Node19&#45;&gt;Node4 -->
<g id="edge39_Node000019_Node000004" class="edge">
<title>Node19&#45;&gt;Node4</title>
<g id="a_edge39_Node000019_Node000004"><a xlink:title=" ">
<path fill="none" stroke="#63b8ff" d="M393.75,-403.74C391.66,-404.95 389.65,-406.24 387.75,-407.62 340.14,-442.37 304.91,-506.19 292.56,-530.69"/>
<polygon fill="#63b8ff" stroke="#63b8ff" points="395.12,-406.97 402.55,-399.41 392.03,-400.69 395.12,-406.97"/>
</a>
</g>
</g>
<!-- Node20&#45;&gt;Node3 -->
<g id="edge41_Node000020_Node000003" class="edge">
<title>Node20&#45;&gt;Node3</title>
<g id="a_edge41_Node000020_Node000003"><a xlink:title=" ">
<path fill="none" stroke="#63b8ff" d="M230.12,-289.69C227.24,-290.9 224.44,-292.21 221.75,-293.62 187.78,-311.48 154.94,-343.51 139.51,-359.69"/>
<polygon fill="#63b8ff" stroke="#63b8ff" points="231.21,-293.02 239.33,-286.22 228.74,-286.46 231.21,-293.02"/>
</a>
</g>
</g>
<!-- Node21&#45;&gt;Node3 -->
<g id="edge43_Node000021_Node000003" class="edge">
<title>Node21&#45;&gt;Node3</title>
<g id="a_edge43_Node000021_Node000003"><a xlink:title=" ">
<path fill="none" stroke="#63b8ff" d="M393.3,-354.46C337.02,-357.7 244.95,-363.01 186.04,-366.41"/>
<polygon fill="#63b8ff" stroke="#63b8ff" points="393.45,-357.95 403.23,-353.88 393.04,-350.97 393.45,-357.95"/>
</a>
</g>
</g>
<!-- Node21&#45;&gt;Node4 -->
<g id="edge44_Node000021_Node000004" class="edge">
<title>Node21&#45;&gt;Node4</title>
<g id="a_edge44_Node000021_Node000004"><a xlink:title=" ">
<path fill="none" stroke="#63b8ff" d="M394.48,-365C392.11,-366.39 389.85,-367.93 387.75,-369.62 331.32,-415.25 299.98,-501.83 290.7,-530.86"/>
<polygon fill="#63b8ff" stroke="#63b8ff" points="395.85,-368.22 403.31,-360.69 392.79,-361.93 395.85,-368.22"/>
</a>
</g>
</g>
<!-- Node22&#45;&gt;Node3 -->
<g id="edge46_Node000022_Node000003" class="edge">
<title>Node22&#45;&gt;Node3</title>
<g id="a_edge46_Node000022_Node000003"><a xlink:title=" ">
<path fill="none" stroke="#63b8ff" d="M251.68,-207.81C241.31,-211.46 230.39,-216.57 221.75,-223.62 174.05,-262.61 143.95,-333.39 134.01,-359.55"/>
<polygon fill="#63b8ff" stroke="#63b8ff" points="252.62,-211.19 261.13,-204.87 250.54,-204.5 252.62,-211.19"/>
</a>
</g>
</g>
</g>
</svg>
