<?xml version="1.0" encoding="UTF-8" standalone="no"?>
<!DOCTYPE svg PUBLIC "-//W3C//DTD SVG 1.1//EN"
 "http://www.w3.org/Graphics/SVG/1.1/DTD/svg11.dtd">
<!-- Generated by graphviz version 12.2.1 (20241206.2353)
 -->
<!-- Title: get_optimal_launch_params Pages: 1 -->
<svg width="1022pt" height="191pt"
 viewBox="0.00 0.00 1022.25 191.25" xmlns="http://www.w3.org/2000/svg" xmlns:xlink="http://www.w3.org/1999/xlink">
<g id="graph0" class="graph" transform="scale(1 1) rotate(0) translate(4 187.25)">
<title>get_optimal_launch_params</title>
<!-- Node1 -->
<g id="Node000001" class="node">
<title>Node1</title>
<g id="a_Node000001"><a xlink:title=" ">
<polygon fill="#999999" stroke="#666666" points="1014.25,-81.88 914.25,-81.88 914.25,-51.38 1014.25,-51.38 1014.25,-81.88"/>
<text text-anchor="start" x="922.25" y="-68.38" font-family="Helvetica,sans-Serif" font-size="10.00">get_optimal_launch</text>
<text text-anchor="middle" x="964.25" y="-57.12" font-family="Helvetica,sans-Serif" font-size="10.00">_params</text>
</a>
</g>
</g>
<!-- Node2 -->
<g id="Node000002" class="node">
<title>Node2</title>
<g id="a_Node000002"><a xlink:href="../../d8/d45/_matrix___assembly___cuda___host___wrappers_8cpp_ae36b9e499037a7056f613566e598c326.html#ae36b9e499037a7056f613566e598c326" target="_top" xlink:title=" ">
<polygon fill="white" stroke="#666666" points="876.75,-95.25 728.75,-95.25 728.75,-76 876.75,-76 876.75,-95.25"/>
<text text-anchor="middle" x="802.75" y="-81.75" font-family="Helvetica,sans-Serif" font-size="10.00">assemble_dense_matrix_cuda</text>
</a>
</g>
</g>
<!-- Node1&#45;&gt;Node2 -->
<g id="edge1_Node000001_Node000002" class="edge">
<title>Node1&#45;&gt;Node2</title>
<g id="a_edge1_Node000001_Node000002"><a xlink:title=" ">
<path fill="none" stroke="#63b8ff" d="M902.84,-73.82C894.43,-74.82 885.7,-75.86 877.08,-76.89"/>
<polygon fill="#63b8ff" stroke="#63b8ff" points="903.07,-77.32 912.59,-72.66 902.25,-70.37 903.07,-77.32"/>
</a>
</g>
</g>
<!-- Node12 -->
<g id="Node000012" class="node">
<title>Node12</title>
<g id="a_Node000012"><a xlink:href="../../d8/d45/_matrix___assembly___cuda___host___wrappers_8cpp_a8c7dbdb8a9071584c3bfd920264b1a57.html#a8c7dbdb8a9071584c3bfd920264b1a57" target="_top" xlink:title=" ">
<polygon fill="white" stroke="#666666" points="691.25,-57.25 521.5,-57.25 521.5,-38 691.25,-38 691.25,-57.25"/>
<text text-anchor="middle" x="606.38" y="-43.75" font-family="Helvetica,sans-Serif" font-size="10.00">benchmark_matrix_assembly_cuda</text>
</a>
</g>
</g>
<!-- Node1&#45;&gt;Node12 -->
<g id="edge24_Node000001_Node000012" class="edge">
<title>Node1&#45;&gt;Node12</title>
<g id="a_edge24_Node000001_Node000012"><a xlink:title=" ">
<path fill="none" stroke="#63b8ff" d="M902.57,-63.39C844.53,-60.29 756.49,-55.59 691.65,-52.12"/>
<polygon fill="#63b8ff" stroke="#63b8ff" points="902.08,-66.86 912.26,-63.9 902.46,-59.87 902.08,-66.86"/>
</a>
</g>
</g>
<!-- Node13 -->
<g id="Node000013" class="node">
<title>Node13</title>
<g id="a_Node000013"><a xlink:href="../../d8/d45/_matrix___assembly___cuda___host___wrappers_8cpp_a13bc3eb519cbf2d866d97295404c4f18.html#a13bc3eb519cbf2d866d97295404c4f18" target="_top" xlink:title=" ">
<polygon fill="white" stroke="#666666" points="878.25,-132.25 727.25,-132.25 727.25,-113 878.25,-113 878.25,-132.25"/>
<text text-anchor="middle" x="802.75" y="-118.75" font-family="Helvetica,sans-Serif" font-size="10.00">assemble_sparse_matrix_cuda</text>
</a>
</g>
</g>
<!-- Node1&#45;&gt;Node13 -->
<g id="edge14_Node000001_Node000013" class="edge">
<title>Node1&#45;&gt;Node13</title>
<g id="a_edge14_Node000001_Node000013"><a xlink:title=" ">
<path fill="none" stroke="#63b8ff" d="M921.85,-86.96C908.18,-93.18 892.76,-99.68 878.25,-104.62 869.56,-107.59 860.14,-110.26 851.02,-112.59"/>
<polygon fill="#63b8ff" stroke="#63b8ff" points="922.95,-90.31 930.54,-82.93 920,-83.96 922.95,-90.31"/>
</a>
</g>
</g>
<!-- Node16 -->
<g id="Node000016" class="node">
<title>Node16</title>
<g id="a_Node000016"><a xlink:href="../../d8/d45/_matrix___assembly___cuda___host___wrappers_8cpp_a432856cbf9f6d6e1a164717e19752ce5.html#a432856cbf9f6d6e1a164717e19752ce5" target="_top" xlink:title=" ">
<polygon fill="white" stroke="#666666" points="866.25,-19.25 739.25,-19.25 739.25,0 866.25,0 866.25,-19.25"/>
<text text-anchor="middle" x="802.75" y="-5.75" font-family="Helvetica,sans-Serif" font-size="10.00">assemble_vector_b_cuda</text>
</a>
</g>
</g>
<!-- Node1&#45;&gt;Node16 -->
<g id="edge20_Node000001_Node000016" class="edge">
<title>Node1&#45;&gt;Node16</title>
<g id="a_edge20_Node000001_Node000016"><a xlink:title=" ">
<path fill="none" stroke="#63b8ff" d="M914.03,-46.95C902.35,-42.44 889.9,-37.76 878.25,-33.62 864.68,-28.81 849.57,-23.87 836.53,-19.73"/>
<polygon fill="#63b8ff" stroke="#63b8ff" points="912.5,-50.11 923.09,-50.48 915.04,-43.59 912.5,-50.11"/>
</a>
</g>
</g>
<!-- Node3 -->
<g id="Node000003" class="node">
<title>Node3</title>
<g id="a_Node000003"><a xlink:href="../../d5/d81/_matrix___assembly___c_u_d_a___integration___example_8cpp_a34bf8e95732246ba8ece5c8405115be9.html#a34bf8e95732246ba8ece5c8405115be9" target="_top" xlink:title=" ">
<polygon fill="white" stroke="#666666" points="659.38,-95.25 553.38,-95.25 553.38,-76 659.38,-76 659.38,-95.25"/>
<text text-anchor="middle" x="606.38" y="-81.75" font-family="Helvetica,sans-Serif" font-size="10.00">Assemble_A_CUDA</text>
</a>
</g>
</g>
<!-- Node2&#45;&gt;Node3 -->
<g id="edge2_Node000002_Node000003" class="edge">
<title>Node2&#45;&gt;Node3</title>
<g id="a_edge2_Node000002_Node000003"><a xlink:title=" ">
<path fill="none" stroke="#63b8ff" d="M716.92,-85.62C697.48,-85.62 677.38,-85.62 659.78,-85.62"/>
<polygon fill="#63b8ff" stroke="#63b8ff" points="716.75,-89.13 726.75,-85.63 716.75,-82.13 716.75,-89.13"/>
</a>
</g>
</g>
<!-- Node2&#45;&gt;Node12 -->
<g id="edge13_Node000002_Node000012" class="edge">
<title>Node2&#45;&gt;Node12</title>
<g id="a_edge13_Node000002_Node000012"><a xlink:title=" ">
<path fill="none" stroke="#63b8ff" d="M738.95,-73.35C713.06,-68.29 683.43,-62.49 658.86,-57.69"/>
<polygon fill="#63b8ff" stroke="#63b8ff" points="738.2,-76.77 748.69,-75.25 739.54,-69.9 738.2,-76.77"/>
</a>
</g>
</g>
<!-- Node4 -->
<g id="Node000004" class="node">
<title>Node4</title>
<g id="a_Node000004"><a xlink:href="../../d5/d81/_matrix___assembly___c_u_d_a___integration___example_8cpp_ab733b6db749fdfbc6665f7e34b50e5ad.html#ab733b6db749fdfbc6665f7e34b50e5ad" target="_top" xlink:title=" ">
<polygon fill="white" stroke="#666666" points="479.88,-78.88 336.38,-78.88 336.38,-48.38 479.88,-48.38 479.88,-78.88"/>
<text text-anchor="start" x="344.38" y="-65.38" font-family="Helvetica,sans-Serif" font-size="10.00">benchmark_matrix_assembly</text>
<text text-anchor="middle" x="408.12" y="-54.12" font-family="Helvetica,sans-Serif" font-size="10.00">_cpu_vs_cuda</text>
</a>
</g>
</g>
<!-- Node3&#45;&gt;Node4 -->
<g id="edge3_Node000003_Node000004" class="edge">
<title>Node3&#45;&gt;Node4</title>
<g id="a_edge3_Node000003_Node000004"><a xlink:title=" ">
<path fill="none" stroke="#63b8ff" d="M541.73,-78.49C522.05,-76.28 500.26,-73.84 480.12,-71.58"/>
<polygon fill="#63b8ff" stroke="#63b8ff" points="541.21,-81.95 551.54,-79.59 541.99,-75 541.21,-81.95"/>
</a>
</g>
</g>
<!-- Node6 -->
<g id="Node000006" class="node">
<title>Node6</title>
<g id="a_Node000006"><a xlink:href="../../d0/d64/_numerical___method_8cpp_aa2c3379901e623826515d4c9cd96cebe.html#aa2c3379901e623826515d4c9cd96cebe" target="_top" xlink:title=" ">
<polygon fill="white" stroke="#666666" points="450.62,-165.25 365.62,-165.25 365.62,-146 450.62,-146 450.62,-165.25"/>
<text text-anchor="middle" x="408.12" y="-151.75" font-family="Helvetica,sans-Serif" font-size="10.00">Implicit_Method</text>
</a>
</g>
</g>
<!-- Node3&#45;&gt;Node6 -->
<g id="edge5_Node000003_Node000006" class="edge">
<title>Node3&#45;&gt;Node6</title>
<g id="a_edge5_Node000003_Node000006"><a xlink:title=" ">
<path fill="none" stroke="#63b8ff" d="M542.03,-95.4C534.91,-97.61 527.91,-100.31 521.5,-103.62 502.21,-113.58 504.62,-126.35 485.5,-136.62 474.91,-142.31 462.57,-146.34 450.94,-149.17"/>
<polygon fill="#63b8ff" stroke="#63b8ff" points="542.71,-98.85 551.42,-92.82 540.85,-92.1 542.71,-98.85"/>
</a>
</g>
</g>
<!-- Node11 -->
<g id="Node000011" class="node">
<title>Node11</title>
<g id="a_Node000011"><a xlink:href="../../d5/d81/_matrix___assembly___c_u_d_a___integration___example_8cpp_a3a3d77470391a4e87bd8c9864348d89f.html#a3a3d77470391a4e87bd8c9864348d89f" target="_top" xlink:title=" ">
<polygon fill="white" stroke="#666666" points="485.5,-30.25 330.75,-30.25 330.75,-11 485.5,-11 485.5,-30.25"/>
<text text-anchor="middle" x="408.12" y="-16.75" font-family="Helvetica,sans-Serif" font-size="10.00">validate_cuda_cpu_consistency</text>
</a>
</g>
</g>
<!-- Node3&#45;&gt;Node11 -->
<g id="edge11_Node000003_Node000011" class="edge">
<title>Node3&#45;&gt;Node11</title>
<g id="a_edge11_Node000003_Node000011"><a xlink:title=" ">
<path fill="none" stroke="#63b8ff" d="M542.33,-74.4C535.16,-72.23 528.07,-69.66 521.5,-66.62 503.35,-58.23 503.56,-48.21 485.5,-39.62 477.97,-36.05 469.7,-33.1 461.45,-30.68"/>
<polygon fill="#63b8ff" stroke="#63b8ff" points="541.21,-77.72 551.78,-76.99 543.06,-70.97 541.21,-77.72"/>
</a>
</g>
</g>
<!-- Node5 -->
<g id="Node000005" class="node">
<title>Node5</title>
<g id="a_Node000005"><a xlink:href="../../d5/d81/_matrix___assembly___c_u_d_a___integration___example_8cpp_a040fa30a7d9a31fc77785e00a27f6fa6.html#a040fa30a7d9a31fc77785e00a27f6fa6" target="_top" xlink:title=" ">
<polygon fill="white" stroke="#666666" points="294.75,-78.88 166.25,-78.88 166.25,-48.38 294.75,-48.38 294.75,-78.88"/>
<text text-anchor="start" x="174.25" y="-65.38" font-family="Helvetica,sans-Serif" font-size="10.00">demonstrate_cuda_matrix</text>
<text text-anchor="middle" x="230.5" y="-54.12" font-family="Helvetica,sans-Serif" font-size="10.00">_assembly</text>
</a>
</g>
</g>
<!-- Node4&#45;&gt;Node5 -->
<g id="edge4_Node000004_Node000005" class="edge">
<title>Node4&#45;&gt;Node5</title>
<g id="a_edge4_Node000004_Node000005"><a xlink:title=" ">
<path fill="none" stroke="#63b8ff" d="M324.45,-63.62C314.6,-63.62 304.67,-63.62 295.15,-63.62"/>
<polygon fill="#63b8ff" stroke="#63b8ff" points="324.43,-67.13 334.43,-63.63 324.43,-60.13 324.43,-67.13"/>
</a>
</g>
</g>
<!-- Node7 -->
<g id="Node000007" class="node">
<title>Node7</title>
<g id="a_Node000007"><a xlink:href="../../de/df0/_solver_8cpp_a09703a294b5a4e270033b2d488f8f02a.html#a09703a294b5a4e270033b2d488f8f02a" target="_top" xlink:title=" ">
<polygon fill="white" stroke="#666666" points="271.88,-146.25 189.12,-146.25 189.12,-127 271.88,-127 271.88,-146.25"/>
<text text-anchor="middle" x="230.5" y="-132.75" font-family="Helvetica,sans-Serif" font-size="10.00">Inviscid_Solver</text>
</a>
</g>
</g>
<!-- Node6&#45;&gt;Node7 -->
<g id="edge6_Node000006_Node000007" class="edge">
<title>Node6&#45;&gt;Node7</title>
<g id="a_edge6_Node000006_Node000007"><a xlink:title=" ">
<path fill="none" stroke="#63b8ff" d="M354.19,-149.9C327.9,-147.05 296.61,-143.67 272.22,-141.03"/>
<polygon fill="#63b8ff" stroke="#63b8ff" points="353.68,-153.36 364,-150.96 354.43,-146.4 353.68,-153.36"/>
</a>
</g>
</g>
<!-- Node10 -->
<g id="Node000010" class="node">
<title>Node10</title>
<g id="a_Node000010"><a xlink:href="../../de/df0/_solver_8cpp_a313c308da18b517cb3cf0384db6d4d7e.html#a313c308da18b517cb3cf0384db6d4d7e" target="_top" xlink:title=" ">
<polygon fill="white" stroke="#666666" points="272.62,-183.25 188.38,-183.25 188.38,-164 272.62,-164 272.62,-183.25"/>
<text text-anchor="middle" x="230.5" y="-169.75" font-family="Helvetica,sans-Serif" font-size="10.00">Viscous_Solver</text>
</a>
</g>
</g>
<!-- Node6&#45;&gt;Node10 -->
<g id="edge9_Node000006_Node000010" class="edge">
<title>Node6&#45;&gt;Node10</title>
<g id="a_edge9_Node000006_Node000010"><a xlink:title=" ">
<path fill="none" stroke="#63b8ff" d="M354.28,-161.04C328.18,-163.72 297.15,-166.9 272.82,-169.39"/>
<polygon fill="#63b8ff" stroke="#63b8ff" points="354.41,-164.55 364,-160.05 353.69,-157.58 354.41,-164.55"/>
</a>
</g>
</g>
<!-- Node8 -->
<g id="Node000008" class="node">
<title>Node8</title>
<g id="a_Node000008"><a xlink:href="../../d5/d12/_main_8cpp_afed4dca88e059a8cbd2c7af524468fe5.html#afed4dca88e059a8cbd2c7af524468fe5" target="_top" xlink:title="Executes the appropriate solver based on the simulation configuration.">
<polygon fill="white" stroke="#666666" points="130.25,-164.25 73,-164.25 73,-145 130.25,-145 130.25,-164.25"/>
<text text-anchor="middle" x="101.62" y="-150.75" font-family="Helvetica,sans-Serif" font-size="10.00">runSolver</text>
</a>
</g>
</g>
<!-- Node7&#45;&gt;Node8 -->
<g id="edge7_Node000007_Node000008" class="edge">
<title>Node7&#45;&gt;Node8</title>
<g id="a_edge7_Node000007_Node000008"><a xlink:title=" ">
<path fill="none" stroke="#63b8ff" d="M177.71,-143.97C161.57,-146.26 144.4,-148.7 130.55,-150.66"/>
<polygon fill="#63b8ff" stroke="#63b8ff" points="177.75,-147.5 187.16,-142.63 176.77,-140.57 177.75,-147.5"/>
</a>
</g>
</g>
<!-- Node9 -->
<g id="Node000009" class="node">
<title>Node9</title>
<g id="a_Node000009"><a xlink:href="../../d5/d12/_main_8cpp_a0ddf1224851353fc92bfbff6f499fa97.html#a0ddf1224851353fc92bfbff6f499fa97" target="_top" xlink:title=" ">
<polygon fill="white" stroke="#666666" points="37,-164.25 0,-164.25 0,-145 37,-145 37,-164.25"/>
<text text-anchor="middle" x="18.5" y="-150.75" font-family="Helvetica,sans-Serif" font-size="10.00">main</text>
</a>
</g>
</g>
<!-- Node8&#45;&gt;Node9 -->
<g id="edge8_Node000008_Node000009" class="edge">
<title>Node8&#45;&gt;Node9</title>
<g id="a_edge8_Node000008_Node000009"><a xlink:title=" ">
<path fill="none" stroke="#63b8ff" d="M61.38,-154.62C52.95,-154.62 44.43,-154.62 37.3,-154.62"/>
<polygon fill="#63b8ff" stroke="#63b8ff" points="61.19,-158.13 71.19,-154.63 61.19,-151.13 61.19,-158.13"/>
</a>
</g>
</g>
<!-- Node10&#45;&gt;Node8 -->
<g id="edge10_Node000010_Node000008" class="edge">
<title>Node10&#45;&gt;Node8</title>
<g id="a_edge10_Node000010_Node000008"><a xlink:title=" ">
<path fill="none" stroke="#63b8ff" d="M176.67,-165.71C160.87,-163.35 144.17,-160.85 130.64,-158.82"/>
<polygon fill="#63b8ff" stroke="#63b8ff" points="176.05,-169.16 186.46,-167.18 177.09,-162.24 176.05,-169.16"/>
</a>
</g>
</g>
<!-- Node11&#45;&gt;Node5 -->
<g id="edge12_Node000011_Node000005" class="edge">
<title>Node11&#45;&gt;Node5</title>
<g id="a_edge12_Node000011_Node000005"><a xlink:title=" ">
<path fill="none" stroke="#63b8ff" d="M354.93,-33.4C336.15,-38 314.75,-43.24 295.11,-48.05"/>
<polygon fill="#63b8ff" stroke="#63b8ff" points="355.6,-36.84 364.48,-31.07 353.93,-30.05 355.6,-36.84"/>
</a>
</g>
</g>
<!-- Node13&#45;&gt;Node12 -->
<g id="edge19_Node000013_Node000012" class="edge">
<title>Node13&#45;&gt;Node12</title>
<g id="a_edge19_Node000013_Node000012"><a xlink:title=" ">
<path fill="none" stroke="#63b8ff" d="M734.51,-108.38C732.01,-107.22 729.58,-105.97 727.25,-104.62 707.12,-92.97 711.47,-78.14 691.25,-66.62 684.89,-63.01 677.9,-60.07 670.74,-57.7"/>
<polygon fill="#63b8ff" stroke="#63b8ff" points="733.08,-111.58 743.67,-112.06 735.69,-105.08 733.08,-111.58"/>
</a>
</g>
</g>
<!-- Node14 -->
<g id="Node000014" class="node">
<title>Node14</title>
<g id="a_Node000014"><a xlink:href="../../d5/d81/_matrix___assembly___c_u_d_a___integration___example_8cpp_a9a8a1fa6b968c9a66766d033498062bd.html#a9a8a1fa6b968c9a66766d033498062bd" target="_top" xlink:title=" ">
<polygon fill="white" stroke="#666666" points="662,-132.25 550.75,-132.25 550.75,-113 662,-113 662,-132.25"/>
<text text-anchor="middle" x="606.38" y="-118.75" font-family="Helvetica,sans-Serif" font-size="10.00">Assemble_A1_CUDA</text>
</a>
</g>
</g>
<!-- Node13&#45;&gt;Node14 -->
<g id="edge15_Node000013_Node000014" class="edge">
<title>Node13&#45;&gt;Node14</title>
<g id="a_edge15_Node000013_Node000014"><a xlink:title=" ">
<path fill="none" stroke="#63b8ff" d="M715.42,-122.62C697.38,-122.62 678.82,-122.62 662.29,-122.62"/>
<polygon fill="#63b8ff" stroke="#63b8ff" points="715.36,-126.13 725.36,-122.63 715.36,-119.13 715.36,-126.13"/>
</a>
</g>
</g>
<!-- Node14&#45;&gt;Node6 -->
<g id="edge18_Node000014_Node000006" class="edge">
<title>Node14&#45;&gt;Node6</title>
<g id="a_edge18_Node000014_Node000006"><a xlink:title=" ">
<path fill="none" stroke="#63b8ff" d="M539.47,-133.71C510.23,-138.62 476.68,-144.27 450.95,-148.59"/>
<polygon fill="#63b8ff" stroke="#63b8ff" points="539.67,-137.22 548.95,-132.11 538.51,-130.32 539.67,-137.22"/>
</a>
</g>
</g>
<!-- Node15 -->
<g id="Node000015" class="node">
<title>Node15</title>
<g id="a_Node000015"><a xlink:href="../../d5/d81/_matrix___assembly___c_u_d_a___integration___example_8cpp_a5c8a4e884792f59235b7ed2070521d14.html#a5c8a4e884792f59235b7ed2070521d14" target="_top" xlink:title=" ">
<polygon fill="white" stroke="#666666" points="473.5,-127.88 342.75,-127.88 342.75,-97.38 473.5,-97.38 473.5,-127.88"/>
<text text-anchor="start" x="350.75" y="-114.38" font-family="Helvetica,sans-Serif" font-size="10.00">benchmark_sparse_matrix</text>
<text text-anchor="middle" x="408.12" y="-103.12" font-family="Helvetica,sans-Serif" font-size="10.00">_assembly</text>
</a>
</g>
</g>
<!-- Node14&#45;&gt;Node15 -->
<g id="edge16_Node000014_Node000015" class="edge">
<title>Node14&#45;&gt;Node15</title>
<g id="a_edge16_Node000014_Node000015"><a xlink:title=" ">
<path fill="none" stroke="#63b8ff" d="M539,-119.24C517.95,-118.17 494.71,-116.99 473.77,-115.92"/>
<polygon fill="#63b8ff" stroke="#63b8ff" points="538.77,-122.74 548.94,-119.75 539.13,-115.74 538.77,-122.74"/>
</a>
</g>
</g>
<!-- Node15&#45;&gt;Node5 -->
<g id="edge17_Node000015_Node000005" class="edge">
<title>Node15&#45;&gt;Node5</title>
<g id="a_edge17_Node000015_Node000005"><a xlink:title=" ">
<path fill="none" stroke="#63b8ff" d="M340.47,-94.03C323.15,-89.19 304.66,-84.04 287.92,-79.37"/>
<polygon fill="#63b8ff" stroke="#63b8ff" points="339.04,-97.26 349.62,-96.58 340.92,-90.52 339.04,-97.26"/>
</a>
</g>
</g>
<!-- Node16&#45;&gt;Node12 -->
<g id="edge23_Node000016_Node000012" class="edge">
<title>Node16&#45;&gt;Node12</title>
<g id="a_edge23_Node000016_Node000012"><a xlink:title=" ">
<path fill="none" stroke="#63b8ff" d="M738.95,-21.9C713.06,-26.96 683.43,-32.76 658.86,-37.56"/>
<polygon fill="#63b8ff" stroke="#63b8ff" points="739.54,-25.35 748.69,-20 738.2,-18.48 739.54,-25.35"/>
</a>
</g>
</g>
<!-- Node17 -->
<g id="Node000017" class="node">
<title>Node17</title>
<g id="a_Node000017"><a xlink:href="../../d5/d81/_matrix___assembly___c_u_d_a___integration___example_8cpp_a6607025671f5fc8e4de5def2cecfb05b.html#a6607025671f5fc8e4de5def2cecfb05b" target="_top" xlink:title=" ">
<polygon fill="white" stroke="#666666" points="658.62,-20.25 554.12,-20.25 554.12,-1 658.62,-1 658.62,-20.25"/>
<text text-anchor="middle" x="606.38" y="-6.75" font-family="Helvetica,sans-Serif" font-size="10.00">Assemble_b_CUDA</text>
</a>
</g>
</g>
<!-- Node16&#45;&gt;Node17 -->
<g id="edge21_Node000016_Node000017" class="edge">
<title>Node16&#45;&gt;Node17</title>
<g id="a_edge21_Node000016_Node000017"><a xlink:title=" ">
<path fill="none" stroke="#63b8ff" d="M727.5,-10.01C704.63,-10.12 679.96,-10.25 658.96,-10.36"/>
<polygon fill="#63b8ff" stroke="#63b8ff" points="727.42,-13.51 737.4,-9.96 727.38,-6.51 727.42,-13.51"/>
</a>
</g>
</g>
<!-- Node17&#45;&gt;Node11 -->
<g id="edge22_Node000017_Node000011" class="edge">
<title>Node17&#45;&gt;Node11</title>
<g id="a_edge22_Node000017_Node000011"><a xlink:title=" ">
<path fill="none" stroke="#63b8ff" d="M542.55,-13.83C524.5,-14.75 504.61,-15.76 485.83,-16.72"/>
<polygon fill="#63b8ff" stroke="#63b8ff" points="542.49,-17.33 552.3,-13.33 542.14,-10.34 542.49,-17.33"/>
</a>
</g>
</g>
</g>
</svg>
