<?xml version="1.0" encoding="UTF-8" standalone="no"?>
<!DOCTYPE svg PUBLIC "-//W3C//DTD SVG 1.1//EN"
 "http://www.w3.org/Graphics/SVG/1.1/DTD/svg11.dtd">
<!-- Generated by graphviz version 12.2.1 (20241206.2353)
 -->
<!-- Title: get_optimal_launch_params Pages: 1 -->
<svg width="856pt" height="149pt"
 viewBox="0.00 0.00 856.00 148.88" xmlns="http://www.w3.org/2000/svg" xmlns:xlink="http://www.w3.org/1999/xlink">
<g id="graph0" class="graph" transform="scale(1 1) rotate(0) translate(4 144.88)">
<title>get_optimal_launch_params</title>
<!-- Node1 -->
<g id="Node000001" class="node">
<title>Node1</title>
<g id="a_Node000001"><a xlink:title=" ">
<polygon fill="#999999" stroke="#666666" points="848,-81.88 748,-81.88 748,-51.38 848,-51.38 848,-81.88"/>
<text text-anchor="start" x="756" y="-68.38" font-family="Helvetica,sans-Serif" font-size="10.00">get_optimal_launch</text>
<text text-anchor="middle" x="798" y="-57.12" font-family="Helvetica,sans-Serif" font-size="10.00">_params</text>
</a>
</g>
</g>
<!-- Node2 -->
<g id="Node000002" class="node">
<title>Node2</title>
<g id="a_Node000002"><a xlink:href="../../d8/d45/_matrix___assembly___cuda___host___wrappers_8cpp_ae36b9e499037a7056f613566e598c326.html#ae36b9e499037a7056f613566e598c326" target="_top" xlink:title=" ">
<polygon fill="white" stroke="#666666" points="710.5,-132.25 562.5,-132.25 562.5,-113 710.5,-113 710.5,-132.25"/>
<text text-anchor="middle" x="636.5" y="-118.75" font-family="Helvetica,sans-Serif" font-size="10.00">assemble_dense_matrix_cuda</text>
</a>
</g>
</g>
<!-- Node1&#45;&gt;Node2 -->
<g id="edge1_Node000001_Node000002" class="edge">
<title>Node1&#45;&gt;Node2</title>
<g id="a_edge1_Node000001_Node000002"><a xlink:title=" ">
<path fill="none" stroke="#63b8ff" d="M755.6,-86.96C741.93,-93.18 726.51,-99.68 712,-104.62 703.31,-107.59 693.89,-110.26 684.77,-112.59"/>
<polygon fill="#63b8ff" stroke="#63b8ff" points="756.7,-90.31 764.29,-82.93 753.75,-83.96 756.7,-90.31"/>
</a>
</g>
</g>
<!-- Node7 -->
<g id="Node000007" class="node">
<title>Node7</title>
<g id="a_Node000007"><a xlink:href="../../d8/d45/_matrix___assembly___cuda___host___wrappers_8cpp_a8c7dbdb8a9071584c3bfd920264b1a57.html#a8c7dbdb8a9071584c3bfd920264b1a57" target="_top" xlink:title=" ">
<polygon fill="white" stroke="#666666" points="525,-57.25 355.25,-57.25 355.25,-38 525,-38 525,-57.25"/>
<text text-anchor="middle" x="440.12" y="-43.75" font-family="Helvetica,sans-Serif" font-size="10.00">benchmark_matrix_assembly_cuda</text>
</a>
</g>
</g>
<!-- Node1&#45;&gt;Node7 -->
<g id="edge17_Node000001_Node000007" class="edge">
<title>Node1&#45;&gt;Node7</title>
<g id="a_edge17_Node000001_Node000007"><a xlink:title=" ">
<path fill="none" stroke="#63b8ff" d="M736.32,-63.39C678.28,-60.29 590.24,-55.59 525.4,-52.12"/>
<polygon fill="#63b8ff" stroke="#63b8ff" points="735.83,-66.86 746.01,-63.9 736.21,-59.87 735.83,-66.86"/>
</a>
</g>
</g>
<!-- Node8 -->
<g id="Node000008" class="node">
<title>Node8</title>
<g id="a_Node000008"><a xlink:href="../../d8/d45/_matrix___assembly___cuda___host___wrappers_8cpp_a13bc3eb519cbf2d866d97295404c4f18.html#a13bc3eb519cbf2d866d97295404c4f18" target="_top" xlink:title=" ">
<polygon fill="white" stroke="#666666" points="712,-19.25 561,-19.25 561,0 712,0 712,-19.25"/>
<text text-anchor="middle" x="636.5" y="-5.75" font-family="Helvetica,sans-Serif" font-size="10.00">assemble_sparse_matrix_cuda</text>
</a>
</g>
</g>
<!-- Node1&#45;&gt;Node8 -->
<g id="edge8_Node000001_Node000008" class="edge">
<title>Node1&#45;&gt;Node8</title>
<g id="a_edge8_Node000001_Node000008"><a xlink:title=" ">
<path fill="none" stroke="#63b8ff" d="M747.78,-46.95C736.1,-42.44 723.65,-37.76 712,-33.62 698.43,-28.81 683.32,-23.87 670.28,-19.73"/>
<polygon fill="#63b8ff" stroke="#63b8ff" points="746.25,-50.11 756.84,-50.48 748.79,-43.59 746.25,-50.11"/>
</a>
</g>
</g>
<!-- Node11 -->
<g id="Node000011" class="node">
<title>Node11</title>
<g id="a_Node000011"><a xlink:href="../../d8/d45/_matrix___assembly___cuda___host___wrappers_8cpp_a432856cbf9f6d6e1a164717e19752ce5.html#a432856cbf9f6d6e1a164717e19752ce5" target="_top" xlink:title=" ">
<polygon fill="white" stroke="#666666" points="700,-95.25 573,-95.25 573,-76 700,-76 700,-95.25"/>
<text text-anchor="middle" x="636.5" y="-81.75" font-family="Helvetica,sans-Serif" font-size="10.00">assemble_vector_b_cuda</text>
</a>
</g>
</g>
<!-- Node1&#45;&gt;Node11 -->
<g id="edge13_Node000001_Node000011" class="edge">
<title>Node1&#45;&gt;Node11</title>
<g id="a_edge13_Node000001_Node000011"><a xlink:title=" ">
<path fill="none" stroke="#63b8ff" d="M736.67,-73.81C724.79,-75.23 712.29,-76.72 700.33,-78.14"/>
<polygon fill="#63b8ff" stroke="#63b8ff" points="736.82,-77.32 746.34,-72.66 736,-70.37 736.82,-77.32"/>
</a>
</g>
</g>
<!-- Node3 -->
<g id="Node000003" class="node">
<title>Node3</title>
<g id="a_Node000003"><a xlink:href="../../d5/d81/_matrix___assembly___c_u_d_a___integration___example_8cpp_a34bf8e95732246ba8ece5c8405115be9.html#a34bf8e95732246ba8ece5c8405115be9" target="_top" xlink:title=" ">
<polygon fill="white" stroke="#666666" points="493.12,-132.25 387.12,-132.25 387.12,-113 493.12,-113 493.12,-132.25"/>
<text text-anchor="middle" x="440.12" y="-118.75" font-family="Helvetica,sans-Serif" font-size="10.00">Assemble_A_CUDA</text>
</a>
</g>
</g>
<!-- Node2&#45;&gt;Node3 -->
<g id="edge2_Node000002_Node000003" class="edge">
<title>Node2&#45;&gt;Node3</title>
<g id="a_edge2_Node000002_Node000003"><a xlink:title=" ">
<path fill="none" stroke="#63b8ff" d="M550.67,-122.62C531.23,-122.62 511.13,-122.62 493.53,-122.62"/>
<polygon fill="#63b8ff" stroke="#63b8ff" points="550.5,-126.13 560.5,-122.63 550.5,-119.13 550.5,-126.13"/>
</a>
</g>
</g>
<!-- Node2&#45;&gt;Node7 -->
<g id="edge7_Node000002_Node000007" class="edge">
<title>Node2&#45;&gt;Node7</title>
<g id="a_edge7_Node000002_Node000007"><a xlink:title=" ">
<path fill="none" stroke="#63b8ff" d="M568.26,-108.38C565.76,-107.22 563.33,-105.97 561,-104.62 540.87,-92.97 545.22,-78.14 525,-66.62 518.64,-63.01 511.65,-60.07 504.49,-57.7"/>
<polygon fill="#63b8ff" stroke="#63b8ff" points="566.83,-111.58 577.42,-112.06 569.44,-105.08 566.83,-111.58"/>
</a>
</g>
</g>
<!-- Node4 -->
<g id="Node000004" class="node">
<title>Node4</title>
<g id="a_Node000004"><a xlink:href="../../d5/d81/_matrix___assembly___c_u_d_a___integration___example_8cpp_ab733b6db749fdfbc6665f7e34b50e5ad.html#ab733b6db749fdfbc6665f7e34b50e5ad" target="_top" xlink:title=" ">
<polygon fill="white" stroke="#666666" points="313.62,-140.88 170.12,-140.88 170.12,-110.38 313.62,-110.38 313.62,-140.88"/>
<text text-anchor="start" x="178.12" y="-127.38" font-family="Helvetica,sans-Serif" font-size="10.00">benchmark_matrix_assembly</text>
<text text-anchor="middle" x="241.88" y="-116.12" font-family="Helvetica,sans-Serif" font-size="10.00">_cpu_vs_cuda</text>
</a>
</g>
</g>
<!-- Node3&#45;&gt;Node4 -->
<g id="edge3_Node000003_Node000004" class="edge">
<title>Node3&#45;&gt;Node4</title>
<g id="a_edge3_Node000003_Node000004"><a xlink:title=" ">
<path fill="none" stroke="#63b8ff" d="M375.48,-123.6C355.8,-123.9 334.01,-124.23 313.87,-124.54"/>
<polygon fill="#63b8ff" stroke="#63b8ff" points="375.33,-127.1 385.28,-123.45 375.23,-120.1 375.33,-127.1"/>
</a>
</g>
</g>
<!-- Node6 -->
<g id="Node000006" class="node">
<title>Node6</title>
<g id="a_Node000006"><a xlink:href="../../d5/d81/_matrix___assembly___c_u_d_a___integration___example_8cpp_a3a3d77470391a4e87bd8c9864348d89f.html#a3a3d77470391a4e87bd8c9864348d89f" target="_top" xlink:title=" ">
<polygon fill="white" stroke="#666666" points="319.25,-92.25 164.5,-92.25 164.5,-73 319.25,-73 319.25,-92.25"/>
<text text-anchor="middle" x="241.88" y="-78.75" font-family="Helvetica,sans-Serif" font-size="10.00">validate_cuda_cpu_consistency</text>
</a>
</g>
</g>
<!-- Node3&#45;&gt;Node6 -->
<g id="edge5_Node000003_Node000006" class="edge">
<title>Node3&#45;&gt;Node6</title>
<g id="a_edge5_Node000003_Node000006"><a xlink:title=" ">
<path fill="none" stroke="#63b8ff" d="M378.47,-110.26C350.83,-104.63 318.53,-98.04 292.38,-92.72"/>
<polygon fill="#63b8ff" stroke="#63b8ff" points="377.62,-113.66 388.12,-112.23 379.02,-106.8 377.62,-113.66"/>
</a>
</g>
</g>
<!-- Node5 -->
<g id="Node000005" class="node">
<title>Node5</title>
<g id="a_Node000005"><a xlink:href="../../d5/d81/_matrix___assembly___c_u_d_a___integration___example_8cpp_a040fa30a7d9a31fc77785e00a27f6fa6.html#a040fa30a7d9a31fc77785e00a27f6fa6" target="_top" xlink:title=" ">
<polygon fill="white" stroke="#666666" points="128.5,-97.88 0,-97.88 0,-67.38 128.5,-67.38 128.5,-97.88"/>
<text text-anchor="start" x="8" y="-84.38" font-family="Helvetica,sans-Serif" font-size="10.00">demonstrate_cuda_matrix</text>
<text text-anchor="middle" x="64.25" y="-73.12" font-family="Helvetica,sans-Serif" font-size="10.00">_assembly</text>
</a>
</g>
</g>
<!-- Node4&#45;&gt;Node5 -->
<g id="edge4_Node000004_Node000005" class="edge">
<title>Node4&#45;&gt;Node5</title>
<g id="a_edge4_Node000004_Node000005"><a xlink:title=" ">
<path fill="none" stroke="#63b8ff" d="M166.16,-107.33C153.73,-104.29 140.93,-101.16 128.81,-98.19"/>
<polygon fill="#63b8ff" stroke="#63b8ff" points="164.96,-110.64 175.5,-109.62 166.62,-103.84 164.96,-110.64"/>
</a>
</g>
</g>
<!-- Node6&#45;&gt;Node5 -->
<g id="edge6_Node000006_Node000005" class="edge">
<title>Node6&#45;&gt;Node5</title>
<g id="a_edge6_Node000006_Node000005"><a xlink:title=" ">
<path fill="none" stroke="#63b8ff" d="M152.78,-82.62C144.76,-82.62 136.74,-82.62 128.99,-82.62"/>
<polygon fill="#63b8ff" stroke="#63b8ff" points="152.59,-86.13 162.59,-82.63 152.59,-79.13 152.59,-86.13"/>
</a>
</g>
</g>
<!-- Node8&#45;&gt;Node7 -->
<g id="edge12_Node000008_Node000007" class="edge">
<title>Node8&#45;&gt;Node7</title>
<g id="a_edge12_Node000008_Node000007"><a xlink:title=" ">
<path fill="none" stroke="#63b8ff" d="M572.7,-21.9C546.81,-26.96 517.18,-32.76 492.61,-37.56"/>
<polygon fill="#63b8ff" stroke="#63b8ff" points="573.29,-25.35 582.44,-20 571.95,-18.48 573.29,-25.35"/>
</a>
</g>
</g>
<!-- Node9 -->
<g id="Node000009" class="node">
<title>Node9</title>
<g id="a_Node000009"><a xlink:href="../../d5/d81/_matrix___assembly___c_u_d_a___integration___example_8cpp_a9a8a1fa6b968c9a66766d033498062bd.html#a9a8a1fa6b968c9a66766d033498062bd" target="_top" xlink:title=" ">
<polygon fill="white" stroke="#666666" points="495.75,-20.25 384.5,-20.25 384.5,-1 495.75,-1 495.75,-20.25"/>
<text text-anchor="middle" x="440.12" y="-6.75" font-family="Helvetica,sans-Serif" font-size="10.00">Assemble_A1_CUDA</text>
</a>
</g>
</g>
<!-- Node8&#45;&gt;Node9 -->
<g id="edge9_Node000008_Node000009" class="edge">
<title>Node8&#45;&gt;Node9</title>
<g id="a_edge9_Node000008_Node000009"><a xlink:title=" ">
<path fill="none" stroke="#63b8ff" d="M549.17,-10.07C531.13,-10.16 512.57,-10.26 496.04,-10.34"/>
<polygon fill="#63b8ff" stroke="#63b8ff" points="549.13,-13.57 559.11,-10.02 549.1,-6.57 549.13,-13.57"/>
</a>
</g>
</g>
<!-- Node10 -->
<g id="Node000010" class="node">
<title>Node10</title>
<g id="a_Node000010"><a xlink:href="../../d5/d81/_matrix___assembly___c_u_d_a___integration___example_8cpp_a5c8a4e884792f59235b7ed2070521d14.html#a5c8a4e884792f59235b7ed2070521d14" target="_top" xlink:title=" ">
<polygon fill="white" stroke="#666666" points="307.25,-41.88 176.5,-41.88 176.5,-11.37 307.25,-11.37 307.25,-41.88"/>
<text text-anchor="start" x="184.5" y="-28.38" font-family="Helvetica,sans-Serif" font-size="10.00">benchmark_sparse_matrix</text>
<text text-anchor="middle" x="241.88" y="-17.12" font-family="Helvetica,sans-Serif" font-size="10.00">_assembly</text>
</a>
</g>
</g>
<!-- Node9&#45;&gt;Node10 -->
<g id="edge10_Node000009_Node000010" class="edge">
<title>Node9&#45;&gt;Node10</title>
<g id="a_edge10_Node000009_Node000010"><a xlink:title=" ">
<path fill="none" stroke="#63b8ff" d="M372.75,-16.04C351.7,-17.75 328.46,-19.65 307.52,-21.35"/>
<polygon fill="#63b8ff" stroke="#63b8ff" points="373.01,-19.53 382.69,-15.23 372.44,-12.55 373.01,-19.53"/>
</a>
</g>
</g>
<!-- Node10&#45;&gt;Node5 -->
<g id="edge11_Node000010_Node000005" class="edge">
<title>Node10&#45;&gt;Node5</title>
<g id="a_edge11_Node000010_Node000005"><a xlink:title=" ">
<path fill="none" stroke="#63b8ff" d="M180.79,-45.78C159.21,-52.67 135.13,-60.34 114.57,-66.9"/>
<polygon fill="#63b8ff" stroke="#63b8ff" points="181.58,-49.21 190.04,-42.83 179.45,-42.54 181.58,-49.21"/>
</a>
</g>
</g>
<!-- Node11&#45;&gt;Node7 -->
<g id="edge16_Node000011_Node000007" class="edge">
<title>Node11&#45;&gt;Node7</title>
<g id="a_edge16_Node000011_Node000007"><a xlink:title=" ">
<path fill="none" stroke="#63b8ff" d="M572.7,-73.35C546.81,-68.29 517.18,-62.49 492.61,-57.69"/>
<polygon fill="#63b8ff" stroke="#63b8ff" points="571.95,-76.77 582.44,-75.25 573.29,-69.9 571.95,-76.77"/>
</a>
</g>
</g>
<!-- Node12 -->
<g id="Node000012" class="node">
<title>Node12</title>
<g id="a_Node000012"><a xlink:href="../../d5/d81/_matrix___assembly___c_u_d_a___integration___example_8cpp_a6607025671f5fc8e4de5def2cecfb05b.html#a6607025671f5fc8e4de5def2cecfb05b" target="_top" xlink:title=" ">
<polygon fill="white" stroke="#666666" points="492.38,-95.25 387.88,-95.25 387.88,-76 492.38,-76 492.38,-95.25"/>
<text text-anchor="middle" x="440.12" y="-81.75" font-family="Helvetica,sans-Serif" font-size="10.00">Assemble_b_CUDA</text>
</a>
</g>
</g>
<!-- Node11&#45;&gt;Node12 -->
<g id="edge14_Node000011_Node000012" class="edge">
<title>Node11&#45;&gt;Node12</title>
<g id="a_edge14_Node000011_Node000012"><a xlink:title=" ">
<path fill="none" stroke="#63b8ff" d="M561.25,-85.62C538.38,-85.62 513.71,-85.62 492.71,-85.62"/>
<polygon fill="#63b8ff" stroke="#63b8ff" points="561.15,-89.13 571.15,-85.63 561.15,-82.13 561.15,-89.13"/>
</a>
</g>
</g>
<!-- Node12&#45;&gt;Node6 -->
<g id="edge15_Node000012_Node000006" class="edge">
<title>Node12&#45;&gt;Node6</title>
<g id="a_edge15_Node000012_Node000006"><a xlink:title=" ">
<path fill="none" stroke="#63b8ff" d="M376.3,-84.66C358.25,-84.39 338.36,-84.08 319.58,-83.8"/>
<polygon fill="#63b8ff" stroke="#63b8ff" points="376,-88.16 386.05,-84.81 376.1,-81.16 376,-88.16"/>
</a>
</g>
</g>
</g>
</svg>
