<?xml version="1.0" encoding="UTF-8" standalone="no"?>
<!DOCTYPE svg PUBLIC "-//W3C//DTD SVG 1.1//EN"
 "http://www.w3.org/Graphics/SVG/1.1/DTD/svg11.dtd">
<!-- Generated by graphviz version 12.2.1 (20241206.2353)
 -->
<!-- Title: assemble_sparse_matrix_cuda Pages: 1 -->
<svg width="696pt" height="70pt"
 viewBox="0.00 0.00 696.00 69.88" xmlns="http://www.w3.org/2000/svg" xmlns:xlink="http://www.w3.org/1999/xlink">
<g id="graph0" class="graph" transform="scale(1 1) rotate(0) translate(4 65.88)">
<title>assemble_sparse_matrix_cuda</title>
<!-- Node1 -->
<g id="Node000001" class="node">
<title>Node1</title>
<g id="a_Node000001"><a xlink:title=" ">
<polygon fill="#999999" stroke="#666666" points="688,-37.25 537,-37.25 537,-18 688,-18 688,-37.25"/>
<text text-anchor="middle" x="612.5" y="-23.75" font-family="Helvetica,sans-Serif" font-size="10.00">assemble_sparse_matrix_cuda</text>
</a>
</g>
</g>
<!-- Node2 -->
<g id="Node000002" class="node">
<title>Node2</title>
<g id="a_Node000002"><a xlink:href="../../d5/d81/_matrix___assembly___c_u_d_a___integration___example_8cpp_a9a8a1fa6b968c9a66766d033498062bd.html#a9a8a1fa6b968c9a66766d033498062bd" target="_top" xlink:title=" ">
<polygon fill="white" stroke="#666666" points="471.75,-56.25 360.5,-56.25 360.5,-37 471.75,-37 471.75,-56.25"/>
<text text-anchor="middle" x="416.12" y="-42.75" font-family="Helvetica,sans-Serif" font-size="10.00">Assemble_A1_CUDA</text>
</a>
</g>
</g>
<!-- Node1&#45;&gt;Node2 -->
<g id="edge1_Node000001_Node000002" class="edge">
<title>Node1&#45;&gt;Node2</title>
<g id="a_edge1_Node000001_Node000002"><a xlink:title=" ">
<path fill="none" stroke="#63b8ff" d="M525.17,-36.06C507.13,-37.83 488.57,-39.64 472.04,-41.26"/>
<polygon fill="#63b8ff" stroke="#63b8ff" points="525.51,-39.55 535.12,-35.09 524.83,-32.58 525.51,-39.55"/>
</a>
</g>
</g>
<!-- Node5 -->
<g id="Node000005" class="node">
<title>Node5</title>
<g id="a_Node000005"><a xlink:href="../../d8/d45/_matrix___assembly___cuda___host___wrappers_8cpp_a8c7dbdb8a9071584c3bfd920264b1a57.html#a8c7dbdb8a9071584c3bfd920264b1a57" target="_top" xlink:title=" ">
<polygon fill="white" stroke="#666666" points="501,-19.25 331.25,-19.25 331.25,0 501,0 501,-19.25"/>
<text text-anchor="middle" x="416.12" y="-5.75" font-family="Helvetica,sans-Serif" font-size="10.00">benchmark_matrix_assembly_cuda</text>
</a>
</g>
</g>
<!-- Node1&#45;&gt;Node5 -->
<g id="edge4_Node000001_Node000005" class="edge">
<title>Node1&#45;&gt;Node5</title>
<g id="a_edge4_Node000001_Node000005"><a xlink:title=" ">
<path fill="none" stroke="#63b8ff" d="M525.41,-19.65C517.42,-18.91 509.32,-18.16 501.35,-17.42"/>
<polygon fill="#63b8ff" stroke="#63b8ff" points="524.84,-23.11 535.12,-20.55 525.49,-16.14 524.84,-23.11"/>
</a>
</g>
</g>
<!-- Node3 -->
<g id="Node000003" class="node">
<title>Node3</title>
<g id="a_Node000003"><a xlink:href="../../d5/d81/_matrix___assembly___c_u_d_a___integration___example_8cpp_a5c8a4e884792f59235b7ed2070521d14.html#a5c8a4e884792f59235b7ed2070521d14" target="_top" xlink:title=" ">
<polygon fill="white" stroke="#666666" points="295.25,-61.88 164.5,-61.88 164.5,-31.38 295.25,-31.38 295.25,-61.88"/>
<text text-anchor="start" x="172.5" y="-48.38" font-family="Helvetica,sans-Serif" font-size="10.00">benchmark_sparse_matrix</text>
<text text-anchor="middle" x="229.88" y="-37.12" font-family="Helvetica,sans-Serif" font-size="10.00">_assembly</text>
</a>
</g>
</g>
<!-- Node2&#45;&gt;Node3 -->
<g id="edge2_Node000002_Node000003" class="edge">
<title>Node2&#45;&gt;Node3</title>
<g id="a_edge2_Node000002_Node000003"><a xlink:title=" ">
<path fill="none" stroke="#63b8ff" d="M349.11,-46.62C331.67,-46.62 312.87,-46.62 295.51,-46.62"/>
<polygon fill="#63b8ff" stroke="#63b8ff" points="348.83,-50.13 358.83,-46.63 348.83,-43.13 348.83,-50.13"/>
</a>
</g>
</g>
<!-- Node4 -->
<g id="Node000004" class="node">
<title>Node4</title>
<g id="a_Node000004"><a xlink:href="../../d5/d81/_matrix___assembly___c_u_d_a___integration___example_8cpp_a040fa30a7d9a31fc77785e00a27f6fa6.html#a040fa30a7d9a31fc77785e00a27f6fa6" target="_top" xlink:title=" ">
<polygon fill="white" stroke="#666666" points="128.5,-61.88 0,-61.88 0,-31.38 128.5,-31.38 128.5,-61.88"/>
<text text-anchor="start" x="8" y="-48.38" font-family="Helvetica,sans-Serif" font-size="10.00">demonstrate_cuda_matrix</text>
<text text-anchor="middle" x="64.25" y="-37.12" font-family="Helvetica,sans-Serif" font-size="10.00">_assembly</text>
</a>
</g>
</g>
<!-- Node3&#45;&gt;Node4 -->
<g id="edge3_Node000003_Node000004" class="edge">
<title>Node3&#45;&gt;Node4</title>
<g id="a_edge3_Node000003_Node000004"><a xlink:title=" ">
<path fill="none" stroke="#63b8ff" d="M152.93,-46.62C144.9,-46.62 136.79,-46.62 128.91,-46.62"/>
<polygon fill="#63b8ff" stroke="#63b8ff" points="152.69,-50.13 162.69,-46.63 152.69,-43.13 152.69,-50.13"/>
</a>
</g>
</g>
</g>
</svg>
