<?xml version="1.0" encoding="UTF-8" standalone="no"?>
<!DOCTYPE svg PUBLIC "-//W3C//DTD SVG 1.1//EN"
 "http://www.w3.org/Graphics/SVG/1.1/DTD/svg11.dtd">
<!-- Generated by graphviz version 12.2.1 (20241206.2353)
 -->
<!-- Title: Calculate_SST_Blending_Functions Pages: 1 -->
<svg width="1566pt" height="310pt"
 viewBox="0.00 0.00 1565.75 309.64" xmlns="http://www.w3.org/2000/svg" xmlns:xlink="http://www.w3.org/1999/xlink">
<g id="graph0" class="graph" transform="scale(1 1) rotate(0) translate(4 305.64)">
<title>Calculate_SST_Blending_Functions</title>
<!-- Node1 -->
<g id="Node000001" class="node">
<title>Node1</title>
<g id="a_Node000001"><a xlink:title="Calculate SST blending functions F1 and F2.">
<polygon fill="#999999" stroke="#666666" points="1557.75,-87.5 1433,-87.5 1433,-57 1557.75,-57 1557.75,-87.5"/>
<text text-anchor="start" x="1441" y="-74" font-family="Helvetica,sans-Serif" font-size="10.00">Calculate_SST_Blending</text>
<text text-anchor="middle" x="1495.38" y="-62.75" font-family="Helvetica,sans-Serif" font-size="10.00">_Functions</text>
</a>
</g>
</g>
<!-- Node2 -->
<g id="Node000002" class="node">
<title>Node2</title>
<g id="a_Node000002"><a xlink:href="../../da/db6/_k___omega___model_8cpp_a133b20f2fbde5fe32f3bf8da3734a3df.html#a133b20f2fbde5fe32f3bf8da3734a3df" target="_top" xlink:title="Calculate F2 blending function for SST turbulent viscosity.">
<polygon fill="white" stroke="#666666" points="1397,-102.88 1255.75,-102.88 1255.75,-83.62 1397,-83.62 1397,-102.88"/>
<text text-anchor="middle" x="1326.38" y="-89.38" font-family="Helvetica,sans-Serif" font-size="10.00">Calculate_SST_F2_Function</text>
</a>
</g>
</g>
<!-- Node1&#45;&gt;Node2 -->
<g id="edge1_Node000001_Node000002" class="edge">
<title>Node1&#45;&gt;Node2</title>
<g id="a_edge1_Node000001_Node000002"><a xlink:title=" ">
<path fill="none" stroke="#63b8ff" d="M1421.44,-81.42C1413.42,-82.43 1405.26,-83.46 1397.28,-84.46"/>
<polygon fill="#63b8ff" stroke="#63b8ff" points="1421.68,-84.92 1431.16,-80.2 1420.8,-77.97 1421.68,-84.92"/>
</a>
</g>
</g>
<!-- Node20 -->
<g id="Node000020" class="node">
<title>Node20</title>
<g id="a_Node000020"><a xlink:href="../../da/db6/_k___omega___model_8cpp_acfc6e921fa69c7382cb5500e664b04ea.html#acfc6e921fa69c7382cb5500e664b04ea" target="_top" xlink:title="Solve SST K&#45;omega transport equations.">
<polygon fill="white" stroke="#666666" points="1015.12,-30.5 903.12,-30.5 903.12,0 1015.12,0 1015.12,-30.5"/>
<text text-anchor="start" x="911.12" y="-17" font-family="Helvetica,sans-Serif" font-size="10.00">Solve_SST_Transport</text>
<text text-anchor="middle" x="959.12" y="-5.75" font-family="Helvetica,sans-Serif" font-size="10.00">_Equations</text>
</a>
</g>
</g>
<!-- Node1&#45;&gt;Node20 -->
<g id="edge30_Node000001_Node000020" class="edge">
<title>Node1&#45;&gt;Node20</title>
<g id="a_edge30_Node000001_Node000020"><a xlink:title=" ">
<path fill="none" stroke="#63b8ff" d="M1421.43,-64.47C1313.16,-52.92 1112.31,-31.49 1015.34,-21.14"/>
<polygon fill="#63b8ff" stroke="#63b8ff" points="1420.75,-67.91 1431.06,-65.5 1421.49,-60.95 1420.75,-67.91"/>
</a>
</g>
</g>
<!-- Node3 -->
<g id="Node000003" class="node">
<title>Node3</title>
<g id="a_Node000003"><a xlink:href="../../da/db6/_k___omega___model_8cpp_acbb6eb3b6b7d60663920ef36f7442e10.html#acbb6eb3b6b7d60663920ef36f7442e10" target="_top" xlink:title="Calculate turbulent viscosity using K&#45;omega model.">
<polygon fill="white" stroke="#666666" points="1219.75,-149.5 1073.25,-149.5 1073.25,-119 1219.75,-119 1219.75,-149.5"/>
<text text-anchor="start" x="1081.25" y="-136" font-family="Helvetica,sans-Serif" font-size="10.00">Calculate_KOmega_Turbulent</text>
<text text-anchor="middle" x="1146.5" y="-124.75" font-family="Helvetica,sans-Serif" font-size="10.00">_Viscosity</text>
</a>
</g>
</g>
<!-- Node2&#45;&gt;Node3 -->
<g id="edge2_Node000002_Node000003" class="edge">
<title>Node2&#45;&gt;Node3</title>
<g id="a_edge2_Node000002_Node000003"><a xlink:title=" ">
<path fill="none" stroke="#63b8ff" d="M1270.74,-105.84C1253.3,-109.86 1233.78,-114.36 1215.52,-118.57"/>
<polygon fill="#63b8ff" stroke="#63b8ff" points="1271.43,-109.28 1280.39,-103.62 1269.86,-102.46 1271.43,-109.28"/>
</a>
</g>
</g>
<!-- Node4 -->
<g id="Node000004" class="node">
<title>Node4</title>
<g id="a_Node000004"><a xlink:href="../../da/db6/_k___omega___model_8cpp_a971ae07e8300e4255c309a8a0f7b7f63.html#a971ae07e8300e4255c309a8a0f7b7f63" target="_top" xlink:title="Apply inlet boundary conditions for K&#45;omega model.">
<polygon fill="white" stroke="#666666" points="1023,-255.88 895.25,-255.88 895.25,-236.62 1023,-236.62 1023,-255.88"/>
<text text-anchor="middle" x="959.12" y="-242.38" font-family="Helvetica,sans-Serif" font-size="10.00">Apply_KOmega_Inlet_BC</text>
</a>
</g>
</g>
<!-- Node3&#45;&gt;Node4 -->
<g id="edge3_Node000003_Node000004" class="edge">
<title>Node3&#45;&gt;Node4</title>
<g id="a_edge3_Node000003_Node000004"><a xlink:title=" ">
<path fill="none" stroke="#63b8ff" d="M1124.51,-158.17C1104.28,-179.72 1071.73,-210.64 1037.25,-228.25 1031,-231.44 1024.19,-234.07 1017.27,-236.24"/>
<polygon fill="#63b8ff" stroke="#63b8ff" points="1126.94,-160.7 1131.12,-150.97 1121.78,-155.97 1126.94,-160.7"/>
</a>
</g>
</g>
<!-- Node11 -->
<g id="Node000011" class="node">
<title>Node11</title>
<g id="a_Node000011"><a xlink:href="../../da/db6/_k___omega___model_8cpp_ae1f0a417766f5ee021c7d8cc8b328878.html#ae1f0a417766f5ee021c7d8cc8b328878" target="_top" xlink:title="Apply outlet boundary conditions for K&#45;omega model.">
<polygon fill="white" stroke="#666666" points="1026.75,-218.88 891.5,-218.88 891.5,-199.62 1026.75,-199.62 1026.75,-218.88"/>
<text text-anchor="middle" x="959.12" y="-205.38" font-family="Helvetica,sans-Serif" font-size="10.00">Apply_KOmega_Outlet_BC</text>
</a>
</g>
</g>
<!-- Node3&#45;&gt;Node11 -->
<g id="edge12_Node000003_Node000011" class="edge">
<title>Node3&#45;&gt;Node11</title>
<g id="a_edge12_Node000003_Node000011"><a xlink:title=" ">
<path fill="none" stroke="#63b8ff" d="M1110.63,-155.54C1089.92,-167.43 1062.79,-181.73 1037.25,-191.25 1029.13,-194.28 1020.34,-196.9 1011.7,-199.15"/>
<polygon fill="#63b8ff" stroke="#63b8ff" points="1112.37,-158.58 1119.24,-150.51 1108.84,-152.53 1112.37,-158.58"/>
</a>
</g>
</g>
<!-- Node13 -->
<g id="Node000013" class="node">
<title>Node13</title>
<g id="a_Node000013"><a xlink:href="../../da/db6/_k___omega___model_8cpp_a30e02e22d1eda085cbd12bd4a60746c9.html#a30e02e22d1eda085cbd12bd4a60746c9" target="_top" xlink:title="Apply wall functions for K&#45;omega model.">
<polygon fill="white" stroke="#666666" points="1037.25,-181.88 881,-181.88 881,-162.62 1037.25,-162.62 1037.25,-181.88"/>
<text text-anchor="middle" x="959.12" y="-168.38" font-family="Helvetica,sans-Serif" font-size="10.00">Apply_KOmega_Wall_Functions</text>
</a>
</g>
</g>
<!-- Node3&#45;&gt;Node13 -->
<g id="edge15_Node000003_Node000013" class="edge">
<title>Node3&#45;&gt;Node13</title>
<g id="a_edge15_Node000003_Node000013"><a xlink:title=" ">
<path fill="none" stroke="#63b8ff" d="M1061.73,-151.42C1043.87,-155.08 1025.57,-158.83 1009.51,-162.13"/>
<polygon fill="#63b8ff" stroke="#63b8ff" points="1062.19,-154.9 1071.28,-149.46 1060.79,-148.04 1062.19,-154.9"/>
</a>
</g>
</g>
<!-- Node15 -->
<g id="Node000015" class="node">
<title>Node15</title>
<g id="a_Node000015"><a xlink:href="../../d5/d65/_turbulence___models_8cpp_a88b199d9b9d00896bc2ed690e14f8ce6.html#a88b199d9b9d00896bc2ed690e14f8ce6" target="_top" xlink:title="Apply turbulence symmetry boundary conditions.">
<polygon fill="white" stroke="#666666" points="845,-144.88 681.25,-144.88 681.25,-125.62 845,-125.62 845,-144.88"/>
<text text-anchor="middle" x="763.12" y="-131.38" font-family="Helvetica,sans-Serif" font-size="10.00">Apply_Turbulence_Symmetry_BC</text>
</a>
</g>
</g>
<!-- Node3&#45;&gt;Node15 -->
<g id="edge18_Node000003_Node000015" class="edge">
<title>Node3&#45;&gt;Node15</title>
<g id="a_edge18_Node000003_Node000015"><a xlink:title=" ">
<path fill="none" stroke="#63b8ff" d="M1061.55,-134.47C997.24,-134.64 909.04,-134.87 845.41,-135.04"/>
<polygon fill="#63b8ff" stroke="#63b8ff" points="1061.36,-137.97 1071.36,-134.44 1061.35,-130.97 1061.36,-137.97"/>
</a>
</g>
</g>
<!-- Node16 -->
<g id="Node000016" class="node">
<title>Node16</title>
<g id="a_Node000016"><a xlink:href="../../da/db6/_k___omega___model_8cpp_ab515206bf252d3272ff152fc77f231e0.html#ab515206bf252d3272ff152fc77f231e0" target="_top" xlink:title="Initialize K&#45;omega model variables for all cells.">
<polygon fill="white" stroke="#666666" points="1029.38,-105.88 888.88,-105.88 888.88,-86.62 1029.38,-86.62 1029.38,-105.88"/>
<text text-anchor="middle" x="959.12" y="-92.38" font-family="Helvetica,sans-Serif" font-size="10.00">Initialize_KOmega_Variables</text>
</a>
</g>
</g>
<!-- Node3&#45;&gt;Node16 -->
<g id="edge20_Node000003_Node000016" class="edge">
<title>Node3&#45;&gt;Node16</title>
<g id="a_edge20_Node000003_Node000016"><a xlink:title=" ">
<path fill="none" stroke="#63b8ff" d="M1061.73,-117.08C1043.87,-113.42 1025.57,-109.67 1009.51,-106.37"/>
<polygon fill="#63b8ff" stroke="#63b8ff" points="1060.79,-120.46 1071.28,-119.04 1062.19,-113.6 1060.79,-120.46"/>
</a>
</g>
</g>
<!-- Node19 -->
<g id="Node000019" class="node">
<title>Node19</title>
<g id="a_Node000019"><a xlink:href="../../da/db6/_k___omega___model_8cpp_a22e64f94144a50c6cbafc52e88da1a2d.html#a22e64f94144a50c6cbafc52e88da1a2d" target="_top" xlink:title="Solve K&#45;omega transport equations.">
<polygon fill="white" stroke="#666666" points="828.5,-58.5 697.75,-58.5 697.75,-28 828.5,-28 828.5,-58.5"/>
<text text-anchor="start" x="705.75" y="-45" font-family="Helvetica,sans-Serif" font-size="10.00">Solve_KOmega_Transport</text>
<text text-anchor="middle" x="763.12" y="-33.75" font-family="Helvetica,sans-Serif" font-size="10.00">_Equations</text>
</a>
</g>
</g>
<!-- Node3&#45;&gt;Node19 -->
<g id="edge23_Node000003_Node000019" class="edge">
<title>Node3&#45;&gt;Node19</title>
<g id="a_edge23_Node000003_Node000019"><a xlink:title=" ">
<path fill="none" stroke="#63b8ff" d="M1112.49,-112.85C1091.72,-100.43 1063.89,-85.62 1037.25,-77.25 968.18,-55.56 885.21,-47.64 828.98,-44.78"/>
<polygon fill="#63b8ff" stroke="#63b8ff" points="1110.44,-115.7 1120.8,-117.93 1114.09,-109.73 1110.44,-115.7"/>
</a>
</g>
</g>
<!-- Node3&#45;&gt;Node20 -->
<g id="edge25_Node000003_Node000020" class="edge">
<title>Node3&#45;&gt;Node20</title>
<g id="a_edge25_Node000003_Node000020"><a xlink:title=" ">
<path fill="none" stroke="#63b8ff" d="M1122.06,-110.76C1101.24,-90.92 1069.23,-62.85 1037.25,-44.25 1028.59,-39.22 1018.9,-34.77 1009.39,-30.96"/>
<polygon fill="#63b8ff" stroke="#63b8ff" points="1119.56,-113.21 1129.18,-117.65 1124.43,-108.18 1119.56,-113.21"/>
</a>
</g>
</g>
<!-- Node21 -->
<g id="Node000021" class="node">
<title>Node21</title>
<g id="a_Node000021"><a xlink:href="../../d4/df3/_turbulence___integration_8cpp_a6f5c4a828a942de7bc3fe7b4f035154e.html#a6f5c4a828a942de7bc3fe7b4f035154e" target="_top" xlink:title="Update turbulence variables using RK4 method.">
<polygon fill="white" stroke="#666666" points="645.25,-258.88 474.75,-258.88 474.75,-239.62 645.25,-239.62 645.25,-258.88"/>
<text text-anchor="middle" x="560" y="-245.38" font-family="Helvetica,sans-Serif" font-size="10.00">Update_Turbulence_Variables_RK4</text>
</a>
</g>
</g>
<!-- Node3&#45;&gt;Node21 -->
<g id="edge28_Node000003_Node000021" class="edge">
<title>Node3&#45;&gt;Node21</title>
<g id="a_edge28_Node000003_Node000021"><a xlink:title=" ">
<path fill="none" stroke="#63b8ff" d="M1133.2,-159.97C1116.49,-191.54 1083.33,-243.55 1037.25,-265.25 883.44,-337.68 669.68,-283.52 591.33,-259.33"/>
<polygon fill="#63b8ff" stroke="#63b8ff" points="1136.31,-161.59 1137.73,-151.09 1130.07,-158.4 1136.31,-161.59"/>
</a>
</g>
</g>
<!-- Node5 -->
<g id="Node000005" class="node">
<title>Node5</title>
<g id="a_Node000005"><a xlink:href="../../d5/d65/_turbulence___models_8cpp_a134e165674f67daba41b38ff2c1ce4c9.html#a134e165674f67daba41b38ff2c1ce4c9" target="_top" xlink:title="Apply turbulence inlet boundary conditions.">
<polygon fill="white" stroke="#666666" points="831.88,-255.88 694.38,-255.88 694.38,-236.62 831.88,-236.62 831.88,-255.88"/>
<text text-anchor="middle" x="763.12" y="-242.38" font-family="Helvetica,sans-Serif" font-size="10.00">Apply_Turbulence_Inlet_BC</text>
</a>
</g>
</g>
<!-- Node4&#45;&gt;Node5 -->
<g id="edge4_Node000004_Node000005" class="edge">
<title>Node4&#45;&gt;Node5</title>
<g id="a_edge4_Node000004_Node000005"><a xlink:title=" ">
<path fill="none" stroke="#63b8ff" d="M883.41,-246.25C866.6,-246.25 848.84,-246.25 832.31,-246.25"/>
<polygon fill="#63b8ff" stroke="#63b8ff" points="883.36,-249.75 893.36,-246.25 883.36,-242.75 883.36,-249.75"/>
</a>
</g>
</g>
<!-- Node6 -->
<g id="Node000006" class="node">
<title>Node6</title>
<g id="a_Node000006"><a xlink:href="../../d5/d65/_turbulence___models_8cpp_a1158808d85e3e5c5ec0b6cc6b7462a27.html#a1158808d85e3e5c5ec0b6cc6b7462a27" target="_top" xlink:title="Apply turbulence boundary conditions to all boundary cells.">
<polygon fill="white" stroke="#666666" points="617.12,-187.5 502.88,-187.5 502.88,-157 617.12,-157 617.12,-187.5"/>
<text text-anchor="start" x="510.88" y="-174" font-family="Helvetica,sans-Serif" font-size="10.00">Apply_All_Turbulence</text>
<text text-anchor="middle" x="560" y="-162.75" font-family="Helvetica,sans-Serif" font-size="10.00">_Boundary_Conditions</text>
</a>
</g>
</g>
<!-- Node5&#45;&gt;Node6 -->
<g id="edge5_Node000005_Node000006" class="edge">
<title>Node5&#45;&gt;Node6</title>
<g id="a_edge5_Node000005_Node000006"><a xlink:title=" ">
<path fill="none" stroke="#63b8ff" d="M698.02,-233.34C692.31,-231.78 686.64,-230.08 681.25,-228.25 648.98,-217.29 613.83,-200.28 589.92,-187.89"/>
<polygon fill="#63b8ff" stroke="#63b8ff" points="697.01,-236.69 707.56,-235.79 698.75,-229.91 697.01,-236.69"/>
</a>
</g>
</g>
<!-- Node7 -->
<g id="Node000007" class="node">
<title>Node7</title>
<g id="a_Node000007"><a xlink:href="../../d4/df3/_turbulence___integration_8cpp_a5be3d179089fc076bb68c61f7cd17b7a.html#a5be3d179089fc076bb68c61f7cd17b7a" target="_top" xlink:title="Runge&#45;Kutta method with turbulence model integration.">
<polygon fill="white" stroke="#666666" points="421.12,-208.5 310.62,-208.5 310.62,-178 421.12,-178 421.12,-208.5"/>
<text text-anchor="start" x="318.62" y="-195" font-family="Helvetica,sans-Serif" font-size="10.00">Runge_Kutta_Method</text>
<text text-anchor="middle" x="365.88" y="-183.75" font-family="Helvetica,sans-Serif" font-size="10.00">_With_Turbulence</text>
</a>
</g>
</g>
<!-- Node6&#45;&gt;Node7 -->
<g id="edge6_Node000006_Node000007" class="edge">
<title>Node6&#45;&gt;Node7</title>
<g id="a_edge6_Node000006_Node000007"><a xlink:title=" ">
<path fill="none" stroke="#63b8ff" d="M491.05,-179.68C468.23,-182.17 443.08,-184.92 421.42,-187.29"/>
<polygon fill="#63b8ff" stroke="#63b8ff" points="491.33,-183.17 500.89,-178.6 490.57,-176.21 491.33,-183.17"/>
</a>
</g>
</g>
<!-- Node8 -->
<g id="Node000008" class="node">
<title>Node8</title>
<g id="a_Node000008"><a xlink:href="../../d4/df3/_turbulence___integration_8cpp_a564537a29550f0d8ec11e8ef76cd2b3a.html#a564537a29550f0d8ec11e8ef76cd2b3a" target="_top" xlink:title="Modified viscous solver with turbulence model integration.">
<polygon fill="white" stroke="#666666" points="109.75,-165.5 0,-165.5 0,-135 109.75,-135 109.75,-165.5"/>
<text text-anchor="start" x="8" y="-152" font-family="Helvetica,sans-Serif" font-size="10.00">Viscous_Solver_With</text>
<text text-anchor="middle" x="54.88" y="-140.75" font-family="Helvetica,sans-Serif" font-size="10.00">_Turbulence</text>
</a>
</g>
</g>
<!-- Node6&#45;&gt;Node8 -->
<g id="edge11_Node000006_Node000008" class="edge">
<title>Node6&#45;&gt;Node8</title>
<g id="a_edge11_Node000006_Node000008"><a xlink:title=" ">
<path fill="none" stroke="#63b8ff" d="M491.49,-169.3C390.68,-164.89 202.78,-156.67 110.24,-152.63"/>
<polygon fill="#63b8ff" stroke="#63b8ff" points="491.09,-172.78 501.24,-169.72 491.4,-165.79 491.09,-172.78"/>
</a>
</g>
</g>
<!-- Node9 -->
<g id="Node000009" class="node">
<title>Node9</title>
<g id="a_Node000009"><a xlink:href="../../d5/d65/_turbulence___models_8cpp_afb9159b9dcb0534a88f1df9496ece4ad.html#afb9159b9dcb0534a88f1df9496ece4ad" target="_top" xlink:title="Update turbulence variables for all cells.">
<polygon fill="white" stroke="#666666" points="438.75,-64.88 293,-64.88 293,-45.62 438.75,-45.62 438.75,-64.88"/>
<text text-anchor="middle" x="365.88" y="-51.38" font-family="Helvetica,sans-Serif" font-size="10.00">Update_Turbulence_Variables</text>
</a>
</g>
</g>
<!-- Node6&#45;&gt;Node9 -->
<g id="edge8_Node000006_Node000009" class="edge">
<title>Node6&#45;&gt;Node9</title>
<g id="a_edge8_Node000006_Node000009"><a xlink:title=" ">
<path fill="none" stroke="#63b8ff" d="M523.75,-150.78C482.08,-125.41 414.51,-84.26 383.45,-65.34"/>
<polygon fill="#63b8ff" stroke="#63b8ff" points="521.83,-153.71 532.19,-155.93 525.47,-147.74 521.83,-153.71"/>
</a>
</g>
</g>
<!-- Node7&#45;&gt;Node8 -->
<g id="edge7_Node000007_Node000008" class="edge">
<title>Node7&#45;&gt;Node8</title>
<g id="a_edge7_Node000007_Node000008"><a xlink:title=" ">
<path fill="none" stroke="#63b8ff" d="M299.04,-184.94C255.5,-179.34 197.18,-171.66 145.75,-164.25 134.18,-162.58 121.79,-160.71 110.02,-158.89"/>
<polygon fill="#63b8ff" stroke="#63b8ff" points="298.48,-188.39 308.85,-186.19 299.37,-181.45 298.48,-188.39"/>
</a>
</g>
</g>
<!-- Node10 -->
<g id="Node000010" class="node">
<title>Node10</title>
<g id="a_Node000010"><a xlink:href="../../d4/df3/_turbulence___integration_8cpp_ab169036ed9f440a82e87aa687850b80e.html#ab169036ed9f440a82e87aa687850b80e" target="_top" xlink:title="Explicit method with turbulence model integration.">
<polygon fill="white" stroke="#666666" points="257,-104.5 145.75,-104.5 145.75,-74 257,-74 257,-104.5"/>
<text text-anchor="start" x="153.75" y="-91" font-family="Helvetica,sans-Serif" font-size="10.00">Explicit_Method_With</text>
<text text-anchor="middle" x="201.38" y="-79.75" font-family="Helvetica,sans-Serif" font-size="10.00">_Turbulence</text>
</a>
</g>
</g>
<!-- Node9&#45;&gt;Node10 -->
<g id="edge9_Node000009_Node000010" class="edge">
<title>Node9&#45;&gt;Node10</title>
<g id="a_edge9_Node000009_Node000010"><a xlink:title=" ">
<path fill="none" stroke="#63b8ff" d="M305.37,-67.7C289.67,-70.99 272.8,-74.52 257.35,-77.75"/>
<polygon fill="#63b8ff" stroke="#63b8ff" points="306.01,-71.14 315.08,-65.67 304.57,-64.29 306.01,-71.14"/>
</a>
</g>
</g>
<!-- Node10&#45;&gt;Node8 -->
<g id="edge10_Node000010_Node000008" class="edge">
<title>Node10&#45;&gt;Node8</title>
<g id="a_edge10_Node000010_Node000008"><a xlink:title=" ">
<path fill="none" stroke="#63b8ff" d="M152.69,-109.38C133.26,-117.58 111.15,-126.92 92.96,-134.59"/>
<polygon fill="#63b8ff" stroke="#63b8ff" points="153.92,-112.66 161.77,-105.55 151.19,-106.21 153.92,-112.66"/>
</a>
</g>
</g>
<!-- Node12 -->
<g id="Node000012" class="node">
<title>Node12</title>
<g id="a_Node000012"><a xlink:href="../../d5/d65/_turbulence___models_8cpp_a3b4ea5d29901515353257738e5b15b13.html#a3b4ea5d29901515353257738e5b15b13" target="_top" xlink:title="Apply turbulence outlet boundary conditions.">
<polygon fill="white" stroke="#666666" points="835.62,-218.88 690.62,-218.88 690.62,-199.62 835.62,-199.62 835.62,-218.88"/>
<text text-anchor="middle" x="763.12" y="-205.38" font-family="Helvetica,sans-Serif" font-size="10.00">Apply_Turbulence_Outlet_BC</text>
</a>
</g>
</g>
<!-- Node11&#45;&gt;Node12 -->
<g id="edge13_Node000011_Node000012" class="edge">
<title>Node11&#45;&gt;Node12</title>
<g id="a_edge13_Node000011_Node000012"><a xlink:title=" ">
<path fill="none" stroke="#63b8ff" d="M879.62,-209.25C865.13,-209.25 850.07,-209.25 835.79,-209.25"/>
<polygon fill="#63b8ff" stroke="#63b8ff" points="879.58,-212.75 889.58,-209.25 879.58,-205.75 879.58,-212.75"/>
</a>
</g>
</g>
<!-- Node12&#45;&gt;Node6 -->
<g id="edge14_Node000012_Node000006" class="edge">
<title>Node12&#45;&gt;Node6</title>
<g id="a_edge14_Node000012_Node000006"><a xlink:title=" ">
<path fill="none" stroke="#63b8ff" d="M696.1,-197.1C670.62,-192.42 641.77,-187.11 617.29,-182.61"/>
<polygon fill="#63b8ff" stroke="#63b8ff" points="695.21,-200.5 705.68,-198.87 696.48,-193.61 695.21,-200.5"/>
</a>
</g>
</g>
<!-- Node14 -->
<g id="Node000014" class="node">
<title>Node14</title>
<g id="a_Node000014"><a xlink:href="../../d5/d65/_turbulence___models_8cpp_abebbec3a464f4c0094447be488398fd7.html#abebbec3a464f4c0094447be488398fd7" target="_top" xlink:title="Apply turbulence wall boundary conditions.">
<polygon fill="white" stroke="#666666" points="831.88,-181.88 694.38,-181.88 694.38,-162.62 831.88,-162.62 831.88,-181.88"/>
<text text-anchor="middle" x="763.12" y="-168.38" font-family="Helvetica,sans-Serif" font-size="10.00">Apply_Turbulence_Wall_BC</text>
</a>
</g>
</g>
<!-- Node13&#45;&gt;Node14 -->
<g id="edge16_Node000013_Node000014" class="edge">
<title>Node13&#45;&gt;Node14</title>
<g id="a_edge16_Node000013_Node000014"><a xlink:title=" ">
<path fill="none" stroke="#63b8ff" d="M869.24,-172.25C856.77,-172.25 844.12,-172.25 832.12,-172.25"/>
<polygon fill="#63b8ff" stroke="#63b8ff" points="869.1,-175.75 879.1,-172.25 869.1,-168.75 869.1,-175.75"/>
</a>
</g>
</g>
<!-- Node14&#45;&gt;Node6 -->
<g id="edge17_Node000014_Node000006" class="edge">
<title>Node14&#45;&gt;Node6</title>
<g id="a_edge17_Node000014_Node000006"><a xlink:title=" ">
<path fill="none" stroke="#63b8ff" d="M682.75,-172.25C660.87,-172.25 637.59,-172.25 617.32,-172.25"/>
<polygon fill="#63b8ff" stroke="#63b8ff" points="682.52,-175.75 692.52,-172.25 682.52,-168.75 682.52,-175.75"/>
</a>
</g>
</g>
<!-- Node15&#45;&gt;Node6 -->
<g id="edge19_Node000015_Node000006" class="edge">
<title>Node15&#45;&gt;Node6</title>
<g id="a_edge19_Node000015_Node000006"><a xlink:title=" ">
<path fill="none" stroke="#63b8ff" d="M696.1,-147.4C670.62,-152.08 641.77,-157.39 617.29,-161.89"/>
<polygon fill="#63b8ff" stroke="#63b8ff" points="696.48,-150.89 705.68,-145.63 695.21,-144 696.48,-150.89"/>
</a>
</g>
</g>
<!-- Node17 -->
<g id="Node000017" class="node">
<title>Node17</title>
<g id="a_Node000017"><a xlink:href="../../d5/d65/_turbulence___models_8cpp_ae3b78318b928719081e7653fc5c9e8dd.html#ae3b78318b928719081e7653fc5c9e8dd" target="_top" xlink:title="Initialize the specified turbulence model.">
<polygon fill="white" stroke="#666666" points="815.75,-107.5 710.5,-107.5 710.5,-77 815.75,-77 815.75,-107.5"/>
<text text-anchor="start" x="718.5" y="-94" font-family="Helvetica,sans-Serif" font-size="10.00">Initialize_Turbulence</text>
<text text-anchor="middle" x="763.12" y="-82.75" font-family="Helvetica,sans-Serif" font-size="10.00">_Model</text>
</a>
</g>
</g>
<!-- Node16&#45;&gt;Node17 -->
<g id="edge21_Node000016_Node000017" class="edge">
<title>Node16&#45;&gt;Node17</title>
<g id="a_edge21_Node000016_Node000017"><a xlink:title=" ">
<path fill="none" stroke="#63b8ff" d="M877.27,-94.58C856.58,-94.16 834.88,-93.71 816.09,-93.32"/>
<polygon fill="#63b8ff" stroke="#63b8ff" points="877.05,-98.08 887.12,-94.79 877.2,-91.08 877.05,-98.08"/>
</a>
</g>
</g>
<!-- Node18 -->
<g id="Node000018" class="node">
<title>Node18</title>
<g id="a_Node000018"><a xlink:href="../../d4/df3/_turbulence___integration_8cpp_aac3a7b5e7a77b6d40a58fe9fa561e7cd.html#aac3a7b5e7a77b6d40a58fe9fa561e7cd" target="_top" xlink:title="Setup turbulence model from configuration file.">
<polygon fill="white" stroke="#666666" points="621.25,-107.5 498.75,-107.5 498.75,-77 621.25,-77 621.25,-107.5"/>
<text text-anchor="start" x="506.75" y="-94" font-family="Helvetica,sans-Serif" font-size="10.00">Setup_Turbulence_From</text>
<text text-anchor="middle" x="560" y="-82.75" font-family="Helvetica,sans-Serif" font-size="10.00">_Config</text>
</a>
</g>
</g>
<!-- Node17&#45;&gt;Node18 -->
<g id="edge22_Node000017_Node000018" class="edge">
<title>Node17&#45;&gt;Node18</title>
<g id="a_edge22_Node000017_Node000018"><a xlink:title=" ">
<path fill="none" stroke="#63b8ff" d="M698.63,-92.25C673.94,-92.25 645.78,-92.25 621.39,-92.25"/>
<polygon fill="#63b8ff" stroke="#63b8ff" points="698.56,-95.75 708.56,-92.25 698.56,-88.75 698.56,-95.75"/>
</a>
</g>
</g>
<!-- Node19&#45;&gt;Node9 -->
<g id="edge24_Node000019_Node000009" class="edge">
<title>Node19&#45;&gt;Node9</title>
<g id="a_edge24_Node000019_Node000009"><a xlink:title=" ">
<path fill="none" stroke="#63b8ff" d="M686.17,-45.56C614.92,-47.72 509.13,-50.93 439.11,-53.06"/>
<polygon fill="#63b8ff" stroke="#63b8ff" points="685.9,-49.07 695.79,-45.26 685.69,-42.07 685.9,-49.07"/>
</a>
</g>
</g>
<!-- Node20&#45;&gt;Node9 -->
<g id="edge27_Node000020_Node000009" class="edge">
<title>Node20&#45;&gt;Node9</title>
<g id="a_edge27_Node000020_Node000009"><a xlink:title=" ">
<path fill="none" stroke="#63b8ff" d="M891.43,-14.36C835.3,-14.05 752.95,-14.64 681.25,-19.25 597.1,-24.66 500.83,-36.53 437.24,-45.16"/>
<polygon fill="#63b8ff" stroke="#63b8ff" points="891.1,-17.85 901.13,-14.42 891.15,-10.85 891.1,-17.85"/>
</a>
</g>
</g>
<!-- Node20&#45;&gt;Node19 -->
<g id="edge26_Node000020_Node000019" class="edge">
<title>Node20&#45;&gt;Node19</title>
<g id="a_edge26_Node000020_Node000019"><a xlink:title=" ">
<path fill="none" stroke="#63b8ff" d="M891.44,-24.88C871.16,-27.8 848.93,-31.01 828.79,-33.92"/>
<polygon fill="#63b8ff" stroke="#63b8ff" points="891.9,-28.35 901.29,-23.45 890.9,-21.42 891.9,-28.35"/>
</a>
</g>
</g>
<!-- Node21&#45;&gt;Node7 -->
<g id="edge29_Node000021_Node000007" class="edge">
<title>Node21&#45;&gt;Node7</title>
<g id="a_edge29_Node000021_Node000007"><a xlink:title=" ">
<path fill="none" stroke="#63b8ff" d="M513.66,-236.03C485.87,-227.93 450.14,-217.52 420.89,-208.99"/>
<polygon fill="#63b8ff" stroke="#63b8ff" points="512.62,-239.38 523.2,-238.81 514.58,-232.66 512.62,-239.38"/>
</a>
</g>
</g>
</g>
</svg>
