<?xml version="1.0" encoding="UTF-8" standalone="no"?>
<!DOCTYPE svg PUBLIC "-//W3C//DTD SVG 1.1//EN"
 "http://www.w3.org/Graphics/SVG/1.1/DTD/svg11.dtd">
<!-- Generated by graphviz version 12.2.1 (20241206.2353)
 -->
<!-- Title: Calculate_Y_Plus Pages: 1 -->
<svg width="1093pt" height="125pt"
 viewBox="0.00 0.00 1092.75 124.50" xmlns="http://www.w3.org/2000/svg" xmlns:xlink="http://www.w3.org/1999/xlink">
<g id="graph0" class="graph" transform="scale(1 1) rotate(0) translate(4 120.5)">
<title>Calculate_Y_Plus</title>
<!-- Node1 -->
<g id="Node000001" class="node">
<title>Node1</title>
<g id="a_Node000001"><a xlink:title="Calculate y+ value for a specific cell.">
<polygon fill="#999999" stroke="#666666" points="1084.75,-67.88 990.75,-67.88 990.75,-48.62 1084.75,-48.62 1084.75,-67.88"/>
<text text-anchor="middle" x="1037.75" y="-54.38" font-family="Helvetica,sans-Serif" font-size="10.00">Calculate_Y_Plus</text>
</a>
</g>
</g>
<!-- Node2 -->
<g id="Node000002" class="node">
<title>Node2</title>
<g id="a_Node000002"><a xlink:href="../../da/d71/_k___epsilon___model_8cpp_aafaba955ffd8353debe7b95e753885d0.html#aafaba955ffd8353debe7b95e753885d0" target="_top" xlink:title="Apply wall functions for K&#45;epsilon model.">
<polygon fill="white" stroke="#666666" points="931.12,-95.5 822.12,-95.5 822.12,-65 931.12,-65 931.12,-95.5"/>
<text text-anchor="start" x="830.12" y="-82" font-family="Helvetica,sans-Serif" font-size="10.00">Apply_KEpsilon_Wall</text>
<text text-anchor="middle" x="876.62" y="-70.75" font-family="Helvetica,sans-Serif" font-size="10.00">_Functions</text>
</a>
</g>
</g>
<!-- Node1&#45;&gt;Node2 -->
<g id="edge1_Node000001_Node000002" class="edge">
<title>Node1&#45;&gt;Node2</title>
<g id="a_edge1_Node000001_Node000002"><a xlink:title=" ">
<path fill="none" stroke="#63b8ff" d="M979.2,-66.21C963.61,-68.36 946.8,-70.69 931.43,-72.81"/>
<polygon fill="#63b8ff" stroke="#63b8ff" points="979.37,-69.72 988.8,-64.88 978.41,-62.78 979.37,-69.72"/>
</a>
</g>
</g>
<!-- Node9 -->
<g id="Node000009" class="node">
<title>Node9</title>
<g id="a_Node000009"><a xlink:href="../../da/db6/_k___omega___model_8cpp_a30e02e22d1eda085cbd12bd4a60746c9.html#a30e02e22d1eda085cbd12bd4a60746c9" target="_top" xlink:title="Apply wall functions for K&#45;omega model.">
<polygon fill="white" stroke="#666666" points="954.75,-46.88 798.5,-46.88 798.5,-27.62 954.75,-27.62 954.75,-46.88"/>
<text text-anchor="middle" x="876.62" y="-33.38" font-family="Helvetica,sans-Serif" font-size="10.00">Apply_KOmega_Wall_Functions</text>
</a>
</g>
</g>
<!-- Node1&#45;&gt;Node9 -->
<g id="edge10_Node000001_Node000009" class="edge">
<title>Node1&#45;&gt;Node9</title>
<g id="a_edge10_Node000001_Node000009"><a xlink:title=" ">
<path fill="none" stroke="#63b8ff" d="M979.07,-50.64C970.94,-49.57 962.48,-48.45 954.07,-47.34"/>
<polygon fill="#63b8ff" stroke="#63b8ff" points="978.42,-54.08 988.8,-51.92 979.34,-47.14 978.42,-54.08"/>
</a>
</g>
</g>
<!-- Node3 -->
<g id="Node000003" class="node">
<title>Node3</title>
<g id="a_Node000003"><a xlink:href="../../d5/d65/_turbulence___models_8cpp_abebbec3a464f4c0094447be488398fd7.html#abebbec3a464f4c0094447be488398fd7" target="_top" xlink:title="Apply turbulence wall boundary conditions.">
<polygon fill="white" stroke="#666666" points="762.5,-67.88 625,-67.88 625,-48.62 762.5,-48.62 762.5,-67.88"/>
<text text-anchor="middle" x="693.75" y="-54.38" font-family="Helvetica,sans-Serif" font-size="10.00">Apply_Turbulence_Wall_BC</text>
</a>
</g>
</g>
<!-- Node2&#45;&gt;Node3 -->
<g id="edge2_Node000002_Node000003" class="edge">
<title>Node2&#45;&gt;Node3</title>
<g id="a_edge2_Node000002_Node000003"><a xlink:title=" ">
<path fill="none" stroke="#63b8ff" d="M810.73,-72.36C795.16,-70.46 778.49,-68.44 762.78,-66.52"/>
<polygon fill="#63b8ff" stroke="#63b8ff" points="809.99,-75.79 820.34,-73.53 810.84,-68.84 809.99,-75.79"/>
</a>
</g>
</g>
<!-- Node4 -->
<g id="Node000004" class="node">
<title>Node4</title>
<g id="a_Node000004"><a xlink:href="../../d5/d65/_turbulence___models_8cpp_a1158808d85e3e5c5ec0b6cc6b7462a27.html#a1158808d85e3e5c5ec0b6cc6b7462a27" target="_top" xlink:title="Apply turbulence boundary conditions to all boundary cells.">
<polygon fill="white" stroke="#666666" points="589,-73.5 474.75,-73.5 474.75,-43 589,-43 589,-73.5"/>
<text text-anchor="start" x="482.75" y="-60" font-family="Helvetica,sans-Serif" font-size="10.00">Apply_All_Turbulence</text>
<text text-anchor="middle" x="531.88" y="-48.75" font-family="Helvetica,sans-Serif" font-size="10.00">_Boundary_Conditions</text>
</a>
</g>
</g>
<!-- Node3&#45;&gt;Node4 -->
<g id="edge3_Node000003_Node000004" class="edge">
<title>Node3&#45;&gt;Node4</title>
<g id="a_edge3_Node000003_Node000004"><a xlink:title=" ">
<path fill="none" stroke="#63b8ff" d="M613.7,-58.25C605.43,-58.25 597.14,-58.25 589.19,-58.25"/>
<polygon fill="#63b8ff" stroke="#63b8ff" points="613.44,-61.75 623.44,-58.25 613.44,-54.75 613.44,-61.75"/>
</a>
</g>
</g>
<!-- Node5 -->
<g id="Node000005" class="node">
<title>Node5</title>
<g id="a_Node000005"><a xlink:href="../../d4/df3/_turbulence___integration_8cpp_a5be3d179089fc076bb68c61f7cd17b7a.html#a5be3d179089fc076bb68c61f7cd17b7a" target="_top" xlink:title="Runge&#45;Kutta method with turbulence model integration.">
<polygon fill="white" stroke="#666666" points="256.62,-116.5 146.12,-116.5 146.12,-86 256.62,-86 256.62,-116.5"/>
<text text-anchor="start" x="154.12" y="-103" font-family="Helvetica,sans-Serif" font-size="10.00">Runge_Kutta_Method</text>
<text text-anchor="middle" x="201.38" y="-91.75" font-family="Helvetica,sans-Serif" font-size="10.00">_With_Turbulence</text>
</a>
</g>
</g>
<!-- Node4&#45;&gt;Node5 -->
<g id="edge4_Node000004_Node000005" class="edge">
<title>Node4&#45;&gt;Node5</title>
<g id="a_edge4_Node000004_Node000005"><a xlink:title=" ">
<path fill="none" stroke="#63b8ff" d="M463.24,-68.76C454.99,-69.97 446.68,-71.16 438.75,-72.25 376.49,-80.8 304.83,-89.42 256.89,-95.01"/>
<polygon fill="#63b8ff" stroke="#63b8ff" points="463.52,-72.25 472.9,-67.32 462.49,-65.33 463.52,-72.25"/>
</a>
</g>
</g>
<!-- Node6 -->
<g id="Node000006" class="node">
<title>Node6</title>
<g id="a_Node000006"><a xlink:href="../../d4/df3/_turbulence___integration_8cpp_a564537a29550f0d8ec11e8ef76cd2b3a.html#a564537a29550f0d8ec11e8ef76cd2b3a" target="_top" xlink:title="Modified viscous solver with turbulence model integration.">
<polygon fill="white" stroke="#666666" points="109.75,-73.5 0,-73.5 0,-43 109.75,-43 109.75,-73.5"/>
<text text-anchor="start" x="8" y="-60" font-family="Helvetica,sans-Serif" font-size="10.00">Viscous_Solver_With</text>
<text text-anchor="middle" x="54.88" y="-48.75" font-family="Helvetica,sans-Serif" font-size="10.00">_Turbulence</text>
</a>
</g>
</g>
<!-- Node4&#45;&gt;Node6 -->
<g id="edge9_Node000004_Node000006" class="edge">
<title>Node4&#45;&gt;Node6</title>
<g id="a_edge9_Node000004_Node000006"><a xlink:title=" ">
<path fill="none" stroke="#63b8ff" d="M463.03,-58.25C367.96,-58.25 196.99,-58.25 109.96,-58.25"/>
<polygon fill="#63b8ff" stroke="#63b8ff" points="463.01,-61.75 473.01,-58.25 463.01,-54.75 463.01,-61.75"/>
</a>
</g>
</g>
<!-- Node7 -->
<g id="Node000007" class="node">
<title>Node7</title>
<g id="a_Node000007"><a xlink:href="../../d5/d65/_turbulence___models_8cpp_afb9159b9dcb0534a88f1df9496ece4ad.html#afb9159b9dcb0534a88f1df9496ece4ad" target="_top" xlink:title="Update turbulence variables for all cells.">
<polygon fill="white" stroke="#666666" points="438.75,-27.88 293,-27.88 293,-8.62 438.75,-8.62 438.75,-27.88"/>
<text text-anchor="middle" x="365.88" y="-14.38" font-family="Helvetica,sans-Serif" font-size="10.00">Update_Turbulence_Variables</text>
</a>
</g>
</g>
<!-- Node4&#45;&gt;Node7 -->
<g id="edge6_Node000004_Node000007" class="edge">
<title>Node4&#45;&gt;Node7</title>
<g id="a_edge6_Node000004_Node000007"><a xlink:title=" ">
<path fill="none" stroke="#63b8ff" d="M463.27,-41.76C444.57,-37.2 424.84,-32.39 408.14,-28.31"/>
<polygon fill="#63b8ff" stroke="#63b8ff" points="462.42,-45.16 472.97,-44.13 464.08,-38.36 462.42,-45.16"/>
</a>
</g>
</g>
<!-- Node5&#45;&gt;Node6 -->
<g id="edge5_Node000005_Node000006" class="edge">
<title>Node5&#45;&gt;Node6</title>
<g id="a_edge5_Node000005_Node000006"><a xlink:title=" ">
<path fill="none" stroke="#63b8ff" d="M136.87,-82.35C127.45,-79.55 117.83,-76.69 108.65,-73.96"/>
<polygon fill="#63b8ff" stroke="#63b8ff" points="135.76,-85.68 146.35,-85.17 137.76,-78.97 135.76,-85.68"/>
</a>
</g>
</g>
<!-- Node8 -->
<g id="Node000008" class="node">
<title>Node8</title>
<g id="a_Node000008"><a xlink:href="../../d4/df3/_turbulence___integration_8cpp_ab169036ed9f440a82e87aa687850b80e.html#ab169036ed9f440a82e87aa687850b80e" target="_top" xlink:title="Explicit method with turbulence model integration.">
<polygon fill="white" stroke="#666666" points="257,-30.5 145.75,-30.5 145.75,0 257,0 257,-30.5"/>
<text text-anchor="start" x="153.75" y="-17" font-family="Helvetica,sans-Serif" font-size="10.00">Explicit_Method_With</text>
<text text-anchor="middle" x="201.38" y="-5.75" font-family="Helvetica,sans-Serif" font-size="10.00">_Turbulence</text>
</a>
</g>
</g>
<!-- Node7&#45;&gt;Node8 -->
<g id="edge7_Node000007_Node000008" class="edge">
<title>Node7&#45;&gt;Node8</title>
<g id="a_edge7_Node000007_Node000008"><a xlink:title=" ">
<path fill="none" stroke="#63b8ff" d="M281.2,-16.71C273.1,-16.56 265.02,-16.41 257.3,-16.26"/>
<polygon fill="#63b8ff" stroke="#63b8ff" points="281.08,-20.2 291.14,-16.89 281.21,-13.2 281.08,-20.2"/>
</a>
</g>
</g>
<!-- Node8&#45;&gt;Node6 -->
<g id="edge8_Node000008_Node000006" class="edge">
<title>Node8&#45;&gt;Node6</title>
<g id="a_edge8_Node000008_Node000006"><a xlink:title=" ">
<path fill="none" stroke="#63b8ff" d="M136.87,-34.15C127.45,-36.95 117.83,-39.81 108.65,-42.54"/>
<polygon fill="#63b8ff" stroke="#63b8ff" points="137.76,-37.53 146.35,-31.33 135.76,-30.82 137.76,-37.53"/>
</a>
</g>
</g>
<!-- Node9&#45;&gt;Node3 -->
<g id="edge11_Node000009_Node000003" class="edge">
<title>Node9&#45;&gt;Node3</title>
<g id="a_edge11_Node000009_Node000003"><a xlink:title=" ">
<path fill="none" stroke="#63b8ff" d="M786.83,-47.56C778.8,-48.49 770.76,-49.42 762.96,-50.33"/>
<polygon fill="#63b8ff" stroke="#63b8ff" points="787.1,-51.05 796.63,-46.42 786.29,-44.1 787.1,-51.05"/>
</a>
</g>
</g>
</g>
</svg>
