<?xml version="1.0" encoding="UTF-8" standalone="no"?>
<!DOCTYPE svg PUBLIC "-//W3C//DTD SVG 1.1//EN"
 "http://www.w3.org/Graphics/SVG/1.1/DTD/svg11.dtd">
<!-- Generated by graphviz version 12.2.1 (20241206.2353)
 -->
<!-- Title: Calculate_Wall_Distance Pages: 1 -->
<svg width="1133pt" height="149pt"
 viewBox="0.00 0.00 1132.50 148.50" xmlns="http://www.w3.org/2000/svg" xmlns:xlink="http://www.w3.org/1999/xlink">
<g id="graph0" class="graph" transform="scale(1 1) rotate(0) translate(4 144.5)">
<title>Calculate_Wall_Distance</title>
<!-- Node1 -->
<g id="Node000001" class="node">
<title>Node1</title>
<g id="a_Node000001"><a xlink:title="Calculate wall distance for a specific cell.">
<polygon fill="#999999" stroke="#666666" points="1124.5,-67.88 999,-67.88 999,-48.62 1124.5,-48.62 1124.5,-67.88"/>
<text text-anchor="middle" x="1061.75" y="-54.38" font-family="Helvetica,sans-Serif" font-size="10.00">Calculate_Wall_Distance</text>
</a>
</g>
</g>
<!-- Node2 -->
<g id="Node000002" class="node">
<title>Node2</title>
<g id="a_Node000002"><a xlink:href="../../da/d71/_k___epsilon___model_8cpp_aafaba955ffd8353debe7b95e753885d0.html#aafaba955ffd8353debe7b95e753885d0" target="_top" xlink:title="Apply wall functions for K&#45;epsilon model.">
<polygon fill="white" stroke="#666666" points="939.38,-116.5 830.38,-116.5 830.38,-86 939.38,-86 939.38,-116.5"/>
<text text-anchor="start" x="838.38" y="-103" font-family="Helvetica,sans-Serif" font-size="10.00">Apply_KEpsilon_Wall</text>
<text text-anchor="middle" x="884.88" y="-91.75" font-family="Helvetica,sans-Serif" font-size="10.00">_Functions</text>
</a>
</g>
</g>
<!-- Node1&#45;&gt;Node2 -->
<g id="edge1_Node000001_Node000002" class="edge">
<title>Node1&#45;&gt;Node2</title>
<g id="a_edge1_Node000001_Node000002"><a xlink:title=" ">
<path fill="none" stroke="#63b8ff" d="M1008.75,-71.04C987.03,-76.38 961.8,-82.58 939.87,-87.97"/>
<polygon fill="#63b8ff" stroke="#63b8ff" points="1009.4,-74.48 1018.28,-68.69 1007.73,-67.68 1009.4,-74.48"/>
</a>
</g>
</g>
<!-- Node9 -->
<g id="Node000009" class="node">
<title>Node9</title>
<g id="a_Node000009"><a xlink:href="../../da/db6/_k___omega___model_8cpp_a30e02e22d1eda085cbd12bd4a60746c9.html#a30e02e22d1eda085cbd12bd4a60746c9" target="_top" xlink:title="Apply wall functions for K&#45;omega model.">
<polygon fill="white" stroke="#666666" points="963,-67.88 806.75,-67.88 806.75,-48.62 963,-48.62 963,-67.88"/>
<text text-anchor="middle" x="884.88" y="-54.38" font-family="Helvetica,sans-Serif" font-size="10.00">Apply_KOmega_Wall_Functions</text>
</a>
</g>
</g>
<!-- Node1&#45;&gt;Node9 -->
<g id="edge10_Node000001_Node000009" class="edge">
<title>Node1&#45;&gt;Node9</title>
<g id="a_edge10_Node000001_Node000009"><a xlink:title=" ">
<path fill="none" stroke="#63b8ff" d="M987.22,-58.25C979.36,-58.25 971.34,-58.25 963.43,-58.25"/>
<polygon fill="#63b8ff" stroke="#63b8ff" points="987.09,-61.75 997.09,-58.25 987.09,-54.75 987.09,-61.75"/>
</a>
</g>
</g>
<!-- Node10 -->
<g id="Node000010" class="node">
<title>Node10</title>
<g id="a_Node000010"><a xlink:href="../../d5/d65/_turbulence___models_8cpp_a3f09f25044f1f9154c7769be17c75692.html#a3f09f25044f1f9154c7769be17c75692" target="_top" xlink:title="Calculate wall distance for all cells.">
<polygon fill="white" stroke="#666666" points="950.25,-30.5 819.5,-30.5 819.5,0 950.25,0 950.25,-30.5"/>
<text text-anchor="start" x="827.5" y="-17" font-family="Helvetica,sans-Serif" font-size="10.00">Calculate_Wall_Distances</text>
<text text-anchor="middle" x="884.88" y="-5.75" font-family="Helvetica,sans-Serif" font-size="10.00">_All_Cells</text>
</a>
</g>
</g>
<!-- Node1&#45;&gt;Node10 -->
<g id="edge12_Node000001_Node000010" class="edge">
<title>Node1&#45;&gt;Node10</title>
<g id="a_edge12_Node000001_Node000010"><a xlink:title=" ">
<path fill="none" stroke="#63b8ff" d="M1008.63,-45.43C990.18,-40.9 969.21,-35.74 949.89,-30.99"/>
<polygon fill="#63b8ff" stroke="#63b8ff" points="1007.73,-48.82 1018.28,-47.81 1009.4,-42.02 1007.73,-48.82"/>
</a>
</g>
</g>
<!-- Node3 -->
<g id="Node000003" class="node">
<title>Node3</title>
<g id="a_Node000003"><a xlink:href="../../d5/d65/_turbulence___models_8cpp_abebbec3a464f4c0094447be488398fd7.html#abebbec3a464f4c0094447be488398fd7" target="_top" xlink:title="Apply turbulence wall boundary conditions.">
<polygon fill="white" stroke="#666666" points="770.75,-91.88 633.25,-91.88 633.25,-72.62 770.75,-72.62 770.75,-91.88"/>
<text text-anchor="middle" x="702" y="-78.38" font-family="Helvetica,sans-Serif" font-size="10.00">Apply_Turbulence_Wall_BC</text>
</a>
</g>
</g>
<!-- Node2&#45;&gt;Node3 -->
<g id="edge2_Node000002_Node000003" class="edge">
<title>Node2&#45;&gt;Node3</title>
<g id="a_edge2_Node000002_Node000003"><a xlink:title=" ">
<path fill="none" stroke="#63b8ff" d="M818.98,-94.43C803.41,-92.8 786.74,-91.05 771.03,-89.4"/>
<polygon fill="#63b8ff" stroke="#63b8ff" points="818.28,-97.88 828.59,-95.44 819.01,-90.92 818.28,-97.88"/>
</a>
</g>
</g>
<!-- Node4 -->
<g id="Node000004" class="node">
<title>Node4</title>
<g id="a_Node000004"><a xlink:href="../../d5/d65/_turbulence___models_8cpp_a1158808d85e3e5c5ec0b6cc6b7462a27.html#a1158808d85e3e5c5ec0b6cc6b7462a27" target="_top" xlink:title="Apply turbulence boundary conditions to all boundary cells.">
<polygon fill="white" stroke="#666666" points="593.12,-97.5 478.88,-97.5 478.88,-67 593.12,-67 593.12,-97.5"/>
<text text-anchor="start" x="486.88" y="-84" font-family="Helvetica,sans-Serif" font-size="10.00">Apply_All_Turbulence</text>
<text text-anchor="middle" x="536" y="-72.75" font-family="Helvetica,sans-Serif" font-size="10.00">_Boundary_Conditions</text>
</a>
</g>
</g>
<!-- Node3&#45;&gt;Node4 -->
<g id="edge3_Node000003_Node000004" class="edge">
<title>Node3&#45;&gt;Node4</title>
<g id="a_edge3_Node000003_Node000004"><a xlink:title=" ">
<path fill="none" stroke="#63b8ff" d="M621.41,-82.25C611.97,-82.25 602.49,-82.25 593.47,-82.25"/>
<polygon fill="#63b8ff" stroke="#63b8ff" points="621.36,-85.75 631.36,-82.25 621.36,-78.75 621.36,-85.75"/>
</a>
</g>
</g>
<!-- Node5 -->
<g id="Node000005" class="node">
<title>Node5</title>
<g id="a_Node000005"><a xlink:href="../../d4/df3/_turbulence___integration_8cpp_a5be3d179089fc076bb68c61f7cd17b7a.html#a5be3d179089fc076bb68c61f7cd17b7a" target="_top" xlink:title="Runge&#45;Kutta method with turbulence model integration.">
<polygon fill="white" stroke="#666666" points="256.62,-140.5 146.12,-140.5 146.12,-110 256.62,-110 256.62,-140.5"/>
<text text-anchor="start" x="154.12" y="-127" font-family="Helvetica,sans-Serif" font-size="10.00">Runge_Kutta_Method</text>
<text text-anchor="middle" x="201.38" y="-115.75" font-family="Helvetica,sans-Serif" font-size="10.00">_With_Turbulence</text>
</a>
</g>
</g>
<!-- Node4&#45;&gt;Node5 -->
<g id="edge4_Node000004_Node000005" class="edge">
<title>Node4&#45;&gt;Node5</title>
<g id="a_edge4_Node000004_Node000005"><a xlink:title=" ">
<path fill="none" stroke="#63b8ff" d="M467.37,-92.28C457.77,-93.65 448.01,-95.01 438.75,-96.25 376.46,-104.6 304.81,-113.26 256.87,-118.91"/>
<polygon fill="#63b8ff" stroke="#63b8ff" points="467.64,-95.78 477.04,-90.89 466.64,-88.85 467.64,-95.78"/>
</a>
</g>
</g>
<!-- Node6 -->
<g id="Node000006" class="node">
<title>Node6</title>
<g id="a_Node000006"><a xlink:href="../../d4/df3/_turbulence___integration_8cpp_a564537a29550f0d8ec11e8ef76cd2b3a.html#a564537a29550f0d8ec11e8ef76cd2b3a" target="_top" xlink:title="Modified viscous solver with turbulence model integration.">
<polygon fill="white" stroke="#666666" points="109.75,-97.5 0,-97.5 0,-67 109.75,-67 109.75,-97.5"/>
<text text-anchor="start" x="8" y="-84" font-family="Helvetica,sans-Serif" font-size="10.00">Viscous_Solver_With</text>
<text text-anchor="middle" x="54.88" y="-72.75" font-family="Helvetica,sans-Serif" font-size="10.00">_Turbulence</text>
</a>
</g>
</g>
<!-- Node4&#45;&gt;Node6 -->
<g id="edge9_Node000004_Node000006" class="edge">
<title>Node4&#45;&gt;Node6</title>
<g id="a_edge9_Node000004_Node000006"><a xlink:title=" ">
<path fill="none" stroke="#63b8ff" d="M467.34,-82.25C371.51,-82.25 198.14,-82.25 110.19,-82.25"/>
<polygon fill="#63b8ff" stroke="#63b8ff" points="467.12,-85.75 477.12,-82.25 467.12,-78.75 467.12,-85.75"/>
</a>
</g>
</g>
<!-- Node7 -->
<g id="Node000007" class="node">
<title>Node7</title>
<g id="a_Node000007"><a xlink:href="../../d5/d65/_turbulence___models_8cpp_afb9159b9dcb0534a88f1df9496ece4ad.html#afb9159b9dcb0534a88f1df9496ece4ad" target="_top" xlink:title="Update turbulence variables for all cells.">
<polygon fill="white" stroke="#666666" points="438.75,-51.88 293,-51.88 293,-32.62 438.75,-32.62 438.75,-51.88"/>
<text text-anchor="middle" x="365.88" y="-38.38" font-family="Helvetica,sans-Serif" font-size="10.00">Update_Turbulence_Variables</text>
</a>
</g>
</g>
<!-- Node4&#45;&gt;Node7 -->
<g id="edge6_Node000004_Node000007" class="edge">
<title>Node4&#45;&gt;Node7</title>
<g id="a_edge6_Node000004_Node000007"><a xlink:title=" ">
<path fill="none" stroke="#63b8ff" d="M467.49,-66.19C447.86,-61.52 426.97,-56.55 409.35,-52.36"/>
<polygon fill="#63b8ff" stroke="#63b8ff" points="466.54,-69.56 477.08,-68.47 468.16,-62.75 466.54,-69.56"/>
</a>
</g>
</g>
<!-- Node5&#45;&gt;Node6 -->
<g id="edge5_Node000005_Node000006" class="edge">
<title>Node5&#45;&gt;Node6</title>
<g id="a_edge5_Node000005_Node000006"><a xlink:title=" ">
<path fill="none" stroke="#63b8ff" d="M136.87,-106.35C127.45,-103.55 117.83,-100.69 108.65,-97.96"/>
<polygon fill="#63b8ff" stroke="#63b8ff" points="135.76,-109.68 146.35,-109.17 137.76,-102.97 135.76,-109.68"/>
</a>
</g>
</g>
<!-- Node8 -->
<g id="Node000008" class="node">
<title>Node8</title>
<g id="a_Node000008"><a xlink:href="../../d4/df3/_turbulence___integration_8cpp_ab169036ed9f440a82e87aa687850b80e.html#ab169036ed9f440a82e87aa687850b80e" target="_top" xlink:title="Explicit method with turbulence model integration.">
<polygon fill="white" stroke="#666666" points="257,-54.5 145.75,-54.5 145.75,-24 257,-24 257,-54.5"/>
<text text-anchor="start" x="153.75" y="-41" font-family="Helvetica,sans-Serif" font-size="10.00">Explicit_Method_With</text>
<text text-anchor="middle" x="201.38" y="-29.75" font-family="Helvetica,sans-Serif" font-size="10.00">_Turbulence</text>
</a>
</g>
</g>
<!-- Node7&#45;&gt;Node8 -->
<g id="edge7_Node000007_Node000008" class="edge">
<title>Node7&#45;&gt;Node8</title>
<g id="a_edge7_Node000007_Node000008"><a xlink:title=" ">
<path fill="none" stroke="#63b8ff" d="M281.2,-40.71C273.1,-40.56 265.02,-40.41 257.3,-40.26"/>
<polygon fill="#63b8ff" stroke="#63b8ff" points="281.08,-44.2 291.14,-40.89 281.21,-37.2 281.08,-44.2"/>
</a>
</g>
</g>
<!-- Node8&#45;&gt;Node6 -->
<g id="edge8_Node000008_Node000006" class="edge">
<title>Node8&#45;&gt;Node6</title>
<g id="a_edge8_Node000008_Node000006"><a xlink:title=" ">
<path fill="none" stroke="#63b8ff" d="M136.87,-58.15C127.45,-60.95 117.83,-63.81 108.65,-66.54"/>
<polygon fill="#63b8ff" stroke="#63b8ff" points="137.76,-61.53 146.35,-55.33 135.76,-54.82 137.76,-61.53"/>
</a>
</g>
</g>
<!-- Node9&#45;&gt;Node3 -->
<g id="edge11_Node000009_Node000003" class="edge">
<title>Node9&#45;&gt;Node3</title>
<g id="a_edge11_Node000009_Node000003"><a xlink:title=" ">
<path fill="none" stroke="#63b8ff" d="M796.5,-69.84C787.95,-70.98 779.37,-72.12 771.05,-73.22"/>
<polygon fill="#63b8ff" stroke="#63b8ff" points="796.74,-73.34 806.19,-68.56 795.82,-66.4 796.74,-73.34"/>
</a>
</g>
</g>
<!-- Node11 -->
<g id="Node000011" class="node">
<title>Node11</title>
<g id="a_Node000011"><a xlink:href="../../d5/d65/_turbulence___models_8cpp_ae3b78318b928719081e7653fc5c9e8dd.html#ae3b78318b928719081e7653fc5c9e8dd" target="_top" xlink:title="Initialize the specified turbulence model.">
<polygon fill="white" stroke="#666666" points="754.62,-30.5 649.38,-30.5 649.38,0 754.62,0 754.62,-30.5"/>
<text text-anchor="start" x="657.38" y="-17" font-family="Helvetica,sans-Serif" font-size="10.00">Initialize_Turbulence</text>
<text text-anchor="middle" x="702" y="-5.75" font-family="Helvetica,sans-Serif" font-size="10.00">_Model</text>
</a>
</g>
</g>
<!-- Node10&#45;&gt;Node11 -->
<g id="edge13_Node000010_Node000011" class="edge">
<title>Node10&#45;&gt;Node11</title>
<g id="a_edge13_Node000010_Node000011"><a xlink:title=" ">
<path fill="none" stroke="#63b8ff" d="M807.81,-15.25C789.97,-15.25 771.37,-15.25 754.88,-15.25"/>
<polygon fill="#63b8ff" stroke="#63b8ff" points="807.57,-18.75 817.57,-15.25 807.57,-11.75 807.57,-18.75"/>
</a>
</g>
</g>
<!-- Node12 -->
<g id="Node000012" class="node">
<title>Node12</title>
<g id="a_Node000012"><a xlink:href="../../d4/df3/_turbulence___integration_8cpp_aac3a7b5e7a77b6d40a58fe9fa561e7cd.html#aac3a7b5e7a77b6d40a58fe9fa561e7cd" target="_top" xlink:title="Setup turbulence model from configuration file.">
<polygon fill="white" stroke="#666666" points="597.25,-30.5 474.75,-30.5 474.75,0 597.25,0 597.25,-30.5"/>
<text text-anchor="start" x="482.75" y="-17" font-family="Helvetica,sans-Serif" font-size="10.00">Setup_Turbulence_From</text>
<text text-anchor="middle" x="536" y="-5.75" font-family="Helvetica,sans-Serif" font-size="10.00">_Config</text>
</a>
</g>
</g>
<!-- Node11&#45;&gt;Node12 -->
<g id="edge14_Node000011_Node000012" class="edge">
<title>Node11&#45;&gt;Node12</title>
<g id="a_edge14_Node000011_Node000012"><a xlink:title=" ">
<path fill="none" stroke="#63b8ff" d="M637.76,-15.25C624.61,-15.25 610.78,-15.25 597.72,-15.25"/>
<polygon fill="#63b8ff" stroke="#63b8ff" points="637.6,-18.75 647.6,-15.25 637.6,-11.75 637.6,-18.75"/>
</a>
</g>
</g>
</g>
</svg>
