<?xml version="1.0" encoding="UTF-8" standalone="no"?>
<!DOCTYPE svg PUBLIC "-//W3C//DTD SVG 1.1//EN"
 "http://www.w3.org/Graphics/SVG/1.1/DTD/svg11.dtd">
<!-- Generated by graphviz version 12.2.1 (20241206.2353)
 -->
<!-- Title: Apply_Turbulence_Wall_BC Pages: 1 -->
<svg width="1205pt" height="412pt"
 viewBox="0.00 0.00 1205.25 411.69" xmlns="http://www.w3.org/2000/svg" xmlns:xlink="http://www.w3.org/1999/xlink">
<g id="graph0" class="graph" transform="scale(1 1) rotate(0) translate(4 407.69)">
<title>Apply_Turbulence_Wall_BC</title>
<!-- Node1 -->
<g id="Node000001" class="node">
<title>Node1</title>
<g id="a_Node000001"><a xlink:title="Apply turbulence wall boundary conditions.">
<polygon fill="#999999" stroke="#666666" points="137.5,-316.88 0,-316.88 0,-297.62 137.5,-297.62 137.5,-316.88"/>
<text text-anchor="middle" x="68.75" y="-303.38" font-family="Helvetica,sans-Serif" font-size="10.00">Apply_Turbulence_Wall_BC</text>
</a>
</g>
</g>
<!-- Node2 -->
<g id="Node000002" class="node">
<title>Node2</title>
<g id="a_Node000002"><a xlink:href="../../da/d71/_k___epsilon___model_8cpp_aafaba955ffd8353debe7b95e753885d0.html#aafaba955ffd8353debe7b95e753885d0" target="_top" xlink:title="Apply wall functions for K&#45;epsilon model.">
<polygon fill="white" stroke="#666666" points="306.12,-322.5 197.12,-322.5 197.12,-292 306.12,-292 306.12,-322.5"/>
<text text-anchor="start" x="205.12" y="-309" font-family="Helvetica,sans-Serif" font-size="10.00">Apply_KEpsilon_Wall</text>
<text text-anchor="middle" x="251.62" y="-297.75" font-family="Helvetica,sans-Serif" font-size="10.00">_Functions</text>
</a>
</g>
</g>
<!-- Node1&#45;&gt;Node2 -->
<g id="edge1_Node000001_Node000002" class="edge">
<title>Node1&#45;&gt;Node2</title>
<g id="a_edge1_Node000001_Node000002"><a xlink:title=" ">
<path fill="none" stroke="#63b8ff" d="M137.87,-307.25C153.51,-307.25 170.09,-307.25 185.59,-307.25"/>
<polygon fill="#63b8ff" stroke="#63b8ff" points="185.14,-310.75 195.14,-307.25 185.14,-303.75 185.14,-310.75"/>
</a>
</g>
</g>
<!-- Node11 -->
<g id="Node000011" class="node">
<title>Node11</title>
<g id="a_Node000011"><a xlink:href="../../da/db6/_k___omega___model_8cpp_a30e02e22d1eda085cbd12bd4a60746c9.html#a30e02e22d1eda085cbd12bd4a60746c9" target="_top" xlink:title="Apply wall functions for K&#45;omega model.">
<polygon fill="white" stroke="#666666" points="329.75,-255.88 173.5,-255.88 173.5,-236.62 329.75,-236.62 329.75,-255.88"/>
<text text-anchor="middle" x="251.62" y="-242.38" font-family="Helvetica,sans-Serif" font-size="10.00">Apply_KOmega_Wall_Functions</text>
</a>
</g>
</g>
<!-- Node1&#45;&gt;Node11 -->
<g id="edge13_Node000001_Node000011" class="edge">
<title>Node1&#45;&gt;Node11</title>
<g id="a_edge13_Node000001_Node000011"><a xlink:title=" ">
<path fill="none" stroke="#63b8ff" d="M99.62,-297.18C129.73,-287.02 176.41,-271.28 209.9,-259.98"/>
<polygon fill="#63b8ff" stroke="#63b8ff" points="210.92,-263.33 219.28,-256.82 208.68,-256.7 210.92,-263.33"/>
</a>
</g>
</g>
<!-- Node19 -->
<g id="Node000019" class="node">
<title>Node19</title>
<g id="a_Node000019"><a xlink:href="../../d5/d65/_turbulence___models_8cpp_ad6a342b97cd552edb366d41db13e11b2.html#ad6a342b97cd552edb366d41db13e11b2" target="_top" xlink:title="Apply low&#45;Reynolds number wall treatment.">
<polygon fill="white" stroke="#666666" points="329.38,-399.88 173.88,-399.88 173.88,-380.62 329.38,-380.62 329.38,-399.88"/>
<text text-anchor="middle" x="251.62" y="-386.38" font-family="Helvetica,sans-Serif" font-size="10.00">Apply_Low_Re_Wall_Treatment</text>
</a>
</g>
</g>
<!-- Node1&#45;&gt;Node19 -->
<g id="edge29_Node000001_Node000019" class="edge">
<title>Node1&#45;&gt;Node19</title>
<g id="a_edge29_Node000001_Node000019"><a xlink:title=" ">
<path fill="none" stroke="#63b8ff" d="M91.57,-317.26C123.21,-331.78 182.04,-358.78 218.6,-375.55"/>
<polygon fill="#63b8ff" stroke="#63b8ff" points="216.81,-378.58 227.35,-379.57 219.73,-372.22 216.81,-378.58"/>
</a>
</g>
</g>
<!-- Node3 -->
<g id="Node000003" class="node">
<title>Node3</title>
<g id="a_Node000003"><a xlink:href="../../da/d71/_k___epsilon___model_8cpp_a80bd2fbc9eee5585491d30c17bd73b77.html#a80bd2fbc9eee5585491d30c17bd73b77" target="_top" xlink:title="Calculate turbulent viscosity using K&#45;epsilon model.">
<polygon fill="white" stroke="#666666" points="492.75,-365.5 385.25,-365.5 385.25,-335 492.75,-335 492.75,-365.5"/>
<text text-anchor="start" x="393.25" y="-352" font-family="Helvetica,sans-Serif" font-size="10.00">Calculate_KEpsilon</text>
<text text-anchor="middle" x="439" y="-340.75" font-family="Helvetica,sans-Serif" font-size="10.00">_Turbulent_Viscosity</text>
</a>
</g>
</g>
<!-- Node2&#45;&gt;Node3 -->
<g id="edge2_Node000002_Node000003" class="edge">
<title>Node2&#45;&gt;Node3</title>
<g id="a_edge2_Node000002_Node000003"><a xlink:title=" ">
<path fill="none" stroke="#63b8ff" d="M306.24,-319.69C327.37,-324.59 351.82,-330.26 373.88,-335.38"/>
<polygon fill="#63b8ff" stroke="#63b8ff" points="372.82,-338.72 383.35,-337.57 374.4,-331.9 372.82,-338.72"/>
</a>
</g>
</g>
<!-- Node4 -->
<g id="Node000004" class="node">
<title>Node4</title>
<g id="a_Node000004"><a xlink:href="../../da/d71/_k___epsilon___model_8cpp_ab6081c548f15e5cff5f3a7f797726bd0.html#ab6081c548f15e5cff5f3a7f797726bd0" target="_top" xlink:title="Calculate laminar viscosity for a given cell.">
<polygon fill="white" stroke="#666666" points="1029,-260.88 886.25,-260.88 886.25,-241.62 1029,-241.62 1029,-260.88"/>
<text text-anchor="middle" x="957.62" y="-247.38" font-family="Helvetica,sans-Serif" font-size="10.00">Calculate_Laminar_Viscosity</text>
</a>
</g>
</g>
<!-- Node2&#45;&gt;Node4 -->
<g id="edge7_Node000002_Node000004" class="edge">
<title>Node2&#45;&gt;Node4</title>
<g id="a_edge7_Node000002_Node000004"><a xlink:title=" ">
<path fill="none" stroke="#63b8ff" d="M271.58,-322.86C292.93,-339.34 329.43,-364.3 365.75,-374.25 428.55,-391.45 447.55,-381.53 512.25,-374.25 665.36,-357.03 703.81,-345.14 850.25,-297.25 876.63,-288.62 905.47,-275.94 926.46,-266.07"/>
<polygon fill="#63b8ff" stroke="#63b8ff" points="927.78,-269.32 935.3,-261.85 924.76,-263 927.78,-269.32"/>
</a>
</g>
</g>
<!-- Node8 -->
<g id="Node000008" class="node">
<title>Node8</title>
<g id="a_Node000008"><a xlink:href="../../d5/d65/_turbulence___models_8cpp_ad33c2f48ac725ecf6a5752998dc61bfb.html#ad33c2f48ac725ecf6a5752998dc61bfb" target="_top" xlink:title="Calculate wall distance for a specific cell.">
<polygon fill="white" stroke="#666666" points="501.75,-316.88 376.25,-316.88 376.25,-297.62 501.75,-297.62 501.75,-316.88"/>
<text text-anchor="middle" x="439" y="-303.38" font-family="Helvetica,sans-Serif" font-size="10.00">Calculate_Wall_Distance</text>
</a>
</g>
</g>
<!-- Node2&#45;&gt;Node8 -->
<g id="edge8_Node000002_Node000008" class="edge">
<title>Node2&#45;&gt;Node8</title>
<g id="a_edge8_Node000002_Node000008"><a xlink:title=" ">
<path fill="none" stroke="#63b8ff" d="M306.24,-307.25C324.48,-307.25 345.18,-307.25 364.69,-307.25"/>
<polygon fill="#63b8ff" stroke="#63b8ff" points="364.49,-310.75 374.49,-307.25 364.49,-303.75 364.49,-310.75"/>
</a>
</g>
</g>
<!-- Node9 -->
<g id="Node000009" class="node">
<title>Node9</title>
<g id="a_Node000009"><a xlink:href="../../d5/d65/_turbulence___models_8cpp_a03e51a3911d0c7d5e07923da61de56ac.html#a03e51a3911d0c7d5e07923da61de56ac" target="_top" xlink:title="Calculate wall shear stress for a specific cell.">
<polygon fill="white" stroke="#666666" points="495,-242.5 383,-242.5 383,-212 495,-212 495,-242.5"/>
<text text-anchor="start" x="391" y="-229" font-family="Helvetica,sans-Serif" font-size="10.00">Calculate_Wall_Shear</text>
<text text-anchor="middle" x="439" y="-217.75" font-family="Helvetica,sans-Serif" font-size="10.00">_Stress</text>
</a>
</g>
</g>
<!-- Node2&#45;&gt;Node9 -->
<g id="edge9_Node000002_Node000009" class="edge">
<title>Node2&#45;&gt;Node9</title>
<g id="a_edge9_Node000002_Node000009"><a xlink:title=" ">
<path fill="none" stroke="#63b8ff" d="M281.41,-291.61C303.97,-279.7 336.36,-263.34 365.75,-251.25 369.52,-249.7 373.42,-248.18 377.38,-246.69"/>
<polygon fill="#63b8ff" stroke="#63b8ff" points="378.28,-250.09 386.5,-243.39 375.9,-243.51 378.28,-250.09"/>
</a>
</g>
</g>
<!-- Node10 -->
<g id="Node000010" class="node">
<title>Node10</title>
<g id="a_Node000010"><a xlink:href="../../d5/d65/_turbulence___models_8cpp_aafebbce81375f79224f4a424a54b29ee.html#aafebbce81375f79224f4a424a54b29ee" target="_top" xlink:title="Calculate y+ value for a specific cell.">
<polygon fill="white" stroke="#666666" points="486,-279.88 392,-279.88 392,-260.62 486,-260.62 486,-279.88"/>
<text text-anchor="middle" x="439" y="-266.38" font-family="Helvetica,sans-Serif" font-size="10.00">Calculate_Y_Plus</text>
</a>
</g>
</g>
<!-- Node2&#45;&gt;Node10 -->
<g id="edge11_Node000002_Node000010" class="edge">
<title>Node2&#45;&gt;Node10</title>
<g id="a_edge11_Node000002_Node000010"><a xlink:title=" ">
<path fill="none" stroke="#63b8ff" d="M306.24,-296.55C329.6,-291.89 357,-286.42 380.75,-281.68"/>
<polygon fill="#63b8ff" stroke="#63b8ff" points="381.13,-285.17 390.25,-279.78 379.76,-278.31 381.13,-285.17"/>
</a>
</g>
</g>
<!-- Node3&#45;&gt;Node4 -->
<g id="edge3_Node000003_Node000004" class="edge">
<title>Node3&#45;&gt;Node4</title>
<g id="a_edge3_Node000003_Node000004"><a xlink:title=" ">
<path fill="none" stroke="#63b8ff" d="M492.86,-340.12C588.42,-321.81 789.53,-283.27 892.66,-263.51"/>
<polygon fill="#63b8ff" stroke="#63b8ff" points="893.19,-266.97 902.35,-261.65 891.87,-260.09 893.19,-266.97"/>
</a>
</g>
</g>
<!-- Node5 -->
<g id="Node000005" class="node">
<title>Node5</title>
<g id="a_Node000005"><a xlink:href="../../da/d71/_k___epsilon___model_8cpp_a4ac5abbc0be034b167174ed0e6ea5814.html#a4ac5abbc0be034b167174ed0e6ea5814" target="_top" xlink:title="Calculate strain rate magnitude for a given cell.">
<polygon fill="white" stroke="#666666" points="676,-166.5 561.75,-166.5 561.75,-136 676,-136 676,-166.5"/>
<text text-anchor="start" x="569.75" y="-153" font-family="Helvetica,sans-Serif" font-size="10.00">Calculate_Strain_Rate</text>
<text text-anchor="middle" x="618.88" y="-141.75" font-family="Helvetica,sans-Serif" font-size="10.00">_Magnitude</text>
</a>
</g>
</g>
<!-- Node3&#45;&gt;Node5 -->
<g id="edge4_Node000003_Node000005" class="edge">
<title>Node3&#45;&gt;Node5</title>
<g id="a_edge4_Node000003_Node000005"><a xlink:title=" ">
<path fill="none" stroke="#63b8ff" d="M493.18,-337.49C500,-334.48 506.57,-330.79 512.25,-326.25 562.24,-286.3 594.22,-215.79 608.75,-177.6"/>
<polygon fill="#63b8ff" stroke="#63b8ff" points="612.01,-178.87 612.18,-168.28 605.44,-176.45 612.01,-178.87"/>
</a>
</g>
</g>
<!-- Node6 -->
<g id="Node000006" class="node">
<title>Node6</title>
<g id="a_Node000006"><a xlink:href="../../d5/d65/_turbulence___models_8cpp_abcf5967a793b905ba24e0b6f02859f52.html#abcf5967a793b905ba24e0b6f02859f52" target="_top" xlink:title="Calculate strain rate tensor for a given cell.">
<polygon fill="white" stroke="#666666" points="845,-128.5 730.75,-128.5 730.75,-98 845,-98 845,-128.5"/>
<text text-anchor="start" x="738.75" y="-115" font-family="Helvetica,sans-Serif" font-size="10.00">Calculate_Strain_Rate</text>
<text text-anchor="middle" x="787.88" y="-103.75" font-family="Helvetica,sans-Serif" font-size="10.00">_Tensor</text>
</a>
</g>
</g>
<!-- Node5&#45;&gt;Node6 -->
<g id="edge5_Node000005_Node000006" class="edge">
<title>Node5&#45;&gt;Node6</title>
<g id="a_edge5_Node000005_Node000006"><a xlink:title=" ">
<path fill="none" stroke="#63b8ff" d="M676.41,-138.38C690.15,-135.26 704.98,-131.88 719.18,-128.65"/>
<polygon fill="#63b8ff" stroke="#63b8ff" points="719.94,-132.07 728.92,-126.44 718.39,-125.24 719.94,-132.07"/>
</a>
</g>
</g>
<!-- Node7 -->
<g id="Node000007" class="node">
<title>Node7</title>
<g id="a_Node000007"><a xlink:href="../../d5/db2/class_vector_a2ce47a84fc19c32a26ada5a3379c3f0a.html#a2ce47a84fc19c32a26ada5a3379c3f0a" target="_top" xlink:title=" ">
<polygon fill="white" stroke="#666666" points="1018.5,-97.88 896.75,-97.88 896.75,-78.62 1018.5,-78.62 1018.5,-97.88"/>
<text text-anchor="middle" x="957.62" y="-84.38" font-family="Helvetica,sans-Serif" font-size="10.00">Vector::Get_Component</text>
</a>
</g>
</g>
<!-- Node6&#45;&gt;Node7 -->
<g id="edge6_Node000006_Node000007" class="edge">
<title>Node6&#45;&gt;Node7</title>
<g id="a_edge6_Node000006_Node000007"><a xlink:title=" ">
<path fill="none" stroke="#63b8ff" d="M845.2,-104.86C858.06,-102.94 871.9,-100.88 885.3,-98.88"/>
<polygon fill="#63b8ff" stroke="#63b8ff" points="885.55,-102.38 894.93,-97.45 884.52,-95.46 885.55,-102.38"/>
</a>
</g>
</g>
<!-- Node9&#45;&gt;Node4 -->
<g id="edge10_Node000009_Node000004" class="edge">
<title>Node9&#45;&gt;Node4</title>
<g id="a_edge10_Node000009_Node000004"><a xlink:title=" ">
<path fill="none" stroke="#63b8ff" d="M495.29,-229.82C586.46,-234.05 768.77,-242.52 874.87,-247.45"/>
<polygon fill="#63b8ff" stroke="#63b8ff" points="874.5,-250.94 884.65,-247.91 874.82,-243.95 874.5,-250.94"/>
</a>
</g>
</g>
<!-- Node10&#45;&gt;Node4 -->
<g id="edge12_Node000010_Node000004" class="edge">
<title>Node10&#45;&gt;Node4</title>
<g id="a_edge12_Node000010_Node000004"><a xlink:title=" ">
<path fill="none" stroke="#63b8ff" d="M486.3,-268.55C573.85,-265.33 764.7,-258.31 874.47,-254.27"/>
<polygon fill="#63b8ff" stroke="#63b8ff" points="874.44,-257.78 884.3,-253.91 874.18,-250.78 874.44,-257.78"/>
</a>
</g>
</g>
<!-- Node11&#45;&gt;Node4 -->
<g id="edge25_Node000011_Node000004" class="edge">
<title>Node11&#45;&gt;Node4</title>
<g id="a_edge25_Node000011_Node000004"><a xlink:title=" ">
<path fill="none" stroke="#63b8ff" d="M272.42,-236.19C294.51,-225.56 331.65,-209.51 365.75,-203.25 564.06,-166.83 804.88,-214.26 907.02,-238.54"/>
<polygon fill="#63b8ff" stroke="#63b8ff" points="905.89,-241.87 916.44,-240.81 907.54,-235.06 905.89,-241.87"/>
</a>
</g>
</g>
<!-- Node11&#45;&gt;Node8 -->
<g id="edge26_Node000011_Node000008" class="edge">
<title>Node11&#45;&gt;Node8</title>
<g id="a_edge26_Node000011_Node000008"><a xlink:title=" ">
<path fill="none" stroke="#63b8ff" d="M276.61,-256.32C299.31,-265.62 334.47,-279.45 365.75,-289.25 371.24,-290.97 377,-292.64 382.77,-294.21"/>
<polygon fill="#63b8ff" stroke="#63b8ff" points="381.8,-297.58 392.37,-296.75 383.59,-290.81 381.8,-297.58"/>
</a>
</g>
</g>
<!-- Node11&#45;&gt;Node9 -->
<g id="edge27_Node000011_Node000009" class="edge">
<title>Node11&#45;&gt;Node9</title>
<g id="a_edge27_Node000011_Node000009"><a xlink:title=" ">
<path fill="none" stroke="#63b8ff" d="M330.17,-238.3C343.96,-236.89 358.22,-235.43 371.67,-234.05"/>
<polygon fill="#63b8ff" stroke="#63b8ff" points="371.65,-237.57 381.24,-233.07 370.94,-230.61 371.65,-237.57"/>
</a>
</g>
</g>
<!-- Node11&#45;&gt;Node10 -->
<g id="edge28_Node000011_Node000010" class="edge">
<title>Node11&#45;&gt;Node10</title>
<g id="a_edge28_Node000011_Node000010"><a xlink:title=" ">
<path fill="none" stroke="#63b8ff" d="M330.17,-256.29C347.01,-258.47 364.54,-260.74 380.45,-262.8"/>
<polygon fill="#63b8ff" stroke="#63b8ff" points="379.85,-266.25 390.22,-264.06 380.75,-259.31 379.85,-266.25"/>
</a>
</g>
</g>
<!-- Node12 -->
<g id="Node000012" class="node">
<title>Node12</title>
<g id="a_Node000012"><a xlink:href="../../da/db6/_k___omega___model_8cpp_acbb6eb3b6b7d60663920ef36f7442e10.html#acbb6eb3b6b7d60663920ef36f7442e10" target="_top" xlink:title="Calculate turbulent viscosity using K&#45;omega model.">
<polygon fill="white" stroke="#666666" points="512.25,-123.5 365.75,-123.5 365.75,-93 512.25,-93 512.25,-123.5"/>
<text text-anchor="start" x="373.75" y="-110" font-family="Helvetica,sans-Serif" font-size="10.00">Calculate_KOmega_Turbulent</text>
<text text-anchor="middle" x="439" y="-98.75" font-family="Helvetica,sans-Serif" font-size="10.00">_Viscosity</text>
</a>
</g>
</g>
<!-- Node11&#45;&gt;Node12 -->
<g id="edge14_Node000011_Node000012" class="edge">
<title>Node11&#45;&gt;Node12</title>
<g id="a_edge14_Node000011_Node000012"><a xlink:title=" ">
<path fill="none" stroke="#63b8ff" d="M265.96,-236.33C295.47,-214.36 366.94,-161.15 407.88,-130.68"/>
<polygon fill="#63b8ff" stroke="#63b8ff" points="409.95,-133.49 415.88,-124.72 405.77,-127.88 409.95,-133.49"/>
</a>
</g>
</g>
<!-- Node12&#45;&gt;Node4 -->
<g id="edge15_Node000012_Node000004" class="edge">
<title>Node12&#45;&gt;Node4</title>
<g id="a_edge15_Node000012_Node000004"><a xlink:title=" ">
<path fill="none" stroke="#63b8ff" d="M512.69,-109.15C562.8,-110.9 630.71,-115.5 689.5,-127.25 707.94,-130.94 833.34,-172.01 850.25,-180.25 881.61,-195.53 914.54,-218.8 935.31,-234.5"/>
<polygon fill="#63b8ff" stroke="#63b8ff" points="932.94,-237.09 943,-240.4 937.2,-231.53 932.94,-237.09"/>
</a>
</g>
</g>
<!-- Node12&#45;&gt;Node5 -->
<g id="edge21_Node000012_Node000005" class="edge">
<title>Node12&#45;&gt;Node5</title>
<g id="a_edge21_Node000012_Node000005"><a xlink:title=" ">
<path fill="none" stroke="#63b8ff" d="M504.97,-123.96C519.68,-127.51 535.34,-131.3 550.16,-134.88"/>
<polygon fill="#63b8ff" stroke="#63b8ff" points="549.28,-138.27 559.83,-137.22 550.93,-131.47 549.28,-138.27"/>
</a>
</g>
</g>
<!-- Node13 -->
<g id="Node000013" class="node">
<title>Node13</title>
<g id="a_Node000013"><a xlink:href="../../da/db6/_k___omega___model_8cpp_a133b20f2fbde5fe32f3bf8da3734a3df.html#a133b20f2fbde5fe32f3bf8da3734a3df" target="_top" xlink:title="Calculate F2 blending function for SST turbulent viscosity.">
<polygon fill="white" stroke="#666666" points="689.5,-28.88 548.25,-28.88 548.25,-9.62 689.5,-9.62 689.5,-28.88"/>
<text text-anchor="middle" x="618.88" y="-15.38" font-family="Helvetica,sans-Serif" font-size="10.00">Calculate_SST_F2_Function</text>
</a>
</g>
</g>
<!-- Node12&#45;&gt;Node13 -->
<g id="edge16_Node000012_Node000013" class="edge">
<title>Node12&#45;&gt;Node13</title>
<g id="a_edge16_Node000012_Node000013"><a xlink:title=" ">
<path fill="none" stroke="#63b8ff" d="M461.49,-92.71C482.71,-77.92 516.51,-55.81 548.25,-41.25 554.91,-38.2 562.1,-35.4 569.26,-32.9"/>
<polygon fill="#63b8ff" stroke="#63b8ff" points="570.18,-36.28 578.58,-29.82 567.98,-29.64 570.18,-36.28"/>
</a>
</g>
</g>
<!-- Node17 -->
<g id="Node000017" class="node">
<title>Node17</title>
<g id="a_Node000017"><a xlink:href="../../da/db6/_k___omega___model_8cpp_af1e41ac929a629cbe45c3c594b4f972e.html#af1e41ac929a629cbe45c3c594b4f972e" target="_top" xlink:title="Calculate vorticity magnitude for SST model.">
<polygon fill="white" stroke="#666666" points="668.12,-80.5 569.62,-80.5 569.62,-50 668.12,-50 668.12,-80.5"/>
<text text-anchor="start" x="577.62" y="-67" font-family="Helvetica,sans-Serif" font-size="10.00">Calculate_Vorticity</text>
<text text-anchor="middle" x="618.88" y="-55.75" font-family="Helvetica,sans-Serif" font-size="10.00">_Magnitude</text>
</a>
</g>
</g>
<!-- Node12&#45;&gt;Node17 -->
<g id="edge22_Node000012_Node000017" class="edge">
<title>Node12&#45;&gt;Node17</title>
<g id="a_edge22_Node000012_Node000017"><a xlink:title=" ">
<path fill="none" stroke="#63b8ff" d="M504.97,-92.54C522.39,-88.33 541.14,-83.8 558.26,-79.66"/>
<polygon fill="#63b8ff" stroke="#63b8ff" points="558.87,-83.11 567.77,-77.36 557.23,-76.31 558.87,-83.11"/>
</a>
</g>
</g>
<!-- Node14 -->
<g id="Node000014" class="node">
<title>Node14</title>
<g id="a_Node000014"><a xlink:href="../../da/db6/_k___omega___model_8cpp_a31b6758cb80b88340974998c3c5361e2.html#a31b6758cb80b88340974998c3c5361e2" target="_top" xlink:title="Calculate SST blending functions F1 and F2.">
<polygon fill="white" stroke="#666666" points="850.25,-30.5 725.5,-30.5 725.5,0 850.25,0 850.25,-30.5"/>
<text text-anchor="start" x="733.5" y="-17" font-family="Helvetica,sans-Serif" font-size="10.00">Calculate_SST_Blending</text>
<text text-anchor="middle" x="787.88" y="-5.75" font-family="Helvetica,sans-Serif" font-size="10.00">_Functions</text>
</a>
</g>
</g>
<!-- Node13&#45;&gt;Node14 -->
<g id="edge17_Node000013_Node000014" class="edge">
<title>Node13&#45;&gt;Node14</title>
<g id="a_edge17_Node000013_Node000014"><a xlink:title=" ">
<path fill="none" stroke="#63b8ff" d="M689.73,-17.58C697.6,-17.39 705.63,-17.2 713.54,-17.01"/>
<polygon fill="#63b8ff" stroke="#63b8ff" points="713.58,-20.51 723.49,-16.77 713.41,-13.51 713.58,-20.51"/>
</a>
</g>
</g>
<!-- Node14&#45;&gt;Node4 -->
<g id="edge18_Node000014_Node000004" class="edge">
<title>Node14&#45;&gt;Node4</title>
<g id="a_edge18_Node000014_Node000004"><a xlink:title=" ">
<path fill="none" stroke="#63b8ff" d="M837.17,-30.87C841.89,-33.55 846.36,-36.66 850.25,-40.25 854.14,-43.84 920.9,-178.79 946.63,-230.95"/>
<polygon fill="#63b8ff" stroke="#63b8ff" points="943.49,-232.5 951.05,-239.92 949.76,-229.4 943.49,-232.5"/>
</a>
</g>
</g>
<!-- Node15 -->
<g id="Node000015" class="node">
<title>Node15</title>
<g id="a_Node000015"><a xlink:href="../../da/db6/_k___omega___model_8cpp_a7fa3fb752505082634dc5acc883aa464.html#a7fa3fb752505082634dc5acc883aa464" target="_top" xlink:title="Calculate cross&#45;diffusion term for SST model.">
<polygon fill="white" stroke="#666666" points="1014.38,-30.5 900.88,-30.5 900.88,0 1014.38,0 1014.38,-30.5"/>
<text text-anchor="start" x="908.88" y="-17" font-family="Helvetica,sans-Serif" font-size="10.00">Calculate_SST_Cross</text>
<text text-anchor="middle" x="957.62" y="-5.75" font-family="Helvetica,sans-Serif" font-size="10.00">_Diffusion</text>
</a>
</g>
</g>
<!-- Node14&#45;&gt;Node15 -->
<g id="edge19_Node000014_Node000015" class="edge">
<title>Node14&#45;&gt;Node15</title>
<g id="a_edge19_Node000014_Node000015"><a xlink:title=" ">
<path fill="none" stroke="#63b8ff" d="M850.39,-15.25C862.91,-15.25 876.16,-15.25 888.89,-15.25"/>
<polygon fill="#63b8ff" stroke="#63b8ff" points="888.89,-18.75 898.89,-15.25 888.89,-11.75 888.89,-18.75"/>
</a>
</g>
</g>
<!-- Node16 -->
<g id="Node000016" class="node">
<title>Node16</title>
<g id="a_Node000016"><a xlink:href="../../da/db6/_k___omega___model_8cpp_a7584c2aad761764bf65ccb3e3839a480.html#a7584c2aad761764bf65ccb3e3839a480" target="_top" xlink:title="Calculate scalar gradient for a given variable.">
<polygon fill="white" stroke="#666666" points="1197.25,-24.88 1065,-24.88 1065,-5.62 1197.25,-5.62 1197.25,-24.88"/>
<text text-anchor="middle" x="1131.12" y="-11.38" font-family="Helvetica,sans-Serif" font-size="10.00">Calculate_Scalar_Gradient</text>
</a>
</g>
</g>
<!-- Node15&#45;&gt;Node16 -->
<g id="edge20_Node000015_Node000016" class="edge">
<title>Node15&#45;&gt;Node16</title>
<g id="a_edge20_Node000015_Node000016"><a xlink:title=" ">
<path fill="none" stroke="#63b8ff" d="M1014.78,-15.25C1027.1,-15.25 1040.34,-15.25 1053.31,-15.25"/>
<polygon fill="#63b8ff" stroke="#63b8ff" points="1053.09,-18.75 1063.09,-15.25 1053.09,-11.75 1053.09,-18.75"/>
</a>
</g>
</g>
<!-- Node18 -->
<g id="Node000018" class="node">
<title>Node18</title>
<g id="a_Node000018"><a xlink:href="../../d5/d65/_turbulence___models_8cpp_a7682b4426768f92eca578dc8f7c68db3.html#a7682b4426768f92eca578dc8f7c68db3" target="_top" xlink:title="Calculate vorticity tensor for a given cell.">
<polygon fill="white" stroke="#666666" points="837.12,-79.5 738.62,-79.5 738.62,-49 837.12,-49 837.12,-79.5"/>
<text text-anchor="start" x="746.62" y="-66" font-family="Helvetica,sans-Serif" font-size="10.00">Calculate_Vorticity</text>
<text text-anchor="middle" x="787.88" y="-54.75" font-family="Helvetica,sans-Serif" font-size="10.00">_Tensor</text>
</a>
</g>
</g>
<!-- Node17&#45;&gt;Node18 -->
<g id="edge23_Node000017_Node000018" class="edge">
<title>Node17&#45;&gt;Node18</title>
<g id="a_edge23_Node000017_Node000018"><a xlink:title=" ">
<path fill="none" stroke="#63b8ff" d="M668.18,-64.96C686.53,-64.85 707.66,-64.72 726.96,-64.61"/>
<polygon fill="#63b8ff" stroke="#63b8ff" points="726.9,-68.11 736.88,-64.55 726.86,-61.11 726.9,-68.11"/>
</a>
</g>
</g>
<!-- Node18&#45;&gt;Node7 -->
<g id="edge24_Node000018_Node000007" class="edge">
<title>Node18&#45;&gt;Node7</title>
<g id="a_edge24_Node000018_Node000007"><a xlink:title=" ">
<path fill="none" stroke="#63b8ff" d="M837.4,-71.19C852.33,-73.33 869.1,-75.73 885.24,-78.04"/>
<polygon fill="#63b8ff" stroke="#63b8ff" points="884.39,-81.45 894.78,-79.4 885.38,-74.52 884.39,-81.45"/>
</a>
</g>
</g>
<!-- Node19&#45;&gt;Node4 -->
<g id="edge30_Node000019_Node000004" class="edge">
<title>Node19&#45;&gt;Node4</title>
<g id="a_edge30_Node000019_Node000004"><a xlink:title=" ">
<path fill="none" stroke="#63b8ff" d="M329.69,-398.6C448,-408 678.66,-412.54 850.25,-330.25 883.89,-314.12 917.59,-286.72 937.78,-268.81"/>
<polygon fill="#63b8ff" stroke="#63b8ff" points="939.87,-271.64 944.94,-262.34 935.18,-266.45 939.87,-271.64"/>
</a>
</g>
</g>
</g>
</svg>
