<?xml version="1.0" encoding="UTF-8" standalone="no"?>
<!DOCTYPE svg PUBLIC "-//W3C//DTD SVG 1.1//EN"
 "http://www.w3.org/Graphics/SVG/1.1/DTD/svg11.dtd">
<!-- Generated by graphviz version 12.2.1 (20241206.2353)
 -->
<!-- Title: Update_Effective_Viscosity Pages: 1 -->
<svg width="620pt" height="39pt"
 viewBox="0.00 0.00 620.25 38.50" xmlns="http://www.w3.org/2000/svg" xmlns:xlink="http://www.w3.org/1999/xlink">
<g id="graph0" class="graph" transform="scale(1 1) rotate(0) translate(4 34.5)">
<title>Update_Effective_Viscosity</title>
<!-- Node1 -->
<g id="Node000001" class="node">
<title>Node1</title>
<g id="a_Node000001"><a xlink:title="Update effective viscosity for all cells.">
<polygon fill="#999999" stroke="#666666" points="612.25,-24.88 474.75,-24.88 474.75,-5.63 612.25,-5.63 612.25,-24.88"/>
<text text-anchor="middle" x="543.5" y="-11.38" font-family="Helvetica,sans-Serif" font-size="10.00">Update_Effective_Viscosity</text>
</a>
</g>
</g>
<!-- Node2 -->
<g id="Node000002" class="node">
<title>Node2</title>
<g id="a_Node000002"><a xlink:href="../../d5/d65/_turbulence___models_8cpp_afb9159b9dcb0534a88f1df9496ece4ad.html#afb9159b9dcb0534a88f1df9496ece4ad" target="_top" xlink:title="Update turbulence variables for all cells.">
<polygon fill="white" stroke="#666666" points="438.75,-24.88 293,-24.88 293,-5.63 438.75,-5.63 438.75,-24.88"/>
<text text-anchor="middle" x="365.88" y="-11.38" font-family="Helvetica,sans-Serif" font-size="10.00">Update_Turbulence_Variables</text>
</a>
</g>
</g>
<!-- Node1&#45;&gt;Node2 -->
<g id="edge1_Node000001_Node000002" class="edge">
<title>Node1&#45;&gt;Node2</title>
<g id="a_edge1_Node000001_Node000002"><a xlink:title=" ">
<path fill="none" stroke="#63b8ff" d="M463.11,-15.25C455.1,-15.25 446.99,-15.25 439.06,-15.25"/>
<polygon fill="#63b8ff" stroke="#63b8ff" points="462.83,-18.75 472.83,-15.25 462.83,-11.75 462.83,-18.75"/>
</a>
</g>
</g>
<!-- Node3 -->
<g id="Node000003" class="node">
<title>Node3</title>
<g id="a_Node000003"><a xlink:href="../../d4/df3/_turbulence___integration_8cpp_ab169036ed9f440a82e87aa687850b80e.html#ab169036ed9f440a82e87aa687850b80e" target="_top" xlink:title="Explicit method with turbulence model integration.">
<polygon fill="white" stroke="#666666" points="257,-30.5 145.75,-30.5 145.75,0 257,0 257,-30.5"/>
<text text-anchor="start" x="153.75" y="-17" font-family="Helvetica,sans-Serif" font-size="10.00">Explicit_Method_With</text>
<text text-anchor="middle" x="201.38" y="-5.75" font-family="Helvetica,sans-Serif" font-size="10.00">_Turbulence</text>
</a>
</g>
</g>
<!-- Node2&#45;&gt;Node3 -->
<g id="edge2_Node000002_Node000003" class="edge">
<title>Node2&#45;&gt;Node3</title>
<g id="a_edge2_Node000002_Node000003"><a xlink:title=" ">
<path fill="none" stroke="#63b8ff" d="M281.2,-15.25C273.1,-15.25 265.02,-15.25 257.3,-15.25"/>
<polygon fill="#63b8ff" stroke="#63b8ff" points="281.14,-18.75 291.14,-15.25 281.14,-11.75 281.14,-18.75"/>
</a>
</g>
</g>
<!-- Node4 -->
<g id="Node000004" class="node">
<title>Node4</title>
<g id="a_Node000004"><a xlink:href="../../d4/df3/_turbulence___integration_8cpp_a564537a29550f0d8ec11e8ef76cd2b3a.html#a564537a29550f0d8ec11e8ef76cd2b3a" target="_top" xlink:title="Modified viscous solver with turbulence model integration.">
<polygon fill="white" stroke="#666666" points="109.75,-30.5 0,-30.5 0,0 109.75,0 109.75,-30.5"/>
<text text-anchor="start" x="8" y="-17" font-family="Helvetica,sans-Serif" font-size="10.00">Viscous_Solver_With</text>
<text text-anchor="middle" x="54.88" y="-5.75" font-family="Helvetica,sans-Serif" font-size="10.00">_Turbulence</text>
</a>
</g>
</g>
<!-- Node3&#45;&gt;Node4 -->
<g id="edge3_Node000003_Node000004" class="edge">
<title>Node3&#45;&gt;Node4</title>
<g id="a_edge3_Node000003_Node000004"><a xlink:title=" ">
<path fill="none" stroke="#63b8ff" d="M133.99,-15.25C125.89,-15.25 117.69,-15.25 109.81,-15.25"/>
<polygon fill="#63b8ff" stroke="#63b8ff" points="133.82,-18.75 143.82,-15.25 133.82,-11.75 133.82,-18.75"/>
</a>
</g>
</g>
</g>
</svg>
