<?xml version="1.0" encoding="UTF-8" standalone="no"?>
<!DOCTYPE svg PUBLIC "-//W3C//DTD SVG 1.1//EN"
 "http://www.w3.org/Graphics/SVG/1.1/DTD/svg11.dtd">
<!-- Generated by graphviz version 12.2.1 (20241206.2353)
 -->
<!-- Title: Apply_KOmega_Wall_Functions Pages: 1 -->
<svg width="963pt" height="125pt"
 viewBox="0.00 0.00 962.75 124.50" xmlns="http://www.w3.org/2000/svg" xmlns:xlink="http://www.w3.org/1999/xlink">
<g id="graph0" class="graph" transform="scale(1 1) rotate(0) translate(4 120.5)">
<title>Apply_KOmega_Wall_Functions</title>
<!-- Node1 -->
<g id="Node000001" class="node">
<title>Node1</title>
<g id="a_Node000001"><a xlink:title="Apply wall functions for K&#45;omega model.">
<polygon fill="#999999" stroke="#666666" points="954.75,-67.88 798.5,-67.88 798.5,-48.62 954.75,-48.62 954.75,-67.88"/>
<text text-anchor="middle" x="876.62" y="-54.38" font-family="Helvetica,sans-Serif" font-size="10.00">Apply_KOmega_Wall_Functions</text>
</a>
</g>
</g>
<!-- Node2 -->
<g id="Node000002" class="node">
<title>Node2</title>
<g id="a_Node000002"><a xlink:href="../../d5/d65/_turbulence___models_8cpp_abebbec3a464f4c0094447be488398fd7.html#abebbec3a464f4c0094447be488398fd7" target="_top" xlink:title="Apply turbulence wall boundary conditions.">
<polygon fill="white" stroke="#666666" points="762.5,-67.88 625,-67.88 625,-48.62 762.5,-48.62 762.5,-67.88"/>
<text text-anchor="middle" x="693.75" y="-54.38" font-family="Helvetica,sans-Serif" font-size="10.00">Apply_Turbulence_Wall_BC</text>
</a>
</g>
</g>
<!-- Node1&#45;&gt;Node2 -->
<g id="edge1_Node000001_Node000002" class="edge">
<title>Node1&#45;&gt;Node2</title>
<g id="a_edge1_Node000001_Node000002"><a xlink:title=" ">
<path fill="none" stroke="#63b8ff" d="M786.83,-58.25C778.8,-58.25 770.76,-58.25 762.96,-58.25"/>
<polygon fill="#63b8ff" stroke="#63b8ff" points="786.62,-61.75 796.62,-58.25 786.62,-54.75 786.62,-61.75"/>
</a>
</g>
</g>
<!-- Node3 -->
<g id="Node000003" class="node">
<title>Node3</title>
<g id="a_Node000003"><a xlink:href="../../d5/d65/_turbulence___models_8cpp_a1158808d85e3e5c5ec0b6cc6b7462a27.html#a1158808d85e3e5c5ec0b6cc6b7462a27" target="_top" xlink:title="Apply turbulence boundary conditions to all boundary cells.">
<polygon fill="white" stroke="#666666" points="589,-73.5 474.75,-73.5 474.75,-43 589,-43 589,-73.5"/>
<text text-anchor="start" x="482.75" y="-60" font-family="Helvetica,sans-Serif" font-size="10.00">Apply_All_Turbulence</text>
<text text-anchor="middle" x="531.88" y="-48.75" font-family="Helvetica,sans-Serif" font-size="10.00">_Boundary_Conditions</text>
</a>
</g>
</g>
<!-- Node2&#45;&gt;Node3 -->
<g id="edge2_Node000002_Node000003" class="edge">
<title>Node2&#45;&gt;Node3</title>
<g id="a_edge2_Node000002_Node000003"><a xlink:title=" ">
<path fill="none" stroke="#63b8ff" d="M613.7,-58.25C605.43,-58.25 597.14,-58.25 589.19,-58.25"/>
<polygon fill="#63b8ff" stroke="#63b8ff" points="613.44,-61.75 623.44,-58.25 613.44,-54.75 613.44,-61.75"/>
</a>
</g>
</g>
<!-- Node4 -->
<g id="Node000004" class="node">
<title>Node4</title>
<g id="a_Node000004"><a xlink:href="../../d4/df3/_turbulence___integration_8cpp_a5be3d179089fc076bb68c61f7cd17b7a.html#a5be3d179089fc076bb68c61f7cd17b7a" target="_top" xlink:title="Runge&#45;Kutta method with turbulence model integration.">
<polygon fill="white" stroke="#666666" points="256.62,-116.5 146.12,-116.5 146.12,-86 256.62,-86 256.62,-116.5"/>
<text text-anchor="start" x="154.12" y="-103" font-family="Helvetica,sans-Serif" font-size="10.00">Runge_Kutta_Method</text>
<text text-anchor="middle" x="201.38" y="-91.75" font-family="Helvetica,sans-Serif" font-size="10.00">_With_Turbulence</text>
</a>
</g>
</g>
<!-- Node3&#45;&gt;Node4 -->
<g id="edge3_Node000003_Node000004" class="edge">
<title>Node3&#45;&gt;Node4</title>
<g id="a_edge3_Node000003_Node000004"><a xlink:title=" ">
<path fill="none" stroke="#63b8ff" d="M463.24,-68.76C454.99,-69.97 446.68,-71.16 438.75,-72.25 376.49,-80.8 304.83,-89.42 256.89,-95.01"/>
<polygon fill="#63b8ff" stroke="#63b8ff" points="463.52,-72.25 472.9,-67.32 462.49,-65.33 463.52,-72.25"/>
</a>
</g>
</g>
<!-- Node5 -->
<g id="Node000005" class="node">
<title>Node5</title>
<g id="a_Node000005"><a xlink:href="../../d4/df3/_turbulence___integration_8cpp_a564537a29550f0d8ec11e8ef76cd2b3a.html#a564537a29550f0d8ec11e8ef76cd2b3a" target="_top" xlink:title="Modified viscous solver with turbulence model integration.">
<polygon fill="white" stroke="#666666" points="109.75,-73.5 0,-73.5 0,-43 109.75,-43 109.75,-73.5"/>
<text text-anchor="start" x="8" y="-60" font-family="Helvetica,sans-Serif" font-size="10.00">Viscous_Solver_With</text>
<text text-anchor="middle" x="54.88" y="-48.75" font-family="Helvetica,sans-Serif" font-size="10.00">_Turbulence</text>
</a>
</g>
</g>
<!-- Node3&#45;&gt;Node5 -->
<g id="edge8_Node000003_Node000005" class="edge">
<title>Node3&#45;&gt;Node5</title>
<g id="a_edge8_Node000003_Node000005"><a xlink:title=" ">
<path fill="none" stroke="#63b8ff" d="M463.03,-58.25C367.96,-58.25 196.99,-58.25 109.96,-58.25"/>
<polygon fill="#63b8ff" stroke="#63b8ff" points="463.01,-61.75 473.01,-58.25 463.01,-54.75 463.01,-61.75"/>
</a>
</g>
</g>
<!-- Node6 -->
<g id="Node000006" class="node">
<title>Node6</title>
<g id="a_Node000006"><a xlink:href="../../d5/d65/_turbulence___models_8cpp_afb9159b9dcb0534a88f1df9496ece4ad.html#afb9159b9dcb0534a88f1df9496ece4ad" target="_top" xlink:title="Update turbulence variables for all cells.">
<polygon fill="white" stroke="#666666" points="438.75,-27.88 293,-27.88 293,-8.62 438.75,-8.62 438.75,-27.88"/>
<text text-anchor="middle" x="365.88" y="-14.38" font-family="Helvetica,sans-Serif" font-size="10.00">Update_Turbulence_Variables</text>
</a>
</g>
</g>
<!-- Node3&#45;&gt;Node6 -->
<g id="edge5_Node000003_Node000006" class="edge">
<title>Node3&#45;&gt;Node6</title>
<g id="a_edge5_Node000003_Node000006"><a xlink:title=" ">
<path fill="none" stroke="#63b8ff" d="M463.27,-41.76C444.57,-37.2 424.84,-32.39 408.14,-28.31"/>
<polygon fill="#63b8ff" stroke="#63b8ff" points="462.42,-45.16 472.97,-44.13 464.08,-38.36 462.42,-45.16"/>
</a>
</g>
</g>
<!-- Node4&#45;&gt;Node5 -->
<g id="edge4_Node000004_Node000005" class="edge">
<title>Node4&#45;&gt;Node5</title>
<g id="a_edge4_Node000004_Node000005"><a xlink:title=" ">
<path fill="none" stroke="#63b8ff" d="M136.87,-82.35C127.45,-79.55 117.83,-76.69 108.65,-73.96"/>
<polygon fill="#63b8ff" stroke="#63b8ff" points="135.76,-85.68 146.35,-85.17 137.76,-78.97 135.76,-85.68"/>
</a>
</g>
</g>
<!-- Node7 -->
<g id="Node000007" class="node">
<title>Node7</title>
<g id="a_Node000007"><a xlink:href="../../d4/df3/_turbulence___integration_8cpp_ab169036ed9f440a82e87aa687850b80e.html#ab169036ed9f440a82e87aa687850b80e" target="_top" xlink:title="Explicit method with turbulence model integration.">
<polygon fill="white" stroke="#666666" points="257,-30.5 145.75,-30.5 145.75,0 257,0 257,-30.5"/>
<text text-anchor="start" x="153.75" y="-17" font-family="Helvetica,sans-Serif" font-size="10.00">Explicit_Method_With</text>
<text text-anchor="middle" x="201.38" y="-5.75" font-family="Helvetica,sans-Serif" font-size="10.00">_Turbulence</text>
</a>
</g>
</g>
<!-- Node6&#45;&gt;Node7 -->
<g id="edge6_Node000006_Node000007" class="edge">
<title>Node6&#45;&gt;Node7</title>
<g id="a_edge6_Node000006_Node000007"><a xlink:title=" ">
<path fill="none" stroke="#63b8ff" d="M281.2,-16.71C273.1,-16.56 265.02,-16.41 257.3,-16.26"/>
<polygon fill="#63b8ff" stroke="#63b8ff" points="281.08,-20.2 291.14,-16.89 281.21,-13.2 281.08,-20.2"/>
</a>
</g>
</g>
<!-- Node7&#45;&gt;Node5 -->
<g id="edge7_Node000007_Node000005" class="edge">
<title>Node7&#45;&gt;Node5</title>
<g id="a_edge7_Node000007_Node000005"><a xlink:title=" ">
<path fill="none" stroke="#63b8ff" d="M136.87,-34.15C127.45,-36.95 117.83,-39.81 108.65,-42.54"/>
<polygon fill="#63b8ff" stroke="#63b8ff" points="137.76,-37.53 146.35,-31.33 135.76,-30.82 137.76,-37.53"/>
</a>
</g>
</g>
</g>
</svg>
