<?xml version="1.0" encoding="UTF-8" standalone="no"?>
<!DOCTYPE svg PUBLIC "-//W3C//DTD SVG 1.1//EN"
 "http://www.w3.org/Graphics/SVG/1.1/DTD/svg11.dtd">
<!-- Generated by graphviz version 12.2.1 (20241206.2353)
 -->
<!-- Title: Apply_Realizability_Constraints Pages: 1 -->
<svg width="740pt" height="88pt"
 viewBox="0.00 0.00 739.75 87.50" xmlns="http://www.w3.org/2000/svg" xmlns:xlink="http://www.w3.org/1999/xlink">
<g id="graph0" class="graph" transform="scale(1 1) rotate(0) translate(4 83.5)">
<title>Apply_Realizability_Constraints</title>
<!-- Node1 -->
<g id="Node000001" class="node">
<title>Node1</title>
<g id="a_Node000001"><a xlink:title=" ">
<polygon fill="#999999" stroke="#666666" points="731.75,-54.5 632.5,-54.5 632.5,-24 731.75,-24 731.75,-54.5"/>
<text text-anchor="start" x="640.5" y="-41" font-family="Helvetica,sans-Serif" font-size="10.00">Apply_Realizability</text>
<text text-anchor="middle" x="682.12" y="-29.75" font-family="Helvetica,sans-Serif" font-size="10.00">_Constraints</text>
</a>
</g>
</g>
<!-- Node2 -->
<g id="Node000002" class="node">
<title>Node2</title>
<g id="a_Node000002"><a xlink:href="../../d4/df3/_turbulence___integration_8cpp_a995833f0d453f9f0a573f2683afc5a2d.html#a995833f0d453f9f0a573f2683afc5a2d" target="_top" xlink:title="Apply turbulence limiters to a specific cell.">
<polygon fill="white" stroke="#666666" points="596.5,-48.88 462.75,-48.88 462.75,-29.62 596.5,-29.62 596.5,-48.88"/>
<text text-anchor="middle" x="529.62" y="-35.38" font-family="Helvetica,sans-Serif" font-size="10.00">Apply_Turbulence_Limiters</text>
</a>
</g>
</g>
<!-- Node1&#45;&gt;Node2 -->
<g id="edge1_Node000001_Node000002" class="edge">
<title>Node1&#45;&gt;Node2</title>
<g id="a_edge1_Node000001_Node000002"><a xlink:title=" ">
<path fill="none" stroke="#63b8ff" d="M620.86,-39.25C612.93,-39.25 604.77,-39.25 596.76,-39.25"/>
<polygon fill="#63b8ff" stroke="#63b8ff" points="620.75,-42.75 630.75,-39.25 620.75,-35.75 620.75,-42.75"/>
</a>
</g>
</g>
<!-- Node3 -->
<g id="Node000003" class="node">
<title>Node3</title>
<g id="a_Node000003"><a xlink:href="../../d4/df3/_turbulence___integration_8cpp_ad304307d48b07418eb6b41288f369d61.html#ad304307d48b07418eb6b41288f369d61" target="_top" xlink:title="Apply turbulence limiters to all cells.">
<polygon fill="white" stroke="#666666" points="426.75,-54.5 293,-54.5 293,-24 426.75,-24 426.75,-54.5"/>
<text text-anchor="start" x="301" y="-41" font-family="Helvetica,sans-Serif" font-size="10.00">Apply_Turbulence_Limiters</text>
<text text-anchor="middle" x="359.88" y="-29.75" font-family="Helvetica,sans-Serif" font-size="10.00">_All_Cells</text>
</a>
</g>
</g>
<!-- Node2&#45;&gt;Node3 -->
<g id="edge2_Node000002_Node000003" class="edge">
<title>Node2&#45;&gt;Node3</title>
<g id="a_edge2_Node000002_Node000003"><a xlink:title=" ">
<path fill="none" stroke="#63b8ff" d="M450.85,-39.25C442.96,-39.25 435,-39.25 427.24,-39.25"/>
<polygon fill="#63b8ff" stroke="#63b8ff" points="450.81,-42.75 460.81,-39.25 450.81,-35.75 450.81,-42.75"/>
</a>
</g>
</g>
<!-- Node4 -->
<g id="Node000004" class="node">
<title>Node4</title>
<g id="a_Node000004"><a xlink:href="../../d4/df3/_turbulence___integration_8cpp_ab169036ed9f440a82e87aa687850b80e.html#ab169036ed9f440a82e87aa687850b80e" target="_top" xlink:title="Explicit method with turbulence model integration.">
<polygon fill="white" stroke="#666666" points="257,-79.5 145.75,-79.5 145.75,-49 257,-49 257,-79.5"/>
<text text-anchor="start" x="153.75" y="-66" font-family="Helvetica,sans-Serif" font-size="10.00">Explicit_Method_With</text>
<text text-anchor="middle" x="201.38" y="-54.75" font-family="Helvetica,sans-Serif" font-size="10.00">_Turbulence</text>
</a>
</g>
</g>
<!-- Node3&#45;&gt;Node4 -->
<g id="edge3_Node000003_Node000004" class="edge">
<title>Node3&#45;&gt;Node4</title>
<g id="a_edge3_Node000003_Node000004"><a xlink:title=" ">
<path fill="none" stroke="#63b8ff" d="M281.34,-51.64C273.12,-52.95 264.89,-54.26 257.02,-55.52"/>
<polygon fill="#63b8ff" stroke="#63b8ff" points="281.69,-55.12 291.01,-50.09 280.58,-48.21 281.69,-55.12"/>
</a>
</g>
</g>
<!-- Node6 -->
<g id="Node000006" class="node">
<title>Node6</title>
<g id="a_Node000006"><a xlink:href="../../d4/df3/_turbulence___integration_8cpp_acd8058542238100dd498265ed816f86d.html#acd8058542238100dd498265ed816f86d" target="_top" xlink:title="Implicit method with turbulence model integration.">
<polygon fill="white" stroke="#666666" points="256.62,-30.5 146.12,-30.5 146.12,0 256.62,0 256.62,-30.5"/>
<text text-anchor="start" x="154.12" y="-17" font-family="Helvetica,sans-Serif" font-size="10.00">Implicit_Method_With</text>
<text text-anchor="middle" x="201.38" y="-5.75" font-family="Helvetica,sans-Serif" font-size="10.00">_Turbulence</text>
</a>
</g>
</g>
<!-- Node3&#45;&gt;Node6 -->
<g id="edge5_Node000003_Node000006" class="edge">
<title>Node3&#45;&gt;Node6</title>
<g id="a_edge5_Node000003_Node000006"><a xlink:title=" ">
<path fill="none" stroke="#63b8ff" d="M281.34,-27.36C273.12,-26.1 264.89,-24.84 257.02,-23.63"/>
<polygon fill="#63b8ff" stroke="#63b8ff" points="280.59,-30.79 291.01,-28.84 281.65,-23.87 280.59,-30.79"/>
</a>
</g>
</g>
<!-- Node5 -->
<g id="Node000005" class="node">
<title>Node5</title>
<g id="a_Node000005"><a xlink:href="../../d4/df3/_turbulence___integration_8cpp_a564537a29550f0d8ec11e8ef76cd2b3a.html#a564537a29550f0d8ec11e8ef76cd2b3a" target="_top" xlink:title="Modified viscous solver with turbulence model integration.">
<polygon fill="white" stroke="#666666" points="109.75,-54.5 0,-54.5 0,-24 109.75,-24 109.75,-54.5"/>
<text text-anchor="start" x="8" y="-41" font-family="Helvetica,sans-Serif" font-size="10.00">Viscous_Solver_With</text>
<text text-anchor="middle" x="54.88" y="-29.75" font-family="Helvetica,sans-Serif" font-size="10.00">_Turbulence</text>
</a>
</g>
</g>
<!-- Node4&#45;&gt;Node5 -->
<g id="edge4_Node000004_Node000005" class="edge">
<title>Node4&#45;&gt;Node5</title>
<g id="a_edge4_Node000004_Node000005"><a xlink:title=" ">
<path fill="none" stroke="#63b8ff" d="M133.99,-52.77C125.89,-51.36 117.69,-49.95 109.81,-48.58"/>
<polygon fill="#63b8ff" stroke="#63b8ff" points="133.39,-56.21 143.84,-54.47 134.59,-49.32 133.39,-56.21"/>
</a>
</g>
</g>
<!-- Node6&#45;&gt;Node5 -->
<g id="edge6_Node000006_Node000005" class="edge">
<title>Node6&#45;&gt;Node5</title>
<g id="a_edge6_Node000006_Node000005"><a xlink:title=" ">
<path fill="none" stroke="#63b8ff" d="M134.66,-26.17C126.44,-27.53 118.11,-28.91 110.1,-30.24"/>
<polygon fill="#63b8ff" stroke="#63b8ff" points="134.96,-29.66 144.25,-24.57 133.81,-22.76 134.96,-29.66"/>
</a>
</g>
</g>
</g>
</svg>
