<?xml version="1.0" encoding="UTF-8" standalone="no"?>
<!DOCTYPE svg PUBLIC "-//W3C//DTD SVG 1.1//EN"
 "http://www.w3.org/Graphics/SVG/1.1/DTD/svg11.dtd">
<!-- Generated by graphviz version 12.2.1 (20241206.2353)
 -->
<!-- Title: Initialize_Turbulence_Model Pages: 1 -->
<svg width="1157pt" height="270pt"
 viewBox="0.00 0.00 1157.25 269.50" xmlns="http://www.w3.org/2000/svg" xmlns:xlink="http://www.w3.org/1999/xlink">
<g id="graph0" class="graph" transform="scale(1 1) rotate(0) translate(4 265.5)">
<title>Initialize_Turbulence_Model</title>
<!-- Node1 -->
<g id="Node000001" class="node">
<title>Node1</title>
<g id="a_Node000001"><a xlink:title="Initialize the specified turbulence model.">
<polygon fill="#999999" stroke="#666666" points="105.25,-212.5 0,-212.5 0,-182 105.25,-182 105.25,-212.5"/>
<text text-anchor="start" x="8" y="-199" font-family="Helvetica,sans-Serif" font-size="10.00">Initialize_Turbulence</text>
<text text-anchor="middle" x="52.62" y="-187.75" font-family="Helvetica,sans-Serif" font-size="10.00">_Model</text>
</a>
</g>
</g>
<!-- Node2 -->
<g id="Node000002" class="node">
<title>Node2</title>
<g id="a_Node000002"><a xlink:href="../../d5/d65/_turbulence___models_8cpp_a3f09f25044f1f9154c7769be17c75692.html#a3f09f25044f1f9154c7769be17c75692" target="_top" xlink:title="Calculate wall distance for all cells.">
<polygon fill="white" stroke="#666666" points="276.88,-261.5 146.12,-261.5 146.12,-231 276.88,-231 276.88,-261.5"/>
<text text-anchor="start" x="154.12" y="-248" font-family="Helvetica,sans-Serif" font-size="10.00">Calculate_Wall_Distances</text>
<text text-anchor="middle" x="211.5" y="-236.75" font-family="Helvetica,sans-Serif" font-size="10.00">_All_Cells</text>
</a>
</g>
</g>
<!-- Node1&#45;&gt;Node2 -->
<g id="edge1_Node000001_Node000002" class="edge">
<title>Node1&#45;&gt;Node2</title>
<g id="a_edge1_Node000001_Node000002"><a xlink:title=" ">
<path fill="none" stroke="#63b8ff" d="M103.69,-212.89C118.2,-217.42 134.19,-222.42 149.3,-227.13"/>
<polygon fill="#63b8ff" stroke="#63b8ff" points="148.07,-230.42 158.66,-230.06 150.15,-223.73 148.07,-230.42"/>
</a>
</g>
</g>
<!-- Node4 -->
<g id="Node000004" class="node">
<title>Node4</title>
<g id="a_Node000004"><a xlink:href="../../da/d71/_k___epsilon___model_8cpp_a2745d49ba112386d4f3e7aea7752d415.html#a2745d49ba112386d4f3e7aea7752d415" target="_top" xlink:title="Initialize K&#45;epsilon model variables for all cells.">
<polygon fill="white" stroke="#666666" points="259.62,-212.5 163.38,-212.5 163.38,-182 259.62,-182 259.62,-212.5"/>
<text text-anchor="start" x="171.38" y="-199" font-family="Helvetica,sans-Serif" font-size="10.00">Initialize_KEpsilon</text>
<text text-anchor="middle" x="211.5" y="-187.75" font-family="Helvetica,sans-Serif" font-size="10.00">_Variables</text>
</a>
</g>
</g>
<!-- Node1&#45;&gt;Node4 -->
<g id="edge3_Node000001_Node000004" class="edge">
<title>Node1&#45;&gt;Node4</title>
<g id="a_edge3_Node000001_Node000004"><a xlink:title=" ">
<path fill="none" stroke="#63b8ff" d="M105.43,-197.25C120.22,-197.25 136.45,-197.25 151.63,-197.25"/>
<polygon fill="#63b8ff" stroke="#63b8ff" points="151.48,-200.75 161.48,-197.25 151.48,-193.75 151.48,-200.75"/>
</a>
</g>
</g>
<!-- Node10 -->
<g id="Node000010" class="node">
<title>Node10</title>
<g id="a_Node000010"><a xlink:href="../../da/db6/_k___omega___model_8cpp_ab515206bf252d3272ff152fc77f231e0.html#ab515206bf252d3272ff152fc77f231e0" target="_top" xlink:title="Initialize K&#45;omega model variables for all cells.">
<polygon fill="white" stroke="#666666" points="281.75,-163.88 141.25,-163.88 141.25,-144.62 281.75,-144.62 281.75,-163.88"/>
<text text-anchor="middle" x="211.5" y="-150.38" font-family="Helvetica,sans-Serif" font-size="10.00">Initialize_KOmega_Variables</text>
</a>
</g>
</g>
<!-- Node1&#45;&gt;Node10 -->
<g id="edge9_Node000001_Node000010" class="edge">
<title>Node1&#45;&gt;Node10</title>
<g id="a_edge9_Node000001_Node000010"><a xlink:title=" ">
<path fill="none" stroke="#63b8ff" d="M105.43,-183.05C123.9,-177.99 144.62,-172.31 162.74,-167.34"/>
<polygon fill="#63b8ff" stroke="#63b8ff" points="163.47,-170.77 172.18,-164.75 161.61,-164.02 163.47,-170.77"/>
</a>
</g>
</g>
<!-- Node3 -->
<g id="Node000003" class="node">
<title>Node3</title>
<g id="a_Node000003"><a xlink:href="../../d5/d65/_turbulence___models_8cpp_ad33c2f48ac725ecf6a5752998dc61bfb.html#ad33c2f48ac725ecf6a5752998dc61bfb" target="_top" xlink:title="Calculate wall distance for a specific cell.">
<polygon fill="white" stroke="#666666" points="453.75,-255.88 328.25,-255.88 328.25,-236.62 453.75,-236.62 453.75,-255.88"/>
<text text-anchor="middle" x="391" y="-242.38" font-family="Helvetica,sans-Serif" font-size="10.00">Calculate_Wall_Distance</text>
</a>
</g>
</g>
<!-- Node2&#45;&gt;Node3 -->
<g id="edge2_Node000002_Node000003" class="edge">
<title>Node2&#45;&gt;Node3</title>
<g id="a_edge2_Node000002_Node000003"><a xlink:title=" ">
<path fill="none" stroke="#63b8ff" d="M277.34,-246.25C290.13,-246.25 303.63,-246.25 316.68,-246.25"/>
<polygon fill="#63b8ff" stroke="#63b8ff" points="316.49,-249.75 326.49,-246.25 316.49,-242.75 316.49,-249.75"/>
</a>
</g>
</g>
<!-- Node5 -->
<g id="Node000005" class="node">
<title>Node5</title>
<g id="a_Node000005"><a xlink:href="../../da/d71/_k___epsilon___model_8cpp_a80bd2fbc9eee5585491d30c17bd73b77.html#a80bd2fbc9eee5585491d30c17bd73b77" target="_top" xlink:title="Calculate turbulent viscosity using K&#45;epsilon model.">
<polygon fill="white" stroke="#666666" points="444.75,-215.5 337.25,-215.5 337.25,-185 444.75,-185 444.75,-215.5"/>
<text text-anchor="start" x="345.25" y="-202" font-family="Helvetica,sans-Serif" font-size="10.00">Calculate_KEpsilon</text>
<text text-anchor="middle" x="391" y="-190.75" font-family="Helvetica,sans-Serif" font-size="10.00">_Turbulent_Viscosity</text>
</a>
</g>
</g>
<!-- Node4&#45;&gt;Node5 -->
<g id="edge4_Node000004_Node000005" class="edge">
<title>Node4&#45;&gt;Node5</title>
<g id="a_edge4_Node000004_Node000005"><a xlink:title=" ">
<path fill="none" stroke="#63b8ff" d="M260.07,-198.05C280.17,-198.39 303.91,-198.79 325.55,-199.16"/>
<polygon fill="#63b8ff" stroke="#63b8ff" points="325.41,-202.66 335.47,-199.33 325.53,-195.66 325.41,-202.66"/>
</a>
</g>
</g>
<!-- Node6 -->
<g id="Node000006" class="node">
<title>Node6</title>
<g id="a_Node000006"><a xlink:href="../../da/d71/_k___epsilon___model_8cpp_ab6081c548f15e5cff5f3a7f797726bd0.html#ab6081c548f15e5cff5f3a7f797726bd0" target="_top" xlink:title="Calculate laminar viscosity for a given cell.">
<polygon fill="white" stroke="#666666" points="981,-165.88 838.25,-165.88 838.25,-146.62 981,-146.62 981,-165.88"/>
<text text-anchor="middle" x="909.62" y="-152.38" font-family="Helvetica,sans-Serif" font-size="10.00">Calculate_Laminar_Viscosity</text>
</a>
</g>
</g>
<!-- Node5&#45;&gt;Node6 -->
<g id="edge5_Node000005_Node000006" class="edge">
<title>Node5&#45;&gt;Node6</title>
<g id="a_edge5_Node000005_Node000006"><a xlink:title=" ">
<path fill="none" stroke="#63b8ff" d="M445.11,-212.66C462.57,-216.17 482.15,-219.51 500.25,-221.25 562.74,-227.26 579.17,-228.72 641.5,-221.25 722.74,-211.51 814.95,-185.67 867.02,-169.66"/>
<polygon fill="#63b8ff" stroke="#63b8ff" points="867.86,-173.06 876.37,-166.75 865.78,-166.38 867.86,-173.06"/>
</a>
</g>
</g>
<!-- Node7 -->
<g id="Node000007" class="node">
<title>Node7</title>
<g id="a_Node000007"><a xlink:href="../../da/d71/_k___epsilon___model_8cpp_a4ac5abbc0be034b167174ed0e6ea5814.html#a4ac5abbc0be034b167174ed0e6ea5814" target="_top" xlink:title="Calculate strain rate magnitude for a given cell.">
<polygon fill="white" stroke="#666666" points="628,-212.5 513.75,-212.5 513.75,-182 628,-182 628,-212.5"/>
<text text-anchor="start" x="521.75" y="-199" font-family="Helvetica,sans-Serif" font-size="10.00">Calculate_Strain_Rate</text>
<text text-anchor="middle" x="570.88" y="-187.75" font-family="Helvetica,sans-Serif" font-size="10.00">_Magnitude</text>
</a>
</g>
</g>
<!-- Node5&#45;&gt;Node7 -->
<g id="edge6_Node000005_Node000007" class="edge">
<title>Node5&#45;&gt;Node7</title>
<g id="a_edge6_Node000005_Node000007"><a xlink:title=" ">
<path fill="none" stroke="#63b8ff" d="M444.89,-199.36C462.87,-199.05 483.21,-198.71 502.18,-198.39"/>
<polygon fill="#63b8ff" stroke="#63b8ff" points="502.02,-201.89 511.96,-198.23 501.91,-194.9 502.02,-201.89"/>
</a>
</g>
</g>
<!-- Node8 -->
<g id="Node000008" class="node">
<title>Node8</title>
<g id="a_Node000008"><a xlink:href="../../d5/d65/_turbulence___models_8cpp_abcf5967a793b905ba24e0b6f02859f52.html#abcf5967a793b905ba24e0b6f02859f52" target="_top" xlink:title="Calculate strain rate tensor for a given cell.">
<polygon fill="white" stroke="#666666" points="797,-79.5 682.75,-79.5 682.75,-49 797,-49 797,-79.5"/>
<text text-anchor="start" x="690.75" y="-66" font-family="Helvetica,sans-Serif" font-size="10.00">Calculate_Strain_Rate</text>
<text text-anchor="middle" x="739.88" y="-54.75" font-family="Helvetica,sans-Serif" font-size="10.00">_Tensor</text>
</a>
</g>
</g>
<!-- Node7&#45;&gt;Node8 -->
<g id="edge7_Node000007_Node000008" class="edge">
<title>Node7&#45;&gt;Node8</title>
<g id="a_edge7_Node000007_Node000008"><a xlink:title=" ">
<path fill="none" stroke="#63b8ff" d="M590.28,-181.61C604.71,-169.05 625.04,-150.68 641.5,-133.25 658.84,-114.88 657.17,-104.26 677.5,-89.25 679.27,-87.94 681.12,-86.69 683.02,-85.5"/>
<polygon fill="#63b8ff" stroke="#63b8ff" points="684.58,-88.64 691.6,-80.7 681.16,-82.53 684.58,-88.64"/>
</a>
</g>
</g>
<!-- Node9 -->
<g id="Node000009" class="node">
<title>Node9</title>
<g id="a_Node000009"><a xlink:href="../../d5/db2/class_vector_a2ce47a84fc19c32a26ada5a3379c3f0a.html#a2ce47a84fc19c32a26ada5a3379c3f0a" target="_top" xlink:title=" ">
<polygon fill="white" stroke="#666666" points="970.5,-49.88 848.75,-49.88 848.75,-30.62 970.5,-30.62 970.5,-49.88"/>
<text text-anchor="middle" x="909.62" y="-36.38" font-family="Helvetica,sans-Serif" font-size="10.00">Vector::Get_Component</text>
</a>
</g>
</g>
<!-- Node8&#45;&gt;Node9 -->
<g id="edge8_Node000008_Node000009" class="edge">
<title>Node8&#45;&gt;Node9</title>
<g id="a_edge8_Node000008_Node000009"><a xlink:title=" ">
<path fill="none" stroke="#63b8ff" d="M797.2,-56.19C810.06,-54.35 823.9,-52.37 837.3,-50.45"/>
<polygon fill="#63b8ff" stroke="#63b8ff" points="837.52,-53.96 846.93,-49.08 836.53,-47.03 837.52,-53.96"/>
</a>
</g>
</g>
<!-- Node11 -->
<g id="Node000011" class="node">
<title>Node11</title>
<g id="a_Node000011"><a xlink:href="../../da/db6/_k___omega___model_8cpp_acbb6eb3b6b7d60663920ef36f7442e10.html#acbb6eb3b6b7d60663920ef36f7442e10" target="_top" xlink:title="Calculate turbulent viscosity using K&#45;omega model.">
<polygon fill="white" stroke="#666666" points="464.25,-166.5 317.75,-166.5 317.75,-136 464.25,-136 464.25,-166.5"/>
<text text-anchor="start" x="325.75" y="-153" font-family="Helvetica,sans-Serif" font-size="10.00">Calculate_KOmega_Turbulent</text>
<text text-anchor="middle" x="391" y="-141.75" font-family="Helvetica,sans-Serif" font-size="10.00">_Viscosity</text>
</a>
</g>
</g>
<!-- Node10&#45;&gt;Node11 -->
<g id="edge10_Node000010_Node000011" class="edge">
<title>Node10&#45;&gt;Node11</title>
<g id="a_edge10_Node000010_Node000011"><a xlink:title=" ">
<path fill="none" stroke="#63b8ff" d="M282.14,-153.07C290,-152.94 298.06,-152.8 306.08,-152.67"/>
<polygon fill="#63b8ff" stroke="#63b8ff" points="305.89,-156.17 315.83,-152.5 305.77,-149.17 305.89,-156.17"/>
</a>
</g>
</g>
<!-- Node11&#45;&gt;Node6 -->
<g id="edge11_Node000011_Node000006" class="edge">
<title>Node11&#45;&gt;Node6</title>
<g id="a_edge11_Node000011_Node000006"><a xlink:title=" ">
<path fill="none" stroke="#63b8ff" d="M464.65,-151.95C560.05,-152.88 727.1,-154.49 826.84,-155.46"/>
<polygon fill="#63b8ff" stroke="#63b8ff" points="826.51,-158.96 836.55,-155.55 826.58,-151.96 826.51,-158.96"/>
</a>
</g>
</g>
<!-- Node11&#45;&gt;Node7 -->
<g id="edge17_Node000011_Node000007" class="edge">
<title>Node11&#45;&gt;Node7</title>
<g id="a_edge17_Node000011_Node000007"><a xlink:title=" ">
<path fill="none" stroke="#63b8ff" d="M452.72,-166.95C468.66,-171.08 485.96,-175.55 502.24,-179.76"/>
<polygon fill="#63b8ff" stroke="#63b8ff" points="501.3,-183.13 511.86,-182.25 503.05,-176.35 501.3,-183.13"/>
</a>
</g>
</g>
<!-- Node12 -->
<g id="Node000012" class="node">
<title>Node12</title>
<g id="a_Node000012"><a xlink:href="../../da/db6/_k___omega___model_8cpp_a133b20f2fbde5fe32f3bf8da3734a3df.html#a133b20f2fbde5fe32f3bf8da3734a3df" target="_top" xlink:title="Calculate F2 blending function for SST turbulent viscosity.">
<polygon fill="white" stroke="#666666" points="641.5,-123.88 500.25,-123.88 500.25,-104.62 641.5,-104.62 641.5,-123.88"/>
<text text-anchor="middle" x="570.88" y="-110.38" font-family="Helvetica,sans-Serif" font-size="10.00">Calculate_SST_F2_Function</text>
</a>
</g>
</g>
<!-- Node11&#45;&gt;Node12 -->
<g id="edge12_Node000011_Node000012" class="edge">
<title>Node11&#45;&gt;Node12</title>
<g id="a_edge12_Node000011_Node000012"><a xlink:title=" ">
<path fill="none" stroke="#63b8ff" d="M464.61,-136.15C479.84,-132.98 495.73,-129.67 510.42,-126.62"/>
<polygon fill="#63b8ff" stroke="#63b8ff" points="510.82,-130.11 519.9,-124.64 509.4,-123.25 510.82,-130.11"/>
</a>
</g>
</g>
<!-- Node16 -->
<g id="Node000016" class="node">
<title>Node16</title>
<g id="a_Node000016"><a xlink:href="../../da/db6/_k___omega___model_8cpp_af1e41ac929a629cbe45c3c594b4f972e.html#af1e41ac929a629cbe45c3c594b4f972e" target="_top" xlink:title="Calculate vorticity magnitude for SST model.">
<polygon fill="white" stroke="#666666" points="620.12,-59.5 521.62,-59.5 521.62,-29 620.12,-29 620.12,-59.5"/>
<text text-anchor="start" x="529.62" y="-46" font-family="Helvetica,sans-Serif" font-size="10.00">Calculate_Vorticity</text>
<text text-anchor="middle" x="570.88" y="-34.75" font-family="Helvetica,sans-Serif" font-size="10.00">_Magnitude</text>
</a>
</g>
</g>
<!-- Node11&#45;&gt;Node16 -->
<g id="edge18_Node000011_Node000016" class="edge">
<title>Node11&#45;&gt;Node16</title>
<g id="a_edge18_Node000011_Node000016"><a xlink:title=" ">
<path fill="none" stroke="#63b8ff" d="M417.86,-135.69C448.56,-117.23 499.9,-86.34 534.32,-65.64"/>
<polygon fill="#63b8ff" stroke="#63b8ff" points="535.92,-68.76 542.68,-60.61 532.31,-62.76 535.92,-68.76"/>
</a>
</g>
</g>
<!-- Node13 -->
<g id="Node000013" class="node">
<title>Node13</title>
<g id="a_Node000013"><a xlink:href="../../da/db6/_k___omega___model_8cpp_a31b6758cb80b88340974998c3c5361e2.html#a31b6758cb80b88340974998c3c5361e2" target="_top" xlink:title="Calculate SST blending functions F1 and F2.">
<polygon fill="white" stroke="#666666" points="802.25,-128.5 677.5,-128.5 677.5,-98 802.25,-98 802.25,-128.5"/>
<text text-anchor="start" x="685.5" y="-115" font-family="Helvetica,sans-Serif" font-size="10.00">Calculate_SST_Blending</text>
<text text-anchor="middle" x="739.88" y="-103.75" font-family="Helvetica,sans-Serif" font-size="10.00">_Functions</text>
</a>
</g>
</g>
<!-- Node12&#45;&gt;Node13 -->
<g id="edge13_Node000012_Node000013" class="edge">
<title>Node12&#45;&gt;Node13</title>
<g id="a_edge13_Node000012_Node000013"><a xlink:title=" ">
<path fill="none" stroke="#63b8ff" d="M641.73,-113.83C649.6,-113.78 657.63,-113.74 665.54,-113.69"/>
<polygon fill="#63b8ff" stroke="#63b8ff" points="665.51,-117.19 675.49,-113.63 665.47,-110.19 665.51,-117.19"/>
</a>
</g>
</g>
<!-- Node13&#45;&gt;Node6 -->
<g id="edge14_Node000013_Node000006" class="edge">
<title>Node13&#45;&gt;Node6</title>
<g id="a_edge14_Node000013_Node000006"><a xlink:title=" ">
<path fill="none" stroke="#63b8ff" d="M801.91,-128.9C820.44,-133.65 840.58,-138.81 858.32,-143.36"/>
<polygon fill="#63b8ff" stroke="#63b8ff" points="857.29,-146.7 867.84,-145.8 859.02,-139.92 857.29,-146.7"/>
</a>
</g>
</g>
<!-- Node14 -->
<g id="Node000014" class="node">
<title>Node14</title>
<g id="a_Node000014"><a xlink:href="../../da/db6/_k___omega___model_8cpp_a7fa3fb752505082634dc5acc883aa464.html#a7fa3fb752505082634dc5acc883aa464" target="_top" xlink:title="Calculate cross&#45;diffusion term for SST model.">
<polygon fill="white" stroke="#666666" points="966.38,-128.5 852.88,-128.5 852.88,-98 966.38,-98 966.38,-128.5"/>
<text text-anchor="start" x="860.88" y="-115" font-family="Helvetica,sans-Serif" font-size="10.00">Calculate_SST_Cross</text>
<text text-anchor="middle" x="909.62" y="-103.75" font-family="Helvetica,sans-Serif" font-size="10.00">_Diffusion</text>
</a>
</g>
</g>
<!-- Node13&#45;&gt;Node14 -->
<g id="edge15_Node000013_Node000014" class="edge">
<title>Node13&#45;&gt;Node14</title>
<g id="a_edge15_Node000013_Node000014"><a xlink:title=" ">
<path fill="none" stroke="#63b8ff" d="M802.39,-113.25C814.91,-113.25 828.16,-113.25 840.89,-113.25"/>
<polygon fill="#63b8ff" stroke="#63b8ff" points="840.89,-116.75 850.89,-113.25 840.89,-109.75 840.89,-116.75"/>
</a>
</g>
</g>
<!-- Node15 -->
<g id="Node000015" class="node">
<title>Node15</title>
<g id="a_Node000015"><a xlink:href="../../da/db6/_k___omega___model_8cpp_a7584c2aad761764bf65ccb3e3839a480.html#a7584c2aad761764bf65ccb3e3839a480" target="_top" xlink:title="Calculate scalar gradient for a given variable.">
<polygon fill="white" stroke="#666666" points="1149.25,-122.88 1017,-122.88 1017,-103.62 1149.25,-103.62 1149.25,-122.88"/>
<text text-anchor="middle" x="1083.12" y="-109.38" font-family="Helvetica,sans-Serif" font-size="10.00">Calculate_Scalar_Gradient</text>
</a>
</g>
</g>
<!-- Node14&#45;&gt;Node15 -->
<g id="edge16_Node000014_Node000015" class="edge">
<title>Node14&#45;&gt;Node15</title>
<g id="a_edge16_Node000014_Node000015"><a xlink:title=" ">
<path fill="none" stroke="#63b8ff" d="M966.78,-113.25C979.1,-113.25 992.34,-113.25 1005.31,-113.25"/>
<polygon fill="#63b8ff" stroke="#63b8ff" points="1005.09,-116.75 1015.09,-113.25 1005.09,-109.75 1005.09,-116.75"/>
</a>
</g>
</g>
<!-- Node17 -->
<g id="Node000017" class="node">
<title>Node17</title>
<g id="a_Node000017"><a xlink:href="../../d5/d65/_turbulence___models_8cpp_a7682b4426768f92eca578dc8f7c68db3.html#a7682b4426768f92eca578dc8f7c68db3" target="_top" xlink:title="Calculate vorticity tensor for a given cell.">
<polygon fill="white" stroke="#666666" points="789.12,-30.5 690.62,-30.5 690.62,0 789.12,0 789.12,-30.5"/>
<text text-anchor="start" x="698.62" y="-17" font-family="Helvetica,sans-Serif" font-size="10.00">Calculate_Vorticity</text>
<text text-anchor="middle" x="739.88" y="-5.75" font-family="Helvetica,sans-Serif" font-size="10.00">_Tensor</text>
</a>
</g>
</g>
<!-- Node16&#45;&gt;Node17 -->
<g id="edge19_Node000016_Node000017" class="edge">
<title>Node16&#45;&gt;Node17</title>
<g id="a_edge19_Node000016_Node000017"><a xlink:title=" ">
<path fill="none" stroke="#63b8ff" d="M620.18,-35.86C638.62,-32.66 659.86,-28.97 679.24,-25.61"/>
<polygon fill="#63b8ff" stroke="#63b8ff" points="679.65,-29.09 688.9,-23.93 678.45,-22.19 679.65,-29.09"/>
</a>
</g>
</g>
<!-- Node17&#45;&gt;Node9 -->
<g id="edge20_Node000017_Node000009" class="edge">
<title>Node17&#45;&gt;Node9</title>
<g id="a_edge20_Node000017_Node000009"><a xlink:title=" ">
<path fill="none" stroke="#63b8ff" d="M789.4,-22.48C804.33,-24.71 821.1,-27.21 837.24,-29.61"/>
<polygon fill="#63b8ff" stroke="#63b8ff" points="836.38,-33.02 846.78,-31.03 837.41,-26.1 836.38,-33.02"/>
</a>
</g>
</g>
</g>
</svg>
