<?xml version="1.0" encoding="UTF-8" standalone="no"?>
<!DOCTYPE svg PUBLIC "-//W3C//DTD SVG 1.1//EN"
 "http://www.w3.org/Graphics/SVG/1.1/DTD/svg11.dtd">
<!-- Generated by graphviz version 12.2.1 (20241206.2353)
 -->
<!-- Title: Calculate_KOmega_Turbulent_Viscosity Pages: 1 -->
<svg width="840pt" height="174pt"
 viewBox="0.00 0.00 839.50 173.88" xmlns="http://www.w3.org/2000/svg" xmlns:xlink="http://www.w3.org/1999/xlink">
<g id="graph0" class="graph" transform="scale(1 1) rotate(0) translate(4 169.88)">
<title>Calculate_KOmega_Turbulent_Viscosity</title>
<!-- Node1 -->
<g id="Node000001" class="node">
<title>Node1</title>
<g id="a_Node000001"><a xlink:title="Calculate turbulent viscosity using K&#45;omega model.">
<polygon fill="#999999" stroke="#666666" points="146.5,-104.5 0,-104.5 0,-74 146.5,-74 146.5,-104.5"/>
<text text-anchor="start" x="8" y="-91" font-family="Helvetica,sans-Serif" font-size="10.00">Calculate_KOmega_Turbulent</text>
<text text-anchor="middle" x="73.25" y="-79.75" font-family="Helvetica,sans-Serif" font-size="10.00">_Viscosity</text>
</a>
</g>
</g>
<!-- Node2 -->
<g id="Node000002" class="node">
<title>Node2</title>
<g id="a_Node000002"><a xlink:href="../../da/d71/_k___epsilon___model_8cpp_ab6081c548f15e5cff5f3a7f797726bd0.html#ab6081c548f15e5cff5f3a7f797726bd0" target="_top" xlink:title="Calculate laminar viscosity for a given cell.">
<polygon fill="white" stroke="#666666" points="663.25,-165.88 520.5,-165.88 520.5,-146.62 663.25,-146.62 663.25,-165.88"/>
<text text-anchor="middle" x="591.88" y="-152.38" font-family="Helvetica,sans-Serif" font-size="10.00">Calculate_Laminar_Viscosity</text>
</a>
</g>
</g>
<!-- Node1&#45;&gt;Node2 -->
<g id="edge1_Node000001_Node000002" class="edge">
<title>Node1&#45;&gt;Node2</title>
<g id="a_edge1_Node000001_Node000002"><a xlink:title=" ">
<path fill="none" stroke="#63b8ff" d="M108.59,-104.84C129.51,-113.59 157.03,-123.82 182.5,-129.25 293.84,-152.98 425.77,-157.58 508.9,-157.7"/>
<polygon fill="#63b8ff" stroke="#63b8ff" points="508.79,-161.21 518.79,-157.7 508.79,-154.21 508.79,-161.21"/>
</a>
</g>
</g>
<!-- Node3 -->
<g id="Node000003" class="node">
<title>Node3</title>
<g id="a_Node000003"><a xlink:href="../../da/db6/_k___omega___model_8cpp_a133b20f2fbde5fe32f3bf8da3734a3df.html#a133b20f2fbde5fe32f3bf8da3734a3df" target="_top" xlink:title="Calculate F2 blending function for SST turbulent viscosity.">
<polygon fill="white" stroke="#666666" points="323.75,-119.88 182.5,-119.88 182.5,-100.62 323.75,-100.62 323.75,-119.88"/>
<text text-anchor="middle" x="253.12" y="-106.38" font-family="Helvetica,sans-Serif" font-size="10.00">Calculate_SST_F2_Function</text>
</a>
</g>
</g>
<!-- Node1&#45;&gt;Node3 -->
<g id="edge2_Node000001_Node000003" class="edge">
<title>Node1&#45;&gt;Node3</title>
<g id="a_edge2_Node000001_Node000003"><a xlink:title=" ">
<path fill="none" stroke="#63b8ff" d="M146.86,-97.82C154.76,-98.75 162.83,-99.71 170.83,-100.65"/>
<polygon fill="#63b8ff" stroke="#63b8ff" points="170.21,-104.1 180.55,-101.8 171.03,-97.15 170.21,-104.1"/>
</a>
</g>
</g>
<!-- Node7 -->
<g id="Node000007" class="node">
<title>Node7</title>
<g id="a_Node000007"><a xlink:href="../../da/d71/_k___epsilon___model_8cpp_a4ac5abbc0be034b167174ed0e6ea5814.html#a4ac5abbc0be034b167174ed0e6ea5814" target="_top" xlink:title="Calculate strain rate magnitude for a given cell.">
<polygon fill="white" stroke="#666666" points="310.25,-80.5 196,-80.5 196,-50 310.25,-50 310.25,-80.5"/>
<text text-anchor="start" x="204" y="-67" font-family="Helvetica,sans-Serif" font-size="10.00">Calculate_Strain_Rate</text>
<text text-anchor="middle" x="253.12" y="-55.75" font-family="Helvetica,sans-Serif" font-size="10.00">_Magnitude</text>
</a>
</g>
</g>
<!-- Node1&#45;&gt;Node7 -->
<g id="edge7_Node000001_Node000007" class="edge">
<title>Node1&#45;&gt;Node7</title>
<g id="a_edge7_Node000001_Node000007"><a xlink:title=" ">
<path fill="none" stroke="#63b8ff" d="M146.86,-79.45C159.28,-77.78 172.16,-76.04 184.45,-74.38"/>
<polygon fill="#63b8ff" stroke="#63b8ff" points="184.61,-77.89 194.05,-73.09 183.67,-70.95 184.61,-77.89"/>
</a>
</g>
</g>
<!-- Node10 -->
<g id="Node000010" class="node">
<title>Node10</title>
<g id="a_Node000010"><a xlink:href="../../da/db6/_k___omega___model_8cpp_af1e41ac929a629cbe45c3c594b4f972e.html#af1e41ac929a629cbe45c3c594b4f972e" target="_top" xlink:title="Calculate vorticity magnitude for SST model.">
<polygon fill="white" stroke="#666666" points="302.38,-31.5 203.88,-31.5 203.88,-1 302.38,-1 302.38,-31.5"/>
<text text-anchor="start" x="211.88" y="-18" font-family="Helvetica,sans-Serif" font-size="10.00">Calculate_Vorticity</text>
<text text-anchor="middle" x="253.12" y="-6.75" font-family="Helvetica,sans-Serif" font-size="10.00">_Magnitude</text>
</a>
</g>
</g>
<!-- Node1&#45;&gt;Node10 -->
<g id="edge10_Node000001_Node000010" class="edge">
<title>Node1&#45;&gt;Node10</title>
<g id="a_edge10_Node000001_Node000010"><a xlink:title=" ">
<path fill="none" stroke="#63b8ff" d="M107.63,-73.7C128.89,-63.98 157.12,-51.42 182.5,-41.25 187.05,-39.43 191.79,-37.59 196.56,-35.79"/>
<polygon fill="#63b8ff" stroke="#63b8ff" points="197.43,-39.2 205.58,-32.44 194.99,-32.64 197.43,-39.2"/>
</a>
</g>
</g>
<!-- Node4 -->
<g id="Node000004" class="node">
<title>Node4</title>
<g id="a_Node000004"><a xlink:href="../../da/db6/_k___omega___model_8cpp_a31b6758cb80b88340974998c3c5361e2.html#a31b6758cb80b88340974998c3c5361e2" target="_top" xlink:title="Calculate SST blending functions F1 and F2.">
<polygon fill="white" stroke="#666666" points="484.5,-128.5 359.75,-128.5 359.75,-98 484.5,-98 484.5,-128.5"/>
<text text-anchor="start" x="367.75" y="-115" font-family="Helvetica,sans-Serif" font-size="10.00">Calculate_SST_Blending</text>
<text text-anchor="middle" x="422.12" y="-103.75" font-family="Helvetica,sans-Serif" font-size="10.00">_Functions</text>
</a>
</g>
</g>
<!-- Node3&#45;&gt;Node4 -->
<g id="edge3_Node000003_Node000004" class="edge">
<title>Node3&#45;&gt;Node4</title>
<g id="a_edge3_Node000003_Node000004"><a xlink:title=" ">
<path fill="none" stroke="#63b8ff" d="M323.98,-111.5C331.85,-111.65 339.88,-111.79 347.79,-111.93"/>
<polygon fill="#63b8ff" stroke="#63b8ff" points="347.68,-115.43 357.74,-112.11 347.81,-108.43 347.68,-115.43"/>
</a>
</g>
</g>
<!-- Node4&#45;&gt;Node2 -->
<g id="edge4_Node000004_Node000002" class="edge">
<title>Node4&#45;&gt;Node2</title>
<g id="a_edge4_Node000004_Node000002"><a xlink:title=" ">
<path fill="none" stroke="#63b8ff" d="M484.16,-128.9C502.69,-133.65 522.83,-138.81 540.57,-143.36"/>
<polygon fill="#63b8ff" stroke="#63b8ff" points="539.54,-146.7 550.09,-145.8 541.27,-139.92 539.54,-146.7"/>
</a>
</g>
</g>
<!-- Node5 -->
<g id="Node000005" class="node">
<title>Node5</title>
<g id="a_Node000005"><a xlink:href="../../da/db6/_k___omega___model_8cpp_a7fa3fb752505082634dc5acc883aa464.html#a7fa3fb752505082634dc5acc883aa464" target="_top" xlink:title="Calculate cross&#45;diffusion term for SST model.">
<polygon fill="white" stroke="#666666" points="648.62,-128.5 535.12,-128.5 535.12,-98 648.62,-98 648.62,-128.5"/>
<text text-anchor="start" x="543.12" y="-115" font-family="Helvetica,sans-Serif" font-size="10.00">Calculate_SST_Cross</text>
<text text-anchor="middle" x="591.88" y="-103.75" font-family="Helvetica,sans-Serif" font-size="10.00">_Diffusion</text>
</a>
</g>
</g>
<!-- Node4&#45;&gt;Node5 -->
<g id="edge5_Node000004_Node000005" class="edge">
<title>Node4&#45;&gt;Node5</title>
<g id="a_edge5_Node000004_Node000005"><a xlink:title=" ">
<path fill="none" stroke="#63b8ff" d="M484.64,-113.25C497.16,-113.25 510.41,-113.25 523.14,-113.25"/>
<polygon fill="#63b8ff" stroke="#63b8ff" points="523.14,-116.75 533.14,-113.25 523.14,-109.75 523.14,-116.75"/>
</a>
</g>
</g>
<!-- Node6 -->
<g id="Node000006" class="node">
<title>Node6</title>
<g id="a_Node000006"><a xlink:href="../../da/db6/_k___omega___model_8cpp_a7584c2aad761764bf65ccb3e3839a480.html#a7584c2aad761764bf65ccb3e3839a480" target="_top" xlink:title="Calculate scalar gradient for a given variable.">
<polygon fill="white" stroke="#666666" points="831.5,-122.88 699.25,-122.88 699.25,-103.62 831.5,-103.62 831.5,-122.88"/>
<text text-anchor="middle" x="765.38" y="-109.38" font-family="Helvetica,sans-Serif" font-size="10.00">Calculate_Scalar_Gradient</text>
</a>
</g>
</g>
<!-- Node5&#45;&gt;Node6 -->
<g id="edge6_Node000005_Node000006" class="edge">
<title>Node5&#45;&gt;Node6</title>
<g id="a_edge6_Node000005_Node000006"><a xlink:title=" ">
<path fill="none" stroke="#63b8ff" d="M649.03,-113.25C661.35,-113.25 674.59,-113.25 687.56,-113.25"/>
<polygon fill="#63b8ff" stroke="#63b8ff" points="687.34,-116.75 697.34,-113.25 687.34,-109.75 687.34,-116.75"/>
</a>
</g>
</g>
<!-- Node8 -->
<g id="Node000008" class="node">
<title>Node8</title>
<g id="a_Node000008"><a xlink:href="../../d5/d65/_turbulence___models_8cpp_abcf5967a793b905ba24e0b6f02859f52.html#abcf5967a793b905ba24e0b6f02859f52" target="_top" xlink:title="Calculate strain rate tensor for a given cell.">
<polygon fill="white" stroke="#666666" points="479.25,-79.5 365,-79.5 365,-49 479.25,-49 479.25,-79.5"/>
<text text-anchor="start" x="373" y="-66" font-family="Helvetica,sans-Serif" font-size="10.00">Calculate_Strain_Rate</text>
<text text-anchor="middle" x="422.12" y="-54.75" font-family="Helvetica,sans-Serif" font-size="10.00">_Tensor</text>
</a>
</g>
</g>
<!-- Node7&#45;&gt;Node8 -->
<g id="edge8_Node000007_Node000008" class="edge">
<title>Node7&#45;&gt;Node8</title>
<g id="a_edge8_Node000007_Node000008"><a xlink:title=" ">
<path fill="none" stroke="#63b8ff" d="M310.66,-64.91C324.4,-64.83 339.23,-64.74 353.43,-64.66"/>
<polygon fill="#63b8ff" stroke="#63b8ff" points="353.15,-68.16 363.13,-64.6 353.11,-61.16 353.15,-68.16"/>
</a>
</g>
</g>
<!-- Node9 -->
<g id="Node000009" class="node">
<title>Node9</title>
<g id="a_Node000009"><a xlink:href="../../d5/db2/class_vector_a2ce47a84fc19c32a26ada5a3379c3f0a.html#a2ce47a84fc19c32a26ada5a3379c3f0a" target="_top" xlink:title=" ">
<polygon fill="white" stroke="#666666" points="652.75,-49.88 531,-49.88 531,-30.62 652.75,-30.62 652.75,-49.88"/>
<text text-anchor="middle" x="591.88" y="-36.38" font-family="Helvetica,sans-Serif" font-size="10.00">Vector::Get_Component</text>
</a>
</g>
</g>
<!-- Node8&#45;&gt;Node9 -->
<g id="edge9_Node000008_Node000009" class="edge">
<title>Node8&#45;&gt;Node9</title>
<g id="a_edge9_Node000008_Node000009"><a xlink:title=" ">
<path fill="none" stroke="#63b8ff" d="M479.45,-56.19C492.31,-54.35 506.15,-52.37 519.55,-50.45"/>
<polygon fill="#63b8ff" stroke="#63b8ff" points="519.77,-53.96 529.18,-49.08 518.78,-47.03 519.77,-53.96"/>
</a>
</g>
</g>
<!-- Node11 -->
<g id="Node000011" class="node">
<title>Node11</title>
<g id="a_Node000011"><a xlink:href="../../d5/d65/_turbulence___models_8cpp_a7682b4426768f92eca578dc8f7c68db3.html#a7682b4426768f92eca578dc8f7c68db3" target="_top" xlink:title="Calculate vorticity tensor for a given cell.">
<polygon fill="white" stroke="#666666" points="471.38,-30.5 372.88,-30.5 372.88,0 471.38,0 471.38,-30.5"/>
<text text-anchor="start" x="380.88" y="-17" font-family="Helvetica,sans-Serif" font-size="10.00">Calculate_Vorticity</text>
<text text-anchor="middle" x="422.12" y="-5.75" font-family="Helvetica,sans-Serif" font-size="10.00">_Tensor</text>
</a>
</g>
</g>
<!-- Node10&#45;&gt;Node11 -->
<g id="edge11_Node000010_Node000011" class="edge">
<title>Node10&#45;&gt;Node11</title>
<g id="a_edge11_Node000010_Node000011"><a xlink:title=" ">
<path fill="none" stroke="#63b8ff" d="M302.43,-15.96C320.78,-15.85 341.91,-15.72 361.21,-15.61"/>
<polygon fill="#63b8ff" stroke="#63b8ff" points="361.15,-19.11 371.13,-15.55 361.11,-12.11 361.15,-19.11"/>
</a>
</g>
</g>
<!-- Node11&#45;&gt;Node9 -->
<g id="edge12_Node000011_Node000009" class="edge">
<title>Node11&#45;&gt;Node9</title>
<g id="a_edge12_Node000011_Node000009"><a xlink:title=" ">
<path fill="none" stroke="#63b8ff" d="M471.65,-22.48C486.58,-24.71 503.35,-27.21 519.49,-29.61"/>
<polygon fill="#63b8ff" stroke="#63b8ff" points="518.63,-33.02 529.03,-31.03 519.66,-26.1 518.63,-33.02"/>
</a>
</g>
</g>
</g>
</svg>
