<?xml version="1.0" encoding="UTF-8" standalone="no"?>
<!DOCTYPE svg PUBLIC "-//W3C//DTD SVG 1.1//EN"
 "http://www.w3.org/Graphics/SVG/1.1/DTD/svg11.dtd">
<!-- Generated by graphviz version 12.2.1 (20241206.2353)
 -->
<!-- Title: include/Error_Update.h Pages: 1 -->
<svg width="353pt" height="94pt"
 viewBox="0.00 0.00 353.00 93.75" xmlns="http://www.w3.org/2000/svg" xmlns:xlink="http://www.w3.org/1999/xlink">
<g id="graph0" class="graph" transform="scale(1 1) rotate(0) translate(4 89.75)">
<title>include/Error_Update.h</title>
<!-- Node1 -->
<g id="Node000001" class="node">
<title>Node1</title>
<g id="a_Node000001"><a xlink:title=" ">
<polygon fill="#999999" stroke="#666666" points="239.75,-85.75 124,-85.75 124,-66.5 239.75,-66.5 239.75,-85.75"/>
<text text-anchor="middle" x="181.88" y="-72.25" font-family="Helvetica,sans-Serif" font-size="10.00">include/Error_Update.h</text>
</a>
</g>
</g>
<!-- Node2 -->
<g id="Node000002" class="node">
<title>Node2</title>
<g id="a_Node000002"><a xlink:href="../../d9/d1f/_error___estimate___update_8cpp.html" target="_top" xlink:title=" ">
<polygon fill="white" stroke="#666666" points="97.75,-30.5 0,-30.5 0,0 97.75,0 97.75,-30.5"/>
<text text-anchor="start" x="8" y="-17" font-family="Helvetica,sans-Serif" font-size="10.00">src/Error_Estimate</text>
<text text-anchor="middle" x="48.88" y="-5.75" font-family="Helvetica,sans-Serif" font-size="10.00">_Update.cpp</text>
</a>
</g>
</g>
<!-- Node1&#45;&gt;Node2 -->
<g id="edge1_Node000001_Node000002" class="edge">
<title>Node1&#45;&gt;Node2</title>
<g id="a_edge1_Node000001_Node000002"><a xlink:title=" ">
<path fill="none" stroke="#63b8ff" d="M150.95,-61.44C130.31,-52.3 103.17,-40.29 82.07,-30.94"/>
<polygon fill="#63b8ff" stroke="#63b8ff" points="149.44,-64.59 160,-65.44 152.27,-58.19 149.44,-64.59"/>
</a>
</g>
</g>
<!-- Node3 -->
<g id="Node000003" class="node">
<title>Node3</title>
<g id="a_Node000003"><a xlink:href="../../d0/d64/_numerical___method_8cpp.html" target="_top" xlink:title=" ">
<polygon fill="white" stroke="#666666" points="248.38,-24.88 115.38,-24.88 115.38,-5.63 248.38,-5.63 248.38,-24.88"/>
<text text-anchor="middle" x="181.88" y="-11.38" font-family="Helvetica,sans-Serif" font-size="10.00">src/Numerical_Method.cpp</text>
</a>
</g>
</g>
<!-- Node1&#45;&gt;Node3 -->
<g id="edge2_Node000001_Node000003" class="edge">
<title>Node1&#45;&gt;Node3</title>
<g id="a_edge2_Node000001_Node000003"><a xlink:title=" ">
<path fill="none" stroke="#63b8ff" d="M181.88,-54.7C181.88,-44.67 181.88,-33.08 181.88,-25.28"/>
<polygon fill="#63b8ff" stroke="#63b8ff" points="178.38,-54.67 181.88,-64.67 185.38,-54.67 178.38,-54.67"/>
</a>
</g>
</g>
<!-- Node4 -->
<g id="Node000004" class="node">
<title>Node4</title>
<g id="a_Node000004"><a xlink:href="../../de/df0/_solver_8cpp.html" target="_top" xlink:title="This file contains the implementation of solvers for Euler equations and Navier&#45;Stokes equations.">
<polygon fill="white" stroke="#666666" points="345,-24.88 266.75,-24.88 266.75,-5.63 345,-5.63 345,-24.88"/>
<text text-anchor="middle" x="305.88" y="-11.38" font-family="Helvetica,sans-Serif" font-size="10.00">src/Solver.cpp</text>
</a>
</g>
</g>
<!-- Node1&#45;&gt;Node4 -->
<g id="edge3_Node000001_Node000004" class="edge">
<title>Node1&#45;&gt;Node4</title>
<g id="a_edge3_Node000001_Node000004"><a xlink:title=" ">
<path fill="none" stroke="#63b8ff" d="M211.38,-61.12C234.8,-50 266.85,-34.78 286.95,-25.23"/>
<polygon fill="#63b8ff" stroke="#63b8ff" points="209.88,-57.95 202.35,-65.41 212.88,-64.28 209.88,-57.95"/>
</a>
</g>
</g>
</g>
</svg>
