<?xml version="1.0" encoding="UTF-8" standalone="no"?>
<!DOCTYPE svg PUBLIC "-//W3C//DTD SVG 1.1//EN"
 "http://www.w3.org/Graphics/SVG/1.1/DTD/svg11.dtd">
<!-- Generated by graphviz version 12.2.1 (20241206.2353)
 -->
<!-- Title: Python_Wrapper/MyPythonEnv311/lib/python3.11/site&#45;packages/symengine/lib/pywrapper.h Pages: 1 -->
<svg width="456pt" height="105pt"
 viewBox="0.00 0.00 455.62 105.00" xmlns="http://www.w3.org/2000/svg" xmlns:xlink="http://www.w3.org/1999/xlink">
<g id="graph0" class="graph" transform="scale(1 1) rotate(0) translate(4 101)">
<title>Python_Wrapper/MyPythonEnv311/lib/python3.11/site&#45;packages/symengine/lib/pywrapper.h</title>
<!-- Node1 -->
<g id="Node000001" class="node">
<title>Node1</title>
<g id="a_Node000001"><a xlink:title=" ">
<polygon fill="#999999" stroke="#666666" points="275.62,-97 107.38,-97 107.38,-55.25 275.62,-55.25 275.62,-97"/>
<text text-anchor="start" x="115.38" y="-83.5" font-family="Helvetica,sans-Serif" font-size="10.00">Python_Wrapper/MyPythonEnv311</text>
<text text-anchor="start" x="115.38" y="-72.25" font-family="Helvetica,sans-Serif" font-size="10.00">/lib/python3.11/site&#45;packages</text>
<text text-anchor="middle" x="191.5" y="-61" font-family="Helvetica,sans-Serif" font-size="10.00">/symengine/lib/pywrapper.h</text>
</a>
</g>
</g>
<!-- Node2 -->
<g id="Node000002" class="node">
<title>Node2</title>
<g id="a_Node000002"><a xlink:title=" ">
<polygon fill="#e0e0e0" stroke="#999999" points="55,-19.25 0,-19.25 0,0 55,0 55,-19.25"/>
<text text-anchor="middle" x="27.5" y="-5.75" font-family="Helvetica,sans-Serif" font-size="10.00">Python.h</text>
</a>
</g>
</g>
<!-- Node1&#45;&gt;Node2 -->
<g id="edge1_Node000001_Node000002" class="edge">
<title>Node1&#45;&gt;Node2</title>
<g id="a_edge1_Node000001_Node000002"><a xlink:title=" ">
<path fill="none" stroke="#63b8ff" d="M140.06,-54.89C114.23,-44.73 83.67,-32.72 60.92,-23.77"/>
<polygon fill="#63b8ff" stroke="#63b8ff" points="62.43,-20.6 51.84,-20.2 59.87,-27.12 62.43,-20.6"/>
</a>
</g>
</g>
<!-- Node3 -->
<g id="Node000003" class="node">
<title>Node3</title>
<g id="a_Node000003"><a xlink:title=" ">
<polygon fill="#e0e0e0" stroke="#999999" points="179.5,-19.25 73.5,-19.25 73.5,0 179.5,0 179.5,-19.25"/>
<text text-anchor="middle" x="126.5" y="-5.75" font-family="Helvetica,sans-Serif" font-size="10.00">symengine/number.h</text>
</a>
</g>
</g>
<!-- Node1&#45;&gt;Node3 -->
<g id="edge2_Node000001_Node000003" class="edge">
<title>Node1&#45;&gt;Node3</title>
<g id="a_edge2_Node000001_Node000003"><a xlink:title=" ">
<path fill="none" stroke="#63b8ff" d="M171.29,-55.07C162.44,-46.29 152.16,-36.09 143.69,-27.68"/>
<polygon fill="#63b8ff" stroke="#63b8ff" points="146.28,-25.32 136.72,-20.76 141.35,-30.29 146.28,-25.32"/>
</a>
</g>
</g>
<!-- Node4 -->
<g id="Node000004" class="node">
<title>Node4</title>
<g id="a_Node000004"><a xlink:title=" ">
<polygon fill="#e0e0e0" stroke="#999999" points="315.12,-19.25 197.88,-19.25 197.88,0 315.12,0 315.12,-19.25"/>
<text text-anchor="middle" x="256.5" y="-5.75" font-family="Helvetica,sans-Serif" font-size="10.00">symengine/constants.h</text>
</a>
</g>
</g>
<!-- Node1&#45;&gt;Node4 -->
<g id="edge3_Node000001_Node000004" class="edge">
<title>Node1&#45;&gt;Node4</title>
<g id="a_edge3_Node000001_Node000004"><a xlink:title=" ">
<path fill="none" stroke="#63b8ff" d="M211.71,-55.07C220.56,-46.29 230.84,-36.09 239.31,-27.68"/>
<polygon fill="#63b8ff" stroke="#63b8ff" points="241.65,-30.29 246.28,-20.76 236.72,-25.32 241.65,-30.29"/>
</a>
</g>
</g>
<!-- Node5 -->
<g id="Node000005" class="node">
<title>Node5</title>
<g id="a_Node000005"><a xlink:title=" ">
<polygon fill="#e0e0e0" stroke="#999999" points="447.62,-19.25 333.38,-19.25 333.38,0 447.62,0 447.62,-19.25"/>
<text text-anchor="middle" x="390.5" y="-5.75" font-family="Helvetica,sans-Serif" font-size="10.00">symengine/functions.h</text>
</a>
</g>
</g>
<!-- Node1&#45;&gt;Node5 -->
<g id="edge4_Node000001_Node000005" class="edge">
<title>Node1&#45;&gt;Node5</title>
<g id="a_edge4_Node000001_Node000005"><a xlink:title=" ">
<path fill="none" stroke="#63b8ff" d="M254.19,-54.81C286.13,-44.45 323.97,-32.19 351.66,-23.21"/>
<polygon fill="#63b8ff" stroke="#63b8ff" points="352.62,-26.58 361.05,-20.17 350.46,-19.92 352.62,-26.58"/>
</a>
</g>
</g>
</g>
</svg>
