<?xml version="1.0" encoding="UTF-8" standalone="no"?>
<!DOCTYPE svg PUBLIC "-//W3C//DTD SVG 1.1//EN"
 "http://www.w3.org/Graphics/SVG/1.1/DTD/svg11.dtd">
<!-- Generated by graphviz version 12.2.1 (20241206.2353)
 -->
<!-- Title: assemble_vector_b_kernel Pages: 1 -->
<svg width="864pt" height="70pt"
 viewBox="0.00 0.00 864.25 69.88" xmlns="http://www.w3.org/2000/svg" xmlns:xlink="http://www.w3.org/1999/xlink">
<g id="graph0" class="graph" transform="scale(1 1) rotate(0) translate(4 65.88)">
<title>assemble_vector_b_kernel</title>
<!-- Node1 -->
<g id="Node000001" class="node">
<title>Node1</title>
<g id="a_Node000001"><a xlink:title=" ">
<polygon fill="#999999" stroke="#666666" points="856.25,-37.25 724,-37.25 724,-18 856.25,-18 856.25,-37.25"/>
<text text-anchor="middle" x="790.12" y="-23.75" font-family="Helvetica,sans-Serif" font-size="10.00">assemble_vector_b_kernel</text>
</a>
</g>
</g>
<!-- Node2 -->
<g id="Node000002" class="node">
<title>Node2</title>
<g id="a_Node000002"><a xlink:href="../../d8/d45/_matrix___assembly___cuda___host___wrappers_8cpp_a432856cbf9f6d6e1a164717e19752ce5.html#a432856cbf9f6d6e1a164717e19752ce5" target="_top" xlink:title=" ">
<polygon fill="white" stroke="#666666" points="688,-37.25 561,-37.25 561,-18 688,-18 688,-37.25"/>
<text text-anchor="middle" x="624.5" y="-23.75" font-family="Helvetica,sans-Serif" font-size="10.00">assemble_vector_b_cuda</text>
</a>
</g>
</g>
<!-- Node1&#45;&gt;Node2 -->
<g id="edge1_Node000001_Node000002" class="edge">
<title>Node1&#45;&gt;Node2</title>
<g id="a_edge1_Node000001_Node000002"><a xlink:title=" ">
<path fill="none" stroke="#63b8ff" d="M712.03,-27.62C704.13,-27.62 696.18,-27.62 688.47,-27.62"/>
<polygon fill="#63b8ff" stroke="#63b8ff" points="712,-31.13 722,-27.63 712,-24.13 712,-31.13"/>
</a>
</g>
</g>
<!-- Node3 -->
<g id="Node000003" class="node">
<title>Node3</title>
<g id="a_Node000003"><a xlink:href="../../d5/d81/_matrix___assembly___c_u_d_a___integration___example_8cpp_a6607025671f5fc8e4de5def2cecfb05b.html#a6607025671f5fc8e4de5def2cecfb05b" target="_top" xlink:title=" ">
<polygon fill="white" stroke="#666666" points="492.38,-56.25 387.88,-56.25 387.88,-37 492.38,-37 492.38,-56.25"/>
<text text-anchor="middle" x="440.12" y="-42.75" font-family="Helvetica,sans-Serif" font-size="10.00">Assemble_b_CUDA</text>
</a>
</g>
</g>
<!-- Node2&#45;&gt;Node3 -->
<g id="edge2_Node000002_Node000003" class="edge">
<title>Node2&#45;&gt;Node3</title>
<g id="a_edge2_Node000002_Node000003"><a xlink:title=" ">
<path fill="none" stroke="#63b8ff" d="M549.39,-35.35C530.41,-37.32 510.4,-39.41 492.81,-41.24"/>
<polygon fill="#63b8ff" stroke="#63b8ff" points="549.65,-38.84 559.23,-34.32 548.92,-31.88 549.65,-38.84"/>
</a>
</g>
</g>
<!-- Node6 -->
<g id="Node000006" class="node">
<title>Node6</title>
<g id="a_Node000006"><a xlink:href="../../d8/d45/_matrix___assembly___cuda___host___wrappers_8cpp_a8c7dbdb8a9071584c3bfd920264b1a57.html#a8c7dbdb8a9071584c3bfd920264b1a57" target="_top" xlink:title=" ">
<polygon fill="white" stroke="#666666" points="525,-19.25 355.25,-19.25 355.25,0 525,0 525,-19.25"/>
<text text-anchor="middle" x="440.12" y="-5.75" font-family="Helvetica,sans-Serif" font-size="10.00">benchmark_matrix_assembly_cuda</text>
</a>
</g>
</g>
<!-- Node2&#45;&gt;Node6 -->
<g id="edge5_Node000002_Node000006" class="edge">
<title>Node2&#45;&gt;Node6</title>
<g id="a_edge5_Node000002_Node000006"><a xlink:title=" ">
<path fill="none" stroke="#63b8ff" d="M549.29,-20.3C541.38,-19.52 533.28,-18.72 525.26,-17.93"/>
<polygon fill="#63b8ff" stroke="#63b8ff" points="548.94,-23.78 559.23,-21.28 549.62,-16.82 548.94,-23.78"/>
</a>
</g>
</g>
<!-- Node4 -->
<g id="Node000004" class="node">
<title>Node4</title>
<g id="a_Node000004"><a xlink:href="../../d5/d81/_matrix___assembly___c_u_d_a___integration___example_8cpp_a3a3d77470391a4e87bd8c9864348d89f.html#a3a3d77470391a4e87bd8c9864348d89f" target="_top" xlink:title=" ">
<polygon fill="white" stroke="#666666" points="319.25,-56.25 164.5,-56.25 164.5,-37 319.25,-37 319.25,-56.25"/>
<text text-anchor="middle" x="241.88" y="-42.75" font-family="Helvetica,sans-Serif" font-size="10.00">validate_cuda_cpu_consistency</text>
</a>
</g>
</g>
<!-- Node3&#45;&gt;Node4 -->
<g id="edge3_Node000003_Node000004" class="edge">
<title>Node3&#45;&gt;Node4</title>
<g id="a_edge3_Node000003_Node000004"><a xlink:title=" ">
<path fill="none" stroke="#63b8ff" d="M376.3,-46.62C358.25,-46.62 338.36,-46.62 319.58,-46.62"/>
<polygon fill="#63b8ff" stroke="#63b8ff" points="376.05,-50.13 386.05,-46.63 376.05,-43.13 376.05,-50.13"/>
</a>
</g>
</g>
<!-- Node5 -->
<g id="Node000005" class="node">
<title>Node5</title>
<g id="a_Node000005"><a xlink:href="../../d5/d81/_matrix___assembly___c_u_d_a___integration___example_8cpp_a040fa30a7d9a31fc77785e00a27f6fa6.html#a040fa30a7d9a31fc77785e00a27f6fa6" target="_top" xlink:title=" ">
<polygon fill="white" stroke="#666666" points="128.5,-61.88 0,-61.88 0,-31.38 128.5,-31.38 128.5,-61.88"/>
<text text-anchor="start" x="8" y="-48.38" font-family="Helvetica,sans-Serif" font-size="10.00">demonstrate_cuda_matrix</text>
<text text-anchor="middle" x="64.25" y="-37.12" font-family="Helvetica,sans-Serif" font-size="10.00">_assembly</text>
</a>
</g>
</g>
<!-- Node4&#45;&gt;Node5 -->
<g id="edge4_Node000004_Node000005" class="edge">
<title>Node4&#45;&gt;Node5</title>
<g id="a_edge4_Node000004_Node000005"><a xlink:title=" ">
<path fill="none" stroke="#63b8ff" d="M152.78,-46.62C144.76,-46.62 136.74,-46.62 128.99,-46.62"/>
<polygon fill="#63b8ff" stroke="#63b8ff" points="152.59,-50.13 162.59,-46.63 152.59,-43.13 152.59,-50.13"/>
</a>
</g>
</g>
</g>
</svg>
