<?xml version="1.0" encoding="UTF-8" standalone="no"?>
<!DOCTYPE svg PUBLIC "-//W3C//DTD SVG 1.1//EN"
 "http://www.w3.org/Graphics/SVG/1.1/DTD/svg11.dtd">
<!-- Generated by graphviz version 12.2.1 (20241206.2353)
 -->
<!-- Title: main Pages: 1 -->
<svg width="224pt" height="286pt"
 viewBox="0.00 0.00 223.75 286.25" xmlns="http://www.w3.org/2000/svg" xmlns:xlink="http://www.w3.org/1999/xlink">
<g id="graph0" class="graph" transform="scale(1 1) rotate(0) translate(4 282.25)">
<title>main</title>
<!-- Node1 -->
<g id="Node000001" class="node">
<title>Node1</title>
<g id="a_Node000001"><a xlink:title=" ">
<polygon fill="#999999" stroke="#666666" points="37,-148.25 0,-148.25 0,-129 37,-129 37,-148.25"/>
<text text-anchor="middle" x="18.5" y="-134.75" font-family="Helvetica,sans-Serif" font-size="10.00">main</text>
</a>
</g>
</g>
<!-- Node2 -->
<g id="Node000002" class="node">
<title>Node2</title>
<g id="a_Node000002"><a xlink:href="../../d7/d4e/_identify_cells_and_neighbors_8cpp_a87422716451b60e1806b7f5fef3b81e4.html#a87422716451b60e1806b7f5fef3b81e4" target="_top" xlink:title=" ">
<polygon fill="white" stroke="#666666" points="193.62,-278.25 95.12,-278.25 95.12,-259 193.62,-259 193.62,-278.25"/>
<text text-anchor="middle" x="144.38" y="-264.75" font-family="Helvetica,sans-Serif" font-size="10.00">classifyBoundaries</text>
</a>
</g>
</g>
<!-- Node1&#45;&gt;Node2 -->
<g id="edge1_Node000001_Node000002" class="edge">
<title>Node1&#45;&gt;Node2</title>
<g id="a_edge1_Node000001_Node000002"><a xlink:title=" ">
<path fill="none" stroke="#63b8ff" d="M21.28,-148.43C25.78,-170.3 39.7,-223.27 73,-250.62 76.46,-253.47 80.32,-255.87 84.4,-257.9"/>
<polygon fill="#63b8ff" stroke="#63b8ff" points="82.9,-261.07 93.48,-261.63 85.56,-254.6 82.9,-261.07"/>
</a>
</g>
</g>
<!-- Node3 -->
<g id="Node000003" class="node">
<title>Node3</title>
<g id="a_Node000003"><a xlink:href="../../d7/d4e/_identify_cells_and_neighbors_8cpp_ad0e486817fb9f181f61db2589262092a.html#ad0e486817fb9f181f61db2589262092a" target="_top" xlink:title=" ">
<polygon fill="white" stroke="#666666" points="185.38,-241.25 103.38,-241.25 103.38,-222 185.38,-222 185.38,-241.25"/>
<text text-anchor="middle" x="144.38" y="-227.75" font-family="Helvetica,sans-Serif" font-size="10.00">extractVertices</text>
</a>
</g>
</g>
<!-- Node1&#45;&gt;Node3 -->
<g id="edge2_Node000001_Node000003" class="edge">
<title>Node1&#45;&gt;Node3</title>
<g id="a_edge2_Node000001_Node000003"><a xlink:title=" ">
<path fill="none" stroke="#63b8ff" d="M23.81,-148.61C31.34,-164.84 48.46,-196.81 73,-213.62 78.8,-217.6 85.42,-220.7 92.22,-223.11"/>
<polygon fill="#63b8ff" stroke="#63b8ff" points="90.93,-226.38 101.51,-225.93 92.96,-219.68 90.93,-226.38"/>
</a>
</g>
</g>
<!-- Node4 -->
<g id="Node000004" class="node">
<title>Node4</title>
<g id="a_Node000004"><a xlink:href="../../d7/d4e/_identify_cells_and_neighbors_8cpp_a748b03b2e15f60c903f1e8b93e99c782.html#a748b03b2e15f60c903f1e8b93e99c782" target="_top" xlink:title=" ">
<polygon fill="white" stroke="#666666" points="192.5,-204.25 96.25,-204.25 96.25,-185 192.5,-185 192.5,-204.25"/>
<text text-anchor="middle" x="144.38" y="-190.75" font-family="Helvetica,sans-Serif" font-size="10.00">identifyBoundaries</text>
</a>
</g>
</g>
<!-- Node1&#45;&gt;Node4 -->
<g id="edge3_Node000001_Node000004" class="edge">
<title>Node1&#45;&gt;Node4</title>
<g id="a_edge3_Node000001_Node000004"><a xlink:title=" ">
<path fill="none" stroke="#63b8ff" d="M31.04,-148.74C41.37,-157.31 57.29,-169.34 73,-176.62 76.94,-178.45 81.1,-180.11 85.34,-181.62"/>
<polygon fill="#63b8ff" stroke="#63b8ff" points="83.95,-184.85 94.54,-184.59 86.1,-178.19 83.95,-184.85"/>
</a>
</g>
</g>
<!-- Node5 -->
<g id="Node000005" class="node">
<title>Node5</title>
<g id="a_Node000005"><a xlink:href="../../d7/d4e/_identify_cells_and_neighbors_8cpp_aad0387211ff6e5c3e9edf72b6ec9e69c.html#aad0387211ff6e5c3e9edf72b6ec9e69c" target="_top" xlink:title=" ">
<polygon fill="white" stroke="#666666" points="210.12,-167.25 78.62,-167.25 78.62,-148 210.12,-148 210.12,-167.25"/>
<text text-anchor="middle" x="144.38" y="-153.75" font-family="Helvetica,sans-Serif" font-size="10.00">identifyCellsAndNeighbors</text>
</a>
</g>
</g>
<!-- Node1&#45;&gt;Node5 -->
<g id="edge4_Node000001_Node000005" class="edge">
<title>Node1&#45;&gt;Node5</title>
<g id="a_edge4_Node000001_Node000005"><a xlink:title=" ">
<path fill="none" stroke="#63b8ff" d="M37.25,-141.35C45.48,-142.61 55.88,-144.2 66.93,-145.9"/>
<polygon fill="#63b8ff" stroke="#63b8ff" points="66.23,-149.33 76.65,-147.39 67.29,-142.41 66.23,-149.33"/>
</a>
</g>
</g>
<!-- Node6 -->
<g id="Node000006" class="node">
<title>Node6</title>
<g id="a_Node000006"><a xlink:href="../../d7/d4e/_identify_cells_and_neighbors_8cpp_aee7032e1dcceccd82f398f0015a3d846.html#aee7032e1dcceccd82f398f0015a3d846" target="_top" xlink:title=" ">
<polygon fill="white" stroke="#666666" points="188.38,-130.25 100.38,-130.25 100.38,-111 188.38,-111 188.38,-130.25"/>
<text text-anchor="middle" x="144.38" y="-116.75" font-family="Helvetica,sans-Serif" font-size="10.00">identifyLineCells</text>
</a>
</g>
</g>
<!-- Node1&#45;&gt;Node6 -->
<g id="edge5_Node000001_Node000006" class="edge">
<title>Node1&#45;&gt;Node6</title>
<g id="a_edge5_Node000001_Node000006"><a xlink:title=" ">
<path fill="none" stroke="#63b8ff" d="M37.25,-136.05C50.77,-134.08 70.14,-131.27 88.65,-128.58"/>
<polygon fill="#63b8ff" stroke="#63b8ff" points="89.11,-132.05 98.5,-127.15 88.1,-125.12 89.11,-132.05"/>
</a>
</g>
</g>
<!-- Node7 -->
<g id="Node000007" class="node">
<title>Node7</title>
<g id="a_Node000007"><a xlink:href="../../d7/d4e/_identify_cells_and_neighbors_8cpp_a3c7ccf2f0fe7aafecd4bd4dd69d91e31.html#a3c7ccf2f0fe7aafecd4bd4dd69d91e31" target="_top" xlink:title=" ">
<polygon fill="white" stroke="#666666" points="215.75,-93.25 73,-93.25 73,-74 215.75,-74 215.75,-93.25"/>
<text text-anchor="middle" x="144.38" y="-79.75" font-family="Helvetica,sans-Serif" font-size="10.00">mapLineCellsToParentQuads</text>
</a>
</g>
</g>
<!-- Node1&#45;&gt;Node7 -->
<g id="edge6_Node000001_Node000007" class="edge">
<title>Node1&#45;&gt;Node7</title>
<g id="a_edge6_Node000001_Node000007"><a xlink:title=" ">
<path fill="none" stroke="#63b8ff" d="M31.08,-128.79C41.45,-120.45 57.38,-108.75 73,-101.62 76.49,-100.03 80.15,-98.57 83.88,-97.22"/>
<polygon fill="#63b8ff" stroke="#63b8ff" points="84.68,-100.64 93.08,-94.19 82.49,-93.99 84.68,-100.64"/>
</a>
</g>
</g>
<!-- Node8 -->
<g id="Node000008" class="node">
<title>Node8</title>
<g id="a_Node000008"><a xlink:href="../../d7/d4e/_identify_cells_and_neighbors_8cpp_af6740e8247624b261d740830bcaa0c9d.html#af6740e8247624b261d740830bcaa0c9d" target="_top" xlink:title=" ">
<polygon fill="white" stroke="#666666" points="203.75,-56.25 85,-56.25 85,-37 203.75,-37 203.75,-56.25"/>
<text text-anchor="middle" x="144.38" y="-42.75" font-family="Helvetica,sans-Serif" font-size="10.00">Read_OutputMeshData</text>
</a>
</g>
</g>
<!-- Node1&#45;&gt;Node8 -->
<g id="edge7_Node000001_Node000008" class="edge">
<title>Node1&#45;&gt;Node8</title>
<g id="a_edge7_Node000001_Node000008"><a xlink:title=" ">
<path fill="none" stroke="#63b8ff" d="M23.97,-128.51C31.61,-112.42 48.75,-81.13 73,-64.62 74.61,-63.53 76.29,-62.5 78.01,-61.53"/>
<polygon fill="#63b8ff" stroke="#63b8ff" points="79.41,-64.74 86.95,-57.29 76.42,-58.41 79.41,-64.74"/>
</a>
</g>
</g>
<!-- Node9 -->
<g id="Node000009" class="node">
<title>Node9</title>
<g id="a_Node000009"><a xlink:href="../../d7/d4e/_identify_cells_and_neighbors_8cpp_ab9b41079773545c3ad8f1d20d27fd192.html#ab9b41079773545c3ad8f1d20d27fd192" target="_top" xlink:title=" ">
<polygon fill="white" stroke="#666666" points="177.5,-19.25 111.25,-19.25 111.25,0 177.5,0 177.5,-19.25"/>
<text text-anchor="middle" x="144.38" y="-5.75" font-family="Helvetica,sans-Serif" font-size="10.00">writeOutput</text>
</a>
</g>
</g>
<!-- Node1&#45;&gt;Node9 -->
<g id="edge8_Node000001_Node000009" class="edge">
<title>Node1&#45;&gt;Node9</title>
<g id="a_edge8_Node000001_Node000009"><a xlink:title=" ">
<path fill="none" stroke="#63b8ff" d="M21.38,-128.58C26,-106.71 40.06,-54.59 73,-27.62 80.64,-21.37 90.2,-17.25 99.78,-14.56"/>
<polygon fill="#63b8ff" stroke="#63b8ff" points="100.49,-17.99 109.46,-12.34 98.93,-11.16 100.49,-17.99"/>
</a>
</g>
</g>
</g>
</svg>
