<?xml version="1.0" encoding="UTF-8" standalone="no"?>
<!DOCTYPE svg PUBLIC "-//W3C//DTD SVG 1.1//EN"
 "http://www.w3.org/Graphics/SVG/1.1/DTD/svg11.dtd">
<!-- Generated by graphviz version 12.2.1 (20241206.2353)
 -->
<!-- Title: IncompressibleSolver::PressureField::resize Pages: 1 -->
<svg width="692pt" height="96pt"
 viewBox="0.00 0.00 691.75 96.36" xmlns="http://www.w3.org/2000/svg" xmlns:xlink="http://www.w3.org/1999/xlink">
<g id="graph0" class="graph" transform="scale(1 1) rotate(0) translate(4 92.36)">
<title>IncompressibleSolver::PressureField::resize</title>
<!-- Node1 -->
<g id="Node000001" class="node">
<title>Node1</title>
<g id="a_Node000001"><a xlink:title=" ">
<polygon fill="#999999" stroke="#666666" points="683.75,-48.88 569.5,-48.88 569.5,-18.38 683.75,-18.38 683.75,-48.88"/>
<text text-anchor="start" x="577.5" y="-35.38" font-family="Helvetica,sans-Serif" font-size="10.00">IncompressibleSolver</text>
<text text-anchor="middle" x="626.62" y="-24.12" font-family="Helvetica,sans-Serif" font-size="10.00">::PressureField::resize</text>
</a>
</g>
</g>
<!-- Node2 -->
<g id="Node000002" class="node">
<title>Node2</title>
<g id="a_Node000002"><a xlink:href="../../de/d50/class_incompressible_solver_1_1_incompressible_flow_solver_a075bfb3768ca7a630184d091e933cd5f.html#a075bfb3768ca7a630184d091e933cd5f" target="_top" xlink:title=" ">
<polygon fill="white" stroke="#666666" points="533.5,-54.5 396.75,-54.5 396.75,-12.75 533.5,-12.75 533.5,-54.5"/>
<text text-anchor="start" x="404.75" y="-41" font-family="Helvetica,sans-Serif" font-size="10.00">IncompressibleSolver</text>
<text text-anchor="start" x="404.75" y="-29.75" font-family="Helvetica,sans-Serif" font-size="10.00">::IncompressibleFlowSolver</text>
<text text-anchor="middle" x="465.12" y="-18.5" font-family="Helvetica,sans-Serif" font-size="10.00">::initialize_from_grid</text>
</a>
</g>
</g>
<!-- Node1&#45;&gt;Node2 -->
<g id="edge1_Node000001_Node000002" class="edge">
<title>Node1&#45;&gt;Node2</title>
<g id="a_edge1_Node000001_Node000002"><a xlink:title=" ">
<path fill="none" stroke="#63b8ff" d="M557.9,-33.62C549.95,-33.62 541.83,-33.62 533.88,-33.62"/>
<polygon fill="#63b8ff" stroke="#63b8ff" points="557.88,-37.13 567.88,-33.63 557.88,-30.13 557.88,-37.13"/>
</a>
</g>
</g>
<!-- Node3 -->
<g id="Node000003" class="node">
<title>Node3</title>
<g id="a_Node000003"><a xlink:href="../../d6/d0b/namespace_incompressible_solver_a7e6587392f2aec765684b93ba7a5aad6.html#a7e6587392f2aec765684b93ba7a5aad6" target="_top" xlink:title="Initialize incompressible solver with grid data from existing infrastructure.">
<polygon fill="white" stroke="#666666" points="360.75,-79.5 233,-79.5 233,-37.75 360.75,-37.75 360.75,-79.5"/>
<text text-anchor="start" x="241" y="-66" font-family="Helvetica,sans-Serif" font-size="10.00">IncompressibleSolver</text>
<text text-anchor="start" x="241" y="-54.75" font-family="Helvetica,sans-Serif" font-size="10.00">::initialize_incompressible</text>
<text text-anchor="middle" x="296.88" y="-43.5" font-family="Helvetica,sans-Serif" font-size="10.00">_solver_with_grid</text>
</a>
</g>
</g>
<!-- Node2&#45;&gt;Node3 -->
<g id="edge2_Node000002_Node000003" class="edge">
<title>Node2&#45;&gt;Node3</title>
<g id="a_edge2_Node000002_Node000003"><a xlink:title=" ">
<path fill="none" stroke="#63b8ff" d="M385.18,-45.5C377.12,-46.71 369,-47.93 361.14,-49.11"/>
<polygon fill="#63b8ff" stroke="#63b8ff" points="385.64,-48.97 395.01,-44.02 384.6,-42.04 385.64,-48.97"/>
</a>
</g>
</g>
<!-- Node7 -->
<g id="Node000007" class="node">
<title>Node7</title>
<g id="a_Node000007"><a xlink:href="../../d1/dfd/test__standalone_8cpp_ae66f6b31b5ad750f1fe042a706a4e3d4.html#ae66f6b31b5ad750f1fe042a706a4e3d4" target="_top" xlink:title=" ">
<polygon fill="white" stroke="#666666" points="315.38,-19.25 278.38,-19.25 278.38,0 315.38,0 315.38,-19.25"/>
<text text-anchor="middle" x="296.88" y="-5.75" font-family="Helvetica,sans-Serif" font-size="10.00">main</text>
</a>
</g>
</g>
<!-- Node2&#45;&gt;Node7 -->
<g id="edge7_Node000002_Node000007" class="edge">
<title>Node2&#45;&gt;Node7</title>
<g id="a_edge7_Node000002_Node000007"><a xlink:title=" ">
<path fill="none" stroke="#63b8ff" d="M385.42,-22.26C359.4,-18.51 332.81,-14.67 315.86,-12.22"/>
<polygon fill="#63b8ff" stroke="#63b8ff" points="384.61,-25.68 395.01,-23.65 385.61,-18.75 384.61,-25.68"/>
</a>
</g>
</g>
<!-- Node4 -->
<g id="Node000004" class="node">
<title>Node4</title>
<g id="a_Node000004"><a xlink:href="../../d3/d1b/_incompressible___main_8cpp_a0ddf1224851353fc92bfbff6f499fa97.html#a0ddf1224851353fc92bfbff6f499fa97" target="_top" xlink:title=" ">
<polygon fill="white" stroke="#666666" points="37,-68.25 0,-68.25 0,-49 37,-49 37,-68.25"/>
<text text-anchor="middle" x="18.5" y="-54.75" font-family="Helvetica,sans-Serif" font-size="10.00">main</text>
</a>
</g>
</g>
<!-- Node3&#45;&gt;Node4 -->
<g id="edge3_Node000003_Node000004" class="edge">
<title>Node3&#45;&gt;Node4</title>
<g id="a_edge3_Node000003_Node000004"><a xlink:title=" ">
<path fill="none" stroke="#63b8ff" d="M221.77,-78.28C178.12,-86.98 122.01,-93.11 73,-82.62 60.26,-79.9 46.88,-73.9 36.69,-68.58"/>
<polygon fill="#63b8ff" stroke="#63b8ff" points="222.32,-81.75 231.4,-76.28 220.89,-74.89 222.32,-81.75"/>
</a>
</g>
</g>
<!-- Node5 -->
<g id="Node000005" class="node">
<title>Node5</title>
<g id="a_Node000005"><a xlink:href="../../d3/d1b/_incompressible___main_8cpp_afe0b7b309a59208f44fafe33ff9bb6df.html#afe0b7b309a59208f44fafe33ff9bb6df" target="_top" xlink:title=" ">
<polygon fill="white" stroke="#666666" points="185,-73.88 85,-73.88 85,-43.38 185,-43.38 185,-73.88"/>
<text text-anchor="start" x="93" y="-60.38" font-family="Helvetica,sans-Serif" font-size="10.00">run_incompressible</text>
<text text-anchor="middle" x="135" y="-49.12" font-family="Helvetica,sans-Serif" font-size="10.00">_solver</text>
</a>
</g>
</g>
<!-- Node3&#45;&gt;Node5 -->
<g id="edge4_Node000003_Node000005" class="edge">
<title>Node3&#45;&gt;Node5</title>
<g id="a_edge4_Node000003_Node000005"><a xlink:title=" ">
<path fill="none" stroke="#63b8ff" d="M221.53,-58.62C209.28,-58.62 196.86,-58.62 185.42,-58.62"/>
<polygon fill="#63b8ff" stroke="#63b8ff" points="221.17,-62.13 231.17,-58.63 221.17,-55.13 221.17,-62.13"/>
</a>
</g>
</g>
<!-- Node6 -->
<g id="Node000006" class="node">
<title>Node6</title>
<g id="a_Node000006"><a xlink:href="../../d3/d1b/_incompressible___main_8cpp_a10cfe68fcf009fcb40d92f8e6681b50b.html#a10cfe68fcf009fcb40d92f8e6681b50b" target="_top" xlink:title=" ">
<polygon fill="white" stroke="#666666" points="197,-25.25 73,-25.25 73,-6 197,-6 197,-25.25"/>
<text text-anchor="middle" x="135" y="-11.75" font-family="Helvetica,sans-Serif" font-size="10.00">run_validation_test_case</text>
</a>
</g>
</g>
<!-- Node3&#45;&gt;Node6 -->
<g id="edge5_Node000003_Node000006" class="edge">
<title>Node3&#45;&gt;Node6</title>
<g id="a_edge5_Node000003_Node000006"><a xlink:title=" ">
<path fill="none" stroke="#63b8ff" d="M221.75,-38.69C204.99,-34.18 187.89,-29.58 173.41,-25.69"/>
<polygon fill="#63b8ff" stroke="#63b8ff" points="220.66,-42.02 231.23,-41.24 222.48,-35.26 220.66,-42.02"/>
</a>
</g>
</g>
<!-- Node6&#45;&gt;Node4 -->
<g id="edge6_Node000006_Node000004" class="edge">
<title>Node6&#45;&gt;Node4</title>
<g id="a_edge6_Node000006_Node000004"><a xlink:title=" ">
<path fill="none" stroke="#63b8ff" d="M88.52,-29.13C83.26,-30.89 77.99,-32.74 73,-34.62 60.81,-39.24 47.44,-45.24 37.11,-50.08"/>
<polygon fill="#63b8ff" stroke="#63b8ff" points="89.36,-32.54 97.8,-26.13 87.2,-25.88 89.36,-32.54"/>
</a>
</g>
</g>
</g>
</svg>
