<?xml version="1.0" encoding="UTF-8" standalone="no"?>
<!DOCTYPE svg PUBLIC "-//W3C//DTD SVG 1.1//EN"
 "http://www.w3.org/Graphics/SVG/1.1/DTD/svg11.dtd">
<!-- Generated by graphviz version 12.2.1 (20241206.2353)
 -->
<!-- Title: Subsonic_Inlet_Condition Pages: 1 -->
<svg width="364pt" height="76pt"
 viewBox="0.00 0.00 364.25 75.88" xmlns="http://www.w3.org/2000/svg" xmlns:xlink="http://www.w3.org/1999/xlink">
<g id="graph0" class="graph" transform="scale(1 1) rotate(0) translate(4 71.88)">
<title>Subsonic_Inlet_Condition</title>
<!-- Node1 -->
<g id="Node000001" class="node">
<title>Node1</title>
<g id="a_Node000001"><a xlink:title=" ">
<polygon fill="#999999" stroke="#666666" points="127,-40.25 0,-40.25 0,-21 127,-21 127,-40.25"/>
<text text-anchor="middle" x="63.5" y="-26.75" font-family="Helvetica,sans-Serif" font-size="10.00">Subsonic_Inlet_Condition</text>
</a>
</g>
</g>
<!-- Node2 -->
<g id="Node000002" class="node">
<title>Node2</title>
<g id="a_Node000002"><a xlink:href="../../df/d43/_basic___functions_8cpp_a1c199e756f8458978961b4d9ab4cbe63.html#a1c199e756f8458978961b4d9ab4cbe63" target="_top" xlink:title=" ">
<polygon fill="white" stroke="#666666" points="263.75,-67.88 163,-67.88 163,-37.38 263.75,-37.38 263.75,-67.88"/>
<text text-anchor="start" x="171" y="-54.38" font-family="Helvetica,sans-Serif" font-size="10.00">Calculate_Primitive</text>
<text text-anchor="middle" x="213.38" y="-43.12" font-family="Helvetica,sans-Serif" font-size="10.00">_Variables</text>
</a>
</g>
</g>
<!-- Node1&#45;&gt;Node2 -->
<g id="edge1_Node000001_Node000002" class="edge">
<title>Node1&#45;&gt;Node2</title>
<g id="a_edge1_Node000001_Node000002"><a xlink:title=" ">
<path fill="none" stroke="#63b8ff" d="M127.21,-39.95C135.24,-41.15 143.44,-42.37 151.44,-43.56"/>
<polygon fill="#63b8ff" stroke="#63b8ff" points="150.66,-46.98 161.07,-44.99 151.69,-40.06 150.66,-46.98"/>
</a>
</g>
</g>
<!-- Node4 -->
<g id="Node000004" class="node">
<title>Node4</title>
<g id="a_Node000004"><a xlink:href="../../dc/d3a/src_2_utility___files_8cpp_aa5fe1ffca7af96bc7295ff9492f6423d.html#aa5fe1ffca7af96bc7295ff9492f6423d" target="_top" xlink:title=" ">
<polygon fill="white" stroke="#666666" points="251.38,-19.25 175.38,-19.25 175.38,0 251.38,0 251.38,-19.25"/>
<text text-anchor="middle" x="213.38" y="-5.75" font-family="Helvetica,sans-Serif" font-size="10.00">Vector_Reset</text>
</a>
</g>
</g>
<!-- Node1&#45;&gt;Node4 -->
<g id="edge3_Node000001_Node000004" class="edge">
<title>Node1&#45;&gt;Node4</title>
<g id="a_edge3_Node000001_Node000004"><a xlink:title=" ">
<path fill="none" stroke="#63b8ff" d="M127.21,-21.72C139.49,-19.98 152.2,-18.17 163.92,-16.51"/>
<polygon fill="#63b8ff" stroke="#63b8ff" points="164.37,-19.98 173.78,-15.11 163.38,-13.05 164.37,-19.98"/>
</a>
</g>
</g>
<!-- Node3 -->
<g id="Node000003" class="node">
<title>Node3</title>
<g id="a_Node000003"><a xlink:href="../../db/d81/_viscous___calculations_8cpp_ae9dc3225863fb110155bb3e9dea4e4d3.html#ae9dc3225863fb110155bb3e9dea4e4d3" target="_top" xlink:title=" ">
<polygon fill="white" stroke="#666666" points="356.25,-62.25 299.75,-62.25 299.75,-43 356.25,-43 356.25,-62.25"/>
<text text-anchor="middle" x="328" y="-48.75" font-family="Helvetica,sans-Serif" font-size="10.00">Viscosity</text>
</a>
</g>
</g>
<!-- Node2&#45;&gt;Node3 -->
<g id="edge2_Node000002_Node000003" class="edge">
<title>Node2&#45;&gt;Node3</title>
<g id="a_edge2_Node000002_Node000003"><a xlink:title=" ">
<path fill="none" stroke="#63b8ff" d="M264.1,-52.62C272.16,-52.62 280.41,-52.62 288.16,-52.62"/>
<polygon fill="#63b8ff" stroke="#63b8ff" points="287.95,-56.13 297.95,-52.63 287.95,-49.13 287.95,-56.13"/>
</a>
</g>
</g>
</g>
</svg>
