<?xml version="1.0" encoding="UTF-8" standalone="no"?>
<!DOCTYPE svg PUBLIC "-//W3C//DTD SVG 1.1//EN"
 "http://www.w3.org/Graphics/SVG/1.1/DTD/svg11.dtd">
<!-- Generated by graphviz version 12.2.1 (20241206.2353)
 -->
<!-- Title: Assemble_A_CUDA Pages: 1 -->
<svg width="611pt" height="149pt"
 viewBox="0.00 0.00 611.25 148.88" xmlns="http://www.w3.org/2000/svg" xmlns:xlink="http://www.w3.org/1999/xlink">
<g id="graph0" class="graph" transform="scale(1 1) rotate(0) translate(4 144.88)">
<title>Assemble_A_CUDA</title>
<!-- Node1 -->
<g id="Node000001" class="node">
<title>Node1</title>
<g id="a_Node000001"><a xlink:title=" ">
<polygon fill="#999999" stroke="#666666" points="106,-62.25 0,-62.25 0,-43 106,-43 106,-62.25"/>
<text text-anchor="middle" x="53" y="-48.75" font-family="Helvetica,sans-Serif" font-size="10.00">Assemble_A_CUDA</text>
</a>
</g>
</g>
<!-- Node2 -->
<g id="Node000002" class="node">
<title>Node2</title>
<g id="a_Node000002"><a xlink:href="../../d8/d45/_matrix___assembly___cuda___host___wrappers_8cpp_ae36b9e499037a7056f613566e598c326.html#ae36b9e499037a7056f613566e598c326" target="_top" xlink:title=" ">
<polygon fill="white" stroke="#666666" points="290,-62.25 142,-62.25 142,-43 290,-43 290,-62.25"/>
<text text-anchor="middle" x="216" y="-48.75" font-family="Helvetica,sans-Serif" font-size="10.00">assemble_dense_matrix_cuda</text>
</a>
</g>
</g>
<!-- Node1&#45;&gt;Node2 -->
<g id="edge1_Node000001_Node000002" class="edge">
<title>Node1&#45;&gt;Node2</title>
<g id="a_edge1_Node000001_Node000002"><a xlink:title=" ">
<path fill="none" stroke="#63b8ff" d="M106.27,-52.62C113.95,-52.62 122.02,-52.62 130.14,-52.62"/>
<polygon fill="#63b8ff" stroke="#63b8ff" points="130.13,-56.13 140.13,-52.63 130.13,-49.13 130.13,-56.13"/>
</a>
</g>
</g>
<!-- Node3 -->
<g id="Node000003" class="node">
<title>Node3</title>
<g id="a_Node000003"><a xlink:href="../../d4/d5c/_matrix___assembly___cuda___kernels_8cu_adc92f7eb452100a58cdf879a7ba463d3.html#adc92f7eb452100a58cdf879a7ba463d3" target="_top" xlink:title="CUDA kernel for assembling the dense matrix A in implicit time integration.">
<polygon fill="white" stroke="#666666" points="447.75,-116.88 326,-116.88 326,-86.38 447.75,-86.38 447.75,-116.88"/>
<text text-anchor="start" x="334" y="-103.38" font-family="Helvetica,sans-Serif" font-size="10.00">assemble_dense_matrix</text>
<text text-anchor="middle" x="386.88" y="-92.12" font-family="Helvetica,sans-Serif" font-size="10.00">_kernel</text>
</a>
</g>
</g>
<!-- Node2&#45;&gt;Node3 -->
<g id="edge2_Node000002_Node000003" class="edge">
<title>Node2&#45;&gt;Node3</title>
<g id="a_edge2_Node000002_Node000003"><a xlink:title=" ">
<path fill="none" stroke="#63b8ff" d="M251.58,-62.66C271.49,-68.44 297.16,-75.88 320.72,-82.72"/>
<polygon fill="#63b8ff" stroke="#63b8ff" points="319.69,-86.06 330.27,-85.49 321.64,-79.34 319.69,-86.06"/>
</a>
</g>
</g>
<!-- Node6 -->
<g id="Node000006" class="node">
<title>Node6</title>
<g id="a_Node000006"><a xlink:href="../../d8/d45/_matrix___assembly___cuda___host___wrappers_8cpp_a66c53bbe6c514b4d189e8151bcaf8588.html#a66c53bbe6c514b4d189e8151bcaf8588" target="_top" xlink:title=" ">
<polygon fill="white" stroke="#666666" points="436.88,-67.88 336.88,-67.88 336.88,-37.38 436.88,-37.38 436.88,-67.88"/>
<text text-anchor="start" x="344.88" y="-54.38" font-family="Helvetica,sans-Serif" font-size="10.00">get_optimal_launch</text>
<text text-anchor="middle" x="386.88" y="-43.12" font-family="Helvetica,sans-Serif" font-size="10.00">_params</text>
</a>
</g>
</g>
<!-- Node2&#45;&gt;Node6 -->
<g id="edge5_Node000002_Node000006" class="edge">
<title>Node2&#45;&gt;Node6</title>
<g id="a_edge5_Node000002_Node000006"><a xlink:title=" ">
<path fill="none" stroke="#63b8ff" d="M290.09,-52.62C301.86,-52.62 313.92,-52.62 325.35,-52.62"/>
<polygon fill="#63b8ff" stroke="#63b8ff" points="325.02,-56.13 335.02,-52.63 325.02,-49.13 325.02,-56.13"/>
</a>
</g>
</g>
<!-- Node7 -->
<g id="Node000007" class="node">
<title>Node7</title>
<g id="a_Node000007"><a xlink:href="../../d4/d5c/_matrix___assembly___cuda___kernels_8cu_ae09fbc063001e1803f8ebdd07209f235.html#ae09fbc063001e1803f8ebdd07209f235" target="_top" xlink:title=" ">
<polygon fill="white" stroke="#666666" points="444.38,-19.25 329.38,-19.25 329.38,0 444.38,0 444.38,-19.25"/>
<text text-anchor="middle" x="386.88" y="-5.75" font-family="Helvetica,sans-Serif" font-size="10.00">initialize_matrix_kernel</text>
</a>
</g>
</g>
<!-- Node2&#45;&gt;Node7 -->
<g id="edge6_Node000002_Node000007" class="edge">
<title>Node2&#45;&gt;Node7</title>
<g id="a_edge6_Node000002_Node000007"><a xlink:title=" ">
<path fill="none" stroke="#63b8ff" d="M256.59,-42.54C280.12,-36.55 310.18,-28.9 335.4,-22.48"/>
<polygon fill="#63b8ff" stroke="#63b8ff" points="335.94,-25.95 344.77,-20.09 334.22,-19.17 335.94,-25.95"/>
</a>
</g>
</g>
<!-- Node4 -->
<g id="Node000004" class="node">
<title>Node4</title>
<g id="a_Node000004"><a xlink:href="../../d4/d5c/_matrix___assembly___cuda___kernels_8cu_ad8a42e26c146b5b212f99e3af395c6d3.html#ad8a42e26c146b5b212f99e3af395c6d3" target="_top" xlink:title=" ">
<polygon fill="white" stroke="#666666" points="603.25,-140.88 483.75,-140.88 483.75,-110.38 603.25,-110.38 603.25,-140.88"/>
<text text-anchor="start" x="491.75" y="-127.38" font-family="Helvetica,sans-Serif" font-size="10.00">add_matrix_contribution</text>
<text text-anchor="middle" x="543.5" y="-116.12" font-family="Helvetica,sans-Serif" font-size="10.00">_atomic</text>
</a>
</g>
</g>
<!-- Node3&#45;&gt;Node4 -->
<g id="edge3_Node000003_Node000004" class="edge">
<title>Node3&#45;&gt;Node4</title>
<g id="a_edge3_Node000003_Node000004"><a xlink:title=" ">
<path fill="none" stroke="#63b8ff" d="M448.1,-110.97C456,-112.2 464.14,-113.46 472.19,-114.71"/>
<polygon fill="#63b8ff" stroke="#63b8ff" points="471.54,-118.15 481.96,-116.23 472.61,-111.24 471.54,-118.15"/>
</a>
</g>
</g>
<!-- Node5 -->
<g id="Node000005" class="node">
<title>Node5</title>
<g id="a_Node000005"><a xlink:href="../../d4/d5c/_matrix___assembly___cuda___kernels_8cu_a746da81d996037720504d4a2a923c4a6.html#a746da81d996037720504d4a2a923c4a6" target="_top" xlink:title="Device function to compute flux Jacobian matrix for Euler equations.">
<polygon fill="white" stroke="#666666" points="601.38,-91.88 485.62,-91.88 485.62,-61.38 601.38,-61.38 601.38,-91.88"/>
<text text-anchor="start" x="493.62" y="-78.38" font-family="Helvetica,sans-Serif" font-size="10.00">compute_flux_jacobian</text>
<text text-anchor="middle" x="543.5" y="-67.12" font-family="Helvetica,sans-Serif" font-size="10.00">_device</text>
</a>
</g>
</g>
<!-- Node3&#45;&gt;Node5 -->
<g id="edge4_Node000003_Node000005" class="edge">
<title>Node3&#45;&gt;Node5</title>
<g id="a_edge4_Node000003_Node000005"><a xlink:title=" ">
<path fill="none" stroke="#63b8ff" d="M448.1,-91.89C456.59,-90.52 465.37,-89.1 474,-87.7"/>
<polygon fill="#63b8ff" stroke="#63b8ff" points="474.42,-91.18 483.73,-86.13 473.3,-84.27 474.42,-91.18"/>
</a>
</g>
</g>
</g>
</svg>
