<?xml version="1.0" encoding="UTF-8" standalone="no"?>
<!DOCTYPE svg PUBLIC "-//W3C//DTD SVG 1.1//EN"
 "http://www.w3.org/Graphics/SVG/1.1/DTD/svg11.dtd">
<!-- Generated by graphviz version 12.2.1 (20241206.2353)
 -->
<!-- Title: Assemble_A1_CUDA Pages: 1 -->
<svg width="617pt" height="113pt"
 viewBox="0.00 0.00 616.75 112.88" xmlns="http://www.w3.org/2000/svg" xmlns:xlink="http://www.w3.org/1999/xlink">
<g id="graph0" class="graph" transform="scale(1 1) rotate(0) translate(4 108.88)">
<title>Assemble_A1_CUDA</title>
<!-- Node1 -->
<g id="Node000001" class="node">
<title>Node1</title>
<g id="a_Node000001"><a xlink:title=" ">
<polygon fill="#999999" stroke="#666666" points="608.75,-77.25 497.5,-77.25 497.5,-58 608.75,-58 608.75,-77.25"/>
<text text-anchor="middle" x="553.12" y="-63.75" font-family="Helvetica,sans-Serif" font-size="10.00">Assemble_A1_CUDA</text>
</a>
</g>
</g>
<!-- Node2 -->
<g id="Node000002" class="node">
<title>Node2</title>
<g id="a_Node000002"><a xlink:href="$d5/d81/_matrix___assembly___c_u_d_a___integration___example_8cpp_a5c8a4e884792f59235b7ed2070521d14.html#a5c8a4e884792f59235b7ed2070521d14" xlink:title=" ">
<polygon fill="white" stroke="#666666" points="461.5,-104.88 330.75,-104.88 330.75,-74.38 461.5,-74.38 461.5,-104.88"/>
<text text-anchor="start" x="338.75" y="-91.38" font-family="Helvetica,sans-Serif" font-size="10.00">benchmark_sparse_matrix</text>
<text text-anchor="middle" x="396.12" y="-80.12" font-family="Helvetica,sans-Serif" font-size="10.00">_assembly</text>
</a>
</g>
</g>
<!-- Node1&#45;&gt;Node2 -->
<g id="edge1_Node000001_Node000002" class="edge">
<title>Node1&#45;&gt;Node2</title>
<g id="a_edge1_Node000001_Node000002"><a xlink:title=" ">
<path fill="none" stroke="#63b8ff" d="M485.91,-77.02C477.93,-78.16 469.79,-79.31 461.83,-80.44"/>
<polygon fill="#63b8ff" stroke="#63b8ff" points="486.13,-80.53 495.54,-75.66 485.15,-73.6 486.13,-80.53"/>
</a>
</g>
</g>
<!-- Node4 -->
<g id="Node000004" class="node">
<title>Node4</title>
<g id="a_Node000004"><a xlink:href="$d0/d64/_numerical___method_8cpp_aa2c3379901e623826515d4c9cd96cebe.html#aa2c3379901e623826515d4c9cd96cebe" xlink:title=" ">
<polygon fill="white" stroke="#666666" points="438.62,-56.25 353.62,-56.25 353.62,-37 438.62,-37 438.62,-56.25"/>
<text text-anchor="middle" x="396.12" y="-42.75" font-family="Helvetica,sans-Serif" font-size="10.00">Implicit_Method</text>
</a>
</g>
</g>
<!-- Node1&#45;&gt;Node4 -->
<g id="edge3_Node000001_Node000004" class="edge">
<title>Node1&#45;&gt;Node4</title>
<g id="a_edge3_Node000001_Node000004"><a xlink:title=" ">
<path fill="none" stroke="#63b8ff" d="M485.64,-58.62C469.76,-56.47 453.27,-54.23 438.87,-52.28"/>
<polygon fill="#63b8ff" stroke="#63b8ff" points="485.16,-62.08 495.54,-59.96 486.1,-55.15 485.16,-62.08"/>
</a>
</g>
</g>
<!-- Node3 -->
<g id="Node000003" class="node">
<title>Node3</title>
<g id="a_Node000003"><a xlink:href="$d5/d81/_matrix___assembly___c_u_d_a___integration___example_8cpp_a040fa30a7d9a31fc77785e00a27f6fa6.html#a040fa30a7d9a31fc77785e00a27f6fa6" xlink:title=" ">
<polygon fill="white" stroke="#666666" points="294.75,-104.88 166.25,-104.88 166.25,-74.38 294.75,-74.38 294.75,-104.88"/>
<text text-anchor="start" x="174.25" y="-91.38" font-family="Helvetica,sans-Serif" font-size="10.00">demonstrate_cuda_matrix</text>
<text text-anchor="middle" x="230.5" y="-80.12" font-family="Helvetica,sans-Serif" font-size="10.00">_assembly</text>
</a>
</g>
</g>
<!-- Node2&#45;&gt;Node3 -->
<g id="edge2_Node000002_Node000003" class="edge">
<title>Node2&#45;&gt;Node3</title>
<g id="a_edge2_Node000002_Node000003"><a xlink:title=" ">
<path fill="none" stroke="#63b8ff" d="M319.18,-89.62C311.15,-89.62 303.04,-89.62 295.16,-89.62"/>
<polygon fill="#63b8ff" stroke="#63b8ff" points="318.94,-93.13 328.94,-89.63 318.94,-86.13 318.94,-93.13"/>
</a>
</g>
</g>
<!-- Node5 -->
<g id="Node000005" class="node">
<title>Node5</title>
<g id="a_Node000005"><a xlink:href="$de/df0/_solver_8cpp_a09703a294b5a4e270033b2d488f8f02a.html#a09703a294b5a4e270033b2d488f8f02a" xlink:title=" ">
<polygon fill="white" stroke="#666666" points="271.88,-56.25 189.12,-56.25 189.12,-37 271.88,-37 271.88,-56.25"/>
<text text-anchor="middle" x="230.5" y="-42.75" font-family="Helvetica,sans-Serif" font-size="10.00">Inviscid_Solver</text>
</a>
</g>
</g>
<!-- Node4&#45;&gt;Node5 -->
<g id="edge4_Node000004_Node000005" class="edge">
<title>Node4&#45;&gt;Node5</title>
<g id="a_edge4_Node000004_Node000005"><a xlink:title=" ">
<path fill="none" stroke="#63b8ff" d="M341.93,-46.62C319.31,-46.62 293.35,-46.62 272.29,-46.62"/>
<polygon fill="#63b8ff" stroke="#63b8ff" points="341.9,-50.13 351.9,-46.63 341.9,-43.13 341.9,-50.13"/>
</a>
</g>
</g>
<!-- Node8 -->
<g id="Node000008" class="node">
<title>Node8</title>
<g id="a_Node000008"><a xlink:href="$de/df0/_solver_8cpp_a313c308da18b517cb3cf0384db6d4d7e.html#a313c308da18b517cb3cf0384db6d4d7e" xlink:title=" ">
<polygon fill="white" stroke="#666666" points="272.62,-19.25 188.38,-19.25 188.38,0 272.62,0 272.62,-19.25"/>
<text text-anchor="middle" x="230.5" y="-5.75" font-family="Helvetica,sans-Serif" font-size="10.00">Viscous_Solver</text>
</a>
</g>
</g>
<!-- Node4&#45;&gt;Node8 -->
<g id="edge7_Node000004_Node000008" class="edge">
<title>Node4&#45;&gt;Node8</title>
<g id="a_edge7_Node000004_Node000008"><a xlink:title=" ">
<path fill="none" stroke="#63b8ff" d="M342.33,-34.69C319.82,-29.6 293.94,-23.74 272.85,-18.98"/>
<polygon fill="#63b8ff" stroke="#63b8ff" points="341.41,-38.07 351.94,-36.86 342.95,-31.24 341.41,-38.07"/>
</a>
</g>
</g>
<!-- Node6 -->
<g id="Node000006" class="node">
<title>Node6</title>
<g id="a_Node000006"><a xlink:href="$d5/d12/_main_8cpp_afed4dca88e059a8cbd2c7af524468fe5.html#afed4dca88e059a8cbd2c7af524468fe5" xlink:title="Executes the appropriate solver based on the simulation configuration.">
<polygon fill="white" stroke="#666666" points="130.25,-37.25 73,-37.25 73,-18 130.25,-18 130.25,-37.25"/>
<text text-anchor="middle" x="101.62" y="-23.75" font-family="Helvetica,sans-Serif" font-size="10.00">runSolver</text>
</a>
</g>
</g>
<!-- Node5&#45;&gt;Node6 -->
<g id="edge5_Node000005_Node000006" class="edge">
<title>Node5&#45;&gt;Node6</title>
<g id="a_edge5_Node000005_Node000006"><a xlink:title=" ">
<path fill="none" stroke="#63b8ff" d="M177.71,-38.87C161.57,-36.45 144.4,-33.88 130.55,-31.81"/>
<polygon fill="#63b8ff" stroke="#63b8ff" points="176.75,-42.26 187.16,-40.28 177.79,-35.34 176.75,-42.26"/>
</a>
</g>
</g>
<!-- Node7 -->
<g id="Node000007" class="node">
<title>Node7</title>
<g id="a_Node000007"><a xlink:href="$d5/d12/_main_8cpp_a0ddf1224851353fc92bfbff6f499fa97.html#a0ddf1224851353fc92bfbff6f499fa97" xlink:title=" ">
<polygon fill="white" stroke="#666666" points="37,-37.25 0,-37.25 0,-18 37,-18 37,-37.25"/>
<text text-anchor="middle" x="18.5" y="-23.75" font-family="Helvetica,sans-Serif" font-size="10.00">main</text>
</a>
</g>
</g>
<!-- Node6&#45;&gt;Node7 -->
<g id="edge6_Node000006_Node000007" class="edge">
<title>Node6&#45;&gt;Node7</title>
<g id="a_edge6_Node000006_Node000007"><a xlink:title=" ">
<path fill="none" stroke="#63b8ff" d="M61.38,-27.62C52.95,-27.62 44.43,-27.62 37.3,-27.62"/>
<polygon fill="#63b8ff" stroke="#63b8ff" points="61.19,-31.13 71.19,-27.63 61.19,-24.13 61.19,-31.13"/>
</a>
</g>
</g>
<!-- Node8&#45;&gt;Node6 -->
<g id="edge8_Node000008_Node000006" class="edge">
<title>Node8&#45;&gt;Node6</title>
<g id="a_edge8_Node000008_Node000006"><a xlink:title=" ">
<path fill="none" stroke="#63b8ff" d="M176.67,-17.12C160.87,-19.36 144.17,-21.73 130.64,-23.65"/>
<polygon fill="#63b8ff" stroke="#63b8ff" points="177.05,-20.6 186.46,-15.73 176.07,-13.67 177.05,-20.6"/>
</a>
</g>
</g>
</g>
</svg>
