<?xml version="1.0" encoding="UTF-8" standalone="no"?>
<!DOCTYPE svg PUBLIC "-//W3C//DTD SVG 1.1//EN"
 "http://www.w3.org/Graphics/SVG/1.1/DTD/svg11.dtd">
<!-- Generated by graphviz version 12.2.1 (20241206.2353)
 -->
<!-- Title: benchmark_matrix_assembly_cpu_vs_cuda Pages: 1 -->
<svg width="818pt" height="162pt"
 viewBox="0.00 0.00 817.75 162.25" xmlns="http://www.w3.org/2000/svg" xmlns:xlink="http://www.w3.org/1999/xlink">
<g id="graph0" class="graph" transform="scale(1 1) rotate(0) translate(4 158.25)">
<title>benchmark_matrix_assembly_cpu_vs_cuda</title>
<!-- Node1 -->
<g id="Node000001" class="node">
<title>Node1</title>
<g id="a_Node000001"><a xlink:title=" ">
<polygon fill="#999999" stroke="#666666" points="143.5,-75.88 0,-75.88 0,-45.38 143.5,-45.38 143.5,-75.88"/>
<text text-anchor="start" x="8" y="-62.38" font-family="Helvetica,sans-Serif" font-size="10.00">benchmark_matrix_assembly</text>
<text text-anchor="middle" x="71.75" y="-51.12" font-family="Helvetica,sans-Serif" font-size="10.00">_cpu_vs_cuda</text>
</a>
</g>
</g>
<!-- Node2 -->
<g id="Node000002" class="node">
<title>Node2</title>
<g id="a_Node000002"><a xlink:href="../../db/dbe/_assemble___matrix_8cpp_ad90382595c8b02e815e463639d84baa7.html#ad90382595c8b02e815e463639d84baa7" target="_top" xlink:title=" ">
<polygon fill="white" stroke="#666666" points="281.75,-111.25 210.25,-111.25 210.25,-92 281.75,-92 281.75,-111.25"/>
<text text-anchor="middle" x="246" y="-97.75" font-family="Helvetica,sans-Serif" font-size="10.00">Assemble_A</text>
</a>
</g>
</g>
<!-- Node1&#45;&gt;Node2 -->
<g id="edge1_Node000001_Node000002" class="edge">
<title>Node1&#45;&gt;Node2</title>
<g id="a_edge1_Node000001_Node000002"><a xlink:title=" ">
<path fill="none" stroke="#63b8ff" d="M138.85,-76.36C158.97,-81.15 180.62,-86.3 199.09,-90.7"/>
<polygon fill="#63b8ff" stroke="#63b8ff" points="198.13,-94.07 208.67,-92.98 199.75,-87.26 198.13,-94.07"/>
</a>
</g>
</g>
<!-- Node6 -->
<g id="Node000006" class="node">
<title>Node6</title>
<g id="a_Node000006"><a xlink:href="../../d5/d81/_matrix___assembly___c_u_d_a___integration___example_8cpp_a34bf8e95732246ba8ece5c8405115be9.html#a34bf8e95732246ba8ece5c8405115be9" target="_top" xlink:title=" ">
<polygon fill="white" stroke="#666666" points="299,-70.25 193,-70.25 193,-51 299,-51 299,-70.25"/>
<text text-anchor="middle" x="246" y="-56.75" font-family="Helvetica,sans-Serif" font-size="10.00">Assemble_A_CUDA</text>
</a>
</g>
</g>
<!-- Node1&#45;&gt;Node6 -->
<g id="edge6_Node000001_Node000006" class="edge">
<title>Node1&#45;&gt;Node6</title>
<g id="a_edge6_Node000001_Node000006"><a xlink:title=" ">
<path fill="none" stroke="#63b8ff" d="M143.81,-60.62C156.17,-60.62 168.95,-60.62 181.11,-60.62"/>
<polygon fill="#63b8ff" stroke="#63b8ff" points="181.02,-64.13 191.02,-60.63 181.02,-57.13 181.02,-64.13"/>
</a>
</g>
</g>
<!-- Node13 -->
<g id="Node000013" class="node">
<title>Node13</title>
<g id="a_Node000013"><a xlink:href="../../d8/d45/_matrix___assembly___cuda___host___wrappers_8cpp_ab2109c5df561bbfbff9bce0cc02aceb7.html#ab2109c5df561bbfbff9bce0cc02aceb7" target="_top" xlink:title=" ">
<polygon fill="white" stroke="#666666" points="312.5,-32.88 179.5,-32.88 179.5,-2.37 312.5,-2.37 312.5,-32.88"/>
<text text-anchor="start" x="187.5" y="-19.38" font-family="Helvetica,sans-Serif" font-size="10.00">estimate_matrix_assembly</text>
<text text-anchor="middle" x="246" y="-8.12" font-family="Helvetica,sans-Serif" font-size="10.00">_memory_usage</text>
</a>
</g>
</g>
<!-- Node1&#45;&gt;Node13 -->
<g id="edge13_Node000001_Node000013" class="edge">
<title>Node1&#45;&gt;Node13</title>
<g id="a_edge13_Node000001_Node000013"><a xlink:title=" ">
<path fill="none" stroke="#63b8ff" d="M135.42,-44.98C147.06,-42.07 159.31,-39.02 171.25,-36.04"/>
<polygon fill="#63b8ff" stroke="#63b8ff" points="171.76,-39.52 180.62,-33.7 170.07,-32.72 171.76,-39.52"/>
</a>
</g>
</g>
<!-- Node3 -->
<g id="Node000003" class="node">
<title>Node3</title>
<g id="a_Node000003"><a xlink:href="../../d6/da5/_flux___jacobian_8cpp_afbbefa55a3532b90c1fa3d4740a0b8d3.html#afbbefa55a3532b90c1fa3d4740a0b8d3" target="_top" xlink:title=" ">
<polygon fill="white" stroke="#666666" points="484.5,-154.25 360.5,-154.25 360.5,-135 484.5,-135 484.5,-154.25"/>
<text text-anchor="middle" x="422.5" y="-140.75" font-family="Helvetica,sans-Serif" font-size="10.00">Compute_Flux_Jacobian</text>
</a>
</g>
</g>
<!-- Node2&#45;&gt;Node3 -->
<g id="edge2_Node000002_Node000003" class="edge">
<title>Node2&#45;&gt;Node3</title>
<g id="a_edge2_Node000002_Node000003"><a xlink:title=" ">
<path fill="none" stroke="#63b8ff" d="M281.89,-110.22C307.01,-116.41 341.3,-124.86 369.61,-131.84"/>
<polygon fill="#63b8ff" stroke="#63b8ff" points="368.52,-135.17 379.07,-134.17 370.2,-128.38 368.52,-135.17"/>
</a>
</g>
</g>
<!-- Node5 -->
<g id="Node000005" class="node">
<title>Node5</title>
<g id="a_Node000005"><a xlink:href="../../d6/da5/_flux___jacobian_8cpp_aacc73d4767c573d4db61bbf2e502d331.html#aacc73d4767c573d4db61bbf2e502d331" target="_top" xlink:title=" ">
<polygon fill="white" stroke="#666666" points="484.12,-116.88 360.88,-116.88 360.88,-86.38 484.12,-86.38 484.12,-116.88"/>
<text text-anchor="start" x="368.88" y="-103.38" font-family="Helvetica,sans-Serif" font-size="10.00">ComputeGhostCell_Flux</text>
<text text-anchor="middle" x="422.5" y="-92.12" font-family="Helvetica,sans-Serif" font-size="10.00">_Jacobian</text>
</a>
</g>
</g>
<!-- Node2&#45;&gt;Node5 -->
<g id="edge4_Node000002_Node000005" class="edge">
<title>Node2&#45;&gt;Node5</title>
<g id="a_edge4_Node000002_Node000005"><a xlink:title=" ">
<path fill="none" stroke="#63b8ff" d="M281.89,-101.62C301.21,-101.62 325.96,-101.62 349.24,-101.62"/>
<polygon fill="#63b8ff" stroke="#63b8ff" points="349.01,-105.13 359.01,-101.63 349.01,-98.13 349.01,-105.13"/>
</a>
</g>
</g>
<!-- Node4 -->
<g id="Node000004" class="node">
<title>Node4</title>
<g id="a_Node000004"><a xlink:href="../../dc/d3a/src_2_utility___files_8cpp_aa5fe1ffca7af96bc7295ff9492f6423d.html#aa5fe1ffca7af96bc7295ff9492f6423d" target="_top" xlink:title=" ">
<polygon fill="white" stroke="#666666" points="631.38,-154.25 555.38,-154.25 555.38,-135 631.38,-135 631.38,-154.25"/>
<text text-anchor="middle" x="593.38" y="-140.75" font-family="Helvetica,sans-Serif" font-size="10.00">Vector_Reset</text>
</a>
</g>
</g>
<!-- Node3&#45;&gt;Node4 -->
<g id="edge3_Node000003_Node000004" class="edge">
<title>Node3&#45;&gt;Node4</title>
<g id="a_edge3_Node000003_Node000004"><a xlink:title=" ">
<path fill="none" stroke="#63b8ff" d="M484.95,-144.62C504.38,-144.62 525.57,-144.62 543.96,-144.62"/>
<polygon fill="#63b8ff" stroke="#63b8ff" points="543.78,-148.13 553.78,-144.63 543.78,-141.13 543.78,-148.13"/>
</a>
</g>
</g>
<!-- Node5&#45;&gt;Node4 -->
<g id="edge5_Node000005_Node000004" class="edge">
<title>Node5&#45;&gt;Node4</title>
<g id="a_edge5_Node000005_Node000004"><a xlink:title=" ">
<path fill="none" stroke="#63b8ff" d="M484.47,-117.15C504.03,-122.13 525.41,-127.57 543.95,-132.29"/>
<polygon fill="#63b8ff" stroke="#63b8ff" points="543.06,-135.68 553.61,-134.76 544.79,-128.9 543.06,-135.68"/>
</a>
</g>
</g>
<!-- Node7 -->
<g id="Node000007" class="node">
<title>Node7</title>
<g id="a_Node000007"><a xlink:href="../../d8/d45/_matrix___assembly___cuda___host___wrappers_8cpp_ae36b9e499037a7056f613566e598c326.html#ae36b9e499037a7056f613566e598c326" target="_top" xlink:title=" ">
<polygon fill="white" stroke="#666666" points="496.5,-65.25 348.5,-65.25 348.5,-46 496.5,-46 496.5,-65.25"/>
<text text-anchor="middle" x="422.5" y="-51.75" font-family="Helvetica,sans-Serif" font-size="10.00">assemble_dense_matrix_cuda</text>
</a>
</g>
</g>
<!-- Node6&#45;&gt;Node7 -->
<g id="edge7_Node000006_Node000007" class="edge">
<title>Node6&#45;&gt;Node7</title>
<g id="a_edge7_Node000006_Node000007"><a xlink:title=" ">
<path fill="none" stroke="#63b8ff" d="M299.36,-59.12C311.24,-58.78 324.15,-58.41 336.98,-58.05"/>
<polygon fill="#63b8ff" stroke="#63b8ff" points="336.8,-61.55 346.7,-57.77 336.6,-54.56 336.8,-61.55"/>
</a>
</g>
</g>
<!-- Node8 -->
<g id="Node000008" class="node">
<title>Node8</title>
<g id="a_Node000008"><a xlink:href="../../d4/d5c/_matrix___assembly___cuda___kernels_8cu_adc92f7eb452100a58cdf879a7ba463d3.html#adc92f7eb452100a58cdf879a7ba463d3" target="_top" xlink:title="CUDA kernel for assembling the dense matrix A in implicit time integration.">
<polygon fill="white" stroke="#666666" points="654.25,-116.88 532.5,-116.88 532.5,-86.38 654.25,-86.38 654.25,-116.88"/>
<text text-anchor="start" x="540.5" y="-103.38" font-family="Helvetica,sans-Serif" font-size="10.00">assemble_dense_matrix</text>
<text text-anchor="middle" x="593.38" y="-92.12" font-family="Helvetica,sans-Serif" font-size="10.00">_kernel</text>
</a>
</g>
</g>
<!-- Node7&#45;&gt;Node8 -->
<g id="edge8_Node000007_Node000008" class="edge">
<title>Node7&#45;&gt;Node8</title>
<g id="a_edge8_Node000007_Node000008"><a xlink:title=" ">
<path fill="none" stroke="#63b8ff" d="M460.56,-65.72C479.17,-70.79 502.31,-77.09 523.99,-83"/>
<polygon fill="#63b8ff" stroke="#63b8ff" points="522.79,-86.3 533.36,-85.55 524.63,-79.54 522.79,-86.3"/>
</a>
</g>
</g>
<!-- Node11 -->
<g id="Node000011" class="node">
<title>Node11</title>
<g id="a_Node000011"><a xlink:href="../../d8/d45/_matrix___assembly___cuda___host___wrappers_8cpp_a66c53bbe6c514b4d189e8151bcaf8588.html#a66c53bbe6c514b4d189e8151bcaf8588" target="_top" xlink:title=" ">
<polygon fill="white" stroke="#666666" points="643.38,-67.88 543.38,-67.88 543.38,-37.38 643.38,-37.38 643.38,-67.88"/>
<text text-anchor="start" x="551.38" y="-54.38" font-family="Helvetica,sans-Serif" font-size="10.00">get_optimal_launch</text>
<text text-anchor="middle" x="593.38" y="-43.12" font-family="Helvetica,sans-Serif" font-size="10.00">_params</text>
</a>
</g>
</g>
<!-- Node7&#45;&gt;Node11 -->
<g id="edge11_Node000007_Node000011" class="edge">
<title>Node7&#45;&gt;Node11</title>
<g id="a_edge11_Node000007_Node000011"><a xlink:title=" ">
<path fill="none" stroke="#63b8ff" d="M496.59,-54.33C508.36,-54.12 520.42,-53.9 531.85,-53.7"/>
<polygon fill="#63b8ff" stroke="#63b8ff" points="531.58,-57.21 541.52,-53.53 531.46,-50.21 531.58,-57.21"/>
</a>
</g>
</g>
<!-- Node12 -->
<g id="Node000012" class="node">
<title>Node12</title>
<g id="a_Node000012"><a xlink:href="../../d4/d5c/_matrix___assembly___cuda___kernels_8cu_ae09fbc063001e1803f8ebdd07209f235.html#ae09fbc063001e1803f8ebdd07209f235" target="_top" xlink:title=" ">
<polygon fill="white" stroke="#666666" points="650.88,-19.25 535.88,-19.25 535.88,0 650.88,0 650.88,-19.25"/>
<text text-anchor="middle" x="593.38" y="-5.75" font-family="Helvetica,sans-Serif" font-size="10.00">initialize_matrix_kernel</text>
</a>
</g>
</g>
<!-- Node7&#45;&gt;Node12 -->
<g id="edge12_Node000007_Node000012" class="edge">
<title>Node7&#45;&gt;Node12</title>
<g id="a_edge12_Node000007_Node000012"><a xlink:title=" ">
<path fill="none" stroke="#63b8ff" d="M460.56,-45.53C485.2,-38.82 517.79,-29.94 544.4,-22.69"/>
<polygon fill="#63b8ff" stroke="#63b8ff" points="545.21,-26.1 553.94,-20.09 543.37,-19.35 545.21,-26.1"/>
</a>
</g>
</g>
<!-- Node9 -->
<g id="Node000009" class="node">
<title>Node9</title>
<g id="a_Node000009"><a xlink:href="../../d4/d5c/_matrix___assembly___cuda___kernels_8cu_ad8a42e26c146b5b212f99e3af395c6d3.html#ad8a42e26c146b5b212f99e3af395c6d3" target="_top" xlink:title=" ">
<polygon fill="white" stroke="#666666" points="809.75,-140.88 690.25,-140.88 690.25,-110.38 809.75,-110.38 809.75,-140.88"/>
<text text-anchor="start" x="698.25" y="-127.38" font-family="Helvetica,sans-Serif" font-size="10.00">add_matrix_contribution</text>
<text text-anchor="middle" x="750" y="-116.12" font-family="Helvetica,sans-Serif" font-size="10.00">_atomic</text>
</a>
</g>
</g>
<!-- Node8&#45;&gt;Node9 -->
<g id="edge9_Node000008_Node000009" class="edge">
<title>Node8&#45;&gt;Node9</title>
<g id="a_edge9_Node000008_Node000009"><a xlink:title=" ">
<path fill="none" stroke="#63b8ff" d="M654.6,-110.97C662.5,-112.2 670.64,-113.46 678.69,-114.71"/>
<polygon fill="#63b8ff" stroke="#63b8ff" points="678.04,-118.15 688.46,-116.23 679.11,-111.24 678.04,-118.15"/>
</a>
</g>
</g>
<!-- Node10 -->
<g id="Node000010" class="node">
<title>Node10</title>
<g id="a_Node000010"><a xlink:href="../../d4/d5c/_matrix___assembly___cuda___kernels_8cu_a746da81d996037720504d4a2a923c4a6.html#a746da81d996037720504d4a2a923c4a6" target="_top" xlink:title="Device function to compute flux Jacobian matrix for Euler equations.">
<polygon fill="white" stroke="#666666" points="807.88,-91.88 692.12,-91.88 692.12,-61.38 807.88,-61.38 807.88,-91.88"/>
<text text-anchor="start" x="700.12" y="-78.38" font-family="Helvetica,sans-Serif" font-size="10.00">compute_flux_jacobian</text>
<text text-anchor="middle" x="750" y="-67.12" font-family="Helvetica,sans-Serif" font-size="10.00">_device</text>
</a>
</g>
</g>
<!-- Node8&#45;&gt;Node10 -->
<g id="edge10_Node000008_Node000010" class="edge">
<title>Node8&#45;&gt;Node10</title>
<g id="a_edge10_Node000008_Node000010"><a xlink:title=" ">
<path fill="none" stroke="#63b8ff" d="M654.6,-91.89C663.09,-90.52 671.87,-89.1 680.5,-87.7"/>
<polygon fill="#63b8ff" stroke="#63b8ff" points="680.92,-91.18 690.23,-86.13 679.8,-84.27 680.92,-91.18"/>
</a>
</g>
</g>
</g>
</svg>
