<?xml version="1.0" encoding="UTF-8" standalone="no"?>
<!DOCTYPE svg PUBLIC "-//W3C//DTD SVG 1.1//EN"
 "http://www.w3.org/Graphics/SVG/1.1/DTD/svg11.dtd">
<!-- Generated by graphviz version 12.2.1 (20241206.2353)
 -->
<!-- Title: demonstrate_cuda_matrix_assembly Pages: 1 -->
<svg width="1007pt" height="297pt"
 viewBox="0.00 0.00 1007.00 296.88" xmlns="http://www.w3.org/2000/svg" xmlns:xlink="http://www.w3.org/1999/xlink">
<g id="graph0" class="graph" transform="scale(1 1) rotate(0) translate(4 292.88)">
<title>demonstrate_cuda_matrix_assembly</title>
<!-- Node1 -->
<g id="Node000001" class="node">
<title>Node1</title>
<g id="a_Node000001"><a xlink:title=" ">
<polygon fill="#999999" stroke="#666666" points="128.5,-139.88 0,-139.88 0,-109.38 128.5,-109.38 128.5,-139.88"/>
<text text-anchor="start" x="8" y="-126.38" font-family="Helvetica,sans-Serif" font-size="10.00">demonstrate_cuda_matrix</text>
<text text-anchor="middle" x="64.25" y="-115.12" font-family="Helvetica,sans-Serif" font-size="10.00">_assembly</text>
</a>
</g>
</g>
<!-- Node2 -->
<g id="Node000002" class="node">
<title>Node2</title>
<g id="a_Node000002"><a xlink:href="../../d5/d81/_matrix___assembly___c_u_d_a___integration___example_8cpp_ab733b6db749fdfbc6665f7e34b50e5ad.html#ab733b6db749fdfbc6665f7e34b50e5ad" target="_top" xlink:title=" ">
<polygon fill="white" stroke="#666666" points="313.62,-139.88 170.12,-139.88 170.12,-109.38 313.62,-109.38 313.62,-139.88"/>
<text text-anchor="start" x="178.12" y="-126.38" font-family="Helvetica,sans-Serif" font-size="10.00">benchmark_matrix_assembly</text>
<text text-anchor="middle" x="241.88" y="-115.12" font-family="Helvetica,sans-Serif" font-size="10.00">_cpu_vs_cuda</text>
</a>
</g>
</g>
<!-- Node1&#45;&gt;Node2 -->
<g id="edge1_Node000001_Node000002" class="edge">
<title>Node1&#45;&gt;Node2</title>
<g id="a_edge1_Node000001_Node000002"><a xlink:title=" ">
<path fill="none" stroke="#63b8ff" d="M128.65,-124.62C138.36,-124.62 148.5,-124.62 158.55,-124.62"/>
<polygon fill="#63b8ff" stroke="#63b8ff" points="158.31,-128.13 168.31,-124.63 158.31,-121.13 158.31,-128.13"/>
</a>
</g>
</g>
<!-- Node14 -->
<g id="Node000014" class="node">
<title>Node14</title>
<g id="a_Node000014"><a xlink:href="../../d8/d45/_matrix___assembly___cuda___host___wrappers_8cpp_ab2109c5df561bbfbff9bce0cc02aceb7.html#ab2109c5df561bbfbff9bce0cc02aceb7" target="_top" xlink:title=" ">
<polygon fill="white" stroke="#666666" points="488.25,-182.88 355.25,-182.88 355.25,-152.38 488.25,-152.38 488.25,-182.88"/>
<text text-anchor="start" x="363.25" y="-169.38" font-family="Helvetica,sans-Serif" font-size="10.00">estimate_matrix_assembly</text>
<text text-anchor="middle" x="421.75" y="-158.12" font-family="Helvetica,sans-Serif" font-size="10.00">_memory_usage</text>
</a>
</g>
</g>
<!-- Node1&#45;&gt;Node14 -->
<g id="edge25_Node000001_Node000014" class="edge">
<title>Node1&#45;&gt;Node14</title>
<g id="a_edge25_Node000001_Node000014"><a xlink:title=" ">
<path fill="none" stroke="#63b8ff" d="M123.19,-140.31C136.66,-143.49 151.01,-146.51 164.5,-148.62 224.22,-157.99 292.51,-162.77 343.57,-165.19"/>
<polygon fill="#63b8ff" stroke="#63b8ff" points="343.19,-168.67 353.33,-165.63 343.5,-161.68 343.19,-168.67"/>
</a>
</g>
</g>
<!-- Node15 -->
<g id="Node000015" class="node">
<title>Node15</title>
<g id="a_Node000015"><a xlink:href="../../d5/d81/_matrix___assembly___c_u_d_a___integration___example_8cpp_a5c8a4e884792f59235b7ed2070521d14.html#a5c8a4e884792f59235b7ed2070521d14" target="_top" xlink:title=" ">
<polygon fill="white" stroke="#666666" points="307.25,-225.88 176.5,-225.88 176.5,-195.38 307.25,-195.38 307.25,-225.88"/>
<text text-anchor="start" x="184.5" y="-212.38" font-family="Helvetica,sans-Serif" font-size="10.00">benchmark_sparse_matrix</text>
<text text-anchor="middle" x="241.88" y="-201.12" font-family="Helvetica,sans-Serif" font-size="10.00">_assembly</text>
</a>
</g>
</g>
<!-- Node1&#45;&gt;Node15 -->
<g id="edge15_Node000001_Node000015" class="edge">
<title>Node1&#45;&gt;Node15</title>
<g id="a_edge15_Node000001_Node000015"><a xlink:title=" ">
<path fill="none" stroke="#63b8ff" d="M89.95,-140.28C109.68,-152.42 138.28,-169.21 164.5,-181.62 171.22,-184.81 178.39,-187.9 185.54,-190.81"/>
<polygon fill="#63b8ff" stroke="#63b8ff" points="183.96,-193.95 194.55,-194.37 186.53,-187.44 183.96,-193.95"/>
</a>
</g>
</g>
<!-- Node21 -->
<g id="Node000021" class="node">
<title>Node21</title>
<g id="a_Node000021"><a xlink:href="../../d8/d45/_matrix___assembly___cuda___host___wrappers_8cpp_a71e1c696591bd31ba14d4eec652ccb5b.html#a71e1c696591bd31ba14d4eec652ccb5b" target="_top" xlink:title=" ">
<polygon fill="white" stroke="#666666" points="299.75,-53.88 184,-53.88 184,-23.38 299.75,-23.38 299.75,-53.88"/>
<text text-anchor="start" x="192" y="-40.38" font-family="Helvetica,sans-Serif" font-size="10.00">print_cuda_device_info</text>
<text text-anchor="middle" x="241.88" y="-29.12" font-family="Helvetica,sans-Serif" font-size="10.00">_for_matrix_assembly</text>
</a>
</g>
</g>
<!-- Node1&#45;&gt;Node21 -->
<g id="edge26_Node000001_Node000021" class="edge">
<title>Node1&#45;&gt;Node21</title>
<g id="a_edge26_Node000001_Node000021"><a xlink:title=" ">
<path fill="none" stroke="#63b8ff" d="M86.81,-108.9C106.33,-95.23 136.26,-75.62 164.5,-62.62 167.78,-61.11 171.19,-59.66 174.65,-58.27"/>
<polygon fill="#63b8ff" stroke="#63b8ff" points="175.64,-61.64 183.76,-54.83 173.17,-55.09 175.64,-61.64"/>
</a>
</g>
</g>
<!-- Node22 -->
<g id="Node000022" class="node">
<title>Node22</title>
<g id="a_Node000022"><a xlink:href="../../d5/d81/_matrix___assembly___c_u_d_a___integration___example_8cpp_a3a3d77470391a4e87bd8c9864348d89f.html#a3a3d77470391a4e87bd8c9864348d89f" target="_top" xlink:title=" ">
<polygon fill="white" stroke="#666666" points="319.25,-91.25 164.5,-91.25 164.5,-72 319.25,-72 319.25,-91.25"/>
<text text-anchor="middle" x="241.88" y="-77.75" font-family="Helvetica,sans-Serif" font-size="10.00">validate_cuda_cpu_consistency</text>
</a>
</g>
</g>
<!-- Node1&#45;&gt;Node22 -->
<g id="edge27_Node000001_Node000022" class="edge">
<title>Node1&#45;&gt;Node22</title>
<g id="a_edge27_Node000001_Node000022"><a xlink:title=" ">
<path fill="none" stroke="#63b8ff" d="M128.65,-109.1C148.36,-104.28 169.84,-99.02 188.68,-94.4"/>
<polygon fill="#63b8ff" stroke="#63b8ff" points="189.39,-97.83 198.27,-92.06 187.72,-91.03 189.39,-97.83"/>
</a>
</g>
</g>
<!-- Node3 -->
<g id="Node000003" class="node">
<title>Node3</title>
<g id="a_Node000003"><a xlink:href="../../db/dbe/_assemble___matrix_8cpp_ad90382595c8b02e815e463639d84baa7.html#ad90382595c8b02e815e463639d84baa7" target="_top" xlink:title=" ">
<polygon fill="white" stroke="#666666" points="457.5,-134.25 386,-134.25 386,-115 457.5,-115 457.5,-134.25"/>
<text text-anchor="middle" x="421.75" y="-120.75" font-family="Helvetica,sans-Serif" font-size="10.00">Assemble_A</text>
</a>
</g>
</g>
<!-- Node2&#45;&gt;Node3 -->
<g id="edge2_Node000002_Node000003" class="edge">
<title>Node2&#45;&gt;Node3</title>
<g id="a_edge2_Node000002_Node000003"><a xlink:title=" ">
<path fill="none" stroke="#63b8ff" d="M313.94,-124.62C334.36,-124.62 356.09,-124.62 374.58,-124.62"/>
<polygon fill="#63b8ff" stroke="#63b8ff" points="374.41,-128.13 384.41,-124.63 374.41,-121.13 374.41,-128.13"/>
</a>
</g>
</g>
<!-- Node7 -->
<g id="Node000007" class="node">
<title>Node7</title>
<g id="a_Node000007"><a xlink:href="../../d5/d81/_matrix___assembly___c_u_d_a___integration___example_8cpp_a34bf8e95732246ba8ece5c8405115be9.html#a34bf8e95732246ba8ece5c8405115be9" target="_top" xlink:title=" ">
<polygon fill="white" stroke="#666666" points="474.75,-97.25 368.75,-97.25 368.75,-78 474.75,-78 474.75,-97.25"/>
<text text-anchor="middle" x="421.75" y="-83.75" font-family="Helvetica,sans-Serif" font-size="10.00">Assemble_A_CUDA</text>
</a>
</g>
</g>
<!-- Node2&#45;&gt;Node7 -->
<g id="edge7_Node000002_Node000007" class="edge">
<title>Node2&#45;&gt;Node7</title>
<g id="a_edge7_Node000002_Node000007"><a xlink:title=" ">
<path fill="none" stroke="#63b8ff" d="M313.94,-109.84C329.52,-106.6 345.86,-103.2 360.94,-100.07"/>
<polygon fill="#63b8ff" stroke="#63b8ff" points="361.64,-103.5 370.72,-98.03 360.21,-96.64 361.64,-103.5"/>
</a>
</g>
</g>
<!-- Node2&#45;&gt;Node14 -->
<g id="edge14_Node000002_Node000014" class="edge">
<title>Node2&#45;&gt;Node14</title>
<g id="a_edge14_Node000002_Node000014"><a xlink:title=" ">
<path fill="none" stroke="#63b8ff" d="M307.85,-140.33C319.78,-143.22 332.33,-146.25 344.55,-149.2"/>
<polygon fill="#63b8ff" stroke="#63b8ff" points="343.64,-152.59 354.19,-151.53 345.29,-145.78 343.64,-152.59"/>
</a>
</g>
</g>
<!-- Node4 -->
<g id="Node000004" class="node">
<title>Node4</title>
<g id="a_Node000004"><a xlink:href="../../d6/da5/_flux___jacobian_8cpp_afbbefa55a3532b90c1fa3d4740a0b8d3.html#afbbefa55a3532b90c1fa3d4740a0b8d3" target="_top" xlink:title=" ">
<polygon fill="white" stroke="#666666" points="661.75,-148.25 537.75,-148.25 537.75,-129 661.75,-129 661.75,-148.25"/>
<text text-anchor="middle" x="599.75" y="-134.75" font-family="Helvetica,sans-Serif" font-size="10.00">Compute_Flux_Jacobian</text>
</a>
</g>
</g>
<!-- Node3&#45;&gt;Node4 -->
<g id="edge3_Node000003_Node000004" class="edge">
<title>Node3&#45;&gt;Node4</title>
<g id="a_edge3_Node000003_Node000004"><a xlink:title=" ">
<path fill="none" stroke="#63b8ff" d="M457.94,-127.42C477.51,-128.98 502.61,-130.98 526.18,-132.85"/>
<polygon fill="#63b8ff" stroke="#63b8ff" points="525.85,-136.34 536.09,-133.64 526.4,-129.36 525.85,-136.34"/>
</a>
</g>
</g>
<!-- Node6 -->
<g id="Node000006" class="node">
<title>Node6</title>
<g id="a_Node000006"><a xlink:href="../../d6/da5/_flux___jacobian_8cpp_aacc73d4767c573d4db61bbf2e502d331.html#aacc73d4767c573d4db61bbf2e502d331" target="_top" xlink:title=" ">
<polygon fill="white" stroke="#666666" points="661.38,-196.88 538.12,-196.88 538.12,-166.38 661.38,-166.38 661.38,-196.88"/>
<text text-anchor="start" x="546.12" y="-183.38" font-family="Helvetica,sans-Serif" font-size="10.00">ComputeGhostCell_Flux</text>
<text text-anchor="middle" x="599.75" y="-172.12" font-family="Helvetica,sans-Serif" font-size="10.00">_Jacobian</text>
</a>
</g>
</g>
<!-- Node3&#45;&gt;Node6 -->
<g id="edge5_Node000003_Node000006" class="edge">
<title>Node3&#45;&gt;Node6</title>
<g id="a_edge5_Node000003_Node000006"><a xlink:title=" ">
<path fill="none" stroke="#63b8ff" d="M457.94,-134.21C467.8,-137.07 478.49,-140.32 488.25,-143.62 504.51,-149.13 508.07,-151.88 524.25,-157.62 528.64,-159.19 533.2,-160.76 537.79,-162.31"/>
<polygon fill="#63b8ff" stroke="#63b8ff" points="536.49,-165.57 547.08,-165.41 538.71,-158.93 536.49,-165.57"/>
</a>
</g>
</g>
<!-- Node5 -->
<g id="Node000005" class="node">
<title>Node5</title>
<g id="a_Node000005"><a xlink:href="../../dc/d3a/src_2_utility___files_8cpp_aa5fe1ffca7af96bc7295ff9492f6423d.html#aa5fe1ffca7af96bc7295ff9492f6423d" target="_top" xlink:title=" ">
<polygon fill="white" stroke="#666666" points="815.38,-191.25 739.38,-191.25 739.38,-172 815.38,-172 815.38,-191.25"/>
<text text-anchor="middle" x="777.38" y="-177.75" font-family="Helvetica,sans-Serif" font-size="10.00">Vector_Reset</text>
</a>
</g>
</g>
<!-- Node4&#45;&gt;Node5 -->
<g id="edge4_Node000004_Node000005" class="edge">
<title>Node4&#45;&gt;Node5</title>
<g id="a_edge4_Node000004_Node000005"><a xlink:title=" ">
<path fill="none" stroke="#63b8ff" d="M641.93,-148.71C667.65,-155.01 700.9,-163.15 727.9,-169.76"/>
<polygon fill="#63b8ff" stroke="#63b8ff" points="727.03,-173.15 737.58,-172.13 728.7,-166.35 727.03,-173.15"/>
</a>
</g>
</g>
<!-- Node6&#45;&gt;Node5 -->
<g id="edge6_Node000006_Node000005" class="edge">
<title>Node6&#45;&gt;Node5</title>
<g id="a_edge6_Node000006_Node000005"><a xlink:title=" ">
<path fill="none" stroke="#63b8ff" d="M661.68,-181.62C683.32,-181.62 707.36,-181.62 727.82,-181.62"/>
<polygon fill="#63b8ff" stroke="#63b8ff" points="727.58,-185.13 737.58,-181.63 727.58,-178.13 727.58,-185.13"/>
</a>
</g>
</g>
<!-- Node8 -->
<g id="Node000008" class="node">
<title>Node8</title>
<g id="a_Node000008"><a xlink:href="../../d8/d45/_matrix___assembly___cuda___host___wrappers_8cpp_ae36b9e499037a7056f613566e598c326.html#ae36b9e499037a7056f613566e598c326" target="_top" xlink:title=" ">
<polygon fill="white" stroke="#666666" points="673.75,-101.25 525.75,-101.25 525.75,-82 673.75,-82 673.75,-101.25"/>
<text text-anchor="middle" x="599.75" y="-87.75" font-family="Helvetica,sans-Serif" font-size="10.00">assemble_dense_matrix_cuda</text>
</a>
</g>
</g>
<!-- Node7&#45;&gt;Node8 -->
<g id="edge8_Node000007_Node000008" class="edge">
<title>Node7&#45;&gt;Node8</title>
<g id="a_edge8_Node000007_Node000008"><a xlink:title=" ">
<path fill="none" stroke="#63b8ff" d="M475.08,-88.81C487.43,-89.09 500.91,-89.4 514.28,-89.71"/>
<polygon fill="#63b8ff" stroke="#63b8ff" points="513.86,-93.2 523.94,-89.92 514.02,-86.2 513.86,-93.2"/>
</a>
</g>
</g>
<!-- Node9 -->
<g id="Node000009" class="node">
<title>Node9</title>
<g id="a_Node000009"><a xlink:href="../../d4/d5c/_matrix___assembly___cuda___kernels_8cu_adc92f7eb452100a58cdf879a7ba463d3.html#adc92f7eb452100a58cdf879a7ba463d3" target="_top" xlink:title="CUDA kernel for assembling the dense matrix A in implicit time integration.">
<polygon fill="white" stroke="#666666" points="838.25,-67.88 716.5,-67.88 716.5,-37.38 838.25,-37.38 838.25,-67.88"/>
<text text-anchor="start" x="724.5" y="-54.38" font-family="Helvetica,sans-Serif" font-size="10.00">assemble_dense_matrix</text>
<text text-anchor="middle" x="777.38" y="-43.12" font-family="Helvetica,sans-Serif" font-size="10.00">_kernel</text>
</a>
</g>
</g>
<!-- Node8&#45;&gt;Node9 -->
<g id="edge9_Node000008_Node000009" class="edge">
<title>Node8&#45;&gt;Node9</title>
<g id="a_edge9_Node000008_Node000009"><a xlink:title=" ">
<path fill="none" stroke="#63b8ff" d="M645.98,-81.58C663.9,-77.6 684.95,-72.93 704.84,-68.51"/>
<polygon fill="#63b8ff" stroke="#63b8ff" points="705.59,-71.93 714.59,-66.34 704.07,-65.1 705.59,-71.93"/>
</a>
</g>
</g>
<!-- Node12 -->
<g id="Node000012" class="node">
<title>Node12</title>
<g id="a_Node000012"><a xlink:href="../../d8/d45/_matrix___assembly___cuda___host___wrappers_8cpp_a66c53bbe6c514b4d189e8151bcaf8588.html#a66c53bbe6c514b4d189e8151bcaf8588" target="_top" xlink:title=" ">
<polygon fill="white" stroke="#666666" points="827.38,-153.88 727.38,-153.88 727.38,-123.38 827.38,-123.38 827.38,-153.88"/>
<text text-anchor="start" x="735.38" y="-140.38" font-family="Helvetica,sans-Serif" font-size="10.00">get_optimal_launch</text>
<text text-anchor="middle" x="777.38" y="-129.12" font-family="Helvetica,sans-Serif" font-size="10.00">_params</text>
</a>
</g>
</g>
<!-- Node8&#45;&gt;Node12 -->
<g id="edge12_Node000008_Node000012" class="edge">
<title>Node8&#45;&gt;Node12</title>
<g id="a_edge12_Node000008_Node000012"><a xlink:title=" ">
<path fill="none" stroke="#63b8ff" d="M638.43,-101.71C661.09,-107.77 690.46,-115.63 716.27,-122.54"/>
<polygon fill="#63b8ff" stroke="#63b8ff" points="715.05,-125.84 725.62,-125.04 716.86,-119.08 715.05,-125.84"/>
</a>
</g>
</g>
<!-- Node13 -->
<g id="Node000013" class="node">
<title>Node13</title>
<g id="a_Node000013"><a xlink:href="../../d4/d5c/_matrix___assembly___cuda___kernels_8cu_ae09fbc063001e1803f8ebdd07209f235.html#ae09fbc063001e1803f8ebdd07209f235" target="_top" xlink:title=" ">
<polygon fill="white" stroke="#666666" points="834.88,-105.25 719.88,-105.25 719.88,-86 834.88,-86 834.88,-105.25"/>
<text text-anchor="middle" x="777.38" y="-91.75" font-family="Helvetica,sans-Serif" font-size="10.00">initialize_matrix_kernel</text>
</a>
</g>
</g>
<!-- Node8&#45;&gt;Node13 -->
<g id="edge13_Node000008_Node000013" class="edge">
<title>Node8&#45;&gt;Node13</title>
<g id="a_edge13_Node000008_Node000013"><a xlink:title=" ">
<path fill="none" stroke="#63b8ff" d="M674.21,-93.3C685.44,-93.55 697,-93.82 708.11,-94.07"/>
<polygon fill="#63b8ff" stroke="#63b8ff" points="707.91,-97.57 717.99,-94.3 708.07,-90.57 707.91,-97.57"/>
</a>
</g>
</g>
<!-- Node10 -->
<g id="Node000010" class="node">
<title>Node10</title>
<g id="a_Node000010"><a xlink:href="../../d4/d5c/_matrix___assembly___cuda___kernels_8cu_ad8a42e26c146b5b212f99e3af395c6d3.html#ad8a42e26c146b5b212f99e3af395c6d3" target="_top" xlink:title=" ">
<polygon fill="white" stroke="#666666" points="999,-67.88 879.5,-67.88 879.5,-37.38 999,-37.38 999,-67.88"/>
<text text-anchor="start" x="887.5" y="-54.38" font-family="Helvetica,sans-Serif" font-size="10.00">add_matrix_contribution</text>
<text text-anchor="middle" x="939.25" y="-43.12" font-family="Helvetica,sans-Serif" font-size="10.00">_atomic</text>
</a>
</g>
</g>
<!-- Node9&#45;&gt;Node10 -->
<g id="edge10_Node000009_Node000010" class="edge">
<title>Node9&#45;&gt;Node10</title>
<g id="a_edge10_Node000009_Node000010"><a xlink:title=" ">
<path fill="none" stroke="#63b8ff" d="M838.36,-52.62C847.98,-52.62 858.01,-52.62 867.84,-52.62"/>
<polygon fill="#63b8ff" stroke="#63b8ff" points="867.74,-56.13 877.74,-52.63 867.74,-49.13 867.74,-56.13"/>
</a>
</g>
</g>
<!-- Node11 -->
<g id="Node000011" class="node">
<title>Node11</title>
<g id="a_Node000011"><a xlink:href="../../d4/d5c/_matrix___assembly___cuda___kernels_8cu_a746da81d996037720504d4a2a923c4a6.html#a746da81d996037720504d4a2a923c4a6" target="_top" xlink:title="Device function to compute flux Jacobian matrix for Euler equations.">
<polygon fill="white" stroke="#666666" points="997.12,-177.88 881.38,-177.88 881.38,-147.38 997.12,-147.38 997.12,-177.88"/>
<text text-anchor="start" x="889.38" y="-164.38" font-family="Helvetica,sans-Serif" font-size="10.00">compute_flux_jacobian</text>
<text text-anchor="middle" x="939.25" y="-153.12" font-family="Helvetica,sans-Serif" font-size="10.00">_device</text>
</a>
</g>
</g>
<!-- Node9&#45;&gt;Node11 -->
<g id="edge11_Node000009_Node000011" class="edge">
<title>Node9&#45;&gt;Node11</title>
<g id="a_edge11_Node000009_Node000011"><a xlink:title=" ">
<path fill="none" stroke="#63b8ff" d="M827.35,-68.32C832.95,-70.8 838.45,-73.56 843.5,-76.62 871.54,-93.63 898.75,-119.62 916.76,-138.58"/>
<polygon fill="#63b8ff" stroke="#63b8ff" points="914.19,-140.95 923.56,-145.88 919.31,-136.18 914.19,-140.95"/>
</a>
</g>
</g>
<!-- Node16 -->
<g id="Node000016" class="node">
<title>Node16</title>
<g id="a_Node000016"><a xlink:href="../../db/dbe/_assemble___matrix_8cpp_ab40202302c5e7f6e97927b7fba467369.html#ab40202302c5e7f6e97927b7fba467369" target="_top" xlink:title=" ">
<polygon fill="white" stroke="#666666" points="460.12,-220.25 383.38,-220.25 383.38,-201 460.12,-201 460.12,-220.25"/>
<text text-anchor="middle" x="421.75" y="-206.75" font-family="Helvetica,sans-Serif" font-size="10.00">Assemble_A1</text>
</a>
</g>
</g>
<!-- Node15&#45;&gt;Node16 -->
<g id="edge16_Node000015_Node000016" class="edge">
<title>Node15&#45;&gt;Node16</title>
<g id="a_edge16_Node000015_Node000016"><a xlink:title=" ">
<path fill="none" stroke="#63b8ff" d="M307.6,-210.62C328.77,-210.62 351.93,-210.62 371.74,-210.62"/>
<polygon fill="#63b8ff" stroke="#63b8ff" points="371.47,-214.13 381.47,-210.63 371.47,-207.13 371.47,-214.13"/>
</a>
</g>
</g>
<!-- Node17 -->
<g id="Node000017" class="node">
<title>Node17</title>
<g id="a_Node000017"><a xlink:href="../../d5/d81/_matrix___assembly___c_u_d_a___integration___example_8cpp_a9a8a1fa6b968c9a66766d033498062bd.html#a9a8a1fa6b968c9a66766d033498062bd" target="_top" xlink:title=" ">
<polygon fill="white" stroke="#666666" points="477.38,-257.25 366.12,-257.25 366.12,-238 477.38,-238 477.38,-257.25"/>
<text text-anchor="middle" x="421.75" y="-243.75" font-family="Helvetica,sans-Serif" font-size="10.00">Assemble_A1_CUDA</text>
</a>
</g>
</g>
<!-- Node15&#45;&gt;Node17 -->
<g id="edge19_Node000015_Node000017" class="edge">
<title>Node15&#45;&gt;Node17</title>
<g id="a_edge19_Node000015_Node000017"><a xlink:title=" ">
<path fill="none" stroke="#63b8ff" d="M307.6,-224.09C325.11,-227.73 343.99,-231.66 361.21,-235.24"/>
<polygon fill="#63b8ff" stroke="#63b8ff" points="360.27,-238.62 370.77,-237.23 361.7,-231.77 360.27,-238.62"/>
</a>
</g>
</g>
<!-- Node16&#45;&gt;Node4 -->
<g id="edge17_Node000016_Node000004" class="edge">
<title>Node16&#45;&gt;Node4</title>
<g id="a_edge17_Node000016_Node000004"><a xlink:title=" ">
<path fill="none" stroke="#63b8ff" d="M460.37,-203.01C469.84,-200.22 479.72,-196.5 488.25,-191.62 507.35,-180.7 504.97,-168.24 524.25,-157.62 527.63,-155.77 531.19,-154.08 534.85,-152.56"/>
<polygon fill="#63b8ff" stroke="#63b8ff" points="535.78,-155.95 543.95,-149.22 533.36,-149.38 535.78,-155.95"/>
</a>
</g>
</g>
<!-- Node16&#45;&gt;Node6 -->
<g id="edge18_Node000016_Node000006" class="edge">
<title>Node16&#45;&gt;Node6</title>
<g id="a_edge18_Node000016_Node000006"><a xlink:title=" ">
<path fill="none" stroke="#63b8ff" d="M460.51,-204.4C479.78,-201.23 503.88,-197.26 526.54,-193.52"/>
<polygon fill="#63b8ff" stroke="#63b8ff" points="527.07,-196.98 536.37,-191.9 525.94,-190.08 527.07,-196.98"/>
</a>
</g>
</g>
<!-- Node18 -->
<g id="Node000018" class="node">
<title>Node18</title>
<g id="a_Node000018"><a xlink:href="../../d8/d45/_matrix___assembly___cuda___host___wrappers_8cpp_a13bc3eb519cbf2d866d97295404c4f18.html#a13bc3eb519cbf2d866d97295404c4f18" target="_top" xlink:title=" ">
<polygon fill="white" stroke="#666666" points="675.25,-242.25 524.25,-242.25 524.25,-223 675.25,-223 675.25,-242.25"/>
<text text-anchor="middle" x="599.75" y="-228.75" font-family="Helvetica,sans-Serif" font-size="10.00">assemble_sparse_matrix_cuda</text>
</a>
</g>
</g>
<!-- Node17&#45;&gt;Node18 -->
<g id="edge20_Node000017_Node000018" class="edge">
<title>Node17&#45;&gt;Node18</title>
<g id="a_edge20_Node000017_Node000018"><a xlink:title=" ">
<path fill="none" stroke="#63b8ff" d="M477.47,-242.96C488.64,-242.01 500.64,-240.99 512.6,-239.97"/>
<polygon fill="#63b8ff" stroke="#63b8ff" points="512.84,-243.46 522.51,-239.12 512.25,-236.48 512.84,-243.46"/>
</a>
</g>
</g>
<!-- Node18&#45;&gt;Node12 -->
<g id="edge24_Node000018_Node000012" class="edge">
<title>Node18&#45;&gt;Node12</title>
<g id="a_edge24_Node000018_Node000012"><a xlink:title=" ">
<path fill="none" stroke="#63b8ff" d="M640.53,-222.52C652.34,-218.41 664.88,-212.88 675.25,-205.62 695.67,-191.33 690.87,-176.97 711.25,-162.62 713.06,-161.35 714.95,-160.14 716.89,-158.98"/>
<polygon fill="#63b8ff" stroke="#63b8ff" points="718.42,-162.13 725.63,-154.36 715.15,-155.94 718.42,-162.13"/>
</a>
</g>
</g>
<!-- Node19 -->
<g id="Node000019" class="node">
<title>Node19</title>
<g id="a_Node000019"><a xlink:href="../../d4/d5c/_matrix___assembly___cuda___kernels_8cu_a80f72b9cb6f104aa17ff78c19947dfee.html#a80f72b9cb6f104aa17ff78c19947dfee" target="_top" xlink:title="CUDA kernel for sparse matrix assembly in COO (Coordinate) format.">
<polygon fill="white" stroke="#666666" points="839.75,-239.88 715,-239.88 715,-209.38 839.75,-209.38 839.75,-239.88"/>
<text text-anchor="start" x="723" y="-226.38" font-family="Helvetica,sans-Serif" font-size="10.00">assemble_sparse_matrix</text>
<text text-anchor="middle" x="777.38" y="-215.12" font-family="Helvetica,sans-Serif" font-size="10.00">_kernel</text>
</a>
</g>
</g>
<!-- Node18&#45;&gt;Node19 -->
<g id="edge21_Node000018_Node000019" class="edge">
<title>Node18&#45;&gt;Node19</title>
<g id="a_edge21_Node000018_Node000019"><a xlink:title=" ">
<path fill="none" stroke="#63b8ff" d="M675.74,-229.21C684.85,-228.79 694.15,-228.37 703.24,-227.96"/>
<polygon fill="#63b8ff" stroke="#63b8ff" points="703.26,-231.46 713.09,-227.51 702.94,-224.47 703.26,-231.46"/>
</a>
</g>
</g>
<!-- Node20 -->
<g id="Node000020" class="node">
<title>Node20</title>
<g id="a_Node000020"><a xlink:href="../../d4/d5c/_matrix___assembly___cuda___kernels_8cu_a937b70c8bcaaa55bd8aeeb47817af1f8.html#a937b70c8bcaaa55bd8aeeb47817af1f8" target="_top" xlink:title=" ">
<polygon fill="white" stroke="#666666" points="829.25,-288.88 725.5,-288.88 725.5,-258.38 829.25,-258.38 829.25,-288.88"/>
<text text-anchor="start" x="733.5" y="-275.38" font-family="Helvetica,sans-Serif" font-size="10.00">count_nonzeros_per</text>
<text text-anchor="middle" x="777.38" y="-264.12" font-family="Helvetica,sans-Serif" font-size="10.00">_cell_kernel</text>
</a>
</g>
</g>
<!-- Node18&#45;&gt;Node20 -->
<g id="edge23_Node000018_Node000020" class="edge">
<title>Node18&#45;&gt;Node20</title>
<g id="a_edge23_Node000018_Node000020"><a xlink:title=" ">
<path fill="none" stroke="#63b8ff" d="M643.71,-242.65C664.83,-247.59 690.68,-253.62 713.94,-259.05"/>
<polygon fill="#63b8ff" stroke="#63b8ff" points="713.1,-262.45 723.64,-261.31 714.69,-255.63 713.1,-262.45"/>
</a>
</g>
</g>
<!-- Node19&#45;&gt;Node11 -->
<g id="edge22_Node000019_Node000011" class="edge">
<title>Node19&#45;&gt;Node11</title>
<g id="a_edge22_Node000019_Node000011"><a xlink:title=" ">
<path fill="none" stroke="#63b8ff" d="M821.53,-208.92C828.87,-206.19 836.41,-203.35 843.5,-200.62 858.54,-194.84 874.85,-188.37 889.63,-182.43"/>
<polygon fill="#63b8ff" stroke="#63b8ff" points="890.71,-185.77 898.68,-178.78 888.1,-179.28 890.71,-185.77"/>
</a>
</g>
</g>
<!-- Node22&#45;&gt;Node3 -->
<g id="edge28_Node000022_Node000003" class="edge">
<title>Node22&#45;&gt;Node3</title>
<g id="a_edge28_Node000022_Node000003"><a xlink:title=" ">
<path fill="none" stroke="#63b8ff" d="M284.58,-91.71C311.56,-98.23 346.72,-106.73 374.55,-113.46"/>
<polygon fill="#63b8ff" stroke="#63b8ff" points="373.58,-116.82 384.13,-115.77 375.23,-110.02 373.58,-116.82"/>
</a>
</g>
</g>
<!-- Node22&#45;&gt;Node7 -->
<g id="edge29_Node000022_Node000007" class="edge">
<title>Node22&#45;&gt;Node7</title>
<g id="a_edge29_Node000022_Node000007"><a xlink:title=" ">
<path fill="none" stroke="#63b8ff" d="M319.6,-84.21C332.07,-84.63 344.87,-85.07 356.98,-85.47"/>
<polygon fill="#63b8ff" stroke="#63b8ff" points="356.73,-88.97 366.85,-85.81 356.97,-81.97 356.73,-88.97"/>
</a>
</g>
</g>
<!-- Node23 -->
<g id="Node000023" class="node">
<title>Node23</title>
<g id="a_Node000023"><a xlink:href="../../db/dbe/_assemble___matrix_8cpp_a19cccc9540fb68aa18547238ebc80951.html#a19cccc9540fb68aa18547238ebc80951" target="_top" xlink:title=" ">
<polygon fill="white" stroke="#666666" points="456.75,-23.25 386.75,-23.25 386.75,-4 456.75,-4 456.75,-23.25"/>
<text text-anchor="middle" x="421.75" y="-9.75" font-family="Helvetica,sans-Serif" font-size="10.00">Assemble_b</text>
</a>
</g>
</g>
<!-- Node22&#45;&gt;Node23 -->
<g id="edge30_Node000022_Node000023" class="edge">
<title>Node22&#45;&gt;Node23</title>
<g id="a_edge30_Node000022_Node000023"><a xlink:title=" ">
<path fill="none" stroke="#63b8ff" d="M297.04,-71.52C304.71,-69.13 312.33,-66.2 319.25,-62.62 338,-52.92 336.62,-41.55 355.25,-31.62 361.53,-28.28 368.5,-25.51 375.47,-23.23"/>
<polygon fill="#63b8ff" stroke="#63b8ff" points="376.27,-26.64 384.88,-20.47 374.3,-19.92 376.27,-26.64"/>
</a>
</g>
</g>
<!-- Node24 -->
<g id="Node000024" class="node">
<title>Node24</title>
<g id="a_Node000024"><a xlink:href="../../d5/d81/_matrix___assembly___c_u_d_a___integration___example_8cpp_a6607025671f5fc8e4de5def2cecfb05b.html#a6607025671f5fc8e4de5def2cecfb05b" target="_top" xlink:title=" ">
<polygon fill="white" stroke="#666666" points="474,-60.25 369.5,-60.25 369.5,-41 474,-41 474,-60.25"/>
<text text-anchor="middle" x="421.75" y="-46.75" font-family="Helvetica,sans-Serif" font-size="10.00">Assemble_b_CUDA</text>
</a>
</g>
</g>
<!-- Node22&#45;&gt;Node24 -->
<g id="edge31_Node000022_Node000024" class="edge">
<title>Node22&#45;&gt;Node24</title>
<g id="a_edge31_Node000022_Node000024"><a xlink:title=" ">
<path fill="none" stroke="#63b8ff" d="M300.63,-71.56C319.03,-68.35 339.46,-64.79 358.19,-61.53"/>
<polygon fill="#63b8ff" stroke="#63b8ff" points="358.55,-65.02 367.8,-59.85 357.34,-58.12 358.55,-65.02"/>
</a>
</g>
</g>
<!-- Node25 -->
<g id="Node000025" class="node">
<title>Node25</title>
<g id="a_Node000025"><a xlink:href="../../d8/d45/_matrix___assembly___cuda___host___wrappers_8cpp_a432856cbf9f6d6e1a164717e19752ce5.html#a432856cbf9f6d6e1a164717e19752ce5" target="_top" xlink:title=" ">
<polygon fill="white" stroke="#666666" points="663.25,-60.25 536.25,-60.25 536.25,-41 663.25,-41 663.25,-60.25"/>
<text text-anchor="middle" x="599.75" y="-46.75" font-family="Helvetica,sans-Serif" font-size="10.00">assemble_vector_b_cuda</text>
</a>
</g>
</g>
<!-- Node24&#45;&gt;Node25 -->
<g id="edge32_Node000024_Node000025" class="edge">
<title>Node24&#45;&gt;Node25</title>
<g id="a_edge32_Node000024_Node000025"><a xlink:title=" ">
<path fill="none" stroke="#63b8ff" d="M474.13,-50.62C489.94,-50.62 507.68,-50.62 524.7,-50.62"/>
<polygon fill="#63b8ff" stroke="#63b8ff" points="524.24,-54.13 534.24,-50.63 524.24,-47.13 524.24,-54.13"/>
</a>
</g>
</g>
<!-- Node25&#45;&gt;Node12 -->
<g id="edge34_Node000025_Node000012" class="edge">
<title>Node25&#45;&gt;Node12</title>
<g id="a_edge34_Node000025_Node000012"><a xlink:title=" ">
<path fill="none" stroke="#63b8ff" d="M649.82,-60.73C658.69,-63.75 667.55,-67.64 675.25,-72.62 695.89,-85.99 691.07,-100.59 711.25,-114.62 713.07,-115.89 714.96,-117.1 716.91,-118.25"/>
<polygon fill="#63b8ff" stroke="#63b8ff" points="715.18,-121.29 725.66,-122.84 718.43,-115.09 715.18,-121.29"/>
</a>
</g>
</g>
<!-- Node26 -->
<g id="Node000026" class="node">
<title>Node26</title>
<g id="a_Node000026"><a xlink:href="../../d4/d5c/_matrix___assembly___cuda___kernels_8cu_a40aa516b9074875cbfa4cd1ad68b47d9.html#a40aa516b9074875cbfa4cd1ad68b47d9" target="_top" xlink:title=" ">
<polygon fill="white" stroke="#666666" points="843.5,-19.25 711.25,-19.25 711.25,0 843.5,0 843.5,-19.25"/>
<text text-anchor="middle" x="777.38" y="-5.75" font-family="Helvetica,sans-Serif" font-size="10.00">assemble_vector_b_kernel</text>
</a>
</g>
</g>
<!-- Node25&#45;&gt;Node26 -->
<g id="edge33_Node000025_Node000026" class="edge">
<title>Node25&#45;&gt;Node26</title>
<g id="a_edge33_Node000025_Node000026"><a xlink:title=" ">
<path fill="none" stroke="#63b8ff" d="M643.71,-40.6C667.42,-35.06 697.09,-28.13 722.35,-22.24"/>
<polygon fill="#63b8ff" stroke="#63b8ff" points="722.83,-25.72 731.77,-20.04 721.24,-18.9 722.83,-25.72"/>
</a>
</g>
</g>
</g>
</svg>
