<?xml version="1.0" encoding="UTF-8" standalone="no"?>
<!DOCTYPE svg PUBLIC "-//W3C//DTD SVG 1.1//EN"
 "http://www.w3.org/Graphics/SVG/1.1/DTD/svg11.dtd">
<!-- Generated by graphviz version 12.2.1 (20241206.2353)
 -->
<!-- Title: benchmark_sparse_matrix_assembly Pages: 1 -->
<svg width="786pt" height="174pt"
 viewBox="0.00 0.00 785.50 173.88" xmlns="http://www.w3.org/2000/svg" xmlns:xlink="http://www.w3.org/1999/xlink">
<g id="graph0" class="graph" transform="scale(1 1) rotate(0) translate(4 169.88)">
<title>benchmark_sparse_matrix_assembly</title>
<!-- Node1 -->
<g id="Node000001" class="node">
<title>Node1</title>
<g id="a_Node000001"><a xlink:title=" ">
<polygon fill="#999999" stroke="#666666" points="130.75,-106.5 0,-106.5 0,-76 130.75,-76 130.75,-106.5"/>
<text text-anchor="start" x="8" y="-93" font-family="Helvetica,sans-Serif" font-size="10.00">benchmark_sparse_matrix</text>
<text text-anchor="middle" x="65.38" y="-81.75" font-family="Helvetica,sans-Serif" font-size="10.00">_assembly</text>
</a>
</g>
</g>
<!-- Node2 -->
<g id="Node000002" class="node">
<title>Node2</title>
<g id="a_Node000002"><a xlink:href="../../db/dbe/_assemble___matrix_8cpp_ab40202302c5e7f6e97927b7fba467369.html#ab40202302c5e7f6e97927b7fba467369" target="_top" xlink:title=" ">
<polygon fill="white" stroke="#666666" points="260.75,-122.88 184,-122.88 184,-103.62 260.75,-103.62 260.75,-122.88"/>
<text text-anchor="middle" x="222.38" y="-109.38" font-family="Helvetica,sans-Serif" font-size="10.00">Assemble_A1</text>
</a>
</g>
</g>
<!-- Node1&#45;&gt;Node2 -->
<g id="edge1_Node000001_Node000002" class="edge">
<title>Node1&#45;&gt;Node2</title>
<g id="a_edge1_Node000001_Node000002"><a xlink:title=" ">
<path fill="none" stroke="#63b8ff" d="M131.21,-100.45C145.07,-102.42 159.48,-104.47 172.62,-106.33"/>
<polygon fill="#63b8ff" stroke="#63b8ff" points="171.89,-109.76 182.28,-107.7 172.87,-102.83 171.89,-109.76"/>
</a>
</g>
</g>
<!-- Node6 -->
<g id="Node000006" class="node">
<title>Node6</title>
<g id="a_Node000006"><a xlink:href="../../d5/d81/_matrix___assembly___c_u_d_a___integration___example_8cpp_a9a8a1fa6b968c9a66766d033498062bd.html#a9a8a1fa6b968c9a66766d033498062bd" target="_top" xlink:title=" ">
<polygon fill="white" stroke="#666666" points="278,-82.88 166.75,-82.88 166.75,-63.62 278,-63.62 278,-82.88"/>
<text text-anchor="middle" x="222.38" y="-69.38" font-family="Helvetica,sans-Serif" font-size="10.00">Assemble_A1_CUDA</text>
</a>
</g>
</g>
<!-- Node1&#45;&gt;Node6 -->
<g id="edge6_Node000001_Node000006" class="edge">
<title>Node1&#45;&gt;Node6</title>
<g id="a_edge6_Node000001_Node000006"><a xlink:title=" ">
<path fill="none" stroke="#63b8ff" d="M131.21,-83.72C139.22,-82.79 147.41,-81.84 155.43,-80.91"/>
<polygon fill="#63b8ff" stroke="#63b8ff" points="155.59,-84.41 165.12,-79.78 154.79,-77.46 155.59,-84.41"/>
</a>
</g>
</g>
<!-- Node3 -->
<g id="Node000003" class="node">
<title>Node3</title>
<g id="a_Node000003"><a xlink:href="../../d6/da5/_flux___jacobian_8cpp_afbbefa55a3532b90c1fa3d4740a0b8d3.html#afbbefa55a3532b90c1fa3d4740a0b8d3" target="_top" xlink:title=" ">
<polygon fill="white" stroke="#666666" points="451.5,-165.88 327.5,-165.88 327.5,-146.62 451.5,-146.62 451.5,-165.88"/>
<text text-anchor="middle" x="389.5" y="-152.38" font-family="Helvetica,sans-Serif" font-size="10.00">Compute_Flux_Jacobian</text>
</a>
</g>
</g>
<!-- Node2&#45;&gt;Node3 -->
<g id="edge2_Node000002_Node000003" class="edge">
<title>Node2&#45;&gt;Node3</title>
<g id="a_edge2_Node000002_Node000003"><a xlink:title=" ">
<path fill="none" stroke="#63b8ff" d="M260.83,-123.25C277.15,-127.59 296.51,-132.71 314,-137.25 321.64,-139.24 329.72,-141.32 337.64,-143.35"/>
<polygon fill="#63b8ff" stroke="#63b8ff" points="336.64,-146.7 347.19,-145.79 338.37,-139.92 336.64,-146.7"/>
</a>
</g>
</g>
<!-- Node5 -->
<g id="Node000005" class="node">
<title>Node5</title>
<g id="a_Node000005"><a xlink:href="../../d6/da5/_flux___jacobian_8cpp_aacc73d4767c573d4db61bbf2e502d331.html#aacc73d4767c573d4db61bbf2e502d331" target="_top" xlink:title=" ">
<polygon fill="white" stroke="#666666" points="451.12,-128.5 327.88,-128.5 327.88,-98 451.12,-98 451.12,-128.5"/>
<text text-anchor="start" x="335.88" y="-115" font-family="Helvetica,sans-Serif" font-size="10.00">ComputeGhostCell_Flux</text>
<text text-anchor="middle" x="389.5" y="-103.75" font-family="Helvetica,sans-Serif" font-size="10.00">_Jacobian</text>
</a>
</g>
</g>
<!-- Node2&#45;&gt;Node5 -->
<g id="edge4_Node000002_Node000005" class="edge">
<title>Node2&#45;&gt;Node5</title>
<g id="a_edge4_Node000002_Node000005"><a xlink:title=" ">
<path fill="none" stroke="#63b8ff" d="M260.84,-113.25C277.23,-113.25 297.04,-113.25 316.11,-113.25"/>
<polygon fill="#63b8ff" stroke="#63b8ff" points="316.03,-116.75 326.03,-113.25 316.03,-109.75 316.03,-116.75"/>
</a>
</g>
</g>
<!-- Node4 -->
<g id="Node000004" class="node">
<title>Node4</title>
<g id="a_Node000004"><a xlink:href="../../dc/d3a/src_2_utility___files_8cpp_aa5fe1ffca7af96bc7295ff9492f6423d.html#aa5fe1ffca7af96bc7295ff9492f6423d" target="_top" xlink:title=" ">
<polygon fill="white" stroke="#666666" points="601.38,-165.88 525.38,-165.88 525.38,-146.62 601.38,-146.62 601.38,-165.88"/>
<text text-anchor="middle" x="563.38" y="-152.38" font-family="Helvetica,sans-Serif" font-size="10.00">Vector_Reset</text>
</a>
</g>
</g>
<!-- Node3&#45;&gt;Node4 -->
<g id="edge3_Node000003_Node000004" class="edge">
<title>Node3&#45;&gt;Node4</title>
<g id="a_edge3_Node000003_Node000004"><a xlink:title=" ">
<path fill="none" stroke="#63b8ff" d="M451.58,-156.25C471.97,-156.25 494.41,-156.25 513.72,-156.25"/>
<polygon fill="#63b8ff" stroke="#63b8ff" points="513.48,-159.75 523.48,-156.25 513.48,-152.75 513.48,-159.75"/>
</a>
</g>
</g>
<!-- Node5&#45;&gt;Node4 -->
<g id="edge5_Node000005_Node000004" class="edge">
<title>Node5&#45;&gt;Node4</title>
<g id="a_edge5_Node000005_Node000004"><a xlink:title=" ">
<path fill="none" stroke="#63b8ff" d="M451.58,-128.53C472.07,-133.66 494.62,-139.3 513.99,-144.15"/>
<polygon fill="#63b8ff" stroke="#63b8ff" points="512.98,-147.5 523.53,-146.53 514.68,-140.71 512.98,-147.5"/>
</a>
</g>
</g>
<!-- Node7 -->
<g id="Node000007" class="node">
<title>Node7</title>
<g id="a_Node000007"><a xlink:href="../../d8/d45/_matrix___assembly___cuda___host___wrappers_8cpp_a13bc3eb519cbf2d866d97295404c4f18.html#a13bc3eb519cbf2d866d97295404c4f18" target="_top" xlink:title=" ">
<polygon fill="white" stroke="#666666" points="465,-76.88 314,-76.88 314,-57.62 465,-57.62 465,-76.88"/>
<text text-anchor="middle" x="389.5" y="-63.38" font-family="Helvetica,sans-Serif" font-size="10.00">assemble_sparse_matrix_cuda</text>
</a>
</g>
</g>
<!-- Node6&#45;&gt;Node7 -->
<g id="edge7_Node000006_Node000007" class="edge">
<title>Node6&#45;&gt;Node7</title>
<g id="a_edge7_Node000006_Node000007"><a xlink:title=" ">
<path fill="none" stroke="#63b8ff" d="M278.36,-71.25C286.08,-70.97 294.15,-70.68 302.28,-70.38"/>
<polygon fill="#63b8ff" stroke="#63b8ff" points="302.39,-73.88 312.25,-70.02 302.13,-66.89 302.39,-73.88"/>
</a>
</g>
</g>
<!-- Node8 -->
<g id="Node000008" class="node">
<title>Node8</title>
<g id="a_Node000008"><a xlink:href="../../d4/d5c/_matrix___assembly___cuda___kernels_8cu_a80f72b9cb6f104aa17ff78c19947dfee.html#a80f72b9cb6f104aa17ff78c19947dfee" target="_top" xlink:title="CUDA kernel for sparse matrix assembly in COO (Coordinate) format.">
<polygon fill="white" stroke="#666666" points="625.75,-128.5 501,-128.5 501,-98 625.75,-98 625.75,-128.5"/>
<text text-anchor="start" x="509" y="-115" font-family="Helvetica,sans-Serif" font-size="10.00">assemble_sparse_matrix</text>
<text text-anchor="middle" x="563.38" y="-103.75" font-family="Helvetica,sans-Serif" font-size="10.00">_kernel</text>
</a>
</g>
</g>
<!-- Node7&#45;&gt;Node8 -->
<g id="edge8_Node000007_Node000008" class="edge">
<title>Node7&#45;&gt;Node8</title>
<g id="a_edge8_Node000007_Node000008"><a xlink:title=" ">
<path fill="none" stroke="#63b8ff" d="M428.22,-77.34C447.15,-82.41 470.71,-88.72 492.77,-94.62"/>
<polygon fill="#63b8ff" stroke="#63b8ff" points="491.77,-97.98 502.33,-97.18 493.58,-91.21 491.77,-97.98"/>
</a>
</g>
</g>
<!-- Node10 -->
<g id="Node000010" class="node">
<title>Node10</title>
<g id="a_Node000010"><a xlink:href="../../d4/d5c/_matrix___assembly___cuda___kernels_8cu_a937b70c8bcaaa55bd8aeeb47817af1f8.html#a937b70c8bcaaa55bd8aeeb47817af1f8" target="_top" xlink:title=" ">
<polygon fill="white" stroke="#666666" points="615.25,-79.5 511.5,-79.5 511.5,-49 615.25,-49 615.25,-79.5"/>
<text text-anchor="start" x="519.5" y="-66" font-family="Helvetica,sans-Serif" font-size="10.00">count_nonzeros_per</text>
<text text-anchor="middle" x="563.38" y="-54.75" font-family="Helvetica,sans-Serif" font-size="10.00">_cell_kernel</text>
</a>
</g>
</g>
<!-- Node7&#45;&gt;Node10 -->
<g id="edge10_Node000007_Node000010" class="edge">
<title>Node7&#45;&gt;Node10</title>
<g id="a_edge10_Node000007_Node000010"><a xlink:title=" ">
<path fill="none" stroke="#63b8ff" d="M465.39,-65.94C476.87,-65.74 488.62,-65.54 499.79,-65.34"/>
<polygon fill="#63b8ff" stroke="#63b8ff" points="499.75,-68.84 509.69,-65.17 499.63,-61.84 499.75,-68.84"/>
</a>
</g>
</g>
<!-- Node11 -->
<g id="Node000011" class="node">
<title>Node11</title>
<g id="a_Node000011"><a xlink:href="../../d8/d45/_matrix___assembly___cuda___host___wrappers_8cpp_a66c53bbe6c514b4d189e8151bcaf8588.html#a66c53bbe6c514b4d189e8151bcaf8588" target="_top" xlink:title=" ">
<polygon fill="white" stroke="#666666" points="613.38,-30.5 513.38,-30.5 513.38,0 613.38,0 613.38,-30.5"/>
<text text-anchor="start" x="521.38" y="-17" font-family="Helvetica,sans-Serif" font-size="10.00">get_optimal_launch</text>
<text text-anchor="middle" x="563.38" y="-5.75" font-family="Helvetica,sans-Serif" font-size="10.00">_params</text>
</a>
</g>
</g>
<!-- Node7&#45;&gt;Node11 -->
<g id="edge11_Node000007_Node000011" class="edge">
<title>Node7&#45;&gt;Node11</title>
<g id="a_edge11_Node000007_Node000011"><a xlink:title=" ">
<path fill="none" stroke="#63b8ff" d="M423.64,-57.22C445.93,-50.48 475.96,-41.39 502.38,-33.4"/>
<polygon fill="#63b8ff" stroke="#63b8ff" points="503.06,-36.85 511.62,-30.61 501.03,-30.15 503.06,-36.85"/>
</a>
</g>
</g>
<!-- Node9 -->
<g id="Node000009" class="node">
<title>Node9</title>
<g id="a_Node000009"><a xlink:href="../../d4/d5c/_matrix___assembly___cuda___kernels_8cu_a746da81d996037720504d4a2a923c4a6.html#a746da81d996037720504d4a2a923c4a6" target="_top" xlink:title="Device function to compute flux Jacobian matrix for Euler equations.">
<polygon fill="white" stroke="#666666" points="777.5,-128.5 661.75,-128.5 661.75,-98 777.5,-98 777.5,-128.5"/>
<text text-anchor="start" x="669.75" y="-115" font-family="Helvetica,sans-Serif" font-size="10.00">compute_flux_jacobian</text>
<text text-anchor="middle" x="719.62" y="-103.75" font-family="Helvetica,sans-Serif" font-size="10.00">_device</text>
</a>
</g>
</g>
<!-- Node8&#45;&gt;Node9 -->
<g id="edge9_Node000008_Node000009" class="edge">
<title>Node8&#45;&gt;Node9</title>
<g id="a_edge9_Node000008_Node000009"><a xlink:title=" ">
<path fill="none" stroke="#63b8ff" d="M626.23,-113.25C634,-113.25 641.98,-113.25 649.85,-113.25"/>
<polygon fill="#63b8ff" stroke="#63b8ff" points="649.75,-116.75 659.75,-113.25 649.75,-109.75 649.75,-116.75"/>
</a>
</g>
</g>
</g>
</svg>
