<?xml version="1.0" encoding="UTF-8" standalone="no"?>
<!DOCTYPE svg PUBLIC "-//W3C//DTD SVG 1.1//EN"
 "http://www.w3.org/Graphics/SVG/1.1/DTD/svg11.dtd">
<!-- Generated by graphviz version 12.2.1 (20241206.2353)
 -->
<!-- Title: scale_grid_kernel Pages: 1 -->
<svg width="631pt" height="39pt"
 viewBox="0.00 0.00 630.75 38.50" xmlns="http://www.w3.org/2000/svg" xmlns:xlink="http://www.w3.org/1999/xlink">
<g id="graph0" class="graph" transform="scale(1 1) rotate(0) translate(4 34.5)">
<title>scale_grid_kernel</title>
<!-- Node1 -->
<g id="Node000001" class="node">
<title>Node1</title>
<g id="a_Node000001"><a xlink:title=" ">
<polygon fill="#999999" stroke="#666666" points="622.75,-24.88 531,-24.88 531,-5.63 622.75,-5.63 622.75,-24.88"/>
<text text-anchor="middle" x="576.88" y="-11.38" font-family="Helvetica,sans-Serif" font-size="10.00">scale_grid_kernel</text>
</a>
</g>
</g>
<!-- Node2 -->
<g id="Node000002" class="node">
<title>Node2</title>
<g id="a_Node000002"><a xlink:href="../../db/d6b/_grid___cuda___host___wrappers_8cpp_ad537b1647f86d382379517dd9b7cad03.html#ad537b1647f86d382379517dd9b7cad03" target="_top" xlink:title=" ">
<polygon fill="white" stroke="#666666" points="495,-24.88 356.75,-24.88 356.75,-5.63 495,-5.63 495,-24.88"/>
<text text-anchor="middle" x="425.88" y="-11.38" font-family="Helvetica,sans-Serif" font-size="10.00">launch_grid_transformations</text>
</a>
</g>
</g>
<!-- Node1&#45;&gt;Node2 -->
<g id="edge1_Node000001_Node000002" class="edge">
<title>Node1&#45;&gt;Node2</title>
<g id="a_edge1_Node000001_Node000002"><a xlink:title=" ">
<path fill="none" stroke="#63b8ff" d="M519.51,-15.25C511.66,-15.25 503.52,-15.25 495.48,-15.25"/>
<polygon fill="#63b8ff" stroke="#63b8ff" points="519.25,-18.75 529.25,-15.25 519.25,-11.75 519.25,-18.75"/>
</a>
</g>
</g>
<!-- Node3 -->
<g id="Node000003" class="node">
<title>Node3</title>
<g id="a_Node000003"><a xlink:href="../../d8/dc5/class_grid_cuda_processor_af88d0d3a90936100f915ae2c79d517e0.html#af88d0d3a90936100f915ae2c79d517e0" target="_top" xlink:title=" ">
<polygon fill="white" stroke="#666666" points="320.75,-30.5 193,-30.5 193,0 320.75,0 320.75,-30.5"/>
<text text-anchor="start" x="201" y="-17" font-family="Helvetica,sans-Serif" font-size="10.00">GridCudaProcessor::</text>
<text text-anchor="middle" x="256.88" y="-5.75" font-family="Helvetica,sans-Serif" font-size="10.00">applyGridTransformations</text>
</a>
</g>
</g>
<!-- Node2&#45;&gt;Node3 -->
<g id="edge2_Node000002_Node000003" class="edge">
<title>Node2&#45;&gt;Node3</title>
<g id="a_edge2_Node000002_Node000003"><a xlink:title=" ">
<path fill="none" stroke="#63b8ff" d="M345.12,-15.25C337.05,-15.25 328.93,-15.25 321.07,-15.25"/>
<polygon fill="#63b8ff" stroke="#63b8ff" points="344.95,-18.75 354.95,-15.25 344.95,-11.75 344.95,-18.75"/>
</a>
</g>
</g>
<!-- Node4 -->
<g id="Node000004" class="node">
<title>Node4</title>
<g id="a_Node000004"><a xlink:href="../../d3/d11/_grid___c_u_d_a___integration___example_8cpp_a75c5c5abd388c2792352980d7866d996.html#a75c5c5abd388c2792352980d7866d996" target="_top" xlink:title=" ">
<polygon fill="white" stroke="#666666" points="157,-24.88 0,-24.88 0,-5.63 157,-5.63 157,-24.88"/>
<text text-anchor="middle" x="78.5" y="-11.38" font-family="Helvetica,sans-Serif" font-size="10.00">demonstrateGridCudaIntegration</text>
</a>
</g>
</g>
<!-- Node3&#45;&gt;Node4 -->
<g id="edge3_Node000003_Node000004" class="edge">
<title>Node3&#45;&gt;Node4</title>
<g id="a_edge3_Node000003_Node000004"><a xlink:title=" ">
<path fill="none" stroke="#63b8ff" d="M181.24,-15.25C173.33,-15.25 165.27,-15.25 157.32,-15.25"/>
<polygon fill="#63b8ff" stroke="#63b8ff" points="181.18,-18.75 191.18,-15.25 181.18,-11.75 181.18,-18.75"/>
</a>
</g>
</g>
</g>
</svg>
