<?xml version="1.0" encoding="UTF-8" standalone="no"?>
<!DOCTYPE svg PUBLIC "-//W3C//DTD SVG 1.1//EN"
 "http://www.w3.org/Graphics/SVG/1.1/DTD/svg11.dtd">
<!-- Generated by graphviz version 12.2.1 (20241206.2353)
 -->
<!-- Title: launch_grid_transformations Pages: 1 -->
<svg width="372pt" height="175pt"
 viewBox="0.00 0.00 371.80 175.25" xmlns="http://www.w3.org/2000/svg" xmlns:xlink="http://www.w3.org/1999/xlink">
<g id="graph0" class="graph" transform="scale(1 1) rotate(0) translate(4 171.25)">
<title>launch_grid_transformations</title>
<!-- Node1 -->
<g id="Node000001" class="node">
<title>Node1</title>
<g id="a_Node000001"><a xlink:title=" ">
<polygon fill="#999999" stroke="#666666" points="138.25,-93.25 0,-93.25 0,-74 138.25,-74 138.25,-93.25"/>
<text text-anchor="middle" x="69.12" y="-79.75" font-family="Helvetica,sans-Serif" font-size="10.00">launch_grid_transformations</text>
</a>
</g>
</g>
<!-- Node2 -->
<g id="Node000002" class="node">
<title>Node2</title>
<g id="a_Node000002"><a xlink:href="../../d0/df8/_cuda___kernel___utilities_8h_a54c372187f54300d55c5415ca8084070.html#a54c372187f54300d55c5415ca8084070" target="_top" xlink:title=" ">
<polygon fill="white" stroke="#666666" points="286.25,-167.25 187,-167.25 187,-148 286.25,-148 286.25,-167.25"/>
<text text-anchor="middle" x="236.62" y="-153.75" font-family="Helvetica,sans-Serif" font-size="10.00">calculateBlockSize</text>
</a>
</g>
</g>
<!-- Node1&#45;&gt;Node2 -->
<g id="edge1_Node000001_Node000002" class="edge">
<title>Node1&#45;&gt;Node2</title>
<g id="a_edge1_Node000001_Node000002"><a xlink:title=" ">
<path fill="none" stroke="#63b8ff" d="M86.2,-93.64C106.23,-105.79 141.78,-126.3 174.25,-139.62 178.07,-141.19 182.08,-142.68 186.13,-144.09"/>
<polygon fill="#63b8ff" stroke="#63b8ff" points="184.86,-147.36 195.46,-147.13 187.03,-140.7 184.86,-147.36"/>
</a>
</g>
</g>
<!-- Node3 -->
<g id="Node000003" class="node">
<title>Node3</title>
<g id="a_Node000003"><a xlink:href="../../d9/d04/_grid___cuda___kernels_8h_a6b5498a4244beee490d2294216e77f4f.html#a6b5498a4244beee490d2294216e77f4f" target="_top" xlink:title=" ">
<polygon fill="white" stroke="#666666" points="299,-130.25 174.25,-130.25 174.25,-111 299,-111 299,-130.25"/>
<text text-anchor="middle" x="236.62" y="-116.75" font-family="Helvetica,sans-Serif" font-size="10.00">calculateGridSizeForGrid</text>
</a>
</g>
</g>
<!-- Node1&#45;&gt;Node3 -->
<g id="edge2_Node000001_Node000003" class="edge">
<title>Node1&#45;&gt;Node3</title>
<g id="a_edge2_Node000001_Node000003"><a xlink:title=" ">
<path fill="none" stroke="#63b8ff" d="M115.35,-93.74C135.14,-98.16 158.57,-103.4 179.47,-108.07"/>
<polygon fill="#63b8ff" stroke="#63b8ff" points="178.46,-111.43 188.98,-110.2 179.98,-104.6 178.46,-111.43"/>
</a>
</g>
</g>
<!-- Node4 -->
<g id="Node000004" class="node">
<title>Node4</title>
<g id="a_Node000004"><a xlink:href="../../d8/d50/_grid___cuda___kernels_8cu_a1d78409b1a4fd49458856a77a0b72be2.html#a1d78409b1a4fd49458856a77a0b72be2" target="_top" xlink:title=" ">
<polygon fill="white" stroke="#666666" points="283.25,-93.25 190,-93.25 190,-74 283.25,-74 283.25,-93.25"/>
<text text-anchor="middle" x="236.62" y="-79.75" font-family="Helvetica,sans-Serif" font-size="10.00">rotate_grid_kernel</text>
</a>
</g>
</g>
<!-- Node1&#45;&gt;Node4 -->
<g id="edge3_Node000001_Node000004" class="edge">
<title>Node1&#45;&gt;Node4</title>
<g id="a_edge3_Node000001_Node000004"><a xlink:title=" ">
<path fill="none" stroke="#63b8ff" d="M138.4,-83.62C151.62,-83.62 165.36,-83.62 178.19,-83.62"/>
<polygon fill="#63b8ff" stroke="#63b8ff" points="178.17,-87.13 188.17,-83.63 178.17,-80.13 178.17,-87.13"/>
</a>
</g>
</g>
<!-- Node7 -->
<g id="Node000007" class="node">
<title>Node7</title>
<g id="a_Node000007"><a xlink:href="../../d8/d50/_grid___cuda___kernels_8cu_a9de70cf45b09526244fe4a294f207682.html#a9de70cf45b09526244fe4a294f207682" target="_top" xlink:title=" ">
<polygon fill="white" stroke="#666666" points="282.5,-56.25 190.75,-56.25 190.75,-37 282.5,-37 282.5,-56.25"/>
<text text-anchor="middle" x="236.62" y="-42.75" font-family="Helvetica,sans-Serif" font-size="10.00">scale_grid_kernel</text>
</a>
</g>
</g>
<!-- Node1&#45;&gt;Node7 -->
<g id="edge6_Node000001_Node000007" class="edge">
<title>Node1&#45;&gt;Node7</title>
<g id="a_edge6_Node000001_Node000007"><a xlink:title=" ">
<path fill="none" stroke="#63b8ff" d="M115.35,-73.51C135.14,-69.09 158.57,-63.85 179.47,-59.18"/>
<polygon fill="#63b8ff" stroke="#63b8ff" points="179.98,-62.65 188.98,-57.05 178.46,-55.82 179.98,-62.65"/>
</a>
</g>
</g>
<!-- Node8 -->
<g id="Node000008" class="node">
<title>Node8</title>
<g id="a_Node000008"><a xlink:href="../../d8/d50/_grid___cuda___kernels_8cu_a8b08583fb59c7ba500c99bba21ca6f7d.html#a8b08583fb59c7ba500c99bba21ca6f7d" target="_top" xlink:title=" ">
<polygon fill="white" stroke="#666666" points="289.62,-19.25 183.62,-19.25 183.62,0 289.62,0 289.62,-19.25"/>
<text text-anchor="middle" x="236.62" y="-5.75" font-family="Helvetica,sans-Serif" font-size="10.00">translate_grid_kernel</text>
</a>
</g>
</g>
<!-- Node1&#45;&gt;Node8 -->
<g id="edge7_Node000001_Node000008" class="edge">
<title>Node1&#45;&gt;Node8</title>
<g id="a_edge7_Node000001_Node000008"><a xlink:title=" ">
<path fill="none" stroke="#63b8ff" d="M86.2,-73.61C106.23,-61.46 141.78,-40.95 174.25,-27.62 178.07,-26.06 182.08,-24.57 186.13,-23.16"/>
<polygon fill="#63b8ff" stroke="#63b8ff" points="187.03,-26.55 195.46,-20.12 184.86,-19.89 187.03,-26.55"/>
</a>
</g>
</g>
<!-- Node5 -->
<g id="Node000005" class="node">
<title>Node5</title>
<g id="a_Node000005"><a xlink:href="../../d3/d82/_c_type___elliptic___grid_8cpp_a9d9acf133a5b966f0cbd16a2c57a7d79.html#a9d9acf133a5b966f0cbd16a2c57a7d79" target="_top" xlink:title=" ">
<polygon fill="white" stroke="#666666" points="363.8,-111.25 335,-111.25 335,-92 363.8,-92 363.8,-111.25"/>
<text text-anchor="middle" x="349.4" y="-97.75" font-family="Helvetica,sans-Serif" font-size="10.00">x</text>
</a>
</g>
</g>
<!-- Node4&#45;&gt;Node5 -->
<g id="edge4_Node000004_Node000005" class="edge">
<title>Node4&#45;&gt;Node5</title>
<g id="a_edge4_Node000004_Node000005"><a xlink:title=" ">
<path fill="none" stroke="#63b8ff" d="M283.64,-91.1C297.41,-93.34 311.97,-95.7 323.79,-97.63"/>
<polygon fill="#63b8ff" stroke="#63b8ff" points="323.04,-101.05 333.47,-99.2 324.16,-94.14 323.04,-101.05"/>
</a>
</g>
</g>
<!-- Node6 -->
<g id="Node000006" class="node">
<title>Node6</title>
<g id="a_Node000006"><a xlink:href="../../d3/d82/_c_type___elliptic___grid_8cpp_aae4b761a64c952b4c008655d1dc59a12.html#aae4b761a64c952b4c008655d1dc59a12" target="_top" xlink:title=" ">
<polygon fill="white" stroke="#666666" points="363.8,-74.25 335,-74.25 335,-55 363.8,-55 363.8,-74.25"/>
<text text-anchor="middle" x="349.4" y="-60.75" font-family="Helvetica,sans-Serif" font-size="10.00">y</text>
</a>
</g>
</g>
<!-- Node4&#45;&gt;Node6 -->
<g id="edge5_Node000004_Node000006" class="edge">
<title>Node4&#45;&gt;Node6</title>
<g id="a_edge5_Node000004_Node000006"><a xlink:title=" ">
<path fill="none" stroke="#63b8ff" d="M283.64,-75.73C297.41,-73.37 311.97,-70.87 323.79,-68.85"/>
<polygon fill="#63b8ff" stroke="#63b8ff" points="324.21,-72.33 333.47,-67.19 323.03,-65.43 324.21,-72.33"/>
</a>
</g>
</g>
</g>
</svg>
