<?xml version="1.0" encoding="UTF-8" standalone="no"?>
<!DOCTYPE svg PUBLIC "-//W3C//DTD SVG 1.1//EN"
 "http://www.w3.org/Graphics/SVG/1.1/DTD/svg11.dtd">
<!-- Generated by graphviz version 12.2.1 (20241206.2353)
 -->
<!-- Title: launch_geometric_computations Pages: 1 -->
<svg width="325pt" height="138pt"
 viewBox="0.00 0.00 325.00 138.25" xmlns="http://www.w3.org/2000/svg" xmlns:xlink="http://www.w3.org/1999/xlink">
<g id="graph0" class="graph" transform="scale(1 1) rotate(0) translate(4 134.25)">
<title>launch_geometric_computations</title>
<!-- Node1 -->
<g id="Node000001" class="node">
<title>Node1</title>
<g id="a_Node000001"><a xlink:title=" ">
<polygon fill="#999999" stroke="#666666" points="156.25,-74.25 0,-74.25 0,-55 156.25,-55 156.25,-74.25"/>
<text text-anchor="middle" x="78.12" y="-60.75" font-family="Helvetica,sans-Serif" font-size="10.00">launch_geometric_computations</text>
</a>
</g>
</g>
<!-- Node2 -->
<g id="Node000002" class="node">
<title>Node2</title>
<g id="a_Node000002"><a xlink:href="../../d0/df8/_cuda___kernel___utilities_8h_a54c372187f54300d55c5415ca8084070.html#a54c372187f54300d55c5415ca8084070" target="_top" xlink:title=" ">
<polygon fill="white" stroke="#666666" points="304.25,-130.25 205,-130.25 205,-111 304.25,-111 304.25,-130.25"/>
<text text-anchor="middle" x="254.62" y="-116.75" font-family="Helvetica,sans-Serif" font-size="10.00">calculateBlockSize</text>
</a>
</g>
</g>
<!-- Node1&#45;&gt;Node2 -->
<g id="edge1_Node000001_Node000002" class="edge">
<title>Node1&#45;&gt;Node2</title>
<g id="a_edge1_Node000001_Node000002"><a xlink:title=" ">
<path fill="none" stroke="#63b8ff" d="M107.85,-74.62C130.66,-82.47 163.39,-93.55 192.25,-102.62 197.28,-104.21 202.56,-105.82 207.82,-107.4"/>
<polygon fill="#63b8ff" stroke="#63b8ff" points="206.47,-110.65 217.05,-110.15 208.46,-103.94 206.47,-110.65"/>
</a>
</g>
</g>
<!-- Node3 -->
<g id="Node000003" class="node">
<title>Node3</title>
<g id="a_Node000003"><a xlink:href="../../d9/d04/_grid___cuda___kernels_8h_a6b5498a4244beee490d2294216e77f4f.html#a6b5498a4244beee490d2294216e77f4f" target="_top" xlink:title=" ">
<polygon fill="white" stroke="#666666" points="317,-93.25 192.25,-93.25 192.25,-74 317,-74 317,-93.25"/>
<text text-anchor="middle" x="254.62" y="-79.75" font-family="Helvetica,sans-Serif" font-size="10.00">calculateGridSizeForGrid</text>
</a>
</g>
</g>
<!-- Node1&#45;&gt;Node3 -->
<g id="edge2_Node000001_Node000003" class="edge">
<title>Node1&#45;&gt;Node3</title>
<g id="a_edge2_Node000001_Node000003"><a xlink:title=" ">
<path fill="none" stroke="#63b8ff" d="M156.68,-73.07C164.57,-73.93 172.57,-74.8 180.41,-75.65"/>
<polygon fill="#63b8ff" stroke="#63b8ff" points="179.93,-79.12 190.25,-76.72 180.69,-72.16 179.93,-79.12"/>
</a>
</g>
</g>
<!-- Node4 -->
<g id="Node000004" class="node">
<title>Node4</title>
<g id="a_Node000004"><a xlink:href="../../d8/d50/_grid___cuda___kernels_8cu_ac9b8d67625145aeb1956d36f9d017ae1.html#ac9b8d67625145aeb1956d36f9d017ae1" target="_top" xlink:title=" ">
<polygon fill="white" stroke="#666666" points="317,-56.25 192.25,-56.25 192.25,-37 317,-37 317,-56.25"/>
<text text-anchor="middle" x="254.62" y="-42.75" font-family="Helvetica,sans-Serif" font-size="10.00">cross_product_3d_kernel</text>
</a>
</g>
</g>
<!-- Node1&#45;&gt;Node4 -->
<g id="edge3_Node000001_Node000004" class="edge">
<title>Node1&#45;&gt;Node4</title>
<g id="a_edge3_Node000001_Node000004"><a xlink:title=" ">
<path fill="none" stroke="#63b8ff" d="M156.68,-56.63C164.57,-55.81 172.57,-54.99 180.41,-54.18"/>
<polygon fill="#63b8ff" stroke="#63b8ff" points="180.66,-57.67 190.25,-53.16 179.94,-50.71 180.66,-57.67"/>
</a>
</g>
</g>
<!-- Node5 -->
<g id="Node000005" class="node">
<title>Node5</title>
<g id="a_Node000005"><a xlink:href="../../d8/d50/_grid___cuda___kernels_8cu_a13e920ccde40e000c4c500be95bd3966.html#a13e920ccde40e000c4c500be95bd3966" target="_top" xlink:title=" ">
<polygon fill="white" stroke="#666666" points="311.75,-19.25 197.5,-19.25 197.5,0 311.75,0 311.75,-19.25"/>
<text text-anchor="middle" x="254.62" y="-5.75" font-family="Helvetica,sans-Serif" font-size="10.00">dot_product_3d_kernel</text>
</a>
</g>
</g>
<!-- Node1&#45;&gt;Node5 -->
<g id="edge4_Node000001_Node000005" class="edge">
<title>Node1&#45;&gt;Node5</title>
<g id="a_edge4_Node000001_Node000005"><a xlink:title=" ">
<path fill="none" stroke="#63b8ff" d="M108.82,-54.64C131.59,-47.04 163.83,-36.44 192.25,-27.62 197.29,-26.06 202.57,-24.46 207.83,-22.89"/>
<polygon fill="#63b8ff" stroke="#63b8ff" points="208.47,-26.35 217.06,-20.15 206.48,-19.64 208.47,-26.35"/>
</a>
</g>
</g>
</g>
</svg>
