<?xml version="1.0" encoding="UTF-8" standalone="no"?>
<!DOCTYPE svg PUBLIC "-//W3C//DTD SVG 1.1//EN"
 "http://www.w3.org/Graphics/SVG/1.1/DTD/svg11.dtd">
<!-- Generated by graphviz version 12.2.1 (20241206.2353)
 -->
<!-- Title: launch_mark_refinement_cells Pages: 1 -->
<svg width="291pt" height="113pt"
 viewBox="0.00 0.00 291.25 112.88" xmlns="http://www.w3.org/2000/svg" xmlns:xlink="http://www.w3.org/1999/xlink">
<g id="graph0" class="graph" transform="scale(1 1) rotate(0) translate(4 108.88)">
<title>launch_mark_refinement_cells</title>
<!-- Node1 -->
<g id="Node000001" class="node">
<title>Node1</title>
<g id="a_Node000001"><a xlink:title=" ">
<polygon fill="#999999" stroke="#666666" points="122.5,-73.5 0,-73.5 0,-43 122.5,-43 122.5,-73.5"/>
<text text-anchor="start" x="8" y="-60" font-family="Helvetica,sans-Serif" font-size="10.00">launch_mark_refinement</text>
<text text-anchor="middle" x="61.25" y="-48.75" font-family="Helvetica,sans-Serif" font-size="10.00">_cells</text>
</a>
</g>
</g>
<!-- Node2 -->
<g id="Node000002" class="node">
<title>Node2</title>
<g id="a_Node000002"><a xlink:href="../../d0/df8/_cuda___kernel___utilities_8h_a54c372187f54300d55c5415ca8084070.html#a54c372187f54300d55c5415ca8084070" target="_top" xlink:title=" ">
<polygon fill="white" stroke="#666666" points="270.5,-104.88 171.25,-104.88 171.25,-85.62 270.5,-85.62 270.5,-104.88"/>
<text text-anchor="middle" x="220.88" y="-91.38" font-family="Helvetica,sans-Serif" font-size="10.00">calculateBlockSize</text>
</a>
</g>
</g>
<!-- Node1&#45;&gt;Node2 -->
<g id="edge1_Node000001_Node000002" class="edge">
<title>Node1&#45;&gt;Node2</title>
<g id="a_edge1_Node000001_Node000002"><a xlink:title=" ">
<path fill="none" stroke="#63b8ff" d="M122.74,-72.45C136.99,-75.79 152.09,-79.34 166.02,-82.61"/>
<polygon fill="#63b8ff" stroke="#63b8ff" points="164.9,-85.94 175.43,-84.82 166.5,-79.13 164.9,-85.94"/>
</a>
</g>
</g>
<!-- Node3 -->
<g id="Node000003" class="node">
<title>Node3</title>
<g id="a_Node000003"><a xlink:href="../../d9/d04/_grid___cuda___kernels_8h_a6b5498a4244beee490d2294216e77f4f.html#a6b5498a4244beee490d2294216e77f4f" target="_top" xlink:title=" ">
<polygon fill="white" stroke="#666666" points="283.25,-67.88 158.5,-67.88 158.5,-48.62 283.25,-48.62 283.25,-67.88"/>
<text text-anchor="middle" x="220.88" y="-54.38" font-family="Helvetica,sans-Serif" font-size="10.00">calculateGridSizeForGrid</text>
</a>
</g>
</g>
<!-- Node1&#45;&gt;Node3 -->
<g id="edge2_Node000001_Node000003" class="edge">
<title>Node1&#45;&gt;Node3</title>
<g id="a_edge2_Node000001_Node000003"><a xlink:title=" ">
<path fill="none" stroke="#63b8ff" d="M122.74,-58.25C130.65,-58.25 138.82,-58.25 146.9,-58.25"/>
<polygon fill="#63b8ff" stroke="#63b8ff" points="146.73,-61.75 156.73,-58.25 146.73,-54.75 146.73,-61.75"/>
</a>
</g>
</g>
<!-- Node4 -->
<g id="Node000004" class="node">
<title>Node4</title>
<g id="a_Node000004"><a xlink:href="../../d8/d50/_grid___cuda___kernels_8cu_af0c7379f4f9dfeccd56127d1d302ae66.html#af0c7379f4f9dfeccd56127d1d302ae66" target="_top" xlink:title=" ">
<polygon fill="white" stroke="#666666" points="278,-30.5 163.75,-30.5 163.75,0 278,0 278,-30.5"/>
<text text-anchor="start" x="171.75" y="-17" font-family="Helvetica,sans-Serif" font-size="10.00">mark_refinement_cells</text>
<text text-anchor="middle" x="220.88" y="-5.75" font-family="Helvetica,sans-Serif" font-size="10.00">_kernel</text>
</a>
</g>
</g>
<!-- Node1&#45;&gt;Node4 -->
<g id="edge3_Node000001_Node000004" class="edge">
<title>Node1&#45;&gt;Node4</title>
<g id="a_edge3_Node000001_Node000004"><a xlink:title=" ">
<path fill="none" stroke="#63b8ff" d="M119.6,-42.6C130.3,-39.69 141.56,-36.61 152.53,-33.62"/>
<polygon fill="#63b8ff" stroke="#63b8ff" points="153.17,-37.08 161.9,-31.07 151.33,-30.32 153.17,-37.08"/>
</a>
</g>
</g>
</g>
</svg>
