<?xml version="1.0" encoding="UTF-8" standalone="no"?>
<!DOCTYPE svg PUBLIC "-//W3C//DTD SVG 1.1//EN"
 "http://www.w3.org/Graphics/SVG/1.1/DTD/svg11.dtd">
<!-- Generated by graphviz version 12.2.1 (20241206.2353)
 -->
<!-- Title: launch_construct_cells_from_vtk Pages: 1 -->
<svg width="285pt" height="113pt"
 viewBox="0.00 0.00 284.50 112.88" xmlns="http://www.w3.org/2000/svg" xmlns:xlink="http://www.w3.org/1999/xlink">
<g id="graph0" class="graph" transform="scale(1 1) rotate(0) translate(4 108.88)">
<title>launch_construct_cells_from_vtk</title>
<!-- Node1 -->
<g id="Node000001" class="node">
<title>Node1</title>
<g id="a_Node000001"><a xlink:title=" ">
<polygon fill="#999999" stroke="#666666" points="115.75,-73.5 0,-73.5 0,-43 115.75,-43 115.75,-73.5"/>
<text text-anchor="start" x="8" y="-60" font-family="Helvetica,sans-Serif" font-size="10.00">launch_construct_cells</text>
<text text-anchor="middle" x="57.88" y="-48.75" font-family="Helvetica,sans-Serif" font-size="10.00">_from_vtk</text>
</a>
</g>
</g>
<!-- Node2 -->
<g id="Node000002" class="node">
<title>Node2</title>
<g id="a_Node000002"><a xlink:href="../../d0/df8/_cuda___kernel___utilities_8h_a54c372187f54300d55c5415ca8084070.html#a54c372187f54300d55c5415ca8084070" target="_top" xlink:title=" ">
<polygon fill="white" stroke="#666666" points="263.75,-104.88 164.5,-104.88 164.5,-85.62 263.75,-85.62 263.75,-104.88"/>
<text text-anchor="middle" x="214.12" y="-91.38" font-family="Helvetica,sans-Serif" font-size="10.00">calculateBlockSize</text>
</a>
</g>
</g>
<!-- Node1&#45;&gt;Node2 -->
<g id="edge1_Node000001_Node000002" class="edge">
<title>Node1&#45;&gt;Node2</title>
<g id="a_edge1_Node000001_Node000002"><a xlink:title=" ">
<path fill="none" stroke="#63b8ff" d="M115.87,-71.92C130.37,-75.4 145.88,-79.12 160.16,-82.54"/>
<polygon fill="#63b8ff" stroke="#63b8ff" points="159.29,-85.94 169.83,-84.87 160.93,-79.13 159.29,-85.94"/>
</a>
</g>
</g>
<!-- Node3 -->
<g id="Node000003" class="node">
<title>Node3</title>
<g id="a_Node000003"><a xlink:href="../../d9/d04/_grid___cuda___kernels_8h_a6b5498a4244beee490d2294216e77f4f.html#a6b5498a4244beee490d2294216e77f4f" target="_top" xlink:title=" ">
<polygon fill="white" stroke="#666666" points="276.5,-67.88 151.75,-67.88 151.75,-48.62 276.5,-48.62 276.5,-67.88"/>
<text text-anchor="middle" x="214.12" y="-54.38" font-family="Helvetica,sans-Serif" font-size="10.00">calculateGridSizeForGrid</text>
</a>
</g>
</g>
<!-- Node1&#45;&gt;Node3 -->
<g id="edge2_Node000001_Node000003" class="edge">
<title>Node1&#45;&gt;Node3</title>
<g id="a_edge2_Node000001_Node000003"><a xlink:title=" ">
<path fill="none" stroke="#63b8ff" d="M115.87,-58.25C123.75,-58.25 131.92,-58.25 140.04,-58.25"/>
<polygon fill="#63b8ff" stroke="#63b8ff" points="139.92,-61.75 149.92,-58.25 139.92,-54.75 139.92,-61.75"/>
</a>
</g>
</g>
<!-- Node4 -->
<g id="Node000004" class="node">
<title>Node4</title>
<g id="a_Node000004"><a xlink:href="../../d8/d50/_grid___cuda___kernels_8cu_a5b61995519945bed54c617de6aaa5db7.html#a5b61995519945bed54c617de6aaa5db7" target="_top" xlink:title=" ">
<polygon fill="white" stroke="#666666" points="267.5,-30.5 160.75,-30.5 160.75,0 267.5,0 267.5,-30.5"/>
<text text-anchor="start" x="168.75" y="-17" font-family="Helvetica,sans-Serif" font-size="10.00">construct_cells_from</text>
<text text-anchor="middle" x="214.12" y="-5.75" font-family="Helvetica,sans-Serif" font-size="10.00">_vtk_kernel</text>
</a>
</g>
</g>
<!-- Node1&#45;&gt;Node4 -->
<g id="edge3_Node000001_Node000004" class="edge">
<title>Node1&#45;&gt;Node4</title>
<g id="a_edge3_Node000001_Node000004"><a xlink:title=" ">
<path fill="none" stroke="#63b8ff" d="M115,-42.6C126.23,-39.47 138.1,-36.17 149.56,-32.97"/>
<polygon fill="#63b8ff" stroke="#63b8ff" points="150.23,-36.42 158.92,-30.36 148.35,-29.67 150.23,-36.42"/>
</a>
</g>
</g>
</g>
</svg>
