<?xml version="1.0" encoding="UTF-8" standalone="no"?>
<!DOCTYPE svg PUBLIC "-//W3C//DTD SVG 1.1//EN"
 "http://www.w3.org/Graphics/SVG/1.1/DTD/svg11.dtd">
<!-- Generated by graphviz version 12.2.1 (20241206.2353)
 -->
<!-- Title: estimate_grid_memory_usage Pages: 1 -->
<svg width="460pt" height="39pt"
 viewBox="0.00 0.00 459.50 38.50" xmlns="http://www.w3.org/2000/svg" xmlns:xlink="http://www.w3.org/1999/xlink">
<g id="graph0" class="graph" transform="scale(1 1) rotate(0) translate(4 34.5)">
<title>estimate_grid_memory_usage</title>
<!-- Node1 -->
<g id="Node000001" class="node">
<title>Node1</title>
<g id="a_Node000001"><a xlink:title=" ">
<polygon fill="#999999" stroke="#666666" points="451.5,-30.5 336.5,-30.5 336.5,0 451.5,0 451.5,-30.5"/>
<text text-anchor="start" x="344.5" y="-17" font-family="Helvetica,sans-Serif" font-size="10.00">estimate_grid_memory</text>
<text text-anchor="middle" x="394" y="-5.75" font-family="Helvetica,sans-Serif" font-size="10.00">_usage</text>
</a>
</g>
</g>
<!-- Node2 -->
<g id="Node000002" class="node">
<title>Node2</title>
<g id="a_Node000002"><a xlink:href="../../d8/dc5/class_grid_cuda_processor_acfc7de06c872d606527d95edb49c86be.html#acfc7de06c872d606527d95edb49c86be" target="_top" xlink:title=" ">
<polygon fill="white" stroke="#666666" points="300.5,-30.5 193,-30.5 193,0 300.5,0 300.5,-30.5"/>
<text text-anchor="start" x="201" y="-17" font-family="Helvetica,sans-Serif" font-size="10.00">GridCudaProcessor::</text>
<text text-anchor="middle" x="246.75" y="-5.75" font-family="Helvetica,sans-Serif" font-size="10.00">printGridStatistics</text>
</a>
</g>
</g>
<!-- Node1&#45;&gt;Node2 -->
<g id="edge1_Node000001_Node000002" class="edge">
<title>Node1&#45;&gt;Node2</title>
<g id="a_edge1_Node000001_Node000002"><a xlink:title=" ">
<path fill="none" stroke="#63b8ff" d="M324.73,-15.25C316.69,-15.25 308.57,-15.25 300.78,-15.25"/>
<polygon fill="#63b8ff" stroke="#63b8ff" points="324.5,-18.75 334.5,-15.25 324.5,-11.75 324.5,-18.75"/>
</a>
</g>
</g>
<!-- Node3 -->
<g id="Node000003" class="node">
<title>Node3</title>
<g id="a_Node000003"><a xlink:href="../../d3/d11/_grid___c_u_d_a___integration___example_8cpp_a75c5c5abd388c2792352980d7866d996.html#a75c5c5abd388c2792352980d7866d996" target="_top" xlink:title=" ">
<polygon fill="white" stroke="#666666" points="157,-24.88 0,-24.88 0,-5.63 157,-5.63 157,-24.88"/>
<text text-anchor="middle" x="78.5" y="-11.38" font-family="Helvetica,sans-Serif" font-size="10.00">demonstrateGridCudaIntegration</text>
</a>
</g>
</g>
<!-- Node2&#45;&gt;Node3 -->
<g id="edge2_Node000002_Node000003" class="edge">
<title>Node2&#45;&gt;Node3</title>
<g id="a_edge2_Node000002_Node000003"><a xlink:title=" ">
<path fill="none" stroke="#63b8ff" d="M181.32,-15.25C173.41,-15.25 165.27,-15.25 157.2,-15.25"/>
<polygon fill="#63b8ff" stroke="#63b8ff" points="181.18,-18.75 191.18,-15.25 181.18,-11.75 181.18,-18.75"/>
</a>
</g>
</g>
</g>
</svg>
