<?xml version="1.0" encoding="UTF-8" standalone="no"?>
<!DOCTYPE svg PUBLIC "-//W3C//DTD SVG 1.1//EN"
 "http://www.w3.org/Graphics/SVG/1.1/DTD/svg11.dtd">
<!-- Generated by graphviz version 12.2.1 (20241206.2353)
 -->
<!-- Title: launch_identify_neighbors Pages: 1 -->
<svg width="297pt" height="113pt"
 viewBox="0.00 0.00 297.25 112.88" xmlns="http://www.w3.org/2000/svg" xmlns:xlink="http://www.w3.org/1999/xlink">
<g id="graph0" class="graph" transform="scale(1 1) rotate(0) translate(4 108.88)">
<title>launch_identify_neighbors</title>
<!-- Node1 -->
<g id="Node000001" class="node">
<title>Node1</title>
<g id="a_Node000001"><a xlink:title=" ">
<polygon fill="#999999" stroke="#666666" points="128.5,-67.88 0,-67.88 0,-48.62 128.5,-48.62 128.5,-67.88"/>
<text text-anchor="middle" x="64.25" y="-54.38" font-family="Helvetica,sans-Serif" font-size="10.00">launch_identify_neighbors</text>
</a>
</g>
</g>
<!-- Node2 -->
<g id="Node000002" class="node">
<title>Node2</title>
<g id="a_Node000002"><a xlink:href="../../d0/df8/_cuda___kernel___utilities_8h_a54c372187f54300d55c5415ca8084070.html#a54c372187f54300d55c5415ca8084070" target="_top" xlink:title=" ">
<polygon fill="white" stroke="#666666" points="276.5,-104.88 177.25,-104.88 177.25,-85.62 276.5,-85.62 276.5,-104.88"/>
<text text-anchor="middle" x="226.88" y="-91.38" font-family="Helvetica,sans-Serif" font-size="10.00">calculateBlockSize</text>
</a>
</g>
</g>
<!-- Node1&#45;&gt;Node2 -->
<g id="edge1_Node000001_Node000002" class="edge">
<title>Node1&#45;&gt;Node2</title>
<g id="a_edge1_Node000001_Node000002"><a xlink:title=" ">
<path fill="none" stroke="#63b8ff" d="M109.14,-68.36C128.26,-72.77 150.88,-77.98 171.09,-82.63"/>
<polygon fill="#63b8ff" stroke="#63b8ff" points="170.03,-85.98 180.56,-84.81 171.6,-79.16 170.03,-85.98"/>
</a>
</g>
</g>
<!-- Node3 -->
<g id="Node000003" class="node">
<title>Node3</title>
<g id="a_Node000003"><a xlink:href="../../d9/d04/_grid___cuda___kernels_8h_a6b5498a4244beee490d2294216e77f4f.html#a6b5498a4244beee490d2294216e77f4f" target="_top" xlink:title=" ">
<polygon fill="white" stroke="#666666" points="289.25,-67.88 164.5,-67.88 164.5,-48.62 289.25,-48.62 289.25,-67.88"/>
<text text-anchor="middle" x="226.88" y="-54.38" font-family="Helvetica,sans-Serif" font-size="10.00">calculateGridSizeForGrid</text>
</a>
</g>
</g>
<!-- Node1&#45;&gt;Node3 -->
<g id="edge2_Node000001_Node000003" class="edge">
<title>Node1&#45;&gt;Node3</title>
<g id="a_edge2_Node000001_Node000003"><a xlink:title=" ">
<path fill="none" stroke="#63b8ff" d="M128.73,-58.25C136.66,-58.25 144.82,-58.25 152.87,-58.25"/>
<polygon fill="#63b8ff" stroke="#63b8ff" points="152.65,-61.75 162.65,-58.25 152.65,-54.75 152.65,-61.75"/>
</a>
</g>
</g>
<!-- Node4 -->
<g id="Node000004" class="node">
<title>Node4</title>
<g id="a_Node000004"><a xlink:href="../../d8/d50/_grid___cuda___kernels_8cu_a04eaa64ce97e5e28dc60bf3e4d5634d3.html#a04eaa64ce97e5e28dc60bf3e4d5634d3" target="_top" xlink:title=" ">
<polygon fill="white" stroke="#666666" points="274.25,-30.5 179.5,-30.5 179.5,0 274.25,0 274.25,-30.5"/>
<text text-anchor="start" x="187.5" y="-17" font-family="Helvetica,sans-Serif" font-size="10.00">identify_neighbors</text>
<text text-anchor="middle" x="226.88" y="-5.75" font-family="Helvetica,sans-Serif" font-size="10.00">_kernel</text>
</a>
</g>
</g>
<!-- Node1&#45;&gt;Node4 -->
<g id="edge3_Node000001_Node000004" class="edge">
<title>Node1&#45;&gt;Node4</title>
<g id="a_edge3_Node000001_Node000004"><a xlink:title=" ">
<path fill="none" stroke="#63b8ff" d="M102.91,-48.17C122.33,-42.97 146.45,-36.51 168.16,-30.7"/>
<polygon fill="#63b8ff" stroke="#63b8ff" points="169.05,-34.09 177.8,-28.12 167.24,-27.32 169.05,-34.09"/>
</a>
</g>
</g>
</g>
</svg>
