<?xml version="1.0" encoding="UTF-8" standalone="no"?>
<!DOCTYPE svg PUBLIC "-//W3C//DTD SVG 1.1//EN"
 "http://www.w3.org/Graphics/SVG/1.1/DTD/svg11.dtd">
<!-- Generated by graphviz version 12.2.1 (20241206.2353)
 -->
<!-- Title: Calculate_Computational_Variables Pages: 1 -->
<svg width="1258pt" height="102pt"
 viewBox="0.00 0.00 1258.25 102.25" xmlns="http://www.w3.org/2000/svg" xmlns:xlink="http://www.w3.org/1999/xlink">
<g id="graph0" class="graph" transform="scale(1 1) rotate(0) translate(4 98.25)">
<title>Calculate_Computational_Variables</title>
<!-- Node1 -->
<g id="Node000001" class="node">
<title>Node1</title>
<g id="a_Node000001"><a xlink:title=" ">
<polygon fill="#999999" stroke="#666666" points="1250.25,-62.88 1124.75,-62.88 1124.75,-32.38 1250.25,-32.38 1250.25,-62.88"/>
<text text-anchor="start" x="1132.75" y="-49.38" font-family="Helvetica,sans-Serif" font-size="10.00">Calculate_Computational</text>
<text text-anchor="middle" x="1187.5" y="-38.12" font-family="Helvetica,sans-Serif" font-size="10.00">_Variables</text>
</a>
</g>
</g>
<!-- Node2 -->
<g id="Node000002" class="node">
<title>Node2</title>
<g id="a_Node000002"><a xlink:href="../../d8/df4/_w_e_n_o2_d_8cpp_a41800d52b7dfe3e64e37ea4c0abae5bb.html#a41800d52b7dfe3e64e37ea4c0abae5bb" target="_top" xlink:title=" ">
<polygon fill="white" stroke="#666666" points="1088.75,-94.25 975.25,-94.25 975.25,-75 1088.75,-75 1088.75,-94.25"/>
<text text-anchor="middle" x="1032" y="-80.75" font-family="Helvetica,sans-Serif" font-size="10.00">Get_Reconstructed_U</text>
</a>
</g>
</g>
<!-- Node1&#45;&gt;Node2 -->
<g id="edge1_Node000001_Node000002" class="edge">
<title>Node1&#45;&gt;Node2</title>
<g id="a_edge1_Node000001_Node000002"><a xlink:title=" ">
<path fill="none" stroke="#63b8ff" d="M1113.48,-65.23C1100.28,-68.41 1086.92,-71.63 1074.99,-74.5"/>
<polygon fill="#63b8ff" stroke="#63b8ff" points="1114.14,-68.67 1123.04,-62.92 1112.49,-61.86 1114.14,-68.67"/>
</a>
</g>
</g>
<!-- Node12 -->
<g id="Node000012" class="node">
<title>Node12</title>
<g id="a_Node000012"><a xlink:href="../../d7/d6d/_initialize_8cpp_aa59beb74c9d4ef2bcd7e6d86f16dc682.html#aa59beb74c9d4ef2bcd7e6d86f16dc682" target="_top" xlink:title=" ">
<polygon fill="white" stroke="#666666" points="1058,-57.25 1006,-57.25 1006,-38 1058,-38 1058,-57.25"/>
<text text-anchor="middle" x="1032" y="-43.75" font-family="Helvetica,sans-Serif" font-size="10.00">Initialize</text>
</a>
</g>
</g>
<!-- Node1&#45;&gt;Node12 -->
<g id="edge12_Node000001_Node000012" class="edge">
<title>Node1&#45;&gt;Node12</title>
<g id="a_edge12_Node000001_Node000012"><a xlink:title=" ">
<path fill="none" stroke="#63b8ff" d="M1113.01,-47.62C1093.36,-47.62 1073.43,-47.62 1058.38,-47.62"/>
<polygon fill="#63b8ff" stroke="#63b8ff" points="1112.99,-51.13 1122.99,-47.63 1112.99,-44.13 1112.99,-51.13"/>
</a>
</g>
</g>
<!-- Node13 -->
<g id="Node000013" class="node">
<title>Node13</title>
<g id="a_Node000013"><a xlink:href="../../d3/db8/_initialize___test_case_8cpp_a4debd02bbc1736679fe1145738aba8c3.html#a4debd02bbc1736679fe1145738aba8c3" target="_top" xlink:title=" ">
<polygon fill="white" stroke="#666666" points="923.5,-19.25 824.25,-19.25 824.25,0 923.5,0 923.5,-19.25"/>
<text text-anchor="middle" x="873.88" y="-5.75" font-family="Helvetica,sans-Serif" font-size="10.00">Initialize_TestCase</text>
</a>
</g>
</g>
<!-- Node1&#45;&gt;Node13 -->
<g id="edge13_Node000001_Node000013" class="edge">
<title>Node1&#45;&gt;Node13</title>
<g id="a_edge13_Node000001_Node000013"><a xlink:title=" ">
<path fill="none" stroke="#63b8ff" d="M1113.2,-32.53C1104.97,-31.09 1096.69,-29.75 1088.75,-28.62 1032.46,-20.68 967.34,-15.45 923.88,-12.53"/>
<polygon fill="#63b8ff" stroke="#63b8ff" points="1112.4,-35.94 1122.86,-34.28 1113.64,-29.05 1112.4,-35.94"/>
</a>
</g>
</g>
<!-- Node3 -->
<g id="Node000003" class="node">
<title>Node3</title>
<g id="a_Node000003"><a xlink:href="../../d8/df4/_w_e_n_o2_d_8cpp_a9ad30d54bcfdc4e146d0dff2d3c22cdb.html#a9ad30d54bcfdc4e146d0dff2d3c22cdb" target="_top" xlink:title=" ">
<polygon fill="white" stroke="#666666" points="939.25,-94.25 808.5,-94.25 808.5,-75 939.25,-75 939.25,-94.25"/>
<text text-anchor="middle" x="873.88" y="-80.75" font-family="Helvetica,sans-Serif" font-size="10.00">WENO_Reconstruction_X</text>
</a>
</g>
</g>
<!-- Node2&#45;&gt;Node3 -->
<g id="edge2_Node000002_Node000003" class="edge">
<title>Node2&#45;&gt;Node3</title>
<g id="a_edge2_Node000002_Node000003"><a xlink:title=" ">
<path fill="none" stroke="#63b8ff" d="M963.61,-84.62C955.68,-84.62 947.6,-84.62 939.71,-84.62"/>
<polygon fill="#63b8ff" stroke="#63b8ff" points="963.56,-88.13 973.56,-84.63 963.56,-81.13 963.56,-88.13"/>
</a>
</g>
</g>
<!-- Node4 -->
<g id="Node000004" class="node">
<title>Node4</title>
<g id="a_Node000004"><a xlink:href="../../d8/df4/_w_e_n_o2_d_8cpp_a27359f46a5902f1f50547f76408a48aa.html#a27359f46a5902f1f50547f76408a48aa" target="_top" xlink:title=" ">
<polygon fill="white" stroke="#666666" points="772.5,-94.25 627.5,-94.25 627.5,-75 772.5,-75 772.5,-94.25"/>
<text text-anchor="middle" x="700" y="-80.75" font-family="Helvetica,sans-Serif" font-size="10.00">Calculate_Face_WENO_Flux</text>
</a>
</g>
</g>
<!-- Node3&#45;&gt;Node4 -->
<g id="edge3_Node000003_Node000004" class="edge">
<title>Node3&#45;&gt;Node4</title>
<g id="a_edge3_Node000003_Node000004"><a xlink:title=" ">
<path fill="none" stroke="#63b8ff" d="M797.08,-84.62C789,-84.62 780.8,-84.62 772.77,-84.62"/>
<polygon fill="#63b8ff" stroke="#63b8ff" points="796.87,-88.13 806.87,-84.63 796.87,-81.13 796.87,-88.13"/>
</a>
</g>
</g>
<!-- Node5 -->
<g id="Node000005" class="node">
<title>Node5</title>
<g id="a_Node000005"><a xlink:href="../../d8/df4/_w_e_n_o2_d_8cpp_a74c2795e4a164178c69743947d6e6cf5.html#a74c2795e4a164178c69743947d6e6cf5" target="_top" xlink:title=" ">
<polygon fill="white" stroke="#666666" points="591.5,-94.25 433,-94.25 433,-75 591.5,-75 591.5,-94.25"/>
<text text-anchor="middle" x="512.25" y="-80.75" font-family="Helvetica,sans-Serif" font-size="10.00">Evaluate_Cell_Net_Flux_WENO</text>
</a>
</g>
</g>
<!-- Node4&#45;&gt;Node5 -->
<g id="edge4_Node000004_Node000005" class="edge">
<title>Node4&#45;&gt;Node5</title>
<g id="a_edge4_Node000004_Node000005"><a xlink:title=" ">
<path fill="none" stroke="#63b8ff" d="M615.71,-84.62C607.81,-84.62 599.82,-84.62 591.97,-84.62"/>
<polygon fill="#63b8ff" stroke="#63b8ff" points="615.67,-88.13 625.67,-84.63 615.67,-81.13 615.67,-88.13"/>
</a>
</g>
</g>
<!-- Node6 -->
<g id="Node000006" class="node">
<title>Node6</title>
<g id="a_Node000006"><a xlink:href="../../d0/d64/_numerical___method_8cpp_a8dda0c7e17babab9b6e49e8e199dc30e.html#a8dda0c7e17babab9b6e49e8e199dc30e" target="_top" xlink:title=" ">
<polygon fill="white" stroke="#666666" points="384.62,-94.25 298.88,-94.25 298.88,-75 384.62,-75 384.62,-94.25"/>
<text text-anchor="middle" x="341.75" y="-80.75" font-family="Helvetica,sans-Serif" font-size="10.00">Explicit_Method</text>
</a>
</g>
</g>
<!-- Node5&#45;&gt;Node6 -->
<g id="edge5_Node000005_Node000006" class="edge">
<title>Node5&#45;&gt;Node6</title>
<g id="a_edge5_Node000005_Node000006"><a xlink:title=" ">
<path fill="none" stroke="#63b8ff" d="M421.69,-84.62C408.92,-84.62 396.31,-84.62 385.05,-84.62"/>
<polygon fill="#63b8ff" stroke="#63b8ff" points="421.41,-88.13 431.41,-84.63 421.41,-81.13 421.41,-88.13"/>
</a>
</g>
</g>
<!-- Node11 -->
<g id="Node000011" class="node">
<title>Node11</title>
<g id="a_Node000011"><a xlink:href="../../de/d22/_cuda___parallel___r_k_8cpp_a794f030971fbb7c9dd4bc08df03f50f1.html#a794f030971fbb7c9dd4bc08df03f50f1" target="_top" xlink:title=" ">
<polygon fill="white" stroke="#666666" points="397,-57.25 286.5,-57.25 286.5,-38 397,-38 397,-57.25"/>
<text text-anchor="middle" x="341.75" y="-43.75" font-family="Helvetica,sans-Serif" font-size="10.00">Runge_Kutta_Method</text>
</a>
</g>
</g>
<!-- Node5&#45;&gt;Node11 -->
<g id="edge11_Node000005_Node000011" class="edge">
<title>Node5&#45;&gt;Node11</title>
<g id="a_edge11_Node000005_Node000011"><a xlink:title=" ">
<path fill="none" stroke="#63b8ff" d="M454.02,-72.06C432.74,-67.38 408.88,-62.15 388.74,-57.72"/>
<polygon fill="#63b8ff" stroke="#63b8ff" points="453.21,-75.46 463.73,-74.19 454.71,-68.63 453.21,-75.46"/>
</a>
</g>
</g>
<!-- Node7 -->
<g id="Node000007" class="node">
<title>Node7</title>
<g id="a_Node000007"><a xlink:href="../../de/df0/_solver_8cpp_a09703a294b5a4e270033b2d488f8f02a.html#a09703a294b5a4e270033b2d488f8f02a" target="_top" xlink:title=" ">
<polygon fill="white" stroke="#666666" points="249.75,-94.25 167,-94.25 167,-75 249.75,-75 249.75,-94.25"/>
<text text-anchor="middle" x="208.38" y="-80.75" font-family="Helvetica,sans-Serif" font-size="10.00">Inviscid_Solver</text>
</a>
</g>
</g>
<!-- Node6&#45;&gt;Node7 -->
<g id="edge6_Node000006_Node000007" class="edge">
<title>Node6&#45;&gt;Node7</title>
<g id="a_edge6_Node000006_Node000007"><a xlink:title=" ">
<path fill="none" stroke="#63b8ff" d="M287.32,-84.62C274.95,-84.62 261.98,-84.62 250.24,-84.62"/>
<polygon fill="#63b8ff" stroke="#63b8ff" points="286.95,-88.13 296.95,-84.63 286.95,-81.13 286.95,-88.13"/>
</a>
</g>
</g>
<!-- Node10 -->
<g id="Node000010" class="node">
<title>Node10</title>
<g id="a_Node000010"><a xlink:href="../../de/df0/_solver_8cpp_a313c308da18b517cb3cf0384db6d4d7e.html#a313c308da18b517cb3cf0384db6d4d7e" target="_top" xlink:title=" ">
<polygon fill="white" stroke="#666666" points="250.5,-57.25 166.25,-57.25 166.25,-38 250.5,-38 250.5,-57.25"/>
<text text-anchor="middle" x="208.38" y="-43.75" font-family="Helvetica,sans-Serif" font-size="10.00">Viscous_Solver</text>
</a>
</g>
</g>
<!-- Node6&#45;&gt;Node10 -->
<g id="edge9_Node000006_Node000010" class="edge">
<title>Node6&#45;&gt;Node10</title>
<g id="a_edge9_Node000006_Node000010"><a xlink:title=" ">
<path fill="none" stroke="#63b8ff" d="M294.05,-71.47C278,-66.95 260.29,-61.96 245.23,-57.72"/>
<polygon fill="#63b8ff" stroke="#63b8ff" points="292.82,-74.76 303.39,-74.1 294.72,-68.02 292.82,-74.76"/>
</a>
</g>
</g>
<!-- Node8 -->
<g id="Node000008" class="node">
<title>Node8</title>
<g id="a_Node000008"><a xlink:href="../../d5/d12/_main_8cpp_afed4dca88e059a8cbd2c7af524468fe5.html#afed4dca88e059a8cbd2c7af524468fe5" target="_top" xlink:title="Executes the appropriate solver based on the simulation configuration.">
<polygon fill="white" stroke="#666666" points="130.25,-57.25 73,-57.25 73,-38 130.25,-38 130.25,-57.25"/>
<text text-anchor="middle" x="101.62" y="-43.75" font-family="Helvetica,sans-Serif" font-size="10.00">runSolver</text>
</a>
</g>
</g>
<!-- Node7&#45;&gt;Node8 -->
<g id="edge7_Node000007_Node000008" class="edge">
<title>Node7&#45;&gt;Node8</title>
<g id="a_edge7_Node000007_Node000008"><a xlink:title=" ">
<path fill="none" stroke="#63b8ff" d="M168.11,-70.76C155.6,-66.34 142.02,-61.54 130.49,-57.47"/>
<polygon fill="#63b8ff" stroke="#63b8ff" points="166.73,-73.98 177.32,-74.01 169.06,-67.38 166.73,-73.98"/>
</a>
</g>
</g>
<!-- Node9 -->
<g id="Node000009" class="node">
<title>Node9</title>
<g id="a_Node000009"><a xlink:href="../../d5/d12/_main_8cpp_a0ddf1224851353fc92bfbff6f499fa97.html#a0ddf1224851353fc92bfbff6f499fa97" target="_top" xlink:title=" ">
<polygon fill="white" stroke="#666666" points="37,-38.25 0,-38.25 0,-19 37,-19 37,-38.25"/>
<text text-anchor="middle" x="18.5" y="-24.75" font-family="Helvetica,sans-Serif" font-size="10.00">main</text>
</a>
</g>
</g>
<!-- Node8&#45;&gt;Node9 -->
<g id="edge8_Node000008_Node000009" class="edge">
<title>Node8&#45;&gt;Node9</title>
<g id="a_edge8_Node000008_Node000009"><a xlink:title=" ">
<path fill="none" stroke="#63b8ff" d="M61.67,-38.5C53.14,-36.5 44.51,-34.48 37.3,-32.79"/>
<polygon fill="#63b8ff" stroke="#63b8ff" points="60.7,-41.87 71.23,-40.74 62.29,-35.05 60.7,-41.87"/>
</a>
</g>
</g>
<!-- Node10&#45;&gt;Node8 -->
<g id="edge10_Node000010_Node000008" class="edge">
<title>Node10&#45;&gt;Node8</title>
<g id="a_edge10_Node000010_Node000008"><a xlink:title=" ">
<path fill="none" stroke="#63b8ff" d="M154.67,-47.62C146.33,-47.62 138,-47.62 130.52,-47.62"/>
<polygon fill="#63b8ff" stroke="#63b8ff" points="154.46,-51.13 164.46,-47.63 154.46,-44.13 154.46,-51.13"/>
</a>
</g>
</g>
<!-- Node13&#45;&gt;Node9 -->
<g id="edge14_Node000013_Node000009" class="edge">
<title>Node13&#45;&gt;Node9</title>
<g id="a_edge14_Node000013_Node000009"><a xlink:title=" ">
<path fill="none" stroke="#63b8ff" d="M812.57,-9.63C741.13,-9.63 618.52,-9.63 513.25,-9.62 513.25,-9.62 513.25,-9.62 207.38,-9.62 144.59,-9.62 70.61,-20.26 37.31,-25.61"/>
<polygon fill="#63b8ff" stroke="#63b8ff" points="812.5,-13.13 822.5,-9.63 812.5,-6.13 812.5,-13.13"/>
</a>
</g>
</g>
</g>
</svg>
