<?xml version="1.0" encoding="UTF-8" standalone="no"?>
<!DOCTYPE svg PUBLIC "-//W3C//DTD SVG 1.1//EN"
 "http://www.w3.org/Graphics/SVG/1.1/DTD/svg11.dtd">
<!-- Generated by graphviz version 12.2.1 (20241206.2353)
 -->
<!-- Title: include/Flux.h Pages: 1 -->
<svg width="1738pt" height="94pt"
 viewBox="0.00 0.00 1737.50 93.75" xmlns="http://www.w3.org/2000/svg" xmlns:xlink="http://www.w3.org/1999/xlink">
<g id="graph0" class="graph" transform="scale(1 1) rotate(0) translate(4 89.75)">
<title>include/Flux.h</title>
<!-- Node1 -->
<g id="Node000001" class="node">
<title>Node1</title>
<g id="a_Node000001"><a xlink:title=" ">
<polygon fill="#999999" stroke="#666666" points="927.38,-85.75 850.62,-85.75 850.62,-66.5 927.38,-66.5 927.38,-85.75"/>
<text text-anchor="middle" x="889" y="-72.25" font-family="Helvetica,sans-Serif" font-size="10.00">include/Flux.h</text>
</a>
</g>
</g>
<!-- Node2 -->
<g id="Node000002" class="node">
<title>Node2</title>
<g id="a_Node000002"><a xlink:href="../../d2/dec/_parallel___net___flux___evaluation_8cpp.html" target="_top" xlink:title=" ">
<polygon fill="white" stroke="#666666" points="166,-30.5 0,-30.5 0,0 166,0 166,-30.5"/>
<text text-anchor="start" x="8" y="-17" font-family="Helvetica,sans-Serif" font-size="10.00">Parallel_Method_Kernels</text>
<text text-anchor="middle" x="83" y="-5.75" font-family="Helvetica,sans-Serif" font-size="10.00">/Parallel_Net_Flux_Evaluation.cpp</text>
</a>
</g>
</g>
<!-- Node1&#45;&gt;Node2 -->
<g id="edge1_Node000001_Node000002" class="edge">
<title>Node1&#45;&gt;Node2</title>
<g id="a_edge1_Node000001_Node000002"><a xlink:title=" ">
<path fill="none" stroke="#63b8ff" d="M838.82,-73.56C722.08,-69.59 423.3,-57.43 175,-30.5 172.11,-30.19 169.17,-29.85 166.2,-29.49"/>
<polygon fill="#63b8ff" stroke="#63b8ff" points="838.57,-77.06 848.68,-73.89 838.81,-70.06 838.57,-77.06"/>
</a>
</g>
</g>
<!-- Node3 -->
<g id="Node000003" class="node">
<title>Node3</title>
<g id="a_Node000003"><a xlink:href="../../d6/dd7/_ausm___flux_8cpp.html" target="_top" xlink:title=" ">
<polygon fill="white" stroke="#666666" points="284.38,-24.88 183.62,-24.88 183.62,-5.63 284.38,-5.63 284.38,-24.88"/>
<text text-anchor="middle" x="234" y="-11.38" font-family="Helvetica,sans-Serif" font-size="10.00">src/Ausm_Flux.cpp</text>
</a>
</g>
</g>
<!-- Node1&#45;&gt;Node3 -->
<g id="edge2_Node000001_Node000003" class="edge">
<title>Node1&#45;&gt;Node3</title>
<g id="a_edge2_Node000001_Node000003"><a xlink:title=" ">
<path fill="none" stroke="#63b8ff" d="M839.16,-74.12C736.41,-71.45 493.85,-62.06 293,-30.5 284.67,-29.19 275.79,-27.31 267.51,-25.34"/>
<polygon fill="#63b8ff" stroke="#63b8ff" points="838.8,-77.61 848.89,-74.36 838.98,-70.61 838.8,-77.61"/>
</a>
</g>
</g>
<!-- Node4 -->
<g id="Node000004" class="node">
<title>Node4</title>
<g id="a_Node000004"><a xlink:href="../../d7/d5e/_average___interface___flux_8cpp.html" target="_top" xlink:title=" ">
<polygon fill="white" stroke="#666666" points="414,-30.5 302,-30.5 302,0 414,0 414,-30.5"/>
<text text-anchor="start" x="310" y="-17" font-family="Helvetica,sans-Serif" font-size="10.00">src/Average_Interface</text>
<text text-anchor="middle" x="358" y="-5.75" font-family="Helvetica,sans-Serif" font-size="10.00">_Flux.cpp</text>
</a>
</g>
</g>
<!-- Node1&#45;&gt;Node4 -->
<g id="edge3_Node000001_Node000004" class="edge">
<title>Node1&#45;&gt;Node4</title>
<g id="a_edge3_Node000001_Node000004"><a xlink:title=" ">
<path fill="none" stroke="#63b8ff" d="M838.68,-72.3C752.96,-67.04 573.3,-54.08 423,-30.5 420.15,-30.05 417.23,-29.56 414.29,-29.03"/>
<polygon fill="#63b8ff" stroke="#63b8ff" points="838.43,-75.79 848.63,-72.9 838.86,-68.8 838.43,-75.79"/>
</a>
</g>
</g>
<!-- Node5 -->
<g id="Node000005" class="node">
<title>Node5</title>
<g id="a_Node000005"><a xlink:href="../../de/d88/_l_l_f_8cpp.html" target="_top" xlink:title=" ">
<polygon fill="white" stroke="#666666" points="498.12,-24.88 431.88,-24.88 431.88,-5.63 498.12,-5.63 498.12,-24.88"/>
<text text-anchor="middle" x="465" y="-11.38" font-family="Helvetica,sans-Serif" font-size="10.00">src/LLF.cpp</text>
</a>
</g>
</g>
<!-- Node1&#45;&gt;Node5 -->
<g id="edge4_Node000001_Node000005" class="edge">
<title>Node1&#45;&gt;Node5</title>
<g id="a_edge4_Node000001_Node000005"><a xlink:title=" ">
<path fill="none" stroke="#63b8ff" d="M838.99,-72.52C765.66,-67.96 624.95,-56.44 508,-30.5 501.86,-29.14 495.36,-27.23 489.32,-25.26"/>
<polygon fill="#63b8ff" stroke="#63b8ff" points="838.47,-75.99 848.66,-73.1 838.89,-69 838.47,-75.99"/>
</a>
</g>
</g>
<!-- Node6 -->
<g id="Node000006" class="node">
<title>Node6</title>
<g id="a_Node000006"><a xlink:href="../../dd/d30/_m_o_v_e_r_s_8cpp.html" target="_top" xlink:title=" ">
<polygon fill="white" stroke="#666666" points="611.38,-24.88 516.62,-24.88 516.62,-5.63 611.38,-5.63 611.38,-24.88"/>
<text text-anchor="middle" x="564" y="-11.38" font-family="Helvetica,sans-Serif" font-size="10.00">src/MOVERS.cpp</text>
</a>
</g>
</g>
<!-- Node1&#45;&gt;Node6 -->
<g id="edge5_Node000001_Node000006" class="edge">
<title>Node1&#45;&gt;Node6</title>
<g id="a_edge5_Node000001_Node000006"><a xlink:title=" ">
<path fill="none" stroke="#63b8ff" d="M839.15,-68.15C784.98,-60.27 695.97,-46.44 620,-30.5 612.73,-28.98 604.99,-27.14 597.65,-25.31"/>
<polygon fill="#63b8ff" stroke="#63b8ff" points="838.6,-71.61 849,-69.57 839.6,-64.68 838.6,-71.61"/>
</a>
</g>
</g>
<!-- Node7 -->
<g id="Node000007" class="node">
<title>Node7</title>
<g id="a_Node000007"><a xlink:href="../../d9/d99/_m_o_v_e_r_s___n_w_s_c_8cpp.html" target="_top" xlink:title=" ">
<polygon fill="white" stroke="#666666" points="760.75,-24.88 629.25,-24.88 629.25,-5.63 760.75,-5.63 760.75,-24.88"/>
<text text-anchor="middle" x="695" y="-11.38" font-family="Helvetica,sans-Serif" font-size="10.00">src/MOVERS_NWSC.cpp</text>
</a>
</g>
</g>
<!-- Node1&#45;&gt;Node7 -->
<g id="edge6_Node000001_Node000007" class="edge">
<title>Node1&#45;&gt;Node7</title>
<g id="a_edge6_Node000001_Node000007"><a xlink:title=" ">
<path fill="none" stroke="#63b8ff" d="M848.25,-62.76C811.39,-51.57 757.97,-35.36 724.92,-25.33"/>
<polygon fill="#63b8ff" stroke="#63b8ff" points="847.08,-66.06 857.66,-65.62 849.11,-59.36 847.08,-66.06"/>
</a>
</g>
</g>
<!-- Node8 -->
<g id="Node000008" class="node">
<title>Node8</title>
<g id="a_Node000008"><a xlink:href="../../d7/db1/_net___flux_8cpp.html" target="_top" xlink:title=" ">
<polygon fill="white" stroke="#666666" points="869.5,-24.88 778.5,-24.88 778.5,-5.63 869.5,-5.63 869.5,-24.88"/>
<text text-anchor="middle" x="824" y="-11.38" font-family="Helvetica,sans-Serif" font-size="10.00">src/Net_Flux.cpp</text>
</a>
</g>
</g>
<!-- Node1&#45;&gt;Node8 -->
<g id="edge7_Node000001_Node000008" class="edge">
<title>Node1&#45;&gt;Node8</title>
<g id="a_edge7_Node000001_Node000008"><a xlink:title=" ">
<path fill="none" stroke="#63b8ff" d="M870.78,-58.62C858.85,-47.82 843.73,-34.12 833.97,-25.28"/>
<polygon fill="#63b8ff" stroke="#63b8ff" points="868.24,-61.05 878.01,-65.17 872.94,-55.86 868.24,-61.05"/>
</a>
</g>
</g>
<!-- Node9 -->
<g id="Node000009" class="node">
<title>Node9</title>
<g id="a_Node000009"><a xlink:href="../../d0/d64/_numerical___method_8cpp.html" target="_top" xlink:title=" ">
<polygon fill="white" stroke="#666666" points="1020.5,-24.88 887.5,-24.88 887.5,-5.63 1020.5,-5.63 1020.5,-24.88"/>
<text text-anchor="middle" x="954" y="-11.38" font-family="Helvetica,sans-Serif" font-size="10.00">src/Numerical_Method.cpp</text>
</a>
</g>
</g>
<!-- Node1&#45;&gt;Node9 -->
<g id="edge8_Node000001_Node000009" class="edge">
<title>Node1&#45;&gt;Node9</title>
<g id="a_edge8_Node000001_Node000009"><a xlink:title=" ">
<path fill="none" stroke="#63b8ff" d="M907.22,-58.62C919.15,-47.82 934.27,-34.12 944.03,-25.28"/>
<polygon fill="#63b8ff" stroke="#63b8ff" points="905.06,-55.86 899.99,-65.17 909.76,-61.05 905.06,-55.86"/>
</a>
</g>
</g>
<!-- Node10 -->
<g id="Node000010" class="node">
<title>Node10</title>
<g id="a_Node000010"><a xlink:href="../../df/d0f/_p_v_u___plus_8cpp.html" target="_top" xlink:title=" ">
<polygon fill="white" stroke="#666666" points="1135.5,-24.88 1038.5,-24.88 1038.5,-5.63 1135.5,-5.63 1135.5,-24.88"/>
<text text-anchor="middle" x="1087" y="-11.38" font-family="Helvetica,sans-Serif" font-size="10.00">src/PVU_Plus.cpp</text>
</a>
</g>
</g>
<!-- Node1&#45;&gt;Node10 -->
<g id="edge9_Node000001_Node000010" class="edge">
<title>Node1&#45;&gt;Node10</title>
<g id="a_edge9_Node000001_Node000010"><a xlink:title=" ">
<path fill="none" stroke="#63b8ff" d="M930.11,-62.9C967.74,-51.71 1022.58,-35.4 1056.46,-25.33"/>
<polygon fill="#63b8ff" stroke="#63b8ff" points="929.54,-59.42 920.95,-65.62 931.54,-66.13 929.54,-59.42"/>
</a>
</g>
</g>
<!-- Node11 -->
<g id="Node000011" class="node">
<title>Node11</title>
<g id="a_Node000011"><a xlink:href="../../d6/d22/_r_i_c_c_a_8cpp.html" target="_top" xlink:title=" ">
<polygon fill="white" stroke="#666666" points="1236.75,-24.88 1153.25,-24.88 1153.25,-5.63 1236.75,-5.63 1236.75,-24.88"/>
<text text-anchor="middle" x="1195" y="-11.38" font-family="Helvetica,sans-Serif" font-size="10.00">src/RICCA.cpp</text>
</a>
</g>
</g>
<!-- Node1&#45;&gt;Node11 -->
<g id="edge10_Node000001_Node000011" class="edge">
<title>Node1&#45;&gt;Node11</title>
<g id="a_edge10_Node000001_Node000011"><a xlink:title=" ">
<path fill="none" stroke="#63b8ff" d="M939.06,-67.99C990.89,-60.23 1074.07,-46.74 1145,-30.5 1151.51,-29.01 1158.44,-27.19 1164.99,-25.36"/>
<polygon fill="#63b8ff" stroke="#63b8ff" points="938.73,-64.5 929.35,-69.43 939.75,-71.43 938.73,-64.5"/>
</a>
</g>
</g>
<!-- Node12 -->
<g id="Node000012" class="node">
<title>Node12</title>
<g id="a_Node000012"><a xlink:href="../../d4/d20/_residual___smoothing_8cpp.html" target="_top" xlink:title=" ">
<polygon fill="white" stroke="#666666" points="1395.62,-24.88 1254.38,-24.88 1254.38,-5.63 1395.62,-5.63 1395.62,-24.88"/>
<text text-anchor="middle" x="1325" y="-11.38" font-family="Helvetica,sans-Serif" font-size="10.00">src/Residual_Smoothing.cpp</text>
</a>
</g>
</g>
<!-- Node1&#45;&gt;Node12 -->
<g id="edge11_Node000001_Node000012" class="edge">
<title>Node1&#45;&gt;Node12</title>
<g id="a_edge11_Node000001_Node000012"><a xlink:title=" ">
<path fill="none" stroke="#63b8ff" d="M939.05,-69.73C1008.21,-62.09 1136.85,-47.15 1246,-30.5 1256.06,-28.97 1266.8,-27.15 1277.03,-25.33"/>
<polygon fill="#63b8ff" stroke="#63b8ff" points="938.72,-66.25 929.16,-70.82 939.49,-73.21 938.72,-66.25"/>
</a>
</g>
</g>
<!-- Node13 -->
<g id="Node000013" class="node">
<title>Node13</title>
<g id="a_Node000013"><a xlink:href="../../d2/d7e/_roe___scheme_8cpp.html" target="_top" xlink:title=" ">
<polygon fill="white" stroke="#666666" points="1524.25,-24.88 1413.75,-24.88 1413.75,-5.63 1524.25,-5.63 1524.25,-24.88"/>
<text text-anchor="middle" x="1469" y="-11.38" font-family="Helvetica,sans-Serif" font-size="10.00">src/Roe_Scheme.cpp</text>
</a>
</g>
</g>
<!-- Node1&#45;&gt;Node13 -->
<g id="edge12_Node000001_Node000013" class="edge">
<title>Node1&#45;&gt;Node13</title>
<g id="a_edge12_Node000001_Node000013"><a xlink:title=" ">
<path fill="none" stroke="#63b8ff" d="M938.96,-73.01C1031.4,-68.61 1235.19,-56.63 1405,-30.5 1413.89,-29.13 1423.39,-27.25 1432.27,-25.31"/>
<polygon fill="#63b8ff" stroke="#63b8ff" points="939.06,-69.5 929.24,-73.46 939.39,-76.5 939.06,-69.5"/>
</a>
</g>
</g>
<!-- Node14 -->
<g id="Node000014" class="node">
<title>Node14</title>
<g id="a_Node000014"><a xlink:href="../../de/df0/_solver_8cpp.html" target="_top" xlink:title="This file contains the implementation of solvers for Euler equations and Navier&#45;Stokes equations.">
<polygon fill="white" stroke="#666666" points="1620.12,-24.88 1541.88,-24.88 1541.88,-5.63 1620.12,-5.63 1620.12,-24.88"/>
<text text-anchor="middle" x="1581" y="-11.38" font-family="Helvetica,sans-Serif" font-size="10.00">src/Solver.cpp</text>
</a>
</g>
</g>
<!-- Node1&#45;&gt;Node14 -->
<g id="edge13_Node000001_Node000014" class="edge">
<title>Node1&#45;&gt;Node14</title>
<g id="a_edge13_Node000001_Node000014"><a xlink:title=" ">
<path fill="none" stroke="#63b8ff" d="M939.11,-75.37C1048.07,-75.1 1314.33,-70.04 1533,-30.5 1539.93,-29.25 1547.28,-27.36 1554.09,-25.37"/>
<polygon fill="#63b8ff" stroke="#63b8ff" points="939.35,-71.87 929.35,-75.38 939.35,-78.87 939.35,-71.87"/>
</a>
</g>
</g>
<!-- Node15 -->
<g id="Node000015" class="node">
<title>Node15</title>
<g id="a_Node000015"><a xlink:href="../../dc/d12/_van___leer_8cpp.html" target="_top" xlink:title=" ">
<polygon fill="white" stroke="#666666" points="1729.5,-24.88 1638.5,-24.88 1638.5,-5.63 1729.5,-5.63 1729.5,-24.88"/>
<text text-anchor="middle" x="1684" y="-11.38" font-family="Helvetica,sans-Serif" font-size="10.00">src/Van_Leer.cpp</text>
</a>
</g>
</g>
<!-- Node1&#45;&gt;Node15 -->
<g id="edge14_Node000001_Node000015" class="edge">
<title>Node1&#45;&gt;Node15</title>
<g id="a_edge14_Node000001_Node000015"><a xlink:title=" ">
<path fill="none" stroke="#63b8ff" d="M939.14,-75.43C1059.11,-75.43 1371.87,-71.17 1629,-30.5 1636.89,-29.25 1645.3,-27.37 1653.1,-25.37"/>
<polygon fill="#63b8ff" stroke="#63b8ff" points="939.32,-71.93 929.32,-75.42 939.31,-78.93 939.32,-71.93"/>
</a>
</g>
</g>
</g>
</svg>
