<?xml version="1.0" encoding="UTF-8" standalone="no"?>
<!DOCTYPE svg PUBLIC "-//W3C//DTD SVG 1.1//EN"
 "http://www.w3.org/Graphics/SVG/1.1/DTD/svg11.dtd">
<!-- Generated by graphviz version 12.2.1 (20241206.2353)
 -->
<!-- Title: include/Flux.h Pages: 1 -->
<svg width="1674pt" height="94pt"
 viewBox="0.00 0.00 1673.88 93.75" xmlns="http://www.w3.org/2000/svg" xmlns:xlink="http://www.w3.org/1999/xlink">
<g id="graph0" class="graph" transform="scale(1 1) rotate(0) translate(4 89.75)">
<title>include/Flux.h</title>
<!-- Node1 -->
<g id="Node000001" class="node">
<title>Node1</title>
<g id="a_Node000001"><a xlink:title=" ">
<polygon fill="#999999" stroke="#666666" points="863.75,-85.75 787,-85.75 787,-66.5 863.75,-66.5 863.75,-85.75"/>
<text text-anchor="middle" x="825.38" y="-72.25" font-family="Helvetica,sans-Serif" font-size="10.00">include/Flux.h</text>
</a>
</g>
</g>
<!-- Node2 -->
<g id="Node000002" class="node">
<title>Node2</title>
<g id="a_Node000002"><a xlink:href="../../d6/dd7/_ausm___flux_8cpp.html" target="_top" xlink:title=" ">
<polygon fill="white" stroke="#666666" points="100.75,-24.88 0,-24.88 0,-5.63 100.75,-5.63 100.75,-24.88"/>
<text text-anchor="middle" x="50.38" y="-11.38" font-family="Helvetica,sans-Serif" font-size="10.00">src/Ausm_Flux.cpp</text>
</a>
</g>
</g>
<!-- Node1&#45;&gt;Node2 -->
<g id="edge1_Node000001_Node000002" class="edge">
<title>Node1&#45;&gt;Node2</title>
<g id="a_edge1_Node000001_Node000002"><a xlink:title=" ">
<path fill="none" stroke="#63b8ff" d="M775.29,-75C658.14,-74.06 357.33,-67.88 109.38,-30.5 100.93,-29.23 91.93,-27.33 83.56,-25.34"/>
<polygon fill="#63b8ff" stroke="#63b8ff" points="775.17,-78.5 785.19,-75.07 775.22,-71.5 775.17,-78.5"/>
</a>
</g>
</g>
<!-- Node3 -->
<g id="Node000003" class="node">
<title>Node3</title>
<g id="a_Node000003"><a xlink:href="../../d7/d5e/_average___interface___flux_8cpp.html" target="_top" xlink:title=" ">
<polygon fill="white" stroke="#666666" points="230.38,-30.5 118.38,-30.5 118.38,0 230.38,0 230.38,-30.5"/>
<text text-anchor="start" x="126.38" y="-17" font-family="Helvetica,sans-Serif" font-size="10.00">src/Average_Interface</text>
<text text-anchor="middle" x="174.38" y="-5.75" font-family="Helvetica,sans-Serif" font-size="10.00">_Flux.cpp</text>
</a>
</g>
</g>
<!-- Node1&#45;&gt;Node3 -->
<g id="edge2_Node000001_Node000003" class="edge">
<title>Node1&#45;&gt;Node3</title>
<g id="a_edge2_Node000001_Node000003"><a xlink:title=" ">
<path fill="none" stroke="#63b8ff" d="M775.36,-73.67C673.84,-70.21 436.49,-59.47 239.38,-30.5 236.52,-30.08 233.6,-29.61 230.66,-29.09"/>
<polygon fill="#63b8ff" stroke="#63b8ff" points="775.15,-77.17 785.26,-74 775.38,-70.17 775.15,-77.17"/>
</a>
</g>
</g>
<!-- Node4 -->
<g id="Node000004" class="node">
<title>Node4</title>
<g id="a_Node000004"><a xlink:href="../../de/d88/_l_l_f_8cpp.html" target="_top" xlink:title=" ">
<polygon fill="white" stroke="#666666" points="314.5,-24.88 248.25,-24.88 248.25,-5.63 314.5,-5.63 314.5,-24.88"/>
<text text-anchor="middle" x="281.38" y="-11.38" font-family="Helvetica,sans-Serif" font-size="10.00">src/LLF.cpp</text>
</a>
</g>
</g>
<!-- Node1&#45;&gt;Node4 -->
<g id="edge3_Node000001_Node000004" class="edge">
<title>Node1&#45;&gt;Node4</title>
<g id="a_edge3_Node000001_Node000004"><a xlink:title=" ">
<path fill="none" stroke="#63b8ff" d="M775.28,-74.48C684.46,-72.46 486.98,-64.21 324.38,-30.5 318.06,-29.19 311.38,-27.26 305.21,-25.24"/>
<polygon fill="#63b8ff" stroke="#63b8ff" points="775.01,-77.97 785.08,-74.68 775.15,-70.97 775.01,-77.97"/>
</a>
</g>
</g>
<!-- Node5 -->
<g id="Node000005" class="node">
<title>Node5</title>
<g id="a_Node000005"><a xlink:href="../../dd/d30/_m_o_v_e_r_s_8cpp.html" target="_top" xlink:title=" ">
<polygon fill="white" stroke="#666666" points="427.75,-24.88 333,-24.88 333,-5.63 427.75,-5.63 427.75,-24.88"/>
<text text-anchor="middle" x="380.38" y="-11.38" font-family="Helvetica,sans-Serif" font-size="10.00">src/MOVERS.cpp</text>
</a>
</g>
</g>
<!-- Node1&#45;&gt;Node5 -->
<g id="edge4_Node000001_Node000005" class="edge">
<title>Node1&#45;&gt;Node5</title>
<g id="a_edge4_Node000001_Node000005"><a xlink:title=" ">
<path fill="none" stroke="#63b8ff" d="M775.43,-71.56C701.08,-65.78 557.11,-52.68 436.38,-30.5 428.78,-29.1 420.68,-27.26 413.08,-25.36"/>
<polygon fill="#63b8ff" stroke="#63b8ff" points="775,-75.04 785.24,-72.32 775.53,-68.06 775,-75.04"/>
</a>
</g>
</g>
<!-- Node6 -->
<g id="Node000006" class="node">
<title>Node6</title>
<g id="a_Node000006"><a xlink:href="../../d9/d99/_m_o_v_e_r_s___n_w_s_c_8cpp.html" target="_top" xlink:title=" ">
<polygon fill="white" stroke="#666666" points="577.12,-24.88 445.62,-24.88 445.62,-5.63 577.12,-5.63 577.12,-24.88"/>
<text text-anchor="middle" x="511.38" y="-11.38" font-family="Helvetica,sans-Serif" font-size="10.00">src/MOVERS_NWSC.cpp</text>
</a>
</g>
</g>
<!-- Node1&#45;&gt;Node6 -->
<g id="edge5_Node000001_Node000006" class="edge">
<title>Node1&#45;&gt;Node6</title>
<g id="a_edge5_Node000001_Node000006"><a xlink:title=" ">
<path fill="none" stroke="#63b8ff" d="M775.79,-65.91C727.45,-56.92 651.85,-42.83 586.38,-30.5 577.52,-28.83 568.07,-27.04 558.98,-25.32"/>
<polygon fill="#63b8ff" stroke="#63b8ff" points="774.91,-69.31 785.38,-67.7 776.19,-62.43 774.91,-69.31"/>
</a>
</g>
</g>
<!-- Node7 -->
<g id="Node000007" class="node">
<title>Node7</title>
<g id="a_Node000007"><a xlink:href="../../d5/d25/_main___c_u_d_a_8cu.html" target="_top" xlink:title=" ">
<polygon fill="white" stroke="#666666" points="697.12,-24.88 595.62,-24.88 595.62,-5.63 697.12,-5.63 697.12,-24.88"/>
<text text-anchor="middle" x="646.38" y="-11.38" font-family="Helvetica,sans-Serif" font-size="10.00">src/Main_CUDA.cu</text>
</a>
</g>
</g>
<!-- Node1&#45;&gt;Node7 -->
<g id="edge6_Node000001_Node000007" class="edge">
<title>Node1&#45;&gt;Node7</title>
<g id="a_edge6_Node000001_Node000007"><a xlink:title=" ">
<path fill="none" stroke="#63b8ff" d="M786.89,-62.47C752.92,-51.29 704.22,-35.27 673.98,-25.33"/>
<polygon fill="#63b8ff" stroke="#63b8ff" points="785.77,-65.78 796.36,-65.58 787.95,-59.13 785.77,-65.78"/>
</a>
</g>
</g>
<!-- Node8 -->
<g id="Node000008" class="node">
<title>Node8</title>
<g id="a_Node000008"><a xlink:href="../../d7/db1/_net___flux_8cpp.html" target="_top" xlink:title=" ">
<polygon fill="white" stroke="#666666" points="805.88,-24.88 714.88,-24.88 714.88,-5.63 805.88,-5.63 805.88,-24.88"/>
<text text-anchor="middle" x="760.38" y="-11.38" font-family="Helvetica,sans-Serif" font-size="10.00">src/Net_Flux.cpp</text>
</a>
</g>
</g>
<!-- Node1&#45;&gt;Node8 -->
<g id="edge7_Node000001_Node000008" class="edge">
<title>Node1&#45;&gt;Node8</title>
<g id="a_edge7_Node000001_Node000008"><a xlink:title=" ">
<path fill="none" stroke="#63b8ff" d="M807.15,-58.62C795.23,-47.82 780.11,-34.12 770.34,-25.28"/>
<polygon fill="#63b8ff" stroke="#63b8ff" points="804.62,-61.05 814.38,-65.17 809.32,-55.86 804.62,-61.05"/>
</a>
</g>
</g>
<!-- Node9 -->
<g id="Node000009" class="node">
<title>Node9</title>
<g id="a_Node000009"><a xlink:href="../../d0/d64/_numerical___method_8cpp.html" target="_top" xlink:title=" ">
<polygon fill="white" stroke="#666666" points="956.88,-24.88 823.88,-24.88 823.88,-5.63 956.88,-5.63 956.88,-24.88"/>
<text text-anchor="middle" x="890.38" y="-11.38" font-family="Helvetica,sans-Serif" font-size="10.00">src/Numerical_Method.cpp</text>
</a>
</g>
</g>
<!-- Node1&#45;&gt;Node9 -->
<g id="edge8_Node000001_Node000009" class="edge">
<title>Node1&#45;&gt;Node9</title>
<g id="a_edge8_Node000001_Node000009"><a xlink:title=" ">
<path fill="none" stroke="#63b8ff" d="M843.6,-58.62C855.52,-47.82 870.64,-34.12 880.41,-25.28"/>
<polygon fill="#63b8ff" stroke="#63b8ff" points="841.43,-55.86 836.37,-65.17 846.13,-61.05 841.43,-55.86"/>
</a>
</g>
</g>
<!-- Node10 -->
<g id="Node000010" class="node">
<title>Node10</title>
<g id="a_Node000010"><a xlink:href="../../df/d0f/_p_v_u___plus_8cpp.html" target="_top" xlink:title=" ">
<polygon fill="white" stroke="#666666" points="1071.88,-24.88 974.88,-24.88 974.88,-5.63 1071.88,-5.63 1071.88,-24.88"/>
<text text-anchor="middle" x="1023.38" y="-11.38" font-family="Helvetica,sans-Serif" font-size="10.00">src/PVU_Plus.cpp</text>
</a>
</g>
</g>
<!-- Node1&#45;&gt;Node10 -->
<g id="edge9_Node000001_Node000010" class="edge">
<title>Node1&#45;&gt;Node10</title>
<g id="a_edge9_Node000001_Node000010"><a xlink:title=" ">
<path fill="none" stroke="#63b8ff" d="M866.48,-62.9C904.12,-51.71 958.96,-35.4 992.84,-25.33"/>
<polygon fill="#63b8ff" stroke="#63b8ff" points="865.92,-59.42 857.33,-65.62 867.91,-66.13 865.92,-59.42"/>
</a>
</g>
</g>
<!-- Node11 -->
<g id="Node000011" class="node">
<title>Node11</title>
<g id="a_Node000011"><a xlink:href="../../d6/d22/_r_i_c_c_a_8cpp.html" target="_top" xlink:title=" ">
<polygon fill="white" stroke="#666666" points="1173.12,-24.88 1089.62,-24.88 1089.62,-5.63 1173.12,-5.63 1173.12,-24.88"/>
<text text-anchor="middle" x="1131.38" y="-11.38" font-family="Helvetica,sans-Serif" font-size="10.00">src/RICCA.cpp</text>
</a>
</g>
</g>
<!-- Node1&#45;&gt;Node11 -->
<g id="edge10_Node000001_Node000011" class="edge">
<title>Node1&#45;&gt;Node11</title>
<g id="a_edge10_Node000001_Node000011"><a xlink:title=" ">
<path fill="none" stroke="#63b8ff" d="M875.43,-67.99C927.26,-60.23 1010.44,-46.74 1081.38,-30.5 1087.89,-29.01 1094.81,-27.19 1101.37,-25.36"/>
<polygon fill="#63b8ff" stroke="#63b8ff" points="875.1,-64.5 865.72,-69.43 876.13,-71.43 875.1,-64.5"/>
</a>
</g>
</g>
<!-- Node12 -->
<g id="Node000012" class="node">
<title>Node12</title>
<g id="a_Node000012"><a xlink:href="../../d4/d20/_residual___smoothing_8cpp.html" target="_top" xlink:title=" ">
<polygon fill="white" stroke="#666666" points="1332,-24.88 1190.75,-24.88 1190.75,-5.63 1332,-5.63 1332,-24.88"/>
<text text-anchor="middle" x="1261.38" y="-11.38" font-family="Helvetica,sans-Serif" font-size="10.00">src/Residual_Smoothing.cpp</text>
</a>
</g>
</g>
<!-- Node1&#45;&gt;Node12 -->
<g id="edge11_Node000001_Node000012" class="edge">
<title>Node1&#45;&gt;Node12</title>
<g id="a_edge11_Node000001_Node000012"><a xlink:title=" ">
<path fill="none" stroke="#63b8ff" d="M875.43,-69.73C944.59,-62.09 1073.22,-47.15 1182.38,-30.5 1192.43,-28.97 1203.18,-27.15 1213.4,-25.33"/>
<polygon fill="#63b8ff" stroke="#63b8ff" points="875.1,-66.25 865.54,-70.82 875.86,-73.21 875.1,-66.25"/>
</a>
</g>
</g>
<!-- Node13 -->
<g id="Node000013" class="node">
<title>Node13</title>
<g id="a_Node000013"><a xlink:href="../../d2/d7e/_roe___scheme_8cpp.html" target="_top" xlink:title=" ">
<polygon fill="white" stroke="#666666" points="1460.62,-24.88 1350.12,-24.88 1350.12,-5.63 1460.62,-5.63 1460.62,-24.88"/>
<text text-anchor="middle" x="1405.38" y="-11.38" font-family="Helvetica,sans-Serif" font-size="10.00">src/Roe_Scheme.cpp</text>
</a>
</g>
</g>
<!-- Node1&#45;&gt;Node13 -->
<g id="edge12_Node000001_Node000013" class="edge">
<title>Node1&#45;&gt;Node13</title>
<g id="a_edge12_Node000001_Node000013"><a xlink:title=" ">
<path fill="none" stroke="#63b8ff" d="M875.34,-73.01C967.78,-68.61 1171.56,-56.63 1341.38,-30.5 1350.26,-29.13 1359.76,-27.25 1368.64,-25.31"/>
<polygon fill="#63b8ff" stroke="#63b8ff" points="875.44,-69.5 865.61,-73.46 875.76,-76.5 875.44,-69.5"/>
</a>
</g>
</g>
<!-- Node14 -->
<g id="Node000014" class="node">
<title>Node14</title>
<g id="a_Node000014"><a xlink:href="../../de/df0/_solver_8cpp.html" target="_top" xlink:title="This file contains the implementation of solvers for Euler equations and Navier&#45;Stokes equations.">
<polygon fill="white" stroke="#666666" points="1556.5,-24.88 1478.25,-24.88 1478.25,-5.63 1556.5,-5.63 1556.5,-24.88"/>
<text text-anchor="middle" x="1517.38" y="-11.38" font-family="Helvetica,sans-Serif" font-size="10.00">src/Solver.cpp</text>
</a>
</g>
</g>
<!-- Node1&#45;&gt;Node14 -->
<g id="edge13_Node000001_Node000014" class="edge">
<title>Node1&#45;&gt;Node14</title>
<g id="a_edge13_Node000001_Node000014"><a xlink:title=" ">
<path fill="none" stroke="#63b8ff" d="M875.49,-75.37C984.44,-75.1 1250.71,-70.04 1469.38,-30.5 1476.3,-29.25 1483.65,-27.36 1490.46,-25.37"/>
<polygon fill="#63b8ff" stroke="#63b8ff" points="875.72,-71.87 865.72,-75.38 875.73,-78.87 875.72,-71.87"/>
</a>
</g>
</g>
<!-- Node15 -->
<g id="Node000015" class="node">
<title>Node15</title>
<g id="a_Node000015"><a xlink:href="../../dc/d12/_van___leer_8cpp.html" target="_top" xlink:title=" ">
<polygon fill="white" stroke="#666666" points="1665.88,-24.88 1574.88,-24.88 1574.88,-5.63 1665.88,-5.63 1665.88,-24.88"/>
<text text-anchor="middle" x="1620.38" y="-11.38" font-family="Helvetica,sans-Serif" font-size="10.00">src/Van_Leer.cpp</text>
</a>
</g>
</g>
<!-- Node1&#45;&gt;Node15 -->
<g id="edge14_Node000001_Node000015" class="edge">
<title>Node1&#45;&gt;Node15</title>
<g id="a_edge14_Node000001_Node000015"><a xlink:title=" ">
<path fill="none" stroke="#63b8ff" d="M875.51,-75.43C995.48,-75.43 1308.25,-71.17 1565.38,-30.5 1573.27,-29.25 1581.67,-27.37 1589.47,-25.37"/>
<polygon fill="#63b8ff" stroke="#63b8ff" points="875.7,-71.93 865.69,-75.42 875.69,-78.93 875.7,-71.93"/>
</a>
</g>
</g>
</g>
</svg>
