<?xml version="1.0" encoding="UTF-8" standalone="no"?>
<!DOCTYPE svg PUBLIC "-//W3C//DTD SVG 1.1//EN"
 "http://www.w3.org/Graphics/SVG/1.1/DTD/svg11.dtd">
<!-- Generated by graphviz version 12.2.1 (20241206.2353)
 -->
<!-- Title: Evaluate_Cell_Net_Flux_2O Pages: 1 -->
<svg width="771pt" height="366pt"
 viewBox="0.00 0.00 771.25 365.90" xmlns="http://www.w3.org/2000/svg" xmlns:xlink="http://www.w3.org/1999/xlink">
<g id="graph0" class="graph" transform="scale(1 1) rotate(0) translate(4 361.9)">
<title>Evaluate_Cell_Net_Flux_2O</title>
<!-- Node1 -->
<g id="Node000001" class="node">
<title>Node1</title>
<g id="a_Node000001"><a xlink:title=" ">
<polygon fill="#999999" stroke="#666666" points="139.75,-133.9 0,-133.9 0,-114.65 139.75,-114.65 139.75,-133.9"/>
<text text-anchor="middle" x="69.88" y="-120.4" font-family="Helvetica,sans-Serif" font-size="10.00">Evaluate_Cell_Net_Flux_2O</text>
</a>
</g>
</g>
<!-- Node2 -->
<g id="Node000002" class="node">
<title>Node2</title>
<g id="a_Node000002"><a xlink:href="../../d7/db1/_net___flux_8cpp_a7cee697783ecef13423db8d0fa585cbb.html#a7cee697783ecef13423db8d0fa585cbb" target="_top" xlink:title=" ">
<polygon fill="white" stroke="#666666" points="283.25,-329.52 182.5,-329.52 182.5,-299.02 283.25,-299.02 283.25,-329.52"/>
<text text-anchor="start" x="190.5" y="-316.02" font-family="Helvetica,sans-Serif" font-size="10.00">Calculate_Flux_For</text>
<text text-anchor="middle" x="232.88" y="-304.77" font-family="Helvetica,sans-Serif" font-size="10.00">_All_Faces</text>
</a>
</g>
</g>
<!-- Node1&#45;&gt;Node2 -->
<g id="edge1_Node000001_Node000002" class="edge">
<title>Node1&#45;&gt;Node2</title>
<g id="a_edge1_Node000001_Node000002"><a xlink:title=" ">
<path fill="none" stroke="#63b8ff" d="M78.19,-134.14C94.85,-156.45 137.14,-212.27 175.75,-256.27 186,-267.96 197.91,-280.41 208.11,-290.76"/>
<polygon fill="#63b8ff" stroke="#63b8ff" points="205.61,-293.21 215.14,-297.83 210.57,-288.27 205.61,-293.21"/>
</a>
</g>
</g>
<!-- Node4 -->
<g id="Node000004" class="node">
<title>Node4</title>
<g id="a_Node000004"><a xlink:href="../../d8/dec/_time___step_8cpp_a1a130a004ad45d61258215e5579c3060.html#a1a130a004ad45d61258215e5579c3060" target="_top" xlink:title=" ">
<polygon fill="white" stroke="#666666" points="286.25,-246.9 179.5,-246.9 179.5,-227.65 286.25,-227.65 286.25,-246.9"/>
<text text-anchor="middle" x="232.88" y="-233.4" font-family="Helvetica,sans-Serif" font-size="10.00">Evaluate_Time_Step</text>
</a>
</g>
</g>
<!-- Node1&#45;&gt;Node4 -->
<g id="edge3_Node000001_Node000004" class="edge">
<title>Node1&#45;&gt;Node4</title>
<g id="a_edge3_Node000001_Node000004"><a xlink:title=" ">
<path fill="none" stroke="#63b8ff" d="M85.16,-134.3C113.04,-153.87 174.91,-197.29 208.72,-221.02"/>
<polygon fill="#63b8ff" stroke="#63b8ff" points="206.41,-223.68 216.61,-226.56 210.44,-217.95 206.41,-223.68"/>
</a>
</g>
</g>
<!-- Node10 -->
<g id="Node000010" class="node">
<title>Node10</title>
<g id="a_Node000010"><a xlink:href="../../de/d88/_l_l_f_8cpp_a3f7724701b89e020e5e2cb9aee42ca55.html#a3f7724701b89e020e5e2cb9aee42ca55" target="_top" xlink:title=" ">
<polygon fill="white" stroke="#666666" points="258.12,-170.9 207.62,-170.9 207.62,-151.65 258.12,-151.65 258.12,-170.9"/>
<text text-anchor="middle" x="232.88" y="-157.4" font-family="Helvetica,sans-Serif" font-size="10.00">LLF_2O</text>
</a>
</g>
</g>
<!-- Node1&#45;&gt;Node10 -->
<g id="edge9_Node000001_Node000010" class="edge">
<title>Node1&#45;&gt;Node10</title>
<g id="a_edge9_Node000001_Node000010"><a xlink:title=" ">
<path fill="none" stroke="#63b8ff" d="M114.87,-134.38C140.47,-140.27 172.33,-147.59 196.33,-153.1"/>
<polygon fill="#63b8ff" stroke="#63b8ff" points="195.42,-156.48 205.95,-155.31 196.99,-149.66 195.42,-156.48"/>
</a>
</g>
</g>
<!-- Node15 -->
<g id="Node000015" class="node">
<title>Node15</title>
<g id="a_Node000015"><a xlink:href="../../dd/d30/_m_o_v_e_r_s_8cpp_a895c6dcdac689f71d89e341046362be9.html#a895c6dcdac689f71d89e341046362be9" target="_top" xlink:title=" ">
<polygon fill="white" stroke="#666666" points="601.75,-78.9 524.25,-78.9 524.25,-59.65 601.75,-59.65 601.75,-78.9"/>
<text text-anchor="middle" x="563" y="-65.4" font-family="Helvetica,sans-Serif" font-size="10.00">MOVERS_2O</text>
</a>
</g>
</g>
<!-- Node1&#45;&gt;Node15 -->
<g id="edge15_Node000001_Node000015" class="edge">
<title>Node1&#45;&gt;Node15</title>
<g id="a_edge15_Node000001_Node000015"><a xlink:title=" ">
<path fill="none" stroke="#63b8ff" d="M77.88,-114.44C92.99,-94.18 130.93,-48.28 175.75,-31.27 305.6,18.01 353.27,1.46 488.25,-31.27 505.87,-35.54 524,-44.81 537.87,-53.12"/>
<polygon fill="#63b8ff" stroke="#63b8ff" points="535.96,-56.05 546.29,-58.38 539.67,-50.11 535.96,-56.05"/>
</a>
</g>
</g>
<!-- Node18 -->
<g id="Node000018" class="node">
<title>Node18</title>
<g id="a_Node000018"><a xlink:href="../../d9/d99/_m_o_v_e_r_s___n_w_s_c_8cpp_a52270c83adc7b5111fd5b794d1d2f99a.html#a52270c83adc7b5111fd5b794d1d2f99a" target="_top" xlink:title=" ">
<polygon fill="white" stroke="#666666" points="290,-96.9 175.75,-96.9 175.75,-77.65 290,-77.65 290,-96.9"/>
<text text-anchor="middle" x="232.88" y="-83.4" font-family="Helvetica,sans-Serif" font-size="10.00">MOVERS_NWSC_2O</text>
</a>
</g>
</g>
<!-- Node1&#45;&gt;Node18 -->
<g id="edge20_Node000001_Node000018" class="edge">
<title>Node1&#45;&gt;Node18</title>
<g id="a_edge20_Node000001_Node000018"><a xlink:title=" ">
<path fill="none" stroke="#63b8ff" d="M114.87,-114.16C134.04,-109.76 156.71,-104.55 176.97,-99.89"/>
<polygon fill="#63b8ff" stroke="#63b8ff" points="177.5,-103.36 186.46,-97.71 175.93,-96.54 177.5,-103.36"/>
</a>
</g>
</g>
<!-- Node20 -->
<g id="Node000020" class="node">
<title>Node20</title>
<g id="a_Node000020"><a xlink:href="../../d6/d22/_r_i_c_c_a_8cpp_a8c2c0508c9bf49dfb9aab35d82f560ce.html#a8c2c0508c9bf49dfb9aab35d82f560ce" target="_top" xlink:title="Computes the dissipative flux for a given cell and face using the second&#45;order RICCA method.">
<polygon fill="white" stroke="#666666" points="266,-59.9 199.75,-59.9 199.75,-40.65 266,-40.65 266,-59.9"/>
<text text-anchor="middle" x="232.88" y="-46.4" font-family="Helvetica,sans-Serif" font-size="10.00">RICCA_2O</text>
</a>
</g>
</g>
<!-- Node1&#45;&gt;Node20 -->
<g id="edge23_Node000001_Node000020" class="edge">
<title>Node1&#45;&gt;Node20</title>
<g id="a_edge23_Node000001_Node000020"><a xlink:title=" ">
<path fill="none" stroke="#63b8ff" d="M87.49,-114.19C107.79,-102.16 143.44,-81.95 175.75,-68.27 179.87,-66.53 184.23,-64.85 188.61,-63.28"/>
<polygon fill="#63b8ff" stroke="#63b8ff" points="189.69,-66.6 198.02,-60.06 187.43,-59.98 189.69,-66.6"/>
</a>
</g>
</g>
<!-- Node22 -->
<g id="Node000022" class="node">
<title>Node22</title>
<g id="a_Node000022"><a xlink:href="../../d2/d7e/_roe___scheme_8cpp_ae1ea8008753b5cd1a6b353c362cb372d.html#ae1ea8008753b5cd1a6b353c362cb372d" target="_top" xlink:title=" ">
<polygon fill="white" stroke="#666666" points="260.75,-133.9 205,-133.9 205,-114.65 260.75,-114.65 260.75,-133.9"/>
<text text-anchor="middle" x="232.88" y="-120.4" font-family="Helvetica,sans-Serif" font-size="10.00">ROE_2O</text>
</a>
</g>
</g>
<!-- Node1&#45;&gt;Node22 -->
<g id="edge26_Node000001_Node000022" class="edge">
<title>Node1&#45;&gt;Node22</title>
<g id="a_edge26_Node000001_Node000022"><a xlink:title=" ">
<path fill="none" stroke="#63b8ff" d="M140.09,-124.27C158.47,-124.27 177.65,-124.27 193.69,-124.27"/>
<polygon fill="#63b8ff" stroke="#63b8ff" points="193.25,-127.77 203.25,-124.27 193.25,-120.77 193.25,-127.77"/>
</a>
</g>
</g>
<!-- Node3 -->
<g id="Node000003" class="node">
<title>Node3</title>
<g id="a_Node000003"><a xlink:href="../../d7/d5e/_average___interface___flux_8cpp_a372e43b702d58e007c6c18bd482ce84d.html#a372e43b702d58e007c6c18bd482ce84d" target="_top" xlink:title="Calculates the average convective flux at a given face of a cell.">
<polygon fill="white" stroke="#666666" points="481.88,-357.9 332.38,-357.9 332.38,-338.65 481.88,-338.65 481.88,-357.9"/>
<text text-anchor="middle" x="407.12" y="-344.4" font-family="Helvetica,sans-Serif" font-size="10.00">Calculate_Face_Average_Flux</text>
</a>
</g>
</g>
<!-- Node2&#45;&gt;Node3 -->
<g id="edge2_Node000002_Node000003" class="edge">
<title>Node2&#45;&gt;Node3</title>
<g id="a_edge2_Node000002_Node000003"><a xlink:title=" ">
<path fill="none" stroke="#63b8ff" d="M283.7,-324.11C302.47,-327.81 324.07,-332.07 343.84,-335.98"/>
<polygon fill="#63b8ff" stroke="#63b8ff" points="342.95,-339.37 353.43,-337.87 344.3,-332.5 342.95,-339.37"/>
</a>
</g>
</g>
<!-- Node5 -->
<g id="Node000005" class="node">
<title>Node5</title>
<g id="a_Node000005"><a xlink:href="../../d8/dec/_time___step_8cpp_a47640e22da2b590d3d2ddce8b175467c.html#a47640e22da2b590d3d2ddce8b175467c" target="_top" xlink:title=" ">
<polygon fill="white" stroke="#666666" points="458.25,-246.9 356,-246.9 356,-227.65 458.25,-227.65 458.25,-246.9"/>
<text text-anchor="middle" x="407.12" y="-233.4" font-family="Helvetica,sans-Serif" font-size="10.00">Inviscid_Time_Step</text>
</a>
</g>
</g>
<!-- Node4&#45;&gt;Node5 -->
<g id="edge4_Node000004_Node000005" class="edge">
<title>Node4&#45;&gt;Node5</title>
<g id="a_edge4_Node000004_Node000005"><a xlink:title=" ">
<path fill="none" stroke="#63b8ff" d="M286.49,-237.27C304.68,-237.27 325.23,-237.27 344.1,-237.27"/>
<polygon fill="#63b8ff" stroke="#63b8ff" points="344.09,-240.77 354.09,-237.27 344.09,-233.77 344.09,-240.77"/>
</a>
</g>
</g>
<!-- Node7 -->
<g id="Node000007" class="node">
<title>Node7</title>
<g id="a_Node000007"><a xlink:href="../../d8/dec/_time___step_8cpp_a36c2de590bd3f96d1bda12574ab41343.html#a36c2de590bd3f96d1bda12574ab41343" target="_top" xlink:title=" ">
<polygon fill="white" stroke="#666666" points="464.25,-209.9 350,-209.9 350,-190.65 464.25,-190.65 464.25,-209.9"/>
<text text-anchor="middle" x="407.12" y="-196.4" font-family="Helvetica,sans-Serif" font-size="10.00">Viscous_Time_Step_1</text>
</a>
</g>
</g>
<!-- Node4&#45;&gt;Node7 -->
<g id="edge6_Node000004_Node000007" class="edge">
<title>Node4&#45;&gt;Node7</title>
<g id="a_edge6_Node000004_Node000007"><a xlink:title=" ">
<path fill="none" stroke="#63b8ff" d="M280.94,-227.16C301.64,-222.72 326.15,-217.45 347.98,-212.76"/>
<polygon fill="#63b8ff" stroke="#63b8ff" points="348.59,-216.21 357.63,-210.69 347.12,-209.37 348.59,-216.21"/>
</a>
</g>
</g>
<!-- Node8 -->
<g id="Node000008" class="node">
<title>Node8</title>
<g id="a_Node000008"><a xlink:href="../../d8/dec/_time___step_8cpp_aae9689c4164406f72554331b4c337962.html#aae9689c4164406f72554331b4c337962" target="_top" xlink:title=" ">
<polygon fill="white" stroke="#666666" points="464.25,-320.9 350,-320.9 350,-301.65 464.25,-301.65 464.25,-320.9"/>
<text text-anchor="middle" x="407.12" y="-307.4" font-family="Helvetica,sans-Serif" font-size="10.00">Viscous_Time_Step_2</text>
</a>
</g>
</g>
<!-- Node4&#45;&gt;Node8 -->
<g id="edge7_Node000004_Node000008" class="edge">
<title>Node4&#45;&gt;Node8</title>
<g id="a_edge7_Node000004_Node000008"><a xlink:title=" ">
<path fill="none" stroke="#63b8ff" d="M247.18,-247.29C264.46,-259.84 295.97,-281.15 326,-293.27 330.31,-295.01 334.83,-296.6 339.42,-298.05"/>
<polygon fill="#63b8ff" stroke="#63b8ff" points="338.2,-301.34 348.78,-300.76 340.15,-294.62 338.2,-301.34"/>
</a>
</g>
</g>
<!-- Node9 -->
<g id="Node000009" class="node">
<title>Node9</title>
<g id="a_Node000009"><a xlink:href="../../d8/dec/_time___step_8cpp_ae5382f866df266ef31ad0bc1440ccadc.html#ae5382f866df266ef31ad0bc1440ccadc" target="_top" xlink:title=" ">
<polygon fill="white" stroke="#666666" points="464.25,-283.9 350,-283.9 350,-264.65 464.25,-264.65 464.25,-283.9"/>
<text text-anchor="middle" x="407.12" y="-270.4" font-family="Helvetica,sans-Serif" font-size="10.00">Viscous_Time_Step_3</text>
</a>
</g>
</g>
<!-- Node4&#45;&gt;Node9 -->
<g id="edge8_Node000004_Node000009" class="edge">
<title>Node4&#45;&gt;Node9</title>
<g id="a_edge8_Node000004_Node000009"><a xlink:title=" ">
<path fill="none" stroke="#63b8ff" d="M280.94,-247.38C301.64,-251.83 326.15,-257.09 347.98,-261.78"/>
<polygon fill="#63b8ff" stroke="#63b8ff" points="347.12,-265.18 357.63,-263.86 348.59,-258.33 347.12,-265.18"/>
</a>
</g>
</g>
<!-- Node6 -->
<g id="Node000006" class="node">
<title>Node6</title>
<g id="a_Node000006"><a xlink:href="../../dc/d3a/src_2_utility___files_8cpp_abf34e0b480f7580b0cd4237a76aed670.html#abf34e0b480f7580b0cd4237a76aed670" target="_top" xlink:title=" ">
<polygon fill="white" stroke="#666666" points="581.12,-246.9 544.88,-246.9 544.88,-227.65 581.12,-227.65 581.12,-246.9"/>
<text text-anchor="middle" x="563" y="-233.4" font-family="Helvetica,sans-Serif" font-size="10.00">Print</text>
</a>
</g>
</g>
<!-- Node5&#45;&gt;Node6 -->
<g id="edge5_Node000005_Node000006" class="edge">
<title>Node5&#45;&gt;Node6</title>
<g id="a_edge5_Node000005_Node000006"><a xlink:title=" ">
<path fill="none" stroke="#63b8ff" d="M458.51,-237.27C483.27,-237.27 512.22,-237.27 533.2,-237.27"/>
<polygon fill="#63b8ff" stroke="#63b8ff" points="533.02,-240.77 543.02,-237.27 533.02,-233.77 533.02,-240.77"/>
</a>
</g>
</g>
<!-- Node11 -->
<g id="Node000011" class="node">
<title>Node11</title>
<g id="a_Node000011"><a xlink:href="../../dc/d3a/src_2_utility___files_8cpp_aa047730c4b45792e657f98e973a2695f.html#aa047730c4b45792e657f98e973a2695f" target="_top" xlink:title=" ">
<polygon fill="white" stroke="#666666" points="729.88,-152.9 671.12,-152.9 671.12,-133.65 729.88,-133.65 729.88,-152.9"/>
<text text-anchor="middle" x="700.5" y="-139.4" font-family="Helvetica,sans-Serif" font-size="10.00">Maximum</text>
</a>
</g>
</g>
<!-- Node10&#45;&gt;Node11 -->
<g id="edge10_Node000010_Node000011" class="edge">
<title>Node10&#45;&gt;Node11</title>
<g id="a_edge10_Node000010_Node000011"><a xlink:title=" ">
<path fill="none" stroke="#63b8ff" d="M258.58,-160.32C334.67,-157.37 565.94,-148.43 659.54,-144.82"/>
<polygon fill="#63b8ff" stroke="#63b8ff" points="659.4,-148.32 669.26,-144.44 659.13,-141.33 659.4,-148.32"/>
</a>
</g>
</g>
<!-- Node12 -->
<g id="Node000012" class="node">
<title>Node12</title>
<g id="a_Node000012"><a xlink:href="../../d0/da3/_limiters_8cpp_a6bdb2d5e0ff963b9b5b395dc79a19acd.html#a6bdb2d5e0ff963b9b5b395dc79a19acd" target="_top" xlink:title="Computes the second&#45;order limited slopes and reconstructs variables for a given cell and face.">
<polygon fill="white" stroke="#666666" points="463.5,-133.9 350.75,-133.9 350.75,-114.65 463.5,-114.65 463.5,-133.9"/>
<text text-anchor="middle" x="407.12" y="-120.4" font-family="Helvetica,sans-Serif" font-size="10.00">Second_Order_Limiter</text>
</a>
</g>
</g>
<!-- Node10&#45;&gt;Node12 -->
<g id="edge11_Node000010_Node000012" class="edge">
<title>Node10&#45;&gt;Node12</title>
<g id="a_edge11_Node000010_Node000012"><a xlink:title=" ">
<path fill="none" stroke="#63b8ff" d="M258.55,-155.97C281.84,-150.97 317.62,-143.28 348.11,-136.73"/>
<polygon fill="#63b8ff" stroke="#63b8ff" points="348.55,-140.22 357.6,-134.7 347.08,-133.37 348.55,-140.22"/>
</a>
</g>
</g>
<!-- Node13 -->
<g id="Node000013" class="node">
<title>Node13</title>
<g id="a_Node000013"><a xlink:href="../../d0/da3/_limiters_8cpp_a01ee9151d91c270729e4d9df0a89e287.html#a01ee9151d91c270729e4d9df0a89e287" target="_top" xlink:title="Computes the MinMod limiter for three input values and updates the result in the provided reference.">
<polygon fill="white" stroke="#666666" points="588.25,-133.9 537.75,-133.9 537.75,-114.65 588.25,-114.65 588.25,-133.9"/>
<text text-anchor="middle" x="563" y="-120.4" font-family="Helvetica,sans-Serif" font-size="10.00">MinMod</text>
</a>
</g>
</g>
<!-- Node12&#45;&gt;Node13 -->
<g id="edge12_Node000012_Node000013" class="edge">
<title>Node12&#45;&gt;Node13</title>
<g id="a_edge12_Node000012_Node000013"><a xlink:title=" ">
<path fill="none" stroke="#63b8ff" d="M463.68,-124.27C484.44,-124.27 507.46,-124.27 526,-124.27"/>
<polygon fill="#63b8ff" stroke="#63b8ff" points="525.96,-127.77 535.96,-124.27 525.96,-120.77 525.96,-127.77"/>
</a>
</g>
</g>
<!-- Node13&#45;&gt;Node11 -->
<g id="edge13_Node000013_Node000011" class="edge">
<title>Node13&#45;&gt;Node11</title>
<g id="a_edge13_Node000013_Node000011"><a xlink:title=" ">
<path fill="none" stroke="#63b8ff" d="M588.54,-127.71C608.37,-130.49 636.68,-134.46 659.75,-137.7"/>
<polygon fill="#63b8ff" stroke="#63b8ff" points="659.03,-141.13 669.42,-139.05 660,-134.2 659.03,-141.13"/>
</a>
</g>
</g>
<!-- Node14 -->
<g id="Node000014" class="node">
<title>Node14</title>
<g id="a_Node000014"><a xlink:href="../../dc/d3a/src_2_utility___files_8cpp_a51be7d63194e92e29a4cd28e08d464bd.html#a51be7d63194e92e29a4cd28e08d464bd" target="_top" xlink:title=" ">
<polygon fill="white" stroke="#666666" points="728.38,-115.9 672.62,-115.9 672.62,-96.65 728.38,-96.65 728.38,-115.9"/>
<text text-anchor="middle" x="700.5" y="-102.4" font-family="Helvetica,sans-Serif" font-size="10.00">Minimum</text>
</a>
</g>
</g>
<!-- Node13&#45;&gt;Node14 -->
<g id="edge14_Node000013_Node000014" class="edge">
<title>Node13&#45;&gt;Node14</title>
<g id="a_edge14_Node000013_Node000014"><a xlink:title=" ">
<path fill="none" stroke="#63b8ff" d="M588.54,-121.01C608.76,-118.32 637.81,-114.47 661.11,-111.37"/>
<polygon fill="#63b8ff" stroke="#63b8ff" points="661.4,-114.86 670.85,-110.08 660.48,-107.92 661.4,-114.86"/>
</a>
</g>
</g>
<!-- Node15&#45;&gt;Node11 -->
<g id="edge18_Node000015_Node000011" class="edge">
<title>Node15&#45;&gt;Node11</title>
<g id="a_edge18_Node000015_Node000011"><a xlink:title=" ">
<path fill="none" stroke="#63b8ff" d="M574.63,-79.39C588.25,-91.83 613.05,-112.83 637.75,-125.27 644.65,-128.75 652.33,-131.66 659.87,-134.06"/>
<polygon fill="#63b8ff" stroke="#63b8ff" points="658.67,-137.35 669.25,-136.79 660.63,-130.63 658.67,-137.35"/>
</a>
</g>
</g>
<!-- Node15&#45;&gt;Node14 -->
<g id="edge19_Node000015_Node000014" class="edge">
<title>Node15&#45;&gt;Node14</title>
<g id="a_edge19_Node000015_Node000014"><a xlink:title=" ">
<path fill="none" stroke="#63b8ff" d="M601.03,-79.38C619.8,-84.51 642.57,-90.73 661.49,-95.89"/>
<polygon fill="#63b8ff" stroke="#63b8ff" points="660.38,-99.22 670.95,-98.47 662.22,-92.46 660.38,-99.22"/>
</a>
</g>
</g>
<!-- Node16 -->
<g id="Node000016" class="node">
<title>Node16</title>
<g id="a_Node000016"><a xlink:href="../../dd/d30/_m_o_v_e_r_s_8cpp_a765da73e807a2a843735cf15bb4a6c24.html#a765da73e807a2a843735cf15bb4a6c24" target="_top" xlink:title=" ">
<polygon fill="white" stroke="#666666" points="763.25,-78.9 637.75,-78.9 637.75,-59.65 763.25,-59.65 763.25,-78.9"/>
<text text-anchor="middle" x="700.5" y="-65.4" font-family="Helvetica,sans-Serif" font-size="10.00">Condition_For_MOVERS</text>
</a>
</g>
</g>
<!-- Node15&#45;&gt;Node16 -->
<g id="edge16_Node000015_Node000016" class="edge">
<title>Node15&#45;&gt;Node16</title>
<g id="a_edge16_Node000015_Node000016"><a xlink:title=" ">
<path fill="none" stroke="#63b8ff" d="M602.1,-69.27C609.64,-69.27 617.78,-69.27 626.04,-69.27"/>
<polygon fill="#63b8ff" stroke="#63b8ff" points="625.81,-72.77 635.81,-69.27 625.81,-65.77 625.81,-72.77"/>
</a>
</g>
</g>
<!-- Node17 -->
<g id="Node000017" class="node">
<title>Node17</title>
<g id="a_Node000017"><a xlink:href="../../dd/d30/_m_o_v_e_r_s_8cpp_a1e63c211b46cd735876d3f0df5f7330f.html#a1e63c211b46cd735876d3f0df5f7330f" target="_top" xlink:title=" ">
<polygon fill="white" stroke="#666666" points="734.75,-41.9 666.25,-41.9 666.25,-22.65 734.75,-22.65 734.75,-41.9"/>
<text text-anchor="middle" x="700.5" y="-28.4" font-family="Helvetica,sans-Serif" font-size="10.00">Entropy_Fix</text>
</a>
</g>
</g>
<!-- Node15&#45;&gt;Node17 -->
<g id="edge17_Node000015_Node000017" class="edge">
<title>Node15&#45;&gt;Node17</title>
<g id="a_edge17_Node000015_Node000017"><a xlink:title=" ">
<path fill="none" stroke="#63b8ff" d="M601.03,-59.16C617.61,-54.63 637.31,-49.25 654.72,-44.5"/>
<polygon fill="#63b8ff" stroke="#63b8ff" points="655.58,-47.89 664.31,-41.88 653.74,-41.14 655.58,-47.89"/>
</a>
</g>
</g>
<!-- Node18&#45;&gt;Node12 -->
<g id="edge22_Node000018_Node000012" class="edge">
<title>Node18&#45;&gt;Node12</title>
<g id="a_edge22_Node000018_Node000012"><a xlink:title=" ">
<path fill="none" stroke="#63b8ff" d="M280.94,-97.38C301.64,-101.83 326.15,-107.09 347.98,-111.78"/>
<polygon fill="#63b8ff" stroke="#63b8ff" points="347.12,-115.18 357.63,-113.86 348.59,-108.33 347.12,-115.18"/>
</a>
</g>
</g>
<!-- Node19 -->
<g id="Node000019" class="node">
<title>Node19</title>
<g id="a_Node000019"><a xlink:href="../../d9/d99/_m_o_v_e_r_s___n_w_s_c_8cpp_aa1addb77100799eb21d8ea96fc1d718b.html#aa1addb77100799eb21d8ea96fc1d718b" target="_top" xlink:title=" ">
<polygon fill="white" stroke="#666666" points="488.25,-96.9 326,-96.9 326,-77.65 488.25,-77.65 488.25,-96.9"/>
<text text-anchor="middle" x="407.12" y="-83.4" font-family="Helvetica,sans-Serif" font-size="10.00">Condition_For_MOVERS_NWSC</text>
</a>
</g>
</g>
<!-- Node18&#45;&gt;Node19 -->
<g id="edge21_Node000018_Node000019" class="edge">
<title>Node18&#45;&gt;Node19</title>
<g id="a_edge21_Node000018_Node000019"><a xlink:title=" ">
<path fill="none" stroke="#63b8ff" d="M290.28,-87.27C297.95,-87.27 305.97,-87.27 314.07,-87.27"/>
<polygon fill="#63b8ff" stroke="#63b8ff" points="314.02,-90.77 324.02,-87.27 314.02,-83.77 314.02,-90.77"/>
</a>
</g>
</g>
<!-- Node20&#45;&gt;Node12 -->
<g id="edge25_Node000020_Node000012" class="edge">
<title>Node20&#45;&gt;Node12</title>
<g id="a_edge25_Node000020_Node000012"><a xlink:title=" ">
<path fill="none" stroke="#63b8ff" d="M266.28,-57.63C274.38,-60.27 282.81,-63.75 290,-68.27 309.69,-80.66 305.77,-94.78 326,-106.27 330.37,-108.76 335.06,-110.9 339.89,-112.74"/>
<polygon fill="#63b8ff" stroke="#63b8ff" points="338.61,-116 349.21,-115.85 340.83,-109.36 338.61,-116"/>
</a>
</g>
</g>
<!-- Node21 -->
<g id="Node000021" class="node">
<title>Node21</title>
<g id="a_Node000021"><a xlink:href="../../d6/d22/_r_i_c_c_a_8cpp_aed1d8bf7f1afd6d7e89c781f4922d05c.html#aed1d8bf7f1afd6d7e89c781f4922d05c" target="_top" xlink:title="Computes the Alpha parameter for the RICCA condition based on input variables.">
<polygon fill="white" stroke="#666666" points="464.25,-59.9 350,-59.9 350,-40.65 464.25,-40.65 464.25,-59.9"/>
<text text-anchor="middle" x="407.12" y="-46.4" font-family="Helvetica,sans-Serif" font-size="10.00">Condition_For_RICCA</text>
</a>
</g>
</g>
<!-- Node20&#45;&gt;Node21 -->
<g id="edge24_Node000020_Node000021" class="edge">
<title>Node20&#45;&gt;Node21</title>
<g id="a_edge24_Node000020_Node000021"><a xlink:title=" ">
<path fill="none" stroke="#63b8ff" d="M266.27,-50.27C286.64,-50.27 313.68,-50.27 338.56,-50.27"/>
<polygon fill="#63b8ff" stroke="#63b8ff" points="338.29,-53.77 348.29,-50.27 338.29,-46.77 338.29,-53.77"/>
</a>
</g>
</g>
<!-- Node22&#45;&gt;Node12 -->
<g id="edge27_Node000022_Node000012" class="edge">
<title>Node22&#45;&gt;Node12</title>
<g id="a_edge27_Node000022_Node000012"><a xlink:title=" ">
<path fill="none" stroke="#63b8ff" d="M261.17,-124.27C282.09,-124.27 311.87,-124.27 339.01,-124.27"/>
<polygon fill="#63b8ff" stroke="#63b8ff" points="338.93,-127.77 348.93,-124.27 338.93,-120.77 338.93,-127.77"/>
</a>
</g>
</g>
</g>
</svg>
