<?xml version="1.0" encoding="UTF-8" standalone="no"?>
<!DOCTYPE svg PUBLIC "-//W3C//DTD SVG 1.1//EN"
 "http://www.w3.org/Graphics/SVG/1.1/DTD/svg11.dtd">
<!-- Generated by graphviz version 12.2.1 (20241206.2353)
 -->
<!-- Title: Print Pages: 1 -->
<svg width="1154pt" height="321pt"
 viewBox="0.00 0.00 1153.75 320.88" xmlns="http://www.w3.org/2000/svg" xmlns:xlink="http://www.w3.org/1999/xlink">
<g id="graph0" class="graph" transform="scale(1 1) rotate(0) translate(4 316.88)">
<title>Print</title>
<!-- Node1 -->
<g id="Node000001" class="node">
<title>Node1</title>
<g id="a_Node000001"><a xlink:title=" ">
<polygon fill="#999999" stroke="#666666" points="1145.75,-114.25 1109.5,-114.25 1109.5,-95 1145.75,-95 1145.75,-114.25"/>
<text text-anchor="middle" x="1127.62" y="-100.75" font-family="Helvetica,sans-Serif" font-size="10.00">Print</text>
</a>
</g>
</g>
<!-- Node2 -->
<g id="Node000002" class="node">
<title>Node2</title>
<g id="a_Node000002"><a xlink:href="../../d8/d40/_grid___computations_8cpp_ad05b7e634e44bbae403fca5198edcac1.html#ad05b7e634e44bbae403fca5198edcac1" target="_top" xlink:title=" ">
<polygon fill="white" stroke="#666666" points="1050.62,-188.25 964.88,-188.25 964.88,-169 1050.62,-169 1050.62,-188.25"/>
<text text-anchor="middle" x="1007.75" y="-174.75" font-family="Helvetica,sans-Serif" font-size="10.00">Construct_Face</text>
</a>
</g>
</g>
<!-- Node1&#45;&gt;Node2 -->
<g id="edge1_Node000001_Node000002" class="edge">
<title>Node1&#45;&gt;Node2</title>
<g id="a_edge1_Node000001_Node000002"><a xlink:title=" ">
<path fill="none" stroke="#63b8ff" d="M1113.12,-123.46C1103.4,-135.72 1089.27,-151.14 1073.5,-160.62 1066.6,-164.77 1058.72,-167.99 1050.88,-170.48"/>
<polygon fill="#63b8ff" stroke="#63b8ff" points="1115.76,-125.78 1119,-115.69 1110.18,-121.55 1115.76,-125.78"/>
</a>
</g>
</g>
<!-- Node3 -->
<g id="Node000003" class="node">
<title>Node3</title>
<g id="a_Node000003"><a xlink:href="../../d8/d40/_grid___computations_8cpp_a1f273579608200866e02e34f16a3eb6b.html#a1f273579608200866e02e34f16a3eb6b" target="_top" xlink:title=" ">
<polygon fill="white" stroke="#666666" points="1073.5,-151.25 942,-151.25 942,-132 1073.5,-132 1073.5,-151.25"/>
<text text-anchor="middle" x="1007.75" y="-137.75" font-family="Helvetica,sans-Serif" font-size="10.00">Distance_Between_Points</text>
</a>
</g>
</g>
<!-- Node1&#45;&gt;Node3 -->
<g id="edge2_Node000001_Node000003" class="edge">
<title>Node1&#45;&gt;Node3</title>
<g id="a_edge2_Node000001_Node000003"><a xlink:title=" ">
<path fill="none" stroke="#63b8ff" d="M1098.36,-115.16C1090.36,-118.03 1081.62,-121.05 1073.5,-123.62 1064.94,-126.34 1055.67,-129.05 1046.89,-131.52"/>
<polygon fill="#63b8ff" stroke="#63b8ff" points="1099.4,-118.51 1107.6,-111.8 1097.01,-111.93 1099.4,-118.51"/>
</a>
</g>
</g>
<!-- Node16 -->
<g id="Node000016" class="node">
<title>Node16</title>
<g id="a_Node000016"><a xlink:href="../../d8/d40/_grid___computations_8cpp_aa57333c19eb3521dff030bda00bba0e6.html#aa57333c19eb3521dff030bda00bba0e6" target="_top" xlink:title=" ">
<polygon fill="white" stroke="#666666" points="1064.88,-40.25 950.62,-40.25 950.62,-21 1064.88,-21 1064.88,-40.25"/>
<text text-anchor="middle" x="1007.75" y="-26.75" font-family="Helvetica,sans-Serif" font-size="10.00">Find_Minimum_Length</text>
</a>
</g>
</g>
<!-- Node1&#45;&gt;Node16 -->
<g id="edge15_Node000001_Node000016" class="edge">
<title>Node1&#45;&gt;Node16</title>
<g id="a_edge15_Node000001_Node000016"><a xlink:title=" ">
<path fill="none" stroke="#63b8ff" d="M1113.12,-85.79C1103.4,-73.53 1089.27,-58.11 1073.5,-48.62 1068.3,-45.5 1062.54,-42.9 1056.67,-40.74"/>
<polygon fill="#63b8ff" stroke="#63b8ff" points="1110.18,-87.7 1119,-93.56 1115.76,-83.47 1110.18,-87.7"/>
</a>
</g>
</g>
<!-- Node17 -->
<g id="Node000017" class="node">
<title>Node17</title>
<g id="a_Node000017"><a xlink:href="../../d8/dec/_time___step_8cpp_a47640e22da2b590d3d2ddce8b175467c.html#a47640e22da2b590d3d2ddce8b175467c" target="_top" xlink:title=" ">
<polygon fill="white" stroke="#666666" points="1058.88,-77.25 956.62,-77.25 956.62,-58 1058.88,-58 1058.88,-77.25"/>
<text text-anchor="middle" x="1007.75" y="-63.75" font-family="Helvetica,sans-Serif" font-size="10.00">Inviscid_Time_Step</text>
</a>
</g>
</g>
<!-- Node1&#45;&gt;Node17 -->
<g id="edge16_Node000001_Node000017" class="edge">
<title>Node1&#45;&gt;Node17</title>
<g id="a_edge16_Node000001_Node000017"><a xlink:title=" ">
<path fill="none" stroke="#63b8ff" d="M1098.36,-94.09C1090.36,-91.22 1081.62,-88.2 1073.5,-85.62 1064.94,-82.91 1055.67,-80.2 1046.89,-77.73"/>
<polygon fill="#63b8ff" stroke="#63b8ff" points="1097.01,-97.32 1107.6,-97.45 1099.4,-90.74 1097.01,-97.32"/>
</a>
</g>
</g>
<!-- Node27 -->
<g id="Node000027" class="node">
<title>Node27</title>
<g id="a_Node000027"><a xlink:href="../../d0/ded/_read___gmsh___file_8cpp_af5022e986434a24c3f27a650cf4aeb76.html#af5022e986434a24c3f27a650cf4aeb76" target="_top" xlink:title=" ">
<polygon fill="white" stroke="#666666" points="1051.38,-114.25 964.12,-114.25 964.12,-95 1051.38,-95 1051.38,-114.25"/>
<text text-anchor="middle" x="1007.75" y="-100.75" font-family="Helvetica,sans-Serif" font-size="10.00">Read_VTK_Grid</text>
</a>
</g>
</g>
<!-- Node1&#45;&gt;Node27 -->
<g id="edge28_Node000001_Node000027" class="edge">
<title>Node1&#45;&gt;Node27</title>
<g id="a_edge28_Node000001_Node000027"><a xlink:title=" ">
<path fill="none" stroke="#63b8ff" d="M1097.93,-104.62C1084.04,-104.62 1067.08,-104.62 1051.69,-104.62"/>
<polygon fill="#63b8ff" stroke="#63b8ff" points="1097.72,-108.13 1107.72,-104.63 1097.72,-101.13 1097.72,-108.13"/>
</a>
</g>
</g>
<!-- Node4 -->
<g id="Node000004" class="node">
<title>Node4</title>
<g id="a_Node000004"><a xlink:href="../../d8/d40/_grid___computations_8cpp_a7e6f11445e90cefdcb91f369846ec691.html#a7e6f11445e90cefdcb91f369846ec691" target="_top" xlink:title=" ">
<polygon fill="white" stroke="#666666" points="906,-199.88 791.75,-199.88 791.75,-169.38 906,-169.38 906,-199.88"/>
<text text-anchor="start" x="799.75" y="-186.38" font-family="Helvetica,sans-Serif" font-size="10.00">Calculate_Cell_Center</text>
<text text-anchor="middle" x="848.88" y="-175.12" font-family="Helvetica,sans-Serif" font-size="10.00">_Distances</text>
</a>
</g>
</g>
<!-- Node3&#45;&gt;Node4 -->
<g id="edge3_Node000003_Node000004" class="edge">
<title>Node3&#45;&gt;Node4</title>
<g id="a_edge3_Node000003_Node000004"><a xlink:title=" ">
<path fill="none" stroke="#63b8ff" d="M958.89,-154.74C942.32,-159.29 923.59,-164.42 906.39,-169.13"/>
<polygon fill="#63b8ff" stroke="#63b8ff" points="959.79,-158.13 968.51,-152.11 957.94,-151.37 959.79,-158.13"/>
</a>
</g>
</g>
<!-- Node15 -->
<g id="Node000015" class="node">
<title>Node15</title>
<g id="a_Node000015"><a xlink:href="../../d8/d40/_grid___computations_8cpp_a294e52af87309e703d5210f9cae96832.html#a294e52af87309e703d5210f9cae96832" target="_top" xlink:title=" ">
<polygon fill="white" stroke="#666666" points="889.5,-151.25 808.25,-151.25 808.25,-132 889.5,-132 889.5,-151.25"/>
<text text-anchor="middle" x="848.88" y="-137.75" font-family="Helvetica,sans-Serif" font-size="10.00">Construct_Cell</text>
</a>
</g>
</g>
<!-- Node3&#45;&gt;Node15 -->
<g id="edge14_Node000003_Node000015" class="edge">
<title>Node3&#45;&gt;Node15</title>
<g id="a_edge14_Node000003_Node000015"><a xlink:title=" ">
<path fill="none" stroke="#63b8ff" d="M930.42,-141.62C916.42,-141.62 902.34,-141.62 889.96,-141.62"/>
<polygon fill="#63b8ff" stroke="#63b8ff" points="930.07,-145.13 940.07,-141.63 930.07,-138.13 930.07,-145.13"/>
</a>
</g>
</g>
<!-- Node5 -->
<g id="Node000005" class="node">
<title>Node5</title>
<g id="a_Node000005"><a xlink:href="../../d3/de1/class_grid_performance_benchmark_a8304b3cde0e7f9ad1d1b72c9354b8e8f.html#a8304b3cde0e7f9ad1d1b72c9354b8e8f" target="_top" xlink:title=" ">
<polygon fill="white" stroke="#666666" points="755.75,-227.88 586.75,-227.88 586.75,-197.38 755.75,-197.38 755.75,-227.88"/>
<text text-anchor="start" x="594.75" y="-214.38" font-family="Helvetica,sans-Serif" font-size="10.00">GridPerformanceBenchmark</text>
<text text-anchor="middle" x="671.25" y="-203.12" font-family="Helvetica,sans-Serif" font-size="10.00">::benchmark_distance_calculations</text>
</a>
</g>
</g>
<!-- Node4&#45;&gt;Node5 -->
<g id="edge4_Node000004_Node000005" class="edge">
<title>Node4&#45;&gt;Node5</title>
<g id="a_edge4_Node000004_Node000005"><a xlink:title=" ">
<path fill="none" stroke="#63b8ff" d="M780.06,-195.44C772.23,-196.68 764.18,-197.97 756.17,-199.25"/>
<polygon fill="#63b8ff" stroke="#63b8ff" points="780.52,-198.91 789.84,-193.88 779.42,-191.99 780.52,-198.91"/>
</a>
</g>
</g>
<!-- Node12 -->
<g id="Node000012" class="node">
<title>Node12</title>
<g id="a_Node000012"><a xlink:href="../../d8/d40/_grid___computations_8cpp_a5214aea020c856108980e45d45cbc89b.html#a5214aea020c856108980e45d45cbc89b" target="_top" xlink:title=" ">
<polygon fill="white" stroke="#666666" points="514.38,-179.25 448.12,-179.25 448.12,-160 514.38,-160 514.38,-179.25"/>
<text text-anchor="middle" x="481.25" y="-165.75" font-family="Helvetica,sans-Serif" font-size="10.00">Form_Cells</text>
</a>
</g>
</g>
<!-- Node4&#45;&gt;Node12 -->
<g id="edge11_Node000004_Node000012" class="edge">
<title>Node4&#45;&gt;Node12</title>
<g id="a_edge11_Node000004_Node000012"><a xlink:title=" ">
<path fill="none" stroke="#63b8ff" d="M780.27,-181.85C701.34,-178.61 574.07,-173.39 514.69,-170.96"/>
<polygon fill="#63b8ff" stroke="#63b8ff" points="779.9,-185.34 790.04,-182.25 780.19,-178.35 779.9,-185.34"/>
</a>
</g>
</g>
<!-- Node6 -->
<g id="Node000006" class="node">
<title>Node6</title>
<g id="a_Node000006"><a xlink:href="../../d1/db0/_grid___performance___benchmark_8cpp_ac125861b22e1c75a647907d093758246.html#ac125861b22e1c75a647907d093758246" target="_top" xlink:title=" ">
<polygon fill="white" stroke="#666666" points="541.38,-265.25 421.12,-265.25 421.12,-246 541.38,-246 541.38,-265.25"/>
<text text-anchor="middle" x="481.25" y="-251.75" font-family="Helvetica,sans-Serif" font-size="10.00">quick_performance_test</text>
</a>
</g>
</g>
<!-- Node5&#45;&gt;Node6 -->
<g id="edge5_Node000005_Node000006" class="edge">
<title>Node5&#45;&gt;Node6</title>
<g id="a_edge5_Node000005_Node000006"><a xlink:title=" ">
<path fill="none" stroke="#63b8ff" d="M590.57,-230.85C568.62,-235.87 545.61,-241.13 526.47,-245.51"/>
<polygon fill="#63b8ff" stroke="#63b8ff" points="591.14,-234.31 600.1,-228.67 589.58,-227.49 591.14,-234.31"/>
</a>
</g>
</g>
<!-- Node10 -->
<g id="Node000010" class="node">
<title>Node10</title>
<g id="a_Node000010"><a xlink:href="../../d3/de1/class_grid_performance_benchmark_a6a31f6642222905776b59d5fc6ec1364.html#a6a31f6642222905776b59d5fc6ec1364" target="_top" xlink:title=" ">
<polygon fill="white" stroke="#666666" points="550.75,-227.88 411.75,-227.88 411.75,-197.38 550.75,-197.38 550.75,-227.88"/>
<text text-anchor="start" x="419.75" y="-214.38" font-family="Helvetica,sans-Serif" font-size="10.00">GridPerformanceBenchmark</text>
<text text-anchor="middle" x="481.25" y="-203.12" font-family="Helvetica,sans-Serif" font-size="10.00">::run_complete_benchmark</text>
</a>
</g>
</g>
<!-- Node5&#45;&gt;Node10 -->
<g id="edge9_Node000005_Node000010" class="edge">
<title>Node5&#45;&gt;Node10</title>
<g id="a_edge9_Node000005_Node000010"><a xlink:title=" ">
<path fill="none" stroke="#63b8ff" d="M574.99,-212.62C566.9,-212.62 558.82,-212.62 550.99,-212.62"/>
<polygon fill="#63b8ff" stroke="#63b8ff" points="574.91,-216.13 584.91,-212.63 574.91,-209.13 574.91,-216.13"/>
</a>
</g>
</g>
<!-- Node7 -->
<g id="Node000007" class="node">
<title>Node7</title>
<g id="a_Node000007"><a xlink:href="../../dc/de7/_grid___optimization___integration___guide_8cpp_a2700e9b3cb476604eadbef79c7aa63d5.html#a2700e9b3cb476604eadbef79c7aa63d5" target="_top" xlink:title=" ">
<polygon fill="white" stroke="#666666" points="363.38,-312.88 258.88,-312.88 258.88,-282.38 363.38,-282.38 363.38,-312.88"/>
<text text-anchor="start" x="266.88" y="-299.38" font-family="Helvetica,sans-Serif" font-size="10.00">demonstrate_testing</text>
<text text-anchor="middle" x="311.12" y="-288.12" font-family="Helvetica,sans-Serif" font-size="10.00">_validation</text>
</a>
</g>
</g>
<!-- Node6&#45;&gt;Node7 -->
<g id="edge6_Node000006_Node000007" class="edge">
<title>Node6&#45;&gt;Node7</title>
<g id="a_edge6_Node000006_Node000007"><a xlink:title=" ">
<path fill="none" stroke="#63b8ff" d="M428.88,-268.46C408.25,-273.61 384.52,-279.54 363.85,-284.7"/>
<polygon fill="#63b8ff" stroke="#63b8ff" points="429.66,-271.87 438.51,-266.05 427.96,-265.08 429.66,-271.87"/>
</a>
</g>
</g>
<!-- Node9 -->
<g id="Node000009" class="node">
<title>Node9</title>
<g id="a_Node000009"><a xlink:href="../../dc/de7/_grid___optimization___integration___guide_8cpp_ac9d67fcbba41c27f9c5d5876429fe035.html#ac9d67fcbba41c27f9c5d5876429fe035" target="_top" xlink:title=" ">
<polygon fill="white" stroke="#666666" points="375.75,-264.25 246.5,-264.25 246.5,-245 375.75,-245 375.75,-264.25"/>
<text text-anchor="middle" x="311.12" y="-250.75" font-family="Helvetica,sans-Serif" font-size="10.00">example_main_integration</text>
</a>
</g>
</g>
<!-- Node6&#45;&gt;Node9 -->
<g id="edge8_Node000006_Node000009" class="edge">
<title>Node6&#45;&gt;Node9</title>
<g id="a_edge8_Node000006_Node000009"><a xlink:title=" ">
<path fill="none" stroke="#63b8ff" d="M409.53,-255.2C398.41,-255.14 386.96,-255.07 376,-255"/>
<polygon fill="#63b8ff" stroke="#63b8ff" points="409.44,-258.7 419.46,-255.26 409.48,-251.7 409.44,-258.7"/>
</a>
</g>
</g>
<!-- Node8 -->
<g id="Node000008" class="node">
<title>Node8</title>
<g id="a_Node000008"><a xlink:href="../../dc/de7/_grid___optimization___integration___guide_8cpp_ad598130e8e89b3050bb9bd71f0ab1b25.html#ad598130e8e89b3050bb9bd71f0ab1b25" target="_top" xlink:title=" ">
<polygon fill="white" stroke="#666666" points="210.5,-246.25 73,-246.25 73,-227 210.5,-227 210.5,-246.25"/>
<text text-anchor="middle" x="141.75" y="-232.75" font-family="Helvetica,sans-Serif" font-size="10.00">integrate_grid_optimizations</text>
</a>
</g>
</g>
<!-- Node7&#45;&gt;Node8 -->
<g id="edge7_Node000007_Node000008" class="edge">
<title>Node7&#45;&gt;Node8</title>
<g id="a_edge7_Node000007_Node000008"><a xlink:title=" ">
<path fill="none" stroke="#63b8ff" d="M256.36,-278.03C227.75,-267.6 193.78,-255.22 170.49,-246.73"/>
<polygon fill="#63b8ff" stroke="#63b8ff" points="255.01,-281.26 265.6,-281.4 257.4,-274.69 255.01,-281.26"/>
</a>
</g>
</g>
<!-- Node11 -->
<g id="Node000011" class="node">
<title>Node11</title>
<g id="a_Node000011"><a xlink:href="../../d1/db0/_grid___performance___benchmark_8cpp_a8eaebb5b60c50f0606cb4719e236b1bf.html#a8eaebb5b60c50f0606cb4719e236b1bf" target="_top" xlink:title=" ">
<polygon fill="white" stroke="#666666" points="366,-226.88 256.25,-226.88 256.25,-196.38 366,-196.38 366,-226.88"/>
<text text-anchor="start" x="264.25" y="-213.38" font-family="Helvetica,sans-Serif" font-size="10.00">run_grid_performance</text>
<text text-anchor="middle" x="311.12" y="-202.12" font-family="Helvetica,sans-Serif" font-size="10.00">_benchmark</text>
</a>
</g>
</g>
<!-- Node10&#45;&gt;Node11 -->
<g id="edge10_Node000010_Node000011" class="edge">
<title>Node10&#45;&gt;Node11</title>
<g id="a_edge10_Node000010_Node000011"><a xlink:title=" ">
<path fill="none" stroke="#63b8ff" d="M400.07,-212.15C388.69,-212.08 377.21,-212.01 366.48,-211.95"/>
<polygon fill="#63b8ff" stroke="#63b8ff" points="399.85,-215.65 409.87,-212.21 399.89,-208.65 399.85,-215.65"/>
</a>
</g>
</g>
<!-- Node13 -->
<g id="Node000013" class="node">
<title>Node13</title>
<g id="a_Node000013"><a xlink:href="../../d8/d40/_grid___computations_8cpp_adbee522543afe92b4b1cd9b4e96a6c3f.html#adbee522543afe92b4b1cd9b4e96a6c3f" target="_top" xlink:title=" ">
<polygon fill="white" stroke="#666666" points="186.88,-152.25 96.62,-152.25 96.62,-133 186.88,-133 186.88,-152.25"/>
<text text-anchor="middle" x="141.75" y="-138.75" font-family="Helvetica,sans-Serif" font-size="10.00">initializeGridFiles</text>
</a>
</g>
</g>
<!-- Node12&#45;&gt;Node13 -->
<g id="edge12_Node000012_Node000013" class="edge">
<title>Node12&#45;&gt;Node13</title>
<g id="a_edge12_Node000012_Node000013"><a xlink:title=" ">
<path fill="none" stroke="#63b8ff" d="M436.52,-166.13C372.03,-160.97 252.06,-151.37 187.18,-146.18"/>
<polygon fill="#63b8ff" stroke="#63b8ff" points="436.13,-169.61 446.38,-166.92 436.69,-162.63 436.13,-169.61"/>
</a>
</g>
</g>
<!-- Node14 -->
<g id="Node000014" class="node">
<title>Node14</title>
<g id="a_Node000014"><a xlink:href="../../d5/d12/_main_8cpp_a0ddf1224851353fc92bfbff6f499fa97.html#a0ddf1224851353fc92bfbff6f499fa97" target="_top" xlink:title=" ">
<polygon fill="white" stroke="#666666" points="37,-111.25 0,-111.25 0,-92 37,-92 37,-111.25"/>
<text text-anchor="middle" x="18.5" y="-97.75" font-family="Helvetica,sans-Serif" font-size="10.00">main</text>
</a>
</g>
</g>
<!-- Node13&#45;&gt;Node14 -->
<g id="edge13_Node000013_Node000014" class="edge">
<title>Node13&#45;&gt;Node14</title>
<g id="a_edge13_Node000013_Node000014"><a xlink:title=" ">
<path fill="none" stroke="#63b8ff" d="M100.31,-128.95C78.91,-121.71 53.72,-113.2 37.22,-107.62"/>
<polygon fill="#63b8ff" stroke="#63b8ff" points="99.06,-132.22 109.66,-132.11 101.3,-125.59 99.06,-132.22"/>
</a>
</g>
</g>
<!-- Node18 -->
<g id="Node000018" class="node">
<title>Node18</title>
<g id="a_Node000018"><a xlink:href="../../d8/dec/_time___step_8cpp_a1a130a004ad45d61258215e5579c3060.html#a1a130a004ad45d61258215e5579c3060" target="_top" xlink:title=" ">
<polygon fill="white" stroke="#666666" points="902.25,-67.25 795.5,-67.25 795.5,-48 902.25,-48 902.25,-67.25"/>
<text text-anchor="middle" x="848.88" y="-53.75" font-family="Helvetica,sans-Serif" font-size="10.00">Evaluate_Time_Step</text>
</a>
</g>
</g>
<!-- Node17&#45;&gt;Node18 -->
<g id="edge17_Node000017_Node000018" class="edge">
<title>Node17&#45;&gt;Node18</title>
<g id="a_edge17_Node000017_Node000018"><a xlink:title=" ">
<path fill="none" stroke="#63b8ff" d="M944.77,-63.67C930.85,-62.79 916.21,-61.85 902.71,-60.99"/>
<polygon fill="#63b8ff" stroke="#63b8ff" points="944.54,-67.17 954.74,-64.31 944.98,-60.18 944.54,-67.17"/>
</a>
</g>
</g>
<!-- Node19 -->
<g id="Node000019" class="node">
<title>Node19</title>
<g id="a_Node000019"><a xlink:href="../../d9/ddd/_c_u_d_a___integrated___numerical___method_8cpp_ad25c9a53b380204dd243bc1351d6b098.html#ad25c9a53b380204dd243bc1351d6b098" target="_top" xlink:title=" ">
<polygon fill="white" stroke="#666666" points="741.12,-56.25 601.38,-56.25 601.38,-37 741.12,-37 741.12,-56.25"/>
<text text-anchor="middle" x="671.25" y="-42.75" font-family="Helvetica,sans-Serif" font-size="10.00">Evaluate_Cell_Net_Flux_1O</text>
</a>
</g>
</g>
<!-- Node18&#45;&gt;Node19 -->
<g id="edge18_Node000018_Node000019" class="edge">
<title>Node18&#45;&gt;Node19</title>
<g id="a_edge18_Node000018_Node000019"><a xlink:title=" ">
<path fill="none" stroke="#63b8ff" d="M783.84,-53.61C770.07,-52.75 755.45,-51.84 741.49,-50.96"/>
<polygon fill="#63b8ff" stroke="#63b8ff" points="783.47,-57.1 793.67,-54.23 783.91,-50.11 783.47,-57.1"/>
</a>
</g>
</g>
<!-- Node20 -->
<g id="Node000020" class="node">
<title>Node20</title>
<g id="a_Node000020"><a xlink:href="../../d9/ddd/_c_u_d_a___integrated___numerical___method_8cpp_a4db2fe24c2a78f98ac91e9d7d271430f.html#a4db2fe24c2a78f98ac91e9d7d271430f" target="_top" xlink:title=" ">
<polygon fill="white" stroke="#666666" points="741.12,-19.25 601.38,-19.25 601.38,0 741.12,0 741.12,-19.25"/>
<text text-anchor="middle" x="671.25" y="-5.75" font-family="Helvetica,sans-Serif" font-size="10.00">Evaluate_Cell_Net_Flux_2O</text>
</a>
</g>
</g>
<!-- Node18&#45;&gt;Node20 -->
<g id="edge19_Node000018_Node000020" class="edge">
<title>Node18&#45;&gt;Node20</title>
<g id="a_edge19_Node000018_Node000020"><a xlink:title=" ">
<path fill="none" stroke="#63b8ff" d="M808.72,-43.89C792.45,-38.44 773.3,-32.36 755.75,-27.62 745.3,-24.8 734.02,-22.13 723.23,-19.75"/>
<polygon fill="#63b8ff" stroke="#63b8ff" points="807.44,-47.16 818.04,-47.05 809.69,-40.53 807.44,-47.16"/>
</a>
</g>
</g>
<!-- Node21 -->
<g id="Node000021" class="node">
<title>Node21</title>
<g id="a_Node000021"><a xlink:href="../../d8/df4/_w_e_n_o2_d_8cpp_a74c2795e4a164178c69743947d6e6cf5.html#a74c2795e4a164178c69743947d6e6cf5" target="_top" xlink:title=" ">
<polygon fill="white" stroke="#666666" points="750.5,-93.25 592,-93.25 592,-74 750.5,-74 750.5,-93.25"/>
<text text-anchor="middle" x="671.25" y="-79.75" font-family="Helvetica,sans-Serif" font-size="10.00">Evaluate_Cell_Net_Flux_WENO</text>
</a>
</g>
</g>
<!-- Node18&#45;&gt;Node21 -->
<g id="edge20_Node000018_Node000021" class="edge">
<title>Node18&#45;&gt;Node21</title>
<g id="a_edge20_Node000018_Node000021"><a xlink:title=" ">
<path fill="none" stroke="#63b8ff" d="M784.06,-67.07C769.91,-69.17 754.85,-71.4 740.53,-73.52"/>
<polygon fill="#63b8ff" stroke="#63b8ff" points="784.3,-70.57 793.68,-65.65 783.28,-63.65 784.3,-70.57"/>
</a>
</g>
</g>
<!-- Node22 -->
<g id="Node000022" class="node">
<title>Node22</title>
<g id="a_Node000022"><a xlink:href="../../d0/d64/_numerical___method_8cpp_a8dda0c7e17babab9b6e49e8e199dc30e.html#a8dda0c7e17babab9b6e49e8e199dc30e" target="_top" xlink:title=" ">
<polygon fill="white" stroke="#666666" points="524.12,-56.25 438.38,-56.25 438.38,-37 524.12,-37 524.12,-56.25"/>
<text text-anchor="middle" x="481.25" y="-42.75" font-family="Helvetica,sans-Serif" font-size="10.00">Explicit_Method</text>
</a>
</g>
</g>
<!-- Node21&#45;&gt;Node22 -->
<g id="edge21_Node000021_Node000022" class="edge">
<title>Node21&#45;&gt;Node22</title>
<g id="a_edge21_Node000021_Node000022"><a xlink:title=" ">
<path fill="none" stroke="#63b8ff" d="M607.81,-71.34C580.4,-65.94 548.94,-59.75 524.37,-54.91"/>
<polygon fill="#63b8ff" stroke="#63b8ff" points="606.91,-74.73 617.39,-73.22 608.26,-67.86 606.91,-74.73"/>
</a>
</g>
</g>
<!-- Node26 -->
<g id="Node000026" class="node">
<title>Node26</title>
<g id="a_Node000026"><a xlink:href="../../de/d22/_cuda___parallel___r_k_8cpp_a794f030971fbb7c9dd4bc08df03f50f1.html#a794f030971fbb7c9dd4bc08df03f50f1" target="_top" xlink:title=" ">
<polygon fill="white" stroke="#666666" points="536.5,-93.25 426,-93.25 426,-74 536.5,-74 536.5,-93.25"/>
<text text-anchor="middle" x="481.25" y="-79.75" font-family="Helvetica,sans-Serif" font-size="10.00">Runge_Kutta_Method</text>
</a>
</g>
</g>
<!-- Node21&#45;&gt;Node26 -->
<g id="edge27_Node000021_Node000026" class="edge">
<title>Node21&#45;&gt;Node26</title>
<g id="a_edge27_Node000021_Node000026"><a xlink:title=" ">
<path fill="none" stroke="#63b8ff" d="M580.31,-83.62C565.48,-83.62 550.5,-83.62 536.88,-83.62"/>
<polygon fill="#63b8ff" stroke="#63b8ff" points="580.1,-87.13 590.1,-83.63 580.1,-80.13 580.1,-87.13"/>
</a>
</g>
</g>
<!-- Node23 -->
<g id="Node000023" class="node">
<title>Node23</title>
<g id="a_Node000023"><a xlink:href="../../de/df0/_solver_8cpp_a09703a294b5a4e270033b2d488f8f02a.html#a09703a294b5a4e270033b2d488f8f02a" target="_top" xlink:title=" ">
<polygon fill="white" stroke="#666666" points="352.5,-56.25 269.75,-56.25 269.75,-37 352.5,-37 352.5,-56.25"/>
<text text-anchor="middle" x="311.12" y="-42.75" font-family="Helvetica,sans-Serif" font-size="10.00">Inviscid_Solver</text>
</a>
</g>
</g>
<!-- Node22&#45;&gt;Node23 -->
<g id="edge22_Node000022_Node000023" class="edge">
<title>Node22&#45;&gt;Node23</title>
<g id="a_edge22_Node000022_Node000023"><a xlink:title=" ">
<path fill="none" stroke="#63b8ff" d="M426.83,-46.62C402.83,-46.62 374.97,-46.62 352.71,-46.62"/>
<polygon fill="#63b8ff" stroke="#63b8ff" points="426.75,-50.13 436.75,-46.63 426.75,-43.13 426.75,-50.13"/>
</a>
</g>
</g>
<!-- Node25 -->
<g id="Node000025" class="node">
<title>Node25</title>
<g id="a_Node000025"><a xlink:href="../../de/df0/_solver_8cpp_a313c308da18b517cb3cf0384db6d4d7e.html#a313c308da18b517cb3cf0384db6d4d7e" target="_top" xlink:title=" ">
<polygon fill="white" stroke="#666666" points="353.25,-93.25 269,-93.25 269,-74 353.25,-74 353.25,-93.25"/>
<text text-anchor="middle" x="311.12" y="-79.75" font-family="Helvetica,sans-Serif" font-size="10.00">Viscous_Solver</text>
</a>
</g>
</g>
<!-- Node22&#45;&gt;Node25 -->
<g id="edge25_Node000022_Node000025" class="edge">
<title>Node22&#45;&gt;Node25</title>
<g id="a_edge25_Node000022_Node000025"><a xlink:title=" ">
<path fill="none" stroke="#63b8ff" d="M427.28,-58.28C403.49,-63.52 375.83,-69.61 353.58,-74.5"/>
<polygon fill="#63b8ff" stroke="#63b8ff" points="427.77,-61.76 436.78,-56.19 426.26,-54.92 427.77,-61.76"/>
</a>
</g>
</g>
<!-- Node24 -->
<g id="Node000024" class="node">
<title>Node24</title>
<g id="a_Node000024"><a xlink:href="../../d5/d12/_main_8cpp_afed4dca88e059a8cbd2c7af524468fe5.html#afed4dca88e059a8cbd2c7af524468fe5" target="_top" xlink:title="Executes the appropriate solver based on the simulation configuration.">
<polygon fill="white" stroke="#666666" points="170.38,-93.25 113.12,-93.25 113.12,-74 170.38,-74 170.38,-93.25"/>
<text text-anchor="middle" x="141.75" y="-79.75" font-family="Helvetica,sans-Serif" font-size="10.00">runSolver</text>
</a>
</g>
</g>
<!-- Node23&#45;&gt;Node24 -->
<g id="edge23_Node000023_Node000024" class="edge">
<title>Node23&#45;&gt;Node24</title>
<g id="a_edge23_Node000023_Node000024"><a xlink:title=" ">
<path fill="none" stroke="#63b8ff" d="M258.46,-58.05C229.58,-64.43 194.71,-72.14 170.85,-77.41"/>
<polygon fill="#63b8ff" stroke="#63b8ff" points="259.12,-61.48 268.13,-55.91 257.61,-54.65 259.12,-61.48"/>
</a>
</g>
</g>
<!-- Node24&#45;&gt;Node14 -->
<g id="edge24_Node000024_Node000014" class="edge">
<title>Node24&#45;&gt;Node14</title>
<g id="a_edge24_Node000024_Node000014"><a xlink:title=" ">
<path fill="none" stroke="#63b8ff" d="M101.46,-89.46C79.86,-92.66 54.12,-96.49 37.33,-98.98"/>
<polygon fill="#63b8ff" stroke="#63b8ff" points="101.75,-92.95 111.13,-88.02 100.73,-86.03 101.75,-92.95"/>
</a>
</g>
</g>
<!-- Node25&#45;&gt;Node24 -->
<g id="edge26_Node000025_Node000024" class="edge">
<title>Node25&#45;&gt;Node24</title>
<g id="a_edge26_Node000025_Node000024"><a xlink:title=" ">
<path fill="none" stroke="#63b8ff" d="M257.27,-83.62C228.61,-83.62 194.35,-83.62 170.81,-83.62"/>
<polygon fill="#63b8ff" stroke="#63b8ff" points="257.24,-87.13 267.24,-83.63 257.24,-80.13 257.24,-87.13"/>
</a>
</g>
</g>
<!-- Node28 -->
<g id="Node000028" class="node">
<title>Node28</title>
<g id="a_Node000028"><a xlink:href="../../d0/ded/_read___gmsh___file_8cpp_abedd70744a46f756e74b49905be889d9.html#abedd70744a46f756e74b49905be889d9" target="_top" xlink:title=" ">
<polygon fill="white" stroke="#666666" points="905.62,-114.25 792.12,-114.25 792.12,-95 905.62,-95 905.62,-114.25"/>
<text text-anchor="middle" x="848.88" y="-100.75" font-family="Helvetica,sans-Serif" font-size="10.00">Read_GmshVTK_Grid</text>
</a>
</g>
</g>
<!-- Node27&#45;&gt;Node28 -->
<g id="edge29_Node000027_Node000028" class="edge">
<title>Node27&#45;&gt;Node28</title>
<g id="a_edge29_Node000027_Node000028"><a xlink:title=" ">
<path fill="none" stroke="#63b8ff" d="M952.65,-104.62C937.56,-104.62 921.14,-104.62 905.94,-104.62"/>
<polygon fill="#63b8ff" stroke="#63b8ff" points="952.37,-108.13 962.37,-104.63 952.37,-101.13 952.37,-108.13"/>
</a>
</g>
</g>
<!-- Node29 -->
<g id="Node000029" class="node">
<title>Node29</title>
<g id="a_Node000029"><a xlink:href="../../df/db3/_mesh___loader_8cpp_a4ecb41d6b6dda1279d140f58dcf4d3fa.html#a4ecb41d6b6dda1279d140f58dcf4d3fa" target="_top" xlink:title=" ">
<polygon fill="white" stroke="#666666" points="704.38,-136.25 638.12,-136.25 638.12,-117 704.38,-117 704.38,-136.25"/>
<text text-anchor="middle" x="671.25" y="-122.75" font-family="Helvetica,sans-Serif" font-size="10.00">Load_Mesh</text>
</a>
</g>
</g>
<!-- Node28&#45;&gt;Node29 -->
<g id="edge30_Node000028_Node000029" class="edge">
<title>Node28&#45;&gt;Node29</title>
<g id="a_edge30_Node000028_Node000029"><a xlink:title=" ">
<path fill="none" stroke="#63b8ff" d="M780.49,-113.07C754.52,-116.32 726.03,-119.89 704.79,-122.55"/>
<polygon fill="#63b8ff" stroke="#63b8ff" points="780.83,-116.55 790.32,-111.83 779.96,-109.6 780.83,-116.55"/>
</a>
</g>
</g>
<!-- Node29&#45;&gt;Node12 -->
<g id="edge33_Node000029_Node000012" class="edge">
<title>Node29&#45;&gt;Node12</title>
<g id="a_edge33_Node000029_Node000012"><a xlink:title=" ">
<path fill="none" stroke="#63b8ff" d="M626.87,-136.55C592.69,-144.36 545.78,-155.09 514.78,-162.19"/>
<polygon fill="#63b8ff" stroke="#63b8ff" points="627.49,-140 636.46,-134.35 625.93,-133.17 627.49,-140"/>
</a>
</g>
</g>
<!-- Node30 -->
<g id="Node000030" class="node">
<title>Node30</title>
<g id="a_Node000030"><a xlink:href="../../dc/de7/_grid___optimization___integration___guide_8cpp_ae6a5c597ffb845be2502d0afc0e1a695.html#ae6a5c597ffb845be2502d0afc0e1a695" target="_top" xlink:title=" ">
<polygon fill="white" stroke="#666666" points="545.88,-141.88 416.62,-141.88 416.62,-111.38 545.88,-111.38 545.88,-141.88"/>
<text text-anchor="start" x="424.62" y="-128.38" font-family="Helvetica,sans-Serif" font-size="10.00">demonstrate_performance</text>
<text text-anchor="middle" x="481.25" y="-117.12" font-family="Helvetica,sans-Serif" font-size="10.00">_aware_integration</text>
</a>
</g>
</g>
<!-- Node29&#45;&gt;Node30 -->
<g id="edge31_Node000029_Node000030" class="edge">
<title>Node29&#45;&gt;Node30</title>
<g id="a_edge31_Node000029_Node000030"><a xlink:title=" ">
<path fill="none" stroke="#63b8ff" d="M626.72,-126.62C602.77,-126.62 572.61,-126.62 546.05,-126.62"/>
<polygon fill="#63b8ff" stroke="#63b8ff" points="626.42,-130.13 636.42,-126.63 626.42,-123.13 626.42,-130.13"/>
</a>
</g>
</g>
<!-- Node30&#45;&gt;Node8 -->
<g id="edge32_Node000030_Node000008" class="edge">
<title>Node30&#45;&gt;Node8</title>
<g id="a_edge32_Node000030_Node000008"><a xlink:title=" ">
<path fill="none" stroke="#63b8ff" d="M405.11,-142.48C358.73,-153.19 298.4,-168.78 246.5,-187.62 215.79,-198.77 181.85,-215.75 161.42,-226.51"/>
<polygon fill="#63b8ff" stroke="#63b8ff" points="405.83,-145.91 414.8,-140.27 404.27,-139.08 405.83,-145.91"/>
</a>
</g>
</g>
</g>
</svg>
