<?xml version="1.0" encoding="UTF-8" standalone="no"?>
<!DOCTYPE svg PUBLIC "-//W3C//DTD SVG 1.1//EN"
 "http://www.w3.org/Graphics/SVG/1.1/DTD/svg11.dtd">
<!-- Generated by graphviz version 12.2.1 (20241206.2353)
 -->
<!-- Title: Maximum Pages: 1 -->
<svg width="935pt" height="298pt"
 viewBox="0.00 0.00 934.50 298.25" xmlns="http://www.w3.org/2000/svg" xmlns:xlink="http://www.w3.org/1999/xlink">
<g id="graph0" class="graph" transform="scale(1 1) rotate(0) translate(4 294.25)">
<title>Maximum</title>
<!-- Node1 -->
<g id="Node000001" class="node">
<title>Node1</title>
<g id="a_Node000001"><a xlink:title=" ">
<polygon fill="#999999" stroke="#666666" points="926.5,-160.25 867.75,-160.25 867.75,-141 926.5,-141 926.5,-160.25"/>
<text text-anchor="middle" x="897.12" y="-146.75" font-family="Helvetica,sans-Serif" font-size="10.00">Maximum</text>
</a>
</g>
</g>
<!-- Node2 -->
<g id="Node000002" class="node">
<title>Node2</title>
<g id="a_Node000002"><a xlink:href="../../d8/df4/_w_e_n_o2_d_8cpp_a27359f46a5902f1f50547f76408a48aa.html#a27359f46a5902f1f50547f76408a48aa" target="_top" xlink:title=" ">
<polygon fill="white" stroke="#666666" points="831.75,-253.25 686.75,-253.25 686.75,-234 831.75,-234 831.75,-253.25"/>
<text text-anchor="middle" x="759.25" y="-239.75" font-family="Helvetica,sans-Serif" font-size="10.00">Calculate_Face_WENO_Flux</text>
</a>
</g>
</g>
<!-- Node1&#45;&gt;Node2 -->
<g id="edge1_Node000001_Node000002" class="edge">
<title>Node1&#45;&gt;Node2</title>
<g id="a_edge1_Node000001_Node000002"><a xlink:title=" ">
<path fill="none" stroke="#63b8ff" d="M884.32,-170.22C872.96,-187.39 854.23,-211.72 831.75,-225.62 826.63,-228.79 820.99,-231.4 815.17,-233.55"/>
<polygon fill="#63b8ff" stroke="#63b8ff" points="887.2,-172.21 889.6,-161.89 881.29,-168.47 887.2,-172.21"/>
</a>
</g>
</g>
<!-- Node10 -->
<g id="Node000010" class="node">
<title>Node10</title>
<g id="a_Node000010"><a xlink:href="../../de/d88/_l_l_f_8cpp_a7a64f3d31bd875b4b1c595db26e909e6.html#a7a64f3d31bd875b4b1c595db26e909e6" target="_top" xlink:title=" ">
<polygon fill="white" stroke="#666666" points="775.5,-216.25 743,-216.25 743,-197 775.5,-197 775.5,-216.25"/>
<text text-anchor="middle" x="759.25" y="-202.75" font-family="Helvetica,sans-Serif" font-size="10.00">LLF</text>
</a>
</g>
</g>
<!-- Node1&#45;&gt;Node10 -->
<g id="edge10_Node000001_Node000010" class="edge">
<title>Node1&#45;&gt;Node10</title>
<g id="a_edge10_Node000001_Node000010"><a xlink:title=" ">
<path fill="none" stroke="#63b8ff" d="M872.39,-166.86C860.59,-174.34 845.86,-182.83 831.75,-188.62 813.16,-196.26 790.48,-201.3 775.72,-204.06"/>
<polygon fill="#63b8ff" stroke="#63b8ff" points="874.19,-169.86 880.65,-161.46 870.36,-164 874.19,-169.86"/>
</a>
</g>
</g>
<!-- Node12 -->
<g id="Node000012" class="node">
<title>Node12</title>
<g id="a_Node000012"><a xlink:href="../../de/d88/_l_l_f_8cpp_a3f7724701b89e020e5e2cb9aee42ca55.html#a3f7724701b89e020e5e2cb9aee42ca55" target="_top" xlink:title=" ">
<polygon fill="white" stroke="#666666" points="424.38,-159.25 373.88,-159.25 373.88,-140 424.38,-140 424.38,-159.25"/>
<text text-anchor="middle" x="399.12" y="-145.75" font-family="Helvetica,sans-Serif" font-size="10.00">LLF_2O</text>
</a>
</g>
</g>
<!-- Node1&#45;&gt;Node12 -->
<g id="edge12_Node000001_Node000012" class="edge">
<title>Node1&#45;&gt;Node12</title>
<g id="a_edge12_Node000001_Node000012"><a xlink:title=" ">
<path fill="none" stroke="#63b8ff" d="M856.06,-150.54C757.38,-150.35 504.81,-149.84 424.81,-149.67"/>
<polygon fill="#63b8ff" stroke="#63b8ff" points="855.79,-154.04 865.8,-150.56 855.81,-147.04 855.79,-154.04"/>
</a>
</g>
</g>
<!-- Node14 -->
<g id="Node000014" class="node">
<title>Node14</title>
<g id="a_Node000014"><a xlink:href="../../d0/da3/_limiters_8cpp_a01ee9151d91c270729e4d9df0a89e287.html#a01ee9151d91c270729e4d9df0a89e287" target="_top" xlink:title="Computes the MinMod limiter for three input values and updates the result in the provided reference.">
<polygon fill="white" stroke="#666666" points="784.5,-103.25 734,-103.25 734,-84 784.5,-84 784.5,-103.25"/>
<text text-anchor="middle" x="759.25" y="-89.75" font-family="Helvetica,sans-Serif" font-size="10.00">MinMod</text>
</a>
</g>
</g>
<!-- Node1&#45;&gt;Node14 -->
<g id="edge14_Node000001_Node000014" class="edge">
<title>Node1&#45;&gt;Node14</title>
<g id="a_edge14_Node000001_Node000014"><a xlink:title=" ">
<path fill="none" stroke="#63b8ff" d="M868.39,-135.25C857.19,-129.35 844.03,-122.8 831.75,-117.62 816.43,-111.17 798.71,-105.21 784.75,-100.85"/>
<polygon fill="#63b8ff" stroke="#63b8ff" points="866.63,-138.28 877.1,-139.93 869.94,-132.12 866.63,-138.28"/>
</a>
</g>
</g>
<!-- Node19 -->
<g id="Node000019" class="node">
<title>Node19</title>
<g id="a_Node000019"><a xlink:href="../../dd/d30/_m_o_v_e_r_s_8cpp_ad9d16fef8d34a1b19bfdbf938bf033be.html#ad9d16fef8d34a1b19bfdbf938bf033be" target="_top" xlink:title=" ">
<polygon fill="white" stroke="#666666" points="789,-179.25 729.5,-179.25 729.5,-160 789,-160 789,-179.25"/>
<text text-anchor="middle" x="759.25" y="-165.75" font-family="Helvetica,sans-Serif" font-size="10.00">MOVERS</text>
</a>
</g>
</g>
<!-- Node1&#45;&gt;Node19 -->
<g id="edge23_Node000001_Node000019" class="edge">
<title>Node1&#45;&gt;Node19</title>
<g id="a_edge23_Node000001_Node000019"><a xlink:title=" ">
<path fill="none" stroke="#63b8ff" d="M855.98,-156.24C834.65,-159.22 808.91,-162.82 789.49,-165.54"/>
<polygon fill="#63b8ff" stroke="#63b8ff" points="856.39,-159.72 865.81,-154.86 855.42,-152.78 856.39,-159.72"/>
</a>
</g>
</g>
<!-- Node20 -->
<g id="Node000020" class="node">
<title>Node20</title>
<g id="a_Node000020"><a xlink:href="../../dd/d30/_m_o_v_e_r_s_8cpp_a895c6dcdac689f71d89e341046362be9.html#a895c6dcdac689f71d89e341046362be9" target="_top" xlink:title=" ">
<polygon fill="white" stroke="#666666" points="610.25,-19.25 532.75,-19.25 532.75,0 610.25,0 610.25,-19.25"/>
<text text-anchor="middle" x="571.5" y="-5.75" font-family="Helvetica,sans-Serif" font-size="10.00">MOVERS_2O</text>
</a>
</g>
</g>
<!-- Node1&#45;&gt;Node20 -->
<g id="edge25_Node000001_Node000020" class="edge">
<title>Node1&#45;&gt;Node20</title>
<g id="a_edge25_Node000001_Node000020"><a xlink:title=" ">
<path fill="none" stroke="#63b8ff" d="M884.56,-131.04C873.27,-113.62 854.48,-88.78 831.75,-74.62 761.63,-30.97 663.69,-16.6 610.51,-11.89"/>
<polygon fill="#63b8ff" stroke="#63b8ff" points="881.55,-132.82 889.8,-139.48 887.5,-129.13 881.55,-132.82"/>
</a>
</g>
</g>
<!-- Node3 -->
<g id="Node000003" class="node">
<title>Node3</title>
<g id="a_Node000003"><a xlink:href="../../d8/df4/_w_e_n_o2_d_8cpp_a74c2795e4a164178c69743947d6e6cf5.html#a74c2795e4a164178c69743947d6e6cf5" target="_top" xlink:title=" ">
<polygon fill="white" stroke="#666666" points="650.75,-253.25 492.25,-253.25 492.25,-234 650.75,-234 650.75,-253.25"/>
<text text-anchor="middle" x="571.5" y="-239.75" font-family="Helvetica,sans-Serif" font-size="10.00">Evaluate_Cell_Net_Flux_WENO</text>
</a>
</g>
</g>
<!-- Node2&#45;&gt;Node3 -->
<g id="edge2_Node000002_Node000003" class="edge">
<title>Node2&#45;&gt;Node3</title>
<g id="a_edge2_Node000002_Node000003"><a xlink:title=" ">
<path fill="none" stroke="#63b8ff" d="M674.96,-243.62C667.06,-243.62 659.07,-243.62 651.22,-243.62"/>
<polygon fill="#63b8ff" stroke="#63b8ff" points="674.92,-247.13 684.92,-243.63 674.92,-240.13 674.92,-247.13"/>
</a>
</g>
</g>
<!-- Node4 -->
<g id="Node000004" class="node">
<title>Node4</title>
<g id="a_Node000004"><a xlink:href="../../d0/d64/_numerical___method_8cpp_a8dda0c7e17babab9b6e49e8e199dc30e.html#a8dda0c7e17babab9b6e49e8e199dc30e" target="_top" xlink:title=" ">
<polygon fill="white" stroke="#666666" points="442,-272.25 356.25,-272.25 356.25,-253 442,-253 442,-272.25"/>
<text text-anchor="middle" x="399.12" y="-258.75" font-family="Helvetica,sans-Serif" font-size="10.00">Explicit_Method</text>
</a>
</g>
</g>
<!-- Node3&#45;&gt;Node4 -->
<g id="edge3_Node000003_Node000004" class="edge">
<title>Node3&#45;&gt;Node4</title>
<g id="a_edge3_Node000003_Node000004"><a xlink:title=" ">
<path fill="none" stroke="#63b8ff" d="M480.56,-253.66C467.19,-255.15 453.98,-256.62 442.25,-257.93"/>
<polygon fill="#63b8ff" stroke="#63b8ff" points="480.74,-257.16 490.29,-252.57 479.97,-250.2 480.74,-257.16"/>
</a>
</g>
</g>
<!-- Node9 -->
<g id="Node000009" class="node">
<title>Node9</title>
<g id="a_Node000009"><a xlink:href="../../de/d22/_cuda___parallel___r_k_8cpp_a794f030971fbb7c9dd4bc08df03f50f1.html#a794f030971fbb7c9dd4bc08df03f50f1" target="_top" xlink:title=" ">
<polygon fill="white" stroke="#666666" points="454.38,-235.25 343.88,-235.25 343.88,-216 454.38,-216 454.38,-235.25"/>
<text text-anchor="middle" x="399.12" y="-221.75" font-family="Helvetica,sans-Serif" font-size="10.00">Runge_Kutta_Method</text>
</a>
</g>
</g>
<!-- Node3&#45;&gt;Node9 -->
<g id="edge9_Node000003_Node000009" class="edge">
<title>Node3&#45;&gt;Node9</title>
<g id="a_edge9_Node000003_Node000009"><a xlink:title=" ">
<path fill="none" stroke="#63b8ff" d="M480.59,-234.13C471.75,-233.19 462.98,-232.27 454.66,-231.39"/>
<polygon fill="#63b8ff" stroke="#63b8ff" points="479.98,-237.58 490.29,-235.15 480.71,-230.62 479.98,-237.58"/>
</a>
</g>
</g>
<!-- Node5 -->
<g id="Node000005" class="node">
<title>Node5</title>
<g id="a_Node000005"><a xlink:href="../../de/df0/_solver_8cpp_a09703a294b5a4e270033b2d488f8f02a.html#a09703a294b5a4e270033b2d488f8f02a" target="_top" xlink:title=" ">
<polygon fill="white" stroke="#666666" points="277.5,-290.25 194.75,-290.25 194.75,-271 277.5,-271 277.5,-290.25"/>
<text text-anchor="middle" x="236.12" y="-276.75" font-family="Helvetica,sans-Serif" font-size="10.00">Inviscid_Solver</text>
</a>
</g>
</g>
<!-- Node4&#45;&gt;Node5 -->
<g id="edge4_Node000004_Node000005" class="edge">
<title>Node4&#45;&gt;Node5</title>
<g id="a_edge4_Node000004_Node000005"><a xlink:title=" ">
<path fill="none" stroke="#63b8ff" d="M344.42,-268.63C322.67,-271.06 297.97,-273.82 277.76,-276.08"/>
<polygon fill="#63b8ff" stroke="#63b8ff" points="344.77,-272.11 354.32,-267.52 343.99,-265.16 344.77,-272.11"/>
</a>
</g>
</g>
<!-- Node8 -->
<g id="Node000008" class="node">
<title>Node8</title>
<g id="a_Node000008"><a xlink:href="../../de/df0/_solver_8cpp_a313c308da18b517cb3cf0384db6d4d7e.html#a313c308da18b517cb3cf0384db6d4d7e" target="_top" xlink:title=" ">
<polygon fill="white" stroke="#666666" points="278.25,-253.25 194,-253.25 194,-234 278.25,-234 278.25,-253.25"/>
<text text-anchor="middle" x="236.12" y="-239.75" font-family="Helvetica,sans-Serif" font-size="10.00">Viscous_Solver</text>
</a>
</g>
</g>
<!-- Node4&#45;&gt;Node8 -->
<g id="edge7_Node000004_Node000008" class="edge">
<title>Node4&#45;&gt;Node8</title>
<g id="a_edge7_Node000004_Node000008"><a xlink:title=" ">
<path fill="none" stroke="#63b8ff" d="M344.56,-256.3C323.07,-253.77 298.69,-250.89 278.59,-248.52"/>
<polygon fill="#63b8ff" stroke="#63b8ff" points="343.98,-259.76 354.32,-257.46 344.8,-252.81 343.98,-259.76"/>
</a>
</g>
</g>
<!-- Node6 -->
<g id="Node000006" class="node">
<title>Node6</title>
<g id="a_Node000006"><a xlink:href="../../d5/d12/_main_8cpp_afed4dca88e059a8cbd2c7af524468fe5.html#afed4dca88e059a8cbd2c7af524468fe5" target="_top" xlink:title="Executes the appropriate solver based on the simulation configuration.">
<polygon fill="white" stroke="#666666" points="130.25,-271.25 73,-271.25 73,-252 130.25,-252 130.25,-271.25"/>
<text text-anchor="middle" x="101.62" y="-257.75" font-family="Helvetica,sans-Serif" font-size="10.00">runSolver</text>
</a>
</g>
</g>
<!-- Node5&#45;&gt;Node6 -->
<g id="edge5_Node000005_Node000006" class="edge">
<title>Node5&#45;&gt;Node6</title>
<g id="a_edge5_Node000005_Node000006"><a xlink:title=" ">
<path fill="none" stroke="#63b8ff" d="M183.08,-273.16C165.15,-270.59 145.78,-267.81 130.53,-265.63"/>
<polygon fill="#63b8ff" stroke="#63b8ff" points="182.4,-276.6 192.79,-274.55 183.39,-269.67 182.4,-276.6"/>
</a>
</g>
</g>
<!-- Node7 -->
<g id="Node000007" class="node">
<title>Node7</title>
<g id="a_Node000007"><a xlink:href="../../d5/d12/_main_8cpp_a0ddf1224851353fc92bfbff6f499fa97.html#a0ddf1224851353fc92bfbff6f499fa97" target="_top" xlink:title=" ">
<polygon fill="white" stroke="#666666" points="37,-271.25 0,-271.25 0,-252 37,-252 37,-271.25"/>
<text text-anchor="middle" x="18.5" y="-257.75" font-family="Helvetica,sans-Serif" font-size="10.00">main</text>
</a>
</g>
</g>
<!-- Node6&#45;&gt;Node7 -->
<g id="edge6_Node000006_Node000007" class="edge">
<title>Node6&#45;&gt;Node7</title>
<g id="a_edge6_Node000006_Node000007"><a xlink:title=" ">
<path fill="none" stroke="#63b8ff" d="M61.38,-261.62C52.95,-261.62 44.43,-261.62 37.3,-261.62"/>
<polygon fill="#63b8ff" stroke="#63b8ff" points="61.19,-265.13 71.19,-261.63 61.19,-258.13 61.19,-265.13"/>
</a>
</g>
</g>
<!-- Node8&#45;&gt;Node6 -->
<g id="edge8_Node000008_Node000006" class="edge">
<title>Node8&#45;&gt;Node6</title>
<g id="a_edge8_Node000008_Node000006"><a xlink:title=" ">
<path fill="none" stroke="#63b8ff" d="M182.22,-250.81C164.58,-253.21 145.62,-255.78 130.63,-257.82"/>
<polygon fill="#63b8ff" stroke="#63b8ff" points="182.63,-254.29 192.06,-249.47 181.68,-247.35 182.63,-254.29"/>
</a>
</g>
</g>
<!-- Node11 -->
<g id="Node000011" class="node">
<title>Node11</title>
<g id="a_Node000011"><a xlink:href="../../d9/ddd/_c_u_d_a___integrated___numerical___method_8cpp_ad25c9a53b380204dd243bc1351d6b098.html#ad25c9a53b380204dd243bc1351d6b098" target="_top" xlink:title=" ">
<polygon fill="white" stroke="#666666" points="641.38,-198.25 501.62,-198.25 501.62,-179 641.38,-179 641.38,-198.25"/>
<text text-anchor="middle" x="571.5" y="-184.75" font-family="Helvetica,sans-Serif" font-size="10.00">Evaluate_Cell_Net_Flux_1O</text>
</a>
</g>
</g>
<!-- Node10&#45;&gt;Node11 -->
<g id="edge11_Node000010_Node000011" class="edge">
<title>Node10&#45;&gt;Node11</title>
<g id="a_edge11_Node000010_Node000011"><a xlink:title=" ">
<path fill="none" stroke="#63b8ff" d="M731.31,-204.01C707.89,-201.74 672.91,-198.36 641.74,-195.33"/>
<polygon fill="#63b8ff" stroke="#63b8ff" points="730.94,-207.49 741.23,-204.98 731.61,-200.53 730.94,-207.49"/>
</a>
</g>
</g>
<!-- Node13 -->
<g id="Node000013" class="node">
<title>Node13</title>
<g id="a_Node000013"><a xlink:href="../../d9/ddd/_c_u_d_a___integrated___numerical___method_8cpp_a4db2fe24c2a78f98ac91e9d7d271430f.html#a4db2fe24c2a78f98ac91e9d7d271430f" target="_top" xlink:title=" ">
<polygon fill="white" stroke="#666666" points="306,-85.25 166.25,-85.25 166.25,-66 306,-66 306,-85.25"/>
<text text-anchor="middle" x="236.12" y="-71.75" font-family="Helvetica,sans-Serif" font-size="10.00">Evaluate_Cell_Net_Flux_2O</text>
</a>
</g>
</g>
<!-- Node12&#45;&gt;Node13 -->
<g id="edge13_Node000012_Node000013" class="edge">
<title>Node12&#45;&gt;Node13</title>
<g id="a_edge13_Node000012_Node000013"><a xlink:title=" ">
<path fill="none" stroke="#63b8ff" d="M362.81,-139.37C355.83,-137.04 348.62,-134.43 342,-131.62 309.69,-117.95 274.04,-97.74 253.74,-85.71"/>
<polygon fill="#63b8ff" stroke="#63b8ff" points="361.43,-142.61 372.02,-142.31 363.56,-135.94 361.43,-142.61"/>
</a>
</g>
</g>
<!-- Node15 -->
<g id="Node000015" class="node">
<title>Node15</title>
<g id="a_Node000015"><a xlink:href="../../d0/da3/_limiters_8cpp_a6bdb2d5e0ff963b9b5b395dc79a19acd.html#a6bdb2d5e0ff963b9b5b395dc79a19acd" target="_top" xlink:title="Computes the second&#45;order limited slopes and reconstructs variables for a given cell and face.">
<polygon fill="white" stroke="#666666" points="627.88,-103.25 515.12,-103.25 515.12,-84 627.88,-84 627.88,-103.25"/>
<text text-anchor="middle" x="571.5" y="-89.75" font-family="Helvetica,sans-Serif" font-size="10.00">Second_Order_Limiter</text>
</a>
</g>
</g>
<!-- Node14&#45;&gt;Node15 -->
<g id="edge15_Node000014_Node000015" class="edge">
<title>Node14&#45;&gt;Node15</title>
<g id="a_edge15_Node000014_Node000015"><a xlink:title=" ">
<path fill="none" stroke="#63b8ff" d="M722.1,-93.62C695.42,-93.62 658.62,-93.62 628.19,-93.62"/>
<polygon fill="#63b8ff" stroke="#63b8ff" points="722.07,-97.13 732.07,-93.63 722.07,-90.13 722.07,-97.13"/>
</a>
</g>
</g>
<!-- Node15&#45;&gt;Node12 -->
<g id="edge16_Node000015_Node000012" class="edge">
<title>Node15&#45;&gt;Node12</title>
<g id="a_edge16_Node000015_Node000012"><a xlink:title=" ">
<path fill="none" stroke="#63b8ff" d="M524.77,-107.03C514.05,-110.35 502.71,-113.99 492.25,-117.62 476.03,-123.26 472.43,-125.89 456.25,-131.62 446.03,-135.25 434.65,-138.96 424.82,-142.06"/>
<polygon fill="#63b8ff" stroke="#63b8ff" points="525.66,-110.42 534.21,-104.16 523.62,-103.73 525.66,-110.42"/>
</a>
</g>
</g>
<!-- Node16 -->
<g id="Node000016" class="node">
<title>Node16</title>
<g id="a_Node000016"><a xlink:href="../../d9/d99/_m_o_v_e_r_s___n_w_s_c_8cpp_a52270c83adc7b5111fd5b794d1d2f99a.html#a52270c83adc7b5111fd5b794d1d2f99a" target="_top" xlink:title=" ">
<polygon fill="white" stroke="#666666" points="456.25,-122.25 342,-122.25 342,-103 456.25,-103 456.25,-122.25"/>
<text text-anchor="middle" x="399.12" y="-108.75" font-family="Helvetica,sans-Serif" font-size="10.00">MOVERS_NWSC_2O</text>
</a>
</g>
</g>
<!-- Node15&#45;&gt;Node16 -->
<g id="edge17_Node000015_Node000016" class="edge">
<title>Node15&#45;&gt;Node16</title>
<g id="a_edge17_Node000015_Node000016"><a xlink:title=" ">
<path fill="none" stroke="#63b8ff" d="M503.58,-101.09C488.05,-102.82 471.66,-104.65 456.62,-106.32"/>
<polygon fill="#63b8ff" stroke="#63b8ff" points="503.66,-104.6 513.21,-100.01 502.88,-97.64 503.66,-104.6"/>
</a>
</g>
</g>
<!-- Node17 -->
<g id="Node000017" class="node">
<title>Node17</title>
<g id="a_Node000017"><a xlink:href="../../d6/d22/_r_i_c_c_a_8cpp_a8c2c0508c9bf49dfb9aab35d82f560ce.html#a8c2c0508c9bf49dfb9aab35d82f560ce" target="_top" xlink:title="Computes the dissipative flux for a given cell and face using the second&#45;order RICCA method.">
<polygon fill="white" stroke="#666666" points="432.25,-85.25 366,-85.25 366,-66 432.25,-66 432.25,-85.25"/>
<text text-anchor="middle" x="399.12" y="-71.75" font-family="Helvetica,sans-Serif" font-size="10.00">RICCA_2O</text>
</a>
</g>
</g>
<!-- Node15&#45;&gt;Node17 -->
<g id="edge19_Node000015_Node000017" class="edge">
<title>Node15&#45;&gt;Node17</title>
<g id="a_edge19_Node000015_Node000017"><a xlink:title=" ">
<path fill="none" stroke="#63b8ff" d="M503.35,-86.53C479.03,-83.96 452.65,-81.17 432.65,-79.06"/>
<polygon fill="#63b8ff" stroke="#63b8ff" points="502.9,-90 513.21,-87.57 503.63,-83.04 502.9,-90"/>
</a>
</g>
</g>
<!-- Node18 -->
<g id="Node000018" class="node">
<title>Node18</title>
<g id="a_Node000018"><a xlink:href="../../d2/d7e/_roe___scheme_8cpp_ae1ea8008753b5cd1a6b353c362cb372d.html#ae1ea8008753b5cd1a6b353c362cb372d" target="_top" xlink:title=" ">
<polygon fill="white" stroke="#666666" points="427,-48.25 371.25,-48.25 371.25,-29 427,-29 427,-48.25"/>
<text text-anchor="middle" x="399.12" y="-34.75" font-family="Helvetica,sans-Serif" font-size="10.00">ROE_2O</text>
</a>
</g>
</g>
<!-- Node15&#45;&gt;Node18 -->
<g id="edge21_Node000015_Node000018" class="edge">
<title>Node15&#45;&gt;Node18</title>
<g id="a_edge21_Node000015_Node000018"><a xlink:title=" ">
<path fill="none" stroke="#63b8ff" d="M528.68,-80.05C507.06,-73.04 480.25,-64.36 456.25,-56.62 446.8,-53.58 436.46,-50.26 427.25,-47.31"/>
<polygon fill="#63b8ff" stroke="#63b8ff" points="527.44,-83.33 538.03,-83.08 529.6,-76.67 527.44,-83.33"/>
</a>
</g>
</g>
<!-- Node16&#45;&gt;Node13 -->
<g id="edge18_Node000016_Node000013" class="edge">
<title>Node16&#45;&gt;Node13</title>
<g id="a_edge18_Node000016_Node000013"><a xlink:title=" ">
<path fill="none" stroke="#63b8ff" d="M343.16,-99.99C322.9,-95.34 300.23,-90.13 281.07,-85.72"/>
<polygon fill="#63b8ff" stroke="#63b8ff" points="342.13,-103.35 352.66,-102.18 343.69,-96.52 342.13,-103.35"/>
</a>
</g>
</g>
<!-- Node17&#45;&gt;Node13 -->
<g id="edge20_Node000017_Node000013" class="edge">
<title>Node17&#45;&gt;Node13</title>
<g id="a_edge20_Node000017_Node000013"><a xlink:title=" ">
<path fill="none" stroke="#63b8ff" d="M354.18,-75.62C339.38,-75.62 322.49,-75.62 306.23,-75.62"/>
<polygon fill="#63b8ff" stroke="#63b8ff" points="354.03,-79.13 364.03,-75.63 354.03,-72.13 354.03,-79.13"/>
</a>
</g>
</g>
<!-- Node18&#45;&gt;Node13 -->
<g id="edge22_Node000018_Node000013" class="edge">
<title>Node18&#45;&gt;Node13</title>
<g id="a_edge22_Node000018_Node000013"><a xlink:title=" ">
<path fill="none" stroke="#63b8ff" d="M359.79,-47.44C336.11,-52.88 305.64,-59.88 281,-65.54"/>
<polygon fill="#63b8ff" stroke="#63b8ff" points="360.38,-50.89 369.34,-45.24 358.81,-44.07 360.38,-50.89"/>
</a>
</g>
</g>
<!-- Node19&#45;&gt;Node11 -->
<g id="edge24_Node000019_Node000011" class="edge">
<title>Node19&#45;&gt;Node11</title>
<g id="a_edge24_Node000019_Node000011"><a xlink:title=" ">
<path fill="none" stroke="#63b8ff" d="M717.87,-173.76C695.64,-176.03 667.44,-178.91 641.8,-181.54"/>
<polygon fill="#63b8ff" stroke="#63b8ff" points="718.13,-177.25 727.72,-172.75 717.42,-170.28 718.13,-177.25"/>
</a>
</g>
</g>
<!-- Node20&#45;&gt;Node13 -->
<g id="edge26_Node000020_Node000013" class="edge">
<title>Node20&#45;&gt;Node13</title>
<g id="a_edge26_Node000020_Node000013"><a xlink:title=" ">
<path fill="none" stroke="#63b8ff" d="M521.14,-5.56C474.19,-3.14 402.02,-3.2 342,-19.62 306.76,-29.27 270.12,-52.35 250.86,-65.67"/>
<polygon fill="#63b8ff" stroke="#63b8ff" points="520.81,-9.05 531,-6.13 521.22,-2.06 520.81,-9.05"/>
</a>
</g>
</g>
</g>
</svg>
