<?xml version="1.0" encoding="UTF-8" standalone="no"?>
<!DOCTYPE svg PUBLIC "-//W3C//DTD SVG 1.1//EN"
 "http://www.w3.org/Graphics/SVG/1.1/DTD/svg11.dtd">
<!-- Generated by graphviz version 12.2.1 (20241206.2353)
 -->
<!-- Title: Minimum Pages: 1 -->
<svg width="661pt" height="139pt"
 viewBox="0.00 0.00 661.00 139.25" xmlns="http://www.w3.org/2000/svg" xmlns:xlink="http://www.w3.org/1999/xlink">
<g id="graph0" class="graph" transform="scale(1 1) rotate(0) translate(4 135.25)">
<title>Minimum</title>
<!-- Node1 -->
<g id="Node000001" class="node">
<title>Node1</title>
<g id="a_Node000001"><a xlink:title=" ">
<polygon fill="#999999" stroke="#666666" points="653,-57.25 597.25,-57.25 597.25,-38 653,-38 653,-57.25"/>
<text text-anchor="middle" x="625.12" y="-43.75" font-family="Helvetica,sans-Serif" font-size="10.00">Minimum</text>
</a>
</g>
</g>
<!-- Node2 -->
<g id="Node000002" class="node">
<title>Node2</title>
<g id="a_Node000002"><a xlink:href="../../d0/da3/_limiters_8cpp_a01ee9151d91c270729e4d9df0a89e287.html#a01ee9151d91c270729e4d9df0a89e287" target="_top" xlink:title="Computes the MinMod limiter for three input values and updates the result in the provided reference.">
<polygon fill="white" stroke="#666666" points="556.75,-94.25 506.25,-94.25 506.25,-75 556.75,-75 556.75,-94.25"/>
<text text-anchor="middle" x="531.5" y="-80.75" font-family="Helvetica,sans-Serif" font-size="10.00">MinMod</text>
</a>
</g>
</g>
<!-- Node1&#45;&gt;Node2 -->
<g id="edge1_Node000001_Node000002" class="edge">
<title>Node1&#45;&gt;Node2</title>
<g id="a_edge1_Node000001_Node000002"><a xlink:title=" ">
<path fill="none" stroke="#63b8ff" d="M588.54,-62C578.06,-66.23 566.83,-70.76 557.19,-74.65"/>
<polygon fill="#63b8ff" stroke="#63b8ff" points="589.72,-65.29 597.68,-58.3 587.1,-58.8 589.72,-65.29"/>
</a>
</g>
</g>
<!-- Node8 -->
<g id="Node000008" class="node">
<title>Node8</title>
<g id="a_Node000008"><a xlink:href="../../dd/d30/_m_o_v_e_r_s_8cpp_ad9d16fef8d34a1b19bfdbf938bf033be.html#ad9d16fef8d34a1b19bfdbf938bf033be" target="_top" xlink:title=" ">
<polygon fill="white" stroke="#666666" points="561.25,-57.25 501.75,-57.25 501.75,-38 561.25,-38 561.25,-57.25"/>
<text text-anchor="middle" x="531.5" y="-43.75" font-family="Helvetica,sans-Serif" font-size="10.00">MOVERS</text>
</a>
</g>
</g>
<!-- Node1&#45;&gt;Node8 -->
<g id="edge9_Node000001_Node000008" class="edge">
<title>Node1&#45;&gt;Node8</title>
<g id="a_edge9_Node000001_Node000008"><a xlink:title=" ">
<path fill="none" stroke="#63b8ff" d="M585.65,-47.62C577.58,-47.62 569.2,-47.62 561.54,-47.62"/>
<polygon fill="#63b8ff" stroke="#63b8ff" points="585.62,-51.13 595.62,-47.63 585.62,-44.13 585.62,-51.13"/>
</a>
</g>
</g>
<!-- Node10 -->
<g id="Node000010" class="node">
<title>Node10</title>
<g id="a_Node000010"><a xlink:href="../../dd/d30/_m_o_v_e_r_s_8cpp_a895c6dcdac689f71d89e341046362be9.html#a895c6dcdac689f71d89e341046362be9" target="_top" xlink:title=" ">
<polygon fill="white" stroke="#666666" points="434.62,-19.25 357.12,-19.25 357.12,0 434.62,0 434.62,-19.25"/>
<text text-anchor="middle" x="395.88" y="-5.75" font-family="Helvetica,sans-Serif" font-size="10.00">MOVERS_2O</text>
</a>
</g>
</g>
<!-- Node1&#45;&gt;Node10 -->
<g id="edge11_Node000001_Node000010" class="edge">
<title>Node1&#45;&gt;Node10</title>
<g id="a_edge11_Node000001_Node000010"><a xlink:title=" ">
<path fill="none" stroke="#63b8ff" d="M585.85,-34.87C577.79,-32.52 569.29,-30.29 561.25,-28.62 518.49,-19.77 468.56,-14.73 435.05,-12.1"/>
<polygon fill="#63b8ff" stroke="#63b8ff" points="584.82,-38.22 595.41,-37.78 586.86,-31.52 584.82,-38.22"/>
</a>
</g>
</g>
<!-- Node3 -->
<g id="Node000003" class="node">
<title>Node3</title>
<g id="a_Node000003"><a xlink:href="../../d0/da3/_limiters_8cpp_a6bdb2d5e0ff963b9b5b395dc79a19acd.html#a6bdb2d5e0ff963b9b5b395dc79a19acd" target="_top" xlink:title="Computes the second&#45;order limited slopes and reconstructs variables for a given cell and face.">
<polygon fill="white" stroke="#666666" points="452.25,-94.25 339.5,-94.25 339.5,-75 452.25,-75 452.25,-94.25"/>
<text text-anchor="middle" x="395.88" y="-80.75" font-family="Helvetica,sans-Serif" font-size="10.00">Second_Order_Limiter</text>
</a>
</g>
</g>
<!-- Node2&#45;&gt;Node3 -->
<g id="edge2_Node000002_Node000003" class="edge">
<title>Node2&#45;&gt;Node3</title>
<g id="a_edge2_Node000002_Node000003"><a xlink:title=" ">
<path fill="none" stroke="#63b8ff" d="M494.73,-84.62C481.77,-84.62 466.81,-84.62 452.54,-84.62"/>
<polygon fill="#63b8ff" stroke="#63b8ff" points="494.48,-88.13 504.48,-84.63 494.48,-81.13 494.48,-88.13"/>
</a>
</g>
</g>
<!-- Node4 -->
<g id="Node000004" class="node">
<title>Node4</title>
<g id="a_Node000004"><a xlink:href="../../de/d88/_l_l_f_8cpp_a3f7724701b89e020e5e2cb9aee42ca55.html#a3f7724701b89e020e5e2cb9aee42ca55" target="_top" xlink:title=" ">
<polygon fill="white" stroke="#666666" points="258.12,-131.25 207.62,-131.25 207.62,-112 258.12,-112 258.12,-131.25"/>
<text text-anchor="middle" x="232.88" y="-117.75" font-family="Helvetica,sans-Serif" font-size="10.00">LLF_2O</text>
</a>
</g>
</g>
<!-- Node3&#45;&gt;Node4 -->
<g id="edge3_Node000003_Node000004" class="edge">
<title>Node3&#45;&gt;Node4</title>
<g id="a_edge3_Node000003_Node000004"><a xlink:title=" ">
<path fill="none" stroke="#63b8ff" d="M339.72,-97.3C312.02,-103.67 279.86,-111.06 258.33,-116.01"/>
<polygon fill="#63b8ff" stroke="#63b8ff" points="340.44,-100.73 349.41,-95.07 338.88,-93.9 340.44,-100.73"/>
</a>
</g>
</g>
<!-- Node6 -->
<g id="Node000006" class="node">
<title>Node6</title>
<g id="a_Node000006"><a xlink:href="../../d9/d99/_m_o_v_e_r_s___n_w_s_c_8cpp_a52270c83adc7b5111fd5b794d1d2f99a.html#a52270c83adc7b5111fd5b794d1d2f99a" target="_top" xlink:title=" ">
<polygon fill="white" stroke="#666666" points="290,-94.25 175.75,-94.25 175.75,-75 290,-75 290,-94.25"/>
<text text-anchor="middle" x="232.88" y="-80.75" font-family="Helvetica,sans-Serif" font-size="10.00">MOVERS_NWSC_2O</text>
</a>
</g>
</g>
<!-- Node3&#45;&gt;Node6 -->
<g id="edge5_Node000003_Node000006" class="edge">
<title>Node3&#45;&gt;Node6</title>
<g id="a_edge5_Node000003_Node000006"><a xlink:title=" ">
<path fill="none" stroke="#63b8ff" d="M327.78,-84.62C315.36,-84.62 302.51,-84.62 290.45,-84.62"/>
<polygon fill="#63b8ff" stroke="#63b8ff" points="327.5,-88.13 337.5,-84.63 327.5,-81.13 327.5,-88.13"/>
</a>
</g>
</g>
<!-- Node7 -->
<g id="Node000007" class="node">
<title>Node7</title>
<g id="a_Node000007"><a xlink:href="../../d6/d22/_r_i_c_c_a_8cpp_a8c2c0508c9bf49dfb9aab35d82f560ce.html#a8c2c0508c9bf49dfb9aab35d82f560ce" target="_top" xlink:title="Computes the dissipative flux for a given cell and face using the second&#45;order RICCA method.">
<polygon fill="white" stroke="#666666" points="266,-57.25 199.75,-57.25 199.75,-38 266,-38 266,-57.25"/>
<text text-anchor="middle" x="232.88" y="-43.75" font-family="Helvetica,sans-Serif" font-size="10.00">RICCA_2O</text>
</a>
</g>
</g>
<!-- Node3&#45;&gt;Node7 -->
<g id="edge7_Node000003_Node000007" class="edge">
<title>Node3&#45;&gt;Node7</title>
<g id="a_edge7_Node000003_Node000007"><a xlink:title=" ">
<path fill="none" stroke="#63b8ff" d="M339.91,-71.99C315.42,-66.36 287.4,-59.93 266.32,-55.08"/>
<polygon fill="#63b8ff" stroke="#63b8ff" points="338.88,-75.35 349.41,-74.18 340.44,-68.52 338.88,-75.35"/>
</a>
</g>
</g>
<!-- Node5 -->
<g id="Node000005" class="node">
<title>Node5</title>
<g id="a_Node000005"><a xlink:href="../../d9/ddd/_c_u_d_a___integrated___numerical___method_8cpp_a4db2fe24c2a78f98ac91e9d7d271430f.html#a4db2fe24c2a78f98ac91e9d7d271430f" target="_top" xlink:title=" ">
<polygon fill="white" stroke="#666666" points="139.75,-75.25 0,-75.25 0,-56 139.75,-56 139.75,-75.25"/>
<text text-anchor="middle" x="69.88" y="-61.75" font-family="Helvetica,sans-Serif" font-size="10.00">Evaluate_Cell_Net_Flux_2O</text>
</a>
</g>
</g>
<!-- Node4&#45;&gt;Node5 -->
<g id="edge4_Node000004_Node000005" class="edge">
<title>Node4&#45;&gt;Node5</title>
<g id="a_edge4_Node000004_Node000005"><a xlink:title=" ">
<path fill="none" stroke="#63b8ff" d="M196.65,-110.55C189.71,-108.3 182.49,-105.92 175.75,-103.62 149.18,-94.55 119.06,-83.57 97.94,-75.75"/>
<polygon fill="#63b8ff" stroke="#63b8ff" points="195.19,-113.76 205.78,-113.48 197.33,-107.09 195.19,-113.76"/>
</a>
</g>
</g>
<!-- Node6&#45;&gt;Node5 -->
<g id="edge6_Node000006_Node000005" class="edge">
<title>Node6&#45;&gt;Node5</title>
<g id="a_edge6_Node000006_Node000005"><a xlink:title=" ">
<path fill="none" stroke="#63b8ff" d="M164.4,-76.66C156.39,-75.72 148.21,-74.75 140.18,-73.8"/>
<polygon fill="#63b8ff" stroke="#63b8ff" points="163.72,-80.11 174.06,-77.8 164.54,-73.15 163.72,-80.11"/>
</a>
</g>
</g>
<!-- Node7&#45;&gt;Node5 -->
<g id="edge8_Node000007_Node000005" class="edge">
<title>Node7&#45;&gt;Node5</title>
<g id="a_edge8_Node000007_Node000005"><a xlink:title=" ">
<path fill="none" stroke="#63b8ff" d="M187.93,-52.54C173.13,-54.19 156.24,-56.08 139.98,-57.9"/>
<polygon fill="#63b8ff" stroke="#63b8ff" points="188.24,-56.03 197.79,-51.44 187.46,-49.07 188.24,-56.03"/>
</a>
</g>
</g>
<!-- Node9 -->
<g id="Node000009" class="node">
<title>Node9</title>
<g id="a_Node000009"><a xlink:href="../../d9/ddd/_c_u_d_a___integrated___numerical___method_8cpp_ad25c9a53b380204dd243bc1351d6b098.html#ad25c9a53b380204dd243bc1351d6b098" target="_top" xlink:title=" ">
<polygon fill="white" stroke="#666666" points="465.75,-57.25 326,-57.25 326,-38 465.75,-38 465.75,-57.25"/>
<text text-anchor="middle" x="395.88" y="-43.75" font-family="Helvetica,sans-Serif" font-size="10.00">Evaluate_Cell_Net_Flux_1O</text>
</a>
</g>
</g>
<!-- Node8&#45;&gt;Node9 -->
<g id="edge10_Node000008_Node000009" class="edge">
<title>Node8&#45;&gt;Node9</title>
<g id="a_edge10_Node000008_Node000009"><a xlink:title=" ">
<path fill="none" stroke="#63b8ff" d="M490.07,-47.62C482.47,-47.62 474.32,-47.62 466.12,-47.62"/>
<polygon fill="#63b8ff" stroke="#63b8ff" points="489.99,-51.13 499.99,-47.63 489.99,-44.13 489.99,-51.13"/>
</a>
</g>
</g>
<!-- Node10&#45;&gt;Node5 -->
<g id="edge12_Node000010_Node000005" class="edge">
<title>Node10&#45;&gt;Node5</title>
<g id="a_edge12_Node000010_Node000005"><a xlink:title=" ">
<path fill="none" stroke="#63b8ff" d="M345.4,-10.36C300.64,-11.86 233.14,-16.22 175.75,-28.62 146.88,-34.86 115.06,-46.86 94.12,-55.51"/>
<polygon fill="#63b8ff" stroke="#63b8ff" points="345.43,-13.86 355.32,-10.07 345.22,-6.87 345.43,-13.86"/>
</a>
</g>
</g>
</g>
</svg>
