<?xml version="1.0" encoding="UTF-8" standalone="no"?>
<!DOCTYPE svg PUBLIC "-//W3C//DTD SVG 1.1//EN"
 "http://www.w3.org/Graphics/SVG/1.1/DTD/svg11.dtd">
<!-- Generated by graphviz version 12.2.1 (20241206.2353)
 -->
<!-- Title: include/Assemble_Matrix.h Pages: 1 -->
<svg width="304pt" height="105pt"
 viewBox="0.00 0.00 303.62 105.00" xmlns="http://www.w3.org/2000/svg" xmlns:xlink="http://www.w3.org/1999/xlink">
<g id="graph0" class="graph" transform="scale(1 1) rotate(0) translate(4 101)">
<title>include/Assemble_Matrix.h</title>
<!-- Node1 -->
<g id="Node000001" class="node">
<title>Node1</title>
<g id="a_Node000001"><a xlink:title=" ">
<polygon fill="#999999" stroke="#666666" points="220,-97 86.25,-97 86.25,-77.75 220,-77.75 220,-97"/>
<text text-anchor="middle" x="153.12" y="-83.5" font-family="Helvetica,sans-Serif" font-size="10.00">include/Assemble_Matrix.h</text>
</a>
</g>
</g>
<!-- Node2 -->
<g id="Node000002" class="node">
<title>Node2</title>
<g id="a_Node000002"><a xlink:href="../../d5/d81/_matrix___assembly___c_u_d_a___integration___example_8cpp.html" target="_top" xlink:title=" ">
<polygon fill="white" stroke="#666666" points="150.25,-41.75 0,-41.75 0,0 150.25,0 150.25,-41.75"/>
<text text-anchor="start" x="8" y="-28.25" font-family="Helvetica,sans-Serif" font-size="10.00">CUDA_KERNELS/Matrix</text>
<text text-anchor="start" x="8" y="-17" font-family="Helvetica,sans-Serif" font-size="10.00">_Assembly_CUDA_Integration</text>
<text text-anchor="middle" x="75.12" y="-5.75" font-family="Helvetica,sans-Serif" font-size="10.00">_Example.cpp</text>
</a>
</g>
</g>
<!-- Node1&#45;&gt;Node2 -->
<g id="edge1_Node000001_Node000002" class="edge">
<title>Node1&#45;&gt;Node2</title>
<g id="a_edge1_Node000001_Node000002"><a xlink:title=" ">
<path fill="none" stroke="#63b8ff" d="M133.64,-70.26C123.36,-61.76 110.63,-51.24 99.68,-42.18"/>
<polygon fill="#63b8ff" stroke="#63b8ff" points="131.18,-72.77 141.11,-76.44 135.64,-67.37 131.18,-72.77"/>
</a>
</g>
</g>
<!-- Node3 -->
<g id="Node000003" class="node">
<title>Node3</title>
<g id="a_Node000003"><a xlink:href="../../db/dbe/_assemble___matrix_8cpp.html" target="_top" xlink:title=" ">
<polygon fill="white" stroke="#666666" points="295.62,-30.5 168.62,-30.5 168.62,-11.25 295.62,-11.25 295.62,-30.5"/>
<text text-anchor="middle" x="232.12" y="-17" font-family="Helvetica,sans-Serif" font-size="10.00">src/Assemble_Matrix.cpp</text>
</a>
</g>
</g>
<!-- Node1&#45;&gt;Node3 -->
<g id="edge2_Node000001_Node000003" class="edge">
<title>Node1&#45;&gt;Node3</title>
<g id="a_edge2_Node000001_Node000003"><a xlink:title=" ">
<path fill="none" stroke="#63b8ff" d="M172.77,-70.33C187.97,-57.92 208.48,-41.18 220.98,-30.98"/>
<polygon fill="#63b8ff" stroke="#63b8ff" points="170.81,-67.41 165.28,-76.45 175.24,-72.84 170.81,-67.41"/>
</a>
</g>
</g>
</g>
</svg>
