<?xml version="1.0" encoding="UTF-8" standalone="no"?>
<!DOCTYPE svg PUBLIC "-//W3C//DTD SVG 1.1//EN"
 "http://www.w3.org/Graphics/SVG/1.1/DTD/svg11.dtd">
<!-- Generated by graphviz version 12.2.1 (20241206.2353)
 -->
<!-- Title: Evaluate_Time_Step Pages: 1 -->
<svg width="798pt" height="229pt"
 viewBox="0.00 0.00 797.75 228.81" xmlns="http://www.w3.org/2000/svg" xmlns:xlink="http://www.w3.org/1999/xlink">
<g id="graph0" class="graph" transform="scale(1 1) rotate(0) translate(4 224.81)">
<title>Evaluate_Time_Step</title>
<!-- Node1 -->
<g id="Node000001" class="node">
<title>Node1</title>
<g id="a_Node000001"><a xlink:title=" ">
<polygon fill="#999999" stroke="#666666" points="789.75,-142.25 683,-142.25 683,-123 789.75,-123 789.75,-142.25"/>
<text text-anchor="middle" x="736.38" y="-128.75" font-family="Helvetica,sans-Serif" font-size="10.00">Evaluate_Time_Step</text>
</a>
</g>
</g>
<!-- Node2 -->
<g id="Node000002" class="node">
<title>Node2</title>
<g id="a_Node000002"><a xlink:href="../../d7/db1/_net___flux_8cpp_ad25c9a53b380204dd243bc1351d6b098.html#ad25c9a53b380204dd243bc1351d6b098" target="_top" xlink:title="Evaluates the first&#45;order net flux for all cells in the computational domain.">
<polygon fill="white" stroke="#666666" points="637.62,-152.25 497.88,-152.25 497.88,-133 637.62,-133 637.62,-152.25"/>
<text text-anchor="middle" x="567.75" y="-138.75" font-family="Helvetica,sans-Serif" font-size="10.00">Evaluate_Cell_Net_Flux_1O</text>
</a>
</g>
</g>
<!-- Node1&#45;&gt;Node2 -->
<g id="edge1_Node000001_Node000002" class="edge">
<title>Node1&#45;&gt;Node2</title>
<g id="a_edge1_Node000001_Node000002"><a xlink:title=" ">
<path fill="none" stroke="#63b8ff" d="M671.43,-136.46C660.45,-137.12 649.01,-137.81 637.91,-138.47"/>
<polygon fill="#63b8ff" stroke="#63b8ff" points="671.37,-139.97 681.14,-135.88 670.95,-132.99 671.37,-139.97"/>
</a>
</g>
</g>
<!-- Node4 -->
<g id="Node000004" class="node">
<title>Node4</title>
<g id="a_Node000004"><a xlink:href="../../dd/dbf/_euler___python___wrapper_8cpp_ac5ccb50c3be270f798e054dd36987442.html#ac5ccb50c3be270f798e054dd36987442" target="_top" xlink:title=" ">
<polygon fill="white" stroke="#666666" points="185.75,-133.25 73,-133.25 73,-114 185.75,-114 185.75,-133.25"/>
<text text-anchor="middle" x="129.38" y="-119.75" font-family="Helvetica,sans-Serif" font-size="10.00">PYBIND11_MODULE</text>
</a>
</g>
</g>
<!-- Node1&#45;&gt;Node4 -->
<g id="edge27_Node000001_Node000004" class="edge">
<title>Node1&#45;&gt;Node4</title>
<g id="a_edge27_Node000001_Node000004"><a xlink:title=" ">
<path fill="none" stroke="#63b8ff" d="M695.09,-146.19C680.03,-151.17 662.77,-156.77 647,-161.62 515.28,-202.18 479.26,-230.08 342,-217.62 287.89,-212.72 271.27,-217.99 221.75,-195.62 187.7,-180.25 155.14,-149.49 139.7,-133.62"/>
<polygon fill="#63b8ff" stroke="#63b8ff" points="695.78,-149.65 704.16,-143.17 693.57,-143.01 695.78,-149.65"/>
</a>
</g>
</g>
<!-- Node11 -->
<g id="Node000011" class="node">
<title>Node11</title>
<g id="a_Node000011"><a xlink:href="../../d7/db1/_net___flux_8cpp_a4db2fe24c2a78f98ac91e9d7d271430f.html#a4db2fe24c2a78f98ac91e9d7d271430f" target="_top" xlink:title="Evaluates the net flux for each cell using a second&#45;order flux calculation method.">
<polygon fill="white" stroke="#666666" points="637.62,-104.25 497.88,-104.25 497.88,-85 637.62,-85 637.62,-104.25"/>
<text text-anchor="middle" x="567.75" y="-90.75" font-family="Helvetica,sans-Serif" font-size="10.00">Evaluate_Cell_Net_Flux_2O</text>
</a>
</g>
</g>
<!-- Node1&#45;&gt;Node11 -->
<g id="edge18_Node000001_Node000011" class="edge">
<title>Node1&#45;&gt;Node11</title>
<g id="a_edge18_Node000001_Node000011"><a xlink:title=" ">
<path fill="none" stroke="#63b8ff" d="M680.04,-120.01C658.21,-115.03 633.48,-109.39 612.88,-104.69"/>
<polygon fill="#63b8ff" stroke="#63b8ff" points="679.16,-123.39 689.68,-122.2 680.71,-116.57 679.16,-123.39"/>
</a>
</g>
</g>
<!-- Node12 -->
<g id="Node000012" class="node">
<title>Node12</title>
<g id="a_Node000012"><a xlink:href="../../d8/df4/_w_e_n_o2_d_8cpp_a74c2795e4a164178c69743947d6e6cf5.html#a74c2795e4a164178c69743947d6e6cf5" target="_top" xlink:title=" ">
<polygon fill="white" stroke="#666666" points="647,-57.25 488.5,-57.25 488.5,-38 647,-38 647,-57.25"/>
<text text-anchor="middle" x="567.75" y="-43.75" font-family="Helvetica,sans-Serif" font-size="10.00">Evaluate_Cell_Net_Flux_WENO</text>
</a>
</g>
</g>
<!-- Node1&#45;&gt;Node12 -->
<g id="edge24_Node000001_Node000012" class="edge">
<title>Node1&#45;&gt;Node12</title>
<g id="a_edge24_Node000001_Node000012"><a xlink:title=" ">
<path fill="none" stroke="#63b8ff" d="M712.59,-115.85C695.23,-103.59 670.41,-87.17 647,-75.62 632.77,-68.6 616.32,-62.45 602.18,-57.71"/>
<polygon fill="#63b8ff" stroke="#63b8ff" points="710.48,-118.65 720.65,-121.63 714.56,-112.96 710.48,-118.65"/>
</a>
</g>
</g>
<!-- Node3 -->
<g id="Node000003" class="node">
<title>Node3</title>
<g id="a_Node000003"><a xlink:href="../../db/dbe/_assemble___matrix_8cpp_a19cccc9540fb68aa18547238ebc80951.html#a19cccc9540fb68aa18547238ebc80951" target="_top" xlink:title=" ">
<polygon fill="white" stroke="#666666" points="432.25,-171.25 362.25,-171.25 362.25,-152 432.25,-152 432.25,-171.25"/>
<text text-anchor="middle" x="397.25" y="-157.75" font-family="Helvetica,sans-Serif" font-size="10.00">Assemble_b</text>
</a>
</g>
</g>
<!-- Node2&#45;&gt;Node3 -->
<g id="edge2_Node000002_Node000003" class="edge">
<title>Node2&#45;&gt;Node3</title>
<g id="a_edge2_Node000002_Node000003"><a xlink:title=" ">
<path fill="none" stroke="#63b8ff" d="M486.54,-151.67C467.44,-153.82 448.06,-156.01 432.34,-157.78"/>
<polygon fill="#63b8ff" stroke="#63b8ff" points="486.68,-155.18 496.22,-150.58 485.9,-148.22 486.68,-155.18"/>
</a>
</g>
</g>
<!-- Node2&#45;&gt;Node4 -->
<g id="edge12_Node000002_Node000004" class="edge">
<title>Node2&#45;&gt;Node4</title>
<g id="a_edge12_Node000002_Node000004"><a xlink:title=" ">
<path fill="none" stroke="#63b8ff" d="M542.89,-158.97C520.63,-173.15 485.93,-192.63 452.5,-200.62 336.18,-228.46 196.23,-160.23 147.83,-133.67"/>
<polygon fill="#63b8ff" stroke="#63b8ff" points="544.75,-161.93 551.2,-153.52 540.92,-156.07 544.75,-161.93"/>
</a>
</g>
</g>
<!-- Node5 -->
<g id="Node000005" class="node">
<title>Node5</title>
<g id="a_Node000005"><a xlink:href="../../db/d38/_parallel___numerical___method_8cpp_a8dda0c7e17babab9b6e49e8e199dc30e.html#a8dda0c7e17babab9b6e49e8e199dc30e" target="_top" xlink:title=" ">
<polygon fill="white" stroke="#666666" points="440.12,-20.25 354.38,-20.25 354.38,-1 440.12,-1 440.12,-20.25"/>
<text text-anchor="middle" x="397.25" y="-6.75" font-family="Helvetica,sans-Serif" font-size="10.00">Explicit_Method</text>
</a>
</g>
</g>
<!-- Node2&#45;&gt;Node5 -->
<g id="edge4_Node000002_Node000005" class="edge">
<title>Node2&#45;&gt;Node5</title>
<g id="a_edge4_Node000002_Node000005"><a xlink:title=" ">
<path fill="none" stroke="#63b8ff" d="M510.62,-128.31C502.54,-124.49 494.83,-119.68 488.5,-113.62 458.83,-85.29 482.65,-56.45 452.5,-28.62 449,-25.39 444.9,-22.74 440.56,-20.57"/>
<polygon fill="#63b8ff" stroke="#63b8ff" points="509,-131.42 519.58,-132.05 511.7,-124.96 509,-131.42"/>
</a>
</g>
</g>
<!-- Node9 -->
<g id="Node000009" class="node">
<title>Node9</title>
<g id="a_Node000009"><a xlink:href="../../de/df0/_solver_8cpp_a2f37f06e8324a1ed6aa99efdbba81865.html#a2f37f06e8324a1ed6aa99efdbba81865" target="_top" xlink:title=" ">
<polygon fill="white" stroke="#666666" points="306,-95.25 221.75,-95.25 221.75,-76 306,-76 306,-95.25"/>
<text text-anchor="middle" x="263.88" y="-81.75" font-family="Helvetica,sans-Serif" font-size="10.00">Viscous_Solver</text>
</a>
</g>
</g>
<!-- Node2&#45;&gt;Node9 -->
<g id="edge17_Node000002_Node000009" class="edge">
<title>Node2&#45;&gt;Node9</title>
<g id="a_edge17_Node000002_Node000009"><a xlink:title=" ">
<path fill="none" stroke="#63b8ff" d="M538.29,-157.73C494.13,-178.97 407.38,-211.76 342,-180.62 304.22,-162.63 278.91,-116.07 269.26,-95.57"/>
<polygon fill="#63b8ff" stroke="#63b8ff" points="539.81,-160.88 547.21,-153.3 536.69,-154.62 539.81,-160.88"/>
</a>
</g>
</g>
<!-- Node10 -->
<g id="Node000010" class="node">
<title>Node10</title>
<g id="a_Node000010"><a xlink:href="../../d0/d64/_numerical___method_8cpp_a794f030971fbb7c9dd4bc08df03f50f1.html#a794f030971fbb7c9dd4bc08df03f50f1" target="_top" xlink:title=" ">
<polygon fill="white" stroke="#666666" points="452.5,-57.25 342,-57.25 342,-38 452.5,-38 452.5,-57.25"/>
<text text-anchor="middle" x="397.25" y="-43.75" font-family="Helvetica,sans-Serif" font-size="10.00">Runge_Kutta_Method</text>
</a>
</g>
</g>
<!-- Node2&#45;&gt;Node10 -->
<g id="edge13_Node000002_Node000010" class="edge">
<title>Node2&#45;&gt;Node10</title>
<g id="a_edge13_Node000002_Node000010"><a xlink:title=" ">
<path fill="none" stroke="#63b8ff" d="M522.81,-128.76C511.36,-124.5 499.23,-119.39 488.5,-113.62 458.07,-97.27 426.32,-71.75 409.8,-57.72"/>
<polygon fill="#63b8ff" stroke="#63b8ff" points="521.49,-132.01 532.08,-132.07 523.84,-125.42 521.49,-132.01"/>
</a>
</g>
</g>
<!-- Node3&#45;&gt;Node4 -->
<g id="edge3_Node000003_Node000004" class="edge">
<title>Node3&#45;&gt;Node4</title>
<g id="a_edge3_Node000003_Node000004"><a xlink:title=" ">
<path fill="none" stroke="#63b8ff" d="M350.44,-155.52C315.23,-150.78 265.39,-143.97 221.75,-137.62 210.16,-135.94 197.74,-134.08 185.92,-132.28"/>
<polygon fill="#63b8ff" stroke="#63b8ff" points="349.92,-158.98 360.29,-156.84 350.85,-152.04 349.92,-158.98"/>
</a>
</g>
</g>
<!-- Node6 -->
<g id="Node000006" class="node">
<title>Node6</title>
<g id="a_Node000006"><a xlink:href="../../de/df0/_solver_8cpp_ad0f49408a26339b5f7043bf867c3fa8d.html#ad0f49408a26339b5f7043bf867c3fa8d" target="_top" xlink:title=" ">
<polygon fill="white" stroke="#666666" points="305.25,-19.25 222.5,-19.25 222.5,0 305.25,0 305.25,-19.25"/>
<text text-anchor="middle" x="263.88" y="-5.75" font-family="Helvetica,sans-Serif" font-size="10.00">Inviscid_Solver</text>
</a>
</g>
</g>
<!-- Node5&#45;&gt;Node6 -->
<g id="edge5_Node000005_Node000006" class="edge">
<title>Node5&#45;&gt;Node6</title>
<g id="a_edge5_Node000005_Node000006"><a xlink:title=" ">
<path fill="none" stroke="#63b8ff" d="M342.82,-10.22C330.45,-10.12 317.48,-10.03 305.74,-9.94"/>
<polygon fill="#63b8ff" stroke="#63b8ff" points="342.42,-13.72 352.45,-10.29 342.47,-6.72 342.42,-13.72"/>
</a>
</g>
</g>
<!-- Node5&#45;&gt;Node9 -->
<g id="edge9_Node000005_Node000009" class="edge">
<title>Node5&#45;&gt;Node9</title>
<g id="a_edge9_Node000005_Node000009"><a xlink:title=" ">
<path fill="none" stroke="#63b8ff" d="M349.92,-24.87C347.2,-26.06 344.54,-27.31 342,-28.62 316.28,-41.96 289.89,-63.5 275.63,-75.93"/>
<polygon fill="#63b8ff" stroke="#63b8ff" points="351.14,-28.16 359.16,-21.23 348.57,-21.64 351.14,-28.16"/>
</a>
</g>
</g>
<!-- Node6&#45;&gt;Node4 -->
<g id="edge6_Node000006_Node000004" class="edge">
<title>Node6&#45;&gt;Node4</title>
<g id="a_edge6_Node000006_Node000004"><a xlink:title=" ">
<path fill="none" stroke="#63b8ff" d="M233.82,-25.34C229.66,-27.95 225.52,-30.74 221.75,-33.62 204.33,-46.95 159.61,-93.06 139.92,-113.61"/>
<polygon fill="#63b8ff" stroke="#63b8ff" points="235.28,-28.55 242.1,-20.44 231.71,-22.53 235.28,-28.55"/>
</a>
</g>
</g>
<!-- Node7 -->
<g id="Node000007" class="node">
<title>Node7</title>
<g id="a_Node000007"><a xlink:href="../../d5/d12/_main_8cpp_a35d775933750ace299102f06a1712663.html#a35d775933750ace299102f06a1712663" target="_top" xlink:title=" ">
<polygon fill="white" stroke="#666666" points="158,-57.25 100.75,-57.25 100.75,-38 158,-38 158,-57.25"/>
<text text-anchor="middle" x="129.38" y="-43.75" font-family="Helvetica,sans-Serif" font-size="10.00">runSolver</text>
</a>
</g>
</g>
<!-- Node6&#45;&gt;Node7 -->
<g id="edge7_Node000006_Node000007" class="edge">
<title>Node6&#45;&gt;Node7</title>
<g id="a_edge7_Node000006_Node000007"><a xlink:title=" ">
<path fill="none" stroke="#63b8ff" d="M216.86,-22.82C197.3,-28.43 175.13,-34.79 158.14,-39.66"/>
<polygon fill="#63b8ff" stroke="#63b8ff" points="217.61,-26.25 226.26,-20.13 215.68,-19.52 217.61,-26.25"/>
</a>
</g>
</g>
<!-- Node8 -->
<g id="Node000008" class="node">
<title>Node8</title>
<g id="a_Node000008"><a xlink:href="../../d5/d12/_main_8cpp_a0ddf1224851353fc92bfbff6f499fa97.html#a0ddf1224851353fc92bfbff6f499fa97" target="_top" xlink:title=" ">
<polygon fill="white" stroke="#666666" points="37,-57.25 0,-57.25 0,-38 37,-38 37,-57.25"/>
<text text-anchor="middle" x="18.5" y="-43.75" font-family="Helvetica,sans-Serif" font-size="10.00">main</text>
</a>
</g>
</g>
<!-- Node7&#45;&gt;Node8 -->
<g id="edge8_Node000007_Node000008" class="edge">
<title>Node7&#45;&gt;Node8</title>
<g id="a_edge8_Node000007_Node000008"><a xlink:title=" ">
<path fill="none" stroke="#63b8ff" d="M88.84,-47.62C71.14,-47.62 51.16,-47.62 37.22,-47.62"/>
<polygon fill="#63b8ff" stroke="#63b8ff" points="88.82,-51.13 98.82,-47.63 88.82,-44.13 88.82,-51.13"/>
</a>
</g>
</g>
<!-- Node9&#45;&gt;Node4 -->
<g id="edge10_Node000009_Node000004" class="edge">
<title>Node9&#45;&gt;Node4</title>
<g id="a_edge10_Node000009_Node000004"><a xlink:title=" ">
<path fill="none" stroke="#63b8ff" d="M216.91,-98.81C199.96,-103.67 181.05,-109.09 165.24,-113.63"/>
<polygon fill="#63b8ff" stroke="#63b8ff" points="217.61,-102.25 226.26,-96.13 215.68,-95.52 217.61,-102.25"/>
</a>
</g>
</g>
<!-- Node9&#45;&gt;Node7 -->
<g id="edge11_Node000009_Node000007" class="edge">
<title>Node9&#45;&gt;Node7</title>
<g id="a_edge11_Node000009_Node000007"><a xlink:title=" ">
<path fill="none" stroke="#63b8ff" d="M216.86,-72.43C197.3,-66.82 175.13,-60.46 158.14,-55.59"/>
<polygon fill="#63b8ff" stroke="#63b8ff" points="215.68,-75.73 226.26,-75.12 217.61,-69 215.68,-75.73"/>
</a>
</g>
</g>
<!-- Node10&#45;&gt;Node4 -->
<g id="edge15_Node000010_Node000004" class="edge">
<title>Node10&#45;&gt;Node4</title>
<g id="a_edge15_Node000010_Node000004"><a xlink:title=" ">
<path fill="none" stroke="#63b8ff" d="M330.35,-47.88C297.02,-49.72 256.4,-54.64 221.75,-66.62 190.65,-77.38 159.12,-100.29 142.46,-113.56"/>
<polygon fill="#63b8ff" stroke="#63b8ff" points="330.48,-51.37 340.3,-47.42 330.15,-44.38 330.48,-51.37"/>
</a>
</g>
</g>
<!-- Node10&#45;&gt;Node6 -->
<g id="edge14_Node000010_Node000006" class="edge">
<title>Node10&#45;&gt;Node6</title>
<g id="a_edge14_Node000010_Node000006"><a xlink:title=" ">
<path fill="none" stroke="#63b8ff" d="M350.68,-34.44C333.87,-29.58 315.12,-24.16 299.44,-19.62"/>
<polygon fill="#63b8ff" stroke="#63b8ff" points="349.36,-37.7 359.93,-37.12 351.3,-30.98 349.36,-37.7"/>
</a>
</g>
</g>
<!-- Node10&#45;&gt;Node9 -->
<g id="edge16_Node000010_Node000009" class="edge">
<title>Node10&#45;&gt;Node9</title>
<g id="a_edge16_Node000010_Node000009"><a xlink:title=" ">
<path fill="none" stroke="#63b8ff" d="M350.68,-60.81C333.87,-65.67 315.12,-71.09 299.44,-75.63"/>
<polygon fill="#63b8ff" stroke="#63b8ff" points="351.3,-64.27 359.93,-58.13 349.36,-57.55 351.3,-64.27"/>
</a>
</g>
</g>
<!-- Node11&#45;&gt;Node3 -->
<g id="edge19_Node000011_Node000003" class="edge">
<title>Node11&#45;&gt;Node3</title>
<g id="a_edge19_Node000011_Node000003"><a xlink:title=" ">
<path fill="none" stroke="#63b8ff" d="M528.07,-108.58C515.41,-113.25 501.32,-118.55 488.5,-123.62 465.58,-132.69 439.67,-143.68 421.51,-151.5"/>
<polygon fill="#63b8ff" stroke="#63b8ff" points="529.15,-111.91 537.33,-105.19 526.74,-105.34 529.15,-111.91"/>
</a>
</g>
</g>
<!-- Node11&#45;&gt;Node4 -->
<g id="edge21_Node000011_Node000004" class="edge">
<title>Node11&#45;&gt;Node4</title>
<g id="a_edge21_Node000011_Node000004"><a xlink:title=" ">
<path fill="none" stroke="#63b8ff" d="M486.32,-101.13C474.97,-102 463.44,-102.85 452.5,-103.62 359.02,-110.21 250.19,-116.73 185.97,-120.45"/>
<polygon fill="#63b8ff" stroke="#63b8ff" points="486.38,-104.64 496.08,-100.38 485.84,-97.66 486.38,-104.64"/>
</a>
</g>
</g>
<!-- Node11&#45;&gt;Node5 -->
<g id="edge20_Node000011_Node000005" class="edge">
<title>Node11&#45;&gt;Node5</title>
<g id="a_edge20_Node000011_Node000005"><a xlink:title=" ">
<path fill="none" stroke="#63b8ff" d="M517.06,-80.82C507.19,-77 497.2,-72.3 488.5,-66.62 469.02,-53.91 472.13,-41.11 452.5,-28.62 447.64,-25.54 442.2,-22.92 436.69,-20.73"/>
<polygon fill="#63b8ff" stroke="#63b8ff" points="515.64,-84.02 526.23,-84.11 518,-77.44 515.64,-84.02"/>
</a>
</g>
</g>
<!-- Node11&#45;&gt;Node9 -->
<g id="edge23_Node000011_Node000009" class="edge">
<title>Node11&#45;&gt;Node9</title>
<g id="a_edge23_Node000011_Node000009"><a xlink:title=" ">
<path fill="none" stroke="#63b8ff" d="M486.16,-92.22C428.26,-90.5 352.56,-88.24 306.39,-86.86"/>
<polygon fill="#63b8ff" stroke="#63b8ff" points="485.88,-95.72 495.98,-92.52 486.09,-88.72 485.88,-95.72"/>
</a>
</g>
</g>
<!-- Node11&#45;&gt;Node10 -->
<g id="edge22_Node000011_Node000010" class="edge">
<title>Node11&#45;&gt;Node10</title>
<g id="a_edge22_Node000011_Node000010"><a xlink:title=" ">
<path fill="none" stroke="#63b8ff" d="M519.83,-81.54C492.79,-73.99 459.31,-64.66 434.34,-57.69"/>
<polygon fill="#63b8ff" stroke="#63b8ff" points="518.57,-84.82 529.14,-84.14 520.45,-78.08 518.57,-84.82"/>
</a>
</g>
</g>
<!-- Node12&#45;&gt;Node5 -->
<g id="edge25_Node000012_Node000005" class="edge">
<title>Node12&#45;&gt;Node5</title>
<g id="a_edge25_Node000012_Node000005"><a xlink:title=" ">
<path fill="none" stroke="#63b8ff" d="M509.53,-35.06C486.91,-30.09 461.38,-24.49 440.48,-19.9"/>
<polygon fill="#63b8ff" stroke="#63b8ff" points="508.71,-38.46 519.23,-37.19 510.21,-31.63 508.71,-38.46"/>
</a>
</g>
</g>
<!-- Node12&#45;&gt;Node10 -->
<g id="edge26_Node000012_Node000010" class="edge">
<title>Node12&#45;&gt;Node10</title>
<g id="a_edge26_Node000012_Node000010"><a xlink:title=" ">
<path fill="none" stroke="#63b8ff" d="M477.12,-47.62C468.85,-47.62 460.64,-47.62 452.83,-47.62"/>
<polygon fill="#63b8ff" stroke="#63b8ff" points="476.91,-51.13 486.91,-47.63 476.91,-44.13 476.91,-51.13"/>
</a>
</g>
</g>
</g>
</svg>
