<?xml version="1.0" encoding="UTF-8" standalone="no"?>
<!DOCTYPE svg PUBLIC "-//W3C//DTD SVG 1.1//EN"
 "http://www.w3.org/Graphics/SVG/1.1/DTD/svg11.dtd">
<!-- Generated by graphviz version 12.2.1 (20241206.2353)
 -->
<!-- Title: Minimum Pages: 1 -->
<svg width="842pt" height="230pt"
 viewBox="0.00 0.00 841.50 229.88" xmlns="http://www.w3.org/2000/svg" xmlns:xlink="http://www.w3.org/1999/xlink">
<g id="graph0" class="graph" transform="scale(1 1) rotate(0) translate(4 225.88)">
<title>Minimum</title>
<!-- Node1 -->
<g id="Node000001" class="node">
<title>Node1</title>
<g id="a_Node000001"><a xlink:title=" ">
<polygon fill="#999999" stroke="#666666" points="833.5,-146.3 777.75,-146.3 777.75,-127.05 833.5,-127.05 833.5,-146.3"/>
<text text-anchor="middle" x="805.62" y="-132.8" font-family="Helvetica,sans-Serif" font-size="10.00">Minimum</text>
</a>
</g>
</g>
<!-- Node2 -->
<g id="Node000002" class="node">
<title>Node2</title>
<g id="a_Node000002"><a xlink:href="../../d0/da3/_limiters_8cpp_a01ee9151d91c270729e4d9df0a89e287.html#a01ee9151d91c270729e4d9df0a89e287" target="_top" xlink:title="Computes the MinMod limiter for three input values and updates the result in the provided reference.">
<polygon fill="white" stroke="#666666" points="728.25,-183.3 677.75,-183.3 677.75,-164.05 728.25,-164.05 728.25,-183.3"/>
<text text-anchor="middle" x="703" y="-169.8" font-family="Helvetica,sans-Serif" font-size="10.00">MinMod</text>
</a>
</g>
</g>
<!-- Node1&#45;&gt;Node2 -->
<g id="edge1_Node000001_Node000002" class="edge">
<title>Node1&#45;&gt;Node2</title>
<g id="a_edge1_Node000001_Node000002"><a xlink:title=" ">
<path fill="none" stroke="#63b8ff" d="M766.95,-150.52C754.09,-155.25 740.05,-160.42 728.5,-164.66"/>
<polygon fill="#63b8ff" stroke="#63b8ff" points="767.8,-153.94 775.97,-147.21 765.38,-147.37 767.8,-153.94"/>
</a>
</g>
</g>
<!-- Node4 -->
<g id="Node000004" class="node">
<title>Node4</title>
<g id="a_Node000004"><a xlink:href="../../dd/d30/_m_o_v_e_r_s_8cpp_ad9d16fef8d34a1b19bfdbf938bf033be.html#ad9d16fef8d34a1b19bfdbf938bf033be" target="_top" xlink:title=" ">
<polygon fill="white" stroke="#666666" points="732.75,-90.3 673.25,-90.3 673.25,-71.05 732.75,-71.05 732.75,-90.3"/>
<text text-anchor="middle" x="703" y="-76.8" font-family="Helvetica,sans-Serif" font-size="10.00">MOVERS</text>
</a>
</g>
</g>
<!-- Node1&#45;&gt;Node4 -->
<g id="edge3_Node000001_Node000004" class="edge">
<title>Node1&#45;&gt;Node4</title>
<g id="a_edge3_Node000001_Node000004"><a xlink:title=" ">
<path fill="none" stroke="#63b8ff" d="M776.97,-121.28C759.51,-111.56 737.44,-99.28 722.17,-90.79"/>
<polygon fill="#63b8ff" stroke="#63b8ff" points="774.87,-124.12 785.31,-125.92 778.28,-118 774.87,-124.12"/>
</a>
</g>
</g>
<!-- Node14 -->
<g id="Node000014" class="node">
<title>Node14</title>
<g id="a_Node000014"><a xlink:href="../../dd/d30/_m_o_v_e_r_s_8cpp_a895c6dcdac689f71d89e341046362be9.html#a895c6dcdac689f71d89e341046362be9" target="_top" xlink:title=" ">
<polygon fill="white" stroke="#666666" points="741.75,-146.3 664.25,-146.3 664.25,-127.05 741.75,-127.05 741.75,-146.3"/>
<text text-anchor="middle" x="703" y="-132.8" font-family="Helvetica,sans-Serif" font-size="10.00">MOVERS_2O</text>
</a>
</g>
</g>
<!-- Node1&#45;&gt;Node14 -->
<g id="edge22_Node000001_Node000014" class="edge">
<title>Node1&#45;&gt;Node14</title>
<g id="a_edge22_Node000001_Node000014"><a xlink:title=" ">
<path fill="none" stroke="#63b8ff" d="M765.97,-136.67C758.18,-136.67 749.99,-136.67 742.21,-136.67"/>
<polygon fill="#63b8ff" stroke="#63b8ff" points="765.88,-140.17 775.88,-136.67 765.88,-133.17 765.88,-140.17"/>
</a>
</g>
</g>
<!-- Node3 -->
<g id="Node000003" class="node">
<title>Node3</title>
<g id="a_Node000003"><a xlink:href="../../d0/da3/_limiters_8cpp_a6bdb2d5e0ff963b9b5b395dc79a19acd.html#a6bdb2d5e0ff963b9b5b395dc79a19acd" target="_top" xlink:title="Computes the second&#45;order limited slopes and reconstructs variables for a given cell and face.">
<polygon fill="white" stroke="#666666" points="614.75,-183.3 502,-183.3 502,-164.05 614.75,-164.05 614.75,-183.3"/>
<text text-anchor="middle" x="558.38" y="-169.8" font-family="Helvetica,sans-Serif" font-size="10.00">Second_Order_Limiter</text>
</a>
</g>
</g>
<!-- Node2&#45;&gt;Node3 -->
<g id="edge2_Node000002_Node000003" class="edge">
<title>Node2&#45;&gt;Node3</title>
<g id="a_edge2_Node000002_Node000003"><a xlink:title=" ">
<path fill="none" stroke="#63b8ff" d="M666.32,-173.67C650.87,-173.67 632.41,-173.67 615.21,-173.67"/>
<polygon fill="#63b8ff" stroke="#63b8ff" points="665.97,-177.17 675.97,-173.67 665.97,-170.17 665.97,-177.17"/>
</a>
</g>
</g>
<!-- Node5 -->
<g id="Node000005" class="node">
<title>Node5</title>
<g id="a_Node000005"><a xlink:href="../../d7/db1/_net___flux_8cpp_ad25c9a53b380204dd243bc1351d6b098.html#ad25c9a53b380204dd243bc1351d6b098" target="_top" xlink:title="Evaluates the first&#45;order net flux for all cells in the computational domain.">
<polygon fill="white" stroke="#666666" points="628.25,-90.3 488.5,-90.3 488.5,-71.05 628.25,-71.05 628.25,-90.3"/>
<text text-anchor="middle" x="558.38" y="-76.8" font-family="Helvetica,sans-Serif" font-size="10.00">Evaluate_Cell_Net_Flux_1O</text>
</a>
</g>
</g>
<!-- Node4&#45;&gt;Node5 -->
<g id="edge4_Node000004_Node000005" class="edge">
<title>Node4&#45;&gt;Node5</title>
<g id="a_edge4_Node000004_Node000005"><a xlink:title=" ">
<path fill="none" stroke="#63b8ff" d="M661.32,-80.67C651.08,-80.67 639.8,-80.67 628.59,-80.67"/>
<polygon fill="#63b8ff" stroke="#63b8ff" points="661.28,-84.17 671.28,-80.67 661.28,-77.17 661.28,-84.17"/>
</a>
</g>
</g>
<!-- Node7 -->
<g id="Node000007" class="node">
<title>Node7</title>
<g id="a_Node000007"><a xlink:href="../../dd/dbf/_euler___python___wrapper_8cpp_ac5ccb50c3be270f798e054dd36987442.html#ac5ccb50c3be270f798e054dd36987442" target="_top" xlink:title=" ">
<polygon fill="white" stroke="#666666" points="185.75,-91.3 73,-91.3 73,-72.05 185.75,-72.05 185.75,-91.3"/>
<text text-anchor="middle" x="129.38" y="-77.8" font-family="Helvetica,sans-Serif" font-size="10.00">PYBIND11_MODULE</text>
</a>
</g>
</g>
<!-- Node4&#45;&gt;Node7 -->
<g id="edge21_Node000004_Node000007" class="edge">
<title>Node4&#45;&gt;Node7</title>
<g id="a_edge21_Node000004_Node000007"><a xlink:title=" ">
<path fill="none" stroke="#63b8ff" d="M668.08,-66.39C588.07,-34.83 382.27,33.87 221.75,-20.67 189.24,-31.72 157.27,-57.39 141.16,-71.66"/>
<polygon fill="#63b8ff" stroke="#63b8ff" points="666.52,-69.54 677.11,-70.01 669.13,-63.04 666.52,-69.54"/>
</a>
</g>
</g>
<!-- Node6 -->
<g id="Node000006" class="node">
<title>Node6</title>
<g id="a_Node000006"><a xlink:href="../../db/dbe/_assemble___matrix_8cpp_a19cccc9540fb68aa18547238ebc80951.html#a19cccc9540fb68aa18547238ebc80951" target="_top" xlink:title=" ">
<polygon fill="white" stroke="#666666" points="432.25,-53.3 362.25,-53.3 362.25,-34.05 432.25,-34.05 432.25,-53.3"/>
<text text-anchor="middle" x="397.25" y="-39.8" font-family="Helvetica,sans-Serif" font-size="10.00">Assemble_b</text>
</a>
</g>
</g>
<!-- Node5&#45;&gt;Node6 -->
<g id="edge5_Node000005_Node000006" class="edge">
<title>Node5&#45;&gt;Node6</title>
<g id="a_edge5_Node000005_Node000006"><a xlink:title=" ">
<path fill="none" stroke="#63b8ff" d="M502.77,-67.97C479.5,-62.56 453.07,-56.42 432.61,-51.66"/>
<polygon fill="#63b8ff" stroke="#63b8ff" points="501.89,-71.36 512.42,-70.22 503.47,-64.54 501.89,-71.36"/>
</a>
</g>
</g>
<!-- Node5&#45;&gt;Node7 -->
<g id="edge15_Node000005_Node000007" class="edge">
<title>Node5&#45;&gt;Node7</title>
<g id="a_edge15_Node000005_Node000007"><a xlink:title=" ">
<path fill="none" stroke="#63b8ff" d="M534.69,-64.3C514.31,-50.67 482.99,-32.3 452.5,-24.67 340.93,3.25 204.31,-48.67 152.08,-71.59"/>
<polygon fill="#63b8ff" stroke="#63b8ff" points="532.56,-67.08 542.78,-69.87 536.53,-61.31 532.56,-67.08"/>
</a>
</g>
</g>
<!-- Node8 -->
<g id="Node000008" class="node">
<title>Node8</title>
<g id="a_Node000008"><a xlink:href="../../db/d38/_parallel___numerical___method_8cpp_a8dda0c7e17babab9b6e49e8e199dc30e.html#a8dda0c7e17babab9b6e49e8e199dc30e" target="_top" xlink:title=" ">
<polygon fill="white" stroke="#666666" points="440.12,-166.3 354.38,-166.3 354.38,-147.05 440.12,-147.05 440.12,-166.3"/>
<text text-anchor="middle" x="397.25" y="-152.8" font-family="Helvetica,sans-Serif" font-size="10.00">Explicit_Method</text>
</a>
</g>
</g>
<!-- Node5&#45;&gt;Node8 -->
<g id="edge7_Node000005_Node000008" class="edge">
<title>Node5&#45;&gt;Node8</title>
<g id="a_edge7_Node000005_Node000008"><a xlink:title=" ">
<path fill="none" stroke="#63b8ff" d="M527.62,-95.86C506.72,-106.42 478.04,-120.7 452.5,-132.67 442.43,-137.39 431.2,-142.4 421.58,-146.62"/>
<polygon fill="#63b8ff" stroke="#63b8ff" points="529.1,-99.03 536.43,-91.39 525.93,-92.79 529.1,-99.03"/>
</a>
</g>
</g>
<!-- Node12 -->
<g id="Node000012" class="node">
<title>Node12</title>
<g id="a_Node000012"><a xlink:href="../../de/df0/_solver_8cpp_a2f37f06e8324a1ed6aa99efdbba81865.html#a2f37f06e8324a1ed6aa99efdbba81865" target="_top" xlink:title=" ">
<polygon fill="white" stroke="#666666" points="306,-166.3 221.75,-166.3 221.75,-147.05 306,-147.05 306,-166.3"/>
<text text-anchor="middle" x="263.88" y="-152.8" font-family="Helvetica,sans-Serif" font-size="10.00">Viscous_Solver</text>
</a>
</g>
</g>
<!-- Node5&#45;&gt;Node12 -->
<g id="edge20_Node000005_Node000012" class="edge">
<title>Node5&#45;&gt;Node12</title>
<g id="a_edge20_Node000005_Node000012"><a xlink:title=" ">
<path fill="none" stroke="#63b8ff" d="M507.49,-93.63C449.73,-108.64 355.84,-133.03 303.41,-146.66"/>
<polygon fill="#63b8ff" stroke="#63b8ff" points="508.27,-97.05 517.07,-91.14 506.51,-90.27 508.27,-97.05"/>
</a>
</g>
</g>
<!-- Node13 -->
<g id="Node000013" class="node">
<title>Node13</title>
<g id="a_Node000013"><a xlink:href="../../d0/d64/_numerical___method_8cpp_a794f030971fbb7c9dd4bc08df03f50f1.html#a794f030971fbb7c9dd4bc08df03f50f1" target="_top" xlink:title=" ">
<polygon fill="white" stroke="#666666" points="452.5,-90.3 342,-90.3 342,-71.05 452.5,-71.05 452.5,-90.3"/>
<text text-anchor="middle" x="397.25" y="-76.8" font-family="Helvetica,sans-Serif" font-size="10.00">Runge_Kutta_Method</text>
</a>
</g>
</g>
<!-- Node5&#45;&gt;Node13 -->
<g id="edge16_Node000005_Node000013" class="edge">
<title>Node5&#45;&gt;Node13</title>
<g id="a_edge16_Node000005_Node000013"><a xlink:title=" ">
<path fill="none" stroke="#63b8ff" d="M476.56,-80.67C468.41,-80.67 460.29,-80.67 452.52,-80.67"/>
<polygon fill="#63b8ff" stroke="#63b8ff" points="476.53,-84.17 486.53,-80.67 476.53,-77.17 476.53,-84.17"/>
</a>
</g>
</g>
<!-- Node6&#45;&gt;Node7 -->
<g id="edge6_Node000006_Node000007" class="edge">
<title>Node6&#45;&gt;Node7</title>
<g id="a_edge6_Node000006_Node000007"><a xlink:title=" ">
<path fill="none" stroke="#63b8ff" d="M350.45,-50.22C304.88,-56.73 234.89,-66.73 186.12,-73.7"/>
<polygon fill="#63b8ff" stroke="#63b8ff" points="350.86,-53.69 360.27,-48.81 349.87,-46.76 350.86,-53.69"/>
</a>
</g>
</g>
<!-- Node9 -->
<g id="Node000009" class="node">
<title>Node9</title>
<g id="a_Node000009"><a xlink:href="../../de/df0/_solver_8cpp_ad0f49408a26339b5f7043bf867c3fa8d.html#ad0f49408a26339b5f7043bf867c3fa8d" target="_top" xlink:title=" ">
<polygon fill="white" stroke="#666666" points="305.25,-129.3 222.5,-129.3 222.5,-110.05 305.25,-110.05 305.25,-129.3"/>
<text text-anchor="middle" x="263.88" y="-115.8" font-family="Helvetica,sans-Serif" font-size="10.00">Inviscid_Solver</text>
</a>
</g>
</g>
<!-- Node8&#45;&gt;Node9 -->
<g id="edge8_Node000008_Node000009" class="edge">
<title>Node8&#45;&gt;Node9</title>
<g id="a_edge8_Node000008_Node000009"><a xlink:title=" ">
<path fill="none" stroke="#63b8ff" d="M349.55,-143.52C333.5,-139 315.79,-134.01 300.73,-129.77"/>
<polygon fill="#63b8ff" stroke="#63b8ff" points="348.32,-146.81 358.89,-146.15 350.22,-140.07 348.32,-146.81"/>
</a>
</g>
</g>
<!-- Node8&#45;&gt;Node12 -->
<g id="edge12_Node000008_Node000012" class="edge">
<title>Node8&#45;&gt;Node12</title>
<g id="a_edge12_Node000008_Node000012"><a xlink:title=" ">
<path fill="none" stroke="#63b8ff" d="M342.55,-156.67C330.42,-156.67 317.72,-156.67 306.19,-156.67"/>
<polygon fill="#63b8ff" stroke="#63b8ff" points="342.45,-160.17 352.45,-156.67 342.45,-153.17 342.45,-160.17"/>
</a>
</g>
</g>
<!-- Node9&#45;&gt;Node7 -->
<g id="edge9_Node000009_Node000007" class="edge">
<title>Node9&#45;&gt;Node7</title>
<g id="a_edge9_Node000009_Node000007"><a xlink:title=" ">
<path fill="none" stroke="#63b8ff" d="M216.91,-106.49C199.96,-101.63 181.05,-96.2 165.24,-91.67"/>
<polygon fill="#63b8ff" stroke="#63b8ff" points="215.68,-109.78 226.26,-109.17 217.61,-103.05 215.68,-109.78"/>
</a>
</g>
</g>
<!-- Node10 -->
<g id="Node000010" class="node">
<title>Node10</title>
<g id="a_Node000010"><a xlink:href="../../d5/d12/_main_8cpp_a35d775933750ace299102f06a1712663.html#a35d775933750ace299102f06a1712663" target="_top" xlink:title=" ">
<polygon fill="white" stroke="#666666" points="158,-147.3 100.75,-147.3 100.75,-128.05 158,-128.05 158,-147.3"/>
<text text-anchor="middle" x="129.38" y="-133.8" font-family="Helvetica,sans-Serif" font-size="10.00">runSolver</text>
</a>
</g>
</g>
<!-- Node9&#45;&gt;Node10 -->
<g id="edge10_Node000009_Node000010" class="edge">
<title>Node9&#45;&gt;Node10</title>
<g id="a_edge10_Node000009_Node000010"><a xlink:title=" ">
<path fill="none" stroke="#63b8ff" d="M210.83,-126.74C192.9,-129.18 173.53,-131.81 158.28,-133.88"/>
<polygon fill="#63b8ff" stroke="#63b8ff" points="211.1,-130.24 220.54,-125.42 210.16,-123.3 211.1,-130.24"/>
</a>
</g>
</g>
<!-- Node11 -->
<g id="Node000011" class="node">
<title>Node11</title>
<g id="a_Node000011"><a xlink:href="../../d5/d12/_main_8cpp_a0ddf1224851353fc92bfbff6f499fa97.html#a0ddf1224851353fc92bfbff6f499fa97" target="_top" xlink:title=" ">
<polygon fill="white" stroke="#666666" points="37,-147.3 0,-147.3 0,-128.05 37,-128.05 37,-147.3"/>
<text text-anchor="middle" x="18.5" y="-133.8" font-family="Helvetica,sans-Serif" font-size="10.00">main</text>
</a>
</g>
</g>
<!-- Node10&#45;&gt;Node11 -->
<g id="edge11_Node000010_Node000011" class="edge">
<title>Node10&#45;&gt;Node11</title>
<g id="a_edge11_Node000010_Node000011"><a xlink:title=" ">
<path fill="none" stroke="#63b8ff" d="M88.84,-137.67C71.14,-137.67 51.16,-137.67 37.22,-137.67"/>
<polygon fill="#63b8ff" stroke="#63b8ff" points="88.82,-141.17 98.82,-137.67 88.82,-134.17 88.82,-141.17"/>
</a>
</g>
</g>
<!-- Node12&#45;&gt;Node7 -->
<g id="edge13_Node000012_Node000007" class="edge">
<title>Node12&#45;&gt;Node7</title>
<g id="a_edge13_Node000012_Node000007"><a xlink:title=" ">
<path fill="none" stroke="#63b8ff" d="M227.82,-141.75C225.75,-140.74 223.71,-139.71 221.75,-138.67 193.63,-123.85 162.56,-103.58 144.86,-91.63"/>
<polygon fill="#63b8ff" stroke="#63b8ff" points="226.33,-144.91 236.87,-145.95 229.27,-138.56 226.33,-144.91"/>
</a>
</g>
</g>
<!-- Node12&#45;&gt;Node10 -->
<g id="edge14_Node000012_Node000010" class="edge">
<title>Node12&#45;&gt;Node10</title>
<g id="a_edge14_Node000012_Node000010"><a xlink:title=" ">
<path fill="none" stroke="#63b8ff" d="M209.97,-149.08C192.33,-146.56 173.37,-143.84 158.38,-141.69"/>
<polygon fill="#63b8ff" stroke="#63b8ff" points="209.42,-152.54 219.82,-150.5 210.41,-145.61 209.42,-152.54"/>
</a>
</g>
</g>
<!-- Node13&#45;&gt;Node7 -->
<g id="edge18_Node000013_Node000007" class="edge">
<title>Node13&#45;&gt;Node7</title>
<g id="a_edge18_Node000013_Node000007"><a xlink:title=" ">
<path fill="none" stroke="#63b8ff" d="M330.54,-80.92C286.17,-81.09 228.24,-81.3 186.12,-81.46"/>
<polygon fill="#63b8ff" stroke="#63b8ff" points="330.3,-84.42 340.29,-80.88 330.28,-77.42 330.3,-84.42"/>
</a>
</g>
</g>
<!-- Node13&#45;&gt;Node9 -->
<g id="edge17_Node000013_Node000009" class="edge">
<title>Node13&#45;&gt;Node9</title>
<g id="a_edge17_Node000013_Node000009"><a xlink:title=" ">
<path fill="none" stroke="#63b8ff" d="M351.42,-93.98C334.12,-99.12 314.67,-104.89 298.59,-109.66"/>
<polygon fill="#63b8ff" stroke="#63b8ff" points="352.38,-97.35 360.97,-91.15 350.38,-90.64 352.38,-97.35"/>
</a>
</g>
</g>
<!-- Node13&#45;&gt;Node12 -->
<g id="edge19_Node000013_Node000012" class="edge">
<title>Node13&#45;&gt;Node12</title>
<g id="a_edge19_Node000013_Node000012"><a xlink:title=" ">
<path fill="none" stroke="#63b8ff" d="M358.41,-95.41C352.74,-98.18 347.09,-101.29 342,-104.67 323.67,-116.85 324.35,-126.52 306,-138.67 301.45,-141.68 296.31,-144.39 291.25,-146.74"/>
<polygon fill="#63b8ff" stroke="#63b8ff" points="359.52,-98.75 367.16,-91.41 356.61,-92.38 359.52,-98.75"/>
</a>
</g>
</g>
<!-- Node15 -->
<g id="Node000015" class="node">
<title>Node15</title>
<g id="a_Node000015"><a xlink:href="../../d7/db1/_net___flux_8cpp_a4db2fe24c2a78f98ac91e9d7d271430f.html#a4db2fe24c2a78f98ac91e9d7d271430f" target="_top" xlink:title="Evaluates the net flux for each cell using a second&#45;order flux calculation method.">
<polygon fill="white" stroke="#666666" points="628.25,-146.3 488.5,-146.3 488.5,-127.05 628.25,-127.05 628.25,-146.3"/>
<text text-anchor="middle" x="558.38" y="-132.8" font-family="Helvetica,sans-Serif" font-size="10.00">Evaluate_Cell_Net_Flux_2O</text>
</a>
</g>
</g>
<!-- Node14&#45;&gt;Node15 -->
<g id="edge23_Node000014_Node000015" class="edge">
<title>Node14&#45;&gt;Node15</title>
<g id="a_edge23_Node000014_Node000015"><a xlink:title=" ">
<path fill="none" stroke="#63b8ff" d="M652.41,-136.67C644.69,-136.67 636.6,-136.67 628.54,-136.67"/>
<polygon fill="#63b8ff" stroke="#63b8ff" points="652.27,-140.17 662.27,-136.67 652.27,-133.17 652.27,-140.17"/>
</a>
</g>
</g>
<!-- Node15&#45;&gt;Node6 -->
<g id="edge24_Node000015_Node000006" class="edge">
<title>Node15&#45;&gt;Node6</title>
<g id="a_edge24_Node000015_Node000006"><a xlink:title=" ">
<path fill="none" stroke="#63b8ff" d="M524.56,-121.76C512.69,-115.68 499.51,-108.09 488.5,-99.67 470.02,-85.54 472.13,-74.15 452.5,-61.67 446.47,-57.84 439.54,-54.74 432.7,-52.26"/>
<polygon fill="#63b8ff" stroke="#63b8ff" points="522.7,-124.74 533.21,-126.03 525.8,-118.46 522.7,-124.74"/>
</a>
</g>
</g>
<!-- Node15&#45;&gt;Node7 -->
<g id="edge26_Node000015_Node000007" class="edge">
<title>Node15&#45;&gt;Node7</title>
<g id="a_edge26_Node000015_Node000007"><a xlink:title=" ">
<path fill="none" stroke="#63b8ff" d="M495.21,-151.06C492.9,-152.18 490.65,-153.38 488.5,-154.67 468.27,-166.81 474.11,-184.21 452.5,-193.67 358.27,-234.93 307.91,-231.88 221.75,-175.67 196.65,-159.3 206.66,-140.13 185.75,-118.67 175.18,-107.82 160.93,-98.39 149.53,-91.76"/>
<polygon fill="#63b8ff" stroke="#63b8ff" points="496.37,-154.37 504.25,-147.29 493.68,-147.91 496.37,-154.37"/>
</a>
</g>
</g>
<!-- Node15&#45;&gt;Node8 -->
<g id="edge25_Node000015_Node000008" class="edge">
<title>Node15&#45;&gt;Node8</title>
<g id="a_edge25_Node000015_Node000008"><a xlink:title=" ">
<path fill="none" stroke="#63b8ff" d="M476.94,-146.78C464.28,-148.37 451.65,-149.96 440.33,-151.38"/>
<polygon fill="#63b8ff" stroke="#63b8ff" points="477.06,-150.29 486.54,-145.57 476.18,-143.35 477.06,-150.29"/>
</a>
</g>
</g>
<!-- Node15&#45;&gt;Node12 -->
<g id="edge28_Node000015_Node000012" class="edge">
<title>Node15&#45;&gt;Node12</title>
<g id="a_edge28_Node000015_Node000012"><a xlink:title=" ">
<path fill="none" stroke="#63b8ff" d="M500.95,-150.06C496.69,-151.48 492.5,-153.02 488.5,-154.67 471.38,-161.75 470.38,-170.84 452.5,-175.67 405.09,-188.49 390.75,-181.59 342,-175.67 327.49,-173.91 311.77,-170.35 298.34,-166.78"/>
<polygon fill="#63b8ff" stroke="#63b8ff" points="501.64,-153.51 510.15,-147.21 499.56,-146.83 501.64,-153.51"/>
</a>
</g>
</g>
<!-- Node15&#45;&gt;Node13 -->
<g id="edge27_Node000015_Node000013" class="edge">
<title>Node15&#45;&gt;Node13</title>
<g id="a_edge27_Node000015_Node000013"><a xlink:title=" ">
<path fill="none" stroke="#63b8ff" d="M518.22,-122.89C489.98,-112.95 452.49,-99.76 426.99,-90.79"/>
<polygon fill="#63b8ff" stroke="#63b8ff" points="516.9,-126.14 527.5,-126.16 519.23,-119.54 516.9,-126.14"/>
</a>
</g>
</g>
</g>
</svg>
