<?xml version="1.0" encoding="UTF-8" standalone="no"?>
<!DOCTYPE svg PUBLIC "-//W3C//DTD SVG 1.1//EN"
 "http://www.w3.org/Graphics/SVG/1.1/DTD/svg11.dtd">
<!-- Generated by graphviz version 12.2.1 (20241206.2353)
 -->
<!-- Title: OED Pages: 1 -->
<svg width="607pt" height="423pt"
 viewBox="0.00 0.00 607.45 423.25" xmlns="http://www.w3.org/2000/svg" xmlns:xlink="http://www.w3.org/1999/xlink">
<g id="graph0" class="graph" transform="scale(1 1) rotate(0) translate(4 419.25)">
<title>OED</title>
<!-- Node1 -->
<g id="Node000001" class="node">
<title>Node1</title>
<g id="a_Node000001"><a xlink:title=" ">
<polygon fill="#999999" stroke="#666666" points="37.75,-206.25 0,-206.25 0,-187 37.75,-187 37.75,-206.25"/>
<text text-anchor="middle" x="18.88" y="-192.75" font-family="Helvetica,sans-Serif" font-size="10.00">OED</text>
</a>
</g>
</g>
<!-- Node2 -->
<g id="Node000002" class="node">
<title>Node2</title>
<g id="a_Node000002"><a xlink:href="../../dd/d2a/_create___vtk___file_8cpp_a5f72d40235b74b1915174a52190c33c1.html#a5f72d40235b74b1915174a52190c33c1" target="_top" xlink:title=" ">
<polygon fill="white" stroke="#666666" points="181.25,-415.25 91.75,-415.25 91.75,-396 181.25,-396 181.25,-415.25"/>
<text text-anchor="middle" x="136.5" y="-401.75" font-family="Helvetica,sans-Serif" font-size="10.00">Append_Solution</text>
</a>
</g>
</g>
<!-- Node1&#45;&gt;Node2 -->
<g id="edge1_Node000001_Node000002" class="edge">
<title>Node1&#45;&gt;Node2</title>
<g id="a_edge1_Node000001_Node000002"><a xlink:title=" ">
<path fill="none" stroke="#63b8ff" d="M19.6,-206.49C19.3,-237.55 22.69,-334.41 73.75,-386.62 76.07,-388.99 78.67,-391.07 81.46,-392.88"/>
<polygon fill="#63b8ff" stroke="#63b8ff" points="79.72,-395.92 90.21,-397.43 82.95,-389.71 79.72,-395.92"/>
</a>
</g>
</g>
<!-- Node3 -->
<g id="Node000003" class="node">
<title>Node3</title>
<g id="a_Node000003"><a xlink:href="../../df/d43/_basic___functions_8cpp_a9ca12fb8f920cab38313323cf0c4bf53.html#a9ca12fb8f920cab38313323cf0c4bf53" target="_top" xlink:title=" ">
<polygon fill="white" stroke="#666666" points="199.25,-377.88 73.75,-377.88 73.75,-347.38 199.25,-347.38 199.25,-377.88"/>
<text text-anchor="start" x="81.75" y="-364.38" font-family="Helvetica,sans-Serif" font-size="10.00">Calculate_Computational</text>
<text text-anchor="middle" x="136.5" y="-353.12" font-family="Helvetica,sans-Serif" font-size="10.00">_Variables</text>
</a>
</g>
</g>
<!-- Node1&#45;&gt;Node3 -->
<g id="edge2_Node000001_Node000003" class="edge">
<title>Node1&#45;&gt;Node3</title>
<g id="a_edge2_Node000001_Node000003"><a xlink:title=" ">
<path fill="none" stroke="#63b8ff" d="M20.96,-206.62C24.22,-231.93 36.14,-299.27 73.75,-337.62 74.62,-338.51 75.53,-339.37 76.46,-340.2"/>
<polygon fill="#63b8ff" stroke="#63b8ff" points="74.26,-342.92 84.4,-345.99 78.38,-337.27 74.26,-342.92"/>
</a>
</g>
</g>
<!-- Node4 -->
<g id="Node000004" class="node">
<title>Node4</title>
<g id="a_Node000004"><a xlink:href="../../df/d43/_basic___functions_8cpp_a1c199e756f8458978961b4d9ab4cbe63.html#a1c199e756f8458978961b4d9ab4cbe63" target="_top" xlink:title=" ">
<polygon fill="white" stroke="#666666" points="186.88,-328.88 86.12,-328.88 86.12,-298.38 186.88,-298.38 186.88,-328.88"/>
<text text-anchor="start" x="94.12" y="-315.38" font-family="Helvetica,sans-Serif" font-size="10.00">Calculate_Primitive</text>
<text text-anchor="middle" x="136.5" y="-304.12" font-family="Helvetica,sans-Serif" font-size="10.00">_Variables</text>
</a>
</g>
</g>
<!-- Node1&#45;&gt;Node4 -->
<g id="edge3_Node000001_Node000004" class="edge">
<title>Node1&#45;&gt;Node4</title>
<g id="a_edge3_Node000001_Node000004"><a xlink:title=" ">
<path fill="none" stroke="#63b8ff" d="M23.09,-206.49C29.67,-225.24 46.4,-266.2 73.75,-289.62 74.67,-290.41 75.61,-291.17 76.58,-291.91"/>
<polygon fill="#63b8ff" stroke="#63b8ff" points="74.32,-294.61 84.61,-297.12 78.13,-288.74 74.32,-294.61"/>
</a>
</g>
</g>
<!-- Node6 -->
<g id="Node000006" class="node">
<title>Node6</title>
<g id="a_Node000006"><a xlink:href="../../da/d3e/output__files_8cpp_ac7e61b153a6d26ffbefde7b5b86d55a7.html#ac7e61b153a6d26ffbefde7b5b86d55a7" target="_top" xlink:title=" ">
<polygon fill="white" stroke="#666666" points="180.12,-280.25 92.88,-280.25 92.88,-261 180.12,-261 180.12,-280.25"/>
<text text-anchor="middle" x="136.5" y="-266.75" font-family="Helvetica,sans-Serif" font-size="10.00">Directory_Name</text>
</a>
</g>
</g>
<!-- Node1&#45;&gt;Node6 -->
<g id="edge5_Node000001_Node000006" class="edge">
<title>Node1&#45;&gt;Node6</title>
<g id="a_edge5_Node000001_Node000006"><a xlink:title=" ">
<path fill="none" stroke="#63b8ff" d="M26.73,-206.44C36,-218.97 53.67,-240.47 73.75,-252.62 76.35,-254.2 79.09,-255.64 81.92,-256.96"/>
<polygon fill="#63b8ff" stroke="#63b8ff" points="80.43,-260.13 91.01,-260.66 83.07,-253.65 80.43,-260.13"/>
</a>
</g>
</g>
<!-- Node7 -->
<g id="Node000007" class="node">
<title>Node7</title>
<g id="a_Node000007"><a xlink:href="../../da/d3e/output__files_8cpp_a2a6bf38afe949ce5a6cd1b3641c49c25.html#a2a6bf38afe949ce5a6cd1b3641c49c25" target="_top" xlink:title=" ">
<polygon fill="white" stroke="#666666" points="168.12,-243.25 104.88,-243.25 104.88,-224 168.12,-224 168.12,-243.25"/>
<text text-anchor="middle" x="136.5" y="-229.75" font-family="Helvetica,sans-Serif" font-size="10.00">File_Name</text>
</a>
</g>
</g>
<!-- Node1&#45;&gt;Node7 -->
<g id="edge6_Node000001_Node000007" class="edge">
<title>Node1&#45;&gt;Node7</title>
<g id="a_edge6_Node000001_Node000007"><a xlink:title=" ">
<path fill="none" stroke="#63b8ff" d="M38.24,-203.39C48.62,-207.13 61.85,-211.8 73.75,-215.62 80.15,-217.68 86.96,-219.77 93.62,-221.76"/>
<polygon fill="#63b8ff" stroke="#63b8ff" points="92.58,-225.1 103.16,-224.56 94.56,-218.38 92.58,-225.1"/>
</a>
</g>
</g>
<!-- Node8 -->
<g id="Node000008" class="node">
<title>Node8</title>
<g id="a_Node000008"><a xlink:href="../../d8/d40/_grid___computations_8cpp_a831dcf7cbf36ddf425ce0753495ba3c6.html#a831dcf7cbf36ddf425ce0753495ba3c6" target="_top" xlink:title=" ">
<polygon fill="white" stroke="#666666" points="169.62,-206.25 103.38,-206.25 103.38,-187 169.62,-187 169.62,-206.25"/>
<text text-anchor="middle" x="136.5" y="-192.75" font-family="Helvetica,sans-Serif" font-size="10.00">Form_Cells</text>
</a>
</g>
</g>
<!-- Node1&#45;&gt;Node8 -->
<g id="edge7_Node000001_Node000008" class="edge">
<title>Node1&#45;&gt;Node8</title>
<g id="a_edge7_Node000001_Node000008"><a xlink:title=" ">
<path fill="none" stroke="#63b8ff" d="M38.2,-196.62C52.65,-196.62 73.4,-196.62 92.03,-196.62"/>
<polygon fill="#63b8ff" stroke="#63b8ff" points="91.77,-200.13 101.77,-196.63 91.77,-193.13 91.77,-200.13"/>
</a>
</g>
</g>
<!-- Node20 -->
<g id="Node000020" class="node">
<title>Node20</title>
<g id="a_Node000020"><a xlink:href="../../d7/d6d/_initialize_8cpp_ad59ff1b23c73f6427e8179ce53ee1f59.html#ad59ff1b23c73f6427e8179ce53ee1f59" target="_top" xlink:title=" ">
<polygon fill="white" stroke="#666666" points="355.12,-119.88 236.38,-119.88 236.38,-89.38 355.12,-89.38 355.12,-119.88"/>
<text text-anchor="start" x="244.38" y="-106.38" font-family="Helvetica,sans-Serif" font-size="10.00">Identify_Wall_Boundary</text>
<text text-anchor="middle" x="295.75" y="-95.12" font-family="Helvetica,sans-Serif" font-size="10.00">_Faces</text>
</a>
</g>
</g>
<!-- Node1&#45;&gt;Node20 -->
<g id="edge22_Node000001_Node000020" class="edge">
<title>Node1&#45;&gt;Node20</title>
<g id="a_edge22_Node000001_Node000020"><a xlink:title=" ">
<path fill="none" stroke="#63b8ff" d="M37.76,-190.09C48.22,-186.33 61.69,-181.58 73.75,-177.62 129.13,-159.48 143.98,-158.1 199.25,-139.62 213.53,-134.85 228.89,-129.37 243.03,-124.19"/>
<polygon fill="#63b8ff" stroke="#63b8ff" points="243.98,-127.57 252.15,-120.83 241.55,-121.01 243.98,-127.57"/>
</a>
</g>
</g>
<!-- Node21 -->
<g id="Node000021" class="node">
<title>Node21</title>
<g id="a_Node000021"><a xlink:href="../../d7/d6d/_initialize_8cpp_acc3c3292e370176c51c654a01e651e24.html#acc3c3292e370176c51c654a01e651e24" target="_top" xlink:title=" ">
<polygon fill="white" stroke="#666666" points="162.5,-130.25 110.5,-130.25 110.5,-111 162.5,-111 162.5,-130.25"/>
<text text-anchor="middle" x="136.5" y="-116.75" font-family="Helvetica,sans-Serif" font-size="10.00">Initialize</text>
</a>
</g>
</g>
<!-- Node1&#45;&gt;Node21 -->
<g id="edge23_Node000001_Node000021" class="edge">
<title>Node1&#45;&gt;Node21</title>
<g id="a_edge23_Node000001_Node000021"><a xlink:title=" ">
<path fill="none" stroke="#63b8ff" d="M28.08,-186.59C37.9,-175.11 55.35,-156.4 73.75,-144.62 81.58,-139.61 90.63,-135.37 99.34,-131.92"/>
<polygon fill="#63b8ff" stroke="#63b8ff" points="100.48,-135.22 108.66,-128.48 98.06,-128.66 100.48,-135.22"/>
</a>
</g>
</g>
<!-- Node24 -->
<g id="Node000024" class="node">
<title>Node24</title>
<g id="a_Node000024"><a xlink:href="../../dd/d2a/_create___vtk___file_8cpp_a776e082e134ae9fedfaa1bf47149bdc5.html#a776e082e134ae9fedfaa1bf47149bdc5" target="_top" xlink:title="void Write_Solution(const string &amp;);">
<polygon fill="white" stroke="#666666" points="181.62,-93.25 91.38,-93.25 91.38,-74 181.62,-74 181.62,-93.25"/>
<text text-anchor="middle" x="136.5" y="-79.75" font-family="Helvetica,sans-Serif" font-size="10.00">Read_Write_Grid</text>
</a>
</g>
</g>
<!-- Node1&#45;&gt;Node24 -->
<g id="edge27_Node000001_Node000024" class="edge">
<title>Node1&#45;&gt;Node24</title>
<g id="a_edge27_Node000001_Node000024"><a xlink:title=" ">
<path fill="none" stroke="#63b8ff" d="M22.75,-186.62C28.84,-167.24 44.9,-124.45 73.75,-101.62 75.89,-99.93 78.19,-98.39 80.59,-97"/>
<polygon fill="#63b8ff" stroke="#63b8ff" points="82.06,-100.18 89.57,-92.71 79.04,-93.87 82.06,-100.18"/>
</a>
</g>
</g>
<!-- Node25 -->
<g id="Node000025" class="node">
<title>Node25</title>
<g id="a_Node000025"><a xlink:href="../../df/d43/_basic___functions_8cpp_ace6d77409787d1bc742eacb24948dfd1.html#ace6d77409787d1bc742eacb24948dfd1" target="_top" xlink:title=" ">
<polygon fill="white" stroke="#666666" points="184.25,-56.25 88.75,-56.25 88.75,-37 184.25,-37 184.25,-56.25"/>
<text text-anchor="middle" x="136.5" y="-42.75" font-family="Helvetica,sans-Serif" font-size="10.00">Reference_Values</text>
</a>
</g>
</g>
<!-- Node1&#45;&gt;Node25 -->
<g id="edge28_Node000001_Node000025" class="edge">
<title>Node1&#45;&gt;Node25</title>
<g id="a_edge28_Node000001_Node000025"><a xlink:title=" ">
<path fill="none" stroke="#63b8ff" d="M21,-186.68C24.3,-162.18 36.24,-98.43 73.75,-64.62 75.2,-63.31 76.75,-62.1 78.36,-60.97"/>
<polygon fill="#63b8ff" stroke="#63b8ff" points="79.93,-64.11 86.94,-56.17 76.51,-58 79.93,-64.11"/>
</a>
</g>
</g>
<!-- Node26 -->
<g id="Node000026" class="node">
<title>Node26</title>
<g id="a_Node000026"><a xlink:href="../../da/d3e/output__files_8cpp_ac49d22b87cab7fa46da37546b7af78b0.html#ac49d22b87cab7fa46da37546b7af78b0" target="_top" xlink:title=" ">
<polygon fill="white" stroke="#666666" points="176,-19.25 97,-19.25 97,0 176,0 176,-19.25"/>
<text text-anchor="middle" x="136.5" y="-5.75" font-family="Helvetica,sans-Serif" font-size="10.00">Write_Solution</text>
</a>
</g>
</g>
<!-- Node1&#45;&gt;Node26 -->
<g id="edge29_Node000001_Node000026" class="edge">
<title>Node1&#45;&gt;Node26</title>
<g id="a_edge29_Node000001_Node000026"><a xlink:title=" ">
<path fill="none" stroke="#63b8ff" d="M19.98,-186.59C20.86,-157.57 27.45,-72.78 73.75,-27.62 77.4,-24.06 81.71,-21.2 86.34,-18.9"/>
<polygon fill="#63b8ff" stroke="#63b8ff" points="87.43,-22.23 95.41,-15.27 84.83,-15.73 87.43,-22.23"/>
</a>
</g>
</g>
<!-- Node5 -->
<g id="Node000005" class="node">
<title>Node5</title>
<g id="a_Node000005"><a xlink:href="../../df/d43/_basic___functions_8cpp_ae9dc3225863fb110155bb3e9dea4e4d3.html#ae9dc3225863fb110155bb3e9dea4e4d3" target="_top" xlink:title=" ">
<polygon fill="white" stroke="#666666" points="324,-355.25 267.5,-355.25 267.5,-336 324,-336 324,-355.25"/>
<text text-anchor="middle" x="295.75" y="-341.75" font-family="Helvetica,sans-Serif" font-size="10.00">Viscosity</text>
</a>
</g>
</g>
<!-- Node4&#45;&gt;Node5 -->
<g id="edge4_Node000004_Node000005" class="edge">
<title>Node4&#45;&gt;Node5</title>
<g id="a_edge4_Node000004_Node000005"><a xlink:title=" ">
<path fill="none" stroke="#63b8ff" d="M187.25,-323.75C209.47,-328.27 235.26,-333.52 256.01,-337.74"/>
<polygon fill="#63b8ff" stroke="#63b8ff" points="255.29,-341.17 265.79,-339.73 256.68,-334.31 255.29,-341.17"/>
</a>
</g>
</g>
<!-- Node9 -->
<g id="Node000009" class="node">
<title>Node9</title>
<g id="a_Node000009"><a xlink:href="../../d8/d40/_grid___computations_8cpp_a7e6f11445e90cefdcb91f369846ec691.html#a7e6f11445e90cefdcb91f369846ec691" target="_top" xlink:title=" ">
<polygon fill="white" stroke="#666666" points="352.88,-168.88 238.62,-168.88 238.62,-138.38 352.88,-138.38 352.88,-168.88"/>
<text text-anchor="start" x="246.62" y="-155.38" font-family="Helvetica,sans-Serif" font-size="10.00">Calculate_Cell_Center</text>
<text text-anchor="middle" x="295.75" y="-144.12" font-family="Helvetica,sans-Serif" font-size="10.00">_Distances</text>
</a>
</g>
</g>
<!-- Node8&#45;&gt;Node9 -->
<g id="edge8_Node000008_Node000009" class="edge">
<title>Node8&#45;&gt;Node9</title>
<g id="a_edge8_Node000008_Node000009"><a xlink:title=" ">
<path fill="none" stroke="#63b8ff" d="M170.08,-187.72C186.71,-183.17 207.57,-177.47 227.44,-172.03"/>
<polygon fill="#63b8ff" stroke="#63b8ff" points="228.17,-175.46 236.89,-169.45 226.32,-168.71 228.17,-175.46"/>
</a>
</g>
</g>
<!-- Node12 -->
<g id="Node000012" class="node">
<title>Node12</title>
<g id="a_Node000012"><a xlink:href="../../d8/d40/_grid___computations_8cpp_a209db16fba143a9833c8d4021624afb0.html#a209db16fba143a9833c8d4021624afb0" target="_top" xlink:title=" ">
<polygon fill="white" stroke="#666666" points="494.12,-206.25 421.88,-206.25 421.88,-187 494.12,-187 494.12,-206.25"/>
<text text-anchor="middle" x="458" y="-192.75" font-family="Helvetica,sans-Serif" font-size="10.00">Check_Cells</text>
</a>
</g>
</g>
<!-- Node8&#45;&gt;Node12 -->
<g id="edge12_Node000008_Node000012" class="edge">
<title>Node8&#45;&gt;Node12</title>
<g id="a_edge12_Node000008_Node000012"><a xlink:title=" ">
<path fill="none" stroke="#63b8ff" d="M169.89,-196.62C226.76,-196.62 344.74,-196.62 410.38,-196.62"/>
<polygon fill="#63b8ff" stroke="#63b8ff" points="410.1,-200.13 420.1,-196.63 410.1,-193.13 410.1,-200.13"/>
</a>
</g>
</g>
<!-- Node13 -->
<g id="Node000013" class="node">
<title>Node13</title>
<g id="a_Node000013"><a xlink:href="../../df/daf/_co___volume___grid___computations_8cpp_a097cceef075e862683dd9f6e95d091d4.html#a097cceef075e862683dd9f6e95d091d4" target="_top" xlink:title=" ">
<polygon fill="white" stroke="#666666" points="355.88,-318.25 235.62,-318.25 235.62,-299 355.88,-299 355.88,-318.25"/>
<text text-anchor="middle" x="295.75" y="-304.75" font-family="Helvetica,sans-Serif" font-size="10.00">Construct_Co_Volumes</text>
</a>
</g>
</g>
<!-- Node8&#45;&gt;Node13 -->
<g id="edge13_Node000008_Node000013" class="edge">
<title>Node8&#45;&gt;Node13</title>
<g id="a_edge13_Node000008_Node000013"><a xlink:title=" ">
<path fill="none" stroke="#63b8ff" d="M169.83,-200.7C180.15,-203.31 191.01,-207.6 199.25,-214.62 227.69,-238.87 206.93,-266.23 235.25,-290.62 236.17,-291.42 237.12,-292.17 238.11,-292.9"/>
<polygon fill="#63b8ff" stroke="#63b8ff" points="235.93,-295.68 246.32,-297.78 239.51,-289.66 235.93,-295.68"/>
</a>
</g>
</g>
<!-- Node16 -->
<g id="Node000016" class="node">
<title>Node16</title>
<g id="a_Node000016"><a xlink:href="../../d8/d40/_grid___computations_8cpp_ae5f2b7a0fdbc48f8fdf897222b7ded04.html#ae5f2b7a0fdbc48f8fdf897222b7ded04" target="_top" xlink:title=" ">
<polygon fill="white" stroke="#666666" points="354.75,-281.25 236.75,-281.25 236.75,-262 354.75,-262 354.75,-281.25"/>
<text text-anchor="middle" x="295.75" y="-267.75" font-family="Helvetica,sans-Serif" font-size="10.00">Construct_Ghost_Cells</text>
</a>
</g>
</g>
<!-- Node8&#45;&gt;Node16 -->
<g id="edge16_Node000008_Node000016" class="edge">
<title>Node8&#45;&gt;Node16</title>
<g id="a_edge16_Node000008_Node000016"><a xlink:title=" ">
<path fill="none" stroke="#63b8ff" d="M169.98,-202.57C179.86,-205.29 190.42,-209.16 199.25,-214.62 219.3,-227.05 215.26,-241.1 235.25,-253.62 237.14,-254.81 239.11,-255.91 241.13,-256.95"/>
<polygon fill="#63b8ff" stroke="#63b8ff" points="239.67,-260.13 250.23,-260.98 242.5,-253.73 239.67,-260.13"/>
</a>
</g>
</g>
<!-- Node18 -->
<g id="Node000018" class="node">
<title>Node18</title>
<g id="a_Node000018"><a xlink:href="../../d8/d40/_grid___computations_8cpp_a663d4b3ae06e638c2f2e82ad437e831e.html#a663d4b3ae06e638c2f2e82ad437e831e" target="_top" xlink:title="Reads the input grid file and constructs physical cells, evaluates face areas, normals,...">
<polygon fill="white" stroke="#666666" points="327,-244.25 264.5,-244.25 264.5,-225 327,-225 327,-244.25"/>
<text text-anchor="middle" x="295.75" y="-230.75" font-family="Helvetica,sans-Serif" font-size="10.00">Read_Grid</text>
</a>
</g>
</g>
<!-- Node8&#45;&gt;Node18 -->
<g id="edge18_Node000008_Node000018" class="edge">
<title>Node8&#45;&gt;Node18</title>
<g id="a_edge18_Node000008_Node000018"><a xlink:title=" ">
<path fill="none" stroke="#63b8ff" d="M170.08,-204.5C194.14,-210.31 227.08,-218.27 253.06,-224.55"/>
<polygon fill="#63b8ff" stroke="#63b8ff" points="252.07,-227.91 262.61,-226.86 253.71,-221.11 252.07,-227.91"/>
</a>
</g>
</g>
<!-- Node10 -->
<g id="Node000010" class="node">
<title>Node10</title>
<g id="a_Node000010"><a xlink:href="../../d8/d40/_grid___computations_8cpp_a1f273579608200866e02e34f16a3eb6b.html#a1f273579608200866e02e34f16a3eb6b" target="_top" xlink:title=" ">
<polygon fill="white" stroke="#666666" points="523.75,-163.25 392.25,-163.25 392.25,-144 523.75,-144 523.75,-163.25"/>
<text text-anchor="middle" x="458" y="-149.75" font-family="Helvetica,sans-Serif" font-size="10.00">Distance_Between_Points</text>
</a>
</g>
</g>
<!-- Node9&#45;&gt;Node10 -->
<g id="edge9_Node000009_Node000010" class="edge">
<title>Node9&#45;&gt;Node10</title>
<g id="a_edge9_Node000009_Node000010"><a xlink:title=" ">
<path fill="none" stroke="#63b8ff" d="M353.25,-153.62C362.15,-153.62 371.49,-153.62 380.75,-153.62"/>
<polygon fill="#63b8ff" stroke="#63b8ff" points="380.47,-157.13 390.47,-153.63 380.47,-150.13 380.47,-157.13"/>
</a>
</g>
</g>
<!-- Node11 -->
<g id="Node000011" class="node">
<title>Node11</title>
<g id="a_Node000011"><a xlink:href="../../d8/d40/_grid___computations_8cpp_a079a3910785ad86cffe119a8e3d6a0d4.html#a079a3910785ad86cffe119a8e3d6a0d4" target="_top" xlink:title=" ">
<polygon fill="white" stroke="#666666" points="596,-163.25 559.75,-163.25 559.75,-144 596,-144 596,-163.25"/>
<text text-anchor="middle" x="577.88" y="-149.75" font-family="Helvetica,sans-Serif" font-size="10.00">Print</text>
</a>
</g>
</g>
<!-- Node10&#45;&gt;Node11 -->
<g id="edge10_Node000010_Node000011" class="edge">
<title>Node10&#45;&gt;Node11</title>
<g id="a_edge10_Node000010_Node000011"><a xlink:title=" ">
<path fill="none" stroke="#63b8ff" d="M524.14,-153.62C532.47,-153.62 540.62,-153.62 547.94,-153.62"/>
<polygon fill="#63b8ff" stroke="#63b8ff" points="547.82,-157.13 557.82,-153.63 547.82,-150.13 547.82,-157.13"/>
</a>
</g>
</g>
<!-- Node11&#45;&gt;Node11 -->
<g id="edge11_Node000011_Node000011" class="edge">
<title>Node11&#45;&gt;Node11</title>
<g id="a_edge11_Node000011_Node000011"><a xlink:title=" ">
<path fill="none" stroke="#63b8ff" d="M559.4,-163.25C550.41,-171.94 556.57,-181.25 577.88,-181.25 589.86,-181.25 597.05,-178.3 599.45,-174.18"/>
<polygon fill="#63b8ff" stroke="#63b8ff" points="602.86,-173.37 596.76,-164.71 596.13,-175.28 602.86,-173.37"/>
</a>
</g>
</g>
<!-- Node14 -->
<g id="Node000014" class="node">
<title>Node14</title>
<g id="a_Node000014"><a xlink:href="../../d8/d40/_grid___computations_8cpp_a0d19b951f556ac7a935819a38d2e1a6f.html#a0d19b951f556ac7a935819a38d2e1a6f" target="_top" xlink:title=" ">
<polygon fill="white" stroke="#666666" points="500.88,-318.25 415.12,-318.25 415.12,-299 500.88,-299 500.88,-318.25"/>
<text text-anchor="middle" x="458" y="-304.75" font-family="Helvetica,sans-Serif" font-size="10.00">Construct_Face</text>
</a>
</g>
</g>
<!-- Node13&#45;&gt;Node14 -->
<g id="edge14_Node000013_Node000014" class="edge">
<title>Node13&#45;&gt;Node14</title>
<g id="a_edge14_Node000013_Node000014"><a xlink:title=" ">
<path fill="none" stroke="#63b8ff" d="M355.97,-308.62C371.6,-308.62 388.37,-308.62 403.67,-308.62"/>
<polygon fill="#63b8ff" stroke="#63b8ff" points="403.52,-312.13 413.52,-308.63 403.52,-305.13 403.52,-312.13"/>
</a>
</g>
</g>
<!-- Node15 -->
<g id="Node000015" class="node">
<title>Node15</title>
<g id="a_Node000015"><a xlink:href="../../d8/d40/_grid___computations_8cpp_a29418163b6fbd0aa81c60026e430d0b8.html#a29418163b6fbd0aa81c60026e430d0b8" target="_top" xlink:title=" ">
<polygon fill="white" stroke="#666666" points="520.38,-355.25 395.62,-355.25 395.62,-336 520.38,-336 520.38,-355.25"/>
<text text-anchor="middle" x="458" y="-341.75" font-family="Helvetica,sans-Serif" font-size="10.00">Evaluate_Cross_Product</text>
</a>
</g>
</g>
<!-- Node13&#45;&gt;Node15 -->
<g id="edge15_Node000013_Node000015" class="edge">
<title>Node13&#45;&gt;Node15</title>
<g id="a_edge15_Node000013_Node000015"><a xlink:title=" ">
<path fill="none" stroke="#63b8ff" d="M340.54,-318.74C359.53,-323.12 381.97,-328.3 402.07,-332.94"/>
<polygon fill="#63b8ff" stroke="#63b8ff" points="401.26,-336.35 411.79,-335.19 402.83,-329.53 401.26,-336.35"/>
</a>
</g>
</g>
<!-- Node17 -->
<g id="Node000017" class="node">
<title>Node17</title>
<g id="a_Node000017"><a xlink:href="../../d8/d40/_grid___computations_8cpp_a2d284e26ddef582519953e8b8300184e.html#a2d284e26ddef582519953e8b8300184e" target="_top" xlink:title=" ">
<polygon fill="white" stroke="#666666" points="498.62,-281.25 417.38,-281.25 417.38,-262 498.62,-262 498.62,-281.25"/>
<text text-anchor="middle" x="458" y="-267.75" font-family="Helvetica,sans-Serif" font-size="10.00">Construct_Cell</text>
</a>
</g>
</g>
<!-- Node16&#45;&gt;Node17 -->
<g id="edge17_Node000016_Node000017" class="edge">
<title>Node16&#45;&gt;Node17</title>
<g id="a_edge17_Node000016_Node000017"><a xlink:title=" ">
<path fill="none" stroke="#63b8ff" d="M355.06,-271.62C371.62,-271.62 389.53,-271.62 405.65,-271.62"/>
<polygon fill="#63b8ff" stroke="#63b8ff" points="405.51,-275.13 415.51,-271.63 405.51,-268.13 405.51,-275.13"/>
</a>
</g>
</g>
<!-- Node18&#45;&gt;Node12 -->
<g id="edge19_Node000018_Node000012" class="edge">
<title>Node18&#45;&gt;Node12</title>
<g id="a_edge19_Node000018_Node000012"><a xlink:title=" ">
<path fill="none" stroke="#63b8ff" d="M327.27,-227.39C350.79,-221.81 383.71,-214 410.5,-207.65"/>
<polygon fill="#63b8ff" stroke="#63b8ff" points="411.17,-211.09 420.09,-205.38 409.56,-204.28 411.17,-211.09"/>
</a>
</g>
</g>
<!-- Node18&#45;&gt;Node17 -->
<g id="edge20_Node000018_Node000017" class="edge">
<title>Node18&#45;&gt;Node17</title>
<g id="a_edge20_Node000018_Node000017"><a xlink:title=" ">
<path fill="none" stroke="#63b8ff" d="M327.27,-241.67C349.42,-246.79 379.91,-253.82 405.76,-259.79"/>
<polygon fill="#63b8ff" stroke="#63b8ff" points="404.89,-263.18 415.42,-262.02 406.46,-256.36 404.89,-263.18"/>
</a>
</g>
</g>
<!-- Node19 -->
<g id="Node000019" class="node">
<title>Node19</title>
<g id="a_Node000019"><a xlink:href="../../d8/d40/_grid___computations_8cpp_aa376223dcb91990013ac6549090115ea.html#aa376223dcb91990013ac6549090115ea" target="_top" xlink:title=" ">
<polygon fill="white" stroke="#666666" points="507.25,-244.25 408.75,-244.25 408.75,-225 507.25,-225 507.25,-244.25"/>
<text text-anchor="middle" x="458" y="-230.75" font-family="Helvetica,sans-Serif" font-size="10.00">Conversion_Factor</text>
</a>
</g>
</g>
<!-- Node18&#45;&gt;Node19 -->
<g id="edge21_Node000018_Node000019" class="edge">
<title>Node18&#45;&gt;Node19</title>
<g id="a_edge21_Node000018_Node000019"><a xlink:title=" ">
<path fill="none" stroke="#63b8ff" d="M327.27,-234.62C346.94,-234.62 373.17,-234.62 396.91,-234.62"/>
<polygon fill="#63b8ff" stroke="#63b8ff" points="396.8,-238.13 406.8,-234.63 396.8,-231.13 396.8,-238.13"/>
</a>
</g>
</g>
<!-- Node21&#45;&gt;Node20 -->
<g id="edge26_Node000021_Node000020" class="edge">
<title>Node21&#45;&gt;Node20</title>
<g id="a_edge26_Node000021_Node000020"><a xlink:title=" ">
<path fill="none" stroke="#63b8ff" d="M162.76,-118.05C179.55,-116.35 202.47,-114.01 224.51,-111.77"/>
<polygon fill="#63b8ff" stroke="#63b8ff" points="224.81,-115.26 234.41,-110.77 224.1,-108.3 224.81,-115.26"/>
</a>
</g>
</g>
<!-- Node22 -->
<g id="Node000022" class="node">
<title>Node22</title>
<g id="a_Node000022"><a xlink:href="../../d4/d5d/_grid___refine___functions_8cpp_add867401ba6818c3d6480ec342cb0eaa.html#add867401ba6818c3d6480ec342cb0eaa" target="_top" xlink:title="Identifies the secondary neighbors of a given cell to evaluate second gradients.">
<polygon fill="white" stroke="#666666" points="356.25,-70.88 235.25,-70.88 235.25,-40.38 356.25,-40.38 356.25,-70.88"/>
<text text-anchor="start" x="243.25" y="-57.38" font-family="Helvetica,sans-Serif" font-size="10.00">Identify_Neighbours</text>
<text text-anchor="middle" x="295.75" y="-46.12" font-family="Helvetica,sans-Serif" font-size="10.00">_For_Second_Gradients</text>
</a>
</g>
</g>
<!-- Node21&#45;&gt;Node22 -->
<g id="edge24_Node000021_Node000022" class="edge">
<title>Node21&#45;&gt;Node22</title>
<g id="a_edge24_Node000021_Node000022"><a xlink:title=" ">
<path fill="none" stroke="#63b8ff" d="M162.97,-114.82C174.32,-111.83 187.71,-107.73 199.25,-102.62 216.4,-95.05 218.56,-89.17 235.25,-80.62 238.29,-79.07 241.46,-77.52 244.67,-76.02"/>
<polygon fill="#63b8ff" stroke="#63b8ff" points="245.95,-79.28 253.62,-71.97 243.07,-72.9 245.95,-79.28"/>
</a>
</g>
</g>
<!-- Node23 -->
<g id="Node000023" class="node">
<title>Node23</title>
<g id="a_Node000023"><a xlink:href="../../d3/dd4/_gradients_8cpp_a841d8b51ae49ac6ee37c9246228c1f89.html#a841d8b51ae49ac6ee37c9246228c1f89" target="_top" xlink:title="Identifies the secondary neighbors of a given cell to evaluate second gradients.">
<polygon fill="white" stroke="#666666" points="494.88,-65.25 421.12,-65.25 421.12,-46 494.88,-46 494.88,-65.25"/>
<text text-anchor="middle" x="458" y="-51.75" font-family="Helvetica,sans-Serif" font-size="10.00">getNeighbour</text>
</a>
</g>
</g>
<!-- Node22&#45;&gt;Node23 -->
<g id="edge25_Node000022_Node000023" class="edge">
<title>Node22&#45;&gt;Node23</title>
<g id="a_edge25_Node000022_Node000023"><a xlink:title=" ">
<path fill="none" stroke="#63b8ff" d="M356.42,-55.62C374.06,-55.62 393.12,-55.62 409.86,-55.62"/>
<polygon fill="#63b8ff" stroke="#63b8ff" points="409.51,-59.13 419.51,-55.63 409.51,-52.13 409.51,-59.13"/>
</a>
</g>
</g>
</g>
</svg>
