<?xml version="1.0" encoding="UTF-8" standalone="no"?>
<!DOCTYPE svg PUBLIC "-//W3C//DTD SVG 1.1//EN"
 "http://www.w3.org/Graphics/SVG/1.1/DTD/svg11.dtd">
<!-- Generated by graphviz version 12.2.1 (20241206.2353)
 -->
<!-- Title: Condition_For_MOVERS Pages: 1 -->
<svg width="972pt" height="293pt"
 viewBox="0.00 0.00 972.00 292.63" xmlns="http://www.w3.org/2000/svg" xmlns:xlink="http://www.w3.org/1999/xlink">
<g id="graph0" class="graph" transform="scale(1 1) rotate(0) translate(4 288.63)">
<title>Condition_For_MOVERS</title>
<!-- Node1 -->
<g id="Node000001" class="node">
<title>Node1</title>
<g id="a_Node000001"><a xlink:title=" ">
<polygon fill="#999999" stroke="#666666" points="964,-123.26 838.5,-123.26 838.5,-104.01 964,-104.01 964,-123.26"/>
<text text-anchor="middle" x="901.25" y="-109.76" font-family="Helvetica,sans-Serif" font-size="10.00">Condition_For_MOVERS</text>
</a>
</g>
</g>
<!-- Node2 -->
<g id="Node000002" class="node">
<title>Node2</title>
<g id="a_Node000002"><a xlink:href="../../dd/d30/_m_o_v_e_r_s_8cpp_ad9d16fef8d34a1b19bfdbf938bf033be.html#ad9d16fef8d34a1b19bfdbf938bf033be" target="_top" xlink:title=" ">
<polygon fill="white" stroke="#666666" points="793.5,-180.26 734,-180.26 734,-161.01 793.5,-161.01 793.5,-180.26"/>
<text text-anchor="middle" x="763.75" y="-166.76" font-family="Helvetica,sans-Serif" font-size="10.00">MOVERS</text>
</a>
</g>
</g>
<!-- Node1&#45;&gt;Node2 -->
<g id="edge1_Node000001_Node000002" class="edge">
<title>Node1&#45;&gt;Node2</title>
<g id="a_edge1_Node000001_Node000002"><a xlink:title=" ">
<path fill="none" stroke="#63b8ff" d="M865.81,-128.12C841.59,-138.31 809.83,-151.67 788.42,-160.68"/>
<polygon fill="#63b8ff" stroke="#63b8ff" points="867.08,-131.38 874.94,-124.28 864.37,-124.93 867.08,-131.38"/>
</a>
</g>
</g>
<!-- Node11 -->
<g id="Node000011" class="node">
<title>Node11</title>
<g id="a_Node000011"><a xlink:href="../../dd/d30/_m_o_v_e_r_s_8cpp_a895c6dcdac689f71d89e341046362be9.html#a895c6dcdac689f71d89e341046362be9" target="_top" xlink:title=" ">
<polygon fill="white" stroke="#666666" points="802.5,-105.26 725,-105.26 725,-86.01 802.5,-86.01 802.5,-105.26"/>
<text text-anchor="middle" x="763.75" y="-91.76" font-family="Helvetica,sans-Serif" font-size="10.00">MOVERS_2O</text>
</a>
</g>
</g>
<!-- Node1&#45;&gt;Node11 -->
<g id="edge19_Node000001_Node000011" class="edge">
<title>Node1&#45;&gt;Node11</title>
<g id="a_edge19_Node000001_Node000011"><a xlink:title=" ">
<path fill="none" stroke="#63b8ff" d="M826.81,-103.88C818.59,-102.79 810.47,-101.71 802.96,-100.71"/>
<polygon fill="#63b8ff" stroke="#63b8ff" points="826.18,-107.33 836.55,-105.17 827.1,-100.39 826.18,-107.33"/>
</a>
</g>
</g>
<!-- Node3 -->
<g id="Node000003" class="node">
<title>Node3</title>
<g id="a_Node000003"><a xlink:href="../../d9/ddd/_c_u_d_a___integrated___numerical___method_8cpp_ad25c9a53b380204dd243bc1351d6b098.html#ad25c9a53b380204dd243bc1351d6b098" target="_top" xlink:title=" ">
<polygon fill="white" stroke="#666666" points="689,-180.26 549.25,-180.26 549.25,-161.01 689,-161.01 689,-180.26"/>
<text text-anchor="middle" x="619.12" y="-166.76" font-family="Helvetica,sans-Serif" font-size="10.00">Evaluate_Cell_Net_Flux_1O</text>
</a>
</g>
</g>
<!-- Node2&#45;&gt;Node3 -->
<g id="edge2_Node000002_Node000003" class="edge">
<title>Node2&#45;&gt;Node3</title>
<g id="a_edge2_Node000002_Node000003"><a xlink:title=" ">
<path fill="none" stroke="#63b8ff" d="M722.07,-170.63C711.83,-170.63 700.55,-170.63 689.34,-170.63"/>
<polygon fill="#63b8ff" stroke="#63b8ff" points="722.03,-174.13 732.03,-170.63 722.03,-167.13 722.03,-174.13"/>
</a>
</g>
</g>
<!-- Node6 -->
<g id="Node000006" class="node">
<title>Node6</title>
<g id="a_Node000006"><a xlink:href="../../dd/dbf/_euler___python___wrapper_8cpp_ac5ccb50c3be270f798e054dd36987442.html#ac5ccb50c3be270f798e054dd36987442" target="_top" xlink:title=" ">
<polygon fill="white" stroke="#666666" points="112.75,-198.26 0,-198.26 0,-179.01 112.75,-179.01 112.75,-198.26"/>
<text text-anchor="middle" x="56.38" y="-184.76" font-family="Helvetica,sans-Serif" font-size="10.00">PYBIND11_MODULE</text>
</a>
</g>
</g>
<!-- Node2&#45;&gt;Node6 -->
<g id="edge18_Node000002_Node000006" class="edge">
<title>Node2&#45;&gt;Node6</title>
<g id="a_edge18_Node000002_Node000006"><a xlink:title=" ">
<path fill="none" stroke="#63b8ff" d="M738.6,-186.91C689.44,-218.41 573.26,-284.63 465.38,-284.63 465.38,-284.63 465.38,-284.63 323.25,-284.63 222.89,-284.63 113.21,-223.37 73.14,-198.73"/>
<polygon fill="#63b8ff" stroke="#63b8ff" points="740.31,-189.97 746.78,-181.58 736.49,-184.11 740.31,-189.97"/>
</a>
</g>
</g>
<!-- Node4 -->
<g id="Node000004" class="node">
<title>Node4</title>
<g id="a_Node000004"><a xlink:href="../../d0/d64/_numerical___method_8cpp_a8dda0c7e17babab9b6e49e8e199dc30e.html#a8dda0c7e17babab9b6e49e8e199dc30e" target="_top" xlink:title=" ">
<polygon fill="white" stroke="#666666" points="367.12,-142.26 281.38,-142.26 281.38,-123.01 367.12,-123.01 367.12,-142.26"/>
<text text-anchor="middle" x="324.25" y="-128.76" font-family="Helvetica,sans-Serif" font-size="10.00">Explicit_Method</text>
</a>
</g>
</g>
<!-- Node3&#45;&gt;Node4 -->
<g id="edge3_Node000003_Node000004" class="edge">
<title>Node3&#45;&gt;Node4</title>
<g id="a_edge3_Node000003_Node000004"><a xlink:title=" ">
<path fill="none" stroke="#63b8ff" d="M537.77,-159.86C529.49,-158.76 521.2,-157.67 513.25,-156.63 463.17,-150.1 405.55,-142.77 367.45,-137.95"/>
<polygon fill="#63b8ff" stroke="#63b8ff" points="537.15,-163.31 547.53,-161.15 538.07,-156.37 537.15,-163.31"/>
</a>
</g>
</g>
<!-- Node3&#45;&gt;Node6 -->
<g id="edge12_Node000003_Node000006" class="edge">
<title>Node3&#45;&gt;Node6</title>
<g id="a_edge12_Node000003_Node000006"><a xlink:title=" ">
<path fill="none" stroke="#63b8ff" d="M580.12,-184.41C560.37,-191.2 535.72,-199.09 513.25,-204.63 355.93,-243.45 307.86,-243.31 148.75,-212.63 129.58,-208.94 108.49,-203.49 91.41,-198.72"/>
<polygon fill="#63b8ff" stroke="#63b8ff" points="581.12,-187.77 589.41,-181.17 578.81,-181.16 581.12,-187.77"/>
</a>
</g>
</g>
<!-- Node8 -->
<g id="Node000008" class="node">
<title>Node8</title>
<g id="a_Node000008"><a xlink:href="../../de/df0/_solver_8cpp_a2f37f06e8324a1ed6aa99efdbba81865.html#a2f37f06e8324a1ed6aa99efdbba81865" target="_top" xlink:title=" ">
<polygon fill="white" stroke="#666666" points="233,-143.26 148.75,-143.26 148.75,-124.01 233,-124.01 233,-143.26"/>
<text text-anchor="middle" x="190.88" y="-129.76" font-family="Helvetica,sans-Serif" font-size="10.00">Viscous_Solver</text>
</a>
</g>
</g>
<!-- Node3&#45;&gt;Node8 -->
<g id="edge17_Node000003_Node000008" class="edge">
<title>Node3&#45;&gt;Node8</title>
<g id="a_edge17_Node000003_Node000008"><a xlink:title=" ">
<path fill="none" stroke="#63b8ff" d="M537.8,-170.24C466.78,-168.95 360.55,-164.71 269,-151.63 255.93,-149.77 241.82,-146.77 229.28,-143.75"/>
<polygon fill="#63b8ff" stroke="#63b8ff" points="537.31,-173.73 547.37,-170.4 537.43,-166.73 537.31,-173.73"/>
</a>
</g>
</g>
<!-- Node9 -->
<g id="Node000009" class="node">
<title>Node9</title>
<g id="a_Node000009"><a xlink:href="../../db/d38/_parallel___numerical___method_8cpp_a263f3c36336c227c44f052b2ad122253.html#a263f3c36336c227c44f052b2ad122253" target="_top" xlink:title=" ">
<polygon fill="white" stroke="#666666" points="513.25,-104.26 415.5,-104.26 415.5,-85.01 513.25,-85.01 513.25,-104.26"/>
<text text-anchor="middle" x="464.38" y="-90.76" font-family="Helvetica,sans-Serif" font-size="10.00">PrecomputeFluxes</text>
</a>
</g>
</g>
<!-- Node3&#45;&gt;Node9 -->
<g id="edge10_Node000003_Node000009" class="edge">
<title>Node3&#45;&gt;Node9</title>
<g id="a_edge10_Node000003_Node000009"><a xlink:title=" ">
<path fill="none" stroke="#63b8ff" d="M587.78,-155.54C557.34,-140.39 511.33,-117.5 485.26,-104.53"/>
<polygon fill="#63b8ff" stroke="#63b8ff" points="585.97,-158.55 596.49,-159.87 589.09,-152.28 585.97,-158.55"/>
</a>
</g>
</g>
<!-- Node10 -->
<g id="Node000010" class="node">
<title>Node10</title>
<g id="a_Node000010"><a xlink:href="../../de/d22/_cuda___parallel___r_k_8cpp_a794f030971fbb7c9dd4bc08df03f50f1.html#a794f030971fbb7c9dd4bc08df03f50f1" target="_top" xlink:title=" ">
<polygon fill="white" stroke="#666666" points="379.5,-218.26 269,-218.26 269,-199.01 379.5,-199.01 379.5,-218.26"/>
<text text-anchor="middle" x="324.25" y="-204.76" font-family="Helvetica,sans-Serif" font-size="10.00">Runge_Kutta_Method</text>
</a>
</g>
</g>
<!-- Node3&#45;&gt;Node10 -->
<g id="edge13_Node000003_Node000010" class="edge">
<title>Node3&#45;&gt;Node10</title>
<g id="a_edge13_Node000003_Node000010"><a xlink:title=" ">
<path fill="none" stroke="#63b8ff" d="M537.77,-181.41C529.49,-182.51 521.2,-183.6 513.25,-184.63 468.39,-190.49 417.48,-196.98 379.97,-201.73"/>
<polygon fill="#63b8ff" stroke="#63b8ff" points="538.07,-184.9 547.53,-180.12 537.15,-177.96 538.07,-184.9"/>
</a>
</g>
</g>
<!-- Node5 -->
<g id="Node000005" class="node">
<title>Node5</title>
<g id="a_Node000005"><a xlink:href="../../de/df0/_solver_8cpp_ad0f49408a26339b5f7043bf867c3fa8d.html#ad0f49408a26339b5f7043bf867c3fa8d" target="_top" xlink:title=" ">
<polygon fill="white" stroke="#666666" points="232.25,-180.26 149.5,-180.26 149.5,-161.01 232.25,-161.01 232.25,-180.26"/>
<text text-anchor="middle" x="190.88" y="-166.76" font-family="Helvetica,sans-Serif" font-size="10.00">Inviscid_Solver</text>
</a>
</g>
</g>
<!-- Node4&#45;&gt;Node5 -->
<g id="edge4_Node000004_Node000005" class="edge">
<title>Node4&#45;&gt;Node5</title>
<g id="a_edge4_Node000004_Node000005"><a xlink:title=" ">
<path fill="none" stroke="#63b8ff" d="M277.68,-145.82C260.87,-150.68 242.12,-156.1 226.44,-160.64"/>
<polygon fill="#63b8ff" stroke="#63b8ff" points="278.3,-149.28 286.93,-143.14 276.36,-142.56 278.3,-149.28"/>
</a>
</g>
</g>
<!-- Node4&#45;&gt;Node8 -->
<g id="edge7_Node000004_Node000008" class="edge">
<title>Node4&#45;&gt;Node8</title>
<g id="a_edge7_Node000004_Node000008"><a xlink:title=" ">
<path fill="none" stroke="#63b8ff" d="M269.55,-133.04C257.42,-133.14 244.72,-133.23 233.19,-133.32"/>
<polygon fill="#63b8ff" stroke="#63b8ff" points="269.47,-136.54 279.45,-132.97 269.42,-129.54 269.47,-136.54"/>
</a>
</g>
</g>
<!-- Node5&#45;&gt;Node6 -->
<g id="edge5_Node000005_Node000006" class="edge">
<title>Node5&#45;&gt;Node6</title>
<g id="a_edge5_Node000005_Node000006"><a xlink:title=" ">
<path fill="none" stroke="#63b8ff" d="M137.77,-177.71C129.62,-178.82 121.17,-179.97 112.94,-181.09"/>
<polygon fill="#63b8ff" stroke="#63b8ff" points="138.1,-181.2 147.54,-176.39 137.16,-174.26 138.1,-181.2"/>
</a>
</g>
</g>
<!-- Node7 -->
<g id="Node000007" class="node">
<title>Node7</title>
<g id="a_Node000007"><a xlink:href="../../d5/d12/_main_8cpp_a35d775933750ace299102f06a1712663.html#a35d775933750ace299102f06a1712663" target="_top" xlink:title="Executes the appropriate solver based on the simulation configuration.">
<polygon fill="white" stroke="#666666" points="85,-161.26 27.75,-161.26 27.75,-142.01 85,-142.01 85,-161.26"/>
<text text-anchor="middle" x="56.38" y="-147.76" font-family="Helvetica,sans-Serif" font-size="10.00">runSolver</text>
</a>
</g>
</g>
<!-- Node5&#45;&gt;Node7 -->
<g id="edge6_Node000005_Node000007" class="edge">
<title>Node5&#45;&gt;Node7</title>
<g id="a_edge6_Node000005_Node000007"><a xlink:title=" ">
<path fill="none" stroke="#63b8ff" d="M137.83,-163.17C119.9,-160.6 100.53,-157.82 85.28,-155.64"/>
<polygon fill="#63b8ff" stroke="#63b8ff" points="137.15,-166.61 147.54,-164.56 138.14,-159.68 137.15,-166.61"/>
</a>
</g>
</g>
<!-- Node8&#45;&gt;Node6 -->
<g id="edge8_Node000008_Node000006" class="edge">
<title>Node8&#45;&gt;Node6</title>
<g id="a_edge8_Node000008_Node000006"><a xlink:title=" ">
<path fill="none" stroke="#63b8ff" d="M155.79,-148.32C153.4,-149.42 151.03,-150.54 148.75,-151.63 132.45,-159.49 129.41,-163.59 112.75,-170.63 105.95,-173.51 98.53,-176.21 91.39,-178.6"/>
<polygon fill="#63b8ff" stroke="#63b8ff" points="157.18,-151.53 164.87,-144.24 154.32,-145.15 157.18,-151.53"/>
</a>
</g>
</g>
<!-- Node8&#45;&gt;Node7 -->
<g id="edge9_Node000008_Node000007" class="edge">
<title>Node8&#45;&gt;Node7</title>
<g id="a_edge9_Node000008_Node000007"><a xlink:title=" ">
<path fill="none" stroke="#63b8ff" d="M136.97,-140.82C119.33,-143.22 100.37,-145.79 85.38,-147.83"/>
<polygon fill="#63b8ff" stroke="#63b8ff" points="137.38,-144.3 146.81,-139.48 136.43,-137.36 137.38,-144.3"/>
</a>
</g>
</g>
<!-- Node9&#45;&gt;Node4 -->
<g id="edge11_Node000009_Node000004" class="edge">
<title>Node9&#45;&gt;Node4</title>
<g id="a_edge11_Node000009_Node000004"><a xlink:title=" ">
<path fill="none" stroke="#63b8ff" d="M415.71,-107.75C397.98,-112.63 378.15,-118.08 361.59,-122.64"/>
<polygon fill="#63b8ff" stroke="#63b8ff" points="416.55,-111.15 425.26,-105.12 414.69,-104.4 416.55,-111.15"/>
</a>
</g>
</g>
<!-- Node10&#45;&gt;Node5 -->
<g id="edge14_Node000010_Node000005" class="edge">
<title>Node10&#45;&gt;Node5</title>
<g id="a_edge14_Node000010_Node000005"><a xlink:title=" ">
<path fill="none" stroke="#63b8ff" d="M277.68,-195.45C260.87,-190.59 242.12,-185.17 226.44,-180.63"/>
<polygon fill="#63b8ff" stroke="#63b8ff" points="276.36,-198.71 286.93,-198.13 278.3,-191.99 276.36,-198.71"/>
</a>
</g>
</g>
<!-- Node10&#45;&gt;Node6 -->
<g id="edge15_Node000010_Node000006" class="edge">
<title>Node10&#45;&gt;Node6</title>
<g id="a_edge15_Node000010_Node000006"><a xlink:title=" ">
<path fill="none" stroke="#63b8ff" d="M257.54,-203.69C213.17,-200.35 155.24,-196 113.12,-192.83"/>
<polygon fill="#63b8ff" stroke="#63b8ff" points="257.06,-207.17 267.3,-204.43 257.59,-200.19 257.06,-207.17"/>
</a>
</g>
</g>
<!-- Node10&#45;&gt;Node8 -->
<g id="edge16_Node000010_Node000008" class="edge">
<title>Node10&#45;&gt;Node8</title>
<g id="a_edge16_Node000010_Node000008"><a xlink:title=" ">
<path fill="none" stroke="#63b8ff" d="M285.64,-193.92C279.9,-191.13 274.17,-188.02 269,-184.63 250.84,-172.75 251.19,-163.48 233,-151.63 228.43,-148.66 223.28,-145.96 218.22,-143.62"/>
<polygon fill="#63b8ff" stroke="#63b8ff" points="283.93,-196.99 294.48,-197.94 286.83,-190.62 283.93,-196.99"/>
</a>
</g>
</g>
<!-- Node12 -->
<g id="Node000012" class="node">
<title>Node12</title>
<g id="a_Node000012"><a xlink:href="../../d9/ddd/_c_u_d_a___integrated___numerical___method_8cpp_a4db2fe24c2a78f98ac91e9d7d271430f.html#a4db2fe24c2a78f98ac91e9d7d271430f" target="_top" xlink:title=" ">
<polygon fill="white" stroke="#666666" points="689,-47.26 549.25,-47.26 549.25,-28.01 689,-28.01 689,-47.26"/>
<text text-anchor="middle" x="619.12" y="-33.76" font-family="Helvetica,sans-Serif" font-size="10.00">Evaluate_Cell_Net_Flux_2O</text>
</a>
</g>
</g>
<!-- Node11&#45;&gt;Node12 -->
<g id="edge20_Node000011_Node000012" class="edge">
<title>Node11&#45;&gt;Node12</title>
<g id="a_edge20_Node000011_Node000012"><a xlink:title=" ">
<path fill="none" stroke="#63b8ff" d="M727.45,-81.28C701.72,-70.82 667.49,-56.9 644.68,-47.62"/>
<polygon fill="#63b8ff" stroke="#63b8ff" points="725.92,-84.44 736.5,-84.96 728.56,-77.95 725.92,-84.44"/>
</a>
</g>
</g>
<!-- Node12&#45;&gt;Node4 -->
<g id="edge21_Node000012_Node000004" class="edge">
<title>Node12&#45;&gt;Node4</title>
<g id="a_edge21_Node000012_Node000004"><a xlink:title=" ">
<path fill="none" stroke="#63b8ff" d="M544.29,-26.58C504.59,-23.75 455.69,-25.44 415.5,-42.63 375.83,-59.61 344.23,-102.94 331.42,-122.63"/>
<polygon fill="#63b8ff" stroke="#63b8ff" points="543.99,-30.06 554.25,-27.41 544.57,-23.09 543.99,-30.06"/>
</a>
</g>
</g>
<!-- Node12&#45;&gt;Node6 -->
<g id="edge23_Node000012_Node000006" class="edge">
<title>Node12&#45;&gt;Node6</title>
<g id="a_edge23_Node000012_Node000006"><a xlink:title=" ">
<path fill="none" stroke="#63b8ff" d="M575.44,-24.56C556.58,-19.43 534.01,-14.17 513.25,-11.63 405.23,1.55 370.53,10.53 269,-28.63 207.7,-52.28 194.05,-67.04 148.75,-114.63 128.35,-136.07 136.18,-152.57 112.75,-170.63 108.67,-173.78 104.01,-176.39 99.18,-178.55"/>
<polygon fill="#63b8ff" stroke="#63b8ff" points="574.34,-27.88 584.91,-27.22 576.23,-21.14 574.34,-27.88"/>
</a>
</g>
</g>
<!-- Node12&#45;&gt;Node8 -->
<g id="edge25_Node000012_Node000008" class="edge">
<title>Node12&#45;&gt;Node8</title>
<g id="a_edge25_Node000012_Node000008"><a xlink:title=" ">
<path fill="none" stroke="#63b8ff" d="M567.95,-25.17C526.54,-16.9 466.51,-9.58 415.5,-21.63 329.93,-41.87 239.81,-100.17 205.88,-123.66"/>
<polygon fill="#63b8ff" stroke="#63b8ff" points="567.13,-28.57 577.63,-27.2 568.56,-21.72 567.13,-28.57"/>
</a>
</g>
</g>
<!-- Node12&#45;&gt;Node9 -->
<g id="edge22_Node000012_Node000009" class="edge">
<title>Node12&#45;&gt;Node9</title>
<g id="a_edge22_Node000012_Node000009"><a xlink:title=" ">
<path fill="none" stroke="#63b8ff" d="M580.44,-51.7C553.1,-61.9 516.78,-75.45 492.32,-84.58"/>
<polygon fill="#63b8ff" stroke="#63b8ff" points="581.6,-55 589.75,-48.22 579.16,-48.44 581.6,-55"/>
</a>
</g>
</g>
<!-- Node12&#45;&gt;Node10 -->
<g id="edge24_Node000012_Node000010" class="edge">
<title>Node12&#45;&gt;Node10</title>
<g id="a_edge24_Node000012_Node000010"><a xlink:title=" ">
<path fill="none" stroke="#63b8ff" d="M537.62,-45.23C489.69,-51.16 434.59,-60.91 415.5,-75.63 385.9,-98.46 400.65,-120.82 379.5,-151.63 366.98,-169.88 348.58,-187.86 336.76,-198.6"/>
<polygon fill="#63b8ff" stroke="#63b8ff" points="537.97,-48.71 547.48,-44.05 537.14,-41.76 537.97,-48.71"/>
</a>
</g>
</g>
</g>
</svg>
