<?xml version="1.0" encoding="UTF-8" standalone="no"?>
<!DOCTYPE svg PUBLIC "-//W3C//DTD SVG 1.1//EN"
 "http://www.w3.org/Graphics/SVG/1.1/DTD/svg11.dtd">
<!-- Generated by graphviz version 12.2.1 (20241206.2353)
 -->
<!-- Title: Condition_For_MOVERS Pages: 1 -->
<svg width="911pt" height="202pt"
 viewBox="0.00 0.00 911.25 201.60" xmlns="http://www.w3.org/2000/svg" xmlns:xlink="http://www.w3.org/1999/xlink">
<g id="graph0" class="graph" transform="scale(1 1) rotate(0) translate(4 197.6)">
<title>Condition_For_MOVERS</title>
<!-- Node1 -->
<g id="Node000001" class="node">
<title>Node1</title>
<g id="a_Node000001"><a xlink:title=" ">
<polygon fill="#999999" stroke="#666666" points="903.25,-123.77 777.75,-123.77 777.75,-104.52 903.25,-104.52 903.25,-123.77"/>
<text text-anchor="middle" x="840.5" y="-110.27" font-family="Helvetica,sans-Serif" font-size="10.00">Condition_For_MOVERS</text>
</a>
</g>
</g>
<!-- Node2 -->
<g id="Node000002" class="node">
<title>Node2</title>
<g id="a_Node000002"><a xlink:href="../../dd/d30/_m_o_v_e_r_s_8cpp_ad9d16fef8d34a1b19bfdbf938bf033be.html#ad9d16fef8d34a1b19bfdbf938bf033be" target="_top" xlink:title=" ">
<polygon fill="white" stroke="#666666" points="732.75,-142.77 673.25,-142.77 673.25,-123.52 732.75,-123.52 732.75,-142.77"/>
<text text-anchor="middle" x="703" y="-129.27" font-family="Helvetica,sans-Serif" font-size="10.00">MOVERS</text>
</a>
</g>
</g>
<!-- Node1&#45;&gt;Node2 -->
<g id="edge1_Node000001_Node000002" class="edge">
<title>Node1&#45;&gt;Node2</title>
<g id="a_edge1_Node000001_Node000002"><a xlink:title=" ">
<path fill="none" stroke="#63b8ff" d="M766.06,-124.45C754.36,-126.09 742.88,-127.7 733.04,-129.07"/>
<polygon fill="#63b8ff" stroke="#63b8ff" points="766.39,-127.93 775.8,-123.08 765.41,-121 766.39,-127.93"/>
</a>
</g>
</g>
<!-- Node12 -->
<g id="Node000012" class="node">
<title>Node12</title>
<g id="a_Node000012"><a xlink:href="../../dd/d30/_m_o_v_e_r_s_8cpp_a895c6dcdac689f71d89e341046362be9.html#a895c6dcdac689f71d89e341046362be9" target="_top" xlink:title=" ">
<polygon fill="white" stroke="#666666" points="741.75,-105.77 664.25,-105.77 664.25,-86.52 741.75,-86.52 741.75,-105.77"/>
<text text-anchor="middle" x="703" y="-92.27" font-family="Helvetica,sans-Serif" font-size="10.00">MOVERS_2O</text>
</a>
</g>
</g>
<!-- Node1&#45;&gt;Node12 -->
<g id="edge20_Node000001_Node000012" class="edge">
<title>Node1&#45;&gt;Node12</title>
<g id="a_edge20_Node000001_Node000012"><a xlink:title=" ">
<path fill="none" stroke="#63b8ff" d="M766.06,-104.39C757.84,-103.3 749.72,-102.22 742.21,-101.22"/>
<polygon fill="#63b8ff" stroke="#63b8ff" points="765.43,-107.84 775.8,-105.69 766.35,-100.9 765.43,-107.84"/>
</a>
</g>
</g>
<!-- Node3 -->
<g id="Node000003" class="node">
<title>Node3</title>
<g id="a_Node000003"><a xlink:href="../../d7/db1/_net___flux_8cpp_ad25c9a53b380204dd243bc1351d6b098.html#ad25c9a53b380204dd243bc1351d6b098" target="_top" xlink:title="Evaluates the first&#45;order net flux for all cells in the computational domain.">
<polygon fill="white" stroke="#666666" points="628.25,-142.77 488.5,-142.77 488.5,-123.52 628.25,-123.52 628.25,-142.77"/>
<text text-anchor="middle" x="558.38" y="-129.27" font-family="Helvetica,sans-Serif" font-size="10.00">Evaluate_Cell_Net_Flux_1O</text>
</a>
</g>
</g>
<!-- Node2&#45;&gt;Node3 -->
<g id="edge2_Node000002_Node000003" class="edge">
<title>Node2&#45;&gt;Node3</title>
<g id="a_edge2_Node000002_Node000003"><a xlink:title=" ">
<path fill="none" stroke="#63b8ff" d="M661.32,-133.15C651.08,-133.15 639.8,-133.15 628.59,-133.15"/>
<polygon fill="#63b8ff" stroke="#63b8ff" points="661.28,-136.65 671.28,-133.15 661.28,-129.65 661.28,-136.65"/>
</a>
</g>
</g>
<!-- Node5 -->
<g id="Node000005" class="node">
<title>Node5</title>
<g id="a_Node000005"><a xlink:href="../../dd/dbf/_euler___python___wrapper_8cpp_ac5ccb50c3be270f798e054dd36987442.html#ac5ccb50c3be270f798e054dd36987442" target="_top" xlink:title=" ">
<polygon fill="white" stroke="#666666" points="185.75,-105.77 73,-105.77 73,-86.52 185.75,-86.52 185.75,-105.77"/>
<text text-anchor="middle" x="129.38" y="-92.27" font-family="Helvetica,sans-Serif" font-size="10.00">PYBIND11_MODULE</text>
</a>
</g>
</g>
<!-- Node2&#45;&gt;Node5 -->
<g id="edge19_Node000002_Node000005" class="edge">
<title>Node2&#45;&gt;Node5</title>
<g id="a_edge19_Node000002_Node000005"><a xlink:title=" ">
<path fill="none" stroke="#63b8ff" d="M662.42,-146.74C596.26,-167.82 458.96,-204.52 342,-190.15 287.33,-183.43 271.87,-183 221.75,-160.15 190.21,-145.77 158.1,-120.21 141.64,-106.13"/>
<polygon fill="#63b8ff" stroke="#63b8ff" points="663.29,-150.14 671.72,-143.72 661.13,-143.48 663.29,-150.14"/>
</a>
</g>
</g>
<!-- Node4 -->
<g id="Node000004" class="node">
<title>Node4</title>
<g id="a_Node000004"><a xlink:href="../../db/dbe/_assemble___matrix_8cpp_a19cccc9540fb68aa18547238ebc80951.html#a19cccc9540fb68aa18547238ebc80951" target="_top" xlink:title=" ">
<polygon fill="white" stroke="#666666" points="432.25,-142.77 362.25,-142.77 362.25,-123.52 432.25,-123.52 432.25,-142.77"/>
<text text-anchor="middle" x="397.25" y="-129.27" font-family="Helvetica,sans-Serif" font-size="10.00">Assemble_b</text>
</a>
</g>
</g>
<!-- Node3&#45;&gt;Node4 -->
<g id="edge3_Node000003_Node000004" class="edge">
<title>Node3&#45;&gt;Node4</title>
<g id="a_edge3_Node000003_Node000004"><a xlink:title=" ">
<path fill="none" stroke="#63b8ff" d="M476.7,-133.15C461.08,-133.15 445.53,-133.15 432.43,-133.15"/>
<polygon fill="#63b8ff" stroke="#63b8ff" points="476.53,-136.65 486.53,-133.15 476.53,-129.65 476.53,-136.65"/>
</a>
</g>
</g>
<!-- Node3&#45;&gt;Node5 -->
<g id="edge13_Node000003_Node000005" class="edge">
<title>Node3&#45;&gt;Node5</title>
<g id="a_edge13_Node000003_Node000005"><a xlink:title=" ">
<path fill="none" stroke="#63b8ff" d="M527.24,-148.01C506.73,-157.28 478.65,-168.33 452.5,-173.15 349.91,-192.05 319.75,-165.9 221.75,-130.15 199.97,-122.2 175.33,-113.02 157.13,-106.21"/>
<polygon fill="#63b8ff" stroke="#63b8ff" points="528.55,-151.26 536.14,-143.87 525.6,-144.92 528.55,-151.26"/>
</a>
</g>
</g>
<!-- Node6 -->
<g id="Node000006" class="node">
<title>Node6</title>
<g id="a_Node000006"><a xlink:href="../../db/d38/_parallel___numerical___method_8cpp_a8dda0c7e17babab9b6e49e8e199dc30e.html#a8dda0c7e17babab9b6e49e8e199dc30e" target="_top" xlink:title=" ">
<polygon fill="white" stroke="#666666" points="440.12,-29.77 354.38,-29.77 354.38,-10.52 440.12,-10.52 440.12,-29.77"/>
<text text-anchor="middle" x="397.25" y="-16.27" font-family="Helvetica,sans-Serif" font-size="10.00">Explicit_Method</text>
</a>
</g>
</g>
<!-- Node3&#45;&gt;Node6 -->
<g id="edge5_Node000003_Node000006" class="edge">
<title>Node3&#45;&gt;Node6</title>
<g id="a_edge5_Node000003_Node000006"><a xlink:title=" ">
<path fill="none" stroke="#63b8ff" d="M525.86,-117.97C513.84,-111.73 500.23,-104.11 488.5,-96.15 457.49,-75.09 424.69,-45.3 408.51,-30.03"/>
<polygon fill="#63b8ff" stroke="#63b8ff" points="524.07,-120.98 534.57,-122.38 527.23,-114.74 524.07,-120.98"/>
</a>
</g>
</g>
<!-- Node10 -->
<g id="Node000010" class="node">
<title>Node10</title>
<g id="a_Node000010"><a xlink:href="../../de/df0/_solver_8cpp_a2f37f06e8324a1ed6aa99efdbba81865.html#a2f37f06e8324a1ed6aa99efdbba81865" target="_top" xlink:title=" ">
<polygon fill="white" stroke="#666666" points="306,-67.77 221.75,-67.77 221.75,-48.52 306,-48.52 306,-67.77"/>
<text text-anchor="middle" x="263.88" y="-54.27" font-family="Helvetica,sans-Serif" font-size="10.00">Viscous_Solver</text>
</a>
</g>
</g>
<!-- Node3&#45;&gt;Node10 -->
<g id="edge18_Node000003_Node000010" class="edge">
<title>Node3&#45;&gt;Node10</title>
<g id="a_edge18_Node000003_Node000010"><a xlink:title=" ">
<path fill="none" stroke="#63b8ff" d="M521.54,-146.97C477.13,-161.78 400.22,-179.69 342,-152.15 304.41,-134.37 279,-88.29 269.29,-67.99"/>
<polygon fill="#63b8ff" stroke="#63b8ff" points="522.64,-150.3 530.94,-143.7 520.34,-143.68 522.64,-150.3"/>
</a>
</g>
</g>
<!-- Node11 -->
<g id="Node000011" class="node">
<title>Node11</title>
<g id="a_Node000011"><a xlink:href="../../d0/d64/_numerical___method_8cpp_a794f030971fbb7c9dd4bc08df03f50f1.html#a794f030971fbb7c9dd4bc08df03f50f1" target="_top" xlink:title=" ">
<polygon fill="white" stroke="#666666" points="452.5,-105.77 342,-105.77 342,-86.52 452.5,-86.52 452.5,-105.77"/>
<text text-anchor="middle" x="397.25" y="-92.27" font-family="Helvetica,sans-Serif" font-size="10.00">Runge_Kutta_Method</text>
</a>
</g>
</g>
<!-- Node3&#45;&gt;Node11 -->
<g id="edge14_Node000003_Node000011" class="edge">
<title>Node3&#45;&gt;Node11</title>
<g id="a_edge14_Node000003_Node000011"><a xlink:title=" ">
<path fill="none" stroke="#63b8ff" d="M502.77,-120.45C482.82,-115.81 460.53,-110.63 441.68,-106.25"/>
<polygon fill="#63b8ff" stroke="#63b8ff" points="501.89,-123.84 512.42,-122.69 503.47,-117.02 501.89,-123.84"/>
</a>
</g>
</g>
<!-- Node4&#45;&gt;Node5 -->
<g id="edge4_Node000004_Node000005" class="edge">
<title>Node4&#45;&gt;Node5</title>
<g id="a_edge4_Node000004_Node000005"><a xlink:title=" ">
<path fill="none" stroke="#63b8ff" d="M350.43,-127.38C315.22,-122.87 265.37,-116.36 221.75,-110.15 210.15,-108.49 197.74,-106.65 185.92,-104.85"/>
<polygon fill="#63b8ff" stroke="#63b8ff" points="349.92,-130.84 360.29,-128.63 350.81,-123.89 349.92,-130.84"/>
</a>
</g>
</g>
<!-- Node7 -->
<g id="Node000007" class="node">
<title>Node7</title>
<g id="a_Node000007"><a xlink:href="../../de/df0/_solver_8cpp_ad0f49408a26339b5f7043bf867c3fa8d.html#ad0f49408a26339b5f7043bf867c3fa8d" target="_top" xlink:title=" ">
<polygon fill="white" stroke="#666666" points="305.25,-30.77 222.5,-30.77 222.5,-11.52 305.25,-11.52 305.25,-30.77"/>
<text text-anchor="middle" x="263.88" y="-17.27" font-family="Helvetica,sans-Serif" font-size="10.00">Inviscid_Solver</text>
</a>
</g>
</g>
<!-- Node6&#45;&gt;Node7 -->
<g id="edge6_Node000006_Node000007" class="edge">
<title>Node6&#45;&gt;Node7</title>
<g id="a_edge6_Node000006_Node000007"><a xlink:title=" ">
<path fill="none" stroke="#63b8ff" d="M342.82,-20.55C330.45,-20.65 317.48,-20.75 305.74,-20.84"/>
<polygon fill="#63b8ff" stroke="#63b8ff" points="342.47,-24.06 352.45,-20.48 342.42,-17.06 342.47,-24.06"/>
</a>
</g>
</g>
<!-- Node6&#45;&gt;Node10 -->
<g id="edge10_Node000006_Node000010" class="edge">
<title>Node6&#45;&gt;Node10</title>
<g id="a_edge10_Node000006_Node000010"><a xlink:title=" ">
<path fill="none" stroke="#63b8ff" d="M350.68,-33.33C333.87,-38.19 315.12,-43.61 299.44,-48.15"/>
<polygon fill="#63b8ff" stroke="#63b8ff" points="351.3,-36.79 359.93,-30.65 349.36,-30.07 351.3,-36.79"/>
</a>
</g>
</g>
<!-- Node7&#45;&gt;Node5 -->
<g id="edge7_Node000007_Node000005" class="edge">
<title>Node7&#45;&gt;Node5</title>
<g id="a_edge7_Node000007_Node000005"><a xlink:title=" ">
<path fill="none" stroke="#63b8ff" d="M227.82,-36.07C225.75,-37.08 223.71,-38.11 221.75,-39.15 193.63,-53.97 162.56,-74.24 144.86,-86.19"/>
<polygon fill="#63b8ff" stroke="#63b8ff" points="229.27,-39.26 236.87,-31.87 226.33,-32.91 229.27,-39.26"/>
</a>
</g>
</g>
<!-- Node8 -->
<g id="Node000008" class="node">
<title>Node8</title>
<g id="a_Node000008"><a xlink:href="../../d5/d12/_main_8cpp_a35d775933750ace299102f06a1712663.html#a35d775933750ace299102f06a1712663" target="_top" xlink:title=" ">
<polygon fill="white" stroke="#666666" points="158,-49.77 100.75,-49.77 100.75,-30.52 158,-30.52 158,-49.77"/>
<text text-anchor="middle" x="129.38" y="-36.27" font-family="Helvetica,sans-Serif" font-size="10.00">runSolver</text>
</a>
</g>
</g>
<!-- Node7&#45;&gt;Node8 -->
<g id="edge8_Node000007_Node000008" class="edge">
<title>Node7&#45;&gt;Node8</title>
<g id="a_edge8_Node000007_Node000008"><a xlink:title=" ">
<path fill="none" stroke="#63b8ff" d="M210.83,-28.61C192.9,-31.18 173.53,-33.96 158.28,-36.15"/>
<polygon fill="#63b8ff" stroke="#63b8ff" points="211.14,-32.1 220.54,-27.22 210.15,-25.17 211.14,-32.1"/>
</a>
</g>
</g>
<!-- Node9 -->
<g id="Node000009" class="node">
<title>Node9</title>
<g id="a_Node000009"><a xlink:href="../../d5/d12/_main_8cpp_a0ddf1224851353fc92bfbff6f499fa97.html#a0ddf1224851353fc92bfbff6f499fa97" target="_top" xlink:title=" ">
<polygon fill="white" stroke="#666666" points="37,-49.77 0,-49.77 0,-30.52 37,-30.52 37,-49.77"/>
<text text-anchor="middle" x="18.5" y="-36.27" font-family="Helvetica,sans-Serif" font-size="10.00">main</text>
</a>
</g>
</g>
<!-- Node8&#45;&gt;Node9 -->
<g id="edge9_Node000008_Node000009" class="edge">
<title>Node8&#45;&gt;Node9</title>
<g id="a_edge9_Node000008_Node000009"><a xlink:title=" ">
<path fill="none" stroke="#63b8ff" d="M88.84,-40.15C71.14,-40.15 51.16,-40.15 37.22,-40.15"/>
<polygon fill="#63b8ff" stroke="#63b8ff" points="88.82,-43.65 98.82,-40.15 88.82,-36.65 88.82,-43.65"/>
</a>
</g>
</g>
<!-- Node10&#45;&gt;Node5 -->
<g id="edge11_Node000010_Node000005" class="edge">
<title>Node10&#45;&gt;Node5</title>
<g id="a_edge11_Node000010_Node000005"><a xlink:title=" ">
<path fill="none" stroke="#63b8ff" d="M216.91,-71.33C199.96,-76.19 181.05,-81.61 165.24,-86.15"/>
<polygon fill="#63b8ff" stroke="#63b8ff" points="217.61,-74.77 226.26,-68.65 215.68,-68.04 217.61,-74.77"/>
</a>
</g>
</g>
<!-- Node10&#45;&gt;Node8 -->
<g id="edge12_Node000010_Node000008" class="edge">
<title>Node10&#45;&gt;Node8</title>
<g id="a_edge12_Node000010_Node000008"><a xlink:title=" ">
<path fill="none" stroke="#63b8ff" d="M209.97,-50.96C192.33,-48.56 173.37,-45.99 158.38,-43.95"/>
<polygon fill="#63b8ff" stroke="#63b8ff" points="209.43,-54.42 219.81,-52.3 210.38,-47.48 209.43,-54.42"/>
</a>
</g>
</g>
<!-- Node11&#45;&gt;Node5 -->
<g id="edge16_Node000011_Node000005" class="edge">
<title>Node11&#45;&gt;Node5</title>
<g id="a_edge16_Node000011_Node000005"><a xlink:title=" ">
<path fill="none" stroke="#63b8ff" d="M330.54,-96.15C286.17,-96.15 228.24,-96.15 186.12,-96.15"/>
<polygon fill="#63b8ff" stroke="#63b8ff" points="330.29,-99.65 340.29,-96.15 330.29,-92.65 330.29,-99.65"/>
</a>
</g>
</g>
<!-- Node11&#45;&gt;Node7 -->
<g id="edge15_Node000011_Node000007" class="edge">
<title>Node11&#45;&gt;Node7</title>
<g id="a_edge15_Node000011_Node000007"><a xlink:title=" ">
<path fill="none" stroke="#63b8ff" d="M372.62,-79.84C354.74,-67.85 329.37,-51.55 306,-39.15 300.77,-36.37 295.02,-33.66 289.52,-31.21"/>
<polygon fill="#63b8ff" stroke="#63b8ff" points="370.47,-82.61 380.71,-85.32 374.39,-76.81 370.47,-82.61"/>
</a>
</g>
</g>
<!-- Node11&#45;&gt;Node10 -->
<g id="edge17_Node000011_Node000010" class="edge">
<title>Node11&#45;&gt;Node10</title>
<g id="a_edge17_Node000011_Node000010"><a xlink:title=" ">
<path fill="none" stroke="#63b8ff" d="M350.68,-82.97C333.87,-78.1 315.12,-72.68 299.44,-68.15"/>
<polygon fill="#63b8ff" stroke="#63b8ff" points="349.36,-86.23 359.93,-85.64 351.3,-79.5 349.36,-86.23"/>
</a>
</g>
</g>
<!-- Node13 -->
<g id="Node000013" class="node">
<title>Node13</title>
<g id="a_Node000013"><a xlink:href="../../d7/db1/_net___flux_8cpp_a4db2fe24c2a78f98ac91e9d7d271430f.html#a4db2fe24c2a78f98ac91e9d7d271430f" target="_top" xlink:title="Evaluates the net flux for each cell using a second&#45;order flux calculation method.">
<polygon fill="white" stroke="#666666" points="628.25,-86.77 488.5,-86.77 488.5,-67.52 628.25,-67.52 628.25,-86.77"/>
<text text-anchor="middle" x="558.38" y="-73.27" font-family="Helvetica,sans-Serif" font-size="10.00">Evaluate_Cell_Net_Flux_2O</text>
</a>
</g>
</g>
<!-- Node12&#45;&gt;Node13 -->
<g id="edge21_Node000012_Node000013" class="edge">
<title>Node12&#45;&gt;Node13</title>
<g id="a_edge21_Node000012_Node000013"><a xlink:title=" ">
<path fill="none" stroke="#63b8ff" d="M652.41,-89.54C644.69,-88.51 636.6,-87.43 628.54,-86.36"/>
<polygon fill="#63b8ff" stroke="#63b8ff" points="651.9,-93 662.28,-90.86 652.83,-86.07 651.9,-93"/>
</a>
</g>
</g>
<!-- Node13&#45;&gt;Node4 -->
<g id="edge22_Node000013_Node000004" class="edge">
<title>Node13&#45;&gt;Node4</title>
<g id="a_edge22_Node000013_Node000004"><a xlink:title=" ">
<path fill="none" stroke="#63b8ff" d="M519.49,-91.16C499.59,-98.44 474.78,-107.42 452.5,-115.15 444.91,-117.78 436.69,-120.55 429,-123.11"/>
<polygon fill="#63b8ff" stroke="#63b8ff" points="520.68,-94.45 528.86,-87.71 518.27,-87.88 520.68,-94.45"/>
</a>
</g>
</g>
<!-- Node13&#45;&gt;Node5 -->
<g id="edge24_Node000013_Node000005" class="edge">
<title>Node13&#45;&gt;Node5</title>
<g id="a_edge24_Node000013_Node000005"><a xlink:title=" ">
<path fill="none" stroke="#63b8ff" d="M540.08,-59.17C520.76,-40.52 487.58,-12.52 452.5,-1.15 445.42,1.15 223.11,-1.39 221.75,-2.15 195.57,-16.72 206.66,-37.69 185.75,-59.15 175.18,-69.99 160.93,-79.43 149.53,-86.06"/>
<polygon fill="#63b8ff" stroke="#63b8ff" points="537.53,-61.58 547.09,-66.16 542.47,-56.62 537.53,-61.58"/>
</a>
</g>
</g>
<!-- Node13&#45;&gt;Node6 -->
<g id="edge23_Node000013_Node000006" class="edge">
<title>Node13&#45;&gt;Node6</title>
<g id="a_edge23_Node000013_Node000006"><a xlink:title=" ">
<path fill="none" stroke="#63b8ff" d="M518.49,-63.22C489.97,-53 451.91,-39.37 426.32,-30.2"/>
<polygon fill="#63b8ff" stroke="#63b8ff" points="517.27,-66.5 527.87,-66.58 519.63,-59.91 517.27,-66.5"/>
</a>
</g>
</g>
<!-- Node13&#45;&gt;Node10 -->
<g id="edge26_Node000013_Node000010" class="edge">
<title>Node13&#45;&gt;Node10</title>
<g id="a_edge26_Node000013_Node000010"><a xlink:title=" ">
<path fill="none" stroke="#63b8ff" d="M476.86,-71.92C421.53,-68.32 350.34,-63.7 306.16,-60.83"/>
<polygon fill="#63b8ff" stroke="#63b8ff" points="476.34,-75.39 486.55,-72.55 476.79,-68.41 476.34,-75.39"/>
</a>
</g>
</g>
<!-- Node13&#45;&gt;Node11 -->
<g id="edge25_Node000013_Node000011" class="edge">
<title>Node13&#45;&gt;Node11</title>
<g id="a_edge25_Node000013_Node000011"><a xlink:title=" ">
<path fill="none" stroke="#63b8ff" d="M476.84,-86.76C468.6,-87.75 460.38,-88.73 452.52,-89.67"/>
<polygon fill="#63b8ff" stroke="#63b8ff" points="477.03,-90.27 486.54,-85.61 476.2,-83.32 477.03,-90.27"/>
</a>
</g>
</g>
</g>
</svg>
