<?xml version="1.0" encoding="UTF-8" standalone="no"?>
<!DOCTYPE svg PUBLIC "-//W3C//DTD SVG 1.1//EN"
 "http://www.w3.org/Graphics/SVG/1.1/DTD/svg11.dtd">
<!-- Generated by graphviz version 12.2.1 (20241206.2353)
 -->
<!-- Title: max Pages: 1 -->
<svg width="1103pt" height="602pt"
 viewBox="0.00 0.00 1102.75 602.00" xmlns="http://www.w3.org/2000/svg" xmlns:xlink="http://www.w3.org/1999/xlink">
<g id="graph0" class="graph" transform="scale(1 1) rotate(0) translate(4 598)">
<title>max</title>
<!-- Node1 -->
<g id="Node000001" class="node">
<title>Node1</title>
<g id="a_Node000001"><a xlink:title=" ">
<polygon fill="#999999" stroke="#666666" points="1094.75,-159.88 1060,-159.88 1060,-140.62 1094.75,-140.62 1094.75,-159.88"/>
<text text-anchor="middle" x="1077.38" y="-146.38" font-family="Helvetica,sans-Serif" font-size="10.00">max</text>
</a>
</g>
</g>
<!-- Node2 -->
<g id="Node000002" class="node">
<title>Node2</title>
<g id="a_Node000002"><a xlink:href="../../d6/d22/_r_i_c_c_a_8cpp_aed1d8bf7f1afd6d7e89c781f4922d05c.html#aed1d8bf7f1afd6d7e89c781f4922d05c" target="_top" xlink:title="Computes the Alpha parameter for the RICCA condition based on input variables.">
<polygon fill="white" stroke="#666666" points="1015.75,-424.88 901.5,-424.88 901.5,-405.62 1015.75,-405.62 1015.75,-424.88"/>
<text text-anchor="middle" x="958.62" y="-411.38" font-family="Helvetica,sans-Serif" font-size="10.00">Condition_For_RICCA</text>
</a>
</g>
</g>
<!-- Node1&#45;&gt;Node2 -->
<g id="edge1_Node000001_Node000002" class="edge">
<title>Node1&#45;&gt;Node2</title>
<g id="a_edge1_Node000001_Node000002"><a xlink:title=" ">
<path fill="none" stroke="#63b8ff" d="M1067.3,-170.85C1043.74,-224.33 981.26,-366.13 964.06,-405.18"/>
<polygon fill="#63b8ff" stroke="#63b8ff" points="1070.5,-172.26 1071.33,-161.7 1064.1,-169.44 1070.5,-172.26"/>
</a>
</g>
</g>
<!-- Node14 -->
<g id="Node000014" class="node">
<title>Node14</title>
<g id="a_Node000014"><a xlink:href="../../dd/d6e/_source_8cpp_a63eb81f73cb26aea03f6f9c045ff5a09.html#a63eb81f73cb26aea03f6f9c045ff5a09" target="_top" xlink:title=" ">
<polygon fill="white" stroke="#666666" points="1024,-178.88 893.25,-178.88 893.25,-159.62 1024,-159.62 1024,-178.88"/>
<text text-anchor="middle" x="958.62" y="-165.38" font-family="Helvetica,sans-Serif" font-size="10.00">Gas_Convergence_Check</text>
</a>
</g>
</g>
<!-- Node1&#45;&gt;Node14 -->
<g id="edge26_Node000001_Node000014" class="edge">
<title>Node1&#45;&gt;Node14</title>
<g id="a_edge26_Node000001_Node000014"><a xlink:title=" ">
<path fill="none" stroke="#63b8ff" d="M1048.56,-154.78C1040.37,-156.11 1031.06,-157.62 1021.62,-159.16"/>
<polygon fill="#63b8ff" stroke="#63b8ff" points="1048.85,-158.28 1058.15,-153.22 1047.72,-151.37 1048.85,-158.28"/>
</a>
</g>
</g>
<!-- Node17 -->
<g id="Node000017" class="node">
<title>Node17</title>
<g id="a_Node000017"><a xlink:href="../../d0/ded/_read___gmsh___file_8cpp_af431b1d80abfe99d04add2b224fd3262.html#af431b1d80abfe99d04add2b224fd3262" target="_top" xlink:title=" ">
<polygon fill="white" stroke="#666666" points="1008.25,-141.88 909,-141.88 909,-122.62 1008.25,-122.62 1008.25,-141.88"/>
<text text-anchor="middle" x="958.62" y="-128.38" font-family="Helvetica,sans-Serif" font-size="10.00">Identify_ParentCell</text>
</a>
</g>
</g>
<!-- Node1&#45;&gt;Node17 -->
<g id="edge29_Node000001_Node000017" class="edge">
<title>Node1&#45;&gt;Node17</title>
<g id="a_edge29_Node000001_Node000017"><a xlink:title=" ">
<path fill="none" stroke="#63b8ff" d="M1048.6,-145.97C1036.64,-144.12 1022.28,-141.91 1008.64,-139.81"/>
<polygon fill="#63b8ff" stroke="#63b8ff" points="1047.74,-149.38 1058.15,-147.44 1048.8,-142.46 1047.74,-149.38"/>
</a>
</g>
</g>
<!-- Node18 -->
<g id="Node000018" class="node">
<title>Node18</title>
<g id="a_Node000018"><a xlink:href="../../d5/d73/_find___only_quads___neighbours_8cpp_a823e401cbfb06991f52bf5824d012da1.html#a823e401cbfb06991f52bf5824d012da1" target="_top" xlink:title=" ">
<polygon fill="white" stroke="#666666" points="1014.25,-104.88 903,-104.88 903,-85.62 1014.25,-85.62 1014.25,-104.88"/>
<text text-anchor="middle" x="958.62" y="-91.38" font-family="Helvetica,sans-Serif" font-size="10.00">identifyBoundaryCells</text>
</a>
</g>
</g>
<!-- Node1&#45;&gt;Node18 -->
<g id="edge30_Node000001_Node000018" class="edge">
<title>Node1&#45;&gt;Node18</title>
<g id="a_edge30_Node000001_Node000018"><a xlink:title=" ">
<path fill="none" stroke="#63b8ff" d="M1055.82,-133.26C1046.56,-126.26 1035.19,-118.57 1024,-113.25 1017.5,-110.16 1010.38,-107.51 1003.31,-105.27"/>
<polygon fill="#63b8ff" stroke="#63b8ff" points="1053.41,-135.81 1063.44,-139.23 1057.73,-130.3 1053.41,-135.81"/>
</a>
</g>
</g>
<!-- Node20 -->
<g id="Node000020" class="node">
<title>Node20</title>
<g id="a_Node000020"><a xlink:href="../../d6/dd0/_find___only_quads___neighbours__1_8cpp_a163df0334d6ded76c435b1850053e537.html#a163df0334d6ded76c435b1850053e537" target="_top" xlink:title=" ">
<polygon fill="white" stroke="#666666" points="1014.25,-67.88 903,-67.88 903,-48.62 1014.25,-48.62 1014.25,-67.88"/>
<text text-anchor="middle" x="958.62" y="-54.38" font-family="Helvetica,sans-Serif" font-size="10.00">identifyBoundaryCells</text>
</a>
</g>
</g>
<!-- Node1&#45;&gt;Node20 -->
<g id="edge32_Node000001_Node000020" class="edge">
<title>Node1&#45;&gt;Node20</title>
<g id="a_edge32_Node000001_Node000020"><a xlink:title=" ">
<path fill="none" stroke="#63b8ff" d="M1067.11,-130.28C1058.31,-113.46 1043.53,-90.01 1024,-76.25 1019.54,-73.11 1014.55,-70.51 1009.37,-68.37"/>
<polygon fill="#63b8ff" stroke="#63b8ff" points="1063.77,-131.43 1071.35,-138.84 1070.05,-128.33 1063.77,-131.43"/>
</a>
</g>
</g>
<!-- Node22 -->
<g id="Node000022" class="node">
<title>Node22</title>
<g id="a_Node000022"><a xlink:href="../../d2/dec/_parallel___net___flux___evaluation_8cpp_a6e8c2c479b19bc33170be3295e64dbf3.html#a6e8c2c479b19bc33170be3295e64dbf3" target="_top" xlink:title=" ">
<polygon fill="white" stroke="#666666" points="992.88,-27.88 924.38,-27.88 924.38,-8.62 992.88,-8.62 992.88,-27.88"/>
<text text-anchor="middle" x="958.62" y="-14.38" font-family="Helvetica,sans-Serif" font-size="10.00">LLF_Device</text>
</a>
</g>
</g>
<!-- Node1&#45;&gt;Node22 -->
<g id="edge34_Node000001_Node000022" class="edge">
<title>Node1&#45;&gt;Node22</title>
<g id="a_edge34_Node000001_Node000022"><a xlink:title=" ">
<path fill="none" stroke="#63b8ff" d="M1071.84,-129.3C1065.39,-104.41 1051.21,-63.24 1024,-39.25 1015.36,-31.63 1003.9,-26.77 993.05,-23.67"/>
<polygon fill="#63b8ff" stroke="#63b8ff" points="1068.4,-129.97 1074.12,-138.89 1075.21,-128.35 1068.4,-129.97"/>
</a>
</g>
</g>
<!-- Node26 -->
<g id="Node000026" class="node">
<title>Node26</title>
<g id="a_Node000026"><a xlink:href="../../d8/dec/_time___step_8cpp_a36c2de590bd3f96d1bda12574ab41343.html#a36c2de590bd3f96d1bda12574ab41343" target="_top" xlink:title=" ">
<polygon fill="white" stroke="#666666" points="1015.75,-252.88 901.5,-252.88 901.5,-233.62 1015.75,-233.62 1015.75,-252.88"/>
<text text-anchor="middle" x="958.62" y="-239.38" font-family="Helvetica,sans-Serif" font-size="10.00">Viscous_Time_Step_1</text>
</a>
</g>
</g>
<!-- Node1&#45;&gt;Node26 -->
<g id="edge38_Node000001_Node000026" class="edge">
<title>Node1&#45;&gt;Node26</title>
<g id="a_edge38_Node000001_Node000026"><a xlink:title=" ">
<path fill="none" stroke="#63b8ff" d="M1067.31,-170.22C1058.57,-187.28 1043.76,-211.23 1024,-225.25 1019.55,-228.41 1014.57,-231.01 1009.39,-233.16"/>
<polygon fill="#63b8ff" stroke="#63b8ff" points="1070.31,-172.06 1071.51,-161.54 1064.01,-169.01 1070.31,-172.06"/>
</a>
</g>
</g>
<!-- Node29 -->
<g id="Node000029" class="node">
<title>Node29</title>
<g id="a_Node000029"><a xlink:href="../../d8/dec/_time___step_8cpp_aae9689c4164406f72554331b4c337962.html#aae9689c4164406f72554331b4c337962" target="_top" xlink:title=" ">
<polygon fill="white" stroke="#666666" points="1015.75,-215.88 901.5,-215.88 901.5,-196.62 1015.75,-196.62 1015.75,-215.88"/>
<text text-anchor="middle" x="958.62" y="-202.38" font-family="Helvetica,sans-Serif" font-size="10.00">Viscous_Time_Step_2</text>
</a>
</g>
</g>
<!-- Node1&#45;&gt;Node29 -->
<g id="edge48_Node000001_Node000029" class="edge">
<title>Node1&#45;&gt;Node29</title>
<g id="a_edge48_Node000001_Node000029"><a xlink:title=" ">
<path fill="none" stroke="#63b8ff" d="M1056.26,-167.44C1046.94,-174.7 1035.41,-182.74 1024,-188.25 1017.63,-191.33 1010.63,-193.96 1003.68,-196.19"/>
<polygon fill="#63b8ff" stroke="#63b8ff" points="1058.34,-170.26 1063.9,-161.24 1053.93,-164.82 1058.34,-170.26"/>
</a>
</g>
</g>
<!-- Node3 -->
<g id="Node000003" class="node">
<title>Node3</title>
<g id="a_Node000003"><a xlink:href="../../d6/d22/_r_i_c_c_a_8cpp_a6fba3f461237dd1fd4ba27d9504681e2.html#a6fba3f461237dd1fd4ba27d9504681e2" target="_top" xlink:title="Computes the dissipative flux for a given cell and face using the RICCA method.">
<polygon fill="white" stroke="#666666" points="828,-424.88 779.75,-424.88 779.75,-405.62 828,-405.62 828,-424.88"/>
<text text-anchor="middle" x="803.88" y="-411.38" font-family="Helvetica,sans-Serif" font-size="10.00">RICCA</text>
</a>
</g>
</g>
<!-- Node2&#45;&gt;Node3 -->
<g id="edge2_Node000002_Node000003" class="edge">
<title>Node2&#45;&gt;Node3</title>
<g id="a_edge2_Node000002_Node000003"><a xlink:title=" ">
<path fill="none" stroke="#63b8ff" d="M889.81,-415.25C867.83,-415.25 844.89,-415.25 828.4,-415.25"/>
<polygon fill="#63b8ff" stroke="#63b8ff" points="889.67,-418.75 899.67,-415.25 889.67,-411.75 889.67,-418.75"/>
</a>
</g>
</g>
<!-- Node12 -->
<g id="Node000012" class="node">
<title>Node12</title>
<g id="a_Node000012"><a xlink:href="../../d6/d22/_r_i_c_c_a_8cpp_a8c2c0508c9bf49dfb9aab35d82f560ce.html#a8c2c0508c9bf49dfb9aab35d82f560ce" target="_top" xlink:title="Computes the dissipative flux for a given cell and face using the second&#45;order RICCA method.">
<polygon fill="white" stroke="#666666" points="837,-500.88 770.75,-500.88 770.75,-481.62 837,-481.62 837,-500.88"/>
<text text-anchor="middle" x="803.88" y="-487.38" font-family="Helvetica,sans-Serif" font-size="10.00">RICCA_2O</text>
</a>
</g>
</g>
<!-- Node2&#45;&gt;Node12 -->
<g id="edge19_Node000002_Node000012" class="edge">
<title>Node2&#45;&gt;Node12</title>
<g id="a_edge19_Node000002_Node000012"><a xlink:title=" ">
<path fill="none" stroke="#63b8ff" d="M927.28,-430.35C896.84,-445.49 850.83,-468.38 824.76,-481.36"/>
<polygon fill="#63b8ff" stroke="#63b8ff" points="928.59,-433.6 935.99,-426.02 925.47,-427.34 928.59,-433.6"/>
</a>
</g>
</g>
<!-- Node4 -->
<g id="Node000004" class="node">
<title>Node4</title>
<g id="a_Node000004"><a xlink:href="../../d9/ddd/_c_u_d_a___integrated___numerical___method_8cpp_ad25c9a53b380204dd243bc1351d6b098.html#ad25c9a53b380204dd243bc1351d6b098" target="_top" xlink:title=" ">
<polygon fill="white" stroke="#666666" points="705.12,-424.88 565.38,-424.88 565.38,-405.62 705.12,-405.62 705.12,-424.88"/>
<text text-anchor="middle" x="635.25" y="-411.38" font-family="Helvetica,sans-Serif" font-size="10.00">Evaluate_Cell_Net_Flux_1O</text>
</a>
</g>
</g>
<!-- Node3&#45;&gt;Node4 -->
<g id="edge3_Node000003_Node000004" class="edge">
<title>Node3&#45;&gt;Node4</title>
<g id="a_edge3_Node000003_Node000004"><a xlink:title=" ">
<path fill="none" stroke="#63b8ff" d="M767.89,-415.25C749.73,-415.25 726.9,-415.25 705.38,-415.25"/>
<polygon fill="#63b8ff" stroke="#63b8ff" points="767.84,-418.75 777.84,-415.25 767.84,-411.75 767.84,-418.75"/>
</a>
</g>
</g>
<!-- Node5 -->
<g id="Node000005" class="node">
<title>Node5</title>
<g id="a_Node000005"><a xlink:href="../../d0/d64/_numerical___method_8cpp_a8dda0c7e17babab9b6e49e8e199dc30e.html#a8dda0c7e17babab9b6e49e8e199dc30e" target="_top" xlink:title=" ">
<polygon fill="white" stroke="#666666" points="367.12,-462.88 281.38,-462.88 281.38,-443.62 367.12,-443.62 367.12,-462.88"/>
<text text-anchor="middle" x="324.25" y="-449.38" font-family="Helvetica,sans-Serif" font-size="10.00">Explicit_Method</text>
</a>
</g>
</g>
<!-- Node4&#45;&gt;Node5 -->
<g id="edge4_Node000004_Node000005" class="edge">
<title>Node4&#45;&gt;Node5</title>
<g id="a_edge4_Node000004_Node000005"><a xlink:title=" ">
<path fill="none" stroke="#63b8ff" d="M553.62,-425.17C493.92,-432.51 414.99,-442.21 367.29,-448.08"/>
<polygon fill="#63b8ff" stroke="#63b8ff" points="553.9,-428.66 563.4,-423.96 553.05,-421.71 553.9,-428.66"/>
</a>
</g>
</g>
<!-- Node7 -->
<g id="Node000007" class="node">
<title>Node7</title>
<g id="a_Node000007"><a xlink:href="../../dd/dbf/_euler___python___wrapper_8cpp_ac5ccb50c3be270f798e054dd36987442.html#ac5ccb50c3be270f798e054dd36987442" target="_top" xlink:title=" ">
<polygon fill="white" stroke="#666666" points="112.75,-367.88 0,-367.88 0,-348.62 112.75,-348.62 112.75,-367.88"/>
<text text-anchor="middle" x="56.38" y="-354.38" font-family="Helvetica,sans-Serif" font-size="10.00">PYBIND11_MODULE</text>
</a>
</g>
</g>
<!-- Node4&#45;&gt;Node7 -->
<g id="edge13_Node000004_Node000007" class="edge">
<title>Node4&#45;&gt;Node7</title>
<g id="a_edge13_Node000004_Node000007"><a xlink:title=" ">
<path fill="none" stroke="#63b8ff" d="M564.5,-403.31C513.41,-394.94 442.32,-384.07 379.5,-377.25 314.62,-370.21 298.15,-371.14 233,-367.25 192.92,-364.86 147.68,-362.55 113.15,-360.87"/>
<polygon fill="#63b8ff" stroke="#63b8ff" points="563.81,-406.74 574.24,-404.92 564.95,-399.83 563.81,-406.74"/>
</a>
</g>
</g>
<!-- Node9 -->
<g id="Node000009" class="node">
<title>Node9</title>
<g id="a_Node000009"><a xlink:href="../../de/df0/_solver_8cpp_a2f37f06e8324a1ed6aa99efdbba81865.html#a2f37f06e8324a1ed6aa99efdbba81865" target="_top" xlink:title=" ">
<polygon fill="white" stroke="#666666" points="233,-462.88 148.75,-462.88 148.75,-443.62 233,-443.62 233,-462.88"/>
<text text-anchor="middle" x="190.88" y="-449.38" font-family="Helvetica,sans-Serif" font-size="10.00">Viscous_Solver</text>
</a>
</g>
</g>
<!-- Node4&#45;&gt;Node9 -->
<g id="edge18_Node000004_Node000009" class="edge">
<title>Node4&#45;&gt;Node9</title>
<g id="a_edge18_Node000004_Node000009"><a xlink:title=" ">
<path fill="none" stroke="#63b8ff" d="M619.29,-433.89C599.45,-456.97 562.01,-495.07 520,-510.25 407.71,-550.84 263.08,-488.86 211.34,-463.37"/>
<polygon fill="#63b8ff" stroke="#63b8ff" points="621.77,-436.39 625.49,-426.47 616.39,-431.91 621.77,-436.39"/>
</a>
</g>
</g>
<!-- Node10 -->
<g id="Node000010" class="node">
<title>Node10</title>
<g id="a_Node000010"><a xlink:href="../../db/d38/_parallel___numerical___method_8cpp_a263f3c36336c227c44f052b2ad122253.html#a263f3c36336c227c44f052b2ad122253" target="_top" xlink:title=" ">
<polygon fill="white" stroke="#666666" points="516.62,-500.88 418.88,-500.88 418.88,-481.62 516.62,-481.62 516.62,-500.88"/>
<text text-anchor="middle" x="467.75" y="-487.38" font-family="Helvetica,sans-Serif" font-size="10.00">PrecomputeFluxes</text>
</a>
</g>
</g>
<!-- Node4&#45;&gt;Node10 -->
<g id="edge11_Node000004_Node000010" class="edge">
<title>Node4&#45;&gt;Node10</title>
<g id="a_edge11_Node000004_Node000010"><a xlink:title=" ">
<path fill="none" stroke="#63b8ff" d="M601.83,-430.14C568.96,-445.23 518.99,-468.18 490.55,-481.24"/>
<polygon fill="#63b8ff" stroke="#63b8ff" points="603.27,-433.33 610.9,-425.97 600.35,-426.97 603.27,-433.33"/>
</a>
</g>
</g>
<!-- Node11 -->
<g id="Node000011" class="node">
<title>Node11</title>
<g id="a_Node000011"><a xlink:href="../../de/d22/_cuda___parallel___r_k_8cpp_a794f030971fbb7c9dd4bc08df03f50f1.html#a794f030971fbb7c9dd4bc08df03f50f1" target="_top" xlink:title=" ">
<polygon fill="white" stroke="#666666" points="379.5,-405.88 269,-405.88 269,-386.62 379.5,-386.62 379.5,-405.88"/>
<text text-anchor="middle" x="324.25" y="-392.38" font-family="Helvetica,sans-Serif" font-size="10.00">Runge_Kutta_Method</text>
</a>
</g>
</g>
<!-- Node4&#45;&gt;Node11 -->
<g id="edge14_Node000004_Node000011" class="edge">
<title>Node4&#45;&gt;Node11</title>
<g id="a_edge14_Node000004_Node000011"><a xlink:title=" ">
<path fill="none" stroke="#63b8ff" d="M553.5,-410.28C498.86,-406.92 428.13,-402.58 379.98,-399.62"/>
<polygon fill="#63b8ff" stroke="#63b8ff" points="553.2,-413.77 563.39,-410.89 553.63,-406.79 553.2,-413.77"/>
</a>
</g>
</g>
<!-- Node6 -->
<g id="Node000006" class="node">
<title>Node6</title>
<g id="a_Node000006"><a xlink:href="../../de/df0/_solver_8cpp_ad0f49408a26339b5f7043bf867c3fa8d.html#ad0f49408a26339b5f7043bf867c3fa8d" target="_top" xlink:title=" ">
<polygon fill="white" stroke="#666666" points="232.25,-424.88 149.5,-424.88 149.5,-405.62 232.25,-405.62 232.25,-424.88"/>
<text text-anchor="middle" x="190.88" y="-411.38" font-family="Helvetica,sans-Serif" font-size="10.00">Inviscid_Solver</text>
</a>
</g>
</g>
<!-- Node5&#45;&gt;Node6 -->
<g id="edge5_Node000005_Node000006" class="edge">
<title>Node5&#45;&gt;Node6</title>
<g id="a_edge5_Node000005_Node000006"><a xlink:title=" ">
<path fill="none" stroke="#63b8ff" d="M277.68,-440.07C260.87,-435.21 242.12,-429.78 226.44,-425.25"/>
<polygon fill="#63b8ff" stroke="#63b8ff" points="276.36,-443.33 286.93,-442.75 278.3,-436.61 276.36,-443.33"/>
</a>
</g>
</g>
<!-- Node5&#45;&gt;Node9 -->
<g id="edge8_Node000005_Node000009" class="edge">
<title>Node5&#45;&gt;Node9</title>
<g id="a_edge8_Node000005_Node000009"><a xlink:title=" ">
<path fill="none" stroke="#63b8ff" d="M269.55,-453.25C257.42,-453.25 244.72,-453.25 233.19,-453.25"/>
<polygon fill="#63b8ff" stroke="#63b8ff" points="269.45,-456.75 279.45,-453.25 269.45,-449.75 269.45,-456.75"/>
</a>
</g>
</g>
<!-- Node6&#45;&gt;Node7 -->
<g id="edge6_Node000006_Node000007" class="edge">
<title>Node6&#45;&gt;Node7</title>
<g id="a_edge6_Node000006_Node000007"><a xlink:title=" ">
<path fill="none" stroke="#63b8ff" d="M156.2,-400.76C132.52,-390.58 101.45,-377.21 80.52,-368.21"/>
<polygon fill="#63b8ff" stroke="#63b8ff" points="154.53,-403.86 165.1,-404.59 157.3,-397.43 154.53,-403.86"/>
</a>
</g>
</g>
<!-- Node8 -->
<g id="Node000008" class="node">
<title>Node8</title>
<g id="a_Node000008"><a xlink:href="../../d5/d12/_main_8cpp_a35d775933750ace299102f06a1712663.html#a35d775933750ace299102f06a1712663" target="_top" xlink:title="Executes the appropriate solver based on the simulation configuration.">
<polygon fill="white" stroke="#666666" points="85,-443.88 27.75,-443.88 27.75,-424.62 85,-424.62 85,-443.88"/>
<text text-anchor="middle" x="56.38" y="-430.38" font-family="Helvetica,sans-Serif" font-size="10.00">runSolver</text>
</a>
</g>
</g>
<!-- Node6&#45;&gt;Node8 -->
<g id="edge7_Node000006_Node000008" class="edge">
<title>Node6&#45;&gt;Node8</title>
<g id="a_edge7_Node000006_Node000008"><a xlink:title=" ">
<path fill="none" stroke="#63b8ff" d="M137.83,-422.71C119.9,-425.28 100.53,-428.06 85.28,-430.25"/>
<polygon fill="#63b8ff" stroke="#63b8ff" points="138.14,-426.2 147.54,-421.32 137.15,-419.28 138.14,-426.2"/>
</a>
</g>
</g>
<!-- Node9&#45;&gt;Node7 -->
<g id="edge9_Node000009_Node000007" class="edge">
<title>Node9&#45;&gt;Node7</title>
<g id="a_edge9_Node000009_Node000007"><a xlink:title=" ">
<path fill="none" stroke="#63b8ff" d="M155.34,-438.12C153.07,-436.87 150.86,-435.58 148.75,-434.25 116.82,-414.09 83.85,-383.91 67.64,-368.35"/>
<polygon fill="#63b8ff" stroke="#63b8ff" points="153.55,-441.13 164.05,-442.53 156.71,-434.89 153.55,-441.13"/>
</a>
</g>
</g>
<!-- Node9&#45;&gt;Node8 -->
<g id="edge10_Node000009_Node000008" class="edge">
<title>Node9&#45;&gt;Node8</title>
<g id="a_edge10_Node000009_Node000008"><a xlink:title=" ">
<path fill="none" stroke="#63b8ff" d="M136.97,-445.66C119.33,-443.13 100.37,-440.42 85.38,-438.27"/>
<polygon fill="#63b8ff" stroke="#63b8ff" points="136.42,-449.12 146.82,-447.08 137.41,-442.19 136.42,-449.12"/>
</a>
</g>
</g>
<!-- Node10&#45;&gt;Node5 -->
<g id="edge12_Node000010_Node000005" class="edge">
<title>Node10&#45;&gt;Node5</title>
<g id="a_edge12_Node000010_Node000005"><a xlink:title=" ">
<path fill="none" stroke="#63b8ff" d="M418.18,-478.21C399.95,-473.31 379.53,-467.83 362.48,-463.25"/>
<polygon fill="#63b8ff" stroke="#63b8ff" points="417.17,-481.56 427.74,-480.77 418.99,-474.8 417.17,-481.56"/>
</a>
</g>
</g>
<!-- Node11&#45;&gt;Node6 -->
<g id="edge15_Node000011_Node000006" class="edge">
<title>Node11&#45;&gt;Node6</title>
<g id="a_edge15_Node000011_Node000006"><a xlink:title=" ">
<path fill="none" stroke="#63b8ff" d="M257.5,-405.76C248.96,-406.99 240.42,-408.23 232.46,-409.38"/>
<polygon fill="#63b8ff" stroke="#63b8ff" points="257.78,-409.25 267.18,-404.36 256.78,-402.33 257.78,-409.25"/>
</a>
</g>
</g>
<!-- Node11&#45;&gt;Node7 -->
<g id="edge16_Node000011_Node000007" class="edge">
<title>Node11&#45;&gt;Node7</title>
<g id="a_edge16_Node000011_Node000007"><a xlink:title=" ">
<path fill="none" stroke="#63b8ff" d="M257.54,-386.86C213.17,-380.52 155.24,-372.24 113.12,-366.22"/>
<polygon fill="#63b8ff" stroke="#63b8ff" points="256.91,-390.3 267.31,-388.25 257.9,-383.37 256.91,-390.3"/>
</a>
</g>
</g>
<!-- Node11&#45;&gt;Node9 -->
<g id="edge17_Node000011_Node000009" class="edge">
<title>Node11&#45;&gt;Node9</title>
<g id="a_edge17_Node000011_Node000009"><a xlink:title=" ">
<path fill="none" stroke="#63b8ff" d="M289.54,-410.88C266.1,-421.04 235.48,-434.33 214.83,-443.29"/>
<polygon fill="#63b8ff" stroke="#63b8ff" points="290.9,-414.1 298.68,-406.91 288.11,-407.68 290.9,-414.1"/>
</a>
</g>
</g>
<!-- Node13 -->
<g id="Node000013" class="node">
<title>Node13</title>
<g id="a_Node000013"><a xlink:href="../../d9/ddd/_c_u_d_a___integrated___numerical___method_8cpp_a4db2fe24c2a78f98ac91e9d7d271430f.html#a4db2fe24c2a78f98ac91e9d7d271430f" target="_top" xlink:title=" ">
<polygon fill="white" stroke="#666666" points="705.12,-538.88 565.38,-538.88 565.38,-519.62 705.12,-519.62 705.12,-538.88"/>
<text text-anchor="middle" x="635.25" y="-525.38" font-family="Helvetica,sans-Serif" font-size="10.00">Evaluate_Cell_Net_Flux_2O</text>
</a>
</g>
</g>
<!-- Node12&#45;&gt;Node13 -->
<g id="edge20_Node000012_Node000013" class="edge">
<title>Node12&#45;&gt;Node13</title>
<g id="a_edge20_Node000012_Node000013"><a xlink:title=" ">
<path fill="none" stroke="#63b8ff" d="M759.29,-501.19C734.97,-506.74 704.76,-513.63 680.35,-519.19"/>
<polygon fill="#63b8ff" stroke="#63b8ff" points="759.91,-504.64 768.88,-499 758.35,-497.81 759.91,-504.64"/>
</a>
</g>
</g>
<!-- Node13&#45;&gt;Node5 -->
<g id="edge21_Node000013_Node000005" class="edge">
<title>Node13&#45;&gt;Node5</title>
<g id="a_edge21_Node000013_Node000005"><a xlink:title=" ">
<path fill="none" stroke="#63b8ff" d="M592.99,-542.39C547.64,-554.49 473.53,-567.24 415.5,-543.25 375.62,-526.77 344.13,-483.17 331.39,-463.34"/>
<polygon fill="#63b8ff" stroke="#63b8ff" points="593.72,-545.82 602.41,-539.76 591.84,-539.08 593.72,-545.82"/>
</a>
</g>
</g>
<!-- Node13&#45;&gt;Node7 -->
<g id="edge23_Node000013_Node000007" class="edge">
<title>Node13&#45;&gt;Node7</title>
<g id="a_edge23_Node000013_Node000007"><a xlink:title=" ">
<path fill="none" stroke="#63b8ff" d="M608.23,-545C585.78,-557.61 551.99,-574.31 520,-581.25 410.25,-605.05 372.81,-595.07 269,-552.25 209.66,-527.77 193.6,-518.18 148.75,-472.25 127.82,-450.81 131.29,-438.79 112.75,-415.25 98.75,-397.47 79.96,-379.08 68.27,-368.16"/>
<polygon fill="#63b8ff" stroke="#63b8ff" points="609.77,-548.15 616.69,-540.12 606.28,-542.08 609.77,-548.15"/>
</a>
</g>
</g>
<!-- Node13&#45;&gt;Node9 -->
<g id="edge25_Node000013_Node000009" class="edge">
<title>Node13&#45;&gt;Node9</title>
<g id="a_edge25_Node000013_Node000009"><a xlink:title=" ">
<path fill="none" stroke="#63b8ff" d="M598.73,-543.12C576.5,-551.05 547.03,-560.2 520,-564.25 474.07,-571.13 461.41,-571.29 415.5,-564.25 348.04,-553.91 328.82,-551.1 269,-518.25 241.37,-503.08 214.47,-477.11 200.93,-463.02"/>
<polygon fill="#63b8ff" stroke="#63b8ff" points="599.73,-546.48 607.92,-539.76 597.32,-539.91 599.73,-546.48"/>
</a>
</g>
</g>
<!-- Node13&#45;&gt;Node10 -->
<g id="edge22_Node000013_Node000010" class="edge">
<title>Node13&#45;&gt;Node10</title>
<g id="a_edge22_Node000013_Node000010"><a xlink:title=" ">
<path fill="none" stroke="#63b8ff" d="M579.29,-516.63C557.61,-511.65 533.04,-506.01 512.58,-501.31"/>
<polygon fill="#63b8ff" stroke="#63b8ff" points="578.33,-520 588.86,-518.83 579.9,-513.18 578.33,-520"/>
</a>
</g>
</g>
<!-- Node13&#45;&gt;Node11 -->
<g id="edge24_Node000013_Node000011" class="edge">
<title>Node13&#45;&gt;Node11</title>
<g id="a_edge24_Node000013_Node000011"><a xlink:title=" ">
<path fill="none" stroke="#63b8ff" d="M561.74,-540.25C515.92,-543.28 457.63,-539.54 415.5,-510.25 384.81,-488.91 403.61,-462.81 379.5,-434.25 369.78,-422.74 355.81,-413.06 344.47,-406.35"/>
<polygon fill="#63b8ff" stroke="#63b8ff" points="561.91,-543.74 571.6,-539.46 561.35,-536.77 561.91,-543.74"/>
</a>
</g>
</g>
<!-- Node15 -->
<g id="Node000015" class="node">
<title>Node15</title>
<g id="a_Node000015"><a xlink:href="../../dd/d6e/_source_8cpp_a34dfb56cd801d13acca6ea57783ab2af.html#a34dfb56cd801d13acca6ea57783ab2af" target="_top" xlink:title=" ">
<polygon fill="white" stroke="#666666" points="853.88,-158.88 753.88,-158.88 753.88,-139.62 853.88,-139.62 853.88,-158.88"/>
<text text-anchor="middle" x="803.88" y="-145.38" font-family="Helvetica,sans-Serif" font-size="10.00">Gas_Phase_Solver</text>
</a>
</g>
</g>
<!-- Node14&#45;&gt;Node15 -->
<g id="edge27_Node000014_Node000015" class="edge">
<title>Node14&#45;&gt;Node15</title>
<g id="a_edge27_Node000014_Node000015"><a xlink:title=" ">
<path fill="none" stroke="#63b8ff" d="M881.49,-159.28C872.14,-158.06 862.79,-156.83 853.99,-155.68"/>
<polygon fill="#63b8ff" stroke="#63b8ff" points="880.97,-162.74 891.34,-160.57 881.88,-155.8 880.97,-162.74"/>
</a>
</g>
</g>
<!-- Node16 -->
<g id="Node000016" class="node">
<title>Node16</title>
<g id="a_Node000016"><a xlink:href="../../dd/d6e/_source_8cpp_ae66f6b31b5ad750f1fe042a706a4e3d4.html#ae66f6b31b5ad750f1fe042a706a4e3d4" target="_top" xlink:title=" ">
<polygon fill="white" stroke="#666666" points="653.75,-158.88 616.75,-158.88 616.75,-139.62 653.75,-139.62 653.75,-158.88"/>
<text text-anchor="middle" x="635.25" y="-145.38" font-family="Helvetica,sans-Serif" font-size="10.00">main</text>
</a>
</g>
</g>
<!-- Node15&#45;&gt;Node16 -->
<g id="edge28_Node000015_Node000016" class="edge">
<title>Node15&#45;&gt;Node16</title>
<g id="a_edge28_Node000015_Node000016"><a xlink:title=" ">
<path fill="none" stroke="#63b8ff" d="M742.47,-149.25C711.1,-149.25 675.02,-149.25 654.01,-149.25"/>
<polygon fill="#63b8ff" stroke="#63b8ff" points="742.27,-152.75 752.27,-149.25 742.27,-145.75 742.27,-152.75"/>
</a>
</g>
</g>
<!-- Node19 -->
<g id="Node000019" class="node">
<title>Node19</title>
<g id="a_Node000019"><a xlink:href="../../d5/d73/_find___only_quads___neighbours_8cpp_ae66f6b31b5ad750f1fe042a706a4e3d4.html#ae66f6b31b5ad750f1fe042a706a4e3d4" target="_top" xlink:title=" ">
<polygon fill="white" stroke="#666666" points="822.38,-104.88 785.38,-104.88 785.38,-85.62 822.38,-85.62 822.38,-104.88"/>
<text text-anchor="middle" x="803.88" y="-91.38" font-family="Helvetica,sans-Serif" font-size="10.00">main</text>
</a>
</g>
</g>
<!-- Node18&#45;&gt;Node19 -->
<g id="edge31_Node000018_Node000019" class="edge">
<title>Node18&#45;&gt;Node19</title>
<g id="a_edge31_Node000018_Node000019"><a xlink:title=" ">
<path fill="none" stroke="#63b8ff" d="M891.47,-95.25C866.24,-95.25 839.5,-95.25 822.52,-95.25"/>
<polygon fill="#63b8ff" stroke="#63b8ff" points="891.4,-98.75 901.4,-95.25 891.4,-91.75 891.4,-98.75"/>
</a>
</g>
</g>
<!-- Node21 -->
<g id="Node000021" class="node">
<title>Node21</title>
<g id="a_Node000021"><a xlink:href="../../d6/dd0/_find___only_quads___neighbours__1_8cpp_ae66f6b31b5ad750f1fe042a706a4e3d4.html#ae66f6b31b5ad750f1fe042a706a4e3d4" target="_top" xlink:title=" ">
<polygon fill="white" stroke="#666666" points="822.38,-67.88 785.38,-67.88 785.38,-48.62 822.38,-48.62 822.38,-67.88"/>
<text text-anchor="middle" x="803.88" y="-54.38" font-family="Helvetica,sans-Serif" font-size="10.00">main</text>
</a>
</g>
</g>
<!-- Node20&#45;&gt;Node21 -->
<g id="edge33_Node000020_Node000021" class="edge">
<title>Node20&#45;&gt;Node21</title>
<g id="a_edge33_Node000020_Node000021"><a xlink:title=" ">
<path fill="none" stroke="#63b8ff" d="M891.47,-58.25C866.24,-58.25 839.5,-58.25 822.52,-58.25"/>
<polygon fill="#63b8ff" stroke="#63b8ff" points="891.4,-61.75 901.4,-58.25 891.4,-54.75 891.4,-61.75"/>
</a>
</g>
</g>
<!-- Node23 -->
<g id="Node000023" class="node">
<title>Node23</title>
<g id="a_Node000023"><a xlink:href="../../d2/dec/_parallel___net___flux___evaluation_8cpp_a1b25896fdbdd6ee6538b22ddac946a61.html#a1b25896fdbdd6ee6538b22ddac946a61" target="_top" xlink:title=" ">
<polygon fill="white" stroke="#666666" points="854.25,-30.5 753.5,-30.5 753.5,0 854.25,0 854.25,-30.5"/>
<text text-anchor="start" x="761.5" y="-17" font-family="Helvetica,sans-Serif" font-size="10.00">Calculate_Flux_For</text>
<text text-anchor="middle" x="803.88" y="-5.75" font-family="Helvetica,sans-Serif" font-size="10.00">_All_Faces_Device</text>
</a>
</g>
</g>
<!-- Node22&#45;&gt;Node23 -->
<g id="edge35_Node000022_Node000023" class="edge">
<title>Node22&#45;&gt;Node23</title>
<g id="a_edge35_Node000022_Node000023"><a xlink:title=" ">
<path fill="none" stroke="#63b8ff" d="M912.59,-17.37C894.36,-17.01 873.25,-16.59 854.57,-16.23"/>
<polygon fill="#63b8ff" stroke="#63b8ff" points="912.52,-20.86 922.59,-17.56 912.66,-13.87 912.52,-20.86"/>
</a>
</g>
</g>
<!-- Node24 -->
<g id="Node000024" class="node">
<title>Node24</title>
<g id="a_Node000024"><a xlink:href="../../d2/dec/_parallel___net___flux___evaluation_8cpp_a102865a10b7fc2d76a6939a03d58970c.html#a102865a10b7fc2d76a6939a03d58970c" target="_top" xlink:title=" ">
<polygon fill="white" stroke="#666666" points="679.62,-24.88 590.88,-24.88 590.88,-5.63 679.62,-5.63 679.62,-24.88"/>
<text text-anchor="middle" x="635.25" y="-11.38" font-family="Helvetica,sans-Serif" font-size="10.00">Net_Flux_Kernel</text>
</a>
</g>
</g>
<!-- Node23&#45;&gt;Node24 -->
<g id="edge36_Node000023_Node000024" class="edge">
<title>Node23&#45;&gt;Node24</title>
<g id="a_edge36_Node000023_Node000024"><a xlink:title=" ">
<path fill="none" stroke="#63b8ff" d="M741.84,-15.25C721.32,-15.25 698.86,-15.25 679.94,-15.25"/>
<polygon fill="#63b8ff" stroke="#63b8ff" points="741.82,-18.75 751.82,-15.25 741.82,-11.75 741.82,-18.75"/>
</a>
</g>
</g>
<!-- Node25 -->
<g id="Node000025" class="node">
<title>Node25</title>
<g id="a_Node000025"><a xlink:href="../../d2/dec/_parallel___net___flux___evaluation_8cpp_a8877ff1f2ac3e0c6cea010a1b61be639.html#a8877ff1f2ac3e0c6cea010a1b61be639" target="_top" xlink:title=" ">
<polygon fill="white" stroke="#666666" points="520,-24.88 415.5,-24.88 415.5,-5.63 520,-5.63 520,-24.88"/>
<text text-anchor="middle" x="467.75" y="-11.38" font-family="Helvetica,sans-Serif" font-size="10.00">Launch_Flux_Kernel</text>
</a>
</g>
</g>
<!-- Node24&#45;&gt;Node25 -->
<g id="edge37_Node000024_Node000025" class="edge">
<title>Node24&#45;&gt;Node25</title>
<g id="a_edge37_Node000024_Node000025"><a xlink:title=" ">
<path fill="none" stroke="#63b8ff" d="M579.29,-15.25C560.33,-15.25 539.17,-15.25 520.47,-15.25"/>
<polygon fill="#63b8ff" stroke="#63b8ff" points="579.25,-18.75 589.25,-15.25 579.25,-11.75 579.25,-18.75"/>
</a>
</g>
</g>
<!-- Node26&#45;&gt;Node7 -->
<g id="edge47_Node000026_Node000007" class="edge">
<title>Node26&#45;&gt;Node7</title>
<g id="a_edge47_Node000026_Node000007"><a xlink:title=" ">
<path fill="none" stroke="#63b8ff" d="M889.77,-237.24C824.77,-232.01 723.89,-225.25 636.25,-225.25 636.25,-225.25 636.25,-225.25 323.25,-225.25 242.81,-225.25 219,-234.06 148.75,-273.25 112.8,-293.3 79.88,-330.41 65.3,-348.21"/>
<polygon fill="#63b8ff" stroke="#63b8ff" points="889.32,-240.71 899.57,-238.04 889.89,-233.74 889.32,-240.71"/>
</a>
</g>
</g>
<!-- Node27 -->
<g id="Node000027" class="node">
<title>Node27</title>
<g id="a_Node000027"><a xlink:href="../../d8/dec/_time___step_8cpp_a1a130a004ad45d61258215e5579c3060.html#a1a130a004ad45d61258215e5579c3060" target="_top" xlink:title=" ">
<polygon fill="white" stroke="#666666" points="857.25,-301.88 750.5,-301.88 750.5,-282.62 857.25,-282.62 857.25,-301.88"/>
<text text-anchor="middle" x="803.88" y="-288.38" font-family="Helvetica,sans-Serif" font-size="10.00">Evaluate_Time_Step</text>
</a>
</g>
</g>
<!-- Node26&#45;&gt;Node27 -->
<g id="edge39_Node000026_Node000027" class="edge">
<title>Node26&#45;&gt;Node27</title>
<g id="a_edge39_Node000026_Node000027"><a xlink:title=" ">
<path fill="none" stroke="#63b8ff" d="M915.68,-256.71C890.62,-264.74 859.31,-274.79 836.38,-282.15"/>
<polygon fill="#63b8ff" stroke="#63b8ff" points="916.45,-260.13 924.9,-253.75 914.31,-253.47 916.45,-260.13"/>
</a>
</g>
</g>
<!-- Node27&#45;&gt;Node4 -->
<g id="edge40_Node000027_Node000004" class="edge">
<title>Node27&#45;&gt;Node4</title>
<g id="a_edge40_Node000027_Node000004"><a xlink:title=" ">
<path fill="none" stroke="#63b8ff" d="M780.19,-309C744.93,-335.03 678.06,-384.38 649.61,-405.39"/>
<polygon fill="#63b8ff" stroke="#63b8ff" points="782.05,-311.97 788.02,-303.21 777.9,-306.34 782.05,-311.97"/>
</a>
</g>
</g>
<!-- Node27&#45;&gt;Node7 -->
<g id="edge46_Node000027_Node000007" class="edge">
<title>Node27&#45;&gt;Node7</title>
<g id="a_edge46_Node000027_Node000007"><a xlink:title=" ">
<path fill="none" stroke="#63b8ff" d="M738.82,-283.37C671.67,-274.85 563.01,-263.25 468.75,-263.25 468.75,-263.25 468.75,-263.25 323.25,-263.25 223.01,-263.25 113.26,-323.87 73.16,-348.26"/>
<polygon fill="#63b8ff" stroke="#63b8ff" points="738.18,-286.82 748.55,-284.63 739.08,-279.88 738.18,-286.82"/>
</a>
</g>
</g>
<!-- Node27&#45;&gt;Node13 -->
<g id="edge41_Node000027_Node000013" class="edge">
<title>Node27&#45;&gt;Node13</title>
<g id="a_edge41_Node000027_Node000013"><a xlink:title=" ">
<path fill="none" stroke="#63b8ff" d="M791.75,-311.92C775.71,-339.82 744.71,-392.19 714.5,-434.25 691.19,-466.7 660.18,-502.44 645.16,-519.34"/>
<polygon fill="#63b8ff" stroke="#63b8ff" points="794.64,-313.91 796.55,-303.49 788.56,-310.45 794.64,-313.91"/>
</a>
</g>
</g>
<!-- Node28 -->
<g id="Node000028" class="node">
<title>Node28</title>
<g id="a_Node000028"><a xlink:href="../../d8/df4/_w_e_n_o2_d_8cpp_a74c2795e4a164178c69743947d6e6cf5.html#a74c2795e4a164178c69743947d6e6cf5" target="_top" xlink:title=" ">
<polygon fill="white" stroke="#666666" points="714.5,-329.88 556,-329.88 556,-310.62 714.5,-310.62 714.5,-329.88"/>
<text text-anchor="middle" x="635.25" y="-316.38" font-family="Helvetica,sans-Serif" font-size="10.00">Evaluate_Cell_Net_Flux_WENO</text>
</a>
</g>
</g>
<!-- Node27&#45;&gt;Node28 -->
<g id="edge42_Node000027_Node000028" class="edge">
<title>Node27&#45;&gt;Node28</title>
<g id="a_edge42_Node000027_Node000028"><a xlink:title=" ">
<path fill="none" stroke="#63b8ff" d="M739.12,-302.96C725.11,-305.32 710.33,-307.8 696.46,-310.13"/>
<polygon fill="#63b8ff" stroke="#63b8ff" points="739.38,-306.47 748.66,-301.36 738.22,-299.57 739.38,-306.47"/>
</a>
</g>
</g>
<!-- Node28&#45;&gt;Node5 -->
<g id="edge43_Node000028_Node000005" class="edge">
<title>Node28&#45;&gt;Node5</title>
<g id="a_edge43_Node000028_Node000005"><a xlink:title=" ">
<path fill="none" stroke="#63b8ff" d="M604.52,-335.24C581.61,-346.63 549.05,-362.46 520,-375.25 460.67,-401.38 389.69,-428.88 351.95,-443.22"/>
<polygon fill="#63b8ff" stroke="#63b8ff" points="605.89,-338.47 613.27,-330.87 602.76,-332.21 605.89,-338.47"/>
</a>
</g>
</g>
<!-- Node28&#45;&gt;Node10 -->
<g id="edge44_Node000028_Node000010" class="edge">
<title>Node28&#45;&gt;Node10</title>
<g id="a_edge44_Node000028_Node000010"><a xlink:title=" ">
<path fill="none" stroke="#63b8ff" d="M615.63,-337.76C599.59,-352.98 575.94,-375.74 556,-396.25 526.49,-426.59 493,-463.91 477.49,-481.37"/>
<polygon fill="#63b8ff" stroke="#63b8ff" points="617.72,-340.6 622.59,-331.18 612.91,-335.51 617.72,-340.6"/>
</a>
</g>
</g>
<!-- Node28&#45;&gt;Node11 -->
<g id="edge45_Node000028_Node000011" class="edge">
<title>Node28&#45;&gt;Node11</title>
<g id="a_edge45_Node000028_Node000011"><a xlink:title=" ">
<path fill="none" stroke="#63b8ff" d="M582.31,-333.03C521.36,-348.02 421.58,-372.56 365.96,-386.24"/>
<polygon fill="#63b8ff" stroke="#63b8ff" points="582.87,-336.49 591.75,-330.7 581.2,-329.69 582.87,-336.49"/>
</a>
</g>
</g>
<!-- Node29&#45;&gt;Node7 -->
<g id="edge50_Node000029_Node000007" class="edge">
<title>Node29&#45;&gt;Node7</title>
<g id="a_edge50_Node000029_Node000007"><a xlink:title=" ">
<path fill="none" stroke="#63b8ff" d="M889.77,-199.91C824.78,-194.38 723.91,-187.25 636.25,-187.25 636.25,-187.25 636.25,-187.25 323.25,-187.25 243.37,-187.25 214.84,-185.4 148.75,-230.25 102.66,-261.53 72,-324.24 61.45,-348.42"/>
<polygon fill="#63b8ff" stroke="#63b8ff" points="889.31,-203.38 899.58,-200.75 889.91,-196.4 889.31,-203.38"/>
</a>
</g>
</g>
<!-- Node29&#45;&gt;Node27 -->
<g id="edge49_Node000029_Node000027" class="edge">
<title>Node29&#45;&gt;Node27</title>
<g id="a_edge49_Node000029_Node000027"><a xlink:title=" ">
<path fill="none" stroke="#63b8ff" d="M902.35,-220.17C899.22,-221.43 896.17,-222.79 893.25,-224.25 861.92,-239.94 830.71,-267.44 815.12,-282.2"/>
<polygon fill="#63b8ff" stroke="#63b8ff" points="903.51,-223.47 911.73,-216.78 901.13,-216.89 903.51,-223.47"/>
</a>
</g>
</g>
</g>
</svg>
