<?xml version="1.0" encoding="UTF-8" standalone="no"?>
<!DOCTYPE svg PUBLIC "-//W3C//DTD SVG 1.1//EN"
 "http://www.w3.org/Graphics/SVG/1.1/DTD/svg11.dtd">
<!-- Generated by graphviz version 12.2.1 (20241206.2353)
 -->
<!-- Title: enforce_domain_physics Pages: 1 -->
<svg width="438pt" height="214pt"
 viewBox="0.00 0.00 438.00 214.25" xmlns="http://www.w3.org/2000/svg" xmlns:xlink="http://www.w3.org/1999/xlink">
<g id="graph0" class="graph" transform="scale(1 1) rotate(0) translate(4 210.25)">
<title>enforce_domain_physics</title>
<!-- Node1 -->
<g id="Node000001" class="node">
<title>Node1</title>
<g id="a_Node000001"><a xlink:title=" ">
<polygon fill="#999999" stroke="#666666" points="430,-111.25 306,-111.25 306,-92 430,-92 430,-111.25"/>
<text text-anchor="middle" x="368" y="-97.75" font-family="Helvetica,sans-Serif" font-size="10.00">enforce_domain_physics</text>
</a>
</g>
</g>
<!-- Node2 -->
<g id="Node000002" class="node">
<title>Node2</title>
<g id="a_Node000002"><a xlink:href="../../dd/d6e/_source_8cpp_a58b1d26d446f85e4e7ac65c75c457ecc.html#a58b1d26d446f85e4e7ac65c75c457ecc" target="_top" xlink:title=" ">
<polygon fill="white" stroke="#666666" points="270,-206.25 209,-206.25 209,-187 270,-187 270,-206.25"/>
<text text-anchor="middle" x="239.5" y="-192.75" font-family="Helvetica,sans-Serif" font-size="10.00">de_update</text>
</a>
</g>
</g>
<!-- Node1&#45;&gt;Node2 -->
<g id="edge1_Node000001_Node000002" class="edge">
<title>Node1&#45;&gt;Node2</title>
<g id="a_edge1_Node000001_Node000002"><a xlink:title=" ">
<path fill="none" stroke="#63b8ff" d="M345.07,-118.09C318.72,-137.88 275.35,-170.45 253.68,-186.73"/>
<polygon fill="#63b8ff" stroke="#63b8ff" points="346.83,-121.15 352.73,-112.34 342.63,-115.55 346.83,-121.15"/>
</a>
</g>
</g>
<!-- Node3 -->
<g id="Node000003" class="node">
<title>Node3</title>
<g id="a_Node000003"><a xlink:href="../../dd/d6e/_source_8cpp_a34dfb56cd801d13acca6ea57783ab2af.html#a34dfb56cd801d13acca6ea57783ab2af" target="_top" xlink:title=" ">
<polygon fill="white" stroke="#666666" points="173,-111.25 73,-111.25 73,-92 173,-92 173,-111.25"/>
<text text-anchor="middle" x="123" y="-97.75" font-family="Helvetica,sans-Serif" font-size="10.00">Gas_Phase_Solver</text>
</a>
</g>
</g>
<!-- Node1&#45;&gt;Node3 -->
<g id="edge4_Node000001_Node000003" class="edge">
<title>Node1&#45;&gt;Node3</title>
<g id="a_edge4_Node000001_Node000003"><a xlink:title=" ">
<path fill="none" stroke="#63b8ff" d="M337.32,-116.6C318.55,-125.22 293.47,-135.19 270,-139.62 243.36,-144.66 235.51,-145.28 209,-139.62 184.02,-134.3 157.5,-121.07 140.85,-111.72"/>
<polygon fill="#63b8ff" stroke="#63b8ff" points="338.68,-119.83 346.22,-112.38 335.68,-113.5 338.68,-119.83"/>
</a>
</g>
</g>
<!-- Node5 -->
<g id="Node000005" class="node">
<title>Node5</title>
<g id="a_Node000005"><a xlink:href="../../dd/d6e/_source_8cpp_ae2b3a38c977ab9c0f9bbc12d49685b36.html#ae2b3a38c977ab9c0f9bbc12d49685b36" target="_top" xlink:title=" ">
<polygon fill="white" stroke="#666666" points="270,-130.25 209,-130.25 209,-111 270,-111 270,-130.25"/>
<text text-anchor="middle" x="239.5" y="-116.75" font-family="Helvetica,sans-Serif" font-size="10.00">ke_update</text>
</a>
</g>
</g>
<!-- Node1&#45;&gt;Node5 -->
<g id="edge5_Node000001_Node000005" class="edge">
<title>Node1&#45;&gt;Node5</title>
<g id="a_edge5_Node000001_Node000005"><a xlink:title=" ">
<path fill="none" stroke="#63b8ff" d="M294.35,-112.54C285.85,-113.81 277.59,-115.05 270.19,-116.17"/>
<polygon fill="#63b8ff" stroke="#63b8ff" points="294.74,-116.02 304.11,-111.07 293.7,-109.1 294.74,-116.02"/>
</a>
</g>
</g>
<!-- Node6 -->
<g id="Node000006" class="node">
<title>Node6</title>
<g id="a_Node000006"><a xlink:href="../../dd/d6e/_source_8cpp_a6e183cf90e1ca4b3e3093c7af15edb86.html#a6e183cf90e1ca4b3e3093c7af15edb86" target="_top" xlink:title=" ">
<polygon fill="white" stroke="#666666" points="267.38,-93.25 211.62,-93.25 211.62,-74 267.38,-74 267.38,-93.25"/>
<text text-anchor="middle" x="239.5" y="-79.75" font-family="Helvetica,sans-Serif" font-size="10.00">p_update</text>
</a>
</g>
</g>
<!-- Node1&#45;&gt;Node6 -->
<g id="edge7_Node000001_Node000006" class="edge">
<title>Node1&#45;&gt;Node6</title>
<g id="a_edge7_Node000001_Node000006"><a xlink:title=" ">
<path fill="none" stroke="#63b8ff" d="M294.37,-91.29C284.87,-89.94 275.66,-88.63 267.62,-87.48"/>
<polygon fill="#63b8ff" stroke="#63b8ff" points="293.71,-94.73 304.1,-92.68 294.7,-87.8 293.71,-94.73"/>
</a>
</g>
</g>
<!-- Node7 -->
<g id="Node000007" class="node">
<title>Node7</title>
<g id="a_Node000007"><a xlink:href="../../dd/d6e/_source_8cpp_ada153a5ef75acc924a0a0b03bb88f320.html#ada153a5ef75acc924a0a0b03bb88f320" target="_top" xlink:title=" ">
<polygon fill="white" stroke="#666666" points="267.38,-56.25 211.62,-56.25 211.62,-37 267.38,-37 267.38,-56.25"/>
<text text-anchor="middle" x="239.5" y="-42.75" font-family="Helvetica,sans-Serif" font-size="10.00">u_update</text>
</a>
</g>
</g>
<!-- Node1&#45;&gt;Node7 -->
<g id="edge9_Node000001_Node000007" class="edge">
<title>Node1&#45;&gt;Node7</title>
<g id="a_edge9_Node000001_Node000007"><a xlink:title=" ">
<path fill="none" stroke="#63b8ff" d="M333.53,-87.07C311.46,-77.48 283.13,-65.16 263.55,-56.65"/>
<polygon fill="#63b8ff" stroke="#63b8ff" points="331.84,-90.16 342.41,-90.93 334.63,-83.74 331.84,-90.16"/>
</a>
</g>
</g>
<!-- Node8 -->
<g id="Node000008" class="node">
<title>Node8</title>
<g id="a_Node000008"><a xlink:href="../../dd/d6e/_source_8cpp_a86ac53788df9ce94ac02f8d03d3c989f.html#a86ac53788df9ce94ac02f8d03d3c989f" target="_top" xlink:title=" ">
<polygon fill="white" stroke="#666666" points="267.38,-19.25 211.62,-19.25 211.62,0 267.38,0 267.38,-19.25"/>
<text text-anchor="middle" x="239.5" y="-5.75" font-family="Helvetica,sans-Serif" font-size="10.00">v_update</text>
</a>
</g>
</g>
<!-- Node1&#45;&gt;Node8 -->
<g id="edge11_Node000001_Node000008" class="edge">
<title>Node1&#45;&gt;Node8</title>
<g id="a_edge11_Node000001_Node000008"><a xlink:title=" ">
<path fill="none" stroke="#63b8ff" d="M345.89,-84.51C326.55,-69.07 296.92,-46.04 270,-27.62 266.04,-24.92 261.67,-22.14 257.54,-19.61"/>
<polygon fill="#63b8ff" stroke="#63b8ff" points="343.58,-87.14 353.57,-90.67 347.96,-81.68 343.58,-87.14"/>
</a>
</g>
</g>
<!-- Node2&#45;&gt;Node3 -->
<g id="edge2_Node000002_Node000003" class="edge">
<title>Node2&#45;&gt;Node3</title>
<g id="a_edge2_Node000002_Node000003"><a xlink:title=" ">
<path fill="none" stroke="#63b8ff" d="M217.41,-179.52C214.58,-177.21 211.71,-174.86 209,-172.62 182.74,-150.98 152.16,-125.32 135.79,-111.55"/>
<polygon fill="#63b8ff" stroke="#63b8ff" points="214.99,-182.06 224.95,-185.66 219.41,-176.64 214.99,-182.06"/>
</a>
</g>
</g>
<!-- Node4 -->
<g id="Node000004" class="node">
<title>Node4</title>
<g id="a_Node000004"><a xlink:href="../../dd/d6e/_source_8cpp_ae66f6b31b5ad750f1fe042a706a4e3d4.html#ae66f6b31b5ad750f1fe042a706a4e3d4" target="_top" xlink:title=" ">
<polygon fill="white" stroke="#666666" points="37,-111.25 0,-111.25 0,-92 37,-92 37,-111.25"/>
<text text-anchor="middle" x="18.5" y="-97.75" font-family="Helvetica,sans-Serif" font-size="10.00">main</text>
</a>
</g>
</g>
<!-- Node3&#45;&gt;Node4 -->
<g id="edge3_Node000003_Node000004" class="edge">
<title>Node3&#45;&gt;Node4</title>
<g id="a_edge3_Node000003_Node000004"><a xlink:title=" ">
<path fill="none" stroke="#63b8ff" d="M61.29,-101.62C52.49,-101.62 44.08,-101.62 37.14,-101.62"/>
<polygon fill="#63b8ff" stroke="#63b8ff" points="61.04,-105.13 71.04,-101.63 61.04,-98.13 61.04,-105.13"/>
</a>
</g>
</g>
<!-- Node5&#45;&gt;Node3 -->
<g id="edge6_Node000005_Node000003" class="edge">
<title>Node5&#45;&gt;Node3</title>
<g id="a_edge6_Node000005_Node000003"><a xlink:title=" ">
<path fill="none" stroke="#63b8ff" d="M197.54,-113.83C189.63,-112.52 181.28,-111.13 173.15,-109.78"/>
<polygon fill="#63b8ff" stroke="#63b8ff" points="196.78,-117.25 207.22,-115.43 197.93,-110.34 196.78,-117.25"/>
</a>
</g>
</g>
<!-- Node6&#45;&gt;Node3 -->
<g id="edge8_Node000006_Node000003" class="edge">
<title>Node6&#45;&gt;Node3</title>
<g id="a_edge8_Node000006_Node000003"><a xlink:title=" ">
<path fill="none" stroke="#63b8ff" d="M200.14,-89.66C191.55,-91.01 182.33,-92.46 173.36,-93.86"/>
<polygon fill="#63b8ff" stroke="#63b8ff" points="200.53,-93.14 209.87,-88.13 199.45,-86.22 200.53,-93.14"/>
</a>
</g>
</g>
<!-- Node7&#45;&gt;Node3 -->
<g id="edge10_Node000007_Node000003" class="edge">
<title>Node7&#45;&gt;Node3</title>
<g id="a_edge10_Node000007_Node000003"><a xlink:title=" ">
<path fill="none" stroke="#63b8ff" d="M207.39,-61.57C187.53,-71.11 162.34,-83.21 144.87,-91.6"/>
<polygon fill="#63b8ff" stroke="#63b8ff" points="208.64,-64.85 216.13,-57.37 205.61,-58.54 208.64,-64.85"/>
</a>
</g>
</g>
<!-- Node8&#45;&gt;Node3 -->
<g id="edge12_Node000008_Node000003" class="edge">
<title>Node8&#45;&gt;Node3</title>
<g id="a_edge12_Node000008_Node000003"><a xlink:title=" ">
<path fill="none" stroke="#63b8ff" d="M211.53,-25.82C210.67,-26.42 209.83,-27.02 209,-27.62 180.43,-48.55 149.77,-76.88 134.26,-91.68"/>
<polygon fill="#63b8ff" stroke="#63b8ff" points="213.3,-28.84 219.76,-20.45 209.47,-22.98 213.3,-28.84"/>
</a>
</g>
</g>
</g>
</svg>
