<?xml version="1.0" encoding="UTF-8" standalone="no"?>
<!DOCTYPE svg PUBLIC "-//W3C//DTD SVG 1.1//EN"
 "http://www.w3.org/Graphics/SVG/1.1/DTD/svg11.dtd">
<!-- Generated by graphviz version 12.2.1 (20241206.2353)
 -->
<!-- Title: void_frac Pages: 1 -->
<svg width="468pt" height="196pt"
 viewBox="0.00 0.00 467.50 196.25" xmlns="http://www.w3.org/2000/svg" xmlns:xlink="http://www.w3.org/1999/xlink">
<g id="graph0" class="graph" transform="scale(1 1) rotate(0) translate(4 192.25)">
<title>void_frac</title>
<!-- Node1 -->
<g id="Node000001" class="node">
<title>Node1</title>
<g id="a_Node000001"><a xlink:title=" ">
<polygon fill="#999999" stroke="#666666" points="459.5,-113.25 403.75,-113.25 403.75,-94 459.5,-94 459.5,-113.25"/>
<text text-anchor="middle" x="431.62" y="-99.75" font-family="Helvetica,sans-Serif" font-size="10.00">void_frac</text>
</a>
</g>
</g>
<!-- Node2 -->
<g id="Node000002" class="node">
<title>Node2</title>
<g id="a_Node000002"><a xlink:href="../../dd/d6e/_source_8cpp_a58b1d26d446f85e4e7ac65c75c457ecc.html#a58b1d26d446f85e4e7ac65c75c457ecc" target="_top" xlink:title=" ">
<polygon fill="white" stroke="#666666" points="270,-188.25 209,-188.25 209,-169 270,-169 270,-188.25"/>
<text text-anchor="middle" x="239.5" y="-174.75" font-family="Helvetica,sans-Serif" font-size="10.00">de_update</text>
</a>
</g>
</g>
<!-- Node1&#45;&gt;Node2 -->
<g id="edge1_Node000001_Node000002" class="edge">
<title>Node1&#45;&gt;Node2</title>
<g id="a_edge1_Node000001_Node000002"><a xlink:title=" ">
<path fill="none" stroke="#63b8ff" d="M414.84,-121.59C403.1,-133.75 386.01,-149.11 367.75,-157.62 336.6,-172.16 297.06,-176.81 270.38,-178.21"/>
<polygon fill="#63b8ff" stroke="#63b8ff" points="417.14,-124.27 421.36,-114.55 412,-119.51 417.14,-124.27"/>
</a>
</g>
</g>
<!-- Node5 -->
<g id="Node000005" class="node">
<title>Node5</title>
<g id="a_Node000005"><a xlink:href="../../dd/d6e/_source_8cpp_af37f00cf67f41b7a1019a6fa6fd532e8.html#af37f00cf67f41b7a1019a6fa6fd532e8" target="_top" xlink:title=" ">
<polygon fill="white" stroke="#666666" points="355.75,-132.25 318,-132.25 318,-113 355.75,-113 355.75,-132.25"/>
<text text-anchor="middle" x="336.88" y="-118.75" font-family="Helvetica,sans-Serif" font-size="10.00">F_gp</text>
</a>
</g>
</g>
<!-- Node1&#45;&gt;Node5 -->
<g id="edge4_Node000001_Node000005" class="edge">
<title>Node1&#45;&gt;Node5</title>
<g id="a_edge4_Node000001_Node000005"><a xlink:title=" ">
<path fill="none" stroke="#63b8ff" d="M392.19,-111.5C379.74,-114.05 366.5,-116.76 356.21,-118.87"/>
<polygon fill="#63b8ff" stroke="#63b8ff" points="392.72,-114.96 401.82,-109.53 391.32,-108.1 392.72,-114.96"/>
</a>
</g>
</g>
<!-- Node6 -->
<g id="Node000006" class="node">
<title>Node6</title>
<g id="a_Node000006"><a xlink:href="../../dd/d6e/_source_8cpp_ada153a5ef75acc924a0a0b03bb88f320.html#ada153a5ef75acc924a0a0b03bb88f320" target="_top" xlink:title=" ">
<polygon fill="white" stroke="#666666" points="267.38,-132.25 211.62,-132.25 211.62,-113 267.38,-113 267.38,-132.25"/>
<text text-anchor="middle" x="239.5" y="-118.75" font-family="Helvetica,sans-Serif" font-size="10.00">u_update</text>
</a>
</g>
</g>
<!-- Node1&#45;&gt;Node6 -->
<g id="edge11_Node000001_Node000006" class="edge">
<title>Node1&#45;&gt;Node6</title>
<g id="a_edge11_Node000001_Node000006"><a xlink:title=" ">
<path fill="none" stroke="#63b8ff" d="M409.36,-120.49C397.77,-128.59 382.76,-137.44 367.75,-141.62 333.32,-151.22 292.22,-141.4 266.24,-132.68"/>
<polygon fill="#63b8ff" stroke="#63b8ff" points="411.38,-123.34 417.35,-114.59 407.23,-117.71 411.38,-123.34"/>
</a>
</g>
</g>
<!-- Node7 -->
<g id="Node000007" class="node">
<title>Node7</title>
<g id="a_Node000007"><a xlink:href="../../dd/d6e/_source_8cpp_a86ac53788df9ce94ac02f8d03d3c989f.html#a86ac53788df9ce94ac02f8d03d3c989f" target="_top" xlink:title=" ">
<polygon fill="white" stroke="#666666" points="267.38,-95.25 211.62,-95.25 211.62,-76 267.38,-76 267.38,-95.25"/>
<text text-anchor="middle" x="239.5" y="-81.75" font-family="Helvetica,sans-Serif" font-size="10.00">v_update</text>
</a>
</g>
</g>
<!-- Node1&#45;&gt;Node7 -->
<g id="edge14_Node000001_Node000007" class="edge">
<title>Node1&#45;&gt;Node7</title>
<g id="a_edge14_Node000001_Node000007"><a xlink:title=" ">
<path fill="none" stroke="#63b8ff" d="M392.07,-99.97C355.11,-96.48 300.28,-91.28 267.69,-88.2"/>
<polygon fill="#63b8ff" stroke="#63b8ff" points="391.59,-103.45 401.88,-100.9 392.25,-96.48 391.59,-103.45"/>
</a>
</g>
</g>
<!-- Node8 -->
<g id="Node000008" class="node">
<title>Node8</title>
<g id="a_Node000008"><a xlink:href="../../dd/d6e/_source_8cpp_ae2b3a38c977ab9c0f9bbc12d49685b36.html#ae2b3a38c977ab9c0f9bbc12d49685b36" target="_top" xlink:title=" ">
<polygon fill="white" stroke="#666666" points="367.38,-56.25 306.38,-56.25 306.38,-37 367.38,-37 367.38,-56.25"/>
<text text-anchor="middle" x="336.88" y="-42.75" font-family="Helvetica,sans-Serif" font-size="10.00">ke_update</text>
</a>
</g>
</g>
<!-- Node1&#45;&gt;Node8 -->
<g id="edge9_Node000001_Node000008" class="edge">
<title>Node1&#45;&gt;Node8</title>
<g id="a_edge9_Node000001_Node000008"><a xlink:title=" ">
<path fill="none" stroke="#63b8ff" d="M405,-87.88C388.74,-77.89 368.21,-65.27 354.16,-56.63"/>
<polygon fill="#63b8ff" stroke="#63b8ff" points="402.83,-90.65 413.18,-92.9 406.49,-84.69 402.83,-90.65"/>
</a>
</g>
</g>
<!-- Node9 -->
<g id="Node000009" class="node">
<title>Node9</title>
<g id="a_Node000009"><a xlink:href="../../dd/d6e/_source_8cpp_a16766876f2e07095d57d49d08037c9ea.html#a16766876f2e07095d57d49d08037c9ea" target="_top" xlink:title=" ">
<polygon fill="white" stroke="#666666" points="367.75,-19.25 306,-19.25 306,0 367.75,0 367.75,-19.25"/>
<text text-anchor="middle" x="336.88" y="-5.75" font-family="Helvetica,sans-Serif" font-size="10.00">uv_correct</text>
</a>
</g>
</g>
<!-- Node1&#45;&gt;Node9 -->
<g id="edge12_Node000001_Node000009" class="edge">
<title>Node1&#45;&gt;Node9</title>
<g id="a_edge12_Node000001_Node000009"><a xlink:title=" ">
<path fill="none" stroke="#63b8ff" d="M417.59,-84.45C405.83,-68.08 387.41,-44.56 367.75,-27.62 364.45,-24.78 360.64,-22.11 356.87,-19.75"/>
<polygon fill="#63b8ff" stroke="#63b8ff" points="414.52,-86.18 423.13,-92.36 420.26,-82.16 414.52,-86.18"/>
</a>
</g>
</g>
<!-- Node3 -->
<g id="Node000003" class="node">
<title>Node3</title>
<g id="a_Node000003"><a xlink:href="../../dd/d6e/_source_8cpp_a34dfb56cd801d13acca6ea57783ab2af.html#a34dfb56cd801d13acca6ea57783ab2af" target="_top" xlink:title=" ">
<polygon fill="white" stroke="#666666" points="173,-95.25 73,-95.25 73,-76 173,-76 173,-95.25"/>
<text text-anchor="middle" x="123" y="-81.75" font-family="Helvetica,sans-Serif" font-size="10.00">Gas_Phase_Solver</text>
</a>
</g>
</g>
<!-- Node2&#45;&gt;Node3 -->
<g id="edge2_Node000002_Node000003" class="edge">
<title>Node2&#45;&gt;Node3</title>
<g id="a_edge2_Node000002_Node000003"><a xlink:title=" ">
<path fill="none" stroke="#63b8ff" d="M217.59,-161.64C193.74,-142.27 155.56,-111.26 136.17,-95.51"/>
<polygon fill="#63b8ff" stroke="#63b8ff" points="215.1,-164.13 225.07,-167.72 219.52,-158.7 215.1,-164.13"/>
</a>
</g>
</g>
<!-- Node4 -->
<g id="Node000004" class="node">
<title>Node4</title>
<g id="a_Node000004"><a xlink:href="../../dd/d6e/_source_8cpp_ae66f6b31b5ad750f1fe042a706a4e3d4.html#ae66f6b31b5ad750f1fe042a706a4e3d4" target="_top" xlink:title=" ">
<polygon fill="white" stroke="#666666" points="37,-95.25 0,-95.25 0,-76 37,-76 37,-95.25"/>
<text text-anchor="middle" x="18.5" y="-81.75" font-family="Helvetica,sans-Serif" font-size="10.00">main</text>
</a>
</g>
</g>
<!-- Node3&#45;&gt;Node4 -->
<g id="edge3_Node000003_Node000004" class="edge">
<title>Node3&#45;&gt;Node4</title>
<g id="a_edge3_Node000003_Node000004"><a xlink:title=" ">
<path fill="none" stroke="#63b8ff" d="M61.29,-85.62C52.49,-85.62 44.08,-85.62 37.14,-85.62"/>
<polygon fill="#63b8ff" stroke="#63b8ff" points="61.04,-89.13 71.04,-85.63 61.04,-82.13 61.04,-89.13"/>
</a>
</g>
</g>
<!-- Node5&#45;&gt;Node6 -->
<g id="edge5_Node000005_Node000006" class="edge">
<title>Node5&#45;&gt;Node6</title>
<g id="a_edge5_Node000005_Node000006"><a xlink:title=" ">
<path fill="none" stroke="#63b8ff" d="M306.78,-122.62C294.36,-122.62 279.95,-122.62 267.74,-122.62"/>
<polygon fill="#63b8ff" stroke="#63b8ff" points="306.42,-126.13 316.42,-122.63 306.42,-119.13 306.42,-126.13"/>
</a>
</g>
</g>
<!-- Node5&#45;&gt;Node7 -->
<g id="edge7_Node000005_Node000007" class="edge">
<title>Node5&#45;&gt;Node7</title>
<g id="a_edge7_Node000005_Node000007"><a xlink:title=" ">
<path fill="none" stroke="#63b8ff" d="M307.21,-111.5C294.19,-106.46 278.92,-100.53 266.28,-95.63"/>
<polygon fill="#63b8ff" stroke="#63b8ff" points="305.94,-114.76 316.52,-115.12 308.47,-108.24 305.94,-114.76"/>
</a>
</g>
</g>
<!-- Node6&#45;&gt;Node3 -->
<g id="edge6_Node000006_Node000003" class="edge">
<title>Node6&#45;&gt;Node3</title>
<g id="a_edge6_Node000006_Node000003"><a xlink:title=" ">
<path fill="none" stroke="#63b8ff" d="M200.52,-110.35C185.74,-105.57 169.02,-100.17 154.99,-95.64"/>
<polygon fill="#63b8ff" stroke="#63b8ff" points="199.33,-113.65 209.92,-113.39 201.49,-106.99 199.33,-113.65"/>
</a>
</g>
</g>
<!-- Node7&#45;&gt;Node3 -->
<g id="edge8_Node000007_Node000003" class="edge">
<title>Node7&#45;&gt;Node3</title>
<g id="a_edge8_Node000007_Node000003"><a xlink:title=" ">
<path fill="none" stroke="#63b8ff" d="M200.14,-85.62C191.55,-85.62 182.33,-85.62 173.36,-85.62"/>
<polygon fill="#63b8ff" stroke="#63b8ff" points="199.85,-89.13 209.85,-85.63 199.85,-82.13 199.85,-89.13"/>
</a>
</g>
</g>
<!-- Node8&#45;&gt;Node3 -->
<g id="edge10_Node000008_Node000003" class="edge">
<title>Node8&#45;&gt;Node3</title>
<g id="a_edge10_Node000008_Node000003"><a xlink:title=" ">
<path fill="none" stroke="#63b8ff" d="M294.82,-52.42C269.93,-56.1 237.55,-61.19 209,-66.62 195.19,-69.26 180.19,-72.48 166.7,-75.52"/>
<polygon fill="#63b8ff" stroke="#63b8ff" points="295.16,-55.91 304.55,-51 294.15,-48.98 295.16,-55.91"/>
</a>
</g>
</g>
<!-- Node9&#45;&gt;Node3 -->
<g id="edge13_Node000009_Node000003" class="edge">
<title>Node9&#45;&gt;Node3</title>
<g id="a_edge13_Node000009_Node000003"><a xlink:title=" ">
<path fill="none" stroke="#63b8ff" d="M294.87,-23.02C269.94,-31.29 237.53,-42.26 209,-52.62 188.77,-59.98 166.04,-68.83 149.18,-75.52"/>
<polygon fill="#63b8ff" stroke="#63b8ff" points="295.92,-26.36 304.32,-19.9 293.72,-19.71 295.92,-26.36"/>
</a>
</g>
</g>
</g>
</svg>
