<?xml version="1.0" encoding="UTF-8" standalone="no"?>
<!DOCTYPE svg PUBLIC "-//W3C//DTD SVG 1.1//EN"
 "http://www.w3.org/Graphics/SVG/1.1/DTD/svg11.dtd">
<!-- Generated by graphviz version 12.2.1 (20241206.2353)
 -->
<!-- Title: main Pages: 1 -->
<svg width="718pt" height="396pt"
 viewBox="0.00 0.00 717.50 396.06" xmlns="http://www.w3.org/2000/svg" xmlns:xlink="http://www.w3.org/1999/xlink">
<g id="graph0" class="graph" transform="scale(1 1) rotate(0) translate(4 392.06)">
<title>main</title>
<!-- Node1 -->
<g id="Node000001" class="node">
<title>Node1</title>
<g id="a_Node000001"><a xlink:title=" ">
<polygon fill="#999999" stroke="#666666" points="37,-168.25 0,-168.25 0,-149 37,-149 37,-168.25"/>
<text text-anchor="middle" x="18.5" y="-154.75" font-family="Helvetica,sans-Serif" font-size="10.00">main</text>
</a>
</g>
</g>
<!-- Node2 -->
<g id="Node000002" class="node">
<title>Node2</title>
<g id="a_Node000002"><a xlink:href="../../dd/d6e/_source_8cpp_a34dfb56cd801d13acca6ea57783ab2af.html#a34dfb56cd801d13acca6ea57783ab2af" target="_top" xlink:title=" ">
<polygon fill="white" stroke="#666666" points="173,-187.25 73,-187.25 73,-168 173,-168 173,-187.25"/>
<text text-anchor="middle" x="123" y="-173.75" font-family="Helvetica,sans-Serif" font-size="10.00">Gas_Phase_Solver</text>
</a>
</g>
</g>
<!-- Node1&#45;&gt;Node2 -->
<g id="edge1_Node000001_Node000002" class="edge">
<title>Node1&#45;&gt;Node2</title>
<g id="a_edge1_Node000001_Node000002"><a xlink:title=" ">
<path fill="none" stroke="#63b8ff" d="M37.35,-161.93C44.29,-163.22 52.67,-164.77 61.43,-166.4"/>
<polygon fill="#63b8ff" stroke="#63b8ff" points="60.69,-169.82 71.16,-168.2 61.96,-162.94 60.69,-169.82"/>
</a>
</g>
</g>
<!-- Node20 -->
<g id="Node000020" class="node">
<title>Node20</title>
<g id="a_Node000020"><a xlink:href="../../dd/d6e/_source_8cpp_abd335e5ea78a68ce84aaaed3bb02ff19.html#abd335e5ea78a68ce84aaaed3bb02ff19" target="_top" xlink:title=" ">
<polygon fill="white" stroke="#666666" points="152.38,-150.25 93.62,-150.25 93.62,-131 152.38,-131 152.38,-150.25"/>
<text text-anchor="middle" x="123" y="-136.75" font-family="Helvetica,sans-Serif" font-size="10.00">read_data</text>
</a>
</g>
</g>
<!-- Node1&#45;&gt;Node20 -->
<g id="edge33_Node000001_Node000020" class="edge">
<title>Node1&#45;&gt;Node20</title>
<g id="a_edge33_Node000001_Node000020"><a xlink:title=" ">
<path fill="none" stroke="#63b8ff" d="M37.35,-155.49C49.82,-153.3 66.94,-150.29 82.53,-147.56"/>
<polygon fill="#63b8ff" stroke="#63b8ff" points="82.79,-151.06 92.03,-145.89 81.58,-144.17 82.79,-151.06"/>
</a>
</g>
</g>
<!-- Node3 -->
<g id="Node000003" class="node">
<title>Node3</title>
<g id="a_Node000003"><a xlink:href="../../dd/d6e/_source_8cpp_a58b1d26d446f85e4e7ac65c75c457ecc.html#a58b1d26d446f85e4e7ac65c75c457ecc" target="_top" xlink:title=" ">
<polygon fill="white" stroke="#666666" points="304.88,-357.25 243.88,-357.25 243.88,-338 304.88,-338 304.88,-357.25"/>
<text text-anchor="middle" x="274.38" y="-343.75" font-family="Helvetica,sans-Serif" font-size="10.00">de_update</text>
</a>
</g>
</g>
<!-- Node2&#45;&gt;Node3 -->
<g id="edge2_Node000002_Node000003" class="edge">
<title>Node2&#45;&gt;Node3</title>
<g id="a_edge2_Node000002_Node000003"><a xlink:title=" ">
<path fill="none" stroke="#63b8ff" d="M126.68,-187.45C134.53,-214.32 160.05,-289.64 209,-328.62 215.85,-334.08 224.21,-337.96 232.62,-340.74"/>
<polygon fill="#63b8ff" stroke="#63b8ff" points="231.55,-344.07 242.12,-343.37 233.42,-337.33 231.55,-344.07"/>
</a>
</g>
</g>
<!-- Node4 -->
<g id="Node000004" class="node">
<title>Node4</title>
<g id="a_Node000004"><a xlink:href="../../dd/d6e/_source_8cpp_a7ef2db7d4d24c5577c2ac99d09518fe5.html#a7ef2db7d4d24c5577c2ac99d09518fe5" target="_top" xlink:title=" ">
<polygon fill="white" stroke="#666666" points="499.75,-281.25 375.75,-281.25 375.75,-262 499.75,-262 499.75,-281.25"/>
<text text-anchor="middle" x="437.75" y="-267.75" font-family="Helvetica,sans-Serif" font-size="10.00">enforce_domain_physics</text>
</a>
</g>
</g>
<!-- Node2&#45;&gt;Node4 -->
<g id="edge8_Node000002_Node000004" class="edge">
<title>Node2&#45;&gt;Node4</title>
<g id="a_edge8_Node000002_Node000004"><a xlink:title=" ">
<path fill="none" stroke="#63b8ff" d="M131.6,-187.62C145.08,-204.47 174.97,-238.11 209,-252.62 257.79,-273.43 317.72,-277.69 363.86,-277.01"/>
<polygon fill="#63b8ff" stroke="#63b8ff" points="363.85,-280.51 373.76,-276.77 363.68,-273.51 363.85,-280.51"/>
</a>
</g>
</g>
<!-- Node9 -->
<g id="Node000009" class="node">
<title>Node9</title>
<g id="a_Node000009"><a xlink:href="../../dd/d6e/_source_8cpp_a63eb81f73cb26aea03f6f9c045ff5a09.html#a63eb81f73cb26aea03f6f9c045ff5a09" target="_top" xlink:title=" ">
<polygon fill="white" stroke="#666666" points="339.75,-93.25 209,-93.25 209,-74 339.75,-74 339.75,-93.25"/>
<text text-anchor="middle" x="274.38" y="-79.75" font-family="Helvetica,sans-Serif" font-size="10.00">Gas_Convergence_Check</text>
</a>
</g>
</g>
<!-- Node2&#45;&gt;Node9 -->
<g id="edge9_Node000002_Node000009" class="edge">
<title>Node2&#45;&gt;Node9</title>
<g id="a_edge9_Node000002_Node000009"><a xlink:title=" ">
<path fill="none" stroke="#63b8ff" d="M159.64,-167.52C164.38,-165.34 168.99,-162.73 173,-159.62 195.23,-142.42 186.81,-124.88 209,-107.62 213.77,-103.92 219.17,-100.74 224.76,-98.02"/>
<polygon fill="#63b8ff" stroke="#63b8ff" points="225.77,-101.4 233.56,-94.22 222.99,-94.97 225.77,-101.4"/>
</a>
</g>
</g>
<!-- Node11 -->
<g id="Node000011" class="node">
<title>Node11</title>
<g id="a_Node000011"><a xlink:href="../../dd/d6e/_source_8cpp_ac9a44657a2854d431df4d3fc9bfd13d9.html#ac9a44657a2854d431df4d3fc9bfd13d9" target="_top" xlink:title=" ">
<polygon fill="white" stroke="#666666" points="326.25,-56.25 222.5,-56.25 222.5,-37 326.25,-37 326.25,-56.25"/>
<text text-anchor="middle" x="274.38" y="-42.75" font-family="Helvetica,sans-Serif" font-size="10.00">initialise_gas_phase</text>
</a>
</g>
</g>
<!-- Node2&#45;&gt;Node11 -->
<g id="edge11_Node000002_Node000011" class="edge">
<title>Node2&#45;&gt;Node11</title>
<g id="a_edge11_Node000002_Node000011"><a xlink:title=" ">
<path fill="none" stroke="#63b8ff" d="M161.87,-167.61C165.95,-165.44 169.78,-162.81 173,-159.62 205.09,-127.86 175.68,-95.09 209,-64.62 210.08,-63.63 211.22,-62.7 212.39,-61.81"/>
<polygon fill="#63b8ff" stroke="#63b8ff" points="214.05,-64.9 220.83,-56.75 210.45,-58.9 214.05,-64.9"/>
</a>
</g>
</g>
<!-- Node12 -->
<g id="Node000012" class="node">
<title>Node12</title>
<g id="a_Node000012"><a xlink:href="../../dd/d6e/_source_8cpp_ae2b3a38c977ab9c0f9bbc12d49685b36.html#ae2b3a38c977ab9c0f9bbc12d49685b36" target="_top" xlink:title=" ">
<polygon fill="white" stroke="#666666" points="304.88,-319.25 243.88,-319.25 243.88,-300 304.88,-300 304.88,-319.25"/>
<text text-anchor="middle" x="274.38" y="-305.75" font-family="Helvetica,sans-Serif" font-size="10.00">ke_update</text>
</a>
</g>
</g>
<!-- Node2&#45;&gt;Node12 -->
<g id="edge12_Node000002_Node000012" class="edge">
<title>Node2&#45;&gt;Node12</title>
<g id="a_edge12_Node000002_Node000012"><a xlink:title=" ">
<path fill="none" stroke="#63b8ff" d="M129.24,-187.46C140.86,-208.4 170.84,-257.77 209,-285.62 216.1,-290.81 224.45,-294.99 232.74,-298.33"/>
<polygon fill="#63b8ff" stroke="#63b8ff" points="231.47,-301.6 242.07,-301.72 233.86,-295.02 231.47,-301.6"/>
</a>
</g>
</g>
<!-- Node13 -->
<g id="Node000013" class="node">
<title>Node13</title>
<g id="a_Node000013"><a xlink:href="../../dd/d6e/_source_8cpp_a6e183cf90e1ca4b3e3093c7af15edb86.html#a6e183cf90e1ca4b3e3093c7af15edb86" target="_top" xlink:title=" ">
<polygon fill="white" stroke="#666666" points="302.25,-243.25 246.5,-243.25 246.5,-224 302.25,-224 302.25,-243.25"/>
<text text-anchor="middle" x="274.38" y="-229.75" font-family="Helvetica,sans-Serif" font-size="10.00">p_update</text>
</a>
</g>
</g>
<!-- Node2&#45;&gt;Node13 -->
<g id="edge16_Node000002_Node000013" class="edge">
<title>Node2&#45;&gt;Node13</title>
<g id="a_edge16_Node000002_Node000013"><a xlink:title=" ">
<path fill="none" stroke="#63b8ff" d="M144.26,-187.7C161.27,-195.91 186.35,-207.44 209,-215.62 217.35,-218.64 226.45,-221.46 235.12,-223.93"/>
<polygon fill="#63b8ff" stroke="#63b8ff" points="234.13,-227.29 244.7,-226.57 235.99,-220.54 234.13,-227.29"/>
</a>
</g>
</g>
<!-- Node14 -->
<g id="Node000014" class="node">
<title>Node14</title>
<g id="a_Node000014"><a xlink:href="../../dd/d6e/_source_8cpp_ada153a5ef75acc924a0a0b03bb88f320.html#ada153a5ef75acc924a0a0b03bb88f320" target="_top" xlink:title=" ">
<polygon fill="white" stroke="#666666" points="302.25,-206.25 246.5,-206.25 246.5,-187 302.25,-187 302.25,-206.25"/>
<text text-anchor="middle" x="274.38" y="-192.75" font-family="Helvetica,sans-Serif" font-size="10.00">u_update</text>
</a>
</g>
</g>
<!-- Node2&#45;&gt;Node14 -->
<g id="edge18_Node000002_Node000014" class="edge">
<title>Node2&#45;&gt;Node14</title>
<g id="a_edge18_Node000002_Node000014"><a xlink:title=" ">
<path fill="none" stroke="#63b8ff" d="M173.32,-183.9C193.36,-186.45 216.15,-189.35 234.92,-191.73"/>
<polygon fill="#63b8ff" stroke="#63b8ff" points="234.45,-195.2 244.81,-192.99 235.33,-188.26 234.45,-195.2"/>
</a>
</g>
</g>
<!-- Node17 -->
<g id="Node000017" class="node">
<title>Node17</title>
<g id="a_Node000017"><a xlink:href="../../dd/d6e/_source_8cpp_a16766876f2e07095d57d49d08037c9ea.html#a16766876f2e07095d57d49d08037c9ea" target="_top" xlink:title=" ">
<polygon fill="white" stroke="#666666" points="468.62,-92.25 406.88,-92.25 406.88,-73 468.62,-73 468.62,-92.25"/>
<text text-anchor="middle" x="437.75" y="-78.75" font-family="Helvetica,sans-Serif" font-size="10.00">uv_correct</text>
</a>
</g>
</g>
<!-- Node2&#45;&gt;Node17 -->
<g id="edge25_Node000002_Node000017" class="edge">
<title>Node2&#45;&gt;Node17</title>
<g id="a_edge25_Node000002_Node000017"><a xlink:title=" ">
<path fill="none" stroke="#63b8ff" d="M153.53,-167.5C160.01,-165.08 166.79,-162.39 173,-159.62 189.53,-152.27 192.12,-147.12 209,-140.62 242.93,-127.56 340,-104.58 395.85,-91.82"/>
<polygon fill="#63b8ff" stroke="#63b8ff" points="396.32,-95.3 405.3,-89.67 394.77,-88.47 396.32,-95.3"/>
</a>
</g>
</g>
<!-- Node18 -->
<g id="Node000018" class="node">
<title>Node18</title>
<g id="a_Node000018"><a xlink:href="../../dd/d6e/_source_8cpp_a86ac53788df9ce94ac02f8d03d3c989f.html#a86ac53788df9ce94ac02f8d03d3c989f" target="_top" xlink:title=" ">
<polygon fill="white" stroke="#666666" points="302.25,-169.25 246.5,-169.25 246.5,-150 302.25,-150 302.25,-169.25"/>
<text text-anchor="middle" x="274.38" y="-155.75" font-family="Helvetica,sans-Serif" font-size="10.00">v_update</text>
</a>
</g>
</g>
<!-- Node2&#45;&gt;Node18 -->
<g id="edge27_Node000002_Node000018" class="edge">
<title>Node2&#45;&gt;Node18</title>
<g id="a_edge27_Node000002_Node000018"><a xlink:title=" ">
<path fill="none" stroke="#63b8ff" d="M173.32,-171.68C193.36,-169.27 216.15,-166.52 234.92,-164.26"/>
<polygon fill="#63b8ff" stroke="#63b8ff" points="235.3,-167.74 244.81,-163.07 234.46,-160.79 235.3,-167.74"/>
</a>
</g>
</g>
<!-- Node19 -->
<g id="Node000019" class="node">
<title>Node19</title>
<g id="a_Node000019"><a xlink:href="../../dd/d6e/_source_8cpp_aa124ea4b566d940a853dd8cdec8900ab.html#aa124ea4b566d940a853dd8cdec8900ab" target="_top" xlink:title=" ">
<polygon fill="white" stroke="#666666" points="321.75,-19.25 227,-19.25 227,0 321.75,0 321.75,-19.25"/>
<text text-anchor="middle" x="274.38" y="-5.75" font-family="Helvetica,sans-Serif" font-size="10.00">vorticity_gas_calc</text>
</a>
</g>
</g>
<!-- Node2&#45;&gt;Node19 -->
<g id="edge32_Node000002_Node000019" class="edge">
<title>Node2&#45;&gt;Node19</title>
<g id="a_edge32_Node000002_Node000019"><a xlink:title=" ">
<path fill="none" stroke="#63b8ff" d="M162.65,-167.63C166.5,-165.47 170.06,-162.83 173,-159.62 214.12,-114.82 166.14,-70.76 209,-27.62 211.22,-25.39 213.7,-23.42 216.35,-21.7"/>
<polygon fill="#63b8ff" stroke="#63b8ff" points="217.94,-24.81 225.24,-17.13 214.74,-18.59 217.94,-24.81"/>
</a>
</g>
</g>
<!-- Node3&#45;&gt;Node4 -->
<g id="edge3_Node000003_Node000004" class="edge">
<title>Node3&#45;&gt;Node4</title>
<g id="a_edge3_Node000003_Node000004"><a xlink:title=" ">
<path fill="none" stroke="#63b8ff" d="M305.07,-340.49C316.17,-337.41 328.74,-333.4 339.75,-328.62 365.88,-317.3 393.71,-300.38 412.83,-287.92"/>
<polygon fill="#63b8ff" stroke="#63b8ff" points="414.56,-290.97 420.97,-282.53 410.7,-285.13 414.56,-290.97"/>
</a>
</g>
</g>
<!-- Node5 -->
<g id="Node000005" class="node">
<title>Node5</title>
<g id="a_Node000005"><a xlink:href="../../dd/d6e/_source_8cpp_a1c064e4a4f57b395b9cec3ed92a7fcff.html#a1c064e4a4f57b395b9cec3ed92a7fcff" target="_top" xlink:title=" ">
<polygon fill="white" stroke="#666666" points="454,-357.25 421.5,-357.25 421.5,-338 454,-338 454,-357.25"/>
<text text-anchor="middle" x="437.75" y="-343.75" font-family="Helvetica,sans-Serif" font-size="10.00">mut</text>
</a>
</g>
</g>
<!-- Node3&#45;&gt;Node5 -->
<g id="edge4_Node000003_Node000005" class="edge">
<title>Node3&#45;&gt;Node5</title>
<g id="a_edge4_Node000003_Node000005"><a xlink:title=" ">
<path fill="none" stroke="#63b8ff" d="M305.35,-347.62C335.34,-347.62 381.04,-347.62 409.88,-347.62"/>
<polygon fill="#63b8ff" stroke="#63b8ff" points="409.6,-351.13 419.6,-347.63 409.6,-344.13 409.6,-351.13"/>
</a>
</g>
</g>
<!-- Node6 -->
<g id="Node000006" class="node">
<title>Node6</title>
<g id="a_Node000006"><a xlink:href="../../dd/d6e/_source_8cpp_ac3ca177b69f77a5b94aab7a11081b284.html#ac3ca177b69f77a5b94aab7a11081b284" target="_top" xlink:title=" ">
<polygon fill="white" stroke="#666666" points="591.5,-206.25 535.75,-206.25 535.75,-187 591.5,-187 591.5,-206.25"/>
<text text-anchor="middle" x="563.62" y="-192.75" font-family="Helvetica,sans-Serif" font-size="10.00">void_frac</text>
</a>
</g>
</g>
<!-- Node3&#45;&gt;Node6 -->
<g id="edge5_Node000003_Node000006" class="edge">
<title>Node3&#45;&gt;Node6</title>
<g id="a_edge5_Node000003_Node000006"><a xlink:title=" ">
<path fill="none" stroke="#63b8ff" d="M296.54,-357.62C339.25,-376.19 437.03,-410.3 499.75,-366.62 548.94,-332.37 559.74,-254.98 562.04,-217.61"/>
<polygon fill="#63b8ff" stroke="#63b8ff" points="565.52,-218.25 562.47,-208.1 558.53,-217.93 565.52,-218.25"/>
</a>
</g>
</g>
<!-- Node7 -->
<g id="Node000007" class="node">
<title>Node7</title>
<g id="a_Node000007"><a xlink:href="../../dd/d6e/_source_8cpp_a42cdee75cffdb3d6c374b6a29bb321d2.html#a42cdee75cffdb3d6c374b6a29bb321d2" target="_top" xlink:title=" ">
<polygon fill="white" stroke="#666666" points="709.5,-206.25 627.5,-206.25 627.5,-187 709.5,-187 709.5,-206.25"/>
<text text-anchor="middle" x="668.5" y="-192.75" font-family="Helvetica,sans-Serif" font-size="10.00">void_frac_fines</text>
</a>
</g>
</g>
<!-- Node6&#45;&gt;Node7 -->
<g id="edge6_Node000006_Node000007" class="edge">
<title>Node6&#45;&gt;Node7</title>
<g id="a_edge6_Node000006_Node000007"><a xlink:title=" ">
<path fill="none" stroke="#63b8ff" d="M591.92,-196.62C599.37,-196.62 607.69,-196.62 616.02,-196.62"/>
<polygon fill="#63b8ff" stroke="#63b8ff" points="615.77,-200.13 625.77,-196.63 615.77,-193.13 615.77,-200.13"/>
</a>
</g>
</g>
<!-- Node8 -->
<g id="Node000008" class="node">
<title>Node8</title>
<g id="a_Node000008"><a xlink:href="../../dd/d6e/_source_8cpp_a1c3ca4636bc91c6cacc838651bebc494.html#a1c3ca4636bc91c6cacc838651bebc494" target="_top" xlink:title=" ">
<polygon fill="white" stroke="#666666" points="709.12,-169.25 627.88,-169.25 627.88,-150 709.12,-150 709.12,-169.25"/>
<text text-anchor="middle" x="668.5" y="-155.75" font-family="Helvetica,sans-Serif" font-size="10.00">void_frac_solid</text>
</a>
</g>
</g>
<!-- Node6&#45;&gt;Node8 -->
<g id="edge7_Node000006_Node000008" class="edge">
<title>Node6&#45;&gt;Node8</title>
<g id="a_edge7_Node000006_Node000008"><a xlink:title=" ">
<path fill="none" stroke="#63b8ff" d="M591.92,-186.81C603.25,-182.73 616.59,-177.93 628.89,-173.51"/>
<polygon fill="#63b8ff" stroke="#63b8ff" points="629.71,-176.94 637.93,-170.26 627.34,-170.35 629.71,-176.94"/>
</a>
</g>
</g>
<!-- Node10 -->
<g id="Node000010" class="node">
<title>Node10</title>
<g id="a_Node000010"><a xlink:href="../../dd/d6e/_source_8cpp_ad1286ce446bd24bcbdfecfe85808c943.html#ad1286ce446bd24bcbdfecfe85808c943" target="_top" xlink:title=" ">
<polygon fill="white" stroke="#666666" points="455.12,-55.25 420.38,-55.25 420.38,-36 455.12,-36 455.12,-55.25"/>
<text text-anchor="middle" x="437.75" y="-41.75" font-family="Helvetica,sans-Serif" font-size="10.00">max</text>
</a>
</g>
</g>
<!-- Node9&#45;&gt;Node10 -->
<g id="edge10_Node000009_Node000010" class="edge">
<title>Node9&#45;&gt;Node10</title>
<g id="a_edge10_Node000009_Node000010"><a xlink:title=" ">
<path fill="none" stroke="#63b8ff" d="M318.2,-73.54C346.92,-66.78 383.93,-58.06 408.9,-52.18"/>
<polygon fill="#63b8ff" stroke="#63b8ff" points="409.69,-55.59 418.63,-49.89 408.09,-48.78 409.69,-55.59"/>
</a>
</g>
</g>
<!-- Node12&#45;&gt;Node4 -->
<g id="edge13_Node000012_Node000004" class="edge">
<title>Node12&#45;&gt;Node4</title>
<g id="a_edge13_Node000012_Node000004"><a xlink:title=" ">
<path fill="none" stroke="#63b8ff" d="M305.35,-302.57C327.03,-297.46 356.91,-290.42 382.71,-284.35"/>
<polygon fill="#63b8ff" stroke="#63b8ff" points="383.45,-287.77 392.38,-282.07 381.84,-280.96 383.45,-287.77"/>
</a>
</g>
</g>
<!-- Node12&#45;&gt;Node5 -->
<g id="edge14_Node000012_Node000005" class="edge">
<title>Node12&#45;&gt;Node5</title>
<g id="a_edge14_Node000012_Node000005"><a xlink:title=" ">
<path fill="none" stroke="#63b8ff" d="M305.35,-316.68C335.47,-323.78 381.45,-334.6 410.27,-341.39"/>
<polygon fill="#63b8ff" stroke="#63b8ff" points="409.11,-344.71 419.64,-343.6 410.71,-337.9 409.11,-344.71"/>
</a>
</g>
</g>
<!-- Node12&#45;&gt;Node6 -->
<g id="edge15_Node000012_Node000006" class="edge">
<title>Node12&#45;&gt;Node6</title>
<g id="a_edge15_Node000012_Node000006"><a xlink:title=" ">
<path fill="none" stroke="#63b8ff" d="M305.04,-314.79C350.43,-321.09 438.3,-326.87 499.75,-290.62 527.85,-274.05 545.96,-239.4 555.21,-217.11"/>
<polygon fill="#63b8ff" stroke="#63b8ff" points="558.44,-218.47 558.8,-207.88 551.91,-215.94 558.44,-218.47"/>
</a>
</g>
</g>
<!-- Node13&#45;&gt;Node4 -->
<g id="edge17_Node000013_Node000004" class="edge">
<title>Node13&#45;&gt;Node4</title>
<g id="a_edge17_Node000013_Node000004"><a xlink:title=" ">
<path fill="none" stroke="#63b8ff" d="M302.39,-239.99C324.31,-245.15 355.91,-252.59 382.95,-258.96"/>
<polygon fill="#63b8ff" stroke="#63b8ff" points="381.83,-262.29 392.36,-261.17 383.43,-255.47 381.83,-262.29"/>
</a>
</g>
</g>
<!-- Node14&#45;&gt;Node4 -->
<g id="edge19_Node000014_Node000004" class="edge">
<title>Node14&#45;&gt;Node4</title>
<g id="a_edge19_Node000014_Node000004"><a xlink:title=" ">
<path fill="none" stroke="#63b8ff" d="M302.47,-201.24C314.4,-204 328.29,-208.25 339.75,-214.62 358.72,-225.17 357.34,-236.13 375.75,-247.62 381.44,-251.18 387.74,-254.37 394.07,-257.17"/>
<polygon fill="#63b8ff" stroke="#63b8ff" points="392.68,-260.38 403.26,-260.95 395.34,-253.91 392.68,-260.38"/>
</a>
</g>
</g>
<!-- Node14&#45;&gt;Node6 -->
<g id="edge24_Node000014_Node000006" class="edge">
<title>Node14&#45;&gt;Node6</title>
<g id="a_edge24_Node000014_Node000006"><a xlink:title=" ">
<path fill="none" stroke="#63b8ff" d="M302.46,-202.83C322.56,-207.1 350.71,-212.4 375.75,-214.62 430.64,-219.51 445.17,-222.28 499.75,-214.62 507.85,-213.49 516.37,-211.57 524.44,-209.39"/>
<polygon fill="#63b8ff" stroke="#63b8ff" points="525.35,-212.77 533.98,-206.62 523.41,-206.04 525.35,-212.77"/>
</a>
</g>
</g>
<!-- Node15 -->
<g id="Node000015" class="node">
<title>Node15</title>
<g id="a_Node000015"><a xlink:href="../../dd/d6e/_source_8cpp_af37f00cf67f41b7a1019a6fa6fd532e8.html#af37f00cf67f41b7a1019a6fa6fd532e8" target="_top" xlink:title=" ">
<polygon fill="white" stroke="#666666" points="456.62,-168.25 418.88,-168.25 418.88,-149 456.62,-149 456.62,-168.25"/>
<text text-anchor="middle" x="437.75" y="-154.75" font-family="Helvetica,sans-Serif" font-size="10.00">F_gp</text>
</a>
</g>
</g>
<!-- Node14&#45;&gt;Node15 -->
<g id="edge20_Node000014_Node000015" class="edge">
<title>Node14&#45;&gt;Node15</title>
<g id="a_edge20_Node000014_Node000015"><a xlink:title=" ">
<path fill="none" stroke="#63b8ff" d="M302.39,-190.26C331.54,-183.4 377.79,-172.51 407.71,-165.46"/>
<polygon fill="#63b8ff" stroke="#63b8ff" points="408.27,-168.93 417.21,-163.23 406.67,-162.11 408.27,-168.93"/>
</a>
</g>
</g>
<!-- Node16 -->
<g id="Node000016" class="node">
<title>Node16</title>
<g id="a_Node000016"><a xlink:href="../../dd/d6e/_source_8cpp_aea0442b50b0f845a33d9556d9728dd56.html#aea0442b50b0f845a33d9556d9728dd56" target="_top" xlink:title=" ">
<polygon fill="white" stroke="#666666" points="455.12,-205.25 420.38,-205.25 420.38,-186 455.12,-186 455.12,-205.25"/>
<text text-anchor="middle" x="437.75" y="-191.75" font-family="Helvetica,sans-Serif" font-size="10.00">mue</text>
</a>
</g>
</g>
<!-- Node14&#45;&gt;Node16 -->
<g id="edge23_Node000014_Node000016" class="edge">
<title>Node14&#45;&gt;Node16</title>
<g id="a_edge23_Node000014_Node000016"><a xlink:title=" ">
<path fill="none" stroke="#63b8ff" d="M302.39,-196.46C331.88,-196.27 378.88,-195.98 408.76,-195.8"/>
<polygon fill="#63b8ff" stroke="#63b8ff" points="408.55,-199.3 418.53,-195.74 408.51,-192.3 408.55,-199.3"/>
</a>
</g>
</g>
<!-- Node15&#45;&gt;Node6 -->
<g id="edge21_Node000015_Node000006" class="edge">
<title>Node15&#45;&gt;Node6</title>
<g id="a_edge21_Node000015_Node000006"><a xlink:title=" ">
<path fill="none" stroke="#63b8ff" d="M456.93,-163.88C469.07,-167.42 485.39,-172.22 499.75,-176.62 507.81,-179.09 516.42,-181.8 524.62,-184.39"/>
<polygon fill="#63b8ff" stroke="#63b8ff" points="523.4,-187.68 533.99,-187.38 525.52,-181.01 523.4,-187.68"/>
</a>
</g>
</g>
<!-- Node15&#45;&gt;Node8 -->
<g id="edge22_Node000015_Node000008" class="edge">
<title>Node15&#45;&gt;Node8</title>
<g id="a_edge22_Node000015_Node000008"><a xlink:title=" ">
<path fill="none" stroke="#63b8ff" d="M457.08,-158.71C491.21,-158.85 565.61,-159.18 616.14,-159.4"/>
<polygon fill="#63b8ff" stroke="#63b8ff" points="615.96,-162.9 625.97,-159.44 615.99,-155.9 615.96,-162.9"/>
</a>
</g>
</g>
<!-- Node17&#45;&gt;Node6 -->
<g id="edge26_Node000017_Node000006" class="edge">
<title>Node17&#45;&gt;Node6</title>
<g id="a_edge26_Node000017_Node000006"><a xlink:title=" ">
<path fill="none" stroke="#63b8ff" d="M468.83,-90.54C479.33,-94.27 490.73,-99.51 499.75,-106.62 523.75,-125.56 542.36,-156.1 552.91,-176.27"/>
<polygon fill="#63b8ff" stroke="#63b8ff" points="549.76,-177.8 557.37,-185.17 556.02,-174.66 549.76,-177.8"/>
</a>
</g>
</g>
<!-- Node18&#45;&gt;Node4 -->
<g id="edge28_Node000018_Node000004" class="edge">
<title>Node18&#45;&gt;Node4</title>
<g id="a_edge28_Node000018_Node000004"><a xlink:title=" ">
<path fill="none" stroke="#63b8ff" d="M302.64,-163.93C314.61,-166.64 328.47,-170.93 339.75,-177.62 359.48,-189.34 359.36,-198.57 375.75,-214.62 389.44,-228.04 405.27,-242.82 417.37,-253.96"/>
<polygon fill="#63b8ff" stroke="#63b8ff" points="414.95,-256.49 424.69,-260.66 419.68,-251.33 414.95,-256.49"/>
</a>
</g>
</g>
<!-- Node18&#45;&gt;Node6 -->
<g id="edge31_Node000018_Node000006" class="edge">
<title>Node18&#45;&gt;Node6</title>
<g id="a_edge31_Node000018_Node000006"><a xlink:title=" ">
<path fill="none" stroke="#63b8ff" d="M302.71,-149.62C346.07,-135.39 432.61,-113.72 499.75,-139.62 519.63,-147.3 537.12,-164.49 548.57,-178"/>
<polygon fill="#63b8ff" stroke="#63b8ff" points="545.54,-179.83 554.54,-185.42 551,-175.44 545.54,-179.83"/>
</a>
</g>
</g>
<!-- Node18&#45;&gt;Node15 -->
<g id="edge29_Node000018_Node000015" class="edge">
<title>Node18&#45;&gt;Node15</title>
<g id="a_edge29_Node000018_Node000015"><a xlink:title=" ">
<path fill="none" stroke="#63b8ff" d="M302.39,-159.46C331.41,-159.28 377.38,-158.99 407.31,-158.81"/>
<polygon fill="#63b8ff" stroke="#63b8ff" points="407.19,-162.31 417.17,-158.75 407.14,-155.31 407.19,-162.31"/>
</a>
</g>
</g>
<!-- Node18&#45;&gt;Node16 -->
<g id="edge30_Node000018_Node000016" class="edge">
<title>Node18&#45;&gt;Node16</title>
<g id="a_edge30_Node000018_Node000016"><a xlink:title=" ">
<path fill="none" stroke="#63b8ff" d="M302.39,-165.65C332.01,-172.26 379.3,-182.81 409.16,-189.47"/>
<polygon fill="#63b8ff" stroke="#63b8ff" points="408.04,-192.81 418.56,-191.57 409.57,-185.97 408.04,-192.81"/>
</a>
</g>
</g>
</g>
</svg>
