<?xml version="1.0" encoding="UTF-8" standalone="no"?>
<!DOCTYPE svg PUBLIC "-//W3C//DTD SVG 1.1//EN"
 "http://www.w3.org/Graphics/SVG/1.1/DTD/svg11.dtd">
<!-- Generated by graphviz version 12.2.1 (20241206.2353)
 -->
<!-- Title: Flow_Over_Bump Pages: 1 -->
<svg width="661pt" height="407pt"
 viewBox="0.00 0.00 661.00 407.25" xmlns="http://www.w3.org/2000/svg" xmlns:xlink="http://www.w3.org/1999/xlink">
<g id="graph0" class="graph" transform="scale(1 1) rotate(0) translate(4 403.25)">
<title>Flow_Over_Bump</title>
<!-- Node1 -->
<g id="Node000001" class="node">
<title>Node1</title>
<g id="a_Node000001"><a xlink:title=" ">
<polygon fill="#999999" stroke="#666666" points="94,-187.25 0,-187.25 0,-168 94,-168 94,-187.25"/>
<text text-anchor="middle" x="47" y="-173.75" font-family="Helvetica,sans-Serif" font-size="10.00">Flow_Over_Bump</text>
</a>
</g>
</g>
<!-- Node2 -->
<g id="Node000002" class="node">
<title>Node2</title>
<g id="a_Node000002"><a xlink:href="../../df/d43/_basic___functions_8cpp_a9ca12fb8f920cab38313323cf0c4bf53.html#a9ca12fb8f920cab38313323cf0c4bf53" target="_top" xlink:title=" ">
<polygon fill="white" stroke="#666666" points="255.5,-389.88 130,-389.88 130,-359.38 255.5,-359.38 255.5,-389.88"/>
<text text-anchor="start" x="138" y="-376.38" font-family="Helvetica,sans-Serif" font-size="10.00">Calculate_Computational</text>
<text text-anchor="middle" x="192.75" y="-365.12" font-family="Helvetica,sans-Serif" font-size="10.00">_Variables</text>
</a>
</g>
</g>
<!-- Node1&#45;&gt;Node2 -->
<g id="edge1_Node000001_Node000002" class="edge">
<title>Node1&#45;&gt;Node2</title>
<g id="a_edge1_Node000001_Node000002"><a xlink:title=" ">
<path fill="none" stroke="#63b8ff" d="M50.09,-187.68C56.64,-216.77 79.42,-302 130,-349.62 131.07,-350.63 132.18,-351.59 133.33,-352.52"/>
<polygon fill="#63b8ff" stroke="#63b8ff" points="131.29,-355.37 141.52,-358.09 135.22,-349.58 131.29,-355.37"/>
</a>
</g>
</g>
<!-- Node3 -->
<g id="Node000003" class="node">
<title>Node3</title>
<g id="a_Node000003"><a xlink:href="../../df/d43/_basic___functions_8cpp_a1c199e756f8458978961b4d9ab4cbe63.html#a1c199e756f8458978961b4d9ab4cbe63" target="_top" xlink:title=" ">
<polygon fill="white" stroke="#666666" points="243.12,-340.88 142.38,-340.88 142.38,-310.38 243.12,-310.38 243.12,-340.88"/>
<text text-anchor="start" x="150.38" y="-327.38" font-family="Helvetica,sans-Serif" font-size="10.00">Calculate_Primitive</text>
<text text-anchor="middle" x="192.75" y="-316.12" font-family="Helvetica,sans-Serif" font-size="10.00">_Variables</text>
</a>
</g>
</g>
<!-- Node1&#45;&gt;Node3 -->
<g id="edge2_Node000001_Node000003" class="edge">
<title>Node1&#45;&gt;Node3</title>
<g id="a_edge2_Node000001_Node000003"><a xlink:title=" ">
<path fill="none" stroke="#63b8ff" d="M51.99,-187.48C61.82,-210.61 89.42,-268.9 130,-301.62 130.96,-302.4 131.95,-303.15 132.97,-303.89"/>
<polygon fill="#63b8ff" stroke="#63b8ff" points="131.01,-306.79 141.35,-309.08 134.69,-300.84 131.01,-306.79"/>
</a>
</g>
</g>
<!-- Node5 -->
<g id="Node000005" class="node">
<title>Node5</title>
<g id="a_Node000005"><a xlink:href="../../da/d3e/output__files_8cpp_ac7e61b153a6d26ffbefde7b5b86d55a7.html#ac7e61b153a6d26ffbefde7b5b86d55a7" target="_top" xlink:title=" ">
<polygon fill="white" stroke="#666666" points="236.38,-292.25 149.12,-292.25 149.12,-273 236.38,-273 236.38,-292.25"/>
<text text-anchor="middle" x="192.75" y="-278.75" font-family="Helvetica,sans-Serif" font-size="10.00">Directory_Name</text>
</a>
</g>
</g>
<!-- Node1&#45;&gt;Node5 -->
<g id="edge4_Node000001_Node000005" class="edge">
<title>Node1&#45;&gt;Node5</title>
<g id="a_edge4_Node000001_Node000005"><a xlink:title=" ">
<path fill="none" stroke="#63b8ff" d="M54.89,-187.72C67.64,-205.62 96.66,-243.01 130,-263.62 132.73,-265.31 135.62,-266.86 138.6,-268.28"/>
<polygon fill="#63b8ff" stroke="#63b8ff" points="137,-271.4 147.58,-272.03 139.7,-264.94 137,-271.4"/>
</a>
</g>
</g>
<!-- Node6 -->
<g id="Node000006" class="node">
<title>Node6</title>
<g id="a_Node000006"><a xlink:href="../../db/d81/_viscous___calculations_8cpp_a5d9a0b19b8197154141a02ed0e831e26.html#a5d9a0b19b8197154141a02ed0e831e26" target="_top" xlink:title=" ">
<polygon fill="white" stroke="#666666" points="244.25,-254.88 141.25,-254.88 141.25,-224.38 244.25,-224.38 244.25,-254.88"/>
<text text-anchor="start" x="149.25" y="-241.38" font-family="Helvetica,sans-Serif" font-size="10.00">Evaluate_Wall_Skin</text>
<text text-anchor="middle" x="192.75" y="-230.12" font-family="Helvetica,sans-Serif" font-size="10.00">_Friction</text>
</a>
</g>
</g>
<!-- Node1&#45;&gt;Node6 -->
<g id="edge5_Node000001_Node000006" class="edge">
<title>Node1&#45;&gt;Node6</title>
<g id="a_edge5_Node000001_Node000006"><a xlink:title=" ">
<path fill="none" stroke="#63b8ff" d="M68.73,-187.68C85.21,-195.56 108.92,-206.66 130,-215.62 133.18,-216.98 136.46,-218.34 139.78,-219.7"/>
<polygon fill="#63b8ff" stroke="#63b8ff" points="138.43,-222.93 149.01,-223.41 141.04,-216.43 138.43,-222.93"/>
</a>
</g>
</g>
<!-- Node10 -->
<g id="Node000010" class="node">
<title>Node10</title>
<g id="a_Node000010"><a xlink:href="../../da/d3e/output__files_8cpp_a2a6bf38afe949ce5a6cd1b3641c49c25.html#a2a6bf38afe949ce5a6cd1b3641c49c25" target="_top" xlink:title=" ">
<polygon fill="white" stroke="#666666" points="383.62,-91.25 320.38,-91.25 320.38,-72 383.62,-72 383.62,-91.25"/>
<text text-anchor="middle" x="352" y="-77.75" font-family="Helvetica,sans-Serif" font-size="10.00">File_Name</text>
</a>
</g>
</g>
<!-- Node1&#45;&gt;Node10 -->
<g id="edge9_Node000001_Node000010" class="edge">
<title>Node1&#45;&gt;Node10</title>
<g id="a_edge9_Node000001_Node000010"><a xlink:title=" ">
<path fill="none" stroke="#63b8ff" d="M94.5,-177.41C138.5,-175.36 205.13,-167.36 255.5,-139.62 276.16,-128.25 271.61,-113.3 291.5,-100.62 297.01,-97.12 303.22,-94.21 309.49,-91.81"/>
<polygon fill="#63b8ff" stroke="#63b8ff" points="310.23,-95.26 318.57,-88.73 307.98,-88.63 310.23,-95.26"/>
</a>
</g>
</g>
<!-- Node11 -->
<g id="Node000011" class="node">
<title>Node11</title>
<g id="a_Node000011"><a xlink:href="../../d8/d40/_grid___computations_8cpp_a831dcf7cbf36ddf425ce0753495ba3c6.html#a831dcf7cbf36ddf425ce0753495ba3c6" target="_top" xlink:title=" ">
<polygon fill="white" stroke="#666666" points="225.88,-206.25 159.62,-206.25 159.62,-187 225.88,-187 225.88,-206.25"/>
<text text-anchor="middle" x="192.75" y="-192.75" font-family="Helvetica,sans-Serif" font-size="10.00">Form_Cells</text>
</a>
</g>
</g>
<!-- Node1&#45;&gt;Node11 -->
<g id="edge10_Node000001_Node000011" class="edge">
<title>Node1&#45;&gt;Node11</title>
<g id="a_edge10_Node000001_Node000011"><a xlink:title=" ">
<path fill="none" stroke="#63b8ff" d="M94.27,-183.74C111.48,-186.02 130.94,-188.59 147.92,-190.83"/>
<polygon fill="#63b8ff" stroke="#63b8ff" points="147.34,-194.29 157.72,-192.13 148.26,-187.35 147.34,-194.29"/>
</a>
</g>
</g>
<!-- Node23 -->
<g id="Node000023" class="node">
<title>Node23</title>
<g id="a_Node000023"><a xlink:href="../../d7/d6d/_initialize_8cpp_acc3c3292e370176c51c654a01e651e24.html#acc3c3292e370176c51c654a01e651e24" target="_top" xlink:title=" ">
<polygon fill="white" stroke="#666666" points="218.75,-56.25 166.75,-56.25 166.75,-37 218.75,-37 218.75,-56.25"/>
<text text-anchor="middle" x="192.75" y="-42.75" font-family="Helvetica,sans-Serif" font-size="10.00">Initialize</text>
</a>
</g>
</g>
<!-- Node1&#45;&gt;Node23 -->
<g id="edge24_Node000001_Node000023" class="edge">
<title>Node1&#45;&gt;Node23</title>
<g id="a_edge24_Node000001_Node000023"><a xlink:title=" ">
<path fill="none" stroke="#63b8ff" d="M52.36,-167.77C62.61,-145.8 90.36,-92.53 130,-64.62 137.51,-59.34 146.57,-55.59 155.41,-52.94"/>
<polygon fill="#63b8ff" stroke="#63b8ff" points="156.07,-56.38 164.89,-50.51 154.33,-49.6 156.07,-56.38"/>
</a>
</g>
</g>
<!-- Node25 -->
<g id="Node000025" class="node">
<title>Node25</title>
<g id="a_Node000025"><a xlink:href="../../db/d81/_viscous___calculations_8cpp_ace6d77409787d1bc742eacb24948dfd1.html#ace6d77409787d1bc742eacb24948dfd1" target="_top" xlink:title=" ">
<polygon fill="white" stroke="#666666" points="240.5,-93.25 145,-93.25 145,-74 240.5,-74 240.5,-93.25"/>
<text text-anchor="middle" x="192.75" y="-79.75" font-family="Helvetica,sans-Serif" font-size="10.00">Reference_Values</text>
</a>
</g>
</g>
<!-- Node1&#45;&gt;Node25 -->
<g id="edge26_Node000001_Node000025" class="edge">
<title>Node1&#45;&gt;Node25</title>
<g id="a_edge26_Node000001_Node000025"><a xlink:title=" ">
<path fill="none" stroke="#63b8ff" d="M55.99,-167.68C69.54,-151.48 98.59,-119.42 130,-101.62 132.34,-100.3 134.78,-99.07 137.29,-97.92"/>
<polygon fill="#63b8ff" stroke="#63b8ff" points="138.49,-101.21 146.46,-94.22 135.87,-94.71 138.49,-101.21"/>
</a>
</g>
</g>
<!-- Node26 -->
<g id="Node000026" class="node">
<title>Node26</title>
<g id="a_Node000026"><a xlink:href="../../da/d3e/output__files_8cpp_a38d0be544847273a1bff3a28e3368e67.html#a38d0be544847273a1bff3a28e3368e67" target="_top" xlink:title=" ">
<polygon fill="white" stroke="#666666" points="231.88,-130.25 153.62,-130.25 153.62,-111 231.88,-111 231.88,-130.25"/>
<text text-anchor="middle" x="192.75" y="-116.75" font-family="Helvetica,sans-Serif" font-size="10.00">Write_CF_File</text>
</a>
</g>
</g>
<!-- Node1&#45;&gt;Node26 -->
<g id="edge27_Node000001_Node000026" class="edge">
<title>Node1&#45;&gt;Node26</title>
<g id="a_edge27_Node000001_Node000026"><a xlink:title=" ">
<path fill="none" stroke="#63b8ff" d="M72.73,-167.58C88.99,-161.01 110.74,-152.24 130,-144.62 138.11,-141.42 146.82,-138.01 155.08,-134.79"/>
<polygon fill="#63b8ff" stroke="#63b8ff" points="156.12,-138.15 164.17,-131.26 153.58,-131.62 156.12,-138.15"/>
</a>
</g>
</g>
<!-- Node27 -->
<g id="Node000027" class="node">
<title>Node27</title>
<g id="a_Node000027"><a xlink:href="../../da/d3e/output__files_8cpp_ac49d22b87cab7fa46da37546b7af78b0.html#ac49d22b87cab7fa46da37546b7af78b0" target="_top" xlink:title=" ">
<polygon fill="white" stroke="#666666" points="232.25,-19.25 153.25,-19.25 153.25,0 232.25,0 232.25,-19.25"/>
<text text-anchor="middle" x="192.75" y="-5.75" font-family="Helvetica,sans-Serif" font-size="10.00">Write_Solution</text>
</a>
</g>
</g>
<!-- Node1&#45;&gt;Node27 -->
<g id="edge29_Node000001_Node000027" class="edge">
<title>Node1&#45;&gt;Node27</title>
<g id="a_edge29_Node000001_Node000027"><a xlink:title=" ">
<path fill="none" stroke="#63b8ff" d="M50.49,-167.86C57.82,-141.15 81.89,-66.3 130,-27.62 133.72,-24.63 137.92,-22.14 142.34,-20.06"/>
<polygon fill="#63b8ff" stroke="#63b8ff" points="143.46,-23.38 151.5,-16.47 140.91,-16.86 143.46,-23.38"/>
</a>
</g>
</g>
<!-- Node4 -->
<g id="Node000004" class="node">
<title>Node4</title>
<g id="a_Node000004"><a xlink:href="../../db/d81/_viscous___calculations_8cpp_ae9dc3225863fb110155bb3e9dea4e4d3.html#ae9dc3225863fb110155bb3e9dea4e4d3" target="_top" xlink:title=" ">
<polygon fill="white" stroke="#666666" points="380.25,-390.25 323.75,-390.25 323.75,-371 380.25,-371 380.25,-390.25"/>
<text text-anchor="middle" x="352" y="-376.75" font-family="Helvetica,sans-Serif" font-size="10.00">Viscosity</text>
</a>
</g>
</g>
<!-- Node3&#45;&gt;Node4 -->
<g id="edge3_Node000003_Node000004" class="edge">
<title>Node3&#45;&gt;Node4</title>
<g id="a_edge3_Node000003_Node000004"><a xlink:title=" ">
<path fill="none" stroke="#63b8ff" d="M234.99,-341.27C252.37,-347.74 272.86,-355.22 291.5,-361.62 298.3,-363.96 305.56,-366.36 312.6,-368.63"/>
<polygon fill="#63b8ff" stroke="#63b8ff" points="311.34,-371.9 321.93,-371.62 313.47,-365.24 311.34,-371.9"/>
</a>
</g>
</g>
<!-- Node7 -->
<g id="Node000007" class="node">
<title>Node7</title>
<g id="a_Node000007"><a xlink:href="../../d4/d5d/_grid___refine___functions_8cpp_a82a2c55106b4dfc3af8c36a285ee05b6.html#a82a2c55106b4dfc3af8c36a285ee05b6" target="_top" xlink:title="Calculate the gradient on a face of a cell.">
<polygon fill="white" stroke="#666666" points="401.62,-352.88 302.38,-352.88 302.38,-322.38 401.62,-322.38 401.62,-352.88"/>
<text text-anchor="start" x="310.38" y="-339.38" font-family="Helvetica,sans-Serif" font-size="10.00">Calculate_Gradient</text>
<text text-anchor="middle" x="352" y="-328.12" font-family="Helvetica,sans-Serif" font-size="10.00">_On_Face</text>
</a>
</g>
</g>
<!-- Node6&#45;&gt;Node7 -->
<g id="edge6_Node000006_Node000007" class="edge">
<title>Node6&#45;&gt;Node7</title>
<g id="a_edge6_Node000006_Node000007"><a xlink:title=" ">
<path fill="none" stroke="#63b8ff" d="M240.32,-255.28C245.6,-257.77 250.78,-260.55 255.5,-263.62 274.45,-275.99 273.86,-285.45 291.5,-299.62 298.55,-305.29 306.49,-310.85 314.21,-315.89"/>
<polygon fill="#63b8ff" stroke="#63b8ff" points="312.19,-318.76 322.51,-321.16 315.94,-312.85 312.19,-318.76"/>
</a>
</g>
</g>
<!-- Node8 -->
<g id="Node000008" class="node">
<title>Node8</title>
<g id="a_Node000008"><a xlink:href="../../d4/d5d/_grid___refine___functions_8cpp_a21a74c24cb35575f1574f39c39949aa2.html#a21a74c24cb35575f1574f39c39949aa2" target="_top" xlink:title=" ">
<polygon fill="white" stroke="#666666" points="564.25,-399.25 465,-399.25 465,-380 564.25,-380 564.25,-399.25"/>
<text text-anchor="middle" x="514.62" y="-385.75" font-family="Helvetica,sans-Serif" font-size="10.00">Calculate_Gradient</text>
</a>
</g>
</g>
<!-- Node7&#45;&gt;Node8 -->
<g id="edge7_Node000007_Node000008" class="edge">
<title>Node7&#45;&gt;Node8</title>
<g id="a_edge7_Node000007_Node000008"><a xlink:title=" ">
<path fill="none" stroke="#63b8ff" d="M395.09,-353.35C411.65,-359.34 430.88,-366.06 448.5,-371.62 453.61,-373.24 458.98,-374.85 464.34,-376.41"/>
<polygon fill="#63b8ff" stroke="#63b8ff" points="463.23,-379.73 473.81,-379.11 465.15,-373 463.23,-379.73"/>
</a>
</g>
</g>
<!-- Node9 -->
<g id="Node000009" class="node">
<title>Node9</title>
<g id="a_Node000009"><a xlink:href="../../d4/d5d/_grid___refine___functions_8cpp_aea18493f007f54b110b46e03b4a012ac.html#aea18493f007f54b110b46e03b4a012ac" target="_top" xlink:title=" ">
<polygon fill="white" stroke="#666666" points="580.75,-362.25 448.5,-362.25 448.5,-343 580.75,-343 580.75,-362.25"/>
<text text-anchor="middle" x="514.62" y="-348.75" font-family="Helvetica,sans-Serif" font-size="10.00">Calculate_Vertex_Average</text>
</a>
</g>
</g>
<!-- Node7&#45;&gt;Node9 -->
<g id="edge8_Node000007_Node000009" class="edge">
<title>Node7&#45;&gt;Node9</title>
<g id="a_edge8_Node000007_Node000009"><a xlink:title=" ">
<path fill="none" stroke="#63b8ff" d="M402.07,-342.21C413.11,-343.24 425.09,-344.36 436.97,-345.47"/>
<polygon fill="#63b8ff" stroke="#63b8ff" points="436.5,-348.94 446.78,-346.38 437.15,-341.97 436.5,-348.94"/>
</a>
</g>
</g>
<!-- Node12 -->
<g id="Node000012" class="node">
<title>Node12</title>
<g id="a_Node000012"><a xlink:href="../../d8/d40/_grid___computations_8cpp_a7e6f11445e90cefdcb91f369846ec691.html#a7e6f11445e90cefdcb91f369846ec691" target="_top" xlink:title=" ">
<polygon fill="white" stroke="#666666" points="409.12,-139.88 294.88,-139.88 294.88,-109.38 409.12,-109.38 409.12,-139.88"/>
<text text-anchor="start" x="302.88" y="-126.38" font-family="Helvetica,sans-Serif" font-size="10.00">Calculate_Cell_Center</text>
<text text-anchor="middle" x="352" y="-115.12" font-family="Helvetica,sans-Serif" font-size="10.00">_Distances</text>
</a>
</g>
</g>
<!-- Node11&#45;&gt;Node12 -->
<g id="edge11_Node000011_Node000012" class="edge">
<title>Node11&#45;&gt;Node12</title>
<g id="a_edge11_Node000011_Node000012"><a xlink:title=" ">
<path fill="none" stroke="#63b8ff" d="M223.54,-186.54C233.87,-182.66 245.4,-177.88 255.5,-172.62 272.56,-163.76 274.49,-157.6 291.5,-148.62 293.83,-147.4 296.23,-146.19 298.68,-145.01"/>
<polygon fill="#63b8ff" stroke="#63b8ff" points="299.88,-148.31 307.52,-140.98 296.97,-141.95 299.88,-148.31"/>
</a>
</g>
</g>
<!-- Node15 -->
<g id="Node000015" class="node">
<title>Node15</title>
<g id="a_Node000015"><a xlink:href="../../d8/d40/_grid___computations_8cpp_a209db16fba143a9833c8d4021624afb0.html#a209db16fba143a9833c8d4021624afb0" target="_top" xlink:title=" ">
<polygon fill="white" stroke="#666666" points="550.75,-251.25 478.5,-251.25 478.5,-232 550.75,-232 550.75,-251.25"/>
<text text-anchor="middle" x="514.62" y="-237.75" font-family="Helvetica,sans-Serif" font-size="10.00">Check_Cells</text>
</a>
</g>
</g>
<!-- Node11&#45;&gt;Node15 -->
<g id="edge14_Node000011_Node000015" class="edge">
<title>Node11&#45;&gt;Node15</title>
<g id="a_edge14_Node000011_Node000015"><a xlink:title=" ">
<path fill="none" stroke="#63b8ff" d="M224.23,-206.64C243.34,-212.52 268.62,-219.57 291.5,-223.62 351.48,-234.24 421.69,-238.61 466.87,-240.4"/>
<polygon fill="#63b8ff" stroke="#63b8ff" points="466.72,-243.89 476.84,-240.76 466.98,-236.9 466.72,-243.89"/>
</a>
</g>
</g>
<!-- Node16 -->
<g id="Node000016" class="node">
<title>Node16</title>
<g id="a_Node000016"><a xlink:href="../../df/daf/_co___volume___grid___computations_8cpp_a097cceef075e862683dd9f6e95d091d4.html#a097cceef075e862683dd9f6e95d091d4" target="_top" xlink:title=" ">
<polygon fill="white" stroke="#666666" points="412.12,-290.25 291.88,-290.25 291.88,-271 412.12,-271 412.12,-290.25"/>
<text text-anchor="middle" x="352" y="-276.75" font-family="Helvetica,sans-Serif" font-size="10.00">Construct_Co_Volumes</text>
</a>
</g>
</g>
<!-- Node11&#45;&gt;Node16 -->
<g id="edge15_Node000011_Node000016" class="edge">
<title>Node11&#45;&gt;Node16</title>
<g id="a_edge15_Node000011_Node000016"><a xlink:title=" ">
<path fill="none" stroke="#63b8ff" d="M226.32,-203.03C236.2,-205.9 246.74,-209.96 255.5,-215.62 275.86,-228.8 271.72,-242.6 291.5,-256.62 296.5,-260.17 302.09,-263.3 307.8,-266.03"/>
<polygon fill="#63b8ff" stroke="#63b8ff" points="306.14,-269.12 316.7,-269.9 308.93,-262.7 306.14,-269.12"/>
</a>
</g>
</g>
<!-- Node19 -->
<g id="Node000019" class="node">
<title>Node19</title>
<g id="a_Node000019"><a xlink:href="../../d8/d40/_grid___computations_8cpp_ae5f2b7a0fdbc48f8fdf897222b7ded04.html#ae5f2b7a0fdbc48f8fdf897222b7ded04" target="_top" xlink:title=" ">
<polygon fill="white" stroke="#666666" points="411,-177.25 293,-177.25 293,-158 411,-158 411,-177.25"/>
<text text-anchor="middle" x="352" y="-163.75" font-family="Helvetica,sans-Serif" font-size="10.00">Construct_Ghost_Cells</text>
</a>
</g>
</g>
<!-- Node11&#45;&gt;Node19 -->
<g id="edge18_Node000011_Node000019" class="edge">
<title>Node11&#45;&gt;Node19</title>
<g id="a_edge18_Node000011_Node000019"><a xlink:title=" ">
<path fill="none" stroke="#63b8ff" d="M226.33,-190.62C243.33,-187.48 264.77,-183.53 285.05,-179.79"/>
<polygon fill="#63b8ff" stroke="#63b8ff" points="285.48,-183.27 294.68,-178.01 284.21,-176.38 285.48,-183.27"/>
</a>
</g>
</g>
<!-- Node21 -->
<g id="Node000021" class="node">
<title>Node21</title>
<g id="a_Node000021"><a xlink:href="../../d8/d40/_grid___computations_8cpp_a663d4b3ae06e638c2f2e82ad437e831e.html#a663d4b3ae06e638c2f2e82ad437e831e" target="_top" xlink:title="Reads the input grid file and constructs physical cells, evaluates face areas, normals,...">
<polygon fill="white" stroke="#666666" points="383.25,-214.25 320.75,-214.25 320.75,-195 383.25,-195 383.25,-214.25"/>
<text text-anchor="middle" x="352" y="-200.75" font-family="Helvetica,sans-Serif" font-size="10.00">Read_Grid</text>
</a>
</g>
</g>
<!-- Node11&#45;&gt;Node21 -->
<g id="edge20_Node000011_Node000021" class="edge">
<title>Node11&#45;&gt;Node21</title>
<g id="a_edge20_Node000011_Node000021"><a xlink:title=" ">
<path fill="none" stroke="#63b8ff" d="M226.33,-198.28C250.28,-199.5 283.03,-201.17 308.96,-202.49"/>
<polygon fill="#63b8ff" stroke="#63b8ff" points="308.65,-205.98 318.82,-202.99 309.01,-198.98 308.65,-205.98"/>
</a>
</g>
</g>
<!-- Node13 -->
<g id="Node000013" class="node">
<title>Node13</title>
<g id="a_Node000013"><a xlink:href="../../d8/d40/_grid___computations_8cpp_a1f273579608200866e02e34f16a3eb6b.html#a1f273579608200866e02e34f16a3eb6b" target="_top" xlink:title=" ">
<polygon fill="white" stroke="#666666" points="580.38,-134.25 448.88,-134.25 448.88,-115 580.38,-115 580.38,-134.25"/>
<text text-anchor="middle" x="514.62" y="-120.75" font-family="Helvetica,sans-Serif" font-size="10.00">Distance_Between_Points</text>
</a>
</g>
</g>
<!-- Node12&#45;&gt;Node13 -->
<g id="edge12_Node000012_Node000013" class="edge">
<title>Node12&#45;&gt;Node13</title>
<g id="a_edge12_Node000012_Node000013"><a xlink:title=" ">
<path fill="none" stroke="#63b8ff" d="M409.18,-124.62C418.18,-124.62 427.63,-124.62 437.02,-124.62"/>
<polygon fill="#63b8ff" stroke="#63b8ff" points="436.88,-128.13 446.88,-124.63 436.88,-121.13 436.88,-128.13"/>
</a>
</g>
</g>
<!-- Node14 -->
<g id="Node000014" class="node">
<title>Node14</title>
<g id="a_Node000014"><a xlink:href="../../dc/d3a/src_2_utility___files_8cpp_abf34e0b480f7580b0cd4237a76aed670.html#abf34e0b480f7580b0cd4237a76aed670" target="_top" xlink:title=" ">
<polygon fill="white" stroke="#666666" points="653,-134.25 616.75,-134.25 616.75,-115 653,-115 653,-134.25"/>
<text text-anchor="middle" x="634.88" y="-120.75" font-family="Helvetica,sans-Serif" font-size="10.00">Print</text>
</a>
</g>
</g>
<!-- Node13&#45;&gt;Node14 -->
<g id="edge13_Node000013_Node000014" class="edge">
<title>Node13&#45;&gt;Node14</title>
<g id="a_edge13_Node000013_Node000014"><a xlink:title=" ">
<path fill="none" stroke="#63b8ff" d="M580.63,-124.62C589.26,-124.62 597.72,-124.62 605.27,-124.62"/>
<polygon fill="#63b8ff" stroke="#63b8ff" points="605.11,-128.13 615.11,-124.63 605.11,-121.13 605.11,-128.13"/>
</a>
</g>
</g>
<!-- Node17 -->
<g id="Node000017" class="node">
<title>Node17</title>
<g id="a_Node000017"><a xlink:href="../../d8/d40/_grid___computations_8cpp_a0d19b951f556ac7a935819a38d2e1a6f.html#a0d19b951f556ac7a935819a38d2e1a6f" target="_top" xlink:title=" ">
<polygon fill="white" stroke="#666666" points="557.5,-325.25 471.75,-325.25 471.75,-306 557.5,-306 557.5,-325.25"/>
<text text-anchor="middle" x="514.62" y="-311.75" font-family="Helvetica,sans-Serif" font-size="10.00">Construct_Face</text>
</a>
</g>
</g>
<!-- Node16&#45;&gt;Node17 -->
<g id="edge16_Node000016_Node000017" class="edge">
<title>Node16&#45;&gt;Node17</title>
<g id="a_edge16_Node000016_Node000017"><a xlink:title=" ">
<path fill="none" stroke="#63b8ff" d="M399.46,-290.75C418.44,-294.88 440.5,-299.69 460.14,-303.97"/>
<polygon fill="#63b8ff" stroke="#63b8ff" points="459.39,-307.39 469.91,-306.1 460.88,-300.55 459.39,-307.39"/>
</a>
</g>
</g>
<!-- Node18 -->
<g id="Node000018" class="node">
<title>Node18</title>
<g id="a_Node000018"><a xlink:href="../../d8/d40/_grid___computations_8cpp_a29418163b6fbd0aa81c60026e430d0b8.html#a29418163b6fbd0aa81c60026e430d0b8" target="_top" xlink:title=" ">
<polygon fill="white" stroke="#666666" points="577,-288.25 452.25,-288.25 452.25,-269 577,-269 577,-288.25"/>
<text text-anchor="middle" x="514.62" y="-274.75" font-family="Helvetica,sans-Serif" font-size="10.00">Evaluate_Cross_Product</text>
</a>
</g>
</g>
<!-- Node16&#45;&gt;Node18 -->
<g id="edge17_Node000016_Node000018" class="edge">
<title>Node16&#45;&gt;Node18</title>
<g id="a_edge17_Node000016_Node000018"><a xlink:title=" ">
<path fill="none" stroke="#63b8ff" d="M412.35,-279.89C421.5,-279.77 431.04,-279.65 440.45,-279.54"/>
<polygon fill="#63b8ff" stroke="#63b8ff" points="440.36,-283.04 450.31,-279.41 440.27,-276.04 440.36,-283.04"/>
</a>
</g>
</g>
<!-- Node20 -->
<g id="Node000020" class="node">
<title>Node20</title>
<g id="a_Node000020"><a xlink:href="../../d8/d40/_grid___computations_8cpp_a2d284e26ddef582519953e8b8300184e.html#a2d284e26ddef582519953e8b8300184e" target="_top" xlink:title=" ">
<polygon fill="white" stroke="#666666" points="555.25,-177.25 474,-177.25 474,-158 555.25,-158 555.25,-177.25"/>
<text text-anchor="middle" x="514.62" y="-163.75" font-family="Helvetica,sans-Serif" font-size="10.00">Construct_Cell</text>
</a>
</g>
</g>
<!-- Node19&#45;&gt;Node20 -->
<g id="edge19_Node000019_Node000020" class="edge">
<title>Node19&#45;&gt;Node20</title>
<g id="a_edge19_Node000019_Node000020"><a xlink:title=" ">
<path fill="none" stroke="#63b8ff" d="M411.44,-167.62C428.05,-167.62 446,-167.62 462.15,-167.62"/>
<polygon fill="#63b8ff" stroke="#63b8ff" points="462.04,-171.13 472.04,-167.63 462.04,-164.13 462.04,-171.13"/>
</a>
</g>
</g>
<!-- Node21&#45;&gt;Node15 -->
<g id="edge21_Node000021_Node000015" class="edge">
<title>Node21&#45;&gt;Node15</title>
<g id="a_edge21_Node000021_Node000015"><a xlink:title=" ">
<path fill="none" stroke="#63b8ff" d="M383.59,-211.67C407.17,-217.1 440.16,-224.7 467.02,-230.89"/>
<polygon fill="#63b8ff" stroke="#63b8ff" points="466.1,-234.27 476.63,-233.1 467.67,-227.45 466.1,-234.27"/>
</a>
</g>
</g>
<!-- Node21&#45;&gt;Node20 -->
<g id="edge22_Node000021_Node000020" class="edge">
<title>Node21&#45;&gt;Node20</title>
<g id="a_edge22_Node000021_Node000020"><a xlink:title=" ">
<path fill="none" stroke="#63b8ff" d="M383.59,-197.58C405.87,-192.45 436.57,-185.37 462.54,-179.39"/>
<polygon fill="#63b8ff" stroke="#63b8ff" points="463.29,-182.81 472.25,-177.16 461.72,-175.99 463.29,-182.81"/>
</a>
</g>
</g>
<!-- Node22 -->
<g id="Node000022" class="node">
<title>Node22</title>
<g id="a_Node000022"><a xlink:href="../../d8/d40/_grid___computations_8cpp_aa376223dcb91990013ac6549090115ea.html#aa376223dcb91990013ac6549090115ea" target="_top" xlink:title=" ">
<polygon fill="white" stroke="#666666" points="563.88,-214.25 465.38,-214.25 465.38,-195 563.88,-195 563.88,-214.25"/>
<text text-anchor="middle" x="514.62" y="-200.75" font-family="Helvetica,sans-Serif" font-size="10.00">Conversion_Factor</text>
</a>
</g>
</g>
<!-- Node21&#45;&gt;Node22 -->
<g id="edge23_Node000021_Node000022" class="edge">
<title>Node21&#45;&gt;Node22</title>
<g id="a_edge23_Node000021_Node000022"><a xlink:title=" ">
<path fill="none" stroke="#63b8ff" d="M383.59,-204.62C403.38,-204.62 429.81,-204.62 453.68,-204.62"/>
<polygon fill="#63b8ff" stroke="#63b8ff" points="453.63,-208.13 463.63,-204.63 453.63,-201.13 453.63,-208.13"/>
</a>
</g>
</g>
<!-- Node24 -->
<g id="Node000024" class="node">
<title>Node24</title>
<g id="a_Node000024"><a xlink:href="../../d4/d5d/_grid___refine___functions_8cpp_add867401ba6818c3d6480ec342cb0eaa.html#add867401ba6818c3d6480ec342cb0eaa" target="_top" xlink:title="Identifies the secondary neighbors of a given cell to evaluate second gradients.">
<polygon fill="white" stroke="#666666" points="412.5,-53.88 291.5,-53.88 291.5,-23.38 412.5,-23.38 412.5,-53.88"/>
<text text-anchor="start" x="299.5" y="-40.38" font-family="Helvetica,sans-Serif" font-size="10.00">Identify_Neighbours</text>
<text text-anchor="middle" x="352" y="-29.12" font-family="Helvetica,sans-Serif" font-size="10.00">_For_Second_Gradients</text>
</a>
</g>
</g>
<!-- Node23&#45;&gt;Node24 -->
<g id="edge25_Node000023_Node000024" class="edge">
<title>Node23&#45;&gt;Node24</title>
<g id="a_edge25_Node000023_Node000024"><a xlink:title=" ">
<path fill="none" stroke="#63b8ff" d="M219.01,-45.34C235.58,-44.5 258.12,-43.35 279.88,-42.24"/>
<polygon fill="#63b8ff" stroke="#63b8ff" points="279.84,-45.75 289.65,-41.75 279.48,-38.76 279.84,-45.75"/>
</a>
</g>
</g>
<!-- Node26&#45;&gt;Node10 -->
<g id="edge28_Node000026_Node000010" class="edge">
<title>Node26&#45;&gt;Node10</title>
<g id="a_edge28_Node000026_Node000010"><a xlink:title=" ">
<path fill="none" stroke="#63b8ff" d="M232.22,-111.08C255.53,-105.3 285.28,-97.92 309.18,-92"/>
<polygon fill="#63b8ff" stroke="#63b8ff" points="309.71,-95.47 318.57,-89.67 308.02,-88.68 309.71,-95.47"/>
</a>
</g>
</g>
</g>
</svg>
