<?xml version="1.0" encoding="UTF-8" standalone="no"?>
<!DOCTYPE svg PUBLIC "-//W3C//DTD SVG 1.1//EN"
 "http://www.w3.org/Graphics/SVG/1.1/DTD/svg11.dtd">
<!-- Generated by graphviz version 12.2.1 (20241206.2353)
 -->
<!-- Title: src/Grid_Performance_Benchmark.cpp Pages: 1 -->
<svg width="1467pt" height="315pt"
 viewBox="0.00 0.00 1466.62 314.75" xmlns="http://www.w3.org/2000/svg" xmlns:xlink="http://www.w3.org/1999/xlink">
<g id="graph0" class="graph" transform="scale(1 1) rotate(0) translate(4 310.75)">
<title>src/Grid_Performance_Benchmark.cpp</title>
<!-- Node1 -->
<g id="Node000001" class="node">
<title>Node1</title>
<g id="a_Node000001"><a xlink:title=" ">
<polygon fill="#999999" stroke="#666666" points="1294.12,-306.75 1182.88,-306.75 1182.88,-276.25 1294.12,-276.25 1294.12,-306.75"/>
<text text-anchor="start" x="1190.88" y="-293.25" font-family="Helvetica,sans-Serif" font-size="10.00">src/Grid_Performance</text>
<text text-anchor="middle" x="1238.5" y="-282" font-family="Helvetica,sans-Serif" font-size="10.00">_Benchmark.cpp</text>
</a>
</g>
</g>
<!-- Node2 -->
<g id="Node000002" class="node">
<title>Node2</title>
<g id="a_Node000002"><a xlink:href="../../df/dd4/_grid___computations___optimized_8h.html" target="_top" xlink:title=" ">
<polygon fill="white" stroke="#666666" points="740.38,-240.25 582.62,-240.25 582.62,-221 740.38,-221 740.38,-240.25"/>
<text text-anchor="middle" x="661.5" y="-226.75" font-family="Helvetica,sans-Serif" font-size="10.00">Grid_Computations_Optimized.h</text>
</a>
</g>
</g>
<!-- Node1&#45;&gt;Node2 -->
<g id="edge1_Node000001_Node000002" class="edge">
<title>Node1&#45;&gt;Node2</title>
<g id="a_edge1_Node000001_Node000002"><a xlink:title=" ">
<path fill="none" stroke="#63b8ff" d="M1182.39,-284.77C1082.39,-274.57 872.57,-253.16 751.97,-240.86"/>
<polygon fill="#63b8ff" stroke="#63b8ff" points="752.39,-237.38 742.09,-239.85 751.68,-244.34 752.39,-237.38"/>
</a>
</g>
</g>
<!-- Node4 -->
<g id="Node000004" class="node">
<title>Node4</title>
<g id="a_Node000004"><a xlink:title=" ">
<polygon fill="#e0e0e0" stroke="#999999" points="1227.25,-19.25 1173.75,-19.25 1173.75,0 1227.25,0 1227.25,-19.25"/>
<text text-anchor="middle" x="1200.5" y="-5.75" font-family="Helvetica,sans-Serif" font-size="10.00">iostream</text>
</a>
</g>
</g>
<!-- Node1&#45;&gt;Node4 -->
<g id="edge34_Node000001_Node000004" class="edge">
<title>Node1&#45;&gt;Node4</title>
<g id="a_edge34_Node000001_Node000004"><a xlink:title=" ">
<path fill="none" stroke="#63b8ff" d="M1230.25,-275.88C1219.08,-254.66 1200.5,-213.76 1200.5,-176.38 1200.5,-176.38 1200.5,-176.38 1200.5,-119.12 1200.5,-88.41 1200.5,-52.8 1200.5,-30.99"/>
<polygon fill="#63b8ff" stroke="#63b8ff" points="1204,-31.14 1200.5,-21.14 1197,-31.14 1204,-31.14"/>
</a>
</g>
</g>
<!-- Node5 -->
<g id="Node000005" class="node">
<title>Node5</title>
<g id="a_Node000005"><a xlink:title=" ">
<polygon fill="#e0e0e0" stroke="#999999" points="1294,-19.25 1245,-19.25 1245,0 1294,0 1294,-19.25"/>
<text text-anchor="middle" x="1269.5" y="-5.75" font-family="Helvetica,sans-Serif" font-size="10.00">fstream</text>
</a>
</g>
</g>
<!-- Node1&#45;&gt;Node5 -->
<g id="edge39_Node000001_Node000005" class="edge">
<title>Node1&#45;&gt;Node5</title>
<g id="a_edge39_Node000001_Node000005"><a xlink:title=" ">
<path fill="none" stroke="#63b8ff" d="M1238.5,-276.09C1238.5,-254.44 1238.5,-212.24 1238.5,-176.38 1238.5,-176.38 1238.5,-176.38 1238.5,-119.12 1238.5,-86.89 1251.3,-51.27 1260.46,-29.94"/>
<polygon fill="#63b8ff" stroke="#63b8ff" points="1263.54,-31.6 1264.44,-21.04 1257.16,-28.74 1263.54,-31.6"/>
</a>
</g>
</g>
<!-- Node10 -->
<g id="Node000010" class="node">
<title>Node10</title>
<g id="a_Node000010"><a xlink:title=" ">
<polygon fill="#e0e0e0" stroke="#999999" points="1361.38,-19.25 1311.62,-19.25 1311.62,0 1361.38,0 1361.38,-19.25"/>
<text text-anchor="middle" x="1336.5" y="-5.75" font-family="Helvetica,sans-Serif" font-size="10.00">iomanip</text>
</a>
</g>
</g>
<!-- Node1&#45;&gt;Node10 -->
<g id="edge35_Node000001_Node000010" class="edge">
<title>Node1&#45;&gt;Node10</title>
<g id="a_edge35_Node000001_Node000010"><a xlink:title=" ">
<path fill="none" stroke="#63b8ff" d="M1246.75,-275.88C1257.92,-254.66 1276.5,-213.76 1276.5,-176.38 1276.5,-176.38 1276.5,-176.38 1276.5,-119.12 1276.5,-83.26 1301.92,-48.12 1319.66,-27.95"/>
<polygon fill="#63b8ff" stroke="#63b8ff" points="1322.17,-30.4 1326.36,-20.67 1317.02,-25.66 1322.17,-30.4"/>
</a>
</g>
</g>
<!-- Node13 -->
<g id="Node000013" class="node">
<title>Node13</title>
<g id="a_Node000013"><a xlink:title=" ">
<polygon fill="#e0e0e0" stroke="#999999" points="1435.38,-19.25 1379.62,-19.25 1379.62,0 1435.38,0 1435.38,-19.25"/>
<text text-anchor="middle" x="1407.5" y="-5.75" font-family="Helvetica,sans-Serif" font-size="10.00">algorithm</text>
</a>
</g>
</g>
<!-- Node1&#45;&gt;Node13 -->
<g id="edge36_Node000001_Node000013" class="edge">
<title>Node1&#45;&gt;Node13</title>
<g id="a_edge36_Node000001_Node000013"><a xlink:title=" ">
<path fill="none" stroke="#63b8ff" d="M1256.51,-275.97C1278.99,-256.07 1314.5,-218.03 1314.5,-176.38 1314.5,-176.38 1314.5,-176.38 1314.5,-119.12 1314.5,-77.58 1354.28,-43.97 1381.81,-25.68"/>
<polygon fill="#63b8ff" stroke="#63b8ff" points="1383.46,-28.78 1390.02,-20.46 1379.71,-22.87 1383.46,-28.78"/>
</a>
</g>
</g>
<!-- Node25 -->
<g id="Node000025" class="node">
<title>Node25</title>
<g id="a_Node000025"><a xlink:href="../../d8/dea/_grid_8h.html" target="_top" xlink:title=" ">
<polygon fill="white" stroke="#666666" points="788.62,-185 746.38,-185 746.38,-165.75 788.62,-165.75 788.62,-185"/>
<text text-anchor="middle" x="767.5" y="-171.5" font-family="Helvetica,sans-Serif" font-size="10.00">Grid.h</text>
</a>
</g>
</g>
<!-- Node1&#45;&gt;Node25 -->
<g id="edge32_Node000001_Node000025" class="edge">
<title>Node1&#45;&gt;Node25</title>
<g id="a_edge32_Node000001_Node000025"><a xlink:title=" ">
<path fill="none" stroke="#63b8ff" d="M1182.62,-276.96C1083.22,-252.87 878.69,-203.32 799.66,-184.17"/>
<polygon fill="#63b8ff" stroke="#63b8ff" points="800.95,-180.88 790.4,-181.92 799.3,-187.68 800.95,-180.88"/>
</a>
</g>
</g>
<!-- Node26 -->
<g id="Node000026" class="node">
<title>Node26</title>
<g id="a_Node000026"><a xlink:href="../../d8/d4d/_globals_8h.html" target="_top" xlink:title=" ">
<polygon fill="white" stroke="#666666" points="747.12,-129.75 689.88,-129.75 689.88,-110.5 747.12,-110.5 747.12,-129.75"/>
<text text-anchor="middle" x="718.5" y="-116.25" font-family="Helvetica,sans-Serif" font-size="10.00">Globals.h</text>
</a>
</g>
</g>
<!-- Node1&#45;&gt;Node26 -->
<g id="edge33_Node000001_Node000026" class="edge">
<title>Node1&#45;&gt;Node26</title>
<g id="a_edge33_Node000001_Node000026"><a xlink:title=" ">
<path fill="none" stroke="#63b8ff" d="M1193.26,-275.77C1092.59,-242.97 851.49,-164.44 757.22,-133.74"/>
<polygon fill="#63b8ff" stroke="#63b8ff" points="758.5,-130.47 747.91,-130.7 756.33,-137.13 758.5,-130.47"/>
</a>
</g>
</g>
<!-- Node28 -->
<g id="Node000028" class="node">
<title>Node28</title>
<g id="a_Node000028"><a xlink:title=" ">
<polygon fill="#e0e0e0" stroke="#999999" points="1392.75,-240.25 1342.25,-240.25 1342.25,-221 1392.75,-221 1392.75,-240.25"/>
<text text-anchor="middle" x="1367.5" y="-226.75" font-family="Helvetica,sans-Serif" font-size="10.00">numeric</text>
</a>
</g>
</g>
<!-- Node1&#45;&gt;Node28 -->
<g id="edge37_Node000001_Node000028" class="edge">
<title>Node1&#45;&gt;Node28</title>
<g id="a_edge37_Node000001_Node000028"><a xlink:title=" ">
<path fill="none" stroke="#63b8ff" d="M1270.72,-275.8C1291.12,-266.48 1317.33,-254.52 1337.32,-245.4"/>
<polygon fill="#63b8ff" stroke="#63b8ff" points="1338.7,-248.62 1346.34,-241.28 1335.79,-242.25 1338.7,-248.62"/>
</a>
</g>
</g>
<!-- Node29 -->
<g id="Node000029" class="node">
<title>Node29</title>
<g id="a_Node000029"><a xlink:title=" ">
<polygon fill="#e0e0e0" stroke="#999999" points="1458.62,-240.25 1410.38,-240.25 1410.38,-221 1458.62,-221 1458.62,-240.25"/>
<text text-anchor="middle" x="1434.5" y="-226.75" font-family="Helvetica,sans-Serif" font-size="10.00">random</text>
</a>
</g>
</g>
<!-- Node1&#45;&gt;Node29 -->
<g id="edge38_Node000001_Node000029" class="edge">
<title>Node1&#45;&gt;Node29</title>
<g id="a_edge38_Node000001_Node000029"><a xlink:title=" ">
<path fill="none" stroke="#63b8ff" d="M1287.45,-275.8C1322.19,-265.36 1368.01,-251.6 1399.21,-242.23"/>
<polygon fill="#63b8ff" stroke="#63b8ff" points="1399.97,-245.65 1408.54,-239.42 1397.96,-238.95 1399.97,-245.65"/>
</a>
</g>
</g>
<!-- Node3 -->
<g id="Node000003" class="node">
<title>Node3</title>
<g id="a_Node000003"><a xlink:href="../../d6/dc2/definitions_8h.html" target="_top" xlink:title="Header file containing global constants, structures, and function declarations for the solver.">
<polygon fill="white" stroke="#666666" points="724.75,-74.5 656.25,-74.5 656.25,-55.25 724.75,-55.25 724.75,-74.5"/>
<text text-anchor="middle" x="690.5" y="-61" font-family="Helvetica,sans-Serif" font-size="10.00">definitions.h</text>
</a>
</g>
</g>
<!-- Node2&#45;&gt;Node3 -->
<g id="edge2_Node000002_Node000003" class="edge">
<title>Node2&#45;&gt;Node3</title>
<g id="a_edge2_Node000002_Node000003"><a xlink:title=" ">
<path fill="none" stroke="#63b8ff" d="M662.74,-220.63C665.53,-200.71 672.66,-151.43 680.5,-110.5 682.05,-102.41 683.99,-93.55 685.74,-85.87"/>
<polygon fill="#63b8ff" stroke="#63b8ff" points="689.13,-86.74 688,-76.2 682.32,-85.15 689.13,-86.74"/>
</a>
</g>
</g>
<!-- Node6 -->
<g id="Node000006" class="node">
<title>Node6</title>
<g id="a_Node000006"><a xlink:title=" ">
<polygon fill="#e0e0e0" stroke="#999999" points="43,-19.25 0,-19.25 0,0 43,0 43,-19.25"/>
<text text-anchor="middle" x="21.5" y="-5.75" font-family="Helvetica,sans-Serif" font-size="10.00">vector</text>
</a>
</g>
</g>
<!-- Node2&#45;&gt;Node6 -->
<g id="edge29_Node000002_Node000006" class="edge">
<title>Node2&#45;&gt;Node6</title>
<g id="a_edge29_Node000002_Node000006"><a xlink:title=" ">
<path fill="none" stroke="#63b8ff" d="M635.22,-220.63C533.45,-185.81 165.46,-59.89 53.83,-21.69"/>
<polygon fill="#63b8ff" stroke="#63b8ff" points="55.28,-18.49 44.69,-18.56 53.01,-25.11 55.28,-18.49"/>
</a>
</g>
</g>
<!-- Node14 -->
<g id="Node000014" class="node">
<title>Node14</title>
<g id="a_Node000014"><a xlink:title=" ">
<polygon fill="#e0e0e0" stroke="#999999" points="106.12,-19.25 60.88,-19.25 60.88,0 106.12,0 106.12,-19.25"/>
<text text-anchor="middle" x="83.5" y="-5.75" font-family="Helvetica,sans-Serif" font-size="10.00">chrono</text>
</a>
</g>
</g>
<!-- Node2&#45;&gt;Node14 -->
<g id="edge31_Node000002_Node000014" class="edge">
<title>Node2&#45;&gt;Node14</title>
<g id="a_edge31_Node000002_Node000014"><a xlink:title=" ">
<path fill="none" stroke="#63b8ff" d="M645.74,-220.58C595.45,-192.08 433.66,-103.21 289.5,-55.25 217.93,-31.44 194.43,-36.95 117.72,-19.61"/>
<polygon fill="#63b8ff" stroke="#63b8ff" points="118.54,-16.21 108,-17.35 116.95,-23.03 118.54,-16.21"/>
</a>
</g>
</g>
<!-- Node2&#45;&gt;Node25 -->
<g id="edge24_Node000002_Node000025" class="edge">
<title>Node2&#45;&gt;Node25</title>
<g id="a_edge24_Node000002_Node000025"><a xlink:title=" ">
<path fill="none" stroke="#63b8ff" d="M679.48,-220.59C695.85,-212.37 720.29,-200.09 739.26,-190.56"/>
<polygon fill="#63b8ff" stroke="#63b8ff" points="740.71,-193.75 748.08,-186.13 737.57,-187.49 740.71,-193.75"/>
</a>
</g>
</g>
<!-- Node2&#45;&gt;Node26 -->
<g id="edge28_Node000002_Node000026" class="edge">
<title>Node2&#45;&gt;Node26</title>
<g id="a_edge28_Node000002_Node000026"><a xlink:title=" ">
<path fill="none" stroke="#63b8ff" d="M666.16,-220.75C675.39,-203.18 696.15,-163.66 708.58,-140.02"/>
<polygon fill="#63b8ff" stroke="#63b8ff" points="711.51,-141.95 713.07,-131.47 705.32,-138.69 711.51,-141.95"/>
</a>
</g>
</g>
<!-- Node27 -->
<g id="Node000027" class="node">
<title>Node27</title>
<g id="a_Node000027"><a xlink:title=" ">
<polygon fill="#e0e0e0" stroke="#999999" points="633.38,-185 595.62,-185 595.62,-165.75 633.38,-165.75 633.38,-185"/>
<text text-anchor="middle" x="614.5" y="-171.5" font-family="Helvetica,sans-Serif" font-size="10.00">array</text>
</a>
</g>
</g>
<!-- Node2&#45;&gt;Node27 -->
<g id="edge30_Node000002_Node000027" class="edge">
<title>Node2&#45;&gt;Node27</title>
<g id="a_edge30_Node000002_Node000027"><a xlink:title=" ">
<path fill="none" stroke="#63b8ff" d="M653.74,-220.83C647.31,-213.55 637.99,-202.98 630.04,-193.98"/>
<polygon fill="#63b8ff" stroke="#63b8ff" points="632.67,-191.68 623.43,-186.49 627.42,-196.31 632.67,-191.68"/>
</a>
</g>
</g>
<!-- Node3&#45;&gt;Node4 -->
<g id="edge3_Node000003_Node000004" class="edge">
<title>Node3&#45;&gt;Node4</title>
<g id="a_edge3_Node000003_Node000004"><a xlink:title=" ">
<path fill="none" stroke="#63b8ff" d="M725.21,-62.29C802.16,-58.42 992.99,-46.84 1162.33,-19.37"/>
<polygon fill="#63b8ff" stroke="#63b8ff" points="1162.67,-22.86 1171.96,-17.78 1161.53,-15.96 1162.67,-22.86"/>
</a>
</g>
</g>
<!-- Node3&#45;&gt;Node5 -->
<g id="edge4_Node000003_Node000005" class="edge">
<title>Node3&#45;&gt;Node5</title>
<g id="a_edge4_Node000003_Node000005"><a xlink:title=" ">
<path fill="none" stroke="#63b8ff" d="M724.94,-63.14C809.9,-60.88 1036.38,-52.18 1233.58,-19.47"/>
<polygon fill="#63b8ff" stroke="#63b8ff" points="1233.96,-22.96 1243.24,-17.84 1232.8,-16.06 1233.96,-22.96"/>
</a>
</g>
</g>
<!-- Node3&#45;&gt;Node6 -->
<g id="edge5_Node000003_Node000006" class="edge">
<title>Node3&#45;&gt;Node6</title>
<g id="a_edge5_Node000003_Node000006"><a xlink:title=" ">
<path fill="none" stroke="#63b8ff" d="M655.9,-64C560.94,-63.81 288.26,-59.67 54.43,-19.42"/>
<polygon fill="#63b8ff" stroke="#63b8ff" points="55.28,-16.01 44.82,-17.74 54.07,-22.91 55.28,-16.01"/>
</a>
</g>
</g>
<!-- Node7 -->
<g id="Node000007" class="node">
<title>Node7</title>
<g id="a_Node000007"><a xlink:title=" ">
<polygon fill="#e0e0e0" stroke="#999999" points="164.5,-19.25 124.5,-19.25 124.5,0 164.5,0 164.5,-19.25"/>
<text text-anchor="middle" x="144.5" y="-5.75" font-family="Helvetica,sans-Serif" font-size="10.00">string</text>
</a>
</g>
</g>
<!-- Node3&#45;&gt;Node7 -->
<g id="edge6_Node000003_Node000007" class="edge">
<title>Node3&#45;&gt;Node7</title>
<g id="a_edge6_Node000003_Node000007"><a xlink:title=" ">
<path fill="none" stroke="#63b8ff" d="M655.99,-63.31C574.08,-61.45 361.48,-53.63 176.02,-19.35"/>
<polygon fill="#63b8ff" stroke="#63b8ff" points="176.93,-15.96 166.46,-17.55 175.64,-22.84 176.93,-15.96"/>
</a>
</g>
</g>
<!-- Node8 -->
<g id="Node000008" class="node">
<title>Node8</title>
<g id="a_Node000008"><a xlink:title=" ">
<polygon fill="#e0e0e0" stroke="#999999" points="226,-19.25 183,-19.25 183,0 226,0 226,-19.25"/>
<text text-anchor="middle" x="204.5" y="-5.75" font-family="Helvetica,sans-Serif" font-size="10.00">cmath</text>
</a>
</g>
</g>
<!-- Node3&#45;&gt;Node8 -->
<g id="edge7_Node000003_Node000008" class="edge">
<title>Node3&#45;&gt;Node8</title>
<g id="a_edge7_Node000003_Node000008"><a xlink:title=" ">
<path fill="none" stroke="#63b8ff" d="M655.97,-62.53C581.3,-59.2 399.19,-48.72 237.52,-19.29"/>
<polygon fill="#63b8ff" stroke="#63b8ff" points="238.36,-15.88 227.89,-17.5 237.09,-22.77 238.36,-15.88"/>
</a>
</g>
</g>
<!-- Node9 -->
<g id="Node000009" class="node">
<title>Node9</title>
<g id="a_Node000009"><a xlink:title=" ">
<polygon fill="#e0e0e0" stroke="#999999" points="294.75,-19.25 244.25,-19.25 244.25,0 294.75,0 294.75,-19.25"/>
<text text-anchor="middle" x="269.5" y="-5.75" font-family="Helvetica,sans-Serif" font-size="10.00">typeinfo</text>
</a>
</g>
</g>
<!-- Node3&#45;&gt;Node9 -->
<g id="edge8_Node000003_Node000009" class="edge">
<title>Node3&#45;&gt;Node9</title>
<g id="a_edge8_Node000003_Node000009"><a xlink:title=" ">
<path fill="none" stroke="#63b8ff" d="M655.84,-61.44C589.71,-56.46 440.82,-43.65 306.34,-19.55"/>
<polygon fill="#63b8ff" stroke="#63b8ff" points="306.99,-16.11 296.53,-17.76 305.74,-23 306.99,-16.11"/>
</a>
</g>
</g>
<!-- Node3&#45;&gt;Node10 -->
<g id="edge9_Node000003_Node000010" class="edge">
<title>Node3&#45;&gt;Node10</title>
<g id="a_edge9_Node000003_Node000010"><a xlink:title=" ">
<path fill="none" stroke="#63b8ff" d="M724.99,-63.57C817.09,-62.28 1076.52,-55.62 1300.09,-19.55"/>
<polygon fill="#63b8ff" stroke="#63b8ff" points="1300.58,-23.01 1309.88,-17.94 1299.45,-16.11 1300.58,-23.01"/>
</a>
</g>
</g>
<!-- Node11 -->
<g id="Node000011" class="node">
<title>Node11</title>
<g id="a_Node000011"><a xlink:title=" ">
<polygon fill="#e0e0e0" stroke="#999999" points="354.62,-19.25 312.38,-19.25 312.38,0 354.62,0 354.62,-19.25"/>
<text text-anchor="middle" x="333.5" y="-5.75" font-family="Helvetica,sans-Serif" font-size="10.00">cstdio</text>
</a>
</g>
</g>
<!-- Node3&#45;&gt;Node11 -->
<g id="edge10_Node000003_Node000011" class="edge">
<title>Node3&#45;&gt;Node11</title>
<g id="a_edge10_Node000003_Node000011"><a xlink:title=" ">
<path fill="none" stroke="#63b8ff" d="M655.85,-60.81C597.78,-55.31 477.01,-42.34 366.08,-19.53"/>
<polygon fill="#63b8ff" stroke="#63b8ff" points="367.02,-16.15 356.52,-17.53 365.59,-23 367.02,-16.15"/>
</a>
</g>
</g>
<!-- Node12 -->
<g id="Node000012" class="node">
<title>Node12</title>
<g id="a_Node000012"><a xlink:title=" ">
<polygon fill="#e0e0e0" stroke="#999999" points="416.75,-19.25 372.25,-19.25 372.25,0 416.75,0 416.75,-19.25"/>
<text text-anchor="middle" x="394.5" y="-5.75" font-family="Helvetica,sans-Serif" font-size="10.00">cstdlib</text>
</a>
</g>
</g>
<!-- Node3&#45;&gt;Node12 -->
<g id="edge11_Node000003_Node000012" class="edge">
<title>Node3&#45;&gt;Node12</title>
<g id="a_edge11_Node000003_Node000012"><a xlink:title=" ">
<path fill="none" stroke="#63b8ff" d="M655.97,-59.24C607.27,-52.44 515.41,-38.69 428.27,-19.68"/>
<polygon fill="#63b8ff" stroke="#63b8ff" points="429.12,-16.28 418.6,-17.54 427.6,-23.12 429.12,-16.28"/>
</a>
</g>
</g>
<!-- Node3&#45;&gt;Node13 -->
<g id="edge12_Node000003_Node000013" class="edge">
<title>Node3&#45;&gt;Node13</title>
<g id="a_edge12_Node000003_Node000013"><a xlink:title=" ">
<path fill="none" stroke="#63b8ff" d="M725.03,-63.6C823.84,-62.38 1116.29,-55.86 1368.11,-19.35"/>
<polygon fill="#63b8ff" stroke="#63b8ff" points="1368.43,-22.84 1377.81,-17.92 1367.41,-15.91 1368.43,-22.84"/>
</a>
</g>
</g>
<!-- Node3&#45;&gt;Node14 -->
<g id="edge13_Node000003_Node000014" class="edge">
<title>Node3&#45;&gt;Node14</title>
<g id="a_edge13_Node000003_Node000014"><a xlink:title=" ">
<path fill="none" stroke="#63b8ff" d="M655.87,-63.42C567.6,-61.8 326.94,-54.4 117.66,-19.27"/>
<polygon fill="#63b8ff" stroke="#63b8ff" points="118.4,-15.85 107.95,-17.62 117.22,-22.75 118.4,-15.85"/>
</a>
</g>
</g>
<!-- Node15 -->
<g id="Node000015" class="node">
<title>Node15</title>
<g id="a_Node000015"><a xlink:title=" ">
<polygon fill="#e0e0e0" stroke="#999999" points="474.5,-19.25 434.5,-19.25 434.5,0 474.5,0 474.5,-19.25"/>
<text text-anchor="middle" x="454.5" y="-5.75" font-family="Helvetica,sans-Serif" font-size="10.00">cfloat</text>
</a>
</g>
</g>
<!-- Node3&#45;&gt;Node15 -->
<g id="edge14_Node000003_Node000015" class="edge">
<title>Node3&#45;&gt;Node15</title>
<g id="a_edge14_Node000003_Node000015"><a xlink:title=" ">
<path fill="none" stroke="#63b8ff" d="M655.88,-57.26C616.8,-49.6 551.09,-36.18 485.65,-19.65"/>
<polygon fill="#63b8ff" stroke="#63b8ff" points="486.75,-16.31 476.19,-17.23 485.02,-23.1 486.75,-16.31"/>
</a>
</g>
</g>
<!-- Node16 -->
<g id="Node000016" class="node">
<title>Node16</title>
<g id="a_Node000016"><a xlink:title=" ">
<polygon fill="#e0e0e0" stroke="#999999" points="554,-19.25 493,-19.25 493,0 554,0 554,-19.25"/>
<text text-anchor="middle" x="523.5" y="-5.75" font-family="Helvetica,sans-Serif" font-size="10.00">filesystem</text>
</a>
</g>
</g>
<!-- Node3&#45;&gt;Node16 -->
<g id="edge15_Node000003_Node000016" class="edge">
<title>Node3&#45;&gt;Node16</title>
<g id="a_edge15_Node000003_Node000016"><a xlink:title=" ">
<path fill="none" stroke="#63b8ff" d="M662.17,-54.84C634.82,-46.12 593.18,-32.84 562.66,-23.11"/>
<polygon fill="#63b8ff" stroke="#63b8ff" points="564,-19.87 553.41,-20.16 561.87,-26.53 564,-19.87"/>
</a>
</g>
</g>
<!-- Node17 -->
<g id="Node000017" class="node">
<title>Node17</title>
<g id="a_Node000017"><a xlink:title=" ">
<polygon fill="#e0e0e0" stroke="#999999" points="606.88,-19.25 572.12,-19.25 572.12,0 606.88,0 606.88,-19.25"/>
<text text-anchor="middle" x="589.5" y="-5.75" font-family="Helvetica,sans-Serif" font-size="10.00">map</text>
</a>
</g>
</g>
<!-- Node3&#45;&gt;Node17 -->
<g id="edge16_Node000003_Node000017" class="edge">
<title>Node3&#45;&gt;Node17</title>
<g id="a_edge16_Node000003_Node000017"><a xlink:title=" ">
<path fill="none" stroke="#63b8ff" d="M673.37,-54.84C657.84,-46.66 634.7,-34.46 616.66,-24.94"/>
<polygon fill="#63b8ff" stroke="#63b8ff" points="618.53,-21.98 608.06,-20.41 615.27,-28.17 618.53,-21.98"/>
</a>
</g>
</g>
<!-- Node18 -->
<g id="Node000018" class="node">
<title>Node18</title>
<g id="a_Node000018"><a xlink:title=" ">
<polygon fill="#e0e0e0" stroke="#999999" points="683.88,-19.25 625.12,-19.25 625.12,0 683.88,0 683.88,-19.25"/>
<text text-anchor="middle" x="654.5" y="-5.75" font-family="Helvetica,sans-Serif" font-size="10.00">stdexcept</text>
</a>
</g>
</g>
<!-- Node3&#45;&gt;Node18 -->
<g id="edge17_Node000003_Node000018" class="edge">
<title>Node3&#45;&gt;Node18</title>
<g id="a_edge17_Node000003_Node000018"><a xlink:title=" ">
<path fill="none" stroke="#63b8ff" d="M684.56,-55.08C679.79,-48.03 672.94,-37.9 666.98,-29.08"/>
<polygon fill="#63b8ff" stroke="#63b8ff" points="669.92,-27.19 661.42,-20.86 664.12,-31.11 669.92,-27.19"/>
</a>
</g>
</g>
<!-- Node19 -->
<g id="Node000019" class="node">
<title>Node19</title>
<g id="a_Node000019"><a xlink:title=" ">
<polygon fill="#e0e0e0" stroke="#999999" points="753.12,-19.25 701.88,-19.25 701.88,0 753.12,0 753.12,-19.25"/>
<text text-anchor="middle" x="727.5" y="-5.75" font-family="Helvetica,sans-Serif" font-size="10.00">sstream</text>
</a>
</g>
</g>
<!-- Node3&#45;&gt;Node19 -->
<g id="edge18_Node000003_Node000019" class="edge">
<title>Node3&#45;&gt;Node19</title>
<g id="a_edge18_Node000003_Node000019"><a xlink:title=" ">
<path fill="none" stroke="#63b8ff" d="M696.61,-55.08C701.56,-47.96 708.7,-37.68 714.87,-28.8"/>
<polygon fill="#63b8ff" stroke="#63b8ff" points="717.56,-31.06 720.39,-20.85 711.81,-27.07 717.56,-31.06"/>
</a>
</g>
</g>
<!-- Node20 -->
<g id="Node000020" class="node">
<title>Node20</title>
<g id="a_Node000020"><a xlink:title=" ">
<polygon fill="#e0e0e0" stroke="#999999" points="853.88,-19.25 771.12,-19.25 771.12,0 853.88,0 853.88,-19.25"/>
<text text-anchor="middle" x="812.5" y="-5.75" font-family="Helvetica,sans-Serif" font-size="10.00">unordered_map</text>
</a>
</g>
</g>
<!-- Node3&#45;&gt;Node20 -->
<g id="edge19_Node000003_Node000020" class="edge">
<title>Node3&#45;&gt;Node20</title>
<g id="a_edge19_Node000003_Node000020"><a xlink:title=" ">
<path fill="none" stroke="#63b8ff" d="M711.2,-54.84C730.39,-46.47 759.21,-33.88 781.22,-24.28"/>
<polygon fill="#63b8ff" stroke="#63b8ff" points="782.55,-27.52 790.32,-20.31 779.75,-21.1 782.55,-27.52"/>
</a>
</g>
</g>
<!-- Node21 -->
<g id="Node000021" class="node">
<title>Node21</title>
<g id="a_Node000021"><a xlink:title=" ">
<polygon fill="#e0e0e0" stroke="#999999" points="949.25,-19.25 871.75,-19.25 871.75,0 949.25,0 949.25,-19.25"/>
<text text-anchor="middle" x="910.5" y="-5.75" font-family="Helvetica,sans-Serif" font-size="10.00">unordered_set</text>
</a>
</g>
</g>
<!-- Node3&#45;&gt;Node21 -->
<g id="edge20_Node000003_Node000021" class="edge">
<title>Node3&#45;&gt;Node21</title>
<g id="a_edge20_Node000003_Node000021"><a xlink:title=" ">
<path fill="none" stroke="#63b8ff" d="M724.88,-55.55C761.74,-46.63 820.56,-32.39 862.1,-22.34"/>
<polygon fill="#63b8ff" stroke="#63b8ff" points="862.69,-25.8 871.58,-20.04 861.04,-19 862.69,-25.8"/>
</a>
</g>
</g>
<!-- Node22 -->
<g id="Node000022" class="node">
<title>Node22</title>
<g id="a_Node000022"><a xlink:title=" ">
<polygon fill="#e0e0e0" stroke="#999999" points="1004,-19.25 967,-19.25 967,0 1004,0 1004,-19.25"/>
<text text-anchor="middle" x="985.5" y="-5.75" font-family="Helvetica,sans-Serif" font-size="10.00">tuple</text>
</a>
</g>
</g>
<!-- Node3&#45;&gt;Node22 -->
<g id="edge21_Node000003_Node000022" class="edge">
<title>Node3&#45;&gt;Node22</title>
<g id="a_edge21_Node000003_Node000022"><a xlink:title=" ">
<path fill="none" stroke="#63b8ff" d="M725.09,-59.74C774.4,-53.49 867.87,-40.36 955.75,-19.64"/>
<polygon fill="#63b8ff" stroke="#63b8ff" points="956.34,-23.1 965.24,-17.36 954.7,-16.29 956.34,-23.1"/>
</a>
</g>
</g>
<!-- Node23 -->
<g id="Node000023" class="node">
<title>Node23</title>
<g id="a_Node000023"><a xlink:title=" ">
<polygon fill="#e0e0e0" stroke="#999999" points="1051.25,-19.25 1021.75,-19.25 1021.75,0 1051.25,0 1051.25,-19.25"/>
<text text-anchor="middle" x="1036.5" y="-5.75" font-family="Helvetica,sans-Serif" font-size="10.00">set</text>
</a>
</g>
</g>
<!-- Node3&#45;&gt;Node23 -->
<g id="edge22_Node000003_Node000023" class="edge">
<title>Node3&#45;&gt;Node23</title>
<g id="a_edge22_Node000003_Node000023"><a xlink:title=" ">
<path fill="none" stroke="#63b8ff" d="M724.92,-61.63C782.52,-57.34 902.05,-46.15 1010.21,-19.64"/>
<polygon fill="#63b8ff" stroke="#63b8ff" points="1010.99,-23.06 1019.84,-17.23 1009.29,-16.27 1010.99,-23.06"/>
</a>
</g>
</g>
<!-- Node24 -->
<g id="Node000024" class="node">
<title>Node24</title>
<g id="a_Node000024"><a xlink:title=" ">
<polygon fill="#e0e0e0" stroke="#999999" points="1155.38,-19.25 1069.62,-19.25 1069.62,0 1155.38,0 1155.38,-19.25"/>
<text text-anchor="middle" x="1112.5" y="-5.75" font-family="Helvetica,sans-Serif" font-size="10.00">boost/regex.hpp</text>
</a>
</g>
</g>
<!-- Node3&#45;&gt;Node24 -->
<g id="edge23_Node000003_Node000024" class="edge">
<title>Node3&#45;&gt;Node24</title>
<g id="a_edge23_Node000003_Node000024"><a xlink:title=" ">
<path fill="none" stroke="#63b8ff" d="M725,-60.23C788.65,-53.4 929.11,-37.8 1058.14,-19.53"/>
<polygon fill="#63b8ff" stroke="#63b8ff" points="1058.49,-23.02 1067.89,-18.14 1057.5,-16.09 1058.49,-23.02"/>
</a>
</g>
</g>
<!-- Node25&#45;&gt;Node3 -->
<g id="edge25_Node000025_Node000003" class="edge">
<title>Node25&#45;&gt;Node3</title>
<g id="a_edge25_Node000025_Node000003"><a xlink:title=" ">
<path fill="none" stroke="#63b8ff" d="M768.07,-165.33C768.46,-152.18 767.49,-127.52 756.5,-110.5 748.15,-97.57 734.59,-87.45 721.93,-80.14"/>
<polygon fill="#63b8ff" stroke="#63b8ff" points="723.89,-77.22 713.42,-75.59 720.59,-83.39 723.89,-77.22"/>
</a>
</g>
</g>
<!-- Node25&#45;&gt;Node26 -->
<g id="edge26_Node000025_Node000026" class="edge">
<title>Node25&#45;&gt;Node26</title>
<g id="a_edge26_Node000025_Node000026"><a xlink:title=" ">
<path fill="none" stroke="#63b8ff" d="M759.41,-165.58C752.64,-158.23 742.78,-147.51 734.44,-138.44"/>
<polygon fill="#63b8ff" stroke="#63b8ff" points="737.14,-136.21 727.79,-131.22 731.99,-140.95 737.14,-136.21"/>
</a>
</g>
</g>
<!-- Node26&#45;&gt;Node3 -->
<g id="edge27_Node000026_Node000003" class="edge">
<title>Node26&#45;&gt;Node3</title>
<g id="a_edge27_Node000026_Node000003"><a xlink:title=" ">
<path fill="none" stroke="#63b8ff" d="M713.88,-110.33C710.25,-103.44 705.07,-93.59 700.51,-84.91"/>
<polygon fill="#63b8ff" stroke="#63b8ff" points="703.68,-83.42 695.93,-76.2 697.48,-86.68 703.68,-83.42"/>
</a>
</g>
</g>
</g>
</svg>
