<?xml version="1.0" encoding="UTF-8" standalone="no"?>
<!DOCTYPE svg PUBLIC "-//W3C//DTD SVG 1.1//EN"
 "http://www.w3.org/Graphics/SVG/1.1/DTD/svg11.dtd">
<!-- Generated by graphviz version 12.2.1 (20241206.2353)
 -->
<!-- Title: IncompressibleFlowSolver::initialize Pages: 1 -->
<svg width="436pt" height="64pt"
 viewBox="0.00 0.00 436.25 64.25" xmlns="http://www.w3.org/2000/svg" xmlns:xlink="http://www.w3.org/1999/xlink">
<g id="graph0" class="graph" transform="scale(1 1) rotate(0) translate(4 60.25)">
<title>IncompressibleFlowSolver::initialize</title>
<!-- Node1 -->
<g id="Node000001" class="node">
<title>Node1</title>
<g id="a_Node000001"><a xlink:title=" ">
<polygon fill="#999999" stroke="#666666" points="130.75,-42.88 0,-42.88 0,-12.37 130.75,-12.37 130.75,-42.88"/>
<text text-anchor="start" x="8" y="-29.38" font-family="Helvetica,sans-Serif" font-size="10.00">IncompressibleFlowSolver</text>
<text text-anchor="middle" x="65.38" y="-18.12" font-family="Helvetica,sans-Serif" font-size="10.00">::initialize</text>
</a>
</g>
</g>
<!-- Node2 -->
<g id="Node000002" class="node">
<title>Node2</title>
<g id="a_Node000002"><a xlink:href="../../d1/dce/struct_pressure_field_a4ccac6bd8e77e8ec7a075b08d6645196.html#a4ccac6bd8e77e8ec7a075b08d6645196" target="_top" xlink:title=" ">
<polygon fill="white" stroke="#666666" points="284,-56.25 166.75,-56.25 166.75,-37 284,-37 284,-56.25"/>
<text text-anchor="middle" x="225.38" y="-42.75" font-family="Helvetica,sans-Serif" font-size="10.00">PressureField::initialize</text>
</a>
</g>
</g>
<!-- Node1&#45;&gt;Node2 -->
<g id="edge1_Node000001_Node000002" class="edge">
<title>Node1&#45;&gt;Node2</title>
<g id="a_edge1_Node000001_Node000002"><a xlink:title=" ">
<path fill="none" stroke="#63b8ff" d="M131.1,-35.41C139.03,-36.36 147.17,-37.34 155.16,-38.3"/>
<polygon fill="#63b8ff" stroke="#63b8ff" points="154.5,-41.75 164.84,-39.47 155.33,-34.8 154.5,-41.75"/>
</a>
</g>
</g>
<!-- Node4 -->
<g id="Node000004" class="node">
<title>Node4</title>
<g id="a_Node000004"><a xlink:href="../../d7/dfe/struct_velocity_field_ad711046c96b576cd4ca9d244846d923a.html#ad711046c96b576cd4ca9d244846d923a" target="_top" xlink:title=" ">
<polygon fill="white" stroke="#666666" points="282.12,-19.25 168.62,-19.25 168.62,0 282.12,0 282.12,-19.25"/>
<text text-anchor="middle" x="225.38" y="-5.75" font-family="Helvetica,sans-Serif" font-size="10.00">VelocityField::initialize</text>
</a>
</g>
</g>
<!-- Node1&#45;&gt;Node4 -->
<g id="edge3_Node000001_Node000004" class="edge">
<title>Node1&#45;&gt;Node4</title>
<g id="a_edge3_Node000001_Node000004"><a xlink:title=" ">
<path fill="none" stroke="#63b8ff" d="M131.1,-20.25C139.75,-19.27 148.63,-18.25 157.32,-17.26"/>
<polygon fill="#63b8ff" stroke="#63b8ff" points="157.56,-20.76 167.1,-16.15 156.76,-13.81 157.56,-20.76"/>
</a>
</g>
</g>
<!-- Node3 -->
<g id="Node000003" class="node">
<title>Node3</title>
<g id="a_Node000003"><a xlink:href="../../d1/dce/struct_pressure_field_a9df8114c377d46088395d56675539fbb.html#a9df8114c377d46088395d56675539fbb" target="_top" xlink:title=" ">
<polygon fill="white" stroke="#666666" points="428.25,-56.25 320,-56.25 320,-37 428.25,-37 428.25,-56.25"/>
<text text-anchor="middle" x="374.12" y="-42.75" font-family="Helvetica,sans-Serif" font-size="10.00">PressureField::resize</text>
</a>
</g>
</g>
<!-- Node2&#45;&gt;Node3 -->
<g id="edge2_Node000002_Node000003" class="edge">
<title>Node2&#45;&gt;Node3</title>
<g id="a_edge2_Node000002_Node000003"><a xlink:title=" ">
<path fill="none" stroke="#63b8ff" d="M284.37,-46.62C292.32,-46.62 300.53,-46.62 308.59,-46.62"/>
<polygon fill="#63b8ff" stroke="#63b8ff" points="308.33,-50.13 318.33,-46.63 308.33,-43.13 308.33,-50.13"/>
</a>
</g>
</g>
<!-- Node5 -->
<g id="Node000005" class="node">
<title>Node5</title>
<g id="a_Node000005"><a xlink:href="../../d7/dfe/struct_velocity_field_af31be4125d3ee44682248f7858c8c03d.html#af31be4125d3ee44682248f7858c8c03d" target="_top" xlink:title=" ">
<polygon fill="white" stroke="#666666" points="426.38,-19.25 321.88,-19.25 321.88,0 426.38,0 426.38,-19.25"/>
<text text-anchor="middle" x="374.12" y="-5.75" font-family="Helvetica,sans-Serif" font-size="10.00">VelocityField::resize</text>
</a>
</g>
</g>
<!-- Node4&#45;&gt;Node5 -->
<g id="edge4_Node000004_Node000005" class="edge">
<title>Node4&#45;&gt;Node5</title>
<g id="a_edge4_Node000004_Node000005"><a xlink:title=" ">
<path fill="none" stroke="#63b8ff" d="M282.27,-9.62C291.49,-9.62 301.09,-9.62 310.46,-9.62"/>
<polygon fill="#63b8ff" stroke="#63b8ff" points="310.21,-13.13 320.21,-9.63 310.21,-6.13 310.21,-13.13"/>
</a>
</g>
</g>
</g>
</svg>
