<?xml version="1.0" encoding="UTF-8" standalone="no"?>
<!DOCTYPE svg PUBLIC "-//W3C//DTD SVG 1.1//EN"
 "http://www.w3.org/Graphics/SVG/1.1/DTD/svg11.dtd">
<!-- Generated by graphviz version 12.2.1 (20241206.2353)
 -->
<!-- Title: Super_Sonic_Inflow Pages: 1 -->
<svg width="340pt" height="76pt"
 viewBox="0.00 0.00 340.25 75.88" xmlns="http://www.w3.org/2000/svg" xmlns:xlink="http://www.w3.org/1999/xlink">
<g id="graph0" class="graph" transform="scale(1 1) rotate(0) translate(4 71.88)">
<title>Super_Sonic_Inflow</title>
<!-- Node1 -->
<g id="Node000001" class="node">
<title>Node1</title>
<g id="a_Node000001"><a xlink:title=" ">
<polygon fill="#999999" stroke="#666666" points="103,-40.25 0,-40.25 0,-21 103,-21 103,-40.25"/>
<text text-anchor="middle" x="51.5" y="-26.75" font-family="Helvetica,sans-Serif" font-size="10.00">Super_Sonic_Inflow</text>
</a>
</g>
</g>
<!-- Node2 -->
<g id="Node000002" class="node">
<title>Node2</title>
<g id="a_Node000002"><a xlink:href="../../df/d43/_basic___functions_8cpp_a1c199e756f8458978961b4d9ab4cbe63.html#a1c199e756f8458978961b4d9ab4cbe63" target="_top" xlink:title=" ">
<polygon fill="white" stroke="#666666" points="239.75,-67.88 139,-67.88 139,-37.38 239.75,-37.38 239.75,-67.88"/>
<text text-anchor="start" x="147" y="-54.38" font-family="Helvetica,sans-Serif" font-size="10.00">Calculate_Primitive</text>
<text text-anchor="middle" x="189.38" y="-43.12" font-family="Helvetica,sans-Serif" font-size="10.00">_Variables</text>
</a>
</g>
</g>
<!-- Node1&#45;&gt;Node2 -->
<g id="edge1_Node000001_Node000002" class="edge">
<title>Node1&#45;&gt;Node2</title>
<g id="a_edge1_Node000001_Node000002"><a xlink:title=" ">
<path fill="none" stroke="#63b8ff" d="M103.48,-38.88C111.36,-40.16 119.57,-41.48 127.64,-42.79"/>
<polygon fill="#63b8ff" stroke="#63b8ff" points="126.99,-46.23 137.42,-44.37 128.11,-39.32 126.99,-46.23"/>
</a>
</g>
</g>
<!-- Node4 -->
<g id="Node000004" class="node">
<title>Node4</title>
<g id="a_Node000004"><a xlink:href="../../d8/d40/_grid___computations_8cpp_aa5fe1ffca7af96bc7295ff9492f6423d.html#aa5fe1ffca7af96bc7295ff9492f6423d" target="_top" xlink:title=" ">
<polygon fill="white" stroke="#666666" points="227.38,-19.25 151.38,-19.25 151.38,0 227.38,0 227.38,-19.25"/>
<text text-anchor="middle" x="189.38" y="-5.75" font-family="Helvetica,sans-Serif" font-size="10.00">Vector_Reset</text>
</a>
</g>
</g>
<!-- Node1&#45;&gt;Node4 -->
<g id="edge3_Node000001_Node000004" class="edge">
<title>Node1&#45;&gt;Node4</title>
<g id="a_edge3_Node000001_Node000004"><a xlink:title=" ">
<path fill="none" stroke="#63b8ff" d="M103.48,-22.75C115.47,-20.89 128.2,-18.93 140.06,-17.09"/>
<polygon fill="#63b8ff" stroke="#63b8ff" points="140.27,-20.6 149.62,-15.61 139.2,-13.68 140.27,-20.6"/>
</a>
</g>
</g>
<!-- Node3 -->
<g id="Node000003" class="node">
<title>Node3</title>
<g id="a_Node000003"><a xlink:href="../../df/d43/_basic___functions_8cpp_ae9dc3225863fb110155bb3e9dea4e4d3.html#ae9dc3225863fb110155bb3e9dea4e4d3" target="_top" xlink:title=" ">
<polygon fill="white" stroke="#666666" points="332.25,-62.25 275.75,-62.25 275.75,-43 332.25,-43 332.25,-62.25"/>
<text text-anchor="middle" x="304" y="-48.75" font-family="Helvetica,sans-Serif" font-size="10.00">Viscosity</text>
</a>
</g>
</g>
<!-- Node2&#45;&gt;Node3 -->
<g id="edge2_Node000002_Node000003" class="edge">
<title>Node2&#45;&gt;Node3</title>
<g id="a_edge2_Node000002_Node000003"><a xlink:title=" ">
<path fill="none" stroke="#63b8ff" d="M240.1,-52.62C248.16,-52.62 256.41,-52.62 264.16,-52.62"/>
<polygon fill="#63b8ff" stroke="#63b8ff" points="263.95,-56.13 273.95,-52.63 263.95,-49.13 263.95,-56.13"/>
</a>
</g>
</g>
</g>
</svg>
