<?xml version="1.0" encoding="UTF-8" standalone="no"?>
<!DOCTYPE svg PUBLIC "-//W3C//DTD SVG 1.1//EN"
 "http://www.w3.org/Graphics/SVG/1.1/DTD/svg11.dtd">
<!-- Generated by graphviz version 12.2.1 (20241206.2353)
 -->
<!-- Title: mut Pages: 1 -->
<svg width="347pt" height="64pt"
 viewBox="0.00 0.00 346.50 64.25" xmlns="http://www.w3.org/2000/svg" xmlns:xlink="http://www.w3.org/1999/xlink">
<g id="graph0" class="graph" transform="scale(1 1) rotate(0) translate(4 60.25)">
<title>mut</title>
<!-- Node1 -->
<g id="Node000001" class="node">
<title>Node1</title>
<g id="a_Node000001"><a xlink:title=" ">
<polygon fill="#999999" stroke="#666666" points="338.5,-37.25 306,-37.25 306,-18 338.5,-18 338.5,-37.25"/>
<text text-anchor="middle" x="322.25" y="-23.75" font-family="Helvetica,sans-Serif" font-size="10.00">mut</text>
</a>
</g>
</g>
<!-- Node2 -->
<g id="Node000002" class="node">
<title>Node2</title>
<g id="a_Node000002"><a xlink:href="../../dd/d6e/_source_8cpp_a58b1d26d446f85e4e7ac65c75c457ecc.html#a58b1d26d446f85e4e7ac65c75c457ecc" target="_top" xlink:title=" ">
<polygon fill="white" stroke="#666666" points="270,-56.25 209,-56.25 209,-37 270,-37 270,-56.25"/>
<text text-anchor="middle" x="239.5" y="-42.75" font-family="Helvetica,sans-Serif" font-size="10.00">de_update</text>
</a>
</g>
</g>
<!-- Node1&#45;&gt;Node2 -->
<g id="edge1_Node000001_Node000002" class="edge">
<title>Node1&#45;&gt;Node2</title>
<g id="a_edge1_Node000001_Node000002"><a xlink:title=" ">
<path fill="none" stroke="#63b8ff" d="M294.67,-33.88C286.9,-35.71 278.37,-37.72 270.41,-39.59"/>
<polygon fill="#63b8ff" stroke="#63b8ff" points="295.27,-37.33 304.21,-31.64 293.67,-30.52 295.27,-37.33"/>
</a>
</g>
</g>
<!-- Node5 -->
<g id="Node000005" class="node">
<title>Node5</title>
<g id="a_Node000005"><a xlink:href="../../dd/d6e/_source_8cpp_ae2b3a38c977ab9c0f9bbc12d49685b36.html#ae2b3a38c977ab9c0f9bbc12d49685b36" target="_top" xlink:title=" ">
<polygon fill="white" stroke="#666666" points="270,-19.25 209,-19.25 209,0 270,0 270,-19.25"/>
<text text-anchor="middle" x="239.5" y="-5.75" font-family="Helvetica,sans-Serif" font-size="10.00">ke_update</text>
</a>
</g>
</g>
<!-- Node1&#45;&gt;Node5 -->
<g id="edge4_Node000001_Node000005" class="edge">
<title>Node1&#45;&gt;Node5</title>
<g id="a_edge4_Node000001_Node000005"><a xlink:title=" ">
<path fill="none" stroke="#63b8ff" d="M294.67,-21.7C286.9,-19.97 278.37,-18.07 270.41,-16.29"/>
<polygon fill="#63b8ff" stroke="#63b8ff" points="293.68,-25.07 304.2,-23.83 295.2,-18.23 293.68,-25.07"/>
</a>
</g>
</g>
<!-- Node3 -->
<g id="Node000003" class="node">
<title>Node3</title>
<g id="a_Node000003"><a xlink:href="../../dd/d6e/_source_8cpp_a34dfb56cd801d13acca6ea57783ab2af.html#a34dfb56cd801d13acca6ea57783ab2af" target="_top" xlink:title=" ">
<polygon fill="white" stroke="#666666" points="173,-37.25 73,-37.25 73,-18 173,-18 173,-37.25"/>
<text text-anchor="middle" x="123" y="-23.75" font-family="Helvetica,sans-Serif" font-size="10.00">Gas_Phase_Solver</text>
</a>
</g>
</g>
<!-- Node2&#45;&gt;Node3 -->
<g id="edge2_Node000002_Node000003" class="edge">
<title>Node2&#45;&gt;Node3</title>
<g id="a_edge2_Node000002_Node000003"><a xlink:title=" ">
<path fill="none" stroke="#63b8ff" d="M197.54,-39.83C189.63,-38.52 181.28,-37.13 173.15,-35.78"/>
<polygon fill="#63b8ff" stroke="#63b8ff" points="196.78,-43.25 207.22,-41.43 197.93,-36.34 196.78,-43.25"/>
</a>
</g>
</g>
<!-- Node4 -->
<g id="Node000004" class="node">
<title>Node4</title>
<g id="a_Node000004"><a xlink:href="../../dd/d6e/_source_8cpp_ae66f6b31b5ad750f1fe042a706a4e3d4.html#ae66f6b31b5ad750f1fe042a706a4e3d4" target="_top" xlink:title=" ">
<polygon fill="white" stroke="#666666" points="37,-37.25 0,-37.25 0,-18 37,-18 37,-37.25"/>
<text text-anchor="middle" x="18.5" y="-23.75" font-family="Helvetica,sans-Serif" font-size="10.00">main</text>
</a>
</g>
</g>
<!-- Node3&#45;&gt;Node4 -->
<g id="edge3_Node000003_Node000004" class="edge">
<title>Node3&#45;&gt;Node4</title>
<g id="a_edge3_Node000003_Node000004"><a xlink:title=" ">
<path fill="none" stroke="#63b8ff" d="M61.29,-27.62C52.49,-27.62 44.08,-27.62 37.14,-27.62"/>
<polygon fill="#63b8ff" stroke="#63b8ff" points="61.04,-31.13 71.04,-27.63 61.04,-24.13 61.04,-31.13"/>
</a>
</g>
</g>
<!-- Node5&#45;&gt;Node3 -->
<g id="edge5_Node000005_Node000003" class="edge">
<title>Node5&#45;&gt;Node3</title>
<g id="a_edge5_Node000005_Node000003"><a xlink:title=" ">
<path fill="none" stroke="#63b8ff" d="M197.54,-16.06C189.63,-17.31 181.28,-18.62 173.15,-19.9"/>
<polygon fill="#63b8ff" stroke="#63b8ff" points="197.89,-19.55 207.22,-14.54 196.8,-12.64 197.89,-19.55"/>
</a>
</g>
</g>
</g>
</svg>
