<?xml version="1.0" encoding="UTF-8" standalone="no"?>
<!DOCTYPE svg PUBLIC "-//W3C//DTD SVG 1.1//EN"
 "http://www.w3.org/Graphics/SVG/1.1/DTD/svg11.dtd">
<!-- Generated by graphviz version 12.2.1 (20241206.2353)
 -->
<!-- Title: v_update Pages: 1 -->
<svg width="434pt" height="140pt"
 viewBox="0.00 0.00 433.50 140.25" xmlns="http://www.w3.org/2000/svg" xmlns:xlink="http://www.w3.org/1999/xlink">
<g id="graph0" class="graph" transform="scale(1 1) rotate(0) translate(4 136.25)">
<title>v_update</title>
<!-- Node1 -->
<g id="Node000001" class="node">
<title>Node1</title>
<g id="a_Node000001"><a xlink:title=" ">
<polygon fill="#999999" stroke="#666666" points="55.75,-75.25 0,-75.25 0,-56 55.75,-56 55.75,-75.25"/>
<text text-anchor="middle" x="27.88" y="-61.75" font-family="Helvetica,sans-Serif" font-size="10.00">v_update</text>
</a>
</g>
</g>
<!-- Node2 -->
<g id="Node000002" class="node">
<title>Node2</title>
<g id="a_Node000002"><a xlink:href="../../dd/d6e/_source_8cpp_a7ef2db7d4d24c5577c2ac99d09518fe5.html#a7ef2db7d4d24c5577c2ac99d09518fe5" target="_top" xlink:title=" ">
<polygon fill="white" stroke="#666666" points="215.75,-132.25 91.75,-132.25 91.75,-113 215.75,-113 215.75,-132.25"/>
<text text-anchor="middle" x="153.75" y="-118.75" font-family="Helvetica,sans-Serif" font-size="10.00">enforce_domain_physics</text>
</a>
</g>
</g>
<!-- Node1&#45;&gt;Node2 -->
<g id="edge1_Node000001_Node000002" class="edge">
<title>Node1&#45;&gt;Node2</title>
<g id="a_edge1_Node000001_Node000002"><a xlink:title=" ">
<path fill="none" stroke="#63b8ff" d="M46.78,-75.68C59.22,-82.51 76.28,-91.55 91.75,-98.62 99.14,-102 107.14,-105.36 114.85,-108.45"/>
<polygon fill="#63b8ff" stroke="#63b8ff" points="113.46,-111.67 124.05,-112.06 116.02,-105.15 113.46,-111.67"/>
</a>
</g>
</g>
<!-- Node3 -->
<g id="Node000003" class="node">
<title>Node3</title>
<g id="a_Node000003"><a xlink:href="../../dd/d6e/_source_8cpp_af37f00cf67f41b7a1019a6fa6fd532e8.html#af37f00cf67f41b7a1019a6fa6fd532e8" target="_top" xlink:title=" ">
<polygon fill="white" stroke="#666666" points="172.62,-56.25 134.88,-56.25 134.88,-37 172.62,-37 172.62,-56.25"/>
<text text-anchor="middle" x="153.75" y="-42.75" font-family="Helvetica,sans-Serif" font-size="10.00">F_gp</text>
</a>
</g>
</g>
<!-- Node1&#45;&gt;Node3 -->
<g id="edge2_Node000001_Node000003" class="edge">
<title>Node1&#45;&gt;Node3</title>
<g id="a_edge2_Node000001_Node000003"><a xlink:title=" ">
<path fill="none" stroke="#63b8ff" d="M56.06,-61.46C75.94,-58.41 102.9,-54.27 123.29,-51.14"/>
<polygon fill="#63b8ff" stroke="#63b8ff" points="123.59,-54.64 132.95,-49.66 122.53,-47.72 123.59,-54.64"/>
</a>
</g>
</g>
<!-- Node4 -->
<g id="Node000004" class="node">
<title>Node4</title>
<g id="a_Node000004"><a xlink:href="../../dd/d6e/_source_8cpp_ac3ca177b69f77a5b94aab7a11081b284.html#ac3ca177b69f77a5b94aab7a11081b284" target="_top" xlink:title=" ">
<polygon fill="white" stroke="#666666" points="307.5,-94.25 251.75,-94.25 251.75,-75 307.5,-75 307.5,-94.25"/>
<text text-anchor="middle" x="279.62" y="-80.75" font-family="Helvetica,sans-Serif" font-size="10.00">void_frac</text>
</a>
</g>
</g>
<!-- Node1&#45;&gt;Node4 -->
<g id="edge8_Node000001_Node000004" class="edge">
<title>Node1&#45;&gt;Node4</title>
<g id="a_edge8_Node000001_Node000004"><a xlink:title=" ">
<path fill="none" stroke="#63b8ff" d="M56.08,-67.69C100.65,-71.09 189.35,-77.83 240.28,-81.71"/>
<polygon fill="#63b8ff" stroke="#63b8ff" points="239.71,-85.17 249.95,-82.44 240.24,-78.19 239.71,-85.17"/>
</a>
</g>
</g>
<!-- Node7 -->
<g id="Node000007" class="node">
<title>Node7</title>
<g id="a_Node000007"><a xlink:href="../../dd/d6e/_source_8cpp_aea0442b50b0f845a33d9556d9728dd56.html#aea0442b50b0f845a33d9556d9728dd56" target="_top" xlink:title=" ">
<polygon fill="white" stroke="#666666" points="171.12,-19.25 136.38,-19.25 136.38,0 171.12,0 171.12,-19.25"/>
<text text-anchor="middle" x="153.75" y="-5.75" font-family="Helvetica,sans-Serif" font-size="10.00">mue</text>
</a>
</g>
</g>
<!-- Node1&#45;&gt;Node7 -->
<g id="edge7_Node000001_Node000007" class="edge">
<title>Node1&#45;&gt;Node7</title>
<g id="a_edge7_Node000001_Node000007"><a xlink:title=" ">
<path fill="none" stroke="#63b8ff" d="M42.79,-55.78C55.17,-47.38 74.01,-35.45 91.75,-27.62 102.36,-22.95 114.53,-19.08 125.19,-16.14"/>
<polygon fill="#63b8ff" stroke="#63b8ff" points="125.77,-19.61 134.57,-13.71 124.01,-12.83 125.77,-19.61"/>
</a>
</g>
</g>
<!-- Node3&#45;&gt;Node4 -->
<g id="edge3_Node000003_Node000004" class="edge">
<title>Node3&#45;&gt;Node4</title>
<g id="a_edge3_Node000003_Node000004"><a xlink:title=" ">
<path fill="none" stroke="#63b8ff" d="M173.03,-52.23C190.76,-57.67 218.21,-66.09 240.67,-72.98"/>
<polygon fill="#63b8ff" stroke="#63b8ff" points="239.53,-76.29 250.12,-75.88 241.58,-69.6 239.53,-76.29"/>
</a>
</g>
</g>
<!-- Node6 -->
<g id="Node000006" class="node">
<title>Node6</title>
<g id="a_Node000006"><a xlink:href="../../dd/d6e/_source_8cpp_a1c3ca4636bc91c6cacc838651bebc494.html#a1c3ca4636bc91c6cacc838651bebc494" target="_top" xlink:title=" ">
<polygon fill="white" stroke="#666666" points="425.12,-57.25 343.88,-57.25 343.88,-38 425.12,-38 425.12,-57.25"/>
<text text-anchor="middle" x="384.5" y="-43.75" font-family="Helvetica,sans-Serif" font-size="10.00">void_frac_solid</text>
</a>
</g>
</g>
<!-- Node3&#45;&gt;Node6 -->
<g id="edge6_Node000003_Node000006" class="edge">
<title>Node3&#45;&gt;Node6</title>
<g id="a_edge6_Node000003_Node000006"><a xlink:title=" ">
<path fill="none" stroke="#63b8ff" d="M173.08,-46.71C207.21,-46.85 281.61,-47.18 332.14,-47.4"/>
<polygon fill="#63b8ff" stroke="#63b8ff" points="331.96,-50.9 341.97,-47.44 331.99,-43.9 331.96,-50.9"/>
</a>
</g>
</g>
<!-- Node5 -->
<g id="Node000005" class="node">
<title>Node5</title>
<g id="a_Node000005"><a xlink:href="../../dd/d6e/_source_8cpp_a42cdee75cffdb3d6c374b6a29bb321d2.html#a42cdee75cffdb3d6c374b6a29bb321d2" target="_top" xlink:title=" ">
<polygon fill="white" stroke="#666666" points="425.5,-94.25 343.5,-94.25 343.5,-75 425.5,-75 425.5,-94.25"/>
<text text-anchor="middle" x="384.5" y="-80.75" font-family="Helvetica,sans-Serif" font-size="10.00">void_frac_fines</text>
</a>
</g>
</g>
<!-- Node4&#45;&gt;Node5 -->
<g id="edge4_Node000004_Node000005" class="edge">
<title>Node4&#45;&gt;Node5</title>
<g id="a_edge4_Node000004_Node000005"><a xlink:title=" ">
<path fill="none" stroke="#63b8ff" d="M307.92,-84.62C315.37,-84.62 323.69,-84.62 332.02,-84.62"/>
<polygon fill="#63b8ff" stroke="#63b8ff" points="331.77,-88.13 341.77,-84.63 331.77,-81.13 331.77,-88.13"/>
</a>
</g>
</g>
<!-- Node4&#45;&gt;Node6 -->
<g id="edge5_Node000004_Node000006" class="edge">
<title>Node4&#45;&gt;Node6</title>
<g id="a_edge5_Node000004_Node000006"><a xlink:title=" ">
<path fill="none" stroke="#63b8ff" d="M307.92,-74.81C319.25,-70.73 332.59,-65.93 344.89,-61.51"/>
<polygon fill="#63b8ff" stroke="#63b8ff" points="345.71,-64.94 353.93,-58.26 343.34,-58.35 345.71,-64.94"/>
</a>
</g>
</g>
</g>
</svg>
