<?xml version="1.0" encoding="UTF-8" standalone="no"?>
<!DOCTYPE svg PUBLIC "-//W3C//DTD SVG 1.1//EN"
 "http://www.w3.org/Graphics/SVG/1.1/DTD/svg11.dtd">
<!-- Generated by graphviz version 12.2.1 (20241206.2353)
 -->
<!-- Title: mue Pages: 1 -->
<svg width="344pt" height="64pt"
 viewBox="0.00 0.00 343.50 64.25" xmlns="http://www.w3.org/2000/svg" xmlns:xlink="http://www.w3.org/1999/xlink">
<g id="graph0" class="graph" transform="scale(1 1) rotate(0) translate(4 60.25)">
<title>mue</title>
<!-- Node1 -->
<g id="Node000001" class="node">
<title>Node1</title>
<g id="a_Node000001"><a xlink:title=" ">
<polygon fill="#999999" stroke="#666666" points="335.5,-37.25 300.75,-37.25 300.75,-18 335.5,-18 335.5,-37.25"/>
<text text-anchor="middle" x="318.12" y="-23.75" font-family="Helvetica,sans-Serif" font-size="10.00">mue</text>
</a>
</g>
</g>
<!-- Node2 -->
<g id="Node000002" class="node">
<title>Node2</title>
<g id="a_Node000002"><a xlink:href="../../dd/d6e/_source_8cpp_ada153a5ef75acc924a0a0b03bb88f320.html#ada153a5ef75acc924a0a0b03bb88f320" target="_top" xlink:title=" ">
<polygon fill="white" stroke="#666666" points="264.75,-56.25 209,-56.25 209,-37 264.75,-37 264.75,-56.25"/>
<text text-anchor="middle" x="236.88" y="-42.75" font-family="Helvetica,sans-Serif" font-size="10.00">u_update</text>
</a>
</g>
</g>
<!-- Node1&#45;&gt;Node2 -->
<g id="edge1_Node000001_Node000002" class="edge">
<title>Node1&#45;&gt;Node2</title>
<g id="a_edge1_Node000001_Node000002"><a xlink:title=" ">
<path fill="none" stroke="#63b8ff" d="M289.38,-34.28C281.45,-36.18 272.83,-38.24 264.95,-40.13"/>
<polygon fill="#63b8ff" stroke="#63b8ff" points="289.94,-37.74 298.85,-32.01 288.31,-30.94 289.94,-37.74"/>
</a>
</g>
</g>
<!-- Node5 -->
<g id="Node000005" class="node">
<title>Node5</title>
<g id="a_Node000005"><a xlink:href="../../dd/d6e/_source_8cpp_a86ac53788df9ce94ac02f8d03d3c989f.html#a86ac53788df9ce94ac02f8d03d3c989f" target="_top" xlink:title=" ">
<polygon fill="white" stroke="#666666" points="264.75,-19.25 209,-19.25 209,0 264.75,0 264.75,-19.25"/>
<text text-anchor="middle" x="236.88" y="-5.75" font-family="Helvetica,sans-Serif" font-size="10.00">v_update</text>
</a>
</g>
</g>
<!-- Node1&#45;&gt;Node5 -->
<g id="edge4_Node000001_Node000005" class="edge">
<title>Node1&#45;&gt;Node5</title>
<g id="a_edge4_Node000001_Node000005"><a xlink:title=" ">
<path fill="none" stroke="#63b8ff" d="M289.1,-21.26C281.25,-19.48 272.74,-17.54 264.95,-15.77"/>
<polygon fill="#63b8ff" stroke="#63b8ff" points="288.32,-24.67 298.84,-23.47 289.87,-17.84 288.32,-24.67"/>
</a>
</g>
</g>
<!-- Node3 -->
<g id="Node000003" class="node">
<title>Node3</title>
<g id="a_Node000003"><a xlink:href="../../dd/d6e/_source_8cpp_a34dfb56cd801d13acca6ea57783ab2af.html#a34dfb56cd801d13acca6ea57783ab2af" target="_top" xlink:title=" ">
<polygon fill="white" stroke="#666666" points="173,-37.25 73,-37.25 73,-18 173,-18 173,-37.25"/>
<text text-anchor="middle" x="123" y="-23.75" font-family="Helvetica,sans-Serif" font-size="10.00">Gas_Phase_Solver</text>
</a>
</g>
</g>
<!-- Node2&#45;&gt;Node3 -->
<g id="edge2_Node000002_Node000003" class="edge">
<title>Node2&#45;&gt;Node3</title>
<g id="a_edge2_Node000002_Node000003"><a xlink:title=" ">
<path fill="none" stroke="#63b8ff" d="M197.27,-40.07C189.56,-38.76 181.36,-37.37 173.35,-36.01"/>
<polygon fill="#63b8ff" stroke="#63b8ff" points="196.57,-43.5 207.02,-41.72 197.74,-36.6 196.57,-43.5"/>
</a>
</g>
</g>
<!-- Node4 -->
<g id="Node000004" class="node">
<title>Node4</title>
<g id="a_Node000004"><a xlink:href="../../dd/d6e/_source_8cpp_ae66f6b31b5ad750f1fe042a706a4e3d4.html#ae66f6b31b5ad750f1fe042a706a4e3d4" target="_top" xlink:title=" ">
<polygon fill="white" stroke="#666666" points="37,-37.25 0,-37.25 0,-18 37,-18 37,-37.25"/>
<text text-anchor="middle" x="18.5" y="-23.75" font-family="Helvetica,sans-Serif" font-size="10.00">main</text>
</a>
</g>
</g>
<!-- Node3&#45;&gt;Node4 -->
<g id="edge3_Node000003_Node000004" class="edge">
<title>Node3&#45;&gt;Node4</title>
<g id="a_edge3_Node000003_Node000004"><a xlink:title=" ">
<path fill="none" stroke="#63b8ff" d="M61.29,-27.62C52.49,-27.62 44.08,-27.62 37.14,-27.62"/>
<polygon fill="#63b8ff" stroke="#63b8ff" points="61.04,-31.13 71.04,-27.63 61.04,-24.13 61.04,-31.13"/>
</a>
</g>
</g>
<!-- Node5&#45;&gt;Node3 -->
<g id="edge5_Node000005_Node000003" class="edge">
<title>Node5&#45;&gt;Node3</title>
<g id="a_edge5_Node000005_Node000003"><a xlink:title=" ">
<path fill="none" stroke="#63b8ff" d="M197.27,-15.84C189.56,-17.08 181.36,-18.4 173.35,-19.69"/>
<polygon fill="#63b8ff" stroke="#63b8ff" points="197.7,-19.31 207.01,-14.27 196.58,-12.4 197.7,-19.31"/>
</a>
</g>
</g>
</g>
</svg>
