<?xml version="1.0" encoding="UTF-8" standalone="no"?>
<!DOCTYPE svg PUBLIC "-//W3C//DTD SVG 1.1//EN"
 "http://www.w3.org/Graphics/SVG/1.1/DTD/svg11.dtd">
<!-- Generated by graphviz version 12.2.1 (20241206.2353)
 -->
<!-- Title: F_gp Pages: 1 -->
<svg width="256pt" height="64pt"
 viewBox="0.00 0.00 255.50 64.25" xmlns="http://www.w3.org/2000/svg" xmlns:xlink="http://www.w3.org/1999/xlink">
<g id="graph0" class="graph" transform="scale(1 1) rotate(0) translate(4 60.25)">
<title>F_gp</title>
<!-- Node1 -->
<g id="Node000001" class="node">
<title>Node1</title>
<g id="a_Node000001"><a xlink:title=" ">
<polygon fill="#999999" stroke="#666666" points="37.75,-37.25 0,-37.25 0,-18 37.75,-18 37.75,-37.25"/>
<text text-anchor="middle" x="18.88" y="-23.75" font-family="Helvetica,sans-Serif" font-size="10.00">F_gp</text>
</a>
</g>
</g>
<!-- Node2 -->
<g id="Node000002" class="node">
<title>Node2</title>
<g id="a_Node000002"><a xlink:href="../../dd/d6e/_source_8cpp_ac3ca177b69f77a5b94aab7a11081b284.html#ac3ca177b69f77a5b94aab7a11081b284" target="_top" xlink:title=" ">
<polygon fill="white" stroke="#666666" points="129.5,-56.25 73.75,-56.25 73.75,-37 129.5,-37 129.5,-56.25"/>
<text text-anchor="middle" x="101.62" y="-42.75" font-family="Helvetica,sans-Serif" font-size="10.00">void_frac</text>
</a>
</g>
</g>
<!-- Node1&#45;&gt;Node2 -->
<g id="edge1_Node000001_Node000002" class="edge">
<title>Node1&#45;&gt;Node2</title>
<g id="a_edge1_Node000001_Node000002"><a xlink:title=" ">
<path fill="none" stroke="#63b8ff" d="M38.2,-31.94C45.45,-33.64 54.06,-35.67 62.54,-37.66"/>
<polygon fill="#63b8ff" stroke="#63b8ff" points="61.47,-41.01 72.01,-39.89 63.08,-34.19 61.47,-41.01"/>
</a>
</g>
</g>
<!-- Node4 -->
<g id="Node000004" class="node">
<title>Node4</title>
<g id="a_Node000004"><a xlink:href="../../dd/d6e/_source_8cpp_a1c3ca4636bc91c6cacc838651bebc494.html#a1c3ca4636bc91c6cacc838651bebc494" target="_top" xlink:title=" ">
<polygon fill="white" stroke="#666666" points="247.12,-19.25 165.88,-19.25 165.88,0 247.12,0 247.12,-19.25"/>
<text text-anchor="middle" x="206.5" y="-5.75" font-family="Helvetica,sans-Serif" font-size="10.00">void_frac_solid</text>
</a>
</g>
</g>
<!-- Node1&#45;&gt;Node4 -->
<g id="edge4_Node000001_Node000004" class="edge">
<title>Node1&#45;&gt;Node4</title>
<g id="a_edge4_Node000001_Node000004"><a xlink:title=" ">
<path fill="none" stroke="#63b8ff" d="M38.01,-25.87C64.75,-23.27 115.75,-18.33 154.48,-14.57"/>
<polygon fill="#63b8ff" stroke="#63b8ff" points="154.44,-18.09 164.05,-13.64 153.76,-11.13 154.44,-18.09"/>
</a>
</g>
</g>
<!-- Node3 -->
<g id="Node000003" class="node">
<title>Node3</title>
<g id="a_Node000003"><a xlink:href="../../dd/d6e/_source_8cpp_a42cdee75cffdb3d6c374b6a29bb321d2.html#a42cdee75cffdb3d6c374b6a29bb321d2" target="_top" xlink:title=" ">
<polygon fill="white" stroke="#666666" points="247.5,-56.25 165.5,-56.25 165.5,-37 247.5,-37 247.5,-56.25"/>
<text text-anchor="middle" x="206.5" y="-42.75" font-family="Helvetica,sans-Serif" font-size="10.00">void_frac_fines</text>
</a>
</g>
</g>
<!-- Node2&#45;&gt;Node3 -->
<g id="edge2_Node000002_Node000003" class="edge">
<title>Node2&#45;&gt;Node3</title>
<g id="a_edge2_Node000002_Node000003"><a xlink:title=" ">
<path fill="none" stroke="#63b8ff" d="M129.92,-46.62C137.37,-46.62 145.69,-46.62 154.02,-46.62"/>
<polygon fill="#63b8ff" stroke="#63b8ff" points="153.77,-50.13 163.77,-46.63 153.77,-43.13 153.77,-50.13"/>
</a>
</g>
</g>
<!-- Node2&#45;&gt;Node4 -->
<g id="edge3_Node000002_Node000004" class="edge">
<title>Node2&#45;&gt;Node4</title>
<g id="a_edge3_Node000002_Node000004"><a xlink:title=" ">
<path fill="none" stroke="#63b8ff" d="M129.92,-36.81C141.25,-32.73 154.59,-27.93 166.89,-23.51"/>
<polygon fill="#63b8ff" stroke="#63b8ff" points="167.71,-26.94 175.93,-20.26 165.34,-20.35 167.71,-26.94"/>
</a>
</g>
</g>
</g>
</svg>
