<?xml version="1.0" encoding="UTF-8" standalone="no"?>
<!DOCTYPE svg PUBLIC "-//W3C//DTD SVG 1.1//EN"
 "http://www.w3.org/Graphics/SVG/1.1/DTD/svg11.dtd">
<!-- Generated by graphviz version 12.2.1 (20241206.2353)
 -->
<!-- Title: void_frac_solid Pages: 1 -->
<svg width="585pt" height="216pt"
 viewBox="0.00 0.00 584.75 216.25" xmlns="http://www.w3.org/2000/svg" xmlns:xlink="http://www.w3.org/1999/xlink">
<g id="graph0" class="graph" transform="scale(1 1) rotate(0) translate(4 212.25)">
<title>void_frac_solid</title>
<!-- Node1 -->
<g id="Node000001" class="node">
<title>Node1</title>
<g id="a_Node000001"><a xlink:title=" ">
<polygon fill="#999999" stroke="#666666" points="576.75,-151.25 495.5,-151.25 495.5,-132 576.75,-132 576.75,-151.25"/>
<text text-anchor="middle" x="536.12" y="-137.75" font-family="Helvetica,sans-Serif" font-size="10.00">void_frac_solid</text>
</a>
</g>
</g>
<!-- Node2 -->
<g id="Node000002" class="node">
<title>Node2</title>
<g id="a_Node000002"><a xlink:href="../../dd/d6e/_source_8cpp_af37f00cf67f41b7a1019a6fa6fd532e8.html#af37f00cf67f41b7a1019a6fa6fd532e8" target="_top" xlink:title=" ">
<polygon fill="white" stroke="#666666" points="356.12,-208.25 318.38,-208.25 318.38,-189 356.12,-189 356.12,-208.25"/>
<text text-anchor="middle" x="337.25" y="-194.75" font-family="Helvetica,sans-Serif" font-size="10.00">F_gp</text>
</a>
</g>
</g>
<!-- Node1&#45;&gt;Node2 -->
<g id="edge1_Node000001_Node000002" class="edge">
<title>Node1&#45;&gt;Node2</title>
<g id="a_edge1_Node000001_Node000002"><a xlink:title=" ">
<path fill="none" stroke="#63b8ff" d="M489.52,-154.83C447.21,-167.08 386.4,-184.68 356.4,-193.37"/>
<polygon fill="#63b8ff" stroke="#63b8ff" points="490.29,-158.25 498.93,-152.11 488.35,-151.52 490.29,-158.25"/>
</a>
</g>
</g>
<!-- Node7 -->
<g id="Node000007" class="node">
<title>Node7</title>
<g id="a_Node000007"><a xlink:href="../../dd/d6e/_source_8cpp_ac3ca177b69f77a5b94aab7a11081b284.html#ac3ca177b69f77a5b94aab7a11081b284" target="_top" xlink:title=" ">
<polygon fill="white" stroke="#666666" points="459.5,-132.25 403.75,-132.25 403.75,-113 459.5,-113 459.5,-132.25"/>
<text text-anchor="middle" x="431.62" y="-118.75" font-family="Helvetica,sans-Serif" font-size="10.00">void_frac</text>
</a>
</g>
</g>
<!-- Node1&#45;&gt;Node7 -->
<g id="edge7_Node000001_Node000007" class="edge">
<title>Node1&#45;&gt;Node7</title>
<g id="a_edge7_Node000001_Node000007"><a xlink:title=" ">
<path fill="none" stroke="#63b8ff" d="M483.97,-132.14C475.67,-130.6 467.37,-129.07 459.94,-127.69"/>
<polygon fill="#63b8ff" stroke="#63b8ff" points="483.24,-135.57 493.71,-133.95 484.52,-128.68 483.24,-135.57"/>
</a>
</g>
</g>
<!-- Node3 -->
<g id="Node000003" class="node">
<title>Node3</title>
<g id="a_Node000003"><a xlink:href="../../dd/d6e/_source_8cpp_ada153a5ef75acc924a0a0b03bb88f320.html#ada153a5ef75acc924a0a0b03bb88f320" target="_top" xlink:title=" ">
<polygon fill="white" stroke="#666666" points="267.75,-170.25 212,-170.25 212,-151 267.75,-151 267.75,-170.25"/>
<text text-anchor="middle" x="239.88" y="-156.75" font-family="Helvetica,sans-Serif" font-size="10.00">u_update</text>
</a>
</g>
</g>
<!-- Node2&#45;&gt;Node3 -->
<g id="edge2_Node000002_Node000003" class="edge">
<title>Node2&#45;&gt;Node3</title>
<g id="a_edge2_Node000002_Node000003"><a xlink:title=" ">
<path fill="none" stroke="#63b8ff" d="M307.81,-187.29C294.5,-181.99 278.79,-175.73 265.93,-170.61"/>
<polygon fill="#63b8ff" stroke="#63b8ff" points="306.32,-190.47 316.9,-190.92 308.91,-183.96 306.32,-190.47"/>
</a>
</g>
</g>
<!-- Node6 -->
<g id="Node000006" class="node">
<title>Node6</title>
<g id="a_Node000006"><a xlink:href="../../dd/d6e/_source_8cpp_a86ac53788df9ce94ac02f8d03d3c989f.html#a86ac53788df9ce94ac02f8d03d3c989f" target="_top" xlink:title=" ">
<polygon fill="white" stroke="#666666" points="267.75,-133.25 212,-133.25 212,-114 267.75,-114 267.75,-133.25"/>
<text text-anchor="middle" x="239.88" y="-119.75" font-family="Helvetica,sans-Serif" font-size="10.00">v_update</text>
</a>
</g>
</g>
<!-- Node2&#45;&gt;Node6 -->
<g id="edge5_Node000002_Node000006" class="edge">
<title>Node2&#45;&gt;Node6</title>
<g id="a_edge5_Node000002_Node000006"><a xlink:title=" ">
<path fill="none" stroke="#63b8ff" d="M317.72,-180.95C304.98,-169.2 287.42,-153.76 270.75,-141.62 266.93,-138.85 262.67,-136.09 258.58,-133.6"/>
<polygon fill="#63b8ff" stroke="#63b8ff" points="315.26,-183.44 324.95,-187.72 320.04,-178.33 315.26,-183.44"/>
</a>
</g>
</g>
<!-- Node4 -->
<g id="Node000004" class="node">
<title>Node4</title>
<g id="a_Node000004"><a xlink:href="../../dd/d6e/_source_8cpp_a34dfb56cd801d13acca6ea57783ab2af.html#a34dfb56cd801d13acca6ea57783ab2af" target="_top" xlink:title=" ">
<polygon fill="white" stroke="#666666" points="173,-95.25 73,-95.25 73,-76 173,-76 173,-95.25"/>
<text text-anchor="middle" x="123" y="-81.75" font-family="Helvetica,sans-Serif" font-size="10.00">Gas_Phase_Solver</text>
</a>
</g>
</g>
<!-- Node3&#45;&gt;Node4 -->
<g id="edge3_Node000003_Node000004" class="edge">
<title>Node3&#45;&gt;Node4</title>
<g id="a_edge3_Node000003_Node000004"><a xlink:title=" ">
<path fill="none" stroke="#63b8ff" d="M212.61,-144.9C211.39,-144.13 210.18,-143.37 209,-142.62 183.96,-126.7 155.42,-107.3 138.6,-95.73"/>
<polygon fill="#63b8ff" stroke="#63b8ff" points="210.39,-147.64 220.75,-149.88 214.05,-141.68 210.39,-147.64"/>
</a>
</g>
</g>
<!-- Node5 -->
<g id="Node000005" class="node">
<title>Node5</title>
<g id="a_Node000005"><a xlink:href="../../dd/d6e/_source_8cpp_ae66f6b31b5ad750f1fe042a706a4e3d4.html#ae66f6b31b5ad750f1fe042a706a4e3d4" target="_top" xlink:title=" ">
<polygon fill="white" stroke="#666666" points="37,-95.25 0,-95.25 0,-76 37,-76 37,-95.25"/>
<text text-anchor="middle" x="18.5" y="-81.75" font-family="Helvetica,sans-Serif" font-size="10.00">main</text>
</a>
</g>
</g>
<!-- Node4&#45;&gt;Node5 -->
<g id="edge4_Node000004_Node000005" class="edge">
<title>Node4&#45;&gt;Node5</title>
<g id="a_edge4_Node000004_Node000005"><a xlink:title=" ">
<path fill="none" stroke="#63b8ff" d="M61.29,-85.62C52.49,-85.62 44.08,-85.62 37.14,-85.62"/>
<polygon fill="#63b8ff" stroke="#63b8ff" points="61.04,-89.13 71.04,-85.63 61.04,-82.13 61.04,-89.13"/>
</a>
</g>
</g>
<!-- Node6&#45;&gt;Node4 -->
<g id="edge6_Node000006_Node000004" class="edge">
<title>Node6&#45;&gt;Node4</title>
<g id="a_edge6_Node000006_Node000004"><a xlink:title=" ">
<path fill="none" stroke="#63b8ff" d="M201.03,-111.11C185.85,-106.08 168.59,-100.38 154.26,-95.64"/>
<polygon fill="#63b8ff" stroke="#63b8ff" points="199.62,-114.33 210.21,-114.14 201.82,-107.68 199.62,-114.33"/>
</a>
</g>
</g>
<!-- Node7&#45;&gt;Node2 -->
<g id="edge10_Node000007_Node000002" class="edge">
<title>Node7&#45;&gt;Node2</title>
<g id="a_edge10_Node000007_Node000002"><a xlink:title=" ">
<path fill="none" stroke="#63b8ff" d="M410.01,-139.74C397.76,-149.9 381.89,-163.03 367.75,-174.62 362.13,-179.23 355.9,-184.31 350.61,-188.6"/>
<polygon fill="#63b8ff" stroke="#63b8ff" points="411.97,-142.67 417.43,-133.59 407.5,-137.28 411.97,-142.67"/>
</a>
</g>
</g>
<!-- Node7&#45;&gt;Node3 -->
<g id="edge13_Node000007_Node000003" class="edge">
<title>Node7&#45;&gt;Node3</title>
<g id="a_edge13_Node000007_Node000003"><a xlink:title=" ">
<path fill="none" stroke="#63b8ff" d="M392.37,-132.1C384.26,-134.02 375.74,-135.95 367.75,-137.62 333.57,-144.79 293.93,-151.77 268.18,-156.12"/>
<polygon fill="#63b8ff" stroke="#63b8ff" points="393.08,-135.53 401.99,-129.8 391.45,-128.73 393.08,-135.53"/>
</a>
</g>
</g>
<!-- Node7&#45;&gt;Node6 -->
<g id="edge16_Node000007_Node000006" class="edge">
<title>Node7&#45;&gt;Node6</title>
<g id="a_edge16_Node000007_Node000006"><a xlink:title=" ">
<path fill="none" stroke="#63b8ff" d="M392.14,-122.83C355.26,-123.02 300.54,-123.31 268.01,-123.48"/>
<polygon fill="#63b8ff" stroke="#63b8ff" points="391.94,-126.33 401.92,-122.78 391.91,-119.33 391.94,-126.33"/>
</a>
</g>
</g>
<!-- Node8 -->
<g id="Node000008" class="node">
<title>Node8</title>
<g id="a_Node000008"><a xlink:href="../../dd/d6e/_source_8cpp_a58b1d26d446f85e4e7ac65c75c457ecc.html#a58b1d26d446f85e4e7ac65c75c457ecc" target="_top" xlink:title=" ">
<polygon fill="white" stroke="#666666" points="367.75,-94.25 306.75,-94.25 306.75,-75 367.75,-75 367.75,-94.25"/>
<text text-anchor="middle" x="337.25" y="-80.75" font-family="Helvetica,sans-Serif" font-size="10.00">de_update</text>
</a>
</g>
</g>
<!-- Node7&#45;&gt;Node8 -->
<g id="edge8_Node000007_Node000008" class="edge">
<title>Node7&#45;&gt;Node8</title>
<g id="a_edge8_Node000007_Node000008"><a xlink:title=" ">
<path fill="none" stroke="#63b8ff" d="M395.75,-108.28C384.73,-103.75 372.8,-98.84 362.68,-94.67"/>
<polygon fill="#63b8ff" stroke="#63b8ff" points="394.38,-111.5 404.95,-112.07 397.04,-105.02 394.38,-111.5"/>
</a>
</g>
</g>
<!-- Node9 -->
<g id="Node000009" class="node">
<title>Node9</title>
<g id="a_Node000009"><a xlink:href="../../dd/d6e/_source_8cpp_ae2b3a38c977ab9c0f9bbc12d49685b36.html#ae2b3a38c977ab9c0f9bbc12d49685b36" target="_top" xlink:title=" ">
<polygon fill="white" stroke="#666666" points="367.75,-57.25 306.75,-57.25 306.75,-38 367.75,-38 367.75,-57.25"/>
<text text-anchor="middle" x="337.25" y="-43.75" font-family="Helvetica,sans-Serif" font-size="10.00">ke_update</text>
</a>
</g>
</g>
<!-- Node7&#45;&gt;Node9 -->
<g id="edge11_Node000007_Node000009" class="edge">
<title>Node7&#45;&gt;Node9</title>
<g id="a_edge11_Node000007_Node000009"><a xlink:title=" ">
<path fill="none" stroke="#63b8ff" d="M412.92,-104.91C400.73,-93.14 383.89,-77.7 367.75,-65.62 364,-62.82 359.8,-60.06 355.77,-57.57"/>
<polygon fill="#63b8ff" stroke="#63b8ff" points="410.22,-107.17 419.82,-111.67 415.12,-102.17 410.22,-107.17"/>
</a>
</g>
</g>
<!-- Node10 -->
<g id="Node000010" class="node">
<title>Node10</title>
<g id="a_Node000010"><a xlink:href="../../dd/d6e/_source_8cpp_a16766876f2e07095d57d49d08037c9ea.html#a16766876f2e07095d57d49d08037c9ea" target="_top" xlink:title=" ">
<polygon fill="white" stroke="#666666" points="270.75,-19.25 209,-19.25 209,0 270.75,0 270.75,-19.25"/>
<text text-anchor="middle" x="239.88" y="-5.75" font-family="Helvetica,sans-Serif" font-size="10.00">uv_correct</text>
</a>
</g>
</g>
<!-- Node7&#45;&gt;Node10 -->
<g id="edge14_Node000007_Node000010" class="edge">
<title>Node7&#45;&gt;Node10</title>
<g id="a_edge14_Node000007_Node000010"><a xlink:title=" ">
<path fill="none" stroke="#63b8ff" d="M422.86,-102.13C413.39,-80.13 395.16,-46 367.75,-28.62 338.69,-10.2 298.49,-7.1 271.19,-7.53"/>
<polygon fill="#63b8ff" stroke="#63b8ff" points="419.56,-103.29 426.56,-111.25 426.04,-100.66 419.56,-103.29"/>
</a>
</g>
</g>
<!-- Node8&#45;&gt;Node4 -->
<g id="edge9_Node000008_Node000004" class="edge">
<title>Node8&#45;&gt;Node4</title>
<g id="a_edge9_Node000008_Node000004"><a xlink:title=" ">
<path fill="none" stroke="#63b8ff" d="M295.11,-84.82C260.32,-84.98 210.38,-85.22 173.43,-85.39"/>
<polygon fill="#63b8ff" stroke="#63b8ff" points="294.79,-88.32 304.78,-84.77 294.76,-81.32 294.79,-88.32"/>
</a>
</g>
</g>
<!-- Node9&#45;&gt;Node4 -->
<g id="edge12_Node000009_Node000004" class="edge">
<title>Node9&#45;&gt;Node4</title>
<g id="a_edge12_Node000009_Node000004"><a xlink:title=" ">
<path fill="none" stroke="#63b8ff" d="M295.11,-54.99C260.32,-61.22 210.38,-70.16 173.43,-76.78"/>
<polygon fill="#63b8ff" stroke="#63b8ff" points="295.57,-58.46 304.8,-53.26 294.34,-51.57 295.57,-58.46"/>
</a>
</g>
</g>
<!-- Node10&#45;&gt;Node4 -->
<g id="edge15_Node000010_Node000004" class="edge">
<title>Node10&#45;&gt;Node4</title>
<g id="a_edge15_Node000010_Node000004"><a xlink:title=" ">
<path fill="none" stroke="#63b8ff" d="M214.49,-25.76C191.63,-40.88 158.2,-63 139.02,-75.69"/>
<polygon fill="#63b8ff" stroke="#63b8ff" points="216.19,-28.83 222.59,-20.4 212.32,-22.99 216.19,-28.83"/>
</a>
</g>
</g>
</g>
</svg>
