<?xml version="1.0" encoding="UTF-8" standalone="no"?>
<!DOCTYPE svg PUBLIC "-//W3C//DTD SVG 1.1//EN"
 "http://www.w3.org/Graphics/SVG/1.1/DTD/svg11.dtd">
<!-- Generated by graphviz version 12.2.1 (20241206.2353)
 -->
<!-- Title: CUDA_KERNELS/Grid_CUDA_Integration_Example.cpp Pages: 1 -->
<svg width="1443pt" height="260pt"
 viewBox="0.00 0.00 1443.38 259.50" xmlns="http://www.w3.org/2000/svg" xmlns:xlink="http://www.w3.org/1999/xlink">
<g id="graph0" class="graph" transform="scale(1 1) rotate(0) translate(4 255.5)">
<title>CUDA_KERNELS/Grid_CUDA_Integration_Example.cpp</title>
<!-- Node1 -->
<g id="Node000001" class="node">
<title>Node1</title>
<g id="a_Node000001"><a xlink:title=" ">
<polygon fill="#999999" stroke="#666666" points="968.38,-251.5 815.12,-251.5 815.12,-221 968.38,-221 968.38,-251.5"/>
<text text-anchor="start" x="823.12" y="-238" font-family="Helvetica,sans-Serif" font-size="10.00">CUDA_KERNELS/Grid_CUDA</text>
<text text-anchor="middle" x="891.75" y="-226.75" font-family="Helvetica,sans-Serif" font-size="10.00">_Integration_Example.cpp</text>
</a>
</g>
</g>
<!-- Node2 -->
<g id="Node000002" class="node">
<title>Node2</title>
<g id="a_Node000002"><a xlink:href="../../d8/dea/_grid_8h.html" target="_top" xlink:title=" ">
<polygon fill="white" stroke="#666666" points="863.25,-185 778.25,-185 778.25,-165.75 863.25,-165.75 863.25,-185"/>
<text text-anchor="middle" x="820.75" y="-171.5" font-family="Helvetica,sans-Serif" font-size="10.00">../include/Grid.h</text>
</a>
</g>
</g>
<!-- Node1&#45;&gt;Node2 -->
<g id="edge1_Node000001_Node000002" class="edge">
<title>Node1&#45;&gt;Node2</title>
<g id="a_edge1_Node000001_Node000002"><a xlink:title=" ">
<path fill="none" stroke="#63b8ff" d="M874.2,-220.7C863.91,-212.16 850.89,-201.37 840.27,-192.56"/>
<polygon fill="#63b8ff" stroke="#63b8ff" points="842.79,-190.11 832.86,-186.42 838.32,-195.49 842.79,-190.11"/>
</a>
</g>
</g>
<!-- Node4 -->
<g id="Node000004" class="node">
<title>Node4</title>
<g id="a_Node000004"><a xlink:title=" ">
<polygon fill="#e0e0e0" stroke="#999999" points="53.5,-19.25 0,-19.25 0,0 53.5,0 53.5,-19.25"/>
<text text-anchor="middle" x="26.75" y="-5.75" font-family="Helvetica,sans-Serif" font-size="10.00">iostream</text>
</a>
</g>
</g>
<!-- Node1&#45;&gt;Node4 -->
<g id="edge33_Node000001_Node000004" class="edge">
<title>Node1&#45;&gt;Node4</title>
<g id="a_edge33_Node000001_Node000004"><a xlink:title=" ">
<path fill="none" stroke="#63b8ff" d="M834.99,-220.51C671.4,-178.03 201.83,-56.09 64.75,-20.49"/>
<polygon fill="#63b8ff" stroke="#63b8ff" points="66.01,-17.21 55.46,-18.08 64.26,-23.98 66.01,-17.21"/>
</a>
</g>
</g>
<!-- Node6 -->
<g id="Node000006" class="node">
<title>Node6</title>
<g id="a_Node000006"><a xlink:title=" ">
<polygon fill="#e0e0e0" stroke="#999999" points="1372.25,-19.25 1329.25,-19.25 1329.25,0 1372.25,0 1372.25,-19.25"/>
<text text-anchor="middle" x="1350.75" y="-5.75" font-family="Helvetica,sans-Serif" font-size="10.00">vector</text>
</a>
</g>
</g>
<!-- Node1&#45;&gt;Node6 -->
<g id="edge34_Node000001_Node000006" class="edge">
<title>Node1&#45;&gt;Node6</title>
<g id="a_edge34_Node000001_Node000006"><a xlink:title=" ">
<path fill="none" stroke="#63b8ff" d="M946.22,-220.6C976.41,-211.74 1014.29,-199.38 1046.75,-185 1156.85,-136.21 1278.42,-58.63 1327.91,-25.94"/>
<polygon fill="#63b8ff" stroke="#63b8ff" points="1329.69,-28.96 1336.09,-20.51 1325.82,-23.13 1329.69,-28.96"/>
</a>
</g>
</g>
<!-- Node14 -->
<g id="Node000014" class="node">
<title>Node14</title>
<g id="a_Node000014"><a xlink:title=" ">
<polygon fill="#e0e0e0" stroke="#999999" points="1435.38,-19.25 1390.12,-19.25 1390.12,0 1435.38,0 1435.38,-19.25"/>
<text text-anchor="middle" x="1412.75" y="-5.75" font-family="Helvetica,sans-Serif" font-size="10.00">chrono</text>
</a>
</g>
</g>
<!-- Node1&#45;&gt;Node14 -->
<g id="edge35_Node000001_Node000014" class="edge">
<title>Node1&#45;&gt;Node14</title>
<g id="a_edge35_Node000001_Node000014"><a xlink:title=" ">
<path fill="none" stroke="#63b8ff" d="M960.27,-220.56C996.38,-211.92 1041.09,-199.78 1079.75,-185 1201.19,-138.57 1335.28,-58.81 1388.79,-25.7"/>
<polygon fill="#63b8ff" stroke="#63b8ff" points="1390.47,-28.78 1397.11,-20.53 1386.77,-22.84 1390.47,-28.78"/>
</a>
</g>
</g>
<!-- Node25 -->
<g id="Node000025" class="node">
<title>Node25</title>
<g id="a_Node000025"><a xlink:href="../../d8/d4d/_globals_8h.html" target="_top" xlink:title=" ">
<polygon fill="white" stroke="#666666" points="784.38,-129.75 727.12,-129.75 727.12,-110.5 784.38,-110.5 784.38,-129.75"/>
<text text-anchor="middle" x="755.75" y="-116.25" font-family="Helvetica,sans-Serif" font-size="10.00">Globals.h</text>
</a>
</g>
</g>
<!-- Node1&#45;&gt;Node25 -->
<g id="edge26_Node000001_Node000025" class="edge">
<title>Node1&#45;&gt;Node25</title>
<g id="a_edge26_Node000001_Node000025"><a xlink:title=" ">
<path fill="none" stroke="#63b8ff" d="M824.59,-220.53C804.36,-213.01 783.81,-201.76 769.75,-185 759.58,-172.88 756.34,-155.03 755.49,-141.28"/>
<polygon fill="#63b8ff" stroke="#63b8ff" points="758.99,-141.52 755.29,-131.6 752,-141.67 758.99,-141.52"/>
</a>
</g>
</g>
<!-- Node26 -->
<g id="Node000026" class="node">
<title>Node26</title>
<g id="a_Node000026"><a xlink:href="../../d9/d04/_grid___cuda___kernels_8h.html" target="_top" xlink:title=" ">
<polygon fill="white" stroke="#666666" points="950.25,-129.75 841.25,-129.75 841.25,-110.5 950.25,-110.5 950.25,-129.75"/>
<text text-anchor="middle" x="895.75" y="-116.25" font-family="Helvetica,sans-Serif" font-size="10.00">Grid_Cuda_Kernels.h</text>
</a>
</g>
</g>
<!-- Node1&#45;&gt;Node26 -->
<g id="edge27_Node000001_Node000026" class="edge">
<title>Node1&#45;&gt;Node26</title>
<g id="a_edge27_Node000001_Node000026"><a xlink:title=" ">
<path fill="none" stroke="#63b8ff" d="M892.26,-220.8C892.96,-200.75 894.23,-164.4 895.03,-141.57"/>
<polygon fill="#63b8ff" stroke="#63b8ff" points="898.53,-141.83 895.38,-131.71 891.53,-141.58 898.53,-141.83"/>
</a>
</g>
</g>
<!-- Node28 -->
<g id="Node000028" class="node">
<title>Node28</title>
<g id="a_Node000028"><a xlink:href="../../d0/df8/_cuda___kernel___utilities_8h.html" target="_top" xlink:title=" ">
<polygon fill="white" stroke="#666666" points="1038.12,-185 919.38,-185 919.38,-165.75 1038.12,-165.75 1038.12,-185"/>
<text text-anchor="middle" x="978.75" y="-171.5" font-family="Helvetica,sans-Serif" font-size="10.00">Cuda_Kernel_Utilities.h</text>
</a>
</g>
</g>
<!-- Node1&#45;&gt;Node28 -->
<g id="edge30_Node000001_Node000028" class="edge">
<title>Node1&#45;&gt;Node28</title>
<g id="a_edge30_Node000001_Node000028"><a xlink:title=" ">
<path fill="none" stroke="#63b8ff" d="M913.26,-220.7C926.25,-211.9 942.79,-200.71 956,-191.77"/>
<polygon fill="#63b8ff" stroke="#63b8ff" points="957.76,-194.8 964.08,-186.3 953.84,-189.01 957.76,-194.8"/>
</a>
</g>
</g>
<!-- Node3 -->
<g id="Node000003" class="node">
<title>Node3</title>
<g id="a_Node000003"><a xlink:href="../../d6/dc2/definitions_8h.html" target="_top" xlink:title="Header file containing global constants, structures, and function declarations for the solver.">
<polygon fill="white" stroke="#666666" points="819,-74.5 750.5,-74.5 750.5,-55.25 819,-55.25 819,-74.5"/>
<text text-anchor="middle" x="784.75" y="-61" font-family="Helvetica,sans-Serif" font-size="10.00">definitions.h</text>
</a>
</g>
</g>
<!-- Node2&#45;&gt;Node3 -->
<g id="edge2_Node000002_Node000003" class="edge">
<title>Node2&#45;&gt;Node3</title>
<g id="a_edge2_Node000002_Node000003"><a xlink:title=" ">
<path fill="none" stroke="#63b8ff" d="M817.8,-165.5C812.06,-148.17 799.22,-109.48 791.34,-85.74"/>
<polygon fill="#63b8ff" stroke="#63b8ff" points="794.68,-84.7 788.21,-76.31 788.04,-86.91 794.68,-84.7"/>
</a>
</g>
</g>
<!-- Node2&#45;&gt;Node25 -->
<g id="edge24_Node000002_Node000025" class="edge">
<title>Node2&#45;&gt;Node25</title>
<g id="a_edge24_Node000002_Node000025"><a xlink:title=" ">
<path fill="none" stroke="#63b8ff" d="M809.72,-165.34C800.33,-157.65 786.6,-146.4 775.34,-137.18"/>
<polygon fill="#63b8ff" stroke="#63b8ff" points="777.74,-134.61 767.78,-130.98 773.3,-140.03 777.74,-134.61"/>
</a>
</g>
</g>
<!-- Node3&#45;&gt;Node4 -->
<g id="edge3_Node000003_Node000004" class="edge">
<title>Node3&#45;&gt;Node4</title>
<g id="a_edge3_Node000003_Node000004"><a xlink:title=" ">
<path fill="none" stroke="#63b8ff" d="M750.33,-63.86C647.55,-63.36 333.87,-58.62 64.94,-19.29"/>
<polygon fill="#63b8ff" stroke="#63b8ff" points="65.68,-15.86 55.28,-17.85 64.65,-22.78 65.68,-15.86"/>
</a>
</g>
</g>
<!-- Node5 -->
<g id="Node000005" class="node">
<title>Node5</title>
<g id="a_Node000005"><a xlink:title=" ">
<polygon fill="#e0e0e0" stroke="#999999" points="859.25,-19.25 810.25,-19.25 810.25,0 859.25,0 859.25,-19.25"/>
<text text-anchor="middle" x="834.75" y="-5.75" font-family="Helvetica,sans-Serif" font-size="10.00">fstream</text>
</a>
</g>
</g>
<!-- Node3&#45;&gt;Node5 -->
<g id="edge4_Node000003_Node000005" class="edge">
<title>Node3&#45;&gt;Node5</title>
<g id="a_edge4_Node000003_Node000005"><a xlink:title=" ">
<path fill="none" stroke="#63b8ff" d="M793.01,-55.08C799.91,-47.73 809.97,-37.01 818.49,-27.94"/>
<polygon fill="#63b8ff" stroke="#63b8ff" points="820.98,-30.4 825.28,-20.71 815.88,-25.61 820.98,-30.4"/>
</a>
</g>
</g>
<!-- Node3&#45;&gt;Node6 -->
<g id="edge5_Node000003_Node000006" class="edge">
<title>Node3&#45;&gt;Node6</title>
<g id="a_edge5_Node000003_Node000006"><a xlink:title=" ">
<path fill="none" stroke="#63b8ff" d="M819.42,-61.08C926.8,-52.41 1250.39,-26.22 1317.52,-18.9"/>
<polygon fill="#63b8ff" stroke="#63b8ff" points="1317.94,-22.37 1327.41,-17.63 1317.05,-15.43 1317.94,-22.37"/>
</a>
</g>
</g>
<!-- Node7 -->
<g id="Node000007" class="node">
<title>Node7</title>
<g id="a_Node000007"><a xlink:title=" ">
<polygon fill="#e0e0e0" stroke="#999999" points="917.75,-19.25 877.75,-19.25 877.75,0 917.75,0 917.75,-19.25"/>
<text text-anchor="middle" x="897.75" y="-5.75" font-family="Helvetica,sans-Serif" font-size="10.00">string</text>
</a>
</g>
</g>
<!-- Node3&#45;&gt;Node7 -->
<g id="edge6_Node000003_Node000007" class="edge">
<title>Node3&#45;&gt;Node7</title>
<g id="a_edge6_Node000003_Node000007"><a xlink:title=" ">
<path fill="none" stroke="#63b8ff" d="M803.92,-54.84C821.53,-46.54 847.91,-34.11 868.21,-24.54"/>
<polygon fill="#63b8ff" stroke="#63b8ff" points="869.56,-27.78 877.12,-20.35 866.58,-21.44 869.56,-27.78"/>
</a>
</g>
</g>
<!-- Node8 -->
<g id="Node000008" class="node">
<title>Node8</title>
<g id="a_Node000008"><a xlink:title=" ">
<polygon fill="#e0e0e0" stroke="#999999" points="979.25,-19.25 936.25,-19.25 936.25,0 979.25,0 979.25,-19.25"/>
<text text-anchor="middle" x="957.75" y="-5.75" font-family="Helvetica,sans-Serif" font-size="10.00">cmath</text>
</a>
</g>
</g>
<!-- Node3&#45;&gt;Node8 -->
<g id="edge7_Node000003_Node000008" class="edge">
<title>Node3&#45;&gt;Node8</title>
<g id="a_edge7_Node000003_Node000008"><a xlink:title=" ">
<path fill="none" stroke="#63b8ff" d="M814.1,-54.84C844.83,-45.38 893,-30.56 924.96,-20.72"/>
<polygon fill="#63b8ff" stroke="#63b8ff" points="925.97,-24.07 934.5,-17.78 923.91,-17.38 925.97,-24.07"/>
</a>
</g>
</g>
<!-- Node9 -->
<g id="Node000009" class="node">
<title>Node9</title>
<g id="a_Node000009"><a xlink:title=" ">
<polygon fill="#e0e0e0" stroke="#999999" points="1048,-19.25 997.5,-19.25 997.5,0 1048,0 1048,-19.25"/>
<text text-anchor="middle" x="1022.75" y="-5.75" font-family="Helvetica,sans-Serif" font-size="10.00">typeinfo</text>
</a>
</g>
</g>
<!-- Node3&#45;&gt;Node9 -->
<g id="edge8_Node000003_Node000009" class="edge">
<title>Node3&#45;&gt;Node9</title>
<g id="a_edge8_Node000003_Node000009"><a xlink:title=" ">
<path fill="none" stroke="#63b8ff" d="M819.48,-56.64C857.92,-48.56 921.98,-34.85 986.04,-19.83"/>
<polygon fill="#63b8ff" stroke="#63b8ff" points="986.75,-23.26 995.68,-17.56 985.14,-16.45 986.75,-23.26"/>
</a>
</g>
</g>
<!-- Node10 -->
<g id="Node000010" class="node">
<title>Node10</title>
<g id="a_Node000010"><a xlink:title=" ">
<polygon fill="#e0e0e0" stroke="#999999" points="1115.62,-19.25 1065.88,-19.25 1065.88,0 1115.62,0 1115.62,-19.25"/>
<text text-anchor="middle" x="1090.75" y="-5.75" font-family="Helvetica,sans-Serif" font-size="10.00">iomanip</text>
</a>
</g>
</g>
<!-- Node3&#45;&gt;Node10 -->
<g id="edge9_Node000003_Node000010" class="edge">
<title>Node3&#45;&gt;Node10</title>
<g id="a_edge9_Node000003_Node000010"><a xlink:title=" ">
<path fill="none" stroke="#63b8ff" d="M819.28,-59.18C869.07,-52.2 964.15,-38.09 1054.56,-19.55"/>
<polygon fill="#63b8ff" stroke="#63b8ff" points="1054.99,-23.04 1064.07,-17.58 1053.57,-16.18 1054.99,-23.04"/>
</a>
</g>
</g>
<!-- Node11 -->
<g id="Node000011" class="node">
<title>Node11</title>
<g id="a_Node000011"><a xlink:title=" ">
<polygon fill="#e0e0e0" stroke="#999999" points="1175.88,-19.25 1133.62,-19.25 1133.62,0 1175.88,0 1175.88,-19.25"/>
<text text-anchor="middle" x="1154.75" y="-5.75" font-family="Helvetica,sans-Serif" font-size="10.00">cstdio</text>
</a>
</g>
</g>
<!-- Node3&#45;&gt;Node11 -->
<g id="edge10_Node000003_Node000011" class="edge">
<title>Node3&#45;&gt;Node11</title>
<g id="a_edge10_Node000003_Node000011"><a xlink:title=" ">
<path fill="none" stroke="#63b8ff" d="M819.3,-61.06C879.14,-55.82 1006.04,-43.07 1122.03,-19.54"/>
<polygon fill="#63b8ff" stroke="#63b8ff" points="1122.65,-22.99 1131.73,-17.54 1121.23,-16.13 1122.65,-22.99"/>
</a>
</g>
</g>
<!-- Node12 -->
<g id="Node000012" class="node">
<title>Node12</title>
<g id="a_Node000012"><a xlink:title=" ">
<polygon fill="#e0e0e0" stroke="#999999" points="1238,-19.25 1193.5,-19.25 1193.5,0 1238,0 1238,-19.25"/>
<text text-anchor="middle" x="1215.75" y="-5.75" font-family="Helvetica,sans-Serif" font-size="10.00">cstdlib</text>
</a>
</g>
</g>
<!-- Node3&#45;&gt;Node12 -->
<g id="edge11_Node000003_Node000012" class="edge">
<title>Node3&#45;&gt;Node12</title>
<g id="a_edge11_Node000003_Node000012"><a xlink:title=" ">
<path fill="none" stroke="#63b8ff" d="M819.2,-60.75C899.16,-53.38 1096.48,-34.54 1182.09,-19.42"/>
<polygon fill="#63b8ff" stroke="#63b8ff" points="1182.48,-22.91 1191.67,-17.64 1181.2,-16.02 1182.48,-22.91"/>
</a>
</g>
</g>
<!-- Node13 -->
<g id="Node000013" class="node">
<title>Node13</title>
<g id="a_Node000013"><a xlink:title=" ">
<polygon fill="#e0e0e0" stroke="#999999" points="1311.62,-19.25 1255.88,-19.25 1255.88,0 1311.62,0 1311.62,-19.25"/>
<text text-anchor="middle" x="1283.75" y="-5.75" font-family="Helvetica,sans-Serif" font-size="10.00">algorithm</text>
</a>
</g>
</g>
<!-- Node3&#45;&gt;Node13 -->
<g id="edge12_Node000003_Node000013" class="edge">
<title>Node3&#45;&gt;Node13</title>
<g id="a_edge12_Node000003_Node000013"><a xlink:title=" ">
<path fill="none" stroke="#63b8ff" d="M819.33,-61.13C908.43,-53.98 1145.26,-34.36 1244.43,-19.36"/>
<polygon fill="#63b8ff" stroke="#63b8ff" points="1244.72,-22.86 1254.05,-17.84 1243.63,-15.95 1244.72,-22.86"/>
</a>
</g>
</g>
<!-- Node3&#45;&gt;Node14 -->
<g id="edge13_Node000003_Node000014" class="edge">
<title>Node3&#45;&gt;Node14</title>
<g id="a_edge13_Node000003_Node000014"><a xlink:title=" ">
<path fill="none" stroke="#63b8ff" d="M819.28,-61.06C840.48,-59.35 868.18,-57.14 892.75,-55.25 1106.32,-38.86 1165.06,-56.03 1378.56,-19.5"/>
<polygon fill="#63b8ff" stroke="#63b8ff" points="1379.1,-22.96 1388.35,-17.8 1377.9,-16.06 1379.1,-22.96"/>
</a>
</g>
</g>
<!-- Node15 -->
<g id="Node000015" class="node">
<title>Node15</title>
<g id="a_Node000015"><a xlink:title=" ">
<polygon fill="#e0e0e0" stroke="#999999" points="111.75,-19.25 71.75,-19.25 71.75,0 111.75,0 111.75,-19.25"/>
<text text-anchor="middle" x="91.75" y="-5.75" font-family="Helvetica,sans-Serif" font-size="10.00">cfloat</text>
</a>
</g>
</g>
<!-- Node3&#45;&gt;Node15 -->
<g id="edge14_Node000003_Node000015" class="edge">
<title>Node3&#45;&gt;Node15</title>
<g id="a_edge14_Node000003_Node000015"><a xlink:title=" ">
<path fill="none" stroke="#63b8ff" d="M750.21,-64.24C652.78,-64.7 367.5,-62.16 123.43,-19.33"/>
<polygon fill="#63b8ff" stroke="#63b8ff" points="124.16,-15.9 113.7,-17.59 122.93,-22.79 124.16,-15.9"/>
</a>
</g>
</g>
<!-- Node16 -->
<g id="Node000016" class="node">
<title>Node16</title>
<g id="a_Node000016"><a xlink:title=" ">
<polygon fill="#e0e0e0" stroke="#999999" points="191.25,-19.25 130.25,-19.25 130.25,0 191.25,0 191.25,-19.25"/>
<text text-anchor="middle" x="160.75" y="-5.75" font-family="Helvetica,sans-Serif" font-size="10.00">filesystem</text>
</a>
</g>
</g>
<!-- Node3&#45;&gt;Node16 -->
<g id="edge15_Node000003_Node000016" class="edge">
<title>Node3&#45;&gt;Node16</title>
<g id="a_edge15_Node000003_Node000016"><a xlink:title=" ">
<path fill="none" stroke="#63b8ff" d="M750.01,-62.87C660.82,-59.94 416.34,-49.7 202.79,-19.33"/>
<polygon fill="#63b8ff" stroke="#63b8ff" points="203.58,-15.91 193.18,-17.95 202.58,-22.84 203.58,-15.91"/>
</a>
</g>
</g>
<!-- Node17 -->
<g id="Node000017" class="node">
<title>Node17</title>
<g id="a_Node000017"><a xlink:title=" ">
<polygon fill="#e0e0e0" stroke="#999999" points="244.12,-19.25 209.38,-19.25 209.38,0 244.12,0 244.12,-19.25"/>
<text text-anchor="middle" x="226.75" y="-5.75" font-family="Helvetica,sans-Serif" font-size="10.00">map</text>
</a>
</g>
</g>
<!-- Node3&#45;&gt;Node17 -->
<g id="edge16_Node000003_Node000017" class="edge">
<title>Node3&#45;&gt;Node17</title>
<g id="a_edge16_Node000003_Node000017"><a xlink:title=" ">
<path fill="none" stroke="#63b8ff" d="M750.21,-63.65C666.64,-62.55 446.97,-56.26 255.72,-19.15"/>
<polygon fill="#63b8ff" stroke="#63b8ff" points="256.58,-15.75 246.1,-17.24 255.23,-22.62 256.58,-15.75"/>
</a>
</g>
</g>
<!-- Node18 -->
<g id="Node000018" class="node">
<title>Node18</title>
<g id="a_Node000018"><a xlink:title=" ">
<polygon fill="#e0e0e0" stroke="#999999" points="321.12,-19.25 262.38,-19.25 262.38,0 321.12,0 321.12,-19.25"/>
<text text-anchor="middle" x="291.75" y="-5.75" font-family="Helvetica,sans-Serif" font-size="10.00">stdexcept</text>
</a>
</g>
</g>
<!-- Node3&#45;&gt;Node18 -->
<g id="edge17_Node000003_Node000018" class="edge">
<title>Node3&#45;&gt;Node18</title>
<g id="a_edge17_Node000003_Node000018"><a xlink:title=" ">
<path fill="none" stroke="#63b8ff" d="M750.03,-61.96C675.37,-57.52 493.87,-45.04 332.63,-19.54"/>
<polygon fill="#63b8ff" stroke="#63b8ff" points="333.47,-16.13 323.05,-18 332.37,-23.04 333.47,-16.13"/>
</a>
</g>
</g>
<!-- Node19 -->
<g id="Node000019" class="node">
<title>Node19</title>
<g id="a_Node000019"><a xlink:title=" ">
<polygon fill="#e0e0e0" stroke="#999999" points="390.38,-19.25 339.12,-19.25 339.12,0 390.38,0 390.38,-19.25"/>
<text text-anchor="middle" x="364.75" y="-5.75" font-family="Helvetica,sans-Serif" font-size="10.00">sstream</text>
</a>
</g>
</g>
<!-- Node3&#45;&gt;Node19 -->
<g id="edge18_Node000003_Node000019" class="edge">
<title>Node3&#45;&gt;Node19</title>
<g id="a_edge18_Node000003_Node000019"><a xlink:title=" ">
<path fill="none" stroke="#63b8ff" d="M750.02,-61.33C684.13,-56.18 536.26,-43.11 401.96,-19.42"/>
<polygon fill="#63b8ff" stroke="#63b8ff" points="402.62,-15.98 392.16,-17.66 401.38,-22.87 402.62,-15.98"/>
</a>
</g>
</g>
<!-- Node20 -->
<g id="Node000020" class="node">
<title>Node20</title>
<g id="a_Node000020"><a xlink:title=" ">
<polygon fill="#e0e0e0" stroke="#999999" points="491.12,-19.25 408.38,-19.25 408.38,0 491.12,0 491.12,-19.25"/>
<text text-anchor="middle" x="449.75" y="-5.75" font-family="Helvetica,sans-Serif" font-size="10.00">unordered_map</text>
</a>
</g>
</g>
<!-- Node3&#45;&gt;Node20 -->
<g id="edge19_Node000003_Node000020" class="edge">
<title>Node3&#45;&gt;Node20</title>
<g id="a_edge19_Node000003_Node000020"><a xlink:title=" ">
<path fill="none" stroke="#63b8ff" d="M750.06,-58.62C698.42,-50.76 597.97,-35.32 502.76,-19.73"/>
<polygon fill="#63b8ff" stroke="#63b8ff" points="503.41,-16.29 492.98,-18.12 502.28,-23.19 503.41,-16.29"/>
</a>
</g>
</g>
<!-- Node21 -->
<g id="Node000021" class="node">
<title>Node21</title>
<g id="a_Node000021"><a xlink:title=" ">
<polygon fill="#e0e0e0" stroke="#999999" points="586.5,-19.25 509,-19.25 509,0 586.5,0 586.5,-19.25"/>
<text text-anchor="middle" x="547.75" y="-5.75" font-family="Helvetica,sans-Serif" font-size="10.00">unordered_set</text>
</a>
</g>
</g>
<!-- Node3&#45;&gt;Node21 -->
<g id="edge20_Node000003_Node000021" class="edge">
<title>Node3&#45;&gt;Node21</title>
<g id="a_edge20_Node000003_Node000021"><a xlink:title=" ">
<path fill="none" stroke="#63b8ff" d="M750.03,-56.07C709.97,-47.07 643.75,-32.2 598.05,-21.93"/>
<polygon fill="#63b8ff" stroke="#63b8ff" points="598.9,-18.53 588.38,-19.75 597.37,-25.36 598.9,-18.53"/>
</a>
</g>
</g>
<!-- Node22 -->
<g id="Node000022" class="node">
<title>Node22</title>
<g id="a_Node000022"><a xlink:title=" ">
<polygon fill="#e0e0e0" stroke="#999999" points="641.25,-19.25 604.25,-19.25 604.25,0 641.25,0 641.25,-19.25"/>
<text text-anchor="middle" x="622.75" y="-5.75" font-family="Helvetica,sans-Serif" font-size="10.00">tuple</text>
</a>
</g>
</g>
<!-- Node3&#45;&gt;Node22 -->
<g id="edge21_Node000003_Node000022" class="edge">
<title>Node3&#45;&gt;Node22</title>
<g id="a_edge21_Node000003_Node000022"><a xlink:title=" ">
<path fill="none" stroke="#63b8ff" d="M757.27,-54.84C728.13,-45.26 682.27,-30.19 652.35,-20.36"/>
<polygon fill="#63b8ff" stroke="#63b8ff" points="653.77,-17.14 643.17,-17.34 651.58,-23.79 653.77,-17.14"/>
</a>
</g>
</g>
<!-- Node23 -->
<g id="Node000023" class="node">
<title>Node23</title>
<g id="a_Node000023"><a xlink:title=" ">
<polygon fill="#e0e0e0" stroke="#999999" points="688.5,-19.25 659,-19.25 659,0 688.5,0 688.5,-19.25"/>
<text text-anchor="middle" x="673.75" y="-5.75" font-family="Helvetica,sans-Serif" font-size="10.00">set</text>
</a>
</g>
</g>
<!-- Node3&#45;&gt;Node23 -->
<g id="edge22_Node000003_Node000023" class="edge">
<title>Node3&#45;&gt;Node23</title>
<g id="a_edge22_Node000003_Node000023"><a xlink:title=" ">
<path fill="none" stroke="#63b8ff" d="M765.92,-54.84C747.46,-45.99 719.22,-32.44 698.86,-22.67"/>
<polygon fill="#63b8ff" stroke="#63b8ff" points="700.64,-19.64 690.11,-18.48 697.62,-25.96 700.64,-19.64"/>
</a>
</g>
</g>
<!-- Node24 -->
<g id="Node000024" class="node">
<title>Node24</title>
<g id="a_Node000024"><a xlink:title=" ">
<polygon fill="#e0e0e0" stroke="#999999" points="792.62,-19.25 706.88,-19.25 706.88,0 792.62,0 792.62,-19.25"/>
<text text-anchor="middle" x="749.75" y="-5.75" font-family="Helvetica,sans-Serif" font-size="10.00">boost/regex.hpp</text>
</a>
</g>
</g>
<!-- Node3&#45;&gt;Node24 -->
<g id="edge23_Node000003_Node000024" class="edge">
<title>Node3&#45;&gt;Node24</title>
<g id="a_edge23_Node000003_Node000024"><a xlink:title=" ">
<path fill="none" stroke="#63b8ff" d="M778.97,-55.08C774.34,-48.03 767.68,-37.9 761.88,-29.08"/>
<polygon fill="#63b8ff" stroke="#63b8ff" points="764.9,-27.31 756.49,-20.87 759.05,-31.15 764.9,-27.31"/>
</a>
</g>
</g>
<!-- Node25&#45;&gt;Node3 -->
<g id="edge25_Node000025_Node000003" class="edge">
<title>Node25&#45;&gt;Node3</title>
<g id="a_edge25_Node000025_Node000003"><a xlink:title=" ">
<path fill="none" stroke="#63b8ff" d="M760.54,-110.33C764.29,-103.44 769.66,-93.59 774.38,-84.91"/>
<polygon fill="#63b8ff" stroke="#63b8ff" points="777.42,-86.64 779.13,-76.19 771.28,-83.3 777.42,-86.64"/>
</a>
</g>
</g>
<!-- Node26&#45;&gt;Node3 -->
<g id="edge29_Node000026_Node000003" class="edge">
<title>Node26&#45;&gt;Node3</title>
<g id="a_edge29_Node000026_Node000003"><a xlink:title=" ">
<path fill="none" stroke="#63b8ff" d="M876.92,-110.09C859.7,-101.83 833.95,-89.48 814.04,-79.93"/>
<polygon fill="#63b8ff" stroke="#63b8ff" points="815.57,-76.78 805.04,-75.61 812.54,-83.09 815.57,-76.78"/>
</a>
</g>
</g>
<!-- Node27 -->
<g id="Node000027" class="node">
<title>Node27</title>
<g id="a_Node000027"><a xlink:title=" ">
<polygon fill="#e0e0e0" stroke="#999999" points="984.12,-74.5 901.38,-74.5 901.38,-55.25 984.12,-55.25 984.12,-74.5"/>
<text text-anchor="middle" x="942.75" y="-61" font-family="Helvetica,sans-Serif" font-size="10.00">cuda_runtime.h</text>
</a>
</g>
</g>
<!-- Node26&#45;&gt;Node27 -->
<g id="edge28_Node000026_Node000027" class="edge">
<title>Node26&#45;&gt;Node27</title>
<g id="a_edge28_Node000026_Node000027"><a xlink:title=" ">
<path fill="none" stroke="#63b8ff" d="M903.51,-110.33C909.94,-103.05 919.26,-92.48 927.21,-83.48"/>
<polygon fill="#63b8ff" stroke="#63b8ff" points="929.83,-85.81 933.82,-75.99 924.58,-81.18 929.83,-85.81"/>
</a>
</g>
</g>
<!-- Node28&#45;&gt;Node26 -->
<g id="edge32_Node000028_Node000026" class="edge">
<title>Node28&#45;&gt;Node26</title>
<g id="a_edge32_Node000028_Node000026"><a xlink:title=" ">
<path fill="none" stroke="#63b8ff" d="M964.67,-165.34C952.27,-157.39 933.96,-145.64 919.32,-136.25"/>
<polygon fill="#63b8ff" stroke="#63b8ff" points="921.48,-133.47 911.17,-131.02 917.7,-139.37 921.48,-133.47"/>
</a>
</g>
</g>
<!-- Node28&#45;&gt;Node27 -->
<g id="edge31_Node000028_Node000027" class="edge">
<title>Node28&#45;&gt;Node27</title>
<g id="a_edge31_Node000028_Node000027"><a xlink:title=" ">
<path fill="none" stroke="#63b8ff" d="M976.37,-165.63C972.96,-153.27 966.36,-130.01 959.75,-110.5 956.92,-102.16 953.52,-93.05 950.5,-85.26"/>
<polygon fill="#63b8ff" stroke="#63b8ff" points="953.81,-84.12 946.89,-76.1 947.3,-86.69 953.81,-84.12"/>
</a>
</g>
</g>
</g>
</svg>
