<?xml version="1.0" encoding="UTF-8" standalone="no"?>
<!DOCTYPE svg PUBLIC "-//W3C//DTD SVG 1.1//EN"
 "http://www.w3.org/Graphics/SVG/1.1/DTD/svg11.dtd">
<!-- Generated by graphviz version 12.2.1 (20241206.2353)
 -->
<!-- Title: Supersonic_Exit_Condition Pages: 1 -->
<svg width="541pt" height="76pt"
 viewBox="0.00 0.00 540.75 75.88" xmlns="http://www.w3.org/2000/svg" xmlns:xlink="http://www.w3.org/1999/xlink">
<g id="graph0" class="graph" transform="scale(1 1) rotate(0) translate(4 71.88)">
<title>Supersonic_Exit_Condition</title>
<!-- Node1 -->
<g id="Node000001" class="node">
<title>Node1</title>
<g id="a_Node000001"><a xlink:title=" ">
<polygon fill="#999999" stroke="#666666" points="133.75,-40.25 0,-40.25 0,-21 133.75,-21 133.75,-40.25"/>
<text text-anchor="middle" x="66.88" y="-26.75" font-family="Helvetica,sans-Serif" font-size="10.00">Supersonic_Exit_Condition</text>
</a>
</g>
</g>
<!-- Node2 -->
<g id="Node000002" class="node">
<title>Node2</title>
<g id="a_Node000002"><a xlink:href="../../de/d8d/_exit___boundary___conditions_8cpp_aee793388170b1f1282aa7ada9cb1985d.html#aee793388170b1f1282aa7ada9cb1985d" target="_top" xlink:title=" ">
<polygon fill="white" stroke="#666666" points="303.5,-45.88 169.75,-45.88 169.75,-15.37 303.5,-15.37 303.5,-45.88"/>
<text text-anchor="start" x="177.75" y="-32.38" font-family="Helvetica,sans-Serif" font-size="10.00">Supersonic_Exit_Boundary</text>
<text text-anchor="middle" x="236.62" y="-21.12" font-family="Helvetica,sans-Serif" font-size="10.00">_Condition</text>
</a>
</g>
</g>
<!-- Node1&#45;&gt;Node2 -->
<g id="edge1_Node000001_Node000002" class="edge">
<title>Node1&#45;&gt;Node2</title>
<g id="a_edge1_Node000001_Node000002"><a xlink:title=" ">
<path fill="none" stroke="#63b8ff" d="M134.17,-30.62C141.93,-30.62 149.89,-30.62 157.78,-30.62"/>
<polygon fill="#63b8ff" stroke="#63b8ff" points="157.74,-34.13 167.74,-30.63 157.74,-27.13 157.74,-34.13"/>
</a>
</g>
</g>
<!-- Node3 -->
<g id="Node000003" class="node">
<title>Node3</title>
<g id="a_Node000003"><a xlink:href="../../df/d43/_basic___functions_8cpp_a1c199e756f8458978961b4d9ab4cbe63.html#a1c199e756f8458978961b4d9ab4cbe63" target="_top" xlink:title=" ">
<polygon fill="white" stroke="#666666" points="440.25,-67.88 339.5,-67.88 339.5,-37.38 440.25,-37.38 440.25,-67.88"/>
<text text-anchor="start" x="347.5" y="-54.38" font-family="Helvetica,sans-Serif" font-size="10.00">Calculate_Primitive</text>
<text text-anchor="middle" x="389.88" y="-43.12" font-family="Helvetica,sans-Serif" font-size="10.00">_Variables</text>
</a>
</g>
</g>
<!-- Node2&#45;&gt;Node3 -->
<g id="edge2_Node000002_Node000003" class="edge">
<title>Node2&#45;&gt;Node3</title>
<g id="a_edge2_Node000002_Node000003"><a xlink:title=" ">
<path fill="none" stroke="#63b8ff" d="M303.97,-40.27C312.06,-41.45 320.29,-42.65 328.3,-43.81"/>
<polygon fill="#63b8ff" stroke="#63b8ff" points="327.52,-47.24 337.92,-45.21 328.52,-40.31 327.52,-47.24"/>
</a>
</g>
</g>
<!-- Node5 -->
<g id="Node000005" class="node">
<title>Node5</title>
<g id="a_Node000005"><a xlink:href="../../dc/d3a/src_2_utility___files_8cpp_aa5fe1ffca7af96bc7295ff9492f6423d.html#aa5fe1ffca7af96bc7295ff9492f6423d" target="_top" xlink:title=" ">
<polygon fill="white" stroke="#666666" points="427.88,-19.25 351.88,-19.25 351.88,0 427.88,0 427.88,-19.25"/>
<text text-anchor="middle" x="389.88" y="-5.75" font-family="Helvetica,sans-Serif" font-size="10.00">Vector_Reset</text>
</a>
</g>
</g>
<!-- Node2&#45;&gt;Node5 -->
<g id="edge4_Node000002_Node000005" class="edge">
<title>Node2&#45;&gt;Node5</title>
<g id="a_edge4_Node000002_Node000005"><a xlink:title=" ">
<path fill="none" stroke="#63b8ff" d="M303.97,-21.41C316.23,-19.71 328.82,-17.96 340.43,-16.35"/>
<polygon fill="#63b8ff" stroke="#63b8ff" points="340.74,-19.84 350.16,-15 339.78,-12.91 340.74,-19.84"/>
</a>
</g>
</g>
<!-- Node4 -->
<g id="Node000004" class="node">
<title>Node4</title>
<g id="a_Node000004"><a xlink:href="../../db/d81/_viscous___calculations_8cpp_ae9dc3225863fb110155bb3e9dea4e4d3.html#ae9dc3225863fb110155bb3e9dea4e4d3" target="_top" xlink:title=" ">
<polygon fill="white" stroke="#666666" points="532.75,-62.25 476.25,-62.25 476.25,-43 532.75,-43 532.75,-62.25"/>
<text text-anchor="middle" x="504.5" y="-48.75" font-family="Helvetica,sans-Serif" font-size="10.00">Viscosity</text>
</a>
</g>
</g>
<!-- Node3&#45;&gt;Node4 -->
<g id="edge3_Node000003_Node000004" class="edge">
<title>Node3&#45;&gt;Node4</title>
<g id="a_edge3_Node000003_Node000004"><a xlink:title=" ">
<path fill="none" stroke="#63b8ff" d="M440.6,-52.62C448.66,-52.62 456.91,-52.62 464.66,-52.62"/>
<polygon fill="#63b8ff" stroke="#63b8ff" points="464.45,-56.13 474.45,-52.63 464.45,-49.13 464.45,-56.13"/>
</a>
</g>
</g>
</g>
</svg>
