<?xml version="1.0" encoding="UTF-8" standalone="no"?>
<!DOCTYPE svg PUBLIC "-//W3C//DTD SVG 1.1//EN"
 "http://www.w3.org/Graphics/SVG/1.1/DTD/svg11.dtd">
<!-- Generated by graphviz version 12.2.1 (20241206.2353)
 -->
<!-- Title: Apply_Boundary_Conditions Pages: 1 -->
<svg width="460pt" height="101pt"
 viewBox="0.00 0.00 459.75 101.25" xmlns="http://www.w3.org/2000/svg" xmlns:xlink="http://www.w3.org/1999/xlink">
<g id="graph0" class="graph" transform="scale(1 1) rotate(0) translate(4 97.25)">
<title>Apply_Boundary_Conditions</title>
<!-- Node1 -->
<g id="Node000001" class="node">
<title>Node1</title>
<g id="a_Node000001"><a xlink:title=" ">
<polygon fill="#999999" stroke="#666666" points="451.75,-56.25 312.75,-56.25 312.75,-37 451.75,-37 451.75,-56.25"/>
<text text-anchor="middle" x="382.25" y="-42.75" font-family="Helvetica,sans-Serif" font-size="10.00">Apply_Boundary_Conditions</text>
</a>
</g>
</g>
<!-- Node2 -->
<g id="Node000002" class="node">
<title>Node2</title>
<g id="a_Node000002"><a xlink:href="../../de/df0/_solver_8cpp_a09703a294b5a4e270033b2d488f8f02a.html#a09703a294b5a4e270033b2d488f8f02a" target="_top" xlink:title=" ">
<polygon fill="white" stroke="#666666" points="262.88,-93.25 180.12,-93.25 180.12,-74 262.88,-74 262.88,-93.25"/>
<text text-anchor="middle" x="221.5" y="-79.75" font-family="Helvetica,sans-Serif" font-size="10.00">Inviscid_Solver</text>
</a>
</g>
</g>
<!-- Node1&#45;&gt;Node2 -->
<g id="edge1_Node000001_Node000002" class="edge">
<title>Node1&#45;&gt;Node2</title>
<g id="a_edge1_Node000001_Node000002"><a xlink:title=" ">
<path fill="none" stroke="#63b8ff" d="M326.93,-59.29C306.11,-64.14 282.72,-69.59 263.37,-74.1"/>
<polygon fill="#63b8ff" stroke="#63b8ff" points="327.45,-62.76 336.4,-57.08 325.86,-55.94 327.45,-62.76"/>
</a>
</g>
</g>
<!-- Node5 -->
<g id="Node000005" class="node">
<title>Node5</title>
<g id="a_Node000005"><a xlink:href="../../de/d22/_cuda___parallel___r_k_8cpp_a794f030971fbb7c9dd4bc08df03f50f1.html#a794f030971fbb7c9dd4bc08df03f50f1" target="_top" xlink:title=" ">
<polygon fill="white" stroke="#666666" points="276.75,-56.25 166.25,-56.25 166.25,-37 276.75,-37 276.75,-56.25"/>
<text text-anchor="middle" x="221.5" y="-42.75" font-family="Helvetica,sans-Serif" font-size="10.00">Runge_Kutta_Method</text>
</a>
</g>
</g>
<!-- Node1&#45;&gt;Node5 -->
<g id="edge4_Node000001_Node000005" class="edge">
<title>Node1&#45;&gt;Node5</title>
<g id="a_edge4_Node000001_Node000005"><a xlink:title=" ">
<path fill="none" stroke="#63b8ff" d="M301.04,-46.62C292.89,-46.62 284.75,-46.62 276.96,-46.62"/>
<polygon fill="#63b8ff" stroke="#63b8ff" points="301.03,-50.13 311.03,-46.63 301.03,-43.13 301.03,-50.13"/>
</a>
</g>
</g>
<!-- Node6 -->
<g id="Node000006" class="node">
<title>Node6</title>
<g id="a_Node000006"><a xlink:href="../../de/df0/_solver_8cpp_a313c308da18b517cb3cf0384db6d4d7e.html#a313c308da18b517cb3cf0384db6d4d7e" target="_top" xlink:title=" ">
<polygon fill="white" stroke="#666666" points="263.62,-19.25 179.38,-19.25 179.38,0 263.62,0 263.62,-19.25"/>
<text text-anchor="middle" x="221.5" y="-5.75" font-family="Helvetica,sans-Serif" font-size="10.00">Viscous_Solver</text>
</a>
</g>
</g>
<!-- Node1&#45;&gt;Node6 -->
<g id="edge5_Node000001_Node000006" class="edge">
<title>Node1&#45;&gt;Node6</title>
<g id="a_edge5_Node000001_Node000006"><a xlink:title=" ">
<path fill="none" stroke="#63b8ff" d="M326.73,-33.92C306.16,-29.12 283.1,-23.75 263.91,-19.28"/>
<polygon fill="#63b8ff" stroke="#63b8ff" points="325.86,-37.31 336.4,-36.17 327.45,-30.49 325.86,-37.31"/>
</a>
</g>
</g>
<!-- Node3 -->
<g id="Node000003" class="node">
<title>Node3</title>
<g id="a_Node000003"><a xlink:href="../../d5/d12/_main_8cpp_afed4dca88e059a8cbd2c7af524468fe5.html#afed4dca88e059a8cbd2c7af524468fe5" target="_top" xlink:title="Executes the appropriate solver based on the simulation configuration.">
<polygon fill="white" stroke="#666666" points="130.25,-56.25 73,-56.25 73,-37 130.25,-37 130.25,-56.25"/>
<text text-anchor="middle" x="101.62" y="-42.75" font-family="Helvetica,sans-Serif" font-size="10.00">runSolver</text>
</a>
</g>
</g>
<!-- Node2&#45;&gt;Node3 -->
<g id="edge2_Node000002_Node000003" class="edge">
<title>Node2&#45;&gt;Node3</title>
<g id="a_edge2_Node000002_Node000003"><a xlink:title=" ">
<path fill="none" stroke="#63b8ff" d="M177.7,-70.19C161.93,-65.24 144.49,-59.77 130.39,-55.34"/>
<polygon fill="#63b8ff" stroke="#63b8ff" points="176.26,-73.41 186.85,-73.06 178.35,-66.73 176.26,-73.41"/>
</a>
</g>
</g>
<!-- Node4 -->
<g id="Node000004" class="node">
<title>Node4</title>
<g id="a_Node000004"><a xlink:href="../../d5/d12/_main_8cpp_a0ddf1224851353fc92bfbff6f499fa97.html#a0ddf1224851353fc92bfbff6f499fa97" target="_top" xlink:title=" ">
<polygon fill="white" stroke="#666666" points="37,-56.25 0,-56.25 0,-37 37,-37 37,-56.25"/>
<text text-anchor="middle" x="18.5" y="-42.75" font-family="Helvetica,sans-Serif" font-size="10.00">main</text>
</a>
</g>
</g>
<!-- Node3&#45;&gt;Node4 -->
<g id="edge3_Node000003_Node000004" class="edge">
<title>Node3&#45;&gt;Node4</title>
<g id="a_edge3_Node000003_Node000004"><a xlink:title=" ">
<path fill="none" stroke="#63b8ff" d="M61.38,-46.62C52.95,-46.62 44.43,-46.62 37.3,-46.62"/>
<polygon fill="#63b8ff" stroke="#63b8ff" points="61.19,-50.13 71.19,-46.63 61.19,-43.13 61.19,-50.13"/>
</a>
</g>
</g>
<!-- Node6&#45;&gt;Node3 -->
<g id="edge6_Node000006_Node000003" class="edge">
<title>Node6&#45;&gt;Node3</title>
<g id="a_edge6_Node000006_Node000003"><a xlink:title=" ">
<path fill="none" stroke="#63b8ff" d="M177.7,-23.06C161.93,-28.01 144.49,-33.48 130.39,-37.91"/>
<polygon fill="#63b8ff" stroke="#63b8ff" points="178.35,-26.52 186.85,-20.19 176.26,-19.84 178.35,-26.52"/>
</a>
</g>
</g>
</g>
</svg>
