<?xml version="1.0" encoding="UTF-8" standalone="no"?>
<!DOCTYPE svg PUBLIC "-//W3C//DTD SVG 1.1//EN"
 "http://www.w3.org/Graphics/SVG/1.1/DTD/svg11.dtd">
<!-- Generated by graphviz version 12.2.1 (20241206.2353)
 -->
<!-- Title: ud4_mpi_qulacs_opp2.Qsolver Pages: 1 -->
<svg width="342pt" height="149pt"
 viewBox="0.00 0.00 342.12 149.00" xmlns="http://www.w3.org/2000/svg" xmlns:xlink="http://www.w3.org/1999/xlink">
<g id="graph0" class="graph" transform="scale(1 1) rotate(0) translate(4 145)">
<title>ud4_mpi_qulacs_opp2.Qsolver</title>
<!-- Node1 -->
<g id="Node000001" class="node">
<title>Node1</title>
<g id="a_Node000001"><a xlink:title=" ">
<polygon fill="#999999" stroke="#666666" points="233.38,-19.25 83.88,-19.25 83.88,0 233.38,0 233.38,-19.25"/>
<text text-anchor="middle" x="158.62" y="-5.75" font-family="Helvetica,sans-Serif" font-size="10.00">ud4_mpi_qulacs_opp2.Qsolver</text>
</a>
</g>
</g>
<!-- Node2 -->
<g id="Node000002" class="node">
<title>Node2</title>
<g id="a_Node000002"><a xlink:href="../../dc/d4e/classud4__mpi__qulacs__opp2_1_1_utility.html" target="_top" xlink:title=" ">
<polygon fill="white" stroke="#bfbfbf" points="141.25,-80.12 0,-80.12 0,-60.88 141.25,-60.88 141.25,-80.12"/>
<text text-anchor="middle" x="70.62" y="-66.62" font-family="Helvetica,sans-Serif" font-size="10.00">ud4_mpi_qulacs_opp2.Utility</text>
</a>
</g>
</g>
<!-- Node2&#45;&gt;Node1 -->
<g id="edge1_Node000001_Node000002" class="edge">
<title>Node2&#45;&gt;Node1</title>
<g id="a_edge1_Node000001_Node000002"><a xlink:title=" ">
<path fill="none" stroke="#63b8ff" d="M93.42,-54.25C109.82,-43.28 131.39,-28.85 145.13,-19.65"/>
<polygon fill="#63b8ff" stroke="#63b8ff" points="91.61,-51.25 85.25,-59.72 95.51,-57.06 91.61,-51.25"/>
</a>
</g>
</g>
<!-- Node3 -->
<g id="Node000003" class="node">
<title>Node3</title>
<g id="a_Node000003"><a xlink:href="../../d4/dcf/classud4__mpi__qulacs__opp2_1_1_max_iterations_reached.html" target="_top" xlink:title=" ">
<polygon fill="white" stroke="#bfbfbf" points="334.12,-85.75 159.12,-85.75 159.12,-55.25 334.12,-55.25 334.12,-85.75"/>
<text text-anchor="start" x="167.12" y="-72.25" font-family="Helvetica,sans-Serif" font-size="10.00">ud4_mpi_qulacs_opp2.MaxIterations</text>
<text text-anchor="middle" x="246.62" y="-61" font-family="Helvetica,sans-Serif" font-size="10.00">Reached</text>
</a>
</g>
</g>
<!-- Node3&#45;&gt;Node1 -->
<g id="edge2_Node000001_Node000003" class="edge">
<title>Node3&#45;&gt;Node1</title>
<g id="a_edge2_Node000001_Node000003"><a xlink:title=" ">
<path fill="none" stroke="#63b8ff" d="M215.51,-48.69C200.68,-38.76 183.71,-27.41 172.19,-19.7"/>
<polygon fill="#63b8ff" stroke="#63b8ff" points="213.36,-51.45 223.61,-54.1 217.25,-45.64 213.36,-51.45"/>
</a>
</g>
</g>
<!-- Node4 -->
<g id="Node000004" class="node">
<title>Node4</title>
<g id="a_Node000004"><a xlink:title=" ">
<polygon fill="white" stroke="#bfbfbf" points="276.38,-141 216.88,-141 216.88,-121.75 276.38,-121.75 276.38,-141"/>
<text text-anchor="middle" x="246.62" y="-127.5" font-family="Helvetica,sans-Serif" font-size="10.00">Exception</text>
</a>
</g>
</g>
<!-- Node4&#45;&gt;Node3 -->
<g id="edge3_Node000003_Node000004" class="edge">
<title>Node4&#45;&gt;Node3</title>
<g id="a_edge3_Node000003_Node000004"><a xlink:title=" ">
<path fill="none" stroke="#63b8ff" d="M246.62,-110.17C246.62,-102.24 246.62,-93.31 246.62,-86.03"/>
<polygon fill="#63b8ff" stroke="#63b8ff" points="243.13,-109.92 246.63,-119.92 250.13,-109.92 243.13,-109.92"/>
</a>
</g>
</g>
</g>
</svg>
