<?xml version="1.0" encoding="UTF-8" standalone="no"?>
<!DOCTYPE svg PUBLIC "-//W3C//DTD SVG 1.1//EN"
 "http://www.w3.org/Graphics/SVG/1.1/DTD/svg11.dtd">
<!-- Generated by graphviz version 12.2.1 (20241206.2353)
 -->
<!-- Title: File_Name Pages: 1 -->
<svg width="551pt" height="834pt"
 viewBox="0.00 0.00 550.50 833.90" xmlns="http://www.w3.org/2000/svg" xmlns:xlink="http://www.w3.org/1999/xlink">
<g id="graph0" class="graph" transform="scale(1 1) rotate(0) translate(4 829.9)">
<title>File_Name</title>
<!-- Node1 -->
<g id="Node000001" class="node">
<title>Node1</title>
<g id="a_Node000001"><a xlink:title=" ">
<polygon fill="#999999" stroke="#666666" points="542.5,-445.25 479.25,-445.25 479.25,-426 542.5,-426 542.5,-445.25"/>
<text text-anchor="middle" x="510.88" y="-431.75" font-family="Helvetica,sans-Serif" font-size="10.00">File_Name</text>
</a>
</g>
</g>
<!-- Node2 -->
<g id="Node000002" class="node">
<title>Node2</title>
<g id="a_Node000002"><a xlink:href="../../d0/d3f/_channel___flow_8cpp_a986df1d2277d1fc7e22408557f29c135.html#a986df1d2277d1fc7e22408557f29c135" target="_top" xlink:title=" ">
<polygon fill="white" stroke="#666666" points="252.12,-747.25 173.88,-747.25 173.88,-728 252.12,-728 252.12,-747.25"/>
<text text-anchor="middle" x="213" y="-733.75" font-family="Helvetica,sans-Serif" font-size="10.00">Channel_Flow</text>
</a>
</g>
</g>
<!-- Node1&#45;&gt;Node2 -->
<g id="edge1_Node000001_Node000002" class="edge">
<title>Node1&#45;&gt;Node2</title>
<g id="a_edge1_Node000001_Node000002"><a xlink:title=" ">
<path fill="none" stroke="#63b8ff" d="M507.92,-456.71C502,-515.54 482.27,-679.4 443.25,-713.62 390.6,-759.8 302.8,-754.06 252.52,-745.81"/>
<polygon fill="#63b8ff" stroke="#63b8ff" points="511.37,-457.35 508.85,-447.05 504.41,-456.67 511.37,-457.35"/>
</a>
</g>
</g>
<!-- Node3 -->
<g id="Node000003" class="node">
<title>Node3</title>
<g id="a_Node000003"><a xlink:href="../../dd/dbf/_euler___python___wrapper_8cpp_ac5ccb50c3be270f798e054dd36987442.html#ac5ccb50c3be270f798e054dd36987442" target="_top" xlink:title=" ">
<polygon fill="white" stroke="#666666" points="112.75,-424.25 0,-424.25 0,-405 112.75,-405 112.75,-424.25"/>
<text text-anchor="middle" x="56.38" y="-410.75" font-family="Helvetica,sans-Serif" font-size="10.00">PYBIND11_MODULE</text>
</a>
</g>
</g>
<!-- Node1&#45;&gt;Node3 -->
<g id="edge13_Node000001_Node000003" class="edge">
<title>Node1&#45;&gt;Node3</title>
<g id="a_edge13_Node000001_Node000003"><a xlink:title=" ">
<path fill="none" stroke="#63b8ff" d="M507.11,-456.88C499.73,-510.01 477.74,-646.3 443.25,-673.62 391.94,-714.28 202.03,-718.66 148.75,-680.62 60.92,-617.93 56.64,-465.24 57.11,-424.67"/>
<polygon fill="#63b8ff" stroke="#63b8ff" points="510.57,-457.42 508.44,-447.04 503.63,-456.48 510.57,-457.42"/>
</a>
</g>
</g>
<!-- Node4 -->
<g id="Node000004" class="node">
<title>Node4</title>
<g id="a_Node000004"><a xlink:href="../../d8/d62/_ellinga___test_case_8cpp_ae7167da7e4a13ec20ea77342a492b6ee.html#ae7167da7e4a13ec20ea77342a492b6ee" target="_top" xlink:title=" ">
<polygon fill="white" stroke="#666666" points="260.38,-671.25 165.62,-671.25 165.62,-652 260.38,-652 260.38,-671.25"/>
<text text-anchor="middle" x="213" y="-657.75" font-family="Helvetica,sans-Serif" font-size="10.00">Ellinga_Carbuncle</text>
</a>
</g>
</g>
<!-- Node1&#45;&gt;Node4 -->
<g id="edge3_Node000001_Node000004" class="edge">
<title>Node1&#45;&gt;Node4</title>
<g id="a_edge3_Node000001_Node000004"><a xlink:title=" ">
<path fill="none" stroke="#63b8ff" d="M510.16,-456.99C509.45,-499.96 501.13,-596.67 443.25,-642.62 391.64,-683.6 311.33,-679.65 260.75,-671.66"/>
<polygon fill="#63b8ff" stroke="#63b8ff" points="513.66,-457.01 510.18,-447.01 506.66,-457 513.66,-457.01"/>
</a>
</g>
</g>
<!-- Node5 -->
<g id="Node000005" class="node">
<title>Node5</title>
<g id="a_Node000005"><a xlink:href="../../de/d81/_flat___plate___boundary___layer_8cpp_a787b29de4053181d716a19e7c4c9b705.html#a787b29de4053181d716a19e7c4c9b705" target="_top" xlink:title=" ">
<polygon fill="white" stroke="#666666" points="266.38,-256.88 159.62,-256.88 159.62,-226.38 266.38,-226.38 266.38,-256.88"/>
<text text-anchor="start" x="167.62" y="-243.38" font-family="Helvetica,sans-Serif" font-size="10.00">Flat_Plate_Boundary</text>
<text text-anchor="middle" x="213" y="-232.12" font-family="Helvetica,sans-Serif" font-size="10.00">_Layer</text>
</a>
</g>
</g>
<!-- Node1&#45;&gt;Node5 -->
<g id="edge5_Node000001_Node000005" class="edge">
<title>Node1&#45;&gt;Node5</title>
<g id="a_edge5_Node000001_Node000005"><a xlink:title=" ">
<path fill="none" stroke="#63b8ff" d="M508.46,-414.48C504.76,-377.41 491.36,-301.17 443.25,-264.62 392.76,-226.27 316.91,-226.6 266.46,-232.4"/>
<polygon fill="#63b8ff" stroke="#63b8ff" points="504.97,-414.65 509.29,-424.32 511.94,-414.06 504.97,-414.65"/>
</a>
</g>
</g>
<!-- Node6 -->
<g id="Node000006" class="node">
<title>Node6</title>
<g id="a_Node000006"><a xlink:href="../../da/d4b/_flow___over___bump_8cpp_abaa8184c0dd8aa3fdc37d585f0a7d0cc.html#abaa8184c0dd8aa3fdc37d585f0a7d0cc" target="_top" xlink:title=" ">
<polygon fill="white" stroke="#666666" points="260,-208.25 166,-208.25 166,-189 260,-189 260,-208.25"/>
<text text-anchor="middle" x="213" y="-194.75" font-family="Helvetica,sans-Serif" font-size="10.00">Flow_Over_Bump</text>
</a>
</g>
</g>
<!-- Node1&#45;&gt;Node6 -->
<g id="edge7_Node000001_Node000006" class="edge">
<title>Node1&#45;&gt;Node6</title>
<g id="a_edge7_Node000001_Node000006"><a xlink:title=" ">
<path fill="none" stroke="#63b8ff" d="M510.14,-414.41C509.41,-371.27 501.1,-273.41 443.25,-225.62 391.96,-183.26 310.79,-184.48 260.06,-190.58"/>
<polygon fill="#63b8ff" stroke="#63b8ff" points="506.64,-414.2 510.16,-424.19 513.64,-414.18 506.64,-414.2"/>
</a>
</g>
</g>
<!-- Node7 -->
<g id="Node000007" class="node">
<title>Node7</title>
<g id="a_Node000007"><a xlink:href="../../dc/d8c/_forward___facing___step_8cpp_a5f68d17ee33caeda5da8c4270441108c.html#a5f68d17ee33caeda5da8c4270441108c" target="_top" xlink:title=" ">
<polygon fill="white" stroke="#666666" points="433.88,-633.25 322.62,-633.25 322.62,-614 433.88,-614 433.88,-633.25"/>
<text text-anchor="middle" x="378.25" y="-619.75" font-family="Helvetica,sans-Serif" font-size="10.00">Forward_Facing_Step</text>
</a>
</g>
</g>
<!-- Node1&#45;&gt;Node7 -->
<g id="edge9_Node000001_Node000007" class="edge">
<title>Node1&#45;&gt;Node7</title>
<g id="a_edge9_Node000001_Node000007"><a xlink:title=" ">
<path fill="none" stroke="#63b8ff" d="M507.51,-456.67C502.38,-492.31 486.92,-564.59 443.25,-604.62 439.32,-608.23 434.74,-611.15 429.86,-613.52"/>
<polygon fill="#63b8ff" stroke="#63b8ff" points="510.92,-457.57 508.73,-447.2 503.98,-456.67 510.92,-457.57"/>
</a>
</g>
</g>
<!-- Node8 -->
<g id="Node000008" class="node">
<title>Node8</title>
<g id="a_Node000008"><a xlink:href="../../de/dc4/_o_e_d_8cpp_a1404a4711dcead4c50dd9eaa2ab7b7c0.html#a1404a4711dcead4c50dd9eaa2ab7b7c0" target="_top" xlink:title=" ">
<polygon fill="white" stroke="#666666" points="397.12,-595.25 359.38,-595.25 359.38,-576 397.12,-576 397.12,-595.25"/>
<text text-anchor="middle" x="378.25" y="-581.75" font-family="Helvetica,sans-Serif" font-size="10.00">OED</text>
</a>
</g>
</g>
<!-- Node1&#45;&gt;Node8 -->
<g id="edge11_Node000001_Node000008" class="edge">
<title>Node1&#45;&gt;Node8</title>
<g id="a_edge11_Node000001_Node000008"><a xlink:title=" ">
<path fill="none" stroke="#63b8ff" d="M504.88,-456.36C496.83,-485.29 478.25,-537.48 443.25,-566.62 430.25,-577.45 411.26,-582.11 397.34,-584.11"/>
<polygon fill="#63b8ff" stroke="#63b8ff" points="508.18,-457.54 507.31,-446.99 501.41,-455.78 508.18,-457.54"/>
</a>
</g>
</g>
<!-- Node9 -->
<g id="Node000009" class="node">
<title>Node9</title>
<g id="a_Node000009"><a xlink:href="../../dd/de9/_ramp__15___degree_8cpp_af85931ed4e293dce5c8e4acafecd54b5.html#af85931ed4e293dce5c8e4acafecd54b5" target="_top" xlink:title=" ">
<polygon fill="white" stroke="#666666" points="425.62,-557.25 330.88,-557.25 330.88,-538 425.62,-538 425.62,-557.25"/>
<text text-anchor="middle" x="378.25" y="-543.75" font-family="Helvetica,sans-Serif" font-size="10.00">Ramp_15_Degree</text>
</a>
</g>
</g>
<!-- Node1&#45;&gt;Node9 -->
<g id="edge14_Node000001_Node000009" class="edge">
<title>Node1&#45;&gt;Node9</title>
<g id="a_edge14_Node000001_Node000009"><a xlink:title=" ">
<path fill="none" stroke="#63b8ff" d="M500.72,-455.82C489.97,-477.28 470.13,-510.67 443.25,-529.62 438.06,-533.28 432.15,-536.2 426.06,-538.53"/>
<polygon fill="#63b8ff" stroke="#63b8ff" points="503.82,-457.46 504.97,-446.93 497.5,-454.44 503.82,-457.46"/>
</a>
</g>
</g>
<!-- Node10 -->
<g id="Node000010" class="node">
<title>Node10</title>
<g id="a_Node000010"><a xlink:href="../../d2/d72/_scram___jet___inlet___test___case_8cpp_a49bbbeed352ab44d6248954f9d5391b0.html#a49bbbeed352ab44d6248954f9d5391b0" target="_top" xlink:title=" ">
<polygon fill="white" stroke="#666666" points="421.88,-520.25 334.62,-520.25 334.62,-501 421.88,-501 421.88,-520.25"/>
<text text-anchor="middle" x="378.25" y="-506.75" font-family="Helvetica,sans-Serif" font-size="10.00">Scram_Jet_Inlet</text>
</a>
</g>
</g>
<!-- Node1&#45;&gt;Node10 -->
<g id="edge16_Node000001_Node000010" class="edge">
<title>Node1&#45;&gt;Node10</title>
<g id="a_edge16_Node000001_Node000010"><a xlink:title=" ">
<path fill="none" stroke="#63b8ff" d="M493.18,-453.57C480.56,-466.16 462.23,-482.48 443.25,-492.62 436.74,-496.11 429.48,-498.97 422.26,-501.31"/>
<polygon fill="#63b8ff" stroke="#63b8ff" points="495.43,-456.28 499.88,-446.67 490.41,-451.4 495.43,-456.28"/>
</a>
</g>
</g>
<!-- Node11 -->
<g id="Node000011" class="node">
<title>Node11</title>
<g id="a_Node000011"><a xlink:href="../../d1/d48/_shock___bubble___interaction_8cpp_a4cb762eff7e59896e567775356bda66a.html#a4cb762eff7e59896e567775356bda66a" target="_top" xlink:title=" ">
<polygon fill="white" stroke="#666666" points="443.25,-483.25 313.25,-483.25 313.25,-464 443.25,-464 443.25,-483.25"/>
<text text-anchor="middle" x="378.25" y="-469.75" font-family="Helvetica,sans-Serif" font-size="10.00">Shock_Bubble_Interaction</text>
</a>
</g>
</g>
<!-- Node1&#45;&gt;Node11 -->
<g id="edge18_Node000001_Node000011" class="edge">
<title>Node1&#45;&gt;Node11</title>
<g id="a_edge18_Node000001_Node000011"><a xlink:title=" ">
<path fill="none" stroke="#63b8ff" d="M468.35,-447.71C450.73,-452.83 430.43,-458.74 413.66,-463.61"/>
<polygon fill="#63b8ff" stroke="#63b8ff" points="468.84,-451.21 477.47,-445.05 466.89,-444.49 468.84,-451.21"/>
</a>
</g>
</g>
<!-- Node12 -->
<g id="Node000012" class="node">
<title>Node12</title>
<g id="a_Node000012"><a xlink:href="../../d5/d9f/_shock___diffraction_8cpp_a464d43fab5d32cc9ecee800dfab8e5c8.html#a464d43fab5d32cc9ecee800dfab8e5c8" target="_top" xlink:title=" ">
<polygon fill="white" stroke="#666666" points="260,-443.25 166,-443.25 166,-424 260,-424 260,-443.25"/>
<text text-anchor="middle" x="213" y="-429.75" font-family="Helvetica,sans-Serif" font-size="10.00">Shock_Diffraction</text>
</a>
</g>
</g>
<!-- Node1&#45;&gt;Node12 -->
<g id="edge20_Node000001_Node000012" class="edge">
<title>Node1&#45;&gt;Node12</title>
<g id="a_edge20_Node000001_Node000012"><a xlink:title=" ">
<path fill="none" stroke="#63b8ff" d="M467.36,-435.34C412.43,-434.97 317.12,-434.32 260.37,-433.94"/>
<polygon fill="#63b8ff" stroke="#63b8ff" points="467.23,-438.84 477.26,-435.4 467.28,-431.84 467.23,-438.84"/>
</a>
</g>
</g>
<!-- Node13 -->
<g id="Node000013" class="node">
<title>Node13</title>
<g id="a_Node000013"><a xlink:href="../../d2/d58/_shock___reflection__2_d_8cpp_a286a95bfcac44ff19264008ffd9506ed.html#a286a95bfcac44ff19264008ffd9506ed" target="_top" xlink:title=" ">
<polygon fill="white" stroke="#666666" points="268.62,-406.25 157.38,-406.25 157.38,-387 268.62,-387 268.62,-406.25"/>
<text text-anchor="middle" x="213" y="-392.75" font-family="Helvetica,sans-Serif" font-size="10.00">Shock_Reflection_2D</text>
</a>
</g>
</g>
<!-- Node1&#45;&gt;Node13 -->
<g id="edge22_Node000001_Node000013" class="edge">
<title>Node1&#45;&gt;Node13</title>
<g id="a_edge22_Node000001_Node000013"><a xlink:title=" ">
<path fill="none" stroke="#63b8ff" d="M467.58,-430.05C415.36,-423.17 326.42,-411.44 268.95,-403.87"/>
<polygon fill="#63b8ff" stroke="#63b8ff" points="466.9,-433.49 477.27,-431.33 467.81,-426.55 466.9,-433.49"/>
</a>
</g>
</g>
<!-- Node14 -->
<g id="Node000014" class="node">
<title>Node14</title>
<g id="a_Node000014"><a xlink:href="../../d6/d4f/_shock___tube__2_d_8cpp_a634f5b7cf63cab96d3b48ed0b4df6ad4.html#a634f5b7cf63cab96d3b48ed0b4df6ad4" target="_top" xlink:title=" ">
<polygon fill="white" stroke="#666666" points="257.38,-369.25 168.62,-369.25 168.62,-350 257.38,-350 257.38,-369.25"/>
<text text-anchor="middle" x="213" y="-355.75" font-family="Helvetica,sans-Serif" font-size="10.00">Shock_Tube_2D</text>
</a>
</g>
</g>
<!-- Node1&#45;&gt;Node14 -->
<g id="edge24_Node000001_Node000014" class="edge">
<title>Node1&#45;&gt;Node14</title>
<g id="a_edge24_Node000001_Node000014"><a xlink:title=" ">
<path fill="none" stroke="#63b8ff" d="M479.72,-420.91C468.47,-415.85 455.46,-410.49 443.25,-406.62 380.11,-386.65 304.43,-373.06 257.78,-365.82"/>
<polygon fill="#63b8ff" stroke="#63b8ff" points="477.97,-423.96 488.51,-424.98 480.91,-417.61 477.97,-423.96"/>
</a>
</g>
</g>
<!-- Node15 -->
<g id="Node000015" class="node">
<title>Node15</title>
<g id="a_Node000015"><a xlink:href="../../de/dda/_shock___wedge___reflection_8cpp_a951397acc5a124a5a006dbd5ae45029a.html#a951397acc5a124a5a006dbd5ae45029a" target="_top" xlink:title=" ">
<polygon fill="white" stroke="#666666" points="277.25,-332.25 148.75,-332.25 148.75,-313 277.25,-313 277.25,-332.25"/>
<text text-anchor="middle" x="213" y="-318.75" font-family="Helvetica,sans-Serif" font-size="10.00">Shock_Wedge_Reflection</text>
</a>
</g>
</g>
<!-- Node1&#45;&gt;Node15 -->
<g id="edge26_Node000001_Node000015" class="edge">
<title>Node1&#45;&gt;Node15</title>
<g id="a_edge26_Node000001_Node000015"><a xlink:title=" ">
<path fill="none" stroke="#63b8ff" d="M495.42,-416.9C483.12,-402.31 464.17,-382.73 443.25,-371.62 391.48,-344.15 325.42,-332.08 277.52,-326.78"/>
<polygon fill="#63b8ff" stroke="#63b8ff" points="492.52,-418.89 501.54,-424.45 497.96,-414.48 492.52,-418.89"/>
</a>
</g>
</g>
<!-- Node16 -->
<g id="Node000016" class="node">
<title>Node16</title>
<g id="a_Node000016"><a xlink:href="../../d8/d8f/_slip___flow__2_d_8cpp_a41030236ecf9b4d95159d7227a838eab.html#a41030236ecf9b4d95159d7227a838eab" target="_top" xlink:title=" ">
<polygon fill="white" stroke="#666666" points="416.62,-293.25 339.88,-293.25 339.88,-274 416.62,-274 416.62,-293.25"/>
<text text-anchor="middle" x="378.25" y="-279.75" font-family="Helvetica,sans-Serif" font-size="10.00">Slip_Flow_2D</text>
</a>
</g>
</g>
<!-- Node1&#45;&gt;Node16 -->
<g id="edge28_Node000001_Node000016" class="edge">
<title>Node1&#45;&gt;Node16</title>
<g id="a_edge28_Node000001_Node000016"><a xlink:title=" ">
<path fill="none" stroke="#63b8ff" d="M504.22,-414.9C495.55,-386.86 476.41,-337 443.25,-307.62 435.79,-301.02 426.33,-296.16 416.99,-292.62"/>
<polygon fill="#63b8ff" stroke="#63b8ff" points="500.8,-415.7 506.96,-424.32 507.52,-413.74 500.8,-415.7"/>
</a>
</g>
</g>
<!-- Node17 -->
<g id="Node000017" class="node">
<title>Node17</title>
<g id="a_Node000017"><a xlink:href="../../d8/da5/_s_w_b_l_i_8cpp_aab1edbd94ae1737559f5140355148ed8.html#aab1edbd94ae1737559f5140355148ed8" target="_top" xlink:title=" ">
<polygon fill="white" stroke="#666666" points="236.75,-132.25 189.25,-132.25 189.25,-113 236.75,-113 236.75,-132.25"/>
<text text-anchor="middle" x="213" y="-118.75" font-family="Helvetica,sans-Serif" font-size="10.00">SWBLI</text>
</a>
</g>
</g>
<!-- Node1&#45;&gt;Node17 -->
<g id="edge30_Node000001_Node000017" class="edge">
<title>Node1&#45;&gt;Node17</title>
<g id="a_edge30_Node000001_Node000017"><a xlink:title=" ">
<path fill="none" stroke="#63b8ff" d="M508.07,-414.21C502.5,-353.66 483.47,-183.34 443.25,-147.62 384.87,-95.79 282.41,-108.42 236.9,-117.38"/>
<polygon fill="#63b8ff" stroke="#63b8ff" points="504.58,-414.5 508.95,-424.16 511.55,-413.89 504.58,-414.5"/>
</a>
</g>
</g>
<!-- Node18 -->
<g id="Node000018" class="node">
<title>Node18</title>
<g id="a_Node000018"><a xlink:href="../../da/d3e/output__files_8cpp_a4f636ff0b5586b55fff77262f81143cc.html#a4f636ff0b5586b55fff77262f81143cc" target="_top" xlink:title=" ">
<polygon fill="white" stroke="#666666" points="432.75,-822.25 323.75,-822.25 323.75,-803 432.75,-803 432.75,-822.25"/>
<text text-anchor="middle" x="378.25" y="-808.75" font-family="Helvetica,sans-Serif" font-size="10.00">Write_A_MatrixToFile</text>
</a>
</g>
</g>
<!-- Node1&#45;&gt;Node18 -->
<g id="edge32_Node000001_Node000018" class="edge">
<title>Node1&#45;&gt;Node18</title>
<g id="a_edge32_Node000001_Node000018"><a xlink:title=" ">
<path fill="none" stroke="#63b8ff" d="M508.81,-456.77C504.91,-526.02 489.13,-744.39 443.25,-794.62 440.29,-797.86 436.8,-800.54 433,-802.74"/>
<polygon fill="#63b8ff" stroke="#63b8ff" points="512.29,-457.34 509.33,-447.17 505.3,-456.96 512.29,-457.34"/>
</a>
</g>
</g>
<!-- Node19 -->
<g id="Node000019" class="node">
<title>Node19</title>
<g id="a_Node000019"><a xlink:href="../../da/d3e/output__files_8cpp_ab93e7c603b76e3f8a017a061ab7d5dda.html#ab93e7c603b76e3f8a017a061ab7d5dda" target="_top" xlink:title=" ">
<polygon fill="white" stroke="#666666" points="432.75,-785.25 323.75,-785.25 323.75,-766 432.75,-766 432.75,-785.25"/>
<text text-anchor="middle" x="378.25" y="-771.75" font-family="Helvetica,sans-Serif" font-size="10.00">Write_b_VectorToFile</text>
</a>
</g>
</g>
<!-- Node1&#45;&gt;Node19 -->
<g id="edge34_Node000001_Node000019" class="edge">
<title>Node1&#45;&gt;Node19</title>
<g id="a_edge34_Node000001_Node000019"><a xlink:title=" ">
<path fill="none" stroke="#63b8ff" d="M508.03,-456.93C502.15,-520.42 481.88,-706.67 443.25,-751.62 438.07,-757.65 431.21,-762.17 423.92,-765.56"/>
<polygon fill="#63b8ff" stroke="#63b8ff" points="511.5,-457.43 508.91,-447.15 504.53,-456.8 511.5,-457.43"/>
</a>
</g>
</g>
<!-- Node20 -->
<g id="Node000020" class="node">
<title>Node20</title>
<g id="a_Node000020"><a xlink:href="../../da/d3e/output__files_8cpp_a38d0be544847273a1bff3a28e3368e67.html#a38d0be544847273a1bff3a28e3368e67" target="_top" xlink:title=" ">
<polygon fill="white" stroke="#666666" points="417.38,-176.25 339.12,-176.25 339.12,-157 417.38,-157 417.38,-176.25"/>
<text text-anchor="middle" x="378.25" y="-162.75" font-family="Helvetica,sans-Serif" font-size="10.00">Write_CF_File</text>
</a>
</g>
</g>
<!-- Node1&#45;&gt;Node20 -->
<g id="edge36_Node000001_Node000020" class="edge">
<title>Node1&#45;&gt;Node20</title>
<g id="a_edge36_Node000001_Node000020"><a xlink:title=" ">
<path fill="none" stroke="#63b8ff" d="M510.03,-414.42C509.24,-368.27 501.01,-257.66 443.25,-192.62 436.48,-185 427.15,-179.58 417.71,-175.73"/>
<polygon fill="#63b8ff" stroke="#63b8ff" points="506.53,-414.37 510.08,-424.35 513.53,-414.33 506.53,-414.37"/>
</a>
</g>
</g>
<!-- Node23 -->
<g id="Node000023" class="node">
<title>Node23</title>
<g id="a_Node000023"><a xlink:href="../../da/d3e/output__files_8cpp_a932a66d069205197a92f4583a044990c.html#a932a66d069205197a92f4583a044990c" target="_top" xlink:title=" ">
<polygon fill="white" stroke="#666666" points="421.12,-95.25 335.38,-95.25 335.38,-76 421.12,-76 421.12,-95.25"/>
<text text-anchor="middle" x="378.25" y="-81.75" font-family="Helvetica,sans-Serif" font-size="10.00">Write_Error_File</text>
</a>
</g>
</g>
<!-- Node1&#45;&gt;Node23 -->
<g id="edge44_Node000001_Node000023" class="edge">
<title>Node1&#45;&gt;Node23</title>
<g id="a_edge44_Node000001_Node000023"><a xlink:title=" ">
<path fill="none" stroke="#63b8ff" d="M508.16,-414.57C502.53,-350.18 482.66,-157.38 443.25,-110.62 437.48,-103.78 429.6,-98.81 421.34,-95.19"/>
<polygon fill="#63b8ff" stroke="#63b8ff" points="504.64,-414.48 508.97,-424.15 511.62,-413.89 504.64,-414.48"/>
</a>
</g>
</g>
<!-- Node25 -->
<g id="Node000025" class="node">
<title>Node25</title>
<g id="a_Node000025"><a xlink:href="../../da/d3e/output__files_8cpp_a53a2a3d9ed56a0260c4e683bcb5963c9.html#a53a2a3d9ed56a0260c4e683bcb5963c9" target="_top" xlink:title=" ">
<polygon fill="white" stroke="#666666" points="420.38,-58.25 336.12,-58.25 336.12,-39 420.38,-39 420.38,-58.25"/>
<text text-anchor="middle" x="378.25" y="-44.75" font-family="Helvetica,sans-Serif" font-size="10.00">Write_VTK_File</text>
</a>
</g>
</g>
<!-- Node1&#45;&gt;Node25 -->
<g id="edge50_Node000001_Node000025" class="edge">
<title>Node1&#45;&gt;Node25</title>
<g id="a_edge50_Node000001_Node000025"><a xlink:title=" ">
<path fill="none" stroke="#63b8ff" d="M508.92,-414.36C505.33,-343.72 490.34,-118.44 443.25,-66.62 437.27,-60.05 429.1,-55.8 420.6,-53.07"/>
<polygon fill="#63b8ff" stroke="#63b8ff" points="505.42,-414.34 509.39,-424.16 512.41,-414 505.42,-414.34"/>
</a>
</g>
</g>
<!-- Node2&#45;&gt;Node3 -->
<g id="edge2_Node000002_Node000003" class="edge">
<title>Node2&#45;&gt;Node3</title>
<g id="a_edge2_Node000002_Node000003"><a xlink:title=" ">
<path fill="none" stroke="#63b8ff" d="M163.43,-724.67C157.99,-721.7 152.91,-718.07 148.75,-713.62 66.59,-625.85 58.2,-466.13 57.43,-424.67"/>
<polygon fill="#63b8ff" stroke="#63b8ff" points="161.59,-727.67 172.14,-728.68 164.52,-721.31 161.59,-727.67"/>
</a>
</g>
</g>
<!-- Node4&#45;&gt;Node3 -->
<g id="edge4_Node000004_Node000003" class="edge">
<title>Node4&#45;&gt;Node3</title>
<g id="a_edge4_Node000004_Node000003"><a xlink:title=" ">
<path fill="none" stroke="#63b8ff" d="M160.42,-646.4C156.18,-643.89 152.2,-640.99 148.75,-637.62 84.01,-574.56 63.47,-459.16 58.63,-424.64"/>
<polygon fill="#63b8ff" stroke="#63b8ff" points="158.8,-649.5 169.31,-650.86 161.94,-643.25 158.8,-649.5"/>
</a>
</g>
</g>
<!-- Node5&#45;&gt;Node3 -->
<g id="edge6_Node000005_Node000003" class="edge">
<title>Node5&#45;&gt;Node3</title>
<g id="a_edge6_Node000005_Node000003"><a xlink:title=" ">
<path fill="none" stroke="#63b8ff" d="M158.95,-263.03C155.34,-265.35 151.89,-267.88 148.75,-270.62 103.02,-310.54 71.94,-378.87 61.37,-404.51"/>
<polygon fill="#63b8ff" stroke="#63b8ff" points="160.57,-266.13 167.48,-258.1 157.07,-260.07 160.57,-266.13"/>
</a>
</g>
</g>
<!-- Node6&#45;&gt;Node3 -->
<g id="edge8_Node000006_Node000003" class="edge">
<title>Node6&#45;&gt;Node3</title>
<g id="a_edge8_Node000006_Node000003"><a xlink:title=" ">
<path fill="none" stroke="#63b8ff" d="M155.71,-212.54C153.25,-214.06 150.91,-215.75 148.75,-217.62 87.78,-270.47 64.89,-372.63 59.02,-404.72"/>
<polygon fill="#63b8ff" stroke="#63b8ff" points="157.04,-215.8 164.36,-208.14 153.86,-209.56 157.04,-215.8"/>
</a>
</g>
</g>
<!-- Node7&#45;&gt;Node3 -->
<g id="edge10_Node000007_Node000003" class="edge">
<title>Node7&#45;&gt;Node3</title>
<g id="a_edge10_Node000007_Node000003"><a xlink:title=" ">
<path fill="none" stroke="#63b8ff" d="M310.9,-622.35C261.89,-618.35 195.79,-606.2 148.75,-571.62 95.64,-532.59 68.34,-452.65 60.11,-424.61"/>
<polygon fill="#63b8ff" stroke="#63b8ff" points="310.61,-625.84 320.83,-623.06 311.11,-618.86 310.61,-625.84"/>
</a>
</g>
</g>
<!-- Node8&#45;&gt;Node3 -->
<g id="edge12_Node000008_Node000003" class="edge">
<title>Node8&#45;&gt;Node3</title>
<g id="a_edge12_Node000008_Node000003"><a xlink:title=" ">
<path fill="none" stroke="#63b8ff" d="M347.81,-585.72C301.76,-584.55 211.48,-576.8 148.75,-536.62 103.51,-507.65 72.56,-447.92 61.69,-424.42"/>
<polygon fill="#63b8ff" stroke="#63b8ff" points="347.47,-589.22 357.53,-585.88 347.58,-582.22 347.47,-589.22"/>
</a>
</g>
</g>
<!-- Node9&#45;&gt;Node3 -->
<g id="edge15_Node000009_Node000003" class="edge">
<title>Node9&#45;&gt;Node3</title>
<g id="a_edge15_Node000009_Node000003"><a xlink:title=" ">
<path fill="none" stroke="#63b8ff" d="M318.99,-545.99C270.89,-542.52 202.12,-532.54 148.75,-504.62 110.67,-484.71 78.07,-443.67 64.33,-424.68"/>
<polygon fill="#63b8ff" stroke="#63b8ff" points="318.73,-549.48 328.93,-546.63 319.18,-542.5 318.73,-549.48"/>
</a>
</g>
</g>
<!-- Node10&#45;&gt;Node3 -->
<g id="edge17_Node000010_Node000003" class="edge">
<title>Node10&#45;&gt;Node3</title>
<g id="a_edge17_Node000010_Node000003"><a xlink:title=" ">
<path fill="none" stroke="#63b8ff" d="M322.88,-508.92C275.48,-505.9 205.61,-497.7 148.75,-475.62 117.1,-463.34 85.29,-438.65 68.84,-424.74"/>
<polygon fill="#63b8ff" stroke="#63b8ff" points="322.44,-512.4 332.62,-509.48 322.84,-505.41 322.44,-512.4"/>
</a>
</g>
</g>
<!-- Node11&#45;&gt;Node3 -->
<g id="edge19_Node000011_Node000003" class="edge">
<title>Node11&#45;&gt;Node3</title>
<g id="a_edge19_Node000011_Node000003"><a xlink:title=" ">
<path fill="none" stroke="#63b8ff" d="M301.43,-472.39C256.49,-470.24 198.73,-465.01 148.75,-452.62 122.9,-446.22 94.86,-433.64 76.75,-424.71"/>
<polygon fill="#63b8ff" stroke="#63b8ff" points="301.21,-475.88 311.35,-472.81 301.51,-468.89 301.21,-475.88"/>
</a>
</g>
</g>
<!-- Node12&#45;&gt;Node3 -->
<g id="edge21_Node000012_Node000003" class="edge">
<title>Node12&#45;&gt;Node3</title>
<g id="a_edge21_Node000012_Node000003"><a xlink:title=" ">
<path fill="none" stroke="#63b8ff" d="M154.46,-426.56C140.91,-424.89 126.48,-423.12 113.01,-421.46"/>
<polygon fill="#63b8ff" stroke="#63b8ff" points="153.75,-429.99 164.11,-427.74 154.61,-423.05 153.75,-429.99"/>
</a>
</g>
</g>
<!-- Node13&#45;&gt;Node3 -->
<g id="edge23_Node000013_Node000003" class="edge">
<title>Node13&#45;&gt;Node3</title>
<g id="a_edge23_Node000013_Node000003"><a xlink:title=" ">
<path fill="none" stroke="#63b8ff" d="M145.86,-404.32C134.97,-405.59 123.79,-406.89 113.19,-408.13"/>
<polygon fill="#63b8ff" stroke="#63b8ff" points="146.02,-407.83 155.55,-403.2 145.21,-400.88 146.02,-407.83"/>
</a>
</g>
</g>
<!-- Node14&#45;&gt;Node3 -->
<g id="edge25_Node000014_Node000003" class="edge">
<title>Node14&#45;&gt;Node3</title>
<g id="a_edge25_Node000014_Node000003"><a xlink:title=" ">
<path fill="none" stroke="#63b8ff" d="M163.27,-372.92C158.34,-374.44 153.43,-376.02 148.75,-377.62 124.96,-385.8 98.36,-396.79 80.02,-404.66"/>
<polygon fill="#63b8ff" stroke="#63b8ff" points="163.97,-376.37 172.55,-370.15 161.97,-369.66 163.97,-376.37"/>
</a>
</g>
</g>
<!-- Node15&#45;&gt;Node3 -->
<g id="edge27_Node000015_Node000003" class="edge">
<title>Node15&#45;&gt;Node3</title>
<g id="a_edge27_Node000015_Node000003"><a xlink:title=" ">
<path fill="none" stroke="#63b8ff" d="M157.19,-336.69C154.29,-337.91 151.46,-339.22 148.75,-340.62 115.24,-358.03 82.44,-388.92 66.83,-404.72"/>
<polygon fill="#63b8ff" stroke="#63b8ff" points="158.35,-340 166.48,-333.21 155.89,-333.44 158.35,-340"/>
</a>
</g>
</g>
<!-- Node16&#45;&gt;Node3 -->
<g id="edge29_Node000016_Node000003" class="edge">
<title>Node16&#45;&gt;Node3</title>
<g id="a_edge29_Node000016_Node000003"><a xlink:title=" ">
<path fill="none" stroke="#63b8ff" d="M328.15,-277.38C279.69,-273.55 204.9,-274.06 148.75,-303.62 104.36,-327 73.35,-382.1 62.07,-404.69"/>
<polygon fill="#63b8ff" stroke="#63b8ff" points="327.8,-280.86 338.07,-278.27 328.42,-273.89 327.8,-280.86"/>
</a>
</g>
</g>
<!-- Node17&#45;&gt;Node3 -->
<g id="edge31_Node000017_Node000003" class="edge">
<title>Node17&#45;&gt;Node3</title>
<g id="a_edge31_Node000017_Node000003"><a xlink:title=" ">
<path fill="none" stroke="#63b8ff" d="M178.1,-129.48C167.55,-133.06 156.63,-138.48 148.75,-146.62 73.76,-224.21 60.19,-365.78 57.84,-404.57"/>
<polygon fill="#63b8ff" stroke="#63b8ff" points="178.75,-132.93 187.37,-126.79 176.79,-126.21 178.75,-132.93"/>
</a>
</g>
</g>
<!-- Node18&#45;&gt;Node3 -->
<g id="edge33_Node000018_Node000003" class="edge">
<title>Node18&#45;&gt;Node3</title>
<g id="a_edge33_Node000018_Node000003"><a xlink:title=" ">
<path fill="none" stroke="#63b8ff" d="M312.13,-823.93C261.55,-828.8 192.83,-826.27 148.75,-787.62 91.35,-737.3 63.52,-478.54 58.29,-424.52"/>
<polygon fill="#63b8ff" stroke="#63b8ff" points="312.21,-827.44 321.77,-822.88 311.45,-820.48 312.21,-827.44"/>
</a>
</g>
</g>
<!-- Node19&#45;&gt;Node3 -->
<g id="edge35_Node000019_Node000003" class="edge">
<title>Node19&#45;&gt;Node3</title>
<g id="a_edge35_Node000019_Node000003"><a xlink:title=" ">
<path fill="none" stroke="#63b8ff" d="M321.43,-787.46C270.56,-794.8 196.31,-796.39 148.75,-756.62 95.12,-711.79 64.65,-476.55 58.53,-424.73"/>
<polygon fill="#63b8ff" stroke="#63b8ff" points="321.72,-790.96 331.05,-785.95 320.63,-784.05 321.72,-790.96"/>
</a>
</g>
</g>
<!-- Node20&#45;&gt;Node3 -->
<g id="edge39_Node000020_Node000003" class="edge">
<title>Node20&#45;&gt;Node3</title>
<g id="a_edge39_Node000020_Node000003"><a xlink:title=" ">
<path fill="none" stroke="#63b8ff" d="M327.55,-155.12C277.5,-146.57 200.49,-142.03 148.75,-179.62 71.37,-235.85 59.52,-367.29 57.7,-404.59"/>
<polygon fill="#63b8ff" stroke="#63b8ff" points="326.77,-158.54 337.24,-156.91 328.04,-151.66 326.77,-158.54"/>
</a>
</g>
</g>
<!-- Node20&#45;&gt;Node5 -->
<g id="edge37_Node000020_Node000005" class="edge">
<title>Node20&#45;&gt;Node5</title>
<g id="a_edge37_Node000020_Node000005"><a xlink:title=" ">
<path fill="none" stroke="#63b8ff" d="M349.21,-181.97C329.38,-192.55 302.02,-206.65 277.25,-217.62 270.81,-220.48 263.91,-223.32 257.13,-225.98"/>
<polygon fill="#63b8ff" stroke="#63b8ff" points="350.63,-185.17 357.78,-177.35 347.31,-179.01 350.63,-185.17"/>
</a>
</g>
</g>
<!-- Node20&#45;&gt;Node6 -->
<g id="edge38_Node000020_Node000006" class="edge">
<title>Node20&#45;&gt;Node6</title>
<g id="a_edge38_Node000020_Node000006"><a xlink:title=" ">
<path fill="none" stroke="#63b8ff" d="M327.82,-176.31C306.43,-180.51 281.53,-185.39 260.47,-189.52"/>
<polygon fill="#63b8ff" stroke="#63b8ff" points="328.35,-179.78 337.49,-174.42 327,-172.91 328.35,-179.78"/>
</a>
</g>
</g>
<!-- Node20&#45;&gt;Node17 -->
<g id="edge40_Node000020_Node000017" class="edge">
<title>Node20&#45;&gt;Node17</title>
<g id="a_edge40_Node000020_Node000017"><a xlink:title=" ">
<path fill="none" stroke="#63b8ff" d="M329,-153.62C298.69,-145.45 260.95,-135.28 237.16,-128.87"/>
<polygon fill="#63b8ff" stroke="#63b8ff" points="327.77,-156.91 338.34,-156.14 329.59,-150.15 327.77,-156.91"/>
</a>
</g>
</g>
<!-- Node21 -->
<g id="Node000021" class="node">
<title>Node21</title>
<g id="a_Node000021"><a xlink:href="../../de/df0/_solver_8cpp_a2f37f06e8324a1ed6aa99efdbba81865.html#a2f37f06e8324a1ed6aa99efdbba81865" target="_top" xlink:title=" ">
<polygon fill="white" stroke="#666666" points="255.12,-95.25 170.88,-95.25 170.88,-76 255.12,-76 255.12,-95.25"/>
<text text-anchor="middle" x="213" y="-81.75" font-family="Helvetica,sans-Serif" font-size="10.00">Viscous_Solver</text>
</a>
</g>
</g>
<!-- Node20&#45;&gt;Node21 -->
<g id="edge41_Node000020_Node000021" class="edge">
<title>Node20&#45;&gt;Node21</title>
<g id="a_edge41_Node000020_Node000021"><a xlink:title=" ">
<path fill="none" stroke="#63b8ff" d="M354.75,-149.82C335.14,-135.83 305.49,-116.23 277.25,-103.62 270.37,-100.55 262.83,-97.87 255.43,-95.58"/>
<polygon fill="#63b8ff" stroke="#63b8ff" points="352.66,-152.62 362.81,-155.67 356.77,-146.96 352.66,-152.62"/>
</a>
</g>
</g>
<!-- Node21&#45;&gt;Node3 -->
<g id="edge42_Node000021_Node000003" class="edge">
<title>Node21&#45;&gt;Node3</title>
<g id="a_edge42_Node000021_Node000003"><a xlink:title=" ">
<path fill="none" stroke="#63b8ff" d="M160.32,-95.31C156.07,-97.55 152.12,-100.28 148.75,-103.62 59.84,-191.79 56.45,-361.63 57.09,-404.57"/>
<polygon fill="#63b8ff" stroke="#63b8ff" points="161.4,-98.66 169.25,-91.55 158.68,-92.21 161.4,-98.66"/>
</a>
</g>
</g>
<!-- Node22 -->
<g id="Node000022" class="node">
<title>Node22</title>
<g id="a_Node000022"><a xlink:href="../../d5/d12/_main_8cpp_a35d775933750ace299102f06a1712663.html#a35d775933750ace299102f06a1712663" target="_top" xlink:title="Executes the appropriate solver based on the simulation configuration.">
<polygon fill="white" stroke="#666666" points="85,-57.25 27.75,-57.25 27.75,-38 85,-38 85,-57.25"/>
<text text-anchor="middle" x="56.38" y="-43.75" font-family="Helvetica,sans-Serif" font-size="10.00">runSolver</text>
</a>
</g>
</g>
<!-- Node21&#45;&gt;Node22 -->
<g id="edge43_Node000021_Node000022" class="edge">
<title>Node21&#45;&gt;Node22</title>
<g id="a_edge43_Node000021_Node000022"><a xlink:title=" ">
<path fill="none" stroke="#63b8ff" d="M159.84,-72.81C134.93,-66.68 106.11,-59.6 85.39,-54.51"/>
<polygon fill="#63b8ff" stroke="#63b8ff" points="158.95,-76.19 169.5,-75.18 160.62,-69.39 158.95,-76.19"/>
</a>
</g>
</g>
<!-- Node23&#45;&gt;Node3 -->
<g id="edge48_Node000023_Node000003" class="edge">
<title>Node23&#45;&gt;Node3</title>
<g id="a_edge48_Node000023_Node000003"><a xlink:title=" ">
<path fill="none" stroke="#63b8ff" d="M324.37,-73.23C265.53,-60.8 175.25,-46.18 148.75,-66.62 92.36,-110.12 63.94,-352.18 58.39,-404.61"/>
<polygon fill="#63b8ff" stroke="#63b8ff" points="323.33,-76.59 333.85,-75.28 324.81,-69.74 323.33,-76.59"/>
</a>
</g>
</g>
<!-- Node23&#45;&gt;Node21 -->
<g id="edge49_Node000023_Node000021" class="edge">
<title>Node23&#45;&gt;Node21</title>
<g id="a_edge49_Node000023_Node000021"><a xlink:title=" ">
<path fill="none" stroke="#63b8ff" d="M323.94,-85.62C301.76,-85.62 276.39,-85.62 255.62,-85.62"/>
<polygon fill="#63b8ff" stroke="#63b8ff" points="323.7,-89.13 333.7,-85.63 323.7,-82.13 323.7,-89.13"/>
</a>
</g>
</g>
<!-- Node24 -->
<g id="Node000024" class="node">
<title>Node24</title>
<g id="a_Node000024"><a xlink:href="../../de/df0/_solver_8cpp_ad0f49408a26339b5f7043bf867c3fa8d.html#ad0f49408a26339b5f7043bf867c3fa8d" target="_top" xlink:title=" ">
<polygon fill="white" stroke="#666666" points="254.38,-19.25 171.62,-19.25 171.62,0 254.38,0 254.38,-19.25"/>
<text text-anchor="middle" x="213" y="-5.75" font-family="Helvetica,sans-Serif" font-size="10.00">Inviscid_Solver</text>
</a>
</g>
</g>
<!-- Node23&#45;&gt;Node24 -->
<g id="edge45_Node000023_Node000024" class="edge">
<title>Node23&#45;&gt;Node24</title>
<g id="a_edge45_Node000023_Node000024"><a xlink:title=" ">
<path fill="none" stroke="#63b8ff" d="M324.57,-73.08C320.64,-71.46 316.82,-69.65 313.25,-67.62 294.1,-56.78 295.9,-45.31 277.25,-33.62 268.29,-28.01 257.82,-23.38 248,-19.73"/>
<polygon fill="#63b8ff" stroke="#63b8ff" points="323.09,-76.26 333.69,-76.39 325.49,-69.69 323.09,-76.26"/>
</a>
</g>
</g>
<!-- Node24&#45;&gt;Node3 -->
<g id="edge46_Node000024_Node000003" class="edge">
<title>Node24&#45;&gt;Node3</title>
<g id="a_edge46_Node000024_Node000003"><a xlink:title=" ">
<path fill="none" stroke="#63b8ff" d="M161.26,-23.44C156.6,-26.24 152.3,-29.59 148.75,-33.62 97.29,-92.09 64.78,-350.83 58.49,-404.76"/>
<polygon fill="#63b8ff" stroke="#63b8ff" points="162.5,-26.74 169.88,-19.14 159.37,-20.47 162.5,-26.74"/>
</a>
</g>
</g>
<!-- Node24&#45;&gt;Node22 -->
<g id="edge47_Node000024_Node000022" class="edge">
<title>Node24&#45;&gt;Node22</title>
<g id="a_edge47_Node000024_Node000022"><a xlink:title=" ">
<path fill="none" stroke="#63b8ff" d="M160.5,-22.28C135.31,-28.47 105.99,-35.68 85.06,-40.82"/>
<polygon fill="#63b8ff" stroke="#63b8ff" points="161.03,-25.76 169.9,-19.97 159.36,-18.96 161.03,-25.76"/>
</a>
</g>
</g>
</g>
</svg>
