<?xml version="1.0" encoding="UTF-8" standalone="no"?>
<!DOCTYPE svg PUBLIC "-//W3C//DTD SVG 1.1//EN"
 "http://www.w3.org/Graphics/SVG/1.1/DTD/svg11.dtd">
<!-- Generated by graphviz version 12.2.1 (20241206.2353)
 -->
<!-- Title: initializeGridFiles Pages: 1 -->
<svg width="1309pt" height="684pt"
 viewBox="0.00 0.00 1308.55 683.80" xmlns="http://www.w3.org/2000/svg" xmlns:xlink="http://www.w3.org/1999/xlink">
<g id="graph0" class="graph" transform="scale(1 1) rotate(0) translate(4 679.8)">
<title>initializeGridFiles</title>
<!-- Node1 -->
<g id="Node000001" class="node">
<title>Node1</title>
<g id="a_Node000001"><a xlink:title=" ">
<polygon fill="#999999" stroke="#666666" points="90.25,-468.8 0,-468.8 0,-449.55 90.25,-449.55 90.25,-468.8"/>
<text text-anchor="middle" x="45.12" y="-455.3" font-family="Helvetica,sans-Serif" font-size="10.00">initializeGridFiles</text>
</a>
</g>
</g>
<!-- Node2 -->
<g id="Node000002" class="node">
<title>Node2</title>
<g id="a_Node000002"><a xlink:href="../../d8/d40/_grid___computations_8cpp_a5214aea020c856108980e45d45cbc89b.html#a5214aea020c856108980e45d45cbc89b" target="_top" xlink:title=" ">
<polygon fill="white" stroke="#666666" points="192.5,-468.8 126.25,-468.8 126.25,-449.55 192.5,-449.55 192.5,-468.8"/>
<text text-anchor="middle" x="159.38" y="-455.3" font-family="Helvetica,sans-Serif" font-size="10.00">Form_Cells</text>
</a>
</g>
</g>
<!-- Node1&#45;&gt;Node2 -->
<g id="edge1_Node000001_Node000002" class="edge">
<title>Node1&#45;&gt;Node2</title>
<g id="a_edge1_Node000001_Node000002"><a xlink:title=" ">
<path fill="none" stroke="#63b8ff" d="M90.49,-459.17C98.39,-459.17 106.63,-459.17 114.52,-459.17"/>
<polygon fill="#63b8ff" stroke="#63b8ff" points="114.24,-462.67 124.24,-459.17 114.24,-455.67 114.24,-462.67"/>
</a>
</g>
</g>
<!-- Node3 -->
<g id="Node000003" class="node">
<title>Node3</title>
<g id="a_Node000003"><a xlink:href="../../d8/d40/_grid___computations_8cpp_a7e6f11445e90cefdcb91f369846ec691.html#a7e6f11445e90cefdcb91f369846ec691" target="_top" xlink:title=" ">
<polygon fill="white" stroke="#666666" points="345.75,-423.42 231.5,-423.42 231.5,-392.92 345.75,-392.92 345.75,-423.42"/>
<text text-anchor="start" x="239.5" y="-409.92" font-family="Helvetica,sans-Serif" font-size="10.00">Calculate_Cell_Center</text>
<text text-anchor="middle" x="288.62" y="-398.67" font-family="Helvetica,sans-Serif" font-size="10.00">_Distances</text>
</a>
</g>
</g>
<!-- Node2&#45;&gt;Node3 -->
<g id="edge2_Node000002_Node000003" class="edge">
<title>Node2&#45;&gt;Node3</title>
<g id="a_edge2_Node000002_Node000003"><a xlink:title=" ">
<path fill="none" stroke="#63b8ff" d="M185.52,-449.1C200.46,-443.11 219.94,-435.3 237.88,-428.11"/>
<polygon fill="#63b8ff" stroke="#63b8ff" points="239.12,-431.39 247.1,-424.42 236.52,-424.89 239.12,-431.39"/>
</a>
</g>
</g>
<!-- Node6 -->
<g id="Node000006" class="node">
<title>Node6</title>
<g id="a_Node000006"><a xlink:href="../../d8/d40/_grid___computations_8cpp_a209db16fba143a9833c8d4021624afb0.html#a209db16fba143a9833c8d4021624afb0" target="_top" xlink:title=" ">
<polygon fill="white" stroke="#666666" points="998.88,-581.8 926.62,-581.8 926.62,-562.55 998.88,-562.55 998.88,-581.8"/>
<text text-anchor="middle" x="962.75" y="-568.3" font-family="Helvetica,sans-Serif" font-size="10.00">Check_Cells</text>
</a>
</g>
</g>
<!-- Node2&#45;&gt;Node6 -->
<g id="edge5_Node000002_Node000006" class="edge">
<title>Node2&#45;&gt;Node6</title>
<g id="a_edge5_Node000002_Node000006"><a xlink:title=" ">
<path fill="none" stroke="#63b8ff" d="M174.45,-469.29C214.68,-497.19 334.49,-573.17 446.12,-573.17 446.12,-573.17 446.12,-573.17 612.25,-573.17 720.58,-573.17 847.79,-572.69 914.86,-572.39"/>
<polygon fill="#63b8ff" stroke="#63b8ff" points="914.78,-575.89 924.76,-572.35 914.75,-568.89 914.78,-575.89"/>
</a>
</g>
</g>
<!-- Node7 -->
<g id="Node000007" class="node">
<title>Node7</title>
<g id="a_Node000007"><a xlink:href="../../df/daf/_co___volume___grid___computations_8cpp_a097cceef075e862683dd9f6e95d091d4.html#a097cceef075e862683dd9f6e95d091d4" target="_top" xlink:title=" ">
<polygon fill="white" stroke="#666666" points="348.75,-620.8 228.5,-620.8 228.5,-601.55 348.75,-601.55 348.75,-620.8"/>
<text text-anchor="middle" x="288.62" y="-607.3" font-family="Helvetica,sans-Serif" font-size="10.00">Construct_Co_Volumes</text>
</a>
</g>
</g>
<!-- Node2&#45;&gt;Node7 -->
<g id="edge6_Node000002_Node000007" class="edge">
<title>Node2&#45;&gt;Node7</title>
<g id="a_edge6_Node000002_Node000007"><a xlink:title=" ">
<path fill="none" stroke="#63b8ff" d="M163.05,-468.96C169.95,-492.52 190.54,-552.96 228.5,-587.17 232.31,-590.61 236.67,-593.58 241.26,-596.15"/>
<polygon fill="#63b8ff" stroke="#63b8ff" points="239.66,-599.27 250.19,-600.49 242.72,-592.97 239.66,-599.27"/>
</a>
</g>
</g>
<!-- Node13 -->
<g id="Node000013" class="node">
<title>Node13</title>
<g id="a_Node000013"><a xlink:href="../../d8/d40/_grid___computations_8cpp_ae5f2b7a0fdbc48f8fdf897222b7ded04.html#ae5f2b7a0fdbc48f8fdf897222b7ded04" target="_top" xlink:title=" ">
<polygon fill="white" stroke="#666666" points="670.25,-468.8 552.25,-468.8 552.25,-449.55 670.25,-449.55 670.25,-468.8"/>
<text text-anchor="middle" x="611.25" y="-455.3" font-family="Helvetica,sans-Serif" font-size="10.00">Construct_Ghost_Cells</text>
</a>
</g>
</g>
<!-- Node2&#45;&gt;Node13 -->
<g id="edge13_Node000002_Node000013" class="edge">
<title>Node2&#45;&gt;Node13</title>
<g id="a_edge13_Node000002_Node000013"><a xlink:title=" ">
<path fill="none" stroke="#63b8ff" d="M192.73,-459.17C265.21,-459.17 441.97,-459.17 540.68,-459.17"/>
<polygon fill="#63b8ff" stroke="#63b8ff" points="540.51,-462.67 550.51,-459.17 540.51,-455.67 540.51,-462.67"/>
</a>
</g>
</g>
<!-- Node15 -->
<g id="Node000015" class="node">
<title>Node15</title>
<g id="a_Node000015"><a xlink:href="../../df/db3/_mesh___loader_8cpp_a4ecb41d6b6dda1279d140f58dcf4d3fa.html#a4ecb41d6b6dda1279d140f58dcf4d3fa" target="_top" xlink:title=" ">
<polygon fill="white" stroke="#666666" points="321.75,-358.8 255.5,-358.8 255.5,-339.55 321.75,-339.55 321.75,-358.8"/>
<text text-anchor="middle" x="288.62" y="-345.3" font-family="Helvetica,sans-Serif" font-size="10.00">Load_Mesh</text>
</a>
</g>
</g>
<!-- Node2&#45;&gt;Node15 -->
<g id="edge15_Node000002_Node000015" class="edge">
<title>Node2&#45;&gt;Node15</title>
<g id="a_edge15_Node000002_Node000015"><a xlink:title=" ">
<path fill="none" stroke="#63b8ff" d="M167.94,-449.07C179.72,-433.78 203.69,-404.4 228.5,-384.17 237.26,-377.03 247.63,-370.39 257.22,-364.84"/>
<polygon fill="#63b8ff" stroke="#63b8ff" points="258.85,-367.94 265.89,-360.03 255.45,-361.82 258.85,-367.94"/>
</a>
</g>
</g>
<!-- Node4 -->
<g id="Node000004" class="node">
<title>Node4</title>
<g id="a_Node000004"><a xlink:href="../../d8/d40/_grid___computations_8cpp_a1f273579608200866e02e34f16a3eb6b.html#a1f273579608200866e02e34f16a3eb6b" target="_top" xlink:title=" ">
<polygon fill="white" stroke="#666666" points="677,-374.8 545.5,-374.8 545.5,-355.55 677,-355.55 677,-374.8"/>
<text text-anchor="middle" x="611.25" y="-361.3" font-family="Helvetica,sans-Serif" font-size="10.00">Distance_Between_Points</text>
</a>
</g>
</g>
<!-- Node3&#45;&gt;Node4 -->
<g id="edge3_Node000003_Node000004" class="edge">
<title>Node3&#45;&gt;Node4</title>
<g id="a_edge3_Node000003_Node000004"><a xlink:title=" ">
<path fill="none" stroke="#63b8ff" d="M346.21,-400.59C398.37,-393.59 476.21,-383.15 533.87,-375.42"/>
<polygon fill="#63b8ff" stroke="#63b8ff" points="534.18,-378.91 543.62,-374.11 533.25,-371.97 534.18,-378.91"/>
</a>
</g>
</g>
<!-- Node5 -->
<g id="Node000005" class="node">
<title>Node5</title>
<g id="a_Node000005"><a xlink:href="../../dc/d3a/src_2_utility___files_8cpp_abf34e0b480f7580b0cd4237a76aed670.html#abf34e0b480f7580b0cd4237a76aed670" target="_top" xlink:title=" ">
<polygon fill="white" stroke="#666666" points="803.62,-354.8 767.38,-354.8 767.38,-335.55 803.62,-335.55 803.62,-354.8"/>
<text text-anchor="middle" x="785.5" y="-341.3" font-family="Helvetica,sans-Serif" font-size="10.00">Print</text>
</a>
</g>
</g>
<!-- Node4&#45;&gt;Node5 -->
<g id="edge4_Node000004_Node000005" class="edge">
<title>Node4&#45;&gt;Node5</title>
<g id="a_edge4_Node000004_Node000005"><a xlink:title=" ">
<path fill="none" stroke="#63b8ff" d="M677.37,-357.61C704.41,-354.47 734.4,-350.99 755.75,-348.51"/>
<polygon fill="#63b8ff" stroke="#63b8ff" points="755.92,-352.02 765.44,-347.39 755.11,-345.06 755.92,-352.02"/>
</a>
</g>
</g>
<!-- Node8 -->
<g id="Node000008" class="node">
<title>Node8</title>
<g id="a_Node000008"><a xlink:href="../../d8/d40/_grid___computations_8cpp_a775c5c8091a251ccd3893d4d726a7a79.html#a775c5c8091a251ccd3893d4d726a7a79" target="_top" xlink:title=" ">
<polygon fill="white" stroke="#666666" points="490,-657.8 404.25,-657.8 404.25,-638.55 490,-638.55 490,-657.8"/>
<text text-anchor="middle" x="447.12" y="-644.3" font-family="Helvetica,sans-Serif" font-size="10.00">Construct_Face</text>
</a>
</g>
</g>
<!-- Node7&#45;&gt;Node8 -->
<g id="edge7_Node000007_Node000008" class="edge">
<title>Node7&#45;&gt;Node8</title>
<g id="a_edge7_Node000007_Node000008"><a xlink:title=" ">
<path fill="none" stroke="#63b8ff" d="M332.39,-621.29C351.09,-625.71 373.21,-630.94 392.96,-635.61"/>
<polygon fill="#63b8ff" stroke="#63b8ff" points="391.94,-638.96 402.48,-637.86 393.55,-632.15 391.94,-638.96"/>
</a>
</g>
</g>
<!-- Node12 -->
<g id="Node000012" class="node">
<title>Node12</title>
<g id="a_Node000012"><a xlink:href="../../d8/d40/_grid___computations_8cpp_a29418163b6fbd0aa81c60026e430d0b8.html#a29418163b6fbd0aa81c60026e430d0b8" target="_top" xlink:title=" ">
<polygon fill="white" stroke="#666666" points="509.5,-620.8 384.75,-620.8 384.75,-601.55 509.5,-601.55 509.5,-620.8"/>
<text text-anchor="middle" x="447.12" y="-607.3" font-family="Helvetica,sans-Serif" font-size="10.00">Evaluate_Cross_Product</text>
</a>
</g>
</g>
<!-- Node7&#45;&gt;Node12 -->
<g id="edge12_Node000007_Node000012" class="edge">
<title>Node7&#45;&gt;Node12</title>
<g id="a_edge12_Node000007_Node000012"><a xlink:title=" ">
<path fill="none" stroke="#63b8ff" d="M349.24,-611.17C356.96,-611.17 364.93,-611.17 372.84,-611.17"/>
<polygon fill="#63b8ff" stroke="#63b8ff" points="372.83,-614.67 382.83,-611.17 372.83,-607.67 372.83,-614.67"/>
</a>
</g>
</g>
<!-- Node8&#45;&gt;Node8 -->
<g id="edge11_Node000008_Node000008" class="edge">
<title>Node8&#45;&gt;Node8</title>
<g id="a_edge11_Node000008_Node000008"><a xlink:title=" ">
<path fill="none" stroke="#63b8ff" d="M422.31,-658.09C410.99,-666.69 419.26,-675.8 447.12,-675.8 462.8,-675.8 472.27,-672.92 475.55,-668.87"/>
<polygon fill="#63b8ff" stroke="#63b8ff" points="478.91,-667.9 472.42,-659.52 472.27,-670.12 478.91,-667.9"/>
</a>
</g>
</g>
<!-- Node9 -->
<g id="Node000009" class="node">
<title>Node9</title>
<g id="a_Node000009"><a xlink:href="../../d8/d40/_grid___computations_8cpp_a4dd07afd2a0f939b4d47bfa1088912c4.html#a4dd07afd2a0f939b4d47bfa1088912c4" target="_top" xlink:title=" ">
<polygon fill="white" stroke="#666666" points="1200.5,-505.8 1102.75,-505.8 1102.75,-486.55 1200.5,-486.55 1200.5,-505.8"/>
<text text-anchor="middle" x="1151.62" y="-492.3" font-family="Helvetica,sans-Serif" font-size="10.00">Compute_Centroid</text>
</a>
</g>
</g>
<!-- Node8&#45;&gt;Node9 -->
<g id="edge8_Node000008_Node000009" class="edge">
<title>Node8&#45;&gt;Node9</title>
<g id="a_edge8_Node000008_Node000009"><a xlink:title=" ">
<path fill="none" stroke="#63b8ff" d="M490.35,-652C589.17,-659.3 841.48,-668.24 1031.5,-591.17 1073.73,-574.05 1113.07,-536.95 1134.28,-514.52"/>
<polygon fill="#63b8ff" stroke="#63b8ff" points="1136.75,-517.01 1140.95,-507.29 1131.6,-512.26 1136.75,-517.01"/>
</a>
</g>
</g>
<!-- Node10 -->
<g id="Node000010" class="node">
<title>Node10</title>
<g id="a_Node000010"><a xlink:href="../../d3/d82/_c_type___elliptic___grid_8cpp_a9d9acf133a5b966f0cbd16a2c57a7d79.html#a9d9acf133a5b966f0cbd16a2c57a7d79" target="_top" xlink:title=" ">
<polygon fill="white" stroke="#666666" points="1300.55,-505.8 1271.75,-505.8 1271.75,-486.55 1300.55,-486.55 1300.55,-505.8"/>
<text text-anchor="middle" x="1286.15" y="-492.3" font-family="Helvetica,sans-Serif" font-size="10.00">x</text>
</a>
</g>
</g>
<!-- Node9&#45;&gt;Node10 -->
<g id="edge9_Node000009_Node000010" class="edge">
<title>Node9&#45;&gt;Node10</title>
<g id="a_edge9_Node000009_Node000010"><a xlink:title=" ">
<path fill="none" stroke="#63b8ff" d="M1200.84,-496.17C1220.9,-496.17 1243.33,-496.17 1260.02,-496.17"/>
<polygon fill="#63b8ff" stroke="#63b8ff" points="1260.01,-499.67 1270.01,-496.17 1260.01,-492.67 1260.01,-499.67"/>
</a>
</g>
</g>
<!-- Node11 -->
<g id="Node000011" class="node">
<title>Node11</title>
<g id="a_Node000011"><a xlink:href="../../d3/d82/_c_type___elliptic___grid_8cpp_aae4b761a64c952b4c008655d1dc59a12.html#aae4b761a64c952b4c008655d1dc59a12" target="_top" xlink:title=" ">
<polygon fill="white" stroke="#666666" points="1300.55,-467.8 1271.75,-467.8 1271.75,-448.55 1300.55,-448.55 1300.55,-467.8"/>
<text text-anchor="middle" x="1286.15" y="-454.3" font-family="Helvetica,sans-Serif" font-size="10.00">y</text>
</a>
</g>
</g>
<!-- Node9&#45;&gt;Node11 -->
<g id="edge10_Node000009_Node000011" class="edge">
<title>Node9&#45;&gt;Node11</title>
<g id="a_edge10_Node000009_Node000011"><a xlink:title=" ">
<path fill="none" stroke="#63b8ff" d="M1187.79,-486.09C1210.74,-479.51 1240.12,-471.09 1260.58,-465.22"/>
<polygon fill="#63b8ff" stroke="#63b8ff" points="1261.37,-468.63 1270.02,-462.51 1259.44,-461.91 1261.37,-468.63"/>
</a>
</g>
</g>
<!-- Node14 -->
<g id="Node000014" class="node">
<title>Node14</title>
<g id="a_Node000014"><a xlink:href="../../d8/d40/_grid___computations_8cpp_a2d284e26ddef582519953e8b8300184e.html#a2d284e26ddef582519953e8b8300184e" target="_top" xlink:title=" ">
<polygon fill="white" stroke="#666666" points="1003.38,-429.8 922.12,-429.8 922.12,-410.55 1003.38,-410.55 1003.38,-429.8"/>
<text text-anchor="middle" x="962.75" y="-416.3" font-family="Helvetica,sans-Serif" font-size="10.00">Construct_Cell</text>
</a>
</g>
</g>
<!-- Node13&#45;&gt;Node14 -->
<g id="edge14_Node000013_Node000014" class="edge">
<title>Node13&#45;&gt;Node14</title>
<g id="a_edge14_Node000013_Node000014"><a xlink:title=" ">
<path fill="none" stroke="#63b8ff" d="M670.43,-454.26C720.27,-449.86 793.95,-442.93 858,-435.17 875.18,-433.1 893.9,-430.49 910.66,-428.04"/>
<polygon fill="#63b8ff" stroke="#63b8ff" points="911.02,-431.52 920.4,-426.6 910,-424.6 911.02,-431.52"/>
</a>
</g>
</g>
<!-- Node16 -->
<g id="Node000016" class="node">
<title>Node16</title>
<g id="a_Node000016"><a xlink:href="../../df/db3/_mesh___loader_8cpp_a94f04e68ff03c16a3c553d5670e9b1ab.html#a94f04e68ff03c16a3c553d5670e9b1ab" target="_top" xlink:title=" ">
<polygon fill="white" stroke="#666666" points="658.62,-321.8 563.88,-321.8 563.88,-302.55 658.62,-302.55 658.62,-321.8"/>
<text text-anchor="middle" x="611.25" y="-308.3" font-family="Helvetica,sans-Serif" font-size="10.00">Read_CSV_Mesh</text>
</a>
</g>
</g>
<!-- Node15&#45;&gt;Node16 -->
<g id="edge16_Node000015_Node000016" class="edge">
<title>Node15&#45;&gt;Node16</title>
<g id="a_edge16_Node000015_Node000016"><a xlink:title=" ">
<path fill="none" stroke="#63b8ff" d="M322.13,-345.42C376.09,-339.2 484.84,-326.65 552.22,-318.87"/>
<polygon fill="#63b8ff" stroke="#63b8ff" points="552.44,-322.37 561.97,-317.75 551.64,-315.42 552.44,-322.37"/>
</a>
</g>
</g>
<!-- Node25 -->
<g id="Node000025" class="node">
<title>Node25</title>
<g id="a_Node000025"><a xlink:href="../../d0/ded/_read___gmsh___file_8cpp_abedd70744a46f756e74b49905be889d9.html#abedd70744a46f756e74b49905be889d9" target="_top" xlink:title=" ">
<polygon fill="white" stroke="#666666" points="503.88,-260.8 390.38,-260.8 390.38,-241.55 503.88,-241.55 503.88,-260.8"/>
<text text-anchor="middle" x="447.12" y="-247.3" font-family="Helvetica,sans-Serif" font-size="10.00">Read_GmshVTK_Grid</text>
</a>
</g>
</g>
<!-- Node15&#45;&gt;Node25 -->
<g id="edge28_Node000015_Node000025" class="edge">
<title>Node15&#45;&gt;Node25</title>
<g id="a_edge28_Node000015_Node000025"><a xlink:title=" ">
<path fill="none" stroke="#63b8ff" d="M305.78,-339.06C332.99,-322.02 388.13,-287.49 420.6,-267.16"/>
<polygon fill="#63b8ff" stroke="#63b8ff" points="422.39,-270.17 429,-261.9 418.67,-264.24 422.39,-270.17"/>
</a>
</g>
</g>
<!-- Node28 -->
<g id="Node000028" class="node">
<title>Node28</title>
<g id="a_Node000028"><a xlink:href="../../d8/d40/_grid___computations_8cpp_a663d4b3ae06e638c2f2e82ad437e831e.html#a663d4b3ae06e638c2f2e82ad437e831e" target="_top" xlink:title="Reads the input grid file and constructs physical cells, evaluates face areas, normals,...">
<polygon fill="white" stroke="#666666" points="816.75,-506.8 754.25,-506.8 754.25,-487.55 816.75,-487.55 816.75,-506.8"/>
<text text-anchor="middle" x="785.5" y="-493.3" font-family="Helvetica,sans-Serif" font-size="10.00">Read_Grid</text>
</a>
</g>
</g>
<!-- Node15&#45;&gt;Node28 -->
<g id="edge40_Node000015_Node000028" class="edge">
<title>Node15&#45;&gt;Node28</title>
<g id="a_edge40_Node000015_Node000028"><a xlink:title=" ">
<path fill="none" stroke="#63b8ff" d="M307.27,-359.2C356.57,-387.04 495.44,-464.15 545.5,-478.17 612.71,-497 694.41,-499.32 742.78,-498.67"/>
<polygon fill="#63b8ff" stroke="#63b8ff" points="742.6,-502.18 752.53,-498.49 742.46,-495.18 742.6,-502.18"/>
</a>
</g>
</g>
<!-- Node16&#45;&gt;Node6 -->
<g id="edge18_Node000016_Node000006" class="edge">
<title>Node16&#45;&gt;Node6</title>
<g id="a_edge18_Node000016_Node000006"><a xlink:title=" ">
<path fill="none" stroke="#63b8ff" d="M643.85,-322.16C655.91,-327.48 668.72,-335.24 677,-346.17 723.61,-407.75 658.74,-461.22 713,-516.17 727.15,-530.51 846.87,-552.76 914.93,-564.43"/>
<polygon fill="#63b8ff" stroke="#63b8ff" points="914.25,-567.87 924.7,-566.09 915.43,-560.96 914.25,-567.87"/>
</a>
</g>
</g>
<!-- Node16&#45;&gt;Node14 -->
<g id="edge21_Node000016_Node000014" class="edge">
<title>Node16&#45;&gt;Node14</title>
<g id="a_edge21_Node000016_Node000014"><a xlink:title=" ">
<path fill="none" stroke="#63b8ff" d="M636.63,-322.29C649.36,-328.21 664.79,-336.44 677,-346.17 696.23,-361.5 691.37,-376.49 713,-388.17 774.98,-421.64 857.95,-425.59 910.64,-423.96"/>
<polygon fill="#63b8ff" stroke="#63b8ff" points="910.69,-427.46 920.54,-423.57 910.41,-420.47 910.69,-427.46"/>
</a>
</g>
</g>
<!-- Node17 -->
<g id="Node000017" class="node">
<title>Node17</title>
<g id="a_Node000017"><a xlink:href="../../d0/ded/_read___gmsh___file_8cpp_ae9fe416efcf214282b13d235773a6bf6.html#ae9fe416efcf214282b13d235773a6bf6" target="_top" xlink:title=" ">
<polygon fill="white" stroke="#666666" points="822.38,-317.8 748.62,-317.8 748.62,-298.55 822.38,-298.55 822.38,-317.8"/>
<text text-anchor="middle" x="785.5" y="-304.3" font-family="Helvetica,sans-Serif" font-size="10.00">BoundingBox</text>
</a>
</g>
</g>
<!-- Node16&#45;&gt;Node17 -->
<g id="edge17_Node000016_Node000017" class="edge">
<title>Node16&#45;&gt;Node17</title>
<g id="a_edge17_Node000016_Node000017"><a xlink:title=" ">
<path fill="none" stroke="#63b8ff" d="M658.86,-311.09C683.01,-310.53 712.44,-309.85 736.75,-309.28"/>
<polygon fill="#63b8ff" stroke="#63b8ff" points="736.8,-312.78 746.72,-309.05 736.64,-305.79 736.8,-312.78"/>
</a>
</g>
</g>
<!-- Node18 -->
<g id="Node000018" class="node">
<title>Node18</title>
<g id="a_Node000018"><a xlink:href="../../d0/ded/_read___gmsh___file_8cpp_ab9ea50ddf9e2981b178f5999ddfcb7b3.html#ab9ea50ddf9e2981b178f5999ddfcb7b3" target="_top" xlink:title=" ">
<polygon fill="white" stroke="#666666" points="858,-194.8 713,-194.8 713,-175.55 858,-175.55 858,-194.8"/>
<text text-anchor="middle" x="785.5" y="-181.3" font-family="Helvetica,sans-Serif" font-size="10.00">Classify_Domain_Boundaries</text>
</a>
</g>
</g>
<!-- Node16&#45;&gt;Node18 -->
<g id="edge19_Node000016_Node000018" class="edge">
<title>Node16&#45;&gt;Node18</title>
<g id="a_edge19_Node000016_Node000018"><a xlink:title=" ">
<path fill="none" stroke="#63b8ff" d="M621.24,-302.3C645.41,-275.77 710.12,-204.88 713,-203.17 715.19,-201.87 717.47,-200.67 719.82,-199.55"/>
<polygon fill="#63b8ff" stroke="#63b8ff" points="721.13,-202.79 729.04,-195.75 718.46,-196.32 721.13,-202.79"/>
</a>
</g>
</g>
<!-- Node20 -->
<g id="Node000020" class="node">
<title>Node20</title>
<g id="a_Node000020"><a xlink:href="../../d0/ded/_read___gmsh___file_8cpp_a4f897fcec439c37558a5d9fd94abf2e0.html#a4f897fcec439c37558a5d9fd94abf2e0" target="_top" xlink:title=" ">
<polygon fill="white" stroke="#666666" points="845.25,-280.42 725.75,-280.42 725.75,-249.92 845.25,-249.92 845.25,-280.42"/>
<text text-anchor="start" x="733.75" y="-266.92" font-family="Helvetica,sans-Serif" font-size="10.00">Create_Boundary_Cells</text>
<text text-anchor="middle" x="785.5" y="-255.67" font-family="Helvetica,sans-Serif" font-size="10.00">_Lists</text>
</a>
</g>
</g>
<!-- Node16&#45;&gt;Node20 -->
<g id="edge22_Node000016_Node000020" class="edge">
<title>Node16&#45;&gt;Node20</title>
<g id="a_edge22_Node000016_Node000020"><a xlink:title=" ">
<path fill="none" stroke="#63b8ff" d="M649.2,-302.09C668.66,-296.78 693.14,-290.1 715.92,-283.89"/>
<polygon fill="#63b8ff" stroke="#63b8ff" points="716.75,-287.29 725.48,-281.28 714.91,-280.54 716.75,-287.29"/>
</a>
</g>
</g>
<!-- Node21 -->
<g id="Node000021" class="node">
<title>Node21</title>
<g id="a_Node000021"><a xlink:href="../../d0/ded/_read___gmsh___file_8cpp_a9ee7224f2c410fa22e26e50b31924869.html#a9ee7224f2c410fa22e26e50b31924869" target="_top" xlink:title=" ">
<polygon fill="white" stroke="#666666" points="837,-157.8 734,-157.8 734,-138.55 837,-138.55 837,-157.8"/>
<text text-anchor="middle" x="785.5" y="-144.3" font-family="Helvetica,sans-Serif" font-size="10.00">Identify_Neighbours</text>
</a>
</g>
</g>
<!-- Node16&#45;&gt;Node21 -->
<g id="edge23_Node000016_Node000021" class="edge">
<title>Node16&#45;&gt;Node21</title>
<g id="a_edge23_Node000016_Node000021"><a xlink:title=" ">
<path fill="none" stroke="#63b8ff" d="M622.93,-302.39C636.69,-289.39 660.77,-265.24 677,-241.17 697.68,-210.52 684.37,-189.57 713,-166.17 716.21,-163.55 719.76,-161.3 723.5,-159.38"/>
<polygon fill="#63b8ff" stroke="#63b8ff" points="724.55,-162.73 732.38,-155.59 721.81,-156.29 724.55,-162.73"/>
</a>
</g>
</g>
<!-- Node23 -->
<g id="Node000023" class="node">
<title>Node23</title>
<g id="a_Node000023"><a xlink:href="../../d8/d40/_grid___computations_8cpp_a614d9bfab5b0ee048b9e08a296757c42.html#a614d9bfab5b0ee048b9e08a296757c42" target="_top" xlink:title=" ">
<polygon fill="white" stroke="#666666" points="1031.5,-392.8 894,-392.8 894,-373.55 1031.5,-373.55 1031.5,-392.8"/>
<text text-anchor="middle" x="962.75" y="-379.3" font-family="Helvetica,sans-Serif" font-size="10.00">Sort_Points_AntiClockWise</text>
</a>
</g>
</g>
<!-- Node16&#45;&gt;Node23 -->
<g id="edge25_Node000016_Node000023" class="edge">
<title>Node16&#45;&gt;Node23</title>
<g id="a_edge25_Node000016_Node000023"><a xlink:title=" ">
<path fill="none" stroke="#63b8ff" d="M631.63,-322.3C660.28,-337.25 710.83,-363.56 713,-364.17 768.18,-379.83 832.84,-384.37 882.4,-385.11"/>
<polygon fill="#63b8ff" stroke="#63b8ff" points="882.15,-388.6 892.19,-385.2 882.22,-381.6 882.15,-388.6"/>
</a>
</g>
</g>
<!-- Node19 -->
<g id="Node000019" class="node">
<title>Node19</title>
<g id="a_Node000019"><a xlink:href="../../d0/ded/_read___gmsh___file_8cpp_a994cf9f1092af359f042b96b997c5adc.html#a994cf9f1092af359f042b96b997c5adc" target="_top" xlink:title=" ">
<polygon fill="white" stroke="#666666" points="1015,-194.8 910.5,-194.8 910.5,-175.55 1015,-175.55 1015,-194.8"/>
<text text-anchor="middle" x="962.75" y="-181.3" font-family="Helvetica,sans-Serif" font-size="10.00">Get_Boundary_Type</text>
</a>
</g>
</g>
<!-- Node18&#45;&gt;Node19 -->
<g id="edge20_Node000018_Node000019" class="edge">
<title>Node18&#45;&gt;Node19</title>
<g id="a_edge20_Node000018_Node000019"><a xlink:title=" ">
<path fill="none" stroke="#63b8ff" d="M858.29,-185.17C871.74,-185.17 885.71,-185.17 898.86,-185.17"/>
<polygon fill="#63b8ff" stroke="#63b8ff" points="898.67,-188.67 908.67,-185.17 898.67,-181.67 898.67,-188.67"/>
</a>
</g>
</g>
<!-- Node22 -->
<g id="Node000022" class="node">
<title>Node22</title>
<g id="a_Node000022"><a xlink:href="../../d0/ded/_read___gmsh___file_8cpp_adc1985827312d4d72fa6eb4ce492fc5e.html#adc1985827312d4d72fa6eb4ce492fc5e" target="_top" xlink:title=" ">
<polygon fill="white" stroke="#666666" points="1010.12,-157.8 915.38,-157.8 915.38,-138.55 1010.12,-138.55 1010.12,-157.8"/>
<text text-anchor="middle" x="962.75" y="-144.3" font-family="Helvetica,sans-Serif" font-size="10.00">mapFacesToCells</text>
</a>
</g>
</g>
<!-- Node21&#45;&gt;Node22 -->
<g id="edge24_Node000021_Node000022" class="edge">
<title>Node21&#45;&gt;Node22</title>
<g id="a_edge24_Node000021_Node000022"><a xlink:title=" ">
<path fill="none" stroke="#63b8ff" d="M837.19,-148.17C858.01,-148.17 882.24,-148.17 903.76,-148.17"/>
<polygon fill="#63b8ff" stroke="#63b8ff" points="903.56,-151.67 913.56,-148.17 903.56,-144.67 903.56,-151.67"/>
</a>
</g>
</g>
<!-- Node23&#45;&gt;Node9 -->
<g id="edge27_Node000023_Node000009" class="edge">
<title>Node23&#45;&gt;Node9</title>
<g id="a_edge27_Node000023_Node000009"><a xlink:title=" ">
<path fill="none" stroke="#63b8ff" d="M1011.69,-393.24C1018.51,-395.43 1025.3,-398.06 1031.5,-401.17 1071.79,-421.46 1111.25,-456.87 1133.12,-478.25"/>
<polygon fill="#63b8ff" stroke="#63b8ff" points="1130.49,-480.57 1140.04,-485.15 1135.43,-475.61 1130.49,-480.57"/>
</a>
</g>
</g>
<!-- Node24 -->
<g id="Node000024" class="node">
<title>Node24</title>
<g id="a_Node000024"><a xlink:href="../../d8/d40/_grid___computations_8cpp_a0bdffb27693c14d6cb4ef62eb5bd5d7f.html#a0bdffb27693c14d6cb4ef62eb5bd5d7f" target="_top" xlink:title="Sorts a set of points in anti&#45;clockwise order around their centroid.">
<polygon fill="white" stroke="#666666" points="1235.75,-392.8 1067.5,-392.8 1067.5,-373.55 1235.75,-373.55 1235.75,-392.8"/>
<text text-anchor="middle" x="1151.62" y="-379.3" font-family="Helvetica,sans-Serif" font-size="10.00">Are_Points_Sorted_AntiClockWise</text>
</a>
</g>
</g>
<!-- Node23&#45;&gt;Node24 -->
<g id="edge26_Node000023_Node000024" class="edge">
<title>Node23&#45;&gt;Node24</title>
<g id="a_edge26_Node000023_Node000024"><a xlink:title=" ">
<path fill="none" stroke="#63b8ff" d="M1031.74,-383.17C1039.55,-383.17 1047.61,-383.17 1055.68,-383.17"/>
<polygon fill="#63b8ff" stroke="#63b8ff" points="1055.57,-386.67 1065.57,-383.17 1055.57,-379.67 1055.57,-386.67"/>
</a>
</g>
</g>
<!-- Node26 -->
<g id="Node000026" class="node">
<title>Node26</title>
<g id="a_Node000026"><a xlink:href="../../d0/ded/_read___gmsh___file_8cpp_af5022e986434a24c3f27a650cf4aeb76.html#af5022e986434a24c3f27a650cf4aeb76" target="_top" xlink:title=" ">
<polygon fill="white" stroke="#666666" points="654.88,-231.8 567.62,-231.8 567.62,-212.55 654.88,-212.55 654.88,-231.8"/>
<text text-anchor="middle" x="611.25" y="-218.3" font-family="Helvetica,sans-Serif" font-size="10.00">Read_VTK_Grid</text>
</a>
</g>
</g>
<!-- Node25&#45;&gt;Node26 -->
<g id="edge29_Node000025_Node000026" class="edge">
<title>Node25&#45;&gt;Node26</title>
<g id="a_edge29_Node000025_Node000026"><a xlink:title=" ">
<path fill="none" stroke="#63b8ff" d="M504.37,-241.11C521.09,-238.12 539.37,-234.85 555.96,-231.89"/>
<polygon fill="#63b8ff" stroke="#63b8ff" points="556.42,-235.36 565.65,-230.15 555.19,-228.47 556.42,-235.36"/>
</a>
</g>
</g>
<!-- Node26&#45;&gt;Node5 -->
<g id="edge37_Node000026_Node000005" class="edge">
<title>Node26&#45;&gt;Node5</title>
<g id="a_edge37_Node000026_Node000005"><a xlink:title=" ">
<path fill="none" stroke="#63b8ff" d="M621.32,-232.24C643.93,-257.25 701.8,-320.67 713,-327.17 726.01,-334.73 742.15,-339.15 755.8,-341.71"/>
<polygon fill="#63b8ff" stroke="#63b8ff" points="755.09,-345.14 765.52,-343.28 756.21,-338.23 755.09,-345.14"/>
</a>
</g>
</g>
<!-- Node26&#45;&gt;Node10 -->
<g id="edge38_Node000026_Node000010" class="edge">
<title>Node26&#45;&gt;Node10</title>
<g id="a_edge38_Node000026_Node000010"><a xlink:title=" ">
<path fill="none" stroke="#63b8ff" d="M618.88,-212.35C633.21,-192.12 669.33,-146.25 713,-129.17 844.84,-77.63 902.69,-70.47 1031.5,-129.17 1157.42,-186.57 1167.96,-243.54 1235.75,-364.17 1259.96,-407.25 1249.79,-427.39 1272.23,-475.97"/>
<polygon fill="#63b8ff" stroke="#63b8ff" points="1268.97,-477.27 1276.51,-484.72 1275.26,-474.2 1268.97,-477.27"/>
</a>
</g>
</g>
<!-- Node26&#45;&gt;Node11 -->
<g id="edge39_Node000026_Node000011" class="edge">
<title>Node26&#45;&gt;Node11</title>
<g id="a_edge39_Node000026_Node000011"><a xlink:title=" ">
<path fill="none" stroke="#63b8ff" d="M616.49,-212.13C627.78,-186.89 661.25,-121.05 713,-96.17 922.39,4.49 1060.71,56.6 1235.75,-96.17 1287.15,-141.04 1287.05,-366.1 1285.71,-436.85"/>
<polygon fill="#63b8ff" stroke="#63b8ff" points="1282.21,-436.6 1285.49,-446.68 1289.21,-436.76 1282.21,-436.6"/>
</a>
</g>
</g>
<!-- Node26&#45;&gt;Node17 -->
<g id="edge30_Node000026_Node000017" class="edge">
<title>Node26&#45;&gt;Node17</title>
<g id="a_edge30_Node000026_Node000017"><a xlink:title=" ">
<path fill="none" stroke="#63b8ff" d="M624.5,-232.28C642.72,-246.83 678.53,-273.64 713,-289.17 720.74,-292.66 729.24,-295.61 737.6,-298.07"/>
<polygon fill="#63b8ff" stroke="#63b8ff" points="736.4,-301.37 746.97,-300.63 738.25,-294.62 736.4,-301.37"/>
</a>
</g>
</g>
<!-- Node26&#45;&gt;Node18 -->
<g id="edge31_Node000026_Node000018" class="edge">
<title>Node26&#45;&gt;Node18</title>
<g id="a_edge31_Node000026_Node000018"><a xlink:title=" ">
<path fill="none" stroke="#63b8ff" d="M655.27,-212.93C676.77,-208.32 703.09,-202.66 726.35,-197.67"/>
<polygon fill="#63b8ff" stroke="#63b8ff" points="726.97,-201.11 736.01,-195.59 725.5,-194.27 726.97,-201.11"/>
</a>
</g>
</g>
<!-- Node26&#45;&gt;Node20 -->
<g id="edge32_Node000026_Node000020" class="edge">
<title>Node26&#45;&gt;Node20</title>
<g id="a_edge32_Node000026_Node000020"><a xlink:title=" ">
<path fill="none" stroke="#63b8ff" d="M652.63,-232.26C671.01,-236.84 693.3,-242.41 714.28,-247.65"/>
<polygon fill="#63b8ff" stroke="#63b8ff" points="713.42,-251.04 723.97,-250.06 715.11,-244.25 713.42,-251.04"/>
</a>
</g>
</g>
<!-- Node26&#45;&gt;Node21 -->
<g id="edge36_Node000026_Node000021" class="edge">
<title>Node26&#45;&gt;Node21</title>
<g id="a_edge36_Node000026_Node000021"><a xlink:title=" ">
<path fill="none" stroke="#63b8ff" d="M627.34,-212.14C646.52,-199.77 681,-178.84 713,-166.17 717.28,-164.48 721.78,-162.9 726.34,-161.45"/>
<polygon fill="#63b8ff" stroke="#63b8ff" points="726.99,-164.91 735.57,-158.7 724.99,-158.2 726.99,-164.91"/>
</a>
</g>
</g>
<!-- Node27 -->
<g id="Node000027" class="node">
<title>Node27</title>
<g id="a_Node000027"><a xlink:href="../../d0/ded/_read___gmsh___file_8cpp_aa3cbdec71b7c56f603b53acd3ce5a070.html#aa3cbdec71b7c56f603b53acd3ce5a070" target="_top" xlink:title=" ">
<polygon fill="white" stroke="#666666" points="823.5,-231.8 747.5,-231.8 747.5,-212.55 823.5,-212.55 823.5,-231.8"/>
<text text-anchor="middle" x="785.5" y="-218.3" font-family="Helvetica,sans-Serif" font-size="10.00">Identify_Cells</text>
</a>
</g>
</g>
<!-- Node26&#45;&gt;Node27 -->
<g id="edge33_Node000026_Node000027" class="edge">
<title>Node26&#45;&gt;Node27</title>
<g id="a_edge33_Node000026_Node000027"><a xlink:title=" ">
<path fill="none" stroke="#63b8ff" d="M655.27,-222.17C679.81,-222.17 710.65,-222.17 736.04,-222.17"/>
<polygon fill="#63b8ff" stroke="#63b8ff" points="735.77,-225.67 745.77,-222.17 735.77,-218.67 735.77,-225.67"/>
</a>
</g>
</g>
<!-- Node27&#45;&gt;Node14 -->
<g id="edge34_Node000027_Node000014" class="edge">
<title>Node27&#45;&gt;Node14</title>
<g id="a_edge34_Node000027_Node000014"><a xlink:title=" ">
<path fill="none" stroke="#63b8ff" d="M823.88,-224.43C836.24,-226.99 849.1,-231.91 858,-241.17 908.81,-294.04 843.19,-349.31 894,-402.17 898.7,-407.07 904.57,-410.68 910.86,-413.34"/>
<polygon fill="#63b8ff" stroke="#63b8ff" points="909.72,-416.65 920.31,-416.5 911.94,-410.01 909.72,-416.65"/>
</a>
</g>
</g>
<!-- Node27&#45;&gt;Node23 -->
<g id="edge35_Node000027_Node000023" class="edge">
<title>Node27&#45;&gt;Node23</title>
<g id="a_edge35_Node000027_Node000023"><a xlink:title=" ">
<path fill="none" stroke="#63b8ff" d="M823.82,-227.1C835.48,-229.9 847.93,-234.29 858,-241.17 904.24,-272.79 937.49,-332.03 952.62,-363.05"/>
<polygon fill="#63b8ff" stroke="#63b8ff" points="949.28,-364.19 956.72,-371.73 955.61,-361.2 949.28,-364.19"/>
</a>
</g>
</g>
<!-- Node28&#45;&gt;Node6 -->
<g id="edge41_Node000028_Node000006" class="edge">
<title>Node28&#45;&gt;Node6</title>
<g id="a_edge41_Node000028_Node000006"><a xlink:title=" ">
<path fill="none" stroke="#63b8ff" d="M816.95,-505.05C829.98,-509.01 845.13,-514.42 858,-521.17 875.71,-530.48 876.37,-538.73 894,-548.17 901.03,-551.94 908.77,-555.32 916.42,-558.28"/>
<polygon fill="#63b8ff" stroke="#63b8ff" points="915.1,-561.52 925.69,-561.65 917.49,-554.94 915.1,-561.52"/>
</a>
</g>
</g>
<!-- Node28&#45;&gt;Node10 -->
<g id="edge45_Node000028_Node000010" class="edge">
<title>Node28&#45;&gt;Node10</title>
<g id="a_edge45_Node000028_Node000010"><a xlink:title=" ">
<path fill="none" stroke="#63b8ff" d="M816.91,-503.65C838.35,-507.88 867.79,-513 894,-515.17 1045.37,-527.76 1086.41,-542.9 1235.75,-515.17 1244.13,-513.62 1252.92,-510.7 1260.72,-507.61"/>
<polygon fill="#63b8ff" stroke="#63b8ff" points="1262.07,-510.83 1269.89,-503.68 1259.32,-504.4 1262.07,-510.83"/>
</a>
</g>
</g>
<!-- Node28&#45;&gt;Node11 -->
<g id="edge46_Node000028_Node000011" class="edge">
<title>Node28&#45;&gt;Node11</title>
<g id="a_edge46_Node000028_Node000011"><a xlink:title=" ">
<path fill="none" stroke="#63b8ff" d="M816.91,-490.38C838.35,-485.87 867.79,-480.24 894,-477.17 1031.73,-461.09 1198.27,-458.58 1260.3,-458.22"/>
<polygon fill="#63b8ff" stroke="#63b8ff" points="1260.09,-461.72 1270.07,-458.18 1260.06,-454.72 1260.09,-461.72"/>
</a>
</g>
</g>
<!-- Node28&#45;&gt;Node14 -->
<g id="edge42_Node000028_Node000014" class="edge">
<title>Node28&#45;&gt;Node14</title>
<g id="a_edge42_Node000028_Node000014"><a xlink:title=" ">
<path fill="none" stroke="#63b8ff" d="M817.06,-489.52C830.12,-485.59 845.25,-480.16 858,-473.17 876.02,-463.31 876.06,-454.19 894,-444.17 900.73,-440.41 908.17,-437.07 915.57,-434.16"/>
<polygon fill="#63b8ff" stroke="#63b8ff" points="916.7,-437.47 924.88,-430.74 914.29,-430.9 916.7,-437.47"/>
</a>
</g>
</g>
<!-- Node28&#45;&gt;Node23 -->
<g id="edge44_Node000028_Node000023" class="edge">
<title>Node28&#45;&gt;Node23</title>
<g id="a_edge44_Node000028_Node000023"><a xlink:title=" ">
<path fill="none" stroke="#63b8ff" d="M794.84,-487.06C811.57,-467.46 851.27,-424.2 894,-401.17 896.53,-399.81 899.17,-398.55 901.88,-397.37"/>
<polygon fill="#63b8ff" stroke="#63b8ff" points="903.07,-400.66 911.16,-393.83 900.57,-394.12 903.07,-400.66"/>
</a>
</g>
</g>
<!-- Node29 -->
<g id="Node000029" class="node">
<title>Node29</title>
<g id="a_Node000029"><a xlink:href="../../d8/d40/_grid___computations_8cpp_aa376223dcb91990013ac6549090115ea.html#aa376223dcb91990013ac6549090115ea" target="_top" xlink:title=" ">
<polygon fill="white" stroke="#666666" points="1012,-505.8 913.5,-505.8 913.5,-486.55 1012,-486.55 1012,-505.8"/>
<text text-anchor="middle" x="962.75" y="-492.3" font-family="Helvetica,sans-Serif" font-size="10.00">Conversion_Factor</text>
</a>
</g>
</g>
<!-- Node28&#45;&gt;Node29 -->
<g id="edge43_Node000028_Node000029" class="edge">
<title>Node28&#45;&gt;Node29</title>
<g id="a_edge43_Node000028_Node000029"><a xlink:title=" ">
<path fill="none" stroke="#63b8ff" d="M817.03,-497C840.3,-496.87 873.09,-496.68 901.57,-496.52"/>
<polygon fill="#63b8ff" stroke="#63b8ff" points="901.57,-500.02 911.55,-496.46 901.53,-493.02 901.57,-500.02"/>
</a>
</g>
</g>
</g>
</svg>
