<?xml version="1.0" encoding="UTF-8" standalone="no"?>
<!DOCTYPE svg PUBLIC "-//W3C//DTD SVG 1.1//EN"
 "http://www.w3.org/Graphics/SVG/1.1/DTD/svg11.dtd">
<!-- Generated by graphviz version 12.2.1 (20241206.2353)
 -->
<!-- Title: LLF_2O Pages: 1 -->
<svg width="784pt" height="114pt"
 viewBox="0.00 0.00 783.50 113.86" xmlns="http://www.w3.org/2000/svg" xmlns:xlink="http://www.w3.org/1999/xlink">
<g id="graph0" class="graph" transform="scale(1 1) rotate(0) translate(4 109.86)">
<title>LLF_2O</title>
<!-- Node1 -->
<g id="Node000001" class="node">
<title>Node1</title>
<g id="a_Node000001"><a xlink:title=" ">
<polygon fill="#999999" stroke="#666666" points="775.5,-56.25 725,-56.25 725,-37 775.5,-37 775.5,-56.25"/>
<text text-anchor="middle" x="750.25" y="-42.75" font-family="Helvetica,sans-Serif" font-size="10.00">LLF_2O</text>
</a>
</g>
</g>
<!-- Node2 -->
<g id="Node000002" class="node">
<title>Node2</title>
<g id="a_Node000002"><a xlink:href="../../d9/ddd/_c_u_d_a___integrated___numerical___method_8cpp_a4db2fe24c2a78f98ac91e9d7d271430f.html#a4db2fe24c2a78f98ac91e9d7d271430f" target="_top" xlink:title=" ">
<polygon fill="white" stroke="#666666" points="689,-56.25 549.25,-56.25 549.25,-37 689,-37 689,-56.25"/>
<text text-anchor="middle" x="619.12" y="-42.75" font-family="Helvetica,sans-Serif" font-size="10.00">Evaluate_Cell_Net_Flux_2O</text>
</a>
</g>
</g>
<!-- Node1&#45;&gt;Node2 -->
<g id="edge1_Node000001_Node000002" class="edge">
<title>Node1&#45;&gt;Node2</title>
<g id="a_edge1_Node000001_Node000002"><a xlink:title=" ">
<path fill="none" stroke="#63b8ff" d="M713.39,-46.62C705.82,-46.62 697.59,-46.62 689.26,-46.62"/>
<polygon fill="#63b8ff" stroke="#63b8ff" points="713.15,-50.13 723.15,-46.63 713.15,-43.13 713.15,-50.13"/>
</a>
</g>
</g>
<!-- Node3 -->
<g id="Node000003" class="node">
<title>Node3</title>
<g id="a_Node000003"><a xlink:href="../../d0/d64/_numerical___method_8cpp_a8dda0c7e17babab9b6e49e8e199dc30e.html#a8dda0c7e17babab9b6e49e8e199dc30e" target="_top" xlink:title=" ">
<polygon fill="white" stroke="#666666" points="367.12,-38.25 281.38,-38.25 281.38,-19 367.12,-19 367.12,-38.25"/>
<text text-anchor="middle" x="324.25" y="-24.75" font-family="Helvetica,sans-Serif" font-size="10.00">Explicit_Method</text>
</a>
</g>
</g>
<!-- Node2&#45;&gt;Node3 -->
<g id="edge2_Node000002_Node000003" class="edge">
<title>Node2&#45;&gt;Node3</title>
<g id="a_edge2_Node000002_Node000003"><a xlink:title=" ">
<path fill="none" stroke="#63b8ff" d="M561.39,-34.43C545.86,-31.62 528.97,-29.04 513.25,-27.62 469.98,-23.74 458.94,-27.38 415.5,-27.62 399.83,-27.71 382.63,-27.88 367.49,-28.06"/>
<polygon fill="#63b8ff" stroke="#63b8ff" points="560.46,-37.82 570.93,-36.23 561.75,-30.94 560.46,-37.82"/>
</a>
</g>
</g>
<!-- Node5 -->
<g id="Node000005" class="node">
<title>Node5</title>
<g id="a_Node000005"><a xlink:href="../../dd/dbf/_euler___python___wrapper_8cpp_ac5ccb50c3be270f798e054dd36987442.html#ac5ccb50c3be270f798e054dd36987442" target="_top" xlink:title=" ">
<polygon fill="white" stroke="#666666" points="112.75,-84.25 0,-84.25 0,-65 112.75,-65 112.75,-84.25"/>
<text text-anchor="middle" x="56.38" y="-70.75" font-family="Helvetica,sans-Serif" font-size="10.00">PYBIND11_MODULE</text>
</a>
</g>
</g>
<!-- Node2&#45;&gt;Node5 -->
<g id="edge11_Node000002_Node000005" class="edge">
<title>Node2&#45;&gt;Node5</title>
<g id="a_edge11_Node000002_Node000005"><a xlink:title=" ">
<path fill="none" stroke="#63b8ff" d="M584.73,-60.89C564.43,-68.93 537.78,-78.38 513.25,-83.62 354.81,-117.5 309.93,-106.14 148.75,-89.62 136.76,-88.4 123.95,-86.6 111.83,-84.67"/>
<polygon fill="#63b8ff" stroke="#63b8ff" points="585.94,-64.17 593.89,-57.17 583.31,-57.69 585.94,-64.17"/>
</a>
</g>
</g>
<!-- Node7 -->
<g id="Node000007" class="node">
<title>Node7</title>
<g id="a_Node000007"><a xlink:href="../../de/df0/_solver_8cpp_a2f37f06e8324a1ed6aa99efdbba81865.html#a2f37f06e8324a1ed6aa99efdbba81865" target="_top" xlink:title=" ">
<polygon fill="white" stroke="#666666" points="233,-19.25 148.75,-19.25 148.75,0 233,0 233,-19.25"/>
<text text-anchor="middle" x="190.88" y="-5.75" font-family="Helvetica,sans-Serif" font-size="10.00">Viscous_Solver</text>
</a>
</g>
</g>
<!-- Node2&#45;&gt;Node7 -->
<g id="edge16_Node000002_Node000007" class="edge">
<title>Node2&#45;&gt;Node7</title>
<g id="a_edge16_Node000002_Node000007"><a xlink:title=" ">
<path fill="none" stroke="#63b8ff" d="M570.49,-33.73C552.65,-29.31 532.13,-24.71 513.25,-21.62 413.79,-5.4 294.82,-6.09 233.29,-7.91"/>
<polygon fill="#63b8ff" stroke="#63b8ff" points="569.48,-37.09 580.03,-36.15 571.2,-30.3 569.48,-37.09"/>
</a>
</g>
</g>
<!-- Node8 -->
<g id="Node000008" class="node">
<title>Node8</title>
<g id="a_Node000008"><a xlink:href="../../db/d38/_parallel___numerical___method_8cpp_a263f3c36336c227c44f052b2ad122253.html#a263f3c36336c227c44f052b2ad122253" target="_top" xlink:title=" ">
<polygon fill="white" stroke="#666666" points="513.25,-56.25 415.5,-56.25 415.5,-37 513.25,-37 513.25,-56.25"/>
<text text-anchor="middle" x="464.38" y="-42.75" font-family="Helvetica,sans-Serif" font-size="10.00">PrecomputeFluxes</text>
</a>
</g>
</g>
<!-- Node2&#45;&gt;Node8 -->
<g id="edge9_Node000002_Node000008" class="edge">
<title>Node2&#45;&gt;Node8</title>
<g id="a_edge9_Node000002_Node000008"><a xlink:title=" ">
<path fill="none" stroke="#63b8ff" d="M537.62,-46.62C529.35,-46.62 521.14,-46.62 513.39,-46.62"/>
<polygon fill="#63b8ff" stroke="#63b8ff" points="537.39,-50.13 547.39,-46.63 537.39,-43.13 537.39,-50.13"/>
</a>
</g>
</g>
<!-- Node9 -->
<g id="Node000009" class="node">
<title>Node9</title>
<g id="a_Node000009"><a xlink:href="../../de/d22/_cuda___parallel___r_k_8cpp_a794f030971fbb7c9dd4bc08df03f50f1.html#a794f030971fbb7c9dd4bc08df03f50f1" target="_top" xlink:title=" ">
<polygon fill="white" stroke="#666666" points="379.5,-85.25 269,-85.25 269,-66 379.5,-66 379.5,-85.25"/>
<text text-anchor="middle" x="324.25" y="-71.75" font-family="Helvetica,sans-Serif" font-size="10.00">Runge_Kutta_Method</text>
</a>
</g>
</g>
<!-- Node2&#45;&gt;Node9 -->
<g id="edge12_Node000002_Node000009" class="edge">
<title>Node2&#45;&gt;Node9</title>
<g id="a_edge12_Node000002_Node000009"><a xlink:title=" ">
<path fill="none" stroke="#63b8ff" d="M558.69,-58.74C543.9,-61.38 528.04,-63.9 513.25,-65.62 468.45,-70.85 417.32,-73.35 379.7,-74.54"/>
<polygon fill="#63b8ff" stroke="#63b8ff" points="559.07,-62.23 568.27,-56.98 557.8,-55.34 559.07,-62.23"/>
</a>
</g>
</g>
<!-- Node4 -->
<g id="Node000004" class="node">
<title>Node4</title>
<g id="a_Node000004"><a xlink:href="../../de/df0/_solver_8cpp_ad0f49408a26339b5f7043bf867c3fa8d.html#ad0f49408a26339b5f7043bf867c3fa8d" target="_top" xlink:title=" ">
<polygon fill="white" stroke="#666666" points="232.25,-56.25 149.5,-56.25 149.5,-37 232.25,-37 232.25,-56.25"/>
<text text-anchor="middle" x="190.88" y="-42.75" font-family="Helvetica,sans-Serif" font-size="10.00">Inviscid_Solver</text>
</a>
</g>
</g>
<!-- Node3&#45;&gt;Node4 -->
<g id="edge3_Node000003_Node000004" class="edge">
<title>Node3&#45;&gt;Node4</title>
<g id="a_edge3_Node000003_Node000004"><a xlink:title=" ">
<path fill="none" stroke="#63b8ff" d="M269.82,-35.95C257.45,-37.64 244.48,-39.42 232.74,-41.03"/>
<polygon fill="#63b8ff" stroke="#63b8ff" points="270.03,-39.45 279.46,-34.62 269.08,-32.51 270.03,-39.45"/>
</a>
</g>
</g>
<!-- Node3&#45;&gt;Node7 -->
<g id="edge6_Node000003_Node000007" class="edge">
<title>Node3&#45;&gt;Node7</title>
<g id="a_edge6_Node000003_Node000007"><a xlink:title=" ">
<path fill="none" stroke="#63b8ff" d="M269.93,-20.91C257.68,-19.14 244.84,-17.29 233.19,-15.6"/>
<polygon fill="#63b8ff" stroke="#63b8ff" points="269.06,-24.32 279.46,-22.29 270.06,-17.4 269.06,-24.32"/>
</a>
</g>
</g>
<!-- Node4&#45;&gt;Node5 -->
<g id="edge4_Node000004_Node000005" class="edge">
<title>Node4&#45;&gt;Node5</title>
<g id="a_edge4_Node000004_Node000005"><a xlink:title=" ">
<path fill="none" stroke="#63b8ff" d="M138.04,-57.58C127.25,-59.86 115.92,-62.25 105.28,-64.5"/>
<polygon fill="#63b8ff" stroke="#63b8ff" points="138.5,-61.06 147.56,-55.57 137.05,-54.21 138.5,-61.06"/>
</a>
</g>
</g>
<!-- Node6 -->
<g id="Node000006" class="node">
<title>Node6</title>
<g id="a_Node000006"><a xlink:href="../../d5/d12/_main_8cpp_a35d775933750ace299102f06a1712663.html#a35d775933750ace299102f06a1712663" target="_top" xlink:title="Executes the appropriate solver based on the simulation configuration.">
<polygon fill="white" stroke="#666666" points="85,-37.25 27.75,-37.25 27.75,-18 85,-18 85,-37.25"/>
<text text-anchor="middle" x="56.38" y="-23.75" font-family="Helvetica,sans-Serif" font-size="10.00">runSolver</text>
</a>
</g>
</g>
<!-- Node4&#45;&gt;Node6 -->
<g id="edge5_Node000004_Node000006" class="edge">
<title>Node4&#45;&gt;Node6</title>
<g id="a_edge5_Node000004_Node000006"><a xlink:title=" ">
<path fill="none" stroke="#63b8ff" d="M137.83,-39.16C119.9,-36.59 100.53,-33.81 85.28,-31.63"/>
<polygon fill="#63b8ff" stroke="#63b8ff" points="137.15,-42.6 147.54,-40.55 138.14,-35.67 137.15,-42.6"/>
</a>
</g>
</g>
<!-- Node7&#45;&gt;Node5 -->
<g id="edge7_Node000007_Node000005" class="edge">
<title>Node7&#45;&gt;Node5</title>
<g id="a_edge7_Node000007_Node000005"><a xlink:title=" ">
<path fill="none" stroke="#63b8ff" d="M155.79,-24.31C153.4,-25.41 151.03,-26.53 148.75,-27.62 132.45,-35.48 128.82,-38.32 112.75,-46.62 101.07,-52.66 87.95,-59.3 77.41,-64.6"/>
<polygon fill="#63b8ff" stroke="#63b8ff" points="157.18,-27.52 164.87,-20.23 154.32,-21.14 157.18,-27.52"/>
</a>
</g>
</g>
<!-- Node7&#45;&gt;Node6 -->
<g id="edge8_Node000007_Node000006" class="edge">
<title>Node7&#45;&gt;Node6</title>
<g id="a_edge8_Node000007_Node000006"><a xlink:title=" ">
<path fill="none" stroke="#63b8ff" d="M136.97,-16.81C119.33,-19.21 100.37,-21.78 85.38,-23.82"/>
<polygon fill="#63b8ff" stroke="#63b8ff" points="137.38,-20.29 146.81,-15.47 136.43,-13.35 137.38,-20.29"/>
</a>
</g>
</g>
<!-- Node8&#45;&gt;Node3 -->
<g id="edge10_Node000008_Node000003" class="edge">
<title>Node8&#45;&gt;Node3</title>
<g id="a_edge10_Node000008_Node000003"><a xlink:title=" ">
<path fill="none" stroke="#63b8ff" d="M403.92,-38.88C391.6,-37.27 378.87,-35.61 367.33,-34.11"/>
<polygon fill="#63b8ff" stroke="#63b8ff" points="403.2,-42.31 413.56,-40.13 404.1,-35.37 403.2,-42.31"/>
</a>
</g>
</g>
<!-- Node9&#45;&gt;Node4 -->
<g id="edge13_Node000009_Node000004" class="edge">
<title>Node9&#45;&gt;Node4</title>
<g id="a_edge13_Node000009_Node000004"><a xlink:title=" ">
<path fill="none" stroke="#63b8ff" d="M266.44,-63.08C255.03,-60.57 243.27,-57.97 232.54,-55.6"/>
<polygon fill="#63b8ff" stroke="#63b8ff" points="265.67,-66.5 276.19,-65.24 267.18,-59.66 265.67,-66.5"/>
</a>
</g>
</g>
<!-- Node9&#45;&gt;Node5 -->
<g id="edge14_Node000009_Node000005" class="edge">
<title>Node9&#45;&gt;Node5</title>
<g id="a_edge14_Node000009_Node000005"><a xlink:title=" ">
<path fill="none" stroke="#63b8ff" d="M257.54,-75.38C213.17,-75.21 155.24,-74.99 113.12,-74.83"/>
<polygon fill="#63b8ff" stroke="#63b8ff" points="257.28,-78.88 267.29,-75.41 257.3,-71.88 257.28,-78.88"/>
</a>
</g>
</g>
<!-- Node9&#45;&gt;Node7 -->
<g id="edge15_Node000009_Node000007" class="edge">
<title>Node9&#45;&gt;Node7</title>
<g id="a_edge15_Node000009_Node000007"><a xlink:title=" ">
<path fill="none" stroke="#63b8ff" d="M293.36,-60.4C285.41,-56.3 276.86,-51.84 269,-47.62 252.87,-38.98 249.4,-35.75 233,-27.62 227.55,-24.93 221.61,-22.2 215.97,-19.72"/>
<polygon fill="#63b8ff" stroke="#63b8ff" points="291.49,-63.38 301.99,-64.84 294.69,-57.16 291.49,-63.38"/>
</a>
</g>
</g>
</g>
</svg>
