<?xml version="1.0" encoding="UTF-8" standalone="no"?>
<!DOCTYPE svg PUBLIC "-//W3C//DTD SVG 1.1//EN"
 "http://www.w3.org/Graphics/SVG/1.1/DTD/svg11.dtd">
<!-- Generated by graphviz version 12.2.1 (20241206.2353)
 -->
<!-- Title: write_VTK Pages: 1 -->
<svg width="177pt" height="101pt"
 viewBox="0.00 0.00 176.50 101.25" xmlns="http://www.w3.org/2000/svg" xmlns:xlink="http://www.w3.org/1999/xlink">
<g id="graph0" class="graph" transform="scale(1 1) rotate(0) translate(4 97.25)">
<title>write_VTK</title>
<!-- Node1 -->
<g id="Node000001" class="node">
<title>Node1</title>
<g id="a_Node000001"><a xlink:title=" ">
<polygon fill="#999999" stroke="#666666" points="61.75,-56.25 0,-56.25 0,-37 61.75,-37 61.75,-56.25"/>
<text text-anchor="middle" x="30.88" y="-42.75" font-family="Helvetica,sans-Serif" font-size="10.00">write_VTK</text>
</a>
</g>
</g>
<!-- Node2 -->
<g id="Node000002" class="node">
<title>Node2</title>
<g id="a_Node000002"><a xlink:href="../../d0/d69/class_point_abbb39fe4de098ab24cd45d251656f080.html#abbb39fe4de098ab24cd45d251656f080" target="_top" xlink:title=" ">
<polygon fill="white" stroke="#666666" points="168.5,-93.25 97.75,-93.25 97.75,-74 168.5,-74 168.5,-93.25"/>
<text text-anchor="middle" x="133.12" y="-79.75" font-family="Helvetica,sans-Serif" font-size="10.00">Point::Get_x</text>
</a>
</g>
</g>
<!-- Node1&#45;&gt;Node2 -->
<g id="edge1_Node000001_Node000002" class="edge">
<title>Node1&#45;&gt;Node2</title>
<g id="a_edge1_Node000001_Node000002"><a xlink:title=" ">
<path fill="none" stroke="#63b8ff" d="M59.27,-56.74C69.99,-60.69 82.47,-65.3 94.04,-69.57"/>
<polygon fill="#63b8ff" stroke="#63b8ff" points="92.75,-72.82 103.34,-73 95.17,-66.26 92.75,-72.82"/>
</a>
</g>
</g>
<!-- Node3 -->
<g id="Node000003" class="node">
<title>Node3</title>
<g id="a_Node000003"><a xlink:href="../../d0/d69/class_point_aa0c14d8298c960cc61ebeb5fbe33653b.html#aa0c14d8298c960cc61ebeb5fbe33653b" target="_top" xlink:title=" ">
<polygon fill="white" stroke="#666666" points="168.5,-56.25 97.75,-56.25 97.75,-37 168.5,-37 168.5,-56.25"/>
<text text-anchor="middle" x="133.12" y="-42.75" font-family="Helvetica,sans-Serif" font-size="10.00">Point::Get_y</text>
</a>
</g>
</g>
<!-- Node1&#45;&gt;Node3 -->
<g id="edge2_Node000001_Node000003" class="edge">
<title>Node1&#45;&gt;Node3</title>
<g id="a_edge2_Node000001_Node000003"><a xlink:title=" ">
<path fill="none" stroke="#63b8ff" d="M62.23,-46.62C69.75,-46.62 77.97,-46.62 86.06,-46.62"/>
<polygon fill="#63b8ff" stroke="#63b8ff" points="85.8,-50.13 95.8,-46.63 85.8,-43.13 85.8,-50.13"/>
</a>
</g>
</g>
<!-- Node4 -->
<g id="Node000004" class="node">
<title>Node4</title>
<g id="a_Node000004"><a xlink:href="../../d0/d69/class_point_ac06dbc3b4797e5c498b58c81a70c02a9.html#ac06dbc3b4797e5c498b58c81a70c02a9" target="_top" xlink:title=" ">
<polygon fill="white" stroke="#666666" points="168.5,-19.25 97.75,-19.25 97.75,0 168.5,0 168.5,-19.25"/>
<text text-anchor="middle" x="133.12" y="-5.75" font-family="Helvetica,sans-Serif" font-size="10.00">Point::Get_z</text>
</a>
</g>
</g>
<!-- Node1&#45;&gt;Node4 -->
<g id="edge3_Node000001_Node000004" class="edge">
<title>Node1&#45;&gt;Node4</title>
<g id="a_edge3_Node000001_Node000004"><a xlink:title=" ">
<path fill="none" stroke="#63b8ff" d="M59.27,-36.51C69.99,-32.56 82.47,-27.95 94.04,-23.68"/>
<polygon fill="#63b8ff" stroke="#63b8ff" points="95.17,-26.99 103.34,-20.25 92.75,-20.43 95.17,-26.99"/>
</a>
</g>
</g>
</g>
</svg>
