<?xml version="1.0" encoding="UTF-8" standalone="no"?>
<!DOCTYPE svg PUBLIC "-//W3C//DTD SVG 1.1//EN"
 "http://www.w3.org/Graphics/SVG/1.1/DTD/svg11.dtd">
<!-- Generated by graphviz version 12.2.1 (20241206.2353)
 -->
<!-- Title: src/Mesh_Loader.cpp Pages: 1 -->
<svg width="1445pt" height="248pt"
 viewBox="0.00 0.00 1445.25 248.25" xmlns="http://www.w3.org/2000/svg" xmlns:xlink="http://www.w3.org/1999/xlink">
<g id="graph0" class="graph" transform="scale(1 1) rotate(0) translate(4 244.25)">
<title>src/Mesh_Loader.cpp</title>
<!-- Node1 -->
<g id="Node000001" class="node">
<title>Node1</title>
<g id="a_Node000001"><a xlink:title=" ">
<polygon fill="#999999" stroke="#666666" points="1306.12,-240.25 1197.12,-240.25 1197.12,-221 1306.12,-221 1306.12,-240.25"/>
<text text-anchor="middle" x="1251.62" y="-226.75" font-family="Helvetica,sans-Serif" font-size="10.00">src/Mesh_Loader.cpp</text>
</a>
</g>
</g>
<!-- Node2 -->
<g id="Node000002" class="node">
<title>Node2</title>
<g id="a_Node000002"><a xlink:href="../../d6/dc2/definitions_8h.html" target="_top" xlink:title="Header file containing global constants, structures, and function declarations for the solver.">
<polygon fill="white" stroke="#666666" points="877.88,-74.5 809.38,-74.5 809.38,-55.25 877.88,-55.25 877.88,-74.5"/>
<text text-anchor="middle" x="843.62" y="-61" font-family="Helvetica,sans-Serif" font-size="10.00">definitions.h</text>
</a>
</g>
</g>
<!-- Node1&#45;&gt;Node2 -->
<g id="edge1_Node000001_Node000002" class="edge">
<title>Node1&#45;&gt;Node2</title>
<g id="a_edge1_Node000001_Node000002"><a xlink:title=" ">
<path fill="none" stroke="#63b8ff" d="M1208.95,-220.57C1174.99,-212.79 1126.54,-200.4 1085.62,-185 1003.81,-154.2 912.63,-104.98 869.25,-80.57"/>
<polygon fill="#63b8ff" stroke="#63b8ff" points="871.03,-77.56 860.6,-75.68 867.58,-83.65 871.03,-77.56"/>
</a>
</g>
</g>
<!-- Node4 -->
<g id="Node000004" class="node">
<title>Node4</title>
<g id="a_Node000004"><a xlink:title=" ">
<polygon fill="#e0e0e0" stroke="#999999" points="1294.12,-19.25 1245.12,-19.25 1245.12,0 1294.12,0 1294.12,-19.25"/>
<text text-anchor="middle" x="1269.62" y="-5.75" font-family="Helvetica,sans-Serif" font-size="10.00">fstream</text>
</a>
</g>
</g>
<!-- Node1&#45;&gt;Node4 -->
<g id="edge29_Node000001_Node000004" class="edge">
<title>Node1&#45;&gt;Node4</title>
<g id="a_edge29_Node000001_Node000004"><a xlink:title=" ">
<path fill="none" stroke="#63b8ff" d="M1252.35,-220.77C1255,-188.51 1264.19,-76.76 1267.97,-30.71"/>
<polygon fill="#63b8ff" stroke="#63b8ff" points="1271.45,-31.11 1268.78,-20.86 1264.48,-30.54 1271.45,-31.11"/>
</a>
</g>
</g>
<!-- Node12 -->
<g id="Node000012" class="node">
<title>Node12</title>
<g id="a_Node000012"><a xlink:title=" ">
<polygon fill="#e0e0e0" stroke="#999999" points="1367.5,-19.25 1311.75,-19.25 1311.75,0 1367.5,0 1367.5,-19.25"/>
<text text-anchor="middle" x="1339.62" y="-5.75" font-family="Helvetica,sans-Serif" font-size="10.00">algorithm</text>
</a>
</g>
</g>
<!-- Node1&#45;&gt;Node12 -->
<g id="edge31_Node000001_Node000012" class="edge">
<title>Node1&#45;&gt;Node12</title>
<g id="a_edge31_Node000001_Node000012"><a xlink:title=" ">
<path fill="none" stroke="#63b8ff" d="M1255.63,-220.82C1259.63,-211.88 1265.86,-197.6 1270.62,-185 1292.1,-128.17 1288.64,-110.63 1313.62,-55.25 1317.63,-46.37 1322.92,-36.99 1327.68,-29.14"/>
<polygon fill="#63b8ff" stroke="#63b8ff" points="1330.53,-31.18 1332.87,-20.84 1324.6,-27.46 1330.53,-31.18"/>
</a>
</g>
</g>
<!-- Node18 -->
<g id="Node000018" class="node">
<title>Node18</title>
<g id="a_Node000018"><a xlink:title=" ">
<polygon fill="#e0e0e0" stroke="#999999" points="1437.25,-19.25 1386,-19.25 1386,0 1437.25,0 1437.25,-19.25"/>
<text text-anchor="middle" x="1411.62" y="-5.75" font-family="Helvetica,sans-Serif" font-size="10.00">sstream</text>
</a>
</g>
</g>
<!-- Node1&#45;&gt;Node18 -->
<g id="edge30_Node000001_Node000018" class="edge">
<title>Node1&#45;&gt;Node18</title>
<g id="a_edge30_Node000001_Node000018"><a xlink:title=" ">
<path fill="none" stroke="#63b8ff" d="M1259.24,-220.52C1266.64,-211.6 1278.13,-197.53 1287.62,-185 1329.96,-129.14 1377.24,-60.9 1399.19,-28.87"/>
<polygon fill="#63b8ff" stroke="#63b8ff" points="1402.01,-30.95 1404.76,-20.72 1396.23,-27 1402.01,-30.95"/>
</a>
</g>
</g>
<!-- Node24 -->
<g id="Node000024" class="node">
<title>Node24</title>
<g id="a_Node000024"><a xlink:href="../../d8/d4d/_globals_8h.html" target="_top" xlink:title=" ">
<polygon fill="white" stroke="#666666" points="1104.25,-129.75 1047,-129.75 1047,-110.5 1104.25,-110.5 1104.25,-129.75"/>
<text text-anchor="middle" x="1075.62" y="-116.25" font-family="Helvetica,sans-Serif" font-size="10.00">Globals.h</text>
</a>
</g>
</g>
<!-- Node1&#45;&gt;Node24 -->
<g id="edge23_Node000001_Node000024" class="edge">
<title>Node1&#45;&gt;Node24</title>
<g id="a_edge23_Node000001_Node000024"><a xlink:title=" ">
<path fill="none" stroke="#63b8ff" d="M1196.79,-224.68C1165.9,-219.32 1128.46,-208.16 1102.62,-185 1089.87,-173.56 1082.95,-155.1 1079.32,-140.96"/>
<polygon fill="#63b8ff" stroke="#63b8ff" points="1082.79,-140.43 1077.24,-131.41 1075.95,-141.93 1082.79,-140.43"/>
</a>
</g>
</g>
<!-- Node25 -->
<g id="Node000025" class="node">
<title>Node25</title>
<g id="a_Node000025"><a xlink:href="../../d8/dea/_grid_8h.html" target="_top" xlink:title=" ">
<polygon fill="white" stroke="#666666" points="1153.75,-185 1111.5,-185 1111.5,-165.75 1153.75,-165.75 1153.75,-185"/>
<text text-anchor="middle" x="1132.62" y="-171.5" font-family="Helvetica,sans-Serif" font-size="10.00">Grid.h</text>
</a>
</g>
</g>
<!-- Node1&#45;&gt;Node25 -->
<g id="edge25_Node000001_Node000025" class="edge">
<title>Node1&#45;&gt;Node25</title>
<g id="a_edge25_Node000001_Node000025"><a xlink:title=" ">
<path fill="none" stroke="#63b8ff" d="M1231.44,-220.59C1212.72,-212.22 1184.6,-199.63 1163.14,-190.03"/>
<polygon fill="#63b8ff" stroke="#63b8ff" points="1164.85,-186.96 1154.29,-186.07 1161.99,-193.35 1164.85,-186.96"/>
</a>
</g>
</g>
<!-- Node26 -->
<g id="Node000026" class="node">
<title>Node26</title>
<g id="a_Node000026"><a xlink:title=" ">
<polygon fill="#e0e0e0" stroke="#999999" points="1419.25,-185 1356,-185 1356,-165.75 1419.25,-165.75 1419.25,-185"/>
<text text-anchor="middle" x="1387.62" y="-171.5" font-family="Helvetica,sans-Serif" font-size="10.00">json/json.h</text>
</a>
</g>
</g>
<!-- Node1&#45;&gt;Node26 -->
<g id="edge28_Node000001_Node000026" class="edge">
<title>Node1&#45;&gt;Node26</title>
<g id="a_edge28_Node000001_Node000026"><a xlink:title=" ">
<path fill="none" stroke="#63b8ff" d="M1274.7,-220.59C1296.38,-212.1 1329.11,-199.29 1353.75,-189.64"/>
<polygon fill="#63b8ff" stroke="#63b8ff" points="1355,-192.91 1363.03,-186 1352.44,-186.39 1355,-192.91"/>
</a>
</g>
</g>
<!-- Node3 -->
<g id="Node000003" class="node">
<title>Node3</title>
<g id="a_Node000003"><a xlink:title=" ">
<polygon fill="#e0e0e0" stroke="#999999" points="787.38,-19.25 733.88,-19.25 733.88,0 787.38,0 787.38,-19.25"/>
<text text-anchor="middle" x="760.62" y="-5.75" font-family="Helvetica,sans-Serif" font-size="10.00">iostream</text>
</a>
</g>
</g>
<!-- Node2&#45;&gt;Node3 -->
<g id="edge2_Node000002_Node000003" class="edge">
<title>Node2&#45;&gt;Node3</title>
<g id="a_edge2_Node000002_Node000003"><a xlink:title=" ">
<path fill="none" stroke="#63b8ff" d="M829.55,-54.84C817.14,-46.89 798.83,-35.14 784.2,-25.75"/>
<polygon fill="#63b8ff" stroke="#63b8ff" points="786.35,-22.97 776.05,-20.52 782.57,-28.87 786.35,-22.97"/>
</a>
</g>
</g>
<!-- Node2&#45;&gt;Node4 -->
<g id="edge3_Node000002_Node000004" class="edge">
<title>Node2&#45;&gt;Node4</title>
<g id="a_edge3_Node000002_Node000004"><a xlink:title=" ">
<path fill="none" stroke="#63b8ff" d="M878.2,-61.52C944.98,-56.62 1096.48,-43.88 1233.71,-19.35"/>
<polygon fill="#63b8ff" stroke="#63b8ff" points="1234.13,-22.83 1243.34,-17.6 1232.87,-15.94 1234.13,-22.83"/>
</a>
</g>
</g>
<!-- Node5 -->
<g id="Node000005" class="node">
<title>Node5</title>
<g id="a_Node000005"><a xlink:title=" ">
<polygon fill="#e0e0e0" stroke="#999999" points="848.12,-19.25 805.12,-19.25 805.12,0 848.12,0 848.12,-19.25"/>
<text text-anchor="middle" x="826.62" y="-5.75" font-family="Helvetica,sans-Serif" font-size="10.00">vector</text>
</a>
</g>
</g>
<!-- Node2&#45;&gt;Node5 -->
<g id="edge4_Node000002_Node000005" class="edge">
<title>Node2&#45;&gt;Node5</title>
<g id="a_edge4_Node000002_Node000005"><a xlink:title=" ">
<path fill="none" stroke="#63b8ff" d="M840.82,-55.08C838.69,-48.42 835.68,-38.99 832.98,-30.53"/>
<polygon fill="#63b8ff" stroke="#63b8ff" points="836.33,-29.51 829.95,-21.05 829.66,-31.64 836.33,-29.51"/>
</a>
</g>
</g>
<!-- Node6 -->
<g id="Node000006" class="node">
<title>Node6</title>
<g id="a_Node000006"><a xlink:title=" ">
<polygon fill="#e0e0e0" stroke="#999999" points="906.62,-19.25 866.62,-19.25 866.62,0 906.62,0 906.62,-19.25"/>
<text text-anchor="middle" x="886.62" y="-5.75" font-family="Helvetica,sans-Serif" font-size="10.00">string</text>
</a>
</g>
</g>
<!-- Node2&#45;&gt;Node6 -->
<g id="edge5_Node000002_Node000006" class="edge">
<title>Node2&#45;&gt;Node6</title>
<g id="a_edge5_Node000002_Node000006"><a xlink:title=" ">
<path fill="none" stroke="#63b8ff" d="M850.73,-55.08C856.54,-47.88 864.96,-37.46 872.18,-28.51"/>
<polygon fill="#63b8ff" stroke="#63b8ff" points="874.86,-30.77 878.42,-20.79 869.41,-26.37 874.86,-30.77"/>
</a>
</g>
</g>
<!-- Node7 -->
<g id="Node000007" class="node">
<title>Node7</title>
<g id="a_Node000007"><a xlink:title=" ">
<polygon fill="#e0e0e0" stroke="#999999" points="968.12,-19.25 925.12,-19.25 925.12,0 968.12,0 968.12,-19.25"/>
<text text-anchor="middle" x="946.62" y="-5.75" font-family="Helvetica,sans-Serif" font-size="10.00">cmath</text>
</a>
</g>
</g>
<!-- Node2&#45;&gt;Node7 -->
<g id="edge6_Node000002_Node000007" class="edge">
<title>Node2&#45;&gt;Node7</title>
<g id="a_edge6_Node000002_Node000007"><a xlink:title=" ">
<path fill="none" stroke="#63b8ff" d="M861.1,-54.84C876.93,-46.66 900.53,-34.46 918.93,-24.94"/>
<polygon fill="#63b8ff" stroke="#63b8ff" points="920.45,-28.1 927.72,-20.4 917.23,-21.88 920.45,-28.1"/>
</a>
</g>
</g>
<!-- Node8 -->
<g id="Node000008" class="node">
<title>Node8</title>
<g id="a_Node000008"><a xlink:title=" ">
<polygon fill="#e0e0e0" stroke="#999999" points="1036.88,-19.25 986.38,-19.25 986.38,0 1036.88,0 1036.88,-19.25"/>
<text text-anchor="middle" x="1011.62" y="-5.75" font-family="Helvetica,sans-Serif" font-size="10.00">typeinfo</text>
</a>
</g>
</g>
<!-- Node2&#45;&gt;Node8 -->
<g id="edge7_Node000002_Node000008" class="edge">
<title>Node2&#45;&gt;Node8</title>
<g id="a_edge7_Node000002_Node000008"><a xlink:title=" ">
<path fill="none" stroke="#63b8ff" d="M872.12,-54.84C900.56,-45.83 944.34,-31.95 975.26,-22.15"/>
<polygon fill="#63b8ff" stroke="#63b8ff" points="976.1,-25.56 984.58,-19.2 973.99,-18.88 976.1,-25.56"/>
</a>
</g>
</g>
<!-- Node9 -->
<g id="Node000009" class="node">
<title>Node9</title>
<g id="a_Node000009"><a xlink:title=" ">
<polygon fill="#e0e0e0" stroke="#999999" points="1104.5,-19.25 1054.75,-19.25 1054.75,0 1104.5,0 1104.5,-19.25"/>
<text text-anchor="middle" x="1079.62" y="-5.75" font-family="Helvetica,sans-Serif" font-size="10.00">iomanip</text>
</a>
</g>
</g>
<!-- Node2&#45;&gt;Node9 -->
<g id="edge8_Node000002_Node000009" class="edge">
<title>Node2&#45;&gt;Node9</title>
<g id="a_edge8_Node000002_Node000009"><a xlink:title=" ">
<path fill="none" stroke="#63b8ff" d="M878.37,-56.54C916.47,-48.42 979.69,-34.74 1043.35,-19.73"/>
<polygon fill="#63b8ff" stroke="#63b8ff" points="1044,-23.18 1052.92,-17.47 1042.39,-16.37 1044,-23.18"/>
</a>
</g>
</g>
<!-- Node10 -->
<g id="Node000010" class="node">
<title>Node10</title>
<g id="a_Node000010"><a xlink:title=" ">
<polygon fill="#e0e0e0" stroke="#999999" points="1164.75,-19.25 1122.5,-19.25 1122.5,0 1164.75,0 1164.75,-19.25"/>
<text text-anchor="middle" x="1143.62" y="-5.75" font-family="Helvetica,sans-Serif" font-size="10.00">cstdio</text>
</a>
</g>
</g>
<!-- Node2&#45;&gt;Node10 -->
<g id="edge9_Node000002_Node000010" class="edge">
<title>Node2&#45;&gt;Node10</title>
<g id="a_edge9_Node000002_Node000010"><a xlink:title=" ">
<path fill="none" stroke="#63b8ff" d="M877.97,-59.5C927.44,-52.92 1021.79,-39.32 1110.95,-19.64"/>
<polygon fill="#63b8ff" stroke="#63b8ff" points="1111.6,-23.08 1120.6,-17.48 1110.07,-16.25 1111.6,-23.08"/>
</a>
</g>
</g>
<!-- Node11 -->
<g id="Node000011" class="node">
<title>Node11</title>
<g id="a_Node000011"><a xlink:title=" ">
<polygon fill="#e0e0e0" stroke="#999999" points="1226.88,-19.25 1182.38,-19.25 1182.38,0 1226.88,0 1226.88,-19.25"/>
<text text-anchor="middle" x="1204.62" y="-5.75" font-family="Helvetica,sans-Serif" font-size="10.00">cstdlib</text>
</a>
</g>
</g>
<!-- Node2&#45;&gt;Node11 -->
<g id="edge10_Node000002_Node000011" class="edge">
<title>Node2&#45;&gt;Node11</title>
<g id="a_edge10_Node000002_Node000011"><a xlink:title=" ">
<path fill="none" stroke="#63b8ff" d="M878.09,-60.78C936.47,-55.21 1058.67,-42.09 1170.85,-19.58"/>
<polygon fill="#63b8ff" stroke="#63b8ff" points="1171.44,-23.03 1180.54,-17.6 1170.04,-16.17 1171.44,-23.03"/>
</a>
</g>
</g>
<!-- Node2&#45;&gt;Node12 -->
<g id="edge11_Node000002_Node000012" class="edge">
<title>Node2&#45;&gt;Node12</title>
<g id="a_edge11_Node000002_Node000012"><a xlink:title=" ">
<path fill="none" stroke="#63b8ff" d="M878.17,-62.16C953.33,-58.08 1137.43,-46.21 1300.22,-19.63"/>
<polygon fill="#63b8ff" stroke="#63b8ff" points="1300.62,-23.11 1309.91,-18.02 1299.47,-16.21 1300.62,-23.11"/>
</a>
</g>
</g>
<!-- Node13 -->
<g id="Node000013" class="node">
<title>Node13</title>
<g id="a_Node000013"><a xlink:title=" ">
<polygon fill="#e0e0e0" stroke="#999999" points="45.25,-19.25 0,-19.25 0,0 45.25,0 45.25,-19.25"/>
<text text-anchor="middle" x="22.62" y="-5.75" font-family="Helvetica,sans-Serif" font-size="10.00">chrono</text>
</a>
</g>
</g>
<!-- Node2&#45;&gt;Node13 -->
<g id="edge12_Node000002_Node000013" class="edge">
<title>Node2&#45;&gt;Node13</title>
<g id="a_edge12_Node000002_Node000013"><a xlink:title=" ">
<path fill="none" stroke="#63b8ff" d="M809.13,-64.45C699.93,-65.76 352.1,-65.83 56.51,-19.17"/>
<polygon fill="#63b8ff" stroke="#63b8ff" points="57.5,-15.78 47.07,-17.66 56.39,-22.7 57.5,-15.78"/>
</a>
</g>
</g>
<!-- Node14 -->
<g id="Node000014" class="node">
<title>Node14</title>
<g id="a_Node000014"><a xlink:title=" ">
<polygon fill="#e0e0e0" stroke="#999999" points="103.62,-19.25 63.62,-19.25 63.62,0 103.62,0 103.62,-19.25"/>
<text text-anchor="middle" x="83.62" y="-5.75" font-family="Helvetica,sans-Serif" font-size="10.00">cfloat</text>
</a>
</g>
</g>
<!-- Node2&#45;&gt;Node14 -->
<g id="edge13_Node000002_Node000014" class="edge">
<title>Node2&#45;&gt;Node14</title>
<g id="a_edge13_Node000002_Node000014"><a xlink:title=" ">
<path fill="none" stroke="#63b8ff" d="M809.11,-62.81C686.3,-58.87 270.11,-44.13 115.21,-19.23"/>
<polygon fill="#63b8ff" stroke="#63b8ff" points="116.02,-15.81 105.57,-17.59 114.85,-22.71 116.02,-15.81"/>
</a>
</g>
</g>
<!-- Node15 -->
<g id="Node000015" class="node">
<title>Node15</title>
<g id="a_Node000015"><a xlink:title=" ">
<polygon fill="#e0e0e0" stroke="#999999" points="183.12,-19.25 122.12,-19.25 122.12,0 183.12,0 183.12,-19.25"/>
<text text-anchor="middle" x="152.62" y="-5.75" font-family="Helvetica,sans-Serif" font-size="10.00">filesystem</text>
</a>
</g>
</g>
<!-- Node2&#45;&gt;Node15 -->
<g id="edge14_Node000002_Node000015" class="edge">
<title>Node2&#45;&gt;Node15</title>
<g id="a_edge14_Node000002_Node000015"><a xlink:title=" ">
<path fill="none" stroke="#63b8ff" d="M809.21,-63.26C713.4,-61.17 435.37,-52.61 194.63,-19.31"/>
<polygon fill="#63b8ff" stroke="#63b8ff" points="195.44,-15.89 185.05,-17.96 194.47,-22.82 195.44,-15.89"/>
</a>
</g>
</g>
<!-- Node16 -->
<g id="Node000016" class="node">
<title>Node16</title>
<g id="a_Node000016"><a xlink:title=" ">
<polygon fill="#e0e0e0" stroke="#999999" points="236,-19.25 201.25,-19.25 201.25,0 236,0 236,-19.25"/>
<text text-anchor="middle" x="218.62" y="-5.75" font-family="Helvetica,sans-Serif" font-size="10.00">map</text>
</a>
</g>
</g>
<!-- Node2&#45;&gt;Node16 -->
<g id="edge15_Node000002_Node000016" class="edge">
<title>Node2&#45;&gt;Node16</title>
<g id="a_edge15_Node000002_Node000016"><a xlink:title=" ">
<path fill="none" stroke="#63b8ff" d="M809.2,-64.11C718.5,-64.15 465.51,-60.42 247.49,-19.1"/>
<polygon fill="#63b8ff" stroke="#63b8ff" points="248.45,-15.72 237.97,-17.26 247.12,-22.59 248.45,-15.72"/>
</a>
</g>
</g>
<!-- Node17 -->
<g id="Node000017" class="node">
<title>Node17</title>
<g id="a_Node000017"><a xlink:title=" ">
<polygon fill="#e0e0e0" stroke="#999999" points="313,-19.25 254.25,-19.25 254.25,0 313,0 313,-19.25"/>
<text text-anchor="middle" x="283.62" y="-5.75" font-family="Helvetica,sans-Serif" font-size="10.00">stdexcept</text>
</a>
</g>
</g>
<!-- Node2&#45;&gt;Node17 -->
<g id="edge16_Node000002_Node000017" class="edge">
<title>Node2&#45;&gt;Node17</title>
<g id="a_edge16_Node000002_Node000017"><a xlink:title=" ">
<path fill="none" stroke="#63b8ff" d="M808.99,-62.49C726.76,-58.87 513.14,-47.49 324.6,-19.33"/>
<polygon fill="#63b8ff" stroke="#63b8ff" points="325.27,-15.89 314.86,-17.85 324.22,-22.81 325.27,-15.89"/>
</a>
</g>
</g>
<!-- Node2&#45;&gt;Node18 -->
<g id="edge17_Node000002_Node000018" class="edge">
<title>Node2&#45;&gt;Node18</title>
<g id="a_edge17_Node000002_Node000018"><a xlink:title=" ">
<path fill="none" stroke="#63b8ff" d="M878.15,-62.87C961.72,-60.05 1181.56,-50.22 1374.52,-19.31"/>
<polygon fill="#63b8ff" stroke="#63b8ff" points="1374.92,-22.8 1384.23,-17.73 1373.8,-15.89 1374.92,-22.8"/>
</a>
</g>
</g>
<!-- Node19 -->
<g id="Node000019" class="node">
<title>Node19</title>
<g id="a_Node000019"><a xlink:title=" ">
<polygon fill="#e0e0e0" stroke="#999999" points="414,-19.25 331.25,-19.25 331.25,0 414,0 414,-19.25"/>
<text text-anchor="middle" x="372.62" y="-5.75" font-family="Helvetica,sans-Serif" font-size="10.00">unordered_map</text>
</a>
</g>
</g>
<!-- Node2&#45;&gt;Node19 -->
<g id="edge18_Node000002_Node000019" class="edge">
<title>Node2&#45;&gt;Node19</title>
<g id="a_edge18_Node000002_Node000019"><a xlink:title=" ">
<path fill="none" stroke="#63b8ff" d="M808.88,-60.96C738.49,-54.9 573.79,-39.88 425.44,-19.56"/>
<polygon fill="#63b8ff" stroke="#63b8ff" points="426.22,-16.14 415.83,-18.24 425.26,-23.07 426.22,-16.14"/>
</a>
</g>
</g>
<!-- Node20 -->
<g id="Node000020" class="node">
<title>Node20</title>
<g id="a_Node000020"><a xlink:title=" ">
<polygon fill="#e0e0e0" stroke="#999999" points="509.38,-19.25 431.88,-19.25 431.88,0 509.38,0 509.38,-19.25"/>
<text text-anchor="middle" x="470.62" y="-5.75" font-family="Helvetica,sans-Serif" font-size="10.00">unordered_set</text>
</a>
</g>
</g>
<!-- Node2&#45;&gt;Node20 -->
<g id="edge19_Node000002_Node000020" class="edge">
<title>Node2&#45;&gt;Node20</title>
<g id="a_edge19_Node000002_Node000020"><a xlink:title=" ">
<path fill="none" stroke="#63b8ff" d="M809.29,-59.7C751.69,-52.57 631.73,-37.26 520.88,-19.72"/>
<polygon fill="#63b8ff" stroke="#63b8ff" points="521.76,-16.31 511.33,-18.2 520.66,-23.23 521.76,-16.31"/>
</a>
</g>
</g>
<!-- Node21 -->
<g id="Node000021" class="node">
<title>Node21</title>
<g id="a_Node000021"><a xlink:title=" ">
<polygon fill="#e0e0e0" stroke="#999999" points="564.12,-19.25 527.12,-19.25 527.12,0 564.12,0 564.12,-19.25"/>
<text text-anchor="middle" x="545.62" y="-5.75" font-family="Helvetica,sans-Serif" font-size="10.00">tuple</text>
</a>
</g>
</g>
<!-- Node2&#45;&gt;Node21 -->
<g id="edge20_Node000002_Node000021" class="edge">
<title>Node2&#45;&gt;Node21</title>
<g id="a_edge20_Node000002_Node000021"><a xlink:title=" ">
<path fill="none" stroke="#63b8ff" d="M809.08,-59.83C759.34,-53.65 664.52,-40.55 575.51,-19.67"/>
<polygon fill="#63b8ff" stroke="#63b8ff" points="576.42,-16.28 565.88,-17.36 574.79,-23.09 576.42,-16.28"/>
</a>
</g>
</g>
<!-- Node22 -->
<g id="Node000022" class="node">
<title>Node22</title>
<g id="a_Node000022"><a xlink:title=" ">
<polygon fill="#e0e0e0" stroke="#999999" points="611.38,-19.25 581.88,-19.25 581.88,0 611.38,0 611.38,-19.25"/>
<text text-anchor="middle" x="596.62" y="-5.75" font-family="Helvetica,sans-Serif" font-size="10.00">set</text>
</a>
</g>
</g>
<!-- Node2&#45;&gt;Node22 -->
<g id="edge21_Node000002_Node000022" class="edge">
<title>Node2&#45;&gt;Node22</title>
<g id="a_edge21_Node000002_Node000022"><a xlink:title=" ">
<path fill="none" stroke="#63b8ff" d="M809.25,-58.62C767.29,-51.84 694.04,-38.9 622.72,-19.48"/>
<polygon fill="#63b8ff" stroke="#63b8ff" points="623.78,-16.15 613.21,-16.85 621.91,-22.89 623.78,-16.15"/>
</a>
</g>
</g>
<!-- Node23 -->
<g id="Node000023" class="node">
<title>Node23</title>
<g id="a_Node000023"><a xlink:title=" ">
<polygon fill="#e0e0e0" stroke="#999999" points="715.5,-19.25 629.75,-19.25 629.75,0 715.5,0 715.5,-19.25"/>
<text text-anchor="middle" x="672.62" y="-5.75" font-family="Helvetica,sans-Serif" font-size="10.00">boost/regex.hpp</text>
</a>
</g>
</g>
<!-- Node2&#45;&gt;Node23 -->
<g id="edge22_Node000002_Node000023" class="edge">
<title>Node2&#45;&gt;Node23</title>
<g id="a_edge22_Node000002_Node000023"><a xlink:title=" ">
<path fill="none" stroke="#63b8ff" d="M814.62,-54.84C786.61,-46.12 743.97,-32.84 712.72,-23.11"/>
<polygon fill="#63b8ff" stroke="#63b8ff" points="713.81,-19.78 703.22,-20.15 711.73,-26.47 713.81,-19.78"/>
</a>
</g>
</g>
<!-- Node24&#45;&gt;Node2 -->
<g id="edge24_Node000024_Node000002" class="edge">
<title>Node24&#45;&gt;Node2</title>
<g id="a_edge24_Node000024_Node000002"><a xlink:title=" ">
<path fill="none" stroke="#63b8ff" d="M1046.71,-112.49C1007.21,-103.42 935.96,-87.07 889.23,-76.34"/>
<polygon fill="#63b8ff" stroke="#63b8ff" points="890.21,-72.98 879.68,-74.15 888.64,-79.8 890.21,-72.98"/>
</a>
</g>
</g>
<!-- Node25&#45;&gt;Node2 -->
<g id="edge26_Node000025_Node000002" class="edge">
<title>Node25&#45;&gt;Node2</title>
<g id="a_edge26_Node000025_Node000002"><a xlink:title=" ">
<path fill="none" stroke="#63b8ff" d="M1132.75,-165.4C1132.42,-151.42 1129.59,-124.58 1113.62,-110.5 1081.08,-81.8 957.49,-71.33 889.37,-67.7"/>
<polygon fill="#63b8ff" stroke="#63b8ff" points="889.81,-64.21 879.64,-67.21 889.46,-71.2 889.81,-64.21"/>
</a>
</g>
</g>
<!-- Node25&#45;&gt;Node24 -->
<g id="edge27_Node000025_Node000024" class="edge">
<title>Node25&#45;&gt;Node24</title>
<g id="a_edge27_Node000025_Node000024"><a xlink:title=" ">
<path fill="none" stroke="#63b8ff" d="M1122.96,-165.34C1114.88,-157.8 1103.16,-146.85 1093.4,-137.73"/>
<polygon fill="#63b8ff" stroke="#63b8ff" points="1095.95,-135.33 1086.26,-131.06 1091.18,-140.44 1095.95,-135.33"/>
</a>
</g>
</g>
</g>
</svg>
