<?xml version="1.0" encoding="UTF-8" standalone="no"?>
<!DOCTYPE svg PUBLIC "-//W3C//DTD SVG 1.1//EN"
 "http://www.w3.org/Graphics/SVG/1.1/DTD/svg11.dtd">
<!-- Generated by graphviz version 12.2.1 (20241206.2353)
 -->
<!-- Title: Incompressible_Solver/Incompressible_Solver.h Pages: 1 -->
<svg width="610pt" height="105pt"
 viewBox="0.00 0.00 609.50 105.00" xmlns="http://www.w3.org/2000/svg" xmlns:xlink="http://www.w3.org/1999/xlink">
<g id="graph0" class="graph" transform="scale(1 1) rotate(0) translate(4 101)">
<title>Incompressible_Solver/Incompressible_Solver.h</title>
<!-- Node1 -->
<g id="Node000001" class="node">
<title>Node1</title>
<g id="a_Node000001"><a xlink:title="Header file for cell&#45;centered staggered grid based incompressible solver using finite volume method.">
<polygon fill="#999999" stroke="#666666" points="356.75,-97 231.25,-97 231.25,-66.5 356.75,-66.5 356.75,-97"/>
<text text-anchor="start" x="239.25" y="-83.5" font-family="Helvetica,sans-Serif" font-size="10.00">Incompressible_Solver</text>
<text text-anchor="middle" x="294" y="-72.25" font-family="Helvetica,sans-Serif" font-size="10.00">/Incompressible_Solver.h</text>
</a>
</g>
</g>
<!-- Node2 -->
<g id="Node000002" class="node">
<title>Node2</title>
<g id="a_Node000002"><a xlink:href="../../d3/d1b/_incompressible___main_8cpp.html" target="_top" xlink:title="Main driver program for the incompressible flow solver.">
<polygon fill="white" stroke="#666666" points="130,-30.5 0,-30.5 0,0 130,0 130,-30.5"/>
<text text-anchor="start" x="8" y="-17" font-family="Helvetica,sans-Serif" font-size="10.00">Incompressible_Solver</text>
<text text-anchor="middle" x="65" y="-5.75" font-family="Helvetica,sans-Serif" font-size="10.00">/Incompressible_Main.cpp</text>
</a>
</g>
</g>
<!-- Node1&#45;&gt;Node2 -->
<g id="edge1_Node000001_Node000002" class="edge">
<title>Node1&#45;&gt;Node2</title>
<g id="a_edge1_Node000001_Node000002"><a xlink:title=" ">
<path fill="none" stroke="#63b8ff" d="M230.93,-62.99C195.12,-52.9 150.83,-40.43 117.03,-30.9"/>
<polygon fill="#63b8ff" stroke="#63b8ff" points="229.72,-66.28 240.29,-65.62 231.62,-59.54 229.72,-66.28"/>
</a>
</g>
</g>
<!-- Node3 -->
<g id="Node000003" class="node">
<title>Node3</title>
<g id="a_Node000003"><a xlink:href="../../d7/d97/_incompressible___solver_8cpp.html" target="_top" xlink:title=" ">
<polygon fill="white" stroke="#666666" points="284,-30.5 148,-30.5 148,0 284,0 284,-30.5"/>
<text text-anchor="start" x="156" y="-17" font-family="Helvetica,sans-Serif" font-size="10.00">Incompressible_Solver</text>
<text text-anchor="middle" x="216" y="-5.75" font-family="Helvetica,sans-Serif" font-size="10.00">/Incompressible_Solver.cpp</text>
</a>
</g>
</g>
<!-- Node1&#45;&gt;Node3 -->
<g id="edge2_Node000001_Node000003" class="edge">
<title>Node1&#45;&gt;Node3</title>
<g id="a_edge2_Node000001_Node000003"><a xlink:title=" ">
<path fill="none" stroke="#63b8ff" d="M267.72,-59.02C256.49,-49.73 243.69,-39.15 233.63,-30.83"/>
<polygon fill="#63b8ff" stroke="#63b8ff" points="265.2,-61.47 275.13,-65.15 269.66,-56.08 265.2,-61.47"/>
</a>
</g>
</g>
<!-- Node4 -->
<g id="Node000004" class="node">
<title>Node4</title>
<g id="a_Node000004"><a xlink:href="../../d8/d7b/_incompressible___utilities_8cpp.html" target="_top" xlink:title=" ">
<polygon fill="white" stroke="#666666" points="444,-30.5 302,-30.5 302,0 444,0 444,-30.5"/>
<text text-anchor="start" x="310" y="-17" font-family="Helvetica,sans-Serif" font-size="10.00">Incompressible_Solver</text>
<text text-anchor="middle" x="373" y="-5.75" font-family="Helvetica,sans-Serif" font-size="10.00">/Incompressible_Utilities.cpp</text>
</a>
</g>
</g>
<!-- Node1&#45;&gt;Node4 -->
<g id="edge3_Node000001_Node000004" class="edge">
<title>Node1&#45;&gt;Node4</title>
<g id="a_edge3_Node000001_Node000004"><a xlink:title=" ">
<path fill="none" stroke="#63b8ff" d="M320.62,-59.02C331.99,-49.73 344.96,-39.15 355.14,-30.83"/>
<polygon fill="#63b8ff" stroke="#63b8ff" points="318.63,-56.12 313.1,-65.16 323.06,-61.54 318.63,-56.12"/>
</a>
</g>
</g>
<!-- Node5 -->
<g id="Node000005" class="node">
<title>Node5</title>
<g id="a_Node000005"><a xlink:href="../../d6/da8/incompressible__globals_8cpp.html" target="_top" xlink:title=" ">
<polygon fill="white" stroke="#666666" points="601.5,-30.5 462.5,-30.5 462.5,0 601.5,0 601.5,-30.5"/>
<text text-anchor="start" x="470.5" y="-17" font-family="Helvetica,sans-Serif" font-size="10.00">Incompressible_Solver</text>
<text text-anchor="middle" x="532" y="-5.75" font-family="Helvetica,sans-Serif" font-size="10.00">/incompressible_globals.cpp</text>
</a>
</g>
</g>
<!-- Node1&#45;&gt;Node5 -->
<g id="edge4_Node000001_Node000005" class="edge">
<title>Node1&#45;&gt;Node5</title>
<g id="a_edge4_Node000001_Node000005"><a xlink:title=" ">
<path fill="none" stroke="#63b8ff" d="M359.07,-63.12C396.37,-53.01 442.64,-40.47 477.93,-30.9"/>
<polygon fill="#63b8ff" stroke="#63b8ff" points="358.5,-59.64 349.76,-65.64 360.33,-66.4 358.5,-59.64"/>
</a>
</g>
</g>
</g>
</svg>
