<?xml version="1.0" encoding="UTF-8" standalone="no"?>
<!DOCTYPE svg PUBLIC "-//W3C//DTD SVG 1.1//EN"
 "http://www.w3.org/Graphics/SVG/1.1/DTD/svg11.dtd">
<!-- Generated by graphviz version 12.2.1 (20241206.2353)
 -->
<!-- Title: src/Main_CUDA.cu Pages: 1 -->
<svg width="1443pt" height="248pt"
 viewBox="0.00 0.00 1443.25 248.25" xmlns="http://www.w3.org/2000/svg" xmlns:xlink="http://www.w3.org/1999/xlink">
<g id="graph0" class="graph" transform="scale(1 1) rotate(0) translate(4 244.25)">
<title>src/Main_CUDA.cu</title>
<!-- Node1 -->
<g id="Node000001" class="node">
<title>Node1</title>
<g id="a_Node000001"><a xlink:title=" ">
<polygon fill="#999999" stroke="#666666" points="926.5,-240.25 825,-240.25 825,-221 926.5,-221 926.5,-240.25"/>
<text text-anchor="middle" x="875.75" y="-226.75" font-family="Helvetica,sans-Serif" font-size="10.00">src/Main_CUDA.cu</text>
</a>
</g>
</g>
<!-- Node2 -->
<g id="Node000002" class="node">
<title>Node2</title>
<g id="a_Node000002"><a xlink:title=" ">
<polygon fill="#e0e0e0" stroke="#999999" points="638.12,-74.5 555.38,-74.5 555.38,-55.25 638.12,-55.25 638.12,-74.5"/>
<text text-anchor="middle" x="596.75" y="-61" font-family="Helvetica,sans-Serif" font-size="10.00">cuda_runtime.h</text>
</a>
</g>
</g>
<!-- Node1&#45;&gt;Node2 -->
<g id="edge1_Node000001_Node000002" class="edge">
<title>Node1&#45;&gt;Node2</title>
<g id="a_edge1_Node000001_Node000002"><a xlink:title=" ">
<path fill="none" stroke="#63b8ff" d="M824.52,-228.3C755.07,-225.34 636.37,-215.79 607.75,-185 582.96,-158.33 586.96,-112.32 591.95,-85.97"/>
<polygon fill="#63b8ff" stroke="#63b8ff" points="595.36,-86.77 594.04,-76.26 588.51,-85.3 595.36,-86.77"/>
</a>
</g>
</g>
<!-- Node3 -->
<g id="Node000003" class="node">
<title>Node3</title>
<g id="a_Node000003"><a xlink:title=" ">
<polygon fill="#e0e0e0" stroke="#999999" points="53.5,-19.25 0,-19.25 0,0 53.5,0 53.5,-19.25"/>
<text text-anchor="middle" x="26.75" y="-5.75" font-family="Helvetica,sans-Serif" font-size="10.00">iostream</text>
</a>
</g>
</g>
<!-- Node1&#45;&gt;Node3 -->
<g id="edge2_Node000001_Node000003" class="edge">
<title>Node1&#45;&gt;Node3</title>
<g id="a_edge2_Node000001_Node000003"><a xlink:title=" ">
<path fill="none" stroke="#63b8ff" d="M860.56,-220.64C846.9,-212.23 826.6,-198.9 810.75,-185 777.27,-155.64 778.43,-138.43 743.75,-110.5 705.11,-79.38 694.3,-69.42 646.75,-55.25 400.64,18.09 321.5,-56.4 64.95,-19.46"/>
<polygon fill="#63b8ff" stroke="#63b8ff" points="65.69,-16.03 55.28,-18.02 64.66,-22.95 65.69,-16.03"/>
</a>
</g>
</g>
<!-- Node4 -->
<g id="Node000004" class="node">
<title>Node4</title>
<g id="a_Node000004"><a xlink:title=" ">
<polygon fill="#e0e0e0" stroke="#999999" points="1297.25,-19.25 1254.25,-19.25 1254.25,0 1297.25,0 1297.25,-19.25"/>
<text text-anchor="middle" x="1275.75" y="-5.75" font-family="Helvetica,sans-Serif" font-size="10.00">vector</text>
</a>
</g>
</g>
<!-- Node1&#45;&gt;Node4 -->
<g id="edge3_Node000001_Node000004" class="edge">
<title>Node1&#45;&gt;Node4</title>
<g id="a_edge3_Node000001_Node000004"><a xlink:title=" ">
<path fill="none" stroke="#63b8ff" d="M902.58,-220.62C926.04,-212.39 960.81,-199.35 989.75,-185 1092.41,-134.1 1206.47,-58.25 1253.56,-26.01"/>
<polygon fill="#63b8ff" stroke="#63b8ff" points="1255.31,-29.06 1261.57,-20.5 1251.35,-23.29 1255.31,-29.06"/>
</a>
</g>
</g>
<!-- Node5 -->
<g id="Node000005" class="node">
<title>Node5</title>
<g id="a_Node000005"><a xlink:title=" ">
<polygon fill="#e0e0e0" stroke="#999999" points="1374.12,-19.25 1315.38,-19.25 1315.38,0 1374.12,0 1374.12,-19.25"/>
<text text-anchor="middle" x="1344.75" y="-5.75" font-family="Helvetica,sans-Serif" font-size="10.00">stdexcept</text>
</a>
</g>
</g>
<!-- Node1&#45;&gt;Node5 -->
<g id="edge4_Node000001_Node000005" class="edge">
<title>Node1&#45;&gt;Node5</title>
<g id="a_edge4_Node000001_Node000005"><a xlink:title=" ">
<path fill="none" stroke="#63b8ff" d="M912.45,-220.58C942.41,-212.68 985.56,-200.12 1021.75,-185 1138.37,-136.27 1268.16,-58.38 1320.72,-25.76"/>
<polygon fill="#63b8ff" stroke="#63b8ff" points="1322.54,-28.76 1329.17,-20.49 1318.83,-22.82 1322.54,-28.76"/>
</a>
</g>
</g>
<!-- Node6 -->
<g id="Node000006" class="node">
<title>Node6</title>
<g id="a_Node000006"><a xlink:title=" ">
<polygon fill="#e0e0e0" stroke="#999999" points="1435.25,-19.25 1392.25,-19.25 1392.25,0 1435.25,0 1435.25,-19.25"/>
<text text-anchor="middle" x="1413.75" y="-5.75" font-family="Helvetica,sans-Serif" font-size="10.00">cmath</text>
</a>
</g>
</g>
<!-- Node1&#45;&gt;Node6 -->
<g id="edge5_Node000001_Node000006" class="edge">
<title>Node1&#45;&gt;Node6</title>
<g id="a_edge5_Node000001_Node000006"><a xlink:title=" ">
<path fill="none" stroke="#63b8ff" d="M923.52,-220.53C960.25,-212.88 1011.95,-200.68 1055.75,-185 1185.96,-138.39 1331.28,-58.14 1388.58,-25.29"/>
<polygon fill="#63b8ff" stroke="#63b8ff" points="1390.01,-28.51 1396.92,-20.49 1386.51,-22.45 1390.01,-28.51"/>
</a>
</g>
</g>
<!-- Node7 -->
<g id="Node000007" class="node">
<title>Node7</title>
<g id="a_Node000007"><a xlink:href="../../d6/dc2/definitions_8h.html" target="_top" xlink:title="Header file containing global constants, structures, and function declarations for the solver.">
<polygon fill="white" stroke="#666666" points="859,-74.5 790.5,-74.5 790.5,-55.25 859,-55.25 859,-74.5"/>
<text text-anchor="middle" x="824.75" y="-61" font-family="Helvetica,sans-Serif" font-size="10.00">definitions.h</text>
</a>
</g>
</g>
<!-- Node1&#45;&gt;Node7 -->
<g id="edge6_Node000001_Node000007" class="edge">
<title>Node1&#45;&gt;Node7</title>
<g id="a_edge6_Node000001_Node000007"><a xlink:title=" ">
<path fill="none" stroke="#63b8ff" d="M857.75,-220.65C844.82,-213.11 828.37,-200.99 820.75,-185 805.45,-152.88 812.51,-110.16 818.79,-85.58"/>
<polygon fill="#63b8ff" stroke="#63b8ff" points="822.07,-86.84 821.39,-76.27 815.33,-84.96 822.07,-86.84"/>
</a>
</g>
</g>
<!-- Node25 -->
<g id="Node000025" class="node">
<title>Node25</title>
<g id="a_Node000025"><a xlink:href="../../d8/d4d/_globals_8h.html" target="_top" xlink:title=" ">
<polygon fill="white" stroke="#666666" points="926.38,-129.75 869.12,-129.75 869.12,-110.5 926.38,-110.5 926.38,-129.75"/>
<text text-anchor="middle" x="897.75" y="-116.25" font-family="Helvetica,sans-Serif" font-size="10.00">Globals.h</text>
</a>
</g>
</g>
<!-- Node1&#45;&gt;Node25 -->
<g id="edge28_Node000001_Node000025" class="edge">
<title>Node1&#45;&gt;Node25</title>
<g id="a_edge28_Node000001_Node000025"><a xlink:title=" ">
<path fill="none" stroke="#63b8ff" d="M877.55,-220.75C881.05,-203.5 888.84,-165.08 893.66,-141.31"/>
<polygon fill="#63b8ff" stroke="#63b8ff" points="897.07,-142.11 895.62,-131.61 890.21,-140.72 897.07,-142.11"/>
</a>
</g>
</g>
<!-- Node26 -->
<g id="Node000026" class="node">
<title>Node26</title>
<g id="a_Node000026"><a xlink:href="../../d5/d4d/_solver_8h.html" target="_top" xlink:title=" ">
<polygon fill="white" stroke="#666666" points="980.38,-185 929.12,-185 929.12,-165.75 980.38,-165.75 980.38,-185"/>
<text text-anchor="middle" x="954.75" y="-171.5" font-family="Helvetica,sans-Serif" font-size="10.00">Solver.h</text>
</a>
</g>
</g>
<!-- Node1&#45;&gt;Node26 -->
<g id="edge30_Node000001_Node000026" class="edge">
<title>Node1&#45;&gt;Node26</title>
<g id="a_edge30_Node000001_Node000026"><a xlink:title=" ">
<path fill="none" stroke="#63b8ff" d="M889.15,-220.59C900.84,-212.71 918.05,-201.11 931.91,-191.77"/>
<polygon fill="#63b8ff" stroke="#63b8ff" points="933.69,-194.79 940.03,-186.3 929.78,-188.99 933.69,-194.79"/>
</a>
</g>
</g>
<!-- Node27 -->
<g id="Node000027" class="node">
<title>Node27</title>
<g id="a_Node000027"><a xlink:href="../../d8/dad/_flux_8h.html" target="_top" xlink:title=" ">
<polygon fill="white" stroke="#666666" points="872.25,-185 829.25,-185 829.25,-165.75 872.25,-165.75 872.25,-185"/>
<text text-anchor="middle" x="850.75" y="-171.5" font-family="Helvetica,sans-Serif" font-size="10.00">Flux.h</text>
</a>
</g>
</g>
<!-- Node1&#45;&gt;Node27 -->
<g id="edge33_Node000001_Node000027" class="edge">
<title>Node1&#45;&gt;Node27</title>
<g id="a_edge33_Node000001_Node000027"><a xlink:title=" ">
<path fill="none" stroke="#63b8ff" d="M871.62,-220.83C868.42,-214.01 863.86,-204.31 859.82,-195.7"/>
<polygon fill="#63b8ff" stroke="#63b8ff" points="863.03,-194.29 855.61,-186.73 856.69,-197.27 863.03,-194.29"/>
</a>
</g>
</g>
<!-- Node28 -->
<g id="Node000028" class="node">
<title>Node28</title>
<g id="a_Node000028"><a xlink:href="../../d0/df8/_cuda___kernel___utilities_8h.html" target="_top" xlink:title=" ">
<polygon fill="white" stroke="#666666" points="735.12,-185 616.38,-185 616.38,-165.75 735.12,-165.75 735.12,-185"/>
<text text-anchor="middle" x="675.75" y="-171.5" font-family="Helvetica,sans-Serif" font-size="10.00">Cuda_Kernel_Utilities.h</text>
</a>
</g>
</g>
<!-- Node1&#45;&gt;Node28 -->
<g id="edge36_Node000001_Node000028" class="edge">
<title>Node1&#45;&gt;Node28</title>
<g id="a_edge36_Node000001_Node000028"><a xlink:title=" ">
<path fill="none" stroke="#63b8ff" d="M841.82,-220.59C808.49,-211.72 757.44,-198.12 720.74,-188.35"/>
<polygon fill="#63b8ff" stroke="#63b8ff" points="721.87,-185.03 711.31,-185.84 720.07,-191.8 721.87,-185.03"/>
</a>
</g>
</g>
<!-- Node7&#45;&gt;Node3 -->
<g id="edge7_Node000007_Node000003" class="edge">
<title>Node7&#45;&gt;Node3</title>
<g id="a_edge7_Node000007_Node000003"><a xlink:title=" ">
<path fill="none" stroke="#63b8ff" d="M790.22,-57.13C785.7,-56.4 781.12,-55.75 776.75,-55.25 464.34,-19.46 378.55,-64.45 65.03,-19.47"/>
<polygon fill="#63b8ff" stroke="#63b8ff" points="65.68,-16.02 55.28,-18.05 64.67,-22.95 65.68,-16.02"/>
</a>
</g>
</g>
<!-- Node7&#45;&gt;Node4 -->
<g id="edge9_Node000007_Node000004" class="edge">
<title>Node7&#45;&gt;Node4</title>
<g id="a_edge9_Node000007_Node000004"><a xlink:title=" ">
<path fill="none" stroke="#63b8ff" d="M859.33,-62.14C929.74,-58.2 1094.89,-46.84 1242.77,-19.3"/>
<polygon fill="#63b8ff" stroke="#63b8ff" points="1243.18,-22.79 1252.35,-17.49 1241.88,-15.91 1243.18,-22.79"/>
</a>
</g>
</g>
<!-- Node7&#45;&gt;Node5 -->
<g id="edge21_Node000007_Node000005" class="edge">
<title>Node7&#45;&gt;Node5</title>
<g id="a_edge21_Node000007_Node000005"><a xlink:title=" ">
<path fill="none" stroke="#63b8ff" d="M859.43,-62.22C937.23,-58.19 1131.75,-46.25 1303.66,-19.56"/>
<polygon fill="#63b8ff" stroke="#63b8ff" points="1304.12,-23.03 1313.46,-18.01 1303.03,-16.11 1304.12,-23.03"/>
</a>
</g>
</g>
<!-- Node7&#45;&gt;Node6 -->
<g id="edge11_Node000007_Node000006" class="edge">
<title>Node7&#45;&gt;Node6</title>
<g id="a_edge11_Node000007_Node000006"><a xlink:title=" ">
<path fill="none" stroke="#63b8ff" d="M859.33,-63.4C945.77,-61.74 1178.22,-54.29 1380.71,-19.24"/>
<polygon fill="#63b8ff" stroke="#63b8ff" points="1381.12,-22.72 1390.36,-17.54 1379.91,-15.83 1381.12,-22.72"/>
</a>
</g>
</g>
<!-- Node8 -->
<g id="Node000008" class="node">
<title>Node8</title>
<g id="a_Node000008"><a xlink:title=" ">
<polygon fill="#e0e0e0" stroke="#999999" points="723.25,-19.25 674.25,-19.25 674.25,0 723.25,0 723.25,-19.25"/>
<text text-anchor="middle" x="698.75" y="-5.75" font-family="Helvetica,sans-Serif" font-size="10.00">fstream</text>
</a>
</g>
</g>
<!-- Node7&#45;&gt;Node8 -->
<g id="edge8_Node000007_Node000008" class="edge">
<title>Node7&#45;&gt;Node8</title>
<g id="a_edge8_Node000007_Node000008"><a xlink:title=" ">
<path fill="none" stroke="#63b8ff" d="M803.38,-54.84C783.46,-46.43 753.51,-33.77 730.75,-24.15"/>
<polygon fill="#63b8ff" stroke="#63b8ff" points="732.2,-20.96 721.62,-20.29 729.47,-27.41 732.2,-20.96"/>
</a>
</g>
</g>
<!-- Node9 -->
<g id="Node000009" class="node">
<title>Node9</title>
<g id="a_Node000009"><a xlink:title=" ">
<polygon fill="#e0e0e0" stroke="#999999" points="781.75,-19.25 741.75,-19.25 741.75,0 781.75,0 781.75,-19.25"/>
<text text-anchor="middle" x="761.75" y="-5.75" font-family="Helvetica,sans-Serif" font-size="10.00">string</text>
</a>
</g>
</g>
<!-- Node7&#45;&gt;Node9 -->
<g id="edge10_Node000007_Node000009" class="edge">
<title>Node7&#45;&gt;Node9</title>
<g id="a_edge10_Node000007_Node000009"><a xlink:title=" ">
<path fill="none" stroke="#63b8ff" d="M814.06,-54.84C805.05,-47.22 791.92,-36.12 781.07,-26.95"/>
<polygon fill="#63b8ff" stroke="#63b8ff" points="783.33,-24.28 773.44,-20.5 778.81,-29.63 783.33,-24.28"/>
</a>
</g>
</g>
<!-- Node10 -->
<g id="Node000010" class="node">
<title>Node10</title>
<g id="a_Node000010"><a xlink:title=" ">
<polygon fill="#e0e0e0" stroke="#999999" points="850,-19.25 799.5,-19.25 799.5,0 850,0 850,-19.25"/>
<text text-anchor="middle" x="824.75" y="-5.75" font-family="Helvetica,sans-Serif" font-size="10.00">typeinfo</text>
</a>
</g>
</g>
<!-- Node7&#45;&gt;Node10 -->
<g id="edge12_Node000007_Node000010" class="edge">
<title>Node7&#45;&gt;Node10</title>
<g id="a_edge12_Node000007_Node000010"><a xlink:title=" ">
<path fill="none" stroke="#63b8ff" d="M824.75,-55.08C824.75,-48.57 824.75,-39.42 824.75,-31.12"/>
<polygon fill="#63b8ff" stroke="#63b8ff" points="828.25,-31.12 824.75,-21.12 821.25,-31.12 828.25,-31.12"/>
</a>
</g>
</g>
<!-- Node11 -->
<g id="Node000011" class="node">
<title>Node11</title>
<g id="a_Node000011"><a xlink:title=" ">
<polygon fill="#e0e0e0" stroke="#999999" points="917.62,-19.25 867.88,-19.25 867.88,0 917.62,0 917.62,-19.25"/>
<text text-anchor="middle" x="892.75" y="-5.75" font-family="Helvetica,sans-Serif" font-size="10.00">iomanip</text>
</a>
</g>
</g>
<!-- Node7&#45;&gt;Node11 -->
<g id="edge13_Node000007_Node000011" class="edge">
<title>Node7&#45;&gt;Node11</title>
<g id="a_edge13_Node000007_Node000011"><a xlink:title=" ">
<path fill="none" stroke="#63b8ff" d="M836.29,-54.84C846.21,-47.07 860.76,-35.67 872.61,-26.4"/>
<polygon fill="#63b8ff" stroke="#63b8ff" points="874.48,-29.38 880.19,-20.46 870.16,-23.87 874.48,-29.38"/>
</a>
</g>
</g>
<!-- Node12 -->
<g id="Node000012" class="node">
<title>Node12</title>
<g id="a_Node000012"><a xlink:title=" ">
<polygon fill="#e0e0e0" stroke="#999999" points="977.88,-19.25 935.62,-19.25 935.62,0 977.88,0 977.88,-19.25"/>
<text text-anchor="middle" x="956.75" y="-5.75" font-family="Helvetica,sans-Serif" font-size="10.00">cstdio</text>
</a>
</g>
</g>
<!-- Node7&#45;&gt;Node12 -->
<g id="edge14_Node000007_Node000012" class="edge">
<title>Node7&#45;&gt;Node12</title>
<g id="a_edge14_Node000007_Node000012"><a xlink:title=" ">
<path fill="none" stroke="#63b8ff" d="M847.14,-54.84C868.45,-46.25 900.72,-33.23 924.74,-23.54"/>
<polygon fill="#63b8ff" stroke="#63b8ff" points="925.76,-26.9 933.72,-19.91 923.14,-20.41 925.76,-26.9"/>
</a>
</g>
</g>
<!-- Node13 -->
<g id="Node000013" class="node">
<title>Node13</title>
<g id="a_Node000013"><a xlink:title=" ">
<polygon fill="#e0e0e0" stroke="#999999" points="1040,-19.25 995.5,-19.25 995.5,0 1040,0 1040,-19.25"/>
<text text-anchor="middle" x="1017.75" y="-5.75" font-family="Helvetica,sans-Serif" font-size="10.00">cstdlib</text>
</a>
</g>
</g>
<!-- Node7&#45;&gt;Node13 -->
<g id="edge15_Node000007_Node000013" class="edge">
<title>Node7&#45;&gt;Node13</title>
<g id="a_edge15_Node000007_Node000013"><a xlink:title=" ">
<path fill="none" stroke="#63b8ff" d="M857.95,-54.76C888.47,-46.37 935.24,-33.5 984.25,-19.94"/>
<polygon fill="#63b8ff" stroke="#63b8ff" points="984.9,-23.39 993.61,-17.35 983.03,-16.64 984.9,-23.39"/>
</a>
</g>
</g>
<!-- Node14 -->
<g id="Node000014" class="node">
<title>Node14</title>
<g id="a_Node000014"><a xlink:title=" ">
<polygon fill="#e0e0e0" stroke="#999999" points="1113.62,-19.25 1057.88,-19.25 1057.88,0 1113.62,0 1113.62,-19.25"/>
<text text-anchor="middle" x="1085.75" y="-5.75" font-family="Helvetica,sans-Serif" font-size="10.00">algorithm</text>
</a>
</g>
</g>
<!-- Node7&#45;&gt;Node14 -->
<g id="edge16_Node000007_Node000014" class="edge">
<title>Node7&#45;&gt;Node14</title>
<g id="a_edge16_Node000007_Node000014"><a xlink:title=" ">
<path fill="none" stroke="#63b8ff" d="M859.36,-57.34C901.28,-49.35 974.31,-35.17 1046.4,-19.7"/>
<polygon fill="#63b8ff" stroke="#63b8ff" points="1046.97,-23.16 1056.01,-17.63 1045.5,-16.32 1046.97,-23.16"/>
</a>
</g>
</g>
<!-- Node15 -->
<g id="Node000015" class="node">
<title>Node15</title>
<g id="a_Node000015"><a xlink:title=" ">
<polygon fill="#e0e0e0" stroke="#999999" points="1177.38,-19.25 1132.12,-19.25 1132.12,0 1177.38,0 1177.38,-19.25"/>
<text text-anchor="middle" x="1154.75" y="-5.75" font-family="Helvetica,sans-Serif" font-size="10.00">chrono</text>
</a>
</g>
</g>
<!-- Node7&#45;&gt;Node15 -->
<g id="edge17_Node000007_Node000015" class="edge">
<title>Node7&#45;&gt;Node15</title>
<g id="a_edge17_Node000007_Node000015"><a xlink:title=" ">
<path fill="none" stroke="#63b8ff" d="M859.39,-60C913.17,-53.69 1020.18,-40.02 1120.5,-19.5"/>
<polygon fill="#63b8ff" stroke="#63b8ff" points="1121.19,-22.93 1130.27,-17.47 1119.77,-16.08 1121.19,-22.93"/>
</a>
</g>
</g>
<!-- Node16 -->
<g id="Node000016" class="node">
<title>Node16</title>
<g id="a_Node000016"><a xlink:title=" ">
<polygon fill="#e0e0e0" stroke="#999999" points="1235.75,-19.25 1195.75,-19.25 1195.75,0 1235.75,0 1235.75,-19.25"/>
<text text-anchor="middle" x="1215.75" y="-5.75" font-family="Helvetica,sans-Serif" font-size="10.00">cfloat</text>
</a>
</g>
</g>
<!-- Node7&#45;&gt;Node16 -->
<g id="edge18_Node000007_Node000016" class="edge">
<title>Node7&#45;&gt;Node16</title>
<g id="a_edge18_Node000007_Node000016"><a xlink:title=" ">
<path fill="none" stroke="#63b8ff" d="M859.25,-61.54C922.1,-56.89 1059.53,-44.81 1184.03,-19.5"/>
<polygon fill="#63b8ff" stroke="#63b8ff" points="1184.7,-22.94 1193.78,-17.48 1183.28,-16.09 1184.7,-22.94"/>
</a>
</g>
</g>
<!-- Node17 -->
<g id="Node000017" class="node">
<title>Node17</title>
<g id="a_Node000017"><a xlink:title=" ">
<polygon fill="#e0e0e0" stroke="#999999" points="132.25,-19.25 71.25,-19.25 71.25,0 132.25,0 132.25,-19.25"/>
<text text-anchor="middle" x="101.75" y="-5.75" font-family="Helvetica,sans-Serif" font-size="10.00">filesystem</text>
</a>
</g>
</g>
<!-- Node7&#45;&gt;Node17 -->
<g id="edge19_Node000007_Node000017" class="edge">
<title>Node7&#45;&gt;Node17</title>
<g id="a_edge19_Node000007_Node000017"><a xlink:title=" ">
<path fill="none" stroke="#63b8ff" d="M790.22,-57.15C785.7,-56.43 781.12,-55.76 776.75,-55.25 499.72,-22.63 423.86,-56.25 144,-19.31"/>
<polygon fill="#63b8ff" stroke="#63b8ff" points="144.55,-15.85 134.17,-17.99 143.62,-22.79 144.55,-15.85"/>
</a>
</g>
</g>
<!-- Node18 -->
<g id="Node000018" class="node">
<title>Node18</title>
<g id="a_Node000018"><a xlink:title=" ">
<polygon fill="#e0e0e0" stroke="#999999" points="185.12,-19.25 150.38,-19.25 150.38,0 185.12,0 185.12,-19.25"/>
<text text-anchor="middle" x="167.75" y="-5.75" font-family="Helvetica,sans-Serif" font-size="10.00">map</text>
</a>
</g>
</g>
<!-- Node7&#45;&gt;Node18 -->
<g id="edge20_Node000007_Node000018" class="edge">
<title>Node7&#45;&gt;Node18</title>
<g id="a_edge20_Node000007_Node000018"><a xlink:title=" ">
<path fill="none" stroke="#63b8ff" d="M790.21,-57.17C785.7,-56.44 781.12,-55.78 776.75,-55.25 522.65,-24.68 450.66,-67.29 196.55,-19.31"/>
<polygon fill="#63b8ff" stroke="#63b8ff" points="197.46,-15.92 186.98,-17.47 196.14,-22.79 197.46,-15.92"/>
</a>
</g>
</g>
<!-- Node19 -->
<g id="Node000019" class="node">
<title>Node19</title>
<g id="a_Node000019"><a xlink:title=" ">
<polygon fill="#e0e0e0" stroke="#999999" points="254.38,-19.25 203.12,-19.25 203.12,0 254.38,0 254.38,-19.25"/>
<text text-anchor="middle" x="228.75" y="-5.75" font-family="Helvetica,sans-Serif" font-size="10.00">sstream</text>
</a>
</g>
</g>
<!-- Node7&#45;&gt;Node19 -->
<g id="edge22_Node000007_Node000019" class="edge">
<title>Node7&#45;&gt;Node19</title>
<g id="a_edge22_Node000007_Node000019"><a xlink:title=" ">
<path fill="none" stroke="#63b8ff" d="M790.21,-57.21C785.69,-56.47 781.12,-55.79 776.75,-55.25 553.6,-27.45 491.53,-53.85 265.86,-19.28"/>
<polygon fill="#63b8ff" stroke="#63b8ff" points="266.56,-15.84 256.14,-17.76 265.48,-22.76 266.56,-15.84"/>
</a>
</g>
</g>
<!-- Node20 -->
<g id="Node000020" class="node">
<title>Node20</title>
<g id="a_Node000020"><a xlink:title=" ">
<polygon fill="#e0e0e0" stroke="#999999" points="355.12,-19.25 272.38,-19.25 272.38,0 355.12,0 355.12,-19.25"/>
<text text-anchor="middle" x="313.75" y="-5.75" font-family="Helvetica,sans-Serif" font-size="10.00">unordered_map</text>
</a>
</g>
</g>
<!-- Node7&#45;&gt;Node20 -->
<g id="edge23_Node000007_Node000020" class="edge">
<title>Node7&#45;&gt;Node20</title>
<g id="a_edge23_Node000007_Node000020"><a xlink:title=" ">
<path fill="none" stroke="#63b8ff" d="M790.2,-57.28C785.69,-56.53 781.11,-55.83 776.75,-55.25 597.77,-31.42 548.43,-42.47 366.75,-19.54"/>
<polygon fill="#63b8ff" stroke="#63b8ff" points="367.32,-16.08 356.95,-18.28 366.43,-23.02 367.32,-16.08"/>
</a>
</g>
</g>
<!-- Node21 -->
<g id="Node000021" class="node">
<title>Node21</title>
<g id="a_Node000021"><a xlink:title=" ">
<polygon fill="#e0e0e0" stroke="#999999" points="450.5,-19.25 373,-19.25 373,0 450.5,0 450.5,-19.25"/>
<text text-anchor="middle" x="411.75" y="-5.75" font-family="Helvetica,sans-Serif" font-size="10.00">unordered_set</text>
</a>
</g>
</g>
<!-- Node7&#45;&gt;Node21 -->
<g id="edge24_Node000007_Node000021" class="edge">
<title>Node7&#45;&gt;Node21</title>
<g id="a_edge24_Node000007_Node000021"><a xlink:title=" ">
<path fill="none" stroke="#63b8ff" d="M790.19,-57.39C785.67,-56.62 781.11,-55.89 776.75,-55.25 639.59,-35.18 601.37,-39.84 462.05,-19.66"/>
<polygon fill="#63b8ff" stroke="#63b8ff" points="462.85,-16.24 452.45,-18.25 461.84,-23.16 462.85,-16.24"/>
</a>
</g>
</g>
<!-- Node22 -->
<g id="Node000022" class="node">
<title>Node22</title>
<g id="a_Node000022"><a xlink:title=" ">
<polygon fill="#e0e0e0" stroke="#999999" points="505.25,-19.25 468.25,-19.25 468.25,0 505.25,0 505.25,-19.25"/>
<text text-anchor="middle" x="486.75" y="-5.75" font-family="Helvetica,sans-Serif" font-size="10.00">tuple</text>
</a>
</g>
</g>
<!-- Node7&#45;&gt;Node22 -->
<g id="edge25_Node000007_Node000022" class="edge">
<title>Node7&#45;&gt;Node22</title>
<g id="a_edge25_Node000007_Node000022"><a xlink:title=" ">
<path fill="none" stroke="#63b8ff" d="M790.17,-57.48C785.66,-56.7 781.1,-55.94 776.75,-55.25 663.75,-37.37 630.8,-44.81 516.47,-19.54"/>
<polygon fill="#63b8ff" stroke="#63b8ff" points="517.52,-16.19 506.99,-17.41 515.98,-23.02 517.52,-16.19"/>
</a>
</g>
</g>
<!-- Node23 -->
<g id="Node000023" class="node">
<title>Node23</title>
<g id="a_Node000023"><a xlink:title=" ">
<polygon fill="#e0e0e0" stroke="#999999" points="552.5,-19.25 523,-19.25 523,0 552.5,0 552.5,-19.25"/>
<text text-anchor="middle" x="537.75" y="-5.75" font-family="Helvetica,sans-Serif" font-size="10.00">set</text>
</a>
</g>
</g>
<!-- Node7&#45;&gt;Node23 -->
<g id="edge26_Node000007_Node000023" class="edge">
<title>Node7&#45;&gt;Node23</title>
<g id="a_edge26_Node000007_Node000023"><a xlink:title=" ">
<path fill="none" stroke="#63b8ff" d="M790.15,-57.61C785.64,-56.81 781.09,-56 776.75,-55.25 684.83,-39.3 657.5,-43.39 563.97,-19.42"/>
<polygon fill="#63b8ff" stroke="#63b8ff" points="564.88,-16.04 554.32,-16.9 563.11,-22.81 564.88,-16.04"/>
</a>
</g>
</g>
<!-- Node24 -->
<g id="Node000024" class="node">
<title>Node24</title>
<g id="a_Node000024"><a xlink:title=" ">
<polygon fill="#e0e0e0" stroke="#999999" points="656.62,-19.25 570.88,-19.25 570.88,0 656.62,0 656.62,-19.25"/>
<text text-anchor="middle" x="613.75" y="-5.75" font-family="Helvetica,sans-Serif" font-size="10.00">boost/regex.hpp</text>
</a>
</g>
</g>
<!-- Node7&#45;&gt;Node24 -->
<g id="edge27_Node000007_Node000024" class="edge">
<title>Node7&#45;&gt;Node24</title>
<g id="a_edge27_Node000007_Node000024"><a xlink:title=" ">
<path fill="none" stroke="#63b8ff" d="M790.38,-55.2C755.2,-46.32 700.27,-32.46 661.01,-22.55"/>
<polygon fill="#63b8ff" stroke="#63b8ff" points="661.89,-19.17 651.34,-20.11 660.18,-25.95 661.89,-19.17"/>
</a>
</g>
</g>
<!-- Node25&#45;&gt;Node7 -->
<g id="edge29_Node000025_Node000007" class="edge">
<title>Node25&#45;&gt;Node7</title>
<g id="a_edge29_Node000025_Node000007"><a xlink:title=" ">
<path fill="none" stroke="#63b8ff" d="M885.37,-110.09C874.6,-102.24 858.78,-90.7 846,-81.37"/>
<polygon fill="#63b8ff" stroke="#63b8ff" points="848.31,-78.73 838.17,-75.67 844.19,-84.39 848.31,-78.73"/>
</a>
</g>
</g>
<!-- Node26&#45;&gt;Node7 -->
<g id="edge31_Node000026_Node000007" class="edge">
<title>Node26&#45;&gt;Node7</title>
<g id="a_edge31_Node000026_Node000007"><a xlink:title=" ">
<path fill="none" stroke="#63b8ff" d="M954.46,-165.35C953.55,-151.78 949.93,-126.07 935.75,-110.5 918.76,-91.85 892.9,-80.85 870.41,-74.44"/>
<polygon fill="#63b8ff" stroke="#63b8ff" points="871.39,-71.08 860.83,-71.95 869.63,-77.85 871.39,-71.08"/>
</a>
</g>
</g>
<!-- Node26&#45;&gt;Node25 -->
<g id="edge32_Node000026_Node000025" class="edge">
<title>Node26&#45;&gt;Node25</title>
<g id="a_edge32_Node000026_Node000025"><a xlink:title=" ">
<path fill="none" stroke="#63b8ff" d="M945.08,-165.34C937.01,-157.8 925.28,-146.85 915.53,-137.73"/>
<polygon fill="#63b8ff" stroke="#63b8ff" points="918.08,-135.33 908.38,-131.06 913.3,-140.44 918.08,-135.33"/>
</a>
</g>
</g>
<!-- Node27&#45;&gt;Node7 -->
<g id="edge34_Node000027_Node000007" class="edge">
<title>Node27&#45;&gt;Node7</title>
<g id="a_edge34_Node000027_Node000007"><a xlink:title=" ">
<path fill="none" stroke="#63b8ff" d="M848.62,-165.5C844.49,-148.25 835.28,-109.83 829.59,-86.06"/>
<polygon fill="#63b8ff" stroke="#63b8ff" points="832.99,-85.26 827.26,-76.35 826.19,-86.89 832.99,-85.26"/>
</a>
</g>
</g>
<!-- Node27&#45;&gt;Node25 -->
<g id="edge35_Node000027_Node000025" class="edge">
<title>Node27&#45;&gt;Node25</title>
<g id="a_edge35_Node000027_Node000025"><a xlink:title=" ">
<path fill="none" stroke="#63b8ff" d="M858.51,-165.58C864.94,-158.3 874.26,-147.73 882.21,-138.73"/>
<polygon fill="#63b8ff" stroke="#63b8ff" points="884.83,-141.06 888.82,-131.24 879.58,-136.43 884.83,-141.06"/>
</a>
</g>
</g>
<!-- Node28&#45;&gt;Node2 -->
<g id="edge37_Node000028_Node000002" class="edge">
<title>Node28&#45;&gt;Node2</title>
<g id="a_edge37_Node000028_Node000002"><a xlink:title=" ">
<path fill="none" stroke="#63b8ff" d="M658.05,-165.34C644.6,-157.61 626.61,-145.28 615.75,-129.75 606.71,-116.82 601.91,-99.53 599.39,-86.2"/>
<polygon fill="#63b8ff" stroke="#63b8ff" points="602.86,-85.74 597.86,-76.4 595.95,-86.83 602.86,-85.74"/>
</a>
</g>
</g>
<!-- Node29 -->
<g id="Node000029" class="node">
<title>Node29</title>
<g id="a_Node000029"><a xlink:href="../../d9/d04/_grid___cuda___kernels_8h.html" target="_top" xlink:title=" ">
<polygon fill="white" stroke="#666666" points="734.25,-129.75 625.25,-129.75 625.25,-110.5 734.25,-110.5 734.25,-129.75"/>
<text text-anchor="middle" x="679.75" y="-116.25" font-family="Helvetica,sans-Serif" font-size="10.00">Grid_Cuda_Kernels.h</text>
</a>
</g>
</g>
<!-- Node28&#45;&gt;Node29 -->
<g id="edge38_Node000028_Node000029" class="edge">
<title>Node28&#45;&gt;Node29</title>
<g id="a_edge38_Node000028_Node000029"><a xlink:title=" ">
<path fill="none" stroke="#63b8ff" d="M676.41,-165.58C676.91,-158.99 677.6,-149.71 678.23,-141.32"/>
<polygon fill="#63b8ff" stroke="#63b8ff" points="681.7,-141.85 678.96,-131.62 674.72,-141.33 681.7,-141.85"/>
</a>
</g>
</g>
<!-- Node29&#45;&gt;Node2 -->
<g id="edge39_Node000029_Node000002" class="edge">
<title>Node29&#45;&gt;Node2</title>
<g id="a_edge39_Node000029_Node000002"><a xlink:title=" ">
<path fill="none" stroke="#63b8ff" d="M665.67,-110.09C653.27,-102.14 634.96,-90.39 620.32,-81"/>
<polygon fill="#63b8ff" stroke="#63b8ff" points="622.48,-78.22 612.17,-75.77 618.7,-84.12 622.48,-78.22"/>
</a>
</g>
</g>
<!-- Node29&#45;&gt;Node7 -->
<g id="edge40_Node000029_Node000007" class="edge">
<title>Node29&#45;&gt;Node7</title>
<g id="a_edge40_Node000029_Node000007"><a xlink:title=" ">
<path fill="none" stroke="#63b8ff" d="M704.35,-110.09C727.68,-101.52 762.99,-88.56 789.35,-78.88"/>
<polygon fill="#63b8ff" stroke="#63b8ff" points="790.43,-82.21 798.61,-75.47 788.02,-75.64 790.43,-82.21"/>
</a>
</g>
</g>
</g>
</svg>
