<?xml version="1.0" encoding="UTF-8" standalone="no"?>
<!DOCTYPE svg PUBLIC "-//W3C//DTD SVG 1.1//EN"
 "http://www.w3.org/Graphics/SVG/1.1/DTD/svg11.dtd">
<!-- Generated by graphviz version 12.2.1 (20241206.2353)
 -->
<!-- Title: Cell::Evaluate_FluxonFaces Pages: 1 -->
<svg width="846pt" height="409pt"
 viewBox="0.00 0.00 846.25 409.25" xmlns="http://www.w3.org/2000/svg" xmlns:xlink="http://www.w3.org/1999/xlink">
<g id="graph0" class="graph" transform="scale(1 1) rotate(0) translate(4 405.25)">
<title>Cell::Evaluate_FluxonFaces</title>
<!-- Node1 -->
<g id="Node000001" class="node">
<title>Node1</title>
<g id="a_Node000001"><a xlink:title=" ">
<polygon fill="#999999" stroke="#666666" points="139,-234.25 0,-234.25 0,-215 139,-215 139,-234.25"/>
<text text-anchor="middle" x="69.5" y="-220.75" font-family="Helvetica,sans-Serif" font-size="10.00">Cell::Evaluate_FluxonFaces</text>
</a>
</g>
</g>
<!-- Node2 -->
<g id="Node000002" class="node">
<title>Node2</title>
<g id="a_Node000002"><a xlink:href="../../dc/d9f/struct_cell_a12ca155558738e6524acc1ebb38126b4.html#a12ca155558738e6524acc1ebb38126b4" target="_top" xlink:title=" ">
<polygon fill="white" stroke="#666666" points="289.62,-327.25 198.62,-327.25 198.62,-308 289.62,-308 289.62,-327.25"/>
<text text-anchor="middle" x="244.12" y="-313.75" font-family="Helvetica,sans-Serif" font-size="10.00">Cell::Add_Fluxes</text>
</a>
</g>
</g>
<!-- Node1&#45;&gt;Node2 -->
<g id="edge1_Node000001_Node000002" class="edge">
<title>Node1&#45;&gt;Node2</title>
<g id="a_edge1_Node000001_Node000002"><a xlink:title=" ">
<path fill="none" stroke="#63b8ff" d="M81.53,-234.67C99.7,-250.69 137.63,-282.01 175,-299.62 178.99,-301.51 183.22,-303.22 187.52,-304.76"/>
<polygon fill="#63b8ff" stroke="#63b8ff" points="186.29,-308.04 196.88,-307.82 188.46,-301.39 186.29,-308.04"/>
</a>
</g>
</g>
<!-- Node3 -->
<g id="Node000003" class="node">
<title>Node3</title>
<g id="a_Node000003"><a xlink:href="../../dc/d9f/struct_cell_af7944559b958e7f02bf804adfd482a70.html#af7944559b958e7f02bf804adfd482a70" target="_top" xlink:title=" ">
<polygon fill="white" stroke="#666666" points="298.62,-234.25 189.62,-234.25 189.62,-215 298.62,-215 298.62,-234.25"/>
<text text-anchor="middle" x="244.12" y="-220.75" font-family="Helvetica,sans-Serif" font-size="10.00">Cell::Cal_Q_Gradient</text>
</a>
</g>
</g>
<!-- Node1&#45;&gt;Node3 -->
<g id="edge2_Node000001_Node000003" class="edge">
<title>Node1&#45;&gt;Node3</title>
<g id="a_edge2_Node000001_Node000003"><a xlink:title=" ">
<path fill="none" stroke="#63b8ff" d="M139.22,-224.62C151.96,-224.62 165.24,-224.62 177.87,-224.62"/>
<polygon fill="#63b8ff" stroke="#63b8ff" points="177.75,-228.13 187.75,-224.63 177.75,-221.13 177.75,-228.13"/>
</a>
</g>
</g>
<!-- Node6 -->
<g id="Node000006" class="node">
<title>Node6</title>
<g id="a_Node000006"><a xlink:href="../../d5/d2a/class_face_a7edd7ef2c3e6faf1d13c186536039f60.html#a7edd7ef2c3e6faf1d13c186536039f60" target="_top" xlink:title=" ">
<polygon fill="white" stroke="#666666" points="302.75,-173.25 185.5,-173.25 185.5,-154 302.75,-154 302.75,-173.25"/>
<text text-anchor="middle" x="244.12" y="-159.75" font-family="Helvetica,sans-Serif" font-size="10.00">Face::Flux_From_Face</text>
</a>
</g>
</g>
<!-- Node1&#45;&gt;Node6 -->
<g id="edge5_Node000001_Node000006" class="edge">
<title>Node1&#45;&gt;Node6</title>
<g id="a_edge5_Node000001_Node000006"><a xlink:title=" ">
<path fill="none" stroke="#63b8ff" d="M99.01,-214.55C127.62,-204.44 171.91,-188.79 203.84,-177.51"/>
<polygon fill="#63b8ff" stroke="#63b8ff" points="204.89,-180.85 213.15,-174.22 202.56,-174.25 204.89,-180.85"/>
</a>
</g>
</g>
<!-- Node20 -->
<g id="Node000020" class="node">
<title>Node20</title>
<g id="a_Node000020"><a xlink:href="../../dc/d9f/struct_cell_aae926146b2f52f029d3d28ec9174136e.html#aae926146b2f52f029d3d28ec9174136e" target="_top" xlink:title=" ">
<polygon fill="white" stroke="#666666" points="305,-136.25 183.25,-136.25 183.25,-117 305,-117 305,-136.25"/>
<text text-anchor="middle" x="244.12" y="-122.75" font-family="Helvetica,sans-Serif" font-size="10.00">Cell::Get_Cell_Pressure</text>
</a>
</g>
</g>
<!-- Node1&#45;&gt;Node20 -->
<g id="edge24_Node000001_Node000020" class="edge">
<title>Node1&#45;&gt;Node20</title>
<g id="a_edge24_Node000001_Node000020"><a xlink:title=" ">
<path fill="none" stroke="#63b8ff" d="M80.54,-214.69C98.15,-197.82 136.43,-163.53 175,-144.62 178.09,-143.11 181.31,-141.71 184.62,-140.42"/>
<polygon fill="#63b8ff" stroke="#63b8ff" points="185.63,-143.78 193.91,-137.17 183.32,-137.17 185.63,-143.78"/>
</a>
</g>
</g>
<!-- Node21 -->
<g id="Node000021" class="node">
<title>Node21</title>
<g id="a_Node000021"><a xlink:href="../../dc/d9f/struct_cell_a65a6f31fc7a451a50c9908c80e20033c.html#a65a6f31fc7a451a50c9908c80e20033c" target="_top" xlink:title=" ">
<polygon fill="white" stroke="#666666" points="313.25,-290.25 175,-290.25 175,-271 313.25,-271 313.25,-290.25"/>
<text text-anchor="middle" x="244.12" y="-276.75" font-family="Helvetica,sans-Serif" font-size="10.00">Cell::Velocity_GradatCenter</text>
</a>
</g>
</g>
<!-- Node1&#45;&gt;Node21 -->
<g id="edge25_Node000001_Node000021" class="edge">
<title>Node1&#45;&gt;Node21</title>
<g id="a_edge25_Node000001_Node000021"><a xlink:title=" ">
<path fill="none" stroke="#63b8ff" d="M101.36,-234.64C129.17,-243.66 170.31,-257 201.11,-267"/>
<polygon fill="#63b8ff" stroke="#63b8ff" points="199.92,-270.29 210.51,-270.04 202.08,-263.63 199.92,-270.29"/>
</a>
</g>
</g>
<!-- Node4 -->
<g id="Node000004" class="node">
<title>Node4</title>
<g id="a_Node000004"><a xlink:href="../../d5/db2/class_vector_a65059ef72da0ea37db05d7235e91f3b6.html#a65059ef72da0ea37db05d7235e91f3b6" target="_top" xlink:title=" ">
<polygon fill="white" stroke="#666666" points="462,-253.25 388.25,-253.25 388.25,-234 462,-234 462,-253.25"/>
<text text-anchor="middle" x="425.12" y="-239.75" font-family="Helvetica,sans-Serif" font-size="10.00">Vector::Clear</text>
</a>
</g>
</g>
<!-- Node3&#45;&gt;Node4 -->
<g id="edge3_Node000003_Node000004" class="edge">
<title>Node3&#45;&gt;Node4</title>
<g id="a_edge3_Node000003_Node000004"><a xlink:title=" ">
<path fill="none" stroke="#63b8ff" d="M298.83,-230.33C323.61,-232.96 352.77,-236.05 376.72,-238.59"/>
<polygon fill="#63b8ff" stroke="#63b8ff" points="376.2,-242.06 386.52,-239.63 376.94,-235.1 376.2,-242.06"/>
</a>
</g>
</g>
<!-- Node5 -->
<g id="Node000005" class="node">
<title>Node5</title>
<g id="a_Node000005"><a xlink:href="../../d5/d2a/class_face_a19f810b927960c6f82aefb36395b5c81.html#a19f810b927960c6f82aefb36395b5c81" target="_top" xlink:title=" ">
<polygon fill="white" stroke="#666666" points="471,-216.25 379.25,-216.25 379.25,-197 471,-197 471,-216.25"/>
<text text-anchor="middle" x="425.12" y="-202.75" font-family="Helvetica,sans-Serif" font-size="10.00">Face::Get_QnDS</text>
</a>
</g>
</g>
<!-- Node3&#45;&gt;Node5 -->
<g id="edge4_Node000003_Node000005" class="edge">
<title>Node3&#45;&gt;Node5</title>
<g id="a_edge4_Node000003_Node000005"><a xlink:title=" ">
<path fill="none" stroke="#63b8ff" d="M298.83,-219.22C320.58,-217.04 345.7,-214.51 367.72,-212.3"/>
<polygon fill="#63b8ff" stroke="#63b8ff" points="367.81,-215.81 377.41,-211.32 367.11,-208.84 367.81,-215.81"/>
</a>
</g>
</g>
<!-- Node7 -->
<g id="Node000007" class="node">
<title>Node7</title>
<g id="a_Node000007"><a xlink:href="../../d5/d2a/class_face_a8bf8d82bb997ead9e413ffe50b53516b.html#a8bf8d82bb997ead9e413ffe50b53516b" target="_top" xlink:title=" ">
<polygon fill="white" stroke="#666666" points="501,-93.25 349.25,-93.25 349.25,-74 501,-74 501,-93.25"/>
<text text-anchor="middle" x="425.12" y="-79.75" font-family="Helvetica,sans-Serif" font-size="10.00">Face::Flux_From_Face_AUSM</text>
</a>
</g>
</g>
<!-- Node6&#45;&gt;Node7 -->
<g id="edge6_Node000006_Node000007" class="edge">
<title>Node6&#45;&gt;Node7</title>
<g id="a_edge6_Node000006_Node000007"><a xlink:title=" ">
<path fill="none" stroke="#63b8ff" d="M297.18,-153.58C302.83,-151.42 308.31,-148.8 313.25,-145.62 334.5,-131.95 327.85,-115.06 349.25,-101.62 351.24,-100.38 353.31,-99.21 355.44,-98.13"/>
<polygon fill="#63b8ff" stroke="#63b8ff" points="356.61,-101.44 364.37,-94.24 353.81,-95.02 356.61,-101.44"/>
</a>
</g>
</g>
<!-- Node17 -->
<g id="Node000017" class="node">
<title>Node17</title>
<g id="a_Node000017"><a xlink:href="../../d5/d2a/class_face_ac4c4a64de5a6e3a3fbc08a00392e251b.html#ac4c4a64de5a6e3a3fbc08a00392e251b" target="_top" xlink:title=" ">
<polygon fill="white" stroke="#666666" points="483.75,-178.88 366.5,-178.88 366.5,-148.38 483.75,-148.38 483.75,-178.88"/>
<text text-anchor="start" x="374.5" y="-165.38" font-family="Helvetica,sans-Serif" font-size="10.00">Face::Flux_From_Face</text>
<text text-anchor="middle" x="425.12" y="-154.12" font-family="Helvetica,sans-Serif" font-size="10.00">_Central</text>
</a>
</g>
</g>
<!-- Node6&#45;&gt;Node17 -->
<g id="edge16_Node000006_Node000017" class="edge">
<title>Node6&#45;&gt;Node17</title>
<g id="a_edge16_Node000006_Node000017"><a xlink:title=" ">
<path fill="none" stroke="#63b8ff" d="M303.24,-163.62C319.82,-163.62 338.05,-163.62 355.21,-163.62"/>
<polygon fill="#63b8ff" stroke="#63b8ff" points="354.79,-167.13 364.79,-163.63 354.79,-160.13 354.79,-167.13"/>
</a>
</g>
</g>
<!-- Node19 -->
<g id="Node000019" class="node">
<title>Node19</title>
<g id="a_Node000019"><a xlink:href="../../d5/d2a/class_face_a3560cd5db824a402bf5c380f8ada5bb2.html#a3560cd5db824a402bf5c380f8ada5bb2" target="_top" xlink:title=" ">
<polygon fill="white" stroke="#666666" points="492.38,-130.25 357.88,-130.25 357.88,-111 492.38,-111 492.38,-130.25"/>
<text text-anchor="middle" x="425.12" y="-116.75" font-family="Helvetica,sans-Serif" font-size="10.00">Face::Flux_From_Face_VL</text>
</a>
</g>
</g>
<!-- Node6&#45;&gt;Node19 -->
<g id="edge19_Node000006_Node000019" class="edge">
<title>Node6&#45;&gt;Node19</title>
<g id="a_edge19_Node000006_Node000019"><a xlink:title=" ">
<path fill="none" stroke="#63b8ff" d="M287.09,-153.54C312.14,-147.53 344.18,-139.83 370.98,-133.39"/>
<polygon fill="#63b8ff" stroke="#63b8ff" points="371.73,-136.81 380.64,-131.07 370.1,-130 371.73,-136.81"/>
</a>
</g>
</g>
<!-- Node8 -->
<g id="Node000008" class="node">
<title>Node8</title>
<g id="a_Node000008"><a xlink:href="../../d5/d2a/class_face_a28f4009e42e1ac60082a6952566a31aa.html#a28f4009e42e1ac60082a6952566a31aa" target="_top" xlink:title=" ">
<polygon fill="white" stroke="#666666" points="651.25,-167.25 549,-167.25 549,-148 651.25,-148 651.25,-167.25"/>
<text text-anchor="middle" x="600.12" y="-153.75" font-family="Helvetica,sans-Serif" font-size="10.00">Face::Cal_Primitive</text>
</a>
</g>
</g>
<!-- Node7&#45;&gt;Node8 -->
<g id="edge7_Node000007_Node000008" class="edge">
<title>Node7&#45;&gt;Node8</title>
<g id="a_edge7_Node000007_Node000008"><a xlink:title=" ">
<path fill="none" stroke="#63b8ff" d="M483.48,-93.74C489.59,-95.88 495.56,-98.48 501,-101.62 521.14,-113.27 517.13,-127.52 537,-139.62 539.02,-140.86 541.13,-142.01 543.31,-143.08"/>
<polygon fill="#63b8ff" stroke="#63b8ff" points="541.84,-146.26 552.41,-146.99 544.6,-139.83 541.84,-146.26"/>
</a>
</g>
</g>
<!-- Node9 -->
<g id="Node000009" class="node">
<title>Node9</title>
<g id="a_Node000009"><a xlink:href="../../d5/d2a/class_face_a80cd45164e8eda621558150d70999601.html#a80cd45164e8eda621558150d70999601" target="_top" xlink:title=" ">
<polygon fill="white" stroke="#666666" points="655.75,-130.25 544.5,-130.25 544.5,-111 655.75,-111 655.75,-130.25"/>
<text text-anchor="middle" x="600.12" y="-116.75" font-family="Helvetica,sans-Serif" font-size="10.00">Face::Evaluate_Mach</text>
</a>
</g>
</g>
<!-- Node7&#45;&gt;Node9 -->
<g id="edge8_Node000007_Node000009" class="edge">
<title>Node7&#45;&gt;Node9</title>
<g id="a_edge8_Node000007_Node000009"><a xlink:title=" ">
<path fill="none" stroke="#63b8ff" d="M473.4,-93.74C494.19,-98.18 518.81,-103.45 540.73,-108.14"/>
<polygon fill="#63b8ff" stroke="#63b8ff" points="539.92,-111.54 550.43,-110.21 541.38,-104.7 539.92,-111.54"/>
</a>
</g>
</g>
<!-- Node10 -->
<g id="Node000010" class="node">
<title>Node10</title>
<g id="a_Node000010"><a xlink:href="../../d5/d2a/class_face_a7b7a45322054b3094ca16809d72cc9f1.html#a7b7a45322054b3094ca16809d72cc9f1" target="_top" xlink:title=" ">
<polygon fill="white" stroke="#666666" points="663.25,-19.25 537,-19.25 537,0 663.25,0 663.25,-19.25"/>
<text text-anchor="middle" x="600.12" y="-5.75" font-family="Helvetica,sans-Serif" font-size="10.00">Face::Evaluate_Pressure</text>
</a>
</g>
</g>
<!-- Node7&#45;&gt;Node10 -->
<g id="edge9_Node000007_Node000010" class="edge">
<title>Node7&#45;&gt;Node10</title>
<g id="a_edge9_Node000007_Node000010"><a xlink:title=" ">
<path fill="none" stroke="#63b8ff" d="M443.33,-73.67C464.74,-61.58 502.68,-41.13 537,-27.62 541.06,-26.03 545.31,-24.5 549.61,-23.06"/>
<polygon fill="#63b8ff" stroke="#63b8ff" points="550.39,-26.49 558.87,-20.12 548.28,-19.81 550.39,-26.49"/>
</a>
</g>
</g>
<!-- Node12 -->
<g id="Node000012" class="node">
<title>Node12</title>
<g id="a_Node000012"><a xlink:href="../../d5/d2a/class_face_a1dcbb73e92699148519e558ae989117f.html#a1dcbb73e92699148519e558ae989117f" target="_top" xlink:title=" ">
<polygon fill="white" stroke="#666666" points="655,-93.25 545.25,-93.25 545.25,-74 655,-74 655,-93.25"/>
<text text-anchor="middle" x="600.12" y="-79.75" font-family="Helvetica,sans-Serif" font-size="10.00">Face::Find_Gradients</text>
</a>
</g>
</g>
<!-- Node7&#45;&gt;Node12 -->
<g id="edge11_Node000007_Node000012" class="edge">
<title>Node7&#45;&gt;Node12</title>
<g id="a_edge11_Node000007_Node000012"><a xlink:title=" ">
<path fill="none" stroke="#63b8ff" d="M501.25,-83.62C512.03,-83.62 523.05,-83.62 533.63,-83.62"/>
<polygon fill="#63b8ff" stroke="#63b8ff" points="533.38,-87.13 543.38,-83.63 533.38,-80.13 533.38,-87.13"/>
</a>
</g>
</g>
<!-- Node16 -->
<g id="Node000016" class="node">
<title>Node16</title>
<g id="a_Node000016"><a xlink:href="../../dc/d9f/struct_cell_af37bc52fb84ad9749bddb65f09d837b5.html#af37bc52fb84ad9749bddb65f09d837b5" target="_top" xlink:title=" ">
<polygon fill="white" stroke="#666666" points="661.38,-56.25 538.88,-56.25 538.88,-37 661.38,-37 661.38,-56.25"/>
<text text-anchor="middle" x="600.12" y="-42.75" font-family="Helvetica,sans-Serif" font-size="10.00">Cell::Get_QatCellCenter</text>
</a>
</g>
</g>
<!-- Node7&#45;&gt;Node16 -->
<g id="edge15_Node000007_Node000016" class="edge">
<title>Node7&#45;&gt;Node16</title>
<g id="a_edge15_Node000007_Node000016"><a xlink:title=" ">
<path fill="none" stroke="#63b8ff" d="M473.4,-73.51C494.19,-69.07 518.81,-63.8 540.73,-59.11"/>
<polygon fill="#63b8ff" stroke="#63b8ff" points="541.38,-62.55 550.43,-57.04 539.92,-55.71 541.38,-62.55"/>
</a>
</g>
</g>
<!-- Node11 -->
<g id="Node000011" class="node">
<title>Node11</title>
<g id="a_Node000011"><a xlink:href="../../d3/d82/_c_type___elliptic___grid_8cpp_a6122be421b972a00ce8e6e636589966d.html#a6122be421b972a00ce8e6e636589966d" target="_top" xlink:title=" ">
<polygon fill="white" stroke="#666666" points="783.15,-19.25 754.35,-19.25 754.35,0 783.15,0 783.15,-19.25"/>
<text text-anchor="middle" x="768.75" y="-5.75" font-family="Helvetica,sans-Serif" font-size="10.00">P</text>
</a>
</g>
</g>
<!-- Node10&#45;&gt;Node11 -->
<g id="edge10_Node000010_Node000011" class="edge">
<title>Node10&#45;&gt;Node11</title>
<g id="a_edge10_Node000010_Node000011"><a xlink:title=" ">
<path fill="none" stroke="#63b8ff" d="M663.64,-9.62C691.15,-9.62 721.89,-9.62 742.79,-9.62"/>
<polygon fill="#63b8ff" stroke="#63b8ff" points="742.62,-13.13 752.62,-9.63 742.62,-6.13 742.62,-13.13"/>
</a>
</g>
</g>
<!-- Node13 -->
<g id="Node000013" class="node">
<title>Node13</title>
<g id="a_Node000013"><a xlink:href="../../d5/d2a/class_face_ae6a98fe15c04148426e9875ad29f03cc.html#ae6a98fe15c04148426e9875ad29f03cc" target="_top" xlink:title=" ">
<polygon fill="white" stroke="#666666" points="825.12,-130.25 712.38,-130.25 712.38,-111 825.12,-111 825.12,-130.25"/>
<text text-anchor="middle" x="768.75" y="-116.75" font-family="Helvetica,sans-Serif" font-size="10.00">Face::Scalar_dot_ndS</text>
</a>
</g>
</g>
<!-- Node12&#45;&gt;Node13 -->
<g id="edge12_Node000012_Node000013" class="edge">
<title>Node12&#45;&gt;Node13</title>
<g id="a_edge12_Node000012_Node000013"><a xlink:title=" ">
<path fill="none" stroke="#63b8ff" d="M646.66,-93.74C666.59,-98.16 690.17,-103.4 711.21,-108.07"/>
<polygon fill="#63b8ff" stroke="#63b8ff" points="710.28,-111.45 720.8,-110.2 711.79,-104.61 710.28,-111.45"/>
</a>
</g>
</g>
<!-- Node14 -->
<g id="Node000014" class="node">
<title>Node14</title>
<g id="a_Node000014"><a xlink:href="../../d5/d2a/class_face_a7dbfe0e14e693127d4d75dd68f879f99.html#a7dbfe0e14e693127d4d75dd68f879f99" target="_top" xlink:title=" ">
<polygon fill="white" stroke="#666666" points="838.25,-93.25 699.25,-93.25 699.25,-74 838.25,-74 838.25,-93.25"/>
<text text-anchor="middle" x="768.75" y="-79.75" font-family="Helvetica,sans-Serif" font-size="10.00">Face::Thermal_Conductivity</text>
</a>
</g>
</g>
<!-- Node12&#45;&gt;Node14 -->
<g id="edge13_Node000012_Node000014" class="edge">
<title>Node12&#45;&gt;Node14</title>
<g id="a_edge13_Node000012_Node000014"><a xlink:title=" ">
<path fill="none" stroke="#63b8ff" d="M655.22,-83.62C665.59,-83.62 676.65,-83.62 687.63,-83.62"/>
<polygon fill="#63b8ff" stroke="#63b8ff" points="687.51,-87.13 697.51,-83.63 687.51,-80.13 687.51,-87.13"/>
</a>
</g>
</g>
<!-- Node15 -->
<g id="Node000015" class="node">
<title>Node15</title>
<g id="a_Node000015"><a xlink:href="../../d5/d2a/class_face_a658f439bcdacbf424d659be66ae7bce7.html#a658f439bcdacbf424d659be66ae7bce7" target="_top" xlink:title=" ">
<polygon fill="white" stroke="#666666" points="810.88,-56.25 726.62,-56.25 726.62,-37 810.88,-37 810.88,-56.25"/>
<text text-anchor="middle" x="768.75" y="-42.75" font-family="Helvetica,sans-Serif" font-size="10.00">Face::Viscosity</text>
</a>
</g>
</g>
<!-- Node12&#45;&gt;Node15 -->
<g id="edge14_Node000012_Node000015" class="edge">
<title>Node12&#45;&gt;Node15</title>
<g id="a_edge14_Node000012_Node000015"><a xlink:title=" ">
<path fill="none" stroke="#63b8ff" d="M646.66,-73.51C667.83,-68.81 693.12,-63.2 715.11,-58.31"/>
<polygon fill="#63b8ff" stroke="#63b8ff" points="715.79,-61.75 724.79,-56.16 714.27,-54.92 715.79,-61.75"/>
</a>
</g>
</g>
<!-- Node17&#45;&gt;Node8 -->
<g id="edge17_Node000017_Node000008" class="edge">
<title>Node17&#45;&gt;Node8</title>
<g id="a_edge17_Node000017_Node000008"><a xlink:title=" ">
<path fill="none" stroke="#63b8ff" d="M484.21,-161.61C501.36,-161.02 520.19,-160.36 537.55,-159.76"/>
<polygon fill="#63b8ff" stroke="#63b8ff" points="537.33,-163.27 547.21,-159.43 537.09,-156.27 537.33,-163.27"/>
</a>
</g>
</g>
<!-- Node18 -->
<g id="Node000018" class="node">
<title>Node18</title>
<g id="a_Node000018"><a xlink:href="../../d3/d82/_c_type___elliptic___grid_8cpp_ab180cb902cf4be5a8d26b78172e9491f.html#ab180cb902cf4be5a8d26b78172e9491f" target="_top" xlink:title=" ">
<polygon fill="white" stroke="#666666" points="614.52,-204.25 585.73,-204.25 585.73,-185 614.52,-185 614.52,-204.25"/>
<text text-anchor="middle" x="600.12" y="-190.75" font-family="Helvetica,sans-Serif" font-size="10.00">Q</text>
</a>
</g>
</g>
<!-- Node17&#45;&gt;Node18 -->
<g id="edge18_Node000017_Node000018" class="edge">
<title>Node17&#45;&gt;Node18</title>
<g id="a_edge18_Node000017_Node000018"><a xlink:title=" ">
<path fill="none" stroke="#63b8ff" d="M484.21,-174.03C514.83,-179.52 550.8,-185.96 574.23,-190.16"/>
<polygon fill="#63b8ff" stroke="#63b8ff" points="573.59,-193.61 584.05,-191.92 574.83,-186.71 573.59,-193.61"/>
</a>
</g>
</g>
<!-- Node19&#45;&gt;Node8 -->
<g id="edge20_Node000019_Node000008" class="edge">
<title>Node19&#45;&gt;Node8</title>
<g id="a_edge20_Node000019_Node000008"><a xlink:title=" ">
<path fill="none" stroke="#63b8ff" d="M473.4,-130.74C494.19,-135.18 518.81,-140.45 540.73,-145.14"/>
<polygon fill="#63b8ff" stroke="#63b8ff" points="539.92,-148.54 550.43,-147.21 541.38,-141.7 539.92,-148.54"/>
</a>
</g>
</g>
<!-- Node19&#45;&gt;Node9 -->
<g id="edge21_Node000019_Node000009" class="edge">
<title>Node19&#45;&gt;Node9</title>
<g id="a_edge21_Node000019_Node000009"><a xlink:title=" ">
<path fill="none" stroke="#63b8ff" d="M492.52,-120.62C505.71,-120.62 519.56,-120.62 532.75,-120.62"/>
<polygon fill="#63b8ff" stroke="#63b8ff" points="532.63,-124.13 542.63,-120.63 532.63,-117.13 532.63,-124.13"/>
</a>
</g>
</g>
<!-- Node19&#45;&gt;Node12 -->
<g id="edge22_Node000019_Node000012" class="edge">
<title>Node19&#45;&gt;Node12</title>
<g id="a_edge22_Node000019_Node000012"><a xlink:title=" ">
<path fill="none" stroke="#63b8ff" d="M473.4,-110.51C494.19,-106.07 518.81,-100.8 540.73,-96.11"/>
<polygon fill="#63b8ff" stroke="#63b8ff" points="541.38,-99.55 550.43,-94.04 539.92,-92.71 541.38,-99.55"/>
</a>
</g>
</g>
<!-- Node19&#45;&gt;Node16 -->
<g id="edge23_Node000019_Node000016" class="edge">
<title>Node19&#45;&gt;Node16</title>
<g id="a_edge23_Node000019_Node000016"><a xlink:title=" ">
<path fill="none" stroke="#63b8ff" d="M483.48,-110.51C489.59,-108.37 495.56,-105.77 501,-102.62 521.14,-90.98 517.13,-76.73 537,-64.62 539.02,-63.39 541.13,-62.24 543.31,-61.17"/>
<polygon fill="#63b8ff" stroke="#63b8ff" points="544.6,-64.42 552.41,-57.26 541.84,-57.99 544.6,-64.42"/>
</a>
</g>
</g>
<!-- Node21&#45;&gt;Node4 -->
<g id="edge26_Node000021_Node000004" class="edge">
<title>Node21&#45;&gt;Node4</title>
<g id="a_edge26_Node000021_Node000004"><a xlink:title=" ">
<path fill="none" stroke="#63b8ff" d="M294.04,-270.51C319.71,-265.21 351.04,-258.73 376.51,-253.47"/>
<polygon fill="#63b8ff" stroke="#63b8ff" points="377.2,-256.9 386.28,-251.45 375.78,-250.04 377.2,-256.9"/>
</a>
</g>
</g>
<!-- Node22 -->
<g id="Node000022" class="node">
<title>Node22</title>
<g id="a_Node000022"><a xlink:href="../../d5/d2a/class_face_a05485559cf65d981de1fb06208ca23ce.html#a05485559cf65d981de1fb06208ca23ce" target="_top" xlink:title=" ">
<polygon fill="white" stroke="#666666" points="482.62,-290.25 367.62,-290.25 367.62,-271 482.62,-271 482.62,-290.25"/>
<text text-anchor="middle" x="425.12" y="-276.75" font-family="Helvetica,sans-Serif" font-size="10.00">Face::Get_Face_TndS</text>
</a>
</g>
</g>
<!-- Node21&#45;&gt;Node22 -->
<g id="edge27_Node000021_Node000022" class="edge">
<title>Node21&#45;&gt;Node22</title>
<g id="a_edge27_Node000021_Node000022"><a xlink:title=" ">
<path fill="none" stroke="#63b8ff" d="M313.56,-280.62C327.44,-280.62 342.04,-280.62 355.91,-280.62"/>
<polygon fill="#63b8ff" stroke="#63b8ff" points="355.85,-284.13 365.85,-280.63 355.85,-277.13 355.85,-284.13"/>
</a>
</g>
</g>
<!-- Node23 -->
<g id="Node000023" class="node">
<title>Node23</title>
<g id="a_Node000023"><a xlink:href="../../d5/d2a/class_face_aaa668000a8eb31366c9333d326f7a2d0.html#aaa668000a8eb31366c9333d326f7a2d0" target="_top" xlink:title=" ">
<polygon fill="white" stroke="#666666" points="482.25,-401.25 368,-401.25 368,-382 482.25,-382 482.25,-401.25"/>
<text text-anchor="middle" x="425.12" y="-387.75" font-family="Helvetica,sans-Serif" font-size="10.00">Face::Get_Face_undS</text>
</a>
</g>
</g>
<!-- Node21&#45;&gt;Node23 -->
<g id="edge28_Node000021_Node000023" class="edge">
<title>Node21&#45;&gt;Node23</title>
<g id="a_edge28_Node000021_Node000023"><a xlink:title=" ">
<path fill="none" stroke="#63b8ff" d="M300.39,-290.63C305.01,-292.8 309.38,-295.43 313.25,-298.62 341.75,-322.18 320.49,-350.39 349.25,-373.62 351.78,-375.67 354.52,-377.49 357.38,-379.11"/>
<polygon fill="#63b8ff" stroke="#63b8ff" points="355.65,-382.17 366.19,-383.23 358.62,-375.83 355.65,-382.17"/>
</a>
</g>
</g>
<!-- Node24 -->
<g id="Node000024" class="node">
<title>Node24</title>
<g id="a_Node000024"><a xlink:href="../../d5/d2a/class_face_af5ae2d774dbe2dd917de1ad630470a17.html#af5ae2d774dbe2dd917de1ad630470a17" target="_top" xlink:title=" ">
<polygon fill="white" stroke="#666666" points="482.25,-364.25 368,-364.25 368,-345 482.25,-345 482.25,-364.25"/>
<text text-anchor="middle" x="425.12" y="-350.75" font-family="Helvetica,sans-Serif" font-size="10.00">Face::Get_Face_vndS</text>
</a>
</g>
</g>
<!-- Node21&#45;&gt;Node24 -->
<g id="edge29_Node000021_Node000024" class="edge">
<title>Node21&#45;&gt;Node24</title>
<g id="a_edge29_Node000021_Node000024"><a xlink:title=" ">
<path fill="none" stroke="#63b8ff" d="M295.89,-290.64C301.95,-292.81 307.88,-295.44 313.25,-298.62 333.26,-310.49 329.11,-324.98 349.25,-336.62 351.73,-338.06 354.32,-339.38 356.99,-340.6"/>
<polygon fill="#63b8ff" stroke="#63b8ff" points="355.56,-343.8 366.15,-344.22 358.14,-337.29 355.56,-343.8"/>
</a>
</g>
</g>
<!-- Node25 -->
<g id="Node000025" class="node">
<title>Node25</title>
<g id="a_Node000025"><a xlink:href="../../d5/d2a/class_face_a944ff71ee4a44ca30b68175d5a5e2a08.html#a944ff71ee4a44ca30b68175d5a5e2a08" target="_top" xlink:title=" ">
<polygon fill="white" stroke="#666666" points="483.38,-327.25 366.88,-327.25 366.88,-308 483.38,-308 483.38,-327.25"/>
<text text-anchor="middle" x="425.12" y="-313.75" font-family="Helvetica,sans-Serif" font-size="10.00">Face::Get_Face_wndS</text>
</a>
</g>
</g>
<!-- Node21&#45;&gt;Node25 -->
<g id="edge30_Node000021_Node000025" class="edge">
<title>Node21&#45;&gt;Node25</title>
<g id="a_edge30_Node000021_Node000025"><a xlink:title=" ">
<path fill="none" stroke="#63b8ff" d="M294.04,-290.74C315.64,-295.2 341.25,-300.5 364.01,-305.2"/>
<polygon fill="#63b8ff" stroke="#63b8ff" points="363.29,-308.62 373.79,-307.22 364.7,-301.77 363.29,-308.62"/>
</a>
</g>
</g>
</g>
</svg>
