<?xml version="1.0" encoding="UTF-8" standalone="no"?>
<!DOCTYPE svg PUBLIC "-//W3C//DTD SVG 1.1//EN"
 "http://www.w3.org/Graphics/SVG/1.1/DTD/svg11.dtd">
<!-- Generated by graphviz version 12.2.1 (20241206.2353)
 -->
<!-- Title: Cell::Rk4 Pages: 1 -->
<svg width="940pt" height="406pt"
 viewBox="0.00 0.00 939.50 406.25" xmlns="http://www.w3.org/2000/svg" xmlns:xlink="http://www.w3.org/1999/xlink">
<g id="graph0" class="graph" transform="scale(1 1) rotate(0) translate(4 402.25)">
<title>Cell::Rk4</title>
<!-- Node1 -->
<g id="Node000001" class="node">
<title>Node1</title>
<g id="a_Node000001"><a xlink:title=" ">
<polygon fill="#999999" stroke="#666666" points="57.25,-74.25 0,-74.25 0,-55 57.25,-55 57.25,-74.25"/>
<text text-anchor="middle" x="28.62" y="-60.75" font-family="Helvetica,sans-Serif" font-size="10.00">Cell::Rk4</text>
</a>
</g>
</g>
<!-- Node2 -->
<g id="Node000002" class="node">
<title>Node2</title>
<g id="a_Node000002"><a xlink:href="../../dc/d9f/struct_cell_a4a591da0b84980196864d92dea915c67.html#a4a591da0b84980196864d92dea915c67" target="_top" xlink:title=" ">
<polygon fill="white" stroke="#666666" points="232.25,-111.25 93.25,-111.25 93.25,-92 232.25,-92 232.25,-111.25"/>
<text text-anchor="middle" x="162.75" y="-97.75" font-family="Helvetica,sans-Serif" font-size="10.00">Cell::Evaluate_FluxonFaces</text>
</a>
</g>
</g>
<!-- Node1&#45;&gt;Node2 -->
<g id="edge1_Node000001_Node000002" class="edge">
<title>Node1&#45;&gt;Node2</title>
<g id="a_edge1_Node000001_Node000002"><a xlink:title=" ">
<path fill="none" stroke="#63b8ff" d="M57.65,-72.47C74.24,-77.12 95.68,-83.12 114.79,-88.48"/>
<polygon fill="#63b8ff" stroke="#63b8ff" points="113.69,-91.8 124.27,-91.13 115.58,-85.06 113.69,-91.8"/>
</a>
</g>
</g>
<!-- Node25 -->
<g id="Node000025" class="node">
<title>Node25</title>
<g id="a_Node000025"><a xlink:href="../../dc/d9f/struct_cell_a49a1db077f0252924d12b23e4ead11fe.html#a49a1db077f0252924d12b23e4ead11fe" target="_top" xlink:title=" ">
<polygon fill="white" stroke="#666666" points="201.88,-56.25 123.62,-56.25 123.62,-37 201.88,-37 201.88,-56.25"/>
<text text-anchor="middle" x="162.75" y="-42.75" font-family="Helvetica,sans-Serif" font-size="10.00">Cell::UpdateQ</text>
</a>
</g>
</g>
<!-- Node1&#45;&gt;Node25 -->
<g id="edge30_Node000001_Node000025" class="edge">
<title>Node1&#45;&gt;Node25</title>
<g id="a_edge30_Node000001_Node000025"><a xlink:title=" ">
<path fill="none" stroke="#63b8ff" d="M57.65,-60.81C73.45,-58.65 93.67,-55.9 112.08,-53.39"/>
<polygon fill="#63b8ff" stroke="#63b8ff" points="112.31,-56.89 121.75,-52.07 111.36,-49.96 112.31,-56.89"/>
</a>
</g>
</g>
<!-- Node3 -->
<g id="Node000003" class="node">
<title>Node3</title>
<g id="a_Node000003"><a xlink:href="../../dc/d9f/struct_cell_a12ca155558738e6524acc1ebb38126b4.html#a12ca155558738e6524acc1ebb38126b4" target="_top" xlink:title=" ">
<polygon fill="white" stroke="#666666" points="382.88,-93.25 291.88,-93.25 291.88,-74 382.88,-74 382.88,-93.25"/>
<text text-anchor="middle" x="337.38" y="-79.75" font-family="Helvetica,sans-Serif" font-size="10.00">Cell::Add_Fluxes</text>
</a>
</g>
</g>
<!-- Node2&#45;&gt;Node3 -->
<g id="edge2_Node000002_Node000003" class="edge">
<title>Node2&#45;&gt;Node3</title>
<g id="a_edge2_Node000002_Node000003"><a xlink:title=" ">
<path fill="none" stroke="#63b8ff" d="M232.47,-94.46C248.28,-92.81 264.91,-91.08 280.12,-89.49"/>
<polygon fill="#63b8ff" stroke="#63b8ff" points="280.35,-92.99 289.93,-88.47 279.62,-86.02 280.35,-92.99"/>
</a>
</g>
</g>
<!-- Node4 -->
<g id="Node000004" class="node">
<title>Node4</title>
<g id="a_Node000004"><a xlink:href="../../dc/d9f/struct_cell_af7944559b958e7f02bf804adfd482a70.html#af7944559b958e7f02bf804adfd482a70" target="_top" xlink:title=" ">
<polygon fill="white" stroke="#666666" points="391.88,-56.25 282.88,-56.25 282.88,-37 391.88,-37 391.88,-56.25"/>
<text text-anchor="middle" x="337.38" y="-42.75" font-family="Helvetica,sans-Serif" font-size="10.00">Cell::Cal_Q_Gradient</text>
</a>
</g>
</g>
<!-- Node2&#45;&gt;Node4 -->
<g id="edge3_Node000002_Node000004" class="edge">
<title>Node2&#45;&gt;Node4</title>
<g id="a_edge3_Node000002_Node000004"><a xlink:title=" ">
<path fill="none" stroke="#63b8ff" d="M190.18,-91.59C211.19,-83.78 241.4,-72.91 268.25,-64.62 273.66,-62.95 279.35,-61.3 285.03,-59.71"/>
<polygon fill="#63b8ff" stroke="#63b8ff" points="285.69,-63.16 294.41,-57.14 283.84,-56.4 285.69,-63.16"/>
</a>
</g>
</g>
<!-- Node7 -->
<g id="Node000007" class="node">
<title>Node7</title>
<g id="a_Node000007"><a xlink:href="../../d5/d2a/class_face_a7edd7ef2c3e6faf1d13c186536039f60.html#a7edd7ef2c3e6faf1d13c186536039f60" target="_top" xlink:title=" ">
<polygon fill="white" stroke="#666666" points="396,-268.25 278.75,-268.25 278.75,-249 396,-249 396,-268.25"/>
<text text-anchor="middle" x="337.38" y="-254.75" font-family="Helvetica,sans-Serif" font-size="10.00">Face::Flux_From_Face</text>
</a>
</g>
</g>
<!-- Node2&#45;&gt;Node7 -->
<g id="edge6_Node000002_Node000007" class="edge">
<title>Node2&#45;&gt;Node7</title>
<g id="a_edge6_Node000002_Node000007"><a xlink:title=" ">
<path fill="none" stroke="#63b8ff" d="M174.81,-111.68C203.62,-137.89 281.25,-208.49 317.39,-241.36"/>
<polygon fill="#63b8ff" stroke="#63b8ff" points="314.75,-243.69 324.51,-247.83 319.46,-238.51 314.75,-243.69"/>
</a>
</g>
</g>
<!-- Node19 -->
<g id="Node000019" class="node">
<title>Node19</title>
<g id="a_Node000019"><a xlink:href="../../dc/d9f/struct_cell_aae926146b2f52f029d3d28ec9174136e.html#aae926146b2f52f029d3d28ec9174136e" target="_top" xlink:title=" ">
<polygon fill="white" stroke="#666666" points="398.25,-167.25 276.5,-167.25 276.5,-148 398.25,-148 398.25,-167.25"/>
<text text-anchor="middle" x="337.38" y="-153.75" font-family="Helvetica,sans-Serif" font-size="10.00">Cell::Get_Cell_Pressure</text>
</a>
</g>
</g>
<!-- Node2&#45;&gt;Node19 -->
<g id="edge23_Node000002_Node000019" class="edge">
<title>Node2&#45;&gt;Node19</title>
<g id="a_edge23_Node000002_Node000019"><a xlink:title=" ">
<path fill="none" stroke="#63b8ff" d="M189.3,-111.65C210.32,-119.72 240.99,-131.09 268.25,-139.62 273.66,-141.32 279.34,-142.99 285.01,-144.59"/>
<polygon fill="#63b8ff" stroke="#63b8ff" points="283.83,-147.89 294.4,-147.16 285.68,-141.14 283.83,-147.89"/>
</a>
</g>
</g>
<!-- Node20 -->
<g id="Node000020" class="node">
<title>Node20</title>
<g id="a_Node000020"><a xlink:href="../../dc/d9f/struct_cell_a65a6f31fc7a451a50c9908c80e20033c.html#a65a6f31fc7a451a50c9908c80e20033c" target="_top" xlink:title=" ">
<polygon fill="white" stroke="#666666" points="406.5,-130.25 268.25,-130.25 268.25,-111 406.5,-111 406.5,-130.25"/>
<text text-anchor="middle" x="337.38" y="-116.75" font-family="Helvetica,sans-Serif" font-size="10.00">Cell::Velocity_GradatCenter</text>
</a>
</g>
</g>
<!-- Node2&#45;&gt;Node20 -->
<g id="edge24_Node000002_Node000020" class="edge">
<title>Node2&#45;&gt;Node20</title>
<g id="a_edge24_Node000002_Node000020"><a xlink:title=" ">
<path fill="none" stroke="#63b8ff" d="M232.47,-109.19C240.4,-110.06 248.53,-110.96 256.58,-111.84"/>
<polygon fill="#63b8ff" stroke="#63b8ff" points="256.06,-115.31 266.39,-112.92 256.83,-108.35 256.06,-115.31"/>
</a>
</g>
</g>
<!-- Node5 -->
<g id="Node000005" class="node">
<title>Node5</title>
<g id="a_Node000005"><a xlink:href="../../d5/db2/class_vector_a65059ef72da0ea37db05d7235e91f3b6.html#a65059ef72da0ea37db05d7235e91f3b6" target="_top" xlink:title=" ">
<polygon fill="white" stroke="#666666" points="555.25,-56.25 481.5,-56.25 481.5,-37 555.25,-37 555.25,-56.25"/>
<text text-anchor="middle" x="518.38" y="-42.75" font-family="Helvetica,sans-Serif" font-size="10.00">Vector::Clear</text>
</a>
</g>
</g>
<!-- Node4&#45;&gt;Node5 -->
<g id="edge4_Node000004_Node000005" class="edge">
<title>Node4&#45;&gt;Node5</title>
<g id="a_edge4_Node000004_Node000005"><a xlink:title=" ">
<path fill="none" stroke="#63b8ff" d="M392.08,-46.62C416.86,-46.62 446.02,-46.62 469.97,-46.62"/>
<polygon fill="#63b8ff" stroke="#63b8ff" points="469.76,-50.13 479.76,-46.63 469.76,-43.13 469.76,-50.13"/>
</a>
</g>
</g>
<!-- Node6 -->
<g id="Node000006" class="node">
<title>Node6</title>
<g id="a_Node000006"><a xlink:href="../../d5/d2a/class_face_a19f810b927960c6f82aefb36395b5c81.html#a19f810b927960c6f82aefb36395b5c81" target="_top" xlink:title=" ">
<polygon fill="white" stroke="#666666" points="564.25,-19.25 472.5,-19.25 472.5,0 564.25,0 564.25,-19.25"/>
<text text-anchor="middle" x="518.38" y="-5.75" font-family="Helvetica,sans-Serif" font-size="10.00">Face::Get_QnDS</text>
</a>
</g>
</g>
<!-- Node4&#45;&gt;Node6 -->
<g id="edge5_Node000004_Node000006" class="edge">
<title>Node4&#45;&gt;Node6</title>
<g id="a_edge5_Node000004_Node000006"><a xlink:title=" ">
<path fill="none" stroke="#63b8ff" d="M387.29,-36.51C410.16,-31.79 437.53,-26.13 461.24,-21.23"/>
<polygon fill="#63b8ff" stroke="#63b8ff" points="461.64,-24.72 470.72,-19.27 460.22,-17.86 461.64,-24.72"/>
</a>
</g>
</g>
<!-- Node8 -->
<g id="Node000008" class="node">
<title>Node8</title>
<g id="a_Node000008"><a xlink:href="../../d5/d2a/class_face_a8bf8d82bb997ead9e413ffe50b53516b.html#a8bf8d82bb997ead9e413ffe50b53516b" target="_top" xlink:title=" ">
<polygon fill="white" stroke="#666666" points="594.25,-327.25 442.5,-327.25 442.5,-308 594.25,-308 594.25,-327.25"/>
<text text-anchor="middle" x="518.38" y="-313.75" font-family="Helvetica,sans-Serif" font-size="10.00">Face::Flux_From_Face_AUSM</text>
</a>
</g>
</g>
<!-- Node7&#45;&gt;Node8 -->
<g id="edge7_Node000007_Node000008" class="edge">
<title>Node7&#45;&gt;Node8</title>
<g id="a_edge7_Node000007_Node000008"><a xlink:title=" ">
<path fill="none" stroke="#63b8ff" d="M361.2,-268.68C382.08,-277.62 413.97,-290.63 442.5,-299.62 448.24,-301.43 454.27,-303.16 460.32,-304.79"/>
<polygon fill="#63b8ff" stroke="#63b8ff" points="459.14,-308.1 469.7,-307.2 460.89,-301.32 459.14,-308.1"/>
</a>
</g>
</g>
<!-- Node17 -->
<g id="Node000017" class="node">
<title>Node17</title>
<g id="a_Node000017"><a xlink:href="../../d5/d2a/class_face_ac4c4a64de5a6e3a3fbc08a00392e251b.html#ac4c4a64de5a6e3a3fbc08a00392e251b" target="_top" xlink:title=" ">
<polygon fill="white" stroke="#666666" points="577,-252.88 459.75,-252.88 459.75,-222.38 577,-222.38 577,-252.88"/>
<text text-anchor="start" x="467.75" y="-239.38" font-family="Helvetica,sans-Serif" font-size="10.00">Face::Flux_From_Face</text>
<text text-anchor="middle" x="518.38" y="-228.12" font-family="Helvetica,sans-Serif" font-size="10.00">_Central</text>
</a>
</g>
</g>
<!-- Node7&#45;&gt;Node17 -->
<g id="edge16_Node000007_Node000017" class="edge">
<title>Node7&#45;&gt;Node17</title>
<g id="a_edge16_Node000007_Node000017"><a xlink:title=" ">
<path fill="none" stroke="#63b8ff" d="M396.49,-251.81C413.07,-249.86 431.3,-247.72 448.46,-245.71"/>
<polygon fill="#63b8ff" stroke="#63b8ff" points="448.52,-249.23 458.05,-244.59 447.71,-242.27 448.52,-249.23"/>
</a>
</g>
</g>
<!-- Node18 -->
<g id="Node000018" class="node">
<title>Node18</title>
<g id="a_Node000018"><a xlink:href="../../d5/d2a/class_face_a3560cd5db824a402bf5c380f8ada5bb2.html#a3560cd5db824a402bf5c380f8ada5bb2" target="_top" xlink:title=" ">
<polygon fill="white" stroke="#666666" points="585.62,-290.25 451.12,-290.25 451.12,-271 585.62,-271 585.62,-290.25"/>
<text text-anchor="middle" x="518.38" y="-276.75" font-family="Helvetica,sans-Serif" font-size="10.00">Face::Flux_From_Face_VL</text>
</a>
</g>
</g>
<!-- Node7&#45;&gt;Node18 -->
<g id="edge18_Node000007_Node000018" class="edge">
<title>Node7&#45;&gt;Node18</title>
<g id="a_edge18_Node000007_Node000018"><a xlink:title=" ">
<path fill="none" stroke="#63b8ff" d="M396.49,-265.77C410.32,-267.47 425.29,-269.31 439.84,-271.1"/>
<polygon fill="#63b8ff" stroke="#63b8ff" points="439,-274.52 449.35,-272.26 439.85,-267.57 439,-274.52"/>
</a>
</g>
</g>
<!-- Node9 -->
<g id="Node000009" class="node">
<title>Node9</title>
<g id="a_Node000009"><a xlink:href="../../d5/d2a/class_face_a28f4009e42e1ac60082a6952566a31aa.html#a28f4009e42e1ac60082a6952566a31aa" target="_top" xlink:title=" ">
<polygon fill="white" stroke="#666666" points="744.5,-250.25 642.25,-250.25 642.25,-231 744.5,-231 744.5,-250.25"/>
<text text-anchor="middle" x="693.38" y="-236.75" font-family="Helvetica,sans-Serif" font-size="10.00">Face::Cal_Primitive</text>
</a>
</g>
</g>
<!-- Node8&#45;&gt;Node9 -->
<g id="edge8_Node000008_Node000009" class="edge">
<title>Node8&#45;&gt;Node9</title>
<g id="a_edge8_Node000008_Node000009"><a xlink:title=" ">
<path fill="none" stroke="#63b8ff" d="M577.24,-307.58C583.19,-305.42 588.98,-302.8 594.25,-299.62 615.01,-287.09 609.78,-271.63 630.25,-258.62 632.1,-257.45 634.03,-256.35 636.01,-255.32"/>
<polygon fill="#63b8ff" stroke="#63b8ff" points="637.2,-258.62 644.9,-251.35 634.35,-252.23 637.2,-258.62"/>
</a>
</g>
</g>
<!-- Node10 -->
<g id="Node000010" class="node">
<title>Node10</title>
<g id="a_Node000010"><a xlink:href="../../d5/d2a/class_face_a80cd45164e8eda621558150d70999601.html#a80cd45164e8eda621558150d70999601" target="_top" xlink:title=" ">
<polygon fill="white" stroke="#666666" points="749,-361.25 637.75,-361.25 637.75,-342 749,-342 749,-361.25"/>
<text text-anchor="middle" x="693.38" y="-347.75" font-family="Helvetica,sans-Serif" font-size="10.00">Face::Evaluate_Mach</text>
</a>
</g>
</g>
<!-- Node8&#45;&gt;Node10 -->
<g id="edge9_Node000008_Node000010" class="edge">
<title>Node8&#45;&gt;Node10</title>
<g id="a_edge9_Node000008_Node000010"><a xlink:title=" ">
<path fill="none" stroke="#63b8ff" d="M570.81,-327.73C589.38,-331.38 610.54,-335.54 629.95,-339.36"/>
<polygon fill="#63b8ff" stroke="#63b8ff" points="629.16,-342.77 639.65,-341.26 630.51,-335.9 629.16,-342.77"/>
</a>
</g>
</g>
<!-- Node11 -->
<g id="Node000011" class="node">
<title>Node11</title>
<g id="a_Node000011"><a xlink:href="../../d5/d2a/class_face_a7b7a45322054b3094ca16809d72cc9f1.html#a7b7a45322054b3094ca16809d72cc9f1" target="_top" xlink:title=" ">
<polygon fill="white" stroke="#666666" points="756.5,-398.25 630.25,-398.25 630.25,-379 756.5,-379 756.5,-398.25"/>
<text text-anchor="middle" x="693.38" y="-384.75" font-family="Helvetica,sans-Serif" font-size="10.00">Face::Evaluate_Pressure</text>
</a>
</g>
</g>
<!-- Node8&#45;&gt;Node11 -->
<g id="edge10_Node000008_Node000011" class="edge">
<title>Node8&#45;&gt;Node11</title>
<g id="a_edge10_Node000008_Node000011"><a xlink:title=" ">
<path fill="none" stroke="#63b8ff" d="M537.8,-327.58C559.47,-339.03 596.75,-357.87 630.25,-370.62 634.38,-372.2 638.71,-373.71 643.08,-375.15"/>
<polygon fill="#63b8ff" stroke="#63b8ff" points="641.9,-378.45 652.49,-378.1 644,-371.77 641.9,-378.45"/>
</a>
</g>
</g>
<!-- Node12 -->
<g id="Node000012" class="node">
<title>Node12</title>
<g id="a_Node000012"><a xlink:href="../../d5/d2a/class_face_a1dcbb73e92699148519e558ae989117f.html#a1dcbb73e92699148519e558ae989117f" target="_top" xlink:title=" ">
<polygon fill="white" stroke="#666666" points="748.25,-324.25 638.5,-324.25 638.5,-305 748.25,-305 748.25,-324.25"/>
<text text-anchor="middle" x="693.38" y="-310.75" font-family="Helvetica,sans-Serif" font-size="10.00">Face::Find_Gradients</text>
</a>
</g>
</g>
<!-- Node8&#45;&gt;Node12 -->
<g id="edge11_Node000008_Node000012" class="edge">
<title>Node8&#45;&gt;Node12</title>
<g id="a_edge11_Node000008_Node000012"><a xlink:title=" ">
<path fill="none" stroke="#63b8ff" d="M594.5,-316.32C605.28,-316.14 616.3,-315.94 626.88,-315.76"/>
<polygon fill="#63b8ff" stroke="#63b8ff" points="626.7,-319.26 636.63,-315.59 626.57,-312.27 626.7,-319.26"/>
</a>
</g>
</g>
<!-- Node16 -->
<g id="Node000016" class="node">
<title>Node16</title>
<g id="a_Node000016"><a xlink:href="../../dc/d9f/struct_cell_af37bc52fb84ad9749bddb65f09d837b5.html#af37bc52fb84ad9749bddb65f09d837b5" target="_top" xlink:title=" ">
<polygon fill="white" stroke="#666666" points="754.62,-287.25 632.12,-287.25 632.12,-268 754.62,-268 754.62,-287.25"/>
<text text-anchor="middle" x="693.38" y="-273.75" font-family="Helvetica,sans-Serif" font-size="10.00">Cell::Get_QatCellCenter</text>
</a>
</g>
</g>
<!-- Node8&#45;&gt;Node16 -->
<g id="edge15_Node000008_Node000016" class="edge">
<title>Node8&#45;&gt;Node16</title>
<g id="a_edge15_Node000008_Node000016"><a xlink:title=" ">
<path fill="none" stroke="#63b8ff" d="M563.03,-307.53C585.67,-302.3 613.55,-295.85 637.62,-290.29"/>
<polygon fill="#63b8ff" stroke="#63b8ff" points="638.3,-293.72 647.26,-288.06 636.73,-286.9 638.3,-293.72"/>
</a>
</g>
</g>
<!-- Node13 -->
<g id="Node000013" class="node">
<title>Node13</title>
<g id="a_Node000013"><a xlink:href="../../d5/d2a/class_face_ae6a98fe15c04148426e9875ad29f03cc.html#ae6a98fe15c04148426e9875ad29f03cc" target="_top" xlink:title=" ">
<polygon fill="white" stroke="#666666" points="918.38,-361.25 805.62,-361.25 805.62,-342 918.38,-342 918.38,-361.25"/>
<text text-anchor="middle" x="862" y="-347.75" font-family="Helvetica,sans-Serif" font-size="10.00">Face::Scalar_dot_ndS</text>
</a>
</g>
</g>
<!-- Node12&#45;&gt;Node13 -->
<g id="edge12_Node000012_Node000013" class="edge">
<title>Node12&#45;&gt;Node13</title>
<g id="a_edge12_Node000012_Node000013"><a xlink:title=" ">
<path fill="none" stroke="#63b8ff" d="M739.91,-324.74C759.84,-329.16 783.42,-334.4 804.46,-339.07"/>
<polygon fill="#63b8ff" stroke="#63b8ff" points="803.53,-342.45 814.05,-341.2 805.04,-335.61 803.53,-342.45"/>
</a>
</g>
</g>
<!-- Node14 -->
<g id="Node000014" class="node">
<title>Node14</title>
<g id="a_Node000014"><a xlink:href="../../d5/d2a/class_face_a7dbfe0e14e693127d4d75dd68f879f99.html#a7dbfe0e14e693127d4d75dd68f879f99" target="_top" xlink:title=" ">
<polygon fill="white" stroke="#666666" points="931.5,-324.25 792.5,-324.25 792.5,-305 931.5,-305 931.5,-324.25"/>
<text text-anchor="middle" x="862" y="-310.75" font-family="Helvetica,sans-Serif" font-size="10.00">Face::Thermal_Conductivity</text>
</a>
</g>
</g>
<!-- Node12&#45;&gt;Node14 -->
<g id="edge13_Node000012_Node000014" class="edge">
<title>Node12&#45;&gt;Node14</title>
<g id="a_edge13_Node000012_Node000014"><a xlink:title=" ">
<path fill="none" stroke="#63b8ff" d="M748.47,-314.62C758.84,-314.62 769.9,-314.62 780.88,-314.62"/>
<polygon fill="#63b8ff" stroke="#63b8ff" points="780.76,-318.13 790.76,-314.63 780.76,-311.13 780.76,-318.13"/>
</a>
</g>
</g>
<!-- Node15 -->
<g id="Node000015" class="node">
<title>Node15</title>
<g id="a_Node000015"><a xlink:href="../../d5/d2a/class_face_a658f439bcdacbf424d659be66ae7bce7.html#a658f439bcdacbf424d659be66ae7bce7" target="_top" xlink:title=" ">
<polygon fill="white" stroke="#666666" points="904.12,-287.25 819.88,-287.25 819.88,-268 904.12,-268 904.12,-287.25"/>
<text text-anchor="middle" x="862" y="-273.75" font-family="Helvetica,sans-Serif" font-size="10.00">Face::Viscosity</text>
</a>
</g>
</g>
<!-- Node12&#45;&gt;Node15 -->
<g id="edge14_Node000012_Node000015" class="edge">
<title>Node12&#45;&gt;Node15</title>
<g id="a_edge14_Node000012_Node000015"><a xlink:title=" ">
<path fill="none" stroke="#63b8ff" d="M739.91,-304.51C761.08,-299.81 786.37,-294.2 808.36,-289.31"/>
<polygon fill="#63b8ff" stroke="#63b8ff" points="809.04,-292.75 818.04,-287.16 807.52,-285.92 809.04,-292.75"/>
</a>
</g>
</g>
<!-- Node17&#45;&gt;Node9 -->
<g id="edge17_Node000017_Node000009" class="edge">
<title>Node17&#45;&gt;Node9</title>
<g id="a_edge17_Node000017_Node000009"><a xlink:title=" ">
<path fill="none" stroke="#63b8ff" d="M577.46,-238.63C594.61,-238.93 613.44,-239.26 630.8,-239.56"/>
<polygon fill="#63b8ff" stroke="#63b8ff" points="630.4,-243.05 640.46,-239.72 630.52,-236.05 630.4,-243.05"/>
</a>
</g>
</g>
<!-- Node18&#45;&gt;Node9 -->
<g id="edge19_Node000018_Node000009" class="edge">
<title>Node18&#45;&gt;Node9</title>
<g id="a_edge19_Node000018_Node000009"><a xlink:title=" ">
<path fill="none" stroke="#63b8ff" d="M563.03,-270.53C585.67,-265.3 613.55,-258.85 637.62,-253.29"/>
<polygon fill="#63b8ff" stroke="#63b8ff" points="638.3,-256.72 647.26,-251.06 636.73,-249.9 638.3,-256.72"/>
</a>
</g>
</g>
<!-- Node18&#45;&gt;Node10 -->
<g id="edge20_Node000018_Node000010" class="edge">
<title>Node18&#45;&gt;Node10</title>
<g id="a_edge20_Node000018_Node000010"><a xlink:title=" ">
<path fill="none" stroke="#63b8ff" d="M575.82,-290.7C582.23,-292.85 588.51,-295.46 594.25,-298.62 613.79,-309.39 610.96,-322.41 630.25,-333.62 632.42,-334.89 634.68,-336.06 637.01,-337.16"/>
<polygon fill="#63b8ff" stroke="#63b8ff" points="635.52,-340.34 646.1,-340.92 638.19,-333.87 635.52,-340.34"/>
</a>
</g>
</g>
<!-- Node18&#45;&gt;Node12 -->
<g id="edge21_Node000018_Node000012" class="edge">
<title>Node18&#45;&gt;Node12</title>
<g id="a_edge21_Node000018_Node000012"><a xlink:title=" ">
<path fill="none" stroke="#63b8ff" d="M570.81,-290.73C589.38,-294.38 610.54,-298.54 629.95,-302.36"/>
<polygon fill="#63b8ff" stroke="#63b8ff" points="629.16,-305.77 639.65,-304.26 630.51,-298.9 629.16,-305.77"/>
</a>
</g>
</g>
<!-- Node18&#45;&gt;Node16 -->
<g id="edge22_Node000018_Node000016" class="edge">
<title>Node18&#45;&gt;Node16</title>
<g id="a_edge22_Node000018_Node000016"><a xlink:title=" ">
<path fill="none" stroke="#63b8ff" d="M585.77,-279.47C597.13,-279.28 608.98,-279.07 620.48,-278.87"/>
<polygon fill="#63b8ff" stroke="#63b8ff" points="620.38,-282.37 630.32,-278.7 620.26,-275.38 620.38,-282.37"/>
</a>
</g>
</g>
<!-- Node20&#45;&gt;Node5 -->
<g id="edge25_Node000020_Node000005" class="edge">
<title>Node20&#45;&gt;Node5</title>
<g id="a_edge25_Node000020_Node000005"><a xlink:title=" ">
<path fill="none" stroke="#63b8ff" d="M389.14,-110.61C395.2,-108.44 401.13,-105.81 406.5,-102.62 426.51,-90.76 422.36,-76.27 442.5,-64.62 450.9,-59.77 460.56,-56.22 470.09,-53.62"/>
<polygon fill="#63b8ff" stroke="#63b8ff" points="470.73,-57.07 479.65,-51.35 469.11,-50.26 470.73,-57.07"/>
</a>
</g>
</g>
<!-- Node21 -->
<g id="Node000021" class="node">
<title>Node21</title>
<g id="a_Node000021"><a xlink:href="../../d5/d2a/class_face_a05485559cf65d981de1fb06208ca23ce.html#a05485559cf65d981de1fb06208ca23ce" target="_top" xlink:title=" ">
<polygon fill="white" stroke="#666666" points="575.88,-204.25 460.88,-204.25 460.88,-185 575.88,-185 575.88,-204.25"/>
<text text-anchor="middle" x="518.38" y="-190.75" font-family="Helvetica,sans-Serif" font-size="10.00">Face::Get_Face_TndS</text>
</a>
</g>
</g>
<!-- Node20&#45;&gt;Node21 -->
<g id="edge26_Node000020_Node000021" class="edge">
<title>Node20&#45;&gt;Node21</title>
<g id="a_edge26_Node000020_Node000021"><a xlink:title=" ">
<path fill="none" stroke="#63b8ff" d="M389.14,-130.64C395.2,-132.81 401.13,-135.44 406.5,-138.62 426.51,-150.49 422.36,-164.98 442.5,-176.62 444.84,-177.98 447.29,-179.23 449.79,-180.39"/>
<polygon fill="#63b8ff" stroke="#63b8ff" points="448.42,-183.61 459.01,-184.08 451.03,-177.12 448.42,-183.61"/>
</a>
</g>
</g>
<!-- Node22 -->
<g id="Node000022" class="node">
<title>Node22</title>
<g id="a_Node000022"><a xlink:href="../../d5/d2a/class_face_aaa668000a8eb31366c9333d326f7a2d0.html#aaa668000a8eb31366c9333d326f7a2d0" target="_top" xlink:title=" ">
<polygon fill="white" stroke="#666666" points="575.5,-167.25 461.25,-167.25 461.25,-148 575.5,-148 575.5,-167.25"/>
<text text-anchor="middle" x="518.38" y="-153.75" font-family="Helvetica,sans-Serif" font-size="10.00">Face::Get_Face_undS</text>
</a>
</g>
</g>
<!-- Node20&#45;&gt;Node22 -->
<g id="edge27_Node000020_Node000022" class="edge">
<title>Node20&#45;&gt;Node22</title>
<g id="a_edge27_Node000020_Node000022"><a xlink:title=" ">
<path fill="none" stroke="#63b8ff" d="M387.29,-130.74C408.89,-135.2 434.5,-140.5 457.26,-145.2"/>
<polygon fill="#63b8ff" stroke="#63b8ff" points="456.54,-148.62 467.04,-147.22 457.95,-141.77 456.54,-148.62"/>
</a>
</g>
</g>
<!-- Node23 -->
<g id="Node000023" class="node">
<title>Node23</title>
<g id="a_Node000023"><a xlink:href="../../d5/d2a/class_face_af5ae2d774dbe2dd917de1ad630470a17.html#af5ae2d774dbe2dd917de1ad630470a17" target="_top" xlink:title=" ">
<polygon fill="white" stroke="#666666" points="575.5,-130.25 461.25,-130.25 461.25,-111 575.5,-111 575.5,-130.25"/>
<text text-anchor="middle" x="518.38" y="-116.75" font-family="Helvetica,sans-Serif" font-size="10.00">Face::Get_Face_vndS</text>
</a>
</g>
</g>
<!-- Node20&#45;&gt;Node23 -->
<g id="edge28_Node000020_Node000023" class="edge">
<title>Node20&#45;&gt;Node23</title>
<g id="a_edge28_Node000020_Node000023"><a xlink:title=" ">
<path fill="none" stroke="#63b8ff" d="M406.81,-120.62C420.77,-120.62 435.45,-120.62 449.39,-120.62"/>
<polygon fill="#63b8ff" stroke="#63b8ff" points="449.38,-124.13 459.38,-120.63 449.38,-117.13 449.38,-124.13"/>
</a>
</g>
</g>
<!-- Node24 -->
<g id="Node000024" class="node">
<title>Node24</title>
<g id="a_Node000024"><a xlink:href="../../d5/d2a/class_face_a944ff71ee4a44ca30b68175d5a5e2a08.html#a944ff71ee4a44ca30b68175d5a5e2a08" target="_top" xlink:title=" ">
<polygon fill="white" stroke="#666666" points="576.62,-93.25 460.12,-93.25 460.12,-74 576.62,-74 576.62,-93.25"/>
<text text-anchor="middle" x="518.38" y="-79.75" font-family="Helvetica,sans-Serif" font-size="10.00">Face::Get_Face_wndS</text>
</a>
</g>
</g>
<!-- Node20&#45;&gt;Node24 -->
<g id="edge29_Node000020_Node000024" class="edge">
<title>Node20&#45;&gt;Node24</title>
<g id="a_edge29_Node000020_Node000024"><a xlink:title=" ">
<path fill="none" stroke="#63b8ff" d="M387.29,-110.51C408.89,-106.05 434.5,-100.75 457.26,-96.05"/>
<polygon fill="#63b8ff" stroke="#63b8ff" points="457.95,-99.48 467.04,-94.03 456.54,-92.63 457.95,-99.48"/>
</a>
</g>
</g>
<!-- Node26 -->
<g id="Node000026" class="node">
<title>Node26</title>
<g id="a_Node000026"><a xlink:href="../../dc/d9f/struct_cell_a35016561ae6bc3f9d05ed0c2ecab3f91.html#a35016561ae6bc3f9d05ed0c2ecab3f91" target="_top" xlink:title=" ">
<polygon fill="white" stroke="#666666" points="386.25,-19.25 288.5,-19.25 288.5,0 386.25,0 386.25,-19.25"/>
<text text-anchor="middle" x="337.38" y="-5.75" font-family="Helvetica,sans-Serif" font-size="10.00">Cell::Cal_Primitive</text>
</a>
</g>
</g>
<!-- Node25&#45;&gt;Node26 -->
<g id="edge31_Node000025_Node000026" class="edge">
<title>Node25&#45;&gt;Node26</title>
<g id="a_edge31_Node000025_Node000026"><a xlink:title=" ">
<path fill="none" stroke="#63b8ff" d="M202.06,-38.41C224.37,-33.63 252.95,-27.51 278.01,-22.13"/>
<polygon fill="#63b8ff" stroke="#63b8ff" points="278.72,-25.56 287.76,-20.04 277.25,-18.72 278.72,-25.56"/>
</a>
</g>
</g>
</g>
</svg>
