<?xml version="1.0" encoding="UTF-8" standalone="no"?>
<!DOCTYPE svg PUBLIC "-//W3C//DTD SVG 1.1//EN"
 "http://www.w3.org/Graphics/SVG/1.1/DTD/svg11.dtd">
<!-- Generated by graphviz version 12.2.1 (20241206.2353)
 -->
<!-- Title: Cell::Test_Fluxes Pages: 1 -->
<svg width="779pt" height="212pt"
 viewBox="0.00 0.00 778.75 212.25" xmlns="http://www.w3.org/2000/svg" xmlns:xlink="http://www.w3.org/1999/xlink">
<g id="graph0" class="graph" transform="scale(1 1) rotate(0) translate(4 208.25)">
<title>Cell::Test_Fluxes</title>
<!-- Node1 -->
<g id="Node000001" class="node">
<title>Node1</title>
<g id="a_Node000001"><a xlink:title=" ">
<polygon fill="#999999" stroke="#666666" points="92.5,-111.25 0,-111.25 0,-92 92.5,-92 92.5,-111.25"/>
<text text-anchor="middle" x="46.25" y="-97.75" font-family="Helvetica,sans-Serif" font-size="10.00">Cell::Test_Fluxes</text>
</a>
</g>
</g>
<!-- Node2 -->
<g id="Node000002" class="node">
<title>Node2</title>
<g id="a_Node000002"><a xlink:href="../../d5/d2a/class_face_a7edd7ef2c3e6faf1d13c186536039f60.html#a7edd7ef2c3e6faf1d13c186536039f60" target="_top" xlink:title=" ">
<polygon fill="white" stroke="#666666" points="245.75,-130.25 128.5,-130.25 128.5,-111 245.75,-111 245.75,-130.25"/>
<text text-anchor="middle" x="187.12" y="-116.75" font-family="Helvetica,sans-Serif" font-size="10.00">Face::Flux_From_Face</text>
</a>
</g>
</g>
<!-- Node1&#45;&gt;Node2 -->
<g id="edge1_Node000001_Node000002" class="edge">
<title>Node1&#45;&gt;Node2</title>
<g id="a_edge1_Node000001_Node000002"><a xlink:title=" ">
<path fill="none" stroke="#63b8ff" d="M92.72,-107.85C100.55,-108.92 108.85,-110.05 117.14,-111.19"/>
<polygon fill="#63b8ff" stroke="#63b8ff" points="116.5,-114.63 126.89,-112.52 117.45,-107.7 116.5,-114.63"/>
</a>
</g>
</g>
<!-- Node16 -->
<g id="Node000016" class="node">
<title>Node16</title>
<g id="a_Node000016"><a xlink:href="../../dc/d9f/struct_cell_a5ce34390b897851c0d105e08f0694ea8.html#a5ce34390b897851c0d105e08f0694ea8" target="_top" xlink:title=" ">
<polygon fill="white" stroke="#666666" points="228.12,-93.25 146.12,-93.25 146.12,-74 228.12,-74 228.12,-93.25"/>
<text text-anchor="middle" x="187.12" y="-79.75" font-family="Helvetica,sans-Serif" font-size="10.00">Cell::Get_Face</text>
</a>
</g>
</g>
<!-- Node1&#45;&gt;Node16 -->
<g id="edge20_Node000001_Node000016" class="edge">
<title>Node1&#45;&gt;Node16</title>
<g id="a_edge20_Node000001_Node000016"><a xlink:title=" ">
<path fill="none" stroke="#63b8ff" d="M92.72,-95.73C106.07,-94 120.77,-92.1 134.47,-90.32"/>
<polygon fill="#63b8ff" stroke="#63b8ff" points="134.73,-93.82 144.2,-89.06 133.83,-86.87 134.73,-93.82"/>
</a>
</g>
</g>
<!-- Node3 -->
<g id="Node000003" class="node">
<title>Node3</title>
<g id="a_Node000003"><a xlink:href="../../d5/d2a/class_face_a8bf8d82bb997ead9e413ffe50b53516b.html#a8bf8d82bb997ead9e413ffe50b53516b" target="_top" xlink:title=" ">
<polygon fill="white" stroke="#666666" points="433.5,-93.25 281.75,-93.25 281.75,-74 433.5,-74 433.5,-93.25"/>
<text text-anchor="middle" x="357.62" y="-79.75" font-family="Helvetica,sans-Serif" font-size="10.00">Face::Flux_From_Face_AUSM</text>
</a>
</g>
</g>
<!-- Node2&#45;&gt;Node3 -->
<g id="edge2_Node000002_Node000003" class="edge">
<title>Node2&#45;&gt;Node3</title>
<g id="a_edge2_Node000002_Node000003"><a xlink:title=" ">
<path fill="none" stroke="#63b8ff" d="M234.17,-110.51C254.32,-106.09 278.18,-100.85 299.45,-96.18"/>
<polygon fill="#63b8ff" stroke="#63b8ff" points="300.14,-99.61 309.16,-94.05 298.64,-92.77 300.14,-99.61"/>
</a>
</g>
</g>
<!-- Node13 -->
<g id="Node000013" class="node">
<title>Node13</title>
<g id="a_Node000013"><a xlink:href="../../d5/d2a/class_face_ac4c4a64de5a6e3a3fbc08a00392e251b.html#ac4c4a64de5a6e3a3fbc08a00392e251b" target="_top" xlink:title=" ">
<polygon fill="white" stroke="#666666" points="416.25,-178.88 299,-178.88 299,-148.38 416.25,-148.38 416.25,-178.88"/>
<text text-anchor="start" x="307" y="-165.38" font-family="Helvetica,sans-Serif" font-size="10.00">Face::Flux_From_Face</text>
<text text-anchor="middle" x="357.62" y="-154.12" font-family="Helvetica,sans-Serif" font-size="10.00">_Central</text>
</a>
</g>
</g>
<!-- Node2&#45;&gt;Node13 -->
<g id="edge12_Node000002_Node000013" class="edge">
<title>Node2&#45;&gt;Node13</title>
<g id="a_edge12_Node000002_Node000013"><a xlink:title=" ">
<path fill="none" stroke="#63b8ff" d="M227.63,-130.71C245.44,-135.25 267.01,-140.76 287.37,-145.95"/>
<polygon fill="#63b8ff" stroke="#63b8ff" points="286.5,-149.34 297.06,-148.42 288.23,-142.56 286.5,-149.34"/>
</a>
</g>
</g>
<!-- Node15 -->
<g id="Node000015" class="node">
<title>Node15</title>
<g id="a_Node000015"><a xlink:href="../../d5/d2a/class_face_a3560cd5db824a402bf5c380f8ada5bb2.html#a3560cd5db824a402bf5c380f8ada5bb2" target="_top" xlink:title=" ">
<polygon fill="white" stroke="#666666" points="424.88,-130.25 290.38,-130.25 290.38,-111 424.88,-111 424.88,-130.25"/>
<text text-anchor="middle" x="357.62" y="-116.75" font-family="Helvetica,sans-Serif" font-size="10.00">Face::Flux_From_Face_VL</text>
</a>
</g>
</g>
<!-- Node2&#45;&gt;Node15 -->
<g id="edge15_Node000002_Node000015" class="edge">
<title>Node2&#45;&gt;Node15</title>
<g id="a_edge15_Node000002_Node000015"><a xlink:title=" ">
<path fill="none" stroke="#63b8ff" d="M246.11,-120.62C256.64,-120.62 267.78,-120.62 278.77,-120.62"/>
<polygon fill="#63b8ff" stroke="#63b8ff" points="278.62,-124.13 288.62,-120.63 278.62,-117.13 278.62,-124.13"/>
</a>
</g>
</g>
<!-- Node4 -->
<g id="Node000004" class="node">
<title>Node4</title>
<g id="a_Node000004"><a xlink:href="../../d5/d2a/class_face_a28f4009e42e1ac60082a6952566a31aa.html#a28f4009e42e1ac60082a6952566a31aa" target="_top" xlink:title=" ">
<polygon fill="white" stroke="#666666" points="583.75,-167.25 481.5,-167.25 481.5,-148 583.75,-148 583.75,-167.25"/>
<text text-anchor="middle" x="532.62" y="-153.75" font-family="Helvetica,sans-Serif" font-size="10.00">Face::Cal_Primitive</text>
</a>
</g>
</g>
<!-- Node3&#45;&gt;Node4 -->
<g id="edge3_Node000003_Node000004" class="edge">
<title>Node3&#45;&gt;Node4</title>
<g id="a_edge3_Node000003_Node000004"><a xlink:title=" ">
<path fill="none" stroke="#63b8ff" d="M415.98,-93.74C422.09,-95.88 428.06,-98.48 433.5,-101.62 453.64,-113.27 449.63,-127.52 469.5,-139.62 471.52,-140.86 473.63,-142.01 475.81,-143.08"/>
<polygon fill="#63b8ff" stroke="#63b8ff" points="474.34,-146.26 484.91,-146.99 477.1,-139.83 474.34,-146.26"/>
</a>
</g>
</g>
<!-- Node5 -->
<g id="Node000005" class="node">
<title>Node5</title>
<g id="a_Node000005"><a xlink:href="../../d5/d2a/class_face_a80cd45164e8eda621558150d70999601.html#a80cd45164e8eda621558150d70999601" target="_top" xlink:title=" ">
<polygon fill="white" stroke="#666666" points="588.25,-130.25 477,-130.25 477,-111 588.25,-111 588.25,-130.25"/>
<text text-anchor="middle" x="532.62" y="-116.75" font-family="Helvetica,sans-Serif" font-size="10.00">Face::Evaluate_Mach</text>
</a>
</g>
</g>
<!-- Node3&#45;&gt;Node5 -->
<g id="edge4_Node000003_Node000005" class="edge">
<title>Node3&#45;&gt;Node5</title>
<g id="a_edge4_Node000003_Node000005"><a xlink:title=" ">
<path fill="none" stroke="#63b8ff" d="M405.9,-93.74C426.69,-98.18 451.31,-103.45 473.23,-108.14"/>
<polygon fill="#63b8ff" stroke="#63b8ff" points="472.42,-111.54 482.93,-110.21 473.88,-104.7 472.42,-111.54"/>
</a>
</g>
</g>
<!-- Node6 -->
<g id="Node000006" class="node">
<title>Node6</title>
<g id="a_Node000006"><a xlink:href="../../d5/d2a/class_face_a7b7a45322054b3094ca16809d72cc9f1.html#a7b7a45322054b3094ca16809d72cc9f1" target="_top" xlink:title=" ">
<polygon fill="white" stroke="#666666" points="595.75,-19.25 469.5,-19.25 469.5,0 595.75,0 595.75,-19.25"/>
<text text-anchor="middle" x="532.62" y="-5.75" font-family="Helvetica,sans-Serif" font-size="10.00">Face::Evaluate_Pressure</text>
</a>
</g>
</g>
<!-- Node3&#45;&gt;Node6 -->
<g id="edge5_Node000003_Node000006" class="edge">
<title>Node3&#45;&gt;Node6</title>
<g id="a_edge5_Node000003_Node000006"><a xlink:title=" ">
<path fill="none" stroke="#63b8ff" d="M375.83,-73.67C397.24,-61.58 435.18,-41.13 469.5,-27.62 473.56,-26.03 477.81,-24.5 482.11,-23.06"/>
<polygon fill="#63b8ff" stroke="#63b8ff" points="482.89,-26.49 491.37,-20.12 480.78,-19.81 482.89,-26.49"/>
</a>
</g>
</g>
<!-- Node8 -->
<g id="Node000008" class="node">
<title>Node8</title>
<g id="a_Node000008"><a xlink:href="../../d5/d2a/class_face_a1dcbb73e92699148519e558ae989117f.html#a1dcbb73e92699148519e558ae989117f" target="_top" xlink:title=" ">
<polygon fill="white" stroke="#666666" points="587.5,-93.25 477.75,-93.25 477.75,-74 587.5,-74 587.5,-93.25"/>
<text text-anchor="middle" x="532.62" y="-79.75" font-family="Helvetica,sans-Serif" font-size="10.00">Face::Find_Gradients</text>
</a>
</g>
</g>
<!-- Node3&#45;&gt;Node8 -->
<g id="edge7_Node000003_Node000008" class="edge">
<title>Node3&#45;&gt;Node8</title>
<g id="a_edge7_Node000003_Node000008"><a xlink:title=" ">
<path fill="none" stroke="#63b8ff" d="M433.75,-83.62C444.53,-83.62 455.55,-83.62 466.13,-83.62"/>
<polygon fill="#63b8ff" stroke="#63b8ff" points="465.88,-87.13 475.88,-83.63 465.88,-80.13 465.88,-87.13"/>
</a>
</g>
</g>
<!-- Node12 -->
<g id="Node000012" class="node">
<title>Node12</title>
<g id="a_Node000012"><a xlink:href="../../dc/d9f/struct_cell_af37bc52fb84ad9749bddb65f09d837b5.html#af37bc52fb84ad9749bddb65f09d837b5" target="_top" xlink:title=" ">
<polygon fill="white" stroke="#666666" points="593.88,-56.25 471.38,-56.25 471.38,-37 593.88,-37 593.88,-56.25"/>
<text text-anchor="middle" x="532.62" y="-42.75" font-family="Helvetica,sans-Serif" font-size="10.00">Cell::Get_QatCellCenter</text>
</a>
</g>
</g>
<!-- Node3&#45;&gt;Node12 -->
<g id="edge11_Node000003_Node000012" class="edge">
<title>Node3&#45;&gt;Node12</title>
<g id="a_edge11_Node000003_Node000012"><a xlink:title=" ">
<path fill="none" stroke="#63b8ff" d="M405.9,-73.51C426.69,-69.07 451.31,-63.8 473.23,-59.11"/>
<polygon fill="#63b8ff" stroke="#63b8ff" points="473.88,-62.55 482.93,-57.04 472.42,-55.71 473.88,-62.55"/>
</a>
</g>
</g>
<!-- Node7 -->
<g id="Node000007" class="node">
<title>Node7</title>
<g id="a_Node000007"><a xlink:href="../../d3/d82/_c_type___elliptic___grid_8cpp_a6122be421b972a00ce8e6e636589966d.html#a6122be421b972a00ce8e6e636589966d" target="_top" xlink:title=" ">
<polygon fill="white" stroke="#666666" points="715.65,-19.25 686.85,-19.25 686.85,0 715.65,0 715.65,-19.25"/>
<text text-anchor="middle" x="701.25" y="-5.75" font-family="Helvetica,sans-Serif" font-size="10.00">P</text>
</a>
</g>
</g>
<!-- Node6&#45;&gt;Node7 -->
<g id="edge6_Node000006_Node000007" class="edge">
<title>Node6&#45;&gt;Node7</title>
<g id="a_edge6_Node000006_Node000007"><a xlink:title=" ">
<path fill="none" stroke="#63b8ff" d="M596.14,-9.62C623.65,-9.62 654.39,-9.62 675.29,-9.62"/>
<polygon fill="#63b8ff" stroke="#63b8ff" points="675.12,-13.13 685.12,-9.63 675.12,-6.13 675.12,-13.13"/>
</a>
</g>
</g>
<!-- Node9 -->
<g id="Node000009" class="node">
<title>Node9</title>
<g id="a_Node000009"><a xlink:href="../../d5/d2a/class_face_ae6a98fe15c04148426e9875ad29f03cc.html#ae6a98fe15c04148426e9875ad29f03cc" target="_top" xlink:title=" ">
<polygon fill="white" stroke="#666666" points="757.62,-130.25 644.88,-130.25 644.88,-111 757.62,-111 757.62,-130.25"/>
<text text-anchor="middle" x="701.25" y="-116.75" font-family="Helvetica,sans-Serif" font-size="10.00">Face::Scalar_dot_ndS</text>
</a>
</g>
</g>
<!-- Node8&#45;&gt;Node9 -->
<g id="edge8_Node000008_Node000009" class="edge">
<title>Node8&#45;&gt;Node9</title>
<g id="a_edge8_Node000008_Node000009"><a xlink:title=" ">
<path fill="none" stroke="#63b8ff" d="M579.16,-93.74C599.09,-98.16 622.67,-103.4 643.71,-108.07"/>
<polygon fill="#63b8ff" stroke="#63b8ff" points="642.78,-111.45 653.3,-110.2 644.29,-104.61 642.78,-111.45"/>
</a>
</g>
</g>
<!-- Node10 -->
<g id="Node000010" class="node">
<title>Node10</title>
<g id="a_Node000010"><a xlink:href="../../d5/d2a/class_face_a7dbfe0e14e693127d4d75dd68f879f99.html#a7dbfe0e14e693127d4d75dd68f879f99" target="_top" xlink:title=" ">
<polygon fill="white" stroke="#666666" points="770.75,-93.25 631.75,-93.25 631.75,-74 770.75,-74 770.75,-93.25"/>
<text text-anchor="middle" x="701.25" y="-79.75" font-family="Helvetica,sans-Serif" font-size="10.00">Face::Thermal_Conductivity</text>
</a>
</g>
</g>
<!-- Node8&#45;&gt;Node10 -->
<g id="edge9_Node000008_Node000010" class="edge">
<title>Node8&#45;&gt;Node10</title>
<g id="a_edge9_Node000008_Node000010"><a xlink:title=" ">
<path fill="none" stroke="#63b8ff" d="M587.72,-83.62C598.09,-83.62 609.15,-83.62 620.13,-83.62"/>
<polygon fill="#63b8ff" stroke="#63b8ff" points="620.01,-87.13 630.01,-83.63 620.01,-80.13 620.01,-87.13"/>
</a>
</g>
</g>
<!-- Node11 -->
<g id="Node000011" class="node">
<title>Node11</title>
<g id="a_Node000011"><a xlink:href="../../d5/d2a/class_face_a658f439bcdacbf424d659be66ae7bce7.html#a658f439bcdacbf424d659be66ae7bce7" target="_top" xlink:title=" ">
<polygon fill="white" stroke="#666666" points="743.38,-56.25 659.12,-56.25 659.12,-37 743.38,-37 743.38,-56.25"/>
<text text-anchor="middle" x="701.25" y="-42.75" font-family="Helvetica,sans-Serif" font-size="10.00">Face::Viscosity</text>
</a>
</g>
</g>
<!-- Node8&#45;&gt;Node11 -->
<g id="edge10_Node000008_Node000011" class="edge">
<title>Node8&#45;&gt;Node11</title>
<g id="a_edge10_Node000008_Node000011"><a xlink:title=" ">
<path fill="none" stroke="#63b8ff" d="M579.16,-73.51C600.33,-68.81 625.62,-63.2 647.61,-58.31"/>
<polygon fill="#63b8ff" stroke="#63b8ff" points="648.29,-61.75 657.29,-56.16 646.77,-54.92 648.29,-61.75"/>
</a>
</g>
</g>
<!-- Node13&#45;&gt;Node4 -->
<g id="edge13_Node000013_Node000004" class="edge">
<title>Node13&#45;&gt;Node4</title>
<g id="a_edge13_Node000013_Node000004"><a xlink:title=" ">
<path fill="none" stroke="#63b8ff" d="M416.71,-161.61C433.86,-161.02 452.69,-160.36 470.05,-159.76"/>
<polygon fill="#63b8ff" stroke="#63b8ff" points="469.83,-163.27 479.71,-159.43 469.59,-156.27 469.83,-163.27"/>
</a>
</g>
</g>
<!-- Node14 -->
<g id="Node000014" class="node">
<title>Node14</title>
<g id="a_Node000014"><a xlink:href="../../d3/d82/_c_type___elliptic___grid_8cpp_ab180cb902cf4be5a8d26b78172e9491f.html#ab180cb902cf4be5a8d26b78172e9491f" target="_top" xlink:title=" ">
<polygon fill="white" stroke="#666666" points="547.02,-204.25 518.23,-204.25 518.23,-185 547.02,-185 547.02,-204.25"/>
<text text-anchor="middle" x="532.62" y="-190.75" font-family="Helvetica,sans-Serif" font-size="10.00">Q</text>
</a>
</g>
</g>
<!-- Node13&#45;&gt;Node14 -->
<g id="edge14_Node000013_Node000014" class="edge">
<title>Node13&#45;&gt;Node14</title>
<g id="a_edge14_Node000013_Node000014"><a xlink:title=" ">
<path fill="none" stroke="#63b8ff" d="M416.71,-174.03C447.33,-179.52 483.3,-185.96 506.73,-190.16"/>
<polygon fill="#63b8ff" stroke="#63b8ff" points="506.09,-193.61 516.55,-191.92 507.33,-186.71 506.09,-193.61"/>
</a>
</g>
</g>
<!-- Node15&#45;&gt;Node4 -->
<g id="edge16_Node000015_Node000004" class="edge">
<title>Node15&#45;&gt;Node4</title>
<g id="a_edge16_Node000015_Node000004"><a xlink:title=" ">
<path fill="none" stroke="#63b8ff" d="M405.9,-130.74C426.69,-135.18 451.31,-140.45 473.23,-145.14"/>
<polygon fill="#63b8ff" stroke="#63b8ff" points="472.42,-148.54 482.93,-147.21 473.88,-141.7 472.42,-148.54"/>
</a>
</g>
</g>
<!-- Node15&#45;&gt;Node5 -->
<g id="edge17_Node000015_Node000005" class="edge">
<title>Node15&#45;&gt;Node5</title>
<g id="a_edge17_Node000015_Node000005"><a xlink:title=" ">
<path fill="none" stroke="#63b8ff" d="M425.02,-120.62C438.21,-120.62 452.06,-120.62 465.25,-120.62"/>
<polygon fill="#63b8ff" stroke="#63b8ff" points="465.13,-124.13 475.13,-120.63 465.13,-117.13 465.13,-124.13"/>
</a>
</g>
</g>
<!-- Node15&#45;&gt;Node8 -->
<g id="edge18_Node000015_Node000008" class="edge">
<title>Node15&#45;&gt;Node8</title>
<g id="a_edge18_Node000015_Node000008"><a xlink:title=" ">
<path fill="none" stroke="#63b8ff" d="M405.9,-110.51C426.69,-106.07 451.31,-100.8 473.23,-96.11"/>
<polygon fill="#63b8ff" stroke="#63b8ff" points="473.88,-99.55 482.93,-94.04 472.42,-92.71 473.88,-99.55"/>
</a>
</g>
</g>
<!-- Node15&#45;&gt;Node12 -->
<g id="edge19_Node000015_Node000012" class="edge">
<title>Node15&#45;&gt;Node12</title>
<g id="a_edge19_Node000015_Node000012"><a xlink:title=" ">
<path fill="none" stroke="#63b8ff" d="M415.98,-110.51C422.09,-108.37 428.06,-105.77 433.5,-102.62 453.64,-90.98 449.63,-76.73 469.5,-64.62 471.52,-63.39 473.63,-62.24 475.81,-61.17"/>
<polygon fill="#63b8ff" stroke="#63b8ff" points="477.1,-64.42 484.91,-57.26 474.34,-57.99 477.1,-64.42"/>
</a>
</g>
</g>
</g>
</svg>
