<?xml version="1.0" encoding="UTF-8" standalone="no"?>
<!DOCTYPE svg PUBLIC "-//W3C//DTD SVG 1.1//EN"
 "http://www.w3.org/Graphics/SVG/1.1/DTD/svg11.dtd">
<!-- Generated by graphviz version 12.2.1 (20241206.2353)
 -->
<!-- Title: Cell::Evaluate_FluxonFaces Pages: 1 -->
<svg width="846pt" height="372pt"
 viewBox="0.00 0.00 846.25 372.25" xmlns="http://www.w3.org/2000/svg" xmlns:xlink="http://www.w3.org/1999/xlink">
<g id="graph0" class="graph" transform="scale(1 1) rotate(0) translate(4 368.25)">
<title>Cell::Evaluate_FluxonFaces</title>
<!-- Node1 -->
<g id="Node000001" class="node">
<title>Node1</title>
<g id="a_Node000001"><a xlink:title=" ">
<polygon fill="#999999" stroke="#666666" points="139,-197.25 0,-197.25 0,-178 139,-178 139,-197.25"/>
<text text-anchor="middle" x="69.5" y="-183.75" font-family="Helvetica,sans-Serif" font-size="10.00">Cell::Evaluate_FluxonFaces</text>
</a>
</g>
</g>
<!-- Node2 -->
<g id="Node000002" class="node">
<title>Node2</title>
<g id="a_Node000002"><a xlink:href="../../dc/d9f/struct_cell_a12ca155558738e6524acc1ebb38126b4.html#a12ca155558738e6524acc1ebb38126b4" target="_top" xlink:title=" ">
<polygon fill="white" stroke="#666666" points="289.62,-290.25 198.62,-290.25 198.62,-271 289.62,-271 289.62,-290.25"/>
<text text-anchor="middle" x="244.12" y="-276.75" font-family="Helvetica,sans-Serif" font-size="10.00">Cell::Add_Fluxes</text>
</a>
</g>
</g>
<!-- Node1&#45;&gt;Node2 -->
<g id="edge1_Node000001_Node000002" class="edge">
<title>Node1&#45;&gt;Node2</title>
<g id="a_edge1_Node000001_Node000002"><a xlink:title=" ">
<path fill="none" stroke="#63b8ff" d="M81.53,-197.67C99.7,-213.69 137.63,-245.01 175,-262.62 178.99,-264.51 183.22,-266.22 187.52,-267.76"/>
<polygon fill="#63b8ff" stroke="#63b8ff" points="186.29,-271.04 196.88,-270.82 188.46,-264.39 186.29,-271.04"/>
</a>
</g>
</g>
<!-- Node3 -->
<g id="Node000003" class="node">
<title>Node3</title>
<g id="a_Node000003"><a xlink:href="../../dc/d9f/struct_cell_af7944559b958e7f02bf804adfd482a70.html#af7944559b958e7f02bf804adfd482a70" target="_top" xlink:title=" ">
<polygon fill="white" stroke="#666666" points="298.62,-197.25 189.62,-197.25 189.62,-178 298.62,-178 298.62,-197.25"/>
<text text-anchor="middle" x="244.12" y="-183.75" font-family="Helvetica,sans-Serif" font-size="10.00">Cell::Cal_Q_Gradient</text>
</a>
</g>
</g>
<!-- Node1&#45;&gt;Node3 -->
<g id="edge2_Node000001_Node000003" class="edge">
<title>Node1&#45;&gt;Node3</title>
<g id="a_edge2_Node000001_Node000003"><a xlink:title=" ">
<path fill="none" stroke="#63b8ff" d="M139.22,-187.62C151.96,-187.62 165.24,-187.62 177.87,-187.62"/>
<polygon fill="#63b8ff" stroke="#63b8ff" points="177.75,-191.13 187.75,-187.63 177.75,-184.13 177.75,-191.13"/>
</a>
</g>
</g>
<!-- Node6 -->
<g id="Node000006" class="node">
<title>Node6</title>
<g id="a_Node000006"><a xlink:href="../../d5/d2a/class_face_a7edd7ef2c3e6faf1d13c186536039f60.html#a7edd7ef2c3e6faf1d13c186536039f60" target="_top" xlink:title=" ">
<polygon fill="white" stroke="#666666" points="302.75,-136.25 185.5,-136.25 185.5,-117 302.75,-117 302.75,-136.25"/>
<text text-anchor="middle" x="244.12" y="-122.75" font-family="Helvetica,sans-Serif" font-size="10.00">Face::Flux_From_Face</text>
</a>
</g>
</g>
<!-- Node1&#45;&gt;Node6 -->
<g id="edge5_Node000001_Node000006" class="edge">
<title>Node1&#45;&gt;Node6</title>
<g id="a_edge5_Node000001_Node000006"><a xlink:title=" ">
<path fill="none" stroke="#63b8ff" d="M99.01,-177.55C127.62,-167.44 171.91,-151.79 203.84,-140.51"/>
<polygon fill="#63b8ff" stroke="#63b8ff" points="204.89,-143.85 213.15,-137.22 202.56,-137.25 204.89,-143.85"/>
</a>
</g>
</g>
<!-- Node18 -->
<g id="Node000018" class="node">
<title>Node18</title>
<g id="a_Node000018"><a xlink:href="../../dc/d9f/struct_cell_aae926146b2f52f029d3d28ec9174136e.html#aae926146b2f52f029d3d28ec9174136e" target="_top" xlink:title=" ">
<polygon fill="white" stroke="#666666" points="305,-99.25 183.25,-99.25 183.25,-80 305,-80 305,-99.25"/>
<text text-anchor="middle" x="244.12" y="-85.75" font-family="Helvetica,sans-Serif" font-size="10.00">Cell::Get_Cell_Pressure</text>
</a>
</g>
</g>
<!-- Node1&#45;&gt;Node18 -->
<g id="edge22_Node000001_Node000018" class="edge">
<title>Node1&#45;&gt;Node18</title>
<g id="a_edge22_Node000001_Node000018"><a xlink:title=" ">
<path fill="none" stroke="#63b8ff" d="M80.54,-177.69C98.15,-160.82 136.43,-126.53 175,-107.62 178.09,-106.11 181.31,-104.71 184.62,-103.42"/>
<polygon fill="#63b8ff" stroke="#63b8ff" points="185.63,-106.78 193.91,-100.17 183.32,-100.17 185.63,-106.78"/>
</a>
</g>
</g>
<!-- Node19 -->
<g id="Node000019" class="node">
<title>Node19</title>
<g id="a_Node000019"><a xlink:href="../../dc/d9f/struct_cell_a65a6f31fc7a451a50c9908c80e20033c.html#a65a6f31fc7a451a50c9908c80e20033c" target="_top" xlink:title=" ">
<polygon fill="white" stroke="#666666" points="313.25,-253.25 175,-253.25 175,-234 313.25,-234 313.25,-253.25"/>
<text text-anchor="middle" x="244.12" y="-239.75" font-family="Helvetica,sans-Serif" font-size="10.00">Cell::Velocity_GradatCenter</text>
</a>
</g>
</g>
<!-- Node1&#45;&gt;Node19 -->
<g id="edge23_Node000001_Node000019" class="edge">
<title>Node1&#45;&gt;Node19</title>
<g id="a_edge23_Node000001_Node000019"><a xlink:title=" ">
<path fill="none" stroke="#63b8ff" d="M101.36,-197.64C129.17,-206.66 170.31,-220 201.11,-230"/>
<polygon fill="#63b8ff" stroke="#63b8ff" points="199.92,-233.29 210.51,-233.04 202.08,-226.63 199.92,-233.29"/>
</a>
</g>
</g>
<!-- Node4 -->
<g id="Node000004" class="node">
<title>Node4</title>
<g id="a_Node000004"><a xlink:href="../../d5/db2/class_vector_a65059ef72da0ea37db05d7235e91f3b6.html#a65059ef72da0ea37db05d7235e91f3b6" target="_top" xlink:title=" ">
<polygon fill="white" stroke="#666666" points="462,-216.25 388.25,-216.25 388.25,-197 462,-197 462,-216.25"/>
<text text-anchor="middle" x="425.12" y="-202.75" font-family="Helvetica,sans-Serif" font-size="10.00">Vector::Clear</text>
</a>
</g>
</g>
<!-- Node3&#45;&gt;Node4 -->
<g id="edge3_Node000003_Node000004" class="edge">
<title>Node3&#45;&gt;Node4</title>
<g id="a_edge3_Node000003_Node000004"><a xlink:title=" ">
<path fill="none" stroke="#63b8ff" d="M298.83,-193.33C323.61,-195.96 352.77,-199.05 376.72,-201.59"/>
<polygon fill="#63b8ff" stroke="#63b8ff" points="376.2,-205.06 386.52,-202.63 376.94,-198.1 376.2,-205.06"/>
</a>
</g>
</g>
<!-- Node5 -->
<g id="Node000005" class="node">
<title>Node5</title>
<g id="a_Node000005"><a xlink:href="../../d5/d2a/class_face_a19f810b927960c6f82aefb36395b5c81.html#a19f810b927960c6f82aefb36395b5c81" target="_top" xlink:title=" ">
<polygon fill="white" stroke="#666666" points="471,-179.25 379.25,-179.25 379.25,-160 471,-160 471,-179.25"/>
<text text-anchor="middle" x="425.12" y="-165.75" font-family="Helvetica,sans-Serif" font-size="10.00">Face::Get_QnDS</text>
</a>
</g>
</g>
<!-- Node3&#45;&gt;Node5 -->
<g id="edge4_Node000003_Node000005" class="edge">
<title>Node3&#45;&gt;Node5</title>
<g id="a_edge4_Node000003_Node000005"><a xlink:title=" ">
<path fill="none" stroke="#63b8ff" d="M298.83,-182.22C320.58,-180.04 345.7,-177.51 367.72,-175.3"/>
<polygon fill="#63b8ff" stroke="#63b8ff" points="367.81,-178.81 377.41,-174.32 367.11,-171.84 367.81,-178.81"/>
</a>
</g>
</g>
<!-- Node7 -->
<g id="Node000007" class="node">
<title>Node7</title>
<g id="a_Node000007"><a xlink:href="../../d5/d2a/class_face_a8bf8d82bb997ead9e413ffe50b53516b.html#a8bf8d82bb997ead9e413ffe50b53516b" target="_top" xlink:title=" ">
<polygon fill="white" stroke="#666666" points="501,-93.25 349.25,-93.25 349.25,-74 501,-74 501,-93.25"/>
<text text-anchor="middle" x="425.12" y="-79.75" font-family="Helvetica,sans-Serif" font-size="10.00">Face::Flux_From_Face_AUSM</text>
</a>
</g>
</g>
<!-- Node6&#45;&gt;Node7 -->
<g id="edge6_Node000006_Node000007" class="edge">
<title>Node6&#45;&gt;Node7</title>
<g id="a_edge6_Node000006_Node000007"><a xlink:title=" ">
<path fill="none" stroke="#63b8ff" d="M287.09,-116.54C312.14,-110.53 344.18,-102.83 370.98,-96.39"/>
<polygon fill="#63b8ff" stroke="#63b8ff" points="371.73,-99.81 380.64,-94.07 370.1,-93 371.73,-99.81"/>
</a>
</g>
</g>
<!-- Node16 -->
<g id="Node000016" class="node">
<title>Node16</title>
<g id="a_Node000016"><a xlink:href="../../d5/d2a/class_face_ac4c4a64de5a6e3a3fbc08a00392e251b.html#ac4c4a64de5a6e3a3fbc08a00392e251b" target="_top" xlink:title=" ">
<polygon fill="white" stroke="#666666" points="483.75,-141.88 366.5,-141.88 366.5,-111.38 483.75,-111.38 483.75,-141.88"/>
<text text-anchor="start" x="374.5" y="-128.38" font-family="Helvetica,sans-Serif" font-size="10.00">Face::Flux_From_Face</text>
<text text-anchor="middle" x="425.12" y="-117.12" font-family="Helvetica,sans-Serif" font-size="10.00">_Central</text>
</a>
</g>
</g>
<!-- Node6&#45;&gt;Node16 -->
<g id="edge15_Node000006_Node000016" class="edge">
<title>Node6&#45;&gt;Node16</title>
<g id="a_edge15_Node000006_Node000016"><a xlink:title=" ">
<path fill="none" stroke="#63b8ff" d="M303.24,-126.62C319.82,-126.62 338.05,-126.62 355.21,-126.62"/>
<polygon fill="#63b8ff" stroke="#63b8ff" points="354.79,-130.13 364.79,-126.63 354.79,-123.13 354.79,-130.13"/>
</a>
</g>
</g>
<!-- Node17 -->
<g id="Node000017" class="node">
<title>Node17</title>
<g id="a_Node000017"><a xlink:href="../../d5/d2a/class_face_a3560cd5db824a402bf5c380f8ada5bb2.html#a3560cd5db824a402bf5c380f8ada5bb2" target="_top" xlink:title=" ">
<polygon fill="white" stroke="#666666" points="492.38,-56.25 357.88,-56.25 357.88,-37 492.38,-37 492.38,-56.25"/>
<text text-anchor="middle" x="425.12" y="-42.75" font-family="Helvetica,sans-Serif" font-size="10.00">Face::Flux_From_Face_VL</text>
</a>
</g>
</g>
<!-- Node6&#45;&gt;Node17 -->
<g id="edge17_Node000006_Node000017" class="edge">
<title>Node6&#45;&gt;Node17</title>
<g id="a_edge17_Node000006_Node000017"><a xlink:title=" ">
<path fill="none" stroke="#63b8ff" d="M297.18,-116.58C302.83,-114.42 308.31,-111.8 313.25,-108.62 334.5,-94.95 327.85,-78.06 349.25,-64.62 351.24,-63.38 353.31,-62.21 355.44,-61.13"/>
<polygon fill="#63b8ff" stroke="#63b8ff" points="356.61,-64.44 364.37,-57.24 353.81,-58.02 356.61,-64.44"/>
</a>
</g>
</g>
<!-- Node8 -->
<g id="Node000008" class="node">
<title>Node8</title>
<g id="a_Node000008"><a xlink:href="../../d5/d2a/class_face_a28f4009e42e1ac60082a6952566a31aa.html#a28f4009e42e1ac60082a6952566a31aa" target="_top" xlink:title=" ">
<polygon fill="white" stroke="#666666" points="651.25,-130.25 549,-130.25 549,-111 651.25,-111 651.25,-130.25"/>
<text text-anchor="middle" x="600.12" y="-116.75" font-family="Helvetica,sans-Serif" font-size="10.00">Face::Cal_Primitive</text>
</a>
</g>
</g>
<!-- Node7&#45;&gt;Node8 -->
<g id="edge7_Node000007_Node000008" class="edge">
<title>Node7&#45;&gt;Node8</title>
<g id="a_edge7_Node000007_Node000008"><a xlink:title=" ">
<path fill="none" stroke="#63b8ff" d="M473.4,-93.74C494.19,-98.18 518.81,-103.45 540.73,-108.14"/>
<polygon fill="#63b8ff" stroke="#63b8ff" points="539.92,-111.54 550.43,-110.21 541.38,-104.7 539.92,-111.54"/>
</a>
</g>
</g>
<!-- Node9 -->
<g id="Node000009" class="node">
<title>Node9</title>
<g id="a_Node000009"><a xlink:href="../../d5/d2a/class_face_a80cd45164e8eda621558150d70999601.html#a80cd45164e8eda621558150d70999601" target="_top" xlink:title=" ">
<polygon fill="white" stroke="#666666" points="655.75,-93.25 544.5,-93.25 544.5,-74 655.75,-74 655.75,-93.25"/>
<text text-anchor="middle" x="600.12" y="-79.75" font-family="Helvetica,sans-Serif" font-size="10.00">Face::Evaluate_Mach</text>
</a>
</g>
</g>
<!-- Node7&#45;&gt;Node9 -->
<g id="edge8_Node000007_Node000009" class="edge">
<title>Node7&#45;&gt;Node9</title>
<g id="a_edge8_Node000007_Node000009"><a xlink:title=" ">
<path fill="none" stroke="#63b8ff" d="M501.25,-83.62C511.72,-83.62 522.41,-83.62 532.71,-83.62"/>
<polygon fill="#63b8ff" stroke="#63b8ff" points="532.61,-87.13 542.61,-83.63 532.61,-80.13 532.61,-87.13"/>
</a>
</g>
</g>
<!-- Node10 -->
<g id="Node000010" class="node">
<title>Node10</title>
<g id="a_Node000010"><a xlink:href="../../d5/d2a/class_face_a7b7a45322054b3094ca16809d72cc9f1.html#a7b7a45322054b3094ca16809d72cc9f1" target="_top" xlink:title=" ">
<polygon fill="white" stroke="#666666" points="663.25,-167.25 537,-167.25 537,-148 663.25,-148 663.25,-167.25"/>
<text text-anchor="middle" x="600.12" y="-153.75" font-family="Helvetica,sans-Serif" font-size="10.00">Face::Evaluate_Pressure</text>
</a>
</g>
</g>
<!-- Node7&#45;&gt;Node10 -->
<g id="edge9_Node000007_Node000010" class="edge">
<title>Node7&#45;&gt;Node10</title>
<g id="a_edge9_Node000007_Node000010"><a xlink:title=" ">
<path fill="none" stroke="#63b8ff" d="M480.7,-93.68C487.77,-96.06 494.73,-99 501,-102.62 520.87,-114.1 517.33,-127.82 537,-139.62 539.03,-140.84 541.15,-141.98 543.33,-143.05"/>
<polygon fill="#63b8ff" stroke="#63b8ff" points="541.87,-146.24 552.44,-146.93 544.61,-139.79 541.87,-146.24"/>
</a>
</g>
</g>
<!-- Node11 -->
<g id="Node000011" class="node">
<title>Node11</title>
<g id="a_Node000011"><a xlink:href="../../d5/d2a/class_face_a1dcbb73e92699148519e558ae989117f.html#a1dcbb73e92699148519e558ae989117f" target="_top" xlink:title=" ">
<polygon fill="white" stroke="#666666" points="655,-56.25 545.25,-56.25 545.25,-37 655,-37 655,-56.25"/>
<text text-anchor="middle" x="600.12" y="-42.75" font-family="Helvetica,sans-Serif" font-size="10.00">Face::Find_Gradients</text>
</a>
</g>
</g>
<!-- Node7&#45;&gt;Node11 -->
<g id="edge10_Node000007_Node000011" class="edge">
<title>Node7&#45;&gt;Node11</title>
<g id="a_edge10_Node000007_Node000011"><a xlink:title=" ">
<path fill="none" stroke="#63b8ff" d="M473.4,-73.51C494.19,-69.07 518.81,-63.8 540.73,-59.11"/>
<polygon fill="#63b8ff" stroke="#63b8ff" points="541.38,-62.55 550.43,-57.04 539.92,-55.71 541.38,-62.55"/>
</a>
</g>
</g>
<!-- Node15 -->
<g id="Node000015" class="node">
<title>Node15</title>
<g id="a_Node000015"><a xlink:href="../../dc/d9f/struct_cell_af37bc52fb84ad9749bddb65f09d837b5.html#af37bc52fb84ad9749bddb65f09d837b5" target="_top" xlink:title=" ">
<polygon fill="white" stroke="#666666" points="661.38,-19.25 538.88,-19.25 538.88,0 661.38,0 661.38,-19.25"/>
<text text-anchor="middle" x="600.12" y="-5.75" font-family="Helvetica,sans-Serif" font-size="10.00">Cell::Get_QatCellCenter</text>
</a>
</g>
</g>
<!-- Node7&#45;&gt;Node15 -->
<g id="edge14_Node000007_Node000015" class="edge">
<title>Node7&#45;&gt;Node15</title>
<g id="a_edge14_Node000007_Node000015"><a xlink:title=" ">
<path fill="none" stroke="#63b8ff" d="M483.48,-73.51C489.59,-71.37 495.56,-68.77 501,-65.62 521.14,-53.98 517.13,-39.73 537,-27.62 539.02,-26.39 541.13,-25.24 543.31,-24.17"/>
<polygon fill="#63b8ff" stroke="#63b8ff" points="544.6,-27.42 552.41,-20.26 541.84,-20.99 544.6,-27.42"/>
</a>
</g>
</g>
<!-- Node12 -->
<g id="Node000012" class="node">
<title>Node12</title>
<g id="a_Node000012"><a xlink:href="../../d5/d2a/class_face_ae6a98fe15c04148426e9875ad29f03cc.html#ae6a98fe15c04148426e9875ad29f03cc" target="_top" xlink:title=" ">
<polygon fill="white" stroke="#666666" points="825.12,-93.25 712.38,-93.25 712.38,-74 825.12,-74 825.12,-93.25"/>
<text text-anchor="middle" x="768.75" y="-79.75" font-family="Helvetica,sans-Serif" font-size="10.00">Face::Scalar_dot_ndS</text>
</a>
</g>
</g>
<!-- Node11&#45;&gt;Node12 -->
<g id="edge11_Node000011_Node000012" class="edge">
<title>Node11&#45;&gt;Node12</title>
<g id="a_edge11_Node000011_Node000012"><a xlink:title=" ">
<path fill="none" stroke="#63b8ff" d="M646.66,-56.74C666.59,-61.16 690.17,-66.4 711.21,-71.07"/>
<polygon fill="#63b8ff" stroke="#63b8ff" points="710.28,-74.45 720.8,-73.2 711.79,-67.61 710.28,-74.45"/>
</a>
</g>
</g>
<!-- Node13 -->
<g id="Node000013" class="node">
<title>Node13</title>
<g id="a_Node000013"><a xlink:href="../../d5/d2a/class_face_a7dbfe0e14e693127d4d75dd68f879f99.html#a7dbfe0e14e693127d4d75dd68f879f99" target="_top" xlink:title=" ">
<polygon fill="white" stroke="#666666" points="838.25,-56.25 699.25,-56.25 699.25,-37 838.25,-37 838.25,-56.25"/>
<text text-anchor="middle" x="768.75" y="-42.75" font-family="Helvetica,sans-Serif" font-size="10.00">Face::Thermal_Conductivity</text>
</a>
</g>
</g>
<!-- Node11&#45;&gt;Node13 -->
<g id="edge12_Node000011_Node000013" class="edge">
<title>Node11&#45;&gt;Node13</title>
<g id="a_edge12_Node000011_Node000013"><a xlink:title=" ">
<path fill="none" stroke="#63b8ff" d="M655.22,-46.62C665.59,-46.62 676.65,-46.62 687.63,-46.62"/>
<polygon fill="#63b8ff" stroke="#63b8ff" points="687.51,-50.13 697.51,-46.63 687.51,-43.13 687.51,-50.13"/>
</a>
</g>
</g>
<!-- Node14 -->
<g id="Node000014" class="node">
<title>Node14</title>
<g id="a_Node000014"><a xlink:href="../../d5/d2a/class_face_a658f439bcdacbf424d659be66ae7bce7.html#a658f439bcdacbf424d659be66ae7bce7" target="_top" xlink:title=" ">
<polygon fill="white" stroke="#666666" points="810.88,-19.25 726.62,-19.25 726.62,0 810.88,0 810.88,-19.25"/>
<text text-anchor="middle" x="768.75" y="-5.75" font-family="Helvetica,sans-Serif" font-size="10.00">Face::Viscosity</text>
</a>
</g>
</g>
<!-- Node11&#45;&gt;Node14 -->
<g id="edge13_Node000011_Node000014" class="edge">
<title>Node11&#45;&gt;Node14</title>
<g id="a_edge13_Node000011_Node000014"><a xlink:title=" ">
<path fill="none" stroke="#63b8ff" d="M646.66,-36.51C667.83,-31.81 693.12,-26.2 715.11,-21.31"/>
<polygon fill="#63b8ff" stroke="#63b8ff" points="715.79,-24.75 724.79,-19.16 714.27,-17.92 715.79,-24.75"/>
</a>
</g>
</g>
<!-- Node16&#45;&gt;Node8 -->
<g id="edge16_Node000016_Node000008" class="edge">
<title>Node16&#45;&gt;Node8</title>
<g id="a_edge16_Node000016_Node000008"><a xlink:title=" ">
<path fill="none" stroke="#63b8ff" d="M484.21,-124.61C501.36,-124.02 520.19,-123.36 537.55,-122.76"/>
<polygon fill="#63b8ff" stroke="#63b8ff" points="537.33,-126.27 547.21,-122.43 537.09,-119.27 537.33,-126.27"/>
</a>
</g>
</g>
<!-- Node17&#45;&gt;Node8 -->
<g id="edge18_Node000017_Node000008" class="edge">
<title>Node17&#45;&gt;Node8</title>
<g id="a_edge18_Node000017_Node000008"><a xlink:title=" ">
<path fill="none" stroke="#63b8ff" d="M483.48,-56.74C489.59,-58.88 495.56,-61.48 501,-64.62 521.14,-76.27 517.13,-90.52 537,-102.62 539.02,-103.86 541.13,-105.01 543.31,-106.08"/>
<polygon fill="#63b8ff" stroke="#63b8ff" points="541.84,-109.26 552.41,-109.99 544.6,-102.83 541.84,-109.26"/>
</a>
</g>
</g>
<!-- Node17&#45;&gt;Node9 -->
<g id="edge19_Node000017_Node000009" class="edge">
<title>Node17&#45;&gt;Node9</title>
<g id="a_edge19_Node000017_Node000009"><a xlink:title=" ">
<path fill="none" stroke="#63b8ff" d="M473.4,-56.74C494.19,-61.18 518.81,-66.45 540.73,-71.14"/>
<polygon fill="#63b8ff" stroke="#63b8ff" points="539.92,-74.54 550.43,-73.21 541.38,-67.7 539.92,-74.54"/>
</a>
</g>
</g>
<!-- Node17&#45;&gt;Node11 -->
<g id="edge20_Node000017_Node000011" class="edge">
<title>Node17&#45;&gt;Node11</title>
<g id="a_edge20_Node000017_Node000011"><a xlink:title=" ">
<path fill="none" stroke="#63b8ff" d="M492.52,-46.62C506.07,-46.62 520.31,-46.62 533.82,-46.62"/>
<polygon fill="#63b8ff" stroke="#63b8ff" points="533.45,-50.13 543.45,-46.63 533.45,-43.13 533.45,-50.13"/>
</a>
</g>
</g>
<!-- Node17&#45;&gt;Node15 -->
<g id="edge21_Node000017_Node000015" class="edge">
<title>Node17&#45;&gt;Node15</title>
<g id="a_edge21_Node000017_Node000015"><a xlink:title=" ">
<path fill="none" stroke="#63b8ff" d="M473.4,-36.51C494.19,-32.07 518.81,-26.8 540.73,-22.11"/>
<polygon fill="#63b8ff" stroke="#63b8ff" points="541.38,-25.55 550.43,-20.04 539.92,-18.71 541.38,-25.55"/>
</a>
</g>
</g>
<!-- Node19&#45;&gt;Node4 -->
<g id="edge24_Node000019_Node000004" class="edge">
<title>Node19&#45;&gt;Node4</title>
<g id="a_edge24_Node000019_Node000004"><a xlink:title=" ">
<path fill="none" stroke="#63b8ff" d="M294.04,-233.51C319.71,-228.21 351.04,-221.73 376.51,-216.47"/>
<polygon fill="#63b8ff" stroke="#63b8ff" points="377.2,-219.9 386.28,-214.45 375.78,-213.04 377.2,-219.9"/>
</a>
</g>
</g>
<!-- Node20 -->
<g id="Node000020" class="node">
<title>Node20</title>
<g id="a_Node000020"><a xlink:href="../../d5/d2a/class_face_a05485559cf65d981de1fb06208ca23ce.html#a05485559cf65d981de1fb06208ca23ce" target="_top" xlink:title=" ">
<polygon fill="white" stroke="#666666" points="482.62,-253.25 367.62,-253.25 367.62,-234 482.62,-234 482.62,-253.25"/>
<text text-anchor="middle" x="425.12" y="-239.75" font-family="Helvetica,sans-Serif" font-size="10.00">Face::Get_Face_TndS</text>
</a>
</g>
</g>
<!-- Node19&#45;&gt;Node20 -->
<g id="edge25_Node000019_Node000020" class="edge">
<title>Node19&#45;&gt;Node20</title>
<g id="a_edge25_Node000019_Node000020"><a xlink:title=" ">
<path fill="none" stroke="#63b8ff" d="M313.56,-243.62C327.44,-243.62 342.04,-243.62 355.91,-243.62"/>
<polygon fill="#63b8ff" stroke="#63b8ff" points="355.85,-247.13 365.85,-243.63 355.85,-240.13 355.85,-247.13"/>
</a>
</g>
</g>
<!-- Node21 -->
<g id="Node000021" class="node">
<title>Node21</title>
<g id="a_Node000021"><a xlink:href="../../d5/d2a/class_face_aaa668000a8eb31366c9333d326f7a2d0.html#aaa668000a8eb31366c9333d326f7a2d0" target="_top" xlink:title=" ">
<polygon fill="white" stroke="#666666" points="482.25,-364.25 368,-364.25 368,-345 482.25,-345 482.25,-364.25"/>
<text text-anchor="middle" x="425.12" y="-350.75" font-family="Helvetica,sans-Serif" font-size="10.00">Face::Get_Face_undS</text>
</a>
</g>
</g>
<!-- Node19&#45;&gt;Node21 -->
<g id="edge26_Node000019_Node000021" class="edge">
<title>Node19&#45;&gt;Node21</title>
<g id="a_edge26_Node000019_Node000021"><a xlink:title=" ">
<path fill="none" stroke="#63b8ff" d="M300.39,-253.63C305.01,-255.8 309.38,-258.43 313.25,-261.62 341.75,-285.18 320.49,-313.39 349.25,-336.62 351.78,-338.67 354.52,-340.49 357.38,-342.11"/>
<polygon fill="#63b8ff" stroke="#63b8ff" points="355.65,-345.17 366.19,-346.23 358.62,-338.83 355.65,-345.17"/>
</a>
</g>
</g>
<!-- Node22 -->
<g id="Node000022" class="node">
<title>Node22</title>
<g id="a_Node000022"><a xlink:href="../../d5/d2a/class_face_af5ae2d774dbe2dd917de1ad630470a17.html#af5ae2d774dbe2dd917de1ad630470a17" target="_top" xlink:title=" ">
<polygon fill="white" stroke="#666666" points="482.25,-327.25 368,-327.25 368,-308 482.25,-308 482.25,-327.25"/>
<text text-anchor="middle" x="425.12" y="-313.75" font-family="Helvetica,sans-Serif" font-size="10.00">Face::Get_Face_vndS</text>
</a>
</g>
</g>
<!-- Node19&#45;&gt;Node22 -->
<g id="edge27_Node000019_Node000022" class="edge">
<title>Node19&#45;&gt;Node22</title>
<g id="a_edge27_Node000019_Node000022"><a xlink:title=" ">
<path fill="none" stroke="#63b8ff" d="M295.89,-253.64C301.95,-255.81 307.88,-258.44 313.25,-261.62 333.26,-273.49 329.11,-287.98 349.25,-299.62 351.73,-301.06 354.32,-302.38 356.99,-303.6"/>
<polygon fill="#63b8ff" stroke="#63b8ff" points="355.56,-306.8 366.15,-307.22 358.14,-300.29 355.56,-306.8"/>
</a>
</g>
</g>
<!-- Node23 -->
<g id="Node000023" class="node">
<title>Node23</title>
<g id="a_Node000023"><a xlink:href="../../d5/d2a/class_face_a944ff71ee4a44ca30b68175d5a5e2a08.html#a944ff71ee4a44ca30b68175d5a5e2a08" target="_top" xlink:title=" ">
<polygon fill="white" stroke="#666666" points="483.38,-290.25 366.88,-290.25 366.88,-271 483.38,-271 483.38,-290.25"/>
<text text-anchor="middle" x="425.12" y="-276.75" font-family="Helvetica,sans-Serif" font-size="10.00">Face::Get_Face_wndS</text>
</a>
</g>
</g>
<!-- Node19&#45;&gt;Node23 -->
<g id="edge28_Node000019_Node000023" class="edge">
<title>Node19&#45;&gt;Node23</title>
<g id="a_edge28_Node000019_Node000023"><a xlink:title=" ">
<path fill="none" stroke="#63b8ff" d="M294.04,-253.74C315.64,-258.2 341.25,-263.5 364.01,-268.2"/>
<polygon fill="#63b8ff" stroke="#63b8ff" points="363.29,-271.62 373.79,-270.22 364.7,-264.77 363.29,-271.62"/>
</a>
</g>
</g>
</g>
</svg>
