<?xml version="1.0" encoding="UTF-8" standalone="no"?>
<!DOCTYPE svg PUBLIC "-//W3C//DTD SVG 1.1//EN"
 "http://www.w3.org/Graphics/SVG/1.1/DTD/svg11.dtd">
<!-- Generated by graphviz version 12.2.1 (20241206.2353)
 -->
<!-- Title: Cell::Rk4 Pages: 1 -->
<svg width="940pt" height="360pt"
 viewBox="0.00 0.00 939.50 360.25" xmlns="http://www.w3.org/2000/svg" xmlns:xlink="http://www.w3.org/1999/xlink">
<g id="graph0" class="graph" transform="scale(1 1) rotate(0) translate(4 356.25)">
<title>Cell::Rk4</title>
<!-- Node1 -->
<g id="Node000001" class="node">
<title>Node1</title>
<g id="a_Node000001"><a xlink:title=" ">
<polygon fill="#999999" stroke="#666666" points="57.25,-101.25 0,-101.25 0,-82 57.25,-82 57.25,-101.25"/>
<text text-anchor="middle" x="28.62" y="-87.75" font-family="Helvetica,sans-Serif" font-size="10.00">Cell::Rk4</text>
</a>
</g>
</g>
<!-- Node2 -->
<g id="Node000002" class="node">
<title>Node2</title>
<g id="a_Node000002"><a xlink:href="../../dc/d9f/struct_cell_a4a591da0b84980196864d92dea915c67.html#a4a591da0b84980196864d92dea915c67" target="_top" xlink:title=" ">
<polygon fill="white" stroke="#666666" points="232.25,-138.25 93.25,-138.25 93.25,-119 232.25,-119 232.25,-138.25"/>
<text text-anchor="middle" x="162.75" y="-124.75" font-family="Helvetica,sans-Serif" font-size="10.00">Cell::Evaluate_FluxonFaces</text>
</a>
</g>
</g>
<!-- Node1&#45;&gt;Node2 -->
<g id="edge1_Node000001_Node000002" class="edge">
<title>Node1&#45;&gt;Node2</title>
<g id="a_edge1_Node000001_Node000002"><a xlink:title=" ">
<path fill="none" stroke="#63b8ff" d="M57.65,-99.47C74.24,-104.12 95.68,-110.12 114.79,-115.48"/>
<polygon fill="#63b8ff" stroke="#63b8ff" points="113.69,-118.8 124.27,-118.13 115.58,-112.06 113.69,-118.8"/>
</a>
</g>
</g>
<!-- Node27 -->
<g id="Node000027" class="node">
<title>Node27</title>
<g id="a_Node000027"><a xlink:href="../../dc/d9f/struct_cell_a49a1db077f0252924d12b23e4ead11fe.html#a49a1db077f0252924d12b23e4ead11fe" target="_top" xlink:title=" ">
<polygon fill="white" stroke="#666666" points="201.88,-83.25 123.62,-83.25 123.62,-64 201.88,-64 201.88,-83.25"/>
<text text-anchor="middle" x="162.75" y="-69.75" font-family="Helvetica,sans-Serif" font-size="10.00">Cell::UpdateQ</text>
</a>
</g>
</g>
<!-- Node1&#45;&gt;Node27 -->
<g id="edge32_Node000001_Node000027" class="edge">
<title>Node1&#45;&gt;Node27</title>
<g id="a_edge32_Node000001_Node000027"><a xlink:title=" ">
<path fill="none" stroke="#63b8ff" d="M57.65,-87.81C73.45,-85.65 93.67,-82.9 112.08,-80.39"/>
<polygon fill="#63b8ff" stroke="#63b8ff" points="112.31,-83.89 121.75,-79.07 111.36,-76.96 112.31,-83.89"/>
</a>
</g>
</g>
<!-- Node3 -->
<g id="Node000003" class="node">
<title>Node3</title>
<g id="a_Node000003"><a xlink:href="../../dc/d9f/struct_cell_a12ca155558738e6524acc1ebb38126b4.html#a12ca155558738e6524acc1ebb38126b4" target="_top" xlink:title=" ">
<polygon fill="white" stroke="#666666" points="382.88,-157.25 291.88,-157.25 291.88,-138 382.88,-138 382.88,-157.25"/>
<text text-anchor="middle" x="337.38" y="-143.75" font-family="Helvetica,sans-Serif" font-size="10.00">Cell::Add_Fluxes</text>
</a>
</g>
</g>
<!-- Node2&#45;&gt;Node3 -->
<g id="edge2_Node000002_Node000003" class="edge">
<title>Node2&#45;&gt;Node3</title>
<g id="a_edge2_Node000002_Node000003"><a xlink:title=" ">
<path fill="none" stroke="#63b8ff" d="M232.47,-136.19C248.28,-137.93 264.91,-139.76 280.12,-141.43"/>
<polygon fill="#63b8ff" stroke="#63b8ff" points="279.61,-144.9 289.93,-142.51 280.37,-137.94 279.61,-144.9"/>
</a>
</g>
</g>
<!-- Node4 -->
<g id="Node000004" class="node">
<title>Node4</title>
<g id="a_Node000004"><a xlink:href="../../dc/d9f/struct_cell_af7944559b958e7f02bf804adfd482a70.html#af7944559b958e7f02bf804adfd482a70" target="_top" xlink:title=" ">
<polygon fill="white" stroke="#666666" points="391.88,-65.25 282.88,-65.25 282.88,-46 391.88,-46 391.88,-65.25"/>
<text text-anchor="middle" x="337.38" y="-51.75" font-family="Helvetica,sans-Serif" font-size="10.00">Cell::Cal_Q_Gradient</text>
</a>
</g>
</g>
<!-- Node2&#45;&gt;Node4 -->
<g id="edge3_Node000002_Node000004" class="edge">
<title>Node2&#45;&gt;Node4</title>
<g id="a_edge3_Node000002_Node000004"><a xlink:title=" ">
<path fill="none" stroke="#63b8ff" d="M187.39,-118.63C217.05,-106.08 268.14,-84.48 302.09,-70.12"/>
<polygon fill="#63b8ff" stroke="#63b8ff" points="303.22,-73.44 311.07,-66.33 300.5,-67 303.22,-73.44"/>
</a>
</g>
</g>
<!-- Node7 -->
<g id="Node000007" class="node">
<title>Node7</title>
<g id="a_Node000007"><a xlink:href="../../d5/d2a/class_face_a7edd7ef2c3e6faf1d13c186536039f60.html#a7edd7ef2c3e6faf1d13c186536039f60" target="_top" xlink:title=" ">
<polygon fill="white" stroke="#666666" points="396,-259.25 278.75,-259.25 278.75,-240 396,-240 396,-259.25"/>
<text text-anchor="middle" x="337.38" y="-245.75" font-family="Helvetica,sans-Serif" font-size="10.00">Face::Flux_From_Face</text>
</a>
</g>
</g>
<!-- Node2&#45;&gt;Node7 -->
<g id="edge6_Node000002_Node000007" class="edge">
<title>Node2&#45;&gt;Node7</title>
<g id="a_edge6_Node000002_Node000007"><a xlink:title=" ">
<path fill="none" stroke="#63b8ff" d="M177.52,-138.7C197.43,-153.22 235.45,-180.78 268.25,-203.62 282.62,-213.63 298.87,-224.62 311.89,-233.34"/>
<polygon fill="#63b8ff" stroke="#63b8ff" points="309.62,-236.03 319.88,-238.68 313.51,-230.21 309.62,-236.03"/>
</a>
</g>
</g>
<!-- Node21 -->
<g id="Node000021" class="node">
<title>Node21</title>
<g id="a_Node000021"><a xlink:href="../../dc/d9f/struct_cell_aae926146b2f52f029d3d28ec9174136e.html#aae926146b2f52f029d3d28ec9174136e" target="_top" xlink:title=" ">
<polygon fill="white" stroke="#666666" points="398.25,-194.25 276.5,-194.25 276.5,-175 398.25,-175 398.25,-194.25"/>
<text text-anchor="middle" x="337.38" y="-180.75" font-family="Helvetica,sans-Serif" font-size="10.00">Cell::Get_Cell_Pressure</text>
</a>
</g>
</g>
<!-- Node2&#45;&gt;Node21 -->
<g id="edge25_Node000002_Node000021" class="edge">
<title>Node2&#45;&gt;Node21</title>
<g id="a_edge25_Node000002_Node000021"><a xlink:title=" ">
<path fill="none" stroke="#63b8ff" d="M189.3,-138.65C210.32,-146.72 240.99,-158.09 268.25,-166.62 273.66,-168.32 279.34,-169.99 285.01,-171.59"/>
<polygon fill="#63b8ff" stroke="#63b8ff" points="283.83,-174.89 294.4,-174.16 285.68,-168.14 283.83,-174.89"/>
</a>
</g>
</g>
<!-- Node22 -->
<g id="Node000022" class="node">
<title>Node22</title>
<g id="a_Node000022"><a xlink:href="../../dc/d9f/struct_cell_a65a6f31fc7a451a50c9908c80e20033c.html#a65a6f31fc7a451a50c9908c80e20033c" target="_top" xlink:title=" ">
<polygon fill="white" stroke="#666666" points="406.5,-120.25 268.25,-120.25 268.25,-101 406.5,-101 406.5,-120.25"/>
<text text-anchor="middle" x="337.38" y="-106.75" font-family="Helvetica,sans-Serif" font-size="10.00">Cell::Velocity_GradatCenter</text>
</a>
</g>
</g>
<!-- Node2&#45;&gt;Node22 -->
<g id="edge26_Node000002_Node000022" class="edge">
<title>Node2&#45;&gt;Node22</title>
<g id="a_edge26_Node000002_Node000022"><a xlink:title=" ">
<path fill="none" stroke="#63b8ff" d="M232.47,-121.46C240.4,-120.63 248.53,-119.79 256.58,-118.95"/>
<polygon fill="#63b8ff" stroke="#63b8ff" points="256.8,-122.44 266.38,-117.92 256.07,-115.48 256.8,-122.44"/>
</a>
</g>
</g>
<!-- Node5 -->
<g id="Node000005" class="node">
<title>Node5</title>
<g id="a_Node000005"><a xlink:href="../../d5/db2/class_vector_a65059ef72da0ea37db05d7235e91f3b6.html#a65059ef72da0ea37db05d7235e91f3b6" target="_top" xlink:title=" ">
<polygon fill="white" stroke="#666666" points="555.25,-56.25 481.5,-56.25 481.5,-37 555.25,-37 555.25,-56.25"/>
<text text-anchor="middle" x="518.38" y="-42.75" font-family="Helvetica,sans-Serif" font-size="10.00">Vector::Clear</text>
</a>
</g>
</g>
<!-- Node4&#45;&gt;Node5 -->
<g id="edge4_Node000004_Node000005" class="edge">
<title>Node4&#45;&gt;Node5</title>
<g id="a_edge4_Node000004_Node000005"><a xlink:title=" ">
<path fill="none" stroke="#63b8ff" d="M392.08,-52.92C416.86,-51.68 446.02,-50.21 469.97,-49.01"/>
<polygon fill="#63b8ff" stroke="#63b8ff" points="469.95,-52.51 479.76,-48.52 469.6,-45.52 469.95,-52.51"/>
</a>
</g>
</g>
<!-- Node6 -->
<g id="Node000006" class="node">
<title>Node6</title>
<g id="a_Node000006"><a xlink:href="../../d5/d2a/class_face_a19f810b927960c6f82aefb36395b5c81.html#a19f810b927960c6f82aefb36395b5c81" target="_top" xlink:title=" ">
<polygon fill="white" stroke="#666666" points="564.25,-19.25 472.5,-19.25 472.5,0 564.25,0 564.25,-19.25"/>
<text text-anchor="middle" x="518.38" y="-5.75" font-family="Helvetica,sans-Serif" font-size="10.00">Face::Get_QnDS</text>
</a>
</g>
</g>
<!-- Node4&#45;&gt;Node6 -->
<g id="edge5_Node000004_Node000006" class="edge">
<title>Node4&#45;&gt;Node6</title>
<g id="a_edge5_Node000004_Node000006"><a xlink:title=" ">
<path fill="none" stroke="#63b8ff" d="M376.95,-45.52C386.6,-42.97 396.94,-40.22 406.5,-37.62 422.53,-33.28 426.42,-31.79 442.5,-27.62 449.21,-25.89 456.27,-24.11 463.27,-22.39"/>
<polygon fill="#63b8ff" stroke="#63b8ff" points="463.8,-25.87 472.68,-20.1 462.14,-19.07 463.8,-25.87"/>
</a>
</g>
</g>
<!-- Node8 -->
<g id="Node000008" class="node">
<title>Node8</title>
<g id="a_Node000008"><a xlink:href="../../d5/d2a/class_face_a8bf8d82bb997ead9e413ffe50b53516b.html#a8bf8d82bb997ead9e413ffe50b53516b" target="_top" xlink:title=" ">
<polygon fill="white" stroke="#666666" points="594.25,-241.25 442.5,-241.25 442.5,-222 594.25,-222 594.25,-241.25"/>
<text text-anchor="middle" x="518.38" y="-227.75" font-family="Helvetica,sans-Serif" font-size="10.00">Face::Flux_From_Face_AUSM</text>
</a>
</g>
</g>
<!-- Node7&#45;&gt;Node8 -->
<g id="edge7_Node000007_Node000008" class="edge">
<title>Node7&#45;&gt;Node8</title>
<g id="a_edge7_Node000007_Node000008"><a xlink:title=" ">
<path fill="none" stroke="#63b8ff" d="M396.49,-243.78C407.55,-242.67 419.35,-241.48 431.07,-240.3"/>
<polygon fill="#63b8ff" stroke="#63b8ff" points="431.15,-243.81 440.75,-239.33 430.45,-236.85 431.15,-243.81"/>
</a>
</g>
</g>
<!-- Node18 -->
<g id="Node000018" class="node">
<title>Node18</title>
<g id="a_Node000018"><a xlink:href="../../d5/d2a/class_face_ac4c4a64de5a6e3a3fbc08a00392e251b.html#ac4c4a64de5a6e3a3fbc08a00392e251b" target="_top" xlink:title=" ">
<polygon fill="white" stroke="#666666" points="577,-326.88 459.75,-326.88 459.75,-296.38 577,-296.38 577,-326.88"/>
<text text-anchor="start" x="467.75" y="-313.38" font-family="Helvetica,sans-Serif" font-size="10.00">Face::Flux_From_Face</text>
<text text-anchor="middle" x="518.38" y="-302.12" font-family="Helvetica,sans-Serif" font-size="10.00">_Central</text>
</a>
</g>
</g>
<!-- Node7&#45;&gt;Node18 -->
<g id="edge17_Node000007_Node000018" class="edge">
<title>Node7&#45;&gt;Node18</title>
<g id="a_edge17_Node000007_Node000018"><a xlink:title=" ">
<path fill="none" stroke="#63b8ff" d="M364.81,-259.6C385.79,-267.44 415.92,-278.52 442.5,-287.62 447.13,-289.21 451.93,-290.82 456.76,-292.42"/>
<polygon fill="#63b8ff" stroke="#63b8ff" points="455.31,-295.63 465.9,-295.42 457.49,-288.98 455.31,-295.63"/>
</a>
</g>
</g>
<!-- Node20 -->
<g id="Node000020" class="node">
<title>Node20</title>
<g id="a_Node000020"><a xlink:href="../../d5/d2a/class_face_a3560cd5db824a402bf5c380f8ada5bb2.html#a3560cd5db824a402bf5c380f8ada5bb2" target="_top" xlink:title=" ">
<polygon fill="white" stroke="#666666" points="585.62,-278.25 451.12,-278.25 451.12,-259 585.62,-259 585.62,-278.25"/>
<text text-anchor="middle" x="518.38" y="-264.75" font-family="Helvetica,sans-Serif" font-size="10.00">Face::Flux_From_Face_VL</text>
</a>
</g>
</g>
<!-- Node7&#45;&gt;Node20 -->
<g id="edge20_Node000007_Node000020" class="edge">
<title>Node7&#45;&gt;Node20</title>
<g id="a_edge20_Node000007_Node000020"><a xlink:title=" ">
<path fill="none" stroke="#63b8ff" d="M396.49,-255.79C410.18,-257.25 425,-258.82 439.41,-260.35"/>
<polygon fill="#63b8ff" stroke="#63b8ff" points="439.03,-263.83 449.35,-261.4 439.77,-256.87 439.03,-263.83"/>
</a>
</g>
</g>
<!-- Node9 -->
<g id="Node000009" class="node">
<title>Node9</title>
<g id="a_Node000009"><a xlink:href="../../d5/d2a/class_face_a28f4009e42e1ac60082a6952566a31aa.html#a28f4009e42e1ac60082a6952566a31aa" target="_top" xlink:title=" ">
<polygon fill="white" stroke="#666666" points="744.5,-315.25 642.25,-315.25 642.25,-296 744.5,-296 744.5,-315.25"/>
<text text-anchor="middle" x="693.38" y="-301.75" font-family="Helvetica,sans-Serif" font-size="10.00">Face::Cal_Primitive</text>
</a>
</g>
</g>
<!-- Node8&#45;&gt;Node9 -->
<g id="edge8_Node000008_Node000009" class="edge">
<title>Node8&#45;&gt;Node9</title>
<g id="a_edge8_Node000008_Node000009"><a xlink:title=" ">
<path fill="none" stroke="#63b8ff" d="M576.73,-241.74C582.84,-243.88 588.81,-246.48 594.25,-249.62 614.39,-261.27 610.38,-275.52 630.25,-287.62 632.27,-288.86 634.38,-290.01 636.56,-291.08"/>
<polygon fill="#63b8ff" stroke="#63b8ff" points="635.09,-294.26 645.66,-294.99 637.85,-287.83 635.09,-294.26"/>
</a>
</g>
</g>
<!-- Node10 -->
<g id="Node000010" class="node">
<title>Node10</title>
<g id="a_Node000010"><a xlink:href="../../d5/d2a/class_face_a80cd45164e8eda621558150d70999601.html#a80cd45164e8eda621558150d70999601" target="_top" xlink:title=" ">
<polygon fill="white" stroke="#666666" points="749,-241.25 637.75,-241.25 637.75,-222 749,-222 749,-241.25"/>
<text text-anchor="middle" x="693.38" y="-227.75" font-family="Helvetica,sans-Serif" font-size="10.00">Face::Evaluate_Mach</text>
</a>
</g>
</g>
<!-- Node8&#45;&gt;Node10 -->
<g id="edge9_Node000008_Node000010" class="edge">
<title>Node8&#45;&gt;Node10</title>
<g id="a_edge9_Node000008_Node000010"><a xlink:title=" ">
<path fill="none" stroke="#63b8ff" d="M594.5,-231.62C604.97,-231.62 615.66,-231.62 625.96,-231.62"/>
<polygon fill="#63b8ff" stroke="#63b8ff" points="625.86,-235.13 635.86,-231.63 625.86,-228.13 625.86,-235.13"/>
</a>
</g>
</g>
<!-- Node11 -->
<g id="Node000011" class="node">
<title>Node11</title>
<g id="a_Node000011"><a xlink:href="../../d5/d2a/class_face_a7b7a45322054b3094ca16809d72cc9f1.html#a7b7a45322054b3094ca16809d72cc9f1" target="_top" xlink:title=" ">
<polygon fill="white" stroke="#666666" points="756.5,-167.25 630.25,-167.25 630.25,-148 756.5,-148 756.5,-167.25"/>
<text text-anchor="middle" x="693.38" y="-153.75" font-family="Helvetica,sans-Serif" font-size="10.00">Face::Evaluate_Pressure</text>
</a>
</g>
</g>
<!-- Node8&#45;&gt;Node11 -->
<g id="edge10_Node000008_Node000011" class="edge">
<title>Node8&#45;&gt;Node11</title>
<g id="a_edge10_Node000008_Node000011"><a xlink:title=" ">
<path fill="none" stroke="#63b8ff" d="M576.73,-221.51C582.84,-219.37 588.81,-216.77 594.25,-213.62 614.39,-201.98 610.38,-187.73 630.25,-175.62 632.27,-174.39 634.38,-173.24 636.56,-172.17"/>
<polygon fill="#63b8ff" stroke="#63b8ff" points="637.85,-175.42 645.66,-168.26 635.09,-168.99 637.85,-175.42"/>
</a>
</g>
</g>
<!-- Node13 -->
<g id="Node000013" class="node">
<title>Node13</title>
<g id="a_Node000013"><a xlink:href="../../d5/d2a/class_face_a1dcbb73e92699148519e558ae989117f.html#a1dcbb73e92699148519e558ae989117f" target="_top" xlink:title=" ">
<polygon fill="white" stroke="#666666" points="748.25,-204.25 638.5,-204.25 638.5,-185 748.25,-185 748.25,-204.25"/>
<text text-anchor="middle" x="693.38" y="-190.75" font-family="Helvetica,sans-Serif" font-size="10.00">Face::Find_Gradients</text>
</a>
</g>
</g>
<!-- Node8&#45;&gt;Node13 -->
<g id="edge12_Node000008_Node000013" class="edge">
<title>Node8&#45;&gt;Node13</title>
<g id="a_edge12_Node000008_Node000013"><a xlink:title=" ">
<path fill="none" stroke="#63b8ff" d="M566.65,-221.51C587.44,-217.07 612.06,-211.8 633.98,-207.11"/>
<polygon fill="#63b8ff" stroke="#63b8ff" points="634.63,-210.55 643.68,-205.04 633.17,-203.71 634.63,-210.55"/>
</a>
</g>
</g>
<!-- Node17 -->
<g id="Node000017" class="node">
<title>Node17</title>
<g id="a_Node000017"><a xlink:href="../../dc/d9f/struct_cell_af37bc52fb84ad9749bddb65f09d837b5.html#af37bc52fb84ad9749bddb65f09d837b5" target="_top" xlink:title=" ">
<polygon fill="white" stroke="#666666" points="754.62,-278.25 632.12,-278.25 632.12,-259 754.62,-259 754.62,-278.25"/>
<text text-anchor="middle" x="693.38" y="-264.75" font-family="Helvetica,sans-Serif" font-size="10.00">Cell::Get_QatCellCenter</text>
</a>
</g>
</g>
<!-- Node8&#45;&gt;Node17 -->
<g id="edge16_Node000008_Node000017" class="edge">
<title>Node8&#45;&gt;Node17</title>
<g id="a_edge16_Node000008_Node000017"><a xlink:title=" ">
<path fill="none" stroke="#63b8ff" d="M566.65,-241.74C587.44,-246.18 612.06,-251.45 633.98,-256.14"/>
<polygon fill="#63b8ff" stroke="#63b8ff" points="633.17,-259.54 643.68,-258.21 634.63,-252.7 633.17,-259.54"/>
</a>
</g>
</g>
<!-- Node12 -->
<g id="Node000012" class="node">
<title>Node12</title>
<g id="a_Node000012"><a xlink:href="../../d3/d82/_c_type___elliptic___grid_8cpp_a6122be421b972a00ce8e6e636589966d.html#a6122be421b972a00ce8e6e636589966d" target="_top" xlink:title=" ">
<polygon fill="white" stroke="#666666" points="876.4,-149.25 847.6,-149.25 847.6,-130 876.4,-130 876.4,-149.25"/>
<text text-anchor="middle" x="862" y="-135.75" font-family="Helvetica,sans-Serif" font-size="10.00">P</text>
</a>
</g>
</g>
<!-- Node11&#45;&gt;Node12 -->
<g id="edge11_Node000011_Node000012" class="edge">
<title>Node11&#45;&gt;Node12</title>
<g id="a_edge11_Node000011_Node000012"><a xlink:title=" ">
<path fill="none" stroke="#63b8ff" d="M756.89,-150.87C784.4,-147.9 815.14,-144.58 836.04,-142.32"/>
<polygon fill="#63b8ff" stroke="#63b8ff" points="836.31,-145.81 845.88,-141.26 835.56,-138.85 836.31,-145.81"/>
</a>
</g>
</g>
<!-- Node14 -->
<g id="Node000014" class="node">
<title>Node14</title>
<g id="a_Node000014"><a xlink:href="../../d5/d2a/class_face_ae6a98fe15c04148426e9875ad29f03cc.html#ae6a98fe15c04148426e9875ad29f03cc" target="_top" xlink:title=" ">
<polygon fill="white" stroke="#666666" points="918.38,-186.25 805.62,-186.25 805.62,-167 918.38,-167 918.38,-186.25"/>
<text text-anchor="middle" x="862" y="-172.75" font-family="Helvetica,sans-Serif" font-size="10.00">Face::Scalar_dot_ndS</text>
</a>
</g>
</g>
<!-- Node13&#45;&gt;Node14 -->
<g id="edge13_Node000013_Node000014" class="edge">
<title>Node13&#45;&gt;Node14</title>
<g id="a_edge13_Node000013_Node000014"><a xlink:title=" ">
<path fill="none" stroke="#63b8ff" d="M748.47,-188.78C762.94,-187.22 778.74,-185.51 793.82,-183.88"/>
<polygon fill="#63b8ff" stroke="#63b8ff" points="794.1,-187.37 803.67,-182.82 793.35,-180.41 794.1,-187.37"/>
</a>
</g>
</g>
<!-- Node15 -->
<g id="Node000015" class="node">
<title>Node15</title>
<g id="a_Node000015"><a xlink:href="../../d5/d2a/class_face_a7dbfe0e14e693127d4d75dd68f879f99.html#a7dbfe0e14e693127d4d75dd68f879f99" target="_top" xlink:title=" ">
<polygon fill="white" stroke="#666666" points="931.5,-260.25 792.5,-260.25 792.5,-241 931.5,-241 931.5,-260.25"/>
<text text-anchor="middle" x="862" y="-246.75" font-family="Helvetica,sans-Serif" font-size="10.00">Face::Thermal_Conductivity</text>
</a>
</g>
</g>
<!-- Node13&#45;&gt;Node15 -->
<g id="edge14_Node000013_Node000015" class="edge">
<title>Node13&#45;&gt;Node15</title>
<g id="a_edge14_Node000013_Node000015"><a xlink:title=" ">
<path fill="none" stroke="#63b8ff" d="M734.27,-204.74C741.76,-207.04 749.45,-209.69 756.5,-212.62 773.4,-219.66 775.52,-225.8 792.5,-232.62 796.62,-234.28 800.94,-235.83 805.32,-237.26"/>
<polygon fill="#63b8ff" stroke="#63b8ff" points="804.22,-240.59 814.81,-240.16 806.26,-233.89 804.22,-240.59"/>
</a>
</g>
</g>
<!-- Node16 -->
<g id="Node000016" class="node">
<title>Node16</title>
<g id="a_Node000016"><a xlink:href="../../d5/d2a/class_face_a658f439bcdacbf424d659be66ae7bce7.html#a658f439bcdacbf424d659be66ae7bce7" target="_top" xlink:title=" ">
<polygon fill="white" stroke="#666666" points="904.12,-223.25 819.88,-223.25 819.88,-204 904.12,-204 904.12,-223.25"/>
<text text-anchor="middle" x="862" y="-209.75" font-family="Helvetica,sans-Serif" font-size="10.00">Face::Viscosity</text>
</a>
</g>
</g>
<!-- Node13&#45;&gt;Node16 -->
<g id="edge15_Node000013_Node000016" class="edge">
<title>Node13&#45;&gt;Node16</title>
<g id="a_edge15_Node000013_Node000016"><a xlink:title=" ">
<path fill="none" stroke="#63b8ff" d="M748.47,-200.79C767.69,-202.98 789.27,-205.45 808.36,-207.62"/>
<polygon fill="#63b8ff" stroke="#63b8ff" points="807.74,-211.07 818.07,-208.73 808.53,-204.12 807.74,-211.07"/>
</a>
</g>
</g>
<!-- Node18&#45;&gt;Node9 -->
<g id="edge18_Node000018_Node000009" class="edge">
<title>Node18&#45;&gt;Node9</title>
<g id="a_edge18_Node000018_Node000009"><a xlink:title=" ">
<path fill="none" stroke="#63b8ff" d="M577.46,-309.61C594.61,-309.02 613.44,-308.36 630.8,-307.76"/>
<polygon fill="#63b8ff" stroke="#63b8ff" points="630.58,-311.27 640.46,-307.43 630.34,-304.27 630.58,-311.27"/>
</a>
</g>
</g>
<!-- Node19 -->
<g id="Node000019" class="node">
<title>Node19</title>
<g id="a_Node000019"><a xlink:href="../../d3/d82/_c_type___elliptic___grid_8cpp_ab180cb902cf4be5a8d26b78172e9491f.html#ab180cb902cf4be5a8d26b78172e9491f" target="_top" xlink:title=" ">
<polygon fill="white" stroke="#666666" points="707.77,-352.25 678.98,-352.25 678.98,-333 707.77,-333 707.77,-352.25"/>
<text text-anchor="middle" x="693.38" y="-338.75" font-family="Helvetica,sans-Serif" font-size="10.00">Q</text>
</a>
</g>
</g>
<!-- Node18&#45;&gt;Node19 -->
<g id="edge19_Node000018_Node000019" class="edge">
<title>Node18&#45;&gt;Node19</title>
<g id="a_edge19_Node000018_Node000019"><a xlink:title=" ">
<path fill="none" stroke="#63b8ff" d="M577.46,-322.03C608.08,-327.52 644.05,-333.96 667.48,-338.16"/>
<polygon fill="#63b8ff" stroke="#63b8ff" points="666.84,-341.61 677.3,-339.92 668.08,-334.71 666.84,-341.61"/>
</a>
</g>
</g>
<!-- Node20&#45;&gt;Node9 -->
<g id="edge21_Node000020_Node000009" class="edge">
<title>Node20&#45;&gt;Node9</title>
<g id="a_edge21_Node000020_Node000009"><a xlink:title=" ">
<path fill="none" stroke="#63b8ff" d="M566.65,-278.74C587.44,-283.18 612.06,-288.45 633.98,-293.14"/>
<polygon fill="#63b8ff" stroke="#63b8ff" points="633.17,-296.54 643.68,-295.21 634.63,-289.7 633.17,-296.54"/>
</a>
</g>
</g>
<!-- Node20&#45;&gt;Node10 -->
<g id="edge22_Node000020_Node000010" class="edge">
<title>Node20&#45;&gt;Node10</title>
<g id="a_edge22_Node000020_Node000010"><a xlink:title=" ">
<path fill="none" stroke="#63b8ff" d="M566.65,-258.51C587.44,-254.07 612.06,-248.8 633.98,-244.11"/>
<polygon fill="#63b8ff" stroke="#63b8ff" points="634.63,-247.55 643.68,-242.04 633.17,-240.71 634.63,-247.55"/>
</a>
</g>
</g>
<!-- Node20&#45;&gt;Node13 -->
<g id="edge23_Node000020_Node000013" class="edge">
<title>Node20&#45;&gt;Node13</title>
<g id="a_edge23_Node000020_Node000013"><a xlink:title=" ">
<path fill="none" stroke="#63b8ff" d="M576.73,-258.51C582.84,-256.37 588.81,-253.77 594.25,-250.62 614.39,-238.98 610.38,-224.73 630.25,-212.62 632.27,-211.39 634.38,-210.24 636.56,-209.17"/>
<polygon fill="#63b8ff" stroke="#63b8ff" points="637.85,-212.42 645.66,-205.26 635.09,-205.99 637.85,-212.42"/>
</a>
</g>
</g>
<!-- Node20&#45;&gt;Node17 -->
<g id="edge24_Node000020_Node000017" class="edge">
<title>Node20&#45;&gt;Node17</title>
<g id="a_edge24_Node000020_Node000017"><a xlink:title=" ">
<path fill="none" stroke="#63b8ff" d="M585.77,-268.62C597.13,-268.62 608.98,-268.62 620.48,-268.62"/>
<polygon fill="#63b8ff" stroke="#63b8ff" points="620.32,-272.13 630.32,-268.63 620.32,-265.13 620.32,-272.13"/>
</a>
</g>
</g>
<!-- Node22&#45;&gt;Node5 -->
<g id="edge27_Node000022_Node000005" class="edge">
<title>Node22&#45;&gt;Node5</title>
<g id="a_edge27_Node000022_Node000005"><a xlink:title=" ">
<path fill="none" stroke="#63b8ff" d="M358.3,-100.53C378.94,-90.38 412.36,-74.81 442.5,-64.62 451.32,-61.64 460.89,-58.95 470.14,-56.61"/>
<polygon fill="#63b8ff" stroke="#63b8ff" points="470.83,-60.04 479.73,-54.29 469.19,-53.24 470.83,-60.04"/>
</a>
</g>
</g>
<!-- Node23 -->
<g id="Node000023" class="node">
<title>Node23</title>
<g id="a_Node000023"><a xlink:href="../../d5/d2a/class_face_a05485559cf65d981de1fb06208ca23ce.html#a05485559cf65d981de1fb06208ca23ce" target="_top" xlink:title=" ">
<polygon fill="white" stroke="#666666" points="575.88,-93.25 460.88,-93.25 460.88,-74 575.88,-74 575.88,-93.25"/>
<text text-anchor="middle" x="518.38" y="-79.75" font-family="Helvetica,sans-Serif" font-size="10.00">Face::Get_Face_TndS</text>
</a>
</g>
</g>
<!-- Node22&#45;&gt;Node23 -->
<g id="edge28_Node000022_Node000023" class="edge">
<title>Node22&#45;&gt;Node23</title>
<g id="a_edge28_Node000022_Node000023"><a xlink:title=" ">
<path fill="none" stroke="#63b8ff" d="M405.28,-100.53C419.62,-98.37 434.79,-96.08 449.18,-93.91"/>
<polygon fill="#63b8ff" stroke="#63b8ff" points="449.65,-97.38 459.02,-92.43 448.61,-90.46 449.65,-97.38"/>
</a>
</g>
</g>
<!-- Node24 -->
<g id="Node000024" class="node">
<title>Node24</title>
<g id="a_Node000024"><a xlink:href="../../d5/d2a/class_face_aaa668000a8eb31366c9333d326f7a2d0.html#aaa668000a8eb31366c9333d326f7a2d0" target="_top" xlink:title=" ">
<polygon fill="white" stroke="#666666" points="575.5,-204.25 461.25,-204.25 461.25,-185 575.5,-185 575.5,-204.25"/>
<text text-anchor="middle" x="518.38" y="-190.75" font-family="Helvetica,sans-Serif" font-size="10.00">Face::Get_Face_undS</text>
</a>
</g>
</g>
<!-- Node22&#45;&gt;Node24 -->
<g id="edge29_Node000022_Node000024" class="edge">
<title>Node22&#45;&gt;Node24</title>
<g id="a_edge29_Node000022_Node000024"><a xlink:title=" ">
<path fill="none" stroke="#63b8ff" d="M391.27,-120.74C396.64,-122.89 401.83,-125.48 406.5,-128.62 428.62,-143.52 420.22,-161.98 442.5,-176.62 445.03,-178.29 447.7,-179.8 450.46,-181.17"/>
<polygon fill="#63b8ff" stroke="#63b8ff" points="448.84,-184.28 459.41,-184.96 451.57,-177.84 448.84,-184.28"/>
</a>
</g>
</g>
<!-- Node25 -->
<g id="Node000025" class="node">
<title>Node25</title>
<g id="a_Node000025"><a xlink:href="../../d5/d2a/class_face_af5ae2d774dbe2dd917de1ad630470a17.html#af5ae2d774dbe2dd917de1ad630470a17" target="_top" xlink:title=" ">
<polygon fill="white" stroke="#666666" points="575.5,-167.25 461.25,-167.25 461.25,-148 575.5,-148 575.5,-167.25"/>
<text text-anchor="middle" x="518.38" y="-153.75" font-family="Helvetica,sans-Serif" font-size="10.00">Face::Get_Face_vndS</text>
</a>
</g>
</g>
<!-- Node22&#45;&gt;Node25 -->
<g id="edge30_Node000022_Node000025" class="edge">
<title>Node22&#45;&gt;Node25</title>
<g id="a_edge30_Node000022_Node000025"><a xlink:title=" ">
<path fill="none" stroke="#63b8ff" d="M377.71,-120.74C387.16,-123.25 397.21,-125.98 406.5,-128.62 422.59,-133.21 426.36,-135.22 442.5,-139.62 448.86,-141.36 455.55,-143.09 462.21,-144.77"/>
<polygon fill="#63b8ff" stroke="#63b8ff" points="461.3,-148.14 471.84,-147.14 462.97,-141.35 461.3,-148.14"/>
</a>
</g>
</g>
<!-- Node26 -->
<g id="Node000026" class="node">
<title>Node26</title>
<g id="a_Node000026"><a xlink:href="../../d5/d2a/class_face_a944ff71ee4a44ca30b68175d5a5e2a08.html#a944ff71ee4a44ca30b68175d5a5e2a08" target="_top" xlink:title=" ">
<polygon fill="white" stroke="#666666" points="576.62,-130.25 460.12,-130.25 460.12,-111 576.62,-111 576.62,-130.25"/>
<text text-anchor="middle" x="518.38" y="-116.75" font-family="Helvetica,sans-Serif" font-size="10.00">Face::Get_Face_wndS</text>
</a>
</g>
</g>
<!-- Node22&#45;&gt;Node26 -->
<g id="edge31_Node000022_Node000026" class="edge">
<title>Node22&#45;&gt;Node26</title>
<g id="a_edge31_Node000022_Node000026"><a xlink:title=" ">
<path fill="none" stroke="#63b8ff" d="M406.81,-114.45C420.46,-115.21 434.8,-116.01 448.47,-116.78"/>
<polygon fill="#63b8ff" stroke="#63b8ff" points="448.06,-120.26 458.24,-117.32 448.45,-113.27 448.06,-120.26"/>
</a>
</g>
</g>
<!-- Node28 -->
<g id="Node000028" class="node">
<title>Node28</title>
<g id="a_Node000028"><a xlink:href="../../dc/d9f/struct_cell_a35016561ae6bc3f9d05ed0c2ecab3f91.html#a35016561ae6bc3f9d05ed0c2ecab3f91" target="_top" xlink:title=" ">
<polygon fill="white" stroke="#666666" points="386.25,-28.25 288.5,-28.25 288.5,-9 386.25,-9 386.25,-28.25"/>
<text text-anchor="middle" x="337.38" y="-14.75" font-family="Helvetica,sans-Serif" font-size="10.00">Cell::Cal_Primitive</text>
</a>
</g>
</g>
<!-- Node27&#45;&gt;Node28 -->
<g id="edge33_Node000027_Node000028" class="edge">
<title>Node27&#45;&gt;Node28</title>
<g id="a_edge33_Node000027_Node000028"><a xlink:title=" ">
<path fill="none" stroke="#63b8ff" d="M190.18,-63.59C211.19,-55.78 241.4,-44.91 268.25,-36.62 273.66,-34.95 279.35,-33.3 285.03,-31.71"/>
<polygon fill="#63b8ff" stroke="#63b8ff" points="285.69,-35.16 294.41,-29.14 283.84,-28.4 285.69,-35.16"/>
</a>
</g>
</g>
</g>
</svg>
