<?xml version="1.0" encoding="UTF-8" standalone="no"?>
<!DOCTYPE svg PUBLIC "-//W3C//DTD SVG 1.1//EN"
 "http://www.w3.org/Graphics/SVG/1.1/DTD/svg11.dtd">
<!-- Generated by graphviz version 12.2.1 (20241206.2353)
 -->
<!-- Title: Subsonic_Exit_Boundary_Condition Pages: 1 -->
<svg width="363pt" height="113pt"
 viewBox="0.00 0.00 362.75 112.88" xmlns="http://www.w3.org/2000/svg" xmlns:xlink="http://www.w3.org/1999/xlink">
<g id="graph0" class="graph" transform="scale(1 1) rotate(0) translate(4 108.88)">
<title>Subsonic_Exit_Boundary_Condition</title>
<!-- Node1 -->
<g id="Node000001" class="node">
<title>Node1</title>
<g id="a_Node000001"><a xlink:title=" ">
<polygon fill="#999999" stroke="#666666" points="125.5,-61.88 0,-61.88 0,-31.38 125.5,-31.38 125.5,-61.88"/>
<text text-anchor="start" x="8" y="-48.38" font-family="Helvetica,sans-Serif" font-size="10.00">Subsonic_Exit_Boundary</text>
<text text-anchor="middle" x="62.75" y="-37.12" font-family="Helvetica,sans-Serif" font-size="10.00">_Condition</text>
</a>
</g>
</g>
<!-- Node2 -->
<g id="Node000002" class="node">
<title>Node2</title>
<g id="a_Node000002"><a xlink:href="../../df/d43/_basic___functions_8cpp_a1c199e756f8458978961b4d9ab4cbe63.html#a1c199e756f8458978961b4d9ab4cbe63" target="_top" xlink:title=" ">
<polygon fill="white" stroke="#666666" points="262.25,-104.88 161.5,-104.88 161.5,-74.38 262.25,-74.38 262.25,-104.88"/>
<text text-anchor="start" x="169.5" y="-91.38" font-family="Helvetica,sans-Serif" font-size="10.00">Calculate_Primitive</text>
<text text-anchor="middle" x="211.88" y="-80.12" font-family="Helvetica,sans-Serif" font-size="10.00">_Variables</text>
</a>
</g>
</g>
<!-- Node1&#45;&gt;Node2 -->
<g id="edge1_Node000001_Node000002" class="edge">
<title>Node1&#45;&gt;Node2</title>
<g id="a_edge1_Node000001_Node000002"><a xlink:title=" ">
<path fill="none" stroke="#63b8ff" d="M117.28,-62.27C128,-65.4 139.34,-68.72 150.28,-71.92"/>
<polygon fill="#63b8ff" stroke="#63b8ff" points="149.02,-75.19 159.6,-74.64 150.98,-68.47 149.02,-75.19"/>
</a>
</g>
</g>
<!-- Node4 -->
<g id="Node000004" class="node">
<title>Node4</title>
<g id="a_Node000004"><a xlink:href="../../d3/d82/_c_type___elliptic___grid_8cpp_a6122be421b972a00ce8e6e636589966d.html#a6122be421b972a00ce8e6e636589966d" target="_top" xlink:title=" ">
<polygon fill="white" stroke="#666666" points="226.28,-56.25 197.47,-56.25 197.47,-37 226.28,-37 226.28,-56.25"/>
<text text-anchor="middle" x="211.88" y="-42.75" font-family="Helvetica,sans-Serif" font-size="10.00">P</text>
</a>
</g>
</g>
<!-- Node1&#45;&gt;Node4 -->
<g id="edge3_Node000001_Node000004" class="edge">
<title>Node1&#45;&gt;Node4</title>
<g id="a_edge3_Node000001_Node000004"><a xlink:title=" ">
<path fill="none" stroke="#63b8ff" d="M125.72,-46.62C146.87,-46.62 169.33,-46.62 185.88,-46.62"/>
<polygon fill="#63b8ff" stroke="#63b8ff" points="185.74,-50.13 195.74,-46.63 185.74,-43.13 185.74,-50.13"/>
</a>
</g>
</g>
<!-- Node5 -->
<g id="Node000005" class="node">
<title>Node5</title>
<g id="a_Node000005"><a xlink:href="../../dc/d3a/src_2_utility___files_8cpp_aa5fe1ffca7af96bc7295ff9492f6423d.html#aa5fe1ffca7af96bc7295ff9492f6423d" target="_top" xlink:title=" ">
<polygon fill="white" stroke="#666666" points="249.88,-19.25 173.88,-19.25 173.88,0 249.88,0 249.88,-19.25"/>
<text text-anchor="middle" x="211.88" y="-5.75" font-family="Helvetica,sans-Serif" font-size="10.00">Vector_Reset</text>
</a>
</g>
</g>
<!-- Node1&#45;&gt;Node5 -->
<g id="edge4_Node000001_Node000005" class="edge">
<title>Node1&#45;&gt;Node5</title>
<g id="a_edge4_Node000001_Node000005"><a xlink:title=" ">
<path fill="none" stroke="#63b8ff" d="M125.72,-31.04C138.1,-27.93 150.92,-24.7 162.75,-21.73"/>
<polygon fill="#63b8ff" stroke="#63b8ff" points="163.43,-25.17 172.27,-19.33 161.72,-18.38 163.43,-25.17"/>
</a>
</g>
</g>
<!-- Node3 -->
<g id="Node000003" class="node">
<title>Node3</title>
<g id="a_Node000003"><a xlink:href="../../db/d81/_viscous___calculations_8cpp_ae9dc3225863fb110155bb3e9dea4e4d3.html#ae9dc3225863fb110155bb3e9dea4e4d3" target="_top" xlink:title=" ">
<polygon fill="white" stroke="#666666" points="354.75,-99.25 298.25,-99.25 298.25,-80 354.75,-80 354.75,-99.25"/>
<text text-anchor="middle" x="326.5" y="-85.75" font-family="Helvetica,sans-Serif" font-size="10.00">Viscosity</text>
</a>
</g>
</g>
<!-- Node2&#45;&gt;Node3 -->
<g id="edge2_Node000002_Node000003" class="edge">
<title>Node2&#45;&gt;Node3</title>
<g id="a_edge2_Node000002_Node000003"><a xlink:title=" ">
<path fill="none" stroke="#63b8ff" d="M262.6,-89.62C270.66,-89.62 278.91,-89.62 286.66,-89.62"/>
<polygon fill="#63b8ff" stroke="#63b8ff" points="286.45,-93.13 296.45,-89.63 286.45,-86.13 286.45,-93.13"/>
</a>
</g>
</g>
</g>
</svg>
