<?xml version="1.0" encoding="UTF-8" standalone="no"?>
<!DOCTYPE svg PUBLIC "-//W3C//DTD SVG 1.1//EN"
 "http://www.w3.org/Graphics/SVG/1.1/DTD/svg11.dtd">
<!-- Generated by graphviz version 12.2.1 (20241206.2353)
 -->
<!-- Title: Supersonic_Exit_Condition Pages: 1 -->
<svg width="732pt" height="118pt"
 viewBox="0.00 0.00 732.25 118.37" xmlns="http://www.w3.org/2000/svg" xmlns:xlink="http://www.w3.org/1999/xlink">
<g id="graph0" class="graph" transform="scale(1 1) rotate(0) translate(4 114.37)">
<title>Supersonic_Exit_Condition</title>
<!-- Node1 -->
<g id="Node000001" class="node">
<title>Node1</title>
<g id="a_Node000001"><a xlink:title=" ">
<polygon fill="#999999" stroke="#666666" points="724.25,-75.25 590.5,-75.25 590.5,-56 724.25,-56 724.25,-75.25"/>
<text text-anchor="middle" x="657.38" y="-61.75" font-family="Helvetica,sans-Serif" font-size="10.00">Supersonic_Exit_Condition</text>
</a>
</g>
</g>
<!-- Node2 -->
<g id="Node000002" class="node">
<title>Node2</title>
<g id="a_Node000002"><a xlink:href="../../d0/d1e/_boundary___conditions_8cpp_af3770504ee20d68a2295133e7aa72bfa.html#af3770504ee20d68a2295133e7aa72bfa" target="_top" xlink:title=" ">
<polygon fill="white" stroke="#666666" points="554.5,-75.25 415.5,-75.25 415.5,-56 554.5,-56 554.5,-75.25"/>
<text text-anchor="middle" x="485" y="-61.75" font-family="Helvetica,sans-Serif" font-size="10.00">Apply_Boundary_Conditions</text>
</a>
</g>
</g>
<!-- Node1&#45;&gt;Node2 -->
<g id="edge1_Node000001_Node000002" class="edge">
<title>Node1&#45;&gt;Node2</title>
<g id="a_edge1_Node000001_Node000002"><a xlink:title=" ">
<path fill="none" stroke="#63b8ff" d="M578.58,-65.62C570.71,-65.62 562.76,-65.62 554.99,-65.62"/>
<polygon fill="#63b8ff" stroke="#63b8ff" points="578.5,-69.13 588.5,-65.63 578.5,-62.13 578.5,-69.13"/>
</a>
</g>
</g>
<!-- Node3 -->
<g id="Node000003" class="node">
<title>Node3</title>
<g id="a_Node000003"><a xlink:href="../../de/df0/_solver_8cpp_ad0f49408a26339b5f7043bf867c3fa8d.html#ad0f49408a26339b5f7043bf867c3fa8d" target="_top" xlink:title=" ">
<polygon fill="white" stroke="#666666" points="232.25,-19.25 149.5,-19.25 149.5,0 232.25,0 232.25,-19.25"/>
<text text-anchor="middle" x="190.88" y="-5.75" font-family="Helvetica,sans-Serif" font-size="10.00">Inviscid_Solver</text>
</a>
</g>
</g>
<!-- Node2&#45;&gt;Node3 -->
<g id="edge2_Node000002_Node000003" class="edge">
<title>Node2&#45;&gt;Node3</title>
<g id="a_edge2_Node000002_Node000003"><a xlink:title=" ">
<path fill="none" stroke="#63b8ff" d="M420.38,-53.43C363.36,-42.5 281.42,-26.79 232.72,-17.45"/>
<polygon fill="#63b8ff" stroke="#63b8ff" points="419.47,-56.82 429.95,-55.26 420.79,-49.94 419.47,-56.82"/>
</a>
</g>
</g>
<!-- Node4 -->
<g id="Node000004" class="node">
<title>Node4</title>
<g id="a_Node000004"><a xlink:href="../../dd/dbf/_euler___python___wrapper_8cpp_ac5ccb50c3be270f798e054dd36987442.html#ac5ccb50c3be270f798e054dd36987442" target="_top" xlink:title=" ">
<polygon fill="white" stroke="#666666" points="112.75,-84.25 0,-84.25 0,-65 112.75,-65 112.75,-84.25"/>
<text text-anchor="middle" x="56.38" y="-70.75" font-family="Helvetica,sans-Serif" font-size="10.00">PYBIND11_MODULE</text>
</a>
</g>
</g>
<!-- Node2&#45;&gt;Node4 -->
<g id="edge5_Node000002_Node000004" class="edge">
<title>Node2&#45;&gt;Node4</title>
<g id="a_edge5_Node000002_Node000004"><a xlink:title=" ">
<path fill="none" stroke="#63b8ff" d="M452.46,-80.37C432.13,-89.04 404.85,-99.16 379.5,-103.62 278.3,-121.45 157.18,-98.97 96.33,-84.7"/>
<polygon fill="#63b8ff" stroke="#63b8ff" points="453.86,-83.58 461.6,-76.35 451.04,-77.17 453.86,-83.58"/>
</a>
</g>
</g>
<!-- Node6 -->
<g id="Node000006" class="node">
<title>Node6</title>
<g id="a_Node000006"><a xlink:href="../../de/d22/_cuda___parallel___r_k_8cpp_a794f030971fbb7c9dd4bc08df03f50f1.html#a794f030971fbb7c9dd4bc08df03f50f1" target="_top" xlink:title=" ">
<polygon fill="white" stroke="#666666" points="379.5,-94.25 269,-94.25 269,-75 379.5,-75 379.5,-94.25"/>
<text text-anchor="middle" x="324.25" y="-80.75" font-family="Helvetica,sans-Serif" font-size="10.00">Runge_Kutta_Method</text>
</a>
</g>
</g>
<!-- Node2&#45;&gt;Node6 -->
<g id="edge6_Node000002_Node000006" class="edge">
<title>Node2&#45;&gt;Node6</title>
<g id="a_edge6_Node000002_Node000006"><a xlink:title=" ">
<path fill="none" stroke="#63b8ff" d="M404.08,-75.19C395.83,-76.18 387.59,-77.16 379.71,-78.11"/>
<polygon fill="#63b8ff" stroke="#63b8ff" points="404.28,-78.69 413.79,-74.03 403.45,-71.74 404.28,-78.69"/>
</a>
</g>
</g>
<!-- Node7 -->
<g id="Node000007" class="node">
<title>Node7</title>
<g id="a_Node000007"><a xlink:href="../../de/df0/_solver_8cpp_a2f37f06e8324a1ed6aa99efdbba81865.html#a2f37f06e8324a1ed6aa99efdbba81865" target="_top" xlink:title=" ">
<polygon fill="white" stroke="#666666" points="233,-56.25 148.75,-56.25 148.75,-37 233,-37 233,-56.25"/>
<text text-anchor="middle" x="190.88" y="-42.75" font-family="Helvetica,sans-Serif" font-size="10.00">Viscous_Solver</text>
</a>
</g>
</g>
<!-- Node2&#45;&gt;Node7 -->
<g id="edge12_Node000002_Node000007" class="edge">
<title>Node2&#45;&gt;Node7</title>
<g id="a_edge12_Node000002_Node000007"><a xlink:title=" ">
<path fill="none" stroke="#63b8ff" d="M403.96,-60.42C348.69,-56.82 277.44,-52.19 233.21,-49.31"/>
<polygon fill="#63b8ff" stroke="#63b8ff" points="403.42,-63.89 413.63,-61.05 403.88,-56.91 403.42,-63.89"/>
</a>
</g>
</g>
<!-- Node3&#45;&gt;Node4 -->
<g id="edge3_Node000003_Node000004" class="edge">
<title>Node3&#45;&gt;Node4</title>
<g id="a_edge3_Node000003_Node000004"><a xlink:title=" ">
<path fill="none" stroke="#63b8ff" d="M155.79,-24.31C153.4,-25.41 151.03,-26.53 148.75,-27.62 132.45,-35.48 128.82,-38.32 112.75,-46.62 101.07,-52.66 87.95,-59.3 77.41,-64.6"/>
<polygon fill="#63b8ff" stroke="#63b8ff" points="157.18,-27.52 164.87,-20.23 154.32,-21.14 157.18,-27.52"/>
</a>
</g>
</g>
<!-- Node5 -->
<g id="Node000005" class="node">
<title>Node5</title>
<g id="a_Node000005"><a xlink:href="../../d5/d12/_main_8cpp_a35d775933750ace299102f06a1712663.html#a35d775933750ace299102f06a1712663" target="_top" xlink:title="Executes the appropriate solver based on the simulation configuration.">
<polygon fill="white" stroke="#666666" points="85,-37.25 27.75,-37.25 27.75,-18 85,-18 85,-37.25"/>
<text text-anchor="middle" x="56.38" y="-23.75" font-family="Helvetica,sans-Serif" font-size="10.00">runSolver</text>
</a>
</g>
</g>
<!-- Node3&#45;&gt;Node5 -->
<g id="edge4_Node000003_Node000005" class="edge">
<title>Node3&#45;&gt;Node5</title>
<g id="a_edge4_Node000003_Node000005"><a xlink:title=" ">
<path fill="none" stroke="#63b8ff" d="M137.83,-16.7C119.9,-19.13 100.53,-21.76 85.28,-23.83"/>
<polygon fill="#63b8ff" stroke="#63b8ff" points="138.1,-20.19 147.54,-15.38 137.16,-13.25 138.1,-20.19"/>
</a>
</g>
</g>
<!-- Node6&#45;&gt;Node3 -->
<g id="edge7_Node000006_Node000003" class="edge">
<title>Node6&#45;&gt;Node3</title>
<g id="a_edge7_Node000006_Node000003"><a xlink:title=" ">
<path fill="none" stroke="#63b8ff" d="M299.62,-68.32C281.74,-56.33 256.37,-40.03 233,-27.62 227.77,-24.85 222.02,-22.13 216.52,-19.69"/>
<polygon fill="#63b8ff" stroke="#63b8ff" points="297.47,-71.09 307.71,-73.8 301.39,-65.29 297.47,-71.09"/>
</a>
</g>
</g>
<!-- Node6&#45;&gt;Node4 -->
<g id="edge8_Node000006_Node000004" class="edge">
<title>Node6&#45;&gt;Node4</title>
<g id="a_edge8_Node000006_Node000004"><a xlink:title=" ">
<path fill="none" stroke="#63b8ff" d="M257.54,-82.15C213.17,-80.48 155.24,-78.31 113.12,-76.72"/>
<polygon fill="#63b8ff" stroke="#63b8ff" points="257.17,-85.64 267.29,-82.52 257.43,-78.65 257.17,-85.64"/>
</a>
</g>
</g>
<!-- Node6&#45;&gt;Node7 -->
<g id="edge9_Node000006_Node000007" class="edge">
<title>Node6&#45;&gt;Node7</title>
<g id="a_edge9_Node000006_Node000007"><a xlink:title=" ">
<path fill="none" stroke="#63b8ff" d="M277.68,-71.44C260.87,-66.58 242.12,-61.16 226.44,-56.62"/>
<polygon fill="#63b8ff" stroke="#63b8ff" points="276.36,-74.7 286.93,-74.12 278.3,-67.98 276.36,-74.7"/>
</a>
</g>
</g>
<!-- Node7&#45;&gt;Node4 -->
<g id="edge10_Node000007_Node000004" class="edge">
<title>Node7&#45;&gt;Node4</title>
<g id="a_edge10_Node000007_Node000004"><a xlink:title=" ">
<path fill="none" stroke="#63b8ff" d="M137.14,-57.77C126.61,-59.99 115.62,-62.32 105.27,-64.5"/>
<polygon fill="#63b8ff" stroke="#63b8ff" points="137.77,-61.21 146.83,-55.72 136.33,-54.36 137.77,-61.21"/>
</a>
</g>
</g>
<!-- Node7&#45;&gt;Node5 -->
<g id="edge11_Node000007_Node000005" class="edge">
<title>Node7&#45;&gt;Node5</title>
<g id="a_edge11_Node000007_Node000005"><a xlink:title=" ">
<path fill="none" stroke="#63b8ff" d="M136.97,-39.04C119.33,-36.51 100.37,-33.79 85.38,-31.64"/>
<polygon fill="#63b8ff" stroke="#63b8ff" points="136.42,-42.5 146.82,-40.45 137.41,-35.57 136.42,-42.5"/>
</a>
</g>
</g>
</g>
</svg>
