<?xml version="1.0" encoding="UTF-8" standalone="no"?>
<!DOCTYPE svg PUBLIC "-//W3C//DTD SVG 1.1//EN"
 "http://www.w3.org/Graphics/SVG/1.1/DTD/svg11.dtd">
<!-- Generated by graphviz version 12.2.1 (20241206.2353)
 -->
<!-- Title: assemble_sparse_matrix_cuda Pages: 1 -->
<svg width="472pt" height="137pt"
 viewBox="0.00 0.00 471.50 136.50" xmlns="http://www.w3.org/2000/svg" xmlns:xlink="http://www.w3.org/1999/xlink">
<g id="graph0" class="graph" transform="scale(1 1) rotate(0) translate(4 132.5)">
<title>assemble_sparse_matrix_cuda</title>
<!-- Node1 -->
<g id="Node000001" class="node">
<title>Node1</title>
<g id="a_Node000001"><a xlink:title=" ">
<polygon fill="#999999" stroke="#666666" points="151,-73.88 0,-73.88 0,-54.62 151,-54.62 151,-73.88"/>
<text text-anchor="middle" x="75.5" y="-60.38" font-family="Helvetica,sans-Serif" font-size="10.00">assemble_sparse_matrix_cuda</text>
</a>
</g>
</g>
<!-- Node2 -->
<g id="Node000002" class="node">
<title>Node2</title>
<g id="a_Node000002"><a xlink:href="../../d4/d5c/_matrix___assembly___cuda___kernels_8cu_a80f72b9cb6f104aa17ff78c19947dfee.html#a80f72b9cb6f104aa17ff78c19947dfee" target="_top" xlink:title="CUDA kernel for sparse matrix assembly in COO (Coordinate) format.">
<polygon fill="white" stroke="#666666" points="311.75,-128.5 187,-128.5 187,-98 311.75,-98 311.75,-128.5"/>
<text text-anchor="start" x="195" y="-115" font-family="Helvetica,sans-Serif" font-size="10.00">assemble_sparse_matrix</text>
<text text-anchor="middle" x="249.38" y="-103.75" font-family="Helvetica,sans-Serif" font-size="10.00">_kernel</text>
</a>
</g>
</g>
<!-- Node1&#45;&gt;Node2 -->
<g id="edge1_Node000001_Node000002" class="edge">
<title>Node1&#45;&gt;Node2</title>
<g id="a_edge1_Node000001_Node000002"><a xlink:title=" ">
<path fill="none" stroke="#63b8ff" d="M111.7,-74.28C132.05,-80.09 158.32,-87.58 182.39,-94.44"/>
<polygon fill="#63b8ff" stroke="#63b8ff" points="181.23,-97.75 191.8,-97.12 183.15,-91.01 181.23,-97.75"/>
</a>
</g>
</g>
<!-- Node4 -->
<g id="Node000004" class="node">
<title>Node4</title>
<g id="a_Node000004"><a xlink:href="../../d4/d5c/_matrix___assembly___cuda___kernels_8cu_a937b70c8bcaaa55bd8aeeb47817af1f8.html#a937b70c8bcaaa55bd8aeeb47817af1f8" target="_top" xlink:title=" ">
<polygon fill="white" stroke="#666666" points="301.25,-79.5 197.5,-79.5 197.5,-49 301.25,-49 301.25,-79.5"/>
<text text-anchor="start" x="205.5" y="-66" font-family="Helvetica,sans-Serif" font-size="10.00">count_nonzeros_per</text>
<text text-anchor="middle" x="249.38" y="-54.75" font-family="Helvetica,sans-Serif" font-size="10.00">_cell_kernel</text>
</a>
</g>
</g>
<!-- Node1&#45;&gt;Node4 -->
<g id="edge3_Node000001_Node000004" class="edge">
<title>Node1&#45;&gt;Node4</title>
<g id="a_edge3_Node000001_Node000004"><a xlink:title=" ">
<path fill="none" stroke="#63b8ff" d="M151.39,-64.25C162.87,-64.25 174.62,-64.25 185.79,-64.25"/>
<polygon fill="#63b8ff" stroke="#63b8ff" points="185.69,-67.75 195.69,-64.25 185.69,-60.75 185.69,-67.75"/>
</a>
</g>
</g>
<!-- Node5 -->
<g id="Node000005" class="node">
<title>Node5</title>
<g id="a_Node000005"><a xlink:href="../../d8/d45/_matrix___assembly___cuda___host___wrappers_8cpp_a66c53bbe6c514b4d189e8151bcaf8588.html#a66c53bbe6c514b4d189e8151bcaf8588" target="_top" xlink:title=" ">
<polygon fill="white" stroke="#666666" points="299.38,-30.5 199.38,-30.5 199.38,0 299.38,0 299.38,-30.5"/>
<text text-anchor="start" x="207.38" y="-17" font-family="Helvetica,sans-Serif" font-size="10.00">get_optimal_launch</text>
<text text-anchor="middle" x="249.38" y="-5.75" font-family="Helvetica,sans-Serif" font-size="10.00">_params</text>
</a>
</g>
</g>
<!-- Node1&#45;&gt;Node5 -->
<g id="edge4_Node000001_Node000005" class="edge">
<title>Node1&#45;&gt;Node5</title>
<g id="a_edge4_Node000001_Node000005"><a xlink:title=" ">
<path fill="none" stroke="#63b8ff" d="M111.7,-54.22C133.6,-47.97 162.35,-39.78 187.83,-32.51"/>
<polygon fill="#63b8ff" stroke="#63b8ff" points="188.78,-35.88 197.44,-29.77 186.86,-29.15 188.78,-35.88"/>
</a>
</g>
</g>
<!-- Node3 -->
<g id="Node000003" class="node">
<title>Node3</title>
<g id="a_Node000003"><a xlink:href="../../d4/d5c/_matrix___assembly___cuda___kernels_8cu_a746da81d996037720504d4a2a923c4a6.html#a746da81d996037720504d4a2a923c4a6" target="_top" xlink:title="Device function to compute flux Jacobian matrix for Euler equations.">
<polygon fill="white" stroke="#666666" points="463.5,-128.5 347.75,-128.5 347.75,-98 463.5,-98 463.5,-128.5"/>
<text text-anchor="start" x="355.75" y="-115" font-family="Helvetica,sans-Serif" font-size="10.00">compute_flux_jacobian</text>
<text text-anchor="middle" x="405.62" y="-103.75" font-family="Helvetica,sans-Serif" font-size="10.00">_device</text>
</a>
</g>
</g>
<!-- Node2&#45;&gt;Node3 -->
<g id="edge2_Node000002_Node000003" class="edge">
<title>Node2&#45;&gt;Node3</title>
<g id="a_edge2_Node000002_Node000003"><a xlink:title=" ">
<path fill="none" stroke="#63b8ff" d="M312.23,-113.25C320,-113.25 327.98,-113.25 335.85,-113.25"/>
<polygon fill="#63b8ff" stroke="#63b8ff" points="335.75,-116.75 345.75,-113.25 335.75,-109.75 335.75,-116.75"/>
</a>
</g>
</g>
</g>
</svg>
