<?xml version="1.0" encoding="UTF-8" standalone="no"?>
<!DOCTYPE svg PUBLIC "-//W3C//DTD SVG 1.1//EN"
 "http://www.w3.org/Graphics/SVG/1.1/DTD/svg11.dtd">
<!-- Generated by graphviz version 12.2.1 (20241206.2353)
 -->
<!-- Title: estimate_matrix_assembly_memory_usage Pages: 1 -->
<svg width="511pt" height="114pt"
 viewBox="0.00 0.00 511.25 113.88" xmlns="http://www.w3.org/2000/svg" xmlns:xlink="http://www.w3.org/1999/xlink">
<g id="graph0" class="graph" transform="scale(1 1) rotate(0) translate(4 109.88)">
<title>estimate_matrix_assembly_memory_usage</title>
<!-- Node1 -->
<g id="Node000001" class="node">
<title>Node1</title>
<g id="a_Node000001"><a xlink:title=" ">
<polygon fill="#999999" stroke="#666666" points="503.25,-62.88 370.25,-62.88 370.25,-32.38 503.25,-32.38 503.25,-62.88"/>
<text text-anchor="start" x="378.25" y="-49.38" font-family="Helvetica,sans-Serif" font-size="10.00">estimate_matrix_assembly</text>
<text text-anchor="middle" x="436.75" y="-38.12" font-family="Helvetica,sans-Serif" font-size="10.00">_memory_usage</text>
</a>
</g>
</g>
<!-- Node2 -->
<g id="Node000002" class="node">
<title>Node2</title>
<g id="a_Node000002"><a xlink:href="../../d5/d81/_matrix___assembly___c_u_d_a___integration___example_8cpp_ab733b6db749fdfbc6665f7e34b50e5ad.html#ab733b6db749fdfbc6665f7e34b50e5ad" target="_top" xlink:title=" ">
<polygon fill="white" stroke="#666666" points="321.12,-105.88 177.62,-105.88 177.62,-75.38 321.12,-75.38 321.12,-105.88"/>
<text text-anchor="start" x="185.62" y="-92.38" font-family="Helvetica,sans-Serif" font-size="10.00">benchmark_matrix_assembly</text>
<text text-anchor="middle" x="249.38" y="-81.12" font-family="Helvetica,sans-Serif" font-size="10.00">_cpu_vs_cuda</text>
</a>
</g>
</g>
<!-- Node1&#45;&gt;Node2 -->
<g id="edge1_Node000001_Node000002" class="edge">
<title>Node1&#45;&gt;Node2</title>
<g id="a_edge1_Node000001_Node000002"><a xlink:title=" ">
<path fill="none" stroke="#63b8ff" d="M358.72,-65.49C345.28,-68.61 331.4,-71.83 318.23,-74.88"/>
<polygon fill="#63b8ff" stroke="#63b8ff" points="359.45,-68.92 368.4,-63.25 357.87,-62.1 359.45,-68.92"/>
</a>
</g>
</g>
<!-- Node3 -->
<g id="Node000003" class="node">
<title>Node3</title>
<g id="a_Node000003"><a xlink:href="../../d5/d81/_matrix___assembly___c_u_d_a___integration___example_8cpp_a040fa30a7d9a31fc77785e00a27f6fa6.html#a040fa30a7d9a31fc77785e00a27f6fa6" target="_top" xlink:title=" ">
<polygon fill="white" stroke="#666666" points="128.5,-83.88 0,-83.88 0,-53.38 128.5,-53.38 128.5,-83.88"/>
<text text-anchor="start" x="8" y="-70.38" font-family="Helvetica,sans-Serif" font-size="10.00">demonstrate_cuda_matrix</text>
<text text-anchor="middle" x="64.25" y="-59.12" font-family="Helvetica,sans-Serif" font-size="10.00">_assembly</text>
</a>
</g>
</g>
<!-- Node1&#45;&gt;Node3 -->
<g id="edge4_Node000001_Node000003" class="edge">
<title>Node1&#45;&gt;Node3</title>
<g id="a_edge4_Node000001_Node000003"><a xlink:title=" ">
<path fill="none" stroke="#63b8ff" d="M358.86,-51.98C290.8,-55.84 192.65,-61.4 128.9,-65.02"/>
<polygon fill="#63b8ff" stroke="#63b8ff" points="358.64,-55.5 368.43,-51.44 358.25,-48.51 358.64,-55.5"/>
</a>
</g>
</g>
<!-- Node4 -->
<g id="Node000004" class="node">
<title>Node4</title>
<g id="a_Node000004"><a xlink:href="../../d8/d45/_matrix___assembly___cuda___host___wrappers_8cpp_a8c7dbdb8a9071584c3bfd920264b1a57.html#a8c7dbdb8a9071584c3bfd920264b1a57" target="_top" xlink:title=" ">
<polygon fill="white" stroke="#666666" points="334.25,-19.25 164.5,-19.25 164.5,0 334.25,0 334.25,-19.25"/>
<text text-anchor="middle" x="249.38" y="-5.75" font-family="Helvetica,sans-Serif" font-size="10.00">benchmark_matrix_assembly_cuda</text>
</a>
</g>
</g>
<!-- Node1&#45;&gt;Node4 -->
<g id="edge3_Node000001_Node000004" class="edge">
<title>Node1&#45;&gt;Node4</title>
<g id="a_edge3_Node000001_Node000004"><a xlink:title=" ">
<path fill="none" stroke="#63b8ff" d="M358.61,-31.81C338.69,-27.73 317.79,-23.44 299.72,-19.74"/>
<polygon fill="#63b8ff" stroke="#63b8ff" points="357.89,-35.24 368.39,-33.82 359.3,-28.38 357.89,-35.24"/>
</a>
</g>
</g>
<!-- Node2&#45;&gt;Node3 -->
<g id="edge2_Node000002_Node000003" class="edge">
<title>Node2&#45;&gt;Node3</title>
<g id="a_edge2_Node000002_Node000003"><a xlink:title=" ">
<path fill="none" stroke="#63b8ff" d="M165.95,-80.72C153.49,-79.23 140.79,-77.7 128.81,-76.26"/>
<polygon fill="#63b8ff" stroke="#63b8ff" points="165.46,-84.19 175.81,-81.91 166.3,-77.24 165.46,-84.19"/>
</a>
</g>
</g>
</g>
</svg>
