<?xml version="1.0" encoding="UTF-8" standalone="no"?>
<!DOCTYPE svg PUBLIC "-//W3C//DTD SVG 1.1//EN"
 "http://www.w3.org/Graphics/SVG/1.1/DTD/svg11.dtd">
<!-- Generated by graphviz version 12.2.1 (20241206.2353)
 -->
<!-- Title: main Pages: 1 -->
<svg width="387pt" height="571pt"
 viewBox="0.00 0.00 386.75 571.25" xmlns="http://www.w3.org/2000/svg" xmlns:xlink="http://www.w3.org/1999/xlink">
<g id="graph0" class="graph" transform="scale(1 1) rotate(0) translate(4 567.25)">
<title>main</title>
<!-- Node1 -->
<g id="Node000001" class="node">
<title>Node1</title>
<g id="a_Node000001"><a xlink:title=" ">
<polygon fill="#999999" stroke="#666666" points="37,-283.25 0,-283.25 0,-264 37,-264 37,-283.25"/>
<text text-anchor="middle" x="18.5" y="-269.75" font-family="Helvetica,sans-Serif" font-size="10.00">main</text>
</a>
</g>
</g>
<!-- Node2 -->
<g id="Node000002" class="node">
<title>Node2</title>
<g id="a_Node000002"><a xlink:href="../../d4/d9e/_flow___over___cylinder_8cpp_a36606ab9028521932c9b05107d8e2c58.html#a36606ab9028521932c9b05107d8e2c58" target="_top" xlink:title=" ">
<polygon fill="white" stroke="#666666" points="180.88,-526.25 110.88,-526.25 110.88,-507 180.88,-507 180.88,-526.25"/>
<text text-anchor="middle" x="145.88" y="-512.75" font-family="Helvetica,sans-Serif" font-size="10.00">Append_List</text>
</a>
</g>
</g>
<!-- Node1&#45;&gt;Node2 -->
<g id="edge1_Node000001_Node000002" class="edge">
<title>Node1&#45;&gt;Node2</title>
<g id="a_edge1_Node000001_Node000002"><a xlink:title=" ">
<path fill="none" stroke="#63b8ff" d="M20.51,-283.59C24.68,-322.97 41.89,-467.14 73,-498.62 80.16,-505.87 89.77,-510.36 99.63,-513.1"/>
<polygon fill="#63b8ff" stroke="#63b8ff" points="98.75,-516.49 109.26,-515.18 100.23,-509.65 98.75,-516.49"/>
</a>
</g>
</g>
<!-- Node3 -->
<g id="Node000003" class="node">
<title>Node3</title>
<g id="a_Node000003"><a xlink:href="../../dd/db4/class_line_a11ee9e238e8e0d712b52ae99077355ee.html#a11ee9e238e8e0d712b52ae99077355ee" target="_top" xlink:title=" ">
<polygon fill="white" stroke="#666666" points="184.62,-489.25 107.12,-489.25 107.12,-470 184.62,-470 184.62,-489.25"/>
<text text-anchor="middle" x="145.88" y="-475.75" font-family="Helvetica,sans-Serif" font-size="10.00">Line::generate</text>
</a>
</g>
</g>
<!-- Node1&#45;&gt;Node3 -->
<g id="edge2_Node000001_Node000003" class="edge">
<title>Node1&#45;&gt;Node3</title>
<g id="a_edge2_Node000001_Node000003"><a xlink:title=" ">
<path fill="none" stroke="#63b8ff" d="M19.4,-283.45C19.65,-313.53 24.54,-405.37 73,-455.62 79.29,-462.15 87.4,-466.9 95.9,-470.36"/>
<polygon fill="#63b8ff" stroke="#63b8ff" points="94.74,-473.66 105.33,-473.6 97.01,-467.04 94.74,-473.66"/>
</a>
</g>
</g>
<!-- Node7 -->
<g id="Node000007" class="node">
<title>Node7</title>
<g id="a_Node000007"><a xlink:href="../../d0/d69/class_point_a006470547553ab6cfaacfea891970f8a.html#a006470547553ab6cfaacfea891970f8a" target="_top" xlink:title=" ">
<polygon fill="white" stroke="#666666" points="349.12,-452.25 284.38,-452.25 284.38,-433 349.12,-433 349.12,-452.25"/>
<text text-anchor="middle" x="316.75" y="-438.75" font-family="Helvetica,sans-Serif" font-size="10.00">Point::Print</text>
</a>
</g>
</g>
<!-- Node1&#45;&gt;Node7 -->
<g id="edge21_Node000001_Node000007" class="edge">
<title>Node1&#45;&gt;Node7</title>
<g id="a_edge21_Node000001_Node000007"><a xlink:title=" ">
<path fill="none" stroke="#63b8ff" d="M19.65,-283.71C20.67,-311.22 27.63,-387.84 73,-422.62 130.56,-466.76 219.97,-460.73 272.7,-451.95"/>
<polygon fill="#63b8ff" stroke="#63b8ff" points="273.29,-455.4 282.52,-450.19 272.06,-448.51 273.29,-455.4"/>
</a>
</g>
</g>
<!-- Node8 -->
<g id="Node000008" class="node">
<title>Node8</title>
<g id="a_Node000008"><a xlink:href="../../d4/d9e/_flow___over___cylinder_8cpp_a198e232411110d9bb41f8028ce67ccd7.html#a198e232411110d9bb41f8028ce67ccd7" target="_top" xlink:title=" ">
<polygon fill="white" stroke="#666666" points="183.88,-413.25 107.88,-413.25 107.88,-394 183.88,-394 183.88,-413.25"/>
<text text-anchor="middle" x="145.88" y="-399.75" font-family="Helvetica,sans-Serif" font-size="10.00">Generate_Arc</text>
</a>
</g>
</g>
<!-- Node1&#45;&gt;Node8 -->
<g id="edge7_Node000001_Node000008" class="edge">
<title>Node1&#45;&gt;Node8</title>
<g id="a_edge7_Node000001_Node000008"><a xlink:title=" ">
<path fill="none" stroke="#63b8ff" d="M21.27,-283.44C25.75,-305.33 39.63,-358.35 73,-385.62 79.86,-391.23 88.24,-395.13 96.82,-397.82"/>
<polygon fill="#63b8ff" stroke="#63b8ff" points="95.67,-401.14 106.22,-400.26 97.42,-394.36 95.67,-401.14"/>
</a>
</g>
</g>
<!-- Node9 -->
<g id="Node000009" class="node">
<title>Node9</title>
<g id="a_Node000009"><a xlink:href="../../da/d74/class_grid_ab929318e5ef123712523299305dfe12f.html#ab929318e5ef123712523299305dfe12f" target="_top" xlink:title=" ">
<polygon fill="white" stroke="#666666" points="197.38,-376.25 94.38,-376.25 94.38,-357 197.38,-357 197.38,-376.25"/>
<text text-anchor="middle" x="145.88" y="-362.75" font-family="Helvetica,sans-Serif" font-size="10.00">Grid::Generate_Grid</text>
</a>
</g>
</g>
<!-- Node1&#45;&gt;Node9 -->
<g id="edge9_Node000001_Node000009" class="edge">
<title>Node1&#45;&gt;Node9</title>
<g id="a_edge9_Node000001_Node000009"><a xlink:title=" ">
<path fill="none" stroke="#63b8ff" d="M23.8,-283.62C31.31,-299.87 48.42,-331.87 73,-348.62 76.29,-350.87 79.83,-352.83 83.52,-354.55"/>
<polygon fill="#63b8ff" stroke="#63b8ff" points="82.22,-357.79 92.8,-358.22 84.79,-351.29 82.22,-357.79"/>
</a>
</g>
</g>
<!-- Node15 -->
<g id="Node000015" class="node">
<title>Node15</title>
<g id="a_Node000015"><a xlink:href="../../da/d74/class_grid_ada712360e862dad0f75e839a3c52fc14.html#ada712360e862dad0f75e839a3c52fc14" target="_top" xlink:title=" ">
<polygon fill="white" stroke="#666666" points="195.88,-339.25 95.88,-339.25 95.88,-320 195.88,-320 195.88,-339.25"/>
<text text-anchor="middle" x="145.88" y="-325.75" font-family="Helvetica,sans-Serif" font-size="10.00">Grid::Get_Grid_List</text>
</a>
</g>
</g>
<!-- Node1&#45;&gt;Node15 -->
<g id="edge15_Node000001_Node000015" class="edge">
<title>Node1&#45;&gt;Node15</title>
<g id="a_edge15_Node000001_Node000015"><a xlink:title=" ">
<path fill="none" stroke="#63b8ff" d="M30.62,-283.42C40.94,-292.03 57.06,-304.29 73,-311.62 76.79,-313.37 80.77,-314.96 84.83,-316.41"/>
<polygon fill="#63b8ff" stroke="#63b8ff" points="83.67,-319.71 94.26,-319.45 85.82,-313.05 83.67,-319.71"/>
</a>
</g>
</g>
<!-- Node16 -->
<g id="Node000016" class="node">
<title>Node16</title>
<g id="a_Node000016"><a xlink:href="../../dd/db4/class_line_a11d1062afe4e7ccc91002d5a2b9b8b7d.html#a11d1062afe4e7ccc91002d5a2b9b8b7d" target="_top" xlink:title=" ">
<polygon fill="white" stroke="#666666" points="196.62,-302.25 95.12,-302.25 95.12,-283 196.62,-283 196.62,-302.25"/>
<text text-anchor="middle" x="145.88" y="-288.75" font-family="Helvetica,sans-Serif" font-size="10.00">Line::Get_Point_list</text>
</a>
</g>
</g>
<!-- Node1&#45;&gt;Node16 -->
<g id="edge16_Node000001_Node000016" class="edge">
<title>Node1&#45;&gt;Node16</title>
<g id="a_edge16_Node000001_Node000016"><a xlink:title=" ">
<path fill="none" stroke="#63b8ff" d="M37.46,-276.35C49.74,-278.21 66.79,-280.79 83.69,-283.35"/>
<polygon fill="#63b8ff" stroke="#63b8ff" points="82.82,-286.76 93.23,-284.8 83.87,-279.84 82.82,-286.76"/>
</a>
</g>
</g>
<!-- Node17 -->
<g id="Node000017" class="node">
<title>Node17</title>
<g id="a_Node000017"><a xlink:href="../../da/d2e/_geometry___header_8h_a2ac99b79a96c903fd960b3f472e9ab11.html#a2ac99b79a96c903fd960b3f472e9ab11" target="_top" xlink:title=" ">
<polygon fill="white" stroke="#666666" points="183.88,-265.25 107.88,-265.25 107.88,-246 183.88,-246 183.88,-265.25"/>
<text text-anchor="middle" x="145.88" y="-251.75" font-family="Helvetica,sans-Serif" font-size="10.00">Identify_Cells</text>
</a>
</g>
</g>
<!-- Node1&#45;&gt;Node17 -->
<g id="edge17_Node000001_Node000017" class="edge">
<title>Node1&#45;&gt;Node17</title>
<g id="a_edge17_Node000001_Node000017"><a xlink:title=" ">
<path fill="none" stroke="#63b8ff" d="M37.46,-271.05C52.83,-268.84 75.68,-265.56 96.36,-262.59"/>
<polygon fill="#63b8ff" stroke="#63b8ff" points="96.67,-266.08 106.07,-261.2 95.67,-259.15 96.67,-266.08"/>
</a>
</g>
</g>
<!-- Node18 -->
<g id="Node000018" class="node">
<title>Node18</title>
<g id="a_Node000018"><a xlink:href="../../d8/da4/_basic___function___files_2_utility___files_8cpp_a2c3f9cb4a3f7f1208f6141e2c0524be9.html#a2c3f9cb4a3f7f1208f6141e2c0524be9" target="_top" xlink:title=" ">
<polygon fill="white" stroke="#666666" points="198.88,-227.88 92.88,-227.88 92.88,-197.38 198.88,-197.38 198.88,-227.88"/>
<text text-anchor="start" x="100.88" y="-214.38" font-family="Helvetica,sans-Serif" font-size="10.00">Identify_Cells_and</text>
<text text-anchor="middle" x="145.88" y="-203.12" font-family="Helvetica,sans-Serif" font-size="10.00">_Assign_Neighbours</text>
</a>
</g>
</g>
<!-- Node1&#45;&gt;Node18 -->
<g id="edge18_Node000001_Node000018" class="edge">
<title>Node1&#45;&gt;Node18</title>
<g id="a_edge18_Node000001_Node000018"><a xlink:title=" ">
<path fill="none" stroke="#63b8ff" d="M31.63,-263.74C42.09,-255.6 57.85,-244.2 73,-236.62 76.02,-235.11 79.16,-233.67 82.36,-232.28"/>
<polygon fill="#63b8ff" stroke="#63b8ff" points="83.37,-235.65 91.33,-228.65 80.75,-229.16 83.37,-235.65"/>
</a>
</g>
</g>
<!-- Node19 -->
<g id="Node000019" class="node">
<title>Node19</title>
<g id="a_Node000019"><a xlink:href="../../d8/da4/_basic___function___files_2_utility___files_8cpp_ae67cdf70a7e4627a8270c0159591a8e2.html#ae67cdf70a7e4627a8270c0159591a8e2" target="_top" xlink:title=" ">
<polygon fill="white" stroke="#666666" points="218.75,-178.88 73,-178.88 73,-148.38 218.75,-148.38 218.75,-178.88"/>
<text text-anchor="start" x="81" y="-165.38" font-family="Helvetica,sans-Serif" font-size="10.00">Identify_Cells_and</text>
<text text-anchor="middle" x="145.88" y="-154.12" font-family="Helvetica,sans-Serif" font-size="10.00">_Assign_Neighbours_Custom</text>
</a>
</g>
</g>
<!-- Node1&#45;&gt;Node19 -->
<g id="edge19_Node000001_Node000019" class="edge">
<title>Node1&#45;&gt;Node19</title>
<g id="a_edge19_Node000001_Node000019"><a xlink:title=" ">
<path fill="none" stroke="#63b8ff" d="M23.16,-263.7C30.16,-246.08 47.07,-209.25 73,-188.62 74.71,-187.27 76.49,-185.98 78.34,-184.76"/>
<polygon fill="#63b8ff" stroke="#63b8ff" points="79.76,-187.99 86.69,-179.97 76.27,-181.91 79.76,-187.99"/>
</a>
</g>
</g>
<!-- Node20 -->
<g id="Node000020" class="node">
<title>Node20</title>
<g id="a_Node000020"><a xlink:href="../../da/d2e/_geometry___header_8h_ae140d7cd47fc17901100baa1c301a638.html#ae140d7cd47fc17901100baa1c301a638" target="_top" xlink:title=" ">
<polygon fill="white" stroke="#666666" points="197.38,-130.25 94.38,-130.25 94.38,-111 197.38,-111 197.38,-130.25"/>
<text text-anchor="middle" x="145.88" y="-116.75" font-family="Helvetica,sans-Serif" font-size="10.00">Identify_Neighbours</text>
</a>
</g>
</g>
<!-- Node1&#45;&gt;Node20 -->
<g id="edge20_Node000001_Node000020" class="edge">
<title>Node1&#45;&gt;Node20</title>
<g id="a_edge20_Node000001_Node000020"><a xlink:title=" ">
<path fill="none" stroke="#63b8ff" d="M20.45,-263.84C23.37,-239.12 34.55,-173.67 73,-139.62 76.18,-136.81 79.74,-134.4 83.51,-132.34"/>
<polygon fill="#63b8ff" stroke="#63b8ff" points="84.85,-135.58 92.55,-128.3 81.99,-129.19 84.85,-135.58"/>
</a>
</g>
</g>
<!-- Node21 -->
<g id="Node000021" class="node">
<title>Node21</title>
<g id="a_Node000021"><a xlink:href="../../d4/d9e/_flow___over___cylinder_8cpp_a8ee981e0b0c6268774eb6bd3bbd0ba13.html#a8ee981e0b0c6268774eb6bd3bbd0ba13" target="_top" xlink:title=" ">
<polygon fill="white" stroke="#666666" points="182.75,-93.25 109,-93.25 109,-74 182.75,-74 182.75,-93.25"/>
<text text-anchor="middle" x="145.88" y="-79.75" font-family="Helvetica,sans-Serif" font-size="10.00">Reverse_List</text>
</a>
</g>
</g>
<!-- Node1&#45;&gt;Node21 -->
<g id="edge22_Node000001_Node000021" class="edge">
<title>Node1&#45;&gt;Node21</title>
<g id="a_edge22_Node000001_Node000021"><a xlink:title=" ">
<path fill="none" stroke="#63b8ff" d="M19.43,-263.75C19.8,-234.41 25.05,-146.95 73,-101.62 79.85,-95.15 88.66,-90.91 97.75,-88.15"/>
<polygon fill="#63b8ff" stroke="#63b8ff" points="98.49,-91.58 107.39,-85.83 96.85,-84.77 98.49,-91.58"/>
</a>
</g>
</g>
<!-- Node22 -->
<g id="Node000022" class="node">
<title>Node22</title>
<g id="a_Node000022"><a xlink:href="../../da/d2e/_geometry___header_8h_a7baf55700c2b5381dad50d86595147ce.html#a7baf55700c2b5381dad50d86595147ce" target="_top" xlink:title=" ">
<polygon fill="white" stroke="#666666" points="183.88,-56.25 107.88,-56.25 107.88,-37 183.88,-37 183.88,-56.25"/>
<text text-anchor="middle" x="145.88" y="-42.75" font-family="Helvetica,sans-Serif" font-size="10.00">write_inputfile</text>
</a>
</g>
</g>
<!-- Node1&#45;&gt;Node22 -->
<g id="edge23_Node000001_Node000022" class="edge">
<title>Node1&#45;&gt;Node22</title>
<g id="a_edge23_Node000001_Node000022"><a xlink:title=" ">
<path fill="none" stroke="#63b8ff" d="M20.71,-263.6C25.44,-225.94 43.92,-93.55 73,-64.62 79.41,-58.25 87.72,-54.01 96.41,-51.23"/>
<polygon fill="#63b8ff" stroke="#63b8ff" points="97.19,-54.64 106.03,-48.8 95.47,-47.86 97.19,-54.64"/>
</a>
</g>
</g>
<!-- Node23 -->
<g id="Node000023" class="node">
<title>Node23</title>
<g id="a_Node000023"><a xlink:href="../../da/d2e/_geometry___header_8h_a9ea27b1ee84e8c88611feddac621c2a3.html#a9ea27b1ee84e8c88611feddac621c2a3" target="_top" xlink:title=" ">
<polygon fill="white" stroke="#666666" points="176.75,-19.25 115,-19.25 115,0 176.75,0 176.75,-19.25"/>
<text text-anchor="middle" x="145.88" y="-5.75" font-family="Helvetica,sans-Serif" font-size="10.00">write_VTK</text>
</a>
</g>
</g>
<!-- Node1&#45;&gt;Node23 -->
<g id="edge24_Node000001_Node000023" class="edge">
<title>Node1&#45;&gt;Node23</title>
<g id="a_edge24_Node000001_Node000023"><a xlink:title=" ">
<path fill="none" stroke="#63b8ff" d="M20.29,-263.6C23.8,-221.87 39.24,-62.46 73,-27.62 81.06,-19.31 92.33,-14.62 103.57,-12.03"/>
<polygon fill="#63b8ff" stroke="#63b8ff" points="103.93,-15.52 113.18,-10.34 102.72,-8.62 103.93,-15.52"/>
</a>
</g>
</g>
<!-- Node4 -->
<g id="Node000004" class="node">
<title>Node4</title>
<g id="a_Node000004"><a xlink:href="../../d0/d69/class_point_abbb39fe4de098ab24cd45d251656f080.html#abbb39fe4de098ab24cd45d251656f080" target="_top" xlink:title=" ">
<polygon fill="white" stroke="#666666" points="352.12,-563.25 281.38,-563.25 281.38,-544 352.12,-544 352.12,-563.25"/>
<text text-anchor="middle" x="316.75" y="-549.75" font-family="Helvetica,sans-Serif" font-size="10.00">Point::Get_x</text>
</a>
</g>
</g>
<!-- Node3&#45;&gt;Node4 -->
<g id="edge3_Node000003_Node000004" class="edge">
<title>Node3&#45;&gt;Node4</title>
<g id="a_edge3_Node000003_Node000004"><a xlink:title=" ">
<path fill="none" stroke="#63b8ff" d="M184.99,-484.97C196.38,-487.65 208.53,-491.65 218.75,-497.62 238.84,-509.36 234.91,-523.47 254.75,-535.62 259.63,-538.61 265.03,-541.13 270.54,-543.24"/>
<polygon fill="#63b8ff" stroke="#63b8ff" points="269.14,-546.46 279.74,-546.34 271.38,-539.83 269.14,-546.46"/>
</a>
</g>
</g>
<!-- Node5 -->
<g id="Node000005" class="node">
<title>Node5</title>
<g id="a_Node000005"><a xlink:href="../../d0/d69/class_point_aa0c14d8298c960cc61ebeb5fbe33653b.html#aa0c14d8298c960cc61ebeb5fbe33653b" target="_top" xlink:title=" ">
<polygon fill="white" stroke="#666666" points="352.12,-526.25 281.38,-526.25 281.38,-507 352.12,-507 352.12,-526.25"/>
<text text-anchor="middle" x="316.75" y="-512.75" font-family="Helvetica,sans-Serif" font-size="10.00">Point::Get_y</text>
</a>
</g>
</g>
<!-- Node3&#45;&gt;Node5 -->
<g id="edge4_Node000003_Node000005" class="edge">
<title>Node3&#45;&gt;Node5</title>
<g id="a_edge4_Node000003_Node000005"><a xlink:title=" ">
<path fill="none" stroke="#63b8ff" d="M184.77,-487.93C210.05,-493.47 243.41,-500.77 270.13,-506.63"/>
<polygon fill="#63b8ff" stroke="#63b8ff" points="269.14,-510 279.66,-508.72 270.64,-503.16 269.14,-510"/>
</a>
</g>
</g>
<!-- Node6 -->
<g id="Node000006" class="node">
<title>Node6</title>
<g id="a_Node000006"><a xlink:href="../../d0/d69/class_point_ac06dbc3b4797e5c498b58c81a70c02a9.html#ac06dbc3b4797e5c498b58c81a70c02a9" target="_top" xlink:title=" ">
<polygon fill="white" stroke="#666666" points="352.12,-489.25 281.38,-489.25 281.38,-470 352.12,-470 352.12,-489.25"/>
<text text-anchor="middle" x="316.75" y="-475.75" font-family="Helvetica,sans-Serif" font-size="10.00">Point::Get_z</text>
</a>
</g>
</g>
<!-- Node3&#45;&gt;Node6 -->
<g id="edge5_Node000003_Node000006" class="edge">
<title>Node3&#45;&gt;Node6</title>
<g id="a_edge5_Node000003_Node000006"><a xlink:title=" ">
<path fill="none" stroke="#63b8ff" d="M184.77,-479.62C209.93,-479.62 243.11,-479.62 269.77,-479.62"/>
<polygon fill="#63b8ff" stroke="#63b8ff" points="269.63,-483.13 279.63,-479.63 269.63,-476.13 269.63,-483.13"/>
</a>
</g>
</g>
<!-- Node3&#45;&gt;Node7 -->
<g id="edge6_Node000003_Node000007" class="edge">
<title>Node3&#45;&gt;Node7</title>
<g id="a_edge6_Node000003_Node000007"><a xlink:title=" ">
<path fill="none" stroke="#63b8ff" d="M184.77,-471.32C210.9,-465.6 245.66,-457.98 272.81,-452.03"/>
<polygon fill="#63b8ff" stroke="#63b8ff" points="273.43,-455.48 282.45,-449.92 271.94,-448.64 273.43,-455.48"/>
</a>
</g>
</g>
<!-- Node8&#45;&gt;Node7 -->
<g id="edge8_Node000008_Node000007" class="edge">
<title>Node8&#45;&gt;Node7</title>
<g id="a_edge8_Node000008_Node000007"><a xlink:title=" ">
<path fill="none" stroke="#63b8ff" d="M184.35,-412.28C210.54,-418.33 245.57,-426.42 272.87,-432.72"/>
<polygon fill="#63b8ff" stroke="#63b8ff" points="272.04,-436.12 282.57,-434.96 273.62,-429.3 272.04,-436.12"/>
</a>
</g>
</g>
<!-- Node10 -->
<g id="Node000010" class="node">
<title>Node10</title>
<g id="a_Node000010"><a xlink:href="../../da/d74/class_grid_a90c5271ba6fdba6112a562693bd9a0f2.html#a90c5271ba6fdba6112a562693bd9a0f2" target="_top" xlink:title=" ">
<polygon fill="white" stroke="#666666" points="351.38,-415.25 282.12,-415.25 282.12,-396 351.38,-396 351.38,-415.25"/>
<text text-anchor="middle" x="316.75" y="-401.75" font-family="Helvetica,sans-Serif" font-size="10.00">Grid::Elliptic</text>
</a>
</g>
</g>
<!-- Node9&#45;&gt;Node10 -->
<g id="edge10_Node000009_Node000010" class="edge">
<title>Node9&#45;&gt;Node10</title>
<g id="a_edge10_Node000009_Node000010"><a xlink:title=" ">
<path fill="none" stroke="#63b8ff" d="M190.36,-376.67C215.03,-382.36 245.84,-389.48 270.74,-395.23"/>
<polygon fill="#63b8ff" stroke="#63b8ff" points="269.72,-398.59 280.25,-397.43 271.3,-391.77 269.72,-398.59"/>
</a>
</g>
</g>
<!-- Node11 -->
<g id="Node000011" class="node">
<title>Node11</title>
<g id="a_Node000011"><a xlink:href="../../da/d74/class_grid_ac1e989c2a3c81fd365d9ae57e7f15b61.html#ac1e989c2a3c81fd365d9ae57e7f15b61" target="_top" xlink:title=" ">
<polygon fill="white" stroke="#666666" points="369.38,-377.88 264.12,-377.88 264.12,-347.38 369.38,-347.38 369.38,-377.88"/>
<text text-anchor="start" x="272.12" y="-364.38" font-family="Helvetica,sans-Serif" font-size="10.00">Grid::Estimate_Error</text>
<text text-anchor="middle" x="316.75" y="-353.12" font-family="Helvetica,sans-Serif" font-size="10.00">_and_Update</text>
</a>
</g>
</g>
<!-- Node9&#45;&gt;Node11 -->
<g id="edge11_Node000009_Node000011" class="edge">
<title>Node9&#45;&gt;Node11</title>
<g id="a_edge11_Node000009_Node000011"><a xlink:title=" ">
<path fill="none" stroke="#63b8ff" d="M197.54,-365.42C214.76,-365.02 234.22,-364.56 252.31,-364.13"/>
<polygon fill="#63b8ff" stroke="#63b8ff" points="252.23,-367.63 262.14,-363.89 252.06,-360.63 252.23,-367.63"/>
</a>
</g>
</g>
<!-- Node12 -->
<g id="Node000012" class="node">
<title>Node12</title>
<g id="a_Node000012"><a xlink:href="../../da/d74/class_grid_ab7768e9853f9b8e4530a25d242fdea1b.html#ab7768e9853f9b8e4530a25d242fdea1b" target="_top" xlink:title=" ">
<polygon fill="white" stroke="#666666" points="378.75,-329.25 254.75,-329.25 254.75,-310 378.75,-310 378.75,-329.25"/>
<text text-anchor="middle" x="316.75" y="-315.75" font-family="Helvetica,sans-Serif" font-size="10.00">Grid::Generate_Grid_List</text>
</a>
</g>
</g>
<!-- Node9&#45;&gt;Node12 -->
<g id="edge12_Node000009_Node000012" class="edge">
<title>Node9&#45;&gt;Node12</title>
<g id="a_edge12_Node000009_Node000012"><a xlink:title=" ">
<path fill="none" stroke="#63b8ff" d="M188.39,-356.57C198.35,-354.06 208.95,-351.32 218.75,-348.62 236.55,-343.74 256.06,-337.98 272.89,-332.89"/>
<polygon fill="#63b8ff" stroke="#63b8ff" points="273.53,-336.36 282.07,-330.1 271.49,-329.66 273.53,-336.36"/>
</a>
</g>
</g>
<!-- Node13 -->
<g id="Node000013" class="node">
<title>Node13</title>
<g id="a_Node000013"><a xlink:href="../../da/d74/class_grid_a246dcc7405f9142fc624bafb817ed9fe.html#a246dcc7405f9142fc624bafb817ed9fe" target="_top" xlink:title=" ">
<polygon fill="white" stroke="#666666" points="377.62,-291.88 255.88,-291.88 255.88,-261.38 377.62,-261.38 377.62,-291.88"/>
<text text-anchor="start" x="263.88" y="-278.38" font-family="Helvetica,sans-Serif" font-size="10.00">Grid::Periodic_Boundary</text>
<text text-anchor="middle" x="316.75" y="-267.12" font-family="Helvetica,sans-Serif" font-size="10.00">_Condition</text>
</a>
</g>
</g>
<!-- Node9&#45;&gt;Node13 -->
<g id="edge13_Node000009_Node000013" class="edge">
<title>Node9&#45;&gt;Node13</title>
<g id="a_edge13_Node000009_Node000013"><a xlink:title=" ">
<path fill="none" stroke="#63b8ff" d="M197.83,-358.51C205.2,-356.04 212.43,-352.82 218.75,-348.62 240.96,-333.87 233.54,-316.79 254.75,-300.62 255.9,-299.75 257.08,-298.91 258.29,-298.09"/>
<polygon fill="#63b8ff" stroke="#63b8ff" points="259.9,-301.2 266.74,-293.1 256.35,-295.17 259.9,-301.2"/>
</a>
</g>
</g>
<!-- Node14 -->
<g id="Node000014" class="node">
<title>Node14</title>
<g id="a_Node000014"><a xlink:href="../../da/d74/class_grid_a908819a747032ceba240db6d955ff931.html#a908819a747032ceba240db6d955ff931" target="_top" xlink:title=" ">
<polygon fill="white" stroke="#666666" points="344.25,-243.25 289.25,-243.25 289.25,-224 344.25,-224 344.25,-243.25"/>
<text text-anchor="middle" x="316.75" y="-229.75" font-family="Helvetica,sans-Serif" font-size="10.00">Grid::TFI</text>
</a>
</g>
</g>
<!-- Node9&#45;&gt;Node14 -->
<g id="edge14_Node000009_Node000014" class="edge">
<title>Node9&#45;&gt;Node14</title>
<g id="a_edge14_Node000009_Node000014"><a xlink:title=" ">
<path fill="none" stroke="#63b8ff" d="M197.52,-360.56C205.28,-357.85 212.7,-354.02 218.75,-348.62 252.75,-318.28 221.63,-283.92 254.75,-252.62 261.14,-246.59 269.42,-242.47 277.81,-239.66"/>
<polygon fill="#63b8ff" stroke="#63b8ff" points="278.57,-243.08 287.29,-237.06 276.72,-236.32 278.57,-243.08"/>
</a>
</g>
</g>
</g>
</svg>
