<?xml version="1.0" encoding="UTF-8" standalone="no"?>
<!DOCTYPE svg PUBLIC "-//W3C//DTD SVG 1.1//EN"
 "http://www.w3.org/Graphics/SVG/1.1/DTD/svg11.dtd">
<!-- Generated by graphviz version 12.2.1 (20241206.2353)
 -->
<!-- Title: Unit_Test_Codes/OpenCL_Loop_Parallelization.cpp Pages: 1 -->
<svg width="188pt" height="94pt"
 viewBox="0.00 0.00 188.25 93.75" xmlns="http://www.w3.org/2000/svg" xmlns:xlink="http://www.w3.org/1999/xlink">
<g id="graph0" class="graph" transform="scale(1 1) rotate(0) translate(4 89.75)">
<title>Unit_Test_Codes/OpenCL_Loop_Parallelization.cpp</title>
<!-- Node1 -->
<g id="Node000001" class="node">
<title>Node1</title>
<g id="a_Node000001"><a xlink:title=" ">
<polygon fill="#999999" stroke="#666666" points="158.12,-85.75 27.38,-85.75 27.38,-55.25 158.12,-55.25 158.12,-85.75"/>
<text text-anchor="start" x="35.38" y="-72.25" font-family="Helvetica,sans-Serif" font-size="10.00">Unit_Test_Codes/OpenCL</text>
<text text-anchor="middle" x="92.75" y="-61" font-family="Helvetica,sans-Serif" font-size="10.00">_Loop_Parallelization.cpp</text>
</a>
</g>
</g>
<!-- Node2 -->
<g id="Node000002" class="node">
<title>Node2</title>
<g id="a_Node000002"><a xlink:title=" ">
<polygon fill="#e0e0e0" stroke="#999999" points="47.5,-19.25 0,-19.25 0,0 47.5,0 47.5,-19.25"/>
<text text-anchor="middle" x="23.75" y="-5.75" font-family="Helvetica,sans-Serif" font-size="10.00">CL/cl.h</text>
</a>
</g>
</g>
<!-- Node1&#45;&gt;Node2 -->
<g id="edge1_Node000001_Node000002" class="edge">
<title>Node1&#45;&gt;Node2</title>
<g id="a_edge1_Node000001_Node000002"><a xlink:title=" ">
<path fill="none" stroke="#63b8ff" d="M75.69,-54.95C65.79,-46.5 53.29,-35.83 43.04,-27.08"/>
<polygon fill="#63b8ff" stroke="#63b8ff" points="45.42,-24.51 35.54,-20.68 40.87,-29.84 45.42,-24.51"/>
</a>
</g>
</g>
<!-- Node3 -->
<g id="Node000003" class="node">
<title>Node3</title>
<g id="a_Node000003"><a xlink:title=" ">
<polygon fill="#e0e0e0" stroke="#999999" points="119.5,-19.25 66,-19.25 66,0 119.5,0 119.5,-19.25"/>
<text text-anchor="middle" x="92.75" y="-5.75" font-family="Helvetica,sans-Serif" font-size="10.00">iostream</text>
</a>
</g>
</g>
<!-- Node1&#45;&gt;Node3 -->
<g id="edge2_Node000001_Node000003" class="edge">
<title>Node1&#45;&gt;Node3</title>
<g id="a_edge2_Node000001_Node000003"><a xlink:title=" ">
<path fill="none" stroke="#63b8ff" d="M92.75,-54.95C92.75,-47.71 92.75,-38.84 92.75,-30.94"/>
<polygon fill="#63b8ff" stroke="#63b8ff" points="96.25,-31.21 92.75,-21.21 89.25,-31.21 96.25,-31.21"/>
</a>
</g>
</g>
<!-- Node4 -->
<g id="Node000004" class="node">
<title>Node4</title>
<g id="a_Node000004"><a xlink:title=" ">
<polygon fill="#e0e0e0" stroke="#999999" points="180.25,-19.25 137.25,-19.25 137.25,0 180.25,0 180.25,-19.25"/>
<text text-anchor="middle" x="158.75" y="-5.75" font-family="Helvetica,sans-Serif" font-size="10.00">vector</text>
</a>
</g>
</g>
<!-- Node1&#45;&gt;Node4 -->
<g id="edge3_Node000001_Node000004" class="edge">
<title>Node1&#45;&gt;Node4</title>
<g id="a_edge3_Node000001_Node000004"><a xlink:title=" ">
<path fill="none" stroke="#63b8ff" d="M109.06,-54.95C118.44,-46.59 130.25,-36.05 140,-27.35"/>
<polygon fill="#63b8ff" stroke="#63b8ff" points="142.31,-29.98 147.45,-20.71 137.65,-24.75 142.31,-29.98"/>
</a>
</g>
</g>
</g>
</svg>
