<?xml version="1.0" encoding="UTF-8" standalone="no"?>
<!DOCTYPE svg PUBLIC "-//W3C//DTD SVG 1.1//EN"
 "http://www.w3.org/Graphics/SVG/1.1/DTD/svg11.dtd">
<!-- Generated by graphviz version 12.2.1 (20241206.2353)
 -->
<!-- Title: include/Solver.h Pages: 1 -->
<svg width="328pt" height="83pt"
 viewBox="0.00 0.00 328.25 82.50" xmlns="http://www.w3.org/2000/svg" xmlns:xlink="http://www.w3.org/1999/xlink">
<g id="graph0" class="graph" transform="scale(1 1) rotate(0) translate(4 78.5)">
<title>include/Solver.h</title>
<!-- Node1 -->
<g id="Node000001" class="node">
<title>Node1</title>
<g id="a_Node000001"><a xlink:title=" ">
<polygon fill="#999999" stroke="#666666" points="199.62,-74.5 114.62,-74.5 114.62,-55.25 199.62,-55.25 199.62,-74.5"/>
<text text-anchor="middle" x="157.12" y="-61" font-family="Helvetica,sans-Serif" font-size="10.00">include/Solver.h</text>
</a>
</g>
</g>
<!-- Node2 -->
<g id="Node000002" class="node">
<title>Node2</title>
<g id="a_Node000002"><a xlink:href="../../d5/d12/_main_8cpp.html" target="_top" xlink:title="Main entry point for the simulation program. Contains the main function and initialization routines....">
<polygon fill="white" stroke="#666666" points="72.25,-19.25 0,-19.25 0,0 72.25,0 72.25,-19.25"/>
<text text-anchor="middle" x="36.12" y="-5.75" font-family="Helvetica,sans-Serif" font-size="10.00">src/Main.cpp</text>
</a>
</g>
</g>
<!-- Node1&#45;&gt;Node2 -->
<g id="edge1_Node000001_Node000002" class="edge">
<title>Node1&#45;&gt;Node2</title>
<g id="a_edge1_Node000001_Node000002"><a xlink:title=" ">
<path fill="none" stroke="#63b8ff" d="M126.21,-50.27C104.41,-40.68 75.82,-28.09 56.75,-19.7"/>
<polygon fill="#63b8ff" stroke="#63b8ff" points="124.65,-53.41 135.21,-54.23 127.47,-47 124.65,-53.41"/>
</a>
</g>
</g>
<!-- Node3 -->
<g id="Node000003" class="node">
<title>Node3</title>
<g id="a_Node000003"><a xlink:href="../../d0/d64/_numerical___method_8cpp.html" target="_top" xlink:title=" ">
<polygon fill="white" stroke="#666666" points="223.62,-19.25 90.62,-19.25 90.62,0 223.62,0 223.62,-19.25"/>
<text text-anchor="middle" x="157.12" y="-5.75" font-family="Helvetica,sans-Serif" font-size="10.00">src/Numerical_Method.cpp</text>
</a>
</g>
</g>
<!-- Node1&#45;&gt;Node3 -->
<g id="edge2_Node000001_Node000003" class="edge">
<title>Node1&#45;&gt;Node3</title>
<g id="a_edge2_Node000001_Node000003"><a xlink:title=" ">
<path fill="none" stroke="#63b8ff" d="M157.12,-43.63C157.12,-35.34 157.12,-26.17 157.12,-19.61"/>
<polygon fill="#63b8ff" stroke="#63b8ff" points="153.63,-43.57 157.13,-53.57 160.63,-43.57 153.63,-43.57"/>
</a>
</g>
</g>
<!-- Node4 -->
<g id="Node000004" class="node">
<title>Node4</title>
<g id="a_Node000004"><a xlink:href="../../de/df0/_solver_8cpp.html" target="_top" xlink:title="This file contains the implementation of solvers for Euler equations and Navier&#45;Stokes equations.">
<polygon fill="white" stroke="#666666" points="320.25,-19.25 242,-19.25 242,0 320.25,0 320.25,-19.25"/>
<text text-anchor="middle" x="281.12" y="-5.75" font-family="Helvetica,sans-Serif" font-size="10.00">src/Solver.cpp</text>
</a>
</g>
</g>
<!-- Node1&#45;&gt;Node4 -->
<g id="edge3_Node000001_Node000004" class="edge">
<title>Node1&#45;&gt;Node4</title>
<g id="a_edge3_Node000001_Node000004"><a xlink:title=" ">
<path fill="none" stroke="#63b8ff" d="M188.5,-50.4C210.87,-40.79 240.36,-28.13 259.99,-19.7"/>
<polygon fill="#63b8ff" stroke="#63b8ff" points="187.36,-47.08 179.55,-54.24 190.12,-53.51 187.36,-47.08"/>
</a>
</g>
</g>
</g>
</svg>
