<?xml version="1.0" encoding="UTF-8" standalone="no"?>
<!DOCTYPE svg PUBLIC "-//W3C//DTD SVG 1.1//EN"
 "http://www.w3.org/Graphics/SVG/1.1/DTD/svg11.dtd">
<!-- Generated by graphviz version 12.2.1 (20241206.2353)
 -->
<!-- Title: include/Solver.h Pages: 1 -->
<svg width="1059pt" height="83pt"
 viewBox="0.00 0.00 1058.50 82.50" xmlns="http://www.w3.org/2000/svg" xmlns:xlink="http://www.w3.org/1999/xlink">
<g id="graph0" class="graph" transform="scale(1 1) rotate(0) translate(4 78.5)">
<title>include/Solver.h</title>
<!-- Node1 -->
<g id="Node000001" class="node">
<title>Node1</title>
<g id="a_Node000001"><a xlink:title=" ">
<polygon fill="#999999" stroke="#666666" points="540,-74.5 455,-74.5 455,-55.25 540,-55.25 540,-74.5"/>
<text text-anchor="middle" x="497.5" y="-61" font-family="Helvetica,sans-Serif" font-size="10.00">include/Solver.h</text>
</a>
</g>
</g>
<!-- Node2 -->
<g id="Node000002" class="node">
<title>Node2</title>
<g id="a_Node000002"><a xlink:href="../../da/d71/_k___epsilon___model_8cpp.html" target="_top" xlink:title="Implementation of K&#45;epsilon turbulence model for 2D compressible flows.">
<polygon fill="white" stroke="#666666" points="127,-19.25 0,-19.25 0,0 127,0 127,-19.25"/>
<text text-anchor="middle" x="63.5" y="-5.75" font-family="Helvetica,sans-Serif" font-size="10.00">src/K_Epsilon_Model.cpp</text>
</a>
</g>
</g>
<!-- Node1&#45;&gt;Node2 -->
<g id="edge1_Node000001_Node000002" class="edge">
<title>Node1&#45;&gt;Node2</title>
<g id="a_edge1_Node000001_Node000002"><a xlink:title=" ">
<path fill="none" stroke="#63b8ff" d="M443.38,-57.23C363.09,-47.38 212.73,-28.93 127.23,-18.44"/>
<polygon fill="#63b8ff" stroke="#63b8ff" points="442.84,-60.7 453.2,-58.44 443.7,-53.75 442.84,-60.7"/>
</a>
</g>
</g>
<!-- Node3 -->
<g id="Node000003" class="node">
<title>Node3</title>
<g id="a_Node000003"><a xlink:href="../../da/db6/_k___omega___model_8cpp.html" target="_top" xlink:title="Implementation of K&#45;omega turbulence model for 2D compressible flows.">
<polygon fill="white" stroke="#666666" points="271.62,-19.25 145.38,-19.25 145.38,0 271.62,0 271.62,-19.25"/>
<text text-anchor="middle" x="208.5" y="-5.75" font-family="Helvetica,sans-Serif" font-size="10.00">src/K_Omega_Model.cpp</text>
</a>
</g>
</g>
<!-- Node1&#45;&gt;Node3 -->
<g id="edge2_Node000001_Node000003" class="edge">
<title>Node1&#45;&gt;Node3</title>
<g id="a_edge2_Node000001_Node000003"><a xlink:title=" ">
<path fill="none" stroke="#63b8ff" d="M443.29,-53.89C390.06,-44.08 309.54,-29.24 257.99,-19.74"/>
<polygon fill="#63b8ff" stroke="#63b8ff" points="442.59,-57.32 453.06,-55.69 443.86,-50.43 442.59,-57.32"/>
</a>
</g>
</g>
<!-- Node4 -->
<g id="Node000004" class="node">
<title>Node4</title>
<g id="a_Node000004"><a xlink:href="../../d5/d12/_main_8cpp.html" target="_top" xlink:title="Main entry point for the simulation program. Contains the main function and initialization routines....">
<polygon fill="white" stroke="#666666" points="361.62,-19.25 289.38,-19.25 289.38,0 361.62,0 361.62,-19.25"/>
<text text-anchor="middle" x="325.5" y="-5.75" font-family="Helvetica,sans-Serif" font-size="10.00">src/Main.cpp</text>
</a>
</g>
</g>
<!-- Node1&#45;&gt;Node4 -->
<g id="edge3_Node000001_Node000004" class="edge">
<title>Node1&#45;&gt;Node4</title>
<g id="a_edge3_Node000001_Node000004"><a xlink:title=" ">
<path fill="none" stroke="#63b8ff" d="M457.33,-51.44C425.94,-41.72 383.04,-28.44 354.82,-19.7"/>
<polygon fill="#63b8ff" stroke="#63b8ff" points="456.29,-54.78 466.88,-54.39 458.36,-48.09 456.29,-54.78"/>
</a>
</g>
</g>
<!-- Node5 -->
<g id="Node000005" class="node">
<title>Node5</title>
<g id="a_Node000005"><a xlink:href="../../d5/d25/_main___c_u_d_a_8cu.html" target="_top" xlink:title=" ">
<polygon fill="white" stroke="#666666" points="481.25,-19.25 379.75,-19.25 379.75,0 481.25,0 481.25,-19.25"/>
<text text-anchor="middle" x="430.5" y="-5.75" font-family="Helvetica,sans-Serif" font-size="10.00">src/Main_CUDA.cu</text>
</a>
</g>
</g>
<!-- Node1&#45;&gt;Node5 -->
<g id="edge4_Node000001_Node000005" class="edge">
<title>Node1&#45;&gt;Node5</title>
<g id="a_edge4_Node000001_Node000005"><a xlink:title=" ">
<path fill="none" stroke="#63b8ff" d="M477.45,-47.94C465.75,-38.64 451.43,-27.26 441.7,-19.52"/>
<polygon fill="#63b8ff" stroke="#63b8ff" points="474.94,-50.42 484.95,-53.9 479.3,-44.94 474.94,-50.42"/>
</a>
</g>
</g>
<!-- Node6 -->
<g id="Node000006" class="node">
<title>Node6</title>
<g id="a_Node000006"><a xlink:href="../../d0/d64/_numerical___method_8cpp.html" target="_top" xlink:title=" ">
<polygon fill="white" stroke="#666666" points="632,-19.25 499,-19.25 499,0 632,0 632,-19.25"/>
<text text-anchor="middle" x="565.5" y="-5.75" font-family="Helvetica,sans-Serif" font-size="10.00">src/Numerical_Method.cpp</text>
</a>
</g>
</g>
<!-- Node1&#45;&gt;Node6 -->
<g id="edge5_Node000001_Node000006" class="edge">
<title>Node1&#45;&gt;Node6</title>
<g id="a_edge5_Node000001_Node000006"><a xlink:title=" ">
<path fill="none" stroke="#63b8ff" d="M517.85,-47.94C529.72,-38.64 544.26,-27.26 554.14,-19.52"/>
<polygon fill="#63b8ff" stroke="#63b8ff" points="515.94,-44.99 510.23,-53.91 520.26,-50.5 515.94,-44.99"/>
</a>
</g>
</g>
<!-- Node7 -->
<g id="Node000007" class="node">
<title>Node7</title>
<g id="a_Node000007"><a xlink:href="../../de/df0/_solver_8cpp.html" target="_top" xlink:title="This file contains the implementation of solvers for Euler equations and Navier&#45;Stokes equations.">
<polygon fill="white" stroke="#666666" points="728.62,-19.25 650.38,-19.25 650.38,0 728.62,0 728.62,-19.25"/>
<text text-anchor="middle" x="689.5" y="-5.75" font-family="Helvetica,sans-Serif" font-size="10.00">src/Solver.cpp</text>
</a>
</g>
</g>
<!-- Node1&#45;&gt;Node7 -->
<g id="edge6_Node000001_Node000007" class="edge">
<title>Node1&#45;&gt;Node7</title>
<g id="a_edge6_Node000001_Node000007"><a xlink:title=" ">
<path fill="none" stroke="#63b8ff" d="M540.97,-51.82C576.12,-42.07 624.86,-28.55 656.77,-19.7"/>
<polygon fill="#63b8ff" stroke="#63b8ff" points="540.23,-48.39 531.53,-54.44 542.1,-55.14 540.23,-48.39"/>
</a>
</g>
</g>
<!-- Node8 -->
<g id="Node000008" class="node">
<title>Node8</title>
<g id="a_Node000008"><a xlink:href="../../d4/df3/_turbulence___integration_8cpp.html" target="_top" xlink:title="Integration of turbulence models into the main CFD solver.">
<polygon fill="white" stroke="#666666" points="896.62,-19.25 746.38,-19.25 746.38,0 896.62,0 896.62,-19.25"/>
<text text-anchor="middle" x="821.5" y="-5.75" font-family="Helvetica,sans-Serif" font-size="10.00">src/Turbulence_Integration.cpp</text>
</a>
</g>
</g>
<!-- Node1&#45;&gt;Node8 -->
<g id="edge7_Node000001_Node000008" class="edge">
<title>Node1&#45;&gt;Node8</title>
<g id="a_edge7_Node000001_Node000008"><a xlink:title=" ">
<path fill="none" stroke="#63b8ff" d="M551.23,-55.05C610.72,-45.27 706.14,-29.59 766.24,-19.71"/>
<polygon fill="#63b8ff" stroke="#63b8ff" points="550.98,-51.54 541.68,-56.61 552.12,-58.45 550.98,-51.54"/>
</a>
</g>
</g>
<!-- Node9 -->
<g id="Node000009" class="node">
<title>Node9</title>
<g id="a_Node000009"><a xlink:href="../../d5/d65/_turbulence___models_8cpp.html" target="_top" xlink:title="Main implementation file for turbulence models integration.">
<polygon fill="white" stroke="#666666" points="1050.5,-19.25 914.5,-19.25 914.5,0 1050.5,0 1050.5,-19.25"/>
<text text-anchor="middle" x="982.5" y="-5.75" font-family="Helvetica,sans-Serif" font-size="10.00">src/Turbulence_Models.cpp</text>
</a>
</g>
</g>
<!-- Node1&#45;&gt;Node9 -->
<g id="edge8_Node000001_Node000009" class="edge">
<title>Node1&#45;&gt;Node9</title>
<g id="a_edge8_Node000001_Node000009"><a xlink:title=" ">
<path fill="none" stroke="#63b8ff" d="M551.38,-58.03C629.45,-49.54 778.59,-33.3 905.5,-19.25 908.31,-18.94 911.17,-18.62 914.07,-18.3"/>
<polygon fill="#63b8ff" stroke="#63b8ff" points="551.45,-54.5 541.89,-59.06 552.21,-61.46 551.45,-54.5"/>
</a>
</g>
</g>
</g>
</svg>
