<?xml version="1.0" encoding="UTF-8" standalone="no"?>
<!DOCTYPE svg PUBLIC "-//W3C//DTD SVG 1.1//EN"
 "http://www.w3.org/Graphics/SVG/1.1/DTD/svg11.dtd">
<!-- Generated by graphviz version 12.2.1 (20241206.2353)
 -->
<!-- Title: Face::Calculate_Grad_n_Q Pages: 1 -->
<svg width="303pt" height="64pt"
 viewBox="0.00 0.00 303.25 64.25" xmlns="http://www.w3.org/2000/svg" xmlns:xlink="http://www.w3.org/1999/xlink">
<g id="graph0" class="graph" transform="scale(1 1) rotate(0) translate(4 60.25)">
<title>Face::Calculate_Grad_n_Q</title>
<!-- Node1 -->
<g id="Node000001" class="node">
<title>Node1</title>
<g id="a_Node000001"><a xlink:title=" ">
<polygon fill="#999999" stroke="#666666" points="134.5,-37.25 0,-37.25 0,-18 134.5,-18 134.5,-37.25"/>
<text text-anchor="middle" x="67.25" y="-23.75" font-family="Helvetica,sans-Serif" font-size="10.00">Face::Calculate_Grad_n_Q</text>
</a>
</g>
</g>
<!-- Node2 -->
<g id="Node000002" class="node">
<title>Node2</title>
<g id="a_Node000002"><a xlink:href="../../dc/d9f/struct_cell_a2f2d7f81b44c9a9ed04c7301d2c4a643.html#a2f2d7f81b44c9a9ed04c7301d2c4a643" target="_top" xlink:title=" ">
<polygon fill="white" stroke="#666666" points="295.25,-56.25 170.5,-56.25 170.5,-37 295.25,-37 295.25,-56.25"/>
<text text-anchor="middle" x="232.88" y="-42.75" font-family="Helvetica,sans-Serif" font-size="10.00">Cell::Get_DelQ_fromCell</text>
</a>
</g>
</g>
<!-- Node1&#45;&gt;Node2 -->
<g id="edge1_Node000001_Node000002" class="edge">
<title>Node1&#45;&gt;Node2</title>
<g id="a_edge1_Node000001_Node000002"><a xlink:title=" ">
<path fill="none" stroke="#63b8ff" d="M134.8,-35.35C142.74,-36.27 150.88,-37.22 158.9,-38.15"/>
<polygon fill="#63b8ff" stroke="#63b8ff" points="158.29,-41.6 168.63,-39.28 159.1,-34.65 158.29,-41.6"/>
</a>
</g>
</g>
<!-- Node3 -->
<g id="Node000003" class="node">
<title>Node3</title>
<g id="a_Node000003"><a xlink:href="../../dc/d9f/struct_cell_a471d32a4d0f8ab85b129972f50417781.html#a471d32a4d0f8ab85b129972f50417781" target="_top" xlink:title=" ">
<polygon fill="white" stroke="#666666" points="283.62,-19.25 182.12,-19.25 182.12,0 283.62,0 283.62,-19.25"/>
<text text-anchor="middle" x="232.88" y="-5.75" font-family="Helvetica,sans-Serif" font-size="10.00">Cell::Is_Ghost_Cell</text>
</a>
</g>
</g>
<!-- Node1&#45;&gt;Node3 -->
<g id="edge2_Node000001_Node000003" class="edge">
<title>Node1&#45;&gt;Node3</title>
<g id="a_edge2_Node000001_Node000003"><a xlink:title=" ">
<path fill="none" stroke="#63b8ff" d="M134.8,-20.3C146.55,-19.01 158.73,-17.67 170.33,-16.4"/>
<polygon fill="#63b8ff" stroke="#63b8ff" points="170.64,-19.88 180.19,-15.31 169.87,-12.92 170.64,-19.88"/>
</a>
</g>
</g>
</g>
</svg>
