<?xml version="1.0" encoding="UTF-8" standalone="no"?>
<!DOCTYPE svg PUBLIC "-//W3C//DTD SVG 1.1//EN"
 "http://www.w3.org/Graphics/SVG/1.1/DTD/svg11.dtd">
<!-- Generated by graphviz version 12.2.1 (20241206.2353)
 -->
<!-- Title: Face::Cal_Viscous_Stress_On_Face Pages: 1 -->
<svg width="310pt" height="212pt"
 viewBox="0.00 0.00 310.00 212.25" xmlns="http://www.w3.org/2000/svg" xmlns:xlink="http://www.w3.org/1999/xlink">
<g id="graph0" class="graph" transform="scale(1 1) rotate(0) translate(4 208.25)">
<title>Face::Cal_Viscous_Stress_On_Face</title>
<!-- Node1 -->
<g id="Node000001" class="node">
<title>Node1</title>
<g id="a_Node000001"><a xlink:title=" ">
<polygon fill="#999999" stroke="#666666" points="133,-116.88 0,-116.88 0,-86.38 133,-86.38 133,-116.88"/>
<text text-anchor="start" x="8" y="-103.38" font-family="Helvetica,sans-Serif" font-size="10.00">Face::Cal_Viscous_Stress</text>
<text text-anchor="middle" x="66.5" y="-92.12" font-family="Helvetica,sans-Serif" font-size="10.00">_On_Face</text>
</a>
</g>
</g>
<!-- Node2 -->
<g id="Node000002" class="node">
<title>Node2</title>
<g id="a_Node000002"><a xlink:href="../../d5/db2/class_vector_a2ce47a84fc19c32a26ada5a3379c3f0a.html#a2ce47a84fc19c32a26ada5a3379c3f0a" target="_top" xlink:title=" ">
<polygon fill="white" stroke="#666666" points="296.38,-204.25 174.62,-204.25 174.62,-185 296.38,-185 296.38,-204.25"/>
<text text-anchor="middle" x="235.5" y="-190.75" font-family="Helvetica,sans-Serif" font-size="10.00">Vector::Get_Component</text>
</a>
</g>
</g>
<!-- Node1&#45;&gt;Node2 -->
<g id="edge1_Node000001_Node000002" class="edge">
<title>Node1&#45;&gt;Node2</title>
<g id="a_edge1_Node000001_Node000002"><a xlink:title=" ">
<path fill="none" stroke="#63b8ff" d="M84.53,-117.33C103.72,-134.24 136.48,-160.83 169,-176.62 172.08,-178.12 175.31,-179.51 178.61,-180.8"/>
<polygon fill="#63b8ff" stroke="#63b8ff" points="177.28,-184.04 187.87,-184.06 179.6,-177.44 177.28,-184.04"/>
</a>
</g>
</g>
<!-- Node3 -->
<g id="Node000003" class="node">
<title>Node3</title>
<g id="a_Node000003"><a xlink:href="../../dc/d9f/struct_cell_ad516b7c5df50e57da73b268cbd809eb5.html#ad516b7c5df50e57da73b268cbd809eb5" target="_top" xlink:title=" ">
<polygon fill="white" stroke="#666666" points="300.12,-167.25 170.88,-167.25 170.88,-148 300.12,-148 300.12,-167.25"/>
<text text-anchor="middle" x="235.5" y="-153.75" font-family="Helvetica,sans-Serif" font-size="10.00">Cell::Get_Grad_TatCenter</text>
</a>
</g>
</g>
<!-- Node1&#45;&gt;Node3 -->
<g id="edge2_Node000001_Node000003" class="edge">
<title>Node1&#45;&gt;Node3</title>
<g id="a_edge2_Node000001_Node000003"><a xlink:title=" ">
<path fill="none" stroke="#63b8ff" d="M106.74,-117.26C125.45,-124.47 148.24,-132.9 169,-139.62 174.06,-141.26 179.38,-142.89 184.69,-144.44"/>
<polygon fill="#63b8ff" stroke="#63b8ff" points="183.51,-147.74 194.08,-147.12 185.43,-141.01 183.51,-147.74"/>
</a>
</g>
</g>
<!-- Node4 -->
<g id="Node000004" class="node">
<title>Node4</title>
<g id="a_Node000004"><a xlink:href="../../dc/d9f/struct_cell_a377f0faae94f75ccca43220490ab2321.html#a377f0faae94f75ccca43220490ab2321" target="_top" xlink:title=" ">
<polygon fill="white" stroke="#666666" points="301.25,-130.25 169.75,-130.25 169.75,-111 301.25,-111 301.25,-130.25"/>
<text text-anchor="middle" x="235.5" y="-116.75" font-family="Helvetica,sans-Serif" font-size="10.00">Cell::Get_Grad_UatCenter</text>
</a>
</g>
</g>
<!-- Node1&#45;&gt;Node4 -->
<g id="edge3_Node000001_Node000004" class="edge">
<title>Node1&#45;&gt;Node4</title>
<g id="a_edge3_Node000001_Node000004"><a xlink:title=" ">
<path fill="none" stroke="#63b8ff" d="M133.02,-109.08C141.25,-110.02 149.73,-110.98 158.11,-111.93"/>
<polygon fill="#63b8ff" stroke="#63b8ff" points="157.6,-115.4 167.94,-113.05 158.4,-108.44 157.6,-115.4"/>
</a>
</g>
</g>
<!-- Node5 -->
<g id="Node000005" class="node">
<title>Node5</title>
<g id="a_Node000005"><a xlink:href="../../dc/d9f/struct_cell_a58e3529c16d38557ebe3c6ed8f3e4ece.html#a58e3529c16d38557ebe3c6ed8f3e4ece" target="_top" xlink:title=" ">
<polygon fill="white" stroke="#666666" points="300.5,-93.25 170.5,-93.25 170.5,-74 300.5,-74 300.5,-93.25"/>
<text text-anchor="middle" x="235.5" y="-79.75" font-family="Helvetica,sans-Serif" font-size="10.00">Cell::Get_Grad_VatCenter</text>
</a>
</g>
</g>
<!-- Node1&#45;&gt;Node5 -->
<g id="edge4_Node000001_Node000005" class="edge">
<title>Node1&#45;&gt;Node5</title>
<g id="a_edge4_Node000001_Node000005"><a xlink:title=" ">
<path fill="none" stroke="#63b8ff" d="M133.02,-94.56C141.54,-93.64 150.31,-92.7 158.97,-91.77"/>
<polygon fill="#63b8ff" stroke="#63b8ff" points="159.19,-95.26 168.76,-90.71 158.44,-88.3 159.19,-95.26"/>
</a>
</g>
</g>
<!-- Node6 -->
<g id="Node000006" class="node">
<title>Node6</title>
<g id="a_Node000006"><a xlink:href="../../dc/d9f/struct_cell_a9bc93e2eabdeacc70e7af54ef144e31b.html#a9bc93e2eabdeacc70e7af54ef144e31b" target="_top" xlink:title=" ">
<polygon fill="white" stroke="#666666" points="302,-56.25 169,-56.25 169,-37 302,-37 302,-56.25"/>
<text text-anchor="middle" x="235.5" y="-42.75" font-family="Helvetica,sans-Serif" font-size="10.00">Cell::Get_Grad_WatCenter</text>
</a>
</g>
</g>
<!-- Node1&#45;&gt;Node6 -->
<g id="edge5_Node000001_Node000006" class="edge">
<title>Node1&#45;&gt;Node6</title>
<g id="a_edge5_Node000001_Node000006"><a xlink:title=" ">
<path fill="none" stroke="#63b8ff" d="M108.23,-85.92C126.67,-79.03 148.81,-71.07 169,-64.62 174.14,-62.99 179.53,-61.36 184.92,-59.79"/>
<polygon fill="#63b8ff" stroke="#63b8ff" points="185.78,-63.18 194.45,-57.08 183.87,-56.45 185.78,-63.18"/>
</a>
</g>
</g>
<!-- Node7 -->
<g id="Node000007" class="node">
<title>Node7</title>
<g id="a_Node000007"><a xlink:href="../../dc/d9f/struct_cell_a471d32a4d0f8ab85b129972f50417781.html#a471d32a4d0f8ab85b129972f50417781" target="_top" xlink:title=" ">
<polygon fill="white" stroke="#666666" points="286.25,-19.25 184.75,-19.25 184.75,0 286.25,0 286.25,-19.25"/>
<text text-anchor="middle" x="235.5" y="-5.75" font-family="Helvetica,sans-Serif" font-size="10.00">Cell::Is_Ghost_Cell</text>
</a>
</g>
</g>
<!-- Node1&#45;&gt;Node7 -->
<g id="edge6_Node000001_Node000007" class="edge">
<title>Node1&#45;&gt;Node7</title>
<g id="a_edge6_Node000001_Node000007"><a xlink:title=" ">
<path fill="none" stroke="#63b8ff" d="M84.57,-86.14C103.79,-69.47 136.59,-43.25 169,-27.62 172.09,-26.14 175.32,-24.75 178.62,-23.47"/>
<polygon fill="#63b8ff" stroke="#63b8ff" points="179.61,-26.84 187.89,-20.22 177.29,-20.23 179.61,-26.84"/>
</a>
</g>
</g>
</g>
</svg>
