<?xml version="1.0" encoding="UTF-8" standalone="no"?>
<!DOCTYPE svg PUBLIC "-//W3C//DTD SVG 1.1//EN"
 "http://www.w3.org/Graphics/SVG/1.1/DTD/svg11.dtd">
<!-- Generated by graphviz version 12.2.1 (20241206.2353)
 -->
<!-- Title: Scram_Jet_Inlet Pages: 1 -->
<svg width="654pt" height="359pt"
 viewBox="0.00 0.00 653.50 358.88" xmlns="http://www.w3.org/2000/svg" xmlns:xlink="http://www.w3.org/1999/xlink">
<g id="graph0" class="graph" transform="scale(1 1) rotate(0) translate(4 354.88)">
<title>Scram_Jet_Inlet</title>
<!-- Node1 -->
<g id="Node000001" class="node">
<title>Node1</title>
<g id="a_Node000001"><a xlink:title=" ">
<polygon fill="#999999" stroke="#666666" points="87.25,-179.25 0,-179.25 0,-160 87.25,-160 87.25,-179.25"/>
<text text-anchor="middle" x="43.62" y="-165.75" font-family="Helvetica,sans-Serif" font-size="10.00">Scram_Jet_Inlet</text>
</a>
</g>
</g>
<!-- Node2 -->
<g id="Node000002" class="node">
<title>Node2</title>
<g id="a_Node000002"><a xlink:href="../../df/d43/_basic___functions_8cpp_a9ca12fb8f920cab38313323cf0c4bf53.html#a9ca12fb8f920cab38313323cf0c4bf53" target="_top" xlink:title=" ">
<polygon fill="white" stroke="#666666" points="248.75,-350.88 123.25,-350.88 123.25,-320.38 248.75,-320.38 248.75,-350.88"/>
<text text-anchor="start" x="131.25" y="-337.38" font-family="Helvetica,sans-Serif" font-size="10.00">Calculate_Computational</text>
<text text-anchor="middle" x="186" y="-326.12" font-family="Helvetica,sans-Serif" font-size="10.00">_Variables</text>
</a>
</g>
</g>
<!-- Node1&#45;&gt;Node2 -->
<g id="edge1_Node000001_Node000002" class="edge">
<title>Node1&#45;&gt;Node2</title>
<g id="a_edge1_Node000001_Node000002"><a xlink:title=" ">
<path fill="none" stroke="#63b8ff" d="M47.62,-179.66C55.67,-205.05 80.18,-272.59 123.25,-310.62 124.52,-311.75 125.85,-312.83 127.23,-313.86"/>
<polygon fill="#63b8ff" stroke="#63b8ff" points="125.29,-316.78 135.6,-319.22 129.07,-310.88 125.29,-316.78"/>
</a>
</g>
</g>
<!-- Node3 -->
<g id="Node000003" class="node">
<title>Node3</title>
<g id="a_Node000003"><a xlink:href="../../df/d43/_basic___functions_8cpp_a1c199e756f8458978961b4d9ab4cbe63.html#a1c199e756f8458978961b4d9ab4cbe63" target="_top" xlink:title=" ">
<polygon fill="white" stroke="#666666" points="236.38,-301.88 135.62,-301.88 135.62,-271.38 236.38,-271.38 236.38,-301.88"/>
<text text-anchor="start" x="143.62" y="-288.38" font-family="Helvetica,sans-Serif" font-size="10.00">Calculate_Primitive</text>
<text text-anchor="middle" x="186" y="-277.12" font-family="Helvetica,sans-Serif" font-size="10.00">_Variables</text>
</a>
</g>
</g>
<!-- Node1&#45;&gt;Node3 -->
<g id="edge2_Node000001_Node000003" class="edge">
<title>Node1&#45;&gt;Node3</title>
<g id="a_edge2_Node000001_Node000003"><a xlink:title=" ">
<path fill="none" stroke="#63b8ff" d="M50.71,-179.73C62.5,-198.52 90.21,-239.04 123.25,-262.62 124.6,-263.59 125.99,-264.51 127.41,-265.41"/>
<polygon fill="#63b8ff" stroke="#63b8ff" points="125.45,-268.32 135.89,-270.14 128.86,-262.21 125.45,-268.32"/>
</a>
</g>
</g>
<!-- Node5 -->
<g id="Node000005" class="node">
<title>Node5</title>
<g id="a_Node000005"><a xlink:href="../../da/d3e/output__files_8cpp_ac7e61b153a6d26ffbefde7b5b86d55a7.html#ac7e61b153a6d26ffbefde7b5b86d55a7" target="_top" xlink:title=" ">
<polygon fill="white" stroke="#666666" points="229.62,-253.25 142.38,-253.25 142.38,-234 229.62,-234 229.62,-253.25"/>
<text text-anchor="middle" x="186" y="-239.75" font-family="Helvetica,sans-Serif" font-size="10.00">Directory_Name</text>
</a>
</g>
</g>
<!-- Node1&#45;&gt;Node5 -->
<g id="edge4_Node000001_Node000005" class="edge">
<title>Node1&#45;&gt;Node5</title>
<g id="a_edge4_Node000001_Node000005"><a xlink:title=" ">
<path fill="none" stroke="#63b8ff" d="M56.09,-179.7C70.73,-192.1 97.31,-213.05 123.25,-225.62 126.32,-227.11 129.53,-228.5 132.81,-229.79"/>
<polygon fill="#63b8ff" stroke="#63b8ff" points="131.4,-233 142,-233.08 133.76,-226.41 131.4,-233"/>
</a>
</g>
</g>
<!-- Node6 -->
<g id="Node000006" class="node">
<title>Node6</title>
<g id="a_Node000006"><a xlink:href="../../da/d3e/output__files_8cpp_a2a6bf38afe949ce5a6cd1b3641c49c25.html#a2a6bf38afe949ce5a6cd1b3641c49c25" target="_top" xlink:title=" ">
<polygon fill="white" stroke="#666666" points="217.62,-216.25 154.38,-216.25 154.38,-197 217.62,-197 217.62,-216.25"/>
<text text-anchor="middle" x="186" y="-202.75" font-family="Helvetica,sans-Serif" font-size="10.00">File_Name</text>
</a>
</g>
</g>
<!-- Node1&#45;&gt;Node6 -->
<g id="edge5_Node000001_Node000006" class="edge">
<title>Node1&#45;&gt;Node6</title>
<g id="a_edge5_Node000001_Node000006"><a xlink:title=" ">
<path fill="none" stroke="#63b8ff" d="M82.98,-179.74C101.62,-184.65 124.07,-190.56 143.15,-195.59"/>
<polygon fill="#63b8ff" stroke="#63b8ff" points="142.21,-198.97 152.77,-198.13 144,-192.2 142.21,-198.97"/>
</a>
</g>
</g>
<!-- Node7 -->
<g id="Node000007" class="node">
<title>Node7</title>
<g id="a_Node000007"><a xlink:href="../../d8/d40/_grid___computations_8cpp_a831dcf7cbf36ddf425ce0753495ba3c6.html#a831dcf7cbf36ddf425ce0753495ba3c6" target="_top" xlink:title=" ">
<polygon fill="white" stroke="#666666" points="219.12,-179.25 152.88,-179.25 152.88,-160 219.12,-160 219.12,-179.25"/>
<text text-anchor="middle" x="186" y="-165.75" font-family="Helvetica,sans-Serif" font-size="10.00">Form_Cells</text>
</a>
</g>
</g>
<!-- Node1&#45;&gt;Node7 -->
<g id="edge6_Node000001_Node000007" class="edge">
<title>Node1&#45;&gt;Node7</title>
<g id="a_edge6_Node000001_Node000007"><a xlink:title=" ">
<path fill="none" stroke="#63b8ff" d="M87.5,-169.62C104.54,-169.62 124.11,-169.62 141.23,-169.62"/>
<polygon fill="#63b8ff" stroke="#63b8ff" points="141.12,-173.13 151.12,-169.63 141.12,-166.13 141.12,-173.13"/>
</a>
</g>
</g>
<!-- Node19 -->
<g id="Node000019" class="node">
<title>Node19</title>
<g id="a_Node000019"><a xlink:href="../../d7/d6d/_initialize_8cpp_ad59ff1b23c73f6427e8179ce53ee1f59.html#ad59ff1b23c73f6427e8179ce53ee1f59" target="_top" xlink:title=" ">
<polygon fill="white" stroke="#666666" points="245.38,-141.88 126.62,-141.88 126.62,-111.38 245.38,-111.38 245.38,-141.88"/>
<text text-anchor="start" x="134.62" y="-128.38" font-family="Helvetica,sans-Serif" font-size="10.00">Identify_Wall_Boundary</text>
<text text-anchor="middle" x="186" y="-117.12" font-family="Helvetica,sans-Serif" font-size="10.00">_Faces</text>
</a>
</g>
</g>
<!-- Node1&#45;&gt;Node19 -->
<g id="edge20_Node000001_Node000019" class="edge">
<title>Node1&#45;&gt;Node19</title>
<g id="a_edge20_Node000001_Node000019"><a xlink:title=" ">
<path fill="none" stroke="#63b8ff" d="M77.54,-159.54C91.1,-155.39 107.28,-150.43 122.92,-145.64"/>
<polygon fill="#63b8ff" stroke="#63b8ff" points="123.63,-149.08 132.17,-142.81 121.58,-142.39 123.63,-149.08"/>
</a>
</g>
</g>
<!-- Node20 -->
<g id="Node000020" class="node">
<title>Node20</title>
<g id="a_Node000020"><a xlink:href="../../d7/d6d/_initialize_8cpp_acc3c3292e370176c51c654a01e651e24.html#acc3c3292e370176c51c654a01e651e24" target="_top" xlink:title=" ">
<polygon fill="white" stroke="#666666" points="212,-93.25 160,-93.25 160,-74 212,-74 212,-93.25"/>
<text text-anchor="middle" x="186" y="-79.75" font-family="Helvetica,sans-Serif" font-size="10.00">Initialize</text>
</a>
</g>
</g>
<!-- Node1&#45;&gt;Node20 -->
<g id="edge21_Node000001_Node000020" class="edge">
<title>Node1&#45;&gt;Node20</title>
<g id="a_edge21_Node000001_Node000020"><a xlink:title=" ">
<path fill="none" stroke="#63b8ff" d="M53.82,-159.52C67.58,-144.97 94.95,-118.16 123.25,-102.62 131.11,-98.31 140.09,-94.83 148.71,-92.1"/>
<polygon fill="#63b8ff" stroke="#63b8ff" points="149.64,-95.47 158.27,-89.34 147.7,-88.75 149.64,-95.47"/>
</a>
</g>
</g>
<!-- Node22 -->
<g id="Node000022" class="node">
<title>Node22</title>
<g id="a_Node000022"><a xlink:href="../../da/d3e/output__files_8cpp_ac097b2ea0ec60a400fde4f705d759388.html#ac097b2ea0ec60a400fde4f705d759388" target="_top" xlink:title=" ">
<polygon fill="white" stroke="#666666" points="227.38,-56.25 144.62,-56.25 144.62,-37 227.38,-37 227.38,-56.25"/>
<text text-anchor="middle" x="186" y="-42.75" font-family="Helvetica,sans-Serif" font-size="10.00">Write_Cell_Info</text>
</a>
</g>
</g>
<!-- Node1&#45;&gt;Node22 -->
<g id="edge23_Node000001_Node000022" class="edge">
<title>Node1&#45;&gt;Node22</title>
<g id="a_edge23_Node000001_Node000022"><a xlink:title=" ">
<path fill="none" stroke="#63b8ff" d="M49.35,-159.54C59.69,-138.58 86.37,-90.17 123.25,-64.62 126.52,-62.36 130.07,-60.38 133.76,-58.65"/>
<polygon fill="#63b8ff" stroke="#63b8ff" points="135.04,-61.91 143.02,-54.95 132.44,-55.41 135.04,-61.91"/>
</a>
</g>
</g>
<!-- Node23 -->
<g id="Node000023" class="node">
<title>Node23</title>
<g id="a_Node000023"><a xlink:href="../../da/d3e/output__files_8cpp_ac49d22b87cab7fa46da37546b7af78b0.html#ac49d22b87cab7fa46da37546b7af78b0" target="_top" xlink:title=" ">
<polygon fill="white" stroke="#666666" points="225.5,-19.25 146.5,-19.25 146.5,0 225.5,0 225.5,-19.25"/>
<text text-anchor="middle" x="186" y="-5.75" font-family="Helvetica,sans-Serif" font-size="10.00">Write_Solution</text>
</a>
</g>
</g>
<!-- Node1&#45;&gt;Node23 -->
<g id="edge24_Node000001_Node000023" class="edge">
<title>Node1&#45;&gt;Node23</title>
<g id="a_edge24_Node000001_Node000023"><a xlink:title=" ">
<path fill="none" stroke="#63b8ff" d="M47.26,-159.64C54.63,-133.73 77.91,-63.87 123.25,-27.62 126.98,-24.64 131.18,-22.16 135.6,-20.08"/>
<polygon fill="#63b8ff" stroke="#63b8ff" points="136.73,-23.4 144.77,-16.5 134.18,-16.88 136.73,-23.4"/>
</a>
</g>
</g>
<!-- Node4 -->
<g id="Node000004" class="node">
<title>Node4</title>
<g id="a_Node000004"><a xlink:href="../../db/d81/_viscous___calculations_8cpp_ae9dc3225863fb110155bb3e9dea4e4d3.html#ae9dc3225863fb110155bb3e9dea4e4d3" target="_top" xlink:title=" ">
<polygon fill="white" stroke="#666666" points="373.5,-296.25 317,-296.25 317,-277 373.5,-277 373.5,-296.25"/>
<text text-anchor="middle" x="345.25" y="-282.75" font-family="Helvetica,sans-Serif" font-size="10.00">Viscosity</text>
</a>
</g>
</g>
<!-- Node3&#45;&gt;Node4 -->
<g id="edge3_Node000003_Node000004" class="edge">
<title>Node3&#45;&gt;Node4</title>
<g id="a_edge3_Node000003_Node000004"><a xlink:title=" ">
<path fill="none" stroke="#63b8ff" d="M236.75,-286.62C258.97,-286.62 284.76,-286.62 305.51,-286.62"/>
<polygon fill="#63b8ff" stroke="#63b8ff" points="305.26,-290.13 315.26,-286.63 305.26,-283.13 305.26,-290.13"/>
</a>
</g>
</g>
<!-- Node8 -->
<g id="Node000008" class="node">
<title>Node8</title>
<g id="a_Node000008"><a xlink:href="../../d8/d40/_grid___computations_8cpp_a7e6f11445e90cefdcb91f369846ec691.html#a7e6f11445e90cefdcb91f369846ec691" target="_top" xlink:title=" ">
<polygon fill="white" stroke="#666666" points="402.38,-143.88 288.12,-143.88 288.12,-113.38 402.38,-113.38 402.38,-143.88"/>
<text text-anchor="start" x="296.12" y="-130.38" font-family="Helvetica,sans-Serif" font-size="10.00">Calculate_Cell_Center</text>
<text text-anchor="middle" x="345.25" y="-119.12" font-family="Helvetica,sans-Serif" font-size="10.00">_Distances</text>
</a>
</g>
</g>
<!-- Node7&#45;&gt;Node8 -->
<g id="edge7_Node000007_Node000008" class="edge">
<title>Node7&#45;&gt;Node8</title>
<g id="a_edge7_Node000007_Node000008"><a xlink:title=" ">
<path fill="none" stroke="#63b8ff" d="M219.58,-161.13C236.21,-156.8 257.07,-151.36 276.94,-146.17"/>
<polygon fill="#63b8ff" stroke="#63b8ff" points="277.59,-149.62 286.39,-143.71 275.83,-142.85 277.59,-149.62"/>
</a>
</g>
</g>
<!-- Node11 -->
<g id="Node000011" class="node">
<title>Node11</title>
<g id="a_Node000011"><a xlink:href="../../d8/d40/_grid___computations_8cpp_a209db16fba143a9833c8d4021624afb0.html#a209db16fba143a9833c8d4021624afb0" target="_top" xlink:title=" ">
<polygon fill="white" stroke="#666666" points="543.62,-181.25 471.38,-181.25 471.38,-162 543.62,-162 543.62,-181.25"/>
<text text-anchor="middle" x="507.5" y="-167.75" font-family="Helvetica,sans-Serif" font-size="10.00">Check_Cells</text>
</a>
</g>
</g>
<!-- Node7&#45;&gt;Node11 -->
<g id="edge10_Node000007_Node000011" class="edge">
<title>Node7&#45;&gt;Node11</title>
<g id="a_edge10_Node000007_Node000011"><a xlink:title=" ">
<path fill="none" stroke="#63b8ff" d="M219.39,-169.83C276.26,-170.18 394.24,-170.92 459.88,-171.33"/>
<polygon fill="#63b8ff" stroke="#63b8ff" points="459.58,-174.83 469.6,-171.39 459.62,-167.83 459.58,-174.83"/>
</a>
</g>
</g>
<!-- Node12 -->
<g id="Node000012" class="node">
<title>Node12</title>
<g id="a_Node000012"><a xlink:href="../../df/daf/_co___volume___grid___computations_8cpp_a097cceef075e862683dd9f6e95d091d4.html#a097cceef075e862683dd9f6e95d091d4" target="_top" xlink:title=" ">
<polygon fill="white" stroke="#666666" points="405.38,-95.25 285.12,-95.25 285.12,-76 405.38,-76 405.38,-95.25"/>
<text text-anchor="middle" x="345.25" y="-81.75" font-family="Helvetica,sans-Serif" font-size="10.00">Construct_Co_Volumes</text>
</a>
</g>
</g>
<!-- Node7&#45;&gt;Node12 -->
<g id="edge11_Node000007_Node000012" class="edge">
<title>Node7&#45;&gt;Node12</title>
<g id="a_edge11_Node000007_Node000012"><a xlink:title=" ">
<path fill="none" stroke="#63b8ff" d="M219.45,-163.61C229.43,-160.75 240.06,-156.6 248.75,-150.62 270.14,-135.91 263.44,-119.45 284.75,-104.62 286.93,-103.11 289.23,-101.71 291.62,-100.42"/>
<polygon fill="#63b8ff" stroke="#63b8ff" points="292.83,-103.72 300.42,-96.33 289.88,-97.37 292.83,-103.72"/>
</a>
</g>
</g>
<!-- Node15 -->
<g id="Node000015" class="node">
<title>Node15</title>
<g id="a_Node000015"><a xlink:href="../../d8/d40/_grid___computations_8cpp_ae5f2b7a0fdbc48f8fdf897222b7ded04.html#ae5f2b7a0fdbc48f8fdf897222b7ded04" target="_top" xlink:title=" ">
<polygon fill="white" stroke="#666666" points="404.25,-256.25 286.25,-256.25 286.25,-237 404.25,-237 404.25,-256.25"/>
<text text-anchor="middle" x="345.25" y="-242.75" font-family="Helvetica,sans-Serif" font-size="10.00">Construct_Ghost_Cells</text>
</a>
</g>
</g>
<!-- Node7&#45;&gt;Node15 -->
<g id="edge14_Node000007_Node000015" class="edge">
<title>Node7&#45;&gt;Node15</title>
<g id="a_edge14_Node000007_Node000015"><a xlink:title=" ">
<path fill="none" stroke="#63b8ff" d="M219.57,-175.44C229.45,-178.15 239.99,-182.05 248.75,-187.62 269.21,-200.65 264.36,-215.5 284.75,-228.62 286.59,-229.81 288.51,-230.92 290.48,-231.95"/>
<polygon fill="#63b8ff" stroke="#63b8ff" points="288.79,-235.03 299.35,-235.96 291.68,-228.65 288.79,-235.03"/>
</a>
</g>
</g>
<!-- Node17 -->
<g id="Node000017" class="node">
<title>Node17</title>
<g id="a_Node000017"><a xlink:href="../../d8/d40/_grid___computations_8cpp_a663d4b3ae06e638c2f2e82ad437e831e.html#a663d4b3ae06e638c2f2e82ad437e831e" target="_top" xlink:title="Reads the input grid file and constructs physical cells, evaluates face areas, normals,...">
<polygon fill="white" stroke="#666666" points="376.5,-219.25 314,-219.25 314,-200 376.5,-200 376.5,-219.25"/>
<text text-anchor="middle" x="345.25" y="-205.75" font-family="Helvetica,sans-Serif" font-size="10.00">Read_Grid</text>
</a>
</g>
</g>
<!-- Node7&#45;&gt;Node17 -->
<g id="edge16_Node000007_Node000017" class="edge">
<title>Node7&#45;&gt;Node17</title>
<g id="a_edge16_Node000007_Node000017"><a xlink:title=" ">
<path fill="none" stroke="#63b8ff" d="M219.58,-177.91C243.64,-184.03 276.58,-192.41 302.56,-199.02"/>
<polygon fill="#63b8ff" stroke="#63b8ff" points="301.56,-202.38 312.11,-201.45 303.28,-195.59 301.56,-202.38"/>
</a>
</g>
</g>
<!-- Node9 -->
<g id="Node000009" class="node">
<title>Node9</title>
<g id="a_Node000009"><a xlink:href="../../d8/d40/_grid___computations_8cpp_a1f273579608200866e02e34f16a3eb6b.html#a1f273579608200866e02e34f16a3eb6b" target="_top" xlink:title=" ">
<polygon fill="white" stroke="#666666" points="573.25,-138.25 441.75,-138.25 441.75,-119 573.25,-119 573.25,-138.25"/>
<text text-anchor="middle" x="507.5" y="-124.75" font-family="Helvetica,sans-Serif" font-size="10.00">Distance_Between_Points</text>
</a>
</g>
</g>
<!-- Node8&#45;&gt;Node9 -->
<g id="edge8_Node000008_Node000009" class="edge">
<title>Node8&#45;&gt;Node9</title>
<g id="a_edge8_Node000008_Node000009"><a xlink:title=" ">
<path fill="none" stroke="#63b8ff" d="M402.75,-128.62C411.65,-128.62 420.99,-128.62 430.25,-128.62"/>
<polygon fill="#63b8ff" stroke="#63b8ff" points="429.97,-132.13 439.97,-128.63 429.97,-125.13 429.97,-132.13"/>
</a>
</g>
</g>
<!-- Node10 -->
<g id="Node000010" class="node">
<title>Node10</title>
<g id="a_Node000010"><a xlink:href="../../dc/d3a/src_2_utility___files_8cpp_abf34e0b480f7580b0cd4237a76aed670.html#abf34e0b480f7580b0cd4237a76aed670" target="_top" xlink:title=" ">
<polygon fill="white" stroke="#666666" points="645.5,-138.25 609.25,-138.25 609.25,-119 645.5,-119 645.5,-138.25"/>
<text text-anchor="middle" x="627.38" y="-124.75" font-family="Helvetica,sans-Serif" font-size="10.00">Print</text>
</a>
</g>
</g>
<!-- Node9&#45;&gt;Node10 -->
<g id="edge9_Node000009_Node000010" class="edge">
<title>Node9&#45;&gt;Node10</title>
<g id="a_edge9_Node000009_Node000010"><a xlink:title=" ">
<path fill="none" stroke="#63b8ff" d="M573.64,-128.62C581.97,-128.62 590.12,-128.62 597.44,-128.62"/>
<polygon fill="#63b8ff" stroke="#63b8ff" points="597.32,-132.13 607.32,-128.63 597.32,-125.13 597.32,-132.13"/>
</a>
</g>
</g>
<!-- Node13 -->
<g id="Node000013" class="node">
<title>Node13</title>
<g id="a_Node000013"><a xlink:href="../../d8/d40/_grid___computations_8cpp_a0d19b951f556ac7a935819a38d2e1a6f.html#a0d19b951f556ac7a935819a38d2e1a6f" target="_top" xlink:title=" ">
<polygon fill="white" stroke="#666666" points="550.38,-98.25 464.62,-98.25 464.62,-79 550.38,-79 550.38,-98.25"/>
<text text-anchor="middle" x="507.5" y="-84.75" font-family="Helvetica,sans-Serif" font-size="10.00">Construct_Face</text>
</a>
</g>
</g>
<!-- Node12&#45;&gt;Node13 -->
<g id="edge12_Node000012_Node000013" class="edge">
<title>Node12&#45;&gt;Node13</title>
<g id="a_edge12_Node000012_Node000013"><a xlink:title=" ">
<path fill="none" stroke="#63b8ff" d="M405.47,-86.73C421.1,-87.03 437.87,-87.34 453.17,-87.63"/>
<polygon fill="#63b8ff" stroke="#63b8ff" points="452.96,-91.12 463.02,-87.81 453.09,-84.12 452.96,-91.12"/>
</a>
</g>
</g>
<!-- Node14 -->
<g id="Node000014" class="node">
<title>Node14</title>
<g id="a_Node000014"><a xlink:href="../../d8/d40/_grid___computations_8cpp_a29418163b6fbd0aa81c60026e430d0b8.html#a29418163b6fbd0aa81c60026e430d0b8" target="_top" xlink:title=" ">
<polygon fill="white" stroke="#666666" points="569.88,-61.25 445.12,-61.25 445.12,-42 569.88,-42 569.88,-61.25"/>
<text text-anchor="middle" x="507.5" y="-47.75" font-family="Helvetica,sans-Serif" font-size="10.00">Evaluate_Cross_Product</text>
</a>
</g>
</g>
<!-- Node12&#45;&gt;Node14 -->
<g id="edge13_Node000012_Node000014" class="edge">
<title>Node12&#45;&gt;Node14</title>
<g id="a_edge13_Node000012_Node000014"><a xlink:title=" ">
<path fill="none" stroke="#63b8ff" d="M393.9,-75.52C410.85,-71.92 430.15,-67.82 447.92,-64.05"/>
<polygon fill="#63b8ff" stroke="#63b8ff" points="448.5,-67.51 457.56,-62.01 447.05,-60.66 448.5,-67.51"/>
</a>
</g>
</g>
<!-- Node16 -->
<g id="Node000016" class="node">
<title>Node16</title>
<g id="a_Node000016"><a xlink:href="../../d8/d40/_grid___computations_8cpp_a2d284e26ddef582519953e8b8300184e.html#a2d284e26ddef582519953e8b8300184e" target="_top" xlink:title=" ">
<polygon fill="white" stroke="#666666" points="548.12,-256.25 466.88,-256.25 466.88,-237 548.12,-237 548.12,-256.25"/>
<text text-anchor="middle" x="507.5" y="-242.75" font-family="Helvetica,sans-Serif" font-size="10.00">Construct_Cell</text>
</a>
</g>
</g>
<!-- Node15&#45;&gt;Node16 -->
<g id="edge15_Node000015_Node000016" class="edge">
<title>Node15&#45;&gt;Node16</title>
<g id="a_edge15_Node000015_Node000016"><a xlink:title=" ">
<path fill="none" stroke="#63b8ff" d="M404.56,-246.62C421.12,-246.62 439.03,-246.62 455.15,-246.62"/>
<polygon fill="#63b8ff" stroke="#63b8ff" points="455.01,-250.13 465.01,-246.63 455.01,-243.13 455.01,-250.13"/>
</a>
</g>
</g>
<!-- Node17&#45;&gt;Node11 -->
<g id="edge17_Node000017_Node000011" class="edge">
<title>Node17&#45;&gt;Node11</title>
<g id="a_edge17_Node000017_Node000011"><a xlink:title=" ">
<path fill="none" stroke="#63b8ff" d="M376.77,-202.39C400.29,-196.81 433.21,-189 460,-182.65"/>
<polygon fill="#63b8ff" stroke="#63b8ff" points="460.67,-186.09 469.59,-180.38 459.06,-179.28 460.67,-186.09"/>
</a>
</g>
</g>
<!-- Node17&#45;&gt;Node16 -->
<g id="edge18_Node000017_Node000016" class="edge">
<title>Node17&#45;&gt;Node16</title>
<g id="a_edge18_Node000017_Node000016"><a xlink:title=" ">
<path fill="none" stroke="#63b8ff" d="M376.77,-216.67C398.92,-221.79 429.41,-228.82 455.26,-234.79"/>
<polygon fill="#63b8ff" stroke="#63b8ff" points="454.39,-238.18 464.92,-237.02 455.96,-231.36 454.39,-238.18"/>
</a>
</g>
</g>
<!-- Node18 -->
<g id="Node000018" class="node">
<title>Node18</title>
<g id="a_Node000018"><a xlink:href="../../d8/d40/_grid___computations_8cpp_aa376223dcb91990013ac6549090115ea.html#aa376223dcb91990013ac6549090115ea" target="_top" xlink:title=" ">
<polygon fill="white" stroke="#666666" points="556.75,-219.25 458.25,-219.25 458.25,-200 556.75,-200 556.75,-219.25"/>
<text text-anchor="middle" x="507.5" y="-205.75" font-family="Helvetica,sans-Serif" font-size="10.00">Conversion_Factor</text>
</a>
</g>
</g>
<!-- Node17&#45;&gt;Node18 -->
<g id="edge19_Node000017_Node000018" class="edge">
<title>Node17&#45;&gt;Node18</title>
<g id="a_edge19_Node000017_Node000018"><a xlink:title=" ">
<path fill="none" stroke="#63b8ff" d="M376.77,-209.62C396.44,-209.62 422.67,-209.62 446.41,-209.62"/>
<polygon fill="#63b8ff" stroke="#63b8ff" points="446.3,-213.13 456.3,-209.63 446.3,-206.13 446.3,-213.13"/>
</a>
</g>
</g>
<!-- Node21 -->
<g id="Node000021" class="node">
<title>Node21</title>
<g id="a_Node000021"><a xlink:href="../../d4/d5d/_grid___refine___functions_8cpp_add867401ba6818c3d6480ec342cb0eaa.html#add867401ba6818c3d6480ec342cb0eaa" target="_top" xlink:title="Identifies the secondary neighbors of a given cell to evaluate second gradients.">
<polygon fill="white" stroke="#666666" points="405.75,-57.88 284.75,-57.88 284.75,-27.38 405.75,-27.38 405.75,-57.88"/>
<text text-anchor="start" x="292.75" y="-44.38" font-family="Helvetica,sans-Serif" font-size="10.00">Identify_Neighbours</text>
<text text-anchor="middle" x="345.25" y="-33.12" font-family="Helvetica,sans-Serif" font-size="10.00">_For_Second_Gradients</text>
</a>
</g>
</g>
<!-- Node20&#45;&gt;Node21 -->
<g id="edge22_Node000020_Node000021" class="edge">
<title>Node20&#45;&gt;Node21</title>
<g id="a_edge22_Node000020_Node000021"><a xlink:title=" ">
<path fill="none" stroke="#63b8ff" d="M212.26,-77.04C228.9,-72.7 251.57,-66.79 273.43,-61.09"/>
<polygon fill="#63b8ff" stroke="#63b8ff" points="274.15,-64.52 282.94,-58.61 272.38,-57.75 274.15,-64.52"/>
</a>
</g>
</g>
</g>
</svg>
