<?xml version="1.0" encoding="UTF-8" standalone="no"?>
<!DOCTYPE svg PUBLIC "-//W3C//DTD SVG 1.1//EN"
 "http://www.w3.org/Graphics/SVG/1.1/DTD/svg11.dtd">
<!-- Generated by graphviz version 12.2.1 (20241206.2353)
 -->
<!-- Title: Write_CF_File Pages: 1 -->
<svg width="378pt" height="188pt"
 viewBox="0.00 0.00 377.75 187.88" xmlns="http://www.w3.org/2000/svg" xmlns:xlink="http://www.w3.org/1999/xlink">
<g id="graph0" class="graph" transform="scale(1 1) rotate(0) translate(4 183.88)">
<title>Write_CF_File</title>
<!-- Node1 -->
<g id="Node000001" class="node">
<title>Node1</title>
<g id="a_Node000001"><a xlink:title=" ">
<polygon fill="#999999" stroke="#666666" points="369.75,-93.25 291.5,-93.25 291.5,-74 369.75,-74 369.75,-93.25"/>
<text text-anchor="middle" x="330.62" y="-79.75" font-family="Helvetica,sans-Serif" font-size="10.00">Write_CF_File</text>
</a>
</g>
</g>
<!-- Node2 -->
<g id="Node000002" class="node">
<title>Node2</title>
<g id="a_Node000002"><a xlink:href="../../de/d81/_flat___plate___boundary___layer_8cpp_a787b29de4053181d716a19e7c4c9b705.html#a787b29de4053181d716a19e7c4c9b705" target="_top" xlink:title=" ">
<polygon fill="white" stroke="#666666" points="255.5,-179.88 148.75,-179.88 148.75,-149.38 255.5,-149.38 255.5,-179.88"/>
<text text-anchor="start" x="156.75" y="-166.38" font-family="Helvetica,sans-Serif" font-size="10.00">Flat_Plate_Boundary</text>
<text text-anchor="middle" x="202.12" y="-155.12" font-family="Helvetica,sans-Serif" font-size="10.00">_Layer</text>
</a>
</g>
</g>
<!-- Node1&#45;&gt;Node2 -->
<g id="edge1_Node000001_Node000002" class="edge">
<title>Node1&#45;&gt;Node2</title>
<g id="a_edge1_Node000001_Node000002"><a xlink:title=" ">
<path fill="none" stroke="#63b8ff" d="M307.09,-100.37C292.62,-110.89 273.26,-124.52 255.5,-135.62 248.27,-140.14 240.3,-144.74 232.81,-148.91"/>
<polygon fill="#63b8ff" stroke="#63b8ff" points="309.04,-103.28 315.04,-94.55 304.9,-97.63 309.04,-103.28"/>
</a>
</g>
</g>
<!-- Node3 -->
<g id="Node000003" class="node">
<title>Node3</title>
<g id="a_Node000003"><a xlink:href="../../dd/dbf/_euler___python___wrapper_8cpp_ac5ccb50c3be270f798e054dd36987442.html#ac5ccb50c3be270f798e054dd36987442" target="_top" xlink:title=" ">
<polygon fill="white" stroke="#666666" points="112.75,-93.25 0,-93.25 0,-74 112.75,-74 112.75,-93.25"/>
<text text-anchor="middle" x="56.38" y="-79.75" font-family="Helvetica,sans-Serif" font-size="10.00">PYBIND11_MODULE</text>
</a>
</g>
</g>
<!-- Node1&#45;&gt;Node3 -->
<g id="edge5_Node000001_Node000003" class="edge">
<title>Node1&#45;&gt;Node3</title>
<g id="a_edge5_Node000001_Node000003"><a xlink:title=" ">
<path fill="none" stroke="#63b8ff" d="M286.48,-96.62C276.4,-99.12 265.65,-101.34 255.5,-102.62 208.43,-108.56 195.95,-107.48 148.75,-102.62 131.66,-100.87 113.06,-97.31 97.13,-93.74"/>
<polygon fill="#63b8ff" stroke="#63b8ff" points="287.24,-100.04 296.03,-94.12 285.47,-93.27 287.24,-100.04"/>
</a>
</g>
</g>
<!-- Node4 -->
<g id="Node000004" class="node">
<title>Node4</title>
<g id="a_Node000004"><a xlink:href="../../da/d4b/_flow___over___bump_8cpp_abaa8184c0dd8aa3fdc37d585f0a7d0cc.html#abaa8184c0dd8aa3fdc37d585f0a7d0cc" target="_top" xlink:title=" ">
<polygon fill="white" stroke="#666666" points="249.12,-93.25 155.12,-93.25 155.12,-74 249.12,-74 249.12,-93.25"/>
<text text-anchor="middle" x="202.12" y="-79.75" font-family="Helvetica,sans-Serif" font-size="10.00">Flow_Over_Bump</text>
</a>
</g>
</g>
<!-- Node1&#45;&gt;Node4 -->
<g id="edge3_Node000001_Node000004" class="edge">
<title>Node1&#45;&gt;Node4</title>
<g id="a_edge3_Node000001_Node000004"><a xlink:title=" ">
<path fill="none" stroke="#63b8ff" d="M280.14,-83.62C269.99,-83.62 259.35,-83.62 249.32,-83.62"/>
<polygon fill="#63b8ff" stroke="#63b8ff" points="279.81,-87.13 289.81,-83.63 279.81,-80.13 279.81,-87.13"/>
</a>
</g>
</g>
<!-- Node5 -->
<g id="Node000005" class="node">
<title>Node5</title>
<g id="a_Node000005"><a xlink:href="../../d8/da5/_s_w_b_l_i_8cpp_aab1edbd94ae1737559f5140355148ed8.html#aab1edbd94ae1737559f5140355148ed8" target="_top" xlink:title=" ">
<polygon fill="white" stroke="#666666" points="225.88,-56.25 178.38,-56.25 178.38,-37 225.88,-37 225.88,-56.25"/>
<text text-anchor="middle" x="202.12" y="-42.75" font-family="Helvetica,sans-Serif" font-size="10.00">SWBLI</text>
</a>
</g>
</g>
<!-- Node1&#45;&gt;Node5 -->
<g id="edge6_Node000001_Node000005" class="edge">
<title>Node1&#45;&gt;Node5</title>
<g id="a_edge6_Node000001_Node000005"><a xlink:title=" ">
<path fill="none" stroke="#63b8ff" d="M284.12,-70.32C264.43,-64.56 242.24,-58.07 226.07,-53.34"/>
<polygon fill="#63b8ff" stroke="#63b8ff" points="283.03,-73.64 293.61,-73.09 284.99,-66.92 283.03,-73.64"/>
</a>
</g>
</g>
<!-- Node6 -->
<g id="Node000006" class="node">
<title>Node6</title>
<g id="a_Node000006"><a xlink:href="../../de/df0/_solver_8cpp_a2f37f06e8324a1ed6aa99efdbba81865.html#a2f37f06e8324a1ed6aa99efdbba81865" target="_top" xlink:title=" ">
<polygon fill="white" stroke="#666666" points="244.25,-19.25 160,-19.25 160,0 244.25,0 244.25,-19.25"/>
<text text-anchor="middle" x="202.12" y="-5.75" font-family="Helvetica,sans-Serif" font-size="10.00">Viscous_Solver</text>
</a>
</g>
</g>
<!-- Node1&#45;&gt;Node6 -->
<g id="edge8_Node000001_Node000006" class="edge">
<title>Node1&#45;&gt;Node6</title>
<g id="a_edge8_Node000001_Node000006"><a xlink:title=" ">
<path fill="none" stroke="#63b8ff" d="M310.37,-66.37C296.05,-54.23 275.59,-38.31 255.5,-27.62 249.9,-24.64 243.7,-22 237.59,-19.73"/>
<polygon fill="#63b8ff" stroke="#63b8ff" points="307.84,-68.8 317.69,-72.71 312.43,-63.52 307.84,-68.8"/>
</a>
</g>
</g>
<!-- Node2&#45;&gt;Node3 -->
<g id="edge2_Node000002_Node000003" class="edge">
<title>Node2&#45;&gt;Node3</title>
<g id="a_edge2_Node000002_Node000003"><a xlink:title=" ">
<path fill="none" stroke="#63b8ff" d="M162.52,-143.32C157.88,-140.73 153.2,-138.13 148.75,-135.62 122.97,-121.15 93.22,-104.17 74.86,-93.65"/>
<polygon fill="#63b8ff" stroke="#63b8ff" points="160.78,-146.36 171.23,-148.15 164.18,-140.23 160.78,-146.36"/>
</a>
</g>
</g>
<!-- Node4&#45;&gt;Node3 -->
<g id="edge4_Node000004_Node000003" class="edge">
<title>Node4&#45;&gt;Node3</title>
<g id="a_edge4_Node000004_Node000003"><a xlink:title=" ">
<path fill="none" stroke="#63b8ff" d="M143.36,-83.62C133.38,-83.62 123.03,-83.62 113.11,-83.62"/>
<polygon fill="#63b8ff" stroke="#63b8ff" points="143.34,-87.13 153.34,-83.63 143.34,-80.13 143.34,-87.13"/>
</a>
</g>
</g>
<!-- Node5&#45;&gt;Node3 -->
<g id="edge7_Node000005_Node000003" class="edge">
<title>Node5&#45;&gt;Node3</title>
<g id="a_edge7_Node000005_Node000003"><a xlink:title=" ">
<path fill="none" stroke="#63b8ff" d="M166.99,-55.41C145.88,-60.84 118.7,-67.84 96.69,-73.51"/>
<polygon fill="#63b8ff" stroke="#63b8ff" points="167.75,-58.83 176.56,-52.95 166.01,-52.05 167.75,-58.83"/>
</a>
</g>
</g>
<!-- Node6&#45;&gt;Node3 -->
<g id="edge9_Node000006_Node000003" class="edge">
<title>Node6&#45;&gt;Node3</title>
<g id="a_edge9_Node000006_Node000003"><a xlink:title=" ">
<path fill="none" stroke="#63b8ff" d="M157.75,-23.69C154.67,-24.95 151.64,-26.26 148.75,-27.62 119.97,-41.19 88.87,-61.62 71.39,-73.69"/>
<polygon fill="#63b8ff" stroke="#63b8ff" points="158.76,-27.05 166.86,-20.22 156.27,-20.51 158.76,-27.05"/>
</a>
</g>
</g>
<!-- Node7 -->
<g id="Node000007" class="node">
<title>Node7</title>
<g id="a_Node000007"><a xlink:href="../../d5/d12/_main_8cpp_a35d775933750ace299102f06a1712663.html#a35d775933750ace299102f06a1712663" target="_top" xlink:title="Executes the appropriate solver based on the simulation configuration.">
<polygon fill="white" stroke="#666666" points="85,-19.25 27.75,-19.25 27.75,0 85,0 85,-19.25"/>
<text text-anchor="middle" x="56.38" y="-5.75" font-family="Helvetica,sans-Serif" font-size="10.00">runSolver</text>
</a>
</g>
</g>
<!-- Node6&#45;&gt;Node7 -->
<g id="edge10_Node000006_Node000007" class="edge">
<title>Node6&#45;&gt;Node7</title>
<g id="a_edge10_Node000006_Node000007"><a xlink:title=" ">
<path fill="none" stroke="#63b8ff" d="M148.3,-9.62C126.92,-9.62 103.11,-9.62 85.22,-9.62"/>
<polygon fill="#63b8ff" stroke="#63b8ff" points="148.03,-13.13 158.03,-9.63 148.03,-6.13 148.03,-13.13"/>
</a>
</g>
</g>
</g>
</svg>
