<?xml version="1.0" encoding="UTF-8" standalone="no"?>
<!DOCTYPE svg PUBLIC "-//W3C//DTD SVG 1.1//EN"
 "http://www.w3.org/Graphics/SVG/1.1/DTD/svg11.dtd">
<!-- Generated by graphviz version 12.2.1 (20241206.2353)
 -->
<!-- Title: include/IO_Write.h Pages: 1 -->
<svg width="808pt" height="83pt"
 viewBox="0.00 0.00 807.88 82.50" xmlns="http://www.w3.org/2000/svg" xmlns:xlink="http://www.w3.org/1999/xlink">
<g id="graph0" class="graph" transform="scale(1 1) rotate(0) translate(4 78.5)">
<title>include/IO_Write.h</title>
<!-- Node1 -->
<g id="Node000001" class="node">
<title>Node1</title>
<g id="a_Node000001"><a xlink:title=" ">
<polygon fill="#999999" stroke="#666666" points="425,-74.5 328.75,-74.5 328.75,-55.25 425,-55.25 425,-74.5"/>
<text text-anchor="middle" x="376.88" y="-61" font-family="Helvetica,sans-Serif" font-size="10.00">include/IO_Write.h</text>
</a>
</g>
</g>
<!-- Node2 -->
<g id="Node000002" class="node">
<title>Node2</title>
<g id="a_Node000002"><a xlink:href="../../dd/d2a/_create___vtk___file_8cpp.html" target="_top" xlink:title=" ">
<polygon fill="white" stroke="#666666" points="121.75,-19.25 0,-19.25 0,0 121.75,0 121.75,-19.25"/>
<text text-anchor="middle" x="60.88" y="-5.75" font-family="Helvetica,sans-Serif" font-size="10.00">src/Create_Vtk_File.cpp</text>
</a>
</g>
</g>
<!-- Node1&#45;&gt;Node2 -->
<g id="edge1_Node000001_Node000002" class="edge">
<title>Node1&#45;&gt;Node2</title>
<g id="a_edge1_Node000001_Node000002"><a xlink:title=" ">
<path fill="none" stroke="#63b8ff" d="M317.29,-53.83C259.01,-44.01 171.02,-29.19 114.77,-19.71"/>
<polygon fill="#63b8ff" stroke="#63b8ff" points="316.6,-57.27 327.04,-55.48 317.77,-50.36 316.6,-57.27"/>
</a>
</g>
</g>
<!-- Node3 -->
<g id="Node000003" class="node">
<title>Node3</title>
<g id="a_Node000003"><a xlink:href="../../dc/dac/_dir___files_8cpp.html" target="_top" xlink:title=" ">
<polygon fill="white" stroke="#666666" points="230,-19.25 139.75,-19.25 139.75,0 230,0 230,-19.25"/>
<text text-anchor="middle" x="184.88" y="-5.75" font-family="Helvetica,sans-Serif" font-size="10.00">src/Dir_Files.cpp</text>
</a>
</g>
</g>
<!-- Node1&#45;&gt;Node3 -->
<g id="edge2_Node000001_Node000003" class="edge">
<title>Node1&#45;&gt;Node3</title>
<g id="a_edge2_Node000001_Node000003"><a xlink:title=" ">
<path fill="none" stroke="#63b8ff" d="M333.41,-51.82C298.25,-42.07 249.52,-28.55 217.6,-19.7"/>
<polygon fill="#63b8ff" stroke="#63b8ff" points="332.27,-55.14 342.85,-54.44 334.15,-48.39 332.27,-55.14"/>
</a>
</g>
</g>
<!-- Node4 -->
<g id="Node000004" class="node">
<title>Node4</title>
<g id="a_Node000004"><a xlink:href="../../d3/db8/_initialize___test_case_8cpp.html" target="_top" xlink:title=" ">
<polygon fill="white" stroke="#666666" points="382.12,-19.25 247.62,-19.25 247.62,0 382.12,0 382.12,-19.25"/>
<text text-anchor="middle" x="314.88" y="-5.75" font-family="Helvetica,sans-Serif" font-size="10.00">src/Initialize_TestCase.cpp</text>
</a>
</g>
</g>
<!-- Node1&#45;&gt;Node4 -->
<g id="edge3_Node000001_Node000004" class="edge">
<title>Node1&#45;&gt;Node4</title>
<g id="a_edge3_Node000001_Node000004"><a xlink:title=" ">
<path fill="none" stroke="#63b8ff" d="M357.68,-47.39C346.97,-38.19 334.06,-27.1 325.24,-19.52"/>
<polygon fill="#63b8ff" stroke="#63b8ff" points="355.34,-50 365.21,-53.86 359.9,-44.69 355.34,-50"/>
</a>
</g>
</g>
<!-- Node5 -->
<g id="Node000005" class="node">
<title>Node5</title>
<g id="a_Node000005"><a xlink:href="../../de/df0/_solver_8cpp.html" target="_top" xlink:title="This file contains the implementation of solvers for Euler equations and Navier&#45;Stokes equations.">
<polygon fill="white" stroke="#666666" points="478,-19.25 399.75,-19.25 399.75,0 478,0 478,-19.25"/>
<text text-anchor="middle" x="438.88" y="-5.75" font-family="Helvetica,sans-Serif" font-size="10.00">src/Solver.cpp</text>
</a>
</g>
</g>
<!-- Node1&#45;&gt;Node5 -->
<g id="edge4_Node000001_Node000005" class="edge">
<title>Node1&#45;&gt;Node5</title>
<g id="a_edge4_Node000001_Node000005"><a xlink:title=" ">
<path fill="none" stroke="#63b8ff" d="M396.07,-47.39C406.78,-38.19 419.69,-27.1 428.51,-19.52"/>
<polygon fill="#63b8ff" stroke="#63b8ff" points="393.85,-44.69 388.54,-53.86 398.41,-50 393.85,-44.69"/>
</a>
</g>
</g>
<!-- Node6 -->
<g id="Node000006" class="node">
<title>Node6</title>
<g id="a_Node000006"><a xlink:href="../../d4/df3/_turbulence___integration_8cpp.html" target="_top" xlink:title="Integration of turbulence models into the main CFD solver.">
<polygon fill="white" stroke="#666666" points="646,-19.25 495.75,-19.25 495.75,0 646,0 646,-19.25"/>
<text text-anchor="middle" x="570.88" y="-5.75" font-family="Helvetica,sans-Serif" font-size="10.00">src/Turbulence_Integration.cpp</text>
</a>
</g>
</g>
<!-- Node1&#45;&gt;Node6 -->
<g id="edge5_Node000001_Node000006" class="edge">
<title>Node1&#45;&gt;Node6</title>
<g id="a_edge5_Node000001_Node000006"><a xlink:title=" ">
<path fill="none" stroke="#63b8ff" d="M420.8,-51.82C456.32,-42.07 505.56,-28.55 537.8,-19.7"/>
<polygon fill="#63b8ff" stroke="#63b8ff" points="419.96,-48.42 411.24,-54.44 421.81,-55.17 419.96,-48.42"/>
</a>
</g>
</g>
<!-- Node7 -->
<g id="Node000007" class="node">
<title>Node7</title>
<g id="a_Node000007"><a xlink:href="../../d5/d65/_turbulence___models_8cpp.html" target="_top" xlink:title="Main implementation file for turbulence models integration.">
<polygon fill="white" stroke="#666666" points="799.88,-19.25 663.88,-19.25 663.88,0 799.88,0 799.88,-19.25"/>
<text text-anchor="middle" x="731.88" y="-5.75" font-family="Helvetica,sans-Serif" font-size="10.00">src/Turbulence_Models.cpp</text>
</a>
</g>
</g>
<!-- Node1&#45;&gt;Node7 -->
<g id="edge6_Node000001_Node000007" class="edge">
<title>Node1&#45;&gt;Node7</title>
<g id="a_edge6_Node000001_Node000007"><a xlink:title=" ">
<path fill="none" stroke="#63b8ff" d="M436.8,-54.89C501.97,-45.11 605.57,-29.57 671.08,-19.74"/>
<polygon fill="#63b8ff" stroke="#63b8ff" points="436.36,-51.41 426.99,-56.36 437.4,-58.34 436.36,-51.41"/>
</a>
</g>
</g>
</g>
</svg>
