<?xml version="1.0" encoding="UTF-8" standalone="no"?>
<!DOCTYPE svg PUBLIC "-//W3C//DTD SVG 1.1//EN"
 "http://www.w3.org/Graphics/SVG/1.1/DTD/svg11.dtd">
<!-- Generated by graphviz version 12.2.1 (20241206.2353)
 -->
<!-- Title: include/IO_Write.h Pages: 1 -->
<svg width="486pt" height="83pt"
 viewBox="0.00 0.00 486.00 82.50" xmlns="http://www.w3.org/2000/svg" xmlns:xlink="http://www.w3.org/1999/xlink">
<g id="graph0" class="graph" transform="scale(1 1) rotate(0) translate(4 78.5)">
<title>include/IO_Write.h</title>
<!-- Node1 -->
<g id="Node000001" class="node">
<title>Node1</title>
<g id="a_Node000001"><a xlink:title=" ">
<polygon fill="#999999" stroke="#666666" points="298,-74.5 201.75,-74.5 201.75,-55.25 298,-55.25 298,-74.5"/>
<text text-anchor="middle" x="249.88" y="-61" font-family="Helvetica,sans-Serif" font-size="10.00">include/IO_Write.h</text>
</a>
</g>
</g>
<!-- Node2 -->
<g id="Node000002" class="node">
<title>Node2</title>
<g id="a_Node000002"><a xlink:href="../../dd/d2a/_create___vtk___file_8cpp.html" target="_top" xlink:title=" ">
<polygon fill="white" stroke="#666666" points="121.75,-19.25 0,-19.25 0,0 121.75,0 121.75,-19.25"/>
<text text-anchor="middle" x="60.88" y="-5.75" font-family="Helvetica,sans-Serif" font-size="10.00">src/Create_Vtk_File.cpp</text>
</a>
</g>
</g>
<!-- Node1&#45;&gt;Node2 -->
<g id="edge1_Node000001_Node000002" class="edge">
<title>Node1&#45;&gt;Node2</title>
<g id="a_edge1_Node000001_Node000002"><a xlink:title=" ">
<path fill="none" stroke="#63b8ff" d="M207.09,-51.82C172.48,-42.07 124.51,-28.55 93.09,-19.7"/>
<polygon fill="#63b8ff" stroke="#63b8ff" points="205.78,-55.09 216.36,-54.43 207.68,-48.35 205.78,-55.09"/>
</a>
</g>
</g>
<!-- Node3 -->
<g id="Node000003" class="node">
<title>Node3</title>
<g id="a_Node000003"><a xlink:href="../../dc/dac/_dir___files_8cpp.html" target="_top" xlink:title=" ">
<polygon fill="white" stroke="#666666" points="230,-19.25 139.75,-19.25 139.75,0 230,0 230,-19.25"/>
<text text-anchor="middle" x="184.88" y="-5.75" font-family="Helvetica,sans-Serif" font-size="10.00">src/Dir_Files.cpp</text>
</a>
</g>
</g>
<!-- Node1&#45;&gt;Node3 -->
<g id="edge2_Node000001_Node000003" class="edge">
<title>Node1&#45;&gt;Node3</title>
<g id="a_edge2_Node000001_Node000003"><a xlink:title=" ">
<path fill="none" stroke="#63b8ff" d="M230.09,-47.66C218.8,-38.42 205.08,-27.18 195.74,-19.52"/>
<polygon fill="#63b8ff" stroke="#63b8ff" points="227.72,-50.25 237.68,-53.88 232.16,-44.84 227.72,-50.25"/>
</a>
</g>
</g>
<!-- Node4 -->
<g id="Node000004" class="node">
<title>Node4</title>
<g id="a_Node000004"><a xlink:href="../../d3/db8/_initialize___test_case_8cpp.html" target="_top" xlink:title=" ">
<polygon fill="white" stroke="#666666" points="382.12,-19.25 247.62,-19.25 247.62,0 382.12,0 382.12,-19.25"/>
<text text-anchor="middle" x="314.88" y="-5.75" font-family="Helvetica,sans-Serif" font-size="10.00">src/Initialize_TestCase.cpp</text>
</a>
</g>
</g>
<!-- Node1&#45;&gt;Node4 -->
<g id="edge3_Node000001_Node000004" class="edge">
<title>Node1&#45;&gt;Node4</title>
<g id="a_edge3_Node000001_Node000004"><a xlink:title=" ">
<path fill="none" stroke="#63b8ff" d="M269.66,-47.66C280.95,-38.42 294.67,-27.18 304.01,-19.52"/>
<polygon fill="#63b8ff" stroke="#63b8ff" points="267.59,-44.84 262.07,-53.88 272.03,-50.25 267.59,-44.84"/>
</a>
</g>
</g>
<!-- Node5 -->
<g id="Node000005" class="node">
<title>Node5</title>
<g id="a_Node000005"><a xlink:href="../../de/df0/_solver_8cpp.html" target="_top" xlink:title="This file contains the implementation of solvers for Euler equations and Navier&#45;Stokes equations.">
<polygon fill="white" stroke="#666666" points="478,-19.25 399.75,-19.25 399.75,0 478,0 478,-19.25"/>
<text text-anchor="middle" x="438.88" y="-5.75" font-family="Helvetica,sans-Serif" font-size="10.00">src/Solver.cpp</text>
</a>
</g>
</g>
<!-- Node1&#45;&gt;Node5 -->
<g id="edge4_Node000001_Node000005" class="edge">
<title>Node1&#45;&gt;Node5</title>
<g id="a_edge4_Node000001_Node000005"><a xlink:title=" ">
<path fill="none" stroke="#63b8ff" d="M292.66,-51.82C327.27,-42.07 375.24,-28.55 406.66,-19.7"/>
<polygon fill="#63b8ff" stroke="#63b8ff" points="292.07,-48.35 283.39,-54.43 293.97,-55.09 292.07,-48.35"/>
</a>
</g>
</g>
</g>
</svg>
