<?xml version="1.0" encoding="UTF-8" standalone="no"?>
<!DOCTYPE svg PUBLIC "-//W3C//DTD SVG 1.1//EN"
 "http://www.w3.org/Graphics/SVG/1.1/DTD/svg11.dtd">
<!-- Generated by graphviz version 12.2.1 (20241206.2353)
 -->
<!-- Title: Shock_Wedge_Reflection Pages: 1 -->
<svg width="695pt" height="331pt"
 viewBox="0.00 0.00 694.75 330.50" xmlns="http://www.w3.org/2000/svg" xmlns:xlink="http://www.w3.org/1999/xlink">
<g id="graph0" class="graph" transform="scale(1 1) rotate(0) translate(4 326.5)">
<title>Shock_Wedge_Reflection</title>
<!-- Node1 -->
<g id="Node000001" class="node">
<title>Node1</title>
<g id="a_Node000001"><a xlink:title=" ">
<polygon fill="#999999" stroke="#666666" points="128.5,-168.88 0,-168.88 0,-149.62 128.5,-149.62 128.5,-168.88"/>
<text text-anchor="middle" x="64.25" y="-155.38" font-family="Helvetica,sans-Serif" font-size="10.00">Shock_Wedge_Reflection</text>
</a>
</g>
</g>
<!-- Node2 -->
<g id="Node000002" class="node">
<title>Node2</title>
<g id="a_Node000002"><a xlink:href="../../df/d43/_basic___functions_8cpp_a9ca12fb8f920cab38313323cf0c4bf53.html#a9ca12fb8f920cab38313323cf0c4bf53" target="_top" xlink:title=" ">
<polygon fill="white" stroke="#666666" points="290,-322.5 164.5,-322.5 164.5,-292 290,-292 290,-322.5"/>
<text text-anchor="start" x="172.5" y="-309" font-family="Helvetica,sans-Serif" font-size="10.00">Calculate_Computational</text>
<text text-anchor="middle" x="227.25" y="-297.75" font-family="Helvetica,sans-Serif" font-size="10.00">_Variables</text>
</a>
</g>
</g>
<!-- Node1&#45;&gt;Node2 -->
<g id="edge1_Node000001_Node000002" class="edge">
<title>Node1&#45;&gt;Node2</title>
<g id="a_edge1_Node000001_Node000002"><a xlink:title=" ">
<path fill="none" stroke="#63b8ff" d="M70.89,-169.29C84.28,-192.3 120.21,-249.39 164.5,-282.25 166.28,-283.57 168.13,-284.83 170.05,-286.03"/>
<polygon fill="#63b8ff" stroke="#63b8ff" points="168.23,-289.03 178.67,-290.85 171.65,-282.92 168.23,-289.03"/>
</a>
</g>
</g>
<!-- Node3 -->
<g id="Node000003" class="node">
<title>Node3</title>
<g id="a_Node000003"><a xlink:href="../../df/d43/_basic___functions_8cpp_a1c199e756f8458978961b4d9ab4cbe63.html#a1c199e756f8458978961b4d9ab4cbe63" target="_top" xlink:title=" ">
<polygon fill="white" stroke="#666666" points="277.62,-273.5 176.88,-273.5 176.88,-243 277.62,-243 277.62,-273.5"/>
<text text-anchor="start" x="184.88" y="-260" font-family="Helvetica,sans-Serif" font-size="10.00">Calculate_Primitive</text>
<text text-anchor="middle" x="227.25" y="-248.75" font-family="Helvetica,sans-Serif" font-size="10.00">_Variables</text>
</a>
</g>
</g>
<!-- Node1&#45;&gt;Node3 -->
<g id="edge2_Node000001_Node000003" class="edge">
<title>Node1&#45;&gt;Node3</title>
<g id="a_edge2_Node000001_Node000003"><a xlink:title=" ">
<path fill="none" stroke="#63b8ff" d="M76.44,-169.37C94.1,-184.94 129.99,-214.99 164.5,-234.25 166.66,-235.46 168.9,-236.63 171.18,-237.77"/>
<polygon fill="#63b8ff" stroke="#63b8ff" points="169.47,-240.83 180.01,-241.87 172.42,-234.48 169.47,-240.83"/>
</a>
</g>
</g>
<!-- Node5 -->
<g id="Node000005" class="node">
<title>Node5</title>
<g id="a_Node000005"><a xlink:href="../../da/d3e/output__files_8cpp_ac7e61b153a6d26ffbefde7b5b86d55a7.html#ac7e61b153a6d26ffbefde7b5b86d55a7" target="_top" xlink:title=" ">
<polygon fill="white" stroke="#666666" points="270.88,-224.88 183.62,-224.88 183.62,-205.62 270.88,-205.62 270.88,-224.88"/>
<text text-anchor="middle" x="227.25" y="-211.38" font-family="Helvetica,sans-Serif" font-size="10.00">Directory_Name</text>
</a>
</g>
</g>
<!-- Node1&#45;&gt;Node5 -->
<g id="edge4_Node000001_Node000005" class="edge">
<title>Node1&#45;&gt;Node5</title>
<g id="a_edge4_Node000001_Node000005"><a xlink:title=" ">
<path fill="none" stroke="#63b8ff" d="M89.93,-169.35C109.88,-177.35 138.79,-188.6 164.5,-197.25 169.21,-198.84 174.15,-200.41 179.1,-201.94"/>
<polygon fill="#63b8ff" stroke="#63b8ff" points="177.82,-205.21 188.4,-204.74 179.84,-198.51 177.82,-205.21"/>
</a>
</g>
</g>
<!-- Node6 -->
<g id="Node000006" class="node">
<title>Node6</title>
<g id="a_Node000006"><a xlink:href="../../da/d3e/output__files_8cpp_a2a6bf38afe949ce5a6cd1b3641c49c25.html#a2a6bf38afe949ce5a6cd1b3641c49c25" target="_top" xlink:title=" ">
<polygon fill="white" stroke="#666666" points="258.88,-187.88 195.62,-187.88 195.62,-168.62 258.88,-168.62 258.88,-187.88"/>
<text text-anchor="middle" x="227.25" y="-174.38" font-family="Helvetica,sans-Serif" font-size="10.00">File_Name</text>
</a>
</g>
</g>
<!-- Node1&#45;&gt;Node6 -->
<g id="edge5_Node000001_Node000006" class="edge">
<title>Node1&#45;&gt;Node6</title>
<g id="a_edge5_Node000001_Node000006"><a xlink:title=" ">
<path fill="none" stroke="#63b8ff" d="M128.88,-166.76C147.45,-168.95 167.27,-171.29 184.15,-173.28"/>
<polygon fill="#63b8ff" stroke="#63b8ff" points="183.47,-176.73 193.81,-174.42 184.29,-169.77 183.47,-176.73"/>
</a>
</g>
</g>
<!-- Node7 -->
<g id="Node000007" class="node">
<title>Node7</title>
<g id="a_Node000007"><a xlink:href="../../d8/d40/_grid___computations_8cpp_a831dcf7cbf36ddf425ce0753495ba3c6.html#a831dcf7cbf36ddf425ce0753495ba3c6" target="_top" xlink:title=" ">
<polygon fill="white" stroke="#666666" points="260.38,-150.88 194.12,-150.88 194.12,-131.62 260.38,-131.62 260.38,-150.88"/>
<text text-anchor="middle" x="227.25" y="-137.38" font-family="Helvetica,sans-Serif" font-size="10.00">Form_Cells</text>
</a>
</g>
</g>
<!-- Node1&#45;&gt;Node7 -->
<g id="edge6_Node000001_Node000007" class="edge">
<title>Node1&#45;&gt;Node7</title>
<g id="a_edge6_Node000001_Node000007"><a xlink:title=" ">
<path fill="none" stroke="#63b8ff" d="M128.88,-152.14C147.02,-150.11 166.36,-147.95 182.98,-146.09"/>
<polygon fill="#63b8ff" stroke="#63b8ff" points="182.95,-149.61 192.5,-145.02 182.17,-142.66 182.95,-149.61"/>
</a>
</g>
</g>
<!-- Node19 -->
<g id="Node000019" class="node">
<title>Node19</title>
<g id="a_Node000019"><a xlink:href="../../d7/d6d/_initialize_8cpp_ad59ff1b23c73f6427e8179ce53ee1f59.html#ad59ff1b23c73f6427e8179ce53ee1f59" target="_top" xlink:title=" ">
<polygon fill="white" stroke="#666666" points="286.62,-113.5 167.88,-113.5 167.88,-83 286.62,-83 286.62,-113.5"/>
<text text-anchor="start" x="175.88" y="-100" font-family="Helvetica,sans-Serif" font-size="10.00">Identify_Wall_Boundary</text>
<text text-anchor="middle" x="227.25" y="-88.75" font-family="Helvetica,sans-Serif" font-size="10.00">_Faces</text>
</a>
</g>
</g>
<!-- Node1&#45;&gt;Node19 -->
<g id="edge20_Node000001_Node000019" class="edge">
<title>Node1&#45;&gt;Node19</title>
<g id="a_edge20_Node000001_Node000019"><a xlink:title=" ">
<path fill="none" stroke="#63b8ff" d="M91.84,-149.18C114.15,-140.72 146.69,-128.39 174.17,-117.98"/>
<polygon fill="#63b8ff" stroke="#63b8ff" points="175.28,-121.31 183.39,-114.49 172.8,-114.76 175.28,-121.31"/>
</a>
</g>
</g>
<!-- Node20 -->
<g id="Node000020" class="node">
<title>Node20</title>
<g id="a_Node000020"><a xlink:href="../../d7/d6d/_initialize_8cpp_acc3c3292e370176c51c654a01e651e24.html#acc3c3292e370176c51c654a01e651e24" target="_top" xlink:title=" ">
<polygon fill="white" stroke="#666666" points="253.25,-64.88 201.25,-64.88 201.25,-45.62 253.25,-45.62 253.25,-64.88"/>
<text text-anchor="middle" x="227.25" y="-51.38" font-family="Helvetica,sans-Serif" font-size="10.00">Initialize</text>
</a>
</g>
</g>
<!-- Node1&#45;&gt;Node20 -->
<g id="edge21_Node000001_Node000020" class="edge">
<title>Node1&#45;&gt;Node20</title>
<g id="a_edge21_Node000001_Node000020"><a xlink:title=" ">
<path fill="none" stroke="#63b8ff" d="M74.11,-149.36C90.36,-131.79 126.74,-95.04 164.5,-74.25 172.36,-69.92 181.33,-66.45 189.95,-63.71"/>
<polygon fill="#63b8ff" stroke="#63b8ff" points="190.88,-67.09 199.52,-60.95 188.94,-60.36 190.88,-67.09"/>
</a>
</g>
</g>
<!-- Node22 -->
<g id="Node000022" class="node">
<title>Node22</title>
<g id="a_Node000022"><a xlink:href="../../da/d3e/output__files_8cpp_ac49d22b87cab7fa46da37546b7af78b0.html#ac49d22b87cab7fa46da37546b7af78b0" target="_top" xlink:title=" ">
<polygon fill="white" stroke="#666666" points="266.75,-27.88 187.75,-27.88 187.75,-8.62 266.75,-8.62 266.75,-27.88"/>
<text text-anchor="middle" x="227.25" y="-14.38" font-family="Helvetica,sans-Serif" font-size="10.00">Write_Solution</text>
</a>
</g>
</g>
<!-- Node1&#45;&gt;Node22 -->
<g id="edge23_Node000001_Node000022" class="edge">
<title>Node1&#45;&gt;Node22</title>
<g id="a_edge23_Node000001_Node000022"><a xlink:title=" ">
<path fill="none" stroke="#63b8ff" d="M70.48,-149.24C83.25,-125.8 118.37,-66.98 164.5,-36.25 168.37,-33.67 172.61,-31.46 177,-29.56"/>
<polygon fill="#63b8ff" stroke="#63b8ff" points="177.86,-32.97 186.01,-26.19 175.41,-26.41 177.86,-32.97"/>
</a>
</g>
</g>
<!-- Node4 -->
<g id="Node000004" class="node">
<title>Node4</title>
<g id="a_Node000004"><a xlink:href="../../db/d81/_viscous___calculations_8cpp_ae9dc3225863fb110155bb3e9dea4e4d3.html#ae9dc3225863fb110155bb3e9dea4e4d3" target="_top" xlink:title=" ">
<polygon fill="white" stroke="#666666" points="414.75,-267.88 358.25,-267.88 358.25,-248.62 414.75,-248.62 414.75,-267.88"/>
<text text-anchor="middle" x="386.5" y="-254.38" font-family="Helvetica,sans-Serif" font-size="10.00">Viscosity</text>
</a>
</g>
</g>
<!-- Node3&#45;&gt;Node4 -->
<g id="edge3_Node000003_Node000004" class="edge">
<title>Node3&#45;&gt;Node4</title>
<g id="a_edge3_Node000003_Node000004"><a xlink:title=" ">
<path fill="none" stroke="#63b8ff" d="M278,-258.25C300.22,-258.25 326.01,-258.25 346.76,-258.25"/>
<polygon fill="#63b8ff" stroke="#63b8ff" points="346.51,-261.75 356.51,-258.25 346.51,-254.75 346.51,-261.75"/>
</a>
</g>
</g>
<!-- Node8 -->
<g id="Node000008" class="node">
<title>Node8</title>
<g id="a_Node000008"><a xlink:href="../../d8/d40/_grid___computations_8cpp_a7e6f11445e90cefdcb91f369846ec691.html#a7e6f11445e90cefdcb91f369846ec691" target="_top" xlink:title=" ">
<polygon fill="white" stroke="#666666" points="443.62,-116.5 329.38,-116.5 329.38,-86 443.62,-86 443.62,-116.5"/>
<text text-anchor="start" x="337.38" y="-103" font-family="Helvetica,sans-Serif" font-size="10.00">Calculate_Cell_Center</text>
<text text-anchor="middle" x="386.5" y="-91.75" font-family="Helvetica,sans-Serif" font-size="10.00">_Distances</text>
</a>
</g>
</g>
<!-- Node7&#45;&gt;Node8 -->
<g id="edge7_Node000007_Node000008" class="edge">
<title>Node7&#45;&gt;Node8</title>
<g id="a_edge7_Node000007_Node000008"><a xlink:title=" ">
<path fill="none" stroke="#63b8ff" d="M260.83,-132.96C277.46,-128.73 298.32,-123.43 318.19,-118.37"/>
<polygon fill="#63b8ff" stroke="#63b8ff" points="318.81,-121.83 327.64,-115.97 317.08,-115.04 318.81,-121.83"/>
</a>
</g>
</g>
<!-- Node11 -->
<g id="Node000011" class="node">
<title>Node11</title>
<g id="a_Node000011"><a xlink:href="../../d8/d40/_grid___computations_8cpp_a209db16fba143a9833c8d4021624afb0.html#a209db16fba143a9833c8d4021624afb0" target="_top" xlink:title=" ">
<polygon fill="white" stroke="#666666" points="584.88,-153.88 512.62,-153.88 512.62,-134.62 584.88,-134.62 584.88,-153.88"/>
<text text-anchor="middle" x="548.75" y="-140.38" font-family="Helvetica,sans-Serif" font-size="10.00">Check_Cells</text>
</a>
</g>
</g>
<!-- Node7&#45;&gt;Node11 -->
<g id="edge10_Node000007_Node000011" class="edge">
<title>Node7&#45;&gt;Node11</title>
<g id="a_edge10_Node000007_Node000011"><a xlink:title=" ">
<path fill="none" stroke="#63b8ff" d="M260.64,-141.55C317.51,-142.09 435.49,-143.2 501.13,-143.81"/>
<polygon fill="#63b8ff" stroke="#63b8ff" points="500.82,-147.31 510.85,-143.9 500.88,-140.31 500.82,-147.31"/>
</a>
</g>
</g>
<!-- Node12 -->
<g id="Node000012" class="node">
<title>Node12</title>
<g id="a_Node000012"><a xlink:href="../../df/daf/_co___volume___grid___computations_8cpp_a097cceef075e862683dd9f6e95d091d4.html#a097cceef075e862683dd9f6e95d091d4" target="_top" xlink:title=" ">
<polygon fill="white" stroke="#666666" points="446.62,-67.88 326.38,-67.88 326.38,-48.62 446.62,-48.62 446.62,-67.88"/>
<text text-anchor="middle" x="386.5" y="-54.38" font-family="Helvetica,sans-Serif" font-size="10.00">Construct_Co_Volumes</text>
</a>
</g>
</g>
<!-- Node7&#45;&gt;Node12 -->
<g id="edge11_Node000007_Node000012" class="edge">
<title>Node7&#45;&gt;Node12</title>
<g id="a_edge11_Node000007_Node000012"><a xlink:title=" ">
<path fill="none" stroke="#63b8ff" d="M260.66,-135.18C270.64,-132.32 281.28,-128.18 290,-122.25 311.18,-107.85 304.9,-91.77 326,-77.25 328.19,-75.75 330.5,-74.36 332.89,-73.07"/>
<polygon fill="#63b8ff" stroke="#63b8ff" points="334.09,-76.37 341.7,-69 331.16,-70.02 334.09,-76.37"/>
</a>
</g>
</g>
<!-- Node15 -->
<g id="Node000015" class="node">
<title>Node15</title>
<g id="a_Node000015"><a xlink:href="../../d8/d40/_grid___computations_8cpp_ae5f2b7a0fdbc48f8fdf897222b7ded04.html#ae5f2b7a0fdbc48f8fdf897222b7ded04" target="_top" xlink:title=" ">
<polygon fill="white" stroke="#666666" points="445.5,-228.88 327.5,-228.88 327.5,-209.62 445.5,-209.62 445.5,-228.88"/>
<text text-anchor="middle" x="386.5" y="-215.38" font-family="Helvetica,sans-Serif" font-size="10.00">Construct_Ghost_Cells</text>
</a>
</g>
</g>
<!-- Node7&#45;&gt;Node15 -->
<g id="edge14_Node000007_Node000015" class="edge">
<title>Node7&#45;&gt;Node15</title>
<g id="a_edge14_Node000007_Node000015"><a xlink:title=" ">
<path fill="none" stroke="#63b8ff" d="M260.86,-147C270.74,-149.71 281.27,-153.62 290,-159.25 310.66,-172.58 305.41,-187.82 326,-201.25 327.8,-202.42 329.67,-203.52 331.61,-204.55"/>
<polygon fill="#63b8ff" stroke="#63b8ff" points="329.71,-207.53 340.26,-208.51 332.62,-201.16 329.71,-207.53"/>
</a>
</g>
</g>
<!-- Node17 -->
<g id="Node000017" class="node">
<title>Node17</title>
<g id="a_Node000017"><a xlink:href="../../d8/d40/_grid___computations_8cpp_a663d4b3ae06e638c2f2e82ad437e831e.html#a663d4b3ae06e638c2f2e82ad437e831e" target="_top" xlink:title="Reads the input grid file and constructs physical cells, evaluates face areas, normals,...">
<polygon fill="white" stroke="#666666" points="417.75,-191.88 355.25,-191.88 355.25,-172.62 417.75,-172.62 417.75,-191.88"/>
<text text-anchor="middle" x="386.5" y="-178.38" font-family="Helvetica,sans-Serif" font-size="10.00">Read_Grid</text>
</a>
</g>
</g>
<!-- Node7&#45;&gt;Node17 -->
<g id="edge16_Node000007_Node000017" class="edge">
<title>Node7&#45;&gt;Node17</title>
<g id="a_edge16_Node000007_Node000017"><a xlink:title=" ">
<path fill="none" stroke="#63b8ff" d="M260.83,-149.75C284.89,-156.02 317.83,-164.61 343.81,-171.38"/>
<polygon fill="#63b8ff" stroke="#63b8ff" points="342.81,-174.74 353.36,-173.87 344.57,-167.96 342.81,-174.74"/>
</a>
</g>
</g>
<!-- Node9 -->
<g id="Node000009" class="node">
<title>Node9</title>
<g id="a_Node000009"><a xlink:href="../../d8/d40/_grid___computations_8cpp_a1f273579608200866e02e34f16a3eb6b.html#a1f273579608200866e02e34f16a3eb6b" target="_top" xlink:title=" ">
<polygon fill="white" stroke="#666666" points="614.5,-110.88 483,-110.88 483,-91.62 614.5,-91.62 614.5,-110.88"/>
<text text-anchor="middle" x="548.75" y="-97.38" font-family="Helvetica,sans-Serif" font-size="10.00">Distance_Between_Points</text>
</a>
</g>
</g>
<!-- Node8&#45;&gt;Node9 -->
<g id="edge8_Node000008_Node000009" class="edge">
<title>Node8&#45;&gt;Node9</title>
<g id="a_edge8_Node000008_Node000009"><a xlink:title=" ">
<path fill="none" stroke="#63b8ff" d="M444,-101.25C452.9,-101.25 462.24,-101.25 471.5,-101.25"/>
<polygon fill="#63b8ff" stroke="#63b8ff" points="471.22,-104.75 481.22,-101.25 471.22,-97.75 471.22,-104.75"/>
</a>
</g>
</g>
<!-- Node10 -->
<g id="Node000010" class="node">
<title>Node10</title>
<g id="a_Node000010"><a xlink:href="../../dc/d3a/src_2_utility___files_8cpp_abf34e0b480f7580b0cd4237a76aed670.html#abf34e0b480f7580b0cd4237a76aed670" target="_top" xlink:title=" ">
<polygon fill="white" stroke="#666666" points="686.75,-110.88 650.5,-110.88 650.5,-91.62 686.75,-91.62 686.75,-110.88"/>
<text text-anchor="middle" x="668.62" y="-97.38" font-family="Helvetica,sans-Serif" font-size="10.00">Print</text>
</a>
</g>
</g>
<!-- Node9&#45;&gt;Node10 -->
<g id="edge9_Node000009_Node000010" class="edge">
<title>Node9&#45;&gt;Node10</title>
<g id="a_edge9_Node000009_Node000010"><a xlink:title=" ">
<path fill="none" stroke="#63b8ff" d="M614.89,-101.25C623.22,-101.25 631.37,-101.25 638.69,-101.25"/>
<polygon fill="#63b8ff" stroke="#63b8ff" points="638.57,-104.75 648.57,-101.25 638.57,-97.75 638.57,-104.75"/>
</a>
</g>
</g>
<!-- Node13 -->
<g id="Node000013" class="node">
<title>Node13</title>
<g id="a_Node000013"><a xlink:href="../../d8/d40/_grid___computations_8cpp_a0d19b951f556ac7a935819a38d2e1a6f.html#a0d19b951f556ac7a935819a38d2e1a6f" target="_top" xlink:title=" ">
<polygon fill="white" stroke="#666666" points="591.62,-70.88 505.88,-70.88 505.88,-51.62 591.62,-51.62 591.62,-70.88"/>
<text text-anchor="middle" x="548.75" y="-57.38" font-family="Helvetica,sans-Serif" font-size="10.00">Construct_Face</text>
</a>
</g>
</g>
<!-- Node12&#45;&gt;Node13 -->
<g id="edge12_Node000012_Node000013" class="edge">
<title>Node12&#45;&gt;Node13</title>
<g id="a_edge12_Node000012_Node000013"><a xlink:title=" ">
<path fill="none" stroke="#63b8ff" d="M446.72,-59.36C462.35,-59.65 479.12,-59.97 494.42,-60.25"/>
<polygon fill="#63b8ff" stroke="#63b8ff" points="494.21,-63.75 504.27,-60.44 494.34,-56.75 494.21,-63.75"/>
</a>
</g>
</g>
<!-- Node14 -->
<g id="Node000014" class="node">
<title>Node14</title>
<g id="a_Node000014"><a xlink:href="../../d8/d40/_grid___computations_8cpp_a29418163b6fbd0aa81c60026e430d0b8.html#a29418163b6fbd0aa81c60026e430d0b8" target="_top" xlink:title=" ">
<polygon fill="white" stroke="#666666" points="611.12,-33.88 486.38,-33.88 486.38,-14.62 611.12,-14.62 611.12,-33.88"/>
<text text-anchor="middle" x="548.75" y="-20.38" font-family="Helvetica,sans-Serif" font-size="10.00">Evaluate_Cross_Product</text>
</a>
</g>
</g>
<!-- Node12&#45;&gt;Node14 -->
<g id="edge13_Node000012_Node000014" class="edge">
<title>Node12&#45;&gt;Node14</title>
<g id="a_edge13_Node000012_Node000014"><a xlink:title=" ">
<path fill="none" stroke="#63b8ff" d="M435.15,-48.14C452.1,-44.54 471.4,-40.45 489.17,-36.68"/>
<polygon fill="#63b8ff" stroke="#63b8ff" points="489.75,-40.13 498.81,-34.63 488.3,-33.29 489.75,-40.13"/>
</a>
</g>
</g>
<!-- Node16 -->
<g id="Node000016" class="node">
<title>Node16</title>
<g id="a_Node000016"><a xlink:href="../../d8/d40/_grid___computations_8cpp_a2d284e26ddef582519953e8b8300184e.html#a2d284e26ddef582519953e8b8300184e" target="_top" xlink:title=" ">
<polygon fill="white" stroke="#666666" points="589.38,-228.88 508.12,-228.88 508.12,-209.62 589.38,-209.62 589.38,-228.88"/>
<text text-anchor="middle" x="548.75" y="-215.38" font-family="Helvetica,sans-Serif" font-size="10.00">Construct_Cell</text>
</a>
</g>
</g>
<!-- Node15&#45;&gt;Node16 -->
<g id="edge15_Node000015_Node000016" class="edge">
<title>Node15&#45;&gt;Node16</title>
<g id="a_edge15_Node000015_Node000016"><a xlink:title=" ">
<path fill="none" stroke="#63b8ff" d="M445.81,-219.25C462.37,-219.25 480.28,-219.25 496.4,-219.25"/>
<polygon fill="#63b8ff" stroke="#63b8ff" points="496.26,-222.75 506.26,-219.25 496.26,-215.75 496.26,-222.75"/>
</a>
</g>
</g>
<!-- Node17&#45;&gt;Node11 -->
<g id="edge17_Node000017_Node000011" class="edge">
<title>Node17&#45;&gt;Node11</title>
<g id="a_edge17_Node000017_Node000011"><a xlink:title=" ">
<path fill="none" stroke="#63b8ff" d="M418.02,-175.01C441.54,-169.44 474.46,-161.63 501.25,-155.28"/>
<polygon fill="#63b8ff" stroke="#63b8ff" points="501.92,-158.71 510.84,-153 500.31,-151.9 501.92,-158.71"/>
</a>
</g>
</g>
<!-- Node17&#45;&gt;Node16 -->
<g id="edge18_Node000017_Node000016" class="edge">
<title>Node17&#45;&gt;Node16</title>
<g id="a_edge18_Node000017_Node000016"><a xlink:title=" ">
<path fill="none" stroke="#63b8ff" d="M418.02,-189.3C440.17,-194.41 470.66,-201.45 496.51,-207.42"/>
<polygon fill="#63b8ff" stroke="#63b8ff" points="495.64,-210.81 506.17,-209.65 497.21,-203.99 495.64,-210.81"/>
</a>
</g>
</g>
<!-- Node18 -->
<g id="Node000018" class="node">
<title>Node18</title>
<g id="a_Node000018"><a xlink:href="../../d8/d40/_grid___computations_8cpp_aa376223dcb91990013ac6549090115ea.html#aa376223dcb91990013ac6549090115ea" target="_top" xlink:title=" ">
<polygon fill="white" stroke="#666666" points="598,-191.88 499.5,-191.88 499.5,-172.62 598,-172.62 598,-191.88"/>
<text text-anchor="middle" x="548.75" y="-178.38" font-family="Helvetica,sans-Serif" font-size="10.00">Conversion_Factor</text>
</a>
</g>
</g>
<!-- Node17&#45;&gt;Node18 -->
<g id="edge19_Node000017_Node000018" class="edge">
<title>Node17&#45;&gt;Node18</title>
<g id="a_edge19_Node000017_Node000018"><a xlink:title=" ">
<path fill="none" stroke="#63b8ff" d="M418.02,-182.25C437.69,-182.25 463.92,-182.25 487.66,-182.25"/>
<polygon fill="#63b8ff" stroke="#63b8ff" points="487.55,-185.75 497.55,-182.25 487.55,-178.75 487.55,-185.75"/>
</a>
</g>
</g>
<!-- Node21 -->
<g id="Node000021" class="node">
<title>Node21</title>
<g id="a_Node000021"><a xlink:href="../../d4/d5d/_grid___refine___functions_8cpp_add867401ba6818c3d6480ec342cb0eaa.html#add867401ba6818c3d6480ec342cb0eaa" target="_top" xlink:title="Identifies the secondary neighbors of a given cell to evaluate second gradients.">
<polygon fill="white" stroke="#666666" points="447,-30.5 326,-30.5 326,0 447,0 447,-30.5"/>
<text text-anchor="start" x="334" y="-17" font-family="Helvetica,sans-Serif" font-size="10.00">Identify_Neighbours</text>
<text text-anchor="middle" x="386.5" y="-5.75" font-family="Helvetica,sans-Serif" font-size="10.00">_For_Second_Gradients</text>
</a>
</g>
</g>
<!-- Node20&#45;&gt;Node21 -->
<g id="edge22_Node000020_Node000021" class="edge">
<title>Node20&#45;&gt;Node21</title>
<g id="a_edge22_Node000020_Node000021"><a xlink:title=" ">
<path fill="none" stroke="#63b8ff" d="M253.51,-48.82C270.15,-44.59 292.82,-38.82 314.68,-33.26"/>
<polygon fill="#63b8ff" stroke="#63b8ff" points="315.36,-36.7 324.19,-30.85 313.64,-29.92 315.36,-36.7"/>
</a>
</g>
</g>
</g>
</svg>
