<?xml version="1.0" encoding="UTF-8" standalone="no"?>
<!DOCTYPE svg PUBLIC "-//W3C//DTD SVG 1.1//EN"
 "http://www.w3.org/Graphics/SVG/1.1/DTD/svg11.dtd">
<!-- Generated by graphviz version 12.2.1 (20241206.2353)
 -->
<!-- Title: Incompressible_Solver/Incompressible_Utilities.cpp Pages: 1 -->
<svg width="1443pt" height="204pt"
 viewBox="0.00 0.00 1443.25 204.25" xmlns="http://www.w3.org/2000/svg" xmlns:xlink="http://www.w3.org/1999/xlink">
<g id="graph0" class="graph" transform="scale(1 1) rotate(0) translate(4 200.25)">
<title>Incompressible_Solver/Incompressible_Utilities.cpp</title>
<!-- Node1 -->
<g id="Node000001" class="node">
<title>Node1</title>
<g id="a_Node000001"><a xlink:title=" ">
<polygon fill="#999999" stroke="#666666" points="826.75,-196.25 684.75,-196.25 684.75,-165.75 826.75,-165.75 826.75,-196.25"/>
<text text-anchor="start" x="692.75" y="-182.75" font-family="Helvetica,sans-Serif" font-size="10.00">Incompressible_Solver</text>
<text text-anchor="middle" x="755.75" y="-171.5" font-family="Helvetica,sans-Serif" font-size="10.00">/Incompressible_Utilities.cpp</text>
</a>
</g>
</g>
<!-- Node2 -->
<g id="Node000002" class="node">
<title>Node2</title>
<g id="a_Node000002"><a xlink:href="../../d0/d9b/_incompressible___solver_8h.html" target="_top" xlink:title="Header file for cell&#45;centered staggered grid based incompressible solver using finite volume method.">
<polygon fill="white" stroke="#666666" points="817,-129.75 694.5,-129.75 694.5,-110.5 817,-110.5 817,-129.75"/>
<text text-anchor="middle" x="755.75" y="-116.25" font-family="Helvetica,sans-Serif" font-size="10.00">Incompressible_Solver.h</text>
</a>
</g>
</g>
<!-- Node1&#45;&gt;Node2 -->
<g id="edge1_Node000001_Node000002" class="edge">
<title>Node1&#45;&gt;Node2</title>
<g id="a_edge1_Node000001_Node000002"><a xlink:title=" ">
<path fill="none" stroke="#63b8ff" d="M755.75,-165.45C755.75,-158.21 755.75,-149.34 755.75,-141.44"/>
<polygon fill="#63b8ff" stroke="#63b8ff" points="759.25,-141.71 755.75,-131.71 752.25,-141.71 759.25,-141.71"/>
</a>
</g>
</g>
<!-- Node4 -->
<g id="Node000004" class="node">
<title>Node4</title>
<g id="a_Node000004"><a xlink:title=" ">
<polygon fill="#e0e0e0" stroke="#999999" points="53.5,-19.25 0,-19.25 0,0 53.5,0 53.5,-19.25"/>
<text text-anchor="middle" x="26.75" y="-5.75" font-family="Helvetica,sans-Serif" font-size="10.00">iostream</text>
</a>
</g>
</g>
<!-- Node1&#45;&gt;Node4 -->
<g id="edge29_Node000001_Node000004" class="edge">
<title>Node1&#45;&gt;Node4</title>
<g id="a_edge29_Node000001_Node000004"><a xlink:title=" ">
<path fill="none" stroke="#63b8ff" d="M684.39,-167.84C630.47,-158.34 554.72,-144.34 488.75,-129.75 391.58,-108.26 368.12,-99.33 271.75,-74.5 198.45,-55.61 112.91,-33.24 64.76,-20.61"/>
<polygon fill="#63b8ff" stroke="#63b8ff" points="65.95,-17.3 55.39,-18.15 64.18,-24.07 65.95,-17.3"/>
</a>
</g>
</g>
<!-- Node5 -->
<g id="Node000005" class="node">
<title>Node5</title>
<g id="a_Node000005"><a xlink:title=" ">
<polygon fill="#e0e0e0" stroke="#999999" points="120.25,-19.25 71.25,-19.25 71.25,0 120.25,0 120.25,-19.25"/>
<text text-anchor="middle" x="95.75" y="-5.75" font-family="Helvetica,sans-Serif" font-size="10.00">fstream</text>
</a>
</g>
</g>
<!-- Node1&#45;&gt;Node5 -->
<g id="edge28_Node000001_Node000005" class="edge">
<title>Node1&#45;&gt;Node5</title>
<g id="a_edge28_Node000001_Node000005"><a xlink:title=" ">
<path fill="none" stroke="#63b8ff" d="M698.24,-165.35C589.65,-137.67 346.68,-75.64 131.49,-19.95"/>
<polygon fill="#63b8ff" stroke="#63b8ff" points="132.64,-16.63 122.08,-17.52 130.88,-23.41 132.64,-16.63"/>
</a>
</g>
</g>
<!-- Node8 -->
<g id="Node000008" class="node">
<title>Node8</title>
<g id="a_Node000008"><a xlink:title=" ">
<polygon fill="#e0e0e0" stroke="#999999" points="1435.25,-19.25 1392.25,-19.25 1392.25,0 1435.25,0 1435.25,-19.25"/>
<text text-anchor="middle" x="1413.75" y="-5.75" font-family="Helvetica,sans-Serif" font-size="10.00">cmath</text>
</a>
</g>
</g>
<!-- Node1&#45;&gt;Node8 -->
<g id="edge30_Node000001_Node000008" class="edge">
<title>Node1&#45;&gt;Node8</title>
<g id="a_edge30_Node000001_Node000008"><a xlink:title=" ">
<path fill="none" stroke="#63b8ff" d="M782.32,-165.26C811.69,-149.54 860.81,-124.97 905.75,-110.5 1107.7,-45.49 1170.46,-67.7 1380.69,-19.55"/>
<polygon fill="#63b8ff" stroke="#63b8ff" points="1381.37,-22.99 1390.32,-17.32 1379.79,-16.17 1381.37,-22.99"/>
</a>
</g>
</g>
<!-- Node26 -->
<g id="Node000026" class="node">
<title>Node26</title>
<g id="a_Node000026"><a xlink:title=" ">
<polygon fill="#e0e0e0" stroke="#999999" points="978.38,-129.75 915.12,-129.75 915.12,-110.5 978.38,-110.5 978.38,-129.75"/>
<text text-anchor="middle" x="946.75" y="-116.25" font-family="Helvetica,sans-Serif" font-size="10.00">json/json.h</text>
</a>
</g>
</g>
<!-- Node1&#45;&gt;Node26 -->
<g id="edge27_Node000001_Node000026" class="edge">
<title>Node1&#45;&gt;Node26</title>
<g id="a_edge27_Node000001_Node000026"><a xlink:title=" ">
<path fill="none" stroke="#63b8ff" d="M803.45,-165.3C835.1,-155.54 876.18,-142.88 906.24,-133.61"/>
<polygon fill="#63b8ff" stroke="#63b8ff" points="907.21,-136.98 915.73,-130.69 905.14,-130.29 907.21,-136.98"/>
</a>
</g>
</g>
<!-- Node3 -->
<g id="Node000003" class="node">
<title>Node3</title>
<g id="a_Node000003"><a xlink:href="../../d6/dc2/definitions_8h.html" target="_top" xlink:title="Header file containing global constants, structures, and function declarations for the solver.">
<polygon fill="white" stroke="#666666" points="751,-74.5 682.5,-74.5 682.5,-55.25 751,-55.25 751,-74.5"/>
<text text-anchor="middle" x="716.75" y="-61" font-family="Helvetica,sans-Serif" font-size="10.00">definitions.h</text>
</a>
</g>
</g>
<!-- Node2&#45;&gt;Node3 -->
<g id="edge2_Node000002_Node000003" class="edge">
<title>Node2&#45;&gt;Node3</title>
<g id="a_edge2_Node000002_Node000003"><a xlink:title=" ">
<path fill="none" stroke="#63b8ff" d="M749.31,-110.33C744.09,-103.21 736.56,-92.93 730.06,-84.05"/>
<polygon fill="#63b8ff" stroke="#63b8ff" points="732.96,-82.08 724.22,-76.08 727.31,-86.22 732.96,-82.08"/>
</a>
</g>
</g>
<!-- Node6 -->
<g id="Node000006" class="node">
<title>Node6</title>
<g id="a_Node000006"><a xlink:title=" ">
<polygon fill="#e0e0e0" stroke="#999999" points="181.25,-19.25 138.25,-19.25 138.25,0 181.25,0 181.25,-19.25"/>
<text text-anchor="middle" x="159.75" y="-5.75" font-family="Helvetica,sans-Serif" font-size="10.00">vector</text>
</a>
</g>
</g>
<!-- Node2&#45;&gt;Node6 -->
<g id="edge24_Node000002_Node000006" class="edge">
<title>Node2&#45;&gt;Node6</title>
<g id="a_edge24_Node000002_Node000006"><a xlink:title=" ">
<path fill="none" stroke="#63b8ff" d="M713.29,-110.05C651.65,-97.03 533.72,-72.7 432.75,-55.25 328.74,-37.27 298.44,-42.03 192.78,-19.68"/>
<polygon fill="#63b8ff" stroke="#63b8ff" points="193.61,-16.28 183.1,-17.59 192.14,-23.12 193.61,-16.28"/>
</a>
</g>
</g>
<!-- Node7 -->
<g id="Node000007" class="node">
<title>Node7</title>
<g id="a_Node000007"><a xlink:title=" ">
<polygon fill="#e0e0e0" stroke="#999999" points="1373.75,-19.25 1333.75,-19.25 1333.75,0 1373.75,0 1373.75,-19.25"/>
<text text-anchor="middle" x="1353.75" y="-5.75" font-family="Helvetica,sans-Serif" font-size="10.00">string</text>
</a>
</g>
</g>
<!-- Node2&#45;&gt;Node7 -->
<g id="edge25_Node000002_Node000007" class="edge">
<title>Node2&#45;&gt;Node7</title>
<g id="a_edge25_Node000002_Node000007"><a xlink:title=" ">
<path fill="none" stroke="#63b8ff" d="M770.45,-110.08C796.87,-94.01 851.57,-61.56 872.75,-55.25 1062.39,1.26 1124.4,-54.1 1322.23,-19.3"/>
<polygon fill="#63b8ff" stroke="#63b8ff" points="1322.58,-22.8 1331.8,-17.56 1321.33,-15.91 1322.58,-22.8"/>
</a>
</g>
</g>
<!-- Node25 -->
<g id="Node000025" class="node">
<title>Node25</title>
<g id="a_Node000025"><a xlink:title=" ">
<polygon fill="#e0e0e0" stroke="#999999" points="820.38,-74.5 769.12,-74.5 769.12,-55.25 820.38,-55.25 820.38,-74.5"/>
<text text-anchor="middle" x="794.75" y="-61" font-family="Helvetica,sans-Serif" font-size="10.00">memory</text>
</a>
</g>
</g>
<!-- Node2&#45;&gt;Node25 -->
<g id="edge26_Node000002_Node000025" class="edge">
<title>Node2&#45;&gt;Node25</title>
<g id="a_edge26_Node000002_Node000025"><a xlink:title=" ">
<path fill="none" stroke="#63b8ff" d="M762.19,-110.33C767.41,-103.21 774.94,-92.93 781.44,-84.05"/>
<polygon fill="#63b8ff" stroke="#63b8ff" points="784.19,-86.22 787.28,-76.08 778.54,-82.08 784.19,-86.22"/>
</a>
</g>
</g>
<!-- Node3&#45;&gt;Node4 -->
<g id="edge3_Node000003_Node000004" class="edge">
<title>Node3&#45;&gt;Node4</title>
<g id="a_edge3_Node000003_Node000004"><a xlink:title=" ">
<path fill="none" stroke="#63b8ff" d="M682.07,-63.63C585.54,-62.48 305.49,-56.14 64.85,-19.49"/>
<polygon fill="#63b8ff" stroke="#63b8ff" points="65.7,-16.08 55.28,-18.01 64.63,-23 65.7,-16.08"/>
</a>
</g>
</g>
<!-- Node3&#45;&gt;Node5 -->
<g id="edge4_Node000003_Node000005" class="edge">
<title>Node3&#45;&gt;Node5</title>
<g id="a_edge4_Node000003_Node000005"><a xlink:title=" ">
<path fill="none" stroke="#63b8ff" d="M682.03,-63.41C592.31,-61.76 345.39,-54.3 131.63,-19.45"/>
<polygon fill="#63b8ff" stroke="#63b8ff" points="132.44,-16.04 122.01,-17.86 131.3,-22.94 132.44,-16.04"/>
</a>
</g>
</g>
<!-- Node3&#45;&gt;Node6 -->
<g id="edge5_Node000003_Node000006" class="edge">
<title>Node3&#45;&gt;Node6</title>
<g id="a_edge5_Node000003_Node000006"><a xlink:title=" ">
<path fill="none" stroke="#63b8ff" d="M682.39,-61.15C576.97,-52.77 261.45,-27.52 192.58,-19.02"/>
<polygon fill="#63b8ff" stroke="#63b8ff" points="193.48,-15.62 183.09,-17.65 192.48,-22.55 193.48,-15.62"/>
</a>
</g>
</g>
<!-- Node3&#45;&gt;Node7 -->
<g id="edge6_Node000003_Node000007" class="edge">
<title>Node3&#45;&gt;Node7</title>
<g id="a_edge6_Node000003_Node000007"><a xlink:title=" ">
<path fill="none" stroke="#63b8ff" d="M751.42,-56.51C754.23,-56.03 757.03,-55.61 759.75,-55.25 1005.57,-22.91 1075.01,-62.21 1322.15,-19.3"/>
<polygon fill="#63b8ff" stroke="#63b8ff" points="1322.56,-22.78 1331.8,-17.59 1321.35,-15.89 1322.56,-22.78"/>
</a>
</g>
</g>
<!-- Node3&#45;&gt;Node8 -->
<g id="edge7_Node000003_Node000008" class="edge">
<title>Node3&#45;&gt;Node8</title>
<g id="a_edge7_Node000003_Node000008"><a xlink:title=" ">
<path fill="none" stroke="#63b8ff" d="M751.41,-56.49C754.23,-56.02 757.03,-55.6 759.75,-55.25 1031.21,-20.36 1107.15,-63.51 1380.79,-19.16"/>
<polygon fill="#63b8ff" stroke="#63b8ff" points="1381.07,-22.66 1390.37,-17.58 1379.94,-15.76 1381.07,-22.66"/>
</a>
</g>
</g>
<!-- Node9 -->
<g id="Node000009" class="node">
<title>Node9</title>
<g id="a_Node000009"><a xlink:title=" ">
<polygon fill="#e0e0e0" stroke="#999999" points="930,-19.25 879.5,-19.25 879.5,0 930,0 930,-19.25"/>
<text text-anchor="middle" x="904.75" y="-5.75" font-family="Helvetica,sans-Serif" font-size="10.00">typeinfo</text>
</a>
</g>
</g>
<!-- Node3&#45;&gt;Node9 -->
<g id="edge8_Node000003_Node000009" class="edge">
<title>Node3&#45;&gt;Node9</title>
<g id="a_edge8_Node000003_Node000009"><a xlink:title=" ">
<path fill="none" stroke="#63b8ff" d="M748.64,-54.84C781.82,-45.44 833.69,-30.75 868.43,-20.91"/>
<polygon fill="#63b8ff" stroke="#63b8ff" points="868.93,-24.41 877.6,-18.31 867.03,-17.67 868.93,-24.41"/>
</a>
</g>
</g>
<!-- Node10 -->
<g id="Node000010" class="node">
<title>Node10</title>
<g id="a_Node000010"><a xlink:title=" ">
<polygon fill="#e0e0e0" stroke="#999999" points="997.62,-19.25 947.88,-19.25 947.88,0 997.62,0 997.62,-19.25"/>
<text text-anchor="middle" x="972.75" y="-5.75" font-family="Helvetica,sans-Serif" font-size="10.00">iomanip</text>
</a>
</g>
</g>
<!-- Node3&#45;&gt;Node10 -->
<g id="edge9_Node000003_Node000010" class="edge">
<title>Node3&#45;&gt;Node10</title>
<g id="a_edge9_Node000003_Node000010"><a xlink:title=" ">
<path fill="none" stroke="#63b8ff" d="M751.49,-56.9C804.67,-46.23 903.05,-26.48 936.7,-19.48"/>
<polygon fill="#63b8ff" stroke="#63b8ff" points="937,-23 946.05,-17.49 935.54,-16.15 937,-23"/>
</a>
</g>
</g>
<!-- Node11 -->
<g id="Node000011" class="node">
<title>Node11</title>
<g id="a_Node000011"><a xlink:title=" ">
<polygon fill="#e0e0e0" stroke="#999999" points="1057.88,-19.25 1015.62,-19.25 1015.62,0 1057.88,0 1057.88,-19.25"/>
<text text-anchor="middle" x="1036.75" y="-5.75" font-family="Helvetica,sans-Serif" font-size="10.00">cstdio</text>
</a>
</g>
</g>
<!-- Node3&#45;&gt;Node11 -->
<g id="edge10_Node000003_Node000011" class="edge">
<title>Node3&#45;&gt;Node11</title>
<g id="a_edge10_Node000003_Node000011"><a xlink:title=" ">
<path fill="none" stroke="#63b8ff" d="M751.45,-56.75C754.26,-56.22 757.05,-55.72 759.75,-55.25 865.54,-36.94 896.34,-42.25 1004.17,-19.56"/>
<polygon fill="#63b8ff" stroke="#63b8ff" points="1004.68,-23.03 1013.73,-17.51 1003.22,-16.18 1004.68,-23.03"/>
</a>
</g>
</g>
<!-- Node12 -->
<g id="Node000012" class="node">
<title>Node12</title>
<g id="a_Node000012"><a xlink:title=" ">
<polygon fill="#e0e0e0" stroke="#999999" points="1120,-19.25 1075.5,-19.25 1075.5,0 1120,0 1120,-19.25"/>
<text text-anchor="middle" x="1097.75" y="-5.75" font-family="Helvetica,sans-Serif" font-size="10.00">cstdlib</text>
</a>
</g>
</g>
<!-- Node3&#45;&gt;Node12 -->
<g id="edge11_Node000003_Node000012" class="edge">
<title>Node3&#45;&gt;Node12</title>
<g id="a_edge11_Node000003_Node000012"><a xlink:title=" ">
<path fill="none" stroke="#63b8ff" d="M751.44,-56.67C754.25,-56.16 757.04,-55.68 759.75,-55.25 891.85,-34.29 929.95,-45.13 1064.05,-19.51"/>
<polygon fill="#63b8ff" stroke="#63b8ff" points="1064.53,-22.98 1073.67,-17.63 1063.19,-16.11 1064.53,-22.98"/>
</a>
</g>
</g>
<!-- Node13 -->
<g id="Node000013" class="node">
<title>Node13</title>
<g id="a_Node000013"><a xlink:title=" ">
<polygon fill="#e0e0e0" stroke="#999999" points="1193.62,-19.25 1137.88,-19.25 1137.88,0 1193.62,0 1193.62,-19.25"/>
<text text-anchor="middle" x="1165.75" y="-5.75" font-family="Helvetica,sans-Serif" font-size="10.00">algorithm</text>
</a>
</g>
</g>
<!-- Node3&#45;&gt;Node13 -->
<g id="edge12_Node000003_Node000013" class="edge">
<title>Node3&#45;&gt;Node13</title>
<g id="a_edge12_Node000003_Node000013"><a xlink:title=" ">
<path fill="none" stroke="#63b8ff" d="M751.43,-56.61C754.24,-56.11 757.04,-55.65 759.75,-55.25 919.08,-31.56 964.15,-45.36 1126.19,-19.45"/>
<polygon fill="#63b8ff" stroke="#63b8ff" points="1126.74,-22.91 1136.05,-17.85 1125.62,-16 1126.74,-22.91"/>
</a>
</g>
</g>
<!-- Node14 -->
<g id="Node000014" class="node">
<title>Node14</title>
<g id="a_Node000014"><a xlink:title=" ">
<polygon fill="#e0e0e0" stroke="#999999" points="1257.38,-19.25 1212.12,-19.25 1212.12,0 1257.38,0 1257.38,-19.25"/>
<text text-anchor="middle" x="1234.75" y="-5.75" font-family="Helvetica,sans-Serif" font-size="10.00">chrono</text>
</a>
</g>
</g>
<!-- Node3&#45;&gt;Node14 -->
<g id="edge13_Node000003_Node000014" class="edge">
<title>Node3&#45;&gt;Node14</title>
<g id="a_edge13_Node000003_Node000014"><a xlink:title=" ">
<path fill="none" stroke="#63b8ff" d="M751.42,-56.56C754.23,-56.08 757.04,-55.63 759.75,-55.25 951.74,-28.29 1006.13,-52.17 1200.61,-19.28"/>
<polygon fill="#63b8ff" stroke="#63b8ff" points="1201.04,-22.76 1210.3,-17.61 1199.85,-15.86 1201.04,-22.76"/>
</a>
</g>
</g>
<!-- Node15 -->
<g id="Node000015" class="node">
<title>Node15</title>
<g id="a_Node000015"><a xlink:title=" ">
<polygon fill="#e0e0e0" stroke="#999999" points="1315.75,-19.25 1275.75,-19.25 1275.75,0 1315.75,0 1315.75,-19.25"/>
<text text-anchor="middle" x="1295.75" y="-5.75" font-family="Helvetica,sans-Serif" font-size="10.00">cfloat</text>
</a>
</g>
</g>
<!-- Node3&#45;&gt;Node15 -->
<g id="edge14_Node000003_Node000015" class="edge">
<title>Node3&#45;&gt;Node15</title>
<g id="a_edge14_Node000003_Node000015"><a xlink:title=" ">
<path fill="none" stroke="#63b8ff" d="M751.42,-56.53C754.23,-56.05 757.03,-55.62 759.75,-55.25 980.01,-25.46 1042.49,-58.59 1264.26,-19.3"/>
<polygon fill="#63b8ff" stroke="#63b8ff" points="1264.58,-22.8 1273.8,-17.58 1263.34,-15.91 1264.58,-22.8"/>
</a>
</g>
</g>
<!-- Node16 -->
<g id="Node000016" class="node">
<title>Node16</title>
<g id="a_Node000016"><a xlink:title=" ">
<polygon fill="#e0e0e0" stroke="#999999" points="260.25,-19.25 199.25,-19.25 199.25,0 260.25,0 260.25,-19.25"/>
<text text-anchor="middle" x="229.75" y="-5.75" font-family="Helvetica,sans-Serif" font-size="10.00">filesystem</text>
</a>
</g>
</g>
<!-- Node3&#45;&gt;Node16 -->
<g id="edge15_Node000003_Node000016" class="edge">
<title>Node3&#45;&gt;Node16</title>
<g id="a_edge15_Node000003_Node000016"><a xlink:title=" ">
<path fill="none" stroke="#63b8ff" d="M682.33,-60.95C595.57,-53.49 368.57,-33.46 272.07,-19.39"/>
<polygon fill="#63b8ff" stroke="#63b8ff" points="272.6,-15.93 262.19,-17.89 271.55,-22.85 272.6,-15.93"/>
</a>
</g>
</g>
<!-- Node17 -->
<g id="Node000017" class="node">
<title>Node17</title>
<g id="a_Node000017"><a xlink:title=" ">
<polygon fill="#e0e0e0" stroke="#999999" points="313.12,-19.25 278.38,-19.25 278.38,0 313.12,0 313.12,-19.25"/>
<text text-anchor="middle" x="295.75" y="-5.75" font-family="Helvetica,sans-Serif" font-size="10.00">map</text>
</a>
</g>
</g>
<!-- Node3&#45;&gt;Node17 -->
<g id="edge16_Node000003_Node000017" class="edge">
<title>Node3&#45;&gt;Node17</title>
<g id="a_edge16_Node000003_Node000017"><a xlink:title=" ">
<path fill="none" stroke="#63b8ff" d="M682.17,-60.84C603.02,-53.75 409.6,-35.63 324.59,-19.11"/>
<polygon fill="#63b8ff" stroke="#63b8ff" points="325.32,-15.69 314.82,-17.09 323.9,-22.54 325.32,-15.69"/>
</a>
</g>
</g>
<!-- Node18 -->
<g id="Node000018" class="node">
<title>Node18</title>
<g id="a_Node000018"><a xlink:title=" ">
<polygon fill="#e0e0e0" stroke="#999999" points="390.12,-19.25 331.38,-19.25 331.38,0 390.12,0 390.12,-19.25"/>
<text text-anchor="middle" x="360.75" y="-5.75" font-family="Helvetica,sans-Serif" font-size="10.00">stdexcept</text>
</a>
</g>
</g>
<!-- Node3&#45;&gt;Node18 -->
<g id="edge17_Node000003_Node000018" class="edge">
<title>Node3&#45;&gt;Node18</title>
<g id="a_edge17_Node000003_Node000018"><a xlink:title=" ">
<path fill="none" stroke="#63b8ff" d="M682.25,-59.99C625.65,-53.42 509.35,-39.04 401.64,-19.66"/>
<polygon fill="#63b8ff" stroke="#63b8ff" points="402.53,-16.26 392.06,-17.91 401.27,-23.15 402.53,-16.26"/>
</a>
</g>
</g>
<!-- Node19 -->
<g id="Node000019" class="node">
<title>Node19</title>
<g id="a_Node000019"><a xlink:title=" ">
<polygon fill="#e0e0e0" stroke="#999999" points="459.38,-19.25 408.12,-19.25 408.12,0 459.38,0 459.38,-19.25"/>
<text text-anchor="middle" x="433.75" y="-5.75" font-family="Helvetica,sans-Serif" font-size="10.00">sstream</text>
</a>
</g>
</g>
<!-- Node3&#45;&gt;Node19 -->
<g id="edge18_Node000003_Node000019" class="edge">
<title>Node3&#45;&gt;Node19</title>
<g id="a_edge18_Node000003_Node000019"><a xlink:title=" ">
<path fill="none" stroke="#63b8ff" d="M682.11,-58.36C636.11,-50.87 552.1,-36.67 470.65,-19.54"/>
<polygon fill="#63b8ff" stroke="#63b8ff" points="471.69,-16.18 461.18,-17.53 470.24,-23.03 471.69,-16.18"/>
</a>
</g>
</g>
<!-- Node20 -->
<g id="Node000020" class="node">
<title>Node20</title>
<g id="a_Node000020"><a xlink:title=" ">
<polygon fill="#e0e0e0" stroke="#999999" points="560.12,-19.25 477.38,-19.25 477.38,0 560.12,0 560.12,-19.25"/>
<text text-anchor="middle" x="518.75" y="-5.75" font-family="Helvetica,sans-Serif" font-size="10.00">unordered_map</text>
</a>
</g>
</g>
<!-- Node3&#45;&gt;Node20 -->
<g id="edge19_Node000003_Node000020" class="edge">
<title>Node3&#45;&gt;Node20</title>
<g id="a_edge19_Node000003_Node000020"><a xlink:title=" ">
<path fill="none" stroke="#63b8ff" d="M683.16,-54.84C650.17,-45.97 599.62,-32.37 563.29,-22.6"/>
<polygon fill="#63b8ff" stroke="#63b8ff" points="564.53,-19.31 553.96,-20.1 562.71,-26.07 564.53,-19.31"/>
</a>
</g>
</g>
<!-- Node21 -->
<g id="Node000021" class="node">
<title>Node21</title>
<g id="a_Node000021"><a xlink:title=" ">
<polygon fill="#e0e0e0" stroke="#999999" points="655.5,-19.25 578,-19.25 578,0 655.5,0 655.5,-19.25"/>
<text text-anchor="middle" x="616.75" y="-5.75" font-family="Helvetica,sans-Serif" font-size="10.00">unordered_set</text>
</a>
</g>
</g>
<!-- Node3&#45;&gt;Node21 -->
<g id="edge20_Node000003_Node000021" class="edge">
<title>Node3&#45;&gt;Node21</title>
<g id="a_edge20_Node000003_Node000021"><a xlink:title=" ">
<path fill="none" stroke="#63b8ff" d="M699.79,-54.84C684.49,-46.69 661.72,-34.57 643.89,-25.08"/>
<polygon fill="#63b8ff" stroke="#63b8ff" points="645.6,-22.02 635.13,-20.41 642.31,-28.2 645.6,-22.02"/>
</a>
</g>
</g>
<!-- Node22 -->
<g id="Node000022" class="node">
<title>Node22</title>
<g id="a_Node000022"><a xlink:title=" ">
<polygon fill="#e0e0e0" stroke="#999999" points="710.25,-19.25 673.25,-19.25 673.25,0 710.25,0 710.25,-19.25"/>
<text text-anchor="middle" x="691.75" y="-5.75" font-family="Helvetica,sans-Serif" font-size="10.00">tuple</text>
</a>
</g>
</g>
<!-- Node3&#45;&gt;Node22 -->
<g id="edge21_Node000003_Node000022" class="edge">
<title>Node3&#45;&gt;Node22</title>
<g id="a_edge21_Node000003_Node000022"><a xlink:title=" ">
<path fill="none" stroke="#63b8ff" d="M712.62,-55.08C709.42,-48.26 704.86,-38.56 700.82,-29.95"/>
<polygon fill="#63b8ff" stroke="#63b8ff" points="704.03,-28.54 696.61,-20.98 697.69,-31.52 704.03,-28.54"/>
</a>
</g>
</g>
<!-- Node23 -->
<g id="Node000023" class="node">
<title>Node23</title>
<g id="a_Node000023"><a xlink:title=" ">
<polygon fill="#e0e0e0" stroke="#999999" points="757.5,-19.25 728,-19.25 728,0 757.5,0 757.5,-19.25"/>
<text text-anchor="middle" x="742.75" y="-5.75" font-family="Helvetica,sans-Serif" font-size="10.00">set</text>
</a>
</g>
</g>
<!-- Node3&#45;&gt;Node23 -->
<g id="edge22_Node000003_Node000023" class="edge">
<title>Node3&#45;&gt;Node23</title>
<g id="a_edge22_Node000003_Node000023"><a xlink:title=" ">
<path fill="none" stroke="#63b8ff" d="M721.04,-55.08C724.37,-48.26 729.11,-38.56 733.31,-29.95"/>
<polygon fill="#63b8ff" stroke="#63b8ff" points="736.46,-31.49 737.7,-20.97 730.17,-28.42 736.46,-31.49"/>
</a>
</g>
</g>
<!-- Node24 -->
<g id="Node000024" class="node">
<title>Node24</title>
<g id="a_Node000024"><a xlink:title=" ">
<polygon fill="#e0e0e0" stroke="#999999" points="861.62,-19.25 775.88,-19.25 775.88,0 861.62,0 861.62,-19.25"/>
<text text-anchor="middle" x="818.75" y="-5.75" font-family="Helvetica,sans-Serif" font-size="10.00">boost/regex.hpp</text>
</a>
</g>
</g>
<!-- Node3&#45;&gt;Node24 -->
<g id="edge23_Node000003_Node000024" class="edge">
<title>Node3&#45;&gt;Node24</title>
<g id="a_edge23_Node000003_Node000024"><a xlink:title=" ">
<path fill="none" stroke="#63b8ff" d="M734.05,-54.84C749.73,-46.66 773.1,-34.46 791.33,-24.94"/>
<polygon fill="#63b8ff" stroke="#63b8ff" points="792.78,-28.13 800.02,-20.4 789.54,-21.93 792.78,-28.13"/>
</a>
</g>
</g>
</g>
</svg>
