<?xml version="1.0" encoding="UTF-8" standalone="no"?>
<!DOCTYPE svg PUBLIC "-//W3C//DTD SVG 1.1//EN"
 "http://www.w3.org/Graphics/SVG/1.1/DTD/svg11.dtd">
<!-- Generated by graphviz version 12.2.1 (20241206.2353)
 -->
<!-- Title: Point::Print Pages: 1 -->
<svg width="275pt" height="212pt"
 viewBox="0.00 0.00 275.00 212.25" xmlns="http://www.w3.org/2000/svg" xmlns:xlink="http://www.w3.org/1999/xlink">
<g id="graph0" class="graph" transform="scale(1 1) rotate(0) translate(4 208.25)">
<title>Point::Print</title>
<!-- Node1 -->
<g id="Node000001" class="node">
<title>Node1</title>
<g id="a_Node000001"><a xlink:title=" ">
<polygon fill="#999999" stroke="#666666" points="267,-111.25 202.25,-111.25 202.25,-92 267,-92 267,-111.25"/>
<text text-anchor="middle" x="234.62" y="-97.75" font-family="Helvetica,sans-Serif" font-size="10.00">Point::Print</text>
</a>
</g>
</g>
<!-- Node2 -->
<g id="Node000002" class="node">
<title>Node2</title>
<g id="a_Node000002"><a xlink:href="../../dd/db4/class_line_a11ee9e238e8e0d712b52ae99077355ee.html#a11ee9e238e8e0d712b52ae99077355ee" target="_top" xlink:title=" ">
<polygon fill="white" stroke="#666666" points="158.38,-204.25 80.88,-204.25 80.88,-185 158.38,-185 158.38,-204.25"/>
<text text-anchor="middle" x="119.62" y="-190.75" font-family="Helvetica,sans-Serif" font-size="10.00">Line::generate</text>
</a>
</g>
</g>
<!-- Node1&#45;&gt;Node2 -->
<g id="edge1_Node000001_Node000002" class="edge">
<title>Node1&#45;&gt;Node2</title>
<g id="a_edge1_Node000001_Node000002"><a xlink:title=" ">
<path fill="none" stroke="#63b8ff" d="M220.21,-121.06C207.85,-137.73 188.15,-161.4 166.25,-176.62 161.77,-179.74 156.69,-182.42 151.57,-184.69"/>
<polygon fill="#63b8ff" stroke="#63b8ff" points="223.04,-123.12 226.03,-112.95 217.35,-119.04 223.04,-123.12"/>
</a>
</g>
</g>
<!-- Node4 -->
<g id="Node000004" class="node">
<title>Node4</title>
<g id="a_Node000004"><a xlink:href="../../dd/db4/class_line_a4a897127139cddef19d6a8ef4edc0c94.html#a4a897127139cddef19d6a8ef4edc0c94" target="_top" xlink:title=" ">
<polygon fill="white" stroke="#666666" points="158.38,-167.25 80.88,-167.25 80.88,-148 158.38,-148 158.38,-167.25"/>
<text text-anchor="middle" x="119.62" y="-153.75" font-family="Helvetica,sans-Serif" font-size="10.00">Line::generate</text>
</a>
</g>
</g>
<!-- Node1&#45;&gt;Node4 -->
<g id="edge3_Node000001_Node000004" class="edge">
<title>Node1&#45;&gt;Node4</title>
<g id="a_edge3_Node000001_Node000004"><a xlink:title=" ">
<path fill="none" stroke="#63b8ff" d="M207.71,-117.35C195.37,-124.55 180.27,-132.95 166.25,-139.62 160.41,-142.41 154.01,-145.13 147.91,-147.57"/>
<polygon fill="#63b8ff" stroke="#63b8ff" points="209.22,-120.52 216.05,-112.41 205.66,-114.5 209.22,-120.52"/>
</a>
</g>
</g>
<!-- Node5 -->
<g id="Node000005" class="node">
<title>Node5</title>
<g id="a_Node000005"><a xlink:href="../../d4/d9e/_flow___over___cylinder_8cpp_a198e232411110d9bb41f8028ce67ccd7.html#a198e232411110d9bb41f8028ce67ccd7" target="_top" xlink:title=" ">
<polygon fill="white" stroke="#666666" points="157.62,-130.25 81.62,-130.25 81.62,-111 157.62,-111 157.62,-130.25"/>
<text text-anchor="middle" x="119.62" y="-116.75" font-family="Helvetica,sans-Serif" font-size="10.00">Generate_Arc</text>
</a>
</g>
</g>
<!-- Node1&#45;&gt;Node5 -->
<g id="edge4_Node000001_Node000005" class="edge">
<title>Node1&#45;&gt;Node5</title>
<g id="a_edge4_Node000001_Node000005"><a xlink:title=" ">
<path fill="none" stroke="#63b8ff" d="M190.84,-108.82C179.95,-110.65 168.34,-112.6 157.76,-114.38"/>
<polygon fill="#63b8ff" stroke="#63b8ff" points="191.07,-112.33 200.35,-107.22 189.91,-105.43 191.07,-112.33"/>
</a>
</g>
</g>
<!-- Node7 -->
<g id="Node000007" class="node">
<title>Node7</title>
<g id="a_Node000007"><a xlink:href="../../df/db8/_flow___over___cylinder_01_07_r_a_m_e_s_h_01_k_o_l_l_u_r_u_0js_01conflicted_01copy_012024-02-29_011_08_8cpp_ab650ab603fec98e6c793a154c525d9d9.html#ab650ab603fec98e6c793a154c525d9d9" target="_top" xlink:title=" ">
<polygon fill="white" stroke="#666666" points="157.62,-93.25 81.62,-93.25 81.62,-74 157.62,-74 157.62,-93.25"/>
<text text-anchor="middle" x="119.62" y="-79.75" font-family="Helvetica,sans-Serif" font-size="10.00">Generate_Arc</text>
</a>
</g>
</g>
<!-- Node1&#45;&gt;Node7 -->
<g id="edge6_Node000001_Node000007" class="edge">
<title>Node1&#45;&gt;Node7</title>
<g id="a_edge6_Node000001_Node000007"><a xlink:title=" ">
<path fill="none" stroke="#63b8ff" d="M190.49,-94.75C179.7,-93.04 168.23,-91.21 157.76,-89.54"/>
<polygon fill="#63b8ff" stroke="#63b8ff" points="189.93,-98.21 200.35,-96.32 191.03,-91.3 189.93,-98.21"/>
</a>
</g>
</g>
<!-- Node8 -->
<g id="Node000008" class="node">
<title>Node8</title>
<g id="a_Node000008"><a xlink:href="../../df/db8/_flow___over___cylinder_01_07_r_a_m_e_s_h_01_k_o_l_l_u_r_u_0js_01conflicted_01copy_012024-02-29_011_08_8cpp_ae66f6b31b5ad750f1fe042a706a4e3d4.html#ae66f6b31b5ad750f1fe042a706a4e3d4" target="_top" xlink:title=" ">
<polygon fill="white" stroke="#666666" points="138.12,-56.25 101.12,-56.25 101.12,-37 138.12,-37 138.12,-56.25"/>
<text text-anchor="middle" x="119.62" y="-42.75" font-family="Helvetica,sans-Serif" font-size="10.00">main</text>
</a>
</g>
</g>
<!-- Node1&#45;&gt;Node8 -->
<g id="edge7_Node000001_Node000008" class="edge">
<title>Node1&#45;&gt;Node8</title>
<g id="a_edge7_Node000001_Node000008"><a xlink:title=" ">
<path fill="none" stroke="#63b8ff" d="M206.8,-85.87C194.61,-78.98 179.89,-71.03 166.25,-64.62 157.31,-60.43 147.1,-56.34 138.61,-53.12"/>
<polygon fill="#63b8ff" stroke="#63b8ff" points="205.04,-88.9 215.45,-90.84 208.52,-82.83 205.04,-88.9"/>
</a>
</g>
</g>
<!-- Node9 -->
<g id="Node000009" class="node">
<title>Node9</title>
<g id="a_Node000009"><a xlink:href="../../dd/db4/class_line_a6d2d9575fbe7f3e98e236d0778e7ab01.html#a6d2d9575fbe7f3e98e236d0778e7ab01" target="_top" xlink:title=" ">
<polygon fill="white" stroke="#666666" points="166.25,-19.25 73,-19.25 73,0 166.25,0 166.25,-19.25"/>
<text text-anchor="middle" x="119.62" y="-5.75" font-family="Helvetica,sans-Serif" font-size="10.00">Line::write_output</text>
</a>
</g>
</g>
<!-- Node1&#45;&gt;Node9 -->
<g id="edge8_Node000001_Node000009" class="edge">
<title>Node1&#45;&gt;Node9</title>
<g id="a_edge8_Node000001_Node000009"><a xlink:title=" ">
<path fill="none" stroke="#63b8ff" d="M220.15,-82.46C207.76,-66.01 188.04,-42.66 166.25,-27.62 161.76,-24.53 156.67,-21.86 151.55,-19.59"/>
<polygon fill="#63b8ff" stroke="#63b8ff" points="217.26,-84.43 225.99,-90.44 222.92,-80.3 217.26,-84.43"/>
</a>
</g>
</g>
<!-- Node3 -->
<g id="Node000003" class="node">
<title>Node3</title>
<g id="a_Node000003"><a xlink:href="../../d6/da1/_half___cylinder_8cpp_ae66f6b31b5ad750f1fe042a706a4e3d4.html#ae66f6b31b5ad750f1fe042a706a4e3d4" target="_top" xlink:title=" ">
<polygon fill="white" stroke="#666666" points="37,-204.25 0,-204.25 0,-185 37,-185 37,-204.25"/>
<text text-anchor="middle" x="18.5" y="-190.75" font-family="Helvetica,sans-Serif" font-size="10.00">main</text>
</a>
</g>
</g>
<!-- Node2&#45;&gt;Node3 -->
<g id="edge2_Node000002_Node000003" class="edge">
<title>Node2&#45;&gt;Node3</title>
<g id="a_edge2_Node000002_Node000003"><a xlink:title=" ">
<path fill="none" stroke="#63b8ff" d="M69.26,-194.62C57.85,-194.62 46.42,-194.62 37.39,-194.62"/>
<polygon fill="#63b8ff" stroke="#63b8ff" points="69.07,-198.13 79.07,-194.63 69.07,-191.13 69.07,-198.13"/>
</a>
</g>
</g>
<!-- Node6 -->
<g id="Node000006" class="node">
<title>Node6</title>
<g id="a_Node000006"><a xlink:href="../../d4/d9e/_flow___over___cylinder_8cpp_ae66f6b31b5ad750f1fe042a706a4e3d4.html#ae66f6b31b5ad750f1fe042a706a4e3d4" target="_top" xlink:title=" ">
<polygon fill="white" stroke="#666666" points="37,-130.25 0,-130.25 0,-111 37,-111 37,-130.25"/>
<text text-anchor="middle" x="18.5" y="-116.75" font-family="Helvetica,sans-Serif" font-size="10.00">main</text>
</a>
</g>
</g>
<!-- Node5&#45;&gt;Node6 -->
<g id="edge5_Node000005_Node000006" class="edge">
<title>Node5&#45;&gt;Node6</title>
<g id="a_edge5_Node000005_Node000006"><a xlink:title=" ">
<path fill="none" stroke="#63b8ff" d="M69.68,-120.62C58.1,-120.62 46.48,-120.62 37.34,-120.62"/>
<polygon fill="#63b8ff" stroke="#63b8ff" points="69.64,-124.13 79.64,-120.63 69.64,-117.13 69.64,-124.13"/>
</a>
</g>
</g>
</g>
</svg>
