<?xml version="1.0" encoding="UTF-8" standalone="no"?>
<!DOCTYPE svg PUBLIC "-//W3C//DTD SVG 1.1//EN"
 "http://www.w3.org/Graphics/SVG/1.1/DTD/svg11.dtd">
<!-- Generated by graphviz version 12.2.1 (20241206.2353)
 -->
<!-- Title: findGridFiles Pages: 1 -->
<svg width="144pt" height="64pt"
 viewBox="0.00 0.00 143.55 64.25" xmlns="http://www.w3.org/2000/svg" xmlns:xlink="http://www.w3.org/1999/xlink">
<g id="graph0" class="graph" transform="scale(1 1) rotate(0) translate(4 60.25)">
<title>findGridFiles</title>
<!-- Node1 -->
<g id="Node000001" class="node">
<title>Node1</title>
<g id="a_Node000001"><a xlink:title=" ">
<polygon fill="#999999" stroke="#666666" points="70.75,-37.25 0,-37.25 0,-18 70.75,-18 70.75,-37.25"/>
<text text-anchor="middle" x="35.38" y="-23.75" font-family="Helvetica,sans-Serif" font-size="10.00">findGridFiles</text>
</a>
</g>
</g>
<!-- Node2 -->
<g id="Node000002" class="node">
<title>Node2</title>
<g id="a_Node000002"><a xlink:href="../../d3/d82/_c_type___elliptic___grid_8cpp_a9d9acf133a5b966f0cbd16a2c57a7d79.html#a9d9acf133a5b966f0cbd16a2c57a7d79" target="_top" xlink:title=" ">
<polygon fill="white" stroke="#666666" points="135.55,-56.25 106.75,-56.25 106.75,-37 135.55,-37 135.55,-56.25"/>
<text text-anchor="middle" x="121.15" y="-42.75" font-family="Helvetica,sans-Serif" font-size="10.00">x</text>
</a>
</g>
</g>
<!-- Node1&#45;&gt;Node2 -->
<g id="edge1_Node000001_Node000002" class="edge">
<title>Node1&#45;&gt;Node2</title>
<g id="a_edge1_Node000001_Node000002"><a xlink:title=" ">
<path fill="none" stroke="#63b8ff" d="M70.93,-35.46C79.1,-37.31 87.64,-39.25 95.28,-40.98"/>
<polygon fill="#63b8ff" stroke="#63b8ff" points="94.35,-44.36 104.87,-43.16 95.89,-37.53 94.35,-44.36"/>
</a>
</g>
</g>
<!-- Node3 -->
<g id="Node000003" class="node">
<title>Node3</title>
<g id="a_Node000003"><a xlink:href="../../d3/d82/_c_type___elliptic___grid_8cpp_aae4b761a64c952b4c008655d1dc59a12.html#aae4b761a64c952b4c008655d1dc59a12" target="_top" xlink:title=" ">
<polygon fill="white" stroke="#666666" points="135.55,-19.25 106.75,-19.25 106.75,0 135.55,0 135.55,-19.25"/>
<text text-anchor="middle" x="121.15" y="-5.75" font-family="Helvetica,sans-Serif" font-size="10.00">y</text>
</a>
</g>
</g>
<!-- Node1&#45;&gt;Node3 -->
<g id="edge2_Node000001_Node000003" class="edge">
<title>Node1&#45;&gt;Node3</title>
<g id="a_edge2_Node000001_Node000003"><a xlink:title=" ">
<path fill="none" stroke="#63b8ff" d="M70.93,-20.2C79.1,-18.45 87.64,-16.61 95.28,-14.97"/>
<polygon fill="#63b8ff" stroke="#63b8ff" points="95.83,-18.43 104.87,-12.91 94.36,-11.59 95.83,-18.43"/>
</a>
</g>
</g>
</g>
</svg>
