<?xml version="1.0" encoding="UTF-8" standalone="no"?>
<!DOCTYPE svg PUBLIC "-//W3C//DTD SVG 1.1//EN"
 "http://www.w3.org/Graphics/SVG/1.1/DTD/svg11.dtd">
<!-- Generated by graphviz version 12.2.1 (20241206.2353)
 -->
<!-- Title: Write_Solution Pages: 1 -->
<svg width="475pt" height="744pt"
 viewBox="0.00 0.00 474.75 744.25" xmlns="http://www.w3.org/2000/svg" xmlns:xlink="http://www.w3.org/1999/xlink">
<g id="graph0" class="graph" transform="scale(1 1) rotate(0) translate(4 740.25)">
<title>Write_Solution</title>
<!-- Node1 -->
<g id="Node000001" class="node">
<title>Node1</title>
<g id="a_Node000001"><a xlink:title=" ">
<polygon fill="#999999" stroke="#666666" points="466.75,-383.25 387.75,-383.25 387.75,-364 466.75,-364 466.75,-383.25"/>
<text text-anchor="middle" x="427.25" y="-369.75" font-family="Helvetica,sans-Serif" font-size="10.00">Write_Solution</text>
</a>
</g>
</g>
<!-- Node2 -->
<g id="Node000002" class="node">
<title>Node2</title>
<g id="a_Node000002"><a xlink:href="../../d0/d3f/_channel___flow_8cpp_a986df1d2277d1fc7e22408557f29c135.html#a986df1d2277d1fc7e22408557f29c135" target="_top" xlink:title=" ">
<polygon fill="white" stroke="#666666" points="325.88,-364.25 247.62,-364.25 247.62,-345 325.88,-345 325.88,-364.25"/>
<text text-anchor="middle" x="286.75" y="-350.75" font-family="Helvetica,sans-Serif" font-size="10.00">Channel_Flow</text>
</a>
</g>
</g>
<!-- Node1&#45;&gt;Node2 -->
<g id="edge1_Node000001_Node000002" class="edge">
<title>Node1&#45;&gt;Node2</title>
<g id="a_edge1_Node000001_Node000002"><a xlink:title=" ">
<path fill="none" stroke="#63b8ff" d="M376.14,-366.75C359.59,-364.48 341.44,-361.99 325.93,-359.86"/>
<polygon fill="#63b8ff" stroke="#63b8ff" points="375.42,-370.18 385.8,-368.08 376.37,-363.25 375.42,-370.18"/>
</a>
</g>
</g>
<!-- Node3 -->
<g id="Node000003" class="node">
<title>Node3</title>
<g id="a_Node000003"><a xlink:href="../../dd/dbf/_euler___python___wrapper_8cpp_ac5ccb50c3be270f798e054dd36987442.html#ac5ccb50c3be270f798e054dd36987442" target="_top" xlink:title=" ">
<polygon fill="white" stroke="#666666" points="185.75,-402.25 73,-402.25 73,-383 185.75,-383 185.75,-402.25"/>
<text text-anchor="middle" x="129.38" y="-388.75" font-family="Helvetica,sans-Serif" font-size="10.00">PYBIND11_MODULE</text>
</a>
</g>
</g>
<!-- Node1&#45;&gt;Node3 -->
<g id="edge21_Node000001_Node000003" class="edge">
<title>Node1&#45;&gt;Node3</title>
<g id="a_edge21_Node000001_Node000003"><a xlink:title=" ">
<path fill="none" stroke="#63b8ff" d="M375.85,-376.86C323.16,-380.24 240.71,-385.54 186.12,-389.05"/>
<polygon fill="#63b8ff" stroke="#63b8ff" points="376,-380.36 385.75,-376.23 375.55,-373.37 376,-380.36"/>
</a>
</g>
</g>
<!-- Node4 -->
<g id="Node000004" class="node">
<title>Node4</title>
<g id="a_Node000004"><a xlink:href="../../d8/d62/_ellinga___test_case_8cpp_ae7167da7e4a13ec20ea77342a492b6ee.html#ae7167da7e4a13ec20ea77342a492b6ee" target="_top" xlink:title=" ">
<polygon fill="white" stroke="#666666" points="334.12,-327.25 239.38,-327.25 239.38,-308 334.12,-308 334.12,-327.25"/>
<text text-anchor="middle" x="286.75" y="-313.75" font-family="Helvetica,sans-Serif" font-size="10.00">Ellinga_Carbuncle</text>
</a>
</g>
</g>
<!-- Node1&#45;&gt;Node4 -->
<g id="edge3_Node000001_Node000004" class="edge">
<title>Node1&#45;&gt;Node4</title>
<g id="a_edge3_Node000001_Node000004"><a xlink:title=" ">
<path fill="none" stroke="#63b8ff" d="M399.09,-358.13C385.22,-350.65 367.91,-341.95 351.75,-335.62 344.23,-332.68 336.03,-330 328.1,-327.66"/>
<polygon fill="#63b8ff" stroke="#63b8ff" points="397.17,-361.07 407.61,-362.83 400.54,-354.94 397.17,-361.07"/>
</a>
</g>
</g>
<!-- Node5 -->
<g id="Node000005" class="node">
<title>Node5</title>
<g id="a_Node000005"><a xlink:href="../../de/d81/_flat___plate___boundary___layer_8cpp_a787b29de4053181d716a19e7c4c9b705.html#a787b29de4053181d716a19e7c4c9b705" target="_top" xlink:title=" ">
<polygon fill="white" stroke="#666666" points="340.12,-289.88 233.38,-289.88 233.38,-259.38 340.12,-259.38 340.12,-289.88"/>
<text text-anchor="start" x="241.38" y="-276.38" font-family="Helvetica,sans-Serif" font-size="10.00">Flat_Plate_Boundary</text>
<text text-anchor="middle" x="286.75" y="-265.12" font-family="Helvetica,sans-Serif" font-size="10.00">_Layer</text>
</a>
</g>
</g>
<!-- Node1&#45;&gt;Node5 -->
<g id="edge5_Node000001_Node000005" class="edge">
<title>Node1&#45;&gt;Node5</title>
<g id="a_edge5_Node000001_Node000005"><a xlink:title=" ">
<path fill="none" stroke="#63b8ff" d="M411.45,-354.64C397.57,-337.93 375.46,-313.95 351.75,-298.62 346.97,-295.53 341.73,-292.76 336.37,-290.29"/>
<polygon fill="#63b8ff" stroke="#63b8ff" points="408.66,-356.76 417.67,-362.34 414.1,-352.36 408.66,-356.76"/>
</a>
</g>
</g>
<!-- Node6 -->
<g id="Node000006" class="node">
<title>Node6</title>
<g id="a_Node000006"><a xlink:href="../../da/d4b/_flow___over___bump_8cpp_abaa8184c0dd8aa3fdc37d585f0a7d0cc.html#abaa8184c0dd8aa3fdc37d585f0a7d0cc" target="_top" xlink:title=" ">
<polygon fill="white" stroke="#666666" points="333.75,-241.25 239.75,-241.25 239.75,-222 333.75,-222 333.75,-241.25"/>
<text text-anchor="middle" x="286.75" y="-227.75" font-family="Helvetica,sans-Serif" font-size="10.00">Flow_Over_Bump</text>
</a>
</g>
</g>
<!-- Node1&#45;&gt;Node6 -->
<g id="edge7_Node000001_Node000006" class="edge">
<title>Node1&#45;&gt;Node6</title>
<g id="a_edge7_Node000001_Node000006"><a xlink:title=" ">
<path fill="none" stroke="#63b8ff" d="M419.15,-352.95C408.69,-325.52 386.52,-277.47 351.75,-250.62 346.52,-246.59 340.45,-243.41 334.16,-240.9"/>
<polygon fill="#63b8ff" stroke="#63b8ff" points="415.81,-354 422.52,-362.21 422.39,-351.61 415.81,-354"/>
</a>
</g>
</g>
<!-- Node7 -->
<g id="Node000007" class="node">
<title>Node7</title>
<g id="a_Node000007"><a xlink:href="../../dc/d8c/_forward___facing___step_8cpp_a5f68d17ee33caeda5da8c4270441108c.html#a5f68d17ee33caeda5da8c4270441108c" target="_top" xlink:title=" ">
<polygon fill="white" stroke="#666666" points="342.38,-204.25 231.12,-204.25 231.12,-185 342.38,-185 342.38,-204.25"/>
<text text-anchor="middle" x="286.75" y="-190.75" font-family="Helvetica,sans-Serif" font-size="10.00">Forward_Facing_Step</text>
</a>
</g>
</g>
<!-- Node1&#45;&gt;Node7 -->
<g id="edge9_Node000001_Node000007" class="edge">
<title>Node1&#45;&gt;Node7</title>
<g id="a_edge9_Node000001_Node000007"><a xlink:title=" ">
<path fill="none" stroke="#63b8ff" d="M422.38,-352.51C414.95,-318.04 395.38,-249.81 351.75,-212.62 348.06,-209.48 343.86,-206.88 339.41,-204.74"/>
<polygon fill="#63b8ff" stroke="#63b8ff" points="418.9,-352.96 424.3,-362.08 425.77,-351.58 418.9,-352.96"/>
</a>
</g>
</g>
<!-- Node8 -->
<g id="Node000008" class="node">
<title>Node8</title>
<g id="a_Node000008"><a xlink:href="../../df/dee/_half___cylinder___test___case_8cpp_ad6cb651752c2dd1cb946428572cfb769.html#ad6cb651752c2dd1cb946428572cfb769" target="_top" xlink:title=" ">
<polygon fill="white" stroke="#666666" points="337.5,-167.25 236,-167.25 236,-148 337.5,-148 337.5,-167.25"/>
<text text-anchor="middle" x="286.75" y="-153.75" font-family="Helvetica,sans-Serif" font-size="10.00">Half_Cylinder_Flow</text>
</a>
</g>
</g>
<!-- Node1&#45;&gt;Node8 -->
<g id="edge11_Node000001_Node000008" class="edge">
<title>Node1&#45;&gt;Node8</title>
<g id="a_edge11_Node000001_Node000008"><a xlink:title=" ">
<path fill="none" stroke="#63b8ff" d="M424.43,-352.33C419.81,-311.85 404,-223.58 351.75,-175.62 347.67,-171.88 342.87,-168.9 337.76,-166.54"/>
<polygon fill="#63b8ff" stroke="#63b8ff" points="420.94,-352.57 425.42,-362.17 427.9,-351.87 420.94,-352.57"/>
</a>
</g>
</g>
<!-- Node9 -->
<g id="Node000009" class="node">
<title>Node9</title>
<g id="a_Node000009"><a xlink:href="../../d3/db8/_initialize___test_case_8cpp_a4debd02bbc1736679fe1145738aba8c3.html#a4debd02bbc1736679fe1145738aba8c3" target="_top" xlink:title=" ">
<polygon fill="white" stroke="#666666" points="336.38,-19.25 237.12,-19.25 237.12,0 336.38,0 336.38,-19.25"/>
<text text-anchor="middle" x="286.75" y="-5.75" font-family="Helvetica,sans-Serif" font-size="10.00">Initialize_TestCase</text>
</a>
</g>
</g>
<!-- Node1&#45;&gt;Node9 -->
<g id="edge13_Node000001_Node000009" class="edge">
<title>Node1&#45;&gt;Node9</title>
<g id="a_edge13_Node000001_Node000009"><a xlink:title=" ">
<path fill="none" stroke="#63b8ff" d="M424.5,-352.35C418.53,-284.59 396.72,-75.47 351.75,-27.62 347.56,-23.17 342.36,-19.78 336.75,-17.22"/>
<polygon fill="#63b8ff" stroke="#63b8ff" points="421,-352.43 425.34,-362.1 427.97,-351.84 421,-352.43"/>
</a>
</g>
</g>
<!-- Node12 -->
<g id="Node000012" class="node">
<title>Node12</title>
<g id="a_Node000012"><a xlink:href="../../de/df0/_solver_8cpp_ad0f49408a26339b5f7043bf867c3fa8d.html#ad0f49408a26339b5f7043bf867c3fa8d" target="_top" xlink:title=" ">
<polygon fill="white" stroke="#666666" points="328.12,-93.25 245.38,-93.25 245.38,-74 328.12,-74 328.12,-93.25"/>
<text text-anchor="middle" x="286.75" y="-79.75" font-family="Helvetica,sans-Serif" font-size="10.00">Inviscid_Solver</text>
</a>
</g>
</g>
<!-- Node1&#45;&gt;Node12 -->
<g id="edge16_Node000001_Node000012" class="edge">
<title>Node1&#45;&gt;Node12</title>
<g id="a_edge16_Node000001_Node000012"><a xlink:title=" ">
<path fill="none" stroke="#63b8ff" d="M427,-352.08C427.56,-301.07 421.58,-171.93 351.75,-101.62 345.41,-95.24 336.99,-91.07 328.34,-88.37"/>
<polygon fill="#63b8ff" stroke="#63b8ff" points="423.51,-351.95 426.78,-362.02 430.5,-352.1 423.51,-351.95"/>
</a>
</g>
</g>
<!-- Node14 -->
<g id="Node000014" class="node">
<title>Node14</title>
<g id="a_Node000014"><a xlink:href="../../de/dc4/_o_e_d_8cpp_a1404a4711dcead4c50dd9eaa2ab7b7c0.html#a1404a4711dcead4c50dd9eaa2ab7b7c0" target="_top" xlink:title=" ">
<polygon fill="white" stroke="#666666" points="305.62,-130.25 267.88,-130.25 267.88,-111 305.62,-111 305.62,-130.25"/>
<text text-anchor="middle" x="286.75" y="-116.75" font-family="Helvetica,sans-Serif" font-size="10.00">OED</text>
</a>
</g>
</g>
<!-- Node1&#45;&gt;Node14 -->
<g id="edge19_Node000001_Node000014" class="edge">
<title>Node1&#45;&gt;Node14</title>
<g id="a_edge19_Node000001_Node000014"><a xlink:title=" ">
<path fill="none" stroke="#63b8ff" d="M425.91,-352.56C424.01,-306.83 412.91,-197.81 351.75,-138.62 339.56,-126.83 320.26,-122.64 306.05,-121.22"/>
<polygon fill="#63b8ff" stroke="#63b8ff" points="422.41,-352.51 426.2,-362.4 429.41,-352.31 422.41,-352.51"/>
</a>
</g>
</g>
<!-- Node15 -->
<g id="Node000015" class="node">
<title>Node15</title>
<g id="a_Node000015"><a xlink:href="../../dd/de9/_ramp__15___degree_8cpp_af85931ed4e293dce5c8e4acafecd54b5.html#af85931ed4e293dce5c8e4acafecd54b5" target="_top" xlink:title=" ">
<polygon fill="white" stroke="#666666" points="334.12,-736.25 239.38,-736.25 239.38,-717 334.12,-717 334.12,-736.25"/>
<text text-anchor="middle" x="286.75" y="-722.75" font-family="Helvetica,sans-Serif" font-size="10.00">Ramp_15_Degree</text>
</a>
</g>
</g>
<!-- Node1&#45;&gt;Node15 -->
<g id="edge22_Node000001_Node000015" class="edge">
<title>Node1&#45;&gt;Node15</title>
<g id="a_edge22_Node000001_Node000015"><a xlink:title=" ">
<path fill="none" stroke="#63b8ff" d="M424.32,-395.08C417.93,-461.58 395.32,-662.57 351.75,-708.62 346.99,-713.66 340.95,-717.32 334.48,-719.97"/>
<polygon fill="#63b8ff" stroke="#63b8ff" points="427.81,-395.45 425.25,-385.16 420.84,-394.8 427.81,-395.45"/>
</a>
</g>
</g>
<!-- Node16 -->
<g id="Node000016" class="node">
<title>Node16</title>
<g id="a_Node000016"><a xlink:href="../../d2/d72/_scram___jet___inlet___test___case_8cpp_a49bbbeed352ab44d6248954f9d5391b0.html#a49bbbeed352ab44d6248954f9d5391b0" target="_top" xlink:title=" ">
<polygon fill="white" stroke="#666666" points="330.38,-699.25 243.12,-699.25 243.12,-680 330.38,-680 330.38,-699.25"/>
<text text-anchor="middle" x="286.75" y="-685.75" font-family="Helvetica,sans-Serif" font-size="10.00">Scram_Jet_Inlet</text>
</a>
</g>
</g>
<!-- Node1&#45;&gt;Node16 -->
<g id="edge24_Node000001_Node000016" class="edge">
<title>Node1&#45;&gt;Node16</title>
<g id="a_edge24_Node000001_Node000016"><a xlink:title=" ">
<path fill="none" stroke="#63b8ff" d="M423.74,-394.68C416.03,-455.79 390.86,-631.36 351.75,-671.62 346.04,-677.5 338.58,-681.51 330.77,-684.22"/>
<polygon fill="#63b8ff" stroke="#63b8ff" points="427.18,-395.32 424.93,-384.97 420.23,-394.47 427.18,-395.32"/>
</a>
</g>
</g>
<!-- Node17 -->
<g id="Node000017" class="node">
<title>Node17</title>
<g id="a_Node000017"><a xlink:href="../../d1/d48/_shock___bubble___interaction_8cpp_a4cb762eff7e59896e567775356bda66a.html#a4cb762eff7e59896e567775356bda66a" target="_top" xlink:title=" ">
<polygon fill="white" stroke="#666666" points="351.75,-662.25 221.75,-662.25 221.75,-643 351.75,-643 351.75,-662.25"/>
<text text-anchor="middle" x="286.75" y="-648.75" font-family="Helvetica,sans-Serif" font-size="10.00">Shock_Bubble_Interaction</text>
</a>
</g>
</g>
<!-- Node1&#45;&gt;Node17 -->
<g id="edge26_Node000001_Node000017" class="edge">
<title>Node1&#45;&gt;Node17</title>
<g id="a_edge26_Node000001_Node000017"><a xlink:title=" ">
<path fill="none" stroke="#63b8ff" d="M426.7,-394.97C426.55,-444.4 419.02,-567.62 351.75,-634.62 348.56,-637.8 344.86,-640.43 340.87,-642.6"/>
<polygon fill="#63b8ff" stroke="#63b8ff" points="430.21,-395.06 426.62,-385.09 423.21,-395.12 430.21,-395.06"/>
</a>
</g>
</g>
<!-- Node18 -->
<g id="Node000018" class="node">
<title>Node18</title>
<g id="a_Node000018"><a xlink:href="../../d5/d9f/_shock___diffraction_8cpp_a464d43fab5d32cc9ecee800dfab8e5c8.html#a464d43fab5d32cc9ecee800dfab8e5c8" target="_top" xlink:title=" ">
<polygon fill="white" stroke="#666666" points="333.75,-625.25 239.75,-625.25 239.75,-606 333.75,-606 333.75,-625.25"/>
<text text-anchor="middle" x="286.75" y="-611.75" font-family="Helvetica,sans-Serif" font-size="10.00">Shock_Diffraction</text>
</a>
</g>
</g>
<!-- Node1&#45;&gt;Node18 -->
<g id="edge28_Node000001_Node000018" class="edge">
<title>Node1&#45;&gt;Node18</title>
<g id="a_edge28_Node000001_Node000018"><a xlink:title=" ">
<path fill="none" stroke="#63b8ff" d="M425.53,-394.61C422.86,-438.76 410.31,-541.75 351.75,-597.62 346.74,-602.41 340.56,-605.93 334.04,-608.53"/>
<polygon fill="#63b8ff" stroke="#63b8ff" points="429.02,-395.03 426,-384.87 422.02,-394.7 429.02,-395.03"/>
</a>
</g>
</g>
<!-- Node19 -->
<g id="Node000019" class="node">
<title>Node19</title>
<g id="a_Node000019"><a xlink:href="../../d2/d58/_shock___reflection__2_d_8cpp_a286a95bfcac44ff19264008ffd9506ed.html#a286a95bfcac44ff19264008ffd9506ed" target="_top" xlink:title=" ">
<polygon fill="white" stroke="#666666" points="342.38,-588.25 231.12,-588.25 231.12,-569 342.38,-569 342.38,-588.25"/>
<text text-anchor="middle" x="286.75" y="-574.75" font-family="Helvetica,sans-Serif" font-size="10.00">Shock_Reflection_2D</text>
</a>
</g>
</g>
<!-- Node1&#45;&gt;Node19 -->
<g id="edge30_Node000001_Node000019" class="edge">
<title>Node1&#45;&gt;Node19</title>
<g id="a_edge30_Node000001_Node000019"><a xlink:title=" ">
<path fill="none" stroke="#63b8ff" d="M423.91,-394.81C418.48,-433.54 401.45,-515.88 351.75,-560.62 348.23,-563.79 344.2,-566.4 339.91,-568.56"/>
<polygon fill="#63b8ff" stroke="#63b8ff" points="427.37,-395.33 425.14,-384.97 420.42,-394.45 427.37,-395.33"/>
</a>
</g>
</g>
<!-- Node20 -->
<g id="Node000020" class="node">
<title>Node20</title>
<g id="a_Node000020"><a xlink:href="../../d6/d4f/_shock___tube__2_d_8cpp_a634f5b7cf63cab96d3b48ed0b4df6ad4.html#a634f5b7cf63cab96d3b48ed0b4df6ad4" target="_top" xlink:title=" ">
<polygon fill="white" stroke="#666666" points="331.12,-551.25 242.38,-551.25 242.38,-532 331.12,-532 331.12,-551.25"/>
<text text-anchor="middle" x="286.75" y="-537.75" font-family="Helvetica,sans-Serif" font-size="10.00">Shock_Tube_2D</text>
</a>
</g>
</g>
<!-- Node1&#45;&gt;Node20 -->
<g id="edge32_Node000001_Node000020" class="edge">
<title>Node1&#45;&gt;Node20</title>
<g id="a_edge32_Node000001_Node000020"><a xlink:title=" ">
<path fill="none" stroke="#63b8ff" d="M421.72,-394.21C413.51,-426.63 393.04,-489.41 351.75,-523.62 345.88,-528.49 338.79,-532.04 331.49,-534.63"/>
<polygon fill="#63b8ff" stroke="#63b8ff" points="425.03,-395.41 423.94,-384.87 418.22,-393.79 425.03,-395.41"/>
</a>
</g>
</g>
<!-- Node21 -->
<g id="Node000021" class="node">
<title>Node21</title>
<g id="a_Node000021"><a xlink:href="../../de/dda/_shock___wedge___reflection_8cpp_a951397acc5a124a5a006dbd5ae45029a.html#a951397acc5a124a5a006dbd5ae45029a" target="_top" xlink:title=" ">
<polygon fill="white" stroke="#666666" points="351,-514.25 222.5,-514.25 222.5,-495 351,-495 351,-514.25"/>
<text text-anchor="middle" x="286.75" y="-500.75" font-family="Helvetica,sans-Serif" font-size="10.00">Shock_Wedge_Reflection</text>
</a>
</g>
</g>
<!-- Node1&#45;&gt;Node21 -->
<g id="edge34_Node000001_Node000021" class="edge">
<title>Node1&#45;&gt;Node21</title>
<g id="a_edge34_Node000001_Node000021"><a xlink:title=" ">
<path fill="none" stroke="#63b8ff" d="M418.27,-393.8C407.17,-419.25 384.66,-462.58 351.75,-486.62 347.37,-489.83 342.44,-492.46 337.31,-494.62"/>
<polygon fill="#63b8ff" stroke="#63b8ff" points="421.36,-395.47 421.98,-384.9 414.9,-392.78 421.36,-395.47"/>
</a>
</g>
</g>
<!-- Node22 -->
<g id="Node000022" class="node">
<title>Node22</title>
<g id="a_Node000022"><a xlink:href="../../d8/d8f/_slip___flow__2_d_8cpp_a41030236ecf9b4d95159d7227a838eab.html#a41030236ecf9b4d95159d7227a838eab" target="_top" xlink:title=" ">
<polygon fill="white" stroke="#666666" points="325.12,-477.25 248.38,-477.25 248.38,-458 325.12,-458 325.12,-477.25"/>
<text text-anchor="middle" x="286.75" y="-463.75" font-family="Helvetica,sans-Serif" font-size="10.00">Slip_Flow_2D</text>
</a>
</g>
</g>
<!-- Node1&#45;&gt;Node22 -->
<g id="edge36_Node000001_Node000022" class="edge">
<title>Node1&#45;&gt;Node22</title>
<g id="a_edge36_Node000001_Node000022"><a xlink:title=" ">
<path fill="none" stroke="#63b8ff" d="M412.62,-392.32C399.06,-409.63 376.7,-434.85 351.75,-449.62 343.71,-454.39 334.35,-457.94 325.31,-460.57"/>
<polygon fill="#63b8ff" stroke="#63b8ff" points="415.04,-394.92 418.3,-384.84 409.47,-390.69 415.04,-394.92"/>
</a>
</g>
</g>
<!-- Node23 -->
<g id="Node000023" class="node">
<title>Node23</title>
<g id="a_Node000023"><a xlink:href="../../d8/da5/_s_w_b_l_i_8cpp_aab1edbd94ae1737559f5140355148ed8.html#aab1edbd94ae1737559f5140355148ed8" target="_top" xlink:title=" ">
<polygon fill="white" stroke="#666666" points="310.5,-440.25 263,-440.25 263,-421 310.5,-421 310.5,-440.25"/>
<text text-anchor="middle" x="286.75" y="-426.75" font-family="Helvetica,sans-Serif" font-size="10.00">SWBLI</text>
</a>
</g>
</g>
<!-- Node1&#45;&gt;Node23 -->
<g id="edge38_Node000001_Node000023" class="edge">
<title>Node1&#45;&gt;Node23</title>
<g id="a_edge38_Node000001_Node000023"><a xlink:title=" ">
<path fill="none" stroke="#63b8ff" d="M394.17,-388.33C381.08,-394.19 365.77,-400.9 351.75,-406.62 338.35,-412.1 323.18,-417.81 310.98,-422.28"/>
<polygon fill="#63b8ff" stroke="#63b8ff" points="395.5,-391.56 403.17,-384.26 392.62,-385.18 395.5,-391.56"/>
</a>
</g>
</g>
<!-- Node24 -->
<g id="Node000024" class="node">
<title>Node24</title>
<g id="a_Node000024"><a xlink:href="../../de/df0/_solver_8cpp_a2f37f06e8324a1ed6aa99efdbba81865.html#a2f37f06e8324a1ed6aa99efdbba81865" target="_top" xlink:title=" ">
<polygon fill="white" stroke="#666666" points="328.88,-56.25 244.62,-56.25 244.62,-37 328.88,-37 328.88,-56.25"/>
<text text-anchor="middle" x="286.75" y="-42.75" font-family="Helvetica,sans-Serif" font-size="10.00">Viscous_Solver</text>
</a>
</g>
</g>
<!-- Node1&#45;&gt;Node24 -->
<g id="edge40_Node000001_Node000024" class="edge">
<title>Node1&#45;&gt;Node24</title>
<g id="a_edge40_Node000001_Node000024"><a xlink:title=" ">
<path fill="none" stroke="#63b8ff" d="M423.94,-352.61C416.66,-290.03 392.22,-106.64 351.75,-64.62 345.66,-58.31 337.55,-54.15 329.15,-51.44"/>
<polygon fill="#63b8ff" stroke="#63b8ff" points="420.43,-352.69 425.03,-362.24 427.38,-351.91 420.43,-352.69"/>
</a>
</g>
</g>
<!-- Node2&#45;&gt;Node3 -->
<g id="edge2_Node000002_Node000003" class="edge">
<title>Node2&#45;&gt;Node3</title>
<g id="a_edge2_Node000002_Node000003"><a xlink:title=" ">
<path fill="none" stroke="#63b8ff" d="M236.44,-366.69C215.56,-371.79 191.52,-377.67 171.6,-382.54"/>
<polygon fill="#63b8ff" stroke="#63b8ff" points="236.99,-370.15 245.87,-364.38 235.33,-363.35 236.99,-370.15"/>
</a>
</g>
</g>
<!-- Node4&#45;&gt;Node3 -->
<g id="edge4_Node000004_Node000003" class="edge">
<title>Node4&#45;&gt;Node3</title>
<g id="a_edge4_Node000004_Node000003"><a xlink:title=" ">
<path fill="none" stroke="#63b8ff" d="M232.77,-331.24C229,-332.6 225.29,-334.06 221.75,-335.62 192.16,-348.69 160.83,-370.13 143.63,-382.66"/>
<polygon fill="#63b8ff" stroke="#63b8ff" points="233.67,-334.63 242.06,-328.15 231.46,-327.99 233.67,-334.63"/>
</a>
</g>
</g>
<!-- Node5&#45;&gt;Node3 -->
<g id="edge6_Node000005_Node000003" class="edge">
<title>Node5&#45;&gt;Node3</title>
<g id="a_edge6_Node000005_Node000003"><a xlink:title=" ">
<path fill="none" stroke="#63b8ff" d="M227.29,-295.25C225.39,-296.33 223.54,-297.46 221.75,-298.62 184.99,-322.67 151.72,-363.89 137.57,-382.72"/>
<polygon fill="#63b8ff" stroke="#63b8ff" points="228.44,-298.6 235.75,-290.93 225.25,-292.36 228.44,-298.6"/>
</a>
</g>
</g>
<!-- Node6&#45;&gt;Node3 -->
<g id="edge8_Node000006_Node000003" class="edge">
<title>Node6&#45;&gt;Node3</title>
<g id="a_edge8_Node000006_Node000003"><a xlink:title=" ">
<path fill="none" stroke="#63b8ff" d="M229.1,-245.88C226.53,-247.31 224.06,-248.89 221.75,-250.62 173.45,-286.87 143.71,-356.73 133.94,-382.64"/>
<polygon fill="#63b8ff" stroke="#63b8ff" points="230.5,-249.09 238.06,-241.67 227.52,-242.75 230.5,-249.09"/>
</a>
</g>
</g>
<!-- Node7&#45;&gt;Node3 -->
<g id="edge10_Node000007_Node000003" class="edge">
<title>Node7&#45;&gt;Node3</title>
<g id="a_edge10_Node000007_Node000003"><a xlink:title=" ">
<path fill="none" stroke="#63b8ff" d="M224.72,-210.36C223.7,-211.08 222.71,-211.84 221.75,-212.62 164.34,-259.78 139.35,-352.28 132.46,-382.68"/>
<polygon fill="#63b8ff" stroke="#63b8ff" points="226.29,-213.5 233.21,-205.48 222.8,-207.43 226.29,-213.5"/>
</a>
</g>
</g>
<!-- Node8&#45;&gt;Node3 -->
<g id="edge12_Node000008_Node000003" class="edge">
<title>Node8&#45;&gt;Node3</title>
<g id="a_edge12_Node000008_Node000003"><a xlink:title=" ">
<path fill="none" stroke="#63b8ff" d="M225.75,-172.46C224.36,-173.45 223.02,-174.5 221.75,-175.62 155.56,-234.06 136.01,-348.37 131.52,-382.67"/>
<polygon fill="#63b8ff" stroke="#63b8ff" points="227.31,-175.6 234.25,-167.6 223.83,-169.53 227.31,-175.6"/>
</a>
</g>
</g>
<!-- Node10 -->
<g id="Node000010" class="node">
<title>Node10</title>
<g id="a_Node000010"><a xlink:href="../../d0/de9/_configuration___read_8cpp_af498db18e73ae99cf5272ad58683fc97.html#af498db18e73ae99cf5272ad58683fc97" target="_top" xlink:title=" ">
<polygon fill="white" stroke="#666666" points="181.25,-19.25 77.5,-19.25 77.5,0 181.25,0 181.25,-19.25"/>
<text text-anchor="middle" x="129.38" y="-5.75" font-family="Helvetica,sans-Serif" font-size="10.00">readTestCaseJSON</text>
</a>
</g>
</g>
<!-- Node9&#45;&gt;Node10 -->
<g id="edge14_Node000009_Node000010" class="edge">
<title>Node9&#45;&gt;Node10</title>
<g id="a_edge14_Node000009_Node000010"><a xlink:title=" ">
<path fill="none" stroke="#63b8ff" d="M225.6,-9.62C211.07,-9.62 195.69,-9.62 181.62,-9.62"/>
<polygon fill="#63b8ff" stroke="#63b8ff" points="225.5,-13.13 235.5,-9.63 225.5,-6.13 225.5,-13.13"/>
</a>
</g>
</g>
<!-- Node11 -->
<g id="Node000011" class="node">
<title>Node11</title>
<g id="a_Node000011"><a xlink:href="../../d5/d12/_main_8cpp_a0ddf1224851353fc92bfbff6f499fa97.html#a0ddf1224851353fc92bfbff6f499fa97" target="_top" xlink:title=" ">
<polygon fill="white" stroke="#666666" points="37,-19.25 0,-19.25 0,0 37,0 37,-19.25"/>
<text text-anchor="middle" x="18.5" y="-5.75" font-family="Helvetica,sans-Serif" font-size="10.00">main</text>
</a>
</g>
</g>
<!-- Node10&#45;&gt;Node11 -->
<g id="edge15_Node000010_Node000011" class="edge">
<title>Node10&#45;&gt;Node11</title>
<g id="a_edge15_Node000010_Node000011"><a xlink:title=" ">
<path fill="none" stroke="#63b8ff" d="M65.8,-9.62C55.44,-9.62 45.48,-9.62 37.47,-9.62"/>
<polygon fill="#63b8ff" stroke="#63b8ff" points="65.61,-13.13 75.61,-9.63 65.61,-6.13 65.61,-13.13"/>
</a>
</g>
</g>
<!-- Node12&#45;&gt;Node3 -->
<g id="edge17_Node000012_Node000003" class="edge">
<title>Node12&#45;&gt;Node3</title>
<g id="a_edge17_Node000012_Node000003"><a xlink:title=" ">
<path fill="none" stroke="#63b8ff" d="M234.43,-92.86C229.78,-95.17 225.44,-98.05 221.75,-101.62 137.57,-183.31 130.66,-341.49 130.32,-382.64"/>
<polygon fill="#63b8ff" stroke="#63b8ff" points="235.6,-96.16 243.59,-89.2 233,-89.66 235.6,-96.16"/>
</a>
</g>
</g>
<!-- Node13 -->
<g id="Node000013" class="node">
<title>Node13</title>
<g id="a_Node000013"><a xlink:href="../../d5/d12/_main_8cpp_a35d775933750ace299102f06a1712663.html#a35d775933750ace299102f06a1712663" target="_top" xlink:title="Executes the appropriate solver based on the simulation configuration.">
<polygon fill="white" stroke="#666666" points="158,-75.25 100.75,-75.25 100.75,-56 158,-56 158,-75.25"/>
<text text-anchor="middle" x="129.38" y="-61.75" font-family="Helvetica,sans-Serif" font-size="10.00">runSolver</text>
</a>
</g>
</g>
<!-- Node12&#45;&gt;Node13 -->
<g id="edge18_Node000012_Node000013" class="edge">
<title>Node12&#45;&gt;Node13</title>
<g id="a_edge18_Node000012_Node000013"><a xlink:title=" ">
<path fill="none" stroke="#63b8ff" d="M233.66,-77.59C208.42,-74.67 179.13,-71.27 158.2,-68.85"/>
<polygon fill="#63b8ff" stroke="#63b8ff" points="233.09,-81.05 243.42,-78.72 233.89,-74.09 233.09,-81.05"/>
</a>
</g>
</g>
<!-- Node14&#45;&gt;Node3 -->
<g id="edge20_Node000014_Node000003" class="edge">
<title>Node14&#45;&gt;Node3</title>
<g id="a_edge20_Node000014_Node000003"><a xlink:title=" ">
<path fill="none" stroke="#63b8ff" d="M256.19,-123.05C244.22,-125.41 231.06,-129.95 221.75,-138.62 146.64,-208.57 133.17,-344.73 130.84,-382.62"/>
<polygon fill="#63b8ff" stroke="#63b8ff" points="256.71,-126.51 266.08,-121.57 255.67,-119.59 256.71,-126.51"/>
</a>
</g>
</g>
<!-- Node15&#45;&gt;Node3 -->
<g id="edge23_Node000015_Node000003" class="edge">
<title>Node15&#45;&gt;Node3</title>
<g id="a_edge23_Node000015_Node000003"><a xlink:title=" ">
<path fill="none" stroke="#63b8ff" d="M228.97,-714.4C226.37,-712.72 223.94,-710.8 221.75,-708.62 131.37,-618.9 129.11,-445.71 130.03,-402.55"/>
<polygon fill="#63b8ff" stroke="#63b8ff" points="227.13,-717.4 237.62,-718.88 230.35,-711.18 227.13,-717.4"/>
</a>
</g>
</g>
<!-- Node16&#45;&gt;Node3 -->
<g id="edge25_Node000016_Node000003" class="edge">
<title>Node16&#45;&gt;Node3</title>
<g id="a_edge25_Node000016_Node000003"><a xlink:title=" ">
<path fill="none" stroke="#63b8ff" d="M232.2,-679.16C228.4,-677.08 224.85,-674.6 221.75,-671.62 140.62,-593.86 131.46,-443.07 130.48,-402.75"/>
<polygon fill="#63b8ff" stroke="#63b8ff" points="230.78,-682.36 241.34,-683.17 233.59,-675.95 230.78,-682.36"/>
</a>
</g>
</g>
<!-- Node17&#45;&gt;Node3 -->
<g id="edge27_Node000017_Node000003" class="edge">
<title>Node17&#45;&gt;Node3</title>
<g id="a_edge27_Node000017_Node000003"><a xlink:title=" ">
<path fill="none" stroke="#63b8ff" d="M224.11,-636.64C223.3,-636 222.51,-635.32 221.75,-634.62 149.58,-568.47 134.06,-439.5 131.05,-402.67"/>
<polygon fill="#63b8ff" stroke="#63b8ff" points="221.94,-639.41 232.25,-641.82 225.69,-633.5 221.94,-639.41"/>
</a>
</g>
</g>
<!-- Node18&#45;&gt;Node3 -->
<g id="edge29_Node000018_Node000003" class="edge">
<title>Node18&#45;&gt;Node3</title>
<g id="a_edge29_Node000018_Node000003"><a xlink:title=" ">
<path fill="none" stroke="#63b8ff" d="M229.32,-603.03C226.63,-601.44 224.08,-599.64 221.75,-597.62 158.37,-542.84 137,-435.48 131.78,-402.5"/>
<polygon fill="#63b8ff" stroke="#63b8ff" points="227.64,-606.11 238.17,-607.31 230.69,-599.8 227.64,-606.11"/>
</a>
</g>
</g>
<!-- Node19&#45;&gt;Node3 -->
<g id="edge31_Node000019_Node000003" class="edge">
<title>Node19&#45;&gt;Node3</title>
<g id="a_edge31_Node000019_Node000003"><a xlink:title=" ">
<path fill="none" stroke="#63b8ff" d="M225.22,-563.17C224.02,-562.36 222.87,-561.52 221.75,-560.62 167.25,-517.14 140.68,-431.95 132.89,-402.74"/>
<polygon fill="#63b8ff" stroke="#63b8ff" points="223.17,-566.04 233.62,-567.82 226.56,-559.91 223.17,-566.04"/>
</a>
</g>
</g>
<!-- Node20&#45;&gt;Node3 -->
<g id="edge33_Node000020_Node000003" class="edge">
<title>Node20&#45;&gt;Node3</title>
<g id="a_edge33_Node000020_Node000003"><a xlink:title=" ">
<path fill="none" stroke="#63b8ff" d="M231.41,-529.31C228.02,-527.65 224.76,-525.76 221.75,-523.62 175.64,-490.85 145,-427.12 134.45,-402.59"/>
<polygon fill="#63b8ff" stroke="#63b8ff" points="229.93,-532.49 240.51,-533.08 232.61,-526.02 229.93,-532.49"/>
</a>
</g>
</g>
<!-- Node21&#45;&gt;Node3 -->
<g id="edge35_Node000021_Node000003" class="edge">
<title>Node21&#45;&gt;Node3</title>
<g id="a_edge35_Node000021_Node000003"><a xlink:title=" ">
<path fill="none" stroke="#63b8ff" d="M228.41,-490.18C226.11,-489.08 223.89,-487.9 221.75,-486.62 183.81,-464.04 150.9,-421.7 137.18,-402.52"/>
<polygon fill="#63b8ff" stroke="#63b8ff" points="226.79,-493.3 237.36,-493.94 229.49,-486.84 226.79,-493.3"/>
</a>
</g>
</g>
<!-- Node22&#45;&gt;Node3 -->
<g id="edge37_Node000022_Node000003" class="edge">
<title>Node22&#45;&gt;Node3</title>
<g id="a_edge37_Node000022_Node000003"><a xlink:title=" ">
<path fill="none" stroke="#63b8ff" d="M237.12,-455.53C231.85,-453.75 226.64,-451.78 221.75,-449.62 192.16,-436.56 160.83,-415.12 143.63,-402.59"/>
<polygon fill="#63b8ff" stroke="#63b8ff" points="235.86,-458.8 246.45,-458.44 237.95,-452.12 235.86,-458.8"/>
</a>
</g>
</g>
<!-- Node23&#45;&gt;Node3 -->
<g id="edge39_Node000023_Node000003" class="edge">
<title>Node23&#45;&gt;Node3</title>
<g id="a_edge39_Node000023_Node000003"><a xlink:title=" ">
<path fill="none" stroke="#63b8ff" d="M251.93,-422.35C228.3,-416.58 196.61,-408.82 171.52,-402.69"/>
<polygon fill="#63b8ff" stroke="#63b8ff" points="250.81,-425.68 261.35,-424.66 252.47,-418.88 250.81,-425.68"/>
</a>
</g>
</g>
<!-- Node24&#45;&gt;Node3 -->
<g id="edge41_Node000024_Node000003" class="edge">
<title>Node24&#45;&gt;Node3</title>
<g id="a_edge41_Node000024_Node000003"><a xlink:title=" ">
<path fill="none" stroke="#63b8ff" d="M233.59,-56.11C229.23,-58.38 225.19,-61.18 221.75,-64.62 128.44,-158.16 128.41,-338.38 129.91,-382.63"/>
<polygon fill="#63b8ff" stroke="#63b8ff" points="234.89,-59.35 242.78,-52.29 232.2,-52.89 234.89,-59.35"/>
</a>
</g>
</g>
<!-- Node24&#45;&gt;Node13 -->
<g id="edge42_Node000024_Node000013" class="edge">
<title>Node24&#45;&gt;Node13</title>
<g id="a_edge42_Node000024_Node000013"><a xlink:title=" ">
<path fill="none" stroke="#63b8ff" d="M233.26,-53.04C208.06,-56.13 178.88,-59.69 158.05,-62.24"/>
<polygon fill="#63b8ff" stroke="#63b8ff" points="233.52,-56.54 243.02,-51.85 232.67,-49.59 233.52,-56.54"/>
</a>
</g>
</g>
</g>
</svg>
