<?xml version="1.0" encoding="UTF-8" standalone="no"?>
<!DOCTYPE svg PUBLIC "-//W3C//DTD SVG 1.1//EN"
 "http://www.w3.org/Graphics/SVG/1.1/DTD/svg11.dtd">
<!-- Generated by graphviz version 12.2.1 (20241206.2353)
 -->
<!-- Title: Grid::Generate_Grid Pages: 1 -->
<svg width="336pt" height="199pt"
 viewBox="0.00 0.00 335.80 199.25" xmlns="http://www.w3.org/2000/svg" xmlns:xlink="http://www.w3.org/1999/xlink">
<g id="graph0" class="graph" transform="scale(1 1) rotate(0) translate(4 195.25)">
<title>Grid::Generate_Grid</title>
<!-- Node1 -->
<g id="Node000001" class="node">
<title>Node1</title>
<g id="a_Node000001"><a xlink:title=" ">
<polygon fill="#999999" stroke="#666666" points="103,-105.25 0,-105.25 0,-86 103,-86 103,-105.25"/>
<text text-anchor="middle" x="51.5" y="-91.75" font-family="Helvetica,sans-Serif" font-size="10.00">Grid::Generate_Grid</text>
</a>
</g>
</g>
<!-- Node2 -->
<g id="Node000002" class="node">
<title>Node2</title>
<g id="a_Node000002"><a xlink:href="../../da/d74/class_grid_a90c5271ba6fdba6112a562693bd9a0f2.html#a90c5271ba6fdba6112a562693bd9a0f2" target="_top" xlink:title=" ">
<polygon fill="white" stroke="#666666" points="235.62,-191.25 166.38,-191.25 166.38,-172 235.62,-172 235.62,-191.25"/>
<text text-anchor="middle" x="201" y="-177.75" font-family="Helvetica,sans-Serif" font-size="10.00">Grid::Elliptic</text>
</a>
</g>
</g>
<!-- Node1&#45;&gt;Node2 -->
<g id="edge1_Node000001_Node000002" class="edge">
<title>Node1&#45;&gt;Node2</title>
<g id="a_edge1_Node000001_Node000002"><a xlink:title=" ">
<path fill="none" stroke="#63b8ff" d="M62.83,-105.66C78.23,-120.12 108.68,-146.82 139,-162.62 144.09,-165.28 149.63,-167.64 155.21,-169.71"/>
<polygon fill="#63b8ff" stroke="#63b8ff" points="153.87,-172.96 164.47,-172.86 156.13,-166.33 153.87,-172.96"/>
</a>
</g>
</g>
<!-- Node3 -->
<g id="Node000003" class="node">
<title>Node3</title>
<g id="a_Node000003"><a xlink:href="../../da/d74/class_grid_ac1e989c2a3c81fd365d9ae57e7f15b61.html#ac1e989c2a3c81fd365d9ae57e7f15b61" target="_top" xlink:title=" ">
<polygon fill="white" stroke="#666666" points="253.62,-153.88 148.38,-153.88 148.38,-123.38 253.62,-123.38 253.62,-153.88"/>
<text text-anchor="start" x="156.38" y="-140.38" font-family="Helvetica,sans-Serif" font-size="10.00">Grid::Estimate_Error</text>
<text text-anchor="middle" x="201" y="-129.12" font-family="Helvetica,sans-Serif" font-size="10.00">_and_Update</text>
</a>
</g>
</g>
<!-- Node1&#45;&gt;Node3 -->
<g id="edge2_Node000001_Node000003" class="edge">
<title>Node1&#45;&gt;Node3</title>
<g id="a_edge2_Node000001_Node000003"><a xlink:title=" ">
<path fill="none" stroke="#63b8ff" d="M87.08,-105.71C102.1,-110.09 120.17,-115.35 137.41,-120.38"/>
<polygon fill="#63b8ff" stroke="#63b8ff" points="135.97,-123.61 146.55,-123.04 137.93,-116.88 135.97,-123.61"/>
</a>
</g>
</g>
<!-- Node4 -->
<g id="Node000004" class="node">
<title>Node4</title>
<g id="a_Node000004"><a xlink:href="../../da/d74/class_grid_ab7768e9853f9b8e4530a25d242fdea1b.html#ab7768e9853f9b8e4530a25d242fdea1b" target="_top" xlink:title=" ">
<polygon fill="white" stroke="#666666" points="263,-105.25 139,-105.25 139,-86 263,-86 263,-105.25"/>
<text text-anchor="middle" x="201" y="-91.75" font-family="Helvetica,sans-Serif" font-size="10.00">Grid::Generate_Grid_List</text>
</a>
</g>
</g>
<!-- Node1&#45;&gt;Node4 -->
<g id="edge3_Node000001_Node000004" class="edge">
<title>Node1&#45;&gt;Node4</title>
<g id="a_edge3_Node000001_Node000004"><a xlink:title=" ">
<path fill="none" stroke="#63b8ff" d="M103.26,-95.62C111.02,-95.62 119.16,-95.62 127.28,-95.62"/>
<polygon fill="#63b8ff" stroke="#63b8ff" points="127.19,-99.13 137.19,-95.63 127.19,-92.13 127.19,-99.13"/>
</a>
</g>
</g>
<!-- Node5 -->
<g id="Node000005" class="node">
<title>Node5</title>
<g id="a_Node000005"><a xlink:href="../../da/d74/class_grid_a246dcc7405f9142fc624bafb817ed9fe.html#a246dcc7405f9142fc624bafb817ed9fe" target="_top" xlink:title=" ">
<polygon fill="white" stroke="#666666" points="261.88,-67.88 140.12,-67.88 140.12,-37.38 261.88,-37.38 261.88,-67.88"/>
<text text-anchor="start" x="148.12" y="-54.38" font-family="Helvetica,sans-Serif" font-size="10.00">Grid::Periodic_Boundary</text>
<text text-anchor="middle" x="201" y="-43.12" font-family="Helvetica,sans-Serif" font-size="10.00">_Condition</text>
</a>
</g>
</g>
<!-- Node1&#45;&gt;Node5 -->
<g id="edge4_Node000001_Node000005" class="edge">
<title>Node1&#45;&gt;Node5</title>
<g id="a_edge4_Node000001_Node000005"><a xlink:title=" ">
<path fill="none" stroke="#63b8ff" d="M87.08,-85.54C101.47,-81.35 118.66,-76.34 135.24,-71.5"/>
<polygon fill="#63b8ff" stroke="#63b8ff" points="135.93,-74.95 144.55,-68.79 133.97,-68.23 135.93,-74.95"/>
</a>
</g>
</g>
<!-- Node6 -->
<g id="Node000006" class="node">
<title>Node6</title>
<g id="a_Node000006"><a xlink:href="../../da/d74/class_grid_a908819a747032ceba240db6d955ff931.html#a908819a747032ceba240db6d955ff931" target="_top" xlink:title=" ">
<polygon fill="white" stroke="#666666" points="228.5,-19.25 173.5,-19.25 173.5,0 228.5,0 228.5,-19.25"/>
<text text-anchor="middle" x="201" y="-5.75" font-family="Helvetica,sans-Serif" font-size="10.00">Grid::TFI</text>
</a>
</g>
</g>
<!-- Node1&#45;&gt;Node6 -->
<g id="edge5_Node000001_Node000006" class="edge">
<title>Node1&#45;&gt;Node6</title>
<g id="a_edge5_Node000001_Node000006"><a xlink:title=" ">
<path fill="none" stroke="#63b8ff" d="M62.83,-85.59C78.23,-71.13 108.68,-44.43 139,-28.62 146.22,-24.86 154.32,-21.69 162.19,-19.09"/>
<polygon fill="#63b8ff" stroke="#63b8ff" points="163.07,-22.48 171.61,-16.22 161.03,-15.79 163.07,-22.48"/>
</a>
</g>
</g>
<!-- Node7 -->
<g id="Node000007" class="node">
<title>Node7</title>
<g id="a_Node000007"><a xlink:href="../../d3/d82/_c_type___elliptic___grid_8cpp_aae4b761a64c952b4c008655d1dc59a12.html#aae4b761a64c952b4c008655d1dc59a12" target="_top" xlink:title=" ">
<polygon fill="white" stroke="#666666" points="327.8,-19.25 299,-19.25 299,0 327.8,0 327.8,-19.25"/>
<text text-anchor="middle" x="313.4" y="-5.75" font-family="Helvetica,sans-Serif" font-size="10.00">y</text>
</a>
</g>
</g>
<!-- Node6&#45;&gt;Node7 -->
<g id="edge6_Node000006_Node000007" class="edge">
<title>Node6&#45;&gt;Node7</title>
<g id="a_edge6_Node000006_Node000007"><a xlink:title=" ">
<path fill="none" stroke="#63b8ff" d="M228.72,-9.62C246.58,-9.62 269.9,-9.62 287.39,-9.62"/>
<polygon fill="#63b8ff" stroke="#63b8ff" points="287.17,-13.13 297.17,-9.63 287.17,-6.13 287.17,-13.13"/>
</a>
</g>
</g>
</g>
</svg>
