<?xml version="1.0" encoding="UTF-8" standalone="no"?>
<!DOCTYPE svg PUBLIC "-//W3C//DTD SVG 1.1//EN"
 "http://www.w3.org/Graphics/SVG/1.1/DTD/svg11.dtd">
<!-- Generated by graphviz version 12.2.1 (20241206.2353)
 -->
<!-- Title: Vector::magnitude Pages: 1 -->
<svg width="225pt" height="64pt"
 viewBox="0.00 0.00 224.50 64.25" xmlns="http://www.w3.org/2000/svg" xmlns:xlink="http://www.w3.org/1999/xlink">
<g id="graph0" class="graph" transform="scale(1 1) rotate(0) translate(4 60.25)">
<title>Vector::magnitude</title>
<!-- Node1 -->
<g id="Node000001" class="node">
<title>Node1</title>
<g id="a_Node000001"><a xlink:title=" ">
<polygon fill="#999999" stroke="#666666" points="216.5,-37.25 121,-37.25 121,-18 216.5,-18 216.5,-37.25"/>
<text text-anchor="middle" x="168.75" y="-23.75" font-family="Helvetica,sans-Serif" font-size="10.00">Vector::magnitude</text>
</a>
</g>
</g>
<!-- Node2 -->
<g id="Node000002" class="node">
<title>Node2</title>
<g id="a_Node000002"><a xlink:href="../../d5/d2a/class_face_adcb31c77e29fb3defcd5d49a4e8f39e4.html#adcb31c77e29fb3defcd5d49a4e8f39e4" target="_top" xlink:title=" ">
<polygon fill="white" stroke="#666666" points="85,-56.25 0,-56.25 0,-37 85,-37 85,-56.25"/>
<text text-anchor="middle" x="42.5" y="-42.75" font-family="Helvetica,sans-Serif" font-size="10.00">Face::operator()</text>
</a>
</g>
</g>
<!-- Node1&#45;&gt;Node2 -->
<g id="edge1_Node000001_Node000002" class="edge">
<title>Node1&#45;&gt;Node2</title>
<g id="a_edge1_Node000001_Node000002"><a xlink:title=" ">
<path fill="none" stroke="#63b8ff" d="M109.66,-36.51C101.42,-37.77 93.08,-39.04 85.24,-40.24"/>
<polygon fill="#63b8ff" stroke="#63b8ff" points="109.92,-40.01 119.28,-35.04 108.87,-33.09 109.92,-40.01"/>
</a>
</g>
</g>
<!-- Node3 -->
<g id="Node000003" class="node">
<title>Node3</title>
<g id="a_Node000003"><a xlink:href="../../d5/d2a/class_face_a5c502c3373dcc429b304b2ea21967cad.html#a5c502c3373dcc429b304b2ea21967cad" target="_top" xlink:title=" ">
<polygon fill="white" stroke="#666666" points="85,-19.25 0,-19.25 0,0 85,0 85,-19.25"/>
<text text-anchor="middle" x="42.5" y="-5.75" font-family="Helvetica,sans-Serif" font-size="10.00">Face::operator()</text>
</a>
</g>
</g>
<!-- Node1&#45;&gt;Node3 -->
<g id="edge2_Node000001_Node000003" class="edge">
<title>Node1&#45;&gt;Node3</title>
<g id="a_edge2_Node000001_Node000003"><a xlink:title=" ">
<path fill="none" stroke="#63b8ff" d="M109.66,-19.21C101.42,-18.02 93.08,-16.81 85.24,-15.67"/>
<polygon fill="#63b8ff" stroke="#63b8ff" points="108.88,-22.63 119.28,-20.6 109.88,-15.71 108.88,-22.63"/>
</a>
</g>
</g>
</g>
</svg>
