<?xml version="1.0" encoding="UTF-8" standalone="no"?>
<!DOCTYPE svg PUBLIC "-//W3C//DTD SVG 1.1//EN"
 "http://www.w3.org/Graphics/SVG/1.1/DTD/svg11.dtd">
<!-- Generated by graphviz version 12.2.1 (20241206.2353)
 -->
<!-- Title: Vector::operator() Pages: 1 -->
<svg width="207pt" height="101pt"
 viewBox="0.00 0.00 206.50 101.25" xmlns="http://www.w3.org/2000/svg" xmlns:xlink="http://www.w3.org/1999/xlink">
<g id="graph0" class="graph" transform="scale(1 1) rotate(0) translate(4 97.25)">
<title>Vector::operator()</title>
<!-- Node1 -->
<g id="Node000001" class="node">
<title>Node1</title>
<g id="a_Node000001"><a xlink:title=" ">
<polygon fill="#999999" stroke="#666666" points="91.75,-56.25 0,-56.25 0,-37 91.75,-37 91.75,-56.25"/>
<text text-anchor="middle" x="45.88" y="-42.75" font-family="Helvetica,sans-Serif" font-size="10.00">Vector::operator()</text>
</a>
</g>
</g>
<!-- Node2 -->
<g id="Node000002" class="node">
<title>Node2</title>
<g id="a_Node000002"><a xlink:href="../../d0/d69/class_point_abbb39fe4de098ab24cd45d251656f080.html#abbb39fe4de098ab24cd45d251656f080" target="_top" xlink:title=" ">
<polygon fill="white" stroke="#666666" points="198.5,-93.25 127.75,-93.25 127.75,-74 198.5,-74 198.5,-93.25"/>
<text text-anchor="middle" x="163.12" y="-79.75" font-family="Helvetica,sans-Serif" font-size="10.00">Point::Get_x</text>
</a>
</g>
</g>
<!-- Node1&#45;&gt;Node2 -->
<g id="edge1_Node000001_Node000002" class="edge">
<title>Node1&#45;&gt;Node2</title>
<g id="a_edge1_Node000001_Node000002"><a xlink:title=" ">
<path fill="none" stroke="#63b8ff" d="M78.37,-56.74C91.2,-60.85 106.22,-65.68 119.98,-70.09"/>
<polygon fill="#63b8ff" stroke="#63b8ff" points="118.64,-73.34 129.23,-73.06 120.78,-66.67 118.64,-73.34"/>
</a>
</g>
</g>
<!-- Node3 -->
<g id="Node000003" class="node">
<title>Node3</title>
<g id="a_Node000003"><a xlink:href="../../d0/d69/class_point_aa0c14d8298c960cc61ebeb5fbe33653b.html#aa0c14d8298c960cc61ebeb5fbe33653b" target="_top" xlink:title=" ">
<polygon fill="white" stroke="#666666" points="198.5,-56.25 127.75,-56.25 127.75,-37 198.5,-37 198.5,-56.25"/>
<text text-anchor="middle" x="163.12" y="-42.75" font-family="Helvetica,sans-Serif" font-size="10.00">Point::Get_y</text>
</a>
</g>
</g>
<!-- Node1&#45;&gt;Node3 -->
<g id="edge2_Node000001_Node000003" class="edge">
<title>Node1&#45;&gt;Node3</title>
<g id="a_edge2_Node000001_Node000003"><a xlink:title=" ">
<path fill="none" stroke="#63b8ff" d="M92.09,-46.62C99.97,-46.62 108.18,-46.62 116.08,-46.62"/>
<polygon fill="#63b8ff" stroke="#63b8ff" points="115.86,-50.13 125.86,-46.63 115.86,-43.13 115.86,-50.13"/>
</a>
</g>
</g>
<!-- Node4 -->
<g id="Node000004" class="node">
<title>Node4</title>
<g id="a_Node000004"><a xlink:href="../../d0/d69/class_point_ac06dbc3b4797e5c498b58c81a70c02a9.html#ac06dbc3b4797e5c498b58c81a70c02a9" target="_top" xlink:title=" ">
<polygon fill="white" stroke="#666666" points="198.5,-19.25 127.75,-19.25 127.75,0 198.5,0 198.5,-19.25"/>
<text text-anchor="middle" x="163.12" y="-5.75" font-family="Helvetica,sans-Serif" font-size="10.00">Point::Get_z</text>
</a>
</g>
</g>
<!-- Node1&#45;&gt;Node4 -->
<g id="edge3_Node000001_Node000004" class="edge">
<title>Node1&#45;&gt;Node4</title>
<g id="a_edge3_Node000001_Node000004"><a xlink:title=" ">
<path fill="none" stroke="#63b8ff" d="M78.37,-36.51C91.2,-32.4 106.22,-27.57 119.98,-23.16"/>
<polygon fill="#63b8ff" stroke="#63b8ff" points="120.78,-26.58 129.23,-20.19 118.64,-19.91 120.78,-26.58"/>
</a>
</g>
</g>
</g>
</svg>
