<?xml version="1.0" encoding="UTF-8" standalone="no"?>
<!DOCTYPE svg PUBLIC "-//W3C//DTD SVG 1.1//EN"
 "http://www.w3.org/Graphics/SVG/1.1/DTD/svg11.dtd">
<!-- Generated by graphviz version 12.2.1 (20241206.2353)
 -->
<!-- Title: include/Timestep.h Pages: 1 -->
<svg width="480pt" height="83pt"
 viewBox="0.00 0.00 480.25 82.50" xmlns="http://www.w3.org/2000/svg" xmlns:xlink="http://www.w3.org/1999/xlink">
<g id="graph0" class="graph" transform="scale(1 1) rotate(0) translate(4 78.5)">
<title>include/Timestep.h</title>
<!-- Node1 -->
<g id="Node000001" class="node">
<title>Node1</title>
<g id="a_Node000001"><a xlink:title=" ">
<polygon fill="#999999" stroke="#666666" points="291.75,-74.5 193.25,-74.5 193.25,-55.25 291.75,-55.25 291.75,-74.5"/>
<text text-anchor="middle" x="242.5" y="-61" font-family="Helvetica,sans-Serif" font-size="10.00">include/Timestep.h</text>
</a>
</g>
</g>
<!-- Node2 -->
<g id="Node000002" class="node">
<title>Node2</title>
<g id="a_Node000002"><a xlink:href="../../d7/db1/_net___flux_8cpp.html" target="_top" xlink:title=" ">
<polygon fill="white" stroke="#666666" points="91,-19.25 0,-19.25 0,0 91,0 91,-19.25"/>
<text text-anchor="middle" x="45.5" y="-5.75" font-family="Helvetica,sans-Serif" font-size="10.00">src/Net_Flux.cpp</text>
</a>
</g>
</g>
<!-- Node1&#45;&gt;Node2 -->
<g id="edge1_Node000001_Node000002" class="edge">
<title>Node1&#45;&gt;Node2</title>
<g id="a_edge1_Node000001_Node000002"><a xlink:title=" ">
<path fill="none" stroke="#63b8ff" d="M198.37,-51.95C162.26,-42.19 111.97,-28.59 79.08,-19.7"/>
<polygon fill="#63b8ff" stroke="#63b8ff" points="197.05,-55.22 207.62,-54.45 198.88,-48.46 197.05,-55.22"/>
</a>
</g>
</g>
<!-- Node3 -->
<g id="Node000003" class="node">
<title>Node3</title>
<g id="a_Node000003"><a xlink:href="../../d0/d64/_numerical___method_8cpp.html" target="_top" xlink:title=" ">
<polygon fill="white" stroke="#666666" points="242,-19.25 109,-19.25 109,0 242,0 242,-19.25"/>
<text text-anchor="middle" x="175.5" y="-5.75" font-family="Helvetica,sans-Serif" font-size="10.00">src/Numerical_Method.cpp</text>
</a>
</g>
</g>
<!-- Node1&#45;&gt;Node3 -->
<g id="edge2_Node000001_Node000003" class="edge">
<title>Node1&#45;&gt;Node3</title>
<g id="a_edge2_Node000001_Node000003"><a xlink:title=" ">
<path fill="none" stroke="#63b8ff" d="M222.45,-47.94C210.75,-38.64 196.43,-27.26 186.7,-19.52"/>
<polygon fill="#63b8ff" stroke="#63b8ff" points="219.94,-50.42 229.95,-53.9 224.3,-44.94 219.94,-50.42"/>
</a>
</g>
</g>
<!-- Node4 -->
<g id="Node000004" class="node">
<title>Node4</title>
<g id="a_Node000004"><a xlink:href="../../d8/dec/_time___step_8cpp.html" target="_top" xlink:title=" ">
<polygon fill="white" stroke="#666666" points="358.75,-19.25 260.25,-19.25 260.25,0 358.75,0 358.75,-19.25"/>
<text text-anchor="middle" x="309.5" y="-5.75" font-family="Helvetica,sans-Serif" font-size="10.00">src/Time_Step.cpp</text>
</a>
</g>
</g>
<!-- Node1&#45;&gt;Node4 -->
<g id="edge3_Node000001_Node000004" class="edge">
<title>Node1&#45;&gt;Node4</title>
<g id="a_edge3_Node000001_Node000004"><a xlink:title=" ">
<path fill="none" stroke="#63b8ff" d="M262.55,-47.94C274.25,-38.64 288.57,-27.26 298.3,-19.52"/>
<polygon fill="#63b8ff" stroke="#63b8ff" points="260.7,-44.94 255.05,-53.9 265.06,-50.42 260.7,-44.94"/>
</a>
</g>
</g>
<!-- Node5 -->
<g id="Node000005" class="node">
<title>Node5</title>
<g id="a_Node000005"><a xlink:href="../../d8/df4/_w_e_n_o2_d_8cpp.html" target="_top" xlink:title=" ">
<polygon fill="white" stroke="#666666" points="472.25,-19.25 376.75,-19.25 376.75,0 472.25,0 472.25,-19.25"/>
<text text-anchor="middle" x="424.5" y="-5.75" font-family="Helvetica,sans-Serif" font-size="10.00">src/WENO2D.cpp</text>
</a>
</g>
</g>
<!-- Node1&#45;&gt;Node5 -->
<g id="edge4_Node000001_Node000005" class="edge">
<title>Node1&#45;&gt;Node5</title>
<g id="a_edge4_Node000001_Node000005"><a xlink:title=" ">
<path fill="none" stroke="#63b8ff" d="M284.14,-51.69C317.43,-41.95 363.35,-28.52 393.47,-19.7"/>
<polygon fill="#63b8ff" stroke="#63b8ff" points="283.44,-48.25 274.83,-54.42 285.41,-54.97 283.44,-48.25"/>
</a>
</g>
</g>
</g>
</svg>
