<?xml version="1.0" encoding="UTF-8" standalone="no"?>
<!DOCTYPE svg PUBLIC "-//W3C//DTD SVG 1.1//EN"
 "http://www.w3.org/Graphics/SVG/1.1/DTD/svg11.dtd">
<!-- Generated by graphviz version 12.2.1 (20241206.2353)
 -->
<!-- Title: include/Timestep.h Pages: 1 -->
<svg width="665pt" height="94pt"
 viewBox="0.00 0.00 664.75 93.75" xmlns="http://www.w3.org/2000/svg" xmlns:xlink="http://www.w3.org/1999/xlink">
<g id="graph0" class="graph" transform="scale(1 1) rotate(0) translate(4 89.75)">
<title>include/Timestep.h</title>
<!-- Node1 -->
<g id="Node000001" class="node">
<title>Node1</title>
<g id="a_Node000001"><a xlink:title=" ">
<polygon fill="#999999" stroke="#666666" points="409.25,-85.75 310.75,-85.75 310.75,-66.5 409.25,-66.5 409.25,-85.75"/>
<text text-anchor="middle" x="360" y="-72.25" font-family="Helvetica,sans-Serif" font-size="10.00">include/Timestep.h</text>
</a>
</g>
</g>
<!-- Node2 -->
<g id="Node000002" class="node">
<title>Node2</title>
<g id="a_Node000002"><a xlink:href="../../d2/dec/_parallel___net___flux___evaluation_8cpp.html" target="_top" xlink:title=" ">
<polygon fill="white" stroke="#666666" points="166,-30.5 0,-30.5 0,0 166,0 166,-30.5"/>
<text text-anchor="start" x="8" y="-17" font-family="Helvetica,sans-Serif" font-size="10.00">Parallel_Method_Kernels</text>
<text text-anchor="middle" x="83" y="-5.75" font-family="Helvetica,sans-Serif" font-size="10.00">/Parallel_Net_Flux_Evaluation.cpp</text>
</a>
</g>
</g>
<!-- Node1&#45;&gt;Node2 -->
<g id="edge1_Node000001_Node000002" class="edge">
<title>Node1&#45;&gt;Node2</title>
<g id="a_edge1_Node000001_Node000002"><a xlink:title=" ">
<path fill="none" stroke="#63b8ff" d="M306.29,-63.71C262.32,-54.36 199.83,-41.08 152.14,-30.94"/>
<polygon fill="#63b8ff" stroke="#63b8ff" points="305.34,-67.08 315.85,-65.74 306.79,-60.24 305.34,-67.08"/>
</a>
</g>
</g>
<!-- Node3 -->
<g id="Node000003" class="node">
<title>Node3</title>
<g id="a_Node000003"><a xlink:href="../../d7/db1/_net___flux_8cpp.html" target="_top" xlink:title=" ">
<polygon fill="white" stroke="#666666" points="275.5,-24.88 184.5,-24.88 184.5,-5.63 275.5,-5.63 275.5,-24.88"/>
<text text-anchor="middle" x="230" y="-11.38" font-family="Helvetica,sans-Serif" font-size="10.00">src/Net_Flux.cpp</text>
</a>
</g>
</g>
<!-- Node1&#45;&gt;Node3 -->
<g id="edge2_Node000001_Node000003" class="edge">
<title>Node1&#45;&gt;Node3</title>
<g id="a_edge2_Node000001_Node000003"><a xlink:title=" ">
<path fill="none" stroke="#63b8ff" d="M329.74,-61.42C305.12,-50.27 271.1,-34.87 249.84,-25.23"/>
<polygon fill="#63b8ff" stroke="#63b8ff" points="328.04,-64.49 338.59,-65.43 330.93,-58.12 328.04,-64.49"/>
</a>
</g>
</g>
<!-- Node4 -->
<g id="Node000004" class="node">
<title>Node4</title>
<g id="a_Node000004"><a xlink:href="../../d0/d64/_numerical___method_8cpp.html" target="_top" xlink:title=" ">
<polygon fill="white" stroke="#666666" points="426.5,-24.88 293.5,-24.88 293.5,-5.63 426.5,-5.63 426.5,-24.88"/>
<text text-anchor="middle" x="360" y="-11.38" font-family="Helvetica,sans-Serif" font-size="10.00">src/Numerical_Method.cpp</text>
</a>
</g>
</g>
<!-- Node1&#45;&gt;Node4 -->
<g id="edge3_Node000001_Node000004" class="edge">
<title>Node1&#45;&gt;Node4</title>
<g id="a_edge3_Node000001_Node000004"><a xlink:title=" ">
<path fill="none" stroke="#63b8ff" d="M360,-54.7C360,-44.67 360,-33.08 360,-25.28"/>
<polygon fill="#63b8ff" stroke="#63b8ff" points="356.5,-54.67 360,-64.67 363.5,-54.67 356.5,-54.67"/>
</a>
</g>
</g>
<!-- Node5 -->
<g id="Node000005" class="node">
<title>Node5</title>
<g id="a_Node000005"><a xlink:href="../../d8/dec/_time___step_8cpp.html" target="_top" xlink:title=" ">
<polygon fill="white" stroke="#666666" points="543.25,-24.88 444.75,-24.88 444.75,-5.63 543.25,-5.63 543.25,-24.88"/>
<text text-anchor="middle" x="494" y="-11.38" font-family="Helvetica,sans-Serif" font-size="10.00">src/Time_Step.cpp</text>
</a>
</g>
</g>
<!-- Node1&#45;&gt;Node5 -->
<g id="edge4_Node000001_Node000005" class="edge">
<title>Node1&#45;&gt;Node5</title>
<g id="a_edge4_Node000001_Node000005"><a xlink:title=" ">
<path fill="none" stroke="#63b8ff" d="M390.85,-61.57C416.25,-50.41 451.53,-34.91 473.55,-25.23"/>
<polygon fill="#63b8ff" stroke="#63b8ff" points="389.78,-58.22 382.03,-65.45 392.59,-64.63 389.78,-58.22"/>
</a>
</g>
</g>
<!-- Node6 -->
<g id="Node000006" class="node">
<title>Node6</title>
<g id="a_Node000006"><a xlink:href="../../d8/df4/_w_e_n_o2_d_8cpp.html" target="_top" xlink:title=" ">
<polygon fill="white" stroke="#666666" points="656.75,-24.88 561.25,-24.88 561.25,-5.63 656.75,-5.63 656.75,-24.88"/>
<text text-anchor="middle" x="609" y="-11.38" font-family="Helvetica,sans-Serif" font-size="10.00">src/WENO2D.cpp</text>
</a>
</g>
</g>
<!-- Node1&#45;&gt;Node6 -->
<g id="edge5_Node000001_Node000006" class="edge">
<title>Node1&#45;&gt;Node6</title>
<g id="a_edge5_Node000001_Node000006"><a xlink:title=" ">
<path fill="none" stroke="#63b8ff" d="M411.11,-63.49C449.83,-54.62 504.31,-42 552,-30.5 558.84,-28.85 566.14,-27.05 573.14,-25.31"/>
<polygon fill="#63b8ff" stroke="#63b8ff" points="410.57,-60.02 401.6,-65.66 412.13,-66.85 410.57,-60.02"/>
</a>
</g>
</g>
</g>
</svg>
