<?xml version="1.0" encoding="UTF-8" standalone="no"?>
<!DOCTYPE svg PUBLIC "-//W3C//DTD SVG 1.1//EN"
 "http://www.w3.org/Graphics/SVG/1.1/DTD/svg11.dtd">
<!-- Generated by graphviz version 12.2.1 (20241206.2353)
 -->
<!-- Title: Q Pages: 1 -->
<svg width="612pt" height="125pt"
 viewBox="0.00 0.00 611.55 125.25" xmlns="http://www.w3.org/2000/svg" xmlns:xlink="http://www.w3.org/1999/xlink">
<g id="graph0" class="graph" transform="scale(1 1) rotate(0) translate(4 121.25)">
<title>Q</title>
<!-- Node1 -->
<g id="Node000001" class="node">
<title>Node1</title>
<g id="a_Node000001"><a xlink:title=" ">
<polygon fill="#999999" stroke="#666666" points="603.55,-56.25 574.75,-56.25 574.75,-37 603.55,-37 603.55,-56.25"/>
<text text-anchor="middle" x="589.15" y="-42.75" font-family="Helvetica,sans-Serif" font-size="10.00">Q</text>
</a>
</g>
</g>
<!-- Node2 -->
<g id="Node000002" class="node">
<title>Node2</title>
<g id="a_Node000002"><a xlink:href="../../d5/d2a/class_face_ac4c4a64de5a6e3a3fbc08a00392e251b.html#ac4c4a64de5a6e3a3fbc08a00392e251b" target="_top" xlink:title=" ">
<polygon fill="white" stroke="#666666" points="538.75,-104.88 421.5,-104.88 421.5,-74.38 538.75,-74.38 538.75,-104.88"/>
<text text-anchor="start" x="429.5" y="-91.38" font-family="Helvetica,sans-Serif" font-size="10.00">Face::Flux_From_Face</text>
<text text-anchor="middle" x="480.12" y="-80.12" font-family="Helvetica,sans-Serif" font-size="10.00">_Central</text>
</a>
</g>
</g>
<!-- Node1&#45;&gt;Node2 -->
<g id="edge1_Node000001_Node000002" class="edge">
<title>Node1&#45;&gt;Node2</title>
<g id="a_edge1_Node000001_Node000002"><a xlink:title=" ">
<path fill="none" stroke="#63b8ff" d="M564.14,-56.27C551.1,-61.51 534.66,-68.11 519.86,-74.06"/>
<polygon fill="#63b8ff" stroke="#63b8ff" points="565.22,-59.61 573.19,-52.64 562.61,-53.12 565.22,-59.61"/>
</a>
</g>
</g>
<!-- Node7 -->
<g id="Node000007" class="node">
<title>Node7</title>
<g id="a_Node000007"><a xlink:href="../../db/df6/_global___functions_8cpp_ab91fd93bd6219ed2fa406a43920cfd2b.html#ab91fd93bd6219ed2fa406a43920cfd2b" target="_top" xlink:title=" ">
<polygon fill="white" stroke="#666666" points="507.62,-56.25 452.62,-56.25 452.62,-37 507.62,-37 507.62,-56.25"/>
<text text-anchor="middle" x="480.12" y="-42.75" font-family="Helvetica,sans-Serif" font-size="10.00">operator*</text>
</a>
</g>
</g>
<!-- Node1&#45;&gt;Node7 -->
<g id="edge6_Node000001_Node000007" class="edge">
<title>Node1&#45;&gt;Node7</title>
<g id="a_edge6_Node000001_Node000007"><a xlink:title=" ">
<path fill="none" stroke="#63b8ff" d="M563.13,-46.62C546.62,-46.62 525,-46.62 508.11,-46.62"/>
<polygon fill="#63b8ff" stroke="#63b8ff" points="563.08,-50.13 573.08,-46.63 563.08,-43.13 563.08,-50.13"/>
</a>
</g>
</g>
<!-- Node8 -->
<g id="Node000008" class="node">
<title>Node8</title>
<g id="a_Node000008"><a xlink:href="../../d3/d82/_c_type___elliptic___grid_8cpp_acbf88f0a26870585d9ad602e89cb5944.html#acbf88f0a26870585d9ad602e89cb5944" target="_top" xlink:title=" ">
<polygon fill="white" stroke="#666666" points="523.38,-19.25 436.88,-19.25 436.88,0 523.38,0 523.38,-19.25"/>
<text text-anchor="middle" x="480.12" y="-5.75" font-family="Helvetica,sans-Serif" font-size="10.00">solveEllipticGrid</text>
</a>
</g>
</g>
<!-- Node1&#45;&gt;Node8 -->
<g id="edge7_Node000001_Node000008" class="edge">
<title>Node1&#45;&gt;Node8</title>
<g id="a_edge7_Node000001_Node000008"><a xlink:title=" ">
<path fill="none" stroke="#63b8ff" d="M563.93,-36.95C555.95,-33.86 547.01,-30.5 538.75,-27.62 531.03,-24.94 522.66,-22.22 514.76,-19.73"/>
<polygon fill="#63b8ff" stroke="#63b8ff" points="562.4,-40.11 572.99,-40.51 564.96,-33.6 562.4,-40.11"/>
</a>
</g>
</g>
<!-- Node3 -->
<g id="Node000003" class="node">
<title>Node3</title>
<g id="a_Node000003"><a xlink:href="../../d5/d2a/class_face_a7edd7ef2c3e6faf1d13c186536039f60.html#a7edd7ef2c3e6faf1d13c186536039f60" target="_top" xlink:title=" ">
<polygon fill="white" stroke="#666666" points="385.5,-99.25 268.25,-99.25 268.25,-80 385.5,-80 385.5,-99.25"/>
<text text-anchor="middle" x="326.88" y="-85.75" font-family="Helvetica,sans-Serif" font-size="10.00">Face::Flux_From_Face</text>
</a>
</g>
</g>
<!-- Node2&#45;&gt;Node3 -->
<g id="edge2_Node000002_Node000003" class="edge">
<title>Node2&#45;&gt;Node3</title>
<g id="a_edge2_Node000002_Node000003"><a xlink:title=" ">
<path fill="none" stroke="#63b8ff" d="M409.73,-89.62C401.63,-89.62 393.43,-89.62 385.51,-89.62"/>
<polygon fill="#63b8ff" stroke="#63b8ff" points="409.57,-93.13 419.57,-89.63 409.57,-86.13 409.57,-93.13"/>
</a>
</g>
</g>
<!-- Node4 -->
<g id="Node000004" class="node">
<title>Node4</title>
<g id="a_Node000004"><a xlink:href="../../dc/d9f/struct_cell_a4a591da0b84980196864d92dea915c67.html#a4a591da0b84980196864d92dea915c67" target="_top" xlink:title=" ">
<polygon fill="white" stroke="#666666" points="232.25,-117.25 93.25,-117.25 93.25,-98 232.25,-98 232.25,-117.25"/>
<text text-anchor="middle" x="162.75" y="-103.75" font-family="Helvetica,sans-Serif" font-size="10.00">Cell::Evaluate_FluxonFaces</text>
</a>
</g>
</g>
<!-- Node3&#45;&gt;Node4 -->
<g id="edge3_Node000003_Node000004" class="edge">
<title>Node3&#45;&gt;Node4</title>
<g id="a_edge3_Node000003_Node000004"><a xlink:title=" ">
<path fill="none" stroke="#63b8ff" d="M256.63,-97.31C248.63,-98.2 240.47,-99.11 232.48,-99.99"/>
<polygon fill="#63b8ff" stroke="#63b8ff" points="256.75,-100.82 266.3,-96.24 255.97,-93.86 256.75,-100.82"/>
</a>
</g>
</g>
<!-- Node6 -->
<g id="Node000006" class="node">
<title>Node6</title>
<g id="a_Node000006"><a xlink:href="../../dc/d9f/struct_cell_af0b9b19aa3d5c463bfadc936bbcd83dc.html#af0b9b19aa3d5c463bfadc936bbcd83dc" target="_top" xlink:title=" ">
<polygon fill="white" stroke="#666666" points="209,-80.25 116.5,-80.25 116.5,-61 209,-61 209,-80.25"/>
<text text-anchor="middle" x="162.75" y="-66.75" font-family="Helvetica,sans-Serif" font-size="10.00">Cell::Test_Fluxes</text>
</a>
</g>
</g>
<!-- Node3&#45;&gt;Node6 -->
<g id="edge5_Node000003_Node000006" class="edge">
<title>Node3&#45;&gt;Node6</title>
<g id="a_edge5_Node000003_Node000006"><a xlink:title=" ">
<path fill="none" stroke="#63b8ff" d="M256.39,-81.48C240.52,-79.62 224.05,-77.69 209.47,-75.98"/>
<polygon fill="#63b8ff" stroke="#63b8ff" points="255.96,-84.96 266.3,-82.64 256.77,-78 255.96,-84.96"/>
</a>
</g>
</g>
<!-- Node5 -->
<g id="Node000005" class="node">
<title>Node5</title>
<g id="a_Node000005"><a xlink:href="../../dc/d9f/struct_cell_aaf94e79f1a6eaba16660a81b86b5d4c1.html#aaf94e79f1a6eaba16660a81b86b5d4c1" target="_top" xlink:title=" ">
<polygon fill="white" stroke="#666666" points="57.25,-117.25 0,-117.25 0,-98 57.25,-98 57.25,-117.25"/>
<text text-anchor="middle" x="28.62" y="-103.75" font-family="Helvetica,sans-Serif" font-size="10.00">Cell::Rk4</text>
</a>
</g>
</g>
<!-- Node4&#45;&gt;Node5 -->
<g id="edge4_Node000004_Node000005" class="edge">
<title>Node4&#45;&gt;Node5</title>
<g id="a_edge4_Node000004_Node000005"><a xlink:title=" ">
<path fill="none" stroke="#63b8ff" d="M81.6,-107.62C73.06,-107.62 64.84,-107.62 57.56,-107.62"/>
<polygon fill="#63b8ff" stroke="#63b8ff" points="81.47,-111.13 91.47,-107.63 81.47,-104.13 81.47,-111.13"/>
</a>
</g>
</g>
<!-- Node9 -->
<g id="Node000009" class="node">
<title>Node9</title>
<g id="a_Node000009"><a xlink:href="../../d3/d82/_c_type___elliptic___grid_8cpp_ae66f6b31b5ad750f1fe042a706a4e3d4.html#ae66f6b31b5ad750f1fe042a706a4e3d4" target="_top" xlink:title=" ">
<polygon fill="white" stroke="#666666" points="345.38,-19.25 308.38,-19.25 308.38,0 345.38,0 345.38,-19.25"/>
<text text-anchor="middle" x="326.88" y="-5.75" font-family="Helvetica,sans-Serif" font-size="10.00">main</text>
</a>
</g>
</g>
<!-- Node8&#45;&gt;Node9 -->
<g id="edge8_Node000008_Node000009" class="edge">
<title>Node8&#45;&gt;Node9</title>
<g id="a_edge8_Node000008_Node000009"><a xlink:title=" ">
<path fill="none" stroke="#63b8ff" d="M425.33,-9.62C397.39,-9.62 365.1,-9.62 345.6,-9.62"/>
<polygon fill="#63b8ff" stroke="#63b8ff" points="425.08,-13.13 435.08,-9.63 425.08,-6.13 425.08,-13.13"/>
</a>
</g>
</g>
</g>
</svg>
