<?xml version="1.0" encoding="UTF-8" standalone="no"?>
<!DOCTYPE svg PUBLIC "-//W3C//DTD SVG 1.1//EN"
 "http://www.w3.org/Graphics/SVG/1.1/DTD/svg11.dtd">
<!-- Generated by graphviz version 12.2.1 (20241206.2353)
 -->
<!-- Title: main Pages: 1 -->
<svg width="232pt" height="138pt"
 viewBox="0.00 0.00 232.30 138.25" xmlns="http://www.w3.org/2000/svg" xmlns:xlink="http://www.w3.org/1999/xlink">
<g id="graph0" class="graph" transform="scale(1 1) rotate(0) translate(4 134.25)">
<title>main</title>
<!-- Node1 -->
<g id="Node000001" class="node">
<title>Node1</title>
<g id="a_Node000001"><a xlink:title=" ">
<polygon fill="#999999" stroke="#666666" points="37,-93.25 0,-93.25 0,-74 37,-74 37,-93.25"/>
<text text-anchor="middle" x="18.5" y="-79.75" font-family="Helvetica,sans-Serif" font-size="10.00">main</text>
</a>
</g>
</g>
<!-- Node2 -->
<g id="Node000002" class="node">
<title>Node2</title>
<g id="a_Node000002"><a xlink:href="../../d3/d82/_c_type___elliptic___grid_8cpp_a871e0a1e3ae5655a6e3631c5c0393af4.html#a871e0a1e3ae5655a6e3631c5c0393af4" target="_top" xlink:title=" ">
<polygon fill="white" stroke="#666666" points="150.88,-93.25 81.62,-93.25 81.62,-74 150.88,-74 150.88,-93.25"/>
<text text-anchor="middle" x="116.25" y="-79.75" font-family="Helvetica,sans-Serif" font-size="10.00">initializeGrid</text>
</a>
</g>
</g>
<!-- Node1&#45;&gt;Node2 -->
<g id="edge1_Node000001_Node000002" class="edge">
<title>Node1&#45;&gt;Node2</title>
<g id="a_edge1_Node000001_Node000002"><a xlink:title=" ">
<path fill="none" stroke="#63b8ff" d="M37.06,-83.62C46.29,-83.62 58.08,-83.62 69.69,-83.62"/>
<polygon fill="#63b8ff" stroke="#63b8ff" points="69.62,-87.13 79.62,-83.63 69.62,-80.13 69.62,-87.13"/>
</a>
</g>
</g>
<!-- Node5 -->
<g id="Node000005" class="node">
<title>Node5</title>
<g id="a_Node000005"><a xlink:href="../../d3/d82/_c_type___elliptic___grid_8cpp_acbf88f0a26870585d9ad602e89cb5944.html#acbf88f0a26870585d9ad602e89cb5944" target="_top" xlink:title=" ">
<polygon fill="white" stroke="#666666" points="159.5,-56.25 73,-56.25 73,-37 159.5,-37 159.5,-56.25"/>
<text text-anchor="middle" x="116.25" y="-42.75" font-family="Helvetica,sans-Serif" font-size="10.00">solveEllipticGrid</text>
</a>
</g>
</g>
<!-- Node1&#45;&gt;Node5 -->
<g id="edge4_Node000001_Node000005" class="edge">
<title>Node1&#45;&gt;Node5</title>
<g id="a_edge4_Node000001_Node000005"><a xlink:title=" ">
<path fill="none" stroke="#63b8ff" d="M37.06,-76.84C48.68,-72.35 64.34,-66.3 78.59,-60.79"/>
<polygon fill="#63b8ff" stroke="#63b8ff" points="79.65,-64.13 87.72,-57.26 77.13,-57.6 79.65,-64.13"/>
</a>
</g>
</g>
<!-- Node8 -->
<g id="Node000008" class="node">
<title>Node8</title>
<g id="a_Node000008"><a xlink:href="../../d3/d82/_c_type___elliptic___grid_8cpp_a5548910e5a130b55390401645274a0d2.html#a5548910e5a130b55390401645274a0d2" target="_top" xlink:title=" ">
<polygon fill="white" stroke="#666666" points="144.5,-130.25 88,-130.25 88,-111 144.5,-111 144.5,-130.25"/>
<text text-anchor="middle" x="116.25" y="-116.75" font-family="Helvetica,sans-Serif" font-size="10.00">writeVTK</text>
</a>
</g>
</g>
<!-- Node1&#45;&gt;Node8 -->
<g id="edge9_Node000001_Node000008" class="edge">
<title>Node1&#45;&gt;Node8</title>
<g id="a_edge9_Node000001_Node000008"><a xlink:title=" ">
<path fill="none" stroke="#63b8ff" d="M37.06,-90.41C48.68,-94.9 64.34,-100.95 78.59,-106.46"/>
<polygon fill="#63b8ff" stroke="#63b8ff" points="77.13,-109.65 87.72,-109.99 79.65,-103.12 77.13,-109.65"/>
</a>
</g>
</g>
<!-- Node3 -->
<g id="Node000003" class="node">
<title>Node3</title>
<g id="a_Node000003"><a xlink:href="../../d3/d82/_c_type___elliptic___grid_8cpp_a9d9acf133a5b966f0cbd16a2c57a7d79.html#a9d9acf133a5b966f0cbd16a2c57a7d79" target="_top" xlink:title=" ">
<polygon fill="white" stroke="#666666" points="224.3,-130.25 195.5,-130.25 195.5,-111 224.3,-111 224.3,-130.25"/>
<text text-anchor="middle" x="209.9" y="-116.75" font-family="Helvetica,sans-Serif" font-size="10.00">x</text>
</a>
</g>
</g>
<!-- Node2&#45;&gt;Node3 -->
<g id="edge2_Node000002_Node000003" class="edge">
<title>Node2&#45;&gt;Node3</title>
<g id="a_edge2_Node000002_Node000003"><a xlink:title=" ">
<path fill="none" stroke="#63b8ff" d="M142.29,-93.74C155.49,-99.06 171.61,-105.57 184.69,-110.85"/>
<polygon fill="#63b8ff" stroke="#63b8ff" points="183.25,-114.05 193.84,-114.54 185.87,-107.56 183.25,-114.05"/>
</a>
</g>
</g>
<!-- Node4 -->
<g id="Node000004" class="node">
<title>Node4</title>
<g id="a_Node000004"><a xlink:href="../../d3/d82/_c_type___elliptic___grid_8cpp_aae4b761a64c952b4c008655d1dc59a12.html#aae4b761a64c952b4c008655d1dc59a12" target="_top" xlink:title=" ">
<polygon fill="white" stroke="#666666" points="224.3,-93.25 195.5,-93.25 195.5,-74 224.3,-74 224.3,-93.25"/>
<text text-anchor="middle" x="209.9" y="-79.75" font-family="Helvetica,sans-Serif" font-size="10.00">y</text>
</a>
</g>
</g>
<!-- Node2&#45;&gt;Node4 -->
<g id="edge3_Node000002_Node000004" class="edge">
<title>Node2&#45;&gt;Node4</title>
<g id="a_edge3_Node000002_Node000004"><a xlink:title=" ">
<path fill="none" stroke="#63b8ff" d="M151.12,-83.62C161.99,-83.62 173.83,-83.62 183.95,-83.62"/>
<polygon fill="#63b8ff" stroke="#63b8ff" points="183.74,-87.13 193.74,-83.63 183.74,-80.13 183.74,-87.13"/>
</a>
</g>
</g>
<!-- Node5&#45;&gt;Node3 -->
<g id="edge7_Node000005_Node000003" class="edge">
<title>Node5&#45;&gt;Node3</title>
<g id="a_edge7_Node000005_Node000003"><a xlink:title=" ">
<path fill="none" stroke="#63b8ff" d="M145.47,-56.56C150.36,-58.86 155.23,-61.54 159.5,-64.62 167.19,-70.17 182.21,-87.66 193.68,-101.63"/>
<polygon fill="#63b8ff" stroke="#63b8ff" points="190.95,-103.82 199.97,-109.38 196.39,-99.41 190.95,-103.82"/>
</a>
</g>
</g>
<!-- Node5&#45;&gt;Node4 -->
<g id="edge8_Node000005_Node000004" class="edge">
<title>Node5&#45;&gt;Node4</title>
<g id="a_edge8_Node000005_Node000004"><a xlink:title=" ">
<path fill="none" stroke="#63b8ff" d="M142.29,-56.74C155.49,-62.06 171.61,-68.57 184.69,-73.85"/>
<polygon fill="#63b8ff" stroke="#63b8ff" points="183.25,-77.05 193.84,-77.54 185.87,-70.56 183.25,-77.05"/>
</a>
</g>
</g>
<!-- Node6 -->
<g id="Node000006" class="node">
<title>Node6</title>
<g id="a_Node000006"><a xlink:href="../../d3/d82/_c_type___elliptic___grid_8cpp_a6122be421b972a00ce8e6e636589966d.html#a6122be421b972a00ce8e6e636589966d" target="_top" xlink:title=" ">
<polygon fill="white" stroke="#666666" points="224.3,-56.25 195.5,-56.25 195.5,-37 224.3,-37 224.3,-56.25"/>
<text text-anchor="middle" x="209.9" y="-42.75" font-family="Helvetica,sans-Serif" font-size="10.00">P</text>
</a>
</g>
</g>
<!-- Node5&#45;&gt;Node6 -->
<g id="edge5_Node000005_Node000006" class="edge">
<title>Node5&#45;&gt;Node6</title>
<g id="a_edge5_Node000005_Node000006"><a xlink:title=" ">
<path fill="none" stroke="#63b8ff" d="M159.86,-46.62C168,-46.62 176.28,-46.62 183.66,-46.62"/>
<polygon fill="#63b8ff" stroke="#63b8ff" points="183.54,-50.13 193.54,-46.63 183.54,-43.13 183.54,-50.13"/>
</a>
</g>
</g>
<!-- Node7 -->
<g id="Node000007" class="node">
<title>Node7</title>
<g id="a_Node000007"><a xlink:href="../../d3/d82/_c_type___elliptic___grid_8cpp_ab180cb902cf4be5a8d26b78172e9491f.html#ab180cb902cf4be5a8d26b78172e9491f" target="_top" xlink:title=" ">
<polygon fill="white" stroke="#666666" points="224.3,-19.25 195.5,-19.25 195.5,0 224.3,0 224.3,-19.25"/>
<text text-anchor="middle" x="209.9" y="-5.75" font-family="Helvetica,sans-Serif" font-size="10.00">Q</text>
</a>
</g>
</g>
<!-- Node5&#45;&gt;Node7 -->
<g id="edge6_Node000005_Node000007" class="edge">
<title>Node5&#45;&gt;Node7</title>
<g id="a_edge6_Node000005_Node000007"><a xlink:title=" ">
<path fill="none" stroke="#63b8ff" d="M142.29,-36.51C155.49,-31.19 171.61,-24.68 184.69,-19.4"/>
<polygon fill="#63b8ff" stroke="#63b8ff" points="185.87,-22.69 193.84,-15.71 183.25,-16.2 185.87,-22.69"/>
</a>
</g>
</g>
<!-- Node8&#45;&gt;Node3 -->
<g id="edge10_Node000008_Node000003" class="edge">
<title>Node8&#45;&gt;Node3</title>
<g id="a_edge10_Node000008_Node000003"><a xlink:title=" ">
<path fill="none" stroke="#63b8ff" d="M144.75,-120.62C157.24,-120.62 171.92,-120.62 184.07,-120.62"/>
<polygon fill="#63b8ff" stroke="#63b8ff" points="183.71,-124.13 193.71,-120.63 183.71,-117.13 183.71,-124.13"/>
</a>
</g>
</g>
<!-- Node8&#45;&gt;Node4 -->
<g id="edge11_Node000008_Node000004" class="edge">
<title>Node8&#45;&gt;Node4</title>
<g id="a_edge11_Node000008_Node000004"><a xlink:title=" ">
<path fill="none" stroke="#63b8ff" d="M142.29,-110.51C155.49,-105.19 171.61,-98.68 184.69,-93.4"/>
<polygon fill="#63b8ff" stroke="#63b8ff" points="185.87,-96.69 193.84,-89.71 183.25,-90.2 185.87,-96.69"/>
</a>
</g>
</g>
</g>
</svg>
