<?xml version="1.0" encoding="UTF-8" standalone="no"?>
<!DOCTYPE svg PUBLIC "-//W3C//DTD SVG 1.1//EN"
 "http://www.w3.org/Graphics/SVG/1.1/DTD/svg11.dtd">
<!-- Generated by graphviz version 12.2.1 (20241206.2353)
 -->
<!-- Title: include/definitions.h Pages: 1 -->
<svg width="1445pt" height="83pt"
 viewBox="0.00 0.00 1444.62 82.50" xmlns="http://www.w3.org/2000/svg" xmlns:xlink="http://www.w3.org/1999/xlink">
<g id="graph0" class="graph" transform="scale(1 1) rotate(0) translate(4 78.5)">
<title>include/definitions.h</title>
<!-- Node1 -->
<g id="Node000001" class="node">
<title>Node1</title>
<g id="a_Node000001"><a xlink:title="Header file containing global constants, structures, and function declarations for the solver.">
<polygon fill="#999999" stroke="#666666" points="725.88,-74.5 623.62,-74.5 623.62,-55.25 725.88,-55.25 725.88,-74.5"/>
<text text-anchor="middle" x="674.75" y="-61" font-family="Helvetica,sans-Serif" font-size="10.00">include/definitions.h</text>
</a>
</g>
</g>
<!-- Node2 -->
<g id="Node000002" class="node">
<title>Node2</title>
<g id="a_Node000002"><a xlink:title=" ">
<polygon fill="#e0e0e0" stroke="#999999" points="53.5,-19.25 0,-19.25 0,0 53.5,0 53.5,-19.25"/>
<text text-anchor="middle" x="26.75" y="-5.75" font-family="Helvetica,sans-Serif" font-size="10.00">iostream</text>
</a>
</g>
</g>
<!-- Node1&#45;&gt;Node2 -->
<g id="edge1_Node000001_Node000002" class="edge">
<title>Node1&#45;&gt;Node2</title>
<g id="a_edge1_Node000001_Node000002"><a xlink:title=" ">
<path fill="none" stroke="#63b8ff" d="M623.15,-63.05C519.13,-60.77 276.77,-52.25 65.12,-19.55"/>
<polygon fill="#63b8ff" stroke="#63b8ff" points="65.71,-16.1 55.29,-18 64.62,-23.01 65.71,-16.1"/>
</a>
</g>
</g>
<!-- Node3 -->
<g id="Node000003" class="node">
<title>Node3</title>
<g id="a_Node000003"><a xlink:title=" ">
<polygon fill="#e0e0e0" stroke="#999999" points="120.25,-19.25 71.25,-19.25 71.25,0 120.25,0 120.25,-19.25"/>
<text text-anchor="middle" x="95.75" y="-5.75" font-family="Helvetica,sans-Serif" font-size="10.00">fstream</text>
</a>
</g>
</g>
<!-- Node1&#45;&gt;Node3 -->
<g id="edge2_Node000001_Node000003" class="edge">
<title>Node1&#45;&gt;Node3</title>
<g id="a_edge2_Node000001_Node000003"><a xlink:title=" ">
<path fill="none" stroke="#63b8ff" d="M623.19,-62.65C527.83,-59.73 317.41,-50.28 131.86,-19.5"/>
<polygon fill="#63b8ff" stroke="#63b8ff" points="132.45,-16.06 122.01,-17.84 131.29,-22.96 132.45,-16.06"/>
</a>
</g>
</g>
<!-- Node4 -->
<g id="Node000004" class="node">
<title>Node4</title>
<g id="a_Node000004"><a xlink:title=" ">
<polygon fill="#e0e0e0" stroke="#999999" points="181.25,-19.25 138.25,-19.25 138.25,0 181.25,0 181.25,-19.25"/>
<text text-anchor="middle" x="159.75" y="-5.75" font-family="Helvetica,sans-Serif" font-size="10.00">vector</text>
</a>
</g>
</g>
<!-- Node1&#45;&gt;Node4 -->
<g id="edge3_Node000001_Node000004" class="edge">
<title>Node1&#45;&gt;Node4</title>
<g id="a_edge3_Node000001_Node000004"><a xlink:title=" ">
<path fill="none" stroke="#63b8ff" d="M623.47,-62.17C536.66,-58.62 355.17,-48.38 192.81,-19.28"/>
<polygon fill="#63b8ff" stroke="#63b8ff" points="193.61,-15.87 183.14,-17.51 192.35,-22.75 193.61,-15.87"/>
</a>
</g>
</g>
<!-- Node5 -->
<g id="Node000005" class="node">
<title>Node5</title>
<g id="a_Node000005"><a xlink:title=" ">
<polygon fill="#e0e0e0" stroke="#999999" points="239.75,-19.25 199.75,-19.25 199.75,0 239.75,0 239.75,-19.25"/>
<text text-anchor="middle" x="219.75" y="-5.75" font-family="Helvetica,sans-Serif" font-size="10.00">string</text>
</a>
</g>
</g>
<!-- Node1&#45;&gt;Node5 -->
<g id="edge4_Node000001_Node000005" class="edge">
<title>Node1&#45;&gt;Node5</title>
<g id="a_edge4_Node000001_Node000005"><a xlink:title=" ">
<path fill="none" stroke="#63b8ff" d="M623.14,-61.55C544.68,-57.34 390.61,-46.44 251.49,-19.45"/>
<polygon fill="#63b8ff" stroke="#63b8ff" points="252.2,-16.03 241.71,-17.52 250.84,-22.89 252.2,-16.03"/>
</a>
</g>
</g>
<!-- Node6 -->
<g id="Node000006" class="node">
<title>Node6</title>
<g id="a_Node000006"><a xlink:title=" ">
<polygon fill="#e0e0e0" stroke="#999999" points="301.25,-19.25 258.25,-19.25 258.25,0 301.25,0 301.25,-19.25"/>
<text text-anchor="middle" x="279.75" y="-5.75" font-family="Helvetica,sans-Serif" font-size="10.00">cmath</text>
</a>
</g>
</g>
<!-- Node1&#45;&gt;Node6 -->
<g id="edge5_Node000001_Node000006" class="edge">
<title>Node1&#45;&gt;Node6</title>
<g id="a_edge5_Node000001_Node000006"><a xlink:title=" ">
<path fill="none" stroke="#63b8ff" d="M623.13,-59.99C554.44,-54.28 429.1,-42.01 312.88,-19.38"/>
<polygon fill="#63b8ff" stroke="#63b8ff" points="313.64,-15.96 303.15,-17.45 312.28,-22.83 313.64,-15.96"/>
</a>
</g>
</g>
<!-- Node7 -->
<g id="Node000007" class="node">
<title>Node7</title>
<g id="a_Node000007"><a xlink:title=" ">
<polygon fill="#e0e0e0" stroke="#999999" points="370,-19.25 319.5,-19.25 319.5,0 370,0 370,-19.25"/>
<text text-anchor="middle" x="344.75" y="-5.75" font-family="Helvetica,sans-Serif" font-size="10.00">typeinfo</text>
</a>
</g>
</g>
<!-- Node1&#45;&gt;Node7 -->
<g id="edge6_Node000001_Node000007" class="edge">
<title>Node1&#45;&gt;Node7</title>
<g id="a_edge6_Node000001_Node000007"><a xlink:title=" ">
<path fill="none" stroke="#63b8ff" d="M623.15,-57.67C566.24,-50.47 471.77,-37.5 381.57,-19.66"/>
<polygon fill="#63b8ff" stroke="#63b8ff" points="382.28,-16.23 371.79,-17.69 380.91,-23.09 382.28,-16.23"/>
</a>
</g>
</g>
<!-- Node8 -->
<g id="Node000008" class="node">
<title>Node8</title>
<g id="a_Node000008"><a xlink:title=" ">
<polygon fill="#e0e0e0" stroke="#999999" points="437.62,-19.25 387.88,-19.25 387.88,0 437.62,0 437.62,-19.25"/>
<text text-anchor="middle" x="412.75" y="-5.75" font-family="Helvetica,sans-Serif" font-size="10.00">iomanip</text>
</a>
</g>
</g>
<!-- Node1&#45;&gt;Node8 -->
<g id="edge7_Node000001_Node000008" class="edge">
<title>Node1&#45;&gt;Node8</title>
<g id="a_edge7_Node000001_Node000008"><a xlink:title=" ">
<path fill="none" stroke="#63b8ff" d="M624.32,-54.83C580.45,-46.78 514.92,-34.3 448.98,-19.65"/>
<polygon fill="#63b8ff" stroke="#63b8ff" points="449.96,-16.29 439.44,-17.52 448.43,-23.12 449.96,-16.29"/>
</a>
</g>
</g>
<!-- Node9 -->
<g id="Node000009" class="node">
<title>Node9</title>
<g id="a_Node000009"><a xlink:title=" ">
<polygon fill="#e0e0e0" stroke="#999999" points="497.88,-19.25 455.62,-19.25 455.62,0 497.88,0 497.88,-19.25"/>
<text text-anchor="middle" x="476.75" y="-5.75" font-family="Helvetica,sans-Serif" font-size="10.00">cstdio</text>
</a>
</g>
</g>
<!-- Node1&#45;&gt;Node9 -->
<g id="edge8_Node000001_Node000009" class="edge">
<title>Node1&#45;&gt;Node9</title>
<g id="a_edge8_Node000001_Node000009"><a xlink:title=" ">
<path fill="none" stroke="#63b8ff" d="M639.62,-54.77C607.92,-46.5 559.72,-33.8 509.46,-19.96"/>
<polygon fill="#63b8ff" stroke="#63b8ff" points="510.4,-16.59 499.82,-17.3 508.53,-23.34 510.4,-16.59"/>
</a>
</g>
</g>
<!-- Node10 -->
<g id="Node000010" class="node">
<title>Node10</title>
<g id="a_Node000010"><a xlink:title=" ">
<polygon fill="#e0e0e0" stroke="#999999" points="560,-19.25 515.5,-19.25 515.5,0 560,0 560,-19.25"/>
<text text-anchor="middle" x="537.75" y="-5.75" font-family="Helvetica,sans-Serif" font-size="10.00">cstdlib</text>
</a>
</g>
</g>
<!-- Node1&#45;&gt;Node10 -->
<g id="edge9_Node000001_Node000010" class="edge">
<title>Node1&#45;&gt;Node10</title>
<g id="a_edge9_Node000001_Node000010"><a xlink:title=" ">
<path fill="none" stroke="#63b8ff" d="M651.51,-54.84C629.3,-46.21 595.6,-33.11 570.63,-23.41"/>
<polygon fill="#63b8ff" stroke="#63b8ff" points="572.19,-20.26 561.6,-19.9 569.66,-26.78 572.19,-20.26"/>
</a>
</g>
</g>
<!-- Node11 -->
<g id="Node000011" class="node">
<title>Node11</title>
<g id="a_Node000011"><a xlink:title=" ">
<polygon fill="#e0e0e0" stroke="#999999" points="633.62,-19.25 577.88,-19.25 577.88,0 633.62,0 633.62,-19.25"/>
<text text-anchor="middle" x="605.75" y="-5.75" font-family="Helvetica,sans-Serif" font-size="10.00">algorithm</text>
</a>
</g>
</g>
<!-- Node1&#45;&gt;Node11 -->
<g id="edge10_Node000001_Node000011" class="edge">
<title>Node1&#45;&gt;Node11</title>
<g id="a_edge10_Node000001_Node000011"><a xlink:title=" ">
<path fill="none" stroke="#63b8ff" d="M663.05,-54.84C652.97,-47.07 638.21,-35.67 626.19,-26.4"/>
<polygon fill="#63b8ff" stroke="#63b8ff" points="628.54,-23.79 618.48,-20.45 624.26,-29.33 628.54,-23.79"/>
</a>
</g>
</g>
<!-- Node12 -->
<g id="Node000012" class="node">
<title>Node12</title>
<g id="a_Node000012"><a xlink:title=" ">
<polygon fill="#e0e0e0" stroke="#999999" points="697.38,-19.25 652.12,-19.25 652.12,0 697.38,0 697.38,-19.25"/>
<text text-anchor="middle" x="674.75" y="-5.75" font-family="Helvetica,sans-Serif" font-size="10.00">chrono</text>
</a>
</g>
</g>
<!-- Node1&#45;&gt;Node12 -->
<g id="edge11_Node000001_Node000012" class="edge">
<title>Node1&#45;&gt;Node12</title>
<g id="a_edge11_Node000001_Node000012"><a xlink:title=" ">
<path fill="none" stroke="#63b8ff" d="M674.75,-55.08C674.75,-48.57 674.75,-39.42 674.75,-31.12"/>
<polygon fill="#63b8ff" stroke="#63b8ff" points="678.25,-31.12 674.75,-21.12 671.25,-31.12 678.25,-31.12"/>
</a>
</g>
</g>
<!-- Node13 -->
<g id="Node000013" class="node">
<title>Node13</title>
<g id="a_Node000013"><a xlink:title=" ">
<polygon fill="#e0e0e0" stroke="#999999" points="755.75,-19.25 715.75,-19.25 715.75,0 755.75,0 755.75,-19.25"/>
<text text-anchor="middle" x="735.75" y="-5.75" font-family="Helvetica,sans-Serif" font-size="10.00">cfloat</text>
</a>
</g>
</g>
<!-- Node1&#45;&gt;Node13 -->
<g id="edge12_Node000001_Node000013" class="edge">
<title>Node1&#45;&gt;Node13</title>
<g id="a_edge12_Node000001_Node000013"><a xlink:title=" ">
<path fill="none" stroke="#63b8ff" d="M685.1,-54.84C693.83,-47.22 706.54,-36.12 717.05,-26.95"/>
<polygon fill="#63b8ff" stroke="#63b8ff" points="719.18,-29.73 724.41,-20.52 714.58,-24.46 719.18,-29.73"/>
</a>
</g>
</g>
<!-- Node14 -->
<g id="Node000014" class="node">
<title>Node14</title>
<g id="a_Node000014"><a xlink:title=" ">
<polygon fill="#e0e0e0" stroke="#999999" points="835.25,-19.25 774.25,-19.25 774.25,0 835.25,0 835.25,-19.25"/>
<text text-anchor="middle" x="804.75" y="-5.75" font-family="Helvetica,sans-Serif" font-size="10.00">filesystem</text>
</a>
</g>
</g>
<!-- Node1&#45;&gt;Node14 -->
<g id="edge13_Node000001_Node000014" class="edge">
<title>Node1&#45;&gt;Node14</title>
<g id="a_edge13_Node000001_Node000014"><a xlink:title=" ">
<path fill="none" stroke="#63b8ff" d="M696.8,-54.84C717.44,-46.39 748.53,-33.65 772.05,-24.02"/>
<polygon fill="#63b8ff" stroke="#63b8ff" points="773.26,-27.31 781.19,-20.28 770.61,-20.83 773.26,-27.31"/>
</a>
</g>
</g>
<!-- Node15 -->
<g id="Node000015" class="node">
<title>Node15</title>
<g id="a_Node000015"><a xlink:title=" ">
<polygon fill="#e0e0e0" stroke="#999999" points="888.12,-19.25 853.38,-19.25 853.38,0 888.12,0 888.12,-19.25"/>
<text text-anchor="middle" x="870.75" y="-5.75" font-family="Helvetica,sans-Serif" font-size="10.00">map</text>
</a>
</g>
</g>
<!-- Node1&#45;&gt;Node15 -->
<g id="edge14_Node000001_Node000015" class="edge">
<title>Node1&#45;&gt;Node15</title>
<g id="a_edge14_Node000001_Node000015"><a xlink:title=" ">
<path fill="none" stroke="#63b8ff" d="M712.08,-54.8C744.29,-46.81 792.28,-34.53 841.94,-19.96"/>
<polygon fill="#63b8ff" stroke="#63b8ff" points="842.85,-23.34 851.44,-17.14 840.86,-16.63 842.85,-23.34"/>
</a>
</g>
</g>
<!-- Node16 -->
<g id="Node000016" class="node">
<title>Node16</title>
<g id="a_Node000016"><a xlink:title=" ">
<polygon fill="#e0e0e0" stroke="#999999" points="965.12,-19.25 906.38,-19.25 906.38,0 965.12,0 965.12,-19.25"/>
<text text-anchor="middle" x="935.75" y="-5.75" font-family="Helvetica,sans-Serif" font-size="10.00">stdexcept</text>
</a>
</g>
</g>
<!-- Node1&#45;&gt;Node16 -->
<g id="edge15_Node000001_Node000016" class="edge">
<title>Node1&#45;&gt;Node16</title>
<g id="a_edge15_Node000001_Node000016"><a xlink:title=" ">
<path fill="none" stroke="#63b8ff" d="M721.15,-54.82C763.73,-46.45 828.85,-33.49 894.91,-19.6"/>
<polygon fill="#63b8ff" stroke="#63b8ff" points="895.41,-23.08 904.47,-17.59 893.96,-16.23 895.41,-23.08"/>
</a>
</g>
</g>
<!-- Node17 -->
<g id="Node000017" class="node">
<title>Node17</title>
<g id="a_Node000017"><a xlink:title=" ">
<polygon fill="#e0e0e0" stroke="#999999" points="1034.38,-19.25 983.12,-19.25 983.12,0 1034.38,0 1034.38,-19.25"/>
<text text-anchor="middle" x="1008.75" y="-5.75" font-family="Helvetica,sans-Serif" font-size="10.00">sstream</text>
</a>
</g>
</g>
<!-- Node1&#45;&gt;Node17 -->
<g id="edge16_Node000001_Node000017" class="edge">
<title>Node1&#45;&gt;Node17</title>
<g id="a_edge16_Node000001_Node000017"><a xlink:title=" ">
<path fill="none" stroke="#63b8ff" d="M726.32,-57.67C783.78,-50.42 879.64,-37.35 971.62,-19.5"/>
<polygon fill="#63b8ff" stroke="#63b8ff" points="972.19,-22.96 981.33,-17.59 970.84,-16.09 972.19,-22.96"/>
</a>
</g>
</g>
<!-- Node18 -->
<g id="Node000018" class="node">
<title>Node18</title>
<g id="a_Node000018"><a xlink:title=" ">
<polygon fill="#e0e0e0" stroke="#999999" points="1135.12,-19.25 1052.38,-19.25 1052.38,0 1135.12,0 1135.12,-19.25"/>
<text text-anchor="middle" x="1093.75" y="-5.75" font-family="Helvetica,sans-Serif" font-size="10.00">unordered_map</text>
</a>
</g>
</g>
<!-- Node1&#45;&gt;Node18 -->
<g id="edge17_Node000001_Node000018" class="edge">
<title>Node1&#45;&gt;Node18</title>
<g id="a_edge17_Node000001_Node000018"><a xlink:title=" ">
<path fill="none" stroke="#63b8ff" d="M726.2,-58.48C795.44,-51.04 922.74,-36.72 1040.99,-19.6"/>
<polygon fill="#63b8ff" stroke="#63b8ff" points="1041.15,-23.11 1050.54,-18.2 1040.13,-16.18 1041.15,-23.11"/>
</a>
</g>
</g>
<!-- Node19 -->
<g id="Node000019" class="node">
<title>Node19</title>
<g id="a_Node000019"><a xlink:title=" ">
<polygon fill="#e0e0e0" stroke="#999999" points="1230.5,-19.25 1153,-19.25 1153,0 1230.5,0 1230.5,-19.25"/>
<text text-anchor="middle" x="1191.75" y="-5.75" font-family="Helvetica,sans-Serif" font-size="10.00">unordered_set</text>
</a>
</g>
</g>
<!-- Node1&#45;&gt;Node19 -->
<g id="edge18_Node000001_Node000019" class="edge">
<title>Node1&#45;&gt;Node19</title>
<g id="a_edge18_Node000001_Node000019"><a xlink:title=" ">
<path fill="none" stroke="#63b8ff" d="M726.27,-60.38C810.75,-54.34 984.25,-40.64 1141.47,-19.45"/>
<polygon fill="#63b8ff" stroke="#63b8ff" points="1141.82,-22.93 1151.26,-18.11 1140.88,-16 1141.82,-22.93"/>
</a>
</g>
</g>
<!-- Node20 -->
<g id="Node000020" class="node">
<title>Node20</title>
<g id="a_Node000020"><a xlink:title=" ">
<polygon fill="#e0e0e0" stroke="#999999" points="1285.25,-19.25 1248.25,-19.25 1248.25,0 1285.25,0 1285.25,-19.25"/>
<text text-anchor="middle" x="1266.75" y="-5.75" font-family="Helvetica,sans-Serif" font-size="10.00">tuple</text>
</a>
</g>
</g>
<!-- Node1&#45;&gt;Node20 -->
<g id="edge19_Node000001_Node000020" class="edge">
<title>Node1&#45;&gt;Node20</title>
<g id="a_edge19_Node000001_Node000020"><a xlink:title=" ">
<path fill="none" stroke="#63b8ff" d="M726.32,-63.75C824.41,-62.67 1044.57,-56.16 1236.85,-19.4"/>
<polygon fill="#63b8ff" stroke="#63b8ff" points="1237.38,-22.86 1246.53,-17.51 1236.04,-15.99 1237.38,-22.86"/>
</a>
</g>
</g>
<!-- Node21 -->
<g id="Node000021" class="node">
<title>Node21</title>
<g id="a_Node000021"><a xlink:title=" ">
<polygon fill="#e0e0e0" stroke="#999999" points="1332.5,-19.25 1303,-19.25 1303,0 1332.5,0 1332.5,-19.25"/>
<text text-anchor="middle" x="1317.75" y="-5.75" font-family="Helvetica,sans-Serif" font-size="10.00">set</text>
</a>
</g>
</g>
<!-- Node1&#45;&gt;Node21 -->
<g id="edge20_Node000001_Node000021" class="edge">
<title>Node1&#45;&gt;Node21</title>
<g id="a_edge20_Node000001_Node000021"><a xlink:title=" ">
<path fill="none" stroke="#63b8ff" d="M726.37,-62.06C851.04,-57.39 1166.91,-43.72 1291.5,-19.32"/>
<polygon fill="#63b8ff" stroke="#63b8ff" points="1292.04,-22.78 1301.11,-17.31 1290.61,-15.93 1292.04,-22.78"/>
</a>
</g>
</g>
<!-- Node22 -->
<g id="Node000022" class="node">
<title>Node22</title>
<g id="a_Node000022"><a xlink:title=" ">
<polygon fill="#e0e0e0" stroke="#999999" points="1436.62,-19.25 1350.88,-19.25 1350.88,0 1436.62,0 1436.62,-19.25"/>
<text text-anchor="middle" x="1393.75" y="-5.75" font-family="Helvetica,sans-Serif" font-size="10.00">boost/regex.hpp</text>
</a>
</g>
</g>
<!-- Node1&#45;&gt;Node22 -->
<g id="edge21_Node000001_Node000022" class="edge">
<title>Node1&#45;&gt;Node22</title>
<g id="a_edge21_Node000001_Node000022"><a xlink:title=" ">
<path fill="none" stroke="#63b8ff" d="M726.37,-62.14C836.87,-58.05 1104.66,-46.16 1339.24,-19.43"/>
<polygon fill="#63b8ff" stroke="#63b8ff" points="1339.35,-22.94 1348.88,-18.32 1338.54,-15.98 1339.35,-22.94"/>
</a>
</g>
</g>
</g>
</svg>
