<?xml version="1.0" encoding="UTF-8" standalone="no"?>
<!DOCTYPE svg PUBLIC "-//W3C//DTD SVG 1.1//EN"
 "http://www.w3.org/Graphics/SVG/1.1/DTD/svg11.dtd">
<!-- Generated by graphviz version 12.2.1 (20241206.2353)
 -->
<!-- Title: include/definitions.h Pages: 1 -->
<svg width="2865pt" height="83pt"
 viewBox="0.00 0.00 2864.88 82.50" xmlns="http://www.w3.org/2000/svg" xmlns:xlink="http://www.w3.org/1999/xlink">
<g id="graph0" class="graph" transform="scale(1 1) rotate(0) translate(4 78.5)">
<title>include/definitions.h</title>
<!-- Node1 -->
<g id="Node000001" class="node">
<title>Node1</title>
<g id="a_Node000001"><a xlink:title="Header file containing global constants, structures, and function declarations for the solver.">
<polygon fill="#999999" stroke="#666666" points="1193.88,-74.5 1091.62,-74.5 1091.62,-55.25 1193.88,-55.25 1193.88,-74.5"/>
<text text-anchor="middle" x="1142.75" y="-61" font-family="Helvetica,sans-Serif" font-size="10.00">include/definitions.h</text>
</a>
</g>
</g>
<!-- Node2 -->
<g id="Node000002" class="node">
<title>Node2</title>
<g id="a_Node000002"><a xlink:title=" ">
<polygon fill="#e0e0e0" stroke="#999999" points="53.5,-19.25 0,-19.25 0,0 53.5,0 53.5,-19.25"/>
<text text-anchor="middle" x="26.75" y="-5.75" font-family="Helvetica,sans-Serif" font-size="10.00">iostream</text>
</a>
</g>
</g>
<!-- Node1&#45;&gt;Node2 -->
<g id="edge1_Node000001_Node000002" class="edge">
<title>Node1&#45;&gt;Node2</title>
<g id="a_edge1_Node000001_Node000002"><a xlink:title=" ">
<path fill="none" stroke="#63b8ff" d="M1091.44,-63.12C908.27,-60.21 286.1,-48.5 64.95,-19.39"/>
<polygon fill="#63b8ff" stroke="#63b8ff" points="65.66,-15.95 55.28,-18.06 64.71,-22.89 65.66,-15.95"/>
</a>
</g>
</g>
<!-- Node3 -->
<g id="Node000003" class="node">
<title>Node3</title>
<g id="a_Node000003"><a xlink:title=" ">
<polygon fill="#e0e0e0" stroke="#999999" points="120.25,-19.25 71.25,-19.25 71.25,0 120.25,0 120.25,-19.25"/>
<text text-anchor="middle" x="95.75" y="-5.75" font-family="Helvetica,sans-Serif" font-size="10.00">fstream</text>
</a>
</g>
</g>
<!-- Node1&#45;&gt;Node3 -->
<g id="edge2_Node000001_Node000003" class="edge">
<title>Node1&#45;&gt;Node3</title>
<g id="a_edge2_Node000001_Node000003"><a xlink:title=" ">
<path fill="none" stroke="#63b8ff" d="M1091.25,-63.05C915.5,-60.01 339.29,-48.17 131.86,-19.35"/>
<polygon fill="#63b8ff" stroke="#63b8ff" points="132.4,-15.89 122,-17.91 131.39,-22.81 132.4,-15.89"/>
</a>
</g>
</g>
<!-- Node4 -->
<g id="Node000004" class="node">
<title>Node4</title>
<g id="a_Node000004"><a xlink:title=" ">
<polygon fill="#e0e0e0" stroke="#999999" points="181.25,-19.25 138.25,-19.25 138.25,0 181.25,0 181.25,-19.25"/>
<text text-anchor="middle" x="159.75" y="-5.75" font-family="Helvetica,sans-Serif" font-size="10.00">vector</text>
</a>
</g>
</g>
<!-- Node1&#45;&gt;Node4 -->
<g id="edge3_Node000001_Node000004" class="edge">
<title>Node1&#45;&gt;Node4</title>
<g id="a_edge3_Node000001_Node000004"><a xlink:title=" ">
<path fill="none" stroke="#63b8ff" d="M1091.13,-62.98C922.49,-59.83 387.92,-47.92 192.88,-19.11"/>
<polygon fill="#63b8ff" stroke="#63b8ff" points="193.54,-15.67 183.13,-17.6 192.47,-22.59 193.54,-15.67"/>
</a>
</g>
</g>
<!-- Node5 -->
<g id="Node000005" class="node">
<title>Node5</title>
<g id="a_Node000005"><a xlink:title=" ">
<polygon fill="#e0e0e0" stroke="#999999" points="239.75,-19.25 199.75,-19.25 199.75,0 239.75,0 239.75,-19.25"/>
<text text-anchor="middle" x="219.75" y="-5.75" font-family="Helvetica,sans-Serif" font-size="10.00">string</text>
</a>
</g>
</g>
<!-- Node1&#45;&gt;Node5 -->
<g id="edge4_Node000001_Node000005" class="edge">
<title>Node1&#45;&gt;Node5</title>
<g id="a_edge4_Node000001_Node000005"><a xlink:title=" ">
<path fill="none" stroke="#63b8ff" d="M1091.4,-62.92C930.11,-59.69 433.99,-47.79 251.5,-19.23"/>
<polygon fill="#63b8ff" stroke="#63b8ff" points="252.13,-15.78 241.69,-17.61 250.99,-22.69 252.13,-15.78"/>
</a>
</g>
</g>
<!-- Node6 -->
<g id="Node000006" class="node">
<title>Node6</title>
<g id="a_Node000006"><a xlink:title=" ">
<polygon fill="#e0e0e0" stroke="#999999" points="301.25,-19.25 258.25,-19.25 258.25,0 301.25,0 301.25,-19.25"/>
<text text-anchor="middle" x="279.75" y="-5.75" font-family="Helvetica,sans-Serif" font-size="10.00">cmath</text>
</a>
</g>
</g>
<!-- Node1&#45;&gt;Node6 -->
<g id="edge5_Node000001_Node000006" class="edge">
<title>Node1&#45;&gt;Node6</title>
<g id="a_edge5_Node000001_Node000006"><a xlink:title=" ">
<path fill="none" stroke="#63b8ff" d="M1091.15,-62.58C937.43,-58.49 483.18,-44.71 312.91,-19.13"/>
<polygon fill="#63b8ff" stroke="#63b8ff" points="313.55,-15.69 303.13,-17.59 312.46,-22.6 313.55,-15.69"/>
</a>
</g>
</g>
<!-- Node7 -->
<g id="Node000007" class="node">
<title>Node7</title>
<g id="a_Node000007"><a xlink:title=" ">
<polygon fill="#e0e0e0" stroke="#999999" points="370,-19.25 319.5,-19.25 319.5,0 370,0 370,-19.25"/>
<text text-anchor="middle" x="344.75" y="-5.75" font-family="Helvetica,sans-Serif" font-size="10.00">typeinfo</text>
</a>
</g>
</g>
<!-- Node1&#45;&gt;Node7 -->
<g id="edge6_Node000001_Node000007" class="edge">
<title>Node1&#45;&gt;Node7</title>
<g id="a_edge6_Node000001_Node000007"><a xlink:title=" ">
<path fill="none" stroke="#63b8ff" d="M1091.43,-64.23C969.61,-64.35 653.44,-60.47 381.54,-19.38"/>
<polygon fill="#63b8ff" stroke="#63b8ff" points="382.17,-15.94 371.76,-17.88 381.11,-22.86 382.17,-15.94"/>
</a>
</g>
</g>
<!-- Node8 -->
<g id="Node000008" class="node">
<title>Node8</title>
<g id="a_Node000008"><a xlink:title=" ">
<polygon fill="#e0e0e0" stroke="#999999" points="437.62,-19.25 387.88,-19.25 387.88,0 437.62,0 437.62,-19.25"/>
<text text-anchor="middle" x="412.75" y="-5.75" font-family="Helvetica,sans-Serif" font-size="10.00">iomanip</text>
</a>
</g>
</g>
<!-- Node1&#45;&gt;Node8 -->
<g id="edge7_Node000001_Node000008" class="edge">
<title>Node1&#45;&gt;Node8</title>
<g id="a_edge7_Node000001_Node000008"><a xlink:title=" ">
<path fill="none" stroke="#63b8ff" d="M1091.31,-63.81C977.24,-62.97 694.4,-57.07 449.17,-19.32"/>
<polygon fill="#63b8ff" stroke="#63b8ff" points="449.81,-15.87 439.39,-17.79 448.73,-22.79 449.81,-15.87"/>
</a>
</g>
</g>
<!-- Node9 -->
<g id="Node000009" class="node">
<title>Node9</title>
<g id="a_Node000009"><a xlink:title=" ">
<polygon fill="#e0e0e0" stroke="#999999" points="497.88,-19.25 455.62,-19.25 455.62,0 497.88,0 497.88,-19.25"/>
<text text-anchor="middle" x="476.75" y="-5.75" font-family="Helvetica,sans-Serif" font-size="10.00">cstdio</text>
</a>
</g>
</g>
<!-- Node1&#45;&gt;Node9 -->
<g id="edge8_Node000001_Node000009" class="edge">
<title>Node1&#45;&gt;Node9</title>
<g id="a_edge8_Node000001_Node000009"><a xlink:title=" ">
<path fill="none" stroke="#63b8ff" d="M1091.19,-63.91C984.16,-63.19 730.1,-57.41 509.4,-19.35"/>
<polygon fill="#63b8ff" stroke="#63b8ff" points="510.2,-15.93 499.74,-17.65 508.99,-22.83 510.2,-15.93"/>
</a>
</g>
</g>
<!-- Node10 -->
<g id="Node000010" class="node">
<title>Node10</title>
<g id="a_Node000010"><a xlink:title=" ">
<polygon fill="#e0e0e0" stroke="#999999" points="560,-19.25 515.5,-19.25 515.5,0 560,0 560,-19.25"/>
<text text-anchor="middle" x="537.75" y="-5.75" font-family="Helvetica,sans-Serif" font-size="10.00">cstdlib</text>
</a>
</g>
</g>
<!-- Node1&#45;&gt;Node10 -->
<g id="edge9_Node000001_Node000010" class="edge">
<title>Node1&#45;&gt;Node10</title>
<g id="a_edge9_Node000001_Node000010"><a xlink:title=" ">
<path fill="none" stroke="#63b8ff" d="M1091.27,-63.21C992.16,-61.2 767.99,-53.17 571.44,-19.39"/>
<polygon fill="#63b8ff" stroke="#63b8ff" points="572.27,-15.98 561.81,-17.71 571.06,-22.88 572.27,-15.98"/>
</a>
</g>
</g>
<!-- Node11 -->
<g id="Node000011" class="node">
<title>Node11</title>
<g id="a_Node000011"><a xlink:title=" ">
<polygon fill="#e0e0e0" stroke="#999999" points="633.62,-19.25 577.88,-19.25 577.88,0 633.62,0 633.62,-19.25"/>
<text text-anchor="middle" x="605.75" y="-5.75" font-family="Helvetica,sans-Serif" font-size="10.00">algorithm</text>
</a>
</g>
</g>
<!-- Node1&#45;&gt;Node11 -->
<g id="edge10_Node000001_Node000011" class="edge">
<title>Node1&#45;&gt;Node11</title>
<g id="a_edge10_Node000001_Node000011"><a xlink:title=" ">
<path fill="none" stroke="#63b8ff" d="M1091.35,-61.66C1002.41,-57.32 813.91,-45.85 645.28,-19.43"/>
<polygon fill="#63b8ff" stroke="#63b8ff" points="645.87,-15.98 635.45,-17.87 644.77,-22.89 645.87,-15.98"/>
</a>
</g>
</g>
<!-- Node12 -->
<g id="Node000012" class="node">
<title>Node12</title>
<g id="a_Node000012"><a xlink:title=" ">
<polygon fill="#e0e0e0" stroke="#999999" points="697.38,-19.25 652.12,-19.25 652.12,0 697.38,0 697.38,-19.25"/>
<text text-anchor="middle" x="674.75" y="-5.75" font-family="Helvetica,sans-Serif" font-size="10.00">chrono</text>
</a>
</g>
</g>
<!-- Node1&#45;&gt;Node12 -->
<g id="edge11_Node000001_Node000012" class="edge">
<title>Node1&#45;&gt;Node12</title>
<g id="a_edge11_Node000001_Node000012"><a xlink:title=" ">
<path fill="none" stroke="#63b8ff" d="M1091.36,-61.31C1011.51,-56.73 852.75,-45.28 708.93,-19.35"/>
<polygon fill="#63b8ff" stroke="#63b8ff" points="709.68,-15.93 699.21,-17.56 708.41,-22.81 709.68,-15.93"/>
</a>
</g>
</g>
<!-- Node13 -->
<g id="Node000013" class="node">
<title>Node13</title>
<g id="a_Node000013"><a xlink:title=" ">
<polygon fill="#e0e0e0" stroke="#999999" points="755.75,-19.25 715.75,-19.25 715.75,0 755.75,0 755.75,-19.25"/>
<text text-anchor="middle" x="735.75" y="-5.75" font-family="Helvetica,sans-Serif" font-size="10.00">cfloat</text>
</a>
</g>
</g>
<!-- Node1&#45;&gt;Node13 -->
<g id="edge12_Node000001_Node000013" class="edge">
<title>Node1&#45;&gt;Node13</title>
<g id="a_edge12_Node000001_Node000013"><a xlink:title=" ">
<path fill="none" stroke="#63b8ff" d="M1091.25,-60.61C1020.23,-55.49 888.14,-43.75 767.16,-19.43"/>
<polygon fill="#63b8ff" stroke="#63b8ff" points="768.22,-16.07 757.72,-17.49 766.81,-22.93 768.22,-16.07"/>
</a>
</g>
</g>
<!-- Node14 -->
<g id="Node000014" class="node">
<title>Node14</title>
<g id="a_Node000014"><a xlink:title=" ">
<polygon fill="#e0e0e0" stroke="#999999" points="835.25,-19.25 774.25,-19.25 774.25,0 835.25,0 835.25,-19.25"/>
<text text-anchor="middle" x="804.75" y="-5.75" font-family="Helvetica,sans-Serif" font-size="10.00">filesystem</text>
</a>
</g>
</g>
<!-- Node1&#45;&gt;Node14 -->
<g id="edge13_Node000001_Node000014" class="edge">
<title>Node1&#45;&gt;Node14</title>
<g id="a_edge13_Node000001_Node000014"><a xlink:title=" ">
<path fill="none" stroke="#63b8ff" d="M1091.17,-57.17C1033.95,-49.5 938.63,-36.06 846.89,-19.54"/>
<polygon fill="#63b8ff" stroke="#63b8ff" points="847.67,-16.12 837.21,-17.78 846.42,-23.01 847.67,-16.12"/>
</a>
</g>
</g>
<!-- Node15 -->
<g id="Node000015" class="node">
<title>Node15</title>
<g id="a_Node000015"><a xlink:title=" ">
<polygon fill="#e0e0e0" stroke="#999999" points="888.12,-19.25 853.38,-19.25 853.38,0 888.12,0 888.12,-19.25"/>
<text text-anchor="middle" x="870.75" y="-5.75" font-family="Helvetica,sans-Serif" font-size="10.00">map</text>
</a>
</g>
</g>
<!-- Node1&#45;&gt;Node15 -->
<g id="edge14_Node000001_Node000015" class="edge">
<title>Node1&#45;&gt;Node15</title>
<g id="a_edge14_Node000001_Node000015"><a xlink:title=" ">
<path fill="none" stroke="#63b8ff" d="M1091.19,-56.47C1043.76,-49.21 971.32,-37.01 899.44,-19.37"/>
<polygon fill="#63b8ff" stroke="#63b8ff" points="900.39,-16.01 889.84,-16.98 898.7,-22.8 900.39,-16.01"/>
</a>
</g>
</g>
<!-- Node16 -->
<g id="Node000016" class="node">
<title>Node16</title>
<g id="a_Node000016"><a xlink:title=" ">
<polygon fill="#e0e0e0" stroke="#999999" points="965.12,-19.25 906.38,-19.25 906.38,0 965.12,0 965.12,-19.25"/>
<text text-anchor="middle" x="935.75" y="-5.75" font-family="Helvetica,sans-Serif" font-size="10.00">stdexcept</text>
</a>
</g>
</g>
<!-- Node1&#45;&gt;Node16 -->
<g id="edge15_Node000001_Node000016" class="edge">
<title>Node1&#45;&gt;Node16</title>
<g id="a_edge15_Node000001_Node000016"><a xlink:title=" ">
<path fill="none" stroke="#63b8ff" d="M1107.64,-54.84C1071.21,-45.47 1014.32,-30.84 976.07,-21"/>
<polygon fill="#63b8ff" stroke="#63b8ff" points="977.35,-17.71 966.79,-18.61 975.61,-24.49 977.35,-17.71"/>
</a>
</g>
</g>
<!-- Node17 -->
<g id="Node000017" class="node">
<title>Node17</title>
<g id="a_Node000017"><a xlink:title=" ">
<polygon fill="#e0e0e0" stroke="#999999" points="1034.38,-19.25 983.12,-19.25 983.12,0 1034.38,0 1034.38,-19.25"/>
<text text-anchor="middle" x="1008.75" y="-5.75" font-family="Helvetica,sans-Serif" font-size="10.00">sstream</text>
</a>
</g>
</g>
<!-- Node1&#45;&gt;Node17 -->
<g id="edge16_Node000001_Node000017" class="edge">
<title>Node1&#45;&gt;Node17</title>
<g id="a_edge16_Node000001_Node000017"><a xlink:title=" ">
<path fill="none" stroke="#63b8ff" d="M1120.02,-54.84C1098.65,-46.35 1066.41,-33.54 1042.12,-23.89"/>
<polygon fill="#63b8ff" stroke="#63b8ff" points="1043.59,-20.7 1033,-20.26 1041,-27.21 1043.59,-20.7"/>
</a>
</g>
</g>
<!-- Node18 -->
<g id="Node000018" class="node">
<title>Node18</title>
<g id="a_Node000018"><a xlink:title=" ">
<polygon fill="#e0e0e0" stroke="#999999" points="1135.12,-19.25 1052.38,-19.25 1052.38,0 1135.12,0 1135.12,-19.25"/>
<text text-anchor="middle" x="1093.75" y="-5.75" font-family="Helvetica,sans-Serif" font-size="10.00">unordered_map</text>
</a>
</g>
</g>
<!-- Node1&#45;&gt;Node18 -->
<g id="edge17_Node000001_Node000018" class="edge">
<title>Node1&#45;&gt;Node18</title>
<g id="a_edge17_Node000001_Node000018"><a xlink:title=" ">
<path fill="none" stroke="#63b8ff" d="M1134.66,-55.08C1127.89,-47.73 1118.03,-37.01 1109.69,-27.94"/>
<polygon fill="#63b8ff" stroke="#63b8ff" points="1112.39,-25.71 1103.04,-20.72 1107.24,-30.45 1112.39,-25.71"/>
</a>
</g>
</g>
<!-- Node19 -->
<g id="Node000019" class="node">
<title>Node19</title>
<g id="a_Node000019"><a xlink:title=" ">
<polygon fill="#e0e0e0" stroke="#999999" points="1230.5,-19.25 1153,-19.25 1153,0 1230.5,0 1230.5,-19.25"/>
<text text-anchor="middle" x="1191.75" y="-5.75" font-family="Helvetica,sans-Serif" font-size="10.00">unordered_set</text>
</a>
</g>
</g>
<!-- Node1&#45;&gt;Node19 -->
<g id="edge18_Node000001_Node000019" class="edge">
<title>Node1&#45;&gt;Node19</title>
<g id="a_edge18_Node000001_Node000019"><a xlink:title=" ">
<path fill="none" stroke="#63b8ff" d="M1150.84,-55.08C1157.61,-47.73 1167.47,-37.01 1175.81,-27.94"/>
<polygon fill="#63b8ff" stroke="#63b8ff" points="1178.26,-30.45 1182.46,-20.72 1173.11,-25.71 1178.26,-30.45"/>
</a>
</g>
</g>
<!-- Node20 -->
<g id="Node000020" class="node">
<title>Node20</title>
<g id="a_Node000020"><a xlink:title=" ">
<polygon fill="#e0e0e0" stroke="#999999" points="1285.25,-19.25 1248.25,-19.25 1248.25,0 1285.25,0 1285.25,-19.25"/>
<text text-anchor="middle" x="1266.75" y="-5.75" font-family="Helvetica,sans-Serif" font-size="10.00">tuple</text>
</a>
</g>
</g>
<!-- Node1&#45;&gt;Node20 -->
<g id="edge19_Node000001_Node000020" class="edge">
<title>Node1&#45;&gt;Node20</title>
<g id="a_edge19_Node000001_Node000020"><a xlink:title=" ">
<path fill="none" stroke="#63b8ff" d="M1163.78,-54.84C1184.09,-46.12 1215.01,-32.84 1237.67,-23.11"/>
<polygon fill="#63b8ff" stroke="#63b8ff" points="1238.85,-26.41 1246.66,-19.25 1236.09,-19.98 1238.85,-26.41"/>
</a>
</g>
</g>
<!-- Node21 -->
<g id="Node000021" class="node">
<title>Node21</title>
<g id="a_Node000021"><a xlink:title=" ">
<polygon fill="#e0e0e0" stroke="#999999" points="1332.5,-19.25 1303,-19.25 1303,0 1332.5,0 1332.5,-19.25"/>
<text text-anchor="middle" x="1317.75" y="-5.75" font-family="Helvetica,sans-Serif" font-size="10.00">set</text>
</a>
</g>
</g>
<!-- Node1&#45;&gt;Node21 -->
<g id="edge20_Node000001_Node000021" class="edge">
<title>Node1&#45;&gt;Node21</title>
<g id="a_edge20_Node000001_Node000021"><a xlink:title=" ">
<path fill="none" stroke="#63b8ff" d="M1176.18,-54.82C1204.82,-46.89 1247.4,-34.73 1291.96,-20.03"/>
<polygon fill="#63b8ff" stroke="#63b8ff" points="1292.9,-23.41 1301.28,-16.92 1290.68,-16.76 1292.9,-23.41"/>
</a>
</g>
</g>
<!-- Node22 -->
<g id="Node000022" class="node">
<title>Node22</title>
<g id="a_Node000022"><a xlink:title=" ">
<polygon fill="#e0e0e0" stroke="#999999" points="1444.75,-19.25 1350.75,-19.25 1350.75,0 1444.75,0 1444.75,-19.25"/>
<text text-anchor="middle" x="1397.75" y="-5.75" font-family="Helvetica,sans-Serif" font-size="10.00">vtkSmartPointer.h</text>
</a>
</g>
</g>
<!-- Node1&#45;&gt;Node22 -->
<g id="edge21_Node000001_Node000022" class="edge">
<title>Node1&#45;&gt;Node22</title>
<g id="a_edge21_Node000001_Node000022"><a xlink:title=" ">
<path fill="none" stroke="#63b8ff" d="M1186.3,-54.78C1229.66,-45.73 1296.35,-31.8 1343.22,-22.01"/>
<polygon fill="#63b8ff" stroke="#63b8ff" points="1343.83,-25.46 1352.9,-19.99 1342.4,-18.61 1343.83,-25.46"/>
</a>
</g>
</g>
<!-- Node23 -->
<g id="Node000023" class="node">
<title>Node23</title>
<g id="a_Node000023"><a xlink:title=" ">
<polygon fill="#e0e0e0" stroke="#999999" points="1574.75,-19.25 1462.75,-19.25 1462.75,0 1574.75,0 1574.75,-19.25"/>
<text text-anchor="middle" x="1518.75" y="-5.75" font-family="Helvetica,sans-Serif" font-size="10.00">vtkUnstructuredGrid.h</text>
</a>
</g>
</g>
<!-- Node1&#45;&gt;Node23 -->
<g id="edge22_Node000001_Node000023" class="edge">
<title>Node1&#45;&gt;Node23</title>
<g id="a_edge22_Node000001_Node000023"><a xlink:title=" ">
<path fill="none" stroke="#63b8ff" d="M1194.24,-56.58C1261.01,-47.13 1377.61,-30.61 1451.36,-20.17"/>
<polygon fill="#63b8ff" stroke="#63b8ff" points="1451.46,-23.69 1460.87,-18.82 1450.47,-16.76 1451.46,-23.69"/>
</a>
</g>
</g>
<!-- Node24 -->
<g id="Node000024" class="node">
<title>Node24</title>
<g id="a_Node000024"><a xlink:title=" ">
<polygon fill="#e0e0e0" stroke="#999999" points="1735.12,-19.25 1592.38,-19.25 1592.38,0 1735.12,0 1735.12,-19.25"/>
<text text-anchor="middle" x="1663.75" y="-5.75" font-family="Helvetica,sans-Serif" font-size="10.00">vtkUnstructuredGridReader.h</text>
</a>
</g>
</g>
<!-- Node1&#45;&gt;Node24 -->
<g id="edge23_Node000001_Node000024" class="edge">
<title>Node1&#45;&gt;Node24</title>
<g id="a_edge23_Node000001_Node000024"><a xlink:title=" ">
<path fill="none" stroke="#63b8ff" d="M1194.36,-58.76C1274.62,-50.79 1434.54,-34.8 1580.82,-19.55"/>
<polygon fill="#63b8ff" stroke="#63b8ff" points="1581.14,-23.04 1590.72,-18.52 1580.41,-16.07 1581.14,-23.04"/>
</a>
</g>
</g>
<!-- Node25 -->
<g id="Node000025" class="node">
<title>Node25</title>
<g id="a_Node000025"><a xlink:title=" ">
<polygon fill="#e0e0e0" stroke="#999999" points="1814.62,-19.25 1752.88,-19.25 1752.88,0 1814.62,0 1814.62,-19.25"/>
<text text-anchor="middle" x="1783.75" y="-5.75" font-family="Helvetica,sans-Serif" font-size="10.00">vtkIdList.h</text>
</a>
</g>
</g>
<!-- Node1&#45;&gt;Node25 -->
<g id="edge24_Node000001_Node000025" class="edge">
<title>Node1&#45;&gt;Node25</title>
<g id="a_edge24_Node000001_Node000025"><a xlink:title=" ">
<path fill="none" stroke="#63b8ff" d="M1194.06,-62.46C1296.35,-59.11 1533.04,-48.78 1741.23,-19.41"/>
<polygon fill="#63b8ff" stroke="#63b8ff" points="1741.48,-22.91 1750.88,-18.03 1740.49,-15.98 1741.48,-22.91"/>
</a>
</g>
</g>
<!-- Node26 -->
<g id="Node000026" class="node">
<title>Node26</title>
<g id="a_Node000026"><a xlink:title=" ">
<polygon fill="#e0e0e0" stroke="#999999" points="1908.75,-19.25 1832.75,-19.25 1832.75,0 1908.75,0 1908.75,-19.25"/>
<text text-anchor="middle" x="1870.75" y="-5.75" font-family="Helvetica,sans-Serif" font-size="10.00">vtkCellData.h</text>
</a>
</g>
</g>
<!-- Node1&#45;&gt;Node26 -->
<g id="edge25_Node000001_Node000026" class="edge">
<title>Node1&#45;&gt;Node26</title>
<g id="a_edge25_Node000001_Node000026"><a xlink:title=" ">
<path fill="none" stroke="#63b8ff" d="M1194.2,-62.54C1306.27,-59.2 1581,-48.62 1820.93,-19.45"/>
<polygon fill="#63b8ff" stroke="#63b8ff" points="1821.33,-22.93 1830.83,-18.24 1820.48,-15.98 1821.33,-22.93"/>
</a>
</g>
</g>
<!-- Node27 -->
<g id="Node000027" class="node">
<title>Node27</title>
<g id="a_Node000027"><a xlink:title=" ">
<polygon fill="#e0e0e0" stroke="#999999" points="1992.5,-19.25 1927,-19.25 1927,0 1992.5,0 1992.5,-19.25"/>
<text text-anchor="middle" x="1959.75" y="-5.75" font-family="Helvetica,sans-Serif" font-size="10.00">vtkPoints.h</text>
</a>
</g>
</g>
<!-- Node1&#45;&gt;Node27 -->
<g id="edge26_Node000001_Node000027" class="edge">
<title>Node1&#45;&gt;Node27</title>
<g id="a_edge26_Node000001_Node000027"><a xlink:title=" ">
<path fill="none" stroke="#63b8ff" d="M1194.23,-63.48C1317.27,-62 1638.2,-54.87 1915.71,-19.3"/>
<polygon fill="#63b8ff" stroke="#63b8ff" points="1915.84,-22.81 1925.31,-18.05 1914.94,-15.87 1915.84,-22.81"/>
</a>
</g>
</g>
<!-- Node28 -->
<g id="Node000028" class="node">
<title>Node28</title>
<g id="a_Node000028"><a xlink:title=" ">
<polygon fill="#e0e0e0" stroke="#999999" points="2109,-19.25 2010.5,-19.25 2010.5,0 2109,0 2109,-19.25"/>
<text text-anchor="middle" x="2059.75" y="-5.75" font-family="Helvetica,sans-Serif" font-size="10.00">vtkFeatureEdges.h</text>
</a>
</g>
</g>
<!-- Node1&#45;&gt;Node28 -->
<g id="edge27_Node000001_Node000028" class="edge">
<title>Node1&#45;&gt;Node28</title>
<g id="a_edge27_Node000001_Node000028"><a xlink:title=" ">
<path fill="none" stroke="#63b8ff" d="M1194.2,-62.92C1326.19,-60.1 1687.79,-50.05 1999.06,-19.42"/>
<polygon fill="#63b8ff" stroke="#63b8ff" points="1999,-22.95 2008.61,-18.47 1998.31,-15.98 1999,-22.95"/>
</a>
</g>
</g>
<!-- Node29 -->
<g id="Node000029" class="node">
<title>Node29</title>
<g id="a_Node000029"><a xlink:title=" ">
<polygon fill="#e0e0e0" stroke="#999999" points="2250.38,-19.25 2127.12,-19.25 2127.12,0 2250.38,0 2250.38,-19.25"/>
<text text-anchor="middle" x="2188.75" y="-5.75" font-family="Helvetica,sans-Serif" font-size="10.00">vtkXMLPolyDataWriter.h</text>
</a>
</g>
</g>
<!-- Node1&#45;&gt;Node29 -->
<g id="edge28_Node000001_Node000029" class="edge">
<title>Node1&#45;&gt;Node29</title>
<g id="a_edge28_Node000001_Node000029"><a xlink:title=" ">
<path fill="none" stroke="#63b8ff" d="M1194.37,-62.88C1338.31,-59.81 1756.56,-48.9 2115.42,-19.37"/>
<polygon fill="#63b8ff" stroke="#63b8ff" points="2115.64,-22.87 2125.31,-18.55 2115.06,-15.89 2115.64,-22.87"/>
</a>
</g>
</g>
<!-- Node30 -->
<g id="Node000030" class="node">
<title>Node30</title>
<g id="a_Node000030"><a xlink:title=" ">
<polygon fill="#e0e0e0" stroke="#999999" points="2346.88,-19.25 2268.62,-19.25 2268.62,0 2346.88,0 2346.88,-19.25"/>
<text text-anchor="middle" x="2307.75" y="-5.75" font-family="Helvetica,sans-Serif" font-size="10.00">vtkPolyData.h</text>
</a>
</g>
</g>
<!-- Node1&#45;&gt;Node30 -->
<g id="edge29_Node000001_Node000030" class="edge">
<title>Node1&#45;&gt;Node30</title>
<g id="a_edge29_Node000001_Node000030"><a xlink:title=" ">
<path fill="none" stroke="#63b8ff" d="M1194.15,-64.33C1351.69,-65.21 1841.78,-63.97 2256.93,-19.4"/>
<polygon fill="#63b8ff" stroke="#63b8ff" points="2257.19,-22.89 2266.76,-18.33 2256.44,-15.93 2257.19,-22.89"/>
</a>
</g>
</g>
<!-- Node31 -->
<g id="Node000031" class="node">
<title>Node31</title>
<g id="a_Node000031"><a xlink:title=" ">
<polygon fill="#e0e0e0" stroke="#999999" points="2450.62,-19.25 2364.88,-19.25 2364.88,0 2450.62,0 2450.62,-19.25"/>
<text text-anchor="middle" x="2407.75" y="-5.75" font-family="Helvetica,sans-Serif" font-size="10.00">boost/regex.hpp</text>
</a>
</g>
</g>
<!-- Node1&#45;&gt;Node31 -->
<g id="edge30_Node000001_Node000031" class="edge">
<title>Node1&#45;&gt;Node31</title>
<g id="a_edge30_Node000001_Node000031"><a xlink:title=" ">
<path fill="none" stroke="#63b8ff" d="M1194.34,-64.33C1360.77,-65.28 1898.56,-64.49 2353,-19.38"/>
<polygon fill="#63b8ff" stroke="#63b8ff" points="2353.29,-22.87 2362.89,-18.39 2352.59,-15.91 2353.29,-22.87"/>
</a>
</g>
</g>
<!-- Node32 -->
<g id="Node000032" class="node">
<title>Node32</title>
<g id="a_Node000032"><a xlink:title=" ">
<polygon fill="#e0e0e0" stroke="#999999" points="2547.25,-19.25 2468.25,-19.25 2468.25,0 2547.25,0 2547.25,-19.25"/>
<text text-anchor="middle" x="2507.75" y="-5.75" font-family="Helvetica,sans-Serif" font-size="10.00">jsoncpp/json.h</text>
</a>
</g>
</g>
<!-- Node1&#45;&gt;Node32 -->
<g id="edge31_Node000001_Node000032" class="edge">
<title>Node1&#45;&gt;Node32</title>
<g id="a_edge31_Node000001_Node000032"><a xlink:title=" ">
<path fill="none" stroke="#63b8ff" d="M1194.33,-63.12C1402.9,-59.92 2185.21,-46.4 2456.62,-19.39"/>
<polygon fill="#63b8ff" stroke="#63b8ff" points="2456.91,-22.88 2466.5,-18.38 2456.19,-15.92 2456.91,-22.88"/>
</a>
</g>
</g>
<!-- Node33 -->
<g id="Node000033" class="node">
<title>Node33</title>
<g id="a_Node000033"><a xlink:title=" ">
<polygon fill="#e0e0e0" stroke="#999999" points="2652.38,-19.25 2565.12,-19.25 2565.12,0 2652.38,0 2652.38,-19.25"/>
<text text-anchor="middle" x="2608.75" y="-5.75" font-family="Helvetica,sans-Serif" font-size="10.00">jsoncpp/reader.h</text>
</a>
</g>
</g>
<!-- Node1&#45;&gt;Node33 -->
<g id="edge32_Node000001_Node000033" class="edge">
<title>Node1&#45;&gt;Node33</title>
<g id="a_edge32_Node000001_Node000033"><a xlink:title=" ">
<path fill="none" stroke="#63b8ff" d="M1194.34,-63.17C1412.57,-60.03 2261.71,-46.37 2553.44,-19.42"/>
<polygon fill="#63b8ff" stroke="#63b8ff" points="2553.7,-22.91 2563.32,-18.47 2553.04,-15.94 2553.7,-22.91"/>
</a>
</g>
</g>
<!-- Node34 -->
<g id="Node000034" class="node">
<title>Node34</title>
<g id="a_Node000034"><a xlink:title=" ">
<polygon fill="#e0e0e0" stroke="#999999" points="2754.88,-19.25 2670.62,-19.25 2670.62,0 2754.88,0 2754.88,-19.25"/>
<text text-anchor="middle" x="2712.75" y="-5.75" font-family="Helvetica,sans-Serif" font-size="10.00">jsoncpp/value.h</text>
</a>
</g>
</g>
<!-- Node1&#45;&gt;Node34 -->
<g id="edge33_Node000001_Node000034" class="edge">
<title>Node1&#45;&gt;Node34</title>
<g id="a_edge33_Node000001_Node000034"><a xlink:title=" ">
<path fill="none" stroke="#63b8ff" d="M1194.24,-63.32C1422.43,-60.71 2344.79,-48.6 2658.87,-19.36"/>
<polygon fill="#63b8ff" stroke="#63b8ff" points="2659.11,-22.85 2668.73,-18.41 2658.44,-15.88 2659.11,-22.85"/>
</a>
</g>
</g>
<!-- Node35 -->
<g id="Node000035" class="node">
<title>Node35</title>
<g id="a_Node000035"><a xlink:title=" ">
<polygon fill="#e0e0e0" stroke="#999999" points="2856.88,-19.25 2772.62,-19.25 2772.62,0 2856.88,0 2856.88,-19.25"/>
<text text-anchor="middle" x="2814.75" y="-5.75" font-family="Helvetica,sans-Serif" font-size="10.00">jsoncpp/writer.h</text>
</a>
</g>
</g>
<!-- Node1&#45;&gt;Node35 -->
<g id="edge34_Node000001_Node000035" class="edge">
<title>Node1&#45;&gt;Node35</title>
<g id="a_edge34_Node000001_Node000035"><a xlink:title=" ">
<path fill="none" stroke="#63b8ff" d="M1194.04,-63.43C1431.4,-61.23 2425.67,-50.36 2761.06,-19.34"/>
<polygon fill="#63b8ff" stroke="#63b8ff" points="2761.1,-22.85 2770.73,-18.42 2760.44,-15.88 2761.1,-22.85"/>
</a>
</g>
</g>
</g>
</svg>
