<?xml version="1.0" encoding="UTF-8" standalone="no"?>
<!DOCTYPE svg PUBLIC "-//W3C//DTD SVG 1.1//EN"
 "http://www.w3.org/Graphics/SVG/1.1/DTD/svg11.dtd">
<!-- Generated by graphviz version 12.2.1 (20241206.2353)
 -->
<!-- Title: main Pages: 1 -->
<svg width="189pt" height="138pt"
 viewBox="0.00 0.00 189.25 138.25" xmlns="http://www.w3.org/2000/svg" xmlns:xlink="http://www.w3.org/1999/xlink">
<g id="graph0" class="graph" transform="scale(1 1) rotate(0) translate(4 134.25)">
<title>main</title>
<!-- Node1 -->
<g id="Node000001" class="node">
<title>Node1</title>
<g id="a_Node000001"><a xlink:title=" ">
<polygon fill="#999999" stroke="#666666" points="37,-74.25 0,-74.25 0,-55 37,-55 37,-74.25"/>
<text text-anchor="middle" x="18.5" y="-60.75" font-family="Helvetica,sans-Serif" font-size="10.00">main</text>
</a>
</g>
</g>
<!-- Node2 -->
<g id="Node000002" class="node">
<title>Node2</title>
<g id="a_Node000002"><a xlink:href="../../d5/dff/_identify___boundaries_8cpp_a836d8cb5988a94c42f84b1a6107fd56a.html#a836d8cb5988a94c42f84b1a6107fd56a" target="_top" xlink:title=" ">
<polygon fill="white" stroke="#666666" points="176.38,-130.25 77.88,-130.25 77.88,-111 176.38,-111 176.38,-130.25"/>
<text text-anchor="middle" x="127.12" y="-116.75" font-family="Helvetica,sans-Serif" font-size="10.00">classifyBoundaries</text>
</a>
</g>
</g>
<!-- Node1&#45;&gt;Node2 -->
<g id="edge1_Node000001_Node000002" class="edge">
<title>Node1&#45;&gt;Node2</title>
<g id="a_edge1_Node000001_Node000002"><a xlink:title=" ">
<path fill="none" stroke="#63b8ff" d="M31.18,-74.44C41.61,-82.83 57.58,-94.75 73,-102.62 75.54,-103.92 78.2,-105.16 80.91,-106.33"/>
<polygon fill="#63b8ff" stroke="#63b8ff" points="79.52,-109.55 90.11,-109.97 82.1,-103.04 79.52,-109.55"/>
</a>
</g>
</g>
<!-- Node3 -->
<g id="Node000003" class="node">
<title>Node3</title>
<g id="a_Node000003"><a xlink:href="../../d5/dff/_identify___boundaries_8cpp_a0c8a684bcb2e72889cd7ffb21024124f.html#a0c8a684bcb2e72889cd7ffb21024124f" target="_top" xlink:title=" ">
<polygon fill="white" stroke="#666666" points="177.88,-93.25 76.38,-93.25 76.38,-74 177.88,-74 177.88,-93.25"/>
<text text-anchor="middle" x="127.12" y="-79.75" font-family="Helvetica,sans-Serif" font-size="10.00">ConvertToPolyData</text>
</a>
</g>
</g>
<!-- Node1&#45;&gt;Node3 -->
<g id="edge2_Node000001_Node000003" class="edge">
<title>Node1&#45;&gt;Node3</title>
<g id="a_edge2_Node000001_Node000003"><a xlink:title=" ">
<path fill="none" stroke="#63b8ff" d="M37.11,-67.76C45.01,-69.17 54.86,-70.93 65.09,-72.75"/>
<polygon fill="#63b8ff" stroke="#63b8ff" points="64.32,-76.17 74.78,-74.48 65.55,-69.28 64.32,-76.17"/>
</a>
</g>
</g>
<!-- Node4 -->
<g id="Node000004" class="node">
<title>Node4</title>
<g id="a_Node000004"><a xlink:href="../../d5/dff/_identify___boundaries_8cpp_ab6fe813c30e279dc9bc9c3857cd78ab5.html#ab6fe813c30e279dc9bc9c3857cd78ab5" target="_top" xlink:title=" ">
<polygon fill="white" stroke="#666666" points="162.12,-56.25 92.12,-56.25 92.12,-37 162.12,-37 162.12,-56.25"/>
<text text-anchor="middle" x="127.12" y="-42.75" font-family="Helvetica,sans-Serif" font-size="10.00">readVTKFile</text>
</a>
</g>
</g>
<!-- Node1&#45;&gt;Node4 -->
<g id="edge3_Node000001_Node000004" class="edge">
<title>Node1&#45;&gt;Node4</title>
<g id="a_edge3_Node000001_Node000004"><a xlink:title=" ">
<path fill="none" stroke="#63b8ff" d="M37.11,-61.65C49.01,-59.64 65.3,-56.89 80.69,-54.29"/>
<polygon fill="#63b8ff" stroke="#63b8ff" points="80.9,-57.81 90.18,-52.69 79.73,-50.91 80.9,-57.81"/>
</a>
</g>
</g>
<!-- Node5 -->
<g id="Node000005" class="node">
<title>Node5</title>
<g id="a_Node000005"><a xlink:href="../../d5/dff/_identify___boundaries_8cpp_a6dc226d18930077e09957f7af342d010.html#a6dc226d18930077e09957f7af342d010" target="_top" xlink:title=" ">
<polygon fill="white" stroke="#666666" points="181.25,-19.25 73,-19.25 73,0 181.25,0 181.25,-19.25"/>
<text text-anchor="middle" x="127.12" y="-5.75" font-family="Helvetica,sans-Serif" font-size="10.00">saveBoundaryToVTK</text>
</a>
</g>
</g>
<!-- Node1&#45;&gt;Node5 -->
<g id="edge4_Node000001_Node000005" class="edge">
<title>Node1&#45;&gt;Node5</title>
<g id="a_edge4_Node000001_Node000005"><a xlink:title=" ">
<path fill="none" stroke="#63b8ff" d="M31.64,-54.76C42.1,-46.63 57.87,-35.23 73,-27.62 75.68,-26.28 78.49,-24.99 81.35,-23.78"/>
<polygon fill="#63b8ff" stroke="#63b8ff" points="82.38,-27.13 90.42,-20.23 79.83,-20.61 82.38,-27.13"/>
</a>
</g>
</g>
</g>
</svg>
