<?xml version="1.0" encoding="UTF-8" standalone="no"?>
<!DOCTYPE svg PUBLIC "-//W3C//DTD SVG 1.1//EN"
 "http://www.w3.org/Graphics/SVG/1.1/DTD/svg11.dtd">
<!-- Generated by graphviz version 12.2.1 (20241206.2353)
 -->
<!-- Title: main Pages: 1 -->
<svg width="279pt" height="167pt"
 viewBox="0.00 0.00 278.75 167.25" xmlns="http://www.w3.org/2000/svg" xmlns:xlink="http://www.w3.org/1999/xlink">
<g id="graph0" class="graph" transform="scale(1 1) rotate(0) translate(4 163.25)">
<title>main</title>
<!-- Node1 -->
<g id="Node000001" class="node">
<title>Node1</title>
<g id="a_Node000001"><a xlink:title=" ">
<polygon fill="#999999" stroke="#666666" points="37,-84.25 0,-84.25 0,-65 37,-65 37,-84.25"/>
<text text-anchor="middle" x="18.5" y="-70.75" font-family="Helvetica,sans-Serif" font-size="10.00">main</text>
</a>
</g>
</g>
<!-- Node2 -->
<g id="Node000002" class="node">
<title>Node2</title>
<g id="a_Node000002"><a xlink:href="../../d3/d82/_c_type___elliptic___grid_8cpp_a6122be421b972a00ce8e6e636589966d.html#a6122be421b972a00ce8e6e636589966d" target="_top" xlink:title=" ">
<polygon fill="white" stroke="#666666" points="131.03,-159.25 102.22,-159.25 102.22,-140 131.03,-140 131.03,-159.25"/>
<text text-anchor="middle" x="116.62" y="-145.75" font-family="Helvetica,sans-Serif" font-size="10.00">P</text>
</a>
</g>
</g>
<!-- Node1&#45;&gt;Node2 -->
<g id="edge1_Node000001_Node000002" class="edge">
<title>Node1&#45;&gt;Node2</title>
<g id="a_edge1_Node000001_Node000002"><a xlink:title=" ">
<path fill="none" stroke="#63b8ff" d="M26.81,-84.7C36.28,-97.14 53.84,-118.28 73,-131.62 78.52,-135.47 84.99,-138.73 91.2,-141.37"/>
<polygon fill="#63b8ff" stroke="#63b8ff" points="89.83,-144.59 100.42,-144.91 92.34,-138.05 89.83,-144.59"/>
</a>
</g>
</g>
<!-- Node3 -->
<g id="Node000003" class="node">
<title>Node3</title>
<g id="a_Node000003"><a xlink:href="../../d3/d27/class_gnuplot_ae3b7c28efb53f636431b9655085906be.html#ae3b7c28efb53f636431b9655085906be" target="_top" xlink:title=" ">
<polygon fill="white" stroke="#666666" points="157.62,-122.25 75.62,-122.25 75.62,-103 157.62,-103 157.62,-122.25"/>
<text text-anchor="middle" x="116.62" y="-108.75" font-family="Helvetica,sans-Serif" font-size="10.00">Gnuplot::plot_x</text>
</a>
</g>
</g>
<!-- Node1&#45;&gt;Node3 -->
<g id="edge2_Node000001_Node000003" class="edge">
<title>Node1&#45;&gt;Node3</title>
<g id="a_edge2_Node000001_Node000003"><a xlink:title=" ">
<path fill="none" stroke="#63b8ff" d="M37.13,-81.59C48.97,-86.27 64.98,-92.6 79.46,-98.33"/>
<polygon fill="#63b8ff" stroke="#63b8ff" points="78.14,-101.57 88.73,-101.99 80.72,-95.06 78.14,-101.57"/>
</a>
</g>
</g>
<!-- Node5 -->
<g id="Node000005" class="node">
<title>Node5</title>
<g id="a_Node000005"><a xlink:href="../../d3/d27/class_gnuplot_a1e817a58ef3e40ceaeb128c7e6437e8a.html#a1e817a58ef3e40ceaeb128c7e6437e8a" target="_top" xlink:title=" ">
<polygon fill="white" stroke="#666666" points="160.25,-46.25 73,-46.25 73,-27 160.25,-27 160.25,-46.25"/>
<text text-anchor="middle" x="116.62" y="-32.75" font-family="Helvetica,sans-Serif" font-size="10.00">Gnuplot::plot_xy</text>
</a>
</g>
</g>
<!-- Node1&#45;&gt;Node5 -->
<g id="edge4_Node000001_Node000005" class="edge">
<title>Node1&#45;&gt;Node5</title>
<g id="a_edge4_Node000001_Node000005"><a xlink:title=" ">
<path fill="none" stroke="#63b8ff" d="M37.13,-67.66C48.97,-62.98 64.98,-56.65 79.46,-50.92"/>
<polygon fill="#63b8ff" stroke="#63b8ff" points="80.72,-54.19 88.73,-47.26 78.14,-47.68 80.72,-54.19"/>
</a>
</g>
</g>
<!-- Node6 -->
<g id="Node000006" class="node">
<title>Node6</title>
<g id="a_Node000006"><a xlink:href="../../d3/d82/_c_type___elliptic___grid_8cpp_a9d9acf133a5b966f0cbd16a2c57a7d79.html#a9d9acf133a5b966f0cbd16a2c57a7d79" target="_top" xlink:title=" ">
<polygon fill="white" stroke="#666666" points="247.9,-56.25 219.1,-56.25 219.1,-37 247.9,-37 247.9,-56.25"/>
<text text-anchor="middle" x="233.5" y="-42.75" font-family="Helvetica,sans-Serif" font-size="10.00">x</text>
</a>
</g>
</g>
<!-- Node1&#45;&gt;Node6 -->
<g id="edge8_Node000001_Node000006" class="edge">
<title>Node1&#45;&gt;Node6</title>
<g id="a_edge8_Node000001_Node000006"><a xlink:title=" ">
<path fill="none" stroke="#63b8ff" d="M37.29,-72.29C75.14,-67.31 163.72,-55.67 207.33,-49.93"/>
<polygon fill="#63b8ff" stroke="#63b8ff" points="207.64,-53.42 217.1,-48.65 206.73,-46.48 207.64,-53.42"/>
</a>
</g>
</g>
<!-- Node7 -->
<g id="Node000007" class="node">
<title>Node7</title>
<g id="a_Node000007"><a xlink:href="../../d3/d82/_c_type___elliptic___grid_8cpp_aae4b761a64c952b4c008655d1dc59a12.html#aae4b761a64c952b4c008655d1dc59a12" target="_top" xlink:title=" ">
<polygon fill="white" stroke="#666666" points="247.9,-19.25 219.1,-19.25 219.1,0 247.9,0 247.9,-19.25"/>
<text text-anchor="middle" x="233.5" y="-5.75" font-family="Helvetica,sans-Serif" font-size="10.00">y</text>
</a>
</g>
</g>
<!-- Node1&#45;&gt;Node7 -->
<g id="edge9_Node000001_Node000007" class="edge">
<title>Node1&#45;&gt;Node7</title>
<g id="a_edge9_Node000001_Node000007"><a xlink:title=" ">
<path fill="none" stroke="#63b8ff" d="M25.27,-64.8C33.78,-51.37 51.08,-27.77 73,-17.62 116.95,2.72 175.19,-0.97 207.75,-5.37"/>
<polygon fill="#63b8ff" stroke="#63b8ff" points="206.98,-8.8 217.39,-6.82 208.02,-1.88 206.98,-8.8"/>
</a>
</g>
</g>
<!-- Node4 -->
<g id="Node000004" class="node">
<title>Node4</title>
<g id="a_Node000004"><a xlink:href="../../d3/d27/class_gnuplot_a6f299285af0a0ee2cf1722c469aa1a57.html#a6f299285af0a0ee2cf1722c469aa1a57" target="_top" xlink:title=" ">
<polygon fill="white" stroke="#666666" points="270.75,-112.25 196.25,-112.25 196.25,-93 270.75,-93 270.75,-112.25"/>
<text text-anchor="middle" x="233.5" y="-98.75" font-family="Helvetica,sans-Serif" font-size="10.00">Gnuplot::cmd</text>
</a>
</g>
</g>
<!-- Node3&#45;&gt;Node4 -->
<g id="edge3_Node000003_Node000004" class="edge">
<title>Node3&#45;&gt;Node4</title>
<g id="a_edge3_Node000003_Node000004"><a xlink:title=" ">
<path fill="none" stroke="#63b8ff" d="M157.8,-109.13C166.44,-108.38 175.65,-107.57 184.55,-106.8"/>
<polygon fill="#63b8ff" stroke="#63b8ff" points="184.83,-110.29 194.49,-105.93 184.22,-103.31 184.83,-110.29"/>
</a>
</g>
</g>
<!-- Node5&#45;&gt;Node4 -->
<g id="edge5_Node000005_Node000004" class="edge">
<title>Node5&#45;&gt;Node4</title>
<g id="a_edge5_Node000005_Node000004"><a xlink:title=" ">
<path fill="none" stroke="#63b8ff" d="M135.07,-46.65C153.63,-57.31 183.24,-74.32 204.95,-86.8"/>
<polygon fill="#63b8ff" stroke="#63b8ff" points="203.16,-89.81 213.58,-91.75 206.65,-83.74 203.16,-89.81"/>
</a>
</g>
</g>
<!-- Node5&#45;&gt;Node6 -->
<g id="edge6_Node000005_Node000006" class="edge">
<title>Node5&#45;&gt;Node6</title>
<g id="a_edge6_Node000005_Node000006"><a xlink:title=" ">
<path fill="none" stroke="#63b8ff" d="M160.73,-40.38C176.42,-41.74 193.64,-43.24 207.28,-44.43"/>
<polygon fill="#63b8ff" stroke="#63b8ff" points="206.88,-47.91 217.15,-45.29 207.49,-40.93 206.88,-47.91"/>
</a>
</g>
</g>
<!-- Node5&#45;&gt;Node7 -->
<g id="edge7_Node000005_Node000007" class="edge">
<title>Node5&#45;&gt;Node7</title>
<g id="a_edge7_Node000005_Node000007"><a xlink:title=" ">
<path fill="none" stroke="#63b8ff" d="M160.4,-26.57C176.39,-22.81 193.99,-18.68 207.81,-15.43"/>
<polygon fill="#63b8ff" stroke="#63b8ff" points="208.43,-18.88 217.36,-13.18 206.83,-12.06 208.43,-18.88"/>
</a>
</g>
</g>
</g>
</svg>
