<?xml version="1.0" encoding="UTF-8" standalone="no"?>
<!DOCTYPE svg PUBLIC "-//W3C//DTD SVG 1.1//EN"
 "http://www.w3.org/Graphics/SVG/1.1/DTD/svg11.dtd">
<!-- Generated by graphviz version 12.2.1 (20241206.2353)
 -->
<!-- Title: Calculate_Face_WENO_Flux Pages: 1 -->
<svg width="781pt" height="82pt"
 viewBox="0.00 0.00 780.50 82.25" xmlns="http://www.w3.org/2000/svg" xmlns:xlink="http://www.w3.org/1999/xlink">
<g id="graph0" class="graph" transform="scale(1 1) rotate(0) translate(4 78.25)">
<title>Calculate_Face_WENO_Flux</title>
<!-- Node1 -->
<g id="Node000001" class="node">
<title>Node1</title>
<g id="a_Node000001"><a xlink:title=" ">
<polygon fill="#999999" stroke="#666666" points="772.5,-37.25 627.5,-37.25 627.5,-18 772.5,-18 772.5,-37.25"/>
<text text-anchor="middle" x="700" y="-23.75" font-family="Helvetica,sans-Serif" font-size="10.00">Calculate_Face_WENO_Flux</text>
</a>
</g>
</g>
<!-- Node2 -->
<g id="Node000002" class="node">
<title>Node2</title>
<g id="a_Node000002"><a xlink:href="../../d8/df4/_w_e_n_o2_d_8cpp_a74c2795e4a164178c69743947d6e6cf5.html#a74c2795e4a164178c69743947d6e6cf5" target="_top" xlink:title=" ">
<polygon fill="white" stroke="#666666" points="591.5,-37.25 433,-37.25 433,-18 591.5,-18 591.5,-37.25"/>
<text text-anchor="middle" x="512.25" y="-23.75" font-family="Helvetica,sans-Serif" font-size="10.00">Evaluate_Cell_Net_Flux_WENO</text>
</a>
</g>
</g>
<!-- Node1&#45;&gt;Node2 -->
<g id="edge1_Node000001_Node000002" class="edge">
<title>Node1&#45;&gt;Node2</title>
<g id="a_edge1_Node000001_Node000002"><a xlink:title=" ">
<path fill="none" stroke="#63b8ff" d="M615.71,-27.62C607.81,-27.62 599.82,-27.62 591.97,-27.62"/>
<polygon fill="#63b8ff" stroke="#63b8ff" points="615.67,-31.13 625.67,-27.63 615.67,-24.13 615.67,-31.13"/>
</a>
</g>
</g>
<!-- Node3 -->
<g id="Node000003" class="node">
<title>Node3</title>
<g id="a_Node000003"><a xlink:href="../../d0/d64/_numerical___method_8cpp_a8dda0c7e17babab9b6e49e8e199dc30e.html#a8dda0c7e17babab9b6e49e8e199dc30e" target="_top" xlink:title=" ">
<polygon fill="white" stroke="#666666" points="384.62,-56.25 298.88,-56.25 298.88,-37 384.62,-37 384.62,-56.25"/>
<text text-anchor="middle" x="341.75" y="-42.75" font-family="Helvetica,sans-Serif" font-size="10.00">Explicit_Method</text>
</a>
</g>
</g>
<!-- Node2&#45;&gt;Node3 -->
<g id="edge2_Node000002_Node000003" class="edge">
<title>Node2&#45;&gt;Node3</title>
<g id="a_edge2_Node000002_Node000003"><a xlink:title=" ">
<path fill="none" stroke="#63b8ff" d="M421.69,-37.72C408.92,-39.16 396.31,-40.59 385.05,-41.86"/>
<polygon fill="#63b8ff" stroke="#63b8ff" points="421.87,-41.23 431.42,-36.63 421.09,-34.27 421.87,-41.23"/>
</a>
</g>
</g>
<!-- Node8 -->
<g id="Node000008" class="node">
<title>Node8</title>
<g id="a_Node000008"><a xlink:href="../../de/d22/_cuda___parallel___r_k_8cpp_a794f030971fbb7c9dd4bc08df03f50f1.html#a794f030971fbb7c9dd4bc08df03f50f1" target="_top" xlink:title=" ">
<polygon fill="white" stroke="#666666" points="397,-19.25 286.5,-19.25 286.5,0 397,0 397,-19.25"/>
<text text-anchor="middle" x="341.75" y="-5.75" font-family="Helvetica,sans-Serif" font-size="10.00">Runge_Kutta_Method</text>
</a>
</g>
</g>
<!-- Node2&#45;&gt;Node8 -->
<g id="edge8_Node000002_Node000008" class="edge">
<title>Node2&#45;&gt;Node8</title>
<g id="a_edge8_Node000002_Node000008"><a xlink:title=" ">
<path fill="none" stroke="#63b8ff" d="M421.62,-18.05C413.35,-17.17 405.14,-16.29 397.33,-15.46"/>
<polygon fill="#63b8ff" stroke="#63b8ff" points="421.1,-21.51 431.41,-19.1 421.84,-14.55 421.1,-21.51"/>
</a>
</g>
</g>
<!-- Node4 -->
<g id="Node000004" class="node">
<title>Node4</title>
<g id="a_Node000004"><a xlink:href="../../de/df0/_solver_8cpp_a09703a294b5a4e270033b2d488f8f02a.html#a09703a294b5a4e270033b2d488f8f02a" target="_top" xlink:title=" ">
<polygon fill="white" stroke="#666666" points="249.75,-74.25 167,-74.25 167,-55 249.75,-55 249.75,-74.25"/>
<text text-anchor="middle" x="208.38" y="-60.75" font-family="Helvetica,sans-Serif" font-size="10.00">Inviscid_Solver</text>
</a>
</g>
</g>
<!-- Node3&#45;&gt;Node4 -->
<g id="edge3_Node000003_Node000004" class="edge">
<title>Node3&#45;&gt;Node4</title>
<g id="a_edge3_Node000003_Node000004"><a xlink:title=" ">
<path fill="none" stroke="#63b8ff" d="M287.32,-53.95C274.95,-55.64 261.98,-57.42 250.24,-59.03"/>
<polygon fill="#63b8ff" stroke="#63b8ff" points="287.53,-57.45 296.96,-52.62 286.58,-50.51 287.53,-57.45"/>
</a>
</g>
</g>
<!-- Node7 -->
<g id="Node000007" class="node">
<title>Node7</title>
<g id="a_Node000007"><a xlink:href="../../de/df0/_solver_8cpp_a313c308da18b517cb3cf0384db6d4d7e.html#a313c308da18b517cb3cf0384db6d4d7e" target="_top" xlink:title=" ">
<polygon fill="white" stroke="#666666" points="250.5,-37.25 166.25,-37.25 166.25,-18 250.5,-18 250.5,-37.25"/>
<text text-anchor="middle" x="208.38" y="-23.75" font-family="Helvetica,sans-Serif" font-size="10.00">Viscous_Solver</text>
</a>
</g>
</g>
<!-- Node3&#45;&gt;Node7 -->
<g id="edge6_Node000003_Node000007" class="edge">
<title>Node3&#45;&gt;Node7</title>
<g id="a_edge6_Node000003_Node000007"><a xlink:title=" ">
<path fill="none" stroke="#63b8ff" d="M287.43,-38.91C275.18,-37.14 262.34,-35.29 250.69,-33.6"/>
<polygon fill="#63b8ff" stroke="#63b8ff" points="286.56,-42.32 296.96,-40.29 287.56,-35.4 286.56,-42.32"/>
</a>
</g>
</g>
<!-- Node5 -->
<g id="Node000005" class="node">
<title>Node5</title>
<g id="a_Node000005"><a xlink:href="../../d5/d12/_main_8cpp_afed4dca88e059a8cbd2c7af524468fe5.html#afed4dca88e059a8cbd2c7af524468fe5" target="_top" xlink:title="Executes the appropriate solver based on the simulation configuration.">
<polygon fill="white" stroke="#666666" points="130.25,-55.25 73,-55.25 73,-36 130.25,-36 130.25,-55.25"/>
<text text-anchor="middle" x="101.62" y="-41.75" font-family="Helvetica,sans-Serif" font-size="10.00">runSolver</text>
</a>
</g>
</g>
<!-- Node4&#45;&gt;Node5 -->
<g id="edge4_Node000004_Node000005" class="edge">
<title>Node4&#45;&gt;Node5</title>
<g id="a_edge4_Node000004_Node000005"><a xlink:title=" ">
<path fill="none" stroke="#63b8ff" d="M155.39,-55.2C146.81,-53.64 138.22,-52.08 130.53,-50.69"/>
<polygon fill="#63b8ff" stroke="#63b8ff" points="154.62,-58.61 165.09,-56.95 155.87,-51.73 154.62,-58.61"/>
</a>
</g>
</g>
<!-- Node6 -->
<g id="Node000006" class="node">
<title>Node6</title>
<g id="a_Node000006"><a xlink:href="../../d5/d12/_main_8cpp_a0ddf1224851353fc92bfbff6f499fa97.html#a0ddf1224851353fc92bfbff6f499fa97" target="_top" xlink:title=" ">
<polygon fill="white" stroke="#666666" points="37,-55.25 0,-55.25 0,-36 37,-36 37,-55.25"/>
<text text-anchor="middle" x="18.5" y="-41.75" font-family="Helvetica,sans-Serif" font-size="10.00">main</text>
</a>
</g>
</g>
<!-- Node5&#45;&gt;Node6 -->
<g id="edge5_Node000005_Node000006" class="edge">
<title>Node5&#45;&gt;Node6</title>
<g id="a_edge5_Node000005_Node000006"><a xlink:title=" ">
<path fill="none" stroke="#63b8ff" d="M61.38,-45.62C52.95,-45.62 44.43,-45.62 37.3,-45.62"/>
<polygon fill="#63b8ff" stroke="#63b8ff" points="61.19,-49.13 71.19,-45.63 61.19,-42.13 61.19,-49.13"/>
</a>
</g>
</g>
<!-- Node7&#45;&gt;Node5 -->
<g id="edge7_Node000007_Node000005" class="edge">
<title>Node7&#45;&gt;Node5</title>
<g id="a_edge7_Node000007_Node000005"><a xlink:title=" ">
<path fill="none" stroke="#63b8ff" d="M154.67,-36.68C146.33,-38.11 138,-39.55 130.52,-40.83"/>
<polygon fill="#63b8ff" stroke="#63b8ff" points="155.22,-40.14 164.48,-35 154.04,-33.24 155.22,-40.14"/>
</a>
</g>
</g>
</g>
</svg>
