<?xml version="1.0" encoding="UTF-8" standalone="no"?>
<!DOCTYPE svg PUBLIC "-//W3C//DTD SVG 1.1//EN"
 "http://www.w3.org/Graphics/SVG/1.1/DTD/svg11.dtd">
<!-- Generated by graphviz version 12.2.1 (20241206.2353)
 -->
<!-- Title: Get_Reconstructed_U Pages: 1 -->
<svg width="348pt" height="150pt"
 viewBox="0.00 0.00 347.80 149.88" xmlns="http://www.w3.org/2000/svg" xmlns:xlink="http://www.w3.org/1999/xlink">
<g id="graph0" class="graph" transform="scale(1 1) rotate(0) translate(4 145.88)">
<title>Get_Reconstructed_U</title>
<!-- Node1 -->
<g id="Node000001" class="node">
<title>Node1</title>
<g id="a_Node000001"><a xlink:title=" ">
<polygon fill="#999999" stroke="#666666" points="113.5,-74.25 0,-74.25 0,-55 113.5,-55 113.5,-74.25"/>
<text text-anchor="middle" x="56.75" y="-60.75" font-family="Helvetica,sans-Serif" font-size="10.00">Get_Reconstructed_U</text>
</a>
</g>
</g>
<!-- Node2 -->
<g id="Node000002" class="node">
<title>Node2</title>
<g id="a_Node000002"><a xlink:href="../../df/d43/_basic___functions_8cpp_a9ca12fb8f920cab38313323cf0c4bf53.html#a9ca12fb8f920cab38313323cf0c4bf53" target="_top" xlink:title=" ">
<polygon fill="white" stroke="#666666" points="275,-141.88 149.5,-141.88 149.5,-111.38 275,-111.38 275,-141.88"/>
<text text-anchor="start" x="157.5" y="-128.38" font-family="Helvetica,sans-Serif" font-size="10.00">Calculate_Computational</text>
<text text-anchor="middle" x="212.25" y="-117.12" font-family="Helvetica,sans-Serif" font-size="10.00">_Variables</text>
</a>
</g>
</g>
<!-- Node1&#45;&gt;Node2 -->
<g id="edge1_Node000001_Node000002" class="edge">
<title>Node1&#45;&gt;Node2</title>
<g id="a_edge1_Node000001_Node000002"><a xlink:title=" ">
<path fill="none" stroke="#63b8ff" d="M81.45,-74.61C99.95,-82.36 126.3,-93.31 149.5,-102.62 152.92,-104 156.44,-105.4 160,-106.81"/>
<polygon fill="#63b8ff" stroke="#63b8ff" points="158.68,-110.05 169.27,-110.45 161.24,-103.53 158.68,-110.05"/>
</a>
</g>
</g>
<!-- Node3 -->
<g id="Node000003" class="node">
<title>Node3</title>
<g id="a_Node000003"><a xlink:href="../../d8/df4/_w_e_n_o2_d_8cpp_aa7f9c038358ea3a8da0d6b64375a017d.html#aa7f9c038358ea3a8da0d6b64375a017d" target="_top" xlink:title=" ">
<polygon fill="white" stroke="#666666" points="237.12,-93.25 187.38,-93.25 187.38,-74 237.12,-74 237.12,-93.25"/>
<text text-anchor="middle" x="212.25" y="-79.75" font-family="Helvetica,sans-Serif" font-size="10.00">Get_LR</text>
</a>
</g>
</g>
<!-- Node1&#45;&gt;Node3 -->
<g id="edge2_Node000001_Node000003" class="edge">
<title>Node1&#45;&gt;Node3</title>
<g id="a_edge2_Node000001_Node000003"><a xlink:title=" ">
<path fill="none" stroke="#63b8ff" d="M113.6,-71.54C134.27,-74.1 157.14,-76.93 175.54,-79.21"/>
<polygon fill="#63b8ff" stroke="#63b8ff" points="175.07,-82.67 185.42,-80.43 175.93,-75.73 175.07,-82.67"/>
</a>
</g>
</g>
<!-- Node4 -->
<g id="Node000004" class="node">
<title>Node4</title>
<g id="a_Node000004"><a xlink:href="../../d8/df4/_w_e_n_o2_d_8cpp_a3c4047d6325a39e8fccf21bc4ded25ce.html#a3c4047d6325a39e8fccf21bc4ded25ce" target="_top" xlink:title=" ">
<polygon fill="white" stroke="#666666" points="245,-56.25 179.5,-56.25 179.5,-37 245,-37 245,-56.25"/>
<text text-anchor="middle" x="212.25" y="-42.75" font-family="Helvetica,sans-Serif" font-size="10.00">MatVecMul</text>
</a>
</g>
</g>
<!-- Node1&#45;&gt;Node4 -->
<g id="edge3_Node000001_Node000004" class="edge">
<title>Node1&#45;&gt;Node4</title>
<g id="a_edge3_Node000001_Node000004"><a xlink:title=" ">
<path fill="none" stroke="#63b8ff" d="M113.6,-58.08C131.57,-55.97 151.19,-53.67 168.11,-51.68"/>
<polygon fill="#63b8ff" stroke="#63b8ff" points="168.3,-55.19 177.82,-50.54 167.48,-48.23 168.3,-55.19"/>
</a>
</g>
</g>
<!-- Node6 -->
<g id="Node000006" class="node">
<title>Node6</title>
<g id="a_Node000006"><a xlink:href="../../d8/df4/_w_e_n_o2_d_8cpp_a95c88b19ac9f25947b58f960364ce579.html#a95c88b19ac9f25947b58f960364ce579" target="_top" xlink:title=" ">
<polygon fill="white" stroke="#666666" points="271.62,-19.25 152.88,-19.25 152.88,0 271.62,0 271.62,-19.25"/>
<text text-anchor="middle" x="212.25" y="-5.75" font-family="Helvetica,sans-Serif" font-size="10.00">WENO_Reconstruction</text>
</a>
</g>
</g>
<!-- Node1&#45;&gt;Node6 -->
<g id="edge5_Node000001_Node000006" class="edge">
<title>Node1&#45;&gt;Node6</title>
<g id="a_edge5_Node000001_Node000006"><a xlink:title=" ">
<path fill="none" stroke="#63b8ff" d="M80.89,-54.55C99.3,-46.71 125.81,-35.83 149.5,-27.62 154.01,-26.06 158.74,-24.52 163.48,-23.03"/>
<polygon fill="#63b8ff" stroke="#63b8ff" points="164.49,-26.38 173.04,-20.13 162.46,-19.69 164.49,-26.38"/>
</a>
</g>
</g>
<!-- Node5 -->
<g id="Node000005" class="node">
<title>Node5</title>
<g id="a_Node000005"><a xlink:href="../../d3/d82/_c_type___elliptic___grid_8cpp_a9d9acf133a5b966f0cbd16a2c57a7d79.html#a9d9acf133a5b966f0cbd16a2c57a7d79" target="_top" xlink:title=" ">
<polygon fill="white" stroke="#666666" points="339.8,-56.25 311,-56.25 311,-37 339.8,-37 339.8,-56.25"/>
<text text-anchor="middle" x="325.4" y="-42.75" font-family="Helvetica,sans-Serif" font-size="10.00">x</text>
</a>
</g>
</g>
<!-- Node4&#45;&gt;Node5 -->
<g id="edge4_Node000004_Node000005" class="edge">
<title>Node4&#45;&gt;Node5</title>
<g id="a_edge4_Node000004_Node000005"><a xlink:title=" ">
<path fill="none" stroke="#63b8ff" d="M245.4,-46.62C262.67,-46.62 283.63,-46.62 299.62,-46.62"/>
<polygon fill="#63b8ff" stroke="#63b8ff" points="299.22,-50.13 309.22,-46.63 299.22,-43.13 299.22,-50.13"/>
</a>
</g>
</g>
</g>
</svg>
