<?xml version="1.0" encoding="UTF-8" standalone="no"?>
<!DOCTYPE svg PUBLIC "-//W3C//DTD SVG 1.1//EN"
 "http://www.w3.org/Graphics/SVG/1.1/DTD/svg11.dtd">
<!-- Generated by graphviz version 12.2.1 (20241206.2353)
 -->
<!-- Title: WENO_Reconstruction_X Pages: 1 -->
<svg width="515pt" height="150pt"
 viewBox="0.00 0.00 514.55 149.88" xmlns="http://www.w3.org/2000/svg" xmlns:xlink="http://www.w3.org/1999/xlink">
<g id="graph0" class="graph" transform="scale(1 1) rotate(0) translate(4 145.88)">
<title>WENO_Reconstruction_X</title>
<!-- Node1 -->
<g id="Node000001" class="node">
<title>Node1</title>
<g id="a_Node000001"><a xlink:title=" ">
<polygon fill="#999999" stroke="#666666" points="130.75,-74.25 0,-74.25 0,-55 130.75,-55 130.75,-74.25"/>
<text text-anchor="middle" x="65.38" y="-60.75" font-family="Helvetica,sans-Serif" font-size="10.00">WENO_Reconstruction_X</text>
</a>
</g>
</g>
<!-- Node2 -->
<g id="Node000002" class="node">
<title>Node2</title>
<g id="a_Node000002"><a xlink:href="../../d8/df4/_w_e_n_o2_d_8cpp_a41800d52b7dfe3e64e37ea4c0abae5bb.html#a41800d52b7dfe3e64e37ea4c0abae5bb" target="_top" xlink:title=" ">
<polygon fill="white" stroke="#666666" points="280.25,-74.25 166.75,-74.25 166.75,-55 280.25,-55 280.25,-74.25"/>
<text text-anchor="middle" x="223.5" y="-60.75" font-family="Helvetica,sans-Serif" font-size="10.00">Get_Reconstructed_U</text>
</a>
</g>
</g>
<!-- Node1&#45;&gt;Node2 -->
<g id="edge1_Node000001_Node000002" class="edge">
<title>Node1&#45;&gt;Node2</title>
<g id="a_edge1_Node000001_Node000002"><a xlink:title=" ">
<path fill="none" stroke="#63b8ff" d="M131.23,-64.62C139.11,-64.62 147.18,-64.62 155.09,-64.62"/>
<polygon fill="#63b8ff" stroke="#63b8ff" points="155.03,-68.13 165.03,-64.63 155.03,-61.13 155.03,-68.13"/>
</a>
</g>
</g>
<!-- Node3 -->
<g id="Node000003" class="node">
<title>Node3</title>
<g id="a_Node000003"><a xlink:href="../../df/d43/_basic___functions_8cpp_a9ca12fb8f920cab38313323cf0c4bf53.html#a9ca12fb8f920cab38313323cf0c4bf53" target="_top" xlink:title=" ">
<polygon fill="white" stroke="#666666" points="441.75,-141.88 316.25,-141.88 316.25,-111.38 441.75,-111.38 441.75,-141.88"/>
<text text-anchor="start" x="324.25" y="-128.38" font-family="Helvetica,sans-Serif" font-size="10.00">Calculate_Computational</text>
<text text-anchor="middle" x="379" y="-117.12" font-family="Helvetica,sans-Serif" font-size="10.00">_Variables</text>
</a>
</g>
</g>
<!-- Node2&#45;&gt;Node3 -->
<g id="edge2_Node000002_Node000003" class="edge">
<title>Node2&#45;&gt;Node3</title>
<g id="a_edge2_Node000002_Node000003"><a xlink:title=" ">
<path fill="none" stroke="#63b8ff" d="M248.2,-74.61C266.7,-82.36 293.05,-93.31 316.25,-102.62 319.67,-104 323.19,-105.4 326.75,-106.81"/>
<polygon fill="#63b8ff" stroke="#63b8ff" points="325.43,-110.05 336.02,-110.45 327.99,-103.53 325.43,-110.05"/>
</a>
</g>
</g>
<!-- Node4 -->
<g id="Node000004" class="node">
<title>Node4</title>
<g id="a_Node000004"><a xlink:href="../../d8/df4/_w_e_n_o2_d_8cpp_aa7f9c038358ea3a8da0d6b64375a017d.html#aa7f9c038358ea3a8da0d6b64375a017d" target="_top" xlink:title=" ">
<polygon fill="white" stroke="#666666" points="403.88,-93.25 354.12,-93.25 354.12,-74 403.88,-74 403.88,-93.25"/>
<text text-anchor="middle" x="379" y="-79.75" font-family="Helvetica,sans-Serif" font-size="10.00">Get_LR</text>
</a>
</g>
</g>
<!-- Node2&#45;&gt;Node4 -->
<g id="edge3_Node000002_Node000004" class="edge">
<title>Node2&#45;&gt;Node4</title>
<g id="a_edge3_Node000002_Node000004"><a xlink:title=" ">
<path fill="none" stroke="#63b8ff" d="M280.35,-71.54C301.02,-74.1 323.89,-76.93 342.29,-79.21"/>
<polygon fill="#63b8ff" stroke="#63b8ff" points="341.82,-82.67 352.17,-80.43 342.68,-75.73 341.82,-82.67"/>
</a>
</g>
</g>
<!-- Node5 -->
<g id="Node000005" class="node">
<title>Node5</title>
<g id="a_Node000005"><a xlink:href="../../d8/df4/_w_e_n_o2_d_8cpp_a3c4047d6325a39e8fccf21bc4ded25ce.html#a3c4047d6325a39e8fccf21bc4ded25ce" target="_top" xlink:title=" ">
<polygon fill="white" stroke="#666666" points="411.75,-56.25 346.25,-56.25 346.25,-37 411.75,-37 411.75,-56.25"/>
<text text-anchor="middle" x="379" y="-42.75" font-family="Helvetica,sans-Serif" font-size="10.00">MatVecMul</text>
</a>
</g>
</g>
<!-- Node2&#45;&gt;Node5 -->
<g id="edge4_Node000002_Node000005" class="edge">
<title>Node2&#45;&gt;Node5</title>
<g id="a_edge4_Node000002_Node000005"><a xlink:title=" ">
<path fill="none" stroke="#63b8ff" d="M280.35,-58.08C298.32,-55.97 317.94,-53.67 334.86,-51.68"/>
<polygon fill="#63b8ff" stroke="#63b8ff" points="335.05,-55.19 344.57,-50.54 334.23,-48.23 335.05,-55.19"/>
</a>
</g>
</g>
<!-- Node7 -->
<g id="Node000007" class="node">
<title>Node7</title>
<g id="a_Node000007"><a xlink:href="../../d8/df4/_w_e_n_o2_d_8cpp_a95c88b19ac9f25947b58f960364ce579.html#a95c88b19ac9f25947b58f960364ce579" target="_top" xlink:title=" ">
<polygon fill="white" stroke="#666666" points="438.38,-19.25 319.62,-19.25 319.62,0 438.38,0 438.38,-19.25"/>
<text text-anchor="middle" x="379" y="-5.75" font-family="Helvetica,sans-Serif" font-size="10.00">WENO_Reconstruction</text>
</a>
</g>
</g>
<!-- Node2&#45;&gt;Node7 -->
<g id="edge6_Node000002_Node000007" class="edge">
<title>Node2&#45;&gt;Node7</title>
<g id="a_edge6_Node000002_Node000007"><a xlink:title=" ">
<path fill="none" stroke="#63b8ff" d="M247.64,-54.55C266.05,-46.71 292.56,-35.83 316.25,-27.62 320.76,-26.06 325.49,-24.52 330.23,-23.03"/>
<polygon fill="#63b8ff" stroke="#63b8ff" points="331.24,-26.38 339.79,-20.13 329.21,-19.69 331.24,-26.38"/>
</a>
</g>
</g>
<!-- Node6 -->
<g id="Node000006" class="node">
<title>Node6</title>
<g id="a_Node000006"><a xlink:href="../../d3/d82/_c_type___elliptic___grid_8cpp_a9d9acf133a5b966f0cbd16a2c57a7d79.html#a9d9acf133a5b966f0cbd16a2c57a7d79" target="_top" xlink:title=" ">
<polygon fill="white" stroke="#666666" points="506.55,-56.25 477.75,-56.25 477.75,-37 506.55,-37 506.55,-56.25"/>
<text text-anchor="middle" x="492.15" y="-42.75" font-family="Helvetica,sans-Serif" font-size="10.00">x</text>
</a>
</g>
</g>
<!-- Node5&#45;&gt;Node6 -->
<g id="edge5_Node000005_Node000006" class="edge">
<title>Node5&#45;&gt;Node6</title>
<g id="a_edge5_Node000005_Node000006"><a xlink:title=" ">
<path fill="none" stroke="#63b8ff" d="M412.15,-46.62C429.42,-46.62 450.38,-46.62 466.37,-46.62"/>
<polygon fill="#63b8ff" stroke="#63b8ff" points="465.97,-50.13 475.97,-46.63 465.97,-43.13 465.97,-50.13"/>
</a>
</g>
</g>
</g>
</svg>
