<?xml version="1.0" encoding="UTF-8" standalone="no"?>
<!DOCTYPE svg PUBLIC "-//W3C//DTD SVG 1.1//EN"
 "http://www.w3.org/Graphics/SVG/1.1/DTD/svg11.dtd">
<!-- Generated by graphviz version 12.2.1 (20241206.2353)
 -->
<!-- Title: IncompressibleSolver::initialize_incompressible_solver_with_grid Pages: 1 -->
<svg width="369pt" height="90pt"
 viewBox="0.00 0.00 368.75 90.36" xmlns="http://www.w3.org/2000/svg" xmlns:xlink="http://www.w3.org/1999/xlink">
<g id="graph0" class="graph" transform="scale(1 1) rotate(0) translate(4 86.36)">
<title>IncompressibleSolver::initialize_incompressible_solver_with_grid</title>
<!-- Node1 -->
<g id="Node000001" class="node">
<title>Node1</title>
<g id="a_Node000001"><a xlink:title="Initialize incompressible solver with grid data from existing infrastructure.">
<polygon fill="#999999" stroke="#666666" points="360.75,-73.5 233,-73.5 233,-31.75 360.75,-31.75 360.75,-73.5"/>
<text text-anchor="start" x="241" y="-60" font-family="Helvetica,sans-Serif" font-size="10.00">IncompressibleSolver</text>
<text text-anchor="start" x="241" y="-48.75" font-family="Helvetica,sans-Serif" font-size="10.00">::initialize_incompressible</text>
<text text-anchor="middle" x="296.88" y="-37.5" font-family="Helvetica,sans-Serif" font-size="10.00">_solver_with_grid</text>
</a>
</g>
</g>
<!-- Node2 -->
<g id="Node000002" class="node">
<title>Node2</title>
<g id="a_Node000002"><a xlink:href="../../d3/d1b/_incompressible___main_8cpp_a0ddf1224851353fc92bfbff6f499fa97.html#a0ddf1224851353fc92bfbff6f499fa97" target="_top" xlink:title=" ">
<polygon fill="white" stroke="#666666" points="37,-62.25 0,-62.25 0,-43 37,-43 37,-62.25"/>
<text text-anchor="middle" x="18.5" y="-48.75" font-family="Helvetica,sans-Serif" font-size="10.00">main</text>
</a>
</g>
</g>
<!-- Node1&#45;&gt;Node2 -->
<g id="edge1_Node000001_Node000002" class="edge">
<title>Node1&#45;&gt;Node2</title>
<g id="a_edge1_Node000001_Node000002"><a xlink:title=" ">
<path fill="none" stroke="#63b8ff" d="M221.77,-72.28C178.12,-80.98 122.01,-87.11 73,-76.62 60.26,-73.9 46.88,-67.9 36.69,-62.58"/>
<polygon fill="#63b8ff" stroke="#63b8ff" points="222.32,-75.75 231.4,-70.28 220.89,-68.89 222.32,-75.75"/>
</a>
</g>
</g>
<!-- Node3 -->
<g id="Node000003" class="node">
<title>Node3</title>
<g id="a_Node000003"><a xlink:href="../../d3/d1b/_incompressible___main_8cpp_afe0b7b309a59208f44fafe33ff9bb6df.html#afe0b7b309a59208f44fafe33ff9bb6df" target="_top" xlink:title=" ">
<polygon fill="white" stroke="#666666" points="185,-67.88 85,-67.88 85,-37.38 185,-37.38 185,-67.88"/>
<text text-anchor="start" x="93" y="-54.38" font-family="Helvetica,sans-Serif" font-size="10.00">run_incompressible</text>
<text text-anchor="middle" x="135" y="-43.12" font-family="Helvetica,sans-Serif" font-size="10.00">_solver</text>
</a>
</g>
</g>
<!-- Node1&#45;&gt;Node3 -->
<g id="edge2_Node000001_Node000003" class="edge">
<title>Node1&#45;&gt;Node3</title>
<g id="a_edge2_Node000001_Node000003"><a xlink:title=" ">
<path fill="none" stroke="#63b8ff" d="M221.53,-52.62C209.28,-52.62 196.86,-52.62 185.42,-52.62"/>
<polygon fill="#63b8ff" stroke="#63b8ff" points="221.17,-56.13 231.17,-52.63 221.17,-49.13 221.17,-56.13"/>
</a>
</g>
</g>
<!-- Node4 -->
<g id="Node000004" class="node">
<title>Node4</title>
<g id="a_Node000004"><a xlink:href="../../d3/d1b/_incompressible___main_8cpp_a10cfe68fcf009fcb40d92f8e6681b50b.html#a10cfe68fcf009fcb40d92f8e6681b50b" target="_top" xlink:title=" ">
<polygon fill="white" stroke="#666666" points="197,-19.25 73,-19.25 73,0 197,0 197,-19.25"/>
<text text-anchor="middle" x="135" y="-5.75" font-family="Helvetica,sans-Serif" font-size="10.00">run_validation_test_case</text>
</a>
</g>
</g>
<!-- Node1&#45;&gt;Node4 -->
<g id="edge3_Node000001_Node000004" class="edge">
<title>Node1&#45;&gt;Node4</title>
<g id="a_edge3_Node000001_Node000004"><a xlink:title=" ">
<path fill="none" stroke="#63b8ff" d="M221.75,-32.69C204.99,-28.18 187.89,-23.58 173.41,-19.69"/>
<polygon fill="#63b8ff" stroke="#63b8ff" points="220.66,-36.02 231.23,-35.24 222.48,-29.26 220.66,-36.02"/>
</a>
</g>
</g>
<!-- Node4&#45;&gt;Node2 -->
<g id="edge4_Node000004_Node000002" class="edge">
<title>Node4&#45;&gt;Node2</title>
<g id="a_edge4_Node000004_Node000002"><a xlink:title=" ">
<path fill="none" stroke="#63b8ff" d="M88.52,-23.13C83.26,-24.89 77.99,-26.74 73,-28.62 60.81,-33.24 47.44,-39.24 37.11,-44.08"/>
<polygon fill="#63b8ff" stroke="#63b8ff" points="89.36,-26.54 97.8,-20.13 87.2,-19.88 89.36,-26.54"/>
</a>
</g>
</g>
</g>
</svg>
