<?xml version="1.0" encoding="UTF-8" standalone="no"?>
<!DOCTYPE svg PUBLIC "-//W3C//DTD SVG 1.1//EN"
 "http://www.w3.org/Graphics/SVG/1.1/DTD/svg11.dtd">
<!-- Generated by graphviz version 12.2.1 (20241206.2353)
 -->
<!-- Title: IncompressibleSolver::create_default_boundary_conditions Pages: 1 -->
<svg width="533pt" height="165pt"
 viewBox="0.00 0.00 533.25 165.38" xmlns="http://www.w3.org/2000/svg" xmlns:xlink="http://www.w3.org/1999/xlink">
<g id="graph0" class="graph" transform="scale(1 1) rotate(0) translate(4 161.38)">
<title>IncompressibleSolver::create_default_boundary_conditions</title>
<!-- Node1 -->
<g id="Node000001" class="node">
<title>Node1</title>
<g id="a_Node000001"><a xlink:title="Create default boundary conditions based on existing boundary classifications.">
<polygon fill="#999999" stroke="#666666" points="525.25,-87.5 396.75,-87.5 396.75,-45.75 525.25,-45.75 525.25,-87.5"/>
<text text-anchor="start" x="404.75" y="-74" font-family="Helvetica,sans-Serif" font-size="10.00">IncompressibleSolver</text>
<text text-anchor="start" x="404.75" y="-62.75" font-family="Helvetica,sans-Serif" font-size="10.00">::create_default_boundary</text>
<text text-anchor="middle" x="461" y="-51.5" font-family="Helvetica,sans-Serif" font-size="10.00">_conditions</text>
</a>
</g>
</g>
<!-- Node2 -->
<g id="Node000002" class="node">
<title>Node2</title>
<g id="a_Node000002"><a xlink:href="../../d6/d0b/namespace_incompressible_solver_a7e6587392f2aec765684b93ba7a5aad6.html#a7e6587392f2aec765684b93ba7a5aad6" target="_top" xlink:title="Initialize incompressible solver with grid data from existing infrastructure.">
<polygon fill="white" stroke="#666666" points="360.75,-155.5 233,-155.5 233,-113.75 360.75,-113.75 360.75,-155.5"/>
<text text-anchor="start" x="241" y="-142" font-family="Helvetica,sans-Serif" font-size="10.00">IncompressibleSolver</text>
<text text-anchor="start" x="241" y="-130.75" font-family="Helvetica,sans-Serif" font-size="10.00">::initialize_incompressible</text>
<text text-anchor="middle" x="296.88" y="-119.5" font-family="Helvetica,sans-Serif" font-size="10.00">_solver_with_grid</text>
</a>
</g>
</g>
<!-- Node1&#45;&gt;Node2 -->
<g id="edge1_Node000001_Node000002" class="edge">
<title>Node1&#45;&gt;Node2</title>
<g id="a_edge1_Node000001_Node000002"><a xlink:title=" ">
<path fill="none" stroke="#63b8ff" d="M398.56,-92.39C382.15,-99.28 364.6,-106.64 348.83,-113.25"/>
<polygon fill="#63b8ff" stroke="#63b8ff" points="399.88,-95.63 407.75,-88.54 397.18,-89.18 399.88,-95.63"/>
</a>
</g>
</g>
<!-- Node3 -->
<g id="Node000003" class="node">
<title>Node3</title>
<g id="a_Node000003"><a xlink:href="../../d3/d1b/_incompressible___main_8cpp_a0ddf1224851353fc92bfbff6f499fa97.html#a0ddf1224851353fc92bfbff6f499fa97" target="_top" xlink:title=" ">
<polygon fill="white" stroke="#666666" points="37,-143.25 0,-143.25 0,-124 37,-124 37,-143.25"/>
<text text-anchor="middle" x="18.5" y="-129.75" font-family="Helvetica,sans-Serif" font-size="10.00">main</text>
</a>
</g>
</g>
<!-- Node1&#45;&gt;Node3 -->
<g id="edge7_Node000001_Node000003" class="edge">
<title>Node1&#45;&gt;Node3</title>
<g id="a_edge7_Node000001_Node000003"><a xlink:title=" ">
<path fill="none" stroke="#63b8ff" d="M385.21,-48.26C304.01,-32.37 172.6,-18.7 73,-66.62 48.32,-78.5 31.48,-107.92 23.96,-123.52"/>
<polygon fill="#63b8ff" stroke="#63b8ff" points="384.35,-51.66 394.84,-50.21 385.74,-44.8 384.35,-51.66"/>
</a>
</g>
</g>
<!-- Node4 -->
<g id="Node000004" class="node">
<title>Node4</title>
<g id="a_Node000004"><a xlink:href="../../d3/d1b/_incompressible___main_8cpp_afe0b7b309a59208f44fafe33ff9bb6df.html#afe0b7b309a59208f44fafe33ff9bb6df" target="_top" xlink:title=" ">
<polygon fill="white" stroke="#666666" points="185,-105.88 85,-105.88 85,-75.38 185,-75.38 185,-105.88"/>
<text text-anchor="start" x="93" y="-92.38" font-family="Helvetica,sans-Serif" font-size="10.00">run_incompressible</text>
<text text-anchor="middle" x="135" y="-81.12" font-family="Helvetica,sans-Serif" font-size="10.00">_solver</text>
</a>
</g>
</g>
<!-- Node1&#45;&gt;Node4 -->
<g id="edge8_Node000001_Node000004" class="edge">
<title>Node1&#45;&gt;Node4</title>
<g id="a_edge8_Node000001_Node000004"><a xlink:title=" ">
<path fill="none" stroke="#63b8ff" d="M385.2,-72.17C323.82,-76.71 238.64,-83.02 185.45,-86.96"/>
<polygon fill="#63b8ff" stroke="#63b8ff" points="385.15,-75.68 394.87,-71.45 384.63,-68.7 385.15,-75.68"/>
</a>
</g>
</g>
<!-- Node6 -->
<g id="Node000006" class="node">
<title>Node6</title>
<g id="a_Node000006"><a xlink:href="../../d1/dfd/test__standalone_8cpp_ae66f6b31b5ad750f1fe042a706a4e3d4.html#ae66f6b31b5ad750f1fe042a706a4e3d4" target="_top" xlink:title=" ">
<polygon fill="white" stroke="#666666" points="315.38,-19.25 278.38,-19.25 278.38,0 315.38,0 315.38,-19.25"/>
<text text-anchor="middle" x="296.88" y="-5.75" font-family="Helvetica,sans-Serif" font-size="10.00">main</text>
</a>
</g>
</g>
<!-- Node1&#45;&gt;Node6 -->
<g id="edge6_Node000001_Node000006" class="edge">
<title>Node1&#45;&gt;Node6</title>
<g id="a_edge6_Node000001_Node000006"><a xlink:title=" ">
<path fill="none" stroke="#63b8ff" d="M388.99,-41.66C361.98,-32.16 333.47,-22.14 315.68,-15.88"/>
<polygon fill="#63b8ff" stroke="#63b8ff" points="387.61,-44.88 398.2,-44.9 389.93,-38.28 387.61,-44.88"/>
</a>
</g>
</g>
<!-- Node2&#45;&gt;Node3 -->
<g id="edge2_Node000002_Node000003" class="edge">
<title>Node2&#45;&gt;Node3</title>
<g id="a_edge2_Node000002_Node000003"><a xlink:title=" ">
<path fill="none" stroke="#63b8ff" d="M221.22,-149.94C177.74,-156.56 121.99,-161.07 73,-152.62 60.76,-150.52 47.61,-145.88 37.41,-141.72"/>
<polygon fill="#63b8ff" stroke="#63b8ff" points="221.76,-153.4 231.08,-148.37 220.65,-146.49 221.76,-153.4"/>
</a>
</g>
</g>
<!-- Node2&#45;&gt;Node4 -->
<g id="edge3_Node000002_Node000004" class="edge">
<title>Node2&#45;&gt;Node4</title>
<g id="a_edge3_Node000002_Node000004"><a xlink:title=" ">
<path fill="none" stroke="#63b8ff" d="M221.9,-114.27C209.54,-110.86 196.98,-107.41 185.42,-104.23"/>
<polygon fill="#63b8ff" stroke="#63b8ff" points="220.66,-117.55 231.23,-116.83 222.52,-110.81 220.66,-117.55"/>
</a>
</g>
</g>
<!-- Node5 -->
<g id="Node000005" class="node">
<title>Node5</title>
<g id="a_Node000005"><a xlink:href="../../d3/d1b/_incompressible___main_8cpp_a10cfe68fcf009fcb40d92f8e6681b50b.html#a10cfe68fcf009fcb40d92f8e6681b50b" target="_top" xlink:title=" ">
<polygon fill="white" stroke="#666666" points="197,-143.25 73,-143.25 73,-124 197,-124 197,-143.25"/>
<text text-anchor="middle" x="135" y="-129.75" font-family="Helvetica,sans-Serif" font-size="10.00">run_validation_test_case</text>
</a>
</g>
</g>
<!-- Node2&#45;&gt;Node5 -->
<g id="edge4_Node000002_Node000005" class="edge">
<title>Node2&#45;&gt;Node5</title>
<g id="a_edge4_Node000002_Node000005"><a xlink:title=" ">
<path fill="none" stroke="#63b8ff" d="M221.42,-134.16C213.38,-134.11 205.28,-134.06 197.42,-134.01"/>
<polygon fill="#63b8ff" stroke="#63b8ff" points="221.15,-137.66 231.17,-134.22 221.2,-130.66 221.15,-137.66"/>
</a>
</g>
</g>
<!-- Node5&#45;&gt;Node3 -->
<g id="edge5_Node000005_Node000003" class="edge">
<title>Node5&#45;&gt;Node3</title>
<g id="a_edge5_Node000005_Node000003"><a xlink:title=" ">
<path fill="none" stroke="#63b8ff" d="M61.32,-133.62C52.48,-133.62 44.17,-133.62 37.32,-133.62"/>
<polygon fill="#63b8ff" stroke="#63b8ff" points="61.21,-137.13 71.21,-133.63 61.21,-130.13 61.21,-137.13"/>
</a>
</g>
</g>
</g>
</svg>
