<?xml version="1.0" encoding="UTF-8" standalone="no"?>
<!DOCTYPE svg PUBLIC "-//W3C//DTD SVG 1.1//EN"
 "http://www.w3.org/Graphics/SVG/1.1/DTD/svg11.dtd">
<!-- Generated by graphviz version 12.2.1 (20241206.2353)
 -->
<!-- Title: Face::Add_Dissipation Pages: 1 -->
<svg width="282pt" height="64pt"
 viewBox="0.00 0.00 281.50 64.25" xmlns="http://www.w3.org/2000/svg" xmlns:xlink="http://www.w3.org/1999/xlink">
<g id="graph0" class="graph" transform="scale(1 1) rotate(0) translate(4 60.25)">
<title>Face::Add_Dissipation</title>
<!-- Node1 -->
<g id="Node000001" class="node">
<title>Node1</title>
<g id="a_Node000001"><a xlink:title=" ">
<polygon fill="#999999" stroke="#666666" points="115,-37.25 0,-37.25 0,-18 115,-18 115,-37.25"/>
<text text-anchor="middle" x="57.5" y="-23.75" font-family="Helvetica,sans-Serif" font-size="10.00">Face::Add_Dissipation</text>
</a>
</g>
</g>
<!-- Node2 -->
<g id="Node000002" class="node">
<title>Node2</title>
<g id="a_Node000002"><a xlink:href="../../dd/d11/class_cell_af37bc52fb84ad9749bddb65f09d837b5.html#af37bc52fb84ad9749bddb65f09d837b5" target="_top" xlink:title=" ">
<polygon fill="white" stroke="#666666" points="273.5,-56.25 151,-56.25 151,-37 273.5,-37 273.5,-56.25"/>
<text text-anchor="middle" x="212.25" y="-42.75" font-family="Helvetica,sans-Serif" font-size="10.00">Cell::Get_QatCellCenter</text>
</a>
</g>
</g>
<!-- Node1&#45;&gt;Node2 -->
<g id="edge1_Node000001_Node000002" class="edge">
<title>Node1&#45;&gt;Node2</title>
<g id="a_edge1_Node000001_Node000002"><a xlink:title=" ">
<path fill="none" stroke="#63b8ff" d="M115.38,-34.7C123.22,-35.68 131.35,-36.69 139.42,-37.69"/>
<polygon fill="#63b8ff" stroke="#63b8ff" points="138.88,-41.15 149.24,-38.91 139.75,-34.2 138.88,-41.15"/>
</a>
</g>
</g>
<!-- Node3 -->
<g id="Node000003" class="node">
<title>Node3</title>
<g id="a_Node000003"><a xlink:href="../../dd/d11/class_cell_a471d32a4d0f8ab85b129972f50417781.html#a471d32a4d0f8ab85b129972f50417781" target="_top" xlink:title=" ">
<polygon fill="white" stroke="#666666" points="263,-19.25 161.5,-19.25 161.5,0 263,0 263,-19.25"/>
<text text-anchor="middle" x="212.25" y="-5.75" font-family="Helvetica,sans-Serif" font-size="10.00">Cell::Is_Ghost_Cell</text>
</a>
</g>
</g>
<!-- Node1&#45;&gt;Node3 -->
<g id="edge2_Node000001_Node000003" class="edge">
<title>Node1&#45;&gt;Node3</title>
<g id="a_edge2_Node000001_Node000003"><a xlink:title=" ">
<path fill="none" stroke="#63b8ff" d="M115.38,-20.92C126.7,-19.59 138.64,-18.18 150.1,-16.83"/>
<polygon fill="#63b8ff" stroke="#63b8ff" points="150.33,-20.33 159.86,-15.68 149.52,-13.38 150.33,-20.33"/>
</a>
</g>
</g>
</g>
</svg>
