<?xml version="1.0" encoding="UTF-8" standalone="no"?>
<!DOCTYPE svg PUBLIC "-//W3C//DTD SVG 1.1//EN"
 "http://www.w3.org/Graphics/SVG/1.1/DTD/svg11.dtd">
<!-- Generated by graphviz version 12.2.1 (20241206.2353)
 -->
<!-- Title: Face::Flux_From_Face Pages: 1 -->
<svg width="650pt" height="175pt"
 viewBox="0.00 0.00 650.25 175.25" xmlns="http://www.w3.org/2000/svg" xmlns:xlink="http://www.w3.org/1999/xlink">
<g id="graph0" class="graph" transform="scale(1 1) rotate(0) translate(4 171.25)">
<title>Face::Flux_From_Face</title>
<!-- Node1 -->
<g id="Node000001" class="node">
<title>Node1</title>
<g id="a_Node000001"><a xlink:title=" ">
<polygon fill="#999999" stroke="#666666" points="117.25,-93.25 0,-93.25 0,-74 117.25,-74 117.25,-93.25"/>
<text text-anchor="middle" x="58.62" y="-79.75" font-family="Helvetica,sans-Serif" font-size="10.00">Face::Flux_From_Face</text>
</a>
</g>
</g>
<!-- Node2 -->
<g id="Node000002" class="node">
<title>Node2</title>
<g id="a_Node000002"><a xlink:href="../../d5/d2a/class_face_a8bf8d82bb997ead9e413ffe50b53516b.html#a8bf8d82bb997ead9e413ffe50b53516b" target="_top" xlink:title=" ">
<polygon fill="white" stroke="#666666" points="305,-93.25 153.25,-93.25 153.25,-74 305,-74 305,-93.25"/>
<text text-anchor="middle" x="229.12" y="-79.75" font-family="Helvetica,sans-Serif" font-size="10.00">Face::Flux_From_Face_AUSM</text>
</a>
</g>
</g>
<!-- Node1&#45;&gt;Node2 -->
<g id="edge1_Node000001_Node000002" class="edge">
<title>Node1&#45;&gt;Node2</title>
<g id="a_edge1_Node000001_Node000002"><a xlink:title=" ">
<path fill="none" stroke="#63b8ff" d="M117.61,-83.62C125.31,-83.62 133.34,-83.62 141.39,-83.62"/>
<polygon fill="#63b8ff" stroke="#63b8ff" points="141.26,-87.13 151.26,-83.63 141.26,-80.13 141.26,-87.13"/>
</a>
</g>
</g>
<!-- Node11 -->
<g id="Node000011" class="node">
<title>Node11</title>
<g id="a_Node000011"><a xlink:href="../../d5/d2a/class_face_ac4c4a64de5a6e3a3fbc08a00392e251b.html#ac4c4a64de5a6e3a3fbc08a00392e251b" target="_top" xlink:title=" ">
<polygon fill="white" stroke="#666666" points="287.75,-141.88 170.5,-141.88 170.5,-111.38 287.75,-111.38 287.75,-141.88"/>
<text text-anchor="start" x="178.5" y="-128.38" font-family="Helvetica,sans-Serif" font-size="10.00">Face::Flux_From_Face</text>
<text text-anchor="middle" x="229.12" y="-117.12" font-family="Helvetica,sans-Serif" font-size="10.00">_Central</text>
</a>
</g>
</g>
<!-- Node1&#45;&gt;Node11 -->
<g id="edge10_Node000001_Node000011" class="edge">
<title>Node1&#45;&gt;Node11</title>
<g id="a_edge10_Node000001_Node000011"><a xlink:title=" ">
<path fill="none" stroke="#63b8ff" d="M99.13,-93.71C116.94,-98.25 138.51,-103.76 158.87,-108.95"/>
<polygon fill="#63b8ff" stroke="#63b8ff" points="158,-112.34 168.56,-111.42 159.73,-105.56 158,-112.34"/>
</a>
</g>
</g>
<!-- Node12 -->
<g id="Node000012" class="node">
<title>Node12</title>
<g id="a_Node000012"><a xlink:href="../../d5/d2a/class_face_a3560cd5db824a402bf5c380f8ada5bb2.html#a3560cd5db824a402bf5c380f8ada5bb2" target="_top" xlink:title=" ">
<polygon fill="white" stroke="#666666" points="296.38,-56.25 161.88,-56.25 161.88,-37 296.38,-37 296.38,-56.25"/>
<text text-anchor="middle" x="229.12" y="-42.75" font-family="Helvetica,sans-Serif" font-size="10.00">Face::Flux_From_Face_VL</text>
</a>
</g>
</g>
<!-- Node1&#45;&gt;Node12 -->
<g id="edge12_Node000001_Node000012" class="edge">
<title>Node1&#45;&gt;Node12</title>
<g id="a_edge12_Node000001_Node000012"><a xlink:title=" ">
<path fill="none" stroke="#63b8ff" d="M105.67,-73.51C125.82,-69.09 149.68,-63.85 170.95,-59.18"/>
<polygon fill="#63b8ff" stroke="#63b8ff" points="171.64,-62.61 180.66,-57.05 170.14,-55.77 171.64,-62.61"/>
</a>
</g>
</g>
<!-- Node3 -->
<g id="Node000003" class="node">
<title>Node3</title>
<g id="a_Node000003"><a xlink:href="../../d5/d2a/class_face_a28f4009e42e1ac60082a6952566a31aa.html#a28f4009e42e1ac60082a6952566a31aa" target="_top" xlink:title=" ">
<polygon fill="white" stroke="#666666" points="455.25,-130.25 353,-130.25 353,-111 455.25,-111 455.25,-130.25"/>
<text text-anchor="middle" x="404.12" y="-116.75" font-family="Helvetica,sans-Serif" font-size="10.00">Face::Cal_Primitive</text>
</a>
</g>
</g>
<!-- Node2&#45;&gt;Node3 -->
<g id="edge2_Node000002_Node000003" class="edge">
<title>Node2&#45;&gt;Node3</title>
<g id="a_edge2_Node000002_Node000003"><a xlink:title=" ">
<path fill="none" stroke="#63b8ff" d="M277.4,-93.74C298.19,-98.18 322.81,-103.45 344.73,-108.14"/>
<polygon fill="#63b8ff" stroke="#63b8ff" points="343.92,-111.54 354.43,-110.21 345.38,-104.7 343.92,-111.54"/>
</a>
</g>
</g>
<!-- Node4 -->
<g id="Node000004" class="node">
<title>Node4</title>
<g id="a_Node000004"><a xlink:href="../../d5/d2a/class_face_a80cd45164e8eda621558150d70999601.html#a80cd45164e8eda621558150d70999601" target="_top" xlink:title=" ">
<polygon fill="white" stroke="#666666" points="459.75,-93.25 348.5,-93.25 348.5,-74 459.75,-74 459.75,-93.25"/>
<text text-anchor="middle" x="404.12" y="-79.75" font-family="Helvetica,sans-Serif" font-size="10.00">Face::Evaluate_Mach</text>
</a>
</g>
</g>
<!-- Node2&#45;&gt;Node4 -->
<g id="edge3_Node000002_Node000004" class="edge">
<title>Node2&#45;&gt;Node4</title>
<g id="a_edge3_Node000002_Node000004"><a xlink:title=" ">
<path fill="none" stroke="#63b8ff" d="M305.25,-83.62C315.72,-83.62 326.41,-83.62 336.71,-83.62"/>
<polygon fill="#63b8ff" stroke="#63b8ff" points="336.61,-87.13 346.61,-83.63 336.61,-80.13 336.61,-87.13"/>
</a>
</g>
</g>
<!-- Node5 -->
<g id="Node000005" class="node">
<title>Node5</title>
<g id="a_Node000005"><a xlink:href="../../d5/d2a/class_face_a7b7a45322054b3094ca16809d72cc9f1.html#a7b7a45322054b3094ca16809d72cc9f1" target="_top" xlink:title=" ">
<polygon fill="white" stroke="#666666" points="467.25,-167.25 341,-167.25 341,-148 467.25,-148 467.25,-167.25"/>
<text text-anchor="middle" x="404.12" y="-153.75" font-family="Helvetica,sans-Serif" font-size="10.00">Face::Evaluate_Pressure</text>
</a>
</g>
</g>
<!-- Node2&#45;&gt;Node5 -->
<g id="edge4_Node000002_Node000005" class="edge">
<title>Node2&#45;&gt;Node5</title>
<g id="a_edge4_Node000002_Node000005"><a xlink:title=" ">
<path fill="none" stroke="#63b8ff" d="M284.7,-93.68C291.77,-96.06 298.73,-99 305,-102.62 324.87,-114.1 321.33,-127.82 341,-139.62 343.03,-140.84 345.15,-141.98 347.33,-143.05"/>
<polygon fill="#63b8ff" stroke="#63b8ff" points="345.87,-146.24 356.44,-146.93 348.61,-139.79 345.87,-146.24"/>
</a>
</g>
</g>
<!-- Node6 -->
<g id="Node000006" class="node">
<title>Node6</title>
<g id="a_Node000006"><a xlink:href="../../d5/d2a/class_face_a1dcbb73e92699148519e558ae989117f.html#a1dcbb73e92699148519e558ae989117f" target="_top" xlink:title=" ">
<polygon fill="white" stroke="#666666" points="459,-56.25 349.25,-56.25 349.25,-37 459,-37 459,-56.25"/>
<text text-anchor="middle" x="404.12" y="-42.75" font-family="Helvetica,sans-Serif" font-size="10.00">Face::Find_Gradients</text>
</a>
</g>
</g>
<!-- Node2&#45;&gt;Node6 -->
<g id="edge5_Node000002_Node000006" class="edge">
<title>Node2&#45;&gt;Node6</title>
<g id="a_edge5_Node000002_Node000006"><a xlink:title=" ">
<path fill="none" stroke="#63b8ff" d="M277.4,-73.51C298.19,-69.07 322.81,-63.8 344.73,-59.11"/>
<polygon fill="#63b8ff" stroke="#63b8ff" points="345.38,-62.55 354.43,-57.04 343.92,-55.71 345.38,-62.55"/>
</a>
</g>
</g>
<!-- Node10 -->
<g id="Node000010" class="node">
<title>Node10</title>
<g id="a_Node000010"><a xlink:href="../../dc/d9f/struct_cell_af37bc52fb84ad9749bddb65f09d837b5.html#af37bc52fb84ad9749bddb65f09d837b5" target="_top" xlink:title=" ">
<polygon fill="white" stroke="#666666" points="465.38,-19.25 342.88,-19.25 342.88,0 465.38,0 465.38,-19.25"/>
<text text-anchor="middle" x="404.12" y="-5.75" font-family="Helvetica,sans-Serif" font-size="10.00">Cell::Get_QatCellCenter</text>
</a>
</g>
</g>
<!-- Node2&#45;&gt;Node10 -->
<g id="edge9_Node000002_Node000010" class="edge">
<title>Node2&#45;&gt;Node10</title>
<g id="a_edge9_Node000002_Node000010"><a xlink:title=" ">
<path fill="none" stroke="#63b8ff" d="M287.48,-73.51C293.59,-71.37 299.56,-68.77 305,-65.62 325.14,-53.98 321.13,-39.73 341,-27.62 343.02,-26.39 345.13,-25.24 347.31,-24.17"/>
<polygon fill="#63b8ff" stroke="#63b8ff" points="348.6,-27.42 356.41,-20.26 345.84,-20.99 348.6,-27.42"/>
</a>
</g>
</g>
<!-- Node7 -->
<g id="Node000007" class="node">
<title>Node7</title>
<g id="a_Node000007"><a xlink:href="../../d5/d2a/class_face_ae6a98fe15c04148426e9875ad29f03cc.html#ae6a98fe15c04148426e9875ad29f03cc" target="_top" xlink:title=" ">
<polygon fill="white" stroke="#666666" points="629.12,-93.25 516.38,-93.25 516.38,-74 629.12,-74 629.12,-93.25"/>
<text text-anchor="middle" x="572.75" y="-79.75" font-family="Helvetica,sans-Serif" font-size="10.00">Face::Scalar_dot_ndS</text>
</a>
</g>
</g>
<!-- Node6&#45;&gt;Node7 -->
<g id="edge6_Node000006_Node000007" class="edge">
<title>Node6&#45;&gt;Node7</title>
<g id="a_edge6_Node000006_Node000007"><a xlink:title=" ">
<path fill="none" stroke="#63b8ff" d="M450.66,-56.74C470.59,-61.16 494.17,-66.4 515.21,-71.07"/>
<polygon fill="#63b8ff" stroke="#63b8ff" points="514.28,-74.45 524.8,-73.2 515.79,-67.61 514.28,-74.45"/>
</a>
</g>
</g>
<!-- Node8 -->
<g id="Node000008" class="node">
<title>Node8</title>
<g id="a_Node000008"><a xlink:href="../../d5/d2a/class_face_a7dbfe0e14e693127d4d75dd68f879f99.html#a7dbfe0e14e693127d4d75dd68f879f99" target="_top" xlink:title=" ">
<polygon fill="white" stroke="#666666" points="642.25,-56.25 503.25,-56.25 503.25,-37 642.25,-37 642.25,-56.25"/>
<text text-anchor="middle" x="572.75" y="-42.75" font-family="Helvetica,sans-Serif" font-size="10.00">Face::Thermal_Conductivity</text>
</a>
</g>
</g>
<!-- Node6&#45;&gt;Node8 -->
<g id="edge7_Node000006_Node000008" class="edge">
<title>Node6&#45;&gt;Node8</title>
<g id="a_edge7_Node000006_Node000008"><a xlink:title=" ">
<path fill="none" stroke="#63b8ff" d="M459.22,-46.62C469.59,-46.62 480.65,-46.62 491.63,-46.62"/>
<polygon fill="#63b8ff" stroke="#63b8ff" points="491.51,-50.13 501.51,-46.63 491.51,-43.13 491.51,-50.13"/>
</a>
</g>
</g>
<!-- Node9 -->
<g id="Node000009" class="node">
<title>Node9</title>
<g id="a_Node000009"><a xlink:href="../../d5/d2a/class_face_a658f439bcdacbf424d659be66ae7bce7.html#a658f439bcdacbf424d659be66ae7bce7" target="_top" xlink:title=" ">
<polygon fill="white" stroke="#666666" points="614.88,-19.25 530.62,-19.25 530.62,0 614.88,0 614.88,-19.25"/>
<text text-anchor="middle" x="572.75" y="-5.75" font-family="Helvetica,sans-Serif" font-size="10.00">Face::Viscosity</text>
</a>
</g>
</g>
<!-- Node6&#45;&gt;Node9 -->
<g id="edge8_Node000006_Node000009" class="edge">
<title>Node6&#45;&gt;Node9</title>
<g id="a_edge8_Node000006_Node000009"><a xlink:title=" ">
<path fill="none" stroke="#63b8ff" d="M450.66,-36.51C471.83,-31.81 497.12,-26.2 519.11,-21.31"/>
<polygon fill="#63b8ff" stroke="#63b8ff" points="519.79,-24.75 528.79,-19.16 518.27,-17.92 519.79,-24.75"/>
</a>
</g>
</g>
<!-- Node11&#45;&gt;Node3 -->
<g id="edge11_Node000011_Node000003" class="edge">
<title>Node11&#45;&gt;Node3</title>
<g id="a_edge11_Node000011_Node000003"><a xlink:title=" ">
<path fill="none" stroke="#63b8ff" d="M288.21,-124.61C305.36,-124.02 324.19,-123.36 341.55,-122.76"/>
<polygon fill="#63b8ff" stroke="#63b8ff" points="341.33,-126.27 351.21,-122.43 341.09,-119.27 341.33,-126.27"/>
</a>
</g>
</g>
<!-- Node12&#45;&gt;Node3 -->
<g id="edge13_Node000012_Node000003" class="edge">
<title>Node12&#45;&gt;Node3</title>
<g id="a_edge13_Node000012_Node000003"><a xlink:title=" ">
<path fill="none" stroke="#63b8ff" d="M287.48,-56.74C293.59,-58.88 299.56,-61.48 305,-64.62 325.14,-76.27 321.13,-90.52 341,-102.62 343.02,-103.86 345.13,-105.01 347.31,-106.08"/>
<polygon fill="#63b8ff" stroke="#63b8ff" points="345.84,-109.26 356.41,-109.99 348.6,-102.83 345.84,-109.26"/>
</a>
</g>
</g>
<!-- Node12&#45;&gt;Node4 -->
<g id="edge14_Node000012_Node000004" class="edge">
<title>Node12&#45;&gt;Node4</title>
<g id="a_edge14_Node000012_Node000004"><a xlink:title=" ">
<path fill="none" stroke="#63b8ff" d="M277.4,-56.74C298.19,-61.18 322.81,-66.45 344.73,-71.14"/>
<polygon fill="#63b8ff" stroke="#63b8ff" points="343.92,-74.54 354.43,-73.21 345.38,-67.7 343.92,-74.54"/>
</a>
</g>
</g>
<!-- Node12&#45;&gt;Node6 -->
<g id="edge15_Node000012_Node000006" class="edge">
<title>Node12&#45;&gt;Node6</title>
<g id="a_edge15_Node000012_Node000006"><a xlink:title=" ">
<path fill="none" stroke="#63b8ff" d="M296.52,-46.62C310.07,-46.62 324.31,-46.62 337.82,-46.62"/>
<polygon fill="#63b8ff" stroke="#63b8ff" points="337.45,-50.13 347.45,-46.63 337.45,-43.13 337.45,-50.13"/>
</a>
</g>
</g>
<!-- Node12&#45;&gt;Node10 -->
<g id="edge16_Node000012_Node000010" class="edge">
<title>Node12&#45;&gt;Node10</title>
<g id="a_edge16_Node000012_Node000010"><a xlink:title=" ">
<path fill="none" stroke="#63b8ff" d="M277.4,-36.51C298.19,-32.07 322.81,-26.8 344.73,-22.11"/>
<polygon fill="#63b8ff" stroke="#63b8ff" points="345.38,-25.55 354.43,-20.04 343.92,-18.71 345.38,-25.55"/>
</a>
</g>
</g>
</g>
</svg>
