<?xml version="1.0" encoding="UTF-8" standalone="no"?>
<!DOCTYPE svg PUBLIC "-//W3C//DTD SVG 1.1//EN"
 "http://www.w3.org/Graphics/SVG/1.1/DTD/svg11.dtd">
<!-- Generated by graphviz version 12.2.1 (20241206.2353)
 -->
<!-- Title: Face::operator() Pages: 1 -->
<svg width="250pt" height="138pt"
 viewBox="0.00 0.00 250.00 138.25" xmlns="http://www.w3.org/2000/svg" xmlns:xlink="http://www.w3.org/1999/xlink">
<g id="graph0" class="graph" transform="scale(1 1) rotate(0) translate(4 134.25)">
<title>Face::operator()</title>
<!-- Node1 -->
<g id="Node000001" class="node">
<title>Node1</title>
<g id="a_Node000001"><a xlink:title=" ">
<polygon fill="#999999" stroke="#666666" points="85,-74.25 0,-74.25 0,-55 85,-55 85,-74.25"/>
<text text-anchor="middle" x="42.5" y="-60.75" font-family="Helvetica,sans-Serif" font-size="10.00">Face::operator()</text>
</a>
</g>
</g>
<!-- Node2 -->
<g id="Node000002" class="node">
<title>Node2</title>
<g id="a_Node000002"><a xlink:href="../../d5/db2/class_vector_ae6baefc4412b9007de866e811375dcc4.html#ae6baefc4412b9007de866e811375dcc4" target="_top" xlink:title=" ">
<polygon fill="white" stroke="#666666" points="219.88,-130.25 143.12,-130.25 143.12,-111 219.88,-111 219.88,-130.25"/>
<text text-anchor="middle" x="181.5" y="-116.75" font-family="Helvetica,sans-Serif" font-size="10.00">Vector::Cross</text>
</a>
</g>
</g>
<!-- Node1&#45;&gt;Node2 -->
<g id="edge1_Node000001_Node000002" class="edge">
<title>Node1&#45;&gt;Node2</title>
<g id="a_edge1_Node000001_Node000002"><a xlink:title=" ">
<path fill="none" stroke="#63b8ff" d="M61.91,-74.71C77.38,-82.92 100.22,-94.45 121,-102.62 124.84,-104.14 128.86,-105.6 132.93,-106.99"/>
<polygon fill="#63b8ff" stroke="#63b8ff" points="131.65,-110.26 142.24,-110.03 133.82,-103.6 131.65,-110.26"/>
</a>
</g>
</g>
<!-- Node3 -->
<g id="Node000003" class="node">
<title>Node3</title>
<g id="a_Node000003"><a xlink:href="../../d5/d2a/class_face_a5b1692120eacbd2b70decbf6ea9c1ae2.html#a5b1692120eacbd2b70decbf6ea9c1ae2" target="_top" xlink:title=" ">
<polygon fill="white" stroke="#666666" points="231.5,-93.25 131.5,-93.25 131.5,-74 231.5,-74 231.5,-93.25"/>
<text text-anchor="middle" x="181.5" y="-79.75" font-family="Helvetica,sans-Serif" font-size="10.00">Face::Face_Center</text>
</a>
</g>
</g>
<!-- Node1&#45;&gt;Node3 -->
<g id="edge2_Node000001_Node000003" class="edge">
<title>Node1&#45;&gt;Node3</title>
<g id="a_edge2_Node000001_Node000003"><a xlink:title=" ">
<path fill="none" stroke="#63b8ff" d="M85.35,-70.43C96.32,-71.95 108.37,-73.62 120.11,-75.25"/>
<polygon fill="#63b8ff" stroke="#63b8ff" points="119.32,-78.67 129.71,-76.58 120.29,-71.74 119.32,-78.67"/>
</a>
</g>
</g>
<!-- Node4 -->
<g id="Node000004" class="node">
<title>Node4</title>
<g id="a_Node000004"><a xlink:href="../../d5/db2/class_vector_aa16a1db414fd55c9e9507b634d55e541.html#aa16a1db414fd55c9e9507b634d55e541" target="_top" xlink:title=" ">
<polygon fill="white" stroke="#666666" points="242,-56.25 121,-56.25 121,-37 242,-37 242,-56.25"/>
<text text-anchor="middle" x="181.5" y="-42.75" font-family="Helvetica,sans-Serif" font-size="10.00">Vector::Find_UnitVector</text>
</a>
</g>
</g>
<!-- Node1&#45;&gt;Node4 -->
<g id="edge3_Node000001_Node000004" class="edge">
<title>Node1&#45;&gt;Node4</title>
<g id="a_edge3_Node000001_Node000004"><a xlink:title=" ">
<path fill="none" stroke="#63b8ff" d="M85.35,-59.13C92.98,-58.12 101.13,-57.05 109.33,-55.98"/>
<polygon fill="#63b8ff" stroke="#63b8ff" points="109.54,-59.48 119,-54.71 108.63,-52.54 109.54,-59.48"/>
</a>
</g>
</g>
<!-- Node5 -->
<g id="Node000005" class="node">
<title>Node5</title>
<g id="a_Node000005"><a xlink:href="../../d5/db2/class_vector_a33eec0c4822e3199d30fa00745d613ae.html#a33eec0c4822e3199d30fa00745d613ae" target="_top" xlink:title=" ">
<polygon fill="white" stroke="#666666" points="229.25,-19.25 133.75,-19.25 133.75,0 229.25,0 229.25,-19.25"/>
<text text-anchor="middle" x="181.5" y="-5.75" font-family="Helvetica,sans-Serif" font-size="10.00">Vector::magnitude</text>
</a>
</g>
</g>
<!-- Node1&#45;&gt;Node5 -->
<g id="edge4_Node000001_Node000005" class="edge">
<title>Node1&#45;&gt;Node5</title>
<g id="a_edge4_Node000001_Node000005"><a xlink:title=" ">
<path fill="none" stroke="#63b8ff" d="M62.57,-54.52C78.04,-46.57 100.56,-35.54 121,-27.62 124.9,-26.11 128.99,-24.65 133.11,-23.25"/>
<polygon fill="#63b8ff" stroke="#63b8ff" points="134.15,-26.59 142.58,-20.17 131.99,-19.93 134.15,-26.59"/>
</a>
</g>
</g>
</g>
</svg>
