<?xml version="1.0" encoding="UTF-8" standalone="no"?>
<!DOCTYPE svg PUBLIC "-//W3C//DTD SVG 1.1//EN"
 "http://www.w3.org/Graphics/SVG/1.1/DTD/svg11.dtd">
<!-- Generated by graphviz version 12.2.1 (20241206.2353)
 -->
<!-- Title: Face::Cal_Del2Q Pages: 1 -->
<svg width="237pt" height="64pt"
 viewBox="0.00 0.00 237.25 64.25" xmlns="http://www.w3.org/2000/svg" xmlns:xlink="http://www.w3.org/1999/xlink">
<g id="graph0" class="graph" transform="scale(1 1) rotate(0) translate(4 60.25)">
<title>Face::Cal_Del2Q</title>
<!-- Node1 -->
<g id="Node000001" class="node">
<title>Node1</title>
<g id="a_Node000001"><a xlink:title=" ">
<polygon fill="#999999" stroke="#666666" points="91.75,-37.25 0,-37.25 0,-18 91.75,-18 91.75,-37.25"/>
<text text-anchor="middle" x="45.88" y="-23.75" font-family="Helvetica,sans-Serif" font-size="10.00">Face::Cal_Del2Q</text>
</a>
</g>
</g>
<!-- Node2 -->
<g id="Node000002" class="node">
<title>Node2</title>
<g id="a_Node000002"><a xlink:href="../../dd/d11/class_cell_aee0dee04d4819d58782f65d3071fa9e8.html#aee0dee04d4819d58782f65d3071fa9e8" target="_top" xlink:title=" ">
<polygon fill="white" stroke="#666666" points="225.5,-56.25 131.5,-56.25 131.5,-37 225.5,-37 225.5,-56.25"/>
<text text-anchor="middle" x="178.5" y="-42.75" font-family="Helvetica,sans-Serif" font-size="10.00">Cell::Get_Q_Grad</text>
</a>
</g>
</g>
<!-- Node1&#45;&gt;Node2 -->
<g id="edge1_Node000001_Node000002" class="edge">
<title>Node1&#45;&gt;Node2</title>
<g id="a_edge1_Node000001_Node000002"><a xlink:title=" ">
<path fill="none" stroke="#63b8ff" d="M92.19,-34.22C101.21,-35.53 110.78,-36.92 120.13,-38.28"/>
<polygon fill="#63b8ff" stroke="#63b8ff" points="119.48,-41.72 129.88,-39.7 120.48,-34.79 119.48,-41.72"/>
</a>
</g>
</g>
<!-- Node3 -->
<g id="Node000003" class="node">
<title>Node3</title>
<g id="a_Node000003"><a xlink:href="../../dd/d11/class_cell_a471d32a4d0f8ab85b129972f50417781.html#a471d32a4d0f8ab85b129972f50417781" target="_top" xlink:title=" ">
<polygon fill="white" stroke="#666666" points="229.25,-19.25 127.75,-19.25 127.75,0 229.25,0 229.25,-19.25"/>
<text text-anchor="middle" x="178.5" y="-5.75" font-family="Helvetica,sans-Serif" font-size="10.00">Cell::Is_Ghost_Cell</text>
</a>
</g>
</g>
<!-- Node1&#45;&gt;Node3 -->
<g id="edge2_Node000001_Node000003" class="edge">
<title>Node1&#45;&gt;Node3</title>
<g id="a_edge2_Node000001_Node000003"><a xlink:title=" ">
<path fill="none" stroke="#63b8ff" d="M92.19,-21.38C99.91,-20.32 108.03,-19.2 116.08,-18.09"/>
<polygon fill="#63b8ff" stroke="#63b8ff" points="116.42,-21.57 125.85,-16.74 115.47,-14.64 116.42,-21.57"/>
</a>
</g>
</g>
</g>
</svg>
