<?xml version="1.0" encoding="UTF-8" standalone="no"?>
<!DOCTYPE svg PUBLIC "-//W3C//DTD SVG 1.1//EN"
 "http://www.w3.org/Graphics/SVG/1.1/DTD/svg11.dtd">
<!-- Generated by graphviz version 12.2.1 (20241206.2353)
 -->
<!-- Title: Face::Flux_From_Face_AUSM Pages: 1 -->
<svg width="497pt" height="193pt"
 viewBox="0.00 0.00 497.00 193.25" xmlns="http://www.w3.org/2000/svg" xmlns:xlink="http://www.w3.org/1999/xlink">
<g id="graph0" class="graph" transform="scale(1 1) rotate(0) translate(4 189.25)">
<title>Face::Flux_From_Face_AUSM</title>
<!-- Node1 -->
<g id="Node000001" class="node">
<title>Node1</title>
<g id="a_Node000001"><a xlink:title=" ">
<polygon fill="#999999" stroke="#666666" points="151.75,-111.25 0,-111.25 0,-92 151.75,-92 151.75,-111.25"/>
<text text-anchor="middle" x="75.88" y="-97.75" font-family="Helvetica,sans-Serif" font-size="10.00">Face::Flux_From_Face_AUSM</text>
</a>
</g>
</g>
<!-- Node2 -->
<g id="Node000002" class="node">
<title>Node2</title>
<g id="a_Node000002"><a xlink:href="../../d5/d2a/class_face_a28f4009e42e1ac60082a6952566a31aa.html#a28f4009e42e1ac60082a6952566a31aa" target="_top" xlink:title=" ">
<polygon fill="white" stroke="#666666" points="302,-185.25 199.75,-185.25 199.75,-166 302,-166 302,-185.25"/>
<text text-anchor="middle" x="250.88" y="-171.75" font-family="Helvetica,sans-Serif" font-size="10.00">Face::Cal_Primitive</text>
</a>
</g>
</g>
<!-- Node1&#45;&gt;Node2 -->
<g id="edge1_Node000001_Node000002" class="edge">
<title>Node1&#45;&gt;Node2</title>
<g id="a_edge1_Node000001_Node000002"><a xlink:title=" ">
<path fill="none" stroke="#63b8ff" d="M94.08,-111.58C115.49,-123.67 153.43,-144.12 187.75,-157.62 191.81,-159.22 196.06,-160.75 200.36,-162.19"/>
<polygon fill="#63b8ff" stroke="#63b8ff" points="199.03,-165.44 209.62,-165.13 201.14,-158.76 199.03,-165.44"/>
</a>
</g>
</g>
<!-- Node3 -->
<g id="Node000003" class="node">
<title>Node3</title>
<g id="a_Node000003"><a xlink:href="../../d5/d2a/class_face_a80cd45164e8eda621558150d70999601.html#a80cd45164e8eda621558150d70999601" target="_top" xlink:title=" ">
<polygon fill="white" stroke="#666666" points="306.5,-148.25 195.25,-148.25 195.25,-129 306.5,-129 306.5,-148.25"/>
<text text-anchor="middle" x="250.88" y="-134.75" font-family="Helvetica,sans-Serif" font-size="10.00">Face::Evaluate_Mach</text>
</a>
</g>
</g>
<!-- Node1&#45;&gt;Node3 -->
<g id="edge2_Node000001_Node000003" class="edge">
<title>Node1&#45;&gt;Node3</title>
<g id="a_edge2_Node000001_Node000003"><a xlink:title=" ">
<path fill="none" stroke="#63b8ff" d="M124.15,-111.74C144.94,-116.18 169.56,-121.45 191.48,-126.14"/>
<polygon fill="#63b8ff" stroke="#63b8ff" points="190.67,-129.54 201.18,-128.21 192.13,-122.7 190.67,-129.54"/>
</a>
</g>
</g>
<!-- Node4 -->
<g id="Node000004" class="node">
<title>Node4</title>
<g id="a_Node000004"><a xlink:href="../../d5/d2a/class_face_a7b7a45322054b3094ca16809d72cc9f1.html#a7b7a45322054b3094ca16809d72cc9f1" target="_top" xlink:title=" ">
<polygon fill="white" stroke="#666666" points="314,-111.25 187.75,-111.25 187.75,-92 314,-92 314,-111.25"/>
<text text-anchor="middle" x="250.88" y="-97.75" font-family="Helvetica,sans-Serif" font-size="10.00">Face::Evaluate_Pressure</text>
</a>
</g>
</g>
<!-- Node1&#45;&gt;Node4 -->
<g id="edge3_Node000001_Node000004" class="edge">
<title>Node1&#45;&gt;Node4</title>
<g id="a_edge3_Node000001_Node000004"><a xlink:title=" ">
<path fill="none" stroke="#63b8ff" d="M152,-101.62C159.9,-101.62 167.94,-101.62 175.83,-101.62"/>
<polygon fill="#63b8ff" stroke="#63b8ff" points="175.74,-105.13 185.74,-101.63 175.74,-98.13 175.74,-105.13"/>
</a>
</g>
</g>
<!-- Node6 -->
<g id="Node000006" class="node">
<title>Node6</title>
<g id="a_Node000006"><a xlink:href="../../d5/d2a/class_face_a1dcbb73e92699148519e558ae989117f.html#a1dcbb73e92699148519e558ae989117f" target="_top" xlink:title=" ">
<polygon fill="white" stroke="#666666" points="305.75,-74.25 196,-74.25 196,-55 305.75,-55 305.75,-74.25"/>
<text text-anchor="middle" x="250.88" y="-60.75" font-family="Helvetica,sans-Serif" font-size="10.00">Face::Find_Gradients</text>
</a>
</g>
</g>
<!-- Node1&#45;&gt;Node6 -->
<g id="edge5_Node000001_Node000006" class="edge">
<title>Node1&#45;&gt;Node6</title>
<g id="a_edge5_Node000001_Node000006"><a xlink:title=" ">
<path fill="none" stroke="#63b8ff" d="M124.15,-91.51C144.94,-87.07 169.56,-81.8 191.48,-77.11"/>
<polygon fill="#63b8ff" stroke="#63b8ff" points="192.13,-80.55 201.18,-75.04 190.67,-73.71 192.13,-80.55"/>
</a>
</g>
</g>
<!-- Node10 -->
<g id="Node000010" class="node">
<title>Node10</title>
<g id="a_Node000010"><a xlink:href="../../dc/d9f/struct_cell_af37bc52fb84ad9749bddb65f09d837b5.html#af37bc52fb84ad9749bddb65f09d837b5" target="_top" xlink:title=" ">
<polygon fill="white" stroke="#666666" points="312.12,-37.25 189.62,-37.25 189.62,-18 312.12,-18 312.12,-37.25"/>
<text text-anchor="middle" x="250.88" y="-23.75" font-family="Helvetica,sans-Serif" font-size="10.00">Cell::Get_QatCellCenter</text>
</a>
</g>
</g>
<!-- Node1&#45;&gt;Node10 -->
<g id="edge9_Node000001_Node000010" class="edge">
<title>Node1&#45;&gt;Node10</title>
<g id="a_edge9_Node000001_Node000010"><a xlink:title=" ">
<path fill="none" stroke="#63b8ff" d="M94.08,-91.67C115.49,-79.58 153.43,-59.13 187.75,-45.62 191.81,-44.03 196.06,-42.5 200.36,-41.06"/>
<polygon fill="#63b8ff" stroke="#63b8ff" points="201.14,-44.49 209.62,-38.12 199.03,-37.81 201.14,-44.49"/>
</a>
</g>
</g>
<!-- Node5 -->
<g id="Node000005" class="node">
<title>Node5</title>
<g id="a_Node000005"><a xlink:href="../../d3/d82/_c_type___elliptic___grid_8cpp_a6122be421b972a00ce8e6e636589966d.html#a6122be421b972a00ce8e6e636589966d" target="_top" xlink:title=" ">
<polygon fill="white" stroke="#666666" points="433.9,-130.25 405.1,-130.25 405.1,-111 433.9,-111 433.9,-130.25"/>
<text text-anchor="middle" x="419.5" y="-116.75" font-family="Helvetica,sans-Serif" font-size="10.00">P</text>
</a>
</g>
</g>
<!-- Node4&#45;&gt;Node5 -->
<g id="edge4_Node000004_Node000005" class="edge">
<title>Node4&#45;&gt;Node5</title>
<g id="a_edge4_Node000004_Node000005"><a xlink:title=" ">
<path fill="none" stroke="#63b8ff" d="M314.39,-108.75C341.9,-111.89 372.64,-115.4 393.54,-117.78"/>
<polygon fill="#63b8ff" stroke="#63b8ff" points="393.05,-121.25 403.38,-118.9 393.84,-114.29 393.05,-121.25"/>
</a>
</g>
</g>
<!-- Node7 -->
<g id="Node000007" class="node">
<title>Node7</title>
<g id="a_Node000007"><a xlink:href="../../d5/d2a/class_face_ae6a98fe15c04148426e9875ad29f03cc.html#ae6a98fe15c04148426e9875ad29f03cc" target="_top" xlink:title=" ">
<polygon fill="white" stroke="#666666" points="475.88,-93.25 363.12,-93.25 363.12,-74 475.88,-74 475.88,-93.25"/>
<text text-anchor="middle" x="419.5" y="-79.75" font-family="Helvetica,sans-Serif" font-size="10.00">Face::Scalar_dot_ndS</text>
</a>
</g>
</g>
<!-- Node6&#45;&gt;Node7 -->
<g id="edge6_Node000006_Node000007" class="edge">
<title>Node6&#45;&gt;Node7</title>
<g id="a_edge6_Node000006_Node000007"><a xlink:title=" ">
<path fill="none" stroke="#63b8ff" d="M305.97,-70.79C320.44,-72.44 336.24,-74.25 351.32,-75.96"/>
<polygon fill="#63b8ff" stroke="#63b8ff" points="350.84,-79.43 361.17,-77.09 351.63,-72.48 350.84,-79.43"/>
</a>
</g>
</g>
<!-- Node8 -->
<g id="Node000008" class="node">
<title>Node8</title>
<g id="a_Node000008"><a xlink:href="../../d5/d2a/class_face_a7dbfe0e14e693127d4d75dd68f879f99.html#a7dbfe0e14e693127d4d75dd68f879f99" target="_top" xlink:title=" ">
<polygon fill="white" stroke="#666666" points="489,-56.25 350,-56.25 350,-37 489,-37 489,-56.25"/>
<text text-anchor="middle" x="419.5" y="-42.75" font-family="Helvetica,sans-Serif" font-size="10.00">Face::Thermal_Conductivity</text>
</a>
</g>
</g>
<!-- Node6&#45;&gt;Node8 -->
<g id="edge7_Node000006_Node000008" class="edge">
<title>Node6&#45;&gt;Node8</title>
<g id="a_edge7_Node000006_Node000008"><a xlink:title=" ">
<path fill="none" stroke="#63b8ff" d="M305.97,-58.78C316.34,-57.66 327.4,-56.47 338.38,-55.28"/>
<polygon fill="#63b8ff" stroke="#63b8ff" points="338.7,-58.77 348.27,-54.21 337.95,-51.81 338.7,-58.77"/>
</a>
</g>
</g>
<!-- Node9 -->
<g id="Node000009" class="node">
<title>Node9</title>
<g id="a_Node000009"><a xlink:href="../../d5/d2a/class_face_a658f439bcdacbf424d659be66ae7bce7.html#a658f439bcdacbf424d659be66ae7bce7" target="_top" xlink:title=" ">
<polygon fill="white" stroke="#666666" points="461.62,-19.25 377.38,-19.25 377.38,0 461.62,0 461.62,-19.25"/>
<text text-anchor="middle" x="419.5" y="-5.75" font-family="Helvetica,sans-Serif" font-size="10.00">Face::Viscosity</text>
</a>
</g>
</g>
<!-- Node6&#45;&gt;Node9 -->
<g id="edge8_Node000006_Node000009" class="edge">
<title>Node6&#45;&gt;Node9</title>
<g id="a_edge8_Node000006_Node000009"><a xlink:title=" ">
<path fill="none" stroke="#63b8ff" d="M291.06,-54.59C298.76,-52.25 306.71,-49.57 314,-46.62 330.78,-39.85 333.14,-34.19 350,-27.62 355.24,-25.59 360.79,-23.7 366.37,-21.98"/>
<polygon fill="#63b8ff" stroke="#63b8ff" points="367,-25.44 375.63,-19.3 365.05,-18.72 367,-25.44"/>
</a>
</g>
</g>
</g>
</svg>
