<?xml version="1.0" encoding="UTF-8" standalone="no"?>
<!DOCTYPE svg PUBLIC "-//W3C//DTD SVG 1.1//EN"
 "http://www.w3.org/Graphics/SVG/1.1/DTD/svg11.dtd">
<!-- Generated by graphviz version 12.2.1 (20241206.2353)
 -->
<!-- Title: Face::Flux_From_Face_Central Pages: 1 -->
<svg width="300pt" height="286pt"
 viewBox="0.00 0.00 300.25 286.25" xmlns="http://www.w3.org/2000/svg" xmlns:xlink="http://www.w3.org/1999/xlink">
<g id="graph0" class="graph" transform="scale(1 1) rotate(0) translate(4 282.25)">
<title>Face::Flux_From_Face_Central</title>
<!-- Node1 -->
<g id="Node000001" class="node">
<title>Node1</title>
<g id="a_Node000001"><a xlink:title=" ">
<polygon fill="#999999" stroke="#666666" points="117.25,-153.88 0,-153.88 0,-123.38 117.25,-123.38 117.25,-153.88"/>
<text text-anchor="start" x="8" y="-140.38" font-family="Helvetica,sans-Serif" font-size="10.00">Face::Flux_From_Face</text>
<text text-anchor="middle" x="58.62" y="-129.12" font-family="Helvetica,sans-Serif" font-size="10.00">_Central</text>
</a>
</g>
</g>
<!-- Node2 -->
<g id="Node000002" class="node">
<title>Node2</title>
<g id="a_Node000002"><a xlink:href="../../d5/d2a/class_face_a28f4009e42e1ac60082a6952566a31aa.html#a28f4009e42e1ac60082a6952566a31aa" target="_top" xlink:title=" ">
<polygon fill="white" stroke="#666666" points="273.88,-278.25 171.62,-278.25 171.62,-259 273.88,-259 273.88,-278.25"/>
<text text-anchor="middle" x="222.75" y="-264.75" font-family="Helvetica,sans-Serif" font-size="10.00">Face::Cal_Primitive</text>
</a>
</g>
</g>
<!-- Node1&#45;&gt;Node2 -->
<g id="edge1_Node000001_Node000002" class="edge">
<title>Node1&#45;&gt;Node2</title>
<g id="a_edge1_Node000001_Node000002"><a xlink:title=" ">
<path fill="none" stroke="#63b8ff" d="M68.34,-154.29C82.74,-178.7 113.88,-225.63 153.25,-250.62 155.66,-252.15 158.19,-253.55 160.81,-254.83"/>
<polygon fill="#63b8ff" stroke="#63b8ff" points="159.25,-257.98 169.83,-258.62 161.96,-251.52 159.25,-257.98"/>
</a>
</g>
</g>
<!-- Node3 -->
<g id="Node000003" class="node">
<title>Node3</title>
<g id="a_Node000003"><a xlink:href="../../dd/d11/class_cell_aae926146b2f52f029d3d28ec9174136e.html#aae926146b2f52f029d3d28ec9174136e" target="_top" xlink:title=" ">
<polygon fill="white" stroke="#666666" points="283.62,-241.25 161.88,-241.25 161.88,-222 283.62,-222 283.62,-241.25"/>
<text text-anchor="middle" x="222.75" y="-227.75" font-family="Helvetica,sans-Serif" font-size="10.00">Cell::Get_Cell_Pressure</text>
</a>
</g>
</g>
<!-- Node1&#45;&gt;Node3 -->
<g id="edge2_Node000001_Node000003" class="edge">
<title>Node1&#45;&gt;Node3</title>
<g id="a_edge2_Node000001_Node000003"><a xlink:title=" ">
<path fill="none" stroke="#63b8ff" d="M74.75,-154.15C92.17,-171.16 122.37,-198.09 153.25,-213.62 156.28,-215.15 159.46,-216.56 162.71,-217.85"/>
<polygon fill="#63b8ff" stroke="#63b8ff" points="161.25,-221.05 171.85,-221.11 163.6,-214.45 161.25,-221.05"/>
</a>
</g>
</g>
<!-- Node4 -->
<g id="Node000004" class="node">
<title>Node4</title>
<g id="a_Node000004"><a xlink:href="../../dd/d11/class_cell_a9fc71d2f86afca411b70986faf2b882d.html#a9fc71d2f86afca411b70986faf2b882d" target="_top" xlink:title=" ">
<polygon fill="white" stroke="#666666" points="291.12,-204.25 154.38,-204.25 154.38,-185 291.12,-185 291.12,-204.25"/>
<text text-anchor="middle" x="222.75" y="-190.75" font-family="Helvetica,sans-Serif" font-size="10.00">Cell::Get_Cell_Temparature</text>
</a>
</g>
</g>
<!-- Node1&#45;&gt;Node4 -->
<g id="edge3_Node000001_Node000004" class="edge">
<title>Node1&#45;&gt;Node4</title>
<g id="a_edge3_Node000001_Node000004"><a xlink:title=" ">
<path fill="none" stroke="#63b8ff" d="M95.23,-154.34C112.55,-161.65 133.78,-170.14 153.25,-176.62 158.31,-178.31 163.62,-179.94 168.94,-181.48"/>
<polygon fill="#63b8ff" stroke="#63b8ff" points="167.81,-184.8 178.38,-184.12 169.69,-178.06 167.81,-184.8"/>
</a>
</g>
</g>
<!-- Node5 -->
<g id="Node000005" class="node">
<title>Node5</title>
<g id="a_Node000005"><a xlink:href="../../dd/d11/class_cell_af37bc52fb84ad9749bddb65f09d837b5.html#af37bc52fb84ad9749bddb65f09d837b5" target="_top" xlink:title=" ">
<polygon fill="white" stroke="#666666" points="284,-167.25 161.5,-167.25 161.5,-148 284,-148 284,-167.25"/>
<text text-anchor="middle" x="222.75" y="-153.75" font-family="Helvetica,sans-Serif" font-size="10.00">Cell::Get_QatCellCenter</text>
</a>
</g>
</g>
<!-- Node1&#45;&gt;Node5 -->
<g id="edge4_Node000001_Node000005" class="edge">
<title>Node1&#45;&gt;Node5</title>
<g id="a_edge4_Node000001_Node000005"><a xlink:title=" ">
<path fill="none" stroke="#63b8ff" d="M117.7,-145.43C128.15,-146.66 139.16,-147.95 149.95,-149.21"/>
<polygon fill="#63b8ff" stroke="#63b8ff" points="149.23,-152.65 159.57,-150.34 150.05,-145.7 149.23,-152.65"/>
</a>
</g>
</g>
<!-- Node6 -->
<g id="Node000006" class="node">
<title>Node6</title>
<g id="a_Node000006"><a xlink:href="../../dd/d11/class_cell_a471d32a4d0f8ab85b129972f50417781.html#a471d32a4d0f8ab85b129972f50417781" target="_top" xlink:title=" ">
<polygon fill="white" stroke="#666666" points="273.5,-130.25 172,-130.25 172,-111 273.5,-111 273.5,-130.25"/>
<text text-anchor="middle" x="222.75" y="-116.75" font-family="Helvetica,sans-Serif" font-size="10.00">Cell::Is_Ghost_Cell</text>
</a>
</g>
</g>
<!-- Node1&#45;&gt;Node6 -->
<g id="edge5_Node000001_Node000006" class="edge">
<title>Node1&#45;&gt;Node6</title>
<g id="a_edge5_Node000001_Node000006"><a xlink:title=" ">
<path fill="none" stroke="#63b8ff" d="M117.7,-132.18C131.61,-130.63 146.5,-128.98 160.54,-127.42"/>
<polygon fill="#63b8ff" stroke="#63b8ff" points="160.54,-130.94 170.09,-126.36 159.76,-123.99 160.54,-130.94"/>
</a>
</g>
</g>
<!-- Node7 -->
<g id="Node000007" class="node">
<title>Node7</title>
<g id="a_Node000007"><a xlink:href="../../d5/d2a/class_face_ae6a98fe15c04148426e9875ad29f03cc.html#ae6a98fe15c04148426e9875ad29f03cc" target="_top" xlink:title=" ">
<polygon fill="white" stroke="#666666" points="279.12,-93.25 166.38,-93.25 166.38,-74 279.12,-74 279.12,-93.25"/>
<text text-anchor="middle" x="222.75" y="-79.75" font-family="Helvetica,sans-Serif" font-size="10.00">Face::Scalar_dot_ndS</text>
</a>
</g>
</g>
<!-- Node1&#45;&gt;Node7 -->
<g id="edge6_Node000001_Node000007" class="edge">
<title>Node1&#45;&gt;Node7</title>
<g id="a_edge6_Node000001_Node000007"><a xlink:title=" ">
<path fill="none" stroke="#63b8ff" d="M96.16,-123.01C113.32,-115.99 134.15,-107.88 153.25,-101.62 158.38,-99.94 163.77,-98.31 169.18,-96.75"/>
<polygon fill="#63b8ff" stroke="#63b8ff" points="170.07,-100.14 178.76,-94.09 168.19,-93.39 170.07,-100.14"/>
</a>
</g>
</g>
<!-- Node8 -->
<g id="Node000008" class="node">
<title>Node8</title>
<g id="a_Node000008"><a xlink:href="../../d5/d2a/class_face_a7dbfe0e14e693127d4d75dd68f879f99.html#a7dbfe0e14e693127d4d75dd68f879f99" target="_top" xlink:title=" ">
<polygon fill="white" stroke="#666666" points="292.25,-56.25 153.25,-56.25 153.25,-37 292.25,-37 292.25,-56.25"/>
<text text-anchor="middle" x="222.75" y="-42.75" font-family="Helvetica,sans-Serif" font-size="10.00">Face::Thermal_Conductivity</text>
</a>
</g>
</g>
<!-- Node1&#45;&gt;Node8 -->
<g id="edge7_Node000001_Node000008" class="edge">
<title>Node1&#45;&gt;Node8</title>
<g id="a_edge7_Node000001_Node000008"><a xlink:title=" ">
<path fill="none" stroke="#63b8ff" d="M75.11,-123.01C92.61,-106.22 122.66,-79.89 153.25,-64.62 156.29,-63.11 159.47,-61.71 162.72,-60.42"/>
<polygon fill="#63b8ff" stroke="#63b8ff" points="163.61,-63.82 171.87,-57.18 161.27,-57.22 163.61,-63.82"/>
</a>
</g>
</g>
<!-- Node9 -->
<g id="Node000009" class="node">
<title>Node9</title>
<g id="a_Node000009"><a xlink:href="../../d5/d2a/class_face_a658f439bcdacbf424d659be66ae7bce7.html#a658f439bcdacbf424d659be66ae7bce7" target="_top" xlink:title=" ">
<polygon fill="white" stroke="#666666" points="264.88,-19.25 180.62,-19.25 180.62,0 264.88,0 264.88,-19.25"/>
<text text-anchor="middle" x="222.75" y="-5.75" font-family="Helvetica,sans-Serif" font-size="10.00">Face::Viscosity</text>
</a>
</g>
</g>
<!-- Node1&#45;&gt;Node9 -->
<g id="edge8_Node000001_Node000009" class="edge">
<title>Node1&#45;&gt;Node9</title>
<g id="a_edge8_Node000001_Node000009"><a xlink:title=" ">
<path fill="none" stroke="#63b8ff" d="M68.37,-123.1C82.83,-98.91 114.04,-52.4 153.25,-27.62 158.19,-24.5 163.66,-21.92 169.29,-19.78"/>
<polygon fill="#63b8ff" stroke="#63b8ff" points="170.36,-23.11 178.77,-16.67 168.18,-16.46 170.36,-23.11"/>
</a>
</g>
</g>
</g>
</svg>
