<?xml version="1.0" encoding="UTF-8" standalone="no"?>
<!DOCTYPE svg PUBLIC "-//W3C//DTD SVG 1.1//EN"
 "http://www.w3.org/Graphics/SVG/1.1/DTD/svg11.dtd">
<!-- Generated by graphviz version 12.2.1 (20241206.2353)
 -->
<!-- Title: Face::Find_Gradients Pages: 1 -->
<svg width="727pt" height="64pt"
 viewBox="0.00 0.00 727.00 64.25" xmlns="http://www.w3.org/2000/svg" xmlns:xlink="http://www.w3.org/1999/xlink">
<g id="graph0" class="graph" transform="scale(1 1) rotate(0) translate(4 60.25)">
<title>Face::Find_Gradients</title>
<!-- Node1 -->
<g id="Node000001" class="node">
<title>Node1</title>
<g id="a_Node000001"><a xlink:title=" ">
<polygon fill="#999999" stroke="#666666" points="719,-37.25 609.25,-37.25 609.25,-18 719,-18 719,-37.25"/>
<text text-anchor="middle" x="664.12" y="-23.75" font-family="Helvetica,sans-Serif" font-size="10.00">Face::Find_Gradients</text>
</a>
</g>
</g>
<!-- Node2 -->
<g id="Node000002" class="node">
<title>Node2</title>
<g id="a_Node000002"><a xlink:href="../../d5/d2a/class_face_a8bf8d82bb997ead9e413ffe50b53516b.html#a8bf8d82bb997ead9e413ffe50b53516b" target="_top" xlink:title=" ">
<polygon fill="white" stroke="#666666" points="573.25,-56.25 421.5,-56.25 421.5,-37 573.25,-37 573.25,-56.25"/>
<text text-anchor="middle" x="497.38" y="-42.75" font-family="Helvetica,sans-Serif" font-size="10.00">Face::Flux_From_Face_AUSM</text>
</a>
</g>
</g>
<!-- Node1&#45;&gt;Node2 -->
<g id="edge1_Node000001_Node000002" class="edge">
<title>Node1&#45;&gt;Node2</title>
<g id="a_edge1_Node000001_Node000002"><a xlink:title=" ">
<path fill="none" stroke="#63b8ff" d="M597.77,-35.16C589.86,-36.07 581.72,-37.01 573.67,-37.94"/>
<polygon fill="#63b8ff" stroke="#63b8ff" points="598.14,-38.64 607.68,-34.02 597.34,-31.69 598.14,-38.64"/>
</a>
</g>
</g>
<!-- Node7 -->
<g id="Node000007" class="node">
<title>Node7</title>
<g id="a_Node000007"><a xlink:href="../../d5/d2a/class_face_a3560cd5db824a402bf5c380f8ada5bb2.html#a3560cd5db824a402bf5c380f8ada5bb2" target="_top" xlink:title=" ">
<polygon fill="white" stroke="#666666" points="564.62,-19.25 430.12,-19.25 430.12,0 564.62,0 564.62,-19.25"/>
<text text-anchor="middle" x="497.38" y="-5.75" font-family="Helvetica,sans-Serif" font-size="10.00">Face::Flux_From_Face_VL</text>
</a>
</g>
</g>
<!-- Node1&#45;&gt;Node7 -->
<g id="edge6_Node000001_Node000007" class="edge">
<title>Node1&#45;&gt;Node7</title>
<g id="a_edge6_Node000001_Node000007"><a xlink:title=" ">
<path fill="none" stroke="#63b8ff" d="M598.07,-20.52C587.24,-19.33 575.99,-18.1 565.11,-16.92"/>
<polygon fill="#63b8ff" stroke="#63b8ff" points="597.35,-23.96 607.68,-21.57 598.11,-17 597.35,-23.96"/>
</a>
</g>
</g>
<!-- Node3 -->
<g id="Node000003" class="node">
<title>Node3</title>
<g id="a_Node000003"><a xlink:href="../../d5/d2a/class_face_a7edd7ef2c3e6faf1d13c186536039f60.html#a7edd7ef2c3e6faf1d13c186536039f60" target="_top" xlink:title=" ">
<polygon fill="white" stroke="#666666" points="385.5,-37.25 268.25,-37.25 268.25,-18 385.5,-18 385.5,-37.25"/>
<text text-anchor="middle" x="326.88" y="-23.75" font-family="Helvetica,sans-Serif" font-size="10.00">Face::Flux_From_Face</text>
</a>
</g>
</g>
<!-- Node2&#45;&gt;Node3 -->
<g id="edge2_Node000002_Node000003" class="edge">
<title>Node2&#45;&gt;Node3</title>
<g id="a_edge2_Node000002_Node000003"><a xlink:title=" ">
<path fill="none" stroke="#63b8ff" d="M410.24,-36.91C401.97,-35.98 393.74,-35.05 385.84,-34.16"/>
<polygon fill="#63b8ff" stroke="#63b8ff" points="409.65,-40.37 419.98,-38.01 410.44,-33.41 409.65,-40.37"/>
</a>
</g>
</g>
<!-- Node4 -->
<g id="Node000004" class="node">
<title>Node4</title>
<g id="a_Node000004"><a xlink:href="../../dd/d11/class_cell_a4a591da0b84980196864d92dea915c67.html#a4a591da0b84980196864d92dea915c67" target="_top" xlink:title=" ">
<polygon fill="white" stroke="#666666" points="232.25,-56.25 93.25,-56.25 93.25,-37 232.25,-37 232.25,-56.25"/>
<text text-anchor="middle" x="162.75" y="-42.75" font-family="Helvetica,sans-Serif" font-size="10.00">Cell::Evaluate_FluxonFaces</text>
</a>
</g>
</g>
<!-- Node3&#45;&gt;Node4 -->
<g id="edge3_Node000003_Node000004" class="edge">
<title>Node3&#45;&gt;Node4</title>
<g id="a_edge3_Node000003_Node000004"><a xlink:title=" ">
<path fill="none" stroke="#63b8ff" d="M256.63,-35.74C248.63,-36.68 240.47,-37.63 232.48,-38.57"/>
<polygon fill="#63b8ff" stroke="#63b8ff" points="256.77,-39.25 266.3,-34.61 255.96,-32.29 256.77,-39.25"/>
</a>
</g>
</g>
<!-- Node6 -->
<g id="Node000006" class="node">
<title>Node6</title>
<g id="a_Node000006"><a xlink:href="../../dd/d11/class_cell_af0b9b19aa3d5c463bfadc936bbcd83dc.html#af0b9b19aa3d5c463bfadc936bbcd83dc" target="_top" xlink:title=" ">
<polygon fill="white" stroke="#666666" points="209,-19.25 116.5,-19.25 116.5,0 209,0 209,-19.25"/>
<text text-anchor="middle" x="162.75" y="-5.75" font-family="Helvetica,sans-Serif" font-size="10.00">Cell::Test_Fluxes</text>
</a>
</g>
</g>
<!-- Node3&#45;&gt;Node6 -->
<g id="edge5_Node000003_Node000006" class="edge">
<title>Node3&#45;&gt;Node6</title>
<g id="a_edge5_Node000003_Node000006"><a xlink:title=" ">
<path fill="none" stroke="#63b8ff" d="M256.39,-19.91C240.52,-18.15 224.05,-16.32 209.47,-14.7"/>
<polygon fill="#63b8ff" stroke="#63b8ff" points="255.97,-23.39 266.3,-21.01 256.75,-16.43 255.97,-23.39"/>
</a>
</g>
</g>
<!-- Node5 -->
<g id="Node000005" class="node">
<title>Node5</title>
<g id="a_Node000005"><a xlink:href="../../dd/d11/class_cell_aaf94e79f1a6eaba16660a81b86b5d4c1.html#aaf94e79f1a6eaba16660a81b86b5d4c1" target="_top" xlink:title=" ">
<polygon fill="white" stroke="#666666" points="57.25,-56.25 0,-56.25 0,-37 57.25,-37 57.25,-56.25"/>
<text text-anchor="middle" x="28.62" y="-42.75" font-family="Helvetica,sans-Serif" font-size="10.00">Cell::Rk4</text>
</a>
</g>
</g>
<!-- Node4&#45;&gt;Node5 -->
<g id="edge4_Node000004_Node000005" class="edge">
<title>Node4&#45;&gt;Node5</title>
<g id="a_edge4_Node000004_Node000005"><a xlink:title=" ">
<path fill="none" stroke="#63b8ff" d="M81.6,-46.62C73.06,-46.62 64.84,-46.62 57.56,-46.62"/>
<polygon fill="#63b8ff" stroke="#63b8ff" points="81.47,-50.13 91.47,-46.63 81.47,-43.13 81.47,-50.13"/>
</a>
</g>
</g>
<!-- Node7&#45;&gt;Node3 -->
<g id="edge7_Node000007_Node000003" class="edge">
<title>Node7&#45;&gt;Node3</title>
<g id="a_edge7_Node000007_Node000003"><a xlink:title=" ">
<path fill="none" stroke="#63b8ff" d="M418.42,-17.95C407.45,-19.12 396.32,-20.31 385.81,-21.44"/>
<polygon fill="#63b8ff" stroke="#63b8ff" points="418.7,-21.44 428.27,-16.9 417.96,-14.48 418.7,-21.44"/>
</a>
</g>
</g>
</g>
</svg>
