<?xml version="1.0" encoding="UTF-8" standalone="no"?>
<!DOCTYPE svg PUBLIC "-//W3C//DTD SVG 1.1//EN"
 "http://www.w3.org/Graphics/SVG/1.1/DTD/svg11.dtd">
<!-- Generated by graphviz version 12.2.1 (20241206.2353)
 -->
<!-- Title: Face::Flux_From_Face_Central Pages: 1 -->
<svg width="264pt" height="64pt"
 viewBox="0.00 0.00 263.50 64.25" xmlns="http://www.w3.org/2000/svg" xmlns:xlink="http://www.w3.org/1999/xlink">
<g id="graph0" class="graph" transform="scale(1 1) rotate(0) translate(4 60.25)">
<title>Face::Flux_From_Face_Central</title>
<!-- Node1 -->
<g id="Node000001" class="node">
<title>Node1</title>
<g id="a_Node000001"><a xlink:title=" ">
<polygon fill="#999999" stroke="#666666" points="117.25,-42.88 0,-42.88 0,-12.37 117.25,-12.37 117.25,-42.88"/>
<text text-anchor="start" x="8" y="-29.38" font-family="Helvetica,sans-Serif" font-size="10.00">Face::Flux_From_Face</text>
<text text-anchor="middle" x="58.62" y="-18.12" font-family="Helvetica,sans-Serif" font-size="10.00">_Central</text>
</a>
</g>
</g>
<!-- Node2 -->
<g id="Node000002" class="node">
<title>Node2</title>
<g id="a_Node000002"><a xlink:href="../../d5/d2a/class_face_a28f4009e42e1ac60082a6952566a31aa.html#a28f4009e42e1ac60082a6952566a31aa" target="_top" xlink:title=" ">
<polygon fill="white" stroke="#666666" points="255.5,-56.25 153.25,-56.25 153.25,-37 255.5,-37 255.5,-56.25"/>
<text text-anchor="middle" x="204.38" y="-42.75" font-family="Helvetica,sans-Serif" font-size="10.00">Face::Cal_Primitive</text>
</a>
</g>
</g>
<!-- Node1&#45;&gt;Node2 -->
<g id="edge1_Node000001_Node000002" class="edge">
<title>Node1&#45;&gt;Node2</title>
<g id="a_edge1_Node000001_Node000002"><a xlink:title=" ">
<path fill="none" stroke="#63b8ff" d="M117.68,-35.3C125.62,-36.35 133.8,-37.43 141.81,-38.49"/>
<polygon fill="#63b8ff" stroke="#63b8ff" points="141.09,-41.92 151.46,-39.76 142.01,-34.98 141.09,-41.92"/>
</a>
</g>
</g>
<!-- Node3 -->
<g id="Node000003" class="node">
<title>Node3</title>
<g id="a_Node000003"><a xlink:href="../../d3/d82/_c_type___elliptic___grid_8cpp_ab180cb902cf4be5a8d26b78172e9491f.html#ab180cb902cf4be5a8d26b78172e9491f" target="_top" xlink:title=" ">
<polygon fill="white" stroke="#666666" points="218.78,-19.25 189.97,-19.25 189.97,0 218.78,0 218.78,-19.25"/>
<text text-anchor="middle" x="204.38" y="-5.75" font-family="Helvetica,sans-Serif" font-size="10.00">Q</text>
</a>
</g>
</g>
<!-- Node1&#45;&gt;Node3 -->
<g id="edge2_Node000001_Node000003" class="edge">
<title>Node1&#45;&gt;Node3</title>
<g id="a_edge2_Node000001_Node000003"><a xlink:title=" ">
<path fill="none" stroke="#63b8ff" d="M117.68,-20.36C138.87,-17.7 161.73,-14.84 178.51,-12.74"/>
<polygon fill="#63b8ff" stroke="#63b8ff" points="178.55,-16.26 188.03,-11.55 177.68,-9.32 178.55,-16.26"/>
</a>
</g>
</g>
</g>
</svg>
