<?xml version="1.0" encoding="UTF-8" standalone="no"?>
<!DOCTYPE svg PUBLIC "-//W3C//DTD SVG 1.1//EN"
 "http://www.w3.org/Graphics/SVG/1.1/DTD/svg11.dtd">
<!-- Generated by graphviz version 12.2.1 (20241206.2353)
 -->
<!-- Title: Face::Flux_From_Face_AUSM Pages: 1 -->
<svg width="497pt" height="175pt"
 viewBox="0.00 0.00 497.00 175.25" xmlns="http://www.w3.org/2000/svg" xmlns:xlink="http://www.w3.org/1999/xlink">
<g id="graph0" class="graph" transform="scale(1 1) rotate(0) translate(4 171.25)">
<title>Face::Flux_From_Face_AUSM</title>
<!-- Node1 -->
<g id="Node000001" class="node">
<title>Node1</title>
<g id="a_Node000001"><a xlink:title=" ">
<polygon fill="#999999" stroke="#666666" points="151.75,-93.25 0,-93.25 0,-74 151.75,-74 151.75,-93.25"/>
<text text-anchor="middle" x="75.88" y="-79.75" font-family="Helvetica,sans-Serif" font-size="10.00">Face::Flux_From_Face_AUSM</text>
</a>
</g>
</g>
<!-- Node2 -->
<g id="Node000002" class="node">
<title>Node2</title>
<g id="a_Node000002"><a xlink:href="../../d5/d2a/class_face_a28f4009e42e1ac60082a6952566a31aa.html#a28f4009e42e1ac60082a6952566a31aa" target="_top" xlink:title=" ">
<polygon fill="white" stroke="#666666" points="302,-167.25 199.75,-167.25 199.75,-148 302,-148 302,-167.25"/>
<text text-anchor="middle" x="250.88" y="-153.75" font-family="Helvetica,sans-Serif" font-size="10.00">Face::Cal_Primitive</text>
</a>
</g>
</g>
<!-- Node1&#45;&gt;Node2 -->
<g id="edge1_Node000001_Node000002" class="edge">
<title>Node1&#45;&gt;Node2</title>
<g id="a_edge1_Node000001_Node000002"><a xlink:title=" ">
<path fill="none" stroke="#63b8ff" d="M94.08,-93.58C115.49,-105.67 153.43,-126.12 187.75,-139.62 191.81,-141.22 196.06,-142.75 200.36,-144.19"/>
<polygon fill="#63b8ff" stroke="#63b8ff" points="199.03,-147.44 209.62,-147.13 201.14,-140.76 199.03,-147.44"/>
</a>
</g>
</g>
<!-- Node3 -->
<g id="Node000003" class="node">
<title>Node3</title>
<g id="a_Node000003"><a xlink:href="../../d5/d2a/class_face_a80cd45164e8eda621558150d70999601.html#a80cd45164e8eda621558150d70999601" target="_top" xlink:title=" ">
<polygon fill="white" stroke="#666666" points="306.5,-130.25 195.25,-130.25 195.25,-111 306.5,-111 306.5,-130.25"/>
<text text-anchor="middle" x="250.88" y="-116.75" font-family="Helvetica,sans-Serif" font-size="10.00">Face::Evaluate_Mach</text>
</a>
</g>
</g>
<!-- Node1&#45;&gt;Node3 -->
<g id="edge2_Node000001_Node000003" class="edge">
<title>Node1&#45;&gt;Node3</title>
<g id="a_edge2_Node000001_Node000003"><a xlink:title=" ">
<path fill="none" stroke="#63b8ff" d="M124.15,-93.74C144.94,-98.18 169.56,-103.45 191.48,-108.14"/>
<polygon fill="#63b8ff" stroke="#63b8ff" points="190.67,-111.54 201.18,-110.21 192.13,-104.7 190.67,-111.54"/>
</a>
</g>
</g>
<!-- Node4 -->
<g id="Node000004" class="node">
<title>Node4</title>
<g id="a_Node000004"><a xlink:href="../../d5/d2a/class_face_a7b7a45322054b3094ca16809d72cc9f1.html#a7b7a45322054b3094ca16809d72cc9f1" target="_top" xlink:title=" ">
<polygon fill="white" stroke="#666666" points="314,-93.25 187.75,-93.25 187.75,-74 314,-74 314,-93.25"/>
<text text-anchor="middle" x="250.88" y="-79.75" font-family="Helvetica,sans-Serif" font-size="10.00">Face::Evaluate_Pressure</text>
</a>
</g>
</g>
<!-- Node1&#45;&gt;Node4 -->
<g id="edge3_Node000001_Node000004" class="edge">
<title>Node1&#45;&gt;Node4</title>
<g id="a_edge3_Node000001_Node000004"><a xlink:title=" ">
<path fill="none" stroke="#63b8ff" d="M152,-83.62C159.9,-83.62 167.94,-83.62 175.83,-83.62"/>
<polygon fill="#63b8ff" stroke="#63b8ff" points="175.74,-87.13 185.74,-83.63 175.74,-80.13 175.74,-87.13"/>
</a>
</g>
</g>
<!-- Node5 -->
<g id="Node000005" class="node">
<title>Node5</title>
<g id="a_Node000005"><a xlink:href="../../d5/d2a/class_face_a1dcbb73e92699148519e558ae989117f.html#a1dcbb73e92699148519e558ae989117f" target="_top" xlink:title=" ">
<polygon fill="white" stroke="#666666" points="305.75,-56.25 196,-56.25 196,-37 305.75,-37 305.75,-56.25"/>
<text text-anchor="middle" x="250.88" y="-42.75" font-family="Helvetica,sans-Serif" font-size="10.00">Face::Find_Gradients</text>
</a>
</g>
</g>
<!-- Node1&#45;&gt;Node5 -->
<g id="edge4_Node000001_Node000005" class="edge">
<title>Node1&#45;&gt;Node5</title>
<g id="a_edge4_Node000001_Node000005"><a xlink:title=" ">
<path fill="none" stroke="#63b8ff" d="M124.15,-73.51C144.94,-69.07 169.56,-63.8 191.48,-59.11"/>
<polygon fill="#63b8ff" stroke="#63b8ff" points="192.13,-62.55 201.18,-57.04 190.67,-55.71 192.13,-62.55"/>
</a>
</g>
</g>
<!-- Node9 -->
<g id="Node000009" class="node">
<title>Node9</title>
<g id="a_Node000009"><a xlink:href="../../dc/d9f/struct_cell_af37bc52fb84ad9749bddb65f09d837b5.html#af37bc52fb84ad9749bddb65f09d837b5" target="_top" xlink:title=" ">
<polygon fill="white" stroke="#666666" points="312.12,-19.25 189.62,-19.25 189.62,0 312.12,0 312.12,-19.25"/>
<text text-anchor="middle" x="250.88" y="-5.75" font-family="Helvetica,sans-Serif" font-size="10.00">Cell::Get_QatCellCenter</text>
</a>
</g>
</g>
<!-- Node1&#45;&gt;Node9 -->
<g id="edge8_Node000001_Node000009" class="edge">
<title>Node1&#45;&gt;Node9</title>
<g id="a_edge8_Node000001_Node000009"><a xlink:title=" ">
<path fill="none" stroke="#63b8ff" d="M94.08,-73.67C115.49,-61.58 153.43,-41.13 187.75,-27.62 191.81,-26.03 196.06,-24.5 200.36,-23.06"/>
<polygon fill="#63b8ff" stroke="#63b8ff" points="201.14,-26.49 209.62,-20.12 199.03,-19.81 201.14,-26.49"/>
</a>
</g>
</g>
<!-- Node6 -->
<g id="Node000006" class="node">
<title>Node6</title>
<g id="a_Node000006"><a xlink:href="../../d5/d2a/class_face_ae6a98fe15c04148426e9875ad29f03cc.html#ae6a98fe15c04148426e9875ad29f03cc" target="_top" xlink:title=" ">
<polygon fill="white" stroke="#666666" points="475.88,-93.25 363.12,-93.25 363.12,-74 475.88,-74 475.88,-93.25"/>
<text text-anchor="middle" x="419.5" y="-79.75" font-family="Helvetica,sans-Serif" font-size="10.00">Face::Scalar_dot_ndS</text>
</a>
</g>
</g>
<!-- Node5&#45;&gt;Node6 -->
<g id="edge5_Node000005_Node000006" class="edge">
<title>Node5&#45;&gt;Node6</title>
<g id="a_edge5_Node000005_Node000006"><a xlink:title=" ">
<path fill="none" stroke="#63b8ff" d="M297.41,-56.74C317.34,-61.16 340.92,-66.4 361.96,-71.07"/>
<polygon fill="#63b8ff" stroke="#63b8ff" points="361.03,-74.45 371.55,-73.2 362.54,-67.61 361.03,-74.45"/>
</a>
</g>
</g>
<!-- Node7 -->
<g id="Node000007" class="node">
<title>Node7</title>
<g id="a_Node000007"><a xlink:href="../../d5/d2a/class_face_a7dbfe0e14e693127d4d75dd68f879f99.html#a7dbfe0e14e693127d4d75dd68f879f99" target="_top" xlink:title=" ">
<polygon fill="white" stroke="#666666" points="489,-56.25 350,-56.25 350,-37 489,-37 489,-56.25"/>
<text text-anchor="middle" x="419.5" y="-42.75" font-family="Helvetica,sans-Serif" font-size="10.00">Face::Thermal_Conductivity</text>
</a>
</g>
</g>
<!-- Node5&#45;&gt;Node7 -->
<g id="edge6_Node000005_Node000007" class="edge">
<title>Node5&#45;&gt;Node7</title>
<g id="a_edge6_Node000005_Node000007"><a xlink:title=" ">
<path fill="none" stroke="#63b8ff" d="M305.97,-46.62C316.34,-46.62 327.4,-46.62 338.38,-46.62"/>
<polygon fill="#63b8ff" stroke="#63b8ff" points="338.26,-50.13 348.26,-46.63 338.26,-43.13 338.26,-50.13"/>
</a>
</g>
</g>
<!-- Node8 -->
<g id="Node000008" class="node">
<title>Node8</title>
<g id="a_Node000008"><a xlink:href="../../d5/d2a/class_face_a658f439bcdacbf424d659be66ae7bce7.html#a658f439bcdacbf424d659be66ae7bce7" target="_top" xlink:title=" ">
<polygon fill="white" stroke="#666666" points="461.62,-19.25 377.38,-19.25 377.38,0 461.62,0 461.62,-19.25"/>
<text text-anchor="middle" x="419.5" y="-5.75" font-family="Helvetica,sans-Serif" font-size="10.00">Face::Viscosity</text>
</a>
</g>
</g>
<!-- Node5&#45;&gt;Node8 -->
<g id="edge7_Node000005_Node000008" class="edge">
<title>Node5&#45;&gt;Node8</title>
<g id="a_edge7_Node000005_Node000008"><a xlink:title=" ">
<path fill="none" stroke="#63b8ff" d="M297.41,-36.51C318.58,-31.81 343.87,-26.2 365.86,-21.31"/>
<polygon fill="#63b8ff" stroke="#63b8ff" points="366.54,-24.75 375.54,-19.16 365.02,-17.92 366.54,-24.75"/>
</a>
</g>
</g>
</g>
</svg>
