<?xml version="1.0" encoding="UTF-8" standalone="no"?>
<!DOCTYPE svg PUBLIC "-//W3C//DTD SVG 1.1//EN"
 "http://www.w3.org/Graphics/SVG/1.1/DTD/svg11.dtd">
<!-- Generated by graphviz version 12.2.1 (20241206.2353)
 -->
<!-- Title: Face::operator() Pages: 1 -->
<svg width="251pt" height="175pt"
 viewBox="0.00 0.00 250.75 175.25" xmlns="http://www.w3.org/2000/svg" xmlns:xlink="http://www.w3.org/1999/xlink">
<g id="graph0" class="graph" transform="scale(1 1) rotate(0) translate(4 171.25)">
<title>Face::operator()</title>
<!-- Node1 -->
<g id="Node000001" class="node">
<title>Node1</title>
<g id="a_Node000001"><a xlink:title=" ">
<polygon fill="#999999" stroke="#666666" points="85,-93.25 0,-93.25 0,-74 85,-74 85,-93.25"/>
<text text-anchor="middle" x="42.5" y="-79.75" font-family="Helvetica,sans-Serif" font-size="10.00">Face::operator()</text>
</a>
</g>
</g>
<!-- Node2 -->
<g id="Node000002" class="node">
<title>Node2</title>
<g id="a_Node000002"><a xlink:href="../../d5/db2/class_vector_ae6baefc4412b9007de866e811375dcc4.html#ae6baefc4412b9007de866e811375dcc4" target="_top" xlink:title=" ">
<polygon fill="white" stroke="#666666" points="220.25,-167.25 143.5,-167.25 143.5,-148 220.25,-148 220.25,-167.25"/>
<text text-anchor="middle" x="181.88" y="-153.75" font-family="Helvetica,sans-Serif" font-size="10.00">Vector::Cross</text>
</a>
</g>
</g>
<!-- Node1&#45;&gt;Node2 -->
<g id="edge1_Node000001_Node000002" class="edge">
<title>Node1&#45;&gt;Node2</title>
<g id="a_edge1_Node000001_Node000002"><a xlink:title=" ">
<path fill="none" stroke="#63b8ff" d="M54.79,-93.67C69.22,-106.05 95.4,-126.98 121,-139.62 124.67,-141.44 128.56,-143.11 132.52,-144.64"/>
<polygon fill="#63b8ff" stroke="#63b8ff" points="131.06,-147.83 141.66,-147.86 133.39,-141.23 131.06,-147.83"/>
</a>
</g>
</g>
<!-- Node3 -->
<g id="Node000003" class="node">
<title>Node3</title>
<g id="a_Node000003"><a xlink:href="../../d5/d2a/class_face_a5b1692120eacbd2b70decbf6ea9c1ae2.html#a5b1692120eacbd2b70decbf6ea9c1ae2" target="_top" xlink:title=" ">
<polygon fill="white" stroke="#666666" points="231.88,-130.25 131.88,-130.25 131.88,-111 231.88,-111 231.88,-130.25"/>
<text text-anchor="middle" x="181.88" y="-116.75" font-family="Helvetica,sans-Serif" font-size="10.00">Face::Face_Center</text>
</a>
</g>
</g>
<!-- Node1&#45;&gt;Node3 -->
<g id="edge2_Node000001_Node000003" class="edge">
<title>Node1&#45;&gt;Node3</title>
<g id="a_edge2_Node000001_Node000003"><a xlink:title=" ">
<path fill="none" stroke="#63b8ff" d="M81.04,-93.74C96.94,-98.02 115.67,-103.06 132.58,-107.62"/>
<polygon fill="#63b8ff" stroke="#63b8ff" points="131.35,-110.91 141.92,-110.13 133.17,-104.15 131.35,-110.91"/>
</a>
</g>
</g>
<!-- Node4 -->
<g id="Node000004" class="node">
<title>Node4</title>
<g id="a_Node000004"><a xlink:href="../../d5/db2/class_vector_aa16a1db414fd55c9e9507b634d55e541.html#aa16a1db414fd55c9e9507b634d55e541" target="_top" xlink:title=" ">
<polygon fill="white" stroke="#666666" points="242.38,-93.25 121.38,-93.25 121.38,-74 242.38,-74 242.38,-93.25"/>
<text text-anchor="middle" x="181.88" y="-79.75" font-family="Helvetica,sans-Serif" font-size="10.00">Vector::Find_UnitVector</text>
</a>
</g>
</g>
<!-- Node1&#45;&gt;Node4 -->
<g id="edge3_Node000001_Node000004" class="edge">
<title>Node1&#45;&gt;Node4</title>
<g id="a_edge3_Node000001_Node000004"><a xlink:title=" ">
<path fill="none" stroke="#63b8ff" d="M85.46,-83.62C93.17,-83.62 101.4,-83.62 109.68,-83.62"/>
<polygon fill="#63b8ff" stroke="#63b8ff" points="109.45,-87.13 119.45,-83.63 109.45,-80.13 109.45,-87.13"/>
</a>
</g>
</g>
<!-- Node5 -->
<g id="Node000005" class="node">
<title>Node5</title>
<g id="a_Node000005"><a xlink:href="../../d5/db2/class_vector_a2ce47a84fc19c32a26ada5a3379c3f0a.html#a2ce47a84fc19c32a26ada5a3379c3f0a" target="_top" xlink:title=" ">
<polygon fill="white" stroke="#666666" points="242.75,-56.25 121,-56.25 121,-37 242.75,-37 242.75,-56.25"/>
<text text-anchor="middle" x="181.88" y="-42.75" font-family="Helvetica,sans-Serif" font-size="10.00">Vector::Get_Component</text>
</a>
</g>
</g>
<!-- Node1&#45;&gt;Node5 -->
<g id="edge4_Node000001_Node000005" class="edge">
<title>Node1&#45;&gt;Node5</title>
<g id="a_edge4_Node000001_Node000005"><a xlink:title=" ">
<path fill="none" stroke="#63b8ff" d="M81.04,-73.51C96.94,-69.23 115.67,-64.19 132.58,-59.63"/>
<polygon fill="#63b8ff" stroke="#63b8ff" points="133.17,-63.1 141.92,-57.12 131.35,-56.34 133.17,-63.1"/>
</a>
</g>
</g>
<!-- Node6 -->
<g id="Node000006" class="node">
<title>Node6</title>
<g id="a_Node000006"><a xlink:href="../../d5/db2/class_vector_a33eec0c4822e3199d30fa00745d613ae.html#a33eec0c4822e3199d30fa00745d613ae" target="_top" xlink:title=" ">
<polygon fill="white" stroke="#666666" points="229.62,-19.25 134.12,-19.25 134.12,0 229.62,0 229.62,-19.25"/>
<text text-anchor="middle" x="181.88" y="-5.75" font-family="Helvetica,sans-Serif" font-size="10.00">Vector::magnitude</text>
</a>
</g>
</g>
<!-- Node1&#45;&gt;Node6 -->
<g id="edge5_Node000001_Node000006" class="edge">
<title>Node1&#45;&gt;Node6</title>
<g id="a_edge5_Node000001_Node000006"><a xlink:title=" ">
<path fill="none" stroke="#63b8ff" d="M54.79,-73.58C69.22,-61.2 95.4,-40.27 121,-27.62 123.87,-26.21 126.88,-24.87 129.95,-23.63"/>
<polygon fill="#63b8ff" stroke="#63b8ff" points="130.95,-26.99 139.13,-20.25 128.53,-20.42 130.95,-26.99"/>
</a>
</g>
</g>
</g>
</svg>
