<?xml version="1.0" encoding="UTF-8" standalone="no"?>
<!DOCTYPE svg PUBLIC "-//W3C//DTD SVG 1.1//EN"
 "http://www.w3.org/Graphics/SVG/1.1/DTD/svg11.dtd">
<!-- Generated by graphviz version 12.2.1 (20241206.2353)
 -->
<!-- Title: Face::Cal_Primitive Pages: 1 -->
<svg width="720pt" height="162pt"
 viewBox="0.00 0.00 719.50 162.25" xmlns="http://www.w3.org/2000/svg" xmlns:xlink="http://www.w3.org/1999/xlink">
<g id="graph0" class="graph" transform="scale(1 1) rotate(0) translate(4 158.25)">
<title>Face::Cal_Primitive</title>
<!-- Node1 -->
<g id="Node000001" class="node">
<title>Node1</title>
<g id="a_Node000001"><a xlink:title=" ">
<polygon fill="#999999" stroke="#666666" points="711.5,-86.25 609.25,-86.25 609.25,-67 711.5,-67 711.5,-86.25"/>
<text text-anchor="middle" x="660.38" y="-72.75" font-family="Helvetica,sans-Serif" font-size="10.00">Face::Cal_Primitive</text>
</a>
</g>
</g>
<!-- Node2 -->
<g id="Node000002" class="node">
<title>Node2</title>
<g id="a_Node000002"><a xlink:href="../../d5/d2a/class_face_a8bf8d82bb997ead9e413ffe50b53516b.html#a8bf8d82bb997ead9e413ffe50b53516b" target="_top" xlink:title=" ">
<polygon fill="white" stroke="#666666" points="573.25,-154.25 421.5,-154.25 421.5,-135 573.25,-135 573.25,-154.25"/>
<text text-anchor="middle" x="497.38" y="-140.75" font-family="Helvetica,sans-Serif" font-size="10.00">Face::Flux_From_Face_AUSM</text>
</a>
</g>
</g>
<!-- Node1&#45;&gt;Node2 -->
<g id="edge1_Node000001_Node000002" class="edge">
<title>Node1&#45;&gt;Node2</title>
<g id="a_edge1_Node000001_Node000002"><a xlink:title=" ">
<path fill="none" stroke="#63b8ff" d="M635.19,-92.73C618.4,-103.31 595.19,-116.79 573.25,-125.62 564.67,-129.08 555.27,-132.06 546.12,-134.56"/>
<polygon fill="#63b8ff" stroke="#63b8ff" points="636.96,-95.75 643.47,-87.4 633.17,-89.87 636.96,-95.75"/>
</a>
</g>
</g>
<!-- Node7 -->
<g id="Node000007" class="node">
<title>Node7</title>
<g id="a_Node000007"><a xlink:href="../../d5/d2a/class_face_ab9cd78be1d492e93b0c07bcdf317ee71.html#ab9cd78be1d492e93b0c07bcdf317ee71" target="_top" xlink:title=" ">
<polygon fill="white" stroke="#666666" points="556,-116.88 438.75,-116.88 438.75,-86.38 556,-86.38 556,-116.88"/>
<text text-anchor="start" x="446.75" y="-103.38" font-family="Helvetica,sans-Serif" font-size="10.00">Face::Flux_From_Face</text>
<text text-anchor="middle" x="497.38" y="-92.12" font-family="Helvetica,sans-Serif" font-size="10.00">_Central</text>
</a>
</g>
</g>
<!-- Node1&#45;&gt;Node7 -->
<g id="edge6_Node000001_Node000007" class="edge">
<title>Node1&#45;&gt;Node7</title>
<g id="a_edge6_Node000001_Node000007"><a xlink:title=" ">
<path fill="none" stroke="#63b8ff" d="M597.67,-86.21C584.07,-88.32 569.72,-90.55 556.28,-92.63"/>
<polygon fill="#63b8ff" stroke="#63b8ff" points="598.04,-89.69 607.38,-84.7 596.96,-82.77 598.04,-89.69"/>
</a>
</g>
</g>
<!-- Node8 -->
<g id="Node000008" class="node">
<title>Node8</title>
<g id="a_Node000008"><a xlink:href="../../d5/d2a/class_face_ac4c4a64de5a6e3a3fbc08a00392e251b.html#ac4c4a64de5a6e3a3fbc08a00392e251b" target="_top" xlink:title=" ">
<polygon fill="white" stroke="#666666" points="556,-67.88 438.75,-67.88 438.75,-37.38 556,-37.38 556,-67.88"/>
<text text-anchor="start" x="446.75" y="-54.38" font-family="Helvetica,sans-Serif" font-size="10.00">Face::Flux_From_Face</text>
<text text-anchor="middle" x="497.38" y="-43.12" font-family="Helvetica,sans-Serif" font-size="10.00">_Central</text>
</a>
</g>
</g>
<!-- Node1&#45;&gt;Node8 -->
<g id="edge7_Node000001_Node000008" class="edge">
<title>Node1&#45;&gt;Node8</title>
<g id="a_edge7_Node000001_Node000008"><a xlink:title=" ">
<path fill="none" stroke="#63b8ff" d="M597.67,-67.43C584.07,-65.4 569.72,-63.26 556.28,-61.26"/>
<polygon fill="#63b8ff" stroke="#63b8ff" points="596.97,-70.86 607.38,-68.87 598,-63.94 596.97,-70.86"/>
</a>
</g>
</g>
<!-- Node9 -->
<g id="Node000009" class="node">
<title>Node9</title>
<g id="a_Node000009"><a xlink:href="../../d5/d2a/class_face_a3560cd5db824a402bf5c380f8ada5bb2.html#a3560cd5db824a402bf5c380f8ada5bb2" target="_top" xlink:title=" ">
<polygon fill="white" stroke="#666666" points="564.62,-19.25 430.12,-19.25 430.12,0 564.62,0 564.62,-19.25"/>
<text text-anchor="middle" x="497.38" y="-5.75" font-family="Helvetica,sans-Serif" font-size="10.00">Face::Flux_From_Face_VL</text>
</a>
</g>
</g>
<!-- Node1&#45;&gt;Node9 -->
<g id="edge9_Node000001_Node000009" class="edge">
<title>Node1&#45;&gt;Node9</title>
<g id="a_edge9_Node000001_Node000009"><a xlink:title=" ">
<path fill="none" stroke="#63b8ff" d="M634.53,-60.5C617.77,-50.2 594.85,-37.22 573.25,-28.62 564.53,-25.16 554.98,-22.16 545.7,-19.65"/>
<polygon fill="#63b8ff" stroke="#63b8ff" points="632.49,-63.35 642.83,-65.7 636.21,-57.42 632.49,-63.35"/>
</a>
</g>
</g>
<!-- Node3 -->
<g id="Node000003" class="node">
<title>Node3</title>
<g id="a_Node000003"><a xlink:href="../../d5/d2a/class_face_a7edd7ef2c3e6faf1d13c186536039f60.html#a7edd7ef2c3e6faf1d13c186536039f60" target="_top" xlink:title=" ">
<polygon fill="white" stroke="#666666" points="385.5,-62.25 268.25,-62.25 268.25,-43 385.5,-43 385.5,-62.25"/>
<text text-anchor="middle" x="326.88" y="-48.75" font-family="Helvetica,sans-Serif" font-size="10.00">Face::Flux_From_Face</text>
</a>
</g>
</g>
<!-- Node2&#45;&gt;Node3 -->
<g id="edge2_Node000002_Node000003" class="edge">
<title>Node2&#45;&gt;Node3</title>
<g id="a_edge2_Node000002_Node000003"><a xlink:title=" ">
<path fill="none" stroke="#63b8ff" d="M434.1,-130.97C429.76,-129.37 425.52,-127.59 421.5,-125.62 387.44,-108.95 353.97,-78.53 337.84,-62.74"/>
<polygon fill="#63b8ff" stroke="#63b8ff" points="432.99,-134.29 443.58,-134.13 435.2,-127.65 432.99,-134.29"/>
</a>
</g>
</g>
<!-- Node4 -->
<g id="Node000004" class="node">
<title>Node4</title>
<g id="a_Node000004"><a xlink:href="../../dd/d11/class_cell_a4a591da0b84980196864d92dea915c67.html#a4a591da0b84980196864d92dea915c67" target="_top" xlink:title=" ">
<polygon fill="white" stroke="#666666" points="232.25,-81.25 93.25,-81.25 93.25,-62 232.25,-62 232.25,-81.25"/>
<text text-anchor="middle" x="162.75" y="-67.75" font-family="Helvetica,sans-Serif" font-size="10.00">Cell::Evaluate_FluxonFaces</text>
</a>
</g>
</g>
<!-- Node3&#45;&gt;Node4 -->
<g id="edge3_Node000003_Node000004" class="edge">
<title>Node3&#45;&gt;Node4</title>
<g id="a_edge3_Node000003_Node000004"><a xlink:title=" ">
<path fill="none" stroke="#63b8ff" d="M256.63,-60.74C248.63,-61.68 240.47,-62.63 232.48,-63.57"/>
<polygon fill="#63b8ff" stroke="#63b8ff" points="256.77,-64.25 266.3,-59.61 255.96,-57.29 256.77,-64.25"/>
</a>
</g>
</g>
<!-- Node6 -->
<g id="Node000006" class="node">
<title>Node6</title>
<g id="a_Node000006"><a xlink:href="../../dd/d11/class_cell_af0b9b19aa3d5c463bfadc936bbcd83dc.html#af0b9b19aa3d5c463bfadc936bbcd83dc" target="_top" xlink:title=" ">
<polygon fill="white" stroke="#666666" points="209,-44.25 116.5,-44.25 116.5,-25 209,-25 209,-44.25"/>
<text text-anchor="middle" x="162.75" y="-30.75" font-family="Helvetica,sans-Serif" font-size="10.00">Cell::Test_Fluxes</text>
</a>
</g>
</g>
<!-- Node3&#45;&gt;Node6 -->
<g id="edge5_Node000003_Node000006" class="edge">
<title>Node3&#45;&gt;Node6</title>
<g id="a_edge5_Node000003_Node000006"><a xlink:title=" ">
<path fill="none" stroke="#63b8ff" d="M256.39,-44.91C240.52,-43.15 224.05,-41.32 209.47,-39.7"/>
<polygon fill="#63b8ff" stroke="#63b8ff" points="255.97,-48.39 266.3,-46.01 256.75,-41.43 255.97,-48.39"/>
</a>
</g>
</g>
<!-- Node5 -->
<g id="Node000005" class="node">
<title>Node5</title>
<g id="a_Node000005"><a xlink:href="../../dd/d11/class_cell_aaf94e79f1a6eaba16660a81b86b5d4c1.html#aaf94e79f1a6eaba16660a81b86b5d4c1" target="_top" xlink:title=" ">
<polygon fill="white" stroke="#666666" points="57.25,-81.25 0,-81.25 0,-62 57.25,-62 57.25,-81.25"/>
<text text-anchor="middle" x="28.62" y="-67.75" font-family="Helvetica,sans-Serif" font-size="10.00">Cell::Rk4</text>
</a>
</g>
</g>
<!-- Node4&#45;&gt;Node5 -->
<g id="edge4_Node000004_Node000005" class="edge">
<title>Node4&#45;&gt;Node5</title>
<g id="a_edge4_Node000004_Node000005"><a xlink:title=" ">
<path fill="none" stroke="#63b8ff" d="M81.6,-71.62C73.06,-71.62 64.84,-71.62 57.56,-71.62"/>
<polygon fill="#63b8ff" stroke="#63b8ff" points="81.47,-75.13 91.47,-71.63 81.47,-68.13 81.47,-75.13"/>
</a>
</g>
</g>
<!-- Node8&#45;&gt;Node3 -->
<g id="edge8_Node000008_Node000003" class="edge">
<title>Node8&#45;&gt;Node3</title>
<g id="a_edge8_Node000008_Node000003"><a xlink:title=" ">
<path fill="none" stroke="#63b8ff" d="M427.07,-52.62C413.41,-52.62 399.21,-52.62 385.97,-52.62"/>
<polygon fill="#63b8ff" stroke="#63b8ff" points="426.87,-56.13 436.87,-52.63 426.87,-49.13 426.87,-56.13"/>
</a>
</g>
</g>
<!-- Node9&#45;&gt;Node3 -->
<g id="edge10_Node000009_Node000003" class="edge">
<title>Node9&#45;&gt;Node3</title>
<g id="a_edge10_Node000009_Node000003"><a xlink:title=" ">
<path fill="none" stroke="#63b8ff" d="M445.82,-22.43C437.69,-24.5 429.36,-26.62 421.5,-28.62 403.61,-33.19 383.81,-38.26 367.04,-42.56"/>
<polygon fill="#63b8ff" stroke="#63b8ff" points="446.44,-25.89 455.27,-20.04 444.71,-19.11 446.44,-25.89"/>
</a>
</g>
</g>
</g>
</svg>
