<?xml version="1.0" encoding="UTF-8" standalone="no"?>
<!DOCTYPE svg PUBLIC "-//W3C//DTD SVG 1.1//EN"
 "http://www.w3.org/Graphics/SVG/1.1/DTD/svg11.dtd">
<!-- Generated by graphviz version 12.2.1 (20241206.2353)
 -->
<!-- Title: Face::Get_FaceArea_Vector Pages: 1 -->
<svg width="373pt" height="82pt"
 viewBox="0.00 0.00 373.25 82.25" xmlns="http://www.w3.org/2000/svg" xmlns:xlink="http://www.w3.org/1999/xlink">
<g id="graph0" class="graph" transform="scale(1 1) rotate(0) translate(4 78.25)">
<title>Face::Get_FaceArea_Vector</title>
<!-- Node1 -->
<g id="Node000001" class="node">
<title>Node1</title>
<g id="a_Node000001"><a xlink:title=" ">
<polygon fill="#999999" stroke="#666666" points="365.25,-42.88 258.5,-42.88 258.5,-12.37 365.25,-12.37 365.25,-42.88"/>
<text text-anchor="start" x="266.5" y="-29.38" font-family="Helvetica,sans-Serif" font-size="10.00">Face::Get_FaceArea</text>
<text text-anchor="middle" x="311.88" y="-18.12" font-family="Helvetica,sans-Serif" font-size="10.00">_Vector</text>
</a>
</g>
</g>
<!-- Node2 -->
<g id="Node000002" class="node">
<title>Node2</title>
<g id="a_Node000002"><a xlink:href="../../dc/d9f/struct_cell_a3b93d6bd8963c88df8cff47b0c5f96c3.html#a3b93d6bd8963c88df8cff47b0c5f96c3" target="_top" xlink:title=" ">
<polygon fill="white" stroke="#666666" points="214.62,-56.25 124.38,-56.25 124.38,-37 214.62,-37 214.62,-56.25"/>
<text text-anchor="middle" x="169.5" y="-42.75" font-family="Helvetica,sans-Serif" font-size="10.00">Cell::Check_Cell</text>
</a>
</g>
</g>
<!-- Node1&#45;&gt;Node2 -->
<g id="edge1_Node000001_Node000002" class="edge">
<title>Node1&#45;&gt;Node2</title>
<g id="a_edge1_Node000001_Node000002"><a xlink:title=" ">
<path fill="none" stroke="#63b8ff" d="M246.97,-36.27C236.08,-37.75 224.98,-39.25 214.74,-40.64"/>
<polygon fill="#63b8ff" stroke="#63b8ff" points="247.27,-39.77 256.71,-34.96 246.33,-32.83 247.27,-39.77"/>
</a>
</g>
</g>
<!-- Node5 -->
<g id="Node000005" class="node">
<title>Node5</title>
<g id="a_Node000005"><a xlink:href="../../dc/d9f/struct_cell_a93b38c08968d1c15d67b73a3d4fa9f08.html#a93b38c08968d1c15d67b73a3d4fa9f08" target="_top" xlink:title=" ">
<polygon fill="white" stroke="#666666" points="222.5,-19.25 116.5,-19.25 116.5,0 222.5,0 222.5,-19.25"/>
<text text-anchor="middle" x="169.5" y="-5.75" font-family="Helvetica,sans-Serif" font-size="10.00">Cell::Write_Cell_Info</text>
</a>
</g>
</g>
<!-- Node1&#45;&gt;Node5 -->
<g id="edge4_Node000001_Node000005" class="edge">
<title>Node1&#45;&gt;Node5</title>
<g id="a_edge4_Node000001_Node000005"><a xlink:title=" ">
<path fill="none" stroke="#63b8ff" d="M246.98,-19.43C238.95,-18.4 230.82,-17.36 223,-16.36"/>
<polygon fill="#63b8ff" stroke="#63b8ff" points="246.34,-22.88 256.7,-20.68 247.23,-15.94 246.34,-22.88"/>
</a>
</g>
</g>
<!-- Node3 -->
<g id="Node000003" class="node">
<title>Node3</title>
<g id="a_Node000003"><a xlink:href="../../dc/d9f/struct_cell_af9c7a9f6efe9449befbb4516416e0b8e.html#af9c7a9f6efe9449befbb4516416e0b8e" target="_top" xlink:title=" ">
<polygon fill="white" stroke="#666666" points="80.5,-74.25 0,-74.25 0,-55 80.5,-55 80.5,-74.25"/>
<text text-anchor="middle" x="40.25" y="-60.75" font-family="Helvetica,sans-Serif" font-size="10.00">Cell::operator()</text>
</a>
</g>
</g>
<!-- Node2&#45;&gt;Node3 -->
<g id="edge2_Node000002_Node000003" class="edge">
<title>Node2&#45;&gt;Node3</title>
<g id="a_edge2_Node000002_Node000003"><a xlink:title=" ">
<path fill="none" stroke="#63b8ff" d="M112.91,-54.49C102.11,-56.02 91,-57.59 80.85,-59.02"/>
<polygon fill="#63b8ff" stroke="#63b8ff" points="113.08,-58 122.5,-53.13 112.1,-51.07 113.08,-58"/>
</a>
</g>
</g>
<!-- Node4 -->
<g id="Node000004" class="node">
<title>Node4</title>
<g id="a_Node000004"><a xlink:href="../../dc/d9f/struct_cell_ad60913f3ab1725f85df209aa06b83903.html#ad60913f3ab1725f85df209aa06b83903" target="_top" xlink:title=" ">
<polygon fill="white" stroke="#666666" points="80.5,-37.25 0,-37.25 0,-18 80.5,-18 80.5,-37.25"/>
<text text-anchor="middle" x="40.25" y="-23.75" font-family="Helvetica,sans-Serif" font-size="10.00">Cell::operator()</text>
</a>
</g>
</g>
<!-- Node2&#45;&gt;Node4 -->
<g id="edge3_Node000002_Node000004" class="edge">
<title>Node2&#45;&gt;Node4</title>
<g id="a_edge3_Node000002_Node000004"><a xlink:title=" ">
<path fill="none" stroke="#63b8ff" d="M112.91,-38.32C102.11,-36.71 91,-35.05 80.85,-33.54"/>
<polygon fill="#63b8ff" stroke="#63b8ff" points="112.09,-41.74 122.5,-39.76 113.12,-34.82 112.09,-41.74"/>
</a>
</g>
</g>
</g>
</svg>
