<?xml version="1.0" encoding="UTF-8" standalone="no"?>
<!DOCTYPE svg PUBLIC "-//W3C//DTD SVG 1.1//EN"
 "http://www.w3.org/Graphics/SVG/1.1/DTD/svg11.dtd">
<!-- Generated by graphviz version 12.2.1 (20241206.2353)
 -->
<!-- Title: Gmsh_Grids/VTK_Reader.cpp Pages: 1 -->
<svg width="1362pt" height="83pt"
 viewBox="0.00 0.00 1361.50 82.50" xmlns="http://www.w3.org/2000/svg" xmlns:xlink="http://www.w3.org/1999/xlink">
<g id="graph0" class="graph" transform="scale(1 1) rotate(0) translate(4 78.5)">
<title>Gmsh_Grids/VTK_Reader.cpp</title>
<!-- Node1 -->
<g id="Node000001" class="node">
<title>Node1</title>
<g id="a_Node000001"><a xlink:title=" ">
<polygon fill="#999999" stroke="#666666" points="847,-74.5 699,-74.5 699,-55.25 847,-55.25 847,-74.5"/>
<text text-anchor="middle" x="773" y="-61" font-family="Helvetica,sans-Serif" font-size="10.00">Gmsh_Grids/VTK_Reader.cpp</text>
</a>
</g>
</g>
<!-- Node2 -->
<g id="Node000002" class="node">
<title>Node2</title>
<g id="a_Node000002"><a xlink:title=" ">
<polygon fill="#e0e0e0" stroke="#999999" points="94,-19.25 0,-19.25 0,0 94,0 94,-19.25"/>
<text text-anchor="middle" x="47" y="-5.75" font-family="Helvetica,sans-Serif" font-size="10.00">vtkSmartPointer.h</text>
</a>
</g>
</g>
<!-- Node1&#45;&gt;Node2 -->
<g id="edge1_Node000001_Node000002" class="edge">
<title>Node1&#45;&gt;Node2</title>
<g id="a_edge1_Node000001_Node000002"><a xlink:title=" ">
<path fill="none" stroke="#63b8ff" d="M698.96,-61.03C577.3,-55.91 327.3,-43.44 105.53,-19.43"/>
<polygon fill="#63b8ff" stroke="#63b8ff" points="106.14,-15.98 95.82,-18.37 105.38,-22.94 106.14,-15.98"/>
</a>
</g>
</g>
<!-- Node3 -->
<g id="Node000003" class="node">
<title>Node3</title>
<g id="a_Node000003"><a xlink:title=" ">
<polygon fill="#e0e0e0" stroke="#999999" points="254.38,-19.25 111.62,-19.25 111.62,0 254.38,0 254.38,-19.25"/>
<text text-anchor="middle" x="183" y="-5.75" font-family="Helvetica,sans-Serif" font-size="10.00">vtkUnstructuredGridReader.h</text>
</a>
</g>
</g>
<!-- Node1&#45;&gt;Node3 -->
<g id="edge2_Node000001_Node000003" class="edge">
<title>Node1&#45;&gt;Node3</title>
<g id="a_edge2_Node000001_Node000003"><a xlink:title=" ">
<path fill="none" stroke="#63b8ff" d="M698.63,-57.84C601.52,-49.85 425.91,-35.05 265.55,-19.48"/>
<polygon fill="#63b8ff" stroke="#63b8ff" points="266.32,-16.04 256.03,-18.55 265.64,-23.01 266.32,-16.04"/>
</a>
</g>
</g>
<!-- Node4 -->
<g id="Node000004" class="node">
<title>Node4</title>
<g id="a_Node000004"><a xlink:title=" ">
<polygon fill="#e0e0e0" stroke="#999999" points="384,-19.25 272,-19.25 272,0 384,0 384,-19.25"/>
<text text-anchor="middle" x="328" y="-5.75" font-family="Helvetica,sans-Serif" font-size="10.00">vtkUnstructuredGrid.h</text>
</a>
</g>
</g>
<!-- Node1&#45;&gt;Node4 -->
<g id="edge3_Node000001_Node000004" class="edge">
<title>Node1&#45;&gt;Node4</title>
<g id="a_edge3_Node000001_Node000004"><a xlink:title=" ">
<path fill="none" stroke="#63b8ff" d="M698.69,-55.48C624.53,-47.03 506.99,-33.43 395.48,-19.54"/>
<polygon fill="#63b8ff" stroke="#63b8ff" points="396.22,-16.11 385.87,-18.34 395.35,-23.06 396.22,-16.11"/>
</a>
</g>
</g>
<!-- Node5 -->
<g id="Node000005" class="node">
<title>Node5</title>
<g id="a_Node000005"><a xlink:title=" ">
<polygon fill="#e0e0e0" stroke="#999999" points="457.5,-19.25 402.5,-19.25 402.5,0 457.5,0 457.5,-19.25"/>
<text text-anchor="middle" x="430" y="-5.75" font-family="Helvetica,sans-Serif" font-size="10.00">vtkCell.h</text>
</a>
</g>
</g>
<!-- Node1&#45;&gt;Node5 -->
<g id="edge4_Node000001_Node000005" class="edge">
<title>Node1&#45;&gt;Node5</title>
<g id="a_edge4_Node000001_Node000005"><a xlink:title=" ">
<path fill="none" stroke="#63b8ff" d="M698.51,-54.79C638.98,-47.13 553.17,-35.17 468.9,-19.46"/>
<polygon fill="#63b8ff" stroke="#63b8ff" points="469.79,-16.07 459.31,-17.66 468.49,-22.95 469.79,-16.07"/>
</a>
</g>
</g>
<!-- Node6 -->
<g id="Node000006" class="node">
<title>Node6</title>
<g id="a_Node000006"><a xlink:title=" ">
<polygon fill="#e0e0e0" stroke="#999999" points="552.38,-19.25 475.62,-19.25 475.62,0 552.38,0 552.38,-19.25"/>
<text text-anchor="middle" x="514" y="-5.75" font-family="Helvetica,sans-Serif" font-size="10.00">vtkCellArray.h</text>
</a>
</g>
</g>
<!-- Node1&#45;&gt;Node6 -->
<g id="edge5_Node000001_Node000006" class="edge">
<title>Node1&#45;&gt;Node6</title>
<g id="a_edge5_Node000001_Node000006"><a xlink:title=" ">
<path fill="none" stroke="#63b8ff" d="M728.77,-54.78C682.89,-45.35 611.31,-30.63 563.55,-20.81"/>
<polygon fill="#63b8ff" stroke="#63b8ff" points="564.54,-17.44 554.04,-18.86 563.13,-24.3 564.54,-17.44"/>
</a>
</g>
</g>
<!-- Node7 -->
<g id="Node000007" class="node">
<title>Node7</title>
<g id="a_Node000007"><a xlink:title=" ">
<polygon fill="#e0e0e0" stroke="#999999" points="635.75,-19.25 570.25,-19.25 570.25,0 635.75,0 635.75,-19.25"/>
<text text-anchor="middle" x="603" y="-5.75" font-family="Helvetica,sans-Serif" font-size="10.00">vtkPoints.h</text>
</a>
</g>
</g>
<!-- Node1&#45;&gt;Node7 -->
<g id="edge6_Node000001_Node000007" class="edge">
<title>Node1&#45;&gt;Node7</title>
<g id="a_edge6_Node000001_Node000007"><a xlink:title=" ">
<path fill="none" stroke="#63b8ff" d="M744.16,-54.84C716.32,-46.12 673.93,-32.84 642.86,-23.11"/>
<polygon fill="#63b8ff" stroke="#63b8ff" points="644.01,-19.8 633.42,-20.15 641.92,-26.48 644.01,-19.8"/>
</a>
</g>
</g>
<!-- Node8 -->
<g id="Node000008" class="node">
<title>Node8</title>
<g id="a_Node000008"><a xlink:title=" ">
<polygon fill="#e0e0e0" stroke="#999999" points="715.88,-19.25 654.12,-19.25 654.12,0 715.88,0 715.88,-19.25"/>
<text text-anchor="middle" x="685" y="-5.75" font-family="Helvetica,sans-Serif" font-size="10.00">vtkIdList.h</text>
</a>
</g>
</g>
<!-- Node1&#45;&gt;Node8 -->
<g id="edge7_Node000001_Node000008" class="edge">
<title>Node1&#45;&gt;Node8</title>
<g id="a_edge7_Node000001_Node000008"><a xlink:title=" ">
<path fill="none" stroke="#63b8ff" d="M758.07,-54.84C744.8,-46.81 725.13,-34.91 709.55,-25.48"/>
<polygon fill="#63b8ff" stroke="#63b8ff" points="711.66,-22.67 701.3,-20.49 708.04,-28.66 711.66,-22.67"/>
</a>
</g>
</g>
<!-- Node9 -->
<g id="Node000009" class="node">
<title>Node9</title>
<g id="a_Node000009"><a xlink:title=" ">
<polygon fill="#e0e0e0" stroke="#999999" points="812.12,-19.25 733.88,-19.25 733.88,0 812.12,0 812.12,-19.25"/>
<text text-anchor="middle" x="773" y="-5.75" font-family="Helvetica,sans-Serif" font-size="10.00">vtkPolyData.h</text>
</a>
</g>
</g>
<!-- Node1&#45;&gt;Node9 -->
<g id="edge8_Node000001_Node000009" class="edge">
<title>Node1&#45;&gt;Node9</title>
<g id="a_edge8_Node000001_Node000009"><a xlink:title=" ">
<path fill="none" stroke="#63b8ff" d="M773,-55.08C773,-48.57 773,-39.42 773,-31.12"/>
<polygon fill="#63b8ff" stroke="#63b8ff" points="776.5,-31.12 773,-21.12 769.5,-31.12 776.5,-31.12"/>
</a>
</g>
</g>
<!-- Node10 -->
<g id="Node000010" class="node">
<title>Node10</title>
<g id="a_Node000010"><a xlink:title=" ">
<polygon fill="#e0e0e0" stroke="#999999" points="891.5,-19.25 830.5,-19.25 830.5,0 891.5,0 891.5,-19.25"/>
<text text-anchor="middle" x="861" y="-5.75" font-family="Helvetica,sans-Serif" font-size="10.00">vtkQuad.h</text>
</a>
</g>
</g>
<!-- Node1&#45;&gt;Node10 -->
<g id="edge9_Node000001_Node000010" class="edge">
<title>Node1&#45;&gt;Node10</title>
<g id="a_edge9_Node000001_Node000010"><a xlink:title=" ">
<path fill="none" stroke="#63b8ff" d="M787.93,-54.84C801.2,-46.81 820.87,-34.91 836.45,-25.48"/>
<polygon fill="#63b8ff" stroke="#63b8ff" points="837.96,-28.66 844.7,-20.49 834.34,-22.67 837.96,-28.66"/>
</a>
</g>
</g>
<!-- Node11 -->
<g id="Node000011" class="node">
<title>Node11</title>
<g id="a_Node000011"><a xlink:title=" ">
<polygon fill="#e0e0e0" stroke="#999999" points="982.12,-19.25 909.88,-19.25 909.88,0 982.12,0 982.12,-19.25"/>
<text text-anchor="middle" x="946" y="-5.75" font-family="Helvetica,sans-Serif" font-size="10.00">vtkTriangle.h</text>
</a>
</g>
</g>
<!-- Node1&#45;&gt;Node11 -->
<g id="edge10_Node000001_Node000011" class="edge">
<title>Node1&#45;&gt;Node11</title>
<g id="a_edge10_Node000001_Node000011"><a xlink:title=" ">
<path fill="none" stroke="#63b8ff" d="M802.35,-54.84C830.8,-46.08 874.2,-32.73 905.85,-22.98"/>
<polygon fill="#63b8ff" stroke="#63b8ff" points="906.53,-26.43 915.06,-20.15 904.48,-19.74 906.53,-26.43"/>
</a>
</g>
</g>
<!-- Node12 -->
<g id="Node000012" class="node">
<title>Node12</title>
<g id="a_Node000012"><a xlink:title=" ">
<polygon fill="#e0e0e0" stroke="#999999" points="1090.12,-19.25 999.88,-19.25 999.88,0 1090.12,0 1090.12,-19.25"/>
<text text-anchor="middle" x="1045" y="-5.75" font-family="Helvetica,sans-Serif" font-size="10.00">vtkHexahedron.h</text>
</a>
</g>
</g>
<!-- Node1&#45;&gt;Node12 -->
<g id="edge11_Node000001_Node000012" class="edge">
<title>Node1&#45;&gt;Node12</title>
<g id="a_edge11_Node000001_Node000012"><a xlink:title=" ">
<path fill="none" stroke="#63b8ff" d="M819.45,-54.78C866.18,-45.63 938.32,-31.51 988.37,-21.71"/>
<polygon fill="#63b8ff" stroke="#63b8ff" points="989.02,-25.15 998.16,-19.79 987.68,-18.28 989.02,-25.15"/>
</a>
</g>
</g>
<!-- Node13 -->
<g id="Node000013" class="node">
<title>Node13</title>
<g id="a_Node000013"><a xlink:title=" ">
<polygon fill="#e0e0e0" stroke="#999999" points="1167.75,-19.25 1108.25,-19.25 1108.25,0 1167.75,0 1167.75,-19.25"/>
<text text-anchor="middle" x="1138" y="-5.75" font-family="Helvetica,sans-Serif" font-size="10.00">vtkTetra.h</text>
</a>
</g>
</g>
<!-- Node1&#45;&gt;Node13 -->
<g id="edge12_Node000001_Node000013" class="edge">
<title>Node1&#45;&gt;Node13</title>
<g id="a_edge12_Node000001_Node000013"><a xlink:title=" ">
<path fill="none" stroke="#63b8ff" d="M847.39,-55.44C911.06,-47.83 1005.38,-35.6 1096.7,-19.53"/>
<polygon fill="#63b8ff" stroke="#63b8ff" points="1097.09,-23.02 1106.33,-17.82 1095.87,-16.13 1097.09,-23.02"/>
</a>
</g>
</g>
<!-- Node14 -->
<g id="Node000014" class="node">
<title>Node14</title>
<g id="a_Node000014"><a xlink:title=" ">
<polygon fill="#e0e0e0" stroke="#999999" points="1239.75,-19.25 1186.25,-19.25 1186.25,0 1239.75,0 1239.75,-19.25"/>
<text text-anchor="middle" x="1213" y="-5.75" font-family="Helvetica,sans-Serif" font-size="10.00">iostream</text>
</a>
</g>
</g>
<!-- Node1&#45;&gt;Node14 -->
<g id="edge13_Node000001_Node000014" class="edge">
<title>Node1&#45;&gt;Node14</title>
<g id="a_edge13_Node000001_Node000014"><a xlink:title=" ">
<path fill="none" stroke="#63b8ff" d="M847.48,-58.46C926.38,-52.09 1054.75,-39.92 1174.74,-19.43"/>
<polygon fill="#63b8ff" stroke="#63b8ff" points="1175.2,-22.9 1184.46,-17.75 1174.01,-16.01 1175.2,-22.9"/>
</a>
</g>
</g>
<!-- Node15 -->
<g id="Node000015" class="node">
<title>Node15</title>
<g id="a_Node000015"><a xlink:title=" ">
<polygon fill="#e0e0e0" stroke="#999999" points="1292.38,-19.25 1257.62,-19.25 1257.62,0 1292.38,0 1292.38,-19.25"/>
<text text-anchor="middle" x="1275" y="-5.75" font-family="Helvetica,sans-Serif" font-size="10.00">map</text>
</a>
</g>
</g>
<!-- Node1&#45;&gt;Node15 -->
<g id="edge14_Node000001_Node000015" class="edge">
<title>Node1&#45;&gt;Node15</title>
<g id="a_edge14_Node000001_Node000015"><a xlink:title=" ">
<path fill="none" stroke="#63b8ff" d="M847.16,-62.12C939.16,-58.78 1100.75,-49.15 1246.34,-19.38"/>
<polygon fill="#63b8ff" stroke="#63b8ff" points="1246.69,-22.88 1255.76,-17.41 1245.26,-16.03 1246.69,-22.88"/>
</a>
</g>
</g>
<!-- Node16 -->
<g id="Node000016" class="node">
<title>Node16</title>
<g id="a_Node000016"><a xlink:title=" ">
<polygon fill="#e0e0e0" stroke="#999999" points="1353.5,-19.25 1310.5,-19.25 1310.5,0 1353.5,0 1353.5,-19.25"/>
<text text-anchor="middle" x="1332" y="-5.75" font-family="Helvetica,sans-Serif" font-size="10.00">vector</text>
</a>
</g>
</g>
<!-- Node1&#45;&gt;Node16 -->
<g id="edge15_Node000001_Node000016" class="edge">
<title>Node1&#45;&gt;Node16</title>
<g id="a_edge15_Node000001_Node000016"><a xlink:title=" ">
<path fill="none" stroke="#63b8ff" d="M847.46,-61.96C948.01,-58.41 1132.81,-48.45 1299.17,-19.22"/>
<polygon fill="#63b8ff" stroke="#63b8ff" points="1299.38,-22.74 1308.61,-17.53 1298.15,-15.84 1299.38,-22.74"/>
</a>
</g>
</g>
</g>
</svg>
