<?xml version="1.0" encoding="UTF-8" standalone="no"?>
<!DOCTYPE svg PUBLIC "-//W3C//DTD SVG 1.1//EN"
 "http://www.w3.org/Graphics/SVG/1.1/DTD/svg11.dtd">
<!-- Generated by graphviz version 12.2.1 (20241206.2353)
 -->
<!-- Title: Q_Mod Pages: 1 -->
<svg width="149pt" height="101pt"
 viewBox="0.00 0.00 148.75 101.25" xmlns="http://www.w3.org/2000/svg" xmlns:xlink="http://www.w3.org/1999/xlink">
<g id="graph0" class="graph" transform="scale(1 1) rotate(0) translate(4 97.25)">
<title>Q_Mod</title>
<!-- Node1 -->
<g id="Node000001" class="node">
<title>Node1</title>
<g id="a_Node000001"><a xlink:title=" ">
<polygon fill="#999999" stroke="#666666" points="140.75,-56.25 93.25,-56.25 93.25,-37 140.75,-37 140.75,-56.25"/>
<text text-anchor="middle" x="117" y="-42.75" font-family="Helvetica,sans-Serif" font-size="10.00">Q_Mod</text>
</a>
</g>
</g>
<!-- Node2 -->
<g id="Node000002" class="node">
<title>Node2</title>
<g id="a_Node000002"><a xlink:href="../../db/df6/_global___functions_8cpp_ab91fd93bd6219ed2fa406a43920cfd2b.html#ab91fd93bd6219ed2fa406a43920cfd2b" target="_top" xlink:title=" ">
<polygon fill="white" stroke="#666666" points="56.12,-93.25 1.12,-93.25 1.12,-74 56.12,-74 56.12,-93.25"/>
<text text-anchor="middle" x="28.62" y="-79.75" font-family="Helvetica,sans-Serif" font-size="10.00">operator*</text>
</a>
</g>
</g>
<!-- Node1&#45;&gt;Node2 -->
<g id="edge1_Node000001_Node000002" class="edge">
<title>Node1&#45;&gt;Node2</title>
<g id="a_edge1_Node000001_Node000002"><a xlink:title=" ">
<path fill="none" stroke="#63b8ff" d="M82.57,-60.94C72.74,-65.15 62.2,-69.67 53.14,-73.55"/>
<polygon fill="#63b8ff" stroke="#63b8ff" points="83.65,-64.29 91.46,-57.14 80.89,-57.86 83.65,-64.29"/>
</a>
</g>
</g>
<!-- Node3 -->
<g id="Node000003" class="node">
<title>Node3</title>
<g id="a_Node000003"><a xlink:href="../../db/df6/_global___functions_8cpp_a2fe699accbb444c9c596c152bd7d70b6.html#a2fe699accbb444c9c596c152bd7d70b6" target="_top" xlink:title=" ">
<polygon fill="white" stroke="#666666" points="57.25,-56.25 0,-56.25 0,-37 57.25,-37 57.25,-56.25"/>
<text text-anchor="middle" x="28.62" y="-42.75" font-family="Helvetica,sans-Serif" font-size="10.00">operator+</text>
</a>
</g>
</g>
<!-- Node1&#45;&gt;Node3 -->
<g id="edge2_Node000001_Node000003" class="edge">
<title>Node1&#45;&gt;Node3</title>
<g id="a_edge2_Node000001_Node000003"><a xlink:title=" ">
<path fill="none" stroke="#63b8ff" d="M81.56,-46.62C73.55,-46.62 65.13,-46.62 57.45,-46.62"/>
<polygon fill="#63b8ff" stroke="#63b8ff" points="81.34,-50.13 91.34,-46.63 81.34,-43.13 81.34,-50.13"/>
</a>
</g>
</g>
<!-- Node4 -->
<g id="Node000004" class="node">
<title>Node4</title>
<g id="a_Node000004"><a xlink:href="../../db/df6/_global___functions_8cpp_acffc6986f95f5ffd23c6f6659dca4740.html#acffc6986f95f5ffd23c6f6659dca4740" target="_top" xlink:title=" ">
<polygon fill="white" stroke="#666666" points="55.75,-19.25 1.5,-19.25 1.5,0 55.75,0 55.75,-19.25"/>
<text text-anchor="middle" x="28.62" y="-5.75" font-family="Helvetica,sans-Serif" font-size="10.00">operator&#45;</text>
</a>
</g>
</g>
<!-- Node1&#45;&gt;Node4 -->
<g id="edge3_Node000001_Node000004" class="edge">
<title>Node1&#45;&gt;Node4</title>
<g id="a_edge3_Node000001_Node000004"><a xlink:title=" ">
<path fill="none" stroke="#63b8ff" d="M82.57,-32.31C72.74,-28.1 62.2,-23.58 53.14,-19.7"/>
<polygon fill="#63b8ff" stroke="#63b8ff" points="80.89,-35.39 91.46,-36.11 83.65,-28.96 80.89,-35.39"/>
</a>
</g>
</g>
</g>
</svg>
