<?xml version="1.0" encoding="UTF-8" standalone="no"?>
<!DOCTYPE svg PUBLIC "-//W3C//DTD SVG 1.1//EN"
 "http://www.w3.org/Graphics/SVG/1.1/DTD/svg11.dtd">
<!-- Generated by graphviz version 12.2.1 (20241206.2353)
 -->
<!-- Title: Incompressible_Solver/Incompressible_Solver_Standalone.cpp Pages: 1 -->
<svg width="517pt" height="172pt"
 viewBox="0.00 0.00 516.62 171.50" xmlns="http://www.w3.org/2000/svg" xmlns:xlink="http://www.w3.org/1999/xlink">
<g id="graph0" class="graph" transform="scale(1 1) rotate(0) translate(4 167.5)">
<title>Incompressible_Solver/Incompressible_Solver_Standalone.cpp</title>
<!-- Node1 -->
<g id="Node000001" class="node">
<title>Node1</title>
<g id="a_Node000001"><a xlink:title=" ">
<polygon fill="#999999" stroke="#666666" points="300.5,-163.5 182.5,-163.5 182.5,-121.75 300.5,-121.75 300.5,-163.5"/>
<text text-anchor="start" x="190.5" y="-150" font-family="Helvetica,sans-Serif" font-size="10.00">Incompressible_Solver</text>
<text text-anchor="start" x="190.5" y="-138.75" font-family="Helvetica,sans-Serif" font-size="10.00">/Incompressible_Solver</text>
<text text-anchor="middle" x="241.5" y="-127.5" font-family="Helvetica,sans-Serif" font-size="10.00">_Standalone.cpp</text>
</a>
</g>
</g>
<!-- Node2 -->
<g id="Node000002" class="node">
<title>Node2</title>
<g id="a_Node000002"><a xlink:href="../../db/d02/_incompressible___solver___standalone_8h.html" target="_top" xlink:title="Standalone incompressible flow solver with SIMPLE algorithm.">
<polygon fill="white" stroke="#666666" points="299,-85.75 184,-85.75 184,-55.25 299,-55.25 299,-85.75"/>
<text text-anchor="start" x="192" y="-72.25" font-family="Helvetica,sans-Serif" font-size="10.00">Incompressible_Solver</text>
<text text-anchor="middle" x="241.5" y="-61" font-family="Helvetica,sans-Serif" font-size="10.00">_Standalone.h</text>
</a>
</g>
</g>
<!-- Node1&#45;&gt;Node2 -->
<g id="edge1_Node000001_Node000002" class="edge">
<title>Node1&#45;&gt;Node2</title>
<g id="a_edge1_Node000001_Node000002"><a xlink:title=" ">
<path fill="none" stroke="#63b8ff" d="M241.5,-121.34C241.5,-113.82 241.5,-105.19 241.5,-97.25"/>
<polygon fill="#63b8ff" stroke="#63b8ff" points="245,-97.46 241.5,-87.46 238,-97.46 245,-97.46"/>
</a>
</g>
</g>
<!-- Node3 -->
<g id="Node000003" class="node">
<title>Node3</title>
<g id="a_Node000003"><a xlink:title=" ">
<polygon fill="#e0e0e0" stroke="#999999" points="43,-19.25 0,-19.25 0,0 43,0 43,-19.25"/>
<text text-anchor="middle" x="21.5" y="-5.75" font-family="Helvetica,sans-Serif" font-size="10.00">vector</text>
</a>
</g>
</g>
<!-- Node2&#45;&gt;Node3 -->
<g id="edge2_Node000002_Node000003" class="edge">
<title>Node2&#45;&gt;Node3</title>
<g id="a_edge2_Node000002_Node000003"><a xlink:title=" ">
<path fill="none" stroke="#63b8ff" d="M185.63,-54.83C150.56,-45.57 104.1,-33.24 54.21,-19.69"/>
<polygon fill="#63b8ff" stroke="#63b8ff" points="55.2,-16.33 44.63,-17.09 53.36,-23.09 55.2,-16.33"/>
</a>
</g>
</g>
<!-- Node4 -->
<g id="Node000004" class="node">
<title>Node4</title>
<g id="a_Node000004"><a xlink:title=" ">
<polygon fill="#e0e0e0" stroke="#999999" points="101.5,-19.25 61.5,-19.25 61.5,0 101.5,0 101.5,-19.25"/>
<text text-anchor="middle" x="81.5" y="-5.75" font-family="Helvetica,sans-Serif" font-size="10.00">string</text>
</a>
</g>
</g>
<!-- Node2&#45;&gt;Node4 -->
<g id="edge3_Node000002_Node000004" class="edge">
<title>Node2&#45;&gt;Node4</title>
<g id="a_edge3_Node000002_Node000004"><a xlink:title=" ">
<path fill="none" stroke="#63b8ff" d="M201.54,-54.8C173.96,-44.65 137.84,-31.36 112.45,-22.01"/>
<polygon fill="#63b8ff" stroke="#63b8ff" points="113.96,-18.84 103.36,-18.67 111.54,-25.41 113.96,-18.84"/>
</a>
</g>
</g>
<!-- Node5 -->
<g id="Node000005" class="node">
<title>Node5</title>
<g id="a_Node000005"><a xlink:title=" ">
<polygon fill="#e0e0e0" stroke="#999999" points="163,-19.25 120,-19.25 120,0 163,0 163,-19.25"/>
<text text-anchor="middle" x="141.5" y="-5.75" font-family="Helvetica,sans-Serif" font-size="10.00">cmath</text>
</a>
</g>
</g>
<!-- Node2&#45;&gt;Node5 -->
<g id="edge4_Node000002_Node000005" class="edge">
<title>Node2&#45;&gt;Node5</title>
<g id="a_edge4_Node000002_Node000005"><a xlink:title=" ">
<path fill="none" stroke="#63b8ff" d="M216.52,-54.8C201.29,-45.83 181.89,-34.41 166.63,-25.42"/>
<polygon fill="#63b8ff" stroke="#63b8ff" points="168.53,-22.48 158.14,-20.42 164.98,-28.51 168.53,-22.48"/>
</a>
</g>
</g>
<!-- Node6 -->
<g id="Node000006" class="node">
<title>Node6</title>
<g id="a_Node000006"><a xlink:title=" ">
<polygon fill="#e0e0e0" stroke="#999999" points="234.25,-19.25 180.75,-19.25 180.75,0 234.25,0 234.25,-19.25"/>
<text text-anchor="middle" x="207.5" y="-5.75" font-family="Helvetica,sans-Serif" font-size="10.00">iostream</text>
</a>
</g>
</g>
<!-- Node2&#45;&gt;Node6 -->
<g id="edge5_Node000002_Node000006" class="edge">
<title>Node2&#45;&gt;Node6</title>
<g id="a_edge5_Node000002_Node000006"><a xlink:title=" ">
<path fill="none" stroke="#63b8ff" d="M233.1,-54.95C228.67,-47.28 223.18,-37.77 218.42,-29.54"/>
<polygon fill="#63b8ff" stroke="#63b8ff" points="221.53,-27.92 213.5,-21.01 215.47,-31.42 221.53,-27.92"/>
</a>
</g>
</g>
<!-- Node7 -->
<g id="Node000007" class="node">
<title>Node7</title>
<g id="a_Node000007"><a xlink:title=" ">
<polygon fill="#e0e0e0" stroke="#999999" points="301,-19.25 252,-19.25 252,0 301,0 301,-19.25"/>
<text text-anchor="middle" x="276.5" y="-5.75" font-family="Helvetica,sans-Serif" font-size="10.00">fstream</text>
</a>
</g>
</g>
<!-- Node2&#45;&gt;Node7 -->
<g id="edge6_Node000002_Node000007" class="edge">
<title>Node2&#45;&gt;Node7</title>
<g id="a_edge6_Node000002_Node000007"><a xlink:title=" ">
<path fill="none" stroke="#63b8ff" d="M250.15,-54.95C254.71,-47.28 260.36,-37.77 265.26,-29.54"/>
<polygon fill="#63b8ff" stroke="#63b8ff" points="268.23,-31.39 270.33,-21 262.21,-27.81 268.23,-31.39"/>
</a>
</g>
</g>
<!-- Node8 -->
<g id="Node000008" class="node">
<title>Node8</title>
<g id="a_Node000008"><a xlink:title=" ">
<polygon fill="#e0e0e0" stroke="#999999" points="368.38,-19.25 318.62,-19.25 318.62,0 368.38,0 368.38,-19.25"/>
<text text-anchor="middle" x="343.5" y="-5.75" font-family="Helvetica,sans-Serif" font-size="10.00">iomanip</text>
</a>
</g>
</g>
<!-- Node2&#45;&gt;Node8 -->
<g id="edge7_Node000002_Node000008" class="edge">
<title>Node2&#45;&gt;Node8</title>
<g id="a_edge7_Node000002_Node000008"><a xlink:title=" ">
<path fill="none" stroke="#63b8ff" d="M266.98,-54.8C282.66,-45.74 302.68,-34.19 318.31,-25.16"/>
<polygon fill="#63b8ff" stroke="#63b8ff" points="319.64,-28.44 326.55,-20.41 316.14,-22.38 319.64,-28.44"/>
</a>
</g>
</g>
<!-- Node9 -->
<g id="Node000009" class="node">
<title>Node9</title>
<g id="a_Node000009"><a xlink:title=" ">
<polygon fill="#e0e0e0" stroke="#999999" points="442.38,-19.25 386.62,-19.25 386.62,0 442.38,0 442.38,-19.25"/>
<text text-anchor="middle" x="414.5" y="-5.75" font-family="Helvetica,sans-Serif" font-size="10.00">algorithm</text>
</a>
</g>
</g>
<!-- Node2&#45;&gt;Node9 -->
<g id="edge8_Node000002_Node000009" class="edge">
<title>Node2&#45;&gt;Node9</title>
<g id="a_edge8_Node000002_Node000009"><a xlink:title=" ">
<path fill="none" stroke="#63b8ff" d="M284.71,-54.8C313.12,-45.13 349.93,-32.6 377.09,-23.36"/>
<polygon fill="#63b8ff" stroke="#63b8ff" points="377.94,-26.76 386.28,-20.23 375.69,-20.14 377.94,-26.76"/>
</a>
</g>
</g>
<!-- Node10 -->
<g id="Node000010" class="node">
<title>Node10</title>
<g id="a_Node000010"><a xlink:title=" ">
<polygon fill="#e0e0e0" stroke="#999999" points="508.62,-19.25 460.38,-19.25 460.38,0 508.62,0 508.62,-19.25"/>
<text text-anchor="middle" x="484.5" y="-5.75" font-family="Helvetica,sans-Serif" font-size="10.00">cassert</text>
</a>
</g>
</g>
<!-- Node2&#45;&gt;Node10 -->
<g id="edge9_Node000002_Node000010" class="edge">
<title>Node2&#45;&gt;Node10</title>
<g id="a_edge9_Node000002_Node000010"><a xlink:title=" ">
<path fill="none" stroke="#63b8ff" d="M299.07,-56.06C338.75,-46.73 392.99,-33.81 449.13,-19.81"/>
<polygon fill="#63b8ff" stroke="#63b8ff" points="449.69,-23.28 458.54,-17.45 447.99,-16.49 449.69,-23.28"/>
</a>
</g>
</g>
</g>
</svg>
