<?xml version="1.0" encoding="UTF-8" standalone="no"?>
<!DOCTYPE svg PUBLIC "-//W3C//DTD SVG 1.1//EN"
 "http://www.w3.org/Graphics/SVG/1.1/DTD/svg11.dtd">
<!-- Generated by graphviz version 12.2.1 (20241206.2353)
 -->
<!-- Title: Channel_Flow Pages: 1 -->
<svg width="648pt" height="349pt"
 viewBox="0.00 0.00 647.95 348.88" xmlns="http://www.w3.org/2000/svg" xmlns:xlink="http://www.w3.org/1999/xlink">
<g id="graph0" class="graph" transform="scale(1 1) rotate(0) translate(4 344.88)">
<title>Channel_Flow</title>
<!-- Node1 -->
<g id="Node000001" class="node">
<title>Node1</title>
<g id="a_Node000001"><a xlink:title=" ">
<polygon fill="#999999" stroke="#666666" points="78.25,-169.25 0,-169.25 0,-150 78.25,-150 78.25,-169.25"/>
<text text-anchor="middle" x="39.12" y="-155.75" font-family="Helvetica,sans-Serif" font-size="10.00">Channel_Flow</text>
</a>
</g>
</g>
<!-- Node2 -->
<g id="Node000002" class="node">
<title>Node2</title>
<g id="a_Node000002"><a xlink:href="../../df/d43/_basic___functions_8cpp_a9ca12fb8f920cab38313323cf0c4bf53.html#a9ca12fb8f920cab38313323cf0c4bf53" target="_top" xlink:title=" ">
<polygon fill="white" stroke="#666666" points="239.75,-340.88 114.25,-340.88 114.25,-310.38 239.75,-310.38 239.75,-340.88"/>
<text text-anchor="start" x="122.25" y="-327.38" font-family="Helvetica,sans-Serif" font-size="10.00">Calculate_Computational</text>
<text text-anchor="middle" x="177" y="-316.12" font-family="Helvetica,sans-Serif" font-size="10.00">_Variables</text>
</a>
</g>
</g>
<!-- Node1&#45;&gt;Node2 -->
<g id="edge1_Node000001_Node000002" class="edge">
<title>Node1&#45;&gt;Node2</title>
<g id="a_edge1_Node000001_Node000002"><a xlink:title=" ">
<path fill="none" stroke="#63b8ff" d="M42.77,-169.65C49.97,-195.05 72.22,-262.58 114.25,-300.62 115.48,-301.74 116.77,-302.81 118.11,-303.83"/>
<polygon fill="#63b8ff" stroke="#63b8ff" points="115.93,-306.59 126.21,-309.14 119.76,-300.73 115.93,-306.59"/>
</a>
</g>
</g>
<!-- Node3 -->
<g id="Node000003" class="node">
<title>Node3</title>
<g id="a_Node000003"><a xlink:href="../../df/d43/_basic___functions_8cpp_a1c199e756f8458978961b4d9ab4cbe63.html#a1c199e756f8458978961b4d9ab4cbe63" target="_top" xlink:title=" ">
<polygon fill="white" stroke="#666666" points="227.38,-291.88 126.62,-291.88 126.62,-261.38 227.38,-261.38 227.38,-291.88"/>
<text text-anchor="start" x="134.62" y="-278.38" font-family="Helvetica,sans-Serif" font-size="10.00">Calculate_Primitive</text>
<text text-anchor="middle" x="177" y="-267.12" font-family="Helvetica,sans-Serif" font-size="10.00">_Variables</text>
</a>
</g>
</g>
<!-- Node1&#45;&gt;Node3 -->
<g id="edge2_Node000001_Node000003" class="edge">
<title>Node1&#45;&gt;Node3</title>
<g id="a_edge2_Node000001_Node000003"><a xlink:title=" ">
<path fill="none" stroke="#63b8ff" d="M45.55,-169.46C56.32,-188.14 82.15,-229.01 114.25,-252.62 115.58,-253.6 116.96,-254.55 118.37,-255.46"/>
<polygon fill="#63b8ff" stroke="#63b8ff" points="116.38,-258.36 126.8,-260.25 119.84,-252.27 116.38,-258.36"/>
</a>
</g>
</g>
<!-- Node5 -->
<g id="Node000005" class="node">
<title>Node5</title>
<g id="a_Node000005"><a xlink:href="../../da/d3e/output__files_8cpp_ac7e61b153a6d26ffbefde7b5b86d55a7.html#ac7e61b153a6d26ffbefde7b5b86d55a7" target="_top" xlink:title=" ">
<polygon fill="white" stroke="#666666" points="220.62,-243.25 133.38,-243.25 133.38,-224 220.62,-224 220.62,-243.25"/>
<text text-anchor="middle" x="177" y="-229.75" font-family="Helvetica,sans-Serif" font-size="10.00">Directory_Name</text>
</a>
</g>
</g>
<!-- Node1&#45;&gt;Node5 -->
<g id="edge4_Node000001_Node000005" class="edge">
<title>Node1&#45;&gt;Node5</title>
<g id="a_edge4_Node000001_Node000005"><a xlink:title=" ">
<path fill="none" stroke="#63b8ff" d="M50.82,-169.74C64.52,-182.18 89.46,-203.18 114.25,-215.62 117.1,-217.06 120.09,-218.39 123.14,-219.64"/>
<polygon fill="#63b8ff" stroke="#63b8ff" points="121.68,-222.83 132.27,-223 124.1,-216.26 121.68,-222.83"/>
</a>
</g>
</g>
<!-- Node6 -->
<g id="Node000006" class="node">
<title>Node6</title>
<g id="a_Node000006"><a xlink:href="../../da/d3e/output__files_8cpp_a2a6bf38afe949ce5a6cd1b3641c49c25.html#a2a6bf38afe949ce5a6cd1b3641c49c25" target="_top" xlink:title=" ">
<polygon fill="white" stroke="#666666" points="208.62,-206.25 145.38,-206.25 145.38,-187 208.62,-187 208.62,-206.25"/>
<text text-anchor="middle" x="177" y="-192.75" font-family="Helvetica,sans-Serif" font-size="10.00">File_Name</text>
</a>
</g>
</g>
<!-- Node1&#45;&gt;Node6 -->
<g id="edge5_Node000001_Node000006" class="edge">
<title>Node1&#45;&gt;Node6</title>
<g id="a_edge5_Node000001_Node000006"><a xlink:title=" ">
<path fill="none" stroke="#63b8ff" d="M77.25,-169.74C94.82,-174.52 115.88,-180.25 134.03,-185.19"/>
<polygon fill="#63b8ff" stroke="#63b8ff" points="132.86,-188.51 143.43,-187.76 134.7,-181.75 132.86,-188.51"/>
</a>
</g>
</g>
<!-- Node7 -->
<g id="Node000007" class="node">
<title>Node7</title>
<g id="a_Node000007"><a xlink:href="../../d8/d40/_grid___computations_8cpp_a831dcf7cbf36ddf425ce0753495ba3c6.html#a831dcf7cbf36ddf425ce0753495ba3c6" target="_top" xlink:title=" ">
<polygon fill="white" stroke="#666666" points="210.12,-169.25 143.88,-169.25 143.88,-150 210.12,-150 210.12,-169.25"/>
<text text-anchor="middle" x="177" y="-155.75" font-family="Helvetica,sans-Serif" font-size="10.00">Form_Cells</text>
</a>
</g>
</g>
<!-- Node1&#45;&gt;Node7 -->
<g id="edge6_Node000001_Node000007" class="edge">
<title>Node1&#45;&gt;Node7</title>
<g id="a_edge6_Node000001_Node000007"><a xlink:title=" ">
<path fill="none" stroke="#63b8ff" d="M78.7,-159.62C95.4,-159.62 115.03,-159.62 132.27,-159.62"/>
<polygon fill="#63b8ff" stroke="#63b8ff" points="132.25,-163.13 142.25,-159.63 132.25,-156.13 132.25,-163.13"/>
</a>
</g>
</g>
<!-- Node19 -->
<g id="Node000019" class="node">
<title>Node19</title>
<g id="a_Node000019"><a xlink:href="../../d7/d6d/_initialize_8cpp_ad59ff1b23c73f6427e8179ce53ee1f59.html#ad59ff1b23c73f6427e8179ce53ee1f59" target="_top" xlink:title=" ">
<polygon fill="white" stroke="#666666" points="395.62,-82.88 276.88,-82.88 276.88,-52.38 395.62,-52.38 395.62,-82.88"/>
<text text-anchor="start" x="284.88" y="-69.38" font-family="Helvetica,sans-Serif" font-size="10.00">Identify_Wall_Boundary</text>
<text text-anchor="middle" x="336.25" y="-58.12" font-family="Helvetica,sans-Serif" font-size="10.00">_Faces</text>
</a>
</g>
</g>
<!-- Node1&#45;&gt;Node19 -->
<g id="edge21_Node000001_Node000019" class="edge">
<title>Node1&#45;&gt;Node19</title>
<g id="a_edge21_Node000001_Node000019"><a xlink:title=" ">
<path fill="none" stroke="#63b8ff" d="M78.65,-149.52C119.04,-138.72 184.23,-120.7 239.75,-102.62 254.2,-97.92 269.73,-92.42 283.98,-87.2"/>
<polygon fill="#63b8ff" stroke="#63b8ff" points="285,-90.55 293.16,-83.8 282.57,-83.99 285,-90.55"/>
</a>
</g>
</g>
<!-- Node20 -->
<g id="Node000020" class="node">
<title>Node20</title>
<g id="a_Node000020"><a xlink:href="../../d7/d6d/_initialize_8cpp_acc3c3292e370176c51c654a01e651e24.html#acc3c3292e370176c51c654a01e651e24" target="_top" xlink:title=" ">
<polygon fill="white" stroke="#666666" points="203,-93.25 151,-93.25 151,-74 203,-74 203,-93.25"/>
<text text-anchor="middle" x="177" y="-79.75" font-family="Helvetica,sans-Serif" font-size="10.00">Initialize</text>
</a>
</g>
</g>
<!-- Node1&#45;&gt;Node20 -->
<g id="edge22_Node000001_Node000020" class="edge">
<title>Node1&#45;&gt;Node20</title>
<g id="a_edge22_Node000001_Node000020"><a xlink:title=" ">
<path fill="none" stroke="#63b8ff" d="M52.38,-149.63C66.61,-138.36 91.1,-120.01 114.25,-107.62 122.38,-103.28 131.47,-99.3 140.13,-95.88"/>
<polygon fill="#63b8ff" stroke="#63b8ff" points="141.21,-99.22 149.34,-92.41 138.74,-92.67 141.21,-99.22"/>
</a>
</g>
</g>
<!-- Node23 -->
<g id="Node000023" class="node">
<title>Node23</title>
<g id="a_Node000023"><a xlink:href="../../d0/d1e/_boundary___conditions_8cpp_a2d32130200c60d2eda217d312910b972.html#a2d32130200c60d2eda217d312910b972" target="_top" xlink:title=" ">
<polygon fill="white" stroke="#666666" points="229.25,-56.25 124.75,-56.25 124.75,-37 229.25,-37 229.25,-56.25"/>
<text text-anchor="middle" x="177" y="-42.75" font-family="Helvetica,sans-Serif" font-size="10.00">readInitialConditions</text>
</a>
</g>
</g>
<!-- Node1&#45;&gt;Node23 -->
<g id="edge26_Node000001_Node000023" class="edge">
<title>Node1&#45;&gt;Node23</title>
<g id="a_edge26_Node000001_Node000023"><a xlink:title=" ">
<path fill="none" stroke="#63b8ff" d="M45.15,-149.62C55.41,-130.22 80.66,-87.4 114.25,-64.62 115.84,-63.55 117.49,-62.53 119.19,-61.58"/>
<polygon fill="#63b8ff" stroke="#63b8ff" points="120.47,-64.85 128.01,-57.4 117.47,-58.52 120.47,-64.85"/>
</a>
</g>
</g>
<!-- Node24 -->
<g id="Node000024" class="node">
<title>Node24</title>
<g id="a_Node000024"><a xlink:href="../../da/d3e/output__files_8cpp_ac49d22b87cab7fa46da37546b7af78b0.html#ac49d22b87cab7fa46da37546b7af78b0" target="_top" xlink:title=" ">
<polygon fill="white" stroke="#666666" points="216.5,-19.25 137.5,-19.25 137.5,0 216.5,0 216.5,-19.25"/>
<text text-anchor="middle" x="177" y="-5.75" font-family="Helvetica,sans-Serif" font-size="10.00">Write_Solution</text>
</a>
</g>
</g>
<!-- Node1&#45;&gt;Node24 -->
<g id="edge27_Node000001_Node000024" class="edge">
<title>Node1&#45;&gt;Node24</title>
<g id="a_edge27_Node000001_Node000024"><a xlink:title=" ">
<path fill="none" stroke="#63b8ff" d="M42.86,-149.63C50.13,-125 72.27,-60.98 114.25,-27.62 117.99,-24.66 122.2,-22.18 126.62,-20.1"/>
<polygon fill="#63b8ff" stroke="#63b8ff" points="127.75,-23.42 135.79,-16.53 125.2,-16.9 127.75,-23.42"/>
</a>
</g>
</g>
<!-- Node4 -->
<g id="Node000004" class="node">
<title>Node4</title>
<g id="a_Node000004"><a xlink:href="../../df/d43/_basic___functions_8cpp_ae9dc3225863fb110155bb3e9dea4e4d3.html#ae9dc3225863fb110155bb3e9dea4e4d3" target="_top" xlink:title=" ">
<polygon fill="white" stroke="#666666" points="364.5,-318.25 308,-318.25 308,-299 364.5,-299 364.5,-318.25"/>
<text text-anchor="middle" x="336.25" y="-304.75" font-family="Helvetica,sans-Serif" font-size="10.00">Viscosity</text>
</a>
</g>
</g>
<!-- Node3&#45;&gt;Node4 -->
<g id="edge3_Node000003_Node000004" class="edge">
<title>Node3&#45;&gt;Node4</title>
<g id="a_edge3_Node000003_Node000004"><a xlink:title=" ">
<path fill="none" stroke="#63b8ff" d="M227.75,-286.75C249.97,-291.27 275.76,-296.52 296.51,-300.74"/>
<polygon fill="#63b8ff" stroke="#63b8ff" points="295.79,-304.17 306.29,-302.73 297.18,-297.31 295.79,-304.17"/>
</a>
</g>
</g>
<!-- Node8 -->
<g id="Node000008" class="node">
<title>Node8</title>
<g id="a_Node000008"><a xlink:href="../../d8/d40/_grid___computations_8cpp_a7e6f11445e90cefdcb91f369846ec691.html#a7e6f11445e90cefdcb91f369846ec691" target="_top" xlink:title=" ">
<polygon fill="white" stroke="#666666" points="393.38,-131.88 279.12,-131.88 279.12,-101.38 393.38,-101.38 393.38,-131.88"/>
<text text-anchor="start" x="287.12" y="-118.38" font-family="Helvetica,sans-Serif" font-size="10.00">Calculate_Cell_Center</text>
<text text-anchor="middle" x="336.25" y="-107.12" font-family="Helvetica,sans-Serif" font-size="10.00">_Distances</text>
</a>
</g>
</g>
<!-- Node7&#45;&gt;Node8 -->
<g id="edge7_Node000007_Node000008" class="edge">
<title>Node7&#45;&gt;Node8</title>
<g id="a_edge7_Node000007_Node000008"><a xlink:title=" ">
<path fill="none" stroke="#63b8ff" d="M210.58,-150.72C227.21,-146.17 248.07,-140.47 267.94,-135.03"/>
<polygon fill="#63b8ff" stroke="#63b8ff" points="268.67,-138.46 277.39,-132.45 266.82,-131.71 268.67,-138.46"/>
</a>
</g>
</g>
<!-- Node11 -->
<g id="Node000011" class="node">
<title>Node11</title>
<g id="a_Node000011"><a xlink:href="../../d8/d40/_grid___computations_8cpp_a209db16fba143a9833c8d4021624afb0.html#a209db16fba143a9833c8d4021624afb0" target="_top" xlink:title=" ">
<polygon fill="white" stroke="#666666" points="534.62,-169.25 462.38,-169.25 462.38,-150 534.62,-150 534.62,-169.25"/>
<text text-anchor="middle" x="498.5" y="-155.75" font-family="Helvetica,sans-Serif" font-size="10.00">Check_Cells</text>
</a>
</g>
</g>
<!-- Node7&#45;&gt;Node11 -->
<g id="edge11_Node000007_Node000011" class="edge">
<title>Node7&#45;&gt;Node11</title>
<g id="a_edge11_Node000007_Node000011"><a xlink:title=" ">
<path fill="none" stroke="#63b8ff" d="M210.39,-159.62C267.26,-159.62 385.24,-159.62 450.88,-159.62"/>
<polygon fill="#63b8ff" stroke="#63b8ff" points="450.6,-163.13 460.6,-159.63 450.6,-156.13 450.6,-163.13"/>
</a>
</g>
</g>
<!-- Node12 -->
<g id="Node000012" class="node">
<title>Node12</title>
<g id="a_Node000012"><a xlink:href="../../df/daf/_co___volume___grid___computations_8cpp_a097cceef075e862683dd9f6e95d091d4.html#a097cceef075e862683dd9f6e95d091d4" target="_top" xlink:title=" ">
<polygon fill="white" stroke="#666666" points="396.38,-281.25 276.12,-281.25 276.12,-262 396.38,-262 396.38,-281.25"/>
<text text-anchor="middle" x="336.25" y="-267.75" font-family="Helvetica,sans-Serif" font-size="10.00">Construct_Co_Volumes</text>
</a>
</g>
</g>
<!-- Node7&#45;&gt;Node12 -->
<g id="edge12_Node000007_Node000012" class="edge">
<title>Node7&#45;&gt;Node12</title>
<g id="a_edge12_Node000007_Node000012"><a xlink:title=" ">
<path fill="none" stroke="#63b8ff" d="M210.33,-163.7C220.65,-166.31 231.51,-170.6 239.75,-177.62 268.19,-201.87 247.43,-229.23 275.75,-253.62 276.67,-254.42 277.62,-255.17 278.61,-255.9"/>
<polygon fill="#63b8ff" stroke="#63b8ff" points="276.43,-258.68 286.82,-260.78 280.01,-252.66 276.43,-258.68"/>
</a>
</g>
</g>
<!-- Node15 -->
<g id="Node000015" class="node">
<title>Node15</title>
<g id="a_Node000015"><a xlink:href="../../d8/d40/_grid___computations_8cpp_ae5f2b7a0fdbc48f8fdf897222b7ded04.html#ae5f2b7a0fdbc48f8fdf897222b7ded04" target="_top" xlink:title=" ">
<polygon fill="white" stroke="#666666" points="395.25,-244.25 277.25,-244.25 277.25,-225 395.25,-225 395.25,-244.25"/>
<text text-anchor="middle" x="336.25" y="-230.75" font-family="Helvetica,sans-Serif" font-size="10.00">Construct_Ghost_Cells</text>
</a>
</g>
</g>
<!-- Node7&#45;&gt;Node15 -->
<g id="edge15_Node000007_Node000015" class="edge">
<title>Node7&#45;&gt;Node15</title>
<g id="a_edge15_Node000007_Node000015"><a xlink:title=" ">
<path fill="none" stroke="#63b8ff" d="M210.48,-165.57C220.36,-168.29 230.92,-172.16 239.75,-177.62 259.8,-190.05 255.76,-204.1 275.75,-216.62 277.64,-217.81 279.61,-218.91 281.63,-219.95"/>
<polygon fill="#63b8ff" stroke="#63b8ff" points="280.17,-223.13 290.73,-223.98 283,-216.73 280.17,-223.13"/>
</a>
</g>
</g>
<!-- Node17 -->
<g id="Node000017" class="node">
<title>Node17</title>
<g id="a_Node000017"><a xlink:href="../../d8/d40/_grid___computations_8cpp_a663d4b3ae06e638c2f2e82ad437e831e.html#a663d4b3ae06e638c2f2e82ad437e831e" target="_top" xlink:title="Reads the input grid file and constructs physical cells, evaluates face areas, normals,...">
<polygon fill="white" stroke="#666666" points="367.5,-207.25 305,-207.25 305,-188 367.5,-188 367.5,-207.25"/>
<text text-anchor="middle" x="336.25" y="-193.75" font-family="Helvetica,sans-Serif" font-size="10.00">Read_Grid</text>
</a>
</g>
</g>
<!-- Node7&#45;&gt;Node17 -->
<g id="edge17_Node000007_Node000017" class="edge">
<title>Node7&#45;&gt;Node17</title>
<g id="a_edge17_Node000007_Node000017"><a xlink:title=" ">
<path fill="none" stroke="#63b8ff" d="M210.58,-167.5C234.64,-173.31 267.58,-181.27 293.56,-187.55"/>
<polygon fill="#63b8ff" stroke="#63b8ff" points="292.57,-190.91 303.11,-189.86 294.21,-184.11 292.57,-190.91"/>
</a>
</g>
</g>
<!-- Node9 -->
<g id="Node000009" class="node">
<title>Node9</title>
<g id="a_Node000009"><a xlink:href="../../d8/d40/_grid___computations_8cpp_a1f273579608200866e02e34f16a3eb6b.html#a1f273579608200866e02e34f16a3eb6b" target="_top" xlink:title=" ">
<polygon fill="white" stroke="#666666" points="564.25,-126.25 432.75,-126.25 432.75,-107 564.25,-107 564.25,-126.25"/>
<text text-anchor="middle" x="498.5" y="-112.75" font-family="Helvetica,sans-Serif" font-size="10.00">Distance_Between_Points</text>
</a>
</g>
</g>
<!-- Node8&#45;&gt;Node9 -->
<g id="edge8_Node000008_Node000009" class="edge">
<title>Node8&#45;&gt;Node9</title>
<g id="a_edge8_Node000008_Node000009"><a xlink:title=" ">
<path fill="none" stroke="#63b8ff" d="M393.75,-116.62C402.65,-116.62 411.99,-116.62 421.25,-116.62"/>
<polygon fill="#63b8ff" stroke="#63b8ff" points="420.97,-120.13 430.97,-116.63 420.97,-113.13 420.97,-120.13"/>
</a>
</g>
</g>
<!-- Node10 -->
<g id="Node000010" class="node">
<title>Node10</title>
<g id="a_Node000010"><a xlink:href="../../d8/d40/_grid___computations_8cpp_a079a3910785ad86cffe119a8e3d6a0d4.html#a079a3910785ad86cffe119a8e3d6a0d4" target="_top" xlink:title=" ">
<polygon fill="white" stroke="#666666" points="636.5,-126.25 600.25,-126.25 600.25,-107 636.5,-107 636.5,-126.25"/>
<text text-anchor="middle" x="618.38" y="-112.75" font-family="Helvetica,sans-Serif" font-size="10.00">Print</text>
</a>
</g>
</g>
<!-- Node9&#45;&gt;Node10 -->
<g id="edge9_Node000009_Node000010" class="edge">
<title>Node9&#45;&gt;Node10</title>
<g id="a_edge9_Node000009_Node000010"><a xlink:title=" ">
<path fill="none" stroke="#63b8ff" d="M564.64,-116.62C572.97,-116.62 581.12,-116.62 588.44,-116.62"/>
<polygon fill="#63b8ff" stroke="#63b8ff" points="588.32,-120.13 598.32,-116.63 588.32,-113.13 588.32,-120.13"/>
</a>
</g>
</g>
<!-- Node10&#45;&gt;Node10 -->
<g id="edge10_Node000010_Node000010" class="edge">
<title>Node10&#45;&gt;Node10</title>
<g id="a_edge10_Node000010_Node000010"><a xlink:title=" ">
<path fill="none" stroke="#63b8ff" d="M599.9,-126.25C590.91,-134.94 597.07,-144.25 618.38,-144.25 630.36,-144.25 637.55,-141.3 639.95,-137.18"/>
<polygon fill="#63b8ff" stroke="#63b8ff" points="643.36,-136.37 637.26,-127.71 636.63,-138.28 643.36,-136.37"/>
</a>
</g>
</g>
<!-- Node13 -->
<g id="Node000013" class="node">
<title>Node13</title>
<g id="a_Node000013"><a xlink:href="../../d8/d40/_grid___computations_8cpp_a0d19b951f556ac7a935819a38d2e1a6f.html#a0d19b951f556ac7a935819a38d2e1a6f" target="_top" xlink:title=" ">
<polygon fill="white" stroke="#666666" points="541.38,-281.25 455.62,-281.25 455.62,-262 541.38,-262 541.38,-281.25"/>
<text text-anchor="middle" x="498.5" y="-267.75" font-family="Helvetica,sans-Serif" font-size="10.00">Construct_Face</text>
</a>
</g>
</g>
<!-- Node12&#45;&gt;Node13 -->
<g id="edge13_Node000012_Node000013" class="edge">
<title>Node12&#45;&gt;Node13</title>
<g id="a_edge13_Node000012_Node000013"><a xlink:title=" ">
<path fill="none" stroke="#63b8ff" d="M396.47,-271.62C412.1,-271.62 428.87,-271.62 444.17,-271.62"/>
<polygon fill="#63b8ff" stroke="#63b8ff" points="444.02,-275.13 454.02,-271.63 444.02,-268.13 444.02,-275.13"/>
</a>
</g>
</g>
<!-- Node14 -->
<g id="Node000014" class="node">
<title>Node14</title>
<g id="a_Node000014"><a xlink:href="../../d8/d40/_grid___computations_8cpp_a29418163b6fbd0aa81c60026e430d0b8.html#a29418163b6fbd0aa81c60026e430d0b8" target="_top" xlink:title=" ">
<polygon fill="white" stroke="#666666" points="560.88,-318.25 436.12,-318.25 436.12,-299 560.88,-299 560.88,-318.25"/>
<text text-anchor="middle" x="498.5" y="-304.75" font-family="Helvetica,sans-Serif" font-size="10.00">Evaluate_Cross_Product</text>
</a>
</g>
</g>
<!-- Node12&#45;&gt;Node14 -->
<g id="edge14_Node000012_Node000014" class="edge">
<title>Node12&#45;&gt;Node14</title>
<g id="a_edge14_Node000012_Node000014"><a xlink:title=" ">
<path fill="none" stroke="#63b8ff" d="M381.04,-281.74C400.03,-286.12 422.47,-291.3 442.57,-295.94"/>
<polygon fill="#63b8ff" stroke="#63b8ff" points="441.76,-299.35 452.29,-298.19 443.33,-292.53 441.76,-299.35"/>
</a>
</g>
</g>
<!-- Node16 -->
<g id="Node000016" class="node">
<title>Node16</title>
<g id="a_Node000016"><a xlink:href="../../d8/d40/_grid___computations_8cpp_a2d284e26ddef582519953e8b8300184e.html#a2d284e26ddef582519953e8b8300184e" target="_top" xlink:title=" ">
<polygon fill="white" stroke="#666666" points="539.12,-244.25 457.88,-244.25 457.88,-225 539.12,-225 539.12,-244.25"/>
<text text-anchor="middle" x="498.5" y="-230.75" font-family="Helvetica,sans-Serif" font-size="10.00">Construct_Cell</text>
</a>
</g>
</g>
<!-- Node15&#45;&gt;Node16 -->
<g id="edge16_Node000015_Node000016" class="edge">
<title>Node15&#45;&gt;Node16</title>
<g id="a_edge16_Node000015_Node000016"><a xlink:title=" ">
<path fill="none" stroke="#63b8ff" d="M395.56,-234.62C412.12,-234.62 430.03,-234.62 446.15,-234.62"/>
<polygon fill="#63b8ff" stroke="#63b8ff" points="446.01,-238.13 456.01,-234.63 446.01,-231.13 446.01,-238.13"/>
</a>
</g>
</g>
<!-- Node17&#45;&gt;Node11 -->
<g id="edge18_Node000017_Node000011" class="edge">
<title>Node17&#45;&gt;Node11</title>
<g id="a_edge18_Node000017_Node000011"><a xlink:title=" ">
<path fill="none" stroke="#63b8ff" d="M367.77,-190.39C391.29,-184.81 424.21,-177 451,-170.65"/>
<polygon fill="#63b8ff" stroke="#63b8ff" points="451.67,-174.09 460.59,-168.38 450.06,-167.28 451.67,-174.09"/>
</a>
</g>
</g>
<!-- Node17&#45;&gt;Node16 -->
<g id="edge19_Node000017_Node000016" class="edge">
<title>Node17&#45;&gt;Node16</title>
<g id="a_edge19_Node000017_Node000016"><a xlink:title=" ">
<path fill="none" stroke="#63b8ff" d="M367.77,-204.67C389.92,-209.79 420.41,-216.82 446.26,-222.79"/>
<polygon fill="#63b8ff" stroke="#63b8ff" points="445.39,-226.18 455.92,-225.02 446.96,-219.36 445.39,-226.18"/>
</a>
</g>
</g>
<!-- Node18 -->
<g id="Node000018" class="node">
<title>Node18</title>
<g id="a_Node000018"><a xlink:href="../../d8/d40/_grid___computations_8cpp_aa376223dcb91990013ac6549090115ea.html#aa376223dcb91990013ac6549090115ea" target="_top" xlink:title=" ">
<polygon fill="white" stroke="#666666" points="547.75,-207.25 449.25,-207.25 449.25,-188 547.75,-188 547.75,-207.25"/>
<text text-anchor="middle" x="498.5" y="-193.75" font-family="Helvetica,sans-Serif" font-size="10.00">Conversion_Factor</text>
</a>
</g>
</g>
<!-- Node17&#45;&gt;Node18 -->
<g id="edge20_Node000017_Node000018" class="edge">
<title>Node17&#45;&gt;Node18</title>
<g id="a_edge20_Node000017_Node000018"><a xlink:title=" ">
<path fill="none" stroke="#63b8ff" d="M367.77,-197.62C387.44,-197.62 413.67,-197.62 437.41,-197.62"/>
<polygon fill="#63b8ff" stroke="#63b8ff" points="437.3,-201.13 447.3,-197.63 437.3,-194.13 437.3,-201.13"/>
</a>
</g>
</g>
<!-- Node20&#45;&gt;Node19 -->
<g id="edge25_Node000020_Node000019" class="edge">
<title>Node20&#45;&gt;Node19</title>
<g id="a_edge25_Node000020_Node000019"><a xlink:title=" ">
<path fill="none" stroke="#63b8ff" d="M203.26,-81.05C220.05,-79.35 242.97,-77.01 265.01,-74.77"/>
<polygon fill="#63b8ff" stroke="#63b8ff" points="265.31,-78.26 274.91,-73.77 264.6,-71.3 265.31,-78.26"/>
</a>
</g>
</g>
<!-- Node21 -->
<g id="Node000021" class="node">
<title>Node21</title>
<g id="a_Node000021"><a xlink:href="../../d4/d5d/_grid___refine___functions_8cpp_add867401ba6818c3d6480ec342cb0eaa.html#add867401ba6818c3d6480ec342cb0eaa" target="_top" xlink:title="Identifies the secondary neighbors of a given cell to evaluate second gradients.">
<polygon fill="white" stroke="#666666" points="396.75,-33.88 275.75,-33.88 275.75,-3.37 396.75,-3.37 396.75,-33.88"/>
<text text-anchor="start" x="283.75" y="-20.38" font-family="Helvetica,sans-Serif" font-size="10.00">Identify_Neighbours</text>
<text text-anchor="middle" x="336.25" y="-9.12" font-family="Helvetica,sans-Serif" font-size="10.00">_For_Second_Gradients</text>
</a>
</g>
</g>
<!-- Node20&#45;&gt;Node21 -->
<g id="edge23_Node000020_Node000021" class="edge">
<title>Node20&#45;&gt;Node21</title>
<g id="a_edge23_Node000020_Node000021"><a xlink:title=" ">
<path fill="none" stroke="#63b8ff" d="M203.47,-77.82C214.82,-74.83 228.21,-70.73 239.75,-65.62 256.9,-58.05 259.06,-52.17 275.75,-43.62 278.79,-42.07 281.96,-40.52 285.17,-39.02"/>
<polygon fill="#63b8ff" stroke="#63b8ff" points="286.45,-42.28 294.12,-34.97 283.57,-35.9 286.45,-42.28"/>
</a>
</g>
</g>
<!-- Node22 -->
<g id="Node000022" class="node">
<title>Node22</title>
<g id="a_Node000022"><a xlink:href="../../d3/dd4/_gradients_8cpp_a841d8b51ae49ac6ee37c9246228c1f89.html#a841d8b51ae49ac6ee37c9246228c1f89" target="_top" xlink:title="Identifies the secondary neighbors of a given cell to evaluate second gradients.">
<polygon fill="white" stroke="#666666" points="535.38,-28.25 461.62,-28.25 461.62,-9 535.38,-9 535.38,-28.25"/>
<text text-anchor="middle" x="498.5" y="-14.75" font-family="Helvetica,sans-Serif" font-size="10.00">getNeighbour</text>
</a>
</g>
</g>
<!-- Node21&#45;&gt;Node22 -->
<g id="edge24_Node000021_Node000022" class="edge">
<title>Node21&#45;&gt;Node22</title>
<g id="a_edge24_Node000021_Node000022"><a xlink:title=" ">
<path fill="none" stroke="#63b8ff" d="M396.92,-18.62C414.56,-18.62 433.62,-18.62 450.36,-18.62"/>
<polygon fill="#63b8ff" stroke="#63b8ff" points="450.01,-22.13 460.01,-18.63 450.01,-15.13 450.01,-22.13"/>
</a>
</g>
</g>
</g>
</svg>
