<?xml version="1.0" encoding="UTF-8" standalone="no"?>
<!DOCTYPE svg PUBLIC "-//W3C//DTD SVG 1.1//EN"
 "http://www.w3.org/Graphics/SVG/1.1/DTD/svg11.dtd">
<!-- Generated by graphviz version 12.2.1 (20241206.2353)
 -->
<!-- Title: Apply_Turbulence_Limiters Pages: 1 -->
<svg width="321pt" height="76pt"
 viewBox="0.00 0.00 320.50 75.88" xmlns="http://www.w3.org/2000/svg" xmlns:xlink="http://www.w3.org/1999/xlink">
<g id="graph0" class="graph" transform="scale(1 1) rotate(0) translate(4 71.88)">
<title>Apply_Turbulence_Limiters</title>
<!-- Node1 -->
<g id="Node000001" class="node">
<title>Node1</title>
<g id="a_Node000001"><a xlink:title="Apply turbulence limiters to a specific cell.">
<polygon fill="#999999" stroke="#666666" points="133.75,-40.25 0,-40.25 0,-21 133.75,-21 133.75,-40.25"/>
<text text-anchor="middle" x="66.88" y="-26.75" font-family="Helvetica,sans-Serif" font-size="10.00">Apply_Turbulence_Limiters</text>
</a>
</g>
</g>
<!-- Node2 -->
<g id="Node000002" class="node">
<title>Node2</title>
<g id="a_Node000002"><a xlink:href="../../de/d84/_turbulence___models_8h_ac9e83f0a658348c10d15ca692f3eb8ed.html#ac9e83f0a658348c10d15ca692f3eb8ed" target="_top" xlink:title=" ">
<polygon fill="white" stroke="#666666" points="290.75,-67.88 191.5,-67.88 191.5,-37.38 290.75,-37.38 290.75,-67.88"/>
<text text-anchor="start" x="199.5" y="-54.38" font-family="Helvetica,sans-Serif" font-size="10.00">Apply_Realizability</text>
<text text-anchor="middle" x="241.12" y="-43.12" font-family="Helvetica,sans-Serif" font-size="10.00">_Constraints</text>
</a>
</g>
</g>
<!-- Node1&#45;&gt;Node2 -->
<g id="edge1_Node000001_Node000002" class="edge">
<title>Node1&#45;&gt;Node2</title>
<g id="a_edge1_Node000001_Node000002"><a xlink:title=" ">
<path fill="none" stroke="#63b8ff" d="M133.98,-39.07C149.1,-41 165.09,-43.04 179.95,-44.94"/>
<polygon fill="#63b8ff" stroke="#63b8ff" points="179.19,-48.37 189.55,-46.17 180.08,-41.43 179.19,-48.37"/>
</a>
</g>
</g>
<!-- Node3 -->
<g id="Node000003" class="node">
<title>Node3</title>
<g id="a_Node000003"><a xlink:href="../../da/d71/_k___epsilon___model_8cpp_ab6081c548f15e5cff5f3a7f797726bd0.html#ab6081c548f15e5cff5f3a7f797726bd0" target="_top" xlink:title="Calculate laminar viscosity for a given cell.">
<polygon fill="white" stroke="#666666" points="312.5,-19.25 169.75,-19.25 169.75,0 312.5,0 312.5,-19.25"/>
<text text-anchor="middle" x="241.12" y="-5.75" font-family="Helvetica,sans-Serif" font-size="10.00">Calculate_Laminar_Viscosity</text>
</a>
</g>
</g>
<!-- Node1&#45;&gt;Node3 -->
<g id="edge2_Node000001_Node000003" class="edge">
<title>Node1&#45;&gt;Node3</title>
<g id="a_edge2_Node000001_Node000003"><a xlink:title=" ">
<path fill="none" stroke="#63b8ff" d="M133.98,-22.57C141.85,-21.61 149.95,-20.62 158.01,-19.64"/>
<polygon fill="#63b8ff" stroke="#63b8ff" points="158.33,-23.12 167.83,-18.44 157.48,-16.17 158.33,-23.12"/>
</a>
</g>
</g>
</g>
</svg>
