<?xml version="1.0" encoding="UTF-8" standalone="no"?>
<!DOCTYPE svg PUBLIC "-//W3C//DTD SVG 1.1//EN"
 "http://www.w3.org/Graphics/SVG/1.1/DTD/svg11.dtd">
<!-- Generated by graphviz version 12.2.1 (20241206.2353)
 -->
<!-- Title: Calculate_Turbulence_Residuals Pages: 1 -->
<svg width="659pt" height="235pt"
 viewBox="0.00 0.00 659.25 234.50" xmlns="http://www.w3.org/2000/svg" xmlns:xlink="http://www.w3.org/1999/xlink">
<g id="graph0" class="graph" transform="scale(1 1) rotate(0) translate(4 230.5)">
<title>Calculate_Turbulence_Residuals</title>
<!-- Node1 -->
<g id="Node000001" class="node">
<title>Node1</title>
<g id="a_Node000001"><a xlink:title="Calculate residuals for turbulence equations.">
<polygon fill="#999999" stroke="#666666" points="110.5,-177.5 0,-177.5 0,-147 110.5,-147 110.5,-177.5"/>
<text text-anchor="start" x="8" y="-164" font-family="Helvetica,sans-Serif" font-size="10.00">Calculate_Turbulence</text>
<text text-anchor="middle" x="55.25" y="-152.75" font-family="Helvetica,sans-Serif" font-size="10.00">_Residuals</text>
</a>
</g>
</g>
<!-- Node2 -->
<g id="Node000002" class="node">
<title>Node2</title>
<g id="a_Node000002"><a xlink:href="../../da/d71/_k___epsilon___model_8cpp_a060ba71014f359eed6b56cd31d1bf823.html#a060ba71014f359eed6b56cd31d1bf823" target="_top" xlink:title="Calculate production terms for K&#45;epsilon model.">
<polygon fill="white" stroke="#666666" points="273.5,-177.5 172,-177.5 172,-147 273.5,-147 273.5,-177.5"/>
<text text-anchor="start" x="180" y="-164" font-family="Helvetica,sans-Serif" font-size="10.00">Calculate_KEpsilon</text>
<text text-anchor="middle" x="222.75" y="-152.75" font-family="Helvetica,sans-Serif" font-size="10.00">_Production_Terms</text>
</a>
</g>
</g>
<!-- Node1&#45;&gt;Node2 -->
<g id="edge1_Node000001_Node000002" class="edge">
<title>Node1&#45;&gt;Node2</title>
<g id="a_edge1_Node000001_Node000002"><a xlink:title=" ">
<path fill="none" stroke="#63b8ff" d="M110.9,-162.25C126.81,-162.25 144.3,-162.25 160.58,-162.25"/>
<polygon fill="#63b8ff" stroke="#63b8ff" points="160.12,-165.75 170.12,-162.25 160.12,-158.75 160.12,-165.75"/>
</a>
</g>
</g>
<!-- Node5 -->
<g id="Node000005" class="node">
<title>Node5</title>
<g id="a_Node000005"><a xlink:href="../../da/db6/_k___omega___model_8cpp_ae8168a064ecd59992699f3ec3ae57837.html#ae8168a064ecd59992699f3ec3ae57837" target="_top" xlink:title="Calculate production terms for K&#45;omega model.">
<polygon fill="white" stroke="#666666" points="299,-226.5 146.5,-226.5 146.5,-196 299,-196 299,-226.5"/>
<text text-anchor="start" x="154.5" y="-213" font-family="Helvetica,sans-Serif" font-size="10.00">Calculate_KOmega_Production</text>
<text text-anchor="middle" x="222.75" y="-201.75" font-family="Helvetica,sans-Serif" font-size="10.00">_Terms</text>
</a>
</g>
</g>
<!-- Node1&#45;&gt;Node5 -->
<g id="edge4_Node000001_Node000005" class="edge">
<title>Node1&#45;&gt;Node5</title>
<g id="a_edge4_Node000001_Node000005"><a xlink:title=" ">
<path fill="none" stroke="#63b8ff" d="M109.07,-177.89C124.52,-182.46 141.58,-187.51 157.65,-192.27"/>
<polygon fill="#63b8ff" stroke="#63b8ff" points="156.55,-195.6 167.13,-195.08 158.53,-188.88 156.55,-195.6"/>
</a>
</g>
</g>
<!-- Node6 -->
<g id="Node000006" class="node">
<title>Node6</title>
<g id="a_Node000006"><a xlink:href="../../d4/df3/_turbulence___integration_8cpp_aa80303a9b8e99702a12486f321f7021d.html#aa80303a9b8e99702a12486f321f7021d" target="_top" xlink:title="Calculate turbulence residual for a specific cell.">
<polygon fill="white" stroke="#666666" points="278,-128.5 167.5,-128.5 167.5,-98 278,-98 278,-128.5"/>
<text text-anchor="start" x="175.5" y="-115" font-family="Helvetica,sans-Serif" font-size="10.00">Calculate_Turbulence</text>
<text text-anchor="middle" x="222.75" y="-103.75" font-family="Helvetica,sans-Serif" font-size="10.00">_Cell_Residual</text>
</a>
</g>
</g>
<!-- Node1&#45;&gt;Node6 -->
<g id="edge6_Node000001_Node000006" class="edge">
<title>Node1&#45;&gt;Node6</title>
<g id="a_edge6_Node000001_Node000006"><a xlink:title=" ">
<path fill="none" stroke="#63b8ff" d="M109.07,-146.61C124.52,-142.04 141.58,-136.99 157.65,-132.23"/>
<polygon fill="#63b8ff" stroke="#63b8ff" points="158.53,-135.62 167.13,-129.42 156.55,-128.9 158.53,-135.62"/>
</a>
</g>
</g>
<!-- Node3 -->
<g id="Node000003" class="node">
<title>Node3</title>
<g id="a_Node000003"><a xlink:href="../../d5/d65/_turbulence___models_8cpp_abcf5967a793b905ba24e0b6f02859f52.html#abcf5967a793b905ba24e0b6f02859f52" target="_top" xlink:title="Calculate strain rate tensor for a given cell.">
<polygon fill="white" stroke="#666666" points="460.88,-226.5 346.62,-226.5 346.62,-196 460.88,-196 460.88,-226.5"/>
<text text-anchor="start" x="354.62" y="-213" font-family="Helvetica,sans-Serif" font-size="10.00">Calculate_Strain_Rate</text>
<text text-anchor="middle" x="403.75" y="-201.75" font-family="Helvetica,sans-Serif" font-size="10.00">_Tensor</text>
</a>
</g>
</g>
<!-- Node2&#45;&gt;Node3 -->
<g id="edge2_Node000002_Node000003" class="edge">
<title>Node2&#45;&gt;Node3</title>
<g id="a_edge2_Node000002_Node000003"><a xlink:title=" ">
<path fill="none" stroke="#63b8ff" d="M273.61,-175.9C292.73,-181.13 314.87,-187.19 335.36,-192.8"/>
<polygon fill="#63b8ff" stroke="#63b8ff" points="334.19,-196.11 344.76,-195.37 336.04,-189.36 334.19,-196.11"/>
</a>
</g>
</g>
<!-- Node4 -->
<g id="Node000004" class="node">
<title>Node4</title>
<g id="a_Node000004"><a xlink:href="../../d5/db2/class_vector_a2ce47a84fc19c32a26ada5a3379c3f0a.html#a2ce47a84fc19c32a26ada5a3379c3f0a" target="_top" xlink:title=" ">
<polygon fill="white" stroke="#666666" points="640.75,-220.88 519,-220.88 519,-201.62 640.75,-201.62 640.75,-220.88"/>
<text text-anchor="middle" x="579.88" y="-207.38" font-family="Helvetica,sans-Serif" font-size="10.00">Vector::Get_Component</text>
</a>
</g>
</g>
<!-- Node3&#45;&gt;Node4 -->
<g id="edge3_Node000003_Node000004" class="edge">
<title>Node3&#45;&gt;Node4</title>
<g id="a_edge3_Node000003_Node000004"><a xlink:title=" ">
<path fill="none" stroke="#63b8ff" d="M461.28,-211.25C476.07,-211.25 492.19,-211.25 507.63,-211.25"/>
<polygon fill="#63b8ff" stroke="#63b8ff" points="507.21,-214.75 517.21,-211.25 507.21,-207.75 507.21,-214.75"/>
</a>
</g>
</g>
<!-- Node5&#45;&gt;Node3 -->
<g id="edge5_Node000005_Node000003" class="edge">
<title>Node5&#45;&gt;Node3</title>
<g id="a_edge5_Node000005_Node000003"><a xlink:title=" ">
<path fill="none" stroke="#63b8ff" d="M299.4,-211.25C311.21,-211.25 323.35,-211.25 334.97,-211.25"/>
<polygon fill="#63b8ff" stroke="#63b8ff" points="334.87,-214.75 344.87,-211.25 334.87,-207.75 334.87,-214.75"/>
</a>
</g>
</g>
<!-- Node7 -->
<g id="Node000007" class="node">
<title>Node7</title>
<g id="a_Node000007"><a xlink:href="../../da/d71/_k___epsilon___model_8cpp_a7fea9b36aaadf3917421ff4041b0e1b5.html#a7fea9b36aaadf3917421ff4041b0e1b5" target="_top" xlink:title="Calculate diffusion term for epsilon&#45;equation.">
<polygon fill="white" stroke="#666666" points="454.5,-177.5 353,-177.5 353,-147 454.5,-147 454.5,-177.5"/>
<text text-anchor="start" x="361" y="-164" font-family="Helvetica,sans-Serif" font-size="10.00">Calculate_KEpsilon</text>
<text text-anchor="middle" x="403.75" y="-152.75" font-family="Helvetica,sans-Serif" font-size="10.00">_Epsilon_Diffusion</text>
</a>
</g>
</g>
<!-- Node6&#45;&gt;Node7 -->
<g id="edge7_Node000006_Node000007" class="edge">
<title>Node6&#45;&gt;Node7</title>
<g id="a_edge7_Node000006_Node000007"><a xlink:title=" ">
<path fill="none" stroke="#63b8ff" d="M278.43,-128.22C298.47,-133.7 321.28,-139.95 341.84,-145.58"/>
<polygon fill="#63b8ff" stroke="#63b8ff" points="340.64,-148.88 351.21,-148.14 342.49,-142.13 340.64,-148.88"/>
</a>
</g>
</g>
<!-- Node10 -->
<g id="Node000010" class="node">
<title>Node10</title>
<g id="a_Node000010"><a xlink:href="../../da/d71/_k___epsilon___model_8cpp_afed3511ea4aaccb84fe33c49449a57db.html#afed3511ea4aaccb84fe33c49449a57db" target="_top" xlink:title="Calculate diffusion term for k&#45;equation.">
<polygon fill="white" stroke="#666666" points="454.5,-128.5 353,-128.5 353,-98 454.5,-98 454.5,-128.5"/>
<text text-anchor="start" x="361" y="-115" font-family="Helvetica,sans-Serif" font-size="10.00">Calculate_KEpsilon</text>
<text text-anchor="middle" x="403.75" y="-103.75" font-family="Helvetica,sans-Serif" font-size="10.00">_K_Diffusion</text>
</a>
</g>
</g>
<!-- Node6&#45;&gt;Node10 -->
<g id="edge10_Node000006_Node000010" class="edge">
<title>Node6&#45;&gt;Node10</title>
<g id="a_edge10_Node000006_Node000010"><a xlink:title=" ">
<path fill="none" stroke="#63b8ff" d="M278.43,-113.25C298.29,-113.25 320.86,-113.25 341.27,-113.25"/>
<polygon fill="#63b8ff" stroke="#63b8ff" points="341.16,-116.75 351.16,-113.25 341.16,-109.75 341.16,-116.75"/>
</a>
</g>
</g>
<!-- Node11 -->
<g id="Node000011" class="node">
<title>Node11</title>
<g id="a_Node000011"><a xlink:href="../../da/db6/_k___omega___model_8cpp_ada45c714007d81d87408aa5ca76a59c4.html#ada45c714007d81d87408aa5ca76a59c4" target="_top" xlink:title="Calculate diffusion term for k&#45;equation in K&#45;omega model.">
<polygon fill="white" stroke="#666666" points="460.12,-79.5 347.38,-79.5 347.38,-49 460.12,-49 460.12,-79.5"/>
<text text-anchor="start" x="355.38" y="-66" font-family="Helvetica,sans-Serif" font-size="10.00">Calculate_KOmega_K</text>
<text text-anchor="middle" x="403.75" y="-54.75" font-family="Helvetica,sans-Serif" font-size="10.00">_Diffusion</text>
</a>
</g>
</g>
<!-- Node6&#45;&gt;Node11 -->
<g id="edge13_Node000006_Node000011" class="edge">
<title>Node6&#45;&gt;Node11</title>
<g id="a_edge13_Node000006_Node000011"><a xlink:title=" ">
<path fill="none" stroke="#63b8ff" d="M278.43,-98.28C296.65,-93.29 317.15,-87.68 336.17,-82.48"/>
<polygon fill="#63b8ff" stroke="#63b8ff" points="336.99,-85.88 345.71,-79.86 335.14,-79.13 336.99,-85.88"/>
</a>
</g>
</g>
<!-- Node12 -->
<g id="Node000012" class="node">
<title>Node12</title>
<g id="a_Node000012"><a xlink:href="../../da/db6/_k___omega___model_8cpp_a69824aec41cff7c97f057bbb477ecf59.html#a69824aec41cff7c97f057bbb477ecf59" target="_top" xlink:title="Calculate diffusion term for omega&#45;equation in K&#45;omega model.">
<polygon fill="white" stroke="#666666" points="472.5,-30.5 335,-30.5 335,0 472.5,0 472.5,-30.5"/>
<text text-anchor="start" x="343" y="-17" font-family="Helvetica,sans-Serif" font-size="10.00">Calculate_KOmega_Omega</text>
<text text-anchor="middle" x="403.75" y="-5.75" font-family="Helvetica,sans-Serif" font-size="10.00">_Diffusion</text>
</a>
</g>
</g>
<!-- Node6&#45;&gt;Node12 -->
<g id="edge16_Node000006_Node000012" class="edge">
<title>Node6&#45;&gt;Node12</title>
<g id="a_edge16_Node000006_Node000012"><a xlink:title=" ">
<path fill="none" stroke="#63b8ff" d="M244.22,-97.77C265.91,-81.86 301.59,-57.1 335,-40.25 338.41,-38.53 341.96,-36.87 345.58,-35.27"/>
<polygon fill="#63b8ff" stroke="#63b8ff" points="346.6,-38.64 354.47,-31.55 343.9,-32.18 346.6,-38.64"/>
</a>
</g>
</g>
<!-- Node8 -->
<g id="Node000008" class="node">
<title>Node8</title>
<g id="a_Node000008"><a xlink:href="../../da/d71/_k___epsilon___model_8cpp_a28fb4717a48a0d6aa546eca5701feebf.html#a28fb4717a48a0d6aa546eca5701feebf" target="_top" xlink:title="Calculate distance between two cell centers.">
<polygon fill="white" stroke="#666666" points="641.88,-76.88 517.88,-76.88 517.88,-57.62 641.88,-57.62 641.88,-76.88"/>
<text text-anchor="middle" x="579.88" y="-63.38" font-family="Helvetica,sans-Serif" font-size="10.00">Calculate_Cell_Distance</text>
</a>
</g>
</g>
<!-- Node7&#45;&gt;Node8 -->
<g id="edge8_Node000007_Node000008" class="edge">
<title>Node7&#45;&gt;Node8</title>
<g id="a_edge8_Node000007_Node000008"><a xlink:title=" ">
<path fill="none" stroke="#63b8ff" d="M454.98,-147.56C461.18,-144.66 467.19,-141.25 472.5,-137.25 494.09,-121 486.41,-103.81 508.5,-88.25 511.93,-85.83 515.65,-83.69 519.52,-81.79"/>
<polygon fill="#63b8ff" stroke="#63b8ff" points="520.8,-85.05 528.63,-77.9 518.06,-78.61 520.8,-85.05"/>
</a>
</g>
</g>
<!-- Node9 -->
<g id="Node000009" class="node">
<title>Node9</title>
<g id="a_Node000009"><a xlink:href="../../da/d71/_k___epsilon___model_8cpp_ab6081c548f15e5cff5f3a7f797726bd0.html#ab6081c548f15e5cff5f3a7f797726bd0" target="_top" xlink:title="Calculate laminar viscosity for a given cell.">
<polygon fill="white" stroke="#666666" points="651.25,-116.88 508.5,-116.88 508.5,-97.62 651.25,-97.62 651.25,-116.88"/>
<text text-anchor="middle" x="579.88" y="-103.38" font-family="Helvetica,sans-Serif" font-size="10.00">Calculate_Laminar_Viscosity</text>
</a>
</g>
</g>
<!-- Node7&#45;&gt;Node9 -->
<g id="edge9_Node000007_Node000009" class="edge">
<title>Node7&#45;&gt;Node9</title>
<g id="a_edge9_Node000007_Node000009"><a xlink:title=" ">
<path fill="none" stroke="#63b8ff" d="M454.18,-146.64C479.99,-138.48 511.26,-128.61 536.03,-120.78"/>
<polygon fill="#63b8ff" stroke="#63b8ff" points="536.99,-124.15 545.47,-117.8 534.88,-117.48 536.99,-124.15"/>
</a>
</g>
</g>
<!-- Node10&#45;&gt;Node8 -->
<g id="edge11_Node000010_Node000008" class="edge">
<title>Node10&#45;&gt;Node8</title>
<g id="a_edge11_Node000010_Node000008"><a xlink:title=" ">
<path fill="none" stroke="#63b8ff" d="M454.65,-100.07C478.14,-93.86 506.07,-86.48 529.5,-80.29"/>
<polygon fill="#63b8ff" stroke="#63b8ff" points="530.36,-83.69 539.13,-77.75 528.57,-76.92 530.36,-83.69"/>
</a>
</g>
</g>
<!-- Node10&#45;&gt;Node9 -->
<g id="edge12_Node000010_Node000009" class="edge">
<title>Node10&#45;&gt;Node9</title>
<g id="a_edge12_Node000010_Node000009"><a xlink:title=" ">
<path fill="none" stroke="#63b8ff" d="M454.65,-111.53C467.81,-111.08 482.37,-110.58 496.75,-110.08"/>
<polygon fill="#63b8ff" stroke="#63b8ff" points="496.82,-113.58 506.7,-109.74 496.58,-106.58 496.82,-113.58"/>
</a>
</g>
</g>
<!-- Node11&#45;&gt;Node8 -->
<g id="edge14_Node000011_Node000008" class="edge">
<title>Node11&#45;&gt;Node8</title>
<g id="a_edge14_Node000011_Node000008"><a xlink:title=" ">
<path fill="none" stroke="#63b8ff" d="M460.32,-65.21C474.98,-65.46 491.01,-65.74 506.42,-66"/>
<polygon fill="#63b8ff" stroke="#63b8ff" points="505.92,-69.49 515.98,-66.17 506.04,-62.49 505.92,-69.49"/>
</a>
</g>
</g>
<!-- Node11&#45;&gt;Node9 -->
<g id="edge15_Node000011_Node000009" class="edge">
<title>Node11&#45;&gt;Node9</title>
<g id="a_edge15_Node000011_Node000009"><a xlink:title=" ">
<path fill="none" stroke="#63b8ff" d="M460.32,-77.97C481.67,-83.24 505.93,-89.24 526.92,-94.42"/>
<polygon fill="#63b8ff" stroke="#63b8ff" points="525.87,-97.77 536.42,-96.77 527.55,-90.97 525.87,-97.77"/>
</a>
</g>
</g>
<!-- Node12&#45;&gt;Node8 -->
<g id="edge17_Node000012_Node000008" class="edge">
<title>Node12&#45;&gt;Node8</title>
<g id="a_edge17_Node000012_Node000008"><a xlink:title=" ">
<path fill="none" stroke="#63b8ff" d="M457.47,-30.99C481.9,-38.29 510.62,-46.87 534,-53.85"/>
<polygon fill="#63b8ff" stroke="#63b8ff" points="532.97,-57.19 543.55,-56.7 534.97,-50.49 532.97,-57.19"/>
</a>
</g>
</g>
<!-- Node12&#45;&gt;Node9 -->
<g id="edge18_Node000012_Node000009" class="edge">
<title>Node12&#45;&gt;Node9</title>
<g id="a_edge18_Node000012_Node000009"><a xlink:title=" ">
<path fill="none" stroke="#63b8ff" d="M456.62,-30.92C462.22,-33.61 467.64,-36.7 472.5,-40.25 493.48,-55.55 487.05,-71.63 508.5,-86.25 512.13,-88.72 516.06,-90.91 520.14,-92.85"/>
<polygon fill="#63b8ff" stroke="#63b8ff" points="518.53,-95.97 529.11,-96.57 521.21,-89.51 518.53,-95.97"/>
</a>
</g>
</g>
</g>
</svg>
