<?xml version="1.0" encoding="UTF-8" standalone="no"?>
<!DOCTYPE svg PUBLIC "-//W3C//DTD SVG 1.1//EN"
 "http://www.w3.org/Graphics/SVG/1.1/DTD/svg11.dtd">
<!-- Generated by graphviz version 12.2.1 (20241206.2353)
 -->
<!-- Title: Update_Turbulence_Variables_RK4 Pages: 1 -->
<svg width="1046pt" height="211pt"
 viewBox="0.00 0.00 1046.00 210.50" xmlns="http://www.w3.org/2000/svg" xmlns:xlink="http://www.w3.org/1999/xlink">
<g id="graph0" class="graph" transform="scale(1 1) rotate(0) translate(4 206.5)">
<title>Update_Turbulence_Variables_RK4</title>
<!-- Node1 -->
<g id="Node000001" class="node">
<title>Node1</title>
<g id="a_Node000001"><a xlink:title="Update turbulence variables using RK4 method.">
<polygon fill="#999999" stroke="#666666" points="170.5,-88.88 0,-88.88 0,-69.62 170.5,-69.62 170.5,-88.88"/>
<text text-anchor="middle" x="85.25" y="-75.38" font-family="Helvetica,sans-Serif" font-size="10.00">Update_Turbulence_Variables_RK4</text>
</a>
</g>
</g>
<!-- Node2 -->
<g id="Node000002" class="node">
<title>Node2</title>
<g id="a_Node000002"><a xlink:href="../../da/d71/_k___epsilon___model_8cpp_a80bd2fbc9eee5585491d30c17bd73b77.html#a80bd2fbc9eee5585491d30c17bd73b77" target="_top" xlink:title="Calculate turbulent viscosity using K&#45;epsilon model.">
<polygon fill="white" stroke="#666666" points="333.5,-70.5 226,-70.5 226,-40 333.5,-40 333.5,-70.5"/>
<text text-anchor="start" x="234" y="-57" font-family="Helvetica,sans-Serif" font-size="10.00">Calculate_KEpsilon</text>
<text text-anchor="middle" x="279.75" y="-45.75" font-family="Helvetica,sans-Serif" font-size="10.00">_Turbulent_Viscosity</text>
</a>
</g>
</g>
<!-- Node1&#45;&gt;Node2 -->
<g id="edge1_Node000001_Node000002" class="edge">
<title>Node1&#45;&gt;Node2</title>
<g id="a_edge1_Node000001_Node000002"><a xlink:title=" ">
<path fill="none" stroke="#63b8ff" d="M167.33,-69.14C183.05,-67.18 199.33,-65.15 214.42,-63.27"/>
<polygon fill="#63b8ff" stroke="#63b8ff" points="214.71,-66.76 224.2,-62.05 213.84,-59.82 214.71,-66.76"/>
</a>
</g>
</g>
<!-- Node7 -->
<g id="Node000007" class="node">
<title>Node7</title>
<g id="a_Node000007"><a xlink:href="../../da/db6/_k___omega___model_8cpp_acbb6eb3b6b7d60663920ef36f7442e10.html#acbb6eb3b6b7d60663920ef36f7442e10" target="_top" xlink:title="Calculate turbulent viscosity using K&#45;omega model.">
<polygon fill="white" stroke="#666666" points="353,-119.5 206.5,-119.5 206.5,-89 353,-89 353,-119.5"/>
<text text-anchor="start" x="214.5" y="-106" font-family="Helvetica,sans-Serif" font-size="10.00">Calculate_KOmega_Turbulent</text>
<text text-anchor="middle" x="279.75" y="-94.75" font-family="Helvetica,sans-Serif" font-size="10.00">_Viscosity</text>
</a>
</g>
</g>
<!-- Node1&#45;&gt;Node7 -->
<g id="edge6_Node000001_Node000007" class="edge">
<title>Node1&#45;&gt;Node7</title>
<g id="a_edge6_Node000001_Node000007"><a xlink:title=" ">
<path fill="none" stroke="#63b8ff" d="M163.99,-89.35C174.08,-90.66 184.44,-92 194.62,-93.32"/>
<polygon fill="#63b8ff" stroke="#63b8ff" points="194.15,-96.79 204.51,-94.61 195.05,-89.85 194.15,-96.79"/>
</a>
</g>
</g>
<!-- Node3 -->
<g id="Node000003" class="node">
<title>Node3</title>
<g id="a_Node000003"><a xlink:href="../../da/d71/_k___epsilon___model_8cpp_ab6081c548f15e5cff5f3a7f797726bd0.html#ab6081c548f15e5cff5f3a7f797726bd0" target="_top" xlink:title="Calculate laminar viscosity for a given cell.">
<polygon fill="white" stroke="#666666" points="869.75,-153.88 727,-153.88 727,-134.62 869.75,-134.62 869.75,-153.88"/>
<text text-anchor="middle" x="798.38" y="-140.38" font-family="Helvetica,sans-Serif" font-size="10.00">Calculate_Laminar_Viscosity</text>
</a>
</g>
</g>
<!-- Node2&#45;&gt;Node3 -->
<g id="edge2_Node000002_Node000003" class="edge">
<title>Node2&#45;&gt;Node3</title>
<g id="a_edge2_Node000002_Node000003"><a xlink:title=" ">
<path fill="none" stroke="#63b8ff" d="M333.74,-49.76C413.4,-43.35 567.8,-38.08 691,-77.25 723.89,-87.71 756.73,-110.81 777.04,-126.94"/>
<polygon fill="#63b8ff" stroke="#63b8ff" points="774.82,-129.65 784.77,-133.26 779.24,-124.22 774.82,-129.65"/>
</a>
</g>
</g>
<!-- Node4 -->
<g id="Node000004" class="node">
<title>Node4</title>
<g id="a_Node000004"><a xlink:href="../../da/d71/_k___epsilon___model_8cpp_a4ac5abbc0be034b167174ed0e6ea5814.html#a4ac5abbc0be034b167174ed0e6ea5814" target="_top" xlink:title="Calculate strain rate magnitude for a given cell.">
<polygon fill="white" stroke="#666666" points="516.75,-30.5 402.5,-30.5 402.5,0 516.75,0 516.75,-30.5"/>
<text text-anchor="start" x="410.5" y="-17" font-family="Helvetica,sans-Serif" font-size="10.00">Calculate_Strain_Rate</text>
<text text-anchor="middle" x="459.62" y="-5.75" font-family="Helvetica,sans-Serif" font-size="10.00">_Magnitude</text>
</a>
</g>
</g>
<!-- Node2&#45;&gt;Node4 -->
<g id="edge3_Node000002_Node000004" class="edge">
<title>Node2&#45;&gt;Node4</title>
<g id="a_edge3_Node000002_Node000004"><a xlink:title=" ">
<path fill="none" stroke="#63b8ff" d="M333.64,-43.36C351.7,-39.3 372.15,-34.7 391.2,-30.41"/>
<polygon fill="#63b8ff" stroke="#63b8ff" points="391.76,-33.87 400.75,-28.26 390.23,-27.04 391.76,-33.87"/>
</a>
</g>
</g>
<!-- Node5 -->
<g id="Node000005" class="node">
<title>Node5</title>
<g id="a_Node000005"><a xlink:href="../../d5/d65/_turbulence___models_8cpp_abcf5967a793b905ba24e0b6f02859f52.html#abcf5967a793b905ba24e0b6f02859f52" target="_top" xlink:title="Calculate strain rate tensor for a given cell.">
<polygon fill="white" stroke="#666666" points="685.75,-30.5 571.5,-30.5 571.5,0 685.75,0 685.75,-30.5"/>
<text text-anchor="start" x="579.5" y="-17" font-family="Helvetica,sans-Serif" font-size="10.00">Calculate_Strain_Rate</text>
<text text-anchor="middle" x="628.62" y="-5.75" font-family="Helvetica,sans-Serif" font-size="10.00">_Tensor</text>
</a>
</g>
</g>
<!-- Node4&#45;&gt;Node5 -->
<g id="edge4_Node000004_Node000005" class="edge">
<title>Node4&#45;&gt;Node5</title>
<g id="a_edge4_Node000004_Node000005"><a xlink:title=" ">
<path fill="none" stroke="#63b8ff" d="M517.16,-15.25C530.9,-15.25 545.73,-15.25 559.93,-15.25"/>
<polygon fill="#63b8ff" stroke="#63b8ff" points="559.63,-18.75 569.63,-15.25 559.63,-11.75 559.63,-18.75"/>
</a>
</g>
</g>
<!-- Node6 -->
<g id="Node000006" class="node">
<title>Node6</title>
<g id="a_Node000006"><a xlink:href="../../d5/db2/class_vector_a2ce47a84fc19c32a26ada5a3379c3f0a.html#a2ce47a84fc19c32a26ada5a3379c3f0a" target="_top" xlink:title=" ">
<polygon fill="white" stroke="#666666" points="859.25,-67.88 737.5,-67.88 737.5,-48.62 859.25,-48.62 859.25,-67.88"/>
<text text-anchor="middle" x="798.38" y="-54.38" font-family="Helvetica,sans-Serif" font-size="10.00">Vector::Get_Component</text>
</a>
</g>
</g>
<!-- Node5&#45;&gt;Node6 -->
<g id="edge5_Node000005_Node000006" class="edge">
<title>Node5&#45;&gt;Node6</title>
<g id="a_edge5_Node000005_Node000006"><a xlink:title=" ">
<path fill="none" stroke="#63b8ff" d="M685.95,-29.69C705.68,-34.75 727.7,-40.39 746.92,-45.32"/>
<polygon fill="#63b8ff" stroke="#63b8ff" points="745.86,-48.66 756.41,-47.75 747.6,-41.88 745.86,-48.66"/>
</a>
</g>
</g>
<!-- Node7&#45;&gt;Node3 -->
<g id="edge7_Node000007_Node000003" class="edge">
<title>Node7&#45;&gt;Node3</title>
<g id="a_edge7_Node000007_Node000003"><a xlink:title=" ">
<path fill="none" stroke="#63b8ff" d="M353.31,-119.83C365.19,-121.94 377.4,-123.86 389,-125.25 501.57,-138.72 632.66,-142.77 715.32,-143.92"/>
<polygon fill="#63b8ff" stroke="#63b8ff" points="715.1,-147.42 725.15,-144.05 715.19,-140.42 715.1,-147.42"/>
</a>
</g>
</g>
<!-- Node7&#45;&gt;Node4 -->
<g id="edge13_Node000007_Node000004" class="edge">
<title>Node7&#45;&gt;Node4</title>
<g id="a_edge13_Node000007_Node000004"><a xlink:title=" ">
<path fill="none" stroke="#63b8ff" d="M330.66,-88.53C338.25,-85.7 345.91,-82.58 353,-79.25 378.69,-67.19 406.04,-50.5 426.48,-37.18"/>
<polygon fill="#63b8ff" stroke="#63b8ff" points="428.24,-40.21 434.65,-31.78 424.38,-34.37 428.24,-40.21"/>
</a>
</g>
</g>
<!-- Node8 -->
<g id="Node000008" class="node">
<title>Node8</title>
<g id="a_Node000008"><a xlink:href="../../da/db6/_k___omega___model_8cpp_a133b20f2fbde5fe32f3bf8da3734a3df.html#a133b20f2fbde5fe32f3bf8da3734a3df" target="_top" xlink:title="Calculate F2 blending function for SST turbulent viscosity.">
<polygon fill="white" stroke="#666666" points="530.25,-193.88 389,-193.88 389,-174.62 530.25,-174.62 530.25,-193.88"/>
<text text-anchor="middle" x="459.62" y="-180.38" font-family="Helvetica,sans-Serif" font-size="10.00">Calculate_SST_F2_Function</text>
</a>
</g>
</g>
<!-- Node7&#45;&gt;Node8 -->
<g id="edge8_Node000007_Node000008" class="edge">
<title>Node7&#45;&gt;Node8</title>
<g id="a_edge8_Node000007_Node000008"><a xlink:title=" ">
<path fill="none" stroke="#63b8ff" d="M309.76,-119.76C331.33,-131.05 361.65,-146.36 389,-158.25 398.54,-162.4 408.98,-166.51 418.81,-170.2"/>
<polygon fill="#63b8ff" stroke="#63b8ff" points="417.55,-173.47 428.14,-173.65 419.97,-166.9 417.55,-173.47"/>
</a>
</g>
</g>
<!-- Node12 -->
<g id="Node000012" class="node">
<title>Node12</title>
<g id="a_Node000012"><a xlink:href="../../da/db6/_k___omega___model_8cpp_af1e41ac929a629cbe45c3c594b4f972e.html#af1e41ac929a629cbe45c3c594b4f972e" target="_top" xlink:title="Calculate vorticity magnitude for SST model.">
<polygon fill="white" stroke="#666666" points="508.88,-116.5 410.38,-116.5 410.38,-86 508.88,-86 508.88,-116.5"/>
<text text-anchor="start" x="418.38" y="-103" font-family="Helvetica,sans-Serif" font-size="10.00">Calculate_Vorticity</text>
<text text-anchor="middle" x="459.62" y="-91.75" font-family="Helvetica,sans-Serif" font-size="10.00">_Magnitude</text>
</a>
</g>
</g>
<!-- Node7&#45;&gt;Node12 -->
<g id="edge14_Node000007_Node000012" class="edge">
<title>Node7&#45;&gt;Node12</title>
<g id="a_edge14_Node000007_Node000012"><a xlink:title=" ">
<path fill="none" stroke="#63b8ff" d="M353.36,-103.03C368.44,-102.77 384.17,-102.51 398.74,-102.26"/>
<polygon fill="#63b8ff" stroke="#63b8ff" points="398.68,-105.76 408.62,-102.09 398.56,-98.76 398.68,-105.76"/>
</a>
</g>
</g>
<!-- Node9 -->
<g id="Node000009" class="node">
<title>Node9</title>
<g id="a_Node000009"><a xlink:href="../../da/db6/_k___omega___model_8cpp_a31b6758cb80b88340974998c3c5361e2.html#a31b6758cb80b88340974998c3c5361e2" target="_top" xlink:title="Calculate SST blending functions F1 and F2.">
<polygon fill="white" stroke="#666666" points="691,-202.5 566.25,-202.5 566.25,-172 691,-172 691,-202.5"/>
<text text-anchor="start" x="574.25" y="-189" font-family="Helvetica,sans-Serif" font-size="10.00">Calculate_SST_Blending</text>
<text text-anchor="middle" x="628.62" y="-177.75" font-family="Helvetica,sans-Serif" font-size="10.00">_Functions</text>
</a>
</g>
</g>
<!-- Node8&#45;&gt;Node9 -->
<g id="edge9_Node000008_Node000009" class="edge">
<title>Node8&#45;&gt;Node9</title>
<g id="a_edge9_Node000008_Node000009"><a xlink:title=" ">
<path fill="none" stroke="#63b8ff" d="M530.48,-185.5C538.35,-185.65 546.38,-185.79 554.29,-185.93"/>
<polygon fill="#63b8ff" stroke="#63b8ff" points="554.18,-189.43 564.24,-186.11 554.31,-182.43 554.18,-189.43"/>
</a>
</g>
</g>
<!-- Node9&#45;&gt;Node3 -->
<g id="edge10_Node000009_Node000003" class="edge">
<title>Node9&#45;&gt;Node3</title>
<g id="a_edge10_Node000009_Node000003"><a xlink:title=" ">
<path fill="none" stroke="#63b8ff" d="M690.66,-171.6C709.19,-166.85 729.33,-161.69 747.07,-157.14"/>
<polygon fill="#63b8ff" stroke="#63b8ff" points="747.77,-160.58 756.59,-154.7 746.04,-153.8 747.77,-160.58"/>
</a>
</g>
</g>
<!-- Node10 -->
<g id="Node000010" class="node">
<title>Node10</title>
<g id="a_Node000010"><a xlink:href="../../da/db6/_k___omega___model_8cpp_a7fa3fb752505082634dc5acc883aa464.html#a7fa3fb752505082634dc5acc883aa464" target="_top" xlink:title="Calculate cross&#45;diffusion term for SST model.">
<polygon fill="white" stroke="#666666" points="855.12,-202.5 741.62,-202.5 741.62,-172 855.12,-172 855.12,-202.5"/>
<text text-anchor="start" x="749.62" y="-189" font-family="Helvetica,sans-Serif" font-size="10.00">Calculate_SST_Cross</text>
<text text-anchor="middle" x="798.38" y="-177.75" font-family="Helvetica,sans-Serif" font-size="10.00">_Diffusion</text>
</a>
</g>
</g>
<!-- Node9&#45;&gt;Node10 -->
<g id="edge11_Node000009_Node000010" class="edge">
<title>Node9&#45;&gt;Node10</title>
<g id="a_edge11_Node000009_Node000010"><a xlink:title=" ">
<path fill="none" stroke="#63b8ff" d="M691.14,-187.25C703.66,-187.25 716.91,-187.25 729.64,-187.25"/>
<polygon fill="#63b8ff" stroke="#63b8ff" points="729.64,-190.75 739.64,-187.25 729.64,-183.75 729.64,-190.75"/>
</a>
</g>
</g>
<!-- Node11 -->
<g id="Node000011" class="node">
<title>Node11</title>
<g id="a_Node000011"><a xlink:href="../../da/db6/_k___omega___model_8cpp_a7584c2aad761764bf65ccb3e3839a480.html#a7584c2aad761764bf65ccb3e3839a480" target="_top" xlink:title="Calculate scalar gradient for a given variable.">
<polygon fill="white" stroke="#666666" points="1038,-196.88 905.75,-196.88 905.75,-177.62 1038,-177.62 1038,-196.88"/>
<text text-anchor="middle" x="971.88" y="-183.38" font-family="Helvetica,sans-Serif" font-size="10.00">Calculate_Scalar_Gradient</text>
</a>
</g>
</g>
<!-- Node10&#45;&gt;Node11 -->
<g id="edge12_Node000010_Node000011" class="edge">
<title>Node10&#45;&gt;Node11</title>
<g id="a_edge12_Node000010_Node000011"><a xlink:title=" ">
<path fill="none" stroke="#63b8ff" d="M855.53,-187.25C867.85,-187.25 881.09,-187.25 894.06,-187.25"/>
<polygon fill="#63b8ff" stroke="#63b8ff" points="893.84,-190.75 903.84,-187.25 893.84,-183.75 893.84,-190.75"/>
</a>
</g>
</g>
<!-- Node13 -->
<g id="Node000013" class="node">
<title>Node13</title>
<g id="a_Node000013"><a xlink:href="../../d5/d65/_turbulence___models_8cpp_a7682b4426768f92eca578dc8f7c68db3.html#a7682b4426768f92eca578dc8f7c68db3" target="_top" xlink:title="Calculate vorticity tensor for a given cell.">
<polygon fill="white" stroke="#666666" points="677.88,-116.5 579.38,-116.5 579.38,-86 677.88,-86 677.88,-116.5"/>
<text text-anchor="start" x="587.38" y="-103" font-family="Helvetica,sans-Serif" font-size="10.00">Calculate_Vorticity</text>
<text text-anchor="middle" x="628.62" y="-91.75" font-family="Helvetica,sans-Serif" font-size="10.00">_Tensor</text>
</a>
</g>
</g>
<!-- Node12&#45;&gt;Node13 -->
<g id="edge15_Node000012_Node000013" class="edge">
<title>Node12&#45;&gt;Node13</title>
<g id="a_edge15_Node000012_Node000013"><a xlink:title=" ">
<path fill="none" stroke="#63b8ff" d="M508.93,-101.25C527.28,-101.25 548.41,-101.25 567.71,-101.25"/>
<polygon fill="#63b8ff" stroke="#63b8ff" points="567.63,-104.75 577.63,-101.25 567.63,-97.75 567.63,-104.75"/>
</a>
</g>
</g>
<!-- Node13&#45;&gt;Node6 -->
<g id="edge16_Node000013_Node000006" class="edge">
<title>Node13&#45;&gt;Node6</title>
<g id="a_edge16_Node000013_Node000006"><a xlink:title=" ">
<path fill="none" stroke="#63b8ff" d="M678.15,-88.81C699.73,-83.28 725.15,-76.76 746.95,-71.17"/>
<polygon fill="#63b8ff" stroke="#63b8ff" points="747.7,-74.6 756.52,-68.72 745.97,-67.81 747.7,-74.6"/>
</a>
</g>
</g>
</g>
</svg>
