<?xml version="1.0" encoding="UTF-8" standalone="no"?>
<!DOCTYPE svg PUBLIC "-//W3C//DTD SVG 1.1//EN"
 "http://www.w3.org/Graphics/SVG/1.1/DTD/svg11.dtd">
<!-- Generated by graphviz version 12.2.1 (20241206.2353)
 -->
<!-- Title: Calculate_Turbulence_Error Pages: 1 -->
<svg width="461pt" height="52pt"
 viewBox="0.00 0.00 461.00 51.88" xmlns="http://www.w3.org/2000/svg" xmlns:xlink="http://www.w3.org/1999/xlink">
<g id="graph0" class="graph" transform="scale(1 1) rotate(0) translate(4 47.88)">
<title>Calculate_Turbulence_Error</title>
<!-- Node1 -->
<g id="Node000001" class="node">
<title>Node1</title>
<g id="a_Node000001"><a xlink:title="Calculate error for turbulence variables.">
<polygon fill="#999999" stroke="#666666" points="453,-30.5 342.5,-30.5 342.5,0 453,0 453,-30.5"/>
<text text-anchor="start" x="350.5" y="-17" font-family="Helvetica,sans-Serif" font-size="10.00">Calculate_Turbulence</text>
<text text-anchor="middle" x="397.75" y="-5.75" font-family="Helvetica,sans-Serif" font-size="10.00">_Error</text>
</a>
</g>
</g>
<!-- Node2 -->
<g id="Node000002" class="node">
<title>Node2</title>
<g id="a_Node000002"><a xlink:href="../../d4/df3/_turbulence___integration_8cpp_aa0b42c59575aa26a0f0a2e2be1c85a60.html#aa0b42c59575aa26a0f0a2e2be1c85a60" target="_top" xlink:title="Check if turbulence equations have converged.">
<polygon fill="white" stroke="#666666" points="306.5,-43.88 145.75,-43.88 145.75,-24.62 306.5,-24.62 306.5,-43.88"/>
<text text-anchor="middle" x="226.12" y="-30.38" font-family="Helvetica,sans-Serif" font-size="10.00">Check_Turbulence_Convergence</text>
</a>
</g>
</g>
<!-- Node1&#45;&gt;Node2 -->
<g id="edge1_Node000001_Node000002" class="edge">
<title>Node1&#45;&gt;Node2</title>
<g id="a_edge1_Node000001_Node000002"><a xlink:title=" ">
<path fill="none" stroke="#63b8ff" d="M330.86,-22.63C323.02,-23.51 314.95,-24.41 306.95,-25.31"/>
<polygon fill="#63b8ff" stroke="#63b8ff" points="331.09,-26.13 340.64,-21.53 330.31,-19.17 331.09,-26.13"/>
</a>
</g>
</g>
<!-- Node3 -->
<g id="Node000003" class="node">
<title>Node3</title>
<g id="a_Node000003"><a xlink:href="../../d4/df3/_turbulence___integration_8cpp_a564537a29550f0d8ec11e8ef76cd2b3a.html#a564537a29550f0d8ec11e8ef76cd2b3a" target="_top" xlink:title="Modified viscous solver with turbulence model integration.">
<polygon fill="white" stroke="#666666" points="109.75,-30.5 0,-30.5 0,0 109.75,0 109.75,-30.5"/>
<text text-anchor="start" x="8" y="-17" font-family="Helvetica,sans-Serif" font-size="10.00">Viscous_Solver_With</text>
<text text-anchor="middle" x="54.88" y="-5.75" font-family="Helvetica,sans-Serif" font-size="10.00">_Turbulence</text>
</a>
</g>
</g>
<!-- Node1&#45;&gt;Node3 -->
<g id="edge3_Node000001_Node000003" class="edge">
<title>Node1&#45;&gt;Node3</title>
<g id="a_edge3_Node000001_Node000003"><a xlink:title=" ">
<path fill="none" stroke="#63b8ff" d="M331.15,-15.25C266.89,-15.25 170.1,-15.25 110.07,-15.25"/>
<polygon fill="#63b8ff" stroke="#63b8ff" points="330.85,-18.75 340.85,-15.25 330.85,-11.75 330.85,-18.75"/>
</a>
</g>
</g>
<!-- Node2&#45;&gt;Node3 -->
<g id="edge2_Node000002_Node000003" class="edge">
<title>Node2&#45;&gt;Node3</title>
<g id="a_edge2_Node000002_Node000003"><a xlink:title=" ">
<path fill="none" stroke="#63b8ff" d="M134.19,-24.04C125.95,-23.12 117.78,-22.2 110.02,-21.33"/>
<polygon fill="#63b8ff" stroke="#63b8ff" points="133.62,-27.5 143.95,-25.14 134.4,-20.54 133.62,-27.5"/>
</a>
</g>
</g>
</g>
</svg>
