<?xml version="1.0" encoding="UTF-8" standalone="no"?>
<!DOCTYPE svg PUBLIC "-//W3C//DTD SVG 1.1//EN"
 "http://www.w3.org/Graphics/SVG/1.1/DTD/svg11.dtd">
<!-- Generated by graphviz version 12.2.1 (20241206.2353)
 -->
<!-- Title: Incompressible_Solver/BQP&#45;Incompressible_CFD_Solver/Source.cpp Pages: 1 -->
<svg width="183pt" height="105pt"
 viewBox="0.00 0.00 183.25 105.00" xmlns="http://www.w3.org/2000/svg" xmlns:xlink="http://www.w3.org/1999/xlink">
<g id="graph0" class="graph" transform="scale(1 1) rotate(0) translate(4 101)">
<title>Incompressible_Solver/BQP&#45;Incompressible_CFD_Solver/Source.cpp</title>
<!-- Node1 -->
<g id="Node000001" class="node">
<title>Node1</title>
<g id="a_Node000001"><a xlink:title=" ">
<polygon fill="#999999" stroke="#666666" points="160.38,-97 25.12,-97 25.12,-55.25 160.38,-55.25 160.38,-97"/>
<text text-anchor="start" x="33.12" y="-83.5" font-family="Helvetica,sans-Serif" font-size="10.00">Incompressible_Solver</text>
<text text-anchor="start" x="33.12" y="-72.25" font-family="Helvetica,sans-Serif" font-size="10.00">/BQP&#45;Incompressible_CFD</text>
<text text-anchor="middle" x="92.75" y="-61" font-family="Helvetica,sans-Serif" font-size="10.00">_Solver/Source.cpp</text>
</a>
</g>
</g>
<!-- Node2 -->
<g id="Node000002" class="node">
<title>Node2</title>
<g id="a_Node000002"><a xlink:title=" ">
<polygon fill="#e0e0e0" stroke="#999999" points="53.5,-19.25 0,-19.25 0,0 53.5,0 53.5,-19.25"/>
<text text-anchor="middle" x="26.75" y="-5.75" font-family="Helvetica,sans-Serif" font-size="10.00">iostream</text>
</a>
</g>
</g>
<!-- Node1&#45;&gt;Node2 -->
<g id="edge1_Node000001_Node000002" class="edge">
<title>Node1&#45;&gt;Node2</title>
<g id="a_edge1_Node000001_Node000002"><a xlink:title=" ">
<path fill="none" stroke="#63b8ff" d="M72.23,-55.07C63.24,-46.29 52.81,-36.09 44.2,-27.68"/>
<polygon fill="#63b8ff" stroke="#63b8ff" points="46.71,-25.24 37.11,-20.75 41.82,-30.25 46.71,-25.24"/>
</a>
</g>
</g>
<!-- Node3 -->
<g id="Node000003" class="node">
<title>Node3</title>
<g id="a_Node000003"><a xlink:title=" ">
<polygon fill="#e0e0e0" stroke="#999999" points="114.25,-19.25 71.25,-19.25 71.25,0 114.25,0 114.25,-19.25"/>
<text text-anchor="middle" x="92.75" y="-5.75" font-family="Helvetica,sans-Serif" font-size="10.00">cmath</text>
</a>
</g>
</g>
<!-- Node1&#45;&gt;Node3 -->
<g id="edge2_Node000001_Node000003" class="edge">
<title>Node1&#45;&gt;Node3</title>
<g id="a_edge2_Node000001_Node000003"><a xlink:title=" ">
<path fill="none" stroke="#63b8ff" d="M92.75,-55.07C92.75,-47.4 92.75,-38.64 92.75,-30.95"/>
<polygon fill="#63b8ff" stroke="#63b8ff" points="96.25,-31.21 92.75,-21.21 89.25,-31.21 96.25,-31.21"/>
</a>
</g>
</g>
<!-- Node4 -->
<g id="Node000004" class="node">
<title>Node4</title>
<g id="a_Node000004"><a xlink:title=" ">
<polygon fill="#e0e0e0" stroke="#999999" points="175.25,-19.25 132.25,-19.25 132.25,0 175.25,0 175.25,-19.25"/>
<text text-anchor="middle" x="153.75" y="-5.75" font-family="Helvetica,sans-Serif" font-size="10.00">omp.h</text>
</a>
</g>
</g>
<!-- Node1&#45;&gt;Node4 -->
<g id="edge3_Node000001_Node000004" class="edge">
<title>Node1&#45;&gt;Node4</title>
<g id="a_edge3_Node000001_Node000004"><a xlink:title=" ">
<path fill="none" stroke="#63b8ff" d="M111.72,-55.07C119.94,-46.38 129.46,-36.3 137.37,-27.94"/>
<polygon fill="#63b8ff" stroke="#63b8ff" points="139.8,-30.47 144.13,-20.8 134.72,-25.66 139.8,-30.47"/>
</a>
</g>
</g>
</g>
</svg>
