<?xml version="1.0" encoding="UTF-8" standalone="no"?>
<!DOCTYPE svg PUBLIC "-//W3C//DTD SVG 1.1//EN"
 "http://www.w3.org/Graphics/SVG/1.1/DTD/svg11.dtd">
<!-- Generated by graphviz version 12.2.1 (20241206.2353)
 -->
<!-- Title: Incompressible_Solver/Incompressible_Main.cpp Pages: 1 -->
<svg width="1443pt" height="204pt"
 viewBox="0.00 0.00 1443.38 204.25" xmlns="http://www.w3.org/2000/svg" xmlns:xlink="http://www.w3.org/1999/xlink">
<g id="graph0" class="graph" transform="scale(1 1) rotate(0) translate(4 200.25)">
<title>Incompressible_Solver/Incompressible_Main.cpp</title>
<!-- Node1 -->
<g id="Node000001" class="node">
<title>Node1</title>
<g id="a_Node000001"><a xlink:title="Main driver program for the incompressible flow solver.">
<polygon fill="#999999" stroke="#666666" points="845.75,-196.25 715.75,-196.25 715.75,-165.75 845.75,-165.75 845.75,-196.25"/>
<text text-anchor="start" x="723.75" y="-182.75" font-family="Helvetica,sans-Serif" font-size="10.00">Incompressible_Solver</text>
<text text-anchor="middle" x="780.75" y="-171.5" font-family="Helvetica,sans-Serif" font-size="10.00">/Incompressible_Main.cpp</text>
</a>
</g>
</g>
<!-- Node2 -->
<g id="Node000002" class="node">
<title>Node2</title>
<g id="a_Node000002"><a xlink:href="../../d0/d9b/_incompressible___solver_8h.html" target="_top" xlink:title="Header file for cell&#45;centered staggered grid based incompressible solver using finite volume method.">
<polygon fill="white" stroke="#666666" points="792,-129.75 669.5,-129.75 669.5,-110.5 792,-110.5 792,-129.75"/>
<text text-anchor="middle" x="730.75" y="-116.25" font-family="Helvetica,sans-Serif" font-size="10.00">Incompressible_Solver.h</text>
</a>
</g>
</g>
<!-- Node1&#45;&gt;Node2 -->
<g id="edge1_Node000001_Node000002" class="edge">
<title>Node1&#45;&gt;Node2</title>
<g id="a_edge1_Node000001_Node000002"><a xlink:title=" ">
<path fill="none" stroke="#63b8ff" d="M768.39,-165.45C761.58,-157.43 753.08,-147.42 745.88,-138.94"/>
<polygon fill="#63b8ff" stroke="#63b8ff" points="748.58,-136.71 739.44,-131.35 743.24,-141.24 748.58,-136.71"/>
</a>
</g>
</g>
<!-- Node4 -->
<g id="Node000004" class="node">
<title>Node4</title>
<g id="a_Node000004"><a xlink:title=" ">
<polygon fill="#e0e0e0" stroke="#999999" points="53.5,-19.25 0,-19.25 0,0 53.5,0 53.5,-19.25"/>
<text text-anchor="middle" x="26.75" y="-5.75" font-family="Helvetica,sans-Serif" font-size="10.00">iostream</text>
</a>
</g>
</g>
<!-- Node1&#45;&gt;Node4 -->
<g id="edge27_Node000001_Node000004" class="edge">
<title>Node1&#45;&gt;Node4</title>
<g id="a_edge27_Node000001_Node000004"><a xlink:title=" ">
<path fill="none" stroke="#63b8ff" d="M715.63,-165.86C623.43,-145.8 449.62,-107.8 301.75,-74.5 198.51,-51.25 170.09,-45.03 64.98,-20"/>
<polygon fill="#63b8ff" stroke="#63b8ff" points="65.88,-16.62 55.35,-17.7 64.26,-23.43 65.88,-16.62"/>
</a>
</g>
</g>
<!-- Node7 -->
<g id="Node000007" class="node">
<title>Node7</title>
<g id="a_Node000007"><a xlink:title=" ">
<polygon fill="#e0e0e0" stroke="#999999" points="1371.75,-19.25 1331.75,-19.25 1331.75,0 1371.75,0 1371.75,-19.25"/>
<text text-anchor="middle" x="1351.75" y="-5.75" font-family="Helvetica,sans-Serif" font-size="10.00">string</text>
</a>
</g>
</g>
<!-- Node1&#45;&gt;Node7 -->
<g id="edge28_Node000001_Node000007" class="edge">
<title>Node1&#45;&gt;Node7</title>
<g id="a_edge28_Node000001_Node000007"><a xlink:title=" ">
<path fill="none" stroke="#63b8ff" d="M830.45,-165.27C924.06,-137.53 1133.23,-75.53 1320.58,-19.89"/>
<polygon fill="#63b8ff" stroke="#63b8ff" points="1321.43,-23.29 1330.02,-17.09 1319.44,-16.58 1321.43,-23.29"/>
</a>
</g>
</g>
<!-- Node14 -->
<g id="Node000014" class="node">
<title>Node14</title>
<g id="a_Node000014"><a xlink:title=" ">
<polygon fill="#e0e0e0" stroke="#999999" points="1435.38,-19.25 1390.12,-19.25 1390.12,0 1435.38,0 1435.38,-19.25"/>
<text text-anchor="middle" x="1412.75" y="-5.75" font-family="Helvetica,sans-Serif" font-size="10.00">chrono</text>
</a>
</g>
</g>
<!-- Node1&#45;&gt;Node14 -->
<g id="edge29_Node000001_Node000014" class="edge">
<title>Node1&#45;&gt;Node14</title>
<g id="a_edge29_Node000001_Node000014"><a xlink:title=" ">
<path fill="none" stroke="#63b8ff" d="M846.03,-165.51C888.52,-155.87 945.07,-142.65 994.75,-129.75 1138.31,-92.46 1307.84,-42.21 1378.83,-20.88"/>
<polygon fill="#63b8ff" stroke="#63b8ff" points="1379.73,-24.26 1388.29,-18.03 1377.71,-17.56 1379.73,-24.26"/>
</a>
</g>
</g>
<!-- Node3 -->
<g id="Node000003" class="node">
<title>Node3</title>
<g id="a_Node000003"><a xlink:href="../../d6/dc2/definitions_8h.html" target="_top" xlink:title="Header file containing global constants, structures, and function declarations for the solver.">
<polygon fill="white" stroke="#666666" points="765,-74.5 696.5,-74.5 696.5,-55.25 765,-55.25 765,-74.5"/>
<text text-anchor="middle" x="730.75" y="-61" font-family="Helvetica,sans-Serif" font-size="10.00">definitions.h</text>
</a>
</g>
</g>
<!-- Node2&#45;&gt;Node3 -->
<g id="edge2_Node000002_Node000003" class="edge">
<title>Node2&#45;&gt;Node3</title>
<g id="a_edge2_Node000002_Node000003"><a xlink:title=" ">
<path fill="none" stroke="#63b8ff" d="M730.75,-110.33C730.75,-103.82 730.75,-94.67 730.75,-86.37"/>
<polygon fill="#63b8ff" stroke="#63b8ff" points="734.25,-86.37 730.75,-76.37 727.25,-86.37 734.25,-86.37"/>
</a>
</g>
</g>
<!-- Node6 -->
<g id="Node000006" class="node">
<title>Node6</title>
<g id="a_Node000006"><a xlink:title=" ">
<polygon fill="#e0e0e0" stroke="#999999" points="114.25,-19.25 71.25,-19.25 71.25,0 114.25,0 114.25,-19.25"/>
<text text-anchor="middle" x="92.75" y="-5.75" font-family="Helvetica,sans-Serif" font-size="10.00">vector</text>
</a>
</g>
</g>
<!-- Node2&#45;&gt;Node6 -->
<g id="edge24_Node000002_Node000006" class="edge">
<title>Node2&#45;&gt;Node6</title>
<g id="a_edge24_Node000002_Node000006"><a xlink:title=" ">
<path fill="none" stroke="#63b8ff" d="M669.02,-111.42C560.64,-97.36 329.07,-64.96 125.82,-19.74"/>
<polygon fill="#63b8ff" stroke="#63b8ff" points="126.63,-16.34 116.11,-17.57 125.1,-23.17 126.63,-16.34"/>
</a>
</g>
</g>
<!-- Node2&#45;&gt;Node7 -->
<g id="edge25_Node000002_Node000007" class="edge">
<title>Node2&#45;&gt;Node7</title>
<g id="a_edge25_Node000002_Node000007"><a xlink:title=" ">
<path fill="none" stroke="#63b8ff" d="M792.17,-111.28C898.24,-97.18 1122.59,-64.96 1320.36,-19.56"/>
<polygon fill="#63b8ff" stroke="#63b8ff" points="1321.12,-22.98 1330.08,-17.32 1319.55,-16.16 1321.12,-22.98"/>
</a>
</g>
</g>
<!-- Node25 -->
<g id="Node000025" class="node">
<title>Node25</title>
<g id="a_Node000025"><a xlink:title=" ">
<polygon fill="#e0e0e0" stroke="#999999" points="678.38,-74.5 627.12,-74.5 627.12,-55.25 678.38,-55.25 678.38,-74.5"/>
<text text-anchor="middle" x="652.75" y="-61" font-family="Helvetica,sans-Serif" font-size="10.00">memory</text>
</a>
</g>
</g>
<!-- Node2&#45;&gt;Node25 -->
<g id="edge26_Node000002_Node000025" class="edge">
<title>Node2&#45;&gt;Node25</title>
<g id="a_edge26_Node000002_Node000025"><a xlink:title=" ">
<path fill="none" stroke="#63b8ff" d="M717.52,-110.09C705.98,-102.21 688.98,-90.61 675.3,-81.27"/>
<polygon fill="#63b8ff" stroke="#63b8ff" points="677.53,-78.55 667.3,-75.81 673.58,-84.33 677.53,-78.55"/>
</a>
</g>
</g>
<!-- Node3&#45;&gt;Node4 -->
<g id="edge3_Node000003_Node000004" class="edge">
<title>Node3&#45;&gt;Node4</title>
<g id="a_edge3_Node000003_Node000004"><a xlink:title=" ">
<path fill="none" stroke="#63b8ff" d="M696.09,-56.49C693.27,-56.02 690.47,-55.6 687.75,-55.25 414.98,-20.23 339.31,-59.7 64.89,-19.46"/>
<polygon fill="#63b8ff" stroke="#63b8ff" points="65.69,-16.04 55.28,-18.03 64.66,-22.97 65.69,-16.04"/>
</a>
</g>
</g>
<!-- Node5 -->
<g id="Node000005" class="node">
<title>Node5</title>
<g id="a_Node000005"><a xlink:title=" ">
<polygon fill="#e0e0e0" stroke="#999999" points="332.25,-19.25 283.25,-19.25 283.25,0 332.25,0 332.25,-19.25"/>
<text text-anchor="middle" x="307.75" y="-5.75" font-family="Helvetica,sans-Serif" font-size="10.00">fstream</text>
</a>
</g>
</g>
<!-- Node3&#45;&gt;Node5 -->
<g id="edge4_Node000003_Node000005" class="edge">
<title>Node3&#45;&gt;Node5</title>
<g id="a_edge4_Node000003_Node000005"><a xlink:title=" ">
<path fill="none" stroke="#63b8ff" d="M696.07,-56.63C693.26,-56.13 690.46,-55.66 687.75,-55.25 538.05,-32.52 495.3,-46.25 343.64,-19.53"/>
<polygon fill="#63b8ff" stroke="#63b8ff" points="344.48,-16.12 334.02,-17.8 343.24,-23.01 344.48,-16.12"/>
</a>
</g>
</g>
<!-- Node3&#45;&gt;Node6 -->
<g id="edge5_Node000003_Node000006" class="edge">
<title>Node3&#45;&gt;Node6</title>
<g id="a_edge5_Node000003_Node000006"><a xlink:title=" ">
<path fill="none" stroke="#63b8ff" d="M696.08,-56.51C693.27,-56.03 690.47,-55.61 687.75,-55.25 441.93,-22.91 372.69,-61.11 125.71,-19.41"/>
<polygon fill="#63b8ff" stroke="#63b8ff" points="126.52,-15.99 116.07,-17.75 125.33,-22.89 126.52,-15.99"/>
</a>
</g>
</g>
<!-- Node3&#45;&gt;Node7 -->
<g id="edge6_Node000003_Node000007" class="edge">
<title>Node3&#45;&gt;Node7</title>
<g id="a_edge6_Node000003_Node000007"><a xlink:title=" ">
<path fill="none" stroke="#63b8ff" d="M765.45,-63.84C855.66,-63.19 1104.97,-57.94 1320.1,-19.34"/>
<polygon fill="#63b8ff" stroke="#63b8ff" points="1320.59,-22.81 1329.8,-17.57 1319.33,-15.93 1320.59,-22.81"/>
</a>
</g>
</g>
<!-- Node8 -->
<g id="Node000008" class="node">
<title>Node8</title>
<g id="a_Node000008"><a xlink:title=" ">
<polygon fill="#e0e0e0" stroke="#999999" points="393.25,-19.25 350.25,-19.25 350.25,0 393.25,0 393.25,-19.25"/>
<text text-anchor="middle" x="371.75" y="-5.75" font-family="Helvetica,sans-Serif" font-size="10.00">cmath</text>
</a>
</g>
</g>
<!-- Node3&#45;&gt;Node8 -->
<g id="edge7_Node000003_Node000008" class="edge">
<title>Node3&#45;&gt;Node8</title>
<g id="a_edge7_Node000003_Node000008"><a xlink:title=" ">
<path fill="none" stroke="#63b8ff" d="M696.06,-56.69C693.25,-56.18 690.46,-55.69 687.75,-55.25 565.31,-35.26 529.91,-43.9 404.84,-19.38"/>
<polygon fill="#63b8ff" stroke="#63b8ff" points="405.65,-15.97 395.15,-17.45 404.28,-22.84 405.65,-15.97"/>
</a>
</g>
</g>
<!-- Node9 -->
<g id="Node000009" class="node">
<title>Node9</title>
<g id="a_Node000009"><a xlink:title=" ">
<polygon fill="#e0e0e0" stroke="#999999" points="462,-19.25 411.5,-19.25 411.5,0 462,0 462,-19.25"/>
<text text-anchor="middle" x="436.75" y="-5.75" font-family="Helvetica,sans-Serif" font-size="10.00">typeinfo</text>
</a>
</g>
</g>
<!-- Node3&#45;&gt;Node9 -->
<g id="edge8_Node000003_Node000009" class="edge">
<title>Node3&#45;&gt;Node9</title>
<g id="a_edge8_Node000003_Node000009"><a xlink:title=" ">
<path fill="none" stroke="#63b8ff" d="M696.04,-56.81C693.23,-56.27 690.45,-55.74 687.75,-55.25 595.06,-38.27 568.35,-39.19 473.3,-19.64"/>
<polygon fill="#63b8ff" stroke="#63b8ff" points="474.3,-16.28 463.8,-17.66 472.87,-23.13 474.3,-16.28"/>
</a>
</g>
</g>
<!-- Node10 -->
<g id="Node000010" class="node">
<title>Node10</title>
<g id="a_Node000010"><a xlink:title=" ">
<polygon fill="#e0e0e0" stroke="#999999" points="529.62,-19.25 479.88,-19.25 479.88,0 529.62,0 529.62,-19.25"/>
<text text-anchor="middle" x="504.75" y="-5.75" font-family="Helvetica,sans-Serif" font-size="10.00">iomanip</text>
</a>
</g>
</g>
<!-- Node3&#45;&gt;Node10 -->
<g id="edge9_Node000003_Node000010" class="edge">
<title>Node3&#45;&gt;Node10</title>
<g id="a_edge9_Node000003_Node000010"><a xlink:title=" ">
<path fill="none" stroke="#63b8ff" d="M696.02,-56.02C659.77,-47.78 601.02,-34.28 541.17,-19.8"/>
<polygon fill="#63b8ff" stroke="#63b8ff" points="542,-16.4 531.46,-17.44 540.35,-23.2 542,-16.4"/>
</a>
</g>
</g>
<!-- Node11 -->
<g id="Node000011" class="node">
<title>Node11</title>
<g id="a_Node000011"><a xlink:title=" ">
<polygon fill="#e0e0e0" stroke="#999999" points="589.88,-19.25 547.62,-19.25 547.62,0 589.88,0 589.88,-19.25"/>
<text text-anchor="middle" x="568.75" y="-5.75" font-family="Helvetica,sans-Serif" font-size="10.00">cstdio</text>
</a>
</g>
</g>
<!-- Node3&#45;&gt;Node11 -->
<g id="edge10_Node000003_Node000011" class="edge">
<title>Node3&#45;&gt;Node11</title>
<g id="a_edge10_Node000003_Node000011"><a xlink:title=" ">
<path fill="none" stroke="#63b8ff" d="M703.27,-54.84C674.93,-45.53 630.78,-31.01 600.85,-21.18"/>
<polygon fill="#63b8ff" stroke="#63b8ff" points="602.18,-17.93 591.58,-18.13 599.99,-24.58 602.18,-17.93"/>
</a>
</g>
</g>
<!-- Node12 -->
<g id="Node000012" class="node">
<title>Node12</title>
<g id="a_Node000012"><a xlink:title=" ">
<polygon fill="#e0e0e0" stroke="#999999" points="652,-19.25 607.5,-19.25 607.5,0 652,0 652,-19.25"/>
<text text-anchor="middle" x="629.75" y="-5.75" font-family="Helvetica,sans-Serif" font-size="10.00">cstdlib</text>
</a>
</g>
</g>
<!-- Node3&#45;&gt;Node12 -->
<g id="edge11_Node000003_Node000012" class="edge">
<title>Node3&#45;&gt;Node12</title>
<g id="a_edge11_Node000003_Node000012"><a xlink:title=" ">
<path fill="none" stroke="#63b8ff" d="M713.62,-54.84C698.09,-46.66 674.95,-34.46 656.91,-24.94"/>
<polygon fill="#63b8ff" stroke="#63b8ff" points="658.78,-21.98 648.31,-20.41 655.52,-28.17 658.78,-21.98"/>
</a>
</g>
</g>
<!-- Node13 -->
<g id="Node000013" class="node">
<title>Node13</title>
<g id="a_Node000013"><a xlink:title=" ">
<polygon fill="#e0e0e0" stroke="#999999" points="725.62,-19.25 669.88,-19.25 669.88,0 725.62,0 725.62,-19.25"/>
<text text-anchor="middle" x="697.75" y="-5.75" font-family="Helvetica,sans-Serif" font-size="10.00">algorithm</text>
</a>
</g>
</g>
<!-- Node3&#45;&gt;Node13 -->
<g id="edge12_Node000003_Node000013" class="edge">
<title>Node3&#45;&gt;Node13</title>
<g id="a_edge12_Node000003_Node000013"><a xlink:title=" ">
<path fill="none" stroke="#63b8ff" d="M725.3,-55.08C720.98,-48.11 714.79,-38.12 709.37,-29.37"/>
<polygon fill="#63b8ff" stroke="#63b8ff" points="712.36,-27.55 704.11,-20.9 706.41,-31.24 712.36,-27.55"/>
</a>
</g>
</g>
<!-- Node3&#45;&gt;Node14 -->
<g id="edge13_Node000003_Node000014" class="edge">
<title>Node3&#45;&gt;Node14</title>
<g id="a_edge13_Node000003_Node000014"><a xlink:title=" ">
<path fill="none" stroke="#63b8ff" d="M765.21,-63.86C861.11,-63.33 1139.28,-58.4 1378.78,-19.22"/>
<polygon fill="#63b8ff" stroke="#63b8ff" points="1379.01,-22.73 1388.3,-17.63 1377.86,-15.82 1379.01,-22.73"/>
</a>
</g>
</g>
<!-- Node15 -->
<g id="Node000015" class="node">
<title>Node15</title>
<g id="a_Node000015"><a xlink:title=" ">
<polygon fill="#e0e0e0" stroke="#999999" points="783.75,-19.25 743.75,-19.25 743.75,0 783.75,0 783.75,-19.25"/>
<text text-anchor="middle" x="763.75" y="-5.75" font-family="Helvetica,sans-Serif" font-size="10.00">cfloat</text>
</a>
</g>
</g>
<!-- Node3&#45;&gt;Node15 -->
<g id="edge14_Node000003_Node000015" class="edge">
<title>Node3&#45;&gt;Node15</title>
<g id="a_edge14_Node000003_Node000015"><a xlink:title=" ">
<path fill="none" stroke="#63b8ff" d="M736.2,-55.08C740.52,-48.11 746.71,-38.12 752.13,-29.37"/>
<polygon fill="#63b8ff" stroke="#63b8ff" points="755.09,-31.24 757.39,-20.9 749.14,-27.55 755.09,-31.24"/>
</a>
</g>
</g>
<!-- Node16 -->
<g id="Node000016" class="node">
<title>Node16</title>
<g id="a_Node000016"><a xlink:title=" ">
<polygon fill="#e0e0e0" stroke="#999999" points="863.25,-19.25 802.25,-19.25 802.25,0 863.25,0 863.25,-19.25"/>
<text text-anchor="middle" x="832.75" y="-5.75" font-family="Helvetica,sans-Serif" font-size="10.00">filesystem</text>
</a>
</g>
</g>
<!-- Node3&#45;&gt;Node16 -->
<g id="edge15_Node000003_Node000016" class="edge">
<title>Node3&#45;&gt;Node16</title>
<g id="a_edge15_Node000003_Node000016"><a xlink:title=" ">
<path fill="none" stroke="#63b8ff" d="M748.05,-54.84C763.73,-46.66 787.1,-34.46 805.33,-24.94"/>
<polygon fill="#63b8ff" stroke="#63b8ff" points="806.78,-28.13 814.02,-20.4 803.54,-21.93 806.78,-28.13"/>
</a>
</g>
</g>
<!-- Node17 -->
<g id="Node000017" class="node">
<title>Node17</title>
<g id="a_Node000017"><a xlink:title=" ">
<polygon fill="#e0e0e0" stroke="#999999" points="916.12,-19.25 881.38,-19.25 881.38,0 916.12,0 916.12,-19.25"/>
<text text-anchor="middle" x="898.75" y="-5.75" font-family="Helvetica,sans-Serif" font-size="10.00">map</text>
</a>
</g>
</g>
<!-- Node3&#45;&gt;Node17 -->
<g id="edge16_Node000003_Node000017" class="edge">
<title>Node3&#45;&gt;Node17</title>
<g id="a_edge16_Node000003_Node000017"><a xlink:title=" ">
<path fill="none" stroke="#63b8ff" d="M759.65,-54.75C785.99,-46.44 826.24,-33.71 870.11,-19.76"/>
<polygon fill="#63b8ff" stroke="#63b8ff" points="871.12,-23.12 879.59,-16.75 869,-16.45 871.12,-23.12"/>
</a>
</g>
</g>
<!-- Node18 -->
<g id="Node000018" class="node">
<title>Node18</title>
<g id="a_Node000018"><a xlink:title=" ">
<polygon fill="#e0e0e0" stroke="#999999" points="993.12,-19.25 934.38,-19.25 934.38,0 993.12,0 993.12,-19.25"/>
<text text-anchor="middle" x="963.75" y="-5.75" font-family="Helvetica,sans-Serif" font-size="10.00">stdexcept</text>
</a>
</g>
</g>
<!-- Node3&#45;&gt;Node18 -->
<g id="edge17_Node000003_Node000018" class="edge">
<title>Node3&#45;&gt;Node18</title>
<g id="a_edge17_Node000003_Node000018"><a xlink:title=" ">
<path fill="none" stroke="#63b8ff" d="M765.38,-55.96C807.48,-46.34 878.42,-30.13 923.08,-19.92"/>
<polygon fill="#63b8ff" stroke="#63b8ff" points="923.66,-23.38 932.63,-17.74 922.1,-16.55 923.66,-23.38"/>
</a>
</g>
</g>
<!-- Node19 -->
<g id="Node000019" class="node">
<title>Node19</title>
<g id="a_Node000019"><a xlink:title=" ">
<polygon fill="#e0e0e0" stroke="#999999" points="1062.38,-19.25 1011.12,-19.25 1011.12,0 1062.38,0 1062.38,-19.25"/>
<text text-anchor="middle" x="1036.75" y="-5.75" font-family="Helvetica,sans-Serif" font-size="10.00">sstream</text>
</a>
</g>
</g>
<!-- Node3&#45;&gt;Node19 -->
<g id="edge18_Node000003_Node000019" class="edge">
<title>Node3&#45;&gt;Node19</title>
<g id="a_edge18_Node000003_Node000019"><a xlink:title=" ">
<path fill="none" stroke="#63b8ff" d="M765.13,-59.1C814.68,-52.02 909.24,-37.8 999.54,-19.56"/>
<polygon fill="#63b8ff" stroke="#63b8ff" points="1000.23,-22.99 1009.32,-17.56 998.83,-16.13 1000.23,-22.99"/>
</a>
</g>
</g>
<!-- Node20 -->
<g id="Node000020" class="node">
<title>Node20</title>
<g id="a_Node000020"><a xlink:title=" ">
<polygon fill="#e0e0e0" stroke="#999999" points="1163.12,-19.25 1080.38,-19.25 1080.38,0 1163.12,0 1163.12,-19.25"/>
<text text-anchor="middle" x="1121.75" y="-5.75" font-family="Helvetica,sans-Serif" font-size="10.00">unordered_map</text>
</a>
</g>
</g>
<!-- Node3&#45;&gt;Node20 -->
<g id="edge19_Node000003_Node000020" class="edge">
<title>Node3&#45;&gt;Node20</title>
<g id="a_edge19_Node000003_Node000020"><a xlink:title=" ">
<path fill="none" stroke="#63b8ff" d="M765.18,-59.84C824.86,-52.74 951.64,-37.22 1068.73,-19.66"/>
<polygon fill="#63b8ff" stroke="#63b8ff" points="1069.17,-23.13 1078.53,-18.18 1068.12,-16.21 1069.17,-23.13"/>
</a>
</g>
</g>
<!-- Node21 -->
<g id="Node000021" class="node">
<title>Node21</title>
<g id="a_Node000021"><a xlink:title=" ">
<polygon fill="#e0e0e0" stroke="#999999" points="1258.5,-19.25 1181,-19.25 1181,0 1258.5,0 1258.5,-19.25"/>
<text text-anchor="middle" x="1219.75" y="-5.75" font-family="Helvetica,sans-Serif" font-size="10.00">unordered_set</text>
</a>
</g>
</g>
<!-- Node3&#45;&gt;Node21 -->
<g id="edge20_Node000003_Node000021" class="edge">
<title>Node3&#45;&gt;Node21</title>
<g id="a_edge20_Node000003_Node000021"><a xlink:title=" ">
<path fill="none" stroke="#63b8ff" d="M765.45,-61.28C838.28,-55.63 1012.62,-41.09 1169.49,-19.46"/>
<polygon fill="#63b8ff" stroke="#63b8ff" points="1169.84,-22.95 1179.26,-18.1 1168.87,-16.01 1169.84,-22.95"/>
</a>
</g>
</g>
<!-- Node22 -->
<g id="Node000022" class="node">
<title>Node22</title>
<g id="a_Node000022"><a xlink:title=" ">
<polygon fill="#e0e0e0" stroke="#999999" points="1313.25,-19.25 1276.25,-19.25 1276.25,0 1313.25,0 1313.25,-19.25"/>
<text text-anchor="middle" x="1294.75" y="-5.75" font-family="Helvetica,sans-Serif" font-size="10.00">tuple</text>
</a>
</g>
</g>
<!-- Node3&#45;&gt;Node22 -->
<g id="edge21_Node000003_Node000022" class="edge">
<title>Node3&#45;&gt;Node22</title>
<g id="a_edge21_Node000003_Node000022"><a xlink:title=" ">
<path fill="none" stroke="#63b8ff" d="M765.36,-63.7C849.63,-62.69 1072.1,-56.62 1264.82,-19.41"/>
<polygon fill="#63b8ff" stroke="#63b8ff" points="1265.39,-22.87 1274.52,-17.5 1264.04,-16 1265.39,-22.87"/>
</a>
</g>
</g>
<!-- Node23 -->
<g id="Node000023" class="node">
<title>Node23</title>
<g id="a_Node000023"><a xlink:title=" ">
<polygon fill="#e0e0e0" stroke="#999999" points="161.5,-19.25 132,-19.25 132,0 161.5,0 161.5,-19.25"/>
<text text-anchor="middle" x="146.75" y="-5.75" font-family="Helvetica,sans-Serif" font-size="10.00">set</text>
</a>
</g>
</g>
<!-- Node3&#45;&gt;Node23 -->
<g id="edge22_Node000003_Node000023" class="edge">
<title>Node3&#45;&gt;Node23</title>
<g id="a_edge22_Node000003_Node000023"><a xlink:title=" ">
<path fill="none" stroke="#63b8ff" d="M696.08,-56.52C693.27,-56.05 690.47,-55.62 687.75,-55.25 463.15,-25.03 398.24,-65.31 173,-19.09"/>
<polygon fill="#63b8ff" stroke="#63b8ff" points="173.79,-15.68 163.28,-17.06 172.36,-22.53 173.79,-15.68"/>
</a>
</g>
</g>
<!-- Node24 -->
<g id="Node000024" class="node">
<title>Node24</title>
<g id="a_Node000024"><a xlink:title=" ">
<polygon fill="#e0e0e0" stroke="#999999" points="265.62,-19.25 179.88,-19.25 179.88,0 265.62,0 265.62,-19.25"/>
<text text-anchor="middle" x="222.75" y="-5.75" font-family="Helvetica,sans-Serif" font-size="10.00">boost/regex.hpp</text>
</a>
</g>
</g>
<!-- Node3&#45;&gt;Node24 -->
<g id="edge23_Node000003_Node000024" class="edge">
<title>Node3&#45;&gt;Node24</title>
<g id="a_edge23_Node000003_Node000024"><a xlink:title=" ">
<path fill="none" stroke="#63b8ff" d="M696.07,-56.58C693.26,-56.09 690.46,-55.64 687.75,-55.25 508.58,-29.57 458.93,-42.14 277.41,-19.63"/>
<polygon fill="#63b8ff" stroke="#63b8ff" points="277.98,-16.17 267.62,-18.39 277.1,-23.12 277.98,-16.17"/>
</a>
</g>
</g>
</g>
</svg>
