<?xml version="1.0" encoding="UTF-8" standalone="no"?>
<!DOCTYPE svg PUBLIC "-//W3C//DTD SVG 1.1//EN"
 "http://www.w3.org/Graphics/SVG/1.1/DTD/svg11.dtd">
<!-- Generated by graphviz version 12.2.1 (20241206.2353)
 -->
<!-- Title: CUDA_KERNELS/Flux_Calculations_Cuda_Kernels.cu Pages: 1 -->
<svg width="187pt" height="94pt"
 viewBox="0.00 0.00 186.75 93.75" xmlns="http://www.w3.org/2000/svg" xmlns:xlink="http://www.w3.org/1999/xlink">
<g id="graph0" class="graph" transform="scale(1 1) rotate(0) translate(4 89.75)">
<title>CUDA_KERNELS/Flux_Calculations_Cuda_Kernels.cu</title>
<!-- Node1 -->
<g id="Node000001" class="node">
<title>Node1</title>
<g id="a_Node000001"><a xlink:title=" ">
<polygon fill="#999999" stroke="#666666" points="178.75,-85.75 0,-85.75 0,-55.25 178.75,-55.25 178.75,-85.75"/>
<text text-anchor="start" x="8" y="-72.25" font-family="Helvetica,sans-Serif" font-size="10.00">CUDA_KERNELS/Flux_Calculations</text>
<text text-anchor="middle" x="89.38" y="-61" font-family="Helvetica,sans-Serif" font-size="10.00">_Cuda_Kernels.cu</text>
</a>
</g>
</g>
<!-- Node2 -->
<g id="Node000002" class="node">
<title>Node2</title>
<g id="a_Node000002"><a xlink:title=" ">
<polygon fill="#e0e0e0" stroke="#999999" points="89.75,-19.25 7,-19.25 7,0 89.75,0 89.75,-19.25"/>
<text text-anchor="middle" x="48.38" y="-5.75" font-family="Helvetica,sans-Serif" font-size="10.00">cuda_runtime.h</text>
</a>
</g>
</g>
<!-- Node1&#45;&gt;Node2 -->
<g id="edge1_Node000001_Node000002" class="edge">
<title>Node1&#45;&gt;Node2</title>
<g id="a_edge1_Node000001_Node000002"><a xlink:title=" ">
<path fill="none" stroke="#63b8ff" d="M79.24,-54.95C73.78,-47.1 66.98,-37.35 61.16,-28.99"/>
<polygon fill="#63b8ff" stroke="#63b8ff" points="64.15,-27.15 55.56,-20.94 58.4,-31.15 64.15,-27.15"/>
</a>
</g>
</g>
<!-- Node3 -->
<g id="Node000003" class="node">
<title>Node3</title>
<g id="a_Node000003"><a xlink:title=" ">
<polygon fill="#e0e0e0" stroke="#999999" points="153.38,-19.25 107.38,-19.25 107.38,0 153.38,0 153.38,-19.25"/>
<text text-anchor="middle" x="130.38" y="-5.75" font-family="Helvetica,sans-Serif" font-size="10.00">math.h</text>
</a>
</g>
</g>
<!-- Node1&#45;&gt;Node3 -->
<g id="edge2_Node000001_Node000003" class="edge">
<title>Node1&#45;&gt;Node3</title>
<g id="a_edge2_Node000001_Node000003"><a xlink:title=" ">
<path fill="none" stroke="#63b8ff" d="M99.51,-54.95C104.97,-47.1 111.77,-37.35 117.59,-28.99"/>
<polygon fill="#63b8ff" stroke="#63b8ff" points="120.35,-31.15 123.19,-20.94 114.6,-27.15 120.35,-31.15"/>
</a>
</g>
</g>
</g>
</svg>
