<?xml version="1.0" encoding="UTF-8" standalone="no"?>
<!DOCTYPE svg PUBLIC "-//W3C//DTD SVG 1.1//EN"
 "http://www.w3.org/Graphics/SVG/1.1/DTD/svg11.dtd">
<!-- Generated by graphviz version 12.2.1 (20241206.2353)
 -->
<!-- Title: src/Main.cpp Pages: 1 -->
<svg width="1445pt" height="304pt"
 viewBox="0.00 0.00 1444.62 303.50" xmlns="http://www.w3.org/2000/svg" xmlns:xlink="http://www.w3.org/1999/xlink">
<g id="graph0" class="graph" transform="scale(1 1) rotate(0) translate(4 299.5)">
<title>src/Main.cpp</title>
<!-- Node1 -->
<g id="Node000001" class="node">
<title>Node1</title>
<g id="a_Node000001"><a xlink:title="Main entry point for the simulation program. Contains the main function and initialization routines....">
<polygon fill="#999999" stroke="#666666" points="587.88,-295.5 515.62,-295.5 515.62,-276.25 587.88,-276.25 587.88,-295.5"/>
<text text-anchor="middle" x="551.75" y="-282" font-family="Helvetica,sans-Serif" font-size="10.00">src/Main.cpp</text>
</a>
</g>
</g>
<!-- Node2 -->
<g id="Node000002" class="node">
<title>Node2</title>
<g id="a_Node000002"><a xlink:href="../../d6/dc2/definitions_8h.html" target="_top" xlink:title="Header file containing global constants, structures, and function declarations for the solver.">
<polygon fill="white" stroke="#666666" points="709,-74.5 640.5,-74.5 640.5,-55.25 709,-55.25 709,-74.5"/>
<text text-anchor="middle" x="674.75" y="-61" font-family="Helvetica,sans-Serif" font-size="10.00">definitions.h</text>
</a>
</g>
</g>
<!-- Node1&#45;&gt;Node2 -->
<g id="edge1_Node000001_Node000002" class="edge">
<title>Node1&#45;&gt;Node2</title>
<g id="a_edge1_Node000001_Node000002"><a xlink:title=" ">
<path fill="none" stroke="#63b8ff" d="M536.88,-275.82C507.27,-256.56 445.68,-209.72 468.75,-165.75 499.67,-106.81 578.28,-82.25 628.96,-72.3"/>
<polygon fill="#63b8ff" stroke="#63b8ff" points="629.57,-75.75 638.77,-70.51 628.31,-68.86 629.57,-75.75"/>
</a>
</g>
</g>
<!-- Node24 -->
<g id="Node000024" class="node">
<title>Node24</title>
<g id="a_Node000024"><a xlink:href="../../d8/d4d/_globals_8h.html" target="_top" xlink:title=" ">
<polygon fill="white" stroke="#666666" points="646.38,-129.75 589.12,-129.75 589.12,-110.5 646.38,-110.5 646.38,-129.75"/>
<text text-anchor="middle" x="617.75" y="-116.25" font-family="Helvetica,sans-Serif" font-size="10.00">Globals.h</text>
</a>
</g>
</g>
<!-- Node1&#45;&gt;Node24 -->
<g id="edge23_Node000001_Node000024" class="edge">
<title>Node1&#45;&gt;Node24</title>
<g id="a_edge23_Node000001_Node000024"><a xlink:title=" ">
<path fill="none" stroke="#63b8ff" d="M555.3,-276.07C565.59,-250.53 595.65,-175.95 609.98,-140.4"/>
<polygon fill="#63b8ff" stroke="#63b8ff" points="613.13,-141.96 613.62,-131.38 606.63,-139.34 613.13,-141.96"/>
</a>
</g>
</g>
<!-- Node25 -->
<g id="Node000025" class="node">
<title>Node25</title>
<g id="a_Node000025"><a xlink:href="../../d0/d55/_main_8h.html" target="_top" xlink:title=" ">
<polygon fill="white" stroke="#666666" points="523.38,-185 478.12,-185 478.12,-165.75 523.38,-165.75 523.38,-185"/>
<text text-anchor="middle" x="500.75" y="-171.5" font-family="Helvetica,sans-Serif" font-size="10.00">Main.h</text>
</a>
</g>
</g>
<!-- Node1&#45;&gt;Node25 -->
<g id="edge25_Node000001_Node000025" class="edge">
<title>Node1&#45;&gt;Node25</title>
<g id="a_edge25_Node000001_Node000025"><a xlink:title=" ">
<path fill="none" stroke="#63b8ff" d="M547.58,-276C539.36,-258.51 520.91,-219.27 509.78,-195.59"/>
<polygon fill="#63b8ff" stroke="#63b8ff" points="513.05,-194.31 505.63,-186.75 506.71,-197.29 513.05,-194.31"/>
</a>
</g>
</g>
<!-- Node26 -->
<g id="Node000026" class="node">
<title>Node26</title>
<g id="a_Node000026"><a xlink:href="../../d0/d1a/_directory___files_8h.html" target="_top" xlink:title=" ">
<polygon fill="white" stroke="#666666" points="700.88,-240.25 610.62,-240.25 610.62,-221 700.88,-221 700.88,-240.25"/>
<text text-anchor="middle" x="655.75" y="-226.75" font-family="Helvetica,sans-Serif" font-size="10.00">Directory_Files.h</text>
</a>
</g>
</g>
<!-- Node1&#45;&gt;Node26 -->
<g id="edge28_Node000001_Node000026" class="edge">
<title>Node1&#45;&gt;Node26</title>
<g id="a_edge28_Node000001_Node000026"><a xlink:title=" ">
<path fill="none" stroke="#63b8ff" d="M569.39,-275.84C585.38,-267.66 609.21,-255.46 627.79,-245.94"/>
<polygon fill="#63b8ff" stroke="#63b8ff" points="629.37,-249.07 636.67,-241.39 626.18,-242.83 629.37,-249.07"/>
</a>
</g>
</g>
<!-- Node29 -->
<g id="Node000029" class="node">
<title>Node29</title>
<g id="a_Node000029"><a xlink:href="../../d5/d4d/_solver_8h.html" target="_top" xlink:title=" ">
<polygon fill="white" stroke="#666666" points="937.38,-185 886.12,-185 886.12,-165.75 937.38,-165.75 937.38,-185"/>
<text text-anchor="middle" x="911.75" y="-171.5" font-family="Helvetica,sans-Serif" font-size="10.00">Solver.h</text>
</a>
</g>
</g>
<!-- Node1&#45;&gt;Node29 -->
<g id="edge37_Node000001_Node000029" class="edge">
<title>Node1&#45;&gt;Node29</title>
<g id="a_edge37_Node000001_Node000029"><a xlink:title=" ">
<path fill="none" stroke="#63b8ff" d="M585.13,-275.77C617.16,-266.96 666.88,-253.08 709.75,-240.25 767.6,-222.94 834.33,-201.56 874.76,-188.45"/>
<polygon fill="#63b8ff" stroke="#63b8ff" points="875.81,-191.79 884.24,-185.37 873.65,-185.13 875.81,-191.79"/>
</a>
</g>
</g>
<!-- Node3 -->
<g id="Node000003" class="node">
<title>Node3</title>
<g id="a_Node000003"><a xlink:title=" ">
<polygon fill="#e0e0e0" stroke="#999999" points="53.5,-19.25 0,-19.25 0,0 53.5,0 53.5,-19.25"/>
<text text-anchor="middle" x="26.75" y="-5.75" font-family="Helvetica,sans-Serif" font-size="10.00">iostream</text>
</a>
</g>
</g>
<!-- Node2&#45;&gt;Node3 -->
<g id="edge2_Node000002_Node000003" class="edge">
<title>Node2&#45;&gt;Node3</title>
<g id="a_edge2_Node000002_Node000003"><a xlink:title=" ">
<path fill="none" stroke="#63b8ff" d="M640.29,-63.4C548.25,-61.71 288.97,-54.12 65.1,-19.54"/>
<polygon fill="#63b8ff" stroke="#63b8ff" points="65.71,-16.09 55.29,-18 64.62,-23.01 65.71,-16.09"/>
</a>
</g>
</g>
<!-- Node4 -->
<g id="Node000004" class="node">
<title>Node4</title>
<g id="a_Node000004"><a xlink:title=" ">
<polygon fill="#e0e0e0" stroke="#999999" points="120.25,-19.25 71.25,-19.25 71.25,0 120.25,0 120.25,-19.25"/>
<text text-anchor="middle" x="95.75" y="-5.75" font-family="Helvetica,sans-Serif" font-size="10.00">fstream</text>
</a>
</g>
</g>
<!-- Node2&#45;&gt;Node4 -->
<g id="edge3_Node000002_Node000004" class="edge">
<title>Node2&#45;&gt;Node4</title>
<g id="a_edge3_Node000002_Node000004"><a xlink:title=" ">
<path fill="none" stroke="#63b8ff" d="M640.31,-63.14C555.35,-60.88 328.87,-52.18 131.67,-19.47"/>
<polygon fill="#63b8ff" stroke="#63b8ff" points="132.45,-16.06 122.01,-17.84 131.29,-22.96 132.45,-16.06"/>
</a>
</g>
</g>
<!-- Node5 -->
<g id="Node000005" class="node">
<title>Node5</title>
<g id="a_Node000005"><a xlink:title=" ">
<polygon fill="#e0e0e0" stroke="#999999" points="181.25,-19.25 138.25,-19.25 138.25,0 181.25,0 181.25,-19.25"/>
<text text-anchor="middle" x="159.75" y="-5.75" font-family="Helvetica,sans-Serif" font-size="10.00">vector</text>
</a>
</g>
</g>
<!-- Node2&#45;&gt;Node5 -->
<g id="edge4_Node000002_Node000005" class="edge">
<title>Node2&#45;&gt;Node5</title>
<g id="a_edge4_Node000002_Node000005"><a xlink:title=" ">
<path fill="none" stroke="#63b8ff" d="M640.13,-62.81C561.97,-59.96 365.83,-50.27 192.75,-19.27"/>
<polygon fill="#63b8ff" stroke="#63b8ff" points="193.61,-15.86 183.14,-17.51 192.35,-22.75 193.61,-15.86"/>
</a>
</g>
</g>
<!-- Node6 -->
<g id="Node000006" class="node">
<title>Node6</title>
<g id="a_Node000006"><a xlink:title=" ">
<polygon fill="#e0e0e0" stroke="#999999" points="239.75,-19.25 199.75,-19.25 199.75,0 239.75,0 239.75,-19.25"/>
<text text-anchor="middle" x="219.75" y="-5.75" font-family="Helvetica,sans-Serif" font-size="10.00">string</text>
</a>
</g>
</g>
<!-- Node2&#45;&gt;Node6 -->
<g id="edge5_Node000002_Node000006" class="edge">
<title>Node2&#45;&gt;Node6</title>
<g id="a_edge5_Node000002_Node000006"><a xlink:title=" ">
<path fill="none" stroke="#63b8ff" d="M640.19,-62.42C569.02,-58.96 400.89,-48.42 251.41,-19.44"/>
<polygon fill="#63b8ff" stroke="#63b8ff" points="252.2,-16.02 241.71,-17.52 250.84,-22.89 252.2,-16.02"/>
</a>
</g>
</g>
<!-- Node7 -->
<g id="Node000007" class="node">
<title>Node7</title>
<g id="a_Node000007"><a xlink:title=" ">
<polygon fill="#e0e0e0" stroke="#999999" points="301.25,-19.25 258.25,-19.25 258.25,0 301.25,0 301.25,-19.25"/>
<text text-anchor="middle" x="279.75" y="-5.75" font-family="Helvetica,sans-Serif" font-size="10.00">cmath</text>
</a>
</g>
</g>
<!-- Node2&#45;&gt;Node7 -->
<g id="edge6_Node000002_Node000007" class="edge">
<title>Node2&#45;&gt;Node7</title>
<g id="a_edge6_Node000002_Node000007"><a xlink:title=" ">
<path fill="none" stroke="#63b8ff" d="M640.1,-61.36C576.91,-56.41 438.6,-43.84 312.65,-19.33"/>
<polygon fill="#63b8ff" stroke="#63b8ff" points="313.64,-15.96 303.15,-17.45 312.28,-22.83 313.64,-15.96"/>
</a>
</g>
</g>
<!-- Node8 -->
<g id="Node000008" class="node">
<title>Node8</title>
<g id="a_Node000008"><a xlink:title=" ">
<polygon fill="#e0e0e0" stroke="#999999" points="370,-19.25 319.5,-19.25 319.5,0 370,0 370,-19.25"/>
<text text-anchor="middle" x="344.75" y="-5.75" font-family="Helvetica,sans-Serif" font-size="10.00">typeinfo</text>
</a>
</g>
</g>
<!-- Node2&#45;&gt;Node8 -->
<g id="edge7_Node000002_Node000008" class="edge">
<title>Node2&#45;&gt;Node8</title>
<g id="a_edge7_Node000002_Node000008"><a xlink:title=" ">
<path fill="none" stroke="#63b8ff" d="M640.37,-59.81C587,-53.26 480.78,-39.27 381.45,-19.63"/>
<polygon fill="#63b8ff" stroke="#63b8ff" points="382.28,-16.23 371.79,-17.69 380.91,-23.09 382.28,-16.23"/>
</a>
</g>
</g>
<!-- Node9 -->
<g id="Node000009" class="node">
<title>Node9</title>
<g id="a_Node000009"><a xlink:title=" ">
<polygon fill="#e0e0e0" stroke="#999999" points="437.62,-19.25 387.88,-19.25 387.88,0 437.62,0 437.62,-19.25"/>
<text text-anchor="middle" x="412.75" y="-5.75" font-family="Helvetica,sans-Serif" font-size="10.00">iomanip</text>
</a>
</g>
</g>
<!-- Node2&#45;&gt;Node9 -->
<g id="edge8_Node000002_Node000009" class="edge">
<title>Node2&#45;&gt;Node9</title>
<g id="a_edge8_Node000002_Node000009"><a xlink:title=" ">
<path fill="none" stroke="#63b8ff" d="M640.25,-57.73C597.58,-50.01 522.49,-35.98 448.82,-19.62"/>
<polygon fill="#63b8ff" stroke="#63b8ff" points="449.96,-16.29 439.44,-17.52 448.43,-23.12 449.96,-16.29"/>
</a>
</g>
</g>
<!-- Node10 -->
<g id="Node000010" class="node">
<title>Node10</title>
<g id="a_Node000010"><a xlink:title=" ">
<polygon fill="#e0e0e0" stroke="#999999" points="497.88,-19.25 455.62,-19.25 455.62,0 497.88,0 497.88,-19.25"/>
<text text-anchor="middle" x="476.75" y="-5.75" font-family="Helvetica,sans-Serif" font-size="10.00">cstdio</text>
</a>
</g>
</g>
<!-- Node2&#45;&gt;Node10 -->
<g id="edge9_Node000002_Node000010" class="edge">
<title>Node2&#45;&gt;Node10</title>
<g id="a_edge9_Node000002_Node000010"><a xlink:title=" ">
<path fill="none" stroke="#63b8ff" d="M640.27,-54.93C608.52,-46.66 559.86,-33.84 509.2,-19.89"/>
<polygon fill="#63b8ff" stroke="#63b8ff" points="510.4,-16.59 499.82,-17.3 508.53,-23.34 510.4,-16.59"/>
</a>
</g>
</g>
<!-- Node11 -->
<g id="Node000011" class="node">
<title>Node11</title>
<g id="a_Node000011"><a xlink:title=" ">
<polygon fill="#e0e0e0" stroke="#999999" points="560,-19.25 515.5,-19.25 515.5,0 560,0 560,-19.25"/>
<text text-anchor="middle" x="537.75" y="-5.75" font-family="Helvetica,sans-Serif" font-size="10.00">cstdlib</text>
</a>
</g>
</g>
<!-- Node2&#45;&gt;Node11 -->
<g id="edge10_Node000002_Node000011" class="edge">
<title>Node2&#45;&gt;Node11</title>
<g id="a_edge10_Node000002_Node000011"><a xlink:title=" ">
<path fill="none" stroke="#63b8ff" d="M651.51,-54.84C629.3,-46.21 595.6,-33.11 570.63,-23.41"/>
<polygon fill="#63b8ff" stroke="#63b8ff" points="572.19,-20.26 561.6,-19.9 569.66,-26.78 572.19,-20.26"/>
</a>
</g>
</g>
<!-- Node12 -->
<g id="Node000012" class="node">
<title>Node12</title>
<g id="a_Node000012"><a xlink:title=" ">
<polygon fill="#e0e0e0" stroke="#999999" points="633.62,-19.25 577.88,-19.25 577.88,0 633.62,0 633.62,-19.25"/>
<text text-anchor="middle" x="605.75" y="-5.75" font-family="Helvetica,sans-Serif" font-size="10.00">algorithm</text>
</a>
</g>
</g>
<!-- Node2&#45;&gt;Node12 -->
<g id="edge11_Node000002_Node000012" class="edge">
<title>Node2&#45;&gt;Node12</title>
<g id="a_edge11_Node000002_Node000012"><a xlink:title=" ">
<path fill="none" stroke="#63b8ff" d="M663.05,-54.84C652.97,-47.07 638.21,-35.67 626.19,-26.4"/>
<polygon fill="#63b8ff" stroke="#63b8ff" points="628.54,-23.79 618.48,-20.45 624.26,-29.33 628.54,-23.79"/>
</a>
</g>
</g>
<!-- Node13 -->
<g id="Node000013" class="node">
<title>Node13</title>
<g id="a_Node000013"><a xlink:title=" ">
<polygon fill="#e0e0e0" stroke="#999999" points="697.38,-19.25 652.12,-19.25 652.12,0 697.38,0 697.38,-19.25"/>
<text text-anchor="middle" x="674.75" y="-5.75" font-family="Helvetica,sans-Serif" font-size="10.00">chrono</text>
</a>
</g>
</g>
<!-- Node2&#45;&gt;Node13 -->
<g id="edge12_Node000002_Node000013" class="edge">
<title>Node2&#45;&gt;Node13</title>
<g id="a_edge12_Node000002_Node000013"><a xlink:title=" ">
<path fill="none" stroke="#63b8ff" d="M674.75,-55.08C674.75,-48.57 674.75,-39.42 674.75,-31.12"/>
<polygon fill="#63b8ff" stroke="#63b8ff" points="678.25,-31.12 674.75,-21.12 671.25,-31.12 678.25,-31.12"/>
</a>
</g>
</g>
<!-- Node14 -->
<g id="Node000014" class="node">
<title>Node14</title>
<g id="a_Node000014"><a xlink:title=" ">
<polygon fill="#e0e0e0" stroke="#999999" points="755.75,-19.25 715.75,-19.25 715.75,0 755.75,0 755.75,-19.25"/>
<text text-anchor="middle" x="735.75" y="-5.75" font-family="Helvetica,sans-Serif" font-size="10.00">cfloat</text>
</a>
</g>
</g>
<!-- Node2&#45;&gt;Node14 -->
<g id="edge13_Node000002_Node000014" class="edge">
<title>Node2&#45;&gt;Node14</title>
<g id="a_edge13_Node000002_Node000014"><a xlink:title=" ">
<path fill="none" stroke="#63b8ff" d="M685.1,-54.84C693.83,-47.22 706.54,-36.12 717.05,-26.95"/>
<polygon fill="#63b8ff" stroke="#63b8ff" points="719.18,-29.73 724.41,-20.52 714.58,-24.46 719.18,-29.73"/>
</a>
</g>
</g>
<!-- Node15 -->
<g id="Node000015" class="node">
<title>Node15</title>
<g id="a_Node000015"><a xlink:title=" ">
<polygon fill="#e0e0e0" stroke="#999999" points="835.25,-19.25 774.25,-19.25 774.25,0 835.25,0 835.25,-19.25"/>
<text text-anchor="middle" x="804.75" y="-5.75" font-family="Helvetica,sans-Serif" font-size="10.00">filesystem</text>
</a>
</g>
</g>
<!-- Node2&#45;&gt;Node15 -->
<g id="edge14_Node000002_Node000015" class="edge">
<title>Node2&#45;&gt;Node15</title>
<g id="a_edge14_Node000002_Node000015"><a xlink:title=" ">
<path fill="none" stroke="#63b8ff" d="M696.8,-54.84C717.44,-46.39 748.53,-33.65 772.05,-24.02"/>
<polygon fill="#63b8ff" stroke="#63b8ff" points="773.26,-27.31 781.19,-20.28 770.61,-20.83 773.26,-27.31"/>
</a>
</g>
</g>
<!-- Node16 -->
<g id="Node000016" class="node">
<title>Node16</title>
<g id="a_Node000016"><a xlink:title=" ">
<polygon fill="#e0e0e0" stroke="#999999" points="888.12,-19.25 853.38,-19.25 853.38,0 888.12,0 888.12,-19.25"/>
<text text-anchor="middle" x="870.75" y="-5.75" font-family="Helvetica,sans-Serif" font-size="10.00">map</text>
</a>
</g>
</g>
<!-- Node2&#45;&gt;Node16 -->
<g id="edge15_Node000002_Node000016" class="edge">
<title>Node2&#45;&gt;Node16</title>
<g id="a_edge15_Node000002_Node000016"><a xlink:title=" ">
<path fill="none" stroke="#63b8ff" d="M709.44,-55.46C741.63,-47.49 791.11,-34.87 842.02,-19.94"/>
<polygon fill="#63b8ff" stroke="#63b8ff" points="842.85,-23.34 851.44,-17.14 840.86,-16.63 842.85,-23.34"/>
</a>
</g>
</g>
<!-- Node17 -->
<g id="Node000017" class="node">
<title>Node17</title>
<g id="a_Node000017"><a xlink:title=" ">
<polygon fill="#e0e0e0" stroke="#999999" points="965.12,-19.25 906.38,-19.25 906.38,0 965.12,0 965.12,-19.25"/>
<text text-anchor="middle" x="935.75" y="-5.75" font-family="Helvetica,sans-Serif" font-size="10.00">stdexcept</text>
</a>
</g>
</g>
<!-- Node2&#45;&gt;Node17 -->
<g id="edge16_Node000002_Node000017" class="edge">
<title>Node2&#45;&gt;Node17</title>
<g id="a_edge16_Node000002_Node000017"><a xlink:title=" ">
<path fill="none" stroke="#63b8ff" d="M709.4,-57.12C750.98,-48.98 823.1,-34.7 894.9,-19.61"/>
<polygon fill="#63b8ff" stroke="#63b8ff" points="895.41,-23.08 904.47,-17.59 893.96,-16.23 895.41,-23.08"/>
</a>
</g>
</g>
<!-- Node18 -->
<g id="Node000018" class="node">
<title>Node18</title>
<g id="a_Node000018"><a xlink:title=" ">
<polygon fill="#e0e0e0" stroke="#999999" points="1034.38,-19.25 983.12,-19.25 983.12,0 1034.38,0 1034.38,-19.25"/>
<text text-anchor="middle" x="1008.75" y="-5.75" font-family="Helvetica,sans-Serif" font-size="10.00">sstream</text>
</a>
</g>
</g>
<!-- Node2&#45;&gt;Node18 -->
<g id="edge17_Node000002_Node000018" class="edge">
<title>Node2&#45;&gt;Node18</title>
<g id="a_edge17_Node000002_Node000018"><a xlink:title=" ">
<path fill="none" stroke="#63b8ff" d="M709.46,-59.76C763.41,-53.14 870.85,-39.04 971.81,-19.46"/>
<polygon fill="#63b8ff" stroke="#63b8ff" points="972.19,-22.96 981.33,-17.59 970.84,-16.09 972.19,-22.96"/>
</a>
</g>
</g>
<!-- Node19 -->
<g id="Node000019" class="node">
<title>Node19</title>
<g id="a_Node000019"><a xlink:title=" ">
<polygon fill="#e0e0e0" stroke="#999999" points="1135.12,-19.25 1052.38,-19.25 1052.38,0 1135.12,0 1135.12,-19.25"/>
<text text-anchor="middle" x="1093.75" y="-5.75" font-family="Helvetica,sans-Serif" font-size="10.00">unordered_map</text>
</a>
</g>
</g>
<!-- Node2&#45;&gt;Node19 -->
<g id="edge18_Node000002_Node000019" class="edge">
<title>Node2&#45;&gt;Node19</title>
<g id="a_edge18_Node000002_Node000019"><a xlink:title=" ">
<path fill="none" stroke="#63b8ff" d="M709.42,-60.27C773.04,-53.53 912.94,-38.13 1040.88,-19.61"/>
<polygon fill="#63b8ff" stroke="#63b8ff" points="1041.15,-23.11 1050.54,-18.2 1040.14,-16.18 1041.15,-23.11"/>
</a>
</g>
</g>
<!-- Node20 -->
<g id="Node000020" class="node">
<title>Node20</title>
<g id="a_Node000020"><a xlink:title=" ">
<polygon fill="#e0e0e0" stroke="#999999" points="1230.5,-19.25 1153,-19.25 1153,0 1230.5,0 1230.5,-19.25"/>
<text text-anchor="middle" x="1191.75" y="-5.75" font-family="Helvetica,sans-Serif" font-size="10.00">unordered_set</text>
</a>
</g>
</g>
<!-- Node2&#45;&gt;Node20 -->
<g id="edge19_Node000002_Node000020" class="edge">
<title>Node2&#45;&gt;Node20</title>
<g id="a_edge19_Node000002_Node000020"><a xlink:title=" ">
<path fill="none" stroke="#63b8ff" d="M709.28,-61.57C785.37,-56.3 973.38,-42.1 1141.46,-19.45"/>
<polygon fill="#63b8ff" stroke="#63b8ff" points="1141.82,-22.93 1151.26,-18.11 1140.88,-16 1141.82,-22.93"/>
</a>
</g>
</g>
<!-- Node21 -->
<g id="Node000021" class="node">
<title>Node21</title>
<g id="a_Node000021"><a xlink:title=" ">
<polygon fill="#e0e0e0" stroke="#999999" points="1285.25,-19.25 1248.25,-19.25 1248.25,0 1285.25,0 1285.25,-19.25"/>
<text text-anchor="middle" x="1266.75" y="-5.75" font-family="Helvetica,sans-Serif" font-size="10.00">tuple</text>
</a>
</g>
</g>
<!-- Node2&#45;&gt;Node21 -->
<g id="edge20_Node000002_Node000021" class="edge">
<title>Node2&#45;&gt;Node21</title>
<g id="a_edge20_Node000002_Node000021"><a xlink:title=" ">
<path fill="none" stroke="#63b8ff" d="M709.2,-63.9C796.38,-63.38 1032.83,-58.37 1236.79,-19.41"/>
<polygon fill="#63b8ff" stroke="#63b8ff" points="1237.38,-22.86 1246.53,-17.51 1236.04,-15.98 1237.38,-22.86"/>
</a>
</g>
</g>
<!-- Node22 -->
<g id="Node000022" class="node">
<title>Node22</title>
<g id="a_Node000022"><a xlink:title=" ">
<polygon fill="#e0e0e0" stroke="#999999" points="1332.5,-19.25 1303,-19.25 1303,0 1332.5,0 1332.5,-19.25"/>
<text text-anchor="middle" x="1317.75" y="-5.75" font-family="Helvetica,sans-Serif" font-size="10.00">set</text>
</a>
</g>
</g>
<!-- Node2&#45;&gt;Node22 -->
<g id="edge21_Node000002_Node000022" class="edge">
<title>Node2&#45;&gt;Node22</title>
<g id="a_edge21_Node000002_Node000022"><a xlink:title=" ">
<path fill="none" stroke="#63b8ff" d="M709.43,-62.69C819.49,-58.72 1160.86,-44.83 1291.37,-19.34"/>
<polygon fill="#63b8ff" stroke="#63b8ff" points="1292.04,-22.78 1301.11,-17.31 1290.61,-15.93 1292.04,-22.78"/>
</a>
</g>
</g>
<!-- Node23 -->
<g id="Node000023" class="node">
<title>Node23</title>
<g id="a_Node000023"><a xlink:title=" ">
<polygon fill="#e0e0e0" stroke="#999999" points="1436.62,-19.25 1350.88,-19.25 1350.88,0 1436.62,0 1436.62,-19.25"/>
<text text-anchor="middle" x="1393.75" y="-5.75" font-family="Helvetica,sans-Serif" font-size="10.00">boost/regex.hpp</text>
</a>
</g>
</g>
<!-- Node2&#45;&gt;Node23 -->
<g id="edge22_Node000002_Node000023" class="edge">
<title>Node2&#45;&gt;Node23</title>
<g id="a_edge22_Node000002_Node000023"><a xlink:title=" ">
<path fill="none" stroke="#63b8ff" d="M709.22,-62.76C806.52,-59.35 1091.71,-47.62 1339.01,-19.45"/>
<polygon fill="#63b8ff" stroke="#63b8ff" points="1339.35,-22.94 1348.88,-18.32 1338.54,-15.98 1339.35,-22.94"/>
</a>
</g>
</g>
<!-- Node24&#45;&gt;Node2 -->
<g id="edge24_Node000024_Node000002" class="edge">
<title>Node24&#45;&gt;Node2</title>
<g id="a_edge24_Node000024_Node000002"><a xlink:title=" ">
<path fill="none" stroke="#63b8ff" d="M627.42,-110.09C635.49,-102.55 647.22,-91.6 656.97,-82.48"/>
<polygon fill="#63b8ff" stroke="#63b8ff" points="659.2,-85.19 664.12,-75.81 654.42,-80.08 659.2,-85.19"/>
</a>
</g>
</g>
<!-- Node25&#45;&gt;Node2 -->
<g id="edge26_Node000025_Node000002" class="edge">
<title>Node25&#45;&gt;Node2</title>
<g id="a_edge26_Node000025_Node000002"><a xlink:title=" ">
<path fill="none" stroke="#63b8ff" d="M510.39,-165.28C524.72,-152.08 552.84,-127.35 579.75,-110.5 599.24,-98.29 622.61,-87.27 641.29,-79.24"/>
<polygon fill="#63b8ff" stroke="#63b8ff" points="642.43,-82.56 650.29,-75.45 639.71,-76.11 642.43,-82.56"/>
</a>
</g>
</g>
<!-- Node25&#45;&gt;Node24 -->
<g id="edge27_Node000025_Node000024" class="edge">
<title>Node25&#45;&gt;Node24</title>
<g id="a_edge27_Node000025_Node000024"><a xlink:title=" ">
<path fill="none" stroke="#63b8ff" d="M520.6,-165.34C538.92,-157 566.4,-144.5 587.46,-134.91"/>
<polygon fill="#63b8ff" stroke="#63b8ff" points="588.78,-138.16 596.43,-130.83 585.88,-131.79 588.78,-138.16"/>
</a>
</g>
</g>
<!-- Node26&#45;&gt;Node2 -->
<g id="edge29_Node000026_Node000002" class="edge">
<title>Node26&#45;&gt;Node2</title>
<g id="a_edge29_Node000026_Node000002"><a xlink:title=" ">
<path fill="none" stroke="#63b8ff" d="M700.92,-221.6C752.28,-212.02 830.17,-195.93 838.75,-185 877.84,-135.24 781.11,-96.61 720.07,-78.03"/>
<polygon fill="#63b8ff" stroke="#63b8ff" points="721.16,-74.7 710.58,-75.22 719.18,-81.41 721.16,-74.7"/>
</a>
</g>
</g>
<!-- Node26&#45;&gt;Node24 -->
<g id="edge30_Node000026_Node000024" class="edge">
<title>Node26&#45;&gt;Node24</title>
<g id="a_edge30_Node000026_Node000024"><a xlink:title=" ">
<path fill="none" stroke="#63b8ff" d="M641.22,-220.67C630,-212.83 615.32,-200.3 608.75,-185 602.73,-170.98 605.67,-153.78 609.73,-140.77"/>
<polygon fill="#63b8ff" stroke="#63b8ff" points="612.93,-142.22 613.05,-131.62 606.35,-139.83 612.93,-142.22"/>
</a>
</g>
</g>
<!-- Node27 -->
<g id="Node000027" class="node">
<title>Node27</title>
<g id="a_Node000027"><a xlink:href="../../d2/d7c/_test___cases_8h.html" target="_top" xlink:title=" ">
<polygon fill="white" stroke="#666666" points="694.12,-185 617.38,-185 617.38,-165.75 694.12,-165.75 694.12,-185"/>
<text text-anchor="middle" x="655.75" y="-171.5" font-family="Helvetica,sans-Serif" font-size="10.00">Test_Cases.h</text>
</a>
</g>
</g>
<!-- Node26&#45;&gt;Node27 -->
<g id="edge31_Node000026_Node000027" class="edge">
<title>Node26&#45;&gt;Node27</title>
<g id="a_edge31_Node000026_Node000027"><a xlink:title=" ">
<path fill="none" stroke="#63b8ff" d="M655.75,-220.83C655.75,-214.32 655.75,-205.17 655.75,-196.87"/>
<polygon fill="#63b8ff" stroke="#63b8ff" points="659.25,-196.87 655.75,-186.87 652.25,-196.87 659.25,-196.87"/>
</a>
</g>
</g>
<!-- Node28 -->
<g id="Node000028" class="node">
<title>Node28</title>
<g id="a_Node000028"><a xlink:href="../../d7/da5/_boundary___conditions_8h.html" target="_top" xlink:title=" ">
<polygon fill="white" stroke="#666666" points="829.38,-185 712.12,-185 712.12,-165.75 829.38,-165.75 829.38,-185"/>
<text text-anchor="middle" x="770.75" y="-171.5" font-family="Helvetica,sans-Serif" font-size="10.00">Boundary_Conditions.h</text>
</a>
</g>
</g>
<!-- Node26&#45;&gt;Node28 -->
<g id="edge34_Node000026_Node000028" class="edge">
<title>Node26&#45;&gt;Node28</title>
<g id="a_edge34_Node000026_Node000028"><a xlink:title=" ">
<path fill="none" stroke="#63b8ff" d="M675.26,-220.59C693.27,-212.25 720.27,-199.75 740.98,-190.16"/>
<polygon fill="#63b8ff" stroke="#63b8ff" points="742.17,-193.47 749.77,-186.09 739.23,-187.11 742.17,-193.47"/>
</a>
</g>
</g>
<!-- Node27&#45;&gt;Node2 -->
<g id="edge32_Node000027_Node000002" class="edge">
<title>Node27&#45;&gt;Node2</title>
<g id="a_edge32_Node000027_Node000002"><a xlink:title=" ">
<path fill="none" stroke="#63b8ff" d="M657.3,-165.5C660.32,-148.25 667.05,-109.83 671.21,-86.06"/>
<polygon fill="#63b8ff" stroke="#63b8ff" points="674.64,-86.82 672.91,-76.37 667.74,-85.61 674.64,-86.82"/>
</a>
</g>
</g>
<!-- Node27&#45;&gt;Node24 -->
<g id="edge33_Node000027_Node000024" class="edge">
<title>Node27&#45;&gt;Node24</title>
<g id="a_edge33_Node000027_Node000024"><a xlink:title=" ">
<path fill="none" stroke="#63b8ff" d="M649.48,-165.58C644.39,-158.46 637.05,-148.18 630.72,-139.3"/>
<polygon fill="#63b8ff" stroke="#63b8ff" points="633.7,-137.45 625.04,-131.34 628,-141.51 633.7,-137.45"/>
</a>
</g>
</g>
<!-- Node28&#45;&gt;Node2 -->
<g id="edge35_Node000028_Node000002" class="edge">
<title>Node28&#45;&gt;Node2</title>
<g id="a_edge35_Node000028_Node000002"><a xlink:title=" ">
<path fill="none" stroke="#63b8ff" d="M762.89,-165.5C747.07,-147.61 711.11,-106.97 690.34,-83.5"/>
<polygon fill="#63b8ff" stroke="#63b8ff" points="692.97,-81.18 683.72,-76.01 687.72,-85.82 692.97,-81.18"/>
</a>
</g>
</g>
<!-- Node28&#45;&gt;Node24 -->
<g id="edge36_Node000028_Node000024" class="edge">
<title>Node28&#45;&gt;Node24</title>
<g id="a_edge36_Node000028_Node000024"><a xlink:title=" ">
<path fill="none" stroke="#63b8ff" d="M744.8,-165.34C719.96,-156.7 682.25,-143.57 654.37,-133.87"/>
<polygon fill="#63b8ff" stroke="#63b8ff" points="655.86,-130.68 645.26,-130.7 653.56,-137.29 655.86,-130.68"/>
</a>
</g>
</g>
<!-- Node29&#45;&gt;Node2 -->
<g id="edge38_Node000029_Node000002" class="edge">
<title>Node29&#45;&gt;Node2</title>
<g id="a_edge38_Node000029_Node000002"><a xlink:title=" ">
<path fill="none" stroke="#63b8ff" d="M908.7,-165.37C903.46,-151.33 891.39,-124.43 871.75,-110.5 827.05,-78.78 763.49,-69.16 720.77,-66.48"/>
<polygon fill="#63b8ff" stroke="#63b8ff" points="720.98,-62.98 710.82,-65.97 720.63,-69.97 720.98,-62.98"/>
</a>
</g>
</g>
<!-- Node29&#45;&gt;Node24 -->
<g id="edge39_Node000029_Node000024" class="edge">
<title>Node29&#45;&gt;Node24</title>
<g id="a_edge39_Node000029_Node000024"><a xlink:title=" ">
<path fill="none" stroke="#63b8ff" d="M885.66,-169.65C834.17,-160.32 719.18,-139.5 657.94,-128.4"/>
<polygon fill="#63b8ff" stroke="#63b8ff" points="658.75,-124.99 648.29,-126.66 657.5,-131.88 658.75,-124.99"/>
</a>
</g>
</g>
</g>
</svg>
