<?xml version="1.0" encoding="UTF-8" standalone="no"?>
<!DOCTYPE svg PUBLIC "-//W3C//DTD SVG 1.1//EN"
 "http://www.w3.org/Graphics/SVG/1.1/DTD/svg11.dtd">
<!-- Generated by graphviz version 12.2.1 (20241206.2353)
 -->
<!-- Title: Minimum Pages: 1 -->
<svg width="902pt" height="302pt"
 viewBox="0.00 0.00 902.25 301.62" xmlns="http://www.w3.org/2000/svg" xmlns:xlink="http://www.w3.org/1999/xlink">
<g id="graph0" class="graph" transform="scale(1 1) rotate(0) translate(4 297.62)">
<title>Minimum</title>
<!-- Node1 -->
<g id="Node000001" class="node">
<title>Node1</title>
<g id="a_Node000001"><a xlink:title=" ">
<polygon fill="#999999" stroke="#666666" points="894.25,-256.62 838.5,-256.62 838.5,-237.38 894.25,-237.38 894.25,-256.62"/>
<text text-anchor="middle" x="866.38" y="-243.12" font-family="Helvetica,sans-Serif" font-size="10.00">Minimum</text>
</a>
</g>
</g>
<!-- Node2 -->
<g id="Node000002" class="node">
<title>Node2</title>
<g id="a_Node000002"><a xlink:href="../../d0/da3/_limiters_8cpp_a01ee9151d91c270729e4d9df0a89e287.html#a01ee9151d91c270729e4d9df0a89e287" target="_top" xlink:title="Computes the MinMod limiter for three input values and updates the result in the provided reference.">
<polygon fill="white" stroke="#666666" points="789,-293.62 738.5,-293.62 738.5,-274.38 789,-274.38 789,-293.62"/>
<text text-anchor="middle" x="763.75" y="-280.12" font-family="Helvetica,sans-Serif" font-size="10.00">MinMod</text>
</a>
</g>
</g>
<!-- Node1&#45;&gt;Node2 -->
<g id="edge1_Node000001_Node000002" class="edge">
<title>Node1&#45;&gt;Node2</title>
<g id="a_edge1_Node000001_Node000002"><a xlink:title=" ">
<path fill="none" stroke="#63b8ff" d="M827.7,-260.85C814.84,-265.58 800.8,-270.74 789.25,-274.99"/>
<polygon fill="#63b8ff" stroke="#63b8ff" points="828.55,-264.27 836.72,-257.54 826.13,-257.7 828.55,-264.27"/>
</a>
</g>
</g>
<!-- Node4 -->
<g id="Node000004" class="node">
<title>Node4</title>
<g id="a_Node000004"><a xlink:href="../../dd/d30/_m_o_v_e_r_s_8cpp_ad9d16fef8d34a1b19bfdbf938bf033be.html#ad9d16fef8d34a1b19bfdbf938bf033be" target="_top" xlink:title=" ">
<polygon fill="white" stroke="#666666" points="793.5,-161.62 734,-161.62 734,-142.38 793.5,-142.38 793.5,-161.62"/>
<text text-anchor="middle" x="763.75" y="-148.12" font-family="Helvetica,sans-Serif" font-size="10.00">MOVERS</text>
</a>
</g>
</g>
<!-- Node1&#45;&gt;Node4 -->
<g id="edge3_Node000001_Node000004" class="edge">
<title>Node1&#45;&gt;Node4</title>
<g id="a_edge3_Node000001_Node000004"><a xlink:title=" ">
<path fill="none" stroke="#63b8ff" d="M846.82,-229.48C825.76,-209.6 792.17,-177.89 775.23,-161.9"/>
<polygon fill="#63b8ff" stroke="#63b8ff" points="844.21,-231.83 853.88,-236.15 849.02,-226.74 844.21,-231.83"/>
</a>
</g>
</g>
<!-- Node13 -->
<g id="Node000013" class="node">
<title>Node13</title>
<g id="a_Node000013"><a xlink:href="../../dd/d30/_m_o_v_e_r_s_8cpp_a895c6dcdac689f71d89e341046362be9.html#a895c6dcdac689f71d89e341046362be9" target="_top" xlink:title=" ">
<polygon fill="white" stroke="#666666" points="802.5,-256.62 725,-256.62 725,-237.38 802.5,-237.38 802.5,-256.62"/>
<text text-anchor="middle" x="763.75" y="-243.12" font-family="Helvetica,sans-Serif" font-size="10.00">MOVERS_2O</text>
</a>
</g>
</g>
<!-- Node1&#45;&gt;Node13 -->
<g id="edge21_Node000001_Node000013" class="edge">
<title>Node1&#45;&gt;Node13</title>
<g id="a_edge21_Node000001_Node000013"><a xlink:title=" ">
<path fill="none" stroke="#63b8ff" d="M826.72,-247C818.93,-247 810.74,-247 802.96,-247"/>
<polygon fill="#63b8ff" stroke="#63b8ff" points="826.63,-250.5 836.63,-247 826.63,-243.5 826.63,-250.5"/>
</a>
</g>
</g>
<!-- Node3 -->
<g id="Node000003" class="node">
<title>Node3</title>
<g id="a_Node000003"><a xlink:href="../../d0/da3/_limiters_8cpp_a6bdb2d5e0ff963b9b5b395dc79a19acd.html#a6bdb2d5e0ff963b9b5b395dc79a19acd" target="_top" xlink:title="Computes the second&#45;order limited slopes and reconstructs variables for a given cell and face.">
<polygon fill="white" stroke="#666666" points="675.5,-293.62 562.75,-293.62 562.75,-274.38 675.5,-274.38 675.5,-293.62"/>
<text text-anchor="middle" x="619.12" y="-280.12" font-family="Helvetica,sans-Serif" font-size="10.00">Second_Order_Limiter</text>
</a>
</g>
</g>
<!-- Node2&#45;&gt;Node3 -->
<g id="edge2_Node000002_Node000003" class="edge">
<title>Node2&#45;&gt;Node3</title>
<g id="a_edge2_Node000002_Node000003"><a xlink:title=" ">
<path fill="none" stroke="#63b8ff" d="M727.07,-284C711.62,-284 693.16,-284 675.96,-284"/>
<polygon fill="#63b8ff" stroke="#63b8ff" points="726.72,-287.5 736.72,-284 726.72,-280.5 726.72,-287.5"/>
</a>
</g>
</g>
<!-- Node5 -->
<g id="Node000005" class="node">
<title>Node5</title>
<g id="a_Node000005"><a xlink:href="../../d9/ddd/_c_u_d_a___integrated___numerical___method_8cpp_ad25c9a53b380204dd243bc1351d6b098.html#ad25c9a53b380204dd243bc1351d6b098" target="_top" xlink:title=" ">
<polygon fill="white" stroke="#666666" points="689,-161.62 549.25,-161.62 549.25,-142.38 689,-142.38 689,-161.62"/>
<text text-anchor="middle" x="619.12" y="-148.12" font-family="Helvetica,sans-Serif" font-size="10.00">Evaluate_Cell_Net_Flux_1O</text>
</a>
</g>
</g>
<!-- Node4&#45;&gt;Node5 -->
<g id="edge4_Node000004_Node000005" class="edge">
<title>Node4&#45;&gt;Node5</title>
<g id="a_edge4_Node000004_Node000005"><a xlink:title=" ">
<path fill="none" stroke="#63b8ff" d="M722.07,-152C711.83,-152 700.55,-152 689.34,-152"/>
<polygon fill="#63b8ff" stroke="#63b8ff" points="722.03,-155.5 732.03,-152 722.03,-148.5 722.03,-155.5"/>
</a>
</g>
</g>
<!-- Node8 -->
<g id="Node000008" class="node">
<title>Node8</title>
<g id="a_Node000008"><a xlink:href="../../dd/dbf/_euler___python___wrapper_8cpp_ac5ccb50c3be270f798e054dd36987442.html#ac5ccb50c3be270f798e054dd36987442" target="_top" xlink:title=" ">
<polygon fill="white" stroke="#666666" points="112.75,-123.62 0,-123.62 0,-104.38 112.75,-104.38 112.75,-123.62"/>
<text text-anchor="middle" x="56.38" y="-110.12" font-family="Helvetica,sans-Serif" font-size="10.00">PYBIND11_MODULE</text>
</a>
</g>
</g>
<!-- Node4&#45;&gt;Node8 -->
<g id="edge20_Node000004_Node000008" class="edge">
<title>Node4&#45;&gt;Node8</title>
<g id="a_edge20_Node000004_Node000008"><a xlink:title=" ">
<path fill="none" stroke="#63b8ff" d="M744.04,-134.36C699.54,-94.32 582.3,0 465.38,0 465.38,0 465.38,0 323.25,0 218.28,0 107.5,-75.98 70.36,-103.88"/>
<polygon fill="#63b8ff" stroke="#63b8ff" points="741.56,-136.83 751.3,-141 746.29,-131.67 741.56,-136.83"/>
</a>
</g>
</g>
<!-- Node6 -->
<g id="Node000006" class="node">
<title>Node6</title>
<g id="a_Node000006"><a xlink:href="../../d0/d64/_numerical___method_8cpp_a8dda0c7e17babab9b6e49e8e199dc30e.html#a8dda0c7e17babab9b6e49e8e199dc30e" target="_top" xlink:title=" ">
<polygon fill="white" stroke="#666666" points="367.12,-199.62 281.38,-199.62 281.38,-180.38 367.12,-180.38 367.12,-199.62"/>
<text text-anchor="middle" x="324.25" y="-186.12" font-family="Helvetica,sans-Serif" font-size="10.00">Explicit_Method</text>
</a>
</g>
</g>
<!-- Node5&#45;&gt;Node6 -->
<g id="edge5_Node000005_Node000006" class="edge">
<title>Node5&#45;&gt;Node6</title>
<g id="a_edge5_Node000005_Node000006"><a xlink:title=" ">
<path fill="none" stroke="#63b8ff" d="M537.77,-162.77C529.49,-163.87 521.2,-164.96 513.25,-166 463.17,-172.54 405.55,-179.87 367.45,-184.68"/>
<polygon fill="#63b8ff" stroke="#63b8ff" points="538.07,-166.27 547.53,-161.48 537.15,-159.33 538.07,-166.27"/>
</a>
</g>
</g>
<!-- Node5&#45;&gt;Node8 -->
<g id="edge14_Node000005_Node000008" class="edge">
<title>Node5&#45;&gt;Node8</title>
<g id="a_edge14_Node000005_Node000008"><a xlink:title=" ">
<path fill="none" stroke="#63b8ff" d="M597.35,-135.11C577.23,-119.93 545.16,-98.73 513.25,-90 363.41,-49.02 175.79,-84.86 96.07,-103.91"/>
<polygon fill="#63b8ff" stroke="#63b8ff" points="594.97,-137.7 605.01,-141.07 599.26,-132.17 594.97,-137.7"/>
</a>
</g>
</g>
<!-- Node10 -->
<g id="Node000010" class="node">
<title>Node10</title>
<g id="a_Node000010"><a xlink:href="../../de/df0/_solver_8cpp_a2f37f06e8324a1ed6aa99efdbba81865.html#a2f37f06e8324a1ed6aa99efdbba81865" target="_top" xlink:title=" ">
<polygon fill="white" stroke="#666666" points="233,-179.62 148.75,-179.62 148.75,-160.38 233,-160.38 233,-179.62"/>
<text text-anchor="middle" x="190.88" y="-166.12" font-family="Helvetica,sans-Serif" font-size="10.00">Viscous_Solver</text>
</a>
</g>
</g>
<!-- Node5&#45;&gt;Node10 -->
<g id="edge19_Node000005_Node000010" class="edge">
<title>Node5&#45;&gt;Node10</title>
<g id="a_edge19_Node000005_Node000010"><a xlink:title=" ">
<path fill="none" stroke="#63b8ff" d="M537.85,-155.39C447.32,-159.21 303.59,-165.28 233.31,-168.25"/>
<polygon fill="#63b8ff" stroke="#63b8ff" points="537.81,-158.89 547.65,-154.98 537.52,-151.9 537.81,-158.89"/>
</a>
</g>
</g>
<!-- Node11 -->
<g id="Node000011" class="node">
<title>Node11</title>
<g id="a_Node000011"><a xlink:href="../../db/d38/_parallel___numerical___method_8cpp_a263f3c36336c227c44f052b2ad122253.html#a263f3c36336c227c44f052b2ad122253" target="_top" xlink:title=" ">
<polygon fill="white" stroke="#666666" points="513.25,-237.62 415.5,-237.62 415.5,-218.38 513.25,-218.38 513.25,-237.62"/>
<text text-anchor="middle" x="464.38" y="-224.12" font-family="Helvetica,sans-Serif" font-size="10.00">PrecomputeFluxes</text>
</a>
</g>
</g>
<!-- Node5&#45;&gt;Node11 -->
<g id="edge12_Node000005_Node000011" class="edge">
<title>Node5&#45;&gt;Node11</title>
<g id="a_edge12_Node000005_Node000011"><a xlink:title=" ">
<path fill="none" stroke="#63b8ff" d="M587.78,-167.1C557.34,-182.24 511.33,-205.13 485.26,-218.11"/>
<polygon fill="#63b8ff" stroke="#63b8ff" points="589.09,-170.35 596.49,-162.77 585.97,-164.09 589.09,-170.35"/>
</a>
</g>
</g>
<!-- Node12 -->
<g id="Node000012" class="node">
<title>Node12</title>
<g id="a_Node000012"><a xlink:href="../../de/d22/_cuda___parallel___r_k_8cpp_a794f030971fbb7c9dd4bc08df03f50f1.html#a794f030971fbb7c9dd4bc08df03f50f1" target="_top" xlink:title=" ">
<polygon fill="white" stroke="#666666" points="379.5,-123.62 269,-123.62 269,-104.38 379.5,-104.38 379.5,-123.62"/>
<text text-anchor="middle" x="324.25" y="-110.12" font-family="Helvetica,sans-Serif" font-size="10.00">Runge_Kutta_Method</text>
</a>
</g>
</g>
<!-- Node5&#45;&gt;Node12 -->
<g id="edge15_Node000005_Node000012" class="edge">
<title>Node5&#45;&gt;Node12</title>
<g id="a_edge15_Node000005_Node000012"><a xlink:title=" ">
<path fill="none" stroke="#63b8ff" d="M593.87,-135.92C573.36,-123.36 542.7,-106.9 513.25,-100 463.54,-88.35 404.6,-96.1 366.14,-103.93"/>
<polygon fill="#63b8ff" stroke="#63b8ff" points="591.73,-138.71 602.05,-141.09 595.46,-132.79 591.73,-138.71"/>
</a>
</g>
</g>
<!-- Node7 -->
<g id="Node000007" class="node">
<title>Node7</title>
<g id="a_Node000007"><a xlink:href="../../de/df0/_solver_8cpp_ad0f49408a26339b5f7043bf867c3fa8d.html#ad0f49408a26339b5f7043bf867c3fa8d" target="_top" xlink:title=" ">
<polygon fill="white" stroke="#666666" points="232.25,-142.62 149.5,-142.62 149.5,-123.38 232.25,-123.38 232.25,-142.62"/>
<text text-anchor="middle" x="190.88" y="-129.12" font-family="Helvetica,sans-Serif" font-size="10.00">Inviscid_Solver</text>
</a>
</g>
</g>
<!-- Node6&#45;&gt;Node7 -->
<g id="edge6_Node000006_Node000007" class="edge">
<title>Node6&#45;&gt;Node7</title>
<g id="a_edge6_Node000006_Node000007"><a xlink:title=" ">
<path fill="none" stroke="#63b8ff" d="M289.54,-175.37C266.1,-165.21 235.48,-151.92 214.83,-142.96"/>
<polygon fill="#63b8ff" stroke="#63b8ff" points="288.11,-178.57 298.68,-179.34 290.9,-172.15 288.11,-178.57"/>
</a>
</g>
</g>
<!-- Node6&#45;&gt;Node10 -->
<g id="edge9_Node000006_Node000010" class="edge">
<title>Node6&#45;&gt;Node10</title>
<g id="a_edge9_Node000006_Node000010"><a xlink:title=" ">
<path fill="none" stroke="#63b8ff" d="M269.93,-181.88C257.68,-180.02 244.84,-178.06 233.19,-176.29"/>
<polygon fill="#63b8ff" stroke="#63b8ff" points="269.05,-185.29 279.46,-183.33 270.1,-178.37 269.05,-185.29"/>
</a>
</g>
</g>
<!-- Node7&#45;&gt;Node8 -->
<g id="edge7_Node000007_Node000008" class="edge">
<title>Node7&#45;&gt;Node8</title>
<g id="a_edge7_Node000007_Node000008"><a xlink:title=" ">
<path fill="none" stroke="#63b8ff" d="M137.77,-125.53C129.62,-124.36 121.17,-123.15 112.94,-121.97"/>
<polygon fill="#63b8ff" stroke="#63b8ff" points="137.15,-128.97 147.54,-126.93 138.14,-122.05 137.15,-128.97"/>
</a>
</g>
</g>
<!-- Node9 -->
<g id="Node000009" class="node">
<title>Node9</title>
<g id="a_Node000009"><a xlink:href="../../d5/d12/_main_8cpp_a35d775933750ace299102f06a1712663.html#a35d775933750ace299102f06a1712663" target="_top" xlink:title="Executes the appropriate solver based on the simulation configuration.">
<polygon fill="white" stroke="#666666" points="85,-160.62 27.75,-160.62 27.75,-141.38 85,-141.38 85,-160.62"/>
<text text-anchor="middle" x="56.38" y="-147.12" font-family="Helvetica,sans-Serif" font-size="10.00">runSolver</text>
</a>
</g>
</g>
<!-- Node7&#45;&gt;Node9 -->
<g id="edge8_Node000007_Node000009" class="edge">
<title>Node7&#45;&gt;Node9</title>
<g id="a_edge8_Node000007_Node000009"><a xlink:title=" ">
<path fill="none" stroke="#63b8ff" d="M137.83,-140.07C119.9,-142.51 100.53,-145.14 85.28,-147.21"/>
<polygon fill="#63b8ff" stroke="#63b8ff" points="138.1,-143.57 147.54,-138.75 137.16,-136.63 138.1,-143.57"/>
</a>
</g>
</g>
<!-- Node10&#45;&gt;Node8 -->
<g id="edge10_Node000010_Node000008" class="edge">
<title>Node10&#45;&gt;Node8</title>
<g id="a_edge10_Node000010_Node000008"><a xlink:title=" ">
<path fill="none" stroke="#63b8ff" d="M155.31,-155.16C153.08,-154.11 150.88,-153.05 148.75,-152 132.35,-143.88 129.53,-139.31 112.75,-132 106.17,-129.13 98.98,-126.47 92.02,-124.12"/>
<polygon fill="#63b8ff" stroke="#63b8ff" points="153.85,-158.34 164.4,-159.28 156.74,-151.96 153.85,-158.34"/>
</a>
</g>
</g>
<!-- Node10&#45;&gt;Node9 -->
<g id="edge11_Node000010_Node000009" class="edge">
<title>Node10&#45;&gt;Node9</title>
<g id="a_edge11_Node000010_Node000009"><a xlink:title=" ">
<path fill="none" stroke="#63b8ff" d="M136.97,-162.41C119.33,-159.88 100.37,-157.17 85.38,-155.02"/>
<polygon fill="#63b8ff" stroke="#63b8ff" points="136.42,-165.87 146.82,-163.83 137.41,-158.94 136.42,-165.87"/>
</a>
</g>
</g>
<!-- Node11&#45;&gt;Node6 -->
<g id="edge13_Node000011_Node000006" class="edge">
<title>Node11&#45;&gt;Node6</title>
<g id="a_edge13_Node000011_Node000006"><a xlink:title=" ">
<path fill="none" stroke="#63b8ff" d="M415.71,-214.89C397.98,-210.01 378.15,-204.55 361.59,-200"/>
<polygon fill="#63b8ff" stroke="#63b8ff" points="414.69,-218.24 425.26,-217.51 416.55,-211.49 414.69,-218.24"/>
</a>
</g>
</g>
<!-- Node12&#45;&gt;Node7 -->
<g id="edge16_Node000012_Node000007" class="edge">
<title>Node12&#45;&gt;Node7</title>
<g id="a_edge16_Node000012_Node000007"><a xlink:title=" ">
<path fill="none" stroke="#63b8ff" d="M257.5,-123.51C248.96,-124.74 240.42,-125.98 232.46,-127.13"/>
<polygon fill="#63b8ff" stroke="#63b8ff" points="257.78,-127 267.18,-122.11 256.78,-120.08 257.78,-127"/>
</a>
</g>
</g>
<!-- Node12&#45;&gt;Node8 -->
<g id="edge17_Node000012_Node000008" class="edge">
<title>Node12&#45;&gt;Node8</title>
<g id="a_edge17_Node000012_Node000008"><a xlink:title=" ">
<path fill="none" stroke="#63b8ff" d="M257.54,-114C213.17,-114 155.24,-114 113.12,-114"/>
<polygon fill="#63b8ff" stroke="#63b8ff" points="257.29,-117.5 267.29,-114 257.29,-110.5 257.29,-117.5"/>
</a>
</g>
</g>
<!-- Node12&#45;&gt;Node10 -->
<g id="edge18_Node000012_Node000010" class="edge">
<title>Node12&#45;&gt;Node10</title>
<g id="a_edge18_Node000012_Node000010"><a xlink:title=" ">
<path fill="none" stroke="#63b8ff" d="M289.36,-128.44C266.24,-138.3 236.19,-151.11 215.6,-159.89"/>
<polygon fill="#63b8ff" stroke="#63b8ff" points="290.54,-131.75 298.37,-124.61 287.8,-125.31 290.54,-131.75"/>
</a>
</g>
</g>
<!-- Node14 -->
<g id="Node000014" class="node">
<title>Node14</title>
<g id="a_Node000014"><a xlink:href="../../d9/ddd/_c_u_d_a___integrated___numerical___method_8cpp_a4db2fe24c2a78f98ac91e9d7d271430f.html#a4db2fe24c2a78f98ac91e9d7d271430f" target="_top" xlink:title=" ">
<polygon fill="white" stroke="#666666" points="689,-256.62 549.25,-256.62 549.25,-237.38 689,-237.38 689,-256.62"/>
<text text-anchor="middle" x="619.12" y="-243.12" font-family="Helvetica,sans-Serif" font-size="10.00">Evaluate_Cell_Net_Flux_2O</text>
</a>
</g>
</g>
<!-- Node13&#45;&gt;Node14 -->
<g id="edge22_Node000013_Node000014" class="edge">
<title>Node13&#45;&gt;Node14</title>
<g id="a_edge22_Node000013_Node000014"><a xlink:title=" ">
<path fill="none" stroke="#63b8ff" d="M713.16,-247C705.44,-247 697.35,-247 689.29,-247"/>
<polygon fill="#63b8ff" stroke="#63b8ff" points="713.02,-250.5 723.02,-247 713.02,-243.5 713.02,-250.5"/>
</a>
</g>
</g>
<!-- Node14&#45;&gt;Node6 -->
<g id="edge23_Node000014_Node000006" class="edge">
<title>Node14&#45;&gt;Node6</title>
<g id="a_edge23_Node000014_Node000006"><a xlink:title=" ">
<path fill="none" stroke="#63b8ff" d="M537.33,-257.2C499.62,-259.4 454.55,-258.3 415.5,-247 383.81,-237.83 352.56,-213.86 336.45,-200.1"/>
<polygon fill="#63b8ff" stroke="#63b8ff" points="537.54,-260.7 547.28,-256.53 537.06,-253.71 537.54,-260.7"/>
</a>
</g>
</g>
<!-- Node14&#45;&gt;Node8 -->
<g id="edge25_Node000014_Node000008" class="edge">
<title>Node14&#45;&gt;Node8</title>
<g id="a_edge25_Node000014_Node000008"><a xlink:title=" ">
<path fill="none" stroke="#63b8ff" d="M563.01,-260.3C558.32,-261.77 553.67,-263.34 549.25,-265 532.51,-271.3 530.66,-278.89 513.25,-283 470.97,-292.98 458.68,-287.8 415.5,-283 290.57,-269.1 241.71,-273.62 148.75,-189 126.59,-168.83 136.4,-150.39 112.75,-132 108.68,-128.84 104.03,-126.22 99.2,-124.05"/>
<polygon fill="#63b8ff" stroke="#63b8ff" points="563.92,-263.68 572.52,-257.51 561.94,-256.97 563.92,-263.68"/>
</a>
</g>
</g>
<!-- Node14&#45;&gt;Node10 -->
<g id="edge27_Node000014_Node000010" class="edge">
<title>Node14&#45;&gt;Node10</title>
<g id="a_edge27_Node000014_Node000010"><a xlink:title=" ">
<path fill="none" stroke="#63b8ff" d="M569.39,-259.57C528.12,-268.37 467.55,-276.93 415.5,-267 332.98,-251.26 243.98,-201.61 208.16,-180.1"/>
<polygon fill="#63b8ff" stroke="#63b8ff" points="570.01,-263.02 579.01,-257.43 568.49,-256.19 570.01,-263.02"/>
</a>
</g>
</g>
<!-- Node14&#45;&gt;Node11 -->
<g id="edge24_Node000014_Node000011" class="edge">
<title>Node14&#45;&gt;Node11</title>
<g id="a_edge24_Node000014_Node000011"><a xlink:title=" ">
<path fill="none" stroke="#63b8ff" d="M537.62,-236.99C529.35,-235.96 521.14,-234.94 513.39,-233.97"/>
<polygon fill="#63b8ff" stroke="#63b8ff" points="537.04,-240.44 547.4,-238.2 537.91,-233.49 537.04,-240.44"/>
</a>
</g>
</g>
<!-- Node14&#45;&gt;Node12 -->
<g id="edge26_Node000014_Node000012" class="edge">
<title>Node14&#45;&gt;Node12</title>
<g id="a_edge26_Node000014_Node000012"><a xlink:title=" ">
<path fill="none" stroke="#63b8ff" d="M585.72,-232.29C525.75,-205.05 398.87,-147.43 347.52,-124.11"/>
<polygon fill="#63b8ff" stroke="#63b8ff" points="584.18,-235.43 594.73,-236.38 587.08,-229.06 584.18,-235.43"/>
</a>
</g>
</g>
</g>
</svg>
