<?xml version="1.0" encoding="UTF-8" standalone="no"?>
<!DOCTYPE svg PUBLIC "-//W3C//DTD SVG 1.1//EN"
 "http://www.w3.org/Graphics/SVG/1.1/DTD/svg11.dtd">
<!-- Generated by graphviz version 12.2.1 (20241206.2353)
 -->
<!-- Title: Vector_Reset Pages: 1 -->
<svg width="1018pt" height="648pt"
 viewBox="0.00 0.00 1017.75 647.88" xmlns="http://www.w3.org/2000/svg" xmlns:xlink="http://www.w3.org/1999/xlink">
<g id="graph0" class="graph" transform="scale(1 1) rotate(0) translate(4 643.88)">
<title>Vector_Reset</title>
<!-- Node1 -->
<g id="Node000001" class="node">
<title>Node1</title>
<g id="a_Node000001"><a xlink:title=" ">
<polygon fill="#999999" stroke="#666666" points="1009.75,-322.25 933.75,-322.25 933.75,-303 1009.75,-303 1009.75,-322.25"/>
<text text-anchor="middle" x="971.75" y="-308.75" font-family="Helvetica,sans-Serif" font-size="10.00">Vector_Reset</text>
</a>
</g>
</g>
<!-- Node2 -->
<g id="Node000002" class="node">
<title>Node2</title>
<g id="a_Node000002"><a xlink:href="../../df/d43/_basic___functions_8cpp_a6e64732a34493cfc9ffdd2d83cc06ed5.html#a6e64732a34493cfc9ffdd2d83cc06ed5" target="_top" xlink:title=" ">
<polygon fill="white" stroke="#666666" points="893.62,-639.88 768.12,-639.88 768.12,-609.38 893.62,-609.38 893.62,-639.88"/>
<text text-anchor="start" x="776.12" y="-626.38" font-family="Helvetica,sans-Serif" font-size="10.00">Calculate_Computational</text>
<text text-anchor="middle" x="830.88" y="-615.12" font-family="Helvetica,sans-Serif" font-size="10.00">_Variables</text>
</a>
</g>
</g>
<!-- Node1&#45;&gt;Node2 -->
<g id="edge1_Node000001_Node000002" class="edge">
<title>Node1&#45;&gt;Node2</title>
<g id="a_edge1_Node000001_Node000002"><a xlink:title=" ">
<path fill="none" stroke="#63b8ff" d="M971.58,-333.86C972.46,-385.94 967.49,-521.47 897.75,-599.62 894.49,-603.28 890.64,-606.4 886.47,-609.06"/>
<polygon fill="#63b8ff" stroke="#63b8ff" points="975.09,-333.91 971.31,-324.01 968.09,-334.1 975.09,-333.91"/>
</a>
</g>
</g>
<!-- Node3 -->
<g id="Node000003" class="node">
<title>Node3</title>
<g id="a_Node000003"><a xlink:href="../../df/d43/_basic___functions_8cpp_a5a8dcaaf0c8799789175fc6945829471.html#a5a8dcaaf0c8799789175fc6945829471" target="_top" xlink:title=" ">
<polygon fill="white" stroke="#666666" points="881.25,-590.88 780.5,-590.88 780.5,-560.38 881.25,-560.38 881.25,-590.88"/>
<text text-anchor="start" x="788.5" y="-577.38" font-family="Helvetica,sans-Serif" font-size="10.00">Calculate_Primitive</text>
<text text-anchor="middle" x="830.88" y="-566.12" font-family="Helvetica,sans-Serif" font-size="10.00">_Variables</text>
</a>
</g>
</g>
<!-- Node1&#45;&gt;Node3 -->
<g id="edge2_Node000001_Node000003" class="edge">
<title>Node1&#45;&gt;Node3</title>
<g id="a_edge2_Node000001_Node000003"><a xlink:title=" ">
<path fill="none" stroke="#63b8ff" d="M970.21,-334.17C967.92,-380.03 956.24,-488.2 897.75,-550.62 893.15,-555.53 887.49,-559.49 881.43,-562.67"/>
<polygon fill="#63b8ff" stroke="#63b8ff" points="973.71,-334.39 970.59,-324.26 966.71,-334.12 973.71,-334.39"/>
</a>
</g>
</g>
<!-- Node4 -->
<g id="Node000004" class="node">
<title>Node4</title>
<g id="a_Node000004"><a xlink:href="../../d6/da5/_flux___jacobian_8cpp_afbbefa55a3532b90c1fa3d4740a0b8d3.html#afbbefa55a3532b90c1fa3d4740a0b8d3" target="_top" xlink:title=" ">
<polygon fill="white" stroke="#666666" points="892.88,-493.25 768.88,-493.25 768.88,-474 892.88,-474 892.88,-493.25"/>
<text text-anchor="middle" x="830.88" y="-479.75" font-family="Helvetica,sans-Serif" font-size="10.00">Compute_Flux_Jacobian</text>
</a>
</g>
</g>
<!-- Node1&#45;&gt;Node4 -->
<g id="edge3_Node000001_Node000004" class="edge">
<title>Node1&#45;&gt;Node4</title>
<g id="a_edge3_Node000001_Node000004"><a xlink:title=" ">
<path fill="none" stroke="#63b8ff" d="M965.77,-333.32C957.16,-364.85 936.57,-424.91 897.75,-459.62 891.04,-465.63 882.7,-470.17 874.24,-473.59"/>
<polygon fill="#63b8ff" stroke="#63b8ff" points="969.1,-334.42 968.21,-323.86 962.32,-332.68 969.1,-334.42"/>
</a>
</g>
</g>
<!-- Node16 -->
<g id="Node000016" class="node">
<title>Node16</title>
<g id="a_Node000016"><a xlink:href="../../d6/da5/_flux___jacobian_8cpp_aacc73d4767c573d4db61bbf2e502d331.html#aacc73d4767c573d4db61bbf2e502d331" target="_top" xlink:title=" ">
<polygon fill="white" stroke="#666666" points="892.5,-541.88 769.25,-541.88 769.25,-511.38 892.5,-511.38 892.5,-541.88"/>
<text text-anchor="start" x="777.25" y="-528.38" font-family="Helvetica,sans-Serif" font-size="10.00">ComputeGhostCell_Flux</text>
<text text-anchor="middle" x="830.88" y="-517.12" font-family="Helvetica,sans-Serif" font-size="10.00">_Jacobian</text>
</a>
</g>
</g>
<!-- Node1&#45;&gt;Node16 -->
<g id="edge18_Node000001_Node000016" class="edge">
<title>Node1&#45;&gt;Node16</title>
<g id="a_edge18_Node000001_Node000016"><a xlink:title=" ">
<path fill="none" stroke="#63b8ff" d="M968.36,-333.78C962.9,-372.52 945.98,-455.23 897.75,-502.62 894.54,-505.78 890.88,-508.53 886.97,-510.91"/>
<polygon fill="#63b8ff" stroke="#63b8ff" points="971.82,-334.3 969.62,-323.94 964.88,-333.42 971.82,-334.3"/>
</a>
</g>
</g>
<!-- Node17 -->
<g id="Node000017" class="node">
<title>Node17</title>
<g id="a_Node000017"><a xlink:href="../../d9/d1f/_error___estimate___update_8cpp_a9a9f51a5331b903d6669d2ce013a8ee7.html#a9a9f51a5331b903d6669d2ce013a8ee7" target="_top" xlink:title=" ">
<polygon fill="white" stroke="#666666" points="501.25,-394.25 420,-394.25 420,-375 501.25,-375 501.25,-394.25"/>
<text text-anchor="middle" x="460.62" y="-380.75" font-family="Helvetica,sans-Serif" font-size="10.00">Estimate_Error</text>
</a>
</g>
</g>
<!-- Node1&#45;&gt;Node17 -->
<g id="edge21_Node000001_Node000017" class="edge">
<title>Node1&#45;&gt;Node17</title>
<g id="a_edge21_Node000001_Node000017"><a xlink:title=" ">
<path fill="none" stroke="#63b8ff" d="M958.04,-331.87C945.07,-349.92 923.25,-376.23 897.75,-390.62 830.58,-428.53 804.7,-418.58 728,-426.62 659.93,-433.76 639.51,-446.46 574,-426.62 555.6,-421.05 555.64,-410.29 538,-402.62 526.63,-397.69 513.69,-393.98 501.74,-391.26"/>
<polygon fill="#63b8ff" stroke="#63b8ff" points="960.79,-334.05 963.6,-323.83 955.03,-330.06 960.79,-334.05"/>
</a>
</g>
</g>
<!-- Node18 -->
<g id="Node000018" class="node">
<title>Node18</title>
<g id="a_Node000018"><a xlink:href="../../df/d36/_wall___boundary___conditions_8cpp_a9e2645ad4f32bcba4ffb3a64134d2921.html#a9e2645ad4f32bcba4ffb3a64134d2921" target="_top" xlink:title=" ">
<polygon fill="white" stroke="#666666" points="711.88,-293.88 590.12,-293.88 590.12,-263.38 711.88,-263.38 711.88,-293.88"/>
<text text-anchor="start" x="598.12" y="-280.38" font-family="Helvetica,sans-Serif" font-size="10.00">InViscid_Wall_Boundary</text>
<text text-anchor="middle" x="651" y="-269.12" font-family="Helvetica,sans-Serif" font-size="10.00">_Condition</text>
</a>
</g>
</g>
<!-- Node1&#45;&gt;Node18 -->
<g id="edge24_Node000001_Node000018" class="edge">
<title>Node1&#45;&gt;Node18</title>
<g id="a_edge24_Node000001_Node000018"><a xlink:title=" ">
<path fill="none" stroke="#63b8ff" d="M922.13,-307.44C865.85,-301.44 773.13,-291.55 712.3,-285.06"/>
<polygon fill="#63b8ff" stroke="#63b8ff" points="921.74,-310.92 932.06,-308.5 922.48,-303.96 921.74,-310.92"/>
</a>
</g>
</g>
<!-- Node23 -->
<g id="Node000023" class="node">
<title>Node23</title>
<g id="a_Node000023"><a xlink:href="../../de/d8d/_exit___boundary___conditions_8cpp_a59fe8a866adf086e11dc4391cf24254c.html#a59fe8a866adf086e11dc4391cf24254c" target="_top" xlink:title=" ">
<polygon fill="white" stroke="#666666" points="893.62,-178.88 768.12,-178.88 768.12,-148.38 893.62,-148.38 893.62,-178.88"/>
<text text-anchor="start" x="776.12" y="-165.38" font-family="Helvetica,sans-Serif" font-size="10.00">Subsonic_Exit_Boundary</text>
<text text-anchor="middle" x="830.88" y="-154.12" font-family="Helvetica,sans-Serif" font-size="10.00">_Condition</text>
</a>
</g>
</g>
<!-- Node1&#45;&gt;Node23 -->
<g id="edge32_Node000001_Node000023" class="edge">
<title>Node1&#45;&gt;Node23</title>
<g id="a_edge32_Node000001_Node000023"><a xlink:title=" ">
<path fill="none" stroke="#63b8ff" d="M963.66,-292.15C953.25,-264.93 931.35,-216.97 897.75,-188.62 893.54,-185.08 888.78,-182 883.78,-179.35"/>
<polygon fill="#63b8ff" stroke="#63b8ff" points="960.29,-293.13 967.01,-301.32 966.86,-290.73 960.29,-293.13"/>
</a>
</g>
</g>
<!-- Node24 -->
<g id="Node000024" class="node">
<title>Node24</title>
<g id="a_Node000024"><a xlink:href="../../dd/d15/_inlet___boundary___conditions_8cpp_a92317da30905d779544dbc465c46f00c.html#a92317da30905d779544dbc465c46f00c" target="_top" xlink:title=" ">
<polygon fill="white" stroke="#666666" points="714.5,-245.25 587.5,-245.25 587.5,-226 714.5,-226 714.5,-245.25"/>
<text text-anchor="middle" x="651" y="-231.75" font-family="Helvetica,sans-Serif" font-size="10.00">Subsonic_Inlet_Condition</text>
</a>
</g>
</g>
<!-- Node1&#45;&gt;Node24 -->
<g id="edge33_Node000001_Node000024" class="edge">
<title>Node1&#45;&gt;Node24</title>
<g id="a_edge33_Node000001_Node000024"><a xlink:title=" ">
<path fill="none" stroke="#63b8ff" d="M934.67,-298.66C922.99,-294.45 909.92,-290.04 897.75,-286.62 835.24,-269.1 762.24,-254.69 712.14,-245.72"/>
<polygon fill="#63b8ff" stroke="#63b8ff" points="933.34,-301.91 943.93,-302.08 935.76,-295.34 933.34,-301.91"/>
</a>
</g>
</g>
<!-- Node25 -->
<g id="Node000025" class="node">
<title>Node25</title>
<g id="a_Node000025"><a xlink:href="../../d5/d2f/_far___field___boundary___condition_8cpp_a907b7b5ada3b6ad6cdb91ae6181b7227.html#a907b7b5ada3b6ad6cdb91ae6181b7227" target="_top" xlink:title=" ">
<polygon fill="white" stroke="#666666" points="882.38,-130.25 779.38,-130.25 779.38,-111 882.38,-111 882.38,-130.25"/>
<text text-anchor="middle" x="830.88" y="-116.75" font-family="Helvetica,sans-Serif" font-size="10.00">Super_Sonic_Inflow</text>
</a>
</g>
</g>
<!-- Node1&#45;&gt;Node25 -->
<g id="edge35_Node000001_Node000025" class="edge">
<title>Node1&#45;&gt;Node25</title>
<g id="a_edge35_Node000001_Node000025"><a xlink:title=" ">
<path fill="none" stroke="#63b8ff" d="M967.81,-291.54C961.61,-255.13 943.76,-180.48 897.75,-139.62 893.3,-135.67 888.08,-132.54 882.55,-130.06"/>
<polygon fill="#63b8ff" stroke="#63b8ff" points="964.32,-291.86 969.31,-301.21 971.23,-290.79 964.32,-291.86"/>
</a>
</g>
</g>
<!-- Node26 -->
<g id="Node000026" class="node">
<title>Node26</title>
<g id="a_Node000026"><a xlink:href="../../de/d8d/_exit___boundary___conditions_8cpp_aee793388170b1f1282aa7ada9cb1985d.html#aee793388170b1f1282aa7ada9cb1985d" target="_top" xlink:title=" ">
<polygon fill="white" stroke="#666666" points="897.75,-227.88 764,-227.88 764,-197.38 897.75,-197.38 897.75,-227.88"/>
<text text-anchor="start" x="772" y="-214.38" font-family="Helvetica,sans-Serif" font-size="10.00">Supersonic_Exit_Boundary</text>
<text text-anchor="middle" x="830.88" y="-203.12" font-family="Helvetica,sans-Serif" font-size="10.00">_Condition</text>
</a>
</g>
</g>
<!-- Node1&#45;&gt;Node26 -->
<g id="edge36_Node000001_Node000026" class="edge">
<title>Node1&#45;&gt;Node26</title>
<g id="a_edge36_Node000001_Node000026"><a xlink:title=" ">
<path fill="none" stroke="#63b8ff" d="M955.47,-294.47C941.63,-278.9 920.05,-256.66 897.75,-241.62 890.29,-236.6 881.81,-232.1 873.49,-228.24"/>
<polygon fill="#63b8ff" stroke="#63b8ff" points="952.47,-296.37 961.67,-301.62 957.76,-291.78 952.47,-296.37"/>
</a>
</g>
</g>
<!-- Node28 -->
<g id="Node000028" class="node">
<title>Node28</title>
<g id="a_Node000028"><a xlink:href="../../dd/d15/_inlet___boundary___conditions_8cpp_a25cc0bf77642815d139d73ca5be9e3dc.html#a25cc0bf77642815d139d73ca5be9e3dc" target="_top" xlink:title=" ">
<polygon fill="white" stroke="#666666" points="718.62,-417.25 583.38,-417.25 583.38,-398 718.62,-398 718.62,-417.25"/>
<text text-anchor="middle" x="651" y="-403.75" font-family="Helvetica,sans-Serif" font-size="10.00">Supersonic_Inlet_Condition</text>
</a>
</g>
</g>
<!-- Node1&#45;&gt;Node28 -->
<g id="edge39_Node000001_Node000028" class="edge">
<title>Node1&#45;&gt;Node28</title>
<g id="a_edge39_Node000001_Node000028"><a xlink:title=" ">
<path fill="none" stroke="#63b8ff" d="M949.2,-329.62C935.26,-339.79 916.32,-352.16 897.75,-359.62 839.78,-382.95 769.42,-395.21 718.87,-401.48"/>
<polygon fill="#63b8ff" stroke="#63b8ff" points="951.29,-332.42 957.17,-323.61 947.08,-326.83 951.29,-332.42"/>
</a>
</g>
</g>
<!-- Node29 -->
<g id="Node000029" class="node">
<title>Node29</title>
<g id="a_Node000029"><a xlink:href="../../df/d36/_wall___boundary___conditions_8cpp_a4d3a822572d76209fad9b1faec4086f4.html#a4d3a822572d76209fad9b1faec4086f4" target="_top" xlink:title=" ">
<polygon fill="white" stroke="#666666" points="728,-380.25 574,-380.25 574,-361 728,-361 728,-380.25"/>
<text text-anchor="middle" x="651" y="-366.75" font-family="Helvetica,sans-Serif" font-size="10.00">Symmetry_Boundary_Condition</text>
</a>
</g>
</g>
<!-- Node1&#45;&gt;Node29 -->
<g id="edge41_Node000001_Node000029" class="edge">
<title>Node1&#45;&gt;Node29</title>
<g id="a_edge41_Node000001_Node000029"><a xlink:title=" ">
<path fill="none" stroke="#63b8ff" d="M928.15,-325.89C918.23,-328.7 907.67,-331.46 897.75,-333.62 841.47,-345.9 777.06,-355.44 728.3,-361.75"/>
<polygon fill="#63b8ff" stroke="#63b8ff" points="928.92,-329.31 937.55,-323.16 926.97,-322.59 928.92,-329.31"/>
</a>
</g>
</g>
<!-- Node30 -->
<g id="Node000030" class="node">
<title>Node30</title>
<g id="a_Node000030"><a xlink:href="../../d9/d1f/_error___estimate___update_8cpp_a85083f46c6e2f45acd7b57694d88a9be.html#a85083f46c6e2f45acd7b57694d88a9be" target="_top" xlink:title=" ">
<polygon fill="white" stroke="#666666" points="854.62,-93.25 807.12,-93.25 807.12,-74 854.62,-74 854.62,-93.25"/>
<text text-anchor="middle" x="830.88" y="-79.75" font-family="Helvetica,sans-Serif" font-size="10.00">Update</text>
</a>
</g>
</g>
<!-- Node1&#45;&gt;Node30 -->
<g id="edge43_Node000001_Node000030" class="edge">
<title>Node1&#45;&gt;Node30</title>
<g id="a_edge43_Node000001_Node000030"><a xlink:title=" ">
<path fill="none" stroke="#63b8ff" d="M969.68,-291.09C966.39,-248.51 952.9,-153.23 897.75,-101.62 886.24,-90.85 868.91,-86.41 854.91,-84.64"/>
<polygon fill="#63b8ff" stroke="#63b8ff" points="966.19,-291.24 970.32,-300.99 973.17,-290.79 966.19,-291.24"/>
</a>
</g>
</g>
<!-- Node31 -->
<g id="Node000031" class="node">
<title>Node31</title>
<g id="a_Node000031"><a xlink:href="../../d9/d1f/_error___estimate___update_8cpp_a3658b001ca4b1936550d8299999dd08b.html#a3658b001ca4b1936550d8299999dd08b" target="_top" xlink:title=" ">
<polygon fill="white" stroke="#666666" points="854.62,-56.25 807.12,-56.25 807.12,-37 854.62,-37 854.62,-56.25"/>
<text text-anchor="middle" x="830.88" y="-42.75" font-family="Helvetica,sans-Serif" font-size="10.00">Update</text>
</a>
</g>
</g>
<!-- Node1&#45;&gt;Node31 -->
<g id="edge44_Node000001_Node000031" class="edge">
<title>Node1&#45;&gt;Node31</title>
<g id="a_edge44_Node000001_Node000031"><a xlink:title=" ">
<path fill="none" stroke="#63b8ff" d="M971,-291.34C970.36,-243.66 961.89,-127.52 897.75,-64.62 886.49,-53.58 869.15,-49.16 855.09,-47.45"/>
<polygon fill="#63b8ff" stroke="#63b8ff" points="967.5,-291.13 971.01,-301.13 974.5,-291.12 967.5,-291.13"/>
</a>
</g>
</g>
<!-- Node32 -->
<g id="Node000032" class="node">
<title>Node32</title>
<g id="a_Node000032"><a xlink:href="../../d9/d1f/_error___estimate___update_8cpp_a72ec9272a947862267874bef9f0f929c.html#a72ec9272a947862267874bef9f0f929c" target="_top" xlink:title=" ">
<polygon fill="white" stroke="#666666" points="854.62,-19.25 807.12,-19.25 807.12,0 854.62,0 854.62,-19.25"/>
<text text-anchor="middle" x="830.88" y="-5.75" font-family="Helvetica,sans-Serif" font-size="10.00">Update</text>
</a>
</g>
</g>
<!-- Node1&#45;&gt;Node32 -->
<g id="edge45_Node000001_Node000032" class="edge">
<title>Node1&#45;&gt;Node32</title>
<g id="a_edge45_Node000001_Node000032"><a xlink:title=" ">
<path fill="none" stroke="#63b8ff" d="M968.07,-291.31C960.19,-231.8 935.22,-65.7 897.75,-27.62 886.61,-16.3 869.08,-11.9 854.91,-10.28"/>
<polygon fill="#63b8ff" stroke="#63b8ff" points="964.59,-291.63 969.34,-301.1 971.53,-290.73 964.59,-291.63"/>
</a>
</g>
</g>
<!-- Node33 -->
<g id="Node000033" class="node">
<title>Node33</title>
<g id="a_Node000033"><a xlink:href="../../df/d36/_wall___boundary___conditions_8cpp_a35cf6a79b3a50b10bf277b98c8d14ed7.html#a35cf6a79b3a50b10bf277b98c8d14ed7" target="_top" xlink:title=" ">
<polygon fill="white" stroke="#666666" points="711.88,-342.88 590.12,-342.88 590.12,-312.38 711.88,-312.38 711.88,-342.88"/>
<text text-anchor="start" x="598.12" y="-329.38" font-family="Helvetica,sans-Serif" font-size="10.00">Viscous_Wall_Boundary</text>
<text text-anchor="middle" x="651" y="-318.12" font-family="Helvetica,sans-Serif" font-size="10.00">_Condition</text>
</a>
</g>
</g>
<!-- Node1&#45;&gt;Node33 -->
<g id="edge46_Node000001_Node000033" class="edge">
<title>Node1&#45;&gt;Node33</title>
<g id="a_edge46_Node000001_Node000033"><a xlink:title=" ">
<path fill="none" stroke="#63b8ff" d="M922.13,-314.91C865.85,-317.56 773.13,-321.92 712.3,-324.79"/>
<polygon fill="#63b8ff" stroke="#63b8ff" points="922.23,-318.41 932.05,-314.45 921.9,-311.42 922.23,-318.41"/>
</a>
</g>
</g>
<!-- Node5 -->
<g id="Node000005" class="node">
<title>Node5</title>
<g id="a_Node000005"><a xlink:href="../../db/dbe/_assemble___matrix_8cpp_ad90382595c8b02e815e463639d84baa7.html#ad90382595c8b02e815e463639d84baa7" target="_top" xlink:title=" ">
<polygon fill="white" stroke="#666666" points="686.75,-493.25 615.25,-493.25 615.25,-474 686.75,-474 686.75,-493.25"/>
<text text-anchor="middle" x="651" y="-479.75" font-family="Helvetica,sans-Serif" font-size="10.00">Assemble_A</text>
</a>
</g>
</g>
<!-- Node4&#45;&gt;Node5 -->
<g id="edge4_Node000004_Node000005" class="edge">
<title>Node4&#45;&gt;Node5</title>
<g id="a_edge4_Node000004_Node000005"><a xlink:title=" ">
<path fill="none" stroke="#63b8ff" d="M757.3,-483.62C733.07,-483.62 707.16,-483.62 687.11,-483.62"/>
<polygon fill="#63b8ff" stroke="#63b8ff" points="757.15,-487.13 767.15,-483.63 757.15,-480.13 757.15,-487.13"/>
</a>
</g>
</g>
<!-- Node14 -->
<g id="Node000014" class="node">
<title>Node14</title>
<g id="a_Node000014"><a xlink:href="../../db/dbe/_assemble___matrix_8cpp_ab40202302c5e7f6e97927b7fba467369.html#ab40202302c5e7f6e97927b7fba467369" target="_top" xlink:title=" ">
<polygon fill="white" stroke="#666666" points="689.38,-536.25 612.62,-536.25 612.62,-517 689.38,-517 689.38,-536.25"/>
<text text-anchor="middle" x="651" y="-522.75" font-family="Helvetica,sans-Serif" font-size="10.00">Assemble_A1</text>
</a>
</g>
</g>
<!-- Node4&#45;&gt;Node14 -->
<g id="edge15_Node000004_Node000014" class="edge">
<title>Node4&#45;&gt;Node14</title>
<g id="a_edge15_Node000004_Node000014"><a xlink:title=" ">
<path fill="none" stroke="#63b8ff" d="M777.33,-496.33C749.23,-503.12 715.28,-511.33 689.81,-517.49"/>
<polygon fill="#63b8ff" stroke="#63b8ff" points="777.8,-499.81 786.7,-494.06 776.16,-493.01 777.8,-499.81"/>
</a>
</g>
</g>
<!-- Node6 -->
<g id="Node000006" class="node">
<title>Node6</title>
<g id="a_Node000006"><a xlink:href="../../d5/d81/_matrix___assembly___c_u_d_a___integration___example_8cpp_ab733b6db749fdfbc6665f7e34b50e5ad.html#ab733b6db749fdfbc6665f7e34b50e5ad" target="_top" xlink:title=" ">
<polygon fill="white" stroke="#666666" points="532.38,-516.88 388.88,-516.88 388.88,-486.38 532.38,-486.38 532.38,-516.88"/>
<text text-anchor="start" x="396.88" y="-503.38" font-family="Helvetica,sans-Serif" font-size="10.00">benchmark_matrix_assembly</text>
<text text-anchor="middle" x="460.62" y="-492.12" font-family="Helvetica,sans-Serif" font-size="10.00">_cpu_vs_cuda</text>
</a>
</g>
</g>
<!-- Node5&#45;&gt;Node6 -->
<g id="edge5_Node000005_Node000006" class="edge">
<title>Node5&#45;&gt;Node6</title>
<g id="a_edge5_Node000005_Node000006"><a xlink:title=" ">
<path fill="none" stroke="#63b8ff" d="M603.64,-488.05C582.28,-490.1 556.45,-492.56 532.71,-494.83"/>
<polygon fill="#63b8ff" stroke="#63b8ff" points="603.88,-491.55 613.5,-487.11 603.22,-484.58 603.88,-491.55"/>
</a>
</g>
</g>
<!-- Node8 -->
<g id="Node000008" class="node">
<title>Node8</title>
<g id="a_Node000008"><a xlink:href="../../d0/d64/_numerical___method_8cpp_aa2c3379901e623826515d4c9cd96cebe.html#aa2c3379901e623826515d4c9cd96cebe" target="_top" xlink:title=" ">
<polygon fill="white" stroke="#666666" points="503.12,-431.25 418.12,-431.25 418.12,-412 503.12,-412 503.12,-431.25"/>
<text text-anchor="middle" x="460.62" y="-417.75" font-family="Helvetica,sans-Serif" font-size="10.00">Implicit_Method</text>
</a>
</g>
</g>
<!-- Node5&#45;&gt;Node8 -->
<g id="edge7_Node000005_Node000008" class="edge">
<title>Node5&#45;&gt;Node8</title>
<g id="a_edge7_Node000005_Node000008"><a xlink:title=" ">
<path fill="none" stroke="#63b8ff" d="M604.3,-470.83C594.18,-467.55 583.61,-463.76 574,-459.62 557.19,-452.39 555.07,-446.23 538,-439.62 527.07,-435.4 514.87,-431.98 503.48,-429.3"/>
<polygon fill="#63b8ff" stroke="#63b8ff" points="603,-474.1 613.59,-473.74 605.09,-467.42 603,-474.1"/>
</a>
</g>
</g>
<!-- Node13 -->
<g id="Node000013" class="node">
<title>Node13</title>
<g id="a_Node000013"><a xlink:href="../../d5/d81/_matrix___assembly___c_u_d_a___integration___example_8cpp_a3a3d77470391a4e87bd8c9864348d89f.html#a3a3d77470391a4e87bd8c9864348d89f" target="_top" xlink:title=" ">
<polygon fill="white" stroke="#666666" points="538,-468.25 383.25,-468.25 383.25,-449 538,-449 538,-468.25"/>
<text text-anchor="middle" x="460.62" y="-454.75" font-family="Helvetica,sans-Serif" font-size="10.00">validate_cuda_cpu_consistency</text>
</a>
</g>
</g>
<!-- Node5&#45;&gt;Node13 -->
<g id="edge13_Node000005_Node000013" class="edge">
<title>Node5&#45;&gt;Node13</title>
<g id="a_edge13_Node000005_Node000013"><a xlink:title=" ">
<path fill="none" stroke="#63b8ff" d="M603.8,-477.49C583.92,-474.86 560.16,-471.7 537.8,-468.73"/>
<polygon fill="#63b8ff" stroke="#63b8ff" points="603.14,-480.94 613.51,-478.78 604.06,-474 603.14,-480.94"/>
</a>
</g>
</g>
<!-- Node7 -->
<g id="Node000007" class="node">
<title>Node7</title>
<g id="a_Node000007"><a xlink:href="../../d5/d81/_matrix___assembly___c_u_d_a___integration___example_8cpp_a040fa30a7d9a31fc77785e00a27f6fa6.html#a040fa30a7d9a31fc77785e00a27f6fa6" target="_top" xlink:title=" ">
<polygon fill="white" stroke="#666666" points="347.25,-516.88 218.75,-516.88 218.75,-486.38 347.25,-486.38 347.25,-516.88"/>
<text text-anchor="start" x="226.75" y="-503.38" font-family="Helvetica,sans-Serif" font-size="10.00">demonstrate_cuda_matrix</text>
<text text-anchor="middle" x="283" y="-492.12" font-family="Helvetica,sans-Serif" font-size="10.00">_assembly</text>
</a>
</g>
</g>
<!-- Node6&#45;&gt;Node7 -->
<g id="edge6_Node000006_Node000007" class="edge">
<title>Node6&#45;&gt;Node7</title>
<g id="a_edge6_Node000006_Node000007"><a xlink:title=" ">
<path fill="none" stroke="#63b8ff" d="M376.95,-501.62C367.1,-501.62 357.17,-501.62 347.65,-501.62"/>
<polygon fill="#63b8ff" stroke="#63b8ff" points="376.93,-505.13 386.93,-501.63 376.93,-498.13 376.93,-505.13"/>
</a>
</g>
</g>
<!-- Node9 -->
<g id="Node000009" class="node">
<title>Node9</title>
<g id="a_Node000009"><a xlink:href="../../de/df0/_solver_8cpp_a09703a294b5a4e270033b2d488f8f02a.html#a09703a294b5a4e270033b2d488f8f02a" target="_top" xlink:title=" ">
<polygon fill="white" stroke="#666666" points="324.38,-394.25 241.62,-394.25 241.62,-375 324.38,-375 324.38,-394.25"/>
<text text-anchor="middle" x="283" y="-380.75" font-family="Helvetica,sans-Serif" font-size="10.00">Inviscid_Solver</text>
</a>
</g>
</g>
<!-- Node8&#45;&gt;Node9 -->
<g id="edge8_Node000008_Node000009" class="edge">
<title>Node8&#45;&gt;Node9</title>
<g id="a_edge8_Node000008_Node000009"><a xlink:title=" ">
<path fill="none" stroke="#63b8ff" d="M407.05,-410.55C380.68,-404.99 349.22,-398.37 324.72,-393.2"/>
<polygon fill="#63b8ff" stroke="#63b8ff" points="406.02,-413.91 416.52,-412.54 407.46,-407.06 406.02,-413.91"/>
</a>
</g>
</g>
<!-- Node12 -->
<g id="Node000012" class="node">
<title>Node12</title>
<g id="a_Node000012"><a xlink:href="../../de/df0/_solver_8cpp_a313c308da18b517cb3cf0384db6d4d7e.html#a313c308da18b517cb3cf0384db6d4d7e" target="_top" xlink:title=" ">
<polygon fill="white" stroke="#666666" points="325.12,-431.25 240.88,-431.25 240.88,-412 325.12,-412 325.12,-431.25"/>
<text text-anchor="middle" x="283" y="-417.75" font-family="Helvetica,sans-Serif" font-size="10.00">Viscous_Solver</text>
</a>
</g>
</g>
<!-- Node8&#45;&gt;Node12 -->
<g id="edge11_Node000008_Node000012" class="edge">
<title>Node8&#45;&gt;Node12</title>
<g id="a_edge11_Node000008_Node000012"><a xlink:title=" ">
<path fill="none" stroke="#63b8ff" d="M406.78,-421.62C380.68,-421.62 349.65,-421.62 325.32,-421.62"/>
<polygon fill="#63b8ff" stroke="#63b8ff" points="406.49,-425.13 416.49,-421.63 406.49,-418.13 406.49,-425.13"/>
</a>
</g>
</g>
<!-- Node10 -->
<g id="Node000010" class="node">
<title>Node10</title>
<g id="a_Node000010"><a xlink:href="../../d5/d12/_main_8cpp_afed4dca88e059a8cbd2c7af524468fe5.html#afed4dca88e059a8cbd2c7af524468fe5" target="_top" xlink:title="Executes the appropriate solver based on the simulation configuration.">
<polygon fill="white" stroke="#666666" points="156.5,-412.25 99.25,-412.25 99.25,-393 156.5,-393 156.5,-412.25"/>
<text text-anchor="middle" x="127.88" y="-398.75" font-family="Helvetica,sans-Serif" font-size="10.00">runSolver</text>
</a>
</g>
</g>
<!-- Node9&#45;&gt;Node10 -->
<g id="edge9_Node000009_Node000010" class="edge">
<title>Node9&#45;&gt;Node10</title>
<g id="a_edge9_Node000009_Node000010"><a xlink:title=" ">
<path fill="none" stroke="#63b8ff" d="M230.01,-390.74C205.42,-393.63 177.05,-396.96 156.62,-399.36"/>
<polygon fill="#63b8ff" stroke="#63b8ff" points="230.34,-394.22 239.86,-389.58 229.52,-387.27 230.34,-394.22"/>
</a>
</g>
</g>
<!-- Node11 -->
<g id="Node000011" class="node">
<title>Node11</title>
<g id="a_Node000011"><a xlink:href="../../d5/d12/_main_8cpp_a0ddf1224851353fc92bfbff6f499fa97.html#a0ddf1224851353fc92bfbff6f499fa97" target="_top" xlink:title=" ">
<polygon fill="white" stroke="#666666" points="37,-412.25 0,-412.25 0,-393 37,-393 37,-412.25"/>
<text text-anchor="middle" x="18.5" y="-398.75" font-family="Helvetica,sans-Serif" font-size="10.00">main</text>
</a>
</g>
</g>
<!-- Node10&#45;&gt;Node11 -->
<g id="edge10_Node000010_Node000011" class="edge">
<title>Node10&#45;&gt;Node11</title>
<g id="a_edge10_Node000010_Node000011"><a xlink:title=" ">
<path fill="none" stroke="#63b8ff" d="M87.44,-402.62C70.19,-402.62 50.83,-402.62 37.2,-402.62"/>
<polygon fill="#63b8ff" stroke="#63b8ff" points="87.43,-406.13 97.43,-402.63 87.43,-399.13 87.43,-406.13"/>
</a>
</g>
</g>
<!-- Node12&#45;&gt;Node10 -->
<g id="edge12_Node000012_Node000010" class="edge">
<title>Node12&#45;&gt;Node10</title>
<g id="a_edge12_Node000012_Node000010"><a xlink:title=" ">
<path fill="none" stroke="#63b8ff" d="M229.3,-415.09C204.95,-412.06 177.01,-408.6 156.8,-406.09"/>
<polygon fill="#63b8ff" stroke="#63b8ff" points="228.71,-418.54 239.06,-416.3 229.57,-411.59 228.71,-418.54"/>
</a>
</g>
</g>
<!-- Node13&#45;&gt;Node7 -->
<g id="edge14_Node000013_Node000007" class="edge">
<title>Node13&#45;&gt;Node7</title>
<g id="a_edge14_Node000013_Node000007"><a xlink:title=" ">
<path fill="none" stroke="#63b8ff" d="M407.43,-471.4C388.65,-476 367.25,-481.24 347.61,-486.05"/>
<polygon fill="#63b8ff" stroke="#63b8ff" points="408.1,-474.84 416.98,-469.07 406.43,-468.05 408.1,-474.84"/>
</a>
</g>
</g>
<!-- Node15 -->
<g id="Node000015" class="node">
<title>Node15</title>
<g id="a_Node000015"><a xlink:href="../../d5/d81/_matrix___assembly___c_u_d_a___integration___example_8cpp_a5c8a4e884792f59235b7ed2070521d14.html#a5c8a4e884792f59235b7ed2070521d14" target="_top" xlink:title=" ">
<polygon fill="white" stroke="#666666" points="526,-565.88 395.25,-565.88 395.25,-535.38 526,-535.38 526,-565.88"/>
<text text-anchor="start" x="403.25" y="-552.38" font-family="Helvetica,sans-Serif" font-size="10.00">benchmark_sparse_matrix</text>
<text text-anchor="middle" x="460.62" y="-541.12" font-family="Helvetica,sans-Serif" font-size="10.00">_assembly</text>
</a>
</g>
</g>
<!-- Node14&#45;&gt;Node15 -->
<g id="edge16_Node000014_Node000015" class="edge">
<title>Node14&#45;&gt;Node15</title>
<g id="a_edge16_Node000014_Node000015"><a xlink:title=" ">
<path fill="none" stroke="#63b8ff" d="M601.2,-532.84C578.37,-535.75 550.86,-539.26 526.32,-542.38"/>
<polygon fill="#63b8ff" stroke="#63b8ff" points="601.35,-536.35 610.83,-531.62 600.47,-529.41 601.35,-536.35"/>
</a>
</g>
</g>
<!-- Node15&#45;&gt;Node7 -->
<g id="edge17_Node000015_Node000007" class="edge">
<title>Node15&#45;&gt;Node7</title>
<g id="a_edge17_Node000015_Node000007"><a xlink:title=" ">
<path fill="none" stroke="#63b8ff" d="M392.97,-532.03C375.65,-527.19 357.16,-522.04 340.42,-517.37"/>
<polygon fill="#63b8ff" stroke="#63b8ff" points="391.54,-535.26 402.12,-534.58 393.42,-528.52 391.54,-535.26"/>
</a>
</g>
</g>
<!-- Node16&#45;&gt;Node5 -->
<g id="edge19_Node000016_Node000005" class="edge">
<title>Node16&#45;&gt;Node5</title>
<g id="a_edge19_Node000016_Node000005"><a xlink:title=" ">
<path fill="none" stroke="#63b8ff" d="M758.07,-509.27C733.6,-503.35 707.32,-497 687.05,-492.1"/>
<polygon fill="#63b8ff" stroke="#63b8ff" points="757.14,-512.64 767.69,-511.59 758.79,-505.84 757.14,-512.64"/>
</a>
</g>
</g>
<!-- Node16&#45;&gt;Node14 -->
<g id="edge20_Node000016_Node000014" class="edge">
<title>Node16&#45;&gt;Node14</title>
<g id="a_edge20_Node000016_Node000014"><a xlink:title=" ">
<path fill="none" stroke="#63b8ff" d="M757.84,-526.62C734.47,-526.62 709.49,-526.62 689.66,-526.62"/>
<polygon fill="#63b8ff" stroke="#63b8ff" points="757.64,-530.13 767.64,-526.63 757.64,-523.13 757.64,-530.13"/>
</a>
</g>
</g>
<!-- Node17&#45;&gt;Node9 -->
<g id="edge22_Node000017_Node000009" class="edge">
<title>Node17&#45;&gt;Node9</title>
<g id="a_edge22_Node000017_Node000009"><a xlink:title=" ">
<path fill="none" stroke="#63b8ff" d="M408.33,-384.62C381.66,-384.62 349.53,-384.62 324.61,-384.62"/>
<polygon fill="#63b8ff" stroke="#63b8ff" points="408.26,-388.13 418.26,-384.63 408.26,-381.13 408.26,-388.13"/>
</a>
</g>
</g>
<!-- Node17&#45;&gt;Node12 -->
<g id="edge23_Node000017_Node000012" class="edge">
<title>Node17&#45;&gt;Node12</title>
<g id="a_edge23_Node000017_Node000012"><a xlink:title=" ">
<path fill="none" stroke="#63b8ff" d="M408.81,-395.33C382.38,-400.9 350.47,-407.62 325.53,-412.88"/>
<polygon fill="#63b8ff" stroke="#63b8ff" points="409.23,-398.82 418.29,-393.33 407.79,-391.97 409.23,-398.82"/>
</a>
</g>
</g>
<!-- Node19 -->
<g id="Node000019" class="node">
<title>Node19</title>
<g id="a_Node000019"><a xlink:href="../../d0/d1e/_boundary___conditions_8cpp_af3770504ee20d68a2295133e7aa72bfa.html#af3770504ee20d68a2295133e7aa72bfa" target="_top" xlink:title=" ">
<polygon fill="white" stroke="#666666" points="530.12,-337.25 391.12,-337.25 391.12,-318 530.12,-318 530.12,-337.25"/>
<text text-anchor="middle" x="460.62" y="-323.75" font-family="Helvetica,sans-Serif" font-size="10.00">Apply_Boundary_Conditions</text>
</a>
</g>
</g>
<!-- Node18&#45;&gt;Node19 -->
<g id="edge25_Node000018_Node000019" class="edge">
<title>Node18&#45;&gt;Node19</title>
<g id="a_edge25_Node000018_Node000019"><a xlink:title=" ">
<path fill="none" stroke="#63b8ff" d="M579.04,-297.08C552.39,-304.01 523.1,-311.63 500.44,-317.53"/>
<polygon fill="#63b8ff" stroke="#63b8ff" points="579.62,-300.55 588.41,-294.64 577.86,-293.77 579.62,-300.55"/>
</a>
</g>
</g>
<!-- Node19&#45;&gt;Node9 -->
<g id="edge26_Node000019_Node000009" class="edge">
<title>Node19&#45;&gt;Node9</title>
<g id="a_edge26_Node000019_Node000009"><a xlink:title=" ">
<path fill="none" stroke="#63b8ff" d="M421.33,-341.52C399.69,-349.22 372.07,-358.79 347.25,-366.62 338.76,-369.3 329.57,-372.02 320.9,-374.51"/>
<polygon fill="#63b8ff" stroke="#63b8ff" points="422.4,-344.85 430.64,-338.19 420.04,-338.26 422.4,-344.85"/>
</a>
</g>
</g>
<!-- Node19&#45;&gt;Node12 -->
<g id="edge30_Node000019_Node000012" class="edge">
<title>Node19&#45;&gt;Node12</title>
<g id="a_edge30_Node000019_Node000012"><a xlink:title=" ">
<path fill="none" stroke="#63b8ff" d="M423.67,-342.33C410.38,-348.57 395.56,-356.52 383.25,-365.62 364.55,-379.46 367.15,-391.57 347.25,-403.62 340.61,-407.65 333.04,-410.8 325.49,-413.27"/>
<polygon fill="#63b8ff" stroke="#63b8ff" points="424.88,-345.63 432.56,-338.33 422,-339.25 424.88,-345.63"/>
</a>
</g>
</g>
<!-- Node20 -->
<g id="Node000020" class="node">
<title>Node20</title>
<g id="a_Node000020"><a xlink:href="../../de/d22/_cuda___parallel___r_k_8cpp_a794f030971fbb7c9dd4bc08df03f50f1.html#a794f030971fbb7c9dd4bc08df03f50f1" target="_top" xlink:title=" ">
<polygon fill="white" stroke="#666666" points="338.25,-357.25 227.75,-357.25 227.75,-338 338.25,-338 338.25,-357.25"/>
<text text-anchor="middle" x="283" y="-343.75" font-family="Helvetica,sans-Serif" font-size="10.00">Runge_Kutta_Method</text>
</a>
</g>
</g>
<!-- Node19&#45;&gt;Node20 -->
<g id="edge27_Node000019_Node000020" class="edge">
<title>Node19&#45;&gt;Node20</title>
<g id="a_edge27_Node000019_Node000020"><a xlink:title=" ">
<path fill="none" stroke="#63b8ff" d="M379.66,-336.73C365.77,-338.31 351.62,-339.92 338.6,-341.41"/>
<polygon fill="#63b8ff" stroke="#63b8ff" points="379.67,-340.25 389.21,-335.64 378.88,-333.3 379.67,-340.25"/>
</a>
</g>
</g>
<!-- Node21 -->
<g id="Node000021" class="node">
<title>Node21</title>
<g id="a_Node000021"><a xlink:href="../../d4/df3/_turbulence___integration_8cpp_a5be3d179089fc076bb68c61f7cd17b7a.html#a5be3d179089fc076bb68c61f7cd17b7a" target="_top" xlink:title="Runge&#45;Kutta method with turbulence model integration.">
<polygon fill="white" stroke="#666666" points="338.25,-281.88 227.75,-281.88 227.75,-251.38 338.25,-251.38 338.25,-281.88"/>
<text text-anchor="start" x="235.75" y="-268.38" font-family="Helvetica,sans-Serif" font-size="10.00">Runge_Kutta_Method</text>
<text text-anchor="middle" x="283" y="-257.12" font-family="Helvetica,sans-Serif" font-size="10.00">_With_Turbulence</text>
</a>
</g>
</g>
<!-- Node19&#45;&gt;Node21 -->
<g id="edge28_Node000019_Node000021" class="edge">
<title>Node19&#45;&gt;Node21</title>
<g id="a_edge28_Node000019_Node000021"><a xlink:title=" ">
<path fill="none" stroke="#63b8ff" d="M420.02,-313.87C393.05,-304.5 357.29,-292.08 329.21,-282.33"/>
<polygon fill="#63b8ff" stroke="#63b8ff" points="418.6,-317.08 429.19,-317.06 420.9,-310.47 418.6,-317.08"/>
</a>
</g>
</g>
<!-- Node22 -->
<g id="Node000022" class="node">
<title>Node22</title>
<g id="a_Node000022"><a xlink:href="../../d4/df3/_turbulence___integration_8cpp_a564537a29550f0d8ec11e8ef76cd2b3a.html#a564537a29550f0d8ec11e8ef76cd2b3a" target="_top" xlink:title="Modified viscous solver with turbulence model integration.">
<polygon fill="white" stroke="#666666" points="182.75,-303.88 73,-303.88 73,-273.38 182.75,-273.38 182.75,-303.88"/>
<text text-anchor="start" x="81" y="-290.38" font-family="Helvetica,sans-Serif" font-size="10.00">Viscous_Solver_With</text>
<text text-anchor="middle" x="127.88" y="-279.12" font-family="Helvetica,sans-Serif" font-size="10.00">_Turbulence</text>
</a>
</g>
</g>
<!-- Node19&#45;&gt;Node22 -->
<g id="edge31_Node000019_Node000022" class="edge">
<title>Node19&#45;&gt;Node22</title>
<g id="a_edge31_Node000019_Node000022"><a xlink:title=" ">
<path fill="none" stroke="#63b8ff" d="M379.57,-318.19C318.62,-311 236.38,-301.3 182.99,-295.01"/>
<polygon fill="#63b8ff" stroke="#63b8ff" points="378.85,-321.62 389.19,-319.32 379.67,-314.67 378.85,-321.62"/>
</a>
</g>
</g>
<!-- Node21&#45;&gt;Node22 -->
<g id="edge29_Node000021_Node000022" class="edge">
<title>Node21&#45;&gt;Node22</title>
<g id="a_edge29_Node000021_Node000022"><a xlink:title=" ">
<path fill="none" stroke="#63b8ff" d="M216.22,-276.08C205.18,-277.66 193.83,-279.29 183.12,-280.83"/>
<polygon fill="#63b8ff" stroke="#63b8ff" points="216.68,-279.55 226.08,-274.66 215.69,-272.62 216.68,-279.55"/>
</a>
</g>
</g>
<!-- Node24&#45;&gt;Node19 -->
<g id="edge34_Node000024_Node000019" class="edge">
<title>Node24&#45;&gt;Node19</title>
<g id="a_edge34_Node000024_Node000019"><a xlink:title=" ">
<path fill="none" stroke="#63b8ff" d="M589.07,-248.93C583.9,-250.64 578.81,-252.53 574,-254.62 534.75,-271.71 493.87,-301.95 473.98,-317.6"/>
<polygon fill="#63b8ff" stroke="#63b8ff" points="589.75,-252.38 598.3,-246.12 587.71,-245.68 589.75,-252.38"/>
</a>
</g>
</g>
<!-- Node27 -->
<g id="Node000027" class="node">
<title>Node27</title>
<g id="a_Node000027"><a xlink:href="../../de/d8d/_exit___boundary___conditions_8cpp_a6b87687bb24cf8bae9b67030a9e66904.html#a6b87687bb24cf8bae9b67030a9e66904" target="_top" xlink:title=" ">
<polygon fill="white" stroke="#666666" points="717.88,-208.25 584.12,-208.25 584.12,-189 717.88,-189 717.88,-208.25"/>
<text text-anchor="middle" x="651" y="-194.75" font-family="Helvetica,sans-Serif" font-size="10.00">Supersonic_Exit_Condition</text>
</a>
</g>
</g>
<!-- Node26&#45;&gt;Node27 -->
<g id="edge37_Node000026_Node000027" class="edge">
<title>Node26&#45;&gt;Node27</title>
<g id="a_edge37_Node000026_Node000027"><a xlink:title=" ">
<path fill="none" stroke="#63b8ff" d="M752.39,-206.53C741.02,-205.63 729.4,-204.72 718.29,-203.84"/>
<polygon fill="#63b8ff" stroke="#63b8ff" points="751.89,-210 762.13,-207.29 752.44,-203.02 751.89,-210"/>
</a>
</g>
</g>
<!-- Node27&#45;&gt;Node19 -->
<g id="edge38_Node000027_Node000019" class="edge">
<title>Node27&#45;&gt;Node19</title>
<g id="a_edge38_Node000027_Node000019"><a xlink:title=" ">
<path fill="none" stroke="#63b8ff" d="M581.75,-212.79C579.08,-213.97 576.49,-215.25 574,-216.62 526.03,-243.2 484.42,-296 468.52,-317.83"/>
<polygon fill="#63b8ff" stroke="#63b8ff" points="582.81,-216.13 590.88,-209.26 580.29,-209.6 582.81,-216.13"/>
</a>
</g>
</g>
<!-- Node28&#45;&gt;Node19 -->
<g id="edge40_Node000028_Node000019" class="edge">
<title>Node28&#45;&gt;Node19</title>
<g id="a_edge40_Node000028_Node000019"><a xlink:title=" ">
<path fill="none" stroke="#63b8ff" d="M585.93,-394.21C581.84,-392.82 577.83,-391.29 574,-389.62 556.37,-381.95 554.64,-375.26 538,-365.62 520.18,-355.31 499.2,-344.99 483.74,-337.72"/>
<polygon fill="#63b8ff" stroke="#63b8ff" points="584.84,-397.54 595.43,-397.16 586.92,-390.85 584.84,-397.54"/>
</a>
</g>
</g>
<!-- Node29&#45;&gt;Node19 -->
<g id="edge42_Node000029_Node000019" class="edge">
<title>Node29&#45;&gt;Node19</title>
<g id="a_edge42_Node000029_Node000019"><a xlink:title=" ">
<path fill="none" stroke="#63b8ff" d="M594.88,-358.04C566.53,-351.57 532.44,-343.79 505.84,-337.72"/>
<polygon fill="#63b8ff" stroke="#63b8ff" points="593.83,-361.39 604.36,-360.21 595.39,-354.57 593.83,-361.39"/>
</a>
</g>
</g>
<!-- Node33&#45;&gt;Node19 -->
<g id="edge47_Node000033_Node000019" class="edge">
<title>Node33&#45;&gt;Node19</title>
<g id="a_edge47_Node000033_Node000019"><a xlink:title=" ">
<path fill="none" stroke="#63b8ff" d="M578.56,-327.62C562.76,-327.62 546.04,-327.62 530.35,-327.62"/>
<polygon fill="#63b8ff" stroke="#63b8ff" points="578.37,-331.13 588.37,-327.63 578.37,-324.13 578.37,-331.13"/>
</a>
</g>
</g>
</g>
</svg>
