<?xml version="1.0" encoding="UTF-8" standalone="no"?>
<!DOCTYPE svg PUBLIC "-//W3C//DTD SVG 1.1//EN"
 "http://www.w3.org/Graphics/SVG/1.1/DTD/svg11.dtd">
<!-- Generated by graphviz version 12.2.1 (20241206.2353)
 -->
<!-- Title: Vector_Reset Pages: 1 -->
<svg width="1048pt" height="645pt"
 viewBox="0.00 0.00 1047.75 644.88" xmlns="http://www.w3.org/2000/svg" xmlns:xlink="http://www.w3.org/1999/xlink">
<g id="graph0" class="graph" transform="scale(1 1) rotate(0) translate(4 640.88)">
<title>Vector_Reset</title>
<!-- Node1 -->
<g id="Node000001" class="node">
<title>Node1</title>
<g id="a_Node000001"><a xlink:title=" ">
<polygon fill="#999999" stroke="#666666" points="1039.75,-321.25 963.75,-321.25 963.75,-302 1039.75,-302 1039.75,-321.25"/>
<text text-anchor="middle" x="1001.75" y="-307.75" font-family="Helvetica,sans-Serif" font-size="10.00">Vector_Reset</text>
</a>
</g>
</g>
<!-- Node2 -->
<g id="Node000002" class="node">
<title>Node2</title>
<g id="a_Node000002"><a xlink:href="../../df/d43/_basic___functions_8cpp_a6e64732a34493cfc9ffdd2d83cc06ed5.html#a6e64732a34493cfc9ffdd2d83cc06ed5" target="_top" xlink:title=" ">
<polygon fill="white" stroke="#666666" points="923.62,-636.88 798.12,-636.88 798.12,-606.38 923.62,-606.38 923.62,-636.88"/>
<text text-anchor="start" x="806.12" y="-623.38" font-family="Helvetica,sans-Serif" font-size="10.00">Calculate_Computational</text>
<text text-anchor="middle" x="860.88" y="-612.12" font-family="Helvetica,sans-Serif" font-size="10.00">_Variables</text>
</a>
</g>
</g>
<!-- Node1&#45;&gt;Node2 -->
<g id="edge1_Node000001_Node000002" class="edge">
<title>Node1&#45;&gt;Node2</title>
<g id="a_edge1_Node000001_Node000002"><a xlink:title=" ">
<path fill="none" stroke="#63b8ff" d="M1001.54,-333.06C1002.28,-385.05 996.94,-519.22 927.75,-596.62 924.49,-600.27 920.64,-603.39 916.46,-606.06"/>
<polygon fill="#63b8ff" stroke="#63b8ff" points="1005.04,-333.13 1001.3,-323.22 998.05,-333.3 1005.04,-333.13"/>
</a>
</g>
</g>
<!-- Node3 -->
<g id="Node000003" class="node">
<title>Node3</title>
<g id="a_Node000003"><a xlink:href="../../df/d43/_basic___functions_8cpp_a5a8dcaaf0c8799789175fc6945829471.html#a5a8dcaaf0c8799789175fc6945829471" target="_top" xlink:title=" ">
<polygon fill="white" stroke="#666666" points="911.25,-587.88 810.5,-587.88 810.5,-557.38 911.25,-557.38 911.25,-587.88"/>
<text text-anchor="start" x="818.5" y="-574.38" font-family="Helvetica,sans-Serif" font-size="10.00">Calculate_Primitive</text>
<text text-anchor="middle" x="860.88" y="-563.12" font-family="Helvetica,sans-Serif" font-size="10.00">_Variables</text>
</a>
</g>
</g>
<!-- Node1&#45;&gt;Node3 -->
<g id="edge2_Node000001_Node000003" class="edge">
<title>Node1&#45;&gt;Node3</title>
<g id="a_edge2_Node000001_Node000003"><a xlink:title=" ">
<path fill="none" stroke="#63b8ff" d="M999.77,-332.7C996.63,-377.15 983.39,-481.51 927.75,-543.62 923,-548.93 917.1,-553.31 910.79,-556.92"/>
<polygon fill="#63b8ff" stroke="#63b8ff" points="1003.26,-333.09 1000.35,-322.9 996.27,-332.67 1003.26,-333.09"/>
</a>
</g>
</g>
<!-- Node4 -->
<g id="Node000004" class="node">
<title>Node4</title>
<g id="a_Node000004"><a xlink:href="../../d6/da5/_flux___jacobian_8cpp_afbbefa55a3532b90c1fa3d4740a0b8d3.html#afbbefa55a3532b90c1fa3d4740a0b8d3" target="_top" xlink:title=" ">
<polygon fill="white" stroke="#666666" points="393,-567.25 269,-567.25 269,-548 393,-548 393,-567.25"/>
<text text-anchor="middle" x="331" y="-553.75" font-family="Helvetica,sans-Serif" font-size="10.00">Compute_Flux_Jacobian</text>
</a>
</g>
</g>
<!-- Node1&#45;&gt;Node4 -->
<g id="edge3_Node000001_Node000004" class="edge">
<title>Node1&#45;&gt;Node4</title>
<g id="a_edge3_Node000001_Node000004"><a xlink:title=" ">
<path fill="none" stroke="#63b8ff" d="M996.42,-332.57C988.59,-364.96 968.92,-426.87 927.75,-459.62 769.23,-585.73 510.55,-577.29 393.26,-565.58"/>
<polygon fill="#63b8ff" stroke="#63b8ff" points="999.82,-333.37 998.6,-322.85 992.99,-331.84 999.82,-333.37"/>
</a>
</g>
</g>
<!-- Node8 -->
<g id="Node000008" class="node">
<title>Node8</title>
<g id="a_Node000008"><a xlink:href="../../d6/da5/_flux___jacobian_8cpp_aacc73d4767c573d4db61bbf2e502d331.html#aacc73d4767c573d4db61bbf2e502d331" target="_top" xlink:title=" ">
<polygon fill="white" stroke="#666666" points="392.62,-522.88 269.38,-522.88 269.38,-492.38 392.62,-492.38 392.62,-522.88"/>
<text text-anchor="start" x="277.38" y="-509.38" font-family="Helvetica,sans-Serif" font-size="10.00">ComputeGhostCell_Flux</text>
<text text-anchor="middle" x="331" y="-498.12" font-family="Helvetica,sans-Serif" font-size="10.00">_Jacobian</text>
</a>
</g>
</g>
<!-- Node1&#45;&gt;Node8 -->
<g id="edge9_Node000001_Node000008" class="edge">
<title>Node1&#45;&gt;Node8</title>
<g id="a_edge9_Node000001_Node000008"><a xlink:title=" ">
<path fill="none" stroke="#63b8ff" d="M992.65,-332.31C981.71,-357.58 959.8,-399.91 927.75,-423.62 843.79,-485.76 527.4,-502.08 393,-506.24"/>
<polygon fill="#63b8ff" stroke="#63b8ff" points="995.87,-333.7 996.45,-323.12 989.4,-331.03 995.87,-333.7"/>
</a>
</g>
</g>
<!-- Node9 -->
<g id="Node000009" class="node">
<title>Node9</title>
<g id="a_Node000009"><a xlink:href="../../d9/d1f/_error___estimate___update_8cpp_a9a9f51a5331b903d6669d2ce013a8ee7.html#a9a9f51a5331b903d6669d2ce013a8ee7" target="_top" xlink:title=" ">
<polygon fill="white" stroke="#666666" points="371.62,-195.25 290.38,-195.25 290.38,-176 371.62,-176 371.62,-195.25"/>
<text text-anchor="middle" x="331" y="-181.75" font-family="Helvetica,sans-Serif" font-size="10.00">Estimate_Error</text>
</a>
</g>
</g>
<!-- Node1&#45;&gt;Node9 -->
<g id="edge13_Node000001_Node000009" class="edge">
<title>Node1&#45;&gt;Node9</title>
<g id="a_edge13_Node000001_Node000009"><a xlink:title=" ">
<path fill="none" stroke="#63b8ff" d="M990.27,-291.74C978.21,-271.16 956.36,-240.05 927.75,-225.62 830.21,-176.45 489.51,-181.13 372.12,-184.32"/>
<polygon fill="#63b8ff" stroke="#63b8ff" points="987.13,-293.3 995.06,-300.33 993.24,-289.89 987.13,-293.3"/>
</a>
</g>
</g>
<!-- Node13 -->
<g id="Node000013" class="node">
<title>Node13</title>
<g id="a_Node000013"><a xlink:href="../../df/d36/_wall___boundary___conditions_8cpp_a9e2645ad4f32bcba4ffb3a64134d2921.html#a9e2645ad4f32bcba4ffb3a64134d2921" target="_top" xlink:title=" ">
<polygon fill="white" stroke="#666666" points="741.88,-376.88 620.12,-376.88 620.12,-346.38 741.88,-346.38 741.88,-376.88"/>
<text text-anchor="start" x="628.12" y="-363.38" font-family="Helvetica,sans-Serif" font-size="10.00">InViscid_Wall_Boundary</text>
<text text-anchor="middle" x="681" y="-352.12" font-family="Helvetica,sans-Serif" font-size="10.00">_Condition</text>
</a>
</g>
</g>
<!-- Node1&#45;&gt;Node13 -->
<g id="edge21_Node000001_Node000013" class="edge">
<title>Node1&#45;&gt;Node13</title>
<g id="a_edge21_Node000001_Node000013"><a xlink:title=" ">
<path fill="none" stroke="#63b8ff" d="M952.41,-323.56C944.21,-325.39 935.76,-327.16 927.75,-328.62 864.87,-340.14 792.25,-349.4 742.34,-355.15"/>
<polygon fill="#63b8ff" stroke="#63b8ff" points="952.94,-327.03 961.91,-321.39 951.38,-320.21 952.94,-327.03"/>
</a>
</g>
</g>
<!-- Node16 -->
<g id="Node000016" class="node">
<title>Node16</title>
<g id="a_Node000016"><a xlink:href="../../de/d8d/_exit___boundary___conditions_8cpp_a59fe8a866adf086e11dc4391cf24254c.html#a59fe8a866adf086e11dc4391cf24254c" target="_top" xlink:title=" ">
<polygon fill="white" stroke="#666666" points="923.62,-178.88 798.12,-178.88 798.12,-148.38 923.62,-148.38 923.62,-178.88"/>
<text text-anchor="start" x="806.12" y="-165.38" font-family="Helvetica,sans-Serif" font-size="10.00">Subsonic_Exit_Boundary</text>
<text text-anchor="middle" x="860.88" y="-154.12" font-family="Helvetica,sans-Serif" font-size="10.00">_Condition</text>
</a>
</g>
</g>
<!-- Node1&#45;&gt;Node16 -->
<g id="edge31_Node000001_Node000016" class="edge">
<title>Node1&#45;&gt;Node16</title>
<g id="a_edge31_Node000001_Node000016"><a xlink:title=" ">
<path fill="none" stroke="#63b8ff" d="M992.75,-291.1C981.68,-265.08 959.42,-220.27 927.75,-192.62 921.73,-187.37 914.6,-182.92 907.29,-179.22"/>
<polygon fill="#63b8ff" stroke="#63b8ff" points="989.45,-292.27 996.47,-300.21 995.93,-289.63 989.45,-292.27"/>
</a>
</g>
</g>
<!-- Node17 -->
<g id="Node000017" class="node">
<title>Node17</title>
<g id="a_Node000017"><a xlink:href="../../dd/d15/_inlet___boundary___conditions_8cpp_a92317da30905d779544dbc465c46f00c.html#a92317da30905d779544dbc465c46f00c" target="_top" xlink:title=" ">
<polygon fill="white" stroke="#666666" points="744.5,-291.25 617.5,-291.25 617.5,-272 744.5,-272 744.5,-291.25"/>
<text text-anchor="middle" x="681" y="-277.75" font-family="Helvetica,sans-Serif" font-size="10.00">Subsonic_Inlet_Condition</text>
</a>
</g>
</g>
<!-- Node1&#45;&gt;Node17 -->
<g id="edge32_Node000001_Node000017" class="edge">
<title>Node1&#45;&gt;Node17</title>
<g id="a_edge32_Node000001_Node000017"><a xlink:title=" ">
<path fill="none" stroke="#63b8ff" d="M952.29,-307.06C896.85,-301.85 805.88,-293.28 744.98,-287.55"/>
<polygon fill="#63b8ff" stroke="#63b8ff" points="951.77,-310.53 962.05,-307.98 952.43,-303.56 951.77,-310.53"/>
</a>
</g>
</g>
<!-- Node18 -->
<g id="Node000018" class="node">
<title>Node18</title>
<g id="a_Node000018"><a xlink:href="../../d5/d2f/_far___field___boundary___condition_8cpp_a907b7b5ada3b6ad6cdb91ae6181b7227.html#a907b7b5ada3b6ad6cdb91ae6181b7227" target="_top" xlink:title=" ">
<polygon fill="white" stroke="#666666" points="912.38,-130.25 809.38,-130.25 809.38,-111 912.38,-111 912.38,-130.25"/>
<text text-anchor="middle" x="860.88" y="-116.75" font-family="Helvetica,sans-Serif" font-size="10.00">Super_Sonic_Inflow</text>
</a>
</g>
</g>
<!-- Node1&#45;&gt;Node18 -->
<g id="edge34_Node000001_Node000018" class="edge">
<title>Node1&#45;&gt;Node18</title>
<g id="a_edge34_Node000001_Node000018"><a xlink:title=" ">
<path fill="none" stroke="#63b8ff" d="M997.77,-290.66C991.51,-254.46 973.57,-180.23 927.75,-139.62 923.38,-135.76 918.28,-132.67 912.87,-130.22"/>
<polygon fill="#63b8ff" stroke="#63b8ff" points="994.27,-290.93 999.29,-300.26 1001.18,-289.84 994.27,-290.93"/>
</a>
</g>
</g>
<!-- Node19 -->
<g id="Node000019" class="node">
<title>Node19</title>
<g id="a_Node000019"><a xlink:href="../../de/d8d/_exit___boundary___conditions_8cpp_aee793388170b1f1282aa7ada9cb1985d.html#aee793388170b1f1282aa7ada9cb1985d" target="_top" xlink:title=" ">
<polygon fill="white" stroke="#666666" points="927.75,-264.88 794,-264.88 794,-234.38 927.75,-234.38 927.75,-264.88"/>
<text text-anchor="start" x="802" y="-251.38" font-family="Helvetica,sans-Serif" font-size="10.00">Supersonic_Exit_Boundary</text>
<text text-anchor="middle" x="860.88" y="-240.12" font-family="Helvetica,sans-Serif" font-size="10.00">_Condition</text>
</a>
</g>
</g>
<!-- Node1&#45;&gt;Node19 -->
<g id="edge35_Node000001_Node000019" class="edge">
<title>Node1&#45;&gt;Node19</title>
<g id="a_edge35_Node000001_Node000019"><a xlink:title=" ">
<path fill="none" stroke="#63b8ff" d="M968.61,-297.01C955.89,-291.25 941.15,-284.6 927.75,-278.62 918.05,-274.3 907.53,-269.65 897.8,-265.36"/>
<polygon fill="#63b8ff" stroke="#63b8ff" points="966.8,-300.04 977.36,-300.98 969.69,-293.66 966.8,-300.04"/>
</a>
</g>
</g>
<!-- Node21 -->
<g id="Node000021" class="node">
<title>Node21</title>
<g id="a_Node000021"><a xlink:href="../../dd/d15/_inlet___boundary___conditions_8cpp_a25cc0bf77642815d139d73ca5be9e3dc.html#a25cc0bf77642815d139d73ca5be9e3dc" target="_top" xlink:title=" ">
<polygon fill="white" stroke="#666666" points="748.62,-328.25 613.38,-328.25 613.38,-309 748.62,-309 748.62,-328.25"/>
<text text-anchor="middle" x="681" y="-314.75" font-family="Helvetica,sans-Serif" font-size="10.00">Supersonic_Inlet_Condition</text>
</a>
</g>
</g>
<!-- Node1&#45;&gt;Node21 -->
<g id="edge38_Node000001_Node000021" class="edge">
<title>Node1&#45;&gt;Node21</title>
<g id="a_edge38_Node000001_Node000021"><a xlink:title=" ">
<path fill="none" stroke="#63b8ff" d="M952.19,-312.69C897.92,-313.88 809.7,-315.82 748.92,-317.16"/>
<polygon fill="#63b8ff" stroke="#63b8ff" points="952.13,-316.19 962.05,-312.47 951.97,-309.2 952.13,-316.19"/>
</a>
</g>
</g>
<!-- Node22 -->
<g id="Node000022" class="node">
<title>Node22</title>
<g id="a_Node000022"><a xlink:href="../../df/d36/_wall___boundary___conditions_8cpp_a4d3a822572d76209fad9b1faec4086f4.html#a4d3a822572d76209fad9b1faec4086f4" target="_top" xlink:title=" ">
<polygon fill="white" stroke="#666666" points="758,-463.25 604,-463.25 604,-444 758,-444 758,-463.25"/>
<text text-anchor="middle" x="681" y="-449.75" font-family="Helvetica,sans-Serif" font-size="10.00">Symmetry_Boundary_Condition</text>
</a>
</g>
</g>
<!-- Node1&#45;&gt;Node22 -->
<g id="edge40_Node000001_Node000022" class="edge">
<title>Node1&#45;&gt;Node22</title>
<g id="a_edge40_Node000001_Node000022"><a xlink:title=" ">
<path fill="none" stroke="#63b8ff" d="M986.76,-330.53C973.38,-347.32 951.74,-371.36 927.75,-385.62 875.25,-416.86 807.94,-434.18 757.04,-443.51"/>
<polygon fill="#63b8ff" stroke="#63b8ff" points="989.38,-332.86 992.72,-322.8 983.84,-328.59 989.38,-332.86"/>
</a>
</g>
</g>
<!-- Node23 -->
<g id="Node000023" class="node">
<title>Node23</title>
<g id="a_Node000023"><a xlink:href="../../d9/d1f/_error___estimate___update_8cpp_a85083f46c6e2f45acd7b57694d88a9be.html#a85083f46c6e2f45acd7b57694d88a9be" target="_top" xlink:title=" ">
<polygon fill="white" stroke="#666666" points="884.62,-93.25 837.12,-93.25 837.12,-74 884.62,-74 884.62,-93.25"/>
<text text-anchor="middle" x="860.88" y="-79.75" font-family="Helvetica,sans-Serif" font-size="10.00">Update</text>
</a>
</g>
</g>
<!-- Node1&#45;&gt;Node23 -->
<g id="edge43_Node000001_Node000023" class="edge">
<title>Node1&#45;&gt;Node23</title>
<g id="a_edge43_Node000001_Node000023"><a xlink:title=" ">
<path fill="none" stroke="#63b8ff" d="M999.65,-290.19C996.29,-247.81 982.7,-152.97 927.75,-101.62 916.23,-90.86 898.9,-86.42 884.9,-84.64"/>
<polygon fill="#63b8ff" stroke="#63b8ff" points="996.15,-290.29 1000.3,-300.04 1003.13,-289.83 996.15,-290.29"/>
</a>
</g>
</g>
<!-- Node24 -->
<g id="Node000024" class="node">
<title>Node24</title>
<g id="a_Node000024"><a xlink:href="../../d9/d1f/_error___estimate___update_8cpp_a3658b001ca4b1936550d8299999dd08b.html#a3658b001ca4b1936550d8299999dd08b" target="_top" xlink:title=" ">
<polygon fill="white" stroke="#666666" points="884.62,-56.25 837.12,-56.25 837.12,-37 884.62,-37 884.62,-56.25"/>
<text text-anchor="middle" x="860.88" y="-42.75" font-family="Helvetica,sans-Serif" font-size="10.00">Update</text>
</a>
</g>
</g>
<!-- Node1&#45;&gt;Node24 -->
<g id="edge44_Node000001_Node000024" class="edge">
<title>Node1&#45;&gt;Node24</title>
<g id="a_edge44_Node000001_Node000024"><a xlink:title=" ">
<path fill="none" stroke="#63b8ff" d="M1000.97,-290.43C1000.27,-242.93 991.68,-127.25 927.75,-64.62 916.49,-53.59 899.15,-49.16 885.08,-47.46"/>
<polygon fill="#63b8ff" stroke="#63b8ff" points="997.47,-290.18 1001,-300.17 1004.47,-290.16 997.47,-290.18"/>
</a>
</g>
</g>
<!-- Node25 -->
<g id="Node000025" class="node">
<title>Node25</title>
<g id="a_Node000025"><a xlink:href="../../d9/d1f/_error___estimate___update_8cpp_a72ec9272a947862267874bef9f0f929c.html#a72ec9272a947862267874bef9f0f929c" target="_top" xlink:title=" ">
<polygon fill="white" stroke="#666666" points="884.62,-19.25 837.12,-19.25 837.12,0 884.62,0 884.62,-19.25"/>
<text text-anchor="middle" x="860.88" y="-5.75" font-family="Helvetica,sans-Serif" font-size="10.00">Update</text>
</a>
</g>
</g>
<!-- Node1&#45;&gt;Node25 -->
<g id="edge45_Node000001_Node000025" class="edge">
<title>Node1&#45;&gt;Node25</title>
<g id="a_edge45_Node000001_Node000025"><a xlink:title=" ">
<path fill="none" stroke="#63b8ff" d="M998.06,-290.39C990.15,-231.08 965.11,-65.55 927.75,-27.62 916.6,-16.31 899.08,-11.91 884.9,-10.28"/>
<polygon fill="#63b8ff" stroke="#63b8ff" points="994.57,-290.67 999.33,-300.13 1001.51,-289.76 994.57,-290.67"/>
</a>
</g>
</g>
<!-- Node26 -->
<g id="Node000026" class="node">
<title>Node26</title>
<g id="a_Node000026"><a xlink:href="../../df/d36/_wall___boundary___conditions_8cpp_a35cf6a79b3a50b10bf277b98c8d14ed7.html#a35cf6a79b3a50b10bf277b98c8d14ed7" target="_top" xlink:title=" ">
<polygon fill="white" stroke="#666666" points="741.88,-425.88 620.12,-425.88 620.12,-395.38 741.88,-395.38 741.88,-425.88"/>
<text text-anchor="start" x="628.12" y="-412.38" font-family="Helvetica,sans-Serif" font-size="10.00">Viscous_Wall_Boundary</text>
<text text-anchor="middle" x="681" y="-401.12" font-family="Helvetica,sans-Serif" font-size="10.00">_Condition</text>
</a>
</g>
</g>
<!-- Node1&#45;&gt;Node26 -->
<g id="edge46_Node000001_Node000026" class="edge">
<title>Node1&#45;&gt;Node26</title>
<g id="a_edge46_Node000001_Node000026"><a xlink:title=" ">
<path fill="none" stroke="#63b8ff" d="M976.04,-327.8C962.28,-336.2 944.59,-346.06 927.75,-352.62 866.59,-376.47 792.89,-392.27 742.25,-401.27"/>
<polygon fill="#63b8ff" stroke="#63b8ff" points="977.81,-330.82 984.42,-322.54 974.09,-324.89 977.81,-330.82"/>
</a>
</g>
</g>
<!-- Node5 -->
<g id="Node000005" class="node">
<title>Node5</title>
<g id="a_Node000005"><a xlink:href="../../db/dbe/_assemble___matrix_8cpp_ad90382595c8b02e815e463639d84baa7.html#ad90382595c8b02e815e463639d84baa7" target="_top" xlink:title=" ">
<polygon fill="white" stroke="#666666" points="226.62,-574.25 155.12,-574.25 155.12,-555 226.62,-555 226.62,-574.25"/>
<text text-anchor="middle" x="190.88" y="-560.75" font-family="Helvetica,sans-Serif" font-size="10.00">Assemble_A</text>
</a>
</g>
</g>
<!-- Node4&#45;&gt;Node5 -->
<g id="edge4_Node000004_Node000005" class="edge">
<title>Node4&#45;&gt;Node5</title>
<g id="a_edge4_Node000004_Node000005"><a xlink:title=" ">
<path fill="none" stroke="#63b8ff" d="M257.2,-561.31C246.68,-561.85 236.27,-562.38 226.96,-562.85"/>
<polygon fill="#63b8ff" stroke="#63b8ff" points="257.29,-564.81 267.1,-560.81 256.94,-557.82 257.29,-564.81"/>
</a>
</g>
</g>
<!-- Node6 -->
<g id="Node000006" class="node">
<title>Node6</title>
<g id="a_Node000006"><a xlink:href="../../dd/dbf/_euler___python___wrapper_8cpp_ac5ccb50c3be270f798e054dd36987442.html#ac5ccb50c3be270f798e054dd36987442" target="_top" xlink:title=" ">
<polygon fill="white" stroke="#666666" points="112.75,-404.25 0,-404.25 0,-385 112.75,-385 112.75,-404.25"/>
<text text-anchor="middle" x="56.38" y="-390.75" font-family="Helvetica,sans-Serif" font-size="10.00">PYBIND11_MODULE</text>
</a>
</g>
</g>
<!-- Node4&#45;&gt;Node6 -->
<g id="edge8_Node000004_Node000006" class="edge">
<title>Node4&#45;&gt;Node6</title>
<g id="a_edge8_Node000004_Node000006"><a xlink:title=" ">
<path fill="none" stroke="#63b8ff" d="M301.33,-572.6C263.43,-590.13 195.93,-613.22 148.75,-583.62 82.37,-541.99 63.04,-436.98 58.55,-404.41"/>
<polygon fill="#63b8ff" stroke="#63b8ff" points="302.79,-575.79 310.28,-568.29 299.75,-569.48 302.79,-575.79"/>
</a>
</g>
</g>
<!-- Node7 -->
<g id="Node000007" class="node">
<title>Node7</title>
<g id="a_Node000007"><a xlink:href="../../db/dbe/_assemble___matrix_8cpp_ab40202302c5e7f6e97927b7fba467369.html#ab40202302c5e7f6e97927b7fba467369" target="_top" xlink:title=" ">
<polygon fill="white" stroke="#666666" points="229.25,-537.25 152.5,-537.25 152.5,-518 229.25,-518 229.25,-537.25"/>
<text text-anchor="middle" x="190.88" y="-523.75" font-family="Helvetica,sans-Serif" font-size="10.00">Assemble_A1</text>
</a>
</g>
</g>
<!-- Node4&#45;&gt;Node7 -->
<g id="edge6_Node000004_Node000007" class="edge">
<title>Node4&#45;&gt;Node7</title>
<g id="a_edge6_Node000004_Node000007"><a xlink:title=" ">
<path fill="none" stroke="#63b8ff" d="M272.7,-545.18C258.17,-542.02 242.93,-538.71 229.64,-535.83"/>
<polygon fill="#63b8ff" stroke="#63b8ff" points="271.63,-548.53 282.14,-547.23 273.11,-541.69 271.63,-548.53"/>
</a>
</g>
</g>
<!-- Node5&#45;&gt;Node6 -->
<g id="edge5_Node000005_Node000006" class="edge">
<title>Node5&#45;&gt;Node6</title>
<g id="a_edge5_Node000005_Node000006"><a xlink:title=" ">
<path fill="none" stroke="#63b8ff" d="M151.14,-548.59C150.32,-547.95 149.52,-547.3 148.75,-546.62 100.88,-504.55 70.68,-431.14 60.87,-404.57"/>
<polygon fill="#63b8ff" stroke="#63b8ff" points="149.03,-551.4 159.36,-553.75 152.76,-545.47 149.03,-551.4"/>
</a>
</g>
</g>
<!-- Node7&#45;&gt;Node6 -->
<g id="edge7_Node000007_Node000006" class="edge">
<title>Node7&#45;&gt;Node6</title>
<g id="a_edge7_Node000007_Node000006"><a xlink:title=" ">
<path fill="none" stroke="#63b8ff" d="M159.99,-511.85C156.06,-509.3 152.21,-506.54 148.75,-503.62 111.75,-472.42 77.85,-425.1 63.98,-404.64"/>
<polygon fill="#63b8ff" stroke="#63b8ff" points="158.04,-514.76 168.41,-516.91 161.64,-508.76 158.04,-514.76"/>
</a>
</g>
</g>
<!-- Node8&#45;&gt;Node5 -->
<g id="edge10_Node000008_Node000005" class="edge">
<title>Node8&#45;&gt;Node5</title>
<g id="a_edge10_Node000008_Node000005"><a xlink:title=" ">
<path fill="none" stroke="#63b8ff" d="M281.38,-527.69C259.4,-536.76 234.37,-547.09 216.38,-554.51"/>
<polygon fill="#63b8ff" stroke="#63b8ff" points="282.58,-530.98 290.49,-523.93 279.91,-524.51 282.58,-530.98"/>
</a>
</g>
</g>
<!-- Node8&#45;&gt;Node6 -->
<g id="edge12_Node000008_Node000006" class="edge">
<title>Node8&#45;&gt;Node6</title>
<g id="a_edge12_Node000008_Node000006"><a xlink:title=" ">
<path fill="none" stroke="#63b8ff" d="M257.73,-498.25C223.53,-492 182.82,-481.84 148.75,-465.62 115.37,-449.74 82.77,-420.01 67.07,-404.55"/>
<polygon fill="#63b8ff" stroke="#63b8ff" points="257.11,-501.7 267.56,-499.97 258.31,-494.8 257.11,-501.7"/>
</a>
</g>
</g>
<!-- Node8&#45;&gt;Node7 -->
<g id="edge11_Node000008_Node000007" class="edge">
<title>Node8&#45;&gt;Node7</title>
<g id="a_edge11_Node000008_Node000007"><a xlink:title=" ">
<path fill="none" stroke="#63b8ff" d="M257.62,-518.11C247.91,-519.51 238.29,-520.9 229.52,-522.17"/>
<polygon fill="#63b8ff" stroke="#63b8ff" points="258.12,-521.57 267.52,-516.67 257.12,-514.64 258.12,-521.57"/>
</a>
</g>
</g>
<!-- Node9&#45;&gt;Node6 -->
<g id="edge17_Node000009_Node000006" class="edge">
<title>Node9&#45;&gt;Node6</title>
<g id="a_edge17_Node000009_Node000006"><a xlink:title=" ">
<path fill="none" stroke="#63b8ff" d="M278.72,-178.72C239.64,-176.22 186.32,-179.08 148.75,-205.62 132.45,-217.14 77.17,-347.27 61.53,-384.64"/>
<polygon fill="#63b8ff" stroke="#63b8ff" points="278.35,-182.2 288.59,-179.5 278.9,-175.22 278.35,-182.2"/>
</a>
</g>
</g>
<!-- Node10 -->
<g id="Node000010" class="node">
<title>Node10</title>
<g id="a_Node000010"><a xlink:href="../../de/df0/_solver_8cpp_ad0f49408a26339b5f7043bf867c3fa8d.html#ad0f49408a26339b5f7043bf867c3fa8d" target="_top" xlink:title=" ">
<polygon fill="white" stroke="#666666" points="232.25,-234.25 149.5,-234.25 149.5,-215 232.25,-215 232.25,-234.25"/>
<text text-anchor="middle" x="190.88" y="-220.75" font-family="Helvetica,sans-Serif" font-size="10.00">Inviscid_Solver</text>
</a>
</g>
</g>
<!-- Node9&#45;&gt;Node10 -->
<g id="edge14_Node000009_Node000010" class="edge">
<title>Node9&#45;&gt;Node10</title>
<g id="a_edge14_Node000009_Node000010"><a xlink:title=" ">
<path fill="none" stroke="#63b8ff" d="M283.38,-198.79C265.07,-203.96 244.39,-209.8 227.33,-214.62"/>
<polygon fill="#63b8ff" stroke="#63b8ff" points="284.3,-202.17 292.97,-196.08 282.4,-195.43 284.3,-202.17"/>
</a>
</g>
</g>
<!-- Node12 -->
<g id="Node000012" class="node">
<title>Node12</title>
<g id="a_Node000012"><a xlink:href="../../de/df0/_solver_8cpp_a2f37f06e8324a1ed6aa99efdbba81865.html#a2f37f06e8324a1ed6aa99efdbba81865" target="_top" xlink:title=" ">
<polygon fill="white" stroke="#666666" points="233,-271.25 148.75,-271.25 148.75,-252 233,-252 233,-271.25"/>
<text text-anchor="middle" x="190.88" y="-257.75" font-family="Helvetica,sans-Serif" font-size="10.00">Viscous_Solver</text>
</a>
</g>
</g>
<!-- Node9&#45;&gt;Node12 -->
<g id="edge18_Node000009_Node000012" class="edge">
<title>Node9&#45;&gt;Node12</title>
<g id="a_edge18_Node000009_Node000012"><a xlink:title=" ">
<path fill="none" stroke="#63b8ff" d="M305.01,-201.76C285.71,-213.93 258.13,-230.68 233,-243.62 227.6,-246.41 221.67,-249.17 216.04,-251.66"/>
<polygon fill="#63b8ff" stroke="#63b8ff" points="306.72,-204.82 313.28,-196.5 302.96,-198.92 306.72,-204.82"/>
</a>
</g>
</g>
<!-- Node10&#45;&gt;Node6 -->
<g id="edge15_Node000010_Node000006" class="edge">
<title>Node10&#45;&gt;Node6</title>
<g id="a_edge15_Node000010_Node000006"><a xlink:title=" ">
<path fill="none" stroke="#63b8ff" d="M151.14,-240.66C150.32,-241.3 149.52,-241.95 148.75,-242.62 100.88,-284.7 70.68,-358.11 60.87,-384.68"/>
<polygon fill="#63b8ff" stroke="#63b8ff" points="152.76,-243.78 159.36,-235.5 149.03,-237.85 152.76,-243.78"/>
</a>
</g>
</g>
<!-- Node11 -->
<g id="Node000011" class="node">
<title>Node11</title>
<g id="a_Node000011"><a xlink:href="../../d5/d12/_main_8cpp_a35d775933750ace299102f06a1712663.html#a35d775933750ace299102f06a1712663" target="_top" xlink:title="Executes the appropriate solver based on the simulation configuration.">
<polygon fill="white" stroke="#666666" points="85,-253.25 27.75,-253.25 27.75,-234 85,-234 85,-253.25"/>
<text text-anchor="middle" x="56.38" y="-239.75" font-family="Helvetica,sans-Serif" font-size="10.00">runSolver</text>
</a>
</g>
</g>
<!-- Node10&#45;&gt;Node11 -->
<g id="edge16_Node000010_Node000011" class="edge">
<title>Node10&#45;&gt;Node11</title>
<g id="a_edge16_Node000010_Node000011"><a xlink:title=" ">
<path fill="none" stroke="#63b8ff" d="M137.83,-232.09C119.9,-234.66 100.53,-237.44 85.28,-239.62"/>
<polygon fill="#63b8ff" stroke="#63b8ff" points="138.14,-235.58 147.54,-230.7 137.15,-228.65 138.14,-235.58"/>
</a>
</g>
</g>
<!-- Node12&#45;&gt;Node6 -->
<g id="edge19_Node000012_Node000006" class="edge">
<title>Node12&#45;&gt;Node6</title>
<g id="a_edge19_Node000012_Node000006"><a xlink:title=" ">
<path fill="none" stroke="#63b8ff" d="M159.99,-277.4C156.06,-279.95 152.21,-282.71 148.75,-285.62 111.75,-316.83 77.85,-364.15 63.98,-384.61"/>
<polygon fill="#63b8ff" stroke="#63b8ff" points="161.64,-280.49 168.41,-272.34 158.04,-274.49 161.64,-280.49"/>
</a>
</g>
</g>
<!-- Node12&#45;&gt;Node11 -->
<g id="edge20_Node000012_Node000011" class="edge">
<title>Node12&#45;&gt;Node11</title>
<g id="a_edge20_Node000012_Node000011"><a xlink:title=" ">
<path fill="none" stroke="#63b8ff" d="M136.97,-254.44C119.33,-252.04 100.37,-249.47 85.38,-247.43"/>
<polygon fill="#63b8ff" stroke="#63b8ff" points="136.43,-257.9 146.81,-255.78 137.38,-250.96 136.43,-257.9"/>
</a>
</g>
</g>
<!-- Node13&#45;&gt;Node6 -->
<g id="edge30_Node000013_Node000006" class="edge">
<title>Node13&#45;&gt;Node6</title>
<g id="a_edge30_Node000013_Node000006"><a xlink:title=" ">
<path fill="none" stroke="#63b8ff" d="M608.39,-365.42C483.02,-372.07 226.4,-385.67 113.17,-391.67"/>
<polygon fill="#63b8ff" stroke="#63b8ff" points="608.42,-368.92 618.22,-364.9 608.05,-361.93 608.42,-368.92"/>
</a>
</g>
</g>
<!-- Node14 -->
<g id="Node000014" class="node">
<title>Node14</title>
<g id="a_Node000014"><a xlink:href="../../d0/d1e/_boundary___conditions_8cpp_af3770504ee20d68a2295133e7aa72bfa.html#af3770504ee20d68a2295133e7aa72bfa" target="_top" xlink:title=" ">
<polygon fill="white" stroke="#666666" points="568,-319.25 429,-319.25 429,-300 568,-300 568,-319.25"/>
<text text-anchor="middle" x="498.5" y="-305.75" font-family="Helvetica,sans-Serif" font-size="10.00">Apply_Boundary_Conditions</text>
</a>
</g>
</g>
<!-- Node13&#45;&gt;Node14 -->
<g id="edge22_Node000013_Node000014" class="edge">
<title>Node13&#45;&gt;Node14</title>
<g id="a_edge22_Node000013_Node000014"><a xlink:title=" ">
<path fill="none" stroke="#63b8ff" d="M614.41,-342.73C587.43,-334.96 557.27,-326.27 534.61,-319.74"/>
<polygon fill="#63b8ff" stroke="#63b8ff" points="613.32,-346.06 623.9,-345.46 615.26,-339.33 613.32,-346.06"/>
</a>
</g>
</g>
<!-- Node14&#45;&gt;Node6 -->
<g id="edge24_Node000014_Node000006" class="edge">
<title>Node14&#45;&gt;Node6</title>
<g id="a_edge24_Node000014_Node000006"><a xlink:title=" ">
<path fill="none" stroke="#63b8ff" d="M417.42,-317C346.15,-324.63 239.46,-338.73 148.75,-361.62 125.2,-367.57 99.23,-377.27 81.02,-384.62"/>
<polygon fill="#63b8ff" stroke="#63b8ff" points="417.46,-320.51 427.04,-315.98 416.73,-313.55 417.46,-320.51"/>
</a>
</g>
</g>
<!-- Node14&#45;&gt;Node10 -->
<g id="edge23_Node000014_Node000010" class="edge">
<title>Node14&#45;&gt;Node10</title>
<g id="a_edge23_Node000014_Node000010"><a xlink:title=" ">
<path fill="none" stroke="#63b8ff" d="M477.17,-292.31C457.17,-276.37 425.07,-253.6 393,-242.62 339.76,-224.41 274.22,-221.96 232.73,-222.67"/>
<polygon fill="#63b8ff" stroke="#63b8ff" points="474.83,-294.92 484.79,-298.54 479.26,-289.5 474.83,-294.92"/>
</a>
</g>
</g>
<!-- Node14&#45;&gt;Node12 -->
<g id="edge29_Node000014_Node000012" class="edge">
<title>Node14&#45;&gt;Node12</title>
<g id="a_edge29_Node000014_Node000012"><a xlink:title=" ">
<path fill="none" stroke="#63b8ff" d="M417.47,-301.75C373.46,-296.85 318,-289.74 269,-280.62 255.85,-278.18 241.59,-274.86 228.95,-271.68"/>
<polygon fill="#63b8ff" stroke="#63b8ff" points="416.86,-305.21 427.18,-302.82 417.62,-298.25 416.86,-305.21"/>
</a>
</g>
</g>
<!-- Node15 -->
<g id="Node000015" class="node">
<title>Node15</title>
<g id="a_Node000015"><a xlink:href="../../de/d22/_cuda___parallel___r_k_8cpp_a794f030971fbb7c9dd4bc08df03f50f1.html#a794f030971fbb7c9dd4bc08df03f50f1" target="_top" xlink:title=" ">
<polygon fill="white" stroke="#666666" points="386.25,-271.25 275.75,-271.25 275.75,-252 386.25,-252 386.25,-271.25"/>
<text text-anchor="middle" x="331" y="-257.75" font-family="Helvetica,sans-Serif" font-size="10.00">Runge_Kutta_Method</text>
</a>
</g>
</g>
<!-- Node14&#45;&gt;Node15 -->
<g id="edge25_Node000014_Node000015" class="edge">
<title>Node14&#45;&gt;Node15</title>
<g id="a_edge25_Node000014_Node000015"><a xlink:title=" ">
<path fill="none" stroke="#63b8ff" d="M452.08,-296.45C425.12,-288.63 391.46,-278.87 366.65,-271.67"/>
<polygon fill="#63b8ff" stroke="#63b8ff" points="450.77,-299.72 461.35,-299.14 452.72,-292.99 450.77,-299.72"/>
</a>
</g>
</g>
<!-- Node15&#45;&gt;Node6 -->
<g id="edge27_Node000015_Node000006" class="edge">
<title>Node15&#45;&gt;Node6</title>
<g id="a_edge27_Node000015_Node000006"><a xlink:title=" ">
<path fill="none" stroke="#63b8ff" d="M276.97,-274.75C239.77,-285.14 189.59,-301.57 148.75,-323.62 116.58,-341 83.97,-369.55 67.8,-384.61"/>
<polygon fill="#63b8ff" stroke="#63b8ff" points="277.88,-278.13 286.61,-272.12 276.04,-271.38 277.88,-278.13"/>
</a>
</g>
</g>
<!-- Node15&#45;&gt;Node10 -->
<g id="edge26_Node000015_Node000010" class="edge">
<title>Node15&#45;&gt;Node10</title>
<g id="a_edge26_Node000015_Node000010"><a xlink:title=" ">
<path fill="none" stroke="#63b8ff" d="M281.39,-248.6C264.38,-244.05 245.55,-239 229.57,-234.72"/>
<polygon fill="#63b8ff" stroke="#63b8ff" points="280.23,-251.92 290.79,-251.12 282.04,-245.15 280.23,-251.92"/>
</a>
</g>
</g>
<!-- Node15&#45;&gt;Node12 -->
<g id="edge28_Node000015_Node000012" class="edge">
<title>Node15&#45;&gt;Node12</title>
<g id="a_edge28_Node000015_Node000012"><a xlink:title=" ">
<path fill="none" stroke="#63b8ff" d="M264.1,-261.62C253.6,-261.62 243.01,-261.62 233.29,-261.62"/>
<polygon fill="#63b8ff" stroke="#63b8ff" points="263.9,-265.13 273.9,-261.63 263.9,-258.13 263.9,-265.13"/>
</a>
</g>
</g>
<!-- Node17&#45;&gt;Node14 -->
<g id="edge33_Node000017_Node000014" class="edge">
<title>Node17&#45;&gt;Node14</title>
<g id="a_edge33_Node000017_Node000014"><a xlink:title=" ">
<path fill="none" stroke="#63b8ff" d="M605.8,-293.14C592.14,-295.25 577.97,-297.45 564.6,-299.53"/>
<polygon fill="#63b8ff" stroke="#63b8ff" points="606.28,-296.6 615.63,-291.61 605.21,-289.69 606.28,-296.6"/>
</a>
</g>
</g>
<!-- Node20 -->
<g id="Node000020" class="node">
<title>Node20</title>
<g id="a_Node000020"><a xlink:href="../../de/d8d/_exit___boundary___conditions_8cpp_a6b87687bb24cf8bae9b67030a9e66904.html#a6b87687bb24cf8bae9b67030a9e66904" target="_top" xlink:title=" ">
<polygon fill="white" stroke="#666666" points="747.88,-254.25 614.12,-254.25 614.12,-235 747.88,-235 747.88,-254.25"/>
<text text-anchor="middle" x="681" y="-240.75" font-family="Helvetica,sans-Serif" font-size="10.00">Supersonic_Exit_Condition</text>
</a>
</g>
</g>
<!-- Node19&#45;&gt;Node20 -->
<g id="edge36_Node000019_Node000020" class="edge">
<title>Node19&#45;&gt;Node20</title>
<g id="a_edge36_Node000019_Node000020"><a xlink:title=" ">
<path fill="none" stroke="#63b8ff" d="M782.39,-247.45C771.02,-247.13 759.4,-246.8 748.29,-246.49"/>
<polygon fill="#63b8ff" stroke="#63b8ff" points="782.03,-250.94 792.13,-247.72 782.23,-243.94 782.03,-250.94"/>
</a>
</g>
</g>
<!-- Node20&#45;&gt;Node14 -->
<g id="edge37_Node000020_Node000014" class="edge">
<title>Node20&#45;&gt;Node14</title>
<g id="a_edge37_Node000020_Node000014"><a xlink:title=" ">
<path fill="none" stroke="#63b8ff" d="M620.54,-257.55C614.91,-259.12 609.32,-260.82 604,-262.62 573.3,-273.06 539.33,-289.26 518.7,-299.65"/>
<polygon fill="#63b8ff" stroke="#63b8ff" points="621.13,-261.02 629.9,-255.08 619.34,-254.25 621.13,-261.02"/>
</a>
</g>
</g>
<!-- Node21&#45;&gt;Node14 -->
<g id="edge39_Node000021_Node000014" class="edge">
<title>Node21&#45;&gt;Node14</title>
<g id="a_edge39_Node000021_Node000014"><a xlink:title=" ">
<path fill="none" stroke="#63b8ff" d="M601.65,-314.72C590.6,-314.17 579.31,-313.6 568.46,-313.06"/>
<polygon fill="#63b8ff" stroke="#63b8ff" points="601.37,-318.21 611.53,-315.21 601.72,-311.22 601.37,-318.21"/>
</a>
</g>
</g>
<!-- Node22&#45;&gt;Node6 -->
<g id="edge42_Node000022_Node000006" class="edge">
<title>Node22&#45;&gt;Node6</title>
<g id="a_edge42_Node000022_Node000006"><a xlink:title=" ">
<path fill="none" stroke="#63b8ff" d="M592.41,-449.53C486.86,-443.93 304.28,-432.18 148.75,-411.62 134.83,-409.79 119.82,-407.23 106.07,-404.66"/>
<polygon fill="#63b8ff" stroke="#63b8ff" points="591.96,-453.01 602.13,-450.03 592.32,-446.02 591.96,-453.01"/>
</a>
</g>
</g>
<!-- Node22&#45;&gt;Node14 -->
<g id="edge41_Node000022_Node000014" class="edge">
<title>Node22&#45;&gt;Node14</title>
<g id="a_edge41_Node000022_Node000014"><a xlink:title=" ">
<path fill="none" stroke="#63b8ff" d="M612.19,-439.12C609.36,-437.76 606.61,-436.26 604,-434.62 555.34,-404.14 518.14,-343.4 504.83,-319.56"/>
<polygon fill="#63b8ff" stroke="#63b8ff" points="610.79,-442.33 621.36,-442.95 613.48,-435.87 610.79,-442.33"/>
</a>
</g>
</g>
<!-- Node26&#45;&gt;Node6 -->
<g id="edge48_Node000026_Node000006" class="edge">
<title>Node26&#45;&gt;Node6</title>
<g id="a_edge48_Node000026_Node000006"><a xlink:title=" ">
<path fill="none" stroke="#63b8ff" d="M608.39,-408.78C483.02,-405.56 226.4,-398.97 113.17,-396.06"/>
<polygon fill="#63b8ff" stroke="#63b8ff" points="608.13,-412.28 618.22,-409.04 608.31,-405.28 608.13,-412.28"/>
</a>
</g>
</g>
<!-- Node26&#45;&gt;Node14 -->
<g id="edge47_Node000026_Node000014" class="edge">
<title>Node26&#45;&gt;Node14</title>
<g id="a_edge47_Node000026_Node000014"><a xlink:title=" ">
<path fill="none" stroke="#63b8ff" d="M614.7,-390.65C611.03,-389.06 607.44,-387.39 604,-385.62 567.06,-366.71 528.94,-335.44 510.63,-319.55"/>
<polygon fill="#63b8ff" stroke="#63b8ff" points="613.2,-393.82 623.78,-394.31 615.82,-387.32 613.2,-393.82"/>
</a>
</g>
</g>
</g>
</svg>
