<?xml version="1.0" encoding="UTF-8" standalone="no"?>
<!DOCTYPE svg PUBLIC "-//W3C//DTD SVG 1.1//EN"
 "http://www.w3.org/Graphics/SVG/1.1/DTD/svg11.dtd">
<!-- Generated by graphviz version 12.2.1 (20241206.2353)
 -->
<!-- Title: Maximum Pages: 1 -->
<svg width="935pt" height="278pt"
 viewBox="0.00 0.00 934.50 278.25" xmlns="http://www.w3.org/2000/svg" xmlns:xlink="http://www.w3.org/1999/xlink">
<g id="graph0" class="graph" transform="scale(1 1) rotate(0) translate(4 274.25)">
<title>Maximum</title>
<!-- Node1 -->
<g id="Node000001" class="node">
<title>Node1</title>
<g id="a_Node000001"><a xlink:title=" ">
<polygon fill="#999999" stroke="#666666" points="926.5,-141.25 867.75,-141.25 867.75,-122 926.5,-122 926.5,-141.25"/>
<text text-anchor="middle" x="897.12" y="-127.75" font-family="Helvetica,sans-Serif" font-size="10.00">Maximum</text>
</a>
</g>
</g>
<!-- Node2 -->
<g id="Node000002" class="node">
<title>Node2</title>
<g id="a_Node000002"><a xlink:href="../../d8/df4/_w_e_n_o2_d_8cpp_a27359f46a5902f1f50547f76408a48aa.html#a27359f46a5902f1f50547f76408a48aa" target="_top" xlink:title=" ">
<polygon fill="white" stroke="#666666" points="831.75,-234.25 686.75,-234.25 686.75,-215 831.75,-215 831.75,-234.25"/>
<text text-anchor="middle" x="759.25" y="-220.75" font-family="Helvetica,sans-Serif" font-size="10.00">Calculate_Face_WENO_Flux</text>
</a>
</g>
</g>
<!-- Node1&#45;&gt;Node2 -->
<g id="edge1_Node000001_Node000002" class="edge">
<title>Node1&#45;&gt;Node2</title>
<g id="a_edge1_Node000001_Node000002"><a xlink:title=" ">
<path fill="none" stroke="#63b8ff" d="M884.32,-151.22C872.96,-168.39 854.23,-192.72 831.75,-206.62 826.63,-209.79 820.99,-212.4 815.17,-214.55"/>
<polygon fill="#63b8ff" stroke="#63b8ff" points="887.2,-153.21 889.6,-142.89 881.29,-149.47 887.2,-153.21"/>
</a>
</g>
</g>
<!-- Node10 -->
<g id="Node000010" class="node">
<title>Node10</title>
<g id="a_Node000010"><a xlink:href="../../de/d88/_l_l_f_8cpp_a7a64f3d31bd875b4b1c595db26e909e6.html#a7a64f3d31bd875b4b1c595db26e909e6" target="_top" xlink:title=" ">
<polygon fill="white" stroke="#666666" points="775.5,-197.25 743,-197.25 743,-178 775.5,-178 775.5,-197.25"/>
<text text-anchor="middle" x="759.25" y="-183.75" font-family="Helvetica,sans-Serif" font-size="10.00">LLF</text>
</a>
</g>
</g>
<!-- Node1&#45;&gt;Node10 -->
<g id="edge10_Node000001_Node000010" class="edge">
<title>Node1&#45;&gt;Node10</title>
<g id="a_edge10_Node000001_Node000010"><a xlink:title=" ">
<path fill="none" stroke="#63b8ff" d="M872.39,-147.86C860.59,-155.34 845.86,-163.83 831.75,-169.62 813.16,-177.26 790.48,-182.3 775.72,-185.06"/>
<polygon fill="#63b8ff" stroke="#63b8ff" points="874.19,-150.86 880.65,-142.46 870.36,-145 874.19,-150.86"/>
</a>
</g>
</g>
<!-- Node12 -->
<g id="Node000012" class="node">
<title>Node12</title>
<g id="a_Node000012"><a xlink:href="../../de/d88/_l_l_f_8cpp_a3f7724701b89e020e5e2cb9aee42ca55.html#a3f7724701b89e020e5e2cb9aee42ca55" target="_top" xlink:title=" ">
<polygon fill="white" stroke="#666666" points="424.38,-122.25 373.88,-122.25 373.88,-103 424.38,-103 424.38,-122.25"/>
<text text-anchor="middle" x="399.12" y="-108.75" font-family="Helvetica,sans-Serif" font-size="10.00">LLF_2O</text>
</a>
</g>
</g>
<!-- Node1&#45;&gt;Node12 -->
<g id="edge12_Node000001_Node000012" class="edge">
<title>Node1&#45;&gt;Node12</title>
<g id="a_edge12_Node000001_Node000012"><a xlink:title=" ">
<path fill="none" stroke="#63b8ff" d="M856.06,-130.09C757.38,-126.31 504.81,-116.63 424.81,-113.57"/>
<polygon fill="#63b8ff" stroke="#63b8ff" points="855.67,-133.58 865.8,-130.46 855.94,-126.58 855.67,-133.58"/>
</a>
</g>
</g>
<!-- Node14 -->
<g id="Node000014" class="node">
<title>Node14</title>
<g id="a_Node000014"><a xlink:href="../../d0/da3/_limiters_8cpp_a01ee9151d91c270729e4d9df0a89e287.html#a01ee9151d91c270729e4d9df0a89e287" target="_top" xlink:title="Computes the MinMod limiter for three input values and updates the result in the provided reference.">
<polygon fill="white" stroke="#666666" points="784.5,-84.25 734,-84.25 734,-65 784.5,-65 784.5,-84.25"/>
<text text-anchor="middle" x="759.25" y="-70.75" font-family="Helvetica,sans-Serif" font-size="10.00">MinMod</text>
</a>
</g>
</g>
<!-- Node1&#45;&gt;Node14 -->
<g id="edge14_Node000001_Node000014" class="edge">
<title>Node1&#45;&gt;Node14</title>
<g id="a_edge14_Node000001_Node000014"><a xlink:title=" ">
<path fill="none" stroke="#63b8ff" d="M868.39,-116.25C857.19,-110.35 844.03,-103.8 831.75,-98.62 816.43,-92.17 798.71,-86.21 784.75,-81.85"/>
<polygon fill="#63b8ff" stroke="#63b8ff" points="866.63,-119.28 877.1,-120.93 869.94,-113.12 866.63,-119.28"/>
</a>
</g>
</g>
<!-- Node18 -->
<g id="Node000018" class="node">
<title>Node18</title>
<g id="a_Node000018"><a xlink:href="../../dd/d30/_m_o_v_e_r_s_8cpp_ad9d16fef8d34a1b19bfdbf938bf033be.html#ad9d16fef8d34a1b19bfdbf938bf033be" target="_top" xlink:title=" ">
<polygon fill="white" stroke="#666666" points="789,-160.25 729.5,-160.25 729.5,-141 789,-141 789,-160.25"/>
<text text-anchor="middle" x="759.25" y="-146.75" font-family="Helvetica,sans-Serif" font-size="10.00">MOVERS</text>
</a>
</g>
</g>
<!-- Node1&#45;&gt;Node18 -->
<g id="edge21_Node000001_Node000018" class="edge">
<title>Node1&#45;&gt;Node18</title>
<g id="a_edge21_Node000001_Node000018"><a xlink:title=" ">
<path fill="none" stroke="#63b8ff" d="M855.98,-137.24C834.65,-140.22 808.91,-143.82 789.49,-146.54"/>
<polygon fill="#63b8ff" stroke="#63b8ff" points="856.39,-140.72 865.81,-135.86 855.42,-133.78 856.39,-140.72"/>
</a>
</g>
</g>
<!-- Node19 -->
<g id="Node000019" class="node">
<title>Node19</title>
<g id="a_Node000019"><a xlink:href="../../dd/d30/_m_o_v_e_r_s_8cpp_a895c6dcdac689f71d89e341046362be9.html#a895c6dcdac689f71d89e341046362be9" target="_top" xlink:title=" ">
<polygon fill="white" stroke="#666666" points="610.25,-19.25 532.75,-19.25 532.75,0 610.25,0 610.25,-19.25"/>
<text text-anchor="middle" x="571.5" y="-5.75" font-family="Helvetica,sans-Serif" font-size="10.00">MOVERS_2O</text>
</a>
</g>
</g>
<!-- Node1&#45;&gt;Node19 -->
<g id="edge23_Node000001_Node000019" class="edge">
<title>Node1&#45;&gt;Node19</title>
<g id="a_edge23_Node000001_Node000019"><a xlink:title=" ">
<path fill="none" stroke="#63b8ff" d="M885.1,-112.16C874,-94.46 855.18,-69.1 831.75,-55.62 761.21,-15.07 663.43,-8.67 610.39,-8.54"/>
<polygon fill="#63b8ff" stroke="#63b8ff" points="881.81,-113.47 889.95,-120.25 887.82,-109.87 881.81,-113.47"/>
</a>
</g>
</g>
<!-- Node3 -->
<g id="Node000003" class="node">
<title>Node3</title>
<g id="a_Node000003"><a xlink:href="../../d8/df4/_w_e_n_o2_d_8cpp_a74c2795e4a164178c69743947d6e6cf5.html#a74c2795e4a164178c69743947d6e6cf5" target="_top" xlink:title=" ">
<polygon fill="white" stroke="#666666" points="650.75,-234.25 492.25,-234.25 492.25,-215 650.75,-215 650.75,-234.25"/>
<text text-anchor="middle" x="571.5" y="-220.75" font-family="Helvetica,sans-Serif" font-size="10.00">Evaluate_Cell_Net_Flux_WENO</text>
</a>
</g>
</g>
<!-- Node2&#45;&gt;Node3 -->
<g id="edge2_Node000002_Node000003" class="edge">
<title>Node2&#45;&gt;Node3</title>
<g id="a_edge2_Node000002_Node000003"><a xlink:title=" ">
<path fill="none" stroke="#63b8ff" d="M674.96,-224.62C667.06,-224.62 659.07,-224.62 651.22,-224.62"/>
<polygon fill="#63b8ff" stroke="#63b8ff" points="674.92,-228.13 684.92,-224.63 674.92,-221.13 674.92,-228.13"/>
</a>
</g>
</g>
<!-- Node4 -->
<g id="Node000004" class="node">
<title>Node4</title>
<g id="a_Node000004"><a xlink:href="../../d0/d64/_numerical___method_8cpp_a8dda0c7e17babab9b6e49e8e199dc30e.html#a8dda0c7e17babab9b6e49e8e199dc30e" target="_top" xlink:title=" ">
<polygon fill="white" stroke="#666666" points="442,-252.25 356.25,-252.25 356.25,-233 442,-233 442,-252.25"/>
<text text-anchor="middle" x="399.12" y="-238.75" font-family="Helvetica,sans-Serif" font-size="10.00">Explicit_Method</text>
</a>
</g>
</g>
<!-- Node3&#45;&gt;Node4 -->
<g id="edge3_Node000003_Node000004" class="edge">
<title>Node3&#45;&gt;Node4</title>
<g id="a_edge3_Node000003_Node000004"><a xlink:title=" ">
<path fill="none" stroke="#63b8ff" d="M480.56,-234.13C467.19,-235.54 453.98,-236.94 442.25,-238.17"/>
<polygon fill="#63b8ff" stroke="#63b8ff" points="480.71,-237.63 490.29,-233.1 479.98,-230.67 480.71,-237.63"/>
</a>
</g>
</g>
<!-- Node9 -->
<g id="Node000009" class="node">
<title>Node9</title>
<g id="a_Node000009"><a xlink:href="../../de/d22/_cuda___parallel___r_k_8cpp_a794f030971fbb7c9dd4bc08df03f50f1.html#a794f030971fbb7c9dd4bc08df03f50f1" target="_top" xlink:title=" ">
<polygon fill="white" stroke="#666666" points="454.38,-215.25 343.88,-215.25 343.88,-196 454.38,-196 454.38,-215.25"/>
<text text-anchor="middle" x="399.12" y="-201.75" font-family="Helvetica,sans-Serif" font-size="10.00">Runge_Kutta_Method</text>
</a>
</g>
</g>
<!-- Node3&#45;&gt;Node9 -->
<g id="edge9_Node000003_Node000009" class="edge">
<title>Node3&#45;&gt;Node9</title>
<g id="a_edge9_Node000003_Node000009"><a xlink:title=" ">
<path fill="none" stroke="#63b8ff" d="M480.59,-214.6C471.75,-213.61 462.98,-212.63 454.66,-211.71"/>
<polygon fill="#63b8ff" stroke="#63b8ff" points="479.97,-218.05 490.29,-215.68 480.74,-211.09 479.97,-218.05"/>
</a>
</g>
</g>
<!-- Node5 -->
<g id="Node000005" class="node">
<title>Node5</title>
<g id="a_Node000005"><a xlink:href="../../de/df0/_solver_8cpp_a09703a294b5a4e270033b2d488f8f02a.html#a09703a294b5a4e270033b2d488f8f02a" target="_top" xlink:title=" ">
<polygon fill="white" stroke="#666666" points="277.5,-270.25 194.75,-270.25 194.75,-251 277.5,-251 277.5,-270.25"/>
<text text-anchor="middle" x="236.12" y="-256.75" font-family="Helvetica,sans-Serif" font-size="10.00">Inviscid_Solver</text>
</a>
</g>
</g>
<!-- Node4&#45;&gt;Node5 -->
<g id="edge4_Node000004_Node000005" class="edge">
<title>Node4&#45;&gt;Node5</title>
<g id="a_edge4_Node000004_Node000005"><a xlink:title=" ">
<path fill="none" stroke="#63b8ff" d="M344.42,-248.63C322.67,-251.06 297.97,-253.82 277.76,-256.08"/>
<polygon fill="#63b8ff" stroke="#63b8ff" points="344.77,-252.11 354.32,-247.52 343.99,-245.16 344.77,-252.11"/>
</a>
</g>
</g>
<!-- Node8 -->
<g id="Node000008" class="node">
<title>Node8</title>
<g id="a_Node000008"><a xlink:href="../../de/df0/_solver_8cpp_a313c308da18b517cb3cf0384db6d4d7e.html#a313c308da18b517cb3cf0384db6d4d7e" target="_top" xlink:title=" ">
<polygon fill="white" stroke="#666666" points="278.25,-233.25 194,-233.25 194,-214 278.25,-214 278.25,-233.25"/>
<text text-anchor="middle" x="236.12" y="-219.75" font-family="Helvetica,sans-Serif" font-size="10.00">Viscous_Solver</text>
</a>
</g>
</g>
<!-- Node4&#45;&gt;Node8 -->
<g id="edge7_Node000004_Node000008" class="edge">
<title>Node4&#45;&gt;Node8</title>
<g id="a_edge7_Node000004_Node000008"><a xlink:title=" ">
<path fill="none" stroke="#63b8ff" d="M344.56,-236.3C323.07,-233.77 298.69,-230.89 278.59,-228.52"/>
<polygon fill="#63b8ff" stroke="#63b8ff" points="343.98,-239.76 354.32,-237.46 344.8,-232.81 343.98,-239.76"/>
</a>
</g>
</g>
<!-- Node6 -->
<g id="Node000006" class="node">
<title>Node6</title>
<g id="a_Node000006"><a xlink:href="../../d5/d12/_main_8cpp_afed4dca88e059a8cbd2c7af524468fe5.html#afed4dca88e059a8cbd2c7af524468fe5" target="_top" xlink:title="Executes the appropriate solver based on the simulation configuration.">
<polygon fill="white" stroke="#666666" points="130.25,-251.25 73,-251.25 73,-232 130.25,-232 130.25,-251.25"/>
<text text-anchor="middle" x="101.62" y="-237.75" font-family="Helvetica,sans-Serif" font-size="10.00">runSolver</text>
</a>
</g>
</g>
<!-- Node5&#45;&gt;Node6 -->
<g id="edge5_Node000005_Node000006" class="edge">
<title>Node5&#45;&gt;Node6</title>
<g id="a_edge5_Node000005_Node000006"><a xlink:title=" ">
<path fill="none" stroke="#63b8ff" d="M183.08,-253.16C165.15,-250.59 145.78,-247.81 130.53,-245.63"/>
<polygon fill="#63b8ff" stroke="#63b8ff" points="182.4,-256.6 192.79,-254.55 183.39,-249.67 182.4,-256.6"/>
</a>
</g>
</g>
<!-- Node7 -->
<g id="Node000007" class="node">
<title>Node7</title>
<g id="a_Node000007"><a xlink:href="../../d5/d12/_main_8cpp_a0ddf1224851353fc92bfbff6f499fa97.html#a0ddf1224851353fc92bfbff6f499fa97" target="_top" xlink:title=" ">
<polygon fill="white" stroke="#666666" points="37,-251.25 0,-251.25 0,-232 37,-232 37,-251.25"/>
<text text-anchor="middle" x="18.5" y="-237.75" font-family="Helvetica,sans-Serif" font-size="10.00">main</text>
</a>
</g>
</g>
<!-- Node6&#45;&gt;Node7 -->
<g id="edge6_Node000006_Node000007" class="edge">
<title>Node6&#45;&gt;Node7</title>
<g id="a_edge6_Node000006_Node000007"><a xlink:title=" ">
<path fill="none" stroke="#63b8ff" d="M61.38,-241.62C52.95,-241.62 44.43,-241.62 37.3,-241.62"/>
<polygon fill="#63b8ff" stroke="#63b8ff" points="61.19,-245.13 71.19,-241.63 61.19,-238.13 61.19,-245.13"/>
</a>
</g>
</g>
<!-- Node8&#45;&gt;Node6 -->
<g id="edge8_Node000008_Node000006" class="edge">
<title>Node8&#45;&gt;Node6</title>
<g id="a_edge8_Node000008_Node000006"><a xlink:title=" ">
<path fill="none" stroke="#63b8ff" d="M182.22,-230.81C164.58,-233.21 145.62,-235.78 130.63,-237.82"/>
<polygon fill="#63b8ff" stroke="#63b8ff" points="182.63,-234.29 192.06,-229.47 181.68,-227.35 182.63,-234.29"/>
</a>
</g>
</g>
<!-- Node11 -->
<g id="Node000011" class="node">
<title>Node11</title>
<g id="a_Node000011"><a xlink:href="../../d9/ddd/_c_u_d_a___integrated___numerical___method_8cpp_ad25c9a53b380204dd243bc1351d6b098.html#ad25c9a53b380204dd243bc1351d6b098" target="_top" xlink:title=" ">
<polygon fill="white" stroke="#666666" points="641.38,-179.25 501.62,-179.25 501.62,-160 641.38,-160 641.38,-179.25"/>
<text text-anchor="middle" x="571.5" y="-165.75" font-family="Helvetica,sans-Serif" font-size="10.00">Evaluate_Cell_Net_Flux_1O</text>
</a>
</g>
</g>
<!-- Node10&#45;&gt;Node11 -->
<g id="edge11_Node000010_Node000011" class="edge">
<title>Node10&#45;&gt;Node11</title>
<g id="a_edge11_Node000010_Node000011"><a xlink:title=" ">
<path fill="none" stroke="#63b8ff" d="M731.31,-185.01C707.89,-182.74 672.91,-179.36 641.74,-176.33"/>
<polygon fill="#63b8ff" stroke="#63b8ff" points="730.94,-188.49 741.23,-185.98 731.61,-181.53 730.94,-188.49"/>
</a>
</g>
</g>
<!-- Node13 -->
<g id="Node000013" class="node">
<title>Node13</title>
<g id="a_Node000013"><a xlink:href="../../d9/ddd/_c_u_d_a___integrated___numerical___method_8cpp_a4db2fe24c2a78f98ac91e9d7d271430f.html#a4db2fe24c2a78f98ac91e9d7d271430f" target="_top" xlink:title=" ">
<polygon fill="white" stroke="#666666" points="306,-67.25 166.25,-67.25 166.25,-48 306,-48 306,-67.25"/>
<text text-anchor="middle" x="236.12" y="-53.75" font-family="Helvetica,sans-Serif" font-size="10.00">Evaluate_Cell_Net_Flux_2O</text>
</a>
</g>
</g>
<!-- Node12&#45;&gt;Node13 -->
<g id="edge13_Node000012_Node000013" class="edge">
<title>Node12&#45;&gt;Node13</title>
<g id="a_edge13_Node000012_Node000013"><a xlink:title=" ">
<path fill="none" stroke="#63b8ff" d="M362.91,-101.5C355.97,-99.26 348.75,-96.9 342,-94.62 315.83,-85.82 286.18,-75.3 265.09,-67.74"/>
<polygon fill="#63b8ff" stroke="#63b8ff" points="361.45,-104.71 372.05,-104.43 363.59,-98.05 361.45,-104.71"/>
</a>
</g>
</g>
<!-- Node15 -->
<g id="Node000015" class="node">
<title>Node15</title>
<g id="a_Node000015"><a xlink:href="../../d0/da3/_limiters_8cpp_a6bdb2d5e0ff963b9b5b395dc79a19acd.html#a6bdb2d5e0ff963b9b5b395dc79a19acd" target="_top" xlink:title="Computes the second&#45;order limited slopes and reconstructs variables for a given cell and face.">
<polygon fill="white" stroke="#666666" points="627.88,-84.25 515.12,-84.25 515.12,-65 627.88,-65 627.88,-84.25"/>
<text text-anchor="middle" x="571.5" y="-70.75" font-family="Helvetica,sans-Serif" font-size="10.00">Second_Order_Limiter</text>
</a>
</g>
</g>
<!-- Node14&#45;&gt;Node15 -->
<g id="edge15_Node000014_Node000015" class="edge">
<title>Node14&#45;&gt;Node15</title>
<g id="a_edge15_Node000014_Node000015"><a xlink:title=" ">
<path fill="none" stroke="#63b8ff" d="M722.1,-74.62C695.42,-74.62 658.62,-74.62 628.19,-74.62"/>
<polygon fill="#63b8ff" stroke="#63b8ff" points="722.07,-78.13 732.07,-74.63 722.07,-71.13 722.07,-78.13"/>
</a>
</g>
</g>
<!-- Node15&#45;&gt;Node12 -->
<g id="edge16_Node000015_Node000012" class="edge">
<title>Node15&#45;&gt;Node12</title>
<g id="a_edge16_Node000015_Node000012"><a xlink:title=" ">
<path fill="none" stroke="#63b8ff" d="M514.36,-87.15C483.9,-93.94 447.81,-101.99 424.47,-107.19"/>
<polygon fill="#63b8ff" stroke="#63b8ff" points="514.81,-90.63 523.81,-85.04 513.29,-83.8 514.81,-90.63"/>
</a>
</g>
</g>
<!-- Node16 -->
<g id="Node000016" class="node">
<title>Node16</title>
<g id="a_Node000016"><a xlink:href="../../d9/d99/_m_o_v_e_r_s___n_w_s_c_8cpp_a52270c83adc7b5111fd5b794d1d2f99a.html#a52270c83adc7b5111fd5b794d1d2f99a" target="_top" xlink:title=" ">
<polygon fill="white" stroke="#666666" points="456.25,-85.25 342,-85.25 342,-66 456.25,-66 456.25,-85.25"/>
<text text-anchor="middle" x="399.12" y="-71.75" font-family="Helvetica,sans-Serif" font-size="10.00">MOVERS_NWSC_2O</text>
</a>
</g>
</g>
<!-- Node15&#45;&gt;Node16 -->
<g id="edge17_Node000015_Node000016" class="edge">
<title>Node15&#45;&gt;Node16</title>
<g id="a_edge17_Node000015_Node000016"><a xlink:title=" ">
<path fill="none" stroke="#63b8ff" d="M503.58,-75.02C488.05,-75.11 471.66,-75.21 456.62,-75.29"/>
<polygon fill="#63b8ff" stroke="#63b8ff" points="503.22,-78.52 513.2,-74.96 503.18,-71.52 503.22,-78.52"/>
</a>
</g>
</g>
<!-- Node17 -->
<g id="Node000017" class="node">
<title>Node17</title>
<g id="a_Node000017"><a xlink:href="../../d6/d22/_r_i_c_c_a_8cpp_a8c2c0508c9bf49dfb9aab35d82f560ce.html#a8c2c0508c9bf49dfb9aab35d82f560ce" target="_top" xlink:title="Computes the dissipative flux for a given cell and face using the second&#45;order RICCA method.">
<polygon fill="white" stroke="#666666" points="432.25,-48.25 366,-48.25 366,-29 432.25,-29 432.25,-48.25"/>
<text text-anchor="middle" x="399.12" y="-34.75" font-family="Helvetica,sans-Serif" font-size="10.00">RICCA_2O</text>
</a>
</g>
</g>
<!-- Node15&#45;&gt;Node17 -->
<g id="edge19_Node000015_Node000017" class="edge">
<title>Node15&#45;&gt;Node17</title>
<g id="a_edge19_Node000015_Node000017"><a xlink:title=" ">
<path fill="none" stroke="#63b8ff" d="M511.51,-62.16C485.06,-56.57 454.88,-50.19 432.61,-45.49"/>
<polygon fill="#63b8ff" stroke="#63b8ff" points="510.6,-65.55 521.11,-64.19 512.05,-58.7 510.6,-65.55"/>
</a>
</g>
</g>
<!-- Node16&#45;&gt;Node13 -->
<g id="edge18_Node000016_Node000013" class="edge">
<title>Node16&#45;&gt;Node13</title>
<g id="a_edge18_Node000016_Node000013"><a xlink:title=" ">
<path fill="none" stroke="#63b8ff" d="M330.37,-68.05C322.46,-67.17 314.37,-66.26 306.43,-65.37"/>
<polygon fill="#63b8ff" stroke="#63b8ff" points="329.98,-71.53 340.31,-69.16 330.76,-64.57 329.98,-71.53"/>
</a>
</g>
</g>
<!-- Node17&#45;&gt;Node13 -->
<g id="edge20_Node000017_Node000013" class="edge">
<title>Node17&#45;&gt;Node13</title>
<g id="a_edge20_Node000017_Node000013"><a xlink:title=" ">
<path fill="none" stroke="#63b8ff" d="M354.18,-43.81C339.38,-45.56 322.49,-47.55 306.23,-49.47"/>
<polygon fill="#63b8ff" stroke="#63b8ff" points="354.52,-47.3 364.04,-42.65 353.7,-40.34 354.52,-47.3"/>
</a>
</g>
</g>
<!-- Node18&#45;&gt;Node11 -->
<g id="edge22_Node000018_Node000011" class="edge">
<title>Node18&#45;&gt;Node11</title>
<g id="a_edge22_Node000018_Node000011"><a xlink:title=" ">
<path fill="none" stroke="#63b8ff" d="M717.87,-154.76C695.64,-157.03 667.44,-159.91 641.8,-162.54"/>
<polygon fill="#63b8ff" stroke="#63b8ff" points="718.13,-158.25 727.72,-153.75 717.42,-151.28 718.13,-158.25"/>
</a>
</g>
</g>
<!-- Node19&#45;&gt;Node13 -->
<g id="edge24_Node000019_Node000013" class="edge">
<title>Node19&#45;&gt;Node13</title>
<g id="a_edge24_Node000019_Node000013"><a xlink:title=" ">
<path fill="none" stroke="#63b8ff" d="M521.19,-7.5C474.56,-6.5 402.86,-7.56 342,-19.62 312.18,-25.54 279.49,-38.49 258.67,-47.62"/>
<polygon fill="#63b8ff" stroke="#63b8ff" points="520.88,-11 530.97,-7.76 521.06,-4 520.88,-11"/>
</a>
</g>
</g>
</g>
</svg>
