<?xml version="1.0" encoding="UTF-8" standalone="no"?>
<!DOCTYPE svg PUBLIC "-//W3C//DTD SVG 1.1//EN"
 "http://www.w3.org/Graphics/SVG/1.1/DTD/svg11.dtd">
<!-- Generated by graphviz version 12.2.1 (20241206.2353)
 -->
<!-- Title: Grid::operator() Pages: 1 -->
<svg width="234pt" height="64pt"
 viewBox="0.00 0.00 234.25 64.25" xmlns="http://www.w3.org/2000/svg" xmlns:xlink="http://www.w3.org/1999/xlink">
<g id="graph0" class="graph" transform="scale(1 1) rotate(0) translate(4 60.25)">
<title>Grid::operator()</title>
<!-- Node1 -->
<g id="Node000001" class="node">
<title>Node1</title>
<g id="a_Node000001"><a xlink:title=" ">
<polygon fill="#999999" stroke="#666666" points="81.25,-37.25 0,-37.25 0,-18 81.25,-18 81.25,-37.25"/>
<text text-anchor="middle" x="40.62" y="-23.75" font-family="Helvetica,sans-Serif" font-size="10.00">Grid::operator()</text>
</a>
</g>
</g>
<!-- Node2 -->
<g id="Node000002" class="node">
<title>Node2</title>
<g id="a_Node000002"><a xlink:href="../../d0/d88/class_circle_a654fde16ec5471192243ccfa344c9f75.html#a654fde16ec5471192243ccfa344c9f75" target="_top" xlink:title=" ">
<polygon fill="white" stroke="#666666" points="213.88,-56.25 129.62,-56.25 129.62,-37 213.88,-37 213.88,-56.25"/>
<text text-anchor="middle" x="171.75" y="-42.75" font-family="Helvetica,sans-Serif" font-size="10.00">Circle::get_Nop</text>
</a>
</g>
</g>
<!-- Node1&#45;&gt;Node2 -->
<g id="edge1_Node000001_Node000002" class="edge">
<title>Node1&#45;&gt;Node2</title>
<g id="a_edge1_Node000001_Node000002"><a xlink:title=" ">
<path fill="none" stroke="#63b8ff" d="M81.42,-33.48C93.11,-35.2 106.07,-37.11 118.42,-38.92"/>
<polygon fill="#63b8ff" stroke="#63b8ff" points="117.62,-42.35 128.03,-40.34 118.64,-35.42 117.62,-42.35"/>
</a>
</g>
</g>
<!-- Node3 -->
<g id="Node000003" class="node">
<title>Node3</title>
<g id="a_Node000003"><a xlink:href="../../d0/d88/class_circle_a468a9fd60b528d2a89f442d0e95d7031.html#a468a9fd60b528d2a89f442d0e95d7031" target="_top" xlink:title=" ">
<polygon fill="white" stroke="#666666" points="226.25,-19.25 117.25,-19.25 117.25,0 226.25,0 226.25,-19.25"/>
<text text-anchor="middle" x="171.75" y="-5.75" font-family="Helvetica,sans-Serif" font-size="10.00">Circle::Get_Point_list</text>
</a>
</g>
</g>
<!-- Node1&#45;&gt;Node3 -->
<g id="edge2_Node000001_Node000003" class="edge">
<title>Node1&#45;&gt;Node3</title>
<g id="a_edge2_Node000001_Node000003"><a xlink:title=" ">
<path fill="none" stroke="#63b8ff" d="M81.42,-22.08C89.16,-21 97.47,-19.84 105.78,-18.68"/>
<polygon fill="#63b8ff" stroke="#63b8ff" points="106.15,-22.16 115.57,-17.32 105.18,-15.23 106.15,-22.16"/>
</a>
</g>
</g>
</g>
</svg>
