<?xml version="1.0" encoding="UTF-8" standalone="no"?>
<!DOCTYPE svg PUBLIC "-//W3C//DTD SVG 1.1//EN"
 "http://www.w3.org/Graphics/SVG/1.1/DTD/svg11.dtd">
<!-- Generated by graphviz version 12.2.1 (20241206.2353)
 -->
<!-- Title: Explicit_Method Pages: 1 -->
<svg width="979pt" height="624pt"
 viewBox="0.00 0.00 978.50 624.25" xmlns="http://www.w3.org/2000/svg" xmlns:xlink="http://www.w3.org/1999/xlink">
<g id="graph0" class="graph" transform="scale(1 1) rotate(0) translate(4 620.25)">
<title>Explicit_Method</title>
<!-- Node1 -->
<g id="Node000001" class="node">
<title>Node1</title>
<g id="a_Node000001"><a xlink:title=" ">
<polygon fill="#999999" stroke="#666666" points="85.75,-261.25 0,-261.25 0,-242 85.75,-242 85.75,-261.25"/>
<text text-anchor="middle" x="42.88" y="-247.75" font-family="Helvetica,sans-Serif" font-size="10.00">Explicit_Method</text>
</a>
</g>
</g>
<!-- Node2 -->
<g id="Node000002" class="node">
<title>Node2</title>
<g id="a_Node000002"><a xlink:href="../../d7/db1/_net___flux_8cpp_ad25c9a53b380204dd243bc1351d6b098.html#ad25c9a53b380204dd243bc1351d6b098" target="_top" xlink:title="Evaluates the first&#45;order net flux for all cells in the computational domain.">
<polygon fill="white" stroke="#666666" points="270.88,-437.25 131.12,-437.25 131.12,-418 270.88,-418 270.88,-437.25"/>
<text text-anchor="middle" x="201" y="-423.75" font-family="Helvetica,sans-Serif" font-size="10.00">Evaluate_Cell_Net_Flux_1O</text>
</a>
</g>
</g>
<!-- Node1&#45;&gt;Node2 -->
<g id="edge1_Node000001_Node000002" class="edge">
<title>Node1&#45;&gt;Node2</title>
<g id="a_edge1_Node000001_Node000002"><a xlink:title=" ">
<path fill="none" stroke="#63b8ff" d="M52.72,-261.59C78.05,-290.15 151.17,-372.58 183.87,-409.44"/>
<polygon fill="#63b8ff" stroke="#63b8ff" points="181,-411.48 190.25,-416.64 186.23,-406.83 181,-411.48"/>
</a>
</g>
</g>
<!-- Node23 -->
<g id="Node000023" class="node">
<title>Node23</title>
<g id="a_Node000023"><a xlink:href="../../d7/db1/_net___flux_8cpp_a4db2fe24c2a78f98ac91e9d7d271430f.html#a4db2fe24c2a78f98ac91e9d7d271430f" target="_top" xlink:title="Evaluates the net flux for each cell using a second&#45;order flux calculation method.">
<polygon fill="white" stroke="#666666" points="270.88,-289.25 131.12,-289.25 131.12,-270 270.88,-270 270.88,-289.25"/>
<text text-anchor="middle" x="201" y="-275.75" font-family="Helvetica,sans-Serif" font-size="10.00">Evaluate_Cell_Net_Flux_2O</text>
</a>
</g>
</g>
<!-- Node1&#45;&gt;Node23 -->
<g id="edge26_Node000001_Node000023" class="edge">
<title>Node1&#45;&gt;Node23</title>
<g id="a_edge26_Node000001_Node000023"><a xlink:title=" ">
<path fill="none" stroke="#63b8ff" d="M86.12,-259.2C100.37,-261.76 116.64,-264.68 132.34,-267.49"/>
<polygon fill="#63b8ff" stroke="#63b8ff" points="131.69,-270.93 142.15,-269.25 132.92,-264.04 131.69,-270.93"/>
</a>
</g>
</g>
<!-- Node30 -->
<g id="Node000030" class="node">
<title>Node30</title>
<g id="a_Node000030"><a xlink:href="../../d8/df4/_w_e_n_o2_d_8cpp_a74c2795e4a164178c69743947d6e6cf5.html#a74c2795e4a164178c69743947d6e6cf5" target="_top" xlink:title=" ">
<polygon fill="white" stroke="#666666" points="280.25,-224.25 121.75,-224.25 121.75,-205 280.25,-205 280.25,-224.25"/>
<text text-anchor="middle" x="201" y="-210.75" font-family="Helvetica,sans-Serif" font-size="10.00">Evaluate_Cell_Net_Flux_WENO</text>
</a>
</g>
</g>
<!-- Node1&#45;&gt;Node30 -->
<g id="edge44_Node000001_Node000030" class="edge">
<title>Node1&#45;&gt;Node30</title>
<g id="a_edge44_Node000001_Node000030"><a xlink:title=" ">
<path fill="none" stroke="#63b8ff" d="M86.12,-241.61C104.71,-237.21 126.74,-231.99 146.46,-227.31"/>
<polygon fill="#63b8ff" stroke="#63b8ff" points="147.05,-230.77 155.97,-225.06 145.43,-223.96 147.05,-230.77"/>
</a>
</g>
</g>
<!-- Node40 -->
<g id="Node000040" class="node">
<title>Node40</title>
<g id="a_Node000040"><a xlink:href="../../d9/ddd/_c_u_d_a___integrated___numerical___method_8cpp_ae46e7fe958b106b2f30153d9abeb38cc.html#ae46e7fe958b106b2f30153d9abeb38cc" target="_top" xlink:title=" ">
<polygon fill="white" stroke="#666666" points="258.88,-187.25 143.12,-187.25 143.12,-168 258.88,-168 258.88,-187.25"/>
<text text-anchor="middle" x="201" y="-173.75" font-family="Helvetica,sans-Serif" font-size="10.00">explicit_method_kernel</text>
</a>
</g>
</g>
<!-- Node1&#45;&gt;Node40 -->
<g id="edge56_Node000001_Node000040" class="edge">
<title>Node1&#45;&gt;Node40</title>
<g id="a_edge56_Node000001_Node000040"><a xlink:title=" ">
<path fill="none" stroke="#63b8ff" d="M54.6,-241.74C68.86,-229.15 95.35,-207.57 121.75,-195.62 125.46,-193.95 129.34,-192.42 133.31,-191.02"/>
<polygon fill="#63b8ff" stroke="#63b8ff" points="134.04,-194.47 142.51,-188.1 131.92,-187.79 134.04,-194.47"/>
</a>
</g>
</g>
<!-- Node3 -->
<g id="Node000003" class="node">
<title>Node3</title>
<g id="a_Node000003"><a xlink:href="../../d7/db1/_net___flux_8cpp_a7cee697783ecef13423db8d0fa585cbb.html#a7cee697783ecef13423db8d0fa585cbb" target="_top" xlink:title="Evaluates flux on a given face. Removed unused variables Cells_DelT_invVol and Cell_Areas to avoid co...">
<polygon fill="white" stroke="#666666" points="439.12,-578.88 338.38,-578.88 338.38,-548.38 439.12,-548.38 439.12,-578.88"/>
<text text-anchor="start" x="346.38" y="-565.38" font-family="Helvetica,sans-Serif" font-size="10.00">Calculate_Flux_For</text>
<text text-anchor="middle" x="388.75" y="-554.12" font-family="Helvetica,sans-Serif" font-size="10.00">_All_Faces</text>
</a>
</g>
</g>
<!-- Node2&#45;&gt;Node3 -->
<g id="edge2_Node000002_Node000003" class="edge">
<title>Node2&#45;&gt;Node3</title>
<g id="a_edge2_Node000002_Node000003"><a xlink:title=" ">
<path fill="none" stroke="#63b8ff" d="M209.46,-437.52C226.22,-459.09 269.12,-510.75 316.25,-539.62 319.81,-541.81 323.59,-543.81 327.48,-545.66"/>
<polygon fill="#63b8ff" stroke="#63b8ff" points="326.01,-548.84 336.58,-549.58 328.78,-542.41 326.01,-548.84"/>
</a>
</g>
</g>
<!-- Node5 -->
<g id="Node000005" class="node">
<title>Node5</title>
<g id="a_Node000005"><a xlink:href="../../de/df0/_solver_8cpp_a1a130a004ad45d61258215e5579c3060.html#a1a130a004ad45d61258215e5579c3060" target="_top" xlink:title=" ">
<polygon fill="white" stroke="#666666" points="442.12,-197.25 335.38,-197.25 335.38,-178 442.12,-178 442.12,-197.25"/>
<text text-anchor="middle" x="388.75" y="-183.75" font-family="Helvetica,sans-Serif" font-size="10.00">Evaluate_Time_Step</text>
</a>
</g>
</g>
<!-- Node2&#45;&gt;Node5 -->
<g id="edge4_Node000002_Node000005" class="edge">
<title>Node2&#45;&gt;Node5</title>
<g id="a_edge4_Node000002_Node000005"><a xlink:title=" ">
<path fill="none" stroke="#63b8ff" d="M208.92,-417.61C223.41,-396.36 257.47,-344.93 280.25,-298.62 299.82,-258.86 283.05,-234.98 316.25,-205.62 318.9,-203.28 321.81,-201.24 324.89,-199.45"/>
<polygon fill="#63b8ff" stroke="#63b8ff" points="326.29,-202.66 333.85,-195.23 323.31,-196.33 326.29,-202.66"/>
</a>
</g>
</g>
<!-- Node12 -->
<g id="Node000012" class="node">
<title>Node12</title>
<g id="a_Node000012"><a xlink:href="../../de/d88/_l_l_f_8cpp_a7a64f3d31bd875b4b1c595db26e909e6.html#a7a64f3d31bd875b4b1c595db26e909e6" target="_top" xlink:title=" ">
<polygon fill="white" stroke="#666666" points="405,-456.25 372.5,-456.25 372.5,-437 405,-437 405,-456.25"/>
<text text-anchor="middle" x="388.75" y="-442.75" font-family="Helvetica,sans-Serif" font-size="10.00">LLF</text>
</a>
</g>
</g>
<!-- Node2&#45;&gt;Node12 -->
<g id="edge13_Node000002_Node000012" class="edge">
<title>Node2&#45;&gt;Node12</title>
<g id="a_edge13_Node000002_Node000012"><a xlink:title=" ">
<path fill="none" stroke="#63b8ff" d="M271.17,-434.7C302.29,-437.88 337.23,-441.46 360.67,-443.85"/>
<polygon fill="#63b8ff" stroke="#63b8ff" points="360.29,-447.33 370.6,-444.87 361.01,-440.37 360.29,-447.33"/>
</a>
</g>
</g>
<!-- Node14 -->
<g id="Node000014" class="node">
<title>Node14</title>
<g id="a_Node000014"><a xlink:href="../../dd/d30/_m_o_v_e_r_s_8cpp_ad9d16fef8d34a1b19bfdbf938bf033be.html#ad9d16fef8d34a1b19bfdbf938bf033be" target="_top" xlink:title=" ">
<polygon fill="white" stroke="#666666" points="418.5,-530.25 359,-530.25 359,-511 418.5,-511 418.5,-530.25"/>
<text text-anchor="middle" x="388.75" y="-516.75" font-family="Helvetica,sans-Serif" font-size="10.00">MOVERS</text>
</a>
</g>
</g>
<!-- Node2&#45;&gt;Node14 -->
<g id="edge15_Node000002_Node000014" class="edge">
<title>Node2&#45;&gt;Node14</title>
<g id="a_edge15_Node000002_Node000014"><a xlink:title=" ">
<path fill="none" stroke="#63b8ff" d="M214.22,-437.66C234.29,-453.67 276.06,-484.98 316.25,-502.62 326.15,-506.97 337.3,-510.41 347.79,-513.06"/>
<polygon fill="#63b8ff" stroke="#63b8ff" points="346.83,-516.43 357.36,-515.3 348.42,-509.62 346.83,-516.43"/>
</a>
</g>
</g>
<!-- Node18 -->
<g id="Node000018" class="node">
<title>Node18</title>
<g id="a_Node000018"><a xlink:href="../../d9/d99/_m_o_v_e_r_s___n_w_s_c_8cpp_a416436566931a0de24fa118c38443219.html#a416436566931a0de24fa118c38443219" target="_top" xlink:title=" ">
<polygon fill="white" stroke="#666666" points="436.88,-419.25 340.62,-419.25 340.62,-400 436.88,-400 436.88,-419.25"/>
<text text-anchor="middle" x="388.75" y="-405.75" font-family="Helvetica,sans-Serif" font-size="10.00">MOVERS_NWSC</text>
</a>
</g>
</g>
<!-- Node2&#45;&gt;Node18 -->
<g id="edge20_Node000002_Node000018" class="edge">
<title>Node2&#45;&gt;Node18</title>
<g id="a_edge20_Node000002_Node000018"><a xlink:title=" ">
<path fill="none" stroke="#63b8ff" d="M271.17,-420.92C290.12,-419.09 310.5,-417.11 328.82,-415.34"/>
<polygon fill="#63b8ff" stroke="#63b8ff" points="329.11,-418.82 338.73,-414.38 328.44,-411.86 329.11,-418.82"/>
</a>
</g>
</g>
<!-- Node20 -->
<g id="Node000020" class="node">
<title>Node20</title>
<g id="a_Node000020"><a xlink:href="../../d6/d22/_r_i_c_c_a_8cpp_a6fba3f461237dd1fd4ba27d9504681e2.html#a6fba3f461237dd1fd4ba27d9504681e2" target="_top" xlink:title="Computes the dissipative flux for a given cell and face using the RICCA method.">
<polygon fill="white" stroke="#666666" points="412.88,-382.25 364.62,-382.25 364.62,-363 412.88,-363 412.88,-382.25"/>
<text text-anchor="middle" x="388.75" y="-368.75" font-family="Helvetica,sans-Serif" font-size="10.00">RICCA</text>
</a>
</g>
</g>
<!-- Node2&#45;&gt;Node20 -->
<g id="edge22_Node000002_Node000020" class="edge">
<title>Node2&#45;&gt;Node20</title>
<g id="a_edge22_Node000002_Node000020"><a xlink:title=" ">
<path fill="none" stroke="#63b8ff" d="M230.95,-417.66C253.95,-409.89 286.99,-399.03 316.25,-390.62 328.15,-387.2 341.27,-383.8 352.99,-380.88"/>
<polygon fill="#63b8ff" stroke="#63b8ff" points="353.79,-384.29 362.67,-378.51 352.12,-377.49 353.79,-384.29"/>
</a>
</g>
</g>
<!-- Node22 -->
<g id="Node000022" class="node">
<title>Node22</title>
<g id="a_Node000022"><a xlink:href="../../d2/d7e/_roe___scheme_8cpp_a9c59619af968242393e11841b8a177af.html#a9c59619af968242393e11841b8a177af" target="_top" xlink:title=" ">
<polygon fill="white" stroke="#666666" points="407.62,-616.25 369.88,-616.25 369.88,-597 407.62,-597 407.62,-616.25"/>
<text text-anchor="middle" x="388.75" y="-602.75" font-family="Helvetica,sans-Serif" font-size="10.00">ROE</text>
</a>
</g>
</g>
<!-- Node2&#45;&gt;Node22 -->
<g id="edge25_Node000002_Node000022" class="edge">
<title>Node2&#45;&gt;Node22</title>
<g id="a_edge25_Node000002_Node000022"><a xlink:title=" ">
<path fill="none" stroke="#63b8ff" d="M206.21,-437.72C218.56,-466.08 257.58,-547.04 316.25,-587.62 328.59,-596.16 344.55,-600.86 358.26,-603.45"/>
<polygon fill="#63b8ff" stroke="#63b8ff" points="357.66,-606.9 368.09,-604.99 358.75,-599.99 357.66,-606.9"/>
</a>
</g>
</g>
<!-- Node4 -->
<g id="Node000004" class="node">
<title>Node4</title>
<g id="a_Node000004"><a xlink:href="../../d7/d5e/_average___interface___flux_8cpp_a372e43b702d58e007c6c18bd482ce84d.html#a372e43b702d58e007c6c18bd482ce84d" target="_top" xlink:title="Calculates the average convective flux at a given face of a cell.">
<polygon fill="white" stroke="#666666" points="653.12,-595.25 503.62,-595.25 503.62,-576 653.12,-576 653.12,-595.25"/>
<text text-anchor="middle" x="578.38" y="-581.75" font-family="Helvetica,sans-Serif" font-size="10.00">Calculate_Face_Average_Flux</text>
</a>
</g>
</g>
<!-- Node3&#45;&gt;Node4 -->
<g id="edge3_Node000003_Node000004" class="edge">
<title>Node3&#45;&gt;Node4</title>
<g id="a_edge3_Node000003_Node000004"><a xlink:title=" ">
<path fill="none" stroke="#63b8ff" d="M439.54,-569.46C455.64,-571.35 473.99,-573.5 491.92,-575.61"/>
<polygon fill="#63b8ff" stroke="#63b8ff" points="491.47,-579.08 501.81,-576.77 492.29,-572.12 491.47,-579.08"/>
</a>
</g>
</g>
<!-- Node6 -->
<g id="Node000006" class="node">
<title>Node6</title>
<g id="a_Node000006"><a xlink:href="../../de/df0/_solver_8cpp_a47640e22da2b590d3d2ddce8b175467c.html#a47640e22da2b590d3d2ddce8b175467c" target="_top" xlink:title=" ">
<polygon fill="white" stroke="#666666" points="629.5,-197.25 527.25,-197.25 527.25,-178 629.5,-178 629.5,-197.25"/>
<text text-anchor="middle" x="578.38" y="-183.75" font-family="Helvetica,sans-Serif" font-size="10.00">Inviscid_Time_Step</text>
</a>
</g>
</g>
<!-- Node5&#45;&gt;Node6 -->
<g id="edge5_Node000005_Node000006" class="edge">
<title>Node5&#45;&gt;Node6</title>
<g id="a_edge5_Node000005_Node000006"><a xlink:title=" ">
<path fill="none" stroke="#63b8ff" d="M442.51,-187.62C465.24,-187.62 491.97,-187.62 515.62,-187.62"/>
<polygon fill="#63b8ff" stroke="#63b8ff" points="515.43,-191.13 525.43,-187.63 515.43,-184.13 515.43,-191.13"/>
</a>
</g>
</g>
<!-- Node8 -->
<g id="Node000008" class="node">
<title>Node8</title>
<g id="a_Node000008"><a xlink:href="../../de/df0/_solver_8cpp_a36c2de590bd3f96d1bda12574ab41343.html#a36c2de590bd3f96d1bda12574ab41343" target="_top" xlink:title=" ">
<polygon fill="white" stroke="#666666" points="635.5,-271.25 521.25,-271.25 521.25,-252 635.5,-252 635.5,-271.25"/>
<text text-anchor="middle" x="578.38" y="-257.75" font-family="Helvetica,sans-Serif" font-size="10.00">Viscous_Time_Step_1</text>
</a>
</g>
</g>
<!-- Node5&#45;&gt;Node8 -->
<g id="edge8_Node000005_Node000008" class="edge">
<title>Node5&#45;&gt;Node8</title>
<g id="a_edge8_Node000005_Node000008"><a xlink:title=" ">
<path fill="none" stroke="#63b8ff" d="M442.28,-197.17C448.9,-199.42 455.39,-202.2 461.25,-205.62 481.33,-217.38 477.02,-232.13 497.25,-243.62 501.36,-245.96 505.76,-248 510.29,-249.77"/>
<polygon fill="#63b8ff" stroke="#63b8ff" points="509.02,-253.03 519.62,-252.95 511.28,-246.41 509.02,-253.03"/>
</a>
</g>
</g>
<!-- Node10 -->
<g id="Node000010" class="node">
<title>Node10</title>
<g id="a_Node000010"><a xlink:href="../../de/df0/_solver_8cpp_aae9689c4164406f72554331b4c337962.html#aae9689c4164406f72554331b4c337962" target="_top" xlink:title=" ">
<polygon fill="white" stroke="#666666" points="635.5,-234.25 521.25,-234.25 521.25,-215 635.5,-215 635.5,-234.25"/>
<text text-anchor="middle" x="578.38" y="-220.75" font-family="Helvetica,sans-Serif" font-size="10.00">Viscous_Time_Step_2</text>
</a>
</g>
</g>
<!-- Node5&#45;&gt;Node10 -->
<g id="edge10_Node000005_Node000010" class="edge">
<title>Node5&#45;&gt;Node10</title>
<g id="a_edge10_Node000005_Node000010"><a xlink:title=" ">
<path fill="none" stroke="#63b8ff" d="M441.02,-197.74C463.87,-202.24 491,-207.59 515.02,-212.33"/>
<polygon fill="#63b8ff" stroke="#63b8ff" points="514.19,-215.73 524.68,-214.23 515.55,-208.87 514.19,-215.73"/>
</a>
</g>
</g>
<!-- Node11 -->
<g id="Node000011" class="node">
<title>Node11</title>
<g id="a_Node000011"><a xlink:href="../../de/df0/_solver_8cpp_ae5382f866df266ef31ad0bc1440ccadc.html#ae5382f866df266ef31ad0bc1440ccadc" target="_top" xlink:title=" ">
<polygon fill="white" stroke="#666666" points="635.5,-160.25 521.25,-160.25 521.25,-141 635.5,-141 635.5,-160.25"/>
<text text-anchor="middle" x="578.38" y="-146.75" font-family="Helvetica,sans-Serif" font-size="10.00">Viscous_Time_Step_3</text>
</a>
</g>
</g>
<!-- Node5&#45;&gt;Node11 -->
<g id="edge12_Node000005_Node000011" class="edge">
<title>Node5&#45;&gt;Node11</title>
<g id="a_edge12_Node000005_Node000011"><a xlink:title=" ">
<path fill="none" stroke="#63b8ff" d="M441.02,-177.51C463.87,-173.01 491,-167.66 515.02,-162.92"/>
<polygon fill="#63b8ff" stroke="#63b8ff" points="515.55,-166.38 524.68,-161.02 514.19,-159.52 515.55,-166.38"/>
</a>
</g>
</g>
<!-- Node7 -->
<g id="Node000007" class="node">
<title>Node7</title>
<g id="a_Node000007"><a xlink:href="../../d8/d40/_grid___computations_8cpp_a079a3910785ad86cffe119a8e3d6a0d4.html#a079a3910785ad86cffe119a8e3d6a0d4" target="_top" xlink:title=" ">
<polygon fill="white" stroke="#666666" points="770.38,-197.25 734.12,-197.25 734.12,-178 770.38,-178 770.38,-197.25"/>
<text text-anchor="middle" x="752.25" y="-183.75" font-family="Helvetica,sans-Serif" font-size="10.00">Print</text>
</a>
</g>
</g>
<!-- Node6&#45;&gt;Node7 -->
<g id="edge6_Node000006_Node000007" class="edge">
<title>Node6&#45;&gt;Node7</title>
<g id="a_edge6_Node000006_Node000007"><a xlink:title=" ">
<path fill="none" stroke="#63b8ff" d="M629.55,-187.62C659.69,-187.62 696.98,-187.62 722.28,-187.62"/>
<polygon fill="#63b8ff" stroke="#63b8ff" points="722.14,-191.13 732.14,-187.63 722.14,-184.13 722.14,-191.13"/>
</a>
</g>
</g>
<!-- Node7&#45;&gt;Node7 -->
<g id="edge7_Node000007_Node000007" class="edge">
<title>Node7&#45;&gt;Node7</title>
<g id="a_edge7_Node000007_Node000007"><a xlink:title=" ">
<path fill="none" stroke="#63b8ff" d="M733.64,-194.01C714.92,-203.44 721.12,-215.25 752.25,-215.25 776.08,-215.25 785.31,-208.33 779.91,-200.85"/>
<polygon fill="#63b8ff" stroke="#63b8ff" points="782.15,-198.15 772.06,-194.92 777.93,-203.74 782.15,-198.15"/>
</a>
</g>
</g>
<!-- Node9 -->
<g id="Node000009" class="node">
<title>Node9</title>
<g id="a_Node000009"><a xlink:href="../../dd/d6e/_source_8cpp_ad1286ce446bd24bcbdfecfe85808c943.html#ad1286ce446bd24bcbdfecfe85808c943" target="_top" xlink:title=" ">
<polygon fill="white" stroke="#666666" points="769.62,-271.25 734.88,-271.25 734.88,-252 769.62,-252 769.62,-271.25"/>
<text text-anchor="middle" x="752.25" y="-257.75" font-family="Helvetica,sans-Serif" font-size="10.00">max</text>
</a>
</g>
</g>
<!-- Node8&#45;&gt;Node9 -->
<g id="edge9_Node000008_Node000009" class="edge">
<title>Node8&#45;&gt;Node9</title>
<g id="a_edge9_Node000008_Node000009"><a xlink:title=" ">
<path fill="none" stroke="#63b8ff" d="M635.65,-261.62C665,-261.62 699.61,-261.62 723.25,-261.62"/>
<polygon fill="#63b8ff" stroke="#63b8ff" points="723.02,-265.13 733.02,-261.63 723.02,-258.13 723.02,-265.13"/>
</a>
</g>
</g>
<!-- Node10&#45;&gt;Node9 -->
<g id="edge11_Node000010_Node000009" class="edge">
<title>Node10&#45;&gt;Node9</title>
<g id="a_edge11_Node000010_Node000009"><a xlink:title=" ">
<path fill="none" stroke="#63b8ff" d="M626.34,-234.74C657.54,-241.45 697.44,-250.04 723.64,-255.68"/>
<polygon fill="#63b8ff" stroke="#63b8ff" points="722.64,-259.05 733.15,-257.73 724.11,-252.2 722.64,-259.05"/>
</a>
</g>
</g>
<!-- Node13 -->
<g id="Node000013" class="node">
<title>Node13</title>
<g id="a_Node000013"><a xlink:href="../../d2/d1e/_basic___files_2_utility___files_8cpp_aa047730c4b45792e657f98e973a2695f.html#aa047730c4b45792e657f98e973a2695f" target="_top" xlink:title=" ">
<polygon fill="white" stroke="#666666" points="607.75,-447.25 549,-447.25 549,-428 607.75,-428 607.75,-447.25"/>
<text text-anchor="middle" x="578.38" y="-433.75" font-family="Helvetica,sans-Serif" font-size="10.00">Maximum</text>
</a>
</g>
</g>
<!-- Node12&#45;&gt;Node13 -->
<g id="edge14_Node000012_Node000013" class="edge">
<title>Node12&#45;&gt;Node13</title>
<g id="a_edge14_Node000012_Node000013"><a xlink:title=" ">
<path fill="none" stroke="#63b8ff" d="M405.42,-445.87C434.18,-444.49 496.2,-441.52 537.35,-439.54"/>
<polygon fill="#63b8ff" stroke="#63b8ff" points="537.29,-443.05 547.11,-439.08 536.95,-436.06 537.29,-443.05"/>
</a>
</g>
</g>
<!-- Node14&#45;&gt;Node13 -->
<g id="edge18_Node000014_Node000013" class="edge">
<title>Node14&#45;&gt;Node13</title>
<g id="a_edge18_Node000014_Node000013"><a xlink:title=" ">
<path fill="none" stroke="#63b8ff" d="M418.68,-517.81C432.45,-515.4 448.63,-510.93 461.25,-502.62 483.23,-488.16 475.08,-469.8 497.25,-455.62 509.26,-447.94 524.11,-443.52 537.76,-440.97"/>
<polygon fill="#63b8ff" stroke="#63b8ff" points="538,-444.48 547.35,-439.48 536.93,-437.56 538,-444.48"/>
</a>
</g>
</g>
<!-- Node15 -->
<g id="Node000015" class="node">
<title>Node15</title>
<g id="a_Node000015"><a xlink:href="../../dd/d30/_m_o_v_e_r_s_8cpp_a765da73e807a2a843735cf15bb4a6c24.html#a765da73e807a2a843735cf15bb4a6c24" target="_top" xlink:title=" ">
<polygon fill="white" stroke="#666666" points="641.12,-521.25 515.62,-521.25 515.62,-502 641.12,-502 641.12,-521.25"/>
<text text-anchor="middle" x="578.38" y="-507.75" font-family="Helvetica,sans-Serif" font-size="10.00">Condition_For_MOVERS</text>
</a>
</g>
</g>
<!-- Node14&#45;&gt;Node15 -->
<g id="edge16_Node000014_Node000015" class="edge">
<title>Node14&#45;&gt;Node15</title>
<g id="a_edge16_Node000014_Node000015"><a xlink:title=" ">
<path fill="none" stroke="#63b8ff" d="M418.66,-519.24C441.44,-518.15 474.25,-516.57 504.13,-515.14"/>
<polygon fill="#63b8ff" stroke="#63b8ff" points="504.08,-518.64 513.9,-514.67 503.75,-511.65 504.08,-518.64"/>
</a>
</g>
</g>
<!-- Node16 -->
<g id="Node000016" class="node">
<title>Node16</title>
<g id="a_Node000016"><a xlink:href="../../dd/d30/_m_o_v_e_r_s_8cpp_a1e63c211b46cd735876d3f0df5f7330f.html#a1e63c211b46cd735876d3f0df5f7330f" target="_top" xlink:title=" ">
<polygon fill="white" stroke="#666666" points="612.62,-484.25 544.12,-484.25 544.12,-465 612.62,-465 612.62,-484.25"/>
<text text-anchor="middle" x="578.38" y="-470.75" font-family="Helvetica,sans-Serif" font-size="10.00">Entropy_Fix</text>
</a>
</g>
</g>
<!-- Node14&#45;&gt;Node16 -->
<g id="edge17_Node000014_Node000016" class="edge">
<title>Node14&#45;&gt;Node16</title>
<g id="a_edge17_Node000014_Node000016"><a xlink:title=" ">
<path fill="none" stroke="#63b8ff" d="M418.67,-513.52C431.7,-510.27 447.27,-506.33 461.25,-502.62 477.3,-498.38 481.14,-496.67 497.25,-492.62 508.66,-489.76 521.03,-486.87 532.57,-484.28"/>
<polygon fill="#63b8ff" stroke="#63b8ff" points="533.28,-487.7 542.28,-482.11 531.76,-480.87 533.28,-487.7"/>
</a>
</g>
</g>
<!-- Node17 -->
<g id="Node000017" class="node">
<title>Node17</title>
<g id="a_Node000017"><a xlink:href="../../d2/d1e/_basic___files_2_utility___files_8cpp_a51be7d63194e92e29a4cd28e08d464bd.html#a51be7d63194e92e29a4cd28e08d464bd" target="_top" xlink:title=" ">
<polygon fill="white" stroke="#666666" points="606.25,-558.25 550.5,-558.25 550.5,-539 606.25,-539 606.25,-558.25"/>
<text text-anchor="middle" x="578.38" y="-544.75" font-family="Helvetica,sans-Serif" font-size="10.00">Minimum</text>
</a>
</g>
</g>
<!-- Node14&#45;&gt;Node17 -->
<g id="edge19_Node000014_Node000017" class="edge">
<title>Node14&#45;&gt;Node17</title>
<g id="a_edge19_Node000014_Node000017"><a xlink:title=" ">
<path fill="none" stroke="#63b8ff" d="M418.66,-524.94C451.03,-529.77 503.62,-537.62 539.32,-542.95"/>
<polygon fill="#63b8ff" stroke="#63b8ff" points="538.36,-546.34 548.77,-544.36 539.39,-539.42 538.36,-546.34"/>
</a>
</g>
</g>
<!-- Node19 -->
<g id="Node000019" class="node">
<title>Node19</title>
<g id="a_Node000019"><a xlink:href="../../d9/d99/_m_o_v_e_r_s___n_w_s_c_8cpp_aa1addb77100799eb21d8ea96fc1d718b.html#aa1addb77100799eb21d8ea96fc1d718b" target="_top" xlink:title=" ">
<polygon fill="white" stroke="#666666" points="659.5,-392.25 497.25,-392.25 497.25,-373 659.5,-373 659.5,-392.25"/>
<text text-anchor="middle" x="578.38" y="-378.75" font-family="Helvetica,sans-Serif" font-size="10.00">Condition_For_MOVERS_NWSC</text>
</a>
</g>
</g>
<!-- Node18&#45;&gt;Node19 -->
<g id="edge21_Node000018_Node000019" class="edge">
<title>Node18&#45;&gt;Node19</title>
<g id="a_edge21_Node000018_Node000019"><a xlink:title=" ">
<path fill="none" stroke="#63b8ff" d="M437.1,-402.81C454.97,-400.24 475.84,-397.24 495.95,-394.34"/>
<polygon fill="#63b8ff" stroke="#63b8ff" points="496.45,-397.81 505.85,-392.92 495.45,-390.88 496.45,-397.81"/>
</a>
</g>
</g>
<!-- Node21 -->
<g id="Node000021" class="node">
<title>Node21</title>
<g id="a_Node000021"><a xlink:href="../../d6/d22/_r_i_c_c_a_8cpp_aed1d8bf7f1afd6d7e89c781f4922d05c.html#aed1d8bf7f1afd6d7e89c781f4922d05c" target="_top" xlink:title="Computes the Alpha parameter for the RICCA condition based on input variables.">
<polygon fill="white" stroke="#666666" points="635.5,-345.25 521.25,-345.25 521.25,-326 635.5,-326 635.5,-345.25"/>
<text text-anchor="middle" x="578.38" y="-331.75" font-family="Helvetica,sans-Serif" font-size="10.00">Condition_For_RICCA</text>
</a>
</g>
</g>
<!-- Node20&#45;&gt;Node21 -->
<g id="edge23_Node000020_Node000021" class="edge">
<title>Node20&#45;&gt;Node21</title>
<g id="a_edge23_Node000020_Node000021"><a xlink:title=" ">
<path fill="none" stroke="#63b8ff" d="M413.13,-368.01C438.48,-363.01 480.01,-354.83 514.96,-347.93"/>
<polygon fill="#63b8ff" stroke="#63b8ff" points="515.43,-351.41 524.56,-346.04 514.07,-344.54 515.43,-351.41"/>
</a>
</g>
</g>
<!-- Node21&#45;&gt;Node9 -->
<g id="edge24_Node000021_Node000009" class="edge">
<title>Node21&#45;&gt;Node9</title>
<g id="a_edge24_Node000021_Node000009"><a xlink:title=" ">
<path fill="none" stroke="#63b8ff" d="M635.27,-325.54C643.53,-323.35 651.83,-320.73 659.5,-317.62 684.63,-307.46 710.79,-290.79 728.72,-278.28"/>
<polygon fill="#63b8ff" stroke="#63b8ff" points="730.67,-281.19 736.78,-272.53 726.6,-275.49 730.67,-281.19"/>
</a>
</g>
</g>
<!-- Node23&#45;&gt;Node3 -->
<g id="edge27_Node000023_Node000003" class="edge">
<title>Node23&#45;&gt;Node3</title>
<g id="a_edge27_Node000023_Node000003"><a xlink:title=" ">
<path fill="none" stroke="#63b8ff" d="M209.3,-289.47C224.5,-310.39 259.84,-361.23 280.25,-408.62 304.14,-464.08 274.76,-495.76 316.25,-539.62 319.74,-543.31 323.8,-546.43 328.2,-549.07"/>
<polygon fill="#63b8ff" stroke="#63b8ff" points="326.38,-552.07 336.88,-553.44 329.52,-545.82 326.38,-552.07"/>
</a>
</g>
</g>
<!-- Node23&#45;&gt;Node5 -->
<g id="edge28_Node000023_Node000005" class="edge">
<title>Node23&#45;&gt;Node5</title>
<g id="a_edge28_Node000023_Node000005"><a xlink:title=" ">
<path fill="none" stroke="#63b8ff" d="M220.76,-269.5C236.87,-260.59 260.56,-246.99 280.25,-233.62 297.02,-222.24 298.03,-214.51 316.25,-205.62 319.37,-204.1 322.63,-202.7 325.97,-201.41"/>
<polygon fill="#63b8ff" stroke="#63b8ff" points="327.08,-204.73 335.38,-198.16 324.79,-198.12 327.08,-204.73"/>
</a>
</g>
</g>
<!-- Node24 -->
<g id="Node000024" class="node">
<title>Node24</title>
<g id="a_Node000024"><a xlink:href="../../de/d88/_l_l_f_8cpp_a3f7724701b89e020e5e2cb9aee42ca55.html#a3f7724701b89e020e5e2cb9aee42ca55" target="_top" xlink:title=" ">
<polygon fill="white" stroke="#666666" points="414,-345.25 363.5,-345.25 363.5,-326 414,-326 414,-345.25"/>
<text text-anchor="middle" x="388.75" y="-331.75" font-family="Helvetica,sans-Serif" font-size="10.00">LLF_2O</text>
</a>
</g>
</g>
<!-- Node23&#45;&gt;Node24 -->
<g id="edge29_Node000023_Node000024" class="edge">
<title>Node23&#45;&gt;Node24</title>
<g id="a_edge29_Node000023_Node000024"><a xlink:title=" ">
<path fill="none" stroke="#63b8ff" d="M230.46,-289.75C253.46,-297.77 286.75,-309.02 316.25,-317.62 327.86,-321.01 340.64,-324.35 352.15,-327.22"/>
<polygon fill="#63b8ff" stroke="#63b8ff" points="351.12,-330.57 361.67,-329.55 352.79,-323.77 351.12,-330.57"/>
</a>
</g>
</g>
<!-- Node26 -->
<g id="Node000026" class="node">
<title>Node26</title>
<g id="a_Node000026"><a xlink:href="../../dd/d30/_m_o_v_e_r_s_8cpp_a895c6dcdac689f71d89e341046362be9.html#a895c6dcdac689f71d89e341046362be9" target="_top" xlink:title=" ">
<polygon fill="white" stroke="#666666" points="427.5,-493.25 350,-493.25 350,-474 427.5,-474 427.5,-493.25"/>
<text text-anchor="middle" x="388.75" y="-479.75" font-family="Helvetica,sans-Serif" font-size="10.00">MOVERS_2O</text>
</a>
</g>
</g>
<!-- Node23&#45;&gt;Node26 -->
<g id="edge32_Node000023_Node000026" class="edge">
<title>Node23&#45;&gt;Node26</title>
<g id="a_edge32_Node000023_Node000026"><a xlink:title=" ">
<path fill="none" stroke="#63b8ff" d="M208.02,-289.53C231.28,-327.83 314.15,-464.08 316.25,-465.62 322.92,-470.52 330.78,-474.09 338.8,-476.69"/>
<polygon fill="#63b8ff" stroke="#63b8ff" points="337.71,-480.03 348.28,-479.28 339.56,-473.27 337.71,-480.03"/>
</a>
</g>
</g>
<!-- Node27 -->
<g id="Node000027" class="node">
<title>Node27</title>
<g id="a_Node000027"><a xlink:href="../../d9/d99/_m_o_v_e_r_s___n_w_s_c_8cpp_a52270c83adc7b5111fd5b794d1d2f99a.html#a52270c83adc7b5111fd5b794d1d2f99a" target="_top" xlink:title=" ">
<polygon fill="white" stroke="#666666" points="445.88,-308.25 331.62,-308.25 331.62,-289 445.88,-289 445.88,-308.25"/>
<text text-anchor="middle" x="388.75" y="-294.75" font-family="Helvetica,sans-Serif" font-size="10.00">MOVERS_NWSC_2O</text>
</a>
</g>
</g>
<!-- Node23&#45;&gt;Node27 -->
<g id="edge37_Node000023_Node000027" class="edge">
<title>Node23&#45;&gt;Node27</title>
<g id="a_edge37_Node000023_Node000027"><a xlink:title=" ">
<path fill="none" stroke="#63b8ff" d="M271.17,-286.7C287.1,-288.33 304.04,-290.06 319.92,-291.69"/>
<polygon fill="#63b8ff" stroke="#63b8ff" points="319.45,-295.16 329.76,-292.69 320.16,-288.19 319.45,-295.16"/>
</a>
</g>
</g>
<!-- Node28 -->
<g id="Node000028" class="node">
<title>Node28</title>
<g id="a_Node000028"><a xlink:href="../../d6/d22/_r_i_c_c_a_8cpp_a8c2c0508c9bf49dfb9aab35d82f560ce.html#a8c2c0508c9bf49dfb9aab35d82f560ce" target="_top" xlink:title="Computes the dissipative flux for a given cell and face using the second&#45;order RICCA method.">
<polygon fill="white" stroke="#666666" points="421.88,-271.25 355.62,-271.25 355.62,-252 421.88,-252 421.88,-271.25"/>
<text text-anchor="middle" x="388.75" y="-257.75" font-family="Helvetica,sans-Serif" font-size="10.00">RICCA_2O</text>
</a>
</g>
</g>
<!-- Node23&#45;&gt;Node28 -->
<g id="edge40_Node000023_Node000028" class="edge">
<title>Node23&#45;&gt;Node28</title>
<g id="a_edge40_Node000023_Node000028"><a xlink:title=" ">
<path fill="none" stroke="#63b8ff" d="M271.17,-272.92C295.56,-270.56 322.29,-267.97 344,-265.86"/>
<polygon fill="#63b8ff" stroke="#63b8ff" points="344.05,-269.38 353.67,-264.93 343.37,-262.41 344.05,-269.38"/>
</a>
</g>
</g>
<!-- Node29 -->
<g id="Node000029" class="node">
<title>Node29</title>
<g id="a_Node000029"><a xlink:href="../../d2/d7e/_roe___scheme_8cpp_ae1ea8008753b5cd1a6b353c362cb372d.html#ae1ea8008753b5cd1a6b353c362cb372d" target="_top" xlink:title=" ">
<polygon fill="white" stroke="#666666" points="416.62,-234.25 360.88,-234.25 360.88,-215 416.62,-215 416.62,-234.25"/>
<text text-anchor="middle" x="388.75" y="-220.75" font-family="Helvetica,sans-Serif" font-size="10.00">ROE_2O</text>
</a>
</g>
</g>
<!-- Node23&#45;&gt;Node29 -->
<g id="edge43_Node000023_Node000029" class="edge">
<title>Node23&#45;&gt;Node29</title>
<g id="a_edge43_Node000023_Node000029"><a xlink:title=" ">
<path fill="none" stroke="#63b8ff" d="M230.95,-269.66C253.95,-261.89 286.99,-251.03 316.25,-242.62 327.02,-239.53 338.79,-236.44 349.62,-233.73"/>
<polygon fill="#63b8ff" stroke="#63b8ff" points="350.14,-237.2 359,-231.4 348.46,-230.41 350.14,-237.2"/>
</a>
</g>
</g>
<!-- Node24&#45;&gt;Node13 -->
<g id="edge30_Node000024_Node000013" class="edge">
<title>Node24&#45;&gt;Node13</title>
<g id="a_edge30_Node000024_Node000013"><a xlink:title=" ">
<path fill="none" stroke="#63b8ff" d="M414.26,-337.67C428.89,-339.84 447.29,-344.34 461.25,-353.62 483.45,-368.39 476.43,-384.97 497.25,-401.62 509.28,-411.25 524.29,-418.88 538.05,-424.6"/>
<polygon fill="#63b8ff" stroke="#63b8ff" points="536.75,-427.84 547.33,-428.22 539.29,-421.32 536.75,-427.84"/>
</a>
</g>
</g>
<!-- Node25 -->
<g id="Node000025" class="node">
<title>Node25</title>
<g id="a_Node000025"><a xlink:href="../../d6/dc2/definitions_8h_acb22222e1b85c7aae820fda4167e47a9.html#acb22222e1b85c7aae820fda4167e47a9" target="_top" xlink:title=" ">
<polygon fill="white" stroke="#666666" points="634.75,-308.25 522,-308.25 522,-289 634.75,-289 634.75,-308.25"/>
<text text-anchor="middle" x="578.38" y="-294.75" font-family="Helvetica,sans-Serif" font-size="10.00">Second_Order_Limiter</text>
</a>
</g>
</g>
<!-- Node24&#45;&gt;Node25 -->
<g id="edge31_Node000024_Node000025" class="edge">
<title>Node24&#45;&gt;Node25</title>
<g id="a_edge31_Node000024_Node000025"><a xlink:title=" ">
<path fill="none" stroke="#63b8ff" d="M414.28,-330.79C439.82,-325.75 480.85,-317.66 515.37,-310.85"/>
<polygon fill="#63b8ff" stroke="#63b8ff" points="515.7,-314.35 524.83,-308.99 514.35,-307.49 515.7,-314.35"/>
</a>
</g>
</g>
<!-- Node26&#45;&gt;Node13 -->
<g id="edge35_Node000026_Node000013" class="edge">
<title>Node26&#45;&gt;Node13</title>
<g id="a_edge35_Node000026_Node000013"><a xlink:title=" ">
<path fill="none" stroke="#63b8ff" d="M427.64,-474.27C438.51,-471.54 450.36,-468.51 461.25,-465.62 477.3,-461.38 481.14,-459.67 497.25,-455.62 510.41,-452.32 524.85,-448.99 537.8,-446.1"/>
<polygon fill="#63b8ff" stroke="#63b8ff" points="538.25,-449.59 547.26,-444.02 536.74,-442.75 538.25,-449.59"/>
</a>
</g>
</g>
<!-- Node26&#45;&gt;Node15 -->
<g id="edge33_Node000026_Node000015" class="edge">
<title>Node26&#45;&gt;Node15</title>
<g id="a_edge33_Node000026_Node000015"><a xlink:title=" ">
<path fill="none" stroke="#63b8ff" d="M427.72,-489.29C449.74,-492.58 478.21,-496.83 504.4,-500.73"/>
<polygon fill="#63b8ff" stroke="#63b8ff" points="503.55,-504.15 513.96,-502.16 504.59,-497.22 503.55,-504.15"/>
</a>
</g>
</g>
<!-- Node26&#45;&gt;Node16 -->
<g id="edge34_Node000026_Node000016" class="edge">
<title>Node26&#45;&gt;Node16</title>
<g id="a_edge34_Node000026_Node000016"><a xlink:title=" ">
<path fill="none" stroke="#63b8ff" d="M427.72,-481.8C458.05,-480.35 500.61,-478.31 532.6,-476.77"/>
<polygon fill="#63b8ff" stroke="#63b8ff" points="532.53,-480.28 542.35,-476.3 532.2,-473.29 532.53,-480.28"/>
</a>
</g>
</g>
<!-- Node26&#45;&gt;Node17 -->
<g id="edge36_Node000026_Node000017" class="edge">
<title>Node26&#45;&gt;Node17</title>
<g id="a_edge36_Node000026_Node000017"><a xlink:title=" ">
<path fill="none" stroke="#63b8ff" d="M427.95,-490.03C439.04,-492.74 450.94,-496.49 461.25,-501.62 479.64,-510.79 478.75,-521.7 497.25,-530.62 510.19,-536.87 525.36,-540.99 539,-543.68"/>
<polygon fill="#63b8ff" stroke="#63b8ff" points="538.06,-547.07 548.52,-545.37 539.28,-540.18 538.06,-547.07"/>
</a>
</g>
</g>
<!-- Node27&#45;&gt;Node19 -->
<g id="edge38_Node000027_Node000019" class="edge">
<title>Node27&#45;&gt;Node19</title>
<g id="a_edge38_Node000027_Node000019"><a xlink:title=" ">
<path fill="none" stroke="#63b8ff" d="M443.78,-308.68C449.88,-310.84 455.84,-313.46 461.25,-316.62 481.33,-328.38 477.72,-341.99 497.25,-354.62 506.06,-360.33 516.17,-365.02 526.18,-368.83"/>
<polygon fill="#63b8ff" stroke="#63b8ff" points="524.91,-372.1 535.5,-372.12 527.24,-365.49 524.91,-372.1"/>
</a>
</g>
</g>
<!-- Node27&#45;&gt;Node25 -->
<g id="edge39_Node000027_Node000025" class="edge">
<title>Node27&#45;&gt;Node25</title>
<g id="a_edge39_Node000027_Node000025"><a xlink:title=" ">
<path fill="none" stroke="#63b8ff" d="M446.3,-298.62C466.42,-298.62 489.27,-298.62 510.19,-298.62"/>
<polygon fill="#63b8ff" stroke="#63b8ff" points="510.08,-302.13 520.08,-298.63 510.08,-295.13 510.08,-302.13"/>
</a>
</g>
</g>
<!-- Node28&#45;&gt;Node21 -->
<g id="edge41_Node000028_Node000021" class="edge">
<title>Node28&#45;&gt;Node21</title>
<g id="a_edge41_Node000028_Node000021"><a xlink:title=" ">
<path fill="none" stroke="#63b8ff" d="M422.21,-265.79C435,-268.43 449.43,-272.71 461.25,-279.62 481.33,-291.38 477.02,-306.13 497.25,-317.62 501.36,-319.96 505.76,-322 510.29,-323.77"/>
<polygon fill="#63b8ff" stroke="#63b8ff" points="509.02,-327.03 519.62,-326.95 511.28,-320.41 509.02,-327.03"/>
</a>
</g>
</g>
<!-- Node28&#45;&gt;Node25 -->
<g id="edge42_Node000028_Node000025" class="edge">
<title>Node28&#45;&gt;Node25</title>
<g id="a_edge42_Node000028_Node000025"><a xlink:title=" ">
<path fill="none" stroke="#63b8ff" d="M422,-267.99C447.48,-273.01 483.8,-280.17 514.91,-286.31"/>
<polygon fill="#63b8ff" stroke="#63b8ff" points="514.14,-289.72 524.63,-288.22 515.5,-282.85 514.14,-289.72"/>
</a>
</g>
</g>
<!-- Node30&#45;&gt;Node5 -->
<g id="edge55_Node000030_Node000005" class="edge">
<title>Node30&#45;&gt;Node5</title>
<g id="a_edge55_Node000030_Node000005"><a xlink:title=" ">
<path fill="none" stroke="#63b8ff" d="M271.43,-204.53C288.51,-202.05 306.72,-199.4 323.54,-196.96"/>
<polygon fill="#63b8ff" stroke="#63b8ff" points="324.04,-200.42 333.44,-195.52 323.04,-193.49 324.04,-200.42"/>
</a>
</g>
</g>
<!-- Node31 -->
<g id="Node000031" class="node">
<title>Node31</title>
<g id="a_Node000031"><a xlink:href="../../d8/df4/_w_e_n_o2_d_8cpp_a27359f46a5902f1f50547f76408a48aa.html#a27359f46a5902f1f50547f76408a48aa" target="_top" xlink:title=" ">
<polygon fill="white" stroke="#666666" points="461.25,-139.25 316.25,-139.25 316.25,-120 461.25,-120 461.25,-139.25"/>
<text text-anchor="middle" x="388.75" y="-125.75" font-family="Helvetica,sans-Serif" font-size="10.00">Calculate_Face_WENO_Flux</text>
</a>
</g>
</g>
<!-- Node30&#45;&gt;Node31 -->
<g id="edge45_Node000030_Node000031" class="edge">
<title>Node30&#45;&gt;Node31</title>
<g id="a_edge45_Node000030_Node000031"><a xlink:title=" ">
<path fill="none" stroke="#63b8ff" d="M258.99,-204.6C266.31,-202.43 273.58,-199.8 280.25,-196.62 298.56,-187.93 299.3,-179.74 316.25,-168.62 329.31,-160.06 344.42,-151.63 357.37,-144.8"/>
<polygon fill="#63b8ff" stroke="#63b8ff" points="358.6,-148.11 365.87,-140.4 355.38,-141.89 358.6,-148.11"/>
</a>
</g>
</g>
<!-- Node31&#45;&gt;Node13 -->
<g id="edge48_Node000031_Node000013" class="edge">
<title>Node31&#45;&gt;Node13</title>
<g id="a_edge48_Node000031_Node000013"><a xlink:title=" ">
<path fill="none" stroke="#63b8ff" d="M421.69,-139.66C435.99,-145.78 451.74,-155.09 461.25,-168.62 521.48,-254.37 433.76,-318.27 497.25,-401.62 507.21,-414.71 523,-423.16 537.93,-428.55"/>
<polygon fill="#63b8ff" stroke="#63b8ff" points="536.53,-431.78 547.12,-431.5 538.67,-425.11 536.53,-431.78"/>
</a>
</g>
</g>
<!-- Node32 -->
<g id="Node000032" class="node">
<title>Node32</title>
<g id="a_Node000032"><a xlink:href="../../df/d43/_basic___functions_8cpp_a1c199e756f8458978961b4d9ab4cbe63.html#a1c199e756f8458978961b4d9ab4cbe63" target="_top" xlink:title=" ">
<polygon fill="white" stroke="#666666" points="628.75,-122.88 528,-122.88 528,-92.38 628.75,-92.38 628.75,-122.88"/>
<text text-anchor="start" x="536" y="-109.38" font-family="Helvetica,sans-Serif" font-size="10.00">Calculate_Primitive</text>
<text text-anchor="middle" x="578.38" y="-98.12" font-family="Helvetica,sans-Serif" font-size="10.00">_Variables</text>
</a>
</g>
</g>
<!-- Node31&#45;&gt;Node32 -->
<g id="edge46_Node000031_Node000032" class="edge">
<title>Node31&#45;&gt;Node32</title>
<g id="a_edge46_Node000031_Node000032"><a xlink:title=" ">
<path fill="none" stroke="#63b8ff" d="M461.49,-121.21C479.56,-119.09 498.8,-116.84 516.29,-114.79"/>
<polygon fill="#63b8ff" stroke="#63b8ff" points="516.49,-118.29 526.01,-113.65 515.67,-111.34 516.49,-118.29"/>
</a>
</g>
</g>
<!-- Node34 -->
<g id="Node000034" class="node">
<title>Node34</title>
<g id="a_Node000034"><a xlink:href="../../d8/df4/_w_e_n_o2_d_8cpp_a9ad30d54bcfdc4e146d0dff2d3c22cdb.html#a9ad30d54bcfdc4e146d0dff2d3c22cdb" target="_top" xlink:title=" ">
<polygon fill="white" stroke="#666666" points="643.75,-74.25 513,-74.25 513,-55 643.75,-55 643.75,-74.25"/>
<text text-anchor="middle" x="578.38" y="-60.75" font-family="Helvetica,sans-Serif" font-size="10.00">WENO_Reconstruction_X</text>
</a>
</g>
</g>
<!-- Node31&#45;&gt;Node34 -->
<g id="edge49_Node000031_Node000034" class="edge">
<title>Node31&#45;&gt;Node34</title>
<g id="a_edge49_Node000031_Node000034"><a xlink:title=" ">
<path fill="none" stroke="#63b8ff" d="M410.35,-119.55C431.69,-109.42 466.21,-93.86 497.25,-83.62 503.93,-81.42 511.01,-79.36 518.08,-77.47"/>
<polygon fill="#63b8ff" stroke="#63b8ff" points="518.83,-80.89 527.66,-75.03 517.1,-74.11 518.83,-80.89"/>
</a>
</g>
</g>
<!-- Node33 -->
<g id="Node000033" class="node">
<title>Node33</title>
<g id="a_Node000033"><a xlink:href="../../df/d43/_basic___functions_8cpp_ae9dc3225863fb110155bb3e9dea4e4d3.html#ae9dc3225863fb110155bb3e9dea4e4d3" target="_top" xlink:title=" ">
<polygon fill="white" stroke="#666666" points="780.5,-117.25 724,-117.25 724,-98 780.5,-98 780.5,-117.25"/>
<text text-anchor="middle" x="752.25" y="-103.75" font-family="Helvetica,sans-Serif" font-size="10.00">Viscosity</text>
</a>
</g>
</g>
<!-- Node32&#45;&gt;Node33 -->
<g id="edge47_Node000032_Node000033" class="edge">
<title>Node32&#45;&gt;Node33</title>
<g id="a_edge47_Node000032_Node000033"><a xlink:title=" ">
<path fill="none" stroke="#63b8ff" d="M629.09,-107.62C655.5,-107.62 687.5,-107.62 712.12,-107.62"/>
<polygon fill="#63b8ff" stroke="#63b8ff" points="712.05,-111.13 722.05,-107.63 712.05,-104.13 712.05,-111.13"/>
</a>
</g>
</g>
<!-- Node35 -->
<g id="Node000035" class="node">
<title>Node35</title>
<g id="a_Node000035"><a xlink:href="../../d8/df4/_w_e_n_o2_d_8cpp_a41800d52b7dfe3e64e37ea4c0abae5bb.html#a41800d52b7dfe3e64e37ea4c0abae5bb" target="_top" xlink:title=" ">
<polygon fill="white" stroke="#666666" points="809,-74.25 695.5,-74.25 695.5,-55 809,-55 809,-74.25"/>
<text text-anchor="middle" x="752.25" y="-60.75" font-family="Helvetica,sans-Serif" font-size="10.00">Get_Reconstructed_U</text>
</a>
</g>
</g>
<!-- Node34&#45;&gt;Node35 -->
<g id="edge50_Node000034_Node000035" class="edge">
<title>Node34&#45;&gt;Node35</title>
<g id="a_edge50_Node000034_Node000035"><a xlink:title=" ">
<path fill="none" stroke="#63b8ff" d="M643.86,-64.62C656.9,-64.62 670.65,-64.62 683.79,-64.62"/>
<polygon fill="#63b8ff" stroke="#63b8ff" points="683.63,-68.13 693.63,-64.63 683.63,-61.13 683.63,-68.13"/>
</a>
</g>
</g>
<!-- Node36 -->
<g id="Node000036" class="node">
<title>Node36</title>
<g id="a_Node000036"><a xlink:href="../../df/d43/_basic___functions_8cpp_a9ca12fb8f920cab38313323cf0c4bf53.html#a9ca12fb8f920cab38313323cf0c4bf53" target="_top" xlink:title=" ">
<polygon fill="white" stroke="#666666" points="970.5,-141.88 845,-141.88 845,-111.38 970.5,-111.38 970.5,-141.88"/>
<text text-anchor="start" x="853" y="-128.38" font-family="Helvetica,sans-Serif" font-size="10.00">Calculate_Computational</text>
<text text-anchor="middle" x="907.75" y="-117.12" font-family="Helvetica,sans-Serif" font-size="10.00">_Variables</text>
</a>
</g>
</g>
<!-- Node35&#45;&gt;Node36 -->
<g id="edge51_Node000035_Node000036" class="edge">
<title>Node35&#45;&gt;Node36</title>
<g id="a_edge51_Node000035_Node000036"><a xlink:title=" ">
<path fill="none" stroke="#63b8ff" d="M776.95,-74.61C795.45,-82.36 821.8,-93.31 845,-102.62 848.42,-104 851.94,-105.4 855.5,-106.81"/>
<polygon fill="#63b8ff" stroke="#63b8ff" points="854.18,-110.05 864.77,-110.45 856.74,-103.53 854.18,-110.05"/>
</a>
</g>
</g>
<!-- Node37 -->
<g id="Node000037" class="node">
<title>Node37</title>
<g id="a_Node000037"><a xlink:href="../../d8/df4/_w_e_n_o2_d_8cpp_aa7f9c038358ea3a8da0d6b64375a017d.html#aa7f9c038358ea3a8da0d6b64375a017d" target="_top" xlink:title=" ">
<polygon fill="white" stroke="#666666" points="932.62,-93.25 882.88,-93.25 882.88,-74 932.62,-74 932.62,-93.25"/>
<text text-anchor="middle" x="907.75" y="-79.75" font-family="Helvetica,sans-Serif" font-size="10.00">Get_LR</text>
</a>
</g>
</g>
<!-- Node35&#45;&gt;Node37 -->
<g id="edge52_Node000035_Node000037" class="edge">
<title>Node35&#45;&gt;Node37</title>
<g id="a_edge52_Node000035_Node000037"><a xlink:title=" ">
<path fill="none" stroke="#63b8ff" d="M809.1,-71.54C829.77,-74.1 852.64,-76.93 871.04,-79.21"/>
<polygon fill="#63b8ff" stroke="#63b8ff" points="870.57,-82.67 880.92,-80.43 871.43,-75.73 870.57,-82.67"/>
</a>
</g>
</g>
<!-- Node38 -->
<g id="Node000038" class="node">
<title>Node38</title>
<g id="a_Node000038"><a xlink:href="../../d8/df4/_w_e_n_o2_d_8cpp_a3c4047d6325a39e8fccf21bc4ded25ce.html#a3c4047d6325a39e8fccf21bc4ded25ce" target="_top" xlink:title=" ">
<polygon fill="white" stroke="#666666" points="940.5,-56.25 875,-56.25 875,-37 940.5,-37 940.5,-56.25"/>
<text text-anchor="middle" x="907.75" y="-42.75" font-family="Helvetica,sans-Serif" font-size="10.00">MatVecMul</text>
</a>
</g>
</g>
<!-- Node35&#45;&gt;Node38 -->
<g id="edge53_Node000035_Node000038" class="edge">
<title>Node35&#45;&gt;Node38</title>
<g id="a_edge53_Node000035_Node000038"><a xlink:title=" ">
<path fill="none" stroke="#63b8ff" d="M809.1,-58.08C827.07,-55.97 846.69,-53.67 863.61,-51.68"/>
<polygon fill="#63b8ff" stroke="#63b8ff" points="863.8,-55.19 873.32,-50.54 862.98,-48.23 863.8,-55.19"/>
</a>
</g>
</g>
<!-- Node39 -->
<g id="Node000039" class="node">
<title>Node39</title>
<g id="a_Node000039"><a xlink:href="../../d8/df4/_w_e_n_o2_d_8cpp_a95c88b19ac9f25947b58f960364ce579.html#a95c88b19ac9f25947b58f960364ce579" target="_top" xlink:title=" ">
<polygon fill="white" stroke="#666666" points="967.12,-19.25 848.38,-19.25 848.38,0 967.12,0 967.12,-19.25"/>
<text text-anchor="middle" x="907.75" y="-5.75" font-family="Helvetica,sans-Serif" font-size="10.00">WENO_Reconstruction</text>
</a>
</g>
</g>
<!-- Node35&#45;&gt;Node39 -->
<g id="edge54_Node000035_Node000039" class="edge">
<title>Node35&#45;&gt;Node39</title>
<g id="a_edge54_Node000035_Node000039"><a xlink:title=" ">
<path fill="none" stroke="#63b8ff" d="M776.39,-54.55C794.8,-46.71 821.31,-35.83 845,-27.62 849.51,-26.06 854.24,-24.52 858.98,-23.03"/>
<polygon fill="#63b8ff" stroke="#63b8ff" points="859.99,-26.38 868.54,-20.13 857.96,-19.69 859.99,-26.38"/>
</a>
</g>
</g>
</g>
</svg>
