<?xml version="1.0" encoding="UTF-8" standalone="no"?>
<!DOCTYPE svg PUBLIC "-//W3C//DTD SVG 1.1//EN"
 "http://www.w3.org/Graphics/SVG/1.1/DTD/svg11.dtd">
<!-- Generated by graphviz version 12.2.1 (20241206.2353)
 -->
<!-- Title: Object::write_output Pages: 1 -->
<svg width="240pt" height="138pt"
 viewBox="0.00 0.00 239.50 138.25" xmlns="http://www.w3.org/2000/svg" xmlns:xlink="http://www.w3.org/1999/xlink">
<g id="graph0" class="graph" transform="scale(1 1) rotate(0) translate(4 134.25)">
<title>Object::write_output</title>
<!-- Node1 -->
<g id="Node000001" class="node">
<title>Node1</title>
<g id="a_Node000001"><a xlink:title=" ">
<polygon fill="#999999" stroke="#666666" points="231.5,-74.25 127.75,-74.25 127.75,-55 231.5,-55 231.5,-74.25"/>
<text text-anchor="middle" x="179.62" y="-60.75" font-family="Helvetica,sans-Serif" font-size="10.00">Object::write_output</text>
</a>
</g>
</g>
<!-- Node2 -->
<g id="Node000002" class="node">
<title>Node2</title>
<g id="a_Node000002"><a xlink:href="../../d8/d83/class_object_a7e50e62d0a59564194017ed919cf76d6.html#a7e50e62d0a59564194017ed919cf76d6" target="_top" xlink:title=" ">
<polygon fill="white" stroke="#666666" points="89.88,-130.25 1.88,-130.25 1.88,-111 89.88,-111 89.88,-130.25"/>
<text text-anchor="middle" x="45.88" y="-116.75" font-family="Helvetica,sans-Serif" font-size="10.00">Object::generate</text>
</a>
</g>
</g>
<!-- Node1&#45;&gt;Node2 -->
<g id="edge1_Node000001_Node000002" class="edge">
<title>Node1&#45;&gt;Node2</title>
<g id="a_edge1_Node000001_Node000002"><a xlink:title=" ">
<path fill="none" stroke="#63b8ff" d="M146.11,-79.13C129.84,-86.32 109.81,-95.06 91.75,-102.62 85.4,-105.29 78.52,-108.09 72.09,-110.67"/>
<polygon fill="#63b8ff" stroke="#63b8ff" points="147.1,-82.52 154.82,-75.27 144.26,-76.12 147.1,-82.52"/>
</a>
</g>
</g>
<!-- Node3 -->
<g id="Node000003" class="node">
<title>Node3</title>
<g id="a_Node000003"><a xlink:href="../../d8/d83/class_object_a6cd75b3ce6f5896fd3438bd8e88ceb74.html#a6cd75b3ce6f5896fd3438bd8e88ceb74" target="_top" xlink:title=" ">
<polygon fill="white" stroke="#666666" points="89.88,-93.25 1.88,-93.25 1.88,-74 89.88,-74 89.88,-93.25"/>
<text text-anchor="middle" x="45.88" y="-79.75" font-family="Helvetica,sans-Serif" font-size="10.00">Object::generate</text>
</a>
</g>
</g>
<!-- Node1&#45;&gt;Node3 -->
<g id="edge2_Node000001_Node000003" class="edge">
<title>Node1&#45;&gt;Node3</title>
<g id="a_edge2_Node000001_Node000003"><a xlink:title=" ">
<path fill="none" stroke="#63b8ff" d="M115.94,-73.67C107.21,-74.92 98.41,-76.19 90.15,-77.38"/>
<polygon fill="#63b8ff" stroke="#63b8ff" points="116.41,-77.13 125.81,-72.24 115.41,-70.2 116.41,-77.13"/>
</a>
</g>
</g>
<!-- Node4 -->
<g id="Node000004" class="node">
<title>Node4</title>
<g id="a_Node000004"><a xlink:href="../../d8/d83/class_object_a755bcb3ad7d0d7a9dc2b3a63122d60f1.html#a755bcb3ad7d0d7a9dc2b3a63122d60f1" target="_top" xlink:title=" ">
<polygon fill="white" stroke="#666666" points="91.75,-56.25 0,-56.25 0,-37 91.75,-37 91.75,-56.25"/>
<text text-anchor="middle" x="45.88" y="-42.75" font-family="Helvetica,sans-Serif" font-size="10.00">Object::operator()</text>
</a>
</g>
</g>
<!-- Node1&#45;&gt;Node4 -->
<g id="edge3_Node000001_Node000004" class="edge">
<title>Node1&#45;&gt;Node4</title>
<g id="a_edge3_Node000001_Node000004"><a xlink:title=" ">
<path fill="none" stroke="#63b8ff" d="M115.92,-56.06C107.79,-54.95 99.6,-53.83 91.84,-52.77"/>
<polygon fill="#63b8ff" stroke="#63b8ff" points="115.43,-59.52 125.81,-57.41 116.38,-52.59 115.43,-59.52"/>
</a>
</g>
</g>
<!-- Node5 -->
<g id="Node000005" class="node">
<title>Node5</title>
<g id="a_Node000005"><a xlink:href="../../d8/d83/class_object_a5eabd85c6d1cd266e8b068465c8cbc71.html#a5eabd85c6d1cd266e8b068465c8cbc71" target="_top" xlink:title=" ">
<polygon fill="white" stroke="#666666" points="91.75,-19.25 0,-19.25 0,0 91.75,0 91.75,-19.25"/>
<text text-anchor="middle" x="45.88" y="-5.75" font-family="Helvetica,sans-Serif" font-size="10.00">Object::operator()</text>
</a>
</g>
</g>
<!-- Node1&#45;&gt;Node5 -->
<g id="edge4_Node000001_Node000005" class="edge">
<title>Node1&#45;&gt;Node5</title>
<g id="a_edge4_Node000001_Node000005"><a xlink:title=" ">
<path fill="none" stroke="#63b8ff" d="M144.94,-50.08C128.87,-43.2 109.35,-34.9 91.75,-27.62 85.39,-25 78.5,-22.2 72.07,-19.62"/>
<polygon fill="#63b8ff" stroke="#63b8ff" points="143.49,-53.27 154.06,-54 146.25,-46.84 143.49,-53.27"/>
</a>
</g>
</g>
</g>
</svg>
