<?xml version="1.0" encoding="UTF-8" standalone="no"?>
<!DOCTYPE svg PUBLIC "-//W3C//DTD SVG 1.1//EN"
 "http://www.w3.org/Graphics/SVG/1.1/DTD/svg11.dtd">
<!-- Generated by graphviz version 12.2.1 (20241206.2353)
 -->
<!-- Title: Object::operator() Pages: 1 -->
<svg width="240pt" height="64pt"
 viewBox="0.00 0.00 239.50 64.25" xmlns="http://www.w3.org/2000/svg" xmlns:xlink="http://www.w3.org/1999/xlink">
<g id="graph0" class="graph" transform="scale(1 1) rotate(0) translate(4 60.25)">
<title>Object::operator()</title>
<!-- Node1 -->
<g id="Node000001" class="node">
<title>Node1</title>
<g id="a_Node000001"><a xlink:title=" ">
<polygon fill="#999999" stroke="#666666" points="91.75,-37.25 0,-37.25 0,-18 91.75,-18 91.75,-37.25"/>
<text text-anchor="middle" x="45.88" y="-23.75" font-family="Helvetica,sans-Serif" font-size="10.00">Object::operator()</text>
</a>
</g>
</g>
<!-- Node2 -->
<g id="Node000002" class="node">
<title>Node2</title>
<g id="a_Node000002"><a xlink:href="../../dd/db4/class_line_a11d1062afe4e7ccc91002d5a2b9b8b7d.html#a11d1062afe4e7ccc91002d5a2b9b8b7d" target="_top" xlink:title=" ">
<polygon fill="white" stroke="#666666" points="230.38,-56.25 128.88,-56.25 128.88,-37 230.38,-37 230.38,-56.25"/>
<text text-anchor="middle" x="179.62" y="-42.75" font-family="Helvetica,sans-Serif" font-size="10.00">Line::Get_Point_list</text>
</a>
</g>
</g>
<!-- Node1&#45;&gt;Node2 -->
<g id="edge1_Node000001_Node000002" class="edge">
<title>Node1&#45;&gt;Node2</title>
<g id="a_edge1_Node000001_Node000002"><a xlink:title=" ">
<path fill="none" stroke="#63b8ff" d="M92.22,-34.16C100.39,-35.34 109.04,-36.59 117.58,-37.82"/>
<polygon fill="#63b8ff" stroke="#63b8ff" points="116.79,-41.24 127.19,-39.21 117.79,-34.32 116.79,-41.24"/>
</a>
</g>
</g>
<!-- Node3 -->
<g id="Node000003" class="node">
<title>Node3</title>
<g id="a_Node000003"><a xlink:href="../../d8/d83/class_object_a13e062d9e2a1d1d886861c6fd48671af.html#a13e062d9e2a1d1d886861c6fd48671af" target="_top" xlink:title=" ">
<polygon fill="white" stroke="#666666" points="231.5,-19.25 127.75,-19.25 127.75,0 231.5,0 231.5,-19.25"/>
<text text-anchor="middle" x="179.62" y="-5.75" font-family="Helvetica,sans-Serif" font-size="10.00">Object::write_output</text>
</a>
</g>
</g>
<!-- Node1&#45;&gt;Node3 -->
<g id="edge2_Node000001_Node000003" class="edge">
<title>Node1&#45;&gt;Node3</title>
<g id="a_edge2_Node000001_Node000003"><a xlink:title=" ">
<path fill="none" stroke="#63b8ff" d="M92.22,-21.43C99.91,-20.38 108.01,-19.27 116.05,-18.17"/>
<polygon fill="#63b8ff" stroke="#63b8ff" points="116.39,-21.66 125.82,-16.84 115.44,-14.73 116.39,-21.66"/>
</a>
</g>
</g>
</g>
</svg>
