<?xml version="1.0" encoding="UTF-8" standalone="no"?>
<!DOCTYPE svg PUBLIC "-//W3C//DTD SVG 1.1//EN"
 "http://www.w3.org/Graphics/SVG/1.1/DTD/svg11.dtd">
<!-- Generated by graphviz version 12.2.1 (20241206.2353)
 -->
<!-- Title: Object::operator() Pages: 1 -->
<svg width="245pt" height="64pt"
 viewBox="0.00 0.00 244.75 64.25" xmlns="http://www.w3.org/2000/svg" xmlns:xlink="http://www.w3.org/1999/xlink">
<g id="graph0" class="graph" transform="scale(1 1) rotate(0) translate(4 60.25)">
<title>Object::operator()</title>
<!-- Node1 -->
<g id="Node000001" class="node">
<title>Node1</title>
<g id="a_Node000001"><a xlink:title=" ">
<polygon fill="#999999" stroke="#666666" points="91.75,-37.25 0,-37.25 0,-18 91.75,-18 91.75,-37.25"/>
<text text-anchor="middle" x="45.88" y="-23.75" font-family="Helvetica,sans-Serif" font-size="10.00">Object::operator()</text>
</a>
</g>
</g>
<!-- Node2 -->
<g id="Node000002" class="node">
<title>Node2</title>
<g id="a_Node000002"><a xlink:href="../../d0/d88/class_circle_a468a9fd60b528d2a89f442d0e95d7031.html#a468a9fd60b528d2a89f442d0e95d7031" target="_top" xlink:title=" ">
<polygon fill="white" stroke="#666666" points="236.75,-56.25 127.75,-56.25 127.75,-37 236.75,-37 236.75,-56.25"/>
<text text-anchor="middle" x="182.25" y="-42.75" font-family="Helvetica,sans-Serif" font-size="10.00">Circle::Get_Point_list</text>
</a>
</g>
</g>
<!-- Node1&#45;&gt;Node2 -->
<g id="edge1_Node000001_Node000002" class="edge">
<title>Node1&#45;&gt;Node2</title>
<g id="a_edge1_Node000001_Node000002"><a xlink:title=" ">
<path fill="none" stroke="#63b8ff" d="M91.99,-34C99.86,-35.12 108.17,-36.29 116.44,-37.46"/>
<polygon fill="#63b8ff" stroke="#63b8ff" points="115.75,-40.9 126.14,-38.83 116.73,-33.97 115.75,-40.9"/>
</a>
</g>
</g>
<!-- Node3 -->
<g id="Node000003" class="node">
<title>Node3</title>
<g id="a_Node000003"><a xlink:href="../../d8/d83/class_object_a13e062d9e2a1d1d886861c6fd48671af.html#a13e062d9e2a1d1d886861c6fd48671af" target="_top" xlink:title=" ">
<polygon fill="white" stroke="#666666" points="234.12,-19.25 130.38,-19.25 130.38,0 234.12,0 234.12,-19.25"/>
<text text-anchor="middle" x="182.25" y="-5.75" font-family="Helvetica,sans-Serif" font-size="10.00">Object::write_output</text>
</a>
</g>
</g>
<!-- Node1&#45;&gt;Node3 -->
<g id="edge2_Node000001_Node000003" class="edge">
<title>Node1&#45;&gt;Node3</title>
<g id="a_edge2_Node000001_Node000003"><a xlink:title=" ">
<path fill="none" stroke="#63b8ff" d="M91.99,-21.58C100.57,-20.43 109.69,-19.21 118.69,-18"/>
<polygon fill="#63b8ff" stroke="#63b8ff" points="119.05,-21.49 128.49,-16.69 118.12,-14.55 119.05,-21.49"/>
</a>
</g>
</g>
</g>
</svg>
