<?xml version="1.0" encoding="UTF-8" standalone="no"?>
<!DOCTYPE svg PUBLIC "-//W3C//DTD SVG 1.1//EN"
 "http://www.w3.org/Graphics/SVG/1.1/DTD/svg11.dtd">
<!-- Generated by graphviz version 12.2.1 (20241206.2353)
 -->
<!-- Title: GridPerformance::print_performance_summary Pages: 1 -->
<svg width="634pt" height="114pt"
 viewBox="0.00 0.00 633.75 113.88" xmlns="http://www.w3.org/2000/svg" xmlns:xlink="http://www.w3.org/1999/xlink">
<g id="graph0" class="graph" transform="scale(1 1) rotate(0) translate(4 109.88)">
<title>GridPerformance::print_performance_summary</title>
<!-- Node1 -->
<g id="Node000001" class="node">
<title>Node1</title>
<g id="a_Node000001"><a xlink:title=" ">
<polygon fill="#999999" stroke="#666666" points="625.75,-80.88 504.75,-80.88 504.75,-50.38 625.75,-50.38 625.75,-80.88"/>
<text text-anchor="start" x="512.75" y="-67.38" font-family="Helvetica,sans-Serif" font-size="10.00">GridPerformance::print</text>
<text text-anchor="middle" x="565.25" y="-56.12" font-family="Helvetica,sans-Serif" font-size="10.00">_performance_summary</text>
</a>
</g>
</g>
<!-- Node2 -->
<g id="Node000002" class="node">
<title>Node2</title>
<g id="a_Node000002"><a xlink:href="../../d8/d24/_grid___computations___optimized_8cpp_a98379ebe8a042245852b8172374737d7.html#a98379ebe8a042245852b8172374737d7" target="_top" xlink:title=" ">
<polygon fill="white" stroke="#666666" points="468.75,-94.25 338.75,-94.25 338.75,-75 468.75,-75 468.75,-94.25"/>
<text text-anchor="middle" x="403.75" y="-80.75" font-family="Helvetica,sans-Serif" font-size="10.00">benchmark_grid_functions</text>
</a>
</g>
</g>
<!-- Node1&#45;&gt;Node2 -->
<g id="edge1_Node000001_Node000002" class="edge">
<title>Node1&#45;&gt;Node2</title>
<g id="a_edge1_Node000001_Node000002"><a xlink:title=" ">
<path fill="none" stroke="#63b8ff" d="M493.21,-74.09C485.22,-75.04 477.11,-76.01 469.2,-76.95"/>
<polygon fill="#63b8ff" stroke="#63b8ff" points="493.39,-77.59 502.9,-72.93 492.56,-70.64 493.39,-77.59"/>
</a>
</g>
</g>
<!-- Node3 -->
<g id="Node000003" class="node">
<title>Node3</title>
<g id="a_Node000003"><a xlink:href="../../d8/d5a/namespace_optimized_grid_a5a1120c1c01937757b9ec8cad7afa9a3.html#a5a1120c1c01937757b9ec8cad7afa9a3" target="_top" xlink:title=" ">
<polygon fill="white" stroke="#666666" points="462.75,-57.25 344.75,-57.25 344.75,-38 462.75,-38 462.75,-57.25"/>
<text text-anchor="middle" x="403.75" y="-43.75" font-family="Helvetica,sans-Serif" font-size="10.00">OptimizedGrid::Finalize</text>
</a>
</g>
</g>
<!-- Node1&#45;&gt;Node3 -->
<g id="edge2_Node000001_Node000003" class="edge">
<title>Node1&#45;&gt;Node3</title>
<g id="a_edge2_Node000001_Node000003"><a xlink:title=" ">
<path fill="none" stroke="#63b8ff" d="M493.16,-57.6C483.1,-56.47 472.86,-55.31 463.08,-54.21"/>
<polygon fill="#63b8ff" stroke="#63b8ff" points="492.57,-61.06 502.9,-58.7 493.36,-54.1 492.57,-61.06"/>
</a>
</g>
</g>
<!-- Node4 -->
<g id="Node000004" class="node">
<title>Node4</title>
<g id="a_Node000004"><a xlink:href="../../dc/de7/_grid___optimization___integration___guide_8cpp_ae6a5c597ffb845be2502d0afc0e1a695.html#ae6a5c597ffb845be2502d0afc0e1a695" target="_top" xlink:title=" ">
<polygon fill="white" stroke="#666666" points="302.75,-105.88 173.5,-105.88 173.5,-75.38 302.75,-75.38 302.75,-105.88"/>
<text text-anchor="start" x="181.5" y="-92.38" font-family="Helvetica,sans-Serif" font-size="10.00">demonstrate_performance</text>
<text text-anchor="middle" x="238.12" y="-81.12" font-family="Helvetica,sans-Serif" font-size="10.00">_aware_integration</text>
</a>
</g>
</g>
<!-- Node3&#45;&gt;Node4 -->
<g id="edge3_Node000003_Node000004" class="edge">
<title>Node3&#45;&gt;Node4</title>
<g id="a_edge3_Node000003_Node000004"><a xlink:title=" ">
<path fill="none" stroke="#63b8ff" d="M353.49,-60.57C336.35,-65.08 316.93,-70.18 299.02,-74.88"/>
<polygon fill="#63b8ff" stroke="#63b8ff" points="354.14,-64.02 362.92,-58.09 352.36,-57.25 354.14,-64.02"/>
</a>
</g>
</g>
<!-- Node6 -->
<g id="Node000006" class="node">
<title>Node6</title>
<g id="a_Node000006"><a xlink:href="../../dc/de7/_grid___optimization___integration___guide_8cpp_ac9d67fcbba41c27f9c5d5876429fe035.html#ac9d67fcbba41c27f9c5d5876429fe035" target="_top" xlink:title=" ">
<polygon fill="white" stroke="#666666" points="133.38,-38.25 4.12,-38.25 4.12,-19 133.38,-19 133.38,-38.25"/>
<text text-anchor="middle" x="68.75" y="-24.75" font-family="Helvetica,sans-Serif" font-size="10.00">example_main_integration</text>
</a>
</g>
</g>
<!-- Node3&#45;&gt;Node6 -->
<g id="edge5_Node000003_Node000006" class="edge">
<title>Node3&#45;&gt;Node6</title>
<g id="a_edge5_Node000003_Node000006"><a xlink:title=" ">
<path fill="none" stroke="#63b8ff" d="M332.95,-43.64C274.19,-40.29 190.83,-35.53 133.76,-32.28"/>
<polygon fill="#63b8ff" stroke="#63b8ff" points="332.67,-47.13 342.85,-44.21 333.07,-40.14 332.67,-47.13"/>
</a>
</g>
</g>
<!-- Node7 -->
<g id="Node000007" class="node">
<title>Node7</title>
<g id="a_Node000007"><a xlink:href="../../dc/de7/_grid___optimization___integration___guide_8cpp_ad8ac88549c20d09515c033d5fc2e2d10.html#ad8ac88549c20d09515c033d5fc2e2d10" target="_top" xlink:title=" ">
<polygon fill="white" stroke="#666666" points="294.12,-19.25 182.12,-19.25 182.12,0 294.12,0 294.12,-19.25"/>
<text text-anchor="middle" x="238.12" y="-5.75" font-family="Helvetica,sans-Serif" font-size="10.00">Read_Grid_Optimized</text>
</a>
</g>
</g>
<!-- Node3&#45;&gt;Node7 -->
<g id="edge6_Node000003_Node000007" class="edge">
<title>Node3&#45;&gt;Node7</title>
<g id="a_edge6_Node000003_Node000007"><a xlink:title=" ">
<path fill="none" stroke="#63b8ff" d="M348.12,-34.94C326.75,-29.98 302.6,-24.37 282.46,-19.69"/>
<polygon fill="#63b8ff" stroke="#63b8ff" points="347.32,-38.35 357.86,-37.2 348.91,-31.53 347.32,-38.35"/>
</a>
</g>
</g>
<!-- Node5 -->
<g id="Node000005" class="node">
<title>Node5</title>
<g id="a_Node000005"><a xlink:href="../../dc/de7/_grid___optimization___integration___guide_8cpp_ad598130e8e89b3050bb9bd71f0ab1b25.html#ad598130e8e89b3050bb9bd71f0ab1b25" target="_top" xlink:title=" ">
<polygon fill="white" stroke="#666666" points="137.5,-100.25 0,-100.25 0,-81 137.5,-81 137.5,-100.25"/>
<text text-anchor="middle" x="68.75" y="-86.75" font-family="Helvetica,sans-Serif" font-size="10.00">integrate_grid_optimizations</text>
</a>
</g>
</g>
<!-- Node4&#45;&gt;Node5 -->
<g id="edge4_Node000004_Node000005" class="edge">
<title>Node4&#45;&gt;Node5</title>
<g id="a_edge4_Node000004_Node000005"><a xlink:title=" ">
<path fill="none" stroke="#63b8ff" d="M162.05,-90.62C153.97,-90.62 145.78,-90.62 137.78,-90.62"/>
<polygon fill="#63b8ff" stroke="#63b8ff" points="161.86,-94.13 171.86,-90.63 161.86,-87.13 161.86,-94.13"/>
</a>
</g>
</g>
<!-- Node7&#45;&gt;Node6 -->
<g id="edge7_Node000007_Node000006" class="edge">
<title>Node7&#45;&gt;Node6</title>
<g id="a_edge7_Node000007_Node000006"><a xlink:title=" ">
<path fill="none" stroke="#63b8ff" d="M170.43,-17.2C158.31,-18.57 145.7,-20 133.66,-21.37"/>
<polygon fill="#63b8ff" stroke="#63b8ff" points="170.81,-20.68 180.35,-16.07 170.02,-13.72 170.81,-20.68"/>
</a>
</g>
</g>
</g>
</svg>
