<?xml version="1.0" encoding="UTF-8" standalone="no"?>
<!DOCTYPE svg PUBLIC "-//W3C//DTD SVG 1.1//EN"
 "http://www.w3.org/Graphics/SVG/1.1/DTD/svg11.dtd">
<!-- Generated by graphviz version 12.2.1 (20241206.2353)
 -->
<!-- Title: GridPerformance::end_timer Pages: 1 -->
<svg width="819pt" height="224pt"
 viewBox="0.00 0.00 818.50 223.88" xmlns="http://www.w3.org/2000/svg" xmlns:xlink="http://www.w3.org/1999/xlink">
<g id="graph0" class="graph" transform="scale(1 1) rotate(0) translate(4 219.88)">
<title>GridPerformance::end_timer</title>
<!-- Node1 -->
<g id="Node000001" class="node">
<title>Node1</title>
<g id="a_Node000001"><a xlink:title=" ">
<polygon fill="#999999" stroke="#666666" points="810.5,-145.5 699.25,-145.5 699.25,-115 810.5,-115 810.5,-145.5"/>
<text text-anchor="start" x="707.25" y="-132" font-family="Helvetica,sans-Serif" font-size="10.00">GridPerformance::end</text>
<text text-anchor="middle" x="754.88" y="-120.75" font-family="Helvetica,sans-Serif" font-size="10.00">_timer</text>
</a>
</g>
</g>
<!-- Node2 -->
<g id="Node000002" class="node">
<title>Node2</title>
<g id="a_Node000002"><a xlink:href="../../d8/d24/_grid___computations___optimized_8cpp_a98379ebe8a042245852b8172374737d7.html#a98379ebe8a042245852b8172374737d7" target="_top" xlink:title=" ">
<polygon fill="white" stroke="#666666" points="658.38,-215.88 528.38,-215.88 528.38,-196.62 658.38,-196.62 658.38,-215.88"/>
<text text-anchor="middle" x="593.38" y="-202.38" font-family="Helvetica,sans-Serif" font-size="10.00">benchmark_grid_functions</text>
</a>
</g>
</g>
<!-- Node1&#45;&gt;Node2 -->
<g id="edge1_Node000001_Node000002" class="edge">
<title>Node1&#45;&gt;Node2</title>
<g id="a_edge1_Node000001_Node000002"><a xlink:title=" ">
<path fill="none" stroke="#63b8ff" d="M719.71,-151.86C703.06,-161.87 682.52,-173.46 663.25,-182.25 651.73,-187.51 638.7,-192.32 627.1,-196.23"/>
<polygon fill="#63b8ff" stroke="#63b8ff" points="721.52,-154.86 728.24,-146.66 717.88,-148.88 721.52,-154.86"/>
</a>
</g>
</g>
<!-- Node3 -->
<g id="Node000003" class="node">
<title>Node3</title>
<g id="a_Node000003"><a xlink:href="../../dc/de7/_grid___optimization___integration___guide_8cpp_a120e50cd83a9c52266fecc99bf748026.html#a120e50cd83a9c52266fecc99bf748026" target="_top" xlink:title=" ">
<polygon fill="white" stroke="#666666" points="477,-99.5 359,-99.5 359,-69 477,-69 477,-99.5"/>
<text text-anchor="start" x="367" y="-86" font-family="Helvetica,sans-Serif" font-size="10.00">Construct_Ghost_Cells</text>
<text text-anchor="middle" x="418" y="-74.75" font-family="Helvetica,sans-Serif" font-size="10.00">_Optimized</text>
</a>
</g>
</g>
<!-- Node1&#45;&gt;Node3 -->
<g id="edge2_Node000001_Node000003" class="edge">
<title>Node1&#45;&gt;Node3</title>
<g id="a_edge2_Node000001_Node000003"><a xlink:title=" ">
<path fill="none" stroke="#63b8ff" d="M687.78,-115.62C679.54,-114.03 671.22,-112.52 663.25,-111.25 600.06,-101.16 527.06,-93.62 477.45,-89.11"/>
<polygon fill="#63b8ff" stroke="#63b8ff" points="686.94,-119.02 697.44,-117.55 688.31,-112.16 686.94,-119.02"/>
</a>
</g>
</g>
<!-- Node5 -->
<g id="Node000005" class="node">
<title>Node5</title>
<g id="a_Node000005"><a xlink:href="../../dc/de7/_grid___optimization___integration___guide_8cpp_ae6a5c597ffb845be2502d0afc0e1a695.html#ae6a5c597ffb845be2502d0afc0e1a695" target="_top" xlink:title=" ">
<polygon fill="white" stroke="#666666" points="307.62,-192.5 178.38,-192.5 178.38,-162 307.62,-162 307.62,-192.5"/>
<text text-anchor="start" x="186.38" y="-179" font-family="Helvetica,sans-Serif" font-size="10.00">demonstrate_performance</text>
<text text-anchor="middle" x="243" y="-167.75" font-family="Helvetica,sans-Serif" font-size="10.00">_aware_integration</text>
</a>
</g>
</g>
<!-- Node1&#45;&gt;Node5 -->
<g id="edge4_Node000001_Node000005" class="edge">
<title>Node1&#45;&gt;Node5</title>
<g id="a_edge4_Node000001_Node000005"><a xlink:title=" ">
<path fill="none" stroke="#63b8ff" d="M687.83,-145.21C679.58,-146.75 671.24,-148.15 663.25,-149.25 538.05,-166.47 390.29,-173.21 307.85,-175.76"/>
<polygon fill="#63b8ff" stroke="#63b8ff" points="688.34,-148.68 697.49,-143.33 687.01,-141.81 688.34,-148.68"/>
</a>
</g>
</g>
<!-- Node7 -->
<g id="Node000007" class="node">
<title>Node7</title>
<g id="a_Node000007"><a xlink:href="../../d8/d24/_grid___computations___optimized_8cpp_a52c142c38082da9508f85d41a5cfa81a.html#a52c142c38082da9508f85d41a5cfa81a" target="_top" xlink:title=" ">
<polygon fill="white" stroke="#666666" points="663.25,-139.88 523.5,-139.88 523.5,-120.62 663.25,-120.62 663.25,-139.88"/>
<text text-anchor="middle" x="593.38" y="-126.38" font-family="Helvetica,sans-Serif" font-size="10.00">optimize_memory_allocation</text>
</a>
</g>
</g>
<!-- Node1&#45;&gt;Node7 -->
<g id="edge6_Node000001_Node000007" class="edge">
<title>Node1&#45;&gt;Node7</title>
<g id="a_edge6_Node000001_Node000007"><a xlink:title=" ">
<path fill="none" stroke="#63b8ff" d="M687.6,-130.25C679.72,-130.25 671.66,-130.25 663.74,-130.25"/>
<polygon fill="#63b8ff" stroke="#63b8ff" points="687.47,-133.75 697.47,-130.25 687.47,-126.75 687.47,-133.75"/>
</a>
</g>
</g>
<!-- Node10 -->
<g id="Node000010" class="node">
<title>Node10</title>
<g id="a_Node000010"><a xlink:href="../../d8/d24/_grid___computations___optimized_8cpp_acee5cfe90b71aaaec2520da8a6e45a58.html#acee5cfe90b71aaaec2520da8a6e45a58" target="_top" xlink:title=" ">
<polygon fill="white" stroke="#666666" points="662.12,-57.5 524.62,-57.5 524.62,-27 662.12,-27 662.12,-57.5"/>
<text text-anchor="start" x="532.62" y="-44" font-family="Helvetica,sans-Serif" font-size="10.00">Sort_Points_AntiClockWise</text>
<text text-anchor="middle" x="593.38" y="-32.75" font-family="Helvetica,sans-Serif" font-size="10.00">_Optimized</text>
</a>
</g>
</g>
<!-- Node1&#45;&gt;Node10 -->
<g id="edge12_Node000001_Node000010" class="edge">
<title>Node1&#45;&gt;Node10</title>
<g id="a_edge12_Node000001_Node000010"><a xlink:title=" ">
<path fill="none" stroke="#63b8ff" d="M719.4,-108.84C702.63,-98.65 682.08,-86.49 663.25,-76.25 651.77,-70.01 638.98,-63.56 627.58,-57.98"/>
<polygon fill="#63b8ff" stroke="#63b8ff" points="717.14,-111.56 727.5,-113.79 720.79,-105.59 717.14,-111.56"/>
</a>
</g>
</g>
<!-- Node4 -->
<g id="Node000004" class="node">
<title>Node4</title>
<g id="a_Node000004"><a xlink:href="../../dc/de7/_grid___optimization___integration___guide_8cpp_ac9d67fcbba41c27f9c5d5876429fe035.html#ac9d67fcbba41c27f9c5d5876429fe035" target="_top" xlink:title=" ">
<polygon fill="white" stroke="#666666" points="133.38,-105.88 4.12,-105.88 4.12,-86.62 133.38,-86.62 133.38,-105.88"/>
<text text-anchor="middle" x="68.75" y="-92.38" font-family="Helvetica,sans-Serif" font-size="10.00">example_main_integration</text>
</a>
</g>
</g>
<!-- Node3&#45;&gt;Node4 -->
<g id="edge3_Node000003_Node000004" class="edge">
<title>Node3&#45;&gt;Node4</title>
<g id="a_edge3_Node000003_Node000004"><a xlink:title=" ">
<path fill="none" stroke="#63b8ff" d="M347.51,-80.91C298.75,-79.24 232.08,-78.32 173.5,-82.25 160.62,-83.11 146.91,-84.58 133.81,-86.24"/>
<polygon fill="#63b8ff" stroke="#63b8ff" points="347.24,-84.4 357.36,-81.26 347.49,-77.4 347.24,-84.4"/>
</a>
</g>
</g>
<!-- Node6 -->
<g id="Node000006" class="node">
<title>Node6</title>
<g id="a_Node000006"><a xlink:href="../../dc/de7/_grid___optimization___integration___guide_8cpp_ad598130e8e89b3050bb9bd71f0ab1b25.html#ad598130e8e89b3050bb9bd71f0ab1b25" target="_top" xlink:title=" ">
<polygon fill="white" stroke="#666666" points="137.5,-186.88 0,-186.88 0,-167.62 137.5,-167.62 137.5,-186.88"/>
<text text-anchor="middle" x="68.75" y="-173.38" font-family="Helvetica,sans-Serif" font-size="10.00">integrate_grid_optimizations</text>
</a>
</g>
</g>
<!-- Node5&#45;&gt;Node6 -->
<g id="edge5_Node000005_Node000006" class="edge">
<title>Node5&#45;&gt;Node6</title>
<g id="a_edge5_Node000005_Node000006"><a xlink:title=" ">
<path fill="none" stroke="#63b8ff" d="M167.04,-177.25C157.31,-177.25 147.38,-177.25 137.76,-177.25"/>
<polygon fill="#63b8ff" stroke="#63b8ff" points="166.84,-180.75 176.84,-177.25 166.84,-173.75 166.84,-180.75"/>
</a>
</g>
</g>
<!-- Node8 -->
<g id="Node000008" class="node">
<title>Node8</title>
<g id="a_Node000008"><a xlink:href="../../d8/d5a/namespace_optimized_grid_a8a1fcd3967e237f31964ad5f85d295a9.html#a8a1fcd3967e237f31964ad5f85d295a9" target="_top" xlink:title=" ">
<polygon fill="white" stroke="#666666" points="478.12,-139.88 357.88,-139.88 357.88,-120.62 478.12,-120.62 478.12,-139.88"/>
<text text-anchor="middle" x="418" y="-126.38" font-family="Helvetica,sans-Serif" font-size="10.00">OptimizedGrid::Initialize</text>
</a>
</g>
</g>
<!-- Node7&#45;&gt;Node8 -->
<g id="edge7_Node000007_Node000008" class="edge">
<title>Node7&#45;&gt;Node8</title>
<g id="a_edge7_Node000007_Node000008"><a xlink:title=" ">
<path fill="none" stroke="#63b8ff" d="M512.13,-130.25C500.83,-130.25 489.38,-130.25 478.55,-130.25"/>
<polygon fill="#63b8ff" stroke="#63b8ff" points="511.84,-133.75 521.84,-130.25 511.84,-126.75 511.84,-133.75"/>
</a>
</g>
</g>
<!-- Node8&#45;&gt;Node4 -->
<g id="edge9_Node000008_Node000004" class="edge">
<title>Node8&#45;&gt;Node4</title>
<g id="a_edge9_Node000008_Node000004"><a xlink:title=" ">
<path fill="none" stroke="#63b8ff" d="M346.25,-119.47C334.98,-117.93 323.43,-116.46 312.5,-115.25 252,-108.55 182.75,-103.37 133.74,-100.13"/>
<polygon fill="#63b8ff" stroke="#63b8ff" points="345.52,-122.9 355.9,-120.81 346.48,-115.96 345.52,-122.9"/>
</a>
</g>
</g>
<!-- Node8&#45;&gt;Node5 -->
<g id="edge8_Node000008_Node000005" class="edge">
<title>Node8&#45;&gt;Node5</title>
<g id="a_edge8_Node000008_Node000005"><a xlink:title=" ">
<path fill="none" stroke="#63b8ff" d="M369.06,-143.27C348.23,-148.93 323.65,-155.61 301.81,-161.54"/>
<polygon fill="#63b8ff" stroke="#63b8ff" points="369.69,-146.73 378.43,-140.73 367.86,-139.97 369.69,-146.73"/>
</a>
</g>
</g>
<!-- Node9 -->
<g id="Node000009" class="node">
<title>Node9</title>
<g id="a_Node000009"><a xlink:href="../../dc/de7/_grid___optimization___integration___guide_8cpp_ad8ac88549c20d09515c033d5fc2e2d10.html#ad8ac88549c20d09515c033d5fc2e2d10" target="_top" xlink:title=" ">
<polygon fill="white" stroke="#666666" points="299,-143.88 187,-143.88 187,-124.62 299,-124.62 299,-143.88"/>
<text text-anchor="middle" x="243" y="-130.38" font-family="Helvetica,sans-Serif" font-size="10.00">Read_Grid_Optimized</text>
</a>
</g>
</g>
<!-- Node8&#45;&gt;Node9 -->
<g id="edge10_Node000008_Node000009" class="edge">
<title>Node8&#45;&gt;Node9</title>
<g id="a_edge10_Node000008_Node000009"><a xlink:title=" ">
<path fill="none" stroke="#63b8ff" d="M346.22,-131.89C330.57,-132.25 314.21,-132.63 299.28,-132.97"/>
<polygon fill="#63b8ff" stroke="#63b8ff" points="346.03,-135.39 355.95,-131.66 345.87,-128.39 346.03,-135.39"/>
</a>
</g>
</g>
<!-- Node9&#45;&gt;Node4 -->
<g id="edge11_Node000009_Node000004" class="edge">
<title>Node9&#45;&gt;Node4</title>
<g id="a_edge11_Node000009_Node000004"><a xlink:title=" ">
<path fill="none" stroke="#63b8ff" d="M185.11,-121.7C162.47,-116.7 136.76,-111.03 115.37,-106.31"/>
<polygon fill="#63b8ff" stroke="#63b8ff" points="184.3,-125.1 194.81,-123.84 185.8,-118.27 184.3,-125.1"/>
</a>
</g>
</g>
<!-- Node11 -->
<g id="Node000011" class="node">
<title>Node11</title>
<g id="a_Node000011"><a xlink:href="../../d3/de1/class_grid_performance_benchmark_ac103c54d6f481930ad560f597b7f3bce.html#ac103c54d6f481930ad560f597b7f3bce" target="_top" xlink:title=" ">
<polygon fill="white" stroke="#666666" points="487.5,-43.5 348.5,-43.5 348.5,-13 487.5,-13 487.5,-43.5"/>
<text text-anchor="start" x="356.5" y="-30" font-family="Helvetica,sans-Serif" font-size="10.00">GridPerformanceBenchmark</text>
<text text-anchor="middle" x="418" y="-18.75" font-family="Helvetica,sans-Serif" font-size="10.00">::benchmark_point_sorting</text>
</a>
</g>
</g>
<!-- Node10&#45;&gt;Node11 -->
<g id="edge13_Node000010_Node000011" class="edge">
<title>Node10&#45;&gt;Node11</title>
<g id="a_edge13_Node000010_Node000011"><a xlink:title=" ">
<path fill="none" stroke="#63b8ff" d="M513.03,-35.84C504.66,-35.17 496.2,-34.48 487.97,-33.82"/>
<polygon fill="#63b8ff" stroke="#63b8ff" points="512.59,-39.32 522.84,-36.64 513.16,-32.34 512.59,-39.32"/>
</a>
</g>
</g>
<!-- Node12 -->
<g id="Node000012" class="node">
<title>Node12</title>
<g id="a_Node000012"><a xlink:href="../../d3/de1/class_grid_performance_benchmark_a6a31f6642222905776b59d5fc6ec1364.html#a6a31f6642222905776b59d5fc6ec1364" target="_top" xlink:title=" ">
<polygon fill="white" stroke="#666666" points="312.5,-30.5 173.5,-30.5 173.5,0 312.5,0 312.5,-30.5"/>
<text text-anchor="start" x="181.5" y="-17" font-family="Helvetica,sans-Serif" font-size="10.00">GridPerformanceBenchmark</text>
<text text-anchor="middle" x="243" y="-5.75" font-family="Helvetica,sans-Serif" font-size="10.00">::run_complete_benchmark</text>
</a>
</g>
</g>
<!-- Node11&#45;&gt;Node12 -->
<g id="edge14_Node000011_Node000012" class="edge">
<title>Node11&#45;&gt;Node12</title>
<g id="a_edge14_Node000011_Node000012"><a xlink:title=" ">
<path fill="none" stroke="#63b8ff" d="M336.88,-22.23C328.88,-21.63 320.8,-21.02 312.92,-20.43"/>
<polygon fill="#63b8ff" stroke="#63b8ff" points="336.39,-25.7 346.62,-22.96 336.91,-18.72 336.39,-25.7"/>
</a>
</g>
</g>
<!-- Node13 -->
<g id="Node000013" class="node">
<title>Node13</title>
<g id="a_Node000013"><a xlink:href="../../d1/db0/_grid___performance___benchmark_8cpp_a8eaebb5b60c50f0606cb4719e236b1bf.html#a8eaebb5b60c50f0606cb4719e236b1bf" target="_top" xlink:title=" ">
<polygon fill="white" stroke="#666666" points="123.62,-30.5 13.88,-30.5 13.88,0 123.62,0 123.62,-30.5"/>
<text text-anchor="start" x="21.88" y="-17" font-family="Helvetica,sans-Serif" font-size="10.00">run_grid_performance</text>
<text text-anchor="middle" x="68.75" y="-5.75" font-family="Helvetica,sans-Serif" font-size="10.00">_benchmark</text>
</a>
</g>
</g>
<!-- Node12&#45;&gt;Node13 -->
<g id="edge15_Node000012_Node000013" class="edge">
<title>Node12&#45;&gt;Node13</title>
<g id="a_edge15_Node000012_Node000013"><a xlink:title=" ">
<path fill="none" stroke="#63b8ff" d="M162.16,-15.25C149.25,-15.25 136.15,-15.25 124.03,-15.25"/>
<polygon fill="#63b8ff" stroke="#63b8ff" points="161.91,-18.75 171.91,-15.25 161.91,-11.75 161.91,-18.75"/>
</a>
</g>
</g>
</g>
</svg>
