<?xml version="1.0" encoding="UTF-8" standalone="no"?>
<!DOCTYPE svg PUBLIC "-//W3C//DTD SVG 1.1//EN"
 "http://www.w3.org/Graphics/SVG/1.1/DTD/svg11.dtd">
<!-- Generated by graphviz version 12.2.1 (20241206.2353)
 -->
<!-- Title: Evaluate_Cell_Net_Flux_WENO Pages: 1 -->
<svg width="825pt" height="270pt"
 viewBox="0.00 0.00 825.25 269.88" xmlns="http://www.w3.org/2000/svg" xmlns:xlink="http://www.w3.org/1999/xlink">
<g id="graph0" class="graph" transform="scale(1 1) rotate(0) translate(4 265.88)">
<title>Evaluate_Cell_Net_Flux_WENO</title>
<!-- Node1 -->
<g id="Node000001" class="node">
<title>Node1</title>
<g id="a_Node000001"><a xlink:title=" ">
<polygon fill="#999999" stroke="#666666" points="158.5,-130.25 0,-130.25 0,-111 158.5,-111 158.5,-130.25"/>
<text text-anchor="middle" x="79.25" y="-116.75" font-family="Helvetica,sans-Serif" font-size="10.00">Evaluate_Cell_Net_Flux_WENO</text>
</a>
</g>
</g>
<!-- Node2 -->
<g id="Node000002" class="node">
<title>Node2</title>
<g id="a_Node000002"><a xlink:href="../../d8/df4/_w_e_n_o2_d_8cpp_a27359f46a5902f1f50547f76408a48aa.html#a27359f46a5902f1f50547f76408a48aa" target="_top" xlink:title=" ">
<polygon fill="white" stroke="#666666" points="339.5,-194.25 194.5,-194.25 194.5,-175 339.5,-175 339.5,-194.25"/>
<text text-anchor="middle" x="267" y="-180.75" font-family="Helvetica,sans-Serif" font-size="10.00">Calculate_Face_WENO_Flux</text>
</a>
</g>
</g>
<!-- Node1&#45;&gt;Node2 -->
<g id="edge1_Node000001_Node000002" class="edge">
<title>Node1&#45;&gt;Node2</title>
<g id="a_edge1_Node000001_Node000002"><a xlink:title=" ">
<path fill="none" stroke="#63b8ff" d="M109.27,-130.62C140.67,-141.44 190.93,-158.76 226.05,-170.86"/>
<polygon fill="#63b8ff" stroke="#63b8ff" points="224.85,-174.15 235.44,-174.1 227.13,-167.53 224.85,-174.15"/>
</a>
</g>
</g>
<!-- Node12 -->
<g id="Node000012" class="node">
<title>Node12</title>
<g id="a_Node000012"><a xlink:href="../../de/df0/_solver_8cpp_a1a130a004ad45d61258215e5579c3060.html#a1a130a004ad45d61258215e5579c3060" target="_top" xlink:title=" ">
<polygon fill="white" stroke="#666666" points="320.38,-93.25 213.62,-93.25 213.62,-74 320.38,-74 320.38,-93.25"/>
<text text-anchor="middle" x="267" y="-79.75" font-family="Helvetica,sans-Serif" font-size="10.00">Evaluate_Time_Step</text>
</a>
</g>
</g>
<!-- Node1&#45;&gt;Node12 -->
<g id="edge11_Node000001_Node000012" class="edge">
<title>Node1&#45;&gt;Node12</title>
<g id="a_edge11_Node000001_Node000012"><a xlink:title=" ">
<path fill="none" stroke="#63b8ff" d="M131.01,-110.51C153.63,-106.01 180.49,-100.66 204.27,-95.92"/>
<polygon fill="#63b8ff" stroke="#63b8ff" points="204.7,-99.41 213.82,-94.02 203.33,-92.54 204.7,-99.41"/>
</a>
</g>
</g>
<!-- Node3 -->
<g id="Node000003" class="node">
<title>Node3</title>
<g id="a_Node000003"><a xlink:href="../../df/d43/_basic___functions_8cpp_a1c199e756f8458978961b4d9ab4cbe63.html#a1c199e756f8458978961b4d9ab4cbe63" target="_top" xlink:title=" ">
<polygon fill="white" stroke="#666666" points="491.25,-261.88 390.5,-261.88 390.5,-231.38 491.25,-231.38 491.25,-261.88"/>
<text text-anchor="start" x="398.5" y="-248.38" font-family="Helvetica,sans-Serif" font-size="10.00">Calculate_Primitive</text>
<text text-anchor="middle" x="440.88" y="-237.12" font-family="Helvetica,sans-Serif" font-size="10.00">_Variables</text>
</a>
</g>
</g>
<!-- Node2&#45;&gt;Node3 -->
<g id="edge2_Node000002_Node000003" class="edge">
<title>Node2&#45;&gt;Node3</title>
<g id="a_edge2_Node000002_Node000003"><a xlink:title=" ">
<path fill="none" stroke="#63b8ff" d="M296,-194.72C320.23,-203.46 355.96,-216.35 385.75,-227.1"/>
<polygon fill="#63b8ff" stroke="#63b8ff" points="384.41,-230.34 395,-230.44 386.78,-223.75 384.41,-230.34"/>
</a>
</g>
</g>
<!-- Node5 -->
<g id="Node000005" class="node">
<title>Node5</title>
<g id="a_Node000005"><a xlink:href="../../d2/d1e/_basic___files_2_utility___files_8cpp_aa047730c4b45792e657f98e973a2695f.html#aa047730c4b45792e657f98e973a2695f" target="_top" xlink:title=" ">
<polygon fill="white" stroke="#666666" points="470.25,-213.25 411.5,-213.25 411.5,-194 470.25,-194 470.25,-213.25"/>
<text text-anchor="middle" x="440.88" y="-199.75" font-family="Helvetica,sans-Serif" font-size="10.00">Maximum</text>
</a>
</g>
</g>
<!-- Node2&#45;&gt;Node5 -->
<g id="edge4_Node000002_Node000005" class="edge">
<title>Node2&#45;&gt;Node5</title>
<g id="a_edge4_Node000002_Node000005"><a xlink:title=" ">
<path fill="none" stroke="#63b8ff" d="M339.89,-192.57C360.32,-194.83 381.84,-197.21 399.65,-199.18"/>
<polygon fill="#63b8ff" stroke="#63b8ff" points="399.23,-202.65 409.55,-200.27 400,-195.7 399.23,-202.65"/>
</a>
</g>
</g>
<!-- Node6 -->
<g id="Node000006" class="node">
<title>Node6</title>
<g id="a_Node000006"><a xlink:href="../../d8/df4/_w_e_n_o2_d_8cpp_a9ad30d54bcfdc4e146d0dff2d3c22cdb.html#a9ad30d54bcfdc4e146d0dff2d3c22cdb" target="_top" xlink:title=" ">
<polygon fill="white" stroke="#666666" points="506.25,-176.25 375.5,-176.25 375.5,-157 506.25,-157 506.25,-176.25"/>
<text text-anchor="middle" x="440.88" y="-162.75" font-family="Helvetica,sans-Serif" font-size="10.00">WENO_Reconstruction_X</text>
</a>
</g>
</g>
<!-- Node2&#45;&gt;Node6 -->
<g id="edge5_Node000002_Node000006" class="edge">
<title>Node2&#45;&gt;Node6</title>
<g id="a_edge5_Node000002_Node000006"><a xlink:title=" ">
<path fill="none" stroke="#63b8ff" d="M339.89,-177.1C347.84,-176.26 355.94,-175.42 363.93,-174.58"/>
<polygon fill="#63b8ff" stroke="#63b8ff" points="364.03,-178.09 373.61,-173.56 363.3,-171.13 364.03,-178.09"/>
</a>
</g>
</g>
<!-- Node4 -->
<g id="Node000004" class="node">
<title>Node4</title>
<g id="a_Node000004"><a xlink:href="../../df/d43/_basic___functions_8cpp_ae9dc3225863fb110155bb3e9dea4e4d3.html#ae9dc3225863fb110155bb3e9dea4e4d3" target="_top" xlink:title=" ">
<polygon fill="white" stroke="#666666" points="627.25,-256.25 570.75,-256.25 570.75,-237 627.25,-237 627.25,-256.25"/>
<text text-anchor="middle" x="599" y="-242.75" font-family="Helvetica,sans-Serif" font-size="10.00">Viscosity</text>
</a>
</g>
</g>
<!-- Node3&#45;&gt;Node4 -->
<g id="edge3_Node000003_Node000004" class="edge">
<title>Node3&#45;&gt;Node4</title>
<g id="a_edge3_Node000003_Node000004"><a xlink:title=" ">
<path fill="none" stroke="#63b8ff" d="M491.7,-246.62C513.49,-246.62 538.66,-246.62 559.04,-246.62"/>
<polygon fill="#63b8ff" stroke="#63b8ff" points="558.91,-250.13 568.91,-246.63 558.91,-243.13 558.91,-250.13"/>
</a>
</g>
</g>
<!-- Node7 -->
<g id="Node000007" class="node">
<title>Node7</title>
<g id="a_Node000007"><a xlink:href="../../d8/df4/_w_e_n_o2_d_8cpp_a41800d52b7dfe3e64e37ea4c0abae5bb.html#a41800d52b7dfe3e64e37ea4c0abae5bb" target="_top" xlink:title=" ">
<polygon fill="white" stroke="#666666" points="655.75,-180.25 542.25,-180.25 542.25,-161 655.75,-161 655.75,-180.25"/>
<text text-anchor="middle" x="599" y="-166.75" font-family="Helvetica,sans-Serif" font-size="10.00">Get_Reconstructed_U</text>
</a>
</g>
</g>
<!-- Node6&#45;&gt;Node7 -->
<g id="edge6_Node000006_Node000007" class="edge">
<title>Node6&#45;&gt;Node7</title>
<g id="a_edge6_Node000006_Node000007"><a xlink:title=" ">
<path fill="none" stroke="#63b8ff" d="M506.73,-168.29C514.61,-168.49 522.68,-168.7 530.59,-168.9"/>
<polygon fill="#63b8ff" stroke="#63b8ff" points="530.45,-172.4 540.53,-169.15 530.63,-165.4 530.45,-172.4"/>
</a>
</g>
</g>
<!-- Node8 -->
<g id="Node000008" class="node">
<title>Node8</title>
<g id="a_Node000008"><a xlink:href="../../df/d43/_basic___functions_8cpp_a9ca12fb8f920cab38313323cf0c4bf53.html#a9ca12fb8f920cab38313323cf0c4bf53" target="_top" xlink:title=" ">
<polygon fill="white" stroke="#666666" points="817.25,-246.88 691.75,-246.88 691.75,-216.38 817.25,-216.38 817.25,-246.88"/>
<text text-anchor="start" x="699.75" y="-233.38" font-family="Helvetica,sans-Serif" font-size="10.00">Calculate_Computational</text>
<text text-anchor="middle" x="754.5" y="-222.12" font-family="Helvetica,sans-Serif" font-size="10.00">_Variables</text>
</a>
</g>
</g>
<!-- Node7&#45;&gt;Node8 -->
<g id="edge7_Node000007_Node000008" class="edge">
<title>Node7&#45;&gt;Node8</title>
<g id="a_edge7_Node000007_Node000008"><a xlink:title=" ">
<path fill="none" stroke="#63b8ff" d="M624.5,-180.6C642.96,-188.1 668.91,-198.58 691.75,-207.62 695.17,-208.98 698.7,-210.37 702.26,-211.77"/>
<polygon fill="#63b8ff" stroke="#63b8ff" points="700.95,-215.01 711.54,-215.4 703.5,-208.49 700.95,-215.01"/>
</a>
</g>
</g>
<!-- Node9 -->
<g id="Node000009" class="node">
<title>Node9</title>
<g id="a_Node000009"><a xlink:href="../../d8/df4/_w_e_n_o2_d_8cpp_aa7f9c038358ea3a8da0d6b64375a017d.html#aa7f9c038358ea3a8da0d6b64375a017d" target="_top" xlink:title=" ">
<polygon fill="white" stroke="#666666" points="779.38,-198.25 729.62,-198.25 729.62,-179 779.38,-179 779.38,-198.25"/>
<text text-anchor="middle" x="754.5" y="-184.75" font-family="Helvetica,sans-Serif" font-size="10.00">Get_LR</text>
</a>
</g>
</g>
<!-- Node7&#45;&gt;Node9 -->
<g id="edge8_Node000007_Node000009" class="edge">
<title>Node7&#45;&gt;Node9</title>
<g id="a_edge8_Node000007_Node000009"><a xlink:title=" ">
<path fill="none" stroke="#63b8ff" d="M655.85,-177.17C676.52,-179.6 699.39,-182.28 717.79,-184.44"/>
<polygon fill="#63b8ff" stroke="#63b8ff" points="717.33,-187.91 727.67,-185.6 718.15,-180.96 717.33,-187.91"/>
</a>
</g>
</g>
<!-- Node10 -->
<g id="Node000010" class="node">
<title>Node10</title>
<g id="a_Node000010"><a xlink:href="../../d8/df4/_w_e_n_o2_d_8cpp_a3c4047d6325a39e8fccf21bc4ded25ce.html#a3c4047d6325a39e8fccf21bc4ded25ce" target="_top" xlink:title=" ">
<polygon fill="white" stroke="#666666" points="787.25,-161.25 721.75,-161.25 721.75,-142 787.25,-142 787.25,-161.25"/>
<text text-anchor="middle" x="754.5" y="-147.75" font-family="Helvetica,sans-Serif" font-size="10.00">MatVecMul</text>
</a>
</g>
</g>
<!-- Node7&#45;&gt;Node10 -->
<g id="edge9_Node000007_Node000010" class="edge">
<title>Node7&#45;&gt;Node10</title>
<g id="a_edge9_Node000007_Node000010"><a xlink:title=" ">
<path fill="none" stroke="#63b8ff" d="M655.85,-163.71C673.82,-161.49 693.44,-159.06 710.36,-156.97"/>
<polygon fill="#63b8ff" stroke="#63b8ff" points="710.58,-160.46 720.07,-155.76 709.72,-153.52 710.58,-160.46"/>
</a>
</g>
</g>
<!-- Node11 -->
<g id="Node000011" class="node">
<title>Node11</title>
<g id="a_Node000011"><a xlink:href="../../d8/df4/_w_e_n_o2_d_8cpp_a95c88b19ac9f25947b58f960364ce579.html#a95c88b19ac9f25947b58f960364ce579" target="_top" xlink:title=" ">
<polygon fill="white" stroke="#666666" points="813.88,-124.25 695.12,-124.25 695.12,-105 813.88,-105 813.88,-124.25"/>
<text text-anchor="middle" x="754.5" y="-110.75" font-family="Helvetica,sans-Serif" font-size="10.00">WENO_Reconstruction</text>
</a>
</g>
</g>
<!-- Node7&#45;&gt;Node11 -->
<g id="edge10_Node000007_Node000011" class="edge">
<title>Node7&#45;&gt;Node11</title>
<g id="a_edge10_Node000007_Node000011"><a xlink:title=" ">
<path fill="none" stroke="#63b8ff" d="M634.89,-160.52C641.89,-158.17 649.13,-155.5 655.75,-152.62 672.54,-145.33 674.86,-139.67 691.75,-132.62 695.53,-131.05 699.49,-129.55 703.51,-128.15"/>
<polygon fill="#63b8ff" stroke="#63b8ff" points="704.32,-131.57 712.73,-125.13 702.14,-124.92 704.32,-131.57"/>
</a>
</g>
</g>
<!-- Node13 -->
<g id="Node000013" class="node">
<title>Node13</title>
<g id="a_Node000013"><a xlink:href="../../de/df0/_solver_8cpp_a47640e22da2b590d3d2ddce8b175467c.html#a47640e22da2b590d3d2ddce8b175467c" target="_top" xlink:title=" ">
<polygon fill="white" stroke="#666666" points="492,-130.25 389.75,-130.25 389.75,-111 492,-111 492,-130.25"/>
<text text-anchor="middle" x="440.88" y="-116.75" font-family="Helvetica,sans-Serif" font-size="10.00">Inviscid_Time_Step</text>
</a>
</g>
</g>
<!-- Node12&#45;&gt;Node13 -->
<g id="edge12_Node000012_Node000013" class="edge">
<title>Node12&#45;&gt;Node13</title>
<g id="a_edge12_Node000012_Node000013"><a xlink:title=" ">
<path fill="none" stroke="#63b8ff" d="M314.97,-93.74C335.62,-98.18 360.08,-103.45 381.86,-108.14"/>
<polygon fill="#63b8ff" stroke="#63b8ff" points="380.97,-111.53 391.49,-110.21 382.45,-104.68 380.97,-111.53"/>
</a>
</g>
</g>
<!-- Node15 -->
<g id="Node000015" class="node">
<title>Node15</title>
<g id="a_Node000015"><a xlink:href="../../de/df0/_solver_8cpp_a36c2de590bd3f96d1bda12574ab41343.html#a36c2de590bd3f96d1bda12574ab41343" target="_top" xlink:title=" ">
<polygon fill="white" stroke="#666666" points="498,-93.25 383.75,-93.25 383.75,-74 498,-74 498,-93.25"/>
<text text-anchor="middle" x="440.88" y="-79.75" font-family="Helvetica,sans-Serif" font-size="10.00">Viscous_Time_Step_1</text>
</a>
</g>
</g>
<!-- Node12&#45;&gt;Node15 -->
<g id="edge15_Node000012_Node000015" class="edge">
<title>Node12&#45;&gt;Node15</title>
<g id="a_edge15_Node000012_Node000015"><a xlink:title=" ">
<path fill="none" stroke="#63b8ff" d="M320.5,-83.62C336.86,-83.62 355.13,-83.62 372.37,-83.62"/>
<polygon fill="#63b8ff" stroke="#63b8ff" points="372,-87.13 382,-83.63 372,-80.13 372,-87.13"/>
</a>
</g>
</g>
<!-- Node17 -->
<g id="Node000017" class="node">
<title>Node17</title>
<g id="a_Node000017"><a xlink:href="../../de/df0/_solver_8cpp_aae9689c4164406f72554331b4c337962.html#aae9689c4164406f72554331b4c337962" target="_top" xlink:title=" ">
<polygon fill="white" stroke="#666666" points="498,-56.25 383.75,-56.25 383.75,-37 498,-37 498,-56.25"/>
<text text-anchor="middle" x="440.88" y="-42.75" font-family="Helvetica,sans-Serif" font-size="10.00">Viscous_Time_Step_2</text>
</a>
</g>
</g>
<!-- Node12&#45;&gt;Node17 -->
<g id="edge17_Node000012_Node000017" class="edge">
<title>Node12&#45;&gt;Node17</title>
<g id="a_edge17_Node000012_Node000017"><a xlink:title=" ">
<path fill="none" stroke="#63b8ff" d="M314.97,-73.51C335.62,-69.07 360.08,-63.8 381.86,-59.11"/>
<polygon fill="#63b8ff" stroke="#63b8ff" points="382.45,-62.57 391.49,-57.04 380.97,-55.72 382.45,-62.57"/>
</a>
</g>
</g>
<!-- Node18 -->
<g id="Node000018" class="node">
<title>Node18</title>
<g id="a_Node000018"><a xlink:href="../../de/df0/_solver_8cpp_ae5382f866df266ef31ad0bc1440ccadc.html#ae5382f866df266ef31ad0bc1440ccadc" target="_top" xlink:title=" ">
<polygon fill="white" stroke="#666666" points="498,-19.25 383.75,-19.25 383.75,0 498,0 498,-19.25"/>
<text text-anchor="middle" x="440.88" y="-5.75" font-family="Helvetica,sans-Serif" font-size="10.00">Viscous_Time_Step_3</text>
</a>
</g>
</g>
<!-- Node12&#45;&gt;Node18 -->
<g id="edge19_Node000012_Node000018" class="edge">
<title>Node12&#45;&gt;Node18</title>
<g id="a_edge19_Node000012_Node000018"><a xlink:title=" ">
<path fill="none" stroke="#63b8ff" d="M284.62,-73.58C305.31,-61.4 342.04,-40.85 375.5,-27.62 379.57,-26.02 383.84,-24.49 388.16,-23.06"/>
<polygon fill="#63b8ff" stroke="#63b8ff" points="388.98,-26.47 397.48,-20.15 386.9,-19.79 388.98,-26.47"/>
</a>
</g>
</g>
<!-- Node14 -->
<g id="Node000014" class="node">
<title>Node14</title>
<g id="a_Node000014"><a xlink:href="../../d8/d40/_grid___computations_8cpp_a079a3910785ad86cffe119a8e3d6a0d4.html#a079a3910785ad86cffe119a8e3d6a0d4" target="_top" xlink:title=" ">
<polygon fill="white" stroke="#666666" points="617.12,-125.25 580.88,-125.25 580.88,-106 617.12,-106 617.12,-125.25"/>
<text text-anchor="middle" x="599" y="-111.75" font-family="Helvetica,sans-Serif" font-size="10.00">Print</text>
</a>
</g>
</g>
<!-- Node13&#45;&gt;Node14 -->
<g id="edge13_Node000013_Node000014" class="edge">
<title>Node13&#45;&gt;Node14</title>
<g id="a_edge13_Node000013_Node000014"><a xlink:title=" ">
<path fill="none" stroke="#63b8ff" d="M492.13,-119.02C517.59,-118.2 547.58,-117.24 569.13,-116.55"/>
<polygon fill="#63b8ff" stroke="#63b8ff" points="569.05,-120.05 578.93,-116.24 568.83,-113.06 569.05,-120.05"/>
</a>
</g>
</g>
<!-- Node14&#45;&gt;Node14 -->
<g id="edge14_Node000014_Node000014" class="edge">
<title>Node14&#45;&gt;Node14</title>
<g id="a_edge14_Node000014_Node000014"><a xlink:title=" ">
<path fill="none" stroke="#63b8ff" d="M580.39,-122.01C561.67,-131.44 567.87,-143.25 599,-143.25 622.83,-143.25 632.06,-136.33 626.66,-128.85"/>
<polygon fill="#63b8ff" stroke="#63b8ff" points="628.9,-126.15 618.81,-122.92 624.68,-131.74 628.9,-126.15"/>
</a>
</g>
</g>
<!-- Node16 -->
<g id="Node000016" class="node">
<title>Node16</title>
<g id="a_Node000016"><a xlink:href="../../dd/d6e/_source_8cpp_ad1286ce446bd24bcbdfecfe85808c943.html#ad1286ce446bd24bcbdfecfe85808c943" target="_top" xlink:title=" ">
<polygon fill="white" stroke="#666666" points="616.38,-79.25 581.62,-79.25 581.62,-60 616.38,-60 616.38,-79.25"/>
<text text-anchor="middle" x="599" y="-65.75" font-family="Helvetica,sans-Serif" font-size="10.00">max</text>
</a>
</g>
</g>
<!-- Node15&#45;&gt;Node16 -->
<g id="edge16_Node000015_Node000016" class="edge">
<title>Node15&#45;&gt;Node16</title>
<g id="a_edge16_Node000015_Node000016"><a xlink:title=" ">
<path fill="none" stroke="#63b8ff" d="M498.24,-78.57C522.54,-76.39 549.89,-73.94 569.8,-72.15"/>
<polygon fill="#63b8ff" stroke="#63b8ff" points="569.99,-75.65 579.64,-71.27 569.36,-68.68 569.99,-75.65"/>
</a>
</g>
</g>
<!-- Node17&#45;&gt;Node16 -->
<g id="edge18_Node000017_Node000016" class="edge">
<title>Node17&#45;&gt;Node16</title>
<g id="a_edge18_Node000017_Node000016"><a xlink:title=" ">
<path fill="none" stroke="#63b8ff" d="M498.24,-54.93C522.54,-58.51 549.89,-62.54 569.8,-65.47"/>
<polygon fill="#63b8ff" stroke="#63b8ff" points="569.24,-68.93 579.65,-66.92 570.26,-62 569.24,-68.93"/>
</a>
</g>
</g>
</g>
</svg>
