<?xml version="1.0" encoding="UTF-8" standalone="no"?>
<!DOCTYPE svg PUBLIC "-//W3C//DTD SVG 1.1//EN"
 "http://www.w3.org/Graphics/SVG/1.1/DTD/svg11.dtd">
<!-- Generated by graphviz version 12.2.1 (20241206.2353)
 -->
<!-- Title: Incompressible_Solver/Grid_Cylinder.cpp Pages: 1 -->
<svg width="250pt" height="94pt"
 viewBox="0.00 0.00 250.25 93.75" xmlns="http://www.w3.org/2000/svg" xmlns:xlink="http://www.w3.org/1999/xlink">
<g id="graph0" class="graph" transform="scale(1 1) rotate(0) translate(4 89.75)">
<title>Incompressible_Solver/Grid_Cylinder.cpp</title>
<!-- Node1 -->
<g id="Node000001" class="node">
<title>Node1</title>
<g id="a_Node000001"><a xlink:title=" ">
<polygon fill="#999999" stroke="#666666" points="180.25,-85.75 65.25,-85.75 65.25,-55.25 180.25,-55.25 180.25,-85.75"/>
<text text-anchor="start" x="73.25" y="-72.25" font-family="Helvetica,sans-Serif" font-size="10.00">Incompressible_Solver</text>
<text text-anchor="middle" x="122.75" y="-61" font-family="Helvetica,sans-Serif" font-size="10.00">/Grid_Cylinder.cpp</text>
</a>
</g>
</g>
<!-- Node2 -->
<g id="Node000002" class="node">
<title>Node2</title>
<g id="a_Node000002"><a xlink:title=" ">
<polygon fill="#e0e0e0" stroke="#999999" points="53.5,-19.25 0,-19.25 0,0 53.5,0 53.5,-19.25"/>
<text text-anchor="middle" x="26.75" y="-5.75" font-family="Helvetica,sans-Serif" font-size="10.00">iostream</text>
</a>
</g>
</g>
<!-- Node1&#45;&gt;Node2 -->
<g id="edge1_Node000001_Node000002" class="edge">
<title>Node1&#45;&gt;Node2</title>
<g id="a_edge1_Node000001_Node000002"><a xlink:title=" ">
<path fill="none" stroke="#63b8ff" d="M99.02,-54.95C84.4,-45.98 65.71,-34.52 51,-25.5"/>
<polygon fill="#63b8ff" stroke="#63b8ff" points="53.19,-22.74 42.84,-20.49 49.53,-28.7 53.19,-22.74"/>
</a>
</g>
</g>
<!-- Node3 -->
<g id="Node000003" class="node">
<title>Node3</title>
<g id="a_Node000003"><a xlink:title=" ">
<polygon fill="#e0e0e0" stroke="#999999" points="114.25,-19.25 71.25,-19.25 71.25,0 114.25,0 114.25,-19.25"/>
<text text-anchor="middle" x="92.75" y="-5.75" font-family="Helvetica,sans-Serif" font-size="10.00">vector</text>
</a>
</g>
</g>
<!-- Node1&#45;&gt;Node3 -->
<g id="edge2_Node000001_Node000003" class="edge">
<title>Node1&#45;&gt;Node3</title>
<g id="a_edge2_Node000001_Node000003"><a xlink:title=" ">
<path fill="none" stroke="#63b8ff" d="M115.33,-54.95C111.47,-47.36 106.69,-37.99 102.53,-29.82"/>
<polygon fill="#63b8ff" stroke="#63b8ff" points="105.72,-28.37 98.06,-21.05 99.48,-31.55 105.72,-28.37"/>
</a>
</g>
</g>
<!-- Node4 -->
<g id="Node000004" class="node">
<title>Node4</title>
<g id="a_Node000004"><a xlink:title=" ">
<polygon fill="#e0e0e0" stroke="#999999" points="175.25,-19.25 132.25,-19.25 132.25,0 175.25,0 175.25,-19.25"/>
<text text-anchor="middle" x="153.75" y="-5.75" font-family="Helvetica,sans-Serif" font-size="10.00">cmath</text>
</a>
</g>
</g>
<!-- Node1&#45;&gt;Node4 -->
<g id="edge3_Node000001_Node000004" class="edge">
<title>Node1&#45;&gt;Node4</title>
<g id="a_edge3_Node000001_Node000004"><a xlink:title=" ">
<path fill="none" stroke="#63b8ff" d="M130.41,-54.95C134.41,-47.36 139.34,-37.99 143.64,-29.82"/>
<polygon fill="#63b8ff" stroke="#63b8ff" points="146.7,-31.52 148.27,-21.04 140.51,-28.26 146.7,-31.52"/>
</a>
</g>
</g>
<!-- Node5 -->
<g id="Node000005" class="node">
<title>Node5</title>
<g id="a_Node000005"><a xlink:title=" ">
<polygon fill="#e0e0e0" stroke="#999999" points="242.25,-19.25 193.25,-19.25 193.25,0 242.25,0 242.25,-19.25"/>
<text text-anchor="middle" x="217.75" y="-5.75" font-family="Helvetica,sans-Serif" font-size="10.00">fstream</text>
</a>
</g>
</g>
<!-- Node1&#45;&gt;Node5 -->
<g id="edge4_Node000001_Node000005" class="edge">
<title>Node1&#45;&gt;Node5</title>
<g id="a_edge4_Node000001_Node000005"><a xlink:title=" ">
<path fill="none" stroke="#63b8ff" d="M146.23,-54.95C160.56,-46.07 178.84,-34.74 193.33,-25.76"/>
<polygon fill="#63b8ff" stroke="#63b8ff" points="195.16,-28.74 201.82,-20.5 191.47,-22.79 195.16,-28.74"/>
</a>
</g>
</g>
</g>
</svg>
