<?xml version="1.0" encoding="UTF-8" standalone="no"?>
<!DOCTYPE svg PUBLIC "-//W3C//DTD SVG 1.1//EN"
 "http://www.w3.org/Graphics/SVG/1.1/DTD/svg11.dtd">
<!-- Generated by graphviz version 12.2.1 (20241206.2353)
 -->
<!-- Title: Slip_Flow_2D Pages: 1 -->
<svg width="646pt" height="386pt"
 viewBox="0.00 0.00 646.45 386.25" xmlns="http://www.w3.org/2000/svg" xmlns:xlink="http://www.w3.org/1999/xlink">
<g id="graph0" class="graph" transform="scale(1 1) rotate(0) translate(4 382.25)">
<title>Slip_Flow_2D</title>
<!-- Node1 -->
<g id="Node000001" class="node">
<title>Node1</title>
<g id="a_Node000001"><a xlink:title=" ">
<polygon fill="#999999" stroke="#666666" points="76.75,-187.25 0,-187.25 0,-168 76.75,-168 76.75,-187.25"/>
<text text-anchor="middle" x="38.38" y="-173.75" font-family="Helvetica,sans-Serif" font-size="10.00">Slip_Flow_2D</text>
</a>
</g>
</g>
<!-- Node2 -->
<g id="Node000002" class="node">
<title>Node2</title>
<g id="a_Node000002"><a xlink:href="../../dd/d2a/_create___vtk___file_8cpp_a5f72d40235b74b1915174a52190c33c1.html#a5f72d40235b74b1915174a52190c33c1" target="_top" xlink:title=" ">
<polygon fill="white" stroke="#666666" points="220.25,-378.25 130.75,-378.25 130.75,-359 220.25,-359 220.25,-378.25"/>
<text text-anchor="middle" x="175.5" y="-364.75" font-family="Helvetica,sans-Serif" font-size="10.00">Append_Solution</text>
</a>
</g>
</g>
<!-- Node1&#45;&gt;Node2 -->
<g id="edge1_Node000001_Node000002" class="edge">
<title>Node1&#45;&gt;Node2</title>
<g id="a_edge1_Node000001_Node000002"><a xlink:title=" ">
<path fill="none" stroke="#63b8ff" d="M40.66,-187.45C45.01,-216.66 61.84,-303.79 112.75,-349.62 115.05,-351.7 117.58,-353.55 120.25,-355.19"/>
<polygon fill="#63b8ff" stroke="#63b8ff" points="118.59,-358.27 129.1,-359.64 121.73,-352.02 118.59,-358.27"/>
</a>
</g>
</g>
<!-- Node3 -->
<g id="Node000003" class="node">
<title>Node3</title>
<g id="a_Node000003"><a xlink:href="../../df/d43/_basic___functions_8cpp_a9ca12fb8f920cab38313323cf0c4bf53.html#a9ca12fb8f920cab38313323cf0c4bf53" target="_top" xlink:title=" ">
<polygon fill="white" stroke="#666666" points="238.25,-340.88 112.75,-340.88 112.75,-310.38 238.25,-310.38 238.25,-340.88"/>
<text text-anchor="start" x="120.75" y="-327.38" font-family="Helvetica,sans-Serif" font-size="10.00">Calculate_Computational</text>
<text text-anchor="middle" x="175.5" y="-316.12" font-family="Helvetica,sans-Serif" font-size="10.00">_Variables</text>
</a>
</g>
</g>
<!-- Node1&#45;&gt;Node3 -->
<g id="edge2_Node000001_Node000003" class="edge">
<title>Node1&#45;&gt;Node3</title>
<g id="a_edge2_Node000001_Node000003"><a xlink:title=" ">
<path fill="none" stroke="#63b8ff" d="M42.83,-187.71C51.21,-210.82 74.81,-268.09 112.75,-300.62 114.04,-301.73 115.38,-302.79 116.77,-303.81"/>
<polygon fill="#63b8ff" stroke="#63b8ff" points="114.87,-306.75 125.2,-309.11 118.6,-300.82 114.87,-306.75"/>
</a>
</g>
</g>
<!-- Node4 -->
<g id="Node000004" class="node">
<title>Node4</title>
<g id="a_Node000004"><a xlink:href="../../df/d43/_basic___functions_8cpp_a1c199e756f8458978961b4d9ab4cbe63.html#a1c199e756f8458978961b4d9ab4cbe63" target="_top" xlink:title=" ">
<polygon fill="white" stroke="#666666" points="225.88,-291.88 125.12,-291.88 125.12,-261.38 225.88,-261.38 225.88,-291.88"/>
<text text-anchor="start" x="133.12" y="-278.38" font-family="Helvetica,sans-Serif" font-size="10.00">Calculate_Primitive</text>
<text text-anchor="middle" x="175.5" y="-267.12" font-family="Helvetica,sans-Serif" font-size="10.00">_Variables</text>
</a>
</g>
</g>
<!-- Node1&#45;&gt;Node4 -->
<g id="edge3_Node000001_Node000004" class="edge">
<title>Node1&#45;&gt;Node4</title>
<g id="a_edge3_Node000001_Node000004"><a xlink:title=" ">
<path fill="none" stroke="#63b8ff" d="M46.88,-187.7C59.11,-203.49 84.78,-234.16 112.75,-252.62 114.37,-253.69 116.04,-254.72 117.75,-255.72"/>
<polygon fill="#63b8ff" stroke="#63b8ff" points="116.07,-258.79 126.55,-260.32 119.31,-252.58 116.07,-258.79"/>
</a>
</g>
</g>
<!-- Node6 -->
<g id="Node000006" class="node">
<title>Node6</title>
<g id="a_Node000006"><a xlink:href="../../da/d3e/output__files_8cpp_ac7e61b153a6d26ffbefde7b5b86d55a7.html#ac7e61b153a6d26ffbefde7b5b86d55a7" target="_top" xlink:title=" ">
<polygon fill="white" stroke="#666666" points="219.12,-243.25 131.88,-243.25 131.88,-224 219.12,-224 219.12,-243.25"/>
<text text-anchor="middle" x="175.5" y="-229.75" font-family="Helvetica,sans-Serif" font-size="10.00">Directory_Name</text>
</a>
</g>
</g>
<!-- Node1&#45;&gt;Node6 -->
<g id="edge5_Node000001_Node000006" class="edge">
<title>Node1&#45;&gt;Node6</title>
<g id="a_edge5_Node000001_Node000006"><a xlink:title=" ">
<path fill="none" stroke="#63b8ff" d="M56.42,-187.66C71.01,-195.96 92.77,-207.63 112.75,-215.62 116.61,-217.17 120.64,-218.64 124.73,-220.04"/>
<polygon fill="#63b8ff" stroke="#63b8ff" points="123.54,-223.33 134.13,-223.06 125.68,-216.67 123.54,-223.33"/>
</a>
</g>
</g>
<!-- Node7 -->
<g id="Node000007" class="node">
<title>Node7</title>
<g id="a_Node000007"><a xlink:href="../../da/d3e/output__files_8cpp_a2a6bf38afe949ce5a6cd1b3641c49c25.html#a2a6bf38afe949ce5a6cd1b3641c49c25" target="_top" xlink:title=" ">
<polygon fill="white" stroke="#666666" points="207.12,-206.25 143.88,-206.25 143.88,-187 207.12,-187 207.12,-206.25"/>
<text text-anchor="middle" x="175.5" y="-192.75" font-family="Helvetica,sans-Serif" font-size="10.00">File_Name</text>
</a>
</g>
</g>
<!-- Node1&#45;&gt;Node7 -->
<g id="edge6_Node000001_Node000007" class="edge">
<title>Node1&#45;&gt;Node7</title>
<g id="a_edge6_Node000001_Node000007"><a xlink:title=" ">
<path fill="none" stroke="#63b8ff" d="M77.01,-182.92C94.18,-185.33 114.58,-188.2 132.27,-190.69"/>
<polygon fill="#63b8ff" stroke="#63b8ff" points="131.55,-194.12 141.94,-192.05 132.53,-187.19 131.55,-194.12"/>
</a>
</g>
</g>
<!-- Node8 -->
<g id="Node000008" class="node">
<title>Node8</title>
<g id="a_Node000008"><a xlink:href="../../d8/d40/_grid___computations_8cpp_a831dcf7cbf36ddf425ce0753495ba3c6.html#a831dcf7cbf36ddf425ce0753495ba3c6" target="_top" xlink:title=" ">
<polygon fill="white" stroke="#666666" points="208.62,-169.25 142.38,-169.25 142.38,-150 208.62,-150 208.62,-169.25"/>
<text text-anchor="middle" x="175.5" y="-155.75" font-family="Helvetica,sans-Serif" font-size="10.00">Form_Cells</text>
</a>
</g>
</g>
<!-- Node1&#45;&gt;Node8 -->
<g id="edge7_Node000001_Node000008" class="edge">
<title>Node1&#45;&gt;Node8</title>
<g id="a_edge7_Node000001_Node000008"><a xlink:title=" ">
<path fill="none" stroke="#63b8ff" d="M77.01,-172.61C93.8,-170.38 113.67,-167.73 131.08,-165.41"/>
<polygon fill="#63b8ff" stroke="#63b8ff" points="131.15,-168.93 140.6,-164.14 130.23,-161.99 131.15,-168.93"/>
</a>
</g>
</g>
<!-- Node20 -->
<g id="Node000020" class="node">
<title>Node20</title>
<g id="a_Node000020"><a xlink:href="../../d7/d6d/_initialize_8cpp_ad59ff1b23c73f6427e8179ce53ee1f59.html#ad59ff1b23c73f6427e8179ce53ee1f59" target="_top" xlink:title=" ">
<polygon fill="white" stroke="#666666" points="394.12,-82.88 275.38,-82.88 275.38,-52.38 394.12,-52.38 394.12,-82.88"/>
<text text-anchor="start" x="283.38" y="-69.38" font-family="Helvetica,sans-Serif" font-size="10.00">Identify_Wall_Boundary</text>
<text text-anchor="middle" x="334.75" y="-58.12" font-family="Helvetica,sans-Serif" font-size="10.00">_Faces</text>
</a>
</g>
</g>
<!-- Node1&#45;&gt;Node20 -->
<g id="edge22_Node000001_Node000020" class="edge">
<title>Node1&#45;&gt;Node20</title>
<g id="a_edge22_Node000001_Node000020"><a xlink:title=" ">
<path fill="none" stroke="#63b8ff" d="M57.07,-167.61C71.68,-159.61 93.15,-148.47 112.75,-140.62 166.86,-118.98 182.98,-121.1 238.25,-102.62 252.53,-97.85 267.89,-92.37 282.03,-87.19"/>
<polygon fill="#63b8ff" stroke="#63b8ff" points="282.98,-90.57 291.15,-83.83 280.55,-84.01 282.98,-90.57"/>
</a>
</g>
</g>
<!-- Node21 -->
<g id="Node000021" class="node">
<title>Node21</title>
<g id="a_Node000021"><a xlink:href="../../d7/d6d/_initialize_8cpp_acc3c3292e370176c51c654a01e651e24.html#acc3c3292e370176c51c654a01e651e24" target="_top" xlink:title=" ">
<polygon fill="white" stroke="#666666" points="201.5,-93.25 149.5,-93.25 149.5,-74 201.5,-74 201.5,-93.25"/>
<text text-anchor="middle" x="175.5" y="-79.75" font-family="Helvetica,sans-Serif" font-size="10.00">Initialize</text>
</a>
</g>
</g>
<!-- Node1&#45;&gt;Node21 -->
<g id="edge23_Node000001_Node000021" class="edge">
<title>Node1&#45;&gt;Node21</title>
<g id="a_edge23_Node000001_Node000021"><a xlink:title=" ">
<path fill="none" stroke="#63b8ff" d="M47.45,-167.77C60.03,-152.94 85.71,-124.82 112.75,-107.62 120.6,-102.64 129.65,-98.4 138.36,-94.95"/>
<polygon fill="#63b8ff" stroke="#63b8ff" points="139.51,-98.26 147.68,-91.51 137.08,-91.69 139.51,-98.26"/>
</a>
</g>
</g>
<!-- Node24 -->
<g id="Node000024" class="node">
<title>Node24</title>
<g id="a_Node000024"><a xlink:href="../../dd/d2a/_create___vtk___file_8cpp_a776e082e134ae9fedfaa1bf47149bdc5.html#a776e082e134ae9fedfaa1bf47149bdc5" target="_top" xlink:title="void Write_Solution(const string &amp;);">
<polygon fill="white" stroke="#666666" points="220.62,-56.25 130.38,-56.25 130.38,-37 220.62,-37 220.62,-56.25"/>
<text text-anchor="middle" x="175.5" y="-42.75" font-family="Helvetica,sans-Serif" font-size="10.00">Read_Write_Grid</text>
</a>
</g>
</g>
<!-- Node1&#45;&gt;Node24 -->
<g id="edge27_Node000001_Node000024" class="edge">
<title>Node1&#45;&gt;Node24</title>
<g id="a_edge27_Node000001_Node000024"><a xlink:title=" ">
<path fill="none" stroke="#63b8ff" d="M42.98,-167.78C51.54,-145.81 75.21,-92.54 112.75,-64.62 114.94,-62.99 117.28,-61.51 119.72,-60.16"/>
<polygon fill="#63b8ff" stroke="#63b8ff" points="121.17,-63.35 128.78,-55.97 118.23,-56.99 121.17,-63.35"/>
</a>
</g>
</g>
<!-- Node25 -->
<g id="Node000025" class="node">
<title>Node25</title>
<g id="a_Node000025"><a xlink:href="../../da/d3e/output__files_8cpp_ac49d22b87cab7fa46da37546b7af78b0.html#ac49d22b87cab7fa46da37546b7af78b0" target="_top" xlink:title=" ">
<polygon fill="white" stroke="#666666" points="215,-19.25 136,-19.25 136,0 215,0 215,-19.25"/>
<text text-anchor="middle" x="175.5" y="-5.75" font-family="Helvetica,sans-Serif" font-size="10.00">Write_Solution</text>
</a>
</g>
</g>
<!-- Node1&#45;&gt;Node25 -->
<g id="edge28_Node000001_Node000025" class="edge">
<title>Node1&#45;&gt;Node25</title>
<g id="a_edge28_Node000001_Node000025"><a xlink:title=" ">
<path fill="none" stroke="#63b8ff" d="M41.28,-167.88C47.01,-141.21 66.62,-66.46 112.75,-27.62 116.45,-24.51 120.67,-21.93 125.12,-19.8"/>
<polygon fill="#63b8ff" stroke="#63b8ff" points="126.37,-23.07 134.39,-16.15 123.8,-16.56 126.37,-23.07"/>
</a>
</g>
</g>
<!-- Node5 -->
<g id="Node000005" class="node">
<title>Node5</title>
<g id="a_Node000005"><a xlink:href="../../df/d43/_basic___functions_8cpp_ae9dc3225863fb110155bb3e9dea4e4d3.html#ae9dc3225863fb110155bb3e9dea4e4d3" target="_top" xlink:title=" ">
<polygon fill="white" stroke="#666666" points="363,-318.25 306.5,-318.25 306.5,-299 363,-299 363,-318.25"/>
<text text-anchor="middle" x="334.75" y="-304.75" font-family="Helvetica,sans-Serif" font-size="10.00">Viscosity</text>
</a>
</g>
</g>
<!-- Node4&#45;&gt;Node5 -->
<g id="edge4_Node000004_Node000005" class="edge">
<title>Node4&#45;&gt;Node5</title>
<g id="a_edge4_Node000004_Node000005"><a xlink:title=" ">
<path fill="none" stroke="#63b8ff" d="M226.25,-286.75C248.47,-291.27 274.26,-296.52 295.01,-300.74"/>
<polygon fill="#63b8ff" stroke="#63b8ff" points="294.29,-304.17 304.79,-302.73 295.68,-297.31 294.29,-304.17"/>
</a>
</g>
</g>
<!-- Node9 -->
<g id="Node000009" class="node">
<title>Node9</title>
<g id="a_Node000009"><a xlink:href="../../d8/d40/_grid___computations_8cpp_a7e6f11445e90cefdcb91f369846ec691.html#a7e6f11445e90cefdcb91f369846ec691" target="_top" xlink:title=" ">
<polygon fill="white" stroke="#666666" points="391.88,-131.88 277.62,-131.88 277.62,-101.38 391.88,-101.38 391.88,-131.88"/>
<text text-anchor="start" x="285.62" y="-118.38" font-family="Helvetica,sans-Serif" font-size="10.00">Calculate_Cell_Center</text>
<text text-anchor="middle" x="334.75" y="-107.12" font-family="Helvetica,sans-Serif" font-size="10.00">_Distances</text>
</a>
</g>
</g>
<!-- Node8&#45;&gt;Node9 -->
<g id="edge8_Node000008_Node000009" class="edge">
<title>Node8&#45;&gt;Node9</title>
<g id="a_edge8_Node000008_Node000009"><a xlink:title=" ">
<path fill="none" stroke="#63b8ff" d="M209.08,-150.72C225.71,-146.17 246.57,-140.47 266.44,-135.03"/>
<polygon fill="#63b8ff" stroke="#63b8ff" points="267.17,-138.46 275.89,-132.45 265.32,-131.71 267.17,-138.46"/>
</a>
</g>
</g>
<!-- Node12 -->
<g id="Node000012" class="node">
<title>Node12</title>
<g id="a_Node000012"><a xlink:href="../../d8/d40/_grid___computations_8cpp_a209db16fba143a9833c8d4021624afb0.html#a209db16fba143a9833c8d4021624afb0" target="_top" xlink:title=" ">
<polygon fill="white" stroke="#666666" points="533.12,-169.25 460.88,-169.25 460.88,-150 533.12,-150 533.12,-169.25"/>
<text text-anchor="middle" x="497" y="-155.75" font-family="Helvetica,sans-Serif" font-size="10.00">Check_Cells</text>
</a>
</g>
</g>
<!-- Node8&#45;&gt;Node12 -->
<g id="edge12_Node000008_Node000012" class="edge">
<title>Node8&#45;&gt;Node12</title>
<g id="a_edge12_Node000008_Node000012"><a xlink:title=" ">
<path fill="none" stroke="#63b8ff" d="M208.89,-159.62C265.76,-159.62 383.74,-159.62 449.38,-159.62"/>
<polygon fill="#63b8ff" stroke="#63b8ff" points="449.1,-163.13 459.1,-159.63 449.1,-156.13 449.1,-163.13"/>
</a>
</g>
</g>
<!-- Node13 -->
<g id="Node000013" class="node">
<title>Node13</title>
<g id="a_Node000013"><a xlink:href="../../df/daf/_co___volume___grid___computations_8cpp_a097cceef075e862683dd9f6e95d091d4.html#a097cceef075e862683dd9f6e95d091d4" target="_top" xlink:title=" ">
<polygon fill="white" stroke="#666666" points="394.88,-281.25 274.62,-281.25 274.62,-262 394.88,-262 394.88,-281.25"/>
<text text-anchor="middle" x="334.75" y="-267.75" font-family="Helvetica,sans-Serif" font-size="10.00">Construct_Co_Volumes</text>
</a>
</g>
</g>
<!-- Node8&#45;&gt;Node13 -->
<g id="edge13_Node000008_Node000013" class="edge">
<title>Node8&#45;&gt;Node13</title>
<g id="a_edge13_Node000008_Node000013"><a xlink:title=" ">
<path fill="none" stroke="#63b8ff" d="M208.83,-163.7C219.15,-166.31 230.01,-170.6 238.25,-177.62 266.69,-201.87 245.93,-229.23 274.25,-253.62 275.17,-254.42 276.12,-255.17 277.11,-255.9"/>
<polygon fill="#63b8ff" stroke="#63b8ff" points="274.93,-258.68 285.32,-260.78 278.51,-252.66 274.93,-258.68"/>
</a>
</g>
</g>
<!-- Node16 -->
<g id="Node000016" class="node">
<title>Node16</title>
<g id="a_Node000016"><a xlink:href="../../d8/d40/_grid___computations_8cpp_ae5f2b7a0fdbc48f8fdf897222b7ded04.html#ae5f2b7a0fdbc48f8fdf897222b7ded04" target="_top" xlink:title=" ">
<polygon fill="white" stroke="#666666" points="393.75,-244.25 275.75,-244.25 275.75,-225 393.75,-225 393.75,-244.25"/>
<text text-anchor="middle" x="334.75" y="-230.75" font-family="Helvetica,sans-Serif" font-size="10.00">Construct_Ghost_Cells</text>
</a>
</g>
</g>
<!-- Node8&#45;&gt;Node16 -->
<g id="edge16_Node000008_Node000016" class="edge">
<title>Node8&#45;&gt;Node16</title>
<g id="a_edge16_Node000008_Node000016"><a xlink:title=" ">
<path fill="none" stroke="#63b8ff" d="M208.98,-165.57C218.86,-168.29 229.42,-172.16 238.25,-177.62 258.3,-190.05 254.26,-204.1 274.25,-216.62 276.14,-217.81 278.11,-218.91 280.13,-219.95"/>
<polygon fill="#63b8ff" stroke="#63b8ff" points="278.67,-223.13 289.23,-223.98 281.5,-216.73 278.67,-223.13"/>
</a>
</g>
</g>
<!-- Node18 -->
<g id="Node000018" class="node">
<title>Node18</title>
<g id="a_Node000018"><a xlink:href="../../d8/d40/_grid___computations_8cpp_a663d4b3ae06e638c2f2e82ad437e831e.html#a663d4b3ae06e638c2f2e82ad437e831e" target="_top" xlink:title="Reads the input grid file and constructs physical cells, evaluates face areas, normals,...">
<polygon fill="white" stroke="#666666" points="366,-207.25 303.5,-207.25 303.5,-188 366,-188 366,-207.25"/>
<text text-anchor="middle" x="334.75" y="-193.75" font-family="Helvetica,sans-Serif" font-size="10.00">Read_Grid</text>
</a>
</g>
</g>
<!-- Node8&#45;&gt;Node18 -->
<g id="edge18_Node000008_Node000018" class="edge">
<title>Node8&#45;&gt;Node18</title>
<g id="a_edge18_Node000008_Node000018"><a xlink:title=" ">
<path fill="none" stroke="#63b8ff" d="M209.08,-167.5C233.14,-173.31 266.08,-181.27 292.06,-187.55"/>
<polygon fill="#63b8ff" stroke="#63b8ff" points="291.07,-190.91 301.61,-189.86 292.71,-184.11 291.07,-190.91"/>
</a>
</g>
</g>
<!-- Node10 -->
<g id="Node000010" class="node">
<title>Node10</title>
<g id="a_Node000010"><a xlink:href="../../d8/d40/_grid___computations_8cpp_a1f273579608200866e02e34f16a3eb6b.html#a1f273579608200866e02e34f16a3eb6b" target="_top" xlink:title=" ">
<polygon fill="white" stroke="#666666" points="562.75,-126.25 431.25,-126.25 431.25,-107 562.75,-107 562.75,-126.25"/>
<text text-anchor="middle" x="497" y="-112.75" font-family="Helvetica,sans-Serif" font-size="10.00">Distance_Between_Points</text>
</a>
</g>
</g>
<!-- Node9&#45;&gt;Node10 -->
<g id="edge9_Node000009_Node000010" class="edge">
<title>Node9&#45;&gt;Node10</title>
<g id="a_edge9_Node000009_Node000010"><a xlink:title=" ">
<path fill="none" stroke="#63b8ff" d="M392.25,-116.62C401.15,-116.62 410.49,-116.62 419.75,-116.62"/>
<polygon fill="#63b8ff" stroke="#63b8ff" points="419.47,-120.13 429.47,-116.63 419.47,-113.13 419.47,-120.13"/>
</a>
</g>
</g>
<!-- Node11 -->
<g id="Node000011" class="node">
<title>Node11</title>
<g id="a_Node000011"><a xlink:href="../../d8/d40/_grid___computations_8cpp_a079a3910785ad86cffe119a8e3d6a0d4.html#a079a3910785ad86cffe119a8e3d6a0d4" target="_top" xlink:title=" ">
<polygon fill="white" stroke="#666666" points="635,-126.25 598.75,-126.25 598.75,-107 635,-107 635,-126.25"/>
<text text-anchor="middle" x="616.88" y="-112.75" font-family="Helvetica,sans-Serif" font-size="10.00">Print</text>
</a>
</g>
</g>
<!-- Node10&#45;&gt;Node11 -->
<g id="edge10_Node000010_Node000011" class="edge">
<title>Node10&#45;&gt;Node11</title>
<g id="a_edge10_Node000010_Node000011"><a xlink:title=" ">
<path fill="none" stroke="#63b8ff" d="M563.14,-116.62C571.47,-116.62 579.62,-116.62 586.94,-116.62"/>
<polygon fill="#63b8ff" stroke="#63b8ff" points="586.82,-120.13 596.82,-116.63 586.82,-113.13 586.82,-120.13"/>
</a>
</g>
</g>
<!-- Node11&#45;&gt;Node11 -->
<g id="edge11_Node000011_Node000011" class="edge">
<title>Node11&#45;&gt;Node11</title>
<g id="a_edge11_Node000011_Node000011"><a xlink:title=" ">
<path fill="none" stroke="#63b8ff" d="M598.4,-126.25C589.41,-134.94 595.57,-144.25 616.88,-144.25 628.86,-144.25 636.05,-141.3 638.45,-137.18"/>
<polygon fill="#63b8ff" stroke="#63b8ff" points="641.86,-136.37 635.76,-127.71 635.13,-138.28 641.86,-136.37"/>
</a>
</g>
</g>
<!-- Node14 -->
<g id="Node000014" class="node">
<title>Node14</title>
<g id="a_Node000014"><a xlink:href="../../d8/d40/_grid___computations_8cpp_a0d19b951f556ac7a935819a38d2e1a6f.html#a0d19b951f556ac7a935819a38d2e1a6f" target="_top" xlink:title=" ">
<polygon fill="white" stroke="#666666" points="539.88,-281.25 454.12,-281.25 454.12,-262 539.88,-262 539.88,-281.25"/>
<text text-anchor="middle" x="497" y="-267.75" font-family="Helvetica,sans-Serif" font-size="10.00">Construct_Face</text>
</a>
</g>
</g>
<!-- Node13&#45;&gt;Node14 -->
<g id="edge14_Node000013_Node000014" class="edge">
<title>Node13&#45;&gt;Node14</title>
<g id="a_edge14_Node000013_Node000014"><a xlink:title=" ">
<path fill="none" stroke="#63b8ff" d="M394.97,-271.62C410.6,-271.62 427.37,-271.62 442.67,-271.62"/>
<polygon fill="#63b8ff" stroke="#63b8ff" points="442.52,-275.13 452.52,-271.63 442.52,-268.13 442.52,-275.13"/>
</a>
</g>
</g>
<!-- Node15 -->
<g id="Node000015" class="node">
<title>Node15</title>
<g id="a_Node000015"><a xlink:href="../../d8/d40/_grid___computations_8cpp_a29418163b6fbd0aa81c60026e430d0b8.html#a29418163b6fbd0aa81c60026e430d0b8" target="_top" xlink:title=" ">
<polygon fill="white" stroke="#666666" points="559.38,-318.25 434.62,-318.25 434.62,-299 559.38,-299 559.38,-318.25"/>
<text text-anchor="middle" x="497" y="-304.75" font-family="Helvetica,sans-Serif" font-size="10.00">Evaluate_Cross_Product</text>
</a>
</g>
</g>
<!-- Node13&#45;&gt;Node15 -->
<g id="edge15_Node000013_Node000015" class="edge">
<title>Node13&#45;&gt;Node15</title>
<g id="a_edge15_Node000013_Node000015"><a xlink:title=" ">
<path fill="none" stroke="#63b8ff" d="M379.54,-281.74C398.53,-286.12 420.97,-291.3 441.07,-295.94"/>
<polygon fill="#63b8ff" stroke="#63b8ff" points="440.26,-299.35 450.79,-298.19 441.83,-292.53 440.26,-299.35"/>
</a>
</g>
</g>
<!-- Node17 -->
<g id="Node000017" class="node">
<title>Node17</title>
<g id="a_Node000017"><a xlink:href="../../d8/d40/_grid___computations_8cpp_a2d284e26ddef582519953e8b8300184e.html#a2d284e26ddef582519953e8b8300184e" target="_top" xlink:title=" ">
<polygon fill="white" stroke="#666666" points="537.62,-244.25 456.38,-244.25 456.38,-225 537.62,-225 537.62,-244.25"/>
<text text-anchor="middle" x="497" y="-230.75" font-family="Helvetica,sans-Serif" font-size="10.00">Construct_Cell</text>
</a>
</g>
</g>
<!-- Node16&#45;&gt;Node17 -->
<g id="edge17_Node000016_Node000017" class="edge">
<title>Node16&#45;&gt;Node17</title>
<g id="a_edge17_Node000016_Node000017"><a xlink:title=" ">
<path fill="none" stroke="#63b8ff" d="M394.06,-234.62C410.62,-234.62 428.53,-234.62 444.65,-234.62"/>
<polygon fill="#63b8ff" stroke="#63b8ff" points="444.51,-238.13 454.51,-234.63 444.51,-231.13 444.51,-238.13"/>
</a>
</g>
</g>
<!-- Node18&#45;&gt;Node12 -->
<g id="edge19_Node000018_Node000012" class="edge">
<title>Node18&#45;&gt;Node12</title>
<g id="a_edge19_Node000018_Node000012"><a xlink:title=" ">
<path fill="none" stroke="#63b8ff" d="M366.27,-190.39C389.79,-184.81 422.71,-177 449.5,-170.65"/>
<polygon fill="#63b8ff" stroke="#63b8ff" points="450.17,-174.09 459.09,-168.38 448.56,-167.28 450.17,-174.09"/>
</a>
</g>
</g>
<!-- Node18&#45;&gt;Node17 -->
<g id="edge20_Node000018_Node000017" class="edge">
<title>Node18&#45;&gt;Node17</title>
<g id="a_edge20_Node000018_Node000017"><a xlink:title=" ">
<path fill="none" stroke="#63b8ff" d="M366.27,-204.67C388.42,-209.79 418.91,-216.82 444.76,-222.79"/>
<polygon fill="#63b8ff" stroke="#63b8ff" points="443.89,-226.18 454.42,-225.02 445.46,-219.36 443.89,-226.18"/>
</a>
</g>
</g>
<!-- Node19 -->
<g id="Node000019" class="node">
<title>Node19</title>
<g id="a_Node000019"><a xlink:href="../../d8/d40/_grid___computations_8cpp_aa376223dcb91990013ac6549090115ea.html#aa376223dcb91990013ac6549090115ea" target="_top" xlink:title=" ">
<polygon fill="white" stroke="#666666" points="546.25,-207.25 447.75,-207.25 447.75,-188 546.25,-188 546.25,-207.25"/>
<text text-anchor="middle" x="497" y="-193.75" font-family="Helvetica,sans-Serif" font-size="10.00">Conversion_Factor</text>
</a>
</g>
</g>
<!-- Node18&#45;&gt;Node19 -->
<g id="edge21_Node000018_Node000019" class="edge">
<title>Node18&#45;&gt;Node19</title>
<g id="a_edge21_Node000018_Node000019"><a xlink:title=" ">
<path fill="none" stroke="#63b8ff" d="M366.27,-197.62C385.94,-197.62 412.17,-197.62 435.91,-197.62"/>
<polygon fill="#63b8ff" stroke="#63b8ff" points="435.8,-201.13 445.8,-197.63 435.8,-194.13 435.8,-201.13"/>
</a>
</g>
</g>
<!-- Node21&#45;&gt;Node20 -->
<g id="edge26_Node000021_Node000020" class="edge">
<title>Node21&#45;&gt;Node20</title>
<g id="a_edge26_Node000021_Node000020"><a xlink:title=" ">
<path fill="none" stroke="#63b8ff" d="M201.76,-81.05C218.55,-79.35 241.47,-77.01 263.51,-74.77"/>
<polygon fill="#63b8ff" stroke="#63b8ff" points="263.81,-78.26 273.41,-73.77 263.1,-71.3 263.81,-78.26"/>
</a>
</g>
</g>
<!-- Node22 -->
<g id="Node000022" class="node">
<title>Node22</title>
<g id="a_Node000022"><a xlink:href="../../d4/d5d/_grid___refine___functions_8cpp_add867401ba6818c3d6480ec342cb0eaa.html#add867401ba6818c3d6480ec342cb0eaa" target="_top" xlink:title="Identifies the secondary neighbors of a given cell to evaluate second gradients.">
<polygon fill="white" stroke="#666666" points="395.25,-33.88 274.25,-33.88 274.25,-3.37 395.25,-3.37 395.25,-33.88"/>
<text text-anchor="start" x="282.25" y="-20.38" font-family="Helvetica,sans-Serif" font-size="10.00">Identify_Neighbours</text>
<text text-anchor="middle" x="334.75" y="-9.12" font-family="Helvetica,sans-Serif" font-size="10.00">_For_Second_Gradients</text>
</a>
</g>
</g>
<!-- Node21&#45;&gt;Node22 -->
<g id="edge24_Node000021_Node000022" class="edge">
<title>Node21&#45;&gt;Node22</title>
<g id="a_edge24_Node000021_Node000022"><a xlink:title=" ">
<path fill="none" stroke="#63b8ff" d="M201.97,-77.82C213.32,-74.83 226.71,-70.73 238.25,-65.62 255.4,-58.05 257.56,-52.17 274.25,-43.62 277.29,-42.07 280.46,-40.52 283.67,-39.02"/>
<polygon fill="#63b8ff" stroke="#63b8ff" points="284.95,-42.28 292.62,-34.97 282.07,-35.9 284.95,-42.28"/>
</a>
</g>
</g>
<!-- Node23 -->
<g id="Node000023" class="node">
<title>Node23</title>
<g id="a_Node000023"><a xlink:href="../../d3/dd4/_gradients_8cpp_a841d8b51ae49ac6ee37c9246228c1f89.html#a841d8b51ae49ac6ee37c9246228c1f89" target="_top" xlink:title="Identifies the secondary neighbors of a given cell to evaluate second gradients.">
<polygon fill="white" stroke="#666666" points="533.88,-28.25 460.12,-28.25 460.12,-9 533.88,-9 533.88,-28.25"/>
<text text-anchor="middle" x="497" y="-14.75" font-family="Helvetica,sans-Serif" font-size="10.00">getNeighbour</text>
</a>
</g>
</g>
<!-- Node22&#45;&gt;Node23 -->
<g id="edge25_Node000022_Node000023" class="edge">
<title>Node22&#45;&gt;Node23</title>
<g id="a_edge25_Node000022_Node000023"><a xlink:title=" ">
<path fill="none" stroke="#63b8ff" d="M395.42,-18.62C413.06,-18.62 432.12,-18.62 448.86,-18.62"/>
<polygon fill="#63b8ff" stroke="#63b8ff" points="448.51,-22.13 458.51,-18.63 448.51,-15.13 448.51,-22.13"/>
</a>
</g>
</g>
</g>
</svg>
