<?xml version="1.0" encoding="UTF-8" standalone="no"?>
<!DOCTYPE svg PUBLIC "-//W3C//DTD SVG 1.1//EN"
 "http://www.w3.org/Graphics/SVG/1.1/DTD/svg11.dtd">
<!-- Generated by graphviz version 12.2.1 (20241206.2353)
 -->
<!-- Title: Basic_Function_Files/Geometry_Header.h Pages: 1 -->
<svg width="916pt" height="105pt"
 viewBox="0.00 0.00 915.88 105.00" xmlns="http://www.w3.org/2000/svg" xmlns:xlink="http://www.w3.org/1999/xlink">
<g id="graph0" class="graph" transform="scale(1 1) rotate(0) translate(4 101)">
<title>Basic_Function_Files/Geometry_Header.h</title>
<!-- Node1 -->
<g id="Node000001" class="node">
<title>Node1</title>
<g id="a_Node000001"><a xlink:title=" ">
<polygon fill="#999999" stroke="#666666" points="509.75,-97 400,-97 400,-66.5 509.75,-66.5 509.75,-97"/>
<text text-anchor="start" x="408" y="-83.5" font-family="Helvetica,sans-Serif" font-size="10.00">Basic_Function_Files</text>
<text text-anchor="middle" x="454.88" y="-72.25" font-family="Helvetica,sans-Serif" font-size="10.00">/Geometry_Header.h</text>
</a>
</g>
</g>
<!-- Node2 -->
<g id="Node000002" class="node">
<title>Node2</title>
<g id="a_Node000002"><a xlink:href="../../d4/d94/_circle_8cpp.html" target="_top" xlink:title=" ">
<polygon fill="white" stroke="#666666" points="109.75,-30.5 0,-30.5 0,0 109.75,0 109.75,-30.5"/>
<text text-anchor="start" x="8" y="-17" font-family="Helvetica,sans-Serif" font-size="10.00">Basic_Function_Files</text>
<text text-anchor="middle" x="54.88" y="-5.75" font-family="Helvetica,sans-Serif" font-size="10.00">/Circle.cpp</text>
</a>
</g>
</g>
<!-- Node1&#45;&gt;Node2 -->
<g id="edge1_Node000001_Node000002" class="edge">
<title>Node1&#45;&gt;Node2</title>
<g id="a_edge1_Node000001_Node000002"><a xlink:title=" ">
<path fill="none" stroke="#63b8ff" d="M388.3,-72.2C320.34,-63.15 211.93,-47.8 118.88,-30.5 115.97,-29.96 112.99,-29.38 109.98,-28.78"/>
<polygon fill="#63b8ff" stroke="#63b8ff" points="387.8,-75.67 398.18,-73.51 388.72,-68.73 387.8,-75.67"/>
</a>
</g>
</g>
<!-- Node3 -->
<g id="Node000003" class="node">
<title>Node3</title>
<g id="a_Node000003"><a xlink:href="../../db/d4d/_cylinder_8cpp.html" target="_top" xlink:title=" ">
<polygon fill="white" stroke="#666666" points="237.75,-30.5 128,-30.5 128,0 237.75,0 237.75,-30.5"/>
<text text-anchor="start" x="136" y="-17" font-family="Helvetica,sans-Serif" font-size="10.00">Basic_Function_Files</text>
<text text-anchor="middle" x="182.88" y="-5.75" font-family="Helvetica,sans-Serif" font-size="10.00">/Cylinder.cpp</text>
</a>
</g>
</g>
<!-- Node1&#45;&gt;Node3 -->
<g id="edge2_Node000001_Node000003" class="edge">
<title>Node1&#45;&gt;Node3</title>
<g id="a_edge2_Node000001_Node000003"><a xlink:title=" ">
<path fill="none" stroke="#63b8ff" d="M388.42,-64.99C342.31,-54.06 281.63,-39.67 238.17,-29.36"/>
<polygon fill="#63b8ff" stroke="#63b8ff" points="387.49,-68.37 398.03,-67.27 389.11,-61.56 387.49,-68.37"/>
</a>
</g>
</g>
<!-- Node4 -->
<g id="Node000004" class="node">
<title>Node4</title>
<g id="a_Node000004"><a xlink:href="../../de/d5c/_grid___gen___functions_8cpp.html" target="_top" xlink:title=" ">
<polygon fill="white" stroke="#666666" points="382.38,-30.5 255.38,-30.5 255.38,0 382.38,0 382.38,-30.5"/>
<text text-anchor="start" x="263.38" y="-17" font-family="Helvetica,sans-Serif" font-size="10.00">Basic_Function_Files</text>
<text text-anchor="middle" x="318.88" y="-5.75" font-family="Helvetica,sans-Serif" font-size="10.00">/Grid_Gen_Functions.cpp</text>
</a>
</g>
</g>
<!-- Node1&#45;&gt;Node4 -->
<g id="edge3_Node000001_Node000004" class="edge">
<title>Node1&#45;&gt;Node4</title>
<g id="a_edge3_Node000001_Node000004"><a xlink:title=" ">
<path fill="none" stroke="#63b8ff" d="M413.65,-61.2C393.05,-51.43 368.54,-39.81 349.61,-30.83"/>
<polygon fill="#63b8ff" stroke="#63b8ff" points="412.11,-64.34 422.65,-65.47 415.11,-58.02 412.11,-64.34"/>
</a>
</g>
</g>
<!-- Node5 -->
<g id="Node000005" class="node">
<title>Node5</title>
<g id="a_Node000005"><a xlink:href="../../d0/d8a/_line_8cpp.html" target="_top" xlink:title=" ">
<polygon fill="white" stroke="#666666" points="509.75,-30.5 400,-30.5 400,0 509.75,0 509.75,-30.5"/>
<text text-anchor="start" x="408" y="-17" font-family="Helvetica,sans-Serif" font-size="10.00">Basic_Function_Files</text>
<text text-anchor="middle" x="454.88" y="-5.75" font-family="Helvetica,sans-Serif" font-size="10.00">/Line.cpp</text>
</a>
</g>
</g>
<!-- Node1&#45;&gt;Node5 -->
<g id="edge4_Node000001_Node000005" class="edge">
<title>Node1&#45;&gt;Node5</title>
<g id="a_edge4_Node000001_Node000005"><a xlink:title=" ">
<path fill="none" stroke="#63b8ff" d="M454.88,-54.81C454.88,-46.64 454.88,-37.91 454.88,-30.83"/>
<polygon fill="#63b8ff" stroke="#63b8ff" points="451.38,-54.6 454.88,-64.6 458.38,-54.6 451.38,-54.6"/>
</a>
</g>
</g>
<!-- Node6 -->
<g id="Node000006" class="node">
<title>Node6</title>
<g id="a_Node000006"><a xlink:href="../../d7/d19/_test___line_8cpp.html" target="_top" xlink:title=" ">
<polygon fill="white" stroke="#666666" points="637.75,-30.5 528,-30.5 528,0 637.75,0 637.75,-30.5"/>
<text text-anchor="start" x="536" y="-17" font-family="Helvetica,sans-Serif" font-size="10.00">Basic_Function_Files</text>
<text text-anchor="middle" x="582.88" y="-5.75" font-family="Helvetica,sans-Serif" font-size="10.00">/Test_Line.cpp</text>
</a>
</g>
</g>
<!-- Node1&#45;&gt;Node6 -->
<g id="edge5_Node000001_Node000006" class="edge">
<title>Node1&#45;&gt;Node6</title>
<g id="a_edge5_Node000001_Node000006"><a xlink:title=" ">
<path fill="none" stroke="#63b8ff" d="M493.94,-61.06C513.28,-51.32 536.21,-39.76 553.94,-30.83"/>
<polygon fill="#63b8ff" stroke="#63b8ff" points="492.63,-57.81 485.27,-65.43 495.78,-64.06 492.63,-57.81"/>
</a>
</g>
</g>
<!-- Node7 -->
<g id="Node000007" class="node">
<title>Node7</title>
<g id="a_Node000007"><a xlink:href="../../d8/da4/_basic___function___files_2_utility___files_8cpp.html" target="_top" xlink:title=" ">
<polygon fill="white" stroke="#666666" points="765.75,-30.5 656,-30.5 656,0 765.75,0 765.75,-30.5"/>
<text text-anchor="start" x="664" y="-17" font-family="Helvetica,sans-Serif" font-size="10.00">Basic_Function_Files</text>
<text text-anchor="middle" x="710.88" y="-5.75" font-family="Helvetica,sans-Serif" font-size="10.00">/Utility_Files.cpp</text>
</a>
</g>
</g>
<!-- Node1&#45;&gt;Node7 -->
<g id="edge6_Node000001_Node000007" class="edge">
<title>Node1&#45;&gt;Node7</title>
<g id="a_edge6_Node000001_Node000007"><a xlink:title=" ">
<path fill="none" stroke="#63b8ff" d="M521.02,-64.08C562.83,-53.55 616.23,-40.1 655.74,-30.14"/>
<polygon fill="#63b8ff" stroke="#63b8ff" points="520.42,-60.63 511.58,-66.46 522.13,-67.41 520.42,-60.63"/>
</a>
</g>
</g>
<!-- Node8 -->
<g id="Node000008" class="node">
<title>Node8</title>
<g id="a_Node000008"><a xlink:href="../../da/d84/gridgen___elliptic___t_f_i_8cpp.html" target="_top" xlink:title=" ">
<polygon fill="white" stroke="#666666" points="907.88,-30.5 783.88,-30.5 783.88,0 907.88,0 907.88,-30.5"/>
<text text-anchor="start" x="791.88" y="-17" font-family="Helvetica,sans-Serif" font-size="10.00">Basic_Function_Files</text>
<text text-anchor="middle" x="845.88" y="-5.75" font-family="Helvetica,sans-Serif" font-size="10.00">/gridgen_Elliptic_TFI.cpp</text>
</a>
</g>
</g>
<!-- Node1&#45;&gt;Node8 -->
<g id="edge7_Node000001_Node000008" class="edge">
<title>Node1&#45;&gt;Node8</title>
<g id="a_edge7_Node000001_Node000008"><a xlink:title=" ">
<path fill="none" stroke="#63b8ff" d="M521.48,-71.13C586.3,-61.57 687.53,-46.12 774.88,-30.5 777.72,-29.99 780.63,-29.46 783.57,-28.91"/>
<polygon fill="#63b8ff" stroke="#63b8ff" points="521.09,-67.65 511.7,-72.57 522.1,-74.58 521.09,-67.65"/>
</a>
</g>
</g>
</g>
</svg>
