<?xml version="1.0" encoding="UTF-8" standalone="no"?>
<!DOCTYPE svg PUBLIC "-//W3C//DTD SVG 1.1//EN"
 "http://www.w3.org/Graphics/SVG/1.1/DTD/svg11.dtd">
<!-- Generated by graphviz version 12.2.1 (20241206.2353)
 -->
<!-- Title: Construct_Co_Volumes Pages: 1 -->
<svg width="430pt" height="27pt"
 viewBox="0.00 0.00 429.75 27.25" xmlns="http://www.w3.org/2000/svg" xmlns:xlink="http://www.w3.org/1999/xlink">
<g id="graph0" class="graph" transform="scale(1 1) rotate(0) translate(4 23.25)">
<title>Construct_Co_Volumes</title>
<!-- Node1 -->
<g id="Node000001" class="node">
<title>Node1</title>
<g id="a_Node000001"><a xlink:title=" ">
<polygon fill="#999999" stroke="#666666" points="421.75,-19.25 301.5,-19.25 301.5,0 421.75,0 421.75,-19.25"/>
<text text-anchor="middle" x="361.62" y="-5.75" font-family="Helvetica,sans-Serif" font-size="10.00">Construct_Co_Volumes</text>
</a>
</g>
</g>
<!-- Node2 -->
<g id="Node000002" class="node">
<title>Node2</title>
<g id="a_Node000002"><a xlink:href="../../d8/d40/_grid___computations_8cpp_a5214aea020c856108980e45d45cbc89b.html#a5214aea020c856108980e45d45cbc89b" target="_top" xlink:title=" ">
<polygon fill="white" stroke="#666666" points="265.5,-19.25 199.25,-19.25 199.25,0 265.5,0 265.5,-19.25"/>
<text text-anchor="middle" x="232.38" y="-5.75" font-family="Helvetica,sans-Serif" font-size="10.00">Form_Cells</text>
</a>
</g>
</g>
<!-- Node1&#45;&gt;Node2 -->
<g id="edge1_Node000001_Node000002" class="edge">
<title>Node1&#45;&gt;Node2</title>
<g id="a_edge1_Node000001_Node000002"><a xlink:title=" ">
<path fill="none" stroke="#63b8ff" d="M289.69,-9.62C281.37,-9.62 273.21,-9.62 265.8,-9.62"/>
<polygon fill="#63b8ff" stroke="#63b8ff" points="289.58,-13.13 299.58,-9.63 289.58,-6.13 289.58,-13.13"/>
</a>
</g>
</g>
<!-- Node3 -->
<g id="Node000003" class="node">
<title>Node3</title>
<g id="a_Node000003"><a xlink:href="../../d8/d40/_grid___computations_8cpp_adbee522543afe92b4b1cd9b4e96a6c3f.html#adbee522543afe92b4b1cd9b4e96a6c3f" target="_top" xlink:title=" ">
<polygon fill="white" stroke="#666666" points="163.25,-19.25 73,-19.25 73,0 163.25,0 163.25,-19.25"/>
<text text-anchor="middle" x="118.12" y="-5.75" font-family="Helvetica,sans-Serif" font-size="10.00">initializeGridFiles</text>
</a>
</g>
</g>
<!-- Node2&#45;&gt;Node3 -->
<g id="edge2_Node000002_Node000003" class="edge">
<title>Node2&#45;&gt;Node3</title>
<g id="a_edge2_Node000002_Node000003"><a xlink:title=" ">
<path fill="none" stroke="#63b8ff" d="M187.39,-9.62C179.59,-9.62 171.45,-9.62 163.63,-9.62"/>
<polygon fill="#63b8ff" stroke="#63b8ff" points="187.39,-13.13 197.39,-9.63 187.39,-6.13 187.39,-13.13"/>
</a>
</g>
</g>
<!-- Node4 -->
<g id="Node000004" class="node">
<title>Node4</title>
<g id="a_Node000004"><a xlink:href="../../d5/d12/_main_8cpp_a0ddf1224851353fc92bfbff6f499fa97.html#a0ddf1224851353fc92bfbff6f499fa97" target="_top" xlink:title=" ">
<polygon fill="white" stroke="#666666" points="37,-19.25 0,-19.25 0,0 37,0 37,-19.25"/>
<text text-anchor="middle" x="18.5" y="-5.75" font-family="Helvetica,sans-Serif" font-size="10.00">main</text>
</a>
</g>
</g>
<!-- Node3&#45;&gt;Node4 -->
<g id="edge3_Node000003_Node000004" class="edge">
<title>Node3&#45;&gt;Node4</title>
<g id="a_edge3_Node000003_Node000004"><a xlink:title=" ">
<path fill="none" stroke="#63b8ff" d="M61.19,-9.62C52.57,-9.62 44.25,-9.62 37.35,-9.62"/>
<polygon fill="#63b8ff" stroke="#63b8ff" points="61.08,-13.13 71.08,-9.63 61.08,-6.13 61.08,-13.13"/>
</a>
</g>
</g>
</g>
</svg>
