<?xml version="1.0" encoding="UTF-8" standalone="no"?>
<!DOCTYPE svg PUBLIC "-//W3C//DTD SVG 1.1//EN"
 "http://www.w3.org/Graphics/SVG/1.1/DTD/svg11.dtd">
<!-- Generated by graphviz version 12.2.1 (20241206.2353)
 -->
<!-- Title: Get_Reconstructed_U Pages: 1 -->
<svg width="1213pt" height="114pt"
 viewBox="0.00 0.00 1213.00 114.46" xmlns="http://www.w3.org/2000/svg" xmlns:xlink="http://www.w3.org/1999/xlink">
<g id="graph0" class="graph" transform="scale(1 1) rotate(0) translate(4 110.46)">
<title>Get_Reconstructed_U</title>
<!-- Node1 -->
<g id="Node000001" class="node">
<title>Node1</title>
<g id="a_Node000001"><a xlink:title=" ">
<polygon fill="#999999" stroke="#666666" points="1205,-68.46 1091.5,-68.46 1091.5,-49.21 1205,-49.21 1205,-68.46"/>
<text text-anchor="middle" x="1148.25" y="-54.96" font-family="Helvetica,sans-Serif" font-size="10.00">Get_Reconstructed_U</text>
</a>
</g>
</g>
<!-- Node2 -->
<g id="Node000002" class="node">
<title>Node2</title>
<g id="a_Node000002"><a xlink:href="../../d8/df4/_w_e_n_o2_d_8cpp_a9ad30d54bcfdc4e146d0dff2d3c22cdb.html#a9ad30d54bcfdc4e146d0dff2d3c22cdb" target="_top" xlink:title=" ">
<polygon fill="white" stroke="#666666" points="1055.5,-68.46 924.75,-68.46 924.75,-49.21 1055.5,-49.21 1055.5,-68.46"/>
<text text-anchor="middle" x="990.12" y="-54.96" font-family="Helvetica,sans-Serif" font-size="10.00">WENO_Reconstruction_X</text>
</a>
</g>
</g>
<!-- Node1&#45;&gt;Node2 -->
<g id="edge1_Node000001_Node000002" class="edge">
<title>Node1&#45;&gt;Node2</title>
<g id="a_edge1_Node000001_Node000002"><a xlink:title=" ">
<path fill="none" stroke="#63b8ff" d="M1079.86,-58.84C1071.93,-58.84 1063.85,-58.84 1055.96,-58.84"/>
<polygon fill="#63b8ff" stroke="#63b8ff" points="1079.81,-62.34 1089.81,-58.84 1079.81,-55.34 1079.81,-62.34"/>
</a>
</g>
</g>
<!-- Node3 -->
<g id="Node000003" class="node">
<title>Node3</title>
<g id="a_Node000003"><a xlink:href="../../d8/df4/_w_e_n_o2_d_8cpp_a27359f46a5902f1f50547f76408a48aa.html#a27359f46a5902f1f50547f76408a48aa" target="_top" xlink:title=" ">
<polygon fill="white" stroke="#666666" points="888.75,-68.46 743.75,-68.46 743.75,-49.21 888.75,-49.21 888.75,-68.46"/>
<text text-anchor="middle" x="816.25" y="-54.96" font-family="Helvetica,sans-Serif" font-size="10.00">Calculate_Face_WENO_Flux</text>
</a>
</g>
</g>
<!-- Node2&#45;&gt;Node3 -->
<g id="edge2_Node000002_Node000003" class="edge">
<title>Node2&#45;&gt;Node3</title>
<g id="a_edge2_Node000002_Node000003"><a xlink:title=" ">
<path fill="none" stroke="#63b8ff" d="M913.33,-58.84C905.25,-58.84 897.05,-58.84 889.02,-58.84"/>
<polygon fill="#63b8ff" stroke="#63b8ff" points="913.12,-62.34 923.12,-58.84 913.12,-55.34 913.12,-62.34"/>
</a>
</g>
</g>
<!-- Node4 -->
<g id="Node000004" class="node">
<title>Node4</title>
<g id="a_Node000004"><a xlink:href="../../d8/df4/_w_e_n_o2_d_8cpp_a74c2795e4a164178c69743947d6e6cf5.html#a74c2795e4a164178c69743947d6e6cf5" target="_top" xlink:title=" ">
<polygon fill="white" stroke="#666666" points="707.75,-68.46 549.25,-68.46 549.25,-49.21 707.75,-49.21 707.75,-68.46"/>
<text text-anchor="middle" x="628.5" y="-54.96" font-family="Helvetica,sans-Serif" font-size="10.00">Evaluate_Cell_Net_Flux_WENO</text>
</a>
</g>
</g>
<!-- Node3&#45;&gt;Node4 -->
<g id="edge3_Node000003_Node000004" class="edge">
<title>Node3&#45;&gt;Node4</title>
<g id="a_edge3_Node000003_Node000004"><a xlink:title=" ">
<path fill="none" stroke="#63b8ff" d="M731.96,-58.84C724.06,-58.84 716.07,-58.84 708.22,-58.84"/>
<polygon fill="#63b8ff" stroke="#63b8ff" points="731.92,-62.34 741.92,-58.84 731.92,-55.34 731.92,-62.34"/>
</a>
</g>
</g>
<!-- Node5 -->
<g id="Node000005" class="node">
<title>Node5</title>
<g id="a_Node000005"><a xlink:href="../../d0/d64/_numerical___method_8cpp_a8dda0c7e17babab9b6e49e8e199dc30e.html#a8dda0c7e17babab9b6e49e8e199dc30e" target="_top" xlink:title=" ">
<polygon fill="white" stroke="#666666" points="367.12,-68.46 281.38,-68.46 281.38,-49.21 367.12,-49.21 367.12,-68.46"/>
<text text-anchor="middle" x="324.25" y="-54.96" font-family="Helvetica,sans-Serif" font-size="10.00">Explicit_Method</text>
</a>
</g>
</g>
<!-- Node4&#45;&gt;Node5 -->
<g id="edge4_Node000004_Node000005" class="edge">
<title>Node4&#45;&gt;Node5</title>
<g id="a_edge4_Node000004_Node000005"><a xlink:title=" ">
<path fill="none" stroke="#63b8ff" d="M537.43,-58.84C481.03,-58.84 411,-58.84 367.2,-58.84"/>
<polygon fill="#63b8ff" stroke="#63b8ff" points="537.36,-62.34 547.36,-58.84 537.36,-55.34 537.36,-62.34"/>
</a>
</g>
</g>
<!-- Node10 -->
<g id="Node000010" class="node">
<title>Node10</title>
<g id="a_Node000010"><a xlink:href="../../db/d38/_parallel___numerical___method_8cpp_a263f3c36336c227c44f052b2ad122253.html#a263f3c36336c227c44f052b2ad122253" target="_top" xlink:title=" ">
<polygon fill="white" stroke="#666666" points="513.25,-106.46 415.5,-106.46 415.5,-87.21 513.25,-87.21 513.25,-106.46"/>
<text text-anchor="middle" x="464.38" y="-92.96" font-family="Helvetica,sans-Serif" font-size="10.00">PrecomputeFluxes</text>
</a>
</g>
</g>
<!-- Node4&#45;&gt;Node10 -->
<g id="edge11_Node000004_Node000010" class="edge">
<title>Node4&#45;&gt;Node10</title>
<g id="a_edge11_Node000004_Node000010"><a xlink:title=" ">
<path fill="none" stroke="#63b8ff" d="M573.37,-71.52C552.2,-76.49 528.26,-82.1 508.32,-86.77"/>
<polygon fill="#63b8ff" stroke="#63b8ff" points="574.07,-74.95 583.01,-69.26 572.47,-68.14 574.07,-74.95"/>
</a>
</g>
</g>
<!-- Node11 -->
<g id="Node000011" class="node">
<title>Node11</title>
<g id="a_Node000011"><a xlink:href="../../de/d22/_cuda___parallel___r_k_8cpp_a794f030971fbb7c9dd4bc08df03f50f1.html#a794f030971fbb7c9dd4bc08df03f50f1" target="_top" xlink:title=" ">
<polygon fill="white" stroke="#666666" points="379.5,-30.46 269,-30.46 269,-11.21 379.5,-11.21 379.5,-30.46"/>
<text text-anchor="middle" x="324.25" y="-16.96" font-family="Helvetica,sans-Serif" font-size="10.00">Runge_Kutta_Method</text>
</a>
</g>
</g>
<!-- Node4&#45;&gt;Node11 -->
<g id="edge13_Node000004_Node000011" class="edge">
<title>Node4&#45;&gt;Node11</title>
<g id="a_edge13_Node000004_Node000011"><a xlink:title=" ">
<path fill="none" stroke="#63b8ff" d="M537.76,-47.55C486.39,-41.09 423.61,-33.2 379.66,-27.68"/>
<polygon fill="#63b8ff" stroke="#63b8ff" points="537.02,-50.99 547.37,-48.76 537.89,-44.04 537.02,-50.99"/>
</a>
</g>
</g>
<!-- Node6 -->
<g id="Node000006" class="node">
<title>Node6</title>
<g id="a_Node000006"><a xlink:href="../../de/df0/_solver_8cpp_ad0f49408a26339b5f7043bf867c3fa8d.html#ad0f49408a26339b5f7043bf867c3fa8d" target="_top" xlink:title=" ">
<polygon fill="white" stroke="#666666" points="232.25,-68.46 149.5,-68.46 149.5,-49.21 232.25,-49.21 232.25,-68.46"/>
<text text-anchor="middle" x="190.88" y="-54.96" font-family="Helvetica,sans-Serif" font-size="10.00">Inviscid_Solver</text>
</a>
</g>
</g>
<!-- Node5&#45;&gt;Node6 -->
<g id="edge5_Node000005_Node000006" class="edge">
<title>Node5&#45;&gt;Node6</title>
<g id="a_edge5_Node000005_Node000006"><a xlink:title=" ">
<path fill="none" stroke="#63b8ff" d="M269.82,-58.84C257.45,-58.84 244.48,-58.84 232.74,-58.84"/>
<polygon fill="#63b8ff" stroke="#63b8ff" points="269.45,-62.34 279.45,-58.84 269.45,-55.34 269.45,-62.34"/>
</a>
</g>
</g>
<!-- Node9 -->
<g id="Node000009" class="node">
<title>Node9</title>
<g id="a_Node000009"><a xlink:href="../../de/df0/_solver_8cpp_a2f37f06e8324a1ed6aa99efdbba81865.html#a2f37f06e8324a1ed6aa99efdbba81865" target="_top" xlink:title=" ">
<polygon fill="white" stroke="#666666" points="233,-31.46 148.75,-31.46 148.75,-12.21 233,-12.21 233,-31.46"/>
<text text-anchor="middle" x="190.88" y="-17.96" font-family="Helvetica,sans-Serif" font-size="10.00">Viscous_Solver</text>
</a>
</g>
</g>
<!-- Node5&#45;&gt;Node9 -->
<g id="edge8_Node000005_Node000009" class="edge">
<title>Node5&#45;&gt;Node9</title>
<g id="a_edge8_Node000005_Node000009"><a xlink:title=" ">
<path fill="none" stroke="#63b8ff" d="M276.55,-45.68C260.5,-41.16 242.79,-36.17 227.73,-31.93"/>
<polygon fill="#63b8ff" stroke="#63b8ff" points="275.32,-48.97 285.89,-48.32 277.22,-42.24 275.32,-48.97"/>
</a>
</g>
</g>
<!-- Node7 -->
<g id="Node000007" class="node">
<title>Node7</title>
<g id="a_Node000007"><a xlink:href="../../dd/dbf/_euler___python___wrapper_8cpp_ac5ccb50c3be270f798e054dd36987442.html#ac5ccb50c3be270f798e054dd36987442" target="_top" xlink:title=" ">
<polygon fill="white" stroke="#666666" points="112.75,-31.46 0,-31.46 0,-12.21 112.75,-12.21 112.75,-31.46"/>
<text text-anchor="middle" x="56.38" y="-17.96" font-family="Helvetica,sans-Serif" font-size="10.00">PYBIND11_MODULE</text>
</a>
</g>
</g>
<!-- Node6&#45;&gt;Node7 -->
<g id="edge6_Node000006_Node000007" class="edge">
<title>Node6&#45;&gt;Node7</title>
<g id="a_edge6_Node000006_Node000007"><a xlink:title=" ">
<path fill="none" stroke="#63b8ff" d="M142.78,-45.68C126.59,-41.16 108.72,-36.17 93.54,-31.93"/>
<polygon fill="#63b8ff" stroke="#63b8ff" points="141.64,-49 152.21,-48.32 143.52,-42.26 141.64,-49"/>
</a>
</g>
</g>
<!-- Node8 -->
<g id="Node000008" class="node">
<title>Node8</title>
<g id="a_Node000008"><a xlink:href="../../d5/d12/_main_8cpp_a35d775933750ace299102f06a1712663.html#a35d775933750ace299102f06a1712663" target="_top" xlink:title="Executes the appropriate solver based on the simulation configuration.">
<polygon fill="white" stroke="#666666" points="85,-68.46 27.75,-68.46 27.75,-49.21 85,-49.21 85,-68.46"/>
<text text-anchor="middle" x="56.38" y="-54.96" font-family="Helvetica,sans-Serif" font-size="10.00">runSolver</text>
</a>
</g>
</g>
<!-- Node6&#45;&gt;Node8 -->
<g id="edge7_Node000006_Node000008" class="edge">
<title>Node6&#45;&gt;Node8</title>
<g id="a_edge7_Node000006_Node000008"><a xlink:title=" ">
<path fill="none" stroke="#63b8ff" d="M137.57,-58.84C119.72,-58.84 100.46,-58.84 85.28,-58.84"/>
<polygon fill="#63b8ff" stroke="#63b8ff" points="137.53,-62.34 147.53,-58.84 137.53,-55.34 137.53,-62.34"/>
</a>
</g>
</g>
<!-- Node9&#45;&gt;Node7 -->
<g id="edge9_Node000009_Node000007" class="edge">
<title>Node9&#45;&gt;Node7</title>
<g id="a_edge9_Node000009_Node000007"><a xlink:title=" ">
<path fill="none" stroke="#63b8ff" d="M136.96,-21.84C129.04,-21.84 120.85,-21.84 112.88,-21.84"/>
<polygon fill="#63b8ff" stroke="#63b8ff" points="136.8,-25.34 146.8,-21.84 136.8,-18.34 136.8,-25.34"/>
</a>
</g>
</g>
<!-- Node9&#45;&gt;Node8 -->
<g id="edge10_Node000009_Node000008" class="edge">
<title>Node9&#45;&gt;Node8</title>
<g id="a_edge10_Node000009_Node000008"><a xlink:title=" ">
<path fill="none" stroke="#63b8ff" d="M142.65,-35.02C123.39,-40.4 101.78,-46.44 85.13,-51.08"/>
<polygon fill="#63b8ff" stroke="#63b8ff" points="143.52,-38.41 152.21,-32.35 141.64,-31.67 143.52,-38.41"/>
</a>
</g>
</g>
<!-- Node10&#45;&gt;Node5 -->
<g id="edge12_Node000010_Node000005" class="edge">
<title>Node10&#45;&gt;Node5</title>
<g id="a_edge12_Node000010_Node000005"><a xlink:title=" ">
<path fill="none" stroke="#63b8ff" d="M415.71,-83.72C397.98,-78.84 378.15,-73.39 361.59,-68.83"/>
<polygon fill="#63b8ff" stroke="#63b8ff" points="414.69,-87.07 425.26,-86.35 416.55,-80.32 414.69,-87.07"/>
</a>
</g>
</g>
<!-- Node11&#45;&gt;Node6 -->
<g id="edge14_Node000011_Node000006" class="edge">
<title>Node11&#45;&gt;Node6</title>
<g id="a_edge14_Node000011_Node000006"><a xlink:title=" ">
<path fill="none" stroke="#63b8ff" d="M277.68,-34.02C260.87,-38.88 242.12,-44.3 226.44,-48.84"/>
<polygon fill="#63b8ff" stroke="#63b8ff" points="278.3,-37.48 286.93,-31.34 276.36,-30.76 278.3,-37.48"/>
</a>
</g>
</g>
<!-- Node11&#45;&gt;Node7 -->
<g id="edge15_Node000011_Node000007" class="edge">
<title>Node11&#45;&gt;Node7</title>
<g id="a_edge15_Node000011_Node000007"><a xlink:title=" ">
<path fill="none" stroke="#63b8ff" d="M270.7,-8.54C258.4,-6.17 245.29,-4.05 233,-2.84 195.74,0.84 186,1 148.75,-2.84 131.66,-4.59 113.06,-8.15 97.13,-11.72"/>
<polygon fill="#63b8ff" stroke="#63b8ff" points="269.74,-11.92 280.24,-10.47 271.13,-5.06 269.74,-11.92"/>
</a>
</g>
</g>
<!-- Node11&#45;&gt;Node9 -->
<g id="edge16_Node000011_Node000009" class="edge">
<title>Node11&#45;&gt;Node9</title>
<g id="a_edge16_Node000011_Node000009"><a xlink:title=" ">
<path fill="none" stroke="#63b8ff" d="M257.2,-21.34C249.04,-21.4 240.89,-21.46 233.26,-21.52"/>
<polygon fill="#63b8ff" stroke="#63b8ff" points="257.19,-24.84 267.16,-21.26 257.14,-17.84 257.19,-24.84"/>
</a>
</g>
</g>
</g>
</svg>
