<?xml version="1.0" encoding="UTF-8" standalone="no"?>
<!DOCTYPE svg PUBLIC "-//W3C//DTD SVG 1.1//EN"
 "http://www.w3.org/Graphics/SVG/1.1/DTD/svg11.dtd">
<!-- Generated by graphviz version 12.2.1 (20241206.2353)
 -->
<!-- Title: Shock_Bubble_Interaction Pages: 1 -->
<svg width="700pt" height="437pt"
 viewBox="0.00 0.00 699.70 436.50" xmlns="http://www.w3.org/2000/svg" xmlns:xlink="http://www.w3.org/1999/xlink">
<g id="graph0" class="graph" transform="scale(1 1) rotate(0) translate(4 432.5)">
<title>Shock_Bubble_Interaction</title>
<!-- Node1 -->
<g id="Node000001" class="node">
<title>Node1</title>
<g id="a_Node000001"><a xlink:title=" ">
<polygon fill="#999999" stroke="#666666" points="130,-209.88 0,-209.88 0,-190.62 130,-190.62 130,-209.88"/>
<text text-anchor="middle" x="65" y="-196.38" font-family="Helvetica,sans-Serif" font-size="10.00">Shock_Bubble_Interaction</text>
</a>
</g>
</g>
<!-- Node2 -->
<g id="Node000002" class="node">
<title>Node2</title>
<g id="a_Node000002"><a xlink:href="../../df/d43/_basic___functions_8cpp_a9ca12fb8f920cab38313323cf0c4bf53.html#a9ca12fb8f920cab38313323cf0c4bf53" target="_top" xlink:title=" ">
<polygon fill="white" stroke="#666666" points="291.5,-428.5 166,-428.5 166,-398 291.5,-398 291.5,-428.5"/>
<text text-anchor="start" x="174" y="-415" font-family="Helvetica,sans-Serif" font-size="10.00">Calculate_Computational</text>
<text text-anchor="middle" x="228.75" y="-403.75" font-family="Helvetica,sans-Serif" font-size="10.00">_Variables</text>
</a>
</g>
</g>
<!-- Node1&#45;&gt;Node2 -->
<g id="edge1_Node000001_Node000002" class="edge">
<title>Node1&#45;&gt;Node2</title>
<g id="a_edge1_Node000001_Node000002"><a xlink:title=" ">
<path fill="none" stroke="#63b8ff" d="M68.69,-210.35C77.4,-241.29 107.77,-335.79 166,-388.25 167.24,-389.36 168.53,-390.43 169.86,-391.45"/>
<polygon fill="#63b8ff" stroke="#63b8ff" points="167.69,-394.21 177.98,-396.74 171.51,-388.35 167.69,-394.21"/>
</a>
</g>
</g>
<!-- Node3 -->
<g id="Node000003" class="node">
<title>Node3</title>
<g id="a_Node000003"><a xlink:href="../../df/d43/_basic___functions_8cpp_a1c199e756f8458978961b4d9ab4cbe63.html#a1c199e756f8458978961b4d9ab4cbe63" target="_top" xlink:title=" ">
<polygon fill="white" stroke="#666666" points="279.12,-379.5 178.38,-379.5 178.38,-349 279.12,-349 279.12,-379.5"/>
<text text-anchor="start" x="186.38" y="-366" font-family="Helvetica,sans-Serif" font-size="10.00">Calculate_Primitive</text>
<text text-anchor="middle" x="228.75" y="-354.75" font-family="Helvetica,sans-Serif" font-size="10.00">_Variables</text>
</a>
</g>
</g>
<!-- Node1&#45;&gt;Node3 -->
<g id="edge2_Node000001_Node000003" class="edge">
<title>Node1&#45;&gt;Node3</title>
<g id="a_edge2_Node000001_Node000003"><a xlink:title=" ">
<path fill="none" stroke="#63b8ff" d="M70.57,-210.23C82.61,-235.5 117.65,-302.68 166,-340.25 167.12,-341.12 168.28,-341.97 169.47,-342.79"/>
<polygon fill="#63b8ff" stroke="#63b8ff" points="167.39,-345.62 177.77,-347.75 170.98,-339.61 167.39,-345.62"/>
</a>
</g>
</g>
<!-- Node5 -->
<g id="Node000005" class="node">
<title>Node5</title>
<g id="a_Node000005"><a xlink:href="../../da/d3e/output__files_8cpp_ac7e61b153a6d26ffbefde7b5b86d55a7.html#ac7e61b153a6d26ffbefde7b5b86d55a7" target="_top" xlink:title=" ">
<polygon fill="white" stroke="#666666" points="272.38,-330.88 185.12,-330.88 185.12,-311.62 272.38,-311.62 272.38,-330.88"/>
<text text-anchor="middle" x="228.75" y="-317.38" font-family="Helvetica,sans-Serif" font-size="10.00">Directory_Name</text>
</a>
</g>
</g>
<!-- Node1&#45;&gt;Node5 -->
<g id="edge4_Node000001_Node000005" class="edge">
<title>Node1&#45;&gt;Node5</title>
<g id="a_edge4_Node000001_Node000005"><a xlink:title=" ">
<path fill="none" stroke="#63b8ff" d="M73.81,-210.1C89.44,-229.27 126.51,-271.91 166,-297.25 171.64,-300.87 177.92,-304.09 184.25,-306.9"/>
<polygon fill="#63b8ff" stroke="#63b8ff" points="182.86,-310.11 193.44,-310.66 185.51,-303.63 182.86,-310.11"/>
</a>
</g>
</g>
<!-- Node6 -->
<g id="Node000006" class="node">
<title>Node6</title>
<g id="a_Node000006"><a xlink:href="../../d8/d40/_grid___computations_8cpp_a1f273579608200866e02e34f16a3eb6b.html#a1f273579608200866e02e34f16a3eb6b" target="_top" xlink:title=" ">
<polygon fill="white" stroke="#666666" points="616,-292.88 484.5,-292.88 484.5,-273.62 616,-273.62 616,-292.88"/>
<text text-anchor="middle" x="550.25" y="-279.38" font-family="Helvetica,sans-Serif" font-size="10.00">Distance_Between_Points</text>
</a>
</g>
</g>
<!-- Node1&#45;&gt;Node6 -->
<g id="edge5_Node000001_Node000006" class="edge">
<title>Node1&#45;&gt;Node6</title>
<g id="a_edge5_Node000001_Node000006"><a xlink:title=" ">
<path fill="none" stroke="#63b8ff" d="M88.48,-210.36C132.98,-229.76 235.95,-271.58 327.5,-286.25 380.6,-294.76 394.73,-287.05 448.5,-286.25 456.35,-286.13 464.54,-285.97 472.71,-285.77"/>
<polygon fill="#63b8ff" stroke="#63b8ff" points="472.8,-289.27 482.71,-285.51 472.62,-282.27 472.8,-289.27"/>
</a>
</g>
</g>
<!-- Node8 -->
<g id="Node000008" class="node">
<title>Node8</title>
<g id="a_Node000008"><a xlink:href="../../da/d3e/output__files_8cpp_a2a6bf38afe949ce5a6cd1b3641c49c25.html#a2a6bf38afe949ce5a6cd1b3641c49c25" target="_top" xlink:title=" ">
<polygon fill="white" stroke="#666666" points="260.38,-172.88 197.12,-172.88 197.12,-153.62 260.38,-153.62 260.38,-172.88"/>
<text text-anchor="middle" x="228.75" y="-159.38" font-family="Helvetica,sans-Serif" font-size="10.00">File_Name</text>
</a>
</g>
</g>
<!-- Node1&#45;&gt;Node8 -->
<g id="edge8_Node000001_Node000008" class="edge">
<title>Node1&#45;&gt;Node8</title>
<g id="a_edge8_Node000001_Node000008"><a xlink:title=" ">
<path fill="none" stroke="#63b8ff" d="M110.2,-190.14C133.64,-184.78 162.31,-178.22 185.46,-172.92"/>
<polygon fill="#63b8ff" stroke="#63b8ff" points="186.23,-176.34 195.2,-170.7 184.67,-169.51 186.23,-176.34"/>
</a>
</g>
</g>
<!-- Node9 -->
<g id="Node000009" class="node">
<title>Node9</title>
<g id="a_Node000009"><a xlink:href="../../d8/d40/_grid___computations_8cpp_a831dcf7cbf36ddf425ce0753495ba3c6.html#a831dcf7cbf36ddf425ce0753495ba3c6" target="_top" xlink:title=" ">
<polygon fill="white" stroke="#666666" points="261.88,-209.88 195.62,-209.88 195.62,-190.62 261.88,-190.62 261.88,-209.88"/>
<text text-anchor="middle" x="228.75" y="-196.38" font-family="Helvetica,sans-Serif" font-size="10.00">Form_Cells</text>
</a>
</g>
</g>
<!-- Node1&#45;&gt;Node9 -->
<g id="edge9_Node000001_Node000009" class="edge">
<title>Node1&#45;&gt;Node9</title>
<g id="a_edge9_Node000001_Node000009"><a xlink:title=" ">
<path fill="none" stroke="#63b8ff" d="M130.39,-200.25C148.4,-200.25 167.54,-200.25 184.05,-200.25"/>
<polygon fill="#63b8ff" stroke="#63b8ff" points="184.03,-203.75 194.03,-200.25 184.03,-196.75 184.03,-203.75"/>
</a>
</g>
</g>
<!-- Node19 -->
<g id="Node000019" class="node">
<title>Node19</title>
<g id="a_Node000019"><a xlink:href="../../d7/d6d/_initialize_8cpp_ad59ff1b23c73f6427e8179ce53ee1f59.html#ad59ff1b23c73f6427e8179ce53ee1f59" target="_top" xlink:title=" ">
<polygon fill="white" stroke="#666666" points="447.38,-79.5 328.62,-79.5 328.62,-49 447.38,-49 447.38,-79.5"/>
<text text-anchor="start" x="336.62" y="-66" font-family="Helvetica,sans-Serif" font-size="10.00">Identify_Wall_Boundary</text>
<text text-anchor="middle" x="388" y="-54.75" font-family="Helvetica,sans-Serif" font-size="10.00">_Faces</text>
</a>
</g>
</g>
<!-- Node1&#45;&gt;Node19 -->
<g id="edge22_Node000001_Node000019" class="edge">
<title>Node1&#45;&gt;Node19</title>
<g id="a_edge22_Node000001_Node000019"><a xlink:title=" ">
<path fill="none" stroke="#63b8ff" d="M81.86,-190.3C101.23,-178.4 135.24,-158.32 166,-144.25 218.62,-120.19 280.76,-98.23 325.72,-83.44"/>
<polygon fill="#63b8ff" stroke="#63b8ff" points="326.62,-86.83 335.04,-80.4 324.45,-80.17 326.62,-86.83"/>
</a>
</g>
</g>
<!-- Node20 -->
<g id="Node000020" class="node">
<title>Node20</title>
<g id="a_Node000020"><a xlink:href="../../d7/d6d/_initialize_8cpp_acc3c3292e370176c51c654a01e651e24.html#acc3c3292e370176c51c654a01e651e24" target="_top" xlink:title=" ">
<polygon fill="white" stroke="#666666" points="254.75,-74.88 202.75,-74.88 202.75,-55.62 254.75,-55.62 254.75,-74.88"/>
<text text-anchor="middle" x="228.75" y="-61.38" font-family="Helvetica,sans-Serif" font-size="10.00">Initialize</text>
</a>
</g>
</g>
<!-- Node1&#45;&gt;Node20 -->
<g id="edge23_Node000001_Node000020" class="edge">
<title>Node1&#45;&gt;Node20</title>
<g id="a_edge23_Node000001_Node000020"><a xlink:title=" ">
<path fill="none" stroke="#63b8ff" d="M76.15,-190.26C93.82,-173.04 131.65,-136.95 166,-109.25 177.89,-99.66 191.68,-89.73 203.21,-81.73"/>
<polygon fill="#63b8ff" stroke="#63b8ff" points="205.14,-84.65 211.41,-76.11 201.19,-78.88 205.14,-84.65"/>
</a>
</g>
</g>
<!-- Node23 -->
<g id="Node000023" class="node">
<title>Node23</title>
<g id="a_Node000023"><a xlink:href="../../da/d3e/output__files_8cpp_ac49d22b87cab7fa46da37546b7af78b0.html#ac49d22b87cab7fa46da37546b7af78b0" target="_top" xlink:title=" ">
<polygon fill="white" stroke="#666666" points="268.25,-37.88 189.25,-37.88 189.25,-18.62 268.25,-18.62 268.25,-37.88"/>
<text text-anchor="middle" x="228.75" y="-24.38" font-family="Helvetica,sans-Serif" font-size="10.00">Write_Solution</text>
</a>
</g>
</g>
<!-- Node1&#45;&gt;Node23 -->
<g id="edge27_Node000001_Node000023" class="edge">
<title>Node1&#45;&gt;Node23</title>
<g id="a_edge27_Node000001_Node000023"><a xlink:title=" ">
<path fill="none" stroke="#63b8ff" d="M69.62,-190.21C80.03,-162.75 112.79,-85.81 166,-46.25 169.78,-43.44 173.99,-41.07 178.39,-39.06"/>
<polygon fill="#63b8ff" stroke="#63b8ff" points="179.39,-42.43 187.46,-35.57 176.87,-35.9 179.39,-42.43"/>
</a>
</g>
</g>
<!-- Node4 -->
<g id="Node000004" class="node">
<title>Node4</title>
<g id="a_Node000004"><a xlink:href="../../df/d43/_basic___functions_8cpp_ae9dc3225863fb110155bb3e9dea4e4d3.html#ae9dc3225863fb110155bb3e9dea4e4d3" target="_top" xlink:title=" ">
<polygon fill="white" stroke="#666666" points="416.25,-373.88 359.75,-373.88 359.75,-354.62 416.25,-354.62 416.25,-373.88"/>
<text text-anchor="middle" x="388" y="-360.38" font-family="Helvetica,sans-Serif" font-size="10.00">Viscosity</text>
</a>
</g>
</g>
<!-- Node3&#45;&gt;Node4 -->
<g id="edge3_Node000003_Node000004" class="edge">
<title>Node3&#45;&gt;Node4</title>
<g id="a_edge3_Node000003_Node000004"><a xlink:title=" ">
<path fill="none" stroke="#63b8ff" d="M279.5,-364.25C301.72,-364.25 327.51,-364.25 348.26,-364.25"/>
<polygon fill="#63b8ff" stroke="#63b8ff" points="348.01,-367.75 358.01,-364.25 348.01,-360.75 348.01,-367.75"/>
</a>
</g>
</g>
<!-- Node7 -->
<g id="Node000007" class="node">
<title>Node7</title>
<g id="a_Node000007"><a xlink:href="../../d8/d40/_grid___computations_8cpp_a079a3910785ad86cffe119a8e3d6a0d4.html#a079a3910785ad86cffe119a8e3d6a0d4" target="_top" xlink:title=" ">
<polygon fill="white" stroke="#666666" points="688.25,-292.88 652,-292.88 652,-273.62 688.25,-273.62 688.25,-292.88"/>
<text text-anchor="middle" x="670.12" y="-279.38" font-family="Helvetica,sans-Serif" font-size="10.00">Print</text>
</a>
</g>
</g>
<!-- Node6&#45;&gt;Node7 -->
<g id="edge6_Node000006_Node000007" class="edge">
<title>Node6&#45;&gt;Node7</title>
<g id="a_edge6_Node000006_Node000007"><a xlink:title=" ">
<path fill="none" stroke="#63b8ff" d="M616.39,-283.25C624.72,-283.25 632.87,-283.25 640.19,-283.25"/>
<polygon fill="#63b8ff" stroke="#63b8ff" points="640.07,-286.75 650.07,-283.25 640.07,-279.75 640.07,-286.75"/>
</a>
</g>
</g>
<!-- Node7&#45;&gt;Node7 -->
<g id="edge7_Node000007_Node000007" class="edge">
<title>Node7&#45;&gt;Node7</title>
<g id="a_edge7_Node000007_Node000007"><a xlink:title=" ">
<path fill="none" stroke="#63b8ff" d="M651.65,-292.88C642.66,-301.57 648.82,-310.88 670.12,-310.88 682.11,-310.88 689.3,-307.93 691.7,-303.81"/>
<polygon fill="#63b8ff" stroke="#63b8ff" points="695.11,-303 689.01,-294.33 688.38,-304.91 695.11,-303"/>
</a>
</g>
</g>
<!-- Node10 -->
<g id="Node000010" class="node">
<title>Node10</title>
<g id="a_Node000010"><a xlink:href="../../d8/d40/_grid___computations_8cpp_a7e6f11445e90cefdcb91f369846ec691.html#a7e6f11445e90cefdcb91f369846ec691" target="_top" xlink:title=" ">
<polygon fill="white" stroke="#666666" points="445.12,-277.5 330.88,-277.5 330.88,-247 445.12,-247 445.12,-277.5"/>
<text text-anchor="start" x="338.88" y="-264" font-family="Helvetica,sans-Serif" font-size="10.00">Calculate_Cell_Center</text>
<text text-anchor="middle" x="388" y="-252.75" font-family="Helvetica,sans-Serif" font-size="10.00">_Distances</text>
</a>
</g>
</g>
<!-- Node9&#45;&gt;Node10 -->
<g id="edge10_Node000009_Node000010" class="edge">
<title>Node9&#45;&gt;Node10</title>
<g id="a_edge10_Node000009_Node000010"><a xlink:title=" ">
<path fill="none" stroke="#63b8ff" d="M255.36,-210.35C277.34,-219.01 309.65,-231.75 336.76,-242.44"/>
<polygon fill="#63b8ff" stroke="#63b8ff" points="335.25,-245.61 345.84,-246.02 337.82,-239.1 335.25,-245.61"/>
</a>
</g>
</g>
<!-- Node11 -->
<g id="Node000011" class="node">
<title>Node11</title>
<g id="a_Node000011"><a xlink:href="../../d8/d40/_grid___computations_8cpp_a209db16fba143a9833c8d4021624afb0.html#a209db16fba143a9833c8d4021624afb0" target="_top" xlink:title=" ">
<polygon fill="white" stroke="#666666" points="586.38,-228.88 514.12,-228.88 514.12,-209.62 586.38,-209.62 586.38,-228.88"/>
<text text-anchor="middle" x="550.25" y="-215.38" font-family="Helvetica,sans-Serif" font-size="10.00">Check_Cells</text>
</a>
</g>
</g>
<!-- Node9&#45;&gt;Node11 -->
<g id="edge12_Node000009_Node000011" class="edge">
<title>Node9&#45;&gt;Node11</title>
<g id="a_edge12_Node000009_Node000011"><a xlink:title=" ">
<path fill="none" stroke="#63b8ff" d="M262.14,-202.18C319.01,-205.56 436.99,-212.57 502.63,-216.48"/>
<polygon fill="#63b8ff" stroke="#63b8ff" points="502.16,-219.96 512.35,-217.06 502.58,-212.97 502.16,-219.96"/>
</a>
</g>
</g>
<!-- Node12 -->
<g id="Node000012" class="node">
<title>Node12</title>
<g id="a_Node000012"><a xlink:href="../../df/daf/_co___volume___grid___computations_8cpp_a097cceef075e862683dd9f6e95d091d4.html#a097cceef075e862683dd9f6e95d091d4" target="_top" xlink:title=" ">
<polygon fill="white" stroke="#666666" points="448.12,-116.88 327.88,-116.88 327.88,-97.62 448.12,-97.62 448.12,-116.88"/>
<text text-anchor="middle" x="388" y="-103.38" font-family="Helvetica,sans-Serif" font-size="10.00">Construct_Co_Volumes</text>
</a>
</g>
</g>
<!-- Node9&#45;&gt;Node12 -->
<g id="edge13_Node000009_Node000012" class="edge">
<title>Node9&#45;&gt;Node12</title>
<g id="a_edge13_Node000009_Node000012"><a xlink:title=" ">
<path fill="none" stroke="#63b8ff" d="M262.25,-195.42C272.34,-192.76 283.03,-188.63 291.5,-182.25 315.43,-164.22 303.66,-143.4 327.5,-125.25 328.66,-124.37 329.86,-123.53 331.1,-122.73"/>
<polygon fill="#63b8ff" stroke="#63b8ff" points="332.64,-125.88 339.82,-118.09 329.35,-119.7 332.64,-125.88"/>
</a>
</g>
</g>
<!-- Node15 -->
<g id="Node000015" class="node">
<title>Node15</title>
<g id="a_Node000015"><a xlink:href="../../d8/d40/_grid___computations_8cpp_ae5f2b7a0fdbc48f8fdf897222b7ded04.html#ae5f2b7a0fdbc48f8fdf897222b7ded04" target="_top" xlink:title=" ">
<polygon fill="white" stroke="#666666" points="447,-153.88 329,-153.88 329,-134.62 447,-134.62 447,-153.88"/>
<text text-anchor="middle" x="388" y="-140.38" font-family="Helvetica,sans-Serif" font-size="10.00">Construct_Ghost_Cells</text>
</a>
</g>
</g>
<!-- Node9&#45;&gt;Node15 -->
<g id="edge16_Node000009_Node000015" class="edge">
<title>Node9&#45;&gt;Node15</title>
<g id="a_edge16_Node000009_Node000015"><a xlink:title=" ">
<path fill="none" stroke="#63b8ff" d="M262.27,-192.24C271.84,-189.49 282.23,-186.12 291.5,-182.25 308.39,-175.2 310.64,-169.38 327.5,-162.25 331.09,-160.73 334.85,-159.28 338.66,-157.92"/>
<polygon fill="#63b8ff" stroke="#63b8ff" points="339.64,-161.28 348,-154.77 337.4,-154.65 339.64,-161.28"/>
</a>
</g>
</g>
<!-- Node17 -->
<g id="Node000017" class="node">
<title>Node17</title>
<g id="a_Node000017"><a xlink:href="../../d8/d40/_grid___computations_8cpp_a663d4b3ae06e638c2f2e82ad437e831e.html#a663d4b3ae06e638c2f2e82ad437e831e" target="_top" xlink:title="Reads the input grid file and constructs physical cells, evaluates face areas, normals,...">
<polygon fill="white" stroke="#666666" points="419.25,-190.88 356.75,-190.88 356.75,-171.62 419.25,-171.62 419.25,-190.88"/>
<text text-anchor="middle" x="388" y="-177.38" font-family="Helvetica,sans-Serif" font-size="10.00">Read_Grid</text>
</a>
</g>
</g>
<!-- Node9&#45;&gt;Node17 -->
<g id="edge18_Node000009_Node000017" class="edge">
<title>Node9&#45;&gt;Node17</title>
<g id="a_edge18_Node000009_Node000017"><a xlink:title=" ">
<path fill="none" stroke="#63b8ff" d="M262.33,-196.31C286.28,-193.42 319.03,-189.46 344.96,-186.33"/>
<polygon fill="#63b8ff" stroke="#63b8ff" points="345.32,-189.81 354.83,-185.14 344.48,-182.86 345.32,-189.81"/>
</a>
</g>
</g>
<!-- Node10&#45;&gt;Node6 -->
<g id="edge11_Node000010_Node000006" class="edge">
<title>Node10&#45;&gt;Node6</title>
<g id="a_edge11_Node000010_Node000006"><a xlink:title=" ">
<path fill="none" stroke="#63b8ff" d="M445.5,-269.65C454.4,-270.82 463.74,-272.04 473,-273.26"/>
<polygon fill="#63b8ff" stroke="#63b8ff" points="472.36,-276.7 482.73,-274.53 473.27,-269.76 472.36,-276.7"/>
</a>
</g>
</g>
<!-- Node13 -->
<g id="Node000013" class="node">
<title>Node13</title>
<g id="a_Node000013"><a xlink:href="../../d8/d40/_grid___computations_8cpp_a0d19b951f556ac7a935819a38d2e1a6f.html#a0d19b951f556ac7a935819a38d2e1a6f" target="_top" xlink:title=" ">
<polygon fill="white" stroke="#666666" points="593.12,-116.88 507.38,-116.88 507.38,-97.62 593.12,-97.62 593.12,-116.88"/>
<text text-anchor="middle" x="550.25" y="-103.38" font-family="Helvetica,sans-Serif" font-size="10.00">Construct_Face</text>
</a>
</g>
</g>
<!-- Node12&#45;&gt;Node13 -->
<g id="edge14_Node000012_Node000013" class="edge">
<title>Node12&#45;&gt;Node13</title>
<g id="a_edge14_Node000012_Node000013"><a xlink:title=" ">
<path fill="none" stroke="#63b8ff" d="M448.22,-107.25C463.85,-107.25 480.62,-107.25 495.92,-107.25"/>
<polygon fill="#63b8ff" stroke="#63b8ff" points="495.77,-110.75 505.77,-107.25 495.77,-103.75 495.77,-110.75"/>
</a>
</g>
</g>
<!-- Node14 -->
<g id="Node000014" class="node">
<title>Node14</title>
<g id="a_Node000014"><a xlink:href="../../d8/d40/_grid___computations_8cpp_a29418163b6fbd0aa81c60026e430d0b8.html#a29418163b6fbd0aa81c60026e430d0b8" target="_top" xlink:title=" ">
<polygon fill="white" stroke="#666666" points="612.62,-79.88 487.88,-79.88 487.88,-60.62 612.62,-60.62 612.62,-79.88"/>
<text text-anchor="middle" x="550.25" y="-66.38" font-family="Helvetica,sans-Serif" font-size="10.00">Evaluate_Cross_Product</text>
</a>
</g>
</g>
<!-- Node12&#45;&gt;Node14 -->
<g id="edge15_Node000012_Node000014" class="edge">
<title>Node12&#45;&gt;Node14</title>
<g id="a_edge15_Node000012_Node000014"><a xlink:title=" ">
<path fill="none" stroke="#63b8ff" d="M432.79,-97.14C451.78,-92.75 474.22,-87.57 494.32,-82.93"/>
<polygon fill="#63b8ff" stroke="#63b8ff" points="495.08,-86.35 504.04,-80.69 493.51,-79.53 495.08,-86.35"/>
</a>
</g>
</g>
<!-- Node16 -->
<g id="Node000016" class="node">
<title>Node16</title>
<g id="a_Node000016"><a xlink:href="../../d8/d40/_grid___computations_8cpp_a2d284e26ddef582519953e8b8300184e.html#a2d284e26ddef582519953e8b8300184e" target="_top" xlink:title=" ">
<polygon fill="white" stroke="#666666" points="590.88,-153.88 509.62,-153.88 509.62,-134.62 590.88,-134.62 590.88,-153.88"/>
<text text-anchor="middle" x="550.25" y="-140.38" font-family="Helvetica,sans-Serif" font-size="10.00">Construct_Cell</text>
</a>
</g>
</g>
<!-- Node15&#45;&gt;Node16 -->
<g id="edge17_Node000015_Node000016" class="edge">
<title>Node15&#45;&gt;Node16</title>
<g id="a_edge17_Node000015_Node000016"><a xlink:title=" ">
<path fill="none" stroke="#63b8ff" d="M447.31,-144.25C463.87,-144.25 481.78,-144.25 497.9,-144.25"/>
<polygon fill="#63b8ff" stroke="#63b8ff" points="497.76,-147.75 507.76,-144.25 497.76,-140.75 497.76,-147.75"/>
</a>
</g>
</g>
<!-- Node17&#45;&gt;Node11 -->
<g id="edge19_Node000017_Node000011" class="edge">
<title>Node17&#45;&gt;Node11</title>
<g id="a_edge19_Node000017_Node000011"><a xlink:title=" ">
<path fill="none" stroke="#63b8ff" d="M419.52,-188.49C443.04,-194.06 475.96,-201.87 502.75,-208.22"/>
<polygon fill="#63b8ff" stroke="#63b8ff" points="501.81,-211.6 512.34,-210.5 503.42,-204.79 501.81,-211.6"/>
</a>
</g>
</g>
<!-- Node17&#45;&gt;Node16 -->
<g id="edge20_Node000017_Node000016" class="edge">
<title>Node17&#45;&gt;Node16</title>
<g id="a_edge20_Node000017_Node000016"><a xlink:title=" ">
<path fill="none" stroke="#63b8ff" d="M419.52,-174.2C441.67,-169.09 472.16,-162.05 498.01,-156.08"/>
<polygon fill="#63b8ff" stroke="#63b8ff" points="498.71,-159.51 507.67,-153.85 497.14,-152.69 498.71,-159.51"/>
</a>
</g>
</g>
<!-- Node18 -->
<g id="Node000018" class="node">
<title>Node18</title>
<g id="a_Node000018"><a xlink:href="../../d8/d40/_grid___computations_8cpp_aa376223dcb91990013ac6549090115ea.html#aa376223dcb91990013ac6549090115ea" target="_top" xlink:title=" ">
<polygon fill="white" stroke="#666666" points="599.5,-190.88 501,-190.88 501,-171.62 599.5,-171.62 599.5,-190.88"/>
<text text-anchor="middle" x="550.25" y="-177.38" font-family="Helvetica,sans-Serif" font-size="10.00">Conversion_Factor</text>
</a>
</g>
</g>
<!-- Node17&#45;&gt;Node18 -->
<g id="edge21_Node000017_Node000018" class="edge">
<title>Node17&#45;&gt;Node18</title>
<g id="a_edge21_Node000017_Node000018"><a xlink:title=" ">
<path fill="none" stroke="#63b8ff" d="M419.52,-181.25C439.19,-181.25 465.42,-181.25 489.16,-181.25"/>
<polygon fill="#63b8ff" stroke="#63b8ff" points="489.05,-184.75 499.05,-181.25 489.05,-177.75 489.05,-184.75"/>
</a>
</g>
</g>
<!-- Node20&#45;&gt;Node19 -->
<g id="edge26_Node000020_Node000019" class="edge">
<title>Node20&#45;&gt;Node19</title>
<g id="a_edge26_Node000020_Node000019"><a xlink:title=" ">
<path fill="none" stroke="#63b8ff" d="M255.01,-65.09C271.8,-64.98 294.72,-64.84 316.76,-64.7"/>
<polygon fill="#63b8ff" stroke="#63b8ff" points="316.67,-68.2 326.65,-64.63 316.63,-61.2 316.67,-68.2"/>
</a>
</g>
</g>
<!-- Node21 -->
<g id="Node000021" class="node">
<title>Node21</title>
<g id="a_Node000021"><a xlink:href="../../d4/d5d/_grid___refine___functions_8cpp_add867401ba6818c3d6480ec342cb0eaa.html#add867401ba6818c3d6480ec342cb0eaa" target="_top" xlink:title="Identifies the secondary neighbors of a given cell to evaluate second gradients.">
<polygon fill="white" stroke="#666666" points="448.5,-30.5 327.5,-30.5 327.5,0 448.5,0 448.5,-30.5"/>
<text text-anchor="start" x="335.5" y="-17" font-family="Helvetica,sans-Serif" font-size="10.00">Identify_Neighbours</text>
<text text-anchor="middle" x="388" y="-5.75" font-family="Helvetica,sans-Serif" font-size="10.00">_For_Second_Gradients</text>
</a>
</g>
</g>
<!-- Node20&#45;&gt;Node21 -->
<g id="edge24_Node000020_Node000021" class="edge">
<title>Node20&#45;&gt;Node21</title>
<g id="a_edge24_Node000020_Node000021"><a xlink:title=" ">
<path fill="none" stroke="#63b8ff" d="M255.05,-58.12C266.25,-54.9 279.56,-50.99 291.5,-47.25 304.28,-43.25 317.95,-38.78 330.85,-34.48"/>
<polygon fill="#63b8ff" stroke="#63b8ff" points="331.65,-37.9 340.02,-31.4 329.43,-31.26 331.65,-37.9"/>
</a>
</g>
</g>
<!-- Node22 -->
<g id="Node000022" class="node">
<title>Node22</title>
<g id="a_Node000022"><a xlink:href="../../d3/dd4/_gradients_8cpp_a841d8b51ae49ac6ee37c9246228c1f89.html#a841d8b51ae49ac6ee37c9246228c1f89" target="_top" xlink:title="Identifies the secondary neighbors of a given cell to evaluate second gradients.">
<polygon fill="white" stroke="#666666" points="587.12,-24.88 513.38,-24.88 513.38,-5.63 587.12,-5.63 587.12,-24.88"/>
<text text-anchor="middle" x="550.25" y="-11.38" font-family="Helvetica,sans-Serif" font-size="10.00">getNeighbour</text>
</a>
</g>
</g>
<!-- Node21&#45;&gt;Node22 -->
<g id="edge25_Node000021_Node000022" class="edge">
<title>Node21&#45;&gt;Node22</title>
<g id="a_edge25_Node000021_Node000022"><a xlink:title=" ">
<path fill="none" stroke="#63b8ff" d="M448.67,-15.25C466.31,-15.25 485.37,-15.25 502.11,-15.25"/>
<polygon fill="#63b8ff" stroke="#63b8ff" points="501.76,-18.75 511.76,-15.25 501.76,-11.75 501.76,-18.75"/>
</a>
</g>
</g>
</g>
</svg>
