<?xml version="1.0" encoding="UTF-8" standalone="no"?>
<!DOCTYPE svg PUBLIC "-//W3C//DTD SVG 1.1//EN"
 "http://www.w3.org/Graphics/SVG/1.1/DTD/svg11.dtd">
<!-- Generated by graphviz version 12.2.1 (20241206.2353)
 -->
<!-- Title: main Pages: 1 -->
<svg width="344pt" height="476pt"
 viewBox="0.00 0.00 344.00 476.25" xmlns="http://www.w3.org/2000/svg" xmlns:xlink="http://www.w3.org/1999/xlink">
<g id="graph0" class="graph" transform="scale(1 1) rotate(0) translate(4 472.25)">
<title>main</title>
<!-- Node1 -->
<g id="Node000001" class="node">
<title>Node1</title>
<g id="a_Node000001"><a xlink:title=" ">
<polygon fill="#999999" stroke="#666666" points="37,-222.25 0,-222.25 0,-203 37,-203 37,-222.25"/>
<text text-anchor="middle" x="18.5" y="-208.75" font-family="Helvetica,sans-Serif" font-size="10.00">main</text>
</a>
</g>
</g>
<!-- Node2 -->
<g id="Node000002" class="node">
<title>Node2</title>
<g id="a_Node000002"><a xlink:href="../../d2/daf/_flow___over___cylinder__1_8cpp_a36606ab9028521932c9b05107d8e2c58.html#a36606ab9028521932c9b05107d8e2c58" target="_top" xlink:title=" ">
<polygon fill="white" stroke="#666666" points="159.5,-431.25 89.5,-431.25 89.5,-412 159.5,-412 159.5,-431.25"/>
<text text-anchor="middle" x="124.5" y="-417.75" font-family="Helvetica,sans-Serif" font-size="10.00">Append_List</text>
</a>
</g>
</g>
<!-- Node1&#45;&gt;Node2 -->
<g id="edge1_Node000001_Node000002" class="edge">
<title>Node1&#45;&gt;Node2</title>
<g id="a_edge1_Node000001_Node000002"><a xlink:title=" ">
<path fill="none" stroke="#63b8ff" d="M19.29,-222.44C19.15,-253.38 22.96,-349.99 73,-403.62 74.92,-405.68 77.08,-407.5 79.42,-409.11"/>
<polygon fill="#63b8ff" stroke="#63b8ff" points="77.26,-411.92 87.71,-413.64 80.61,-405.78 77.26,-411.92"/>
</a>
</g>
</g>
<!-- Node3 -->
<g id="Node000003" class="node">
<title>Node3</title>
<g id="a_Node000003"><a xlink:href="../../dd/db4/class_line_a11ee9e238e8e0d712b52ae99077355ee.html#a11ee9e238e8e0d712b52ae99077355ee" target="_top" xlink:title=" ">
<polygon fill="white" stroke="#666666" points="163.25,-394.25 85.75,-394.25 85.75,-375 163.25,-375 163.25,-394.25"/>
<text text-anchor="middle" x="124.5" y="-380.75" font-family="Helvetica,sans-Serif" font-size="10.00">Line::generate</text>
</a>
</g>
</g>
<!-- Node1&#45;&gt;Node3 -->
<g id="edge2_Node000001_Node000003" class="edge">
<title>Node1&#45;&gt;Node3</title>
<g id="a_edge2_Node000001_Node000003"><a xlink:title=" ">
<path fill="none" stroke="#63b8ff" d="M20.56,-222.49C23.78,-248.16 35.69,-317.94 73,-359.62 76.19,-363.19 80.01,-366.31 84.1,-369.02"/>
<polygon fill="#63b8ff" stroke="#63b8ff" points="82.21,-371.97 92.64,-373.87 85.67,-365.89 82.21,-371.97"/>
</a>
</g>
</g>
<!-- Node7 -->
<g id="Node000007" class="node">
<title>Node7</title>
<g id="a_Node000007"><a xlink:href="../../d0/d69/class_point_a006470547553ab6cfaacfea891970f8a.html#a006470547553ab6cfaacfea891970f8a" target="_top" xlink:title=" ">
<polygon fill="white" stroke="#666666" points="306.38,-357.25 241.62,-357.25 241.62,-338 306.38,-338 306.38,-357.25"/>
<text text-anchor="middle" x="274" y="-343.75" font-family="Helvetica,sans-Serif" font-size="10.00">Point::Print</text>
</a>
</g>
</g>
<!-- Node1&#45;&gt;Node7 -->
<g id="edge18_Node000001_Node000007" class="edge">
<title>Node1&#45;&gt;Node7</title>
<g id="a_edge18_Node000001_Node000007"><a xlink:title=" ">
<path fill="none" stroke="#63b8ff" d="M20.97,-222.43C24.87,-244.77 37.74,-299.46 73,-324.62 118.87,-357.36 186.28,-357.98 229.92,-353.96"/>
<polygon fill="#63b8ff" stroke="#63b8ff" points="230.2,-357.45 239.78,-352.92 229.46,-350.49 230.2,-357.45"/>
</a>
</g>
</g>
<!-- Node8 -->
<g id="Node000008" class="node">
<title>Node8</title>
<g id="a_Node000008"><a xlink:href="../../d2/daf/_flow___over___cylinder__1_8cpp_a198e232411110d9bb41f8028ce67ccd7.html#a198e232411110d9bb41f8028ce67ccd7" target="_top" xlink:title=" ">
<polygon fill="white" stroke="#666666" points="162.5,-315.25 86.5,-315.25 86.5,-296 162.5,-296 162.5,-315.25"/>
<text text-anchor="middle" x="124.5" y="-301.75" font-family="Helvetica,sans-Serif" font-size="10.00">Generate_Arc</text>
</a>
</g>
</g>
<!-- Node1&#45;&gt;Node8 -->
<g id="edge7_Node000001_Node000008" class="edge">
<title>Node1&#45;&gt;Node8</title>
<g id="a_edge7_Node000001_Node000008"><a xlink:title=" ">
<path fill="none" stroke="#63b8ff" d="M24.11,-222.62C31.96,-238.57 49.39,-269.79 73,-287.62 74.3,-288.61 75.66,-289.54 77.06,-290.42"/>
<polygon fill="#63b8ff" stroke="#63b8ff" points="75,-293.29 85.47,-294.88 78.27,-287.1 75,-293.29"/>
</a>
</g>
</g>
<!-- Node9 -->
<g id="Node000009" class="node">
<title>Node9</title>
<g id="a_Node000009"><a xlink:href="../../da/d74/class_grid_ab929318e5ef123712523299305dfe12f.html#ab929318e5ef123712523299305dfe12f" target="_top" xlink:title=" ">
<polygon fill="white" stroke="#666666" points="176,-278.25 73,-278.25 73,-259 176,-259 176,-278.25"/>
<text text-anchor="middle" x="124.5" y="-264.75" font-family="Helvetica,sans-Serif" font-size="10.00">Grid::Generate_Grid</text>
</a>
</g>
</g>
<!-- Node1&#45;&gt;Node9 -->
<g id="edge8_Node000001_Node000009" class="edge">
<title>Node1&#45;&gt;Node9</title>
<g id="a_edge8_Node000001_Node000009"><a xlink:title=" ">
<path fill="none" stroke="#63b8ff" d="M31.63,-222.72C42.08,-231.04 57.84,-242.73 73,-250.62 75.49,-251.92 78.1,-253.16 80.76,-254.35"/>
<polygon fill="#63b8ff" stroke="#63b8ff" points="79.17,-257.48 89.75,-258.02 81.81,-251 79.17,-257.48"/>
</a>
</g>
</g>
<!-- Node15 -->
<g id="Node000015" class="node">
<title>Node15</title>
<g id="a_Node000015"><a xlink:href="../../da/d74/class_grid_ada712360e862dad0f75e839a3c52fc14.html#ada712360e862dad0f75e839a3c52fc14" target="_top" xlink:title=" ">
<polygon fill="white" stroke="#666666" points="174.5,-241.25 74.5,-241.25 74.5,-222 174.5,-222 174.5,-241.25"/>
<text text-anchor="middle" x="124.5" y="-227.75" font-family="Helvetica,sans-Serif" font-size="10.00">Grid::Get_Grid_List</text>
</a>
</g>
</g>
<!-- Node1&#45;&gt;Node15 -->
<g id="edge14_Node000001_Node000015" class="edge">
<title>Node1&#45;&gt;Node15</title>
<g id="a_edge14_Node000001_Node000015"><a xlink:title=" ">
<path fill="none" stroke="#63b8ff" d="M37.14,-215.85C44.56,-217.2 53.66,-218.87 63.14,-220.6"/>
<polygon fill="#63b8ff" stroke="#63b8ff" points="62.41,-224.02 72.88,-222.38 63.67,-217.14 62.41,-224.02"/>
</a>
</g>
</g>
<!-- Node16 -->
<g id="Node000016" class="node">
<title>Node16</title>
<g id="a_Node000016"><a xlink:href="../../dd/db4/class_line_a11d1062afe4e7ccc91002d5a2b9b8b7d.html#a11d1062afe4e7ccc91002d5a2b9b8b7d" target="_top" xlink:title=" ">
<polygon fill="white" stroke="#666666" points="175.25,-204.25 73.75,-204.25 73.75,-185 175.25,-185 175.25,-204.25"/>
<text text-anchor="middle" x="124.5" y="-190.75" font-family="Helvetica,sans-Serif" font-size="10.00">Line::Get_Point_list</text>
</a>
</g>
</g>
<!-- Node1&#45;&gt;Node16 -->
<g id="edge15_Node000001_Node000016" class="edge">
<title>Node1&#45;&gt;Node16</title>
<g id="a_edge15_Node000001_Node000016"><a xlink:title=" ">
<path fill="none" stroke="#63b8ff" d="M37.14,-209.57C44.31,-208.33 53.06,-206.82 62.2,-205.23"/>
<polygon fill="#63b8ff" stroke="#63b8ff" points="62.72,-208.7 71.98,-203.54 61.53,-201.8 62.72,-208.7"/>
</a>
</g>
</g>
<!-- Node17 -->
<g id="Node000017" class="node">
<title>Node17</title>
<g id="a_Node000017"><a xlink:href="../../da/d2e/_geometry___header_8h_a2ac99b79a96c903fd960b3f472e9ab11.html#a2ac99b79a96c903fd960b3f472e9ab11" target="_top" xlink:title=" ">
<polygon fill="white" stroke="#666666" points="162.5,-167.25 86.5,-167.25 86.5,-148 162.5,-148 162.5,-167.25"/>
<text text-anchor="middle" x="124.5" y="-153.75" font-family="Helvetica,sans-Serif" font-size="10.00">Identify_Cells</text>
</a>
</g>
</g>
<!-- Node1&#45;&gt;Node17 -->
<g id="edge16_Node000001_Node000017" class="edge">
<title>Node1&#45;&gt;Node17</title>
<g id="a_edge16_Node000001_Node000017"><a xlink:title=" ">
<path fill="none" stroke="#63b8ff" d="M31.67,-202.82C42.15,-194.73 57.93,-183.35 73,-175.62 75.5,-174.34 78.11,-173.11 80.78,-171.94"/>
<polygon fill="#63b8ff" stroke="#63b8ff" points="81.83,-175.29 89.77,-168.29 79.19,-168.81 81.83,-175.29"/>
</a>
</g>
</g>
<!-- Node18 -->
<g id="Node000018" class="node">
<title>Node18</title>
<g id="a_Node000018"><a xlink:href="../../da/d2e/_geometry___header_8h_ae140d7cd47fc17901100baa1c301a638.html#ae140d7cd47fc17901100baa1c301a638" target="_top" xlink:title=" ">
<polygon fill="white" stroke="#666666" points="176,-130.25 73,-130.25 73,-111 176,-111 176,-130.25"/>
<text text-anchor="middle" x="124.5" y="-116.75" font-family="Helvetica,sans-Serif" font-size="10.00">Identify_Neighbours</text>
</a>
</g>
</g>
<!-- Node1&#45;&gt;Node18 -->
<g id="edge17_Node000001_Node000018" class="edge">
<title>Node1&#45;&gt;Node18</title>
<g id="a_edge17_Node000001_Node000018"><a xlink:title=" ">
<path fill="none" stroke="#63b8ff" d="M24.28,-202.51C32.24,-186.7 49.67,-156.13 73,-138.62 74.3,-137.65 75.66,-136.72 77.07,-135.84"/>
<polygon fill="#63b8ff" stroke="#63b8ff" points="78.28,-139.16 85.49,-131.4 75.01,-132.97 78.28,-139.16"/>
</a>
</g>
</g>
<!-- Node19 -->
<g id="Node000019" class="node">
<title>Node19</title>
<g id="a_Node000019"><a xlink:href="../../d2/daf/_flow___over___cylinder__1_8cpp_a8ee981e0b0c6268774eb6bd3bbd0ba13.html#a8ee981e0b0c6268774eb6bd3bbd0ba13" target="_top" xlink:title=" ">
<polygon fill="white" stroke="#666666" points="161.38,-93.25 87.62,-93.25 87.62,-74 161.38,-74 161.38,-93.25"/>
<text text-anchor="middle" x="124.5" y="-79.75" font-family="Helvetica,sans-Serif" font-size="10.00">Reverse_List</text>
</a>
</g>
</g>
<!-- Node1&#45;&gt;Node19 -->
<g id="edge19_Node000001_Node000019" class="edge">
<title>Node1&#45;&gt;Node19</title>
<g id="a_edge19_Node000001_Node000019"><a xlink:title=" ">
<path fill="none" stroke="#63b8ff" d="M21.57,-202.8C26.57,-181.37 41.33,-130.08 73,-101.62 74.43,-100.34 75.95,-99.15 77.55,-98.04"/>
<polygon fill="#63b8ff" stroke="#63b8ff" points="79,-101.24 86.01,-93.3 75.57,-95.14 79,-101.24"/>
</a>
</g>
</g>
<!-- Node20 -->
<g id="Node000020" class="node">
<title>Node20</title>
<g id="a_Node000020"><a xlink:href="../../da/d2e/_geometry___header_8h_a7baf55700c2b5381dad50d86595147ce.html#a7baf55700c2b5381dad50d86595147ce" target="_top" xlink:title=" ">
<polygon fill="white" stroke="#666666" points="162.5,-56.25 86.5,-56.25 86.5,-37 162.5,-37 162.5,-56.25"/>
<text text-anchor="middle" x="124.5" y="-42.75" font-family="Helvetica,sans-Serif" font-size="10.00">write_inputfile</text>
</a>
</g>
</g>
<!-- Node1&#45;&gt;Node20 -->
<g id="edge20_Node000001_Node000020" class="edge">
<title>Node1&#45;&gt;Node20</title>
<g id="a_edge20_Node000001_Node000020"><a xlink:title=" ">
<path fill="none" stroke="#63b8ff" d="M20.22,-202.82C22.68,-176.67 32.92,-104.53 73,-64.62 74.17,-63.46 75.43,-62.36 76.75,-61.34"/>
<polygon fill="#63b8ff" stroke="#63b8ff" points="78.21,-64.55 84.92,-56.35 74.56,-58.57 78.21,-64.55"/>
</a>
</g>
</g>
<!-- Node21 -->
<g id="Node000021" class="node">
<title>Node21</title>
<g id="a_Node000021"><a xlink:href="../../da/d2e/_geometry___header_8h_a9ea27b1ee84e8c88611feddac621c2a3.html#a9ea27b1ee84e8c88611feddac621c2a3" target="_top" xlink:title=" ">
<polygon fill="white" stroke="#666666" points="155.38,-19.25 93.62,-19.25 93.62,0 155.38,0 155.38,-19.25"/>
<text text-anchor="middle" x="124.5" y="-5.75" font-family="Helvetica,sans-Serif" font-size="10.00">write_VTK</text>
</a>
</g>
</g>
<!-- Node1&#45;&gt;Node21 -->
<g id="edge21_Node000001_Node000021" class="edge">
<title>Node1&#45;&gt;Node21</title>
<g id="a_edge21_Node000001_Node000021"><a xlink:title=" ">
<path fill="none" stroke="#63b8ff" d="M19.39,-202.68C19.61,-172.24 24.43,-79.25 73,-27.62 75.88,-24.56 79.32,-22.02 83.02,-19.91"/>
<polygon fill="#63b8ff" stroke="#63b8ff" points="84.22,-23.21 91.88,-15.9 81.33,-16.84 84.22,-23.21"/>
</a>
</g>
</g>
<!-- Node4 -->
<g id="Node000004" class="node">
<title>Node4</title>
<g id="a_Node000004"><a xlink:href="../../d0/d69/class_point_abbb39fe4de098ab24cd45d251656f080.html#abbb39fe4de098ab24cd45d251656f080" target="_top" xlink:title=" ">
<polygon fill="white" stroke="#666666" points="309.38,-468.25 238.62,-468.25 238.62,-449 309.38,-449 309.38,-468.25"/>
<text text-anchor="middle" x="274" y="-454.75" font-family="Helvetica,sans-Serif" font-size="10.00">Point::Get_x</text>
</a>
</g>
</g>
<!-- Node3&#45;&gt;Node4 -->
<g id="edge3_Node000003_Node000004" class="edge">
<title>Node3&#45;&gt;Node4</title>
<g id="a_edge3_Node000003_Node000004"><a xlink:title=" ">
<path fill="none" stroke="#63b8ff" d="M160.48,-394.65C165.89,-396.88 171.24,-399.53 176,-402.62 195.49,-415.32 192.16,-428.47 212,-440.62 216.88,-443.61 222.28,-446.13 227.79,-448.24"/>
<polygon fill="#63b8ff" stroke="#63b8ff" points="226.39,-451.46 236.99,-451.34 228.63,-444.83 226.39,-451.46"/>
</a>
</g>
</g>
<!-- Node5 -->
<g id="Node000005" class="node">
<title>Node5</title>
<g id="a_Node000005"><a xlink:href="../../d0/d69/class_point_aa0c14d8298c960cc61ebeb5fbe33653b.html#aa0c14d8298c960cc61ebeb5fbe33653b" target="_top" xlink:title=" ">
<polygon fill="white" stroke="#666666" points="309.38,-431.25 238.62,-431.25 238.62,-412 309.38,-412 309.38,-431.25"/>
<text text-anchor="middle" x="274" y="-417.75" font-family="Helvetica,sans-Serif" font-size="10.00">Point::Get_y</text>
</a>
</g>
</g>
<!-- Node3&#45;&gt;Node5 -->
<g id="edge4_Node000003_Node000005" class="edge">
<title>Node3&#45;&gt;Node5</title>
<g id="a_edge4_Node000003_Node000005"><a xlink:title=" ">
<path fill="none" stroke="#63b8ff" d="M163.48,-394.15C182.93,-399.03 206.75,-405.01 227.21,-410.14"/>
<polygon fill="#63b8ff" stroke="#63b8ff" points="226.16,-413.48 236.71,-412.52 227.86,-406.69 226.16,-413.48"/>
</a>
</g>
</g>
<!-- Node6 -->
<g id="Node000006" class="node">
<title>Node6</title>
<g id="a_Node000006"><a xlink:href="../../d0/d69/class_point_ac06dbc3b4797e5c498b58c81a70c02a9.html#ac06dbc3b4797e5c498b58c81a70c02a9" target="_top" xlink:title=" ">
<polygon fill="white" stroke="#666666" points="309.38,-394.25 238.62,-394.25 238.62,-375 309.38,-375 309.38,-394.25"/>
<text text-anchor="middle" x="274" y="-380.75" font-family="Helvetica,sans-Serif" font-size="10.00">Point::Get_z</text>
</a>
</g>
</g>
<!-- Node3&#45;&gt;Node6 -->
<g id="edge5_Node000003_Node000006" class="edge">
<title>Node3&#45;&gt;Node6</title>
<g id="a_edge5_Node000003_Node000006"><a xlink:title=" ">
<path fill="none" stroke="#63b8ff" d="M163.48,-384.62C182.84,-384.62 206.53,-384.62 226.92,-384.62"/>
<polygon fill="#63b8ff" stroke="#63b8ff" points="226.66,-388.13 236.66,-384.63 226.66,-381.13 226.66,-388.13"/>
</a>
</g>
</g>
<!-- Node3&#45;&gt;Node7 -->
<g id="edge6_Node000003_Node000007" class="edge">
<title>Node3&#45;&gt;Node7</title>
<g id="a_edge6_Node000003_Node000007"><a xlink:title=" ">
<path fill="none" stroke="#63b8ff" d="M163.48,-375.1C183.89,-369.98 209.11,-363.65 230.21,-358.36"/>
<polygon fill="#63b8ff" stroke="#63b8ff" points="230.81,-361.82 239.66,-355.99 229.11,-355.03 230.81,-361.82"/>
</a>
</g>
</g>
<!-- Node10 -->
<g id="Node000010" class="node">
<title>Node10</title>
<g id="a_Node000010"><a xlink:href="../../da/d74/class_grid_a90c5271ba6fdba6112a562693bd9a0f2.html#a90c5271ba6fdba6112a562693bd9a0f2" target="_top" xlink:title=" ">
<polygon fill="white" stroke="#666666" points="308.62,-320.25 239.38,-320.25 239.38,-301 308.62,-301 308.62,-320.25"/>
<text text-anchor="middle" x="274" y="-306.75" font-family="Helvetica,sans-Serif" font-size="10.00">Grid::Elliptic</text>
</a>
</g>
</g>
<!-- Node9&#45;&gt;Node10 -->
<g id="edge9_Node000009_Node000010" class="edge">
<title>Node9&#45;&gt;Node10</title>
<g id="a_edge9_Node000009_Node000010"><a xlink:title=" ">
<path fill="none" stroke="#63b8ff" d="M160.83,-278.69C181.01,-284.43 206.51,-291.69 228.09,-297.84"/>
<polygon fill="#63b8ff" stroke="#63b8ff" points="226.94,-301.15 237.52,-300.52 228.86,-294.42 226.94,-301.15"/>
</a>
</g>
</g>
<!-- Node11 -->
<g id="Node000011" class="node">
<title>Node11</title>
<g id="a_Node000011"><a xlink:href="../../da/d74/class_grid_ac1e989c2a3c81fd365d9ae57e7f15b61.html#ac1e989c2a3c81fd365d9ae57e7f15b61" target="_top" xlink:title=" ">
<polygon fill="white" stroke="#666666" points="326.62,-282.88 221.38,-282.88 221.38,-252.38 326.62,-252.38 326.62,-282.88"/>
<text text-anchor="start" x="229.38" y="-269.38" font-family="Helvetica,sans-Serif" font-size="10.00">Grid::Estimate_Error</text>
<text text-anchor="middle" x="274" y="-258.12" font-family="Helvetica,sans-Serif" font-size="10.00">_and_Update</text>
</a>
</g>
</g>
<!-- Node9&#45;&gt;Node11 -->
<g id="edge10_Node000009_Node000011" class="edge">
<title>Node9&#45;&gt;Node11</title>
<g id="a_edge10_Node000009_Node000011"><a xlink:title=" ">
<path fill="none" stroke="#63b8ff" d="M176.26,-268.28C186.96,-268.21 198.38,-268.13 209.48,-268.06"/>
<polygon fill="#63b8ff" stroke="#63b8ff" points="209.4,-271.56 219.38,-267.99 209.35,-264.56 209.4,-271.56"/>
</a>
</g>
</g>
<!-- Node12 -->
<g id="Node000012" class="node">
<title>Node12</title>
<g id="a_Node000012"><a xlink:href="../../da/d74/class_grid_ab7768e9853f9b8e4530a25d242fdea1b.html#ab7768e9853f9b8e4530a25d242fdea1b" target="_top" xlink:title=" ">
<polygon fill="white" stroke="#666666" points="336,-234.25 212,-234.25 212,-215 336,-215 336,-234.25"/>
<text text-anchor="middle" x="274" y="-220.75" font-family="Helvetica,sans-Serif" font-size="10.00">Grid::Generate_Grid_List</text>
</a>
</g>
</g>
<!-- Node9&#45;&gt;Node12 -->
<g id="edge11_Node000009_Node000012" class="edge">
<title>Node9&#45;&gt;Node12</title>
<g id="a_edge11_Node000009_Node000012"><a xlink:title=" ">
<path fill="none" stroke="#63b8ff" d="M159.34,-258.53C179.79,-252.43 206.09,-244.59 228.24,-237.98"/>
<polygon fill="#63b8ff" stroke="#63b8ff" points="229.03,-241.39 237.61,-235.18 227.03,-234.69 229.03,-241.39"/>
</a>
</g>
</g>
<!-- Node13 -->
<g id="Node000013" class="node">
<title>Node13</title>
<g id="a_Node000013"><a xlink:href="../../da/d74/class_grid_a246dcc7405f9142fc624bafb817ed9fe.html#a246dcc7405f9142fc624bafb817ed9fe" target="_top" xlink:title=" ">
<polygon fill="white" stroke="#666666" points="334.88,-196.88 213.12,-196.88 213.12,-166.38 334.88,-166.38 334.88,-196.88"/>
<text text-anchor="start" x="221.12" y="-183.38" font-family="Helvetica,sans-Serif" font-size="10.00">Grid::Periodic_Boundary</text>
<text text-anchor="middle" x="274" y="-172.12" font-family="Helvetica,sans-Serif" font-size="10.00">_Condition</text>
</a>
</g>
</g>
<!-- Node9&#45;&gt;Node13 -->
<g id="edge12_Node000009_Node000013" class="edge">
<title>Node9&#45;&gt;Node13</title>
<g id="a_edge12_Node000009_Node000013"><a xlink:title=" ">
<path fill="none" stroke="#63b8ff" d="M161.51,-258.6C166.61,-256.4 171.6,-253.76 176,-250.62 196.86,-235.76 191.39,-220.83 212,-205.62 213.32,-204.65 214.68,-203.72 216.07,-202.81"/>
<polygon fill="#63b8ff" stroke="#63b8ff" points="217.45,-206.06 224.39,-198.06 213.97,-199.98 217.45,-206.06"/>
</a>
</g>
</g>
<!-- Node14 -->
<g id="Node000014" class="node">
<title>Node14</title>
<g id="a_Node000014"><a xlink:href="../../da/d74/class_grid_a908819a747032ceba240db6d955ff931.html#a908819a747032ceba240db6d955ff931" target="_top" xlink:title=" ">
<polygon fill="white" stroke="#666666" points="301.5,-148.25 246.5,-148.25 246.5,-129 301.5,-129 301.5,-148.25"/>
<text text-anchor="middle" x="274" y="-134.75" font-family="Helvetica,sans-Serif" font-size="10.00">Grid::TFI</text>
</a>
</g>
</g>
<!-- Node9&#45;&gt;Node14 -->
<g id="edge13_Node000009_Node000014" class="edge">
<title>Node9&#45;&gt;Node14</title>
<g id="a_edge13_Node000009_Node000014"><a xlink:title=" ">
<path fill="none" stroke="#63b8ff" d="M164.75,-258.59C168.86,-256.43 172.73,-253.81 176,-250.62 207.76,-219.71 179.62,-187.89 212,-157.62 218.42,-151.62 226.72,-147.51 235.11,-144.7"/>
<polygon fill="#63b8ff" stroke="#63b8ff" points="235.86,-148.13 244.58,-142.11 234.01,-141.37 235.86,-148.13"/>
</a>
</g>
</g>
</g>
</svg>
