<?xml version="1.0" encoding="UTF-8" standalone="no"?>
<!DOCTYPE svg PUBLIC "-//W3C//DTD SVG 1.1//EN"
 "http://www.w3.org/Graphics/SVG/1.1/DTD/svg11.dtd">
<!-- Generated by graphviz version 12.2.1 (20241206.2353)
 -->
<!-- Title: Construct_Cell Pages: 1 -->
<svg width="1182pt" height="347pt"
 viewBox="0.00 0.00 1182.25 347.45" xmlns="http://www.w3.org/2000/svg" xmlns:xlink="http://www.w3.org/1999/xlink">
<g id="graph0" class="graph" transform="scale(1 1) rotate(0) translate(4 343.45)">
<title>Construct_Cell</title>
<!-- Node1 -->
<g id="Node000001" class="node">
<title>Node1</title>
<g id="a_Node000001"><a xlink:title=" ">
<polygon fill="#999999" stroke="#666666" points="1174.25,-181.83 1093,-181.83 1093,-162.58 1174.25,-162.58 1174.25,-181.83"/>
<text text-anchor="middle" x="1133.62" y="-168.33" font-family="Helvetica,sans-Serif" font-size="10.00">Construct_Cell</text>
</a>
</g>
</g>
<!-- Node2 -->
<g id="Node000002" class="node">
<title>Node2</title>
<g id="a_Node000002"><a xlink:href="../../d3/de1/class_grid_performance_benchmark_a7cf9619c8391e4f889ed9d1c52b003cc.html#a7cf9619c8391e4f889ed9d1c52b003cc" target="_top" xlink:title=" ">
<polygon fill="white" stroke="#666666" points="1057,-339.45 906,-339.45 906,-308.95 1057,-308.95 1057,-339.45"/>
<text text-anchor="start" x="914" y="-325.95" font-family="Helvetica,sans-Serif" font-size="10.00">GridPerformanceBenchmark</text>
<text text-anchor="middle" x="981.5" y="-314.7" font-family="Helvetica,sans-Serif" font-size="10.00">::analyze_performance_scaling</text>
</a>
</g>
</g>
<!-- Node1&#45;&gt;Node2 -->
<g id="edge1_Node000001_Node000002" class="edge">
<title>Node1&#45;&gt;Node2</title>
<g id="a_edge1_Node000001_Node000002"><a xlink:title=" ">
<path fill="none" stroke="#63b8ff" d="M1125.68,-192.58C1115.13,-220.54 1092.48,-270.59 1057,-299.2 1052.54,-302.8 1047.54,-305.89 1042.29,-308.54"/>
<polygon fill="#63b8ff" stroke="#63b8ff" points="1128.85,-194.09 1128.94,-183.5 1122.26,-191.72 1128.85,-194.09"/>
</a>
</g>
</g>
<!-- Node5 -->
<g id="Node000005" class="node">
<title>Node5</title>
<g id="a_Node000005"><a xlink:href="../../d3/de1/class_grid_performance_benchmark_a6287a0ff24d43276bcedb01cc2493ab2.html#a6287a0ff24d43276bcedb01cc2493ab2" target="_top" xlink:title=" ">
<polygon fill="white" stroke="#666666" points="1055.88,-290.45 907.12,-290.45 907.12,-259.95 1055.88,-259.95 1055.88,-290.45"/>
<text text-anchor="start" x="915.12" y="-276.95" font-family="Helvetica,sans-Serif" font-size="10.00">GridPerformanceBenchmark</text>
<text text-anchor="middle" x="981.5" y="-265.7" font-family="Helvetica,sans-Serif" font-size="10.00">::benchmark_cell_construction</text>
</a>
</g>
</g>
<!-- Node1&#45;&gt;Node5 -->
<g id="edge4_Node000001_Node000005" class="edge">
<title>Node1&#45;&gt;Node5</title>
<g id="a_edge4_Node000001_Node000005"><a xlink:title=" ">
<path fill="none" stroke="#63b8ff" d="M1118.79,-191.39C1105,-209.24 1082.27,-235.38 1057,-251.2 1051.93,-254.38 1046.41,-257.17 1040.73,-259.61"/>
<polygon fill="#63b8ff" stroke="#63b8ff" points="1121.56,-193.53 1124.76,-183.43 1115.96,-189.34 1121.56,-193.53"/>
</a>
</g>
</g>
<!-- Node10 -->
<g id="Node000010" class="node">
<title>Node10</title>
<g id="a_Node000010"><a xlink:href="../../d8/d40/_grid___computations_8cpp_a2a7d5e3797b95ac44cb8a15b997d7ef9.html#a2a7d5e3797b95ac44cb8a15b997d7ef9" target="_top" xlink:title=" ">
<polygon fill="white" stroke="#666666" points="1022.12,-241.83 940.88,-241.83 940.88,-222.58 1022.12,-222.58 1022.12,-241.83"/>
<text text-anchor="middle" x="981.5" y="-228.33" font-family="Helvetica,sans-Serif" font-size="10.00">Construct_Cell</text>
</a>
</g>
</g>
<!-- Node1&#45;&gt;Node10 -->
<g id="edge10_Node000001_Node000010" class="edge">
<title>Node1&#45;&gt;Node10</title>
<g id="a_edge10_Node000001_Node000010"><a xlink:title=" ">
<path fill="none" stroke="#63b8ff" d="M1103.41,-187.22C1089.54,-194.07 1072.62,-202 1057,-208.2 1044.12,-213.32 1029.67,-218.17 1016.96,-222.15"/>
<polygon fill="#63b8ff" stroke="#63b8ff" points="1104.62,-190.53 1112,-182.93 1101.49,-184.27 1104.62,-190.53"/>
</a>
</g>
</g>
<!-- Node11 -->
<g id="Node000011" class="node">
<title>Node11</title>
<g id="a_Node000011"><a xlink:href="../../d8/d40/_grid___computations_8cpp_ae5f2b7a0fdbc48f8fdf897222b7ded04.html#ae5f2b7a0fdbc48f8fdf897222b7ded04" target="_top" xlink:title=" ">
<polygon fill="white" stroke="#666666" points="529.75,-65.83 411.75,-65.83 411.75,-46.58 529.75,-46.58 529.75,-65.83"/>
<text text-anchor="middle" x="470.75" y="-52.33" font-family="Helvetica,sans-Serif" font-size="10.00">Construct_Ghost_Cells</text>
</a>
</g>
</g>
<!-- Node1&#45;&gt;Node11 -->
<g id="edge11_Node000001_Node000011" class="edge">
<title>Node1&#45;&gt;Node11</title>
<g id="a_edge11_Node000001_Node000011"><a xlink:title=" ">
<path fill="none" stroke="#63b8ff" d="M1125.83,-151.53C1115.67,-124.38 1093.68,-77.75 1057,-57.2 871.06,46.95 596.93,-18.9 503.95,-46.09"/>
<polygon fill="#63b8ff" stroke="#63b8ff" points="1122.44,-152.46 1129.07,-160.73 1129.05,-150.14 1122.44,-152.46"/>
</a>
</g>
</g>
<!-- Node15 -->
<g id="Node000015" class="node">
<title>Node15</title>
<g id="a_Node000015"><a xlink:href="../../dc/de7/_grid___optimization___integration___guide_8cpp_a120e50cd83a9c52266fecc99bf748026.html#a120e50cd83a9c52266fecc99bf748026" target="_top" xlink:title=" ">
<polygon fill="white" stroke="#666666" points="1040.5,-166.45 922.5,-166.45 922.5,-135.95 1040.5,-135.95 1040.5,-166.45"/>
<text text-anchor="start" x="930.5" y="-152.95" font-family="Helvetica,sans-Serif" font-size="10.00">Construct_Ghost_Cells</text>
<text text-anchor="middle" x="981.5" y="-141.7" font-family="Helvetica,sans-Serif" font-size="10.00">_Optimized</text>
</a>
</g>
</g>
<!-- Node1&#45;&gt;Node15 -->
<g id="edge15_Node000001_Node000015" class="edge">
<title>Node1&#45;&gt;Node15</title>
<g id="a_edge15_Node000001_Node000015"><a xlink:title=" ">
<path fill="none" stroke="#63b8ff" d="M1081.61,-165.07C1068.52,-163.24 1054.33,-161.25 1040.9,-159.37"/>
<polygon fill="#63b8ff" stroke="#63b8ff" points="1080.9,-168.5 1091.29,-166.42 1081.87,-161.57 1080.9,-168.5"/>
</a>
</g>
</g>
<!-- Node16 -->
<g id="Node000016" class="node">
<title>Node16</title>
<g id="a_Node000016"><a xlink:href="../../d0/ded/_read___gmsh___file_8cpp_aa3cbdec71b7c56f603b53acd3ce5a070.html#aa3cbdec71b7c56f603b53acd3ce5a070" target="_top" xlink:title=" ">
<polygon fill="white" stroke="#666666" points="1019.5,-117.83 943.5,-117.83 943.5,-98.58 1019.5,-98.58 1019.5,-117.83"/>
<text text-anchor="middle" x="981.5" y="-104.33" font-family="Helvetica,sans-Serif" font-size="10.00">Identify_Cells</text>
</a>
</g>
</g>
<!-- Node1&#45;&gt;Node16 -->
<g id="edge17_Node000001_Node000016" class="edge">
<title>Node1&#45;&gt;Node16</title>
<g id="a_edge17_Node000001_Node000016"><a xlink:title=" ">
<path fill="none" stroke="#63b8ff" d="M1109.3,-155.94C1094.8,-146.44 1075.46,-134.86 1057,-127.2 1045.29,-122.34 1032.01,-118.47 1019.94,-115.53"/>
<polygon fill="#63b8ff" stroke="#63b8ff" points="1106.99,-158.6 1117.24,-161.26 1110.88,-152.79 1106.99,-158.6"/>
</a>
</g>
</g>
<!-- Node21 -->
<g id="Node000021" class="node">
<title>Node21</title>
<g id="a_Node000021"><a xlink:href="../../df/db3/_mesh___loader_8cpp_a94f04e68ff03c16a3c553d5670e9b1ab.html#a94f04e68ff03c16a3c553d5670e9b1ab" target="_top" xlink:title=" ">
<polygon fill="white" stroke="#666666" points="847.88,-79.83 753.12,-79.83 753.12,-60.58 847.88,-60.58 847.88,-79.83"/>
<text text-anchor="middle" x="800.5" y="-66.33" font-family="Helvetica,sans-Serif" font-size="10.00">Read_CSV_Mesh</text>
</a>
</g>
</g>
<!-- Node1&#45;&gt;Node21 -->
<g id="edge24_Node000001_Node000021" class="edge">
<title>Node1&#45;&gt;Node21</title>
<g id="a_edge24_Node000001_Node000021"><a xlink:title=" ">
<path fill="none" stroke="#63b8ff" d="M1121.19,-152.72C1108.35,-132.87 1085.53,-103.09 1057,-89.2 990.01,-56.59 901.3,-58.52 847.98,-63.75"/>
<polygon fill="#63b8ff" stroke="#63b8ff" points="1118.09,-154.35 1126.32,-161.02 1124.04,-150.67 1118.09,-154.35"/>
</a>
</g>
</g>
<!-- Node22 -->
<g id="Node000022" class="node">
<title>Node22</title>
<g id="a_Node000022"><a xlink:href="../../d8/d40/_grid___computations_8cpp_a663d4b3ae06e638c2f2e82ad437e831e.html#a663d4b3ae06e638c2f2e82ad437e831e" target="_top" xlink:title="Reads the input grid file and constructs physical cells, evaluates face areas, normals,...">
<polygon fill="white" stroke="#666666" points="831.75,-199.83 769.25,-199.83 769.25,-180.58 831.75,-180.58 831.75,-199.83"/>
<text text-anchor="middle" x="800.5" y="-186.33" font-family="Helvetica,sans-Serif" font-size="10.00">Read_Grid</text>
</a>
</g>
</g>
<!-- Node1&#45;&gt;Node22 -->
<g id="edge26_Node000001_Node000022" class="edge">
<title>Node1&#45;&gt;Node22</title>
<g id="a_edge26_Node000001_Node000022"><a xlink:title=" ">
<path fill="none" stroke="#63b8ff" d="M1081.53,-174.98C1011.69,-178.78 888.6,-185.47 831.79,-188.56"/>
<polygon fill="#63b8ff" stroke="#63b8ff" points="1081.38,-178.49 1091.17,-174.46 1081,-171.5 1081.38,-178.49"/>
</a>
</g>
</g>
<!-- Node3 -->
<g id="Node000003" class="node">
<title>Node3</title>
<g id="a_Node000003"><a xlink:href="../../d3/de1/class_grid_performance_benchmark_a6a31f6642222905776b59d5fc6ec1364.html#a6a31f6642222905776b59d5fc6ec1364" target="_top" xlink:title=" ">
<polygon fill="white" stroke="#666666" points="870,-314.45 731,-314.45 731,-283.95 870,-283.95 870,-314.45"/>
<text text-anchor="start" x="739" y="-300.95" font-family="Helvetica,sans-Serif" font-size="10.00">GridPerformanceBenchmark</text>
<text text-anchor="middle" x="800.5" y="-289.7" font-family="Helvetica,sans-Serif" font-size="10.00">::run_complete_benchmark</text>
</a>
</g>
</g>
<!-- Node2&#45;&gt;Node3 -->
<g id="edge2_Node000002_Node000003" class="edge">
<title>Node2&#45;&gt;Node3</title>
<g id="a_edge2_Node000002_Node000003"><a xlink:title=" ">
<path fill="none" stroke="#63b8ff" d="M894.32,-312.17C886.28,-311.04 878.21,-309.92 870.36,-308.82"/>
<polygon fill="#63b8ff" stroke="#63b8ff" points="893.74,-315.62 904.13,-313.54 894.71,-308.69 893.74,-315.62"/>
</a>
</g>
</g>
<!-- Node4 -->
<g id="Node000004" class="node">
<title>Node4</title>
<g id="a_Node000004"><a xlink:href="../../d1/db0/_grid___performance___benchmark_8cpp_a8eaebb5b60c50f0606cb4719e236b1bf.html#a8eaebb5b60c50f0606cb4719e236b1bf" target="_top" xlink:title=" ">
<polygon fill="white" stroke="#666666" points="685.25,-314.45 575.5,-314.45 575.5,-283.95 685.25,-283.95 685.25,-314.45"/>
<text text-anchor="start" x="583.5" y="-300.95" font-family="Helvetica,sans-Serif" font-size="10.00">run_grid_performance</text>
<text text-anchor="middle" x="630.38" y="-289.7" font-family="Helvetica,sans-Serif" font-size="10.00">_benchmark</text>
</a>
</g>
</g>
<!-- Node3&#45;&gt;Node4 -->
<g id="edge3_Node000003_Node000004" class="edge">
<title>Node3&#45;&gt;Node4</title>
<g id="a_edge3_Node000003_Node000004"><a xlink:title=" ">
<path fill="none" stroke="#63b8ff" d="M719.32,-299.2C707.94,-299.2 696.46,-299.2 685.73,-299.2"/>
<polygon fill="#63b8ff" stroke="#63b8ff" points="719.12,-302.7 729.12,-299.2 719.12,-295.7 719.12,-302.7"/>
</a>
</g>
</g>
<!-- Node5&#45;&gt;Node3 -->
<g id="edge9_Node000005_Node000003" class="edge">
<title>Node5&#45;&gt;Node3</title>
<g id="a_edge9_Node000005_Node000003"><a xlink:title=" ">
<path fill="none" stroke="#63b8ff" d="M895.29,-286.63C886.91,-287.75 878.47,-288.88 870.28,-289.98"/>
<polygon fill="#63b8ff" stroke="#63b8ff" points="895.71,-290.1 905.16,-285.3 894.78,-283.16 895.71,-290.1"/>
</a>
</g>
</g>
<!-- Node6 -->
<g id="Node000006" class="node">
<title>Node6</title>
<g id="a_Node000006"><a xlink:href="../../d1/db0/_grid___performance___benchmark_8cpp_ac125861b22e1c75a647907d093758246.html#ac125861b22e1c75a647907d093758246" target="_top" xlink:title=" ">
<polygon fill="white" stroke="#666666" points="860.62,-236.83 740.38,-236.83 740.38,-217.58 860.62,-217.58 860.62,-236.83"/>
<text text-anchor="middle" x="800.5" y="-223.33" font-family="Helvetica,sans-Serif" font-size="10.00">quick_performance_test</text>
</a>
</g>
</g>
<!-- Node5&#45;&gt;Node6 -->
<g id="edge5_Node000005_Node000006" class="edge">
<title>Node5&#45;&gt;Node6</title>
<g id="a_edge5_Node000005_Node000006"><a xlink:title=" ">
<path fill="none" stroke="#63b8ff" d="M910.84,-256.52C886.41,-249.97 859.91,-242.87 839.12,-237.29"/>
<polygon fill="#63b8ff" stroke="#63b8ff" points="909.86,-259.88 920.43,-259.09 911.67,-253.12 909.86,-259.88"/>
</a>
</g>
</g>
<!-- Node7 -->
<g id="Node000007" class="node">
<title>Node7</title>
<g id="a_Node000007"><a xlink:href="../../dc/de7/_grid___optimization___integration___guide_8cpp_a2700e9b3cb476604eadbef79c7aa63d5.html#a2700e9b3cb476604eadbef79c7aa63d5" target="_top" xlink:title=" ">
<polygon fill="white" stroke="#666666" points="523,-230.45 418.5,-230.45 418.5,-199.95 523,-199.95 523,-230.45"/>
<text text-anchor="start" x="426.5" y="-216.95" font-family="Helvetica,sans-Serif" font-size="10.00">demonstrate_testing</text>
<text text-anchor="middle" x="470.75" y="-205.7" font-family="Helvetica,sans-Serif" font-size="10.00">_validation</text>
</a>
</g>
</g>
<!-- Node6&#45;&gt;Node7 -->
<g id="edge6_Node000006_Node000007" class="edge">
<title>Node6&#45;&gt;Node7</title>
<g id="a_edge6_Node000006_Node000007"><a xlink:title=" ">
<path fill="none" stroke="#63b8ff" d="M728.93,-224.62C667.13,-222.36 578.78,-219.12 523.38,-217.09"/>
<polygon fill="#63b8ff" stroke="#63b8ff" points="728.51,-228.11 738.63,-224.97 728.77,-221.11 728.51,-228.11"/>
</a>
</g>
</g>
<!-- Node9 -->
<g id="Node000009" class="node">
<title>Node9</title>
<g id="a_Node000009"><a xlink:href="../../dc/de7/_grid___optimization___integration___guide_8cpp_ac9d67fcbba41c27f9c5d5876429fe035.html#ac9d67fcbba41c27f9c5d5876429fe035" target="_top" xlink:title=" ">
<polygon fill="white" stroke="#666666" points="695,-160.83 565.75,-160.83 565.75,-141.58 695,-141.58 695,-160.83"/>
<text text-anchor="middle" x="630.38" y="-147.33" font-family="Helvetica,sans-Serif" font-size="10.00">example_main_integration</text>
</a>
</g>
</g>
<!-- Node6&#45;&gt;Node9 -->
<g id="edge8_Node000006_Node000009" class="edge">
<title>Node6&#45;&gt;Node9</title>
<g id="a_edge8_Node000006_Node000009"><a xlink:title=" ">
<path fill="none" stroke="#63b8ff" d="M743.02,-213.68C738.91,-212.29 734.86,-210.8 731,-209.2 698.82,-195.9 664.36,-173.88 645.59,-161.15"/>
<polygon fill="#63b8ff" stroke="#63b8ff" points="741.94,-217.01 752.53,-216.64 744.02,-210.32 741.94,-217.01"/>
</a>
</g>
</g>
<!-- Node8 -->
<g id="Node000008" class="node">
<title>Node8</title>
<g id="a_Node000008"><a xlink:href="../../dc/de7/_grid___optimization___integration___guide_8cpp_ad598130e8e89b3050bb9bd71f0ab1b25.html#ad598130e8e89b3050bb9bd71f0ab1b25" target="_top" xlink:title=" ">
<polygon fill="white" stroke="#666666" points="210.5,-172.83 73,-172.83 73,-153.58 210.5,-153.58 210.5,-172.83"/>
<text text-anchor="middle" x="141.75" y="-159.33" font-family="Helvetica,sans-Serif" font-size="10.00">integrate_grid_optimizations</text>
</a>
</g>
</g>
<!-- Node7&#45;&gt;Node8 -->
<g id="edge7_Node000007_Node000008" class="edge">
<title>Node7&#45;&gt;Node8</title>
<g id="a_edge7_Node000007_Node000008"><a xlink:title=" ">
<path fill="none" stroke="#63b8ff" d="M407.14,-205.25C349.44,-196.07 264.21,-182.52 206.23,-173.3"/>
<polygon fill="#63b8ff" stroke="#63b8ff" points="406.38,-208.67 416.8,-206.78 407.48,-201.76 406.38,-208.67"/>
</a>
</g>
</g>
<!-- Node12 -->
<g id="Node000012" class="node">
<title>Node12</title>
<g id="a_Node000012"><a xlink:href="../../d8/d40/_grid___computations_8cpp_a5214aea020c856108980e45d45cbc89b.html#a5214aea020c856108980e45d45cbc89b" target="_top" xlink:title=" ">
<polygon fill="white" stroke="#666666" points="344.25,-81.83 278,-81.83 278,-62.58 344.25,-62.58 344.25,-81.83"/>
<text text-anchor="middle" x="311.12" y="-68.33" font-family="Helvetica,sans-Serif" font-size="10.00">Form_Cells</text>
</a>
</g>
</g>
<!-- Node11&#45;&gt;Node12 -->
<g id="edge12_Node000011_Node000012" class="edge">
<title>Node11&#45;&gt;Node12</title>
<g id="a_edge12_Node000011_Node000012"><a xlink:title=" ">
<path fill="none" stroke="#63b8ff" d="M400.21,-63.26C380.81,-65.23 360.65,-67.28 344.53,-68.91"/>
<polygon fill="#63b8ff" stroke="#63b8ff" points="400.4,-66.76 410,-62.27 399.7,-59.8 400.4,-66.76"/>
</a>
</g>
</g>
<!-- Node13 -->
<g id="Node000013" class="node">
<title>Node13</title>
<g id="a_Node000013"><a xlink:href="../../d8/d40/_grid___computations_8cpp_adbee522543afe92b4b1cd9b4e96a6c3f.html#adbee522543afe92b4b1cd9b4e96a6c3f" target="_top" xlink:title=" ">
<polygon fill="white" stroke="#666666" points="186.88,-81.83 96.62,-81.83 96.62,-62.58 186.88,-62.58 186.88,-81.83"/>
<text text-anchor="middle" x="141.75" y="-68.33" font-family="Helvetica,sans-Serif" font-size="10.00">initializeGridFiles</text>
</a>
</g>
</g>
<!-- Node12&#45;&gt;Node13 -->
<g id="edge13_Node000012_Node000013" class="edge">
<title>Node12&#45;&gt;Node13</title>
<g id="a_edge13_Node000012_Node000013"><a xlink:title=" ">
<path fill="none" stroke="#63b8ff" d="M266.42,-72.2C242.04,-72.2 211.76,-72.2 187.26,-72.2"/>
<polygon fill="#63b8ff" stroke="#63b8ff" points="266.34,-75.7 276.34,-72.2 266.34,-68.7 266.34,-75.7"/>
</a>
</g>
</g>
<!-- Node14 -->
<g id="Node000014" class="node">
<title>Node14</title>
<g id="a_Node000014"><a xlink:href="../../d5/d12/_main_8cpp_a0ddf1224851353fc92bfbff6f499fa97.html#a0ddf1224851353fc92bfbff6f499fa97" target="_top" xlink:title=" ">
<polygon fill="white" stroke="#666666" points="37,-81.83 0,-81.83 0,-62.58 37,-62.58 37,-81.83"/>
<text text-anchor="middle" x="18.5" y="-68.33" font-family="Helvetica,sans-Serif" font-size="10.00">main</text>
</a>
</g>
</g>
<!-- Node13&#45;&gt;Node14 -->
<g id="edge14_Node000013_Node000014" class="edge">
<title>Node13&#45;&gt;Node14</title>
<g id="a_edge14_Node000013_Node000014"><a xlink:title=" ">
<path fill="none" stroke="#63b8ff" d="M85.09,-72.2C67.84,-72.2 50.05,-72.2 37.36,-72.2"/>
<polygon fill="#63b8ff" stroke="#63b8ff" points="84.78,-75.7 94.78,-72.2 84.78,-68.7 84.78,-75.7"/>
</a>
</g>
</g>
<!-- Node15&#45;&gt;Node9 -->
<g id="edge16_Node000015_Node000009" class="edge">
<title>Node15&#45;&gt;Node9</title>
<g id="a_edge16_Node000015_Node000009"><a xlink:title=" ">
<path fill="none" stroke="#63b8ff" d="M910.68,-151.2C847.85,-151.2 756.29,-151.2 695.33,-151.2"/>
<polygon fill="#63b8ff" stroke="#63b8ff" points="910.55,-154.7 920.55,-151.2 910.55,-147.7 910.55,-154.7"/>
</a>
</g>
</g>
<!-- Node17 -->
<g id="Node000017" class="node">
<title>Node17</title>
<g id="a_Node000017"><a xlink:href="../../d0/ded/_read___gmsh___file_8cpp_af5022e986434a24c3f27a650cf4aeb76.html#af5022e986434a24c3f27a650cf4aeb76" target="_top" xlink:title=" ">
<polygon fill="white" stroke="#666666" points="844.12,-117.83 756.88,-117.83 756.88,-98.58 844.12,-98.58 844.12,-117.83"/>
<text text-anchor="middle" x="800.5" y="-104.33" font-family="Helvetica,sans-Serif" font-size="10.00">Read_VTK_Grid</text>
</a>
</g>
</g>
<!-- Node16&#45;&gt;Node17 -->
<g id="edge18_Node000016_Node000017" class="edge">
<title>Node16&#45;&gt;Node17</title>
<g id="a_edge18_Node000016_Node000017"><a xlink:title=" ">
<path fill="none" stroke="#63b8ff" d="M932.14,-108.2C904.8,-108.2 870.93,-108.2 844.52,-108.2"/>
<polygon fill="#63b8ff" stroke="#63b8ff" points="931.9,-111.7 941.9,-108.2 931.9,-104.7 931.9,-111.7"/>
</a>
</g>
</g>
<!-- Node18 -->
<g id="Node000018" class="node">
<title>Node18</title>
<g id="a_Node000018"><a xlink:href="../../d0/ded/_read___gmsh___file_8cpp_abedd70744a46f756e74b49905be889d9.html#abedd70744a46f756e74b49905be889d9" target="_top" xlink:title=" ">
<polygon fill="white" stroke="#666666" points="687.12,-117.83 573.62,-117.83 573.62,-98.58 687.12,-98.58 687.12,-117.83"/>
<text text-anchor="middle" x="630.38" y="-104.33" font-family="Helvetica,sans-Serif" font-size="10.00">Read_GmshVTK_Grid</text>
</a>
</g>
</g>
<!-- Node17&#45;&gt;Node18 -->
<g id="edge19_Node000017_Node000018" class="edge">
<title>Node17&#45;&gt;Node18</title>
<g id="a_edge19_Node000017_Node000018"><a xlink:title=" ">
<path fill="none" stroke="#63b8ff" d="M745.18,-108.2C726.73,-108.2 706.08,-108.2 687.5,-108.2"/>
<polygon fill="#63b8ff" stroke="#63b8ff" points="745.13,-111.7 755.13,-108.2 745.13,-104.7 745.13,-111.7"/>
</a>
</g>
</g>
<!-- Node19 -->
<g id="Node000019" class="node">
<title>Node19</title>
<g id="a_Node000019"><a xlink:href="../../df/db3/_mesh___loader_8cpp_a4ecb41d6b6dda1279d140f58dcf4d3fa.html#a4ecb41d6b6dda1279d140f58dcf4d3fa" target="_top" xlink:title=" ">
<polygon fill="white" stroke="#666666" points="503.88,-117.83 437.62,-117.83 437.62,-98.58 503.88,-98.58 503.88,-117.83"/>
<text text-anchor="middle" x="470.75" y="-104.33" font-family="Helvetica,sans-Serif" font-size="10.00">Load_Mesh</text>
</a>
</g>
</g>
<!-- Node18&#45;&gt;Node19 -->
<g id="edge20_Node000018_Node000019" class="edge">
<title>Node18&#45;&gt;Node19</title>
<g id="a_edge20_Node000018_Node000019"><a xlink:title=" ">
<path fill="none" stroke="#63b8ff" d="M562.03,-108.2C541.98,-108.2 520.92,-108.2 504.19,-108.2"/>
<polygon fill="#63b8ff" stroke="#63b8ff" points="561.84,-111.7 571.84,-108.2 561.84,-104.7 561.84,-111.7"/>
</a>
</g>
</g>
<!-- Node19&#45;&gt;Node12 -->
<g id="edge23_Node000019_Node000012" class="edge">
<title>Node19&#45;&gt;Node12</title>
<g id="a_edge23_Node000019_Node000012"><a xlink:title=" ">
<path fill="none" stroke="#63b8ff" d="M426.47,-98.32C400.61,-92.41 368.3,-85.03 344.63,-79.63"/>
<polygon fill="#63b8ff" stroke="#63b8ff" points="425.47,-101.68 436,-100.49 427.03,-94.86 425.47,-101.68"/>
</a>
</g>
</g>
<!-- Node20 -->
<g id="Node000020" class="node">
<title>Node20</title>
<g id="a_Node000020"><a xlink:href="../../dc/de7/_grid___optimization___integration___guide_8cpp_ae6a5c597ffb845be2502d0afc0e1a695.html#ae6a5c597ffb845be2502d0afc0e1a695" target="_top" xlink:title=" ">
<polygon fill="white" stroke="#666666" points="375.75,-138.45 246.5,-138.45 246.5,-107.95 375.75,-107.95 375.75,-138.45"/>
<text text-anchor="start" x="254.5" y="-124.95" font-family="Helvetica,sans-Serif" font-size="10.00">demonstrate_performance</text>
<text text-anchor="middle" x="311.12" y="-113.7" font-family="Helvetica,sans-Serif" font-size="10.00">_aware_integration</text>
</a>
</g>
</g>
<!-- Node19&#45;&gt;Node20 -->
<g id="edge21_Node000019_Node000020" class="edge">
<title>Node19&#45;&gt;Node20</title>
<g id="a_edge21_Node000019_Node000020"><a xlink:title=" ">
<path fill="none" stroke="#63b8ff" d="M426.11,-112.36C410.59,-113.83 392.79,-115.53 375.93,-117.13"/>
<polygon fill="#63b8ff" stroke="#63b8ff" points="426.34,-115.85 435.97,-111.42 425.68,-108.88 426.34,-115.85"/>
</a>
</g>
</g>
<!-- Node20&#45;&gt;Node8 -->
<g id="edge22_Node000020_Node000008" class="edge">
<title>Node20&#45;&gt;Node8</title>
<g id="a_edge22_Node000020_Node000008"><a xlink:title=" ">
<path fill="none" stroke="#63b8ff" d="M235.18,-141.11C218,-145.22 200.32,-149.44 185.08,-153.09"/>
<polygon fill="#63b8ff" stroke="#63b8ff" points="235.99,-144.52 244.9,-138.79 234.36,-137.71 235.99,-144.52"/>
</a>
</g>
</g>
<!-- Node21&#45;&gt;Node19 -->
<g id="edge25_Node000021_Node000019" class="edge">
<title>Node21&#45;&gt;Node19</title>
<g id="a_edge25_Node000021_Node000019"><a xlink:title=" ">
<path fill="none" stroke="#63b8ff" d="M741.47,-73.01C694.05,-75.76 625.34,-80.79 565.75,-89.2 545.14,-92.11 522.25,-96.71 504.21,-100.65"/>
<polygon fill="#63b8ff" stroke="#63b8ff" points="741.45,-76.51 751.24,-72.46 741.06,-69.52 741.45,-76.51"/>
</a>
</g>
</g>
<!-- Node22&#45;&gt;Node19 -->
<g id="edge27_Node000022_Node000019" class="edge">
<title>Node22&#45;&gt;Node19</title>
<g id="a_edge27_Node000022_Node000019"><a xlink:title=" ">
<path fill="none" stroke="#63b8ff" d="M757.57,-192.73C709.77,-194.22 629.95,-192.5 565.75,-170.2 532.51,-158.66 499.54,-132.7 482.9,-118.3"/>
<polygon fill="#63b8ff" stroke="#63b8ff" points="757.63,-196.23 767.49,-192.34 757.36,-189.23 757.63,-196.23"/>
</a>
</g>
</g>
</g>
</svg>
