<?xml version="1.0" encoding="UTF-8" standalone="no"?>
<!DOCTYPE svg PUBLIC "-//W3C//DTD SVG 1.1//EN"
 "http://www.w3.org/Graphics/SVG/1.1/DTD/svg11.dtd">
<!-- Generated by graphviz version 12.2.1 (20241206.2353)
 -->
<!-- Title: Calculate_Cell_Center_Distances Pages: 1 -->
<svg width="841pt" height="162pt"
 viewBox="0.00 0.00 841.00 161.88" xmlns="http://www.w3.org/2000/svg" xmlns:xlink="http://www.w3.org/1999/xlink">
<g id="graph0" class="graph" transform="scale(1 1) rotate(0) translate(4 157.88)">
<title>Calculate_Cell_Center_Distances</title>
<!-- Node1 -->
<g id="Node000001" class="node">
<title>Node1</title>
<g id="a_Node000001"><a xlink:title=" ">
<polygon fill="#999999" stroke="#666666" points="833,-45.88 718.75,-45.88 718.75,-15.37 833,-15.37 833,-45.88"/>
<text text-anchor="start" x="726.75" y="-32.38" font-family="Helvetica,sans-Serif" font-size="10.00">Calculate_Cell_Center</text>
<text text-anchor="middle" x="775.88" y="-21.12" font-family="Helvetica,sans-Serif" font-size="10.00">_Distances</text>
</a>
</g>
</g>
<!-- Node2 -->
<g id="Node000002" class="node">
<title>Node2</title>
<g id="a_Node000002"><a xlink:href="../../d3/de1/class_grid_performance_benchmark_a8304b3cde0e7f9ad1d1b72c9354b8e8f.html#a8304b3cde0e7f9ad1d1b72c9354b8e8f" target="_top" xlink:title=" ">
<polygon fill="white" stroke="#666666" points="682.75,-67.88 513.75,-67.88 513.75,-37.38 682.75,-37.38 682.75,-67.88"/>
<text text-anchor="start" x="521.75" y="-54.38" font-family="Helvetica,sans-Serif" font-size="10.00">GridPerformanceBenchmark</text>
<text text-anchor="middle" x="598.25" y="-43.12" font-family="Helvetica,sans-Serif" font-size="10.00">::benchmark_distance_calculations</text>
</a>
</g>
</g>
<!-- Node1&#45;&gt;Node2 -->
<g id="edge1_Node000001_Node000002" class="edge">
<title>Node1&#45;&gt;Node2</title>
<g id="a_edge1_Node000001_Node000002"><a xlink:title=" ">
<path fill="none" stroke="#63b8ff" d="M707.06,-39.12C699.23,-40.1 691.18,-41.11 683.17,-42.11"/>
<polygon fill="#63b8ff" stroke="#63b8ff" points="707.35,-42.61 716.84,-37.9 706.48,-35.67 707.35,-42.61"/>
</a>
</g>
</g>
<!-- Node9 -->
<g id="Node000009" class="node">
<title>Node9</title>
<g id="a_Node000009"><a xlink:href="../../d8/d40/_grid___computations_8cpp_a5214aea020c856108980e45d45cbc89b.html#a5214aea020c856108980e45d45cbc89b" target="_top" xlink:title=" ">
<polygon fill="white" stroke="#666666" points="631.38,-19.25 565.12,-19.25 565.12,0 631.38,0 631.38,-19.25"/>
<text text-anchor="middle" x="598.25" y="-5.75" font-family="Helvetica,sans-Serif" font-size="10.00">Form_Cells</text>
</a>
</g>
</g>
<!-- Node1&#45;&gt;Node9 -->
<g id="edge8_Node000001_Node000009" class="edge">
<title>Node1&#45;&gt;Node9</title>
<g id="a_edge8_Node000001_Node000009"><a xlink:title=" ">
<path fill="none" stroke="#63b8ff" d="M707.07,-22.52C681.24,-19.43 652.98,-16.05 631.87,-13.53"/>
<polygon fill="#63b8ff" stroke="#63b8ff" points="706.49,-25.97 716.84,-23.69 707.32,-19.02 706.49,-25.97"/>
</a>
</g>
</g>
<!-- Node3 -->
<g id="Node000003" class="node">
<title>Node3</title>
<g id="a_Node000003"><a xlink:href="../../d1/db0/_grid___performance___benchmark_8cpp_ac125861b22e1c75a647907d093758246.html#ac125861b22e1c75a647907d093758246" target="_top" xlink:title=" ">
<polygon fill="white" stroke="#666666" points="468.38,-105.25 348.12,-105.25 348.12,-86 468.38,-86 468.38,-105.25"/>
<text text-anchor="middle" x="408.25" y="-91.75" font-family="Helvetica,sans-Serif" font-size="10.00">quick_performance_test</text>
</a>
</g>
</g>
<!-- Node2&#45;&gt;Node3 -->
<g id="edge2_Node000002_Node000003" class="edge">
<title>Node2&#45;&gt;Node3</title>
<g id="a_edge2_Node000002_Node000003"><a xlink:title=" ">
<path fill="none" stroke="#63b8ff" d="M517.57,-70.85C495.62,-75.87 472.61,-81.13 453.47,-85.51"/>
<polygon fill="#63b8ff" stroke="#63b8ff" points="518.14,-74.31 527.1,-68.67 516.58,-67.49 518.14,-74.31"/>
</a>
</g>
</g>
<!-- Node7 -->
<g id="Node000007" class="node">
<title>Node7</title>
<g id="a_Node000007"><a xlink:href="../../d3/de1/class_grid_performance_benchmark_a6a31f6642222905776b59d5fc6ec1364.html#a6a31f6642222905776b59d5fc6ec1364" target="_top" xlink:title=" ">
<polygon fill="white" stroke="#666666" points="477.75,-67.88 338.75,-67.88 338.75,-37.38 477.75,-37.38 477.75,-67.88"/>
<text text-anchor="start" x="346.75" y="-54.38" font-family="Helvetica,sans-Serif" font-size="10.00">GridPerformanceBenchmark</text>
<text text-anchor="middle" x="408.25" y="-43.12" font-family="Helvetica,sans-Serif" font-size="10.00">::run_complete_benchmark</text>
</a>
</g>
</g>
<!-- Node2&#45;&gt;Node7 -->
<g id="edge6_Node000002_Node000007" class="edge">
<title>Node2&#45;&gt;Node7</title>
<g id="a_edge6_Node000002_Node000007"><a xlink:title=" ">
<path fill="none" stroke="#63b8ff" d="M501.99,-52.62C493.9,-52.62 485.82,-52.62 477.99,-52.62"/>
<polygon fill="#63b8ff" stroke="#63b8ff" points="501.91,-56.13 511.91,-52.63 501.91,-49.13 501.91,-56.13"/>
</a>
</g>
</g>
<!-- Node4 -->
<g id="Node000004" class="node">
<title>Node4</title>
<g id="a_Node000004"><a xlink:href="../../dc/de7/_grid___optimization___integration___guide_8cpp_a2700e9b3cb476604eadbef79c7aa63d5.html#a2700e9b3cb476604eadbef79c7aa63d5" target="_top" xlink:title=" ">
<polygon fill="white" stroke="#666666" points="290.38,-153.88 185.88,-153.88 185.88,-123.38 290.38,-123.38 290.38,-153.88"/>
<text text-anchor="start" x="193.88" y="-140.38" font-family="Helvetica,sans-Serif" font-size="10.00">demonstrate_testing</text>
<text text-anchor="middle" x="238.12" y="-129.12" font-family="Helvetica,sans-Serif" font-size="10.00">_validation</text>
</a>
</g>
</g>
<!-- Node3&#45;&gt;Node4 -->
<g id="edge3_Node000003_Node000004" class="edge">
<title>Node3&#45;&gt;Node4</title>
<g id="a_edge3_Node000003_Node000004"><a xlink:title=" ">
<path fill="none" stroke="#63b8ff" d="M356.92,-108.5C336.01,-113.85 311.76,-120.05 290.72,-125.43"/>
<polygon fill="#63b8ff" stroke="#63b8ff" points="357.54,-111.95 366.37,-106.08 355.81,-105.17 357.54,-111.95"/>
</a>
</g>
</g>
<!-- Node6 -->
<g id="Node000006" class="node">
<title>Node6</title>
<g id="a_Node000006"><a xlink:href="../../dc/de7/_grid___optimization___integration___guide_8cpp_ac9d67fcbba41c27f9c5d5876429fe035.html#ac9d67fcbba41c27f9c5d5876429fe035" target="_top" xlink:title=" ">
<polygon fill="white" stroke="#666666" points="302.75,-105.25 173.5,-105.25 173.5,-86 302.75,-86 302.75,-105.25"/>
<text text-anchor="middle" x="238.12" y="-91.75" font-family="Helvetica,sans-Serif" font-size="10.00">example_main_integration</text>
</a>
</g>
</g>
<!-- Node3&#45;&gt;Node6 -->
<g id="edge5_Node000003_Node000006" class="edge">
<title>Node3&#45;&gt;Node6</title>
<g id="a_edge5_Node000003_Node000006"><a xlink:title=" ">
<path fill="none" stroke="#63b8ff" d="M336.53,-95.62C325.41,-95.62 313.96,-95.62 303,-95.62"/>
<polygon fill="#63b8ff" stroke="#63b8ff" points="336.46,-99.13 346.46,-95.63 336.46,-92.13 336.46,-99.13"/>
</a>
</g>
</g>
<!-- Node5 -->
<g id="Node000005" class="node">
<title>Node5</title>
<g id="a_Node000005"><a xlink:href="../../dc/de7/_grid___optimization___integration___guide_8cpp_ad598130e8e89b3050bb9bd71f0ab1b25.html#ad598130e8e89b3050bb9bd71f0ab1b25" target="_top" xlink:title=" ">
<polygon fill="white" stroke="#666666" points="137.5,-148.25 0,-148.25 0,-129 137.5,-129 137.5,-148.25"/>
<text text-anchor="middle" x="68.75" y="-134.75" font-family="Helvetica,sans-Serif" font-size="10.00">integrate_grid_optimizations</text>
</a>
</g>
</g>
<!-- Node4&#45;&gt;Node5 -->
<g id="edge4_Node000004_Node000005" class="edge">
<title>Node4&#45;&gt;Node5</title>
<g id="a_edge4_Node000004_Node000005"><a xlink:title=" ">
<path fill="none" stroke="#63b8ff" d="M174.33,-138.62C162.41,-138.62 149.88,-138.62 137.81,-138.62"/>
<polygon fill="#63b8ff" stroke="#63b8ff" points="174.03,-142.13 184.03,-138.63 174.03,-135.13 174.03,-142.13"/>
</a>
</g>
</g>
<!-- Node8 -->
<g id="Node000008" class="node">
<title>Node8</title>
<g id="a_Node000008"><a xlink:href="../../d1/db0/_grid___performance___benchmark_8cpp_a8eaebb5b60c50f0606cb4719e236b1bf.html#a8eaebb5b60c50f0606cb4719e236b1bf" target="_top" xlink:title=" ">
<polygon fill="white" stroke="#666666" points="293,-67.88 183.25,-67.88 183.25,-37.38 293,-37.38 293,-67.88"/>
<text text-anchor="start" x="191.25" y="-54.38" font-family="Helvetica,sans-Serif" font-size="10.00">run_grid_performance</text>
<text text-anchor="middle" x="238.12" y="-43.12" font-family="Helvetica,sans-Serif" font-size="10.00">_benchmark</text>
</a>
</g>
</g>
<!-- Node7&#45;&gt;Node8 -->
<g id="edge7_Node000007_Node000008" class="edge">
<title>Node7&#45;&gt;Node8</title>
<g id="a_edge7_Node000007_Node000008"><a xlink:title=" ">
<path fill="none" stroke="#63b8ff" d="M327.07,-52.62C315.69,-52.62 304.21,-52.62 293.48,-52.62"/>
<polygon fill="#63b8ff" stroke="#63b8ff" points="326.87,-56.13 336.87,-52.63 326.87,-49.13 326.87,-56.13"/>
</a>
</g>
</g>
<!-- Node10 -->
<g id="Node000010" class="node">
<title>Node10</title>
<g id="a_Node000010"><a xlink:href="../../d8/d40/_grid___computations_8cpp_adbee522543afe92b4b1cd9b4e96a6c3f.html#adbee522543afe92b4b1cd9b4e96a6c3f" target="_top" xlink:title=" ">
<polygon fill="white" stroke="#666666" points="453.38,-19.25 363.12,-19.25 363.12,0 453.38,0 453.38,-19.25"/>
<text text-anchor="middle" x="408.25" y="-5.75" font-family="Helvetica,sans-Serif" font-size="10.00">initializeGridFiles</text>
</a>
</g>
</g>
<!-- Node9&#45;&gt;Node10 -->
<g id="edge9_Node000009_Node000010" class="edge">
<title>Node9&#45;&gt;Node10</title>
<g id="a_edge9_Node000009_Node000010"><a xlink:title=" ">
<path fill="none" stroke="#63b8ff" d="M553.55,-9.62C523.59,-9.62 483.95,-9.62 453.8,-9.62"/>
<polygon fill="#63b8ff" stroke="#63b8ff" points="553.42,-13.13 563.42,-9.63 553.42,-6.13 553.42,-13.13"/>
</a>
</g>
</g>
<!-- Node11 -->
<g id="Node000011" class="node">
<title>Node11</title>
<g id="a_Node000011"><a xlink:href="../../d5/d12/_main_8cpp_a0ddf1224851353fc92bfbff6f499fa97.html#a0ddf1224851353fc92bfbff6f499fa97" target="_top" xlink:title=" ">
<polygon fill="white" stroke="#666666" points="256.62,-19.25 219.62,-19.25 219.62,0 256.62,0 256.62,-19.25"/>
<text text-anchor="middle" x="238.12" y="-5.75" font-family="Helvetica,sans-Serif" font-size="10.00">main</text>
</a>
</g>
</g>
<!-- Node10&#45;&gt;Node11 -->
<g id="edge10_Node000010_Node000011" class="edge">
<title>Node10&#45;&gt;Node11</title>
<g id="a_edge10_Node000010_Node000011"><a xlink:title=" ">
<path fill="none" stroke="#63b8ff" d="M351.33,-9.62C318.5,-9.62 279.19,-9.62 256.89,-9.62"/>
<polygon fill="#63b8ff" stroke="#63b8ff" points="351.12,-13.13 361.12,-9.63 351.12,-6.13 351.12,-13.13"/>
</a>
</g>
</g>
</g>
</svg>
