<?xml version="1.0" encoding="UTF-8" standalone="no"?>
<!DOCTYPE svg PUBLIC "-//W3C//DTD SVG 1.1//EN"
 "http://www.w3.org/Graphics/SVG/1.1/DTD/svg11.dtd">
<!-- Generated by graphviz version 12.2.1 (20241206.2353)
 -->
<!-- Title: Sort_Points_AntiClockWise Pages: 1 -->
<svg width="1159pt" height="152pt"
 viewBox="0.00 0.00 1159.00 151.88" xmlns="http://www.w3.org/2000/svg" xmlns:xlink="http://www.w3.org/1999/xlink">
<g id="graph0" class="graph" transform="scale(1 1) rotate(0) translate(4 147.88)">
<title>Sort_Points_AntiClockWise</title>
<!-- Node1 -->
<g id="Node000001" class="node">
<title>Node1</title>
<g id="a_Node000001"><a xlink:title=" ">
<polygon fill="#999999" stroke="#666666" points="1151,-76.25 1013.5,-76.25 1013.5,-57 1151,-57 1151,-76.25"/>
<text text-anchor="middle" x="1082.25" y="-62.75" font-family="Helvetica,sans-Serif" font-size="10.00">Sort_Points_AntiClockWise</text>
</a>
</g>
</g>
<!-- Node2 -->
<g id="Node000002" class="node">
<title>Node2</title>
<g id="a_Node000002"><a xlink:href="../../d3/de1/class_grid_performance_benchmark_ac103c54d6f481930ad560f597b7f3bce.html#ac103c54d6f481930ad560f597b7f3bce" target="_top" xlink:title=" ">
<polygon fill="white" stroke="#666666" points="977.5,-143.88 838.5,-143.88 838.5,-113.38 977.5,-113.38 977.5,-143.88"/>
<text text-anchor="start" x="846.5" y="-130.38" font-family="Helvetica,sans-Serif" font-size="10.00">GridPerformanceBenchmark</text>
<text text-anchor="middle" x="908" y="-119.12" font-family="Helvetica,sans-Serif" font-size="10.00">::benchmark_point_sorting</text>
</a>
</g>
</g>
<!-- Node1&#45;&gt;Node2 -->
<g id="edge1_Node000001_Node000002" class="edge">
<title>Node1&#45;&gt;Node2</title>
<g id="a_edge1_Node000001_Node000002"><a xlink:title=" ">
<path fill="none" stroke="#63b8ff" d="M1043.32,-80.66C1023.7,-87.89 999.34,-96.8 977.5,-104.62 969.91,-107.35 961.83,-110.21 953.99,-112.97"/>
<polygon fill="#63b8ff" stroke="#63b8ff" points="1044.39,-84 1052.56,-77.25 1041.97,-77.43 1044.39,-84"/>
</a>
</g>
</g>
<!-- Node5 -->
<g id="Node000005" class="node">
<title>Node5</title>
<g id="a_Node000005"><a xlink:href="../../d0/ded/_read___gmsh___file_8cpp_aa3cbdec71b7c56f603b53acd3ce5a070.html#aa3cbdec71b7c56f603b53acd3ce5a070" target="_top" xlink:title=" ">
<polygon fill="white" stroke="#666666" points="946,-95.25 870,-95.25 870,-76 946,-76 946,-95.25"/>
<text text-anchor="middle" x="908" y="-81.75" font-family="Helvetica,sans-Serif" font-size="10.00">Identify_Cells</text>
</a>
</g>
</g>
<!-- Node1&#45;&gt;Node5 -->
<g id="edge4_Node000001_Node000005" class="edge">
<title>Node1&#45;&gt;Node5</title>
<g id="a_edge4_Node000001_Node000005"><a xlink:title=" ">
<path fill="none" stroke="#63b8ff" d="M1001.86,-75.38C982.5,-77.52 962.69,-79.7 946.37,-81.5"/>
<polygon fill="#63b8ff" stroke="#63b8ff" points="1002.11,-78.88 1011.67,-74.3 1001.34,-71.92 1002.11,-78.88"/>
</a>
</g>
</g>
<!-- Node14 -->
<g id="Node000014" class="node">
<title>Node14</title>
<g id="a_Node000014"><a xlink:href="../../df/db3/_mesh___loader_8cpp_a94f04e68ff03c16a3c553d5670e9b1ab.html#a94f04e68ff03c16a3c553d5670e9b1ab" target="_top" xlink:title=" ">
<polygon fill="white" stroke="#666666" points="618.12,-57.25 523.38,-57.25 523.38,-38 618.12,-38 618.12,-57.25"/>
<text text-anchor="middle" x="570.75" y="-43.75" font-family="Helvetica,sans-Serif" font-size="10.00">Read_CSV_Mesh</text>
</a>
</g>
</g>
<!-- Node1&#45;&gt;Node14 -->
<g id="edge13_Node000001_Node000014" class="edge">
<title>Node1&#45;&gt;Node14</title>
<g id="a_edge13_Node000001_Node000014"><a xlink:title=" ">
<path fill="none" stroke="#63b8ff" d="M1001.63,-63.66C893.98,-59.64 705.49,-52.61 618.35,-49.36"/>
<polygon fill="#63b8ff" stroke="#63b8ff" points="1001.43,-67.15 1011.55,-64.03 1001.69,-60.16 1001.43,-67.15"/>
</a>
</g>
</g>
<!-- Node15 -->
<g id="Node000015" class="node">
<title>Node15</title>
<g id="a_Node000015"><a xlink:href="../../d8/d40/_grid___computations_8cpp_a663d4b3ae06e638c2f2e82ad437e831e.html#a663d4b3ae06e638c2f2e82ad437e831e" target="_top" xlink:title="Reads the input grid file and constructs physical cells, evaluates face areas, normals,...">
<polygon fill="white" stroke="#666666" points="764.25,-19.25 701.75,-19.25 701.75,0 764.25,0 764.25,-19.25"/>
<text text-anchor="middle" x="733" y="-5.75" font-family="Helvetica,sans-Serif" font-size="10.00">Read_Grid</text>
</a>
</g>
</g>
<!-- Node1&#45;&gt;Node15 -->
<g id="edge15_Node000001_Node000015" class="edge">
<title>Node1&#45;&gt;Node15</title>
<g id="a_edge15_Node000001_Node000015"><a xlink:title=" ">
<path fill="none" stroke="#63b8ff" d="M1044.19,-52.75C1024.62,-45.96 1000.04,-38.27 977.5,-33.62 901.99,-18.07 811.15,-12.51 764.68,-10.59"/>
<polygon fill="#63b8ff" stroke="#63b8ff" points="1042.77,-55.96 1053.36,-56 1045.11,-49.36 1042.77,-55.96"/>
</a>
</g>
</g>
<!-- Node3 -->
<g id="Node000003" class="node">
<title>Node3</title>
<g id="a_Node000003"><a xlink:href="../../d3/de1/class_grid_performance_benchmark_a6a31f6642222905776b59d5fc6ec1364.html#a6a31f6642222905776b59d5fc6ec1364" target="_top" xlink:title=" ">
<polygon fill="white" stroke="#666666" points="802.5,-143.88 663.5,-143.88 663.5,-113.38 802.5,-113.38 802.5,-143.88"/>
<text text-anchor="start" x="671.5" y="-130.38" font-family="Helvetica,sans-Serif" font-size="10.00">GridPerformanceBenchmark</text>
<text text-anchor="middle" x="733" y="-119.12" font-family="Helvetica,sans-Serif" font-size="10.00">::run_complete_benchmark</text>
</a>
</g>
</g>
<!-- Node2&#45;&gt;Node3 -->
<g id="edge2_Node000002_Node000003" class="edge">
<title>Node2&#45;&gt;Node3</title>
<g id="a_edge2_Node000002_Node000003"><a xlink:title=" ">
<path fill="none" stroke="#63b8ff" d="M826.88,-128.62C818.88,-128.62 810.8,-128.62 802.92,-128.62"/>
<polygon fill="#63b8ff" stroke="#63b8ff" points="826.62,-132.13 836.62,-128.63 826.62,-125.13 826.62,-132.13"/>
</a>
</g>
</g>
<!-- Node4 -->
<g id="Node000004" class="node">
<title>Node4</title>
<g id="a_Node000004"><a xlink:href="../../d1/db0/_grid___performance___benchmark_8cpp_a8eaebb5b60c50f0606cb4719e236b1bf.html#a8eaebb5b60c50f0606cb4719e236b1bf" target="_top" xlink:title=" ">
<polygon fill="white" stroke="#666666" points="625.62,-143.88 515.88,-143.88 515.88,-113.38 625.62,-113.38 625.62,-143.88"/>
<text text-anchor="start" x="523.88" y="-130.38" font-family="Helvetica,sans-Serif" font-size="10.00">run_grid_performance</text>
<text text-anchor="middle" x="570.75" y="-119.12" font-family="Helvetica,sans-Serif" font-size="10.00">_benchmark</text>
</a>
</g>
</g>
<!-- Node3&#45;&gt;Node4 -->
<g id="edge3_Node000003_Node000004" class="edge">
<title>Node3&#45;&gt;Node4</title>
<g id="a_edge3_Node000003_Node000004"><a xlink:title=" ">
<path fill="none" stroke="#63b8ff" d="M651.72,-128.62C643.03,-128.62 634.35,-128.62 626.07,-128.62"/>
<polygon fill="#63b8ff" stroke="#63b8ff" points="651.6,-132.13 661.6,-128.63 651.6,-125.13 651.6,-132.13"/>
</a>
</g>
</g>
<!-- Node6 -->
<g id="Node000006" class="node">
<title>Node6</title>
<g id="a_Node000006"><a xlink:href="../../d0/ded/_read___gmsh___file_8cpp_af5022e986434a24c3f27a650cf4aeb76.html#af5022e986434a24c3f27a650cf4aeb76" target="_top" xlink:title=" ">
<polygon fill="white" stroke="#666666" points="776.62,-95.25 689.38,-95.25 689.38,-76 776.62,-76 776.62,-95.25"/>
<text text-anchor="middle" x="733" y="-81.75" font-family="Helvetica,sans-Serif" font-size="10.00">Read_VTK_Grid</text>
</a>
</g>
</g>
<!-- Node5&#45;&gt;Node6 -->
<g id="edge5_Node000005_Node000006" class="edge">
<title>Node5&#45;&gt;Node6</title>
<g id="a_edge5_Node000005_Node000006"><a xlink:title=" ">
<path fill="none" stroke="#63b8ff" d="M858.53,-85.62C832.86,-85.62 801.62,-85.62 776.84,-85.62"/>
<polygon fill="#63b8ff" stroke="#63b8ff" points="858.37,-89.13 868.37,-85.63 858.37,-82.13 858.37,-89.13"/>
</a>
</g>
</g>
<!-- Node7 -->
<g id="Node000007" class="node">
<title>Node7</title>
<g id="a_Node000007"><a xlink:href="../../d0/ded/_read___gmsh___file_8cpp_abedd70744a46f756e74b49905be889d9.html#abedd70744a46f756e74b49905be889d9" target="_top" xlink:title=" ">
<polygon fill="white" stroke="#666666" points="627.5,-95.25 514,-95.25 514,-76 627.5,-76 627.5,-95.25"/>
<text text-anchor="middle" x="570.75" y="-81.75" font-family="Helvetica,sans-Serif" font-size="10.00">Read_GmshVTK_Grid</text>
</a>
</g>
</g>
<!-- Node6&#45;&gt;Node7 -->
<g id="edge6_Node000006_Node000007" class="edge">
<title>Node6&#45;&gt;Node7</title>
<g id="a_edge6_Node000006_Node000007"><a xlink:title=" ">
<path fill="none" stroke="#63b8ff" d="M677.67,-85.62C661.6,-85.62 643.97,-85.62 627.79,-85.62"/>
<polygon fill="#63b8ff" stroke="#63b8ff" points="677.54,-89.13 687.54,-85.63 677.54,-82.13 677.54,-89.13"/>
</a>
</g>
</g>
<!-- Node8 -->
<g id="Node000008" class="node">
<title>Node8</title>
<g id="a_Node000008"><a xlink:href="../../df/db3/_mesh___loader_8cpp_a4ecb41d6b6dda1279d140f58dcf4d3fa.html#a4ecb41d6b6dda1279d140f58dcf4d3fa" target="_top" xlink:title=" ">
<polygon fill="white" stroke="#666666" points="478,-57.25 411.75,-57.25 411.75,-38 478,-38 478,-57.25"/>
<text text-anchor="middle" x="444.88" y="-43.75" font-family="Helvetica,sans-Serif" font-size="10.00">Load_Mesh</text>
</a>
</g>
</g>
<!-- Node7&#45;&gt;Node8 -->
<g id="edge7_Node000007_Node000008" class="edge">
<title>Node7&#45;&gt;Node8</title>
<g id="a_edge7_Node000007_Node000008"><a xlink:title=" ">
<path fill="none" stroke="#63b8ff" d="M526.33,-72.3C510.59,-67.48 493.11,-62.11 478.47,-57.62"/>
<polygon fill="#63b8ff" stroke="#63b8ff" points="524.85,-75.51 535.43,-75.1 526.9,-68.82 524.85,-75.51"/>
</a>
</g>
</g>
<!-- Node9 -->
<g id="Node000009" class="node">
<title>Node9</title>
<g id="a_Node000009"><a xlink:href="../../dc/de7/_grid___optimization___integration___guide_8cpp_ae6a5c597ffb845be2502d0afc0e1a695.html#ae6a5c597ffb845be2502d0afc0e1a695" target="_top" xlink:title=" ">
<polygon fill="white" stroke="#666666" points="375.75,-84.88 246.5,-84.88 246.5,-54.38 375.75,-54.38 375.75,-84.88"/>
<text text-anchor="start" x="254.5" y="-71.38" font-family="Helvetica,sans-Serif" font-size="10.00">demonstrate_performance</text>
<text text-anchor="middle" x="311.12" y="-60.12" font-family="Helvetica,sans-Serif" font-size="10.00">_aware_integration</text>
</a>
</g>
</g>
<!-- Node8&#45;&gt;Node9 -->
<g id="edge8_Node000008_Node000009" class="edge">
<title>Node8&#45;&gt;Node9</title>
<g id="a_edge8_Node000008_Node000009"><a xlink:title=" ">
<path fill="none" stroke="#63b8ff" d="M400.08,-54.94C392.42,-56.22 384.3,-57.57 376.22,-58.92"/>
<polygon fill="#63b8ff" stroke="#63b8ff" points="400.53,-58.41 409.81,-53.31 399.37,-51.51 400.53,-58.41"/>
</a>
</g>
</g>
<!-- Node11 -->
<g id="Node000011" class="node">
<title>Node11</title>
<g id="a_Node000011"><a xlink:href="../../d8/d40/_grid___computations_8cpp_a5214aea020c856108980e45d45cbc89b.html#a5214aea020c856108980e45d45cbc89b" target="_top" xlink:title=" ">
<polygon fill="white" stroke="#666666" points="344.25,-36.25 278,-36.25 278,-17 344.25,-17 344.25,-36.25"/>
<text text-anchor="middle" x="311.12" y="-22.75" font-family="Helvetica,sans-Serif" font-size="10.00">Form_Cells</text>
</a>
</g>
</g>
<!-- Node8&#45;&gt;Node11 -->
<g id="edge10_Node000008_Node000011" class="edge">
<title>Node8&#45;&gt;Node11</title>
<g id="a_edge10_Node000008_Node000011"><a xlink:title=" ">
<path fill="none" stroke="#63b8ff" d="M400.06,-40.64C381.85,-37.74 361.09,-34.43 344.32,-31.76"/>
<polygon fill="#63b8ff" stroke="#63b8ff" points="399.39,-44.08 409.81,-42.2 400.49,-37.17 399.39,-44.08"/>
</a>
</g>
</g>
<!-- Node10 -->
<g id="Node000010" class="node">
<title>Node10</title>
<g id="a_Node000010"><a xlink:href="../../dc/de7/_grid___optimization___integration___guide_8cpp_ad598130e8e89b3050bb9bd71f0ab1b25.html#ad598130e8e89b3050bb9bd71f0ab1b25" target="_top" xlink:title=" ">
<polygon fill="white" stroke="#666666" points="210.5,-79.25 73,-79.25 73,-60 210.5,-60 210.5,-79.25"/>
<text text-anchor="middle" x="141.75" y="-65.75" font-family="Helvetica,sans-Serif" font-size="10.00">integrate_grid_optimizations</text>
</a>
</g>
</g>
<!-- Node9&#45;&gt;Node10 -->
<g id="edge9_Node000009_Node000010" class="edge">
<title>Node9&#45;&gt;Node10</title>
<g id="a_edge9_Node000009_Node000010"><a xlink:title=" ">
<path fill="none" stroke="#63b8ff" d="M235.05,-69.62C226.97,-69.62 218.78,-69.62 210.78,-69.62"/>
<polygon fill="#63b8ff" stroke="#63b8ff" points="234.86,-73.13 244.86,-69.63 234.86,-66.13 234.86,-73.13"/>
</a>
</g>
</g>
<!-- Node12 -->
<g id="Node000012" class="node">
<title>Node12</title>
<g id="a_Node000012"><a xlink:href="../../d8/d40/_grid___computations_8cpp_adbee522543afe92b4b1cd9b4e96a6c3f.html#adbee522543afe92b4b1cd9b4e96a6c3f" target="_top" xlink:title=" ">
<polygon fill="white" stroke="#666666" points="186.88,-36.25 96.62,-36.25 96.62,-17 186.88,-17 186.88,-36.25"/>
<text text-anchor="middle" x="141.75" y="-22.75" font-family="Helvetica,sans-Serif" font-size="10.00">initializeGridFiles</text>
</a>
</g>
</g>
<!-- Node11&#45;&gt;Node12 -->
<g id="edge11_Node000011_Node000012" class="edge">
<title>Node11&#45;&gt;Node12</title>
<g id="a_edge11_Node000011_Node000012"><a xlink:title=" ">
<path fill="none" stroke="#63b8ff" d="M266.42,-26.62C242.04,-26.62 211.76,-26.62 187.26,-26.62"/>
<polygon fill="#63b8ff" stroke="#63b8ff" points="266.34,-30.13 276.34,-26.63 266.34,-23.13 266.34,-30.13"/>
</a>
</g>
</g>
<!-- Node13 -->
<g id="Node000013" class="node">
<title>Node13</title>
<g id="a_Node000013"><a xlink:href="../../d5/d12/_main_8cpp_a0ddf1224851353fc92bfbff6f499fa97.html#a0ddf1224851353fc92bfbff6f499fa97" target="_top" xlink:title=" ">
<polygon fill="white" stroke="#666666" points="37,-36.25 0,-36.25 0,-17 37,-17 37,-36.25"/>
<text text-anchor="middle" x="18.5" y="-22.75" font-family="Helvetica,sans-Serif" font-size="10.00">main</text>
</a>
</g>
</g>
<!-- Node12&#45;&gt;Node13 -->
<g id="edge12_Node000012_Node000013" class="edge">
<title>Node12&#45;&gt;Node13</title>
<g id="a_edge12_Node000012_Node000013"><a xlink:title=" ">
<path fill="none" stroke="#63b8ff" d="M85.09,-26.62C67.84,-26.62 50.05,-26.62 37.36,-26.62"/>
<polygon fill="#63b8ff" stroke="#63b8ff" points="84.78,-30.13 94.78,-26.63 84.78,-23.13 84.78,-30.13"/>
</a>
</g>
</g>
<!-- Node14&#45;&gt;Node8 -->
<g id="edge14_Node000014_Node000008" class="edge">
<title>Node14&#45;&gt;Node8</title>
<g id="a_edge14_Node000014_Node000008"><a xlink:title=" ">
<path fill="none" stroke="#63b8ff" d="M511.54,-47.62C500.05,-47.62 488.38,-47.62 478.14,-47.62"/>
<polygon fill="#63b8ff" stroke="#63b8ff" points="511.4,-51.13 521.4,-47.63 511.4,-44.13 511.4,-51.13"/>
</a>
</g>
</g>
<!-- Node15&#45;&gt;Node8 -->
<g id="edge16_Node000015_Node000008" class="edge">
<title>Node15&#45;&gt;Node8</title>
<g id="a_edge16_Node000015_Node000008"><a xlink:title=" ">
<path fill="none" stroke="#63b8ff" d="M690.01,-10.98C645.89,-12.94 574.61,-17.63 514,-28.62 501.8,-30.84 488.62,-34.26 477.14,-37.6"/>
<polygon fill="#63b8ff" stroke="#63b8ff" points="690.08,-14.48 699.92,-10.57 689.79,-7.49 690.08,-14.48"/>
</a>
</g>
</g>
</g>
</svg>
