<?xml version="1.0" encoding="UTF-8" standalone="no"?>
<!DOCTYPE svg PUBLIC "-//W3C//DTD SVG 1.1//EN"
 "http://www.w3.org/Graphics/SVG/1.1/DTD/svg11.dtd">
<!-- Generated by graphviz version 12.2.1 (20241206.2353)
 -->
<!-- Title: Sort_Points_AntiClockWise Pages: 1 -->
<svg width="415pt" height="82pt"
 viewBox="0.00 0.00 414.55 82.25" xmlns="http://www.w3.org/2000/svg" xmlns:xlink="http://www.w3.org/1999/xlink">
<g id="graph0" class="graph" transform="scale(1 1) rotate(0) translate(4 78.25)">
<title>Sort_Points_AntiClockWise</title>
<!-- Node1 -->
<g id="Node000001" class="node">
<title>Node1</title>
<g id="a_Node000001"><a xlink:title=" ">
<polygon fill="#999999" stroke="#666666" points="137.5,-55.25 0,-55.25 0,-36 137.5,-36 137.5,-55.25"/>
<text text-anchor="middle" x="68.75" y="-41.75" font-family="Helvetica,sans-Serif" font-size="10.00">Sort_Points_AntiClockWise</text>
</a>
</g>
</g>
<!-- Node2 -->
<g id="Node000002" class="node">
<title>Node2</title>
<g id="a_Node000002"><a xlink:href="../../d8/d40/_grid___computations_8cpp_a0bdffb27693c14d6cb4ef62eb5bd5d7f.html#a0bdffb27693c14d6cb4ef62eb5bd5d7f" target="_top" xlink:title="Sorts a set of points in anti&#45;clockwise order around their centroid.">
<polygon fill="white" stroke="#666666" points="341.75,-74.25 173.5,-74.25 173.5,-55 341.75,-55 341.75,-74.25"/>
<text text-anchor="middle" x="257.62" y="-60.75" font-family="Helvetica,sans-Serif" font-size="10.00">Are_Points_Sorted_AntiClockWise</text>
</a>
</g>
</g>
<!-- Node1&#45;&gt;Node2 -->
<g id="edge1_Node000001_Node000002" class="edge">
<title>Node1&#45;&gt;Node2</title>
<g id="a_edge1_Node000001_Node000002"><a xlink:title=" ">
<path fill="none" stroke="#63b8ff" d="M137.74,-52.54C145.55,-53.33 153.61,-54.15 161.68,-54.97"/>
<polygon fill="#63b8ff" stroke="#63b8ff" points="161.27,-58.45 171.57,-55.98 161.98,-51.48 161.27,-58.45"/>
</a>
</g>
</g>
<!-- Node3 -->
<g id="Node000003" class="node">
<title>Node3</title>
<g id="a_Node000003"><a xlink:href="../../d8/d40/_grid___computations_8cpp_a4dd07afd2a0f939b4d47bfa1088912c4.html#a4dd07afd2a0f939b4d47bfa1088912c4" target="_top" xlink:title=" ">
<polygon fill="white" stroke="#666666" points="306.5,-37.25 208.75,-37.25 208.75,-18 306.5,-18 306.5,-37.25"/>
<text text-anchor="middle" x="257.62" y="-23.75" font-family="Helvetica,sans-Serif" font-size="10.00">Compute_Centroid</text>
</a>
</g>
</g>
<!-- Node1&#45;&gt;Node3 -->
<g id="edge2_Node000001_Node000003" class="edge">
<title>Node1&#45;&gt;Node3</title>
<g id="a_edge2_Node000001_Node000003"><a xlink:title=" ">
<path fill="none" stroke="#63b8ff" d="M137.74,-39.08C157.1,-37.21 178.04,-35.19 196.87,-33.38"/>
<polygon fill="#63b8ff" stroke="#63b8ff" points="197.16,-36.87 206.78,-32.43 196.49,-29.9 197.16,-36.87"/>
</a>
</g>
</g>
<!-- Node4 -->
<g id="Node000004" class="node">
<title>Node4</title>
<g id="a_Node000004"><a xlink:href="../../d3/d82/_c_type___elliptic___grid_8cpp_a9d9acf133a5b966f0cbd16a2c57a7d79.html#a9d9acf133a5b966f0cbd16a2c57a7d79" target="_top" xlink:title=" ">
<polygon fill="white" stroke="#666666" points="406.55,-56.25 377.75,-56.25 377.75,-37 406.55,-37 406.55,-56.25"/>
<text text-anchor="middle" x="392.15" y="-42.75" font-family="Helvetica,sans-Serif" font-size="10.00">x</text>
</a>
</g>
</g>
<!-- Node3&#45;&gt;Node4 -->
<g id="edge3_Node000003_Node000004" class="edge">
<title>Node3&#45;&gt;Node4</title>
<g id="a_edge3_Node000003_Node000004"><a xlink:title=" ">
<path fill="none" stroke="#63b8ff" d="M306.84,-34.54C327.09,-37.44 349.77,-40.69 366.51,-43.09"/>
<polygon fill="#63b8ff" stroke="#63b8ff" points="365.63,-46.5 376.02,-44.46 366.62,-39.57 365.63,-46.5"/>
</a>
</g>
</g>
<!-- Node5 -->
<g id="Node000005" class="node">
<title>Node5</title>
<g id="a_Node000005"><a xlink:href="../../d3/d82/_c_type___elliptic___grid_8cpp_aae4b761a64c952b4c008655d1dc59a12.html#aae4b761a64c952b4c008655d1dc59a12" target="_top" xlink:title=" ">
<polygon fill="white" stroke="#666666" points="406.55,-19.25 377.75,-19.25 377.75,0 406.55,0 406.55,-19.25"/>
<text text-anchor="middle" x="392.15" y="-5.75" font-family="Helvetica,sans-Serif" font-size="10.00">y</text>
</a>
</g>
</g>
<!-- Node3&#45;&gt;Node5 -->
<g id="edge4_Node000003_Node000005" class="edge">
<title>Node3&#45;&gt;Node5</title>
<g id="a_edge4_Node000003_Node000005"><a xlink:title=" ">
<path fill="none" stroke="#63b8ff" d="M306.84,-21.08C327.09,-18.33 349.77,-15.24 366.51,-12.97"/>
<polygon fill="#63b8ff" stroke="#63b8ff" points="366.58,-16.49 376.02,-11.68 365.64,-9.56 366.58,-16.49"/>
</a>
</g>
</g>
</g>
</svg>
