<?xml version="1.0" encoding="UTF-8" standalone="no"?>
<!DOCTYPE svg PUBLIC "-//W3C//DTD SVG 1.1//EN"
 "http://www.w3.org/Graphics/SVG/1.1/DTD/svg11.dtd">
<!-- Generated by graphviz version 12.2.1 (20241206.2353)
 -->
<!-- Title: Conversion_Factor Pages: 1 -->
<svg width="695pt" height="699pt"
 viewBox="0.00 0.00 695.00 699.33" xmlns="http://www.w3.org/2000/svg" xmlns:xlink="http://www.w3.org/1999/xlink">
<g id="graph0" class="graph" transform="scale(1 1) rotate(0) translate(4 695.33)">
<title>Conversion_Factor</title>
<!-- Node1 -->
<g id="Node000001" class="node">
<title>Node1</title>
<g id="a_Node000001"><a xlink:title=" ">
<polygon fill="#999999" stroke="#666666" points="687,-177.33 588.5,-177.33 588.5,-158.08 687,-158.08 687,-177.33"/>
<text text-anchor="middle" x="637.75" y="-163.83" font-family="Helvetica,sans-Serif" font-size="10.00">Conversion_Factor</text>
</a>
</g>
</g>
<!-- Node2 -->
<g id="Node000002" class="node">
<title>Node2</title>
<g id="a_Node000002"><a xlink:href="../../d8/d40/_grid___computations_8cpp_a663d4b3ae06e638c2f2e82ad437e831e.html#a663d4b3ae06e638c2f2e82ad437e831e" target="_top" xlink:title="Reads the input grid file and constructs physical cells, evaluates face areas, normals,...">
<polygon fill="white" stroke="#666666" points="552.5,-177.33 490,-177.33 490,-158.08 552.5,-158.08 552.5,-177.33"/>
<text text-anchor="middle" x="521.25" y="-163.83" font-family="Helvetica,sans-Serif" font-size="10.00">Read_Grid</text>
</a>
</g>
</g>
<!-- Node1&#45;&gt;Node2 -->
<g id="edge1_Node000001_Node000002" class="edge">
<title>Node1&#45;&gt;Node2</title>
<g id="a_edge1_Node000001_Node000002"><a xlink:title=" ">
<path fill="none" stroke="#63b8ff" d="M576.91,-167.7C568.61,-167.7 560.4,-167.7 552.95,-167.7"/>
<polygon fill="#63b8ff" stroke="#63b8ff" points="576.68,-171.2 586.68,-167.7 576.68,-164.2 576.68,-171.2"/>
</a>
</g>
</g>
<!-- Node3 -->
<g id="Node000003" class="node">
<title>Node3</title>
<g id="a_Node000003"><a xlink:href="../../d8/d40/_grid___computations_8cpp_a831dcf7cbf36ddf425ce0753495ba3c6.html#a831dcf7cbf36ddf425ce0753495ba3c6" target="_top" xlink:title=" ">
<polygon fill="white" stroke="#666666" points="454,-344.33 387.75,-344.33 387.75,-325.08 454,-325.08 454,-344.33"/>
<text text-anchor="middle" x="420.88" y="-330.83" font-family="Helvetica,sans-Serif" font-size="10.00">Form_Cells</text>
</a>
</g>
</g>
<!-- Node2&#45;&gt;Node3 -->
<g id="edge2_Node000002_Node000003" class="edge">
<title>Node2&#45;&gt;Node3</title>
<g id="a_edge2_Node000002_Node000003"><a xlink:title=" ">
<path fill="none" stroke="#63b8ff" d="M508.64,-187.41C487.57,-223.18 443.76,-297.56 427.83,-324.6"/>
<polygon fill="#63b8ff" stroke="#63b8ff" points="511.56,-189.34 513.62,-178.95 505.53,-185.79 511.56,-189.34"/>
</a>
</g>
</g>
<!-- Node5 -->
<g id="Node000005" class="node">
<title>Node5</title>
<g id="a_Node000005"><a xlink:href="../../dd/dbf/_euler___python___wrapper_8cpp_ac5ccb50c3be270f798e054dd36987442.html#ac5ccb50c3be270f798e054dd36987442" target="_top" xlink:title=" ">
<polygon fill="white" stroke="#666666" points="185.75,-326.33 73,-326.33 73,-307.08 185.75,-307.08 185.75,-326.33"/>
<text text-anchor="middle" x="129.38" y="-312.83" font-family="Helvetica,sans-Serif" font-size="10.00">PYBIND11_MODULE</text>
</a>
</g>
</g>
<!-- Node2&#45;&gt;Node5 -->
<g id="edge39_Node000002_Node000005" class="edge">
<title>Node2&#45;&gt;Node5</title>
<g id="a_edge39_Node000002_Node000005"><a xlink:title=" ">
<path fill="none" stroke="#63b8ff" d="M505.13,-149.11C459.46,-95.19 320.07,52.92 221.75,-19.7 172.82,-55.84 139.19,-258.76 131.87,-306.6"/>
<polygon fill="#63b8ff" stroke="#63b8ff" points="502.25,-151.13 511.34,-156.57 507.63,-146.65 502.25,-151.13"/>
</a>
</g>
</g>
<!-- Node4 -->
<g id="Node000004" class="node">
<title>Node4</title>
<g id="a_Node000004"><a xlink:href="../../d0/d3f/_channel___flow_8cpp_a986df1d2277d1fc7e22408557f29c135.html#a986df1d2277d1fc7e22408557f29c135" target="_top" xlink:title=" ">
<polygon fill="white" stroke="#666666" points="325.88,-654.33 247.62,-654.33 247.62,-635.08 325.88,-635.08 325.88,-654.33"/>
<text text-anchor="middle" x="286.75" y="-640.83" font-family="Helvetica,sans-Serif" font-size="10.00">Channel_Flow</text>
</a>
</g>
</g>
<!-- Node3&#45;&gt;Node4 -->
<g id="edge3_Node000003_Node000004" class="edge">
<title>Node3&#45;&gt;Node4</title>
<g id="a_edge3_Node000003_Node000004"><a xlink:title=" ">
<path fill="none" stroke="#63b8ff" d="M417.41,-355.91C410.15,-415.15 387.06,-580.68 351.75,-620.7 345.08,-628.27 335.78,-633.45 326.34,-637.01"/>
<polygon fill="#63b8ff" stroke="#63b8ff" points="420.86,-356.52 418.58,-346.18 413.91,-355.69 420.86,-356.52"/>
</a>
</g>
</g>
<!-- Node3&#45;&gt;Node5 -->
<g id="edge20_Node000003_Node000005" class="edge">
<title>Node3&#45;&gt;Node5</title>
<g id="a_edge20_Node000003_Node000005"><a xlink:title=" ">
<path fill="none" stroke="#63b8ff" d="M417.44,-355.91C410.57,-411.49 389.1,-559.08 351.75,-587.7 305.89,-622.85 268.68,-621.4 221.75,-587.7 132.42,-523.55 129.27,-367.53 130.04,-326.65"/>
<polygon fill="#63b8ff" stroke="#63b8ff" points="420.89,-356.54 418.6,-346.19 413.94,-355.71 420.89,-356.54"/>
</a>
</g>
</g>
<!-- Node6 -->
<g id="Node000006" class="node">
<title>Node6</title>
<g id="a_Node000006"><a xlink:href="../../d8/d62/_ellinga___test_case_8cpp_ae7167da7e4a13ec20ea77342a492b6ee.html#ae7167da7e4a13ec20ea77342a492b6ee" target="_top" xlink:title=" ">
<polygon fill="white" stroke="#666666" points="334.12,-578.33 239.38,-578.33 239.38,-559.08 334.12,-559.08 334.12,-578.33"/>
<text text-anchor="middle" x="286.75" y="-564.83" font-family="Helvetica,sans-Serif" font-size="10.00">Ellinga_Carbuncle</text>
</a>
</g>
</g>
<!-- Node3&#45;&gt;Node6 -->
<g id="edge5_Node000003_Node000006" class="edge">
<title>Node3&#45;&gt;Node6</title>
<g id="a_edge5_Node000003_Node000006"><a xlink:title=" ">
<path fill="none" stroke="#63b8ff" d="M419.42,-355.9C417.32,-398.72 406.44,-496 351.75,-549.7 346.87,-554.49 340.84,-558.08 334.45,-560.78"/>
<polygon fill="#63b8ff" stroke="#63b8ff" points="422.91,-356.1 419.77,-345.98 415.92,-355.85 422.91,-356.1"/>
</a>
</g>
</g>
<!-- Node7 -->
<g id="Node000007" class="node">
<title>Node7</title>
<g id="a_Node000007"><a xlink:href="../../de/d81/_flat___plate___boundary___layer_8cpp_a787b29de4053181d716a19e7c4c9b705.html#a787b29de4053181d716a19e7c4c9b705" target="_top" xlink:title=" ">
<polygon fill="white" stroke="#666666" points="340.12,-540.95 233.38,-540.95 233.38,-510.45 340.12,-510.45 340.12,-540.95"/>
<text text-anchor="start" x="241.38" y="-527.45" font-family="Helvetica,sans-Serif" font-size="10.00">Flat_Plate_Boundary</text>
<text text-anchor="middle" x="286.75" y="-516.2" font-family="Helvetica,sans-Serif" font-size="10.00">_Layer</text>
</a>
</g>
</g>
<!-- Node3&#45;&gt;Node7 -->
<g id="edge7_Node000003_Node000007" class="edge">
<title>Node3&#45;&gt;Node7</title>
<g id="a_edge7_Node000003_Node000007"><a xlink:title=" ">
<path fill="none" stroke="#63b8ff" d="M416.85,-355.65C410.74,-390.57 393.75,-460.89 351.75,-501.7 348.43,-504.93 344.64,-507.73 340.59,-510.16"/>
<polygon fill="#63b8ff" stroke="#63b8ff" points="420.27,-356.42 418.4,-346 413.36,-355.32 420.27,-356.42"/>
</a>
</g>
</g>
<!-- Node8 -->
<g id="Node000008" class="node">
<title>Node8</title>
<g id="a_Node000008"><a xlink:href="../../da/d4b/_flow___over___bump_8cpp_abaa8184c0dd8aa3fdc37d585f0a7d0cc.html#abaa8184c0dd8aa3fdc37d585f0a7d0cc" target="_top" xlink:title=" ">
<polygon fill="white" stroke="#666666" points="333.75,-492.33 239.75,-492.33 239.75,-473.08 333.75,-473.08 333.75,-492.33"/>
<text text-anchor="middle" x="286.75" y="-478.83" font-family="Helvetica,sans-Serif" font-size="10.00">Flow_Over_Bump</text>
</a>
</g>
</g>
<!-- Node3&#45;&gt;Node8 -->
<g id="edge9_Node000003_Node000008" class="edge">
<title>Node3&#45;&gt;Node8</title>
<g id="a_edge9_Node000003_Node000008"><a xlink:title=" ">
<path fill="none" stroke="#63b8ff" d="M414.64,-355.36C406.26,-384.16 387.08,-436.06 351.75,-464.7 346.55,-468.92 340.42,-472.15 334.05,-474.62"/>
<polygon fill="#63b8ff" stroke="#63b8ff" points="417.93,-356.59 417.18,-346.02 411.18,-354.75 417.93,-356.59"/>
</a>
</g>
</g>
<!-- Node9 -->
<g id="Node000009" class="node">
<title>Node9</title>
<g id="a_Node000009"><a xlink:href="../../dc/d8c/_forward___facing___step_8cpp_a5f68d17ee33caeda5da8c4270441108c.html#a5f68d17ee33caeda5da8c4270441108c" target="_top" xlink:title=" ">
<polygon fill="white" stroke="#666666" points="342.38,-455.33 231.12,-455.33 231.12,-436.08 342.38,-436.08 342.38,-455.33"/>
<text text-anchor="middle" x="286.75" y="-441.83" font-family="Helvetica,sans-Serif" font-size="10.00">Forward_Facing_Step</text>
</a>
</g>
</g>
<!-- Node3&#45;&gt;Node9 -->
<g id="edge11_Node000003_Node000009" class="edge">
<title>Node3&#45;&gt;Node9</title>
<g id="a_edge11_Node000003_Node000009"><a xlink:title=" ">
<path fill="none" stroke="#63b8ff" d="M410.34,-354.68C399.21,-375.91 378.79,-408.95 351.75,-427.7 347.2,-430.86 342.1,-433.46 336.83,-435.62"/>
<polygon fill="#63b8ff" stroke="#63b8ff" points="413.4,-356.39 414.76,-345.88 407.15,-353.25 413.4,-356.39"/>
</a>
</g>
</g>
<!-- Node10 -->
<g id="Node000010" class="node">
<title>Node10</title>
<g id="a_Node000010"><a xlink:href="../../df/dee/_half___cylinder___test___case_8cpp_ad6cb651752c2dd1cb946428572cfb769.html#ad6cb651752c2dd1cb946428572cfb769" target="_top" xlink:title=" ">
<polygon fill="white" stroke="#666666" points="337.5,-418.33 236,-418.33 236,-399.08 337.5,-399.08 337.5,-418.33"/>
<text text-anchor="middle" x="286.75" y="-404.83" font-family="Helvetica,sans-Serif" font-size="10.00">Half_Cylinder_Flow</text>
</a>
</g>
</g>
<!-- Node3&#45;&gt;Node10 -->
<g id="edge13_Node000003_Node000010" class="edge">
<title>Node3&#45;&gt;Node10</title>
<g id="a_edge13_Node000003_Node000010"><a xlink:title=" ">
<path fill="none" stroke="#63b8ff" d="M402.67,-352.3C389.71,-364.65 370.94,-380.69 351.75,-390.7 345.82,-393.8 339.28,-396.42 332.73,-398.61"/>
<polygon fill="#63b8ff" stroke="#63b8ff" points="404.89,-355.03 409.57,-345.52 399.99,-350.04 404.89,-355.03"/>
</a>
</g>
</g>
<!-- Node11 -->
<g id="Node000011" class="node">
<title>Node11</title>
<g id="a_Node000011"><a xlink:href="../../d3/db8/_initialize___test_case_8cpp_a4debd02bbc1736679fe1145738aba8c3.html#a4debd02bbc1736679fe1145738aba8c3" target="_top" xlink:title=" ">
<polygon fill="white" stroke="#666666" points="336.38,-691.33 237.12,-691.33 237.12,-672.08 336.38,-672.08 336.38,-691.33"/>
<text text-anchor="middle" x="286.75" y="-677.83" font-family="Helvetica,sans-Serif" font-size="10.00">Initialize_TestCase</text>
</a>
</g>
</g>
<!-- Node3&#45;&gt;Node11 -->
<g id="edge15_Node000003_Node000011" class="edge">
<title>Node3&#45;&gt;Node11</title>
<g id="a_edge15_Node000003_Node000011"><a xlink:title=" ">
<path fill="none" stroke="#63b8ff" d="M418.33,-355.76C413.11,-421.03 394.08,-618.31 351.75,-663.7 347.58,-668.18 342.39,-671.57 336.79,-674.14"/>
<polygon fill="#63b8ff" stroke="#63b8ff" points="421.8,-356.29 419.07,-346.06 414.82,-355.76 421.8,-356.29"/>
</a>
</g>
</g>
<!-- Node14 -->
<g id="Node000014" class="node">
<title>Node14</title>
<g id="a_Node000014"><a xlink:href="../../de/dc4/_o_e_d_8cpp_a1404a4711dcead4c50dd9eaa2ab7b7c0.html#a1404a4711dcead4c50dd9eaa2ab7b7c0" target="_top" xlink:title=" ">
<polygon fill="white" stroke="#666666" points="305.62,-381.33 267.88,-381.33 267.88,-362.08 305.62,-362.08 305.62,-381.33"/>
<text text-anchor="middle" x="286.75" y="-367.83" font-family="Helvetica,sans-Serif" font-size="10.00">OED</text>
</a>
</g>
</g>
<!-- Node3&#45;&gt;Node14 -->
<g id="edge18_Node000003_Node000014" class="edge">
<title>Node3&#45;&gt;Node14</title>
<g id="a_edge18_Node000003_Node000014"><a xlink:title=" ">
<path fill="none" stroke="#63b8ff" d="M376.56,-346.83C352.59,-353.55 324.05,-361.54 305.92,-366.61"/>
<polygon fill="#63b8ff" stroke="#63b8ff" points="377.41,-350.23 386.1,-344.16 375.52,-343.49 377.41,-350.23"/>
</a>
</g>
</g>
<!-- Node15 -->
<g id="Node000015" class="node">
<title>Node15</title>
<g id="a_Node000015"><a xlink:href="../../dd/de9/_ramp__15___degree_8cpp_af85931ed4e293dce5c8e4acafecd54b5.html#af85931ed4e293dce5c8e4acafecd54b5" target="_top" xlink:title=" ">
<polygon fill="white" stroke="#666666" points="334.12,-344.33 239.38,-344.33 239.38,-325.08 334.12,-325.08 334.12,-344.33"/>
<text text-anchor="middle" x="286.75" y="-330.83" font-family="Helvetica,sans-Serif" font-size="10.00">Ramp_15_Degree</text>
</a>
</g>
</g>
<!-- Node3&#45;&gt;Node15 -->
<g id="edge21_Node000003_Node000015" class="edge">
<title>Node3&#45;&gt;Node15</title>
<g id="a_edge21_Node000003_Node000015"><a xlink:title=" ">
<path fill="none" stroke="#63b8ff" d="M376.21,-334.7C362.83,-334.7 348.05,-334.7 334.46,-334.7"/>
<polygon fill="#63b8ff" stroke="#63b8ff" points="376.04,-338.2 386.04,-334.7 376.04,-331.2 376.04,-338.2"/>
</a>
</g>
</g>
<!-- Node16 -->
<g id="Node000016" class="node">
<title>Node16</title>
<g id="a_Node000016"><a xlink:href="../../d2/d72/_scram___jet___inlet___test___case_8cpp_a49bbbeed352ab44d6248954f9d5391b0.html#a49bbbeed352ab44d6248954f9d5391b0" target="_top" xlink:title=" ">
<polygon fill="white" stroke="#666666" points="330.38,-307.33 243.12,-307.33 243.12,-288.08 330.38,-288.08 330.38,-307.33"/>
<text text-anchor="middle" x="286.75" y="-293.83" font-family="Helvetica,sans-Serif" font-size="10.00">Scram_Jet_Inlet</text>
</a>
</g>
</g>
<!-- Node3&#45;&gt;Node16 -->
<g id="edge23_Node000003_Node000016" class="edge">
<title>Node3&#45;&gt;Node16</title>
<g id="a_edge23_Node000003_Node000016"><a xlink:title=" ">
<path fill="none" stroke="#63b8ff" d="M376.64,-322.59C359.42,-317.77 339.84,-312.29 323.45,-307.7"/>
<polygon fill="#63b8ff" stroke="#63b8ff" points="375.52,-325.92 386.1,-325.24 377.41,-319.18 375.52,-325.92"/>
</a>
</g>
</g>
<!-- Node17 -->
<g id="Node000017" class="node">
<title>Node17</title>
<g id="a_Node000017"><a xlink:href="../../d1/d48/_shock___bubble___interaction_8cpp_a4cb762eff7e59896e567775356bda66a.html#a4cb762eff7e59896e567775356bda66a" target="_top" xlink:title=" ">
<polygon fill="white" stroke="#666666" points="351.75,-270.33 221.75,-270.33 221.75,-251.08 351.75,-251.08 351.75,-270.33"/>
<text text-anchor="middle" x="286.75" y="-256.83" font-family="Helvetica,sans-Serif" font-size="10.00">Shock_Bubble_Interaction</text>
</a>
</g>
</g>
<!-- Node3&#45;&gt;Node17 -->
<g id="edge25_Node000003_Node000017" class="edge">
<title>Node3&#45;&gt;Node17</title>
<g id="a_edge25_Node000003_Node000017"><a xlink:title=" ">
<path fill="none" stroke="#63b8ff" d="M402.67,-317.1C389.71,-304.75 370.94,-288.72 351.75,-278.7 345.82,-275.6 339.28,-272.99 332.73,-270.79"/>
<polygon fill="#63b8ff" stroke="#63b8ff" points="399.99,-319.37 409.57,-323.88 404.89,-314.37 399.99,-319.37"/>
</a>
</g>
</g>
<!-- Node18 -->
<g id="Node000018" class="node">
<title>Node18</title>
<g id="a_Node000018"><a xlink:href="../../d5/d9f/_shock___diffraction_8cpp_a464d43fab5d32cc9ecee800dfab8e5c8.html#a464d43fab5d32cc9ecee800dfab8e5c8" target="_top" xlink:title=" ">
<polygon fill="white" stroke="#666666" points="333.75,-233.33 239.75,-233.33 239.75,-214.08 333.75,-214.08 333.75,-233.33"/>
<text text-anchor="middle" x="286.75" y="-219.83" font-family="Helvetica,sans-Serif" font-size="10.00">Shock_Diffraction</text>
</a>
</g>
</g>
<!-- Node3&#45;&gt;Node18 -->
<g id="edge27_Node000003_Node000018" class="edge">
<title>Node3&#45;&gt;Node18</title>
<g id="a_edge27_Node000003_Node000018"><a xlink:title=" ">
<path fill="none" stroke="#63b8ff" d="M410.34,-314.72C399.21,-293.49 378.79,-260.46 351.75,-241.7 346.44,-238.02 340.39,-235.08 334.18,-232.75"/>
<polygon fill="#63b8ff" stroke="#63b8ff" points="407.15,-316.15 414.76,-323.52 413.4,-313.01 407.15,-316.15"/>
</a>
</g>
</g>
<!-- Node19 -->
<g id="Node000019" class="node">
<title>Node19</title>
<g id="a_Node000019"><a xlink:href="../../d2/d58/_shock___reflection__2_d_8cpp_a286a95bfcac44ff19264008ffd9506ed.html#a286a95bfcac44ff19264008ffd9506ed" target="_top" xlink:title=" ">
<polygon fill="white" stroke="#666666" points="342.38,-196.33 231.12,-196.33 231.12,-177.08 342.38,-177.08 342.38,-196.33"/>
<text text-anchor="middle" x="286.75" y="-182.83" font-family="Helvetica,sans-Serif" font-size="10.00">Shock_Reflection_2D</text>
</a>
</g>
</g>
<!-- Node3&#45;&gt;Node19 -->
<g id="edge29_Node000003_Node000019" class="edge">
<title>Node3&#45;&gt;Node19</title>
<g id="a_edge29_Node000003_Node000019"><a xlink:title=" ">
<path fill="none" stroke="#63b8ff" d="M414.64,-314.05C406.26,-285.25 387.08,-233.34 351.75,-204.7 347.8,-201.5 343.32,-198.87 338.61,-196.71"/>
<polygon fill="#63b8ff" stroke="#63b8ff" points="411.18,-314.65 417.18,-323.38 417.93,-312.81 411.18,-314.65"/>
</a>
</g>
</g>
<!-- Node20 -->
<g id="Node000020" class="node">
<title>Node20</title>
<g id="a_Node000020"><a xlink:href="../../d6/d4f/_shock___tube__2_d_8cpp_a634f5b7cf63cab96d3b48ed0b4df6ad4.html#a634f5b7cf63cab96d3b48ed0b4df6ad4" target="_top" xlink:title=" ">
<polygon fill="white" stroke="#666666" points="331.12,-159.33 242.38,-159.33 242.38,-140.08 331.12,-140.08 331.12,-159.33"/>
<text text-anchor="middle" x="286.75" y="-145.83" font-family="Helvetica,sans-Serif" font-size="10.00">Shock_Tube_2D</text>
</a>
</g>
</g>
<!-- Node3&#45;&gt;Node20 -->
<g id="edge31_Node000003_Node000020" class="edge">
<title>Node3&#45;&gt;Node20</title>
<g id="a_edge31_Node000003_Node000020"><a xlink:title=" ">
<path fill="none" stroke="#63b8ff" d="M417.22,-313.36C411.65,-277.86 395.44,-206.7 351.75,-167.7 345.98,-162.55 338.85,-158.86 331.46,-156.23"/>
<polygon fill="#63b8ff" stroke="#63b8ff" points="413.74,-313.79 418.61,-323.21 420.68,-312.82 413.74,-313.79"/>
</a>
</g>
</g>
<!-- Node21 -->
<g id="Node000021" class="node">
<title>Node21</title>
<g id="a_Node000021"><a xlink:href="../../de/dda/_shock___wedge___reflection_8cpp_a951397acc5a124a5a006dbd5ae45029a.html#a951397acc5a124a5a006dbd5ae45029a" target="_top" xlink:title=" ">
<polygon fill="white" stroke="#666666" points="351,-122.33 222.5,-122.33 222.5,-103.08 351,-103.08 351,-122.33"/>
<text text-anchor="middle" x="286.75" y="-108.83" font-family="Helvetica,sans-Serif" font-size="10.00">Shock_Wedge_Reflection</text>
</a>
</g>
</g>
<!-- Node3&#45;&gt;Node21 -->
<g id="edge33_Node000003_Node000021" class="edge">
<title>Node3&#45;&gt;Node21</title>
<g id="a_edge33_Node000003_Node000021"><a xlink:title=" ">
<path fill="none" stroke="#63b8ff" d="M419.07,-313.66C416.33,-272.46 404.3,-180.78 351.75,-130.7 348.41,-127.52 344.55,-124.89 340.41,-122.72"/>
<polygon fill="#63b8ff" stroke="#63b8ff" points="415.56,-313.63 419.58,-323.43 422.55,-313.26 415.56,-313.63"/>
</a>
</g>
</g>
<!-- Node22 -->
<g id="Node000022" class="node">
<title>Node22</title>
<g id="a_Node000022"><a xlink:href="../../d8/d8f/_slip___flow__2_d_8cpp_a41030236ecf9b4d95159d7227a838eab.html#a41030236ecf9b4d95159d7227a838eab" target="_top" xlink:title=" ">
<polygon fill="white" stroke="#666666" points="325.12,-85.33 248.38,-85.33 248.38,-66.08 325.12,-66.08 325.12,-85.33"/>
<text text-anchor="middle" x="286.75" y="-71.83" font-family="Helvetica,sans-Serif" font-size="10.00">Slip_Flow_2D</text>
</a>
</g>
</g>
<!-- Node3&#45;&gt;Node22 -->
<g id="edge35_Node000003_Node000022" class="edge">
<title>Node3&#45;&gt;Node22</title>
<g id="a_edge35_Node000003_Node000022"><a xlink:title=" ">
<path fill="none" stroke="#63b8ff" d="M420.35,-313.46C420.2,-266.85 413.05,-154.92 351.75,-93.7 344.64,-86.61 334.98,-82.25 325.31,-79.6"/>
<polygon fill="#63b8ff" stroke="#63b8ff" points="416.86,-313.23 420.26,-323.26 423.85,-313.29 416.86,-313.23"/>
</a>
</g>
</g>
<!-- Node23 -->
<g id="Node000023" class="node">
<title>Node23</title>
<g id="a_Node000023"><a xlink:href="../../d8/da5/_s_w_b_l_i_8cpp_aab1edbd94ae1737559f5140355148ed8.html#aab1edbd94ae1737559f5140355148ed8" target="_top" xlink:title=" ">
<polygon fill="white" stroke="#666666" points="310.5,-48.33 263,-48.33 263,-29.08 310.5,-29.08 310.5,-48.33"/>
<text text-anchor="middle" x="286.75" y="-34.83" font-family="Helvetica,sans-Serif" font-size="10.00">SWBLI</text>
</a>
</g>
</g>
<!-- Node3&#45;&gt;Node23 -->
<g id="edge37_Node000003_Node000023" class="edge">
<title>Node3&#45;&gt;Node23</title>
<g id="a_edge37_Node000003_Node000023"><a xlink:title=" ">
<path fill="none" stroke="#63b8ff" d="M417.45,-313.54C410.34,-255.22 387.79,-93.98 351.75,-56.7 341.16,-45.75 324.48,-41.3 310.8,-39.57"/>
<polygon fill="#63b8ff" stroke="#63b8ff" points="413.93,-313.61 418.58,-323.13 420.88,-312.79 413.93,-313.61"/>
</a>
</g>
</g>
<!-- Node4&#45;&gt;Node5 -->
<g id="edge4_Node000004_Node000005" class="edge">
<title>Node4&#45;&gt;Node5</title>
<g id="a_edge4_Node000004_Node000005"><a xlink:title=" ">
<path fill="none" stroke="#63b8ff" d="M236.99,-632.05C231.33,-629.03 226.06,-625.31 221.75,-620.7 138.18,-531.35 130.84,-368.36 130.36,-326.64"/>
<polygon fill="#63b8ff" stroke="#63b8ff" points="235.52,-635.22 246.07,-636.12 238.38,-628.84 235.52,-635.22"/>
</a>
</g>
</g>
<!-- Node6&#45;&gt;Node5 -->
<g id="edge6_Node000006_Node000005" class="edge">
<title>Node6&#45;&gt;Node5</title>
<g id="a_edge6_Node000006_Node000005"><a xlink:title=" ">
<path fill="none" stroke="#63b8ff" d="M228.79,-555.07C226.28,-553.47 223.92,-551.69 221.75,-549.7 151.98,-485.63 134.78,-361.72 131.21,-326.34"/>
<polygon fill="#63b8ff" stroke="#63b8ff" points="227.17,-558.17 237.66,-559.65 230.38,-551.95 227.17,-558.17"/>
</a>
</g>
</g>
<!-- Node7&#45;&gt;Node5 -->
<g id="edge8_Node000007_Node000005" class="edge">
<title>Node7&#45;&gt;Node5</title>
<g id="a_edge8_Node000007_Node000005"><a xlink:title=" ">
<path fill="none" stroke="#63b8ff" d="M224.12,-503.73C223.31,-503.08 222.52,-502.4 221.75,-501.7 165.43,-450.75 139.73,-357.32 132.55,-326.7"/>
<polygon fill="#63b8ff" stroke="#63b8ff" points="221.98,-506.5 232.21,-509.23 225.91,-500.71 221.98,-506.5"/>
</a>
</g>
</g>
<!-- Node8&#45;&gt;Node5 -->
<g id="edge10_Node000008_Node000005" class="edge">
<title>Node8&#45;&gt;Node5</title>
<g id="a_edge10_Node000008_Node000005"><a xlink:title=" ">
<path fill="none" stroke="#63b8ff" d="M229.07,-469.42C226.51,-468 224.05,-466.43 221.75,-464.7 171.83,-427.08 142.9,-353.53 133.65,-326.76"/>
<polygon fill="#63b8ff" stroke="#63b8ff" points="227.46,-472.53 238,-473.53 230.38,-466.17 227.46,-472.53"/>
</a>
</g>
</g>
<!-- Node9&#45;&gt;Node5 -->
<g id="edge12_Node000009_Node000005" class="edge">
<title>Node9&#45;&gt;Node5</title>
<g id="a_edge12_Node000009_Node000005"><a xlink:title=" ">
<path fill="none" stroke="#63b8ff" d="M227.4,-431.02C225.45,-429.99 223.56,-428.88 221.75,-427.7 180.15,-400.56 148.01,-348.54 135.76,-326.72"/>
<polygon fill="#63b8ff" stroke="#63b8ff" points="225.58,-434.04 236.13,-434.99 228.48,-427.67 225.58,-434.04"/>
</a>
</g>
</g>
<!-- Node10&#45;&gt;Node5 -->
<g id="edge14_Node000010_Node000005" class="edge">
<title>Node10&#45;&gt;Node5</title>
<g id="a_edge14_Node000010_Node000005"><a xlink:title=" ">
<path fill="none" stroke="#63b8ff" d="M230.6,-394.79C227.55,-393.53 224.59,-392.17 221.75,-390.7 188.21,-373.35 155.43,-342.43 139.82,-326.62"/>
<polygon fill="#63b8ff" stroke="#63b8ff" points="229.11,-397.97 239.71,-398.16 231.55,-391.41 229.11,-397.97"/>
</a>
</g>
</g>
<!-- Node12 -->
<g id="Node000012" class="node">
<title>Node12</title>
<g id="a_Node000012"><a xlink:href="../../d0/de9/_configuration___read_8cpp_af498db18e73ae99cf5272ad58683fc97.html#af498db18e73ae99cf5272ad58683fc97" target="_top" xlink:title=" ">
<polygon fill="white" stroke="#666666" points="181.25,-691.33 77.5,-691.33 77.5,-672.08 181.25,-672.08 181.25,-691.33"/>
<text text-anchor="middle" x="129.38" y="-677.83" font-family="Helvetica,sans-Serif" font-size="10.00">readTestCaseJSON</text>
</a>
</g>
</g>
<!-- Node11&#45;&gt;Node12 -->
<g id="edge16_Node000011_Node000012" class="edge">
<title>Node11&#45;&gt;Node12</title>
<g id="a_edge16_Node000011_Node000012"><a xlink:title=" ">
<path fill="none" stroke="#63b8ff" d="M225.6,-681.7C211.07,-681.7 195.69,-681.7 181.62,-681.7"/>
<polygon fill="#63b8ff" stroke="#63b8ff" points="225.5,-685.2 235.5,-681.7 225.5,-678.2 225.5,-685.2"/>
</a>
</g>
</g>
<!-- Node13 -->
<g id="Node000013" class="node">
<title>Node13</title>
<g id="a_Node000013"><a xlink:href="../../d5/d12/_main_8cpp_a0ddf1224851353fc92bfbff6f499fa97.html#a0ddf1224851353fc92bfbff6f499fa97" target="_top" xlink:title=" ">
<polygon fill="white" stroke="#666666" points="37,-691.33 0,-691.33 0,-672.08 37,-672.08 37,-691.33"/>
<text text-anchor="middle" x="18.5" y="-677.83" font-family="Helvetica,sans-Serif" font-size="10.00">main</text>
</a>
</g>
</g>
<!-- Node12&#45;&gt;Node13 -->
<g id="edge17_Node000012_Node000013" class="edge">
<title>Node12&#45;&gt;Node13</title>
<g id="a_edge17_Node000012_Node000013"><a xlink:title=" ">
<path fill="none" stroke="#63b8ff" d="M65.8,-681.7C55.44,-681.7 45.48,-681.7 37.47,-681.7"/>
<polygon fill="#63b8ff" stroke="#63b8ff" points="65.61,-685.2 75.61,-681.7 65.61,-678.2 65.61,-685.2"/>
</a>
</g>
</g>
<!-- Node14&#45;&gt;Node5 -->
<g id="edge19_Node000014_Node000005" class="edge">
<title>Node14&#45;&gt;Node5</title>
<g id="a_edge19_Node000014_Node000005"><a xlink:title=" ">
<path fill="none" stroke="#63b8ff" d="M256.6,-364.23C245.6,-361.22 233.02,-357.55 221.75,-353.7 197.94,-345.56 171.35,-334.57 153.02,-326.69"/>
<polygon fill="#63b8ff" stroke="#63b8ff" points="255.35,-367.52 265.92,-366.72 257.16,-360.76 255.35,-367.52"/>
</a>
</g>
</g>
<!-- Node15&#45;&gt;Node5 -->
<g id="edge22_Node000015_Node000005" class="edge">
<title>Node15&#45;&gt;Node5</title>
<g id="a_edge22_Node000015_Node000005"><a xlink:title=" ">
<path fill="none" stroke="#63b8ff" d="M227.87,-328C214.18,-326.41 199.6,-324.72 186,-323.15"/>
<polygon fill="#63b8ff" stroke="#63b8ff" points="227.29,-331.45 237.63,-329.13 228.1,-324.5 227.29,-331.45"/>
</a>
</g>
</g>
<!-- Node16&#45;&gt;Node5 -->
<g id="edge24_Node000016_Node000005" class="edge">
<title>Node16&#45;&gt;Node5</title>
<g id="a_edge24_Node000016_Node000005"><a xlink:title=" ">
<path fill="none" stroke="#63b8ff" d="M231.88,-304.29C217.12,-306.09 201.08,-308.06 186.21,-309.87"/>
<polygon fill="#63b8ff" stroke="#63b8ff" points="231.88,-307.82 241.38,-303.13 231.03,-300.87 231.88,-307.82"/>
</a>
</g>
</g>
<!-- Node17&#45;&gt;Node5 -->
<g id="edge26_Node000017_Node000005" class="edge">
<title>Node17&#45;&gt;Node5</title>
<g id="a_edge26_Node000017_Node000005"><a xlink:title=" ">
<path fill="none" stroke="#63b8ff" d="M236.22,-273.99C231.31,-275.5 226.41,-277.08 221.75,-278.7 197.57,-287.1 170.58,-298.59 152.25,-306.74"/>
<polygon fill="#63b8ff" stroke="#63b8ff" points="236.89,-277.44 245.49,-271.24 234.9,-270.73 236.89,-277.44"/>
</a>
</g>
</g>
<!-- Node18&#45;&gt;Node5 -->
<g id="edge28_Node000018_Node000005" class="edge">
<title>Node18&#45;&gt;Node5</title>
<g id="a_edge28_Node000018_Node000005"><a xlink:title=" ">
<path fill="none" stroke="#63b8ff" d="M230.13,-237.78C227.25,-238.99 224.44,-240.3 221.75,-241.7 188.09,-259.26 155.36,-290.61 139.79,-306.65"/>
<polygon fill="#63b8ff" stroke="#63b8ff" points="231.22,-241.11 239.35,-234.32 228.76,-234.56 231.22,-241.11"/>
</a>
</g>
</g>
<!-- Node19&#45;&gt;Node5 -->
<g id="edge30_Node000019_Node000005" class="edge">
<title>Node19&#45;&gt;Node5</title>
<g id="a_edge30_Node000019_Node000005"><a xlink:title=" ">
<path fill="none" stroke="#63b8ff" d="M227.39,-201.37C225.45,-202.41 223.56,-203.51 221.75,-204.7 179.99,-232.08 147.94,-284.57 135.74,-306.59"/>
<polygon fill="#63b8ff" stroke="#63b8ff" points="228.47,-204.72 236.12,-197.39 225.57,-198.35 228.47,-204.72"/>
</a>
</g>
</g>
<!-- Node20&#45;&gt;Node5 -->
<g id="edge32_Node000020_Node000005" class="edge">
<title>Node20&#45;&gt;Node5</title>
<g id="a_edge32_Node000020_Node000005"><a xlink:title=" ">
<path fill="none" stroke="#63b8ff" d="M231.42,-161.73C228.01,-163.46 224.74,-165.44 221.75,-167.7 171.65,-205.59 142.83,-279.62 133.63,-306.58"/>
<polygon fill="#63b8ff" stroke="#63b8ff" points="232.78,-164.96 240.63,-157.84 230.06,-158.51 232.78,-164.96"/>
</a>
</g>
</g>
<!-- Node21&#45;&gt;Node5 -->
<g id="edge34_Node000021_Node000005" class="edge">
<title>Node21&#45;&gt;Node5</title>
<g id="a_edge34_Node000021_Node000005"><a xlink:title=" ">
<path fill="none" stroke="#63b8ff" d="M224.7,-128.42C223.69,-129.15 222.7,-129.91 221.75,-130.7 162.85,-179.73 138.71,-275.93 132.26,-306.87"/>
<polygon fill="#63b8ff" stroke="#63b8ff" points="226.28,-131.56 233.17,-123.51 222.77,-125.5 226.28,-131.56"/>
</a>
</g>
</g>
<!-- Node22&#45;&gt;Node5 -->
<g id="edge36_Node000022_Node000005" class="edge">
<title>Node22&#45;&gt;Node5</title>
<g id="a_edge36_Node000022_Node000005"><a xlink:title=" ">
<path fill="none" stroke="#63b8ff" d="M237.5,-84.01C231.76,-86.46 226.33,-89.62 221.75,-93.7 153.98,-154.11 135.45,-272.34 131.37,-306.96"/>
<polygon fill="#63b8ff" stroke="#63b8ff" points="238.32,-87.43 246.61,-80.83 236.01,-80.82 238.32,-87.43"/>
</a>
</g>
</g>
<!-- Node23&#45;&gt;Node5 -->
<g id="edge38_Node000023_Node000005" class="edge">
<title>Node23&#45;&gt;Node5</title>
<g id="a_edge38_Node000023_Node000005"><a xlink:title=" ">
<path fill="none" stroke="#63b8ff" d="M251.54,-42.11C240.9,-44.67 229.85,-49.1 221.75,-56.7 145.16,-128.56 132.73,-268.34 130.75,-306.73"/>
<polygon fill="#63b8ff" stroke="#63b8ff" points="252.1,-45.56 261.27,-40.27 250.8,-38.68 252.1,-45.56"/>
</a>
</g>
</g>
</g>
</svg>
