<?xml version="1.0" encoding="UTF-8" standalone="no"?>
<!DOCTYPE svg PUBLIC "-//W3C//DTD SVG 1.1//EN"
 "http://www.w3.org/Graphics/SVG/1.1/DTD/svg11.dtd">
<!-- Generated by graphviz version 12.2.1 (20241206.2353)
 -->
<!-- Title: Construct_Face Pages: 1 -->
<svg width="292pt" height="64pt"
 viewBox="0.00 0.00 292.30 64.25" xmlns="http://www.w3.org/2000/svg" xmlns:xlink="http://www.w3.org/1999/xlink">
<g id="graph0" class="graph" transform="scale(1 1) rotate(0) translate(4 60.25)">
<title>Construct_Face</title>
<!-- Node1 -->
<g id="Node000001" class="node">
<title>Node1</title>
<g id="a_Node000001"><a xlink:title=" ">
<polygon fill="#999999" stroke="#666666" points="85.75,-37.25 0,-37.25 0,-18 85.75,-18 85.75,-37.25"/>
<text text-anchor="middle" x="42.88" y="-23.75" font-family="Helvetica,sans-Serif" font-size="10.00">Construct_Face</text>
</a>
</g>
</g>
<!-- Node1&#45;&gt;Node1 -->
<g id="edge4_Node000001_Node000001" class="edge">
<title>Node1&#45;&gt;Node1</title>
<g id="a_edge4_Node000001_Node000001"><a xlink:title=" ">
<path fill="none" stroke="#63b8ff" d="M22.88,-37.54C13.75,-46.15 20.42,-55.25 42.88,-55.25 55.16,-55.25 62.71,-52.53 65.55,-48.65"/>
<polygon fill="#63b8ff" stroke="#63b8ff" points="68.97,-47.91 63.23,-39.01 62.17,-49.55 68.97,-47.91"/>
</a>
</g>
</g>
<!-- Node2 -->
<g id="Node000002" class="node">
<title>Node2</title>
<g id="a_Node000002"><a xlink:href="../../d8/d40/_grid___computations_8cpp_a4dd07afd2a0f939b4d47bfa1088912c4.html#a4dd07afd2a0f939b4d47bfa1088912c4" target="_top" xlink:title=" ">
<polygon fill="white" stroke="#666666" points="219.5,-37.25 121.75,-37.25 121.75,-18 219.5,-18 219.5,-37.25"/>
<text text-anchor="middle" x="170.62" y="-23.75" font-family="Helvetica,sans-Serif" font-size="10.00">Compute_Centroid</text>
</a>
</g>
</g>
<!-- Node1&#45;&gt;Node2 -->
<g id="edge1_Node000001_Node000002" class="edge">
<title>Node1&#45;&gt;Node2</title>
<g id="a_edge1_Node000001_Node000002"><a xlink:title=" ">
<path fill="none" stroke="#63b8ff" d="M86.1,-27.62C93.86,-27.62 102.09,-27.62 110.24,-27.62"/>
<polygon fill="#63b8ff" stroke="#63b8ff" points="110.14,-31.13 120.14,-27.63 110.14,-24.13 110.14,-31.13"/>
</a>
</g>
</g>
<!-- Node3 -->
<g id="Node000003" class="node">
<title>Node3</title>
<g id="a_Node000003"><a xlink:href="../../d3/d82/_c_type___elliptic___grid_8cpp_a9d9acf133a5b966f0cbd16a2c57a7d79.html#a9d9acf133a5b966f0cbd16a2c57a7d79" target="_top" xlink:title=" ">
<polygon fill="white" stroke="#666666" points="284.3,-56.25 255.5,-56.25 255.5,-37 284.3,-37 284.3,-56.25"/>
<text text-anchor="middle" x="269.9" y="-42.75" font-family="Helvetica,sans-Serif" font-size="10.00">x</text>
</a>
</g>
</g>
<!-- Node2&#45;&gt;Node3 -->
<g id="edge2_Node000002_Node000003" class="edge">
<title>Node2&#45;&gt;Node3</title>
<g id="a_edge2_Node000002_Node000003"><a xlink:title=" ">
<path fill="none" stroke="#63b8ff" d="M219.98,-37.07C228.39,-38.71 236.81,-40.36 244.24,-41.81"/>
<polygon fill="#63b8ff" stroke="#63b8ff" points="243.31,-45.19 253.79,-43.67 244.65,-38.32 243.31,-45.19"/>
</a>
</g>
</g>
<!-- Node4 -->
<g id="Node000004" class="node">
<title>Node4</title>
<g id="a_Node000004"><a xlink:href="../../d3/d82/_c_type___elliptic___grid_8cpp_aae4b761a64c952b4c008655d1dc59a12.html#aae4b761a64c952b4c008655d1dc59a12" target="_top" xlink:title=" ">
<polygon fill="white" stroke="#666666" points="284.3,-19.25 255.5,-19.25 255.5,0 284.3,0 284.3,-19.25"/>
<text text-anchor="middle" x="269.9" y="-5.75" font-family="Helvetica,sans-Serif" font-size="10.00">y</text>
</a>
</g>
</g>
<!-- Node2&#45;&gt;Node4 -->
<g id="edge3_Node000002_Node000004" class="edge">
<title>Node2&#45;&gt;Node4</title>
<g id="a_edge3_Node000002_Node000004"><a xlink:title=" ">
<path fill="none" stroke="#63b8ff" d="M219.98,-18.68C228.29,-17.14 236.61,-15.6 243.97,-14.24"/>
<polygon fill="#63b8ff" stroke="#63b8ff" points="244.59,-17.68 253.79,-12.42 243.32,-10.8 244.59,-17.68"/>
</a>
</g>
</g>
</g>
</svg>
