<?xml version="1.0" encoding="UTF-8" standalone="no"?>
<!DOCTYPE svg PUBLIC "-//W3C//DTD SVG 1.1//EN"
 "http://www.w3.org/Graphics/SVG/1.1/DTD/svg11.dtd">
<!-- Generated by graphviz version 12.2.1 (20241206.2353)
 -->
<!-- Title: Construct_Cell Pages: 1 -->
<svg width="781pt" height="859pt"
 viewBox="0.00 0.00 781.25 859.25" xmlns="http://www.w3.org/2000/svg" xmlns:xlink="http://www.w3.org/1999/xlink">
<g id="graph0" class="graph" transform="scale(1 1) rotate(0) translate(4 855.25)">
<title>Construct_Cell</title>
<!-- Node1 -->
<g id="Node000001" class="node">
<title>Node1</title>
<g id="a_Node000001"><a xlink:title=" ">
<polygon fill="#999999" stroke="#666666" points="773.25,-428.25 692,-428.25 692,-409 773.25,-409 773.25,-428.25"/>
<text text-anchor="middle" x="732.62" y="-414.75" font-family="Helvetica,sans-Serif" font-size="10.00">Construct_Cell</text>
</a>
</g>
</g>
<!-- Node2 -->
<g id="Node000002" class="node">
<title>Node2</title>
<g id="a_Node000002"><a xlink:href="../../d8/d40/_grid___computations_8cpp_a2a7d5e3797b95ac44cb8a15b997d7ef9.html#a2a7d5e3797b95ac44cb8a15b997d7ef9" target="_top" xlink:title=" ">
<polygon fill="white" stroke="#666666" points="637.25,-851.25 556,-851.25 556,-832 637.25,-832 637.25,-851.25"/>
<text text-anchor="middle" x="596.62" y="-837.75" font-family="Helvetica,sans-Serif" font-size="10.00">Construct_Cell</text>
</a>
</g>
</g>
<!-- Node1&#45;&gt;Node2 -->
<g id="edge1_Node000001_Node000002" class="edge">
<title>Node1&#45;&gt;Node2</title>
<g id="a_edge1_Node000001_Node000002"><a xlink:title=" ">
<path fill="none" stroke="#63b8ff" d="M730.22,-439.97C724.97,-514 704.23,-758.47 656,-817.62 651.08,-823.65 644.4,-828.19 637.32,-831.59"/>
<polygon fill="#63b8ff" stroke="#63b8ff" points="733.71,-440.28 730.9,-430.06 726.73,-439.8 733.71,-440.28"/>
</a>
</g>
</g>
<!-- Node3 -->
<g id="Node000003" class="node">
<title>Node3</title>
<g id="a_Node000003"><a xlink:href="../../d8/d40/_grid___computations_8cpp_ae5f2b7a0fdbc48f8fdf897222b7ded04.html#ae5f2b7a0fdbc48f8fdf897222b7ded04" target="_top" xlink:title=" ">
<polygon fill="white" stroke="#666666" points="655.62,-465.25 537.62,-465.25 537.62,-446 655.62,-446 655.62,-465.25"/>
<text text-anchor="middle" x="596.62" y="-451.75" font-family="Helvetica,sans-Serif" font-size="10.00">Construct_Ghost_Cells</text>
</a>
</g>
</g>
<!-- Node1&#45;&gt;Node3 -->
<g id="edge2_Node000001_Node000003" class="edge">
<title>Node1&#45;&gt;Node3</title>
<g id="a_edge2_Node000001_Node000003"><a xlink:title=" ">
<path fill="none" stroke="#63b8ff" d="M684,-431.78C667.62,-436.3 649.55,-441.29 634.2,-445.53"/>
<polygon fill="#63b8ff" stroke="#63b8ff" points="684.84,-435.17 693.55,-429.14 682.98,-428.43 684.84,-435.17"/>
</a>
</g>
</g>
<!-- Node6 -->
<g id="Node000006" class="node">
<title>Node6</title>
<g id="a_Node000006"><a xlink:href="../../dd/dbf/_euler___python___wrapper_8cpp_ac5ccb50c3be270f798e054dd36987442.html#ac5ccb50c3be270f798e054dd36987442" target="_top" xlink:title=" ">
<polygon fill="white" stroke="#666666" points="185.75,-446.25 73,-446.25 73,-427 185.75,-427 185.75,-446.25"/>
<text text-anchor="middle" x="129.38" y="-432.75" font-family="Helvetica,sans-Serif" font-size="10.00">PYBIND11_MODULE</text>
</a>
</g>
</g>
<!-- Node1&#45;&gt;Node6 -->
<g id="edge45_Node000001_Node000006" class="edge">
<title>Node1&#45;&gt;Node6</title>
<g id="a_edge45_Node000001_Node000006"><a xlink:title=" ">
<path fill="none" stroke="#63b8ff" d="M720.01,-437.98C679.52,-503.07 536.88,-712.68 351.75,-761.62 295.89,-776.39 267.8,-796.52 221.75,-761.62 168.73,-721.45 137.89,-496.99 131.59,-446.65"/>
<polygon fill="#63b8ff" stroke="#63b8ff" points="722.79,-440.16 725.02,-429.8 716.82,-436.5 722.79,-440.16"/>
</a>
</g>
</g>
<!-- Node25 -->
<g id="Node000025" class="node">
<title>Node25</title>
<g id="a_Node000025"><a xlink:href="../../d0/ded/_read___gmsh___file_8cpp_aa3cbdec71b7c56f603b53acd3ce5a070.html#aa3cbdec71b7c56f603b53acd3ce5a070" target="_top" xlink:title=" ">
<polygon fill="white" stroke="#666666" points="634.62,-391.25 558.62,-391.25 558.62,-372 634.62,-372 634.62,-391.25"/>
<text text-anchor="middle" x="596.62" y="-377.75" font-family="Helvetica,sans-Serif" font-size="10.00">Identify_Cells</text>
</a>
</g>
</g>
<!-- Node1&#45;&gt;Node25 -->
<g id="edge41_Node000001_Node000025" class="edge">
<title>Node1&#45;&gt;Node25</title>
<g id="a_edge41_Node000001_Node000025"><a xlink:title=" ">
<path fill="none" stroke="#63b8ff" d="M684,-405.47C667.62,-400.95 649.55,-395.96 634.2,-391.72"/>
<polygon fill="#63b8ff" stroke="#63b8ff" points="682.98,-408.82 693.55,-408.11 684.84,-402.08 682.98,-408.82"/>
</a>
</g>
</g>
<!-- Node28 -->
<g id="Node000028" class="node">
<title>Node28</title>
<g id="a_Node000028"><a xlink:href="../../db/d73/_test___cell_8cpp_ae66f6b31b5ad750f1fe042a706a4e3d4.html#ae66f6b31b5ad750f1fe042a706a4e3d4" target="_top" xlink:title=" ">
<polygon fill="white" stroke="#666666" points="615.12,-354.25 578.12,-354.25 578.12,-335 615.12,-335 615.12,-354.25"/>
<text text-anchor="middle" x="596.62" y="-340.75" font-family="Helvetica,sans-Serif" font-size="10.00">main</text>
</a>
</g>
</g>
<!-- Node1&#45;&gt;Node28 -->
<g id="edge44_Node000001_Node000028" class="edge">
<title>Node1&#45;&gt;Node28</title>
<g id="a_edge44_Node000001_Node000028"><a xlink:title=" ">
<path fill="none" stroke="#63b8ff" d="M712.03,-401.19C697.44,-388.97 676.57,-373.03 656,-362.62 643.13,-356.12 627.46,-351.44 615.6,-348.49"/>
<polygon fill="#63b8ff" stroke="#63b8ff" points="709.63,-403.75 719.49,-407.6 714.19,-398.43 709.63,-403.75"/>
</a>
</g>
</g>
<!-- Node29 -->
<g id="Node000029" class="node">
<title>Node29</title>
<g id="a_Node000029"><a xlink:href="../../d8/d40/_grid___computations_8cpp_a663d4b3ae06e638c2f2e82ad437e831e.html#a663d4b3ae06e638c2f2e82ad437e831e" target="_top" xlink:title="Reads the input grid file and constructs physical cells, evaluates face areas, normals,...">
<polygon fill="white" stroke="#666666" points="627.88,-428.25 565.38,-428.25 565.38,-409 627.88,-409 627.88,-428.25"/>
<text text-anchor="middle" x="596.62" y="-414.75" font-family="Helvetica,sans-Serif" font-size="10.00">Read_Grid</text>
</a>
</g>
</g>
<!-- Node1&#45;&gt;Node29 -->
<g id="edge46_Node000001_Node000029" class="edge">
<title>Node1&#45;&gt;Node29</title>
<g id="a_edge46_Node000001_Node000029"><a xlink:title=" ">
<path fill="none" stroke="#63b8ff" d="M680.47,-418.62C662.83,-418.62 643.63,-418.62 628.16,-418.62"/>
<polygon fill="#63b8ff" stroke="#63b8ff" points="680.27,-422.13 690.27,-418.63 680.27,-415.13 680.27,-422.13"/>
</a>
</g>
</g>
<!-- Node30 -->
<g id="Node000030" class="node">
<title>Node30</title>
<g id="a_Node000030"><a xlink:href="../../d5/d64/_read___gmsh___grid_files_8cpp_af6740e8247624b261d740830bcaa0c9d.html#af6740e8247624b261d740830bcaa0c9d" target="_top" xlink:title=" ">
<polygon fill="white" stroke="#666666" points="656,-317.25 537.25,-317.25 537.25,-298 656,-298 656,-317.25"/>
<text text-anchor="middle" x="596.62" y="-303.75" font-family="Helvetica,sans-Serif" font-size="10.00">Read_OutputMeshData</text>
</a>
</g>
</g>
<!-- Node1&#45;&gt;Node30 -->
<g id="edge49_Node000001_Node000030" class="edge">
<title>Node1&#45;&gt;Node30</title>
<g id="a_edge49_Node000001_Node000030"><a xlink:title=" ">
<path fill="none" stroke="#63b8ff" d="M720.39,-398.76C707.47,-377.65 684.35,-344.76 656,-325.62 651.34,-322.48 646.11,-319.87 640.74,-317.7"/>
<polygon fill="#63b8ff" stroke="#63b8ff" points="717.32,-400.45 725.42,-407.28 723.35,-396.89 717.32,-400.45"/>
</a>
</g>
</g>
<!-- Node4 -->
<g id="Node000004" class="node">
<title>Node4</title>
<g id="a_Node000004"><a xlink:href="../../d8/d40/_grid___computations_8cpp_a831dcf7cbf36ddf425ce0753495ba3c6.html#a831dcf7cbf36ddf425ce0753495ba3c6" target="_top" xlink:title=" ">
<polygon fill="white" stroke="#666666" points="477.62,-428.25 411.38,-428.25 411.38,-409 477.62,-409 477.62,-428.25"/>
<text text-anchor="middle" x="444.5" y="-414.75" font-family="Helvetica,sans-Serif" font-size="10.00">Form_Cells</text>
</a>
</g>
</g>
<!-- Node3&#45;&gt;Node4 -->
<g id="edge3_Node000003_Node000004" class="edge">
<title>Node3&#45;&gt;Node4</title>
<g id="a_edge3_Node000003_Node000004"><a xlink:title=" ">
<path fill="none" stroke="#63b8ff" d="M543.51,-442.78C521.7,-437.41 497.04,-431.33 477.91,-426.61"/>
<polygon fill="#63b8ff" stroke="#63b8ff" points="542.59,-446.16 553.13,-445.15 544.26,-439.36 542.59,-446.16"/>
</a>
</g>
</g>
<!-- Node3&#45;&gt;Node6 -->
<g id="edge40_Node000003_Node000006" class="edge">
<title>Node3&#45;&gt;Node6</title>
<g id="a_edge40_Node000003_Node000006"><a xlink:title=" ">
<path fill="none" stroke="#63b8ff" d="M585,-475.25C540.68,-554.61 366.19,-842.51 221.75,-735.62 172.45,-699.14 138.98,-494.05 131.81,-446.48"/>
<polygon fill="#63b8ff" stroke="#63b8ff" points="587.88,-477.27 589.64,-466.82 581.75,-473.89 587.88,-477.27"/>
</a>
</g>
</g>
<!-- Node5 -->
<g id="Node000005" class="node">
<title>Node5</title>
<g id="a_Node000005"><a xlink:href="../../d0/d3f/_channel___flow_8cpp_a986df1d2277d1fc7e22408557f29c135.html#a986df1d2277d1fc7e22408557f29c135" target="_top" xlink:title=" ">
<polygon fill="white" stroke="#666666" points="325.88,-699.25 247.62,-699.25 247.62,-680 325.88,-680 325.88,-699.25"/>
<text text-anchor="middle" x="286.75" y="-685.75" font-family="Helvetica,sans-Serif" font-size="10.00">Channel_Flow</text>
</a>
</g>
</g>
<!-- Node4&#45;&gt;Node5 -->
<g id="edge4_Node000004_Node000005" class="edge">
<title>Node4&#45;&gt;Node5</title>
<g id="a_edge4_Node000004_Node000005"><a xlink:title=" ">
<path fill="none" stroke="#63b8ff" d="M442.15,-439.77C437.88,-488.15 420.57,-607.7 351.75,-671.62 344.73,-678.14 335.54,-682.33 326.31,-685.01"/>
<polygon fill="#63b8ff" stroke="#63b8ff" points="445.61,-440.34 442.89,-430.1 438.63,-439.8 445.61,-440.34"/>
</a>
</g>
</g>
<!-- Node4&#45;&gt;Node6 -->
<g id="edge21_Node000004_Node000006" class="edge">
<title>Node4&#45;&gt;Node6</title>
<g id="a_edge21_Node000004_Node000006"><a xlink:title=" ">
<path fill="none" stroke="#63b8ff" d="M440.09,-439.72C429.73,-500.83 396.59,-675.78 351.75,-708.62 305.14,-742.77 268.66,-742.35 221.75,-708.62 132.16,-644.21 129.2,-487.64 130.03,-446.6"/>
<polygon fill="#63b8ff" stroke="#63b8ff" points="443.52,-440.43 441.7,-429.99 436.61,-439.28 443.52,-440.43"/>
</a>
</g>
</g>
<!-- Node7 -->
<g id="Node000007" class="node">
<title>Node7</title>
<g id="a_Node000007"><a xlink:href="../../d8/d62/_ellinga___test_case_8cpp_ae7167da7e4a13ec20ea77342a492b6ee.html#ae7167da7e4a13ec20ea77342a492b6ee" target="_top" xlink:title=" ">
<polygon fill="white" stroke="#666666" points="334.12,-662.25 239.38,-662.25 239.38,-643 334.12,-643 334.12,-662.25"/>
<text text-anchor="middle" x="286.75" y="-648.75" font-family="Helvetica,sans-Serif" font-size="10.00">Ellinga_Carbuncle</text>
</a>
</g>
</g>
<!-- Node4&#45;&gt;Node7 -->
<g id="edge6_Node000004_Node000007" class="edge">
<title>Node4&#45;&gt;Node7</title>
<g id="a_edge6_Node000004_Node000007"><a xlink:title=" ">
<path fill="none" stroke="#63b8ff" d="M440.55,-439.68C433.4,-482.61 411.18,-580.65 351.75,-633.62 346.73,-638.1 340.7,-641.52 334.38,-644.14"/>
<polygon fill="#63b8ff" stroke="#63b8ff" points="443.98,-440.37 442.04,-429.96 437.06,-439.31 443.98,-440.37"/>
</a>
</g>
</g>
<!-- Node8 -->
<g id="Node000008" class="node">
<title>Node8</title>
<g id="a_Node000008"><a xlink:href="../../de/d81/_flat___plate___boundary___layer_8cpp_a787b29de4053181d716a19e7c4c9b705.html#a787b29de4053181d716a19e7c4c9b705" target="_top" xlink:title=" ">
<polygon fill="white" stroke="#666666" points="340.12,-624.88 233.38,-624.88 233.38,-594.38 340.12,-594.38 340.12,-624.88"/>
<text text-anchor="start" x="241.38" y="-611.38" font-family="Helvetica,sans-Serif" font-size="10.00">Flat_Plate_Boundary</text>
<text text-anchor="middle" x="286.75" y="-600.12" font-family="Helvetica,sans-Serif" font-size="10.00">_Layer</text>
</a>
</g>
</g>
<!-- Node4&#45;&gt;Node8 -->
<g id="edge8_Node000004_Node000008" class="edge">
<title>Node4&#45;&gt;Node8</title>
<g id="a_edge8_Node000004_Node000008"><a xlink:title=" ">
<path fill="none" stroke="#63b8ff" d="M437.44,-439.18C426.17,-474.05 398.73,-544.95 351.75,-585.62 348.07,-588.81 343.93,-591.59 339.57,-594.01"/>
<polygon fill="#63b8ff" stroke="#63b8ff" points="440.7,-440.49 440.32,-429.9 434.01,-438.42 440.7,-440.49"/>
</a>
</g>
</g>
<!-- Node9 -->
<g id="Node000009" class="node">
<title>Node9</title>
<g id="a_Node000009"><a xlink:href="../../da/d4b/_flow___over___bump_8cpp_abaa8184c0dd8aa3fdc37d585f0a7d0cc.html#abaa8184c0dd8aa3fdc37d585f0a7d0cc" target="_top" xlink:title=" ">
<polygon fill="white" stroke="#666666" points="333.75,-576.25 239.75,-576.25 239.75,-557 333.75,-557 333.75,-576.25"/>
<text text-anchor="middle" x="286.75" y="-562.75" font-family="Helvetica,sans-Serif" font-size="10.00">Flow_Over_Bump</text>
</a>
</g>
</g>
<!-- Node4&#45;&gt;Node9 -->
<g id="edge10_Node000004_Node000009" class="edge">
<title>Node4&#45;&gt;Node9</title>
<g id="a_edge10_Node000004_Node000009"><a xlink:title=" ">
<path fill="none" stroke="#63b8ff" d="M434.62,-438.94C420.99,-467.73 392.2,-520.04 351.75,-548.62 346.47,-552.36 340.44,-555.31 334.24,-557.66"/>
<polygon fill="#63b8ff" stroke="#63b8ff" points="437.78,-440.44 438.75,-429.89 431.42,-437.53 437.78,-440.44"/>
</a>
</g>
</g>
<!-- Node10 -->
<g id="Node000010" class="node">
<title>Node10</title>
<g id="a_Node000010"><a xlink:href="../../dc/d8c/_forward___facing___step_8cpp_a5f68d17ee33caeda5da8c4270441108c.html#a5f68d17ee33caeda5da8c4270441108c" target="_top" xlink:title=" ">
<polygon fill="white" stroke="#666666" points="342.38,-539.25 231.12,-539.25 231.12,-520 342.38,-520 342.38,-539.25"/>
<text text-anchor="middle" x="286.75" y="-525.75" font-family="Helvetica,sans-Serif" font-size="10.00">Forward_Facing_Step</text>
</a>
</g>
</g>
<!-- Node4&#45;&gt;Node10 -->
<g id="edge12_Node000004_Node000010" class="edge">
<title>Node4&#45;&gt;Node10</title>
<g id="a_edge12_Node000004_Node000010"><a xlink:title=" ">
<path fill="none" stroke="#63b8ff" d="M429.66,-437.7C413.34,-458.82 384.29,-492.42 351.75,-511.62 346.38,-514.79 340.43,-517.43 334.38,-519.61"/>
<polygon fill="#63b8ff" stroke="#63b8ff" points="432.29,-440.01 435.5,-429.92 426.7,-435.81 432.29,-440.01"/>
</a>
</g>
</g>
<!-- Node11 -->
<g id="Node000011" class="node">
<title>Node11</title>
<g id="a_Node000011"><a xlink:href="../../df/dee/_half___cylinder___test___case_8cpp_ad6cb651752c2dd1cb946428572cfb769.html#ad6cb651752c2dd1cb946428572cfb769" target="_top" xlink:title=" ">
<polygon fill="white" stroke="#666666" points="337.5,-502.25 236,-502.25 236,-483 337.5,-483 337.5,-502.25"/>
<text text-anchor="middle" x="286.75" y="-488.75" font-family="Helvetica,sans-Serif" font-size="10.00">Half_Cylinder_Flow</text>
</a>
</g>
</g>
<!-- Node4&#45;&gt;Node11 -->
<g id="edge14_Node000004_Node000011" class="edge">
<title>Node4&#45;&gt;Node11</title>
<g id="a_edge14_Node000004_Node000011"><a xlink:title=" ">
<path fill="none" stroke="#63b8ff" d="M420.5,-435.12C402.5,-447.41 376.46,-463.85 351.75,-474.62 344.87,-477.62 337.36,-480.26 329.98,-482.52"/>
<polygon fill="#63b8ff" stroke="#63b8ff" points="422.4,-438.06 428.61,-429.48 418.4,-432.31 422.4,-438.06"/>
</a>
</g>
</g>
<!-- Node12 -->
<g id="Node000012" class="node">
<title>Node12</title>
<g id="a_Node000012"><a xlink:href="../../d3/db8/_initialize___test_case_8cpp_a4debd02bbc1736679fe1145738aba8c3.html#a4debd02bbc1736679fe1145738aba8c3" target="_top" xlink:title=" ">
<polygon fill="white" stroke="#666666" points="336.38,-56.25 237.12,-56.25 237.12,-37 336.38,-37 336.38,-56.25"/>
<text text-anchor="middle" x="286.75" y="-42.75" font-family="Helvetica,sans-Serif" font-size="10.00">Initialize_TestCase</text>
</a>
</g>
</g>
<!-- Node4&#45;&gt;Node12 -->
<g id="edge16_Node000004_Node000012" class="edge">
<title>Node4&#45;&gt;Node12</title>
<g id="a_edge16_Node000004_Node000012"><a xlink:title=" ">
<path fill="none" stroke="#63b8ff" d="M441.38,-397.21C435.25,-343.8 413.85,-201.95 351.75,-103.62 339.28,-83.87 318.03,-66.91 303.46,-56.74"/>
<polygon fill="#63b8ff" stroke="#63b8ff" points="437.88,-397.47 442.43,-407.03 444.84,-396.72 437.88,-397.47"/>
</a>
</g>
</g>
<!-- Node15 -->
<g id="Node000015" class="node">
<title>Node15</title>
<g id="a_Node000015"><a xlink:href="../../de/dc4/_o_e_d_8cpp_a1404a4711dcead4c50dd9eaa2ab7b7c0.html#a1404a4711dcead4c50dd9eaa2ab7b7c0" target="_top" xlink:title=" ">
<polygon fill="white" stroke="#666666" points="305.62,-465.25 267.88,-465.25 267.88,-446 305.62,-446 305.62,-465.25"/>
<text text-anchor="middle" x="286.75" y="-451.75" font-family="Helvetica,sans-Serif" font-size="10.00">OED</text>
</a>
</g>
</g>
<!-- Node4&#45;&gt;Node15 -->
<g id="edge19_Node000004_Node000015" class="edge">
<title>Node4&#45;&gt;Node15</title>
<g id="a_edge19_Node000004_Node000015"><a xlink:title=" ">
<path fill="none" stroke="#63b8ff" d="M400.25,-428.9C369.17,-436.28 328.85,-445.86 305.89,-451.32"/>
<polygon fill="#63b8ff" stroke="#63b8ff" points="400.84,-432.36 409.76,-426.64 399.22,-425.55 400.84,-432.36"/>
</a>
</g>
</g>
<!-- Node16 -->
<g id="Node000016" class="node">
<title>Node16</title>
<g id="a_Node000016"><a xlink:href="../../dd/de9/_ramp__15___degree_8cpp_af85931ed4e293dce5c8e4acafecd54b5.html#af85931ed4e293dce5c8e4acafecd54b5" target="_top" xlink:title=" ">
<polygon fill="white" stroke="#666666" points="334.12,-428.25 239.38,-428.25 239.38,-409 334.12,-409 334.12,-428.25"/>
<text text-anchor="middle" x="286.75" y="-414.75" font-family="Helvetica,sans-Serif" font-size="10.00">Ramp_15_Degree</text>
</a>
</g>
</g>
<!-- Node4&#45;&gt;Node16 -->
<g id="edge22_Node000004_Node000016" class="edge">
<title>Node4&#45;&gt;Node16</title>
<g id="a_edge22_Node000004_Node000016"><a xlink:title=" ">
<path fill="none" stroke="#63b8ff" d="M399.75,-418.62C379.4,-418.62 355.17,-418.62 334.46,-418.62"/>
<polygon fill="#63b8ff" stroke="#63b8ff" points="399.71,-422.13 409.71,-418.63 399.71,-415.13 399.71,-422.13"/>
</a>
</g>
</g>
<!-- Node17 -->
<g id="Node000017" class="node">
<title>Node17</title>
<g id="a_Node000017"><a xlink:href="../../d2/d72/_scram___jet___inlet___test___case_8cpp_a49bbbeed352ab44d6248954f9d5391b0.html#a49bbbeed352ab44d6248954f9d5391b0" target="_top" xlink:title=" ">
<polygon fill="white" stroke="#666666" points="330.38,-391.25 243.12,-391.25 243.12,-372 330.38,-372 330.38,-391.25"/>
<text text-anchor="middle" x="286.75" y="-377.75" font-family="Helvetica,sans-Serif" font-size="10.00">Scram_Jet_Inlet</text>
</a>
</g>
</g>
<!-- Node4&#45;&gt;Node17 -->
<g id="edge24_Node000004_Node000017" class="edge">
<title>Node4&#45;&gt;Node17</title>
<g id="a_edge24_Node000004_Node000017"><a xlink:title=" ">
<path fill="none" stroke="#63b8ff" d="M400.28,-408.36C378.45,-403.17 352.07,-396.9 330.33,-391.74"/>
<polygon fill="#63b8ff" stroke="#63b8ff" points="399.22,-411.7 409.76,-410.61 400.84,-404.89 399.22,-411.7"/>
</a>
</g>
</g>
<!-- Node18 -->
<g id="Node000018" class="node">
<title>Node18</title>
<g id="a_Node000018"><a xlink:href="../../d1/d48/_shock___bubble___interaction_8cpp_a4cb762eff7e59896e567775356bda66a.html#a4cb762eff7e59896e567775356bda66a" target="_top" xlink:title=" ">
<polygon fill="white" stroke="#666666" points="351.75,-354.25 221.75,-354.25 221.75,-335 351.75,-335 351.75,-354.25"/>
<text text-anchor="middle" x="286.75" y="-340.75" font-family="Helvetica,sans-Serif" font-size="10.00">Shock_Bubble_Interaction</text>
</a>
</g>
</g>
<!-- Node4&#45;&gt;Node18 -->
<g id="edge26_Node000004_Node000018" class="edge">
<title>Node4&#45;&gt;Node18</title>
<g id="a_edge26_Node000004_Node000018"><a xlink:title=" ">
<path fill="none" stroke="#63b8ff" d="M420.5,-402.13C402.5,-389.84 376.46,-373.4 351.75,-362.62 344.87,-359.63 337.36,-356.99 329.98,-354.73"/>
<polygon fill="#63b8ff" stroke="#63b8ff" points="418.4,-404.94 428.61,-407.77 422.4,-399.19 418.4,-404.94"/>
</a>
</g>
</g>
<!-- Node19 -->
<g id="Node000019" class="node">
<title>Node19</title>
<g id="a_Node000019"><a xlink:href="../../d5/d9f/_shock___diffraction_8cpp_a464d43fab5d32cc9ecee800dfab8e5c8.html#a464d43fab5d32cc9ecee800dfab8e5c8" target="_top" xlink:title=" ">
<polygon fill="white" stroke="#666666" points="333.75,-317.25 239.75,-317.25 239.75,-298 333.75,-298 333.75,-317.25"/>
<text text-anchor="middle" x="286.75" y="-303.75" font-family="Helvetica,sans-Serif" font-size="10.00">Shock_Diffraction</text>
</a>
</g>
</g>
<!-- Node4&#45;&gt;Node19 -->
<g id="edge28_Node000004_Node000019" class="edge">
<title>Node4&#45;&gt;Node19</title>
<g id="a_edge28_Node000004_Node000019"><a xlink:title=" ">
<path fill="none" stroke="#63b8ff" d="M429.66,-399.55C413.34,-378.43 384.29,-344.83 351.75,-325.62 346.28,-322.4 340.21,-319.73 334.05,-317.52"/>
<polygon fill="#63b8ff" stroke="#63b8ff" points="426.7,-401.44 435.5,-407.33 432.29,-397.24 426.7,-401.44"/>
</a>
</g>
</g>
<!-- Node20 -->
<g id="Node000020" class="node">
<title>Node20</title>
<g id="a_Node000020"><a xlink:href="../../d2/d58/_shock___reflection__2_d_8cpp_a286a95bfcac44ff19264008ffd9506ed.html#a286a95bfcac44ff19264008ffd9506ed" target="_top" xlink:title=" ">
<polygon fill="white" stroke="#666666" points="342.38,-280.25 231.12,-280.25 231.12,-261 342.38,-261 342.38,-280.25"/>
<text text-anchor="middle" x="286.75" y="-266.75" font-family="Helvetica,sans-Serif" font-size="10.00">Shock_Reflection_2D</text>
</a>
</g>
</g>
<!-- Node4&#45;&gt;Node20 -->
<g id="edge30_Node000004_Node000020" class="edge">
<title>Node4&#45;&gt;Node20</title>
<g id="a_edge30_Node000004_Node000020"><a xlink:title=" ">
<path fill="none" stroke="#63b8ff" d="M434.62,-398.31C420.99,-369.52 392.2,-317.21 351.75,-288.62 347.23,-285.43 342.15,-282.8 336.88,-280.63"/>
<polygon fill="#63b8ff" stroke="#63b8ff" points="431.42,-399.72 438.75,-407.36 437.78,-396.81 431.42,-399.72"/>
</a>
</g>
</g>
<!-- Node21 -->
<g id="Node000021" class="node">
<title>Node21</title>
<g id="a_Node000021"><a xlink:href="../../d6/d4f/_shock___tube__2_d_8cpp_a634f5b7cf63cab96d3b48ed0b4df6ad4.html#a634f5b7cf63cab96d3b48ed0b4df6ad4" target="_top" xlink:title=" ">
<polygon fill="white" stroke="#666666" points="331.12,-243.25 242.38,-243.25 242.38,-224 331.12,-224 331.12,-243.25"/>
<text text-anchor="middle" x="286.75" y="-229.75" font-family="Helvetica,sans-Serif" font-size="10.00">Shock_Tube_2D</text>
</a>
</g>
</g>
<!-- Node4&#45;&gt;Node21 -->
<g id="edge32_Node000004_Node000021" class="edge">
<title>Node4&#45;&gt;Node21</title>
<g id="a_edge32_Node000004_Node000021"><a xlink:title=" ">
<path fill="none" stroke="#63b8ff" d="M437.8,-397.64C427.06,-362.13 400.41,-290.28 351.75,-251.62 345.79,-246.89 338.64,-243.4 331.32,-240.82"/>
<polygon fill="#63b8ff" stroke="#63b8ff" points="434.4,-398.48 440.53,-407.12 441.13,-396.54 434.4,-398.48"/>
</a>
</g>
</g>
<!-- Node22 -->
<g id="Node000022" class="node">
<title>Node22</title>
<g id="a_Node000022"><a xlink:href="../../de/dda/_shock___wedge___reflection_8cpp_a951397acc5a124a5a006dbd5ae45029a.html#a951397acc5a124a5a006dbd5ae45029a" target="_top" xlink:title=" ">
<polygon fill="white" stroke="#666666" points="351,-206.25 222.5,-206.25 222.5,-187 351,-187 351,-206.25"/>
<text text-anchor="middle" x="286.75" y="-192.75" font-family="Helvetica,sans-Serif" font-size="10.00">Shock_Wedge_Reflection</text>
</a>
</g>
</g>
<!-- Node4&#45;&gt;Node22 -->
<g id="edge34_Node000004_Node000022" class="edge">
<title>Node4&#45;&gt;Node22</title>
<g id="a_edge34_Node000004_Node000022"><a xlink:title=" ">
<path fill="none" stroke="#63b8ff" d="M440.11,-397.72C432.29,-356.4 409.07,-264.01 351.75,-214.62 348.08,-211.46 343.89,-208.85 339.45,-206.7"/>
<polygon fill="#63b8ff" stroke="#63b8ff" points="436.62,-398.07 441.8,-407.31 443.51,-396.85 436.62,-398.07"/>
</a>
</g>
</g>
<!-- Node23 -->
<g id="Node000023" class="node">
<title>Node23</title>
<g id="a_Node000023"><a xlink:href="../../d8/d8f/_slip___flow__2_d_8cpp_a41030236ecf9b4d95159d7227a838eab.html#a41030236ecf9b4d95159d7227a838eab" target="_top" xlink:title=" ">
<polygon fill="white" stroke="#666666" points="325.12,-169.25 248.38,-169.25 248.38,-150 325.12,-150 325.12,-169.25"/>
<text text-anchor="middle" x="286.75" y="-155.75" font-family="Helvetica,sans-Serif" font-size="10.00">Slip_Flow_2D</text>
</a>
</g>
</g>
<!-- Node4&#45;&gt;Node23 -->
<g id="edge36_Node000004_Node000023" class="edge">
<title>Node4&#45;&gt;Node23</title>
<g id="a_edge36_Node000004_Node000023"><a xlink:title=" ">
<path fill="none" stroke="#63b8ff" d="M441.68,-397.23C436.52,-350.32 417.59,-237.82 351.75,-177.62 344.51,-171.01 335.02,-166.8 325.58,-164.13"/>
<polygon fill="#63b8ff" stroke="#63b8ff" points="438.19,-397.51 442.65,-407.12 445.16,-396.82 438.19,-397.51"/>
</a>
</g>
</g>
<!-- Node24 -->
<g id="Node000024" class="node">
<title>Node24</title>
<g id="a_Node000024"><a xlink:href="../../d8/da5/_s_w_b_l_i_8cpp_aab1edbd94ae1737559f5140355148ed8.html#aab1edbd94ae1737559f5140355148ed8" target="_top" xlink:title=" ">
<polygon fill="white" stroke="#666666" points="310.5,-132.25 263,-132.25 263,-113 310.5,-113 310.5,-132.25"/>
<text text-anchor="middle" x="286.75" y="-118.75" font-family="Helvetica,sans-Serif" font-size="10.00">SWBLI</text>
</a>
</g>
</g>
<!-- Node4&#45;&gt;Node24 -->
<g id="edge38_Node000004_Node000024" class="edge">
<title>Node4&#45;&gt;Node24</title>
<g id="a_edge38_Node000004_Node000024"><a xlink:title=" ">
<path fill="none" stroke="#63b8ff" d="M442.93,-397.19C440.35,-345.32 426.41,-212.03 351.75,-140.62 340.82,-130.17 324.32,-125.71 310.81,-123.83"/>
<polygon fill="#63b8ff" stroke="#63b8ff" points="439.43,-397.17 443.31,-407.03 446.42,-396.9 439.43,-397.17"/>
</a>
</g>
</g>
<!-- Node5&#45;&gt;Node6 -->
<g id="edge5_Node000005_Node000006" class="edge">
<title>Node5&#45;&gt;Node6</title>
<g id="a_edge5_Node000005_Node000006"><a xlink:title=" ">
<path fill="none" stroke="#63b8ff" d="M236.61,-681.03C231.19,-678.62 226.07,-675.55 221.75,-671.62 151.09,-607.49 134.51,-482.17 131.15,-446.38"/>
<polygon fill="#63b8ff" stroke="#63b8ff" points="235.27,-684.27 245.87,-684.38 237.65,-677.69 235.27,-684.27"/>
</a>
</g>
</g>
<!-- Node7&#45;&gt;Node6 -->
<g id="edge7_Node000007_Node000006" class="edge">
<title>Node7&#45;&gt;Node6</title>
<g id="a_edge7_Node000007_Node000006"><a xlink:title=" ">
<path fill="none" stroke="#63b8ff" d="M228.8,-638.75C226.31,-637.22 223.94,-635.51 221.75,-633.62 160.7,-580.88 137.87,-478.66 132.02,-446.53"/>
<polygon fill="#63b8ff" stroke="#63b8ff" points="227.06,-641.79 237.57,-643.18 230.22,-635.55 227.06,-641.79"/>
</a>
</g>
</g>
<!-- Node8&#45;&gt;Node6 -->
<g id="edge9_Node000008_Node000006" class="edge">
<title>Node8&#45;&gt;Node6</title>
<g id="a_edge9_Node000008_Node000006"><a xlink:title=" ">
<path fill="none" stroke="#63b8ff" d="M224.72,-587.93C223.7,-587.19 222.71,-586.42 221.75,-585.62 173.29,-545.65 143.46,-472.9 133.81,-446.52"/>
<polygon fill="#63b8ff" stroke="#63b8ff" points="222.8,-590.86 233.13,-593.2 226.51,-584.92 222.8,-590.86"/>
</a>
</g>
</g>
<!-- Node9&#45;&gt;Node6 -->
<g id="edge11_Node000009_Node000006" class="edge">
<title>Node9&#45;&gt;Node6</title>
<g id="a_edge11_Node000009_Node000006"><a xlink:title=" ">
<path fill="none" stroke="#63b8ff" d="M229.2,-552.89C226.61,-551.59 224.11,-550.18 221.75,-548.62 179.99,-521.24 147.94,-468.75 135.74,-446.74"/>
<polygon fill="#63b8ff" stroke="#63b8ff" points="227.54,-555.99 238.1,-556.72 230.3,-549.56 227.54,-555.99"/>
</a>
</g>
</g>
<!-- Node10&#45;&gt;Node6 -->
<g id="edge13_Node000010_Node000006" class="edge">
<title>Node10&#45;&gt;Node6</title>
<g id="a_edge13_Node000010_Node000006"><a xlink:title=" ">
<path fill="none" stroke="#63b8ff" d="M230.13,-515.54C227.25,-514.33 224.44,-513.03 221.75,-511.62 188.09,-494.07 155.36,-462.72 139.79,-446.68"/>
<polygon fill="#63b8ff" stroke="#63b8ff" points="228.76,-518.77 239.35,-519 231.22,-512.21 228.76,-518.77"/>
</a>
</g>
</g>
<!-- Node11&#45;&gt;Node6 -->
<g id="edge15_Node000011_Node000006" class="edge">
<title>Node11&#45;&gt;Node6</title>
<g id="a_edge15_Node000011_Node000006"><a xlink:title=" ">
<path fill="none" stroke="#63b8ff" d="M236.22,-479.34C231.31,-477.83 226.41,-476.24 221.75,-474.62 197.57,-466.23 170.58,-454.73 152.25,-446.59"/>
<polygon fill="#63b8ff" stroke="#63b8ff" points="234.9,-482.59 245.49,-482.08 236.89,-475.88 234.9,-482.59"/>
</a>
</g>
</g>
<!-- Node13 -->
<g id="Node000013" class="node">
<title>Node13</title>
<g id="a_Node000013"><a xlink:href="../../d0/de9/_configuration___read_8cpp_af498db18e73ae99cf5272ad58683fc97.html#af498db18e73ae99cf5272ad58683fc97" target="_top" xlink:title=" ">
<polygon fill="white" stroke="#666666" points="181.25,-56.25 77.5,-56.25 77.5,-37 181.25,-37 181.25,-56.25"/>
<text text-anchor="middle" x="129.38" y="-42.75" font-family="Helvetica,sans-Serif" font-size="10.00">readTestCaseJSON</text>
</a>
</g>
</g>
<!-- Node12&#45;&gt;Node13 -->
<g id="edge17_Node000012_Node000013" class="edge">
<title>Node12&#45;&gt;Node13</title>
<g id="a_edge17_Node000012_Node000013"><a xlink:title=" ">
<path fill="none" stroke="#63b8ff" d="M225.6,-46.62C211.07,-46.62 195.69,-46.62 181.62,-46.62"/>
<polygon fill="#63b8ff" stroke="#63b8ff" points="225.5,-50.13 235.5,-46.63 225.5,-43.13 225.5,-50.13"/>
</a>
</g>
</g>
<!-- Node14 -->
<g id="Node000014" class="node">
<title>Node14</title>
<g id="a_Node000014"><a xlink:href="../../d5/d12/_main_8cpp_a0ddf1224851353fc92bfbff6f499fa97.html#a0ddf1224851353fc92bfbff6f499fa97" target="_top" xlink:title=" ">
<polygon fill="white" stroke="#666666" points="37,-56.25 0,-56.25 0,-37 37,-37 37,-56.25"/>
<text text-anchor="middle" x="18.5" y="-42.75" font-family="Helvetica,sans-Serif" font-size="10.00">main</text>
</a>
</g>
</g>
<!-- Node13&#45;&gt;Node14 -->
<g id="edge18_Node000013_Node000014" class="edge">
<title>Node13&#45;&gt;Node14</title>
<g id="a_edge18_Node000013_Node000014"><a xlink:title=" ">
<path fill="none" stroke="#63b8ff" d="M65.8,-46.62C55.44,-46.62 45.48,-46.62 37.47,-46.62"/>
<polygon fill="#63b8ff" stroke="#63b8ff" points="65.61,-50.13 75.61,-46.63 65.61,-43.13 65.61,-50.13"/>
</a>
</g>
</g>
<!-- Node15&#45;&gt;Node6 -->
<g id="edge20_Node000015_Node000006" class="edge">
<title>Node15&#45;&gt;Node6</title>
<g id="a_edge20_Node000015_Node000006"><a xlink:title=" ">
<path fill="none" stroke="#63b8ff" d="M256.27,-452.02C236.47,-449.6 209.76,-446.33 186.03,-443.43"/>
<polygon fill="#63b8ff" stroke="#63b8ff" points="255.77,-455.48 266.12,-453.22 256.62,-448.54 255.77,-455.48"/>
</a>
</g>
</g>
<!-- Node16&#45;&gt;Node6 -->
<g id="edge23_Node000016_Node000006" class="edge">
<title>Node16&#45;&gt;Node6</title>
<g id="a_edge23_Node000016_Node000006"><a xlink:title=" ">
<path fill="none" stroke="#63b8ff" d="M227.87,-425.33C214.18,-426.92 199.6,-428.61 186,-430.18"/>
<polygon fill="#63b8ff" stroke="#63b8ff" points="228.1,-428.83 237.63,-424.2 227.29,-421.87 228.1,-428.83"/>
</a>
</g>
</g>
<!-- Node17&#45;&gt;Node6 -->
<g id="edge25_Node000017_Node000006" class="edge">
<title>Node17&#45;&gt;Node6</title>
<g id="a_edge25_Node000017_Node000006"><a xlink:title=" ">
<path fill="none" stroke="#63b8ff" d="M236.44,-394.9C231.45,-396.42 226.49,-398.01 221.75,-399.62 197.94,-407.76 171.35,-418.76 153.02,-426.64"/>
<polygon fill="#63b8ff" stroke="#63b8ff" points="237.24,-398.31 245.84,-392.12 235.26,-391.6 237.24,-398.31"/>
</a>
</g>
</g>
<!-- Node18&#45;&gt;Node6 -->
<g id="edge27_Node000018_Node000006" class="edge">
<title>Node18&#45;&gt;Node6</title>
<g id="a_edge27_Node000018_Node000006"><a xlink:title=" ">
<path fill="none" stroke="#63b8ff" d="M230.6,-358.54C227.55,-359.8 224.59,-361.16 221.75,-362.62 188.21,-379.98 155.43,-410.9 139.82,-426.71"/>
<polygon fill="#63b8ff" stroke="#63b8ff" points="231.55,-361.92 239.71,-355.16 229.11,-355.36 231.55,-361.92"/>
</a>
</g>
</g>
<!-- Node19&#45;&gt;Node6 -->
<g id="edge29_Node000019_Node000006" class="edge">
<title>Node19&#45;&gt;Node6</title>
<g id="a_edge29_Node000019_Node000006"><a xlink:title=" ">
<path fill="none" stroke="#63b8ff" d="M229.21,-321.37C226.62,-322.67 224.12,-324.08 221.75,-325.62 180.15,-352.77 148.01,-404.79 135.76,-426.6"/>
<polygon fill="#63b8ff" stroke="#63b8ff" points="230.31,-324.71 238.12,-317.55 227.55,-318.27 230.31,-324.71"/>
</a>
</g>
</g>
<!-- Node20&#45;&gt;Node6 -->
<g id="edge31_Node000020_Node000006" class="edge">
<title>Node20&#45;&gt;Node6</title>
<g id="a_edge31_Node000020_Node000006"><a xlink:title=" ">
<path fill="none" stroke="#63b8ff" d="M225.87,-285.79C224.45,-286.68 223.07,-287.63 221.75,-288.62 171.83,-326.25 142.9,-399.79 133.65,-426.57"/>
<polygon fill="#63b8ff" stroke="#63b8ff" points="227.17,-289.06 234.42,-281.34 223.94,-282.85 227.17,-289.06"/>
</a>
</g>
</g>
<!-- Node21&#45;&gt;Node6 -->
<g id="edge33_Node000021_Node000006" class="edge">
<title>Node21&#45;&gt;Node6</title>
<g id="a_edge33_Node000021_Node000006"><a xlink:title=" ">
<path fill="none" stroke="#63b8ff" d="M231.66,-245.1C228.12,-246.95 224.77,-249.12 221.75,-251.62 163.05,-300.38 138.77,-396.07 132.27,-426.85"/>
<polygon fill="#63b8ff" stroke="#63b8ff" points="232.83,-248.4 240.61,-241.21 230.05,-241.98 232.83,-248.4"/>
</a>
</g>
</g>
<!-- Node22&#45;&gt;Node6 -->
<g id="edge35_Node000022_Node000006" class="edge">
<title>Node22&#45;&gt;Node6</title>
<g id="a_edge35_Node000022_Node000006"><a xlink:title=" ">
<path fill="none" stroke="#63b8ff" d="M224.14,-212.64C223.32,-213.27 222.52,-213.94 221.75,-214.62 154.19,-274.75 135.51,-392.46 131.39,-426.92"/>
<polygon fill="#63b8ff" stroke="#63b8ff" points="225.7,-215.79 232.34,-207.53 222.01,-209.84 225.7,-215.79"/>
</a>
</g>
</g>
<!-- Node23&#45;&gt;Node6 -->
<g id="edge37_Node000023_Node000006" class="edge">
<title>Node23&#45;&gt;Node6</title>
<g id="a_edge37_Node000023_Node000006"><a xlink:title=" ">
<path fill="none" stroke="#63b8ff" d="M237.51,-167.63C231.72,-170.13 226.28,-173.38 221.75,-177.62 145.38,-249.19 132.8,-388.44 130.76,-426.7"/>
<polygon fill="#63b8ff" stroke="#63b8ff" points="238.43,-171.02 246.72,-164.42 236.12,-164.41 238.43,-171.02"/>
</a>
</g>
</g>
<!-- Node24&#45;&gt;Node6 -->
<g id="edge39_Node000024_Node000006" class="edge">
<title>Node24&#45;&gt;Node6</title>
<g id="a_edge39_Node000024_Node000006"><a xlink:title=" ">
<path fill="none" stroke="#63b8ff" d="M251.36,-125.85C240.71,-128.41 229.7,-132.87 221.75,-140.62 136.27,-223.98 130.33,-385.36 130.26,-426.76"/>
<polygon fill="#63b8ff" stroke="#63b8ff" points="251.94,-129.3 261.13,-124.03 250.66,-122.42 251.94,-129.3"/>
</a>
</g>
</g>
<!-- Node26 -->
<g id="Node000026" class="node">
<title>Node26</title>
<g id="a_Node000026"><a xlink:href="../../d0/ded/_read___gmsh___file_8cpp_a18c26bf3782f581573a5750c5b693fe2.html#a18c26bf3782f581573a5750c5b693fe2" target="_top" xlink:title=" ">
<polygon fill="white" stroke="#666666" points="501.25,-38.25 387.75,-38.25 387.75,-19 501.25,-19 501.25,-38.25"/>
<text text-anchor="middle" x="444.5" y="-24.75" font-family="Helvetica,sans-Serif" font-size="10.00">Read_GmshVTK_Grid</text>
</a>
</g>
</g>
<!-- Node25&#45;&gt;Node26 -->
<g id="edge42_Node000025_Node000026" class="edge">
<title>Node25&#45;&gt;Node26</title>
<g id="a_edge42_Node000025_Node000026"><a xlink:title=" ">
<path fill="none" stroke="#63b8ff" d="M547.77,-372.27C543.8,-369.98 540.19,-367.14 537.25,-363.62 453.03,-263.02 566.86,-184.24 501.25,-70.62 493.19,-56.67 478.46,-45.88 466.16,-38.73"/>
<polygon fill="#63b8ff" stroke="#63b8ff" points="546.27,-375.43 556.83,-376.31 549.12,-369.04 546.27,-375.43"/>
</a>
</g>
</g>
<!-- Node27 -->
<g id="Node000027" class="node">
<title>Node27</title>
<g id="a_Node000027"><a xlink:href="../../d7/d48/_test___gmsh___reader_8cpp_a0ddf1224851353fc92bfbff6f499fa97.html#a0ddf1224851353fc92bfbff6f499fa97" target="_top" xlink:title=" ">
<polygon fill="white" stroke="#666666" points="305.25,-19.25 268.25,-19.25 268.25,0 305.25,0 305.25,-19.25"/>
<text text-anchor="middle" x="286.75" y="-5.75" font-family="Helvetica,sans-Serif" font-size="10.00">main</text>
</a>
</g>
</g>
<!-- Node26&#45;&gt;Node27 -->
<g id="edge43_Node000026_Node000027" class="edge">
<title>Node26&#45;&gt;Node27</title>
<g id="a_edge43_Node000026_Node000027"><a xlink:title=" ">
<path fill="none" stroke="#63b8ff" d="M375.98,-20.39C350.22,-17.25 322.93,-13.92 305.64,-11.81"/>
<polygon fill="#63b8ff" stroke="#63b8ff" points="375.42,-23.85 385.77,-21.58 376.27,-16.9 375.42,-23.85"/>
</a>
</g>
</g>
<!-- Node29&#45;&gt;Node4 -->
<g id="edge47_Node000029_Node000004" class="edge">
<title>Node29&#45;&gt;Node4</title>
<g id="a_edge47_Node000029_Node000004"><a xlink:title=" ">
<path fill="none" stroke="#63b8ff" d="M553.64,-418.62C529.71,-418.62 500.17,-418.62 478.02,-418.62"/>
<polygon fill="#63b8ff" stroke="#63b8ff" points="553.37,-422.13 563.37,-418.63 553.37,-415.13 553.37,-422.13"/>
</a>
</g>
</g>
<!-- Node29&#45;&gt;Node6 -->
<g id="edge48_Node000029_Node000006" class="edge">
<title>Node29&#45;&gt;Node6</title>
<g id="a_edge48_Node000029_Node000006"><a xlink:title=" ">
<path fill="none" stroke="#63b8ff" d="M554.05,-409.88C548.06,-407.49 542.24,-404.46 537.25,-400.62 413.9,-305.72 487.86,-179.09 351.75,-103.62 301.22,-75.61 267.69,-68.59 221.75,-103.62 167.52,-144.98 137.51,-375.81 131.5,-426.7"/>
<polygon fill="#63b8ff" stroke="#63b8ff" points="552.85,-413.17 563.44,-413.03 555.07,-406.53 552.85,-413.17"/>
</a>
</g>
</g>
</g>
</svg>
