<?xml version="1.0" encoding="UTF-8" standalone="no"?>
<!DOCTYPE svg PUBLIC "-//W3C//DTD SVG 1.1//EN"
 "http://www.w3.org/Graphics/SVG/1.1/DTD/svg11.dtd">
<!-- Generated by graphviz version 12.2.1 (20241206.2353)
 -->
<!-- Title: MOVERS_NWSC_2O Pages: 1 -->
<svg width="321pt" height="64pt"
 viewBox="0.00 0.00 320.50 64.25" xmlns="http://www.w3.org/2000/svg" xmlns:xlink="http://www.w3.org/1999/xlink">
<g id="graph0" class="graph" transform="scale(1 1) rotate(0) translate(4 60.25)">
<title>MOVERS_NWSC_2O</title>
<!-- Node1 -->
<g id="Node000001" class="node">
<title>Node1</title>
<g id="a_Node000001"><a xlink:title=" ">
<polygon fill="#999999" stroke="#666666" points="114.25,-37.25 0,-37.25 0,-18 114.25,-18 114.25,-37.25"/>
<text text-anchor="middle" x="57.12" y="-23.75" font-family="Helvetica,sans-Serif" font-size="10.00">MOVERS_NWSC_2O</text>
</a>
</g>
</g>
<!-- Node2 -->
<g id="Node000002" class="node">
<title>Node2</title>
<g id="a_Node000002"><a xlink:href="../../d9/d99/_m_o_v_e_r_s___n_w_s_c_8cpp_aa1addb77100799eb21d8ea96fc1d718b.html#aa1addb77100799eb21d8ea96fc1d718b" target="_top" xlink:title=" ">
<polygon fill="white" stroke="#666666" points="312.5,-56.25 150.25,-56.25 150.25,-37 312.5,-37 312.5,-56.25"/>
<text text-anchor="middle" x="231.38" y="-42.75" font-family="Helvetica,sans-Serif" font-size="10.00">Condition_For_MOVERS_NWSC</text>
</a>
</g>
</g>
<!-- Node1&#45;&gt;Node2 -->
<g id="edge1_Node000001_Node000002" class="edge">
<title>Node1&#45;&gt;Node2</title>
<g id="a_edge1_Node000001_Node000002"><a xlink:title=" ">
<path fill="none" stroke="#63b8ff" d="M114.53,-33.85C122.28,-34.7 130.41,-35.6 138.6,-36.5"/>
<polygon fill="#63b8ff" stroke="#63b8ff" points="137.96,-39.95 148.28,-37.57 138.73,-32.99 137.96,-39.95"/>
</a>
</g>
</g>
<!-- Node3 -->
<g id="Node000003" class="node">
<title>Node3</title>
<g id="a_Node000003"><a xlink:href="../../d6/d29/_limiter_8h_acb22222e1b85c7aae820fda4167e47a9.html#acb22222e1b85c7aae820fda4167e47a9" target="_top" xlink:title=" ">
<polygon fill="white" stroke="#666666" points="287.75,-19.25 175,-19.25 175,0 287.75,0 287.75,-19.25"/>
<text text-anchor="middle" x="231.38" y="-5.75" font-family="Helvetica,sans-Serif" font-size="10.00">Second_Order_Limiter</text>
</a>
</g>
</g>
<!-- Node1&#45;&gt;Node3 -->
<g id="edge2_Node000001_Node000003" class="edge">
<title>Node1&#45;&gt;Node3</title>
<g id="a_edge2_Node000001_Node000003"><a xlink:title=" ">
<path fill="none" stroke="#63b8ff" d="M114.53,-21.73C130.23,-20.09 147.44,-18.29 163.67,-16.6"/>
<polygon fill="#63b8ff" stroke="#63b8ff" points="163.64,-20.12 173.22,-15.6 162.91,-13.16 163.64,-20.12"/>
</a>
</g>
</g>
</g>
</svg>
