<?xml version="1.0" encoding="UTF-8" standalone="no"?>
<!DOCTYPE svg PUBLIC "-//W3C//DTD SVG 1.1//EN"
 "http://www.w3.org/Graphics/SVG/1.1/DTD/svg11.dtd">
<!-- Generated by graphviz version 12.2.1 (20241206.2353)
 -->
<!-- Title: Viscosity Pages: 1 -->
<svg width="1117pt" height="626pt"
 viewBox="0.00 0.00 1117.00 625.88" xmlns="http://www.w3.org/2000/svg" xmlns:xlink="http://www.w3.org/1999/xlink">
<g id="graph0" class="graph" transform="scale(1 1) rotate(0) translate(4 621.88)">
<title>Viscosity</title>
<!-- Node1 -->
<g id="Node000001" class="node">
<title>Node1</title>
<g id="a_Node000001"><a xlink:title=" ">
<polygon fill="#999999" stroke="#666666" points="1109,-286.25 1052.5,-286.25 1052.5,-267 1109,-267 1109,-286.25"/>
<text text-anchor="middle" x="1080.75" y="-272.75" font-family="Helvetica,sans-Serif" font-size="10.00">Viscosity</text>
</a>
</g>
</g>
<!-- Node2 -->
<g id="Node000002" class="node">
<title>Node2</title>
<g id="a_Node000002"><a xlink:href="../../df/d43/_basic___functions_8cpp_a1c199e756f8458978961b4d9ab4cbe63.html#a1c199e756f8458978961b4d9ab4cbe63" target="_top" xlink:title=" ">
<polygon fill="white" stroke="#666666" points="1016.5,-316.88 915.75,-316.88 915.75,-286.38 1016.5,-286.38 1016.5,-316.88"/>
<text text-anchor="start" x="923.75" y="-303.38" font-family="Helvetica,sans-Serif" font-size="10.00">Calculate_Primitive</text>
<text text-anchor="middle" x="966.12" y="-292.12" font-family="Helvetica,sans-Serif" font-size="10.00">_Variables</text>
</a>
</g>
</g>
<!-- Node1&#45;&gt;Node2 -->
<g id="edge1_Node000001_Node000002" class="edge">
<title>Node1&#45;&gt;Node2</title>
<g id="a_edge1_Node000001_Node000002"><a xlink:title=" ">
<path fill="none" stroke="#63b8ff" d="M1041.16,-285.19C1033.32,-286.93 1024.97,-288.79 1016.8,-290.6"/>
<polygon fill="#63b8ff" stroke="#63b8ff" points="1041.72,-288.65 1050.72,-283.07 1040.2,-281.82 1041.72,-288.65"/>
</a>
</g>
</g>
<!-- Node31 -->
<g id="Node000031" class="node">
<title>Node31</title>
<g id="a_Node000031"><a xlink:href="../../df/d43/_basic___functions_8cpp_a5a8dcaaf0c8799789175fc6945829471.html#a5a8dcaaf0c8799789175fc6945829471" target="_top" xlink:title=" ">
<polygon fill="white" stroke="#666666" points="1016.5,-267.88 915.75,-267.88 915.75,-237.38 1016.5,-237.38 1016.5,-267.88"/>
<text text-anchor="start" x="923.75" y="-254.38" font-family="Helvetica,sans-Serif" font-size="10.00">Calculate_Primitive</text>
<text text-anchor="middle" x="966.12" y="-243.12" font-family="Helvetica,sans-Serif" font-size="10.00">_Variables</text>
</a>
</g>
</g>
<!-- Node1&#45;&gt;Node31 -->
<g id="edge47_Node000001_Node000031" class="edge">
<title>Node1&#45;&gt;Node31</title>
<g id="a_edge47_Node000001_Node000031"><a xlink:title=" ">
<path fill="none" stroke="#63b8ff" d="M1041.16,-268.4C1033.32,-266.73 1024.97,-264.95 1016.8,-263.21"/>
<polygon fill="#63b8ff" stroke="#63b8ff" points="1040.21,-271.78 1050.72,-270.44 1041.67,-264.93 1040.21,-271.78"/>
</a>
</g>
</g>
<!-- Node3 -->
<g id="Node000003" class="node">
<title>Node3</title>
<g id="a_Node000003"><a xlink:href="../../d8/df4/_w_e_n_o2_d_8cpp_a27359f46a5902f1f50547f76408a48aa.html#a27359f46a5902f1f50547f76408a48aa" target="_top" xlink:title=" ">
<polygon fill="white" stroke="#666666" points="879.75,-368.25 734.75,-368.25 734.75,-349 879.75,-349 879.75,-368.25"/>
<text text-anchor="middle" x="807.25" y="-354.75" font-family="Helvetica,sans-Serif" font-size="10.00">Calculate_Face_WENO_Flux</text>
</a>
</g>
</g>
<!-- Node2&#45;&gt;Node3 -->
<g id="edge2_Node000002_Node000003" class="edge">
<title>Node2&#45;&gt;Node3</title>
<g id="a_edge2_Node000002_Node000003"><a xlink:title=" ">
<path fill="none" stroke="#63b8ff" d="M915.3,-321.32C903.67,-325.79 891.31,-330.45 879.75,-334.62 866.57,-339.38 851.92,-344.35 839.33,-348.53"/>
<polygon fill="#63b8ff" stroke="#63b8ff" points="916.26,-324.7 924.32,-317.82 913.73,-318.17 916.26,-324.7"/>
</a>
</g>
</g>
<!-- Node11 -->
<g id="Node000011" class="node">
<title>Node11</title>
<g id="a_Node000011"><a xlink:href="../../d0/d64/_numerical___method_8cpp_aa2c3379901e623826515d4c9cd96cebe.html#aa2c3379901e623826515d4c9cd96cebe" target="_top" xlink:title=" ">
<polygon fill="white" stroke="#666666" points="477.25,-390.25 392.25,-390.25 392.25,-371 477.25,-371 477.25,-390.25"/>
<text text-anchor="middle" x="434.75" y="-376.75" font-family="Helvetica,sans-Serif" font-size="10.00">Implicit_Method</text>
</a>
</g>
</g>
<!-- Node2&#45;&gt;Node11 -->
<g id="edge11_Node000002_Node000011" class="edge">
<title>Node2&#45;&gt;Node11</title>
<g id="a_edge11_Node000002_Node000011"><a xlink:title=" ">
<path fill="none" stroke="#63b8ff" d="M903.96,-305.98C794.79,-313.92 574.53,-330.74 540.25,-339.62 523.3,-344.02 520.48,-349.06 504.25,-355.62 491.34,-360.84 476.88,-366.19 464.58,-370.6"/>
<polygon fill="#63b8ff" stroke="#63b8ff" points="904.21,-309.47 913.93,-305.26 903.7,-302.49 904.21,-309.47"/>
</a>
</g>
</g>
<!-- Node12 -->
<g id="Node000012" class="node">
<title>Node12</title>
<g id="a_Node000012"><a xlink:href="../../d7/d6d/_initialize_8cpp_aa59beb74c9d4ef2bcd7e6d86f16dc682.html#aa59beb74c9d4ef2bcd7e6d86f16dc682" target="_top" xlink:title=" ">
<polygon fill="white" stroke="#666666" points="833.25,-216.25 781.25,-216.25 781.25,-197 833.25,-197 833.25,-216.25"/>
<text text-anchor="middle" x="807.25" y="-202.75" font-family="Helvetica,sans-Serif" font-size="10.00">Initialize</text>
</a>
</g>
</g>
<!-- Node2&#45;&gt;Node12 -->
<g id="edge14_Node000002_Node000012" class="edge">
<title>Node2&#45;&gt;Node12</title>
<g id="a_edge14_Node000002_Node000012"><a xlink:title=" ">
<path fill="none" stroke="#63b8ff" d="M919.79,-279.74C918.4,-278.73 917.05,-277.69 915.75,-276.62 895.69,-260.15 900.95,-245.61 879.75,-230.62 866.06,-220.95 848.19,-214.95 833.74,-211.37"/>
<polygon fill="#63b8ff" stroke="#63b8ff" points="917.84,-282.65 928.15,-285.12 921.64,-276.76 917.84,-282.65"/>
</a>
</g>
</g>
<!-- Node13 -->
<g id="Node000013" class="node">
<title>Node13</title>
<g id="a_Node000013"><a xlink:href="../../d3/db8/_initialize___test_case_8cpp_a4debd02bbc1736679fe1145738aba8c3.html#a4debd02bbc1736679fe1145738aba8c3" target="_top" xlink:title=" ">
<polygon fill="white" stroke="#666666" points="177.5,-277.25 78.25,-277.25 78.25,-258 177.5,-258 177.5,-277.25"/>
<text text-anchor="middle" x="127.88" y="-263.75" font-family="Helvetica,sans-Serif" font-size="10.00">Initialize_TestCase</text>
</a>
</g>
</g>
<!-- Node2&#45;&gt;Node13 -->
<g id="edge15_Node000002_Node000013" class="edge">
<title>Node2&#45;&gt;Node13</title>
<g id="a_edge15_Node000002_Node000013"><a xlink:title=" ">
<path fill="none" stroke="#63b8ff" d="M904.4,-289.75C896.13,-288.28 887.74,-286.86 879.75,-285.62 799.66,-273.27 779.64,-268.52 698.75,-263.62 506.17,-251.96 276.32,-260.39 177.72,-265.07"/>
<polygon fill="#63b8ff" stroke="#63b8ff" points="903.6,-293.16 914.07,-291.51 904.86,-286.27 903.6,-293.16"/>
</a>
</g>
</g>
<!-- Node14 -->
<g id="Node000014" class="node">
<title>Node14</title>
<g id="a_Node000014"><a xlink:href="../../df/d36/_wall___boundary___conditions_8cpp_a9e2645ad4f32bcba4ffb3a64134d2921.html#a9e2645ad4f32bcba4ffb3a64134d2921" target="_top" xlink:title=" ">
<polygon fill="white" stroke="#666666" points="680.38,-453.88 558.62,-453.88 558.62,-423.38 680.38,-423.38 680.38,-453.88"/>
<text text-anchor="start" x="566.62" y="-440.38" font-family="Helvetica,sans-Serif" font-size="10.00">InViscid_Wall_Boundary</text>
<text text-anchor="middle" x="619.5" y="-429.12" font-family="Helvetica,sans-Serif" font-size="10.00">_Condition</text>
</a>
</g>
</g>
<!-- Node2&#45;&gt;Node14 -->
<g id="edge17_Node000002_Node000014" class="edge">
<title>Node2&#45;&gt;Node14</title>
<g id="a_edge17_Node000002_Node000014"><a xlink:title=" ">
<path fill="none" stroke="#63b8ff" d="M951.44,-327.3C937.04,-351.57 911.98,-386.82 879.75,-404.62 818.06,-438.69 735.85,-443.94 680.69,-442.8"/>
<polygon fill="#63b8ff" stroke="#63b8ff" points="954.46,-329.08 956.37,-318.66 948.38,-325.61 954.46,-329.08"/>
</a>
</g>
</g>
<!-- Node18 -->
<g id="Node000018" class="node">
<title>Node18</title>
<g id="a_Node000018"><a xlink:href="../../de/d8d/_exit___boundary___conditions_8cpp_a59fe8a866adf086e11dc4391cf24254c.html#a59fe8a866adf086e11dc4391cf24254c" target="_top" xlink:title=" ">
<polygon fill="white" stroke="#666666" points="870,-178.88 744.5,-178.88 744.5,-148.38 870,-148.38 870,-178.88"/>
<text text-anchor="start" x="752.5" y="-165.38" font-family="Helvetica,sans-Serif" font-size="10.00">Subsonic_Exit_Boundary</text>
<text text-anchor="middle" x="807.25" y="-154.12" font-family="Helvetica,sans-Serif" font-size="10.00">_Condition</text>
</a>
</g>
</g>
<!-- Node2&#45;&gt;Node18 -->
<g id="edge25_Node000002_Node000018" class="edge">
<title>Node2&#45;&gt;Node18</title>
<g id="a_edge25_Node000002_Node000018"><a xlink:title=" ">
<path fill="none" stroke="#63b8ff" d="M917.97,-278.89C917.2,-278.15 916.46,-277.4 915.75,-276.62 886.88,-245.21 910.82,-216.87 879.75,-187.62 876.32,-184.39 872.44,-181.6 868.3,-179.18"/>
<polygon fill="#63b8ff" stroke="#63b8ff" points="915.77,-281.61 925.79,-285.05 920.1,-276.11 915.77,-281.61"/>
</a>
</g>
</g>
<!-- Node19 -->
<g id="Node000019" class="node">
<title>Node19</title>
<g id="a_Node000019"><a xlink:href="../../dd/d15/_inlet___boundary___conditions_8cpp_a92317da30905d779544dbc465c46f00c.html#a92317da30905d779544dbc465c46f00c" target="_top" xlink:title=" ">
<polygon fill="white" stroke="#666666" points="683,-405.25 556,-405.25 556,-386 683,-386 683,-405.25"/>
<text text-anchor="middle" x="619.5" y="-391.75" font-family="Helvetica,sans-Serif" font-size="10.00">Subsonic_Inlet_Condition</text>
</a>
</g>
</g>
<!-- Node2&#45;&gt;Node19 -->
<g id="edge26_Node000002_Node000019" class="edge">
<title>Node2&#45;&gt;Node19</title>
<g id="a_edge26_Node000002_Node000019"><a xlink:title=" ">
<path fill="none" stroke="#63b8ff" d="M945.77,-325.89C930.06,-343.64 906.23,-366.48 879.75,-377.62 816.75,-404.14 737.52,-405.57 683.34,-402.33"/>
<polygon fill="#63b8ff" stroke="#63b8ff" points="948.41,-328.19 952.24,-318.31 943.08,-323.65 948.41,-328.19"/>
</a>
</g>
</g>
<!-- Node20 -->
<g id="Node000020" class="node">
<title>Node20</title>
<g id="a_Node000020"><a xlink:href="../../d5/d2f/_far___field___boundary___condition_8cpp_a907b7b5ada3b6ad6cdb91ae6181b7227.html#a907b7b5ada3b6ad6cdb91ae6181b7227" target="_top" xlink:title=" ">
<polygon fill="white" stroke="#666666" points="858.75,-130.25 755.75,-130.25 755.75,-111 858.75,-111 858.75,-130.25"/>
<text text-anchor="middle" x="807.25" y="-116.75" font-family="Helvetica,sans-Serif" font-size="10.00">Super_Sonic_Inflow</text>
</a>
</g>
</g>
<!-- Node2&#45;&gt;Node20 -->
<g id="edge28_Node000002_Node000020" class="edge">
<title>Node2&#45;&gt;Node20</title>
<g id="a_edge28_Node000002_Node000020"><a xlink:title=" ">
<path fill="none" stroke="#63b8ff" d="M917.45,-278.59C916.86,-277.95 916.29,-277.3 915.75,-276.62 876.19,-227.65 924.2,-184.2 879.75,-139.62 874.04,-133.9 866.8,-129.84 859.15,-126.97"/>
<polygon fill="#63b8ff" stroke="#63b8ff" points="915.05,-281.15 924.9,-285.05 919.63,-275.86 915.05,-281.15"/>
</a>
</g>
</g>
<!-- Node21 -->
<g id="Node000021" class="node">
<title>Node21</title>
<g id="a_Node000021"><a xlink:href="../../de/d8d/_exit___boundary___conditions_8cpp_aee793388170b1f1282aa7ada9cb1985d.html#aee793388170b1f1282aa7ada9cb1985d" target="_top" xlink:title=" ">
<polygon fill="white" stroke="#666666" points="874.12,-617.88 740.38,-617.88 740.38,-587.38 874.12,-587.38 874.12,-617.88"/>
<text text-anchor="start" x="748.38" y="-604.38" font-family="Helvetica,sans-Serif" font-size="10.00">Supersonic_Exit_Boundary</text>
<text text-anchor="middle" x="807.25" y="-593.12" font-family="Helvetica,sans-Serif" font-size="10.00">_Condition</text>
</a>
</g>
</g>
<!-- Node2&#45;&gt;Node21 -->
<g id="edge29_Node000002_Node000021" class="edge">
<title>Node2&#45;&gt;Node21</title>
<g id="a_edge29_Node000002_Node000021"><a xlink:title=" ">
<path fill="none" stroke="#63b8ff" d="M963.92,-328.49C960.15,-381.73 944.51,-501.61 879.75,-572.62 874.49,-578.39 867.94,-583.09 860.96,-586.9"/>
<polygon fill="#63b8ff" stroke="#63b8ff" points="967.4,-329.02 964.51,-318.83 960.41,-328.59 967.4,-329.02"/>
</a>
</g>
</g>
<!-- Node23 -->
<g id="Node000023" class="node">
<title>Node23</title>
<g id="a_Node000023"><a xlink:href="../../dd/d15/_inlet___boundary___conditions_8cpp_a25cc0bf77642815d139d73ca5be9e3dc.html#a25cc0bf77642815d139d73ca5be9e3dc" target="_top" xlink:title=" ">
<polygon fill="white" stroke="#666666" points="687.12,-577.25 551.88,-577.25 551.88,-558 687.12,-558 687.12,-577.25"/>
<text text-anchor="middle" x="619.5" y="-563.75" font-family="Helvetica,sans-Serif" font-size="10.00">Supersonic_Inlet_Condition</text>
</a>
</g>
</g>
<!-- Node2&#45;&gt;Node23 -->
<g id="edge32_Node000002_Node000023" class="edge">
<title>Node2&#45;&gt;Node23</title>
<g id="a_edge32_Node000002_Node000023"><a xlink:title=" ">
<path fill="none" stroke="#63b8ff" d="M962.51,-328.54C956.54,-374.4 937.6,-467.43 879.75,-515.62 826.14,-560.29 744.8,-570.24 687.55,-570.96"/>
<polygon fill="#63b8ff" stroke="#63b8ff" points="965.97,-329.02 963.67,-318.68 959.02,-328.21 965.97,-329.02"/>
</a>
</g>
</g>
<!-- Node24 -->
<g id="Node000024" class="node">
<title>Node24</title>
<g id="a_Node000024"><a xlink:href="../../df/d36/_wall___boundary___conditions_8cpp_a4d3a822572d76209fad9b1faec4086f4.html#a4d3a822572d76209fad9b1faec4086f4" target="_top" xlink:title=" ">
<polygon fill="white" stroke="#666666" points="696.5,-540.25 542.5,-540.25 542.5,-521 696.5,-521 696.5,-540.25"/>
<text text-anchor="middle" x="619.5" y="-526.75" font-family="Helvetica,sans-Serif" font-size="10.00">Symmetry_Boundary_Condition</text>
</a>
</g>
</g>
<!-- Node2&#45;&gt;Node24 -->
<g id="edge34_Node000002_Node000024" class="edge">
<title>Node2&#45;&gt;Node24</title>
<g id="a_edge34_Node000002_Node000024"><a xlink:title=" ">
<path fill="none" stroke="#63b8ff" d="M959.65,-328.25C950.28,-366.76 927.39,-437.46 879.75,-474.62 827.74,-515.2 752.76,-527.9 696.81,-531.22"/>
<polygon fill="#63b8ff" stroke="#63b8ff" points="963.03,-329.18 961.85,-318.65 956.2,-327.62 963.03,-329.18"/>
</a>
</g>
</g>
<!-- Node25 -->
<g id="Node000025" class="node">
<title>Node25</title>
<g id="a_Node000025"><a xlink:href="../../d9/d1f/_error___estimate___update_8cpp_aec0783b5a136e042adcc47bae4fe5291.html#aec0783b5a136e042adcc47bae4fe5291" target="_top" xlink:title=" ">
<polygon fill="white" stroke="#666666" points="643.25,-292.25 595.75,-292.25 595.75,-273 643.25,-273 643.25,-292.25"/>
<text text-anchor="middle" x="619.5" y="-278.75" font-family="Helvetica,sans-Serif" font-size="10.00">Update</text>
</a>
</g>
</g>
<!-- Node2&#45;&gt;Node25 -->
<g id="edge36_Node000002_Node000025" class="edge">
<title>Node2&#45;&gt;Node25</title>
<g id="a_edge36_Node000002_Node000025"><a xlink:title=" ">
<path fill="none" stroke="#63b8ff" d="M904.32,-298.27C826.67,-293.99 696.04,-286.79 643.45,-283.89"/>
<polygon fill="#63b8ff" stroke="#63b8ff" points="903.69,-301.74 913.87,-298.8 904.08,-294.75 903.69,-301.74"/>
</a>
</g>
</g>
<!-- Node27 -->
<g id="Node000027" class="node">
<title>Node27</title>
<g id="a_Node000027"><a xlink:href="../../d9/d1f/_error___estimate___update_8cpp_a85083f46c6e2f45acd7b57694d88a9be.html#a85083f46c6e2f45acd7b57694d88a9be" target="_top" xlink:title=" ">
<polygon fill="white" stroke="#666666" points="831,-93.25 783.5,-93.25 783.5,-74 831,-74 831,-93.25"/>
<text text-anchor="middle" x="807.25" y="-79.75" font-family="Helvetica,sans-Serif" font-size="10.00">Update</text>
</a>
</g>
</g>
<!-- Node2&#45;&gt;Node27 -->
<g id="edge42_Node000002_Node000027" class="edge">
<title>Node2&#45;&gt;Node27</title>
<g id="a_edge42_Node000002_Node000027"><a xlink:title=" ">
<path fill="none" stroke="#63b8ff" d="M917.4,-278.63C916.82,-277.98 916.28,-277.31 915.75,-276.62 867.54,-213.53 934.66,-158.99 879.75,-101.62 867.36,-88.68 847.14,-84.51 831.35,-83.39"/>
<polygon fill="#63b8ff" stroke="#63b8ff" points="914.93,-281.13 924.72,-285.18 919.6,-275.91 914.93,-281.13"/>
</a>
</g>
</g>
<!-- Node28 -->
<g id="Node000028" class="node">
<title>Node28</title>
<g id="a_Node000028"><a xlink:href="../../d9/d1f/_error___estimate___update_8cpp_a3658b001ca4b1936550d8299999dd08b.html#a3658b001ca4b1936550d8299999dd08b" target="_top" xlink:title=" ">
<polygon fill="white" stroke="#666666" points="831,-56.25 783.5,-56.25 783.5,-37 831,-37 831,-56.25"/>
<text text-anchor="middle" x="807.25" y="-42.75" font-family="Helvetica,sans-Serif" font-size="10.00">Update</text>
</a>
</g>
</g>
<!-- Node2&#45;&gt;Node28 -->
<g id="edge43_Node000002_Node000028" class="edge">
<title>Node2&#45;&gt;Node28</title>
<g id="a_edge43_Node000002_Node000028"><a xlink:title=" ">
<path fill="none" stroke="#63b8ff" d="M917.03,-278.26C916.59,-277.73 916.16,-277.18 915.75,-276.62 859.05,-199.69 944.63,-134.8 879.75,-64.62 867.58,-51.47 847.34,-47.32 831.49,-46.26"/>
<polygon fill="#63b8ff" stroke="#63b8ff" points="914.45,-280.64 924.15,-284.91 919.23,-275.52 914.45,-280.64"/>
</a>
</g>
</g>
<!-- Node29 -->
<g id="Node000029" class="node">
<title>Node29</title>
<g id="a_Node000029"><a xlink:href="../../d9/d1f/_error___estimate___update_8cpp_a72ec9272a947862267874bef9f0f929c.html#a72ec9272a947862267874bef9f0f929c" target="_top" xlink:title=" ">
<polygon fill="white" stroke="#666666" points="831,-19.25 783.5,-19.25 783.5,0 831,0 831,-19.25"/>
<text text-anchor="middle" x="807.25" y="-5.75" font-family="Helvetica,sans-Serif" font-size="10.00">Update</text>
</a>
</g>
</g>
<!-- Node2&#45;&gt;Node29 -->
<g id="edge44_Node000002_Node000029" class="edge">
<title>Node2&#45;&gt;Node29</title>
<g id="a_edge44_Node000002_Node000029"><a xlink:title=" ">
<path fill="none" stroke="#63b8ff" d="M917.01,-278.27C916.57,-277.74 916.15,-277.19 915.75,-276.62 850.52,-185.8 954.64,-110.66 879.75,-27.62 867.66,-14.22 847.2,-10.12 831.25,-9.14"/>
<polygon fill="#63b8ff" stroke="#63b8ff" points="914.4,-280.62 924.07,-284.96 919.21,-275.54 914.4,-280.62"/>
</a>
</g>
</g>
<!-- Node30 -->
<g id="Node000030" class="node">
<title>Node30</title>
<g id="a_Node000030"><a xlink:href="../../df/d36/_wall___boundary___conditions_8cpp_a35cf6a79b3a50b10bf277b98c8d14ed7.html#a35cf6a79b3a50b10bf277b98c8d14ed7" target="_top" xlink:title=" ">
<polygon fill="white" stroke="#666666" points="680.38,-502.88 558.62,-502.88 558.62,-472.38 680.38,-472.38 680.38,-502.88"/>
<text text-anchor="start" x="566.62" y="-489.38" font-family="Helvetica,sans-Serif" font-size="10.00">Viscous_Wall_Boundary</text>
<text text-anchor="middle" x="619.5" y="-478.12" font-family="Helvetica,sans-Serif" font-size="10.00">_Condition</text>
</a>
</g>
</g>
<!-- Node2&#45;&gt;Node30 -->
<g id="edge45_Node000002_Node000030" class="edge">
<title>Node2&#45;&gt;Node30</title>
<g id="a_edge45_Node000002_Node000030"><a xlink:title=" ">
<path fill="none" stroke="#63b8ff" d="M956.08,-327.53C943.82,-358.6 918.87,-409.83 879.75,-436.62 820.52,-477.19 736.82,-487.22 680.71,-488.89"/>
<polygon fill="#63b8ff" stroke="#63b8ff" points="959.23,-329.09 959.49,-318.49 952.68,-326.61 959.23,-329.09"/>
</a>
</g>
</g>
<!-- Node4 -->
<g id="Node000004" class="node">
<title>Node4</title>
<g id="a_Node000004"><a xlink:href="../../d8/df4/_w_e_n_o2_d_8cpp_a74c2795e4a164178c69743947d6e6cf5.html#a74c2795e4a164178c69743947d6e6cf5" target="_top" xlink:title=" ">
<polygon fill="white" stroke="#666666" points="698.75,-368.25 540.25,-368.25 540.25,-349 698.75,-349 698.75,-368.25"/>
<text text-anchor="middle" x="619.5" y="-354.75" font-family="Helvetica,sans-Serif" font-size="10.00">Evaluate_Cell_Net_Flux_WENO</text>
</a>
</g>
</g>
<!-- Node3&#45;&gt;Node4 -->
<g id="edge3_Node000003_Node000004" class="edge">
<title>Node3&#45;&gt;Node4</title>
<g id="a_edge3_Node000003_Node000004"><a xlink:title=" ">
<path fill="none" stroke="#63b8ff" d="M722.96,-358.62C715.06,-358.62 707.07,-358.62 699.22,-358.62"/>
<polygon fill="#63b8ff" stroke="#63b8ff" points="722.92,-362.13 732.92,-358.63 722.92,-355.13 722.92,-362.13"/>
</a>
</g>
</g>
<!-- Node5 -->
<g id="Node000005" class="node">
<title>Node5</title>
<g id="a_Node000005"><a xlink:href="../../d0/d64/_numerical___method_8cpp_a8dda0c7e17babab9b6e49e8e199dc30e.html#a8dda0c7e17babab9b6e49e8e199dc30e" target="_top" xlink:title=" ">
<polygon fill="white" stroke="#666666" points="477.62,-427.25 391.88,-427.25 391.88,-408 477.62,-408 477.62,-427.25"/>
<text text-anchor="middle" x="434.75" y="-413.75" font-family="Helvetica,sans-Serif" font-size="10.00">Explicit_Method</text>
</a>
</g>
</g>
<!-- Node4&#45;&gt;Node5 -->
<g id="edge4_Node000004_Node000005" class="edge">
<title>Node4&#45;&gt;Node5</title>
<g id="a_edge4_Node000004_Node000005"><a xlink:title=" ">
<path fill="none" stroke="#63b8ff" d="M552.94,-371.92C548.6,-373.35 544.33,-374.91 540.25,-376.62 522.74,-383.97 521.64,-392.01 504.25,-399.62 496.03,-403.23 486.92,-406.24 478.11,-408.7"/>
<polygon fill="#63b8ff" stroke="#63b8ff" points="553.83,-375.31 562.41,-369.09 551.83,-368.61 553.83,-375.31"/>
</a>
</g>
</g>
<!-- Node10 -->
<g id="Node000010" class="node">
<title>Node10</title>
<g id="a_Node000010"><a xlink:href="../../de/d22/_cuda___parallel___r_k_8cpp_a794f030971fbb7c9dd4bc08df03f50f1.html#a794f030971fbb7c9dd4bc08df03f50f1" target="_top" xlink:title=" ">
<polygon fill="white" stroke="#666666" points="329.25,-465.25 218.75,-465.25 218.75,-446 329.25,-446 329.25,-465.25"/>
<text text-anchor="middle" x="274" y="-451.75" font-family="Helvetica,sans-Serif" font-size="10.00">Runge_Kutta_Method</text>
</a>
</g>
</g>
<!-- Node4&#45;&gt;Node10 -->
<g id="edge10_Node000004_Node000010" class="edge">
<title>Node4&#45;&gt;Node10</title>
<g id="a_edge10_Node000004_Node000010"><a xlink:title=" ">
<path fill="none" stroke="#63b8ff" d="M544.51,-373.79C543.05,-374.68 541.62,-375.63 540.25,-376.62 515.09,-394.9 530.66,-420.2 504.25,-436.62 451.69,-469.32 378.74,-469.39 329.35,-464.36"/>
<polygon fill="#63b8ff" stroke="#63b8ff" points="545.97,-376.97 553.28,-369.3 542.78,-370.74 545.97,-376.97"/>
</a>
</g>
</g>
<!-- Node6 -->
<g id="Node000006" class="node">
<title>Node6</title>
<g id="a_Node000006"><a xlink:href="../../de/df0/_solver_8cpp_a09703a294b5a4e270033b2d488f8f02a.html#a09703a294b5a4e270033b2d488f8f02a" target="_top" xlink:title=" ">
<polygon fill="white" stroke="#666666" points="315.38,-390.25 232.62,-390.25 232.62,-371 315.38,-371 315.38,-390.25"/>
<text text-anchor="middle" x="274" y="-376.75" font-family="Helvetica,sans-Serif" font-size="10.00">Inviscid_Solver</text>
</a>
</g>
</g>
<!-- Node5&#45;&gt;Node6 -->
<g id="edge5_Node000005_Node000006" class="edge">
<title>Node5&#45;&gt;Node6</title>
<g id="a_edge5_Node000005_Node000006"><a xlink:title=" ">
<path fill="none" stroke="#63b8ff" d="M380.53,-405.22C359.36,-400.29 335.41,-394.7 315.68,-390.11"/>
<polygon fill="#63b8ff" stroke="#63b8ff" points="379.62,-408.6 390.15,-407.46 381.21,-401.78 379.62,-408.6"/>
</a>
</g>
</g>
<!-- Node9 -->
<g id="Node000009" class="node">
<title>Node9</title>
<g id="a_Node000009"><a xlink:href="../../de/df0/_solver_8cpp_a313c308da18b517cb3cf0384db6d4d7e.html#a313c308da18b517cb3cf0384db6d4d7e" target="_top" xlink:title=" ">
<polygon fill="white" stroke="#666666" points="316.12,-353.25 231.88,-353.25 231.88,-334 316.12,-334 316.12,-353.25"/>
<text text-anchor="middle" x="274" y="-339.75" font-family="Helvetica,sans-Serif" font-size="10.00">Viscous_Solver</text>
</a>
</g>
</g>
<!-- Node5&#45;&gt;Node9 -->
<g id="edge8_Node000005_Node000009" class="edge">
<title>Node5&#45;&gt;Node9</title>
<g id="a_edge8_Node000005_Node000009"><a xlink:title=" ">
<path fill="none" stroke="#63b8ff" d="M381.03,-407.02C375.52,-404.97 370.15,-402.53 365.25,-399.62 345.23,-387.77 348.88,-374.11 329.25,-361.62 324.39,-358.54 318.95,-355.92 313.44,-353.73"/>
<polygon fill="#63b8ff" stroke="#63b8ff" points="379.67,-410.26 390.26,-410.04 381.84,-403.6 379.67,-410.26"/>
</a>
</g>
</g>
<!-- Node7 -->
<g id="Node000007" class="node">
<title>Node7</title>
<g id="a_Node000007"><a xlink:href="../../d5/d12/_main_8cpp_afed4dca88e059a8cbd2c7af524468fe5.html#afed4dca88e059a8cbd2c7af524468fe5" target="_top" xlink:title="Executes the appropriate solver based on the simulation configuration.">
<polygon fill="white" stroke="#666666" points="156.5,-353.25 99.25,-353.25 99.25,-334 156.5,-334 156.5,-353.25"/>
<text text-anchor="middle" x="127.88" y="-339.75" font-family="Helvetica,sans-Serif" font-size="10.00">runSolver</text>
</a>
</g>
</g>
<!-- Node6&#45;&gt;Node7 -->
<g id="edge6_Node000006_Node000007" class="edge">
<title>Node6&#45;&gt;Node7</title>
<g id="a_edge6_Node000006_Node000007"><a xlink:title=" ">
<path fill="none" stroke="#63b8ff" d="M222.72,-367.72C200.61,-362.04 175.48,-355.59 156.79,-350.79"/>
<polygon fill="#63b8ff" stroke="#63b8ff" points="221.59,-371.04 232.15,-370.14 223.34,-364.26 221.59,-371.04"/>
</a>
</g>
</g>
<!-- Node8 -->
<g id="Node000008" class="node">
<title>Node8</title>
<g id="a_Node000008"><a xlink:href="../../d5/d12/_main_8cpp_a0ddf1224851353fc92bfbff6f499fa97.html#a0ddf1224851353fc92bfbff6f499fa97" target="_top" xlink:title=" ">
<polygon fill="white" stroke="#666666" points="37,-295.25 0,-295.25 0,-276 37,-276 37,-295.25"/>
<text text-anchor="middle" x="18.5" y="-281.75" font-family="Helvetica,sans-Serif" font-size="10.00">main</text>
</a>
</g>
</g>
<!-- Node7&#45;&gt;Node8 -->
<g id="edge7_Node000007_Node000008" class="edge">
<title>Node7&#45;&gt;Node8</title>
<g id="a_edge7_Node000007_Node000008"><a xlink:title=" ">
<path fill="none" stroke="#63b8ff" d="M98.07,-328.07C78.71,-317.61 53.8,-304.15 37.28,-295.23"/>
<polygon fill="#63b8ff" stroke="#63b8ff" points="96.38,-331.13 106.84,-332.8 99.7,-324.97 96.38,-331.13"/>
</a>
</g>
</g>
<!-- Node9&#45;&gt;Node7 -->
<g id="edge9_Node000009_Node000007" class="edge">
<title>Node9&#45;&gt;Node7</title>
<g id="a_edge9_Node000009_Node000007"><a xlink:title=" ">
<path fill="none" stroke="#63b8ff" d="M220.41,-343.62C198.94,-343.62 174.96,-343.62 156.94,-343.62"/>
<polygon fill="#63b8ff" stroke="#63b8ff" points="220.19,-347.13 230.19,-343.63 220.19,-340.13 220.19,-347.13"/>
</a>
</g>
</g>
<!-- Node11&#45;&gt;Node6 -->
<g id="edge12_Node000011_Node000006" class="edge">
<title>Node11&#45;&gt;Node6</title>
<g id="a_edge12_Node000011_Node000006"><a xlink:title=" ">
<path fill="none" stroke="#63b8ff" d="M380.59,-380.62C359.39,-380.62 335.37,-380.62 315.61,-380.62"/>
<polygon fill="#63b8ff" stroke="#63b8ff" points="380.53,-384.13 390.53,-380.63 380.53,-377.13 380.53,-384.13"/>
</a>
</g>
</g>
<!-- Node11&#45;&gt;Node9 -->
<g id="edge13_Node000011_Node000009" class="edge">
<title>Node11&#45;&gt;Node9</title>
<g id="a_edge13_Node000011_Node000009"><a xlink:title=" ">
<path fill="none" stroke="#63b8ff" d="M381.02,-368.34C360.01,-363.44 336.17,-357.88 316.43,-353.28"/>
<polygon fill="#63b8ff" stroke="#63b8ff" points="380.03,-371.7 390.57,-370.56 381.62,-364.88 380.03,-371.7"/>
</a>
</g>
</g>
<!-- Node13&#45;&gt;Node8 -->
<g id="edge16_Node000013_Node000008" class="edge">
<title>Node13&#45;&gt;Node8</title>
<g id="a_edge16_Node000013_Node000008"><a xlink:title=" ">
<path fill="none" stroke="#63b8ff" d="M66.67,-277.72C55.95,-279.51 45.58,-281.25 37.31,-282.64"/>
<polygon fill="#63b8ff" stroke="#63b8ff" points="67.12,-281.19 76.41,-276.09 65.97,-274.29 67.12,-281.19"/>
</a>
</g>
</g>
<!-- Node15 -->
<g id="Node000015" class="node">
<title>Node15</title>
<g id="a_Node000015"><a xlink:href="../../d0/d1e/_boundary___conditions_8cpp_af3770504ee20d68a2295133e7aa72bfa.html#af3770504ee20d68a2295133e7aa72bfa" target="_top" xlink:title=" ">
<polygon fill="white" stroke="#666666" points="504.25,-503.25 365.25,-503.25 365.25,-484 504.25,-484 504.25,-503.25"/>
<text text-anchor="middle" x="434.75" y="-489.75" font-family="Helvetica,sans-Serif" font-size="10.00">Apply_Boundary_Conditions</text>
</a>
</g>
</g>
<!-- Node14&#45;&gt;Node15 -->
<g id="edge18_Node000014_Node000015" class="edge">
<title>Node14&#45;&gt;Node15</title>
<g id="a_edge18_Node000014_Node000015"><a xlink:title=" ">
<path fill="none" stroke="#63b8ff" d="M555.74,-457.51C526.73,-466.24 493.44,-476.26 469.3,-483.53"/>
<polygon fill="#63b8ff" stroke="#63b8ff" points="556.6,-460.91 565.17,-454.67 554.59,-454.21 556.6,-460.91"/>
</a>
</g>
</g>
<!-- Node15&#45;&gt;Node6 -->
<g id="edge19_Node000015_Node000006" class="edge">
<title>Node15&#45;&gt;Node6</title>
<g id="a_edge19_Node000015_Node000006"><a xlink:title=" ">
<path fill="none" stroke="#63b8ff" d="M410.6,-477.15C377.09,-453.3 316.11,-409.89 288.83,-390.47"/>
<polygon fill="#63b8ff" stroke="#63b8ff" points="408.25,-479.77 418.43,-482.72 412.31,-474.07 408.25,-479.77"/>
</a>
</g>
</g>
<!-- Node15&#45;&gt;Node9 -->
<g id="edge23_Node000015_Node000009" class="edge">
<title>Node15&#45;&gt;Node9</title>
<g id="a_edge23_Node000015_Node000009"><a xlink:title=" ">
<path fill="none" stroke="#63b8ff" d="M409.02,-477.13C394.87,-466.76 377.54,-452.39 365.25,-436.62 342.52,-407.46 357,-386.06 329.25,-361.62 325.53,-358.35 321.19,-355.66 316.62,-353.46"/>
<polygon fill="#63b8ff" stroke="#63b8ff" points="406.79,-479.84 416.98,-482.76 410.84,-474.12 406.79,-479.84"/>
</a>
</g>
</g>
<!-- Node15&#45;&gt;Node10 -->
<g id="edge20_Node000015_Node000010" class="edge">
<title>Node15&#45;&gt;Node10</title>
<g id="a_edge20_Node000015_Node000010"><a xlink:title=" ">
<path fill="none" stroke="#63b8ff" d="M380.46,-480.87C359.8,-475.92 336.49,-470.34 317.05,-465.69"/>
<polygon fill="#63b8ff" stroke="#63b8ff" points="379.61,-484.26 390.15,-483.19 381.24,-477.46 379.61,-484.26"/>
</a>
</g>
</g>
<!-- Node16 -->
<g id="Node000016" class="node">
<title>Node16</title>
<g id="a_Node000016"><a xlink:href="../../d4/df3/_turbulence___integration_8cpp_a5be3d179089fc076bb68c61f7cd17b7a.html#a5be3d179089fc076bb68c61f7cd17b7a" target="_top" xlink:title="Runge&#45;Kutta method with turbulence model integration.">
<polygon fill="white" stroke="#666666" points="329.25,-551.88 218.75,-551.88 218.75,-521.38 329.25,-521.38 329.25,-551.88"/>
<text text-anchor="start" x="226.75" y="-538.38" font-family="Helvetica,sans-Serif" font-size="10.00">Runge_Kutta_Method</text>
<text text-anchor="middle" x="274" y="-527.12" font-family="Helvetica,sans-Serif" font-size="10.00">_With_Turbulence</text>
</a>
</g>
</g>
<!-- Node15&#45;&gt;Node16 -->
<g id="edge21_Node000015_Node000016" class="edge">
<title>Node15&#45;&gt;Node16</title>
<g id="a_edge21_Node000015_Node000016"><a xlink:title=" ">
<path fill="none" stroke="#63b8ff" d="M385.62,-506.66C367.99,-511.44 347.91,-516.88 329.74,-521.8"/>
<polygon fill="#63b8ff" stroke="#63b8ff" points="386.33,-510.1 395.07,-504.1 384.5,-503.34 386.33,-510.1"/>
</a>
</g>
</g>
<!-- Node17 -->
<g id="Node000017" class="node">
<title>Node17</title>
<g id="a_Node000017"><a xlink:href="../../d4/df3/_turbulence___integration_8cpp_a564537a29550f0d8ec11e8ef76cd2b3a.html#a564537a29550f0d8ec11e8ef76cd2b3a" target="_top" xlink:title="Modified viscous solver with turbulence model integration.">
<polygon fill="white" stroke="#666666" points="182.75,-529.88 73,-529.88 73,-499.38 182.75,-499.38 182.75,-529.88"/>
<text text-anchor="start" x="81" y="-516.38" font-family="Helvetica,sans-Serif" font-size="10.00">Viscous_Solver_With</text>
<text text-anchor="middle" x="127.88" y="-505.12" font-family="Helvetica,sans-Serif" font-size="10.00">_Turbulence</text>
</a>
</g>
</g>
<!-- Node15&#45;&gt;Node17 -->
<g id="edge24_Node000015_Node000017" class="edge">
<title>Node15&#45;&gt;Node17</title>
<g id="a_edge24_Node000015_Node000017"><a xlink:title=" ">
<path fill="none" stroke="#63b8ff" d="M353.73,-499.14C300,-502.84 230.62,-507.62 183.23,-510.88"/>
<polygon fill="#63b8ff" stroke="#63b8ff" points="353.7,-502.65 363.44,-498.47 353.22,-495.66 353.7,-502.65"/>
</a>
</g>
</g>
<!-- Node16&#45;&gt;Node17 -->
<g id="edge22_Node000016_Node000017" class="edge">
<title>Node16&#45;&gt;Node17</title>
<g id="a_edge22_Node000016_Node000017"><a xlink:title=" ">
<path fill="none" stroke="#63b8ff" d="M207.17,-526.58C199.07,-525.34 190.86,-524.09 182.96,-522.88"/>
<polygon fill="#63b8ff" stroke="#63b8ff" points="206.6,-530.03 217.02,-528.08 207.66,-523.11 206.6,-530.03"/>
</a>
</g>
</g>
<!-- Node19&#45;&gt;Node15 -->
<g id="edge27_Node000019_Node000015" class="edge">
<title>Node19&#45;&gt;Node15</title>
<g id="a_edge27_Node000019_Node000015"><a xlink:title=" ">
<path fill="none" stroke="#63b8ff" d="M546.79,-410.54C544.53,-411.79 542.34,-413.15 540.25,-414.62 516.38,-431.47 527.26,-451.62 504.25,-469.62 496.61,-475.61 487.37,-480.16 478.18,-483.6"/>
<polygon fill="#63b8ff" stroke="#63b8ff" points="548.2,-413.74 555.76,-406.32 545.22,-407.41 548.2,-413.74"/>
</a>
</g>
</g>
<!-- Node22 -->
<g id="Node000022" class="node">
<title>Node22</title>
<g id="a_Node000022"><a xlink:href="../../de/d8d/_exit___boundary___conditions_8cpp_a6b87687bb24cf8bae9b67030a9e66904.html#a6b87687bb24cf8bae9b67030a9e66904" target="_top" xlink:title=" ">
<polygon fill="white" stroke="#666666" points="686.38,-614.25 552.62,-614.25 552.62,-595 686.38,-595 686.38,-614.25"/>
<text text-anchor="middle" x="619.5" y="-600.75" font-family="Helvetica,sans-Serif" font-size="10.00">Supersonic_Exit_Condition</text>
</a>
</g>
</g>
<!-- Node21&#45;&gt;Node22 -->
<g id="edge30_Node000021_Node000022" class="edge">
<title>Node21&#45;&gt;Node22</title>
<g id="a_edge30_Node000021_Node000022"><a xlink:title=" ">
<path fill="none" stroke="#63b8ff" d="M728.88,-603.46C714.88,-603.61 700.39,-603.76 686.75,-603.91"/>
<polygon fill="#63b8ff" stroke="#63b8ff" points="728.5,-606.96 738.46,-603.35 728.43,-599.96 728.5,-606.96"/>
</a>
</g>
</g>
<!-- Node22&#45;&gt;Node15 -->
<g id="edge31_Node000022_Node000015" class="edge">
<title>Node22&#45;&gt;Node15</title>
<g id="a_edge31_Node000022_Node000015"><a xlink:title=" ">
<path fill="none" stroke="#63b8ff" d="M549.28,-590.76C546.18,-589.5 543.15,-588.12 540.25,-586.62 498.39,-565.01 459.96,-522.75 443.8,-503.54"/>
<polygon fill="#63b8ff" stroke="#63b8ff" points="548.05,-594.04 558.64,-594.12 550.41,-587.45 548.05,-594.04"/>
</a>
</g>
</g>
<!-- Node23&#45;&gt;Node15 -->
<g id="edge33_Node000023_Node000015" class="edge">
<title>Node23&#45;&gt;Node15</title>
<g id="a_edge33_Node000023_Node000015"><a xlink:title=" ">
<path fill="none" stroke="#63b8ff" d="M554.8,-554.48C549.83,-553 544.93,-551.38 540.25,-549.62 507.1,-537.19 471.33,-516.18 451.41,-503.74"/>
<polygon fill="#63b8ff" stroke="#63b8ff" points="553.71,-557.81 564.28,-557.11 555.58,-551.06 553.71,-557.81"/>
</a>
</g>
</g>
<!-- Node24&#45;&gt;Node15 -->
<g id="edge35_Node000024_Node000015" class="edge">
<title>Node24&#45;&gt;Node15</title>
<g id="a_edge35_Node000024_Node000015"><a xlink:title=" ">
<path fill="none" stroke="#63b8ff" d="M557.38,-518.25C534.06,-513.53 507.78,-508.21 485.63,-503.72"/>
<polygon fill="#63b8ff" stroke="#63b8ff" points="556.58,-521.66 567.08,-520.21 557.97,-514.8 556.58,-521.66"/>
</a>
</g>
</g>
<!-- Node25&#45;&gt;Node6 -->
<g id="edge37_Node000025_Node000006" class="edge">
<title>Node25&#45;&gt;Node6</title>
<g id="a_edge37_Node000025_Node000006"><a xlink:title=" ">
<path fill="none" stroke="#63b8ff" d="M584.25,-291.97C570.43,-296.04 554.43,-301.13 540.25,-306.62 523.75,-313.01 520.92,-317.68 504.25,-323.62 469.77,-335.92 371.92,-358.78 315.83,-371.5"/>
<polygon fill="#63b8ff" stroke="#63b8ff" points="585.16,-295.35 593.81,-289.22 583.23,-288.62 585.16,-295.35"/>
</a>
</g>
</g>
<!-- Node25&#45;&gt;Node9 -->
<g id="edge41_Node000025_Node000009" class="edge">
<title>Node25&#45;&gt;Node9</title>
<g id="a_edge41_Node000025_Node000009"><a xlink:title=" ">
<path fill="none" stroke="#63b8ff" d="M584.19,-277.16C534.65,-270.57 440.73,-262.98 365.25,-285.62 333.32,-295.21 301.92,-319.75 285.92,-333.64"/>
<polygon fill="#63b8ff" stroke="#63b8ff" points="583.62,-280.61 594.01,-278.54 584.6,-273.68 583.62,-280.61"/>
</a>
</g>
</g>
<!-- Node26 -->
<g id="Node000026" class="node">
<title>Node26</title>
<g id="a_Node000026"><a xlink:href="../../d0/d64/_numerical___method_8cpp_a794f030971fbb7c9dd4bc08df03f50f1.html#a794f030971fbb7c9dd4bc08df03f50f1" target="_top" xlink:title=" ">
<polygon fill="white" stroke="#666666" points="490,-314.25 379.5,-314.25 379.5,-295 490,-295 490,-314.25"/>
<text text-anchor="middle" x="434.75" y="-300.75" font-family="Helvetica,sans-Serif" font-size="10.00">Runge_Kutta_Method</text>
</a>
</g>
</g>
<!-- Node25&#45;&gt;Node26 -->
<g id="edge38_Node000025_Node000026" class="edge">
<title>Node25&#45;&gt;Node26</title>
<g id="a_edge38_Node000025_Node000026"><a xlink:title=" ">
<path fill="none" stroke="#63b8ff" d="M584.05,-286.77C557.7,-289.94 520.85,-294.38 490.47,-298.04"/>
<polygon fill="#63b8ff" stroke="#63b8ff" points="584.34,-290.26 593.85,-285.59 583.51,-283.31 584.34,-290.26"/>
</a>
</g>
</g>
<!-- Node26&#45;&gt;Node6 -->
<g id="edge39_Node000026_Node000006" class="edge">
<title>Node26&#45;&gt;Node6</title>
<g id="a_edge39_Node000026_Node000006"><a xlink:title=" ">
<path fill="none" stroke="#63b8ff" d="M385.08,-318.8C378.21,-321.62 371.4,-324.88 365.25,-328.62 346.45,-340.07 348.14,-351.34 329.25,-362.62 324.05,-365.73 318.25,-368.38 312.43,-370.61"/>
<polygon fill="#63b8ff" stroke="#63b8ff" points="386.31,-322.08 394.43,-315.27 383.84,-315.53 386.31,-322.08"/>
</a>
</g>
</g>
<!-- Node26&#45;&gt;Node9 -->
<g id="edge40_Node000026_Node000009" class="edge">
<title>Node26&#45;&gt;Node9</title>
<g id="a_edge40_Node000026_Node000009"><a xlink:title=" ">
<path fill="none" stroke="#63b8ff" d="M381.7,-317.41C360.38,-322.65 336.05,-328.63 316.02,-333.55"/>
<polygon fill="#63b8ff" stroke="#63b8ff" points="382.52,-320.81 391.4,-315.03 380.85,-314.02 382.52,-320.81"/>
</a>
</g>
</g>
<!-- Node30&#45;&gt;Node15 -->
<g id="edge46_Node000030_Node000015" class="edge">
<title>Node30&#45;&gt;Node15</title>
<g id="a_edge46_Node000030_Node000015"><a xlink:title=" ">
<path fill="none" stroke="#63b8ff" d="M546.69,-489.98C532.83,-490.44 518.34,-490.91 504.57,-491.37"/>
<polygon fill="#63b8ff" stroke="#63b8ff" points="546.76,-493.48 556.64,-489.66 546.53,-486.49 546.76,-493.48"/>
</a>
</g>
</g>
</g>
</svg>
