<?xml version="1.0" encoding="UTF-8" standalone="no"?>
<!DOCTYPE svg PUBLIC "-//W3C//DTD SVG 1.1//EN"
 "http://www.w3.org/Graphics/SVG/1.1/DTD/svg11.dtd">
<!-- Generated by graphviz version 12.2.1 (20241206.2353)
 -->
<!-- Title: Circle::get_Point Pages: 1 -->
<svg width="237pt" height="101pt"
 viewBox="0.00 0.00 236.50 101.25" xmlns="http://www.w3.org/2000/svg" xmlns:xlink="http://www.w3.org/1999/xlink">
<g id="graph0" class="graph" transform="scale(1 1) rotate(0) translate(4 97.25)">
<title>Circle::get_Point</title>
<!-- Node1 -->
<g id="Node000001" class="node">
<title>Node1</title>
<g id="a_Node000001"><a xlink:title=" ">
<polygon fill="#999999" stroke="#666666" points="228.5,-56.25 139.75,-56.25 139.75,-37 228.5,-37 228.5,-56.25"/>
<text text-anchor="middle" x="184.12" y="-42.75" font-family="Helvetica,sans-Serif" font-size="10.00">Circle::get_Point</text>
</a>
</g>
</g>
<!-- Node2 -->
<g id="Node000002" class="node">
<title>Node2</title>
<g id="a_Node000002"><a xlink:href="../../d8/d83/class_object_a6cd75b3ce6f5896fd3438bd8e88ceb74.html#a6cd75b3ce6f5896fd3438bd8e88ceb74" target="_top" xlink:title=" ">
<polygon fill="white" stroke="#666666" points="95.88,-93.25 7.88,-93.25 7.88,-74 95.88,-74 95.88,-93.25"/>
<text text-anchor="middle" x="51.88" y="-79.75" font-family="Helvetica,sans-Serif" font-size="10.00">Object::generate</text>
</a>
</g>
</g>
<!-- Node1&#45;&gt;Node2 -->
<g id="edge1_Node000001_Node000002" class="edge">
<title>Node1&#45;&gt;Node2</title>
<g id="a_edge1_Node000001_Node000002"><a xlink:title=" ">
<path fill="none" stroke="#63b8ff" d="M136.83,-59.78C120.91,-64.3 103.35,-69.29 88.42,-73.53"/>
<polygon fill="#63b8ff" stroke="#63b8ff" points="137.41,-63.25 146.08,-57.15 135.5,-56.51 137.41,-63.25"/>
</a>
</g>
</g>
<!-- Node3 -->
<g id="Node000003" class="node">
<title>Node3</title>
<g id="a_Node000003"><a xlink:href="../../d0/d88/class_circle_a1b51f4d689330fecc65f3aa5dabf5c12.html#a1b51f4d689330fecc65f3aa5dabf5c12" target="_top" xlink:title=" ">
<polygon fill="white" stroke="#666666" points="102.25,-56.25 1.5,-56.25 1.5,-37 102.25,-37 102.25,-56.25"/>
<text text-anchor="middle" x="51.88" y="-42.75" font-family="Helvetica,sans-Serif" font-size="10.00">Circle::write_output</text>
</a>
</g>
</g>
<!-- Node1&#45;&gt;Node3 -->
<g id="edge2_Node000001_Node000003" class="edge">
<title>Node1&#45;&gt;Node3</title>
<g id="a_edge2_Node000001_Node000003"><a xlink:title=" ">
<path fill="none" stroke="#63b8ff" d="M128.05,-46.62C119.59,-46.62 110.89,-46.62 102.56,-46.62"/>
<polygon fill="#63b8ff" stroke="#63b8ff" points="127.88,-50.13 137.88,-46.63 127.88,-43.13 127.88,-50.13"/>
</a>
</g>
</g>
<!-- Node4 -->
<g id="Node000004" class="node">
<title>Node4</title>
<g id="a_Node000004"><a xlink:href="../../d8/d83/class_object_aa4340f6b0922bb0e01cd9cb7e0235401.html#aa4340f6b0922bb0e01cd9cb7e0235401" target="_top" xlink:title=" ">
<polygon fill="white" stroke="#666666" points="103.75,-19.25 0,-19.25 0,0 103.75,0 103.75,-19.25"/>
<text text-anchor="middle" x="51.88" y="-5.75" font-family="Helvetica,sans-Serif" font-size="10.00">Object::write_output</text>
</a>
</g>
</g>
<!-- Node1&#45;&gt;Node4 -->
<g id="edge3_Node000001_Node000004" class="edge">
<title>Node1&#45;&gt;Node4</title>
<g id="a_edge3_Node000001_Node000004"><a xlink:title=" ">
<path fill="none" stroke="#63b8ff" d="M136.83,-33.47C120.91,-28.95 103.35,-23.96 88.42,-19.72"/>
<polygon fill="#63b8ff" stroke="#63b8ff" points="135.5,-36.74 146.08,-36.1 137.41,-30 135.5,-36.74"/>
</a>
</g>
</g>
</g>
</svg>
