<?xml version="1.0" encoding="UTF-8" standalone="no"?>
<!DOCTYPE svg PUBLIC "-//W3C//DTD SVG 1.1//EN"
 "http://www.w3.org/Graphics/SVG/1.1/DTD/svg11.dtd">
<!-- Generated by graphviz version 12.2.1 (20241206.2353)
 -->
<!-- Title: Circle::generate Pages: 1 -->
<svg width="218pt" height="64pt"
 viewBox="0.00 0.00 217.75 64.25" xmlns="http://www.w3.org/2000/svg" xmlns:xlink="http://www.w3.org/1999/xlink">
<g id="graph0" class="graph" transform="scale(1 1) rotate(0) translate(4 60.25)">
<title>Circle::generate</title>
<!-- Node1 -->
<g id="Node000001" class="node">
<title>Node1</title>
<g id="a_Node000001"><a xlink:title=" ">
<polygon fill="#999999" stroke="#666666" points="209.75,-37.25 124.75,-37.25 124.75,-18 209.75,-18 209.75,-37.25"/>
<text text-anchor="middle" x="167.25" y="-23.75" font-family="Helvetica,sans-Serif" font-size="10.00">Circle::generate</text>
</a>
</g>
</g>
<!-- Node2 -->
<g id="Node000002" class="node">
<title>Node2</title>
<g id="a_Node000002"><a xlink:href="../../d0/d88/class_circle_a87c01ad558101203c49f203e005cda05.html#a87c01ad558101203c49f203e005cda05" target="_top" xlink:title=" ">
<polygon fill="white" stroke="#666666" points="86.88,-56.25 1.88,-56.25 1.88,-37 86.88,-37 86.88,-56.25"/>
<text text-anchor="middle" x="44.38" y="-42.75" font-family="Helvetica,sans-Serif" font-size="10.00">Circle::generate</text>
</a>
</g>
</g>
<!-- Node1&#45;&gt;Node2 -->
<g id="edge1_Node000001_Node000002" class="edge">
<title>Node1&#45;&gt;Node2</title>
<g id="a_edge1_Node000001_Node000002"><a xlink:title=" ">
<path fill="none" stroke="#63b8ff" d="M113.1,-35.98C104.44,-37.34 95.58,-38.73 87.24,-40.04"/>
<polygon fill="#63b8ff" stroke="#63b8ff" points="113.48,-39.46 122.82,-34.45 112.4,-32.55 113.48,-39.46"/>
</a>
</g>
</g>
<!-- Node3 -->
<g id="Node000003" class="node">
<title>Node3</title>
<g id="a_Node000003"><a xlink:href="../../d0/d88/class_circle_ae155ecd8cfe099465db49bcdbf513fca.html#ae155ecd8cfe099465db49bcdbf513fca" target="_top" xlink:title=" ">
<polygon fill="white" stroke="#666666" points="88.75,-19.25 0,-19.25 0,0 88.75,0 88.75,-19.25"/>
<text text-anchor="middle" x="44.38" y="-5.75" font-family="Helvetica,sans-Serif" font-size="10.00">Circle::operator()</text>
</a>
</g>
</g>
<!-- Node1&#45;&gt;Node3 -->
<g id="edge2_Node000001_Node000003" class="edge">
<title>Node1&#45;&gt;Node3</title>
<g id="a_edge2_Node000001_Node000003"><a xlink:title=" ">
<path fill="none" stroke="#63b8ff" d="M113.06,-19.7C104.98,-18.5 96.72,-17.27 88.88,-16.1"/>
<polygon fill="#63b8ff" stroke="#63b8ff" points="112.41,-23.15 122.82,-21.16 113.44,-16.22 112.41,-23.15"/>
</a>
</g>
</g>
</g>
</svg>
