<?xml version="1.0" encoding="UTF-8" standalone="no"?>
<!DOCTYPE svg PUBLIC "-//W3C//DTD SVG 1.1//EN"
 "http://www.w3.org/Graphics/SVG/1.1/DTD/svg11.dtd">
<!-- Generated by graphviz version 12.2.1 (20241206.2353)
 -->
<!-- Title: Circle::Get_Point_list Pages: 1 -->
<svg width="406pt" height="273pt"
 viewBox="0.00 0.00 405.50 272.88" xmlns="http://www.w3.org/2000/svg" xmlns:xlink="http://www.w3.org/1999/xlink">
<g id="graph0" class="graph" transform="scale(1 1) rotate(0) translate(4 268.88)">
<title>Circle::Get_Point_list</title>
<!-- Node1 -->
<g id="Node000001" class="node">
<title>Node1</title>
<g id="a_Node000001"><a xlink:title=" ">
<polygon fill="#999999" stroke="#666666" points="397.5,-136.25 288.5,-136.25 288.5,-117 397.5,-117 397.5,-136.25"/>
<text text-anchor="middle" x="343" y="-122.75" font-family="Helvetica,sans-Serif" font-size="10.00">Circle::Get_Point_list</text>
</a>
</g>
</g>
<!-- Node2 -->
<g id="Node000002" class="node">
<title>Node2</title>
<g id="a_Node000002"><a xlink:href="../../d6/db0/class_cylinder_a5f313be17ebbe1761b8fbeb6409c3f0d.html#a5f313be17ebbe1761b8fbeb6409c3f0d" target="_top" xlink:title=" ">
<polygon fill="white" stroke="#666666" points="250.25,-264.88 137.5,-264.88 137.5,-234.38 250.25,-234.38 250.25,-264.88"/>
<text text-anchor="start" x="145.5" y="-251.38" font-family="Helvetica,sans-Serif" font-size="10.00">Cylinder::Cluster_Grid</text>
<text text-anchor="middle" x="193.88" y="-240.12" font-family="Helvetica,sans-Serif" font-size="10.00">_Cylinder_Plane</text>
</a>
</g>
</g>
<!-- Node1&#45;&gt;Node2 -->
<g id="edge1_Node000001_Node000002" class="edge">
<title>Node1&#45;&gt;Node2</title>
<g id="a_edge1_Node000001_Node000002"><a xlink:title=" ">
<path fill="none" stroke="#63b8ff" d="M328.66,-145.92C312.72,-167.77 284.19,-203.23 252.5,-225.62 248.16,-228.69 243.38,-231.46 238.47,-233.94"/>
<polygon fill="#63b8ff" stroke="#63b8ff" points="331.42,-148.08 334.38,-137.9 325.72,-144.01 331.42,-148.08"/>
</a>
</g>
</g>
<!-- Node4 -->
<g id="Node000004" class="node">
<title>Node4</title>
<g id="a_Node000004"><a xlink:href="../../d8/d83/class_object_a7e50e62d0a59564194017ed919cf76d6.html#a7e50e62d0a59564194017ed919cf76d6" target="_top" xlink:title=" ">
<polygon fill="white" stroke="#666666" points="237.88,-216.25 149.88,-216.25 149.88,-197 237.88,-197 237.88,-216.25"/>
<text text-anchor="middle" x="193.88" y="-202.75" font-family="Helvetica,sans-Serif" font-size="10.00">Object::generate</text>
</a>
</g>
</g>
<!-- Node1&#45;&gt;Node4 -->
<g id="edge3_Node000001_Node000004" class="edge">
<title>Node1&#45;&gt;Node4</title>
<g id="a_edge3_Node000001_Node000004"><a xlink:title=" ">
<path fill="none" stroke="#63b8ff" d="M321.25,-143.73C303.8,-157.42 277.72,-176.31 252.5,-188.62 246.38,-191.61 239.65,-194.25 233.02,-196.51"/>
<polygon fill="#63b8ff" stroke="#63b8ff" points="323.19,-146.65 328.82,-137.67 318.82,-141.19 323.19,-146.65"/>
</a>
</g>
</g>
<!-- Node5 -->
<g id="Node000005" class="node">
<title>Node5</title>
<g id="a_Node000005"><a xlink:href="../../d8/d83/class_object_a6cd75b3ce6f5896fd3438bd8e88ceb74.html#a6cd75b3ce6f5896fd3438bd8e88ceb74" target="_top" xlink:title=" ">
<polygon fill="white" stroke="#666666" points="237.88,-179.25 149.88,-179.25 149.88,-160 237.88,-160 237.88,-179.25"/>
<text text-anchor="middle" x="193.88" y="-165.75" font-family="Helvetica,sans-Serif" font-size="10.00">Object::generate</text>
</a>
</g>
</g>
<!-- Node1&#45;&gt;Node5 -->
<g id="edge4_Node000001_Node000005" class="edge">
<title>Node1&#45;&gt;Node5</title>
<g id="a_edge4_Node000001_Node000005"><a xlink:title=" ">
<path fill="none" stroke="#63b8ff" d="M296.58,-139.9C274.93,-146.23 249.45,-153.67 229.41,-159.53"/>
<polygon fill="#63b8ff" stroke="#63b8ff" points="297.44,-143.3 306.05,-137.13 295.47,-136.58 297.44,-143.3"/>
</a>
</g>
</g>
<!-- Node6 -->
<g id="Node000006" class="node">
<title>Node6</title>
<g id="a_Node000006"><a xlink:href="../../d6/db0/class_cylinder_a7c7384f3bf92b22ab6536947bb2c2203.html#a7c7384f3bf92b22ab6536947bb2c2203" target="_top" xlink:title=" ">
<polygon fill="white" stroke="#666666" points="252.5,-141.88 135.25,-141.88 135.25,-111.38 252.5,-111.38 252.5,-141.88"/>
<text text-anchor="start" x="143.25" y="-128.38" font-family="Helvetica,sans-Serif" font-size="10.00">Cylinder::Grid_Cylinder</text>
<text text-anchor="middle" x="193.88" y="-117.12" font-family="Helvetica,sans-Serif" font-size="10.00">_Plane</text>
</a>
</g>
</g>
<!-- Node1&#45;&gt;Node6 -->
<g id="edge5_Node000001_Node000006" class="edge">
<title>Node1&#45;&gt;Node6</title>
<g id="a_edge5_Node000001_Node000006"><a xlink:title=" ">
<path fill="none" stroke="#63b8ff" d="M276.57,-126.62C268.64,-126.62 260.59,-126.62 252.78,-126.62"/>
<polygon fill="#63b8ff" stroke="#63b8ff" points="276.54,-130.13 286.54,-126.63 276.54,-123.13 276.54,-130.13"/>
</a>
</g>
</g>
<!-- Node7 -->
<g id="Node000007" class="node">
<title>Node7</title>
<g id="a_Node000007"><a xlink:href="../../d6/db0/class_cylinder_a45befe3b28f93f19016d8d5bfcad868f.html#a45befe3b28f93f19016d8d5bfcad868f" target="_top" xlink:title=" ">
<polygon fill="white" stroke="#666666" points="243.5,-93.25 144.25,-93.25 144.25,-74 243.5,-74 243.5,-93.25"/>
<text text-anchor="middle" x="193.88" y="-79.75" font-family="Helvetica,sans-Serif" font-size="10.00">Cylinder::operator()</text>
</a>
</g>
</g>
<!-- Node1&#45;&gt;Node7 -->
<g id="edge7_Node000001_Node000007" class="edge">
<title>Node1&#45;&gt;Node7</title>
<g id="a_edge7_Node000001_Node000007"><a xlink:title=" ">
<path fill="none" stroke="#63b8ff" d="M296.58,-113.35C274.93,-107.02 249.45,-99.58 229.41,-93.72"/>
<polygon fill="#63b8ff" stroke="#63b8ff" points="295.47,-116.67 306.05,-116.12 297.44,-109.95 295.47,-116.67"/>
</a>
</g>
</g>
<!-- Node8 -->
<g id="Node000008" class="node">
<title>Node8</title>
<g id="a_Node000008"><a xlink:href="../../da/d74/class_grid_a92f6c54ea6427802111931af2157495f.html#a92f6c54ea6427802111931af2157495f" target="_top" xlink:title=" ">
<polygon fill="white" stroke="#666666" points="234.5,-56.25 153.25,-56.25 153.25,-37 234.5,-37 234.5,-56.25"/>
<text text-anchor="middle" x="193.88" y="-42.75" font-family="Helvetica,sans-Serif" font-size="10.00">Grid::operator()</text>
</a>
</g>
</g>
<!-- Node1&#45;&gt;Node8 -->
<g id="edge8_Node000001_Node000008" class="edge">
<title>Node1&#45;&gt;Node8</title>
<g id="a_edge8_Node000001_Node000008"><a xlink:title=" ">
<path fill="none" stroke="#63b8ff" d="M321.25,-109.52C303.8,-95.83 277.72,-76.94 252.5,-64.62 246.38,-61.64 239.65,-59 233.02,-56.74"/>
<polygon fill="#63b8ff" stroke="#63b8ff" points="318.82,-112.06 328.82,-115.58 323.19,-106.6 318.82,-112.06"/>
</a>
</g>
</g>
<!-- Node9 -->
<g id="Node000009" class="node">
<title>Node9</title>
<g id="a_Node000009"><a xlink:href="../../d8/d83/class_object_a755bcb3ad7d0d7a9dc2b3a63122d60f1.html#a755bcb3ad7d0d7a9dc2b3a63122d60f1" target="_top" xlink:title=" ">
<polygon fill="white" stroke="#666666" points="239.75,-19.25 148,-19.25 148,0 239.75,0 239.75,-19.25"/>
<text text-anchor="middle" x="193.88" y="-5.75" font-family="Helvetica,sans-Serif" font-size="10.00">Object::operator()</text>
</a>
</g>
</g>
<!-- Node1&#45;&gt;Node9 -->
<g id="edge9_Node000001_Node000009" class="edge">
<title>Node1&#45;&gt;Node9</title>
<g id="a_edge9_Node000001_Node000009"><a xlink:title=" ">
<path fill="none" stroke="#63b8ff" d="M329.26,-107.15C313.7,-84.83 285.35,-48.65 252.5,-27.62 247.64,-24.52 242.22,-21.91 236.68,-19.74"/>
<polygon fill="#63b8ff" stroke="#63b8ff" points="326.3,-109.02 334.81,-115.34 332.1,-105.09 326.3,-109.02"/>
</a>
</g>
</g>
<!-- Node3 -->
<g id="Node000003" class="node">
<title>Node3</title>
<g id="a_Node000003"><a xlink:href="../../d6/db0/class_cylinder_aa19ff1a27cd7267b97e1f6e6ba751a1a.html#aa19ff1a27cd7267b97e1f6e6ba751a1a" target="_top" xlink:title=" ">
<polygon fill="white" stroke="#666666" points="99.25,-197.25 0,-197.25 0,-178 99.25,-178 99.25,-197.25"/>
<text text-anchor="middle" x="49.62" y="-183.75" font-family="Helvetica,sans-Serif" font-size="10.00">Cylinder::operator()</text>
</a>
</g>
</g>
<!-- Node2&#45;&gt;Node3 -->
<g id="edge2_Node000002_Node000003" class="edge">
<title>Node2&#45;&gt;Node3</title>
<g id="a_edge2_Node000002_Node000003"><a xlink:title=" ">
<path fill="none" stroke="#63b8ff" d="M144.27,-229.49C141.21,-228.19 138.19,-226.9 135.25,-225.62 113.82,-216.35 89.52,-205.39 72.47,-197.63"/>
<polygon fill="#63b8ff" stroke="#63b8ff" points="142.72,-232.64 153.29,-233.3 145.44,-226.19 142.72,-232.64"/>
</a>
</g>
</g>
<!-- Node6&#45;&gt;Node3 -->
<g id="edge6_Node000006_Node000003" class="edge">
<title>Node6&#45;&gt;Node3</title>
<g id="a_edge6_Node000006_Node000003"><a xlink:title=" ">
<path fill="none" stroke="#63b8ff" d="M144.43,-146.73C141.32,-148.04 138.24,-149.35 135.25,-150.62 114.16,-159.63 90.23,-170.12 73.21,-177.62"/>
<polygon fill="#63b8ff" stroke="#63b8ff" points="145.76,-149.97 153.62,-142.87 143.05,-143.51 145.76,-149.97"/>
</a>
</g>
</g>
</g>
</svg>
