<?xml version="1.0" encoding="UTF-8" standalone="no"?>
<!DOCTYPE svg PUBLIC "-//W3C//DTD SVG 1.1//EN"
 "http://www.w3.org/Graphics/SVG/1.1/DTD/svg11.dtd">
<!-- Generated by graphviz version 12.2.1 (20241206.2353)
 -->
<!-- Title: Shock_Tube_2D Pages: 1 -->
<svg width="658pt" height="423pt"
 viewBox="0.00 0.00 658.45 423.25" xmlns="http://www.w3.org/2000/svg" xmlns:xlink="http://www.w3.org/1999/xlink">
<g id="graph0" class="graph" transform="scale(1 1) rotate(0) translate(4 419.25)">
<title>Shock_Tube_2D</title>
<!-- Node1 -->
<g id="Node000001" class="node">
<title>Node1</title>
<g id="a_Node000001"><a xlink:title=" ">
<polygon fill="#999999" stroke="#666666" points="88.75,-206.25 0,-206.25 0,-187 88.75,-187 88.75,-206.25"/>
<text text-anchor="middle" x="44.38" y="-192.75" font-family="Helvetica,sans-Serif" font-size="10.00">Shock_Tube_2D</text>
</a>
</g>
</g>
<!-- Node2 -->
<g id="Node000002" class="node">
<title>Node2</title>
<g id="a_Node000002"><a xlink:href="../../dd/d2a/_create___vtk___file_8cpp_a5f72d40235b74b1915174a52190c33c1.html#a5f72d40235b74b1915174a52190c33c1" target="_top" xlink:title=" ">
<polygon fill="white" stroke="#666666" points="232.25,-415.25 142.75,-415.25 142.75,-396 232.25,-396 232.25,-415.25"/>
<text text-anchor="middle" x="187.5" y="-401.75" font-family="Helvetica,sans-Serif" font-size="10.00">Append_Solution</text>
</a>
</g>
</g>
<!-- Node1&#45;&gt;Node2 -->
<g id="edge1_Node000001_Node000002" class="edge">
<title>Node1&#45;&gt;Node2</title>
<g id="a_edge1_Node000001_Node000002"><a xlink:title=" ">
<path fill="none" stroke="#63b8ff" d="M46.57,-206.58C50.86,-237.91 68.35,-335.46 124.75,-386.62 127.05,-388.71 129.57,-390.56 132.24,-392.21"/>
<polygon fill="#63b8ff" stroke="#63b8ff" points="130.56,-395.29 141.07,-396.67 133.71,-389.04 130.56,-395.29"/>
</a>
</g>
</g>
<!-- Node3 -->
<g id="Node000003" class="node">
<title>Node3</title>
<g id="a_Node000003"><a xlink:href="../../df/d43/_basic___functions_8cpp_a9ca12fb8f920cab38313323cf0c4bf53.html#a9ca12fb8f920cab38313323cf0c4bf53" target="_top" xlink:title=" ">
<polygon fill="white" stroke="#666666" points="250.25,-377.88 124.75,-377.88 124.75,-347.38 250.25,-347.38 250.25,-377.88"/>
<text text-anchor="start" x="132.75" y="-364.38" font-family="Helvetica,sans-Serif" font-size="10.00">Calculate_Computational</text>
<text text-anchor="middle" x="187.5" y="-353.12" font-family="Helvetica,sans-Serif" font-size="10.00">_Variables</text>
</a>
</g>
</g>
<!-- Node1&#45;&gt;Node3 -->
<g id="edge2_Node000001_Node000003" class="edge">
<title>Node1&#45;&gt;Node3</title>
<g id="a_edge2_Node000001_Node000003"><a xlink:title=" ">
<path fill="none" stroke="#63b8ff" d="M48.42,-206.66C56.62,-232.06 81.51,-299.59 124.75,-337.62 126.03,-338.75 127.36,-339.82 128.74,-340.85"/>
<polygon fill="#63b8ff" stroke="#63b8ff" points="126.81,-343.77 137.12,-346.21 130.57,-337.87 126.81,-343.77"/>
</a>
</g>
</g>
<!-- Node4 -->
<g id="Node000004" class="node">
<title>Node4</title>
<g id="a_Node000004"><a xlink:href="../../df/d43/_basic___functions_8cpp_a1c199e756f8458978961b4d9ab4cbe63.html#a1c199e756f8458978961b4d9ab4cbe63" target="_top" xlink:title=" ">
<polygon fill="white" stroke="#666666" points="237.88,-328.88 137.12,-328.88 137.12,-298.38 237.88,-298.38 237.88,-328.88"/>
<text text-anchor="start" x="145.12" y="-315.38" font-family="Helvetica,sans-Serif" font-size="10.00">Calculate_Primitive</text>
<text text-anchor="middle" x="187.5" y="-304.12" font-family="Helvetica,sans-Serif" font-size="10.00">_Variables</text>
</a>
</g>
</g>
<!-- Node1&#45;&gt;Node4 -->
<g id="edge3_Node000001_Node000004" class="edge">
<title>Node1&#45;&gt;Node4</title>
<g id="a_edge3_Node000001_Node000004"><a xlink:title=" ">
<path fill="none" stroke="#63b8ff" d="M51.55,-206.73C63.49,-225.51 91.52,-266.03 124.75,-289.62 126.13,-290.6 127.55,-291.55 129.01,-292.46"/>
<polygon fill="#63b8ff" stroke="#63b8ff" points="127.27,-295.5 137.72,-297.28 130.66,-289.38 127.27,-295.5"/>
</a>
</g>
</g>
<!-- Node6 -->
<g id="Node000006" class="node">
<title>Node6</title>
<g id="a_Node000006"><a xlink:href="../../da/d3e/output__files_8cpp_ac7e61b153a6d26ffbefde7b5b86d55a7.html#ac7e61b153a6d26ffbefde7b5b86d55a7" target="_top" xlink:title=" ">
<polygon fill="white" stroke="#666666" points="231.12,-280.25 143.88,-280.25 143.88,-261 231.12,-261 231.12,-280.25"/>
<text text-anchor="middle" x="187.5" y="-266.75" font-family="Helvetica,sans-Serif" font-size="10.00">Directory_Name</text>
</a>
</g>
</g>
<!-- Node1&#45;&gt;Node6 -->
<g id="edge5_Node000001_Node000006" class="edge">
<title>Node1&#45;&gt;Node6</title>
<g id="a_edge5_Node000001_Node000006"><a xlink:title=" ">
<path fill="none" stroke="#63b8ff" d="M56.96,-206.69C71.77,-219.08 98.62,-240.03 124.75,-252.62 127.82,-254.1 131.04,-255.49 134.32,-256.77"/>
<polygon fill="#63b8ff" stroke="#63b8ff" points="132.91,-259.99 143.51,-260.06 135.27,-253.4 132.91,-259.99"/>
</a>
</g>
</g>
<!-- Node7 -->
<g id="Node000007" class="node">
<title>Node7</title>
<g id="a_Node000007"><a xlink:href="../../da/d3e/output__files_8cpp_a2a6bf38afe949ce5a6cd1b3641c49c25.html#a2a6bf38afe949ce5a6cd1b3641c49c25" target="_top" xlink:title=" ">
<polygon fill="white" stroke="#666666" points="219.12,-243.25 155.88,-243.25 155.88,-224 219.12,-224 219.12,-243.25"/>
<text text-anchor="middle" x="187.5" y="-229.75" font-family="Helvetica,sans-Serif" font-size="10.00">File_Name</text>
</a>
</g>
</g>
<!-- Node1&#45;&gt;Node7 -->
<g id="edge6_Node000001_Node000007" class="edge">
<title>Node1&#45;&gt;Node7</title>
<g id="a_edge6_Node000001_Node000007"><a xlink:title=" ">
<path fill="none" stroke="#63b8ff" d="M83.94,-206.74C102.77,-211.67 125.45,-217.62 144.7,-222.66"/>
<polygon fill="#63b8ff" stroke="#63b8ff" points="143.55,-225.98 154.11,-225.13 145.32,-219.21 143.55,-225.98"/>
</a>
</g>
</g>
<!-- Node8 -->
<g id="Node000008" class="node">
<title>Node8</title>
<g id="a_Node000008"><a xlink:href="../../d8/d40/_grid___computations_8cpp_a831dcf7cbf36ddf425ce0753495ba3c6.html#a831dcf7cbf36ddf425ce0753495ba3c6" target="_top" xlink:title=" ">
<polygon fill="white" stroke="#666666" points="220.62,-206.25 154.38,-206.25 154.38,-187 220.62,-187 220.62,-206.25"/>
<text text-anchor="middle" x="187.5" y="-192.75" font-family="Helvetica,sans-Serif" font-size="10.00">Form_Cells</text>
</a>
</g>
</g>
<!-- Node1&#45;&gt;Node8 -->
<g id="edge7_Node000001_Node000008" class="edge">
<title>Node1&#45;&gt;Node8</title>
<g id="a_edge7_Node000001_Node000008"><a xlink:title=" ">
<path fill="none" stroke="#63b8ff" d="M88.87,-196.62C105.98,-196.62 125.59,-196.62 142.72,-196.62"/>
<polygon fill="#63b8ff" stroke="#63b8ff" points="142.62,-200.13 152.62,-196.63 142.62,-193.13 142.62,-200.13"/>
</a>
</g>
</g>
<!-- Node20 -->
<g id="Node000020" class="node">
<title>Node20</title>
<g id="a_Node000020"><a xlink:href="../../d7/d6d/_initialize_8cpp_ad59ff1b23c73f6427e8179ce53ee1f59.html#ad59ff1b23c73f6427e8179ce53ee1f59" target="_top" xlink:title=" ">
<polygon fill="white" stroke="#666666" points="406.12,-119.88 287.38,-119.88 287.38,-89.38 406.12,-89.38 406.12,-119.88"/>
<text text-anchor="start" x="295.38" y="-106.38" font-family="Helvetica,sans-Serif" font-size="10.00">Identify_Wall_Boundary</text>
<text text-anchor="middle" x="346.75" y="-95.12" font-family="Helvetica,sans-Serif" font-size="10.00">_Faces</text>
</a>
</g>
</g>
<!-- Node1&#45;&gt;Node20 -->
<g id="edge22_Node000001_Node000020" class="edge">
<title>Node1&#45;&gt;Node20</title>
<g id="a_edge22_Node000001_Node000020"><a xlink:title=" ">
<path fill="none" stroke="#63b8ff" d="M85.31,-186.52C126.81,-175.79 193.49,-157.89 250.25,-139.62 264.72,-134.97 280.25,-129.49 294.5,-124.26"/>
<polygon fill="#63b8ff" stroke="#63b8ff" points="295.52,-127.62 303.68,-120.86 293.09,-121.05 295.52,-127.62"/>
</a>
</g>
</g>
<!-- Node21 -->
<g id="Node000021" class="node">
<title>Node21</title>
<g id="a_Node000021"><a xlink:href="../../d7/d6d/_initialize_8cpp_acc3c3292e370176c51c654a01e651e24.html#acc3c3292e370176c51c654a01e651e24" target="_top" xlink:title=" ">
<polygon fill="white" stroke="#666666" points="213.5,-130.25 161.5,-130.25 161.5,-111 213.5,-111 213.5,-130.25"/>
<text text-anchor="middle" x="187.5" y="-116.75" font-family="Helvetica,sans-Serif" font-size="10.00">Initialize</text>
</a>
</g>
</g>
<!-- Node1&#45;&gt;Node21 -->
<g id="edge23_Node000001_Node000021" class="edge">
<title>Node1&#45;&gt;Node21</title>
<g id="a_edge23_Node000001_Node000021"><a xlink:title=" ">
<path fill="none" stroke="#63b8ff" d="M58.89,-186.5C74.28,-175.29 100.43,-157.14 124.75,-144.62 132.88,-140.44 141.91,-136.54 150.5,-133.16"/>
<polygon fill="#63b8ff" stroke="#63b8ff" points="151.52,-136.51 159.62,-129.69 149.03,-129.97 151.52,-136.51"/>
</a>
</g>
</g>
<!-- Node24 -->
<g id="Node000024" class="node">
<title>Node24</title>
<g id="a_Node000024"><a xlink:href="../../dd/d2a/_create___vtk___file_8cpp_a776e082e134ae9fedfaa1bf47149bdc5.html#a776e082e134ae9fedfaa1bf47149bdc5" target="_top" xlink:title="void Write_Solution(const string &amp;);">
<polygon fill="white" stroke="#666666" points="232.62,-93.25 142.38,-93.25 142.38,-74 232.62,-74 232.62,-93.25"/>
<text text-anchor="middle" x="187.5" y="-79.75" font-family="Helvetica,sans-Serif" font-size="10.00">Read_Write_Grid</text>
</a>
</g>
</g>
<!-- Node1&#45;&gt;Node24 -->
<g id="edge27_Node000001_Node000024" class="edge">
<title>Node1&#45;&gt;Node24</title>
<g id="a_edge27_Node000001_Node000024"><a xlink:title=" ">
<path fill="none" stroke="#63b8ff" d="M50.95,-186.62C62.26,-167.24 89.86,-124.45 124.75,-101.62 126.88,-100.23 129.11,-98.95 131.42,-97.76"/>
<polygon fill="#63b8ff" stroke="#63b8ff" points="132.77,-100.99 140.52,-93.76 129.96,-94.58 132.77,-100.99"/>
</a>
</g>
</g>
<!-- Node25 -->
<g id="Node000025" class="node">
<title>Node25</title>
<g id="a_Node000025"><a xlink:href="../../df/d43/_basic___functions_8cpp_ace6d77409787d1bc742eacb24948dfd1.html#ace6d77409787d1bc742eacb24948dfd1" target="_top" xlink:title=" ">
<polygon fill="white" stroke="#666666" points="235.25,-56.25 139.75,-56.25 139.75,-37 235.25,-37 235.25,-56.25"/>
<text text-anchor="middle" x="187.5" y="-42.75" font-family="Helvetica,sans-Serif" font-size="10.00">Reference_Values</text>
</a>
</g>
</g>
<!-- Node1&#45;&gt;Node25 -->
<g id="edge28_Node000001_Node000025" class="edge">
<title>Node1&#45;&gt;Node25</title>
<g id="a_edge28_Node000001_Node000025"><a xlink:title=" ">
<path fill="none" stroke="#63b8ff" d="M48.52,-186.62C56.79,-161.97 81.54,-97.92 124.75,-64.62 126.27,-63.45 127.86,-62.36 129.52,-61.33"/>
<polygon fill="#63b8ff" stroke="#63b8ff" points="130.85,-64.59 138.14,-56.9 127.65,-58.36 130.85,-64.59"/>
</a>
</g>
</g>
<!-- Node26 -->
<g id="Node000026" class="node">
<title>Node26</title>
<g id="a_Node000026"><a xlink:href="../../da/d3e/output__files_8cpp_ac49d22b87cab7fa46da37546b7af78b0.html#ac49d22b87cab7fa46da37546b7af78b0" target="_top" xlink:title=" ">
<polygon fill="white" stroke="#666666" points="227,-19.25 148,-19.25 148,0 227,0 227,-19.25"/>
<text text-anchor="middle" x="187.5" y="-5.75" font-family="Helvetica,sans-Serif" font-size="10.00">Write_Solution</text>
</a>
</g>
</g>
<!-- Node1&#45;&gt;Node26 -->
<g id="edge29_Node000001_Node000026" class="edge">
<title>Node1&#45;&gt;Node26</title>
<g id="a_edge29_Node000001_Node000026"><a xlink:title=" ">
<path fill="none" stroke="#63b8ff" d="M47.13,-186.5C52.75,-157.25 73.02,-71.88 124.75,-27.62 128.43,-24.48 132.62,-21.89 137.07,-19.74"/>
<polygon fill="#63b8ff" stroke="#63b8ff" points="138.31,-23.01 146.32,-16.08 135.74,-16.5 138.31,-23.01"/>
</a>
</g>
</g>
<!-- Node5 -->
<g id="Node000005" class="node">
<title>Node5</title>
<g id="a_Node000005"><a xlink:href="../../df/d43/_basic___functions_8cpp_ae9dc3225863fb110155bb3e9dea4e4d3.html#ae9dc3225863fb110155bb3e9dea4e4d3" target="_top" xlink:title=" ">
<polygon fill="white" stroke="#666666" points="375,-355.25 318.5,-355.25 318.5,-336 375,-336 375,-355.25"/>
<text text-anchor="middle" x="346.75" y="-341.75" font-family="Helvetica,sans-Serif" font-size="10.00">Viscosity</text>
</a>
</g>
</g>
<!-- Node4&#45;&gt;Node5 -->
<g id="edge4_Node000004_Node000005" class="edge">
<title>Node4&#45;&gt;Node5</title>
<g id="a_edge4_Node000004_Node000005"><a xlink:title=" ">
<path fill="none" stroke="#63b8ff" d="M238.25,-323.75C260.47,-328.27 286.26,-333.52 307.01,-337.74"/>
<polygon fill="#63b8ff" stroke="#63b8ff" points="306.29,-341.17 316.79,-339.73 307.68,-334.31 306.29,-341.17"/>
</a>
</g>
</g>
<!-- Node9 -->
<g id="Node000009" class="node">
<title>Node9</title>
<g id="a_Node000009"><a xlink:href="../../d8/d40/_grid___computations_8cpp_a7e6f11445e90cefdcb91f369846ec691.html#a7e6f11445e90cefdcb91f369846ec691" target="_top" xlink:title=" ">
<polygon fill="white" stroke="#666666" points="403.88,-168.88 289.62,-168.88 289.62,-138.38 403.88,-138.38 403.88,-168.88"/>
<text text-anchor="start" x="297.62" y="-155.38" font-family="Helvetica,sans-Serif" font-size="10.00">Calculate_Cell_Center</text>
<text text-anchor="middle" x="346.75" y="-144.12" font-family="Helvetica,sans-Serif" font-size="10.00">_Distances</text>
</a>
</g>
</g>
<!-- Node8&#45;&gt;Node9 -->
<g id="edge8_Node000008_Node000009" class="edge">
<title>Node8&#45;&gt;Node9</title>
<g id="a_edge8_Node000008_Node000009"><a xlink:title=" ">
<path fill="none" stroke="#63b8ff" d="M221.08,-187.72C237.71,-183.17 258.57,-177.47 278.44,-172.03"/>
<polygon fill="#63b8ff" stroke="#63b8ff" points="279.17,-175.46 287.89,-169.45 277.32,-168.71 279.17,-175.46"/>
</a>
</g>
</g>
<!-- Node12 -->
<g id="Node000012" class="node">
<title>Node12</title>
<g id="a_Node000012"><a xlink:href="../../d8/d40/_grid___computations_8cpp_a209db16fba143a9833c8d4021624afb0.html#a209db16fba143a9833c8d4021624afb0" target="_top" xlink:title=" ">
<polygon fill="white" stroke="#666666" points="545.12,-206.25 472.88,-206.25 472.88,-187 545.12,-187 545.12,-206.25"/>
<text text-anchor="middle" x="509" y="-192.75" font-family="Helvetica,sans-Serif" font-size="10.00">Check_Cells</text>
</a>
</g>
</g>
<!-- Node8&#45;&gt;Node12 -->
<g id="edge12_Node000008_Node000012" class="edge">
<title>Node8&#45;&gt;Node12</title>
<g id="a_edge12_Node000008_Node000012"><a xlink:title=" ">
<path fill="none" stroke="#63b8ff" d="M220.89,-196.62C277.76,-196.62 395.74,-196.62 461.38,-196.62"/>
<polygon fill="#63b8ff" stroke="#63b8ff" points="461.1,-200.13 471.1,-196.63 461.1,-193.13 461.1,-200.13"/>
</a>
</g>
</g>
<!-- Node13 -->
<g id="Node000013" class="node">
<title>Node13</title>
<g id="a_Node000013"><a xlink:href="../../df/daf/_co___volume___grid___computations_8cpp_a097cceef075e862683dd9f6e95d091d4.html#a097cceef075e862683dd9f6e95d091d4" target="_top" xlink:title=" ">
<polygon fill="white" stroke="#666666" points="406.88,-318.25 286.62,-318.25 286.62,-299 406.88,-299 406.88,-318.25"/>
<text text-anchor="middle" x="346.75" y="-304.75" font-family="Helvetica,sans-Serif" font-size="10.00">Construct_Co_Volumes</text>
</a>
</g>
</g>
<!-- Node8&#45;&gt;Node13 -->
<g id="edge13_Node000008_Node000013" class="edge">
<title>Node8&#45;&gt;Node13</title>
<g id="a_edge13_Node000008_Node000013"><a xlink:title=" ">
<path fill="none" stroke="#63b8ff" d="M220.83,-200.7C231.15,-203.31 242.01,-207.6 250.25,-214.62 278.69,-238.87 257.93,-266.23 286.25,-290.62 287.17,-291.42 288.12,-292.17 289.11,-292.9"/>
<polygon fill="#63b8ff" stroke="#63b8ff" points="286.93,-295.68 297.32,-297.78 290.51,-289.66 286.93,-295.68"/>
</a>
</g>
</g>
<!-- Node16 -->
<g id="Node000016" class="node">
<title>Node16</title>
<g id="a_Node000016"><a xlink:href="../../d8/d40/_grid___computations_8cpp_ae5f2b7a0fdbc48f8fdf897222b7ded04.html#ae5f2b7a0fdbc48f8fdf897222b7ded04" target="_top" xlink:title=" ">
<polygon fill="white" stroke="#666666" points="405.75,-281.25 287.75,-281.25 287.75,-262 405.75,-262 405.75,-281.25"/>
<text text-anchor="middle" x="346.75" y="-267.75" font-family="Helvetica,sans-Serif" font-size="10.00">Construct_Ghost_Cells</text>
</a>
</g>
</g>
<!-- Node8&#45;&gt;Node16 -->
<g id="edge16_Node000008_Node000016" class="edge">
<title>Node8&#45;&gt;Node16</title>
<g id="a_edge16_Node000008_Node000016"><a xlink:title=" ">
<path fill="none" stroke="#63b8ff" d="M220.98,-202.57C230.86,-205.29 241.42,-209.16 250.25,-214.62 270.3,-227.05 266.26,-241.1 286.25,-253.62 288.14,-254.81 290.11,-255.91 292.13,-256.95"/>
<polygon fill="#63b8ff" stroke="#63b8ff" points="290.67,-260.13 301.23,-260.98 293.5,-253.73 290.67,-260.13"/>
</a>
</g>
</g>
<!-- Node18 -->
<g id="Node000018" class="node">
<title>Node18</title>
<g id="a_Node000018"><a xlink:href="../../d8/d40/_grid___computations_8cpp_a663d4b3ae06e638c2f2e82ad437e831e.html#a663d4b3ae06e638c2f2e82ad437e831e" target="_top" xlink:title="Reads the input grid file and constructs physical cells, evaluates face areas, normals,...">
<polygon fill="white" stroke="#666666" points="378,-244.25 315.5,-244.25 315.5,-225 378,-225 378,-244.25"/>
<text text-anchor="middle" x="346.75" y="-230.75" font-family="Helvetica,sans-Serif" font-size="10.00">Read_Grid</text>
</a>
</g>
</g>
<!-- Node8&#45;&gt;Node18 -->
<g id="edge18_Node000008_Node000018" class="edge">
<title>Node8&#45;&gt;Node18</title>
<g id="a_edge18_Node000008_Node000018"><a xlink:title=" ">
<path fill="none" stroke="#63b8ff" d="M221.08,-204.5C245.14,-210.31 278.08,-218.27 304.06,-224.55"/>
<polygon fill="#63b8ff" stroke="#63b8ff" points="303.07,-227.91 313.61,-226.86 304.71,-221.11 303.07,-227.91"/>
</a>
</g>
</g>
<!-- Node10 -->
<g id="Node000010" class="node">
<title>Node10</title>
<g id="a_Node000010"><a xlink:href="../../d8/d40/_grid___computations_8cpp_a1f273579608200866e02e34f16a3eb6b.html#a1f273579608200866e02e34f16a3eb6b" target="_top" xlink:title=" ">
<polygon fill="white" stroke="#666666" points="574.75,-163.25 443.25,-163.25 443.25,-144 574.75,-144 574.75,-163.25"/>
<text text-anchor="middle" x="509" y="-149.75" font-family="Helvetica,sans-Serif" font-size="10.00">Distance_Between_Points</text>
</a>
</g>
</g>
<!-- Node9&#45;&gt;Node10 -->
<g id="edge9_Node000009_Node000010" class="edge">
<title>Node9&#45;&gt;Node10</title>
<g id="a_edge9_Node000009_Node000010"><a xlink:title=" ">
<path fill="none" stroke="#63b8ff" d="M404.25,-153.62C413.15,-153.62 422.49,-153.62 431.75,-153.62"/>
<polygon fill="#63b8ff" stroke="#63b8ff" points="431.47,-157.13 441.47,-153.63 431.47,-150.13 431.47,-157.13"/>
</a>
</g>
</g>
<!-- Node11 -->
<g id="Node000011" class="node">
<title>Node11</title>
<g id="a_Node000011"><a xlink:href="../../d8/d40/_grid___computations_8cpp_a079a3910785ad86cffe119a8e3d6a0d4.html#a079a3910785ad86cffe119a8e3d6a0d4" target="_top" xlink:title=" ">
<polygon fill="white" stroke="#666666" points="647,-163.25 610.75,-163.25 610.75,-144 647,-144 647,-163.25"/>
<text text-anchor="middle" x="628.88" y="-149.75" font-family="Helvetica,sans-Serif" font-size="10.00">Print</text>
</a>
</g>
</g>
<!-- Node10&#45;&gt;Node11 -->
<g id="edge10_Node000010_Node000011" class="edge">
<title>Node10&#45;&gt;Node11</title>
<g id="a_edge10_Node000010_Node000011"><a xlink:title=" ">
<path fill="none" stroke="#63b8ff" d="M575.14,-153.62C583.47,-153.62 591.62,-153.62 598.94,-153.62"/>
<polygon fill="#63b8ff" stroke="#63b8ff" points="598.82,-157.13 608.82,-153.63 598.82,-150.13 598.82,-157.13"/>
</a>
</g>
</g>
<!-- Node11&#45;&gt;Node11 -->
<g id="edge11_Node000011_Node000011" class="edge">
<title>Node11&#45;&gt;Node11</title>
<g id="a_edge11_Node000011_Node000011"><a xlink:title=" ">
<path fill="none" stroke="#63b8ff" d="M610.4,-163.25C601.41,-171.94 607.57,-181.25 628.88,-181.25 640.86,-181.25 648.05,-178.3 650.45,-174.18"/>
<polygon fill="#63b8ff" stroke="#63b8ff" points="653.86,-173.37 647.76,-164.71 647.13,-175.28 653.86,-173.37"/>
</a>
</g>
</g>
<!-- Node14 -->
<g id="Node000014" class="node">
<title>Node14</title>
<g id="a_Node000014"><a xlink:href="../../d8/d40/_grid___computations_8cpp_a0d19b951f556ac7a935819a38d2e1a6f.html#a0d19b951f556ac7a935819a38d2e1a6f" target="_top" xlink:title=" ">
<polygon fill="white" stroke="#666666" points="551.88,-318.25 466.12,-318.25 466.12,-299 551.88,-299 551.88,-318.25"/>
<text text-anchor="middle" x="509" y="-304.75" font-family="Helvetica,sans-Serif" font-size="10.00">Construct_Face</text>
</a>
</g>
</g>
<!-- Node13&#45;&gt;Node14 -->
<g id="edge14_Node000013_Node000014" class="edge">
<title>Node13&#45;&gt;Node14</title>
<g id="a_edge14_Node000013_Node000014"><a xlink:title=" ">
<path fill="none" stroke="#63b8ff" d="M406.97,-308.62C422.6,-308.62 439.37,-308.62 454.67,-308.62"/>
<polygon fill="#63b8ff" stroke="#63b8ff" points="454.52,-312.13 464.52,-308.63 454.52,-305.13 454.52,-312.13"/>
</a>
</g>
</g>
<!-- Node15 -->
<g id="Node000015" class="node">
<title>Node15</title>
<g id="a_Node000015"><a xlink:href="../../d8/d40/_grid___computations_8cpp_a29418163b6fbd0aa81c60026e430d0b8.html#a29418163b6fbd0aa81c60026e430d0b8" target="_top" xlink:title=" ">
<polygon fill="white" stroke="#666666" points="571.38,-355.25 446.62,-355.25 446.62,-336 571.38,-336 571.38,-355.25"/>
<text text-anchor="middle" x="509" y="-341.75" font-family="Helvetica,sans-Serif" font-size="10.00">Evaluate_Cross_Product</text>
</a>
</g>
</g>
<!-- Node13&#45;&gt;Node15 -->
<g id="edge15_Node000013_Node000015" class="edge">
<title>Node13&#45;&gt;Node15</title>
<g id="a_edge15_Node000013_Node000015"><a xlink:title=" ">
<path fill="none" stroke="#63b8ff" d="M391.54,-318.74C410.53,-323.12 432.97,-328.3 453.07,-332.94"/>
<polygon fill="#63b8ff" stroke="#63b8ff" points="452.26,-336.35 462.79,-335.19 453.83,-329.53 452.26,-336.35"/>
</a>
</g>
</g>
<!-- Node17 -->
<g id="Node000017" class="node">
<title>Node17</title>
<g id="a_Node000017"><a xlink:href="../../d8/d40/_grid___computations_8cpp_a2d284e26ddef582519953e8b8300184e.html#a2d284e26ddef582519953e8b8300184e" target="_top" xlink:title=" ">
<polygon fill="white" stroke="#666666" points="549.62,-281.25 468.38,-281.25 468.38,-262 549.62,-262 549.62,-281.25"/>
<text text-anchor="middle" x="509" y="-267.75" font-family="Helvetica,sans-Serif" font-size="10.00">Construct_Cell</text>
</a>
</g>
</g>
<!-- Node16&#45;&gt;Node17 -->
<g id="edge17_Node000016_Node000017" class="edge">
<title>Node16&#45;&gt;Node17</title>
<g id="a_edge17_Node000016_Node000017"><a xlink:title=" ">
<path fill="none" stroke="#63b8ff" d="M406.06,-271.62C422.62,-271.62 440.53,-271.62 456.65,-271.62"/>
<polygon fill="#63b8ff" stroke="#63b8ff" points="456.51,-275.13 466.51,-271.63 456.51,-268.13 456.51,-275.13"/>
</a>
</g>
</g>
<!-- Node18&#45;&gt;Node12 -->
<g id="edge19_Node000018_Node000012" class="edge">
<title>Node18&#45;&gt;Node12</title>
<g id="a_edge19_Node000018_Node000012"><a xlink:title=" ">
<path fill="none" stroke="#63b8ff" d="M378.27,-227.39C401.79,-221.81 434.71,-214 461.5,-207.65"/>
<polygon fill="#63b8ff" stroke="#63b8ff" points="462.17,-211.09 471.09,-205.38 460.56,-204.28 462.17,-211.09"/>
</a>
</g>
</g>
<!-- Node18&#45;&gt;Node17 -->
<g id="edge20_Node000018_Node000017" class="edge">
<title>Node18&#45;&gt;Node17</title>
<g id="a_edge20_Node000018_Node000017"><a xlink:title=" ">
<path fill="none" stroke="#63b8ff" d="M378.27,-241.67C400.42,-246.79 430.91,-253.82 456.76,-259.79"/>
<polygon fill="#63b8ff" stroke="#63b8ff" points="455.89,-263.18 466.42,-262.02 457.46,-256.36 455.89,-263.18"/>
</a>
</g>
</g>
<!-- Node19 -->
<g id="Node000019" class="node">
<title>Node19</title>
<g id="a_Node000019"><a xlink:href="../../d8/d40/_grid___computations_8cpp_aa376223dcb91990013ac6549090115ea.html#aa376223dcb91990013ac6549090115ea" target="_top" xlink:title=" ">
<polygon fill="white" stroke="#666666" points="558.25,-244.25 459.75,-244.25 459.75,-225 558.25,-225 558.25,-244.25"/>
<text text-anchor="middle" x="509" y="-230.75" font-family="Helvetica,sans-Serif" font-size="10.00">Conversion_Factor</text>
</a>
</g>
</g>
<!-- Node18&#45;&gt;Node19 -->
<g id="edge21_Node000018_Node000019" class="edge">
<title>Node18&#45;&gt;Node19</title>
<g id="a_edge21_Node000018_Node000019"><a xlink:title=" ">
<path fill="none" stroke="#63b8ff" d="M378.27,-234.62C397.94,-234.62 424.17,-234.62 447.91,-234.62"/>
<polygon fill="#63b8ff" stroke="#63b8ff" points="447.8,-238.13 457.8,-234.63 447.8,-231.13 447.8,-238.13"/>
</a>
</g>
</g>
<!-- Node21&#45;&gt;Node20 -->
<g id="edge26_Node000021_Node000020" class="edge">
<title>Node21&#45;&gt;Node20</title>
<g id="a_edge26_Node000021_Node000020"><a xlink:title=" ">
<path fill="none" stroke="#63b8ff" d="M213.76,-118.05C230.55,-116.35 253.47,-114.01 275.51,-111.77"/>
<polygon fill="#63b8ff" stroke="#63b8ff" points="275.81,-115.26 285.41,-110.77 275.1,-108.3 275.81,-115.26"/>
</a>
</g>
</g>
<!-- Node22 -->
<g id="Node000022" class="node">
<title>Node22</title>
<g id="a_Node000022"><a xlink:href="../../d4/d5d/_grid___refine___functions_8cpp_add867401ba6818c3d6480ec342cb0eaa.html#add867401ba6818c3d6480ec342cb0eaa" target="_top" xlink:title="Identifies the secondary neighbors of a given cell to evaluate second gradients.">
<polygon fill="white" stroke="#666666" points="407.25,-70.88 286.25,-70.88 286.25,-40.38 407.25,-40.38 407.25,-70.88"/>
<text text-anchor="start" x="294.25" y="-57.38" font-family="Helvetica,sans-Serif" font-size="10.00">Identify_Neighbours</text>
<text text-anchor="middle" x="346.75" y="-46.12" font-family="Helvetica,sans-Serif" font-size="10.00">_For_Second_Gradients</text>
</a>
</g>
</g>
<!-- Node21&#45;&gt;Node22 -->
<g id="edge24_Node000021_Node000022" class="edge">
<title>Node21&#45;&gt;Node22</title>
<g id="a_edge24_Node000021_Node000022"><a xlink:title=" ">
<path fill="none" stroke="#63b8ff" d="M213.97,-114.82C225.32,-111.83 238.71,-107.73 250.25,-102.62 267.4,-95.05 269.56,-89.17 286.25,-80.62 289.29,-79.07 292.46,-77.52 295.67,-76.02"/>
<polygon fill="#63b8ff" stroke="#63b8ff" points="296.95,-79.28 304.62,-71.97 294.07,-72.9 296.95,-79.28"/>
</a>
</g>
</g>
<!-- Node23 -->
<g id="Node000023" class="node">
<title>Node23</title>
<g id="a_Node000023"><a xlink:href="../../d3/dd4/_gradients_8cpp_a841d8b51ae49ac6ee37c9246228c1f89.html#a841d8b51ae49ac6ee37c9246228c1f89" target="_top" xlink:title="Identifies the secondary neighbors of a given cell to evaluate second gradients.">
<polygon fill="white" stroke="#666666" points="545.88,-65.25 472.12,-65.25 472.12,-46 545.88,-46 545.88,-65.25"/>
<text text-anchor="middle" x="509" y="-51.75" font-family="Helvetica,sans-Serif" font-size="10.00">getNeighbour</text>
</a>
</g>
</g>
<!-- Node22&#45;&gt;Node23 -->
<g id="edge25_Node000022_Node000023" class="edge">
<title>Node22&#45;&gt;Node23</title>
<g id="a_edge25_Node000022_Node000023"><a xlink:title=" ">
<path fill="none" stroke="#63b8ff" d="M407.42,-55.62C425.06,-55.62 444.12,-55.62 460.86,-55.62"/>
<polygon fill="#63b8ff" stroke="#63b8ff" points="460.51,-59.13 470.51,-55.63 460.51,-52.13 460.51,-59.13"/>
</a>
</g>
</g>
</g>
</svg>
