<?xml version="1.0" encoding="UTF-8" standalone="no"?>
<!DOCTYPE svg PUBLIC "-//W3C//DTD SVG 1.1//EN"
 "http://www.w3.org/Graphics/SVG/1.1/DTD/svg11.dtd">
<!-- Generated by graphviz version 12.2.1 (20241206.2353)
 -->
<!-- Title: get_Min_dt Pages: 1 -->
<svg width="609pt" height="159pt"
 viewBox="0.00 0.00 609.25 158.67" xmlns="http://www.w3.org/2000/svg" xmlns:xlink="http://www.w3.org/1999/xlink">
<g id="graph0" class="graph" transform="scale(1 1) rotate(0) translate(4 154.67)">
<title>get_Min_dt</title>
<!-- Node1 -->
<g id="Node000001" class="node">
<title>Node1</title>
<g id="a_Node000001"><a xlink:title=" ">
<polygon fill="#999999" stroke="#666666" points="601.25,-94.25 537.25,-94.25 537.25,-75 601.25,-75 601.25,-94.25"/>
<text text-anchor="middle" x="569.25" y="-80.75" font-family="Helvetica,sans-Serif" font-size="10.00">get_Min_dt</text>
</a>
</g>
</g>
<!-- Node2 -->
<g id="Node000002" class="node">
<title>Node2</title>
<g id="a_Node000002"><a xlink:href="../../d0/d64/_numerical___method_8cpp_a8dda0c7e17babab9b6e49e8e199dc30e.html#a8dda0c7e17babab9b6e49e8e199dc30e" target="_top" xlink:title=" ">
<polygon fill="white" stroke="#666666" points="354.75,-75.25 269,-75.25 269,-56 354.75,-56 354.75,-75.25"/>
<text text-anchor="middle" x="311.88" y="-61.75" font-family="Helvetica,sans-Serif" font-size="10.00">Explicit_Method</text>
</a>
</g>
</g>
<!-- Node1&#45;&gt;Node2 -->
<g id="edge1_Node000001_Node000002" class="edge">
<title>Node1&#45;&gt;Node2</title>
<g id="a_edge1_Node000001_Node000002"><a xlink:title=" ">
<path fill="none" stroke="#63b8ff" d="M525.54,-81.45C478.17,-77.92 402.22,-72.27 355.06,-68.76"/>
<polygon fill="#63b8ff" stroke="#63b8ff" points="525.19,-84.93 535.43,-82.18 525.71,-77.95 525.19,-84.93"/>
</a>
</g>
</g>
<!-- Node4 -->
<g id="Node000004" class="node">
<title>Node4</title>
<g id="a_Node000004"><a xlink:href="../../dd/dbf/_euler___python___wrapper_8cpp_ac5ccb50c3be270f798e054dd36987442.html#ac5ccb50c3be270f798e054dd36987442" target="_top" xlink:title=" ">
<polygon fill="white" stroke="#666666" points="112.75,-122.25 0,-122.25 0,-103 112.75,-103 112.75,-122.25"/>
<text text-anchor="middle" x="56.38" y="-108.75" font-family="Helvetica,sans-Serif" font-size="10.00">PYBIND11_MODULE</text>
</a>
</g>
</g>
<!-- Node1&#45;&gt;Node4 -->
<g id="edge12_Node000001_Node000004" class="edge">
<title>Node1&#45;&gt;Node4</title>
<g id="a_edge12_Node000001_Node000004"><a xlink:title=" ">
<path fill="none" stroke="#63b8ff" d="M540.5,-100C528.7,-105.98 514.61,-112.39 501.25,-116.62 351.79,-164.06 303.94,-154.13 148.75,-131.62 132.88,-129.32 115.61,-125.96 100.41,-122.7"/>
<polygon fill="#63b8ff" stroke="#63b8ff" points="542.03,-103.16 549.26,-95.42 538.78,-96.95 542.03,-103.16"/>
</a>
</g>
</g>
<!-- Node7 -->
<g id="Node000007" class="node">
<title>Node7</title>
<g id="a_Node000007"><a xlink:href="../../db/d38/_parallel___numerical___method_8cpp_a00c41fcacebe8dbfa74f693c388a20b2.html#a00c41fcacebe8dbfa74f693c388a20b2" target="_top" xlink:title=" ">
<polygon fill="white" stroke="#666666" points="483.62,-56.25 408.38,-56.25 408.38,-37 483.62,-37 483.62,-56.25"/>
<text text-anchor="middle" x="446" y="-42.75" font-family="Helvetica,sans-Serif" font-size="10.00">LaunchKernel</text>
</a>
</g>
</g>
<!-- Node1&#45;&gt;Node7 -->
<g id="edge8_Node000001_Node000007" class="edge">
<title>Node1&#45;&gt;Node7</title>
<g id="a_edge8_Node000001_Node000007"><a xlink:title=" ">
<path fill="none" stroke="#63b8ff" d="M526.14,-71.43C510.66,-66.58 493.4,-61.17 478.96,-56.64"/>
<polygon fill="#63b8ff" stroke="#63b8ff" points="524.99,-74.74 535.58,-74.39 527.09,-68.06 524.99,-74.74"/>
</a>
</g>
</g>
<!-- Node8 -->
<g id="Node000008" class="node">
<title>Node8</title>
<g id="a_Node000008"><a xlink:href="../../d0/d64/_numerical___method_8cpp_ac22fe28b29a4d7a95c38c8faa45cdaeb.html#ac22fe28b29a4d7a95c38c8faa45cdaeb" target="_top" xlink:title=" ">
<polygon fill="white" stroke="#666666" points="349.12,-132.25 274.62,-132.25 274.62,-113 349.12,-113 349.12,-132.25"/>
<text text-anchor="middle" x="311.88" y="-118.75" font-family="Helvetica,sans-Serif" font-size="10.00">Lax_Fedrichs</text>
</a>
</g>
</g>
<!-- Node1&#45;&gt;Node8 -->
<g id="edge10_Node000001_Node000008" class="edge">
<title>Node1&#45;&gt;Node8</title>
<g id="a_edge10_Node000001_Node000008"><a xlink:title=" ">
<path fill="none" stroke="#63b8ff" d="M525.71,-90.95C476.41,-98.29 395.98,-110.26 349.4,-117.19"/>
<polygon fill="#63b8ff" stroke="#63b8ff" points="526.06,-94.44 535.44,-89.51 525.03,-87.52 526.06,-94.44"/>
</a>
</g>
</g>
<!-- Node9 -->
<g id="Node000009" class="node">
<title>Node9</title>
<g id="a_Node000009"><a xlink:href="../../d0/d64/_numerical___method_8cpp_a794f030971fbb7c9dd4bc08df03f50f1.html#a794f030971fbb7c9dd4bc08df03f50f1" target="_top" xlink:title=" ">
<polygon fill="white" stroke="#666666" points="501.25,-19.25 390.75,-19.25 390.75,0 501.25,0 501.25,-19.25"/>
<text text-anchor="middle" x="446" y="-5.75" font-family="Helvetica,sans-Serif" font-size="10.00">Runge_Kutta_Method</text>
</a>
</g>
</g>
<!-- Node1&#45;&gt;Node9 -->
<g id="edge13_Node000001_Node000009" class="edge">
<title>Node1&#45;&gt;Node9</title>
<g id="a_edge13_Node000001_Node000009"><a xlink:title=" ">
<path fill="none" stroke="#63b8ff" d="M551.3,-66.95C538.53,-54.49 520.07,-38.21 501.25,-27.62 495.8,-24.56 489.75,-21.91 483.72,-19.66"/>
<polygon fill="#63b8ff" stroke="#63b8ff" points="548.55,-69.15 558.09,-73.77 553.51,-64.21 548.55,-69.15"/>
</a>
</g>
</g>
<!-- Node3 -->
<g id="Node000003" class="node">
<title>Node3</title>
<g id="a_Node000003"><a xlink:href="../../de/df0/_solver_8cpp_ad0f49408a26339b5f7043bf867c3fa8d.html#ad0f49408a26339b5f7043bf867c3fa8d" target="_top" xlink:title=" ">
<polygon fill="white" stroke="#666666" points="232.25,-57.25 149.5,-57.25 149.5,-38 232.25,-38 232.25,-57.25"/>
<text text-anchor="middle" x="190.88" y="-43.75" font-family="Helvetica,sans-Serif" font-size="10.00">Inviscid_Solver</text>
</a>
</g>
</g>
<!-- Node2&#45;&gt;Node3 -->
<g id="edge2_Node000002_Node000003" class="edge">
<title>Node2&#45;&gt;Node3</title>
<g id="a_edge2_Node000002_Node000003"><a xlink:title=" ">
<path fill="none" stroke="#63b8ff" d="M257.34,-57.53C248.97,-56.26 240.45,-54.97 232.43,-53.76"/>
<polygon fill="#63b8ff" stroke="#63b8ff" points="256.68,-60.97 267.09,-59 257.72,-54.05 256.68,-60.97"/>
</a>
</g>
</g>
<!-- Node6 -->
<g id="Node000006" class="node">
<title>Node6</title>
<g id="a_Node000006"><a xlink:href="../../de/df0/_solver_8cpp_a2f37f06e8324a1ed6aa99efdbba81865.html#a2f37f06e8324a1ed6aa99efdbba81865" target="_top" xlink:title=" ">
<polygon fill="white" stroke="#666666" points="233,-94.25 148.75,-94.25 148.75,-75 233,-75 233,-94.25"/>
<text text-anchor="middle" x="190.88" y="-80.75" font-family="Helvetica,sans-Serif" font-size="10.00">Viscous_Solver</text>
</a>
</g>
</g>
<!-- Node2&#45;&gt;Node6 -->
<g id="edge5_Node000002_Node000006" class="edge">
<title>Node2&#45;&gt;Node6</title>
<g id="a_edge5_Node000002_Node000006"><a xlink:title=" ">
<path fill="none" stroke="#63b8ff" d="M257.32,-74.18C249.23,-75.47 241,-76.78 233.23,-78.02"/>
<polygon fill="#63b8ff" stroke="#63b8ff" points="257.77,-77.65 267.09,-72.62 256.66,-70.74 257.77,-77.65"/>
</a>
</g>
</g>
<!-- Node3&#45;&gt;Node4 -->
<g id="edge3_Node000003_Node000004" class="edge">
<title>Node3&#45;&gt;Node4</title>
<g id="a_edge3_Node000003_Node000004"><a xlink:title=" ">
<path fill="none" stroke="#63b8ff" d="M155.79,-62.31C153.4,-63.41 151.03,-64.53 148.75,-65.62 132.45,-73.48 128.82,-76.32 112.75,-84.62 101.07,-90.66 87.95,-97.3 77.41,-102.6"/>
<polygon fill="#63b8ff" stroke="#63b8ff" points="157.18,-65.52 164.87,-58.23 154.32,-59.14 157.18,-65.52"/>
</a>
</g>
</g>
<!-- Node5 -->
<g id="Node000005" class="node">
<title>Node5</title>
<g id="a_Node000005"><a xlink:href="../../d5/d12/_main_8cpp_a35d775933750ace299102f06a1712663.html#a35d775933750ace299102f06a1712663" target="_top" xlink:title="Executes the appropriate solver based on the simulation configuration.">
<polygon fill="white" stroke="#666666" points="85,-75.25 27.75,-75.25 27.75,-56 85,-56 85,-75.25"/>
<text text-anchor="middle" x="56.38" y="-61.75" font-family="Helvetica,sans-Serif" font-size="10.00">runSolver</text>
</a>
</g>
</g>
<!-- Node3&#45;&gt;Node5 -->
<g id="edge4_Node000003_Node000005" class="edge">
<title>Node3&#45;&gt;Node5</title>
<g id="a_edge4_Node000003_Node000005"><a xlink:title=" ">
<path fill="none" stroke="#63b8ff" d="M137.83,-54.7C119.9,-57.13 100.53,-59.76 85.28,-61.83"/>
<polygon fill="#63b8ff" stroke="#63b8ff" points="138.1,-58.19 147.54,-53.38 137.16,-51.25 138.1,-58.19"/>
</a>
</g>
</g>
<!-- Node6&#45;&gt;Node4 -->
<g id="edge6_Node000006_Node000004" class="edge">
<title>Node6&#45;&gt;Node4</title>
<g id="a_edge6_Node000006_Node000004"><a xlink:title=" ">
<path fill="none" stroke="#63b8ff" d="M137.14,-95.77C126.61,-97.99 115.62,-100.32 105.27,-102.5"/>
<polygon fill="#63b8ff" stroke="#63b8ff" points="137.77,-99.21 146.83,-93.72 136.33,-92.36 137.77,-99.21"/>
</a>
</g>
</g>
<!-- Node6&#45;&gt;Node5 -->
<g id="edge7_Node000006_Node000005" class="edge">
<title>Node6&#45;&gt;Node5</title>
<g id="a_edge7_Node000006_Node000005"><a xlink:title=" ">
<path fill="none" stroke="#63b8ff" d="M136.97,-77.04C119.33,-74.51 100.37,-71.79 85.38,-69.64"/>
<polygon fill="#63b8ff" stroke="#63b8ff" points="136.42,-80.5 146.82,-78.45 137.41,-73.57 136.42,-80.5"/>
</a>
</g>
</g>
<!-- Node7&#45;&gt;Node2 -->
<g id="edge9_Node000007_Node000002" class="edge">
<title>Node7&#45;&gt;Node2</title>
<g id="a_edge9_Node000007_Node000002"><a xlink:title=" ">
<path fill="none" stroke="#63b8ff" d="M396.99,-53.53C383.27,-55.5 368.42,-57.64 355.08,-59.56"/>
<polygon fill="#63b8ff" stroke="#63b8ff" points="397.3,-57.02 406.7,-52.13 396.3,-50.09 397.3,-57.02"/>
</a>
</g>
</g>
<!-- Node8&#45;&gt;Node4 -->
<g id="edge11_Node000008_Node000004" class="edge">
<title>Node8&#45;&gt;Node4</title>
<g id="a_edge11_Node000008_Node000004"><a xlink:title=" ">
<path fill="none" stroke="#63b8ff" d="M262.81,-120.73C220.19,-119.05 157.93,-116.59 113.13,-114.82"/>
<polygon fill="#63b8ff" stroke="#63b8ff" points="262.64,-124.22 272.77,-121.12 262.92,-117.23 262.64,-124.22"/>
</a>
</g>
</g>
</g>
</svg>
