<?xml version="1.0" encoding="UTF-8" standalone="no"?>
<!DOCTYPE svg PUBLIC "-//W3C//DTD SVG 1.1//EN"
 "http://www.w3.org/Graphics/SVG/1.1/DTD/svg11.dtd">
<!-- Generated by graphviz version 12.2.1 (20241206.2353)
 -->
<!-- Title: Explicit_Method Pages: 1 -->
<svg width="1043pt" height="688pt"
 viewBox="0.00 0.00 1043.30 688.14" xmlns="http://www.w3.org/2000/svg" xmlns:xlink="http://www.w3.org/1999/xlink">
<g id="graph0" class="graph" transform="scale(1 1) rotate(0) translate(4 684.14)">
<title>Explicit_Method</title>
<!-- Node1 -->
<g id="Node000001" class="node">
<title>Node1</title>
<g id="a_Node000001"><a xlink:title=" ">
<polygon fill="#999999" stroke="#666666" points="85.75,-336.25 0,-336.25 0,-317 85.75,-317 85.75,-336.25"/>
<text text-anchor="middle" x="42.88" y="-322.75" font-family="Helvetica,sans-Serif" font-size="10.00">Explicit_Method</text>
</a>
</g>
</g>
<!-- Node2 -->
<g id="Node000002" class="node">
<title>Node2</title>
<g id="a_Node000002"><a xlink:href="../../d7/db1/_net___flux_8cpp_ad25c9a53b380204dd243bc1351d6b098.html#ad25c9a53b380204dd243bc1351d6b098" target="_top" xlink:title=" ">
<polygon fill="white" stroke="#666666" points="270.88,-554.25 131.12,-554.25 131.12,-535 270.88,-535 270.88,-554.25"/>
<text text-anchor="middle" x="201" y="-540.75" font-family="Helvetica,sans-Serif" font-size="10.00">Evaluate_Cell_Net_Flux_1O</text>
</a>
</g>
</g>
<!-- Node1&#45;&gt;Node2 -->
<g id="edge1_Node000001_Node000002" class="edge">
<title>Node1&#45;&gt;Node2</title>
<g id="a_edge1_Node000001_Node000002"><a xlink:title=" ">
<path fill="none" stroke="#63b8ff" d="M50.99,-336.56C75.12,-370.25 154.13,-480.57 186.24,-525.41"/>
<polygon fill="#63b8ff" stroke="#63b8ff" points="183.29,-527.31 191.96,-533.4 188.99,-523.23 183.29,-527.31"/>
</a>
</g>
</g>
<!-- Node22 -->
<g id="Node000022" class="node">
<title>Node22</title>
<g id="a_Node000022"><a xlink:href="../../d7/db1/_net___flux_8cpp_a4db2fe24c2a78f98ac91e9d7d271430f.html#a4db2fe24c2a78f98ac91e9d7d271430f" target="_top" xlink:title=" ">
<polygon fill="white" stroke="#666666" points="270.88,-364.25 131.12,-364.25 131.12,-345 270.88,-345 270.88,-364.25"/>
<text text-anchor="middle" x="201" y="-350.75" font-family="Helvetica,sans-Serif" font-size="10.00">Evaluate_Cell_Net_Flux_2O</text>
</a>
</g>
</g>
<!-- Node1&#45;&gt;Node22 -->
<g id="edge22_Node000001_Node000022" class="edge">
<title>Node1&#45;&gt;Node22</title>
<g id="a_edge22_Node000001_Node000022"><a xlink:title=" ">
<path fill="none" stroke="#63b8ff" d="M86.12,-334.2C100.37,-336.76 116.64,-339.68 132.34,-342.49"/>
<polygon fill="#63b8ff" stroke="#63b8ff" points="131.69,-345.93 142.15,-344.25 132.92,-339.04 131.69,-345.93"/>
</a>
</g>
</g>
<!-- Node30 -->
<g id="Node000030" class="node">
<title>Node30</title>
<g id="a_Node000030"><a xlink:href="../../d8/df4/_w_e_n_o2_d_8cpp_a74c2795e4a164178c69743947d6e6cf5.html#a74c2795e4a164178c69743947d6e6cf5" target="_top" xlink:title=" ">
<polygon fill="white" stroke="#666666" points="280.25,-299.25 121.75,-299.25 121.75,-280 280.25,-280 280.25,-299.25"/>
<text text-anchor="middle" x="201" y="-285.75" font-family="Helvetica,sans-Serif" font-size="10.00">Evaluate_Cell_Net_Flux_WENO</text>
</a>
</g>
</g>
<!-- Node1&#45;&gt;Node30 -->
<g id="edge44_Node000001_Node000030" class="edge">
<title>Node1&#45;&gt;Node30</title>
<g id="a_edge44_Node000001_Node000030"><a xlink:title=" ">
<path fill="none" stroke="#63b8ff" d="M86.12,-316.61C104.71,-312.21 126.74,-306.99 146.46,-302.31"/>
<polygon fill="#63b8ff" stroke="#63b8ff" points="147.05,-305.77 155.97,-300.06 145.43,-298.96 147.05,-305.77"/>
</a>
</g>
</g>
<!-- Node41 -->
<g id="Node000041" class="node">
<title>Node41</title>
<g id="a_Node000041"><a xlink:href="../../d0/d64/_numerical___method_8cpp_aab0dd8bb5a3ae3819eec8d9fef67bc83.html#aab0dd8bb5a3ae3819eec8d9fef67bc83" target="_top" xlink:title=" ">
<polygon fill="white" stroke="#666666" points="233,-262.25 169,-262.25 169,-243 233,-243 233,-262.25"/>
<text text-anchor="middle" x="201" y="-248.75" font-family="Helvetica,sans-Serif" font-size="10.00">get_Min_dt</text>
</a>
</g>
</g>
<!-- Node1&#45;&gt;Node41 -->
<g id="edge57_Node000001_Node000041" class="edge">
<title>Node1&#45;&gt;Node41</title>
<g id="a_edge57_Node000001_Node000041"><a xlink:title=" ">
<path fill="none" stroke="#63b8ff" d="M54.6,-316.74C68.86,-304.15 95.35,-282.57 121.75,-270.62 132.92,-265.58 145.64,-261.87 157.53,-259.18"/>
<polygon fill="#63b8ff" stroke="#63b8ff" points="158.03,-262.65 167.13,-257.21 156.63,-255.8 158.03,-262.65"/>
</a>
</g>
</g>
<!-- Node3 -->
<g id="Node000003" class="node">
<title>Node3</title>
<g id="a_Node000003"><a xlink:href="../../d7/db1/_net___flux_8cpp_a7cee697783ecef13423db8d0fa585cbb.html#a7cee697783ecef13423db8d0fa585cbb" target="_top" xlink:title=" ">
<polygon fill="white" stroke="#666666" points="439.12,-581.88 338.38,-581.88 338.38,-551.38 439.12,-551.38 439.12,-581.88"/>
<text text-anchor="start" x="346.38" y="-568.38" font-family="Helvetica,sans-Serif" font-size="10.00">Calculate_Flux_For</text>
<text text-anchor="middle" x="388.75" y="-557.12" font-family="Helvetica,sans-Serif" font-size="10.00">_All_Faces</text>
</a>
</g>
</g>
<!-- Node2&#45;&gt;Node3 -->
<g id="edge2_Node000002_Node000003" class="edge">
<title>Node2&#45;&gt;Node3</title>
<g id="a_edge2_Node000002_Node000003"><a xlink:title=" ">
<path fill="none" stroke="#63b8ff" d="M271.17,-552.82C289.36,-554.97 308.85,-557.28 326.59,-559.38"/>
<polygon fill="#63b8ff" stroke="#63b8ff" points="326.12,-562.85 336.46,-560.55 326.94,-555.9 326.12,-562.85"/>
</a>
</g>
</g>
<!-- Node5 -->
<g id="Node000005" class="node">
<title>Node5</title>
<g id="a_Node000005"><a xlink:href="../../d8/dec/_time___step_8cpp_a1a130a004ad45d61258215e5579c3060.html#a1a130a004ad45d61258215e5579c3060" target="_top" xlink:title=" ">
<polygon fill="white" stroke="#666666" points="442.12,-272.25 335.38,-272.25 335.38,-253 442.12,-253 442.12,-272.25"/>
<text text-anchor="middle" x="388.75" y="-258.75" font-family="Helvetica,sans-Serif" font-size="10.00">Evaluate_Time_Step</text>
</a>
</g>
</g>
<!-- Node2&#45;&gt;Node5 -->
<g id="edge4_Node000002_Node000005" class="edge">
<title>Node2&#45;&gt;Node5</title>
<g id="a_edge4_Node000002_Node000005"><a xlink:title=" ">
<path fill="none" stroke="#63b8ff" d="M206.8,-534.7C219.37,-508.56 254.11,-435.59 280.25,-373.62 297.48,-332.79 283.05,-309.98 316.25,-280.62 318.9,-278.28 321.81,-276.24 324.89,-274.45"/>
<polygon fill="#63b8ff" stroke="#63b8ff" points="326.29,-277.66 333.85,-270.23 323.31,-271.33 326.29,-277.66"/>
</a>
</g>
</g>
<!-- Node11 -->
<g id="Node000011" class="node">
<title>Node11</title>
<g id="a_Node000011"><a xlink:href="../../de/d88/_l_l_f_8cpp_a7a64f3d31bd875b4b1c595db26e909e6.html#a7a64f3d31bd875b4b1c595db26e909e6" target="_top" xlink:title=" ">
<polygon fill="white" stroke="#666666" points="768.5,-385.25 736,-385.25 736,-366 768.5,-366 768.5,-385.25"/>
<text text-anchor="middle" x="752.25" y="-371.75" font-family="Helvetica,sans-Serif" font-size="10.00">LLF</text>
</a>
</g>
</g>
<!-- Node2&#45;&gt;Node11 -->
<g id="edge10_Node000002_Node000011" class="edge">
<title>Node2&#45;&gt;Node11</title>
<g id="a_edge10_Node000002_Node000011"><a xlink:title=" ">
<path fill="none" stroke="#63b8ff" d="M220.32,-554.57C242.35,-565.91 280.77,-583.75 316.25,-590.62 355.53,-598.24 657.01,-587.74 659.5,-585.62 725.6,-529.34 638.13,-458.79 695.5,-393.62 702.82,-385.31 714.02,-380.81 724.46,-378.38"/>
<polygon fill="#63b8ff" stroke="#63b8ff" points="724.93,-381.85 734.18,-376.7 723.73,-374.96 724.93,-381.85"/>
</a>
</g>
</g>
<!-- Node13 -->
<g id="Node000013" class="node">
<title>Node13</title>
<g id="a_Node000013"><a xlink:href="../../dd/d30/_m_o_v_e_r_s_8cpp_ad9d16fef8d34a1b19bfdbf938bf033be.html#ad9d16fef8d34a1b19bfdbf938bf033be" target="_top" xlink:title=" ">
<polygon fill="white" stroke="#666666" points="782,-496.25 722.5,-496.25 722.5,-477 782,-477 782,-496.25"/>
<text text-anchor="middle" x="752.25" y="-482.75" font-family="Helvetica,sans-Serif" font-size="10.00">MOVERS</text>
</a>
</g>
</g>
<!-- Node2&#45;&gt;Node13 -->
<g id="edge12_Node000002_Node000013" class="edge">
<title>Node2&#45;&gt;Node13</title>
<g id="a_edge12_Node000002_Node000013"><a xlink:title=" ">
<path fill="none" stroke="#63b8ff" d="M207.3,-554.4C221.24,-578.96 261.67,-642.96 316.25,-666.62 375.38,-692.26 397.17,-673.49 461.25,-666.62 550.9,-657.01 584.94,-674.32 659.5,-623.62 702.55,-594.35 730.74,-537.53 743.45,-507.08"/>
<polygon fill="#63b8ff" stroke="#63b8ff" points="746.67,-508.46 747.14,-497.87 740.17,-505.86 746.67,-508.46"/>
</a>
</g>
</g>
<!-- Node17 -->
<g id="Node000017" class="node">
<title>Node17</title>
<g id="a_Node000017"><a xlink:href="../../d9/d99/_m_o_v_e_r_s___n_w_s_c_8cpp_a416436566931a0de24fa118c38443219.html#a416436566931a0de24fa118c38443219" target="_top" xlink:title=" ">
<polygon fill="white" stroke="#666666" points="436.88,-533.25 340.62,-533.25 340.62,-514 436.88,-514 436.88,-533.25"/>
<text text-anchor="middle" x="388.75" y="-519.75" font-family="Helvetica,sans-Serif" font-size="10.00">MOVERS_NWSC</text>
</a>
</g>
</g>
<!-- Node2&#45;&gt;Node17 -->
<g id="edge17_Node000002_Node000017" class="edge">
<title>Node2&#45;&gt;Node17</title>
<g id="a_edge17_Node000002_Node000017"><a xlink:title=" ">
<path fill="none" stroke="#63b8ff" d="M271.17,-536.81C290.12,-534.66 310.5,-532.36 328.82,-530.29"/>
<polygon fill="#63b8ff" stroke="#63b8ff" points="329.19,-533.77 338.73,-529.17 328.4,-526.81 329.19,-533.77"/>
</a>
</g>
</g>
<!-- Node19 -->
<g id="Node000019" class="node">
<title>Node19</title>
<g id="a_Node000019"><a xlink:href="../../d6/d22/_r_i_c_c_a_8cpp_a6fba3f461237dd1fd4ba27d9504681e2.html#a6fba3f461237dd1fd4ba27d9504681e2" target="_top" xlink:title="Computes the dissipative flux for a given cell and face using the RICCA method.">
<polygon fill="white" stroke="#666666" points="412.88,-496.25 364.62,-496.25 364.62,-477 412.88,-477 412.88,-496.25"/>
<text text-anchor="middle" x="388.75" y="-482.75" font-family="Helvetica,sans-Serif" font-size="10.00">RICCA</text>
</a>
</g>
</g>
<!-- Node2&#45;&gt;Node19 -->
<g id="edge19_Node000002_Node000019" class="edge">
<title>Node2&#45;&gt;Node19</title>
<g id="a_edge19_Node000002_Node000019"><a xlink:title=" ">
<path fill="none" stroke="#63b8ff" d="M228.55,-534.56C251.57,-526.03 285.86,-513.75 316.25,-504.62 328.33,-501 341.7,-497.5 353.58,-494.56"/>
<polygon fill="#63b8ff" stroke="#63b8ff" points="354.05,-498.05 362.95,-492.29 352.41,-491.25 354.05,-498.05"/>
</a>
</g>
</g>
<!-- Node21 -->
<g id="Node000021" class="node">
<title>Node21</title>
<g id="a_Node000021"><a xlink:href="../../d2/d7e/_roe___scheme_8cpp_a9c59619af968242393e11841b8a177af.html#a9c59619af968242393e11841b8a177af" target="_top" xlink:title=" ">
<polygon fill="white" stroke="#666666" points="407.62,-657.25 369.88,-657.25 369.88,-638 407.62,-638 407.62,-657.25"/>
<text text-anchor="middle" x="388.75" y="-643.75" font-family="Helvetica,sans-Serif" font-size="10.00">ROE</text>
</a>
</g>
</g>
<!-- Node2&#45;&gt;Node21 -->
<g id="edge21_Node000002_Node000021" class="edge">
<title>Node2&#45;&gt;Node21</title>
<g id="a_edge21_Node000002_Node000021"><a xlink:title=" ">
<path fill="none" stroke="#63b8ff" d="M213.96,-554.61C234.01,-570.93 276.15,-603.53 316.25,-623.62 329.65,-630.34 345.36,-635.85 358.64,-639.88"/>
<polygon fill="#63b8ff" stroke="#63b8ff" points="357.53,-643.21 368.11,-642.63 359.48,-636.48 357.53,-643.21"/>
</a>
</g>
</g>
<!-- Node4 -->
<g id="Node000004" class="node">
<title>Node4</title>
<g id="a_Node000004"><a xlink:href="../../d7/d5e/_average___interface___flux_8cpp_a372e43b702d58e007c6c18bd482ce84d.html#a372e43b702d58e007c6c18bd482ce84d" target="_top" xlink:title="Calculates the average convective flux at a given face of a cell.">
<polygon fill="white" stroke="#666666" points="653.12,-576.25 503.62,-576.25 503.62,-557 653.12,-557 653.12,-576.25"/>
<text text-anchor="middle" x="578.38" y="-562.75" font-family="Helvetica,sans-Serif" font-size="10.00">Calculate_Face_Average_Flux</text>
</a>
</g>
</g>
<!-- Node3&#45;&gt;Node4 -->
<g id="edge3_Node000003_Node000004" class="edge">
<title>Node3&#45;&gt;Node4</title>
<g id="a_edge3_Node000003_Node000004"><a xlink:title=" ">
<path fill="none" stroke="#63b8ff" d="M439.54,-566.62C455.64,-566.62 473.99,-566.62 491.92,-566.62"/>
<polygon fill="#63b8ff" stroke="#63b8ff" points="491.8,-570.13 501.8,-566.63 491.8,-563.13 491.8,-570.13"/>
</a>
</g>
</g>
<!-- Node6 -->
<g id="Node000006" class="node">
<title>Node6</title>
<g id="a_Node000006"><a xlink:href="../../d8/dec/_time___step_8cpp_a47640e22da2b590d3d2ddce8b175467c.html#a47640e22da2b590d3d2ddce8b175467c" target="_top" xlink:title=" ">
<polygon fill="white" stroke="#666666" points="629.5,-235.25 527.25,-235.25 527.25,-216 629.5,-216 629.5,-235.25"/>
<text text-anchor="middle" x="578.38" y="-221.75" font-family="Helvetica,sans-Serif" font-size="10.00">Inviscid_Time_Step</text>
</a>
</g>
</g>
<!-- Node5&#45;&gt;Node6 -->
<g id="edge5_Node000005_Node000006" class="edge">
<title>Node5&#45;&gt;Node6</title>
<g id="a_edge5_Node000005_Node000006"><a xlink:title=" ">
<path fill="none" stroke="#63b8ff" d="M441.02,-252.51C464.06,-247.97 491.45,-242.57 515.61,-237.81"/>
<polygon fill="#63b8ff" stroke="#63b8ff" points="516.2,-241.26 525.33,-235.89 514.84,-234.39 516.2,-241.26"/>
</a>
</g>
</g>
<!-- Node8 -->
<g id="Node000008" class="node">
<title>Node8</title>
<g id="a_Node000008"><a xlink:href="../../d8/dec/_time___step_8cpp_a36c2de590bd3f96d1bda12574ab41343.html#a36c2de590bd3f96d1bda12574ab41343" target="_top" xlink:title=" ">
<polygon fill="white" stroke="#666666" points="635.5,-198.25 521.25,-198.25 521.25,-179 635.5,-179 635.5,-198.25"/>
<text text-anchor="middle" x="578.38" y="-184.75" font-family="Helvetica,sans-Serif" font-size="10.00">Viscous_Time_Step_1</text>
</a>
</g>
</g>
<!-- Node5&#45;&gt;Node8 -->
<g id="edge7_Node000005_Node000008" class="edge">
<title>Node5&#45;&gt;Node8</title>
<g id="a_edge7_Node000005_Node000008"><a xlink:title=" ">
<path fill="none" stroke="#63b8ff" d="M405.9,-252.51C426.41,-240.06 463.26,-219.06 497.25,-206.62 502.18,-204.82 507.35,-203.17 512.58,-201.65"/>
<polygon fill="#63b8ff" stroke="#63b8ff" points="513.17,-205.12 521.91,-199.13 511.35,-198.36 513.17,-205.12"/>
</a>
</g>
</g>
<!-- Node9 -->
<g id="Node000009" class="node">
<title>Node9</title>
<g id="a_Node000009"><a xlink:href="../../d8/dec/_time___step_8cpp_aae9689c4164406f72554331b4c337962.html#aae9689c4164406f72554331b4c337962" target="_top" xlink:title=" ">
<polygon fill="white" stroke="#666666" points="635.5,-309.25 521.25,-309.25 521.25,-290 635.5,-290 635.5,-309.25"/>
<text text-anchor="middle" x="578.38" y="-295.75" font-family="Helvetica,sans-Serif" font-size="10.00">Viscous_Time_Step_2</text>
</a>
</g>
</g>
<!-- Node5&#45;&gt;Node9 -->
<g id="edge8_Node000005_Node000009" class="edge">
<title>Node5&#45;&gt;Node9</title>
<g id="a_edge8_Node000005_Node000009"><a xlink:title=" ">
<path fill="none" stroke="#63b8ff" d="M441.02,-272.74C463.87,-277.24 491,-282.59 515.02,-287.33"/>
<polygon fill="#63b8ff" stroke="#63b8ff" points="514.19,-290.73 524.68,-289.23 515.55,-283.87 514.19,-290.73"/>
</a>
</g>
</g>
<!-- Node10 -->
<g id="Node000010" class="node">
<title>Node10</title>
<g id="a_Node000010"><a xlink:href="../../d8/dec/_time___step_8cpp_ae5382f866df266ef31ad0bc1440ccadc.html#ae5382f866df266ef31ad0bc1440ccadc" target="_top" xlink:title=" ">
<polygon fill="white" stroke="#666666" points="635.5,-272.25 521.25,-272.25 521.25,-253 635.5,-253 635.5,-272.25"/>
<text text-anchor="middle" x="578.38" y="-258.75" font-family="Helvetica,sans-Serif" font-size="10.00">Viscous_Time_Step_3</text>
</a>
</g>
</g>
<!-- Node5&#45;&gt;Node10 -->
<g id="edge9_Node000005_Node000010" class="edge">
<title>Node5&#45;&gt;Node10</title>
<g id="a_edge9_Node000005_Node000010"><a xlink:title=" ">
<path fill="none" stroke="#63b8ff" d="M442.51,-262.62C463.37,-262.62 487.61,-262.62 509.73,-262.62"/>
<polygon fill="#63b8ff" stroke="#63b8ff" points="509.56,-266.13 519.56,-262.63 509.56,-259.13 509.56,-266.13"/>
</a>
</g>
</g>
<!-- Node7 -->
<g id="Node000007" class="node">
<title>Node7</title>
<g id="a_Node000007"><a xlink:href="../../dc/d3a/src_2_utility___files_8cpp_abf34e0b480f7580b0cd4237a76aed670.html#abf34e0b480f7580b0cd4237a76aed670" target="_top" xlink:title=" ">
<polygon fill="white" stroke="#666666" points="770.38,-235.25 734.12,-235.25 734.12,-216 770.38,-216 770.38,-235.25"/>
<text text-anchor="middle" x="752.25" y="-221.75" font-family="Helvetica,sans-Serif" font-size="10.00">Print</text>
</a>
</g>
</g>
<!-- Node6&#45;&gt;Node7 -->
<g id="edge6_Node000006_Node000007" class="edge">
<title>Node6&#45;&gt;Node7</title>
<g id="a_edge6_Node000006_Node000007"><a xlink:title=" ">
<path fill="none" stroke="#63b8ff" d="M629.55,-225.62C659.69,-225.62 696.98,-225.62 722.28,-225.62"/>
<polygon fill="#63b8ff" stroke="#63b8ff" points="722.14,-229.13 732.14,-225.63 722.14,-222.13 722.14,-229.13"/>
</a>
</g>
</g>
<!-- Node12 -->
<g id="Node000012" class="node">
<title>Node12</title>
<g id="a_Node000012"><a xlink:href="../../dc/d3a/src_2_utility___files_8cpp_aa047730c4b45792e657f98e973a2695f.html#aa047730c4b45792e657f98e973a2695f" target="_top" xlink:title=" ">
<polygon fill="white" stroke="#666666" points="937.12,-385.25 878.38,-385.25 878.38,-366 937.12,-366 937.12,-385.25"/>
<text text-anchor="middle" x="907.75" y="-371.75" font-family="Helvetica,sans-Serif" font-size="10.00">Maximum</text>
</a>
</g>
</g>
<!-- Node11&#45;&gt;Node12 -->
<g id="edge11_Node000011_Node000012" class="edge">
<title>Node11&#45;&gt;Node12</title>
<g id="a_edge11_Node000011_Node000012"><a xlink:title=" ">
<path fill="none" stroke="#63b8ff" d="M768.81,-375.62C791.62,-375.62 834.89,-375.62 866.91,-375.62"/>
<polygon fill="#63b8ff" stroke="#63b8ff" points="866.62,-379.13 876.62,-375.63 866.62,-372.13 866.62,-379.13"/>
</a>
</g>
</g>
<!-- Node13&#45;&gt;Node12 -->
<g id="edge15_Node000013_Node000012" class="edge">
<title>Node13&#45;&gt;Node12</title>
<g id="a_edge15_Node000013_Node000012"><a xlink:title=" ">
<path fill="none" stroke="#63b8ff" d="M782.45,-481.93C791.76,-479.27 801.57,-475.11 809,-468.62 836.85,-444.31 816.8,-417.54 845,-393.62 851.25,-388.32 858.99,-384.58 866.86,-381.94"/>
<polygon fill="#63b8ff" stroke="#63b8ff" points="867.75,-385.33 876.46,-379.3 865.89,-378.58 867.75,-385.33"/>
</a>
</g>
</g>
<!-- Node14 -->
<g id="Node000014" class="node">
<title>Node14</title>
<g id="a_Node000014"><a xlink:href="../../dd/d30/_m_o_v_e_r_s_8cpp_a765da73e807a2a843735cf15bb4a6c24.html#a765da73e807a2a843735cf15bb4a6c24" target="_top" xlink:title=" ">
<polygon fill="white" stroke="#666666" points="970.5,-496.25 845,-496.25 845,-477 970.5,-477 970.5,-496.25"/>
<text text-anchor="middle" x="907.75" y="-482.75" font-family="Helvetica,sans-Serif" font-size="10.00">Condition_For_MOVERS</text>
</a>
</g>
</g>
<!-- Node13&#45;&gt;Node14 -->
<g id="edge13_Node000013_Node000014" class="edge">
<title>Node13&#45;&gt;Node14</title>
<g id="a_edge13_Node000013_Node000014"><a xlink:title=" ">
<path fill="none" stroke="#63b8ff" d="M782.48,-486.62C796.97,-486.62 815.17,-486.62 833.14,-486.62"/>
<polygon fill="#63b8ff" stroke="#63b8ff" points="833.06,-490.13 843.06,-486.63 833.06,-483.13 833.06,-490.13"/>
</a>
</g>
</g>
<!-- Node15 -->
<g id="Node000015" class="node">
<title>Node15</title>
<g id="a_Node000015"><a xlink:href="../../dd/d30/_m_o_v_e_r_s_8cpp_a1e63c211b46cd735876d3f0df5f7330f.html#a1e63c211b46cd735876d3f0df5f7330f" target="_top" xlink:title=" ">
<polygon fill="white" stroke="#666666" points="942,-459.25 873.5,-459.25 873.5,-440 942,-440 942,-459.25"/>
<text text-anchor="middle" x="907.75" y="-445.75" font-family="Helvetica,sans-Serif" font-size="10.00">Entropy_Fix</text>
</a>
</g>
</g>
<!-- Node13&#45;&gt;Node15 -->
<g id="edge14_Node000013_Node000015" class="edge">
<title>Node13&#45;&gt;Node15</title>
<g id="a_edge14_Node000013_Node000015"><a xlink:title=" ">
<path fill="none" stroke="#63b8ff" d="M782.48,-479.58C804.99,-474.15 836.48,-466.56 862.13,-460.38"/>
<polygon fill="#63b8ff" stroke="#63b8ff" points="862.71,-463.84 871.61,-458.1 861.07,-457.04 862.71,-463.84"/>
</a>
</g>
</g>
<!-- Node16 -->
<g id="Node000016" class="node">
<title>Node16</title>
<g id="a_Node000016"><a xlink:href="../../dc/d3a/src_2_utility___files_8cpp_a51be7d63194e92e29a4cd28e08d464bd.html#a51be7d63194e92e29a4cd28e08d464bd" target="_top" xlink:title=" ">
<polygon fill="white" stroke="#666666" points="935.62,-422.25 879.88,-422.25 879.88,-403 935.62,-403 935.62,-422.25"/>
<text text-anchor="middle" x="907.75" y="-408.75" font-family="Helvetica,sans-Serif" font-size="10.00">Minimum</text>
</a>
</g>
</g>
<!-- Node13&#45;&gt;Node16 -->
<g id="edge16_Node000013_Node000016" class="edge">
<title>Node13&#45;&gt;Node16</title>
<g id="a_edge16_Node000013_Node000016"><a xlink:title=" ">
<path fill="none" stroke="#63b8ff" d="M782.25,-480.25C791.25,-477.5 800.91,-473.72 809,-468.62 828.68,-456.22 825.14,-442.75 845,-430.62 852.21,-426.23 860.55,-422.85 868.72,-420.29"/>
<polygon fill="#63b8ff" stroke="#63b8ff" points="869.47,-423.71 878.18,-417.67 867.61,-416.96 869.47,-423.71"/>
</a>
</g>
</g>
<!-- Node18 -->
<g id="Node000018" class="node">
<title>Node18</title>
<g id="a_Node000018"><a xlink:href="../../d9/d99/_m_o_v_e_r_s___n_w_s_c_8cpp_aa1addb77100799eb21d8ea96fc1d718b.html#aa1addb77100799eb21d8ea96fc1d718b" target="_top" xlink:title=" ">
<polygon fill="white" stroke="#666666" points="659.5,-533.25 497.25,-533.25 497.25,-514 659.5,-514 659.5,-533.25"/>
<text text-anchor="middle" x="578.38" y="-519.75" font-family="Helvetica,sans-Serif" font-size="10.00">Condition_For_MOVERS_NWSC</text>
</a>
</g>
</g>
<!-- Node17&#45;&gt;Node18 -->
<g id="edge18_Node000017_Node000018" class="edge">
<title>Node17&#45;&gt;Node18</title>
<g id="a_edge18_Node000017_Node000018"><a xlink:title=" ">
<path fill="none" stroke="#63b8ff" d="M437.1,-523.62C451.97,-523.62 468.92,-523.62 485.78,-523.62"/>
<polygon fill="#63b8ff" stroke="#63b8ff" points="485.31,-527.13 495.31,-523.63 485.31,-520.13 485.31,-527.13"/>
</a>
</g>
</g>
<!-- Node20 -->
<g id="Node000020" class="node">
<title>Node20</title>
<g id="a_Node000020"><a xlink:href="../../d6/d22/_r_i_c_c_a_8cpp_aed1d8bf7f1afd6d7e89c781f4922d05c.html#aed1d8bf7f1afd6d7e89c781f4922d05c" target="_top" xlink:title="Computes the Alpha parameter for the RICCA condition based on input variables.">
<polygon fill="white" stroke="#666666" points="635.5,-496.25 521.25,-496.25 521.25,-477 635.5,-477 635.5,-496.25"/>
<text text-anchor="middle" x="578.38" y="-482.75" font-family="Helvetica,sans-Serif" font-size="10.00">Condition_For_RICCA</text>
</a>
</g>
</g>
<!-- Node19&#45;&gt;Node20 -->
<g id="edge20_Node000019_Node000020" class="edge">
<title>Node19&#45;&gt;Node20</title>
<g id="a_edge20_Node000019_Node000020"><a xlink:title=" ">
<path fill="none" stroke="#63b8ff" d="M413.13,-486.62C437.23,-486.62 475.93,-486.62 509.71,-486.62"/>
<polygon fill="#63b8ff" stroke="#63b8ff" points="509.44,-490.13 519.44,-486.63 509.44,-483.13 509.44,-490.13"/>
</a>
</g>
</g>
<!-- Node22&#45;&gt;Node3 -->
<g id="edge23_Node000022_Node000003" class="edge">
<title>Node22&#45;&gt;Node3</title>
<g id="a_edge23_Node000022_Node000003"><a xlink:title=" ">
<path fill="none" stroke="#63b8ff" d="M205.21,-364.46C215.81,-395.41 252.7,-491.83 316.25,-542.62 319.77,-545.44 323.64,-547.93 327.7,-550.14"/>
<polygon fill="#63b8ff" stroke="#63b8ff" points="326.19,-553.3 336.73,-554.41 329.18,-546.97 326.19,-553.3"/>
</a>
</g>
</g>
<!-- Node22&#45;&gt;Node5 -->
<g id="edge24_Node000022_Node000005" class="edge">
<title>Node22&#45;&gt;Node5</title>
<g id="a_edge24_Node000022_Node000005"><a xlink:title=" ">
<path fill="none" stroke="#63b8ff" d="M220.76,-344.5C236.87,-335.59 260.56,-321.99 280.25,-308.62 297.02,-297.24 298.03,-289.51 316.25,-280.62 319.37,-279.1 322.63,-277.7 325.97,-276.41"/>
<polygon fill="#63b8ff" stroke="#63b8ff" points="327.08,-279.73 335.38,-273.16 324.79,-273.12 327.08,-279.73"/>
</a>
</g>
</g>
<!-- Node23 -->
<g id="Node000023" class="node">
<title>Node23</title>
<g id="a_Node000023"><a xlink:href="../../de/d88/_l_l_f_8cpp_a3f7724701b89e020e5e2cb9aee42ca55.html#a3f7724701b89e020e5e2cb9aee42ca55" target="_top" xlink:title=" ">
<polygon fill="white" stroke="#666666" points="414,-309.25 363.5,-309.25 363.5,-290 414,-290 414,-309.25"/>
<text text-anchor="middle" x="388.75" y="-295.75" font-family="Helvetica,sans-Serif" font-size="10.00">LLF_2O</text>
</a>
</g>
</g>
<!-- Node22&#45;&gt;Node23 -->
<g id="edge25_Node000022_Node000023" class="edge">
<title>Node22&#45;&gt;Node23</title>
<g id="a_edge25_Node000022_Node000023"><a xlink:title=" ">
<path fill="none" stroke="#63b8ff" d="M230.95,-344.66C253.95,-336.89 286.99,-326.03 316.25,-317.62 327.88,-314.28 340.66,-310.96 352.17,-308.09"/>
<polygon fill="#63b8ff" stroke="#63b8ff" points="352.81,-311.53 361.68,-305.75 351.14,-304.74 352.81,-311.53"/>
</a>
</g>
</g>
<!-- Node26 -->
<g id="Node000026" class="node">
<title>Node26</title>
<g id="a_Node000026"><a xlink:href="../../dd/d30/_m_o_v_e_r_s_8cpp_a895c6dcdac689f71d89e341046362be9.html#a895c6dcdac689f71d89e341046362be9" target="_top" xlink:title=" ">
<polygon fill="white" stroke="#666666" points="791,-459.25 713.5,-459.25 713.5,-440 791,-440 791,-459.25"/>
<text text-anchor="middle" x="752.25" y="-445.75" font-family="Helvetica,sans-Serif" font-size="10.00">MOVERS_2O</text>
</a>
</g>
</g>
<!-- Node22&#45;&gt;Node26 -->
<g id="edge31_Node000022_Node000026" class="edge">
<title>Node22&#45;&gt;Node26</title>
<g id="a_edge31_Node000022_Node000026"><a xlink:title=" ">
<path fill="none" stroke="#63b8ff" d="M212.61,-364.51C231.65,-381.51 273.59,-415.8 316.25,-429.62 450.22,-473.05 619.56,-463.86 701.85,-455.64"/>
<polygon fill="#63b8ff" stroke="#63b8ff" points="702.02,-459.14 711.6,-454.63 701.3,-452.18 702.02,-459.14"/>
</a>
</g>
</g>
<!-- Node27 -->
<g id="Node000027" class="node">
<title>Node27</title>
<g id="a_Node000027"><a xlink:href="../../d9/d99/_m_o_v_e_r_s___n_w_s_c_8cpp_a52270c83adc7b5111fd5b794d1d2f99a.html#a52270c83adc7b5111fd5b794d1d2f99a" target="_top" xlink:title=" ">
<polygon fill="white" stroke="#666666" points="445.88,-420.25 331.62,-420.25 331.62,-401 445.88,-401 445.88,-420.25"/>
<text text-anchor="middle" x="388.75" y="-406.75" font-family="Helvetica,sans-Serif" font-size="10.00">MOVERS_NWSC_2O</text>
</a>
</g>
</g>
<!-- Node22&#45;&gt;Node27 -->
<g id="edge36_Node000022_Node000027" class="edge">
<title>Node22&#45;&gt;Node27</title>
<g id="a_edge36_Node000022_Node000027"><a xlink:title=" ">
<path fill="none" stroke="#63b8ff" d="M230.46,-364.75C253.46,-372.77 286.75,-384.02 316.25,-392.62 322.16,-394.35 328.38,-396.06 334.58,-397.71"/>
<polygon fill="#63b8ff" stroke="#63b8ff" points="333.62,-401.07 344.18,-400.2 335.38,-394.3 333.62,-401.07"/>
</a>
</g>
</g>
<!-- Node28 -->
<g id="Node000028" class="node">
<title>Node28</title>
<g id="a_Node000028"><a xlink:href="../../d6/d22/_r_i_c_c_a_8cpp_a8c2c0508c9bf49dfb9aab35d82f560ce.html#a8c2c0508c9bf49dfb9aab35d82f560ce" target="_top" xlink:title="Computes the dissipative flux for a given cell and face using the second&#45;order RICCA method.">
<polygon fill="white" stroke="#666666" points="421.88,-383.25 355.62,-383.25 355.62,-364 421.88,-364 421.88,-383.25"/>
<text text-anchor="middle" x="388.75" y="-369.75" font-family="Helvetica,sans-Serif" font-size="10.00">RICCA_2O</text>
</a>
</g>
</g>
<!-- Node22&#45;&gt;Node28 -->
<g id="edge39_Node000022_Node000028" class="edge">
<title>Node22&#45;&gt;Node28</title>
<g id="a_edge39_Node000022_Node000028"><a xlink:title=" ">
<path fill="none" stroke="#63b8ff" d="M271.17,-361.7C295.56,-364.2 322.29,-366.93 344,-369.15"/>
<polygon fill="#63b8ff" stroke="#63b8ff" points="343.36,-372.6 353.67,-370.14 344.07,-365.64 343.36,-372.6"/>
</a>
</g>
</g>
<!-- Node29 -->
<g id="Node000029" class="node">
<title>Node29</title>
<g id="a_Node000029"><a xlink:href="../../d2/d7e/_roe___scheme_8cpp_ae1ea8008753b5cd1a6b353c362cb372d.html#ae1ea8008753b5cd1a6b353c362cb372d" target="_top" xlink:title=" ">
<polygon fill="white" stroke="#666666" points="416.62,-346.25 360.88,-346.25 360.88,-327 416.62,-327 416.62,-346.25"/>
<text text-anchor="middle" x="388.75" y="-332.75" font-family="Helvetica,sans-Serif" font-size="10.00">ROE_2O</text>
</a>
</g>
</g>
<!-- Node22&#45;&gt;Node29 -->
<g id="edge42_Node000022_Node000029" class="edge">
<title>Node22&#45;&gt;Node29</title>
<g id="a_edge42_Node000022_Node000029"><a xlink:title=" ">
<path fill="none" stroke="#63b8ff" d="M271.17,-347.92C297.69,-345.35 326.98,-342.51 349.57,-340.32"/>
<polygon fill="#63b8ff" stroke="#63b8ff" points="349.6,-343.84 359.22,-339.39 348.92,-336.87 349.6,-343.84"/>
</a>
</g>
</g>
<!-- Node23&#45;&gt;Node12 -->
<g id="edge26_Node000023_Node000012" class="edge">
<title>Node23&#45;&gt;Node12</title>
<g id="a_edge26_Node000023_Node000012"><a xlink:title=" ">
<path fill="none" stroke="#63b8ff" d="M414.45,-304.38C436.2,-308.47 468.76,-314.37 497.25,-318.62 635.3,-339.22 671.13,-334.85 809,-356.62 828.19,-359.66 849.37,-363.69 867.09,-367.26"/>
<polygon fill="#63b8ff" stroke="#63b8ff" points="866.21,-370.65 876.7,-369.22 867.61,-363.79 866.21,-370.65"/>
</a>
</g>
</g>
<!-- Node24 -->
<g id="Node000024" class="node">
<title>Node24</title>
<g id="a_Node000024"><a xlink:href="../../d0/da3/_limiters_8cpp_a6bdb2d5e0ff963b9b5b395dc79a19acd.html#a6bdb2d5e0ff963b9b5b395dc79a19acd" target="_top" xlink:title="Computes the second&#45;order limited slopes and reconstructs variables for a given cell and face.">
<polygon fill="white" stroke="#666666" points="634.75,-385.25 522,-385.25 522,-366 634.75,-366 634.75,-385.25"/>
<text text-anchor="middle" x="578.38" y="-371.75" font-family="Helvetica,sans-Serif" font-size="10.00">Second_Order_Limiter</text>
</a>
</g>
</g>
<!-- Node23&#45;&gt;Node24 -->
<g id="edge27_Node000023_Node000024" class="edge">
<title>Node23&#45;&gt;Node24</title>
<g id="a_edge27_Node000023_Node000024"><a xlink:title=" ">
<path fill="none" stroke="#63b8ff" d="M414.39,-302.66C428.73,-305.17 446.77,-309.68 461.25,-317.62 480.55,-328.21 478.19,-340.61 497.25,-351.62 504.25,-355.67 512,-359.09 519.84,-361.97"/>
<polygon fill="#63b8ff" stroke="#63b8ff" points="518.49,-365.21 529.08,-365.08 520.72,-358.57 518.49,-365.21"/>
</a>
</g>
</g>
<!-- Node25 -->
<g id="Node000025" class="node">
<title>Node25</title>
<g id="a_Node000025"><a xlink:href="../../d0/da3/_limiters_8cpp_a01ee9151d91c270729e4d9df0a89e287.html#a01ee9151d91c270729e4d9df0a89e287" target="_top" xlink:title="Computes the MinMod limiter for three input values and updates the result in the provided reference.">
<polygon fill="white" stroke="#666666" points="777.5,-422.25 727,-422.25 727,-403 777.5,-403 777.5,-422.25"/>
<text text-anchor="middle" x="752.25" y="-408.75" font-family="Helvetica,sans-Serif" font-size="10.00">MinMod</text>
</a>
</g>
</g>
<!-- Node24&#45;&gt;Node25 -->
<g id="edge28_Node000024_Node000025" class="edge">
<title>Node24&#45;&gt;Node25</title>
<g id="a_edge28_Node000024_Node000025"><a xlink:title=" ">
<path fill="none" stroke="#63b8ff" d="M626.34,-385.74C654.44,-391.78 689.59,-399.35 715.44,-404.92"/>
<polygon fill="#63b8ff" stroke="#63b8ff" points="714.61,-408.32 725.12,-407 716.08,-401.47 714.61,-408.32"/>
</a>
</g>
</g>
<!-- Node25&#45;&gt;Node12 -->
<g id="edge29_Node000025_Node000012" class="edge">
<title>Node25&#45;&gt;Node12</title>
<g id="a_edge29_Node000025_Node000012"><a xlink:title=" ">
<path fill="none" stroke="#63b8ff" d="M777.91,-406.68C801.9,-400.9 838.73,-392.02 866.88,-385.24"/>
<polygon fill="#63b8ff" stroke="#63b8ff" points="867.59,-388.66 876.49,-382.92 865.95,-381.86 867.59,-388.66"/>
</a>
</g>
</g>
<!-- Node25&#45;&gt;Node16 -->
<g id="edge30_Node000025_Node000016" class="edge">
<title>Node25&#45;&gt;Node16</title>
<g id="a_edge30_Node000025_Node000016"><a xlink:title=" ">
<path fill="none" stroke="#63b8ff" d="M777.91,-412.62C802.24,-412.62 839.77,-412.62 868.07,-412.62"/>
<polygon fill="#63b8ff" stroke="#63b8ff" points="868.05,-416.13 878.05,-412.63 868.05,-409.13 868.05,-416.13"/>
</a>
</g>
</g>
<!-- Node26&#45;&gt;Node12 -->
<g id="edge34_Node000026_Node000012" class="edge">
<title>Node26&#45;&gt;Node12</title>
<g id="a_edge34_Node000026_Node000012"><a xlink:title=" ">
<path fill="none" stroke="#63b8ff" d="M791.29,-440.18C797.45,-437.87 803.58,-435.04 809,-431.62 828.68,-419.22 825.14,-405.75 845,-393.62 851.72,-389.52 859.43,-386.31 867.07,-383.82"/>
<polygon fill="#63b8ff" stroke="#63b8ff" points="867.99,-387.19 876.63,-381.07 866.06,-380.47 867.99,-387.19"/>
</a>
</g>
</g>
<!-- Node26&#45;&gt;Node14 -->
<g id="edge32_Node000026_Node000014" class="edge">
<title>Node26&#45;&gt;Node14</title>
<g id="a_edge32_Node000026_Node000014"><a xlink:title=" ">
<path fill="none" stroke="#63b8ff" d="M791.19,-458.77C810.07,-463.32 833.2,-468.9 853.79,-473.86"/>
<polygon fill="#63b8ff" stroke="#63b8ff" points="852.91,-477.25 863.45,-476.19 854.55,-470.44 852.91,-477.25"/>
</a>
</g>
</g>
<!-- Node26&#45;&gt;Node15 -->
<g id="edge33_Node000026_Node000015" class="edge">
<title>Node26&#45;&gt;Node15</title>
<g id="a_edge33_Node000026_Node000015"><a xlink:title=" ">
<path fill="none" stroke="#63b8ff" d="M791.19,-449.62C812.59,-449.62 839.44,-449.62 861.88,-449.62"/>
<polygon fill="#63b8ff" stroke="#63b8ff" points="861.64,-453.13 871.64,-449.63 861.64,-446.13 861.64,-453.13"/>
</a>
</g>
</g>
<!-- Node26&#45;&gt;Node16 -->
<g id="edge35_Node000026_Node000016" class="edge">
<title>Node26&#45;&gt;Node16</title>
<g id="a_edge35_Node000026_Node000016"><a xlink:title=" ">
<path fill="none" stroke="#63b8ff" d="M791.19,-440.48C814.85,-434.78 845.17,-427.47 868.82,-421.77"/>
<polygon fill="#63b8ff" stroke="#63b8ff" points="869.46,-425.21 878.36,-419.47 867.82,-418.41 869.46,-425.21"/>
</a>
</g>
</g>
<!-- Node27&#45;&gt;Node18 -->
<g id="edge37_Node000027_Node000018" class="edge">
<title>Node27&#45;&gt;Node18</title>
<g id="a_edge37_Node000027_Node000018"><a xlink:title=" ">
<path fill="none" stroke="#63b8ff" d="M403.39,-420.6C418.12,-431.58 442.07,-450.02 461.25,-467.62 478.39,-483.36 477.02,-494.13 497.25,-505.62 499.6,-506.96 502.05,-508.2 504.56,-509.35"/>
<polygon fill="#63b8ff" stroke="#63b8ff" points="503.18,-512.57 513.77,-513 505.76,-506.06 503.18,-512.57"/>
</a>
</g>
</g>
<!-- Node27&#45;&gt;Node24 -->
<g id="edge38_Node000027_Node000024" class="edge">
<title>Node27&#45;&gt;Node24</title>
<g id="a_edge38_Node000027_Node000024"><a xlink:title=" ">
<path fill="none" stroke="#63b8ff" d="M444.02,-400.5C465.31,-396.53 489.94,-391.94 512.18,-387.79"/>
<polygon fill="#63b8ff" stroke="#63b8ff" points="512.55,-391.28 521.74,-386 511.27,-384.4 512.55,-391.28"/>
</a>
</g>
</g>
<!-- Node28&#45;&gt;Node20 -->
<g id="edge40_Node000028_Node000020" class="edge">
<title>Node28&#45;&gt;Node20</title>
<g id="a_edge40_Node000028_Node000020"><a xlink:title=" ">
<path fill="none" stroke="#63b8ff" d="M422.14,-378.64C434.79,-381.39 449.13,-385.53 461.25,-391.62 500.92,-411.59 539.26,-447.1 560.45,-468.6"/>
<polygon fill="#63b8ff" stroke="#63b8ff" points="557.67,-470.76 567.13,-475.52 562.7,-465.89 557.67,-470.76"/>
</a>
</g>
</g>
<!-- Node28&#45;&gt;Node24 -->
<g id="edge41_Node000028_Node000024" class="edge">
<title>Node28&#45;&gt;Node24</title>
<g id="a_edge41_Node000028_Node000024"><a xlink:title=" ">
<path fill="none" stroke="#63b8ff" d="M422,-373.97C446.25,-374.23 480.32,-374.59 510.39,-374.91"/>
<polygon fill="#63b8ff" stroke="#63b8ff" points="510.13,-378.41 520.17,-375.02 510.21,-371.41 510.13,-378.41"/>
</a>
</g>
</g>
<!-- Node29&#45;&gt;Node24 -->
<g id="edge43_Node000029_Node000024" class="edge">
<title>Node29&#45;&gt;Node24</title>
<g id="a_edge43_Node000029_Node000024"><a xlink:title=" ">
<path fill="none" stroke="#63b8ff" d="M417.03,-342.3C443.33,-347.76 484,-356.22 517.8,-363.24"/>
<polygon fill="#63b8ff" stroke="#63b8ff" points="516.98,-366.65 527.48,-365.25 518.41,-359.79 516.98,-366.65"/>
</a>
</g>
</g>
<!-- Node30&#45;&gt;Node5 -->
<g id="edge56_Node000030_Node000005" class="edge">
<title>Node30&#45;&gt;Node5</title>
<g id="a_edge56_Node000030_Node000005"><a xlink:title=" ">
<path fill="none" stroke="#63b8ff" d="M271.43,-279.53C288.51,-277.05 306.72,-274.4 323.54,-271.96"/>
<polygon fill="#63b8ff" stroke="#63b8ff" points="324.04,-275.42 333.44,-270.52 323.04,-268.49 324.04,-275.42"/>
</a>
</g>
</g>
<!-- Node31 -->
<g id="Node000031" class="node">
<title>Node31</title>
<g id="a_Node000031"><a xlink:href="../../d8/df4/_w_e_n_o2_d_8cpp_a27359f46a5902f1f50547f76408a48aa.html#a27359f46a5902f1f50547f76408a48aa" target="_top" xlink:title=" ">
<polygon fill="white" stroke="#666666" points="461.25,-139.25 316.25,-139.25 316.25,-120 461.25,-120 461.25,-139.25"/>
<text text-anchor="middle" x="388.75" y="-125.75" font-family="Helvetica,sans-Serif" font-size="10.00">Calculate_Face_WENO_Flux</text>
</a>
</g>
</g>
<!-- Node30&#45;&gt;Node31 -->
<g id="edge45_Node000030_Node000031" class="edge">
<title>Node30&#45;&gt;Node31</title>
<g id="a_edge45_Node000030_Node000031"><a xlink:title=" ">
<path fill="none" stroke="#63b8ff" d="M264.32,-279.59C269.93,-277.43 275.33,-274.81 280.25,-271.62 328.1,-240.65 362.79,-180.64 378.45,-149.49"/>
<polygon fill="#63b8ff" stroke="#63b8ff" points="381.46,-151.3 382.69,-140.78 375.16,-148.24 381.46,-151.3"/>
</a>
</g>
</g>
<!-- Node31&#45;&gt;Node12 -->
<g id="edge48_Node000031_Node000012" class="edge">
<title>Node31&#45;&gt;Node12</title>
<g id="a_edge48_Node000031_Node000012"><a xlink:title=" ">
<path fill="none" stroke="#63b8ff" d="M461.53,-135.1C566.49,-144.38 755.24,-166.22 809,-206.62 860.36,-245.23 889.26,-319.33 900.8,-355.19"/>
<polygon fill="#63b8ff" stroke="#63b8ff" points="897.32,-355.8 903.61,-364.33 904.01,-353.74 897.32,-355.8"/>
</a>
</g>
</g>
<!-- Node32 -->
<g id="Node000032" class="node">
<title>Node32</title>
<g id="a_Node000032"><a xlink:href="../../df/d43/_basic___functions_8cpp_a1c199e756f8458978961b4d9ab4cbe63.html#a1c199e756f8458978961b4d9ab4cbe63" target="_top" xlink:title=" ">
<polygon fill="white" stroke="#666666" points="628.75,-122.88 528,-122.88 528,-92.38 628.75,-92.38 628.75,-122.88"/>
<text text-anchor="start" x="536" y="-109.38" font-family="Helvetica,sans-Serif" font-size="10.00">Calculate_Primitive</text>
<text text-anchor="middle" x="578.38" y="-98.12" font-family="Helvetica,sans-Serif" font-size="10.00">_Variables</text>
</a>
</g>
</g>
<!-- Node31&#45;&gt;Node32 -->
<g id="edge46_Node000031_Node000032" class="edge">
<title>Node31&#45;&gt;Node32</title>
<g id="a_edge46_Node000031_Node000032"><a xlink:title=" ">
<path fill="none" stroke="#63b8ff" d="M461.49,-121.21C479.56,-119.09 498.8,-116.84 516.29,-114.79"/>
<polygon fill="#63b8ff" stroke="#63b8ff" points="516.49,-118.29 526.01,-113.65 515.67,-111.34 516.49,-118.29"/>
</a>
</g>
</g>
<!-- Node34 -->
<g id="Node000034" class="node">
<title>Node34</title>
<g id="a_Node000034"><a xlink:href="../../d8/df4/_w_e_n_o2_d_8cpp_a9ad30d54bcfdc4e146d0dff2d3c22cdb.html#a9ad30d54bcfdc4e146d0dff2d3c22cdb" target="_top" xlink:title=" ">
<polygon fill="white" stroke="#666666" points="643.75,-74.25 513,-74.25 513,-55 643.75,-55 643.75,-74.25"/>
<text text-anchor="middle" x="578.38" y="-60.75" font-family="Helvetica,sans-Serif" font-size="10.00">WENO_Reconstruction_X</text>
</a>
</g>
</g>
<!-- Node31&#45;&gt;Node34 -->
<g id="edge49_Node000031_Node000034" class="edge">
<title>Node31&#45;&gt;Node34</title>
<g id="a_edge49_Node000031_Node000034"><a xlink:title=" ">
<path fill="none" stroke="#63b8ff" d="M410.35,-119.55C431.69,-109.42 466.21,-93.86 497.25,-83.62 503.93,-81.42 511.01,-79.36 518.08,-77.47"/>
<polygon fill="#63b8ff" stroke="#63b8ff" points="518.83,-80.89 527.66,-75.03 517.1,-74.11 518.83,-80.89"/>
</a>
</g>
</g>
<!-- Node33 -->
<g id="Node000033" class="node">
<title>Node33</title>
<g id="a_Node000033"><a xlink:href="../../db/d81/_viscous___calculations_8cpp_ae9dc3225863fb110155bb3e9dea4e4d3.html#ae9dc3225863fb110155bb3e9dea4e4d3" target="_top" xlink:title=" ">
<polygon fill="white" stroke="#666666" points="780.5,-117.25 724,-117.25 724,-98 780.5,-98 780.5,-117.25"/>
<text text-anchor="middle" x="752.25" y="-103.75" font-family="Helvetica,sans-Serif" font-size="10.00">Viscosity</text>
</a>
</g>
</g>
<!-- Node32&#45;&gt;Node33 -->
<g id="edge47_Node000032_Node000033" class="edge">
<title>Node32&#45;&gt;Node33</title>
<g id="a_edge47_Node000032_Node000033"><a xlink:title=" ">
<path fill="none" stroke="#63b8ff" d="M629.09,-107.62C655.5,-107.62 687.5,-107.62 712.12,-107.62"/>
<polygon fill="#63b8ff" stroke="#63b8ff" points="712.05,-111.13 722.05,-107.63 712.05,-104.13 712.05,-111.13"/>
</a>
</g>
</g>
<!-- Node35 -->
<g id="Node000035" class="node">
<title>Node35</title>
<g id="a_Node000035"><a xlink:href="../../d8/df4/_w_e_n_o2_d_8cpp_a41800d52b7dfe3e64e37ea4c0abae5bb.html#a41800d52b7dfe3e64e37ea4c0abae5bb" target="_top" xlink:title=" ">
<polygon fill="white" stroke="#666666" points="809,-74.25 695.5,-74.25 695.5,-55 809,-55 809,-74.25"/>
<text text-anchor="middle" x="752.25" y="-60.75" font-family="Helvetica,sans-Serif" font-size="10.00">Get_Reconstructed_U</text>
</a>
</g>
</g>
<!-- Node34&#45;&gt;Node35 -->
<g id="edge50_Node000034_Node000035" class="edge">
<title>Node34&#45;&gt;Node35</title>
<g id="a_edge50_Node000034_Node000035"><a xlink:title=" ">
<path fill="none" stroke="#63b8ff" d="M643.86,-64.62C656.9,-64.62 670.65,-64.62 683.79,-64.62"/>
<polygon fill="#63b8ff" stroke="#63b8ff" points="683.63,-68.13 693.63,-64.63 683.63,-61.13 683.63,-68.13"/>
</a>
</g>
</g>
<!-- Node36 -->
<g id="Node000036" class="node">
<title>Node36</title>
<g id="a_Node000036"><a xlink:href="../../df/d43/_basic___functions_8cpp_a9ca12fb8f920cab38313323cf0c4bf53.html#a9ca12fb8f920cab38313323cf0c4bf53" target="_top" xlink:title=" ">
<polygon fill="white" stroke="#666666" points="970.5,-141.88 845,-141.88 845,-111.38 970.5,-111.38 970.5,-141.88"/>
<text text-anchor="start" x="853" y="-128.38" font-family="Helvetica,sans-Serif" font-size="10.00">Calculate_Computational</text>
<text text-anchor="middle" x="907.75" y="-117.12" font-family="Helvetica,sans-Serif" font-size="10.00">_Variables</text>
</a>
</g>
</g>
<!-- Node35&#45;&gt;Node36 -->
<g id="edge51_Node000035_Node000036" class="edge">
<title>Node35&#45;&gt;Node36</title>
<g id="a_edge51_Node000035_Node000036"><a xlink:title=" ">
<path fill="none" stroke="#63b8ff" d="M776.95,-74.61C795.45,-82.36 821.8,-93.31 845,-102.62 848.42,-104 851.94,-105.4 855.5,-106.81"/>
<polygon fill="#63b8ff" stroke="#63b8ff" points="854.18,-110.05 864.77,-110.45 856.74,-103.53 854.18,-110.05"/>
</a>
</g>
</g>
<!-- Node37 -->
<g id="Node000037" class="node">
<title>Node37</title>
<g id="a_Node000037"><a xlink:href="../../d8/df4/_w_e_n_o2_d_8cpp_aa7f9c038358ea3a8da0d6b64375a017d.html#aa7f9c038358ea3a8da0d6b64375a017d" target="_top" xlink:title=" ">
<polygon fill="white" stroke="#666666" points="932.62,-93.25 882.88,-93.25 882.88,-74 932.62,-74 932.62,-93.25"/>
<text text-anchor="middle" x="907.75" y="-79.75" font-family="Helvetica,sans-Serif" font-size="10.00">Get_LR</text>
</a>
</g>
</g>
<!-- Node35&#45;&gt;Node37 -->
<g id="edge52_Node000035_Node000037" class="edge">
<title>Node35&#45;&gt;Node37</title>
<g id="a_edge52_Node000035_Node000037"><a xlink:title=" ">
<path fill="none" stroke="#63b8ff" d="M809.1,-71.54C829.77,-74.1 852.64,-76.93 871.04,-79.21"/>
<polygon fill="#63b8ff" stroke="#63b8ff" points="870.57,-82.67 880.92,-80.43 871.43,-75.73 870.57,-82.67"/>
</a>
</g>
</g>
<!-- Node38 -->
<g id="Node000038" class="node">
<title>Node38</title>
<g id="a_Node000038"><a xlink:href="../../d8/df4/_w_e_n_o2_d_8cpp_a3c4047d6325a39e8fccf21bc4ded25ce.html#a3c4047d6325a39e8fccf21bc4ded25ce" target="_top" xlink:title=" ">
<polygon fill="white" stroke="#666666" points="940.5,-56.25 875,-56.25 875,-37 940.5,-37 940.5,-56.25"/>
<text text-anchor="middle" x="907.75" y="-42.75" font-family="Helvetica,sans-Serif" font-size="10.00">MatVecMul</text>
</a>
</g>
</g>
<!-- Node35&#45;&gt;Node38 -->
<g id="edge53_Node000035_Node000038" class="edge">
<title>Node35&#45;&gt;Node38</title>
<g id="a_edge53_Node000035_Node000038"><a xlink:title=" ">
<path fill="none" stroke="#63b8ff" d="M809.1,-58.08C827.07,-55.97 846.69,-53.67 863.61,-51.68"/>
<polygon fill="#63b8ff" stroke="#63b8ff" points="863.8,-55.19 873.32,-50.54 862.98,-48.23 863.8,-55.19"/>
</a>
</g>
</g>
<!-- Node40 -->
<g id="Node000040" class="node">
<title>Node40</title>
<g id="a_Node000040"><a xlink:href="../../d8/df4/_w_e_n_o2_d_8cpp_a95c88b19ac9f25947b58f960364ce579.html#a95c88b19ac9f25947b58f960364ce579" target="_top" xlink:title=" ">
<polygon fill="white" stroke="#666666" points="967.12,-19.25 848.38,-19.25 848.38,0 967.12,0 967.12,-19.25"/>
<text text-anchor="middle" x="907.75" y="-5.75" font-family="Helvetica,sans-Serif" font-size="10.00">WENO_Reconstruction</text>
</a>
</g>
</g>
<!-- Node35&#45;&gt;Node40 -->
<g id="edge55_Node000035_Node000040" class="edge">
<title>Node35&#45;&gt;Node40</title>
<g id="a_edge55_Node000035_Node000040"><a xlink:title=" ">
<path fill="none" stroke="#63b8ff" d="M776.39,-54.55C794.8,-46.71 821.31,-35.83 845,-27.62 849.51,-26.06 854.24,-24.52 858.98,-23.03"/>
<polygon fill="#63b8ff" stroke="#63b8ff" points="859.99,-26.38 868.54,-20.13 857.96,-19.69 859.99,-26.38"/>
</a>
</g>
</g>
<!-- Node39 -->
<g id="Node000039" class="node">
<title>Node39</title>
<g id="a_Node000039"><a xlink:href="../../d3/d82/_c_type___elliptic___grid_8cpp_a9d9acf133a5b966f0cbd16a2c57a7d79.html#a9d9acf133a5b966f0cbd16a2c57a7d79" target="_top" xlink:title=" ">
<polygon fill="white" stroke="#666666" points="1035.3,-56.25 1006.5,-56.25 1006.5,-37 1035.3,-37 1035.3,-56.25"/>
<text text-anchor="middle" x="1020.9" y="-42.75" font-family="Helvetica,sans-Serif" font-size="10.00">x</text>
</a>
</g>
</g>
<!-- Node38&#45;&gt;Node39 -->
<g id="edge54_Node000038_Node000039" class="edge">
<title>Node38&#45;&gt;Node39</title>
<g id="a_edge54_Node000038_Node000039"><a xlink:title=" ">
<path fill="none" stroke="#63b8ff" d="M940.9,-46.62C958.17,-46.62 979.13,-46.62 995.12,-46.62"/>
<polygon fill="#63b8ff" stroke="#63b8ff" points="994.72,-50.13 1004.72,-46.63 994.72,-43.13 994.72,-50.13"/>
</a>
</g>
</g>
</g>
</svg>
