<?xml version="1.0" encoding="UTF-8" standalone="no"?>
<!DOCTYPE svg PUBLIC "-//W3C//DTD SVG 1.1//EN"
 "http://www.w3.org/Graphics/SVG/1.1/DTD/svg11.dtd">
<!-- Generated by graphviz version 12.2.1 (20241206.2353)
 -->
<!-- Title: Apply_Turbulence_Symmetry_BC Pages: 1 -->
<svg width="1039pt" height="211pt"
 viewBox="0.00 0.00 1039.25 210.50" xmlns="http://www.w3.org/2000/svg" xmlns:xlink="http://www.w3.org/1999/xlink">
<g id="graph0" class="graph" transform="scale(1 1) rotate(0) translate(4 206.5)">
<title>Apply_Turbulence_Symmetry_BC</title>
<!-- Node1 -->
<g id="Node000001" class="node">
<title>Node1</title>
<g id="a_Node000001"><a xlink:title="Apply turbulence symmetry boundary conditions.">
<polygon fill="#999999" stroke="#666666" points="163.75,-64.88 0,-64.88 0,-45.62 163.75,-45.62 163.75,-64.88"/>
<text text-anchor="middle" x="81.88" y="-51.38" font-family="Helvetica,sans-Serif" font-size="10.00">Apply_Turbulence_Symmetry_BC</text>
</a>
</g>
</g>
<!-- Node2 -->
<g id="Node000002" class="node">
<title>Node2</title>
<g id="a_Node000002"><a xlink:href="../../da/d71/_k___epsilon___model_8cpp_a80bd2fbc9eee5585491d30c17bd73b77.html#a80bd2fbc9eee5585491d30c17bd73b77" target="_top" xlink:title="Calculate turbulent viscosity using K&#45;epsilon model.">
<polygon fill="white" stroke="#666666" points="326.75,-70.5 219.25,-70.5 219.25,-40 326.75,-40 326.75,-70.5"/>
<text text-anchor="start" x="227.25" y="-57" font-family="Helvetica,sans-Serif" font-size="10.00">Calculate_KEpsilon</text>
<text text-anchor="middle" x="273" y="-45.75" font-family="Helvetica,sans-Serif" font-size="10.00">_Turbulent_Viscosity</text>
</a>
</g>
</g>
<!-- Node1&#45;&gt;Node2 -->
<g id="edge1_Node000001_Node000002" class="edge">
<title>Node1&#45;&gt;Node2</title>
<g id="a_edge1_Node000001_Node000002"><a xlink:title=" ">
<path fill="none" stroke="#63b8ff" d="M164.18,-55.25C178.65,-55.25 193.54,-55.25 207.46,-55.25"/>
<polygon fill="#63b8ff" stroke="#63b8ff" points="207.39,-58.75 217.39,-55.25 207.39,-51.75 207.39,-58.75"/>
</a>
</g>
</g>
<!-- Node7 -->
<g id="Node000007" class="node">
<title>Node7</title>
<g id="a_Node000007"><a xlink:href="../../da/db6/_k___omega___model_8cpp_acbb6eb3b6b7d60663920ef36f7442e10.html#acbb6eb3b6b7d60663920ef36f7442e10" target="_top" xlink:title="Calculate turbulent viscosity using K&#45;omega model.">
<polygon fill="white" stroke="#666666" points="346.25,-119.5 199.75,-119.5 199.75,-89 346.25,-89 346.25,-119.5"/>
<text text-anchor="start" x="207.75" y="-106" font-family="Helvetica,sans-Serif" font-size="10.00">Calculate_KOmega_Turbulent</text>
<text text-anchor="middle" x="273" y="-94.75" font-family="Helvetica,sans-Serif" font-size="10.00">_Viscosity</text>
</a>
</g>
</g>
<!-- Node1&#45;&gt;Node7 -->
<g id="edge6_Node000001_Node000007" class="edge">
<title>Node1&#45;&gt;Node7</title>
<g id="a_edge6_Node000001_Node000007"><a xlink:title=" ">
<path fill="none" stroke="#63b8ff" d="M121.6,-65.28C144.3,-71.17 173.69,-78.78 200.46,-85.72"/>
<polygon fill="#63b8ff" stroke="#63b8ff" points="199.33,-89.04 209.89,-88.16 201.08,-82.26 199.33,-89.04"/>
</a>
</g>
</g>
<!-- Node14 -->
<g id="Node000014" class="node">
<title>Node14</title>
<g id="a_Node000014"><a xlink:href="../../d5/d65/_turbulence___models_8cpp_a0ede160602a42dd3fe50b1b74682ea87.html#a0ede160602a42dd3fe50b1b74682ea87" target="_top" xlink:title="Find interior neighbor of a boundary cell.">
<polygon fill="white" stroke="#666666" points="330.12,-21.88 215.88,-21.88 215.88,-2.62 330.12,-2.62 330.12,-21.88"/>
<text text-anchor="middle" x="273" y="-8.38" font-family="Helvetica,sans-Serif" font-size="10.00">Find_Interior_Neighbor</text>
</a>
</g>
</g>
<!-- Node1&#45;&gt;Node14 -->
<g id="edge17_Node000001_Node000014" class="edge">
<title>Node1&#45;&gt;Node14</title>
<g id="a_edge17_Node000001_Node000014"><a xlink:title=" ">
<path fill="none" stroke="#63b8ff" d="M127.22,-45.17C153.91,-39.1 188.14,-31.32 216.61,-24.84"/>
<polygon fill="#63b8ff" stroke="#63b8ff" points="217.16,-28.31 226.13,-22.68 215.61,-21.48 217.16,-28.31"/>
</a>
</g>
</g>
<!-- Node3 -->
<g id="Node000003" class="node">
<title>Node3</title>
<g id="a_Node000003"><a xlink:href="../../da/d71/_k___epsilon___model_8cpp_ab6081c548f15e5cff5f3a7f797726bd0.html#ab6081c548f15e5cff5f3a7f797726bd0" target="_top" xlink:title="Calculate laminar viscosity for a given cell.">
<polygon fill="white" stroke="#666666" points="863,-153.88 720.25,-153.88 720.25,-134.62 863,-134.62 863,-153.88"/>
<text text-anchor="middle" x="791.62" y="-140.38" font-family="Helvetica,sans-Serif" font-size="10.00">Calculate_Laminar_Viscosity</text>
</a>
</g>
</g>
<!-- Node2&#45;&gt;Node3 -->
<g id="edge2_Node000002_Node000003" class="edge">
<title>Node2&#45;&gt;Node3</title>
<g id="a_edge2_Node000002_Node000003"><a xlink:title=" ">
<path fill="none" stroke="#63b8ff" d="M326.99,-49.76C406.65,-43.35 561.05,-38.08 684.25,-77.25 717.14,-87.71 749.98,-110.81 770.29,-126.94"/>
<polygon fill="#63b8ff" stroke="#63b8ff" points="768.07,-129.65 778.02,-133.26 772.49,-124.22 768.07,-129.65"/>
</a>
</g>
</g>
<!-- Node4 -->
<g id="Node000004" class="node">
<title>Node4</title>
<g id="a_Node000004"><a xlink:href="../../da/d71/_k___epsilon___model_8cpp_a4ac5abbc0be034b167174ed0e6ea5814.html#a4ac5abbc0be034b167174ed0e6ea5814" target="_top" xlink:title="Calculate strain rate magnitude for a given cell.">
<polygon fill="white" stroke="#666666" points="510,-30.5 395.75,-30.5 395.75,0 510,0 510,-30.5"/>
<text text-anchor="start" x="403.75" y="-17" font-family="Helvetica,sans-Serif" font-size="10.00">Calculate_Strain_Rate</text>
<text text-anchor="middle" x="452.88" y="-5.75" font-family="Helvetica,sans-Serif" font-size="10.00">_Magnitude</text>
</a>
</g>
</g>
<!-- Node2&#45;&gt;Node4 -->
<g id="edge3_Node000002_Node000004" class="edge">
<title>Node2&#45;&gt;Node4</title>
<g id="a_edge3_Node000002_Node000004"><a xlink:title=" ">
<path fill="none" stroke="#63b8ff" d="M326.89,-43.36C344.95,-39.3 365.4,-34.7 384.45,-30.41"/>
<polygon fill="#63b8ff" stroke="#63b8ff" points="385.01,-33.87 394,-28.26 383.48,-27.04 385.01,-33.87"/>
</a>
</g>
</g>
<!-- Node5 -->
<g id="Node000005" class="node">
<title>Node5</title>
<g id="a_Node000005"><a xlink:href="../../d5/d65/_turbulence___models_8cpp_abcf5967a793b905ba24e0b6f02859f52.html#abcf5967a793b905ba24e0b6f02859f52" target="_top" xlink:title="Calculate strain rate tensor for a given cell.">
<polygon fill="white" stroke="#666666" points="679,-30.5 564.75,-30.5 564.75,0 679,0 679,-30.5"/>
<text text-anchor="start" x="572.75" y="-17" font-family="Helvetica,sans-Serif" font-size="10.00">Calculate_Strain_Rate</text>
<text text-anchor="middle" x="621.88" y="-5.75" font-family="Helvetica,sans-Serif" font-size="10.00">_Tensor</text>
</a>
</g>
</g>
<!-- Node4&#45;&gt;Node5 -->
<g id="edge4_Node000004_Node000005" class="edge">
<title>Node4&#45;&gt;Node5</title>
<g id="a_edge4_Node000004_Node000005"><a xlink:title=" ">
<path fill="none" stroke="#63b8ff" d="M510.41,-15.25C524.15,-15.25 538.98,-15.25 553.18,-15.25"/>
<polygon fill="#63b8ff" stroke="#63b8ff" points="552.88,-18.75 562.88,-15.25 552.88,-11.75 552.88,-18.75"/>
</a>
</g>
</g>
<!-- Node6 -->
<g id="Node000006" class="node">
<title>Node6</title>
<g id="a_Node000006"><a xlink:href="../../d5/db2/class_vector_a2ce47a84fc19c32a26ada5a3379c3f0a.html#a2ce47a84fc19c32a26ada5a3379c3f0a" target="_top" xlink:title=" ">
<polygon fill="white" stroke="#666666" points="852.5,-67.88 730.75,-67.88 730.75,-48.62 852.5,-48.62 852.5,-67.88"/>
<text text-anchor="middle" x="791.62" y="-54.38" font-family="Helvetica,sans-Serif" font-size="10.00">Vector::Get_Component</text>
</a>
</g>
</g>
<!-- Node5&#45;&gt;Node6 -->
<g id="edge5_Node000005_Node000006" class="edge">
<title>Node5&#45;&gt;Node6</title>
<g id="a_edge5_Node000005_Node000006"><a xlink:title=" ">
<path fill="none" stroke="#63b8ff" d="M679.2,-29.69C698.93,-34.75 720.95,-40.39 740.17,-45.32"/>
<polygon fill="#63b8ff" stroke="#63b8ff" points="739.11,-48.66 749.66,-47.75 740.85,-41.88 739.11,-48.66"/>
</a>
</g>
</g>
<!-- Node7&#45;&gt;Node3 -->
<g id="edge7_Node000007_Node000003" class="edge">
<title>Node7&#45;&gt;Node3</title>
<g id="a_edge7_Node000007_Node000003"><a xlink:title=" ">
<path fill="none" stroke="#63b8ff" d="M346.56,-119.83C358.44,-121.94 370.65,-123.86 382.25,-125.25 494.82,-138.72 625.91,-142.77 708.57,-143.92"/>
<polygon fill="#63b8ff" stroke="#63b8ff" points="708.35,-147.42 718.4,-144.05 708.44,-140.42 708.35,-147.42"/>
</a>
</g>
</g>
<!-- Node7&#45;&gt;Node4 -->
<g id="edge13_Node000007_Node000004" class="edge">
<title>Node7&#45;&gt;Node4</title>
<g id="a_edge13_Node000007_Node000004"><a xlink:title=" ">
<path fill="none" stroke="#63b8ff" d="M323.91,-88.53C331.5,-85.7 339.16,-82.58 346.25,-79.25 371.94,-67.19 399.29,-50.5 419.73,-37.18"/>
<polygon fill="#63b8ff" stroke="#63b8ff" points="421.49,-40.21 427.9,-31.78 417.63,-34.37 421.49,-40.21"/>
</a>
</g>
</g>
<!-- Node8 -->
<g id="Node000008" class="node">
<title>Node8</title>
<g id="a_Node000008"><a xlink:href="../../da/db6/_k___omega___model_8cpp_a133b20f2fbde5fe32f3bf8da3734a3df.html#a133b20f2fbde5fe32f3bf8da3734a3df" target="_top" xlink:title="Calculate F2 blending function for SST turbulent viscosity.">
<polygon fill="white" stroke="#666666" points="523.5,-193.88 382.25,-193.88 382.25,-174.62 523.5,-174.62 523.5,-193.88"/>
<text text-anchor="middle" x="452.88" y="-180.38" font-family="Helvetica,sans-Serif" font-size="10.00">Calculate_SST_F2_Function</text>
</a>
</g>
</g>
<!-- Node7&#45;&gt;Node8 -->
<g id="edge8_Node000007_Node000008" class="edge">
<title>Node7&#45;&gt;Node8</title>
<g id="a_edge8_Node000007_Node000008"><a xlink:title=" ">
<path fill="none" stroke="#63b8ff" d="M303.01,-119.76C324.58,-131.05 354.9,-146.36 382.25,-158.25 391.79,-162.4 402.23,-166.51 412.06,-170.2"/>
<polygon fill="#63b8ff" stroke="#63b8ff" points="410.8,-173.47 421.39,-173.65 413.22,-166.9 410.8,-173.47"/>
</a>
</g>
</g>
<!-- Node12 -->
<g id="Node000012" class="node">
<title>Node12</title>
<g id="a_Node000012"><a xlink:href="../../da/db6/_k___omega___model_8cpp_af1e41ac929a629cbe45c3c594b4f972e.html#af1e41ac929a629cbe45c3c594b4f972e" target="_top" xlink:title="Calculate vorticity magnitude for SST model.">
<polygon fill="white" stroke="#666666" points="502.12,-116.5 403.62,-116.5 403.62,-86 502.12,-86 502.12,-116.5"/>
<text text-anchor="start" x="411.62" y="-103" font-family="Helvetica,sans-Serif" font-size="10.00">Calculate_Vorticity</text>
<text text-anchor="middle" x="452.88" y="-91.75" font-family="Helvetica,sans-Serif" font-size="10.00">_Magnitude</text>
</a>
</g>
</g>
<!-- Node7&#45;&gt;Node12 -->
<g id="edge14_Node000007_Node000012" class="edge">
<title>Node7&#45;&gt;Node12</title>
<g id="a_edge14_Node000007_Node000012"><a xlink:title=" ">
<path fill="none" stroke="#63b8ff" d="M346.61,-103.03C361.69,-102.77 377.42,-102.51 391.99,-102.26"/>
<polygon fill="#63b8ff" stroke="#63b8ff" points="391.93,-105.76 401.87,-102.09 391.81,-98.76 391.93,-105.76"/>
</a>
</g>
</g>
<!-- Node9 -->
<g id="Node000009" class="node">
<title>Node9</title>
<g id="a_Node000009"><a xlink:href="../../da/db6/_k___omega___model_8cpp_a31b6758cb80b88340974998c3c5361e2.html#a31b6758cb80b88340974998c3c5361e2" target="_top" xlink:title="Calculate SST blending functions F1 and F2.">
<polygon fill="white" stroke="#666666" points="684.25,-202.5 559.5,-202.5 559.5,-172 684.25,-172 684.25,-202.5"/>
<text text-anchor="start" x="567.5" y="-189" font-family="Helvetica,sans-Serif" font-size="10.00">Calculate_SST_Blending</text>
<text text-anchor="middle" x="621.88" y="-177.75" font-family="Helvetica,sans-Serif" font-size="10.00">_Functions</text>
</a>
</g>
</g>
<!-- Node8&#45;&gt;Node9 -->
<g id="edge9_Node000008_Node000009" class="edge">
<title>Node8&#45;&gt;Node9</title>
<g id="a_edge9_Node000008_Node000009"><a xlink:title=" ">
<path fill="none" stroke="#63b8ff" d="M523.73,-185.5C531.6,-185.65 539.63,-185.79 547.54,-185.93"/>
<polygon fill="#63b8ff" stroke="#63b8ff" points="547.43,-189.43 557.49,-186.11 547.56,-182.43 547.43,-189.43"/>
</a>
</g>
</g>
<!-- Node9&#45;&gt;Node3 -->
<g id="edge10_Node000009_Node000003" class="edge">
<title>Node9&#45;&gt;Node3</title>
<g id="a_edge10_Node000009_Node000003"><a xlink:title=" ">
<path fill="none" stroke="#63b8ff" d="M683.91,-171.6C702.44,-166.85 722.58,-161.69 740.32,-157.14"/>
<polygon fill="#63b8ff" stroke="#63b8ff" points="741.02,-160.58 749.84,-154.7 739.29,-153.8 741.02,-160.58"/>
</a>
</g>
</g>
<!-- Node10 -->
<g id="Node000010" class="node">
<title>Node10</title>
<g id="a_Node000010"><a xlink:href="../../da/db6/_k___omega___model_8cpp_a7fa3fb752505082634dc5acc883aa464.html#a7fa3fb752505082634dc5acc883aa464" target="_top" xlink:title="Calculate cross&#45;diffusion term for SST model.">
<polygon fill="white" stroke="#666666" points="848.38,-202.5 734.88,-202.5 734.88,-172 848.38,-172 848.38,-202.5"/>
<text text-anchor="start" x="742.88" y="-189" font-family="Helvetica,sans-Serif" font-size="10.00">Calculate_SST_Cross</text>
<text text-anchor="middle" x="791.62" y="-177.75" font-family="Helvetica,sans-Serif" font-size="10.00">_Diffusion</text>
</a>
</g>
</g>
<!-- Node9&#45;&gt;Node10 -->
<g id="edge11_Node000009_Node000010" class="edge">
<title>Node9&#45;&gt;Node10</title>
<g id="a_edge11_Node000009_Node000010"><a xlink:title=" ">
<path fill="none" stroke="#63b8ff" d="M684.39,-187.25C696.91,-187.25 710.16,-187.25 722.89,-187.25"/>
<polygon fill="#63b8ff" stroke="#63b8ff" points="722.89,-190.75 732.89,-187.25 722.89,-183.75 722.89,-190.75"/>
</a>
</g>
</g>
<!-- Node11 -->
<g id="Node000011" class="node">
<title>Node11</title>
<g id="a_Node000011"><a xlink:href="../../da/db6/_k___omega___model_8cpp_a7584c2aad761764bf65ccb3e3839a480.html#a7584c2aad761764bf65ccb3e3839a480" target="_top" xlink:title="Calculate scalar gradient for a given variable.">
<polygon fill="white" stroke="#666666" points="1031.25,-196.88 899,-196.88 899,-177.62 1031.25,-177.62 1031.25,-196.88"/>
<text text-anchor="middle" x="965.12" y="-183.38" font-family="Helvetica,sans-Serif" font-size="10.00">Calculate_Scalar_Gradient</text>
</a>
</g>
</g>
<!-- Node10&#45;&gt;Node11 -->
<g id="edge12_Node000010_Node000011" class="edge">
<title>Node10&#45;&gt;Node11</title>
<g id="a_edge12_Node000010_Node000011"><a xlink:title=" ">
<path fill="none" stroke="#63b8ff" d="M848.78,-187.25C861.1,-187.25 874.34,-187.25 887.31,-187.25"/>
<polygon fill="#63b8ff" stroke="#63b8ff" points="887.09,-190.75 897.09,-187.25 887.09,-183.75 887.09,-190.75"/>
</a>
</g>
</g>
<!-- Node13 -->
<g id="Node000013" class="node">
<title>Node13</title>
<g id="a_Node000013"><a xlink:href="../../d5/d65/_turbulence___models_8cpp_a7682b4426768f92eca578dc8f7c68db3.html#a7682b4426768f92eca578dc8f7c68db3" target="_top" xlink:title="Calculate vorticity tensor for a given cell.">
<polygon fill="white" stroke="#666666" points="671.12,-116.5 572.62,-116.5 572.62,-86 671.12,-86 671.12,-116.5"/>
<text text-anchor="start" x="580.62" y="-103" font-family="Helvetica,sans-Serif" font-size="10.00">Calculate_Vorticity</text>
<text text-anchor="middle" x="621.88" y="-91.75" font-family="Helvetica,sans-Serif" font-size="10.00">_Tensor</text>
</a>
</g>
</g>
<!-- Node12&#45;&gt;Node13 -->
<g id="edge15_Node000012_Node000013" class="edge">
<title>Node12&#45;&gt;Node13</title>
<g id="a_edge15_Node000012_Node000013"><a xlink:title=" ">
<path fill="none" stroke="#63b8ff" d="M502.18,-101.25C520.53,-101.25 541.66,-101.25 560.96,-101.25"/>
<polygon fill="#63b8ff" stroke="#63b8ff" points="560.88,-104.75 570.88,-101.25 560.88,-97.75 560.88,-104.75"/>
</a>
</g>
</g>
<!-- Node13&#45;&gt;Node6 -->
<g id="edge16_Node000013_Node000006" class="edge">
<title>Node13&#45;&gt;Node6</title>
<g id="a_edge16_Node000013_Node000006"><a xlink:title=" ">
<path fill="none" stroke="#63b8ff" d="M671.4,-88.81C692.98,-83.28 718.4,-76.76 740.2,-71.17"/>
<polygon fill="#63b8ff" stroke="#63b8ff" points="740.95,-74.6 749.77,-68.72 739.22,-67.81 740.95,-74.6"/>
</a>
</g>
</g>
</g>
</svg>
