<?xml version="1.0" encoding="UTF-8" standalone="no"?>
<!DOCTYPE svg PUBLIC "-//W3C//DTD SVG 1.1//EN"
 "http://www.w3.org/Graphics/SVG/1.1/DTD/svg11.dtd">
<!-- Generated by graphviz version 12.2.1 (20241206.2353)
 -->
<!-- Title: Is_Wall_Cell Pages: 1 -->
<svg width="212pt" height="101pt"
 viewBox="0.00 0.00 211.75 101.25" xmlns="http://www.w3.org/2000/svg" xmlns:xlink="http://www.w3.org/1999/xlink">
<g id="graph0" class="graph" transform="scale(1 1) rotate(0) translate(4 97.25)">
<title>Is_Wall_Cell</title>
<!-- Node1 -->
<g id="Node000001" class="node">
<title>Node1</title>
<g id="a_Node000001"><a xlink:title="Check if cell is a wall cell.">
<polygon fill="#999999" stroke="#666666" points="70.75,-56.25 0,-56.25 0,-37 70.75,-37 70.75,-56.25"/>
<text text-anchor="middle" x="35.38" y="-42.75" font-family="Helvetica,sans-Serif" font-size="10.00">Is_Wall_Cell</text>
</a>
</g>
</g>
<!-- Node2 -->
<g id="Node000002" class="node">
<title>Node2</title>
<g id="a_Node000002"><a xlink:href="../../d5/d65/_turbulence___models_8cpp_a36015a1d78c328d150c8303b7e2e15ba.html#a36015a1d78c328d150c8303b7e2e15ba" target="_top" xlink:title="Check if cell is an inlet cell.">
<polygon fill="white" stroke="#666666" points="190.62,-93.25 119.88,-93.25 119.88,-74 190.62,-74 190.62,-93.25"/>
<text text-anchor="middle" x="155.25" y="-79.75" font-family="Helvetica,sans-Serif" font-size="10.00">Is_Inlet_Cell</text>
</a>
</g>
</g>
<!-- Node1&#45;&gt;Node2 -->
<g id="edge1_Node000001_Node000002" class="edge">
<title>Node1&#45;&gt;Node2</title>
<g id="a_edge1_Node000001_Node000002"><a xlink:title=" ">
<path fill="none" stroke="#63b8ff" d="M68.58,-56.74C81.71,-60.85 97.08,-65.68 111.14,-70.09"/>
<polygon fill="#63b8ff" stroke="#63b8ff" points="110.05,-73.42 120.64,-73.07 112.14,-66.74 110.05,-73.42"/>
</a>
</g>
</g>
<!-- Node3 -->
<g id="Node000003" class="node">
<title>Node3</title>
<g id="a_Node000003"><a xlink:href="../../d5/d65/_turbulence___models_8cpp_a8d8d07d013acc5542e2f52aa7ec8718b.html#a8d8d07d013acc5542e2f52aa7ec8718b" target="_top" xlink:title="Check if cell is an outlet cell.">
<polygon fill="white" stroke="#666666" points="194.38,-56.25 116.12,-56.25 116.12,-37 194.38,-37 194.38,-56.25"/>
<text text-anchor="middle" x="155.25" y="-42.75" font-family="Helvetica,sans-Serif" font-size="10.00">Is_Outlet_Cell</text>
</a>
</g>
</g>
<!-- Node1&#45;&gt;Node3 -->
<g id="edge2_Node000001_Node000003" class="edge">
<title>Node1&#45;&gt;Node3</title>
<g id="a_edge2_Node000001_Node000003"><a xlink:title=" ">
<path fill="none" stroke="#63b8ff" d="M71.1,-46.62C81.49,-46.62 93.08,-46.62 104.24,-46.62"/>
<polygon fill="#63b8ff" stroke="#63b8ff" points="104.13,-50.13 114.13,-46.63 104.13,-43.13 104.13,-50.13"/>
</a>
</g>
</g>
<!-- Node4 -->
<g id="Node000004" class="node">
<title>Node4</title>
<g id="a_Node000004"><a xlink:href="../../d5/d65/_turbulence___models_8cpp_ac39a52de4b4bc4ad098fcd0d297deff3.html#ac39a52de4b4bc4ad098fcd0d297deff3" target="_top" xlink:title="Check if cell is a symmetry cell.">
<polygon fill="white" stroke="#666666" points="203.75,-19.25 106.75,-19.25 106.75,0 203.75,0 203.75,-19.25"/>
<text text-anchor="middle" x="155.25" y="-5.75" font-family="Helvetica,sans-Serif" font-size="10.00">Is_Symmetry_Cell</text>
</a>
</g>
</g>
<!-- Node1&#45;&gt;Node4 -->
<g id="edge3_Node000001_Node000004" class="edge">
<title>Node1&#45;&gt;Node4</title>
<g id="a_edge3_Node000001_Node000004"><a xlink:title=" ">
<path fill="none" stroke="#63b8ff" d="M68.58,-36.51C81.71,-32.4 97.08,-27.57 111.14,-23.16"/>
<polygon fill="#63b8ff" stroke="#63b8ff" points="112.14,-26.51 120.64,-20.18 110.05,-19.83 112.14,-26.51"/>
</a>
</g>
</g>
</g>
</svg>
