<?xml version="1.0" encoding="UTF-8" standalone="no"?>
<!DOCTYPE svg PUBLIC "-//W3C//DTD SVG 1.1//EN"
 "http://www.w3.org/Graphics/SVG/1.1/DTD/svg11.dtd">
<!-- Generated by graphviz version 12.2.1 (20241206.2353)
 -->
<!-- Title: Apply_Turbulence_Inlet_BC Pages: 1 -->
<svg width="1178pt" height="234pt"
 viewBox="0.00 0.00 1177.50 234.49" xmlns="http://www.w3.org/2000/svg" xmlns:xlink="http://www.w3.org/1999/xlink">
<g id="graph0" class="graph" transform="scale(1 1) rotate(0) translate(4 230.49)">
<title>Apply_Turbulence_Inlet_BC</title>
<!-- Node1 -->
<g id="Node000001" class="node">
<title>Node1</title>
<g id="a_Node000001"><a xlink:title="Apply turbulence inlet boundary conditions.">
<polygon fill="#999999" stroke="#666666" points="137.5,-184.88 0,-184.88 0,-165.62 137.5,-165.62 137.5,-184.88"/>
<text text-anchor="middle" x="68.75" y="-171.38" font-family="Helvetica,sans-Serif" font-size="10.00">Apply_Turbulence_Inlet_BC</text>
</a>
</g>
</g>
<!-- Node2 -->
<g id="Node000002" class="node">
<title>Node2</title>
<g id="a_Node000002"><a xlink:href="../../da/d71/_k___epsilon___model_8cpp_a9b3a5337109b34589068a9866d726800.html#a9b3a5337109b34589068a9866d726800" target="_top" xlink:title="Apply inlet boundary conditions for K&#45;epsilon model.">
<polygon fill="white" stroke="#666666" points="302,-206.88 173.5,-206.88 173.5,-187.62 302,-187.62 302,-206.88"/>
<text text-anchor="middle" x="237.75" y="-193.38" font-family="Helvetica,sans-Serif" font-size="10.00">Apply_KEpsilon_Inlet_BC</text>
</a>
</g>
</g>
<!-- Node1&#45;&gt;Node2 -->
<g id="edge1_Node000001_Node000002" class="edge">
<title>Node1&#45;&gt;Node2</title>
<g id="a_edge1_Node000001_Node000002"><a xlink:title=" ">
<path fill="none" stroke="#63b8ff" d="M137.68,-184.2C145.65,-185.25 153.83,-186.33 161.9,-187.39"/>
<polygon fill="#63b8ff" stroke="#63b8ff" points="161.33,-190.84 171.7,-188.68 162.24,-183.9 161.33,-190.84"/>
</a>
</g>
</g>
<!-- Node8 -->
<g id="Node000008" class="node">
<title>Node8</title>
<g id="a_Node000008"><a xlink:href="../../da/db6/_k___omega___model_8cpp_a971ae07e8300e4255c309a8a0f7b7f63.html#a971ae07e8300e4255c309a8a0f7b7f63" target="_top" xlink:title="Apply inlet boundary conditions for K&#45;omega model.">
<polygon fill="white" stroke="#666666" points="301.62,-166.88 173.88,-166.88 173.88,-147.62 301.62,-147.62 301.62,-166.88"/>
<text text-anchor="middle" x="237.75" y="-153.38" font-family="Helvetica,sans-Serif" font-size="10.00">Apply_KOmega_Inlet_BC</text>
</a>
</g>
</g>
<!-- Node1&#45;&gt;Node8 -->
<g id="edge7_Node000001_Node000008" class="edge">
<title>Node1&#45;&gt;Node8</title>
<g id="a_edge7_Node000001_Node000008"><a xlink:title=" ">
<path fill="none" stroke="#63b8ff" d="M137.68,-167.93C145.72,-167.06 153.96,-166.17 162.08,-165.3"/>
<polygon fill="#63b8ff" stroke="#63b8ff" points="162.39,-168.78 171.96,-164.23 161.64,-161.83 162.39,-168.78"/>
</a>
</g>
</g>
<!-- Node3 -->
<g id="Node000003" class="node">
<title>Node3</title>
<g id="a_Node000003"><a xlink:href="../../da/d71/_k___epsilon___model_8cpp_a80bd2fbc9eee5585491d30c17bd73b77.html#a80bd2fbc9eee5585491d30c17bd73b77" target="_top" xlink:title="Calculate turbulent viscosity using K&#45;epsilon model.">
<polygon fill="white" stroke="#666666" points="465,-215.5 357.5,-215.5 357.5,-185 465,-185 465,-215.5"/>
<text text-anchor="start" x="365.5" y="-202" font-family="Helvetica,sans-Serif" font-size="10.00">Calculate_KEpsilon</text>
<text text-anchor="middle" x="411.25" y="-190.75" font-family="Helvetica,sans-Serif" font-size="10.00">_Turbulent_Viscosity</text>
</a>
</g>
</g>
<!-- Node2&#45;&gt;Node3 -->
<g id="edge2_Node000002_Node000003" class="edge">
<title>Node2&#45;&gt;Node3</title>
<g id="a_edge2_Node000002_Node000003"><a xlink:title=" ">
<path fill="none" stroke="#63b8ff" d="M302.12,-198.36C316.43,-198.61 331.63,-198.87 345.97,-199.13"/>
<polygon fill="#63b8ff" stroke="#63b8ff" points="345.68,-202.62 355.74,-199.3 345.8,-195.62 345.68,-202.62"/>
</a>
</g>
</g>
<!-- Node4 -->
<g id="Node000004" class="node">
<title>Node4</title>
<g id="a_Node000004"><a xlink:href="../../da/d71/_k___epsilon___model_8cpp_ab6081c548f15e5cff5f3a7f797726bd0.html#ab6081c548f15e5cff5f3a7f797726bd0" target="_top" xlink:title="Calculate laminar viscosity for a given cell.">
<polygon fill="white" stroke="#666666" points="1001.25,-165.88 858.5,-165.88 858.5,-146.62 1001.25,-146.62 1001.25,-165.88"/>
<text text-anchor="middle" x="929.88" y="-152.38" font-family="Helvetica,sans-Serif" font-size="10.00">Calculate_Laminar_Viscosity</text>
</a>
</g>
</g>
<!-- Node3&#45;&gt;Node4 -->
<g id="edge3_Node000003_Node000004" class="edge">
<title>Node3&#45;&gt;Node4</title>
<g id="a_edge3_Node000003_Node000004"><a xlink:title=" ">
<path fill="none" stroke="#63b8ff" d="M465.36,-212.66C482.82,-216.17 502.4,-219.51 520.5,-221.25 582.99,-227.26 599.42,-228.72 661.75,-221.25 742.99,-211.51 835.2,-185.67 887.27,-169.66"/>
<polygon fill="#63b8ff" stroke="#63b8ff" points="888.11,-173.06 896.62,-166.75 886.03,-166.38 888.11,-173.06"/>
</a>
</g>
</g>
<!-- Node5 -->
<g id="Node000005" class="node">
<title>Node5</title>
<g id="a_Node000005"><a xlink:href="../../da/d71/_k___epsilon___model_8cpp_a4ac5abbc0be034b167174ed0e6ea5814.html#a4ac5abbc0be034b167174ed0e6ea5814" target="_top" xlink:title="Calculate strain rate magnitude for a given cell.">
<polygon fill="white" stroke="#666666" points="648.25,-212.5 534,-212.5 534,-182 648.25,-182 648.25,-212.5"/>
<text text-anchor="start" x="542" y="-199" font-family="Helvetica,sans-Serif" font-size="10.00">Calculate_Strain_Rate</text>
<text text-anchor="middle" x="591.12" y="-187.75" font-family="Helvetica,sans-Serif" font-size="10.00">_Magnitude</text>
</a>
</g>
</g>
<!-- Node3&#45;&gt;Node5 -->
<g id="edge4_Node000003_Node000005" class="edge">
<title>Node3&#45;&gt;Node5</title>
<g id="a_edge4_Node000003_Node000005"><a xlink:title=" ">
<path fill="none" stroke="#63b8ff" d="M465.14,-199.36C483.12,-199.05 503.46,-198.71 522.43,-198.39"/>
<polygon fill="#63b8ff" stroke="#63b8ff" points="522.27,-201.89 532.21,-198.23 522.16,-194.9 522.27,-201.89"/>
</a>
</g>
</g>
<!-- Node6 -->
<g id="Node000006" class="node">
<title>Node6</title>
<g id="a_Node000006"><a xlink:href="../../d5/d65/_turbulence___models_8cpp_abcf5967a793b905ba24e0b6f02859f52.html#abcf5967a793b905ba24e0b6f02859f52" target="_top" xlink:title="Calculate strain rate tensor for a given cell.">
<polygon fill="white" stroke="#666666" points="817.25,-79.5 703,-79.5 703,-49 817.25,-49 817.25,-79.5"/>
<text text-anchor="start" x="711" y="-66" font-family="Helvetica,sans-Serif" font-size="10.00">Calculate_Strain_Rate</text>
<text text-anchor="middle" x="760.12" y="-54.75" font-family="Helvetica,sans-Serif" font-size="10.00">_Tensor</text>
</a>
</g>
</g>
<!-- Node5&#45;&gt;Node6 -->
<g id="edge5_Node000005_Node000006" class="edge">
<title>Node5&#45;&gt;Node6</title>
<g id="a_edge5_Node000005_Node000006"><a xlink:title=" ">
<path fill="none" stroke="#63b8ff" d="M610.53,-181.61C624.96,-169.05 645.29,-150.68 661.75,-133.25 679.09,-114.88 677.42,-104.26 697.75,-89.25 699.52,-87.94 701.37,-86.69 703.27,-85.5"/>
<polygon fill="#63b8ff" stroke="#63b8ff" points="704.83,-88.64 711.85,-80.7 701.41,-82.53 704.83,-88.64"/>
</a>
</g>
</g>
<!-- Node7 -->
<g id="Node000007" class="node">
<title>Node7</title>
<g id="a_Node000007"><a xlink:href="../../d5/db2/class_vector_a2ce47a84fc19c32a26ada5a3379c3f0a.html#a2ce47a84fc19c32a26ada5a3379c3f0a" target="_top" xlink:title=" ">
<polygon fill="white" stroke="#666666" points="990.75,-49.88 869,-49.88 869,-30.62 990.75,-30.62 990.75,-49.88"/>
<text text-anchor="middle" x="929.88" y="-36.38" font-family="Helvetica,sans-Serif" font-size="10.00">Vector::Get_Component</text>
</a>
</g>
</g>
<!-- Node6&#45;&gt;Node7 -->
<g id="edge6_Node000006_Node000007" class="edge">
<title>Node6&#45;&gt;Node7</title>
<g id="a_edge6_Node000006_Node000007"><a xlink:title=" ">
<path fill="none" stroke="#63b8ff" d="M817.45,-56.19C830.31,-54.35 844.15,-52.37 857.55,-50.45"/>
<polygon fill="#63b8ff" stroke="#63b8ff" points="857.77,-53.96 867.18,-49.08 856.78,-47.03 857.77,-53.96"/>
</a>
</g>
</g>
<!-- Node9 -->
<g id="Node000009" class="node">
<title>Node9</title>
<g id="a_Node000009"><a xlink:href="../../da/db6/_k___omega___model_8cpp_acbb6eb3b6b7d60663920ef36f7442e10.html#acbb6eb3b6b7d60663920ef36f7442e10" target="_top" xlink:title="Calculate turbulent viscosity using K&#45;omega model.">
<polygon fill="white" stroke="#666666" points="484.5,-166.5 338,-166.5 338,-136 484.5,-136 484.5,-166.5"/>
<text text-anchor="start" x="346" y="-153" font-family="Helvetica,sans-Serif" font-size="10.00">Calculate_KOmega_Turbulent</text>
<text text-anchor="middle" x="411.25" y="-141.75" font-family="Helvetica,sans-Serif" font-size="10.00">_Viscosity</text>
</a>
</g>
</g>
<!-- Node8&#45;&gt;Node9 -->
<g id="edge8_Node000008_Node000009" class="edge">
<title>Node8&#45;&gt;Node9</title>
<g id="a_edge8_Node000008_Node000009"><a xlink:title=" ">
<path fill="none" stroke="#63b8ff" d="M302.12,-155.03C309.97,-154.76 318.09,-154.47 326.18,-154.19"/>
<polygon fill="#63b8ff" stroke="#63b8ff" points="326.2,-157.69 336.07,-153.85 325.96,-150.7 326.2,-157.69"/>
</a>
</g>
</g>
<!-- Node9&#45;&gt;Node4 -->
<g id="edge9_Node000009_Node000004" class="edge">
<title>Node9&#45;&gt;Node4</title>
<g id="a_edge9_Node000009_Node000004"><a xlink:title=" ">
<path fill="none" stroke="#63b8ff" d="M484.9,-151.95C580.3,-152.88 747.35,-154.49 847.09,-155.46"/>
<polygon fill="#63b8ff" stroke="#63b8ff" points="846.76,-158.96 856.8,-155.55 846.83,-151.96 846.76,-158.96"/>
</a>
</g>
</g>
<!-- Node9&#45;&gt;Node5 -->
<g id="edge15_Node000009_Node000005" class="edge">
<title>Node9&#45;&gt;Node5</title>
<g id="a_edge15_Node000009_Node000005"><a xlink:title=" ">
<path fill="none" stroke="#63b8ff" d="M472.97,-166.95C488.91,-171.08 506.21,-175.55 522.49,-179.76"/>
<polygon fill="#63b8ff" stroke="#63b8ff" points="521.55,-183.13 532.11,-182.25 523.3,-176.35 521.55,-183.13"/>
</a>
</g>
</g>
<!-- Node10 -->
<g id="Node000010" class="node">
<title>Node10</title>
<g id="a_Node000010"><a xlink:href="../../da/db6/_k___omega___model_8cpp_a133b20f2fbde5fe32f3bf8da3734a3df.html#a133b20f2fbde5fe32f3bf8da3734a3df" target="_top" xlink:title="Calculate F2 blending function for SST turbulent viscosity.">
<polygon fill="white" stroke="#666666" points="661.75,-123.88 520.5,-123.88 520.5,-104.62 661.75,-104.62 661.75,-123.88"/>
<text text-anchor="middle" x="591.12" y="-110.38" font-family="Helvetica,sans-Serif" font-size="10.00">Calculate_SST_F2_Function</text>
</a>
</g>
</g>
<!-- Node9&#45;&gt;Node10 -->
<g id="edge10_Node000009_Node000010" class="edge">
<title>Node9&#45;&gt;Node10</title>
<g id="a_edge10_Node000009_Node000010"><a xlink:title=" ">
<path fill="none" stroke="#63b8ff" d="M484.86,-136.15C500.09,-132.98 515.98,-129.67 530.67,-126.62"/>
<polygon fill="#63b8ff" stroke="#63b8ff" points="531.07,-130.11 540.15,-124.64 529.65,-123.25 531.07,-130.11"/>
</a>
</g>
</g>
<!-- Node14 -->
<g id="Node000014" class="node">
<title>Node14</title>
<g id="a_Node000014"><a xlink:href="../../da/db6/_k___omega___model_8cpp_af1e41ac929a629cbe45c3c594b4f972e.html#af1e41ac929a629cbe45c3c594b4f972e" target="_top" xlink:title="Calculate vorticity magnitude for SST model.">
<polygon fill="white" stroke="#666666" points="640.38,-59.5 541.88,-59.5 541.88,-29 640.38,-29 640.38,-59.5"/>
<text text-anchor="start" x="549.88" y="-46" font-family="Helvetica,sans-Serif" font-size="10.00">Calculate_Vorticity</text>
<text text-anchor="middle" x="591.12" y="-34.75" font-family="Helvetica,sans-Serif" font-size="10.00">_Magnitude</text>
</a>
</g>
</g>
<!-- Node9&#45;&gt;Node14 -->
<g id="edge16_Node000009_Node000014" class="edge">
<title>Node9&#45;&gt;Node14</title>
<g id="a_edge16_Node000009_Node000014"><a xlink:title=" ">
<path fill="none" stroke="#63b8ff" d="M438.11,-135.69C468.81,-117.23 520.15,-86.34 554.57,-65.64"/>
<polygon fill="#63b8ff" stroke="#63b8ff" points="556.17,-68.76 562.93,-60.61 552.56,-62.76 556.17,-68.76"/>
</a>
</g>
</g>
<!-- Node11 -->
<g id="Node000011" class="node">
<title>Node11</title>
<g id="a_Node000011"><a xlink:href="../../da/db6/_k___omega___model_8cpp_a31b6758cb80b88340974998c3c5361e2.html#a31b6758cb80b88340974998c3c5361e2" target="_top" xlink:title="Calculate SST blending functions F1 and F2.">
<polygon fill="white" stroke="#666666" points="822.5,-128.5 697.75,-128.5 697.75,-98 822.5,-98 822.5,-128.5"/>
<text text-anchor="start" x="705.75" y="-115" font-family="Helvetica,sans-Serif" font-size="10.00">Calculate_SST_Blending</text>
<text text-anchor="middle" x="760.12" y="-103.75" font-family="Helvetica,sans-Serif" font-size="10.00">_Functions</text>
</a>
</g>
</g>
<!-- Node10&#45;&gt;Node11 -->
<g id="edge11_Node000010_Node000011" class="edge">
<title>Node10&#45;&gt;Node11</title>
<g id="a_edge11_Node000010_Node000011"><a xlink:title=" ">
<path fill="none" stroke="#63b8ff" d="M661.98,-113.83C669.85,-113.78 677.88,-113.74 685.79,-113.69"/>
<polygon fill="#63b8ff" stroke="#63b8ff" points="685.76,-117.19 695.74,-113.63 685.72,-110.19 685.76,-117.19"/>
</a>
</g>
</g>
<!-- Node11&#45;&gt;Node4 -->
<g id="edge12_Node000011_Node000004" class="edge">
<title>Node11&#45;&gt;Node4</title>
<g id="a_edge12_Node000011_Node000004"><a xlink:title=" ">
<path fill="none" stroke="#63b8ff" d="M822.16,-128.9C840.69,-133.65 860.83,-138.81 878.57,-143.36"/>
<polygon fill="#63b8ff" stroke="#63b8ff" points="877.54,-146.7 888.09,-145.8 879.27,-139.92 877.54,-146.7"/>
</a>
</g>
</g>
<!-- Node12 -->
<g id="Node000012" class="node">
<title>Node12</title>
<g id="a_Node000012"><a xlink:href="../../da/db6/_k___omega___model_8cpp_a7fa3fb752505082634dc5acc883aa464.html#a7fa3fb752505082634dc5acc883aa464" target="_top" xlink:title="Calculate cross&#45;diffusion term for SST model.">
<polygon fill="white" stroke="#666666" points="986.62,-128.5 873.12,-128.5 873.12,-98 986.62,-98 986.62,-128.5"/>
<text text-anchor="start" x="881.12" y="-115" font-family="Helvetica,sans-Serif" font-size="10.00">Calculate_SST_Cross</text>
<text text-anchor="middle" x="929.88" y="-103.75" font-family="Helvetica,sans-Serif" font-size="10.00">_Diffusion</text>
</a>
</g>
</g>
<!-- Node11&#45;&gt;Node12 -->
<g id="edge13_Node000011_Node000012" class="edge">
<title>Node11&#45;&gt;Node12</title>
<g id="a_edge13_Node000011_Node000012"><a xlink:title=" ">
<path fill="none" stroke="#63b8ff" d="M822.64,-113.25C835.16,-113.25 848.41,-113.25 861.14,-113.25"/>
<polygon fill="#63b8ff" stroke="#63b8ff" points="861.14,-116.75 871.14,-113.25 861.14,-109.75 861.14,-116.75"/>
</a>
</g>
</g>
<!-- Node13 -->
<g id="Node000013" class="node">
<title>Node13</title>
<g id="a_Node000013"><a xlink:href="../../da/db6/_k___omega___model_8cpp_a7584c2aad761764bf65ccb3e3839a480.html#a7584c2aad761764bf65ccb3e3839a480" target="_top" xlink:title="Calculate scalar gradient for a given variable.">
<polygon fill="white" stroke="#666666" points="1169.5,-122.88 1037.25,-122.88 1037.25,-103.62 1169.5,-103.62 1169.5,-122.88"/>
<text text-anchor="middle" x="1103.38" y="-109.38" font-family="Helvetica,sans-Serif" font-size="10.00">Calculate_Scalar_Gradient</text>
</a>
</g>
</g>
<!-- Node12&#45;&gt;Node13 -->
<g id="edge14_Node000012_Node000013" class="edge">
<title>Node12&#45;&gt;Node13</title>
<g id="a_edge14_Node000012_Node000013"><a xlink:title=" ">
<path fill="none" stroke="#63b8ff" d="M987.03,-113.25C999.35,-113.25 1012.59,-113.25 1025.56,-113.25"/>
<polygon fill="#63b8ff" stroke="#63b8ff" points="1025.34,-116.75 1035.34,-113.25 1025.34,-109.75 1025.34,-116.75"/>
</a>
</g>
</g>
<!-- Node15 -->
<g id="Node000015" class="node">
<title>Node15</title>
<g id="a_Node000015"><a xlink:href="../../d5/d65/_turbulence___models_8cpp_a7682b4426768f92eca578dc8f7c68db3.html#a7682b4426768f92eca578dc8f7c68db3" target="_top" xlink:title="Calculate vorticity tensor for a given cell.">
<polygon fill="white" stroke="#666666" points="809.38,-30.5 710.88,-30.5 710.88,0 809.38,0 809.38,-30.5"/>
<text text-anchor="start" x="718.88" y="-17" font-family="Helvetica,sans-Serif" font-size="10.00">Calculate_Vorticity</text>
<text text-anchor="middle" x="760.12" y="-5.75" font-family="Helvetica,sans-Serif" font-size="10.00">_Tensor</text>
</a>
</g>
</g>
<!-- Node14&#45;&gt;Node15 -->
<g id="edge17_Node000014_Node000015" class="edge">
<title>Node14&#45;&gt;Node15</title>
<g id="a_edge17_Node000014_Node000015"><a xlink:title=" ">
<path fill="none" stroke="#63b8ff" d="M640.43,-35.86C658.87,-32.66 680.11,-28.97 699.49,-25.61"/>
<polygon fill="#63b8ff" stroke="#63b8ff" points="699.9,-29.09 709.15,-23.93 698.7,-22.19 699.9,-29.09"/>
</a>
</g>
</g>
<!-- Node15&#45;&gt;Node7 -->
<g id="edge18_Node000015_Node000007" class="edge">
<title>Node15&#45;&gt;Node7</title>
<g id="a_edge18_Node000015_Node000007"><a xlink:title=" ">
<path fill="none" stroke="#63b8ff" d="M809.65,-22.48C824.58,-24.71 841.35,-27.21 857.49,-29.61"/>
<polygon fill="#63b8ff" stroke="#63b8ff" points="856.63,-33.02 867.03,-31.03 857.66,-26.1 856.63,-33.02"/>
</a>
</g>
</g>
</g>
</svg>
