<?xml version="1.0" encoding="UTF-8" standalone="no"?>
<!DOCTYPE svg PUBLIC "-//W3C//DTD SVG 1.1//EN"
 "http://www.w3.org/Graphics/SVG/1.1/DTD/svg11.dtd">
<!-- Generated by graphviz version 12.2.1 (20241206.2353)
 -->
<!-- Title: Cell::Check_Cell Pages: 1 -->
<svg width="215pt" height="64pt"
 viewBox="0.00 0.00 214.75 64.25" xmlns="http://www.w3.org/2000/svg" xmlns:xlink="http://www.w3.org/1999/xlink">
<g id="graph0" class="graph" transform="scale(1 1) rotate(0) translate(4 60.25)">
<title>Cell::Check_Cell</title>
<!-- Node1 -->
<g id="Node000001" class="node">
<title>Node1</title>
<g id="a_Node000001"><a xlink:title=" ">
<polygon fill="#999999" stroke="#666666" points="206.75,-37.25 116.5,-37.25 116.5,-18 206.75,-18 206.75,-37.25"/>
<text text-anchor="middle" x="161.62" y="-23.75" font-family="Helvetica,sans-Serif" font-size="10.00">Cell::Check_Cell</text>
</a>
</g>
</g>
<!-- Node2 -->
<g id="Node000002" class="node">
<title>Node2</title>
<g id="a_Node000002"><a xlink:href="../../dc/d9f/struct_cell_af9c7a9f6efe9449befbb4516416e0b8e.html#af9c7a9f6efe9449befbb4516416e0b8e" target="_top" xlink:title=" ">
<polygon fill="white" stroke="#666666" points="80.5,-56.25 0,-56.25 0,-37 80.5,-37 80.5,-56.25"/>
<text text-anchor="middle" x="40.25" y="-42.75" font-family="Helvetica,sans-Serif" font-size="10.00">Cell::operator()</text>
</a>
</g>
</g>
<!-- Node1&#45;&gt;Node2 -->
<g id="edge1_Node000001_Node000002" class="edge">
<title>Node1&#45;&gt;Node2</title>
<g id="a_edge1_Node000001_Node000002"><a xlink:title=" ">
<path fill="none" stroke="#63b8ff" d="M105.05,-36.47C96.8,-37.78 88.45,-39.11 80.63,-40.36"/>
<polygon fill="#63b8ff" stroke="#63b8ff" points="105.35,-39.97 114.68,-34.94 104.25,-33.05 105.35,-39.97"/>
</a>
</g>
</g>
<!-- Node3 -->
<g id="Node000003" class="node">
<title>Node3</title>
<g id="a_Node000003"><a xlink:href="../../dc/d9f/struct_cell_ad60913f3ab1725f85df209aa06b83903.html#ad60913f3ab1725f85df209aa06b83903" target="_top" xlink:title=" ">
<polygon fill="white" stroke="#666666" points="80.5,-19.25 0,-19.25 0,0 80.5,0 80.5,-19.25"/>
<text text-anchor="middle" x="40.25" y="-5.75" font-family="Helvetica,sans-Serif" font-size="10.00">Cell::operator()</text>
</a>
</g>
</g>
<!-- Node1&#45;&gt;Node3 -->
<g id="edge2_Node000001_Node000003" class="edge">
<title>Node1&#45;&gt;Node3</title>
<g id="a_edge2_Node000001_Node000003"><a xlink:title=" ">
<path fill="none" stroke="#63b8ff" d="M105.05,-19.25C96.8,-18 88.45,-16.74 80.63,-15.56"/>
<polygon fill="#63b8ff" stroke="#63b8ff" points="104.27,-22.67 114.68,-20.7 105.31,-15.74 104.27,-22.67"/>
</a>
</g>
</g>
</g>
</svg>
