<?xml version="1.0" encoding="UTF-8" standalone="no"?>
<!DOCTYPE svg PUBLIC "-//W3C//DTD SVG 1.1//EN"
 "http://www.w3.org/Graphics/SVG/1.1/DTD/svg11.dtd">
<!-- Generated by graphviz version 12.2.1 (20241206.2353)
 -->
<!-- Title: Cell::Velocity_GradatCenter Pages: 1 -->
<svg width="299pt" height="175pt"
 viewBox="0.00 0.00 298.75 175.25" xmlns="http://www.w3.org/2000/svg" xmlns:xlink="http://www.w3.org/1999/xlink">
<g id="graph0" class="graph" transform="scale(1 1) rotate(0) translate(4 171.25)">
<title>Cell::Velocity_GradatCenter</title>
<!-- Node1 -->
<g id="Node000001" class="node">
<title>Node1</title>
<g id="a_Node000001"><a xlink:title=" ">
<polygon fill="#999999" stroke="#666666" points="138.25,-93.25 0,-93.25 0,-74 138.25,-74 138.25,-93.25"/>
<text text-anchor="middle" x="69.12" y="-79.75" font-family="Helvetica,sans-Serif" font-size="10.00">Cell::Velocity_GradatCenter</text>
</a>
</g>
</g>
<!-- Node2 -->
<g id="Node000002" class="node">
<title>Node2</title>
<g id="a_Node000002"><a xlink:href="../../d5/db2/class_vector_a65059ef72da0ea37db05d7235e91f3b6.html#a65059ef72da0ea37db05d7235e91f3b6" target="_top" xlink:title=" ">
<polygon fill="white" stroke="#666666" points="269.38,-167.25 195.62,-167.25 195.62,-148 269.38,-148 269.38,-167.25"/>
<text text-anchor="middle" x="232.5" y="-153.75" font-family="Helvetica,sans-Serif" font-size="10.00">Vector::Clear</text>
</a>
</g>
</g>
<!-- Node1&#45;&gt;Node2 -->
<g id="edge1_Node000001_Node000002" class="edge">
<title>Node1&#45;&gt;Node2</title>
<g id="a_edge1_Node000001_Node000002"><a xlink:title=" ">
<path fill="none" stroke="#63b8ff" d="M86.6,-93.75C106.73,-105.82 142.1,-126.07 174.25,-139.62 177.66,-141.06 181.22,-142.45 184.83,-143.77"/>
<polygon fill="#63b8ff" stroke="#63b8ff" points="183.67,-147.07 194.27,-147.02 185.95,-140.45 183.67,-147.07"/>
</a>
</g>
</g>
<!-- Node3 -->
<g id="Node000003" class="node">
<title>Node3</title>
<g id="a_Node000003"><a xlink:href="../../d5/d2a/class_face_a05485559cf65d981de1fb06208ca23ce.html#a05485559cf65d981de1fb06208ca23ce" target="_top" xlink:title=" ">
<polygon fill="white" stroke="#666666" points="290,-130.25 175,-130.25 175,-111 290,-111 290,-130.25"/>
<text text-anchor="middle" x="232.5" y="-116.75" font-family="Helvetica,sans-Serif" font-size="10.00">Face::Get_Face_TndS</text>
</a>
</g>
</g>
<!-- Node1&#45;&gt;Node3 -->
<g id="edge2_Node000001_Node000003" class="edge">
<title>Node1&#45;&gt;Node3</title>
<g id="a_edge2_Node000001_Node000003"><a xlink:title=" ">
<path fill="none" stroke="#63b8ff" d="M114.22,-93.74C133.43,-98.14 156.16,-103.35 176.46,-108.01"/>
<polygon fill="#63b8ff" stroke="#63b8ff" points="175.45,-111.37 185.98,-110.19 177.02,-104.54 175.45,-111.37"/>
</a>
</g>
</g>
<!-- Node4 -->
<g id="Node000004" class="node">
<title>Node4</title>
<g id="a_Node000004"><a xlink:href="../../d5/d2a/class_face_aaa668000a8eb31366c9333d326f7a2d0.html#aaa668000a8eb31366c9333d326f7a2d0" target="_top" xlink:title=" ">
<polygon fill="white" stroke="#666666" points="289.62,-93.25 175.38,-93.25 175.38,-74 289.62,-74 289.62,-93.25"/>
<text text-anchor="middle" x="232.5" y="-79.75" font-family="Helvetica,sans-Serif" font-size="10.00">Face::Get_Face_undS</text>
</a>
</g>
</g>
<!-- Node1&#45;&gt;Node4 -->
<g id="edge3_Node000001_Node000004" class="edge">
<title>Node1&#45;&gt;Node4</title>
<g id="a_edge3_Node000001_Node000004"><a xlink:title=" ">
<path fill="none" stroke="#63b8ff" d="M138.56,-83.62C146.95,-83.62 155.52,-83.62 163.89,-83.62"/>
<polygon fill="#63b8ff" stroke="#63b8ff" points="163.64,-87.13 173.64,-83.63 163.64,-80.13 163.64,-87.13"/>
</a>
</g>
</g>
<!-- Node5 -->
<g id="Node000005" class="node">
<title>Node5</title>
<g id="a_Node000005"><a xlink:href="../../d5/d2a/class_face_af5ae2d774dbe2dd917de1ad630470a17.html#af5ae2d774dbe2dd917de1ad630470a17" target="_top" xlink:title=" ">
<polygon fill="white" stroke="#666666" points="289.62,-56.25 175.38,-56.25 175.38,-37 289.62,-37 289.62,-56.25"/>
<text text-anchor="middle" x="232.5" y="-42.75" font-family="Helvetica,sans-Serif" font-size="10.00">Face::Get_Face_vndS</text>
</a>
</g>
</g>
<!-- Node1&#45;&gt;Node5 -->
<g id="edge4_Node000001_Node000005" class="edge">
<title>Node1&#45;&gt;Node5</title>
<g id="a_edge4_Node000001_Node000005"><a xlink:title=" ">
<path fill="none" stroke="#63b8ff" d="M114.22,-73.51C133.43,-69.11 156.16,-63.9 176.46,-59.24"/>
<polygon fill="#63b8ff" stroke="#63b8ff" points="177.02,-62.71 185.98,-57.06 175.45,-55.88 177.02,-62.71"/>
</a>
</g>
</g>
<!-- Node6 -->
<g id="Node000006" class="node">
<title>Node6</title>
<g id="a_Node000006"><a xlink:href="../../d5/d2a/class_face_a944ff71ee4a44ca30b68175d5a5e2a08.html#a944ff71ee4a44ca30b68175d5a5e2a08" target="_top" xlink:title=" ">
<polygon fill="white" stroke="#666666" points="290.75,-19.25 174.25,-19.25 174.25,0 290.75,0 290.75,-19.25"/>
<text text-anchor="middle" x="232.5" y="-5.75" font-family="Helvetica,sans-Serif" font-size="10.00">Face::Get_Face_wndS</text>
</a>
</g>
</g>
<!-- Node1&#45;&gt;Node6 -->
<g id="edge5_Node000001_Node000006" class="edge">
<title>Node1&#45;&gt;Node6</title>
<g id="a_edge5_Node000001_Node000006"><a xlink:title=" ">
<path fill="none" stroke="#63b8ff" d="M86.6,-73.5C106.73,-61.43 142.1,-41.18 174.25,-27.62 177.66,-26.19 181.22,-24.8 184.83,-23.48"/>
<polygon fill="#63b8ff" stroke="#63b8ff" points="185.95,-26.8 194.27,-20.23 183.67,-20.18 185.95,-26.8"/>
</a>
</g>
</g>
</g>
</svg>
