<?xml version="1.0" encoding="UTF-8" standalone="no"?>
<!DOCTYPE svg PUBLIC "-//W3C//DTD SVG 1.1//EN"
 "http://www.w3.org/Graphics/SVG/1.1/DTD/svg11.dtd">
<!-- Generated by graphviz version 12.2.1 (20241206.2353)
 -->
<!-- Title: Cell::Get_QatCellCenter Pages: 1 -->
<svg width="740pt" height="150pt"
 viewBox="0.00 0.00 739.75 150.25" xmlns="http://www.w3.org/2000/svg" xmlns:xlink="http://www.w3.org/1999/xlink">
<g id="graph0" class="graph" transform="scale(1 1) rotate(0) translate(4 146.25)">
<title>Cell::Get_QatCellCenter</title>
<!-- Node1 -->
<g id="Node000001" class="node">
<title>Node1</title>
<g id="a_Node000001"><a xlink:title=" ">
<polygon fill="#999999" stroke="#666666" points="731.75,-83.25 609.25,-83.25 609.25,-64 731.75,-64 731.75,-83.25"/>
<text text-anchor="middle" x="670.5" y="-69.75" font-family="Helvetica,sans-Serif" font-size="10.00">Cell::Get_QatCellCenter</text>
</a>
</g>
</g>
<!-- Node2 -->
<g id="Node000002" class="node">
<title>Node2</title>
<g id="a_Node000002"><a xlink:href="../../d5/d2a/class_face_a88ae97bafb287491f1b204e50405367d.html#a88ae97bafb287491f1b204e50405367d" target="_top" xlink:title=" ">
<polygon fill="white" stroke="#666666" points="554.88,-142.25 439.88,-142.25 439.88,-123 554.88,-123 554.88,-142.25"/>
<text text-anchor="middle" x="497.38" y="-128.75" font-family="Helvetica,sans-Serif" font-size="10.00">Face::Add_Dissipation</text>
</a>
</g>
</g>
<!-- Node1&#45;&gt;Node2 -->
<g id="edge1_Node000001_Node000002" class="edge">
<title>Node1&#45;&gt;Node2</title>
<g id="a_edge1_Node000001_Node000002"><a xlink:title=" ">
<path fill="none" stroke="#63b8ff" d="M638.61,-88.34C619.98,-96.83 595.59,-107.24 573.25,-114.62 564.36,-117.56 554.74,-120.24 545.44,-122.58"/>
<polygon fill="#63b8ff" stroke="#63b8ff" points="639.87,-91.61 647.48,-84.24 636.94,-85.26 639.87,-91.61"/>
</a>
</g>
</g>
<!-- Node3 -->
<g id="Node000003" class="node">
<title>Node3</title>
<g id="a_Node000003"><a xlink:href="../../d5/d2a/class_face_a8bf8d82bb997ead9e413ffe50b53516b.html#a8bf8d82bb997ead9e413ffe50b53516b" target="_top" xlink:title=" ">
<polygon fill="white" stroke="#666666" points="573.25,-105.25 421.5,-105.25 421.5,-86 573.25,-86 573.25,-105.25"/>
<text text-anchor="middle" x="497.38" y="-91.75" font-family="Helvetica,sans-Serif" font-size="10.00">Face::Flux_From_Face_AUSM</text>
</a>
</g>
</g>
<!-- Node1&#45;&gt;Node3 -->
<g id="edge2_Node000001_Node000003" class="edge">
<title>Node1&#45;&gt;Node3</title>
<g id="a_edge2_Node000001_Node000003"><a xlink:title=" ">
<path fill="none" stroke="#63b8ff" d="M597.9,-82.83C589.82,-83.87 581.57,-84.93 573.46,-85.97"/>
<polygon fill="#63b8ff" stroke="#63b8ff" points="598.19,-86.32 607.67,-81.57 597.3,-79.38 598.19,-86.32"/>
</a>
</g>
</g>
<!-- Node8 -->
<g id="Node000008" class="node">
<title>Node8</title>
<g id="a_Node000008"><a xlink:href="../../d5/d2a/class_face_ab9cd78be1d492e93b0c07bcdf317ee71.html#ab9cd78be1d492e93b0c07bcdf317ee71" target="_top" xlink:title=" ">
<polygon fill="white" stroke="#666666" points="556,-67.88 438.75,-67.88 438.75,-37.38 556,-37.38 556,-67.88"/>
<text text-anchor="start" x="446.75" y="-54.38" font-family="Helvetica,sans-Serif" font-size="10.00">Face::Flux_From_Face</text>
<text text-anchor="middle" x="497.38" y="-43.12" font-family="Helvetica,sans-Serif" font-size="10.00">_Central</text>
</a>
</g>
</g>
<!-- Node1&#45;&gt;Node8 -->
<g id="edge7_Node000001_Node000008" class="edge">
<title>Node1&#45;&gt;Node8</title>
<g id="a_edge7_Node000001_Node000008"><a xlink:title=" ">
<path fill="none" stroke="#63b8ff" d="M597.75,-64.82C583.98,-63.13 569.71,-61.38 556.44,-59.75"/>
<polygon fill="#63b8ff" stroke="#63b8ff" points="597.31,-68.29 607.67,-66.04 598.17,-61.34 597.31,-68.29"/>
</a>
</g>
</g>
<!-- Node9 -->
<g id="Node000009" class="node">
<title>Node9</title>
<g id="a_Node000009"><a xlink:href="../../d5/d2a/class_face_a3560cd5db824a402bf5c380f8ada5bb2.html#a3560cd5db824a402bf5c380f8ada5bb2" target="_top" xlink:title=" ">
<polygon fill="white" stroke="#666666" points="564.62,-19.25 430.12,-19.25 430.12,0 564.62,0 564.62,-19.25"/>
<text text-anchor="middle" x="497.38" y="-5.75" font-family="Helvetica,sans-Serif" font-size="10.00">Face::Flux_From_Face_VL</text>
</a>
</g>
</g>
<!-- Node1&#45;&gt;Node9 -->
<g id="edge8_Node000001_Node000009" class="edge">
<title>Node1&#45;&gt;Node9</title>
<g id="a_edge8_Node000001_Node000009"><a xlink:title=" ">
<path fill="none" stroke="#63b8ff" d="M640.77,-58.45C621.95,-48.94 596.59,-36.96 573.25,-28.62 563.9,-25.29 553.7,-22.29 543.93,-19.72"/>
<polygon fill="#63b8ff" stroke="#63b8ff" points="638.93,-61.44 649.43,-62.88 642.12,-55.21 638.93,-61.44"/>
</a>
</g>
</g>
<!-- Node4 -->
<g id="Node000004" class="node">
<title>Node4</title>
<g id="a_Node000004"><a xlink:href="../../d5/d2a/class_face_a7edd7ef2c3e6faf1d13c186536039f60.html#a7edd7ef2c3e6faf1d13c186536039f60" target="_top" xlink:title=" ">
<polygon fill="white" stroke="#666666" points="385.5,-62.25 268.25,-62.25 268.25,-43 385.5,-43 385.5,-62.25"/>
<text text-anchor="middle" x="326.88" y="-48.75" font-family="Helvetica,sans-Serif" font-size="10.00">Face::Flux_From_Face</text>
</a>
</g>
</g>
<!-- Node3&#45;&gt;Node4 -->
<g id="edge3_Node000003_Node000004" class="edge">
<title>Node3&#45;&gt;Node4</title>
<g id="a_edge3_Node000003_Node000004"><a xlink:title=" ">
<path fill="none" stroke="#63b8ff" d="M445.82,-82.82C437.69,-80.75 429.36,-78.63 421.5,-76.62 403.61,-72.06 383.81,-66.99 367.04,-62.69"/>
<polygon fill="#63b8ff" stroke="#63b8ff" points="444.71,-86.14 455.27,-85.21 446.44,-79.36 444.71,-86.14"/>
</a>
</g>
</g>
<!-- Node5 -->
<g id="Node000005" class="node">
<title>Node5</title>
<g id="a_Node000005"><a xlink:href="../../dc/d9f/struct_cell_a4a591da0b84980196864d92dea915c67.html#a4a591da0b84980196864d92dea915c67" target="_top" xlink:title=" ">
<polygon fill="white" stroke="#666666" points="232.25,-81.25 93.25,-81.25 93.25,-62 232.25,-62 232.25,-81.25"/>
<text text-anchor="middle" x="162.75" y="-67.75" font-family="Helvetica,sans-Serif" font-size="10.00">Cell::Evaluate_FluxonFaces</text>
</a>
</g>
</g>
<!-- Node4&#45;&gt;Node5 -->
<g id="edge4_Node000004_Node000005" class="edge">
<title>Node4&#45;&gt;Node5</title>
<g id="a_edge4_Node000004_Node000005"><a xlink:title=" ">
<path fill="none" stroke="#63b8ff" d="M256.63,-60.74C248.63,-61.68 240.47,-62.63 232.48,-63.57"/>
<polygon fill="#63b8ff" stroke="#63b8ff" points="256.77,-64.25 266.3,-59.61 255.96,-57.29 256.77,-64.25"/>
</a>
</g>
</g>
<!-- Node7 -->
<g id="Node000007" class="node">
<title>Node7</title>
<g id="a_Node000007"><a xlink:href="../../dc/d9f/struct_cell_af0b9b19aa3d5c463bfadc936bbcd83dc.html#af0b9b19aa3d5c463bfadc936bbcd83dc" target="_top" xlink:title=" ">
<polygon fill="white" stroke="#666666" points="209,-44.25 116.5,-44.25 116.5,-25 209,-25 209,-44.25"/>
<text text-anchor="middle" x="162.75" y="-30.75" font-family="Helvetica,sans-Serif" font-size="10.00">Cell::Test_Fluxes</text>
</a>
</g>
</g>
<!-- Node4&#45;&gt;Node7 -->
<g id="edge6_Node000004_Node000007" class="edge">
<title>Node4&#45;&gt;Node7</title>
<g id="a_edge6_Node000004_Node000007"><a xlink:title=" ">
<path fill="none" stroke="#63b8ff" d="M256.39,-44.91C240.52,-43.15 224.05,-41.32 209.47,-39.7"/>
<polygon fill="#63b8ff" stroke="#63b8ff" points="255.97,-48.39 266.3,-46.01 256.75,-41.43 255.97,-48.39"/>
</a>
</g>
</g>
<!-- Node6 -->
<g id="Node000006" class="node">
<title>Node6</title>
<g id="a_Node000006"><a xlink:href="../../dc/d9f/struct_cell_aaf94e79f1a6eaba16660a81b86b5d4c1.html#aaf94e79f1a6eaba16660a81b86b5d4c1" target="_top" xlink:title=" ">
<polygon fill="white" stroke="#666666" points="57.25,-81.25 0,-81.25 0,-62 57.25,-62 57.25,-81.25"/>
<text text-anchor="middle" x="28.62" y="-67.75" font-family="Helvetica,sans-Serif" font-size="10.00">Cell::Rk4</text>
</a>
</g>
</g>
<!-- Node5&#45;&gt;Node6 -->
<g id="edge5_Node000005_Node000006" class="edge">
<title>Node5&#45;&gt;Node6</title>
<g id="a_edge5_Node000005_Node000006"><a xlink:title=" ">
<path fill="none" stroke="#63b8ff" d="M81.6,-71.62C73.06,-71.62 64.84,-71.62 57.56,-71.62"/>
<polygon fill="#63b8ff" stroke="#63b8ff" points="81.47,-75.13 91.47,-71.63 81.47,-68.13 81.47,-75.13"/>
</a>
</g>
</g>
<!-- Node9&#45;&gt;Node4 -->
<g id="edge9_Node000009_Node000004" class="edge">
<title>Node9&#45;&gt;Node4</title>
<g id="a_edge9_Node000009_Node000004"><a xlink:title=" ">
<path fill="none" stroke="#63b8ff" d="M445.82,-22.43C437.69,-24.5 429.36,-26.62 421.5,-28.62 403.61,-33.19 383.81,-38.26 367.04,-42.56"/>
<polygon fill="#63b8ff" stroke="#63b8ff" points="446.44,-25.89 455.27,-20.04 444.71,-19.11 446.44,-25.89"/>
</a>
</g>
</g>
</g>
</svg>
