<?xml version="1.0" encoding="UTF-8" standalone="no"?>
<!DOCTYPE svg PUBLIC "-//W3C//DTD SVG 1.1//EN"
 "http://www.w3.org/Graphics/SVG/1.1/DTD/svg11.dtd">
<!-- Generated by graphviz version 12.2.1 (20241206.2353)
 -->
<!-- Title: Cell::Get_Q_Grad Pages: 1 -->
<svg width="358pt" height="27pt"
 viewBox="0.00 0.00 358.25 27.25" xmlns="http://www.w3.org/2000/svg" xmlns:xlink="http://www.w3.org/1999/xlink">
<g id="graph0" class="graph" transform="scale(1 1) rotate(0) translate(4 23.25)">
<title>Cell::Get_Q_Grad</title>
<!-- Node1 -->
<g id="Node000001" class="node">
<title>Node1</title>
<g id="a_Node000001"><a xlink:title=" ">
<polygon fill="#999999" stroke="#666666" points="350.25,-19.25 256.25,-19.25 256.25,0 350.25,0 350.25,-19.25"/>
<text text-anchor="middle" x="303.25" y="-5.75" font-family="Helvetica,sans-Serif" font-size="10.00">Cell::Get_Q_Grad</text>
</a>
</g>
</g>
<!-- Node2 -->
<g id="Node000002" class="node">
<title>Node2</title>
<g id="a_Node000002"><a xlink:href="../../d5/d2a/class_face_afda30f7a29cec730b930ee11fb673e36.html#afda30f7a29cec730b930ee11fb673e36" target="_top" xlink:title=" ">
<polygon fill="white" stroke="#666666" points="220.25,-19.25 128.5,-19.25 128.5,0 220.25,0 220.25,-19.25"/>
<text text-anchor="middle" x="174.38" y="-5.75" font-family="Helvetica,sans-Serif" font-size="10.00">Face::Cal_Del2Q</text>
</a>
</g>
</g>
<!-- Node1&#45;&gt;Node2 -->
<g id="edge1_Node000001_Node000002" class="edge">
<title>Node1&#45;&gt;Node2</title>
<g id="a_edge1_Node000001_Node000002"><a xlink:title=" ">
<path fill="none" stroke="#63b8ff" d="M244.72,-9.62C236.58,-9.62 228.3,-9.62 220.44,-9.62"/>
<polygon fill="#63b8ff" stroke="#63b8ff" points="244.57,-13.13 254.57,-9.63 244.57,-6.13 244.57,-13.13"/>
</a>
</g>
</g>
<!-- Node3 -->
<g id="Node000003" class="node">
<title>Node3</title>
<g id="a_Node000003"><a xlink:href="../../dc/d9f/struct_cell_afada172118de033e799c1c90ef136e74.html#afada172118de033e799c1c90ef136e74" target="_top" xlink:title=" ">
<polygon fill="white" stroke="#666666" points="92.5,-19.25 0,-19.25 0,0 92.5,0 92.5,-19.25"/>
<text text-anchor="middle" x="46.25" y="-5.75" font-family="Helvetica,sans-Serif" font-size="10.00">Cell::Cal_Del2_Q</text>
</a>
</g>
</g>
<!-- Node2&#45;&gt;Node3 -->
<g id="edge2_Node000002_Node000003" class="edge">
<title>Node2&#45;&gt;Node3</title>
<g id="a_edge2_Node000002_Node000003"><a xlink:title=" ">
<path fill="none" stroke="#63b8ff" d="M116.71,-9.62C108.76,-9.62 100.67,-9.62 92.96,-9.62"/>
<polygon fill="#63b8ff" stroke="#63b8ff" points="116.68,-13.13 126.68,-9.63 116.68,-6.13 116.68,-13.13"/>
</a>
</g>
</g>
</g>
</svg>
