<?xml version="1.0" encoding="UTF-8" standalone="no"?>
<!DOCTYPE svg PUBLIC "-//W3C//DTD SVG 1.1//EN"
 "http://www.w3.org/Graphics/SVG/1.1/DTD/svg11.dtd">
<!-- Generated by graphviz version 12.2.1 (20241206.2353)
 -->
<!-- Title: Second_Order_Limiter Pages: 1 -->
<svg width="302pt" height="64pt"
 viewBox="0.00 0.00 302.00 64.25" xmlns="http://www.w3.org/2000/svg" xmlns:xlink="http://www.w3.org/1999/xlink">
<g id="graph0" class="graph" transform="scale(1 1) rotate(0) translate(4 60.25)">
<title>Second_Order_Limiter</title>
<!-- Node1 -->
<g id="Node000001" class="node">
<title>Node1</title>
<g id="a_Node000001"><a xlink:title="Computes the second&#45;order limited slopes and reconstructs variables for a given cell and face.">
<polygon fill="#999999" stroke="#666666" points="112.75,-37.25 0,-37.25 0,-18 112.75,-18 112.75,-37.25"/>
<text text-anchor="middle" x="56.38" y="-23.75" font-family="Helvetica,sans-Serif" font-size="10.00">Second_Order_Limiter</text>
</a>
</g>
</g>
<!-- Node2 -->
<g id="Node000002" class="node">
<title>Node2</title>
<g id="a_Node000002"><a xlink:href="../../d0/da3/_limiters_8cpp_a01ee9151d91c270729e4d9df0a89e287.html#a01ee9151d91c270729e4d9df0a89e287" target="_top" xlink:title="Computes the MinMod limiter for three input values and updates the result in the provided reference.">
<polygon fill="white" stroke="#666666" points="199.25,-37.25 148.75,-37.25 148.75,-18 199.25,-18 199.25,-37.25"/>
<text text-anchor="middle" x="174" y="-23.75" font-family="Helvetica,sans-Serif" font-size="10.00">MinMod</text>
</a>
</g>
</g>
<!-- Node1&#45;&gt;Node2 -->
<g id="edge1_Node000001_Node000002" class="edge">
<title>Node1&#45;&gt;Node2</title>
<g id="a_edge1_Node000001_Node000002"><a xlink:title=" ">
<path fill="none" stroke="#63b8ff" d="M113.16,-27.62C121.27,-27.62 129.43,-27.62 137.01,-27.62"/>
<polygon fill="#63b8ff" stroke="#63b8ff" points="136.83,-31.13 146.83,-27.63 136.83,-24.13 136.83,-31.13"/>
</a>
</g>
</g>
<!-- Node3 -->
<g id="Node000003" class="node">
<title>Node3</title>
<g id="a_Node000003"><a xlink:href="../../d2/d1e/_basic___files_2_utility___files_8cpp_aa047730c4b45792e657f98e973a2695f.html#aa047730c4b45792e657f98e973a2695f" target="_top" xlink:title=" ">
<polygon fill="white" stroke="#666666" points="294,-56.25 235.25,-56.25 235.25,-37 294,-37 294,-56.25"/>
<text text-anchor="middle" x="264.62" y="-42.75" font-family="Helvetica,sans-Serif" font-size="10.00">Maximum</text>
</a>
</g>
</g>
<!-- Node2&#45;&gt;Node3 -->
<g id="edge2_Node000002_Node000003" class="edge">
<title>Node2&#45;&gt;Node3</title>
<g id="a_edge2_Node000002_Node000003"><a xlink:title=" ">
<path fill="none" stroke="#63b8ff" d="M199.69,-32.92C207.22,-34.53 215.71,-36.35 223.97,-38.12"/>
<polygon fill="#63b8ff" stroke="#63b8ff" points="223.01,-41.5 233.52,-40.17 224.47,-34.65 223.01,-41.5"/>
</a>
</g>
</g>
<!-- Node4 -->
<g id="Node000004" class="node">
<title>Node4</title>
<g id="a_Node000004"><a xlink:href="../../d2/d1e/_basic___files_2_utility___files_8cpp_a51be7d63194e92e29a4cd28e08d464bd.html#a51be7d63194e92e29a4cd28e08d464bd" target="_top" xlink:title=" ">
<polygon fill="white" stroke="#666666" points="292.5,-19.25 236.75,-19.25 236.75,0 292.5,0 292.5,-19.25"/>
<text text-anchor="middle" x="264.62" y="-5.75" font-family="Helvetica,sans-Serif" font-size="10.00">Minimum</text>
</a>
</g>
</g>
<!-- Node2&#45;&gt;Node4 -->
<g id="edge3_Node000002_Node000004" class="edge">
<title>Node2&#45;&gt;Node4</title>
<g id="a_edge3_Node000002_Node000004"><a xlink:title=" ">
<path fill="none" stroke="#63b8ff" d="M199.69,-22.61C207.59,-21.01 216.54,-19.19 225.19,-17.43"/>
<polygon fill="#63b8ff" stroke="#63b8ff" points="225.68,-20.9 234.78,-15.48 224.29,-14.04 225.68,-20.9"/>
</a>
</g>
</g>
</g>
</svg>
