<?xml version="1.0" encoding="UTF-8" standalone="no"?>
<!DOCTYPE svg PUBLIC "-//W3C//DTD SVG 1.1//EN"
 "http://www.w3.org/Graphics/SVG/1.1/DTD/svg11.dtd">
<!-- Generated by graphviz version 12.2.1 (20241206.2353)
 -->
<!-- Title: ud4_qulacs_oop.MaxIterationsReached Pages: 1 -->
<svg width="157pt" height="149pt"
 viewBox="0.00 0.00 156.75 149.00" xmlns="http://www.w3.org/2000/svg" xmlns:xlink="http://www.w3.org/1999/xlink">
<g id="graph0" class="graph" transform="scale(1 1) rotate(0) translate(4 145)">
<title>ud4_qulacs_oop.MaxIterationsReached</title>
<!-- Node1 -->
<g id="Node000001" class="node">
<title>Node1</title>
<g id="a_Node000001"><a xlink:title=" ">
<polygon fill="#999999" stroke="#666666" points="148.75,-85.75 0,-85.75 0,-55.25 148.75,-55.25 148.75,-85.75"/>
<text text-anchor="start" x="8" y="-72.25" font-family="Helvetica,sans-Serif" font-size="10.00">ud4_qulacs_oop.MaxIterations</text>
<text text-anchor="middle" x="74.38" y="-61" font-family="Helvetica,sans-Serif" font-size="10.00">Reached</text>
</a>
</g>
</g>
<!-- Node3 -->
<g id="Node000003" class="node">
<title>Node3</title>
<g id="a_Node000003"><a xlink:href="../../dd/d4b/classud4__qulacs__oop_1_1_qsolver.html" target="_top" xlink:title=" ">
<polygon fill="white" stroke="#bfbfbf" points="136,-19.25 12.75,-19.25 12.75,0 136,0 136,-19.25"/>
<text text-anchor="middle" x="74.38" y="-5.75" font-family="Helvetica,sans-Serif" font-size="10.00">ud4_qulacs_oop.Qsolver</text>
</a>
</g>
</g>
<!-- Node1&#45;&gt;Node3 -->
<g id="edge2_Node000001_Node000003" class="edge">
<title>Node1&#45;&gt;Node3</title>
<g id="a_edge2_Node000001_Node000003"><a xlink:title=" ">
<path fill="none" stroke="#63b8ff" d="M74.38,-43.48C74.38,-34.98 74.38,-26.09 74.38,-19.7"/>
<polygon fill="#63b8ff" stroke="#63b8ff" points="70.88,-43.43 74.38,-53.43 77.88,-43.43 70.88,-43.43"/>
</a>
</g>
</g>
<!-- Node2 -->
<g id="Node000002" class="node">
<title>Node2</title>
<g id="a_Node000002"><a xlink:title=" ">
<polygon fill="white" stroke="#bfbfbf" points="104.12,-141 44.62,-141 44.62,-121.75 104.12,-121.75 104.12,-141"/>
<text text-anchor="middle" x="74.38" y="-127.5" font-family="Helvetica,sans-Serif" font-size="10.00">Exception</text>
</a>
</g>
</g>
<!-- Node2&#45;&gt;Node1 -->
<g id="edge1_Node000001_Node000002" class="edge">
<title>Node2&#45;&gt;Node1</title>
<g id="a_edge1_Node000001_Node000002"><a xlink:title=" ">
<path fill="none" stroke="#63b8ff" d="M74.38,-110.17C74.38,-102.24 74.38,-93.31 74.38,-86.03"/>
<polygon fill="#63b8ff" stroke="#63b8ff" points="70.88,-109.92 74.38,-119.92 77.88,-109.92 70.88,-109.92"/>
</a>
</g>
</g>
</g>
</svg>
