<?xml version="1.0" encoding="UTF-8" standalone="no"?>
<!DOCTYPE svg PUBLIC "-//W3C//DTD SVG 1.1//EN"
 "http://www.w3.org/Graphics/SVG/1.1/DTD/svg11.dtd">
<!-- Generated by graphviz version 12.2.1 (20241206.2353)
 -->
<!-- Title: Cylinder::Write_Grid_Plane Pages: 1 -->
<svg width="219pt" height="101pt"
 viewBox="0.00 0.00 218.50 101.25" xmlns="http://www.w3.org/2000/svg" xmlns:xlink="http://www.w3.org/1999/xlink">
<g id="graph0" class="graph" transform="scale(1 1) rotate(0) translate(4 97.25)">
<title>Cylinder::Write_Grid_Plane</title>
<!-- Node1 -->
<g id="Node000001" class="node">
<title>Node1</title>
<g id="a_Node000001"><a xlink:title=" ">
<polygon fill="#999999" stroke="#666666" points="103.75,-61.88 0,-61.88 0,-31.38 103.75,-31.38 103.75,-61.88"/>
<text text-anchor="start" x="8" y="-48.38" font-family="Helvetica,sans-Serif" font-size="10.00">Cylinder::Write_Grid</text>
<text text-anchor="middle" x="51.88" y="-37.12" font-family="Helvetica,sans-Serif" font-size="10.00">_Plane</text>
</a>
</g>
</g>
<!-- Node2 -->
<g id="Node000002" class="node">
<title>Node2</title>
<g id="a_Node000002"><a xlink:href="../../d0/d69/class_point_abbb39fe4de098ab24cd45d251656f080.html#abbb39fe4de098ab24cd45d251656f080" target="_top" xlink:title=" ">
<polygon fill="white" stroke="#666666" points="210.5,-93.25 139.75,-93.25 139.75,-74 210.5,-74 210.5,-93.25"/>
<text text-anchor="middle" x="175.12" y="-79.75" font-family="Helvetica,sans-Serif" font-size="10.00">Point::Get_x</text>
</a>
</g>
</g>
<!-- Node1&#45;&gt;Node2 -->
<g id="edge1_Node000001_Node000002" class="edge">
<title>Node1&#45;&gt;Node2</title>
<g id="a_edge1_Node000001_Node000002"><a xlink:title=" ">
<path fill="none" stroke="#63b8ff" d="M103.94,-62.21C112.67,-64.87 121.68,-67.62 130.2,-70.22"/>
<polygon fill="#63b8ff" stroke="#63b8ff" points="129.03,-73.52 139.62,-73.1 131.08,-66.83 129.03,-73.52"/>
</a>
</g>
</g>
<!-- Node3 -->
<g id="Node000003" class="node">
<title>Node3</title>
<g id="a_Node000003"><a xlink:href="../../d0/d69/class_point_aa0c14d8298c960cc61ebeb5fbe33653b.html#aa0c14d8298c960cc61ebeb5fbe33653b" target="_top" xlink:title=" ">
<polygon fill="white" stroke="#666666" points="210.5,-56.25 139.75,-56.25 139.75,-37 210.5,-37 210.5,-56.25"/>
<text text-anchor="middle" x="175.12" y="-42.75" font-family="Helvetica,sans-Serif" font-size="10.00">Point::Get_y</text>
</a>
</g>
</g>
<!-- Node1&#45;&gt;Node3 -->
<g id="edge2_Node000001_Node000003" class="edge">
<title>Node1&#45;&gt;Node3</title>
<g id="a_edge2_Node000001_Node000003"><a xlink:title=" ">
<path fill="none" stroke="#63b8ff" d="M103.94,-46.62C111.85,-46.62 119.98,-46.62 127.78,-46.62"/>
<polygon fill="#63b8ff" stroke="#63b8ff" points="127.77,-50.13 137.77,-46.63 127.77,-43.13 127.77,-50.13"/>
</a>
</g>
</g>
<!-- Node4 -->
<g id="Node000004" class="node">
<title>Node4</title>
<g id="a_Node000004"><a xlink:href="../../d0/d69/class_point_ac06dbc3b4797e5c498b58c81a70c02a9.html#ac06dbc3b4797e5c498b58c81a70c02a9" target="_top" xlink:title=" ">
<polygon fill="white" stroke="#666666" points="210.5,-19.25 139.75,-19.25 139.75,0 210.5,0 210.5,-19.25"/>
<text text-anchor="middle" x="175.12" y="-5.75" font-family="Helvetica,sans-Serif" font-size="10.00">Point::Get_z</text>
</a>
</g>
</g>
<!-- Node1&#45;&gt;Node4 -->
<g id="edge3_Node000001_Node000004" class="edge">
<title>Node1&#45;&gt;Node4</title>
<g id="a_edge3_Node000001_Node000004"><a xlink:title=" ">
<path fill="none" stroke="#63b8ff" d="M103.94,-31.04C112.67,-28.38 121.68,-25.63 130.2,-23.03"/>
<polygon fill="#63b8ff" stroke="#63b8ff" points="131.08,-26.42 139.62,-20.15 129.03,-19.73 131.08,-26.42"/>
</a>
</g>
</g>
</g>
</svg>
