<?xml version="1.0" encoding="UTF-8" standalone="no"?>
<!DOCTYPE svg PUBLIC "-//W3C//DTD SVG 1.1//EN"
 "http://www.w3.org/Graphics/SVG/1.1/DTD/svg11.dtd">
<!-- Generated by graphviz version 12.2.1 (20241206.2353)
 -->
<!-- Title: Viscous_Time_Step_1 Pages: 1 -->
<svg width="1009pt" height="408pt"
 viewBox="0.00 0.00 1008.75 408.40" xmlns="http://www.w3.org/2000/svg" xmlns:xlink="http://www.w3.org/1999/xlink">
<g id="graph0" class="graph" transform="scale(1 1) rotate(0) translate(4 404.4)">
<title>Viscous_Time_Step_1</title>
<!-- Node1 -->
<g id="Node000001" class="node">
<title>Node1</title>
<g id="a_Node000001"><a xlink:title=" ">
<polygon fill="#999999" stroke="#666666" points="1000.75,-334.02 886.5,-334.02 886.5,-314.77 1000.75,-314.77 1000.75,-334.02"/>
<text text-anchor="middle" x="943.62" y="-320.52" font-family="Helvetica,sans-Serif" font-size="10.00">Viscous_Time_Step_1</text>
</a>
</g>
</g>
<!-- Node2 -->
<g id="Node000002" class="node">
<title>Node2</title>
<g id="a_Node000002"><a xlink:href="../../d8/dec/_time___step_8cpp_a1a130a004ad45d61258215e5579c3060.html#a1a130a004ad45d61258215e5579c3060" target="_top" xlink:title=" ">
<polygon fill="white" stroke="#666666" points="850.5,-258.02 743.75,-258.02 743.75,-238.77 850.5,-238.77 850.5,-258.02"/>
<text text-anchor="middle" x="797.12" y="-244.52" font-family="Helvetica,sans-Serif" font-size="10.00">Evaluate_Time_Step</text>
</a>
</g>
</g>
<!-- Node1&#45;&gt;Node2 -->
<g id="edge1_Node000001_Node000002" class="edge">
<title>Node1&#45;&gt;Node2</title>
<g id="a_edge1_Node000001_Node000002"><a xlink:title=" ">
<path fill="none" stroke="#63b8ff" d="M913.54,-309.1C884.74,-293.95 841.49,-271.21 816.93,-258.29"/>
<polygon fill="#63b8ff" stroke="#63b8ff" points="911.62,-312.04 922.1,-313.6 914.88,-305.85 911.62,-312.04"/>
</a>
</g>
</g>
<!-- Node6 -->
<g id="Node000006" class="node">
<title>Node6</title>
<g id="a_Node000006"><a xlink:href="../../dd/dbf/_euler___python___wrapper_8cpp_ac5ccb50c3be270f798e054dd36987442.html#ac5ccb50c3be270f798e054dd36987442" target="_top" xlink:title=" ">
<polygon fill="white" stroke="#666666" points="112.75,-220.02 0,-220.02 0,-200.77 112.75,-200.77 112.75,-220.02"/>
<text text-anchor="middle" x="56.38" y="-206.52" font-family="Helvetica,sans-Serif" font-size="10.00">PYBIND11_MODULE</text>
</a>
</g>
</g>
<!-- Node1&#45;&gt;Node6 -->
<g id="edge29_Node000001_Node000006" class="edge">
<title>Node1&#45;&gt;Node6</title>
<g id="a_edge29_Node000001_Node000006"><a xlink:title=" ">
<path fill="none" stroke="#63b8ff" d="M907.75,-338.63C850.63,-360.64 733.08,-400.4 629.5,-400.4 629.5,-400.4 629.5,-400.4 323.25,-400.4 240.01,-400.4 215.02,-382.75 148.75,-332.4 106.4,-300.22 74.22,-243.36 62.35,-220.41"/>
<polygon fill="#63b8ff" stroke="#63b8ff" points="908.91,-341.94 916.94,-335.04 906.36,-335.42 908.91,-341.94"/>
</a>
</g>
</g>
<!-- Node3 -->
<g id="Node000003" class="node">
<title>Node3</title>
<g id="a_Node000003"><a xlink:href="../../d9/ddd/_c_u_d_a___integrated___numerical___method_8cpp_ad25c9a53b380204dd243bc1351d6b098.html#ad25c9a53b380204dd243bc1351d6b098" target="_top" xlink:title=" ">
<polygon fill="white" stroke="#666666" points="698.38,-49.02 558.62,-49.02 558.62,-29.77 698.38,-29.77 698.38,-49.02"/>
<text text-anchor="middle" x="628.5" y="-35.52" font-family="Helvetica,sans-Serif" font-size="10.00">Evaluate_Cell_Net_Flux_1O</text>
</a>
</g>
</g>
<!-- Node2&#45;&gt;Node3 -->
<g id="edge2_Node000002_Node000003" class="edge">
<title>Node2&#45;&gt;Node3</title>
<g id="a_edge2_Node000002_Node000003"><a xlink:title=" ">
<path fill="none" stroke="#63b8ff" d="M781.86,-229.65C764.53,-206.95 734.31,-167.63 707.75,-134.4 682.67,-103.01 652.23,-66.49 637.82,-49.3"/>
<polygon fill="#63b8ff" stroke="#63b8ff" points="778.89,-231.53 787.74,-237.36 784.46,-227.28 778.89,-231.53"/>
</a>
</g>
</g>
<!-- Node2&#45;&gt;Node6 -->
<g id="edge28_Node000002_Node000006" class="edge">
<title>Node2&#45;&gt;Node6</title>
<g id="a_edge28_Node000002_Node000006"><a xlink:title=" ">
<path fill="none" stroke="#63b8ff" d="M769.7,-264.28C714.97,-295.61 584.38,-362.4 465.38,-362.4 465.38,-362.4 465.38,-362.4 323.25,-362.4 208.4,-362.4 98.08,-254.18 66.41,-220.37"/>
<polygon fill="#63b8ff" stroke="#63b8ff" points="771.42,-267.33 778.3,-259.27 767.9,-261.28 771.42,-267.33"/>
</a>
</g>
</g>
<!-- Node11 -->
<g id="Node000011" class="node">
<title>Node11</title>
<g id="a_Node000011"><a xlink:href="../../d9/ddd/_c_u_d_a___integrated___numerical___method_8cpp_a4db2fe24c2a78f98ac91e9d7d271430f.html#a4db2fe24c2a78f98ac91e9d7d271430f" target="_top" xlink:title=" ">
<polygon fill="white" stroke="#666666" points="698.38,-258.02 558.62,-258.02 558.62,-238.77 698.38,-238.77 698.38,-258.02"/>
<text text-anchor="middle" x="628.5" y="-244.52" font-family="Helvetica,sans-Serif" font-size="10.00">Evaluate_Cell_Net_Flux_2O</text>
</a>
</g>
</g>
<!-- Node2&#45;&gt;Node11 -->
<g id="edge18_Node000002_Node000011" class="edge">
<title>Node2&#45;&gt;Node11</title>
<g id="a_edge18_Node000002_Node000011"><a xlink:title=" ">
<path fill="none" stroke="#63b8ff" d="M732.18,-248.4C721.2,-248.4 709.76,-248.4 698.66,-248.4"/>
<polygon fill="#63b8ff" stroke="#63b8ff" points="731.89,-251.9 741.89,-248.4 731.89,-244.9 731.89,-251.9"/>
</a>
</g>
</g>
<!-- Node12 -->
<g id="Node000012" class="node">
<title>Node12</title>
<g id="a_Node000012"><a xlink:href="../../d8/df4/_w_e_n_o2_d_8cpp_a74c2795e4a164178c69743947d6e6cf5.html#a74c2795e4a164178c69743947d6e6cf5" target="_top" xlink:title=" ">
<polygon fill="white" stroke="#666666" points="707.75,-163.02 549.25,-163.02 549.25,-143.77 707.75,-143.77 707.75,-163.02"/>
<text text-anchor="middle" x="628.5" y="-149.52" font-family="Helvetica,sans-Serif" font-size="10.00">Evaluate_Cell_Net_Flux_WENO</text>
</a>
</g>
</g>
<!-- Node2&#45;&gt;Node12 -->
<g id="edge24_Node000002_Node000012" class="edge">
<title>Node2&#45;&gt;Node12</title>
<g id="a_edge24_Node000002_Node000012"><a xlink:title=" ">
<path fill="none" stroke="#63b8ff" d="M768.73,-232.78C734.25,-213.12 676.04,-179.93 647.03,-163.39"/>
<polygon fill="#63b8ff" stroke="#63b8ff" points="766.87,-235.75 777.29,-237.66 770.34,-229.67 766.87,-235.75"/>
</a>
</g>
</g>
<!-- Node4 -->
<g id="Node000004" class="node">
<title>Node4</title>
<g id="a_Node000004"><a xlink:href="../../d0/d64/_numerical___method_8cpp_a8dda0c7e17babab9b6e49e8e199dc30e.html#a8dda0c7e17babab9b6e49e8e199dc30e" target="_top" xlink:title=" ">
<polygon fill="white" stroke="#666666" points="367.12,-145.02 281.38,-145.02 281.38,-125.77 367.12,-125.77 367.12,-145.02"/>
<text text-anchor="middle" x="324.25" y="-131.52" font-family="Helvetica,sans-Serif" font-size="10.00">Explicit_Method</text>
</a>
</g>
</g>
<!-- Node3&#45;&gt;Node4 -->
<g id="edge3_Node000003_Node000004" class="edge">
<title>Node3&#45;&gt;Node4</title>
<g id="a_edge3_Node000003_Node000004"><a xlink:title=" ">
<path fill="none" stroke="#63b8ff" d="M556.9,-28.17C514.26,-24.46 459.79,-25.32 415.5,-44.4 375.65,-61.55 344.14,-105.37 331.39,-125.28"/>
<polygon fill="#63b8ff" stroke="#63b8ff" points="556.51,-31.64 566.81,-29.14 557.2,-24.68 556.51,-31.64"/>
</a>
</g>
</g>
<!-- Node3&#45;&gt;Node6 -->
<g id="edge12_Node000003_Node000006" class="edge">
<title>Node3&#45;&gt;Node6</title>
<g id="a_edge12_Node000003_Node000006"><a xlink:title=" ">
<path fill="none" stroke="#63b8ff" d="M584.46,-26.25C563.24,-20.44 537.14,-14.28 513.25,-11.4 405.19,1.65 370.31,10.4 269,-29.4 207.6,-53.51 193.9,-68.3 148.75,-116.4 128.24,-138.24 133.66,-151.94 112.75,-173.4 102.18,-184.24 87.93,-193.68 76.53,-200.3"/>
<polygon fill="#63b8ff" stroke="#63b8ff" points="583.35,-29.57 593.92,-28.92 585.25,-22.84 583.35,-29.57"/>
</a>
</g>
</g>
<!-- Node8 -->
<g id="Node000008" class="node">
<title>Node8</title>
<g id="a_Node000008"><a xlink:href="../../de/df0/_solver_8cpp_a2f37f06e8324a1ed6aa99efdbba81865.html#a2f37f06e8324a1ed6aa99efdbba81865" target="_top" xlink:title=" ">
<polygon fill="white" stroke="#666666" points="233,-145.02 148.75,-145.02 148.75,-125.77 233,-125.77 233,-145.02"/>
<text text-anchor="middle" x="190.88" y="-131.52" font-family="Helvetica,sans-Serif" font-size="10.00">Viscous_Solver</text>
</a>
</g>
</g>
<!-- Node3&#45;&gt;Node8 -->
<g id="edge17_Node000003_Node000008" class="edge">
<title>Node3&#45;&gt;Node8</title>
<g id="a_edge17_Node000003_Node000008"><a xlink:title=" ">
<path fill="none" stroke="#63b8ff" d="M578.32,-26.88C534.92,-17.86 470.23,-9.35 415.5,-22.4 329.81,-42.81 239.76,-101.63 205.87,-125.33"/>
<polygon fill="#63b8ff" stroke="#63b8ff" points="577.43,-30.27 587.95,-28.98 578.92,-23.43 577.43,-30.27"/>
</a>
</g>
</g>
<!-- Node9 -->
<g id="Node000009" class="node">
<title>Node9</title>
<g id="a_Node000009"><a xlink:href="../../db/d38/_parallel___numerical___method_8cpp_a263f3c36336c227c44f052b2ad122253.html#a263f3c36336c227c44f052b2ad122253" target="_top" xlink:title=" ">
<polygon fill="white" stroke="#666666" points="513.25,-144.02 415.5,-144.02 415.5,-124.77 513.25,-124.77 513.25,-144.02"/>
<text text-anchor="middle" x="464.38" y="-130.52" font-family="Helvetica,sans-Serif" font-size="10.00">PrecomputeFluxes</text>
</a>
</g>
</g>
<!-- Node3&#45;&gt;Node9 -->
<g id="edge10_Node000003_Node000009" class="edge">
<title>Node3&#45;&gt;Node9</title>
<g id="a_edge10_Node000003_Node000009"><a xlink:title=" ">
<path fill="none" stroke="#63b8ff" d="M600.82,-55.03C567.17,-74.75 510.33,-108.05 482.19,-124.54"/>
<polygon fill="#63b8ff" stroke="#63b8ff" points="602.29,-58.22 609.15,-50.15 598.75,-52.18 602.29,-58.22"/>
</a>
</g>
</g>
<!-- Node10 -->
<g id="Node000010" class="node">
<title>Node10</title>
<g id="a_Node000010"><a xlink:href="../../de/d22/_cuda___parallel___r_k_8cpp_a794f030971fbb7c9dd4bc08df03f50f1.html#a794f030971fbb7c9dd4bc08df03f50f1" target="_top" xlink:title=" ">
<polygon fill="white" stroke="#666666" points="379.5,-182.02 269,-182.02 269,-162.77 379.5,-162.77 379.5,-182.02"/>
<text text-anchor="middle" x="324.25" y="-168.52" font-family="Helvetica,sans-Serif" font-size="10.00">Runge_Kutta_Method</text>
</a>
</g>
</g>
<!-- Node3&#45;&gt;Node10 -->
<g id="edge13_Node000003_Node000010" class="edge">
<title>Node3&#45;&gt;Node10</title>
<g id="a_edge13_Node000003_Node000010"><a xlink:title=" ">
<path fill="none" stroke="#63b8ff" d="M568.91,-52.28C524.28,-63.95 462.69,-84.16 415.5,-115.4 395.83,-128.42 399.32,-141.61 379.5,-154.4 374.66,-157.52 369.23,-160.15 363.73,-162.35"/>
<polygon fill="#63b8ff" stroke="#63b8ff" points="569.57,-55.72 578.4,-49.87 567.85,-48.94 569.57,-55.72"/>
</a>
</g>
</g>
<!-- Node5 -->
<g id="Node000005" class="node">
<title>Node5</title>
<g id="a_Node000005"><a xlink:href="../../de/df0/_solver_8cpp_ad0f49408a26339b5f7043bf867c3fa8d.html#ad0f49408a26339b5f7043bf867c3fa8d" target="_top" xlink:title=" ">
<polygon fill="white" stroke="#666666" points="232.25,-182.02 149.5,-182.02 149.5,-162.77 232.25,-162.77 232.25,-182.02"/>
<text text-anchor="middle" x="190.88" y="-168.52" font-family="Helvetica,sans-Serif" font-size="10.00">Inviscid_Solver</text>
</a>
</g>
</g>
<!-- Node4&#45;&gt;Node5 -->
<g id="edge4_Node000004_Node000005" class="edge">
<title>Node4&#45;&gt;Node5</title>
<g id="a_edge4_Node000004_Node000005"><a xlink:title=" ">
<path fill="none" stroke="#63b8ff" d="M276.55,-148.55C260.5,-153.07 242.79,-158.06 227.73,-162.3"/>
<polygon fill="#63b8ff" stroke="#63b8ff" points="277.22,-152 285.89,-145.92 275.32,-145.26 277.22,-152"/>
</a>
</g>
</g>
<!-- Node4&#45;&gt;Node8 -->
<g id="edge7_Node000004_Node000008" class="edge">
<title>Node4&#45;&gt;Node8</title>
<g id="a_edge7_Node000004_Node000008"><a xlink:title=" ">
<path fill="none" stroke="#63b8ff" d="M269.55,-135.4C257.42,-135.4 244.72,-135.4 233.19,-135.4"/>
<polygon fill="#63b8ff" stroke="#63b8ff" points="269.45,-138.9 279.45,-135.4 269.45,-131.9 269.45,-138.9"/>
</a>
</g>
</g>
<!-- Node5&#45;&gt;Node6 -->
<g id="edge5_Node000005_Node000006" class="edge">
<title>Node5&#45;&gt;Node6</title>
<g id="a_edge5_Node000005_Node000006"><a xlink:title=" ">
<path fill="none" stroke="#63b8ff" d="M143.91,-185.58C126.96,-190.44 108.05,-195.86 92.24,-200.4"/>
<polygon fill="#63b8ff" stroke="#63b8ff" points="144.61,-189.02 153.26,-182.9 142.68,-182.29 144.61,-189.02"/>
</a>
</g>
</g>
<!-- Node7 -->
<g id="Node000007" class="node">
<title>Node7</title>
<g id="a_Node000007"><a xlink:href="../../d5/d12/_main_8cpp_a35d775933750ace299102f06a1712663.html#a35d775933750ace299102f06a1712663" target="_top" xlink:title="Executes the appropriate solver based on the simulation configuration.">
<polygon fill="white" stroke="#666666" points="85,-164.02 27.75,-164.02 27.75,-144.77 85,-144.77 85,-164.02"/>
<text text-anchor="middle" x="56.38" y="-150.52" font-family="Helvetica,sans-Serif" font-size="10.00">runSolver</text>
</a>
</g>
</g>
<!-- Node5&#45;&gt;Node7 -->
<g id="edge6_Node000005_Node000007" class="edge">
<title>Node5&#45;&gt;Node7</title>
<g id="a_edge6_Node000005_Node000007"><a xlink:title=" ">
<path fill="none" stroke="#63b8ff" d="M137.83,-165.32C119.9,-162.89 100.53,-160.26 85.28,-158.19"/>
<polygon fill="#63b8ff" stroke="#63b8ff" points="137.16,-168.77 147.54,-166.64 138.1,-161.83 137.16,-168.77"/>
</a>
</g>
</g>
<!-- Node8&#45;&gt;Node6 -->
<g id="edge8_Node000008_Node000006" class="edge">
<title>Node8&#45;&gt;Node6</title>
<g id="a_edge8_Node000008_Node000006"><a xlink:title=" ">
<path fill="none" stroke="#63b8ff" d="M154.82,-150.32C152.75,-151.33 150.71,-152.36 148.75,-153.4 120.63,-168.22 89.56,-188.49 71.86,-200.44"/>
<polygon fill="#63b8ff" stroke="#63b8ff" points="156.27,-153.51 163.87,-146.12 153.33,-147.16 156.27,-153.51"/>
</a>
</g>
</g>
<!-- Node8&#45;&gt;Node7 -->
<g id="edge9_Node000008_Node000007" class="edge">
<title>Node8&#45;&gt;Node7</title>
<g id="a_edge9_Node000008_Node000007"><a xlink:title=" ">
<path fill="none" stroke="#63b8ff" d="M136.97,-142.98C119.33,-145.51 100.37,-148.23 85.38,-150.38"/>
<polygon fill="#63b8ff" stroke="#63b8ff" points="137.41,-146.45 146.82,-141.57 136.42,-139.52 137.41,-146.45"/>
</a>
</g>
</g>
<!-- Node9&#45;&gt;Node4 -->
<g id="edge11_Node000009_Node000004" class="edge">
<title>Node9&#45;&gt;Node4</title>
<g id="a_edge11_Node000009_Node000004"><a xlink:title=" ">
<path fill="none" stroke="#63b8ff" d="M403.92,-134.83C391.6,-134.91 378.87,-135.01 367.33,-135.09"/>
<polygon fill="#63b8ff" stroke="#63b8ff" points="403.58,-138.33 413.55,-134.76 403.53,-131.33 403.58,-138.33"/>
</a>
</g>
</g>
<!-- Node10&#45;&gt;Node5 -->
<g id="edge14_Node000010_Node000005" class="edge">
<title>Node10&#45;&gt;Node5</title>
<g id="a_edge14_Node000010_Node000005"><a xlink:title=" ">
<path fill="none" stroke="#63b8ff" d="M257.21,-172.4C248.76,-172.4 240.33,-172.4 232.46,-172.4"/>
<polygon fill="#63b8ff" stroke="#63b8ff" points="257.16,-175.9 267.16,-172.4 257.16,-168.9 257.16,-175.9"/>
</a>
</g>
</g>
<!-- Node10&#45;&gt;Node6 -->
<g id="edge15_Node000010_Node000006" class="edge">
<title>Node10&#45;&gt;Node6</title>
<g id="a_edge15_Node000010_Node000006"><a xlink:title=" ">
<path fill="none" stroke="#63b8ff" d="M268.77,-184.78C257.01,-187.19 244.62,-189.55 233,-191.4 193.02,-197.75 147.58,-202.6 112.93,-205.81"/>
<polygon fill="#63b8ff" stroke="#63b8ff" points="269.26,-188.25 278.32,-182.77 267.82,-181.4 269.26,-188.25"/>
</a>
</g>
</g>
<!-- Node10&#45;&gt;Node8 -->
<g id="edge16_Node000010_Node000008" class="edge">
<title>Node10&#45;&gt;Node8</title>
<g id="a_edge16_Node000010_Node000008"><a xlink:title=" ">
<path fill="none" stroke="#63b8ff" d="M276.55,-159.24C260.5,-154.72 242.79,-149.73 227.73,-145.49"/>
<polygon fill="#63b8ff" stroke="#63b8ff" points="275.32,-162.53 285.89,-161.87 277.22,-155.79 275.32,-162.53"/>
</a>
</g>
</g>
<!-- Node11&#45;&gt;Node4 -->
<g id="edge19_Node000011_Node000004" class="edge">
<title>Node11&#45;&gt;Node4</title>
<g id="a_edge19_Node000011_Node000004"><a xlink:title=" ">
<path fill="none" stroke="#63b8ff" d="M591.83,-234.15C543.82,-215.1 455.63,-180.59 379.5,-153.4 372.02,-150.72 363.92,-147.97 356.32,-145.43"/>
<polygon fill="#63b8ff" stroke="#63b8ff" points="590.3,-237.3 600.89,-237.74 592.89,-230.8 590.3,-237.3"/>
</a>
</g>
</g>
<!-- Node11&#45;&gt;Node6 -->
<g id="edge21_Node000011_Node000006" class="edge">
<title>Node11&#45;&gt;Node6</title>
<g id="a_edge21_Node000011_Node000006"><a xlink:title=" ">
<path fill="none" stroke="#63b8ff" d="M563.45,-260.29C547.14,-262.82 529.6,-265.12 513.25,-266.4 358.23,-278.53 174.87,-239.69 96.29,-220.49"/>
<polygon fill="#63b8ff" stroke="#63b8ff" points="563.71,-263.79 573.02,-258.75 562.59,-256.88 563.71,-263.79"/>
</a>
</g>
</g>
<!-- Node11&#45;&gt;Node8 -->
<g id="edge23_Node000011_Node000008" class="edge">
<title>Node11&#45;&gt;Node8</title>
<g id="a_edge23_Node000011_Node000008"><a xlink:title=" ">
<path fill="none" stroke="#63b8ff" d="M546.89,-255.36C507.03,-257.04 458.39,-256.45 415.5,-248.4 346.83,-235.51 326.99,-230.37 269,-191.4 249.69,-178.42 252.04,-166.77 233,-153.4 228.66,-150.35 223.73,-147.65 218.82,-145.33"/>
<polygon fill="#63b8ff" stroke="#63b8ff" points="546.83,-258.86 556.65,-254.88 546.49,-251.87 546.83,-258.86"/>
</a>
</g>
</g>
<!-- Node11&#45;&gt;Node9 -->
<g id="edge20_Node000011_Node000009" class="edge">
<title>Node11&#45;&gt;Node9</title>
<g id="a_edge20_Node000011_Node000009"><a xlink:title=" ">
<path fill="none" stroke="#63b8ff" d="M603.86,-231.77C569.64,-207.71 507.36,-163.91 479.5,-144.33"/>
<polygon fill="#63b8ff" stroke="#63b8ff" points="601.68,-234.52 611.87,-237.41 605.71,-228.79 601.68,-234.52"/>
</a>
</g>
</g>
<!-- Node11&#45;&gt;Node10 -->
<g id="edge22_Node000011_Node000010" class="edge">
<title>Node11&#45;&gt;Node10</title>
<g id="a_edge22_Node000011_Node000010"><a xlink:title=" ">
<path fill="none" stroke="#63b8ff" d="M546.81,-247C506.52,-244.37 457.54,-238.22 415.5,-224.4 385.95,-214.68 355.37,-194.55 338.48,-182.38"/>
<polygon fill="#63b8ff" stroke="#63b8ff" points="546.5,-250.48 556.68,-247.57 546.91,-243.49 546.5,-250.48"/>
</a>
</g>
</g>
<!-- Node12&#45;&gt;Node4 -->
<g id="edge25_Node000012_Node000004" class="edge">
<title>Node12&#45;&gt;Node4</title>
<g id="a_edge25_Node000012_Node000004"><a xlink:title=" ">
<path fill="none" stroke="#63b8ff" d="M593.81,-139.01C571.43,-130.25 541.14,-119.91 513.25,-115.4 470.36,-108.45 458.69,-110.67 415.5,-115.4 397.79,-117.33 378.47,-121.35 362.27,-125.28"/>
<polygon fill="#63b8ff" stroke="#63b8ff" points="592.44,-142.23 603.02,-142.71 595.05,-135.73 592.44,-142.23"/>
</a>
</g>
</g>
<!-- Node12&#45;&gt;Node9 -->
<g id="edge26_Node000012_Node000009" class="edge">
<title>Node12&#45;&gt;Node9</title>
<g id="a_edge26_Node000012_Node000009"><a xlink:title=" ">
<path fill="none" stroke="#63b8ff" d="M537.48,-142.85C529.2,-141.88 521.05,-140.92 513.38,-140.02"/>
<polygon fill="#63b8ff" stroke="#63b8ff" points="536.97,-146.31 547.31,-144 537.78,-139.36 536.97,-146.31"/>
</a>
</g>
</g>
<!-- Node12&#45;&gt;Node10 -->
<g id="edge27_Node000012_Node000010" class="edge">
<title>Node12&#45;&gt;Node10</title>
<g id="a_edge27_Node000012_Node000010"><a xlink:title=" ">
<path fill="none" stroke="#63b8ff" d="M537.44,-159.06C486.13,-162.28 423.52,-166.22 379.66,-168.98"/>
<polygon fill="#63b8ff" stroke="#63b8ff" points="537.61,-162.55 547.37,-158.43 537.17,-155.57 537.61,-162.55"/>
</a>
</g>
</g>
</g>
</svg>
