<?xml version="1.0" encoding="UTF-8" standalone="no"?>
<!DOCTYPE svg PUBLIC "-//W3C//DTD SVG 1.1//EN"
 "http://www.w3.org/Graphics/SVG/1.1/DTD/svg11.dtd">
<!-- Generated by graphviz version 12.2.1 (20241206.2353)
 -->
<!-- Title: Estimate_Error Pages: 1 -->
<svg width="358pt" height="77pt"
 viewBox="0.00 0.00 358.25 76.88" xmlns="http://www.w3.org/2000/svg" xmlns:xlink="http://www.w3.org/1999/xlink">
<g id="graph0" class="graph" transform="scale(1 1) rotate(0) translate(4 72.88)">
<title>Estimate_Error</title>
<!-- Node1 -->
<g id="Node000001" class="node">
<title>Node1</title>
<g id="a_Node000001"><a xlink:title=" ">
<polygon fill="#999999" stroke="#666666" points="350.25,-56.25 269,-56.25 269,-37 350.25,-37 350.25,-56.25"/>
<text text-anchor="middle" x="309.62" y="-42.75" font-family="Helvetica,sans-Serif" font-size="10.00">Estimate_Error</text>
</a>
</g>
</g>
<!-- Node2 -->
<g id="Node000002" class="node">
<title>Node2</title>
<g id="a_Node000002"><a xlink:href="../../de/df0/_solver_8cpp_ad0f49408a26339b5f7043bf867c3fa8d.html#ad0f49408a26339b5f7043bf867c3fa8d" target="_top" xlink:title=" ">
<polygon fill="white" stroke="#666666" points="232.25,-19.25 149.5,-19.25 149.5,0 232.25,0 232.25,-19.25"/>
<text text-anchor="middle" x="190.88" y="-5.75" font-family="Helvetica,sans-Serif" font-size="10.00">Inviscid_Solver</text>
</a>
</g>
</g>
<!-- Node1&#45;&gt;Node2 -->
<g id="edge1_Node000001_Node000002" class="edge">
<title>Node1&#45;&gt;Node2</title>
<g id="a_edge1_Node000001_Node000002"><a xlink:title=" ">
<path fill="none" stroke="#63b8ff" d="M265.89,-33.08C251.95,-28.66 236.73,-23.84 223.74,-19.72"/>
<polygon fill="#63b8ff" stroke="#63b8ff" points="264.69,-36.37 275.28,-36.06 266.8,-29.7 264.69,-36.37"/>
</a>
</g>
</g>
<!-- Node3 -->
<g id="Node000003" class="node">
<title>Node3</title>
<g id="a_Node000003"><a xlink:href="../../dd/dbf/_euler___python___wrapper_8cpp_ac5ccb50c3be270f798e054dd36987442.html#ac5ccb50c3be270f798e054dd36987442" target="_top" xlink:title=" ">
<polygon fill="white" stroke="#666666" points="112.75,-56.25 0,-56.25 0,-37 112.75,-37 112.75,-56.25"/>
<text text-anchor="middle" x="56.38" y="-42.75" font-family="Helvetica,sans-Serif" font-size="10.00">PYBIND11_MODULE</text>
</a>
</g>
</g>
<!-- Node1&#45;&gt;Node3 -->
<g id="edge4_Node000001_Node000003" class="edge">
<title>Node1&#45;&gt;Node3</title>
<g id="a_edge4_Node000001_Node000003"><a xlink:title=" ">
<path fill="none" stroke="#63b8ff" d="M264.92,-59.54C254.55,-62.07 243.46,-64.33 233,-65.62 195.84,-70.22 186,-69.46 148.75,-65.62 131.66,-63.87 113.06,-60.31 97.13,-56.74"/>
<polygon fill="#63b8ff" stroke="#63b8ff" points="265.55,-63 274.36,-57.11 263.81,-56.22 265.55,-63"/>
</a>
</g>
</g>
<!-- Node5 -->
<g id="Node000005" class="node">
<title>Node5</title>
<g id="a_Node000005"><a xlink:href="../../de/df0/_solver_8cpp_a2f37f06e8324a1ed6aa99efdbba81865.html#a2f37f06e8324a1ed6aa99efdbba81865" target="_top" xlink:title=" ">
<polygon fill="white" stroke="#666666" points="233,-56.25 148.75,-56.25 148.75,-37 233,-37 233,-56.25"/>
<text text-anchor="middle" x="190.88" y="-42.75" font-family="Helvetica,sans-Serif" font-size="10.00">Viscous_Solver</text>
</a>
</g>
</g>
<!-- Node1&#45;&gt;Node5 -->
<g id="edge5_Node000001_Node000005" class="edge">
<title>Node1&#45;&gt;Node5</title>
<g id="a_edge5_Node000001_Node000005"><a xlink:title=" ">
<path fill="none" stroke="#63b8ff" d="M257.47,-46.62C249.33,-46.62 241.01,-46.62 233.14,-46.62"/>
<polygon fill="#63b8ff" stroke="#63b8ff" points="257.26,-50.13 267.26,-46.63 257.26,-43.13 257.26,-50.13"/>
</a>
</g>
</g>
<!-- Node2&#45;&gt;Node3 -->
<g id="edge2_Node000002_Node000003" class="edge">
<title>Node2&#45;&gt;Node3</title>
<g id="a_edge2_Node000002_Node000003"><a xlink:title=" ">
<path fill="none" stroke="#63b8ff" d="M142.78,-22.78C126.59,-27.3 108.72,-32.29 93.54,-36.53"/>
<polygon fill="#63b8ff" stroke="#63b8ff" points="143.52,-26.2 152.21,-20.14 141.64,-19.46 143.52,-26.2"/>
</a>
</g>
</g>
<!-- Node4 -->
<g id="Node000004" class="node">
<title>Node4</title>
<g id="a_Node000004"><a xlink:href="../../d5/d12/_main_8cpp_a35d775933750ace299102f06a1712663.html#a35d775933750ace299102f06a1712663" target="_top" xlink:title="Executes the appropriate solver based on the simulation configuration.">
<polygon fill="white" stroke="#666666" points="85,-19.25 27.75,-19.25 27.75,0 85,0 85,-19.25"/>
<text text-anchor="middle" x="56.38" y="-5.75" font-family="Helvetica,sans-Serif" font-size="10.00">runSolver</text>
</a>
</g>
</g>
<!-- Node2&#45;&gt;Node4 -->
<g id="edge3_Node000002_Node000004" class="edge">
<title>Node2&#45;&gt;Node4</title>
<g id="a_edge3_Node000002_Node000004"><a xlink:title=" ">
<path fill="none" stroke="#63b8ff" d="M137.57,-9.62C119.72,-9.62 100.46,-9.62 85.28,-9.62"/>
<polygon fill="#63b8ff" stroke="#63b8ff" points="137.53,-13.13 147.53,-9.63 137.53,-6.13 137.53,-13.13"/>
</a>
</g>
</g>
<!-- Node5&#45;&gt;Node3 -->
<g id="edge6_Node000005_Node000003" class="edge">
<title>Node5&#45;&gt;Node3</title>
<g id="a_edge6_Node000005_Node000003"><a xlink:title=" ">
<path fill="none" stroke="#63b8ff" d="M136.96,-46.62C129.04,-46.62 120.85,-46.62 112.88,-46.62"/>
<polygon fill="#63b8ff" stroke="#63b8ff" points="136.8,-50.13 146.8,-46.63 136.8,-43.13 136.8,-50.13"/>
</a>
</g>
</g>
<!-- Node5&#45;&gt;Node4 -->
<g id="edge7_Node000005_Node000004" class="edge">
<title>Node5&#45;&gt;Node4</title>
<g id="a_edge7_Node000005_Node000004"><a xlink:title=" ">
<path fill="none" stroke="#63b8ff" d="M142.65,-33.44C123.39,-28.06 101.78,-22.02 85.13,-17.38"/>
<polygon fill="#63b8ff" stroke="#63b8ff" points="141.64,-36.79 152.21,-36.11 143.52,-30.05 141.64,-36.79"/>
</a>
</g>
</g>
</g>
</svg>
