<?xml version="1.0" encoding="UTF-8" standalone="no"?>
<!DOCTYPE svg PUBLIC "-//W3C//DTD SVG 1.1//EN"
 "http://www.w3.org/Graphics/SVG/1.1/DTD/svg11.dtd">
<!-- Generated by graphviz version 12.2.1 (20241206.2353)
 -->
<!-- Title: Write_Solution Pages: 1 -->
<svg width="416pt" height="138pt"
 viewBox="0.00 0.00 415.50 138.25" xmlns="http://www.w3.org/2000/svg" xmlns:xlink="http://www.w3.org/1999/xlink">
<g id="graph0" class="graph" transform="scale(1 1) rotate(0) translate(4 134.25)">
<title>Write_Solution</title>
<!-- Node1 -->
<g id="Node000001" class="node">
<title>Node1</title>
<g id="a_Node000001"><a xlink:title=" ">
<polygon fill="#999999" stroke="#666666" points="407.5,-74.25 328.5,-74.25 328.5,-55 407.5,-55 407.5,-74.25"/>
<text text-anchor="middle" x="368" y="-60.75" font-family="Helvetica,sans-Serif" font-size="10.00">Write_Solution</text>
</a>
</g>
</g>
<!-- Node2 -->
<g id="Node000002" class="node">
<title>Node2</title>
<g id="a_Node000002"><a xlink:href="../../d3/db8/_initialize___test_case_8cpp_a4debd02bbc1736679fe1145738aba8c3.html#a4debd02bbc1736679fe1145738aba8c3" target="_top" xlink:title=" ">
<polygon fill="white" stroke="#666666" points="172.25,-130.25 73,-130.25 73,-111 172.25,-111 172.25,-130.25"/>
<text text-anchor="middle" x="122.62" y="-116.75" font-family="Helvetica,sans-Serif" font-size="10.00">Initialize_TestCase</text>
</a>
</g>
</g>
<!-- Node1&#45;&gt;Node2 -->
<g id="edge1_Node000001_Node000002" class="edge">
<title>Node1&#45;&gt;Node2</title>
<g id="a_edge1_Node000001_Node000002"><a xlink:title=" ">
<path fill="none" stroke="#63b8ff" d="M341.61,-80.52C327.64,-88.49 309.69,-97.52 292.5,-102.62 253.22,-114.3 206.8,-118.61 172.59,-120.1"/>
<polygon fill="#63b8ff" stroke="#63b8ff" points="343.3,-83.58 350.13,-75.48 339.74,-77.55 343.3,-83.58"/>
</a>
</g>
</g>
<!-- Node4 -->
<g id="Node000004" class="node">
<title>Node4</title>
<g id="a_Node000004"><a xlink:href="../../de/df0/_solver_8cpp_a09703a294b5a4e270033b2d488f8f02a.html#a09703a294b5a4e270033b2d488f8f02a" target="_top" xlink:title=" ">
<polygon fill="white" stroke="#666666" points="291.75,-93.25 209,-93.25 209,-74 291.75,-74 291.75,-93.25"/>
<text text-anchor="middle" x="250.38" y="-79.75" font-family="Helvetica,sans-Serif" font-size="10.00">Inviscid_Solver</text>
</a>
</g>
</g>
<!-- Node1&#45;&gt;Node4 -->
<g id="edge3_Node000001_Node000004" class="edge">
<title>Node1&#45;&gt;Node4</title>
<g id="a_edge3_Node000001_Node000004"><a xlink:title=" ">
<path fill="none" stroke="#63b8ff" d="M316.96,-72.85C308.58,-74.23 299.98,-75.64 291.87,-76.97"/>
<polygon fill="#63b8ff" stroke="#63b8ff" points="317.38,-76.33 326.68,-71.25 316.25,-69.42 317.38,-76.33"/>
</a>
</g>
</g>
<!-- Node6 -->
<g id="Node000006" class="node">
<title>Node6</title>
<g id="a_Node000006"><a xlink:href="../../d5/d25/_main___c_u_d_a_8cu_a0ddf1224851353fc92bfbff6f499fa97.html#a0ddf1224851353fc92bfbff6f499fa97" target="_top" xlink:title=" ">
<polygon fill="white" stroke="#666666" points="268.88,-56.25 231.88,-56.25 231.88,-37 268.88,-37 268.88,-56.25"/>
<text text-anchor="middle" x="250.38" y="-42.75" font-family="Helvetica,sans-Serif" font-size="10.00">main</text>
</a>
</g>
</g>
<!-- Node1&#45;&gt;Node6 -->
<g id="edge6_Node000001_Node000006" class="edge">
<title>Node1&#45;&gt;Node6</title>
<g id="a_edge6_Node000001_Node000006"><a xlink:title=" ">
<path fill="none" stroke="#63b8ff" d="M317.16,-56.87C300.09,-54.21 282.08,-51.41 269.23,-49.4"/>
<polygon fill="#63b8ff" stroke="#63b8ff" points="316.26,-60.27 326.68,-58.35 317.34,-53.35 316.26,-60.27"/>
</a>
</g>
</g>
<!-- Node7 -->
<g id="Node000007" class="node">
<title>Node7</title>
<g id="a_Node000007"><a xlink:href="../../de/df0/_solver_8cpp_a313c308da18b517cb3cf0384db6d4d7e.html#a313c308da18b517cb3cf0384db6d4d7e" target="_top" xlink:title=" ">
<polygon fill="white" stroke="#666666" points="292.5,-19.25 208.25,-19.25 208.25,0 292.5,0 292.5,-19.25"/>
<text text-anchor="middle" x="250.38" y="-5.75" font-family="Helvetica,sans-Serif" font-size="10.00">Viscous_Solver</text>
</a>
</g>
</g>
<!-- Node1&#45;&gt;Node7 -->
<g id="edge7_Node000001_Node000007" class="edge">
<title>Node1&#45;&gt;Node7</title>
<g id="a_edge7_Node000001_Node000007"><a xlink:title=" ">
<path fill="none" stroke="#63b8ff" d="M337.3,-49.46C323.71,-42.63 307.37,-34.57 292.5,-27.62 286.85,-24.99 280.72,-22.24 274.95,-19.71"/>
<polygon fill="#63b8ff" stroke="#63b8ff" points="335.66,-52.56 346.17,-53.94 338.82,-46.31 335.66,-52.56"/>
</a>
</g>
</g>
<!-- Node3 -->
<g id="Node000003" class="node">
<title>Node3</title>
<g id="a_Node000003"><a xlink:href="../../d5/d12/_main_8cpp_a0ddf1224851353fc92bfbff6f499fa97.html#a0ddf1224851353fc92bfbff6f499fa97" target="_top" xlink:title=" ">
<polygon fill="white" stroke="#666666" points="37,-111.25 0,-111.25 0,-92 37,-92 37,-111.25"/>
<text text-anchor="middle" x="18.5" y="-97.75" font-family="Helvetica,sans-Serif" font-size="10.00">main</text>
</a>
</g>
</g>
<!-- Node2&#45;&gt;Node3 -->
<g id="edge2_Node000002_Node000003" class="edge">
<title>Node2&#45;&gt;Node3</title>
<g id="a_edge2_Node000002_Node000003"><a xlink:title=" ">
<path fill="none" stroke="#63b8ff" d="M61.39,-109.42C52.58,-107.78 44.16,-106.21 37.2,-104.92"/>
<polygon fill="#63b8ff" stroke="#63b8ff" points="60.7,-112.85 71.17,-111.24 61.98,-105.97 60.7,-112.85"/>
</a>
</g>
</g>
<!-- Node5 -->
<g id="Node000005" class="node">
<title>Node5</title>
<g id="a_Node000005"><a xlink:href="../../d5/d12/_main_8cpp_afed4dca88e059a8cbd2c7af524468fe5.html#afed4dca88e059a8cbd2c7af524468fe5" target="_top" xlink:title="Executes the appropriate solver based on the simulation configuration.">
<polygon fill="white" stroke="#666666" points="151.25,-93.25 94,-93.25 94,-74 151.25,-74 151.25,-93.25"/>
<text text-anchor="middle" x="122.62" y="-79.75" font-family="Helvetica,sans-Serif" font-size="10.00">runSolver</text>
</a>
</g>
</g>
<!-- Node4&#45;&gt;Node5 -->
<g id="edge4_Node000004_Node000005" class="edge">
<title>Node4&#45;&gt;Node5</title>
<g id="a_edge4_Node000004_Node000005"><a xlink:title=" ">
<path fill="none" stroke="#63b8ff" d="M197.34,-83.62C181.65,-83.62 165.02,-83.62 151.54,-83.62"/>
<polygon fill="#63b8ff" stroke="#63b8ff" points="197.03,-87.13 207.03,-83.63 197.03,-80.13 197.03,-87.13"/>
</a>
</g>
</g>
<!-- Node5&#45;&gt;Node3 -->
<g id="edge5_Node000005_Node000003" class="edge">
<title>Node5&#45;&gt;Node3</title>
<g id="a_edge5_Node000005_Node000003"><a xlink:title=" ">
<path fill="none" stroke="#63b8ff" d="M82.73,-90.48C67.14,-93.23 49.93,-96.26 37.41,-98.47"/>
<polygon fill="#63b8ff" stroke="#63b8ff" points="82.99,-93.99 92.23,-88.81 81.77,-87.1 82.99,-93.99"/>
</a>
</g>
</g>
<!-- Node7&#45;&gt;Node5 -->
<g id="edge8_Node000007_Node000005" class="edge">
<title>Node7&#45;&gt;Node5</title>
<g id="a_edge8_Node000007_Node000005"><a xlink:title=" ">
<path fill="none" stroke="#63b8ff" d="M214.29,-24.49C212.23,-25.51 210.2,-26.56 208.25,-27.62 182.1,-41.86 153.6,-61.71 137.24,-73.55"/>
<polygon fill="#63b8ff" stroke="#63b8ff" points="215.75,-27.67 223.32,-20.25 212.78,-21.33 215.75,-27.67"/>
</a>
</g>
</g>
</g>
</svg>
