<?xml version="1.0" encoding="UTF-8" standalone="no"?>
<!DOCTYPE svg PUBLIC "-//W3C//DTD SVG 1.1//EN"
 "http://www.w3.org/Graphics/SVG/1.1/DTD/svg11.dtd">
<!-- Generated by graphviz version 12.2.1 (20241206.2353)
 -->
<!-- Title: readJSON Pages: 1 -->
<svg width="251pt" height="64pt"
 viewBox="0.00 0.00 251.00 64.25" xmlns="http://www.w3.org/2000/svg" xmlns:xlink="http://www.w3.org/1999/xlink">
<g id="graph0" class="graph" transform="scale(1 1) rotate(0) translate(4 60.25)">
<title>readJSON</title>
<!-- Node1 -->
<g id="Node000001" class="node">
<title>Node1</title>
<g id="a_Node000001"><a xlink:title=" ">
<polygon fill="#999999" stroke="#666666" points="243,-37.25 181.25,-37.25 181.25,-18 243,-18 243,-37.25"/>
<text text-anchor="middle" x="212.12" y="-23.75" font-family="Helvetica,sans-Serif" font-size="10.00">readJSON</text>
</a>
</g>
</g>
<!-- Node2 -->
<g id="Node000002" class="node">
<title>Node2</title>
<g id="a_Node000002"><a xlink:href="../../d5/d25/_main___c_u_d_a_8cu_a0ddf1224851353fc92bfbff6f499fa97.html#a0ddf1224851353fc92bfbff6f499fa97" target="_top" xlink:title=" ">
<polygon fill="white" stroke="#666666" points="127.62,-56.25 90.62,-56.25 90.62,-37 127.62,-37 127.62,-56.25"/>
<text text-anchor="middle" x="109.12" y="-42.75" font-family="Helvetica,sans-Serif" font-size="10.00">main</text>
</a>
</g>
</g>
<!-- Node1&#45;&gt;Node2 -->
<g id="edge1_Node000001_Node000002" class="edge">
<title>Node1&#45;&gt;Node2</title>
<g id="a_edge1_Node000001_Node000002"><a xlink:title=" ">
<path fill="none" stroke="#63b8ff" d="M169.53,-35.45C155.07,-38.17 139.6,-41.08 128.07,-43.25"/>
<polygon fill="#63b8ff" stroke="#63b8ff" points="170.15,-38.89 179.33,-33.61 168.86,-32.01 170.15,-38.89"/>
</a>
</g>
</g>
<!-- Node3 -->
<g id="Node000003" class="node">
<title>Node3</title>
<g id="a_Node000003"><a xlink:href="../../d5/d12/_main_8cpp_ae054ce42f1487402d05337400b64042b.html#ae054ce42f1487402d05337400b64042b" target="_top" xlink:title=" ">
<polygon fill="white" stroke="#666666" points="145.25,-19.25 73,-19.25 73,0 145.25,0 145.25,-19.25"/>
<text text-anchor="middle" x="109.12" y="-5.75" font-family="Helvetica,sans-Serif" font-size="10.00">readInputFile</text>
</a>
</g>
</g>
<!-- Node1&#45;&gt;Node3 -->
<g id="edge2_Node000001_Node000003" class="edge">
<title>Node1&#45;&gt;Node3</title>
<g id="a_edge2_Node000001_Node000003"><a xlink:title=" ">
<path fill="none" stroke="#63b8ff" d="M169.55,-20.22C161.65,-18.81 153.44,-17.34 145.74,-15.97"/>
<polygon fill="#63b8ff" stroke="#63b8ff" points="168.87,-23.65 179.33,-21.96 170.1,-16.76 168.87,-23.65"/>
</a>
</g>
</g>
<!-- Node4 -->
<g id="Node000004" class="node">
<title>Node4</title>
<g id="a_Node000004"><a xlink:href="../../d5/d12/_main_8cpp_a0ddf1224851353fc92bfbff6f499fa97.html#a0ddf1224851353fc92bfbff6f499fa97" target="_top" xlink:title=" ">
<polygon fill="white" stroke="#666666" points="37,-19.25 0,-19.25 0,0 37,0 37,-19.25"/>
<text text-anchor="middle" x="18.5" y="-5.75" font-family="Helvetica,sans-Serif" font-size="10.00">main</text>
</a>
</g>
</g>
<!-- Node3&#45;&gt;Node4 -->
<g id="edge3_Node000003_Node000004" class="edge">
<title>Node3&#45;&gt;Node4</title>
<g id="a_edge3_Node000003_Node000004"><a xlink:title=" ">
<path fill="none" stroke="#63b8ff" d="M61.35,-9.62C52.77,-9.62 44.32,-9.62 37.28,-9.62"/>
<polygon fill="#63b8ff" stroke="#63b8ff" points="61.07,-13.13 71.07,-9.63 61.07,-6.13 61.07,-13.13"/>
</a>
</g>
</g>
</g>
</svg>
