<?xml version="1.0" encoding="UTF-8" standalone="no"?>
<!DOCTYPE svg PUBLIC "-//W3C//DTD SVG 1.1//EN"
 "http://www.w3.org/Graphics/SVG/1.1/DTD/svg11.dtd">
<!-- Generated by graphviz version 12.2.1 (20241206.2353)
 -->
<!-- Title: CUDA_KERNELS/Matrix_Assembly_Cuda_Kernels.cu Pages: 1 -->
<svg width="957pt" height="160pt"
 viewBox="0.00 0.00 957.00 160.25" xmlns="http://www.w3.org/2000/svg" xmlns:xlink="http://www.w3.org/1999/xlink">
<g id="graph0" class="graph" transform="scale(1 1) rotate(0) translate(4 156.25)">
<title>CUDA_KERNELS/Matrix_Assembly_Cuda_Kernels.cu</title>
<!-- Node1 -->
<g id="Node000001" class="node">
<title>Node1</title>
<g id="a_Node000001"><a xlink:title="CUDA kernels for high&#45;performance matrix assembly operations in implicit CFD solver.">
<polygon fill="#999999" stroke="#666666" points="522.88,-152.25 377.88,-152.25 377.88,-121.75 522.88,-121.75 522.88,-152.25"/>
<text text-anchor="start" x="385.88" y="-138.75" font-family="Helvetica,sans-Serif" font-size="10.00">CUDA_KERNELS/Matrix</text>
<text text-anchor="middle" x="450.38" y="-127.5" font-family="Helvetica,sans-Serif" font-size="10.00">_Assembly_Cuda_Kernels.cu</text>
</a>
</g>
</g>
<!-- Node2 -->
<g id="Node000002" class="node">
<title>Node2</title>
<g id="a_Node000002"><a xlink:href="../../db/d98/_matrix___assembly___cuda___kernels_8h.html" target="_top" xlink:title=" ">
<polygon fill="white" stroke="#666666" points="185.5,-85.75 65.25,-85.75 65.25,-55.25 185.5,-55.25 185.5,-85.75"/>
<text text-anchor="start" x="73.25" y="-72.25" font-family="Helvetica,sans-Serif" font-size="10.00">Matrix_Assembly_Cuda</text>
<text text-anchor="middle" x="125.38" y="-61" font-family="Helvetica,sans-Serif" font-size="10.00">_Kernels.h</text>
</a>
</g>
</g>
<!-- Node1&#45;&gt;Node2 -->
<g id="edge1_Node000001_Node000002" class="edge">
<title>Node1&#45;&gt;Node2</title>
<g id="a_edge1_Node000001_Node000002"><a xlink:title=" ">
<path fill="none" stroke="#63b8ff" d="M377.53,-121.77C329.2,-112.3 264.07,-99.48 196.93,-86.05"/>
<polygon fill="#63b8ff" stroke="#63b8ff" points="197.68,-82.63 187.18,-84.1 196.3,-89.5 197.68,-82.63"/>
</a>
</g>
</g>
<!-- Node3 -->
<g id="Node000003" class="node">
<title>Node3</title>
<g id="a_Node000003"><a xlink:title=" ">
<polygon fill="#e0e0e0" stroke="#999999" points="82.75,-19.25 0,-19.25 0,0 82.75,0 82.75,-19.25"/>
<text text-anchor="middle" x="41.38" y="-5.75" font-family="Helvetica,sans-Serif" font-size="10.00">cuda_runtime.h</text>
</a>
</g>
</g>
<!-- Node1&#45;&gt;Node3 -->
<g id="edge4_Node000001_Node000003" class="edge">
<title>Node1&#45;&gt;Node3</title>
<g id="a_edge4_Node000001_Node000003"><a xlink:title=" ">
<path fill="none" stroke="#63b8ff" d="M377.56,-136.52C276.65,-135.65 101.58,-127.89 56.38,-85.75 41.57,-71.95 39.07,-48.02 39.47,-30.87"/>
<polygon fill="#63b8ff" stroke="#63b8ff" points="42.95,-31.3 40.07,-21.11 35.96,-30.87 42.95,-31.3"/>
</a>
</g>
</g>
<!-- Node5 -->
<g id="Node000005" class="node">
<title>Node5</title>
<g id="a_Node000005"><a xlink:title=" ">
<polygon fill="#e0e0e0" stroke="#999999" points="288.88,-80.12 203.88,-80.12 203.88,-60.88 288.88,-60.88 288.88,-80.12"/>
<text text-anchor="middle" x="246.38" y="-66.62" font-family="Helvetica,sans-Serif" font-size="10.00">curand_kernel.h</text>
</a>
</g>
</g>
<!-- Node1&#45;&gt;Node5 -->
<g id="edge5_Node000001_Node000005" class="edge">
<title>Node1&#45;&gt;Node5</title>
<g id="a_edge5_Node000001_Node000005"><a xlink:title=" ">
<path fill="none" stroke="#63b8ff" d="M403.83,-121.28C368.22,-110.03 319.67,-94.67 285.93,-84.01"/>
<polygon fill="#63b8ff" stroke="#63b8ff" points="287.13,-80.71 276.54,-81.04 285.02,-87.39 287.13,-80.71"/>
</a>
</g>
</g>
<!-- Node6 -->
<g id="Node000006" class="node">
<title>Node6</title>
<g id="a_Node000006"><a xlink:title=" ">
<polygon fill="#e0e0e0" stroke="#999999" points="376,-80.12 306.75,-80.12 306.75,-60.88 376,-60.88 376,-80.12"/>
<text text-anchor="middle" x="341.38" y="-66.62" font-family="Helvetica,sans-Serif" font-size="10.00">cub/cub.cuh</text>
</a>
</g>
</g>
<!-- Node1&#45;&gt;Node6 -->
<g id="edge6_Node000001_Node000006" class="edge">
<title>Node1&#45;&gt;Node6</title>
<g id="a_edge6_Node000001_Node000006"><a xlink:title=" ">
<path fill="none" stroke="#63b8ff" d="M425.64,-121.36C407.89,-110.86 384.07,-96.77 366.28,-86.24"/>
<polygon fill="#63b8ff" stroke="#63b8ff" points="368.29,-83.36 357.9,-81.28 364.73,-89.39 368.29,-83.36"/>
</a>
</g>
</g>
<!-- Node7 -->
<g id="Node000007" class="node">
<title>Node7</title>
<g id="a_Node000007"><a xlink:title=" ">
<polygon fill="#e0e0e0" stroke="#999999" points="506.38,-80.12 394.38,-80.12 394.38,-60.88 506.38,-60.88 506.38,-80.12"/>
<text text-anchor="middle" x="450.38" y="-66.62" font-family="Helvetica,sans-Serif" font-size="10.00">thrust/device_vector.h</text>
</a>
</g>
</g>
<!-- Node1&#45;&gt;Node7 -->
<g id="edge7_Node000001_Node000007" class="edge">
<title>Node1&#45;&gt;Node7</title>
<g id="a_edge7_Node000001_Node000007"><a xlink:title=" ">
<path fill="none" stroke="#63b8ff" d="M450.38,-121.36C450.38,-112.58 450.38,-101.27 450.38,-91.65"/>
<polygon fill="#63b8ff" stroke="#63b8ff" points="453.88,-91.84 450.38,-81.84 446.88,-91.84 453.88,-91.84"/>
</a>
</g>
</g>
<!-- Node8 -->
<g id="Node000008" class="node">
<title>Node8</title>
<g id="a_Node000008"><a xlink:title=" ">
<polygon fill="#e0e0e0" stroke="#999999" points="618,-80.12 524.75,-80.12 524.75,-60.88 618,-60.88 618,-80.12"/>
<text text-anchor="middle" x="571.38" y="-66.62" font-family="Helvetica,sans-Serif" font-size="10.00">thrust/transform.h</text>
</a>
</g>
</g>
<!-- Node1&#45;&gt;Node8 -->
<g id="edge8_Node000001_Node000008" class="edge">
<title>Node1&#45;&gt;Node8</title>
<g id="a_edge8_Node000001_Node000008"><a xlink:title=" ">
<path fill="none" stroke="#63b8ff" d="M477.83,-121.36C497.81,-110.71 524.72,-96.37 544.55,-85.8"/>
<polygon fill="#63b8ff" stroke="#63b8ff" points="545.96,-89.01 553.14,-81.22 542.67,-82.84 545.96,-89.01"/>
</a>
</g>
</g>
<!-- Node9 -->
<g id="Node000009" class="node">
<title>Node9</title>
<g id="a_Node000009"><a xlink:title=" ">
<polygon fill="#e0e0e0" stroke="#999999" points="717,-80.12 635.75,-80.12 635.75,-60.88 717,-60.88 717,-80.12"/>
<text text-anchor="middle" x="676.38" y="-66.62" font-family="Helvetica,sans-Serif" font-size="10.00">thrust/reduce.h</text>
</a>
</g>
</g>
<!-- Node1&#45;&gt;Node9 -->
<g id="edge9_Node000001_Node000009" class="edge">
<title>Node1&#45;&gt;Node9</title>
<g id="a_edge9_Node000001_Node000009"><a xlink:title=" ">
<path fill="none" stroke="#63b8ff" d="M502.29,-121.36C537.58,-111.38 585.31,-97.84 627.38,-85.75 629.64,-85.1 631.96,-84.43 634.3,-83.76"/>
<polygon fill="#63b8ff" stroke="#63b8ff" points="635.19,-87.14 643.82,-81 633.25,-80.42 635.19,-87.14"/>
</a>
</g>
</g>
<!-- Node10 -->
<g id="Node000010" class="node">
<title>Node10</title>
<g id="a_Node000010"><a xlink:title=" ">
<polygon fill="#e0e0e0" stroke="#999999" points="807.88,-80.12 734.88,-80.12 734.88,-60.88 807.88,-60.88 807.88,-80.12"/>
<text text-anchor="middle" x="771.38" y="-66.62" font-family="Helvetica,sans-Serif" font-size="10.00">thrust/scan.h</text>
</a>
</g>
</g>
<!-- Node1&#45;&gt;Node10 -->
<g id="edge10_Node000001_Node000010" class="edge">
<title>Node1&#45;&gt;Node10</title>
<g id="a_edge10_Node000001_Node000010"><a xlink:title=" ">
<path fill="none" stroke="#63b8ff" d="M523.26,-125.31C579.21,-116.49 658.19,-102.68 726.38,-85.75 728.83,-85.14 731.35,-84.47 733.88,-83.76"/>
<polygon fill="#63b8ff" stroke="#63b8ff" points="734.84,-87.13 743.43,-80.93 732.85,-80.42 734.84,-87.13"/>
</a>
</g>
</g>
<!-- Node11 -->
<g id="Node000011" class="node">
<title>Node11</title>
<g id="a_Node000011"><a xlink:title=" ">
<polygon fill="#e0e0e0" stroke="#999999" points="949,-80.12 825.75,-80.12 825.75,-60.88 949,-60.88 949,-80.12"/>
<text text-anchor="middle" x="887.38" y="-66.62" font-family="Helvetica,sans-Serif" font-size="10.00">thrust/execution_policy.h</text>
</a>
</g>
</g>
<!-- Node1&#45;&gt;Node11 -->
<g id="edge11_Node000001_Node000011" class="edge">
<title>Node1&#45;&gt;Node11</title>
<g id="a_edge11_Node000001_Node000011"><a xlink:title=" ">
<path fill="none" stroke="#63b8ff" d="M523.35,-127.42C597.57,-118.37 715.78,-103.03 817.38,-85.75 822.67,-84.85 828.19,-83.84 833.69,-82.8"/>
<polygon fill="#63b8ff" stroke="#63b8ff" points="834.26,-86.25 843.4,-80.9 832.92,-79.38 834.26,-86.25"/>
</a>
</g>
</g>
<!-- Node2&#45;&gt;Node3 -->
<g id="edge2_Node000002_Node000003" class="edge">
<title>Node2&#45;&gt;Node3</title>
<g id="a_edge2_Node000002_Node000003"><a xlink:title=" ">
<path fill="none" stroke="#63b8ff" d="M104.61,-54.95C92.19,-46.24 76.41,-35.18 63.72,-26.28"/>
<polygon fill="#63b8ff" stroke="#63b8ff" points="65.76,-23.44 55.56,-20.57 61.74,-29.18 65.76,-23.44"/>
</a>
</g>
</g>
<!-- Node4 -->
<g id="Node000004" class="node">
<title>Node4</title>
<g id="a_Node000004"><a xlink:title=" ">
<polygon fill="#e0e0e0" stroke="#999999" points="146.88,-19.25 103.88,-19.25 103.88,0 146.88,0 146.88,-19.25"/>
<text text-anchor="middle" x="125.38" y="-5.75" font-family="Helvetica,sans-Serif" font-size="10.00">vector</text>
</a>
</g>
</g>
<!-- Node2&#45;&gt;Node4 -->
<g id="edge3_Node000002_Node000004" class="edge">
<title>Node2&#45;&gt;Node4</title>
<g id="a_edge3_Node000002_Node000004"><a xlink:title=" ">
<path fill="none" stroke="#63b8ff" d="M125.38,-54.95C125.38,-47.71 125.38,-38.84 125.38,-30.94"/>
<polygon fill="#63b8ff" stroke="#63b8ff" points="128.88,-31.21 125.38,-21.21 121.88,-31.21 128.88,-31.21"/>
</a>
</g>
</g>
</g>
</svg>
