<?xml version="1.0" encoding="UTF-8" standalone="no"?>
<!DOCTYPE svg PUBLIC "-//W3C//DTD SVG 1.1//EN"
 "http://www.w3.org/Graphics/SVG/1.1/DTD/svg11.dtd">
<!-- Generated by graphviz version 12.2.1 (20241206.2353)
 -->
<!-- Title: main Pages: 1 -->
<svg width="569pt" height="569pt"
 viewBox="0.00 0.00 569.25 569.25" xmlns="http://www.w3.org/2000/svg" xmlns:xlink="http://www.w3.org/1999/xlink">
<g id="graph0" class="graph" transform="scale(1 1) rotate(0) translate(4 565.25)">
<title>main</title>
<!-- Node1 -->
<g id="Node000001" class="node">
<title>Node1</title>
<g id="a_Node000001"><a xlink:title=" ">
<polygon fill="#999999" stroke="#666666" points="37,-243.25 0,-243.25 0,-224 37,-224 37,-243.25"/>
<text text-anchor="middle" x="18.5" y="-229.75" font-family="Helvetica,sans-Serif" font-size="10.00">main</text>
</a>
</g>
</g>
<!-- Node2 -->
<g id="Node000002" class="node">
<title>Node2</title>
<g id="a_Node000002"><a xlink:href="../../d2/daf/_flow___over___cylinder__1_8cpp_a36606ab9028521932c9b05107d8e2c58.html#a36606ab9028521932c9b05107d8e2c58" target="_top" xlink:title=" ">
<polygon fill="white" stroke="#666666" points="159.5,-505.25 89.5,-505.25 89.5,-486 159.5,-486 159.5,-505.25"/>
<text text-anchor="middle" x="124.5" y="-491.75" font-family="Helvetica,sans-Serif" font-size="10.00">Append_List</text>
</a>
</g>
</g>
<!-- Node1&#45;&gt;Node2 -->
<g id="edge1_Node000001_Node000002" class="edge">
<title>Node1&#45;&gt;Node2</title>
<g id="a_edge1_Node000001_Node000002"><a xlink:title=" ">
<path fill="none" stroke="#63b8ff" d="M20.4,-243.48C24.32,-284.54 41.18,-441.5 73,-477.62 74.88,-479.76 77.04,-481.65 79.38,-483.31"/>
<polygon fill="#63b8ff" stroke="#63b8ff" points="77.31,-486.17 87.76,-487.94 80.7,-480.04 77.31,-486.17"/>
</a>
</g>
</g>
<!-- Node3 -->
<g id="Node000003" class="node">
<title>Node3</title>
<g id="a_Node000003"><a xlink:href="../../dd/db4/class_line_a11ee9e238e8e0d712b52ae99077355ee.html#a11ee9e238e8e0d712b52ae99077355ee" target="_top" xlink:title=" ">
<polygon fill="white" stroke="#666666" points="163.25,-468.25 85.75,-468.25 85.75,-449 163.25,-449 163.25,-468.25"/>
<text text-anchor="middle" x="124.5" y="-454.75" font-family="Helvetica,sans-Serif" font-size="10.00">Line::generate</text>
</a>
</g>
</g>
<!-- Node1&#45;&gt;Node3 -->
<g id="edge2_Node000001_Node000003" class="edge">
<title>Node1&#45;&gt;Node3</title>
<g id="a_edge2_Node000001_Node000003"><a xlink:title=" ">
<path fill="none" stroke="#63b8ff" d="M20.78,-243.41C24.73,-271.12 38.66,-351.79 73,-408.62 80.43,-420.91 91.54,-432.36 101.45,-441.2"/>
<polygon fill="#63b8ff" stroke="#63b8ff" points="99.03,-443.73 108.92,-447.54 103.56,-438.4 99.03,-443.73"/>
</a>
</g>
</g>
<!-- Node7 -->
<g id="Node000007" class="node">
<title>Node7</title>
<g id="a_Node000007"><a xlink:href="../../d0/d69/class_point_a006470547553ab6cfaacfea891970f8a.html#a006470547553ab6cfaacfea891970f8a" target="_top" xlink:title=" ">
<polygon fill="white" stroke="#666666" points="316.88,-450.25 252.12,-450.25 252.12,-431 316.88,-431 316.88,-450.25"/>
<text text-anchor="middle" x="284.5" y="-436.75" font-family="Helvetica,sans-Serif" font-size="10.00">Point::Print</text>
</a>
</g>
</g>
<!-- Node1&#45;&gt;Node7 -->
<g id="edge26_Node000001_Node000007" class="edge">
<title>Node1&#45;&gt;Node7</title>
<g id="a_edge26_Node000001_Node000007"><a xlink:title=" ">
<path fill="none" stroke="#63b8ff" d="M21.99,-243.48C27.74,-264.55 43.75,-314.56 73,-345.62 118.7,-394.17 193.85,-419.73 240.9,-431.69"/>
<polygon fill="#63b8ff" stroke="#63b8ff" points="239.92,-435.05 250.47,-434.01 241.58,-428.25 239.92,-435.05"/>
</a>
</g>
</g>
<!-- Node8 -->
<g id="Node000008" class="node">
<title>Node8</title>
<g id="a_Node000008"><a xlink:href="../../d2/daf/_flow___over___cylinder__1_8cpp_a198e232411110d9bb41f8028ce67ccd7.html#a198e232411110d9bb41f8028ce67ccd7" target="_top" xlink:title=" ">
<polygon fill="white" stroke="#666666" points="162.5,-336.25 86.5,-336.25 86.5,-317 162.5,-317 162.5,-336.25"/>
<text text-anchor="middle" x="124.5" y="-322.75" font-family="Helvetica,sans-Serif" font-size="10.00">Generate_Arc</text>
</a>
</g>
</g>
<!-- Node1&#45;&gt;Node8 -->
<g id="edge7_Node000001_Node000008" class="edge">
<title>Node1&#45;&gt;Node8</title>
<g id="a_edge7_Node000001_Node000008"><a xlink:title=" ">
<path fill="none" stroke="#63b8ff" d="M24.11,-243.62C31.96,-259.57 49.39,-290.79 73,-308.62 74.3,-309.61 75.66,-310.54 77.06,-311.42"/>
<polygon fill="#63b8ff" stroke="#63b8ff" points="75,-314.29 85.47,-315.88 78.27,-308.1 75,-314.29"/>
</a>
</g>
</g>
<!-- Node9 -->
<g id="Node000009" class="node">
<title>Node9</title>
<g id="a_Node000009"><a xlink:href="../../da/d74/class_grid_ab929318e5ef123712523299305dfe12f.html#ab929318e5ef123712523299305dfe12f" target="_top" xlink:title=" ">
<polygon fill="white" stroke="#666666" points="176,-299.25 73,-299.25 73,-280 176,-280 176,-299.25"/>
<text text-anchor="middle" x="124.5" y="-285.75" font-family="Helvetica,sans-Serif" font-size="10.00">Grid::Generate_Grid</text>
</a>
</g>
</g>
<!-- Node1&#45;&gt;Node9 -->
<g id="edge8_Node000001_Node000009" class="edge">
<title>Node1&#45;&gt;Node9</title>
<g id="a_edge8_Node000001_Node000009"><a xlink:title=" ">
<path fill="none" stroke="#63b8ff" d="M31.63,-243.72C42.08,-252.04 57.84,-263.73 73,-271.62 75.49,-272.92 78.1,-274.16 80.76,-275.35"/>
<polygon fill="#63b8ff" stroke="#63b8ff" points="79.17,-278.48 89.75,-279.02 81.81,-272 79.17,-278.48"/>
</a>
</g>
</g>
<!-- Node15 -->
<g id="Node000015" class="node">
<title>Node15</title>
<g id="a_Node000015"><a xlink:href="../../da/d74/class_grid_ada712360e862dad0f75e839a3c52fc14.html#ada712360e862dad0f75e839a3c52fc14" target="_top" xlink:title=" ">
<polygon fill="white" stroke="#666666" points="174.5,-262.25 74.5,-262.25 74.5,-243 174.5,-243 174.5,-262.25"/>
<text text-anchor="middle" x="124.5" y="-248.75" font-family="Helvetica,sans-Serif" font-size="10.00">Grid::Get_Grid_List</text>
</a>
</g>
</g>
<!-- Node1&#45;&gt;Node15 -->
<g id="edge14_Node000001_Node000015" class="edge">
<title>Node1&#45;&gt;Node15</title>
<g id="a_edge14_Node000001_Node000015"><a xlink:title=" ">
<path fill="none" stroke="#63b8ff" d="M37.14,-236.85C44.56,-238.2 53.66,-239.87 63.14,-241.6"/>
<polygon fill="#63b8ff" stroke="#63b8ff" points="62.41,-245.02 72.88,-243.38 63.67,-238.14 62.41,-245.02"/>
</a>
</g>
</g>
<!-- Node16 -->
<g id="Node000016" class="node">
<title>Node16</title>
<g id="a_Node000016"><a xlink:href="../../dd/db4/class_line_a11d1062afe4e7ccc91002d5a2b9b8b7d.html#a11d1062afe4e7ccc91002d5a2b9b8b7d" target="_top" xlink:title=" ">
<polygon fill="white" stroke="#666666" points="175.25,-225.25 73.75,-225.25 73.75,-206 175.25,-206 175.25,-225.25"/>
<text text-anchor="middle" x="124.5" y="-211.75" font-family="Helvetica,sans-Serif" font-size="10.00">Line::Get_Point_list</text>
</a>
</g>
</g>
<!-- Node1&#45;&gt;Node16 -->
<g id="edge15_Node000001_Node000016" class="edge">
<title>Node1&#45;&gt;Node16</title>
<g id="a_edge15_Node000001_Node000016"><a xlink:title=" ">
<path fill="none" stroke="#63b8ff" d="M37.14,-230.57C44.31,-229.33 53.06,-227.82 62.2,-226.23"/>
<polygon fill="#63b8ff" stroke="#63b8ff" points="62.72,-229.7 71.98,-224.54 61.53,-222.8 62.72,-229.7"/>
</a>
</g>
</g>
<!-- Node17 -->
<g id="Node000017" class="node">
<title>Node17</title>
<g id="a_Node000017"><a xlink:href="../../d0/ded/_read___gmsh___file_8cpp_aa3cbdec71b7c56f603b53acd3ce5a070.html#aa3cbdec71b7c56f603b53acd3ce5a070" target="_top" xlink:title=" ">
<polygon fill="white" stroke="#666666" points="162.5,-188.25 86.5,-188.25 86.5,-169 162.5,-169 162.5,-188.25"/>
<text text-anchor="middle" x="124.5" y="-174.75" font-family="Helvetica,sans-Serif" font-size="10.00">Identify_Cells</text>
</a>
</g>
</g>
<!-- Node1&#45;&gt;Node17 -->
<g id="edge16_Node000001_Node000017" class="edge">
<title>Node1&#45;&gt;Node17</title>
<g id="a_edge16_Node000001_Node000017"><a xlink:title=" ">
<path fill="none" stroke="#63b8ff" d="M31.67,-223.82C42.15,-215.73 57.93,-204.35 73,-196.62 75.5,-195.34 78.11,-194.11 80.78,-192.94"/>
<polygon fill="#63b8ff" stroke="#63b8ff" points="81.83,-196.29 89.77,-189.29 79.19,-189.81 81.83,-196.29"/>
</a>
</g>
</g>
<!-- Node22 -->
<g id="Node000022" class="node">
<title>Node22</title>
<g id="a_Node000022"><a xlink:href="../../d0/ded/_read___gmsh___file_8cpp_a9ee7224f2c410fa22e26e50b31924869.html#a9ee7224f2c410fa22e26e50b31924869" target="_top" xlink:title=" ">
<polygon fill="white" stroke="#666666" points="176,-133.25 73,-133.25 73,-114 176,-114 176,-133.25"/>
<text text-anchor="middle" x="124.5" y="-119.75" font-family="Helvetica,sans-Serif" font-size="10.00">Identify_Neighbours</text>
</a>
</g>
</g>
<!-- Node1&#45;&gt;Node22 -->
<g id="edge21_Node000001_Node000022" class="edge">
<title>Node1&#45;&gt;Node22</title>
<g id="a_edge21_Node000001_Node000022"><a xlink:title=" ">
<path fill="none" stroke="#63b8ff" d="M25.2,-223.75C34.13,-208.78 52.53,-179.96 73,-159.62 80.17,-152.5 88.87,-145.77 97.01,-140.09"/>
<polygon fill="#63b8ff" stroke="#63b8ff" points="98.9,-143.04 105.27,-134.57 95.01,-137.21 98.9,-143.04"/>
</a>
</g>
</g>
<!-- Node27 -->
<g id="Node000027" class="node">
<title>Node27</title>
<g id="a_Node000027"><a xlink:href="../../d2/daf/_flow___over___cylinder__1_8cpp_a8ee981e0b0c6268774eb6bd3bbd0ba13.html#a8ee981e0b0c6268774eb6bd3bbd0ba13" target="_top" xlink:title=" ">
<polygon fill="white" stroke="#666666" points="161.38,-96.25 87.62,-96.25 87.62,-77 161.38,-77 161.38,-96.25"/>
<text text-anchor="middle" x="124.5" y="-82.75" font-family="Helvetica,sans-Serif" font-size="10.00">Reverse_List</text>
</a>
</g>
</g>
<!-- Node1&#45;&gt;Node27 -->
<g id="edge27_Node000001_Node000027" class="edge">
<title>Node1&#45;&gt;Node27</title>
<g id="a_edge27_Node000001_Node000027"><a xlink:title=" ">
<path fill="none" stroke="#63b8ff" d="M20.84,-223.69C24.59,-199.78 37.33,-138.53 73,-104.62 74.39,-103.3 75.89,-102.08 77.46,-100.94"/>
<polygon fill="#63b8ff" stroke="#63b8ff" points="78.91,-104.14 85.83,-96.11 75.42,-98.08 78.91,-104.14"/>
</a>
</g>
</g>
<!-- Node28 -->
<g id="Node000028" class="node">
<title>Node28</title>
<g id="a_Node000028"><a xlink:href="../../da/d2e/_geometry___header_8h_a7baf55700c2b5381dad50d86595147ce.html#a7baf55700c2b5381dad50d86595147ce" target="_top" xlink:title=" ">
<polygon fill="white" stroke="#666666" points="162.5,-59.25 86.5,-59.25 86.5,-40 162.5,-40 162.5,-59.25"/>
<text text-anchor="middle" x="124.5" y="-45.75" font-family="Helvetica,sans-Serif" font-size="10.00">write_inputfile</text>
</a>
</g>
</g>
<!-- Node1&#45;&gt;Node28 -->
<g id="edge28_Node000001_Node000028" class="edge">
<title>Node1&#45;&gt;Node28</title>
<g id="a_edge28_Node000001_Node000028"><a xlink:title=" ">
<path fill="none" stroke="#63b8ff" d="M19.77,-223.89C21.09,-195.73 28.73,-113.27 73,-67.62 74.15,-66.43 75.39,-65.32 76.7,-64.28"/>
<polygon fill="#63b8ff" stroke="#63b8ff" points="78.16,-67.49 84.81,-59.24 74.47,-61.55 78.16,-67.49"/>
</a>
</g>
</g>
<!-- Node29 -->
<g id="Node000029" class="node">
<title>Node29</title>
<g id="a_Node000029"><a xlink:href="../../da/d2e/_geometry___header_8h_a9ea27b1ee84e8c88611feddac621c2a3.html#a9ea27b1ee84e8c88611feddac621c2a3" target="_top" xlink:title=" ">
<polygon fill="white" stroke="#666666" points="155.38,-22.25 93.62,-22.25 93.62,-3 155.38,-3 155.38,-22.25"/>
<text text-anchor="middle" x="124.5" y="-8.75" font-family="Helvetica,sans-Serif" font-size="10.00">write_VTK</text>
</a>
</g>
</g>
<!-- Node1&#45;&gt;Node29 -->
<g id="edge29_Node000001_Node000029" class="edge">
<title>Node1&#45;&gt;Node29</title>
<g id="a_edge29_Node000001_Node000029"><a xlink:title=" ">
<path fill="none" stroke="#63b8ff" d="M19.09,-223.66C18.3,-191.33 20.23,-88.06 73,-30.62 75.84,-27.53 79.26,-24.97 82.95,-22.84"/>
<polygon fill="#63b8ff" stroke="#63b8ff" points="84.14,-26.15 91.79,-18.82 81.24,-19.77 84.14,-26.15"/>
</a>
</g>
</g>
<!-- Node4 -->
<g id="Node000004" class="node">
<title>Node4</title>
<g id="a_Node000004"><a xlink:href="../../d0/d69/class_point_abbb39fe4de098ab24cd45d251656f080.html#abbb39fe4de098ab24cd45d251656f080" target="_top" xlink:title=" ">
<polygon fill="white" stroke="#666666" points="319.88,-561.25 249.12,-561.25 249.12,-542 319.88,-542 319.88,-561.25"/>
<text text-anchor="middle" x="284.5" y="-547.75" font-family="Helvetica,sans-Serif" font-size="10.00">Point::Get_x</text>
</a>
</g>
</g>
<!-- Node3&#45;&gt;Node4 -->
<g id="edge3_Node000003_Node000004" class="edge">
<title>Node3&#45;&gt;Node4</title>
<g id="a_edge3_Node000003_Node000004"><a xlink:title=" ">
<path fill="none" stroke="#63b8ff" d="M162.88,-468.69C167.56,-470.87 172.08,-473.48 176,-476.62 199.39,-495.35 187.74,-516.04 212,-533.62 219.59,-539.12 228.69,-542.95 237.81,-545.61"/>
<polygon fill="#63b8ff" stroke="#63b8ff" points="236.83,-548.98 247.38,-547.95 238.5,-542.18 236.83,-548.98"/>
</a>
</g>
</g>
<!-- Node5 -->
<g id="Node000005" class="node">
<title>Node5</title>
<g id="a_Node000005"><a xlink:href="../../d0/d69/class_point_aa0c14d8298c960cc61ebeb5fbe33653b.html#aa0c14d8298c960cc61ebeb5fbe33653b" target="_top" xlink:title=" ">
<polygon fill="white" stroke="#666666" points="319.88,-524.25 249.12,-524.25 249.12,-505 319.88,-505 319.88,-524.25"/>
<text text-anchor="middle" x="284.5" y="-510.75" font-family="Helvetica,sans-Serif" font-size="10.00">Point::Get_y</text>
</a>
</g>
</g>
<!-- Node3&#45;&gt;Node5 -->
<g id="edge4_Node000003_Node000005" class="edge">
<title>Node3&#45;&gt;Node5</title>
<g id="a_edge4_Node000003_Node000005"><a xlink:title=" ">
<path fill="none" stroke="#63b8ff" d="M156.26,-468.68C162.86,-471.09 169.72,-473.79 176,-476.62 192.68,-484.17 194.98,-489.89 212,-496.62 220.11,-499.83 228.97,-502.61 237.6,-504.96"/>
<polygon fill="#63b8ff" stroke="#63b8ff" points="236.72,-508.34 247.27,-507.42 238.45,-501.56 236.72,-508.34"/>
</a>
</g>
</g>
<!-- Node6 -->
<g id="Node000006" class="node">
<title>Node6</title>
<g id="a_Node000006"><a xlink:href="../../d0/d69/class_point_ac06dbc3b4797e5c498b58c81a70c02a9.html#ac06dbc3b4797e5c498b58c81a70c02a9" target="_top" xlink:title=" ">
<polygon fill="white" stroke="#666666" points="319.88,-487.25 249.12,-487.25 249.12,-468 319.88,-468 319.88,-487.25"/>
<text text-anchor="middle" x="284.5" y="-473.75" font-family="Helvetica,sans-Serif" font-size="10.00">Point::Get_z</text>
</a>
</g>
</g>
<!-- Node3&#45;&gt;Node6 -->
<g id="edge5_Node000003_Node000006" class="edge">
<title>Node3&#45;&gt;Node6</title>
<g id="a_edge5_Node000003_Node000006"><a xlink:title=" ">
<path fill="none" stroke="#63b8ff" d="M163.75,-463.22C185.94,-465.89 214.03,-469.27 237.43,-472.09"/>
<polygon fill="#63b8ff" stroke="#63b8ff" points="236.99,-475.56 247.34,-473.28 237.83,-468.61 236.99,-475.56"/>
</a>
</g>
</g>
<!-- Node3&#45;&gt;Node7 -->
<g id="edge6_Node000003_Node000007" class="edge">
<title>Node3&#45;&gt;Node7</title>
<g id="a_edge6_Node000003_Node000007"><a xlink:title=" ">
<path fill="none" stroke="#63b8ff" d="M163.75,-454.27C186.9,-451.63 216.49,-448.26 240.46,-445.53"/>
<polygon fill="#63b8ff" stroke="#63b8ff" points="240.68,-449.03 250.22,-444.42 239.88,-442.07 240.68,-449.03"/>
</a>
</g>
</g>
<!-- Node10 -->
<g id="Node000010" class="node">
<title>Node10</title>
<g id="a_Node000010"><a xlink:href="../../da/d74/class_grid_a90c5271ba6fdba6112a562693bd9a0f2.html#a90c5271ba6fdba6112a562693bd9a0f2" target="_top" xlink:title=" ">
<polygon fill="white" stroke="#666666" points="319.12,-413.25 249.88,-413.25 249.88,-394 319.12,-394 319.12,-413.25"/>
<text text-anchor="middle" x="284.5" y="-399.75" font-family="Helvetica,sans-Serif" font-size="10.00">Grid::Elliptic</text>
</a>
</g>
</g>
<!-- Node9&#45;&gt;Node10 -->
<g id="edge9_Node000009_Node000010" class="edge">
<title>Node9&#45;&gt;Node10</title>
<g id="a_edge9_Node000009_Node000010"><a xlink:title=" ">
<path fill="none" stroke="#63b8ff" d="M164.03,-299.62C168.37,-301.8 172.49,-304.43 176,-307.62 203.95,-333.04 183.02,-360.39 212,-384.62 219.51,-390.9 228.88,-395.13 238.34,-397.96"/>
<polygon fill="#63b8ff" stroke="#63b8ff" points="237.36,-401.33 247.91,-400.33 239.04,-394.53 237.36,-401.33"/>
</a>
</g>
</g>
<!-- Node11 -->
<g id="Node000011" class="node">
<title>Node11</title>
<g id="a_Node000011"><a xlink:href="../../da/d74/class_grid_ac1e989c2a3c81fd365d9ae57e7f15b61.html#ac1e989c2a3c81fd365d9ae57e7f15b61" target="_top" xlink:title=" ">
<polygon fill="white" stroke="#666666" points="337.12,-375.88 231.88,-375.88 231.88,-345.38 337.12,-345.38 337.12,-375.88"/>
<text text-anchor="start" x="239.88" y="-362.38" font-family="Helvetica,sans-Serif" font-size="10.00">Grid::Estimate_Error</text>
<text text-anchor="middle" x="284.5" y="-351.12" font-family="Helvetica,sans-Serif" font-size="10.00">_and_Update</text>
</a>
</g>
</g>
<!-- Node9&#45;&gt;Node11 -->
<g id="edge10_Node000009_Node000011" class="edge">
<title>Node9&#45;&gt;Node11</title>
<g id="a_edge10_Node000009_Node000011"><a xlink:title=" ">
<path fill="none" stroke="#63b8ff" d="M158.8,-299.69C164.69,-301.98 170.64,-304.62 176,-307.62 193.93,-317.66 193.98,-326.76 212,-336.62 214.85,-338.19 217.83,-339.67 220.87,-341.08"/>
<polygon fill="#63b8ff" stroke="#63b8ff" points="219.44,-344.28 230.01,-344.98 222.19,-337.84 219.44,-344.28"/>
</a>
</g>
</g>
<!-- Node12 -->
<g id="Node000012" class="node">
<title>Node12</title>
<g id="a_Node000012"><a xlink:href="../../da/d74/class_grid_ab7768e9853f9b8e4530a25d242fdea1b.html#ab7768e9853f9b8e4530a25d242fdea1b" target="_top" xlink:title=" ">
<polygon fill="white" stroke="#666666" points="346.5,-327.25 222.5,-327.25 222.5,-308 346.5,-308 346.5,-327.25"/>
<text text-anchor="middle" x="284.5" y="-313.75" font-family="Helvetica,sans-Serif" font-size="10.00">Grid::Generate_Grid_List</text>
</a>
</g>
</g>
<!-- Node9&#45;&gt;Node12 -->
<g id="edge11_Node000009_Node000012" class="edge">
<title>Node9&#45;&gt;Node12</title>
<g id="a_edge11_Node000009_Node000012"><a xlink:title=" ">
<path fill="none" stroke="#63b8ff" d="M176.36,-298.64C188.71,-300.83 202.12,-303.2 215.13,-305.51"/>
<polygon fill="#63b8ff" stroke="#63b8ff" points="214.48,-308.95 224.94,-307.25 215.7,-302.06 214.48,-308.95"/>
</a>
</g>
</g>
<!-- Node13 -->
<g id="Node000013" class="node">
<title>Node13</title>
<g id="a_Node000013"><a xlink:href="../../da/d74/class_grid_a246dcc7405f9142fc624bafb817ed9fe.html#a246dcc7405f9142fc624bafb817ed9fe" target="_top" xlink:title=" ">
<polygon fill="white" stroke="#666666" points="345.38,-289.88 223.62,-289.88 223.62,-259.38 345.38,-259.38 345.38,-289.88"/>
<text text-anchor="start" x="231.62" y="-276.38" font-family="Helvetica,sans-Serif" font-size="10.00">Grid::Periodic_Boundary</text>
<text text-anchor="middle" x="284.5" y="-265.12" font-family="Helvetica,sans-Serif" font-size="10.00">_Condition</text>
</a>
</g>
</g>
<!-- Node9&#45;&gt;Node13 -->
<g id="edge12_Node000009_Node000013" class="edge">
<title>Node9&#45;&gt;Node13</title>
<g id="a_edge12_Node000009_Node000013"><a xlink:title=" ">
<path fill="none" stroke="#63b8ff" d="M176.36,-284.8C187.71,-283.72 199.95,-282.56 211.96,-281.42"/>
<polygon fill="#63b8ff" stroke="#63b8ff" points="212.23,-284.91 221.86,-280.48 211.57,-277.94 212.23,-284.91"/>
</a>
</g>
</g>
<!-- Node14 -->
<g id="Node000014" class="node">
<title>Node14</title>
<g id="a_Node000014"><a xlink:href="../../da/d74/class_grid_a908819a747032ceba240db6d955ff931.html#a908819a747032ceba240db6d955ff931" target="_top" xlink:title=" ">
<polygon fill="white" stroke="#666666" points="312,-241.25 257,-241.25 257,-222 312,-222 312,-241.25"/>
<text text-anchor="middle" x="284.5" y="-227.75" font-family="Helvetica,sans-Serif" font-size="10.00">Grid::TFI</text>
</a>
</g>
</g>
<!-- Node9&#45;&gt;Node14 -->
<g id="edge13_Node000009_Node000014" class="edge">
<title>Node9&#45;&gt;Node14</title>
<g id="a_edge13_Node000009_Node000014"><a xlink:title=" ">
<path fill="none" stroke="#63b8ff" d="M156.58,-279.57C163.09,-277.18 169.84,-274.49 176,-271.62 192.8,-263.82 194.9,-257.73 212,-250.62 222.65,-246.2 234.63,-242.54 245.69,-239.65"/>
<polygon fill="#63b8ff" stroke="#63b8ff" points="246.45,-243.07 255.32,-237.29 244.78,-236.27 246.45,-243.07"/>
</a>
</g>
</g>
<!-- Node18 -->
<g id="Node000018" class="node">
<title>Node18</title>
<g id="a_Node000018"><a xlink:href="../../d8/d40/_grid___computations_8cpp_a2d284e26ddef582519953e8b8300184e.html#a2d284e26ddef582519953e8b8300184e" target="_top" xlink:title=" ">
<polygon fill="white" stroke="#666666" points="325.12,-204.25 243.88,-204.25 243.88,-185 325.12,-185 325.12,-204.25"/>
<text text-anchor="middle" x="284.5" y="-190.75" font-family="Helvetica,sans-Serif" font-size="10.00">Construct_Cell</text>
</a>
</g>
</g>
<!-- Node17&#45;&gt;Node18 -->
<g id="edge17_Node000017_Node000018" class="edge">
<title>Node17&#45;&gt;Node18</title>
<g id="a_edge17_Node000017_Node000018"><a xlink:title=" ">
<path fill="none" stroke="#63b8ff" d="M162.94,-182.42C183.61,-184.51 209.59,-187.14 232.13,-189.42"/>
<polygon fill="#63b8ff" stroke="#63b8ff" points="231.76,-192.9 242.06,-190.43 232.46,-185.94 231.76,-192.9"/>
</a>
</g>
</g>
<!-- Node19 -->
<g id="Node000019" class="node">
<title>Node19</title>
<g id="a_Node000019"><a xlink:href="../../d8/d40/_grid___computations_8cpp_a614d9bfab5b0ee048b9e08a296757c42.html#a614d9bfab5b0ee048b9e08a296757c42" target="_top" xlink:title=" ">
<polygon fill="white" stroke="#666666" points="353.25,-167.25 215.75,-167.25 215.75,-148 353.25,-148 353.25,-167.25"/>
<text text-anchor="middle" x="284.5" y="-153.75" font-family="Helvetica,sans-Serif" font-size="10.00">Sort_Points_AntiClockWise</text>
</a>
</g>
</g>
<!-- Node17&#45;&gt;Node19 -->
<g id="edge18_Node000017_Node000019" class="edge">
<title>Node17&#45;&gt;Node19</title>
<g id="a_edge18_Node000017_Node000019"><a xlink:title=" ">
<path fill="none" stroke="#63b8ff" d="M162.94,-173.65C175.45,-171.99 189.9,-170.07 204.36,-168.14"/>
<polygon fill="#63b8ff" stroke="#63b8ff" points="204.43,-171.67 213.88,-166.88 203.51,-164.73 204.43,-171.67"/>
</a>
</g>
</g>
<!-- Node20 -->
<g id="Node000020" class="node">
<title>Node20</title>
<g id="a_Node000020"><a xlink:href="../../d8/d40/_grid___computations_8cpp_a0bdffb27693c14d6cb4ef62eb5bd5d7f.html#a0bdffb27693c14d6cb4ef62eb5bd5d7f" target="_top" xlink:title="Sorts a set of points in anti&#45;clockwise order around their centroid.">
<polygon fill="white" stroke="#666666" points="561.25,-185.25 393,-185.25 393,-166 561.25,-166 561.25,-185.25"/>
<text text-anchor="middle" x="477.12" y="-171.75" font-family="Helvetica,sans-Serif" font-size="10.00">Are_Points_Sorted_AntiClockWise</text>
</a>
</g>
</g>
<!-- Node19&#45;&gt;Node20 -->
<g id="edge19_Node000019_Node000020" class="edge">
<title>Node19&#45;&gt;Node20</title>
<g id="a_edge19_Node000019_Node000020"><a xlink:title=" ">
<path fill="none" stroke="#63b8ff" d="M353.51,-164.05C362.56,-164.9 371.96,-165.79 381.36,-166.68"/>
<polygon fill="#63b8ff" stroke="#63b8ff" points="381,-170.16 391.29,-167.61 381.66,-163.19 381,-170.16"/>
</a>
</g>
</g>
<!-- Node21 -->
<g id="Node000021" class="node">
<title>Node21</title>
<g id="a_Node000021"><a xlink:href="../../d8/d40/_grid___computations_8cpp_a4dd07afd2a0f939b4d47bfa1088912c4.html#a4dd07afd2a0f939b4d47bfa1088912c4" target="_top" xlink:title=" ">
<polygon fill="white" stroke="#666666" points="526,-148.25 428.25,-148.25 428.25,-129 526,-129 526,-148.25"/>
<text text-anchor="middle" x="477.12" y="-134.75" font-family="Helvetica,sans-Serif" font-size="10.00">Compute_Centroid</text>
</a>
</g>
</g>
<!-- Node19&#45;&gt;Node21 -->
<g id="edge20_Node000019_Node000021" class="edge">
<title>Node19&#45;&gt;Node21</title>
<g id="a_edge20_Node000019_Node000021"><a xlink:title=" ">
<path fill="none" stroke="#63b8ff" d="M353.51,-150.85C374.07,-148.8 396.48,-146.56 416.45,-144.57"/>
<polygon fill="#63b8ff" stroke="#63b8ff" points="416.78,-148.06 426.39,-143.58 416.09,-141.09 416.78,-148.06"/>
</a>
</g>
</g>
<!-- Node23 -->
<g id="Node000023" class="node">
<title>Node23</title>
<g id="a_Node000023"><a xlink:href="../../d0/ded/_read___gmsh___file_8cpp_ae9fe416efcf214282b13d235773a6bf6.html#ae9fe416efcf214282b13d235773a6bf6" target="_top" xlink:title=" ">
<polygon fill="white" stroke="#666666" points="321.38,-130.25 247.62,-130.25 247.62,-111 321.38,-111 321.38,-130.25"/>
<text text-anchor="middle" x="284.5" y="-116.75" font-family="Helvetica,sans-Serif" font-size="10.00">BoundingBox</text>
</a>
</g>
</g>
<!-- Node22&#45;&gt;Node23 -->
<g id="edge22_Node000022_Node000023" class="edge">
<title>Node22&#45;&gt;Node23</title>
<g id="a_edge22_Node000022_Node000023"><a xlink:title=" ">
<path fill="none" stroke="#63b8ff" d="M176.36,-122.66C195.49,-122.3 217.14,-121.88 235.95,-121.53"/>
<polygon fill="#63b8ff" stroke="#63b8ff" points="235.81,-125.03 245.74,-121.34 235.67,-118.03 235.81,-125.03"/>
</a>
</g>
</g>
<!-- Node24 -->
<g id="Node000024" class="node">
<title>Node24</title>
<g id="a_Node000024"><a xlink:href="../../d0/ded/_read___gmsh___file_8cpp_a60baebfdb081653a59cb67c626911ad6.html#a60baebfdb081653a59cb67c626911ad6" target="_top" xlink:title=" ">
<polygon fill="white" stroke="#666666" points="357,-93.25 212,-93.25 212,-74 357,-74 357,-93.25"/>
<text text-anchor="middle" x="284.5" y="-79.75" font-family="Helvetica,sans-Serif" font-size="10.00">Classify_Domain_Boundaries</text>
</a>
</g>
</g>
<!-- Node22&#45;&gt;Node24 -->
<g id="edge23_Node000022_Node000024" class="edge">
<title>Node22&#45;&gt;Node24</title>
<g id="a_edge23_Node000022_Node000024"><a xlink:title=" ">
<path fill="none" stroke="#63b8ff" d="M165.11,-113.53C179.83,-109.78 196.68,-105.5 212,-101.62 218.68,-99.94 225.71,-98.16 232.65,-96.41"/>
<polygon fill="#63b8ff" stroke="#63b8ff" points="233.1,-99.91 241.94,-94.07 231.39,-93.12 233.1,-99.91"/>
</a>
</g>
</g>
<!-- Node25 -->
<g id="Node000025" class="node">
<title>Node25</title>
<g id="a_Node000025"><a xlink:href="../../d0/ded/_read___gmsh___file_8cpp_adc1985827312d4d72fa6eb4ce492fc5e.html#adc1985827312d4d72fa6eb4ce492fc5e" target="_top" xlink:title=" ">
<polygon fill="white" stroke="#666666" points="331.88,-56.25 237.12,-56.25 237.12,-37 331.88,-37 331.88,-56.25"/>
<text text-anchor="middle" x="284.5" y="-42.75" font-family="Helvetica,sans-Serif" font-size="10.00">mapFacesToCells</text>
</a>
</g>
</g>
<!-- Node22&#45;&gt;Node25 -->
<g id="edge24_Node000022_Node000025" class="edge">
<title>Node22&#45;&gt;Node25</title>
<g id="a_edge24_Node000022_Node000025"><a xlink:title=" ">
<path fill="none" stroke="#63b8ff" d="M161.12,-113.53C166.32,-111.33 171.46,-108.71 176,-105.62 196.06,-92.01 191.31,-77.27 212,-64.62 216.36,-61.96 221.09,-59.69 225.98,-57.76"/>
<polygon fill="#63b8ff" stroke="#63b8ff" points="227.09,-61.08 235.42,-54.53 224.82,-54.46 227.09,-61.08"/>
</a>
</g>
</g>
<!-- Node26 -->
<g id="Node000026" class="node">
<title>Node26</title>
<g id="a_Node000026"><a xlink:href="../../d0/ded/_read___gmsh___file_8cpp_a611404ed219cd91fe765c665b1983e05.html#a611404ed219cd91fe765c665b1983e05" target="_top" xlink:title=" ">
<polygon fill="white" stroke="#666666" points="322.12,-19.25 246.88,-19.25 246.88,0 322.12,0 322.12,-19.25"/>
<text text-anchor="middle" x="284.5" y="-5.75" font-family="Helvetica,sans-Serif" font-size="10.00">printCellEntry</text>
</a>
</g>
</g>
<!-- Node22&#45;&gt;Node26 -->
<g id="edge25_Node000022_Node000026" class="edge">
<title>Node22&#45;&gt;Node26</title>
<g id="a_edge25_Node000022_Node000026"><a xlink:title=" ">
<path fill="none" stroke="#63b8ff" d="M164.3,-113.52C168.54,-111.36 172.56,-108.76 176,-105.62 204.19,-79.87 182.61,-52 212,-27.62 218.71,-22.06 226.92,-18.18 235.35,-15.48"/>
<polygon fill="#63b8ff" stroke="#63b8ff" points="236.19,-18.88 244.98,-12.96 234.42,-12.11 236.19,-18.88"/>
</a>
</g>
</g>
</g>
</svg>
