<?xml version="1.0" encoding="UTF-8" standalone="no"?>
<!DOCTYPE svg PUBLIC "-//W3C//DTD SVG 1.1//EN"
 "http://www.w3.org/Graphics/SVG/1.1/DTD/svg11.dtd">
<!-- Generated by graphviz version 12.2.1 (20241206.2353)
 -->
<!-- Title: Evaluate_Time_Step Pages: 1 -->
<svg width="859pt" height="357pt"
 viewBox="0.00 0.00 858.50 356.80" xmlns="http://www.w3.org/2000/svg" xmlns:xlink="http://www.w3.org/1999/xlink">
<g id="graph0" class="graph" transform="scale(1 1) rotate(0) translate(4 352.8)">
<title>Evaluate_Time_Step</title>
<!-- Node1 -->
<g id="Node000001" class="node">
<title>Node1</title>
<g id="a_Node000001"><a xlink:title=" ">
<polygon fill="#999999" stroke="#666666" points="850.5,-187.42 743.75,-187.42 743.75,-168.17 850.5,-168.17 850.5,-187.42"/>
<text text-anchor="middle" x="797.12" y="-173.92" font-family="Helvetica,sans-Serif" font-size="10.00">Evaluate_Time_Step</text>
</a>
</g>
</g>
<!-- Node2 -->
<g id="Node000002" class="node">
<title>Node2</title>
<g id="a_Node000002"><a xlink:href="../../d9/ddd/_c_u_d_a___integrated___numerical___method_8cpp_ad25c9a53b380204dd243bc1351d6b098.html#ad25c9a53b380204dd243bc1351d6b098" target="_top" xlink:title=" ">
<polygon fill="white" stroke="#666666" points="698.38,-225.42 558.62,-225.42 558.62,-206.17 698.38,-206.17 698.38,-225.42"/>
<text text-anchor="middle" x="628.5" y="-211.92" font-family="Helvetica,sans-Serif" font-size="10.00">Evaluate_Cell_Net_Flux_1O</text>
</a>
</g>
</g>
<!-- Node1&#45;&gt;Node2 -->
<g id="edge1_Node000001_Node000002" class="edge">
<title>Node1&#45;&gt;Node2</title>
<g id="a_edge1_Node000001_Node000002"><a xlink:title=" ">
<path fill="none" stroke="#63b8ff" d="M740.79,-190.42C718.96,-195.4 694.23,-201.04 673.63,-205.74"/>
<polygon fill="#63b8ff" stroke="#63b8ff" points="741.46,-193.86 750.43,-188.22 739.91,-187.03 741.46,-193.86"/>
</a>
</g>
</g>
<!-- Node5 -->
<g id="Node000005" class="node">
<title>Node5</title>
<g id="a_Node000005"><a xlink:href="../../dd/dbf/_euler___python___wrapper_8cpp_ac5ccb50c3be270f798e054dd36987442.html#ac5ccb50c3be270f798e054dd36987442" target="_top" xlink:title=" ">
<polygon fill="white" stroke="#666666" points="112.75,-185.42 0,-185.42 0,-166.17 112.75,-166.17 112.75,-185.42"/>
<text text-anchor="middle" x="56.38" y="-171.92" font-family="Helvetica,sans-Serif" font-size="10.00">PYBIND11_MODULE</text>
</a>
</g>
</g>
<!-- Node1&#45;&gt;Node5 -->
<g id="edge27_Node000001_Node000005" class="edge">
<title>Node1&#45;&gt;Node5</title>
<g id="a_edge27_Node000001_Node000005"><a xlink:title=" ">
<path fill="none" stroke="#63b8ff" d="M777.64,-195.56C730.07,-239.31 597.79,-348.8 465.38,-348.8 465.38,-348.8 465.38,-348.8 323.25,-348.8 202.92,-348.8 94.31,-222.77 65.07,-185.85"/>
<polygon fill="#63b8ff" stroke="#63b8ff" points="779.99,-198.15 784.9,-188.77 775.21,-193.04 779.99,-198.15"/>
</a>
</g>
</g>
<!-- Node10 -->
<g id="Node000010" class="node">
<title>Node10</title>
<g id="a_Node000010"><a xlink:href="../../d9/ddd/_c_u_d_a___integrated___numerical___method_8cpp_a4db2fe24c2a78f98ac91e9d7d271430f.html#a4db2fe24c2a78f98ac91e9d7d271430f" target="_top" xlink:title=" ">
<polygon fill="white" stroke="#666666" points="698.38,-35.42 558.62,-35.42 558.62,-16.17 698.38,-16.17 698.38,-35.42"/>
<text text-anchor="middle" x="628.5" y="-21.92" font-family="Helvetica,sans-Serif" font-size="10.00">Evaluate_Cell_Net_Flux_2O</text>
</a>
</g>
</g>
<!-- Node1&#45;&gt;Node10 -->
<g id="edge17_Node000001_Node000010" class="edge">
<title>Node1&#45;&gt;Node10</title>
<g id="a_edge17_Node000001_Node000010"><a xlink:title=" ">
<path fill="none" stroke="#63b8ff" d="M776.71,-160.09C741.41,-127.89 667.84,-60.78 640.26,-35.61"/>
<polygon fill="#63b8ff" stroke="#63b8ff" points="774.33,-162.65 784.07,-166.81 779.05,-157.48 774.33,-162.65"/>
</a>
</g>
</g>
<!-- Node11 -->
<g id="Node000011" class="node">
<title>Node11</title>
<g id="a_Node000011"><a xlink:href="../../d8/df4/_w_e_n_o2_d_8cpp_a74c2795e4a164178c69743947d6e6cf5.html#a74c2795e4a164178c69743947d6e6cf5" target="_top" xlink:title=" ">
<polygon fill="white" stroke="#666666" points="707.75,-149.42 549.25,-149.42 549.25,-130.17 707.75,-130.17 707.75,-149.42"/>
<text text-anchor="middle" x="628.5" y="-135.92" font-family="Helvetica,sans-Serif" font-size="10.00">Evaluate_Cell_Net_Flux_WENO</text>
</a>
</g>
</g>
<!-- Node1&#45;&gt;Node11 -->
<g id="edge23_Node000001_Node000011" class="edge">
<title>Node1&#45;&gt;Node11</title>
<g id="a_edge23_Node000001_Node000011"><a xlink:title=" ">
<path fill="none" stroke="#63b8ff" d="M740.79,-165.18C718.96,-160.2 694.23,-154.56 673.63,-149.86"/>
<polygon fill="#63b8ff" stroke="#63b8ff" points="739.91,-168.57 750.43,-167.38 741.46,-161.74 739.91,-168.57"/>
</a>
</g>
</g>
<!-- Node3 -->
<g id="Node000003" class="node">
<title>Node3</title>
<g id="a_Node000003"><a xlink:href="../../d0/d64/_numerical___method_8cpp_a8dda0c7e17babab9b6e49e8e199dc30e.html#a8dda0c7e17babab9b6e49e8e199dc30e" target="_top" xlink:title=" ">
<polygon fill="white" stroke="#666666" points="367.12,-130.42 281.38,-130.42 281.38,-111.17 367.12,-111.17 367.12,-130.42"/>
<text text-anchor="middle" x="324.25" y="-116.92" font-family="Helvetica,sans-Serif" font-size="10.00">Explicit_Method</text>
</a>
</g>
</g>
<!-- Node2&#45;&gt;Node3 -->
<g id="edge2_Node000002_Node000003" class="edge">
<title>Node2&#45;&gt;Node3</title>
<g id="a_edge2_Node000002_Node000003"><a xlink:title=" ">
<path fill="none" stroke="#63b8ff" d="M584.61,-202.32C523.34,-183.06 412.16,-148.12 357.44,-130.92"/>
<polygon fill="#63b8ff" stroke="#63b8ff" points="583.41,-205.61 594,-205.27 585.51,-198.93 583.41,-205.61"/>
</a>
</g>
</g>
<!-- Node2&#45;&gt;Node5 -->
<g id="edge11_Node000002_Node000005" class="edge">
<title>Node2&#45;&gt;Node5</title>
<g id="a_edge11_Node000002_Node000005"><a xlink:title=" ">
<path fill="none" stroke="#63b8ff" d="M588.02,-229.29C566.25,-236.02 538.58,-243.42 513.25,-246.8 350.88,-268.44 157.02,-210.2 85.59,-185.89"/>
<polygon fill="#63b8ff" stroke="#63b8ff" points="588.91,-232.68 597.38,-226.31 586.79,-226.01 588.91,-232.68"/>
</a>
</g>
</g>
<!-- Node7 -->
<g id="Node000007" class="node">
<title>Node7</title>
<g id="a_Node000007"><a xlink:href="../../de/df0/_solver_8cpp_a2f37f06e8324a1ed6aa99efdbba81865.html#a2f37f06e8324a1ed6aa99efdbba81865" target="_top" xlink:title=" ">
<polygon fill="white" stroke="#666666" points="233,-167.42 148.75,-167.42 148.75,-148.17 233,-148.17 233,-167.42"/>
<text text-anchor="middle" x="190.88" y="-153.92" font-family="Helvetica,sans-Serif" font-size="10.00">Viscous_Solver</text>
</a>
</g>
</g>
<!-- Node2&#45;&gt;Node7 -->
<g id="edge16_Node000002_Node000007" class="edge">
<title>Node2&#45;&gt;Node7</title>
<g id="a_edge16_Node000002_Node000007"><a xlink:title=" ">
<path fill="none" stroke="#63b8ff" d="M550.5,-227.3C538.07,-228.76 525.32,-230.01 513.25,-230.8 469.9,-233.63 458.4,-237.63 415.5,-230.8 339.47,-218.7 254.16,-184.84 214.46,-167.83"/>
<polygon fill="#63b8ff" stroke="#63b8ff" points="550.79,-230.79 560.29,-226.1 549.94,-223.84 550.79,-230.79"/>
</a>
</g>
</g>
<!-- Node8 -->
<g id="Node000008" class="node">
<title>Node8</title>
<g id="a_Node000008"><a xlink:href="../../db/d38/_parallel___numerical___method_8cpp_a263f3c36336c227c44f052b2ad122253.html#a263f3c36336c227c44f052b2ad122253" target="_top" xlink:title=" ">
<polygon fill="white" stroke="#666666" points="513.25,-130.42 415.5,-130.42 415.5,-111.17 513.25,-111.17 513.25,-130.42"/>
<text text-anchor="middle" x="464.38" y="-116.92" font-family="Helvetica,sans-Serif" font-size="10.00">PrecomputeFluxes</text>
</a>
</g>
</g>
<!-- Node2&#45;&gt;Node8 -->
<g id="edge9_Node000002_Node000008" class="edge">
<title>Node2&#45;&gt;Node8</title>
<g id="a_edge9_Node000002_Node000008"><a xlink:title=" ">
<path fill="none" stroke="#63b8ff" d="M600.82,-200.16C567.17,-180.45 510.33,-147.14 482.19,-130.65"/>
<polygon fill="#63b8ff" stroke="#63b8ff" points="598.75,-203.01 609.15,-205.05 602.29,-196.97 598.75,-203.01"/>
</a>
</g>
</g>
<!-- Node9 -->
<g id="Node000009" class="node">
<title>Node9</title>
<g id="a_Node000009"><a xlink:href="../../de/d22/_cuda___parallel___r_k_8cpp_a794f030971fbb7c9dd4bc08df03f50f1.html#a794f030971fbb7c9dd4bc08df03f50f1" target="_top" xlink:title=" ">
<polygon fill="white" stroke="#666666" points="379.5,-168.42 269,-168.42 269,-149.17 379.5,-149.17 379.5,-168.42"/>
<text text-anchor="middle" x="324.25" y="-154.92" font-family="Helvetica,sans-Serif" font-size="10.00">Runge_Kutta_Method</text>
</a>
</g>
</g>
<!-- Node2&#45;&gt;Node9 -->
<g id="edge12_Node000002_Node000009" class="edge">
<title>Node2&#45;&gt;Node9</title>
<g id="a_edge12_Node000002_Node000009"><a xlink:title=" ">
<path fill="none" stroke="#63b8ff" d="M547.08,-223.17C506.86,-224.55 457.86,-222.67 415.5,-210.8 385.2,-202.31 354.4,-181.34 337.77,-168.77"/>
<polygon fill="#63b8ff" stroke="#63b8ff" points="547.09,-226.68 556.93,-222.76 546.79,-219.68 547.09,-226.68"/>
</a>
</g>
</g>
<!-- Node4 -->
<g id="Node000004" class="node">
<title>Node4</title>
<g id="a_Node000004"><a xlink:href="../../de/df0/_solver_8cpp_ad0f49408a26339b5f7043bf867c3fa8d.html#ad0f49408a26339b5f7043bf867c3fa8d" target="_top" xlink:title=" ">
<polygon fill="white" stroke="#666666" points="232.25,-130.42 149.5,-130.42 149.5,-111.17 232.25,-111.17 232.25,-130.42"/>
<text text-anchor="middle" x="190.88" y="-116.92" font-family="Helvetica,sans-Serif" font-size="10.00">Inviscid_Solver</text>
</a>
</g>
</g>
<!-- Node3&#45;&gt;Node4 -->
<g id="edge3_Node000003_Node000004" class="edge">
<title>Node3&#45;&gt;Node4</title>
<g id="a_edge3_Node000003_Node000004"><a xlink:title=" ">
<path fill="none" stroke="#63b8ff" d="M269.82,-120.8C257.45,-120.8 244.48,-120.8 232.74,-120.8"/>
<polygon fill="#63b8ff" stroke="#63b8ff" points="269.45,-124.3 279.45,-120.8 269.45,-117.3 269.45,-124.3"/>
</a>
</g>
</g>
<!-- Node3&#45;&gt;Node7 -->
<g id="edge6_Node000003_Node000007" class="edge">
<title>Node3&#45;&gt;Node7</title>
<g id="a_edge6_Node000003_Node000007"><a xlink:title=" ">
<path fill="none" stroke="#63b8ff" d="M276.55,-133.95C260.5,-138.47 242.79,-143.46 227.73,-147.7"/>
<polygon fill="#63b8ff" stroke="#63b8ff" points="277.22,-137.4 285.89,-131.32 275.32,-130.66 277.22,-137.4"/>
</a>
</g>
</g>
<!-- Node4&#45;&gt;Node5 -->
<g id="edge4_Node000004_Node000005" class="edge">
<title>Node4&#45;&gt;Node5</title>
<g id="a_edge4_Node000004_Node000005"><a xlink:title=" ">
<path fill="none" stroke="#63b8ff" d="M155.79,-135.49C153.4,-136.59 151.03,-137.7 148.75,-138.8 132.45,-146.65 129.41,-150.76 112.75,-157.8 105.95,-160.67 98.53,-163.37 91.39,-165.76"/>
<polygon fill="#63b8ff" stroke="#63b8ff" points="157.18,-138.7 164.87,-131.41 154.32,-132.31 157.18,-138.7"/>
</a>
</g>
</g>
<!-- Node6 -->
<g id="Node000006" class="node">
<title>Node6</title>
<g id="a_Node000006"><a xlink:href="../../d5/d12/_main_8cpp_a35d775933750ace299102f06a1712663.html#a35d775933750ace299102f06a1712663" target="_top" xlink:title="Executes the appropriate solver based on the simulation configuration.">
<polygon fill="white" stroke="#666666" points="85,-148.42 27.75,-148.42 27.75,-129.17 85,-129.17 85,-148.42"/>
<text text-anchor="middle" x="56.38" y="-134.92" font-family="Helvetica,sans-Serif" font-size="10.00">runSolver</text>
</a>
</g>
</g>
<!-- Node4&#45;&gt;Node6 -->
<g id="edge5_Node000004_Node000006" class="edge">
<title>Node4&#45;&gt;Node6</title>
<g id="a_edge5_Node000004_Node000006"><a xlink:title=" ">
<path fill="none" stroke="#63b8ff" d="M137.83,-127.87C119.9,-130.31 100.53,-132.94 85.28,-135.01"/>
<polygon fill="#63b8ff" stroke="#63b8ff" points="138.1,-131.37 147.54,-126.55 137.16,-124.43 138.1,-131.37"/>
</a>
</g>
</g>
<!-- Node7&#45;&gt;Node5 -->
<g id="edge7_Node000007_Node000005" class="edge">
<title>Node7&#45;&gt;Node5</title>
<g id="a_edge7_Node000007_Node000005"><a xlink:title=" ">
<path fill="none" stroke="#63b8ff" d="M136.96,-164.99C129.04,-166.06 120.85,-167.18 112.88,-168.26"/>
<polygon fill="#63b8ff" stroke="#63b8ff" points="137.38,-168.46 146.81,-163.65 136.43,-161.53 137.38,-168.46"/>
</a>
</g>
</g>
<!-- Node7&#45;&gt;Node6 -->
<g id="edge8_Node000007_Node000006" class="edge">
<title>Node7&#45;&gt;Node6</title>
<g id="a_edge8_Node000007_Node000006"><a xlink:title=" ">
<path fill="none" stroke="#63b8ff" d="M136.97,-150.21C119.33,-147.68 100.37,-144.97 85.38,-142.82"/>
<polygon fill="#63b8ff" stroke="#63b8ff" points="136.42,-153.67 146.82,-151.63 137.41,-146.74 136.42,-153.67"/>
</a>
</g>
</g>
<!-- Node8&#45;&gt;Node3 -->
<g id="edge10_Node000008_Node000003" class="edge">
<title>Node8&#45;&gt;Node3</title>
<g id="a_edge10_Node000008_Node000003"><a xlink:title=" ">
<path fill="none" stroke="#63b8ff" d="M403.92,-120.8C391.6,-120.8 378.87,-120.8 367.33,-120.8"/>
<polygon fill="#63b8ff" stroke="#63b8ff" points="403.55,-124.3 413.55,-120.8 403.55,-117.3 403.55,-124.3"/>
</a>
</g>
</g>
<!-- Node9&#45;&gt;Node4 -->
<g id="edge13_Node000009_Node000004" class="edge">
<title>Node9&#45;&gt;Node4</title>
<g id="a_edge13_Node000009_Node000004"><a xlink:title=" ">
<path fill="none" stroke="#63b8ff" d="M277.68,-145.62C260.87,-140.76 242.12,-135.33 226.44,-130.8"/>
<polygon fill="#63b8ff" stroke="#63b8ff" points="276.36,-148.88 286.93,-148.3 278.3,-142.15 276.36,-148.88"/>
</a>
</g>
</g>
<!-- Node9&#45;&gt;Node5 -->
<g id="edge14_Node000009_Node000005" class="edge">
<title>Node9&#45;&gt;Node5</title>
<g id="a_edge14_Node000009_Node000005"><a xlink:title=" ">
<path fill="none" stroke="#63b8ff" d="M270.7,-171.09C258.4,-173.46 245.29,-175.59 233,-176.8 192.95,-180.76 147.51,-180.37 112.88,-179.06"/>
<polygon fill="#63b8ff" stroke="#63b8ff" points="271.13,-174.57 280.24,-169.16 269.74,-167.71 271.13,-174.57"/>
</a>
</g>
</g>
<!-- Node9&#45;&gt;Node7 -->
<g id="edge15_Node000009_Node000007" class="edge">
<title>Node9&#45;&gt;Node7</title>
<g id="a_edge15_Node000009_Node000007"><a xlink:title=" ">
<path fill="none" stroke="#63b8ff" d="M257.2,-158.3C249.04,-158.23 240.89,-158.17 233.26,-158.11"/>
<polygon fill="#63b8ff" stroke="#63b8ff" points="257.14,-161.8 267.16,-158.37 257.19,-154.8 257.14,-161.8"/>
</a>
</g>
</g>
<!-- Node10&#45;&gt;Node3 -->
<g id="edge18_Node000010_Node000003" class="edge">
<title>Node10&#45;&gt;Node3</title>
<g id="a_edge18_Node000010_Node000003"><a xlink:title=" ">
<path fill="none" stroke="#63b8ff" d="M556.49,-14.62C513.94,-10.99 459.69,-11.92 415.5,-30.8 375.82,-47.75 344.23,-91.1 331.42,-110.79"/>
<polygon fill="#63b8ff" stroke="#63b8ff" points="556.09,-18.1 566.38,-15.58 556.76,-11.13 556.09,-18.1"/>
</a>
</g>
</g>
<!-- Node10&#45;&gt;Node5 -->
<g id="edge20_Node000010_Node000005" class="edge">
<title>Node10&#45;&gt;Node5</title>
<g id="a_edge20_Node000010_Node000005"><a xlink:title=" ">
<path fill="none" stroke="#63b8ff" d="M571.07,-13.74C528.17,-6.38 467.8,0.06 415.5,-8.8 291.71,-29.76 247.36,-24.08 148.75,-101.8 125.51,-120.11 136.18,-139.73 112.75,-157.8 108.67,-160.95 104.01,-163.56 99.18,-165.71"/>
<polygon fill="#63b8ff" stroke="#63b8ff" points="570.19,-17.13 580.65,-15.45 571.42,-10.24 570.19,-17.13"/>
</a>
</g>
</g>
<!-- Node10&#45;&gt;Node7 -->
<g id="edge22_Node000010_Node000007" class="edge">
<title>Node10&#45;&gt;Node7</title>
<g id="a_edge22_Node000010_Node000007"><a xlink:title=" ">
<path fill="none" stroke="#63b8ff" d="M582.24,-12.97C538.66,-2.74 471.32,7.42 415.5,-8.8 341.44,-30.32 328.53,-52.77 269,-101.8 251.04,-116.59 252.04,-126.42 233,-139.8 228.66,-142.85 223.73,-145.54 218.82,-147.86"/>
<polygon fill="#63b8ff" stroke="#63b8ff" points="581.31,-16.34 591.86,-15.33 582.98,-9.54 581.31,-16.34"/>
</a>
</g>
</g>
<!-- Node10&#45;&gt;Node8 -->
<g id="edge19_Node000010_Node000008" class="edge">
<title>Node10&#45;&gt;Node8</title>
<g id="a_edge19_Node000010_Node000008"><a xlink:title=" ">
<path fill="none" stroke="#63b8ff" d="M600.82,-41.44C567.17,-61.15 510.33,-94.46 482.19,-110.95"/>
<polygon fill="#63b8ff" stroke="#63b8ff" points="602.29,-44.63 609.15,-36.55 598.75,-38.59 602.29,-44.63"/>
</a>
</g>
</g>
<!-- Node10&#45;&gt;Node9 -->
<g id="edge21_Node000010_Node000009" class="edge">
<title>Node10&#45;&gt;Node9</title>
<g id="a_edge21_Node000010_Node000009"><a xlink:title=" ">
<path fill="none" stroke="#63b8ff" d="M569.87,-38.64C525.24,-50.36 463.19,-70.67 415.5,-101.8 396.02,-114.52 399.03,-127.15 379.5,-139.8 374.06,-143.33 367.88,-146.29 361.69,-148.74"/>
<polygon fill="#63b8ff" stroke="#63b8ff" points="570.54,-42.08 579.36,-36.21 568.8,-35.3 570.54,-42.08"/>
</a>
</g>
</g>
<!-- Node11&#45;&gt;Node3 -->
<g id="edge24_Node000011_Node000003" class="edge">
<title>Node11&#45;&gt;Node3</title>
<g id="a_edge24_Node000011_Node000003"><a xlink:title=" ">
<path fill="none" stroke="#63b8ff" d="M593.81,-125.41C571.43,-116.66 541.14,-106.32 513.25,-101.8 470.36,-94.85 458.71,-97.3 415.5,-101.8 398.62,-103.56 380.24,-107.12 364.51,-110.69"/>
<polygon fill="#63b8ff" stroke="#63b8ff" points="592.44,-128.63 603.02,-129.11 595.05,-122.14 592.44,-128.63"/>
</a>
</g>
</g>
<!-- Node11&#45;&gt;Node8 -->
<g id="edge25_Node000011_Node000008" class="edge">
<title>Node11&#45;&gt;Node8</title>
<g id="a_edge25_Node000011_Node000008"><a xlink:title=" ">
<path fill="none" stroke="#63b8ff" d="M537.48,-129.25C529.2,-128.28 521.05,-127.32 513.38,-126.43"/>
<polygon fill="#63b8ff" stroke="#63b8ff" points="536.97,-132.71 547.31,-130.4 537.78,-125.76 536.97,-132.71"/>
</a>
</g>
</g>
<!-- Node11&#45;&gt;Node9 -->
<g id="edge26_Node000011_Node000009" class="edge">
<title>Node11&#45;&gt;Node9</title>
<g id="a_edge26_Node000011_Node000009"><a xlink:title=" ">
<path fill="none" stroke="#63b8ff" d="M537.44,-145.46C486.13,-148.69 423.52,-152.62 379.66,-155.38"/>
<polygon fill="#63b8ff" stroke="#63b8ff" points="537.61,-148.96 547.37,-144.84 537.17,-141.97 537.61,-148.96"/>
</a>
</g>
</g>
</g>
</svg>
