<?xml version="1.0" encoding="UTF-8" standalone="no"?>
<!DOCTYPE svg PUBLIC "-//W3C//DTD SVG 1.1//EN"
 "http://www.w3.org/Graphics/SVG/1.1/DTD/svg11.dtd">
<!-- Generated by graphviz version 12.2.1 (20241206.2353)
 -->
<!-- Title: main Pages: 1 -->
<svg width="232pt" height="101pt"
 viewBox="0.00 0.00 232.30 101.25" xmlns="http://www.w3.org/2000/svg" xmlns:xlink="http://www.w3.org/1999/xlink">
<g id="graph0" class="graph" transform="scale(1 1) rotate(0) translate(4 97.25)">
<title>main</title>
<!-- Node1 -->
<g id="Node000001" class="node">
<title>Node1</title>
<g id="a_Node000001"><a xlink:title=" ">
<polygon fill="#999999" stroke="#666666" points="37,-56.25 0,-56.25 0,-37 37,-37 37,-56.25"/>
<text text-anchor="middle" x="18.5" y="-42.75" font-family="Helvetica,sans-Serif" font-size="10.00">main</text>
</a>
</g>
</g>
<!-- Node2 -->
<g id="Node000002" class="node">
<title>Node2</title>
<g id="a_Node000002"><a xlink:href="../../dd/dd0/_c_type___elliptic___grid___modified_8cpp_a871e0a1e3ae5655a6e3631c5c0393af4.html#a871e0a1e3ae5655a6e3631c5c0393af4" target="_top" xlink:title=" ">
<polygon fill="white" stroke="#666666" points="150.88,-93.25 81.62,-93.25 81.62,-74 150.88,-74 150.88,-93.25"/>
<text text-anchor="middle" x="116.25" y="-79.75" font-family="Helvetica,sans-Serif" font-size="10.00">initializeGrid</text>
</a>
</g>
</g>
<!-- Node1&#45;&gt;Node2 -->
<g id="edge1_Node000001_Node000002" class="edge">
<title>Node1&#45;&gt;Node2</title>
<g id="a_edge1_Node000001_Node000002"><a xlink:title=" ">
<path fill="none" stroke="#63b8ff" d="M37.06,-53.41C48.68,-57.9 64.34,-63.95 78.59,-69.46"/>
<polygon fill="#63b8ff" stroke="#63b8ff" points="77.13,-72.65 87.72,-72.99 79.65,-66.12 77.13,-72.65"/>
</a>
</g>
</g>
<!-- Node5 -->
<g id="Node000005" class="node">
<title>Node5</title>
<g id="a_Node000005"><a xlink:href="../../dd/dd0/_c_type___elliptic___grid___modified_8cpp_acbf88f0a26870585d9ad602e89cb5944.html#acbf88f0a26870585d9ad602e89cb5944" target="_top" xlink:title=" ">
<polygon fill="white" stroke="#666666" points="159.5,-56.25 73,-56.25 73,-37 159.5,-37 159.5,-56.25"/>
<text text-anchor="middle" x="116.25" y="-42.75" font-family="Helvetica,sans-Serif" font-size="10.00">solveEllipticGrid</text>
</a>
</g>
</g>
<!-- Node1&#45;&gt;Node5 -->
<g id="edge4_Node000001_Node000005" class="edge">
<title>Node1&#45;&gt;Node5</title>
<g id="a_edge4_Node000001_Node000005"><a xlink:title=" ">
<path fill="none" stroke="#63b8ff" d="M37.06,-46.62C44.12,-46.62 52.68,-46.62 61.5,-46.62"/>
<polygon fill="#63b8ff" stroke="#63b8ff" points="61.22,-50.13 71.22,-46.63 61.22,-43.13 61.22,-50.13"/>
</a>
</g>
</g>
<!-- Node6 -->
<g id="Node000006" class="node">
<title>Node6</title>
<g id="a_Node000006"><a xlink:href="../../dd/dd0/_c_type___elliptic___grid___modified_8cpp_a5548910e5a130b55390401645274a0d2.html#a5548910e5a130b55390401645274a0d2" target="_top" xlink:title=" ">
<polygon fill="white" stroke="#666666" points="144.5,-19.25 88,-19.25 88,0 144.5,0 144.5,-19.25"/>
<text text-anchor="middle" x="116.25" y="-5.75" font-family="Helvetica,sans-Serif" font-size="10.00">writeVTK</text>
</a>
</g>
</g>
<!-- Node1&#45;&gt;Node6 -->
<g id="edge7_Node000001_Node000006" class="edge">
<title>Node1&#45;&gt;Node6</title>
<g id="a_edge7_Node000001_Node000006"><a xlink:title=" ">
<path fill="none" stroke="#63b8ff" d="M37.06,-39.84C48.68,-35.35 64.34,-29.3 78.59,-23.79"/>
<polygon fill="#63b8ff" stroke="#63b8ff" points="79.65,-27.13 87.72,-20.26 77.13,-20.6 79.65,-27.13"/>
</a>
</g>
</g>
<!-- Node3 -->
<g id="Node000003" class="node">
<title>Node3</title>
<g id="a_Node000003"><a xlink:href="../../dd/dd0/_c_type___elliptic___grid___modified_8cpp_a9d9acf133a5b966f0cbd16a2c57a7d79.html#a9d9acf133a5b966f0cbd16a2c57a7d79" target="_top" xlink:title=" ">
<polygon fill="white" stroke="#666666" points="224.3,-74.25 195.5,-74.25 195.5,-55 224.3,-55 224.3,-74.25"/>
<text text-anchor="middle" x="209.9" y="-60.75" font-family="Helvetica,sans-Serif" font-size="10.00">x</text>
</a>
</g>
</g>
<!-- Node2&#45;&gt;Node3 -->
<g id="edge2_Node000002_Node000003" class="edge">
<title>Node2&#45;&gt;Node3</title>
<g id="a_edge2_Node000002_Node000003"><a xlink:title=" ">
<path fill="none" stroke="#63b8ff" d="M151.12,-76.6C162.11,-74.32 174.09,-71.84 184.28,-69.73"/>
<polygon fill="#63b8ff" stroke="#63b8ff" points="184.69,-73.22 193.77,-67.76 183.27,-66.36 184.69,-73.22"/>
</a>
</g>
</g>
<!-- Node4 -->
<g id="Node000004" class="node">
<title>Node4</title>
<g id="a_Node000004"><a xlink:href="../../dd/dd0/_c_type___elliptic___grid___modified_8cpp_aae4b761a64c952b4c008655d1dc59a12.html#aae4b761a64c952b4c008655d1dc59a12" target="_top" xlink:title=" ">
<polygon fill="white" stroke="#666666" points="224.3,-37.25 195.5,-37.25 195.5,-18 224.3,-18 224.3,-37.25"/>
<text text-anchor="middle" x="209.9" y="-23.75" font-family="Helvetica,sans-Serif" font-size="10.00">y</text>
</a>
</g>
</g>
<!-- Node2&#45;&gt;Node4 -->
<g id="edge3_Node000002_Node000004" class="edge">
<title>Node2&#45;&gt;Node4</title>
<g id="a_edge3_Node000002_Node000004"><a xlink:title=" ">
<path fill="none" stroke="#63b8ff" d="M143.67,-73.59C149.03,-71.21 154.54,-68.52 159.5,-65.62 169.79,-59.61 180.37,-51.73 189.09,-44.71"/>
<polygon fill="#63b8ff" stroke="#63b8ff" points="191.08,-47.6 196.55,-38.53 186.61,-42.22 191.08,-47.6"/>
</a>
</g>
</g>
<!-- Node5&#45;&gt;Node3 -->
<g id="edge5_Node000005_Node000003" class="edge">
<title>Node5&#45;&gt;Node3</title>
<g id="a_edge5_Node000005_Node000003"><a xlink:title=" ">
<path fill="none" stroke="#63b8ff" d="M159.86,-54.99C168.1,-56.61 176.48,-58.26 183.93,-59.72"/>
<polygon fill="#63b8ff" stroke="#63b8ff" points="183.08,-63.12 193.57,-61.61 184.43,-56.25 183.08,-63.12"/>
</a>
</g>
</g>
<!-- Node5&#45;&gt;Node4 -->
<g id="edge6_Node000005_Node000004" class="edge">
<title>Node5&#45;&gt;Node4</title>
<g id="a_edge6_Node000005_Node000004"><a xlink:title=" ">
<path fill="none" stroke="#63b8ff" d="M159.86,-37.79C168.1,-36.08 176.48,-34.35 183.93,-32.8"/>
<polygon fill="#63b8ff" stroke="#63b8ff" points="184.49,-36.26 193.57,-30.8 183.07,-29.41 184.49,-36.26"/>
</a>
</g>
</g>
<!-- Node6&#45;&gt;Node3 -->
<g id="edge8_Node000006_Node000003" class="edge">
<title>Node6&#45;&gt;Node3</title>
<g id="a_edge8_Node000006_Node000003"><a xlink:title=" ">
<path fill="none" stroke="#63b8ff" d="M143.65,-19.71C149.01,-22.08 154.53,-24.76 159.5,-27.62 169.48,-33.38 179.8,-40.83 188.4,-47.53"/>
<polygon fill="#63b8ff" stroke="#63b8ff" points="186.11,-50.18 196.1,-53.71 190.49,-44.72 186.11,-50.18"/>
</a>
</g>
</g>
<!-- Node6&#45;&gt;Node4 -->
<g id="edge9_Node000006_Node000004" class="edge">
<title>Node6&#45;&gt;Node4</title>
<g id="a_edge9_Node000006_Node000004"><a xlink:title=" ">
<path fill="none" stroke="#63b8ff" d="M144.75,-15.03C157.24,-17.48 171.92,-20.36 184.07,-22.75"/>
<polygon fill="#63b8ff" stroke="#63b8ff" points="183.25,-26.15 193.73,-24.65 184.6,-19.28 183.25,-26.15"/>
</a>
</g>
</g>
</g>
</svg>
