<?xml version="1.0" encoding="UTF-8" standalone="no"?>
<!DOCTYPE svg PUBLIC "-//W3C//DTD SVG 1.1//EN"
 "http://www.w3.org/Graphics/SVG/1.1/DTD/svg11.dtd">
<!-- Generated by graphviz version 12.2.1 (20241206.2353)
 -->
<!-- Title: OptimizedGrid::Finalize Pages: 1 -->
<svg width="465pt" height="114pt"
 viewBox="0.00 0.00 464.75 113.88" xmlns="http://www.w3.org/2000/svg" xmlns:xlink="http://www.w3.org/1999/xlink">
<g id="graph0" class="graph" transform="scale(1 1) rotate(0) translate(4 109.88)">
<title>OptimizedGrid::Finalize</title>
<!-- Node1 -->
<g id="Node000001" class="node">
<title>Node1</title>
<g id="a_Node000001"><a xlink:title=" ">
<polygon fill="#999999" stroke="#666666" points="456.75,-57.25 338.75,-57.25 338.75,-38 456.75,-38 456.75,-57.25"/>
<text text-anchor="middle" x="397.75" y="-43.75" font-family="Helvetica,sans-Serif" font-size="10.00">OptimizedGrid::Finalize</text>
</a>
</g>
</g>
<!-- Node2 -->
<g id="Node000002" class="node">
<title>Node2</title>
<g id="a_Node000002"><a xlink:href="../../dc/de7/_grid___optimization___integration___guide_8cpp_ae6a5c597ffb845be2502d0afc0e1a695.html#ae6a5c597ffb845be2502d0afc0e1a695" target="_top" xlink:title=" ">
<polygon fill="white" stroke="#666666" points="302.75,-105.88 173.5,-105.88 173.5,-75.38 302.75,-75.38 302.75,-105.88"/>
<text text-anchor="start" x="181.5" y="-92.38" font-family="Helvetica,sans-Serif" font-size="10.00">demonstrate_performance</text>
<text text-anchor="middle" x="238.12" y="-81.12" font-family="Helvetica,sans-Serif" font-size="10.00">_aware_integration</text>
</a>
</g>
</g>
<!-- Node1&#45;&gt;Node2 -->
<g id="edge1_Node000001_Node000002" class="edge">
<title>Node1&#45;&gt;Node2</title>
<g id="a_edge1_Node000001_Node000002"><a xlink:title=" ">
<path fill="none" stroke="#63b8ff" d="M348.82,-60.7C332.43,-65.17 313.91,-70.22 296.82,-74.88"/>
<polygon fill="#63b8ff" stroke="#63b8ff" points="349.61,-64.11 358.33,-58.1 347.77,-57.36 349.61,-64.11"/>
</a>
</g>
</g>
<!-- Node4 -->
<g id="Node000004" class="node">
<title>Node4</title>
<g id="a_Node000004"><a xlink:href="../../dc/de7/_grid___optimization___integration___guide_8cpp_ac9d67fcbba41c27f9c5d5876429fe035.html#ac9d67fcbba41c27f9c5d5876429fe035" target="_top" xlink:title=" ">
<polygon fill="white" stroke="#666666" points="133.38,-38.25 4.12,-38.25 4.12,-19 133.38,-19 133.38,-38.25"/>
<text text-anchor="middle" x="68.75" y="-24.75" font-family="Helvetica,sans-Serif" font-size="10.00">example_main_integration</text>
</a>
</g>
</g>
<!-- Node1&#45;&gt;Node4 -->
<g id="edge3_Node000001_Node000004" class="edge">
<title>Node1&#45;&gt;Node4</title>
<g id="a_edge3_Node000001_Node000004"><a xlink:title=" ">
<path fill="none" stroke="#63b8ff" d="M326.81,-43.56C269.62,-40.24 189.41,-35.58 133.86,-32.35"/>
<polygon fill="#63b8ff" stroke="#63b8ff" points="326.59,-47.05 336.78,-44.14 327,-40.07 326.59,-47.05"/>
</a>
</g>
</g>
<!-- Node5 -->
<g id="Node000005" class="node">
<title>Node5</title>
<g id="a_Node000005"><a xlink:href="../../dc/de7/_grid___optimization___integration___guide_8cpp_ad8ac88549c20d09515c033d5fc2e2d10.html#ad8ac88549c20d09515c033d5fc2e2d10" target="_top" xlink:title=" ">
<polygon fill="white" stroke="#666666" points="294.12,-19.25 182.12,-19.25 182.12,0 294.12,0 294.12,-19.25"/>
<text text-anchor="middle" x="238.12" y="-5.75" font-family="Helvetica,sans-Serif" font-size="10.00">Read_Grid_Optimized</text>
</a>
</g>
</g>
<!-- Node1&#45;&gt;Node5 -->
<g id="edge4_Node000001_Node000005" class="edge">
<title>Node1&#45;&gt;Node5</title>
<g id="a_edge4_Node000001_Node000005"><a xlink:title=" ">
<path fill="none" stroke="#63b8ff" d="M343.84,-34.87C323.33,-29.92 300.18,-24.34 280.87,-19.69"/>
<polygon fill="#63b8ff" stroke="#63b8ff" points="342.91,-38.25 353.45,-37.19 344.55,-31.44 342.91,-38.25"/>
</a>
</g>
</g>
<!-- Node3 -->
<g id="Node000003" class="node">
<title>Node3</title>
<g id="a_Node000003"><a xlink:href="../../dc/de7/_grid___optimization___integration___guide_8cpp_ad598130e8e89b3050bb9bd71f0ab1b25.html#ad598130e8e89b3050bb9bd71f0ab1b25" target="_top" xlink:title=" ">
<polygon fill="white" stroke="#666666" points="137.5,-100.25 0,-100.25 0,-81 137.5,-81 137.5,-100.25"/>
<text text-anchor="middle" x="68.75" y="-86.75" font-family="Helvetica,sans-Serif" font-size="10.00">integrate_grid_optimizations</text>
</a>
</g>
</g>
<!-- Node2&#45;&gt;Node3 -->
<g id="edge2_Node000002_Node000003" class="edge">
<title>Node2&#45;&gt;Node3</title>
<g id="a_edge2_Node000002_Node000003"><a xlink:title=" ">
<path fill="none" stroke="#63b8ff" d="M162.05,-90.62C153.97,-90.62 145.78,-90.62 137.78,-90.62"/>
<polygon fill="#63b8ff" stroke="#63b8ff" points="161.86,-94.13 171.86,-90.63 161.86,-87.13 161.86,-94.13"/>
</a>
</g>
</g>
<!-- Node5&#45;&gt;Node4 -->
<g id="edge5_Node000005_Node000004" class="edge">
<title>Node5&#45;&gt;Node4</title>
<g id="a_edge5_Node000005_Node000004"><a xlink:title=" ">
<path fill="none" stroke="#63b8ff" d="M170.43,-17.2C158.31,-18.57 145.7,-20 133.66,-21.37"/>
<polygon fill="#63b8ff" stroke="#63b8ff" points="170.81,-20.68 180.35,-16.07 170.02,-13.72 170.81,-20.68"/>
</a>
</g>
</g>
</g>
</svg>
