<?xml version="1.0" encoding="UTF-8" standalone="no"?>
<!DOCTYPE svg PUBLIC "-//W3C//DTD SVG 1.1//EN"
 "http://www.w3.org/Graphics/SVG/1.1/DTD/svg11.dtd">
<!-- Generated by graphviz version 12.2.1 (20241206.2353)
 -->
<!-- Title: OptimizedGrid::Initialize Pages: 1 -->
<svg width="455pt" height="88pt"
 viewBox="0.00 0.00 455.00 87.50" xmlns="http://www.w3.org/2000/svg" xmlns:xlink="http://www.w3.org/1999/xlink">
<g id="graph0" class="graph" transform="scale(1 1) rotate(0) translate(4 83.5)">
<title>OptimizedGrid::Initialize</title>
<!-- Node1 -->
<g id="Node000001" class="node">
<title>Node1</title>
<g id="a_Node000001"><a xlink:title=" ">
<polygon fill="#999999" stroke="#666666" points="120.25,-48.88 0,-48.88 0,-29.62 120.25,-29.62 120.25,-48.88"/>
<text text-anchor="middle" x="60.12" y="-35.38" font-family="Helvetica,sans-Serif" font-size="10.00">OptimizedGrid::Initialize</text>
</a>
</g>
</g>
<!-- Node2 -->
<g id="Node000002" class="node">
<title>Node2</title>
<g id="a_Node000002"><a xlink:href="../../d8/d24/_grid___computations___optimized_8cpp_a52c142c38082da9508f85d41a5cfa81a.html#a52c142c38082da9508f85d41a5cfa81a" target="_top" xlink:title=" ">
<polygon fill="white" stroke="#666666" points="296,-48.88 156.25,-48.88 156.25,-29.62 296,-29.62 296,-48.88"/>
<text text-anchor="middle" x="226.12" y="-35.38" font-family="Helvetica,sans-Serif" font-size="10.00">optimize_memory_allocation</text>
</a>
</g>
</g>
<!-- Node1&#45;&gt;Node2 -->
<g id="edge1_Node000001_Node000002" class="edge">
<title>Node1&#45;&gt;Node2</title>
<g id="a_edge1_Node000001_Node000002"><a xlink:title=" ">
<path fill="none" stroke="#63b8ff" d="M120.33,-39.25C128.19,-39.25 136.35,-39.25 144.49,-39.25"/>
<polygon fill="#63b8ff" stroke="#63b8ff" points="144.45,-42.75 154.45,-39.25 144.45,-35.75 144.45,-42.75"/>
</a>
</g>
</g>
<!-- Node3 -->
<g id="Node000003" class="node">
<title>Node3</title>
<g id="a_Node000003"><a xlink:href="../../d4/d7b/namespace_grid_performance_aaac03e00f6d3dcd501015a9143fb1814.html#aaac03e00f6d3dcd501015a9143fb1814" target="_top" xlink:title=" ">
<polygon fill="white" stroke="#666666" points="445.12,-79.5 333.88,-79.5 333.88,-49 445.12,-49 445.12,-79.5"/>
<text text-anchor="start" x="341.88" y="-66" font-family="Helvetica,sans-Serif" font-size="10.00">GridPerformance::end</text>
<text text-anchor="middle" x="389.5" y="-54.75" font-family="Helvetica,sans-Serif" font-size="10.00">_timer</text>
</a>
</g>
</g>
<!-- Node2&#45;&gt;Node3 -->
<g id="edge2_Node000002_Node000003" class="edge">
<title>Node2&#45;&gt;Node3</title>
<g id="a_edge2_Node000002_Node000003"><a xlink:title=" ">
<path fill="none" stroke="#63b8ff" d="M292.3,-49.35C302.11,-50.87 312.23,-52.43 322.07,-53.96"/>
<polygon fill="#63b8ff" stroke="#63b8ff" points="321.53,-57.42 331.94,-55.49 322.6,-50.5 321.53,-57.42"/>
</a>
</g>
</g>
<!-- Node4 -->
<g id="Node000004" class="node">
<title>Node4</title>
<g id="a_Node000004"><a xlink:href="../../d4/d7b/namespace_grid_performance_a2fdab3242d4062c9533d3b3d1be6fa54.html#a2fdab3242d4062c9533d3b3d1be6fa54" target="_top" xlink:title=" ">
<polygon fill="white" stroke="#666666" points="447,-30.5 332,-30.5 332,0 447,0 447,-30.5"/>
<text text-anchor="start" x="340" y="-17" font-family="Helvetica,sans-Serif" font-size="10.00">GridPerformance::start</text>
<text text-anchor="middle" x="389.5" y="-5.75" font-family="Helvetica,sans-Serif" font-size="10.00">_timer</text>
</a>
</g>
</g>
<!-- Node2&#45;&gt;Node4 -->
<g id="edge3_Node000002_Node000004" class="edge">
<title>Node2&#45;&gt;Node4</title>
<g id="a_edge3_Node000002_Node000004"><a xlink:title=" ">
<path fill="none" stroke="#63b8ff" d="M295.09,-29.14C303.44,-27.9 311.98,-26.63 320.33,-25.39"/>
<polygon fill="#63b8ff" stroke="#63b8ff" points="320.7,-28.87 330.08,-23.94 319.67,-21.95 320.7,-28.87"/>
</a>
</g>
</g>
</g>
</svg>
