<?xml version="1.0" encoding="UTF-8" standalone="no"?>
<!DOCTYPE svg PUBLIC "-//W3C//DTD SVG 1.1//EN"
 "http://www.w3.org/Graphics/SVG/1.1/DTD/svg11.dtd">
<!-- Generated by graphviz version 12.2.1 (20241206.2353)
 -->
<!-- Title: OptimizedGrid::Finalize Pages: 1 -->
<svg width="292pt" height="76pt"
 viewBox="0.00 0.00 292.00 75.88" xmlns="http://www.w3.org/2000/svg" xmlns:xlink="http://www.w3.org/1999/xlink">
<g id="graph0" class="graph" transform="scale(1 1) rotate(0) translate(4 71.88)">
<title>OptimizedGrid::Finalize</title>
<!-- Node1 -->
<g id="Node000001" class="node">
<title>Node1</title>
<g id="a_Node000001"><a xlink:title=" ">
<polygon fill="#999999" stroke="#666666" points="118,-45.88 0,-45.88 0,-26.62 118,-26.62 118,-45.88"/>
<text text-anchor="middle" x="59" y="-32.38" font-family="Helvetica,sans-Serif" font-size="10.00">OptimizedGrid::Finalize</text>
</a>
</g>
</g>
<!-- Node2 -->
<g id="Node000002" class="node">
<title>Node2</title>
<g id="a_Node000002"><a xlink:href="../../d8/d24/_grid___computations___optimized_8cpp_a4efd9f60fc343a459b70cfe5087f87a3.html#a4efd9f60fc343a459b70cfe5087f87a3" target="_top" xlink:title=" ">
<polygon fill="white" stroke="#666666" points="284,-67.88 154,-67.88 154,-48.62 284,-48.62 284,-67.88"/>
<text text-anchor="middle" x="219" y="-54.38" font-family="Helvetica,sans-Serif" font-size="10.00">analyze_grid_performance</text>
</a>
</g>
</g>
<!-- Node1&#45;&gt;Node2 -->
<g id="edge1_Node000001_Node000002" class="edge">
<title>Node1&#45;&gt;Node2</title>
<g id="a_edge1_Node000001_Node000002"><a xlink:title=" ">
<path fill="none" stroke="#63b8ff" d="M118.38,-44.38C126.21,-45.47 134.33,-46.6 142.4,-47.72"/>
<polygon fill="#63b8ff" stroke="#63b8ff" points="141.86,-51.18 152.24,-49.09 142.82,-44.25 141.86,-51.18"/>
</a>
</g>
</g>
<!-- Node3 -->
<g id="Node000003" class="node">
<title>Node3</title>
<g id="a_Node000003"><a xlink:href="../../d4/d7b/namespace_grid_performance_ab355c9dbf17affc9611ad6a01bdcd930.html#ab355c9dbf17affc9611ad6a01bdcd930" target="_top" xlink:title=" ">
<polygon fill="white" stroke="#666666" points="279.5,-30.5 158.5,-30.5 158.5,0 279.5,0 279.5,-30.5"/>
<text text-anchor="start" x="166.5" y="-17" font-family="Helvetica,sans-Serif" font-size="10.00">GridPerformance::print</text>
<text text-anchor="middle" x="219" y="-5.75" font-family="Helvetica,sans-Serif" font-size="10.00">_performance_summary</text>
</a>
</g>
</g>
<!-- Node1&#45;&gt;Node3 -->
<g id="edge2_Node000001_Node000003" class="edge">
<title>Node1&#45;&gt;Node3</title>
<g id="a_edge2_Node000001_Node000003"><a xlink:title=" ">
<path fill="none" stroke="#63b8ff" d="M118.38,-28.49C127.57,-27.27 137.16,-25.99 146.6,-24.74"/>
<polygon fill="#63b8ff" stroke="#63b8ff" points="147.05,-28.21 156.51,-23.42 146.13,-21.27 147.05,-28.21"/>
</a>
</g>
</g>
</g>
</svg>
