<?xml version="1.0" encoding="UTF-8" standalone="no"?>
<!DOCTYPE svg PUBLIC "-//W3C//DTD SVG 1.1//EN"
 "http://www.w3.org/Graphics/SVG/1.1/DTD/svg11.dtd">
<!-- Generated by graphviz version 12.2.1 (20241206.2353)
 -->
<!-- Title: Identify_Neighbours_For_Second_Gradients Pages: 1 -->
<svg width="425pt" height="64pt"
 viewBox="0.00 0.00 425.25 64.25" xmlns="http://www.w3.org/2000/svg" xmlns:xlink="http://www.w3.org/1999/xlink">
<g id="graph0" class="graph" transform="scale(1 1) rotate(0) translate(4 60.25)">
<title>Identify_Neighbours_For_Second_Gradients</title>
<!-- Node1 -->
<g id="Node000001" class="node">
<title>Node1</title>
<g id="a_Node000001"><a xlink:title="Identifies the secondary neighbors of a given cell to evaluate second gradients.">
<polygon fill="#999999" stroke="#666666" points="417.25,-42.88 296.25,-42.88 296.25,-12.37 417.25,-12.37 417.25,-42.88"/>
<text text-anchor="start" x="304.25" y="-29.38" font-family="Helvetica,sans-Serif" font-size="10.00">Identify_Neighbours</text>
<text text-anchor="middle" x="356.75" y="-18.12" font-family="Helvetica,sans-Serif" font-size="10.00">_For_Second_Gradients</text>
</a>
</g>
</g>
<!-- Node2 -->
<g id="Node000002" class="node">
<title>Node2</title>
<g id="a_Node000002"><a xlink:href="../../d7/d6d/_initialize_8cpp_acc3c3292e370176c51c654a01e651e24.html#acc3c3292e370176c51c654a01e651e24" target="_top" xlink:title=" ">
<polygon fill="white" stroke="#666666" points="260.25,-37.25 208.25,-37.25 208.25,-18 260.25,-18 260.25,-37.25"/>
<text text-anchor="middle" x="234.25" y="-23.75" font-family="Helvetica,sans-Serif" font-size="10.00">Initialize</text>
</a>
</g>
</g>
<!-- Node1&#45;&gt;Node2 -->
<g id="edge1_Node000001_Node000002" class="edge">
<title>Node1&#45;&gt;Node2</title>
<g id="a_edge1_Node000001_Node000002"><a xlink:title=" ">
<path fill="none" stroke="#63b8ff" d="M284.57,-27.62C276.07,-27.62 267.87,-27.62 260.68,-27.62"/>
<polygon fill="#63b8ff" stroke="#63b8ff" points="284.34,-31.13 294.34,-27.63 284.34,-24.13 284.34,-31.13"/>
</a>
</g>
</g>
<!-- Node3 -->
<g id="Node000003" class="node">
<title>Node3</title>
<g id="a_Node000003"><a xlink:href="../../d7/d6d/_initialize_8cpp_aa59beb74c9d4ef2bcd7e6d86f16dc682.html#aa59beb74c9d4ef2bcd7e6d86f16dc682" target="_top" xlink:title=" ">
<polygon fill="white" stroke="#666666" points="148.62,-56.25 96.62,-56.25 96.62,-37 148.62,-37 148.62,-56.25"/>
<text text-anchor="middle" x="122.62" y="-42.75" font-family="Helvetica,sans-Serif" font-size="10.00">Initialize</text>
</a>
</g>
</g>
<!-- Node2&#45;&gt;Node3 -->
<g id="edge2_Node000002_Node000003" class="edge">
<title>Node2&#45;&gt;Node3</title>
<g id="a_edge2_Node000002_Node000003"><a xlink:title=" ">
<path fill="none" stroke="#63b8ff" d="M196.87,-33.93C181.15,-36.66 163.14,-39.78 148.91,-42.24"/>
<polygon fill="#63b8ff" stroke="#63b8ff" points="197.08,-37.45 206.33,-32.29 195.88,-30.55 197.08,-37.45"/>
</a>
</g>
</g>
<!-- Node4 -->
<g id="Node000004" class="node">
<title>Node4</title>
<g id="a_Node000004"><a xlink:href="../../d3/db8/_initialize___test_case_8cpp_a4debd02bbc1736679fe1145738aba8c3.html#a4debd02bbc1736679fe1145738aba8c3" target="_top" xlink:title=" ">
<polygon fill="white" stroke="#666666" points="172.25,-19.25 73,-19.25 73,0 172.25,0 172.25,-19.25"/>
<text text-anchor="middle" x="122.62" y="-5.75" font-family="Helvetica,sans-Serif" font-size="10.00">Initialize_TestCase</text>
</a>
</g>
</g>
<!-- Node2&#45;&gt;Node4 -->
<g id="edge3_Node000002_Node000004" class="edge">
<title>Node2&#45;&gt;Node4</title>
<g id="a_edge3_Node000002_Node000004"><a xlink:title=" ">
<path fill="none" stroke="#63b8ff" d="M196.64,-21.61C188.94,-20.35 180.7,-19 172.63,-17.67"/>
<polygon fill="#63b8ff" stroke="#63b8ff" points="195.9,-25.04 206.33,-23.2 197.03,-18.13 195.9,-25.04"/>
</a>
</g>
</g>
<!-- Node5 -->
<g id="Node000005" class="node">
<title>Node5</title>
<g id="a_Node000005"><a xlink:href="../../d5/d12/_main_8cpp_a0ddf1224851353fc92bfbff6f499fa97.html#a0ddf1224851353fc92bfbff6f499fa97" target="_top" xlink:title=" ">
<polygon fill="white" stroke="#666666" points="37,-19.25 0,-19.25 0,0 37,0 37,-19.25"/>
<text text-anchor="middle" x="18.5" y="-5.75" font-family="Helvetica,sans-Serif" font-size="10.00">main</text>
</a>
</g>
</g>
<!-- Node4&#45;&gt;Node5 -->
<g id="edge4_Node000004_Node000005" class="edge">
<title>Node4&#45;&gt;Node5</title>
<g id="a_edge4_Node000004_Node000005"><a xlink:title=" ">
<path fill="none" stroke="#63b8ff" d="M61.39,-9.62C52.58,-9.62 44.16,-9.62 37.2,-9.62"/>
<polygon fill="#63b8ff" stroke="#63b8ff" points="61.14,-13.13 71.14,-9.63 61.14,-6.13 61.14,-13.13"/>
</a>
</g>
</g>
</g>
</svg>
