<?xml version="1.0" encoding="UTF-8" standalone="no"?>
<!DOCTYPE svg PUBLIC "-//W3C//DTD SVG 1.1//EN"
 "http://www.w3.org/Graphics/SVG/1.1/DTD/svg11.dtd">
<!-- Generated by graphviz version 12.2.1 (20241206.2353)
 -->
<!-- Title: Viscous_Flux_on_Face Pages: 1 -->
<svg width="707pt" height="92pt"
 viewBox="0.00 0.00 706.75 92.26" xmlns="http://www.w3.org/2000/svg" xmlns:xlink="http://www.w3.org/1999/xlink">
<g id="graph0" class="graph" transform="scale(1 1) rotate(0) translate(4 88.26)">
<title>Viscous_Flux_on_Face</title>
<!-- Node1 -->
<g id="Node000001" class="node">
<title>Node1</title>
<g id="a_Node000001"><a xlink:title=" ">
<polygon fill="#999999" stroke="#666666" points="698.75,-57.25 580.75,-57.25 580.75,-38 698.75,-38 698.75,-57.25"/>
<text text-anchor="middle" x="639.75" y="-43.75" font-family="Helvetica,sans-Serif" font-size="10.00">Viscous_Flux_on_Face</text>
</a>
</g>
</g>
<!-- Node2 -->
<g id="Node000002" class="node">
<title>Node2</title>
<g id="a_Node000002"><a xlink:href="../../d4/d5d/_grid___refine___functions_8cpp_a23f2145125f9b089e43c4c69c4a8905c.html#a23f2145125f9b089e43c4c69c4a8905c" target="_top" xlink:title=" ">
<polygon fill="white" stroke="#666666" points="544.75,-57.25 415.5,-57.25 415.5,-38 544.75,-38 544.75,-57.25"/>
<text text-anchor="middle" x="480.12" y="-43.75" font-family="Helvetica,sans-Serif" font-size="10.00">Evaluate_Viscous_Fluxes</text>
</a>
</g>
</g>
<!-- Node1&#45;&gt;Node2 -->
<g id="edge1_Node000001_Node000002" class="edge">
<title>Node1&#45;&gt;Node2</title>
<g id="a_edge1_Node000001_Node000002"><a xlink:title=" ">
<path fill="none" stroke="#63b8ff" d="M569.03,-47.62C561.11,-47.62 553.07,-47.62 545.23,-47.62"/>
<polygon fill="#63b8ff" stroke="#63b8ff" points="568.99,-51.13 578.99,-47.63 568.99,-44.13 568.99,-51.13"/>
</a>
</g>
</g>
<!-- Node3 -->
<g id="Node000003" class="node">
<title>Node3</title>
<g id="a_Node000003"><a xlink:href="../../dd/dbf/_euler___python___wrapper_8cpp_ac5ccb50c3be270f798e054dd36987442.html#ac5ccb50c3be270f798e054dd36987442" target="_top" xlink:title=" ">
<polygon fill="white" stroke="#666666" points="112.75,-84.25 0,-84.25 0,-65 112.75,-65 112.75,-84.25"/>
<text text-anchor="middle" x="56.38" y="-70.75" font-family="Helvetica,sans-Serif" font-size="10.00">PYBIND11_MODULE</text>
</a>
</g>
</g>
<!-- Node2&#45;&gt;Node3 -->
<g id="edge2_Node000002_Node000003" class="edge">
<title>Node2&#45;&gt;Node3</title>
<g id="a_edge2_Node000002_Node000003"><a xlink:title=" ">
<path fill="none" stroke="#63b8ff" d="M419.13,-59.87C406.1,-62.3 392.36,-64.7 379.5,-66.62 277.83,-81.85 251.45,-87.11 148.75,-82.62 137.14,-82.12 124.72,-81.25 112.89,-80.27"/>
<polygon fill="#63b8ff" stroke="#63b8ff" points="419.7,-63.32 428.87,-58.01 418.39,-56.45 419.7,-63.32"/>
</a>
</g>
</g>
<!-- Node4 -->
<g id="Node000004" class="node">
<title>Node4</title>
<g id="a_Node000004"><a xlink:href="../../de/d22/_cuda___parallel___r_k_8cpp_a794f030971fbb7c9dd4bc08df03f50f1.html#a794f030971fbb7c9dd4bc08df03f50f1" target="_top" xlink:title=" ">
<polygon fill="white" stroke="#666666" points="379.5,-57.25 269,-57.25 269,-38 379.5,-38 379.5,-57.25"/>
<text text-anchor="middle" x="324.25" y="-43.75" font-family="Helvetica,sans-Serif" font-size="10.00">Runge_Kutta_Method</text>
</a>
</g>
</g>
<!-- Node2&#45;&gt;Node4 -->
<g id="edge3_Node000002_Node000004" class="edge">
<title>Node2&#45;&gt;Node4</title>
<g id="a_edge3_Node000002_Node000004"><a xlink:title=" ">
<path fill="none" stroke="#63b8ff" d="M403.85,-47.62C395.78,-47.62 387.68,-47.62 379.92,-47.62"/>
<polygon fill="#63b8ff" stroke="#63b8ff" points="403.69,-51.13 413.69,-47.63 403.69,-44.13 403.69,-51.13"/>
</a>
</g>
</g>
<!-- Node7 -->
<g id="Node000007" class="node">
<title>Node7</title>
<g id="a_Node000007"><a xlink:href="../../de/df0/_solver_8cpp_a2f37f06e8324a1ed6aa99efdbba81865.html#a2f37f06e8324a1ed6aa99efdbba81865" target="_top" xlink:title=" ">
<polygon fill="white" stroke="#666666" points="233,-19.25 148.75,-19.25 148.75,0 233,0 233,-19.25"/>
<text text-anchor="middle" x="190.88" y="-5.75" font-family="Helvetica,sans-Serif" font-size="10.00">Viscous_Solver</text>
</a>
</g>
</g>
<!-- Node2&#45;&gt;Node7 -->
<g id="edge11_Node000002_Node000007" class="edge">
<title>Node2&#45;&gt;Node7</title>
<g id="a_edge11_Node000002_Node000007"><a xlink:title=" ">
<path fill="none" stroke="#63b8ff" d="M419.95,-35.46C406.68,-32.97 392.64,-30.54 379.5,-28.62 329.44,-21.33 271.47,-15.92 233.36,-12.78"/>
<polygon fill="#63b8ff" stroke="#63b8ff" points="418.91,-38.82 429.39,-37.26 420.22,-31.95 418.91,-38.82"/>
</a>
</g>
</g>
<!-- Node4&#45;&gt;Node3 -->
<g id="edge7_Node000004_Node000003" class="edge">
<title>Node4&#45;&gt;Node3</title>
<g id="a_edge7_Node000004_Node000003"><a xlink:title=" ">
<path fill="none" stroke="#63b8ff" d="M268.45,-59.88C256.8,-62.11 244.53,-64.19 233,-65.62 193.01,-70.61 147.57,-72.85 112.92,-73.85"/>
<polygon fill="#63b8ff" stroke="#63b8ff" points="268.78,-63.38 277.91,-58 267.42,-56.52 268.78,-63.38"/>
</a>
</g>
</g>
<!-- Node5 -->
<g id="Node000005" class="node">
<title>Node5</title>
<g id="a_Node000005"><a xlink:href="../../de/df0/_solver_8cpp_ad0f49408a26339b5f7043bf867c3fa8d.html#ad0f49408a26339b5f7043bf867c3fa8d" target="_top" xlink:title=" ">
<polygon fill="white" stroke="#666666" points="232.25,-56.25 149.5,-56.25 149.5,-37 232.25,-37 232.25,-56.25"/>
<text text-anchor="middle" x="190.88" y="-42.75" font-family="Helvetica,sans-Serif" font-size="10.00">Inviscid_Solver</text>
</a>
</g>
</g>
<!-- Node4&#45;&gt;Node5 -->
<g id="edge4_Node000004_Node000005" class="edge">
<title>Node4&#45;&gt;Node5</title>
<g id="a_edge4_Node000004_Node000005"><a xlink:title=" ">
<path fill="none" stroke="#63b8ff" d="M257.21,-47.12C248.76,-47.06 240.33,-46.99 232.46,-46.93"/>
<polygon fill="#63b8ff" stroke="#63b8ff" points="257.14,-50.62 267.16,-47.2 257.19,-43.62 257.14,-50.62"/>
</a>
</g>
</g>
<!-- Node4&#45;&gt;Node7 -->
<g id="edge8_Node000004_Node000007" class="edge">
<title>Node4&#45;&gt;Node7</title>
<g id="a_edge8_Node000004_Node000007"><a xlink:title=" ">
<path fill="none" stroke="#63b8ff" d="M277.68,-34.44C260.87,-29.58 242.12,-24.16 226.44,-19.62"/>
<polygon fill="#63b8ff" stroke="#63b8ff" points="276.36,-37.7 286.93,-37.12 278.3,-30.98 276.36,-37.7"/>
</a>
</g>
</g>
<!-- Node5&#45;&gt;Node3 -->
<g id="edge5_Node000005_Node000003" class="edge">
<title>Node5&#45;&gt;Node3</title>
<g id="a_edge5_Node000005_Node000003"><a xlink:title=" ">
<path fill="none" stroke="#63b8ff" d="M138.04,-57.58C127.25,-59.86 115.92,-62.25 105.28,-64.5"/>
<polygon fill="#63b8ff" stroke="#63b8ff" points="138.5,-61.06 147.56,-55.57 137.05,-54.21 138.5,-61.06"/>
</a>
</g>
</g>
<!-- Node6 -->
<g id="Node000006" class="node">
<title>Node6</title>
<g id="a_Node000006"><a xlink:href="../../d5/d12/_main_8cpp_a35d775933750ace299102f06a1712663.html#a35d775933750ace299102f06a1712663" target="_top" xlink:title="Executes the appropriate solver based on the simulation configuration.">
<polygon fill="white" stroke="#666666" points="85,-37.25 27.75,-37.25 27.75,-18 85,-18 85,-37.25"/>
<text text-anchor="middle" x="56.38" y="-23.75" font-family="Helvetica,sans-Serif" font-size="10.00">runSolver</text>
</a>
</g>
</g>
<!-- Node5&#45;&gt;Node6 -->
<g id="edge6_Node000005_Node000006" class="edge">
<title>Node5&#45;&gt;Node6</title>
<g id="a_edge6_Node000005_Node000006"><a xlink:title=" ">
<path fill="none" stroke="#63b8ff" d="M137.83,-39.16C119.9,-36.59 100.53,-33.81 85.28,-31.63"/>
<polygon fill="#63b8ff" stroke="#63b8ff" points="137.15,-42.6 147.54,-40.55 138.14,-35.67 137.15,-42.6"/>
</a>
</g>
</g>
<!-- Node7&#45;&gt;Node3 -->
<g id="edge9_Node000007_Node000003" class="edge">
<title>Node7&#45;&gt;Node3</title>
<g id="a_edge9_Node000007_Node000003"><a xlink:title=" ">
<path fill="none" stroke="#63b8ff" d="M155.79,-24.31C153.4,-25.41 151.03,-26.53 148.75,-27.62 132.45,-35.48 128.82,-38.32 112.75,-46.62 101.07,-52.66 87.95,-59.3 77.41,-64.6"/>
<polygon fill="#63b8ff" stroke="#63b8ff" points="157.18,-27.52 164.87,-20.23 154.32,-21.14 157.18,-27.52"/>
</a>
</g>
</g>
<!-- Node7&#45;&gt;Node6 -->
<g id="edge10_Node000007_Node000006" class="edge">
<title>Node7&#45;&gt;Node6</title>
<g id="a_edge10_Node000007_Node000006"><a xlink:title=" ">
<path fill="none" stroke="#63b8ff" d="M136.97,-16.81C119.33,-19.21 100.37,-21.78 85.38,-23.82"/>
<polygon fill="#63b8ff" stroke="#63b8ff" points="137.38,-20.29 146.81,-15.47 136.43,-13.35 137.38,-20.29"/>
</a>
</g>
</g>
</g>
</svg>
