<?xml version="1.0" encoding="UTF-8" standalone="no"?>
<!DOCTYPE svg PUBLIC "-//W3C//DTD SVG 1.1//EN"
 "http://www.w3.org/Graphics/SVG/1.1/DTD/svg11.dtd">
<!-- Generated by graphviz version 12.2.1 (20241206.2353)
 -->
<!-- Title: Evaluate_Viscous_Fluxes Pages: 1 -->
<svg width="595pt" height="64pt"
 viewBox="0.00 0.00 594.75 64.25" xmlns="http://www.w3.org/2000/svg" xmlns:xlink="http://www.w3.org/1999/xlink">
<g id="graph0" class="graph" transform="scale(1 1) rotate(0) translate(4 60.25)">
<title>Evaluate_Viscous_Fluxes</title>
<!-- Node1 -->
<g id="Node000001" class="node">
<title>Node1</title>
<g id="a_Node000001"><a xlink:title=" ">
<polygon fill="#999999" stroke="#666666" points="129.25,-37.25 0,-37.25 0,-18 129.25,-18 129.25,-37.25"/>
<text text-anchor="middle" x="64.62" y="-23.75" font-family="Helvetica,sans-Serif" font-size="10.00">Evaluate_Viscous_Fluxes</text>
</a>
</g>
</g>
<!-- Node2 -->
<g id="Node000002" class="node">
<title>Node2</title>
<g id="a_Node000002"><a xlink:href="../../d4/d5d/_grid___refine___functions_8cpp_a3a0810f5dcad0d068c35cb8aa9180be4.html#a3a0810f5dcad0d068c35cb8aa9180be4" target="_top" xlink:title=" ">
<polygon fill="white" stroke="#666666" points="283.25,-37.25 165.25,-37.25 165.25,-18 283.25,-18 283.25,-37.25"/>
<text text-anchor="middle" x="224.25" y="-23.75" font-family="Helvetica,sans-Serif" font-size="10.00">Viscous_Flux_on_Face</text>
</a>
</g>
</g>
<!-- Node1&#45;&gt;Node2 -->
<g id="edge1_Node000001_Node000002" class="edge">
<title>Node1&#45;&gt;Node2</title>
<g id="a_edge1_Node000001_Node000002"><a xlink:title=" ">
<path fill="none" stroke="#63b8ff" d="M129.74,-27.62C137.53,-27.62 145.51,-27.62 153.38,-27.62"/>
<polygon fill="#63b8ff" stroke="#63b8ff" points="153.27,-31.13 163.27,-27.63 153.27,-24.13 153.27,-31.13"/>
</a>
</g>
</g>
<!-- Node3 -->
<g id="Node000003" class="node">
<title>Node3</title>
<g id="a_Node000003"><a xlink:href="../../d4/d5d/_grid___refine___functions_8cpp_a82a2c55106b4dfc3af8c36a285ee05b6.html#a82a2c55106b4dfc3af8c36a285ee05b6" target="_top" xlink:title="Calculate the gradient on a face of a cell.">
<polygon fill="white" stroke="#666666" points="418.5,-42.88 319.25,-42.88 319.25,-12.37 418.5,-12.37 418.5,-42.88"/>
<text text-anchor="start" x="327.25" y="-29.38" font-family="Helvetica,sans-Serif" font-size="10.00">Calculate_Gradient</text>
<text text-anchor="middle" x="368.88" y="-18.12" font-family="Helvetica,sans-Serif" font-size="10.00">_On_Face</text>
</a>
</g>
</g>
<!-- Node2&#45;&gt;Node3 -->
<g id="edge2_Node000002_Node000003" class="edge">
<title>Node2&#45;&gt;Node3</title>
<g id="a_edge2_Node000002_Node000003"><a xlink:title=" ">
<path fill="none" stroke="#63b8ff" d="M283.67,-27.62C291.53,-27.62 299.6,-27.62 307.49,-27.62"/>
<polygon fill="#63b8ff" stroke="#63b8ff" points="307.36,-31.13 317.36,-27.63 307.36,-24.13 307.36,-31.13"/>
</a>
</g>
</g>
<!-- Node4 -->
<g id="Node000004" class="node">
<title>Node4</title>
<g id="a_Node000004"><a xlink:href="../../d4/d5d/_grid___refine___functions_8cpp_a21a74c24cb35575f1574f39c39949aa2.html#a21a74c24cb35575f1574f39c39949aa2" target="_top" xlink:title=" ">
<polygon fill="white" stroke="#666666" points="570.25,-56.25 471,-56.25 471,-37 570.25,-37 570.25,-56.25"/>
<text text-anchor="middle" x="520.62" y="-42.75" font-family="Helvetica,sans-Serif" font-size="10.00">Calculate_Gradient</text>
</a>
</g>
</g>
<!-- Node3&#45;&gt;Node4 -->
<g id="edge3_Node000003_Node000004" class="edge">
<title>Node3&#45;&gt;Node4</title>
<g id="a_edge3_Node000003_Node000004"><a xlink:title=" ">
<path fill="none" stroke="#63b8ff" d="M418.91,-33.85C431.9,-35.5 446.08,-37.29 459.59,-39.01"/>
<polygon fill="#63b8ff" stroke="#63b8ff" points="458.87,-42.45 469.24,-40.23 459.76,-35.5 458.87,-42.45"/>
</a>
</g>
</g>
<!-- Node5 -->
<g id="Node000005" class="node">
<title>Node5</title>
<g id="a_Node000005"><a xlink:href="../../d4/d5d/_grid___refine___functions_8cpp_aea18493f007f54b110b46e03b4a012ac.html#aea18493f007f54b110b46e03b4a012ac" target="_top" xlink:title=" ">
<polygon fill="white" stroke="#666666" points="586.75,-19.25 454.5,-19.25 454.5,0 586.75,0 586.75,-19.25"/>
<text text-anchor="middle" x="520.62" y="-5.75" font-family="Helvetica,sans-Serif" font-size="10.00">Calculate_Vertex_Average</text>
</a>
</g>
</g>
<!-- Node3&#45;&gt;Node5 -->
<g id="edge4_Node000003_Node000005" class="edge">
<title>Node3&#45;&gt;Node5</title>
<g id="a_edge4_Node000003_Node000005"><a xlink:title=" ">
<path fill="none" stroke="#63b8ff" d="M418.91,-21.73C426.56,-20.81 434.63,-19.84 442.72,-18.87"/>
<polygon fill="#63b8ff" stroke="#63b8ff" points="443.13,-22.34 452.64,-17.68 442.3,-15.39 443.13,-22.34"/>
</a>
</g>
</g>
</g>
</svg>
