<?xml version="1.0" encoding="UTF-8" standalone="no"?>
<!DOCTYPE svg PUBLIC "-//W3C//DTD SVG 1.1//EN"
 "http://www.w3.org/Graphics/SVG/1.1/DTD/svg11.dtd">
<!-- Generated by graphviz version 12.2.1 (20241206.2353)
 -->
<!-- Title: Calculate_Gradient Pages: 1 -->
<svg width="879pt" height="236pt"
 viewBox="0.00 0.00 879.00 235.88" xmlns="http://www.w3.org/2000/svg" xmlns:xlink="http://www.w3.org/1999/xlink">
<g id="graph0" class="graph" transform="scale(1 1) rotate(0) translate(4 231.88)">
<title>Calculate_Gradient</title>
<!-- Node1 -->
<g id="Node000001" class="node">
<title>Node1</title>
<g id="a_Node000001"><a xlink:title=" ">
<polygon fill="#999999" stroke="#666666" points="871,-136.25 771.75,-136.25 771.75,-117 871,-117 871,-136.25"/>
<text text-anchor="middle" x="821.38" y="-122.75" font-family="Helvetica,sans-Serif" font-size="10.00">Calculate_Gradient</text>
</a>
</g>
</g>
<!-- Node2 -->
<g id="Node000002" class="node">
<title>Node2</title>
<g id="a_Node000002"><a xlink:href="../../d4/d5d/_grid___refine___functions_8cpp_a5ee1bc8dfbb2a36483612cd1549677d2.html#a5ee1bc8dfbb2a36483612cd1549677d2" target="_top" xlink:title=" ">
<polygon fill="white" stroke="#666666" points="735.75,-184.88 636.5,-184.88 636.5,-154.38 735.75,-154.38 735.75,-184.88"/>
<text text-anchor="start" x="644.5" y="-171.38" font-family="Helvetica,sans-Serif" font-size="10.00">Calculate_Gradient</text>
<text text-anchor="middle" x="686.12" y="-160.12" font-family="Helvetica,sans-Serif" font-size="10.00">_At_Cell_Center</text>
</a>
</g>
</g>
<!-- Node1&#45;&gt;Node2 -->
<g id="edge1_Node000001_Node000002" class="edge">
<title>Node1&#45;&gt;Node2</title>
<g id="a_edge1_Node000001_Node000002"><a xlink:title=" ">
<path fill="none" stroke="#63b8ff" d="M778.25,-140.22C764.8,-144.56 749.79,-149.4 735.9,-153.88"/>
<polygon fill="#63b8ff" stroke="#63b8ff" points="779.25,-143.57 787.69,-137.17 777.1,-136.91 779.25,-143.57"/>
</a>
</g>
</g>
<!-- Node5 -->
<g id="Node000005" class="node">
<title>Node5</title>
<g id="a_Node000005"><a xlink:href="../../d4/d5d/_grid___refine___functions_8cpp_a82a2c55106b4dfc3af8c36a285ee05b6.html#a82a2c55106b4dfc3af8c36a285ee05b6" target="_top" xlink:title="Calculate the gradient on a face of a cell.">
<polygon fill="white" stroke="#666666" points="735.75,-98.88 636.5,-98.88 636.5,-68.38 735.75,-68.38 735.75,-98.88"/>
<text text-anchor="start" x="644.5" y="-85.38" font-family="Helvetica,sans-Serif" font-size="10.00">Calculate_Gradient</text>
<text text-anchor="middle" x="686.12" y="-74.12" font-family="Helvetica,sans-Serif" font-size="10.00">_On_Face</text>
</a>
</g>
</g>
<!-- Node1&#45;&gt;Node5 -->
<g id="edge4_Node000001_Node000005" class="edge">
<title>Node1&#45;&gt;Node5</title>
<g id="a_edge4_Node000001_Node000005"><a xlink:title=" ">
<path fill="none" stroke="#63b8ff" d="M778.25,-113.03C764.8,-108.69 749.79,-103.85 735.9,-99.37"/>
<polygon fill="#63b8ff" stroke="#63b8ff" points="777.1,-116.34 787.69,-116.08 779.25,-109.68 777.1,-116.34"/>
</a>
</g>
</g>
<!-- Node3 -->
<g id="Node000003" class="node">
<title>Node3</title>
<g id="a_Node000003"><a xlink:href="../../d4/d5d/_grid___refine___functions_8cpp_a28e5fd6ab9845b9b97283777da739b77.html#a28e5fd6ab9845b9b97283777da739b77" target="_top" xlink:title=" ">
<polygon fill="white" stroke="#666666" points="591.5,-227.88 487,-227.88 487,-197.38 591.5,-197.38 591.5,-227.88"/>
<text text-anchor="start" x="495" y="-214.38" font-family="Helvetica,sans-Serif" font-size="10.00">Calculate_Gradients</text>
<text text-anchor="middle" x="539.25" y="-203.12" font-family="Helvetica,sans-Serif" font-size="10.00">_At_Cell_Centers</text>
</a>
</g>
</g>
<!-- Node2&#45;&gt;Node3 -->
<g id="edge2_Node000002_Node000003" class="edge">
<title>Node2&#45;&gt;Node3</title>
<g id="a_edge2_Node000002_Node000003"><a xlink:title=" ">
<path fill="none" stroke="#63b8ff" d="M625.15,-187.43C614.05,-190.72 602.54,-194.14 591.72,-197.35"/>
<polygon fill="#63b8ff" stroke="#63b8ff" points="626.04,-190.81 634.63,-184.61 624.04,-184.1 626.04,-190.81"/>
</a>
</g>
</g>
<!-- Node4 -->
<g id="Node000004" class="node">
<title>Node4</title>
<g id="a_Node000004"><a xlink:href="../../d4/d5d/_grid___refine___functions_8cpp_ae4e76e6778aee34637e2f95acf742b1e.html#ae4e76e6778aee34637e2f95acf742b1e" target="_top" xlink:title=" ">
<polygon fill="white" stroke="#666666" points="587,-179.25 491.5,-179.25 491.5,-160 587,-160 587,-179.25"/>
<text text-anchor="middle" x="539.25" y="-165.75" font-family="Helvetica,sans-Serif" font-size="10.00">TagRefinableCells</text>
</a>
</g>
</g>
<!-- Node2&#45;&gt;Node4 -->
<g id="edge3_Node000002_Node000004" class="edge">
<title>Node2&#45;&gt;Node4</title>
<g id="a_edge3_Node000002_Node000004"><a xlink:title=" ">
<path fill="none" stroke="#63b8ff" d="M624.77,-169.62C612.25,-169.62 599.24,-169.62 587.29,-169.62"/>
<polygon fill="#63b8ff" stroke="#63b8ff" points="624.56,-173.13 634.56,-169.63 624.56,-166.13 624.56,-173.13"/>
</a>
</g>
</g>
<!-- Node6 -->
<g id="Node000006" class="node">
<title>Node6</title>
<g id="a_Node000006"><a xlink:href="../../db/d81/_viscous___calculations_8cpp_a5d9a0b19b8197154141a02ed0e831e26.html#a5d9a0b19b8197154141a02ed0e831e26" target="_top" xlink:title=" ">
<polygon fill="white" stroke="#666666" points="590.75,-141.88 487.75,-141.88 487.75,-111.38 590.75,-111.38 590.75,-141.88"/>
<text text-anchor="start" x="495.75" y="-128.38" font-family="Helvetica,sans-Serif" font-size="10.00">Evaluate_Wall_Skin</text>
<text text-anchor="middle" x="539.25" y="-117.12" font-family="Helvetica,sans-Serif" font-size="10.00">_Friction</text>
</a>
</g>
</g>
<!-- Node5&#45;&gt;Node6 -->
<g id="edge5_Node000005_Node000006" class="edge">
<title>Node5&#45;&gt;Node6</title>
<g id="a_edge5_Node000005_Node000006"><a xlink:title=" ">
<path fill="none" stroke="#63b8ff" d="M625.37,-101.36C614.03,-104.73 602.26,-108.22 591.23,-111.5"/>
<polygon fill="#63b8ff" stroke="#63b8ff" points="626.04,-104.81 634.63,-98.61 624.04,-98.1 626.04,-104.81"/>
</a>
</g>
</g>
<!-- Node11 -->
<g id="Node000011" class="node">
<title>Node11</title>
<g id="a_Node000011"><a xlink:href="../../df/d57/_implicit___momentum_8cpp_a50230f674dde72ccf48cc520de73d726.html#a50230f674dde72ccf48cc520de73d726" target="_top" xlink:title=" ">
<polygon fill="white" stroke="#666666" points="600.5,-93.25 478,-93.25 478,-74 600.5,-74 600.5,-93.25"/>
<text text-anchor="middle" x="539.25" y="-79.75" font-family="Helvetica,sans-Serif" font-size="10.00">Velocity_Corrector_Step</text>
</a>
</g>
</g>
<!-- Node5&#45;&gt;Node11 -->
<g id="edge10_Node000005_Node000011" class="edge">
<title>Node5&#45;&gt;Node11</title>
<g id="a_edge10_Node000005_Node000011"><a xlink:title=" ">
<path fill="none" stroke="#63b8ff" d="M624.69,-83.62C616.8,-83.62 608.71,-83.62 600.81,-83.62"/>
<polygon fill="#63b8ff" stroke="#63b8ff" points="624.56,-87.13 634.56,-83.63 624.56,-80.13 624.56,-87.13"/>
</a>
</g>
</g>
<!-- Node13 -->
<g id="Node000013" class="node">
<title>Node13</title>
<g id="a_Node000013"><a xlink:href="../../df/d57/_implicit___momentum_8cpp_a720a0d00cec4bc0ffdc40e69de036355.html#a720a0d00cec4bc0ffdc40e69de036355" target="_top" xlink:title=" ">
<polygon fill="white" stroke="#666666" points="599.75,-56.25 478.75,-56.25 478.75,-37 599.75,-37 599.75,-56.25"/>
<text text-anchor="middle" x="539.25" y="-42.75" font-family="Helvetica,sans-Serif" font-size="10.00">Velocity_Predictor_Step</text>
</a>
</g>
</g>
<!-- Node5&#45;&gt;Node13 -->
<g id="edge12_Node000005_Node000013" class="edge">
<title>Node5&#45;&gt;Node13</title>
<g id="a_edge12_Node000005_Node000013"><a xlink:title=" ">
<path fill="none" stroke="#63b8ff" d="M625.09,-68.29C609.75,-64.37 593.65,-60.26 579.65,-56.69"/>
<polygon fill="#63b8ff" stroke="#63b8ff" points="624.06,-71.64 634.61,-70.72 625.79,-64.86 624.06,-71.64"/>
</a>
</g>
</g>
<!-- Node14 -->
<g id="Node000014" class="node">
<title>Node14</title>
<g id="a_Node000014"><a xlink:href="../../d4/d5d/_grid___refine___functions_8cpp_a3a0810f5dcad0d068c35cb8aa9180be4.html#a3a0810f5dcad0d068c35cb8aa9180be4" target="_top" xlink:title=" ">
<polygon fill="white" stroke="#666666" points="598.25,-19.25 480.25,-19.25 480.25,0 598.25,0 598.25,-19.25"/>
<text text-anchor="middle" x="539.25" y="-5.75" font-family="Helvetica,sans-Serif" font-size="10.00">Viscous_Flux_on_Face</text>
</a>
</g>
</g>
<!-- Node5&#45;&gt;Node14 -->
<g id="edge14_Node000005_Node000014" class="edge">
<title>Node5&#45;&gt;Node14</title>
<g id="a_edge14_Node000005_Node000014"><a xlink:title=" ">
<path fill="none" stroke="#63b8ff" d="M656.06,-61.3C640.29,-50 620.06,-36.77 600.5,-27.62 594.07,-24.62 587.02,-21.98 580.09,-19.71"/>
<polygon fill="#63b8ff" stroke="#63b8ff" points="653.9,-64.06 664.04,-67.14 658.04,-58.41 653.9,-64.06"/>
</a>
</g>
</g>
<!-- Node7 -->
<g id="Node000007" class="node">
<title>Node7</title>
<g id="a_Node000007"><a xlink:href="../../de/df0/_solver_8cpp_a313c308da18b517cb3cf0384db6d4d7e.html#a313c308da18b517cb3cf0384db6d4d7e" target="_top" xlink:title=" ">
<polygon fill="white" stroke="#666666" points="263.62,-99.25 179.38,-99.25 179.38,-80 263.62,-80 263.62,-99.25"/>
<text text-anchor="middle" x="221.5" y="-85.75" font-family="Helvetica,sans-Serif" font-size="10.00">Viscous_Solver</text>
</a>
</g>
</g>
<!-- Node6&#45;&gt;Node7 -->
<g id="edge6_Node000006_Node000007" class="edge">
<title>Node6&#45;&gt;Node7</title>
<g id="a_edge6_Node000006_Node000007"><a xlink:title=" ">
<path fill="none" stroke="#63b8ff" d="M475.87,-126.41C430.4,-125.43 367.43,-122.38 312.75,-113.62 292.9,-110.45 271.1,-104.72 253.91,-99.65"/>
<polygon fill="#63b8ff" stroke="#63b8ff" points="475.76,-129.91 485.82,-126.59 475.89,-122.91 475.76,-129.91"/>
</a>
</g>
</g>
<!-- Node10 -->
<g id="Node000010" class="node">
<title>Node10</title>
<g id="a_Node000010"><a xlink:href="../../d4/df3/_turbulence___integration_8cpp_a564537a29550f0d8ec11e8ef76cd2b3a.html#a564537a29550f0d8ec11e8ef76cd2b3a" target="_top" xlink:title="Modified viscous solver with turbulence model integration.">
<polygon fill="white" stroke="#666666" points="432.25,-104.88 322.5,-104.88 322.5,-74.38 432.25,-74.38 432.25,-104.88"/>
<text text-anchor="start" x="330.5" y="-91.38" font-family="Helvetica,sans-Serif" font-size="10.00">Viscous_Solver_With</text>
<text text-anchor="middle" x="377.38" y="-80.12" font-family="Helvetica,sans-Serif" font-size="10.00">_Turbulence</text>
</a>
</g>
</g>
<!-- Node6&#45;&gt;Node10 -->
<g id="edge9_Node000006_Node000010" class="edge">
<title>Node6&#45;&gt;Node10</title>
<g id="a_edge9_Node000006_Node000010"><a xlink:title=" ">
<path fill="none" stroke="#63b8ff" d="M476.72,-112.39C462.15,-109.01 446.72,-105.44 432.5,-102.15"/>
<polygon fill="#63b8ff" stroke="#63b8ff" points="475.66,-115.73 486.19,-114.58 477.24,-108.91 475.66,-115.73"/>
</a>
</g>
</g>
<!-- Node8 -->
<g id="Node000008" class="node">
<title>Node8</title>
<g id="a_Node000008"><a xlink:href="../../d5/d12/_main_8cpp_afed4dca88e059a8cbd2c7af524468fe5.html#afed4dca88e059a8cbd2c7af524468fe5" target="_top" xlink:title="Executes the appropriate solver based on the simulation configuration.">
<polygon fill="white" stroke="#666666" points="130.25,-99.25 73,-99.25 73,-80 130.25,-80 130.25,-99.25"/>
<text text-anchor="middle" x="101.62" y="-85.75" font-family="Helvetica,sans-Serif" font-size="10.00">runSolver</text>
</a>
</g>
</g>
<!-- Node7&#45;&gt;Node8 -->
<g id="edge7_Node000007_Node000008" class="edge">
<title>Node7&#45;&gt;Node8</title>
<g id="a_edge7_Node000007_Node000008"><a xlink:title=" ">
<path fill="none" stroke="#63b8ff" d="M167.81,-89.62C154.96,-89.62 141.7,-89.62 130.53,-89.62"/>
<polygon fill="#63b8ff" stroke="#63b8ff" points="167.43,-93.13 177.43,-89.63 167.43,-86.13 167.43,-93.13"/>
</a>
</g>
</g>
<!-- Node9 -->
<g id="Node000009" class="node">
<title>Node9</title>
<g id="a_Node000009"><a xlink:href="../../d5/d12/_main_8cpp_a0ddf1224851353fc92bfbff6f499fa97.html#a0ddf1224851353fc92bfbff6f499fa97" target="_top" xlink:title=" ">
<polygon fill="white" stroke="#666666" points="37,-99.25 0,-99.25 0,-80 37,-80 37,-99.25"/>
<text text-anchor="middle" x="18.5" y="-85.75" font-family="Helvetica,sans-Serif" font-size="10.00">main</text>
</a>
</g>
</g>
<!-- Node8&#45;&gt;Node9 -->
<g id="edge8_Node000008_Node000009" class="edge">
<title>Node8&#45;&gt;Node9</title>
<g id="a_edge8_Node000008_Node000009"><a xlink:title=" ">
<path fill="none" stroke="#63b8ff" d="M61.38,-89.62C52.95,-89.62 44.43,-89.62 37.3,-89.62"/>
<polygon fill="#63b8ff" stroke="#63b8ff" points="61.19,-93.13 71.19,-89.63 61.19,-86.13 61.19,-93.13"/>
</a>
</g>
</g>
<!-- Node12 -->
<g id="Node000012" class="node">
<title>Node12</title>
<g id="a_Node000012"><a xlink:href="../../d4/d86/_incompressible___n_s_8cpp_a5e9f0a5f022b6318f83dd5a762785d1f.html#a5e9f0a5f022b6318f83dd5a762785d1f" target="_top" xlink:title=" ">
<polygon fill="white" stroke="#666666" points="433.38,-56.25 321.38,-56.25 321.38,-37 433.38,-37 433.38,-56.25"/>
<text text-anchor="middle" x="377.38" y="-42.75" font-family="Helvetica,sans-Serif" font-size="10.00">InCompressibleSolver</text>
</a>
</g>
</g>
<!-- Node11&#45;&gt;Node12 -->
<g id="edge11_Node000011_Node000012" class="edge">
<title>Node11&#45;&gt;Node12</title>
<g id="a_edge11_Node000011_Node000012"><a xlink:title=" ">
<path fill="none" stroke="#63b8ff" d="M483.39,-70.93C463.34,-66.29 440.95,-61.11 422.01,-56.72"/>
<polygon fill="#63b8ff" stroke="#63b8ff" points="482.56,-74.33 493.09,-73.17 484.14,-67.51 482.56,-74.33"/>
</a>
</g>
</g>
<!-- Node13&#45;&gt;Node12 -->
<g id="edge13_Node000013_Node000012" class="edge">
<title>Node13&#45;&gt;Node12</title>
<g id="a_edge13_Node000013_Node000012"><a xlink:title=" ">
<path fill="none" stroke="#63b8ff" d="M466.8,-46.62C455.69,-46.62 444.36,-46.62 433.68,-46.62"/>
<polygon fill="#63b8ff" stroke="#63b8ff" points="466.75,-50.13 476.75,-46.63 466.75,-43.13 466.75,-50.13"/>
</a>
</g>
</g>
<!-- Node15 -->
<g id="Node000015" class="node">
<title>Node15</title>
<g id="a_Node000015"><a xlink:href="../../d4/d5d/_grid___refine___functions_8cpp_a23f2145125f9b089e43c4c69c4a8905c.html#a23f2145125f9b089e43c4c69c4a8905c" target="_top" xlink:title=" ">
<polygon fill="white" stroke="#666666" points="442,-19.25 312.75,-19.25 312.75,0 442,0 442,-19.25"/>
<text text-anchor="middle" x="377.38" y="-5.75" font-family="Helvetica,sans-Serif" font-size="10.00">Evaluate_Viscous_Fluxes</text>
</a>
</g>
</g>
<!-- Node14&#45;&gt;Node15 -->
<g id="edge15_Node000014_Node000015" class="edge">
<title>Node14&#45;&gt;Node15</title>
<g id="a_edge15_Node000014_Node000015"><a xlink:title=" ">
<path fill="none" stroke="#63b8ff" d="M468.73,-9.62C460,-9.62 451.09,-9.62 442.45,-9.62"/>
<polygon fill="#63b8ff" stroke="#63b8ff" points="468.57,-13.13 478.57,-9.63 468.57,-6.13 468.57,-13.13"/>
</a>
</g>
</g>
<!-- Node15&#45;&gt;Node7 -->
<g id="edge17_Node000015_Node000007" class="edge">
<title>Node15&#45;&gt;Node7</title>
<g id="a_edge17_Node000015_Node000007"><a xlink:title=" ">
<path fill="none" stroke="#63b8ff" d="M322.96,-23.33C319.45,-24.66 316.02,-26.09 312.75,-27.62 282.29,-41.92 250.81,-66.09 234.28,-79.64"/>
<polygon fill="#63b8ff" stroke="#63b8ff" points="323.84,-26.73 332.15,-20.15 321.55,-20.11 323.84,-26.73"/>
</a>
</g>
</g>
<!-- Node16 -->
<g id="Node000016" class="node">
<title>Node16</title>
<g id="a_Node000016"><a xlink:href="../../de/d22/_cuda___parallel___r_k_8cpp_a794f030971fbb7c9dd4bc08df03f50f1.html#a794f030971fbb7c9dd4bc08df03f50f1" target="_top" xlink:title=" ">
<polygon fill="white" stroke="#666666" points="276.75,-19.25 166.25,-19.25 166.25,0 276.75,0 276.75,-19.25"/>
<text text-anchor="middle" x="221.5" y="-5.75" font-family="Helvetica,sans-Serif" font-size="10.00">Runge_Kutta_Method</text>
</a>
</g>
</g>
<!-- Node15&#45;&gt;Node16 -->
<g id="edge16_Node000015_Node000016" class="edge">
<title>Node15&#45;&gt;Node16</title>
<g id="a_edge16_Node000015_Node000016"><a xlink:title=" ">
<path fill="none" stroke="#63b8ff" d="M301.1,-9.62C293.03,-9.62 284.93,-9.62 277.17,-9.62"/>
<polygon fill="#63b8ff" stroke="#63b8ff" points="300.94,-13.13 310.94,-9.63 300.94,-6.13 300.94,-13.13"/>
</a>
</g>
</g>
</g>
</svg>
