<?xml version="1.0" encoding="UTF-8" standalone="no"?>
<!DOCTYPE svg PUBLIC "-//W3C//DTD SVG 1.1//EN"
 "http://www.w3.org/Graphics/SVG/1.1/DTD/svg11.dtd">
<!-- Generated by graphviz version 12.2.1 (20241206.2353)
 -->
<!-- Title: Calculate_Gradients_At_Cell_Centers Pages: 1 -->
<svg width="383pt" height="39pt"
 viewBox="0.00 0.00 383.00 38.50" xmlns="http://www.w3.org/2000/svg" xmlns:xlink="http://www.w3.org/1999/xlink">
<g id="graph0" class="graph" transform="scale(1 1) rotate(0) translate(4 34.5)">
<title>Calculate_Gradients_At_Cell_Centers</title>
<!-- Node1 -->
<g id="Node000001" class="node">
<title>Node1</title>
<g id="a_Node000001"><a xlink:title=" ">
<polygon fill="#999999" stroke="#666666" points="104.5,-30.5 0,-30.5 0,0 104.5,0 104.5,-30.5"/>
<text text-anchor="start" x="8" y="-17" font-family="Helvetica,sans-Serif" font-size="10.00">Calculate_Gradients</text>
<text text-anchor="middle" x="52.25" y="-5.75" font-family="Helvetica,sans-Serif" font-size="10.00">_At_Cell_Centers</text>
</a>
</g>
</g>
<!-- Node2 -->
<g id="Node000002" class="node">
<title>Node2</title>
<g id="a_Node000002"><a xlink:href="../../d4/d5d/_grid___refine___functions_8cpp_a5ee1bc8dfbb2a36483612cd1549677d2.html#a5ee1bc8dfbb2a36483612cd1549677d2" target="_top" xlink:title=" ">
<polygon fill="white" stroke="#666666" points="239.75,-30.5 140.5,-30.5 140.5,0 239.75,0 239.75,-30.5"/>
<text text-anchor="start" x="148.5" y="-17" font-family="Helvetica,sans-Serif" font-size="10.00">Calculate_Gradient</text>
<text text-anchor="middle" x="190.12" y="-5.75" font-family="Helvetica,sans-Serif" font-size="10.00">_At_Cell_Center</text>
</a>
</g>
</g>
<!-- Node1&#45;&gt;Node2 -->
<g id="edge1_Node000001_Node000002" class="edge">
<title>Node1&#45;&gt;Node2</title>
<g id="a_edge1_Node000001_Node000002"><a xlink:title=" ">
<path fill="none" stroke="#63b8ff" d="M104.62,-15.25C112.59,-15.25 120.88,-15.25 129.02,-15.25"/>
<polygon fill="#63b8ff" stroke="#63b8ff" points="128.86,-18.75 138.86,-15.25 128.86,-11.75 128.86,-18.75"/>
</a>
</g>
</g>
<!-- Node3 -->
<g id="Node000003" class="node">
<title>Node3</title>
<g id="a_Node000003"><a xlink:href="../../d4/d5d/_grid___refine___functions_8cpp_a21a74c24cb35575f1574f39c39949aa2.html#a21a74c24cb35575f1574f39c39949aa2" target="_top" xlink:title=" ">
<polygon fill="white" stroke="#666666" points="375,-24.88 275.75,-24.88 275.75,-5.63 375,-5.63 375,-24.88"/>
<text text-anchor="middle" x="325.38" y="-11.38" font-family="Helvetica,sans-Serif" font-size="10.00">Calculate_Gradient</text>
</a>
</g>
</g>
<!-- Node2&#45;&gt;Node3 -->
<g id="edge2_Node000002_Node000003" class="edge">
<title>Node2&#45;&gt;Node3</title>
<g id="a_edge2_Node000002_Node000003"><a xlink:title=" ">
<path fill="none" stroke="#63b8ff" d="M239.99,-15.25C247.86,-15.25 256.09,-15.25 264.2,-15.25"/>
<polygon fill="#63b8ff" stroke="#63b8ff" points="264.01,-18.75 274.01,-15.25 264.01,-11.75 264.01,-18.75"/>
</a>
</g>
</g>
</g>
</svg>
