<?xml version="1.0" encoding="UTF-8" standalone="no"?>
<!DOCTYPE svg PUBLIC "-//W3C//DTD SVG 1.1//EN"
 "http://www.w3.org/Graphics/SVG/1.1/DTD/svg11.dtd">
<!-- Generated by graphviz version 12.2.1 (20241206.2353)
 -->
<!-- Title: Calculate_Gradient Pages: 1 -->
<svg width="875pt" height="160pt"
 viewBox="0.00 0.00 874.50 159.88" xmlns="http://www.w3.org/2000/svg" xmlns:xlink="http://www.w3.org/1999/xlink">
<g id="graph0" class="graph" transform="scale(1 1) rotate(0) translate(4 155.88)">
<title>Calculate_Gradient</title>
<!-- Node1 -->
<g id="Node000001" class="node">
<title>Node1</title>
<g id="a_Node000001"><a xlink:title=" ">
<polygon fill="#999999" stroke="#666666" points="866.5,-81.25 767.25,-81.25 767.25,-62 866.5,-62 866.5,-81.25"/>
<text text-anchor="middle" x="816.88" y="-67.75" font-family="Helvetica,sans-Serif" font-size="10.00">Calculate_Gradient</text>
</a>
</g>
</g>
<!-- Node2 -->
<g id="Node000002" class="node">
<title>Node2</title>
<g id="a_Node000002"><a xlink:href="../../d4/d5d/_grid___refine___functions_8cpp_a5ee1bc8dfbb2a36483612cd1549677d2.html#a5ee1bc8dfbb2a36483612cd1549677d2" target="_top" xlink:title=" ">
<polygon fill="white" stroke="#666666" points="731.25,-111.88 632,-111.88 632,-81.38 731.25,-81.38 731.25,-111.88"/>
<text text-anchor="start" x="640" y="-98.38" font-family="Helvetica,sans-Serif" font-size="10.00">Calculate_Gradient</text>
<text text-anchor="middle" x="681.62" y="-87.12" font-family="Helvetica,sans-Serif" font-size="10.00">_At_Cell_Center</text>
</a>
</g>
</g>
<!-- Node1&#45;&gt;Node2 -->
<g id="edge1_Node000001_Node000002" class="edge">
<title>Node1&#45;&gt;Node2</title>
<g id="a_edge1_Node000001_Node000002"><a xlink:title=" ">
<path fill="none" stroke="#63b8ff" d="M755.97,-82.86C747.78,-84.4 739.45,-85.96 731.48,-87.46"/>
<polygon fill="#63b8ff" stroke="#63b8ff" points="756.34,-86.36 765.53,-81.07 755.05,-79.48 756.34,-86.36"/>
</a>
</g>
</g>
<!-- Node5 -->
<g id="Node000005" class="node">
<title>Node5</title>
<g id="a_Node000005"><a xlink:href="../../d4/d5d/_grid___refine___functions_8cpp_a82a2c55106b4dfc3af8c36a285ee05b6.html#a82a2c55106b4dfc3af8c36a285ee05b6" target="_top" xlink:title="Calculate the gradient on a face of a cell.">
<polygon fill="white" stroke="#666666" points="731.25,-62.88 632,-62.88 632,-32.38 731.25,-32.38 731.25,-62.88"/>
<text text-anchor="start" x="640" y="-49.38" font-family="Helvetica,sans-Serif" font-size="10.00">Calculate_Gradient</text>
<text text-anchor="middle" x="681.62" y="-38.12" font-family="Helvetica,sans-Serif" font-size="10.00">_On_Face</text>
</a>
</g>
</g>
<!-- Node1&#45;&gt;Node5 -->
<g id="edge4_Node000001_Node000005" class="edge">
<title>Node1&#45;&gt;Node5</title>
<g id="a_edge4_Node000001_Node000005"><a xlink:title=" ">
<path fill="none" stroke="#63b8ff" d="M755.69,-60.79C747.59,-59.33 739.36,-57.84 731.48,-56.42"/>
<polygon fill="#63b8ff" stroke="#63b8ff" points="755.06,-64.23 765.52,-62.56 756.3,-57.34 755.06,-64.23"/>
</a>
</g>
</g>
<!-- Node3 -->
<g id="Node000003" class="node">
<title>Node3</title>
<g id="a_Node000003"><a xlink:href="../../d4/d5d/_grid___refine___functions_8cpp_a28e5fd6ab9845b9b97283777da739b77.html#a28e5fd6ab9845b9b97283777da739b77" target="_top" xlink:title=" ">
<polygon fill="white" stroke="#666666" points="589.25,-151.88 484.75,-151.88 484.75,-121.38 589.25,-121.38 589.25,-151.88"/>
<text text-anchor="start" x="492.75" y="-138.38" font-family="Helvetica,sans-Serif" font-size="10.00">Calculate_Gradients</text>
<text text-anchor="middle" x="537" y="-127.12" font-family="Helvetica,sans-Serif" font-size="10.00">_At_Cell_Centers</text>
</a>
</g>
</g>
<!-- Node2&#45;&gt;Node3 -->
<g id="edge2_Node000002_Node000003" class="edge">
<title>Node2&#45;&gt;Node3</title>
<g id="a_edge2_Node000002_Node000003"><a xlink:title=" ">
<path fill="none" stroke="#63b8ff" d="M620.54,-113.47C610.26,-116.36 599.65,-119.34 589.6,-122.15"/>
<polygon fill="#63b8ff" stroke="#63b8ff" points="621.4,-116.87 630.08,-110.8 619.51,-110.13 621.4,-116.87"/>
</a>
</g>
</g>
<!-- Node4 -->
<g id="Node000004" class="node">
<title>Node4</title>
<g id="a_Node000004"><a xlink:href="../../d4/d5d/_grid___refine___functions_8cpp_ae4e76e6778aee34637e2f95acf742b1e.html#ae4e76e6778aee34637e2f95acf742b1e" target="_top" xlink:title=" ">
<polygon fill="white" stroke="#666666" points="584.75,-103.25 489.25,-103.25 489.25,-84 584.75,-84 584.75,-103.25"/>
<text text-anchor="middle" x="537" y="-89.75" font-family="Helvetica,sans-Serif" font-size="10.00">TagRefinableCells</text>
</a>
</g>
</g>
<!-- Node2&#45;&gt;Node4 -->
<g id="edge3_Node000002_Node000004" class="edge">
<title>Node2&#45;&gt;Node4</title>
<g id="a_edge3_Node000002_Node000004"><a xlink:title=" ">
<path fill="none" stroke="#63b8ff" d="M620.08,-95.35C608.43,-95.11 596.39,-94.85 585.25,-94.62"/>
<polygon fill="#63b8ff" stroke="#63b8ff" points="619.96,-98.85 630.03,-95.56 620.1,-91.85 619.96,-98.85"/>
</a>
</g>
</g>
<!-- Node6 -->
<g id="Node000006" class="node">
<title>Node6</title>
<g id="a_Node000006"><a xlink:href="../../db/d81/_viscous___calculations_8cpp_a5d9a0b19b8197154141a02ed0e831e26.html#a5d9a0b19b8197154141a02ed0e831e26" target="_top" xlink:title=" ">
<polygon fill="white" stroke="#666666" points="428.88,-67.88 325.88,-67.88 325.88,-37.38 428.88,-37.38 428.88,-67.88"/>
<text text-anchor="start" x="333.88" y="-54.38" font-family="Helvetica,sans-Serif" font-size="10.00">Evaluate_Wall_Skin</text>
<text text-anchor="middle" x="377.38" y="-43.12" font-family="Helvetica,sans-Serif" font-size="10.00">_Friction</text>
</a>
</g>
</g>
<!-- Node5&#45;&gt;Node6 -->
<g id="edge5_Node000005_Node000006" class="edge">
<title>Node5&#45;&gt;Node6</title>
<g id="a_edge5_Node000005_Node000006"><a xlink:title=" ">
<path fill="none" stroke="#63b8ff" d="M620.55,-48.62C564.57,-49.54 482.02,-50.91 429.22,-51.78"/>
<polygon fill="#63b8ff" stroke="#63b8ff" points="620.27,-52.12 630.21,-48.46 620.16,-45.12 620.27,-52.12"/>
</a>
</g>
</g>
<!-- Node10 -->
<g id="Node000010" class="node">
<title>Node10</title>
<g id="a_Node000010"><a xlink:href="../../d4/d5d/_grid___refine___functions_8cpp_a3a0810f5dcad0d068c35cb8aa9180be4.html#a3a0810f5dcad0d068c35cb8aa9180be4" target="_top" xlink:title=" ">
<polygon fill="white" stroke="#666666" points="596,-21.25 478,-21.25 478,-2 596,-2 596,-21.25"/>
<text text-anchor="middle" x="537" y="-7.75" font-family="Helvetica,sans-Serif" font-size="10.00">Viscous_Flux_on_Face</text>
</a>
</g>
</g>
<!-- Node5&#45;&gt;Node10 -->
<g id="edge9_Node000005_Node000010" class="edge">
<title>Node5&#45;&gt;Node10</title>
<g id="a_edge9_Node000005_Node000010"><a xlink:title=" ">
<path fill="none" stroke="#63b8ff" d="M620.63,-32.48C606.15,-28.83 591.02,-25.01 577.73,-21.65"/>
<polygon fill="#63b8ff" stroke="#63b8ff" points="619.52,-35.81 630.07,-34.87 621.23,-29.02 619.52,-35.81"/>
</a>
</g>
</g>
<!-- Node7 -->
<g id="Node000007" class="node">
<title>Node7</title>
<g id="a_Node000007"><a xlink:href="../../de/df0/_solver_8cpp_a313c308da18b517cb3cf0384db6d4d7e.html#a313c308da18b517cb3cf0384db6d4d7e" target="_top" xlink:title=" ">
<polygon fill="white" stroke="#666666" points="263.62,-59.25 179.38,-59.25 179.38,-40 263.62,-40 263.62,-59.25"/>
<text text-anchor="middle" x="221.5" y="-45.75" font-family="Helvetica,sans-Serif" font-size="10.00">Viscous_Solver</text>
</a>
</g>
</g>
<!-- Node6&#45;&gt;Node7 -->
<g id="edge6_Node000006_Node000007" class="edge">
<title>Node6&#45;&gt;Node7</title>
<g id="a_edge6_Node000006_Node000007"><a xlink:title=" ">
<path fill="none" stroke="#63b8ff" d="M314.1,-51.41C297.25,-51.08 279.43,-50.73 264.03,-50.43"/>
<polygon fill="#63b8ff" stroke="#63b8ff" points="313.98,-54.91 324.05,-51.6 314.12,-47.91 313.98,-54.91"/>
</a>
</g>
</g>
<!-- Node8 -->
<g id="Node000008" class="node">
<title>Node8</title>
<g id="a_Node000008"><a xlink:href="../../d5/d12/_main_8cpp_afed4dca88e059a8cbd2c7af524468fe5.html#afed4dca88e059a8cbd2c7af524468fe5" target="_top" xlink:title="Executes the appropriate solver based on the simulation configuration.">
<polygon fill="white" stroke="#666666" points="130.25,-59.25 73,-59.25 73,-40 130.25,-40 130.25,-59.25"/>
<text text-anchor="middle" x="101.62" y="-45.75" font-family="Helvetica,sans-Serif" font-size="10.00">runSolver</text>
</a>
</g>
</g>
<!-- Node7&#45;&gt;Node8 -->
<g id="edge7_Node000007_Node000008" class="edge">
<title>Node7&#45;&gt;Node8</title>
<g id="a_edge7_Node000007_Node000008"><a xlink:title=" ">
<path fill="none" stroke="#63b8ff" d="M167.81,-49.62C154.96,-49.62 141.7,-49.62 130.53,-49.62"/>
<polygon fill="#63b8ff" stroke="#63b8ff" points="167.43,-53.13 177.43,-49.63 167.43,-46.13 167.43,-53.13"/>
</a>
</g>
</g>
<!-- Node9 -->
<g id="Node000009" class="node">
<title>Node9</title>
<g id="a_Node000009"><a xlink:href="../../d5/d12/_main_8cpp_a0ddf1224851353fc92bfbff6f499fa97.html#a0ddf1224851353fc92bfbff6f499fa97" target="_top" xlink:title=" ">
<polygon fill="white" stroke="#666666" points="37,-59.25 0,-59.25 0,-40 37,-40 37,-59.25"/>
<text text-anchor="middle" x="18.5" y="-45.75" font-family="Helvetica,sans-Serif" font-size="10.00">main</text>
</a>
</g>
</g>
<!-- Node8&#45;&gt;Node9 -->
<g id="edge8_Node000008_Node000009" class="edge">
<title>Node8&#45;&gt;Node9</title>
<g id="a_edge8_Node000008_Node000009"><a xlink:title=" ">
<path fill="none" stroke="#63b8ff" d="M61.38,-49.62C52.95,-49.62 44.43,-49.62 37.3,-49.62"/>
<polygon fill="#63b8ff" stroke="#63b8ff" points="61.19,-53.13 71.19,-49.63 61.19,-46.13 61.19,-53.13"/>
</a>
</g>
</g>
<!-- Node11 -->
<g id="Node000011" class="node">
<title>Node11</title>
<g id="a_Node000011"><a xlink:href="../../d4/d5d/_grid___refine___functions_8cpp_a23f2145125f9b089e43c4c69c4a8905c.html#a23f2145125f9b089e43c4c69c4a8905c" target="_top" xlink:title=" ">
<polygon fill="white" stroke="#666666" points="442,-19.25 312.75,-19.25 312.75,0 442,0 442,-19.25"/>
<text text-anchor="middle" x="377.38" y="-5.75" font-family="Helvetica,sans-Serif" font-size="10.00">Evaluate_Viscous_Fluxes</text>
</a>
</g>
</g>
<!-- Node10&#45;&gt;Node11 -->
<g id="edge10_Node000010_Node000011" class="edge">
<title>Node10&#45;&gt;Node11</title>
<g id="a_edge10_Node000010_Node000011"><a xlink:title=" ">
<path fill="none" stroke="#63b8ff" d="M466.28,-10.74C458.36,-10.64 450.32,-10.54 442.48,-10.44"/>
<polygon fill="#63b8ff" stroke="#63b8ff" points="466.2,-14.24 476.24,-10.87 466.29,-7.24 466.2,-14.24"/>
</a>
</g>
</g>
<!-- Node11&#45;&gt;Node7 -->
<g id="edge12_Node000011_Node000007" class="edge">
<title>Node11&#45;&gt;Node7</title>
<g id="a_edge12_Node000011_Node000007"><a xlink:title=" ">
<path fill="none" stroke="#63b8ff" d="M326.49,-22.59C305.35,-28.09 281.09,-34.4 261.32,-39.53"/>
<polygon fill="#63b8ff" stroke="#63b8ff" points="327.28,-26 336.08,-20.1 325.52,-19.23 327.28,-26"/>
</a>
</g>
</g>
<!-- Node12 -->
<g id="Node000012" class="node">
<title>Node12</title>
<g id="a_Node000012"><a xlink:href="../../de/d22/_cuda___parallel___r_k_8cpp_a794f030971fbb7c9dd4bc08df03f50f1.html#a794f030971fbb7c9dd4bc08df03f50f1" target="_top" xlink:title=" ">
<polygon fill="white" stroke="#666666" points="276.75,-19.25 166.25,-19.25 166.25,0 276.75,0 276.75,-19.25"/>
<text text-anchor="middle" x="221.5" y="-5.75" font-family="Helvetica,sans-Serif" font-size="10.00">Runge_Kutta_Method</text>
</a>
</g>
</g>
<!-- Node11&#45;&gt;Node12 -->
<g id="edge11_Node000011_Node000012" class="edge">
<title>Node11&#45;&gt;Node12</title>
<g id="a_edge11_Node000011_Node000012"><a xlink:title=" ">
<path fill="none" stroke="#63b8ff" d="M301.1,-9.62C293.03,-9.62 284.93,-9.62 277.17,-9.62"/>
<polygon fill="#63b8ff" stroke="#63b8ff" points="300.94,-13.13 310.94,-9.63 300.94,-6.13 300.94,-13.13"/>
</a>
</g>
</g>
</g>
</svg>
