<?xml version="1.0" encoding="UTF-8" standalone="no"?>
<!DOCTYPE svg PUBLIC "-//W3C//DTD SVG 1.1//EN"
 "http://www.w3.org/Graphics/SVG/1.1/DTD/svg11.dtd">
<!-- Generated by graphviz version 12.2.1 (20241206.2353)
 -->
<!-- Title: TagRefinableCells Pages: 1 -->
<svg width="374pt" height="39pt"
 viewBox="0.00 0.00 374.00 38.50" xmlns="http://www.w3.org/2000/svg" xmlns:xlink="http://www.w3.org/1999/xlink">
<g id="graph0" class="graph" transform="scale(1 1) rotate(0) translate(4 34.5)">
<title>TagRefinableCells</title>
<!-- Node1 -->
<g id="Node000001" class="node">
<title>Node1</title>
<g id="a_Node000001"><a xlink:title=" ">
<polygon fill="#999999" stroke="#666666" points="95.5,-24.88 0,-24.88 0,-5.63 95.5,-5.63 95.5,-24.88"/>
<text text-anchor="middle" x="47.75" y="-11.38" font-family="Helvetica,sans-Serif" font-size="10.00">TagRefinableCells</text>
</a>
</g>
</g>
<!-- Node2 -->
<g id="Node000002" class="node">
<title>Node2</title>
<g id="a_Node000002"><a xlink:href="../../d4/d5d/_grid___refine___functions_8cpp_a5ee1bc8dfbb2a36483612cd1549677d2.html#a5ee1bc8dfbb2a36483612cd1549677d2" target="_top" xlink:title=" ">
<polygon fill="white" stroke="#666666" points="230.75,-30.5 131.5,-30.5 131.5,0 230.75,0 230.75,-30.5"/>
<text text-anchor="start" x="139.5" y="-17" font-family="Helvetica,sans-Serif" font-size="10.00">Calculate_Gradient</text>
<text text-anchor="middle" x="181.12" y="-5.75" font-family="Helvetica,sans-Serif" font-size="10.00">_At_Cell_Center</text>
</a>
</g>
</g>
<!-- Node1&#45;&gt;Node2 -->
<g id="edge1_Node000001_Node000002" class="edge">
<title>Node1&#45;&gt;Node2</title>
<g id="a_edge1_Node000001_Node000002"><a xlink:title=" ">
<path fill="none" stroke="#63b8ff" d="M95.81,-15.25C103.62,-15.25 111.8,-15.25 119.88,-15.25"/>
<polygon fill="#63b8ff" stroke="#63b8ff" points="119.67,-18.75 129.67,-15.25 119.67,-11.75 119.67,-18.75"/>
</a>
</g>
</g>
<!-- Node3 -->
<g id="Node000003" class="node">
<title>Node3</title>
<g id="a_Node000003"><a xlink:href="../../d4/d5d/_grid___refine___functions_8cpp_a21a74c24cb35575f1574f39c39949aa2.html#a21a74c24cb35575f1574f39c39949aa2" target="_top" xlink:title=" ">
<polygon fill="white" stroke="#666666" points="366,-24.88 266.75,-24.88 266.75,-5.63 366,-5.63 366,-24.88"/>
<text text-anchor="middle" x="316.38" y="-11.38" font-family="Helvetica,sans-Serif" font-size="10.00">Calculate_Gradient</text>
</a>
</g>
</g>
<!-- Node2&#45;&gt;Node3 -->
<g id="edge2_Node000002_Node000003" class="edge">
<title>Node2&#45;&gt;Node3</title>
<g id="a_edge2_Node000002_Node000003"><a xlink:title=" ">
<path fill="none" stroke="#63b8ff" d="M230.99,-15.25C238.86,-15.25 247.09,-15.25 255.2,-15.25"/>
<polygon fill="#63b8ff" stroke="#63b8ff" points="255.01,-18.75 265.01,-15.25 255.01,-11.75 255.01,-18.75"/>
</a>
</g>
</g>
</g>
</svg>
