<?xml version="1.0" encoding="UTF-8" standalone="no"?>
<!DOCTYPE svg PUBLIC "-//W3C//DTD SVG 1.1//EN"
 "http://www.w3.org/Graphics/SVG/1.1/DTD/svg11.dtd">
<!-- Generated by graphviz version 12.2.1 (20241206.2353)
 -->
<!-- Title: Viscous_Flux_on_Face Pages: 1 -->
<svg width="430pt" height="64pt"
 viewBox="0.00 0.00 429.50 64.25" xmlns="http://www.w3.org/2000/svg" xmlns:xlink="http://www.w3.org/1999/xlink">
<g id="graph0" class="graph" transform="scale(1 1) rotate(0) translate(4 60.25)">
<title>Viscous_Flux_on_Face</title>
<!-- Node1 -->
<g id="Node000001" class="node">
<title>Node1</title>
<g id="a_Node000001"><a xlink:title=" ">
<polygon fill="#999999" stroke="#666666" points="118,-37.25 0,-37.25 0,-18 118,-18 118,-37.25"/>
<text text-anchor="middle" x="59" y="-23.75" font-family="Helvetica,sans-Serif" font-size="10.00">Viscous_Flux_on_Face</text>
</a>
</g>
</g>
<!-- Node2 -->
<g id="Node000002" class="node">
<title>Node2</title>
<g id="a_Node000002"><a xlink:href="../../d4/d5d/_grid___refine___functions_8cpp_a82a2c55106b4dfc3af8c36a285ee05b6.html#a82a2c55106b4dfc3af8c36a285ee05b6" target="_top" xlink:title="Calculate the gradient on a face of a cell.">
<polygon fill="white" stroke="#666666" points="253.25,-42.88 154,-42.88 154,-12.37 253.25,-12.37 253.25,-42.88"/>
<text text-anchor="start" x="162" y="-29.38" font-family="Helvetica,sans-Serif" font-size="10.00">Calculate_Gradient</text>
<text text-anchor="middle" x="203.62" y="-18.12" font-family="Helvetica,sans-Serif" font-size="10.00">_On_Face</text>
</a>
</g>
</g>
<!-- Node1&#45;&gt;Node2 -->
<g id="edge1_Node000001_Node000002" class="edge">
<title>Node1&#45;&gt;Node2</title>
<g id="a_edge1_Node000001_Node000002"><a xlink:title=" ">
<path fill="none" stroke="#63b8ff" d="M118.42,-27.62C126.28,-27.62 134.35,-27.62 142.24,-27.62"/>
<polygon fill="#63b8ff" stroke="#63b8ff" points="142.11,-31.13 152.11,-27.63 142.11,-24.13 142.11,-31.13"/>
</a>
</g>
</g>
<!-- Node3 -->
<g id="Node000003" class="node">
<title>Node3</title>
<g id="a_Node000003"><a xlink:href="../../d4/d5d/_grid___refine___functions_8cpp_a21a74c24cb35575f1574f39c39949aa2.html#a21a74c24cb35575f1574f39c39949aa2" target="_top" xlink:title=" ">
<polygon fill="white" stroke="#666666" points="405,-56.25 305.75,-56.25 305.75,-37 405,-37 405,-56.25"/>
<text text-anchor="middle" x="355.38" y="-42.75" font-family="Helvetica,sans-Serif" font-size="10.00">Calculate_Gradient</text>
</a>
</g>
</g>
<!-- Node2&#45;&gt;Node3 -->
<g id="edge2_Node000002_Node000003" class="edge">
<title>Node2&#45;&gt;Node3</title>
<g id="a_edge2_Node000002_Node000003"><a xlink:title=" ">
<path fill="none" stroke="#63b8ff" d="M253.66,-33.85C266.65,-35.5 280.83,-37.29 294.34,-39.01"/>
<polygon fill="#63b8ff" stroke="#63b8ff" points="293.62,-42.45 303.99,-40.23 294.51,-35.5 293.62,-42.45"/>
</a>
</g>
</g>
<!-- Node4 -->
<g id="Node000004" class="node">
<title>Node4</title>
<g id="a_Node000004"><a xlink:href="../../d4/d5d/_grid___refine___functions_8cpp_aea18493f007f54b110b46e03b4a012ac.html#aea18493f007f54b110b46e03b4a012ac" target="_top" xlink:title=" ">
<polygon fill="white" stroke="#666666" points="421.5,-19.25 289.25,-19.25 289.25,0 421.5,0 421.5,-19.25"/>
<text text-anchor="middle" x="355.38" y="-5.75" font-family="Helvetica,sans-Serif" font-size="10.00">Calculate_Vertex_Average</text>
</a>
</g>
</g>
<!-- Node2&#45;&gt;Node4 -->
<g id="edge3_Node000002_Node000004" class="edge">
<title>Node2&#45;&gt;Node4</title>
<g id="a_edge3_Node000002_Node000004"><a xlink:title=" ">
<path fill="none" stroke="#63b8ff" d="M253.66,-21.73C261.31,-20.81 269.38,-19.84 277.47,-18.87"/>
<polygon fill="#63b8ff" stroke="#63b8ff" points="277.88,-22.34 287.39,-17.68 277.05,-15.39 277.88,-22.34"/>
</a>
</g>
</g>
</g>
</svg>
