<?xml version="1.0" encoding="UTF-8" standalone="no"?>
<!DOCTYPE svg PUBLIC "-//W3C//DTD SVG 1.1//EN"
 "http://www.w3.org/Graphics/SVG/1.1/DTD/svg11.dtd">
<!-- Generated by graphviz version 12.2.1 (20241206.2353)
 -->
<!-- Title: solveEllipticGrid Pages: 1 -->
<svg width="159pt" height="64pt"
 viewBox="0.00 0.00 159.30 64.25" xmlns="http://www.w3.org/2000/svg" xmlns:xlink="http://www.w3.org/1999/xlink">
<g id="graph0" class="graph" transform="scale(1 1) rotate(0) translate(4 60.25)">
<title>solveEllipticGrid</title>
<!-- Node1 -->
<g id="Node000001" class="node">
<title>Node1</title>
<g id="a_Node000001"><a xlink:title=" ">
<polygon fill="#999999" stroke="#666666" points="86.5,-37.25 0,-37.25 0,-18 86.5,-18 86.5,-37.25"/>
<text text-anchor="middle" x="43.25" y="-23.75" font-family="Helvetica,sans-Serif" font-size="10.00">solveEllipticGrid</text>
</a>
</g>
</g>
<!-- Node2 -->
<g id="Node000002" class="node">
<title>Node2</title>
<g id="a_Node000002"><a xlink:href="../../dd/de4/_grid___cylinder_8cpp_a9d9acf133a5b966f0cbd16a2c57a7d79.html#a9d9acf133a5b966f0cbd16a2c57a7d79" target="_top" xlink:title=" ">
<polygon fill="white" stroke="#666666" points="151.3,-56.25 122.5,-56.25 122.5,-37 151.3,-37 151.3,-56.25"/>
<text text-anchor="middle" x="136.9" y="-42.75" font-family="Helvetica,sans-Serif" font-size="10.00">x</text>
</a>
</g>
</g>
<!-- Node1&#45;&gt;Node2 -->
<g id="edge1_Node000001_Node000002" class="edge">
<title>Node1&#45;&gt;Node2</title>
<g id="a_edge1_Node000001_Node000002"><a xlink:title=" ">
<path fill="none" stroke="#63b8ff" d="M86.86,-36.46C95.1,-38.17 103.48,-39.9 110.93,-41.45"/>
<polygon fill="#63b8ff" stroke="#63b8ff" points="110.07,-44.84 120.57,-43.45 111.49,-37.99 110.07,-44.84"/>
</a>
</g>
</g>
<!-- Node3 -->
<g id="Node000003" class="node">
<title>Node3</title>
<g id="a_Node000003"><a xlink:href="../../dd/de4/_grid___cylinder_8cpp_aae4b761a64c952b4c008655d1dc59a12.html#aae4b761a64c952b4c008655d1dc59a12" target="_top" xlink:title=" ">
<polygon fill="white" stroke="#666666" points="151.3,-19.25 122.5,-19.25 122.5,0 151.3,0 151.3,-19.25"/>
<text text-anchor="middle" x="136.9" y="-5.75" font-family="Helvetica,sans-Serif" font-size="10.00">y</text>
</a>
</g>
</g>
<!-- Node1&#45;&gt;Node3 -->
<g id="edge2_Node000001_Node000003" class="edge">
<title>Node1&#45;&gt;Node3</title>
<g id="a_edge2_Node000001_Node000003"><a xlink:title=" ">
<path fill="none" stroke="#63b8ff" d="M86.86,-19.26C95.1,-17.64 103.48,-15.99 110.93,-14.53"/>
<polygon fill="#63b8ff" stroke="#63b8ff" points="111.43,-18 120.57,-12.64 110.08,-11.13 111.43,-18"/>
</a>
</g>
</g>
</g>
</svg>
