<?xml version="1.0" encoding="UTF-8" standalone="no"?>
<!DOCTYPE svg PUBLIC "-//W3C//DTD SVG 1.1//EN"
 "http://www.w3.org/Graphics/SVG/1.1/DTD/svg11.dtd">
<!-- Generated by graphviz version 12.2.1 (20241206.2353)
 -->
<!-- Title: y Pages: 1 -->
<svg width="232pt" height="101pt"
 viewBox="0.00 0.00 232.30 101.25" xmlns="http://www.w3.org/2000/svg" xmlns:xlink="http://www.w3.org/1999/xlink">
<g id="graph0" class="graph" transform="scale(1 1) rotate(0) translate(4 97.25)">
<title>y</title>
<!-- Node1 -->
<g id="Node000001" class="node">
<title>Node1</title>
<g id="a_Node000001"><a xlink:title=" ">
<polygon fill="#999999" stroke="#666666" points="224.3,-56.25 195.5,-56.25 195.5,-37 224.3,-37 224.3,-56.25"/>
<text text-anchor="middle" x="209.9" y="-42.75" font-family="Helvetica,sans-Serif" font-size="10.00">y</text>
</a>
</g>
</g>
<!-- Node2 -->
<g id="Node000002" class="node">
<title>Node2</title>
<g id="a_Node000002"><a xlink:href="../../dd/de4/_grid___cylinder_8cpp_a871e0a1e3ae5655a6e3631c5c0393af4.html#a871e0a1e3ae5655a6e3631c5c0393af4" target="_top" xlink:title=" ">
<polygon fill="white" stroke="#666666" points="150.88,-93.25 81.62,-93.25 81.62,-74 150.88,-74 150.88,-93.25"/>
<text text-anchor="middle" x="116.25" y="-79.75" font-family="Helvetica,sans-Serif" font-size="10.00">initializeGrid</text>
</a>
</g>
</g>
<!-- Node1&#45;&gt;Node2 -->
<g id="edge1_Node000001_Node000002" class="edge">
<title>Node1&#45;&gt;Node2</title>
<g id="a_edge1_Node000001_Node000002"><a xlink:title=" ">
<path fill="none" stroke="#63b8ff" d="M184.8,-56.35C171.69,-61.65 155.5,-68.18 142.25,-73.53"/>
<polygon fill="#63b8ff" stroke="#63b8ff" points="186.01,-59.64 193.97,-52.65 183.39,-53.15 186.01,-59.64"/>
</a>
</g>
</g>
<!-- Node4 -->
<g id="Node000004" class="node">
<title>Node4</title>
<g id="a_Node000004"><a xlink:href="../../dd/de4/_grid___cylinder_8cpp_acbf88f0a26870585d9ad602e89cb5944.html#acbf88f0a26870585d9ad602e89cb5944" target="_top" xlink:title=" ">
<polygon fill="white" stroke="#666666" points="159.5,-56.25 73,-56.25 73,-37 159.5,-37 159.5,-56.25"/>
<text text-anchor="middle" x="116.25" y="-42.75" font-family="Helvetica,sans-Serif" font-size="10.00">solveEllipticGrid</text>
</a>
</g>
</g>
<!-- Node1&#45;&gt;Node4 -->
<g id="edge3_Node000001_Node000004" class="edge">
<title>Node1&#45;&gt;Node4</title>
<g id="a_edge3_Node000001_Node000004"><a xlink:title=" ">
<path fill="none" stroke="#63b8ff" d="M183.92,-46.62C176.47,-46.62 168.1,-46.62 159.86,-46.62"/>
<polygon fill="#63b8ff" stroke="#63b8ff" points="183.86,-50.13 193.86,-46.63 183.86,-43.13 183.86,-50.13"/>
</a>
</g>
</g>
<!-- Node5 -->
<g id="Node000005" class="node">
<title>Node5</title>
<g id="a_Node000005"><a xlink:href="../../dd/de4/_grid___cylinder_8cpp_a5548910e5a130b55390401645274a0d2.html#a5548910e5a130b55390401645274a0d2" target="_top" xlink:title=" ">
<polygon fill="white" stroke="#666666" points="144.5,-19.25 88,-19.25 88,0 144.5,0 144.5,-19.25"/>
<text text-anchor="middle" x="116.25" y="-5.75" font-family="Helvetica,sans-Serif" font-size="10.00">writeVTK</text>
</a>
</g>
</g>
<!-- Node1&#45;&gt;Node5 -->
<g id="edge5_Node000001_Node000005" class="edge">
<title>Node1&#45;&gt;Node5</title>
<g id="a_edge5_Node000001_Node000005"><a xlink:title=" ">
<path fill="none" stroke="#63b8ff" d="M184.8,-36.9C171.69,-31.6 155.5,-25.07 142.25,-19.72"/>
<polygon fill="#63b8ff" stroke="#63b8ff" points="183.39,-40.1 193.97,-40.6 186.01,-33.61 183.39,-40.1"/>
</a>
</g>
</g>
<!-- Node3 -->
<g id="Node000003" class="node">
<title>Node3</title>
<g id="a_Node000003"><a xlink:href="../../dd/de4/_grid___cylinder_8cpp_ae66f6b31b5ad750f1fe042a706a4e3d4.html#ae66f6b31b5ad750f1fe042a706a4e3d4" target="_top" xlink:title=" ">
<polygon fill="white" stroke="#666666" points="37,-56.25 0,-56.25 0,-37 37,-37 37,-56.25"/>
<text text-anchor="middle" x="18.5" y="-42.75" font-family="Helvetica,sans-Serif" font-size="10.00">main</text>
</a>
</g>
</g>
<!-- Node2&#45;&gt;Node3 -->
<g id="edge2_Node000002_Node000003" class="edge">
<title>Node2&#45;&gt;Node3</title>
<g id="a_edge2_Node000002_Node000003"><a xlink:title=" ">
<path fill="none" stroke="#63b8ff" d="M78.65,-69.48C64.54,-64.03 49.04,-58.04 37.45,-53.56"/>
<polygon fill="#63b8ff" stroke="#63b8ff" points="77.08,-72.63 87.67,-72.97 79.61,-66.1 77.08,-72.63"/>
</a>
</g>
</g>
<!-- Node4&#45;&gt;Node3 -->
<g id="edge4_Node000004_Node000003" class="edge">
<title>Node4&#45;&gt;Node3</title>
<g id="a_edge4_Node000004_Node000003"><a xlink:title=" ">
<path fill="none" stroke="#63b8ff" d="M61.33,-46.62C52.74,-46.62 44.4,-46.62 37.46,-46.62"/>
<polygon fill="#63b8ff" stroke="#63b8ff" points="61.18,-50.13 71.18,-46.63 61.18,-43.13 61.18,-50.13"/>
</a>
</g>
</g>
<!-- Node5&#45;&gt;Node3 -->
<g id="edge6_Node000005_Node000003" class="edge">
<title>Node5&#45;&gt;Node3</title>
<g id="a_edge6_Node000005_Node000003"><a xlink:title=" ">
<path fill="none" stroke="#63b8ff" d="M78.65,-23.77C64.54,-29.22 49.04,-35.21 37.45,-39.69"/>
<polygon fill="#63b8ff" stroke="#63b8ff" points="79.61,-27.15 87.67,-20.28 77.08,-20.62 79.61,-27.15"/>
</a>
</g>
</g>
</g>
</svg>
