<?xml version="1.0" encoding="UTF-8" standalone="no"?>
<!DOCTYPE svg PUBLIC "-//W3C//DTD SVG 1.1//EN"
 "http://www.w3.org/Graphics/SVG/1.1/DTD/svg11.dtd">
<!-- Generated by graphviz version 12.2.1 (20241206.2353)
 -->
<!-- Title: src/Numerical_Method.cpp Pages: 1 -->
<svg width="1445pt" height="304pt"
 viewBox="0.00 0.00 1444.62 303.50" xmlns="http://www.w3.org/2000/svg" xmlns:xlink="http://www.w3.org/1999/xlink">
<g id="graph0" class="graph" transform="scale(1 1) rotate(0) translate(4 299.5)">
<title>src/Numerical_Method.cpp</title>
<!-- Node1 -->
<g id="Node000001" class="node">
<title>Node1</title>
<g id="a_Node000001"><a xlink:title=" ">
<polygon fill="#999999" stroke="#666666" points="795.25,-295.5 662.25,-295.5 662.25,-276.25 795.25,-276.25 795.25,-295.5"/>
<text text-anchor="middle" x="728.75" y="-282" font-family="Helvetica,sans-Serif" font-size="10.00">src/Numerical_Method.cpp</text>
</a>
</g>
</g>
<!-- Node2 -->
<g id="Node000002" class="node">
<title>Node2</title>
<g id="a_Node000002"><a xlink:href="../../d6/dc2/definitions_8h.html" target="_top" xlink:title="Header file containing global constants, structures, and function declarations for the solver.">
<polygon fill="white" stroke="#666666" points="709,-74.5 640.5,-74.5 640.5,-55.25 709,-55.25 709,-74.5"/>
<text text-anchor="middle" x="674.75" y="-61" font-family="Helvetica,sans-Serif" font-size="10.00">definitions.h</text>
</a>
</g>
</g>
<!-- Node1&#45;&gt;Node2 -->
<g id="edge1_Node000001_Node000002" class="edge">
<title>Node1&#45;&gt;Node2</title>
<g id="a_edge1_Node000001_Node000002"><a xlink:title=" ">
<path fill="none" stroke="#63b8ff" d="M676.44,-275.77C597.59,-260.77 454.7,-228.17 428.75,-185 381.53,-106.44 545.63,-78.61 629.03,-69.68"/>
<polygon fill="#63b8ff" stroke="#63b8ff" points="629.13,-73.19 638.73,-68.7 628.42,-66.23 629.13,-73.19"/>
</a>
</g>
</g>
<!-- Node24 -->
<g id="Node000024" class="node">
<title>Node24</title>
<g id="a_Node000024"><a xlink:href="../../d8/d4d/_globals_8h.html" target="_top" xlink:title=" ">
<polygon fill="white" stroke="#666666" points="740.38,-129.75 683.12,-129.75 683.12,-110.5 740.38,-110.5 740.38,-129.75"/>
<text text-anchor="middle" x="711.75" y="-116.25" font-family="Helvetica,sans-Serif" font-size="10.00">Globals.h</text>
</a>
</g>
</g>
<!-- Node1&#45;&gt;Node24 -->
<g id="edge23_Node000001_Node000024" class="edge">
<title>Node1&#45;&gt;Node24</title>
<g id="a_edge23_Node000001_Node000024"><a xlink:title=" ">
<path fill="none" stroke="#63b8ff" d="M727.84,-276.07C725.21,-250.75 717.58,-177.25 713.85,-141.34"/>
<polygon fill="#63b8ff" stroke="#63b8ff" points="717.34,-141.06 712.82,-131.48 710.38,-141.79 717.34,-141.06"/>
</a>
</g>
</g>
<!-- Node25 -->
<g id="Node000025" class="node">
<title>Node25</title>
<g id="a_Node000025"><a xlink:href="../../d8/dad/_flux_8h.html" target="_top" xlink:title=" ">
<polygon fill="white" stroke="#666666" points="481.25,-185 438.25,-185 438.25,-165.75 481.25,-165.75 481.25,-185"/>
<text text-anchor="middle" x="459.75" y="-171.5" font-family="Helvetica,sans-Serif" font-size="10.00">Flux.h</text>
</a>
</g>
</g>
<!-- Node1&#45;&gt;Node25 -->
<g id="edge25_Node000001_Node000025" class="edge">
<title>Node1&#45;&gt;Node25</title>
<g id="a_edge25_Node000001_Node000025"><a xlink:title=" ">
<path fill="none" stroke="#63b8ff" d="M689.54,-275.83C658.37,-268.05 613.98,-255.67 576.75,-240.25 543.19,-226.35 506.8,-205.48 483.67,-191.42"/>
<polygon fill="#63b8ff" stroke="#63b8ff" points="485.67,-188.54 475.32,-186.28 482,-194.5 485.67,-188.54"/>
</a>
</g>
</g>
<!-- Node26 -->
<g id="Node000026" class="node">
<title>Node26</title>
<g id="a_Node000026"><a xlink:href="../../df/ded/_weno_8h.html" target="_top" xlink:title=" ">
<polygon fill="white" stroke="#666666" points="548.25,-185 499.25,-185 499.25,-165.75 548.25,-165.75 548.25,-185"/>
<text text-anchor="middle" x="523.75" y="-171.5" font-family="Helvetica,sans-Serif" font-size="10.00">Weno.h</text>
</a>
</g>
</g>
<!-- Node1&#45;&gt;Node26 -->
<g id="edge28_Node000001_Node000026" class="edge">
<title>Node1&#45;&gt;Node26</title>
<g id="a_edge28_Node000001_Node000026"><a xlink:title=" ">
<path fill="none" stroke="#63b8ff" d="M698.18,-275.85C673.75,-268.05 639.04,-255.61 610.75,-240.25 585.6,-226.6 559.5,-206.5 542.53,-192.51"/>
<polygon fill="#63b8ff" stroke="#63b8ff" points="545.17,-190.16 535.26,-186.42 540.67,-195.52 545.17,-190.16"/>
</a>
</g>
</g>
<!-- Node27 -->
<g id="Node000027" class="node">
<title>Node27</title>
<g id="a_Node000027"><a xlink:href="../../dd/dae/_timestep_8h.html" target="_top" xlink:title=" ">
<polygon fill="white" stroke="#666666" points="684.12,-240.25 619.38,-240.25 619.38,-221 684.12,-221 684.12,-240.25"/>
<text text-anchor="middle" x="651.75" y="-226.75" font-family="Helvetica,sans-Serif" font-size="10.00">Timestep.h</text>
</a>
</g>
</g>
<!-- Node1&#45;&gt;Node27 -->
<g id="edge31_Node000001_Node000027" class="edge">
<title>Node1&#45;&gt;Node27</title>
<g id="a_edge31_Node000001_Node000027"><a xlink:title=" ">
<path fill="none" stroke="#63b8ff" d="M715.69,-275.84C704.29,-267.96 687.52,-256.36 674.01,-247.02"/>
<polygon fill="#63b8ff" stroke="#63b8ff" points="676.34,-244.37 666.12,-241.56 672.35,-250.13 676.34,-244.37"/>
</a>
</g>
</g>
<!-- Node29 -->
<g id="Node000029" class="node">
<title>Node29</title>
<g id="a_Node000029"><a xlink:href="../../d5/d4d/_solver_8h.html" target="_top" xlink:title=" ">
<polygon fill="white" stroke="#666666" points="808.38,-185 757.12,-185 757.12,-165.75 808.38,-165.75 808.38,-185"/>
<text text-anchor="middle" x="782.75" y="-171.5" font-family="Helvetica,sans-Serif" font-size="10.00">Solver.h</text>
</a>
</g>
</g>
<!-- Node1&#45;&gt;Node29 -->
<g id="edge37_Node000001_Node000029" class="edge">
<title>Node1&#45;&gt;Node29</title>
<g id="a_edge37_Node000001_Node000029"><a xlink:title=" ">
<path fill="none" stroke="#63b8ff" d="M733.17,-276C741.87,-258.51 761.4,-219.27 773.19,-195.59"/>
<polygon fill="#63b8ff" stroke="#63b8ff" points="776.27,-197.24 777.6,-186.73 770.01,-194.12 776.27,-197.24"/>
</a>
</g>
</g>
<!-- Node30 -->
<g id="Node000030" class="node">
<title>Node30</title>
<g id="a_Node000030"><a xlink:href="../../de/d7a/_viscous___functions_8h.html" target="_top" xlink:title=" ">
<polygon fill="white" stroke="#666666" points="933.5,-185 826,-185 826,-165.75 933.5,-165.75 933.5,-185"/>
<text text-anchor="middle" x="879.75" y="-171.5" font-family="Helvetica,sans-Serif" font-size="10.00">Viscous_Functions.h</text>
</a>
</g>
</g>
<!-- Node1&#45;&gt;Node30 -->
<g id="edge40_Node000001_Node000030" class="edge">
<title>Node1&#45;&gt;Node30</title>
<g id="a_edge40_Node000001_Node000030"><a xlink:title=" ">
<path fill="none" stroke="#63b8ff" d="M741.36,-275.81C767.19,-257.26 826.33,-214.76 858.3,-191.79"/>
<polygon fill="#63b8ff" stroke="#63b8ff" points="859.97,-194.9 866.05,-186.22 855.89,-189.21 859.97,-194.9"/>
</a>
</g>
</g>
<!-- Node31 -->
<g id="Node000031" class="node">
<title>Node31</title>
<g id="a_Node000031"><a xlink:href="../../d7/da5/_boundary___conditions_8h.html" target="_top" xlink:title=" ">
<polygon fill="white" stroke="#666666" points="1068.38,-185 951.12,-185 951.12,-165.75 1068.38,-165.75 1068.38,-185"/>
<text text-anchor="middle" x="1009.75" y="-171.5" font-family="Helvetica,sans-Serif" font-size="10.00">Boundary_Conditions.h</text>
</a>
</g>
</g>
<!-- Node1&#45;&gt;Node31 -->
<g id="edge43_Node000001_Node000031" class="edge">
<title>Node1&#45;&gt;Node31</title>
<g id="a_edge43_Node000001_Node000031"><a xlink:title=" ">
<path fill="none" stroke="#63b8ff" d="M752.22,-275.81C801.92,-256.62 917.9,-211.84 975.72,-189.51"/>
<polygon fill="#63b8ff" stroke="#63b8ff" points="976.66,-192.9 984.73,-186.03 974.14,-186.37 976.66,-192.9"/>
</a>
</g>
</g>
<!-- Node32 -->
<g id="Node000032" class="node">
<title>Node32</title>
<g id="a_Node000032"><a xlink:href="../../d6/dea/_error___update_8h.html" target="_top" xlink:title=" ">
<polygon fill="white" stroke="#666666" points="1168.75,-185 1086.75,-185 1086.75,-165.75 1168.75,-165.75 1168.75,-185"/>
<text text-anchor="middle" x="1127.75" y="-171.5" font-family="Helvetica,sans-Serif" font-size="10.00">Error_Update.h</text>
</a>
</g>
</g>
<!-- Node1&#45;&gt;Node32 -->
<g id="edge46_Node000001_Node000032" class="edge">
<title>Node1&#45;&gt;Node32</title>
<g id="a_edge46_Node000001_Node000032"><a xlink:title=" ">
<path fill="none" stroke="#63b8ff" d="M762.08,-275.81C833.81,-256.3 1002.84,-210.34 1083.46,-188.42"/>
<polygon fill="#63b8ff" stroke="#63b8ff" points="1084.04,-191.89 1092.77,-185.89 1082.2,-185.13 1084.04,-191.89"/>
</a>
</g>
</g>
<!-- Node3 -->
<g id="Node000003" class="node">
<title>Node3</title>
<g id="a_Node000003"><a xlink:title=" ">
<polygon fill="#e0e0e0" stroke="#999999" points="53.5,-19.25 0,-19.25 0,0 53.5,0 53.5,-19.25"/>
<text text-anchor="middle" x="26.75" y="-5.75" font-family="Helvetica,sans-Serif" font-size="10.00">iostream</text>
</a>
</g>
</g>
<!-- Node2&#45;&gt;Node3 -->
<g id="edge2_Node000002_Node000003" class="edge">
<title>Node2&#45;&gt;Node3</title>
<g id="a_edge2_Node000002_Node000003"><a xlink:title=" ">
<path fill="none" stroke="#63b8ff" d="M640.29,-63.4C548.25,-61.71 288.97,-54.12 65.1,-19.54"/>
<polygon fill="#63b8ff" stroke="#63b8ff" points="65.71,-16.09 55.29,-18 64.62,-23.01 65.71,-16.09"/>
</a>
</g>
</g>
<!-- Node4 -->
<g id="Node000004" class="node">
<title>Node4</title>
<g id="a_Node000004"><a xlink:title=" ">
<polygon fill="#e0e0e0" stroke="#999999" points="120.25,-19.25 71.25,-19.25 71.25,0 120.25,0 120.25,-19.25"/>
<text text-anchor="middle" x="95.75" y="-5.75" font-family="Helvetica,sans-Serif" font-size="10.00">fstream</text>
</a>
</g>
</g>
<!-- Node2&#45;&gt;Node4 -->
<g id="edge3_Node000002_Node000004" class="edge">
<title>Node2&#45;&gt;Node4</title>
<g id="a_edge3_Node000002_Node000004"><a xlink:title=" ">
<path fill="none" stroke="#63b8ff" d="M640.31,-63.14C555.35,-60.88 328.87,-52.18 131.67,-19.47"/>
<polygon fill="#63b8ff" stroke="#63b8ff" points="132.45,-16.06 122.01,-17.84 131.29,-22.96 132.45,-16.06"/>
</a>
</g>
</g>
<!-- Node5 -->
<g id="Node000005" class="node">
<title>Node5</title>
<g id="a_Node000005"><a xlink:title=" ">
<polygon fill="#e0e0e0" stroke="#999999" points="181.25,-19.25 138.25,-19.25 138.25,0 181.25,0 181.25,-19.25"/>
<text text-anchor="middle" x="159.75" y="-5.75" font-family="Helvetica,sans-Serif" font-size="10.00">vector</text>
</a>
</g>
</g>
<!-- Node2&#45;&gt;Node5 -->
<g id="edge4_Node000002_Node000005" class="edge">
<title>Node2&#45;&gt;Node5</title>
<g id="a_edge4_Node000002_Node000005"><a xlink:title=" ">
<path fill="none" stroke="#63b8ff" d="M640.13,-62.81C561.97,-59.96 365.83,-50.27 192.75,-19.27"/>
<polygon fill="#63b8ff" stroke="#63b8ff" points="193.61,-15.86 183.14,-17.51 192.35,-22.75 193.61,-15.86"/>
</a>
</g>
</g>
<!-- Node6 -->
<g id="Node000006" class="node">
<title>Node6</title>
<g id="a_Node000006"><a xlink:title=" ">
<polygon fill="#e0e0e0" stroke="#999999" points="239.75,-19.25 199.75,-19.25 199.75,0 239.75,0 239.75,-19.25"/>
<text text-anchor="middle" x="219.75" y="-5.75" font-family="Helvetica,sans-Serif" font-size="10.00">string</text>
</a>
</g>
</g>
<!-- Node2&#45;&gt;Node6 -->
<g id="edge5_Node000002_Node000006" class="edge">
<title>Node2&#45;&gt;Node6</title>
<g id="a_edge5_Node000002_Node000006"><a xlink:title=" ">
<path fill="none" stroke="#63b8ff" d="M640.19,-62.42C569.02,-58.96 400.89,-48.42 251.41,-19.44"/>
<polygon fill="#63b8ff" stroke="#63b8ff" points="252.2,-16.02 241.71,-17.52 250.84,-22.89 252.2,-16.02"/>
</a>
</g>
</g>
<!-- Node7 -->
<g id="Node000007" class="node">
<title>Node7</title>
<g id="a_Node000007"><a xlink:title=" ">
<polygon fill="#e0e0e0" stroke="#999999" points="301.25,-19.25 258.25,-19.25 258.25,0 301.25,0 301.25,-19.25"/>
<text text-anchor="middle" x="279.75" y="-5.75" font-family="Helvetica,sans-Serif" font-size="10.00">cmath</text>
</a>
</g>
</g>
<!-- Node2&#45;&gt;Node7 -->
<g id="edge6_Node000002_Node000007" class="edge">
<title>Node2&#45;&gt;Node7</title>
<g id="a_edge6_Node000002_Node000007"><a xlink:title=" ">
<path fill="none" stroke="#63b8ff" d="M640.1,-61.36C576.91,-56.41 438.6,-43.84 312.65,-19.33"/>
<polygon fill="#63b8ff" stroke="#63b8ff" points="313.64,-15.96 303.15,-17.45 312.28,-22.83 313.64,-15.96"/>
</a>
</g>
</g>
<!-- Node8 -->
<g id="Node000008" class="node">
<title>Node8</title>
<g id="a_Node000008"><a xlink:title=" ">
<polygon fill="#e0e0e0" stroke="#999999" points="370,-19.25 319.5,-19.25 319.5,0 370,0 370,-19.25"/>
<text text-anchor="middle" x="344.75" y="-5.75" font-family="Helvetica,sans-Serif" font-size="10.00">typeinfo</text>
</a>
</g>
</g>
<!-- Node2&#45;&gt;Node8 -->
<g id="edge7_Node000002_Node000008" class="edge">
<title>Node2&#45;&gt;Node8</title>
<g id="a_edge7_Node000002_Node000008"><a xlink:title=" ">
<path fill="none" stroke="#63b8ff" d="M640.37,-59.81C587,-53.26 480.78,-39.27 381.45,-19.63"/>
<polygon fill="#63b8ff" stroke="#63b8ff" points="382.28,-16.23 371.79,-17.69 380.91,-23.09 382.28,-16.23"/>
</a>
</g>
</g>
<!-- Node9 -->
<g id="Node000009" class="node">
<title>Node9</title>
<g id="a_Node000009"><a xlink:title=" ">
<polygon fill="#e0e0e0" stroke="#999999" points="437.62,-19.25 387.88,-19.25 387.88,0 437.62,0 437.62,-19.25"/>
<text text-anchor="middle" x="412.75" y="-5.75" font-family="Helvetica,sans-Serif" font-size="10.00">iomanip</text>
</a>
</g>
</g>
<!-- Node2&#45;&gt;Node9 -->
<g id="edge8_Node000002_Node000009" class="edge">
<title>Node2&#45;&gt;Node9</title>
<g id="a_edge8_Node000002_Node000009"><a xlink:title=" ">
<path fill="none" stroke="#63b8ff" d="M640.25,-57.73C597.58,-50.01 522.49,-35.98 448.82,-19.62"/>
<polygon fill="#63b8ff" stroke="#63b8ff" points="449.96,-16.29 439.44,-17.52 448.43,-23.12 449.96,-16.29"/>
</a>
</g>
</g>
<!-- Node10 -->
<g id="Node000010" class="node">
<title>Node10</title>
<g id="a_Node000010"><a xlink:title=" ">
<polygon fill="#e0e0e0" stroke="#999999" points="497.88,-19.25 455.62,-19.25 455.62,0 497.88,0 497.88,-19.25"/>
<text text-anchor="middle" x="476.75" y="-5.75" font-family="Helvetica,sans-Serif" font-size="10.00">cstdio</text>
</a>
</g>
</g>
<!-- Node2&#45;&gt;Node10 -->
<g id="edge9_Node000002_Node000010" class="edge">
<title>Node2&#45;&gt;Node10</title>
<g id="a_edge9_Node000002_Node000010"><a xlink:title=" ">
<path fill="none" stroke="#63b8ff" d="M640.27,-54.93C608.52,-46.66 559.86,-33.84 509.2,-19.89"/>
<polygon fill="#63b8ff" stroke="#63b8ff" points="510.4,-16.59 499.82,-17.3 508.53,-23.34 510.4,-16.59"/>
</a>
</g>
</g>
<!-- Node11 -->
<g id="Node000011" class="node">
<title>Node11</title>
<g id="a_Node000011"><a xlink:title=" ">
<polygon fill="#e0e0e0" stroke="#999999" points="560,-19.25 515.5,-19.25 515.5,0 560,0 560,-19.25"/>
<text text-anchor="middle" x="537.75" y="-5.75" font-family="Helvetica,sans-Serif" font-size="10.00">cstdlib</text>
</a>
</g>
</g>
<!-- Node2&#45;&gt;Node11 -->
<g id="edge10_Node000002_Node000011" class="edge">
<title>Node2&#45;&gt;Node11</title>
<g id="a_edge10_Node000002_Node000011"><a xlink:title=" ">
<path fill="none" stroke="#63b8ff" d="M651.51,-54.84C629.3,-46.21 595.6,-33.11 570.63,-23.41"/>
<polygon fill="#63b8ff" stroke="#63b8ff" points="572.19,-20.26 561.6,-19.9 569.66,-26.78 572.19,-20.26"/>
</a>
</g>
</g>
<!-- Node12 -->
<g id="Node000012" class="node">
<title>Node12</title>
<g id="a_Node000012"><a xlink:title=" ">
<polygon fill="#e0e0e0" stroke="#999999" points="633.62,-19.25 577.88,-19.25 577.88,0 633.62,0 633.62,-19.25"/>
<text text-anchor="middle" x="605.75" y="-5.75" font-family="Helvetica,sans-Serif" font-size="10.00">algorithm</text>
</a>
</g>
</g>
<!-- Node2&#45;&gt;Node12 -->
<g id="edge11_Node000002_Node000012" class="edge">
<title>Node2&#45;&gt;Node12</title>
<g id="a_edge11_Node000002_Node000012"><a xlink:title=" ">
<path fill="none" stroke="#63b8ff" d="M663.05,-54.84C652.97,-47.07 638.21,-35.67 626.19,-26.4"/>
<polygon fill="#63b8ff" stroke="#63b8ff" points="628.54,-23.79 618.48,-20.45 624.26,-29.33 628.54,-23.79"/>
</a>
</g>
</g>
<!-- Node13 -->
<g id="Node000013" class="node">
<title>Node13</title>
<g id="a_Node000013"><a xlink:title=" ">
<polygon fill="#e0e0e0" stroke="#999999" points="697.38,-19.25 652.12,-19.25 652.12,0 697.38,0 697.38,-19.25"/>
<text text-anchor="middle" x="674.75" y="-5.75" font-family="Helvetica,sans-Serif" font-size="10.00">chrono</text>
</a>
</g>
</g>
<!-- Node2&#45;&gt;Node13 -->
<g id="edge12_Node000002_Node000013" class="edge">
<title>Node2&#45;&gt;Node13</title>
<g id="a_edge12_Node000002_Node000013"><a xlink:title=" ">
<path fill="none" stroke="#63b8ff" d="M674.75,-55.08C674.75,-48.57 674.75,-39.42 674.75,-31.12"/>
<polygon fill="#63b8ff" stroke="#63b8ff" points="678.25,-31.12 674.75,-21.12 671.25,-31.12 678.25,-31.12"/>
</a>
</g>
</g>
<!-- Node14 -->
<g id="Node000014" class="node">
<title>Node14</title>
<g id="a_Node000014"><a xlink:title=" ">
<polygon fill="#e0e0e0" stroke="#999999" points="755.75,-19.25 715.75,-19.25 715.75,0 755.75,0 755.75,-19.25"/>
<text text-anchor="middle" x="735.75" y="-5.75" font-family="Helvetica,sans-Serif" font-size="10.00">cfloat</text>
</a>
</g>
</g>
<!-- Node2&#45;&gt;Node14 -->
<g id="edge13_Node000002_Node000014" class="edge">
<title>Node2&#45;&gt;Node14</title>
<g id="a_edge13_Node000002_Node000014"><a xlink:title=" ">
<path fill="none" stroke="#63b8ff" d="M685.1,-54.84C693.83,-47.22 706.54,-36.12 717.05,-26.95"/>
<polygon fill="#63b8ff" stroke="#63b8ff" points="719.18,-29.73 724.41,-20.52 714.58,-24.46 719.18,-29.73"/>
</a>
</g>
</g>
<!-- Node15 -->
<g id="Node000015" class="node">
<title>Node15</title>
<g id="a_Node000015"><a xlink:title=" ">
<polygon fill="#e0e0e0" stroke="#999999" points="835.25,-19.25 774.25,-19.25 774.25,0 835.25,0 835.25,-19.25"/>
<text text-anchor="middle" x="804.75" y="-5.75" font-family="Helvetica,sans-Serif" font-size="10.00">filesystem</text>
</a>
</g>
</g>
<!-- Node2&#45;&gt;Node15 -->
<g id="edge14_Node000002_Node000015" class="edge">
<title>Node2&#45;&gt;Node15</title>
<g id="a_edge14_Node000002_Node000015"><a xlink:title=" ">
<path fill="none" stroke="#63b8ff" d="M696.8,-54.84C717.44,-46.39 748.53,-33.65 772.05,-24.02"/>
<polygon fill="#63b8ff" stroke="#63b8ff" points="773.26,-27.31 781.19,-20.28 770.61,-20.83 773.26,-27.31"/>
</a>
</g>
</g>
<!-- Node16 -->
<g id="Node000016" class="node">
<title>Node16</title>
<g id="a_Node000016"><a xlink:title=" ">
<polygon fill="#e0e0e0" stroke="#999999" points="888.12,-19.25 853.38,-19.25 853.38,0 888.12,0 888.12,-19.25"/>
<text text-anchor="middle" x="870.75" y="-5.75" font-family="Helvetica,sans-Serif" font-size="10.00">map</text>
</a>
</g>
</g>
<!-- Node2&#45;&gt;Node16 -->
<g id="edge15_Node000002_Node000016" class="edge">
<title>Node2&#45;&gt;Node16</title>
<g id="a_edge15_Node000002_Node000016"><a xlink:title=" ">
<path fill="none" stroke="#63b8ff" d="M709.44,-55.46C741.63,-47.49 791.11,-34.87 842.02,-19.94"/>
<polygon fill="#63b8ff" stroke="#63b8ff" points="842.85,-23.34 851.44,-17.14 840.86,-16.63 842.85,-23.34"/>
</a>
</g>
</g>
<!-- Node17 -->
<g id="Node000017" class="node">
<title>Node17</title>
<g id="a_Node000017"><a xlink:title=" ">
<polygon fill="#e0e0e0" stroke="#999999" points="965.12,-19.25 906.38,-19.25 906.38,0 965.12,0 965.12,-19.25"/>
<text text-anchor="middle" x="935.75" y="-5.75" font-family="Helvetica,sans-Serif" font-size="10.00">stdexcept</text>
</a>
</g>
</g>
<!-- Node2&#45;&gt;Node17 -->
<g id="edge16_Node000002_Node000017" class="edge">
<title>Node2&#45;&gt;Node17</title>
<g id="a_edge16_Node000002_Node000017"><a xlink:title=" ">
<path fill="none" stroke="#63b8ff" d="M709.4,-57.12C750.98,-48.98 823.1,-34.7 894.9,-19.61"/>
<polygon fill="#63b8ff" stroke="#63b8ff" points="895.41,-23.08 904.47,-17.59 893.96,-16.23 895.41,-23.08"/>
</a>
</g>
</g>
<!-- Node18 -->
<g id="Node000018" class="node">
<title>Node18</title>
<g id="a_Node000018"><a xlink:title=" ">
<polygon fill="#e0e0e0" stroke="#999999" points="1034.38,-19.25 983.12,-19.25 983.12,0 1034.38,0 1034.38,-19.25"/>
<text text-anchor="middle" x="1008.75" y="-5.75" font-family="Helvetica,sans-Serif" font-size="10.00">sstream</text>
</a>
</g>
</g>
<!-- Node2&#45;&gt;Node18 -->
<g id="edge17_Node000002_Node000018" class="edge">
<title>Node2&#45;&gt;Node18</title>
<g id="a_edge17_Node000002_Node000018"><a xlink:title=" ">
<path fill="none" stroke="#63b8ff" d="M709.46,-59.76C763.41,-53.14 870.85,-39.04 971.81,-19.46"/>
<polygon fill="#63b8ff" stroke="#63b8ff" points="972.19,-22.96 981.33,-17.59 970.84,-16.09 972.19,-22.96"/>
</a>
</g>
</g>
<!-- Node19 -->
<g id="Node000019" class="node">
<title>Node19</title>
<g id="a_Node000019"><a xlink:title=" ">
<polygon fill="#e0e0e0" stroke="#999999" points="1135.12,-19.25 1052.38,-19.25 1052.38,0 1135.12,0 1135.12,-19.25"/>
<text text-anchor="middle" x="1093.75" y="-5.75" font-family="Helvetica,sans-Serif" font-size="10.00">unordered_map</text>
</a>
</g>
</g>
<!-- Node2&#45;&gt;Node19 -->
<g id="edge18_Node000002_Node000019" class="edge">
<title>Node2&#45;&gt;Node19</title>
<g id="a_edge18_Node000002_Node000019"><a xlink:title=" ">
<path fill="none" stroke="#63b8ff" d="M709.42,-60.27C773.04,-53.53 912.94,-38.13 1040.88,-19.61"/>
<polygon fill="#63b8ff" stroke="#63b8ff" points="1041.15,-23.11 1050.54,-18.2 1040.14,-16.18 1041.15,-23.11"/>
</a>
</g>
</g>
<!-- Node20 -->
<g id="Node000020" class="node">
<title>Node20</title>
<g id="a_Node000020"><a xlink:title=" ">
<polygon fill="#e0e0e0" stroke="#999999" points="1230.5,-19.25 1153,-19.25 1153,0 1230.5,0 1230.5,-19.25"/>
<text text-anchor="middle" x="1191.75" y="-5.75" font-family="Helvetica,sans-Serif" font-size="10.00">unordered_set</text>
</a>
</g>
</g>
<!-- Node2&#45;&gt;Node20 -->
<g id="edge19_Node000002_Node000020" class="edge">
<title>Node2&#45;&gt;Node20</title>
<g id="a_edge19_Node000002_Node000020"><a xlink:title=" ">
<path fill="none" stroke="#63b8ff" d="M709.28,-61.57C785.37,-56.3 973.38,-42.1 1141.46,-19.45"/>
<polygon fill="#63b8ff" stroke="#63b8ff" points="1141.82,-22.93 1151.26,-18.11 1140.88,-16 1141.82,-22.93"/>
</a>
</g>
</g>
<!-- Node21 -->
<g id="Node000021" class="node">
<title>Node21</title>
<g id="a_Node000021"><a xlink:title=" ">
<polygon fill="#e0e0e0" stroke="#999999" points="1285.25,-19.25 1248.25,-19.25 1248.25,0 1285.25,0 1285.25,-19.25"/>
<text text-anchor="middle" x="1266.75" y="-5.75" font-family="Helvetica,sans-Serif" font-size="10.00">tuple</text>
</a>
</g>
</g>
<!-- Node2&#45;&gt;Node21 -->
<g id="edge20_Node000002_Node000021" class="edge">
<title>Node2&#45;&gt;Node21</title>
<g id="a_edge20_Node000002_Node000021"><a xlink:title=" ">
<path fill="none" stroke="#63b8ff" d="M709.2,-63.9C796.38,-63.38 1032.83,-58.37 1236.79,-19.41"/>
<polygon fill="#63b8ff" stroke="#63b8ff" points="1237.38,-22.86 1246.53,-17.51 1236.04,-15.98 1237.38,-22.86"/>
</a>
</g>
</g>
<!-- Node22 -->
<g id="Node000022" class="node">
<title>Node22</title>
<g id="a_Node000022"><a xlink:title=" ">
<polygon fill="#e0e0e0" stroke="#999999" points="1332.5,-19.25 1303,-19.25 1303,0 1332.5,0 1332.5,-19.25"/>
<text text-anchor="middle" x="1317.75" y="-5.75" font-family="Helvetica,sans-Serif" font-size="10.00">set</text>
</a>
</g>
</g>
<!-- Node2&#45;&gt;Node22 -->
<g id="edge21_Node000002_Node000022" class="edge">
<title>Node2&#45;&gt;Node22</title>
<g id="a_edge21_Node000002_Node000022"><a xlink:title=" ">
<path fill="none" stroke="#63b8ff" d="M709.43,-62.69C819.49,-58.72 1160.86,-44.83 1291.37,-19.34"/>
<polygon fill="#63b8ff" stroke="#63b8ff" points="1292.04,-22.78 1301.11,-17.31 1290.61,-15.93 1292.04,-22.78"/>
</a>
</g>
</g>
<!-- Node23 -->
<g id="Node000023" class="node">
<title>Node23</title>
<g id="a_Node000023"><a xlink:title=" ">
<polygon fill="#e0e0e0" stroke="#999999" points="1436.62,-19.25 1350.88,-19.25 1350.88,0 1436.62,0 1436.62,-19.25"/>
<text text-anchor="middle" x="1393.75" y="-5.75" font-family="Helvetica,sans-Serif" font-size="10.00">boost/regex.hpp</text>
</a>
</g>
</g>
<!-- Node2&#45;&gt;Node23 -->
<g id="edge22_Node000002_Node000023" class="edge">
<title>Node2&#45;&gt;Node23</title>
<g id="a_edge22_Node000002_Node000023"><a xlink:title=" ">
<path fill="none" stroke="#63b8ff" d="M709.22,-62.76C806.52,-59.35 1091.71,-47.62 1339.01,-19.45"/>
<polygon fill="#63b8ff" stroke="#63b8ff" points="1339.35,-22.94 1348.88,-18.32 1338.54,-15.98 1339.35,-22.94"/>
</a>
</g>
</g>
<!-- Node24&#45;&gt;Node2 -->
<g id="edge24_Node000024_Node000002" class="edge">
<title>Node24&#45;&gt;Node2</title>
<g id="a_edge24_Node000024_Node000002"><a xlink:title=" ">
<path fill="none" stroke="#63b8ff" d="M705.64,-110.33C700.69,-103.21 693.55,-92.93 687.38,-84.05"/>
<polygon fill="#63b8ff" stroke="#63b8ff" points="690.44,-82.32 681.86,-76.1 684.69,-86.31 690.44,-82.32"/>
</a>
</g>
</g>
<!-- Node25&#45;&gt;Node2 -->
<g id="edge26_Node000025_Node000002" class="edge">
<title>Node25&#45;&gt;Node2</title>
<g id="a_edge26_Node000025_Node000002"><a xlink:title=" ">
<path fill="none" stroke="#63b8ff" d="M469.23,-165.36C483.93,-151.8 513.57,-126.1 542.75,-110.5 570.1,-95.88 603.15,-84.71 629.35,-77.21"/>
<polygon fill="#63b8ff" stroke="#63b8ff" points="629.96,-80.67 638.65,-74.62 628.08,-73.92 629.96,-80.67"/>
</a>
</g>
</g>
<!-- Node25&#45;&gt;Node24 -->
<g id="edge27_Node000025_Node000024" class="edge">
<title>Node25&#45;&gt;Node24</title>
<g id="a_edge27_Node000025_Node000024"><a xlink:title=" ">
<path fill="none" stroke="#63b8ff" d="M481.65,-167.86C484.37,-167.11 487.12,-166.39 489.75,-165.75 552.86,-150.36 626.99,-136.25 671.62,-128.17"/>
<polygon fill="#63b8ff" stroke="#63b8ff" points="672.13,-131.64 681.36,-126.42 670.9,-124.75 672.13,-131.64"/>
</a>
</g>
</g>
<!-- Node26&#45;&gt;Node2 -->
<g id="edge29_Node000026_Node000002" class="edge">
<title>Node26&#45;&gt;Node2</title>
<g id="a_edge29_Node000026_Node000002"><a xlink:title=" ">
<path fill="none" stroke="#63b8ff" d="M527.11,-165.27C532.59,-151.6 544.68,-125.75 562.75,-110.5 581.84,-94.39 607.47,-83.6 629.4,-76.68"/>
<polygon fill="#63b8ff" stroke="#63b8ff" points="630.1,-80.12 638.69,-73.92 628.11,-73.41 630.1,-80.12"/>
</a>
</g>
</g>
<!-- Node26&#45;&gt;Node24 -->
<g id="edge30_Node000026_Node000024" class="edge">
<title>Node26&#45;&gt;Node24</title>
<g id="a_edge30_Node000026_Node000024"><a xlink:title=" ">
<path fill="none" stroke="#63b8ff" d="M548.71,-167.3C580.12,-158.41 634.45,-143.02 671.7,-132.47"/>
<polygon fill="#63b8ff" stroke="#63b8ff" points="672.54,-135.87 681.21,-129.78 670.63,-129.13 672.54,-135.87"/>
</a>
</g>
</g>
<!-- Node27&#45;&gt;Node2 -->
<g id="edge32_Node000027_Node000002" class="edge">
<title>Node27&#45;&gt;Node2</title>
<g id="a_edge32_Node000027_Node000002"><a xlink:title=" ">
<path fill="none" stroke="#63b8ff" d="M633.16,-220.58C620.04,-213.06 603.47,-201.02 595.75,-185 592.04,-177.29 592.94,-173.83 595.75,-165.75 607.53,-131.86 636.13,-100.8 655.48,-82.6"/>
<polygon fill="#63b8ff" stroke="#63b8ff" points="657.72,-85.3 662.76,-75.98 653.01,-80.12 657.72,-85.3"/>
</a>
</g>
</g>
<!-- Node27&#45;&gt;Node24 -->
<g id="edge33_Node000027_Node000024" class="edge">
<title>Node27&#45;&gt;Node24</title>
<g id="a_edge33_Node000027_Node000024"><a xlink:title=" ">
<path fill="none" stroke="#63b8ff" d="M656.66,-220.75C666.37,-203.18 688.23,-163.66 701.3,-140.02"/>
<polygon fill="#63b8ff" stroke="#63b8ff" points="704.26,-141.9 706.04,-131.45 698.14,-138.51 704.26,-141.9"/>
</a>
</g>
</g>
<!-- Node28 -->
<g id="Node000028" class="node">
<title>Node28</title>
<g id="a_Node000028"><a xlink:href="../../db/d72/_utilities_8h.html" target="_top" xlink:title=" ">
<polygon fill="white" stroke="#666666" points="662.38,-185 605.12,-185 605.12,-165.75 662.38,-165.75 662.38,-185"/>
<text text-anchor="middle" x="633.75" y="-171.5" font-family="Helvetica,sans-Serif" font-size="10.00">Utilities.h</text>
</a>
</g>
</g>
<!-- Node27&#45;&gt;Node28 -->
<g id="edge34_Node000027_Node000028" class="edge">
<title>Node27&#45;&gt;Node28</title>
<g id="a_edge34_Node000027_Node000028"><a xlink:title=" ">
<path fill="none" stroke="#63b8ff" d="M648.78,-220.83C646.5,-214.09 643.26,-204.52 640.38,-195.99"/>
<polygon fill="#63b8ff" stroke="#63b8ff" points="643.79,-195.15 637.27,-186.79 637.16,-197.39 643.79,-195.15"/>
</a>
</g>
</g>
<!-- Node28&#45;&gt;Node2 -->
<g id="edge35_Node000028_Node000002" class="edge">
<title>Node28&#45;&gt;Node2</title>
<g id="a_edge35_Node000028_Node000002"><a xlink:title=" ">
<path fill="none" stroke="#63b8ff" d="M637.11,-165.5C643.68,-148.09 658.41,-109.12 667.37,-85.41"/>
<polygon fill="#63b8ff" stroke="#63b8ff" points="670.55,-86.88 670.81,-76.29 664,-84.41 670.55,-86.88"/>
</a>
</g>
</g>
<!-- Node28&#45;&gt;Node24 -->
<g id="edge36_Node000028_Node000024" class="edge">
<title>Node28&#45;&gt;Node24</title>
<g id="a_edge36_Node000028_Node000024"><a xlink:title=" ">
<path fill="none" stroke="#63b8ff" d="M646.98,-165.34C658.52,-157.46 675.52,-145.86 689.2,-136.52"/>
<polygon fill="#63b8ff" stroke="#63b8ff" points="690.92,-139.58 697.2,-131.06 686.97,-133.8 690.92,-139.58"/>
</a>
</g>
</g>
<!-- Node29&#45;&gt;Node2 -->
<g id="edge38_Node000029_Node000002" class="edge">
<title>Node29&#45;&gt;Node2</title>
<g id="a_edge38_Node000029_Node000002"><a xlink:title=" ">
<path fill="none" stroke="#63b8ff" d="M779.98,-165.59C775.43,-152.34 765.33,-127.04 749.75,-110.5 737.71,-97.72 721.21,-87.37 706.74,-79.86"/>
<polygon fill="#63b8ff" stroke="#63b8ff" points="708.54,-76.85 698.02,-75.57 705.45,-83.13 708.54,-76.85"/>
</a>
</g>
</g>
<!-- Node29&#45;&gt;Node24 -->
<g id="edge39_Node000029_Node000024" class="edge">
<title>Node29&#45;&gt;Node24</title>
<g id="a_edge39_Node000029_Node000024"><a xlink:title=" ">
<path fill="none" stroke="#63b8ff" d="M770.71,-165.34C760.34,-157.57 745.15,-146.17 732.78,-136.9"/>
<polygon fill="#63b8ff" stroke="#63b8ff" points="734.93,-134.13 724.83,-130.93 730.73,-139.73 734.93,-134.13"/>
</a>
</g>
</g>
<!-- Node30&#45;&gt;Node2 -->
<g id="edge41_Node000030_Node000002" class="edge">
<title>Node30&#45;&gt;Node2</title>
<g id="a_edge41_Node000030_Node000002"><a xlink:title=" ">
<path fill="none" stroke="#63b8ff" d="M865.54,-165.46C844.96,-152.69 805.53,-128.72 770.75,-110.5 749.52,-99.38 725.01,-88.01 706.07,-79.53"/>
<polygon fill="#63b8ff" stroke="#63b8ff" points="707.57,-76.36 697.01,-75.51 704.73,-82.76 707.57,-76.36"/>
</a>
</g>
</g>
<!-- Node30&#45;&gt;Node24 -->
<g id="edge42_Node000030_Node000024" class="edge">
<title>Node30&#45;&gt;Node24</title>
<g id="a_edge42_Node000030_Node000024"><a xlink:title=" ">
<path fill="none" stroke="#63b8ff" d="M851.25,-165.34C823.74,-156.62 781.84,-143.34 751.14,-133.61"/>
<polygon fill="#63b8ff" stroke="#63b8ff" points="752.42,-130.34 741.83,-130.66 750.31,-137.02 752.42,-130.34"/>
</a>
</g>
</g>
<!-- Node31&#45;&gt;Node2 -->
<g id="edge44_Node000031_Node000002" class="edge">
<title>Node31&#45;&gt;Node2</title>
<g id="a_edge44_Node000031_Node000002"><a xlink:title=" ">
<path fill="none" stroke="#63b8ff" d="M981.76,-165.31C922.03,-145.96 781.94,-100.59 713.61,-78.46"/>
<polygon fill="#63b8ff" stroke="#63b8ff" points="714.92,-75.21 704.33,-75.46 712.77,-81.87 714.92,-75.21"/>
</a>
</g>
</g>
<!-- Node31&#45;&gt;Node24 -->
<g id="edge45_Node000031_Node000024" class="edge">
<title>Node31&#45;&gt;Node24</title>
<g id="a_edge45_Node000031_Node000024"><a xlink:title=" ">
<path fill="none" stroke="#63b8ff" d="M958.86,-165.28C900.32,-154.82 805.4,-137.86 751.85,-128.29"/>
<polygon fill="#63b8ff" stroke="#63b8ff" points="752.71,-124.89 742.25,-126.57 751.47,-131.78 752.71,-124.89"/>
</a>
</g>
</g>
<!-- Node32&#45;&gt;Node2 -->
<g id="edge47_Node000032_Node000002" class="edge">
<title>Node32&#45;&gt;Node2</title>
<g id="a_edge47_Node000032_Node000002"><a xlink:title=" ">
<path fill="none" stroke="#63b8ff" d="M1089.91,-165.31C1007.1,-145.48 810.08,-98.29 720.5,-76.83"/>
<polygon fill="#63b8ff" stroke="#63b8ff" points="721.37,-73.44 710.83,-74.52 719.74,-80.25 721.37,-73.44"/>
</a>
</g>
</g>
<!-- Node32&#45;&gt;Node24 -->
<g id="edge48_Node000032_Node000024" class="edge">
<title>Node32&#45;&gt;Node24</title>
<g id="a_edge48_Node000032_Node000024"><a xlink:title=" ">
<path fill="none" stroke="#63b8ff" d="M1086.3,-167.06C1083.41,-166.6 1080.54,-166.16 1077.75,-165.75 959.76,-148.39 819.65,-132.66 752.12,-125.39"/>
<polygon fill="#63b8ff" stroke="#63b8ff" points="752.58,-121.92 742.26,-124.33 751.83,-128.88 752.58,-121.92"/>
</a>
</g>
</g>
</g>
</svg>
