<?xml version="1.0" encoding="UTF-8" standalone="no"?>
<!DOCTYPE svg PUBLIC "-//W3C//DTD SVG 1.1//EN"
 "http://www.w3.org/Graphics/SVG/1.1/DTD/svg11.dtd">
<!-- Generated by graphviz version 12.2.1 (20241206.2353)
 -->
<!-- Title: src/Numerical_Method.cpp Pages: 1 -->
<svg width="1443pt" height="304pt"
 viewBox="0.00 0.00 1442.62 303.50" xmlns="http://www.w3.org/2000/svg" xmlns:xlink="http://www.w3.org/1999/xlink">
<g id="graph0" class="graph" transform="scale(1 1) rotate(0) translate(4 299.5)">
<title>src/Numerical_Method.cpp</title>
<!-- Node1 -->
<g id="Node000001" class="node">
<title>Node1</title>
<g id="a_Node000001"><a xlink:title=" ">
<polygon fill="#999999" stroke="#666666" points="873.25,-295.5 740.25,-295.5 740.25,-276.25 873.25,-276.25 873.25,-295.5"/>
<text text-anchor="middle" x="806.75" y="-282" font-family="Helvetica,sans-Serif" font-size="10.00">src/Numerical_Method.cpp</text>
</a>
</g>
</g>
<!-- Node2 -->
<g id="Node000002" class="node">
<title>Node2</title>
<g id="a_Node000002"><a xlink:href="../../d6/dc2/definitions_8h.html" target="_top" xlink:title="Header file containing global constants, structures, and function declarations for the solver.">
<polygon fill="white" stroke="#666666" points="803,-74.5 734.5,-74.5 734.5,-55.25 803,-55.25 803,-74.5"/>
<text text-anchor="middle" x="768.75" y="-61" font-family="Helvetica,sans-Serif" font-size="10.00">definitions.h</text>
</a>
</g>
</g>
<!-- Node1&#45;&gt;Node2 -->
<g id="edge1_Node000001_Node000002" class="edge">
<title>Node1&#45;&gt;Node2</title>
<g id="a_edge1_Node000001_Node000002"><a xlink:title=" ">
<path fill="none" stroke="#63b8ff" d="M873.54,-281.6C961.86,-274.02 1102.73,-248.92 1069.75,-165.75 1057.32,-134.4 1047.4,-126.56 1017.75,-110.5 953.13,-75.49 866.59,-67.18 814.41,-65.63"/>
<polygon fill="#63b8ff" stroke="#63b8ff" points="814.77,-62.13 804.69,-65.42 814.61,-69.13 814.77,-62.13"/>
</a>
</g>
</g>
<!-- Node3 -->
<g id="Node000003" class="node">
<title>Node3</title>
<g id="a_Node000003"><a xlink:title=" ">
<polygon fill="#e0e0e0" stroke="#999999" points="53.5,-19.25 0,-19.25 0,0 53.5,0 53.5,-19.25"/>
<text text-anchor="middle" x="26.75" y="-5.75" font-family="Helvetica,sans-Serif" font-size="10.00">iostream</text>
</a>
</g>
</g>
<!-- Node1&#45;&gt;Node3 -->
<g id="edge49_Node000001_Node000003" class="edge">
<title>Node1&#45;&gt;Node3</title>
<g id="a_edge49_Node000001_Node000003"><a xlink:title=" ">
<path fill="none" stroke="#63b8ff" d="M740.04,-280.87C572.21,-269.9 145.75,-236.16 145.75,-176.38 145.75,-176.38 145.75,-176.38 145.75,-119.12 145.75,-72.89 96.08,-41.11 60.92,-24.4"/>
<polygon fill="#63b8ff" stroke="#63b8ff" points="62.48,-21.27 51.92,-20.33 59.59,-27.64 62.48,-21.27"/>
</a>
</g>
</g>
<!-- Node7 -->
<g id="Node000007" class="node">
<title>Node7</title>
<g id="a_Node000007"><a xlink:title=" ">
<polygon fill="#e0e0e0" stroke="#999999" points="1361.25,-19.25 1318.25,-19.25 1318.25,0 1361.25,0 1361.25,-19.25"/>
<text text-anchor="middle" x="1339.75" y="-5.75" font-family="Helvetica,sans-Serif" font-size="10.00">cmath</text>
</a>
</g>
</g>
<!-- Node1&#45;&gt;Node7 -->
<g id="edge51_Node000001_Node000007" class="edge">
<title>Node1&#45;&gt;Node7</title>
<g id="a_edge51_Node000001_Node000007"><a xlink:title=" ">
<path fill="none" stroke="#63b8ff" d="M873.62,-280.01C984.84,-270.05 1195.75,-242.46 1195.75,-176.38 1195.75,-176.38 1195.75,-176.38 1195.75,-119.12 1195.75,-90.47 1269.39,-47.32 1311.34,-25.05"/>
<polygon fill="#63b8ff" stroke="#63b8ff" points="1312.93,-28.17 1320.17,-20.44 1309.69,-21.97 1312.93,-28.17"/>
</a>
</g>
</g>
<!-- Node12 -->
<g id="Node000012" class="node">
<title>Node12</title>
<g id="a_Node000012"><a xlink:title=" ">
<polygon fill="#e0e0e0" stroke="#999999" points="1434.62,-19.25 1378.88,-19.25 1378.88,0 1434.62,0 1434.62,-19.25"/>
<text text-anchor="middle" x="1406.75" y="-5.75" font-family="Helvetica,sans-Serif" font-size="10.00">algorithm</text>
</a>
</g>
</g>
<!-- Node1&#45;&gt;Node12 -->
<g id="edge50_Node000001_Node000012" class="edge">
<title>Node1&#45;&gt;Node12</title>
<g id="a_edge50_Node000001_Node000012"><a xlink:title=" ">
<path fill="none" stroke="#63b8ff" d="M873.5,-278.98C1023.01,-264.88 1371.75,-226.6 1371.75,-176.38 1371.75,-176.38 1371.75,-176.38 1371.75,-119.12 1371.75,-86.56 1386.21,-51.04 1396.54,-29.81"/>
<polygon fill="#63b8ff" stroke="#63b8ff" points="1399.63,-31.44 1401.05,-20.95 1393.39,-28.27 1399.63,-31.44"/>
</a>
</g>
</g>
<!-- Node24 -->
<g id="Node000024" class="node">
<title>Node24</title>
<g id="a_Node000024"><a xlink:href="../../d8/d4d/_globals_8h.html" target="_top" xlink:title=" ">
<polygon fill="white" stroke="#666666" points="797.38,-129.75 740.12,-129.75 740.12,-110.5 797.38,-110.5 797.38,-129.75"/>
<text text-anchor="middle" x="768.75" y="-116.25" font-family="Helvetica,sans-Serif" font-size="10.00">Globals.h</text>
</a>
</g>
</g>
<!-- Node1&#45;&gt;Node24 -->
<g id="edge23_Node000001_Node000024" class="edge">
<title>Node1&#45;&gt;Node24</title>
<g id="a_edge23_Node000001_Node000024"><a xlink:title=" ">
<path fill="none" stroke="#63b8ff" d="M804.71,-276.07C798.8,-250.64 781.62,-176.6 773.33,-140.87"/>
<polygon fill="#63b8ff" stroke="#63b8ff" points="776.82,-140.4 771.15,-131.45 770,-141.98 776.82,-140.4"/>
</a>
</g>
</g>
<!-- Node25 -->
<g id="Node000025" class="node">
<title>Node25</title>
<g id="a_Node000025"><a xlink:href="../../d8/dad/_flux_8h.html" target="_top" xlink:title=" ">
<polygon fill="white" stroke="#666666" points="733.25,-185 690.25,-185 690.25,-165.75 733.25,-165.75 733.25,-185"/>
<text text-anchor="middle" x="711.75" y="-171.5" font-family="Helvetica,sans-Serif" font-size="10.00">Flux.h</text>
</a>
</g>
</g>
<!-- Node1&#45;&gt;Node25 -->
<g id="edge25_Node000001_Node000025" class="edge">
<title>Node1&#45;&gt;Node25</title>
<g id="a_edge25_Node000001_Node000025"><a xlink:title=" ">
<path fill="none" stroke="#63b8ff" d="M791.56,-275.88C778.75,-267.75 760.51,-254.85 747.75,-240.25 736.09,-226.91 726.46,-209.19 720.11,-195.79"/>
<polygon fill="#63b8ff" stroke="#63b8ff" points="723.33,-194.41 716.02,-186.74 716.95,-197.29 723.33,-194.41"/>
</a>
</g>
</g>
<!-- Node26 -->
<g id="Node000026" class="node">
<title>Node26</title>
<g id="a_Node000026"><a xlink:href="../../df/ded/_weno_8h.html" target="_top" xlink:title=" ">
<polygon fill="white" stroke="#666666" points="877.25,-185 828.25,-185 828.25,-165.75 877.25,-165.75 877.25,-185"/>
<text text-anchor="middle" x="852.75" y="-171.5" font-family="Helvetica,sans-Serif" font-size="10.00">Weno.h</text>
</a>
</g>
</g>
<!-- Node1&#45;&gt;Node26 -->
<g id="edge28_Node000001_Node000026" class="edge">
<title>Node1&#45;&gt;Node26</title>
<g id="a_edge28_Node000001_Node000026"><a xlink:title=" ">
<path fill="none" stroke="#63b8ff" d="M810.51,-276C817.89,-258.59 834.41,-219.62 844.47,-195.91"/>
<polygon fill="#63b8ff" stroke="#63b8ff" points="847.66,-197.34 848.34,-186.77 841.22,-194.61 847.66,-197.34"/>
</a>
</g>
</g>
<!-- Node27 -->
<g id="Node000027" class="node">
<title>Node27</title>
<g id="a_Node000027"><a xlink:href="../../dd/dae/_timestep_8h.html" target="_top" xlink:title=" ">
<polygon fill="white" stroke="#666666" points="939.12,-240.25 874.38,-240.25 874.38,-221 939.12,-221 939.12,-240.25"/>
<text text-anchor="middle" x="906.75" y="-226.75" font-family="Helvetica,sans-Serif" font-size="10.00">Timestep.h</text>
</a>
</g>
</g>
<!-- Node1&#45;&gt;Node27 -->
<g id="edge31_Node000001_Node000027" class="edge">
<title>Node1&#45;&gt;Node27</title>
<g id="a_edge31_Node000001_Node000027"><a xlink:title=" ">
<path fill="none" stroke="#63b8ff" d="M823.71,-275.84C839.01,-267.69 861.78,-255.57 879.61,-246.08"/>
<polygon fill="#63b8ff" stroke="#63b8ff" points="881.19,-249.2 888.37,-241.41 877.9,-243.02 881.19,-249.2"/>
</a>
</g>
</g>
<!-- Node29 -->
<g id="Node000029" class="node">
<title>Node29</title>
<g id="a_Node000029"><a xlink:href="../../d5/d4d/_solver_8h.html" target="_top" xlink:title=" ">
<polygon fill="white" stroke="#666666" points="1060.38,-185 1009.12,-185 1009.12,-165.75 1060.38,-165.75 1060.38,-185"/>
<text text-anchor="middle" x="1034.75" y="-171.5" font-family="Helvetica,sans-Serif" font-size="10.00">Solver.h</text>
</a>
</g>
</g>
<!-- Node1&#45;&gt;Node29 -->
<g id="edge37_Node000001_Node000029" class="edge">
<title>Node1&#45;&gt;Node29</title>
<g id="a_edge37_Node000001_Node000029"><a xlink:title=" ">
<path fill="none" stroke="#63b8ff" d="M847.31,-275.8C876.26,-268.43 915.59,-256.58 947.75,-240.25 973.41,-227.22 999.59,-206.84 1016.43,-192.61"/>
<polygon fill="#63b8ff" stroke="#63b8ff" points="1018.33,-195.6 1023.62,-186.42 1013.76,-190.3 1018.33,-195.6"/>
</a>
</g>
</g>
<!-- Node30 -->
<g id="Node000030" class="node">
<title>Node30</title>
<g id="a_Node000030"><a xlink:href="../../de/d7a/_viscous___functions_8h.html" target="_top" xlink:title=" ">
<polygon fill="white" stroke="#666666" points="436.5,-185 329,-185 329,-165.75 436.5,-165.75 436.5,-185"/>
<text text-anchor="middle" x="382.75" y="-171.5" font-family="Helvetica,sans-Serif" font-size="10.00">Viscous_Functions.h</text>
</a>
</g>
</g>
<!-- Node1&#45;&gt;Node30 -->
<g id="edge40_Node000001_Node000030" class="edge">
<title>Node1&#45;&gt;Node30</title>
<g id="a_edge40_Node000001_Node000030"><a xlink:title=" ">
<path fill="none" stroke="#63b8ff" d="M771.33,-275.81C694.95,-256.27 514.76,-210.15 429.29,-188.28"/>
<polygon fill="#63b8ff" stroke="#63b8ff" points="430.39,-184.95 419.83,-185.86 428.65,-191.73 430.39,-184.95"/>
</a>
</g>
</g>
<!-- Node31 -->
<g id="Node000031" class="node">
<title>Node31</title>
<g id="a_Node000031"><a xlink:href="../../d7/da5/_boundary___conditions_8h.html" target="_top" xlink:title=" ">
<polygon fill="white" stroke="#666666" points="571.38,-185 454.12,-185 454.12,-165.75 571.38,-165.75 571.38,-185"/>
<text text-anchor="middle" x="512.75" y="-171.5" font-family="Helvetica,sans-Serif" font-size="10.00">Boundary_Conditions.h</text>
</a>
</g>
</g>
<!-- Node1&#45;&gt;Node31 -->
<g id="edge43_Node000001_Node000031" class="edge">
<title>Node1&#45;&gt;Node31</title>
<g id="a_edge43_Node000001_Node000031"><a xlink:title=" ">
<path fill="none" stroke="#63b8ff" d="M782.19,-275.81C730.09,-256.58 608.34,-211.65 547.97,-189.37"/>
<polygon fill="#63b8ff" stroke="#63b8ff" points="549.46,-186.19 538.87,-186.01 547.04,-192.76 549.46,-186.19"/>
</a>
</g>
</g>
<!-- Node32 -->
<g id="Node000032" class="node">
<title>Node32</title>
<g id="a_Node000032"><a xlink:href="../../d6/dea/_error___update_8h.html" target="_top" xlink:title=" ">
<polygon fill="white" stroke="#666666" points="671.75,-185 589.75,-185 589.75,-165.75 671.75,-165.75 671.75,-185"/>
<text text-anchor="middle" x="630.75" y="-171.5" font-family="Helvetica,sans-Serif" font-size="10.00">Error_Update.h</text>
</a>
</g>
</g>
<!-- Node1&#45;&gt;Node32 -->
<g id="edge46_Node000001_Node000032" class="edge">
<title>Node1&#45;&gt;Node32</title>
<g id="a_edge46_Node000001_Node000032"><a xlink:title=" ">
<path fill="none" stroke="#63b8ff" d="M790.93,-275.82C775.48,-266.92 751.36,-252.88 730.75,-240.25 704.27,-224.03 674.31,-204.77 654.14,-191.67"/>
<polygon fill="#63b8ff" stroke="#63b8ff" points="656.12,-188.78 645.83,-186.25 652.3,-194.64 656.12,-188.78"/>
</a>
</g>
</g>
<!-- Node2&#45;&gt;Node3 -->
<g id="edge2_Node000002_Node000003" class="edge">
<title>Node2&#45;&gt;Node3</title>
<g id="a_edge2_Node000002_Node000003"><a xlink:title=" ">
<path fill="none" stroke="#63b8ff" d="M734.37,-63.79C633.16,-63.1 327.53,-57.86 65.06,-19.31"/>
<polygon fill="#63b8ff" stroke="#63b8ff" points="65.68,-15.86 55.28,-17.85 64.65,-22.79 65.68,-15.86"/>
</a>
</g>
</g>
<!-- Node4 -->
<g id="Node000004" class="node">
<title>Node4</title>
<g id="a_Node000004"><a xlink:title=" ">
<polygon fill="#e0e0e0" stroke="#999999" points="1045.25,-19.25 996.25,-19.25 996.25,0 1045.25,0 1045.25,-19.25"/>
<text text-anchor="middle" x="1020.75" y="-5.75" font-family="Helvetica,sans-Serif" font-size="10.00">fstream</text>
</a>
</g>
</g>
<!-- Node2&#45;&gt;Node4 -->
<g id="edge3_Node000002_Node000004" class="edge">
<title>Node2&#45;&gt;Node4</title>
<g id="a_edge3_Node000002_Node000004"><a xlink:title=" ">
<path fill="none" stroke="#63b8ff" d="M803.39,-57.42C844.48,-49.64 915.27,-35.81 984.78,-19.85"/>
<polygon fill="#63b8ff" stroke="#63b8ff" points="985.49,-23.28 994.45,-17.61 983.91,-16.46 985.49,-23.28"/>
</a>
</g>
</g>
<!-- Node5 -->
<g id="Node000005" class="node">
<title>Node5</title>
<g id="a_Node000005"><a xlink:title=" ">
<polygon fill="#e0e0e0" stroke="#999999" points="1106.25,-19.25 1063.25,-19.25 1063.25,0 1106.25,0 1106.25,-19.25"/>
<text text-anchor="middle" x="1084.75" y="-5.75" font-family="Helvetica,sans-Serif" font-size="10.00">vector</text>
</a>
</g>
</g>
<!-- Node2&#45;&gt;Node5 -->
<g id="edge4_Node000002_Node000005" class="edge">
<title>Node2&#45;&gt;Node5</title>
<g id="a_edge4_Node000002_Node000005"><a xlink:title=" ">
<path fill="none" stroke="#63b8ff" d="M803.35,-59.9C855.33,-53.61 956.83,-40.16 1051.65,-19.72"/>
<polygon fill="#63b8ff" stroke="#63b8ff" points="1052.38,-23.14 1061.4,-17.58 1050.88,-16.3 1052.38,-23.14"/>
</a>
</g>
</g>
<!-- Node6 -->
<g id="Node000006" class="node">
<title>Node6</title>
<g id="a_Node000006"><a xlink:title=" ">
<polygon fill="#e0e0e0" stroke="#999999" points="1164.75,-19.25 1124.75,-19.25 1124.75,0 1164.75,0 1164.75,-19.25"/>
<text text-anchor="middle" x="1144.75" y="-5.75" font-family="Helvetica,sans-Serif" font-size="10.00">string</text>
</a>
</g>
</g>
<!-- Node2&#45;&gt;Node6 -->
<g id="edge5_Node000002_Node000006" class="edge">
<title>Node2&#45;&gt;Node6</title>
<g id="a_edge5_Node000002_Node000006"><a xlink:title=" ">
<path fill="none" stroke="#63b8ff" d="M803.04,-61.31C863.78,-56.37 994.33,-43.98 1113.17,-19.49"/>
<polygon fill="#63b8ff" stroke="#63b8ff" points="1113.71,-22.95 1122.78,-17.47 1112.27,-16.1 1113.71,-22.95"/>
</a>
</g>
</g>
<!-- Node2&#45;&gt;Node7 -->
<g id="edge6_Node000002_Node000007" class="edge">
<title>Node2&#45;&gt;Node7</title>
<g id="a_edge6_Node000002_Node000007"><a xlink:title=" ">
<path fill="none" stroke="#63b8ff" d="M803.24,-63.39C887.74,-61.69 1111.89,-54.18 1306.61,-19.49"/>
<polygon fill="#63b8ff" stroke="#63b8ff" points="1307.21,-22.94 1316.42,-17.71 1305.96,-16.05 1307.21,-22.94"/>
</a>
</g>
</g>
<!-- Node8 -->
<g id="Node000008" class="node">
<title>Node8</title>
<g id="a_Node000008"><a xlink:title=" ">
<polygon fill="#e0e0e0" stroke="#999999" points="1233,-19.25 1182.5,-19.25 1182.5,0 1233,0 1233,-19.25"/>
<text text-anchor="middle" x="1207.75" y="-5.75" font-family="Helvetica,sans-Serif" font-size="10.00">typeinfo</text>
</a>
</g>
</g>
<!-- Node2&#45;&gt;Node8 -->
<g id="edge7_Node000002_Node000008" class="edge">
<title>Node2&#45;&gt;Node8</title>
<g id="a_edge7_Node000002_Node000008"><a xlink:title=" ">
<path fill="none" stroke="#63b8ff" d="M803.39,-61.69C871.87,-57.01 1029.57,-44.51 1171.18,-19.49"/>
<polygon fill="#63b8ff" stroke="#63b8ff" points="1171.5,-22.99 1180.72,-17.77 1170.26,-16.1 1171.5,-22.99"/>
</a>
</g>
</g>
<!-- Node9 -->
<g id="Node000009" class="node">
<title>Node9</title>
<g id="a_Node000009"><a xlink:title=" ">
<polygon fill="#e0e0e0" stroke="#999999" points="1300.62,-19.25 1250.88,-19.25 1250.88,0 1300.62,0 1300.62,-19.25"/>
<text text-anchor="middle" x="1275.75" y="-5.75" font-family="Helvetica,sans-Serif" font-size="10.00">iomanip</text>
</a>
</g>
</g>
<!-- Node2&#45;&gt;Node9 -->
<g id="edge8_Node000002_Node000009" class="edge">
<title>Node2&#45;&gt;Node9</title>
<g id="a_edge8_Node000002_Node000009"><a xlink:title=" ">
<path fill="none" stroke="#63b8ff" d="M803.41,-62.44C880.21,-58.87 1070.59,-47.86 1239.26,-19.41"/>
<polygon fill="#63b8ff" stroke="#63b8ff" points="1239.84,-22.86 1249.1,-17.72 1238.65,-15.96 1239.84,-22.86"/>
</a>
</g>
</g>
<!-- Node10 -->
<g id="Node000010" class="node">
<title>Node10</title>
<g id="a_Node000010"><a xlink:title=" ">
<polygon fill="#e0e0e0" stroke="#999999" points="113.88,-19.25 71.62,-19.25 71.62,0 113.88,0 113.88,-19.25"/>
<text text-anchor="middle" x="92.75" y="-5.75" font-family="Helvetica,sans-Serif" font-size="10.00">cstdio</text>
</a>
</g>
</g>
<!-- Node2&#45;&gt;Node10 -->
<g id="edge9_Node000002_Node000010" class="edge">
<title>Node2&#45;&gt;Node10</title>
<g id="a_edge9_Node000002_Node000010"><a xlink:title=" ">
<path fill="none" stroke="#63b8ff" d="M734.12,-64.04C638.44,-63.95 362.4,-60.06 125.5,-19.36"/>
<polygon fill="#63b8ff" stroke="#63b8ff" points="126.2,-15.93 115.74,-17.66 124.99,-22.82 126.2,-15.93"/>
</a>
</g>
</g>
<!-- Node11 -->
<g id="Node000011" class="node">
<title>Node11</title>
<g id="a_Node000011"><a xlink:title=" ">
<polygon fill="#e0e0e0" stroke="#999999" points="176,-19.25 131.5,-19.25 131.5,0 176,0 176,-19.25"/>
<text text-anchor="middle" x="153.75" y="-5.75" font-family="Helvetica,sans-Serif" font-size="10.00">cstdlib</text>
</a>
</g>
</g>
<!-- Node2&#45;&gt;Node11 -->
<g id="edge10_Node000002_Node000011" class="edge">
<title>Node2&#45;&gt;Node11</title>
<g id="a_edge10_Node000002_Node000011"><a xlink:title=" ">
<path fill="none" stroke="#63b8ff" d="M734.23,-63.58C645.04,-62.32 399.64,-55.71 187.36,-19.38"/>
<polygon fill="#63b8ff" stroke="#63b8ff" points="188.26,-15.98 177.81,-17.71 187.06,-22.88 188.26,-15.98"/>
</a>
</g>
</g>
<!-- Node2&#45;&gt;Node12 -->
<g id="edge11_Node000002_Node000012" class="edge">
<title>Node2&#45;&gt;Node12</title>
<g id="a_edge11_Node000002_Node000012"><a xlink:title=" ">
<path fill="none" stroke="#63b8ff" d="M803.25,-63.26C894.19,-61.23 1148.04,-52.89 1367.46,-19.55"/>
<polygon fill="#63b8ff" stroke="#63b8ff" points="1367.69,-23.05 1377.04,-18.07 1366.62,-16.14 1367.69,-23.05"/>
</a>
</g>
</g>
<!-- Node13 -->
<g id="Node000013" class="node">
<title>Node13</title>
<g id="a_Node000013"><a xlink:title=" ">
<polygon fill="#e0e0e0" stroke="#999999" points="239.38,-19.25 194.12,-19.25 194.12,0 239.38,0 239.38,-19.25"/>
<text text-anchor="middle" x="216.75" y="-5.75" font-family="Helvetica,sans-Serif" font-size="10.00">chrono</text>
</a>
</g>
</g>
<!-- Node2&#45;&gt;Node13 -->
<g id="edge12_Node000002_Node000013" class="edge">
<title>Node2&#45;&gt;Node13</title>
<g id="a_edge12_Node000002_Node000013"><a xlink:title=" ">
<path fill="none" stroke="#63b8ff" d="M734.1,-63.02C651.83,-60.55 438.23,-51.5 250.88,-19.29"/>
<polygon fill="#63b8ff" stroke="#63b8ff" points="251.66,-15.87 241.2,-17.6 250.45,-22.77 251.66,-15.87"/>
</a>
</g>
</g>
<!-- Node14 -->
<g id="Node000014" class="node">
<title>Node14</title>
<g id="a_Node000014"><a xlink:title=" ">
<polygon fill="#e0e0e0" stroke="#999999" points="297.75,-19.25 257.75,-19.25 257.75,0 297.75,0 297.75,-19.25"/>
<text text-anchor="middle" x="277.75" y="-5.75" font-family="Helvetica,sans-Serif" font-size="10.00">cfloat</text>
</a>
</g>
</g>
<!-- Node2&#45;&gt;Node14 -->
<g id="edge13_Node000002_Node000014" class="edge">
<title>Node2&#45;&gt;Node14</title>
<g id="a_edge13_Node000002_Node000014"><a xlink:title=" ">
<path fill="none" stroke="#63b8ff" d="M734.23,-62.81C658.71,-60 473.12,-50.48 309.47,-19.42"/>
<polygon fill="#63b8ff" stroke="#63b8ff" points="310.19,-16 299.71,-17.53 308.86,-22.87 310.19,-16"/>
</a>
</g>
</g>
<!-- Node15 -->
<g id="Node000015" class="node">
<title>Node15</title>
<g id="a_Node000015"><a xlink:title=" ">
<polygon fill="#e0e0e0" stroke="#999999" points="377.25,-19.25 316.25,-19.25 316.25,0 377.25,0 377.25,-19.25"/>
<text text-anchor="middle" x="346.75" y="-5.75" font-family="Helvetica,sans-Serif" font-size="10.00">filesystem</text>
</a>
</g>
</g>
<!-- Node2&#45;&gt;Node15 -->
<g id="edge14_Node000002_Node000015" class="edge">
<title>Node2&#45;&gt;Node15</title>
<g id="a_edge14_Node000002_Node000015"><a xlink:title=" ">
<path fill="none" stroke="#63b8ff" d="M734.09,-60.95C668.68,-55.19 522.34,-41.15 388.92,-19.45"/>
<polygon fill="#63b8ff" stroke="#63b8ff" points="389.63,-16.02 379.2,-17.85 388.49,-22.93 389.63,-16.02"/>
</a>
</g>
</g>
<!-- Node16 -->
<g id="Node000016" class="node">
<title>Node16</title>
<g id="a_Node000016"><a xlink:title=" ">
<polygon fill="#e0e0e0" stroke="#999999" points="430.12,-19.25 395.38,-19.25 395.38,0 430.12,0 430.12,-19.25"/>
<text text-anchor="middle" x="412.75" y="-5.75" font-family="Helvetica,sans-Serif" font-size="10.00">map</text>
</a>
</g>
</g>
<!-- Node2&#45;&gt;Node16 -->
<g id="edge15_Node000002_Node000016" class="edge">
<title>Node2&#45;&gt;Node16</title>
<g id="a_edge15_Node000002_Node000016"><a xlink:title=" ">
<path fill="none" stroke="#63b8ff" d="M734.3,-61.19C675.96,-56.23 553.93,-44 441.54,-19.25"/>
<polygon fill="#63b8ff" stroke="#63b8ff" points="442.35,-15.84 431.82,-17.06 440.81,-22.67 442.35,-15.84"/>
</a>
</g>
</g>
<!-- Node17 -->
<g id="Node000017" class="node">
<title>Node17</title>
<g id="a_Node000017"><a xlink:title=" ">
<polygon fill="#e0e0e0" stroke="#999999" points="507.12,-19.25 448.38,-19.25 448.38,0 507.12,0 507.12,-19.25"/>
<text text-anchor="middle" x="477.75" y="-5.75" font-family="Helvetica,sans-Serif" font-size="10.00">stdexcept</text>
</a>
</g>
</g>
<!-- Node2&#45;&gt;Node17 -->
<g id="edge16_Node000002_Node000017" class="edge">
<title>Node2&#45;&gt;Node17</title>
<g id="a_edge16_Node000002_Node000017"><a xlink:title=" ">
<path fill="none" stroke="#63b8ff" d="M734.28,-58.34C687.59,-50.73 601.4,-36.25 518.7,-19.77"/>
<polygon fill="#63b8ff" stroke="#63b8ff" points="519.57,-16.38 509.08,-17.84 518.19,-23.24 519.57,-16.38"/>
</a>
</g>
</g>
<!-- Node18 -->
<g id="Node000018" class="node">
<title>Node18</title>
<g id="a_Node000018"><a xlink:title=" ">
<polygon fill="#e0e0e0" stroke="#999999" points="576.38,-19.25 525.12,-19.25 525.12,0 576.38,0 576.38,-19.25"/>
<text text-anchor="middle" x="550.75" y="-5.75" font-family="Helvetica,sans-Serif" font-size="10.00">sstream</text>
</a>
</g>
</g>
<!-- Node2&#45;&gt;Node18 -->
<g id="edge17_Node000002_Node000018" class="edge">
<title>Node2&#45;&gt;Node18</title>
<g id="a_edge17_Node000002_Node000018"><a xlink:title=" ">
<path fill="none" stroke="#63b8ff" d="M734,-55.43C699.42,-47.01 644.52,-33.65 587.74,-19.73"/>
<polygon fill="#63b8ff" stroke="#63b8ff" points="588.76,-16.38 578.21,-17.4 587.09,-23.18 588.76,-16.38"/>
</a>
</g>
</g>
<!-- Node19 -->
<g id="Node000019" class="node">
<title>Node19</title>
<g id="a_Node000019"><a xlink:title=" ">
<polygon fill="#e0e0e0" stroke="#999999" points="677.12,-19.25 594.38,-19.25 594.38,0 677.12,0 677.12,-19.25"/>
<text text-anchor="middle" x="635.75" y="-5.75" font-family="Helvetica,sans-Serif" font-size="10.00">unordered_map</text>
</a>
</g>
</g>
<!-- Node2&#45;&gt;Node19 -->
<g id="edge18_Node000002_Node000019" class="edge">
<title>Node2&#45;&gt;Node19</title>
<g id="a_edge18_Node000002_Node000019"><a xlink:title=" ">
<path fill="none" stroke="#63b8ff" d="M746.19,-54.84C724.98,-46.35 692.98,-33.54 668.87,-23.89"/>
<polygon fill="#63b8ff" stroke="#63b8ff" points="670.41,-20.73 659.83,-20.27 667.81,-27.23 670.41,-20.73"/>
</a>
</g>
</g>
<!-- Node20 -->
<g id="Node000020" class="node">
<title>Node20</title>
<g id="a_Node000020"><a xlink:title=" ">
<polygon fill="#e0e0e0" stroke="#999999" points="772.5,-19.25 695,-19.25 695,0 772.5,0 772.5,-19.25"/>
<text text-anchor="middle" x="733.75" y="-5.75" font-family="Helvetica,sans-Serif" font-size="10.00">unordered_set</text>
</a>
</g>
</g>
<!-- Node2&#45;&gt;Node20 -->
<g id="edge19_Node000002_Node000020" class="edge">
<title>Node2&#45;&gt;Node20</title>
<g id="a_edge19_Node000002_Node000020"><a xlink:title=" ">
<path fill="none" stroke="#63b8ff" d="M762.97,-55.08C758.34,-48.03 751.68,-37.9 745.88,-29.08"/>
<polygon fill="#63b8ff" stroke="#63b8ff" points="748.9,-27.31 740.49,-20.87 743.05,-31.15 748.9,-27.31"/>
</a>
</g>
</g>
<!-- Node21 -->
<g id="Node000021" class="node">
<title>Node21</title>
<g id="a_Node000021"><a xlink:title=" ">
<polygon fill="#e0e0e0" stroke="#999999" points="827.25,-19.25 790.25,-19.25 790.25,0 827.25,0 827.25,-19.25"/>
<text text-anchor="middle" x="808.75" y="-5.75" font-family="Helvetica,sans-Serif" font-size="10.00">tuple</text>
</a>
</g>
</g>
<!-- Node2&#45;&gt;Node21 -->
<g id="edge20_Node000002_Node000021" class="edge">
<title>Node2&#45;&gt;Node21</title>
<g id="a_edge20_Node000002_Node000021"><a xlink:title=" ">
<path fill="none" stroke="#63b8ff" d="M775.36,-55.08C780.71,-47.96 788.43,-37.68 795.1,-28.8"/>
<polygon fill="#63b8ff" stroke="#63b8ff" points="797.88,-30.92 801.09,-20.82 792.29,-26.71 797.88,-30.92"/>
</a>
</g>
</g>
<!-- Node22 -->
<g id="Node000022" class="node">
<title>Node22</title>
<g id="a_Node000022"><a xlink:title=" ">
<polygon fill="#e0e0e0" stroke="#999999" points="874.5,-19.25 845,-19.25 845,0 874.5,0 874.5,-19.25"/>
<text text-anchor="middle" x="859.75" y="-5.75" font-family="Helvetica,sans-Serif" font-size="10.00">set</text>
</a>
</g>
</g>
<!-- Node2&#45;&gt;Node22 -->
<g id="edge21_Node000002_Node000022" class="edge">
<title>Node2&#45;&gt;Node22</title>
<g id="a_edge21_Node000002_Node000022"><a xlink:title=" ">
<path fill="none" stroke="#63b8ff" d="M784.19,-54.84C798,-46.76 818.5,-34.77 834.66,-25.31"/>
<polygon fill="#63b8ff" stroke="#63b8ff" points="836.37,-28.36 843.23,-20.29 832.84,-22.32 836.37,-28.36"/>
</a>
</g>
</g>
<!-- Node23 -->
<g id="Node000023" class="node">
<title>Node23</title>
<g id="a_Node000023"><a xlink:title=" ">
<polygon fill="#e0e0e0" stroke="#999999" points="978.62,-19.25 892.88,-19.25 892.88,0 978.62,0 978.62,-19.25"/>
<text text-anchor="middle" x="935.75" y="-5.75" font-family="Helvetica,sans-Serif" font-size="10.00">boost/regex.hpp</text>
</a>
</g>
</g>
<!-- Node2&#45;&gt;Node23 -->
<g id="edge22_Node000002_Node000023" class="edge">
<title>Node2&#45;&gt;Node23</title>
<g id="a_edge22_Node000002_Node000023"><a xlink:title=" ">
<path fill="none" stroke="#63b8ff" d="M797.08,-54.84C824.43,-46.12 866.07,-32.84 896.59,-23.11"/>
<polygon fill="#63b8ff" stroke="#63b8ff" points="897.38,-26.53 905.84,-20.16 895.25,-19.87 897.38,-26.53"/>
</a>
</g>
</g>
<!-- Node24&#45;&gt;Node2 -->
<g id="edge24_Node000024_Node000002" class="edge">
<title>Node24&#45;&gt;Node2</title>
<g id="a_edge24_Node000024_Node000002"><a xlink:title=" ">
<path fill="none" stroke="#63b8ff" d="M768.75,-110.33C768.75,-103.82 768.75,-94.67 768.75,-86.37"/>
<polygon fill="#63b8ff" stroke="#63b8ff" points="772.25,-86.37 768.75,-76.37 765.25,-86.37 772.25,-86.37"/>
</a>
</g>
</g>
<!-- Node25&#45;&gt;Node2 -->
<g id="edge26_Node000025_Node000002" class="edge">
<title>Node25&#45;&gt;Node2</title>
<g id="a_edge26_Node000025_Node000002"><a xlink:title=" ">
<path fill="none" stroke="#63b8ff" d="M713.15,-165.67C715.46,-152.95 720.82,-128.8 730.75,-110.5 736.12,-100.6 743.95,-90.92 751.11,-83.12"/>
<polygon fill="#63b8ff" stroke="#63b8ff" points="753.54,-85.64 757.97,-76.01 748.51,-80.78 753.54,-85.64"/>
</a>
</g>
</g>
<!-- Node25&#45;&gt;Node24 -->
<g id="edge27_Node000025_Node000024" class="edge">
<title>Node25&#45;&gt;Node24</title>
<g id="a_edge27_Node000025_Node000024"><a xlink:title=" ">
<path fill="none" stroke="#63b8ff" d="M721.42,-165.34C729.49,-157.8 741.22,-146.85 750.97,-137.73"/>
<polygon fill="#63b8ff" stroke="#63b8ff" points="753.2,-140.44 758.12,-131.06 748.42,-135.33 753.2,-140.44"/>
</a>
</g>
</g>
<!-- Node26&#45;&gt;Node2 -->
<g id="edge29_Node000026_Node000002" class="edge">
<title>Node26&#45;&gt;Node2</title>
<g id="a_edge29_Node000026_Node000002"><a xlink:title=" ">
<path fill="none" stroke="#63b8ff" d="M846.72,-165.53C838.13,-153.05 821.76,-129.65 806.75,-110.5 799.62,-101.4 791.34,-91.6 784.33,-83.5"/>
<polygon fill="#63b8ff" stroke="#63b8ff" points="787.05,-81.29 777.83,-76.06 781.78,-85.9 787.05,-81.29"/>
</a>
</g>
</g>
<!-- Node26&#45;&gt;Node24 -->
<g id="edge30_Node000026_Node000024" class="edge">
<title>Node26&#45;&gt;Node24</title>
<g id="a_edge30_Node000026_Node000024"><a xlink:title=" ">
<path fill="none" stroke="#63b8ff" d="M838.5,-165.34C825.95,-157.39 807.42,-145.64 792.61,-136.25"/>
<polygon fill="#63b8ff" stroke="#63b8ff" points="794.67,-133.41 784.35,-131.01 790.92,-139.32 794.67,-133.41"/>
</a>
</g>
</g>
<!-- Node27&#45;&gt;Node2 -->
<g id="edge32_Node000027_Node000002" class="edge">
<title>Node27&#45;&gt;Node2</title>
<g id="a_edge32_Node000027_Node000002"><a xlink:title=" ">
<path fill="none" stroke="#63b8ff" d="M924.77,-220.5C945.35,-208.79 974.59,-187.4 961.75,-165.75 930.38,-112.83 860.67,-86.81 814.19,-74.88"/>
<polygon fill="#63b8ff" stroke="#63b8ff" points="815.22,-71.53 804.67,-72.57 813.57,-78.33 815.22,-71.53"/>
</a>
</g>
</g>
<!-- Node27&#45;&gt;Node24 -->
<g id="edge33_Node000027_Node000024" class="edge">
<title>Node27&#45;&gt;Node24</title>
<g id="a_edge33_Node000027_Node000024"><a xlink:title=" ">
<path fill="none" stroke="#63b8ff" d="M882.61,-220.52C864.18,-212.83 838.8,-200.58 819.75,-185 803.82,-171.97 789.57,-153.2 780.21,-139.38"/>
<polygon fill="#63b8ff" stroke="#63b8ff" points="783.28,-137.68 774.89,-131.22 777.42,-141.51 783.28,-137.68"/>
</a>
</g>
</g>
<!-- Node28 -->
<g id="Node000028" class="node">
<title>Node28</title>
<g id="a_Node000028"><a xlink:href="../../db/d72/_utilities_8h.html" target="_top" xlink:title=" ">
<polygon fill="white" stroke="#666666" points="952.38,-185 895.12,-185 895.12,-165.75 952.38,-165.75 952.38,-185"/>
<text text-anchor="middle" x="923.75" y="-171.5" font-family="Helvetica,sans-Serif" font-size="10.00">Utilities.h</text>
</a>
</g>
</g>
<!-- Node27&#45;&gt;Node28 -->
<g id="edge34_Node000027_Node000028" class="edge">
<title>Node27&#45;&gt;Node28</title>
<g id="a_edge34_Node000027_Node000028"><a xlink:title=" ">
<path fill="none" stroke="#63b8ff" d="M909.56,-220.83C911.69,-214.17 914.69,-204.74 917.39,-196.28"/>
<polygon fill="#63b8ff" stroke="#63b8ff" points="920.71,-197.39 920.42,-186.8 914.05,-195.26 920.71,-197.39"/>
</a>
</g>
</g>
<!-- Node28&#45;&gt;Node2 -->
<g id="edge35_Node000028_Node000002" class="edge">
<title>Node28&#45;&gt;Node2</title>
<g id="a_edge35_Node000028_Node000002"><a xlink:title=" ">
<path fill="none" stroke="#63b8ff" d="M910.8,-165.31C884.29,-146.76 823.59,-104.26 790.77,-81.29"/>
<polygon fill="#63b8ff" stroke="#63b8ff" points="792.99,-78.57 782.79,-75.7 788.98,-84.31 792.99,-78.57"/>
</a>
</g>
</g>
<!-- Node28&#45;&gt;Node24 -->
<g id="edge36_Node000028_Node000024" class="edge">
<title>Node28&#45;&gt;Node24</title>
<g id="a_edge36_Node000028_Node000024"><a xlink:title=" ">
<path fill="none" stroke="#63b8ff" d="M897.46,-165.34C872.29,-156.7 834.1,-143.57 805.84,-133.87"/>
<polygon fill="#63b8ff" stroke="#63b8ff" points="807.2,-130.63 796.6,-130.69 804.92,-137.25 807.2,-130.63"/>
</a>
</g>
</g>
<!-- Node29&#45;&gt;Node2 -->
<g id="edge38_Node000029_Node000002" class="edge">
<title>Node29&#45;&gt;Node2</title>
<g id="a_edge38_Node000029_Node000002"><a xlink:title=" ">
<path fill="none" stroke="#63b8ff" d="M1031.74,-165.3C1026.57,-151.18 1014.58,-124.16 994.75,-110.5 966.09,-90.76 871.97,-77.24 814.63,-70.6"/>
<polygon fill="#63b8ff" stroke="#63b8ff" points="815.16,-67.14 804.84,-69.5 814.38,-74.1 815.16,-67.14"/>
</a>
</g>
</g>
<!-- Node29&#45;&gt;Node24 -->
<g id="edge39_Node000029_Node000024" class="edge">
<title>Node29&#45;&gt;Node24</title>
<g id="a_edge39_Node000029_Node000024"><a xlink:title=" ">
<path fill="none" stroke="#63b8ff" d="M1008.76,-169.17C962.14,-159.84 864.02,-140.2 808.76,-129.13"/>
<polygon fill="#63b8ff" stroke="#63b8ff" points="809.63,-125.74 799.14,-127.21 808.26,-132.6 809.63,-125.74"/>
</a>
</g>
</g>
<!-- Node30&#45;&gt;Node2 -->
<g id="edge41_Node000030_Node000002" class="edge">
<title>Node30&#45;&gt;Node2</title>
<g id="a_edge41_Node000030_Node000002"><a xlink:title=" ">
<path fill="none" stroke="#63b8ff" d="M415,-165.31C484.25,-145.84 647.24,-100.03 725.42,-78.05"/>
<polygon fill="#63b8ff" stroke="#63b8ff" points="726.19,-81.47 734.87,-75.4 724.29,-74.74 726.19,-81.47"/>
</a>
</g>
</g>
<!-- Node30&#45;&gt;Node24 -->
<g id="edge42_Node000030_Node000024" class="edge">
<title>Node30&#45;&gt;Node24</title>
<g id="a_edge42_Node000030_Node000024"><a xlink:title=" ">
<path fill="none" stroke="#63b8ff" d="M436.85,-166.84C439.52,-166.47 442.17,-166.11 444.75,-165.75 546.99,-151.6 667.4,-135.04 728.63,-126.63"/>
<polygon fill="#63b8ff" stroke="#63b8ff" points="728.77,-130.15 738.21,-125.32 727.82,-123.21 728.77,-130.15"/>
</a>
</g>
</g>
<!-- Node31&#45;&gt;Node2 -->
<g id="edge44_Node000031_Node000002" class="edge">
<title>Node31&#45;&gt;Node2</title>
<g id="a_edge44_Node000031_Node000002"><a xlink:title=" ">
<path fill="none" stroke="#63b8ff" d="M534.14,-165.31C579.12,-146.24 683.76,-101.9 736.76,-79.43"/>
<polygon fill="#63b8ff" stroke="#63b8ff" points="738.01,-82.71 745.85,-75.58 735.28,-76.26 738.01,-82.71"/>
</a>
</g>
</g>
<!-- Node31&#45;&gt;Node24 -->
<g id="edge45_Node000031_Node000024" class="edge">
<title>Node31&#45;&gt;Node24</title>
<g id="a_edge45_Node000031_Node000024"><a xlink:title=" ">
<path fill="none" stroke="#63b8ff" d="M556.47,-165.28C604.78,-155.23 681.94,-139.18 728.72,-129.45"/>
<polygon fill="#63b8ff" stroke="#63b8ff" points="729.37,-132.89 738.44,-127.43 727.94,-126.04 729.37,-132.89"/>
</a>
</g>
</g>
<!-- Node32&#45;&gt;Node2 -->
<g id="edge47_Node000032_Node000002" class="edge">
<title>Node32&#45;&gt;Node2</title>
<g id="a_edge47_Node000032_Node000002"><a xlink:title=" ">
<path fill="none" stroke="#63b8ff" d="M642.04,-165.5C665.29,-147.22 718.79,-105.15 748.29,-81.96"/>
<polygon fill="#63b8ff" stroke="#63b8ff" points="750.41,-84.74 756.11,-75.81 746.09,-79.24 750.41,-84.74"/>
</a>
</g>
</g>
<!-- Node32&#45;&gt;Node24 -->
<g id="edge48_Node000032_Node000024" class="edge">
<title>Node32&#45;&gt;Node24</title>
<g id="a_edge48_Node000032_Node000024"><a xlink:title=" ">
<path fill="none" stroke="#63b8ff" d="M654.16,-165.34C676.27,-156.81 709.67,-143.92 734.72,-134.26"/>
<polygon fill="#63b8ff" stroke="#63b8ff" points="735.74,-137.61 743.81,-130.75 733.22,-131.08 735.74,-137.61"/>
</a>
</g>
</g>
</g>
</svg>
