<?xml version="1.0" encoding="UTF-8" standalone="no"?>
<!DOCTYPE svg PUBLIC "-//W3C//DTD SVG 1.1//EN"
 "http://www.w3.org/Graphics/SVG/1.1/DTD/svg11.dtd">
<!-- Generated by graphviz version 12.2.1 (20241206.2353)
 -->
<!-- Title: calculate_viscous_stress_kernel Pages: 1 -->
<svg width="321pt" height="64pt"
 viewBox="0.00 0.00 320.50 64.25" xmlns="http://www.w3.org/2000/svg" xmlns:xlink="http://www.w3.org/1999/xlink">
<g id="graph0" class="graph" transform="scale(1 1) rotate(0) translate(4 60.25)">
<title>calculate_viscous_stress_kernel</title>
<!-- Node1 -->
<g id="Node000001" class="node">
<title>Node1</title>
<g id="a_Node000001"><a xlink:title=" ">
<polygon fill="#999999" stroke="#666666" points="126.25,-42.88 0,-42.88 0,-12.37 126.25,-12.37 126.25,-42.88"/>
<text text-anchor="start" x="8" y="-29.38" font-family="Helvetica,sans-Serif" font-size="10.00">calculate_viscous_stress</text>
<text text-anchor="middle" x="63.12" y="-18.12" font-family="Helvetica,sans-Serif" font-size="10.00">_kernel</text>
</a>
</g>
</g>
<!-- Node2 -->
<g id="Node000002" class="node">
<title>Node2</title>
<g id="a_Node000002"><a xlink:href="../../d4/d7e/_viscous___flux___cuda___kernels_8cu_acd7b52d8b13411814658c3ea2c0e5e5a.html#acd7b52d8b13411814658c3ea2c0e5e5a" target="_top" xlink:title=" ">
<polygon fill="white" stroke="#666666" points="312.5,-56.25 162.25,-56.25 162.25,-37 312.5,-37 312.5,-56.25"/>
<text text-anchor="middle" x="237.38" y="-42.75" font-family="Helvetica,sans-Serif" font-size="10.00">calculate_thermal_conductivity</text>
</a>
</g>
</g>
<!-- Node1&#45;&gt;Node2 -->
<g id="edge1_Node000001_Node000002" class="edge">
<title>Node1&#45;&gt;Node2</title>
<g id="a_edge1_Node000001_Node000002"><a xlink:title=" ">
<path fill="none" stroke="#63b8ff" d="M126.31,-34.48C134.26,-35.36 142.51,-36.27 150.75,-37.18"/>
<polygon fill="#63b8ff" stroke="#63b8ff" points="150.12,-40.63 160.45,-38.25 150.89,-33.67 150.12,-40.63"/>
</a>
</g>
</g>
<!-- Node3 -->
<g id="Node000003" class="node">
<title>Node3</title>
<g id="a_Node000003"><a xlink:href="../../d4/d7e/_viscous___flux___cuda___kernels_8cu_a2c5981d9a99ef8b86310489c7c2a6dcd.html#a2c5981d9a99ef8b86310489c7c2a6dcd" target="_top" xlink:title=" ">
<polygon fill="white" stroke="#666666" points="287,-19.25 187.75,-19.25 187.75,0 287,0 287,-19.25"/>
<text text-anchor="middle" x="237.38" y="-5.75" font-family="Helvetica,sans-Serif" font-size="10.00">calculate_viscosity</text>
</a>
</g>
</g>
<!-- Node1&#45;&gt;Node3 -->
<g id="edge2_Node000001_Node000003" class="edge">
<title>Node1&#45;&gt;Node3</title>
<g id="a_edge2_Node000001_Node000003"><a xlink:title=" ">
<path fill="none" stroke="#63b8ff" d="M126.31,-21.13C142.68,-19.42 160.29,-17.58 176.53,-15.88"/>
<polygon fill="#63b8ff" stroke="#63b8ff" points="176.43,-19.41 186.01,-14.89 175.7,-12.45 176.43,-19.41"/>
</a>
</g>
</g>
</g>
</svg>
