<?xml version="1.0" encoding="UTF-8" standalone="no"?>
<!DOCTYPE svg PUBLIC "-//W3C//DTD SVG 1.1//EN"
 "http://www.w3.org/Graphics/SVG/1.1/DTD/svg11.dtd">
<!-- Generated by graphviz version 12.2.1 (20241206.2353)
 -->
<!-- Title: PressureField::initialize Pages: 1 -->
<svg width="292pt" height="88pt"
 viewBox="0.00 0.00 292.00 87.50" xmlns="http://www.w3.org/2000/svg" xmlns:xlink="http://www.w3.org/1999/xlink">
<g id="graph0" class="graph" transform="scale(1 1) rotate(0) translate(4 83.5)">
<title>PressureField::initialize</title>
<!-- Node1 -->
<g id="Node000001" class="node">
<title>Node1</title>
<g id="a_Node000001"><a xlink:title=" ">
<polygon fill="#999999" stroke="#666666" points="284,-48.88 166.75,-48.88 166.75,-29.62 284,-29.62 284,-48.88"/>
<text text-anchor="middle" x="225.38" y="-35.38" font-family="Helvetica,sans-Serif" font-size="10.00">PressureField::initialize</text>
</a>
</g>
</g>
<!-- Node2 -->
<g id="Node000002" class="node">
<title>Node2</title>
<g id="a_Node000002"><a xlink:href="../../d2/dfc/class_incompressible_flow_solver_aacfd15102b5eec3d5f484d3fd405c57d.html#aacfd15102b5eec3d5f484d3fd405c57d" target="_top" xlink:title=" ">
<polygon fill="white" stroke="#666666" points="130.75,-79.5 0,-79.5 0,-49 130.75,-49 130.75,-79.5"/>
<text text-anchor="start" x="8" y="-66" font-family="Helvetica,sans-Serif" font-size="10.00">IncompressibleFlowSolver</text>
<text text-anchor="middle" x="65.38" y="-54.75" font-family="Helvetica,sans-Serif" font-size="10.00">::initialize</text>
</a>
</g>
</g>
<!-- Node1&#45;&gt;Node2 -->
<g id="edge1_Node000001_Node000002" class="edge">
<title>Node1&#45;&gt;Node2</title>
<g id="a_edge1_Node000001_Node000002"><a xlink:title=" ">
<path fill="none" stroke="#63b8ff" d="M155.28,-50.18C147.29,-51.45 139.17,-52.73 131.24,-53.99"/>
<polygon fill="#63b8ff" stroke="#63b8ff" points="155.61,-53.67 164.94,-48.65 154.52,-46.76 155.61,-53.67"/>
</a>
</g>
</g>
<!-- Node3 -->
<g id="Node000003" class="node">
<title>Node3</title>
<g id="a_Node000003"><a xlink:href="../../d2/dfc/class_incompressible_flow_solver_abefb7f784284eee6ffe7fa3029714217.html#abefb7f784284eee6ffe7fa3029714217" target="_top" xlink:title=" ">
<polygon fill="white" stroke="#666666" points="130.75,-30.5 0,-30.5 0,0 130.75,0 130.75,-30.5"/>
<text text-anchor="start" x="8" y="-17" font-family="Helvetica,sans-Serif" font-size="10.00">IncompressibleFlowSolver</text>
<text text-anchor="middle" x="65.38" y="-5.75" font-family="Helvetica,sans-Serif" font-size="10.00">::set_initial_conditions</text>
</a>
</g>
</g>
<!-- Node1&#45;&gt;Node3 -->
<g id="edge2_Node000001_Node000003" class="edge">
<title>Node1&#45;&gt;Node3</title>
<g id="a_edge2_Node000001_Node000003"><a xlink:title=" ">
<path fill="none" stroke="#63b8ff" d="M155.28,-28.75C147.29,-27.54 139.17,-26.31 131.24,-25.1"/>
<polygon fill="#63b8ff" stroke="#63b8ff" points="154.53,-32.18 164.94,-30.22 155.58,-25.26 154.53,-32.18"/>
</a>
</g>
</g>
</g>
</svg>
