<?xml version="1.0" encoding="UTF-8" standalone="no"?>
<!DOCTYPE svg PUBLIC "-//W3C//DTD SVG 1.1//EN"
 "http://www.w3.org/Graphics/SVG/1.1/DTD/svg11.dtd">
<!-- Generated by graphviz version 12.2.1 (20241206.2353)
 -->
<!-- Title: include/Grid_Computations_Optimized.h Pages: 1 -->
<svg width="173pt" height="172pt"
 viewBox="0.00 0.00 172.50 171.50" xmlns="http://www.w3.org/2000/svg" xmlns:xlink="http://www.w3.org/1999/xlink">
<g id="graph0" class="graph" transform="scale(1 1) rotate(0) translate(4 167.5)">
<title>include/Grid_Computations_Optimized.h</title>
<!-- Node1 -->
<g id="Node000001" class="node">
<title>Node1</title>
<g id="a_Node000001"><a xlink:title=" ">
<polygon fill="#999999" stroke="#666666" points="133.75,-163.5 0,-163.5 0,-133 133.75,-133 133.75,-163.5"/>
<text text-anchor="start" x="8" y="-150" font-family="Helvetica,sans-Serif" font-size="10.00">include/Grid_Computations</text>
<text text-anchor="middle" x="66.88" y="-138.75" font-family="Helvetica,sans-Serif" font-size="10.00">_Optimized.h</text>
</a>
</g>
</g>
<!-- Node2 -->
<g id="Node000002" class="node">
<title>Node2</title>
<g id="a_Node000002"><a xlink:href="../../dc/de7/_grid___optimization___integration___guide_8cpp.html" target="_top" xlink:title=" ">
<polygon fill="white" stroke="#666666" points="125.12,-30.5 8.62,-30.5 8.62,0 125.12,0 125.12,-30.5"/>
<text text-anchor="start" x="16.62" y="-17" font-family="Helvetica,sans-Serif" font-size="10.00">src/Grid_Optimization</text>
<text text-anchor="middle" x="66.88" y="-5.75" font-family="Helvetica,sans-Serif" font-size="10.00">_Integration_Guide.cpp</text>
</a>
</g>
</g>
<!-- Node1&#45;&gt;Node2 -->
<g id="edge1_Node000001_Node000002" class="edge">
<title>Node1&#45;&gt;Node2</title>
<g id="a_edge1_Node000001_Node000002"><a xlink:title=" ">
<path fill="none" stroke="#63b8ff" d="M53.15,-122.81C49.37,-114.83 45.79,-105.76 43.88,-97 40.99,-83.76 40.99,-79.74 43.88,-66.5 46.65,-53.75 52.97,-40.37 58.28,-30.62"/>
<polygon fill="#63b8ff" stroke="#63b8ff" points="49.94,-124.21 57.6,-131.53 56.17,-121.03 49.94,-124.21"/>
</a>
</g>
</g>
<!-- Node3 -->
<g id="Node000003" class="node">
<title>Node3</title>
<g id="a_Node000003"><a xlink:href="../../d1/db0/_grid___performance___benchmark_8cpp.html" target="_top" xlink:title=" ">
<polygon fill="white" stroke="#666666" points="164.5,-97 53.25,-97 53.25,-66.5 164.5,-66.5 164.5,-97"/>
<text text-anchor="start" x="61.25" y="-83.5" font-family="Helvetica,sans-Serif" font-size="10.00">src/Grid_Performance</text>
<text text-anchor="middle" x="108.88" y="-72.25" font-family="Helvetica,sans-Serif" font-size="10.00">_Benchmark.cpp</text>
</a>
</g>
</g>
<!-- Node1&#45;&gt;Node3 -->
<g id="edge2_Node000001_Node000003" class="edge">
<title>Node1&#45;&gt;Node3</title>
<g id="a_edge2_Node000001_Node000003"><a xlink:title=" ">
<path fill="none" stroke="#63b8ff" d="M82.66,-123.01C88.29,-114.37 94.45,-104.91 99.38,-97.33"/>
<polygon fill="#63b8ff" stroke="#63b8ff" points="79.76,-121.06 77.23,-131.35 85.62,-124.88 79.76,-121.06"/>
</a>
</g>
</g>
<!-- Node3&#45;&gt;Node2 -->
<g id="edge3_Node000003_Node000002" class="edge">
<title>Node3&#45;&gt;Node2</title>
<g id="a_edge3_Node000003_Node000002"><a xlink:title=" ">
<path fill="none" stroke="#63b8ff" d="M93.09,-56.51C87.46,-47.87 81.3,-38.41 76.37,-30.83"/>
<polygon fill="#63b8ff" stroke="#63b8ff" points="90.13,-58.38 98.52,-64.85 95.99,-54.56 90.13,-58.38"/>
</a>
</g>
</g>
</g>
</svg>
