<?xml version="1.0" encoding="UTF-8" standalone="no"?>
<!DOCTYPE svg PUBLIC "-//W3C//DTD SVG 1.1//EN"
 "http://www.w3.org/Graphics/SVG/1.1/DTD/svg11.dtd">
<!-- Generated by graphviz version 12.2.1 (20241206.2353)
 -->
<!-- Title: Line::Get_Point_list Pages: 1 -->
<svg width="237pt" height="64pt"
 viewBox="0.00 0.00 237.25 64.25" xmlns="http://www.w3.org/2000/svg" xmlns:xlink="http://www.w3.org/1999/xlink">
<g id="graph0" class="graph" transform="scale(1 1) rotate(0) translate(4 60.25)">
<title>Line::Get_Point_list</title>
<!-- Node1 -->
<g id="Node000001" class="node">
<title>Node1</title>
<g id="a_Node000001"><a xlink:title=" ">
<polygon fill="#999999" stroke="#666666" points="229.25,-37.25 127.75,-37.25 127.75,-18 229.25,-18 229.25,-37.25"/>
<text text-anchor="middle" x="178.5" y="-23.75" font-family="Helvetica,sans-Serif" font-size="10.00">Line::Get_Point_list</text>
</a>
</g>
</g>
<!-- Node2 -->
<g id="Node000002" class="node">
<title>Node2</title>
<g id="a_Node000002"><a xlink:href="../../dd/db4/class_line_a633777c10334434af21f2e2cef9c2353.html#a633777c10334434af21f2e2cef9c2353" target="_top" xlink:title=" ">
<polygon fill="white" stroke="#666666" points="79.38,-56.25 12.38,-56.25 12.38,-37 79.38,-37 79.38,-56.25"/>
<text text-anchor="middle" x="45.88" y="-42.75" font-family="Helvetica,sans-Serif" font-size="10.00">Line::Merge</text>
</a>
</g>
</g>
<!-- Node1&#45;&gt;Node2 -->
<g id="edge1_Node000001_Node000002" class="edge">
<title>Node1&#45;&gt;Node2</title>
<g id="a_edge1_Node000001_Node000002"><a xlink:title=" ">
<path fill="none" stroke="#63b8ff" d="M115.98,-36.57C103.47,-38.39 90.76,-40.24 79.72,-41.85"/>
<polygon fill="#63b8ff" stroke="#63b8ff" points="116.48,-40.04 125.87,-35.13 115.47,-33.11 116.48,-40.04"/>
</a>
</g>
</g>
<!-- Node3 -->
<g id="Node000003" class="node">
<title>Node3</title>
<g id="a_Node000003"><a xlink:href="../../d8/d83/class_object_a5eabd85c6d1cd266e8b068465c8cbc71.html#a5eabd85c6d1cd266e8b068465c8cbc71" target="_top" xlink:title=" ">
<polygon fill="white" stroke="#666666" points="91.75,-19.25 0,-19.25 0,0 91.75,0 91.75,-19.25"/>
<text text-anchor="middle" x="45.88" y="-5.75" font-family="Helvetica,sans-Serif" font-size="10.00">Object::operator()</text>
</a>
</g>
</g>
<!-- Node1&#45;&gt;Node3 -->
<g id="edge2_Node000001_Node000003" class="edge">
<title>Node1&#45;&gt;Node3</title>
<g id="a_edge2_Node000001_Node000003"><a xlink:title=" ">
<path fill="none" stroke="#63b8ff" d="M116.01,-19.15C107.9,-18.03 99.72,-16.91 91.95,-15.84"/>
<polygon fill="#63b8ff" stroke="#63b8ff" points="115.49,-22.61 125.87,-20.51 116.44,-15.68 115.49,-22.61"/>
</a>
</g>
</g>
</g>
</svg>
