<?xml version="1.0" encoding="UTF-8" standalone="no"?>
<!DOCTYPE svg PUBLIC "-//W3C//DTD SVG 1.1//EN"
 "http://www.w3.org/Graphics/SVG/1.1/DTD/svg11.dtd">
<!-- Generated by graphviz version 12.2.1 (20241206.2353)
 -->
<!-- Title: Line::generate Pages: 1 -->
<svg width="192pt" height="138pt"
 viewBox="0.00 0.00 192.25 138.25" xmlns="http://www.w3.org/2000/svg" xmlns:xlink="http://www.w3.org/1999/xlink">
<g id="graph0" class="graph" transform="scale(1 1) rotate(0) translate(4 134.25)">
<title>Line::generate</title>
<!-- Node1 -->
<g id="Node000001" class="node">
<title>Node1</title>
<g id="a_Node000001"><a xlink:title=" ">
<polygon fill="#999999" stroke="#666666" points="77.5,-74.25 0,-74.25 0,-55 77.5,-55 77.5,-74.25"/>
<text text-anchor="middle" x="38.75" y="-60.75" font-family="Helvetica,sans-Serif" font-size="10.00">Line::generate</text>
</a>
</g>
</g>
<!-- Node2 -->
<g id="Node000002" class="node">
<title>Node2</title>
<g id="a_Node000002"><a xlink:href="../../d0/d69/class_point_abbb39fe4de098ab24cd45d251656f080.html#abbb39fe4de098ab24cd45d251656f080" target="_top" xlink:title=" ">
<polygon fill="white" stroke="#666666" points="184.25,-130.25 113.5,-130.25 113.5,-111 184.25,-111 184.25,-130.25"/>
<text text-anchor="middle" x="148.88" y="-116.75" font-family="Helvetica,sans-Serif" font-size="10.00">Point::Get_x</text>
</a>
</g>
</g>
<!-- Node1&#45;&gt;Node2 -->
<g id="edge1_Node000001_Node000002" class="edge">
<title>Node1&#45;&gt;Node2</title>
<g id="a_edge1_Node000001_Node000002"><a xlink:title=" ">
<path fill="none" stroke="#63b8ff" d="M59.08,-74.64C75.51,-83.14 99.35,-95.49 118.2,-105.25"/>
<polygon fill="#63b8ff" stroke="#63b8ff" points="116.51,-108.32 127,-109.82 119.73,-102.11 116.51,-108.32"/>
</a>
</g>
</g>
<!-- Node3 -->
<g id="Node000003" class="node">
<title>Node3</title>
<g id="a_Node000003"><a xlink:href="../../d0/d69/class_point_aa0c14d8298c960cc61ebeb5fbe33653b.html#aa0c14d8298c960cc61ebeb5fbe33653b" target="_top" xlink:title=" ">
<polygon fill="white" stroke="#666666" points="184.25,-93.25 113.5,-93.25 113.5,-74 184.25,-74 184.25,-93.25"/>
<text text-anchor="middle" x="148.88" y="-79.75" font-family="Helvetica,sans-Serif" font-size="10.00">Point::Get_y</text>
</a>
</g>
</g>
<!-- Node1&#45;&gt;Node3 -->
<g id="edge2_Node000001_Node000003" class="edge">
<title>Node1&#45;&gt;Node3</title>
<g id="a_edge2_Node000001_Node000003"><a xlink:title=" ">
<path fill="none" stroke="#63b8ff" d="M77.87,-71.32C85.72,-72.7 94.07,-74.17 102.16,-75.59"/>
<polygon fill="#63b8ff" stroke="#63b8ff" points="101.4,-79.01 111.85,-77.3 102.61,-72.12 101.4,-79.01"/>
</a>
</g>
</g>
<!-- Node4 -->
<g id="Node000004" class="node">
<title>Node4</title>
<g id="a_Node000004"><a xlink:href="../../d0/d69/class_point_ac06dbc3b4797e5c498b58c81a70c02a9.html#ac06dbc3b4797e5c498b58c81a70c02a9" target="_top" xlink:title=" ">
<polygon fill="white" stroke="#666666" points="184.25,-56.25 113.5,-56.25 113.5,-37 184.25,-37 184.25,-56.25"/>
<text text-anchor="middle" x="148.88" y="-42.75" font-family="Helvetica,sans-Serif" font-size="10.00">Point::Get_z</text>
</a>
</g>
</g>
<!-- Node1&#45;&gt;Node4 -->
<g id="edge3_Node000001_Node000004" class="edge">
<title>Node1&#45;&gt;Node4</title>
<g id="a_edge3_Node000001_Node000004"><a xlink:title=" ">
<path fill="none" stroke="#63b8ff" d="M77.87,-58.28C85.72,-56.97 94.07,-55.58 102.16,-54.24"/>
<polygon fill="#63b8ff" stroke="#63b8ff" points="102.56,-57.72 111.85,-52.62 101.41,-50.81 102.56,-57.72"/>
</a>
</g>
</g>
<!-- Node5 -->
<g id="Node000005" class="node">
<title>Node5</title>
<g id="a_Node000005"><a xlink:href="../../d0/d69/class_point_a006470547553ab6cfaacfea891970f8a.html#a006470547553ab6cfaacfea891970f8a" target="_top" xlink:title=" ">
<polygon fill="white" stroke="#666666" points="181.25,-19.25 116.5,-19.25 116.5,0 181.25,0 181.25,-19.25"/>
<text text-anchor="middle" x="148.88" y="-5.75" font-family="Helvetica,sans-Serif" font-size="10.00">Point::Print</text>
</a>
</g>
</g>
<!-- Node1&#45;&gt;Node5 -->
<g id="edge4_Node000001_Node000005" class="edge">
<title>Node1&#45;&gt;Node5</title>
<g id="a_edge4_Node000001_Node000005"><a xlink:title=" ">
<path fill="none" stroke="#63b8ff" d="M59.58,-54.54C75.97,-46.2 99.48,-34.24 118.12,-24.76"/>
<polygon fill="#63b8ff" stroke="#63b8ff" points="119.49,-27.99 126.82,-20.34 116.32,-21.75 119.49,-27.99"/>
</a>
</g>
</g>
</g>
</svg>
