<?xml version="1.0" encoding="UTF-8" standalone="no"?>
<!DOCTYPE svg PUBLIC "-//W3C//DTD SVG 1.1//EN"
 "http://www.w3.org/Graphics/SVG/1.1/DTD/svg11.dtd">
<!-- Generated by graphviz version 12.2.1 (20241206.2353)
 -->
<!-- Title: include/Utilities.h Pages: 1 -->
<svg width="2559pt" height="149pt"
 viewBox="0.00 0.00 2558.62 149.00" xmlns="http://www.w3.org/2000/svg" xmlns:xlink="http://www.w3.org/1999/xlink">
<g id="graph0" class="graph" transform="scale(1 1) rotate(0) translate(4 145)">
<title>include/Utilities.h</title>
<!-- Node1 -->
<g id="Node000001" class="node">
<title>Node1</title>
<g id="a_Node000001"><a xlink:title=" ">
<polygon fill="#999999" stroke="#666666" points="1479,-141 1388,-141 1388,-121.75 1479,-121.75 1479,-141"/>
<text text-anchor="middle" x="1433.5" y="-127.5" font-family="Helvetica,sans-Serif" font-size="10.00">include/Utilities.h</text>
</a>
</g>
</g>
<!-- Node2 -->
<g id="Node000002" class="node">
<title>Node2</title>
<g id="a_Node000002"><a xlink:href="../../dd/dae/_timestep_8h.html" target="_top" xlink:title=" ">
<polygon fill="white" stroke="#666666" points="358.75,-80.12 260.25,-80.12 260.25,-60.88 358.75,-60.88 358.75,-80.12"/>
<text text-anchor="middle" x="309.5" y="-66.62" font-family="Helvetica,sans-Serif" font-size="10.00">include/Timestep.h</text>
</a>
</g>
</g>
<!-- Node1&#45;&gt;Node2 -->
<g id="edge1_Node000001_Node000002" class="edge">
<title>Node1&#45;&gt;Node2</title>
<g id="a_edge1_Node000001_Node000002"><a xlink:title=" ">
<path fill="none" stroke="#63b8ff" d="M1376.38,-130.52C1218.93,-130.35 765.59,-126.09 391.5,-85.75 379.86,-84.5 367.38,-82.61 355.75,-80.61"/>
<polygon fill="#63b8ff" stroke="#63b8ff" points="1376.12,-134.02 1386.12,-130.52 1376.12,-127.02 1376.12,-134.02"/>
</a>
</g>
</g>
<!-- Node6 -->
<g id="Node000006" class="node">
<title>Node6</title>
<g id="a_Node000006"><a xlink:href="../../d8/df4/_w_e_n_o2_d_8cpp.html" target="_top" xlink:title=" ">
<polygon fill="white" stroke="#666666" points="472.25,-19.25 376.75,-19.25 376.75,0 472.25,0 472.25,-19.25"/>
<text text-anchor="middle" x="424.5" y="-5.75" font-family="Helvetica,sans-Serif" font-size="10.00">src/WENO2D.cpp</text>
</a>
</g>
</g>
<!-- Node1&#45;&gt;Node6 -->
<g id="edge21_Node000001_Node000006" class="edge">
<title>Node1&#45;&gt;Node6</title>
<g id="a_edge21_Node000001_Node000006"><a xlink:title=" ">
<path fill="none" stroke="#63b8ff" d="M1376.3,-130C1167.61,-128.38 457.57,-120.31 424.5,-85.75 407.46,-67.94 415.58,-35.48 421,-19.71"/>
<polygon fill="#63b8ff" stroke="#63b8ff" points="1376.05,-133.5 1386.08,-130.08 1376.11,-126.5 1376.05,-133.5"/>
</a>
</g>
</g>
<!-- Node7 -->
<g id="Node000007" class="node">
<title>Node7</title>
<g id="a_Node000007"><a xlink:href="../../df/d43/_basic___functions_8cpp.html" target="_top" xlink:title=" ">
<polygon fill="white" stroke="#666666" points="557.5,-80.12 433.5,-80.12 433.5,-60.88 557.5,-60.88 557.5,-80.12"/>
<text text-anchor="middle" x="495.5" y="-66.62" font-family="Helvetica,sans-Serif" font-size="10.00">src/Basic_Functions.cpp</text>
</a>
</g>
</g>
<!-- Node1&#45;&gt;Node7 -->
<g id="edge6_Node000001_Node000007" class="edge">
<title>Node1&#45;&gt;Node7</title>
<g id="a_edge6_Node000001_Node000007"><a xlink:title=" ">
<path fill="none" stroke="#63b8ff" d="M1376.53,-130.32C1237.52,-129.58 870.15,-123.83 566.5,-85.75 556.4,-84.48 545.58,-82.59 535.51,-80.6"/>
<polygon fill="#63b8ff" stroke="#63b8ff" points="1376.17,-133.82 1386.19,-130.37 1376.2,-126.82 1376.17,-133.82"/>
</a>
</g>
</g>
<!-- Node8 -->
<g id="Node000008" class="node">
<title>Node8</title>
<g id="a_Node000008"><a xlink:href="../../d9/d1f/_error___estimate___update_8cpp.html" target="_top" xlink:title=" ">
<polygon fill="white" stroke="#666666" points="673.38,-85.75 575.62,-85.75 575.62,-55.25 673.38,-55.25 673.38,-85.75"/>
<text text-anchor="start" x="583.62" y="-72.25" font-family="Helvetica,sans-Serif" font-size="10.00">src/Error_Estimate</text>
<text text-anchor="middle" x="624.5" y="-61" font-family="Helvetica,sans-Serif" font-size="10.00">_Update.cpp</text>
</a>
</g>
</g>
<!-- Node1&#45;&gt;Node8 -->
<g id="edge7_Node000001_Node000008" class="edge">
<title>Node1&#45;&gt;Node8</title>
<g id="a_edge7_Node000001_Node000008"><a xlink:title=" ">
<path fill="none" stroke="#63b8ff" d="M1376.68,-130.51C1250.86,-130.03 939.54,-124.63 682.5,-85.75 679.63,-85.32 676.69,-84.81 673.74,-84.24"/>
<polygon fill="#63b8ff" stroke="#63b8ff" points="1376.39,-134 1386.4,-130.53 1376.41,-127 1376.39,-134"/>
</a>
</g>
</g>
<!-- Node9 -->
<g id="Node000009" class="node">
<title>Node9</title>
<g id="a_Node000009"><a xlink:href="../../de/d8d/_exit___boundary___conditions_8cpp.html" target="_top" xlink:title=" ">
<polygon fill="white" stroke="#666666" points="857.88,-80.12 691.12,-80.12 691.12,-60.88 857.88,-60.88 857.88,-80.12"/>
<text text-anchor="middle" x="774.5" y="-66.62" font-family="Helvetica,sans-Serif" font-size="10.00">src/Exit_Boundary_Conditions.cpp</text>
</a>
</g>
</g>
<!-- Node1&#45;&gt;Node9 -->
<g id="edge8_Node000001_Node000009" class="edge">
<title>Node1&#45;&gt;Node9</title>
<g id="a_edge8_Node000001_Node000009"><a xlink:title=" ">
<path fill="none" stroke="#63b8ff" d="M1376.53,-127.31C1274.19,-121.49 1052.54,-107.45 866.5,-85.75 854.3,-84.33 841.23,-82.49 828.89,-80.62"/>
<polygon fill="#63b8ff" stroke="#63b8ff" points="1376.13,-130.79 1386.31,-127.86 1376.52,-123.81 1376.13,-130.79"/>
</a>
</g>
</g>
<!-- Node10 -->
<g id="Node000010" class="node">
<title>Node10</title>
<g id="a_Node000010"><a xlink:href="../../d5/d2f/_far___field___boundary___condition_8cpp.html" target="_top" xlink:title=" ">
<polygon fill="white" stroke="#666666" points="995.25,-85.75 875.75,-85.75 875.75,-55.25 995.25,-55.25 995.25,-85.75"/>
<text text-anchor="start" x="883.75" y="-72.25" font-family="Helvetica,sans-Serif" font-size="10.00">src/Far_Field_Boundary</text>
<text text-anchor="middle" x="935.5" y="-61" font-family="Helvetica,sans-Serif" font-size="10.00">_Condition.cpp</text>
</a>
</g>
</g>
<!-- Node1&#45;&gt;Node10 -->
<g id="edge9_Node000001_Node000010" class="edge">
<title>Node1&#45;&gt;Node10</title>
<g id="a_edge9_Node000001_Node000010"><a xlink:title=" ">
<path fill="none" stroke="#63b8ff" d="M1376.22,-126.25C1293.74,-119.89 1136.88,-106.25 1004.5,-85.75 1001.6,-85.3 998.64,-84.81 995.65,-84.29"/>
<polygon fill="#63b8ff" stroke="#63b8ff" points="1375.85,-129.73 1386.08,-127 1376.38,-122.75 1375.85,-129.73"/>
</a>
</g>
</g>
<!-- Node11 -->
<g id="Node000011" class="node">
<title>Node11</title>
<g id="a_Node000011"><a xlink:href="../../d6/da5/_flux___jacobian_8cpp.html" target="_top" xlink:title=" ">
<polygon fill="white" stroke="#666666" points="1127.62,-80.12 1013.38,-80.12 1013.38,-60.88 1127.62,-60.88 1127.62,-80.12"/>
<text text-anchor="middle" x="1070.5" y="-66.62" font-family="Helvetica,sans-Serif" font-size="10.00">src/Flux_Jacobian.cpp</text>
</a>
</g>
</g>
<!-- Node1&#45;&gt;Node11 -->
<g id="edge10_Node000001_Node000011" class="edge">
<title>Node1&#45;&gt;Node11</title>
<g id="a_edge10_Node000001_Node000011"><a xlink:title=" ">
<path fill="none" stroke="#63b8ff" d="M1376.45,-122.9C1316.52,-114.79 1219.62,-100.95 1136.5,-85.75 1128.08,-84.21 1119.1,-82.39 1110.56,-80.57"/>
<polygon fill="#63b8ff" stroke="#63b8ff" points="1375.68,-126.33 1386.06,-124.19 1376.62,-119.39 1375.68,-126.33"/>
</a>
</g>
</g>
<!-- Node12 -->
<g id="Node000012" class="node">
<title>Node12</title>
<g id="a_Node000012"><a xlink:href="../../d8/d40/_grid___computations_8cpp.html" target="_top" xlink:title=" ">
<polygon fill="white" stroke="#666666" points="1281.12,-80.12 1145.88,-80.12 1145.88,-60.88 1281.12,-60.88 1281.12,-80.12"/>
<text text-anchor="middle" x="1213.5" y="-66.62" font-family="Helvetica,sans-Serif" font-size="10.00">src/Grid_Computations.cpp</text>
</a>
</g>
</g>
<!-- Node1&#45;&gt;Node12 -->
<g id="edge11_Node000001_Node000012" class="edge">
<title>Node1&#45;&gt;Node12</title>
<g id="a_edge11_Node000001_Node000012"><a xlink:title=" ">
<path fill="none" stroke="#63b8ff" d="M1388.63,-118.37C1346.79,-107.17 1285.32,-90.72 1247.43,-80.58"/>
<polygon fill="#63b8ff" stroke="#63b8ff" points="1387.58,-121.71 1398.15,-120.91 1389.39,-114.95 1387.58,-121.71"/>
</a>
</g>
</g>
<!-- Node13 -->
<g id="Node000013" class="node">
<title>Node13</title>
<g id="a_Node000013"><a xlink:href="../../d8/d24/_grid___computations___optimized_8cpp.html" target="_top" xlink:title=" ">
<polygon fill="white" stroke="#666666" points="1415.75,-85.75 1299.25,-85.75 1299.25,-55.25 1415.75,-55.25 1415.75,-85.75"/>
<text text-anchor="start" x="1307.25" y="-72.25" font-family="Helvetica,sans-Serif" font-size="10.00">src/Grid_Computations</text>
<text text-anchor="middle" x="1357.5" y="-61" font-family="Helvetica,sans-Serif" font-size="10.00">_Optimized.cpp</text>
</a>
</g>
</g>
<!-- Node1&#45;&gt;Node13 -->
<g id="edge12_Node000001_Node000013" class="edge">
<title>Node1&#45;&gt;Node13</title>
<g id="a_edge12_Node000001_Node000013"><a xlink:title=" ">
<path fill="none" stroke="#63b8ff" d="M1413.1,-114.57C1401.64,-105.7 1387.44,-94.69 1376.26,-86.03"/>
<polygon fill="#63b8ff" stroke="#63b8ff" points="1410.71,-117.15 1420.76,-120.51 1415,-111.62 1410.71,-117.15"/>
</a>
</g>
</g>
<!-- Node14 -->
<g id="Node000014" class="node">
<title>Node14</title>
<g id="a_Node000014"><a xlink:href="../../d4/d5d/_grid___refine___functions_8cpp.html" target="_top" xlink:title=" ">
<polygon fill="white" stroke="#666666" points="1585,-80.12 1434,-80.12 1434,-60.88 1585,-60.88 1585,-80.12"/>
<text text-anchor="middle" x="1509.5" y="-66.62" font-family="Helvetica,sans-Serif" font-size="10.00">src/Grid_Refine_Functions.cpp</text>
</a>
</g>
</g>
<!-- Node1&#45;&gt;Node14 -->
<g id="edge13_Node000001_Node000014" class="edge">
<title>Node1&#45;&gt;Node14</title>
<g id="a_edge13_Node000001_Node000014"><a xlink:title=" ">
<path fill="none" stroke="#63b8ff" d="M1453.99,-114.5C1468.05,-103.61 1486.2,-89.55 1497.85,-80.53"/>
<polygon fill="#63b8ff" stroke="#63b8ff" points="1452,-111.62 1446.24,-120.51 1456.29,-117.15 1452,-111.62"/>
</a>
</g>
</g>
<!-- Node15 -->
<g id="Node000015" class="node">
<title>Node15</title>
<g id="a_Node000015"><a xlink:href="../../dd/d15/_inlet___boundary___conditions_8cpp.html" target="_top" xlink:title=" ">
<polygon fill="white" stroke="#666666" points="1700.38,-85.75 1602.62,-85.75 1602.62,-55.25 1700.38,-55.25 1700.38,-85.75"/>
<text text-anchor="start" x="1610.62" y="-72.25" font-family="Helvetica,sans-Serif" font-size="10.00">src/Inlet_Boundary</text>
<text text-anchor="middle" x="1651.5" y="-61" font-family="Helvetica,sans-Serif" font-size="10.00">_Conditions.cpp</text>
</a>
</g>
</g>
<!-- Node1&#45;&gt;Node15 -->
<g id="edge14_Node000001_Node000015" class="edge">
<title>Node1&#45;&gt;Node15</title>
<g id="a_edge14_Node000001_Node000015"><a xlink:title=" ">
<path fill="none" stroke="#63b8ff" d="M1477.8,-118.41C1513.99,-108.64 1565.09,-94.84 1602.49,-84.74"/>
<polygon fill="#63b8ff" stroke="#63b8ff" points="1477.29,-114.92 1468.55,-120.91 1479.11,-121.68 1477.29,-114.92"/>
</a>
</g>
</g>
<!-- Node16 -->
<g id="Node000016" class="node">
<title>Node16</title>
<g id="a_Node000016"><a xlink:href="../../de/d88/_l_l_f_8cpp.html" target="_top" xlink:title=" ">
<polygon fill="white" stroke="#666666" points="1784.62,-80.12 1718.38,-80.12 1718.38,-60.88 1784.62,-60.88 1784.62,-80.12"/>
<text text-anchor="middle" x="1751.5" y="-66.62" font-family="Helvetica,sans-Serif" font-size="10.00">src/LLF.cpp</text>
</a>
</g>
</g>
<!-- Node1&#45;&gt;Node16 -->
<g id="edge15_Node000001_Node000016" class="edge">
<title>Node1&#45;&gt;Node16</title>
<g id="a_edge15_Node000001_Node000016"><a xlink:title=" ">
<path fill="none" stroke="#63b8ff" d="M1490.54,-123.97C1546.75,-117.01 1634.8,-104.32 1709.5,-85.75 1715.33,-84.3 1721.5,-82.41 1727.27,-80.49"/>
<polygon fill="#63b8ff" stroke="#63b8ff" points="1490.4,-120.47 1480.89,-125.15 1491.24,-127.41 1490.4,-120.47"/>
</a>
</g>
</g>
<!-- Node17 -->
<g id="Node000017" class="node">
<title>Node17</title>
<g id="a_Node000017"><a xlink:href="../../d0/da3/_limiters_8cpp.html" target="_top" xlink:title=" ">
<polygon fill="white" stroke="#666666" points="1888.38,-80.12 1802.62,-80.12 1802.62,-60.88 1888.38,-60.88 1888.38,-80.12"/>
<text text-anchor="middle" x="1845.5" y="-66.62" font-family="Helvetica,sans-Serif" font-size="10.00">src/Limiters.cpp</text>
</a>
</g>
</g>
<!-- Node1&#45;&gt;Node17 -->
<g id="edge16_Node000001_Node000017" class="edge">
<title>Node1&#45;&gt;Node17</title>
<g id="a_edge16_Node000001_Node000017"><a xlink:title=" ">
<path fill="none" stroke="#63b8ff" d="M1490.7,-125.85C1562.05,-119.61 1687.58,-106.72 1793.5,-85.75 1800.57,-84.35 1808.09,-82.5 1815.15,-80.61"/>
<polygon fill="#63b8ff" stroke="#63b8ff" points="1490.47,-122.35 1480.81,-126.7 1491.07,-129.33 1490.47,-122.35"/>
</a>
</g>
</g>
<!-- Node18 -->
<g id="Node000018" class="node">
<title>Node18</title>
<g id="a_Node000018"><a xlink:href="../../dd/d30/_m_o_v_e_r_s_8cpp.html" target="_top" xlink:title=" ">
<polygon fill="white" stroke="#666666" points="2000.88,-80.12 1906.12,-80.12 1906.12,-60.88 2000.88,-60.88 2000.88,-80.12"/>
<text text-anchor="middle" x="1953.5" y="-66.62" font-family="Helvetica,sans-Serif" font-size="10.00">src/MOVERS.cpp</text>
</a>
</g>
</g>
<!-- Node1&#45;&gt;Node18 -->
<g id="edge17_Node000001_Node000018" class="edge">
<title>Node1&#45;&gt;Node18</title>
<g id="a_edge17_Node000001_Node000018"><a xlink:title=" ">
<path fill="none" stroke="#63b8ff" d="M1490.57,-127.71C1578.49,-122.96 1752.15,-111.08 1897.5,-85.75 1905.31,-84.39 1913.63,-82.51 1921.4,-80.57"/>
<polygon fill="#63b8ff" stroke="#63b8ff" points="1490.57,-124.2 1480.77,-128.22 1490.94,-131.19 1490.57,-124.2"/>
</a>
</g>
</g>
<!-- Node19 -->
<g id="Node000019" class="node">
<title>Node19</title>
<g id="a_Node000019"><a xlink:href="../../d0/ded/_read___gmsh___file_8cpp.html" target="_top" xlink:title=" ">
<polygon fill="white" stroke="#666666" points="2146,-80.12 2019,-80.12 2019,-60.88 2146,-60.88 2146,-80.12"/>
<text text-anchor="middle" x="2082.5" y="-66.62" font-family="Helvetica,sans-Serif" font-size="10.00">src/Read_Gmsh_File.cpp</text>
</a>
</g>
</g>
<!-- Node1&#45;&gt;Node19 -->
<g id="edge18_Node000001_Node000019" class="edge">
<title>Node1&#45;&gt;Node19</title>
<g id="a_edge18_Node000001_Node000019"><a xlink:title=" ">
<path fill="none" stroke="#63b8ff" d="M1490.68,-128.13C1594.44,-123.58 1820.5,-111.43 2009.5,-85.75 2019.48,-84.39 2030.16,-82.54 2040.18,-80.62"/>
<polygon fill="#63b8ff" stroke="#63b8ff" points="1490.59,-124.64 1480.75,-128.56 1490.89,-131.63 1490.59,-124.64"/>
</a>
</g>
</g>
<!-- Node20 -->
<g id="Node000020" class="node">
<title>Node20</title>
<g id="a_Node000020"><a xlink:href="../../de/df0/_solver_8cpp.html" target="_top" xlink:title="This file contains the implementation of solvers for Euler equations and Navier&#45;Stokes equations.">
<polygon fill="white" stroke="#666666" points="2242.62,-80.12 2164.38,-80.12 2164.38,-60.88 2242.62,-60.88 2242.62,-80.12"/>
<text text-anchor="middle" x="2203.5" y="-66.62" font-family="Helvetica,sans-Serif" font-size="10.00">src/Solver.cpp</text>
</a>
</g>
</g>
<!-- Node1&#45;&gt;Node20 -->
<g id="edge19_Node000001_Node000020" class="edge">
<title>Node1&#45;&gt;Node20</title>
<g id="a_edge19_Node000001_Node000020"><a xlink:title=" ">
<path fill="none" stroke="#63b8ff" d="M1490.43,-131.22C1613.04,-132.08 1910.81,-129.05 2155.5,-85.75 2162.52,-84.51 2169.97,-82.6 2176.85,-80.58"/>
<polygon fill="#63b8ff" stroke="#63b8ff" points="1490.66,-127.72 1480.63,-131.13 1490.6,-134.72 1490.66,-127.72"/>
</a>
</g>
</g>
<!-- Node21 -->
<g id="Node000021" class="node">
<title>Node21</title>
<g id="a_Node000021"><a xlink:href="../../dc/d3a/src_2_utility___files_8cpp.html" target="_top" xlink:title=" ">
<polygon fill="white" stroke="#666666" points="2364,-80.12 2261,-80.12 2261,-60.88 2364,-60.88 2364,-80.12"/>
<text text-anchor="middle" x="2312.5" y="-66.62" font-family="Helvetica,sans-Serif" font-size="10.00">src/Utility_Files.cpp</text>
</a>
</g>
</g>
<!-- Node1&#45;&gt;Node21 -->
<g id="edge20_Node000001_Node000021" class="edge">
<title>Node1&#45;&gt;Node21</title>
<g id="a_edge20_Node000001_Node000021"><a xlink:title=" ">
<path fill="none" stroke="#63b8ff" d="M1490.6,-130.68C1624.33,-130.66 1967.97,-126.28 2251.5,-85.75 2260.33,-84.49 2269.76,-82.57 2278.5,-80.55"/>
<polygon fill="#63b8ff" stroke="#63b8ff" points="1490.96,-127.18 1480.96,-130.68 1490.96,-134.18 1490.96,-127.18"/>
</a>
</g>
</g>
<!-- Node22 -->
<g id="Node000022" class="node">
<title>Node22</title>
<g id="a_Node000022"><a xlink:href="../../df/d36/_wall___boundary___conditions_8cpp.html" target="_top" xlink:title=" ">
<polygon fill="white" stroke="#666666" points="2550.62,-80.12 2382.38,-80.12 2382.38,-60.88 2550.62,-60.88 2550.62,-80.12"/>
<text text-anchor="middle" x="2466.5" y="-66.62" font-family="Helvetica,sans-Serif" font-size="10.00">src/Wall_Boundary_Conditions.cpp</text>
</a>
</g>
</g>
<!-- Node1&#45;&gt;Node22 -->
<g id="edge22_Node000001_Node000022" class="edge">
<title>Node1&#45;&gt;Node22</title>
<g id="a_edge22_Node000001_Node000022"><a xlink:title=" ">
<path fill="none" stroke="#63b8ff" d="M1490.46,-129.74C1637.18,-127.67 2039.93,-119.13 2373.5,-85.75 2386.5,-84.45 2400.46,-82.57 2413.51,-80.6"/>
<polygon fill="#63b8ff" stroke="#63b8ff" points="1490.58,-126.24 1480.62,-129.88 1490.67,-133.24 1490.58,-126.24"/>
</a>
</g>
</g>
<!-- Node3 -->
<g id="Node000003" class="node">
<title>Node3</title>
<g id="a_Node000003"><a xlink:href="../../d7/db1/_net___flux_8cpp.html" target="_top" xlink:title=" ">
<polygon fill="white" stroke="#666666" points="91,-19.25 0,-19.25 0,0 91,0 91,-19.25"/>
<text text-anchor="middle" x="45.5" y="-5.75" font-family="Helvetica,sans-Serif" font-size="10.00">src/Net_Flux.cpp</text>
</a>
</g>
</g>
<!-- Node2&#45;&gt;Node3 -->
<g id="edge2_Node000002_Node000003" class="edge">
<title>Node2&#45;&gt;Node3</title>
<g id="a_edge2_Node000002_Node000003"><a xlink:title=" ">
<path fill="none" stroke="#63b8ff" d="M257.89,-57.99C207.66,-46.79 132.36,-30 86.22,-19.71"/>
<polygon fill="#63b8ff" stroke="#63b8ff" points="256.83,-61.34 267.35,-60.1 258.35,-54.51 256.83,-61.34"/>
</a>
</g>
</g>
<!-- Node4 -->
<g id="Node000004" class="node">
<title>Node4</title>
<g id="a_Node000004"><a xlink:href="../../d0/d64/_numerical___method_8cpp.html" target="_top" xlink:title=" ">
<polygon fill="white" stroke="#666666" points="242,-19.25 109,-19.25 109,0 242,0 242,-19.25"/>
<text text-anchor="middle" x="175.5" y="-5.75" font-family="Helvetica,sans-Serif" font-size="10.00">src/Numerical_Method.cpp</text>
</a>
</g>
</g>
<!-- Node2&#45;&gt;Node4 -->
<g id="edge3_Node000002_Node000004" class="edge">
<title>Node2&#45;&gt;Node4</title>
<g id="a_edge3_Node000002_Node000004"><a xlink:title=" ">
<path fill="none" stroke="#63b8ff" d="M278.65,-55.94C253.25,-44.79 217.97,-29.28 195.95,-19.61"/>
<polygon fill="#63b8ff" stroke="#63b8ff" points="276.91,-59 287.47,-59.82 279.72,-52.59 276.91,-59"/>
</a>
</g>
</g>
<!-- Node5 -->
<g id="Node000005" class="node">
<title>Node5</title>
<g id="a_Node000005"><a xlink:href="../../d8/dec/_time___step_8cpp.html" target="_top" xlink:title=" ">
<polygon fill="white" stroke="#666666" points="358.75,-19.25 260.25,-19.25 260.25,0 358.75,0 358.75,-19.25"/>
<text text-anchor="middle" x="309.5" y="-5.75" font-family="Helvetica,sans-Serif" font-size="10.00">src/Time_Step.cpp</text>
</a>
</g>
</g>
<!-- Node2&#45;&gt;Node5 -->
<g id="edge4_Node000002_Node000005" class="edge">
<title>Node2&#45;&gt;Node5</title>
<g id="a_edge4_Node000002_Node000005"><a xlink:title=" ">
<path fill="none" stroke="#63b8ff" d="M309.5,-49.07C309.5,-39.04 309.5,-27.46 309.5,-19.65"/>
<polygon fill="#63b8ff" stroke="#63b8ff" points="306,-49.04 309.5,-59.04 313,-49.04 306,-49.04"/>
</a>
</g>
</g>
<!-- Node2&#45;&gt;Node6 -->
<g id="edge5_Node000002_Node000006" class="edge">
<title>Node2&#45;&gt;Node6</title>
<g id="a_edge5_Node000002_Node000006"><a xlink:title=" ">
<path fill="none" stroke="#63b8ff" d="M337.19,-55.33C358.85,-44.24 388.31,-29.15 406.87,-19.65"/>
<polygon fill="#63b8ff" stroke="#63b8ff" points="335.62,-52.2 328.31,-59.87 338.81,-58.43 335.62,-52.2"/>
</a>
</g>
</g>
</g>
</svg>
