<?xml version="1.0" encoding="UTF-8" standalone="no"?>
<!DOCTYPE svg PUBLIC "-//W3C//DTD SVG 1.1//EN"
 "http://www.w3.org/Graphics/SVG/1.1/DTD/svg11.dtd">
<!-- Generated by graphviz version 12.2.1 (20241206.2353)
 -->
<!-- Title: CUDA_KERNELS/Grid_Cuda_Kernels.h Pages: 1 -->
<svg width="1445pt" height="149pt"
 viewBox="0.00 0.00 1444.62 149.00" xmlns="http://www.w3.org/2000/svg" xmlns:xlink="http://www.w3.org/1999/xlink">
<g id="graph0" class="graph" transform="scale(1 1) rotate(0) translate(4 145)">
<title>CUDA_KERNELS/Grid_Cuda_Kernels.h</title>
<!-- Node1 -->
<g id="Node000001" class="node">
<title>Node1</title>
<g id="a_Node000001"><a xlink:title=" ">
<polygon fill="#999999" stroke="#666666" points="690.38,-141 543.12,-141 543.12,-110.5 690.38,-110.5 690.38,-141"/>
<text text-anchor="start" x="551.12" y="-127.5" font-family="Helvetica,sans-Serif" font-size="10.00">CUDA_KERNELS/Grid_Cuda</text>
<text text-anchor="middle" x="616.75" y="-116.25" font-family="Helvetica,sans-Serif" font-size="10.00">_Kernels.h</text>
</a>
</g>
</g>
<!-- Node2 -->
<g id="Node000002" class="node">
<title>Node2</title>
<g id="a_Node000002"><a xlink:title=" ">
<polygon fill="#e0e0e0" stroke="#999999" points="601.12,-74.5 518.38,-74.5 518.38,-55.25 601.12,-55.25 601.12,-74.5"/>
<text text-anchor="middle" x="559.75" y="-61" font-family="Helvetica,sans-Serif" font-size="10.00">cuda_runtime.h</text>
</a>
</g>
</g>
<!-- Node1&#45;&gt;Node2 -->
<g id="edge1_Node000001_Node000002" class="edge">
<title>Node1&#45;&gt;Node2</title>
<g id="a_edge1_Node000001_Node000002"><a xlink:title=" ">
<path fill="none" stroke="#63b8ff" d="M602.66,-110.2C594.73,-102.01 584.79,-91.73 576.47,-83.14"/>
<polygon fill="#63b8ff" stroke="#63b8ff" points="579.06,-80.79 569.59,-76.04 574.03,-85.66 579.06,-80.79"/>
</a>
</g>
</g>
<!-- Node3 -->
<g id="Node000003" class="node">
<title>Node3</title>
<g id="a_Node000003"><a xlink:href="../../d6/dc2/definitions_8h.html" target="_top" xlink:title="Header file containing global constants, structures, and function declarations for the solver.">
<polygon fill="white" stroke="#666666" points="730.38,-74.5 619.12,-74.5 619.12,-55.25 730.38,-55.25 730.38,-74.5"/>
<text text-anchor="middle" x="674.75" y="-61" font-family="Helvetica,sans-Serif" font-size="10.00">../include/definitions.h</text>
</a>
</g>
</g>
<!-- Node1&#45;&gt;Node3 -->
<g id="edge2_Node000001_Node000003" class="edge">
<title>Node1&#45;&gt;Node3</title>
<g id="a_edge2_Node000001_Node000003"><a xlink:title=" ">
<path fill="none" stroke="#63b8ff" d="M631.09,-110.2C639.15,-102.01 649.27,-91.73 657.74,-83.14"/>
<polygon fill="#63b8ff" stroke="#63b8ff" points="660.22,-85.61 664.75,-76.03 655.24,-80.7 660.22,-85.61"/>
</a>
</g>
</g>
<!-- Node4 -->
<g id="Node000004" class="node">
<title>Node4</title>
<g id="a_Node000004"><a xlink:title=" ">
<polygon fill="#e0e0e0" stroke="#999999" points="53.5,-19.25 0,-19.25 0,0 53.5,0 53.5,-19.25"/>
<text text-anchor="middle" x="26.75" y="-5.75" font-family="Helvetica,sans-Serif" font-size="10.00">iostream</text>
</a>
</g>
</g>
<!-- Node3&#45;&gt;Node4 -->
<g id="edge3_Node000003_Node000004" class="edge">
<title>Node3&#45;&gt;Node4</title>
<g id="a_edge3_Node000003_Node000004"><a xlink:title=" ">
<path fill="none" stroke="#63b8ff" d="M618.76,-56.21C615.71,-55.86 612.7,-55.54 609.75,-55.25 370.54,-31.55 304.93,-55.84 64.98,-19.51"/>
<polygon fill="#63b8ff" stroke="#63b8ff" points="65.7,-16.08 55.28,-18.02 64.64,-22.99 65.7,-16.08"/>
</a>
</g>
</g>
<!-- Node5 -->
<g id="Node000005" class="node">
<title>Node5</title>
<g id="a_Node000005"><a xlink:title=" ">
<polygon fill="#e0e0e0" stroke="#999999" points="120.25,-19.25 71.25,-19.25 71.25,0 120.25,0 120.25,-19.25"/>
<text text-anchor="middle" x="95.75" y="-5.75" font-family="Helvetica,sans-Serif" font-size="10.00">fstream</text>
</a>
</g>
</g>
<!-- Node3&#45;&gt;Node5 -->
<g id="edge4_Node000003_Node000005" class="edge">
<title>Node3&#45;&gt;Node5</title>
<g id="a_edge4_Node000003_Node000005"><a xlink:title=" ">
<path fill="none" stroke="#63b8ff" d="M618.75,-56.24C615.71,-55.89 612.69,-55.56 609.75,-55.25 400.16,-33.52 342.18,-53.78 131.63,-19.45"/>
<polygon fill="#63b8ff" stroke="#63b8ff" points="132.44,-16.04 122.01,-17.86 131.3,-22.94 132.44,-16.04"/>
</a>
</g>
</g>
<!-- Node6 -->
<g id="Node000006" class="node">
<title>Node6</title>
<g id="a_Node000006"><a xlink:title=" ">
<polygon fill="#e0e0e0" stroke="#999999" points="181.25,-19.25 138.25,-19.25 138.25,0 181.25,0 181.25,-19.25"/>
<text text-anchor="middle" x="159.75" y="-5.75" font-family="Helvetica,sans-Serif" font-size="10.00">vector</text>
</a>
</g>
</g>
<!-- Node3&#45;&gt;Node6 -->
<g id="edge5_Node000003_Node000006" class="edge">
<title>Node3&#45;&gt;Node6</title>
<g id="a_edge5_Node000003_Node000006"><a xlink:title=" ">
<path fill="none" stroke="#63b8ff" d="M618.75,-56.28C615.71,-55.92 612.69,-55.57 609.75,-55.25 427.58,-35.35 376.66,-51.77 192.8,-19.26"/>
<polygon fill="#63b8ff" stroke="#63b8ff" points="193.6,-15.85 183.14,-17.53 192.36,-22.74 193.6,-15.85"/>
</a>
</g>
</g>
<!-- Node7 -->
<g id="Node000007" class="node">
<title>Node7</title>
<g id="a_Node000007"><a xlink:title=" ">
<polygon fill="#e0e0e0" stroke="#999999" points="239.75,-19.25 199.75,-19.25 199.75,0 239.75,0 239.75,-19.25"/>
<text text-anchor="middle" x="219.75" y="-5.75" font-family="Helvetica,sans-Serif" font-size="10.00">string</text>
</a>
</g>
</g>
<!-- Node3&#45;&gt;Node7 -->
<g id="edge6_Node000003_Node000007" class="edge">
<title>Node3&#45;&gt;Node7</title>
<g id="a_edge6_Node000003_Node000007"><a xlink:title=" ">
<path fill="none" stroke="#63b8ff" d="M618.74,-56.33C615.7,-55.95 612.69,-55.59 609.75,-55.25 453.18,-37.06 408.93,-49.77 251.27,-19.4"/>
<polygon fill="#63b8ff" stroke="#63b8ff" points="252.2,-16.01 241.71,-17.53 250.85,-22.88 252.2,-16.01"/>
</a>
</g>
</g>
<!-- Node8 -->
<g id="Node000008" class="node">
<title>Node8</title>
<g id="a_Node000008"><a xlink:title=" ">
<polygon fill="#e0e0e0" stroke="#999999" points="301.25,-19.25 258.25,-19.25 258.25,0 301.25,0 301.25,-19.25"/>
<text text-anchor="middle" x="279.75" y="-5.75" font-family="Helvetica,sans-Serif" font-size="10.00">cmath</text>
</a>
</g>
</g>
<!-- Node3&#45;&gt;Node8 -->
<g id="edge7_Node000003_Node000008" class="edge">
<title>Node3&#45;&gt;Node8</title>
<g id="a_edge7_Node000003_Node000008"><a xlink:title=" ">
<path fill="none" stroke="#63b8ff" d="M618.74,-56.4C615.7,-56.01 612.69,-55.62 609.75,-55.25 480.59,-38.91 444.03,-44.91 312.95,-19.39"/>
<polygon fill="#63b8ff" stroke="#63b8ff" points="313.64,-15.96 303.15,-17.46 312.28,-22.83 313.64,-15.96"/>
</a>
</g>
</g>
<!-- Node9 -->
<g id="Node000009" class="node">
<title>Node9</title>
<g id="a_Node000009"><a xlink:title=" ">
<polygon fill="#e0e0e0" stroke="#999999" points="370,-19.25 319.5,-19.25 319.5,0 370,0 370,-19.25"/>
<text text-anchor="middle" x="344.75" y="-5.75" font-family="Helvetica,sans-Serif" font-size="10.00">typeinfo</text>
</a>
</g>
</g>
<!-- Node3&#45;&gt;Node9 -->
<g id="edge8_Node000003_Node000009" class="edge">
<title>Node3&#45;&gt;Node9</title>
<g id="a_edge8_Node000003_Node000009"><a xlink:title=" ">
<path fill="none" stroke="#63b8ff" d="M618.92,-56.13C551,-46.6 439.14,-30.53 381.43,-19.58"/>
<polygon fill="#63b8ff" stroke="#63b8ff" points="382.28,-16.18 371.79,-17.69 380.93,-23.05 382.28,-16.18"/>
</a>
</g>
</g>
<!-- Node10 -->
<g id="Node000010" class="node">
<title>Node10</title>
<g id="a_Node000010"><a xlink:title=" ">
<polygon fill="#e0e0e0" stroke="#999999" points="437.62,-19.25 387.88,-19.25 387.88,0 437.62,0 437.62,-19.25"/>
<text text-anchor="middle" x="412.75" y="-5.75" font-family="Helvetica,sans-Serif" font-size="10.00">iomanip</text>
</a>
</g>
</g>
<!-- Node3&#45;&gt;Node10 -->
<g id="edge9_Node000003_Node000010" class="edge">
<title>Node3&#45;&gt;Node10</title>
<g id="a_edge9_Node000003_Node000010"><a xlink:title=" ">
<path fill="none" stroke="#63b8ff" d="M624.32,-54.83C580.45,-46.78 514.92,-34.3 448.98,-19.65"/>
<polygon fill="#63b8ff" stroke="#63b8ff" points="449.96,-16.29 439.44,-17.52 448.43,-23.12 449.96,-16.29"/>
</a>
</g>
</g>
<!-- Node11 -->
<g id="Node000011" class="node">
<title>Node11</title>
<g id="a_Node000011"><a xlink:title=" ">
<polygon fill="#e0e0e0" stroke="#999999" points="497.88,-19.25 455.62,-19.25 455.62,0 497.88,0 497.88,-19.25"/>
<text text-anchor="middle" x="476.75" y="-5.75" font-family="Helvetica,sans-Serif" font-size="10.00">cstdio</text>
</a>
</g>
</g>
<!-- Node3&#45;&gt;Node11 -->
<g id="edge10_Node000003_Node000011" class="edge">
<title>Node3&#45;&gt;Node11</title>
<g id="a_edge10_Node000003_Node000011"><a xlink:title=" ">
<path fill="none" stroke="#63b8ff" d="M639.62,-54.77C607.92,-46.5 559.72,-33.8 509.46,-19.96"/>
<polygon fill="#63b8ff" stroke="#63b8ff" points="510.4,-16.59 499.82,-17.3 508.53,-23.34 510.4,-16.59"/>
</a>
</g>
</g>
<!-- Node12 -->
<g id="Node000012" class="node">
<title>Node12</title>
<g id="a_Node000012"><a xlink:title=" ">
<polygon fill="#e0e0e0" stroke="#999999" points="560,-19.25 515.5,-19.25 515.5,0 560,0 560,-19.25"/>
<text text-anchor="middle" x="537.75" y="-5.75" font-family="Helvetica,sans-Serif" font-size="10.00">cstdlib</text>
</a>
</g>
</g>
<!-- Node3&#45;&gt;Node12 -->
<g id="edge11_Node000003_Node000012" class="edge">
<title>Node3&#45;&gt;Node12</title>
<g id="a_edge11_Node000003_Node000012"><a xlink:title=" ">
<path fill="none" stroke="#63b8ff" d="M651.51,-54.84C629.3,-46.21 595.6,-33.11 570.63,-23.41"/>
<polygon fill="#63b8ff" stroke="#63b8ff" points="572.19,-20.26 561.6,-19.9 569.66,-26.78 572.19,-20.26"/>
</a>
</g>
</g>
<!-- Node13 -->
<g id="Node000013" class="node">
<title>Node13</title>
<g id="a_Node000013"><a xlink:title=" ">
<polygon fill="#e0e0e0" stroke="#999999" points="633.62,-19.25 577.88,-19.25 577.88,0 633.62,0 633.62,-19.25"/>
<text text-anchor="middle" x="605.75" y="-5.75" font-family="Helvetica,sans-Serif" font-size="10.00">algorithm</text>
</a>
</g>
</g>
<!-- Node3&#45;&gt;Node13 -->
<g id="edge12_Node000003_Node000013" class="edge">
<title>Node3&#45;&gt;Node13</title>
<g id="a_edge12_Node000003_Node000013"><a xlink:title=" ">
<path fill="none" stroke="#63b8ff" d="M663.05,-54.84C652.97,-47.07 638.21,-35.67 626.19,-26.4"/>
<polygon fill="#63b8ff" stroke="#63b8ff" points="628.54,-23.79 618.48,-20.45 624.26,-29.33 628.54,-23.79"/>
</a>
</g>
</g>
<!-- Node14 -->
<g id="Node000014" class="node">
<title>Node14</title>
<g id="a_Node000014"><a xlink:title=" ">
<polygon fill="#e0e0e0" stroke="#999999" points="697.38,-19.25 652.12,-19.25 652.12,0 697.38,0 697.38,-19.25"/>
<text text-anchor="middle" x="674.75" y="-5.75" font-family="Helvetica,sans-Serif" font-size="10.00">chrono</text>
</a>
</g>
</g>
<!-- Node3&#45;&gt;Node14 -->
<g id="edge13_Node000003_Node000014" class="edge">
<title>Node3&#45;&gt;Node14</title>
<g id="a_edge13_Node000003_Node000014"><a xlink:title=" ">
<path fill="none" stroke="#63b8ff" d="M674.75,-55.08C674.75,-48.57 674.75,-39.42 674.75,-31.12"/>
<polygon fill="#63b8ff" stroke="#63b8ff" points="678.25,-31.12 674.75,-21.12 671.25,-31.12 678.25,-31.12"/>
</a>
</g>
</g>
<!-- Node15 -->
<g id="Node000015" class="node">
<title>Node15</title>
<g id="a_Node000015"><a xlink:title=" ">
<polygon fill="#e0e0e0" stroke="#999999" points="755.75,-19.25 715.75,-19.25 715.75,0 755.75,0 755.75,-19.25"/>
<text text-anchor="middle" x="735.75" y="-5.75" font-family="Helvetica,sans-Serif" font-size="10.00">cfloat</text>
</a>
</g>
</g>
<!-- Node3&#45;&gt;Node15 -->
<g id="edge14_Node000003_Node000015" class="edge">
<title>Node3&#45;&gt;Node15</title>
<g id="a_edge14_Node000003_Node000015"><a xlink:title=" ">
<path fill="none" stroke="#63b8ff" d="M685.1,-54.84C693.83,-47.22 706.54,-36.12 717.05,-26.95"/>
<polygon fill="#63b8ff" stroke="#63b8ff" points="719.18,-29.73 724.41,-20.52 714.58,-24.46 719.18,-29.73"/>
</a>
</g>
</g>
<!-- Node16 -->
<g id="Node000016" class="node">
<title>Node16</title>
<g id="a_Node000016"><a xlink:title=" ">
<polygon fill="#e0e0e0" stroke="#999999" points="835.25,-19.25 774.25,-19.25 774.25,0 835.25,0 835.25,-19.25"/>
<text text-anchor="middle" x="804.75" y="-5.75" font-family="Helvetica,sans-Serif" font-size="10.00">filesystem</text>
</a>
</g>
</g>
<!-- Node3&#45;&gt;Node16 -->
<g id="edge15_Node000003_Node000016" class="edge">
<title>Node3&#45;&gt;Node16</title>
<g id="a_edge15_Node000003_Node000016"><a xlink:title=" ">
<path fill="none" stroke="#63b8ff" d="M696.8,-54.84C717.44,-46.39 748.53,-33.65 772.05,-24.02"/>
<polygon fill="#63b8ff" stroke="#63b8ff" points="773.26,-27.31 781.19,-20.28 770.61,-20.83 773.26,-27.31"/>
</a>
</g>
</g>
<!-- Node17 -->
<g id="Node000017" class="node">
<title>Node17</title>
<g id="a_Node000017"><a xlink:title=" ">
<polygon fill="#e0e0e0" stroke="#999999" points="888.12,-19.25 853.38,-19.25 853.38,0 888.12,0 888.12,-19.25"/>
<text text-anchor="middle" x="870.75" y="-5.75" font-family="Helvetica,sans-Serif" font-size="10.00">map</text>
</a>
</g>
</g>
<!-- Node3&#45;&gt;Node17 -->
<g id="edge16_Node000003_Node000017" class="edge">
<title>Node3&#45;&gt;Node17</title>
<g id="a_edge16_Node000003_Node000017"><a xlink:title=" ">
<path fill="none" stroke="#63b8ff" d="M712.08,-54.8C744.29,-46.81 792.28,-34.53 841.94,-19.96"/>
<polygon fill="#63b8ff" stroke="#63b8ff" points="842.85,-23.34 851.44,-17.14 840.86,-16.63 842.85,-23.34"/>
</a>
</g>
</g>
<!-- Node18 -->
<g id="Node000018" class="node">
<title>Node18</title>
<g id="a_Node000018"><a xlink:title=" ">
<polygon fill="#e0e0e0" stroke="#999999" points="965.12,-19.25 906.38,-19.25 906.38,0 965.12,0 965.12,-19.25"/>
<text text-anchor="middle" x="935.75" y="-5.75" font-family="Helvetica,sans-Serif" font-size="10.00">stdexcept</text>
</a>
</g>
</g>
<!-- Node3&#45;&gt;Node18 -->
<g id="edge17_Node000003_Node000018" class="edge">
<title>Node3&#45;&gt;Node18</title>
<g id="a_edge17_Node000003_Node000018"><a xlink:title=" ">
<path fill="none" stroke="#63b8ff" d="M721.15,-54.82C763.73,-46.45 828.85,-33.49 894.91,-19.6"/>
<polygon fill="#63b8ff" stroke="#63b8ff" points="895.41,-23.08 904.47,-17.59 893.96,-16.23 895.41,-23.08"/>
</a>
</g>
</g>
<!-- Node19 -->
<g id="Node000019" class="node">
<title>Node19</title>
<g id="a_Node000019"><a xlink:title=" ">
<polygon fill="#e0e0e0" stroke="#999999" points="1034.38,-19.25 983.12,-19.25 983.12,0 1034.38,0 1034.38,-19.25"/>
<text text-anchor="middle" x="1008.75" y="-5.75" font-family="Helvetica,sans-Serif" font-size="10.00">sstream</text>
</a>
</g>
</g>
<!-- Node3&#45;&gt;Node19 -->
<g id="edge18_Node000003_Node000019" class="edge">
<title>Node3&#45;&gt;Node19</title>
<g id="a_edge18_Node000003_Node000019"><a xlink:title=" ">
<path fill="none" stroke="#63b8ff" d="M730.68,-57.12C788.54,-49.77 881.73,-36.95 971.59,-19.51"/>
<polygon fill="#63b8ff" stroke="#63b8ff" points="972.19,-22.96 981.33,-17.59 970.84,-16.09 972.19,-22.96"/>
</a>
</g>
</g>
<!-- Node20 -->
<g id="Node000020" class="node">
<title>Node20</title>
<g id="a_Node000020"><a xlink:title=" ">
<polygon fill="#e0e0e0" stroke="#999999" points="1135.12,-19.25 1052.38,-19.25 1052.38,0 1135.12,0 1135.12,-19.25"/>
<text text-anchor="middle" x="1093.75" y="-5.75" font-family="Helvetica,sans-Serif" font-size="10.00">unordered_map</text>
</a>
</g>
</g>
<!-- Node3&#45;&gt;Node20 -->
<g id="edge19_Node000003_Node000020" class="edge">
<title>Node3&#45;&gt;Node20</title>
<g id="a_edge19_Node000003_Node000020"><a xlink:title=" ">
<path fill="none" stroke="#63b8ff" d="M730.82,-57.99C800.97,-50.42 925.07,-36.38 1040.86,-19.61"/>
<polygon fill="#63b8ff" stroke="#63b8ff" points="1041.15,-23.11 1050.54,-18.2 1040.13,-16.18 1041.15,-23.11"/>
</a>
</g>
</g>
<!-- Node21 -->
<g id="Node000021" class="node">
<title>Node21</title>
<g id="a_Node000021"><a xlink:title=" ">
<polygon fill="#e0e0e0" stroke="#999999" points="1230.5,-19.25 1153,-19.25 1153,0 1230.5,0 1230.5,-19.25"/>
<text text-anchor="middle" x="1191.75" y="-5.75" font-family="Helvetica,sans-Serif" font-size="10.00">unordered_set</text>
</a>
</g>
</g>
<!-- Node3&#45;&gt;Node21 -->
<g id="edge20_Node000003_Node000021" class="edge">
<title>Node3&#45;&gt;Node21</title>
<g id="a_edge20_Node000003_Node000021"><a xlink:title=" ">
<path fill="none" stroke="#63b8ff" d="M730.87,-60.05C816.97,-53.84 987.05,-40.28 1141.66,-19.42"/>
<polygon fill="#63b8ff" stroke="#63b8ff" points="1141.83,-22.93 1151.26,-18.11 1140.88,-16 1141.83,-22.93"/>
</a>
</g>
</g>
<!-- Node22 -->
<g id="Node000022" class="node">
<title>Node22</title>
<g id="a_Node000022"><a xlink:title=" ">
<polygon fill="#e0e0e0" stroke="#999999" points="1285.25,-19.25 1248.25,-19.25 1248.25,0 1285.25,0 1285.25,-19.25"/>
<text text-anchor="middle" x="1266.75" y="-5.75" font-family="Helvetica,sans-Serif" font-size="10.00">tuple</text>
</a>
</g>
</g>
<!-- Node3&#45;&gt;Node22 -->
<g id="edge21_Node000003_Node000022" class="edge">
<title>Node3&#45;&gt;Node22</title>
<g id="a_edge21_Node000003_Node000022"><a xlink:title=" ">
<path fill="none" stroke="#63b8ff" d="M730.66,-63.7C830.77,-62.48 1047.16,-55.66 1236.72,-19.42"/>
<polygon fill="#63b8ff" stroke="#63b8ff" points="1237.38,-22.86 1246.53,-17.51 1236.04,-15.99 1237.38,-22.86"/>
</a>
</g>
</g>
<!-- Node23 -->
<g id="Node000023" class="node">
<title>Node23</title>
<g id="a_Node000023"><a xlink:title=" ">
<polygon fill="#e0e0e0" stroke="#999999" points="1332.5,-19.25 1303,-19.25 1303,0 1332.5,0 1332.5,-19.25"/>
<text text-anchor="middle" x="1317.75" y="-5.75" font-family="Helvetica,sans-Serif" font-size="10.00">set</text>
</a>
</g>
</g>
<!-- Node3&#45;&gt;Node23 -->
<g id="edge22_Node000003_Node000023" class="edge">
<title>Node3&#45;&gt;Node23</title>
<g id="a_edge22_Node000003_Node000023"><a xlink:title=" ">
<path fill="none" stroke="#63b8ff" d="M730.68,-61.9C858.22,-57.08 1168.46,-43.45 1291.62,-19.3"/>
<polygon fill="#63b8ff" stroke="#63b8ff" points="1292.04,-22.78 1301.11,-17.31 1290.61,-15.93 1292.04,-22.78"/>
</a>
</g>
</g>
<!-- Node24 -->
<g id="Node000024" class="node">
<title>Node24</title>
<g id="a_Node000024"><a xlink:title=" ">
<polygon fill="#e0e0e0" stroke="#999999" points="1436.62,-19.25 1350.88,-19.25 1350.88,0 1436.62,0 1436.62,-19.25"/>
<text text-anchor="middle" x="1393.75" y="-5.75" font-family="Helvetica,sans-Serif" font-size="10.00">boost/regex.hpp</text>
</a>
</g>
</g>
<!-- Node3&#45;&gt;Node24 -->
<g id="edge23_Node000003_Node000024" class="edge">
<title>Node3&#45;&gt;Node24</title>
<g id="a_edge23_Node000003_Node000024"><a xlink:title=" ">
<path fill="none" stroke="#63b8ff" d="M730.7,-61.98C843.69,-57.74 1107.41,-45.84 1339.03,-19.45"/>
<polygon fill="#63b8ff" stroke="#63b8ff" points="1339.35,-22.94 1348.88,-18.32 1338.54,-15.98 1339.35,-22.94"/>
</a>
</g>
</g>
</g>
</svg>
