<?xml version="1.0" encoding="UTF-8" standalone="no"?>
<!DOCTYPE svg PUBLIC "-//W3C//DTD SVG 1.1//EN"
 "http://www.w3.org/Graphics/SVG/1.1/DTD/svg11.dtd">
<!-- Generated by graphviz version 12.2.1 (20241206.2353)
 -->
<!-- Title: File_Name Pages: 1 -->
<svg width="771pt" height="878pt"
 viewBox="0.00 0.00 770.75 877.75" xmlns="http://www.w3.org/2000/svg" xmlns:xlink="http://www.w3.org/1999/xlink">
<g id="graph0" class="graph" transform="scale(1 1) rotate(0) translate(4 873.75)">
<title>File_Name</title>
<!-- Node1 -->
<g id="Node000001" class="node">
<title>Node1</title>
<g id="a_Node000001"><a xlink:title=" ">
<polygon fill="#999999" stroke="#666666" points="762.75,-473.25 699.5,-473.25 699.5,-454 762.75,-454 762.75,-473.25"/>
<text text-anchor="middle" x="731.12" y="-459.75" font-family="Helvetica,sans-Serif" font-size="10.00">File_Name</text>
</a>
</g>
</g>
<!-- Node2 -->
<g id="Node000002" class="node">
<title>Node2</title>
<g id="a_Node000002"><a xlink:href="../../d0/d3f/_channel___flow_8cpp_a986df1d2277d1fc7e22408557f29c135.html#a986df1d2277d1fc7e22408557f29c135" target="_top" xlink:title=" ">
<polygon fill="white" stroke="#666666" points="482.5,-625.25 404.25,-625.25 404.25,-606 482.5,-606 482.5,-625.25"/>
<text text-anchor="middle" x="443.38" y="-611.75" font-family="Helvetica,sans-Serif" font-size="10.00">Channel_Flow</text>
</a>
</g>
</g>
<!-- Node1&#45;&gt;Node2 -->
<g id="edge1_Node000001_Node000002" class="edge">
<title>Node1&#45;&gt;Node2</title>
<g id="a_edge1_Node000001_Node000002"><a xlink:title=" ">
<path fill="none" stroke="#63b8ff" d="M725.1,-484.65C717.17,-512.87 698.87,-562.27 663.5,-586.62 609.45,-623.84 529.84,-624.28 482.93,-620.46"/>
<polygon fill="#63b8ff" stroke="#63b8ff" points="728.45,-485.69 727.58,-475.13 721.67,-483.92 728.45,-485.69"/>
</a>
</g>
</g>
<!-- Node3 -->
<g id="Node000003" class="node">
<title>Node3</title>
<g id="a_Node000003"><a xlink:href="../../dd/dbf/_euler___python___wrapper_8cpp_ac5ccb50c3be270f798e054dd36987442.html#ac5ccb50c3be270f798e054dd36987442" target="_top" xlink:title=" ">
<polygon fill="white" stroke="#666666" points="185.75,-437.25 73,-437.25 73,-418 185.75,-418 185.75,-437.25"/>
<text text-anchor="middle" x="129.38" y="-423.75" font-family="Helvetica,sans-Serif" font-size="10.00">PYBIND11_MODULE</text>
</a>
</g>
</g>
<!-- Node1&#45;&gt;Node3 -->
<g id="edge19_Node000001_Node000003" class="edge">
<title>Node1&#45;&gt;Node3</title>
<g id="a_edge19_Node000001_Node000003"><a xlink:title=" ">
<path fill="none" stroke="#63b8ff" d="M727.79,-485.01C721.14,-541.83 700.15,-694.36 663.5,-726.62 626.61,-759.1 260.97,-778.24 221.75,-748.62 169.27,-709 138.01,-487.25 131.61,-437.52"/>
<polygon fill="#63b8ff" stroke="#63b8ff" points="731.27,-485.42 728.92,-475.09 724.31,-484.63 731.27,-485.42"/>
</a>
</g>
</g>
<!-- Node7 -->
<g id="Node000007" class="node">
<title>Node7</title>
<g id="a_Node000007"><a xlink:href="../../d8/d62/_ellinga___test_case_8cpp_ae7167da7e4a13ec20ea77342a492b6ee.html#ae7167da7e4a13ec20ea77342a492b6ee" target="_top" xlink:title=" ">
<polygon fill="white" stroke="#666666" points="334.12,-739.25 239.38,-739.25 239.38,-720 334.12,-720 334.12,-739.25"/>
<text text-anchor="middle" x="286.75" y="-725.75" font-family="Helvetica,sans-Serif" font-size="10.00">Ellinga_Carbuncle</text>
</a>
</g>
</g>
<!-- Node1&#45;&gt;Node7 -->
<g id="edge7_Node000001_Node000007" class="edge">
<title>Node1&#45;&gt;Node7</title>
<g id="a_edge7_Node000001_Node000007"><a xlink:title=" ">
<path fill="none" stroke="#63b8ff" d="M727.12,-484.64C719.24,-536.58 696.32,-668.77 663.5,-696.62 615,-737.78 423.76,-735.48 334.32,-731.97"/>
<polygon fill="#63b8ff" stroke="#63b8ff" points="730.54,-485.44 728.54,-475.03 723.61,-484.42 730.54,-485.44"/>
</a>
</g>
</g>
<!-- Node8 -->
<g id="Node000008" class="node">
<title>Node8</title>
<g id="a_Node000008"><a xlink:href="../../de/d81/_flat___plate___boundary___layer_8cpp_a787b29de4053181d716a19e7c4c9b705.html#a787b29de4053181d716a19e7c4c9b705" target="_top" xlink:title=" ">
<polygon fill="white" stroke="#666666" points="496.75,-295.88 390,-295.88 390,-265.38 496.75,-265.38 496.75,-295.88"/>
<text text-anchor="start" x="398" y="-282.38" font-family="Helvetica,sans-Serif" font-size="10.00">Flat_Plate_Boundary</text>
<text text-anchor="middle" x="443.38" y="-271.12" font-family="Helvetica,sans-Serif" font-size="10.00">_Layer</text>
</a>
</g>
</g>
<!-- Node1&#45;&gt;Node8 -->
<g id="edge9_Node000001_Node000008" class="edge">
<title>Node1&#45;&gt;Node8</title>
<g id="a_edge9_Node000001_Node000008"><a xlink:title=" ">
<path fill="none" stroke="#63b8ff" d="M722.62,-443.02C712.71,-418.57 692.99,-378.18 663.5,-354.62 614.87,-315.79 544.8,-296.85 497.08,-287.95"/>
<polygon fill="#63b8ff" stroke="#63b8ff" points="719.29,-444.11 726.15,-452.18 725.82,-441.59 719.29,-444.11"/>
</a>
</g>
</g>
<!-- Node9 -->
<g id="Node000009" class="node">
<title>Node9</title>
<g id="a_Node000009"><a xlink:href="../../da/d4b/_flow___over___bump_8cpp_abaa8184c0dd8aa3fdc37d585f0a7d0cc.html#abaa8184c0dd8aa3fdc37d585f0a7d0cc" target="_top" xlink:title=" ">
<polygon fill="white" stroke="#666666" points="490.38,-209.25 396.38,-209.25 396.38,-190 490.38,-190 490.38,-209.25"/>
<text text-anchor="middle" x="443.38" y="-195.75" font-family="Helvetica,sans-Serif" font-size="10.00">Flow_Over_Bump</text>
</a>
</g>
</g>
<!-- Node1&#45;&gt;Node9 -->
<g id="edge11_Node000001_Node000009" class="edge">
<title>Node1&#45;&gt;Node9</title>
<g id="a_edge11_Node000001_Node000009"><a xlink:title=" ">
<path fill="none" stroke="#63b8ff" d="M729.8,-442.24C727.94,-399.97 717.59,-305.43 663.5,-254.62 650.87,-242.76 551.22,-221.06 490.74,-208.76"/>
<polygon fill="#63b8ff" stroke="#63b8ff" points="726.29,-442.17 730.09,-452.06 733.29,-441.96 726.29,-442.17"/>
</a>
</g>
</g>
<!-- Node10 -->
<g id="Node000010" class="node">
<title>Node10</title>
<g id="a_Node000010"><a xlink:href="../../dc/d8c/_forward___facing___step_8cpp_a5f68d17ee33caeda5da8c4270441108c.html#a5f68d17ee33caeda5da8c4270441108c" target="_top" xlink:title=" ">
<polygon fill="white" stroke="#666666" points="499,-588.25 387.75,-588.25 387.75,-569 499,-569 499,-588.25"/>
<text text-anchor="middle" x="443.38" y="-574.75" font-family="Helvetica,sans-Serif" font-size="10.00">Forward_Facing_Step</text>
</a>
</g>
</g>
<!-- Node1&#45;&gt;Node10 -->
<g id="edge14_Node000001_Node000010" class="edge">
<title>Node1&#45;&gt;Node10</title>
<g id="a_edge14_Node000001_Node000010"><a xlink:title=" ">
<path fill="none" stroke="#63b8ff" d="M722.1,-484.01C712.07,-506.51 692.59,-541.77 663.5,-558.62 613.42,-587.64 545.87,-589.32 499.07,-585.85"/>
<polygon fill="#63b8ff" stroke="#63b8ff" points="725.26,-485.54 725.9,-474.97 718.8,-482.83 725.26,-485.54"/>
</a>
</g>
</g>
<!-- Node11 -->
<g id="Node000011" class="node">
<title>Node11</title>
<g id="a_Node000011"><a xlink:href="../../de/dc4/_o_e_d_8cpp_a1404a4711dcead4c50dd9eaa2ab7b7c0.html#a1404a4711dcead4c50dd9eaa2ab7b7c0" target="_top" xlink:title=" ">
<polygon fill="white" stroke="#666666" points="305.62,-702.25 267.88,-702.25 267.88,-683 305.62,-683 305.62,-702.25"/>
<text text-anchor="middle" x="286.75" y="-688.75" font-family="Helvetica,sans-Serif" font-size="10.00">OED</text>
</a>
</g>
</g>
<!-- Node1&#45;&gt;Node11 -->
<g id="edge17_Node000001_Node000011" class="edge">
<title>Node1&#45;&gt;Node11</title>
<g id="a_edge17_Node000001_Node000011"><a xlink:title=" ">
<path fill="none" stroke="#63b8ff" d="M729.65,-485.03C727.51,-525.59 716.61,-613.44 663.5,-656.62 554.69,-745.1 365.23,-710.81 305.99,-697.18"/>
<polygon fill="#63b8ff" stroke="#63b8ff" points="733.15,-485.28 730.03,-475.15 726.15,-485.01 733.15,-485.28"/>
</a>
</g>
</g>
<!-- Node12 -->
<g id="Node000012" class="node">
<title>Node12</title>
<g id="a_Node000012"><a xlink:href="../../dd/de9/_ramp__15___degree_8cpp_af85931ed4e293dce5c8e4acafecd54b5.html#af85931ed4e293dce5c8e4acafecd54b5" target="_top" xlink:title=" ">
<polygon fill="white" stroke="#666666" points="490.75,-511.25 396,-511.25 396,-492 490.75,-492 490.75,-511.25"/>
<text text-anchor="middle" x="443.38" y="-497.75" font-family="Helvetica,sans-Serif" font-size="10.00">Ramp_15_Degree</text>
</a>
</g>
</g>
<!-- Node1&#45;&gt;Node12 -->
<g id="edge20_Node000001_Node000012" class="edge">
<title>Node1&#45;&gt;Node12</title>
<g id="a_edge20_Node000001_Node000012"><a xlink:title=" ">
<path fill="none" stroke="#63b8ff" d="M687.94,-473.14C679.85,-474.78 671.43,-476.36 663.5,-477.62 604.35,-487.05 535.63,-493.92 491.15,-497.84"/>
<polygon fill="#63b8ff" stroke="#63b8ff" points="688.51,-476.6 697.58,-471.12 687.07,-469.75 688.51,-476.6"/>
</a>
</g>
</g>
<!-- Node13 -->
<g id="Node000013" class="node">
<title>Node13</title>
<g id="a_Node000013"><a xlink:href="../../d2/d72/_scram___jet___inlet___test___case_8cpp_a49bbbeed352ab44d6248954f9d5391b0.html#a49bbbeed352ab44d6248954f9d5391b0" target="_top" xlink:title=" ">
<polygon fill="white" stroke="#666666" points="487,-473.25 399.75,-473.25 399.75,-454 487,-454 487,-473.25"/>
<text text-anchor="middle" x="443.38" y="-459.75" font-family="Helvetica,sans-Serif" font-size="10.00">Scram_Jet_Inlet</text>
</a>
</g>
</g>
<!-- Node1&#45;&gt;Node13 -->
<g id="edge23_Node000001_Node000013" class="edge">
<title>Node1&#45;&gt;Node13</title>
<g id="a_edge23_Node000001_Node000013"><a xlink:title=" ">
<path fill="none" stroke="#63b8ff" d="M687.78,-463.62C633.84,-463.62 541.13,-463.62 487.03,-463.62"/>
<polygon fill="#63b8ff" stroke="#63b8ff" points="687.49,-467.13 697.49,-463.63 687.49,-460.13 687.49,-467.13"/>
</a>
</g>
</g>
<!-- Node14 -->
<g id="Node000014" class="node">
<title>Node14</title>
<g id="a_Node000014"><a xlink:href="../../d1/d48/_shock___bubble___interaction_8cpp_a4cb762eff7e59896e567775356bda66a.html#a4cb762eff7e59896e567775356bda66a" target="_top" xlink:title=" ">
<polygon fill="white" stroke="#666666" points="351.75,-665.25 221.75,-665.25 221.75,-646 351.75,-646 351.75,-665.25"/>
<text text-anchor="middle" x="286.75" y="-651.75" font-family="Helvetica,sans-Serif" font-size="10.00">Shock_Bubble_Interaction</text>
</a>
</g>
</g>
<!-- Node1&#45;&gt;Node14 -->
<g id="edge26_Node000001_Node000014" class="edge">
<title>Node1&#45;&gt;Node14</title>
<g id="a_edge26_Node000001_Node000014"><a xlink:title=" ">
<path fill="none" stroke="#63b8ff" d="M727.65,-485.06C722.45,-519.29 707.04,-585.7 663.5,-617.62 567.53,-688 418.77,-677.69 340.31,-665.72"/>
<polygon fill="#63b8ff" stroke="#63b8ff" points="731.12,-485.53 728.98,-475.15 724.18,-484.6 731.12,-485.53"/>
</a>
</g>
</g>
<!-- Node15 -->
<g id="Node000015" class="node">
<title>Node15</title>
<g id="a_Node000015"><a xlink:href="../../d5/d9f/_shock___diffraction_8cpp_a464d43fab5d32cc9ecee800dfab8e5c8.html#a464d43fab5d32cc9ecee800dfab8e5c8" target="_top" xlink:title=" ">
<polygon fill="white" stroke="#666666" points="646.25,-549.25 552.25,-549.25 552.25,-530 646.25,-530 646.25,-549.25"/>
<text text-anchor="middle" x="599.25" y="-535.75" font-family="Helvetica,sans-Serif" font-size="10.00">Shock_Diffraction</text>
</a>
</g>
</g>
<!-- Node1&#45;&gt;Node15 -->
<g id="edge28_Node000001_Node000015" class="edge">
<title>Node1&#45;&gt;Node15</title>
<g id="a_edge28_Node000001_Node000015"><a xlink:title=" ">
<path fill="none" stroke="#63b8ff" d="M711.16,-480.94C698.39,-491.94 680.79,-505.89 663.5,-515.62 653.78,-521.1 642.56,-525.81 632.3,-529.58"/>
<polygon fill="#63b8ff" stroke="#63b8ff" points="713.22,-483.79 718.4,-474.55 708.59,-478.54 713.22,-483.79"/>
</a>
</g>
</g>
<!-- Node16 -->
<g id="Node000016" class="node">
<title>Node16</title>
<g id="a_Node000016"><a xlink:href="../../d2/d58/_shock___reflection__2_d_8cpp_a286a95bfcac44ff19264008ffd9506ed.html#a286a95bfcac44ff19264008ffd9506ed" target="_top" xlink:title=" ">
<polygon fill="white" stroke="#666666" points="499,-435.25 387.75,-435.25 387.75,-416 499,-416 499,-435.25"/>
<text text-anchor="middle" x="443.38" y="-421.75" font-family="Helvetica,sans-Serif" font-size="10.00">Shock_Reflection_2D</text>
</a>
</g>
</g>
<!-- Node1&#45;&gt;Node16 -->
<g id="edge30_Node000001_Node000016" class="edge">
<title>Node1&#45;&gt;Node16</title>
<g id="a_edge30_Node000001_Node000016"><a xlink:title=" ">
<path fill="none" stroke="#63b8ff" d="M687.64,-457.97C637.59,-451.32 554.33,-440.25 499.39,-432.94"/>
<polygon fill="#63b8ff" stroke="#63b8ff" points="687.13,-461.44 697.5,-459.29 688.05,-454.5 687.13,-461.44"/>
</a>
</g>
</g>
<!-- Node17 -->
<g id="Node000017" class="node">
<title>Node17</title>
<g id="a_Node000017"><a xlink:href="../../d6/d4f/_shock___tube__2_d_8cpp_a634f5b7cf63cab96d3b48ed0b4df6ad4.html#a634f5b7cf63cab96d3b48ed0b4df6ad4" target="_top" xlink:title=" ">
<polygon fill="white" stroke="#666666" points="487.75,-397.25 399,-397.25 399,-378 487.75,-378 487.75,-397.25"/>
<text text-anchor="middle" x="443.38" y="-383.75" font-family="Helvetica,sans-Serif" font-size="10.00">Shock_Tube_2D</text>
</a>
</g>
</g>
<!-- Node1&#45;&gt;Node17 -->
<g id="edge33_Node000001_Node000017" class="edge">
<title>Node1&#45;&gt;Node17</title>
<g id="a_edge33_Node000001_Node000017"><a xlink:title=" ">
<path fill="none" stroke="#63b8ff" d="M700.51,-448.63C689.15,-443.33 675.93,-437.68 663.5,-433.62 604,-414.24 532.67,-401.04 487.92,-393.92"/>
<polygon fill="#63b8ff" stroke="#63b8ff" points="698.85,-451.72 709.38,-452.9 701.88,-445.41 698.85,-451.72"/>
</a>
</g>
</g>
<!-- Node18 -->
<g id="Node000018" class="node">
<title>Node18</title>
<g id="a_Node000018"><a xlink:href="../../de/dda/_shock___wedge___reflection_8cpp_a951397acc5a124a5a006dbd5ae45029a.html#a951397acc5a124a5a006dbd5ae45029a" target="_top" xlink:title=" ">
<polygon fill="white" stroke="#666666" points="663.5,-283.25 535,-283.25 535,-264 663.5,-264 663.5,-283.25"/>
<text text-anchor="middle" x="599.25" y="-269.75" font-family="Helvetica,sans-Serif" font-size="10.00">Shock_Wedge_Reflection</text>
</a>
</g>
</g>
<!-- Node1&#45;&gt;Node18 -->
<g id="edge36_Node000001_Node000018" class="edge">
<title>Node1&#45;&gt;Node18</title>
<g id="a_edge36_Node000001_Node000018"><a xlink:title=" ">
<path fill="none" stroke="#63b8ff" d="M727.25,-442.83C721.4,-408.15 704.96,-338.3 663.5,-297.62 657.38,-291.62 649.61,-287.09 641.62,-283.68"/>
<polygon fill="#63b8ff" stroke="#63b8ff" points="723.74,-443.05 728.72,-452.4 730.66,-441.98 723.74,-443.05"/>
</a>
</g>
</g>
<!-- Node19 -->
<g id="Node000019" class="node">
<title>Node19</title>
<g id="a_Node000019"><a xlink:href="../../d8/d8f/_slip___flow__2_d_8cpp_a41030236ecf9b4d95159d7227a838eab.html#a41030236ecf9b4d95159d7227a838eab" target="_top" xlink:title=" ">
<polygon fill="white" stroke="#666666" points="481.75,-359.25 405,-359.25 405,-340 481.75,-340 481.75,-359.25"/>
<text text-anchor="middle" x="443.38" y="-345.75" font-family="Helvetica,sans-Serif" font-size="10.00">Slip_Flow_2D</text>
</a>
</g>
</g>
<!-- Node1&#45;&gt;Node19 -->
<g id="edge38_Node000001_Node000019" class="edge">
<title>Node1&#45;&gt;Node19</title>
<g id="a_edge38_Node000001_Node000019"><a xlink:title=" ">
<path fill="none" stroke="#63b8ff" d="M715.7,-444.66C703.42,-429.87 684.48,-409.99 663.5,-398.62 605.23,-367.06 527.72,-355.81 482.22,-351.81"/>
<polygon fill="#63b8ff" stroke="#63b8ff" points="712.84,-446.69 721.81,-452.32 718.31,-442.32 712.84,-446.69"/>
</a>
</g>
</g>
<!-- Node20 -->
<g id="Node000020" class="node">
<title>Node20</title>
<g id="a_Node000020"><a xlink:href="../../d8/da5/_s_w_b_l_i_8cpp_aab1edbd94ae1737559f5140355148ed8.html#aab1edbd94ae1737559f5140355148ed8" target="_top" xlink:title=" ">
<polygon fill="white" stroke="#666666" points="467.12,-95.25 419.62,-95.25 419.62,-76 467.12,-76 467.12,-95.25"/>
<text text-anchor="middle" x="443.38" y="-81.75" font-family="Helvetica,sans-Serif" font-size="10.00">SWBLI</text>
</a>
</g>
</g>
<!-- Node1&#45;&gt;Node20 -->
<g id="edge41_Node000001_Node000020" class="edge">
<title>Node1&#45;&gt;Node20</title>
<g id="a_edge41_Node000001_Node000020"><a xlink:title=" ">
<path fill="none" stroke="#63b8ff" d="M727.84,-442.43C721.07,-383.24 699.28,-217.91 663.5,-178.62 622.95,-134.1 587.36,-165.39 535,-135.62 516.64,-125.19 517.29,-115.17 499,-104.62 489.26,-99.01 477.58,-94.67 467.53,-91.57"/>
<polygon fill="#63b8ff" stroke="#63b8ff" points="724.34,-442.6 728.92,-452.15 731.3,-441.83 724.34,-442.6"/>
</a>
</g>
</g>
<!-- Node21 -->
<g id="Node000021" class="node">
<title>Node21</title>
<g id="a_Node000021"><a xlink:href="../../da/d3e/output__files_8cpp_a4f636ff0b5586b55fff77262f81143cc.html#a4f636ff0b5586b55fff77262f81143cc" target="_top" xlink:title=" ">
<polygon fill="white" stroke="#666666" points="653.75,-852.25 544.75,-852.25 544.75,-833 653.75,-833 653.75,-852.25"/>
<text text-anchor="middle" x="599.25" y="-838.75" font-family="Helvetica,sans-Serif" font-size="10.00">Write_A_MatrixToFile</text>
</a>
</g>
</g>
<!-- Node1&#45;&gt;Node21 -->
<g id="edge43_Node000001_Node000021" class="edge">
<title>Node1&#45;&gt;Node21</title>
<g id="a_edge43_Node000001_Node000021"><a xlink:title=" ">
<path fill="none" stroke="#63b8ff" d="M729.07,-484.89C725.21,-554.5 709.52,-774.02 663.5,-824.62 660.66,-827.75 657.32,-830.35 653.68,-832.51"/>
<polygon fill="#63b8ff" stroke="#63b8ff" points="732.55,-485.39 729.58,-475.22 725.56,-485.02 732.55,-485.39"/>
</a>
</g>
</g>
<!-- Node22 -->
<g id="Node000022" class="node">
<title>Node22</title>
<g id="a_Node000022"><a xlink:href="../../da/d3e/output__files_8cpp_ab93e7c603b76e3f8a017a061ab7d5dda.html#ab93e7c603b76e3f8a017a061ab7d5dda" target="_top" xlink:title=" ">
<polygon fill="white" stroke="#666666" points="653.75,-815.25 544.75,-815.25 544.75,-796 653.75,-796 653.75,-815.25"/>
<text text-anchor="middle" x="599.25" y="-801.75" font-family="Helvetica,sans-Serif" font-size="10.00">Write_b_VectorToFile</text>
</a>
</g>
</g>
<!-- Node1&#45;&gt;Node22 -->
<g id="edge45_Node000001_Node000022" class="edge">
<title>Node1&#45;&gt;Node22</title>
<g id="a_edge45_Node000001_Node000022"><a xlink:title=" ">
<path fill="none" stroke="#63b8ff" d="M728.29,-485.06C722.44,-548.93 702.25,-736.3 663.5,-781.62 658.31,-787.7 651.41,-792.23 644.09,-795.63"/>
<polygon fill="#63b8ff" stroke="#63b8ff" points="731.77,-485.48 729.17,-475.21 724.8,-484.87 731.77,-485.48"/>
</a>
</g>
</g>
<!-- Node23 -->
<g id="Node000023" class="node">
<title>Node23</title>
<g id="a_Node000023"><a xlink:href="../../da/d3e/output__files_8cpp_a38d0be544847273a1bff3a28e3368e67.html#a38d0be544847273a1bff3a28e3368e67" target="_top" xlink:title=" ">
<polygon fill="white" stroke="#666666" points="638.38,-207.25 560.12,-207.25 560.12,-188 638.38,-188 638.38,-207.25"/>
<text text-anchor="middle" x="599.25" y="-193.75" font-family="Helvetica,sans-Serif" font-size="10.00">Write_CF_File</text>
</a>
</g>
</g>
<!-- Node1&#45;&gt;Node23 -->
<g id="edge47_Node000001_Node000023" class="edge">
<title>Node1&#45;&gt;Node23</title>
<g id="a_edge47_Node000001_Node000023"><a xlink:title=" ">
<path fill="none" stroke="#63b8ff" d="M730.37,-442.4C729.74,-396.24 721.82,-285.71 663.5,-221.62 656.86,-214.33 647.77,-209.24 638.55,-205.69"/>
<polygon fill="#63b8ff" stroke="#63b8ff" points="726.87,-442.35 730.38,-452.34 733.87,-442.34 726.87,-442.35"/>
</a>
</g>
</g>
<!-- Node25 -->
<g id="Node000025" class="node">
<title>Node25</title>
<g id="a_Node000025"><a xlink:href="../../da/d3e/output__files_8cpp_a932a66d069205197a92f4583a044990c.html#a932a66d069205197a92f4583a044990c" target="_top" xlink:title=" ">
<polygon fill="white" stroke="#666666" points="486.25,-58.25 400.5,-58.25 400.5,-39 486.25,-39 486.25,-58.25"/>
<text text-anchor="middle" x="443.38" y="-44.75" font-family="Helvetica,sans-Serif" font-size="10.00">Write_Error_File</text>
</a>
</g>
</g>
<!-- Node1&#45;&gt;Node25 -->
<g id="edge55_Node000001_Node000025" class="edge">
<title>Node1&#45;&gt;Node25</title>
<g id="a_edge55_Node000001_Node000025"><a xlink:title=" ">
<path fill="none" stroke="#63b8ff" d="M728.71,-442.6C723.91,-377.41 706.09,-180.45 663.5,-135.62 622.88,-92.88 586.22,-131.84 535,-102.62 515.35,-91.41 518.27,-78.49 499,-66.62 493.98,-63.54 488.38,-60.92 482.72,-58.71"/>
<polygon fill="#63b8ff" stroke="#63b8ff" points="725.2,-442.55 729.4,-452.28 732.18,-442.06 725.2,-442.55"/>
</a>
</g>
</g>
<!-- Node27 -->
<g id="Node000027" class="node">
<title>Node27</title>
<g id="a_Node000027"><a xlink:href="../../da/d3e/output__files_8cpp_a53a2a3d9ed56a0260c4e683bcb5963c9.html#a53a2a3d9ed56a0260c4e683bcb5963c9" target="_top" xlink:title=" ">
<polygon fill="white" stroke="#666666" points="641.38,-93.25 557.12,-93.25 557.12,-74 641.38,-74 641.38,-93.25"/>
<text text-anchor="middle" x="599.25" y="-79.75" font-family="Helvetica,sans-Serif" font-size="10.00">Write_VTK_File</text>
</a>
</g>
</g>
<!-- Node1&#45;&gt;Node27 -->
<g id="edge61_Node000001_Node000027" class="edge">
<title>Node1&#45;&gt;Node27</title>
<g id="a_edge61_Node000001_Node000027"><a xlink:title=" ">
<path fill="none" stroke="#63b8ff" d="M728.83,-442.38C724.25,-373.72 706.71,-159.28 663.5,-107.62 657.77,-100.78 649.87,-95.88 641.59,-92.38"/>
<polygon fill="#63b8ff" stroke="#63b8ff" points="725.33,-442.49 729.46,-452.24 732.32,-442.04 725.33,-442.49"/>
</a>
</g>
</g>
<!-- Node2&#45;&gt;Node3 -->
<g id="edge2_Node000002_Node000003" class="edge">
<title>Node2&#45;&gt;Node3</title>
<g id="a_edge2_Node000002_Node000003"><a xlink:title=" ">
<path fill="none" stroke="#63b8ff" d="M392.83,-620.44C345.03,-622.55 272.62,-618.8 221.75,-584.62 166.78,-547.69 140.51,-465.7 132.84,-437.43"/>
<polygon fill="#63b8ff" stroke="#63b8ff" points="392.83,-623.95 402.62,-619.9 392.44,-616.96 392.83,-623.95"/>
</a>
</g>
</g>
<!-- Node4 -->
<g id="Node000004" class="node">
<title>Node4</title>
<g id="a_Node000004"><a xlink:href="../../d0/de9/_configuration___read_8cpp_a32d98c169e6f866c6411c53d5758292e.html#a32d98c169e6f866c6411c53d5758292e" target="_top" xlink:title=" ">
<polygon fill="white" stroke="#666666" points="314.62,-437.25 258.88,-437.25 258.88,-418 314.62,-418 314.62,-437.25"/>
<text text-anchor="middle" x="286.75" y="-423.75" font-family="Helvetica,sans-Serif" font-size="10.00">testCase</text>
</a>
</g>
</g>
<!-- Node2&#45;&gt;Node4 -->
<g id="edge3_Node000002_Node000004" class="edge">
<title>Node2&#45;&gt;Node4</title>
<g id="a_edge3_Node000002_Node000004"><a xlink:title=" ">
<path fill="none" stroke="#63b8ff" d="M393.9,-601.9C391.74,-600.6 389.68,-599.18 387.75,-597.62 331.78,-552.48 300.34,-467.01 290.85,-437.75"/>
<polygon fill="#63b8ff" stroke="#63b8ff" points="391.97,-604.85 402.48,-606.18 395.09,-598.58 391.97,-604.85"/>
</a>
</g>
</g>
<!-- Node4&#45;&gt;Node3 -->
<g id="edge4_Node000004_Node000003" class="edge">
<title>Node4&#45;&gt;Node3</title>
<g id="a_edge4_Node000004_Node000003"><a xlink:title=" ">
<path fill="none" stroke="#63b8ff" d="M247.2,-427.62C228.76,-427.62 206.33,-427.62 186.07,-427.62"/>
<polygon fill="#63b8ff" stroke="#63b8ff" points="247.17,-431.13 257.17,-427.63 247.17,-424.13 247.17,-431.13"/>
</a>
</g>
</g>
<!-- Node5 -->
<g id="Node000005" class="node">
<title>Node5</title>
<g id="a_Node000005"><a xlink:href="../../d5/d12/_main_8cpp_a35d775933750ace299102f06a1712663.html#a35d775933750ace299102f06a1712663" target="_top" xlink:title=" ">
<polygon fill="white" stroke="#666666" points="158,-95.25 100.75,-95.25 100.75,-76 158,-76 158,-95.25"/>
<text text-anchor="middle" x="129.38" y="-81.75" font-family="Helvetica,sans-Serif" font-size="10.00">runSolver</text>
</a>
</g>
</g>
<!-- Node4&#45;&gt;Node5 -->
<g id="edge5_Node000004_Node000005" class="edge">
<title>Node4&#45;&gt;Node5</title>
<g id="a_edge5_Node000004_Node000005"><a xlink:title=" ">
<path fill="none" stroke="#63b8ff" d="M276.52,-407.31C247.09,-342.53 156.18,-142.43 134.88,-95.53"/>
<polygon fill="#63b8ff" stroke="#63b8ff" points="273.32,-408.72 280.64,-416.38 279.69,-405.83 273.32,-408.72"/>
</a>
</g>
</g>
<!-- Node6 -->
<g id="Node000006" class="node">
<title>Node6</title>
<g id="a_Node000006"><a xlink:href="../../d5/d12/_main_8cpp_a0ddf1224851353fc92bfbff6f499fa97.html#a0ddf1224851353fc92bfbff6f499fa97" target="_top" xlink:title=" ">
<polygon fill="white" stroke="#666666" points="37,-95.25 0,-95.25 0,-76 37,-76 37,-95.25"/>
<text text-anchor="middle" x="18.5" y="-81.75" font-family="Helvetica,sans-Serif" font-size="10.00">main</text>
</a>
</g>
</g>
<!-- Node5&#45;&gt;Node6 -->
<g id="edge6_Node000005_Node000006" class="edge">
<title>Node5&#45;&gt;Node6</title>
<g id="a_edge6_Node000005_Node000006"><a xlink:title=" ">
<path fill="none" stroke="#63b8ff" d="M88.84,-85.62C71.14,-85.62 51.16,-85.62 37.22,-85.62"/>
<polygon fill="#63b8ff" stroke="#63b8ff" points="88.82,-89.13 98.82,-85.63 88.82,-82.13 88.82,-89.13"/>
</a>
</g>
</g>
<!-- Node7&#45;&gt;Node3 -->
<g id="edge8_Node000007_Node000003" class="edge">
<title>Node7&#45;&gt;Node3</title>
<g id="a_edge8_Node000007_Node000003"><a xlink:title=" ">
<path fill="none" stroke="#63b8ff" d="M229.04,-717.32C226.43,-715.66 223.97,-713.77 221.75,-711.62 139.32,-632.2 131.11,-478.26 130.41,-437.65"/>
<polygon fill="#63b8ff" stroke="#63b8ff" points="227.25,-720.34 237.74,-721.76 230.43,-714.1 227.25,-720.34"/>
</a>
</g>
</g>
<!-- Node8&#45;&gt;Node3 -->
<g id="edge10_Node000008_Node000003" class="edge">
<title>Node8&#45;&gt;Node3</title>
<g id="a_edge10_Node000008_Node000003"><a xlink:title=" ">
<path fill="none" stroke="#63b8ff" d="M378.98,-295.54C333.52,-307.72 271.73,-327.4 221.75,-354.62 189.12,-372.4 156.45,-402.07 140.47,-417.54"/>
<polygon fill="#63b8ff" stroke="#63b8ff" points="379.63,-298.99 388.41,-293.06 377.85,-292.22 379.63,-298.99"/>
</a>
</g>
</g>
<!-- Node9&#45;&gt;Node3 -->
<g id="edge12_Node000009_Node000003" class="edge">
<title>Node9&#45;&gt;Node3</title>
<g id="a_edge12_Node000009_Node000003"><a xlink:title=" ">
<path fill="none" stroke="#63b8ff" d="M385.12,-191.14C337.01,-187.2 268.76,-189.42 221.75,-223.62 153.97,-272.94 135.52,-384.27 131.41,-417.85"/>
<polygon fill="#63b8ff" stroke="#63b8ff" points="384.49,-194.6 394.78,-192.05 385.15,-187.63 384.49,-194.6"/>
</a>
</g>
</g>
<!-- Node9&#45;&gt;Node4 -->
<g id="edge13_Node000009_Node000004" class="edge">
<title>Node9&#45;&gt;Node4</title>
<g id="a_edge13_Node000009_Node000004"><a xlink:title=" ">
<path fill="none" stroke="#63b8ff" d="M423.35,-217.27C412.28,-228.06 398.44,-242.47 387.75,-256.62 344.65,-313.72 305.57,-390.92 292.43,-417.87"/>
<polygon fill="#63b8ff" stroke="#63b8ff" points="425.62,-219.95 430.43,-210.51 420.78,-214.88 425.62,-219.95"/>
</a>
</g>
</g>
<!-- Node10&#45;&gt;Node3 -->
<g id="edge15_Node000010_Node000003" class="edge">
<title>Node10&#45;&gt;Node3</title>
<g id="a_edge15_Node000010_Node000003"><a xlink:title=" ">
<path fill="none" stroke="#63b8ff" d="M375.89,-585.46C329.66,-587.07 268.23,-582.69 221.75,-555.62 173.38,-527.46 143.88,-462.32 134.05,-437.49"/>
<polygon fill="#63b8ff" stroke="#63b8ff" points="375.96,-588.96 385.79,-585 375.64,-581.97 375.96,-588.96"/>
</a>
</g>
</g>
<!-- Node10&#45;&gt;Node4 -->
<g id="edge16_Node000010_Node000004" class="edge">
<title>Node10&#45;&gt;Node4</title>
<g id="a_edge16_Node000010_Node000004"><a xlink:title=" ">
<path fill="none" stroke="#63b8ff" d="M424.36,-561.03C391.6,-529.04 323.33,-462.37 297.73,-437.37"/>
<polygon fill="#63b8ff" stroke="#63b8ff" points="421.55,-563.18 431.15,-567.66 426.44,-558.17 421.55,-563.18"/>
</a>
</g>
</g>
<!-- Node11&#45;&gt;Node3 -->
<g id="edge18_Node000011_Node000003" class="edge">
<title>Node11&#45;&gt;Node3</title>
<g id="a_edge18_Node000011_Node000003"><a xlink:title=" ">
<path fill="none" stroke="#63b8ff" d="M256.23,-690.16C244.27,-687.79 231.1,-683.26 221.75,-674.62 148.33,-606.87 133.68,-474.84 130.96,-437.61"/>
<polygon fill="#63b8ff" stroke="#63b8ff" points="255.7,-693.62 266.11,-691.65 256.74,-686.69 255.7,-693.62"/>
</a>
</g>
</g>
<!-- Node12&#45;&gt;Node3 -->
<g id="edge21_Node000012_Node000003" class="edge">
<title>Node12&#45;&gt;Node3</title>
<g id="a_edge21_Node000012_Node000003"><a xlink:title=" ">
<path fill="none" stroke="#63b8ff" d="M384.28,-496.36C339.29,-491.33 275.75,-482.17 221.75,-466.62 196.06,-459.23 167.98,-446.49 149.82,-437.59"/>
<polygon fill="#63b8ff" stroke="#63b8ff" points="383.77,-499.82 394.09,-497.41 384.52,-492.86 383.77,-499.82"/>
</a>
</g>
</g>
<!-- Node12&#45;&gt;Node4 -->
<g id="edge22_Node000012_Node000004" class="edge">
<title>Node12&#45;&gt;Node4</title>
<g id="a_edge22_Node000012_Node000004"><a xlink:title=" ">
<path fill="none" stroke="#63b8ff" d="M399.75,-487.58C395.66,-486 391.6,-484.34 387.75,-482.62 357.16,-469.01 323.38,-449.4 303.95,-437.65"/>
<polygon fill="#63b8ff" stroke="#63b8ff" points="398.52,-490.86 409.12,-491.04 400.95,-484.3 398.52,-490.86"/>
</a>
</g>
</g>
<!-- Node13&#45;&gt;Node3 -->
<g id="edge24_Node000013_Node000003" class="edge">
<title>Node13&#45;&gt;Node3</title>
<g id="a_edge24_Node000013_Node000003"><a xlink:title=" ">
<path fill="none" stroke="#63b8ff" d="M388.28,-461.39C343.48,-459.08 278.26,-454.64 221.75,-446.62 205.71,-444.35 188.26,-440.95 172.94,-437.66"/>
<polygon fill="#63b8ff" stroke="#63b8ff" points="387.82,-464.87 397.98,-461.87 388.17,-457.88 387.82,-464.87"/>
</a>
</g>
</g>
<!-- Node13&#45;&gt;Node4 -->
<g id="edge25_Node000013_Node000004" class="edge">
<title>Node13&#45;&gt;Node4</title>
<g id="a_edge25_Node000013_Node000004"><a xlink:title=" ">
<path fill="none" stroke="#63b8ff" d="M388.22,-451.02C363.48,-445.26 335.26,-438.69 315.04,-433.98"/>
<polygon fill="#63b8ff" stroke="#63b8ff" points="387.3,-454.39 397.83,-453.25 388.88,-447.58 387.3,-454.39"/>
</a>
</g>
</g>
<!-- Node14&#45;&gt;Node3 -->
<g id="edge27_Node000014_Node000003" class="edge">
<title>Node14&#45;&gt;Node3</title>
<g id="a_edge27_Node000014_Node000003"><a xlink:title=" ">
<path fill="none" stroke="#63b8ff" d="M234.21,-640.65C229.7,-638.09 225.45,-635.1 221.75,-631.62 161.22,-574.76 138.04,-470.41 132.06,-437.7"/>
<polygon fill="#63b8ff" stroke="#63b8ff" points="232.52,-643.71 243.04,-644.94 235.58,-637.42 232.52,-643.71"/>
</a>
</g>
</g>
<!-- Node15&#45;&gt;Node3 -->
<g id="edge29_Node000015_Node000003" class="edge">
<title>Node15&#45;&gt;Node3</title>
<g id="a_edge29_Node000015_Node000003"><a xlink:title=" ">
<path fill="none" stroke="#63b8ff" d="M540.72,-541.74C464.74,-542.49 328.12,-536.68 221.75,-492.62 189.2,-479.14 157,-452.23 140.93,-437.62"/>
<polygon fill="#63b8ff" stroke="#63b8ff" points="540.47,-545.24 550.42,-541.6 540.37,-538.24 540.47,-545.24"/>
</a>
</g>
</g>
<!-- Node16&#45;&gt;Node3 -->
<g id="edge31_Node000016_Node000003" class="edge">
<title>Node16&#45;&gt;Node3</title>
<g id="a_edge31_Node000016_Node000003"><a xlink:title=" ">
<path fill="none" stroke="#63b8ff" d="M386.65,-413.49C375.16,-411.47 363.11,-409.68 351.75,-408.62 294.22,-403.28 279.22,-402.71 221.75,-408.62 204.66,-410.38 186.06,-413.94 170.13,-417.51"/>
<polygon fill="#63b8ff" stroke="#63b8ff" points="385.94,-416.92 396.41,-415.3 387.21,-410.04 385.94,-416.92"/>
</a>
</g>
</g>
<!-- Node16&#45;&gt;Node4 -->
<g id="edge32_Node000016_Node000004" class="edge">
<title>Node16&#45;&gt;Node4</title>
<g id="a_edge32_Node000016_Node000004"><a xlink:title=" ">
<path fill="none" stroke="#63b8ff" d="M375.97,-426.48C354.43,-426.76 331.75,-427.06 314.78,-427.28"/>
<polygon fill="#63b8ff" stroke="#63b8ff" points="375.96,-429.98 385.91,-426.36 375.87,-422.99 375.96,-429.98"/>
</a>
</g>
</g>
<!-- Node17&#45;&gt;Node3 -->
<g id="edge34_Node000017_Node000003" class="edge">
<title>Node17&#45;&gt;Node3</title>
<g id="a_edge34_Node000017_Node000003"><a xlink:title=" ">
<path fill="none" stroke="#63b8ff" d="M387.67,-387.39C342.78,-388.02 277.73,-390.84 221.75,-400.62 200.08,-404.41 176.26,-411.55 158.38,-417.54"/>
<polygon fill="#63b8ff" stroke="#63b8ff" points="387.44,-390.89 397.4,-387.29 387.37,-383.89 387.44,-390.89"/>
</a>
</g>
</g>
<!-- Node17&#45;&gt;Node4 -->
<g id="edge35_Node000017_Node000004" class="edge">
<title>Node17&#45;&gt;Node4</title>
<g id="a_edge35_Node000017_Node000004"><a xlink:title=" ">
<path fill="none" stroke="#63b8ff" d="M392.31,-400.58C366.65,-407.21 336.4,-415.04 315.06,-420.56"/>
<polygon fill="#63b8ff" stroke="#63b8ff" points="393.09,-403.99 401.89,-398.1 391.33,-397.21 393.09,-403.99"/>
</a>
</g>
</g>
<!-- Node18&#45;&gt;Node3 -->
<g id="edge37_Node000018_Node000003" class="edge">
<title>Node18&#45;&gt;Node3</title>
<g id="a_edge37_Node000018_Node000003"><a xlink:title=" ">
<path fill="none" stroke="#63b8ff" d="M543.66,-261.4C465.05,-247.06 318.76,-232.95 221.75,-299.62 175.85,-331.17 145.08,-393.72 134.47,-417.83"/>
<polygon fill="#63b8ff" stroke="#63b8ff" points="542.79,-264.79 553.27,-263.22 544.1,-257.92 542.79,-264.79"/>
</a>
</g>
</g>
<!-- Node19&#45;&gt;Node3 -->
<g id="edge39_Node000019_Node000003" class="edge">
<title>Node19&#45;&gt;Node3</title>
<g id="a_edge39_Node000019_Node000003"><a xlink:title=" ">
<path fill="none" stroke="#63b8ff" d="M393.28,-353.41C347.97,-357.84 279.2,-366.94 221.75,-384.62 194.94,-392.88 165.95,-407.61 147.98,-417.5"/>
<polygon fill="#63b8ff" stroke="#63b8ff" points="393.42,-356.91 403.05,-352.5 392.77,-349.94 393.42,-356.91"/>
</a>
</g>
</g>
<!-- Node19&#45;&gt;Node4 -->
<g id="edge40_Node000019_Node000004" class="edge">
<title>Node19&#45;&gt;Node4</title>
<g id="a_edge40_Node000019_Node000004"><a xlink:title=" ">
<path fill="none" stroke="#63b8ff" d="M399.38,-363.67C395.41,-365.24 391.48,-366.9 387.75,-368.62 356.11,-383.29 321.56,-405.08 302.49,-417.66"/>
<polygon fill="#63b8ff" stroke="#63b8ff" points="400.33,-367.05 408.47,-360.27 397.88,-360.49 400.33,-367.05"/>
</a>
</g>
</g>
<!-- Node20&#45;&gt;Node3 -->
<g id="edge42_Node000020_Node000003" class="edge">
<title>Node20&#45;&gt;Node3</title>
<g id="a_edge42_Node000020_Node000003"><a xlink:title=" ">
<path fill="none" stroke="#63b8ff" d="M408.52,-93.29C350.12,-106.77 235.38,-134.55 221.75,-147.62 140.2,-225.86 131.35,-377.69 130.46,-417.74"/>
<polygon fill="#63b8ff" stroke="#63b8ff" points="408.96,-96.78 417.92,-91.13 407.4,-89.95 408.96,-96.78"/>
</a>
</g>
</g>
<!-- Node21&#45;&gt;Node3 -->
<g id="edge44_Node000021_Node000003" class="edge">
<title>Node21&#45;&gt;Node3</title>
<g id="a_edge44_Node000021_Node000003"><a xlink:title=" ">
<path fill="none" stroke="#63b8ff" d="M547.82,-855.15C468.18,-871.65 313,-890.07 221.75,-810.62 162.59,-759.12 136.06,-492.15 131.21,-437.43"/>
<polygon fill="#63b8ff" stroke="#63b8ff" points="548.49,-858.58 557.52,-853.06 547.01,-851.74 548.49,-858.58"/>
</a>
</g>
</g>
<!-- Node22&#45;&gt;Node3 -->
<g id="edge46_Node000022_Node000003" class="edge">
<title>Node22&#45;&gt;Node3</title>
<g id="a_edge46_Node000022_Node000003"><a xlink:title=" ">
<path fill="none" stroke="#63b8ff" d="M533.06,-810.32C437.99,-815.73 267.6,-819.54 221.75,-781.62 165.99,-735.51 137.07,-490.74 131.41,-437.75"/>
<polygon fill="#63b8ff" stroke="#63b8ff" points="533.26,-813.81 543.04,-809.73 532.85,-806.82 533.26,-813.81"/>
</a>
</g>
</g>
<!-- Node23&#45;&gt;Node3 -->
<g id="edge50_Node000023_Node000003" class="edge">
<title>Node23&#45;&gt;Node3</title>
<g id="a_edge50_Node000023_Node000003"><a xlink:title=" ">
<path fill="none" stroke="#63b8ff" d="M563.11,-183.69C491.37,-157.76 326.08,-111.15 221.75,-185.62 141.7,-242.77 131.74,-379.24 130.53,-417.5"/>
<polygon fill="#63b8ff" stroke="#63b8ff" points="561.78,-186.93 572.37,-187.13 564.21,-180.37 561.78,-186.93"/>
</a>
</g>
</g>
<!-- Node23&#45;&gt;Node8 -->
<g id="edge48_Node000023_Node000008" class="edge">
<title>Node23&#45;&gt;Node8</title>
<g id="a_edge48_Node000023_Node000008"><a xlink:title=" ">
<path fill="none" stroke="#63b8ff" d="M569.56,-213.1C542.16,-227.88 501.07,-250.05 473.51,-264.91"/>
<polygon fill="#63b8ff" stroke="#63b8ff" points="571.22,-216.18 578.36,-208.36 567.89,-210.02 571.22,-216.18"/>
</a>
</g>
</g>
<!-- Node23&#45;&gt;Node9 -->
<g id="edge49_Node000023_Node000009" class="edge">
<title>Node23&#45;&gt;Node9</title>
<g id="a_edge49_Node000023_Node000009"><a xlink:title=" ">
<path fill="none" stroke="#63b8ff" d="M548.36,-198.27C529.87,-198.51 508.99,-198.79 490.81,-199.02"/>
<polygon fill="#63b8ff" stroke="#63b8ff" points="548.35,-201.77 558.3,-198.14 548.26,-194.77 548.35,-201.77"/>
</a>
</g>
</g>
<!-- Node23&#45;&gt;Node20 -->
<g id="edge51_Node000023_Node000020" class="edge">
<title>Node23&#45;&gt;Node20</title>
<g id="a_edge51_Node000023_Node000020"><a xlink:title=" ">
<path fill="none" stroke="#63b8ff" d="M549.54,-183.25C544.32,-180.54 539.34,-177.36 535,-173.62 510.26,-152.34 523.18,-131.54 499,-109.62 490.1,-101.56 478.05,-95.87 467.53,-92.07"/>
<polygon fill="#63b8ff" stroke="#63b8ff" points="547.84,-186.32 558.39,-187.26 550.73,-179.94 547.84,-186.32"/>
</a>
</g>
</g>
<!-- Node24 -->
<g id="Node000024" class="node">
<title>Node24</title>
<g id="a_Node000024"><a xlink:href="../../de/df0/_solver_8cpp_a2f37f06e8324a1ed6aa99efdbba81865.html#a2f37f06e8324a1ed6aa99efdbba81865" target="_top" xlink:title=" ">
<polygon fill="white" stroke="#666666" points="328.88,-95.25 244.62,-95.25 244.62,-76 328.88,-76 328.88,-95.25"/>
<text text-anchor="middle" x="286.75" y="-81.75" font-family="Helvetica,sans-Serif" font-size="10.00">Viscous_Solver</text>
</a>
</g>
</g>
<!-- Node23&#45;&gt;Node24 -->
<g id="edge52_Node000023_Node000024" class="edge">
<title>Node23&#45;&gt;Node24</title>
<g id="a_edge52_Node000023_Node000024"><a xlink:title=" ">
<path fill="none" stroke="#63b8ff" d="M556.44,-183.55C549.15,-180.59 541.74,-177.25 535,-173.62 517.62,-164.27 516.72,-156.31 499,-147.62 443.05,-120.22 372.71,-102.58 328.98,-93.38"/>
<polygon fill="#63b8ff" stroke="#63b8ff" points="554.97,-186.73 565.56,-187.06 557.48,-180.2 554.97,-186.73"/>
</a>
</g>
</g>
<!-- Node24&#45;&gt;Node3 -->
<g id="edge53_Node000024_Node000003" class="edge">
<title>Node24&#45;&gt;Node3</title>
<g id="a_edge53_Node000024_Node000003"><a xlink:title=" ">
<path fill="none" stroke="#63b8ff" d="M234.41,-99.64C229.73,-102.4 225.38,-105.69 221.75,-109.62 135.01,-203.5 130.02,-374.41 130.2,-417.54"/>
<polygon fill="#63b8ff" stroke="#63b8ff" points="235.63,-102.95 243.04,-95.38 232.53,-96.67 235.63,-102.95"/>
</a>
</g>
</g>
<!-- Node24&#45;&gt;Node5 -->
<g id="edge54_Node000024_Node000005" class="edge">
<title>Node24&#45;&gt;Node5</title>
<g id="a_edge54_Node000024_Node000005"><a xlink:title=" ">
<path fill="none" stroke="#63b8ff" d="M233.26,-85.62C208.06,-85.62 178.88,-85.62 158.05,-85.62"/>
<polygon fill="#63b8ff" stroke="#63b8ff" points="233.01,-89.13 243.01,-85.63 233.01,-82.13 233.01,-89.13"/>
</a>
</g>
</g>
<!-- Node25&#45;&gt;Node3 -->
<g id="edge59_Node000025_Node000003" class="edge">
<title>Node25&#45;&gt;Node3</title>
<g id="a_edge59_Node000025_Node000003"><a xlink:title=" ">
<path fill="none" stroke="#63b8ff" d="M389.38,-37.11C340.16,-29.71 267.75,-27.71 221.75,-66.62 165.36,-114.33 136.84,-364.48 131.36,-417.67"/>
<polygon fill="#63b8ff" stroke="#63b8ff" points="388.5,-40.51 398.94,-38.67 389.63,-33.6 388.5,-40.51"/>
</a>
</g>
</g>
<!-- Node25&#45;&gt;Node24 -->
<g id="edge60_Node000025_Node000024" class="edge">
<title>Node25&#45;&gt;Node24</title>
<g id="a_edge60_Node000025_Node000024"><a xlink:title=" ">
<path fill="none" stroke="#63b8ff" d="M389.18,-61.35C369.54,-66.05 347.59,-71.31 329.15,-75.72"/>
<polygon fill="#63b8ff" stroke="#63b8ff" points="389.74,-64.82 398.65,-59.09 388.11,-58.01 389.74,-64.82"/>
</a>
</g>
</g>
<!-- Node26 -->
<g id="Node000026" class="node">
<title>Node26</title>
<g id="a_Node000026"><a xlink:href="../../de/df0/_solver_8cpp_ad0f49408a26339b5f7043bf867c3fa8d.html#ad0f49408a26339b5f7043bf867c3fa8d" target="_top" xlink:title=" ">
<polygon fill="white" stroke="#666666" points="328.12,-19.25 245.38,-19.25 245.38,0 328.12,0 328.12,-19.25"/>
<text text-anchor="middle" x="286.75" y="-5.75" font-family="Helvetica,sans-Serif" font-size="10.00">Inviscid_Solver</text>
</a>
</g>
</g>
<!-- Node25&#45;&gt;Node26 -->
<g id="edge56_Node000025_Node000026" class="edge">
<title>Node25&#45;&gt;Node26</title>
<g id="a_edge56_Node000025_Node000026"><a xlink:title=" ">
<path fill="none" stroke="#63b8ff" d="M391.39,-35.77C370.69,-30.54 347.13,-24.6 327.7,-19.7"/>
<polygon fill="#63b8ff" stroke="#63b8ff" points="390.54,-39.16 401.09,-38.21 392.25,-32.37 390.54,-39.16"/>
</a>
</g>
</g>
<!-- Node26&#45;&gt;Node3 -->
<g id="edge57_Node000026_Node000003" class="edge">
<title>Node26&#45;&gt;Node3</title>
<g id="a_edge57_Node000026_Node000003"><a xlink:title=" ">
<path fill="none" stroke="#63b8ff" d="M235.14,-22.9C230.13,-25.8 225.52,-29.33 221.75,-33.62 168.62,-94.2 137.31,-362.82 131.4,-417.78"/>
<polygon fill="#63b8ff" stroke="#63b8ff" points="236.29,-26.23 243.77,-18.73 233.25,-19.93 236.29,-26.23"/>
</a>
</g>
</g>
<!-- Node26&#45;&gt;Node5 -->
<g id="edge58_Node000026_Node000005" class="edge">
<title>Node26&#45;&gt;Node5</title>
<g id="a_edge58_Node000026_Node000005"><a xlink:title=" ">
<path fill="none" stroke="#63b8ff" d="M245.44,-23.63C237.5,-26.7 229.29,-30.1 221.75,-33.62 194.31,-46.48 164.04,-64.53 146.14,-75.63"/>
<polygon fill="#63b8ff" stroke="#63b8ff" points="246.48,-26.98 254.62,-20.19 244.02,-20.42 246.48,-26.98"/>
</a>
</g>
</g>
</g>
</svg>
