<?xml version="1.0" encoding="UTF-8" standalone="no"?>
<!DOCTYPE svg PUBLIC "-//W3C//DTD SVG 1.1//EN"
 "http://www.w3.org/Graphics/SVG/1.1/DTD/svg11.dtd">
<!-- Generated by graphviz version 12.2.1 (20241206.2353)
 -->
<!-- Title: Write_CF_File Pages: 1 -->
<svg width="581pt" height="216pt"
 viewBox="0.00 0.00 580.75 216.28" xmlns="http://www.w3.org/2000/svg" xmlns:xlink="http://www.w3.org/1999/xlink">
<g id="graph0" class="graph" transform="scale(1 1) rotate(0) translate(4 212.28)">
<title>Write_CF_File</title>
<!-- Node1 -->
<g id="Node000001" class="node">
<title>Node1</title>
<g id="a_Node000001"><a xlink:title=" ">
<polygon fill="#999999" stroke="#666666" points="572.75,-132.25 494.5,-132.25 494.5,-113 572.75,-113 572.75,-132.25"/>
<text text-anchor="middle" x="533.62" y="-118.75" font-family="Helvetica,sans-Serif" font-size="10.00">Write_CF_File</text>
</a>
</g>
</g>
<!-- Node2 -->
<g id="Node000002" class="node">
<title>Node2</title>
<g id="a_Node000002"><a xlink:href="../../de/d81/_flat___plate___boundary___layer_8cpp_a787b29de4053181d716a19e7c4c9b705.html#a787b29de4053181d716a19e7c4c9b705" target="_top" xlink:title=" ">
<polygon fill="white" stroke="#666666" points="328.5,-180.88 221.75,-180.88 221.75,-150.38 328.5,-150.38 328.5,-180.88"/>
<text text-anchor="start" x="229.75" y="-167.38" font-family="Helvetica,sans-Serif" font-size="10.00">Flat_Plate_Boundary</text>
<text text-anchor="middle" x="275.12" y="-156.12" font-family="Helvetica,sans-Serif" font-size="10.00">_Layer</text>
</a>
</g>
</g>
<!-- Node1&#45;&gt;Node2 -->
<g id="edge1_Node000001_Node000002" class="edge">
<title>Node1&#45;&gt;Node2</title>
<g id="a_edge1_Node000001_Node000002"><a xlink:title=" ">
<path fill="none" stroke="#63b8ff" d="M486.14,-135.45C477.02,-137.71 467.5,-139.89 458.5,-141.62 415.07,-150.02 365.25,-156.35 328.67,-160.4"/>
<polygon fill="#63b8ff" stroke="#63b8ff" points="486.71,-138.92 495.54,-133.05 484.98,-132.13 486.71,-138.92"/>
</a>
</g>
</g>
<!-- Node3 -->
<g id="Node000003" class="node">
<title>Node3</title>
<g id="a_Node000003"><a xlink:href="../../dd/dbf/_euler___python___wrapper_8cpp_ac5ccb50c3be270f798e054dd36987442.html#ac5ccb50c3be270f798e054dd36987442" target="_top" xlink:title=" ">
<polygon fill="white" stroke="#666666" points="185.75,-113.25 73,-113.25 73,-94 185.75,-94 185.75,-113.25"/>
<text text-anchor="middle" x="129.38" y="-99.75" font-family="Helvetica,sans-Serif" font-size="10.00">PYBIND11_MODULE</text>
</a>
</g>
</g>
<!-- Node1&#45;&gt;Node3 -->
<g id="edge9_Node000001_Node000003" class="edge">
<title>Node1&#45;&gt;Node3</title>
<g id="a_edge9_Node000001_Node000003"><a xlink:title=" ">
<path fill="none" stroke="#63b8ff" d="M507.52,-138.54C493.55,-146.78 475.58,-156.39 458.5,-162.62 359.01,-198.92 320.2,-228.67 221.75,-189.62 182.46,-174.05 150.25,-132.69 136.94,-113.57"/>
<polygon fill="#63b8ff" stroke="#63b8ff" points="509.31,-141.55 516.05,-133.37 505.68,-135.56 509.31,-141.55"/>
</a>
</g>
</g>
<!-- Node4 -->
<g id="Node000004" class="node">
<title>Node4</title>
<g id="a_Node000004"><a xlink:href="../../da/d4b/_flow___over___bump_8cpp_abaa8184c0dd8aa3fdc37d585f0a7d0cc.html#abaa8184c0dd8aa3fdc37d585f0a7d0cc" target="_top" xlink:title=" ">
<polygon fill="white" stroke="#666666" points="458.5,-94.25 364.5,-94.25 364.5,-75 458.5,-75 458.5,-94.25"/>
<text text-anchor="middle" x="411.5" y="-80.75" font-family="Helvetica,sans-Serif" font-size="10.00">Flow_Over_Bump</text>
</a>
</g>
</g>
<!-- Node1&#45;&gt;Node4 -->
<g id="edge3_Node000001_Node000004" class="edge">
<title>Node1&#45;&gt;Node4</title>
<g id="a_edge3_Node000001_Node000004"><a xlink:title=" ">
<path fill="none" stroke="#63b8ff" d="M490.07,-109.16C474.93,-104.38 458.17,-99.07 444.11,-94.62"/>
<polygon fill="#63b8ff" stroke="#63b8ff" points="488.72,-112.41 499.31,-112.08 490.83,-105.73 488.72,-112.41"/>
</a>
</g>
</g>
<!-- Node8 -->
<g id="Node000008" class="node">
<title>Node8</title>
<g id="a_Node000008"><a xlink:href="../../d8/da5/_s_w_b_l_i_8cpp_aab1edbd94ae1737559f5140355148ed8.html#aab1edbd94ae1737559f5140355148ed8" target="_top" xlink:title=" ">
<polygon fill="white" stroke="#666666" points="435.25,-132.25 387.75,-132.25 387.75,-113 435.25,-113 435.25,-132.25"/>
<text text-anchor="middle" x="411.5" y="-118.75" font-family="Helvetica,sans-Serif" font-size="10.00">SWBLI</text>
</a>
</g>
</g>
<!-- Node1&#45;&gt;Node8 -->
<g id="edge10_Node000001_Node000008" class="edge">
<title>Node1&#45;&gt;Node8</title>
<g id="a_edge10_Node000001_Node000008"><a xlink:title=" ">
<path fill="none" stroke="#63b8ff" d="M483.09,-122.62C466.58,-122.62 448.96,-122.62 435.46,-122.62"/>
<polygon fill="#63b8ff" stroke="#63b8ff" points="482.77,-126.13 492.77,-122.63 482.77,-119.13 482.77,-126.13"/>
</a>
</g>
</g>
<!-- Node9 -->
<g id="Node000009" class="node">
<title>Node9</title>
<g id="a_Node000009"><a xlink:href="../../de/df0/_solver_8cpp_a2f37f06e8324a1ed6aa99efdbba81865.html#a2f37f06e8324a1ed6aa99efdbba81865" target="_top" xlink:title=" ">
<polygon fill="white" stroke="#666666" points="317.25,-19.25 233,-19.25 233,0 317.25,0 317.25,-19.25"/>
<text text-anchor="middle" x="275.12" y="-5.75" font-family="Helvetica,sans-Serif" font-size="10.00">Viscous_Solver</text>
</a>
</g>
</g>
<!-- Node1&#45;&gt;Node9 -->
<g id="edge12_Node000001_Node000009" class="edge">
<title>Node1&#45;&gt;Node9</title>
<g id="a_edge12_Node000001_Node000009"><a xlink:title=" ">
<path fill="none" stroke="#63b8ff" d="M514.02,-105.27C499.76,-92.75 479.09,-76.26 458.5,-65.62 412.89,-42.07 355.65,-26.51 317.59,-17.9"/>
<polygon fill="#63b8ff" stroke="#63b8ff" points="511.51,-107.71 521.28,-111.8 516.19,-102.51 511.51,-107.71"/>
</a>
</g>
</g>
<!-- Node2&#45;&gt;Node3 -->
<g id="edge2_Node000002_Node000003" class="edge">
<title>Node2&#45;&gt;Node3</title>
<g id="a_edge2_Node000002_Node000003"><a xlink:title=" ">
<path fill="none" stroke="#63b8ff" d="M227.57,-145.55C202.83,-134.88 173.5,-122.23 153.58,-113.63"/>
<polygon fill="#63b8ff" stroke="#63b8ff" points="225.89,-148.63 236.46,-149.38 228.66,-142.21 225.89,-148.63"/>
</a>
</g>
</g>
<!-- Node4&#45;&gt;Node3 -->
<g id="edge4_Node000004_Node000003" class="edge">
<title>Node4&#45;&gt;Node3</title>
<g id="a_edge4_Node000004_Node000003"><a xlink:title=" ">
<path fill="none" stroke="#63b8ff" d="M352.9,-88.53C303.97,-91.85 234.18,-96.58 185.86,-99.86"/>
<polygon fill="#63b8ff" stroke="#63b8ff" points="352.99,-92.03 362.73,-87.86 352.52,-85.05 352.99,-92.03"/>
</a>
</g>
</g>
<!-- Node5 -->
<g id="Node000005" class="node">
<title>Node5</title>
<g id="a_Node000005"><a xlink:href="../../d0/de9/_configuration___read_8cpp_a32d98c169e6f866c6411c53d5758292e.html#a32d98c169e6f866c6411c53d5758292e" target="_top" xlink:title=" ">
<polygon fill="white" stroke="#666666" points="303,-56.25 247.25,-56.25 247.25,-37 303,-37 303,-56.25"/>
<text text-anchor="middle" x="275.12" y="-42.75" font-family="Helvetica,sans-Serif" font-size="10.00">testCase</text>
</a>
</g>
</g>
<!-- Node4&#45;&gt;Node5 -->
<g id="edge5_Node000004_Node000005" class="edge">
<title>Node4&#45;&gt;Node5</title>
<g id="a_edge5_Node000004_Node000005"><a xlink:title=" ">
<path fill="none" stroke="#63b8ff" d="M363.96,-71.46C343.76,-65.75 320.8,-59.26 303.42,-54.34"/>
<polygon fill="#63b8ff" stroke="#63b8ff" points="362.81,-74.78 373.39,-74.13 364.72,-68.04 362.81,-74.78"/>
</a>
</g>
</g>
<!-- Node5&#45;&gt;Node3 -->
<g id="edge6_Node000005_Node000003" class="edge">
<title>Node5&#45;&gt;Node3</title>
<g id="a_edge6_Node000005_Node000003"><a xlink:title=" ">
<path fill="none" stroke="#63b8ff" d="M238.28,-60.84C212.51,-71.06 178.4,-84.58 155.49,-93.67"/>
<polygon fill="#63b8ff" stroke="#63b8ff" points="239.34,-64.18 247.35,-57.24 236.76,-57.67 239.34,-64.18"/>
</a>
</g>
</g>
<!-- Node6 -->
<g id="Node000006" class="node">
<title>Node6</title>
<g id="a_Node000006"><a xlink:href="../../d5/d12/_main_8cpp_a35d775933750ace299102f06a1712663.html#a35d775933750ace299102f06a1712663" target="_top" xlink:title=" ">
<polygon fill="white" stroke="#666666" points="158,-38.25 100.75,-38.25 100.75,-19 158,-19 158,-38.25"/>
<text text-anchor="middle" x="129.38" y="-24.75" font-family="Helvetica,sans-Serif" font-size="10.00">runSolver</text>
</a>
</g>
</g>
<!-- Node5&#45;&gt;Node6 -->
<g id="edge7_Node000005_Node000006" class="edge">
<title>Node5&#45;&gt;Node6</title>
<g id="a_edge7_Node000005_Node000006"><a xlink:title=" ">
<path fill="none" stroke="#63b8ff" d="M235.71,-41.82C211.32,-38.76 180.32,-34.88 158.27,-32.12"/>
<polygon fill="#63b8ff" stroke="#63b8ff" points="235.23,-45.28 245.58,-43.05 236.1,-38.34 235.23,-45.28"/>
</a>
</g>
</g>
<!-- Node7 -->
<g id="Node000007" class="node">
<title>Node7</title>
<g id="a_Node000007"><a xlink:href="../../d5/d12/_main_8cpp_a0ddf1224851353fc92bfbff6f499fa97.html#a0ddf1224851353fc92bfbff6f499fa97" target="_top" xlink:title=" ">
<polygon fill="white" stroke="#666666" points="37,-38.25 0,-38.25 0,-19 37,-19 37,-38.25"/>
<text text-anchor="middle" x="18.5" y="-24.75" font-family="Helvetica,sans-Serif" font-size="10.00">main</text>
</a>
</g>
</g>
<!-- Node6&#45;&gt;Node7 -->
<g id="edge8_Node000006_Node000007" class="edge">
<title>Node6&#45;&gt;Node7</title>
<g id="a_edge8_Node000006_Node000007"><a xlink:title=" ">
<path fill="none" stroke="#63b8ff" d="M88.84,-28.62C71.14,-28.62 51.16,-28.62 37.22,-28.62"/>
<polygon fill="#63b8ff" stroke="#63b8ff" points="88.82,-32.13 98.82,-28.63 88.82,-25.13 88.82,-32.13"/>
</a>
</g>
</g>
<!-- Node8&#45;&gt;Node3 -->
<g id="edge11_Node000008_Node000003" class="edge">
<title>Node8&#45;&gt;Node3</title>
<g id="a_edge11_Node000008_Node000003"><a xlink:title=" ">
<path fill="none" stroke="#63b8ff" d="M376.13,-120.29C328.75,-117.08 242.85,-111.25 186.2,-107.41"/>
<polygon fill="#63b8ff" stroke="#63b8ff" points="375.85,-123.78 386.07,-120.97 376.33,-116.8 375.85,-123.78"/>
</a>
</g>
</g>
<!-- Node9&#45;&gt;Node3 -->
<g id="edge13_Node000009_Node000003" class="edge">
<title>Node9&#45;&gt;Node3</title>
<g id="a_edge13_Node000009_Node000003"><a xlink:title=" ">
<path fill="none" stroke="#63b8ff" d="M228.54,-24.14C226.21,-25.24 223.93,-26.4 221.75,-27.62 188.48,-46.34 155.58,-77.7 139.88,-93.65"/>
<polygon fill="#63b8ff" stroke="#63b8ff" points="229.74,-27.43 237.59,-20.31 227.02,-20.98 229.74,-27.43"/>
</a>
</g>
</g>
<!-- Node9&#45;&gt;Node6 -->
<g id="edge14_Node000009_Node000006" class="edge">
<title>Node9&#45;&gt;Node6</title>
<g id="a_edge14_Node000009_Node000006"><a xlink:title=" ">
<path fill="none" stroke="#63b8ff" d="M221.3,-16.61C199.92,-19.43 176.11,-22.58 158.22,-24.94"/>
<polygon fill="#63b8ff" stroke="#63b8ff" points="221.59,-20.1 231.05,-15.32 220.67,-13.16 221.59,-20.1"/>
</a>
</g>
</g>
</g>
</svg>
