<?xml version="1.0" encoding="UTF-8" standalone="no"?>
<!DOCTYPE svg PUBLIC "-//W3C//DTD SVG 1.1//EN"
 "http://www.w3.org/Graphics/SVG/1.1/DTD/svg11.dtd">
<!-- Generated by graphviz version 12.2.1 (20241206.2353)
 -->
<!-- Title: ROE_2O Pages: 1 -->
<svg width="394pt" height="64pt"
 viewBox="0.00 0.00 393.75 64.25" xmlns="http://www.w3.org/2000/svg" xmlns:xlink="http://www.w3.org/1999/xlink">
<g id="graph0" class="graph" transform="scale(1 1) rotate(0) translate(4 60.25)">
<title>ROE_2O</title>
<!-- Node1 -->
<g id="Node000001" class="node">
<title>Node1</title>
<g id="a_Node000001"><a xlink:title=" ">
<polygon fill="#999999" stroke="#666666" points="55.75,-37.25 0,-37.25 0,-18 55.75,-18 55.75,-37.25"/>
<text text-anchor="middle" x="27.88" y="-23.75" font-family="Helvetica,sans-Serif" font-size="10.00">ROE_2O</text>
</a>
</g>
</g>
<!-- Node2 -->
<g id="Node000002" class="node">
<title>Node2</title>
<g id="a_Node000002"><a xlink:href="$d0/da3/_limiters_8cpp_a6bdb2d5e0ff963b9b5b395dc79a19acd.html#a6bdb2d5e0ff963b9b5b395dc79a19acd" xlink:title="Computes the second&#45;order limited slopes and reconstructs variables for a given cell and face.">
<polygon fill="white" stroke="#666666" points="204.5,-37.25 91.75,-37.25 91.75,-18 204.5,-18 204.5,-37.25"/>
<text text-anchor="middle" x="148.12" y="-23.75" font-family="Helvetica,sans-Serif" font-size="10.00">Second_Order_Limiter</text>
</a>
</g>
</g>
<!-- Node1&#45;&gt;Node2 -->
<g id="edge1_Node000001_Node000002" class="edge">
<title>Node1&#45;&gt;Node2</title>
<g id="a_edge1_Node000001_Node000002"><a xlink:title=" ">
<path fill="none" stroke="#63b8ff" d="M56,-27.62C63.4,-27.62 71.75,-27.62 80.32,-27.62"/>
<polygon fill="#63b8ff" stroke="#63b8ff" points="80.14,-31.13 90.14,-27.63 80.14,-24.13 80.14,-31.13"/>
</a>
</g>
</g>
<!-- Node3 -->
<g id="Node000003" class="node">
<title>Node3</title>
<g id="a_Node000003"><a xlink:href="$d0/da3/_limiters_8cpp_a01ee9151d91c270729e4d9df0a89e287.html#a01ee9151d91c270729e4d9df0a89e287" xlink:title="Computes the MinMod limiter for three input values and updates the result in the provided reference.">
<polygon fill="white" stroke="#666666" points="291,-37.25 240.5,-37.25 240.5,-18 291,-18 291,-37.25"/>
<text text-anchor="middle" x="265.75" y="-23.75" font-family="Helvetica,sans-Serif" font-size="10.00">MinMod</text>
</a>
</g>
</g>
<!-- Node2&#45;&gt;Node3 -->
<g id="edge2_Node000002_Node000003" class="edge">
<title>Node2&#45;&gt;Node3</title>
<g id="a_edge2_Node000002_Node000003"><a xlink:title=" ">
<path fill="none" stroke="#63b8ff" d="M204.91,-27.62C213.02,-27.62 221.18,-27.62 228.76,-27.62"/>
<polygon fill="#63b8ff" stroke="#63b8ff" points="228.58,-31.13 238.58,-27.63 228.58,-24.13 228.58,-31.13"/>
</a>
</g>
</g>
<!-- Node4 -->
<g id="Node000004" class="node">
<title>Node4</title>
<g id="a_Node000004"><a xlink:href="$dc/d3a/src_2_utility___files_8cpp_aa047730c4b45792e657f98e973a2695f.html#aa047730c4b45792e657f98e973a2695f" xlink:title=" ">
<polygon fill="white" stroke="#666666" points="385.75,-56.25 327,-56.25 327,-37 385.75,-37 385.75,-56.25"/>
<text text-anchor="middle" x="356.38" y="-42.75" font-family="Helvetica,sans-Serif" font-size="10.00">Maximum</text>
</a>
</g>
</g>
<!-- Node3&#45;&gt;Node4 -->
<g id="edge3_Node000003_Node000004" class="edge">
<title>Node3&#45;&gt;Node4</title>
<g id="a_edge3_Node000003_Node000004"><a xlink:title=" ">
<path fill="none" stroke="#63b8ff" d="M291.44,-32.92C298.97,-34.53 307.46,-36.35 315.72,-38.12"/>
<polygon fill="#63b8ff" stroke="#63b8ff" points="314.76,-41.5 325.27,-40.17 316.22,-34.65 314.76,-41.5"/>
</a>
</g>
</g>
<!-- Node5 -->
<g id="Node000005" class="node">
<title>Node5</title>
<g id="a_Node000005"><a xlink:href="$dc/d3a/src_2_utility___files_8cpp_a51be7d63194e92e29a4cd28e08d464bd.html#a51be7d63194e92e29a4cd28e08d464bd" xlink:title=" ">
<polygon fill="white" stroke="#666666" points="384.25,-19.25 328.5,-19.25 328.5,0 384.25,0 384.25,-19.25"/>
<text text-anchor="middle" x="356.38" y="-5.75" font-family="Helvetica,sans-Serif" font-size="10.00">Minimum</text>
</a>
</g>
</g>
<!-- Node3&#45;&gt;Node5 -->
<g id="edge4_Node000003_Node000005" class="edge">
<title>Node3&#45;&gt;Node5</title>
<g id="a_edge4_Node000003_Node000005"><a xlink:title=" ">
<path fill="none" stroke="#63b8ff" d="M291.44,-22.61C299.34,-21.01 308.29,-19.19 316.94,-17.43"/>
<polygon fill="#63b8ff" stroke="#63b8ff" points="317.43,-20.9 326.53,-15.48 316.04,-14.04 317.43,-20.9"/>
</a>
</g>
</g>
</g>
</svg>
