<?xml version="1.0" encoding="UTF-8" standalone="no"?>
<!DOCTYPE svg PUBLIC "-//W3C//DTD SVG 1.1//EN"
 "http://www.w3.org/Graphics/SVG/1.1/DTD/svg11.dtd">
<!-- Generated by graphviz version 12.2.1 (20241206.2353)
 -->
<!-- Title: ROE Pages: 1 -->
<svg width="771pt" height="195pt"
 viewBox="0.00 0.00 770.75 194.66" xmlns="http://www.w3.org/2000/svg" xmlns:xlink="http://www.w3.org/1999/xlink">
<g id="graph0" class="graph" transform="scale(1 1) rotate(0) translate(4 190.66)">
<title>ROE</title>
<!-- Node1 -->
<g id="Node000001" class="node">
<title>Node1</title>
<g id="a_Node000001"><a xlink:title=" ">
<polygon fill="#999999" stroke="#666666" points="762.75,-47.62 725,-47.62 725,-28.38 762.75,-28.38 762.75,-47.62"/>
<text text-anchor="middle" x="743.88" y="-34.12" font-family="Helvetica,sans-Serif" font-size="10.00">ROE</text>
</a>
</g>
</g>
<!-- Node2 -->
<g id="Node000002" class="node">
<title>Node2</title>
<g id="a_Node000002"><a xlink:href="../../d9/ddd/_c_u_d_a___integrated___numerical___method_8cpp_ad25c9a53b380204dd243bc1351d6b098.html#ad25c9a53b380204dd243bc1351d6b098" target="_top" xlink:title=" ">
<polygon fill="white" stroke="#666666" points="689,-104.62 549.25,-104.62 549.25,-85.38 689,-85.38 689,-104.62"/>
<text text-anchor="middle" x="619.12" y="-91.12" font-family="Helvetica,sans-Serif" font-size="10.00">Evaluate_Cell_Net_Flux_1O</text>
</a>
</g>
</g>
<!-- Node1&#45;&gt;Node2 -->
<g id="edge1_Node000001_Node000002" class="edge">
<title>Node1&#45;&gt;Node2</title>
<g id="a_edge1_Node000001_Node000002"><a xlink:title=" ">
<path fill="none" stroke="#63b8ff" d="M714.6,-51.13C692.37,-61.45 661.88,-75.61 641.62,-85.02"/>
<polygon fill="#63b8ff" stroke="#63b8ff" points="715.79,-54.43 723.39,-47.05 712.85,-48.09 715.79,-54.43"/>
</a>
</g>
</g>
<!-- Node5 -->
<g id="Node000005" class="node">
<title>Node5</title>
<g id="a_Node000005"><a xlink:href="../../dd/dbf/_euler___python___wrapper_8cpp_ac5ccb50c3be270f798e054dd36987442.html#ac5ccb50c3be270f798e054dd36987442" target="_top" xlink:title=" ">
<polygon fill="white" stroke="#666666" points="112.75,-85.62 0,-85.62 0,-66.38 112.75,-66.38 112.75,-85.62"/>
<text text-anchor="middle" x="56.38" y="-72.12" font-family="Helvetica,sans-Serif" font-size="10.00">PYBIND11_MODULE</text>
</a>
</g>
</g>
<!-- Node1&#45;&gt;Node5 -->
<g id="edge17_Node000001_Node000005" class="edge">
<title>Node1&#45;&gt;Node5</title>
<g id="a_edge17_Node000001_Node000005"><a xlink:title=" ">
<path fill="none" stroke="#63b8ff" d="M713.84,-31.37C663.52,-20.48 556.76,0 465.38,0 465.38,0 465.38,0 323.25,0 228.43,0 121.67,-45.23 77.83,-65.91"/>
<polygon fill="#63b8ff" stroke="#63b8ff" points="712.81,-34.73 723.33,-33.46 714.32,-27.89 712.81,-34.73"/>
</a>
</g>
</g>
<!-- Node3 -->
<g id="Node000003" class="node">
<title>Node3</title>
<g id="a_Node000003"><a xlink:href="../../d0/d64/_numerical___method_8cpp_a8dda0c7e17babab9b6e49e8e199dc30e.html#a8dda0c7e17babab9b6e49e8e199dc30e" target="_top" xlink:title=" ">
<polygon fill="white" stroke="#666666" points="367.12,-141.62 281.38,-141.62 281.38,-122.38 367.12,-122.38 367.12,-141.62"/>
<text text-anchor="middle" x="324.25" y="-128.12" font-family="Helvetica,sans-Serif" font-size="10.00">Explicit_Method</text>
</a>
</g>
</g>
<!-- Node2&#45;&gt;Node3 -->
<g id="edge2_Node000002_Node000003" class="edge">
<title>Node2&#45;&gt;Node3</title>
<g id="a_edge2_Node000002_Node000003"><a xlink:title=" ">
<path fill="none" stroke="#63b8ff" d="M537.95,-105.13C482.88,-112.09 411.97,-121.04 367.55,-126.66"/>
<polygon fill="#63b8ff" stroke="#63b8ff" points="538.1,-108.64 547.59,-103.91 537.23,-101.69 538.1,-108.64"/>
</a>
</g>
</g>
<!-- Node2&#45;&gt;Node5 -->
<g id="edge11_Node000002_Node000005" class="edge">
<title>Node2&#45;&gt;Node5</title>
<g id="a_edge11_Node000002_Node000005"><a xlink:title=" ">
<path fill="none" stroke="#63b8ff" d="M541.49,-83.3C494.8,-76.76 433.86,-69.29 379.5,-66 330.48,-63.03 318.1,-64.84 269,-66 216.05,-67.25 155.71,-70.26 113.05,-72.65"/>
<polygon fill="#63b8ff" stroke="#63b8ff" points="540.85,-86.74 551.24,-84.68 541.83,-79.81 540.85,-86.74"/>
</a>
</g>
</g>
<!-- Node7 -->
<g id="Node000007" class="node">
<title>Node7</title>
<g id="a_Node000007"><a xlink:href="../../de/df0/_solver_8cpp_a2f37f06e8324a1ed6aa99efdbba81865.html#a2f37f06e8324a1ed6aa99efdbba81865" target="_top" xlink:title=" ">
<polygon fill="white" stroke="#666666" points="233,-160.62 148.75,-160.62 148.75,-141.38 233,-141.38 233,-160.62"/>
<text text-anchor="middle" x="190.88" y="-147.12" font-family="Helvetica,sans-Serif" font-size="10.00">Viscous_Solver</text>
</a>
</g>
</g>
<!-- Node2&#45;&gt;Node7 -->
<g id="edge16_Node000002_Node000007" class="edge">
<title>Node2&#45;&gt;Node7</title>
<g id="a_edge16_Node000002_Node000007"><a xlink:title=" ">
<path fill="none" stroke="#63b8ff" d="M600.83,-112.98C581.51,-131.63 548.33,-159.62 513.25,-171 412.75,-203.59 285.47,-177.16 225.74,-161.09"/>
<polygon fill="#63b8ff" stroke="#63b8ff" points="603.22,-115.53 607.84,-105.99 598.28,-110.57 603.22,-115.53"/>
</a>
</g>
</g>
<!-- Node8 -->
<g id="Node000008" class="node">
<title>Node8</title>
<g id="a_Node000008"><a xlink:href="../../db/d38/_parallel___numerical___method_8cpp_a263f3c36336c227c44f052b2ad122253.html#a263f3c36336c227c44f052b2ad122253" target="_top" xlink:title=" ">
<polygon fill="white" stroke="#666666" points="513.25,-161.62 415.5,-161.62 415.5,-142.38 513.25,-142.38 513.25,-161.62"/>
<text text-anchor="middle" x="464.38" y="-148.12" font-family="Helvetica,sans-Serif" font-size="10.00">PrecomputeFluxes</text>
</a>
</g>
</g>
<!-- Node2&#45;&gt;Node8 -->
<g id="edge9_Node000002_Node000008" class="edge">
<title>Node2&#45;&gt;Node8</title>
<g id="a_edge9_Node000002_Node000008"><a xlink:title=" ">
<path fill="none" stroke="#63b8ff" d="M580.44,-109.06C553.1,-119.26 516.78,-132.82 492.32,-141.95"/>
<polygon fill="#63b8ff" stroke="#63b8ff" points="581.6,-112.36 589.75,-105.59 579.16,-105.81 581.6,-112.36"/>
</a>
</g>
</g>
<!-- Node9 -->
<g id="Node000009" class="node">
<title>Node9</title>
<g id="a_Node000009"><a xlink:href="../../de/d22/_cuda___parallel___r_k_8cpp_a794f030971fbb7c9dd4bc08df03f50f1.html#a794f030971fbb7c9dd4bc08df03f50f1" target="_top" xlink:title=" ">
<polygon fill="white" stroke="#666666" points="379.5,-94.62 269,-94.62 269,-75.38 379.5,-75.38 379.5,-94.62"/>
<text text-anchor="middle" x="324.25" y="-81.12" font-family="Helvetica,sans-Serif" font-size="10.00">Runge_Kutta_Method</text>
</a>
</g>
</g>
<!-- Node2&#45;&gt;Node9 -->
<g id="edge12_Node000002_Node000009" class="edge">
<title>Node2&#45;&gt;Node9</title>
<g id="a_edge12_Node000002_Node000009"><a xlink:title=" ">
<path fill="none" stroke="#63b8ff" d="M537.6,-92.25C487.36,-90.54 424.04,-88.37 379.67,-86.86"/>
<polygon fill="#63b8ff" stroke="#63b8ff" points="537.46,-95.75 547.58,-92.59 537.7,-88.75 537.46,-95.75"/>
</a>
</g>
</g>
<!-- Node4 -->
<g id="Node000004" class="node">
<title>Node4</title>
<g id="a_Node000004"><a xlink:href="../../de/df0/_solver_8cpp_ad0f49408a26339b5f7043bf867c3fa8d.html#ad0f49408a26339b5f7043bf867c3fa8d" target="_top" xlink:title=" ">
<polygon fill="white" stroke="#666666" points="232.25,-123.62 149.5,-123.62 149.5,-104.38 232.25,-104.38 232.25,-123.62"/>
<text text-anchor="middle" x="190.88" y="-110.12" font-family="Helvetica,sans-Serif" font-size="10.00">Inviscid_Solver</text>
</a>
</g>
</g>
<!-- Node3&#45;&gt;Node4 -->
<g id="edge3_Node000003_Node000004" class="edge">
<title>Node3&#45;&gt;Node4</title>
<g id="a_edge3_Node000003_Node000004"><a xlink:title=" ">
<path fill="none" stroke="#63b8ff" d="M269.82,-124.68C257.45,-122.98 244.48,-121.21 232.74,-119.6"/>
<polygon fill="#63b8ff" stroke="#63b8ff" points="269.08,-128.11 279.46,-126 270.03,-121.18 269.08,-128.11"/>
</a>
</g>
</g>
<!-- Node3&#45;&gt;Node7 -->
<g id="edge6_Node000003_Node000007" class="edge">
<title>Node3&#45;&gt;Node7</title>
<g id="a_edge6_Node000003_Node000007"><a xlink:title=" ">
<path fill="none" stroke="#63b8ff" d="M269.93,-139.71C257.68,-141.48 244.84,-143.34 233.19,-145.02"/>
<polygon fill="#63b8ff" stroke="#63b8ff" points="270.06,-143.23 279.46,-138.33 269.06,-136.3 270.06,-143.23"/>
</a>
</g>
</g>
<!-- Node4&#45;&gt;Node5 -->
<g id="edge4_Node000004_Node000005" class="edge">
<title>Node4&#45;&gt;Node5</title>
<g id="a_edge4_Node000004_Node000005"><a xlink:title=" ">
<path fill="none" stroke="#63b8ff" d="M143.91,-100.82C126.96,-95.96 108.05,-90.53 92.24,-86"/>
<polygon fill="#63b8ff" stroke="#63b8ff" points="142.68,-104.11 153.26,-103.5 144.61,-97.38 142.68,-104.11"/>
</a>
</g>
</g>
<!-- Node6 -->
<g id="Node000006" class="node">
<title>Node6</title>
<g id="a_Node000006"><a xlink:href="../../d5/d12/_main_8cpp_a35d775933750ace299102f06a1712663.html#a35d775933750ace299102f06a1712663" target="_top" xlink:title="Executes the appropriate solver based on the simulation configuration.">
<polygon fill="white" stroke="#666666" points="85,-141.62 27.75,-141.62 27.75,-122.38 85,-122.38 85,-141.62"/>
<text text-anchor="middle" x="56.38" y="-128.12" font-family="Helvetica,sans-Serif" font-size="10.00">runSolver</text>
</a>
</g>
</g>
<!-- Node4&#45;&gt;Node6 -->
<g id="edge5_Node000004_Node000006" class="edge">
<title>Node4&#45;&gt;Node6</title>
<g id="a_edge5_Node000004_Node000006"><a xlink:title=" ">
<path fill="none" stroke="#63b8ff" d="M137.83,-121.07C119.9,-123.51 100.53,-126.14 85.28,-128.21"/>
<polygon fill="#63b8ff" stroke="#63b8ff" points="138.1,-124.57 147.54,-119.75 137.16,-117.63 138.1,-124.57"/>
</a>
</g>
</g>
<!-- Node7&#45;&gt;Node5 -->
<g id="edge7_Node000007_Node000005" class="edge">
<title>Node7&#45;&gt;Node5</title>
<g id="a_edge7_Node000007_Node000005"><a xlink:title=" ">
<path fill="none" stroke="#63b8ff" d="M154.82,-136.07C152.75,-135.06 150.71,-134.04 148.75,-133 120.63,-118.18 89.56,-97.91 71.86,-85.96"/>
<polygon fill="#63b8ff" stroke="#63b8ff" points="153.33,-139.24 163.87,-140.28 156.27,-132.89 153.33,-139.24"/>
</a>
</g>
</g>
<!-- Node7&#45;&gt;Node6 -->
<g id="edge8_Node000007_Node000006" class="edge">
<title>Node7&#45;&gt;Node6</title>
<g id="a_edge8_Node000007_Node000006"><a xlink:title=" ">
<path fill="none" stroke="#63b8ff" d="M136.97,-143.41C119.33,-140.88 100.37,-138.17 85.38,-136.02"/>
<polygon fill="#63b8ff" stroke="#63b8ff" points="136.42,-146.87 146.82,-144.83 137.41,-139.94 136.42,-146.87"/>
</a>
</g>
</g>
<!-- Node8&#45;&gt;Node3 -->
<g id="edge10_Node000008_Node000003" class="edge">
<title>Node8&#45;&gt;Node3</title>
<g id="a_edge10_Node000008_Node000003"><a xlink:title=" ">
<path fill="none" stroke="#63b8ff" d="M403.92,-143.39C391.6,-141.61 378.87,-139.76 367.33,-138.09"/>
<polygon fill="#63b8ff" stroke="#63b8ff" points="403.17,-146.82 413.57,-144.79 404.17,-139.89 403.17,-146.82"/>
</a>
</g>
</g>
<!-- Node9&#45;&gt;Node4 -->
<g id="edge13_Node000009_Node000004" class="edge">
<title>Node9&#45;&gt;Node4</title>
<g id="a_edge13_Node000009_Node000004"><a xlink:title=" ">
<path fill="none" stroke="#63b8ff" d="M266.44,-97.54C255.03,-100.06 243.27,-102.66 232.54,-105.02"/>
<polygon fill="#63b8ff" stroke="#63b8ff" points="267.18,-100.96 276.19,-95.39 265.67,-94.13 267.18,-100.96"/>
</a>
</g>
</g>
<!-- Node9&#45;&gt;Node5 -->
<g id="edge14_Node000009_Node000005" class="edge">
<title>Node9&#45;&gt;Node5</title>
<g id="a_edge14_Node000009_Node000005"><a xlink:title=" ">
<path fill="none" stroke="#63b8ff" d="M257.54,-82.78C213.17,-81.27 155.24,-79.31 113.12,-77.89"/>
<polygon fill="#63b8ff" stroke="#63b8ff" points="257.18,-86.27 267.29,-83.11 257.42,-79.27 257.18,-86.27"/>
</a>
</g>
</g>
<!-- Node9&#45;&gt;Node7 -->
<g id="edge15_Node000009_Node000007" class="edge">
<title>Node9&#45;&gt;Node7</title>
<g id="a_edge15_Node000009_Node000007"><a xlink:title=" ">
<path fill="none" stroke="#63b8ff" d="M293.36,-100.22C285.41,-104.32 276.86,-108.79 269,-113 252.87,-121.64 249.4,-124.88 233,-133 227.55,-135.7 221.61,-138.42 215.97,-140.91"/>
<polygon fill="#63b8ff" stroke="#63b8ff" points="294.69,-103.47 301.99,-95.79 291.49,-97.24 294.69,-103.47"/>
</a>
</g>
</g>
</g>
</svg>
