<?xml version="1.0" encoding="UTF-8" standalone="no"?>
<!DOCTYPE svg PUBLIC "-//W3C//DTD SVG 1.1//EN"
 "http://www.w3.org/Graphics/SVG/1.1/DTD/svg11.dtd">
<!-- Generated by graphviz version 12.2.1 (20241206.2353)
 -->
<!-- Title: Object::write_output Pages: 1 -->
<svg width="237pt" height="101pt"
 viewBox="0.00 0.00 236.50 101.25" xmlns="http://www.w3.org/2000/svg" xmlns:xlink="http://www.w3.org/1999/xlink">
<g id="graph0" class="graph" transform="scale(1 1) rotate(0) translate(4 97.25)">
<title>Object::write_output</title>
<!-- Node1 -->
<g id="Node000001" class="node">
<title>Node1</title>
<g id="a_Node000001"><a xlink:title=" ">
<polygon fill="#999999" stroke="#666666" points="103.75,-56.25 0,-56.25 0,-37 103.75,-37 103.75,-56.25"/>
<text text-anchor="middle" x="51.88" y="-42.75" font-family="Helvetica,sans-Serif" font-size="10.00">Object::write_output</text>
</a>
</g>
</g>
<!-- Node2 -->
<g id="Node000002" class="node">
<title>Node2</title>
<g id="a_Node000002"><a xlink:href="../../d0/d88/class_circle_a2928fbb3c55699525f858d6c05dcf1ef.html#a2928fbb3c55699525f858d6c05dcf1ef" target="_top" xlink:title=" ">
<polygon fill="white" stroke="#666666" points="228.5,-93.25 139.75,-93.25 139.75,-74 228.5,-74 228.5,-93.25"/>
<text text-anchor="middle" x="184.12" y="-79.75" font-family="Helvetica,sans-Serif" font-size="10.00">Circle::get_Point</text>
</a>
</g>
</g>
<!-- Node1&#45;&gt;Node2 -->
<g id="edge1_Node000001_Node000002" class="edge">
<title>Node1&#45;&gt;Node2</title>
<g id="a_edge1_Node000001_Node000002"><a xlink:title=" ">
<path fill="none" stroke="#63b8ff" d="M88.47,-56.74C103.4,-60.98 120.96,-65.97 136.87,-70.49"/>
<polygon fill="#63b8ff" stroke="#63b8ff" points="135.54,-73.75 146.12,-73.11 137.46,-67.01 135.54,-73.75"/>
</a>
</g>
</g>
<!-- Node3 -->
<g id="Node000003" class="node">
<title>Node3</title>
<g id="a_Node000003"><a xlink:href="../../d0/d69/class_point_abbb39fe4de098ab24cd45d251656f080.html#abbb39fe4de098ab24cd45d251656f080" target="_top" xlink:title=" ">
<polygon fill="white" stroke="#666666" points="219.5,-56.25 148.75,-56.25 148.75,-37 219.5,-37 219.5,-56.25"/>
<text text-anchor="middle" x="184.12" y="-42.75" font-family="Helvetica,sans-Serif" font-size="10.00">Point::Get_x</text>
</a>
</g>
</g>
<!-- Node1&#45;&gt;Node3 -->
<g id="edge2_Node000001_Node000003" class="edge">
<title>Node1&#45;&gt;Node3</title>
<g id="a_edge2_Node000001_Node000003"><a xlink:title=" ">
<path fill="none" stroke="#63b8ff" d="M103.98,-46.62C114.97,-46.62 126.52,-46.62 137.3,-46.62"/>
<polygon fill="#63b8ff" stroke="#63b8ff" points="137.11,-50.13 147.11,-46.63 137.11,-43.13 137.11,-50.13"/>
</a>
</g>
</g>
<!-- Node4 -->
<g id="Node000004" class="node">
<title>Node4</title>
<g id="a_Node000004"><a xlink:href="../../d0/d69/class_point_aa0c14d8298c960cc61ebeb5fbe33653b.html#aa0c14d8298c960cc61ebeb5fbe33653b" target="_top" xlink:title=" ">
<polygon fill="white" stroke="#666666" points="219.5,-19.25 148.75,-19.25 148.75,0 219.5,0 219.5,-19.25"/>
<text text-anchor="middle" x="184.12" y="-5.75" font-family="Helvetica,sans-Serif" font-size="10.00">Point::Get_y</text>
</a>
</g>
</g>
<!-- Node1&#45;&gt;Node4 -->
<g id="edge3_Node000001_Node000004" class="edge">
<title>Node1&#45;&gt;Node4</title>
<g id="a_edge3_Node000001_Node000004"><a xlink:title=" ">
<path fill="none" stroke="#63b8ff" d="M88.47,-36.51C103.64,-32.2 121.54,-27.12 137.66,-22.54"/>
<polygon fill="#63b8ff" stroke="#63b8ff" points="138.36,-25.98 147.02,-19.88 136.45,-19.25 138.36,-25.98"/>
</a>
</g>
</g>
</g>
</svg>
