<?xml version="1.0" encoding="UTF-8" standalone="no"?>
<!DOCTYPE svg PUBLIC "-//W3C//DTD SVG 1.1//EN"
 "http://www.w3.org/Graphics/SVG/1.1/DTD/svg11.dtd">
<!-- Generated by graphviz version 12.2.1 (20241206.2353)
 -->
<!-- Title: Object::write_output Pages: 1 -->
<svg width="229pt" height="101pt"
 viewBox="0.00 0.00 229.00 101.25" xmlns="http://www.w3.org/2000/svg" xmlns:xlink="http://www.w3.org/1999/xlink">
<g id="graph0" class="graph" transform="scale(1 1) rotate(0) translate(4 97.25)">
<title>Object::write_output</title>
<!-- Node1 -->
<g id="Node000001" class="node">
<title>Node1</title>
<g id="a_Node000001"><a xlink:title=" ">
<polygon fill="#999999" stroke="#666666" points="103.75,-56.25 0,-56.25 0,-37 103.75,-37 103.75,-56.25"/>
<text text-anchor="middle" x="51.88" y="-42.75" font-family="Helvetica,sans-Serif" font-size="10.00">Object::write_output</text>
</a>
</g>
</g>
<!-- Node2 -->
<g id="Node000002" class="node">
<title>Node2</title>
<g id="a_Node000002"><a xlink:href="../../dd/db4/class_line_ab0f5f50b2b81a1b73f00497ff8c25a3d.html#ab0f5f50b2b81a1b73f00497ff8c25a3d" target="_top" xlink:title=" ">
<polygon fill="white" stroke="#666666" points="221,-93.25 139.75,-93.25 139.75,-74 221,-74 221,-93.25"/>
<text text-anchor="middle" x="180.38" y="-79.75" font-family="Helvetica,sans-Serif" font-size="10.00">Line::get_Point</text>
</a>
</g>
</g>
<!-- Node1&#45;&gt;Node2 -->
<g id="edge1_Node000001_Node000002" class="edge">
<title>Node1&#45;&gt;Node2</title>
<g id="a_edge1_Node000001_Node000002"><a xlink:title=" ">
<path fill="none" stroke="#63b8ff" d="M87.44,-56.74C101.8,-60.94 118.67,-65.87 134.01,-70.36"/>
<polygon fill="#63b8ff" stroke="#63b8ff" points="132.82,-73.65 143.4,-73.1 134.78,-66.94 132.82,-73.65"/>
</a>
</g>
</g>
<!-- Node3 -->
<g id="Node000003" class="node">
<title>Node3</title>
<g id="a_Node000003"><a xlink:href="../../d0/d69/class_point_abbb39fe4de098ab24cd45d251656f080.html#abbb39fe4de098ab24cd45d251656f080" target="_top" xlink:title=" ">
<polygon fill="white" stroke="#666666" points="215.75,-56.25 145,-56.25 145,-37 215.75,-37 215.75,-56.25"/>
<text text-anchor="middle" x="180.38" y="-42.75" font-family="Helvetica,sans-Serif" font-size="10.00">Point::Get_x</text>
</a>
</g>
</g>
<!-- Node1&#45;&gt;Node3 -->
<g id="edge2_Node000001_Node000003" class="edge">
<title>Node1&#45;&gt;Node3</title>
<g id="a_edge2_Node000001_Node000003"><a xlink:title=" ">
<path fill="none" stroke="#63b8ff" d="M103.96,-46.62C113.71,-46.62 123.86,-46.62 133.44,-46.62"/>
<polygon fill="#63b8ff" stroke="#63b8ff" points="133.26,-50.13 143.26,-46.63 133.26,-43.13 133.26,-50.13"/>
</a>
</g>
</g>
<!-- Node4 -->
<g id="Node000004" class="node">
<title>Node4</title>
<g id="a_Node000004"><a xlink:href="../../d0/d69/class_point_aa0c14d8298c960cc61ebeb5fbe33653b.html#aa0c14d8298c960cc61ebeb5fbe33653b" target="_top" xlink:title=" ">
<polygon fill="white" stroke="#666666" points="215.75,-19.25 145,-19.25 145,0 215.75,0 215.75,-19.25"/>
<text text-anchor="middle" x="180.38" y="-5.75" font-family="Helvetica,sans-Serif" font-size="10.00">Point::Get_y</text>
</a>
</g>
</g>
<!-- Node1&#45;&gt;Node4 -->
<g id="edge3_Node000001_Node000004" class="edge">
<title>Node1&#45;&gt;Node4</title>
<g id="a_edge3_Node000001_Node000004"><a xlink:title=" ">
<path fill="none" stroke="#63b8ff" d="M87.44,-36.51C101.8,-32.31 118.67,-27.38 134.01,-22.89"/>
<polygon fill="#63b8ff" stroke="#63b8ff" points="134.78,-26.31 143.4,-20.15 132.82,-19.6 134.78,-26.31"/>
</a>
</g>
</g>
</g>
</svg>
