<?xml version="1.0" encoding="UTF-8" standalone="no"?>
<!DOCTYPE svg PUBLIC "-//W3C//DTD SVG 1.1//EN"
 "http://www.w3.org/Graphics/SVG/1.1/DTD/svg11.dtd">
<!-- Generated by graphviz version 12.2.1 (20241206.2353)
 -->
<!-- Title: readInitialConditions Pages: 1 -->
<svg width="491pt" height="64pt"
 viewBox="0.00 0.00 490.50 64.25" xmlns="http://www.w3.org/2000/svg" xmlns:xlink="http://www.w3.org/1999/xlink">
<g id="graph0" class="graph" transform="scale(1 1) rotate(0) translate(4 60.25)">
<title>readInitialConditions</title>
<!-- Node1 -->
<g id="Node000001" class="node">
<title>Node1</title>
<g id="a_Node000001"><a xlink:title=" ">
<polygon fill="#999999" stroke="#666666" points="482.5,-37.25 378,-37.25 378,-18 482.5,-18 482.5,-37.25"/>
<text text-anchor="middle" x="430.25" y="-23.75" font-family="Helvetica,sans-Serif" font-size="10.00">readInitialConditions</text>
</a>
</g>
</g>
<!-- Node2 -->
<g id="Node000002" class="node">
<title>Node2</title>
<g id="a_Node000002"><a xlink:href="../../d0/d3f/_channel___flow_8cpp_a986df1d2277d1fc7e22408557f29c135.html#a986df1d2277d1fc7e22408557f29c135" target="_top" xlink:title=" ">
<polygon fill="white" stroke="#666666" points="330.38,-56.25 252.12,-56.25 252.12,-37 330.38,-37 330.38,-56.25"/>
<text text-anchor="middle" x="291.25" y="-42.75" font-family="Helvetica,sans-Serif" font-size="10.00">Channel_Flow</text>
</a>
</g>
</g>
<!-- Node1&#45;&gt;Node2 -->
<g id="edge1_Node000001_Node000002" class="edge">
<title>Node1&#45;&gt;Node2</title>
<g id="a_edge1_Node000001_Node000002"><a xlink:title=" ">
<path fill="none" stroke="#63b8ff" d="M366.69,-36.3C354.4,-38.01 341.87,-39.74 330.67,-41.3"/>
<polygon fill="#63b8ff" stroke="#63b8ff" points="366.92,-39.8 376.35,-34.96 365.96,-32.87 366.92,-39.8"/>
</a>
</g>
</g>
<!-- Node5 -->
<g id="Node000005" class="node">
<title>Node5</title>
<g id="a_Node000005"><a xlink:href="../../df/dee/_half___cylinder___test___case_8cpp_ad6cb651752c2dd1cb946428572cfb769.html#ad6cb651752c2dd1cb946428572cfb769" target="_top" xlink:title=" ">
<polygon fill="white" stroke="#666666" points="342,-19.25 240.5,-19.25 240.5,0 342,0 342,-19.25"/>
<text text-anchor="middle" x="291.25" y="-5.75" font-family="Helvetica,sans-Serif" font-size="10.00">Half_Cylinder_Flow</text>
</a>
</g>
</g>
<!-- Node1&#45;&gt;Node5 -->
<g id="edge5_Node000001_Node000005" class="edge">
<title>Node1&#45;&gt;Node5</title>
<g id="a_edge5_Node000001_Node000005"><a xlink:title=" ">
<path fill="none" stroke="#63b8ff" d="M366.44,-19.37C358.29,-18.3 350.03,-17.22 342.12,-16.18"/>
<polygon fill="#63b8ff" stroke="#63b8ff" points="365.98,-22.84 376.35,-20.67 366.89,-15.9 365.98,-22.84"/>
</a>
</g>
</g>
<!-- Node3 -->
<g id="Node000003" class="node">
<title>Node3</title>
<g id="a_Node000003"><a xlink:href="../../dd/dbf/_euler___python___wrapper_8cpp_ac5ccb50c3be270f798e054dd36987442.html#ac5ccb50c3be270f798e054dd36987442" target="_top" xlink:title=" ">
<polygon fill="white" stroke="#666666" points="112.75,-38.25 0,-38.25 0,-19 112.75,-19 112.75,-38.25"/>
<text text-anchor="middle" x="56.38" y="-24.75" font-family="Helvetica,sans-Serif" font-size="10.00">PYBIND11_MODULE</text>
</a>
</g>
</g>
<!-- Node2&#45;&gt;Node3 -->
<g id="edge2_Node000002_Node000003" class="edge">
<title>Node2&#45;&gt;Node3</title>
<g id="a_edge2_Node000002_Node000003"><a xlink:title=" ">
<path fill="none" stroke="#63b8ff" d="M240.37,-47.3C228.61,-47.44 216.11,-47.56 204.5,-47.62 179.72,-47.77 173.4,-50.16 148.75,-47.62 131.66,-45.87 113.06,-42.31 97.13,-38.74"/>
<polygon fill="#63b8ff" stroke="#63b8ff" points="240.36,-50.81 250.32,-47.19 240.28,-43.81 240.36,-50.81"/>
</a>
</g>
</g>
<!-- Node4 -->
<g id="Node000004" class="node">
<title>Node4</title>
<g id="a_Node000004"><a xlink:href="../../d0/de9/_configuration___read_8cpp_a32d98c169e6f866c6411c53d5758292e.html#a32d98c169e6f866c6411c53d5758292e" target="_top" xlink:title=" ">
<polygon fill="white" stroke="#666666" points="204.5,-38.25 148.75,-38.25 148.75,-19 204.5,-19 204.5,-38.25"/>
<text text-anchor="middle" x="176.62" y="-24.75" font-family="Helvetica,sans-Serif" font-size="10.00">testCase</text>
</a>
</g>
</g>
<!-- Node2&#45;&gt;Node4 -->
<g id="edge3_Node000002_Node000004" class="edge">
<title>Node2&#45;&gt;Node4</title>
<g id="a_edge3_Node000002_Node000004"><a xlink:title=" ">
<path fill="none" stroke="#63b8ff" d="M240.7,-38.71C228.4,-36.74 215.67,-34.71 204.89,-32.98"/>
<polygon fill="#63b8ff" stroke="#63b8ff" points="239.88,-42.12 250.31,-40.24 240.99,-35.21 239.88,-42.12"/>
</a>
</g>
</g>
<!-- Node4&#45;&gt;Node3 -->
<g id="edge4_Node000004_Node000003" class="edge">
<title>Node4&#45;&gt;Node3</title>
<g id="a_edge4_Node000004_Node000003"><a xlink:title=" ">
<path fill="none" stroke="#63b8ff" d="M137.19,-28.62C129.41,-28.62 121.08,-28.62 112.85,-28.62"/>
<polygon fill="#63b8ff" stroke="#63b8ff" points="136.98,-32.13 146.98,-28.63 136.98,-25.13 136.98,-32.13"/>
</a>
</g>
</g>
<!-- Node5&#45;&gt;Node3 -->
<g id="edge6_Node000005_Node000003" class="edge">
<title>Node5&#45;&gt;Node3</title>
<g id="a_edge6_Node000005_Node000003"><a xlink:title=" ">
<path fill="none" stroke="#63b8ff" d="M228.55,-6.89C203.7,-6.5 174.8,-6.94 148.75,-9.62 131.66,-11.38 113.06,-14.94 97.13,-18.51"/>
<polygon fill="#63b8ff" stroke="#63b8ff" points="228.44,-10.39 238.51,-7.1 228.59,-3.39 228.44,-10.39"/>
</a>
</g>
</g>
<!-- Node5&#45;&gt;Node4 -->
<g id="edge7_Node000005_Node000004" class="edge">
<title>Node5&#45;&gt;Node4</title>
<g id="a_edge7_Node000005_Node000004"><a xlink:title=" ">
<path fill="none" stroke="#63b8ff" d="M229.09,-19.94C220.66,-21.37 212.37,-22.76 204.99,-24.01"/>
<polygon fill="#63b8ff" stroke="#63b8ff" points="229.42,-23.44 238.7,-18.32 228.26,-16.53 229.42,-23.44"/>
</a>
</g>
</g>
</g>
</svg>
