<?xml version="1.0" encoding="UTF-8" standalone="no"?>
<!DOCTYPE svg PUBLIC "-//W3C//DTD SVG 1.1//EN"
 "http://www.w3.org/Graphics/SVG/1.1/DTD/svg11.dtd">
<!-- Generated by graphviz version 12.2.1 (20241206.2353)
 -->
<!-- Title: run_grid_performance_benchmark Pages: 1 -->
<svg width="949pt" height="410pt"
 viewBox="0.00 0.00 949.25 409.88" xmlns="http://www.w3.org/2000/svg" xmlns:xlink="http://www.w3.org/1999/xlink">
<g id="graph0" class="graph" transform="scale(1 1) rotate(0) translate(4 405.88)">
<title>run_grid_performance_benchmark</title>
<!-- Node1 -->
<g id="Node000001" class="node">
<title>Node1</title>
<g id="a_Node000001"><a xlink:title=" ">
<polygon fill="#999999" stroke="#666666" points="109.75,-260.88 0,-260.88 0,-230.38 109.75,-230.38 109.75,-260.88"/>
<text text-anchor="start" x="8" y="-247.38" font-family="Helvetica,sans-Serif" font-size="10.00">run_grid_performance</text>
<text text-anchor="middle" x="54.88" y="-236.12" font-family="Helvetica,sans-Serif" font-size="10.00">_benchmark</text>
</a>
</g>
</g>
<!-- Node2 -->
<g id="Node000002" class="node">
<title>Node2</title>
<g id="a_Node000002"><a xlink:href="../../d3/de1/class_grid_performance_benchmark_a6a31f6642222905776b59d5fc6ec1364.html#a6a31f6642222905776b59d5fc6ec1364" target="_top" xlink:title=" ">
<polygon fill="white" stroke="#666666" points="284.75,-260.88 145.75,-260.88 145.75,-230.38 284.75,-230.38 284.75,-260.88"/>
<text text-anchor="start" x="153.75" y="-247.38" font-family="Helvetica,sans-Serif" font-size="10.00">GridPerformanceBenchmark</text>
<text text-anchor="middle" x="215.25" y="-236.12" font-family="Helvetica,sans-Serif" font-size="10.00">::run_complete_benchmark</text>
</a>
</g>
</g>
<!-- Node1&#45;&gt;Node2 -->
<g id="edge1_Node000001_Node000002" class="edge">
<title>Node1&#45;&gt;Node2</title>
<g id="a_edge1_Node000001_Node000002"><a xlink:title=" ">
<path fill="none" stroke="#63b8ff" d="M109.94,-245.62C117.67,-245.62 125.76,-245.62 133.87,-245.62"/>
<polygon fill="#63b8ff" stroke="#63b8ff" points="133.8,-249.13 143.8,-245.63 133.8,-242.13 133.8,-249.13"/>
</a>
</g>
</g>
<!-- Node3 -->
<g id="Node000003" class="node">
<title>Node3</title>
<g id="a_Node000003"><a xlink:href="../../d3/de1/class_grid_performance_benchmark_a8db91c8c537607329fd9b6730bc7ae10.html#a8db91c8c537607329fd9b6730bc7ae10" target="_top" xlink:title=" ">
<polygon fill="white" stroke="#666666" points="474.75,-401.88 335.75,-401.88 335.75,-371.38 474.75,-371.38 474.75,-401.88"/>
<text text-anchor="start" x="343.75" y="-388.38" font-family="Helvetica,sans-Serif" font-size="10.00">GridPerformanceBenchmark</text>
<text text-anchor="middle" x="405.25" y="-377.12" font-family="Helvetica,sans-Serif" font-size="10.00">::analyze_memory_usage</text>
</a>
</g>
</g>
<!-- Node2&#45;&gt;Node3 -->
<g id="edge2_Node000002_Node000003" class="edge">
<title>Node2&#45;&gt;Node3</title>
<g id="a_edge2_Node000002_Node000003"><a xlink:title=" ">
<path fill="none" stroke="#63b8ff" d="M226.13,-261.26C242.67,-286.17 278.38,-334.81 320.75,-361.62 323.3,-363.24 325.96,-364.75 328.69,-366.17"/>
<polygon fill="#63b8ff" stroke="#63b8ff" points="326.96,-369.23 337.51,-370.27 329.92,-362.88 326.96,-369.23"/>
</a>
</g>
</g>
<!-- Node4 -->
<g id="Node000004" class="node">
<title>Node4</title>
<g id="a_Node000004"><a xlink:href="../../d3/de1/class_grid_performance_benchmark_a7cf9619c8391e4f889ed9d1c52b003cc.html#a7cf9619c8391e4f889ed9d1c52b003cc" target="_top" xlink:title=" ">
<polygon fill="white" stroke="#666666" points="480.75,-303.88 329.75,-303.88 329.75,-273.38 480.75,-273.38 480.75,-303.88"/>
<text text-anchor="start" x="337.75" y="-290.38" font-family="Helvetica,sans-Serif" font-size="10.00">GridPerformanceBenchmark</text>
<text text-anchor="middle" x="405.25" y="-279.12" font-family="Helvetica,sans-Serif" font-size="10.00">::analyze_performance_scaling</text>
</a>
</g>
</g>
<!-- Node2&#45;&gt;Node4 -->
<g id="edge3_Node000002_Node000004" class="edge">
<title>Node2&#45;&gt;Node4</title>
<g id="a_edge3_Node000002_Node000004"><a xlink:title=" ">
<path fill="none" stroke="#63b8ff" d="M284.92,-261.33C297.79,-264.27 311.34,-267.37 324.5,-270.39"/>
<polygon fill="#63b8ff" stroke="#63b8ff" points="323.45,-273.73 333.98,-272.55 325.01,-266.91 323.45,-273.73"/>
</a>
</g>
</g>
<!-- Node8 -->
<g id="Node000008" class="node">
<title>Node8</title>
<g id="a_Node000008"><a xlink:href="../../d3/de1/class_grid_performance_benchmark_a317e26aa78d349818262ba23f31d99fc.html#a317e26aa78d349818262ba23f31d99fc" target="_top" xlink:title=" ">
<polygon fill="white" stroke="#666666" points="664.75,-288.88 525.75,-288.88 525.75,-258.38 664.75,-258.38 664.75,-288.88"/>
<text text-anchor="start" x="533.75" y="-275.38" font-family="Helvetica,sans-Serif" font-size="10.00">GridPerformanceBenchmark</text>
<text text-anchor="middle" x="595.25" y="-264.12" font-family="Helvetica,sans-Serif" font-size="10.00">::generate_test_grid</text>
</a>
</g>
</g>
<!-- Node2&#45;&gt;Node8 -->
<g id="edge28_Node000002_Node000008" class="edge">
<title>Node2&#45;&gt;Node8</title>
<g id="a_edge28_Node000002_Node000008"><a xlink:title=" ">
<path fill="none" stroke="#63b8ff" d="M285.12,-250.09C340.44,-253.76 420.11,-259.21 489.75,-264.62 497.68,-265.24 505.94,-265.91 514.19,-266.59"/>
<polygon fill="#63b8ff" stroke="#63b8ff" points="513.64,-270.06 523.9,-267.41 514.22,-263.08 513.64,-270.06"/>
</a>
</g>
</g>
<!-- Node9 -->
<g id="Node000009" class="node">
<title>Node9</title>
<g id="a_Node000009"><a xlink:href="../../d3/de1/class_grid_performance_benchmark_a6287a0ff24d43276bcedb01cc2493ab2.html#a6287a0ff24d43276bcedb01cc2493ab2" target="_top" xlink:title=" ">
<polygon fill="white" stroke="#666666" points="479.62,-352.88 330.88,-352.88 330.88,-322.38 479.62,-322.38 479.62,-352.88"/>
<text text-anchor="start" x="338.88" y="-339.38" font-family="Helvetica,sans-Serif" font-size="10.00">GridPerformanceBenchmark</text>
<text text-anchor="middle" x="405.25" y="-328.12" font-family="Helvetica,sans-Serif" font-size="10.00">::benchmark_cell_construction</text>
</a>
</g>
</g>
<!-- Node2&#45;&gt;Node9 -->
<g id="edge8_Node000002_Node000009" class="edge">
<title>Node2&#45;&gt;Node9</title>
<g id="a_edge8_Node000002_Node000009"><a xlink:title=" ">
<path fill="none" stroke="#63b8ff" d="M236.86,-261.32C257.25,-276.22 289.81,-298.41 320.75,-312.62 325,-314.58 329.45,-316.43 333.98,-318.16"/>
<polygon fill="#63b8ff" stroke="#63b8ff" points="332.63,-321.4 343.22,-321.5 335,-314.81 332.63,-321.4"/>
</a>
</g>
</g>
<!-- Node10 -->
<g id="Node000010" class="node">
<title>Node10</title>
<g id="a_Node000010"><a xlink:href="../../d3/de1/class_grid_performance_benchmark_a8304b3cde0e7f9ad1d1b72c9354b8e8f.html#a8304b3cde0e7f9ad1d1b72c9354b8e8f" target="_top" xlink:title=" ">
<polygon fill="white" stroke="#666666" points="489.75,-217.88 320.75,-217.88 320.75,-187.38 489.75,-187.38 489.75,-217.88"/>
<text text-anchor="start" x="328.75" y="-204.38" font-family="Helvetica,sans-Serif" font-size="10.00">GridPerformanceBenchmark</text>
<text text-anchor="middle" x="405.25" y="-193.12" font-family="Helvetica,sans-Serif" font-size="10.00">::benchmark_distance_calculations</text>
</a>
</g>
</g>
<!-- Node2&#45;&gt;Node10 -->
<g id="edge11_Node000002_Node000010" class="edge">
<title>Node2&#45;&gt;Node10</title>
<g id="a_edge11_Node000002_Node000010"><a xlink:title=" ">
<path fill="none" stroke="#63b8ff" d="M284.92,-229.92C297.79,-226.98 311.34,-223.88 324.5,-220.86"/>
<polygon fill="#63b8ff" stroke="#63b8ff" points="325.01,-224.34 333.98,-218.7 323.45,-217.52 325.01,-224.34"/>
</a>
</g>
</g>
<!-- Node16 -->
<g id="Node000016" class="node">
<title>Node16</title>
<g id="a_Node000016"><a xlink:href="../../d3/de1/class_grid_performance_benchmark_ac103c54d6f481930ad560f597b7f3bce.html#ac103c54d6f481930ad560f597b7f3bce" target="_top" xlink:title=" ">
<polygon fill="white" stroke="#666666" points="474.75,-162.88 335.75,-162.88 335.75,-132.38 474.75,-132.38 474.75,-162.88"/>
<text text-anchor="start" x="343.75" y="-149.38" font-family="Helvetica,sans-Serif" font-size="10.00">GridPerformanceBenchmark</text>
<text text-anchor="middle" x="405.25" y="-138.12" font-family="Helvetica,sans-Serif" font-size="10.00">::benchmark_point_sorting</text>
</a>
</g>
</g>
<!-- Node2&#45;&gt;Node16 -->
<g id="edge17_Node000002_Node000016" class="edge">
<title>Node2&#45;&gt;Node16</title>
<g id="a_edge17_Node000002_Node000016"><a xlink:title=" ">
<path fill="none" stroke="#63b8ff" d="M237.46,-230.09C258.03,-215.51 290.47,-193.73 320.75,-178.62 328.82,-174.6 337.54,-170.8 346.2,-167.33"/>
<polygon fill="#63b8ff" stroke="#63b8ff" points="347.21,-170.69 355.28,-163.82 344.69,-164.17 347.21,-170.69"/>
</a>
</g>
</g>
<!-- Node25 -->
<g id="Node000025" class="node">
<title>Node25</title>
<g id="a_Node000025"><a xlink:href="../../d3/de1/class_grid_performance_benchmark_aeccf441aaee31fc377fc90531ff1d1c0.html#aeccf441aaee31fc377fc90531ff1d1c0" target="_top" xlink:title=" ">
<polygon fill="white" stroke="#666666" points="479.62,-113.88 330.88,-113.88 330.88,-83.38 479.62,-83.38 479.62,-113.88"/>
<text text-anchor="start" x="338.88" y="-100.38" font-family="Helvetica,sans-Serif" font-size="10.00">GridPerformanceBenchmark</text>
<text text-anchor="middle" x="405.25" y="-89.12" font-family="Helvetica,sans-Serif" font-size="10.00">::generate_performance_report</text>
</a>
</g>
</g>
<!-- Node2&#45;&gt;Node25 -->
<g id="edge27_Node000002_Node000025" class="edge">
<title>Node2&#45;&gt;Node25</title>
<g id="a_edge27_Node000002_Node000025"><a xlink:title=" ">
<path fill="none" stroke="#63b8ff" d="M225.4,-230.01C241.42,-204.05 277.03,-152.06 320.75,-123.62 323.28,-121.98 325.92,-120.44 328.64,-119"/>
<polygon fill="#63b8ff" stroke="#63b8ff" points="329.88,-122.28 337.42,-114.84 326.88,-115.96 329.88,-122.28"/>
</a>
</g>
</g>
<!-- Node5 -->
<g id="Node000005" class="node">
<title>Node5</title>
<g id="a_Node000005"><a xlink:href="../../d8/d40/_grid___computations_8cpp_a2d284e26ddef582519953e8b8300184e.html#a2d284e26ddef582519953e8b8300184e" target="_top" xlink:title=" ">
<polygon fill="white" stroke="#666666" points="635.88,-363.25 554.62,-363.25 554.62,-344 635.88,-344 635.88,-363.25"/>
<text text-anchor="middle" x="595.25" y="-349.75" font-family="Helvetica,sans-Serif" font-size="10.00">Construct_Cell</text>
</a>
</g>
</g>
<!-- Node4&#45;&gt;Node5 -->
<g id="edge4_Node000004_Node000005" class="edge">
<title>Node4&#45;&gt;Node5</title>
<g id="a_edge4_Node000004_Node000005"><a xlink:title=" ">
<path fill="none" stroke="#63b8ff" d="M465.34,-304.24C473.66,-307.03 482.01,-310.17 489.75,-313.62 506.87,-321.27 508.5,-328.28 525.75,-335.62 531.41,-338.03 537.47,-340.19 543.56,-342.1"/>
<polygon fill="#63b8ff" stroke="#63b8ff" points="542.44,-345.42 553.02,-344.84 544.39,-338.7 542.44,-345.42"/>
</a>
</g>
</g>
<!-- Node6 -->
<g id="Node000006" class="node">
<title>Node6</title>
<g id="a_Node000006"><a xlink:href="../../d8/d24/_grid___computations___optimized_8cpp_a092b66b03987591a3eee8d8d659c50f5.html#a092b66b03987591a3eee8d8d659c50f5" target="_top" xlink:title=" ">
<polygon fill="white" stroke="#666666" points="660.62,-326.25 529.88,-326.25 529.88,-307 660.62,-307 660.62,-326.25"/>
<text text-anchor="middle" x="595.25" y="-312.75" font-family="Helvetica,sans-Serif" font-size="10.00">Construct_Cell_Optimized</text>
</a>
</g>
</g>
<!-- Node4&#45;&gt;Node6 -->
<g id="edge5_Node000004_Node000006" class="edge">
<title>Node4&#45;&gt;Node6</title>
<g id="a_edge5_Node000004_Node000006"><a xlink:title=" ">
<path fill="none" stroke="#63b8ff" d="M481.09,-299.77C493.4,-301.6 506.17,-303.51 518.5,-305.34"/>
<polygon fill="#63b8ff" stroke="#63b8ff" points="517.77,-308.77 528.18,-306.78 518.8,-301.85 517.77,-308.77"/>
</a>
</g>
</g>
<!-- Node4&#45;&gt;Node8 -->
<g id="edge7_Node000004_Node000008" class="edge">
<title>Node4&#45;&gt;Node8</title>
<g id="a_edge7_Node000004_Node000008"><a xlink:title=" ">
<path fill="none" stroke="#63b8ff" d="M481.09,-282.65C491.96,-281.79 503.18,-280.89 514.15,-280.02"/>
<polygon fill="#63b8ff" stroke="#63b8ff" points="514.26,-283.52 523.95,-279.23 513.7,-276.54 514.26,-283.52"/>
</a>
</g>
</g>
<!-- Node7 -->
<g id="Node000007" class="node">
<title>Node7</title>
<g id="a_Node000007"><a xlink:href="../../d8/d24/_grid___computations___optimized_8cpp_a0df6c9c73cc2b10f88b2fbdf05b3685d.html#a0df6c9c73cc2b10f88b2fbdf05b3685d" target="_top" xlink:title=" ">
<polygon fill="white" stroke="#666666" points="852.5,-326.25 717.25,-326.25 717.25,-307 852.5,-307 852.5,-326.25"/>
<text text-anchor="middle" x="784.88" y="-312.75" font-family="Helvetica,sans-Serif" font-size="10.00">Construct_Face_Optimized</text>
</a>
</g>
</g>
<!-- Node6&#45;&gt;Node7 -->
<g id="edge6_Node000006_Node000007" class="edge">
<title>Node6&#45;&gt;Node7</title>
<g id="a_edge6_Node000006_Node000007"><a xlink:title=" ">
<path fill="none" stroke="#63b8ff" d="M661.08,-316.62C675.43,-316.62 690.78,-316.62 705.6,-316.62"/>
<polygon fill="#63b8ff" stroke="#63b8ff" points="705.29,-320.13 715.29,-316.63 705.29,-313.13 705.29,-320.13"/>
</a>
</g>
</g>
<!-- Node9&#45;&gt;Node5 -->
<g id="edge9_Node000009_Node000005" class="edge">
<title>Node9&#45;&gt;Node5</title>
<g id="a_edge9_Node000009_Node000005"><a xlink:title=" ">
<path fill="none" stroke="#63b8ff" d="M480.01,-343.9C501.07,-345.69 523.55,-347.61 542.94,-349.26"/>
<polygon fill="#63b8ff" stroke="#63b8ff" points="542.51,-352.73 552.77,-350.09 543.1,-345.76 542.51,-352.73"/>
</a>
</g>
</g>
<!-- Node9&#45;&gt;Node6 -->
<g id="edge10_Node000009_Node000006" class="edge">
<title>Node9&#45;&gt;Node6</title>
<g id="a_edge10_Node000009_Node000006"><a xlink:title=" ">
<path fill="none" stroke="#63b8ff" d="M480.01,-329.39C492.54,-327.99 505.56,-326.53 518.14,-325.13"/>
<polygon fill="#63b8ff" stroke="#63b8ff" points="518.49,-328.61 528.04,-324.02 517.71,-321.65 518.49,-328.61"/>
</a>
</g>
</g>
<!-- Node11 -->
<g id="Node000011" class="node">
<title>Node11</title>
<g id="a_Node000011"><a xlink:href="../../d8/d40/_grid___computations_8cpp_a7e6f11445e90cefdcb91f369846ec691.html#a7e6f11445e90cefdcb91f369846ec691" target="_top" xlink:title=" ">
<polygon fill="white" stroke="#666666" points="652.38,-239.88 538.12,-239.88 538.12,-209.38 652.38,-209.38 652.38,-239.88"/>
<text text-anchor="start" x="546.12" y="-226.38" font-family="Helvetica,sans-Serif" font-size="10.00">Calculate_Cell_Center</text>
<text text-anchor="middle" x="595.25" y="-215.12" font-family="Helvetica,sans-Serif" font-size="10.00">_Distances</text>
</a>
</g>
</g>
<!-- Node10&#45;&gt;Node11 -->
<g id="edge12_Node000010_Node000011" class="edge">
<title>Node10&#45;&gt;Node11</title>
<g id="a_edge12_Node000010_Node000011"><a xlink:title=" ">
<path fill="none" stroke="#63b8ff" d="M490.08,-212.43C502.32,-213.87 514.8,-215.33 526.66,-216.72"/>
<polygon fill="#63b8ff" stroke="#63b8ff" points="525.98,-220.16 536.32,-217.85 526.8,-213.21 525.98,-220.16"/>
</a>
</g>
</g>
<!-- Node14 -->
<g id="Node000014" class="node">
<title>Node14</title>
<g id="a_Node000014"><a xlink:href="../../d8/d24/_grid___computations___optimized_8cpp_a232a6cc799531f31fb5128af047a41d8.html#a232a6cc799531f31fb5128af047a41d8" target="_top" xlink:title=" ">
<polygon fill="white" stroke="#666666" points="652.75,-190.88 537.75,-190.88 537.75,-160.38 652.75,-160.38 652.75,-190.88"/>
<text text-anchor="start" x="545.75" y="-177.38" font-family="Helvetica,sans-Serif" font-size="10.00">Calculate_Cell_Center</text>
<text text-anchor="middle" x="595.25" y="-166.12" font-family="Helvetica,sans-Serif" font-size="10.00">_Distances_Optimized</text>
</a>
</g>
</g>
<!-- Node10&#45;&gt;Node14 -->
<g id="edge15_Node000010_Node000014" class="edge">
<title>Node10&#45;&gt;Node14</title>
<g id="a_edge15_Node000010_Node000014"><a xlink:title=" ">
<path fill="none" stroke="#63b8ff" d="M490.08,-190.59C502.17,-188.85 514.5,-187.08 526.23,-185.39"/>
<polygon fill="#63b8ff" stroke="#63b8ff" points="526.38,-188.91 535.78,-184.02 525.38,-181.98 526.38,-188.91"/>
</a>
</g>
</g>
<!-- Node12 -->
<g id="Node000012" class="node">
<title>Node12</title>
<g id="a_Node000012"><a xlink:href="../../d8/d40/_grid___computations_8cpp_a1f273579608200866e02e34f16a3eb6b.html#a1f273579608200866e02e34f16a3eb6b" target="_top" xlink:title=" ">
<polygon fill="white" stroke="#666666" points="850.62,-234.25 719.12,-234.25 719.12,-215 850.62,-215 850.62,-234.25"/>
<text text-anchor="middle" x="784.88" y="-220.75" font-family="Helvetica,sans-Serif" font-size="10.00">Distance_Between_Points</text>
</a>
</g>
</g>
<!-- Node11&#45;&gt;Node12 -->
<g id="edge13_Node000011_Node000012" class="edge">
<title>Node11&#45;&gt;Node12</title>
<g id="a_edge13_Node000011_Node000012"><a xlink:title=" ">
<path fill="none" stroke="#63b8ff" d="M652.8,-224.62C670.04,-224.62 689.3,-224.62 707.62,-224.62"/>
<polygon fill="#63b8ff" stroke="#63b8ff" points="707.37,-228.13 717.37,-224.63 707.37,-221.13 707.37,-228.13"/>
</a>
</g>
</g>
<!-- Node13 -->
<g id="Node000013" class="node">
<title>Node13</title>
<g id="a_Node000013"><a xlink:href="../../dc/d3a/src_2_utility___files_8cpp_abf34e0b480f7580b0cd4237a76aed670.html#abf34e0b480f7580b0cd4237a76aed670" target="_top" xlink:title=" ">
<polygon fill="white" stroke="#666666" points="941.25,-234.25 905,-234.25 905,-215 941.25,-215 941.25,-234.25"/>
<text text-anchor="middle" x="923.12" y="-220.75" font-family="Helvetica,sans-Serif" font-size="10.00">Print</text>
</a>
</g>
</g>
<!-- Node12&#45;&gt;Node13 -->
<g id="edge14_Node000012_Node000013" class="edge">
<title>Node12&#45;&gt;Node13</title>
<g id="a_edge14_Node000012_Node000013"><a xlink:title=" ">
<path fill="none" stroke="#63b8ff" d="M850.81,-224.62C865.72,-224.62 880.83,-224.62 893.28,-224.62"/>
<polygon fill="#63b8ff" stroke="#63b8ff" points="893.23,-228.13 903.23,-224.63 893.23,-221.13 893.23,-228.13"/>
</a>
</g>
</g>
<!-- Node15 -->
<g id="Node000015" class="node">
<title>Node15</title>
<g id="a_Node000015"><a xlink:href="../../d4/d7b/namespace_grid_performance_a2fdab3242d4062c9533d3b3d1be6fa54.html#a2fdab3242d4062c9533d3b3d1be6fa54" target="_top" xlink:title=" ">
<polygon fill="white" stroke="#666666" points="842.38,-190.88 727.38,-190.88 727.38,-160.38 842.38,-160.38 842.38,-190.88"/>
<text text-anchor="start" x="735.38" y="-177.38" font-family="Helvetica,sans-Serif" font-size="10.00">GridPerformance::start</text>
<text text-anchor="middle" x="784.88" y="-166.12" font-family="Helvetica,sans-Serif" font-size="10.00">_timer</text>
</a>
</g>
</g>
<!-- Node14&#45;&gt;Node15 -->
<g id="edge16_Node000014_Node000015" class="edge">
<title>Node14&#45;&gt;Node15</title>
<g id="a_edge16_Node000014_Node000015"><a xlink:title=" ">
<path fill="none" stroke="#63b8ff" d="M653.05,-175.62C672.71,-175.62 694.95,-175.62 715.44,-175.62"/>
<polygon fill="#63b8ff" stroke="#63b8ff" points="715.43,-179.13 725.43,-175.63 715.43,-172.13 715.43,-179.13"/>
</a>
</g>
</g>
<!-- Node17 -->
<g id="Node000017" class="node">
<title>Node17</title>
<g id="a_Node000017"><a xlink:href="../../d8/d40/_grid___computations_8cpp_a614d9bfab5b0ee048b9e08a296757c42.html#a614d9bfab5b0ee048b9e08a296757c42" target="_top" xlink:title=" ">
<polygon fill="white" stroke="#666666" points="664,-56.25 526.5,-56.25 526.5,-37 664,-37 664,-56.25"/>
<text text-anchor="middle" x="595.25" y="-42.75" font-family="Helvetica,sans-Serif" font-size="10.00">Sort_Points_AntiClockWise</text>
</a>
</g>
</g>
<!-- Node16&#45;&gt;Node17 -->
<g id="edge18_Node000016_Node000017" class="edge">
<title>Node16&#45;&gt;Node17</title>
<g id="a_edge18_Node000016_Node000017"><a xlink:title=" ">
<path fill="none" stroke="#63b8ff" d="M467.38,-131.95C475.07,-129.22 482.7,-126.12 489.75,-122.62 521.86,-106.72 554.57,-81.08 574.64,-64.05"/>
<polygon fill="#63b8ff" stroke="#63b8ff" points="576.76,-66.85 582.03,-57.66 572.18,-61.55 576.76,-66.85"/>
</a>
</g>
</g>
<!-- Node22 -->
<g id="Node000022" class="node">
<title>Node22</title>
<g id="a_Node000022"><a xlink:href="../../d8/d24/_grid___computations___optimized_8cpp_acee5cfe90b71aaaec2520da8a6e45a58.html#acee5cfe90b71aaaec2520da8a6e45a58" target="_top" xlink:title=" ">
<polygon fill="white" stroke="#666666" points="664,-141.88 526.5,-141.88 526.5,-111.38 664,-111.38 664,-141.88"/>
<text text-anchor="start" x="534.5" y="-128.38" font-family="Helvetica,sans-Serif" font-size="10.00">Sort_Points_AntiClockWise</text>
<text text-anchor="middle" x="595.25" y="-117.12" font-family="Helvetica,sans-Serif" font-size="10.00">_Optimized</text>
</a>
</g>
</g>
<!-- Node16&#45;&gt;Node22 -->
<g id="edge23_Node000016_Node000022" class="edge">
<title>Node16&#45;&gt;Node22</title>
<g id="a_edge23_Node000016_Node000022"><a xlink:title=" ">
<path fill="none" stroke="#63b8ff" d="M475.19,-139.92C488.2,-138.47 501.91,-136.94 515.21,-135.45"/>
<polygon fill="#63b8ff" stroke="#63b8ff" points="515.21,-138.98 524.76,-134.39 514.43,-132.02 515.21,-138.98"/>
</a>
</g>
</g>
<!-- Node18 -->
<g id="Node000018" class="node">
<title>Node18</title>
<g id="a_Node000018"><a xlink:href="../../d8/d40/_grid___computations_8cpp_a0bdffb27693c14d6cb4ef62eb5bd5d7f.html#a0bdffb27693c14d6cb4ef62eb5bd5d7f" target="_top" xlink:title="Sorts a set of points in anti&#45;clockwise order around their centroid.">
<polygon fill="white" stroke="#666666" points="869,-19.25 700.75,-19.25 700.75,0 869,0 869,-19.25"/>
<text text-anchor="middle" x="784.88" y="-5.75" font-family="Helvetica,sans-Serif" font-size="10.00">Are_Points_Sorted_AntiClockWise</text>
</a>
</g>
</g>
<!-- Node17&#45;&gt;Node18 -->
<g id="edge19_Node000017_Node000018" class="edge">
<title>Node17&#45;&gt;Node18</title>
<g id="a_edge19_Node000017_Node000018"><a xlink:title=" ">
<path fill="none" stroke="#63b8ff" d="M647.52,-36.51C670.37,-32.01 697.5,-26.66 721.52,-21.92"/>
<polygon fill="#63b8ff" stroke="#63b8ff" points="722.05,-25.38 731.18,-20.02 720.69,-18.52 722.05,-25.38"/>
</a>
</g>
</g>
<!-- Node19 -->
<g id="Node000019" class="node">
<title>Node19</title>
<g id="a_Node000019"><a xlink:href="../../d8/d40/_grid___computations_8cpp_a4dd07afd2a0f939b4d47bfa1088912c4.html#a4dd07afd2a0f939b4d47bfa1088912c4" target="_top" xlink:title=" ">
<polygon fill="white" stroke="#666666" points="833.75,-56.25 736,-56.25 736,-37 833.75,-37 833.75,-56.25"/>
<text text-anchor="middle" x="784.88" y="-42.75" font-family="Helvetica,sans-Serif" font-size="10.00">Compute_Centroid</text>
</a>
</g>
</g>
<!-- Node17&#45;&gt;Node19 -->
<g id="edge20_Node000017_Node000019" class="edge">
<title>Node17&#45;&gt;Node19</title>
<g id="a_edge20_Node000017_Node000019"><a xlink:title=" ">
<path fill="none" stroke="#63b8ff" d="M664.25,-46.62C683.97,-46.62 705.34,-46.62 724.49,-46.62"/>
<polygon fill="#63b8ff" stroke="#63b8ff" points="724.27,-50.13 734.27,-46.63 724.27,-43.13 724.27,-50.13"/>
</a>
</g>
</g>
<!-- Node20 -->
<g id="Node000020" class="node">
<title>Node20</title>
<g id="a_Node000020"><a xlink:href="../../d3/d82/_c_type___elliptic___grid_8cpp_a9d9acf133a5b966f0cbd16a2c57a7d79.html#a9d9acf133a5b966f0cbd16a2c57a7d79" target="_top" xlink:title=" ">
<polygon fill="white" stroke="#666666" points="937.52,-74.25 908.73,-74.25 908.73,-55 937.52,-55 937.52,-74.25"/>
<text text-anchor="middle" x="923.12" y="-60.75" font-family="Helvetica,sans-Serif" font-size="10.00">x</text>
</a>
</g>
</g>
<!-- Node19&#45;&gt;Node20 -->
<g id="edge21_Node000019_Node000020" class="edge">
<title>Node19&#45;&gt;Node20</title>
<g id="a_edge21_Node000019_Node000020"><a xlink:title=" ">
<path fill="none" stroke="#63b8ff" d="M833.91,-52.97C855.22,-55.79 879.41,-58.98 897.07,-61.31"/>
<polygon fill="#63b8ff" stroke="#63b8ff" points="896.51,-64.77 906.88,-62.61 897.42,-57.83 896.51,-64.77"/>
</a>
</g>
</g>
<!-- Node21 -->
<g id="Node000021" class="node">
<title>Node21</title>
<g id="a_Node000021"><a xlink:href="../../d3/d82/_c_type___elliptic___grid_8cpp_aae4b761a64c952b4c008655d1dc59a12.html#aae4b761a64c952b4c008655d1dc59a12" target="_top" xlink:title=" ">
<polygon fill="white" stroke="#666666" points="937.52,-37.25 908.73,-37.25 908.73,-18 937.52,-18 937.52,-37.25"/>
<text text-anchor="middle" x="923.12" y="-23.75" font-family="Helvetica,sans-Serif" font-size="10.00">y</text>
</a>
</g>
</g>
<!-- Node19&#45;&gt;Node21 -->
<g id="edge22_Node000019_Node000021" class="edge">
<title>Node19&#45;&gt;Node21</title>
<g id="a_edge22_Node000019_Node000021"><a xlink:title=" ">
<path fill="none" stroke="#63b8ff" d="M833.91,-39.93C855.22,-36.95 879.41,-33.58 897.07,-31.12"/>
<polygon fill="#63b8ff" stroke="#63b8ff" points="897.46,-34.6 906.88,-29.75 896.49,-27.67 897.46,-34.6"/>
</a>
</g>
</g>
<!-- Node22&#45;&gt;Node15 -->
<g id="edge26_Node000022_Node000015" class="edge">
<title>Node22&#45;&gt;Node15</title>
<g id="a_edge26_Node000022_Node000015"><a xlink:title=" ">
<path fill="none" stroke="#63b8ff" d="M656.39,-142.33C675.38,-147.29 696.5,-152.81 716,-157.9"/>
<polygon fill="#63b8ff" stroke="#63b8ff" points="714.92,-161.24 725.48,-160.38 716.69,-154.46 714.92,-161.24"/>
</a>
</g>
</g>
<!-- Node23 -->
<g id="Node000023" class="node">
<title>Node23</title>
<g id="a_Node000023"><a xlink:href="../../d8/d24/_grid___computations___optimized_8cpp_a4aa67e04fed22cb4825a14af51b57baf.html#a4aa67e04fed22cb4825a14af51b57baf" target="_top" xlink:title=" ">
<polygon fill="white" stroke="#666666" points="858.5,-142.25 711.25,-142.25 711.25,-123 858.5,-123 858.5,-142.25"/>
<text text-anchor="middle" x="784.88" y="-128.75" font-family="Helvetica,sans-Serif" font-size="10.00">Compute_Centroid_Optimized</text>
</a>
</g>
</g>
<!-- Node22&#45;&gt;Node23 -->
<g id="edge24_Node000022_Node000023" class="edge">
<title>Node22&#45;&gt;Node23</title>
<g id="a_edge24_Node000022_Node000023"><a xlink:title=" ">
<path fill="none" stroke="#63b8ff" d="M664.25,-128.8C675.78,-129.17 687.86,-129.55 699.74,-129.93"/>
<polygon fill="#63b8ff" stroke="#63b8ff" points="699.42,-133.43 709.53,-130.25 699.64,-126.43 699.42,-133.43"/>
</a>
</g>
</g>
<!-- Node24 -->
<g id="Node000024" class="node">
<title>Node24</title>
<g id="a_Node000024"><a xlink:href="../../d4/d7b/namespace_grid_performance_aaac03e00f6d3dcd501015a9143fb1814.html#aaac03e00f6d3dcd501015a9143fb1814" target="_top" xlink:title=" ">
<polygon fill="white" stroke="#666666" points="840.5,-104.88 729.25,-104.88 729.25,-74.38 840.5,-74.38 840.5,-104.88"/>
<text text-anchor="start" x="737.25" y="-91.38" font-family="Helvetica,sans-Serif" font-size="10.00">GridPerformance::end</text>
<text text-anchor="middle" x="784.88" y="-80.12" font-family="Helvetica,sans-Serif" font-size="10.00">_timer</text>
</a>
</g>
</g>
<!-- Node22&#45;&gt;Node24 -->
<g id="edge25_Node000022_Node000024" class="edge">
<title>Node22&#45;&gt;Node24</title>
<g id="a_edge25_Node000022_Node000024"><a xlink:title=" ">
<path fill="none" stroke="#63b8ff" d="M664.25,-113.21C681.72,-109.77 700.47,-106.07 717.84,-102.65"/>
<polygon fill="#63b8ff" stroke="#63b8ff" points="718.4,-106.1 727.53,-100.74 717.04,-99.24 718.4,-106.1"/>
</a>
</g>
</g>
</g>
</svg>
