<?xml version="1.0" encoding="UTF-8" standalone="no"?>
<!DOCTYPE svg PUBLIC "-//W3C//DTD SVG 1.1//EN"
 "http://www.w3.org/Graphics/SVG/1.1/DTD/svg11.dtd">
<!-- Generated by graphviz version 12.2.1 (20241206.2353)
 -->
<!-- Title: quick_performance_test Pages: 1 -->
<svg width="744pt" height="166pt"
 viewBox="0.00 0.00 743.50 165.88" xmlns="http://www.w3.org/2000/svg" xmlns:xlink="http://www.w3.org/1999/xlink">
<g id="graph0" class="graph" transform="scale(1 1) rotate(0) translate(4 161.88)">
<title>quick_performance_test</title>
<!-- Node1 -->
<g id="Node000001" class="node">
<title>Node1</title>
<g id="a_Node000001"><a xlink:title=" ">
<polygon fill="#999999" stroke="#666666" points="120.25,-73.88 0,-73.88 0,-54.62 120.25,-54.62 120.25,-73.88"/>
<text text-anchor="middle" x="60.12" y="-60.38" font-family="Helvetica,sans-Serif" font-size="10.00">quick_performance_test</text>
</a>
</g>
</g>
<!-- Node2 -->
<g id="Node000002" class="node">
<title>Node2</title>
<g id="a_Node000002"><a xlink:href="../../d3/de1/class_grid_performance_benchmark_a6287a0ff24d43276bcedb01cc2493ab2.html#a6287a0ff24d43276bcedb01cc2493ab2" target="_top" xlink:title=" ">
<polygon fill="white" stroke="#666666" points="315.12,-128.5 166.38,-128.5 166.38,-98 315.12,-98 315.12,-128.5"/>
<text text-anchor="start" x="174.38" y="-115" font-family="Helvetica,sans-Serif" font-size="10.00">GridPerformanceBenchmark</text>
<text text-anchor="middle" x="240.75" y="-103.75" font-family="Helvetica,sans-Serif" font-size="10.00">::benchmark_cell_construction</text>
</a>
</g>
</g>
<!-- Node1&#45;&gt;Node2 -->
<g id="edge1_Node000001_Node000002" class="edge">
<title>Node1&#45;&gt;Node2</title>
<g id="a_edge1_Node000001_Node000002"><a xlink:title=" ">
<path fill="none" stroke="#63b8ff" d="M97.7,-74.28C118.95,-80.11 146.41,-87.64 171.51,-94.53"/>
<polygon fill="#63b8ff" stroke="#63b8ff" points="170.44,-97.87 181.01,-97.14 172.29,-91.12 170.44,-97.87"/>
</a>
</g>
</g>
<!-- Node6 -->
<g id="Node000006" class="node">
<title>Node6</title>
<g id="a_Node000006"><a xlink:href="../../d3/de1/class_grid_performance_benchmark_a8304b3cde0e7f9ad1d1b72c9354b8e8f.html#a8304b3cde0e7f9ad1d1b72c9354b8e8f" target="_top" xlink:title=" ">
<polygon fill="white" stroke="#666666" points="325.25,-79.5 156.25,-79.5 156.25,-49 325.25,-49 325.25,-79.5"/>
<text text-anchor="start" x="164.25" y="-66" font-family="Helvetica,sans-Serif" font-size="10.00">GridPerformanceBenchmark</text>
<text text-anchor="middle" x="240.75" y="-54.75" font-family="Helvetica,sans-Serif" font-size="10.00">::benchmark_distance_calculations</text>
</a>
</g>
</g>
<!-- Node1&#45;&gt;Node6 -->
<g id="edge5_Node000001_Node000006" class="edge">
<title>Node1&#45;&gt;Node6</title>
<g id="a_edge5_Node000001_Node000006"><a xlink:title=" ">
<path fill="none" stroke="#63b8ff" d="M120.6,-64.25C128.33,-64.25 136.39,-64.25 144.52,-64.25"/>
<polygon fill="#63b8ff" stroke="#63b8ff" points="144.51,-67.75 154.51,-64.25 144.51,-60.75 144.51,-67.75"/>
</a>
</g>
</g>
<!-- Node12 -->
<g id="Node000012" class="node">
<title>Node12</title>
<g id="a_Node000012"><a xlink:href="../../d3/de1/class_grid_performance_benchmark_a317e26aa78d349818262ba23f31d99fc.html#a317e26aa78d349818262ba23f31d99fc" target="_top" xlink:title=" ">
<polygon fill="white" stroke="#666666" points="310.25,-30.5 171.25,-30.5 171.25,0 310.25,0 310.25,-30.5"/>
<text text-anchor="start" x="179.25" y="-17" font-family="Helvetica,sans-Serif" font-size="10.00">GridPerformanceBenchmark</text>
<text text-anchor="middle" x="240.75" y="-5.75" font-family="Helvetica,sans-Serif" font-size="10.00">::generate_test_grid</text>
</a>
</g>
</g>
<!-- Node1&#45;&gt;Node12 -->
<g id="edge11_Node000001_Node000012" class="edge">
<title>Node1&#45;&gt;Node12</title>
<g id="a_edge11_Node000001_Node000012"><a xlink:title=" ">
<path fill="none" stroke="#63b8ff" d="M97.7,-54.22C118.95,-48.39 146.41,-40.86 171.51,-33.97"/>
<polygon fill="#63b8ff" stroke="#63b8ff" points="172.29,-37.38 181.01,-31.36 170.44,-30.63 172.29,-37.38"/>
</a>
</g>
</g>
<!-- Node3 -->
<g id="Node000003" class="node">
<title>Node3</title>
<g id="a_Node000003"><a xlink:href="../../d8/d40/_grid___computations_8cpp_a2d284e26ddef582519953e8b8300184e.html#a2d284e26ddef582519953e8b8300184e" target="_top" xlink:title=" ">
<polygon fill="white" stroke="#666666" points="467.25,-157.88 386,-157.88 386,-138.62 467.25,-138.62 467.25,-157.88"/>
<text text-anchor="middle" x="426.62" y="-144.38" font-family="Helvetica,sans-Serif" font-size="10.00">Construct_Cell</text>
</a>
</g>
</g>
<!-- Node2&#45;&gt;Node3 -->
<g id="edge2_Node000002_Node000003" class="edge">
<title>Node2&#45;&gt;Node3</title>
<g id="a_edge2_Node000002_Node000003"><a xlink:title=" ">
<path fill="none" stroke="#63b8ff" d="M315.48,-127.28C335.24,-131.05 356.18,-135.03 374.43,-138.5"/>
<polygon fill="#63b8ff" stroke="#63b8ff" points="373.73,-141.94 384.21,-140.37 375.04,-135.06 373.73,-141.94"/>
</a>
</g>
</g>
<!-- Node4 -->
<g id="Node000004" class="node">
<title>Node4</title>
<g id="a_Node000004"><a xlink:href="../../d8/d24/_grid___computations___optimized_8cpp_a092b66b03987591a3eee8d8d659c50f5.html#a092b66b03987591a3eee8d8d659c50f5" target="_top" xlink:title=" ">
<polygon fill="white" stroke="#666666" points="492,-120.88 361.25,-120.88 361.25,-101.62 492,-101.62 492,-120.88"/>
<text text-anchor="middle" x="426.62" y="-107.38" font-family="Helvetica,sans-Serif" font-size="10.00">Construct_Cell_Optimized</text>
</a>
</g>
</g>
<!-- Node2&#45;&gt;Node4 -->
<g id="edge3_Node000002_Node000004" class="edge">
<title>Node2&#45;&gt;Node4</title>
<g id="a_edge3_Node000002_Node000004"><a xlink:title=" ">
<path fill="none" stroke="#63b8ff" d="M315.48,-112.45C326.6,-112.33 338.1,-112.2 349.27,-112.08"/>
<polygon fill="#63b8ff" stroke="#63b8ff" points="349.3,-115.58 359.26,-111.97 349.23,-108.58 349.3,-115.58"/>
</a>
</g>
</g>
<!-- Node5 -->
<g id="Node000005" class="node">
<title>Node5</title>
<g id="a_Node000005"><a xlink:href="../../d8/d24/_grid___computations___optimized_8cpp_a0df6c9c73cc2b10f88b2fbdf05b3685d.html#a0df6c9c73cc2b10f88b2fbdf05b3685d" target="_top" xlink:title=" ">
<polygon fill="white" stroke="#666666" points="663.25,-120.88 528,-120.88 528,-101.62 663.25,-101.62 663.25,-120.88"/>
<text text-anchor="middle" x="595.62" y="-107.38" font-family="Helvetica,sans-Serif" font-size="10.00">Construct_Face_Optimized</text>
</a>
</g>
</g>
<!-- Node4&#45;&gt;Node5 -->
<g id="edge4_Node000004_Node000005" class="edge">
<title>Node4&#45;&gt;Node5</title>
<g id="a_edge4_Node000004_Node000005"><a xlink:title=" ">
<path fill="none" stroke="#63b8ff" d="M492.19,-111.25C500.11,-111.25 508.28,-111.25 516.37,-111.25"/>
<polygon fill="#63b8ff" stroke="#63b8ff" points="516.23,-114.75 526.23,-111.25 516.23,-107.75 516.23,-114.75"/>
</a>
</g>
</g>
<!-- Node7 -->
<g id="Node000007" class="node">
<title>Node7</title>
<g id="a_Node000007"><a xlink:href="../../d8/d40/_grid___computations_8cpp_a7e6f11445e90cefdcb91f369846ec691.html#a7e6f11445e90cefdcb91f369846ec691" target="_top" xlink:title=" ">
<polygon fill="white" stroke="#666666" points="483.75,-80.5 369.5,-80.5 369.5,-50 483.75,-50 483.75,-80.5"/>
<text text-anchor="start" x="377.5" y="-67" font-family="Helvetica,sans-Serif" font-size="10.00">Calculate_Cell_Center</text>
<text text-anchor="middle" x="426.62" y="-55.75" font-family="Helvetica,sans-Serif" font-size="10.00">_Distances</text>
</a>
</g>
</g>
<!-- Node6&#45;&gt;Node7 -->
<g id="edge6_Node000006_Node000007" class="edge">
<title>Node6&#45;&gt;Node7</title>
<g id="a_edge6_Node000006_Node000007"><a xlink:title=" ">
<path fill="none" stroke="#63b8ff" d="M325.62,-64.71C336.47,-64.77 347.47,-64.82 358.01,-64.88"/>
<polygon fill="#63b8ff" stroke="#63b8ff" points="357.71,-68.38 367.73,-64.94 357.75,-61.38 357.71,-68.38"/>
</a>
</g>
</g>
<!-- Node10 -->
<g id="Node000010" class="node">
<title>Node10</title>
<g id="a_Node000010"><a xlink:href="../../d8/d24/_grid___computations___optimized_8cpp_a232a6cc799531f31fb5128af047a41d8.html#a232a6cc799531f31fb5128af047a41d8" target="_top" xlink:title=" ">
<polygon fill="white" stroke="#666666" points="484.12,-31.5 369.12,-31.5 369.12,-1 484.12,-1 484.12,-31.5"/>
<text text-anchor="start" x="377.12" y="-18" font-family="Helvetica,sans-Serif" font-size="10.00">Calculate_Cell_Center</text>
<text text-anchor="middle" x="426.62" y="-6.75" font-family="Helvetica,sans-Serif" font-size="10.00">_Distances_Optimized</text>
</a>
</g>
</g>
<!-- Node6&#45;&gt;Node10 -->
<g id="edge9_Node000006_Node000010" class="edge">
<title>Node6&#45;&gt;Node10</title>
<g id="a_edge9_Node000006_Node000010"><a xlink:title=" ">
<path fill="none" stroke="#63b8ff" d="M301.96,-48.53C319.82,-43.87 339.51,-38.73 357.82,-33.95"/>
<polygon fill="#63b8ff" stroke="#63b8ff" points="358.46,-37.4 367.25,-31.49 356.69,-30.63 358.46,-37.4"/>
</a>
</g>
</g>
<!-- Node8 -->
<g id="Node000008" class="node">
<title>Node8</title>
<g id="a_Node000008"><a xlink:href="../../d8/d40/_grid___computations_8cpp_a1f273579608200866e02e34f16a3eb6b.html#a1f273579608200866e02e34f16a3eb6b" target="_top" xlink:title=" ">
<polygon fill="white" stroke="#666666" points="661.38,-74.88 529.88,-74.88 529.88,-55.62 661.38,-55.62 661.38,-74.88"/>
<text text-anchor="middle" x="595.62" y="-61.38" font-family="Helvetica,sans-Serif" font-size="10.00">Distance_Between_Points</text>
</a>
</g>
</g>
<!-- Node7&#45;&gt;Node8 -->
<g id="edge7_Node000007_Node000008" class="edge">
<title>Node7&#45;&gt;Node8</title>
<g id="a_edge7_Node000007_Node000008"><a xlink:title=" ">
<path fill="none" stroke="#63b8ff" d="M484.16,-65.25C495.09,-65.25 506.71,-65.25 518.15,-65.25"/>
<polygon fill="#63b8ff" stroke="#63b8ff" points="517.99,-68.75 527.99,-65.25 517.99,-61.75 517.99,-68.75"/>
</a>
</g>
</g>
<!-- Node9 -->
<g id="Node000009" class="node">
<title>Node9</title>
<g id="a_Node000009"><a xlink:href="../../dc/d3a/src_2_utility___files_8cpp_abf34e0b480f7580b0cd4237a76aed670.html#abf34e0b480f7580b0cd4237a76aed670" target="_top" xlink:title=" ">
<polygon fill="white" stroke="#666666" points="735.5,-74.88 699.25,-74.88 699.25,-55.62 735.5,-55.62 735.5,-74.88"/>
<text text-anchor="middle" x="717.38" y="-61.38" font-family="Helvetica,sans-Serif" font-size="10.00">Print</text>
</a>
</g>
</g>
<!-- Node8&#45;&gt;Node9 -->
<g id="edge8_Node000008_Node000009" class="edge">
<title>Node8&#45;&gt;Node9</title>
<g id="a_edge8_Node000008_Node000009"><a xlink:title=" ">
<path fill="none" stroke="#63b8ff" d="M661.76,-65.25C670.83,-65.25 679.74,-65.25 687.64,-65.25"/>
<polygon fill="#63b8ff" stroke="#63b8ff" points="687.61,-68.75 697.61,-65.25 687.61,-61.75 687.61,-68.75"/>
</a>
</g>
</g>
<!-- Node11 -->
<g id="Node000011" class="node">
<title>Node11</title>
<g id="a_Node000011"><a xlink:href="../../d4/d7b/namespace_grid_performance_a2fdab3242d4062c9533d3b3d1be6fa54.html#a2fdab3242d4062c9533d3b3d1be6fa54" target="_top" xlink:title=" ">
<polygon fill="white" stroke="#666666" points="653.12,-31.5 538.12,-31.5 538.12,-1 653.12,-1 653.12,-31.5"/>
<text text-anchor="start" x="546.12" y="-18" font-family="Helvetica,sans-Serif" font-size="10.00">GridPerformance::start</text>
<text text-anchor="middle" x="595.62" y="-6.75" font-family="Helvetica,sans-Serif" font-size="10.00">_timer</text>
</a>
</g>
</g>
<!-- Node10&#45;&gt;Node11 -->
<g id="edge10_Node000010_Node000011" class="edge">
<title>Node10&#45;&gt;Node11</title>
<g id="a_edge10_Node000010_Node000011"><a xlink:title=" ">
<path fill="none" stroke="#63b8ff" d="M484.16,-16.25C497.83,-16.25 512.57,-16.25 526.7,-16.25"/>
<polygon fill="#63b8ff" stroke="#63b8ff" points="526.35,-19.75 536.35,-16.25 526.35,-12.75 526.35,-19.75"/>
</a>
</g>
</g>
</g>
</svg>
